<?xml version="1.0" encoding="UTF-8"?>
<!DOCTYPE xmeml>
<xmeml version="5">
<sequence id="Kraakeklubben Pgm 5 v3 ">
	<uuid>5A40E71C-4F63-46F1-8C4F-E4C9ABEE6344</uuid>
	<updatebehavior>add</updatebehavior>
	<name>Kraakeklubben Pgm 5 v3</name>
	<duration>30903</duration>
	<rate>
		<ntsc>FALSE</ntsc>
		<timebase>25</timebase>
	</rate>
	<timecode>
		<rate>
			<ntsc>FALSE</ntsc>
			<timebase>25</timebase>
		</rate>
		<string>00:00:00:00</string>
		<frame>0</frame>
		<source>source</source>
		<displayformat>NDF</displayformat>
	</timecode>
	<in>-1</in>
	<out>30904</out>
	<media>
		<video>
			<format>
				<samplecharacteristics>
					<width>1920</width>
					<height>1080</height>
					<anamorphic>FALSE</anamorphic>
					<pixelaspectratio>Square</pixelaspectratio>
					<fielddominance>upper</fielddominance>
					<rate>
						<ntsc>FALSE</ntsc>
						<timebase>25</timebase>
					</rate>
					<colordepth>24</colordepth>
					<codec>
						<name>Apple XDCAM 422 1080i50 (50 Mb/s CBR)</name>
						<appspecificdata>
							<appname>Final Cut Pro</appname>
							<appmanufacturer>Apple Inc.</appmanufacturer>
							<appversion>7.0</appversion>
							<data>
								<qtcodec>
									<codecname>Apple XDCAM 422 1080i50 (50 Mb/s CBR)</codecname>
									<codectypename>XDCAM 422 1080i50 (50 Mb/s CBR)</codectypename>
									<codectypecode>xd5c</codectypecode>
									<codecvendorcode>appl</codecvendorcode>
									<spatialquality>1023</spatialquality>
									<temporalquality>0</temporalquality>
									<keyframerate>0</keyframerate>
									<datarate>0</datarate>
								</qtcodec>
							</data>
						</appspecificdata>
					</codec>
				</samplecharacteristics>
				<appspecificdata>
					<appname>Final Cut Pro</appname>
					<appmanufacturer>Apple Inc.</appmanufacturer>
					<appversion>7.0</appversion>
					<data>
						<fcpimageprocessing>
							<useyuv>TRUE</useyuv>
							<usesuperwhite>FALSE</usesuperwhite>
							<rendermode>YUV8BPP</rendermode>
						</fcpimageprocessing>
					</data>
				</appspecificdata>
			</format>
			<track>
				<clipitem id="DYR18091_01 plukke mose">
					<name>DYR18091_01 plukke mose</name>
					<duration>935</duration>
					<rate>
						<ntsc>FALSE</ntsc>
						<timebase>25</timebase>
					</rate>
					<in>258</in>
					<out>368</out>
					<start>416</start>
					<end>526</end>
					<pixelaspectratio>Square</pixelaspectratio>
					<enabled>TRUE</enabled>
					<anamorphic>FALSE</anamorphic>
					<alphatype>none</alphatype>
					<masterclipid>DYR18091_01 plukke mose1</masterclipid>
					<logginginfo>
						<scene/>
						<shottake/>
						<lognote/>
						<good>FALSE</good>
					</logginginfo>
					<labels>
						<label2/>
					</labels>
					<comments>
						<mastercomment1/>
						<mastercomment2/>
						<mastercomment3/>
						<mastercomment4/>
					</comments>
					<file id="DYR18091_01 ">
						<name>DYR18091_01.mov</name>
						<pathurl>file://localhost/Volumes/Askepott/Prosjekter/DNPR637010_Kra%CC%8Akeklubben_TEM_011212/Video/SKOGBARNA/Trollskog/DYR18091_01.mov</pathurl>
						<rate>
							<timebase>25</timebase>
						</rate>
						<duration>935</duration>
						<metadata>
							<storage>QuickTime</storage>
							<key>com.sony.bprl.xdcamtransfer.version</key>
							<size>10</size>
							<type>UTF8</type>
							<value>2.12.0.631</value>
						</metadata>
						<metadata>
							<storage>QuickTime</storage>
							<key>org.smpte.mxf.package.material.packageid</key>
							<size>66</size>
							<type>UTF8</type>
							<value>0x060a2b340101010501010d43130000003f9e7582395405d408004602022f05f5</value>
						</metadata>
						<metadata>
							<storage>QuickTime</storage>
							<key>com.sony.professionaldisc.nonrealtimemeta.lastupdate</key>
							<size>25</size>
							<type>UTF8</type>
							<value>2010-08-31 13:14:28 +0100</value>
						</metadata>
						<metadata>
							<storage>QuickTime</storage>
							<key>com.sony.bprl.mxf.umid</key>
							<size>64</size>
							<type>UTF8</type>
							<value>060a2b340101010501010d43130000003f9e7582395405d408004602022f05f5</value>
						</metadata>
						<metadata>
							<storage>QuickTime</storage>
							<key>com.sony.bprl.mxf.nrtmetadata</key>
							<size>1991</size>
							<type>UTF8</type>
							<value>&lt;?xml version="1.0" encoding="UTF-8"?>&lt;NonRealTimeMeta xmlns="urn:schemas-professionalDisc:nonRealTimeMeta:ver.1.20" xmlns:lib="urn:schemas-professionalDisc:lib:ver.1.20" xmlns:xsi="http://www.w3.org/2001/XMLSchema-instance" lastUpdate="2010-08-31T13:14:28+01:00">&lt;TargetMaterial umidRef="060A2B340101010501010D43130000003F9E7582395405D408004602022F05F5">&lt;/TargetMaterial>&lt;Duration value="935">&lt;/Duration>&lt;LtcChangeTable tcFps="25" halfStep="false">&lt;LtcChange frameCount="0" value="14042706" status="increment">&lt;/LtcChange>&lt;LtcChange frameCount="934" value="23412706" status="end">&lt;/LtcChange>&lt;/LtcChangeTable>&lt;CreationDate value="2010-08-31T13:13:50+01:00">&lt;/CreationDate>&lt;TypicalUbit value="0000000017061020">&lt;/TypicalUbit>&lt;BodyUmidBasicChangeTable>&lt;BodyUmidBasicChange frameCount="0" value="060A2B340101010501010D43330000003F9E7582395405D408004602022F05F5" status="start">&lt;/BodyUmidBasicChange>&lt;/BodyUmidBasicChangeTable>&lt;BodyUmidWhenChangeTable>&lt;BodyUmidWhenChange frameCount="0" value="84F63204395405A5" status="increment">&lt;/BodyUmidWhenChange>&lt;BodyUmidWhenChange frameCount="934" value="04E03304395405A5" status="end">&lt;/BodyUmidWhenChange>&lt;/BodyUmidWhenChangeTable>&lt;KlvPacketTable>&lt;KlvPacket key="060E2B34010101050301020A02000000" frameCount="0" lengthValue="095F5265635374617274" status="spot">&lt;/KlvPacket>&lt;/KlvPacketTable>&lt;VideoFormat>&lt;VideoRecPort port="DIRECT">&lt;/VideoRecPort>&lt;VideoFrame videoCodec="MPEG2HD35_1920_1080_MP@HL" captureFps="50.00i" recFps="50.00" formatFps="50i">&lt;/VideoFrame>&lt;VideoLayout pixel="1920" numOfVerticalLine="1080" aspectRatio="16:9">&lt;/VideoLayout>&lt;/VideoFormat>&lt;AudioFormat numOfChannel="2">&lt;AudioRecPort port="ANALOG" audioCodec="LPCM16" trackDst="CH1">&lt;/AudioRecPort>&lt;AudioRecPort port="ANALOG" audioCodec="LPCM16" trackDst="CH2">&lt;/AudioRecPort>&lt;/AudioFormat>&lt;Device manufacturer="Sony" modelName="PMW-EX3" serialNo="0401525">&lt;/Device>&lt;Lens modelName="VCL-614B2X">&lt;/Lens>&lt;RecordingMode type="normal" cacheRec="false">&lt;/RecordingMode>&lt;/NonRealTimeMeta>
							</value>
						</metadata>
						<metadata>
							<storage>QuickTime</storage>
							<key>com.apple.proapps.reel</key>
							<size>8</size>
							<type>UTF8</type>
							<value>Untitled</value>
						</metadata>
						<metadata>
							<storage>QuickTime</storage>
							<key>com.apple.proapps.clipID</key>
							<size>64</size>
							<type>UTF8</type>
							<value>060A2B340101010501010D43130000003F9E7582395405D408004602022F05F5</value>
						</metadata>
						<metadata>
							<storage>QuickTime</storage>
							<key>com.apple.quicktime.information</key>
							<size>64</size>
							<type>UTF8</type>
							<value>060a2b340101010501010d43130000003f9e7582395405d408004602022f05f5</value>
						</metadata>
						<metadata>
							<storage>QuickTime</storage>
							<key>com.apple.proapps.originalFormat</key>
							<size>36</size>
							<type>UTF8</type>
							<value>Apple XDCAM EX 1080i50 (35 Mb/s VBR)</value>
						</metadata>
						<timecode>
							<rate>
								<timebase>25</timebase>
							</rate>
							<string>06:27:04:14</string>
							<frame>580614</frame>
							<displayformat>NDF</displayformat>
							<source>source</source>
							<reel>
								<name>Untitled</name>
							</reel>
						</timecode>
						<media>
							<video>
								<duration>935</duration>
								<samplecharacteristics>
									<width>1920</width>
									<height>1080</height>
								</samplecharacteristics>
							</video>
							<audio>
								<samplecharacteristics>
									<samplerate>48000</samplerate>
									<depth>16</depth>
								</samplecharacteristics>
								<channelcount>1</channelcount>
								<layout>mono</layout>
								<audiochannel>
									<sourcechannel>1</sourcechannel>
									<channellabel>discrete</channellabel>
								</audiochannel>
							</audio>
							<audio>
								<samplecharacteristics>
									<samplerate>48000</samplerate>
									<depth>16</depth>
								</samplecharacteristics>
								<channelcount>1</channelcount>
								<layout>mono</layout>
								<audiochannel>
									<sourcechannel>2</sourcechannel>
									<channellabel>discrete</channellabel>
								</audiochannel>
							</audio>
						</media>
					</file>
					<filter>
						<enabled>TRUE</enabled>
						<start>-1</start>
						<end>-1</end>
						<effect>
							<name>G Black White Diffusion V2.5.1</name>
							<effectcategory>Nattress Film Effects - Image Effects</effectcategory>
							<effecttype>filter</effecttype>
							<mediatype>video</mediatype>
							<parameter>
								<parameterid>blackwhiteorder</parameterid>
								<name>Order</name>
								<valuemin>1</valuemin>
								<valuemax>2</valuemax>
								<valuelist>
									<valueentry>
										<name>Black then White</name>
										<value>1</value>
									</valueentry>
									<valueentry>
										<name>White then Black</name>
										<value>2</value>
									</valueentry>
								</valuelist>
								<value>2</value>
							</parameter>
							<parameter>
								<parameterid>blackvar</parameterid>
								<name>Black Diffusion Controls</name>
								<value>string</value>
							</parameter>
							<parameter>
								<parameterid>blackon</parameterid>
								<name>Black Diffusion On</name>
								<value>TRUE</value>
							</parameter>
							<parameter>
								<parameterid>blackmix</parameterid>
								<name>Amount</name>
								<valuemin>0</valuemin>
								<valuemax>100</valuemax>
								<value>60</value>
							</parameter>
							<parameter>
								<parameterid>blacklimit</parameterid>
								<name>Black Limit</name>
								<valuemin>0</valuemin>
								<valuemax>100</valuemax>
								<value>9</value>
							</parameter>
							<parameter>
								<parameterid>blackbluramount</parameterid>
								<name>Blur Radius</name>
								<valuemin>0</valuemin>
								<valuemax>100</valuemax>
								<value>1</value>
							</parameter>
							<parameter>
								<parameterid>blackblendtype</parameterid>
								<name>Mode</name>
								<valuemin>1</valuemin>
								<valuemax>7</valuemax>
								<valuelist>
									<valueentry>
										<name>Normal</name>
										<value>1</value>
									</valueentry>
									<valueentry>
										<name>Multiply</name>
										<value>2</value>
									</valueentry>
									<valueentry>
										<name>Screen</name>
										<value>3</value>
									</valueentry>
									<valueentry>
										<name>Overlay</name>
										<value>4</value>
									</valueentry>
									<valueentry>
										<name>Lighten</name>
										<value>5</value>
									</valueentry>
									<valueentry>
										<name>Darken</name>
										<value>6</value>
									</valueentry>
									<valueentry>
										<name>Add</name>
										<value>7</value>
									</valueentry>
								</valuelist>
								<value>2</value>
							</parameter>
							<parameter>
								<parameterid>whitevar</parameterid>
								<name>White Diffusion Controls</name>
								<value>string</value>
							</parameter>
							<parameter>
								<parameterid>whiteon</parameterid>
								<name>White Diffusion On</name>
								<value>TRUE</value>
							</parameter>
							<parameter>
								<parameterid>whitemix</parameterid>
								<name>Amount</name>
								<valuemin>0</valuemin>
								<valuemax>100</valuemax>
								<value>53</value>
							</parameter>
							<parameter>
								<parameterid>whitelimit</parameterid>
								<name>White Limit</name>
								<valuemin>0</valuemin>
								<valuemax>100</valuemax>
								<value>31</value>
							</parameter>
							<parameter>
								<parameterid>whitebluramount</parameterid>
								<name>Blur Radius</name>
								<valuemin>0</valuemin>
								<valuemax>100</valuemax>
								<value>8</value>
							</parameter>
							<parameter>
								<parameterid>whiteblendtype</parameterid>
								<name>Mode</name>
								<valuemin>1</valuemin>
								<valuemax>7</valuemax>
								<valuelist>
									<valueentry>
										<name>Normal</name>
										<value>1</value>
									</valueentry>
									<valueentry>
										<name>Multiply</name>
										<value>2</value>
									</valueentry>
									<valueentry>
										<name>Screen</name>
										<value>3</value>
									</valueentry>
									<valueentry>
										<name>Overlay</name>
										<value>4</value>
									</valueentry>
									<valueentry>
										<name>Lighten</name>
										<value>5</value>
									</valueentry>
									<valueentry>
										<name>Darken</name>
										<value>6</value>
									</valueentry>
									<valueentry>
										<name>Add</name>
										<value>7</value>
									</valueentry>
								</valuelist>
								<value>3</value>
							</parameter>
							<parameter>
								<parameterid>copyright</parameterid>
								<name>© www.nattress.com</name>
								<value>string</value>
							</parameter>
						</effect>
					</filter>
					<filter>
						<enabled>TRUE</enabled>
						<start>-1</start>
						<end>-1</end>
						<effect>
							<name>G Vignette V2.5.1</name>
							<effectcategory>Nattress Film Effects - Image Effects</effectcategory>
							<effecttype>filter</effecttype>
							<mediatype>video</mediatype>
							<parameter>
								<parameterid>vignettevar</parameterid>
								<name>Vignette Controls</name>
								<value>string</value>
							</parameter>
							<parameter>
								<parameterid>rgbtinta</parameterid>
								<name>Vignette Colour A</name>
								<value>
									<alpha>0</alpha>
									<red>0</red>
									<green>0</green>
									<blue>0</blue>
								</value>
							</parameter>
							<parameter>
								<parameterid>rgbtintb</parameterid>
								<name>Vignette Colour B</name>
								<value>
									<alpha>0</alpha>
									<red>128</red>
									<green>128</green>
									<blue>128</blue>
								</value>
							</parameter>
							<parameter>
								<parameterid>mattebackground</parameterid>
								<name>Vignette Background</name>
								<valuemin>1</valuemin>
								<valuemax>4</valuemax>
								<valuelist>
									<valueentry>
										<name>Colour A on White</name>
										<value>1</value>
									</valueentry>
									<valueentry>
										<name>Colour A on Black</name>
										<value>2</value>
									</valueentry>
									<valueentry>
										<name>Colour A on Grey</name>
										<value>3</value>
									</valueentry>
									<valueentry>
										<name>Colour A on Colour B</name>
										<value>4</value>
									</valueentry>
								</valuelist>
								<value>1</value>
							</parameter>
							<parameter>
								<parameterid>shape</parameterid>
								<name>Shape</name>
								<valuemin>1</valuemin>
								<valuemax>3</valuemax>
								<valuelist>
									<valueentry>
										<name>Rectangle</name>
										<value>1</value>
									</valueentry>
									<valueentry>
										<name>Oval</name>
										<value>2</value>
									</valueentry>
									<valueentry>
										<name>Custom</name>
										<value>3</value>
									</valueentry>
								</valuelist>
								<value>2</value>
							</parameter>
							<parameter>
								<parameterid>vblur</parameterid>
								<name>Feather</name>
								<valuemin>0</valuemin>
								<valuemax>100</valuemax>
								<value>47</value>
							</parameter>
							<parameter>
								<parameterid>vblend</parameterid>
								<name>Amount</name>
								<valuemin>0</valuemin>
								<valuemax>100</valuemax>
								<value>100</value>
							</parameter>
							<parameter>
								<parameterid>applyas</parameterid>
								<name>Mode</name>
								<valuemin>1</valuemin>
								<valuemax>7</valuemax>
								<valuelist>
									<valueentry>
										<name>Normal</name>
										<value>1</value>
									</valueentry>
									<valueentry>
										<name>Multiply</name>
										<value>2</value>
									</valueentry>
									<valueentry>
										<name>Screen</name>
										<value>3</value>
									</valueentry>
									<valueentry>
										<name>Overlay</name>
										<value>4</value>
									</valueentry>
									<valueentry>
										<name>Lighten</name>
										<value>5</value>
									</valueentry>
									<valueentry>
										<name>Darken</name>
										<value>6</value>
									</valueentry>
									<valueentry>
										<name>Add</name>
										<value>7</value>
									</valueentry>
								</valuelist>
								<value>2</value>
							</parameter>
							<parameter>
								<parameterid>hq</parameterid>
								<name>Dither</name>
								<valuemin>1</valuemin>
								<valuemax>4</valuemax>
								<valuelist>
									<valueentry>
										<name>Off</name>
										<value>1</value>
									</valueentry>
									<valueentry>
										<name>Minimum</name>
										<value>2</value>
									</valueentry>
									<valueentry>
										<name>Medium</name>
										<value>3</value>
									</valueentry>
									<valueentry>
										<name>Strong</name>
										<value>4</value>
									</valueentry>
								</valuelist>
								<value>1</value>
							</parameter>
							<parameter>
								<parameterid>inverse</parameterid>
								<name>Invert?</name>
								<value>FALSE</value>
							</parameter>
							<parameter>
								<parameterid>diagnostics</parameterid>
								<name>Show Helper Outline</name>
								<value>TRUE</value>
							</parameter>
							<parameter>
								<parameterid>maskstuff</parameterid>
								<name>Shape Controls</name>
								<value>string</value>
							</parameter>
							<parameter>
								<parameterid>maskpolycentre</parameterid>
								<name>Shape Centre</name>
								<value>
									<horiz>0</horiz>
									<vert>0</vert>
								</value>
							</parameter>
							<parameter>
								<parameterid>rotoffset</parameterid>
								<name>Rotation</name>
								<valuemin>-360</valuemin>
								<valuemax>360</valuemax>
								<value>-2</value>
							</parameter>
							<parameter>
								<parameterid>thescale</parameterid>
								<name>Scale</name>
								<valuemin>1</valuemin>
								<valuemax>200</valuemax>
								<value>138</value>
							</parameter>
							<parameter>
								<parameterid>vaspect</parameterid>
								<name>Aspect</name>
								<valuemin>0.1</valuemin>
								<valuemax>10</valuemax>
								<value>1.51429</value>
							</parameter>
							<parameter>
								<parameterid>pathvar</parameterid>
								<name>Custom Shape Points</name>
								<value>string</value>
							</parameter>
							<parameter>
								<parameterid>editpoint</parameterid>
								<name>Point to Edit</name>
								<valuemin>1</valuemin>
								<valuemax>8</valuemax>
								<value>1</value>
							</parameter>
							<parameter>
								<parameterid>numpoints</parameterid>
								<name>Number of Points</name>
								<valuemin>3</valuemin>
								<valuemax>8</valuemax>
								<value>8</value>
							</parameter>
							<parameter>
								<parameterid>currentpoint</parameterid>
								<name>Current Point</name>
								<value>
									<horiz>0</horiz>
									<vert>0</vert>
								</value>
							</parameter>
							<parameter>
								<parameterid>pointsharp</parameterid>
								<name>Point Sharpness Toggle</name>
								<value>TRUE</value>
							</parameter>
							<parameter>
								<parameterid>blurvar</parameterid>
								<name>Blur Controls</name>
								<value>string</value>
							</parameter>
							<parameter>
								<parameterid>iblur</parameterid>
								<name>Image Blur</name>
								<valuemin>0</valuemin>
								<valuemax>100</valuemax>
								<value>0</value>
							</parameter>
							<parameter>
								<parameterid>sblur</parameterid>
								<name>Shape Blur</name>
								<valuemin>0</valuemin>
								<valuemax>100</valuemax>
								<value>0</value>
							</parameter>
							<parameter>
								<parameterid>copyright</parameterid>
								<name>© www.nattress.com</name>
								<value>string</value>
							</parameter>
						</effect>
					</filter>
					<sourcetrack>
						<mediatype>video</mediatype>
					</sourcetrack>
					<link>
						<linkclipref>DYR18091_01 plukke mose</linkclipref>
						<mediatype>video</mediatype>
						<trackindex>1</trackindex>
						<clipindex>1</clipindex>
					</link>
					<link>
						<linkclipref>DYR18091_01 plukke mose2</linkclipref>
						<mediatype>audio</mediatype>
						<trackindex>1</trackindex>
						<clipindex>1</clipindex>
					</link>
					<link>
						<linkclipref>DYR18091_01 plukke mose3</linkclipref>
						<mediatype>audio</mediatype>
						<trackindex>2</trackindex>
						<clipindex>1</clipindex>
					</link>
					<fielddominance>upper</fielddominance>
					<itemhistory>
						<uuid>FF7FD263-1636-41ED-B0C9-BF7FA9E3ACD7</uuid>
						<uuid>BCB159B0-6E0E-42EC-8C65-09267CDB0F58</uuid>
					</itemhistory>
				</clipitem>
				<clipitem id="DYR18477_01 ">
					<name>DYR18477_01</name>
					<duration>418</duration>
					<rate>
						<ntsc>FALSE</ntsc>
						<timebase>25</timebase>
					</rate>
					<in>160</in>
					<out>271</out>
					<start>526</start>
					<end>637</end>
					<pixelaspectratio>Square</pixelaspectratio>
					<enabled>TRUE</enabled>
					<anamorphic>FALSE</anamorphic>
					<alphatype>none</alphatype>
					<masterclipid>DYR18477_01 1</masterclipid>
					<logginginfo>
						<scene/>
						<shottake/>
						<lognote/>
						<good>FALSE</good>
					</logginginfo>
					<labels>
						<label2/>
					</labels>
					<comments>
						<mastercomment1/>
						<mastercomment2/>
						<mastercomment3/>
						<mastercomment4/>
					</comments>
					<file id="DYR18477_01 2">
						<name>DYR18477_01.mov</name>
						<pathurl>file://localhost/Volumes/Askepott/Prosjekter/DNPR637010_Kra%CC%8Akeklubben_TEM_011212/Video/TORDS%20GARASJE/Insekt/Maur/DYR18477_01.mov</pathurl>
						<rate>
							<timebase>25</timebase>
						</rate>
						<duration>418</duration>
						<metadata>
							<storage>QuickTime</storage>
							<key>com.sony.bprl.xdcamtransfer.version</key>
							<size>10</size>
							<type>UTF8</type>
							<value>2.12.0.631</value>
						</metadata>
						<metadata>
							<storage>QuickTime</storage>
							<key>org.smpte.mxf.package.material.packageid</key>
							<size>66</size>
							<type>UTF8</type>
							<value>0x060a2b340101010501010d43130000003dfffc75545405df08004602022f05f5</value>
						</metadata>
						<metadata>
							<storage>QuickTime</storage>
							<key>com.sony.professionaldisc.nonrealtimemeta.lastupdate</key>
							<size>25</size>
							<type>UTF8</type>
							<value>2010-09-15 12:03:58 +0100</value>
						</metadata>
						<metadata>
							<storage>QuickTime</storage>
							<key>com.sony.bprl.mxf.umid</key>
							<size>64</size>
							<type>UTF8</type>
							<value>060a2b340101010501010d43130000003dfffc75545405df08004602022f05f5</value>
						</metadata>
						<metadata>
							<storage>QuickTime</storage>
							<key>com.sony.bprl.mxf.nrtmetadata</key>
							<size>1991</size>
							<type>UTF8</type>
							<value>&lt;?xml version="1.0" encoding="UTF-8"?>&lt;NonRealTimeMeta xmlns="urn:schemas-professionalDisc:nonRealTimeMeta:ver.1.20" xmlns:lib="urn:schemas-professionalDisc:lib:ver.1.20" xmlns:xsi="http://www.w3.org/2001/XMLSchema-instance" lastUpdate="2010-09-15T12:03:58+01:00">&lt;TargetMaterial umidRef="060A2B340101010501010D43130000003DFFFC75545405DF08004602022F05F5">&lt;/TargetMaterial>&lt;Duration value="418">&lt;/Duration>&lt;LtcChangeTable tcFps="25" halfStep="false">&lt;LtcChange frameCount="0" value="04103911" status="increment">&lt;/LtcChange>&lt;LtcChange frameCount="417" value="21263911" status="end">&lt;/LtcChange>&lt;/LtcChangeTable>&lt;CreationDate value="2010-09-15T12:03:41+01:00">&lt;/CreationDate>&lt;TypicalUbit value="0000000017061020">&lt;/TypicalUbit>&lt;BodyUmidBasicChangeTable>&lt;BodyUmidBasicChange frameCount="0" value="060A2B340101010501010D43330000003DFFFC75545405DF08004602022F05F5" status="start">&lt;/BodyUmidBasicChange>&lt;/BodyUmidBasicChangeTable>&lt;BodyUmidWhenChangeTable>&lt;BodyUmidWhenChange frameCount="0" value="8433CC03545405A5" status="increment">&lt;/BodyUmidWhenChange>&lt;BodyUmidWhenChange frameCount="417" value="C49BCC03545405A5" status="end">&lt;/BodyUmidWhenChange>&lt;/BodyUmidWhenChangeTable>&lt;KlvPacketTable>&lt;KlvPacket key="060E2B34010101050301020A02000000" frameCount="0" lengthValue="095F5265635374617274" status="spot">&lt;/KlvPacket>&lt;/KlvPacketTable>&lt;VideoFormat>&lt;VideoRecPort port="DIRECT">&lt;/VideoRecPort>&lt;VideoFrame videoCodec="MPEG2HD35_1920_1080_MP@HL" captureFps="50.00i" recFps="50.00" formatFps="50i">&lt;/VideoFrame>&lt;VideoLayout pixel="1920" numOfVerticalLine="1080" aspectRatio="16:9">&lt;/VideoLayout>&lt;/VideoFormat>&lt;AudioFormat numOfChannel="2">&lt;AudioRecPort port="ANALOG" audioCodec="LPCM16" trackDst="CH1">&lt;/AudioRecPort>&lt;AudioRecPort port="DIRECT" audioCodec="LPCM16" trackDst="CH2">&lt;/AudioRecPort>&lt;/AudioFormat>&lt;Device manufacturer="Sony" modelName="PMW-EX3" serialNo="0401525">&lt;/Device>&lt;Lens modelName="VCL-614B2X">&lt;/Lens>&lt;RecordingMode type="normal" cacheRec="false">&lt;/RecordingMode>&lt;/NonRealTimeMeta>
							</value>
						</metadata>
						<metadata>
							<storage>QuickTime</storage>
							<key>com.apple.proapps.reel</key>
							<size>8</size>
							<type>UTF8</type>
							<value>Untitled</value>
						</metadata>
						<metadata>
							<storage>QuickTime</storage>
							<key>com.apple.proapps.clipID</key>
							<size>64</size>
							<type>UTF8</type>
							<value>060A2B340101010501010D43130000003DFFFC75545405DF08004602022F05F5</value>
						</metadata>
						<metadata>
							<storage>QuickTime</storage>
							<key>com.apple.quicktime.information</key>
							<size>64</size>
							<type>UTF8</type>
							<value>060a2b340101010501010d43130000003dfffc75545405df08004602022f05f5</value>
						</metadata>
						<metadata>
							<storage>QuickTime</storage>
							<key>com.apple.proapps.originalFormat</key>
							<size>36</size>
							<type>UTF8</type>
							<value>Apple XDCAM EX 1080i50 (35 Mb/s VBR)</value>
						</metadata>
						<timecode>
							<rate>
								<timebase>25</timebase>
							</rate>
							<string>11:39:10:04</string>
							<frame>1048754</frame>
							<displayformat>NDF</displayformat>
							<source>source</source>
							<reel>
								<name>Untitled</name>
							</reel>
						</timecode>
						<media>
							<video>
								<duration>418</duration>
								<samplecharacteristics>
									<width>1920</width>
									<height>1080</height>
								</samplecharacteristics>
							</video>
							<audio>
								<samplecharacteristics>
									<samplerate>48000</samplerate>
									<depth>16</depth>
								</samplecharacteristics>
								<channelcount>1</channelcount>
								<layout>mono</layout>
								<audiochannel>
									<sourcechannel>1</sourcechannel>
									<channellabel>discrete</channellabel>
								</audiochannel>
							</audio>
							<audio>
								<samplecharacteristics>
									<samplerate>48000</samplerate>
									<depth>16</depth>
								</samplecharacteristics>
								<channelcount>1</channelcount>
								<layout>mono</layout>
								<audiochannel>
									<sourcechannel>2</sourcechannel>
									<channellabel>discrete</channellabel>
								</audiochannel>
							</audio>
						</media>
					</file>
					<filter>
						<start>-1</start>
						<end>-1</end>
						<effect>
							<name>G Black White Diffusion V2.5.1</name>
							<effectcategory>Nattress Film Effects - Image Effects</effectcategory>
							<effecttype>filter</effecttype>
							<mediatype>video</mediatype>
							<parameter>
								<parameterid>blackwhiteorder</parameterid>
								<name>Order</name>
								<valuemin>1</valuemin>
								<valuemax>2</valuemax>
								<valuelist>
									<valueentry>
										<name>Black then White</name>
										<value>1</value>
									</valueentry>
									<valueentry>
										<name>White then Black</name>
										<value>2</value>
									</valueentry>
								</valuelist>
								<value>2</value>
							</parameter>
							<parameter>
								<parameterid>blackvar</parameterid>
								<name>Black Diffusion Controls</name>
								<value>string</value>
							</parameter>
							<parameter>
								<parameterid>blackon</parameterid>
								<name>Black Diffusion On</name>
								<value>TRUE</value>
							</parameter>
							<parameter>
								<parameterid>blackmix</parameterid>
								<name>Amount</name>
								<valuemin>0</valuemin>
								<valuemax>100</valuemax>
								<value>60</value>
							</parameter>
							<parameter>
								<parameterid>blacklimit</parameterid>
								<name>Black Limit</name>
								<valuemin>0</valuemin>
								<valuemax>100</valuemax>
								<value>9</value>
							</parameter>
							<parameter>
								<parameterid>blackbluramount</parameterid>
								<name>Blur Radius</name>
								<valuemin>0</valuemin>
								<valuemax>100</valuemax>
								<value>1</value>
							</parameter>
							<parameter>
								<parameterid>blackblendtype</parameterid>
								<name>Mode</name>
								<valuemin>1</valuemin>
								<valuemax>7</valuemax>
								<valuelist>
									<valueentry>
										<name>Normal</name>
										<value>1</value>
									</valueentry>
									<valueentry>
										<name>Multiply</name>
										<value>2</value>
									</valueentry>
									<valueentry>
										<name>Screen</name>
										<value>3</value>
									</valueentry>
									<valueentry>
										<name>Overlay</name>
										<value>4</value>
									</valueentry>
									<valueentry>
										<name>Lighten</name>
										<value>5</value>
									</valueentry>
									<valueentry>
										<name>Darken</name>
										<value>6</value>
									</valueentry>
									<valueentry>
										<name>Add</name>
										<value>7</value>
									</valueentry>
								</valuelist>
								<value>2</value>
							</parameter>
							<parameter>
								<parameterid>whitevar</parameterid>
								<name>White Diffusion Controls</name>
								<value>string</value>
							</parameter>
							<parameter>
								<parameterid>whiteon</parameterid>
								<name>White Diffusion On</name>
								<value>TRUE</value>
							</parameter>
							<parameter>
								<parameterid>whitemix</parameterid>
								<name>Amount</name>
								<valuemin>0</valuemin>
								<valuemax>100</valuemax>
								<value>53</value>
							</parameter>
							<parameter>
								<parameterid>whitelimit</parameterid>
								<name>White Limit</name>
								<valuemin>0</valuemin>
								<valuemax>100</valuemax>
								<value>31</value>
							</parameter>
							<parameter>
								<parameterid>whitebluramount</parameterid>
								<name>Blur Radius</name>
								<valuemin>0</valuemin>
								<valuemax>100</valuemax>
								<value>8</value>
							</parameter>
							<parameter>
								<parameterid>whiteblendtype</parameterid>
								<name>Mode</name>
								<valuemin>1</valuemin>
								<valuemax>7</valuemax>
								<valuelist>
									<valueentry>
										<name>Normal</name>
										<value>1</value>
									</valueentry>
									<valueentry>
										<name>Multiply</name>
										<value>2</value>
									</valueentry>
									<valueentry>
										<name>Screen</name>
										<value>3</value>
									</valueentry>
									<valueentry>
										<name>Overlay</name>
										<value>4</value>
									</valueentry>
									<valueentry>
										<name>Lighten</name>
										<value>5</value>
									</valueentry>
									<valueentry>
										<name>Darken</name>
										<value>6</value>
									</valueentry>
									<valueentry>
										<name>Add</name>
										<value>7</value>
									</valueentry>
								</valuelist>
								<value>3</value>
							</parameter>
							<parameter>
								<parameterid>copyright</parameterid>
								<name>© www.nattress.com</name>
								<value>string</value>
							</parameter>
						</effect>
					</filter>
					<filter>
						<start>-1</start>
						<end>-1</end>
						<effect>
							<name>G Vignette V2.5.1</name>
							<effectcategory>Nattress Film Effects - Image Effects</effectcategory>
							<effecttype>filter</effecttype>
							<mediatype>video</mediatype>
							<parameter>
								<parameterid>vignettevar</parameterid>
								<name>Vignette Controls</name>
								<value>string</value>
							</parameter>
							<parameter>
								<parameterid>rgbtinta</parameterid>
								<name>Vignette Colour A</name>
								<value>
									<alpha>0</alpha>
									<red>0</red>
									<green>0</green>
									<blue>0</blue>
								</value>
							</parameter>
							<parameter>
								<parameterid>rgbtintb</parameterid>
								<name>Vignette Colour B</name>
								<value>
									<alpha>0</alpha>
									<red>128</red>
									<green>128</green>
									<blue>128</blue>
								</value>
							</parameter>
							<parameter>
								<parameterid>mattebackground</parameterid>
								<name>Vignette Background</name>
								<valuemin>1</valuemin>
								<valuemax>4</valuemax>
								<valuelist>
									<valueentry>
										<name>Colour A on White</name>
										<value>1</value>
									</valueentry>
									<valueentry>
										<name>Colour A on Black</name>
										<value>2</value>
									</valueentry>
									<valueentry>
										<name>Colour A on Grey</name>
										<value>3</value>
									</valueentry>
									<valueentry>
										<name>Colour A on Colour B</name>
										<value>4</value>
									</valueentry>
								</valuelist>
								<value>1</value>
							</parameter>
							<parameter>
								<parameterid>shape</parameterid>
								<name>Shape</name>
								<valuemin>1</valuemin>
								<valuemax>3</valuemax>
								<valuelist>
									<valueentry>
										<name>Rectangle</name>
										<value>1</value>
									</valueentry>
									<valueentry>
										<name>Oval</name>
										<value>2</value>
									</valueentry>
									<valueentry>
										<name>Custom</name>
										<value>3</value>
									</valueentry>
								</valuelist>
								<value>2</value>
							</parameter>
							<parameter>
								<parameterid>vblur</parameterid>
								<name>Feather</name>
								<valuemin>0</valuemin>
								<valuemax>100</valuemax>
								<value>47</value>
							</parameter>
							<parameter>
								<parameterid>vblend</parameterid>
								<name>Amount</name>
								<valuemin>0</valuemin>
								<valuemax>100</valuemax>
								<value>100</value>
							</parameter>
							<parameter>
								<parameterid>applyas</parameterid>
								<name>Mode</name>
								<valuemin>1</valuemin>
								<valuemax>7</valuemax>
								<valuelist>
									<valueentry>
										<name>Normal</name>
										<value>1</value>
									</valueentry>
									<valueentry>
										<name>Multiply</name>
										<value>2</value>
									</valueentry>
									<valueentry>
										<name>Screen</name>
										<value>3</value>
									</valueentry>
									<valueentry>
										<name>Overlay</name>
										<value>4</value>
									</valueentry>
									<valueentry>
										<name>Lighten</name>
										<value>5</value>
									</valueentry>
									<valueentry>
										<name>Darken</name>
										<value>6</value>
									</valueentry>
									<valueentry>
										<name>Add</name>
										<value>7</value>
									</valueentry>
								</valuelist>
								<value>2</value>
							</parameter>
							<parameter>
								<parameterid>hq</parameterid>
								<name>Dither</name>
								<valuemin>1</valuemin>
								<valuemax>4</valuemax>
								<valuelist>
									<valueentry>
										<name>Off</name>
										<value>1</value>
									</valueentry>
									<valueentry>
										<name>Minimum</name>
										<value>2</value>
									</valueentry>
									<valueentry>
										<name>Medium</name>
										<value>3</value>
									</valueentry>
									<valueentry>
										<name>Strong</name>
										<value>4</value>
									</valueentry>
								</valuelist>
								<value>1</value>
							</parameter>
							<parameter>
								<parameterid>inverse</parameterid>
								<name>Invert?</name>
								<value>FALSE</value>
							</parameter>
							<parameter>
								<parameterid>diagnostics</parameterid>
								<name>Show Helper Outline</name>
								<value>TRUE</value>
							</parameter>
							<parameter>
								<parameterid>maskstuff</parameterid>
								<name>Shape Controls</name>
								<value>string</value>
							</parameter>
							<parameter>
								<parameterid>maskpolycentre</parameterid>
								<name>Shape Centre</name>
								<value>
									<horiz>0</horiz>
									<vert>0</vert>
								</value>
							</parameter>
							<parameter>
								<parameterid>rotoffset</parameterid>
								<name>Rotation</name>
								<valuemin>-360</valuemin>
								<valuemax>360</valuemax>
								<value>-2</value>
							</parameter>
							<parameter>
								<parameterid>thescale</parameterid>
								<name>Scale</name>
								<valuemin>1</valuemin>
								<valuemax>200</valuemax>
								<value>138</value>
							</parameter>
							<parameter>
								<parameterid>vaspect</parameterid>
								<name>Aspect</name>
								<valuemin>0.1</valuemin>
								<valuemax>10</valuemax>
								<value>1.51429</value>
							</parameter>
							<parameter>
								<parameterid>pathvar</parameterid>
								<name>Custom Shape Points</name>
								<value>string</value>
							</parameter>
							<parameter>
								<parameterid>editpoint</parameterid>
								<name>Point to Edit</name>
								<valuemin>1</valuemin>
								<valuemax>8</valuemax>
								<value>1</value>
							</parameter>
							<parameter>
								<parameterid>numpoints</parameterid>
								<name>Number of Points</name>
								<valuemin>3</valuemin>
								<valuemax>8</valuemax>
								<value>8</value>
							</parameter>
							<parameter>
								<parameterid>currentpoint</parameterid>
								<name>Current Point</name>
								<value>
									<horiz>0</horiz>
									<vert>0</vert>
								</value>
							</parameter>
							<parameter>
								<parameterid>pointsharp</parameterid>
								<name>Point Sharpness Toggle</name>
								<value>TRUE</value>
							</parameter>
							<parameter>
								<parameterid>blurvar</parameterid>
								<name>Blur Controls</name>
								<value>string</value>
							</parameter>
							<parameter>
								<parameterid>iblur</parameterid>
								<name>Image Blur</name>
								<valuemin>0</valuemin>
								<valuemax>100</valuemax>
								<value>0</value>
							</parameter>
							<parameter>
								<parameterid>sblur</parameterid>
								<name>Shape Blur</name>
								<valuemin>0</valuemin>
								<valuemax>100</valuemax>
								<value>0</value>
							</parameter>
							<parameter>
								<parameterid>copyright</parameterid>
								<name>© www.nattress.com</name>
								<value>string</value>
							</parameter>
						</effect>
					</filter>
					<sourcetrack>
						<mediatype>video</mediatype>
					</sourcetrack>
					<link>
						<linkclipref>DYR18477_01 </linkclipref>
						<mediatype>video</mediatype>
						<trackindex>1</trackindex>
						<clipindex>2</clipindex>
					</link>
					<link>
						<linkclipref>DYR18477_01 3</linkclipref>
						<mediatype>audio</mediatype>
						<trackindex>1</trackindex>
						<clipindex>2</clipindex>
					</link>
					<link>
						<linkclipref>DYR18477_01 4</linkclipref>
						<mediatype>audio</mediatype>
						<trackindex>2</trackindex>
						<clipindex>2</clipindex>
					</link>
					<fielddominance>upper</fielddominance>
					<itemhistory>
						<uuid>C45F85EF-B2F4-436C-86B9-30714BB08F54</uuid>
					</itemhistory>
				</clipitem>
				<clipitem id="00795001.MOV">
					<name>00795001.MOV</name>
					<duration>648</duration>
					<rate>
						<ntsc>FALSE</ntsc>
						<timebase>25</timebase>
					</rate>
					<in>365</in>
					<out>531</out>
					<start>637</start>
					<end>803</end>
					<pixelaspectratio>Square</pixelaspectratio>
					<enabled>TRUE</enabled>
					<anamorphic>FALSE</anamorphic>
					<alphatype>none</alphatype>
					<masterclipid>00795001.MOV1</masterclipid>
					<logginginfo>
						<scene/>
						<shottake/>
						<lognote/>
						<good>FALSE</good>
					</logginginfo>
					<labels>
						<label2/>
					</labels>
					<comments>
						<mastercomment1/>
						<mastercomment2/>
						<mastercomment3/>
						<mastercomment4/>
					</comments>
					<file id="00795001 ">
						<name>00795001.MOV</name>
						<pathurl>file://localhost/Volumes/Askepott/Prosjekter/DNPR637010_Kra%CC%8Akeklubben_TEM_011212/Video/MELLOMSTIKK/S01E05%20Dyrebolig/DAG2/00795001.MOV</pathurl>
						<rate>
							<timebase>25</timebase>
						</rate>
						<duration>648</duration>
						<timecode>
							<rate>
								<timebase>25</timebase>
							</rate>
							<string>18:12:16:19</string>
							<frame>1638419</frame>
							<displayformat>NDF</displayformat>
							<source>source</source>
							<reel>
								<name>Flash XDR</name>
							</reel>
						</timecode>
						<media>
							<video>
								<duration>648</duration>
								<samplecharacteristics>
									<width>1920</width>
									<height>1080</height>
								</samplecharacteristics>
							</video>
							<audio>
								<samplecharacteristics>
									<samplerate>48000</samplerate>
									<depth>24</depth>
								</samplecharacteristics>
								<channelcount>1</channelcount>
							</audio>
							<audio>
								<samplecharacteristics>
									<samplerate>48000</samplerate>
									<depth>24</depth>
								</samplecharacteristics>
								<channelcount>1</channelcount>
							</audio>
						</media>
					</file>
					<filter>
						<enabled>TRUE</enabled>
						<start>-1</start>
						<end>-1</end>
						<effect>
							<name>G Black White Diffusion V2.5.1</name>
							<effectcategory>Nattress Film Effects - Image Effects</effectcategory>
							<effecttype>filter</effecttype>
							<mediatype>video</mediatype>
							<parameter>
								<parameterid>blackwhiteorder</parameterid>
								<name>Order</name>
								<valuemin>1</valuemin>
								<valuemax>2</valuemax>
								<valuelist>
									<valueentry>
										<name>Black then White</name>
										<value>1</value>
									</valueentry>
									<valueentry>
										<name>White then Black</name>
										<value>2</value>
									</valueentry>
								</valuelist>
								<value>2</value>
							</parameter>
							<parameter>
								<parameterid>blackvar</parameterid>
								<name>Black Diffusion Controls</name>
								<value>string</value>
							</parameter>
							<parameter>
								<parameterid>blackon</parameterid>
								<name>Black Diffusion On</name>
								<value>TRUE</value>
							</parameter>
							<parameter>
								<parameterid>blackmix</parameterid>
								<name>Amount</name>
								<valuemin>0</valuemin>
								<valuemax>100</valuemax>
								<value>64</value>
							</parameter>
							<parameter>
								<parameterid>blacklimit</parameterid>
								<name>Black Limit</name>
								<valuemin>0</valuemin>
								<valuemax>100</valuemax>
								<value>22</value>
							</parameter>
							<parameter>
								<parameterid>blackbluramount</parameterid>
								<name>Blur Radius</name>
								<valuemin>0</valuemin>
								<valuemax>100</valuemax>
								<value>1</value>
							</parameter>
							<parameter>
								<parameterid>blackblendtype</parameterid>
								<name>Mode</name>
								<valuemin>1</valuemin>
								<valuemax>7</valuemax>
								<valuelist>
									<valueentry>
										<name>Normal</name>
										<value>1</value>
									</valueentry>
									<valueentry>
										<name>Multiply</name>
										<value>2</value>
									</valueentry>
									<valueentry>
										<name>Screen</name>
										<value>3</value>
									</valueentry>
									<valueentry>
										<name>Overlay</name>
										<value>4</value>
									</valueentry>
									<valueentry>
										<name>Lighten</name>
										<value>5</value>
									</valueentry>
									<valueentry>
										<name>Darken</name>
										<value>6</value>
									</valueentry>
									<valueentry>
										<name>Add</name>
										<value>7</value>
									</valueentry>
								</valuelist>
								<value>2</value>
							</parameter>
							<parameter>
								<parameterid>whitevar</parameterid>
								<name>White Diffusion Controls</name>
								<value>string</value>
							</parameter>
							<parameter>
								<parameterid>whiteon</parameterid>
								<name>White Diffusion On</name>
								<value>TRUE</value>
							</parameter>
							<parameter>
								<parameterid>whitemix</parameterid>
								<name>Amount</name>
								<valuemin>0</valuemin>
								<valuemax>100</valuemax>
								<value>31</value>
							</parameter>
							<parameter>
								<parameterid>whitelimit</parameterid>
								<name>White Limit</name>
								<valuemin>0</valuemin>
								<valuemax>100</valuemax>
								<value>22</value>
							</parameter>
							<parameter>
								<parameterid>whitebluramount</parameterid>
								<name>Blur Radius</name>
								<valuemin>0</valuemin>
								<valuemax>100</valuemax>
								<value>8</value>
							</parameter>
							<parameter>
								<parameterid>whiteblendtype</parameterid>
								<name>Mode</name>
								<valuemin>1</valuemin>
								<valuemax>7</valuemax>
								<valuelist>
									<valueentry>
										<name>Normal</name>
										<value>1</value>
									</valueentry>
									<valueentry>
										<name>Multiply</name>
										<value>2</value>
									</valueentry>
									<valueentry>
										<name>Screen</name>
										<value>3</value>
									</valueentry>
									<valueentry>
										<name>Overlay</name>
										<value>4</value>
									</valueentry>
									<valueentry>
										<name>Lighten</name>
										<value>5</value>
									</valueentry>
									<valueentry>
										<name>Darken</name>
										<value>6</value>
									</valueentry>
									<valueentry>
										<name>Add</name>
										<value>7</value>
									</valueentry>
								</valuelist>
								<value>3</value>
							</parameter>
							<parameter>
								<parameterid>copyright</parameterid>
								<name>© www.nattress.com</name>
								<value>string</value>
							</parameter>
						</effect>
					</filter>
					<filter>
						<enabled>TRUE</enabled>
						<start>-1</start>
						<end>-1</end>
						<effect>
							<name>G Vignette V2.5.1</name>
							<effectcategory>Nattress Film Effects - Image Effects</effectcategory>
							<effecttype>filter</effecttype>
							<mediatype>video</mediatype>
							<parameter>
								<parameterid>vignettevar</parameterid>
								<name>Vignette Controls</name>
								<value>string</value>
							</parameter>
							<parameter>
								<parameterid>rgbtinta</parameterid>
								<name>Vignette Colour A</name>
								<value>
									<alpha>0</alpha>
									<red>0</red>
									<green>0</green>
									<blue>0</blue>
								</value>
							</parameter>
							<parameter>
								<parameterid>rgbtintb</parameterid>
								<name>Vignette Colour B</name>
								<value>
									<alpha>0</alpha>
									<red>128</red>
									<green>128</green>
									<blue>128</blue>
								</value>
							</parameter>
							<parameter>
								<parameterid>mattebackground</parameterid>
								<name>Vignette Background</name>
								<valuemin>1</valuemin>
								<valuemax>4</valuemax>
								<valuelist>
									<valueentry>
										<name>Colour A on White</name>
										<value>1</value>
									</valueentry>
									<valueentry>
										<name>Colour A on Black</name>
										<value>2</value>
									</valueentry>
									<valueentry>
										<name>Colour A on Grey</name>
										<value>3</value>
									</valueentry>
									<valueentry>
										<name>Colour A on Colour B</name>
										<value>4</value>
									</valueentry>
								</valuelist>
								<value>1</value>
							</parameter>
							<parameter>
								<parameterid>shape</parameterid>
								<name>Shape</name>
								<valuemin>1</valuemin>
								<valuemax>3</valuemax>
								<valuelist>
									<valueentry>
										<name>Rectangle</name>
										<value>1</value>
									</valueentry>
									<valueentry>
										<name>Oval</name>
										<value>2</value>
									</valueentry>
									<valueentry>
										<name>Custom</name>
										<value>3</value>
									</valueentry>
								</valuelist>
								<value>2</value>
							</parameter>
							<parameter>
								<parameterid>vblur</parameterid>
								<name>Feather</name>
								<valuemin>0</valuemin>
								<valuemax>100</valuemax>
								<value>47</value>
							</parameter>
							<parameter>
								<parameterid>vblend</parameterid>
								<name>Amount</name>
								<valuemin>0</valuemin>
								<valuemax>100</valuemax>
								<value>100</value>
							</parameter>
							<parameter>
								<parameterid>applyas</parameterid>
								<name>Mode</name>
								<valuemin>1</valuemin>
								<valuemax>7</valuemax>
								<valuelist>
									<valueentry>
										<name>Normal</name>
										<value>1</value>
									</valueentry>
									<valueentry>
										<name>Multiply</name>
										<value>2</value>
									</valueentry>
									<valueentry>
										<name>Screen</name>
										<value>3</value>
									</valueentry>
									<valueentry>
										<name>Overlay</name>
										<value>4</value>
									</valueentry>
									<valueentry>
										<name>Lighten</name>
										<value>5</value>
									</valueentry>
									<valueentry>
										<name>Darken</name>
										<value>6</value>
									</valueentry>
									<valueentry>
										<name>Add</name>
										<value>7</value>
									</valueentry>
								</valuelist>
								<value>2</value>
							</parameter>
							<parameter>
								<parameterid>hq</parameterid>
								<name>Dither</name>
								<valuemin>1</valuemin>
								<valuemax>4</valuemax>
								<valuelist>
									<valueentry>
										<name>Off</name>
										<value>1</value>
									</valueentry>
									<valueentry>
										<name>Minimum</name>
										<value>2</value>
									</valueentry>
									<valueentry>
										<name>Medium</name>
										<value>3</value>
									</valueentry>
									<valueentry>
										<name>Strong</name>
										<value>4</value>
									</valueentry>
								</valuelist>
								<value>1</value>
							</parameter>
							<parameter>
								<parameterid>inverse</parameterid>
								<name>Invert?</name>
								<value>FALSE</value>
							</parameter>
							<parameter>
								<parameterid>diagnostics</parameterid>
								<name>Show Helper Outline</name>
								<value>TRUE</value>
							</parameter>
							<parameter>
								<parameterid>maskstuff</parameterid>
								<name>Shape Controls</name>
								<value>string</value>
							</parameter>
							<parameter>
								<parameterid>maskpolycentre</parameterid>
								<name>Shape Centre</name>
								<value>
									<horiz>0</horiz>
									<vert>0</vert>
								</value>
							</parameter>
							<parameter>
								<parameterid>rotoffset</parameterid>
								<name>Rotation</name>
								<valuemin>-360</valuemin>
								<valuemax>360</valuemax>
								<value>-2</value>
							</parameter>
							<parameter>
								<parameterid>thescale</parameterid>
								<name>Scale</name>
								<valuemin>1</valuemin>
								<valuemax>200</valuemax>
								<value>138</value>
							</parameter>
							<parameter>
								<parameterid>vaspect</parameterid>
								<name>Aspect</name>
								<valuemin>0.1</valuemin>
								<valuemax>10</valuemax>
								<value>1.51429</value>
							</parameter>
							<parameter>
								<parameterid>pathvar</parameterid>
								<name>Custom Shape Points</name>
								<value>string</value>
							</parameter>
							<parameter>
								<parameterid>editpoint</parameterid>
								<name>Point to Edit</name>
								<valuemin>1</valuemin>
								<valuemax>8</valuemax>
								<value>1</value>
							</parameter>
							<parameter>
								<parameterid>numpoints</parameterid>
								<name>Number of Points</name>
								<valuemin>3</valuemin>
								<valuemax>8</valuemax>
								<value>8</value>
							</parameter>
							<parameter>
								<parameterid>currentpoint</parameterid>
								<name>Current Point</name>
								<value>
									<horiz>0</horiz>
									<vert>0</vert>
								</value>
							</parameter>
							<parameter>
								<parameterid>pointsharp</parameterid>
								<name>Point Sharpness Toggle</name>
								<value>TRUE</value>
							</parameter>
							<parameter>
								<parameterid>blurvar</parameterid>
								<name>Blur Controls</name>
								<value>string</value>
							</parameter>
							<parameter>
								<parameterid>iblur</parameterid>
								<name>Image Blur</name>
								<valuemin>0</valuemin>
								<valuemax>100</valuemax>
								<value>0</value>
							</parameter>
							<parameter>
								<parameterid>sblur</parameterid>
								<name>Shape Blur</name>
								<valuemin>0</valuemin>
								<valuemax>100</valuemax>
								<value>0</value>
							</parameter>
							<parameter>
								<parameterid>copyright</parameterid>
								<name>© www.nattress.com</name>
								<value>string</value>
							</parameter>
						</effect>
					</filter>
					<sourcetrack>
						<mediatype>video</mediatype>
					</sourcetrack>
					<link>
						<linkclipref>00795001.MOV</linkclipref>
						<mediatype>video</mediatype>
						<trackindex>1</trackindex>
						<clipindex>3</clipindex>
					</link>
					<link>
						<linkclipref>00795001.MOV2</linkclipref>
						<mediatype>audio</mediatype>
						<trackindex>1</trackindex>
						<clipindex>3</clipindex>
					</link>
					<link>
						<linkclipref>00795001.MOV3</linkclipref>
						<mediatype>audio</mediatype>
						<trackindex>2</trackindex>
						<clipindex>3</clipindex>
					</link>
					<fielddominance>upper</fielddominance>
					<itemhistory>
						<uuid>3C1ACA10-3FFB-4965-BF50-FDEBA594C67C</uuid>
					</itemhistory>
				</clipitem>
				<clipitem id="00698001.MOV">
					<name>00698001.MOV</name>
					<duration>780</duration>
					<rate>
						<ntsc>FALSE</ntsc>
						<timebase>25</timebase>
					</rate>
					<in>222</in>
					<out>314</out>
					<start>1092</start>
					<end>1184</end>
					<pixelaspectratio>Square</pixelaspectratio>
					<enabled>TRUE</enabled>
					<anamorphic>FALSE</anamorphic>
					<alphatype>none</alphatype>
					<masterclipid>00698001.MOV1</masterclipid>
					<logginginfo>
						<scene/>
						<shottake/>
						<lognote/>
						<good>FALSE</good>
					</logginginfo>
					<labels>
						<label2/>
					</labels>
					<comments>
						<mastercomment1/>
						<mastercomment2/>
						<mastercomment3/>
						<mastercomment4/>
					</comments>
					<file id="00698001 ">
						<name>00698001.MOV</name>
						<pathurl>file://localhost/Volumes/Askepott/Prosjekter/DNPR637010_Kra%CC%8Akeklubben_TEM_011212/Video/MELLOMSTIKK/S01E05%20Dyrebolig/00698001.MOV</pathurl>
						<rate>
							<timebase>25</timebase>
						</rate>
						<duration>780</duration>
						<timecode>
							<rate>
								<timebase>25</timebase>
							</rate>
							<string>17:33:29:02</string>
							<frame>1580227</frame>
							<displayformat>NDF</displayformat>
							<source>source</source>
							<reel>
								<name>Flash XDR</name>
							</reel>
						</timecode>
						<media>
							<video>
								<duration>780</duration>
								<samplecharacteristics>
									<width>1920</width>
									<height>1080</height>
								</samplecharacteristics>
							</video>
							<audio>
								<samplecharacteristics>
									<samplerate>48000</samplerate>
									<depth>24</depth>
								</samplecharacteristics>
								<channelcount>1</channelcount>
							</audio>
							<audio>
								<samplecharacteristics>
									<samplerate>48000</samplerate>
									<depth>24</depth>
								</samplecharacteristics>
								<channelcount>1</channelcount>
							</audio>
						</media>
					</file>
					<sourcetrack>
						<mediatype>video</mediatype>
					</sourcetrack>
					<link>
						<linkclipref>00698001.MOV</linkclipref>
						<mediatype>video</mediatype>
						<trackindex>1</trackindex>
						<clipindex>4</clipindex>
					</link>
					<link>
						<linkclipref>00698001.MOV2</linkclipref>
						<mediatype>audio</mediatype>
						<trackindex>1</trackindex>
						<clipindex>5</clipindex>
					</link>
					<link>
						<linkclipref>00698001.MOV3</linkclipref>
						<mediatype>audio</mediatype>
						<trackindex>2</trackindex>
						<clipindex>5</clipindex>
					</link>
					<fielddominance>upper</fielddominance>
					<itemhistory>
						<uuid>CB059956-1FCD-4297-A934-D5B8F96D9999</uuid>
					</itemhistory>
				</clipitem>
				<clipitem id="00693001.MOV">
					<name>00693001.MOV</name>
					<duration>936</duration>
					<rate>
						<ntsc>FALSE</ntsc>
						<timebase>25</timebase>
					</rate>
					<in>503</in>
					<out>824</out>
					<start>1184</start>
					<end>1505</end>
					<pixelaspectratio>Square</pixelaspectratio>
					<enabled>TRUE</enabled>
					<anamorphic>FALSE</anamorphic>
					<alphatype>none</alphatype>
					<masterclipid>00693001.MOV1</masterclipid>
					<logginginfo>
						<scene/>
						<shottake/>
						<lognote/>
						<good>FALSE</good>
					</logginginfo>
					<labels>
						<label2/>
					</labels>
					<comments>
						<mastercomment1/>
						<mastercomment2/>
						<mastercomment3/>
						<mastercomment4/>
					</comments>
					<file id="00693001 ">
						<name>00693001.MOV</name>
						<pathurl>file://localhost/Volumes/Askepott/Prosjekter/DNPR637010_Kra%CC%8Akeklubben_TEM_011212/Video/MELLOMSTIKK/S01E05%20Dyrebolig/00693001.MOV</pathurl>
						<rate>
							<timebase>25</timebase>
						</rate>
						<duration>936</duration>
						<timecode>
							<rate>
								<timebase>25</timebase>
							</rate>
							<string>17:29:46:13</string>
							<frame>1574663</frame>
							<displayformat>NDF</displayformat>
							<source>source</source>
							<reel>
								<name>Flash XDR</name>
							</reel>
						</timecode>
						<media>
							<video>
								<duration>936</duration>
								<samplecharacteristics>
									<width>1920</width>
									<height>1080</height>
								</samplecharacteristics>
							</video>
							<audio>
								<samplecharacteristics>
									<samplerate>48000</samplerate>
									<depth>24</depth>
								</samplecharacteristics>
								<channelcount>1</channelcount>
							</audio>
							<audio>
								<samplecharacteristics>
									<samplerate>48000</samplerate>
									<depth>24</depth>
								</samplecharacteristics>
								<channelcount>1</channelcount>
							</audio>
						</media>
					</file>
					<sourcetrack>
						<mediatype>video</mediatype>
					</sourcetrack>
					<link>
						<linkclipref>00693001.MOV</linkclipref>
						<mediatype>video</mediatype>
						<trackindex>1</trackindex>
						<clipindex>5</clipindex>
					</link>
					<link>
						<linkclipref>00693001.MOV2</linkclipref>
						<mediatype>audio</mediatype>
						<trackindex>1</trackindex>
						<clipindex>6</clipindex>
					</link>
					<link>
						<linkclipref>00693001.MOV3</linkclipref>
						<mediatype>audio</mediatype>
						<trackindex>2</trackindex>
						<clipindex>6</clipindex>
					</link>
					<fielddominance>upper</fielddominance>
					<itemhistory>
						<uuid>2BC2AB50-A22A-4311-AF81-60DEC73FB0C2</uuid>
					</itemhistory>
				</clipitem>
				<clipitem id="00708001.MOV">
					<name>00708001.MOV</name>
					<duration>648</duration>
					<rate>
						<ntsc>FALSE</ntsc>
						<timebase>25</timebase>
					</rate>
					<in>16</in>
					<out>47</out>
					<start>1505</start>
					<end>-1</end>
					<pixelaspectratio>Square</pixelaspectratio>
					<enabled>TRUE</enabled>
					<anamorphic>FALSE</anamorphic>
					<alphatype>none</alphatype>
					<masterclipid>00708001.MOV1</masterclipid>
					<logginginfo>
						<scene/>
						<shottake/>
						<lognote/>
						<good>FALSE</good>
					</logginginfo>
					<labels>
						<label2/>
					</labels>
					<comments>
						<mastercomment1/>
						<mastercomment2/>
						<mastercomment3/>
						<mastercomment4/>
					</comments>
					<file id="00708001 ">
						<name>00708001.MOV</name>
						<pathurl>file://localhost/Volumes/Askepott/Prosjekter/DNPR637010_Kra%CC%8Akeklubben_TEM_011212/Video/MELLOMSTIKK/S01E05%20Dyrebolig/00708001.MOV</pathurl>
						<rate>
							<timebase>25</timebase>
						</rate>
						<duration>648</duration>
						<timecode>
							<rate>
								<timebase>25</timebase>
							</rate>
							<string>17:40:50:00</string>
							<frame>1591250</frame>
							<displayformat>NDF</displayformat>
							<source>source</source>
							<reel>
								<name>Flash XDR</name>
							</reel>
						</timecode>
						<media>
							<video>
								<duration>648</duration>
								<samplecharacteristics>
									<width>1920</width>
									<height>1080</height>
								</samplecharacteristics>
							</video>
							<audio>
								<samplecharacteristics>
									<samplerate>48000</samplerate>
									<depth>24</depth>
								</samplecharacteristics>
								<channelcount>1</channelcount>
							</audio>
							<audio>
								<samplecharacteristics>
									<samplerate>48000</samplerate>
									<depth>24</depth>
								</samplecharacteristics>
								<channelcount>1</channelcount>
							</audio>
						</media>
					</file>
					<filter>
						<effect>
							<name>Opacity</name>
							<effectid>opacity</effectid>
							<effectcategory>motion</effectcategory>
							<effecttype>motion</effecttype>
							<mediatype>video</mediatype>
							<parameter>
								<parameterid>opacity</parameterid>
								<name>opacity</name>
								<valuemin>0</valuemin>
								<valuemax>100</valuemax>
								<value>100</value>
							</parameter>
						</effect>
					</filter>
					<sourcetrack>
						<mediatype>video</mediatype>
					</sourcetrack>
					<fielddominance>upper</fielddominance>
					<itemhistory>
						<uuid>6D926B10-1ED6-4810-B4A7-518EF015024B</uuid>
					</itemhistory>
				</clipitem>
				<transitionitem>
					<rate>
						<ntsc>FALSE</ntsc>
						<timebase>25</timebase>
					</rate>
					<start>1519</start>
					<end>1536</end>
					<alignment>center</alignment>
					<effect>
						<name>G Glow Dissolve</name>
						<effectcategory>Nattress Big Box Of Tricks</effectcategory>
						<effecttype>transition</effecttype>
						<mediatype>video</mediatype>
						<wipecode>0</wipecode>
						<wipeaccuracy>100</wipeaccuracy>
						<startratio>0</startratio>
						<endratio>1</endratio>
						<reverse>FALSE</reverse>
						<parameter>
							<parameterid>glowamount</parameterid>
							<name>Glow Amount</name>
							<valuemin>0</valuemin>
							<valuemax>100</valuemax>
							<value>15</value>
						</parameter>
						<parameter>
							<parameterid>glowthreshold</parameterid>
							<name>Glow Threshold Limit</name>
							<valuemin>0</valuemin>
							<valuemax>100</valuemax>
							<value>12</value>
						</parameter>
						<parameter>
							<parameterid>glowsize</parameterid>
							<name>Glow Size</name>
							<valuemin>0</valuemin>
							<valuemax>100</valuemax>
							<value>2</value>
						</parameter>
						<parameter>
							<parameterid>ablur</parameterid>
							<name>Blur</name>
							<valuemin>0</valuemin>
							<valuemax>100</valuemax>
							<value>0</value>
						</parameter>
						<parameter>
							<parameterid>asaturation</parameterid>
							<name>Saturation</name>
							<valuemin>-1</valuemin>
							<valuemax>4</valuemax>
							<value>0</value>
						</parameter>
						<parameter>
							<parameterid>dissolvep</parameterid>
							<name>Dissolve Percentage</name>
							<valuemin>5</valuemin>
							<valuemax>100</valuemax>
							<value>50</value>
						</parameter>
						<parameter>
							<parameterid>copyright</parameterid>
							<name>© www.nattress.com</name>
							<value>string</value>
						</parameter>
					</effect>
				</transitionitem>
				<clipitem id="00708001.MOV2">
					<name>00708001.MOV</name>
					<duration>648</duration>
					<rate>
						<ntsc>FALSE</ntsc>
						<timebase>25</timebase>
					</rate>
					<in>30</in>
					<out>64</out>
					<start>-1</start>
					<end>-1</end>
					<pixelaspectratio>Square</pixelaspectratio>
					<enabled>TRUE</enabled>
					<anamorphic>FALSE</anamorphic>
					<alphatype>none</alphatype>
					<masterclipid>00708001.MOV1</masterclipid>
					<logginginfo>
						<scene/>
						<shottake/>
						<lognote/>
						<good>FALSE</good>
					</logginginfo>
					<labels>
						<label2/>
					</labels>
					<comments>
						<mastercomment1/>
						<mastercomment2/>
						<mastercomment3/>
						<mastercomment4/>
					</comments>
					<file id="00708001 "/>
					<filter>
						<effect>
							<name>Opacity</name>
							<effectid>opacity</effectid>
							<effectcategory>motion</effectcategory>
							<effecttype>motion</effecttype>
							<mediatype>video</mediatype>
							<parameter>
								<parameterid>opacity</parameterid>
								<name>opacity</name>
								<valuemin>0</valuemin>
								<valuemax>100</valuemax>
								<value>100</value>
							</parameter>
						</effect>
					</filter>
					<sourcetrack>
						<mediatype>video</mediatype>
					</sourcetrack>
					<fielddominance>upper</fielddominance>
					<itemhistory>
						<uuid>434B942E-8399-49AB-B2F5-4394FDE779CE</uuid>
					</itemhistory>
				</clipitem>
				<transitionitem>
					<rate>
						<ntsc>FALSE</ntsc>
						<timebase>25</timebase>
					</rate>
					<start>1536</start>
					<end>1553</end>
					<alignment>center</alignment>
					<effect>
						<name>G Glow Dissolve</name>
						<effectcategory>Nattress Big Box Of Tricks</effectcategory>
						<effecttype>transition</effecttype>
						<mediatype>video</mediatype>
						<wipecode>0</wipecode>
						<wipeaccuracy>100</wipeaccuracy>
						<startratio>0</startratio>
						<endratio>1</endratio>
						<reverse>FALSE</reverse>
						<parameter>
							<parameterid>glowamount</parameterid>
							<name>Glow Amount</name>
							<valuemin>0</valuemin>
							<valuemax>100</valuemax>
							<value>15</value>
						</parameter>
						<parameter>
							<parameterid>glowthreshold</parameterid>
							<name>Glow Threshold Limit</name>
							<valuemin>0</valuemin>
							<valuemax>100</valuemax>
							<value>12</value>
						</parameter>
						<parameter>
							<parameterid>glowsize</parameterid>
							<name>Glow Size</name>
							<valuemin>0</valuemin>
							<valuemax>100</valuemax>
							<value>2</value>
						</parameter>
						<parameter>
							<parameterid>ablur</parameterid>
							<name>Blur</name>
							<valuemin>0</valuemin>
							<valuemax>100</valuemax>
							<value>0</value>
						</parameter>
						<parameter>
							<parameterid>asaturation</parameterid>
							<name>Saturation</name>
							<valuemin>-1</valuemin>
							<valuemax>4</valuemax>
							<value>0</value>
						</parameter>
						<parameter>
							<parameterid>dissolvep</parameterid>
							<name>Dissolve Percentage</name>
							<valuemin>5</valuemin>
							<valuemax>100</valuemax>
							<value>50</value>
						</parameter>
						<parameter>
							<parameterid>copyright</parameterid>
							<name>© www.nattress.com</name>
							<value>string</value>
						</parameter>
					</effect>
				</transitionitem>
				<clipitem id="00708001.MOV3">
					<name>00708001.MOV</name>
					<duration>648</duration>
					<rate>
						<ntsc>FALSE</ntsc>
						<timebase>25</timebase>
					</rate>
					<in>47</in>
					<out>84</out>
					<start>-1</start>
					<end>-1</end>
					<pixelaspectratio>Square</pixelaspectratio>
					<enabled>TRUE</enabled>
					<anamorphic>FALSE</anamorphic>
					<alphatype>none</alphatype>
					<masterclipid>00708001.MOV1</masterclipid>
					<logginginfo>
						<scene/>
						<shottake/>
						<lognote/>
						<good>FALSE</good>
					</logginginfo>
					<labels>
						<label2/>
					</labels>
					<comments>
						<mastercomment1/>
						<mastercomment2/>
						<mastercomment3/>
						<mastercomment4/>
					</comments>
					<file id="00708001 "/>
					<filter>
						<effect>
							<name>Opacity</name>
							<effectid>opacity</effectid>
							<effectcategory>motion</effectcategory>
							<effecttype>motion</effecttype>
							<mediatype>video</mediatype>
							<parameter>
								<parameterid>opacity</parameterid>
								<name>opacity</name>
								<valuemin>0</valuemin>
								<valuemax>100</valuemax>
								<value>100</value>
							</parameter>
						</effect>
					</filter>
					<sourcetrack>
						<mediatype>video</mediatype>
					</sourcetrack>
					<fielddominance>upper</fielddominance>
					<itemhistory>
						<uuid>18A30BB0-9395-4D01-AD00-401057FDF643</uuid>
					</itemhistory>
				</clipitem>
				<transitionitem>
					<rate>
						<ntsc>FALSE</ntsc>
						<timebase>25</timebase>
					</rate>
					<start>1553</start>
					<end>1573</end>
					<alignment>center</alignment>
					<effect>
						<name>G Glow Dissolve</name>
						<effectcategory>Nattress Big Box Of Tricks</effectcategory>
						<effecttype>transition</effecttype>
						<mediatype>video</mediatype>
						<wipecode>0</wipecode>
						<wipeaccuracy>100</wipeaccuracy>
						<startratio>0</startratio>
						<endratio>1</endratio>
						<reverse>FALSE</reverse>
						<parameter>
							<parameterid>glowamount</parameterid>
							<name>Glow Amount</name>
							<valuemin>0</valuemin>
							<valuemax>100</valuemax>
							<value>15</value>
						</parameter>
						<parameter>
							<parameterid>glowthreshold</parameterid>
							<name>Glow Threshold Limit</name>
							<valuemin>0</valuemin>
							<valuemax>100</valuemax>
							<value>12</value>
						</parameter>
						<parameter>
							<parameterid>glowsize</parameterid>
							<name>Glow Size</name>
							<valuemin>0</valuemin>
							<valuemax>100</valuemax>
							<value>2</value>
						</parameter>
						<parameter>
							<parameterid>ablur</parameterid>
							<name>Blur</name>
							<valuemin>0</valuemin>
							<valuemax>100</valuemax>
							<value>0</value>
						</parameter>
						<parameter>
							<parameterid>asaturation</parameterid>
							<name>Saturation</name>
							<valuemin>-1</valuemin>
							<valuemax>4</valuemax>
							<value>0</value>
						</parameter>
						<parameter>
							<parameterid>dissolvep</parameterid>
							<name>Dissolve Percentage</name>
							<valuemin>5</valuemin>
							<valuemax>100</valuemax>
							<value>50</value>
						</parameter>
						<parameter>
							<parameterid>copyright</parameterid>
							<name>© www.nattress.com</name>
							<value>string</value>
						</parameter>
					</effect>
				</transitionitem>
				<clipitem id="00708001.MOV4">
					<name>00708001.MOV</name>
					<duration>648</duration>
					<rate>
						<ntsc>FALSE</ntsc>
						<timebase>25</timebase>
					</rate>
					<in>64</in>
					<out>103</out>
					<start>-1</start>
					<end>-1</end>
					<pixelaspectratio>Square</pixelaspectratio>
					<enabled>TRUE</enabled>
					<anamorphic>FALSE</anamorphic>
					<alphatype>none</alphatype>
					<masterclipid>00708001.MOV1</masterclipid>
					<logginginfo>
						<scene/>
						<shottake/>
						<lognote/>
						<good>FALSE</good>
					</logginginfo>
					<labels>
						<label2/>
					</labels>
					<comments>
						<mastercomment1/>
						<mastercomment2/>
						<mastercomment3/>
						<mastercomment4/>
					</comments>
					<file id="00708001 "/>
					<filter>
						<effect>
							<name>Opacity</name>
							<effectid>opacity</effectid>
							<effectcategory>motion</effectcategory>
							<effecttype>motion</effecttype>
							<mediatype>video</mediatype>
							<parameter>
								<parameterid>opacity</parameterid>
								<name>opacity</name>
								<valuemin>0</valuemin>
								<valuemax>100</valuemax>
								<value>100</value>
							</parameter>
						</effect>
					</filter>
					<sourcetrack>
						<mediatype>video</mediatype>
					</sourcetrack>
					<fielddominance>upper</fielddominance>
					<itemhistory>
						<uuid>09F3E6AE-B0C5-4BCC-A736-1A883E40F323</uuid>
					</itemhistory>
				</clipitem>
				<transitionitem>
					<rate>
						<ntsc>FALSE</ntsc>
						<timebase>25</timebase>
					</rate>
					<start>1577</start>
					<end>1592</end>
					<alignment>center</alignment>
					<effect>
						<name>G Glow Dissolve</name>
						<effectcategory>Nattress Big Box Of Tricks</effectcategory>
						<effecttype>transition</effecttype>
						<mediatype>video</mediatype>
						<wipecode>0</wipecode>
						<wipeaccuracy>100</wipeaccuracy>
						<startratio>0</startratio>
						<endratio>1</endratio>
						<reverse>FALSE</reverse>
						<parameter>
							<parameterid>glowamount</parameterid>
							<name>Glow Amount</name>
							<valuemin>0</valuemin>
							<valuemax>100</valuemax>
							<value>75</value>
						</parameter>
						<parameter>
							<parameterid>glowthreshold</parameterid>
							<name>Glow Threshold Limit</name>
							<valuemin>0</valuemin>
							<valuemax>100</valuemax>
							<value>12</value>
						</parameter>
						<parameter>
							<parameterid>glowsize</parameterid>
							<name>Glow Size</name>
							<valuemin>0</valuemin>
							<valuemax>100</valuemax>
							<value>4</value>
						</parameter>
						<parameter>
							<parameterid>ablur</parameterid>
							<name>Blur</name>
							<valuemin>0</valuemin>
							<valuemax>100</valuemax>
							<value>4</value>
						</parameter>
						<parameter>
							<parameterid>asaturation</parameterid>
							<name>Saturation</name>
							<valuemin>-1</valuemin>
							<valuemax>4</valuemax>
							<value>0</value>
						</parameter>
						<parameter>
							<parameterid>dissolvep</parameterid>
							<name>Dissolve Percentage</name>
							<valuemin>5</valuemin>
							<valuemax>100</valuemax>
							<value>50</value>
						</parameter>
						<parameter>
							<parameterid>copyright</parameterid>
							<name>© www.nattress.com</name>
							<value>string</value>
						</parameter>
					</effect>
				</transitionitem>
				<clipitem id="00696001.MOV">
					<name>00696001.MOV</name>
					<duration>1728</duration>
					<rate>
						<ntsc>FALSE</ntsc>
						<timebase>25</timebase>
					</rate>
					<in>287</in>
					<out>360</out>
					<start>-1</start>
					<end>1650</end>
					<pixelaspectratio>Square</pixelaspectratio>
					<enabled>TRUE</enabled>
					<anamorphic>FALSE</anamorphic>
					<alphatype>none</alphatype>
					<masterclipid>00696001.MOV1</masterclipid>
					<logginginfo>
						<scene/>
						<shottake/>
						<lognote/>
						<good>FALSE</good>
					</logginginfo>
					<labels>
						<label2/>
					</labels>
					<comments>
						<mastercomment1/>
						<mastercomment2/>
						<mastercomment3/>
						<mastercomment4/>
					</comments>
					<file id="00696001 ">
						<name>00696001.MOV</name>
						<pathurl>file://localhost/Volumes/Askepott/Prosjekter/DNPR637010_Kra%CC%8Akeklubben_TEM_011212/Video/MELLOMSTIKK/S01E05%20Dyrebolig/00696001.MOV</pathurl>
						<rate>
							<timebase>25</timebase>
						</rate>
						<duration>1728</duration>
						<timecode>
							<rate>
								<timebase>25</timebase>
							</rate>
							<string>17:32:05:03</string>
							<frame>1578128</frame>
							<displayformat>NDF</displayformat>
							<source>source</source>
							<reel>
								<name>Flash XDR</name>
							</reel>
						</timecode>
						<media>
							<video>
								<duration>1728</duration>
								<samplecharacteristics>
									<width>1920</width>
									<height>1080</height>
								</samplecharacteristics>
							</video>
							<audio>
								<samplecharacteristics>
									<samplerate>48000</samplerate>
									<depth>24</depth>
								</samplecharacteristics>
								<channelcount>1</channelcount>
							</audio>
							<audio>
								<samplecharacteristics>
									<samplerate>48000</samplerate>
									<depth>24</depth>
								</samplecharacteristics>
								<channelcount>1</channelcount>
							</audio>
						</media>
					</file>
					<filter>
						<enabled>TRUE</enabled>
						<start>-1</start>
						<end>-1</end>
						<effect>
							<name>Color Corrector - Lua til Carina 3 bittelitt</name>
							<effectid>Color Corrector</effectid>
							<effectcategory>Color Correction</effectcategory>
							<effecttype>filter</effecttype>
							<mediatype>video</mediatype>
							<parameter>
								<parameterid>dispmode</parameterid>
								<name>Display Mode</name>
								<valuemin>1</valuemin>
								<valuemax>3</valuemax>
								<valuelist>
									<valueentry>
										<name>Final</name>
										<value>1</value>
									</valueentry>
									<valueentry>
										<name>Matte</name>
										<value>2</value>
									</valueentry>
									<valueentry>
										<name>Source</name>
										<value>3</value>
									</valueentry>
								</valuelist>
								<value>1</value>
							</parameter>
							<parameter>
								<parameterid>label1</parameterid>
								<name>Level Controls</name>
								<value/>
							</parameter>
							<parameter>
								<parameterid>highlights</parameterid>
								<name>Highlights</name>
								<valuemin>64</valuemin>
								<valuemax>509</valuemax>
								<value>247</value>
							</parameter>
							<parameter>
								<parameterid>mids</parameterid>
								<name>Mids</name>
								<valuemin>0</valuemin>
								<valuemax>200</valuemax>
								<value>100</value>
							</parameter>
							<parameter>
								<parameterid>blacklevel</parameterid>
								<name>Blacks</name>
								<valuemin>-196</valuemin>
								<valuemax>254</valuemax>
								<value>-3</value>
							</parameter>
							<parameter>
								<parameterid>label2</parameterid>
								<name>Color Balance</name>
								<value/>
							</parameter>
							<parameter>
								<parameterid>hue</parameterid>
								<name>Angle</name>
								<valuemin>-180</valuemin>
								<valuemax>180</valuemax>
								<value>-33</value>
							</parameter>
							<parameter>
								<parameterid>mag</parameterid>
								<name>Magnitude</name>
								<valuemin>0</valuemin>
								<valuemax>200</valuemax>
								<value>0</value>
							</parameter>
							<parameter>
								<parameterid>label4</parameterid>
								<name>Color Controls</name>
								<value/>
							</parameter>
							<parameter>
								<parameterid>chroma</parameterid>
								<name>Saturation</name>
								<valuemin>0</valuemin>
								<valuemax>200</valuemax>
								<value>94</value>
							</parameter>
							<parameter>
								<parameterid>phase</parameterid>
								<name>Phase shift</name>
								<valuemin>-180</valuemin>
								<valuemax>180</valuemax>
								<value>0</value>
							</parameter>
							<parameter>
								<parameterid>label5</parameterid>
								<name>Limit Effect Controls</name>
								<value/>
							</parameter>
							<parameter>
								<parameterid>dochroma</parameterid>
								<name>Limit on Chroma</name>
								<value>TRUE</value>
							</parameter>
							<parameter>
								<parameterid>centerang</parameterid>
								<name>Chroma Center</name>
								<valuemin>-760</valuemin>
								<valuemax>760</valuemax>
								<value>322.256</value>
							</parameter>
							<parameter>
								<parameterid>chromawidth</parameterid>
								<name>Chroma Width</name>
								<valuemin>0</valuemin>
								<valuemax>360</valuemax>
								<value>8.11959</value>
							</parameter>
							<parameter>
								<parameterid>chromasoft</parameterid>
								<name>Chroma Softness</name>
								<valuemin>0</valuemin>
								<valuemax>180</valuemax>
								<value>26.8371</value>
							</parameter>
							<parameter>
								<parameterid>dosat</parameterid>
								<name>Limit on Saturation</name>
								<value>TRUE</value>
							</parameter>
							<parameter>
								<parameterid>satmin</parameterid>
								<name>Sat. Minimum</name>
								<valuemin>0</valuemin>
								<valuemax>125</valuemax>
								<value>36.7837</value>
							</parameter>
							<parameter>
								<parameterid>satwidth</parameterid>
								<name>Sat. Width</name>
								<valuemin>0</valuemin>
								<valuemax>125</valuemax>
								<value>84.0889</value>
							</parameter>
							<parameter>
								<parameterid>satsoft</parameterid>
								<name>Sat. Softness</name>
								<valuemin>0</valuemin>
								<valuemax>125</valuemax>
								<value>5</value>
							</parameter>
							<parameter>
								<parameterid>doluma</parameterid>
								<name>Limit on Luma</name>
								<value>TRUE</value>
							</parameter>
							<parameter>
								<parameterid>lumamin</parameterid>
								<name>Luma Minimum</name>
								<valuemin>0</valuemin>
								<valuemax>120</valuemax>
								<value>0.939667</value>
							</parameter>
							<parameter>
								<parameterid>lumawidth</parameterid>
								<name>Luma Width</name>
								<valuemin>0</valuemin>
								<valuemax>120</valuemax>
								<value>115.45</value>
							</parameter>
							<parameter>
								<parameterid>lumasoft</parameterid>
								<name>Luma Softness</name>
								<valuemin>0</valuemin>
								<valuemax>120</valuemax>
								<value>15.1099</value>
							</parameter>
							<parameter>
								<parameterid>label6</parameterid>
								<name>Edge Control</name>
								<value/>
							</parameter>
							<parameter>
								<parameterid>edgethin</parameterid>
								<name>Thin/Spread</name>
								<valuemin>-100</valuemin>
								<valuemax>100</valuemax>
								<value>0</value>
							</parameter>
							<parameter>
								<parameterid>edgefeather</parameterid>
								<name>Softening</name>
								<valuemin>0</valuemin>
								<valuemax>100</valuemax>
								<value>6</value>
							</parameter>
							<parameter>
								<parameterid>label7</parameterid>
								<name>Mask Control</name>
								<value/>
							</parameter>
							<parameter>
								<parameterid>invertsel</parameterid>
								<name>Invert</name>
								<value>FALSE</value>
							</parameter>
							<parameter>
								<parameterid>debugshow</parameterid>
								<name>Show Stats</name>
								<value>FALSE</value>
							</parameter>
						</effect>
					</filter>
					<filter>
						<enabled>TRUE</enabled>
						<start>-1</start>
						<end>-1</end>
						<effect>
							<name>G Simple Curves</name>
							<effectcategory>Nattress Big Box of Tricks - Levels and Curves</effectcategory>
							<effecttype>filter</effecttype>
							<mediatype>video</mediatype>
							<parameter>
								<parameterid>colourspace</parameterid>
								<name>Colour Space</name>
								<valuemin>1</valuemin>
								<valuemax>2</valuemax>
								<valuelist>
									<valueentry>
										<name>RGB</name>
										<value>1</value>
									</valueentry>
									<valueentry>
										<name>Y'CbCr</name>
										<value>2</value>
									</valueentry>
								</valuelist>
								<value>2</value>
							</parameter>
							<parameter>
								<parameterid>showcurves</parameterid>
								<name>Show Curves</name>
								<value>FALSE</value>
							</parameter>
							<parameter>
								<parameterid>lvar</parameterid>
								<name>Levels Controls</name>
								<value>string</value>
							</parameter>
							<parameter>
								<parameterid>inw</parameterid>
								<name>White Level</name>
								<valuemin>0</valuemin>
								<valuemax>255</valuemax>
								<value>255</value>
							</parameter>
							<parameter>
								<parameterid>inb</parameterid>
								<name>Black Level</name>
								<valuemin>0</valuemin>
								<valuemax>255</valuemax>
								<value>0</value>
							</parameter>
							<parameter>
								<parameterid>outw</parameterid>
								<name>White Output</name>
								<valuemin>0</valuemin>
								<valuemax>255</valuemax>
								<value>255</value>
							</parameter>
							<parameter>
								<parameterid>outb</parameterid>
								<name>Black Output</name>
								<valuemin>0</valuemin>
								<valuemax>255</valuemax>
								<value>0</value>
							</parameter>
							<parameter>
								<parameterid>cvar</parameterid>
								<name>Curves Controls</name>
								<value>string</value>
							</parameter>
							<parameter>
								<parameterid>curvew</parameterid>
								<name>White Curve</name>
								<valuemin>-100</valuemin>
								<valuemax>100</valuemax>
								<value>-20</value>
							</parameter>
							<parameter>
								<parameterid>curveb</parameterid>
								<name>Black Curve</name>
								<valuemin>-100</valuemin>
								<valuemax>100</valuemax>
								<value>0</value>
							</parameter>
							<parameter>
								<parameterid>clipoutput</parameterid>
								<name>Clip Output Levels</name>
								<value>TRUE</value>
							</parameter>
							<parameter>
								<parameterid>copyright</parameterid>
								<name>© www.nattress.com</name>
								<value>string</value>
							</parameter>
						</effect>
					</filter>
					<filter>
						<effect>
							<name>Basic Motion</name>
							<effectid>basic</effectid>
							<effectcategory>motion</effectcategory>
							<effecttype>motion</effecttype>
							<mediatype>video</mediatype>
							<parameter>
								<parameterid>scale</parameterid>
								<name>Scale</name>
								<valuemin>0</valuemin>
								<valuemax>1000</valuemax>
								<value>100</value>
							</parameter>
							<parameter>
								<parameterid>rotation</parameterid>
								<name>Rotation</name>
								<valuemin>-8640</valuemin>
								<valuemax>8640</valuemax>
								<value>0</value>
							</parameter>
							<parameter>
								<parameterid>center</parameterid>
								<name>Center</name>
								<value>
									<horiz>0</horiz>
									<vert>0</vert>
								</value>
							</parameter>
							<parameter>
								<parameterid>centerOffset</parameterid>
								<name>Anchor Point</name>
								<value>
									<horiz>0</horiz>
									<vert>0</vert>
								</value>
							</parameter>
						</effect>
					</filter>
					<filter>
						<enabled>FALSE</enabled>
						<effect>
							<name>Drop Shadow</name>
							<effectid>dropshadow</effectid>
							<effectcategory>motion</effectcategory>
							<effecttype>motion</effecttype>
							<mediatype>video</mediatype>
							<parameter>
								<parameterid>offset</parameterid>
								<name>offset</name>
								<valuemin>-100</valuemin>
								<valuemax>100</valuemax>
								<value>2</value>
							</parameter>
							<parameter>
								<parameterid>angle</parameterid>
								<name>angle</name>
								<valuemin>-720</valuemin>
								<valuemax>720</valuemax>
								<value>135</value>
							</parameter>
							<parameter>
								<parameterid>color</parameterid>
								<name>color</name>
								<value>
									<alpha>0</alpha>
									<red>0</red>
									<green>0</green>
									<blue>0</blue>
								</value>
							</parameter>
							<parameter>
								<parameterid>softness</parameterid>
								<name>softness</name>
								<valuemin>0</valuemin>
								<valuemax>100</valuemax>
								<value>10</value>
							</parameter>
							<parameter>
								<parameterid>opacity</parameterid>
								<name>opacity</name>
								<valuemin>0</valuemin>
								<valuemax>100</valuemax>
								<value>50</value>
							</parameter>
						</effect>
					</filter>
					<filter>
						<enabled>FALSE</enabled>
						<effect>
							<name>Motion Blur</name>
							<effectid>motionblur</effectid>
							<effectcategory>motion</effectcategory>
							<effecttype>motion</effecttype>
							<mediatype>video</mediatype>
							<parameter>
								<parameterid>duration</parameterid>
								<name>% Blur</name>
								<valuemin>0</valuemin>
								<valuemax>1000</valuemax>
								<value>500</value>
							</parameter>
							<parameter>
								<parameterid>samples</parameterid>
								<name>Samples</name>
								<valuemin>1</valuemin>
								<valuemax>16</valuemax>
								<value>4</value>
							</parameter>
						</effect>
					</filter>
					<filter>
						<effect>
							<name>Crop</name>
							<effectid>crop</effectid>
							<effectcategory>motion</effectcategory>
							<effecttype>motion</effecttype>
							<mediatype>video</mediatype>
							<parameter>
								<parameterid>left</parameterid>
								<name>left</name>
								<valuemin>0</valuemin>
								<valuemax>100</valuemax>
								<value>0</value>
							</parameter>
							<parameter>
								<parameterid>right</parameterid>
								<name>right</name>
								<valuemin>0</valuemin>
								<valuemax>100</valuemax>
								<value>0</value>
							</parameter>
							<parameter>
								<parameterid>top</parameterid>
								<name>top</name>
								<valuemin>0</valuemin>
								<valuemax>100</valuemax>
								<value>0</value>
							</parameter>
							<parameter>
								<parameterid>bottom</parameterid>
								<name>bottom</name>
								<valuemin>0</valuemin>
								<valuemax>100</valuemax>
								<value>0</value>
							</parameter>
							<parameter>
								<parameterid>edgefeather</parameterid>
								<name>edgefeather</name>
								<valuemin>0</valuemin>
								<valuemax>100</valuemax>
								<value>0</value>
							</parameter>
						</effect>
					</filter>
					<filter>
						<effect>
							<name>Distort</name>
							<effectid>deformation</effectid>
							<effectcategory>motion</effectcategory>
							<effecttype>motion</effecttype>
							<mediatype>video</mediatype>
							<parameter>
								<parameterid>ulcorner</parameterid>
								<name>Upper Left</name>
								<value>
									<horiz>-0.5</horiz>
									<vert>-0.5</vert>
								</value>
							</parameter>
							<parameter>
								<parameterid>urcorner</parameterid>
								<name>Upper Right</name>
								<value>
									<horiz>0.5</horiz>
									<vert>-0.5</vert>
								</value>
							</parameter>
							<parameter>
								<parameterid>lrcorner</parameterid>
								<name>Lower Right</name>
								<value>
									<horiz>0.5</horiz>
									<vert>0.5</vert>
								</value>
							</parameter>
							<parameter>
								<parameterid>llcorner</parameterid>
								<name>Lower Left</name>
								<value>
									<horiz>-0.5</horiz>
									<vert>0.5</vert>
								</value>
							</parameter>
							<parameter>
								<parameterid>aspect</parameterid>
								<name>Aspect</name>
								<valuemin>-10000</valuemin>
								<valuemax>10000</valuemax>
								<value>0</value>
							</parameter>
						</effect>
					</filter>
					<filter>
						<effect>
							<name>Opacity</name>
							<effectid>opacity</effectid>
							<effectcategory>motion</effectcategory>
							<effecttype>motion</effecttype>
							<mediatype>video</mediatype>
							<parameter>
								<parameterid>opacity</parameterid>
								<name>opacity</name>
								<valuemin>0</valuemin>
								<valuemax>100</valuemax>
								<value>100</value>
							</parameter>
						</effect>
					</filter>
					<sourcetrack>
						<mediatype>video</mediatype>
					</sourcetrack>
					<link>
						<linkclipref>00696001.MOV</linkclipref>
						<mediatype>video</mediatype>
						<trackindex>1</trackindex>
						<clipindex>14</clipindex>
					</link>
					<link>
						<linkclipref>00696001.MOV2</linkclipref>
						<mediatype>audio</mediatype>
						<trackindex>1</trackindex>
						<clipindex>7</clipindex>
					</link>
					<link>
						<linkclipref>00696001.MOV3</linkclipref>
						<mediatype>audio</mediatype>
						<trackindex>2</trackindex>
						<clipindex>7</clipindex>
					</link>
					<fielddominance>upper</fielddominance>
					<itemhistory>
						<uuid>EBD70135-9EB9-476E-A6D2-DFDCE17781D3</uuid>
					</itemhistory>
				</clipitem>
				<clipitem id="00705001.MOV">
					<name>00705001.MOV</name>
					<duration>1632</duration>
					<rate>
						<ntsc>FALSE</ntsc>
						<timebase>25</timebase>
					</rate>
					<in>191</in>
					<out>232</out>
					<start>1650</start>
					<end>1691</end>
					<pixelaspectratio>Square</pixelaspectratio>
					<enabled>TRUE</enabled>
					<anamorphic>FALSE</anamorphic>
					<alphatype>none</alphatype>
					<masterclipid>00705001.MOV1</masterclipid>
					<logginginfo>
						<scene/>
						<shottake/>
						<lognote/>
						<good>FALSE</good>
					</logginginfo>
					<labels>
						<label2/>
					</labels>
					<comments>
						<mastercomment1/>
						<mastercomment2/>
						<mastercomment3/>
						<mastercomment4/>
					</comments>
					<file id="00705001 ">
						<name>00705001.MOV</name>
						<pathurl>file://localhost/Volumes/Askepott/Prosjekter/DNPR637010_Kra%CC%8Akeklubben_TEM_011212/Video/MELLOMSTIKK/S01E05%20Dyrebolig/00705001.MOV</pathurl>
						<rate>
							<timebase>25</timebase>
						</rate>
						<duration>1632</duration>
						<timecode>
							<rate>
								<timebase>25</timebase>
							</rate>
							<string>17:37:24:13</string>
							<frame>1586113</frame>
							<displayformat>NDF</displayformat>
							<source>source</source>
							<reel>
								<name>Flash XDR</name>
							</reel>
						</timecode>
						<media>
							<video>
								<duration>1632</duration>
								<samplecharacteristics>
									<width>1920</width>
									<height>1080</height>
								</samplecharacteristics>
							</video>
							<audio>
								<samplecharacteristics>
									<samplerate>48000</samplerate>
									<depth>24</depth>
								</samplecharacteristics>
								<channelcount>1</channelcount>
							</audio>
							<audio>
								<samplecharacteristics>
									<samplerate>48000</samplerate>
									<depth>24</depth>
								</samplecharacteristics>
								<channelcount>1</channelcount>
							</audio>
						</media>
					</file>
					<filter>
						<enabled>TRUE</enabled>
						<start>-1</start>
						<end>-1</end>
						<effect>
							<name>Color Corrector - Lua til Carina</name>
							<effectid>Color Corrector</effectid>
							<effectcategory>Color Correction</effectcategory>
							<effecttype>filter</effecttype>
							<mediatype>video</mediatype>
							<parameter>
								<parameterid>dispmode</parameterid>
								<name>Display Mode</name>
								<valuemin>1</valuemin>
								<valuemax>3</valuemax>
								<valuelist>
									<valueentry>
										<name>Final</name>
										<value>1</value>
									</valueentry>
									<valueentry>
										<name>Matte</name>
										<value>2</value>
									</valueentry>
									<valueentry>
										<name>Source</name>
										<value>3</value>
									</valueentry>
								</valuelist>
								<value>1</value>
							</parameter>
							<parameter>
								<parameterid>label1</parameterid>
								<name>Level Controls</name>
								<value/>
							</parameter>
							<parameter>
								<parameterid>highlights</parameterid>
								<name>Highlights</name>
								<valuemin>64</valuemin>
								<valuemax>509</valuemax>
								<value>247</value>
							</parameter>
							<parameter>
								<parameterid>mids</parameterid>
								<name>Mids</name>
								<valuemin>0</valuemin>
								<valuemax>200</valuemax>
								<value>100</value>
							</parameter>
							<parameter>
								<parameterid>blacklevel</parameterid>
								<name>Blacks</name>
								<valuemin>-196</valuemin>
								<valuemax>254</valuemax>
								<value>-3</value>
							</parameter>
							<parameter>
								<parameterid>label2</parameterid>
								<name>Color Balance</name>
								<value/>
							</parameter>
							<parameter>
								<parameterid>hue</parameterid>
								<name>Angle</name>
								<valuemin>-180</valuemin>
								<valuemax>180</valuemax>
								<value>-33</value>
							</parameter>
							<parameter>
								<parameterid>mag</parameterid>
								<name>Magnitude</name>
								<valuemin>0</valuemin>
								<valuemax>200</valuemax>
								<value>0</value>
							</parameter>
							<parameter>
								<parameterid>label4</parameterid>
								<name>Color Controls</name>
								<value/>
							</parameter>
							<parameter>
								<parameterid>chroma</parameterid>
								<name>Saturation</name>
								<valuemin>0</valuemin>
								<valuemax>200</valuemax>
								<value>94</value>
							</parameter>
							<parameter>
								<parameterid>phase</parameterid>
								<name>Phase shift</name>
								<valuemin>-180</valuemin>
								<valuemax>180</valuemax>
								<value>0</value>
							</parameter>
							<parameter>
								<parameterid>label5</parameterid>
								<name>Limit Effect Controls</name>
								<value/>
							</parameter>
							<parameter>
								<parameterid>dochroma</parameterid>
								<name>Limit on Chroma</name>
								<value>TRUE</value>
							</parameter>
							<parameter>
								<parameterid>centerang</parameterid>
								<name>Chroma Center</name>
								<valuemin>-760</valuemin>
								<valuemax>760</valuemax>
								<value>322.256</value>
							</parameter>
							<parameter>
								<parameterid>chromawidth</parameterid>
								<name>Chroma Width</name>
								<valuemin>0</valuemin>
								<valuemax>360</valuemax>
								<value>8.11959</value>
							</parameter>
							<parameter>
								<parameterid>chromasoft</parameterid>
								<name>Chroma Softness</name>
								<valuemin>0</valuemin>
								<valuemax>180</valuemax>
								<value>26.8371</value>
							</parameter>
							<parameter>
								<parameterid>dosat</parameterid>
								<name>Limit on Saturation</name>
								<value>TRUE</value>
							</parameter>
							<parameter>
								<parameterid>satmin</parameterid>
								<name>Sat. Minimum</name>
								<valuemin>0</valuemin>
								<valuemax>125</valuemax>
								<value>36.7837</value>
							</parameter>
							<parameter>
								<parameterid>satwidth</parameterid>
								<name>Sat. Width</name>
								<valuemin>0</valuemin>
								<valuemax>125</valuemax>
								<value>84.0889</value>
							</parameter>
							<parameter>
								<parameterid>satsoft</parameterid>
								<name>Sat. Softness</name>
								<valuemin>0</valuemin>
								<valuemax>125</valuemax>
								<value>5</value>
							</parameter>
							<parameter>
								<parameterid>doluma</parameterid>
								<name>Limit on Luma</name>
								<value>TRUE</value>
							</parameter>
							<parameter>
								<parameterid>lumamin</parameterid>
								<name>Luma Minimum</name>
								<valuemin>0</valuemin>
								<valuemax>120</valuemax>
								<value>0.939667</value>
							</parameter>
							<parameter>
								<parameterid>lumawidth</parameterid>
								<name>Luma Width</name>
								<valuemin>0</valuemin>
								<valuemax>120</valuemax>
								<value>115.45</value>
							</parameter>
							<parameter>
								<parameterid>lumasoft</parameterid>
								<name>Luma Softness</name>
								<valuemin>0</valuemin>
								<valuemax>120</valuemax>
								<value>15.1099</value>
							</parameter>
							<parameter>
								<parameterid>label6</parameterid>
								<name>Edge Control</name>
								<value/>
							</parameter>
							<parameter>
								<parameterid>edgethin</parameterid>
								<name>Thin/Spread</name>
								<valuemin>-100</valuemin>
								<valuemax>100</valuemax>
								<value>0</value>
							</parameter>
							<parameter>
								<parameterid>edgefeather</parameterid>
								<name>Softening</name>
								<valuemin>0</valuemin>
								<valuemax>100</valuemax>
								<value>6</value>
							</parameter>
							<parameter>
								<parameterid>label7</parameterid>
								<name>Mask Control</name>
								<value/>
							</parameter>
							<parameter>
								<parameterid>invertsel</parameterid>
								<name>Invert</name>
								<value>FALSE</value>
							</parameter>
							<parameter>
								<parameterid>debugshow</parameterid>
								<name>Show Stats</name>
								<value>FALSE</value>
							</parameter>
						</effect>
					</filter>
					<sourcetrack>
						<mediatype>video</mediatype>
					</sourcetrack>
					<fielddominance>upper</fielddominance>
					<itemhistory>
						<uuid>B218F8BE-4571-4291-AD80-CDC6A7D77D2B</uuid>
					</itemhistory>
				</clipitem>
				<clipitem id="00700001.MOV">
					<name>00700001.MOV</name>
					<duration>1404</duration>
					<rate>
						<ntsc>FALSE</ntsc>
						<timebase>25</timebase>
					</rate>
					<in>126</in>
					<out>202</out>
					<start>1691</start>
					<end>1767</end>
					<pixelaspectratio>Square</pixelaspectratio>
					<enabled>TRUE</enabled>
					<anamorphic>FALSE</anamorphic>
					<alphatype>none</alphatype>
					<masterclipid>00700001.MOV1</masterclipid>
					<logginginfo>
						<scene/>
						<shottake/>
						<lognote/>
						<good>FALSE</good>
					</logginginfo>
					<labels>
						<label2/>
					</labels>
					<comments>
						<mastercomment1/>
						<mastercomment2/>
						<mastercomment3/>
						<mastercomment4/>
					</comments>
					<file id="00700001 ">
						<name>00700001.MOV</name>
						<pathurl>file://localhost/Volumes/Askepott/Prosjekter/DNPR637010_Kra%CC%8Akeklubben_TEM_011212/Video/MELLOMSTIKK/S01E05%20Dyrebolig/00700001.MOV</pathurl>
						<rate>
							<timebase>25</timebase>
						</rate>
						<duration>1404</duration>
						<timecode>
							<rate>
								<timebase>25</timebase>
							</rate>
							<string>17:34:16:21</string>
							<frame>1581421</frame>
							<displayformat>NDF</displayformat>
							<source>source</source>
							<reel>
								<name>Flash XDR</name>
							</reel>
						</timecode>
						<media>
							<video>
								<duration>1404</duration>
								<samplecharacteristics>
									<width>1920</width>
									<height>1080</height>
								</samplecharacteristics>
							</video>
							<audio>
								<samplecharacteristics>
									<samplerate>48000</samplerate>
									<depth>24</depth>
								</samplecharacteristics>
								<channelcount>1</channelcount>
							</audio>
							<audio>
								<samplecharacteristics>
									<samplerate>48000</samplerate>
									<depth>24</depth>
								</samplecharacteristics>
								<channelcount>1</channelcount>
							</audio>
						</media>
					</file>
					<filter>
						<enabled>TRUE</enabled>
						<start>-1</start>
						<end>-1</end>
						<effect>
							<name>G Simple Curves -20 white curve</name>
							<effectcategory>Nattress Big Box of Tricks - Levels and Curves</effectcategory>
							<effecttype>filter</effecttype>
							<mediatype>video</mediatype>
							<parameter>
								<parameterid>colourspace</parameterid>
								<name>Colour Space</name>
								<valuemin>1</valuemin>
								<valuemax>2</valuemax>
								<valuelist>
									<valueentry>
										<name>RGB</name>
										<value>1</value>
									</valueentry>
									<valueentry>
										<name>Y'CbCr</name>
										<value>2</value>
									</valueentry>
								</valuelist>
								<value>2</value>
							</parameter>
							<parameter>
								<parameterid>showcurves</parameterid>
								<name>Show Curves</name>
								<value>FALSE</value>
							</parameter>
							<parameter>
								<parameterid>lvar</parameterid>
								<name>Levels Controls</name>
								<value>string</value>
							</parameter>
							<parameter>
								<parameterid>inw</parameterid>
								<name>White Level</name>
								<valuemin>0</valuemin>
								<valuemax>255</valuemax>
								<value>255</value>
							</parameter>
							<parameter>
								<parameterid>inb</parameterid>
								<name>Black Level</name>
								<valuemin>0</valuemin>
								<valuemax>255</valuemax>
								<value>0</value>
							</parameter>
							<parameter>
								<parameterid>outw</parameterid>
								<name>White Output</name>
								<valuemin>0</valuemin>
								<valuemax>255</valuemax>
								<value>255</value>
							</parameter>
							<parameter>
								<parameterid>outb</parameterid>
								<name>Black Output</name>
								<valuemin>0</valuemin>
								<valuemax>255</valuemax>
								<value>0</value>
							</parameter>
							<parameter>
								<parameterid>cvar</parameterid>
								<name>Curves Controls</name>
								<value>string</value>
							</parameter>
							<parameter>
								<parameterid>curvew</parameterid>
								<name>White Curve</name>
								<valuemin>-100</valuemin>
								<valuemax>100</valuemax>
								<value>10</value>
							</parameter>
							<parameter>
								<parameterid>curveb</parameterid>
								<name>Black Curve</name>
								<valuemin>-100</valuemin>
								<valuemax>100</valuemax>
								<value>0</value>
							</parameter>
							<parameter>
								<parameterid>clipoutput</parameterid>
								<name>Clip Output Levels</name>
								<value>TRUE</value>
							</parameter>
							<parameter>
								<parameterid>copyright</parameterid>
								<name>© www.nattress.com</name>
								<value>string</value>
							</parameter>
						</effect>
					</filter>
					<sourcetrack>
						<mediatype>video</mediatype>
					</sourcetrack>
					<link>
						<linkclipref>00700001.MOV</linkclipref>
						<mediatype>video</mediatype>
						<trackindex>1</trackindex>
						<clipindex>16</clipindex>
					</link>
					<link>
						<linkclipref>00700001.MOV2</linkclipref>
						<mediatype>audio</mediatype>
						<trackindex>1</trackindex>
						<clipindex>8</clipindex>
					</link>
					<link>
						<linkclipref>00700001.MOV3</linkclipref>
						<mediatype>audio</mediatype>
						<trackindex>2</trackindex>
						<clipindex>8</clipindex>
					</link>
					<fielddominance>upper</fielddominance>
					<itemhistory>
						<uuid>DA4DE49D-8DCB-45A0-9136-834B4B6E1BA9</uuid>
					</itemhistory>
				</clipitem>
				<clipitem id="00709001.MOV">
					<name>00709001.MOV</name>
					<duration>516</duration>
					<rate>
						<ntsc>FALSE</ntsc>
						<timebase>25</timebase>
					</rate>
					<in>369</in>
					<out>432</out>
					<start>1767</start>
					<end>1830</end>
					<pixelaspectratio>Square</pixelaspectratio>
					<enabled>TRUE</enabled>
					<anamorphic>FALSE</anamorphic>
					<alphatype>none</alphatype>
					<masterclipid>00709001.MOV1</masterclipid>
					<logginginfo>
						<scene/>
						<shottake/>
						<lognote/>
						<good>FALSE</good>
					</logginginfo>
					<labels>
						<label2/>
					</labels>
					<comments>
						<mastercomment1/>
						<mastercomment2/>
						<mastercomment3/>
						<mastercomment4/>
					</comments>
					<file id="00709001 ">
						<name>00709001.MOV</name>
						<pathurl>file://localhost/Volumes/Askepott/Prosjekter/DNPR637010_Kra%CC%8Akeklubben_TEM_011212/Video/MELLOMSTIKK/S01E05%20Dyrebolig/00709001.MOV</pathurl>
						<rate>
							<timebase>25</timebase>
						</rate>
						<duration>516</duration>
						<timecode>
							<rate>
								<timebase>25</timebase>
							</rate>
							<string>17:41:15:19</string>
							<frame>1591894</frame>
							<displayformat>NDF</displayformat>
							<source>source</source>
							<reel>
								<name>Flash XDR</name>
							</reel>
						</timecode>
						<media>
							<video>
								<duration>516</duration>
								<samplecharacteristics>
									<width>1920</width>
									<height>1080</height>
								</samplecharacteristics>
							</video>
							<audio>
								<samplecharacteristics>
									<samplerate>48000</samplerate>
									<depth>24</depth>
								</samplecharacteristics>
								<channelcount>1</channelcount>
							</audio>
							<audio>
								<samplecharacteristics>
									<samplerate>48000</samplerate>
									<depth>24</depth>
								</samplecharacteristics>
								<channelcount>1</channelcount>
							</audio>
						</media>
					</file>
					<filter>
						<start>-1</start>
						<end>-1</end>
						<effect>
							<name>G Simple Curves -20 white curve</name>
							<effectcategory>Nattress Big Box of Tricks - Levels and Curves</effectcategory>
							<effecttype>filter</effecttype>
							<mediatype>video</mediatype>
							<parameter>
								<parameterid>colourspace</parameterid>
								<name>Colour Space</name>
								<valuemin>1</valuemin>
								<valuemax>2</valuemax>
								<valuelist>
									<valueentry>
										<name>RGB</name>
										<value>1</value>
									</valueentry>
									<valueentry>
										<name>Y'CbCr</name>
										<value>2</value>
									</valueentry>
								</valuelist>
								<value>2</value>
							</parameter>
							<parameter>
								<parameterid>showcurves</parameterid>
								<name>Show Curves</name>
								<value>FALSE</value>
							</parameter>
							<parameter>
								<parameterid>lvar</parameterid>
								<name>Levels Controls</name>
								<value>string</value>
							</parameter>
							<parameter>
								<parameterid>inw</parameterid>
								<name>White Level</name>
								<valuemin>0</valuemin>
								<valuemax>255</valuemax>
								<value>255</value>
							</parameter>
							<parameter>
								<parameterid>inb</parameterid>
								<name>Black Level</name>
								<valuemin>0</valuemin>
								<valuemax>255</valuemax>
								<value>0</value>
							</parameter>
							<parameter>
								<parameterid>outw</parameterid>
								<name>White Output</name>
								<valuemin>0</valuemin>
								<valuemax>255</valuemax>
								<value>255</value>
							</parameter>
							<parameter>
								<parameterid>outb</parameterid>
								<name>Black Output</name>
								<valuemin>0</valuemin>
								<valuemax>255</valuemax>
								<value>0</value>
							</parameter>
							<parameter>
								<parameterid>cvar</parameterid>
								<name>Curves Controls</name>
								<value>string</value>
							</parameter>
							<parameter>
								<parameterid>curvew</parameterid>
								<name>White Curve</name>
								<valuemin>-100</valuemin>
								<valuemax>100</valuemax>
								<value>-20</value>
							</parameter>
							<parameter>
								<parameterid>curveb</parameterid>
								<name>Black Curve</name>
								<valuemin>-100</valuemin>
								<valuemax>100</valuemax>
								<value>0</value>
							</parameter>
							<parameter>
								<parameterid>clipoutput</parameterid>
								<name>Clip Output Levels</name>
								<value>TRUE</value>
							</parameter>
							<parameter>
								<parameterid>copyright</parameterid>
								<name>© www.nattress.com</name>
								<value>string</value>
							</parameter>
						</effect>
					</filter>
					<sourcetrack>
						<mediatype>video</mediatype>
					</sourcetrack>
					<fielddominance>upper</fielddominance>
					<itemhistory>
						<uuid>954AEF9D-8E7B-438F-B196-FD8E2F59BC01</uuid>
					</itemhistory>
				</clipitem>
				<clipitem id="00705001.MOV2">
					<name>00705001.MOV</name>
					<duration>1632</duration>
					<rate>
						<ntsc>FALSE</ntsc>
						<timebase>25</timebase>
					</rate>
					<in>369</in>
					<out>462</out>
					<start>1830</start>
					<end>1923</end>
					<pixelaspectratio>Square</pixelaspectratio>
					<enabled>TRUE</enabled>
					<anamorphic>FALSE</anamorphic>
					<alphatype>none</alphatype>
					<masterclipid>00705001.MOV1</masterclipid>
					<logginginfo>
						<scene/>
						<shottake/>
						<lognote/>
						<good>FALSE</good>
					</logginginfo>
					<labels>
						<label2/>
					</labels>
					<comments>
						<mastercomment1/>
						<mastercomment2/>
						<mastercomment3/>
						<mastercomment4/>
					</comments>
					<file id="00705001 "/>
					<filter>
						<enabled>TRUE</enabled>
						<start>-1</start>
						<end>-1</end>
						<effect>
							<name>Color Corrector - Lua til Carina 3 bittelitt</name>
							<effectid>Color Corrector</effectid>
							<effectcategory>Color Correction</effectcategory>
							<effecttype>filter</effecttype>
							<mediatype>video</mediatype>
							<parameter>
								<parameterid>dispmode</parameterid>
								<name>Display Mode</name>
								<valuemin>1</valuemin>
								<valuemax>3</valuemax>
								<valuelist>
									<valueentry>
										<name>Final</name>
										<value>1</value>
									</valueentry>
									<valueentry>
										<name>Matte</name>
										<value>2</value>
									</valueentry>
									<valueentry>
										<name>Source</name>
										<value>3</value>
									</valueentry>
								</valuelist>
								<value>1</value>
							</parameter>
							<parameter>
								<parameterid>label1</parameterid>
								<name>Level Controls</name>
								<value/>
							</parameter>
							<parameter>
								<parameterid>highlights</parameterid>
								<name>Highlights</name>
								<valuemin>64</valuemin>
								<valuemax>509</valuemax>
								<value>247</value>
							</parameter>
							<parameter>
								<parameterid>mids</parameterid>
								<name>Mids</name>
								<valuemin>0</valuemin>
								<valuemax>200</valuemax>
								<value>100</value>
							</parameter>
							<parameter>
								<parameterid>blacklevel</parameterid>
								<name>Blacks</name>
								<valuemin>-196</valuemin>
								<valuemax>254</valuemax>
								<value>-3</value>
							</parameter>
							<parameter>
								<parameterid>label2</parameterid>
								<name>Color Balance</name>
								<value/>
							</parameter>
							<parameter>
								<parameterid>hue</parameterid>
								<name>Angle</name>
								<valuemin>-180</valuemin>
								<valuemax>180</valuemax>
								<value>-33</value>
							</parameter>
							<parameter>
								<parameterid>mag</parameterid>
								<name>Magnitude</name>
								<valuemin>0</valuemin>
								<valuemax>200</valuemax>
								<value>0</value>
							</parameter>
							<parameter>
								<parameterid>label4</parameterid>
								<name>Color Controls</name>
								<value/>
							</parameter>
							<parameter>
								<parameterid>chroma</parameterid>
								<name>Saturation</name>
								<valuemin>0</valuemin>
								<valuemax>200</valuemax>
								<value>94</value>
							</parameter>
							<parameter>
								<parameterid>phase</parameterid>
								<name>Phase shift</name>
								<valuemin>-180</valuemin>
								<valuemax>180</valuemax>
								<value>0</value>
							</parameter>
							<parameter>
								<parameterid>label5</parameterid>
								<name>Limit Effect Controls</name>
								<value/>
							</parameter>
							<parameter>
								<parameterid>dochroma</parameterid>
								<name>Limit on Chroma</name>
								<value>TRUE</value>
							</parameter>
							<parameter>
								<parameterid>centerang</parameterid>
								<name>Chroma Center</name>
								<valuemin>-760</valuemin>
								<valuemax>760</valuemax>
								<value>322.256</value>
							</parameter>
							<parameter>
								<parameterid>chromawidth</parameterid>
								<name>Chroma Width</name>
								<valuemin>0</valuemin>
								<valuemax>360</valuemax>
								<value>8.11959</value>
							</parameter>
							<parameter>
								<parameterid>chromasoft</parameterid>
								<name>Chroma Softness</name>
								<valuemin>0</valuemin>
								<valuemax>180</valuemax>
								<value>26.8371</value>
							</parameter>
							<parameter>
								<parameterid>dosat</parameterid>
								<name>Limit on Saturation</name>
								<value>TRUE</value>
							</parameter>
							<parameter>
								<parameterid>satmin</parameterid>
								<name>Sat. Minimum</name>
								<valuemin>0</valuemin>
								<valuemax>125</valuemax>
								<value>36.7837</value>
							</parameter>
							<parameter>
								<parameterid>satwidth</parameterid>
								<name>Sat. Width</name>
								<valuemin>0</valuemin>
								<valuemax>125</valuemax>
								<value>84.0889</value>
							</parameter>
							<parameter>
								<parameterid>satsoft</parameterid>
								<name>Sat. Softness</name>
								<valuemin>0</valuemin>
								<valuemax>125</valuemax>
								<value>5</value>
							</parameter>
							<parameter>
								<parameterid>doluma</parameterid>
								<name>Limit on Luma</name>
								<value>TRUE</value>
							</parameter>
							<parameter>
								<parameterid>lumamin</parameterid>
								<name>Luma Minimum</name>
								<valuemin>0</valuemin>
								<valuemax>120</valuemax>
								<value>0.939667</value>
							</parameter>
							<parameter>
								<parameterid>lumawidth</parameterid>
								<name>Luma Width</name>
								<valuemin>0</valuemin>
								<valuemax>120</valuemax>
								<value>115.45</value>
							</parameter>
							<parameter>
								<parameterid>lumasoft</parameterid>
								<name>Luma Softness</name>
								<valuemin>0</valuemin>
								<valuemax>120</valuemax>
								<value>15.1099</value>
							</parameter>
							<parameter>
								<parameterid>label6</parameterid>
								<name>Edge Control</name>
								<value/>
							</parameter>
							<parameter>
								<parameterid>edgethin</parameterid>
								<name>Thin/Spread</name>
								<valuemin>-100</valuemin>
								<valuemax>100</valuemax>
								<value>0</value>
							</parameter>
							<parameter>
								<parameterid>edgefeather</parameterid>
								<name>Softening</name>
								<valuemin>0</valuemin>
								<valuemax>100</valuemax>
								<value>6</value>
							</parameter>
							<parameter>
								<parameterid>label7</parameterid>
								<name>Mask Control</name>
								<value/>
							</parameter>
							<parameter>
								<parameterid>invertsel</parameterid>
								<name>Invert</name>
								<value>FALSE</value>
							</parameter>
							<parameter>
								<parameterid>debugshow</parameterid>
								<name>Show Stats</name>
								<value>FALSE</value>
							</parameter>
						</effect>
					</filter>
					<filter>
						<enabled>TRUE</enabled>
						<start>-1</start>
						<end>-1</end>
						<effect>
							<name>G Simple Curves -20 white curve</name>
							<effectcategory>Nattress Big Box of Tricks - Levels and Curves</effectcategory>
							<effecttype>filter</effecttype>
							<mediatype>video</mediatype>
							<parameter>
								<parameterid>colourspace</parameterid>
								<name>Colour Space</name>
								<valuemin>1</valuemin>
								<valuemax>2</valuemax>
								<valuelist>
									<valueentry>
										<name>RGB</name>
										<value>1</value>
									</valueentry>
									<valueentry>
										<name>Y'CbCr</name>
										<value>2</value>
									</valueentry>
								</valuelist>
								<value>2</value>
							</parameter>
							<parameter>
								<parameterid>showcurves</parameterid>
								<name>Show Curves</name>
								<value>FALSE</value>
							</parameter>
							<parameter>
								<parameterid>lvar</parameterid>
								<name>Levels Controls</name>
								<value>string</value>
							</parameter>
							<parameter>
								<parameterid>inw</parameterid>
								<name>White Level</name>
								<valuemin>0</valuemin>
								<valuemax>255</valuemax>
								<value>255</value>
							</parameter>
							<parameter>
								<parameterid>inb</parameterid>
								<name>Black Level</name>
								<valuemin>0</valuemin>
								<valuemax>255</valuemax>
								<value>5</value>
							</parameter>
							<parameter>
								<parameterid>outw</parameterid>
								<name>White Output</name>
								<valuemin>0</valuemin>
								<valuemax>255</valuemax>
								<value>255</value>
							</parameter>
							<parameter>
								<parameterid>outb</parameterid>
								<name>Black Output</name>
								<valuemin>0</valuemin>
								<valuemax>255</valuemax>
								<value>0</value>
							</parameter>
							<parameter>
								<parameterid>cvar</parameterid>
								<name>Curves Controls</name>
								<value>string</value>
							</parameter>
							<parameter>
								<parameterid>curvew</parameterid>
								<name>White Curve</name>
								<valuemin>-100</valuemin>
								<valuemax>100</valuemax>
								<value>-5</value>
							</parameter>
							<parameter>
								<parameterid>curveb</parameterid>
								<name>Black Curve</name>
								<valuemin>-100</valuemin>
								<valuemax>100</valuemax>
								<value>0</value>
							</parameter>
							<parameter>
								<parameterid>clipoutput</parameterid>
								<name>Clip Output Levels</name>
								<value>TRUE</value>
							</parameter>
							<parameter>
								<parameterid>copyright</parameterid>
								<name>© www.nattress.com</name>
								<value>string</value>
							</parameter>
						</effect>
					</filter>
					<sourcetrack>
						<mediatype>video</mediatype>
					</sourcetrack>
					<link>
						<linkclipref>00705001.MOV2</linkclipref>
						<mediatype>video</mediatype>
						<trackindex>1</trackindex>
						<clipindex>18</clipindex>
					</link>
					<link>
						<linkclipref>00705001.MOV3</linkclipref>
						<mediatype>audio</mediatype>
						<trackindex>1</trackindex>
						<clipindex>10</clipindex>
					</link>
					<link>
						<linkclipref>00705001.MOV4</linkclipref>
						<mediatype>audio</mediatype>
						<trackindex>2</trackindex>
						<clipindex>10</clipindex>
					</link>
					<fielddominance>upper</fielddominance>
					<itemhistory>
						<uuid>D8DF9650-5CF0-40C8-BD1B-0CABBD89E936</uuid>
					</itemhistory>
				</clipitem>
				<clipitem id="00700001.MOV4">
					<name>00700001.MOV</name>
					<duration>1404</duration>
					<rate>
						<ntsc>FALSE</ntsc>
						<timebase>25</timebase>
					</rate>
					<in>408</in>
					<out>710</out>
					<start>1923</start>
					<end>2225</end>
					<pixelaspectratio>Square</pixelaspectratio>
					<enabled>TRUE</enabled>
					<anamorphic>FALSE</anamorphic>
					<alphatype>none</alphatype>
					<masterclipid>00700001.MOV1</masterclipid>
					<logginginfo>
						<scene/>
						<shottake/>
						<lognote/>
						<good>FALSE</good>
					</logginginfo>
					<labels>
						<label2/>
					</labels>
					<comments>
						<mastercomment1/>
						<mastercomment2/>
						<mastercomment3/>
						<mastercomment4/>
					</comments>
					<file id="00700001 "/>
					<filter>
						<enabled>TRUE</enabled>
						<start>-1</start>
						<end>-1</end>
						<effect>
							<name>G Simple Curves -20 white curve</name>
							<effectcategory>Nattress Big Box of Tricks - Levels and Curves</effectcategory>
							<effecttype>filter</effecttype>
							<mediatype>video</mediatype>
							<parameter>
								<parameterid>colourspace</parameterid>
								<name>Colour Space</name>
								<valuemin>1</valuemin>
								<valuemax>2</valuemax>
								<valuelist>
									<valueentry>
										<name>RGB</name>
										<value>1</value>
									</valueentry>
									<valueentry>
										<name>Y'CbCr</name>
										<value>2</value>
									</valueentry>
								</valuelist>
								<value>2</value>
							</parameter>
							<parameter>
								<parameterid>showcurves</parameterid>
								<name>Show Curves</name>
								<value>FALSE</value>
							</parameter>
							<parameter>
								<parameterid>lvar</parameterid>
								<name>Levels Controls</name>
								<value>string</value>
							</parameter>
							<parameter>
								<parameterid>inw</parameterid>
								<name>White Level</name>
								<valuemin>0</valuemin>
								<valuemax>255</valuemax>
								<value>255</value>
							</parameter>
							<parameter>
								<parameterid>inb</parameterid>
								<name>Black Level</name>
								<valuemin>0</valuemin>
								<valuemax>255</valuemax>
								<value>0</value>
							</parameter>
							<parameter>
								<parameterid>outw</parameterid>
								<name>White Output</name>
								<valuemin>0</valuemin>
								<valuemax>255</valuemax>
								<value>255</value>
							</parameter>
							<parameter>
								<parameterid>outb</parameterid>
								<name>Black Output</name>
								<valuemin>0</valuemin>
								<valuemax>255</valuemax>
								<value>0</value>
							</parameter>
							<parameter>
								<parameterid>cvar</parameterid>
								<name>Curves Controls</name>
								<value>string</value>
							</parameter>
							<parameter>
								<parameterid>curvew</parameterid>
								<name>White Curve</name>
								<valuemin>-100</valuemin>
								<valuemax>100</valuemax>
								<value>-10</value>
							</parameter>
							<parameter>
								<parameterid>curveb</parameterid>
								<name>Black Curve</name>
								<valuemin>-100</valuemin>
								<valuemax>100</valuemax>
								<value>0</value>
							</parameter>
							<parameter>
								<parameterid>clipoutput</parameterid>
								<name>Clip Output Levels</name>
								<value>TRUE</value>
							</parameter>
							<parameter>
								<parameterid>copyright</parameterid>
								<name>© www.nattress.com</name>
								<value>string</value>
							</parameter>
						</effect>
					</filter>
					<filter>
						<enabled>TRUE</enabled>
						<start>-1</start>
						<end>-1</end>
						<effect>
							<name>Color Corrector - Lua til Carina</name>
							<effectid>Color Corrector</effectid>
							<effectcategory>Color Correction</effectcategory>
							<effecttype>filter</effecttype>
							<mediatype>video</mediatype>
							<parameter>
								<parameterid>dispmode</parameterid>
								<name>Display Mode</name>
								<valuemin>1</valuemin>
								<valuemax>3</valuemax>
								<valuelist>
									<valueentry>
										<name>Final</name>
										<value>1</value>
									</valueentry>
									<valueentry>
										<name>Matte</name>
										<value>2</value>
									</valueentry>
									<valueentry>
										<name>Source</name>
										<value>3</value>
									</valueentry>
								</valuelist>
								<value>1</value>
							</parameter>
							<parameter>
								<parameterid>label1</parameterid>
								<name>Level Controls</name>
								<value/>
							</parameter>
							<parameter>
								<parameterid>highlights</parameterid>
								<name>Highlights</name>
								<valuemin>64</valuemin>
								<valuemax>509</valuemax>
								<value>247</value>
							</parameter>
							<parameter>
								<parameterid>mids</parameterid>
								<name>Mids</name>
								<valuemin>0</valuemin>
								<valuemax>200</valuemax>
								<value>100</value>
							</parameter>
							<parameter>
								<parameterid>blacklevel</parameterid>
								<name>Blacks</name>
								<valuemin>-196</valuemin>
								<valuemax>254</valuemax>
								<value>-3</value>
							</parameter>
							<parameter>
								<parameterid>label2</parameterid>
								<name>Color Balance</name>
								<value/>
							</parameter>
							<parameter>
								<parameterid>hue</parameterid>
								<name>Angle</name>
								<valuemin>-180</valuemin>
								<valuemax>180</valuemax>
								<value>-33</value>
							</parameter>
							<parameter>
								<parameterid>mag</parameterid>
								<name>Magnitude</name>
								<valuemin>0</valuemin>
								<valuemax>200</valuemax>
								<value>0</value>
							</parameter>
							<parameter>
								<parameterid>label4</parameterid>
								<name>Color Controls</name>
								<value/>
							</parameter>
							<parameter>
								<parameterid>chroma</parameterid>
								<name>Saturation</name>
								<valuemin>0</valuemin>
								<valuemax>200</valuemax>
								<value>84</value>
							</parameter>
							<parameter>
								<parameterid>phase</parameterid>
								<name>Phase shift</name>
								<valuemin>-180</valuemin>
								<valuemax>180</valuemax>
								<value>0</value>
							</parameter>
							<parameter>
								<parameterid>label5</parameterid>
								<name>Limit Effect Controls</name>
								<value/>
							</parameter>
							<parameter>
								<parameterid>dochroma</parameterid>
								<name>Limit on Chroma</name>
								<value>TRUE</value>
							</parameter>
							<parameter>
								<parameterid>centerang</parameterid>
								<name>Chroma Center</name>
								<valuemin>-760</valuemin>
								<valuemax>760</valuemax>
								<value>322.256</value>
							</parameter>
							<parameter>
								<parameterid>chromawidth</parameterid>
								<name>Chroma Width</name>
								<valuemin>0</valuemin>
								<valuemax>360</valuemax>
								<value>7.49567</value>
							</parameter>
							<parameter>
								<parameterid>chromasoft</parameterid>
								<name>Chroma Softness</name>
								<valuemin>0</valuemin>
								<valuemax>180</valuemax>
								<value>10.6152</value>
							</parameter>
							<parameter>
								<parameterid>dosat</parameterid>
								<name>Limit on Saturation</name>
								<value>TRUE</value>
							</parameter>
							<parameter>
								<parameterid>satmin</parameterid>
								<name>Sat. Minimum</name>
								<valuemin>0</valuemin>
								<valuemax>125</valuemax>
								<value>36.7837</value>
							</parameter>
							<parameter>
								<parameterid>satwidth</parameterid>
								<name>Sat. Width</name>
								<valuemin>0</valuemin>
								<valuemax>125</valuemax>
								<value>84.0889</value>
							</parameter>
							<parameter>
								<parameterid>satsoft</parameterid>
								<name>Sat. Softness</name>
								<valuemin>0</valuemin>
								<valuemax>125</valuemax>
								<value>5</value>
							</parameter>
							<parameter>
								<parameterid>doluma</parameterid>
								<name>Limit on Luma</name>
								<value>TRUE</value>
							</parameter>
							<parameter>
								<parameterid>lumamin</parameterid>
								<name>Luma Minimum</name>
								<valuemin>0</valuemin>
								<valuemax>120</valuemax>
								<value>0.939667</value>
							</parameter>
							<parameter>
								<parameterid>lumawidth</parameterid>
								<name>Luma Width</name>
								<valuemin>0</valuemin>
								<valuemax>120</valuemax>
								<value>115.45</value>
							</parameter>
							<parameter>
								<parameterid>lumasoft</parameterid>
								<name>Luma Softness</name>
								<valuemin>0</valuemin>
								<valuemax>120</valuemax>
								<value>15.1099</value>
							</parameter>
							<parameter>
								<parameterid>label6</parameterid>
								<name>Edge Control</name>
								<value/>
							</parameter>
							<parameter>
								<parameterid>edgethin</parameterid>
								<name>Thin/Spread</name>
								<valuemin>-100</valuemin>
								<valuemax>100</valuemax>
								<value>0</value>
							</parameter>
							<parameter>
								<parameterid>edgefeather</parameterid>
								<name>Softening</name>
								<valuemin>0</valuemin>
								<valuemax>100</valuemax>
								<value>0</value>
							</parameter>
							<parameter>
								<parameterid>label7</parameterid>
								<name>Mask Control</name>
								<value/>
							</parameter>
							<parameter>
								<parameterid>invertsel</parameterid>
								<name>Invert</name>
								<value>FALSE</value>
							</parameter>
							<parameter>
								<parameterid>debugshow</parameterid>
								<name>Show Stats</name>
								<value>FALSE</value>
							</parameter>
						</effect>
					</filter>
					<sourcetrack>
						<mediatype>video</mediatype>
					</sourcetrack>
					<link>
						<linkclipref>00700001.MOV4</linkclipref>
						<mediatype>video</mediatype>
						<trackindex>1</trackindex>
						<clipindex>19</clipindex>
					</link>
					<link>
						<linkclipref>00700001.MOV5</linkclipref>
						<mediatype>audio</mediatype>
						<trackindex>1</trackindex>
						<clipindex>11</clipindex>
					</link>
					<link>
						<linkclipref>00700001.MOV6</linkclipref>
						<mediatype>audio</mediatype>
						<trackindex>2</trackindex>
						<clipindex>11</clipindex>
					</link>
					<fielddominance>upper</fielddominance>
					<itemhistory>
						<uuid>45441A22-89F2-49FA-9A06-D6B225E38AA5</uuid>
					</itemhistory>
				</clipitem>
				<clipitem id="00700001.MOV7">
					<name>00700001.MOV</name>
					<duration>1404</duration>
					<rate>
						<ntsc>FALSE</ntsc>
						<timebase>25</timebase>
					</rate>
					<in>789</in>
					<out>920</out>
					<start>2278</start>
					<end>2409</end>
					<pixelaspectratio>Square</pixelaspectratio>
					<enabled>TRUE</enabled>
					<anamorphic>FALSE</anamorphic>
					<alphatype>none</alphatype>
					<masterclipid>00700001.MOV1</masterclipid>
					<logginginfo>
						<scene/>
						<shottake/>
						<lognote/>
						<good>FALSE</good>
					</logginginfo>
					<labels>
						<label2/>
					</labels>
					<comments>
						<mastercomment1/>
						<mastercomment2/>
						<mastercomment3/>
						<mastercomment4/>
					</comments>
					<file id="00700001 "/>
					<sourcetrack>
						<mediatype>video</mediatype>
					</sourcetrack>
					<link>
						<linkclipref>00700001.MOV7</linkclipref>
						<mediatype>video</mediatype>
						<trackindex>1</trackindex>
						<clipindex>20</clipindex>
					</link>
					<link>
						<linkclipref>00700001.MOV8</linkclipref>
						<mediatype>audio</mediatype>
						<trackindex>1</trackindex>
						<clipindex>13</clipindex>
					</link>
					<link>
						<linkclipref>00700001.MOV9</linkclipref>
						<mediatype>audio</mediatype>
						<trackindex>2</trackindex>
						<clipindex>13</clipindex>
					</link>
					<fielddominance>upper</fielddominance>
					<itemhistory>
						<uuid>063B6292-4718-4B5C-960B-5F1B60907926</uuid>
					</itemhistory>
				</clipitem>
				<clipitem id="00706001.MOV">
					<name>00706001.MOV</name>
					<duration>1332</duration>
					<rate>
						<ntsc>FALSE</ntsc>
						<timebase>25</timebase>
					</rate>
					<in>799</in>
					<out>923</out>
					<start>2409</start>
					<end>2533</end>
					<pixelaspectratio>Square</pixelaspectratio>
					<enabled>TRUE</enabled>
					<anamorphic>FALSE</anamorphic>
					<alphatype>none</alphatype>
					<masterclipid>00706001.MOV1</masterclipid>
					<logginginfo>
						<scene/>
						<shottake/>
						<lognote/>
						<good>FALSE</good>
					</logginginfo>
					<labels>
						<label2/>
					</labels>
					<comments>
						<mastercomment1/>
						<mastercomment2/>
						<mastercomment3/>
						<mastercomment4/>
					</comments>
					<file id="00706001 ">
						<name>00706001.MOV</name>
						<pathurl>file://localhost/Volumes/Askepott/Prosjekter/DNPR637010_Kra%CC%8Akeklubben_TEM_011212/Video/MELLOMSTIKK/S01E05%20Dyrebolig/00706001.MOV</pathurl>
						<rate>
							<timebase>25</timebase>
						</rate>
						<duration>1332</duration>
						<timecode>
							<rate>
								<timebase>25</timebase>
							</rate>
							<string>17:38:29:11</string>
							<frame>1587736</frame>
							<displayformat>NDF</displayformat>
							<source>source</source>
							<reel>
								<name>Flash XDR</name>
							</reel>
						</timecode>
						<media>
							<video>
								<duration>1332</duration>
								<samplecharacteristics>
									<width>1920</width>
									<height>1080</height>
								</samplecharacteristics>
							</video>
							<audio>
								<samplecharacteristics>
									<samplerate>48000</samplerate>
									<depth>24</depth>
								</samplecharacteristics>
								<channelcount>1</channelcount>
							</audio>
							<audio>
								<samplecharacteristics>
									<samplerate>48000</samplerate>
									<depth>24</depth>
								</samplecharacteristics>
								<channelcount>1</channelcount>
							</audio>
						</media>
					</file>
					<filter>
						<start>-1</start>
						<end>-1</end>
						<effect>
							<name>Color Corrector - Lua til Carina 3 bittelitt</name>
							<effectid>Color Corrector</effectid>
							<effectcategory>Color Correction</effectcategory>
							<effecttype>filter</effecttype>
							<mediatype>video</mediatype>
							<parameter>
								<parameterid>dispmode</parameterid>
								<name>Display Mode</name>
								<valuemin>1</valuemin>
								<valuemax>3</valuemax>
								<valuelist>
									<valueentry>
										<name>Final</name>
										<value>1</value>
									</valueentry>
									<valueentry>
										<name>Matte</name>
										<value>2</value>
									</valueentry>
									<valueentry>
										<name>Source</name>
										<value>3</value>
									</valueentry>
								</valuelist>
								<value>1</value>
							</parameter>
							<parameter>
								<parameterid>label1</parameterid>
								<name>Level Controls</name>
								<value/>
							</parameter>
							<parameter>
								<parameterid>highlights</parameterid>
								<name>Highlights</name>
								<valuemin>64</valuemin>
								<valuemax>509</valuemax>
								<value>247</value>
							</parameter>
							<parameter>
								<parameterid>mids</parameterid>
								<name>Mids</name>
								<valuemin>0</valuemin>
								<valuemax>200</valuemax>
								<value>100</value>
							</parameter>
							<parameter>
								<parameterid>blacklevel</parameterid>
								<name>Blacks</name>
								<valuemin>-196</valuemin>
								<valuemax>254</valuemax>
								<value>-3</value>
							</parameter>
							<parameter>
								<parameterid>label2</parameterid>
								<name>Color Balance</name>
								<value/>
							</parameter>
							<parameter>
								<parameterid>hue</parameterid>
								<name>Angle</name>
								<valuemin>-180</valuemin>
								<valuemax>180</valuemax>
								<value>-33</value>
							</parameter>
							<parameter>
								<parameterid>mag</parameterid>
								<name>Magnitude</name>
								<valuemin>0</valuemin>
								<valuemax>200</valuemax>
								<value>0</value>
							</parameter>
							<parameter>
								<parameterid>label4</parameterid>
								<name>Color Controls</name>
								<value/>
							</parameter>
							<parameter>
								<parameterid>chroma</parameterid>
								<name>Saturation</name>
								<valuemin>0</valuemin>
								<valuemax>200</valuemax>
								<value>94</value>
							</parameter>
							<parameter>
								<parameterid>phase</parameterid>
								<name>Phase shift</name>
								<valuemin>-180</valuemin>
								<valuemax>180</valuemax>
								<value>0</value>
							</parameter>
							<parameter>
								<parameterid>label5</parameterid>
								<name>Limit Effect Controls</name>
								<value/>
							</parameter>
							<parameter>
								<parameterid>dochroma</parameterid>
								<name>Limit on Chroma</name>
								<value>TRUE</value>
							</parameter>
							<parameter>
								<parameterid>centerang</parameterid>
								<name>Chroma Center</name>
								<valuemin>-760</valuemin>
								<valuemax>760</valuemax>
								<value>322.256</value>
							</parameter>
							<parameter>
								<parameterid>chromawidth</parameterid>
								<name>Chroma Width</name>
								<valuemin>0</valuemin>
								<valuemax>360</valuemax>
								<value>8.11959</value>
							</parameter>
							<parameter>
								<parameterid>chromasoft</parameterid>
								<name>Chroma Softness</name>
								<valuemin>0</valuemin>
								<valuemax>180</valuemax>
								<value>26.8371</value>
							</parameter>
							<parameter>
								<parameterid>dosat</parameterid>
								<name>Limit on Saturation</name>
								<value>TRUE</value>
							</parameter>
							<parameter>
								<parameterid>satmin</parameterid>
								<name>Sat. Minimum</name>
								<valuemin>0</valuemin>
								<valuemax>125</valuemax>
								<value>36.7837</value>
							</parameter>
							<parameter>
								<parameterid>satwidth</parameterid>
								<name>Sat. Width</name>
								<valuemin>0</valuemin>
								<valuemax>125</valuemax>
								<value>84.0889</value>
							</parameter>
							<parameter>
								<parameterid>satsoft</parameterid>
								<name>Sat. Softness</name>
								<valuemin>0</valuemin>
								<valuemax>125</valuemax>
								<value>5</value>
							</parameter>
							<parameter>
								<parameterid>doluma</parameterid>
								<name>Limit on Luma</name>
								<value>TRUE</value>
							</parameter>
							<parameter>
								<parameterid>lumamin</parameterid>
								<name>Luma Minimum</name>
								<valuemin>0</valuemin>
								<valuemax>120</valuemax>
								<value>0.939667</value>
							</parameter>
							<parameter>
								<parameterid>lumawidth</parameterid>
								<name>Luma Width</name>
								<valuemin>0</valuemin>
								<valuemax>120</valuemax>
								<value>115.45</value>
							</parameter>
							<parameter>
								<parameterid>lumasoft</parameterid>
								<name>Luma Softness</name>
								<valuemin>0</valuemin>
								<valuemax>120</valuemax>
								<value>15.1099</value>
							</parameter>
							<parameter>
								<parameterid>label6</parameterid>
								<name>Edge Control</name>
								<value/>
							</parameter>
							<parameter>
								<parameterid>edgethin</parameterid>
								<name>Thin/Spread</name>
								<valuemin>-100</valuemin>
								<valuemax>100</valuemax>
								<value>0</value>
							</parameter>
							<parameter>
								<parameterid>edgefeather</parameterid>
								<name>Softening</name>
								<valuemin>0</valuemin>
								<valuemax>100</valuemax>
								<value>6</value>
							</parameter>
							<parameter>
								<parameterid>label7</parameterid>
								<name>Mask Control</name>
								<value/>
							</parameter>
							<parameter>
								<parameterid>invertsel</parameterid>
								<name>Invert</name>
								<value>FALSE</value>
							</parameter>
							<parameter>
								<parameterid>debugshow</parameterid>
								<name>Show Stats</name>
								<value>FALSE</value>
							</parameter>
						</effect>
					</filter>
					<sourcetrack>
						<mediatype>video</mediatype>
					</sourcetrack>
					<link>
						<linkclipref>00706001.MOV</linkclipref>
						<mediatype>video</mediatype>
						<trackindex>1</trackindex>
						<clipindex>21</clipindex>
					</link>
					<link>
						<linkclipref>00706001.MOV2</linkclipref>
						<mediatype>audio</mediatype>
						<trackindex>1</trackindex>
						<clipindex>15</clipindex>
					</link>
					<link>
						<linkclipref>00706001.MOV3</linkclipref>
						<mediatype>audio</mediatype>
						<trackindex>2</trackindex>
						<clipindex>15</clipindex>
					</link>
					<fielddominance>upper</fielddominance>
					<itemhistory>
						<uuid>EDC389DE-C74E-4E90-8CF4-CB764CFB8025</uuid>
					</itemhistory>
				</clipitem>
				<clipitem id="00702001.MOV">
					<name>00702001.MOV</name>
					<duration>1668</duration>
					<rate>
						<ntsc>FALSE</ntsc>
						<timebase>25</timebase>
					</rate>
					<in>1160</in>
					<out>1359</out>
					<start>2533</start>
					<end>2732</end>
					<pixelaspectratio>Square</pixelaspectratio>
					<enabled>TRUE</enabled>
					<anamorphic>FALSE</anamorphic>
					<alphatype>none</alphatype>
					<masterclipid>00702001.MOV1</masterclipid>
					<logginginfo>
						<scene/>
						<shottake/>
						<lognote/>
						<good>FALSE</good>
					</logginginfo>
					<labels>
						<label2/>
					</labels>
					<comments>
						<mastercomment1/>
						<mastercomment2/>
						<mastercomment3/>
						<mastercomment4/>
					</comments>
					<file id="00702001 ">
						<name>00702001.MOV</name>
						<pathurl>file://localhost/Volumes/Askepott/Prosjekter/DNPR637010_Kra%CC%8Akeklubben_TEM_011212/Video/MELLOMSTIKK/S01E05%20Dyrebolig/00702001.MOV</pathurl>
						<rate>
							<timebase>25</timebase>
						</rate>
						<duration>1668</duration>
						<timecode>
							<rate>
								<timebase>25</timebase>
							</rate>
							<string>17:35:32:08</string>
							<frame>1583308</frame>
							<displayformat>NDF</displayformat>
							<source>source</source>
							<reel>
								<name>Flash XDR</name>
							</reel>
						</timecode>
						<media>
							<video>
								<duration>1668</duration>
								<samplecharacteristics>
									<width>1920</width>
									<height>1080</height>
								</samplecharacteristics>
							</video>
							<audio>
								<samplecharacteristics>
									<samplerate>48000</samplerate>
									<depth>24</depth>
								</samplecharacteristics>
								<channelcount>1</channelcount>
							</audio>
							<audio>
								<samplecharacteristics>
									<samplerate>48000</samplerate>
									<depth>24</depth>
								</samplecharacteristics>
								<channelcount>1</channelcount>
							</audio>
						</media>
					</file>
					<filter>
						<enabled>TRUE</enabled>
						<start>-1</start>
						<end>-1</end>
						<effect>
							<name>G Simple Curves -20 white curve</name>
							<effectcategory>Nattress Big Box of Tricks - Levels and Curves</effectcategory>
							<effecttype>filter</effecttype>
							<mediatype>video</mediatype>
							<parameter>
								<parameterid>colourspace</parameterid>
								<name>Colour Space</name>
								<valuemin>1</valuemin>
								<valuemax>2</valuemax>
								<valuelist>
									<valueentry>
										<name>RGB</name>
										<value>1</value>
									</valueentry>
									<valueentry>
										<name>Y'CbCr</name>
										<value>2</value>
									</valueentry>
								</valuelist>
								<value>2</value>
							</parameter>
							<parameter>
								<parameterid>showcurves</parameterid>
								<name>Show Curves</name>
								<value>FALSE</value>
							</parameter>
							<parameter>
								<parameterid>lvar</parameterid>
								<name>Levels Controls</name>
								<value>string</value>
							</parameter>
							<parameter>
								<parameterid>inw</parameterid>
								<name>White Level</name>
								<valuemin>0</valuemin>
								<valuemax>255</valuemax>
								<value>255</value>
							</parameter>
							<parameter>
								<parameterid>inb</parameterid>
								<name>Black Level</name>
								<valuemin>0</valuemin>
								<valuemax>255</valuemax>
								<value>0</value>
							</parameter>
							<parameter>
								<parameterid>outw</parameterid>
								<name>White Output</name>
								<valuemin>0</valuemin>
								<valuemax>255</valuemax>
								<value>255</value>
							</parameter>
							<parameter>
								<parameterid>outb</parameterid>
								<name>Black Output</name>
								<valuemin>0</valuemin>
								<valuemax>255</valuemax>
								<value>0</value>
							</parameter>
							<parameter>
								<parameterid>cvar</parameterid>
								<name>Curves Controls</name>
								<value>string</value>
							</parameter>
							<parameter>
								<parameterid>curvew</parameterid>
								<name>White Curve</name>
								<valuemin>-100</valuemin>
								<valuemax>100</valuemax>
								<value>-10</value>
							</parameter>
							<parameter>
								<parameterid>curveb</parameterid>
								<name>Black Curve</name>
								<valuemin>-100</valuemin>
								<valuemax>100</valuemax>
								<value>0</value>
							</parameter>
							<parameter>
								<parameterid>clipoutput</parameterid>
								<name>Clip Output Levels</name>
								<value>TRUE</value>
							</parameter>
							<parameter>
								<parameterid>copyright</parameterid>
								<name>© www.nattress.com</name>
								<value>string</value>
							</parameter>
						</effect>
					</filter>
					<sourcetrack>
						<mediatype>video</mediatype>
					</sourcetrack>
					<link>
						<linkclipref>00702001.MOV</linkclipref>
						<mediatype>video</mediatype>
						<trackindex>1</trackindex>
						<clipindex>22</clipindex>
					</link>
					<link>
						<linkclipref>00702001.MOV2</linkclipref>
						<mediatype>audio</mediatype>
						<trackindex>1</trackindex>
						<clipindex>16</clipindex>
					</link>
					<link>
						<linkclipref>00702001.MOV3</linkclipref>
						<mediatype>audio</mediatype>
						<trackindex>2</trackindex>
						<clipindex>16</clipindex>
					</link>
					<fielddominance>upper</fielddominance>
					<itemhistory>
						<uuid>46E3092D-2203-41E7-B6C0-4A0CF7B74B6D</uuid>
					</itemhistory>
				</clipitem>
				<clipitem id="00696001.MOV4">
					<name>00696001.MOV</name>
					<duration>1728</duration>
					<rate>
						<ntsc>FALSE</ntsc>
						<timebase>25</timebase>
					</rate>
					<in>1440</in>
					<out>1551</out>
					<start>2732</start>
					<end>2843</end>
					<pixelaspectratio>Square</pixelaspectratio>
					<enabled>TRUE</enabled>
					<anamorphic>FALSE</anamorphic>
					<alphatype>none</alphatype>
					<masterclipid>00696001.MOV1</masterclipid>
					<logginginfo>
						<scene/>
						<shottake/>
						<lognote/>
						<good>FALSE</good>
					</logginginfo>
					<labels>
						<label2/>
					</labels>
					<comments>
						<mastercomment1/>
						<mastercomment2/>
						<mastercomment3/>
						<mastercomment4/>
					</comments>
					<file id="00696001 "/>
					<filter>
						<enabled>TRUE</enabled>
						<start>-1</start>
						<end>-1</end>
						<effect>
							<name>Color Corrector 3-way</name>
							<effectid>Color Corrector 3-way</effectid>
							<effectcategory>Color Correction</effectcategory>
							<effecttype>filter</effecttype>
							<mediatype>video</mediatype>
							<parameter>
								<parameterid>dispmode</parameterid>
								<name>Display Mode</name>
								<valuemin>1</valuemin>
								<valuemax>3</valuemax>
								<valuelist>
									<valueentry>
										<name>Final</name>
										<value>1</value>
									</valueentry>
									<valueentry>
										<name>Matte</name>
										<value>2</value>
									</valueentry>
									<valueentry>
										<name>Source</name>
										<value>3</value>
									</valueentry>
								</valuelist>
								<value>1</value>
							</parameter>
							<parameter>
								<parameterid>label1</parameterid>
								<name>Blacks Controls</name>
								<value/>
							</parameter>
							<parameter>
								<parameterid>blacklevel</parameterid>
								<name>Level</name>
								<valuemin>-196</valuemin>
								<valuemax>254</valuemax>
								<value>0</value>
							</parameter>
							<parameter>
								<parameterid>b_hue</parameterid>
								<name>Angle</name>
								<valuemin>-180</valuemin>
								<valuemax>180</valuemax>
								<value>-33</value>
							</parameter>
							<parameter>
								<parameterid>b_mag</parameterid>
								<name>Magnitude</name>
								<valuemin>0</valuemin>
								<valuemax>200</valuemax>
								<value>0</value>
							</parameter>
							<parameter>
								<parameterid>label2</parameterid>
								<name>Midrange Controls</name>
								<value/>
							</parameter>
							<parameter>
								<parameterid>mids</parameterid>
								<name>Level</name>
								<valuemin>0</valuemin>
								<valuemax>200</valuemax>
								<value>91</value>
							</parameter>
							<parameter>
								<parameterid>m_hue</parameterid>
								<name>Angle</name>
								<valuemin>-180</valuemin>
								<valuemax>180</valuemax>
								<value>-33</value>
							</parameter>
							<parameter>
								<parameterid>m_mag</parameterid>
								<name>Magnitude</name>
								<valuemin>0</valuemin>
								<valuemax>200</valuemax>
								<value>0</value>
							</parameter>
							<parameter>
								<parameterid>label3</parameterid>
								<name>Highlight Controls</name>
								<value/>
							</parameter>
							<parameter>
								<parameterid>highlights</parameterid>
								<name>Level</name>
								<valuemin>64</valuemin>
								<valuemax>509</valuemax>
								<value>255</value>
							</parameter>
							<parameter>
								<parameterid>h_hue</parameterid>
								<name>Angle</name>
								<valuemin>-180</valuemin>
								<valuemax>180</valuemax>
								<value>-33</value>
							</parameter>
							<parameter>
								<parameterid>h_mag</parameterid>
								<name>Magnitude</name>
								<valuemin>0</valuemin>
								<valuemax>200</valuemax>
								<value>0</value>
							</parameter>
							<parameter>
								<parameterid>label4</parameterid>
								<name>Color Controls</name>
								<value/>
							</parameter>
							<parameter>
								<parameterid>chroma</parameterid>
								<name>Saturation</name>
								<valuemin>0</valuemin>
								<valuemax>200</valuemax>
								<value>91</value>
							</parameter>
							<parameter>
								<parameterid>label5</parameterid>
								<name>Limit Effect Controls</name>
								<value/>
							</parameter>
							<parameter>
								<parameterid>dochroma</parameterid>
								<name>Limit on Chroma</name>
								<value>FALSE</value>
							</parameter>
							<parameter>
								<parameterid>centerang</parameterid>
								<name>Chroma Center</name>
								<valuemin>-760</valuemin>
								<valuemax>760</valuemax>
								<value>-110</value>
							</parameter>
							<parameter>
								<parameterid>chromawidth</parameterid>
								<name>Chroma Width</name>
								<valuemin>0</valuemin>
								<valuemax>360</valuemax>
								<value>15</value>
							</parameter>
							<parameter>
								<parameterid>chromasoft</parameterid>
								<name>Chroma Softness</name>
								<valuemin>0</valuemin>
								<valuemax>180</valuemax>
								<value>10</value>
							</parameter>
							<parameter>
								<parameterid>dosat</parameterid>
								<name>Limit on Saturation</name>
								<value>FALSE</value>
							</parameter>
							<parameter>
								<parameterid>satmin</parameterid>
								<name>Sat. Minimum</name>
								<valuemin>0</valuemin>
								<valuemax>125</valuemax>
								<value>35</value>
							</parameter>
							<parameter>
								<parameterid>satwidth</parameterid>
								<name>Sat. Width</name>
								<valuemin>0</valuemin>
								<valuemax>125</valuemax>
								<value>40</value>
							</parameter>
							<parameter>
								<parameterid>satsoft</parameterid>
								<name>Sat. Softness</name>
								<valuemin>0</valuemin>
								<valuemax>125</valuemax>
								<value>20</value>
							</parameter>
							<parameter>
								<parameterid>doluma</parameterid>
								<name>Limit on Luma</name>
								<value>FALSE</value>
							</parameter>
							<parameter>
								<parameterid>lumamin</parameterid>
								<name>Luma Minimum</name>
								<valuemin>0</valuemin>
								<valuemax>120</valuemax>
								<value>0</value>
							</parameter>
							<parameter>
								<parameterid>lumawidth</parameterid>
								<name>Luma Width</name>
								<valuemin>0</valuemin>
								<valuemax>120</valuemax>
								<value>40</value>
							</parameter>
							<parameter>
								<parameterid>lumasoft</parameterid>
								<name>Luma Softness</name>
								<valuemin>0</valuemin>
								<valuemax>120</valuemax>
								<value>20</value>
							</parameter>
							<parameter>
								<parameterid>label6</parameterid>
								<name>Edge Control</name>
								<value/>
							</parameter>
							<parameter>
								<parameterid>edgethin</parameterid>
								<name>Thin/Spread</name>
								<valuemin>-100</valuemin>
								<valuemax>100</valuemax>
								<value>0</value>
							</parameter>
							<parameter>
								<parameterid>edgefeather</parameterid>
								<name>Softening</name>
								<valuemin>0</valuemin>
								<valuemax>100</valuemax>
								<value>0</value>
							</parameter>
							<parameter>
								<parameterid>label7</parameterid>
								<name>Mask Control</name>
								<value/>
							</parameter>
							<parameter>
								<parameterid>invertsel</parameterid>
								<name>Invert</name>
								<value>FALSE</value>
							</parameter>
							<parameter>
								<parameterid>debugshow</parameterid>
								<name>Show Stats</name>
								<value>FALSE</value>
							</parameter>
						</effect>
					</filter>
					<filter>
						<start>-1</start>
						<end>-1</end>
						<effect>
							<name>Color Corrector - Lua til Carina</name>
							<effectid>Color Corrector</effectid>
							<effectcategory>Color Correction</effectcategory>
							<effecttype>filter</effecttype>
							<mediatype>video</mediatype>
							<parameter>
								<parameterid>dispmode</parameterid>
								<name>Display Mode</name>
								<valuemin>1</valuemin>
								<valuemax>3</valuemax>
								<valuelist>
									<valueentry>
										<name>Final</name>
										<value>1</value>
									</valueentry>
									<valueentry>
										<name>Matte</name>
										<value>2</value>
									</valueentry>
									<valueentry>
										<name>Source</name>
										<value>3</value>
									</valueentry>
								</valuelist>
								<value>1</value>
							</parameter>
							<parameter>
								<parameterid>label1</parameterid>
								<name>Level Controls</name>
								<value/>
							</parameter>
							<parameter>
								<parameterid>highlights</parameterid>
								<name>Highlights</name>
								<valuemin>64</valuemin>
								<valuemax>509</valuemax>
								<value>247</value>
							</parameter>
							<parameter>
								<parameterid>mids</parameterid>
								<name>Mids</name>
								<valuemin>0</valuemin>
								<valuemax>200</valuemax>
								<value>100</value>
							</parameter>
							<parameter>
								<parameterid>blacklevel</parameterid>
								<name>Blacks</name>
								<valuemin>-196</valuemin>
								<valuemax>254</valuemax>
								<value>-3</value>
							</parameter>
							<parameter>
								<parameterid>label2</parameterid>
								<name>Color Balance</name>
								<value/>
							</parameter>
							<parameter>
								<parameterid>hue</parameterid>
								<name>Angle</name>
								<valuemin>-180</valuemin>
								<valuemax>180</valuemax>
								<value>-33</value>
							</parameter>
							<parameter>
								<parameterid>mag</parameterid>
								<name>Magnitude</name>
								<valuemin>0</valuemin>
								<valuemax>200</valuemax>
								<value>0</value>
							</parameter>
							<parameter>
								<parameterid>label4</parameterid>
								<name>Color Controls</name>
								<value/>
							</parameter>
							<parameter>
								<parameterid>chroma</parameterid>
								<name>Saturation</name>
								<valuemin>0</valuemin>
								<valuemax>200</valuemax>
								<value>84</value>
							</parameter>
							<parameter>
								<parameterid>phase</parameterid>
								<name>Phase shift</name>
								<valuemin>-180</valuemin>
								<valuemax>180</valuemax>
								<value>0</value>
							</parameter>
							<parameter>
								<parameterid>label5</parameterid>
								<name>Limit Effect Controls</name>
								<value/>
							</parameter>
							<parameter>
								<parameterid>dochroma</parameterid>
								<name>Limit on Chroma</name>
								<value>TRUE</value>
							</parameter>
							<parameter>
								<parameterid>centerang</parameterid>
								<name>Chroma Center</name>
								<valuemin>-760</valuemin>
								<valuemax>760</valuemax>
								<value>322.256</value>
							</parameter>
							<parameter>
								<parameterid>chromawidth</parameterid>
								<name>Chroma Width</name>
								<valuemin>0</valuemin>
								<valuemax>360</valuemax>
								<value>7.49567</value>
							</parameter>
							<parameter>
								<parameterid>chromasoft</parameterid>
								<name>Chroma Softness</name>
								<valuemin>0</valuemin>
								<valuemax>180</valuemax>
								<value>10.6152</value>
							</parameter>
							<parameter>
								<parameterid>dosat</parameterid>
								<name>Limit on Saturation</name>
								<value>TRUE</value>
							</parameter>
							<parameter>
								<parameterid>satmin</parameterid>
								<name>Sat. Minimum</name>
								<valuemin>0</valuemin>
								<valuemax>125</valuemax>
								<value>36.7837</value>
							</parameter>
							<parameter>
								<parameterid>satwidth</parameterid>
								<name>Sat. Width</name>
								<valuemin>0</valuemin>
								<valuemax>125</valuemax>
								<value>84.0889</value>
							</parameter>
							<parameter>
								<parameterid>satsoft</parameterid>
								<name>Sat. Softness</name>
								<valuemin>0</valuemin>
								<valuemax>125</valuemax>
								<value>5</value>
							</parameter>
							<parameter>
								<parameterid>doluma</parameterid>
								<name>Limit on Luma</name>
								<value>TRUE</value>
							</parameter>
							<parameter>
								<parameterid>lumamin</parameterid>
								<name>Luma Minimum</name>
								<valuemin>0</valuemin>
								<valuemax>120</valuemax>
								<value>0.939667</value>
							</parameter>
							<parameter>
								<parameterid>lumawidth</parameterid>
								<name>Luma Width</name>
								<valuemin>0</valuemin>
								<valuemax>120</valuemax>
								<value>115.45</value>
							</parameter>
							<parameter>
								<parameterid>lumasoft</parameterid>
								<name>Luma Softness</name>
								<valuemin>0</valuemin>
								<valuemax>120</valuemax>
								<value>15.1099</value>
							</parameter>
							<parameter>
								<parameterid>label6</parameterid>
								<name>Edge Control</name>
								<value/>
							</parameter>
							<parameter>
								<parameterid>edgethin</parameterid>
								<name>Thin/Spread</name>
								<valuemin>-100</valuemin>
								<valuemax>100</valuemax>
								<value>0</value>
							</parameter>
							<parameter>
								<parameterid>edgefeather</parameterid>
								<name>Softening</name>
								<valuemin>0</valuemin>
								<valuemax>100</valuemax>
								<value>0</value>
							</parameter>
							<parameter>
								<parameterid>label7</parameterid>
								<name>Mask Control</name>
								<value/>
							</parameter>
							<parameter>
								<parameterid>invertsel</parameterid>
								<name>Invert</name>
								<value>FALSE</value>
							</parameter>
							<parameter>
								<parameterid>debugshow</parameterid>
								<name>Show Stats</name>
								<value>FALSE</value>
							</parameter>
						</effect>
					</filter>
					<filter>
						<effect>
							<name>Basic Motion</name>
							<effectid>basic</effectid>
							<effectcategory>motion</effectcategory>
							<effecttype>motion</effecttype>
							<mediatype>video</mediatype>
							<parameter>
								<parameterid>scale</parameterid>
								<name>Scale</name>
								<valuemin>0</valuemin>
								<valuemax>1000</valuemax>
								<value>120</value>
							</parameter>
							<parameter>
								<parameterid>rotation</parameterid>
								<name>Rotation</name>
								<valuemin>-8640</valuemin>
								<valuemax>8640</valuemax>
								<value>0</value>
							</parameter>
							<parameter>
								<parameterid>center</parameterid>
								<name>Center</name>
								<value>
									<horiz>0.0141935</horiz>
									<vert>0</vert>
								</value>
							</parameter>
							<parameter>
								<parameterid>centerOffset</parameterid>
								<name>Anchor Point</name>
								<value>
									<horiz>0</horiz>
									<vert>0</vert>
								</value>
							</parameter>
						</effect>
					</filter>
					<filter>
						<enabled>FALSE</enabled>
						<effect>
							<name>Drop Shadow</name>
							<effectid>dropshadow</effectid>
							<effectcategory>motion</effectcategory>
							<effecttype>motion</effecttype>
							<mediatype>video</mediatype>
							<parameter>
								<parameterid>offset</parameterid>
								<name>offset</name>
								<valuemin>-100</valuemin>
								<valuemax>100</valuemax>
								<value>2</value>
							</parameter>
							<parameter>
								<parameterid>angle</parameterid>
								<name>angle</name>
								<valuemin>-720</valuemin>
								<valuemax>720</valuemax>
								<value>135</value>
							</parameter>
							<parameter>
								<parameterid>color</parameterid>
								<name>color</name>
								<value>
									<alpha>0</alpha>
									<red>0</red>
									<green>0</green>
									<blue>0</blue>
								</value>
							</parameter>
							<parameter>
								<parameterid>softness</parameterid>
								<name>softness</name>
								<valuemin>0</valuemin>
								<valuemax>100</valuemax>
								<value>10</value>
							</parameter>
							<parameter>
								<parameterid>opacity</parameterid>
								<name>opacity</name>
								<valuemin>0</valuemin>
								<valuemax>100</valuemax>
								<value>50</value>
							</parameter>
						</effect>
					</filter>
					<filter>
						<enabled>FALSE</enabled>
						<effect>
							<name>Motion Blur</name>
							<effectid>motionblur</effectid>
							<effectcategory>motion</effectcategory>
							<effecttype>motion</effecttype>
							<mediatype>video</mediatype>
							<parameter>
								<parameterid>duration</parameterid>
								<name>% Blur</name>
								<valuemin>0</valuemin>
								<valuemax>1000</valuemax>
								<value>500</value>
							</parameter>
							<parameter>
								<parameterid>samples</parameterid>
								<name>Samples</name>
								<valuemin>1</valuemin>
								<valuemax>16</valuemax>
								<value>4</value>
							</parameter>
						</effect>
					</filter>
					<filter>
						<effect>
							<name>Crop</name>
							<effectid>crop</effectid>
							<effectcategory>motion</effectcategory>
							<effecttype>motion</effecttype>
							<mediatype>video</mediatype>
							<parameter>
								<parameterid>left</parameterid>
								<name>left</name>
								<valuemin>0</valuemin>
								<valuemax>100</valuemax>
								<value>0</value>
							</parameter>
							<parameter>
								<parameterid>right</parameterid>
								<name>right</name>
								<valuemin>0</valuemin>
								<valuemax>100</valuemax>
								<value>0</value>
							</parameter>
							<parameter>
								<parameterid>top</parameterid>
								<name>top</name>
								<valuemin>0</valuemin>
								<valuemax>100</valuemax>
								<value>0</value>
							</parameter>
							<parameter>
								<parameterid>bottom</parameterid>
								<name>bottom</name>
								<valuemin>0</valuemin>
								<valuemax>100</valuemax>
								<value>0</value>
							</parameter>
							<parameter>
								<parameterid>edgefeather</parameterid>
								<name>edgefeather</name>
								<valuemin>0</valuemin>
								<valuemax>100</valuemax>
								<value>0</value>
							</parameter>
						</effect>
					</filter>
					<filter>
						<effect>
							<name>Distort</name>
							<effectid>deformation</effectid>
							<effectcategory>motion</effectcategory>
							<effecttype>motion</effecttype>
							<mediatype>video</mediatype>
							<parameter>
								<parameterid>ulcorner</parameterid>
								<name>Upper Left</name>
								<value>
									<horiz>-0.5</horiz>
									<vert>-0.5</vert>
								</value>
							</parameter>
							<parameter>
								<parameterid>urcorner</parameterid>
								<name>Upper Right</name>
								<value>
									<horiz>0.5</horiz>
									<vert>-0.5</vert>
								</value>
							</parameter>
							<parameter>
								<parameterid>lrcorner</parameterid>
								<name>Lower Right</name>
								<value>
									<horiz>0.5</horiz>
									<vert>0.5</vert>
								</value>
							</parameter>
							<parameter>
								<parameterid>llcorner</parameterid>
								<name>Lower Left</name>
								<value>
									<horiz>-0.5</horiz>
									<vert>0.5</vert>
								</value>
							</parameter>
							<parameter>
								<parameterid>aspect</parameterid>
								<name>Aspect</name>
								<valuemin>-10000</valuemin>
								<valuemax>10000</valuemax>
								<value>0</value>
							</parameter>
						</effect>
					</filter>
					<filter>
						<effect>
							<name>Opacity</name>
							<effectid>opacity</effectid>
							<effectcategory>motion</effectcategory>
							<effecttype>motion</effecttype>
							<mediatype>video</mediatype>
							<parameter>
								<parameterid>opacity</parameterid>
								<name>opacity</name>
								<valuemin>0</valuemin>
								<valuemax>100</valuemax>
								<value>100</value>
							</parameter>
						</effect>
					</filter>
					<sourcetrack>
						<mediatype>video</mediatype>
					</sourcetrack>
					<link>
						<linkclipref>00696001.MOV4</linkclipref>
						<mediatype>video</mediatype>
						<trackindex>1</trackindex>
						<clipindex>23</clipindex>
					</link>
					<link>
						<linkclipref>00696001.MOV5</linkclipref>
						<mediatype>audio</mediatype>
						<trackindex>1</trackindex>
						<clipindex>17</clipindex>
					</link>
					<link>
						<linkclipref>00696001.MOV6</linkclipref>
						<mediatype>audio</mediatype>
						<trackindex>2</trackindex>
						<clipindex>17</clipindex>
					</link>
					<fielddominance>upper</fielddominance>
					<itemhistory>
						<uuid>1F50496F-0EC8-4E16-821B-66BAB82374C7</uuid>
					</itemhistory>
				</clipitem>
				<clipitem id="00706001.MOV4">
					<name>00706001.MOV</name>
					<duration>1332</duration>
					<rate>
						<ntsc>FALSE</ntsc>
						<timebase>25</timebase>
					</rate>
					<in>1171</in>
					<out>1232</out>
					<start>2843</start>
					<end>2904</end>
					<pixelaspectratio>Square</pixelaspectratio>
					<enabled>TRUE</enabled>
					<anamorphic>FALSE</anamorphic>
					<alphatype>none</alphatype>
					<masterclipid>00706001.MOV1</masterclipid>
					<logginginfo>
						<scene/>
						<shottake/>
						<lognote/>
						<good>FALSE</good>
					</logginginfo>
					<labels>
						<label2/>
					</labels>
					<comments>
						<mastercomment1/>
						<mastercomment2/>
						<mastercomment3/>
						<mastercomment4/>
					</comments>
					<file id="00706001 "/>
					<filter>
						<start>-1</start>
						<end>-1</end>
						<effect>
							<name>Color Corrector - Lua til Carina 3 bittelitt</name>
							<effectid>Color Corrector</effectid>
							<effectcategory>Color Correction</effectcategory>
							<effecttype>filter</effecttype>
							<mediatype>video</mediatype>
							<parameter>
								<parameterid>dispmode</parameterid>
								<name>Display Mode</name>
								<valuemin>1</valuemin>
								<valuemax>3</valuemax>
								<valuelist>
									<valueentry>
										<name>Final</name>
										<value>1</value>
									</valueentry>
									<valueentry>
										<name>Matte</name>
										<value>2</value>
									</valueentry>
									<valueentry>
										<name>Source</name>
										<value>3</value>
									</valueentry>
								</valuelist>
								<value>1</value>
							</parameter>
							<parameter>
								<parameterid>label1</parameterid>
								<name>Level Controls</name>
								<value/>
							</parameter>
							<parameter>
								<parameterid>highlights</parameterid>
								<name>Highlights</name>
								<valuemin>64</valuemin>
								<valuemax>509</valuemax>
								<value>247</value>
							</parameter>
							<parameter>
								<parameterid>mids</parameterid>
								<name>Mids</name>
								<valuemin>0</valuemin>
								<valuemax>200</valuemax>
								<value>100</value>
							</parameter>
							<parameter>
								<parameterid>blacklevel</parameterid>
								<name>Blacks</name>
								<valuemin>-196</valuemin>
								<valuemax>254</valuemax>
								<value>-3</value>
							</parameter>
							<parameter>
								<parameterid>label2</parameterid>
								<name>Color Balance</name>
								<value/>
							</parameter>
							<parameter>
								<parameterid>hue</parameterid>
								<name>Angle</name>
								<valuemin>-180</valuemin>
								<valuemax>180</valuemax>
								<value>-33</value>
							</parameter>
							<parameter>
								<parameterid>mag</parameterid>
								<name>Magnitude</name>
								<valuemin>0</valuemin>
								<valuemax>200</valuemax>
								<value>0</value>
							</parameter>
							<parameter>
								<parameterid>label4</parameterid>
								<name>Color Controls</name>
								<value/>
							</parameter>
							<parameter>
								<parameterid>chroma</parameterid>
								<name>Saturation</name>
								<valuemin>0</valuemin>
								<valuemax>200</valuemax>
								<value>94</value>
							</parameter>
							<parameter>
								<parameterid>phase</parameterid>
								<name>Phase shift</name>
								<valuemin>-180</valuemin>
								<valuemax>180</valuemax>
								<value>0</value>
							</parameter>
							<parameter>
								<parameterid>label5</parameterid>
								<name>Limit Effect Controls</name>
								<value/>
							</parameter>
							<parameter>
								<parameterid>dochroma</parameterid>
								<name>Limit on Chroma</name>
								<value>TRUE</value>
							</parameter>
							<parameter>
								<parameterid>centerang</parameterid>
								<name>Chroma Center</name>
								<valuemin>-760</valuemin>
								<valuemax>760</valuemax>
								<value>322.256</value>
							</parameter>
							<parameter>
								<parameterid>chromawidth</parameterid>
								<name>Chroma Width</name>
								<valuemin>0</valuemin>
								<valuemax>360</valuemax>
								<value>8.11959</value>
							</parameter>
							<parameter>
								<parameterid>chromasoft</parameterid>
								<name>Chroma Softness</name>
								<valuemin>0</valuemin>
								<valuemax>180</valuemax>
								<value>26.8371</value>
							</parameter>
							<parameter>
								<parameterid>dosat</parameterid>
								<name>Limit on Saturation</name>
								<value>TRUE</value>
							</parameter>
							<parameter>
								<parameterid>satmin</parameterid>
								<name>Sat. Minimum</name>
								<valuemin>0</valuemin>
								<valuemax>125</valuemax>
								<value>36.7837</value>
							</parameter>
							<parameter>
								<parameterid>satwidth</parameterid>
								<name>Sat. Width</name>
								<valuemin>0</valuemin>
								<valuemax>125</valuemax>
								<value>84.0889</value>
							</parameter>
							<parameter>
								<parameterid>satsoft</parameterid>
								<name>Sat. Softness</name>
								<valuemin>0</valuemin>
								<valuemax>125</valuemax>
								<value>5</value>
							</parameter>
							<parameter>
								<parameterid>doluma</parameterid>
								<name>Limit on Luma</name>
								<value>TRUE</value>
							</parameter>
							<parameter>
								<parameterid>lumamin</parameterid>
								<name>Luma Minimum</name>
								<valuemin>0</valuemin>
								<valuemax>120</valuemax>
								<value>0.939667</value>
							</parameter>
							<parameter>
								<parameterid>lumawidth</parameterid>
								<name>Luma Width</name>
								<valuemin>0</valuemin>
								<valuemax>120</valuemax>
								<value>115.45</value>
							</parameter>
							<parameter>
								<parameterid>lumasoft</parameterid>
								<name>Luma Softness</name>
								<valuemin>0</valuemin>
								<valuemax>120</valuemax>
								<value>15.1099</value>
							</parameter>
							<parameter>
								<parameterid>label6</parameterid>
								<name>Edge Control</name>
								<value/>
							</parameter>
							<parameter>
								<parameterid>edgethin</parameterid>
								<name>Thin/Spread</name>
								<valuemin>-100</valuemin>
								<valuemax>100</valuemax>
								<value>0</value>
							</parameter>
							<parameter>
								<parameterid>edgefeather</parameterid>
								<name>Softening</name>
								<valuemin>0</valuemin>
								<valuemax>100</valuemax>
								<value>6</value>
							</parameter>
							<parameter>
								<parameterid>label7</parameterid>
								<name>Mask Control</name>
								<value/>
							</parameter>
							<parameter>
								<parameterid>invertsel</parameterid>
								<name>Invert</name>
								<value>FALSE</value>
							</parameter>
							<parameter>
								<parameterid>debugshow</parameterid>
								<name>Show Stats</name>
								<value>FALSE</value>
							</parameter>
						</effect>
					</filter>
					<sourcetrack>
						<mediatype>video</mediatype>
					</sourcetrack>
					<link>
						<linkclipref>00706001.MOV4</linkclipref>
						<mediatype>video</mediatype>
						<trackindex>1</trackindex>
						<clipindex>24</clipindex>
					</link>
					<link>
						<linkclipref>00706001.MOV5</linkclipref>
						<mediatype>audio</mediatype>
						<trackindex>1</trackindex>
						<clipindex>18</clipindex>
					</link>
					<link>
						<linkclipref>00706001.MOV6</linkclipref>
						<mediatype>audio</mediatype>
						<trackindex>2</trackindex>
						<clipindex>18</clipindex>
					</link>
					<fielddominance>upper</fielddominance>
					<itemhistory>
						<uuid>6B9999E7-2CE0-4ADF-BFD2-7D65391E3544</uuid>
					</itemhistory>
				</clipitem>
				<clipitem id="00711001.MOV">
					<name>00711001.MOV</name>
					<duration>948</duration>
					<rate>
						<ntsc>FALSE</ntsc>
						<timebase>25</timebase>
					</rate>
					<in>525</in>
					<out>803</out>
					<start>2904</start>
					<end>3182</end>
					<pixelaspectratio>Square</pixelaspectratio>
					<enabled>TRUE</enabled>
					<anamorphic>FALSE</anamorphic>
					<alphatype>none</alphatype>
					<masterclipid>00711001.MOV1</masterclipid>
					<logginginfo>
						<scene/>
						<shottake/>
						<lognote/>
						<good>FALSE</good>
					</logginginfo>
					<labels>
						<label2/>
					</labels>
					<comments>
						<mastercomment1/>
						<mastercomment2/>
						<mastercomment3/>
						<mastercomment4/>
					</comments>
					<file id="00711001 ">
						<name>00711001.MOV</name>
						<pathurl>file://localhost/Volumes/Askepott/Prosjekter/DNPR637010_Kra%CC%8Akeklubben_TEM_011212/Video/MELLOMSTIKK/S01E05%20Dyrebolig/00711001.MOV</pathurl>
						<rate>
							<timebase>25</timebase>
						</rate>
						<duration>948</duration>
						<timecode>
							<rate>
								<timebase>25</timebase>
							</rate>
							<string>17:41:36:16</string>
							<frame>1592416</frame>
							<displayformat>NDF</displayformat>
							<source>source</source>
							<reel>
								<name>Flash XDR</name>
							</reel>
						</timecode>
						<media>
							<video>
								<duration>948</duration>
								<samplecharacteristics>
									<width>1920</width>
									<height>1080</height>
								</samplecharacteristics>
							</video>
							<audio>
								<samplecharacteristics>
									<samplerate>48000</samplerate>
									<depth>24</depth>
								</samplecharacteristics>
								<channelcount>1</channelcount>
							</audio>
							<audio>
								<samplecharacteristics>
									<samplerate>48000</samplerate>
									<depth>24</depth>
								</samplecharacteristics>
								<channelcount>1</channelcount>
							</audio>
						</media>
					</file>
					<sourcetrack>
						<mediatype>video</mediatype>
					</sourcetrack>
					<link>
						<linkclipref>00711001.MOV</linkclipref>
						<mediatype>video</mediatype>
						<trackindex>1</trackindex>
						<clipindex>25</clipindex>
					</link>
					<link>
						<linkclipref>00711001.MOV2</linkclipref>
						<mediatype>audio</mediatype>
						<trackindex>1</trackindex>
						<clipindex>19</clipindex>
					</link>
					<link>
						<linkclipref>00711001.MOV3</linkclipref>
						<mediatype>audio</mediatype>
						<trackindex>2</trackindex>
						<clipindex>19</clipindex>
					</link>
					<fielddominance>upper</fielddominance>
					<itemhistory>
						<uuid>34DF53F9-912F-4D1F-827C-77042309238B</uuid>
					</itemhistory>
				</clipitem>
				<clipitem id="00722001.MOV">
					<name>00722001.MOV</name>
					<duration>1392</duration>
					<rate>
						<ntsc>FALSE</ntsc>
						<timebase>25</timebase>
					</rate>
					<in>422</in>
					<out>469</out>
					<start>3229</start>
					<end>3276</end>
					<pixelaspectratio>Square</pixelaspectratio>
					<enabled>TRUE</enabled>
					<anamorphic>FALSE</anamorphic>
					<alphatype>none</alphatype>
					<masterclipid>00722001.MOV1</masterclipid>
					<logginginfo>
						<scene/>
						<shottake/>
						<lognote/>
						<good>FALSE</good>
					</logginginfo>
					<labels>
						<label2/>
					</labels>
					<comments>
						<mastercomment1/>
						<mastercomment2/>
						<mastercomment3/>
						<mastercomment4/>
					</comments>
					<file id="00722001 ">
						<name>00722001.MOV</name>
						<pathurl>file://localhost/Volumes/Askepott/Prosjekter/DNPR637010_Kra%CC%8Akeklubben_TEM_011212/Video/MELLOMSTIKK/S01E05%20Dyrebolig/00722001.MOV</pathurl>
						<rate>
							<timebase>25</timebase>
						</rate>
						<duration>1392</duration>
						<timecode>
							<rate>
								<timebase>25</timebase>
							</rate>
							<string>17:50:06:23</string>
							<frame>1605173</frame>
							<displayformat>NDF</displayformat>
							<source>source</source>
							<reel>
								<name>Flash XDR</name>
							</reel>
						</timecode>
						<media>
							<video>
								<duration>1392</duration>
								<samplecharacteristics>
									<width>1920</width>
									<height>1080</height>
								</samplecharacteristics>
							</video>
							<audio>
								<samplecharacteristics>
									<samplerate>48000</samplerate>
									<depth>24</depth>
								</samplecharacteristics>
								<channelcount>1</channelcount>
							</audio>
							<audio>
								<samplecharacteristics>
									<samplerate>48000</samplerate>
									<depth>24</depth>
								</samplecharacteristics>
								<channelcount>1</channelcount>
							</audio>
						</media>
					</file>
					<filter>
						<enabled>TRUE</enabled>
						<start>-1</start>
						<end>-1</end>
						<effect>
							<name>Color Corrector - Lua til Carina 3 bittelitt</name>
							<effectid>Color Corrector</effectid>
							<effectcategory>Color Correction</effectcategory>
							<effecttype>filter</effecttype>
							<mediatype>video</mediatype>
							<parameter>
								<parameterid>dispmode</parameterid>
								<name>Display Mode</name>
								<valuemin>1</valuemin>
								<valuemax>3</valuemax>
								<valuelist>
									<valueentry>
										<name>Final</name>
										<value>1</value>
									</valueentry>
									<valueentry>
										<name>Matte</name>
										<value>2</value>
									</valueentry>
									<valueentry>
										<name>Source</name>
										<value>3</value>
									</valueentry>
								</valuelist>
								<value>1</value>
							</parameter>
							<parameter>
								<parameterid>label1</parameterid>
								<name>Level Controls</name>
								<value/>
							</parameter>
							<parameter>
								<parameterid>highlights</parameterid>
								<name>Highlights</name>
								<valuemin>64</valuemin>
								<valuemax>509</valuemax>
								<value>247</value>
							</parameter>
							<parameter>
								<parameterid>mids</parameterid>
								<name>Mids</name>
								<valuemin>0</valuemin>
								<valuemax>200</valuemax>
								<value>100</value>
							</parameter>
							<parameter>
								<parameterid>blacklevel</parameterid>
								<name>Blacks</name>
								<valuemin>-196</valuemin>
								<valuemax>254</valuemax>
								<value>-3</value>
							</parameter>
							<parameter>
								<parameterid>label2</parameterid>
								<name>Color Balance</name>
								<value/>
							</parameter>
							<parameter>
								<parameterid>hue</parameterid>
								<name>Angle</name>
								<valuemin>-180</valuemin>
								<valuemax>180</valuemax>
								<value>-33</value>
							</parameter>
							<parameter>
								<parameterid>mag</parameterid>
								<name>Magnitude</name>
								<valuemin>0</valuemin>
								<valuemax>200</valuemax>
								<value>0</value>
							</parameter>
							<parameter>
								<parameterid>label4</parameterid>
								<name>Color Controls</name>
								<value/>
							</parameter>
							<parameter>
								<parameterid>chroma</parameterid>
								<name>Saturation</name>
								<valuemin>0</valuemin>
								<valuemax>200</valuemax>
								<value>94</value>
							</parameter>
							<parameter>
								<parameterid>phase</parameterid>
								<name>Phase shift</name>
								<valuemin>-180</valuemin>
								<valuemax>180</valuemax>
								<value>0</value>
							</parameter>
							<parameter>
								<parameterid>label5</parameterid>
								<name>Limit Effect Controls</name>
								<value/>
							</parameter>
							<parameter>
								<parameterid>dochroma</parameterid>
								<name>Limit on Chroma</name>
								<value>TRUE</value>
							</parameter>
							<parameter>
								<parameterid>centerang</parameterid>
								<name>Chroma Center</name>
								<valuemin>-760</valuemin>
								<valuemax>760</valuemax>
								<value>322.256</value>
							</parameter>
							<parameter>
								<parameterid>chromawidth</parameterid>
								<name>Chroma Width</name>
								<valuemin>0</valuemin>
								<valuemax>360</valuemax>
								<value>8.11959</value>
							</parameter>
							<parameter>
								<parameterid>chromasoft</parameterid>
								<name>Chroma Softness</name>
								<valuemin>0</valuemin>
								<valuemax>180</valuemax>
								<value>26.8371</value>
							</parameter>
							<parameter>
								<parameterid>dosat</parameterid>
								<name>Limit on Saturation</name>
								<value>TRUE</value>
							</parameter>
							<parameter>
								<parameterid>satmin</parameterid>
								<name>Sat. Minimum</name>
								<valuemin>0</valuemin>
								<valuemax>125</valuemax>
								<value>36.7837</value>
							</parameter>
							<parameter>
								<parameterid>satwidth</parameterid>
								<name>Sat. Width</name>
								<valuemin>0</valuemin>
								<valuemax>125</valuemax>
								<value>84.0889</value>
							</parameter>
							<parameter>
								<parameterid>satsoft</parameterid>
								<name>Sat. Softness</name>
								<valuemin>0</valuemin>
								<valuemax>125</valuemax>
								<value>5</value>
							</parameter>
							<parameter>
								<parameterid>doluma</parameterid>
								<name>Limit on Luma</name>
								<value>TRUE</value>
							</parameter>
							<parameter>
								<parameterid>lumamin</parameterid>
								<name>Luma Minimum</name>
								<valuemin>0</valuemin>
								<valuemax>120</valuemax>
								<value>0.939667</value>
							</parameter>
							<parameter>
								<parameterid>lumawidth</parameterid>
								<name>Luma Width</name>
								<valuemin>0</valuemin>
								<valuemax>120</valuemax>
								<value>115.45</value>
							</parameter>
							<parameter>
								<parameterid>lumasoft</parameterid>
								<name>Luma Softness</name>
								<valuemin>0</valuemin>
								<valuemax>120</valuemax>
								<value>15.1099</value>
							</parameter>
							<parameter>
								<parameterid>label6</parameterid>
								<name>Edge Control</name>
								<value/>
							</parameter>
							<parameter>
								<parameterid>edgethin</parameterid>
								<name>Thin/Spread</name>
								<valuemin>-100</valuemin>
								<valuemax>100</valuemax>
								<value>0</value>
							</parameter>
							<parameter>
								<parameterid>edgefeather</parameterid>
								<name>Softening</name>
								<valuemin>0</valuemin>
								<valuemax>100</valuemax>
								<value>6</value>
							</parameter>
							<parameter>
								<parameterid>label7</parameterid>
								<name>Mask Control</name>
								<value/>
							</parameter>
							<parameter>
								<parameterid>invertsel</parameterid>
								<name>Invert</name>
								<value>FALSE</value>
							</parameter>
							<parameter>
								<parameterid>debugshow</parameterid>
								<name>Show Stats</name>
								<value>FALSE</value>
							</parameter>
						</effect>
					</filter>
					<filter>
						<enabled>TRUE</enabled>
						<start>-1</start>
						<end>-1</end>
						<effect>
							<name>G Simple Curves -20 white curve</name>
							<effectcategory>Nattress Big Box of Tricks - Levels and Curves</effectcategory>
							<effecttype>filter</effecttype>
							<mediatype>video</mediatype>
							<parameter>
								<parameterid>colourspace</parameterid>
								<name>Colour Space</name>
								<valuemin>1</valuemin>
								<valuemax>2</valuemax>
								<valuelist>
									<valueentry>
										<name>RGB</name>
										<value>1</value>
									</valueentry>
									<valueentry>
										<name>Y'CbCr</name>
										<value>2</value>
									</valueentry>
								</valuelist>
								<value>2</value>
							</parameter>
							<parameter>
								<parameterid>showcurves</parameterid>
								<name>Show Curves</name>
								<value>FALSE</value>
							</parameter>
							<parameter>
								<parameterid>lvar</parameterid>
								<name>Levels Controls</name>
								<value>string</value>
							</parameter>
							<parameter>
								<parameterid>inw</parameterid>
								<name>White Level</name>
								<valuemin>0</valuemin>
								<valuemax>255</valuemax>
								<value>255</value>
							</parameter>
							<parameter>
								<parameterid>inb</parameterid>
								<name>Black Level</name>
								<valuemin>0</valuemin>
								<valuemax>255</valuemax>
								<value>0</value>
							</parameter>
							<parameter>
								<parameterid>outw</parameterid>
								<name>White Output</name>
								<valuemin>0</valuemin>
								<valuemax>255</valuemax>
								<value>255</value>
							</parameter>
							<parameter>
								<parameterid>outb</parameterid>
								<name>Black Output</name>
								<valuemin>0</valuemin>
								<valuemax>255</valuemax>
								<value>0</value>
							</parameter>
							<parameter>
								<parameterid>cvar</parameterid>
								<name>Curves Controls</name>
								<value>string</value>
							</parameter>
							<parameter>
								<parameterid>curvew</parameterid>
								<name>White Curve</name>
								<valuemin>-100</valuemin>
								<valuemax>100</valuemax>
								<value>-10</value>
							</parameter>
							<parameter>
								<parameterid>curveb</parameterid>
								<name>Black Curve</name>
								<valuemin>-100</valuemin>
								<valuemax>100</valuemax>
								<value>0</value>
							</parameter>
							<parameter>
								<parameterid>clipoutput</parameterid>
								<name>Clip Output Levels</name>
								<value>TRUE</value>
							</parameter>
							<parameter>
								<parameterid>copyright</parameterid>
								<name>© www.nattress.com</name>
								<value>string</value>
							</parameter>
						</effect>
					</filter>
					<filter>
						<start>-1</start>
						<end>-1</end>
						<effect>
							<name>Color Corrector 3-way mindre metning</name>
							<effectid>Color Corrector 3-way</effectid>
							<effectcategory>Color Correction</effectcategory>
							<effecttype>filter</effecttype>
							<mediatype>video</mediatype>
							<parameter>
								<parameterid>dispmode</parameterid>
								<name>Display Mode</name>
								<valuemin>1</valuemin>
								<valuemax>3</valuemax>
								<valuelist>
									<valueentry>
										<name>Final</name>
										<value>1</value>
									</valueentry>
									<valueentry>
										<name>Matte</name>
										<value>2</value>
									</valueentry>
									<valueentry>
										<name>Source</name>
										<value>3</value>
									</valueentry>
								</valuelist>
								<value>1</value>
							</parameter>
							<parameter>
								<parameterid>label1</parameterid>
								<name>Blacks Controls</name>
								<value/>
							</parameter>
							<parameter>
								<parameterid>blacklevel</parameterid>
								<name>Level</name>
								<valuemin>-196</valuemin>
								<valuemax>254</valuemax>
								<value>0</value>
							</parameter>
							<parameter>
								<parameterid>b_hue</parameterid>
								<name>Angle</name>
								<valuemin>-180</valuemin>
								<valuemax>180</valuemax>
								<value>-33</value>
							</parameter>
							<parameter>
								<parameterid>b_mag</parameterid>
								<name>Magnitude</name>
								<valuemin>0</valuemin>
								<valuemax>200</valuemax>
								<value>0</value>
							</parameter>
							<parameter>
								<parameterid>label2</parameterid>
								<name>Midrange Controls</name>
								<value/>
							</parameter>
							<parameter>
								<parameterid>mids</parameterid>
								<name>Level</name>
								<valuemin>0</valuemin>
								<valuemax>200</valuemax>
								<value>100</value>
							</parameter>
							<parameter>
								<parameterid>m_hue</parameterid>
								<name>Angle</name>
								<valuemin>-180</valuemin>
								<valuemax>180</valuemax>
								<value>-33</value>
							</parameter>
							<parameter>
								<parameterid>m_mag</parameterid>
								<name>Magnitude</name>
								<valuemin>0</valuemin>
								<valuemax>200</valuemax>
								<value>0</value>
							</parameter>
							<parameter>
								<parameterid>label3</parameterid>
								<name>Highlight Controls</name>
								<value/>
							</parameter>
							<parameter>
								<parameterid>highlights</parameterid>
								<name>Level</name>
								<valuemin>64</valuemin>
								<valuemax>509</valuemax>
								<value>255</value>
							</parameter>
							<parameter>
								<parameterid>h_hue</parameterid>
								<name>Angle</name>
								<valuemin>-180</valuemin>
								<valuemax>180</valuemax>
								<value>-33</value>
							</parameter>
							<parameter>
								<parameterid>h_mag</parameterid>
								<name>Magnitude</name>
								<valuemin>0</valuemin>
								<valuemax>200</valuemax>
								<value>0</value>
							</parameter>
							<parameter>
								<parameterid>label4</parameterid>
								<name>Color Controls</name>
								<value/>
							</parameter>
							<parameter>
								<parameterid>chroma</parameterid>
								<name>Saturation</name>
								<valuemin>0</valuemin>
								<valuemax>200</valuemax>
								<value>90</value>
							</parameter>
							<parameter>
								<parameterid>label5</parameterid>
								<name>Limit Effect Controls</name>
								<value/>
							</parameter>
							<parameter>
								<parameterid>dochroma</parameterid>
								<name>Limit on Chroma</name>
								<value>FALSE</value>
							</parameter>
							<parameter>
								<parameterid>centerang</parameterid>
								<name>Chroma Center</name>
								<valuemin>-760</valuemin>
								<valuemax>760</valuemax>
								<value>-110</value>
							</parameter>
							<parameter>
								<parameterid>chromawidth</parameterid>
								<name>Chroma Width</name>
								<valuemin>0</valuemin>
								<valuemax>360</valuemax>
								<value>15</value>
							</parameter>
							<parameter>
								<parameterid>chromasoft</parameterid>
								<name>Chroma Softness</name>
								<valuemin>0</valuemin>
								<valuemax>180</valuemax>
								<value>10</value>
							</parameter>
							<parameter>
								<parameterid>dosat</parameterid>
								<name>Limit on Saturation</name>
								<value>FALSE</value>
							</parameter>
							<parameter>
								<parameterid>satmin</parameterid>
								<name>Sat. Minimum</name>
								<valuemin>0</valuemin>
								<valuemax>125</valuemax>
								<value>35</value>
							</parameter>
							<parameter>
								<parameterid>satwidth</parameterid>
								<name>Sat. Width</name>
								<valuemin>0</valuemin>
								<valuemax>125</valuemax>
								<value>40</value>
							</parameter>
							<parameter>
								<parameterid>satsoft</parameterid>
								<name>Sat. Softness</name>
								<valuemin>0</valuemin>
								<valuemax>125</valuemax>
								<value>20</value>
							</parameter>
							<parameter>
								<parameterid>doluma</parameterid>
								<name>Limit on Luma</name>
								<value>FALSE</value>
							</parameter>
							<parameter>
								<parameterid>lumamin</parameterid>
								<name>Luma Minimum</name>
								<valuemin>0</valuemin>
								<valuemax>120</valuemax>
								<value>0</value>
							</parameter>
							<parameter>
								<parameterid>lumawidth</parameterid>
								<name>Luma Width</name>
								<valuemin>0</valuemin>
								<valuemax>120</valuemax>
								<value>40</value>
							</parameter>
							<parameter>
								<parameterid>lumasoft</parameterid>
								<name>Luma Softness</name>
								<valuemin>0</valuemin>
								<valuemax>120</valuemax>
								<value>20</value>
							</parameter>
							<parameter>
								<parameterid>label6</parameterid>
								<name>Edge Control</name>
								<value/>
							</parameter>
							<parameter>
								<parameterid>edgethin</parameterid>
								<name>Thin/Spread</name>
								<valuemin>-100</valuemin>
								<valuemax>100</valuemax>
								<value>0</value>
							</parameter>
							<parameter>
								<parameterid>edgefeather</parameterid>
								<name>Softening</name>
								<valuemin>0</valuemin>
								<valuemax>100</valuemax>
								<value>0</value>
							</parameter>
							<parameter>
								<parameterid>label7</parameterid>
								<name>Mask Control</name>
								<value/>
							</parameter>
							<parameter>
								<parameterid>invertsel</parameterid>
								<name>Invert</name>
								<value>FALSE</value>
							</parameter>
							<parameter>
								<parameterid>debugshow</parameterid>
								<name>Show Stats</name>
								<value>FALSE</value>
							</parameter>
						</effect>
					</filter>
					<sourcetrack>
						<mediatype>video</mediatype>
					</sourcetrack>
					<link>
						<linkclipref>00722001.MOV</linkclipref>
						<mediatype>video</mediatype>
						<trackindex>1</trackindex>
						<clipindex>26</clipindex>
					</link>
					<link>
						<linkclipref>00722001.MOV2</linkclipref>
						<mediatype>audio</mediatype>
						<trackindex>1</trackindex>
						<clipindex>22</clipindex>
					</link>
					<link>
						<linkclipref>00722001.MOV3</linkclipref>
						<mediatype>audio</mediatype>
						<trackindex>2</trackindex>
						<clipindex>22</clipindex>
					</link>
					<fielddominance>upper</fielddominance>
					<itemhistory>
						<uuid>9724F5CB-468E-465C-836B-9A9E23EA1851</uuid>
					</itemhistory>
				</clipitem>
				<clipitem id="00715001.MOV">
					<name>00715001.MOV</name>
					<duration>3156</duration>
					<rate>
						<ntsc>FALSE</ntsc>
						<timebase>25</timebase>
					</rate>
					<in>238</in>
					<out>529</out>
					<start>3276</start>
					<end>3567</end>
					<pixelaspectratio>Square</pixelaspectratio>
					<enabled>TRUE</enabled>
					<anamorphic>FALSE</anamorphic>
					<alphatype>none</alphatype>
					<masterclipid>00715001.MOV1</masterclipid>
					<logginginfo>
						<scene/>
						<shottake/>
						<lognote/>
						<good>FALSE</good>
					</logginginfo>
					<labels>
						<label2/>
					</labels>
					<comments>
						<mastercomment1/>
						<mastercomment2/>
						<mastercomment3/>
						<mastercomment4/>
					</comments>
					<file id="00715001 ">
						<name>00715001.MOV</name>
						<pathurl>file://localhost/Volumes/Askepott/Prosjekter/DNPR637010_Kra%CC%8Akeklubben_TEM_011212/Video/MELLOMSTIKK/S01E05%20Dyrebolig/00715001.MOV</pathurl>
						<rate>
							<timebase>25</timebase>
						</rate>
						<duration>3156</duration>
						<timecode>
							<rate>
								<timebase>25</timebase>
							</rate>
							<string>17:44:04:23</string>
							<frame>1596123</frame>
							<displayformat>NDF</displayformat>
							<source>source</source>
							<reel>
								<name>Flash XDR</name>
							</reel>
						</timecode>
						<media>
							<video>
								<duration>3156</duration>
								<samplecharacteristics>
									<width>1920</width>
									<height>1080</height>
								</samplecharacteristics>
							</video>
							<audio>
								<samplecharacteristics>
									<samplerate>48000</samplerate>
									<depth>24</depth>
								</samplecharacteristics>
								<channelcount>1</channelcount>
							</audio>
							<audio>
								<samplecharacteristics>
									<samplerate>48000</samplerate>
									<depth>24</depth>
								</samplecharacteristics>
								<channelcount>1</channelcount>
							</audio>
						</media>
					</file>
					<filter>
						<enabled>TRUE</enabled>
						<start>-1</start>
						<end>-1</end>
						<effect>
							<name>Color Corrector - Lua til Carina</name>
							<effectid>Color Corrector</effectid>
							<effectcategory>Color Correction</effectcategory>
							<effecttype>filter</effecttype>
							<mediatype>video</mediatype>
							<parameter>
								<parameterid>dispmode</parameterid>
								<name>Display Mode</name>
								<valuemin>1</valuemin>
								<valuemax>3</valuemax>
								<valuelist>
									<valueentry>
										<name>Final</name>
										<value>1</value>
									</valueentry>
									<valueentry>
										<name>Matte</name>
										<value>2</value>
									</valueentry>
									<valueentry>
										<name>Source</name>
										<value>3</value>
									</valueentry>
								</valuelist>
								<value>1</value>
							</parameter>
							<parameter>
								<parameterid>label1</parameterid>
								<name>Level Controls</name>
								<value/>
							</parameter>
							<parameter>
								<parameterid>highlights</parameterid>
								<name>Highlights</name>
								<valuemin>64</valuemin>
								<valuemax>509</valuemax>
								<value>247</value>
							</parameter>
							<parameter>
								<parameterid>mids</parameterid>
								<name>Mids</name>
								<valuemin>0</valuemin>
								<valuemax>200</valuemax>
								<value>100</value>
							</parameter>
							<parameter>
								<parameterid>blacklevel</parameterid>
								<name>Blacks</name>
								<valuemin>-196</valuemin>
								<valuemax>254</valuemax>
								<value>-3</value>
							</parameter>
							<parameter>
								<parameterid>label2</parameterid>
								<name>Color Balance</name>
								<value/>
							</parameter>
							<parameter>
								<parameterid>hue</parameterid>
								<name>Angle</name>
								<valuemin>-180</valuemin>
								<valuemax>180</valuemax>
								<value>-33</value>
							</parameter>
							<parameter>
								<parameterid>mag</parameterid>
								<name>Magnitude</name>
								<valuemin>0</valuemin>
								<valuemax>200</valuemax>
								<value>0</value>
							</parameter>
							<parameter>
								<parameterid>label4</parameterid>
								<name>Color Controls</name>
								<value/>
							</parameter>
							<parameter>
								<parameterid>chroma</parameterid>
								<name>Saturation</name>
								<valuemin>0</valuemin>
								<valuemax>200</valuemax>
								<value>84</value>
							</parameter>
							<parameter>
								<parameterid>phase</parameterid>
								<name>Phase shift</name>
								<valuemin>-180</valuemin>
								<valuemax>180</valuemax>
								<value>0</value>
							</parameter>
							<parameter>
								<parameterid>label5</parameterid>
								<name>Limit Effect Controls</name>
								<value/>
							</parameter>
							<parameter>
								<parameterid>dochroma</parameterid>
								<name>Limit on Chroma</name>
								<value>TRUE</value>
							</parameter>
							<parameter>
								<parameterid>centerang</parameterid>
								<name>Chroma Center</name>
								<valuemin>-760</valuemin>
								<valuemax>760</valuemax>
								<value>322.256</value>
							</parameter>
							<parameter>
								<parameterid>chromawidth</parameterid>
								<name>Chroma Width</name>
								<valuemin>0</valuemin>
								<valuemax>360</valuemax>
								<value>7.49567</value>
							</parameter>
							<parameter>
								<parameterid>chromasoft</parameterid>
								<name>Chroma Softness</name>
								<valuemin>0</valuemin>
								<valuemax>180</valuemax>
								<value>10.6152</value>
							</parameter>
							<parameter>
								<parameterid>dosat</parameterid>
								<name>Limit on Saturation</name>
								<value>TRUE</value>
							</parameter>
							<parameter>
								<parameterid>satmin</parameterid>
								<name>Sat. Minimum</name>
								<valuemin>0</valuemin>
								<valuemax>125</valuemax>
								<value>36.7837</value>
							</parameter>
							<parameter>
								<parameterid>satwidth</parameterid>
								<name>Sat. Width</name>
								<valuemin>0</valuemin>
								<valuemax>125</valuemax>
								<value>84.0889</value>
							</parameter>
							<parameter>
								<parameterid>satsoft</parameterid>
								<name>Sat. Softness</name>
								<valuemin>0</valuemin>
								<valuemax>125</valuemax>
								<value>5</value>
							</parameter>
							<parameter>
								<parameterid>doluma</parameterid>
								<name>Limit on Luma</name>
								<value>TRUE</value>
							</parameter>
							<parameter>
								<parameterid>lumamin</parameterid>
								<name>Luma Minimum</name>
								<valuemin>0</valuemin>
								<valuemax>120</valuemax>
								<value>0.939667</value>
							</parameter>
							<parameter>
								<parameterid>lumawidth</parameterid>
								<name>Luma Width</name>
								<valuemin>0</valuemin>
								<valuemax>120</valuemax>
								<value>115.45</value>
							</parameter>
							<parameter>
								<parameterid>lumasoft</parameterid>
								<name>Luma Softness</name>
								<valuemin>0</valuemin>
								<valuemax>120</valuemax>
								<value>15.1099</value>
							</parameter>
							<parameter>
								<parameterid>label6</parameterid>
								<name>Edge Control</name>
								<value/>
							</parameter>
							<parameter>
								<parameterid>edgethin</parameterid>
								<name>Thin/Spread</name>
								<valuemin>-100</valuemin>
								<valuemax>100</valuemax>
								<value>0</value>
							</parameter>
							<parameter>
								<parameterid>edgefeather</parameterid>
								<name>Softening</name>
								<valuemin>0</valuemin>
								<valuemax>100</valuemax>
								<value>0</value>
							</parameter>
							<parameter>
								<parameterid>label7</parameterid>
								<name>Mask Control</name>
								<value/>
							</parameter>
							<parameter>
								<parameterid>invertsel</parameterid>
								<name>Invert</name>
								<value>FALSE</value>
							</parameter>
							<parameter>
								<parameterid>debugshow</parameterid>
								<name>Show Stats</name>
								<value>FALSE</value>
							</parameter>
						</effect>
					</filter>
					<filter>
						<enabled>TRUE</enabled>
						<start>-1</start>
						<end>-1</end>
						<effect>
							<name>G Simple Curves -20 white curve</name>
							<effectcategory>Nattress Big Box of Tricks - Levels and Curves</effectcategory>
							<effecttype>filter</effecttype>
							<mediatype>video</mediatype>
							<parameter>
								<parameterid>colourspace</parameterid>
								<name>Colour Space</name>
								<valuemin>1</valuemin>
								<valuemax>2</valuemax>
								<valuelist>
									<valueentry>
										<name>RGB</name>
										<value>1</value>
									</valueentry>
									<valueentry>
										<name>Y'CbCr</name>
										<value>2</value>
									</valueentry>
								</valuelist>
								<value>2</value>
							</parameter>
							<parameter>
								<parameterid>showcurves</parameterid>
								<name>Show Curves</name>
								<value>FALSE</value>
							</parameter>
							<parameter>
								<parameterid>lvar</parameterid>
								<name>Levels Controls</name>
								<value>string</value>
							</parameter>
							<parameter>
								<parameterid>inw</parameterid>
								<name>White Level</name>
								<valuemin>0</valuemin>
								<valuemax>255</valuemax>
								<value>255</value>
							</parameter>
							<parameter>
								<parameterid>inb</parameterid>
								<name>Black Level</name>
								<valuemin>0</valuemin>
								<valuemax>255</valuemax>
								<value>0</value>
							</parameter>
							<parameter>
								<parameterid>outw</parameterid>
								<name>White Output</name>
								<valuemin>0</valuemin>
								<valuemax>255</valuemax>
								<value>255</value>
							</parameter>
							<parameter>
								<parameterid>outb</parameterid>
								<name>Black Output</name>
								<valuemin>0</valuemin>
								<valuemax>255</valuemax>
								<value>0</value>
							</parameter>
							<parameter>
								<parameterid>cvar</parameterid>
								<name>Curves Controls</name>
								<value>string</value>
							</parameter>
							<parameter>
								<parameterid>curvew</parameterid>
								<name>White Curve</name>
								<valuemin>-100</valuemin>
								<valuemax>100</valuemax>
								<value>-5</value>
							</parameter>
							<parameter>
								<parameterid>curveb</parameterid>
								<name>Black Curve</name>
								<valuemin>-100</valuemin>
								<valuemax>100</valuemax>
								<value>0</value>
							</parameter>
							<parameter>
								<parameterid>clipoutput</parameterid>
								<name>Clip Output Levels</name>
								<value>TRUE</value>
							</parameter>
							<parameter>
								<parameterid>copyright</parameterid>
								<name>© www.nattress.com</name>
								<value>string</value>
							</parameter>
						</effect>
					</filter>
					<filter>
						<enabled>TRUE</enabled>
						<start>-1</start>
						<end>-1</end>
						<effect>
							<name>Color Corrector 3-way</name>
							<effectid>Color Corrector 3-way</effectid>
							<effectcategory>Color Correction</effectcategory>
							<effecttype>filter</effecttype>
							<mediatype>video</mediatype>
							<parameter>
								<parameterid>dispmode</parameterid>
								<name>Display Mode</name>
								<valuemin>1</valuemin>
								<valuemax>3</valuemax>
								<valuelist>
									<valueentry>
										<name>Final</name>
										<value>1</value>
									</valueentry>
									<valueentry>
										<name>Matte</name>
										<value>2</value>
									</valueentry>
									<valueentry>
										<name>Source</name>
										<value>3</value>
									</valueentry>
								</valuelist>
								<value>1</value>
							</parameter>
							<parameter>
								<parameterid>label1</parameterid>
								<name>Blacks Controls</name>
								<value/>
							</parameter>
							<parameter>
								<parameterid>blacklevel</parameterid>
								<name>Level</name>
								<valuemin>-196</valuemin>
								<valuemax>254</valuemax>
								<value>0</value>
							</parameter>
							<parameter>
								<parameterid>b_hue</parameterid>
								<name>Angle</name>
								<valuemin>-180</valuemin>
								<valuemax>180</valuemax>
								<value>-33</value>
							</parameter>
							<parameter>
								<parameterid>b_mag</parameterid>
								<name>Magnitude</name>
								<valuemin>0</valuemin>
								<valuemax>200</valuemax>
								<value>0</value>
							</parameter>
							<parameter>
								<parameterid>label2</parameterid>
								<name>Midrange Controls</name>
								<value/>
							</parameter>
							<parameter>
								<parameterid>mids</parameterid>
								<name>Level</name>
								<valuemin>0</valuemin>
								<valuemax>200</valuemax>
								<value>100</value>
							</parameter>
							<parameter>
								<parameterid>m_hue</parameterid>
								<name>Angle</name>
								<valuemin>-180</valuemin>
								<valuemax>180</valuemax>
								<value>-33</value>
							</parameter>
							<parameter>
								<parameterid>m_mag</parameterid>
								<name>Magnitude</name>
								<valuemin>0</valuemin>
								<valuemax>200</valuemax>
								<value>0</value>
							</parameter>
							<parameter>
								<parameterid>label3</parameterid>
								<name>Highlight Controls</name>
								<value/>
							</parameter>
							<parameter>
								<parameterid>highlights</parameterid>
								<name>Level</name>
								<valuemin>64</valuemin>
								<valuemax>509</valuemax>
								<value>255</value>
							</parameter>
							<parameter>
								<parameterid>h_hue</parameterid>
								<name>Angle</name>
								<valuemin>-180</valuemin>
								<valuemax>180</valuemax>
								<value>-33</value>
							</parameter>
							<parameter>
								<parameterid>h_mag</parameterid>
								<name>Magnitude</name>
								<valuemin>0</valuemin>
								<valuemax>200</valuemax>
								<value>0</value>
							</parameter>
							<parameter>
								<parameterid>label4</parameterid>
								<name>Color Controls</name>
								<value/>
							</parameter>
							<parameter>
								<parameterid>chroma</parameterid>
								<name>Saturation</name>
								<valuemin>0</valuemin>
								<valuemax>200</valuemax>
								<value>92</value>
							</parameter>
							<parameter>
								<parameterid>label5</parameterid>
								<name>Limit Effect Controls</name>
								<value/>
							</parameter>
							<parameter>
								<parameterid>dochroma</parameterid>
								<name>Limit on Chroma</name>
								<value>FALSE</value>
							</parameter>
							<parameter>
								<parameterid>centerang</parameterid>
								<name>Chroma Center</name>
								<valuemin>-760</valuemin>
								<valuemax>760</valuemax>
								<value>-110</value>
							</parameter>
							<parameter>
								<parameterid>chromawidth</parameterid>
								<name>Chroma Width</name>
								<valuemin>0</valuemin>
								<valuemax>360</valuemax>
								<value>15</value>
							</parameter>
							<parameter>
								<parameterid>chromasoft</parameterid>
								<name>Chroma Softness</name>
								<valuemin>0</valuemin>
								<valuemax>180</valuemax>
								<value>10</value>
							</parameter>
							<parameter>
								<parameterid>dosat</parameterid>
								<name>Limit on Saturation</name>
								<value>FALSE</value>
							</parameter>
							<parameter>
								<parameterid>satmin</parameterid>
								<name>Sat. Minimum</name>
								<valuemin>0</valuemin>
								<valuemax>125</valuemax>
								<value>35</value>
							</parameter>
							<parameter>
								<parameterid>satwidth</parameterid>
								<name>Sat. Width</name>
								<valuemin>0</valuemin>
								<valuemax>125</valuemax>
								<value>40</value>
							</parameter>
							<parameter>
								<parameterid>satsoft</parameterid>
								<name>Sat. Softness</name>
								<valuemin>0</valuemin>
								<valuemax>125</valuemax>
								<value>20</value>
							</parameter>
							<parameter>
								<parameterid>doluma</parameterid>
								<name>Limit on Luma</name>
								<value>FALSE</value>
							</parameter>
							<parameter>
								<parameterid>lumamin</parameterid>
								<name>Luma Minimum</name>
								<valuemin>0</valuemin>
								<valuemax>120</valuemax>
								<value>0</value>
							</parameter>
							<parameter>
								<parameterid>lumawidth</parameterid>
								<name>Luma Width</name>
								<valuemin>0</valuemin>
								<valuemax>120</valuemax>
								<value>40</value>
							</parameter>
							<parameter>
								<parameterid>lumasoft</parameterid>
								<name>Luma Softness</name>
								<valuemin>0</valuemin>
								<valuemax>120</valuemax>
								<value>20</value>
							</parameter>
							<parameter>
								<parameterid>label6</parameterid>
								<name>Edge Control</name>
								<value/>
							</parameter>
							<parameter>
								<parameterid>edgethin</parameterid>
								<name>Thin/Spread</name>
								<valuemin>-100</valuemin>
								<valuemax>100</valuemax>
								<value>0</value>
							</parameter>
							<parameter>
								<parameterid>edgefeather</parameterid>
								<name>Softening</name>
								<valuemin>0</valuemin>
								<valuemax>100</valuemax>
								<value>0</value>
							</parameter>
							<parameter>
								<parameterid>label7</parameterid>
								<name>Mask Control</name>
								<value/>
							</parameter>
							<parameter>
								<parameterid>invertsel</parameterid>
								<name>Invert</name>
								<value>FALSE</value>
							</parameter>
							<parameter>
								<parameterid>debugshow</parameterid>
								<name>Show Stats</name>
								<value>FALSE</value>
							</parameter>
						</effect>
					</filter>
					<filter>
						<enabled>FALSE</enabled>
						<start>-1</start>
						<end>-1</end>
						<effect>
							<name>Color Corrector 3-way mindre metning</name>
							<effectid>Color Corrector 3-way</effectid>
							<effectcategory>Color Correction</effectcategory>
							<effecttype>filter</effecttype>
							<mediatype>video</mediatype>
							<parameter>
								<parameterid>dispmode</parameterid>
								<name>Display Mode</name>
								<valuemin>1</valuemin>
								<valuemax>3</valuemax>
								<valuelist>
									<valueentry>
										<name>Final</name>
										<value>1</value>
									</valueentry>
									<valueentry>
										<name>Matte</name>
										<value>2</value>
									</valueentry>
									<valueentry>
										<name>Source</name>
										<value>3</value>
									</valueentry>
								</valuelist>
								<value>1</value>
							</parameter>
							<parameter>
								<parameterid>label1</parameterid>
								<name>Blacks Controls</name>
								<value/>
							</parameter>
							<parameter>
								<parameterid>blacklevel</parameterid>
								<name>Level</name>
								<valuemin>-196</valuemin>
								<valuemax>254</valuemax>
								<value>0</value>
							</parameter>
							<parameter>
								<parameterid>b_hue</parameterid>
								<name>Angle</name>
								<valuemin>-180</valuemin>
								<valuemax>180</valuemax>
								<value>-33</value>
							</parameter>
							<parameter>
								<parameterid>b_mag</parameterid>
								<name>Magnitude</name>
								<valuemin>0</valuemin>
								<valuemax>200</valuemax>
								<value>0</value>
							</parameter>
							<parameter>
								<parameterid>label2</parameterid>
								<name>Midrange Controls</name>
								<value/>
							</parameter>
							<parameter>
								<parameterid>mids</parameterid>
								<name>Level</name>
								<valuemin>0</valuemin>
								<valuemax>200</valuemax>
								<value>100</value>
							</parameter>
							<parameter>
								<parameterid>m_hue</parameterid>
								<name>Angle</name>
								<valuemin>-180</valuemin>
								<valuemax>180</valuemax>
								<value>-33</value>
							</parameter>
							<parameter>
								<parameterid>m_mag</parameterid>
								<name>Magnitude</name>
								<valuemin>0</valuemin>
								<valuemax>200</valuemax>
								<value>0</value>
							</parameter>
							<parameter>
								<parameterid>label3</parameterid>
								<name>Highlight Controls</name>
								<value/>
							</parameter>
							<parameter>
								<parameterid>highlights</parameterid>
								<name>Level</name>
								<valuemin>64</valuemin>
								<valuemax>509</valuemax>
								<value>255</value>
							</parameter>
							<parameter>
								<parameterid>h_hue</parameterid>
								<name>Angle</name>
								<valuemin>-180</valuemin>
								<valuemax>180</valuemax>
								<value>-33</value>
							</parameter>
							<parameter>
								<parameterid>h_mag</parameterid>
								<name>Magnitude</name>
								<valuemin>0</valuemin>
								<valuemax>200</valuemax>
								<value>0</value>
							</parameter>
							<parameter>
								<parameterid>label4</parameterid>
								<name>Color Controls</name>
								<value/>
							</parameter>
							<parameter>
								<parameterid>chroma</parameterid>
								<name>Saturation</name>
								<valuemin>0</valuemin>
								<valuemax>200</valuemax>
								<value>90</value>
							</parameter>
							<parameter>
								<parameterid>label5</parameterid>
								<name>Limit Effect Controls</name>
								<value/>
							</parameter>
							<parameter>
								<parameterid>dochroma</parameterid>
								<name>Limit on Chroma</name>
								<value>FALSE</value>
							</parameter>
							<parameter>
								<parameterid>centerang</parameterid>
								<name>Chroma Center</name>
								<valuemin>-760</valuemin>
								<valuemax>760</valuemax>
								<value>-110</value>
							</parameter>
							<parameter>
								<parameterid>chromawidth</parameterid>
								<name>Chroma Width</name>
								<valuemin>0</valuemin>
								<valuemax>360</valuemax>
								<value>15</value>
							</parameter>
							<parameter>
								<parameterid>chromasoft</parameterid>
								<name>Chroma Softness</name>
								<valuemin>0</valuemin>
								<valuemax>180</valuemax>
								<value>10</value>
							</parameter>
							<parameter>
								<parameterid>dosat</parameterid>
								<name>Limit on Saturation</name>
								<value>FALSE</value>
							</parameter>
							<parameter>
								<parameterid>satmin</parameterid>
								<name>Sat. Minimum</name>
								<valuemin>0</valuemin>
								<valuemax>125</valuemax>
								<value>35</value>
							</parameter>
							<parameter>
								<parameterid>satwidth</parameterid>
								<name>Sat. Width</name>
								<valuemin>0</valuemin>
								<valuemax>125</valuemax>
								<value>40</value>
							</parameter>
							<parameter>
								<parameterid>satsoft</parameterid>
								<name>Sat. Softness</name>
								<valuemin>0</valuemin>
								<valuemax>125</valuemax>
								<value>20</value>
							</parameter>
							<parameter>
								<parameterid>doluma</parameterid>
								<name>Limit on Luma</name>
								<value>FALSE</value>
							</parameter>
							<parameter>
								<parameterid>lumamin</parameterid>
								<name>Luma Minimum</name>
								<valuemin>0</valuemin>
								<valuemax>120</valuemax>
								<value>0</value>
							</parameter>
							<parameter>
								<parameterid>lumawidth</parameterid>
								<name>Luma Width</name>
								<valuemin>0</valuemin>
								<valuemax>120</valuemax>
								<value>40</value>
							</parameter>
							<parameter>
								<parameterid>lumasoft</parameterid>
								<name>Luma Softness</name>
								<valuemin>0</valuemin>
								<valuemax>120</valuemax>
								<value>20</value>
							</parameter>
							<parameter>
								<parameterid>label6</parameterid>
								<name>Edge Control</name>
								<value/>
							</parameter>
							<parameter>
								<parameterid>edgethin</parameterid>
								<name>Thin/Spread</name>
								<valuemin>-100</valuemin>
								<valuemax>100</valuemax>
								<value>0</value>
							</parameter>
							<parameter>
								<parameterid>edgefeather</parameterid>
								<name>Softening</name>
								<valuemin>0</valuemin>
								<valuemax>100</valuemax>
								<value>0</value>
							</parameter>
							<parameter>
								<parameterid>label7</parameterid>
								<name>Mask Control</name>
								<value/>
							</parameter>
							<parameter>
								<parameterid>invertsel</parameterid>
								<name>Invert</name>
								<value>FALSE</value>
							</parameter>
							<parameter>
								<parameterid>debugshow</parameterid>
								<name>Show Stats</name>
								<value>FALSE</value>
							</parameter>
						</effect>
					</filter>
					<sourcetrack>
						<mediatype>video</mediatype>
					</sourcetrack>
					<link>
						<linkclipref>00715001.MOV</linkclipref>
						<mediatype>video</mediatype>
						<trackindex>1</trackindex>
						<clipindex>27</clipindex>
					</link>
					<link>
						<linkclipref>00715001.MOV2</linkclipref>
						<mediatype>audio</mediatype>
						<trackindex>1</trackindex>
						<clipindex>23</clipindex>
					</link>
					<link>
						<linkclipref>00715001.MOV3</linkclipref>
						<mediatype>audio</mediatype>
						<trackindex>2</trackindex>
						<clipindex>23</clipindex>
					</link>
					<fielddominance>upper</fielddominance>
					<itemhistory>
						<uuid>899CA195-BFEF-41F5-B963-0E491357BA16</uuid>
					</itemhistory>
				</clipitem>
				<clipitem id="00718001.MOV">
					<name>00718001.MOV</name>
					<duration>2232</duration>
					<rate>
						<ntsc>FALSE</ntsc>
						<timebase>25</timebase>
					</rate>
					<in>1059</in>
					<out>1152</out>
					<start>3567</start>
					<end>3660</end>
					<pixelaspectratio>Square</pixelaspectratio>
					<enabled>TRUE</enabled>
					<anamorphic>FALSE</anamorphic>
					<alphatype>none</alphatype>
					<masterclipid>00718001.MOV1</masterclipid>
					<logginginfo>
						<scene/>
						<shottake/>
						<lognote/>
						<good>FALSE</good>
					</logginginfo>
					<labels>
						<label2/>
					</labels>
					<comments>
						<mastercomment1/>
						<mastercomment2/>
						<mastercomment3/>
						<mastercomment4/>
					</comments>
					<file id="00718001 ">
						<name>00718001.MOV</name>
						<pathurl>file://localhost/Volumes/Askepott/Prosjekter/DNPR637010_Kra%CC%8Akeklubben_TEM_011212/Video/MELLOMSTIKK/S01E05%20Dyrebolig/00718001.MOV</pathurl>
						<rate>
							<timebase>25</timebase>
						</rate>
						<duration>2232</duration>
						<timecode>
							<rate>
								<timebase>25</timebase>
							</rate>
							<string>17:47:20:24</string>
							<frame>1601024</frame>
							<displayformat>NDF</displayformat>
							<source>source</source>
							<reel>
								<name>Flash XDR</name>
							</reel>
						</timecode>
						<media>
							<video>
								<duration>2232</duration>
								<samplecharacteristics>
									<width>1920</width>
									<height>1080</height>
								</samplecharacteristics>
							</video>
							<audio>
								<samplecharacteristics>
									<samplerate>48000</samplerate>
									<depth>24</depth>
								</samplecharacteristics>
								<channelcount>1</channelcount>
							</audio>
							<audio>
								<samplecharacteristics>
									<samplerate>48000</samplerate>
									<depth>24</depth>
								</samplecharacteristics>
								<channelcount>1</channelcount>
							</audio>
						</media>
					</file>
					<filter>
						<enabled>TRUE</enabled>
						<start>-1</start>
						<end>-1</end>
						<effect>
							<name>G Simple Curves -20 white curve</name>
							<effectcategory>Nattress Big Box of Tricks - Levels and Curves</effectcategory>
							<effecttype>filter</effecttype>
							<mediatype>video</mediatype>
							<parameter>
								<parameterid>colourspace</parameterid>
								<name>Colour Space</name>
								<valuemin>1</valuemin>
								<valuemax>2</valuemax>
								<valuelist>
									<valueentry>
										<name>RGB</name>
										<value>1</value>
									</valueentry>
									<valueentry>
										<name>Y'CbCr</name>
										<value>2</value>
									</valueentry>
								</valuelist>
								<value>2</value>
							</parameter>
							<parameter>
								<parameterid>showcurves</parameterid>
								<name>Show Curves</name>
								<value>FALSE</value>
							</parameter>
							<parameter>
								<parameterid>lvar</parameterid>
								<name>Levels Controls</name>
								<value>string</value>
							</parameter>
							<parameter>
								<parameterid>inw</parameterid>
								<name>White Level</name>
								<valuemin>0</valuemin>
								<valuemax>255</valuemax>
								<value>255</value>
							</parameter>
							<parameter>
								<parameterid>inb</parameterid>
								<name>Black Level</name>
								<valuemin>0</valuemin>
								<valuemax>255</valuemax>
								<value>0</value>
							</parameter>
							<parameter>
								<parameterid>outw</parameterid>
								<name>White Output</name>
								<valuemin>0</valuemin>
								<valuemax>255</valuemax>
								<value>255</value>
							</parameter>
							<parameter>
								<parameterid>outb</parameterid>
								<name>Black Output</name>
								<valuemin>0</valuemin>
								<valuemax>255</valuemax>
								<value>0</value>
							</parameter>
							<parameter>
								<parameterid>cvar</parameterid>
								<name>Curves Controls</name>
								<value>string</value>
							</parameter>
							<parameter>
								<parameterid>curvew</parameterid>
								<name>White Curve</name>
								<valuemin>-100</valuemin>
								<valuemax>100</valuemax>
								<value>-15</value>
							</parameter>
							<parameter>
								<parameterid>curveb</parameterid>
								<name>Black Curve</name>
								<valuemin>-100</valuemin>
								<valuemax>100</valuemax>
								<value>0</value>
							</parameter>
							<parameter>
								<parameterid>clipoutput</parameterid>
								<name>Clip Output Levels</name>
								<value>TRUE</value>
							</parameter>
							<parameter>
								<parameterid>copyright</parameterid>
								<name>© www.nattress.com</name>
								<value>string</value>
							</parameter>
						</effect>
					</filter>
					<filter>
						<start>-1</start>
						<end>-1</end>
						<effect>
							<name>Color Corrector 3-way mindre metning</name>
							<effectid>Color Corrector 3-way</effectid>
							<effectcategory>Color Correction</effectcategory>
							<effecttype>filter</effecttype>
							<mediatype>video</mediatype>
							<parameter>
								<parameterid>dispmode</parameterid>
								<name>Display Mode</name>
								<valuemin>1</valuemin>
								<valuemax>3</valuemax>
								<valuelist>
									<valueentry>
										<name>Final</name>
										<value>1</value>
									</valueentry>
									<valueentry>
										<name>Matte</name>
										<value>2</value>
									</valueentry>
									<valueentry>
										<name>Source</name>
										<value>3</value>
									</valueentry>
								</valuelist>
								<value>1</value>
							</parameter>
							<parameter>
								<parameterid>label1</parameterid>
								<name>Blacks Controls</name>
								<value/>
							</parameter>
							<parameter>
								<parameterid>blacklevel</parameterid>
								<name>Level</name>
								<valuemin>-196</valuemin>
								<valuemax>254</valuemax>
								<value>0</value>
							</parameter>
							<parameter>
								<parameterid>b_hue</parameterid>
								<name>Angle</name>
								<valuemin>-180</valuemin>
								<valuemax>180</valuemax>
								<value>-33</value>
							</parameter>
							<parameter>
								<parameterid>b_mag</parameterid>
								<name>Magnitude</name>
								<valuemin>0</valuemin>
								<valuemax>200</valuemax>
								<value>0</value>
							</parameter>
							<parameter>
								<parameterid>label2</parameterid>
								<name>Midrange Controls</name>
								<value/>
							</parameter>
							<parameter>
								<parameterid>mids</parameterid>
								<name>Level</name>
								<valuemin>0</valuemin>
								<valuemax>200</valuemax>
								<value>100</value>
							</parameter>
							<parameter>
								<parameterid>m_hue</parameterid>
								<name>Angle</name>
								<valuemin>-180</valuemin>
								<valuemax>180</valuemax>
								<value>-33</value>
							</parameter>
							<parameter>
								<parameterid>m_mag</parameterid>
								<name>Magnitude</name>
								<valuemin>0</valuemin>
								<valuemax>200</valuemax>
								<value>0</value>
							</parameter>
							<parameter>
								<parameterid>label3</parameterid>
								<name>Highlight Controls</name>
								<value/>
							</parameter>
							<parameter>
								<parameterid>highlights</parameterid>
								<name>Level</name>
								<valuemin>64</valuemin>
								<valuemax>509</valuemax>
								<value>255</value>
							</parameter>
							<parameter>
								<parameterid>h_hue</parameterid>
								<name>Angle</name>
								<valuemin>-180</valuemin>
								<valuemax>180</valuemax>
								<value>-33</value>
							</parameter>
							<parameter>
								<parameterid>h_mag</parameterid>
								<name>Magnitude</name>
								<valuemin>0</valuemin>
								<valuemax>200</valuemax>
								<value>0</value>
							</parameter>
							<parameter>
								<parameterid>label4</parameterid>
								<name>Color Controls</name>
								<value/>
							</parameter>
							<parameter>
								<parameterid>chroma</parameterid>
								<name>Saturation</name>
								<valuemin>0</valuemin>
								<valuemax>200</valuemax>
								<value>90</value>
							</parameter>
							<parameter>
								<parameterid>label5</parameterid>
								<name>Limit Effect Controls</name>
								<value/>
							</parameter>
							<parameter>
								<parameterid>dochroma</parameterid>
								<name>Limit on Chroma</name>
								<value>FALSE</value>
							</parameter>
							<parameter>
								<parameterid>centerang</parameterid>
								<name>Chroma Center</name>
								<valuemin>-760</valuemin>
								<valuemax>760</valuemax>
								<value>-110</value>
							</parameter>
							<parameter>
								<parameterid>chromawidth</parameterid>
								<name>Chroma Width</name>
								<valuemin>0</valuemin>
								<valuemax>360</valuemax>
								<value>15</value>
							</parameter>
							<parameter>
								<parameterid>chromasoft</parameterid>
								<name>Chroma Softness</name>
								<valuemin>0</valuemin>
								<valuemax>180</valuemax>
								<value>10</value>
							</parameter>
							<parameter>
								<parameterid>dosat</parameterid>
								<name>Limit on Saturation</name>
								<value>FALSE</value>
							</parameter>
							<parameter>
								<parameterid>satmin</parameterid>
								<name>Sat. Minimum</name>
								<valuemin>0</valuemin>
								<valuemax>125</valuemax>
								<value>35</value>
							</parameter>
							<parameter>
								<parameterid>satwidth</parameterid>
								<name>Sat. Width</name>
								<valuemin>0</valuemin>
								<valuemax>125</valuemax>
								<value>40</value>
							</parameter>
							<parameter>
								<parameterid>satsoft</parameterid>
								<name>Sat. Softness</name>
								<valuemin>0</valuemin>
								<valuemax>125</valuemax>
								<value>20</value>
							</parameter>
							<parameter>
								<parameterid>doluma</parameterid>
								<name>Limit on Luma</name>
								<value>FALSE</value>
							</parameter>
							<parameter>
								<parameterid>lumamin</parameterid>
								<name>Luma Minimum</name>
								<valuemin>0</valuemin>
								<valuemax>120</valuemax>
								<value>0</value>
							</parameter>
							<parameter>
								<parameterid>lumawidth</parameterid>
								<name>Luma Width</name>
								<valuemin>0</valuemin>
								<valuemax>120</valuemax>
								<value>40</value>
							</parameter>
							<parameter>
								<parameterid>lumasoft</parameterid>
								<name>Luma Softness</name>
								<valuemin>0</valuemin>
								<valuemax>120</valuemax>
								<value>20</value>
							</parameter>
							<parameter>
								<parameterid>label6</parameterid>
								<name>Edge Control</name>
								<value/>
							</parameter>
							<parameter>
								<parameterid>edgethin</parameterid>
								<name>Thin/Spread</name>
								<valuemin>-100</valuemin>
								<valuemax>100</valuemax>
								<value>0</value>
							</parameter>
							<parameter>
								<parameterid>edgefeather</parameterid>
								<name>Softening</name>
								<valuemin>0</valuemin>
								<valuemax>100</valuemax>
								<value>0</value>
							</parameter>
							<parameter>
								<parameterid>label7</parameterid>
								<name>Mask Control</name>
								<value/>
							</parameter>
							<parameter>
								<parameterid>invertsel</parameterid>
								<name>Invert</name>
								<value>FALSE</value>
							</parameter>
							<parameter>
								<parameterid>debugshow</parameterid>
								<name>Show Stats</name>
								<value>FALSE</value>
							</parameter>
						</effect>
					</filter>
					<sourcetrack>
						<mediatype>video</mediatype>
					</sourcetrack>
					<link>
						<linkclipref>00718001.MOV</linkclipref>
						<mediatype>video</mediatype>
						<trackindex>1</trackindex>
						<clipindex>28</clipindex>
					</link>
					<link>
						<linkclipref>00718001.MOV2</linkclipref>
						<mediatype>audio</mediatype>
						<trackindex>1</trackindex>
						<clipindex>24</clipindex>
					</link>
					<link>
						<linkclipref>00718001.MOV3</linkclipref>
						<mediatype>audio</mediatype>
						<trackindex>2</trackindex>
						<clipindex>24</clipindex>
					</link>
					<fielddominance>upper</fielddominance>
					<itemhistory>
						<uuid>D12E7144-0247-4224-ADFB-1B796D2D96C4</uuid>
					</itemhistory>
				</clipitem>
				<clipitem id="00715001.MOV4">
					<name>00715001.MOV</name>
					<duration>3156</duration>
					<rate>
						<ntsc>FALSE</ntsc>
						<timebase>25</timebase>
					</rate>
					<in>1806</in>
					<out>1920</out>
					<start>3660</start>
					<end>3774</end>
					<pixelaspectratio>Square</pixelaspectratio>
					<enabled>TRUE</enabled>
					<anamorphic>FALSE</anamorphic>
					<alphatype>none</alphatype>
					<masterclipid>00715001.MOV1</masterclipid>
					<logginginfo>
						<scene/>
						<shottake/>
						<lognote/>
						<good>FALSE</good>
					</logginginfo>
					<labels>
						<label2/>
					</labels>
					<comments>
						<mastercomment1/>
						<mastercomment2/>
						<mastercomment3/>
						<mastercomment4/>
					</comments>
					<file id="00715001 "/>
					<filter>
						<start>-1</start>
						<end>-1</end>
						<effect>
							<name>Color Corrector - Lua til Carina</name>
							<effectid>Color Corrector</effectid>
							<effectcategory>Color Correction</effectcategory>
							<effecttype>filter</effecttype>
							<mediatype>video</mediatype>
							<parameter>
								<parameterid>dispmode</parameterid>
								<name>Display Mode</name>
								<valuemin>1</valuemin>
								<valuemax>3</valuemax>
								<valuelist>
									<valueentry>
										<name>Final</name>
										<value>1</value>
									</valueentry>
									<valueentry>
										<name>Matte</name>
										<value>2</value>
									</valueentry>
									<valueentry>
										<name>Source</name>
										<value>3</value>
									</valueentry>
								</valuelist>
								<value>1</value>
							</parameter>
							<parameter>
								<parameterid>label1</parameterid>
								<name>Level Controls</name>
								<value/>
							</parameter>
							<parameter>
								<parameterid>highlights</parameterid>
								<name>Highlights</name>
								<valuemin>64</valuemin>
								<valuemax>509</valuemax>
								<value>247</value>
							</parameter>
							<parameter>
								<parameterid>mids</parameterid>
								<name>Mids</name>
								<valuemin>0</valuemin>
								<valuemax>200</valuemax>
								<value>100</value>
							</parameter>
							<parameter>
								<parameterid>blacklevel</parameterid>
								<name>Blacks</name>
								<valuemin>-196</valuemin>
								<valuemax>254</valuemax>
								<value>-3</value>
							</parameter>
							<parameter>
								<parameterid>label2</parameterid>
								<name>Color Balance</name>
								<value/>
							</parameter>
							<parameter>
								<parameterid>hue</parameterid>
								<name>Angle</name>
								<valuemin>-180</valuemin>
								<valuemax>180</valuemax>
								<value>-33</value>
							</parameter>
							<parameter>
								<parameterid>mag</parameterid>
								<name>Magnitude</name>
								<valuemin>0</valuemin>
								<valuemax>200</valuemax>
								<value>0</value>
							</parameter>
							<parameter>
								<parameterid>label4</parameterid>
								<name>Color Controls</name>
								<value/>
							</parameter>
							<parameter>
								<parameterid>chroma</parameterid>
								<name>Saturation</name>
								<valuemin>0</valuemin>
								<valuemax>200</valuemax>
								<value>84</value>
							</parameter>
							<parameter>
								<parameterid>phase</parameterid>
								<name>Phase shift</name>
								<valuemin>-180</valuemin>
								<valuemax>180</valuemax>
								<value>0</value>
							</parameter>
							<parameter>
								<parameterid>label5</parameterid>
								<name>Limit Effect Controls</name>
								<value/>
							</parameter>
							<parameter>
								<parameterid>dochroma</parameterid>
								<name>Limit on Chroma</name>
								<value>TRUE</value>
							</parameter>
							<parameter>
								<parameterid>centerang</parameterid>
								<name>Chroma Center</name>
								<valuemin>-760</valuemin>
								<valuemax>760</valuemax>
								<value>322.256</value>
							</parameter>
							<parameter>
								<parameterid>chromawidth</parameterid>
								<name>Chroma Width</name>
								<valuemin>0</valuemin>
								<valuemax>360</valuemax>
								<value>7.49567</value>
							</parameter>
							<parameter>
								<parameterid>chromasoft</parameterid>
								<name>Chroma Softness</name>
								<valuemin>0</valuemin>
								<valuemax>180</valuemax>
								<value>10.6152</value>
							</parameter>
							<parameter>
								<parameterid>dosat</parameterid>
								<name>Limit on Saturation</name>
								<value>TRUE</value>
							</parameter>
							<parameter>
								<parameterid>satmin</parameterid>
								<name>Sat. Minimum</name>
								<valuemin>0</valuemin>
								<valuemax>125</valuemax>
								<value>36.7837</value>
							</parameter>
							<parameter>
								<parameterid>satwidth</parameterid>
								<name>Sat. Width</name>
								<valuemin>0</valuemin>
								<valuemax>125</valuemax>
								<value>84.0889</value>
							</parameter>
							<parameter>
								<parameterid>satsoft</parameterid>
								<name>Sat. Softness</name>
								<valuemin>0</valuemin>
								<valuemax>125</valuemax>
								<value>5</value>
							</parameter>
							<parameter>
								<parameterid>doluma</parameterid>
								<name>Limit on Luma</name>
								<value>TRUE</value>
							</parameter>
							<parameter>
								<parameterid>lumamin</parameterid>
								<name>Luma Minimum</name>
								<valuemin>0</valuemin>
								<valuemax>120</valuemax>
								<value>0.939667</value>
							</parameter>
							<parameter>
								<parameterid>lumawidth</parameterid>
								<name>Luma Width</name>
								<valuemin>0</valuemin>
								<valuemax>120</valuemax>
								<value>115.45</value>
							</parameter>
							<parameter>
								<parameterid>lumasoft</parameterid>
								<name>Luma Softness</name>
								<valuemin>0</valuemin>
								<valuemax>120</valuemax>
								<value>15.1099</value>
							</parameter>
							<parameter>
								<parameterid>label6</parameterid>
								<name>Edge Control</name>
								<value/>
							</parameter>
							<parameter>
								<parameterid>edgethin</parameterid>
								<name>Thin/Spread</name>
								<valuemin>-100</valuemin>
								<valuemax>100</valuemax>
								<value>0</value>
							</parameter>
							<parameter>
								<parameterid>edgefeather</parameterid>
								<name>Softening</name>
								<valuemin>0</valuemin>
								<valuemax>100</valuemax>
								<value>0</value>
							</parameter>
							<parameter>
								<parameterid>label7</parameterid>
								<name>Mask Control</name>
								<value/>
							</parameter>
							<parameter>
								<parameterid>invertsel</parameterid>
								<name>Invert</name>
								<value>FALSE</value>
							</parameter>
							<parameter>
								<parameterid>debugshow</parameterid>
								<name>Show Stats</name>
								<value>FALSE</value>
							</parameter>
						</effect>
					</filter>
					<filter>
						<start>-1</start>
						<end>-1</end>
						<effect>
							<name>Color Corrector 3-way mindre metning</name>
							<effectid>Color Corrector 3-way</effectid>
							<effectcategory>Color Correction</effectcategory>
							<effecttype>filter</effecttype>
							<mediatype>video</mediatype>
							<parameter>
								<parameterid>dispmode</parameterid>
								<name>Display Mode</name>
								<valuemin>1</valuemin>
								<valuemax>3</valuemax>
								<valuelist>
									<valueentry>
										<name>Final</name>
										<value>1</value>
									</valueentry>
									<valueentry>
										<name>Matte</name>
										<value>2</value>
									</valueentry>
									<valueentry>
										<name>Source</name>
										<value>3</value>
									</valueentry>
								</valuelist>
								<value>1</value>
							</parameter>
							<parameter>
								<parameterid>label1</parameterid>
								<name>Blacks Controls</name>
								<value/>
							</parameter>
							<parameter>
								<parameterid>blacklevel</parameterid>
								<name>Level</name>
								<valuemin>-196</valuemin>
								<valuemax>254</valuemax>
								<value>0</value>
							</parameter>
							<parameter>
								<parameterid>b_hue</parameterid>
								<name>Angle</name>
								<valuemin>-180</valuemin>
								<valuemax>180</valuemax>
								<value>-33</value>
							</parameter>
							<parameter>
								<parameterid>b_mag</parameterid>
								<name>Magnitude</name>
								<valuemin>0</valuemin>
								<valuemax>200</valuemax>
								<value>0</value>
							</parameter>
							<parameter>
								<parameterid>label2</parameterid>
								<name>Midrange Controls</name>
								<value/>
							</parameter>
							<parameter>
								<parameterid>mids</parameterid>
								<name>Level</name>
								<valuemin>0</valuemin>
								<valuemax>200</valuemax>
								<value>100</value>
							</parameter>
							<parameter>
								<parameterid>m_hue</parameterid>
								<name>Angle</name>
								<valuemin>-180</valuemin>
								<valuemax>180</valuemax>
								<value>-33</value>
							</parameter>
							<parameter>
								<parameterid>m_mag</parameterid>
								<name>Magnitude</name>
								<valuemin>0</valuemin>
								<valuemax>200</valuemax>
								<value>0</value>
							</parameter>
							<parameter>
								<parameterid>label3</parameterid>
								<name>Highlight Controls</name>
								<value/>
							</parameter>
							<parameter>
								<parameterid>highlights</parameterid>
								<name>Level</name>
								<valuemin>64</valuemin>
								<valuemax>509</valuemax>
								<value>255</value>
							</parameter>
							<parameter>
								<parameterid>h_hue</parameterid>
								<name>Angle</name>
								<valuemin>-180</valuemin>
								<valuemax>180</valuemax>
								<value>-33</value>
							</parameter>
							<parameter>
								<parameterid>h_mag</parameterid>
								<name>Magnitude</name>
								<valuemin>0</valuemin>
								<valuemax>200</valuemax>
								<value>0</value>
							</parameter>
							<parameter>
								<parameterid>label4</parameterid>
								<name>Color Controls</name>
								<value/>
							</parameter>
							<parameter>
								<parameterid>chroma</parameterid>
								<name>Saturation</name>
								<valuemin>0</valuemin>
								<valuemax>200</valuemax>
								<value>90</value>
							</parameter>
							<parameter>
								<parameterid>label5</parameterid>
								<name>Limit Effect Controls</name>
								<value/>
							</parameter>
							<parameter>
								<parameterid>dochroma</parameterid>
								<name>Limit on Chroma</name>
								<value>FALSE</value>
							</parameter>
							<parameter>
								<parameterid>centerang</parameterid>
								<name>Chroma Center</name>
								<valuemin>-760</valuemin>
								<valuemax>760</valuemax>
								<value>-110</value>
							</parameter>
							<parameter>
								<parameterid>chromawidth</parameterid>
								<name>Chroma Width</name>
								<valuemin>0</valuemin>
								<valuemax>360</valuemax>
								<value>15</value>
							</parameter>
							<parameter>
								<parameterid>chromasoft</parameterid>
								<name>Chroma Softness</name>
								<valuemin>0</valuemin>
								<valuemax>180</valuemax>
								<value>10</value>
							</parameter>
							<parameter>
								<parameterid>dosat</parameterid>
								<name>Limit on Saturation</name>
								<value>FALSE</value>
							</parameter>
							<parameter>
								<parameterid>satmin</parameterid>
								<name>Sat. Minimum</name>
								<valuemin>0</valuemin>
								<valuemax>125</valuemax>
								<value>35</value>
							</parameter>
							<parameter>
								<parameterid>satwidth</parameterid>
								<name>Sat. Width</name>
								<valuemin>0</valuemin>
								<valuemax>125</valuemax>
								<value>40</value>
							</parameter>
							<parameter>
								<parameterid>satsoft</parameterid>
								<name>Sat. Softness</name>
								<valuemin>0</valuemin>
								<valuemax>125</valuemax>
								<value>20</value>
							</parameter>
							<parameter>
								<parameterid>doluma</parameterid>
								<name>Limit on Luma</name>
								<value>FALSE</value>
							</parameter>
							<parameter>
								<parameterid>lumamin</parameterid>
								<name>Luma Minimum</name>
								<valuemin>0</valuemin>
								<valuemax>120</valuemax>
								<value>0</value>
							</parameter>
							<parameter>
								<parameterid>lumawidth</parameterid>
								<name>Luma Width</name>
								<valuemin>0</valuemin>
								<valuemax>120</valuemax>
								<value>40</value>
							</parameter>
							<parameter>
								<parameterid>lumasoft</parameterid>
								<name>Luma Softness</name>
								<valuemin>0</valuemin>
								<valuemax>120</valuemax>
								<value>20</value>
							</parameter>
							<parameter>
								<parameterid>label6</parameterid>
								<name>Edge Control</name>
								<value/>
							</parameter>
							<parameter>
								<parameterid>edgethin</parameterid>
								<name>Thin/Spread</name>
								<valuemin>-100</valuemin>
								<valuemax>100</valuemax>
								<value>0</value>
							</parameter>
							<parameter>
								<parameterid>edgefeather</parameterid>
								<name>Softening</name>
								<valuemin>0</valuemin>
								<valuemax>100</valuemax>
								<value>0</value>
							</parameter>
							<parameter>
								<parameterid>label7</parameterid>
								<name>Mask Control</name>
								<value/>
							</parameter>
							<parameter>
								<parameterid>invertsel</parameterid>
								<name>Invert</name>
								<value>FALSE</value>
							</parameter>
							<parameter>
								<parameterid>debugshow</parameterid>
								<name>Show Stats</name>
								<value>FALSE</value>
							</parameter>
						</effect>
					</filter>
					<sourcetrack>
						<mediatype>video</mediatype>
					</sourcetrack>
					<link>
						<linkclipref>00715001.MOV4</linkclipref>
						<mediatype>video</mediatype>
						<trackindex>1</trackindex>
						<clipindex>29</clipindex>
					</link>
					<link>
						<linkclipref>00715001.MOV5</linkclipref>
						<mediatype>audio</mediatype>
						<trackindex>1</trackindex>
						<clipindex>25</clipindex>
					</link>
					<link>
						<linkclipref>00715001.MOV6</linkclipref>
						<mediatype>audio</mediatype>
						<trackindex>2</trackindex>
						<clipindex>25</clipindex>
					</link>
					<fielddominance>upper</fielddominance>
					<itemhistory>
						<uuid>83B0909A-79FF-42CD-BC61-E1D36FB760EF</uuid>
					</itemhistory>
				</clipitem>
				<clipitem id="00718001.MOV4">
					<name>00718001.MOV</name>
					<duration>2232</duration>
					<rate>
						<ntsc>FALSE</ntsc>
						<timebase>25</timebase>
					</rate>
					<in>1264</in>
					<out>1408</out>
					<start>3774</start>
					<end>3918</end>
					<pixelaspectratio>Square</pixelaspectratio>
					<enabled>TRUE</enabled>
					<anamorphic>FALSE</anamorphic>
					<alphatype>none</alphatype>
					<masterclipid>00718001.MOV1</masterclipid>
					<logginginfo>
						<scene/>
						<shottake/>
						<lognote/>
						<good>FALSE</good>
					</logginginfo>
					<labels>
						<label2/>
					</labels>
					<comments>
						<mastercomment1/>
						<mastercomment2/>
						<mastercomment3/>
						<mastercomment4/>
					</comments>
					<file id="00718001 "/>
					<filter>
						<enabled>TRUE</enabled>
						<start>-1</start>
						<end>-1</end>
						<effect>
							<name>G Simple Curves -20 white curve</name>
							<effectcategory>Nattress Big Box of Tricks - Levels and Curves</effectcategory>
							<effecttype>filter</effecttype>
							<mediatype>video</mediatype>
							<parameter>
								<parameterid>colourspace</parameterid>
								<name>Colour Space</name>
								<valuemin>1</valuemin>
								<valuemax>2</valuemax>
								<valuelist>
									<valueentry>
										<name>RGB</name>
										<value>1</value>
									</valueentry>
									<valueentry>
										<name>Y'CbCr</name>
										<value>2</value>
									</valueentry>
								</valuelist>
								<value>2</value>
							</parameter>
							<parameter>
								<parameterid>showcurves</parameterid>
								<name>Show Curves</name>
								<value>FALSE</value>
							</parameter>
							<parameter>
								<parameterid>lvar</parameterid>
								<name>Levels Controls</name>
								<value>string</value>
							</parameter>
							<parameter>
								<parameterid>inw</parameterid>
								<name>White Level</name>
								<valuemin>0</valuemin>
								<valuemax>255</valuemax>
								<value>255</value>
							</parameter>
							<parameter>
								<parameterid>inb</parameterid>
								<name>Black Level</name>
								<valuemin>0</valuemin>
								<valuemax>255</valuemax>
								<value>0</value>
							</parameter>
							<parameter>
								<parameterid>outw</parameterid>
								<name>White Output</name>
								<valuemin>0</valuemin>
								<valuemax>255</valuemax>
								<value>255</value>
							</parameter>
							<parameter>
								<parameterid>outb</parameterid>
								<name>Black Output</name>
								<valuemin>0</valuemin>
								<valuemax>255</valuemax>
								<value>0</value>
							</parameter>
							<parameter>
								<parameterid>cvar</parameterid>
								<name>Curves Controls</name>
								<value>string</value>
							</parameter>
							<parameter>
								<parameterid>curvew</parameterid>
								<name>White Curve</name>
								<valuemin>-100</valuemin>
								<valuemax>100</valuemax>
								<value>-10</value>
							</parameter>
							<parameter>
								<parameterid>curveb</parameterid>
								<name>Black Curve</name>
								<valuemin>-100</valuemin>
								<valuemax>100</valuemax>
								<value>0</value>
							</parameter>
							<parameter>
								<parameterid>clipoutput</parameterid>
								<name>Clip Output Levels</name>
								<value>TRUE</value>
							</parameter>
							<parameter>
								<parameterid>copyright</parameterid>
								<name>© www.nattress.com</name>
								<value>string</value>
							</parameter>
						</effect>
					</filter>
					<filter>
						<enabled>TRUE</enabled>
						<start>-1</start>
						<end>-1</end>
						<effect>
							<name>Color Corrector 3-way mindre metning</name>
							<effectid>Color Corrector 3-way</effectid>
							<effectcategory>Color Correction</effectcategory>
							<effecttype>filter</effecttype>
							<mediatype>video</mediatype>
							<parameter>
								<parameterid>dispmode</parameterid>
								<name>Display Mode</name>
								<valuemin>1</valuemin>
								<valuemax>3</valuemax>
								<valuelist>
									<valueentry>
										<name>Final</name>
										<value>1</value>
									</valueentry>
									<valueentry>
										<name>Matte</name>
										<value>2</value>
									</valueentry>
									<valueentry>
										<name>Source</name>
										<value>3</value>
									</valueentry>
								</valuelist>
								<value>1</value>
							</parameter>
							<parameter>
								<parameterid>label1</parameterid>
								<name>Blacks Controls</name>
								<value/>
							</parameter>
							<parameter>
								<parameterid>blacklevel</parameterid>
								<name>Level</name>
								<valuemin>-196</valuemin>
								<valuemax>254</valuemax>
								<value>0</value>
							</parameter>
							<parameter>
								<parameterid>b_hue</parameterid>
								<name>Angle</name>
								<valuemin>-180</valuemin>
								<valuemax>180</valuemax>
								<value>-33</value>
							</parameter>
							<parameter>
								<parameterid>b_mag</parameterid>
								<name>Magnitude</name>
								<valuemin>0</valuemin>
								<valuemax>200</valuemax>
								<value>0</value>
							</parameter>
							<parameter>
								<parameterid>label2</parameterid>
								<name>Midrange Controls</name>
								<value/>
							</parameter>
							<parameter>
								<parameterid>mids</parameterid>
								<name>Level</name>
								<valuemin>0</valuemin>
								<valuemax>200</valuemax>
								<value>100</value>
							</parameter>
							<parameter>
								<parameterid>m_hue</parameterid>
								<name>Angle</name>
								<valuemin>-180</valuemin>
								<valuemax>180</valuemax>
								<value>-33</value>
							</parameter>
							<parameter>
								<parameterid>m_mag</parameterid>
								<name>Magnitude</name>
								<valuemin>0</valuemin>
								<valuemax>200</valuemax>
								<value>0</value>
							</parameter>
							<parameter>
								<parameterid>label3</parameterid>
								<name>Highlight Controls</name>
								<value/>
							</parameter>
							<parameter>
								<parameterid>highlights</parameterid>
								<name>Level</name>
								<valuemin>64</valuemin>
								<valuemax>509</valuemax>
								<value>255</value>
							</parameter>
							<parameter>
								<parameterid>h_hue</parameterid>
								<name>Angle</name>
								<valuemin>-180</valuemin>
								<valuemax>180</valuemax>
								<value>-33</value>
							</parameter>
							<parameter>
								<parameterid>h_mag</parameterid>
								<name>Magnitude</name>
								<valuemin>0</valuemin>
								<valuemax>200</valuemax>
								<value>0</value>
							</parameter>
							<parameter>
								<parameterid>label4</parameterid>
								<name>Color Controls</name>
								<value/>
							</parameter>
							<parameter>
								<parameterid>chroma</parameterid>
								<name>Saturation</name>
								<valuemin>0</valuemin>
								<valuemax>200</valuemax>
								<value>90</value>
							</parameter>
							<parameter>
								<parameterid>label5</parameterid>
								<name>Limit Effect Controls</name>
								<value/>
							</parameter>
							<parameter>
								<parameterid>dochroma</parameterid>
								<name>Limit on Chroma</name>
								<value>FALSE</value>
							</parameter>
							<parameter>
								<parameterid>centerang</parameterid>
								<name>Chroma Center</name>
								<valuemin>-760</valuemin>
								<valuemax>760</valuemax>
								<value>-110</value>
							</parameter>
							<parameter>
								<parameterid>chromawidth</parameterid>
								<name>Chroma Width</name>
								<valuemin>0</valuemin>
								<valuemax>360</valuemax>
								<value>15</value>
							</parameter>
							<parameter>
								<parameterid>chromasoft</parameterid>
								<name>Chroma Softness</name>
								<valuemin>0</valuemin>
								<valuemax>180</valuemax>
								<value>10</value>
							</parameter>
							<parameter>
								<parameterid>dosat</parameterid>
								<name>Limit on Saturation</name>
								<value>FALSE</value>
							</parameter>
							<parameter>
								<parameterid>satmin</parameterid>
								<name>Sat. Minimum</name>
								<valuemin>0</valuemin>
								<valuemax>125</valuemax>
								<value>35</value>
							</parameter>
							<parameter>
								<parameterid>satwidth</parameterid>
								<name>Sat. Width</name>
								<valuemin>0</valuemin>
								<valuemax>125</valuemax>
								<value>40</value>
							</parameter>
							<parameter>
								<parameterid>satsoft</parameterid>
								<name>Sat. Softness</name>
								<valuemin>0</valuemin>
								<valuemax>125</valuemax>
								<value>20</value>
							</parameter>
							<parameter>
								<parameterid>doluma</parameterid>
								<name>Limit on Luma</name>
								<value>FALSE</value>
							</parameter>
							<parameter>
								<parameterid>lumamin</parameterid>
								<name>Luma Minimum</name>
								<valuemin>0</valuemin>
								<valuemax>120</valuemax>
								<value>0</value>
							</parameter>
							<parameter>
								<parameterid>lumawidth</parameterid>
								<name>Luma Width</name>
								<valuemin>0</valuemin>
								<valuemax>120</valuemax>
								<value>40</value>
							</parameter>
							<parameter>
								<parameterid>lumasoft</parameterid>
								<name>Luma Softness</name>
								<valuemin>0</valuemin>
								<valuemax>120</valuemax>
								<value>20</value>
							</parameter>
							<parameter>
								<parameterid>label6</parameterid>
								<name>Edge Control</name>
								<value/>
							</parameter>
							<parameter>
								<parameterid>edgethin</parameterid>
								<name>Thin/Spread</name>
								<valuemin>-100</valuemin>
								<valuemax>100</valuemax>
								<value>0</value>
							</parameter>
							<parameter>
								<parameterid>edgefeather</parameterid>
								<name>Softening</name>
								<valuemin>0</valuemin>
								<valuemax>100</valuemax>
								<value>0</value>
							</parameter>
							<parameter>
								<parameterid>label7</parameterid>
								<name>Mask Control</name>
								<value/>
							</parameter>
							<parameter>
								<parameterid>invertsel</parameterid>
								<name>Invert</name>
								<value>FALSE</value>
							</parameter>
							<parameter>
								<parameterid>debugshow</parameterid>
								<name>Show Stats</name>
								<value>FALSE</value>
							</parameter>
						</effect>
					</filter>
					<sourcetrack>
						<mediatype>video</mediatype>
					</sourcetrack>
					<link>
						<linkclipref>00718001.MOV4</linkclipref>
						<mediatype>video</mediatype>
						<trackindex>1</trackindex>
						<clipindex>30</clipindex>
					</link>
					<link>
						<linkclipref>00718001.MOV5</linkclipref>
						<mediatype>audio</mediatype>
						<trackindex>1</trackindex>
						<clipindex>26</clipindex>
					</link>
					<link>
						<linkclipref>00718001.MOV6</linkclipref>
						<mediatype>audio</mediatype>
						<trackindex>2</trackindex>
						<clipindex>26</clipindex>
					</link>
					<fielddominance>upper</fielddominance>
					<itemhistory>
						<uuid>F28496BF-5175-438C-AD5E-CC28C4533751</uuid>
					</itemhistory>
				</clipitem>
				<clipitem id="00715001.MOV7">
					<name>00715001.MOV</name>
					<duration>3156</duration>
					<rate>
						<ntsc>FALSE</ntsc>
						<timebase>25</timebase>
					</rate>
					<in>2118</in>
					<out>2290</out>
					<start>3918</start>
					<end>4090</end>
					<pixelaspectratio>Square</pixelaspectratio>
					<enabled>TRUE</enabled>
					<anamorphic>FALSE</anamorphic>
					<alphatype>none</alphatype>
					<masterclipid>00715001.MOV1</masterclipid>
					<logginginfo>
						<scene/>
						<shottake/>
						<lognote/>
						<good>FALSE</good>
					</logginginfo>
					<labels>
						<label2/>
					</labels>
					<comments>
						<mastercomment1/>
						<mastercomment2/>
						<mastercomment3/>
						<mastercomment4/>
					</comments>
					<file id="00715001 "/>
					<filter>
						<start>-1</start>
						<end>-1</end>
						<effect>
							<name>Color Corrector - Lua til Carina</name>
							<effectid>Color Corrector</effectid>
							<effectcategory>Color Correction</effectcategory>
							<effecttype>filter</effecttype>
							<mediatype>video</mediatype>
							<parameter>
								<parameterid>dispmode</parameterid>
								<name>Display Mode</name>
								<valuemin>1</valuemin>
								<valuemax>3</valuemax>
								<valuelist>
									<valueentry>
										<name>Final</name>
										<value>1</value>
									</valueentry>
									<valueentry>
										<name>Matte</name>
										<value>2</value>
									</valueentry>
									<valueentry>
										<name>Source</name>
										<value>3</value>
									</valueentry>
								</valuelist>
								<value>1</value>
							</parameter>
							<parameter>
								<parameterid>label1</parameterid>
								<name>Level Controls</name>
								<value/>
							</parameter>
							<parameter>
								<parameterid>highlights</parameterid>
								<name>Highlights</name>
								<valuemin>64</valuemin>
								<valuemax>509</valuemax>
								<value>247</value>
							</parameter>
							<parameter>
								<parameterid>mids</parameterid>
								<name>Mids</name>
								<valuemin>0</valuemin>
								<valuemax>200</valuemax>
								<value>100</value>
							</parameter>
							<parameter>
								<parameterid>blacklevel</parameterid>
								<name>Blacks</name>
								<valuemin>-196</valuemin>
								<valuemax>254</valuemax>
								<value>-3</value>
							</parameter>
							<parameter>
								<parameterid>label2</parameterid>
								<name>Color Balance</name>
								<value/>
							</parameter>
							<parameter>
								<parameterid>hue</parameterid>
								<name>Angle</name>
								<valuemin>-180</valuemin>
								<valuemax>180</valuemax>
								<value>-33</value>
							</parameter>
							<parameter>
								<parameterid>mag</parameterid>
								<name>Magnitude</name>
								<valuemin>0</valuemin>
								<valuemax>200</valuemax>
								<value>0</value>
							</parameter>
							<parameter>
								<parameterid>label4</parameterid>
								<name>Color Controls</name>
								<value/>
							</parameter>
							<parameter>
								<parameterid>chroma</parameterid>
								<name>Saturation</name>
								<valuemin>0</valuemin>
								<valuemax>200</valuemax>
								<value>84</value>
							</parameter>
							<parameter>
								<parameterid>phase</parameterid>
								<name>Phase shift</name>
								<valuemin>-180</valuemin>
								<valuemax>180</valuemax>
								<value>0</value>
							</parameter>
							<parameter>
								<parameterid>label5</parameterid>
								<name>Limit Effect Controls</name>
								<value/>
							</parameter>
							<parameter>
								<parameterid>dochroma</parameterid>
								<name>Limit on Chroma</name>
								<value>TRUE</value>
							</parameter>
							<parameter>
								<parameterid>centerang</parameterid>
								<name>Chroma Center</name>
								<valuemin>-760</valuemin>
								<valuemax>760</valuemax>
								<value>322.256</value>
							</parameter>
							<parameter>
								<parameterid>chromawidth</parameterid>
								<name>Chroma Width</name>
								<valuemin>0</valuemin>
								<valuemax>360</valuemax>
								<value>7.49567</value>
							</parameter>
							<parameter>
								<parameterid>chromasoft</parameterid>
								<name>Chroma Softness</name>
								<valuemin>0</valuemin>
								<valuemax>180</valuemax>
								<value>10.6152</value>
							</parameter>
							<parameter>
								<parameterid>dosat</parameterid>
								<name>Limit on Saturation</name>
								<value>TRUE</value>
							</parameter>
							<parameter>
								<parameterid>satmin</parameterid>
								<name>Sat. Minimum</name>
								<valuemin>0</valuemin>
								<valuemax>125</valuemax>
								<value>36.7837</value>
							</parameter>
							<parameter>
								<parameterid>satwidth</parameterid>
								<name>Sat. Width</name>
								<valuemin>0</valuemin>
								<valuemax>125</valuemax>
								<value>84.0889</value>
							</parameter>
							<parameter>
								<parameterid>satsoft</parameterid>
								<name>Sat. Softness</name>
								<valuemin>0</valuemin>
								<valuemax>125</valuemax>
								<value>5</value>
							</parameter>
							<parameter>
								<parameterid>doluma</parameterid>
								<name>Limit on Luma</name>
								<value>TRUE</value>
							</parameter>
							<parameter>
								<parameterid>lumamin</parameterid>
								<name>Luma Minimum</name>
								<valuemin>0</valuemin>
								<valuemax>120</valuemax>
								<value>0.939667</value>
							</parameter>
							<parameter>
								<parameterid>lumawidth</parameterid>
								<name>Luma Width</name>
								<valuemin>0</valuemin>
								<valuemax>120</valuemax>
								<value>115.45</value>
							</parameter>
							<parameter>
								<parameterid>lumasoft</parameterid>
								<name>Luma Softness</name>
								<valuemin>0</valuemin>
								<valuemax>120</valuemax>
								<value>15.1099</value>
							</parameter>
							<parameter>
								<parameterid>label6</parameterid>
								<name>Edge Control</name>
								<value/>
							</parameter>
							<parameter>
								<parameterid>edgethin</parameterid>
								<name>Thin/Spread</name>
								<valuemin>-100</valuemin>
								<valuemax>100</valuemax>
								<value>0</value>
							</parameter>
							<parameter>
								<parameterid>edgefeather</parameterid>
								<name>Softening</name>
								<valuemin>0</valuemin>
								<valuemax>100</valuemax>
								<value>0</value>
							</parameter>
							<parameter>
								<parameterid>label7</parameterid>
								<name>Mask Control</name>
								<value/>
							</parameter>
							<parameter>
								<parameterid>invertsel</parameterid>
								<name>Invert</name>
								<value>FALSE</value>
							</parameter>
							<parameter>
								<parameterid>debugshow</parameterid>
								<name>Show Stats</name>
								<value>FALSE</value>
							</parameter>
						</effect>
					</filter>
					<filter>
						<start>-1</start>
						<end>-1</end>
						<effect>
							<name>Color Corrector 3-way mindre metning</name>
							<effectid>Color Corrector 3-way</effectid>
							<effectcategory>Color Correction</effectcategory>
							<effecttype>filter</effecttype>
							<mediatype>video</mediatype>
							<parameter>
								<parameterid>dispmode</parameterid>
								<name>Display Mode</name>
								<valuemin>1</valuemin>
								<valuemax>3</valuemax>
								<valuelist>
									<valueentry>
										<name>Final</name>
										<value>1</value>
									</valueentry>
									<valueentry>
										<name>Matte</name>
										<value>2</value>
									</valueentry>
									<valueentry>
										<name>Source</name>
										<value>3</value>
									</valueentry>
								</valuelist>
								<value>1</value>
							</parameter>
							<parameter>
								<parameterid>label1</parameterid>
								<name>Blacks Controls</name>
								<value/>
							</parameter>
							<parameter>
								<parameterid>blacklevel</parameterid>
								<name>Level</name>
								<valuemin>-196</valuemin>
								<valuemax>254</valuemax>
								<value>0</value>
							</parameter>
							<parameter>
								<parameterid>b_hue</parameterid>
								<name>Angle</name>
								<valuemin>-180</valuemin>
								<valuemax>180</valuemax>
								<value>-33</value>
							</parameter>
							<parameter>
								<parameterid>b_mag</parameterid>
								<name>Magnitude</name>
								<valuemin>0</valuemin>
								<valuemax>200</valuemax>
								<value>0</value>
							</parameter>
							<parameter>
								<parameterid>label2</parameterid>
								<name>Midrange Controls</name>
								<value/>
							</parameter>
							<parameter>
								<parameterid>mids</parameterid>
								<name>Level</name>
								<valuemin>0</valuemin>
								<valuemax>200</valuemax>
								<value>100</value>
							</parameter>
							<parameter>
								<parameterid>m_hue</parameterid>
								<name>Angle</name>
								<valuemin>-180</valuemin>
								<valuemax>180</valuemax>
								<value>-33</value>
							</parameter>
							<parameter>
								<parameterid>m_mag</parameterid>
								<name>Magnitude</name>
								<valuemin>0</valuemin>
								<valuemax>200</valuemax>
								<value>0</value>
							</parameter>
							<parameter>
								<parameterid>label3</parameterid>
								<name>Highlight Controls</name>
								<value/>
							</parameter>
							<parameter>
								<parameterid>highlights</parameterid>
								<name>Level</name>
								<valuemin>64</valuemin>
								<valuemax>509</valuemax>
								<value>255</value>
							</parameter>
							<parameter>
								<parameterid>h_hue</parameterid>
								<name>Angle</name>
								<valuemin>-180</valuemin>
								<valuemax>180</valuemax>
								<value>-33</value>
							</parameter>
							<parameter>
								<parameterid>h_mag</parameterid>
								<name>Magnitude</name>
								<valuemin>0</valuemin>
								<valuemax>200</valuemax>
								<value>0</value>
							</parameter>
							<parameter>
								<parameterid>label4</parameterid>
								<name>Color Controls</name>
								<value/>
							</parameter>
							<parameter>
								<parameterid>chroma</parameterid>
								<name>Saturation</name>
								<valuemin>0</valuemin>
								<valuemax>200</valuemax>
								<value>90</value>
							</parameter>
							<parameter>
								<parameterid>label5</parameterid>
								<name>Limit Effect Controls</name>
								<value/>
							</parameter>
							<parameter>
								<parameterid>dochroma</parameterid>
								<name>Limit on Chroma</name>
								<value>FALSE</value>
							</parameter>
							<parameter>
								<parameterid>centerang</parameterid>
								<name>Chroma Center</name>
								<valuemin>-760</valuemin>
								<valuemax>760</valuemax>
								<value>-110</value>
							</parameter>
							<parameter>
								<parameterid>chromawidth</parameterid>
								<name>Chroma Width</name>
								<valuemin>0</valuemin>
								<valuemax>360</valuemax>
								<value>15</value>
							</parameter>
							<parameter>
								<parameterid>chromasoft</parameterid>
								<name>Chroma Softness</name>
								<valuemin>0</valuemin>
								<valuemax>180</valuemax>
								<value>10</value>
							</parameter>
							<parameter>
								<parameterid>dosat</parameterid>
								<name>Limit on Saturation</name>
								<value>FALSE</value>
							</parameter>
							<parameter>
								<parameterid>satmin</parameterid>
								<name>Sat. Minimum</name>
								<valuemin>0</valuemin>
								<valuemax>125</valuemax>
								<value>35</value>
							</parameter>
							<parameter>
								<parameterid>satwidth</parameterid>
								<name>Sat. Width</name>
								<valuemin>0</valuemin>
								<valuemax>125</valuemax>
								<value>40</value>
							</parameter>
							<parameter>
								<parameterid>satsoft</parameterid>
								<name>Sat. Softness</name>
								<valuemin>0</valuemin>
								<valuemax>125</valuemax>
								<value>20</value>
							</parameter>
							<parameter>
								<parameterid>doluma</parameterid>
								<name>Limit on Luma</name>
								<value>FALSE</value>
							</parameter>
							<parameter>
								<parameterid>lumamin</parameterid>
								<name>Luma Minimum</name>
								<valuemin>0</valuemin>
								<valuemax>120</valuemax>
								<value>0</value>
							</parameter>
							<parameter>
								<parameterid>lumawidth</parameterid>
								<name>Luma Width</name>
								<valuemin>0</valuemin>
								<valuemax>120</valuemax>
								<value>40</value>
							</parameter>
							<parameter>
								<parameterid>lumasoft</parameterid>
								<name>Luma Softness</name>
								<valuemin>0</valuemin>
								<valuemax>120</valuemax>
								<value>20</value>
							</parameter>
							<parameter>
								<parameterid>label6</parameterid>
								<name>Edge Control</name>
								<value/>
							</parameter>
							<parameter>
								<parameterid>edgethin</parameterid>
								<name>Thin/Spread</name>
								<valuemin>-100</valuemin>
								<valuemax>100</valuemax>
								<value>0</value>
							</parameter>
							<parameter>
								<parameterid>edgefeather</parameterid>
								<name>Softening</name>
								<valuemin>0</valuemin>
								<valuemax>100</valuemax>
								<value>0</value>
							</parameter>
							<parameter>
								<parameterid>label7</parameterid>
								<name>Mask Control</name>
								<value/>
							</parameter>
							<parameter>
								<parameterid>invertsel</parameterid>
								<name>Invert</name>
								<value>FALSE</value>
							</parameter>
							<parameter>
								<parameterid>debugshow</parameterid>
								<name>Show Stats</name>
								<value>FALSE</value>
							</parameter>
						</effect>
					</filter>
					<sourcetrack>
						<mediatype>video</mediatype>
					</sourcetrack>
					<link>
						<linkclipref>00715001.MOV7</linkclipref>
						<mediatype>video</mediatype>
						<trackindex>1</trackindex>
						<clipindex>31</clipindex>
					</link>
					<link>
						<linkclipref>00715001.MOV8</linkclipref>
						<mediatype>audio</mediatype>
						<trackindex>1</trackindex>
						<clipindex>27</clipindex>
					</link>
					<link>
						<linkclipref>00715001.MOV9</linkclipref>
						<mediatype>audio</mediatype>
						<trackindex>2</trackindex>
						<clipindex>27</clipindex>
					</link>
					<fielddominance>upper</fielddominance>
					<itemhistory>
						<uuid>F67A7FD0-FAE4-4481-8612-DCFFDBA17512</uuid>
					</itemhistory>
				</clipitem>
				<clipitem id="00722001.MOV4">
					<name>00722001.MOV</name>
					<duration>1392</duration>
					<rate>
						<ntsc>FALSE</ntsc>
						<timebase>25</timebase>
					</rate>
					<in>663</in>
					<out>728</out>
					<start>4090</start>
					<end>4155</end>
					<pixelaspectratio>Square</pixelaspectratio>
					<enabled>TRUE</enabled>
					<anamorphic>FALSE</anamorphic>
					<alphatype>none</alphatype>
					<masterclipid>00722001.MOV1</masterclipid>
					<logginginfo>
						<scene/>
						<shottake/>
						<lognote/>
						<good>FALSE</good>
					</logginginfo>
					<labels>
						<label2/>
					</labels>
					<comments>
						<mastercomment1/>
						<mastercomment2/>
						<mastercomment3/>
						<mastercomment4/>
					</comments>
					<file id="00722001 "/>
					<filter>
						<enabled>TRUE</enabled>
						<start>-1</start>
						<end>-1</end>
						<effect>
							<name>Color Corrector - Lua til Carina 3 bittelitt</name>
							<effectid>Color Corrector</effectid>
							<effectcategory>Color Correction</effectcategory>
							<effecttype>filter</effecttype>
							<mediatype>video</mediatype>
							<parameter>
								<parameterid>dispmode</parameterid>
								<name>Display Mode</name>
								<valuemin>1</valuemin>
								<valuemax>3</valuemax>
								<valuelist>
									<valueentry>
										<name>Final</name>
										<value>1</value>
									</valueentry>
									<valueentry>
										<name>Matte</name>
										<value>2</value>
									</valueentry>
									<valueentry>
										<name>Source</name>
										<value>3</value>
									</valueentry>
								</valuelist>
								<value>1</value>
							</parameter>
							<parameter>
								<parameterid>label1</parameterid>
								<name>Level Controls</name>
								<value/>
							</parameter>
							<parameter>
								<parameterid>highlights</parameterid>
								<name>Highlights</name>
								<valuemin>64</valuemin>
								<valuemax>509</valuemax>
								<value>247</value>
							</parameter>
							<parameter>
								<parameterid>mids</parameterid>
								<name>Mids</name>
								<valuemin>0</valuemin>
								<valuemax>200</valuemax>
								<value>100</value>
							</parameter>
							<parameter>
								<parameterid>blacklevel</parameterid>
								<name>Blacks</name>
								<valuemin>-196</valuemin>
								<valuemax>254</valuemax>
								<value>-3</value>
							</parameter>
							<parameter>
								<parameterid>label2</parameterid>
								<name>Color Balance</name>
								<value/>
							</parameter>
							<parameter>
								<parameterid>hue</parameterid>
								<name>Angle</name>
								<valuemin>-180</valuemin>
								<valuemax>180</valuemax>
								<value>-33</value>
							</parameter>
							<parameter>
								<parameterid>mag</parameterid>
								<name>Magnitude</name>
								<valuemin>0</valuemin>
								<valuemax>200</valuemax>
								<value>0</value>
							</parameter>
							<parameter>
								<parameterid>label4</parameterid>
								<name>Color Controls</name>
								<value/>
							</parameter>
							<parameter>
								<parameterid>chroma</parameterid>
								<name>Saturation</name>
								<valuemin>0</valuemin>
								<valuemax>200</valuemax>
								<value>94</value>
							</parameter>
							<parameter>
								<parameterid>phase</parameterid>
								<name>Phase shift</name>
								<valuemin>-180</valuemin>
								<valuemax>180</valuemax>
								<value>0</value>
							</parameter>
							<parameter>
								<parameterid>label5</parameterid>
								<name>Limit Effect Controls</name>
								<value/>
							</parameter>
							<parameter>
								<parameterid>dochroma</parameterid>
								<name>Limit on Chroma</name>
								<value>TRUE</value>
							</parameter>
							<parameter>
								<parameterid>centerang</parameterid>
								<name>Chroma Center</name>
								<valuemin>-760</valuemin>
								<valuemax>760</valuemax>
								<value>322.256</value>
							</parameter>
							<parameter>
								<parameterid>chromawidth</parameterid>
								<name>Chroma Width</name>
								<valuemin>0</valuemin>
								<valuemax>360</valuemax>
								<value>8.11959</value>
							</parameter>
							<parameter>
								<parameterid>chromasoft</parameterid>
								<name>Chroma Softness</name>
								<valuemin>0</valuemin>
								<valuemax>180</valuemax>
								<value>26.8371</value>
							</parameter>
							<parameter>
								<parameterid>dosat</parameterid>
								<name>Limit on Saturation</name>
								<value>TRUE</value>
							</parameter>
							<parameter>
								<parameterid>satmin</parameterid>
								<name>Sat. Minimum</name>
								<valuemin>0</valuemin>
								<valuemax>125</valuemax>
								<value>36.7837</value>
							</parameter>
							<parameter>
								<parameterid>satwidth</parameterid>
								<name>Sat. Width</name>
								<valuemin>0</valuemin>
								<valuemax>125</valuemax>
								<value>84.0889</value>
							</parameter>
							<parameter>
								<parameterid>satsoft</parameterid>
								<name>Sat. Softness</name>
								<valuemin>0</valuemin>
								<valuemax>125</valuemax>
								<value>5</value>
							</parameter>
							<parameter>
								<parameterid>doluma</parameterid>
								<name>Limit on Luma</name>
								<value>TRUE</value>
							</parameter>
							<parameter>
								<parameterid>lumamin</parameterid>
								<name>Luma Minimum</name>
								<valuemin>0</valuemin>
								<valuemax>120</valuemax>
								<value>0.939667</value>
							</parameter>
							<parameter>
								<parameterid>lumawidth</parameterid>
								<name>Luma Width</name>
								<valuemin>0</valuemin>
								<valuemax>120</valuemax>
								<value>115.45</value>
							</parameter>
							<parameter>
								<parameterid>lumasoft</parameterid>
								<name>Luma Softness</name>
								<valuemin>0</valuemin>
								<valuemax>120</valuemax>
								<value>15.1099</value>
							</parameter>
							<parameter>
								<parameterid>label6</parameterid>
								<name>Edge Control</name>
								<value/>
							</parameter>
							<parameter>
								<parameterid>edgethin</parameterid>
								<name>Thin/Spread</name>
								<valuemin>-100</valuemin>
								<valuemax>100</valuemax>
								<value>0</value>
							</parameter>
							<parameter>
								<parameterid>edgefeather</parameterid>
								<name>Softening</name>
								<valuemin>0</valuemin>
								<valuemax>100</valuemax>
								<value>6</value>
							</parameter>
							<parameter>
								<parameterid>label7</parameterid>
								<name>Mask Control</name>
								<value/>
							</parameter>
							<parameter>
								<parameterid>invertsel</parameterid>
								<name>Invert</name>
								<value>FALSE</value>
							</parameter>
							<parameter>
								<parameterid>debugshow</parameterid>
								<name>Show Stats</name>
								<value>FALSE</value>
							</parameter>
						</effect>
					</filter>
					<filter>
						<enabled>TRUE</enabled>
						<start>-1</start>
						<end>-1</end>
						<effect>
							<name>G Simple Curves -20 white curve</name>
							<effectcategory>Nattress Big Box of Tricks - Levels and Curves</effectcategory>
							<effecttype>filter</effecttype>
							<mediatype>video</mediatype>
							<parameter>
								<parameterid>colourspace</parameterid>
								<name>Colour Space</name>
								<valuemin>1</valuemin>
								<valuemax>2</valuemax>
								<valuelist>
									<valueentry>
										<name>RGB</name>
										<value>1</value>
									</valueentry>
									<valueentry>
										<name>Y'CbCr</name>
										<value>2</value>
									</valueentry>
								</valuelist>
								<value>2</value>
							</parameter>
							<parameter>
								<parameterid>showcurves</parameterid>
								<name>Show Curves</name>
								<value>FALSE</value>
							</parameter>
							<parameter>
								<parameterid>lvar</parameterid>
								<name>Levels Controls</name>
								<value>string</value>
							</parameter>
							<parameter>
								<parameterid>inw</parameterid>
								<name>White Level</name>
								<valuemin>0</valuemin>
								<valuemax>255</valuemax>
								<value>255</value>
							</parameter>
							<parameter>
								<parameterid>inb</parameterid>
								<name>Black Level</name>
								<valuemin>0</valuemin>
								<valuemax>255</valuemax>
								<value>0</value>
							</parameter>
							<parameter>
								<parameterid>outw</parameterid>
								<name>White Output</name>
								<valuemin>0</valuemin>
								<valuemax>255</valuemax>
								<value>255</value>
							</parameter>
							<parameter>
								<parameterid>outb</parameterid>
								<name>Black Output</name>
								<valuemin>0</valuemin>
								<valuemax>255</valuemax>
								<value>0</value>
							</parameter>
							<parameter>
								<parameterid>cvar</parameterid>
								<name>Curves Controls</name>
								<value>string</value>
							</parameter>
							<parameter>
								<parameterid>curvew</parameterid>
								<name>White Curve</name>
								<valuemin>-100</valuemin>
								<valuemax>100</valuemax>
								<value>-10</value>
							</parameter>
							<parameter>
								<parameterid>curveb</parameterid>
								<name>Black Curve</name>
								<valuemin>-100</valuemin>
								<valuemax>100</valuemax>
								<value>0</value>
							</parameter>
							<parameter>
								<parameterid>clipoutput</parameterid>
								<name>Clip Output Levels</name>
								<value>TRUE</value>
							</parameter>
							<parameter>
								<parameterid>copyright</parameterid>
								<name>© www.nattress.com</name>
								<value>string</value>
							</parameter>
						</effect>
					</filter>
					<filter>
						<enabled>TRUE</enabled>
						<start>-1</start>
						<end>-1</end>
						<effect>
							<name>Color Corrector 3-way mindre metning</name>
							<effectid>Color Corrector 3-way</effectid>
							<effectcategory>Color Correction</effectcategory>
							<effecttype>filter</effecttype>
							<mediatype>video</mediatype>
							<parameter>
								<parameterid>dispmode</parameterid>
								<name>Display Mode</name>
								<valuemin>1</valuemin>
								<valuemax>3</valuemax>
								<valuelist>
									<valueentry>
										<name>Final</name>
										<value>1</value>
									</valueentry>
									<valueentry>
										<name>Matte</name>
										<value>2</value>
									</valueentry>
									<valueentry>
										<name>Source</name>
										<value>3</value>
									</valueentry>
								</valuelist>
								<value>1</value>
							</parameter>
							<parameter>
								<parameterid>label1</parameterid>
								<name>Blacks Controls</name>
								<value/>
							</parameter>
							<parameter>
								<parameterid>blacklevel</parameterid>
								<name>Level</name>
								<valuemin>-196</valuemin>
								<valuemax>254</valuemax>
								<value>0</value>
							</parameter>
							<parameter>
								<parameterid>b_hue</parameterid>
								<name>Angle</name>
								<valuemin>-180</valuemin>
								<valuemax>180</valuemax>
								<value>-33</value>
							</parameter>
							<parameter>
								<parameterid>b_mag</parameterid>
								<name>Magnitude</name>
								<valuemin>0</valuemin>
								<valuemax>200</valuemax>
								<value>0</value>
							</parameter>
							<parameter>
								<parameterid>label2</parameterid>
								<name>Midrange Controls</name>
								<value/>
							</parameter>
							<parameter>
								<parameterid>mids</parameterid>
								<name>Level</name>
								<valuemin>0</valuemin>
								<valuemax>200</valuemax>
								<value>100</value>
							</parameter>
							<parameter>
								<parameterid>m_hue</parameterid>
								<name>Angle</name>
								<valuemin>-180</valuemin>
								<valuemax>180</valuemax>
								<value>-33</value>
							</parameter>
							<parameter>
								<parameterid>m_mag</parameterid>
								<name>Magnitude</name>
								<valuemin>0</valuemin>
								<valuemax>200</valuemax>
								<value>0</value>
							</parameter>
							<parameter>
								<parameterid>label3</parameterid>
								<name>Highlight Controls</name>
								<value/>
							</parameter>
							<parameter>
								<parameterid>highlights</parameterid>
								<name>Level</name>
								<valuemin>64</valuemin>
								<valuemax>509</valuemax>
								<value>255</value>
							</parameter>
							<parameter>
								<parameterid>h_hue</parameterid>
								<name>Angle</name>
								<valuemin>-180</valuemin>
								<valuemax>180</valuemax>
								<value>-33</value>
							</parameter>
							<parameter>
								<parameterid>h_mag</parameterid>
								<name>Magnitude</name>
								<valuemin>0</valuemin>
								<valuemax>200</valuemax>
								<value>0</value>
							</parameter>
							<parameter>
								<parameterid>label4</parameterid>
								<name>Color Controls</name>
								<value/>
							</parameter>
							<parameter>
								<parameterid>chroma</parameterid>
								<name>Saturation</name>
								<valuemin>0</valuemin>
								<valuemax>200</valuemax>
								<value>90</value>
							</parameter>
							<parameter>
								<parameterid>label5</parameterid>
								<name>Limit Effect Controls</name>
								<value/>
							</parameter>
							<parameter>
								<parameterid>dochroma</parameterid>
								<name>Limit on Chroma</name>
								<value>FALSE</value>
							</parameter>
							<parameter>
								<parameterid>centerang</parameterid>
								<name>Chroma Center</name>
								<valuemin>-760</valuemin>
								<valuemax>760</valuemax>
								<value>-110</value>
							</parameter>
							<parameter>
								<parameterid>chromawidth</parameterid>
								<name>Chroma Width</name>
								<valuemin>0</valuemin>
								<valuemax>360</valuemax>
								<value>15</value>
							</parameter>
							<parameter>
								<parameterid>chromasoft</parameterid>
								<name>Chroma Softness</name>
								<valuemin>0</valuemin>
								<valuemax>180</valuemax>
								<value>10</value>
							</parameter>
							<parameter>
								<parameterid>dosat</parameterid>
								<name>Limit on Saturation</name>
								<value>FALSE</value>
							</parameter>
							<parameter>
								<parameterid>satmin</parameterid>
								<name>Sat. Minimum</name>
								<valuemin>0</valuemin>
								<valuemax>125</valuemax>
								<value>35</value>
							</parameter>
							<parameter>
								<parameterid>satwidth</parameterid>
								<name>Sat. Width</name>
								<valuemin>0</valuemin>
								<valuemax>125</valuemax>
								<value>40</value>
							</parameter>
							<parameter>
								<parameterid>satsoft</parameterid>
								<name>Sat. Softness</name>
								<valuemin>0</valuemin>
								<valuemax>125</valuemax>
								<value>20</value>
							</parameter>
							<parameter>
								<parameterid>doluma</parameterid>
								<name>Limit on Luma</name>
								<value>FALSE</value>
							</parameter>
							<parameter>
								<parameterid>lumamin</parameterid>
								<name>Luma Minimum</name>
								<valuemin>0</valuemin>
								<valuemax>120</valuemax>
								<value>0</value>
							</parameter>
							<parameter>
								<parameterid>lumawidth</parameterid>
								<name>Luma Width</name>
								<valuemin>0</valuemin>
								<valuemax>120</valuemax>
								<value>40</value>
							</parameter>
							<parameter>
								<parameterid>lumasoft</parameterid>
								<name>Luma Softness</name>
								<valuemin>0</valuemin>
								<valuemax>120</valuemax>
								<value>20</value>
							</parameter>
							<parameter>
								<parameterid>label6</parameterid>
								<name>Edge Control</name>
								<value/>
							</parameter>
							<parameter>
								<parameterid>edgethin</parameterid>
								<name>Thin/Spread</name>
								<valuemin>-100</valuemin>
								<valuemax>100</valuemax>
								<value>0</value>
							</parameter>
							<parameter>
								<parameterid>edgefeather</parameterid>
								<name>Softening</name>
								<valuemin>0</valuemin>
								<valuemax>100</valuemax>
								<value>0</value>
							</parameter>
							<parameter>
								<parameterid>label7</parameterid>
								<name>Mask Control</name>
								<value/>
							</parameter>
							<parameter>
								<parameterid>invertsel</parameterid>
								<name>Invert</name>
								<value>FALSE</value>
							</parameter>
							<parameter>
								<parameterid>debugshow</parameterid>
								<name>Show Stats</name>
								<value>FALSE</value>
							</parameter>
						</effect>
					</filter>
					<sourcetrack>
						<mediatype>video</mediatype>
					</sourcetrack>
					<link>
						<linkclipref>00722001.MOV4</linkclipref>
						<mediatype>video</mediatype>
						<trackindex>1</trackindex>
						<clipindex>32</clipindex>
					</link>
					<link>
						<linkclipref>00722001.MOV5</linkclipref>
						<mediatype>audio</mediatype>
						<trackindex>1</trackindex>
						<clipindex>28</clipindex>
					</link>
					<link>
						<linkclipref>00722001.MOV6</linkclipref>
						<mediatype>audio</mediatype>
						<trackindex>2</trackindex>
						<clipindex>28</clipindex>
					</link>
					<fielddominance>upper</fielddominance>
					<itemhistory>
						<uuid>165FFEA0-DB6A-4EC9-A7BC-B475AD61F73A</uuid>
					</itemhistory>
				</clipitem>
				<clipitem id="00718001.MOV7">
					<name>00718001.MOV</name>
					<duration>2232</duration>
					<rate>
						<ntsc>FALSE</ntsc>
						<timebase>25</timebase>
					</rate>
					<in>1598</in>
					<out>1869</out>
					<start>4155</start>
					<end>4426</end>
					<pixelaspectratio>Square</pixelaspectratio>
					<enabled>TRUE</enabled>
					<anamorphic>FALSE</anamorphic>
					<alphatype>none</alphatype>
					<masterclipid>00718001.MOV1</masterclipid>
					<logginginfo>
						<scene/>
						<shottake/>
						<lognote/>
						<good>FALSE</good>
					</logginginfo>
					<labels>
						<label2/>
					</labels>
					<comments>
						<mastercomment1/>
						<mastercomment2/>
						<mastercomment3/>
						<mastercomment4/>
					</comments>
					<file id="00718001 "/>
					<filter>
						<enabled>TRUE</enabled>
						<start>-1</start>
						<end>-1</end>
						<effect>
							<name>G Simple Curves -20 white curve</name>
							<effectcategory>Nattress Big Box of Tricks - Levels and Curves</effectcategory>
							<effecttype>filter</effecttype>
							<mediatype>video</mediatype>
							<parameter>
								<parameterid>colourspace</parameterid>
								<name>Colour Space</name>
								<valuemin>1</valuemin>
								<valuemax>2</valuemax>
								<valuelist>
									<valueentry>
										<name>RGB</name>
										<value>1</value>
									</valueentry>
									<valueentry>
										<name>Y'CbCr</name>
										<value>2</value>
									</valueentry>
								</valuelist>
								<value>2</value>
							</parameter>
							<parameter>
								<parameterid>showcurves</parameterid>
								<name>Show Curves</name>
								<value>FALSE</value>
							</parameter>
							<parameter>
								<parameterid>lvar</parameterid>
								<name>Levels Controls</name>
								<value>string</value>
							</parameter>
							<parameter>
								<parameterid>inw</parameterid>
								<name>White Level</name>
								<valuemin>0</valuemin>
								<valuemax>255</valuemax>
								<value>255</value>
							</parameter>
							<parameter>
								<parameterid>inb</parameterid>
								<name>Black Level</name>
								<valuemin>0</valuemin>
								<valuemax>255</valuemax>
								<value>0</value>
							</parameter>
							<parameter>
								<parameterid>outw</parameterid>
								<name>White Output</name>
								<valuemin>0</valuemin>
								<valuemax>255</valuemax>
								<value>255</value>
							</parameter>
							<parameter>
								<parameterid>outb</parameterid>
								<name>Black Output</name>
								<valuemin>0</valuemin>
								<valuemax>255</valuemax>
								<value>0</value>
							</parameter>
							<parameter>
								<parameterid>cvar</parameterid>
								<name>Curves Controls</name>
								<value>string</value>
							</parameter>
							<parameter>
								<parameterid>curvew</parameterid>
								<name>White Curve</name>
								<valuemin>-100</valuemin>
								<valuemax>100</valuemax>
								<value>-15</value>
							</parameter>
							<parameter>
								<parameterid>curveb</parameterid>
								<name>Black Curve</name>
								<valuemin>-100</valuemin>
								<valuemax>100</valuemax>
								<value>0</value>
							</parameter>
							<parameter>
								<parameterid>clipoutput</parameterid>
								<name>Clip Output Levels</name>
								<value>TRUE</value>
							</parameter>
							<parameter>
								<parameterid>copyright</parameterid>
								<name>© www.nattress.com</name>
								<value>string</value>
							</parameter>
						</effect>
					</filter>
					<filter>
						<enabled>TRUE</enabled>
						<start>-1</start>
						<end>-1</end>
						<effect>
							<name>Color Corrector 3-way mindre metning</name>
							<effectid>Color Corrector 3-way</effectid>
							<effectcategory>Color Correction</effectcategory>
							<effecttype>filter</effecttype>
							<mediatype>video</mediatype>
							<parameter>
								<parameterid>dispmode</parameterid>
								<name>Display Mode</name>
								<valuemin>1</valuemin>
								<valuemax>3</valuemax>
								<valuelist>
									<valueentry>
										<name>Final</name>
										<value>1</value>
									</valueentry>
									<valueentry>
										<name>Matte</name>
										<value>2</value>
									</valueentry>
									<valueentry>
										<name>Source</name>
										<value>3</value>
									</valueentry>
								</valuelist>
								<value>1</value>
							</parameter>
							<parameter>
								<parameterid>label1</parameterid>
								<name>Blacks Controls</name>
								<value/>
							</parameter>
							<parameter>
								<parameterid>blacklevel</parameterid>
								<name>Level</name>
								<valuemin>-196</valuemin>
								<valuemax>254</valuemax>
								<value>0</value>
							</parameter>
							<parameter>
								<parameterid>b_hue</parameterid>
								<name>Angle</name>
								<valuemin>-180</valuemin>
								<valuemax>180</valuemax>
								<value>-33</value>
							</parameter>
							<parameter>
								<parameterid>b_mag</parameterid>
								<name>Magnitude</name>
								<valuemin>0</valuemin>
								<valuemax>200</valuemax>
								<value>0</value>
							</parameter>
							<parameter>
								<parameterid>label2</parameterid>
								<name>Midrange Controls</name>
								<value/>
							</parameter>
							<parameter>
								<parameterid>mids</parameterid>
								<name>Level</name>
								<valuemin>0</valuemin>
								<valuemax>200</valuemax>
								<value>100</value>
							</parameter>
							<parameter>
								<parameterid>m_hue</parameterid>
								<name>Angle</name>
								<valuemin>-180</valuemin>
								<valuemax>180</valuemax>
								<value>-33</value>
							</parameter>
							<parameter>
								<parameterid>m_mag</parameterid>
								<name>Magnitude</name>
								<valuemin>0</valuemin>
								<valuemax>200</valuemax>
								<value>0</value>
							</parameter>
							<parameter>
								<parameterid>label3</parameterid>
								<name>Highlight Controls</name>
								<value/>
							</parameter>
							<parameter>
								<parameterid>highlights</parameterid>
								<name>Level</name>
								<valuemin>64</valuemin>
								<valuemax>509</valuemax>
								<value>255</value>
							</parameter>
							<parameter>
								<parameterid>h_hue</parameterid>
								<name>Angle</name>
								<valuemin>-180</valuemin>
								<valuemax>180</valuemax>
								<value>-33</value>
							</parameter>
							<parameter>
								<parameterid>h_mag</parameterid>
								<name>Magnitude</name>
								<valuemin>0</valuemin>
								<valuemax>200</valuemax>
								<value>0</value>
							</parameter>
							<parameter>
								<parameterid>label4</parameterid>
								<name>Color Controls</name>
								<value/>
							</parameter>
							<parameter>
								<parameterid>chroma</parameterid>
								<name>Saturation</name>
								<valuemin>0</valuemin>
								<valuemax>200</valuemax>
								<value>90</value>
							</parameter>
							<parameter>
								<parameterid>label5</parameterid>
								<name>Limit Effect Controls</name>
								<value/>
							</parameter>
							<parameter>
								<parameterid>dochroma</parameterid>
								<name>Limit on Chroma</name>
								<value>FALSE</value>
							</parameter>
							<parameter>
								<parameterid>centerang</parameterid>
								<name>Chroma Center</name>
								<valuemin>-760</valuemin>
								<valuemax>760</valuemax>
								<value>-110</value>
							</parameter>
							<parameter>
								<parameterid>chromawidth</parameterid>
								<name>Chroma Width</name>
								<valuemin>0</valuemin>
								<valuemax>360</valuemax>
								<value>15</value>
							</parameter>
							<parameter>
								<parameterid>chromasoft</parameterid>
								<name>Chroma Softness</name>
								<valuemin>0</valuemin>
								<valuemax>180</valuemax>
								<value>10</value>
							</parameter>
							<parameter>
								<parameterid>dosat</parameterid>
								<name>Limit on Saturation</name>
								<value>FALSE</value>
							</parameter>
							<parameter>
								<parameterid>satmin</parameterid>
								<name>Sat. Minimum</name>
								<valuemin>0</valuemin>
								<valuemax>125</valuemax>
								<value>35</value>
							</parameter>
							<parameter>
								<parameterid>satwidth</parameterid>
								<name>Sat. Width</name>
								<valuemin>0</valuemin>
								<valuemax>125</valuemax>
								<value>40</value>
							</parameter>
							<parameter>
								<parameterid>satsoft</parameterid>
								<name>Sat. Softness</name>
								<valuemin>0</valuemin>
								<valuemax>125</valuemax>
								<value>20</value>
							</parameter>
							<parameter>
								<parameterid>doluma</parameterid>
								<name>Limit on Luma</name>
								<value>FALSE</value>
							</parameter>
							<parameter>
								<parameterid>lumamin</parameterid>
								<name>Luma Minimum</name>
								<valuemin>0</valuemin>
								<valuemax>120</valuemax>
								<value>0</value>
							</parameter>
							<parameter>
								<parameterid>lumawidth</parameterid>
								<name>Luma Width</name>
								<valuemin>0</valuemin>
								<valuemax>120</valuemax>
								<value>40</value>
							</parameter>
							<parameter>
								<parameterid>lumasoft</parameterid>
								<name>Luma Softness</name>
								<valuemin>0</valuemin>
								<valuemax>120</valuemax>
								<value>20</value>
							</parameter>
							<parameter>
								<parameterid>label6</parameterid>
								<name>Edge Control</name>
								<value/>
							</parameter>
							<parameter>
								<parameterid>edgethin</parameterid>
								<name>Thin/Spread</name>
								<valuemin>-100</valuemin>
								<valuemax>100</valuemax>
								<value>0</value>
							</parameter>
							<parameter>
								<parameterid>edgefeather</parameterid>
								<name>Softening</name>
								<valuemin>0</valuemin>
								<valuemax>100</valuemax>
								<value>0</value>
							</parameter>
							<parameter>
								<parameterid>label7</parameterid>
								<name>Mask Control</name>
								<value/>
							</parameter>
							<parameter>
								<parameterid>invertsel</parameterid>
								<name>Invert</name>
								<value>FALSE</value>
							</parameter>
							<parameter>
								<parameterid>debugshow</parameterid>
								<name>Show Stats</name>
								<value>FALSE</value>
							</parameter>
						</effect>
					</filter>
					<sourcetrack>
						<mediatype>video</mediatype>
					</sourcetrack>
					<link>
						<linkclipref>00718001.MOV7</linkclipref>
						<mediatype>video</mediatype>
						<trackindex>1</trackindex>
						<clipindex>33</clipindex>
					</link>
					<link>
						<linkclipref>00718001.MOV8</linkclipref>
						<mediatype>audio</mediatype>
						<trackindex>1</trackindex>
						<clipindex>30</clipindex>
					</link>
					<link>
						<linkclipref>00718001.MOV9</linkclipref>
						<mediatype>audio</mediatype>
						<trackindex>2</trackindex>
						<clipindex>30</clipindex>
					</link>
					<fielddominance>upper</fielddominance>
					<itemhistory>
						<uuid>07633432-8398-4357-9D4F-95EA99300AF0</uuid>
					</itemhistory>
				</clipitem>
				<clipitem id="00715001.MOV10">
					<name>00715001.MOV</name>
					<duration>3156</duration>
					<rate>
						<ntsc>FALSE</ntsc>
						<timebase>25</timebase>
					</rate>
					<in>2722</in>
					<out>3065</out>
					<start>4426</start>
					<end>-1</end>
					<pixelaspectratio>Square</pixelaspectratio>
					<enabled>TRUE</enabled>
					<anamorphic>FALSE</anamorphic>
					<alphatype>none</alphatype>
					<masterclipid>00715001.MOV1</masterclipid>
					<logginginfo>
						<scene/>
						<shottake/>
						<lognote/>
						<good>FALSE</good>
					</logginginfo>
					<labels>
						<label2/>
					</labels>
					<comments>
						<mastercomment1/>
						<mastercomment2/>
						<mastercomment3/>
						<mastercomment4/>
					</comments>
					<file id="00715001 "/>
					<filter>
						<start>-1</start>
						<end>-1</end>
						<effect>
							<name>Color Corrector 3-way mindre metning</name>
							<effectid>Color Corrector 3-way</effectid>
							<effectcategory>Color Correction</effectcategory>
							<effecttype>filter</effecttype>
							<mediatype>video</mediatype>
							<parameter>
								<parameterid>dispmode</parameterid>
								<name>Display Mode</name>
								<valuemin>1</valuemin>
								<valuemax>3</valuemax>
								<valuelist>
									<valueentry>
										<name>Final</name>
										<value>1</value>
									</valueentry>
									<valueentry>
										<name>Matte</name>
										<value>2</value>
									</valueentry>
									<valueentry>
										<name>Source</name>
										<value>3</value>
									</valueentry>
								</valuelist>
								<value>1</value>
							</parameter>
							<parameter>
								<parameterid>label1</parameterid>
								<name>Blacks Controls</name>
								<value/>
							</parameter>
							<parameter>
								<parameterid>blacklevel</parameterid>
								<name>Level</name>
								<valuemin>-196</valuemin>
								<valuemax>254</valuemax>
								<value>0</value>
							</parameter>
							<parameter>
								<parameterid>b_hue</parameterid>
								<name>Angle</name>
								<valuemin>-180</valuemin>
								<valuemax>180</valuemax>
								<value>-33</value>
							</parameter>
							<parameter>
								<parameterid>b_mag</parameterid>
								<name>Magnitude</name>
								<valuemin>0</valuemin>
								<valuemax>200</valuemax>
								<value>0</value>
							</parameter>
							<parameter>
								<parameterid>label2</parameterid>
								<name>Midrange Controls</name>
								<value/>
							</parameter>
							<parameter>
								<parameterid>mids</parameterid>
								<name>Level</name>
								<valuemin>0</valuemin>
								<valuemax>200</valuemax>
								<value>100</value>
							</parameter>
							<parameter>
								<parameterid>m_hue</parameterid>
								<name>Angle</name>
								<valuemin>-180</valuemin>
								<valuemax>180</valuemax>
								<value>-33</value>
							</parameter>
							<parameter>
								<parameterid>m_mag</parameterid>
								<name>Magnitude</name>
								<valuemin>0</valuemin>
								<valuemax>200</valuemax>
								<value>0</value>
							</parameter>
							<parameter>
								<parameterid>label3</parameterid>
								<name>Highlight Controls</name>
								<value/>
							</parameter>
							<parameter>
								<parameterid>highlights</parameterid>
								<name>Level</name>
								<valuemin>64</valuemin>
								<valuemax>509</valuemax>
								<value>255</value>
							</parameter>
							<parameter>
								<parameterid>h_hue</parameterid>
								<name>Angle</name>
								<valuemin>-180</valuemin>
								<valuemax>180</valuemax>
								<value>-33</value>
							</parameter>
							<parameter>
								<parameterid>h_mag</parameterid>
								<name>Magnitude</name>
								<valuemin>0</valuemin>
								<valuemax>200</valuemax>
								<value>0</value>
							</parameter>
							<parameter>
								<parameterid>label4</parameterid>
								<name>Color Controls</name>
								<value/>
							</parameter>
							<parameter>
								<parameterid>chroma</parameterid>
								<name>Saturation</name>
								<valuemin>0</valuemin>
								<valuemax>200</valuemax>
								<value>90</value>
							</parameter>
							<parameter>
								<parameterid>label5</parameterid>
								<name>Limit Effect Controls</name>
								<value/>
							</parameter>
							<parameter>
								<parameterid>dochroma</parameterid>
								<name>Limit on Chroma</name>
								<value>FALSE</value>
							</parameter>
							<parameter>
								<parameterid>centerang</parameterid>
								<name>Chroma Center</name>
								<valuemin>-760</valuemin>
								<valuemax>760</valuemax>
								<value>-110</value>
							</parameter>
							<parameter>
								<parameterid>chromawidth</parameterid>
								<name>Chroma Width</name>
								<valuemin>0</valuemin>
								<valuemax>360</valuemax>
								<value>15</value>
							</parameter>
							<parameter>
								<parameterid>chromasoft</parameterid>
								<name>Chroma Softness</name>
								<valuemin>0</valuemin>
								<valuemax>180</valuemax>
								<value>10</value>
							</parameter>
							<parameter>
								<parameterid>dosat</parameterid>
								<name>Limit on Saturation</name>
								<value>FALSE</value>
							</parameter>
							<parameter>
								<parameterid>satmin</parameterid>
								<name>Sat. Minimum</name>
								<valuemin>0</valuemin>
								<valuemax>125</valuemax>
								<value>35</value>
							</parameter>
							<parameter>
								<parameterid>satwidth</parameterid>
								<name>Sat. Width</name>
								<valuemin>0</valuemin>
								<valuemax>125</valuemax>
								<value>40</value>
							</parameter>
							<parameter>
								<parameterid>satsoft</parameterid>
								<name>Sat. Softness</name>
								<valuemin>0</valuemin>
								<valuemax>125</valuemax>
								<value>20</value>
							</parameter>
							<parameter>
								<parameterid>doluma</parameterid>
								<name>Limit on Luma</name>
								<value>FALSE</value>
							</parameter>
							<parameter>
								<parameterid>lumamin</parameterid>
								<name>Luma Minimum</name>
								<valuemin>0</valuemin>
								<valuemax>120</valuemax>
								<value>0</value>
							</parameter>
							<parameter>
								<parameterid>lumawidth</parameterid>
								<name>Luma Width</name>
								<valuemin>0</valuemin>
								<valuemax>120</valuemax>
								<value>40</value>
							</parameter>
							<parameter>
								<parameterid>lumasoft</parameterid>
								<name>Luma Softness</name>
								<valuemin>0</valuemin>
								<valuemax>120</valuemax>
								<value>20</value>
							</parameter>
							<parameter>
								<parameterid>label6</parameterid>
								<name>Edge Control</name>
								<value/>
							</parameter>
							<parameter>
								<parameterid>edgethin</parameterid>
								<name>Thin/Spread</name>
								<valuemin>-100</valuemin>
								<valuemax>100</valuemax>
								<value>0</value>
							</parameter>
							<parameter>
								<parameterid>edgefeather</parameterid>
								<name>Softening</name>
								<valuemin>0</valuemin>
								<valuemax>100</valuemax>
								<value>0</value>
							</parameter>
							<parameter>
								<parameterid>label7</parameterid>
								<name>Mask Control</name>
								<value/>
							</parameter>
							<parameter>
								<parameterid>invertsel</parameterid>
								<name>Invert</name>
								<value>FALSE</value>
							</parameter>
							<parameter>
								<parameterid>debugshow</parameterid>
								<name>Show Stats</name>
								<value>FALSE</value>
							</parameter>
						</effect>
					</filter>
					<filter>
						<start>-1</start>
						<end>-1</end>
						<effect>
							<name>Color Corrector - Lua til Carina 3 bittelitt</name>
							<effectid>Color Corrector</effectid>
							<effectcategory>Color Correction</effectcategory>
							<effecttype>filter</effecttype>
							<mediatype>video</mediatype>
							<parameter>
								<parameterid>dispmode</parameterid>
								<name>Display Mode</name>
								<valuemin>1</valuemin>
								<valuemax>3</valuemax>
								<valuelist>
									<valueentry>
										<name>Final</name>
										<value>1</value>
									</valueentry>
									<valueentry>
										<name>Matte</name>
										<value>2</value>
									</valueentry>
									<valueentry>
										<name>Source</name>
										<value>3</value>
									</valueentry>
								</valuelist>
								<value>1</value>
							</parameter>
							<parameter>
								<parameterid>label1</parameterid>
								<name>Level Controls</name>
								<value/>
							</parameter>
							<parameter>
								<parameterid>highlights</parameterid>
								<name>Highlights</name>
								<valuemin>64</valuemin>
								<valuemax>509</valuemax>
								<value>247</value>
							</parameter>
							<parameter>
								<parameterid>mids</parameterid>
								<name>Mids</name>
								<valuemin>0</valuemin>
								<valuemax>200</valuemax>
								<value>100</value>
							</parameter>
							<parameter>
								<parameterid>blacklevel</parameterid>
								<name>Blacks</name>
								<valuemin>-196</valuemin>
								<valuemax>254</valuemax>
								<value>-3</value>
							</parameter>
							<parameter>
								<parameterid>label2</parameterid>
								<name>Color Balance</name>
								<value/>
							</parameter>
							<parameter>
								<parameterid>hue</parameterid>
								<name>Angle</name>
								<valuemin>-180</valuemin>
								<valuemax>180</valuemax>
								<value>-33</value>
							</parameter>
							<parameter>
								<parameterid>mag</parameterid>
								<name>Magnitude</name>
								<valuemin>0</valuemin>
								<valuemax>200</valuemax>
								<value>0</value>
							</parameter>
							<parameter>
								<parameterid>label4</parameterid>
								<name>Color Controls</name>
								<value/>
							</parameter>
							<parameter>
								<parameterid>chroma</parameterid>
								<name>Saturation</name>
								<valuemin>0</valuemin>
								<valuemax>200</valuemax>
								<value>94</value>
							</parameter>
							<parameter>
								<parameterid>phase</parameterid>
								<name>Phase shift</name>
								<valuemin>-180</valuemin>
								<valuemax>180</valuemax>
								<value>0</value>
							</parameter>
							<parameter>
								<parameterid>label5</parameterid>
								<name>Limit Effect Controls</name>
								<value/>
							</parameter>
							<parameter>
								<parameterid>dochroma</parameterid>
								<name>Limit on Chroma</name>
								<value>TRUE</value>
							</parameter>
							<parameter>
								<parameterid>centerang</parameterid>
								<name>Chroma Center</name>
								<valuemin>-760</valuemin>
								<valuemax>760</valuemax>
								<value>322.256</value>
							</parameter>
							<parameter>
								<parameterid>chromawidth</parameterid>
								<name>Chroma Width</name>
								<valuemin>0</valuemin>
								<valuemax>360</valuemax>
								<value>8.11959</value>
							</parameter>
							<parameter>
								<parameterid>chromasoft</parameterid>
								<name>Chroma Softness</name>
								<valuemin>0</valuemin>
								<valuemax>180</valuemax>
								<value>26.8371</value>
							</parameter>
							<parameter>
								<parameterid>dosat</parameterid>
								<name>Limit on Saturation</name>
								<value>TRUE</value>
							</parameter>
							<parameter>
								<parameterid>satmin</parameterid>
								<name>Sat. Minimum</name>
								<valuemin>0</valuemin>
								<valuemax>125</valuemax>
								<value>36.7837</value>
							</parameter>
							<parameter>
								<parameterid>satwidth</parameterid>
								<name>Sat. Width</name>
								<valuemin>0</valuemin>
								<valuemax>125</valuemax>
								<value>84.0889</value>
							</parameter>
							<parameter>
								<parameterid>satsoft</parameterid>
								<name>Sat. Softness</name>
								<valuemin>0</valuemin>
								<valuemax>125</valuemax>
								<value>5</value>
							</parameter>
							<parameter>
								<parameterid>doluma</parameterid>
								<name>Limit on Luma</name>
								<value>TRUE</value>
							</parameter>
							<parameter>
								<parameterid>lumamin</parameterid>
								<name>Luma Minimum</name>
								<valuemin>0</valuemin>
								<valuemax>120</valuemax>
								<value>0.939667</value>
							</parameter>
							<parameter>
								<parameterid>lumawidth</parameterid>
								<name>Luma Width</name>
								<valuemin>0</valuemin>
								<valuemax>120</valuemax>
								<value>115.45</value>
							</parameter>
							<parameter>
								<parameterid>lumasoft</parameterid>
								<name>Luma Softness</name>
								<valuemin>0</valuemin>
								<valuemax>120</valuemax>
								<value>15.1099</value>
							</parameter>
							<parameter>
								<parameterid>label6</parameterid>
								<name>Edge Control</name>
								<value/>
							</parameter>
							<parameter>
								<parameterid>edgethin</parameterid>
								<name>Thin/Spread</name>
								<valuemin>-100</valuemin>
								<valuemax>100</valuemax>
								<value>0</value>
							</parameter>
							<parameter>
								<parameterid>edgefeather</parameterid>
								<name>Softening</name>
								<valuemin>0</valuemin>
								<valuemax>100</valuemax>
								<value>6</value>
							</parameter>
							<parameter>
								<parameterid>label7</parameterid>
								<name>Mask Control</name>
								<value/>
							</parameter>
							<parameter>
								<parameterid>invertsel</parameterid>
								<name>Invert</name>
								<value>FALSE</value>
							</parameter>
							<parameter>
								<parameterid>debugshow</parameterid>
								<name>Show Stats</name>
								<value>FALSE</value>
							</parameter>
						</effect>
					</filter>
					<sourcetrack>
						<mediatype>video</mediatype>
					</sourcetrack>
					<link>
						<linkclipref>00715001.MOV10</linkclipref>
						<mediatype>video</mediatype>
						<trackindex>1</trackindex>
						<clipindex>34</clipindex>
					</link>
					<link>
						<linkclipref>00715001.MOV11</linkclipref>
						<mediatype>audio</mediatype>
						<trackindex>1</trackindex>
						<clipindex>31</clipindex>
					</link>
					<link>
						<linkclipref>00715001.MOV12</linkclipref>
						<mediatype>audio</mediatype>
						<trackindex>2</trackindex>
						<clipindex>31</clipindex>
					</link>
					<fielddominance>upper</fielddominance>
					<itemhistory>
						<uuid>507FAEB6-7F8E-46CB-815D-BACAE9E9F307</uuid>
					</itemhistory>
				</clipitem>
				<transitionitem>
					<rate>
						<ntsc>FALSE</ntsc>
						<timebase>25</timebase>
					</rate>
					<start>4754</start>
					<end>4769</end>
					<alignment>center</alignment>
					<effect>
						<name>G Glow Dissolve</name>
						<effectcategory>Nattress Big Box Of Tricks</effectcategory>
						<effecttype>transition</effecttype>
						<mediatype>video</mediatype>
						<wipecode>0</wipecode>
						<wipeaccuracy>100</wipeaccuracy>
						<startratio>0</startratio>
						<endratio>1</endratio>
						<reverse>FALSE</reverse>
						<parameter>
							<parameterid>glowamount</parameterid>
							<name>Glow Amount</name>
							<valuemin>0</valuemin>
							<valuemax>100</valuemax>
							<value>75</value>
						</parameter>
						<parameter>
							<parameterid>glowthreshold</parameterid>
							<name>Glow Threshold Limit</name>
							<valuemin>0</valuemin>
							<valuemax>100</valuemax>
							<value>12</value>
						</parameter>
						<parameter>
							<parameterid>glowsize</parameterid>
							<name>Glow Size</name>
							<valuemin>0</valuemin>
							<valuemax>100</valuemax>
							<value>4</value>
						</parameter>
						<parameter>
							<parameterid>ablur</parameterid>
							<name>Blur</name>
							<valuemin>0</valuemin>
							<valuemax>100</valuemax>
							<value>4</value>
						</parameter>
						<parameter>
							<parameterid>asaturation</parameterid>
							<name>Saturation</name>
							<valuemin>-1</valuemin>
							<valuemax>4</valuemax>
							<value>0</value>
						</parameter>
						<parameter>
							<parameterid>dissolvep</parameterid>
							<name>Dissolve Percentage</name>
							<valuemin>5</valuemin>
							<valuemax>100</valuemax>
							<value>50</value>
						</parameter>
						<parameter>
							<parameterid>copyright</parameterid>
							<name>© www.nattress.com</name>
							<value>string</value>
						</parameter>
					</effect>
				</transitionitem>
				<clipitem id="DYR18071_01 ">
					<name>DYR18071_01</name>
					<duration>610</duration>
					<rate>
						<ntsc>FALSE</ntsc>
						<timebase>25</timebase>
					</rate>
					<in>295</in>
					<out>393</out>
					<start>-1</start>
					<end>4852</end>
					<pixelaspectratio>Square</pixelaspectratio>
					<enabled>TRUE</enabled>
					<anamorphic>FALSE</anamorphic>
					<alphatype>none</alphatype>
					<masterclipid>DYR18071_01 1</masterclipid>
					<logginginfo>
						<scene/>
						<shottake/>
						<lognote/>
						<good>FALSE</good>
					</logginginfo>
					<labels>
						<label2/>
					</labels>
					<comments>
						<mastercomment1/>
						<mastercomment2/>
						<mastercomment3/>
						<mastercomment4/>
					</comments>
					<file id="DYR18071_01 2">
						<name>DYR18071_01.mov</name>
						<pathurl>file://localhost/Volumes/Askepott/Prosjekter/DNPR637010_Kra%CC%8Akeklubben_TEM_011212/Video/SKOGBARNA/Trollskog/DYR18071_01.mov</pathurl>
						<rate>
							<timebase>25</timebase>
						</rate>
						<duration>610</duration>
						<metadata>
							<storage>QuickTime</storage>
							<key>com.sony.bprl.xdcamtransfer.version</key>
							<size>10</size>
							<type>UTF8</type>
							<value>2.12.0.631</value>
						</metadata>
						<metadata>
							<storage>QuickTime</storage>
							<key>org.smpte.mxf.package.material.packageid</key>
							<size>66</size>
							<type>UTF8</type>
							<value>0x060a2b340101010501010d43130000004e32fd7c395405dc08004602022f05f5</value>
						</metadata>
						<metadata>
							<storage>QuickTime</storage>
							<key>com.sony.professionaldisc.nonrealtimemeta.lastupdate</key>
							<size>25</size>
							<type>UTF8</type>
							<value>2010-08-31 12:43:29 +0100</value>
						</metadata>
						<metadata>
							<storage>QuickTime</storage>
							<key>com.sony.bprl.mxf.umid</key>
							<size>64</size>
							<type>UTF8</type>
							<value>060a2b340101010501010d43130000004e32fd7c395405dc08004602022f05f5</value>
						</metadata>
						<metadata>
							<storage>QuickTime</storage>
							<key>com.sony.bprl.mxf.nrtmetadata</key>
							<size>1991</size>
							<type>UTF8</type>
							<value>&lt;?xml version="1.0" encoding="UTF-8"?>&lt;NonRealTimeMeta xmlns="urn:schemas-professionalDisc:nonRealTimeMeta:ver.1.20" xmlns:lib="urn:schemas-professionalDisc:lib:ver.1.20" xmlns:xsi="http://www.w3.org/2001/XMLSchema-instance" lastUpdate="2010-08-31T12:43:29+01:00">&lt;TargetMaterial umidRef="060A2B340101010501010D43130000004E32FD7C395405DC08004602022F05F5">&lt;/TargetMaterial>&lt;Duration value="610">&lt;/Duration>&lt;LtcChangeTable tcFps="25" halfStep="false">&lt;LtcChange frameCount="0" value="05351406" status="increment">&lt;/LtcChange>&lt;LtcChange frameCount="609" value="14591406" status="end">&lt;/LtcChange>&lt;/LtcChangeTable>&lt;CreationDate value="2010-08-31T12:43:03+01:00">&lt;/CreationDate>&lt;TypicalUbit value="0000000017061020">&lt;/TypicalUbit>&lt;BodyUmidBasicChangeTable>&lt;BodyUmidBasicChange frameCount="0" value="060A2B340101010501010D43330000004E32FD7C395405DC08004602022F05F5" status="start">&lt;/BodyUmidBasicChange>&lt;/BodyUmidBasicChangeTable>&lt;BodyUmidWhenChangeTable>&lt;BodyUmidWhenChange frameCount="0" value="04E30504395405A5" status="increment">&lt;/BodyUmidWhenChange>&lt;BodyUmidWhenChange frameCount="609" value="447B0604395405A5" status="end">&lt;/BodyUmidWhenChange>&lt;/BodyUmidWhenChangeTable>&lt;KlvPacketTable>&lt;KlvPacket key="060E2B34010101050301020A02000000" frameCount="0" lengthValue="095F5265635374617274" status="spot">&lt;/KlvPacket>&lt;/KlvPacketTable>&lt;VideoFormat>&lt;VideoRecPort port="DIRECT">&lt;/VideoRecPort>&lt;VideoFrame videoCodec="MPEG2HD35_1920_1080_MP@HL" captureFps="50.00i" recFps="50.00" formatFps="50i">&lt;/VideoFrame>&lt;VideoLayout pixel="1920" numOfVerticalLine="1080" aspectRatio="16:9">&lt;/VideoLayout>&lt;/VideoFormat>&lt;AudioFormat numOfChannel="2">&lt;AudioRecPort port="ANALOG" audioCodec="LPCM16" trackDst="CH1">&lt;/AudioRecPort>&lt;AudioRecPort port="ANALOG" audioCodec="LPCM16" trackDst="CH2">&lt;/AudioRecPort>&lt;/AudioFormat>&lt;Device manufacturer="Sony" modelName="PMW-EX3" serialNo="0401525">&lt;/Device>&lt;Lens modelName="VCL-614B2X">&lt;/Lens>&lt;RecordingMode type="normal" cacheRec="false">&lt;/RecordingMode>&lt;/NonRealTimeMeta>
							</value>
						</metadata>
						<metadata>
							<storage>QuickTime</storage>
							<key>com.apple.proapps.reel</key>
							<size>8</size>
							<type>UTF8</type>
							<value>Untitled</value>
						</metadata>
						<metadata>
							<storage>QuickTime</storage>
							<key>com.apple.proapps.clipID</key>
							<size>64</size>
							<type>UTF8</type>
							<value>060A2B340101010501010D43130000004E32FD7C395405DC08004602022F05F5</value>
						</metadata>
						<metadata>
							<storage>QuickTime</storage>
							<key>com.apple.quicktime.information</key>
							<size>64</size>
							<type>UTF8</type>
							<value>060a2b340101010501010d43130000004e32fd7c395405dc08004602022f05f5</value>
						</metadata>
						<metadata>
							<storage>QuickTime</storage>
							<key>com.apple.proapps.originalFormat</key>
							<size>36</size>
							<type>UTF8</type>
							<value>Apple XDCAM EX 1080i50 (35 Mb/s VBR)</value>
						</metadata>
						<timecode>
							<rate>
								<timebase>25</timebase>
							</rate>
							<string>06:14:35:05</string>
							<frame>561880</frame>
							<displayformat>NDF</displayformat>
							<source>source</source>
							<reel>
								<name>Untitled</name>
							</reel>
						</timecode>
						<media>
							<video>
								<duration>610</duration>
								<samplecharacteristics>
									<width>1920</width>
									<height>1080</height>
								</samplecharacteristics>
							</video>
							<audio>
								<samplecharacteristics>
									<samplerate>48000</samplerate>
									<depth>16</depth>
								</samplecharacteristics>
								<channelcount>1</channelcount>
								<layout>mono</layout>
								<audiochannel>
									<sourcechannel>1</sourcechannel>
									<channellabel>discrete</channellabel>
								</audiochannel>
							</audio>
							<audio>
								<samplecharacteristics>
									<samplerate>48000</samplerate>
									<depth>16</depth>
								</samplecharacteristics>
								<channelcount>1</channelcount>
								<layout>mono</layout>
								<audiochannel>
									<sourcechannel>2</sourcechannel>
									<channellabel>discrete</channellabel>
								</audiochannel>
							</audio>
						</media>
					</file>
					<sourcetrack>
						<mediatype>video</mediatype>
					</sourcetrack>
					<link>
						<linkclipref>DYR18071_01 </linkclipref>
						<mediatype>video</mediatype>
						<trackindex>1</trackindex>
						<clipindex>36</clipindex>
					</link>
					<link>
						<linkclipref>DYR18071_01 3</linkclipref>
						<mediatype>audio</mediatype>
						<trackindex>1</trackindex>
						<clipindex>32</clipindex>
					</link>
					<link>
						<linkclipref>DYR18071_01 4</linkclipref>
						<mediatype>audio</mediatype>
						<trackindex>2</trackindex>
						<clipindex>32</clipindex>
					</link>
					<fielddominance>upper</fielddominance>
					<itemhistory>
						<uuid>4979E0D9-31BD-472D-98DD-0511A5DEB20E</uuid>
					</itemhistory>
				</clipitem>
				<clipitem id="DYR18058_01 ">
					<name>DYR18058_01</name>
					<duration>579</duration>
					<rate>
						<ntsc>FALSE</ntsc>
						<timebase>25</timebase>
					</rate>
					<in>298</in>
					<out>358</out>
					<start>4852</start>
					<end>4912</end>
					<pixelaspectratio>Square</pixelaspectratio>
					<enabled>TRUE</enabled>
					<anamorphic>FALSE</anamorphic>
					<alphatype>none</alphatype>
					<masterclipid>DYR18058_01 1</masterclipid>
					<logginginfo>
						<scene/>
						<shottake/>
						<lognote/>
						<good>FALSE</good>
					</logginginfo>
					<labels>
						<label2/>
					</labels>
					<comments>
						<mastercomment1/>
						<mastercomment2/>
						<mastercomment3/>
						<mastercomment4/>
					</comments>
					<file id="DYR18058_01 2">
						<name>DYR18058_01.mov</name>
						<pathurl>file://localhost/Volumes/Askepott/Prosjekter/DNPR637010_Kra%CC%8Akeklubben_TEM_011212/Video/SKOGBARNA/Trollskog/DYR18058_01.mov</pathurl>
						<rate>
							<timebase>25</timebase>
						</rate>
						<duration>579</duration>
						<metadata>
							<storage>QuickTime</storage>
							<key>com.sony.bprl.xdcamtransfer.version</key>
							<size>10</size>
							<type>UTF8</type>
							<value>2.12.0.631</value>
						</metadata>
						<metadata>
							<storage>QuickTime</storage>
							<key>org.smpte.mxf.package.material.packageid</key>
							<size>66</size>
							<type>UTF8</type>
							<value>0x060a2b340101010501010d43130000004dfc0d7b395405da08004602022f05f5</value>
						</metadata>
						<metadata>
							<storage>QuickTime</storage>
							<key>com.sony.professionaldisc.nonrealtimemeta.lastupdate</key>
							<size>25</size>
							<type>UTF8</type>
							<value>2010-08-31 12:32:35 +0100</value>
						</metadata>
						<metadata>
							<storage>QuickTime</storage>
							<key>com.sony.bprl.mxf.umid</key>
							<size>64</size>
							<type>UTF8</type>
							<value>060a2b340101010501010d43130000004dfc0d7b395405da08004602022f05f5</value>
						</metadata>
						<metadata>
							<storage>QuickTime</storage>
							<key>com.sony.bprl.mxf.nrtmetadata</key>
							<size>1991</size>
							<type>UTF8</type>
							<value>&lt;?xml version="1.0" encoding="UTF-8"?>&lt;NonRealTimeMeta xmlns="urn:schemas-professionalDisc:nonRealTimeMeta:ver.1.20" xmlns:lib="urn:schemas-professionalDisc:lib:ver.1.20" xmlns:xsi="http://www.w3.org/2001/XMLSchema-instance" lastUpdate="2010-08-31T12:32:35+01:00">&lt;TargetMaterial umidRef="060A2B340101010501010D43130000004DFC0D7B395405DA08004602022F05F5">&lt;/TargetMaterial>&lt;Duration value="579">&lt;/Duration>&lt;LtcChangeTable tcFps="25" halfStep="false">&lt;LtcChange frameCount="0" value="17540906" status="increment">&lt;/LtcChange>&lt;LtcChange frameCount="578" value="20171006" status="end">&lt;/LtcChange>&lt;/LtcChangeTable>&lt;CreationDate value="2010-08-31T12:32:10+01:00">&lt;/CreationDate>&lt;TypicalUbit value="0000000017061020">&lt;/TypicalUbit>&lt;BodyUmidBasicChangeTable>&lt;BodyUmidBasicChange frameCount="0" value="060A2B340101010501010D43330000004DFC0D7B395405DA08004602022F05F5" status="start">&lt;/BodyUmidBasicChange>&lt;/BodyUmidBasicChangeTable>&lt;BodyUmidWhenChangeTable>&lt;BodyUmidWhenChange frameCount="0" value="84F2F503395405A5" status="increment">&lt;/BodyUmidWhenChange>&lt;BodyUmidWhenChange frameCount="578" value="0483F603395405A5" status="end">&lt;/BodyUmidWhenChange>&lt;/BodyUmidWhenChangeTable>&lt;KlvPacketTable>&lt;KlvPacket key="060E2B34010101050301020A02000000" frameCount="0" lengthValue="095F5265635374617274" status="spot">&lt;/KlvPacket>&lt;/KlvPacketTable>&lt;VideoFormat>&lt;VideoRecPort port="DIRECT">&lt;/VideoRecPort>&lt;VideoFrame videoCodec="MPEG2HD35_1920_1080_MP@HL" captureFps="50.00i" recFps="50.00" formatFps="50i">&lt;/VideoFrame>&lt;VideoLayout pixel="1920" numOfVerticalLine="1080" aspectRatio="16:9">&lt;/VideoLayout>&lt;/VideoFormat>&lt;AudioFormat numOfChannel="2">&lt;AudioRecPort port="ANALOG" audioCodec="LPCM16" trackDst="CH1">&lt;/AudioRecPort>&lt;AudioRecPort port="ANALOG" audioCodec="LPCM16" trackDst="CH2">&lt;/AudioRecPort>&lt;/AudioFormat>&lt;Device manufacturer="Sony" modelName="PMW-EX3" serialNo="0401525">&lt;/Device>&lt;Lens modelName="VCL-614B2X">&lt;/Lens>&lt;RecordingMode type="normal" cacheRec="false">&lt;/RecordingMode>&lt;/NonRealTimeMeta>
							</value>
						</metadata>
						<metadata>
							<storage>QuickTime</storage>
							<key>com.apple.proapps.reel</key>
							<size>8</size>
							<type>UTF8</type>
							<value>Untitled</value>
						</metadata>
						<metadata>
							<storage>QuickTime</storage>
							<key>com.apple.proapps.clipID</key>
							<size>64</size>
							<type>UTF8</type>
							<value>060A2B340101010501010D43130000004DFC0D7B395405DA08004602022F05F5</value>
						</metadata>
						<metadata>
							<storage>QuickTime</storage>
							<key>com.apple.quicktime.information</key>
							<size>64</size>
							<type>UTF8</type>
							<value>060a2b340101010501010d43130000004dfc0d7b395405da08004602022f05f5</value>
						</metadata>
						<metadata>
							<storage>QuickTime</storage>
							<key>com.apple.proapps.originalFormat</key>
							<size>36</size>
							<type>UTF8</type>
							<value>Apple XDCAM EX 1080i50 (35 Mb/s VBR)</value>
						</metadata>
						<timecode>
							<rate>
								<timebase>25</timebase>
							</rate>
							<string>06:09:54:17</string>
							<frame>554867</frame>
							<displayformat>NDF</displayformat>
							<source>source</source>
							<reel>
								<name>Untitled</name>
							</reel>
						</timecode>
						<media>
							<video>
								<duration>579</duration>
								<samplecharacteristics>
									<width>1920</width>
									<height>1080</height>
								</samplecharacteristics>
							</video>
							<audio>
								<samplecharacteristics>
									<samplerate>48000</samplerate>
									<depth>16</depth>
								</samplecharacteristics>
								<channelcount>1</channelcount>
								<layout>mono</layout>
								<audiochannel>
									<sourcechannel>1</sourcechannel>
									<channellabel>discrete</channellabel>
								</audiochannel>
							</audio>
							<audio>
								<samplecharacteristics>
									<samplerate>48000</samplerate>
									<depth>16</depth>
								</samplecharacteristics>
								<channelcount>1</channelcount>
								<layout>mono</layout>
								<audiochannel>
									<sourcechannel>2</sourcechannel>
									<channellabel>discrete</channellabel>
								</audiochannel>
							</audio>
						</media>
					</file>
					<sourcetrack>
						<mediatype>video</mediatype>
					</sourcetrack>
					<link>
						<linkclipref>DYR18058_01 </linkclipref>
						<mediatype>video</mediatype>
						<trackindex>1</trackindex>
						<clipindex>37</clipindex>
					</link>
					<link>
						<linkclipref>DYR18058_01 3</linkclipref>
						<mediatype>audio</mediatype>
						<trackindex>1</trackindex>
						<clipindex>34</clipindex>
					</link>
					<link>
						<linkclipref>DYR18058_01 4</linkclipref>
						<mediatype>audio</mediatype>
						<trackindex>2</trackindex>
						<clipindex>34</clipindex>
					</link>
					<fielddominance>upper</fielddominance>
					<itemhistory>
						<uuid>624D1327-E063-4B2C-A6FD-526CD0B30463</uuid>
					</itemhistory>
				</clipitem>
				<clipitem id="DYR18071_01 5">
					<name>DYR18071_01</name>
					<duration>610</duration>
					<rate>
						<ntsc>FALSE</ntsc>
						<timebase>25</timebase>
					</rate>
					<in>70</in>
					<out>128</out>
					<start>4912</start>
					<end>4970</end>
					<pixelaspectratio>Square</pixelaspectratio>
					<enabled>TRUE</enabled>
					<anamorphic>FALSE</anamorphic>
					<alphatype>none</alphatype>
					<masterclipid>DYR18071_01 1</masterclipid>
					<logginginfo>
						<scene/>
						<shottake/>
						<lognote/>
						<good>FALSE</good>
					</logginginfo>
					<labels>
						<label2/>
					</labels>
					<comments>
						<mastercomment1/>
						<mastercomment2/>
						<mastercomment3/>
						<mastercomment4/>
					</comments>
					<file id="DYR18071_01 2"/>
					<filter>
						<effect>
							<name>Basic Motion</name>
							<effectid>basic</effectid>
							<effectcategory>motion</effectcategory>
							<effecttype>motion</effecttype>
							<mediatype>video</mediatype>
							<parameter>
								<parameterid>scale</parameterid>
								<name>Scale</name>
								<valuemin>0</valuemin>
								<valuemax>1000</valuemax>
								<value>100</value>
							</parameter>
							<parameter>
								<parameterid>rotation</parameterid>
								<name>Rotation</name>
								<valuemin>-8640</valuemin>
								<valuemax>8640</valuemax>
								<value>0</value>
							</parameter>
							<parameter>
								<parameterid>center</parameterid>
								<name>Center</name>
								<value>
									<horiz>0</horiz>
									<vert>0</vert>
								</value>
							</parameter>
							<parameter>
								<parameterid>centerOffset</parameterid>
								<name>Anchor Point</name>
								<value>
									<horiz>0</horiz>
									<vert>0</vert>
								</value>
							</parameter>
						</effect>
					</filter>
					<filter>
						<enabled>FALSE</enabled>
						<effect>
							<name>Drop Shadow</name>
							<effectid>dropshadow</effectid>
							<effectcategory>motion</effectcategory>
							<effecttype>motion</effecttype>
							<mediatype>video</mediatype>
							<parameter>
								<parameterid>offset</parameterid>
								<name>offset</name>
								<valuemin>-100</valuemin>
								<valuemax>100</valuemax>
								<value>2</value>
							</parameter>
							<parameter>
								<parameterid>angle</parameterid>
								<name>angle</name>
								<valuemin>-720</valuemin>
								<valuemax>720</valuemax>
								<value>135</value>
							</parameter>
							<parameter>
								<parameterid>color</parameterid>
								<name>color</name>
								<value>
									<alpha>0</alpha>
									<red>0</red>
									<green>0</green>
									<blue>0</blue>
								</value>
							</parameter>
							<parameter>
								<parameterid>softness</parameterid>
								<name>softness</name>
								<valuemin>0</valuemin>
								<valuemax>100</valuemax>
								<value>10</value>
							</parameter>
							<parameter>
								<parameterid>opacity</parameterid>
								<name>opacity</name>
								<valuemin>0</valuemin>
								<valuemax>100</valuemax>
								<value>50</value>
							</parameter>
						</effect>
					</filter>
					<filter>
						<enabled>FALSE</enabled>
						<effect>
							<name>Motion Blur</name>
							<effectid>motionblur</effectid>
							<effectcategory>motion</effectcategory>
							<effecttype>motion</effecttype>
							<mediatype>video</mediatype>
							<parameter>
								<parameterid>duration</parameterid>
								<name>% Blur</name>
								<valuemin>0</valuemin>
								<valuemax>1000</valuemax>
								<value>500</value>
							</parameter>
							<parameter>
								<parameterid>samples</parameterid>
								<name>Samples</name>
								<valuemin>1</valuemin>
								<valuemax>16</valuemax>
								<value>4</value>
							</parameter>
						</effect>
					</filter>
					<filter>
						<effect>
							<name>Crop</name>
							<effectid>crop</effectid>
							<effectcategory>motion</effectcategory>
							<effecttype>motion</effecttype>
							<mediatype>video</mediatype>
							<parameter>
								<parameterid>left</parameterid>
								<name>left</name>
								<valuemin>0</valuemin>
								<valuemax>100</valuemax>
								<value>0</value>
							</parameter>
							<parameter>
								<parameterid>right</parameterid>
								<name>right</name>
								<valuemin>0</valuemin>
								<valuemax>100</valuemax>
								<value>0</value>
							</parameter>
							<parameter>
								<parameterid>top</parameterid>
								<name>top</name>
								<valuemin>0</valuemin>
								<valuemax>100</valuemax>
								<value>0</value>
							</parameter>
							<parameter>
								<parameterid>bottom</parameterid>
								<name>bottom</name>
								<valuemin>0</valuemin>
								<valuemax>100</valuemax>
								<value>0</value>
							</parameter>
							<parameter>
								<parameterid>edgefeather</parameterid>
								<name>edgefeather</name>
								<valuemin>0</valuemin>
								<valuemax>100</valuemax>
								<value>0</value>
							</parameter>
						</effect>
					</filter>
					<filter>
						<effect>
							<name>Distort</name>
							<effectid>deformation</effectid>
							<effectcategory>motion</effectcategory>
							<effecttype>motion</effecttype>
							<mediatype>video</mediatype>
							<parameter>
								<parameterid>ulcorner</parameterid>
								<name>Upper Left</name>
								<value>
									<horiz>-0.5</horiz>
									<vert>-0.5</vert>
								</value>
							</parameter>
							<parameter>
								<parameterid>urcorner</parameterid>
								<name>Upper Right</name>
								<value>
									<horiz>0.5</horiz>
									<vert>-0.5</vert>
								</value>
							</parameter>
							<parameter>
								<parameterid>lrcorner</parameterid>
								<name>Lower Right</name>
								<value>
									<horiz>0.5</horiz>
									<vert>0.5</vert>
								</value>
							</parameter>
							<parameter>
								<parameterid>llcorner</parameterid>
								<name>Lower Left</name>
								<value>
									<horiz>-0.5</horiz>
									<vert>0.5</vert>
								</value>
							</parameter>
							<parameter>
								<parameterid>aspect</parameterid>
								<name>Aspect</name>
								<valuemin>-10000</valuemin>
								<valuemax>10000</valuemax>
								<value>0</value>
							</parameter>
						</effect>
					</filter>
					<filter>
						<effect>
							<name>Opacity</name>
							<effectid>opacity</effectid>
							<effectcategory>motion</effectcategory>
							<effecttype>motion</effecttype>
							<mediatype>video</mediatype>
							<parameter>
								<parameterid>opacity</parameterid>
								<name>opacity</name>
								<valuemin>0</valuemin>
								<valuemax>100</valuemax>
								<value>100</value>
							</parameter>
						</effect>
					</filter>
					<sourcetrack>
						<mediatype>video</mediatype>
					</sourcetrack>
					<link>
						<linkclipref>DYR18071_01 5</linkclipref>
						<mediatype>video</mediatype>
						<trackindex>1</trackindex>
						<clipindex>38</clipindex>
					</link>
					<link>
						<linkclipref>DYR18071_01 6</linkclipref>
						<mediatype>audio</mediatype>
						<trackindex>1</trackindex>
						<clipindex>35</clipindex>
					</link>
					<link>
						<linkclipref>DYR18071_01 7</linkclipref>
						<mediatype>audio</mediatype>
						<trackindex>2</trackindex>
						<clipindex>35</clipindex>
					</link>
					<fielddominance>upper</fielddominance>
					<itemhistory>
						<uuid>BA001E46-D86F-4065-A72F-114DAC70708E</uuid>
					</itemhistory>
					<filter>
						<effect>
							<name>Time Remap</name>
							<effectid>timeremap</effectid>
							<effectcategory>motion</effectcategory>
							<effecttype>motion</effecttype>
							<mediatype>video</mediatype>
							<parameter>
								<parameterid>variablespeed</parameterid>
								<name>variablespeed</name>
								<valuemin>0</valuemin>
								<valuemax>1</valuemax>
								<value>1</value>
							</parameter>
							<parameter>
								<parameterid>mappedduration</parameterid>
								<name>mappedduration</name>
								<value>
									<timecode>
										<rate>
											<timebase>0</timebase>
										</rate>
										<string>0</string>
										<frame>0</frame>
										<displayformat>NDF</displayformat>
									</timecode>
								</value>
							</parameter>
							<parameter>
								<parameterid>speed</parameterid>
								<name>speed</name>
								<valuemin>-10000</valuemin>
								<valuemax>10000</valuemax>
								<value>547</value>
							</parameter>
							<parameter>
								<parameterid>reverse</parameterid>
								<name>reverse</name>
								<value>FALSE</value>
							</parameter>
							<parameter>
								<parameterid>frameblending</parameterid>
								<name>frameblending</name>
								<value>TRUE</value>
							</parameter>
							<parameter>
								<parameterid>graphdict</parameterid>
								<name>graphdict</name>
								<valuemin>0</valuemin>
								<valuemax>609</valuemax>
								<keyframe>
									<when>0</when>
									<value>0</value>
									<speedkfstart>TRUE</speedkfstart>
									<speedvirtualkf>TRUE</speedvirtualkf>
								</keyframe>
								<keyframe>
									<when>70</when>
									<value>57.1792</value>
									<speedkfin>TRUE</speedkfin>
									<speedvirtualkf>TRUE</speedvirtualkf>
								</keyframe>
								<keyframe>
									<when>76</when>
									<value>66</value>
									<inbez>
										<horiz>16.5</horiz>
										<vert>-2.0944</vert>
									</inbez>
									<outbez>
										<horiz>2.5</horiz>
										<vert>1.0472</vert>
									</outbez>
								</keyframe>
								<keyframe>
									<when>83</when>
									<value>168</value>
									<inbez>
										<horiz>1.60948</horiz>
										<vert>-1.73952</vert>
									</inbez>
									<outbez>
										<horiz>23.4841</horiz>
										<vert>1.25359</vert>
									</outbez>
								</keyframe>
								<keyframe>
									<when>105</when>
									<value>212</value>
									<inbez>
										<horiz>8.25</horiz>
										<vert>-1.91986</vert>
									</inbez>
									<outbez>
										<horiz>1.5</horiz>
										<vert>1.22173</vert>
									</outbez>
								</keyframe>
								<keyframe>
									<when>114</when>
									<value>348</value>
									<inbez>
										<horiz>1.5</horiz>
										<vert>-1.98968</vert>
									</inbez>
									<outbez>
										<horiz>25.25</horiz>
										<vert>1.15192</vert>
									</outbez>
								</keyframe>
								<keyframe>
									<when>128</when>
									<value>370.367</value>
									<speedkfout>TRUE</speedkfout>
									<speedvirtualkf>TRUE</speedvirtualkf>
								</keyframe>
								<keyframe>
									<when>223</when>
									<value>445</value>
								</keyframe>
								<keyframe>
									<when>610</when>
									<value>610</value>
									<speedkfend>TRUE</speedkfend>
									<speedvirtualkf>TRUE</speedvirtualkf>
								</keyframe>
								<interpolation>
									<name>FCPCurve</name>
								</interpolation>
								<value>57.1792</value>
							</parameter>
						</effect>
					</filter>
				</clipitem>
				<clipitem id="DYR18064_01 ">
					<name>DYR18064_01</name>
					<duration>757</duration>
					<rate>
						<ntsc>FALSE</ntsc>
						<timebase>25</timebase>
					</rate>
					<in>148</in>
					<out>225</out>
					<start>4970</start>
					<end>-1</end>
					<pixelaspectratio>Square</pixelaspectratio>
					<enabled>TRUE</enabled>
					<anamorphic>FALSE</anamorphic>
					<alphatype>none</alphatype>
					<masterclipid>DYR18064_01 1</masterclipid>
					<logginginfo>
						<scene/>
						<shottake/>
						<lognote/>
						<good>FALSE</good>
					</logginginfo>
					<labels>
						<label2/>
					</labels>
					<comments>
						<mastercomment1/>
						<mastercomment2/>
						<mastercomment3/>
						<mastercomment4/>
					</comments>
					<file id="DYR18064_01 2">
						<name>DYR18064_01.mov</name>
						<pathurl>file://localhost/Volumes/Askepott/Prosjekter/DNPR637010_Kra%CC%8Akeklubben_TEM_011212/Video/SKOGBARNA/Trollskog/DYR18064_01.mov</pathurl>
						<rate>
							<timebase>25</timebase>
						</rate>
						<duration>757</duration>
						<metadata>
							<storage>QuickTime</storage>
							<key>com.sony.bprl.xdcamtransfer.version</key>
							<size>10</size>
							<type>UTF8</type>
							<value>2.12.0.631</value>
						</metadata>
						<metadata>
							<storage>QuickTime</storage>
							<key>org.smpte.mxf.package.material.packageid</key>
							<size>66</size>
							<type>UTF8</type>
							<value>0x060a2b340101010501010d43130000002d7ac57b395405cb08004602022f05f5</value>
						</metadata>
						<metadata>
							<storage>QuickTime</storage>
							<key>com.sony.professionaldisc.nonrealtimemeta.lastupdate</key>
							<size>25</size>
							<type>UTF8</type>
							<value>2010-08-31 12:36:44 +0100</value>
						</metadata>
						<metadata>
							<storage>QuickTime</storage>
							<key>com.sony.bprl.mxf.umid</key>
							<size>64</size>
							<type>UTF8</type>
							<value>060a2b340101010501010d43130000002d7ac57b395405cb08004602022f05f5</value>
						</metadata>
						<metadata>
							<storage>QuickTime</storage>
							<key>com.sony.bprl.mxf.nrtmetadata</key>
							<size>1991</size>
							<type>UTF8</type>
							<value>&lt;?xml version="1.0" encoding="UTF-8"?>&lt;NonRealTimeMeta xmlns="urn:schemas-professionalDisc:nonRealTimeMeta:ver.1.20" xmlns:lib="urn:schemas-professionalDisc:lib:ver.1.20" xmlns:xsi="http://www.w3.org/2001/XMLSchema-instance" lastUpdate="2010-08-31T12:36:44+01:00">&lt;TargetMaterial umidRef="060A2B340101010501010D43130000002D7AC57B395405CB08004602022F05F5">&lt;/TargetMaterial>&lt;Duration value="757">&lt;/Duration>&lt;LtcChangeTable tcFps="25" halfStep="false">&lt;LtcChange frameCount="0" value="00161206" status="increment">&lt;/LtcChange>&lt;LtcChange frameCount="756" value="06461206" status="end">&lt;/LtcChange>&lt;/LtcChangeTable>&lt;CreationDate value="2010-08-31T12:36:12+01:00">&lt;/CreationDate>&lt;TypicalUbit value="0000000017061020">&lt;/TypicalUbit>&lt;BodyUmidBasicChangeTable>&lt;BodyUmidBasicChange frameCount="0" value="060A2B340101010501010D43330000002D7AC57B395405CB08004602022F05F5" status="start">&lt;/BodyUmidBasicChange>&lt;/BodyUmidBasicChangeTable>&lt;BodyUmidWhenChangeTable>&lt;BodyUmidWhenChange frameCount="0" value="84DAFB03395405A5" status="increment">&lt;/BodyUmidWhenChange>&lt;BodyUmidWhenChange frameCount="756" value="8497FC03395405A5" status="end">&lt;/BodyUmidWhenChange>&lt;/BodyUmidWhenChangeTable>&lt;KlvPacketTable>&lt;KlvPacket key="060E2B34010101050301020A02000000" frameCount="0" lengthValue="095F5265635374617274" status="spot">&lt;/KlvPacket>&lt;/KlvPacketTable>&lt;VideoFormat>&lt;VideoRecPort port="DIRECT">&lt;/VideoRecPort>&lt;VideoFrame videoCodec="MPEG2HD35_1920_1080_MP@HL" captureFps="50.00i" recFps="50.00" formatFps="50i">&lt;/VideoFrame>&lt;VideoLayout pixel="1920" numOfVerticalLine="1080" aspectRatio="16:9">&lt;/VideoLayout>&lt;/VideoFormat>&lt;AudioFormat numOfChannel="2">&lt;AudioRecPort port="ANALOG" audioCodec="LPCM16" trackDst="CH1">&lt;/AudioRecPort>&lt;AudioRecPort port="ANALOG" audioCodec="LPCM16" trackDst="CH2">&lt;/AudioRecPort>&lt;/AudioFormat>&lt;Device manufacturer="Sony" modelName="PMW-EX3" serialNo="0401525">&lt;/Device>&lt;Lens modelName="VCL-614B2X">&lt;/Lens>&lt;RecordingMode type="normal" cacheRec="false">&lt;/RecordingMode>&lt;/NonRealTimeMeta>
							</value>
						</metadata>
						<metadata>
							<storage>QuickTime</storage>
							<key>com.apple.proapps.reel</key>
							<size>8</size>
							<type>UTF8</type>
							<value>Untitled</value>
						</metadata>
						<metadata>
							<storage>QuickTime</storage>
							<key>com.apple.proapps.clipID</key>
							<size>64</size>
							<type>UTF8</type>
							<value>060A2B340101010501010D43130000002D7AC57B395405CB08004602022F05F5</value>
						</metadata>
						<metadata>
							<storage>QuickTime</storage>
							<key>com.apple.quicktime.information</key>
							<size>64</size>
							<type>UTF8</type>
							<value>060a2b340101010501010d43130000002d7ac57b395405cb08004602022f05f5</value>
						</metadata>
						<metadata>
							<storage>QuickTime</storage>
							<key>com.apple.proapps.originalFormat</key>
							<size>36</size>
							<type>UTF8</type>
							<value>Apple XDCAM EX 1080i50 (35 Mb/s VBR)</value>
						</metadata>
						<timecode>
							<rate>
								<timebase>25</timebase>
							</rate>
							<string>06:12:16:00</string>
							<frame>558400</frame>
							<displayformat>NDF</displayformat>
							<source>source</source>
							<reel>
								<name>Untitled</name>
							</reel>
						</timecode>
						<media>
							<video>
								<duration>757</duration>
								<samplecharacteristics>
									<width>1920</width>
									<height>1080</height>
								</samplecharacteristics>
							</video>
							<audio>
								<samplecharacteristics>
									<samplerate>48000</samplerate>
									<depth>16</depth>
								</samplecharacteristics>
								<channelcount>1</channelcount>
								<layout>mono</layout>
								<audiochannel>
									<sourcechannel>1</sourcechannel>
									<channellabel>discrete</channellabel>
								</audiochannel>
							</audio>
							<audio>
								<samplecharacteristics>
									<samplerate>48000</samplerate>
									<depth>16</depth>
								</samplecharacteristics>
								<channelcount>1</channelcount>
								<layout>mono</layout>
								<audiochannel>
									<sourcechannel>2</sourcechannel>
									<channellabel>discrete</channellabel>
								</audiochannel>
							</audio>
						</media>
					</file>
					<filter>
						<enabled>TRUE</enabled>
						<start>-1</start>
						<end>-1</end>
						<effect>
							<name>G Simple Curves -15 white curve</name>
							<effectcategory>Nattress Big Box of Tricks - Levels and Curves</effectcategory>
							<effecttype>filter</effecttype>
							<mediatype>video</mediatype>
							<parameter>
								<parameterid>colourspace</parameterid>
								<name>Colour Space</name>
								<valuemin>1</valuemin>
								<valuemax>2</valuemax>
								<valuelist>
									<valueentry>
										<name>RGB</name>
										<value>1</value>
									</valueentry>
									<valueentry>
										<name>Y'CbCr</name>
										<value>2</value>
									</valueentry>
								</valuelist>
								<value>2</value>
							</parameter>
							<parameter>
								<parameterid>showcurves</parameterid>
								<name>Show Curves</name>
								<value>FALSE</value>
							</parameter>
							<parameter>
								<parameterid>lvar</parameterid>
								<name>Levels Controls</name>
								<value>string</value>
							</parameter>
							<parameter>
								<parameterid>inw</parameterid>
								<name>White Level</name>
								<valuemin>0</valuemin>
								<valuemax>255</valuemax>
								<value>255</value>
							</parameter>
							<parameter>
								<parameterid>inb</parameterid>
								<name>Black Level</name>
								<valuemin>0</valuemin>
								<valuemax>255</valuemax>
								<value>0</value>
							</parameter>
							<parameter>
								<parameterid>outw</parameterid>
								<name>White Output</name>
								<valuemin>0</valuemin>
								<valuemax>255</valuemax>
								<value>255</value>
							</parameter>
							<parameter>
								<parameterid>outb</parameterid>
								<name>Black Output</name>
								<valuemin>0</valuemin>
								<valuemax>255</valuemax>
								<value>0</value>
							</parameter>
							<parameter>
								<parameterid>cvar</parameterid>
								<name>Curves Controls</name>
								<value>string</value>
							</parameter>
							<parameter>
								<parameterid>curvew</parameterid>
								<name>White Curve</name>
								<valuemin>-100</valuemin>
								<valuemax>100</valuemax>
								<value>20</value>
							</parameter>
							<parameter>
								<parameterid>curveb</parameterid>
								<name>Black Curve</name>
								<valuemin>-100</valuemin>
								<valuemax>100</valuemax>
								<value>0</value>
							</parameter>
							<parameter>
								<parameterid>clipoutput</parameterid>
								<name>Clip Output Levels</name>
								<value>TRUE</value>
							</parameter>
							<parameter>
								<parameterid>copyright</parameterid>
								<name>© www.nattress.com</name>
								<value>string</value>
							</parameter>
						</effect>
					</filter>
					<sourcetrack>
						<mediatype>video</mediatype>
					</sourcetrack>
					<link>
						<linkclipref>DYR18064_01 </linkclipref>
						<mediatype>video</mediatype>
						<trackindex>1</trackindex>
						<clipindex>39</clipindex>
					</link>
					<link>
						<linkclipref>DYR18064_01 3</linkclipref>
						<mediatype>audio</mediatype>
						<trackindex>1</trackindex>
						<clipindex>36</clipindex>
					</link>
					<link>
						<linkclipref>DYR18064_01 4</linkclipref>
						<mediatype>audio</mediatype>
						<trackindex>2</trackindex>
						<clipindex>36</clipindex>
					</link>
					<fielddominance>upper</fielddominance>
					<itemhistory>
						<uuid>E424AE16-810C-4556-BD5C-1BA22F280EA7</uuid>
					</itemhistory>
				</clipitem>
				<transitionitem>
					<rate>
						<ntsc>FALSE</ntsc>
						<timebase>25</timebase>
					</rate>
					<start>5022</start>
					<end>5047</end>
					<alignment>center</alignment>
					<effect>
						<name>G Film Flash V2.5.1</name>
						<effectcategory>Nattress Film Effects</effectcategory>
						<effecttype>transition</effecttype>
						<mediatype>video</mediatype>
						<wipecode>0</wipecode>
						<wipeaccuracy>100</wipeaccuracy>
						<startratio>0</startratio>
						<endratio>1</endratio>
						<reverse>FALSE</reverse>
						<parameter>
							<parameterid>flashbrightness</parameterid>
							<name>Flash Brightness</name>
							<valuemin>0</valuemin>
							<valuemax>100</valuemax>
							<value>100</value>
						</parameter>
						<parameter>
							<parameterid>blackbrightness</parameterid>
							<name>Black Brightness</name>
							<valuemin>0</valuemin>
							<valuemax>100</valuemax>
							<value>0</value>
						</parameter>
						<parameter>
							<parameterid>flashoutputbrightness</parameterid>
							<name>Flash Output Brightness</name>
							<valuemin>0</valuemin>
							<valuemax>100</valuemax>
							<value>80</value>
						</parameter>
						<parameter>
							<parameterid>flashblur</parameterid>
							<name>Flash Blur</name>
							<valuemin>0</valuemin>
							<valuemax>100</valuemax>
							<value>2</value>
						</parameter>
						<parameter>
							<parameterid>flashsaturation</parameterid>
							<name>Flash Saturation</name>
							<valuemin>0</valuemin>
							<valuemax>100</valuemax>
							<value>0</value>
						</parameter>
						<parameter>
							<parameterid>copyright</parameterid>
							<name>© www.nattress.com</name>
							<value>string</value>
						</parameter>
					</effect>
				</transitionitem>
				<clipitem id="DYR18047_01 ">
					<name>DYR18047_01</name>
					<duration>1523</duration>
					<rate>
						<ntsc>FALSE</ntsc>
						<timebase>25</timebase>
					</rate>
					<in>460</in>
					<out>524</out>
					<start>-1</start>
					<end>5086</end>
					<pixelaspectratio>Square</pixelaspectratio>
					<enabled>TRUE</enabled>
					<anamorphic>FALSE</anamorphic>
					<alphatype>none</alphatype>
					<masterclipid>DYR18047_01 1</masterclipid>
					<logginginfo>
						<scene/>
						<shottake/>
						<lognote/>
						<good>FALSE</good>
					</logginginfo>
					<labels>
						<label2/>
					</labels>
					<comments>
						<mastercomment1/>
						<mastercomment2/>
						<mastercomment3/>
						<mastercomment4/>
					</comments>
					<file id="DYR18047_01 2">
						<name>DYR18047_01.mov</name>
						<pathurl>file://localhost/Volumes/Askepott/Prosjekter/DNPR637010_Kra%CC%8Akeklubben_TEM_011212/Video/SKOGBARNA/Trollskog/DYR18047_01.mov</pathurl>
						<rate>
							<timebase>25</timebase>
						</rate>
						<duration>1523</duration>
						<metadata>
							<storage>QuickTime</storage>
							<key>com.sony.bprl.xdcamtransfer.version</key>
							<size>10</size>
							<type>UTF8</type>
							<value>2.12.0.631</value>
						</metadata>
						<metadata>
							<storage>QuickTime</storage>
							<key>org.smpte.mxf.package.material.packageid</key>
							<size>66</size>
							<type>UTF8</type>
							<value>0x060a2b340101010501010d4313000000ac4f3479395405de08004602022f05f5</value>
						</metadata>
						<metadata>
							<storage>QuickTime</storage>
							<key>com.sony.professionaldisc.nonrealtimemeta.lastupdate</key>
							<size>25</size>
							<type>UTF8</type>
							<value>2010-08-31 12:22:48 +0100</value>
						</metadata>
						<metadata>
							<storage>QuickTime</storage>
							<key>com.sony.bprl.mxf.umid</key>
							<size>64</size>
							<type>UTF8</type>
							<value>060a2b340101010501010d4313000000ac4f3479395405de08004602022f05f5</value>
						</metadata>
						<metadata>
							<storage>QuickTime</storage>
							<key>com.sony.bprl.mxf.nrtmetadata</key>
							<size>1994</size>
							<type>UTF8</type>
							<value>&lt;?xml version="1.0" encoding="UTF-8"?>&lt;NonRealTimeMeta xmlns="urn:schemas-professionalDisc:nonRealTimeMeta:ver.1.20" xmlns:lib="urn:schemas-professionalDisc:lib:ver.1.20" xmlns:xsi="http://www.w3.org/2001/XMLSchema-instance" lastUpdate="2010-08-31T12:22:48+01:00">&lt;TargetMaterial umidRef="060A2B340101010501010D4313000000AC4F3479395405DE08004602022F05F5">&lt;/TargetMaterial>&lt;Duration value="1523">&lt;/Duration>&lt;LtcChangeTable tcFps="25" halfStep="false">&lt;LtcChange frameCount="0" value="23020506" status="increment">&lt;/LtcChange>&lt;LtcChange frameCount="1522" value="20030606" status="end">&lt;/LtcChange>&lt;/LtcChangeTable>&lt;CreationDate value="2010-08-31T12:21:46+01:00">&lt;/CreationDate>&lt;TypicalUbit value="0000000017061020">&lt;/TypicalUbit>&lt;BodyUmidBasicChangeTable>&lt;BodyUmidBasicChange frameCount="0" value="060A2B340101010501010D4333000000AC4F3479395405DE08004602022F05F5" status="start">&lt;/BodyUmidBasicChange>&lt;/BodyUmidBasicChangeTable>&lt;BodyUmidWhenChangeTable>&lt;BodyUmidWhenChange frameCount="0" value="44B3E603395405A5" status="increment">&lt;/BodyUmidWhenChange>&lt;BodyUmidWhenChange frameCount="1522" value="C42FE803395405A5" status="end">&lt;/BodyUmidWhenChange>&lt;/BodyUmidWhenChangeTable>&lt;KlvPacketTable>&lt;KlvPacket key="060E2B34010101050301020A02000000" frameCount="0" lengthValue="095F5265635374617274" status="spot">&lt;/KlvPacket>&lt;/KlvPacketTable>&lt;VideoFormat>&lt;VideoRecPort port="DIRECT">&lt;/VideoRecPort>&lt;VideoFrame videoCodec="MPEG2HD35_1920_1080_MP@HL" captureFps="50.00i" recFps="50.00" formatFps="50i">&lt;/VideoFrame>&lt;VideoLayout pixel="1920" numOfVerticalLine="1080" aspectRatio="16:9">&lt;/VideoLayout>&lt;/VideoFormat>&lt;AudioFormat numOfChannel="2">&lt;AudioRecPort port="ANALOG" audioCodec="LPCM16" trackDst="CH1">&lt;/AudioRecPort>&lt;AudioRecPort port="ANALOG" audioCodec="LPCM16" trackDst="CH2">&lt;/AudioRecPort>&lt;/AudioFormat>&lt;Device manufacturer="Sony" modelName="PMW-EX3" serialNo="0401525">&lt;/Device>&lt;Lens modelName="VCL-614B2X">&lt;/Lens>&lt;RecordingMode type="normal" cacheRec="false">&lt;/RecordingMode>&lt;/NonRealTimeMeta>
							</value>
						</metadata>
						<metadata>
							<storage>QuickTime</storage>
							<key>com.apple.proapps.reel</key>
							<size>8</size>
							<type>UTF8</type>
							<value>Untitled</value>
						</metadata>
						<metadata>
							<storage>QuickTime</storage>
							<key>com.apple.proapps.clipID</key>
							<size>64</size>
							<type>UTF8</type>
							<value>060A2B340101010501010D4313000000AC4F3479395405DE08004602022F05F5</value>
						</metadata>
						<metadata>
							<storage>QuickTime</storage>
							<key>com.apple.quicktime.information</key>
							<size>64</size>
							<type>UTF8</type>
							<value>060a2b340101010501010d4313000000ac4f3479395405de08004602022f05f5</value>
						</metadata>
						<metadata>
							<storage>QuickTime</storage>
							<key>com.apple.proapps.originalFormat</key>
							<size>36</size>
							<type>UTF8</type>
							<value>Apple XDCAM EX 1080i50 (35 Mb/s VBR)</value>
						</metadata>
						<timecode>
							<rate>
								<timebase>25</timebase>
							</rate>
							<string>06:05:02:23</string>
							<frame>547573</frame>
							<displayformat>NDF</displayformat>
							<source>source</source>
							<reel>
								<name>Untitled</name>
							</reel>
						</timecode>
						<media>
							<video>
								<duration>1523</duration>
								<samplecharacteristics>
									<width>1920</width>
									<height>1080</height>
								</samplecharacteristics>
							</video>
							<audio>
								<samplecharacteristics>
									<samplerate>48000</samplerate>
									<depth>16</depth>
								</samplecharacteristics>
								<channelcount>1</channelcount>
								<layout>mono</layout>
								<audiochannel>
									<sourcechannel>1</sourcechannel>
									<channellabel>discrete</channellabel>
								</audiochannel>
							</audio>
							<audio>
								<samplecharacteristics>
									<samplerate>48000</samplerate>
									<depth>16</depth>
								</samplecharacteristics>
								<channelcount>1</channelcount>
								<layout>mono</layout>
								<audiochannel>
									<sourcechannel>2</sourcechannel>
									<channellabel>discrete</channellabel>
								</audiochannel>
							</audio>
						</media>
					</file>
					<filter>
						<start>-1</start>
						<end>-1</end>
						<effect>
							<name>G Simple Curves +20 white curve</name>
							<effectcategory>Nattress Big Box of Tricks - Levels and Curves</effectcategory>
							<effecttype>filter</effecttype>
							<mediatype>video</mediatype>
							<parameter>
								<parameterid>colourspace</parameterid>
								<name>Colour Space</name>
								<valuemin>1</valuemin>
								<valuemax>2</valuemax>
								<valuelist>
									<valueentry>
										<name>RGB</name>
										<value>1</value>
									</valueentry>
									<valueentry>
										<name>Y'CbCr</name>
										<value>2</value>
									</valueentry>
								</valuelist>
								<value>2</value>
							</parameter>
							<parameter>
								<parameterid>showcurves</parameterid>
								<name>Show Curves</name>
								<value>FALSE</value>
							</parameter>
							<parameter>
								<parameterid>lvar</parameterid>
								<name>Levels Controls</name>
								<value>string</value>
							</parameter>
							<parameter>
								<parameterid>inw</parameterid>
								<name>White Level</name>
								<valuemin>0</valuemin>
								<valuemax>255</valuemax>
								<value>255</value>
							</parameter>
							<parameter>
								<parameterid>inb</parameterid>
								<name>Black Level</name>
								<valuemin>0</valuemin>
								<valuemax>255</valuemax>
								<value>0</value>
							</parameter>
							<parameter>
								<parameterid>outw</parameterid>
								<name>White Output</name>
								<valuemin>0</valuemin>
								<valuemax>255</valuemax>
								<value>255</value>
							</parameter>
							<parameter>
								<parameterid>outb</parameterid>
								<name>Black Output</name>
								<valuemin>0</valuemin>
								<valuemax>255</valuemax>
								<value>0</value>
							</parameter>
							<parameter>
								<parameterid>cvar</parameterid>
								<name>Curves Controls</name>
								<value>string</value>
							</parameter>
							<parameter>
								<parameterid>curvew</parameterid>
								<name>White Curve</name>
								<valuemin>-100</valuemin>
								<valuemax>100</valuemax>
								<value>20</value>
							</parameter>
							<parameter>
								<parameterid>curveb</parameterid>
								<name>Black Curve</name>
								<valuemin>-100</valuemin>
								<valuemax>100</valuemax>
								<value>0</value>
							</parameter>
							<parameter>
								<parameterid>clipoutput</parameterid>
								<name>Clip Output Levels</name>
								<value>TRUE</value>
							</parameter>
							<parameter>
								<parameterid>copyright</parameterid>
								<name>© www.nattress.com</name>
								<value>string</value>
							</parameter>
						</effect>
					</filter>
					<sourcetrack>
						<mediatype>video</mediatype>
					</sourcetrack>
					<link>
						<linkclipref>DYR18047_01 </linkclipref>
						<mediatype>video</mediatype>
						<trackindex>1</trackindex>
						<clipindex>41</clipindex>
					</link>
					<link>
						<linkclipref>DYR18047_01 3</linkclipref>
						<mediatype>audio</mediatype>
						<trackindex>1</trackindex>
						<clipindex>37</clipindex>
					</link>
					<link>
						<linkclipref>DYR18047_01 4</linkclipref>
						<mediatype>audio</mediatype>
						<trackindex>2</trackindex>
						<clipindex>37</clipindex>
					</link>
					<fielddominance>upper</fielddominance>
					<itemhistory>
						<uuid>277249C6-61D6-4E68-900A-AF7B5C429FF0</uuid>
					</itemhistory>
				</clipitem>
				<clipitem id="DYR18047_01 5">
					<name>DYR18047_01</name>
					<duration>1523</duration>
					<rate>
						<ntsc>FALSE</ntsc>
						<timebase>25</timebase>
					</rate>
					<in>286</in>
					<out>323</out>
					<start>5086</start>
					<end>5123</end>
					<pixelaspectratio>Square</pixelaspectratio>
					<enabled>TRUE</enabled>
					<anamorphic>FALSE</anamorphic>
					<alphatype>none</alphatype>
					<masterclipid>DYR18047_01 1</masterclipid>
					<logginginfo>
						<scene/>
						<shottake/>
						<lognote/>
						<good>FALSE</good>
					</logginginfo>
					<labels>
						<label2/>
					</labels>
					<comments>
						<mastercomment1/>
						<mastercomment2/>
						<mastercomment3/>
						<mastercomment4/>
					</comments>
					<file id="DYR18047_01 2"/>
					<sourcetrack>
						<mediatype>video</mediatype>
					</sourcetrack>
					<link>
						<linkclipref>DYR18047_01 5</linkclipref>
						<mediatype>video</mediatype>
						<trackindex>1</trackindex>
						<clipindex>42</clipindex>
					</link>
					<link>
						<linkclipref>DYR18047_01 6</linkclipref>
						<mediatype>audio</mediatype>
						<trackindex>1</trackindex>
						<clipindex>38</clipindex>
					</link>
					<link>
						<linkclipref>DYR18047_01 7</linkclipref>
						<mediatype>audio</mediatype>
						<trackindex>2</trackindex>
						<clipindex>38</clipindex>
					</link>
					<fielddominance>upper</fielddominance>
					<itemhistory>
						<uuid>DA41F738-BDC5-4E16-8728-E7AE05952F7D</uuid>
					</itemhistory>
				</clipitem>
				<clipitem id="DYR18047_01 8">
					<name>DYR18047_01</name>
					<duration>1523</duration>
					<rate>
						<ntsc>FALSE</ntsc>
						<timebase>25</timebase>
					</rate>
					<in>1284</in>
					<out>1347</out>
					<start>5123</start>
					<end>5186</end>
					<pixelaspectratio>Square</pixelaspectratio>
					<enabled>TRUE</enabled>
					<anamorphic>FALSE</anamorphic>
					<alphatype>none</alphatype>
					<masterclipid>DYR18047_01 1</masterclipid>
					<logginginfo>
						<scene/>
						<shottake/>
						<lognote/>
						<good>FALSE</good>
					</logginginfo>
					<labels>
						<label2/>
					</labels>
					<comments>
						<mastercomment1/>
						<mastercomment2/>
						<mastercomment3/>
						<mastercomment4/>
					</comments>
					<file id="DYR18047_01 2"/>
					<sourcetrack>
						<mediatype>video</mediatype>
					</sourcetrack>
					<link>
						<linkclipref>DYR18047_01 8</linkclipref>
						<mediatype>video</mediatype>
						<trackindex>1</trackindex>
						<clipindex>43</clipindex>
					</link>
					<link>
						<linkclipref>DYR18047_01 9</linkclipref>
						<mediatype>audio</mediatype>
						<trackindex>1</trackindex>
						<clipindex>39</clipindex>
					</link>
					<link>
						<linkclipref>DYR18047_01 10</linkclipref>
						<mediatype>audio</mediatype>
						<trackindex>2</trackindex>
						<clipindex>39</clipindex>
					</link>
					<fielddominance>upper</fielddominance>
					<itemhistory>
						<uuid>ACBB523D-F222-49F4-90BE-BCD04D6FED35</uuid>
					</itemhistory>
				</clipitem>
				<clipitem id="DYR18050_01 ">
					<name>DYR18050_01</name>
					<duration>482</duration>
					<rate>
						<ntsc>FALSE</ntsc>
						<timebase>25</timebase>
					</rate>
					<in>212</in>
					<out>272</out>
					<start>5186</start>
					<end>5246</end>
					<pixelaspectratio>Square</pixelaspectratio>
					<enabled>TRUE</enabled>
					<anamorphic>FALSE</anamorphic>
					<alphatype>none</alphatype>
					<masterclipid>DYR18050_01 1</masterclipid>
					<logginginfo>
						<scene/>
						<shottake/>
						<lognote/>
						<good>FALSE</good>
					</logginginfo>
					<labels>
						<label2/>
					</labels>
					<comments>
						<mastercomment1/>
						<mastercomment2/>
						<mastercomment3/>
						<mastercomment4/>
					</comments>
					<file id="DYR18050_01 2">
						<name>DYR18050_01.mov</name>
						<pathurl>file://localhost/Volumes/Askepott/Prosjekter/DNPR637010_Kra%CC%8Akeklubben_TEM_011212/Video/SKOGBARNA/Trollskog/DYR18050_01.mov</pathurl>
						<rate>
							<timebase>25</timebase>
						</rate>
						<duration>482</duration>
						<metadata>
							<storage>QuickTime</storage>
							<key>com.sony.bprl.xdcamtransfer.version</key>
							<size>10</size>
							<type>UTF8</type>
							<value>2.12.0.631</value>
						</metadata>
						<metadata>
							<storage>QuickTime</storage>
							<key>org.smpte.mxf.package.material.packageid</key>
							<size>66</size>
							<type>UTF8</type>
							<value>0x060a2b340101010501010d4313000000cd0fd879395405dd08004602022f05f5</value>
						</metadata>
						<metadata>
							<storage>QuickTime</storage>
							<key>com.sony.professionaldisc.nonrealtimemeta.lastupdate</key>
							<size>25</size>
							<type>UTF8</type>
							<value>2010-08-31 12:25:42 +0100</value>
						</metadata>
						<metadata>
							<storage>QuickTime</storage>
							<key>com.sony.bprl.mxf.umid</key>
							<size>64</size>
							<type>UTF8</type>
							<value>060a2b340101010501010d4313000000cd0fd879395405dd08004602022f05f5</value>
						</metadata>
						<metadata>
							<storage>QuickTime</storage>
							<key>com.sony.bprl.mxf.nrtmetadata</key>
							<size>1991</size>
							<type>UTF8</type>
							<value>&lt;?xml version="1.0" encoding="UTF-8"?>&lt;NonRealTimeMeta xmlns="urn:schemas-professionalDisc:nonRealTimeMeta:ver.1.20" xmlns:lib="urn:schemas-professionalDisc:lib:ver.1.20" xmlns:xsi="http://www.w3.org/2001/XMLSchema-instance" lastUpdate="2010-08-31T12:25:42+01:00">&lt;TargetMaterial umidRef="060A2B340101010501010D4313000000CD0FD879395405DD08004602022F05F5">&lt;/TargetMaterial>&lt;Duration value="482">&lt;/Duration>&lt;LtcChangeTable tcFps="25" halfStep="false">&lt;LtcChange frameCount="0" value="23330706" status="increment">&lt;/LtcChange>&lt;LtcChange frameCount="481" value="04530706" status="end">&lt;/LtcChange>&lt;/LtcChangeTable>&lt;CreationDate value="2010-08-31T12:25:22+01:00">&lt;/CreationDate>&lt;TypicalUbit value="0000000017061020">&lt;/TypicalUbit>&lt;BodyUmidBasicChangeTable>&lt;BodyUmidBasicChange frameCount="0" value="060A2B340101010501010D4333000000CD0FD879395405DD08004602022F05F5" status="start">&lt;/BodyUmidBasicChange>&lt;/BodyUmidBasicChangeTable>&lt;BodyUmidWhenChangeTable>&lt;BodyUmidWhenChange frameCount="0" value="C4F8EB03395405A5" status="increment">&lt;/BodyUmidWhenChange>&lt;BodyUmidWhenChange frameCount="481" value="0471EC03395405A5" status="end">&lt;/BodyUmidWhenChange>&lt;/BodyUmidWhenChangeTable>&lt;KlvPacketTable>&lt;KlvPacket key="060E2B34010101050301020A02000000" frameCount="0" lengthValue="095F5265635374617274" status="spot">&lt;/KlvPacket>&lt;/KlvPacketTable>&lt;VideoFormat>&lt;VideoRecPort port="DIRECT">&lt;/VideoRecPort>&lt;VideoFrame videoCodec="MPEG2HD35_1920_1080_MP@HL" captureFps="50.00i" recFps="50.00" formatFps="50i">&lt;/VideoFrame>&lt;VideoLayout pixel="1920" numOfVerticalLine="1080" aspectRatio="16:9">&lt;/VideoLayout>&lt;/VideoFormat>&lt;AudioFormat numOfChannel="2">&lt;AudioRecPort port="ANALOG" audioCodec="LPCM16" trackDst="CH1">&lt;/AudioRecPort>&lt;AudioRecPort port="ANALOG" audioCodec="LPCM16" trackDst="CH2">&lt;/AudioRecPort>&lt;/AudioFormat>&lt;Device manufacturer="Sony" modelName="PMW-EX3" serialNo="0401525">&lt;/Device>&lt;Lens modelName="VCL-614B2X">&lt;/Lens>&lt;RecordingMode type="normal" cacheRec="false">&lt;/RecordingMode>&lt;/NonRealTimeMeta>
							</value>
						</metadata>
						<metadata>
							<storage>QuickTime</storage>
							<key>com.apple.proapps.reel</key>
							<size>8</size>
							<type>UTF8</type>
							<value>Untitled</value>
						</metadata>
						<metadata>
							<storage>QuickTime</storage>
							<key>com.apple.proapps.clipID</key>
							<size>64</size>
							<type>UTF8</type>
							<value>060A2B340101010501010D4313000000CD0FD879395405DD08004602022F05F5</value>
						</metadata>
						<metadata>
							<storage>QuickTime</storage>
							<key>com.apple.quicktime.information</key>
							<size>64</size>
							<type>UTF8</type>
							<value>060a2b340101010501010d4313000000cd0fd879395405dd08004602022f05f5</value>
						</metadata>
						<metadata>
							<storage>QuickTime</storage>
							<key>com.apple.proapps.originalFormat</key>
							<size>36</size>
							<type>UTF8</type>
							<value>Apple XDCAM EX 1080i50 (35 Mb/s VBR)</value>
						</metadata>
						<timecode>
							<rate>
								<timebase>25</timebase>
							</rate>
							<string>06:07:33:23</string>
							<frame>551348</frame>
							<displayformat>NDF</displayformat>
							<source>source</source>
							<reel>
								<name>Untitled</name>
							</reel>
						</timecode>
						<media>
							<video>
								<duration>482</duration>
								<samplecharacteristics>
									<width>1920</width>
									<height>1080</height>
								</samplecharacteristics>
							</video>
							<audio>
								<samplecharacteristics>
									<samplerate>48000</samplerate>
									<depth>16</depth>
								</samplecharacteristics>
								<channelcount>1</channelcount>
								<layout>mono</layout>
								<audiochannel>
									<sourcechannel>1</sourcechannel>
									<channellabel>discrete</channellabel>
								</audiochannel>
							</audio>
							<audio>
								<samplecharacteristics>
									<samplerate>48000</samplerate>
									<depth>16</depth>
								</samplecharacteristics>
								<channelcount>1</channelcount>
								<layout>mono</layout>
								<audiochannel>
									<sourcechannel>2</sourcechannel>
									<channellabel>discrete</channellabel>
								</audiochannel>
							</audio>
						</media>
					</file>
					<sourcetrack>
						<mediatype>video</mediatype>
					</sourcetrack>
					<link>
						<linkclipref>DYR18050_01 </linkclipref>
						<mediatype>video</mediatype>
						<trackindex>1</trackindex>
						<clipindex>44</clipindex>
					</link>
					<link>
						<linkclipref>DYR18050_01 3</linkclipref>
						<mediatype>audio</mediatype>
						<trackindex>1</trackindex>
						<clipindex>40</clipindex>
					</link>
					<link>
						<linkclipref>DYR18050_01 4</linkclipref>
						<mediatype>audio</mediatype>
						<trackindex>2</trackindex>
						<clipindex>40</clipindex>
					</link>
					<fielddominance>upper</fielddominance>
					<itemhistory>
						<uuid>D8C61FB1-4B6A-4380-BFD3-DC82E06186B8</uuid>
					</itemhistory>
				</clipitem>
				<clipitem id="DYR18044_01 ">
					<name>DYR18044_01</name>
					<duration>941</duration>
					<rate>
						<ntsc>FALSE</ntsc>
						<timebase>25</timebase>
					</rate>
					<in>126</in>
					<out>179</out>
					<start>5246</start>
					<end>5299</end>
					<pixelaspectratio>Square</pixelaspectratio>
					<enabled>TRUE</enabled>
					<anamorphic>FALSE</anamorphic>
					<alphatype>none</alphatype>
					<masterclipid>DYR18044_01 1</masterclipid>
					<logginginfo>
						<scene/>
						<shottake/>
						<lognote/>
						<good>FALSE</good>
					</logginginfo>
					<labels>
						<label2/>
					</labels>
					<comments>
						<mastercomment1/>
						<mastercomment2/>
						<mastercomment3/>
						<mastercomment4/>
					</comments>
					<file id="DYR18044_01 2">
						<name>DYR18044_01.mov</name>
						<pathurl>file://localhost/Volumes/Askepott/Prosjekter/DNPR637010_Kra%CC%8Akeklubben_TEM_011212/Video/SKOGBARNA/Trollskog/DYR18044_01.mov</pathurl>
						<rate>
							<timebase>25</timebase>
						</rate>
						<duration>941</duration>
						<metadata>
							<storage>QuickTime</storage>
							<key>com.sony.bprl.xdcamtransfer.version</key>
							<size>10</size>
							<type>UTF8</type>
							<value>2.12.0.631</value>
						</metadata>
						<metadata>
							<storage>QuickTime</storage>
							<key>org.smpte.mxf.package.material.packageid</key>
							<size>66</size>
							<type>UTF8</type>
							<value>0x060a2b340101010501010d431300000067b5c578395405dd08004602022f05f5</value>
						</metadata>
						<metadata>
							<storage>QuickTime</storage>
							<key>com.sony.professionaldisc.nonrealtimemeta.lastupdate</key>
							<size>25</size>
							<type>UTF8</type>
							<value>2010-08-31 12:19:59 +0100</value>
						</metadata>
						<metadata>
							<storage>QuickTime</storage>
							<key>com.sony.bprl.mxf.umid</key>
							<size>64</size>
							<type>UTF8</type>
							<value>060a2b340101010501010d431300000067b5c578395405dd08004602022f05f5</value>
						</metadata>
						<metadata>
							<storage>QuickTime</storage>
							<key>com.sony.bprl.mxf.nrtmetadata</key>
							<size>1991</size>
							<type>UTF8</type>
							<value>&lt;?xml version="1.0" encoding="UTF-8"?>&lt;NonRealTimeMeta xmlns="urn:schemas-professionalDisc:nonRealTimeMeta:ver.1.20" xmlns:lib="urn:schemas-professionalDisc:lib:ver.1.20" xmlns:xsi="http://www.w3.org/2001/XMLSchema-instance" lastUpdate="2010-08-31T12:19:59+01:00">&lt;TargetMaterial umidRef="060A2B340101010501010D431300000067B5C578395405DD08004602022F05F5">&lt;/TargetMaterial>&lt;Duration value="941">&lt;/Duration>&lt;LtcChangeTable tcFps="25" halfStep="false">&lt;LtcChange frameCount="0" value="15110306" status="increment">&lt;/LtcChange>&lt;LtcChange frameCount="940" value="05490306" status="end">&lt;/LtcChange>&lt;/LtcChangeTable>&lt;CreationDate value="2010-08-31T12:19:20+01:00">&lt;/CreationDate>&lt;TypicalUbit value="0000000017061020">&lt;/TypicalUbit>&lt;BodyUmidBasicChangeTable>&lt;BodyUmidBasicChange frameCount="0" value="060A2B340101010501010D433300000067B5C578395405DD08004602022F05F5" status="start">&lt;/BodyUmidBasicChange>&lt;/BodyUmidBasicChangeTable>&lt;BodyUmidWhenChangeTable>&lt;BodyUmidWhenChange frameCount="0" value="0424E303395405A5" status="increment">&lt;/BodyUmidWhenChange>&lt;BodyUmidWhenChange frameCount="940" value="040FE403395405A5" status="end">&lt;/BodyUmidWhenChange>&lt;/BodyUmidWhenChangeTable>&lt;KlvPacketTable>&lt;KlvPacket key="060E2B34010101050301020A02000000" frameCount="0" lengthValue="095F5265635374617274" status="spot">&lt;/KlvPacket>&lt;/KlvPacketTable>&lt;VideoFormat>&lt;VideoRecPort port="DIRECT">&lt;/VideoRecPort>&lt;VideoFrame videoCodec="MPEG2HD35_1920_1080_MP@HL" captureFps="50.00i" recFps="50.00" formatFps="50i">&lt;/VideoFrame>&lt;VideoLayout pixel="1920" numOfVerticalLine="1080" aspectRatio="16:9">&lt;/VideoLayout>&lt;/VideoFormat>&lt;AudioFormat numOfChannel="2">&lt;AudioRecPort port="ANALOG" audioCodec="LPCM16" trackDst="CH1">&lt;/AudioRecPort>&lt;AudioRecPort port="ANALOG" audioCodec="LPCM16" trackDst="CH2">&lt;/AudioRecPort>&lt;/AudioFormat>&lt;Device manufacturer="Sony" modelName="PMW-EX3" serialNo="0401525">&lt;/Device>&lt;Lens modelName="VCL-614B2X">&lt;/Lens>&lt;RecordingMode type="normal" cacheRec="false">&lt;/RecordingMode>&lt;/NonRealTimeMeta>
							</value>
						</metadata>
						<metadata>
							<storage>QuickTime</storage>
							<key>com.apple.proapps.reel</key>
							<size>8</size>
							<type>UTF8</type>
							<value>Untitled</value>
						</metadata>
						<metadata>
							<storage>QuickTime</storage>
							<key>com.apple.proapps.clipID</key>
							<size>64</size>
							<type>UTF8</type>
							<value>060A2B340101010501010D431300000067B5C578395405DD08004602022F05F5</value>
						</metadata>
						<metadata>
							<storage>QuickTime</storage>
							<key>com.apple.quicktime.information</key>
							<size>64</size>
							<type>UTF8</type>
							<value>060a2b340101010501010d431300000067b5c578395405dd08004602022f05f5</value>
						</metadata>
						<metadata>
							<storage>QuickTime</storage>
							<key>com.apple.proapps.originalFormat</key>
							<size>36</size>
							<type>UTF8</type>
							<value>Apple XDCAM EX 1080i50 (35 Mb/s VBR)</value>
						</metadata>
						<timecode>
							<rate>
								<timebase>25</timebase>
							</rate>
							<string>06:03:11:15</string>
							<frame>544790</frame>
							<displayformat>NDF</displayformat>
							<source>source</source>
							<reel>
								<name>Untitled</name>
							</reel>
						</timecode>
						<media>
							<video>
								<duration>941</duration>
								<samplecharacteristics>
									<width>1920</width>
									<height>1080</height>
								</samplecharacteristics>
							</video>
							<audio>
								<samplecharacteristics>
									<samplerate>48000</samplerate>
									<depth>16</depth>
								</samplecharacteristics>
								<channelcount>1</channelcount>
								<layout>mono</layout>
								<audiochannel>
									<sourcechannel>1</sourcechannel>
									<channellabel>discrete</channellabel>
								</audiochannel>
							</audio>
							<audio>
								<samplecharacteristics>
									<samplerate>48000</samplerate>
									<depth>16</depth>
								</samplecharacteristics>
								<channelcount>1</channelcount>
								<layout>mono</layout>
								<audiochannel>
									<sourcechannel>2</sourcechannel>
									<channellabel>discrete</channellabel>
								</audiochannel>
							</audio>
						</media>
					</file>
					<sourcetrack>
						<mediatype>video</mediatype>
					</sourcetrack>
					<link>
						<linkclipref>DYR18044_01 </linkclipref>
						<mediatype>video</mediatype>
						<trackindex>1</trackindex>
						<clipindex>45</clipindex>
					</link>
					<link>
						<linkclipref>DYR18044_01 3</linkclipref>
						<mediatype>audio</mediatype>
						<trackindex>1</trackindex>
						<clipindex>41</clipindex>
					</link>
					<link>
						<linkclipref>DYR18044_01 4</linkclipref>
						<mediatype>audio</mediatype>
						<trackindex>2</trackindex>
						<clipindex>41</clipindex>
					</link>
					<fielddominance>upper</fielddominance>
					<itemhistory>
						<uuid>05FC91BD-7551-4104-8C51-1F10BFAC1AD5</uuid>
					</itemhistory>
				</clipitem>
				<clipitem id="DYR18067_01 ">
					<name>DYR18067_01</name>
					<duration>254</duration>
					<rate>
						<ntsc>FALSE</ntsc>
						<timebase>25</timebase>
					</rate>
					<in>151</in>
					<out>188</out>
					<start>5299</start>
					<end>5336</end>
					<pixelaspectratio>Square</pixelaspectratio>
					<enabled>TRUE</enabled>
					<anamorphic>FALSE</anamorphic>
					<alphatype>none</alphatype>
					<masterclipid>DYR18067_01 1</masterclipid>
					<logginginfo>
						<scene/>
						<shottake/>
						<lognote/>
						<good>FALSE</good>
					</logginginfo>
					<labels>
						<label2/>
					</labels>
					<comments>
						<mastercomment1/>
						<mastercomment2/>
						<mastercomment3/>
						<mastercomment4/>
					</comments>
					<file id="DYR18067_01 2">
						<name>DYR18067_01.mov</name>
						<pathurl>file://localhost/Volumes/Askepott/Prosjekter/DNPR637010_Kra%CC%8Akeklubben_TEM_011212/Video/SKOGBARNA/Trollskog/DYR18067_01.mov</pathurl>
						<rate>
							<timebase>25</timebase>
						</rate>
						<duration>254</duration>
						<metadata>
							<storage>QuickTime</storage>
							<key>com.sony.bprl.xdcamtransfer.version</key>
							<size>10</size>
							<type>UTF8</type>
							<value>2.12.0.631</value>
						</metadata>
						<metadata>
							<storage>QuickTime</storage>
							<key>org.smpte.mxf.package.material.packageid</key>
							<size>66</size>
							<type>UTF8</type>
							<value>0x060a2b340101010501010d431300000045ee247c395405c908004602022f05f5</value>
						</metadata>
						<metadata>
							<storage>QuickTime</storage>
							<key>com.sony.professionaldisc.nonrealtimemeta.lastupdate</key>
							<size>25</size>
							<type>UTF8</type>
							<value>2010-08-31 12:38:29 +0100</value>
						</metadata>
						<metadata>
							<storage>QuickTime</storage>
							<key>com.sony.bprl.mxf.umid</key>
							<size>64</size>
							<type>UTF8</type>
							<value>060a2b340101010501010d431300000045ee247c395405c908004602022f05f5</value>
						</metadata>
						<metadata>
							<storage>QuickTime</storage>
							<key>com.sony.bprl.mxf.nrtmetadata</key>
							<size>1991</size>
							<type>UTF8</type>
							<value>&lt;?xml version="1.0" encoding="UTF-8"?>&lt;NonRealTimeMeta xmlns="urn:schemas-professionalDisc:nonRealTimeMeta:ver.1.20" xmlns:lib="urn:schemas-professionalDisc:lib:ver.1.20" xmlns:xsi="http://www.w3.org/2001/XMLSchema-instance" lastUpdate="2010-08-31T12:38:29+01:00">&lt;TargetMaterial umidRef="060A2B340101010501010D431300000045EE247C395405C908004602022F05F5">&lt;/TargetMaterial>&lt;Duration value="254">&lt;/Duration>&lt;LtcChangeTable tcFps="25" halfStep="false">&lt;LtcChange frameCount="0" value="17401306" status="increment">&lt;/LtcChange>&lt;LtcChange frameCount="253" value="20501306" status="end">&lt;/LtcChange>&lt;/LtcChangeTable>&lt;CreationDate value="2010-08-31T12:38:18+01:00">&lt;/CreationDate>&lt;TypicalUbit value="0000000017061020">&lt;/TypicalUbit>&lt;BodyUmidBasicChangeTable>&lt;BodyUmidBasicChange frameCount="0" value="060A2B340101010501010D433300000045EE247C395405C908004602022F05F5" status="start">&lt;/BodyUmidBasicChange>&lt;/BodyUmidBasicChangeTable>&lt;BodyUmidWhenChangeTable>&lt;BodyUmidWhenChange frameCount="0" value="04EDFE03395405A5" status="increment">&lt;/BodyUmidWhenChange>&lt;BodyUmidWhenChange frameCount="253" value="442CFF03395405A5" status="end">&lt;/BodyUmidWhenChange>&lt;/BodyUmidWhenChangeTable>&lt;KlvPacketTable>&lt;KlvPacket key="060E2B34010101050301020A02000000" frameCount="0" lengthValue="095F5265635374617274" status="spot">&lt;/KlvPacket>&lt;/KlvPacketTable>&lt;VideoFormat>&lt;VideoRecPort port="DIRECT">&lt;/VideoRecPort>&lt;VideoFrame videoCodec="MPEG2HD35_1920_1080_MP@HL" captureFps="50.00i" recFps="50.00" formatFps="50i">&lt;/VideoFrame>&lt;VideoLayout pixel="1920" numOfVerticalLine="1080" aspectRatio="16:9">&lt;/VideoLayout>&lt;/VideoFormat>&lt;AudioFormat numOfChannel="2">&lt;AudioRecPort port="ANALOG" audioCodec="LPCM16" trackDst="CH1">&lt;/AudioRecPort>&lt;AudioRecPort port="ANALOG" audioCodec="LPCM16" trackDst="CH2">&lt;/AudioRecPort>&lt;/AudioFormat>&lt;Device manufacturer="Sony" modelName="PMW-EX3" serialNo="0401525">&lt;/Device>&lt;Lens modelName="VCL-614B2X">&lt;/Lens>&lt;RecordingMode type="normal" cacheRec="false">&lt;/RecordingMode>&lt;/NonRealTimeMeta>
							</value>
						</metadata>
						<metadata>
							<storage>QuickTime</storage>
							<key>com.apple.proapps.reel</key>
							<size>8</size>
							<type>UTF8</type>
							<value>Untitled</value>
						</metadata>
						<metadata>
							<storage>QuickTime</storage>
							<key>com.apple.proapps.clipID</key>
							<size>64</size>
							<type>UTF8</type>
							<value>060A2B340101010501010D431300000045EE247C395405C908004602022F05F5</value>
						</metadata>
						<metadata>
							<storage>QuickTime</storage>
							<key>com.apple.quicktime.information</key>
							<size>64</size>
							<type>UTF8</type>
							<value>060a2b340101010501010d431300000045ee247c395405c908004602022f05f5</value>
						</metadata>
						<metadata>
							<storage>QuickTime</storage>
							<key>com.apple.proapps.originalFormat</key>
							<size>36</size>
							<type>UTF8</type>
							<value>Apple XDCAM EX 1080i50 (35 Mb/s VBR)</value>
						</metadata>
						<timecode>
							<rate>
								<timebase>25</timebase>
							</rate>
							<string>06:13:40:17</string>
							<frame>560517</frame>
							<displayformat>NDF</displayformat>
							<source>source</source>
							<reel>
								<name>Untitled</name>
							</reel>
						</timecode>
						<media>
							<video>
								<duration>254</duration>
								<samplecharacteristics>
									<width>1920</width>
									<height>1080</height>
								</samplecharacteristics>
							</video>
							<audio>
								<samplecharacteristics>
									<samplerate>48000</samplerate>
									<depth>16</depth>
								</samplecharacteristics>
								<channelcount>1</channelcount>
								<layout>mono</layout>
								<audiochannel>
									<sourcechannel>1</sourcechannel>
									<channellabel>discrete</channellabel>
								</audiochannel>
							</audio>
							<audio>
								<samplecharacteristics>
									<samplerate>48000</samplerate>
									<depth>16</depth>
								</samplecharacteristics>
								<channelcount>1</channelcount>
								<layout>mono</layout>
								<audiochannel>
									<sourcechannel>2</sourcechannel>
									<channellabel>discrete</channellabel>
								</audiochannel>
							</audio>
						</media>
					</file>
					<sourcetrack>
						<mediatype>video</mediatype>
					</sourcetrack>
					<link>
						<linkclipref>DYR18067_01 </linkclipref>
						<mediatype>video</mediatype>
						<trackindex>1</trackindex>
						<clipindex>46</clipindex>
					</link>
					<link>
						<linkclipref>DYR18067_01 3</linkclipref>
						<mediatype>audio</mediatype>
						<trackindex>1</trackindex>
						<clipindex>42</clipindex>
					</link>
					<link>
						<linkclipref>DYR18067_01 4</linkclipref>
						<mediatype>audio</mediatype>
						<trackindex>2</trackindex>
						<clipindex>42</clipindex>
					</link>
					<fielddominance>upper</fielddominance>
					<itemhistory>
						<uuid>8DC04907-2500-432D-A093-209CFB30DF18</uuid>
					</itemhistory>
				</clipitem>
				<clipitem id="DYR18070_01 ">
					<name>DYR18070_01</name>
					<duration>508</duration>
					<rate>
						<ntsc>FALSE</ntsc>
						<timebase>25</timebase>
					</rate>
					<in>305</in>
					<out>364</out>
					<start>5336</start>
					<end>5395</end>
					<pixelaspectratio>Square</pixelaspectratio>
					<enabled>TRUE</enabled>
					<anamorphic>FALSE</anamorphic>
					<alphatype>none</alphatype>
					<masterclipid>DYR18070_01 1</masterclipid>
					<logginginfo>
						<scene/>
						<shottake/>
						<lognote/>
						<good>FALSE</good>
					</logginginfo>
					<labels>
						<label2/>
					</labels>
					<comments>
						<mastercomment1/>
						<mastercomment2/>
						<mastercomment3/>
						<mastercomment4/>
					</comments>
					<file id="DYR18070_01 2">
						<name>DYR18070_01.mov</name>
						<pathurl>file://localhost/Volumes/Askepott/Prosjekter/DNPR637010_Kra%CC%8Akeklubben_TEM_011212/Video/SKOGBARNA/Trollskog/DYR18070_01.mov</pathurl>
						<rate>
							<timebase>25</timebase>
						</rate>
						<duration>508</duration>
						<metadata>
							<storage>QuickTime</storage>
							<key>com.sony.bprl.xdcamtransfer.version</key>
							<size>10</size>
							<type>UTF8</type>
							<value>2.12.0.631</value>
						</metadata>
						<metadata>
							<storage>QuickTime</storage>
							<key>org.smpte.mxf.package.material.packageid</key>
							<size>66</size>
							<type>UTF8</type>
							<value>0x060a2b340101010501010d4313000000b734877c395405ce08004602022f05f5</value>
						</metadata>
						<metadata>
							<storage>QuickTime</storage>
							<key>com.sony.professionaldisc.nonrealtimemeta.lastupdate</key>
							<size>25</size>
							<type>UTF8</type>
							<value>2010-08-31 12:40:49 +0100</value>
						</metadata>
						<metadata>
							<storage>QuickTime</storage>
							<key>com.sony.bprl.mxf.umid</key>
							<size>64</size>
							<type>UTF8</type>
							<value>060a2b340101010501010d4313000000b734877c395405ce08004602022f05f5</value>
						</metadata>
						<metadata>
							<storage>QuickTime</storage>
							<key>com.sony.bprl.mxf.nrtmetadata</key>
							<size>1991</size>
							<type>UTF8</type>
							<value>&lt;?xml version="1.0" encoding="UTF-8"?>&lt;NonRealTimeMeta xmlns="urn:schemas-professionalDisc:nonRealTimeMeta:ver.1.20" xmlns:lib="urn:schemas-professionalDisc:lib:ver.1.20" xmlns:xsi="http://www.w3.org/2001/XMLSchema-instance" lastUpdate="2010-08-31T12:40:49+01:00">&lt;TargetMaterial umidRef="060A2B340101010501010D4313000000B734877C395405CE08004602022F05F5">&lt;/TargetMaterial>&lt;Duration value="508">&lt;/Duration>&lt;LtcChangeTable tcFps="25" halfStep="false">&lt;LtcChange frameCount="0" value="22141406" status="increment">&lt;/LtcChange>&lt;LtcChange frameCount="507" value="04351406" status="end">&lt;/LtcChange>&lt;/LtcChangeTable>&lt;CreationDate value="2010-08-31T12:40:28+01:00">&lt;/CreationDate>&lt;TypicalUbit value="0000000017061020">&lt;/TypicalUbit>&lt;BodyUmidBasicChangeTable>&lt;BodyUmidBasicChange frameCount="0" value="060A2B340101010501010D4333000000B734877C395405CE08004602022F05F5" status="start">&lt;/BodyUmidBasicChange>&lt;/BodyUmidBasicChangeTable>&lt;BodyUmidWhenChangeTable>&lt;BodyUmidWhenChange frameCount="0" value="C4160204395405A5" status="increment">&lt;/BodyUmidWhenChange>&lt;BodyUmidWhenChange frameCount="507" value="84950204395405A5" status="end">&lt;/BodyUmidWhenChange>&lt;/BodyUmidWhenChangeTable>&lt;KlvPacketTable>&lt;KlvPacket key="060E2B34010101050301020A02000000" frameCount="0" lengthValue="095F5265635374617274" status="spot">&lt;/KlvPacket>&lt;/KlvPacketTable>&lt;VideoFormat>&lt;VideoRecPort port="DIRECT">&lt;/VideoRecPort>&lt;VideoFrame videoCodec="MPEG2HD35_1920_1080_MP@HL" captureFps="50.00i" recFps="50.00" formatFps="50i">&lt;/VideoFrame>&lt;VideoLayout pixel="1920" numOfVerticalLine="1080" aspectRatio="16:9">&lt;/VideoLayout>&lt;/VideoFormat>&lt;AudioFormat numOfChannel="2">&lt;AudioRecPort port="ANALOG" audioCodec="LPCM16" trackDst="CH1">&lt;/AudioRecPort>&lt;AudioRecPort port="ANALOG" audioCodec="LPCM16" trackDst="CH2">&lt;/AudioRecPort>&lt;/AudioFormat>&lt;Device manufacturer="Sony" modelName="PMW-EX3" serialNo="0401525">&lt;/Device>&lt;Lens modelName="VCL-614B2X">&lt;/Lens>&lt;RecordingMode type="normal" cacheRec="false">&lt;/RecordingMode>&lt;/NonRealTimeMeta>
							</value>
						</metadata>
						<metadata>
							<storage>QuickTime</storage>
							<key>com.apple.proapps.reel</key>
							<size>8</size>
							<type>UTF8</type>
							<value>Untitled</value>
						</metadata>
						<metadata>
							<storage>QuickTime</storage>
							<key>com.apple.proapps.clipID</key>
							<size>64</size>
							<type>UTF8</type>
							<value>060A2B340101010501010D4313000000B734877C395405CE08004602022F05F5</value>
						</metadata>
						<metadata>
							<storage>QuickTime</storage>
							<key>com.apple.quicktime.information</key>
							<size>64</size>
							<type>UTF8</type>
							<value>060a2b340101010501010d4313000000b734877c395405ce08004602022f05f5</value>
						</metadata>
						<metadata>
							<storage>QuickTime</storage>
							<key>com.apple.proapps.originalFormat</key>
							<size>36</size>
							<type>UTF8</type>
							<value>Apple XDCAM EX 1080i50 (35 Mb/s VBR)</value>
						</metadata>
						<timecode>
							<rate>
								<timebase>25</timebase>
							</rate>
							<string>06:14:14:22</string>
							<frame>561372</frame>
							<displayformat>NDF</displayformat>
							<source>source</source>
							<reel>
								<name>Untitled</name>
							</reel>
						</timecode>
						<media>
							<video>
								<duration>508</duration>
								<samplecharacteristics>
									<width>1920</width>
									<height>1080</height>
								</samplecharacteristics>
							</video>
							<audio>
								<samplecharacteristics>
									<samplerate>48000</samplerate>
									<depth>16</depth>
								</samplecharacteristics>
								<channelcount>1</channelcount>
								<layout>mono</layout>
								<audiochannel>
									<sourcechannel>1</sourcechannel>
									<channellabel>discrete</channellabel>
								</audiochannel>
							</audio>
							<audio>
								<samplecharacteristics>
									<samplerate>48000</samplerate>
									<depth>16</depth>
								</samplecharacteristics>
								<channelcount>1</channelcount>
								<layout>mono</layout>
								<audiochannel>
									<sourcechannel>2</sourcechannel>
									<channellabel>discrete</channellabel>
								</audiochannel>
							</audio>
						</media>
					</file>
					<sourcetrack>
						<mediatype>video</mediatype>
					</sourcetrack>
					<link>
						<linkclipref>DYR18070_01 </linkclipref>
						<mediatype>video</mediatype>
						<trackindex>1</trackindex>
						<clipindex>47</clipindex>
					</link>
					<link>
						<linkclipref>DYR18070_01 3</linkclipref>
						<mediatype>audio</mediatype>
						<trackindex>1</trackindex>
						<clipindex>43</clipindex>
					</link>
					<link>
						<linkclipref>DYR18070_01 4</linkclipref>
						<mediatype>audio</mediatype>
						<trackindex>2</trackindex>
						<clipindex>43</clipindex>
					</link>
					<fielddominance>upper</fielddominance>
					<itemhistory>
						<uuid>C18A5B57-E1EA-4AB1-83BF-26DFB0E9B510</uuid>
					</itemhistory>
				</clipitem>
				<clipitem id="DYR18069_01 ">
					<name>DYR18069_01</name>
					<duration>194</duration>
					<rate>
						<ntsc>FALSE</ntsc>
						<timebase>25</timebase>
					</rate>
					<in>72</in>
					<out>140</out>
					<start>5395</start>
					<end>5463</end>
					<pixelaspectratio>Square</pixelaspectratio>
					<enabled>TRUE</enabled>
					<anamorphic>FALSE</anamorphic>
					<alphatype>none</alphatype>
					<masterclipid>DYR18069_01 1</masterclipid>
					<logginginfo>
						<scene/>
						<shottake/>
						<lognote/>
						<good>FALSE</good>
					</logginginfo>
					<labels>
						<label2/>
					</labels>
					<comments>
						<mastercomment1/>
						<mastercomment2/>
						<mastercomment3/>
						<mastercomment4/>
					</comments>
					<file id="DYR18069_01 2">
						<name>DYR18069_01.mov</name>
						<pathurl>file://localhost/Volumes/Askepott/Prosjekter/DNPR637010_Kra%CC%8Akeklubben_TEM_011212/Video/SKOGBARNA/Trollskog/DYR18069_01.mov</pathurl>
						<rate>
							<timebase>25</timebase>
						</rate>
						<duration>194</duration>
						<metadata>
							<storage>QuickTime</storage>
							<key>com.sony.bprl.xdcamtransfer.version</key>
							<size>10</size>
							<type>UTF8</type>
							<value>2.12.0.631</value>
						</metadata>
						<metadata>
							<storage>QuickTime</storage>
							<key>org.smpte.mxf.package.material.packageid</key>
							<size>66</size>
							<type>UTF8</type>
							<value>0x060a2b340101010501010d4313000000742b627c395405d608004602022f05f5</value>
						</metadata>
						<metadata>
							<storage>QuickTime</storage>
							<key>com.sony.professionaldisc.nonrealtimemeta.lastupdate</key>
							<size>25</size>
							<type>UTF8</type>
							<value>2010-08-31 12:39:47 +0100</value>
						</metadata>
						<metadata>
							<storage>QuickTime</storage>
							<key>com.sony.bprl.mxf.umid</key>
							<size>64</size>
							<type>UTF8</type>
							<value>060a2b340101010501010d4313000000742b627c395405d608004602022f05f5</value>
						</metadata>
						<metadata>
							<storage>QuickTime</storage>
							<key>com.sony.bprl.mxf.nrtmetadata</key>
							<size>1991</size>
							<type>UTF8</type>
							<value>&lt;?xml version="1.0" encoding="UTF-8"?>&lt;NonRealTimeMeta xmlns="urn:schemas-professionalDisc:nonRealTimeMeta:ver.1.20" xmlns:lib="urn:schemas-professionalDisc:lib:ver.1.20" xmlns:xsi="http://www.w3.org/2001/XMLSchema-instance" lastUpdate="2010-08-31T12:39:47+01:00">&lt;TargetMaterial umidRef="060A2B340101010501010D4313000000742B627C395405D608004602022F05F5">&lt;/TargetMaterial>&lt;Duration value="194">&lt;/Duration>&lt;LtcChangeTable tcFps="25" halfStep="false">&lt;LtcChange frameCount="0" value="03071406" status="increment">&lt;/LtcChange>&lt;LtcChange frameCount="193" value="21141406" status="end">&lt;/LtcChange>&lt;/LtcChangeTable>&lt;CreationDate value="2010-08-31T12:39:39+01:00">&lt;/CreationDate>&lt;TypicalUbit value="0000000017061020">&lt;/TypicalUbit>&lt;BodyUmidBasicChangeTable>&lt;BodyUmidBasicChange frameCount="0" value="060A2B340101010501010D4333000000742B627C395405D608004602022F05F5" status="start">&lt;/BodyUmidBasicChange>&lt;/BodyUmidBasicChangeTable>&lt;BodyUmidWhenChangeTable>&lt;BodyUmidWhenChange frameCount="0" value="84E50004395405A5" status="increment">&lt;/BodyUmidWhenChange>&lt;BodyUmidWhenChange frameCount="193" value="C4150104395405A5" status="end">&lt;/BodyUmidWhenChange>&lt;/BodyUmidWhenChangeTable>&lt;KlvPacketTable>&lt;KlvPacket key="060E2B34010101050301020A02000000" frameCount="0" lengthValue="095F5265635374617274" status="spot">&lt;/KlvPacket>&lt;/KlvPacketTable>&lt;VideoFormat>&lt;VideoRecPort port="DIRECT">&lt;/VideoRecPort>&lt;VideoFrame videoCodec="MPEG2HD35_1920_1080_MP@HL" captureFps="50.00i" recFps="50.00" formatFps="50i">&lt;/VideoFrame>&lt;VideoLayout pixel="1920" numOfVerticalLine="1080" aspectRatio="16:9">&lt;/VideoLayout>&lt;/VideoFormat>&lt;AudioFormat numOfChannel="2">&lt;AudioRecPort port="ANALOG" audioCodec="LPCM16" trackDst="CH1">&lt;/AudioRecPort>&lt;AudioRecPort port="ANALOG" audioCodec="LPCM16" trackDst="CH2">&lt;/AudioRecPort>&lt;/AudioFormat>&lt;Device manufacturer="Sony" modelName="PMW-EX3" serialNo="0401525">&lt;/Device>&lt;Lens modelName="VCL-614B2X">&lt;/Lens>&lt;RecordingMode type="normal" cacheRec="false">&lt;/RecordingMode>&lt;/NonRealTimeMeta>
							</value>
						</metadata>
						<metadata>
							<storage>QuickTime</storage>
							<key>com.apple.proapps.reel</key>
							<size>8</size>
							<type>UTF8</type>
							<value>Untitled</value>
						</metadata>
						<metadata>
							<storage>QuickTime</storage>
							<key>com.apple.proapps.clipID</key>
							<size>64</size>
							<type>UTF8</type>
							<value>060A2B340101010501010D4313000000742B627C395405D608004602022F05F5</value>
						</metadata>
						<metadata>
							<storage>QuickTime</storage>
							<key>com.apple.quicktime.information</key>
							<size>64</size>
							<type>UTF8</type>
							<value>060a2b340101010501010d4313000000742b627c395405d608004602022f05f5</value>
						</metadata>
						<metadata>
							<storage>QuickTime</storage>
							<key>com.apple.proapps.originalFormat</key>
							<size>36</size>
							<type>UTF8</type>
							<value>Apple XDCAM EX 1080i50 (35 Mb/s VBR)</value>
						</metadata>
						<timecode>
							<rate>
								<timebase>25</timebase>
							</rate>
							<string>06:14:07:03</string>
							<frame>561178</frame>
							<displayformat>NDF</displayformat>
							<source>source</source>
							<reel>
								<name>Untitled</name>
							</reel>
						</timecode>
						<media>
							<video>
								<duration>194</duration>
								<samplecharacteristics>
									<width>1920</width>
									<height>1080</height>
								</samplecharacteristics>
							</video>
							<audio>
								<samplecharacteristics>
									<samplerate>48000</samplerate>
									<depth>16</depth>
								</samplecharacteristics>
								<channelcount>1</channelcount>
								<layout>mono</layout>
								<audiochannel>
									<sourcechannel>1</sourcechannel>
									<channellabel>discrete</channellabel>
								</audiochannel>
							</audio>
							<audio>
								<samplecharacteristics>
									<samplerate>48000</samplerate>
									<depth>16</depth>
								</samplecharacteristics>
								<channelcount>1</channelcount>
								<layout>mono</layout>
								<audiochannel>
									<sourcechannel>2</sourcechannel>
									<channellabel>discrete</channellabel>
								</audiochannel>
							</audio>
						</media>
					</file>
					<sourcetrack>
						<mediatype>video</mediatype>
					</sourcetrack>
					<link>
						<linkclipref>DYR18069_01 </linkclipref>
						<mediatype>video</mediatype>
						<trackindex>1</trackindex>
						<clipindex>48</clipindex>
					</link>
					<link>
						<linkclipref>DYR18069_01 3</linkclipref>
						<mediatype>audio</mediatype>
						<trackindex>1</trackindex>
						<clipindex>44</clipindex>
					</link>
					<link>
						<linkclipref>DYR18069_01 4</linkclipref>
						<mediatype>audio</mediatype>
						<trackindex>2</trackindex>
						<clipindex>44</clipindex>
					</link>
					<fielddominance>upper</fielddominance>
					<itemhistory>
						<uuid>2C482A67-BADA-439C-8D72-AB6BF7DEE6AF</uuid>
					</itemhistory>
				</clipitem>
				<clipitem id="DYR18068_01 ">
					<name>DYR18068_01</name>
					<duration>407</duration>
					<rate>
						<ntsc>FALSE</ntsc>
						<timebase>25</timebase>
					</rate>
					<in>175</in>
					<out>249</out>
					<start>5463</start>
					<end>5537</end>
					<pixelaspectratio>Square</pixelaspectratio>
					<enabled>TRUE</enabled>
					<anamorphic>FALSE</anamorphic>
					<alphatype>none</alphatype>
					<masterclipid>DYR18068_01 1</masterclipid>
					<logginginfo>
						<scene/>
						<shottake/>
						<lognote/>
						<good>FALSE</good>
					</logginginfo>
					<labels>
						<label2/>
					</labels>
					<comments>
						<mastercomment1/>
						<mastercomment2/>
						<mastercomment3/>
						<mastercomment4/>
					</comments>
					<file id="DYR18068_01 2">
						<name>DYR18068_01.mov</name>
						<pathurl>file://localhost/Volumes/Askepott/Prosjekter/DNPR637010_Kra%CC%8Akeklubben_TEM_011212/Video/SKOGBARNA/Trollskog/DYR18068_01.mov</pathurl>
						<rate>
							<timebase>25</timebase>
						</rate>
						<duration>407</duration>
						<metadata>
							<storage>QuickTime</storage>
							<key>com.sony.bprl.xdcamtransfer.version</key>
							<size>10</size>
							<type>UTF8</type>
							<value>2.12.0.631</value>
						</metadata>
						<metadata>
							<storage>QuickTime</storage>
							<key>org.smpte.mxf.package.material.packageid</key>
							<size>66</size>
							<type>UTF8</type>
							<value>0x060a2b340101010501010d431300000074454c7c395405df08004602022f05f5</value>
						</metadata>
						<metadata>
							<storage>QuickTime</storage>
							<key>com.sony.professionaldisc.nonrealtimemeta.lastupdate</key>
							<size>25</size>
							<type>UTF8</type>
							<value>2010-08-31 12:39:27 +0100</value>
						</metadata>
						<metadata>
							<storage>QuickTime</storage>
							<key>com.sony.bprl.mxf.umid</key>
							<size>64</size>
							<type>UTF8</type>
							<value>060a2b340101010501010d431300000074454c7c395405df08004602022f05f5</value>
						</metadata>
						<metadata>
							<storage>QuickTime</storage>
							<key>com.sony.bprl.mxf.nrtmetadata</key>
							<size>1991</size>
							<type>UTF8</type>
							<value>&lt;?xml version="1.0" encoding="UTF-8"?>&lt;NonRealTimeMeta xmlns="urn:schemas-professionalDisc:nonRealTimeMeta:ver.1.20" xmlns:lib="urn:schemas-professionalDisc:lib:ver.1.20" xmlns:xsi="http://www.w3.org/2001/XMLSchema-instance" lastUpdate="2010-08-31T12:39:27+01:00">&lt;TargetMaterial umidRef="060A2B340101010501010D431300000074454C7C395405DF08004602022F05F5">&lt;/TargetMaterial>&lt;Duration value="407">&lt;/Duration>&lt;LtcChangeTable tcFps="25" halfStep="false">&lt;LtcChange frameCount="0" value="21501306" status="increment">&lt;/LtcChange>&lt;LtcChange frameCount="406" value="02071406" status="end">&lt;/LtcChange>&lt;/LtcChangeTable>&lt;CreationDate value="2010-08-31T12:39:10+01:00">&lt;/CreationDate>&lt;TypicalUbit value="0000000017061020">&lt;/TypicalUbit>&lt;BodyUmidBasicChangeTable>&lt;BodyUmidBasicChange frameCount="0" value="060A2B340101010501010D433300000074454C7C395405DF08004602022F05F5" status="start">&lt;/BodyUmidBasicChange>&lt;/BodyUmidBasicChangeTable>&lt;BodyUmidWhenChangeTable>&lt;BodyUmidWhenChange frameCount="0" value="44310004395405A5" status="increment">&lt;/BodyUmidWhenChange>&lt;BodyUmidWhenChange frameCount="406" value="C4960004395405A5" status="end">&lt;/BodyUmidWhenChange>&lt;/BodyUmidWhenChangeTable>&lt;KlvPacketTable>&lt;KlvPacket key="060E2B34010101050301020A02000000" frameCount="0" lengthValue="095F5265635374617274" status="spot">&lt;/KlvPacket>&lt;/KlvPacketTable>&lt;VideoFormat>&lt;VideoRecPort port="DIRECT">&lt;/VideoRecPort>&lt;VideoFrame videoCodec="MPEG2HD35_1920_1080_MP@HL" captureFps="50.00i" recFps="50.00" formatFps="50i">&lt;/VideoFrame>&lt;VideoLayout pixel="1920" numOfVerticalLine="1080" aspectRatio="16:9">&lt;/VideoLayout>&lt;/VideoFormat>&lt;AudioFormat numOfChannel="2">&lt;AudioRecPort port="ANALOG" audioCodec="LPCM16" trackDst="CH1">&lt;/AudioRecPort>&lt;AudioRecPort port="ANALOG" audioCodec="LPCM16" trackDst="CH2">&lt;/AudioRecPort>&lt;/AudioFormat>&lt;Device manufacturer="Sony" modelName="PMW-EX3" serialNo="0401525">&lt;/Device>&lt;Lens modelName="VCL-614B2X">&lt;/Lens>&lt;RecordingMode type="normal" cacheRec="false">&lt;/RecordingMode>&lt;/NonRealTimeMeta>
							</value>
						</metadata>
						<metadata>
							<storage>QuickTime</storage>
							<key>com.apple.proapps.reel</key>
							<size>8</size>
							<type>UTF8</type>
							<value>Untitled</value>
						</metadata>
						<metadata>
							<storage>QuickTime</storage>
							<key>com.apple.proapps.clipID</key>
							<size>64</size>
							<type>UTF8</type>
							<value>060A2B340101010501010D431300000074454C7C395405DF08004602022F05F5</value>
						</metadata>
						<metadata>
							<storage>QuickTime</storage>
							<key>com.apple.quicktime.information</key>
							<size>64</size>
							<type>UTF8</type>
							<value>060a2b340101010501010d431300000074454c7c395405df08004602022f05f5</value>
						</metadata>
						<metadata>
							<storage>QuickTime</storage>
							<key>com.apple.proapps.originalFormat</key>
							<size>36</size>
							<type>UTF8</type>
							<value>Apple XDCAM EX 1080i50 (35 Mb/s VBR)</value>
						</metadata>
						<timecode>
							<rate>
								<timebase>25</timebase>
							</rate>
							<string>06:13:50:21</string>
							<frame>560771</frame>
							<displayformat>NDF</displayformat>
							<source>source</source>
							<reel>
								<name>Untitled</name>
							</reel>
						</timecode>
						<media>
							<video>
								<duration>407</duration>
								<samplecharacteristics>
									<width>1920</width>
									<height>1080</height>
								</samplecharacteristics>
							</video>
							<audio>
								<samplecharacteristics>
									<samplerate>48000</samplerate>
									<depth>16</depth>
								</samplecharacteristics>
								<channelcount>1</channelcount>
								<layout>mono</layout>
								<audiochannel>
									<sourcechannel>1</sourcechannel>
									<channellabel>discrete</channellabel>
								</audiochannel>
							</audio>
							<audio>
								<samplecharacteristics>
									<samplerate>48000</samplerate>
									<depth>16</depth>
								</samplecharacteristics>
								<channelcount>1</channelcount>
								<layout>mono</layout>
								<audiochannel>
									<sourcechannel>2</sourcechannel>
									<channellabel>discrete</channellabel>
								</audiochannel>
							</audio>
						</media>
					</file>
					<sourcetrack>
						<mediatype>video</mediatype>
					</sourcetrack>
					<link>
						<linkclipref>DYR18068_01 </linkclipref>
						<mediatype>video</mediatype>
						<trackindex>1</trackindex>
						<clipindex>49</clipindex>
					</link>
					<link>
						<linkclipref>DYR18068_01 3</linkclipref>
						<mediatype>audio</mediatype>
						<trackindex>1</trackindex>
						<clipindex>45</clipindex>
					</link>
					<link>
						<linkclipref>DYR18068_01 4</linkclipref>
						<mediatype>audio</mediatype>
						<trackindex>2</trackindex>
						<clipindex>45</clipindex>
					</link>
					<fielddominance>upper</fielddominance>
					<itemhistory>
						<uuid>E7AD6F83-1030-466A-81D2-C3CA20A852D8</uuid>
					</itemhistory>
				</clipitem>
				<clipitem id="DYR18091_01 plukke mose4">
					<name>DYR18091_01 plukke mose</name>
					<duration>935</duration>
					<rate>
						<ntsc>FALSE</ntsc>
						<timebase>25</timebase>
					</rate>
					<in>265</in>
					<out>380</out>
					<start>5537</start>
					<end>5652</end>
					<pixelaspectratio>Square</pixelaspectratio>
					<enabled>TRUE</enabled>
					<anamorphic>FALSE</anamorphic>
					<alphatype>none</alphatype>
					<masterclipid>DYR18091_01 plukke mose1</masterclipid>
					<logginginfo>
						<scene/>
						<shottake/>
						<lognote/>
						<good>FALSE</good>
					</logginginfo>
					<labels>
						<label2/>
					</labels>
					<comments>
						<mastercomment1/>
						<mastercomment2/>
						<mastercomment3/>
						<mastercomment4/>
					</comments>
					<file id="DYR18091_01 "/>
					<sourcetrack>
						<mediatype>video</mediatype>
					</sourcetrack>
					<link>
						<linkclipref>DYR18091_01 plukke mose4</linkclipref>
						<mediatype>video</mediatype>
						<trackindex>1</trackindex>
						<clipindex>50</clipindex>
					</link>
					<link>
						<linkclipref>DYR18091_01 plukke mose5</linkclipref>
						<mediatype>audio</mediatype>
						<trackindex>1</trackindex>
						<clipindex>46</clipindex>
					</link>
					<link>
						<linkclipref>DYR18091_01 plukke mose6</linkclipref>
						<mediatype>audio</mediatype>
						<trackindex>2</trackindex>
						<clipindex>46</clipindex>
					</link>
					<fielddominance>upper</fielddominance>
					<itemhistory>
						<uuid>AE7D1915-20C1-4675-9A75-922BAD0CD394</uuid>
						<uuid>BCB159B0-6E0E-42EC-8C65-09267CDB0F58</uuid>
					</itemhistory>
				</clipitem>
				<clipitem id="DYR18089_01 plukke subjektivt">
					<name>DYR18089_01 plukke subjektivt</name>
					<duration>626</duration>
					<rate>
						<ntsc>FALSE</ntsc>
						<timebase>25</timebase>
					</rate>
					<in>180</in>
					<out>326</out>
					<start>5652</start>
					<end>5798</end>
					<pixelaspectratio>Square</pixelaspectratio>
					<enabled>TRUE</enabled>
					<anamorphic>FALSE</anamorphic>
					<alphatype>none</alphatype>
					<masterclipid>DYR18089_01 plukke subjektivt1</masterclipid>
					<logginginfo>
						<scene/>
						<shottake/>
						<lognote/>
						<good>FALSE</good>
					</logginginfo>
					<labels>
						<label2/>
					</labels>
					<comments>
						<mastercomment1/>
						<mastercomment2/>
						<mastercomment3/>
						<mastercomment4/>
					</comments>
					<file id="DYR18089_01 ">
						<name>DYR18089_01.mov</name>
						<pathurl>file://localhost/Volumes/Askepott/Prosjekter/DNPR637010_Kra%CC%8Akeklubben_TEM_011212/Video/SKOGBARNA/Trollskog/DYR18089_01.mov</pathurl>
						<rate>
							<timebase>25</timebase>
						</rate>
						<duration>626</duration>
						<metadata>
							<storage>QuickTime</storage>
							<key>com.sony.bprl.xdcamtransfer.version</key>
							<size>10</size>
							<type>UTF8</type>
							<value>2.12.0.631</value>
						</metadata>
						<metadata>
							<storage>QuickTime</storage>
							<key>org.smpte.mxf.package.material.packageid</key>
							<size>66</size>
							<type>UTF8</type>
							<value>0x060a2b340101010501010d43130000008d46cd81395405cc08004602022f05f5</value>
						</metadata>
						<metadata>
							<storage>QuickTime</storage>
							<key>com.sony.professionaldisc.nonrealtimemeta.lastupdate</key>
							<size>25</size>
							<type>UTF8</type>
							<value>2010-08-31 13:10:33 +0100</value>
						</metadata>
						<metadata>
							<storage>QuickTime</storage>
							<key>com.sony.bprl.mxf.umid</key>
							<size>64</size>
							<type>UTF8</type>
							<value>060a2b340101010501010d43130000008d46cd81395405cc08004602022f05f5</value>
						</metadata>
						<metadata>
							<storage>QuickTime</storage>
							<key>com.sony.bprl.mxf.nrtmetadata</key>
							<size>1991</size>
							<type>UTF8</type>
							<value>&lt;?xml version="1.0" encoding="UTF-8"?>&lt;NonRealTimeMeta xmlns="urn:schemas-professionalDisc:nonRealTimeMeta:ver.1.20" xmlns:lib="urn:schemas-professionalDisc:lib:ver.1.20" xmlns:xsi="http://www.w3.org/2001/XMLSchema-instance" lastUpdate="2010-08-31T13:10:33+01:00">&lt;TargetMaterial umidRef="060A2B340101010501010D43130000008D46CD81395405CC08004602022F05F5">&lt;/TargetMaterial>&lt;Duration value="626">&lt;/Duration>&lt;LtcChangeTable tcFps="25" halfStep="false">&lt;LtcChange frameCount="0" value="19452506" status="increment">&lt;/LtcChange>&lt;LtcChange frameCount="625" value="19102606" status="end">&lt;/LtcChange>&lt;/LtcChangeTable>&lt;CreationDate value="2010-08-31T13:10:08+01:00">&lt;/CreationDate>&lt;TypicalUbit value="0000000017061020">&lt;/TypicalUbit>&lt;BodyUmidBasicChangeTable>&lt;BodyUmidBasicChange frameCount="0" value="060A2B340101010501010D43330000008D46CD81395405CC08004602022F05F5" status="start">&lt;/BodyUmidBasicChange>&lt;/BodyUmidBasicChangeTable>&lt;BodyUmidWhenChangeTable>&lt;BodyUmidWhenChange frameCount="0" value="448B2D04395405A5" status="increment">&lt;/BodyUmidWhenChange>&lt;BodyUmidWhenChange frameCount="625" value="84272E04395405A5" status="end">&lt;/BodyUmidWhenChange>&lt;/BodyUmidWhenChangeTable>&lt;KlvPacketTable>&lt;KlvPacket key="060E2B34010101050301020A02000000" frameCount="0" lengthValue="095F5265635374617274" status="spot">&lt;/KlvPacket>&lt;/KlvPacketTable>&lt;VideoFormat>&lt;VideoRecPort port="DIRECT">&lt;/VideoRecPort>&lt;VideoFrame videoCodec="MPEG2HD35_1920_1080_MP@HL" captureFps="50.00i" recFps="50.00" formatFps="50i">&lt;/VideoFrame>&lt;VideoLayout pixel="1920" numOfVerticalLine="1080" aspectRatio="16:9">&lt;/VideoLayout>&lt;/VideoFormat>&lt;AudioFormat numOfChannel="2">&lt;AudioRecPort port="ANALOG" audioCodec="LPCM16" trackDst="CH1">&lt;/AudioRecPort>&lt;AudioRecPort port="ANALOG" audioCodec="LPCM16" trackDst="CH2">&lt;/AudioRecPort>&lt;/AudioFormat>&lt;Device manufacturer="Sony" modelName="PMW-EX3" serialNo="0401525">&lt;/Device>&lt;Lens modelName="VCL-614B2X">&lt;/Lens>&lt;RecordingMode type="normal" cacheRec="false">&lt;/RecordingMode>&lt;/NonRealTimeMeta>
							</value>
						</metadata>
						<metadata>
							<storage>QuickTime</storage>
							<key>com.apple.proapps.reel</key>
							<size>8</size>
							<type>UTF8</type>
							<value>Untitled</value>
						</metadata>
						<metadata>
							<storage>QuickTime</storage>
							<key>com.apple.proapps.clipID</key>
							<size>64</size>
							<type>UTF8</type>
							<value>060A2B340101010501010D43130000008D46CD81395405CC08004602022F05F5</value>
						</metadata>
						<metadata>
							<storage>QuickTime</storage>
							<key>com.apple.quicktime.information</key>
							<size>64</size>
							<type>UTF8</type>
							<value>060a2b340101010501010d43130000008d46cd81395405cc08004602022f05f5</value>
						</metadata>
						<metadata>
							<storage>QuickTime</storage>
							<key>com.apple.proapps.originalFormat</key>
							<size>36</size>
							<type>UTF8</type>
							<value>Apple XDCAM EX 1080i50 (35 Mb/s VBR)</value>
						</metadata>
						<timecode>
							<rate>
								<timebase>25</timebase>
							</rate>
							<string>06:25:45:19</string>
							<frame>578644</frame>
							<displayformat>NDF</displayformat>
							<source>source</source>
							<reel>
								<name>Untitled</name>
							</reel>
						</timecode>
						<media>
							<video>
								<duration>626</duration>
								<samplecharacteristics>
									<width>1920</width>
									<height>1080</height>
								</samplecharacteristics>
							</video>
							<audio>
								<samplecharacteristics>
									<samplerate>48000</samplerate>
									<depth>16</depth>
								</samplecharacteristics>
								<channelcount>1</channelcount>
								<layout>mono</layout>
								<audiochannel>
									<sourcechannel>1</sourcechannel>
									<channellabel>discrete</channellabel>
								</audiochannel>
							</audio>
							<audio>
								<samplecharacteristics>
									<samplerate>48000</samplerate>
									<depth>16</depth>
								</samplecharacteristics>
								<channelcount>1</channelcount>
								<layout>mono</layout>
								<audiochannel>
									<sourcechannel>2</sourcechannel>
									<channellabel>discrete</channellabel>
								</audiochannel>
							</audio>
						</media>
					</file>
					<filter>
						<start>-1</start>
						<end>-1</end>
						<effect>
							<name>G Simple Curves +20 white curve</name>
							<effectcategory>Nattress Big Box of Tricks - Levels and Curves</effectcategory>
							<effecttype>filter</effecttype>
							<mediatype>video</mediatype>
							<parameter>
								<parameterid>colourspace</parameterid>
								<name>Colour Space</name>
								<valuemin>1</valuemin>
								<valuemax>2</valuemax>
								<valuelist>
									<valueentry>
										<name>RGB</name>
										<value>1</value>
									</valueentry>
									<valueentry>
										<name>Y'CbCr</name>
										<value>2</value>
									</valueentry>
								</valuelist>
								<value>2</value>
							</parameter>
							<parameter>
								<parameterid>showcurves</parameterid>
								<name>Show Curves</name>
								<value>FALSE</value>
							</parameter>
							<parameter>
								<parameterid>lvar</parameterid>
								<name>Levels Controls</name>
								<value>string</value>
							</parameter>
							<parameter>
								<parameterid>inw</parameterid>
								<name>White Level</name>
								<valuemin>0</valuemin>
								<valuemax>255</valuemax>
								<value>255</value>
							</parameter>
							<parameter>
								<parameterid>inb</parameterid>
								<name>Black Level</name>
								<valuemin>0</valuemin>
								<valuemax>255</valuemax>
								<value>0</value>
							</parameter>
							<parameter>
								<parameterid>outw</parameterid>
								<name>White Output</name>
								<valuemin>0</valuemin>
								<valuemax>255</valuemax>
								<value>255</value>
							</parameter>
							<parameter>
								<parameterid>outb</parameterid>
								<name>Black Output</name>
								<valuemin>0</valuemin>
								<valuemax>255</valuemax>
								<value>0</value>
							</parameter>
							<parameter>
								<parameterid>cvar</parameterid>
								<name>Curves Controls</name>
								<value>string</value>
							</parameter>
							<parameter>
								<parameterid>curvew</parameterid>
								<name>White Curve</name>
								<valuemin>-100</valuemin>
								<valuemax>100</valuemax>
								<value>20</value>
							</parameter>
							<parameter>
								<parameterid>curveb</parameterid>
								<name>Black Curve</name>
								<valuemin>-100</valuemin>
								<valuemax>100</valuemax>
								<value>0</value>
							</parameter>
							<parameter>
								<parameterid>clipoutput</parameterid>
								<name>Clip Output Levels</name>
								<value>TRUE</value>
							</parameter>
							<parameter>
								<parameterid>copyright</parameterid>
								<name>© www.nattress.com</name>
								<value>string</value>
							</parameter>
						</effect>
					</filter>
					<sourcetrack>
						<mediatype>video</mediatype>
					</sourcetrack>
					<link>
						<linkclipref>DYR18089_01 plukke subjektivt</linkclipref>
						<mediatype>video</mediatype>
						<trackindex>1</trackindex>
						<clipindex>51</clipindex>
					</link>
					<link>
						<linkclipref>DYR18089_01 plukke subjektivt2</linkclipref>
						<mediatype>audio</mediatype>
						<trackindex>1</trackindex>
						<clipindex>47</clipindex>
					</link>
					<link>
						<linkclipref>DYR18089_01 plukke subjektivt3</linkclipref>
						<mediatype>audio</mediatype>
						<trackindex>2</trackindex>
						<clipindex>47</clipindex>
					</link>
					<fielddominance>upper</fielddominance>
					<itemhistory>
						<uuid>7DD471F3-D004-4C11-B06C-D9283A61E14F</uuid>
					</itemhistory>
				</clipitem>
				<clipitem id="DYR18073_01 ">
					<name>DYR18073_01</name>
					<duration>612</duration>
					<rate>
						<ntsc>FALSE</ntsc>
						<timebase>25</timebase>
					</rate>
					<in>167</in>
					<out>211</out>
					<start>5798</start>
					<end>5842</end>
					<pixelaspectratio>Square</pixelaspectratio>
					<enabled>TRUE</enabled>
					<anamorphic>FALSE</anamorphic>
					<alphatype>none</alphatype>
					<masterclipid>DYR18073_01 1</masterclipid>
					<logginginfo>
						<scene/>
						<shottake/>
						<lognote/>
						<good>FALSE</good>
					</logginginfo>
					<labels>
						<label2/>
					</labels>
					<comments>
						<mastercomment1/>
						<mastercomment2/>
						<mastercomment3/>
						<mastercomment4/>
					</comments>
					<file id="DYR18073_01 2">
						<name>DYR18073_01.mov</name>
						<pathurl>file://localhost/Volumes/Askepott/Prosjekter/DNPR637010_Kra%CC%8Akeklubben_TEM_011212/Video/SKOGBARNA/Trollskog/DYR18073_01.mov</pathurl>
						<rate>
							<timebase>25</timebase>
						</rate>
						<duration>612</duration>
						<metadata>
							<storage>QuickTime</storage>
							<key>com.sony.bprl.xdcamtransfer.version</key>
							<size>10</size>
							<type>UTF8</type>
							<value>2.12.0.631</value>
						</metadata>
						<metadata>
							<storage>QuickTime</storage>
							<key>org.smpte.mxf.package.material.packageid</key>
							<size>66</size>
							<type>UTF8</type>
							<value>0x060a2b340101010501010d4313000000ba6a287e395405cb08004602022f05f5</value>
						</metadata>
						<metadata>
							<storage>QuickTime</storage>
							<key>com.sony.professionaldisc.nonrealtimemeta.lastupdate</key>
							<size>25</size>
							<type>UTF8</type>
							<value>2010-08-31 12:50:03 +0100</value>
						</metadata>
						<metadata>
							<storage>QuickTime</storage>
							<key>com.sony.bprl.mxf.umid</key>
							<size>64</size>
							<type>UTF8</type>
							<value>060a2b340101010501010d4313000000ba6a287e395405cb08004602022f05f5</value>
						</metadata>
						<metadata>
							<storage>QuickTime</storage>
							<key>com.sony.bprl.mxf.nrtmetadata</key>
							<size>1991</size>
							<type>UTF8</type>
							<value>&lt;?xml version="1.0" encoding="UTF-8"?>&lt;NonRealTimeMeta xmlns="urn:schemas-professionalDisc:nonRealTimeMeta:ver.1.20" xmlns:lib="urn:schemas-professionalDisc:lib:ver.1.20" xmlns:xsi="http://www.w3.org/2001/XMLSchema-instance" lastUpdate="2010-08-31T12:50:03+01:00">&lt;TargetMaterial umidRef="060A2B340101010501010D4313000000BA6A287E395405CB08004602022F05F5">&lt;/TargetMaterial>&lt;Duration value="612">&lt;/Duration>&lt;LtcChangeTable tcFps="25" halfStep="false">&lt;LtcChange frameCount="0" value="17081706" status="increment">&lt;/LtcChange>&lt;LtcChange frameCount="611" value="03331706" status="end">&lt;/LtcChange>&lt;/LtcChangeTable>&lt;CreationDate value="2010-08-31T12:49:38+01:00">&lt;/CreationDate>&lt;TypicalUbit value="0000000017061020">&lt;/TypicalUbit>&lt;BodyUmidBasicChangeTable>&lt;BodyUmidBasicChange frameCount="0" value="060A2B340101010501010D4333000000BA6A287E395405CB08004602022F05F5" status="start">&lt;/BodyUmidBasicChange>&lt;/BodyUmidBasicChangeTable>&lt;BodyUmidWhenChangeTable>&lt;BodyUmidWhenChange frameCount="0" value="84840F04395405A5" status="increment">&lt;/BodyUmidWhenChange>&lt;BodyUmidWhenChange frameCount="611" value="441D1004395405A5" status="end">&lt;/BodyUmidWhenChange>&lt;/BodyUmidWhenChangeTable>&lt;KlvPacketTable>&lt;KlvPacket key="060E2B34010101050301020A02000000" frameCount="0" lengthValue="095F5265635374617274" status="spot">&lt;/KlvPacket>&lt;/KlvPacketTable>&lt;VideoFormat>&lt;VideoRecPort port="DIRECT">&lt;/VideoRecPort>&lt;VideoFrame videoCodec="MPEG2HD35_1920_1080_MP@HL" captureFps="50.00i" recFps="50.00" formatFps="50i">&lt;/VideoFrame>&lt;VideoLayout pixel="1920" numOfVerticalLine="1080" aspectRatio="16:9">&lt;/VideoLayout>&lt;/VideoFormat>&lt;AudioFormat numOfChannel="2">&lt;AudioRecPort port="ANALOG" audioCodec="LPCM16" trackDst="CH1">&lt;/AudioRecPort>&lt;AudioRecPort port="ANALOG" audioCodec="LPCM16" trackDst="CH2">&lt;/AudioRecPort>&lt;/AudioFormat>&lt;Device manufacturer="Sony" modelName="PMW-EX3" serialNo="0401525">&lt;/Device>&lt;Lens modelName="VCL-614B2X">&lt;/Lens>&lt;RecordingMode type="normal" cacheRec="false">&lt;/RecordingMode>&lt;/NonRealTimeMeta>
							</value>
						</metadata>
						<metadata>
							<storage>QuickTime</storage>
							<key>com.apple.proapps.reel</key>
							<size>8</size>
							<type>UTF8</type>
							<value>Untitled</value>
						</metadata>
						<metadata>
							<storage>QuickTime</storage>
							<key>com.apple.proapps.clipID</key>
							<size>64</size>
							<type>UTF8</type>
							<value>060A2B340101010501010D4313000000BA6A287E395405CB08004602022F05F5</value>
						</metadata>
						<metadata>
							<storage>QuickTime</storage>
							<key>com.apple.quicktime.information</key>
							<size>64</size>
							<type>UTF8</type>
							<value>060a2b340101010501010d4313000000ba6a287e395405cb08004602022f05f5</value>
						</metadata>
						<metadata>
							<storage>QuickTime</storage>
							<key>com.apple.proapps.originalFormat</key>
							<size>36</size>
							<type>UTF8</type>
							<value>Apple XDCAM EX 1080i50 (35 Mb/s VBR)</value>
						</metadata>
						<timecode>
							<rate>
								<timebase>25</timebase>
							</rate>
							<string>06:17:08:17</string>
							<frame>565717</frame>
							<displayformat>NDF</displayformat>
							<source>source</source>
							<reel>
								<name>Untitled</name>
							</reel>
						</timecode>
						<media>
							<video>
								<duration>612</duration>
								<samplecharacteristics>
									<width>1920</width>
									<height>1080</height>
								</samplecharacteristics>
							</video>
							<audio>
								<samplecharacteristics>
									<samplerate>48000</samplerate>
									<depth>16</depth>
								</samplecharacteristics>
								<channelcount>1</channelcount>
								<layout>mono</layout>
								<audiochannel>
									<sourcechannel>1</sourcechannel>
									<channellabel>discrete</channellabel>
								</audiochannel>
							</audio>
							<audio>
								<samplecharacteristics>
									<samplerate>48000</samplerate>
									<depth>16</depth>
								</samplecharacteristics>
								<channelcount>1</channelcount>
								<layout>mono</layout>
								<audiochannel>
									<sourcechannel>2</sourcechannel>
									<channellabel>discrete</channellabel>
								</audiochannel>
							</audio>
						</media>
					</file>
					<sourcetrack>
						<mediatype>video</mediatype>
					</sourcetrack>
					<link>
						<linkclipref>DYR18073_01 </linkclipref>
						<mediatype>video</mediatype>
						<trackindex>1</trackindex>
						<clipindex>52</clipindex>
					</link>
					<link>
						<linkclipref>DYR18073_01 3</linkclipref>
						<mediatype>audio</mediatype>
						<trackindex>1</trackindex>
						<clipindex>48</clipindex>
					</link>
					<link>
						<linkclipref>DYR18073_01 4</linkclipref>
						<mediatype>audio</mediatype>
						<trackindex>2</trackindex>
						<clipindex>48</clipindex>
					</link>
					<fielddominance>upper</fielddominance>
					<itemhistory>
						<uuid>B51B75BD-A366-43C0-8ACA-A88BD9A05B54</uuid>
					</itemhistory>
				</clipitem>
				<clipitem id="DYR18077_01 ">
					<name>DYR18077_01</name>
					<duration>650</duration>
					<rate>
						<ntsc>FALSE</ntsc>
						<timebase>25</timebase>
					</rate>
					<in>363</in>
					<out>465</out>
					<start>5842</start>
					<end>5944</end>
					<pixelaspectratio>Square</pixelaspectratio>
					<enabled>TRUE</enabled>
					<anamorphic>FALSE</anamorphic>
					<alphatype>none</alphatype>
					<masterclipid>DYR18077_01 1</masterclipid>
					<logginginfo>
						<scene/>
						<shottake/>
						<lognote/>
						<good>FALSE</good>
					</logginginfo>
					<labels>
						<label2/>
					</labels>
					<comments>
						<mastercomment1/>
						<mastercomment2/>
						<mastercomment3/>
						<mastercomment4/>
					</comments>
					<file id="DYR18077_01 2">
						<name>DYR18077_01.mov</name>
						<pathurl>file://localhost/Volumes/Askepott/Prosjekter/DNPR637010_Kra%CC%8Akeklubben_TEM_011212/Video/SKOGBARNA/Trollskog/DYR18077_01.mov</pathurl>
						<rate>
							<timebase>25</timebase>
						</rate>
						<duration>650</duration>
						<metadata>
							<storage>QuickTime</storage>
							<key>com.sony.bprl.xdcamtransfer.version</key>
							<size>10</size>
							<type>UTF8</type>
							<value>2.12.0.631</value>
						</metadata>
						<metadata>
							<storage>QuickTime</storage>
							<key>org.smpte.mxf.package.material.packageid</key>
							<size>66</size>
							<type>UTF8</type>
							<value>0x060a2b340101010501010d4313000000c7fd037f395405c208004602022f05f5</value>
						</metadata>
						<metadata>
							<storage>QuickTime</storage>
							<key>com.sony.professionaldisc.nonrealtimemeta.lastupdate</key>
							<size>25</size>
							<type>UTF8</type>
							<value>2010-08-31 12:54:54 +0100</value>
						</metadata>
						<metadata>
							<storage>QuickTime</storage>
							<key>com.sony.bprl.mxf.umid</key>
							<size>64</size>
							<type>UTF8</type>
							<value>060a2b340101010501010d4313000000c7fd037f395405c208004602022f05f5</value>
						</metadata>
						<metadata>
							<storage>QuickTime</storage>
							<key>com.sony.bprl.mxf.nrtmetadata</key>
							<size>1991</size>
							<type>UTF8</type>
							<value>&lt;?xml version="1.0" encoding="UTF-8"?>&lt;NonRealTimeMeta xmlns="urn:schemas-professionalDisc:nonRealTimeMeta:ver.1.20" xmlns:lib="urn:schemas-professionalDisc:lib:ver.1.20" xmlns:xsi="http://www.w3.org/2001/XMLSchema-instance" lastUpdate="2010-08-31T12:54:54+01:00">&lt;TargetMaterial umidRef="060A2B340101010501010D4313000000C7FD037F395405C208004602022F05F5">&lt;/TargetMaterial>&lt;Duration value="650">&lt;/Duration>&lt;LtcChangeTable tcFps="25" halfStep="false">&lt;LtcChange frameCount="0" value="11521906" status="increment">&lt;/LtcChange>&lt;LtcChange frameCount="649" value="10182006" status="end">&lt;/LtcChange>&lt;/LtcChangeTable>&lt;CreationDate value="2010-08-31T12:54:27+01:00">&lt;/CreationDate>&lt;TypicalUbit value="0000000017061020">&lt;/TypicalUbit>&lt;BodyUmidBasicChangeTable>&lt;BodyUmidBasicChange frameCount="0" value="060A2B340101010501010D4333000000C7FD037F395405C208004602022F05F5" status="start">&lt;/BodyUmidBasicChange>&lt;/BodyUmidBasicChangeTable>&lt;BodyUmidWhenChangeTable>&lt;BodyUmidWhenChange frameCount="0" value="C4951604395405A5" status="increment">&lt;/BodyUmidWhenChange>&lt;BodyUmidWhenChange frameCount="649" value="04381704395405A5" status="end">&lt;/BodyUmidWhenChange>&lt;/BodyUmidWhenChangeTable>&lt;KlvPacketTable>&lt;KlvPacket key="060E2B34010101050301020A02000000" frameCount="0" lengthValue="095F5265635374617274" status="spot">&lt;/KlvPacket>&lt;/KlvPacketTable>&lt;VideoFormat>&lt;VideoRecPort port="DIRECT">&lt;/VideoRecPort>&lt;VideoFrame videoCodec="MPEG2HD35_1920_1080_MP@HL" captureFps="50.00i" recFps="50.00" formatFps="50i">&lt;/VideoFrame>&lt;VideoLayout pixel="1920" numOfVerticalLine="1080" aspectRatio="16:9">&lt;/VideoLayout>&lt;/VideoFormat>&lt;AudioFormat numOfChannel="2">&lt;AudioRecPort port="ANALOG" audioCodec="LPCM16" trackDst="CH1">&lt;/AudioRecPort>&lt;AudioRecPort port="ANALOG" audioCodec="LPCM16" trackDst="CH2">&lt;/AudioRecPort>&lt;/AudioFormat>&lt;Device manufacturer="Sony" modelName="PMW-EX3" serialNo="0401525">&lt;/Device>&lt;Lens modelName="VCL-614B2X">&lt;/Lens>&lt;RecordingMode type="normal" cacheRec="false">&lt;/RecordingMode>&lt;/NonRealTimeMeta>
							</value>
						</metadata>
						<metadata>
							<storage>QuickTime</storage>
							<key>com.apple.proapps.reel</key>
							<size>8</size>
							<type>UTF8</type>
							<value>Untitled</value>
						</metadata>
						<metadata>
							<storage>QuickTime</storage>
							<key>com.apple.proapps.clipID</key>
							<size>64</size>
							<type>UTF8</type>
							<value>060A2B340101010501010D4313000000C7FD037F395405C208004602022F05F5</value>
						</metadata>
						<metadata>
							<storage>QuickTime</storage>
							<key>com.apple.quicktime.information</key>
							<size>64</size>
							<type>UTF8</type>
							<value>060a2b340101010501010d4313000000c7fd037f395405c208004602022f05f5</value>
						</metadata>
						<metadata>
							<storage>QuickTime</storage>
							<key>com.apple.proapps.originalFormat</key>
							<size>36</size>
							<type>UTF8</type>
							<value>Apple XDCAM EX 1080i50 (35 Mb/s VBR)</value>
						</metadata>
						<timecode>
							<rate>
								<timebase>25</timebase>
							</rate>
							<string>06:19:52:11</string>
							<frame>569811</frame>
							<displayformat>NDF</displayformat>
							<source>source</source>
							<reel>
								<name>Untitled</name>
							</reel>
						</timecode>
						<media>
							<video>
								<duration>650</duration>
								<samplecharacteristics>
									<width>1920</width>
									<height>1080</height>
								</samplecharacteristics>
							</video>
							<audio>
								<samplecharacteristics>
									<samplerate>48000</samplerate>
									<depth>16</depth>
								</samplecharacteristics>
								<channelcount>1</channelcount>
								<layout>mono</layout>
								<audiochannel>
									<sourcechannel>1</sourcechannel>
									<channellabel>discrete</channellabel>
								</audiochannel>
							</audio>
							<audio>
								<samplecharacteristics>
									<samplerate>48000</samplerate>
									<depth>16</depth>
								</samplecharacteristics>
								<channelcount>1</channelcount>
								<layout>mono</layout>
								<audiochannel>
									<sourcechannel>2</sourcechannel>
									<channellabel>discrete</channellabel>
								</audiochannel>
							</audio>
						</media>
					</file>
					<sourcetrack>
						<mediatype>video</mediatype>
					</sourcetrack>
					<link>
						<linkclipref>DYR18077_01 </linkclipref>
						<mediatype>video</mediatype>
						<trackindex>1</trackindex>
						<clipindex>53</clipindex>
					</link>
					<link>
						<linkclipref>DYR18077_01 3</linkclipref>
						<mediatype>audio</mediatype>
						<trackindex>1</trackindex>
						<clipindex>49</clipindex>
					</link>
					<link>
						<linkclipref>DYR18077_01 4</linkclipref>
						<mediatype>audio</mediatype>
						<trackindex>2</trackindex>
						<clipindex>49</clipindex>
					</link>
					<fielddominance>upper</fielddominance>
					<itemhistory>
						<uuid>CC614612-ED6F-4913-AC7E-11946466AEB8</uuid>
					</itemhistory>
				</clipitem>
				<clipitem id="DYR18079_01 ">
					<name>DYR18079_01</name>
					<duration>656</duration>
					<rate>
						<ntsc>FALSE</ntsc>
						<timebase>25</timebase>
					</rate>
					<in>467</in>
					<out>501</out>
					<start>5944</start>
					<end>5978</end>
					<pixelaspectratio>Square</pixelaspectratio>
					<enabled>TRUE</enabled>
					<anamorphic>FALSE</anamorphic>
					<alphatype>none</alphatype>
					<masterclipid>DYR18079_01 1</masterclipid>
					<logginginfo>
						<scene/>
						<shottake/>
						<lognote/>
						<good>FALSE</good>
					</logginginfo>
					<labels>
						<label2/>
					</labels>
					<comments>
						<mastercomment1/>
						<mastercomment2/>
						<mastercomment3/>
						<mastercomment4/>
					</comments>
					<file id="DYR18079_01 2">
						<name>DYR18079_01.mov</name>
						<pathurl>file://localhost/Volumes/Askepott/Prosjekter/DNPR637010_Kra%CC%8Akeklubben_TEM_011212/Video/SKOGBARNA/Trollskog/DYR18079_01.mov</pathurl>
						<rate>
							<timebase>25</timebase>
						</rate>
						<duration>656</duration>
						<metadata>
							<storage>QuickTime</storage>
							<key>com.sony.bprl.xdcamtransfer.version</key>
							<size>10</size>
							<type>UTF8</type>
							<value>2.12.0.631</value>
						</metadata>
						<metadata>
							<storage>QuickTime</storage>
							<key>org.smpte.mxf.package.material.packageid</key>
							<size>66</size>
							<type>UTF8</type>
							<value>0x060a2b340101010501010d4313000000f9c0627f395405d308004602022f05f5</value>
						</metadata>
						<metadata>
							<storage>QuickTime</storage>
							<key>com.sony.professionaldisc.nonrealtimemeta.lastupdate</key>
							<size>25</size>
							<type>UTF8</type>
							<value>2010-08-31 12:57:00 +0100</value>
						</metadata>
						<metadata>
							<storage>QuickTime</storage>
							<key>com.sony.bprl.mxf.umid</key>
							<size>64</size>
							<type>UTF8</type>
							<value>060a2b340101010501010d4313000000f9c0627f395405d308004602022f05f5</value>
						</metadata>
						<metadata>
							<storage>QuickTime</storage>
							<key>com.sony.bprl.mxf.nrtmetadata</key>
							<size>1991</size>
							<type>UTF8</type>
							<value>&lt;?xml version="1.0" encoding="UTF-8"?>&lt;NonRealTimeMeta xmlns="urn:schemas-professionalDisc:nonRealTimeMeta:ver.1.20" xmlns:lib="urn:schemas-professionalDisc:lib:ver.1.20" xmlns:xsi="http://www.w3.org/2001/XMLSchema-instance" lastUpdate="2010-08-31T12:57:00+01:00">&lt;TargetMaterial umidRef="060A2B340101010501010D4313000000F9C0627F395405D308004602022F05F5">&lt;/TargetMaterial>&lt;Duration value="656">&lt;/Duration>&lt;LtcChangeTable tcFps="25" halfStep="false">&lt;LtcChange frameCount="0" value="10582006" status="increment">&lt;/LtcChange>&lt;LtcChange frameCount="655" value="15242106" status="end">&lt;/LtcChange>&lt;/LtcChangeTable>&lt;CreationDate value="2010-08-31T12:56:32+01:00">&lt;/CreationDate>&lt;TypicalUbit value="0000000017061020">&lt;/TypicalUbit>&lt;BodyUmidBasicChangeTable>&lt;BodyUmidBasicChange frameCount="0" value="060A2B340101010501010D4333000000F9C0627F395405D308004602022F05F5" status="start">&lt;/BodyUmidBasicChange>&lt;/BodyUmidBasicChangeTable>&lt;BodyUmidWhenChangeTable>&lt;BodyUmidWhenChange frameCount="0" value="C4A21904395405A5" status="increment">&lt;/BodyUmidWhenChange>&lt;BodyUmidWhenChange frameCount="655" value="84461A04395405A5" status="end">&lt;/BodyUmidWhenChange>&lt;/BodyUmidWhenChangeTable>&lt;KlvPacketTable>&lt;KlvPacket key="060E2B34010101050301020A02000000" frameCount="0" lengthValue="095F5265635374617274" status="spot">&lt;/KlvPacket>&lt;/KlvPacketTable>&lt;VideoFormat>&lt;VideoRecPort port="DIRECT">&lt;/VideoRecPort>&lt;VideoFrame videoCodec="MPEG2HD35_1920_1080_MP@HL" captureFps="50.00i" recFps="50.00" formatFps="50i">&lt;/VideoFrame>&lt;VideoLayout pixel="1920" numOfVerticalLine="1080" aspectRatio="16:9">&lt;/VideoLayout>&lt;/VideoFormat>&lt;AudioFormat numOfChannel="2">&lt;AudioRecPort port="ANALOG" audioCodec="LPCM16" trackDst="CH1">&lt;/AudioRecPort>&lt;AudioRecPort port="ANALOG" audioCodec="LPCM16" trackDst="CH2">&lt;/AudioRecPort>&lt;/AudioFormat>&lt;Device manufacturer="Sony" modelName="PMW-EX3" serialNo="0401525">&lt;/Device>&lt;Lens modelName="VCL-614B2X">&lt;/Lens>&lt;RecordingMode type="normal" cacheRec="false">&lt;/RecordingMode>&lt;/NonRealTimeMeta>
							</value>
						</metadata>
						<metadata>
							<storage>QuickTime</storage>
							<key>com.apple.proapps.reel</key>
							<size>8</size>
							<type>UTF8</type>
							<value>Untitled</value>
						</metadata>
						<metadata>
							<storage>QuickTime</storage>
							<key>com.apple.proapps.clipID</key>
							<size>64</size>
							<type>UTF8</type>
							<value>060A2B340101010501010D4313000000F9C0627F395405D308004602022F05F5</value>
						</metadata>
						<metadata>
							<storage>QuickTime</storage>
							<key>com.apple.quicktime.information</key>
							<size>64</size>
							<type>UTF8</type>
							<value>060a2b340101010501010d4313000000f9c0627f395405d308004602022f05f5</value>
						</metadata>
						<metadata>
							<storage>QuickTime</storage>
							<key>com.apple.proapps.originalFormat</key>
							<size>36</size>
							<type>UTF8</type>
							<value>Apple XDCAM EX 1080i50 (35 Mb/s VBR)</value>
						</metadata>
						<timecode>
							<rate>
								<timebase>25</timebase>
							</rate>
							<string>06:20:58:10</string>
							<frame>571460</frame>
							<displayformat>NDF</displayformat>
							<source>source</source>
							<reel>
								<name>Untitled</name>
							</reel>
						</timecode>
						<media>
							<video>
								<duration>656</duration>
								<samplecharacteristics>
									<width>1920</width>
									<height>1080</height>
								</samplecharacteristics>
							</video>
							<audio>
								<samplecharacteristics>
									<samplerate>48000</samplerate>
									<depth>16</depth>
								</samplecharacteristics>
								<channelcount>1</channelcount>
								<layout>mono</layout>
								<audiochannel>
									<sourcechannel>1</sourcechannel>
									<channellabel>discrete</channellabel>
								</audiochannel>
							</audio>
							<audio>
								<samplecharacteristics>
									<samplerate>48000</samplerate>
									<depth>16</depth>
								</samplecharacteristics>
								<channelcount>1</channelcount>
								<layout>mono</layout>
								<audiochannel>
									<sourcechannel>2</sourcechannel>
									<channellabel>discrete</channellabel>
								</audiochannel>
							</audio>
						</media>
					</file>
					<sourcetrack>
						<mediatype>video</mediatype>
					</sourcetrack>
					<link>
						<linkclipref>DYR18079_01 </linkclipref>
						<mediatype>video</mediatype>
						<trackindex>1</trackindex>
						<clipindex>54</clipindex>
					</link>
					<link>
						<linkclipref>DYR18079_01 3</linkclipref>
						<mediatype>audio</mediatype>
						<trackindex>1</trackindex>
						<clipindex>50</clipindex>
					</link>
					<link>
						<linkclipref>DYR18079_01 4</linkclipref>
						<mediatype>audio</mediatype>
						<trackindex>2</trackindex>
						<clipindex>50</clipindex>
					</link>
					<fielddominance>upper</fielddominance>
					<itemhistory>
						<uuid>74BD6FFE-F83F-4DA0-B1D2-BD72E5DF57CD</uuid>
					</itemhistory>
				</clipitem>
				<clipitem id="DYR18077_01 5">
					<name>DYR18077_01</name>
					<duration>650</duration>
					<rate>
						<ntsc>FALSE</ntsc>
						<timebase>25</timebase>
					</rate>
					<in>486</in>
					<out>543</out>
					<start>5978</start>
					<end>6035</end>
					<pixelaspectratio>Square</pixelaspectratio>
					<enabled>TRUE</enabled>
					<anamorphic>FALSE</anamorphic>
					<alphatype>none</alphatype>
					<masterclipid>DYR18077_01 1</masterclipid>
					<logginginfo>
						<scene/>
						<shottake/>
						<lognote/>
						<good>FALSE</good>
					</logginginfo>
					<labels>
						<label2/>
					</labels>
					<comments>
						<mastercomment1/>
						<mastercomment2/>
						<mastercomment3/>
						<mastercomment4/>
					</comments>
					<file id="DYR18077_01 2"/>
					<sourcetrack>
						<mediatype>video</mediatype>
					</sourcetrack>
					<fielddominance>upper</fielddominance>
					<itemhistory>
						<uuid>54AC9224-5FF1-48A4-B17C-A8F09348AE21</uuid>
					</itemhistory>
				</clipitem>
				<clipitem id="DYR18094_01 ">
					<name>DYR18094_01</name>
					<duration>1238</duration>
					<rate>
						<ntsc>FALSE</ntsc>
						<timebase>25</timebase>
					</rate>
					<in>281</in>
					<out>548</out>
					<start>6035</start>
					<end>6302</end>
					<pixelaspectratio>Square</pixelaspectratio>
					<enabled>TRUE</enabled>
					<anamorphic>FALSE</anamorphic>
					<alphatype>none</alphatype>
					<masterclipid>DYR18094_01 1</masterclipid>
					<logginginfo>
						<scene/>
						<shottake/>
						<lognote/>
						<good>FALSE</good>
					</logginginfo>
					<labels>
						<label2/>
					</labels>
					<comments>
						<mastercomment1/>
						<mastercomment2/>
						<mastercomment3/>
						<mastercomment4/>
					</comments>
					<file id="DYR18094_01 2">
						<name>DYR18094_01.mov</name>
						<pathurl>file://localhost/Volumes/Askepott/Prosjekter/DNPR637010_Kra%CC%8Akeklubben_TEM_011212/Video/SKOGBARNA/Trollskog/DYR18094_01.mov</pathurl>
						<rate>
							<timebase>25</timebase>
						</rate>
						<duration>1238</duration>
						<metadata>
							<storage>QuickTime</storage>
							<key>com.sony.bprl.xdcamtransfer.version</key>
							<size>10</size>
							<type>UTF8</type>
							<value>2.12.0.631</value>
						</metadata>
						<metadata>
							<storage>QuickTime</storage>
							<key>org.smpte.mxf.package.material.packageid</key>
							<size>66</size>
							<type>UTF8</type>
							<value>0x060a2b340101010501010d43130000009dd7b187395405d308004602022f05f5</value>
						</metadata>
						<metadata>
							<storage>QuickTime</storage>
							<key>com.sony.professionaldisc.nonrealtimemeta.lastupdate</key>
							<size>25</size>
							<type>UTF8</type>
							<value>2010-08-31 13:44:07 +0100</value>
						</metadata>
						<metadata>
							<storage>QuickTime</storage>
							<key>com.sony.bprl.mxf.umid</key>
							<size>64</size>
							<type>UTF8</type>
							<value>060a2b340101010501010d43130000009dd7b187395405d308004602022f05f5</value>
						</metadata>
						<metadata>
							<storage>QuickTime</storage>
							<key>com.sony.bprl.mxf.nrtmetadata</key>
							<size>1994</size>
							<type>UTF8</type>
							<value>&lt;?xml version="1.0" encoding="UTF-8"?>&lt;NonRealTimeMeta xmlns="urn:schemas-professionalDisc:nonRealTimeMeta:ver.1.20" xmlns:lib="urn:schemas-professionalDisc:lib:ver.1.20" xmlns:xsi="http://www.w3.org/2001/XMLSchema-instance" lastUpdate="2010-08-31T13:44:07+01:00">&lt;TargetMaterial umidRef="060A2B340101010501010D43130000009DD7B187395405D308004602022F05F5">&lt;/TargetMaterial>&lt;Duration value="1238">&lt;/Duration>&lt;LtcChangeTable tcFps="25" halfStep="false">&lt;LtcChange frameCount="0" value="20032906" status="increment">&lt;/LtcChange>&lt;LtcChange frameCount="1237" value="07532906" status="end">&lt;/LtcChange>&lt;/LtcChangeTable>&lt;CreationDate value="2010-08-31T13:43:16+01:00">&lt;/CreationDate>&lt;TypicalUbit value="0000000017061020">&lt;/TypicalUbit>&lt;BodyUmidBasicChangeTable>&lt;BodyUmidBasicChange frameCount="0" value="060A2B340101010501010D43330000009DD7B187395405D308004602022F05F5" status="start">&lt;/BodyUmidBasicChange>&lt;/BodyUmidBasicChangeTable>&lt;BodyUmidWhenChangeTable>&lt;BodyUmidWhenChange frameCount="0" value="041A5E04395405A5" status="increment">&lt;/BodyUmidWhenChange>&lt;BodyUmidWhenChange frameCount="1237" value="444F5F04395405A5" status="end">&lt;/BodyUmidWhenChange>&lt;/BodyUmidWhenChangeTable>&lt;KlvPacketTable>&lt;KlvPacket key="060E2B34010101050301020A02000000" frameCount="0" lengthValue="095F5265635374617274" status="spot">&lt;/KlvPacket>&lt;/KlvPacketTable>&lt;VideoFormat>&lt;VideoRecPort port="DIRECT">&lt;/VideoRecPort>&lt;VideoFrame videoCodec="MPEG2HD35_1920_1080_MP@HL" captureFps="50.00i" recFps="50.00" formatFps="50i">&lt;/VideoFrame>&lt;VideoLayout pixel="1920" numOfVerticalLine="1080" aspectRatio="16:9">&lt;/VideoLayout>&lt;/VideoFormat>&lt;AudioFormat numOfChannel="2">&lt;AudioRecPort port="ANALOG" audioCodec="LPCM16" trackDst="CH1">&lt;/AudioRecPort>&lt;AudioRecPort port="ANALOG" audioCodec="LPCM16" trackDst="CH2">&lt;/AudioRecPort>&lt;/AudioFormat>&lt;Device manufacturer="Sony" modelName="PMW-EX3" serialNo="0401525">&lt;/Device>&lt;Lens modelName="VCL-614B2X">&lt;/Lens>&lt;RecordingMode type="normal" cacheRec="false">&lt;/RecordingMode>&lt;/NonRealTimeMeta>
							</value>
						</metadata>
						<metadata>
							<storage>QuickTime</storage>
							<key>com.apple.proapps.reel</key>
							<size>8</size>
							<type>UTF8</type>
							<value>Untitled</value>
						</metadata>
						<metadata>
							<storage>QuickTime</storage>
							<key>com.apple.proapps.clipID</key>
							<size>64</size>
							<type>UTF8</type>
							<value>060A2B340101010501010D43130000009DD7B187395405D308004602022F05F5</value>
						</metadata>
						<metadata>
							<storage>QuickTime</storage>
							<key>com.apple.quicktime.information</key>
							<size>64</size>
							<type>UTF8</type>
							<value>060a2b340101010501010d43130000009dd7b187395405d308004602022f05f5</value>
						</metadata>
						<metadata>
							<storage>QuickTime</storage>
							<key>com.apple.proapps.originalFormat</key>
							<size>36</size>
							<type>UTF8</type>
							<value>Apple XDCAM EX 1080i50 (35 Mb/s VBR)</value>
						</metadata>
						<timecode>
							<rate>
								<timebase>25</timebase>
							</rate>
							<string>06:29:03:20</string>
							<frame>583595</frame>
							<displayformat>NDF</displayformat>
							<source>source</source>
							<reel>
								<name>Untitled</name>
							</reel>
						</timecode>
						<media>
							<video>
								<duration>1238</duration>
								<samplecharacteristics>
									<width>1920</width>
									<height>1080</height>
								</samplecharacteristics>
							</video>
							<audio>
								<samplecharacteristics>
									<samplerate>48000</samplerate>
									<depth>16</depth>
								</samplecharacteristics>
								<channelcount>1</channelcount>
								<layout>mono</layout>
								<audiochannel>
									<sourcechannel>1</sourcechannel>
									<channellabel>discrete</channellabel>
								</audiochannel>
							</audio>
							<audio>
								<samplecharacteristics>
									<samplerate>48000</samplerate>
									<depth>16</depth>
								</samplecharacteristics>
								<channelcount>1</channelcount>
								<layout>mono</layout>
								<audiochannel>
									<sourcechannel>2</sourcechannel>
									<channellabel>discrete</channellabel>
								</audiochannel>
							</audio>
						</media>
					</file>
					<filter>
						<start>-1</start>
						<end>-1</end>
						<effect>
							<name>G Simple Curves +20 white curve</name>
							<effectcategory>Nattress Big Box of Tricks - Levels and Curves</effectcategory>
							<effecttype>filter</effecttype>
							<mediatype>video</mediatype>
							<parameter>
								<parameterid>colourspace</parameterid>
								<name>Colour Space</name>
								<valuemin>1</valuemin>
								<valuemax>2</valuemax>
								<valuelist>
									<valueentry>
										<name>RGB</name>
										<value>1</value>
									</valueentry>
									<valueentry>
										<name>Y'CbCr</name>
										<value>2</value>
									</valueentry>
								</valuelist>
								<value>2</value>
							</parameter>
							<parameter>
								<parameterid>showcurves</parameterid>
								<name>Show Curves</name>
								<value>FALSE</value>
							</parameter>
							<parameter>
								<parameterid>lvar</parameterid>
								<name>Levels Controls</name>
								<value>string</value>
							</parameter>
							<parameter>
								<parameterid>inw</parameterid>
								<name>White Level</name>
								<valuemin>0</valuemin>
								<valuemax>255</valuemax>
								<value>255</value>
							</parameter>
							<parameter>
								<parameterid>inb</parameterid>
								<name>Black Level</name>
								<valuemin>0</valuemin>
								<valuemax>255</valuemax>
								<value>0</value>
							</parameter>
							<parameter>
								<parameterid>outw</parameterid>
								<name>White Output</name>
								<valuemin>0</valuemin>
								<valuemax>255</valuemax>
								<value>255</value>
							</parameter>
							<parameter>
								<parameterid>outb</parameterid>
								<name>Black Output</name>
								<valuemin>0</valuemin>
								<valuemax>255</valuemax>
								<value>0</value>
							</parameter>
							<parameter>
								<parameterid>cvar</parameterid>
								<name>Curves Controls</name>
								<value>string</value>
							</parameter>
							<parameter>
								<parameterid>curvew</parameterid>
								<name>White Curve</name>
								<valuemin>-100</valuemin>
								<valuemax>100</valuemax>
								<value>20</value>
							</parameter>
							<parameter>
								<parameterid>curveb</parameterid>
								<name>Black Curve</name>
								<valuemin>-100</valuemin>
								<valuemax>100</valuemax>
								<value>0</value>
							</parameter>
							<parameter>
								<parameterid>clipoutput</parameterid>
								<name>Clip Output Levels</name>
								<value>TRUE</value>
							</parameter>
							<parameter>
								<parameterid>copyright</parameterid>
								<name>© www.nattress.com</name>
								<value>string</value>
							</parameter>
						</effect>
					</filter>
					<sourcetrack>
						<mediatype>video</mediatype>
					</sourcetrack>
					<link>
						<linkclipref>DYR18094_01 </linkclipref>
						<mediatype>video</mediatype>
						<trackindex>1</trackindex>
						<clipindex>56</clipindex>
					</link>
					<link>
						<linkclipref>DYR18094_01 3</linkclipref>
						<mediatype>audio</mediatype>
						<trackindex>1</trackindex>
						<clipindex>52</clipindex>
					</link>
					<link>
						<linkclipref>DYR18094_01 4</linkclipref>
						<mediatype>audio</mediatype>
						<trackindex>2</trackindex>
						<clipindex>52</clipindex>
					</link>
					<fielddominance>upper</fielddominance>
					<itemhistory>
						<uuid>C73B7201-DC63-4E68-BE1D-C48B7CD694CD</uuid>
					</itemhistory>
				</clipitem>
				<clipitem id="DYR18095_01 ">
					<name>DYR18095_01</name>
					<duration>5990</duration>
					<rate>
						<ntsc>FALSE</ntsc>
						<timebase>25</timebase>
					</rate>
					<in>707</in>
					<out>786</out>
					<start>6302</start>
					<end>6381</end>
					<pixelaspectratio>Square</pixelaspectratio>
					<enabled>TRUE</enabled>
					<anamorphic>FALSE</anamorphic>
					<alphatype>none</alphatype>
					<masterclipid>DYR18095_01 1</masterclipid>
					<logginginfo>
						<scene/>
						<shottake/>
						<lognote/>
						<good>FALSE</good>
					</logginginfo>
					<labels>
						<label2/>
					</labels>
					<comments>
						<mastercomment1/>
						<mastercomment2/>
						<mastercomment3/>
						<mastercomment4/>
					</comments>
					<file id="DYR18095_01 2">
						<name>DYR18095_01.mov</name>
						<pathurl>file://localhost/Volumes/Askepott/Prosjekter/DNPR637010_Kra%CC%8Akeklubben_TEM_011212/Video/SKOGBARNA/Trollskog/DYR18095_01.mov</pathurl>
						<rate>
							<timebase>25</timebase>
						</rate>
						<duration>5990</duration>
						<metadata>
							<storage>QuickTime</storage>
							<key>com.sony.bprl.xdcamtransfer.version</key>
							<size>10</size>
							<type>UTF8</type>
							<value>2.12.0.631</value>
						</metadata>
						<metadata>
							<storage>QuickTime</storage>
							<key>org.smpte.mxf.package.material.packageid</key>
							<size>66</size>
							<type>UTF8</type>
							<value>0x060a2b340101010501010d4313000000a598ef87395405c408004602022f05f5</value>
						</metadata>
						<metadata>
							<storage>QuickTime</storage>
							<key>com.sony.professionaldisc.nonrealtimemeta.lastupdate</key>
							<size>25</size>
							<type>UTF8</type>
							<value>2010-08-31 13:48:39 +0100</value>
						</metadata>
						<metadata>
							<storage>QuickTime</storage>
							<key>com.sony.bprl.mxf.umid</key>
							<size>64</size>
							<type>UTF8</type>
							<value>060a2b340101010501010d4313000000a598ef87395405c408004602022f05f5</value>
						</metadata>
						<metadata>
							<storage>QuickTime</storage>
							<key>com.sony.bprl.mxf.nrtmetadata</key>
							<size>1994</size>
							<type>UTF8</type>
							<value>&lt;?xml version="1.0" encoding="UTF-8"?>&lt;NonRealTimeMeta xmlns="urn:schemas-professionalDisc:nonRealTimeMeta:ver.1.20" xmlns:lib="urn:schemas-professionalDisc:lib:ver.1.20" xmlns:xsi="http://www.w3.org/2001/XMLSchema-instance" lastUpdate="2010-08-31T13:48:39+01:00">&lt;TargetMaterial umidRef="060A2B340101010501010D4313000000A598EF87395405C408004602022F05F5">&lt;/TargetMaterial>&lt;Duration value="5990">&lt;/Duration>&lt;LtcChangeTable tcFps="25" halfStep="false">&lt;LtcChange frameCount="0" value="08532906" status="increment">&lt;/LtcChange>&lt;LtcChange frameCount="5989" value="22523306" status="end">&lt;/LtcChange>&lt;/LtcChangeTable>&lt;CreationDate value="2010-08-31T13:44:38+01:00">&lt;/CreationDate>&lt;TypicalUbit value="0000000017061020">&lt;/TypicalUbit>&lt;BodyUmidBasicChangeTable>&lt;BodyUmidBasicChange frameCount="0" value="060A2B340101010501010D4333000000A598EF87395405C408004602022F05F5" status="start">&lt;/BodyUmidBasicChange>&lt;/BodyUmidBasicChangeTable>&lt;BodyUmidWhenChangeTable>&lt;BodyUmidWhenChange frameCount="0" value="C4166004395405A5" status="increment">&lt;/BodyUmidWhenChange>&lt;BodyUmidWhenChange frameCount="5989" value="04F06504395405A5" status="end">&lt;/BodyUmidWhenChange>&lt;/BodyUmidWhenChangeTable>&lt;KlvPacketTable>&lt;KlvPacket key="060E2B34010101050301020A02000000" frameCount="0" lengthValue="095F5265635374617274" status="spot">&lt;/KlvPacket>&lt;/KlvPacketTable>&lt;VideoFormat>&lt;VideoRecPort port="DIRECT">&lt;/VideoRecPort>&lt;VideoFrame videoCodec="MPEG2HD35_1920_1080_MP@HL" captureFps="50.00i" recFps="50.00" formatFps="50i">&lt;/VideoFrame>&lt;VideoLayout pixel="1920" numOfVerticalLine="1080" aspectRatio="16:9">&lt;/VideoLayout>&lt;/VideoFormat>&lt;AudioFormat numOfChannel="2">&lt;AudioRecPort port="ANALOG" audioCodec="LPCM16" trackDst="CH1">&lt;/AudioRecPort>&lt;AudioRecPort port="ANALOG" audioCodec="LPCM16" trackDst="CH2">&lt;/AudioRecPort>&lt;/AudioFormat>&lt;Device manufacturer="Sony" modelName="PMW-EX3" serialNo="0401525">&lt;/Device>&lt;Lens modelName="VCL-614B2X">&lt;/Lens>&lt;RecordingMode type="normal" cacheRec="false">&lt;/RecordingMode>&lt;/NonRealTimeMeta>
							</value>
						</metadata>
						<metadata>
							<storage>QuickTime</storage>
							<key>com.apple.proapps.reel</key>
							<size>8</size>
							<type>UTF8</type>
							<value>Untitled</value>
						</metadata>
						<metadata>
							<storage>QuickTime</storage>
							<key>com.apple.proapps.clipID</key>
							<size>64</size>
							<type>UTF8</type>
							<value>060A2B340101010501010D4313000000A598EF87395405C408004602022F05F5</value>
						</metadata>
						<metadata>
							<storage>QuickTime</storage>
							<key>com.apple.quicktime.information</key>
							<size>64</size>
							<type>UTF8</type>
							<value>060a2b340101010501010d4313000000a598ef87395405c408004602022f05f5</value>
						</metadata>
						<metadata>
							<storage>QuickTime</storage>
							<key>com.apple.proapps.originalFormat</key>
							<size>36</size>
							<type>UTF8</type>
							<value>Apple XDCAM EX 1080i50 (35 Mb/s VBR)</value>
						</metadata>
						<timecode>
							<rate>
								<timebase>25</timebase>
							</rate>
							<string>06:29:53:08</string>
							<frame>584833</frame>
							<displayformat>NDF</displayformat>
							<source>source</source>
							<reel>
								<name>Untitled</name>
							</reel>
						</timecode>
						<media>
							<video>
								<duration>5990</duration>
								<samplecharacteristics>
									<width>1920</width>
									<height>1080</height>
								</samplecharacteristics>
							</video>
							<audio>
								<samplecharacteristics>
									<samplerate>48000</samplerate>
									<depth>16</depth>
								</samplecharacteristics>
								<channelcount>1</channelcount>
								<layout>mono</layout>
								<audiochannel>
									<sourcechannel>1</sourcechannel>
									<channellabel>discrete</channellabel>
								</audiochannel>
							</audio>
							<audio>
								<samplecharacteristics>
									<samplerate>48000</samplerate>
									<depth>16</depth>
								</samplecharacteristics>
								<channelcount>1</channelcount>
								<layout>mono</layout>
								<audiochannel>
									<sourcechannel>2</sourcechannel>
									<channellabel>discrete</channellabel>
								</audiochannel>
							</audio>
						</media>
					</file>
					<sourcetrack>
						<mediatype>video</mediatype>
					</sourcetrack>
					<link>
						<linkclipref>DYR18095_01 </linkclipref>
						<mediatype>video</mediatype>
						<trackindex>1</trackindex>
						<clipindex>57</clipindex>
					</link>
					<link>
						<linkclipref>DYR18095_01 3</linkclipref>
						<mediatype>audio</mediatype>
						<trackindex>1</trackindex>
						<clipindex>53</clipindex>
					</link>
					<link>
						<linkclipref>DYR18095_01 4</linkclipref>
						<mediatype>audio</mediatype>
						<trackindex>2</trackindex>
						<clipindex>53</clipindex>
					</link>
					<fielddominance>upper</fielddominance>
					<itemhistory>
						<uuid>0C93749E-FDD3-4DDA-BC8C-2709086F6D81</uuid>
						<uuid>59B49358-3107-4123-82D9-D7B08DA591C9</uuid>
					</itemhistory>
				</clipitem>
				<clipitem id="DYR18097_01 ">
					<name>DYR18097_01</name>
					<duration>787</duration>
					<rate>
						<ntsc>FALSE</ntsc>
						<timebase>25</timebase>
					</rate>
					<in>277</in>
					<out>358</out>
					<start>6381</start>
					<end>6462</end>
					<pixelaspectratio>Square</pixelaspectratio>
					<enabled>TRUE</enabled>
					<anamorphic>FALSE</anamorphic>
					<alphatype>none</alphatype>
					<masterclipid>DYR18097_01 1</masterclipid>
					<logginginfo>
						<scene/>
						<shottake/>
						<lognote/>
						<good>FALSE</good>
					</logginginfo>
					<labels>
						<label2/>
					</labels>
					<comments>
						<mastercomment1/>
						<mastercomment2/>
						<mastercomment3/>
						<mastercomment4/>
					</comments>
					<file id="DYR18097_01 2">
						<name>DYR18097_01.mov</name>
						<pathurl>file://localhost/Volumes/Askepott/Prosjekter/DNPR637010_Kra%CC%8Akeklubben_TEM_011212/Video/SKOGBARNA/Trollskog/DYR18097_01.mov</pathurl>
						<rate>
							<timebase>25</timebase>
						</rate>
						<duration>787</duration>
						<metadata>
							<storage>QuickTime</storage>
							<key>com.sony.bprl.xdcamtransfer.version</key>
							<size>10</size>
							<type>UTF8</type>
							<value>2.12.0.631</value>
						</metadata>
						<metadata>
							<storage>QuickTime</storage>
							<key>org.smpte.mxf.package.material.packageid</key>
							<size>66</size>
							<type>UTF8</type>
							<value>0x060a2b340101010501010d431300000067a5d488395405cd08004602022f05f5</value>
						</metadata>
						<metadata>
							<storage>QuickTime</storage>
							<key>com.sony.professionaldisc.nonrealtimemeta.lastupdate</key>
							<size>25</size>
							<type>UTF8</type>
							<value>2010-08-31 13:50:12 +0100</value>
						</metadata>
						<metadata>
							<storage>QuickTime</storage>
							<key>com.sony.bprl.mxf.umid</key>
							<size>64</size>
							<type>UTF8</type>
							<value>060a2b340101010501010d431300000067a5d488395405cd08004602022f05f5</value>
						</metadata>
						<metadata>
							<storage>QuickTime</storage>
							<key>com.sony.bprl.mxf.nrtmetadata</key>
							<size>1991</size>
							<type>UTF8</type>
							<value>&lt;?xml version="1.0" encoding="UTF-8"?>&lt;NonRealTimeMeta xmlns="urn:schemas-professionalDisc:nonRealTimeMeta:ver.1.20" xmlns:lib="urn:schemas-professionalDisc:lib:ver.1.20" xmlns:xsi="http://www.w3.org/2001/XMLSchema-instance" lastUpdate="2010-08-31T13:50:12+01:00">&lt;TargetMaterial umidRef="060A2B340101010501010D431300000067A5D488395405CD08004602022F05F5">&lt;/TargetMaterial>&lt;Duration value="787">&lt;/Duration>&lt;LtcChangeTable tcFps="25" halfStep="false">&lt;LtcChange frameCount="0" value="07193406" status="increment">&lt;/LtcChange>&lt;LtcChange frameCount="786" value="18503406" status="end">&lt;/LtcChange>&lt;/LtcChangeTable>&lt;CreationDate value="2010-08-31T13:49:40+01:00">&lt;/CreationDate>&lt;TypicalUbit value="0000000017061020">&lt;/TypicalUbit>&lt;BodyUmidBasicChangeTable>&lt;BodyUmidBasicChange frameCount="0" value="060A2B340101010501010D433300000067A5D488395405CD08004602022F05F5" status="start">&lt;/BodyUmidBasicChange>&lt;/BodyUmidBasicChangeTable>&lt;BodyUmidWhenChangeTable>&lt;BodyUmidWhenChange frameCount="0" value="04766704395405A5" status="increment">&lt;/BodyUmidWhenChange>&lt;BodyUmidWhenChange frameCount="786" value="843A6804395405A5" status="end">&lt;/BodyUmidWhenChange>&lt;/BodyUmidWhenChangeTable>&lt;KlvPacketTable>&lt;KlvPacket key="060E2B34010101050301020A02000000" frameCount="0" lengthValue="095F5265635374617274" status="spot">&lt;/KlvPacket>&lt;/KlvPacketTable>&lt;VideoFormat>&lt;VideoRecPort port="DIRECT">&lt;/VideoRecPort>&lt;VideoFrame videoCodec="MPEG2HD35_1920_1080_MP@HL" captureFps="50.00i" recFps="50.00" formatFps="50i">&lt;/VideoFrame>&lt;VideoLayout pixel="1920" numOfVerticalLine="1080" aspectRatio="16:9">&lt;/VideoLayout>&lt;/VideoFormat>&lt;AudioFormat numOfChannel="2">&lt;AudioRecPort port="ANALOG" audioCodec="LPCM16" trackDst="CH1">&lt;/AudioRecPort>&lt;AudioRecPort port="ANALOG" audioCodec="LPCM16" trackDst="CH2">&lt;/AudioRecPort>&lt;/AudioFormat>&lt;Device manufacturer="Sony" modelName="PMW-EX3" serialNo="0401525">&lt;/Device>&lt;Lens modelName="VCL-614B2X">&lt;/Lens>&lt;RecordingMode type="normal" cacheRec="false">&lt;/RecordingMode>&lt;/NonRealTimeMeta>
							</value>
						</metadata>
						<metadata>
							<storage>QuickTime</storage>
							<key>com.apple.proapps.reel</key>
							<size>8</size>
							<type>UTF8</type>
							<value>Untitled</value>
						</metadata>
						<metadata>
							<storage>QuickTime</storage>
							<key>com.apple.proapps.clipID</key>
							<size>64</size>
							<type>UTF8</type>
							<value>060A2B340101010501010D431300000067A5D488395405CD08004602022F05F5</value>
						</metadata>
						<metadata>
							<storage>QuickTime</storage>
							<key>com.apple.quicktime.information</key>
							<size>64</size>
							<type>UTF8</type>
							<value>060a2b340101010501010d431300000067a5d488395405cd08004602022f05f5</value>
						</metadata>
						<metadata>
							<storage>QuickTime</storage>
							<key>com.apple.proapps.originalFormat</key>
							<size>36</size>
							<type>UTF8</type>
							<value>Apple XDCAM EX 1080i50 (35 Mb/s VBR)</value>
						</metadata>
						<timecode>
							<rate>
								<timebase>25</timebase>
							</rate>
							<string>06:34:19:07</string>
							<frame>591482</frame>
							<displayformat>NDF</displayformat>
							<source>source</source>
							<reel>
								<name>Untitled</name>
							</reel>
						</timecode>
						<media>
							<video>
								<duration>787</duration>
								<samplecharacteristics>
									<width>1920</width>
									<height>1080</height>
								</samplecharacteristics>
							</video>
							<audio>
								<samplecharacteristics>
									<samplerate>48000</samplerate>
									<depth>16</depth>
								</samplecharacteristics>
								<channelcount>1</channelcount>
								<layout>mono</layout>
								<audiochannel>
									<sourcechannel>1</sourcechannel>
									<channellabel>discrete</channellabel>
								</audiochannel>
							</audio>
							<audio>
								<samplecharacteristics>
									<samplerate>48000</samplerate>
									<depth>16</depth>
								</samplecharacteristics>
								<channelcount>1</channelcount>
								<layout>mono</layout>
								<audiochannel>
									<sourcechannel>2</sourcechannel>
									<channellabel>discrete</channellabel>
								</audiochannel>
							</audio>
						</media>
					</file>
					<sourcetrack>
						<mediatype>video</mediatype>
					</sourcetrack>
					<link>
						<linkclipref>DYR18097_01 </linkclipref>
						<mediatype>video</mediatype>
						<trackindex>1</trackindex>
						<clipindex>58</clipindex>
					</link>
					<link>
						<linkclipref>DYR18097_01 3</linkclipref>
						<mediatype>audio</mediatype>
						<trackindex>1</trackindex>
						<clipindex>54</clipindex>
					</link>
					<link>
						<linkclipref>DYR18097_01 4</linkclipref>
						<mediatype>audio</mediatype>
						<trackindex>2</trackindex>
						<clipindex>54</clipindex>
					</link>
					<fielddominance>upper</fielddominance>
					<itemhistory>
						<uuid>A08B0D5F-A524-46C7-BBB7-E31DDA6CDFD4</uuid>
					</itemhistory>
				</clipitem>
				<clipitem id="DYR18095_01 5">
					<name>DYR18095_01</name>
					<duration>5990</duration>
					<rate>
						<ntsc>FALSE</ntsc>
						<timebase>25</timebase>
					</rate>
					<in>786</in>
					<out>899</out>
					<start>6462</start>
					<end>6575</end>
					<pixelaspectratio>Square</pixelaspectratio>
					<enabled>TRUE</enabled>
					<anamorphic>FALSE</anamorphic>
					<alphatype>none</alphatype>
					<masterclipid>DYR18095_01 1</masterclipid>
					<logginginfo>
						<scene/>
						<shottake/>
						<lognote/>
						<good>FALSE</good>
					</logginginfo>
					<labels>
						<label2/>
					</labels>
					<comments>
						<mastercomment1/>
						<mastercomment2/>
						<mastercomment3/>
						<mastercomment4/>
					</comments>
					<file id="DYR18095_01 2"/>
					<sourcetrack>
						<mediatype>video</mediatype>
					</sourcetrack>
					<link>
						<linkclipref>DYR18095_01 5</linkclipref>
						<mediatype>video</mediatype>
						<trackindex>1</trackindex>
						<clipindex>59</clipindex>
					</link>
					<link>
						<linkclipref>DYR18095_01 6</linkclipref>
						<mediatype>audio</mediatype>
						<trackindex>1</trackindex>
						<clipindex>55</clipindex>
					</link>
					<link>
						<linkclipref>DYR18095_01 7</linkclipref>
						<mediatype>audio</mediatype>
						<trackindex>2</trackindex>
						<clipindex>55</clipindex>
					</link>
					<fielddominance>upper</fielddominance>
					<itemhistory>
						<uuid>3A25F26D-9BC4-464A-BB9B-FE60EE866122</uuid>
						<uuid>59B49358-3107-4123-82D9-D7B08DA591C9</uuid>
					</itemhistory>
				</clipitem>
				<clipitem id="DYR18095_01 8">
					<name>DYR18095_01</name>
					<duration>5990</duration>
					<rate>
						<ntsc>FALSE</ntsc>
						<timebase>25</timebase>
					</rate>
					<in>980</in>
					<out>1051</out>
					<start>6575</start>
					<end>6646</end>
					<pixelaspectratio>Square</pixelaspectratio>
					<enabled>TRUE</enabled>
					<anamorphic>FALSE</anamorphic>
					<alphatype>none</alphatype>
					<masterclipid>DYR18095_01 1</masterclipid>
					<logginginfo>
						<scene/>
						<shottake/>
						<lognote/>
						<good>FALSE</good>
					</logginginfo>
					<labels>
						<label2/>
					</labels>
					<comments>
						<mastercomment1/>
						<mastercomment2/>
						<mastercomment3/>
						<mastercomment4/>
					</comments>
					<file id="DYR18095_01 2"/>
					<sourcetrack>
						<mediatype>video</mediatype>
					</sourcetrack>
					<link>
						<linkclipref>DYR18095_01 8</linkclipref>
						<mediatype>video</mediatype>
						<trackindex>1</trackindex>
						<clipindex>60</clipindex>
					</link>
					<link>
						<linkclipref>DYR18095_01 9</linkclipref>
						<mediatype>audio</mediatype>
						<trackindex>1</trackindex>
						<clipindex>56</clipindex>
					</link>
					<link>
						<linkclipref>DYR18095_01 10</linkclipref>
						<mediatype>audio</mediatype>
						<trackindex>2</trackindex>
						<clipindex>56</clipindex>
					</link>
					<fielddominance>upper</fielddominance>
					<itemhistory>
						<uuid>62587F8E-B7D0-4F8B-B1D0-F52BEB4F9AF7</uuid>
					</itemhistory>
				</clipitem>
				<clipitem id="DYR18095_01 11">
					<name>DYR18095_01</name>
					<duration>5990</duration>
					<rate>
						<ntsc>FALSE</ntsc>
						<timebase>25</timebase>
					</rate>
					<in>1697</in>
					<out>1888</out>
					<start>6646</start>
					<end>6837</end>
					<pixelaspectratio>Square</pixelaspectratio>
					<enabled>TRUE</enabled>
					<anamorphic>FALSE</anamorphic>
					<alphatype>none</alphatype>
					<masterclipid>DYR18095_01 1</masterclipid>
					<logginginfo>
						<scene/>
						<shottake/>
						<lognote/>
						<good>FALSE</good>
					</logginginfo>
					<labels>
						<label2/>
					</labels>
					<comments>
						<mastercomment1/>
						<mastercomment2/>
						<mastercomment3/>
						<mastercomment4/>
					</comments>
					<file id="DYR18095_01 2"/>
					<sourcetrack>
						<mediatype>video</mediatype>
					</sourcetrack>
					<link>
						<linkclipref>DYR18095_01 11</linkclipref>
						<mediatype>video</mediatype>
						<trackindex>1</trackindex>
						<clipindex>61</clipindex>
					</link>
					<link>
						<linkclipref>DYR18095_01 12</linkclipref>
						<mediatype>audio</mediatype>
						<trackindex>1</trackindex>
						<clipindex>57</clipindex>
					</link>
					<link>
						<linkclipref>DYR18095_01 13</linkclipref>
						<mediatype>audio</mediatype>
						<trackindex>2</trackindex>
						<clipindex>57</clipindex>
					</link>
					<fielddominance>upper</fielddominance>
					<itemhistory>
						<uuid>B7416AD9-F72D-4164-99CA-4F3A4C27B0DA</uuid>
					</itemhistory>
				</clipitem>
				<clipitem id="DYR18095_01 14">
					<name>DYR18095_01</name>
					<duration>5990</duration>
					<rate>
						<ntsc>FALSE</ntsc>
						<timebase>25</timebase>
					</rate>
					<in>4014</in>
					<out>4077</out>
					<start>6837</start>
					<end>6900</end>
					<pixelaspectratio>Square</pixelaspectratio>
					<anamorphic>FALSE</anamorphic>
					<alphatype>none</alphatype>
					<masterclipid>DYR18095_01 1</masterclipid>
					<logginginfo>
						<scene/>
						<shottake/>
						<lognote/>
						<good>FALSE</good>
					</logginginfo>
					<labels>
						<label2/>
					</labels>
					<comments>
						<mastercomment1/>
						<mastercomment2/>
						<mastercomment3/>
						<mastercomment4/>
					</comments>
					<file id="DYR18095_01 2"/>
					<sourcetrack>
						<mediatype>video</mediatype>
					</sourcetrack>
					<link>
						<linkclipref>DYR18095_01 14</linkclipref>
						<mediatype>video</mediatype>
						<trackindex>1</trackindex>
						<clipindex>62</clipindex>
					</link>
					<link>
						<linkclipref>DYR18095_01 15</linkclipref>
						<mediatype>audio</mediatype>
						<trackindex>1</trackindex>
						<clipindex>58</clipindex>
					</link>
					<link>
						<linkclipref>DYR18095_01 16</linkclipref>
						<mediatype>audio</mediatype>
						<trackindex>2</trackindex>
						<clipindex>58</clipindex>
					</link>
					<fielddominance>upper</fielddominance>
					<itemhistory>
						<uuid>E46A3851-1F04-449B-BAD8-989FC61AF67C</uuid>
					</itemhistory>
				</clipitem>
				<clipitem id="DYR18096_01 ">
					<name>DYR18096_01</name>
					<duration>659</duration>
					<rate>
						<ntsc>FALSE</ntsc>
						<timebase>25</timebase>
					</rate>
					<in>416</in>
					<out>466</out>
					<start>6900</start>
					<end>6950</end>
					<pixelaspectratio>Square</pixelaspectratio>
					<enabled>TRUE</enabled>
					<anamorphic>FALSE</anamorphic>
					<alphatype>none</alphatype>
					<masterclipid>DYR18096_01 1</masterclipid>
					<logginginfo>
						<scene/>
						<shottake/>
						<lognote/>
						<good>FALSE</good>
					</logginginfo>
					<labels>
						<label2/>
					</labels>
					<comments>
						<mastercomment1/>
						<mastercomment2/>
						<mastercomment3/>
						<mastercomment4/>
					</comments>
					<file id="DYR18096_01 2">
						<name>DYR18096_01.mov</name>
						<pathurl>file://localhost/Volumes/Askepott/Prosjekter/DNPR637010_Kra%CC%8Akeklubben_TEM_011212/Video/SKOGBARNA/Trollskog/DYR18096_01.mov</pathurl>
						<rate>
							<timebase>25</timebase>
						</rate>
						<duration>659</duration>
						<metadata>
							<storage>QuickTime</storage>
							<key>com.sony.bprl.xdcamtransfer.version</key>
							<size>10</size>
							<type>UTF8</type>
							<value>2.12.0.631</value>
						</metadata>
						<metadata>
							<storage>QuickTime</storage>
							<key>org.smpte.mxf.package.material.packageid</key>
							<size>66</size>
							<type>UTF8</type>
							<value>0x060a2b340101010501010d43130000008b19ab88395405d208004602022f05f5</value>
						</metadata>
						<metadata>
							<storage>QuickTime</storage>
							<key>com.sony.professionaldisc.nonrealtimemeta.lastupdate</key>
							<size>25</size>
							<type>UTF8</type>
							<value>2010-08-31 13:49:13 +0100</value>
						</metadata>
						<metadata>
							<storage>QuickTime</storage>
							<key>com.sony.bprl.mxf.umid</key>
							<size>64</size>
							<type>UTF8</type>
							<value>060a2b340101010501010d43130000008b19ab88395405d208004602022f05f5</value>
						</metadata>
						<metadata>
							<storage>QuickTime</storage>
							<key>com.sony.bprl.mxf.nrtmetadata</key>
							<size>1991</size>
							<type>UTF8</type>
							<value>&lt;?xml version="1.0" encoding="UTF-8"?>&lt;NonRealTimeMeta xmlns="urn:schemas-professionalDisc:nonRealTimeMeta:ver.1.20" xmlns:lib="urn:schemas-professionalDisc:lib:ver.1.20" xmlns:xsi="http://www.w3.org/2001/XMLSchema-instance" lastUpdate="2010-08-31T13:49:13+01:00">&lt;TargetMaterial umidRef="060A2B340101010501010D43130000008B19AB88395405D208004602022F05F5">&lt;/TargetMaterial>&lt;Duration value="659">&lt;/Duration>&lt;LtcChangeTable tcFps="25" halfStep="false">&lt;LtcChange frameCount="0" value="23523306" status="increment">&lt;/LtcChange>&lt;LtcChange frameCount="658" value="06193406" status="end">&lt;/LtcChange>&lt;/LtcChangeTable>&lt;CreationDate value="2010-08-31T13:48:45+01:00">&lt;/CreationDate>&lt;TypicalUbit value="0000000017061020">&lt;/TypicalUbit>&lt;BodyUmidBasicChangeTable>&lt;BodyUmidBasicChange frameCount="0" value="060A2B340101010501010D43330000008B19AB88395405D208004602022F05F5" status="start">&lt;/BodyUmidBasicChange>&lt;/BodyUmidBasicChangeTable>&lt;BodyUmidWhenChangeTable>&lt;BodyUmidWhenChange frameCount="0" value="C41F6604395405A5" status="increment">&lt;/BodyUmidWhenChange>&lt;BodyUmidWhenChange frameCount="658" value="44C46604395405A5" status="end">&lt;/BodyUmidWhenChange>&lt;/BodyUmidWhenChangeTable>&lt;KlvPacketTable>&lt;KlvPacket key="060E2B34010101050301020A02000000" frameCount="0" lengthValue="095F5265635374617274" status="spot">&lt;/KlvPacket>&lt;/KlvPacketTable>&lt;VideoFormat>&lt;VideoRecPort port="DIRECT">&lt;/VideoRecPort>&lt;VideoFrame videoCodec="MPEG2HD35_1920_1080_MP@HL" captureFps="50.00i" recFps="50.00" formatFps="50i">&lt;/VideoFrame>&lt;VideoLayout pixel="1920" numOfVerticalLine="1080" aspectRatio="16:9">&lt;/VideoLayout>&lt;/VideoFormat>&lt;AudioFormat numOfChannel="2">&lt;AudioRecPort port="ANALOG" audioCodec="LPCM16" trackDst="CH1">&lt;/AudioRecPort>&lt;AudioRecPort port="ANALOG" audioCodec="LPCM16" trackDst="CH2">&lt;/AudioRecPort>&lt;/AudioFormat>&lt;Device manufacturer="Sony" modelName="PMW-EX3" serialNo="0401525">&lt;/Device>&lt;Lens modelName="VCL-614B2X">&lt;/Lens>&lt;RecordingMode type="normal" cacheRec="false">&lt;/RecordingMode>&lt;/NonRealTimeMeta>
							</value>
						</metadata>
						<metadata>
							<storage>QuickTime</storage>
							<key>com.apple.proapps.reel</key>
							<size>8</size>
							<type>UTF8</type>
							<value>Untitled</value>
						</metadata>
						<metadata>
							<storage>QuickTime</storage>
							<key>com.apple.proapps.clipID</key>
							<size>64</size>
							<type>UTF8</type>
							<value>060A2B340101010501010D43130000008B19AB88395405D208004602022F05F5</value>
						</metadata>
						<metadata>
							<storage>QuickTime</storage>
							<key>com.apple.quicktime.information</key>
							<size>64</size>
							<type>UTF8</type>
							<value>060a2b340101010501010d43130000008b19ab88395405d208004602022f05f5</value>
						</metadata>
						<metadata>
							<storage>QuickTime</storage>
							<key>com.apple.proapps.originalFormat</key>
							<size>36</size>
							<type>UTF8</type>
							<value>Apple XDCAM EX 1080i50 (35 Mb/s VBR)</value>
						</metadata>
						<timecode>
							<rate>
								<timebase>25</timebase>
							</rate>
							<string>06:33:52:23</string>
							<frame>590823</frame>
							<displayformat>NDF</displayformat>
							<source>source</source>
							<reel>
								<name>Untitled</name>
							</reel>
						</timecode>
						<media>
							<video>
								<duration>659</duration>
								<samplecharacteristics>
									<width>1920</width>
									<height>1080</height>
								</samplecharacteristics>
							</video>
							<audio>
								<samplecharacteristics>
									<samplerate>48000</samplerate>
									<depth>16</depth>
								</samplecharacteristics>
								<channelcount>1</channelcount>
								<layout>mono</layout>
								<audiochannel>
									<sourcechannel>1</sourcechannel>
									<channellabel>discrete</channellabel>
								</audiochannel>
							</audio>
							<audio>
								<samplecharacteristics>
									<samplerate>48000</samplerate>
									<depth>16</depth>
								</samplecharacteristics>
								<channelcount>1</channelcount>
								<layout>mono</layout>
								<audiochannel>
									<sourcechannel>2</sourcechannel>
									<channellabel>discrete</channellabel>
								</audiochannel>
							</audio>
						</media>
					</file>
					<sourcetrack>
						<mediatype>video</mediatype>
					</sourcetrack>
					<link>
						<linkclipref>DYR18096_01 </linkclipref>
						<mediatype>video</mediatype>
						<trackindex>1</trackindex>
						<clipindex>63</clipindex>
					</link>
					<link>
						<linkclipref>DYR18096_01 3</linkclipref>
						<mediatype>audio</mediatype>
						<trackindex>1</trackindex>
						<clipindex>59</clipindex>
					</link>
					<link>
						<linkclipref>DYR18096_01 4</linkclipref>
						<mediatype>audio</mediatype>
						<trackindex>2</trackindex>
						<clipindex>59</clipindex>
					</link>
					<fielddominance>upper</fielddominance>
					<itemhistory>
						<uuid>D94071A3-2FD5-48DD-B8B3-A514E8802D91</uuid>
					</itemhistory>
				</clipitem>
				<clipitem id="DYR18097_01 5">
					<name>DYR18097_01</name>
					<duration>787</duration>
					<rate>
						<ntsc>FALSE</ntsc>
						<timebase>25</timebase>
					</rate>
					<in>263</in>
					<out>340</out>
					<start>6950</start>
					<end>7027</end>
					<pixelaspectratio>Square</pixelaspectratio>
					<enabled>TRUE</enabled>
					<anamorphic>FALSE</anamorphic>
					<alphatype>none</alphatype>
					<masterclipid>DYR18097_01 1</masterclipid>
					<logginginfo>
						<scene/>
						<shottake/>
						<lognote/>
						<good>FALSE</good>
					</logginginfo>
					<labels>
						<label2/>
					</labels>
					<comments>
						<mastercomment1/>
						<mastercomment2/>
						<mastercomment3/>
						<mastercomment4/>
					</comments>
					<file id="DYR18097_01 2"/>
					<sourcetrack>
						<mediatype>video</mediatype>
					</sourcetrack>
					<link>
						<linkclipref>DYR18097_01 5</linkclipref>
						<mediatype>video</mediatype>
						<trackindex>1</trackindex>
						<clipindex>64</clipindex>
					</link>
					<link>
						<linkclipref>DYR18097_01 6</linkclipref>
						<mediatype>audio</mediatype>
						<trackindex>1</trackindex>
						<clipindex>60</clipindex>
					</link>
					<link>
						<linkclipref>DYR18097_01 7</linkclipref>
						<mediatype>audio</mediatype>
						<trackindex>2</trackindex>
						<clipindex>60</clipindex>
					</link>
					<fielddominance>upper</fielddominance>
					<itemhistory>
						<uuid>6FA8142D-277A-4C86-8C4C-FF6B6FFF5A99</uuid>
					</itemhistory>
				</clipitem>
				<clipitem id="DYR18098_01 ">
					<name>DYR18098_01</name>
					<duration>3421</duration>
					<rate>
						<ntsc>FALSE</ntsc>
						<timebase>25</timebase>
					</rate>
					<in>1319</in>
					<out>1413</out>
					<start>7027</start>
					<end>7121</end>
					<pixelaspectratio>Square</pixelaspectratio>
					<anamorphic>FALSE</anamorphic>
					<alphatype>none</alphatype>
					<masterclipid>DYR18098_01 1</masterclipid>
					<logginginfo>
						<scene/>
						<shottake/>
						<lognote/>
						<good>FALSE</good>
					</logginginfo>
					<labels>
						<label2/>
					</labels>
					<comments>
						<mastercomment1/>
						<mastercomment2/>
						<mastercomment3/>
						<mastercomment4/>
					</comments>
					<file id="DYR18098_01 2">
						<name>DYR18098_01.mov</name>
						<pathurl>file://localhost/Volumes/Askepott/Prosjekter/DNPR637010_Kra%CC%8Akeklubben_TEM_011212/Video/SKOGBARNA/Trollskog/DYR18098_01.mov</pathurl>
						<rate>
							<timebase>25</timebase>
						</rate>
						<duration>3421</duration>
						<metadata>
							<storage>QuickTime</storage>
							<key>com.sony.bprl.xdcamtransfer.version</key>
							<size>10</size>
							<type>UTF8</type>
							<value>2.12.0.631</value>
						</metadata>
						<metadata>
							<storage>QuickTime</storage>
							<key>org.smpte.mxf.package.material.packageid</key>
							<size>66</size>
							<type>UTF8</type>
							<value>0x060a2b340101010501010d4313000000925df888395405d308004602022f05f5</value>
						</metadata>
						<metadata>
							<storage>QuickTime</storage>
							<key>com.sony.professionaldisc.nonrealtimemeta.lastupdate</key>
							<size>25</size>
							<type>UTF8</type>
							<value>2010-08-31 13:52:45 +0100</value>
						</metadata>
						<metadata>
							<storage>QuickTime</storage>
							<key>com.sony.bprl.mxf.umid</key>
							<size>64</size>
							<type>UTF8</type>
							<value>060a2b340101010501010d4313000000925df888395405d308004602022f05f5</value>
						</metadata>
						<metadata>
							<storage>QuickTime</storage>
							<key>com.sony.bprl.mxf.nrtmetadata</key>
							<size>1994</size>
							<type>UTF8</type>
							<value>&lt;?xml version="1.0" encoding="UTF-8"?>&lt;NonRealTimeMeta xmlns="urn:schemas-professionalDisc:nonRealTimeMeta:ver.1.20" xmlns:lib="urn:schemas-professionalDisc:lib:ver.1.20" xmlns:xsi="http://www.w3.org/2001/XMLSchema-instance" lastUpdate="2010-08-31T13:52:45+01:00">&lt;TargetMaterial umidRef="060A2B340101010501010D4313000000925DF888395405D308004602022F05F5">&lt;/TargetMaterial>&lt;Duration value="3421">&lt;/Duration>&lt;LtcChangeTable tcFps="25" halfStep="false">&lt;LtcChange frameCount="0" value="19503406" status="increment">&lt;/LtcChange>&lt;LtcChange frameCount="3420" value="14073706" status="end">&lt;/LtcChange>&lt;/LtcChangeTable>&lt;CreationDate value="2010-08-31T13:50:27+01:00">&lt;/CreationDate>&lt;TypicalUbit value="0000000017061020">&lt;/TypicalUbit>&lt;BodyUmidBasicChangeTable>&lt;BodyUmidBasicChange frameCount="0" value="060A2B340101010501010D4333000000925DF888395405D308004602022F05F5" status="start">&lt;/BodyUmidBasicChange>&lt;/BodyUmidBasicChangeTable>&lt;BodyUmidWhenChangeTable>&lt;BodyUmidWhenChange frameCount="0" value="849C6804395405A5" status="increment">&lt;/BodyUmidWhenChange>&lt;BodyUmidWhenChange frameCount="3420" value="84F36B04395405A5" status="end">&lt;/BodyUmidWhenChange>&lt;/BodyUmidWhenChangeTable>&lt;KlvPacketTable>&lt;KlvPacket key="060E2B34010101050301020A02000000" frameCount="0" lengthValue="095F5265635374617274" status="spot">&lt;/KlvPacket>&lt;/KlvPacketTable>&lt;VideoFormat>&lt;VideoRecPort port="DIRECT">&lt;/VideoRecPort>&lt;VideoFrame videoCodec="MPEG2HD35_1920_1080_MP@HL" captureFps="50.00i" recFps="50.00" formatFps="50i">&lt;/VideoFrame>&lt;VideoLayout pixel="1920" numOfVerticalLine="1080" aspectRatio="16:9">&lt;/VideoLayout>&lt;/VideoFormat>&lt;AudioFormat numOfChannel="2">&lt;AudioRecPort port="ANALOG" audioCodec="LPCM16" trackDst="CH1">&lt;/AudioRecPort>&lt;AudioRecPort port="ANALOG" audioCodec="LPCM16" trackDst="CH2">&lt;/AudioRecPort>&lt;/AudioFormat>&lt;Device manufacturer="Sony" modelName="PMW-EX3" serialNo="0401525">&lt;/Device>&lt;Lens modelName="VCL-614B2X">&lt;/Lens>&lt;RecordingMode type="normal" cacheRec="false">&lt;/RecordingMode>&lt;/NonRealTimeMeta>
							</value>
						</metadata>
						<metadata>
							<storage>QuickTime</storage>
							<key>com.apple.proapps.reel</key>
							<size>8</size>
							<type>UTF8</type>
							<value>Untitled</value>
						</metadata>
						<metadata>
							<storage>QuickTime</storage>
							<key>com.apple.proapps.clipID</key>
							<size>64</size>
							<type>UTF8</type>
							<value>060A2B340101010501010D4313000000925DF888395405D308004602022F05F5</value>
						</metadata>
						<metadata>
							<storage>QuickTime</storage>
							<key>com.apple.quicktime.information</key>
							<size>64</size>
							<type>UTF8</type>
							<value>060a2b340101010501010d4313000000925df888395405d308004602022f05f5</value>
						</metadata>
						<metadata>
							<storage>QuickTime</storage>
							<key>com.apple.proapps.originalFormat</key>
							<size>36</size>
							<type>UTF8</type>
							<value>Apple XDCAM EX 1080i50 (35 Mb/s VBR)</value>
						</metadata>
						<timecode>
							<rate>
								<timebase>25</timebase>
							</rate>
							<string>06:34:50:19</string>
							<frame>592269</frame>
							<displayformat>NDF</displayformat>
							<source>source</source>
							<reel>
								<name>Untitled</name>
							</reel>
						</timecode>
						<media>
							<video>
								<duration>3421</duration>
								<samplecharacteristics>
									<width>1920</width>
									<height>1080</height>
								</samplecharacteristics>
							</video>
							<audio>
								<samplecharacteristics>
									<samplerate>48000</samplerate>
									<depth>16</depth>
								</samplecharacteristics>
								<channelcount>1</channelcount>
								<layout>mono</layout>
								<audiochannel>
									<sourcechannel>1</sourcechannel>
									<channellabel>discrete</channellabel>
								</audiochannel>
							</audio>
							<audio>
								<samplecharacteristics>
									<samplerate>48000</samplerate>
									<depth>16</depth>
								</samplecharacteristics>
								<channelcount>1</channelcount>
								<layout>mono</layout>
								<audiochannel>
									<sourcechannel>2</sourcechannel>
									<channellabel>discrete</channellabel>
								</audiochannel>
							</audio>
						</media>
					</file>
					<sourcetrack>
						<mediatype>video</mediatype>
					</sourcetrack>
					<link>
						<linkclipref>DYR18098_01 </linkclipref>
						<mediatype>video</mediatype>
						<trackindex>1</trackindex>
						<clipindex>65</clipindex>
					</link>
					<link>
						<linkclipref>DYR18098_01 3</linkclipref>
						<mediatype>audio</mediatype>
						<trackindex>1</trackindex>
						<clipindex>63</clipindex>
					</link>
					<link>
						<linkclipref>DYR18098_01 4</linkclipref>
						<mediatype>audio</mediatype>
						<trackindex>2</trackindex>
						<clipindex>63</clipindex>
					</link>
					<fielddominance>upper</fielddominance>
					<itemhistory>
						<uuid>C0C89C2F-DD8F-4AAD-894D-20F0E88270E6</uuid>
					</itemhistory>
				</clipitem>
				<clipitem id="DYR18099_01 ">
					<name>DYR18099_01</name>
					<duration>1893</duration>
					<rate>
						<ntsc>FALSE</ntsc>
						<timebase>25</timebase>
					</rate>
					<in>824</in>
					<out>938</out>
					<start>7149</start>
					<end>7263</end>
					<pixelaspectratio>Square</pixelaspectratio>
					<anamorphic>FALSE</anamorphic>
					<alphatype>none</alphatype>
					<masterclipid>DYR18099_01 1</masterclipid>
					<logginginfo>
						<scene/>
						<shottake/>
						<lognote/>
						<good>FALSE</good>
					</logginginfo>
					<labels>
						<label2/>
					</labels>
					<comments>
						<mastercomment1/>
						<mastercomment2/>
						<mastercomment3/>
						<mastercomment4/>
					</comments>
					<file id="DYR18099_01 2">
						<name>DYR18099_01.mov</name>
						<pathurl>file://localhost/Volumes/Askepott/Prosjekter/DNPR637010_Kra%CC%8Akeklubben_TEM_011212/Video/SKOGBARNA/Trollskog/DYR18099_01.mov</pathurl>
						<rate>
							<timebase>25</timebase>
						</rate>
						<duration>1893</duration>
						<metadata>
							<storage>QuickTime</storage>
							<key>com.sony.bprl.xdcamtransfer.version</key>
							<size>10</size>
							<type>UTF8</type>
							<value>2.12.0.631</value>
						</metadata>
						<metadata>
							<storage>QuickTime</storage>
							<key>org.smpte.mxf.package.material.packageid</key>
							<size>66</size>
							<type>UTF8</type>
							<value>0x060a2b340101010501010d4313000000b4107289395405d508004602022f05f5</value>
						</metadata>
						<metadata>
							<storage>QuickTime</storage>
							<key>com.sony.professionaldisc.nonrealtimemeta.lastupdate</key>
							<size>25</size>
							<type>UTF8</type>
							<value>2010-08-31 13:54:24 +0100</value>
						</metadata>
						<metadata>
							<storage>QuickTime</storage>
							<key>com.sony.bprl.mxf.umid</key>
							<size>64</size>
							<type>UTF8</type>
							<value>060a2b340101010501010d4313000000b4107289395405d508004602022f05f5</value>
						</metadata>
						<metadata>
							<storage>QuickTime</storage>
							<key>com.sony.bprl.mxf.nrtmetadata</key>
							<size>1994</size>
							<type>UTF8</type>
							<value>&lt;?xml version="1.0" encoding="UTF-8"?>&lt;NonRealTimeMeta xmlns="urn:schemas-professionalDisc:nonRealTimeMeta:ver.1.20" xmlns:lib="urn:schemas-professionalDisc:lib:ver.1.20" xmlns:xsi="http://www.w3.org/2001/XMLSchema-instance" lastUpdate="2010-08-31T13:54:24+01:00">&lt;TargetMaterial umidRef="060A2B340101010501010D4313000000B4107289395405D508004602022F05F5">&lt;/TargetMaterial>&lt;Duration value="1893">&lt;/Duration>&lt;LtcChangeTable tcFps="25" halfStep="false">&lt;LtcChange frameCount="0" value="15073706" status="increment">&lt;/LtcChange>&lt;LtcChange frameCount="1892" value="07233806" status="end">&lt;/LtcChange>&lt;/LtcChangeTable>&lt;CreationDate value="2010-08-31T13:53:07+01:00">&lt;/CreationDate>&lt;TypicalUbit value="0000000017061020">&lt;/TypicalUbit>&lt;BodyUmidBasicChangeTable>&lt;BodyUmidBasicChange frameCount="0" value="060A2B340101010501010D4333000000B4107289395405D508004602022F05F5" status="start">&lt;/BodyUmidBasicChange>&lt;/BodyUmidBasicChangeTable>&lt;BodyUmidWhenChangeTable>&lt;BodyUmidWhenChange frameCount="0" value="44876C04395405A5" status="increment">&lt;/BodyUmidWhenChange>&lt;BodyUmidWhenChange frameCount="1892" value="44606E04395405A5" status="end">&lt;/BodyUmidWhenChange>&lt;/BodyUmidWhenChangeTable>&lt;KlvPacketTable>&lt;KlvPacket key="060E2B34010101050301020A02000000" frameCount="0" lengthValue="095F5265635374617274" status="spot">&lt;/KlvPacket>&lt;/KlvPacketTable>&lt;VideoFormat>&lt;VideoRecPort port="DIRECT">&lt;/VideoRecPort>&lt;VideoFrame videoCodec="MPEG2HD35_1920_1080_MP@HL" captureFps="50.00i" recFps="50.00" formatFps="50i">&lt;/VideoFrame>&lt;VideoLayout pixel="1920" numOfVerticalLine="1080" aspectRatio="16:9">&lt;/VideoLayout>&lt;/VideoFormat>&lt;AudioFormat numOfChannel="2">&lt;AudioRecPort port="ANALOG" audioCodec="LPCM16" trackDst="CH1">&lt;/AudioRecPort>&lt;AudioRecPort port="ANALOG" audioCodec="LPCM16" trackDst="CH2">&lt;/AudioRecPort>&lt;/AudioFormat>&lt;Device manufacturer="Sony" modelName="PMW-EX3" serialNo="0401525">&lt;/Device>&lt;Lens modelName="VCL-614B2X">&lt;/Lens>&lt;RecordingMode type="normal" cacheRec="false">&lt;/RecordingMode>&lt;/NonRealTimeMeta>
							</value>
						</metadata>
						<metadata>
							<storage>QuickTime</storage>
							<key>com.apple.proapps.reel</key>
							<size>8</size>
							<type>UTF8</type>
							<value>Untitled</value>
						</metadata>
						<metadata>
							<storage>QuickTime</storage>
							<key>com.apple.proapps.clipID</key>
							<size>64</size>
							<type>UTF8</type>
							<value>060A2B340101010501010D4313000000B4107289395405D508004602022F05F5</value>
						</metadata>
						<metadata>
							<storage>QuickTime</storage>
							<key>com.apple.quicktime.information</key>
							<size>64</size>
							<type>UTF8</type>
							<value>060a2b340101010501010d4313000000b4107289395405d508004602022f05f5</value>
						</metadata>
						<metadata>
							<storage>QuickTime</storage>
							<key>com.apple.proapps.originalFormat</key>
							<size>36</size>
							<type>UTF8</type>
							<value>Apple XDCAM EX 1080i50 (35 Mb/s VBR)</value>
						</metadata>
						<timecode>
							<rate>
								<timebase>25</timebase>
							</rate>
							<string>06:37:07:15</string>
							<frame>595690</frame>
							<displayformat>NDF</displayformat>
							<source>source</source>
							<reel>
								<name>Untitled</name>
							</reel>
						</timecode>
						<media>
							<video>
								<duration>1893</duration>
								<samplecharacteristics>
									<width>1920</width>
									<height>1080</height>
								</samplecharacteristics>
							</video>
							<audio>
								<samplecharacteristics>
									<samplerate>48000</samplerate>
									<depth>16</depth>
								</samplecharacteristics>
								<channelcount>1</channelcount>
								<layout>mono</layout>
								<audiochannel>
									<sourcechannel>1</sourcechannel>
									<channellabel>discrete</channellabel>
								</audiochannel>
							</audio>
							<audio>
								<samplecharacteristics>
									<samplerate>48000</samplerate>
									<depth>16</depth>
								</samplecharacteristics>
								<channelcount>1</channelcount>
								<layout>mono</layout>
								<audiochannel>
									<sourcechannel>2</sourcechannel>
									<channellabel>discrete</channellabel>
								</audiochannel>
							</audio>
						</media>
					</file>
					<sourcetrack>
						<mediatype>video</mediatype>
					</sourcetrack>
					<link>
						<linkclipref>DYR18099_01 </linkclipref>
						<mediatype>video</mediatype>
						<trackindex>1</trackindex>
						<clipindex>66</clipindex>
					</link>
					<link>
						<linkclipref>DYR18099_01 3</linkclipref>
						<mediatype>audio</mediatype>
						<trackindex>1</trackindex>
						<clipindex>64</clipindex>
					</link>
					<link>
						<linkclipref>DYR18099_01 4</linkclipref>
						<mediatype>audio</mediatype>
						<trackindex>2</trackindex>
						<clipindex>64</clipindex>
					</link>
					<fielddominance>upper</fielddominance>
					<itemhistory>
						<uuid>2354E09B-A09A-4675-820E-7890443AD56D</uuid>
					</itemhistory>
				</clipitem>
				<clipitem id="DYR18102_01 ">
					<name>DYR18102_01</name>
					<duration>2259</duration>
					<rate>
						<ntsc>FALSE</ntsc>
						<timebase>25</timebase>
					</rate>
					<in>174</in>
					<out>269</out>
					<start>7296</start>
					<end>7391</end>
					<pixelaspectratio>Square</pixelaspectratio>
					<enabled>TRUE</enabled>
					<anamorphic>FALSE</anamorphic>
					<alphatype>none</alphatype>
					<masterclipid>DYR18102_01 1</masterclipid>
					<logginginfo>
						<scene/>
						<shottake/>
						<lognote/>
						<good>FALSE</good>
					</logginginfo>
					<labels>
						<label2/>
					</labels>
					<comments>
						<mastercomment1/>
						<mastercomment2/>
						<mastercomment3/>
						<mastercomment4/>
					</comments>
					<file id="DYR18102_01 2">
						<name>DYR18102_01.mov</name>
						<pathurl>file://localhost/Volumes/Askepott/Prosjekter/DNPR637010_Kra%CC%8Akeklubben_TEM_011212/Video/SKOGBARNA/Trollskog/DYR18102_01.mov</pathurl>
						<rate>
							<timebase>25</timebase>
						</rate>
						<duration>2259</duration>
						<metadata>
							<storage>QuickTime</storage>
							<key>com.sony.bprl.xdcamtransfer.version</key>
							<size>10</size>
							<type>UTF8</type>
							<value>2.12.0.631</value>
						</metadata>
						<metadata>
							<storage>QuickTime</storage>
							<key>org.smpte.mxf.package.material.packageid</key>
							<size>66</size>
							<type>UTF8</type>
							<value>0x060a2b340101010501010d431300000028829b8a395405dc08004602022f05f5</value>
						</metadata>
						<metadata>
							<storage>QuickTime</storage>
							<key>com.sony.professionaldisc.nonrealtimemeta.lastupdate</key>
							<size>25</size>
							<type>UTF8</type>
							<value>2010-08-31 14:01:11 +0100</value>
						</metadata>
						<metadata>
							<storage>QuickTime</storage>
							<key>com.sony.bprl.mxf.umid</key>
							<size>64</size>
							<type>UTF8</type>
							<value>060a2b340101010501010d431300000028829b8a395405dc08004602022f05f5</value>
						</metadata>
						<metadata>
							<storage>QuickTime</storage>
							<key>com.sony.bprl.mxf.nrtmetadata</key>
							<size>1994</size>
							<type>UTF8</type>
							<value>&lt;?xml version="1.0" encoding="UTF-8"?>&lt;NonRealTimeMeta xmlns="urn:schemas-professionalDisc:nonRealTimeMeta:ver.1.20" xmlns:lib="urn:schemas-professionalDisc:lib:ver.1.20" xmlns:xsi="http://www.w3.org/2001/XMLSchema-instance" lastUpdate="2010-08-31T14:01:11+01:00">&lt;TargetMaterial umidRef="060A2B340101010501010D431300000028829B8A395405DC08004602022F05F5">&lt;/TargetMaterial>&lt;Duration value="2259">&lt;/Duration>&lt;LtcChangeTable tcFps="25" halfStep="false">&lt;LtcChange frameCount="0" value="12043906" status="increment">&lt;/LtcChange>&lt;LtcChange frameCount="2258" value="20344006" status="end">&lt;/LtcChange>&lt;/LtcChangeTable>&lt;CreationDate value="2010-08-31T13:59:40+01:00">&lt;/CreationDate>&lt;TypicalUbit value="0000000017061020">&lt;/TypicalUbit>&lt;BodyUmidBasicChangeTable>&lt;BodyUmidBasicChange frameCount="0" value="060A2B340101010501010D433300000028829B8A395405DC08004602022F05F5" status="start">&lt;/BodyUmidBasicChange>&lt;/BodyUmidBasicChangeTable>&lt;BodyUmidWhenChangeTable>&lt;BodyUmidWhenChange frameCount="0" value="C4187604395405A5" status="increment">&lt;/BodyUmidWhenChange>&lt;BodyUmidWhenChange frameCount="2258" value="444D7804395405A5" status="end">&lt;/BodyUmidWhenChange>&lt;/BodyUmidWhenChangeTable>&lt;KlvPacketTable>&lt;KlvPacket key="060E2B34010101050301020A02000000" frameCount="0" lengthValue="095F5265635374617274" status="spot">&lt;/KlvPacket>&lt;/KlvPacketTable>&lt;VideoFormat>&lt;VideoRecPort port="DIRECT">&lt;/VideoRecPort>&lt;VideoFrame videoCodec="MPEG2HD35_1920_1080_MP@HL" captureFps="50.00i" recFps="50.00" formatFps="50i">&lt;/VideoFrame>&lt;VideoLayout pixel="1920" numOfVerticalLine="1080" aspectRatio="16:9">&lt;/VideoLayout>&lt;/VideoFormat>&lt;AudioFormat numOfChannel="2">&lt;AudioRecPort port="ANALOG" audioCodec="LPCM16" trackDst="CH1">&lt;/AudioRecPort>&lt;AudioRecPort port="ANALOG" audioCodec="LPCM16" trackDst="CH2">&lt;/AudioRecPort>&lt;/AudioFormat>&lt;Device manufacturer="Sony" modelName="PMW-EX3" serialNo="0401525">&lt;/Device>&lt;Lens modelName="VCL-614B2X">&lt;/Lens>&lt;RecordingMode type="normal" cacheRec="false">&lt;/RecordingMode>&lt;/NonRealTimeMeta>
							</value>
						</metadata>
						<metadata>
							<storage>QuickTime</storage>
							<key>com.apple.proapps.reel</key>
							<size>8</size>
							<type>UTF8</type>
							<value>Untitled</value>
						</metadata>
						<metadata>
							<storage>QuickTime</storage>
							<key>com.apple.proapps.clipID</key>
							<size>64</size>
							<type>UTF8</type>
							<value>060A2B340101010501010D431300000028829B8A395405DC08004602022F05F5</value>
						</metadata>
						<metadata>
							<storage>QuickTime</storage>
							<key>com.apple.quicktime.information</key>
							<size>64</size>
							<type>UTF8</type>
							<value>060a2b340101010501010d431300000028829b8a395405dc08004602022f05f5</value>
						</metadata>
						<metadata>
							<storage>QuickTime</storage>
							<key>com.apple.proapps.originalFormat</key>
							<size>36</size>
							<type>UTF8</type>
							<value>Apple XDCAM EX 1080i50 (35 Mb/s VBR)</value>
						</metadata>
						<timecode>
							<rate>
								<timebase>25</timebase>
							</rate>
							<string>06:39:04:12</string>
							<frame>598612</frame>
							<displayformat>NDF</displayformat>
							<source>source</source>
							<reel>
								<name>Untitled</name>
							</reel>
						</timecode>
						<media>
							<video>
								<duration>2259</duration>
								<samplecharacteristics>
									<width>1920</width>
									<height>1080</height>
								</samplecharacteristics>
							</video>
							<audio>
								<samplecharacteristics>
									<samplerate>48000</samplerate>
									<depth>16</depth>
								</samplecharacteristics>
								<channelcount>1</channelcount>
								<layout>mono</layout>
								<audiochannel>
									<sourcechannel>1</sourcechannel>
									<channellabel>discrete</channellabel>
								</audiochannel>
							</audio>
							<audio>
								<samplecharacteristics>
									<samplerate>48000</samplerate>
									<depth>16</depth>
								</samplecharacteristics>
								<channelcount>1</channelcount>
								<layout>mono</layout>
								<audiochannel>
									<sourcechannel>2</sourcechannel>
									<channellabel>discrete</channellabel>
								</audiochannel>
							</audio>
						</media>
					</file>
					<filter>
						<start>-1</start>
						<end>-1</end>
						<effect>
							<name>G Simple Curves +20 white curve</name>
							<effectcategory>Nattress Big Box of Tricks - Levels and Curves</effectcategory>
							<effecttype>filter</effecttype>
							<mediatype>video</mediatype>
							<parameter>
								<parameterid>colourspace</parameterid>
								<name>Colour Space</name>
								<valuemin>1</valuemin>
								<valuemax>2</valuemax>
								<valuelist>
									<valueentry>
										<name>RGB</name>
										<value>1</value>
									</valueentry>
									<valueentry>
										<name>Y'CbCr</name>
										<value>2</value>
									</valueentry>
								</valuelist>
								<value>2</value>
							</parameter>
							<parameter>
								<parameterid>showcurves</parameterid>
								<name>Show Curves</name>
								<value>FALSE</value>
							</parameter>
							<parameter>
								<parameterid>lvar</parameterid>
								<name>Levels Controls</name>
								<value>string</value>
							</parameter>
							<parameter>
								<parameterid>inw</parameterid>
								<name>White Level</name>
								<valuemin>0</valuemin>
								<valuemax>255</valuemax>
								<value>255</value>
							</parameter>
							<parameter>
								<parameterid>inb</parameterid>
								<name>Black Level</name>
								<valuemin>0</valuemin>
								<valuemax>255</valuemax>
								<value>0</value>
							</parameter>
							<parameter>
								<parameterid>outw</parameterid>
								<name>White Output</name>
								<valuemin>0</valuemin>
								<valuemax>255</valuemax>
								<value>255</value>
							</parameter>
							<parameter>
								<parameterid>outb</parameterid>
								<name>Black Output</name>
								<valuemin>0</valuemin>
								<valuemax>255</valuemax>
								<value>0</value>
							</parameter>
							<parameter>
								<parameterid>cvar</parameterid>
								<name>Curves Controls</name>
								<value>string</value>
							</parameter>
							<parameter>
								<parameterid>curvew</parameterid>
								<name>White Curve</name>
								<valuemin>-100</valuemin>
								<valuemax>100</valuemax>
								<value>20</value>
							</parameter>
							<parameter>
								<parameterid>curveb</parameterid>
								<name>Black Curve</name>
								<valuemin>-100</valuemin>
								<valuemax>100</valuemax>
								<value>0</value>
							</parameter>
							<parameter>
								<parameterid>clipoutput</parameterid>
								<name>Clip Output Levels</name>
								<value>TRUE</value>
							</parameter>
							<parameter>
								<parameterid>copyright</parameterid>
								<name>© www.nattress.com</name>
								<value>string</value>
							</parameter>
						</effect>
					</filter>
					<sourcetrack>
						<mediatype>video</mediatype>
					</sourcetrack>
					<link>
						<linkclipref>DYR18102_01 </linkclipref>
						<mediatype>video</mediatype>
						<trackindex>1</trackindex>
						<clipindex>67</clipindex>
					</link>
					<link>
						<linkclipref>DYR18102_01 3</linkclipref>
						<mediatype>audio</mediatype>
						<trackindex>1</trackindex>
						<clipindex>65</clipindex>
					</link>
					<link>
						<linkclipref>DYR18102_01 4</linkclipref>
						<mediatype>audio</mediatype>
						<trackindex>2</trackindex>
						<clipindex>65</clipindex>
					</link>
					<fielddominance>upper</fielddominance>
					<itemhistory>
						<uuid>64376E1D-A48F-47A3-8B04-79B9446A9AA9</uuid>
					</itemhistory>
				</clipitem>
				<clipitem id="DYR18102_01 5">
					<name>DYR18102_01</name>
					<duration>2259</duration>
					<rate>
						<ntsc>FALSE</ntsc>
						<timebase>25</timebase>
					</rate>
					<in>814</in>
					<out>915</out>
					<start>7391</start>
					<end>7492</end>
					<pixelaspectratio>Square</pixelaspectratio>
					<enabled>TRUE</enabled>
					<anamorphic>FALSE</anamorphic>
					<alphatype>none</alphatype>
					<masterclipid>DYR18102_01 1</masterclipid>
					<logginginfo>
						<scene/>
						<shottake/>
						<lognote/>
						<good>FALSE</good>
					</logginginfo>
					<labels>
						<label2/>
					</labels>
					<comments>
						<mastercomment1/>
						<mastercomment2/>
						<mastercomment3/>
						<mastercomment4/>
					</comments>
					<file id="DYR18102_01 2"/>
					<filter>
						<enabled>TRUE</enabled>
						<start>-1</start>
						<end>-1</end>
						<effect>
							<name>G Simple Curves +20 white curve</name>
							<effectcategory>Nattress Big Box of Tricks - Levels and Curves</effectcategory>
							<effecttype>filter</effecttype>
							<mediatype>video</mediatype>
							<parameter>
								<parameterid>colourspace</parameterid>
								<name>Colour Space</name>
								<valuemin>1</valuemin>
								<valuemax>2</valuemax>
								<valuelist>
									<valueentry>
										<name>RGB</name>
										<value>1</value>
									</valueentry>
									<valueentry>
										<name>Y'CbCr</name>
										<value>2</value>
									</valueentry>
								</valuelist>
								<value>2</value>
							</parameter>
							<parameter>
								<parameterid>showcurves</parameterid>
								<name>Show Curves</name>
								<value>FALSE</value>
							</parameter>
							<parameter>
								<parameterid>lvar</parameterid>
								<name>Levels Controls</name>
								<value>string</value>
							</parameter>
							<parameter>
								<parameterid>inw</parameterid>
								<name>White Level</name>
								<valuemin>0</valuemin>
								<valuemax>255</valuemax>
								<value>255</value>
							</parameter>
							<parameter>
								<parameterid>inb</parameterid>
								<name>Black Level</name>
								<valuemin>0</valuemin>
								<valuemax>255</valuemax>
								<value>0</value>
							</parameter>
							<parameter>
								<parameterid>outw</parameterid>
								<name>White Output</name>
								<valuemin>0</valuemin>
								<valuemax>255</valuemax>
								<value>255</value>
							</parameter>
							<parameter>
								<parameterid>outb</parameterid>
								<name>Black Output</name>
								<valuemin>0</valuemin>
								<valuemax>255</valuemax>
								<value>0</value>
							</parameter>
							<parameter>
								<parameterid>cvar</parameterid>
								<name>Curves Controls</name>
								<value>string</value>
							</parameter>
							<parameter>
								<parameterid>curvew</parameterid>
								<name>White Curve</name>
								<valuemin>-100</valuemin>
								<valuemax>100</valuemax>
								<value>15</value>
							</parameter>
							<parameter>
								<parameterid>curveb</parameterid>
								<name>Black Curve</name>
								<valuemin>-100</valuemin>
								<valuemax>100</valuemax>
								<value>0</value>
							</parameter>
							<parameter>
								<parameterid>clipoutput</parameterid>
								<name>Clip Output Levels</name>
								<value>TRUE</value>
							</parameter>
							<parameter>
								<parameterid>copyright</parameterid>
								<name>© www.nattress.com</name>
								<value>string</value>
							</parameter>
						</effect>
					</filter>
					<sourcetrack>
						<mediatype>video</mediatype>
					</sourcetrack>
					<link>
						<linkclipref>DYR18102_01 5</linkclipref>
						<mediatype>video</mediatype>
						<trackindex>1</trackindex>
						<clipindex>68</clipindex>
					</link>
					<link>
						<linkclipref>DYR18102_01 6</linkclipref>
						<mediatype>audio</mediatype>
						<trackindex>1</trackindex>
						<clipindex>66</clipindex>
					</link>
					<link>
						<linkclipref>DYR18102_01 7</linkclipref>
						<mediatype>audio</mediatype>
						<trackindex>2</trackindex>
						<clipindex>66</clipindex>
					</link>
					<fielddominance>upper</fielddominance>
					<itemhistory>
						<uuid>41396CDA-1221-438D-97DB-9AA5A31B5817</uuid>
					</itemhistory>
				</clipitem>
				<clipitem id="DYR18102_01 8">
					<name>DYR18102_01</name>
					<duration>2259</duration>
					<rate>
						<ntsc>FALSE</ntsc>
						<timebase>25</timebase>
					</rate>
					<in>1081</in>
					<out>1116</out>
					<start>7492</start>
					<end>7527</end>
					<pixelaspectratio>Square</pixelaspectratio>
					<enabled>TRUE</enabled>
					<anamorphic>FALSE</anamorphic>
					<alphatype>none</alphatype>
					<masterclipid>DYR18102_01 1</masterclipid>
					<logginginfo>
						<scene/>
						<shottake/>
						<lognote/>
						<good>FALSE</good>
					</logginginfo>
					<labels>
						<label2/>
					</labels>
					<comments>
						<mastercomment1/>
						<mastercomment2/>
						<mastercomment3/>
						<mastercomment4/>
					</comments>
					<file id="DYR18102_01 2"/>
					<sourcetrack>
						<mediatype>video</mediatype>
					</sourcetrack>
					<link>
						<linkclipref>DYR18102_01 8</linkclipref>
						<mediatype>video</mediatype>
						<trackindex>1</trackindex>
						<clipindex>69</clipindex>
					</link>
					<link>
						<linkclipref>DYR18102_01 9</linkclipref>
						<mediatype>audio</mediatype>
						<trackindex>1</trackindex>
						<clipindex>67</clipindex>
					</link>
					<link>
						<linkclipref>DYR18102_01 10</linkclipref>
						<mediatype>audio</mediatype>
						<trackindex>2</trackindex>
						<clipindex>67</clipindex>
					</link>
					<fielddominance>upper</fielddominance>
					<itemhistory>
						<uuid>B1FE00FB-8085-4BDA-9CE1-FE95748AFA58</uuid>
					</itemhistory>
				</clipitem>
				<clipitem id="DYR18103_01 ">
					<name>DYR18103_01</name>
					<duration>3184</duration>
					<rate>
						<ntsc>FALSE</ntsc>
						<timebase>25</timebase>
					</rate>
					<in>66</in>
					<out>159</out>
					<start>7527</start>
					<end>7620</end>
					<pixelaspectratio>Square</pixelaspectratio>
					<enabled>TRUE</enabled>
					<anamorphic>FALSE</anamorphic>
					<alphatype>none</alphatype>
					<masterclipid>DYR18103_01 1</masterclipid>
					<logginginfo>
						<scene/>
						<shottake/>
						<lognote/>
						<good>FALSE</good>
					</logginginfo>
					<labels>
						<label2/>
					</labels>
					<comments>
						<mastercomment1/>
						<mastercomment2/>
						<mastercomment3/>
						<mastercomment4/>
					</comments>
					<file id="DYR18103_01 2">
						<name>DYR18103_01.mov</name>
						<pathurl>file://localhost/Volumes/Askepott/Prosjekter/DNPR637010_Kra%CC%8Akeklubben_TEM_011212/Video/SKOGBARNA/Trollskog/DYR18103_01.mov</pathurl>
						<rate>
							<timebase>25</timebase>
						</rate>
						<duration>3184</duration>
						<metadata>
							<storage>QuickTime</storage>
							<key>com.sony.bprl.xdcamtransfer.version</key>
							<size>10</size>
							<type>UTF8</type>
							<value>2.12.0.631</value>
						</metadata>
						<metadata>
							<storage>QuickTime</storage>
							<key>org.smpte.mxf.package.material.packageid</key>
							<size>66</size>
							<type>UTF8</type>
							<value>0x060a2b340101010501010d43130000004382ed8a395405c508004602022f05f5</value>
						</metadata>
						<metadata>
							<storage>QuickTime</storage>
							<key>com.sony.professionaldisc.nonrealtimemeta.lastupdate</key>
							<size>25</size>
							<type>UTF8</type>
							<value>2010-08-31 14:03:36 +0100</value>
						</metadata>
						<metadata>
							<storage>QuickTime</storage>
							<key>com.sony.bprl.mxf.umid</key>
							<size>64</size>
							<type>UTF8</type>
							<value>060a2b340101010501010d43130000004382ed8a395405c508004602022f05f5</value>
						</metadata>
						<metadata>
							<storage>QuickTime</storage>
							<key>com.sony.bprl.mxf.nrtmetadata</key>
							<size>1994</size>
							<type>UTF8</type>
							<value>&lt;?xml version="1.0" encoding="UTF-8"?>&lt;NonRealTimeMeta xmlns="urn:schemas-professionalDisc:nonRealTimeMeta:ver.1.20" xmlns:lib="urn:schemas-professionalDisc:lib:ver.1.20" xmlns:xsi="http://www.w3.org/2001/XMLSchema-instance" lastUpdate="2010-08-31T14:03:36+01:00">&lt;TargetMaterial umidRef="060A2B340101010501010D43130000004382ED8A395405C508004602022F05F5">&lt;/TargetMaterial>&lt;Duration value="3184">&lt;/Duration>&lt;LtcChangeTable tcFps="25" halfStep="false">&lt;LtcChange frameCount="0" value="21344006" status="increment">&lt;/LtcChange>&lt;LtcChange frameCount="3183" value="04424206" status="end">&lt;/LtcChange>&lt;/LtcChangeTable>&lt;CreationDate value="2010-08-31T14:01:28+01:00">&lt;/CreationDate>&lt;TypicalUbit value="0000000017061020">&lt;/TypicalUbit>&lt;BodyUmidBasicChangeTable>&lt;BodyUmidBasicChange frameCount="0" value="060A2B340101010501010D43330000004382ED8A395405C508004602022F05F5" status="start">&lt;/BodyUmidBasicChange>&lt;/BodyUmidBasicChangeTable>&lt;BodyUmidWhenChangeTable>&lt;BodyUmidWhenChange frameCount="0" value="84BC7804395405A5" status="increment">&lt;/BodyUmidWhenChange>&lt;BodyUmidWhenChange frameCount="3183" value="44D87B04395405A5" status="end">&lt;/BodyUmidWhenChange>&lt;/BodyUmidWhenChangeTable>&lt;KlvPacketTable>&lt;KlvPacket key="060E2B34010101050301020A02000000" frameCount="0" lengthValue="095F5265635374617274" status="spot">&lt;/KlvPacket>&lt;/KlvPacketTable>&lt;VideoFormat>&lt;VideoRecPort port="DIRECT">&lt;/VideoRecPort>&lt;VideoFrame videoCodec="MPEG2HD35_1920_1080_MP@HL" captureFps="50.00i" recFps="50.00" formatFps="50i">&lt;/VideoFrame>&lt;VideoLayout pixel="1920" numOfVerticalLine="1080" aspectRatio="16:9">&lt;/VideoLayout>&lt;/VideoFormat>&lt;AudioFormat numOfChannel="2">&lt;AudioRecPort port="ANALOG" audioCodec="LPCM16" trackDst="CH1">&lt;/AudioRecPort>&lt;AudioRecPort port="ANALOG" audioCodec="LPCM16" trackDst="CH2">&lt;/AudioRecPort>&lt;/AudioFormat>&lt;Device manufacturer="Sony" modelName="PMW-EX3" serialNo="0401525">&lt;/Device>&lt;Lens modelName="VCL-614B2X">&lt;/Lens>&lt;RecordingMode type="normal" cacheRec="false">&lt;/RecordingMode>&lt;/NonRealTimeMeta>
							</value>
						</metadata>
						<metadata>
							<storage>QuickTime</storage>
							<key>com.apple.proapps.reel</key>
							<size>8</size>
							<type>UTF8</type>
							<value>Untitled</value>
						</metadata>
						<metadata>
							<storage>QuickTime</storage>
							<key>com.apple.proapps.clipID</key>
							<size>64</size>
							<type>UTF8</type>
							<value>060A2B340101010501010D43130000004382ED8A395405C508004602022F05F5</value>
						</metadata>
						<metadata>
							<storage>QuickTime</storage>
							<key>com.apple.quicktime.information</key>
							<size>64</size>
							<type>UTF8</type>
							<value>060a2b340101010501010d43130000004382ed8a395405c508004602022f05f5</value>
						</metadata>
						<metadata>
							<storage>QuickTime</storage>
							<key>com.apple.proapps.originalFormat</key>
							<size>36</size>
							<type>UTF8</type>
							<value>Apple XDCAM EX 1080i50 (35 Mb/s VBR)</value>
						</metadata>
						<timecode>
							<rate>
								<timebase>25</timebase>
							</rate>
							<string>06:40:34:21</string>
							<frame>600871</frame>
							<displayformat>NDF</displayformat>
							<source>source</source>
							<reel>
								<name>Untitled</name>
							</reel>
						</timecode>
						<media>
							<video>
								<duration>3184</duration>
								<samplecharacteristics>
									<width>1920</width>
									<height>1080</height>
								</samplecharacteristics>
							</video>
							<audio>
								<samplecharacteristics>
									<samplerate>48000</samplerate>
									<depth>16</depth>
								</samplecharacteristics>
								<channelcount>1</channelcount>
								<layout>mono</layout>
								<audiochannel>
									<sourcechannel>1</sourcechannel>
									<channellabel>discrete</channellabel>
								</audiochannel>
							</audio>
							<audio>
								<samplecharacteristics>
									<samplerate>48000</samplerate>
									<depth>16</depth>
								</samplecharacteristics>
								<channelcount>1</channelcount>
								<layout>mono</layout>
								<audiochannel>
									<sourcechannel>2</sourcechannel>
									<channellabel>discrete</channellabel>
								</audiochannel>
							</audio>
						</media>
					</file>
					<sourcetrack>
						<mediatype>video</mediatype>
					</sourcetrack>
					<link>
						<linkclipref>DYR18103_01 </linkclipref>
						<mediatype>video</mediatype>
						<trackindex>1</trackindex>
						<clipindex>70</clipindex>
					</link>
					<link>
						<linkclipref>DYR18103_01 3</linkclipref>
						<mediatype>audio</mediatype>
						<trackindex>1</trackindex>
						<clipindex>68</clipindex>
					</link>
					<fielddominance>upper</fielddominance>
					<itemhistory>
						<uuid>62B3DBD7-7257-4B83-9B6C-0F9D10195544</uuid>
					</itemhistory>
				</clipitem>
				<clipitem id="DYR18104_01 ">
					<name>DYR18104_01</name>
					<duration>1992</duration>
					<rate>
						<ntsc>FALSE</ntsc>
						<timebase>25</timebase>
					</rate>
					<in>228</in>
					<out>392</out>
					<start>7620</start>
					<end>7784</end>
					<pixelaspectratio>Square</pixelaspectratio>
					<enabled>TRUE</enabled>
					<anamorphic>FALSE</anamorphic>
					<alphatype>none</alphatype>
					<masterclipid>DYR18104_01 1</masterclipid>
					<logginginfo>
						<scene/>
						<shottake/>
						<lognote/>
						<good>FALSE</good>
					</logginginfo>
					<labels>
						<label2/>
					</labels>
					<comments>
						<mastercomment1/>
						<mastercomment2/>
						<mastercomment3/>
						<mastercomment4/>
					</comments>
					<file id="DYR18104_01 2">
						<name>DYR18104_01.mov</name>
						<pathurl>file://localhost/Volumes/Askepott/Prosjekter/DNPR637010_Kra%CC%8Akeklubben_TEM_011212/Video/SKOGBARNA/Trollskog/DYR18104_01.mov</pathurl>
						<rate>
							<timebase>25</timebase>
						</rate>
						<duration>1992</duration>
						<metadata>
							<storage>QuickTime</storage>
							<key>com.sony.bprl.xdcamtransfer.version</key>
							<size>10</size>
							<type>UTF8</type>
							<value>2.12.0.631</value>
						</metadata>
						<metadata>
							<storage>QuickTime</storage>
							<key>org.smpte.mxf.package.material.packageid</key>
							<size>66</size>
							<type>UTF8</type>
							<value>0x060a2b340101010501010d4313000000e8645a8b395405df08004602022f05f5</value>
						</metadata>
						<metadata>
							<storage>QuickTime</storage>
							<key>com.sony.professionaldisc.nonrealtimemeta.lastupdate</key>
							<size>25</size>
							<type>UTF8</type>
							<value>2010-08-31 14:05:12 +0100</value>
						</metadata>
						<metadata>
							<storage>QuickTime</storage>
							<key>com.sony.bprl.mxf.umid</key>
							<size>64</size>
							<type>UTF8</type>
							<value>060a2b340101010501010d4313000000e8645a8b395405df08004602022f05f5</value>
						</metadata>
						<metadata>
							<storage>QuickTime</storage>
							<key>com.sony.bprl.mxf.nrtmetadata</key>
							<size>1994</size>
							<type>UTF8</type>
							<value>&lt;?xml version="1.0" encoding="UTF-8"?>&lt;NonRealTimeMeta xmlns="urn:schemas-professionalDisc:nonRealTimeMeta:ver.1.20" xmlns:lib="urn:schemas-professionalDisc:lib:ver.1.20" xmlns:xsi="http://www.w3.org/2001/XMLSchema-instance" lastUpdate="2010-08-31T14:05:12+01:00">&lt;TargetMaterial umidRef="060A2B340101010501010D4313000000E8645A8B395405DF08004602022F05F5">&lt;/TargetMaterial>&lt;Duration value="1992">&lt;/Duration>&lt;LtcChangeTable tcFps="25" halfStep="false">&lt;LtcChange frameCount="0" value="05424206" status="increment">&lt;/LtcChange>&lt;LtcChange frameCount="1991" value="21014406" status="end">&lt;/LtcChange>&lt;/LtcChangeTable>&lt;CreationDate value="2010-08-31T14:03:51+01:00">&lt;/CreationDate>&lt;TypicalUbit value="0000000017061020">&lt;/TypicalUbit>&lt;BodyUmidBasicChangeTable>&lt;BodyUmidBasicChange frameCount="0" value="060A2B340101010501010D4333000000E8645A8B395405DF08004602022F05F5" status="start">&lt;/BodyUmidBasicChange>&lt;/BodyUmidBasicChangeTable>&lt;BodyUmidWhenChangeTable>&lt;BodyUmidWhenChange frameCount="0" value="C43D7C04395405A5" status="increment">&lt;/BodyUmidWhenChange>&lt;BodyUmidWhenChange frameCount="1991" value="842F7E04395405A5" status="end">&lt;/BodyUmidWhenChange>&lt;/BodyUmidWhenChangeTable>&lt;KlvPacketTable>&lt;KlvPacket key="060E2B34010101050301020A02000000" frameCount="0" lengthValue="095F5265635374617274" status="spot">&lt;/KlvPacket>&lt;/KlvPacketTable>&lt;VideoFormat>&lt;VideoRecPort port="DIRECT">&lt;/VideoRecPort>&lt;VideoFrame videoCodec="MPEG2HD35_1920_1080_MP@HL" captureFps="50.00i" recFps="50.00" formatFps="50i">&lt;/VideoFrame>&lt;VideoLayout pixel="1920" numOfVerticalLine="1080" aspectRatio="16:9">&lt;/VideoLayout>&lt;/VideoFormat>&lt;AudioFormat numOfChannel="2">&lt;AudioRecPort port="ANALOG" audioCodec="LPCM16" trackDst="CH1">&lt;/AudioRecPort>&lt;AudioRecPort port="ANALOG" audioCodec="LPCM16" trackDst="CH2">&lt;/AudioRecPort>&lt;/AudioFormat>&lt;Device manufacturer="Sony" modelName="PMW-EX3" serialNo="0401525">&lt;/Device>&lt;Lens modelName="VCL-614B2X">&lt;/Lens>&lt;RecordingMode type="normal" cacheRec="false">&lt;/RecordingMode>&lt;/NonRealTimeMeta>
							</value>
						</metadata>
						<metadata>
							<storage>QuickTime</storage>
							<key>com.apple.proapps.reel</key>
							<size>8</size>
							<type>UTF8</type>
							<value>Untitled</value>
						</metadata>
						<metadata>
							<storage>QuickTime</storage>
							<key>com.apple.proapps.clipID</key>
							<size>64</size>
							<type>UTF8</type>
							<value>060A2B340101010501010D4313000000E8645A8B395405DF08004602022F05F5</value>
						</metadata>
						<metadata>
							<storage>QuickTime</storage>
							<key>com.apple.quicktime.information</key>
							<size>64</size>
							<type>UTF8</type>
							<value>060a2b340101010501010d4313000000e8645a8b395405df08004602022f05f5</value>
						</metadata>
						<metadata>
							<storage>QuickTime</storage>
							<key>com.apple.proapps.originalFormat</key>
							<size>36</size>
							<type>UTF8</type>
							<value>Apple XDCAM EX 1080i50 (35 Mb/s VBR)</value>
						</metadata>
						<timecode>
							<rate>
								<timebase>25</timebase>
							</rate>
							<string>06:42:42:05</string>
							<frame>604055</frame>
							<displayformat>NDF</displayformat>
							<source>source</source>
							<reel>
								<name>Untitled</name>
							</reel>
						</timecode>
						<media>
							<video>
								<duration>1992</duration>
								<samplecharacteristics>
									<width>1920</width>
									<height>1080</height>
								</samplecharacteristics>
							</video>
							<audio>
								<samplecharacteristics>
									<samplerate>48000</samplerate>
									<depth>16</depth>
								</samplecharacteristics>
								<channelcount>1</channelcount>
								<layout>mono</layout>
								<audiochannel>
									<sourcechannel>1</sourcechannel>
									<channellabel>discrete</channellabel>
								</audiochannel>
							</audio>
							<audio>
								<samplecharacteristics>
									<samplerate>48000</samplerate>
									<depth>16</depth>
								</samplecharacteristics>
								<channelcount>1</channelcount>
								<layout>mono</layout>
								<audiochannel>
									<sourcechannel>2</sourcechannel>
									<channellabel>discrete</channellabel>
								</audiochannel>
							</audio>
						</media>
					</file>
					<filter>
						<start>-1</start>
						<end>-1</end>
						<effect>
							<name>G Simple Curves +20 white curve</name>
							<effectcategory>Nattress Big Box of Tricks - Levels and Curves</effectcategory>
							<effecttype>filter</effecttype>
							<mediatype>video</mediatype>
							<parameter>
								<parameterid>colourspace</parameterid>
								<name>Colour Space</name>
								<valuemin>1</valuemin>
								<valuemax>2</valuemax>
								<valuelist>
									<valueentry>
										<name>RGB</name>
										<value>1</value>
									</valueentry>
									<valueentry>
										<name>Y'CbCr</name>
										<value>2</value>
									</valueentry>
								</valuelist>
								<value>2</value>
							</parameter>
							<parameter>
								<parameterid>showcurves</parameterid>
								<name>Show Curves</name>
								<value>FALSE</value>
							</parameter>
							<parameter>
								<parameterid>lvar</parameterid>
								<name>Levels Controls</name>
								<value>string</value>
							</parameter>
							<parameter>
								<parameterid>inw</parameterid>
								<name>White Level</name>
								<valuemin>0</valuemin>
								<valuemax>255</valuemax>
								<value>255</value>
							</parameter>
							<parameter>
								<parameterid>inb</parameterid>
								<name>Black Level</name>
								<valuemin>0</valuemin>
								<valuemax>255</valuemax>
								<value>0</value>
							</parameter>
							<parameter>
								<parameterid>outw</parameterid>
								<name>White Output</name>
								<valuemin>0</valuemin>
								<valuemax>255</valuemax>
								<value>255</value>
							</parameter>
							<parameter>
								<parameterid>outb</parameterid>
								<name>Black Output</name>
								<valuemin>0</valuemin>
								<valuemax>255</valuemax>
								<value>0</value>
							</parameter>
							<parameter>
								<parameterid>cvar</parameterid>
								<name>Curves Controls</name>
								<value>string</value>
							</parameter>
							<parameter>
								<parameterid>curvew</parameterid>
								<name>White Curve</name>
								<valuemin>-100</valuemin>
								<valuemax>100</valuemax>
								<value>15</value>
							</parameter>
							<parameter>
								<parameterid>curveb</parameterid>
								<name>Black Curve</name>
								<valuemin>-100</valuemin>
								<valuemax>100</valuemax>
								<value>0</value>
							</parameter>
							<parameter>
								<parameterid>clipoutput</parameterid>
								<name>Clip Output Levels</name>
								<value>TRUE</value>
							</parameter>
							<parameter>
								<parameterid>copyright</parameterid>
								<name>© www.nattress.com</name>
								<value>string</value>
							</parameter>
						</effect>
					</filter>
					<sourcetrack>
						<mediatype>video</mediatype>
					</sourcetrack>
					<link>
						<linkclipref>DYR18104_01 </linkclipref>
						<mediatype>video</mediatype>
						<trackindex>1</trackindex>
						<clipindex>71</clipindex>
					</link>
					<link>
						<linkclipref>DYR18104_01 3</linkclipref>
						<mediatype>audio</mediatype>
						<trackindex>1</trackindex>
						<clipindex>69</clipindex>
					</link>
					<fielddominance>upper</fielddominance>
					<itemhistory>
						<uuid>41EBC471-C7EC-434E-B640-A0AEE2E4B991</uuid>
					</itemhistory>
				</clipitem>
				<clipitem id="DYR18106_01 ">
					<name>DYR18106_01</name>
					<duration>4625</duration>
					<rate>
						<ntsc>FALSE</ntsc>
						<timebase>25</timebase>
					</rate>
					<in>2291</in>
					<out>2333</out>
					<start>7784</start>
					<end>7826</end>
					<pixelaspectratio>Square</pixelaspectratio>
					<enabled>TRUE</enabled>
					<anamorphic>FALSE</anamorphic>
					<alphatype>none</alphatype>
					<masterclipid>DYR18106_01 1</masterclipid>
					<logginginfo>
						<scene/>
						<shottake/>
						<lognote/>
						<good>FALSE</good>
					</logginginfo>
					<labels>
						<label2/>
					</labels>
					<comments>
						<mastercomment1/>
						<mastercomment2/>
						<mastercomment3/>
						<mastercomment4/>
					</comments>
					<file id="DYR18106_01 2">
						<name>DYR18106_01.mov</name>
						<pathurl>file://localhost/Volumes/Askepott/Prosjekter/DNPR637010_Kra%CC%8Akeklubben_TEM_011212/Video/SKOGBARNA/Trollskog/DYR18106_01.mov</pathurl>
						<rate>
							<timebase>25</timebase>
						</rate>
						<duration>4625</duration>
						<metadata>
							<storage>QuickTime</storage>
							<key>com.sony.bprl.xdcamtransfer.version</key>
							<size>10</size>
							<type>UTF8</type>
							<value>2.12.0.631</value>
						</metadata>
						<metadata>
							<storage>QuickTime</storage>
							<key>org.smpte.mxf.package.material.packageid</key>
							<size>66</size>
							<type>UTF8</type>
							<value>0x060a2b340101010501010d431300000031fe0b8c395405da08004602022f05f5</value>
						</metadata>
						<metadata>
							<storage>QuickTime</storage>
							<key>com.sony.professionaldisc.nonrealtimemeta.lastupdate</key>
							<size>25</size>
							<type>UTF8</type>
							<value>2010-08-31 14:10:52 +0100</value>
						</metadata>
						<metadata>
							<storage>QuickTime</storage>
							<key>com.sony.bprl.mxf.umid</key>
							<size>64</size>
							<type>UTF8</type>
							<value>060a2b340101010501010d431300000031fe0b8c395405da08004602022f05f5</value>
						</metadata>
						<metadata>
							<storage>QuickTime</storage>
							<key>com.sony.bprl.mxf.nrtmetadata</key>
							<size>1994</size>
							<type>UTF8</type>
							<value>&lt;?xml version="1.0" encoding="UTF-8"?>&lt;NonRealTimeMeta xmlns="urn:schemas-professionalDisc:nonRealTimeMeta:ver.1.20" xmlns:lib="urn:schemas-professionalDisc:lib:ver.1.20" xmlns:xsi="http://www.w3.org/2001/XMLSchema-instance" lastUpdate="2010-08-31T14:10:52+01:00">&lt;TargetMaterial umidRef="060A2B340101010501010D431300000031FE0B8C395405DA08004602022F05F5">&lt;/TargetMaterial>&lt;Duration value="4625">&lt;/Duration>&lt;LtcChangeTable tcFps="25" halfStep="false">&lt;LtcChange frameCount="0" value="17524406" status="increment">&lt;/LtcChange>&lt;LtcChange frameCount="4624" value="16574706" status="end">&lt;/LtcChange>&lt;/LtcChangeTable>&lt;CreationDate value="2010-08-31T14:07:45+01:00">&lt;/CreationDate>&lt;TypicalUbit value="0000000017061020">&lt;/TypicalUbit>&lt;BodyUmidBasicChangeTable>&lt;BodyUmidBasicChange frameCount="0" value="060A2B340101010501010D433300000031FE0B8C395405DA08004602022F05F5" status="start">&lt;/BodyUmidBasicChange>&lt;/BodyUmidBasicChangeTable>&lt;BodyUmidWhenChangeTable>&lt;BodyUmidWhenChange frameCount="0" value="04F58104395405A5" status="increment">&lt;/BodyUmidWhenChange>&lt;BodyUmidWhenChange frameCount="4624" value="04798604395405A5" status="end">&lt;/BodyUmidWhenChange>&lt;/BodyUmidWhenChangeTable>&lt;KlvPacketTable>&lt;KlvPacket key="060E2B34010101050301020A02000000" frameCount="0" lengthValue="095F5265635374617274" status="spot">&lt;/KlvPacket>&lt;/KlvPacketTable>&lt;VideoFormat>&lt;VideoRecPort port="DIRECT">&lt;/VideoRecPort>&lt;VideoFrame videoCodec="MPEG2HD35_1920_1080_MP@HL" captureFps="50.00i" recFps="50.00" formatFps="50i">&lt;/VideoFrame>&lt;VideoLayout pixel="1920" numOfVerticalLine="1080" aspectRatio="16:9">&lt;/VideoLayout>&lt;/VideoFormat>&lt;AudioFormat numOfChannel="2">&lt;AudioRecPort port="ANALOG" audioCodec="LPCM16" trackDst="CH1">&lt;/AudioRecPort>&lt;AudioRecPort port="ANALOG" audioCodec="LPCM16" trackDst="CH2">&lt;/AudioRecPort>&lt;/AudioFormat>&lt;Device manufacturer="Sony" modelName="PMW-EX3" serialNo="0401525">&lt;/Device>&lt;Lens modelName="VCL-614B2X">&lt;/Lens>&lt;RecordingMode type="normal" cacheRec="false">&lt;/RecordingMode>&lt;/NonRealTimeMeta>
							</value>
						</metadata>
						<metadata>
							<storage>QuickTime</storage>
							<key>com.apple.proapps.reel</key>
							<size>8</size>
							<type>UTF8</type>
							<value>Untitled</value>
						</metadata>
						<metadata>
							<storage>QuickTime</storage>
							<key>com.apple.proapps.clipID</key>
							<size>64</size>
							<type>UTF8</type>
							<value>060A2B340101010501010D431300000031FE0B8C395405DA08004602022F05F5</value>
						</metadata>
						<metadata>
							<storage>QuickTime</storage>
							<key>com.apple.quicktime.information</key>
							<size>64</size>
							<type>UTF8</type>
							<value>060a2b340101010501010d431300000031fe0b8c395405da08004602022f05f5</value>
						</metadata>
						<metadata>
							<storage>QuickTime</storage>
							<key>com.apple.proapps.originalFormat</key>
							<size>36</size>
							<type>UTF8</type>
							<value>Apple XDCAM EX 1080i50 (35 Mb/s VBR)</value>
						</metadata>
						<timecode>
							<rate>
								<timebase>25</timebase>
							</rate>
							<string>06:44:52:17</string>
							<frame>607317</frame>
							<displayformat>NDF</displayformat>
							<source>source</source>
							<reel>
								<name>Untitled</name>
							</reel>
						</timecode>
						<media>
							<video>
								<duration>4625</duration>
								<samplecharacteristics>
									<width>1920</width>
									<height>1080</height>
								</samplecharacteristics>
							</video>
							<audio>
								<samplecharacteristics>
									<samplerate>48000</samplerate>
									<depth>16</depth>
								</samplecharacteristics>
								<channelcount>1</channelcount>
								<layout>mono</layout>
								<audiochannel>
									<sourcechannel>1</sourcechannel>
									<channellabel>discrete</channellabel>
								</audiochannel>
							</audio>
							<audio>
								<samplecharacteristics>
									<samplerate>48000</samplerate>
									<depth>16</depth>
								</samplecharacteristics>
								<channelcount>1</channelcount>
								<layout>mono</layout>
								<audiochannel>
									<sourcechannel>2</sourcechannel>
									<channellabel>discrete</channellabel>
								</audiochannel>
							</audio>
						</media>
					</file>
					<sourcetrack>
						<mediatype>video</mediatype>
					</sourcetrack>
					<link>
						<linkclipref>DYR18106_01 </linkclipref>
						<mediatype>video</mediatype>
						<trackindex>1</trackindex>
						<clipindex>72</clipindex>
					</link>
					<link>
						<linkclipref>DYR18106_01 3</linkclipref>
						<mediatype>audio</mediatype>
						<trackindex>1</trackindex>
						<clipindex>70</clipindex>
					</link>
					<link>
						<linkclipref>DYR18106_01 4</linkclipref>
						<mediatype>audio</mediatype>
						<trackindex>2</trackindex>
						<clipindex>68</clipindex>
					</link>
					<fielddominance>upper</fielddominance>
					<itemhistory>
						<uuid>EBF9C242-7809-4125-B0A8-DA0B751E7032</uuid>
					</itemhistory>
				</clipitem>
				<clipitem id="DYR18106_01 5">
					<name>DYR18106_01</name>
					<duration>4625</duration>
					<rate>
						<ntsc>FALSE</ntsc>
						<timebase>25</timebase>
					</rate>
					<in>1242</in>
					<out>1283</out>
					<start>7826</start>
					<end>7867</end>
					<pixelaspectratio>Square</pixelaspectratio>
					<enabled>TRUE</enabled>
					<anamorphic>FALSE</anamorphic>
					<alphatype>none</alphatype>
					<masterclipid>DYR18106_01 1</masterclipid>
					<logginginfo>
						<scene/>
						<shottake/>
						<lognote/>
						<good>FALSE</good>
					</logginginfo>
					<labels>
						<label2/>
					</labels>
					<comments>
						<mastercomment1/>
						<mastercomment2/>
						<mastercomment3/>
						<mastercomment4/>
					</comments>
					<file id="DYR18106_01 2"/>
					<sourcetrack>
						<mediatype>video</mediatype>
					</sourcetrack>
					<link>
						<linkclipref>DYR18106_01 5</linkclipref>
						<mediatype>video</mediatype>
						<trackindex>1</trackindex>
						<clipindex>73</clipindex>
					</link>
					<link>
						<linkclipref>DYR18106_01 6</linkclipref>
						<mediatype>audio</mediatype>
						<trackindex>1</trackindex>
						<clipindex>71</clipindex>
					</link>
					<link>
						<linkclipref>DYR18106_01 7</linkclipref>
						<mediatype>audio</mediatype>
						<trackindex>2</trackindex>
						<clipindex>69</clipindex>
					</link>
					<fielddominance>upper</fielddominance>
					<itemhistory>
						<uuid>69B51DA5-DC19-4F7A-918E-AE41FE4237C3</uuid>
					</itemhistory>
				</clipitem>
				<clipitem id="DYR18103_01 4">
					<name>DYR18103_01</name>
					<duration>3184</duration>
					<rate>
						<ntsc>FALSE</ntsc>
						<timebase>25</timebase>
					</rate>
					<in>1286</in>
					<out>1330</out>
					<start>7867</start>
					<end>7911</end>
					<pixelaspectratio>Square</pixelaspectratio>
					<enabled>TRUE</enabled>
					<anamorphic>FALSE</anamorphic>
					<alphatype>none</alphatype>
					<masterclipid>DYR18103_01 1</masterclipid>
					<logginginfo>
						<scene/>
						<shottake/>
						<lognote/>
						<good>FALSE</good>
					</logginginfo>
					<labels>
						<label2/>
					</labels>
					<comments>
						<mastercomment1/>
						<mastercomment2/>
						<mastercomment3/>
						<mastercomment4/>
					</comments>
					<file id="DYR18103_01 2"/>
					<filter>
						<enabled>TRUE</enabled>
						<start>-1</start>
						<end>-1</end>
						<effect>
							<name>G Simple Curves +20 white curve</name>
							<effectcategory>Nattress Big Box of Tricks - Levels and Curves</effectcategory>
							<effecttype>filter</effecttype>
							<mediatype>video</mediatype>
							<parameter>
								<parameterid>colourspace</parameterid>
								<name>Colour Space</name>
								<valuemin>1</valuemin>
								<valuemax>2</valuemax>
								<valuelist>
									<valueentry>
										<name>RGB</name>
										<value>1</value>
									</valueentry>
									<valueentry>
										<name>Y'CbCr</name>
										<value>2</value>
									</valueentry>
								</valuelist>
								<value>2</value>
							</parameter>
							<parameter>
								<parameterid>showcurves</parameterid>
								<name>Show Curves</name>
								<value>FALSE</value>
							</parameter>
							<parameter>
								<parameterid>lvar</parameterid>
								<name>Levels Controls</name>
								<value>string</value>
							</parameter>
							<parameter>
								<parameterid>inw</parameterid>
								<name>White Level</name>
								<valuemin>0</valuemin>
								<valuemax>255</valuemax>
								<value>255</value>
							</parameter>
							<parameter>
								<parameterid>inb</parameterid>
								<name>Black Level</name>
								<valuemin>0</valuemin>
								<valuemax>255</valuemax>
								<value>0</value>
							</parameter>
							<parameter>
								<parameterid>outw</parameterid>
								<name>White Output</name>
								<valuemin>0</valuemin>
								<valuemax>255</valuemax>
								<value>255</value>
							</parameter>
							<parameter>
								<parameterid>outb</parameterid>
								<name>Black Output</name>
								<valuemin>0</valuemin>
								<valuemax>255</valuemax>
								<value>0</value>
							</parameter>
							<parameter>
								<parameterid>cvar</parameterid>
								<name>Curves Controls</name>
								<value>string</value>
							</parameter>
							<parameter>
								<parameterid>curvew</parameterid>
								<name>White Curve</name>
								<valuemin>-100</valuemin>
								<valuemax>100</valuemax>
								<value>20</value>
							</parameter>
							<parameter>
								<parameterid>curveb</parameterid>
								<name>Black Curve</name>
								<valuemin>-100</valuemin>
								<valuemax>100</valuemax>
								<value>0</value>
							</parameter>
							<parameter>
								<parameterid>clipoutput</parameterid>
								<name>Clip Output Levels</name>
								<value>TRUE</value>
							</parameter>
							<parameter>
								<parameterid>copyright</parameterid>
								<name>© www.nattress.com</name>
								<value>string</value>
							</parameter>
						</effect>
					</filter>
					<sourcetrack>
						<mediatype>video</mediatype>
					</sourcetrack>
					<link>
						<linkclipref>DYR18103_01 4</linkclipref>
						<mediatype>video</mediatype>
						<trackindex>1</trackindex>
						<clipindex>74</clipindex>
					</link>
					<link>
						<linkclipref>DYR18103_01 5</linkclipref>
						<mediatype>audio</mediatype>
						<trackindex>1</trackindex>
						<clipindex>72</clipindex>
					</link>
					<link>
						<linkclipref>DYR18103_01 6</linkclipref>
						<mediatype>audio</mediatype>
						<trackindex>2</trackindex>
						<clipindex>70</clipindex>
					</link>
					<fielddominance>upper</fielddominance>
					<itemhistory>
						<uuid>3E5A9FD1-AF08-4485-A22A-78508444801B</uuid>
					</itemhistory>
				</clipitem>
				<clipitem id="DYR18109_01 ">
					<name>DYR18109_01</name>
					<duration>3056</duration>
					<rate>
						<ntsc>FALSE</ntsc>
						<timebase>25</timebase>
					</rate>
					<in>772</in>
					<out>1128</out>
					<start>7911</start>
					<end>8267</end>
					<pixelaspectratio>Square</pixelaspectratio>
					<enabled>TRUE</enabled>
					<anamorphic>FALSE</anamorphic>
					<alphatype>none</alphatype>
					<masterclipid>DYR18109_01 1</masterclipid>
					<logginginfo>
						<scene/>
						<shottake/>
						<lognote/>
						<good>FALSE</good>
					</logginginfo>
					<labels>
						<label2/>
					</labels>
					<comments>
						<mastercomment1/>
						<mastercomment2/>
						<mastercomment3/>
						<mastercomment4/>
					</comments>
					<file id="DYR18109_01 2">
						<name>DYR18109_01.mov</name>
						<pathurl>file://localhost/Volumes/Askepott/Prosjekter/DNPR637010_Kra%CC%8Akeklubben_TEM_011212/Video/SKOGBARNA/Trollskog/DYR18109_01.mov</pathurl>
						<rate>
							<timebase>25</timebase>
						</rate>
						<duration>3056</duration>
						<metadata>
							<storage>QuickTime</storage>
							<key>com.sony.bprl.xdcamtransfer.version</key>
							<size>10</size>
							<type>UTF8</type>
							<value>2.12.0.631</value>
						</metadata>
						<metadata>
							<storage>QuickTime</storage>
							<key>org.smpte.mxf.package.material.packageid</key>
							<size>66</size>
							<type>UTF8</type>
							<value>0x060a2b340101010501010d43130000000665298d395405d308004602022f05f5</value>
						</metadata>
						<metadata>
							<storage>QuickTime</storage>
							<key>com.sony.professionaldisc.nonrealtimemeta.lastupdate</key>
							<size>25</size>
							<type>UTF8</type>
							<value>2010-08-31 14:16:05 +0100</value>
						</metadata>
						<metadata>
							<storage>QuickTime</storage>
							<key>com.sony.bprl.mxf.umid</key>
							<size>64</size>
							<type>UTF8</type>
							<value>060a2b340101010501010d43130000000665298d395405d308004602022f05f5</value>
						</metadata>
						<metadata>
							<storage>QuickTime</storage>
							<key>com.sony.bprl.mxf.nrtmetadata</key>
							<size>1994</size>
							<type>UTF8</type>
							<value>&lt;?xml version="1.0" encoding="UTF-8"?>&lt;NonRealTimeMeta xmlns="urn:schemas-professionalDisc:nonRealTimeMeta:ver.1.20" xmlns:lib="urn:schemas-professionalDisc:lib:ver.1.20" xmlns:xsi="http://www.w3.org/2001/XMLSchema-instance" lastUpdate="2010-08-31T14:16:05+01:00">&lt;TargetMaterial umidRef="060A2B340101010501010D43130000000665298D395405D308004602022F05F5">&lt;/TargetMaterial>&lt;Duration value="3056">&lt;/Duration>&lt;LtcChangeTable tcFps="25" halfStep="false">&lt;LtcChange frameCount="0" value="23244806" status="increment">&lt;/LtcChange>&lt;LtcChange frameCount="3055" value="03275006" status="end">&lt;/LtcChange>&lt;/LtcChangeTable>&lt;CreationDate value="2010-08-31T14:14:02+01:00">&lt;/CreationDate>&lt;TypicalUbit value="0000000017061020">&lt;/TypicalUbit>&lt;BodyUmidBasicChangeTable>&lt;BodyUmidBasicChange frameCount="0" value="060A2B340101010501010D43330000000665298D395405D308004602022F05F5" status="start">&lt;/BodyUmidBasicChange>&lt;/BodyUmidBasicChangeTable>&lt;BodyUmidWhenChangeTable>&lt;BodyUmidWhenChange frameCount="0" value="C4248B04395405A5" status="increment">&lt;/BodyUmidWhenChange>&lt;BodyUmidWhenChange frameCount="3055" value="84208E04395405A5" status="end">&lt;/BodyUmidWhenChange>&lt;/BodyUmidWhenChangeTable>&lt;KlvPacketTable>&lt;KlvPacket key="060E2B34010101050301020A02000000" frameCount="0" lengthValue="095F5265635374617274" status="spot">&lt;/KlvPacket>&lt;/KlvPacketTable>&lt;VideoFormat>&lt;VideoRecPort port="DIRECT">&lt;/VideoRecPort>&lt;VideoFrame videoCodec="MPEG2HD35_1920_1080_MP@HL" captureFps="50.00i" recFps="50.00" formatFps="50i">&lt;/VideoFrame>&lt;VideoLayout pixel="1920" numOfVerticalLine="1080" aspectRatio="16:9">&lt;/VideoLayout>&lt;/VideoFormat>&lt;AudioFormat numOfChannel="2">&lt;AudioRecPort port="ANALOG" audioCodec="LPCM16" trackDst="CH1">&lt;/AudioRecPort>&lt;AudioRecPort port="ANALOG" audioCodec="LPCM16" trackDst="CH2">&lt;/AudioRecPort>&lt;/AudioFormat>&lt;Device manufacturer="Sony" modelName="PMW-EX3" serialNo="0401525">&lt;/Device>&lt;Lens modelName="VCL-614B2X">&lt;/Lens>&lt;RecordingMode type="normal" cacheRec="false">&lt;/RecordingMode>&lt;/NonRealTimeMeta>
							</value>
						</metadata>
						<metadata>
							<storage>QuickTime</storage>
							<key>com.apple.proapps.reel</key>
							<size>8</size>
							<type>UTF8</type>
							<value>Untitled</value>
						</metadata>
						<metadata>
							<storage>QuickTime</storage>
							<key>com.apple.proapps.clipID</key>
							<size>64</size>
							<type>UTF8</type>
							<value>060A2B340101010501010D43130000000665298D395405D308004602022F05F5</value>
						</metadata>
						<metadata>
							<storage>QuickTime</storage>
							<key>com.apple.quicktime.information</key>
							<size>64</size>
							<type>UTF8</type>
							<value>060a2b340101010501010d43130000000665298d395405d308004602022f05f5</value>
						</metadata>
						<metadata>
							<storage>QuickTime</storage>
							<key>com.apple.proapps.originalFormat</key>
							<size>36</size>
							<type>UTF8</type>
							<value>Apple XDCAM EX 1080i50 (35 Mb/s VBR)</value>
						</metadata>
						<timecode>
							<rate>
								<timebase>25</timebase>
							</rate>
							<string>06:48:24:23</string>
							<frame>612623</frame>
							<displayformat>NDF</displayformat>
							<source>source</source>
							<reel>
								<name>Untitled</name>
							</reel>
						</timecode>
						<media>
							<video>
								<duration>3056</duration>
								<samplecharacteristics>
									<width>1920</width>
									<height>1080</height>
								</samplecharacteristics>
							</video>
							<audio>
								<samplecharacteristics>
									<samplerate>48000</samplerate>
									<depth>16</depth>
								</samplecharacteristics>
								<channelcount>1</channelcount>
								<layout>mono</layout>
								<audiochannel>
									<sourcechannel>1</sourcechannel>
									<channellabel>discrete</channellabel>
								</audiochannel>
							</audio>
							<audio>
								<samplecharacteristics>
									<samplerate>48000</samplerate>
									<depth>16</depth>
								</samplecharacteristics>
								<channelcount>1</channelcount>
								<layout>mono</layout>
								<audiochannel>
									<sourcechannel>2</sourcechannel>
									<channellabel>discrete</channellabel>
								</audiochannel>
							</audio>
						</media>
					</file>
					<filter>
						<start>-1</start>
						<end>-1</end>
						<effect>
							<name>Color Corrector 3-way</name>
							<effectid>Color Corrector 3-way</effectid>
							<effectcategory>Color Correction</effectcategory>
							<effecttype>filter</effecttype>
							<mediatype>video</mediatype>
							<parameter>
								<parameterid>dispmode</parameterid>
								<name>Display Mode</name>
								<valuemin>1</valuemin>
								<valuemax>3</valuemax>
								<valuelist>
									<valueentry>
										<name>Final</name>
										<value>1</value>
									</valueentry>
									<valueentry>
										<name>Matte</name>
										<value>2</value>
									</valueentry>
									<valueentry>
										<name>Source</name>
										<value>3</value>
									</valueentry>
								</valuelist>
								<value>1</value>
							</parameter>
							<parameter>
								<parameterid>label1</parameterid>
								<name>Blacks Controls</name>
								<value/>
							</parameter>
							<parameter>
								<parameterid>blacklevel</parameterid>
								<name>Level</name>
								<valuemin>-196</valuemin>
								<valuemax>254</valuemax>
								<value>-2</value>
							</parameter>
							<parameter>
								<parameterid>b_hue</parameterid>
								<name>Angle</name>
								<valuemin>-180</valuemin>
								<valuemax>180</valuemax>
								<value>-33</value>
							</parameter>
							<parameter>
								<parameterid>b_mag</parameterid>
								<name>Magnitude</name>
								<valuemin>0</valuemin>
								<valuemax>200</valuemax>
								<value>0</value>
							</parameter>
							<parameter>
								<parameterid>label2</parameterid>
								<name>Midrange Controls</name>
								<value/>
							</parameter>
							<parameter>
								<parameterid>mids</parameterid>
								<name>Level</name>
								<valuemin>0</valuemin>
								<valuemax>200</valuemax>
								<value>117</value>
							</parameter>
							<parameter>
								<parameterid>m_hue</parameterid>
								<name>Angle</name>
								<valuemin>-180</valuemin>
								<valuemax>180</valuemax>
								<value>-33</value>
							</parameter>
							<parameter>
								<parameterid>m_mag</parameterid>
								<name>Magnitude</name>
								<valuemin>0</valuemin>
								<valuemax>200</valuemax>
								<value>0</value>
							</parameter>
							<parameter>
								<parameterid>label3</parameterid>
								<name>Highlight Controls</name>
								<value/>
							</parameter>
							<parameter>
								<parameterid>highlights</parameterid>
								<name>Level</name>
								<valuemin>64</valuemin>
								<valuemax>509</valuemax>
								<value>255</value>
							</parameter>
							<parameter>
								<parameterid>h_hue</parameterid>
								<name>Angle</name>
								<valuemin>-180</valuemin>
								<valuemax>180</valuemax>
								<value>-33</value>
							</parameter>
							<parameter>
								<parameterid>h_mag</parameterid>
								<name>Magnitude</name>
								<valuemin>0</valuemin>
								<valuemax>200</valuemax>
								<value>0</value>
							</parameter>
							<parameter>
								<parameterid>label4</parameterid>
								<name>Color Controls</name>
								<value/>
							</parameter>
							<parameter>
								<parameterid>chroma</parameterid>
								<name>Saturation</name>
								<valuemin>0</valuemin>
								<valuemax>200</valuemax>
								<value>121</value>
							</parameter>
							<parameter>
								<parameterid>label5</parameterid>
								<name>Limit Effect Controls</name>
								<value/>
							</parameter>
							<parameter>
								<parameterid>dochroma</parameterid>
								<name>Limit on Chroma</name>
								<value>FALSE</value>
							</parameter>
							<parameter>
								<parameterid>centerang</parameterid>
								<name>Chroma Center</name>
								<valuemin>-760</valuemin>
								<valuemax>760</valuemax>
								<value>-110</value>
							</parameter>
							<parameter>
								<parameterid>chromawidth</parameterid>
								<name>Chroma Width</name>
								<valuemin>0</valuemin>
								<valuemax>360</valuemax>
								<value>15</value>
							</parameter>
							<parameter>
								<parameterid>chromasoft</parameterid>
								<name>Chroma Softness</name>
								<valuemin>0</valuemin>
								<valuemax>180</valuemax>
								<value>10</value>
							</parameter>
							<parameter>
								<parameterid>dosat</parameterid>
								<name>Limit on Saturation</name>
								<value>FALSE</value>
							</parameter>
							<parameter>
								<parameterid>satmin</parameterid>
								<name>Sat. Minimum</name>
								<valuemin>0</valuemin>
								<valuemax>125</valuemax>
								<value>35</value>
							</parameter>
							<parameter>
								<parameterid>satwidth</parameterid>
								<name>Sat. Width</name>
								<valuemin>0</valuemin>
								<valuemax>125</valuemax>
								<value>40</value>
							</parameter>
							<parameter>
								<parameterid>satsoft</parameterid>
								<name>Sat. Softness</name>
								<valuemin>0</valuemin>
								<valuemax>125</valuemax>
								<value>20</value>
							</parameter>
							<parameter>
								<parameterid>doluma</parameterid>
								<name>Limit on Luma</name>
								<value>FALSE</value>
							</parameter>
							<parameter>
								<parameterid>lumamin</parameterid>
								<name>Luma Minimum</name>
								<valuemin>0</valuemin>
								<valuemax>120</valuemax>
								<value>0</value>
							</parameter>
							<parameter>
								<parameterid>lumawidth</parameterid>
								<name>Luma Width</name>
								<valuemin>0</valuemin>
								<valuemax>120</valuemax>
								<value>40</value>
							</parameter>
							<parameter>
								<parameterid>lumasoft</parameterid>
								<name>Luma Softness</name>
								<valuemin>0</valuemin>
								<valuemax>120</valuemax>
								<value>20</value>
							</parameter>
							<parameter>
								<parameterid>label6</parameterid>
								<name>Edge Control</name>
								<value/>
							</parameter>
							<parameter>
								<parameterid>edgethin</parameterid>
								<name>Thin/Spread</name>
								<valuemin>-100</valuemin>
								<valuemax>100</valuemax>
								<value>0</value>
							</parameter>
							<parameter>
								<parameterid>edgefeather</parameterid>
								<name>Softening</name>
								<valuemin>0</valuemin>
								<valuemax>100</valuemax>
								<value>0</value>
							</parameter>
							<parameter>
								<parameterid>label7</parameterid>
								<name>Mask Control</name>
								<value/>
							</parameter>
							<parameter>
								<parameterid>invertsel</parameterid>
								<name>Invert</name>
								<value>FALSE</value>
							</parameter>
							<parameter>
								<parameterid>debugshow</parameterid>
								<name>Show Stats</name>
								<value>FALSE</value>
							</parameter>
						</effect>
					</filter>
					<sourcetrack>
						<mediatype>video</mediatype>
					</sourcetrack>
					<link>
						<linkclipref>DYR18109_01 </linkclipref>
						<mediatype>video</mediatype>
						<trackindex>1</trackindex>
						<clipindex>75</clipindex>
					</link>
					<link>
						<linkclipref>DYR18109_01 3</linkclipref>
						<mediatype>audio</mediatype>
						<trackindex>1</trackindex>
						<clipindex>73</clipindex>
					</link>
					<link>
						<linkclipref>DYR18109_01 4</linkclipref>
						<mediatype>audio</mediatype>
						<trackindex>2</trackindex>
						<clipindex>71</clipindex>
					</link>
					<fielddominance>upper</fielddominance>
					<itemhistory>
						<uuid>3778A604-1BA6-43EF-ADA5-575160ED55B6</uuid>
					</itemhistory>
				</clipitem>
				<clipitem id="DYR18109_01 5">
					<name>DYR18109_01</name>
					<duration>3056</duration>
					<rate>
						<ntsc>FALSE</ntsc>
						<timebase>25</timebase>
					</rate>
					<in>1443</in>
					<out>1509</out>
					<start>8267</start>
					<end>8333</end>
					<pixelaspectratio>Square</pixelaspectratio>
					<anamorphic>FALSE</anamorphic>
					<alphatype>none</alphatype>
					<masterclipid>DYR18109_01 1</masterclipid>
					<logginginfo>
						<scene/>
						<shottake/>
						<lognote/>
						<good>FALSE</good>
					</logginginfo>
					<labels>
						<label2/>
					</labels>
					<comments>
						<mastercomment1/>
						<mastercomment2/>
						<mastercomment3/>
						<mastercomment4/>
					</comments>
					<file id="DYR18109_01 2"/>
					<sourcetrack>
						<mediatype>video</mediatype>
					</sourcetrack>
					<link>
						<linkclipref>DYR18109_01 5</linkclipref>
						<mediatype>video</mediatype>
						<trackindex>1</trackindex>
						<clipindex>76</clipindex>
					</link>
					<link>
						<linkclipref>DYR18109_01 6</linkclipref>
						<mediatype>audio</mediatype>
						<trackindex>1</trackindex>
						<clipindex>74</clipindex>
					</link>
					<link>
						<linkclipref>DYR18109_01 7</linkclipref>
						<mediatype>audio</mediatype>
						<trackindex>2</trackindex>
						<clipindex>72</clipindex>
					</link>
					<fielddominance>upper</fielddominance>
					<itemhistory>
						<uuid>765CC6E4-3F60-4FAA-B1DC-0CE4F68DF4B5</uuid>
					</itemhistory>
				</clipitem>
				<clipitem id="DYR18109_01 8">
					<name>DYR18109_01</name>
					<duration>3056</duration>
					<rate>
						<ntsc>FALSE</ntsc>
						<timebase>25</timebase>
					</rate>
					<in>1721</in>
					<out>1828</out>
					<start>8333</start>
					<end>8440</end>
					<pixelaspectratio>Square</pixelaspectratio>
					<enabled>TRUE</enabled>
					<anamorphic>FALSE</anamorphic>
					<alphatype>none</alphatype>
					<masterclipid>DYR18109_01 1</masterclipid>
					<logginginfo>
						<scene/>
						<shottake/>
						<lognote/>
						<good>FALSE</good>
					</logginginfo>
					<labels>
						<label2/>
					</labels>
					<comments>
						<mastercomment1/>
						<mastercomment2/>
						<mastercomment3/>
						<mastercomment4/>
					</comments>
					<file id="DYR18109_01 2"/>
					<filter>
						<start>-1</start>
						<end>-1</end>
						<effect>
							<name>Color Corrector 3-way</name>
							<effectid>Color Corrector 3-way</effectid>
							<effectcategory>Color Correction</effectcategory>
							<effecttype>filter</effecttype>
							<mediatype>video</mediatype>
							<parameter>
								<parameterid>dispmode</parameterid>
								<name>Display Mode</name>
								<valuemin>1</valuemin>
								<valuemax>3</valuemax>
								<valuelist>
									<valueentry>
										<name>Final</name>
										<value>1</value>
									</valueentry>
									<valueentry>
										<name>Matte</name>
										<value>2</value>
									</valueentry>
									<valueentry>
										<name>Source</name>
										<value>3</value>
									</valueentry>
								</valuelist>
								<value>1</value>
							</parameter>
							<parameter>
								<parameterid>label1</parameterid>
								<name>Blacks Controls</name>
								<value/>
							</parameter>
							<parameter>
								<parameterid>blacklevel</parameterid>
								<name>Level</name>
								<valuemin>-196</valuemin>
								<valuemax>254</valuemax>
								<value>-2</value>
							</parameter>
							<parameter>
								<parameterid>b_hue</parameterid>
								<name>Angle</name>
								<valuemin>-180</valuemin>
								<valuemax>180</valuemax>
								<value>-33</value>
							</parameter>
							<parameter>
								<parameterid>b_mag</parameterid>
								<name>Magnitude</name>
								<valuemin>0</valuemin>
								<valuemax>200</valuemax>
								<value>0</value>
							</parameter>
							<parameter>
								<parameterid>label2</parameterid>
								<name>Midrange Controls</name>
								<value/>
							</parameter>
							<parameter>
								<parameterid>mids</parameterid>
								<name>Level</name>
								<valuemin>0</valuemin>
								<valuemax>200</valuemax>
								<value>117</value>
							</parameter>
							<parameter>
								<parameterid>m_hue</parameterid>
								<name>Angle</name>
								<valuemin>-180</valuemin>
								<valuemax>180</valuemax>
								<value>-33</value>
							</parameter>
							<parameter>
								<parameterid>m_mag</parameterid>
								<name>Magnitude</name>
								<valuemin>0</valuemin>
								<valuemax>200</valuemax>
								<value>0</value>
							</parameter>
							<parameter>
								<parameterid>label3</parameterid>
								<name>Highlight Controls</name>
								<value/>
							</parameter>
							<parameter>
								<parameterid>highlights</parameterid>
								<name>Level</name>
								<valuemin>64</valuemin>
								<valuemax>509</valuemax>
								<value>255</value>
							</parameter>
							<parameter>
								<parameterid>h_hue</parameterid>
								<name>Angle</name>
								<valuemin>-180</valuemin>
								<valuemax>180</valuemax>
								<value>-33</value>
							</parameter>
							<parameter>
								<parameterid>h_mag</parameterid>
								<name>Magnitude</name>
								<valuemin>0</valuemin>
								<valuemax>200</valuemax>
								<value>0</value>
							</parameter>
							<parameter>
								<parameterid>label4</parameterid>
								<name>Color Controls</name>
								<value/>
							</parameter>
							<parameter>
								<parameterid>chroma</parameterid>
								<name>Saturation</name>
								<valuemin>0</valuemin>
								<valuemax>200</valuemax>
								<value>121</value>
							</parameter>
							<parameter>
								<parameterid>label5</parameterid>
								<name>Limit Effect Controls</name>
								<value/>
							</parameter>
							<parameter>
								<parameterid>dochroma</parameterid>
								<name>Limit on Chroma</name>
								<value>FALSE</value>
							</parameter>
							<parameter>
								<parameterid>centerang</parameterid>
								<name>Chroma Center</name>
								<valuemin>-760</valuemin>
								<valuemax>760</valuemax>
								<value>-110</value>
							</parameter>
							<parameter>
								<parameterid>chromawidth</parameterid>
								<name>Chroma Width</name>
								<valuemin>0</valuemin>
								<valuemax>360</valuemax>
								<value>15</value>
							</parameter>
							<parameter>
								<parameterid>chromasoft</parameterid>
								<name>Chroma Softness</name>
								<valuemin>0</valuemin>
								<valuemax>180</valuemax>
								<value>10</value>
							</parameter>
							<parameter>
								<parameterid>dosat</parameterid>
								<name>Limit on Saturation</name>
								<value>FALSE</value>
							</parameter>
							<parameter>
								<parameterid>satmin</parameterid>
								<name>Sat. Minimum</name>
								<valuemin>0</valuemin>
								<valuemax>125</valuemax>
								<value>35</value>
							</parameter>
							<parameter>
								<parameterid>satwidth</parameterid>
								<name>Sat. Width</name>
								<valuemin>0</valuemin>
								<valuemax>125</valuemax>
								<value>40</value>
							</parameter>
							<parameter>
								<parameterid>satsoft</parameterid>
								<name>Sat. Softness</name>
								<valuemin>0</valuemin>
								<valuemax>125</valuemax>
								<value>20</value>
							</parameter>
							<parameter>
								<parameterid>doluma</parameterid>
								<name>Limit on Luma</name>
								<value>FALSE</value>
							</parameter>
							<parameter>
								<parameterid>lumamin</parameterid>
								<name>Luma Minimum</name>
								<valuemin>0</valuemin>
								<valuemax>120</valuemax>
								<value>0</value>
							</parameter>
							<parameter>
								<parameterid>lumawidth</parameterid>
								<name>Luma Width</name>
								<valuemin>0</valuemin>
								<valuemax>120</valuemax>
								<value>40</value>
							</parameter>
							<parameter>
								<parameterid>lumasoft</parameterid>
								<name>Luma Softness</name>
								<valuemin>0</valuemin>
								<valuemax>120</valuemax>
								<value>20</value>
							</parameter>
							<parameter>
								<parameterid>label6</parameterid>
								<name>Edge Control</name>
								<value/>
							</parameter>
							<parameter>
								<parameterid>edgethin</parameterid>
								<name>Thin/Spread</name>
								<valuemin>-100</valuemin>
								<valuemax>100</valuemax>
								<value>0</value>
							</parameter>
							<parameter>
								<parameterid>edgefeather</parameterid>
								<name>Softening</name>
								<valuemin>0</valuemin>
								<valuemax>100</valuemax>
								<value>0</value>
							</parameter>
							<parameter>
								<parameterid>label7</parameterid>
								<name>Mask Control</name>
								<value/>
							</parameter>
							<parameter>
								<parameterid>invertsel</parameterid>
								<name>Invert</name>
								<value>FALSE</value>
							</parameter>
							<parameter>
								<parameterid>debugshow</parameterid>
								<name>Show Stats</name>
								<value>FALSE</value>
							</parameter>
						</effect>
					</filter>
					<sourcetrack>
						<mediatype>video</mediatype>
					</sourcetrack>
					<link>
						<linkclipref>DYR18109_01 8</linkclipref>
						<mediatype>video</mediatype>
						<trackindex>1</trackindex>
						<clipindex>77</clipindex>
					</link>
					<link>
						<linkclipref>DYR18109_01 9</linkclipref>
						<mediatype>audio</mediatype>
						<trackindex>1</trackindex>
						<clipindex>75</clipindex>
					</link>
					<link>
						<linkclipref>DYR18109_01 10</linkclipref>
						<mediatype>audio</mediatype>
						<trackindex>2</trackindex>
						<clipindex>73</clipindex>
					</link>
					<fielddominance>upper</fielddominance>
					<itemhistory>
						<uuid>0863F77F-A849-4F16-BA76-DECCDFA3CAC4</uuid>
					</itemhistory>
				</clipitem>
				<clipitem id="DYR18110_01 ">
					<name>DYR18110_01</name>
					<duration>1835</duration>
					<rate>
						<ntsc>FALSE</ntsc>
						<timebase>25</timebase>
					</rate>
					<in>1432</in>
					<out>1570</out>
					<start>8440</start>
					<end>8578</end>
					<pixelaspectratio>Square</pixelaspectratio>
					<enabled>TRUE</enabled>
					<anamorphic>FALSE</anamorphic>
					<alphatype>none</alphatype>
					<masterclipid>DYR18110_01 1</masterclipid>
					<logginginfo>
						<scene/>
						<shottake/>
						<lognote/>
						<good>FALSE</good>
					</logginginfo>
					<labels>
						<label2/>
					</labels>
					<comments>
						<mastercomment1/>
						<mastercomment2/>
						<mastercomment3/>
						<mastercomment4/>
					</comments>
					<file id="DYR18110_01 2">
						<name>DYR18110_01.mov</name>
						<pathurl>file://localhost/Volumes/Askepott/Prosjekter/DNPR637010_Kra%CC%8Akeklubben_TEM_011212/Video/SKOGBARNA/Trollskog/DYR18110_01.mov</pathurl>
						<rate>
							<timebase>25</timebase>
						</rate>
						<duration>1835</duration>
						<metadata>
							<storage>QuickTime</storage>
							<key>com.sony.bprl.xdcamtransfer.version</key>
							<size>10</size>
							<type>UTF8</type>
							<value>2.12.0.631</value>
						</metadata>
						<metadata>
							<storage>QuickTime</storage>
							<key>org.smpte.mxf.package.material.packageid</key>
							<size>66</size>
							<type>UTF8</type>
							<value>0x060a2b340101010501010d4313000000eaa8918d395405d908004602022f05f5</value>
						</metadata>
						<metadata>
							<storage>QuickTime</storage>
							<key>com.sony.professionaldisc.nonrealtimemeta.lastupdate</key>
							<size>25</size>
							<type>UTF8</type>
							<value>2010-08-31 14:17:34 +0100</value>
						</metadata>
						<metadata>
							<storage>QuickTime</storage>
							<key>com.sony.bprl.mxf.umid</key>
							<size>64</size>
							<type>UTF8</type>
							<value>060a2b340101010501010d4313000000eaa8918d395405d908004602022f05f5</value>
						</metadata>
						<metadata>
							<storage>QuickTime</storage>
							<key>com.sony.bprl.mxf.nrtmetadata</key>
							<size>1994</size>
							<type>UTF8</type>
							<value>&lt;?xml version="1.0" encoding="UTF-8"?>&lt;NonRealTimeMeta xmlns="urn:schemas-professionalDisc:nonRealTimeMeta:ver.1.20" xmlns:lib="urn:schemas-professionalDisc:lib:ver.1.20" xmlns:xsi="http://www.w3.org/2001/XMLSchema-instance" lastUpdate="2010-08-31T14:17:34+01:00">&lt;TargetMaterial umidRef="060A2B340101010501010D4313000000EAA8918D395405D908004602022F05F5">&lt;/TargetMaterial>&lt;Duration value="1835">&lt;/Duration>&lt;LtcChangeTable tcFps="25" halfStep="false">&lt;LtcChange frameCount="0" value="04275006" status="increment">&lt;/LtcChange>&lt;LtcChange frameCount="1834" value="13405106" status="end">&lt;/LtcChange>&lt;/LtcChangeTable>&lt;CreationDate value="2010-08-31T14:16:19+01:00">&lt;/CreationDate>&lt;TypicalUbit value="0000000017061020">&lt;/TypicalUbit>&lt;BodyUmidBasicChangeTable>&lt;BodyUmidBasicChange frameCount="0" value="060A2B340101010501010D4333000000EAA8918D395405D908004602022F05F5" status="start">&lt;/BodyUmidBasicChange>&lt;/BodyUmidBasicChangeTable>&lt;BodyUmidWhenChangeTable>&lt;BodyUmidWhenChange frameCount="0" value="04808E04395405A5" status="increment">&lt;/BodyUmidWhenChange>&lt;BodyUmidWhenChange frameCount="1834" value="844A9004395405A5" status="end">&lt;/BodyUmidWhenChange>&lt;/BodyUmidWhenChangeTable>&lt;KlvPacketTable>&lt;KlvPacket key="060E2B34010101050301020A02000000" frameCount="0" lengthValue="095F5265635374617274" status="spot">&lt;/KlvPacket>&lt;/KlvPacketTable>&lt;VideoFormat>&lt;VideoRecPort port="DIRECT">&lt;/VideoRecPort>&lt;VideoFrame videoCodec="MPEG2HD35_1920_1080_MP@HL" captureFps="50.00i" recFps="50.00" formatFps="50i">&lt;/VideoFrame>&lt;VideoLayout pixel="1920" numOfVerticalLine="1080" aspectRatio="16:9">&lt;/VideoLayout>&lt;/VideoFormat>&lt;AudioFormat numOfChannel="2">&lt;AudioRecPort port="ANALOG" audioCodec="LPCM16" trackDst="CH1">&lt;/AudioRecPort>&lt;AudioRecPort port="ANALOG" audioCodec="LPCM16" trackDst="CH2">&lt;/AudioRecPort>&lt;/AudioFormat>&lt;Device manufacturer="Sony" modelName="PMW-EX3" serialNo="0401525">&lt;/Device>&lt;Lens modelName="VCL-614B2X">&lt;/Lens>&lt;RecordingMode type="normal" cacheRec="false">&lt;/RecordingMode>&lt;/NonRealTimeMeta>
							</value>
						</metadata>
						<metadata>
							<storage>QuickTime</storage>
							<key>com.apple.proapps.reel</key>
							<size>8</size>
							<type>UTF8</type>
							<value>Untitled</value>
						</metadata>
						<metadata>
							<storage>QuickTime</storage>
							<key>com.apple.proapps.clipID</key>
							<size>64</size>
							<type>UTF8</type>
							<value>060A2B340101010501010D4313000000EAA8918D395405D908004602022F05F5</value>
						</metadata>
						<metadata>
							<storage>QuickTime</storage>
							<key>com.apple.quicktime.information</key>
							<size>64</size>
							<type>UTF8</type>
							<value>060a2b340101010501010d4313000000eaa8918d395405d908004602022f05f5</value>
						</metadata>
						<metadata>
							<storage>QuickTime</storage>
							<key>com.apple.proapps.originalFormat</key>
							<size>36</size>
							<type>UTF8</type>
							<value>Apple XDCAM EX 1080i50 (35 Mb/s VBR)</value>
						</metadata>
						<timecode>
							<rate>
								<timebase>25</timebase>
							</rate>
							<string>06:50:27:04</string>
							<frame>615679</frame>
							<displayformat>NDF</displayformat>
							<source>source</source>
							<reel>
								<name>Untitled</name>
							</reel>
						</timecode>
						<media>
							<video>
								<duration>1835</duration>
								<samplecharacteristics>
									<width>1920</width>
									<height>1080</height>
								</samplecharacteristics>
							</video>
							<audio>
								<samplecharacteristics>
									<samplerate>48000</samplerate>
									<depth>16</depth>
								</samplecharacteristics>
								<channelcount>1</channelcount>
								<layout>mono</layout>
								<audiochannel>
									<sourcechannel>1</sourcechannel>
									<channellabel>discrete</channellabel>
								</audiochannel>
							</audio>
							<audio>
								<samplecharacteristics>
									<samplerate>48000</samplerate>
									<depth>16</depth>
								</samplecharacteristics>
								<channelcount>1</channelcount>
								<layout>mono</layout>
								<audiochannel>
									<sourcechannel>2</sourcechannel>
									<channellabel>discrete</channellabel>
								</audiochannel>
							</audio>
						</media>
					</file>
					<sourcetrack>
						<mediatype>video</mediatype>
					</sourcetrack>
					<link>
						<linkclipref>DYR18110_01 </linkclipref>
						<mediatype>video</mediatype>
						<trackindex>1</trackindex>
						<clipindex>78</clipindex>
					</link>
					<link>
						<linkclipref>DYR18110_01 3</linkclipref>
						<mediatype>audio</mediatype>
						<trackindex>1</trackindex>
						<clipindex>76</clipindex>
					</link>
					<link>
						<linkclipref>DYR18110_01 4</linkclipref>
						<mediatype>audio</mediatype>
						<trackindex>2</trackindex>
						<clipindex>74</clipindex>
					</link>
					<fielddominance>upper</fielddominance>
					<itemhistory>
						<uuid>4D5AD97A-C837-452C-A037-0A0A17673436</uuid>
					</itemhistory>
				</clipitem>
				<clipitem id="DYR18110_01 5">
					<name>DYR18110_01</name>
					<duration>1835</duration>
					<rate>
						<ntsc>FALSE</ntsc>
						<timebase>25</timebase>
					</rate>
					<in>248</in>
					<out>279</out>
					<start>8578</start>
					<end>8609</end>
					<pixelaspectratio>Square</pixelaspectratio>
					<enabled>TRUE</enabled>
					<anamorphic>FALSE</anamorphic>
					<alphatype>none</alphatype>
					<masterclipid>DYR18110_01 1</masterclipid>
					<logginginfo>
						<scene/>
						<shottake/>
						<lognote/>
						<good>FALSE</good>
					</logginginfo>
					<labels>
						<label2/>
					</labels>
					<comments>
						<mastercomment1/>
						<mastercomment2/>
						<mastercomment3/>
						<mastercomment4/>
					</comments>
					<file id="DYR18110_01 2"/>
					<filter>
						<start>-1</start>
						<end>-1</end>
						<effect>
							<name>Color Corrector 3-way</name>
							<effectid>Color Corrector 3-way</effectid>
							<effectcategory>Color Correction</effectcategory>
							<effecttype>filter</effecttype>
							<mediatype>video</mediatype>
							<parameter>
								<parameterid>dispmode</parameterid>
								<name>Display Mode</name>
								<valuemin>1</valuemin>
								<valuemax>3</valuemax>
								<valuelist>
									<valueentry>
										<name>Final</name>
										<value>1</value>
									</valueentry>
									<valueentry>
										<name>Matte</name>
										<value>2</value>
									</valueentry>
									<valueentry>
										<name>Source</name>
										<value>3</value>
									</valueentry>
								</valuelist>
								<value>1</value>
							</parameter>
							<parameter>
								<parameterid>label1</parameterid>
								<name>Blacks Controls</name>
								<value/>
							</parameter>
							<parameter>
								<parameterid>blacklevel</parameterid>
								<name>Level</name>
								<valuemin>-196</valuemin>
								<valuemax>254</valuemax>
								<value>-2</value>
							</parameter>
							<parameter>
								<parameterid>b_hue</parameterid>
								<name>Angle</name>
								<valuemin>-180</valuemin>
								<valuemax>180</valuemax>
								<value>-33</value>
							</parameter>
							<parameter>
								<parameterid>b_mag</parameterid>
								<name>Magnitude</name>
								<valuemin>0</valuemin>
								<valuemax>200</valuemax>
								<value>0</value>
							</parameter>
							<parameter>
								<parameterid>label2</parameterid>
								<name>Midrange Controls</name>
								<value/>
							</parameter>
							<parameter>
								<parameterid>mids</parameterid>
								<name>Level</name>
								<valuemin>0</valuemin>
								<valuemax>200</valuemax>
								<value>117</value>
							</parameter>
							<parameter>
								<parameterid>m_hue</parameterid>
								<name>Angle</name>
								<valuemin>-180</valuemin>
								<valuemax>180</valuemax>
								<value>-33</value>
							</parameter>
							<parameter>
								<parameterid>m_mag</parameterid>
								<name>Magnitude</name>
								<valuemin>0</valuemin>
								<valuemax>200</valuemax>
								<value>0</value>
							</parameter>
							<parameter>
								<parameterid>label3</parameterid>
								<name>Highlight Controls</name>
								<value/>
							</parameter>
							<parameter>
								<parameterid>highlights</parameterid>
								<name>Level</name>
								<valuemin>64</valuemin>
								<valuemax>509</valuemax>
								<value>255</value>
							</parameter>
							<parameter>
								<parameterid>h_hue</parameterid>
								<name>Angle</name>
								<valuemin>-180</valuemin>
								<valuemax>180</valuemax>
								<value>-33</value>
							</parameter>
							<parameter>
								<parameterid>h_mag</parameterid>
								<name>Magnitude</name>
								<valuemin>0</valuemin>
								<valuemax>200</valuemax>
								<value>0</value>
							</parameter>
							<parameter>
								<parameterid>label4</parameterid>
								<name>Color Controls</name>
								<value/>
							</parameter>
							<parameter>
								<parameterid>chroma</parameterid>
								<name>Saturation</name>
								<valuemin>0</valuemin>
								<valuemax>200</valuemax>
								<value>121</value>
							</parameter>
							<parameter>
								<parameterid>label5</parameterid>
								<name>Limit Effect Controls</name>
								<value/>
							</parameter>
							<parameter>
								<parameterid>dochroma</parameterid>
								<name>Limit on Chroma</name>
								<value>FALSE</value>
							</parameter>
							<parameter>
								<parameterid>centerang</parameterid>
								<name>Chroma Center</name>
								<valuemin>-760</valuemin>
								<valuemax>760</valuemax>
								<value>-110</value>
							</parameter>
							<parameter>
								<parameterid>chromawidth</parameterid>
								<name>Chroma Width</name>
								<valuemin>0</valuemin>
								<valuemax>360</valuemax>
								<value>15</value>
							</parameter>
							<parameter>
								<parameterid>chromasoft</parameterid>
								<name>Chroma Softness</name>
								<valuemin>0</valuemin>
								<valuemax>180</valuemax>
								<value>10</value>
							</parameter>
							<parameter>
								<parameterid>dosat</parameterid>
								<name>Limit on Saturation</name>
								<value>FALSE</value>
							</parameter>
							<parameter>
								<parameterid>satmin</parameterid>
								<name>Sat. Minimum</name>
								<valuemin>0</valuemin>
								<valuemax>125</valuemax>
								<value>35</value>
							</parameter>
							<parameter>
								<parameterid>satwidth</parameterid>
								<name>Sat. Width</name>
								<valuemin>0</valuemin>
								<valuemax>125</valuemax>
								<value>40</value>
							</parameter>
							<parameter>
								<parameterid>satsoft</parameterid>
								<name>Sat. Softness</name>
								<valuemin>0</valuemin>
								<valuemax>125</valuemax>
								<value>20</value>
							</parameter>
							<parameter>
								<parameterid>doluma</parameterid>
								<name>Limit on Luma</name>
								<value>FALSE</value>
							</parameter>
							<parameter>
								<parameterid>lumamin</parameterid>
								<name>Luma Minimum</name>
								<valuemin>0</valuemin>
								<valuemax>120</valuemax>
								<value>0</value>
							</parameter>
							<parameter>
								<parameterid>lumawidth</parameterid>
								<name>Luma Width</name>
								<valuemin>0</valuemin>
								<valuemax>120</valuemax>
								<value>40</value>
							</parameter>
							<parameter>
								<parameterid>lumasoft</parameterid>
								<name>Luma Softness</name>
								<valuemin>0</valuemin>
								<valuemax>120</valuemax>
								<value>20</value>
							</parameter>
							<parameter>
								<parameterid>label6</parameterid>
								<name>Edge Control</name>
								<value/>
							</parameter>
							<parameter>
								<parameterid>edgethin</parameterid>
								<name>Thin/Spread</name>
								<valuemin>-100</valuemin>
								<valuemax>100</valuemax>
								<value>0</value>
							</parameter>
							<parameter>
								<parameterid>edgefeather</parameterid>
								<name>Softening</name>
								<valuemin>0</valuemin>
								<valuemax>100</valuemax>
								<value>0</value>
							</parameter>
							<parameter>
								<parameterid>label7</parameterid>
								<name>Mask Control</name>
								<value/>
							</parameter>
							<parameter>
								<parameterid>invertsel</parameterid>
								<name>Invert</name>
								<value>FALSE</value>
							</parameter>
							<parameter>
								<parameterid>debugshow</parameterid>
								<name>Show Stats</name>
								<value>FALSE</value>
							</parameter>
						</effect>
					</filter>
					<sourcetrack>
						<mediatype>video</mediatype>
					</sourcetrack>
					<link>
						<linkclipref>DYR18110_01 5</linkclipref>
						<mediatype>video</mediatype>
						<trackindex>1</trackindex>
						<clipindex>79</clipindex>
					</link>
					<link>
						<linkclipref>DYR18110_01 6</linkclipref>
						<mediatype>audio</mediatype>
						<trackindex>1</trackindex>
						<clipindex>77</clipindex>
					</link>
					<link>
						<linkclipref>DYR18110_01 7</linkclipref>
						<mediatype>audio</mediatype>
						<trackindex>2</trackindex>
						<clipindex>75</clipindex>
					</link>
					<fielddominance>upper</fielddominance>
					<itemhistory>
						<uuid>A5A682C3-8D89-46F9-98BF-62E3CC1A9F52</uuid>
					</itemhistory>
				</clipitem>
				<clipitem id="DYR18110_01 8">
					<name>DYR18110_01</name>
					<duration>1835</duration>
					<rate>
						<ntsc>FALSE</ntsc>
						<timebase>25</timebase>
					</rate>
					<in>1679</in>
					<out>1739</out>
					<start>8609</start>
					<end>8669</end>
					<pixelaspectratio>Square</pixelaspectratio>
					<enabled>TRUE</enabled>
					<anamorphic>FALSE</anamorphic>
					<alphatype>none</alphatype>
					<masterclipid>DYR18110_01 1</masterclipid>
					<logginginfo>
						<scene/>
						<shottake/>
						<lognote/>
						<good>FALSE</good>
					</logginginfo>
					<labels>
						<label2/>
					</labels>
					<comments>
						<mastercomment1/>
						<mastercomment2/>
						<mastercomment3/>
						<mastercomment4/>
					</comments>
					<file id="DYR18110_01 2"/>
					<sourcetrack>
						<mediatype>video</mediatype>
					</sourcetrack>
					<link>
						<linkclipref>DYR18110_01 8</linkclipref>
						<mediatype>video</mediatype>
						<trackindex>1</trackindex>
						<clipindex>80</clipindex>
					</link>
					<link>
						<linkclipref>DYR18110_01 9</linkclipref>
						<mediatype>audio</mediatype>
						<trackindex>1</trackindex>
						<clipindex>78</clipindex>
					</link>
					<link>
						<linkclipref>DYR18110_01 10</linkclipref>
						<mediatype>audio</mediatype>
						<trackindex>2</trackindex>
						<clipindex>76</clipindex>
					</link>
					<fielddominance>upper</fielddominance>
					<itemhistory>
						<uuid>A678BDEC-7DA3-42B4-A1C8-FFFE140C9EAB</uuid>
					</itemhistory>
				</clipitem>
				<clipitem id="DYR18104_01 4">
					<name>DYR18104_01</name>
					<duration>1992</duration>
					<rate>
						<ntsc>FALSE</ntsc>
						<timebase>25</timebase>
					</rate>
					<in>1465</in>
					<out>1499</out>
					<start>8669</start>
					<end>8703</end>
					<pixelaspectratio>Square</pixelaspectratio>
					<enabled>TRUE</enabled>
					<anamorphic>FALSE</anamorphic>
					<alphatype>none</alphatype>
					<masterclipid>DYR18104_01 1</masterclipid>
					<logginginfo>
						<scene/>
						<shottake/>
						<lognote/>
						<good>FALSE</good>
					</logginginfo>
					<labels>
						<label2/>
					</labels>
					<comments>
						<mastercomment1/>
						<mastercomment2/>
						<mastercomment3/>
						<mastercomment4/>
					</comments>
					<file id="DYR18104_01 2"/>
					<filter>
						<enabled>TRUE</enabled>
						<start>-1</start>
						<end>-1</end>
						<effect>
							<name>Color Corrector 3-way</name>
							<effectid>Color Corrector 3-way</effectid>
							<effectcategory>Color Correction</effectcategory>
							<effecttype>filter</effecttype>
							<mediatype>video</mediatype>
							<parameter>
								<parameterid>dispmode</parameterid>
								<name>Display Mode</name>
								<valuemin>1</valuemin>
								<valuemax>3</valuemax>
								<valuelist>
									<valueentry>
										<name>Final</name>
										<value>1</value>
									</valueentry>
									<valueentry>
										<name>Matte</name>
										<value>2</value>
									</valueentry>
									<valueentry>
										<name>Source</name>
										<value>3</value>
									</valueentry>
								</valuelist>
								<value>1</value>
							</parameter>
							<parameter>
								<parameterid>label1</parameterid>
								<name>Blacks Controls</name>
								<value/>
							</parameter>
							<parameter>
								<parameterid>blacklevel</parameterid>
								<name>Level</name>
								<valuemin>-196</valuemin>
								<valuemax>254</valuemax>
								<value>-2</value>
							</parameter>
							<parameter>
								<parameterid>b_hue</parameterid>
								<name>Angle</name>
								<valuemin>-180</valuemin>
								<valuemax>180</valuemax>
								<value>-33</value>
							</parameter>
							<parameter>
								<parameterid>b_mag</parameterid>
								<name>Magnitude</name>
								<valuemin>0</valuemin>
								<valuemax>200</valuemax>
								<value>0</value>
							</parameter>
							<parameter>
								<parameterid>label2</parameterid>
								<name>Midrange Controls</name>
								<value/>
							</parameter>
							<parameter>
								<parameterid>mids</parameterid>
								<name>Level</name>
								<valuemin>0</valuemin>
								<valuemax>200</valuemax>
								<value>117</value>
							</parameter>
							<parameter>
								<parameterid>m_hue</parameterid>
								<name>Angle</name>
								<valuemin>-180</valuemin>
								<valuemax>180</valuemax>
								<value>-33</value>
							</parameter>
							<parameter>
								<parameterid>m_mag</parameterid>
								<name>Magnitude</name>
								<valuemin>0</valuemin>
								<valuemax>200</valuemax>
								<value>0</value>
							</parameter>
							<parameter>
								<parameterid>label3</parameterid>
								<name>Highlight Controls</name>
								<value/>
							</parameter>
							<parameter>
								<parameterid>highlights</parameterid>
								<name>Level</name>
								<valuemin>64</valuemin>
								<valuemax>509</valuemax>
								<value>255</value>
							</parameter>
							<parameter>
								<parameterid>h_hue</parameterid>
								<name>Angle</name>
								<valuemin>-180</valuemin>
								<valuemax>180</valuemax>
								<value>-33</value>
							</parameter>
							<parameter>
								<parameterid>h_mag</parameterid>
								<name>Magnitude</name>
								<valuemin>0</valuemin>
								<valuemax>200</valuemax>
								<value>0</value>
							</parameter>
							<parameter>
								<parameterid>label4</parameterid>
								<name>Color Controls</name>
								<value/>
							</parameter>
							<parameter>
								<parameterid>chroma</parameterid>
								<name>Saturation</name>
								<valuemin>0</valuemin>
								<valuemax>200</valuemax>
								<value>121</value>
							</parameter>
							<parameter>
								<parameterid>label5</parameterid>
								<name>Limit Effect Controls</name>
								<value/>
							</parameter>
							<parameter>
								<parameterid>dochroma</parameterid>
								<name>Limit on Chroma</name>
								<value>FALSE</value>
							</parameter>
							<parameter>
								<parameterid>centerang</parameterid>
								<name>Chroma Center</name>
								<valuemin>-760</valuemin>
								<valuemax>760</valuemax>
								<value>-110</value>
							</parameter>
							<parameter>
								<parameterid>chromawidth</parameterid>
								<name>Chroma Width</name>
								<valuemin>0</valuemin>
								<valuemax>360</valuemax>
								<value>15</value>
							</parameter>
							<parameter>
								<parameterid>chromasoft</parameterid>
								<name>Chroma Softness</name>
								<valuemin>0</valuemin>
								<valuemax>180</valuemax>
								<value>10</value>
							</parameter>
							<parameter>
								<parameterid>dosat</parameterid>
								<name>Limit on Saturation</name>
								<value>FALSE</value>
							</parameter>
							<parameter>
								<parameterid>satmin</parameterid>
								<name>Sat. Minimum</name>
								<valuemin>0</valuemin>
								<valuemax>125</valuemax>
								<value>35</value>
							</parameter>
							<parameter>
								<parameterid>satwidth</parameterid>
								<name>Sat. Width</name>
								<valuemin>0</valuemin>
								<valuemax>125</valuemax>
								<value>40</value>
							</parameter>
							<parameter>
								<parameterid>satsoft</parameterid>
								<name>Sat. Softness</name>
								<valuemin>0</valuemin>
								<valuemax>125</valuemax>
								<value>20</value>
							</parameter>
							<parameter>
								<parameterid>doluma</parameterid>
								<name>Limit on Luma</name>
								<value>FALSE</value>
							</parameter>
							<parameter>
								<parameterid>lumamin</parameterid>
								<name>Luma Minimum</name>
								<valuemin>0</valuemin>
								<valuemax>120</valuemax>
								<value>0</value>
							</parameter>
							<parameter>
								<parameterid>lumawidth</parameterid>
								<name>Luma Width</name>
								<valuemin>0</valuemin>
								<valuemax>120</valuemax>
								<value>40</value>
							</parameter>
							<parameter>
								<parameterid>lumasoft</parameterid>
								<name>Luma Softness</name>
								<valuemin>0</valuemin>
								<valuemax>120</valuemax>
								<value>20</value>
							</parameter>
							<parameter>
								<parameterid>label6</parameterid>
								<name>Edge Control</name>
								<value/>
							</parameter>
							<parameter>
								<parameterid>edgethin</parameterid>
								<name>Thin/Spread</name>
								<valuemin>-100</valuemin>
								<valuemax>100</valuemax>
								<value>0</value>
							</parameter>
							<parameter>
								<parameterid>edgefeather</parameterid>
								<name>Softening</name>
								<valuemin>0</valuemin>
								<valuemax>100</valuemax>
								<value>0</value>
							</parameter>
							<parameter>
								<parameterid>label7</parameterid>
								<name>Mask Control</name>
								<value/>
							</parameter>
							<parameter>
								<parameterid>invertsel</parameterid>
								<name>Invert</name>
								<value>FALSE</value>
							</parameter>
							<parameter>
								<parameterid>debugshow</parameterid>
								<name>Show Stats</name>
								<value>FALSE</value>
							</parameter>
						</effect>
					</filter>
					<sourcetrack>
						<mediatype>video</mediatype>
					</sourcetrack>
					<link>
						<linkclipref>DYR18104_01 4</linkclipref>
						<mediatype>video</mediatype>
						<trackindex>1</trackindex>
						<clipindex>81</clipindex>
					</link>
					<link>
						<linkclipref>DYR18104_01 5</linkclipref>
						<mediatype>audio</mediatype>
						<trackindex>1</trackindex>
						<clipindex>79</clipindex>
					</link>
					<fielddominance>upper</fielddominance>
					<itemhistory>
						<uuid>B298CDDB-F499-440C-B772-56066EBB55E4</uuid>
					</itemhistory>
				</clipitem>
				<clipitem id="DYR18110_01 11">
					<name>DYR18110_01</name>
					<duration>1835</duration>
					<rate>
						<ntsc>FALSE</ntsc>
						<timebase>25</timebase>
					</rate>
					<in>1592</in>
					<out>1632</out>
					<start>8703</start>
					<end>8743</end>
					<pixelaspectratio>Square</pixelaspectratio>
					<enabled>TRUE</enabled>
					<anamorphic>FALSE</anamorphic>
					<alphatype>none</alphatype>
					<masterclipid>DYR18110_01 1</masterclipid>
					<logginginfo>
						<scene/>
						<shottake/>
						<lognote/>
						<good>FALSE</good>
					</logginginfo>
					<labels>
						<label2/>
					</labels>
					<comments>
						<mastercomment1/>
						<mastercomment2/>
						<mastercomment3/>
						<mastercomment4/>
					</comments>
					<file id="DYR18110_01 2"/>
					<sourcetrack>
						<mediatype>video</mediatype>
					</sourcetrack>
					<link>
						<linkclipref>DYR18110_01 11</linkclipref>
						<mediatype>video</mediatype>
						<trackindex>1</trackindex>
						<clipindex>82</clipindex>
					</link>
					<link>
						<linkclipref>DYR18110_01 12</linkclipref>
						<mediatype>audio</mediatype>
						<trackindex>1</trackindex>
						<clipindex>80</clipindex>
					</link>
					<link>
						<linkclipref>DYR18110_01 13</linkclipref>
						<mediatype>audio</mediatype>
						<trackindex>2</trackindex>
						<clipindex>77</clipindex>
					</link>
					<fielddominance>upper</fielddominance>
					<itemhistory>
						<uuid>8F4EC889-9D2E-4F56-8839-421CD8B4623D</uuid>
					</itemhistory>
				</clipitem>
				<clipitem id="DYR18112_01 ">
					<name>DYR18112_01</name>
					<duration>1428</duration>
					<rate>
						<ntsc>FALSE</ntsc>
						<timebase>25</timebase>
					</rate>
					<in>118</in>
					<out>212</out>
					<start>8743</start>
					<end>8837</end>
					<pixelaspectratio>Square</pixelaspectratio>
					<enabled>TRUE</enabled>
					<anamorphic>FALSE</anamorphic>
					<alphatype>none</alphatype>
					<masterclipid>DYR18112_01 1</masterclipid>
					<logginginfo>
						<scene/>
						<shottake/>
						<lognote/>
						<good>FALSE</good>
					</logginginfo>
					<labels>
						<label2/>
					</labels>
					<comments>
						<mastercomment1/>
						<mastercomment2/>
						<mastercomment3/>
						<mastercomment4/>
					</comments>
					<file id="DYR18112_01 2">
						<name>DYR18112_01.mov</name>
						<pathurl>file://localhost/Volumes/Askepott/Prosjekter/DNPR637010_Kra%CC%8Akeklubben_TEM_011212/Video/SKOGBARNA/Trollskog/DYR18112_01.mov</pathurl>
						<rate>
							<timebase>25</timebase>
						</rate>
						<duration>1428</duration>
						<metadata>
							<storage>QuickTime</storage>
							<key>com.sony.bprl.xdcamtransfer.version</key>
							<size>10</size>
							<type>UTF8</type>
							<value>2.12.0.631</value>
						</metadata>
						<metadata>
							<storage>QuickTime</storage>
							<key>org.smpte.mxf.package.material.packageid</key>
							<size>66</size>
							<type>UTF8</type>
							<value>0x060a2b340101010501010d4313000000f2bf208e395405df08004602022f05f5</value>
						</metadata>
						<metadata>
							<storage>QuickTime</storage>
							<key>com.sony.professionaldisc.nonrealtimemeta.lastupdate</key>
							<size>25</size>
							<type>UTF8</type>
							<value>2010-08-31 14:20:26 +0100</value>
						</metadata>
						<metadata>
							<storage>QuickTime</storage>
							<key>com.sony.bprl.mxf.umid</key>
							<size>64</size>
							<type>UTF8</type>
							<value>060a2b340101010501010d4313000000f2bf208e395405df08004602022f05f5</value>
						</metadata>
						<metadata>
							<storage>QuickTime</storage>
							<key>com.sony.bprl.mxf.nrtmetadata</key>
							<size>1994</size>
							<type>UTF8</type>
							<value>&lt;?xml version="1.0" encoding="UTF-8"?>&lt;NonRealTimeMeta xmlns="urn:schemas-professionalDisc:nonRealTimeMeta:ver.1.20" xmlns:lib="urn:schemas-professionalDisc:lib:ver.1.20" xmlns:xsi="http://www.w3.org/2001/XMLSchema-instance" lastUpdate="2010-08-31T14:20:26+01:00">&lt;TargetMaterial umidRef="060A2B340101010501010D4313000000F2BF208E395405DF08004602022F05F5">&lt;/TargetMaterial>&lt;Duration value="1428">&lt;/Duration>&lt;LtcChangeTable tcFps="25" halfStep="false">&lt;LtcChange frameCount="0" value="03265206" status="increment">&lt;/LtcChange>&lt;LtcChange frameCount="1427" value="05235306" status="end">&lt;/LtcChange>&lt;/LtcChangeTable>&lt;CreationDate value="2010-08-31T14:19:28+01:00">&lt;/CreationDate>&lt;TypicalUbit value="0000000017061020">&lt;/TypicalUbit>&lt;BodyUmidBasicChangeTable>&lt;BodyUmidBasicChange frameCount="0" value="060A2B340101010501010D4333000000F2BF208E395405DF08004602022F05F5" status="start">&lt;/BodyUmidBasicChange>&lt;/BodyUmidBasicChangeTable>&lt;BodyUmidWhenChangeTable>&lt;BodyUmidWhenChange frameCount="0" value="041B9304395405A5" status="increment">&lt;/BodyUmidWhenChange>&lt;BodyUmidWhenChange frameCount="1427" value="C47F9404395405A5" status="end">&lt;/BodyUmidWhenChange>&lt;/BodyUmidWhenChangeTable>&lt;KlvPacketTable>&lt;KlvPacket key="060E2B34010101050301020A02000000" frameCount="0" lengthValue="095F5265635374617274" status="spot">&lt;/KlvPacket>&lt;/KlvPacketTable>&lt;VideoFormat>&lt;VideoRecPort port="DIRECT">&lt;/VideoRecPort>&lt;VideoFrame videoCodec="MPEG2HD35_1920_1080_MP@HL" captureFps="50.00i" recFps="50.00" formatFps="50i">&lt;/VideoFrame>&lt;VideoLayout pixel="1920" numOfVerticalLine="1080" aspectRatio="16:9">&lt;/VideoLayout>&lt;/VideoFormat>&lt;AudioFormat numOfChannel="2">&lt;AudioRecPort port="ANALOG" audioCodec="LPCM16" trackDst="CH1">&lt;/AudioRecPort>&lt;AudioRecPort port="ANALOG" audioCodec="LPCM16" trackDst="CH2">&lt;/AudioRecPort>&lt;/AudioFormat>&lt;Device manufacturer="Sony" modelName="PMW-EX3" serialNo="0401525">&lt;/Device>&lt;Lens modelName="VCL-614B2X">&lt;/Lens>&lt;RecordingMode type="normal" cacheRec="false">&lt;/RecordingMode>&lt;/NonRealTimeMeta>
							</value>
						</metadata>
						<metadata>
							<storage>QuickTime</storage>
							<key>com.apple.proapps.reel</key>
							<size>8</size>
							<type>UTF8</type>
							<value>Untitled</value>
						</metadata>
						<metadata>
							<storage>QuickTime</storage>
							<key>com.apple.proapps.clipID</key>
							<size>64</size>
							<type>UTF8</type>
							<value>060A2B340101010501010D4313000000F2BF208E395405DF08004602022F05F5</value>
						</metadata>
						<metadata>
							<storage>QuickTime</storage>
							<key>com.apple.quicktime.information</key>
							<size>64</size>
							<type>UTF8</type>
							<value>060a2b340101010501010d4313000000f2bf208e395405df08004602022f05f5</value>
						</metadata>
						<metadata>
							<storage>QuickTime</storage>
							<key>com.apple.proapps.originalFormat</key>
							<size>36</size>
							<type>UTF8</type>
							<value>Apple XDCAM EX 1080i50 (35 Mb/s VBR)</value>
						</metadata>
						<timecode>
							<rate>
								<timebase>25</timebase>
							</rate>
							<string>06:52:26:03</string>
							<frame>618653</frame>
							<displayformat>NDF</displayformat>
							<source>source</source>
							<reel>
								<name>Untitled</name>
							</reel>
						</timecode>
						<media>
							<video>
								<duration>1428</duration>
								<samplecharacteristics>
									<width>1920</width>
									<height>1080</height>
								</samplecharacteristics>
							</video>
							<audio>
								<samplecharacteristics>
									<samplerate>48000</samplerate>
									<depth>16</depth>
								</samplecharacteristics>
								<channelcount>1</channelcount>
								<layout>mono</layout>
								<audiochannel>
									<sourcechannel>1</sourcechannel>
									<channellabel>discrete</channellabel>
								</audiochannel>
							</audio>
							<audio>
								<samplecharacteristics>
									<samplerate>48000</samplerate>
									<depth>16</depth>
								</samplecharacteristics>
								<channelcount>1</channelcount>
								<layout>mono</layout>
								<audiochannel>
									<sourcechannel>2</sourcechannel>
									<channellabel>discrete</channellabel>
								</audiochannel>
							</audio>
						</media>
					</file>
					<sourcetrack>
						<mediatype>video</mediatype>
					</sourcetrack>
					<link>
						<linkclipref>DYR18112_01 </linkclipref>
						<mediatype>video</mediatype>
						<trackindex>1</trackindex>
						<clipindex>83</clipindex>
					</link>
					<link>
						<linkclipref>DYR18112_01 3</linkclipref>
						<mediatype>audio</mediatype>
						<trackindex>1</trackindex>
						<clipindex>81</clipindex>
					</link>
					<link>
						<linkclipref>DYR18112_01 4</linkclipref>
						<mediatype>audio</mediatype>
						<trackindex>2</trackindex>
						<clipindex>78</clipindex>
					</link>
					<fielddominance>upper</fielddominance>
					<itemhistory>
						<uuid>509C6E65-67C7-4DF6-8E34-D3593F068ED2</uuid>
					</itemhistory>
				</clipitem>
				<clipitem id="DYR18113_01 ">
					<name>DYR18113_01</name>
					<duration>2161</duration>
					<rate>
						<ntsc>FALSE</ntsc>
						<timebase>25</timebase>
					</rate>
					<in>418</in>
					<out>471</out>
					<start>8837</start>
					<end>8890</end>
					<pixelaspectratio>Square</pixelaspectratio>
					<enabled>TRUE</enabled>
					<anamorphic>FALSE</anamorphic>
					<alphatype>none</alphatype>
					<masterclipid>DYR18113_01 1</masterclipid>
					<logginginfo>
						<scene/>
						<shottake/>
						<lognote/>
						<good>FALSE</good>
					</logginginfo>
					<labels>
						<label2/>
					</labels>
					<comments>
						<mastercomment1/>
						<mastercomment2/>
						<mastercomment3/>
						<mastercomment4/>
					</comments>
					<file id="DYR18113_01 2">
						<name>DYR18113_01.mov</name>
						<pathurl>file://localhost/Volumes/Askepott/Prosjekter/DNPR637010_Kra%CC%8Akeklubben_TEM_011212/Video/SKOGBARNA/Trollskog/DYR18113_01.mov</pathurl>
						<rate>
							<timebase>25</timebase>
						</rate>
						<duration>2161</duration>
						<metadata>
							<storage>QuickTime</storage>
							<key>com.sony.bprl.xdcamtransfer.version</key>
							<size>10</size>
							<type>UTF8</type>
							<value>2.12.0.631</value>
						</metadata>
						<metadata>
							<storage>QuickTime</storage>
							<key>org.smpte.mxf.package.material.packageid</key>
							<size>66</size>
							<type>UTF8</type>
							<value>0x060a2b340101010501010d43130000008610568e395405cf08004602022f05f5</value>
						</metadata>
						<metadata>
							<storage>QuickTime</storage>
							<key>com.sony.professionaldisc.nonrealtimemeta.lastupdate</key>
							<size>25</size>
							<type>UTF8</type>
							<value>2010-08-31 14:22:05 +0100</value>
						</metadata>
						<metadata>
							<storage>QuickTime</storage>
							<key>com.sony.bprl.mxf.umid</key>
							<size>64</size>
							<type>UTF8</type>
							<value>060a2b340101010501010d43130000008610568e395405cf08004602022f05f5</value>
						</metadata>
						<metadata>
							<storage>QuickTime</storage>
							<key>com.sony.bprl.mxf.nrtmetadata</key>
							<size>1994</size>
							<type>UTF8</type>
							<value>&lt;?xml version="1.0" encoding="UTF-8"?>&lt;NonRealTimeMeta xmlns="urn:schemas-professionalDisc:nonRealTimeMeta:ver.1.20" xmlns:lib="urn:schemas-professionalDisc:lib:ver.1.20" xmlns:xsi="http://www.w3.org/2001/XMLSchema-instance" lastUpdate="2010-08-31T14:22:05+01:00">&lt;TargetMaterial umidRef="060A2B340101010501010D43130000008610568E395405CF08004602022F05F5">&lt;/TargetMaterial>&lt;Duration value="2161">&lt;/Duration>&lt;LtcChangeTable tcFps="25" halfStep="false">&lt;LtcChange frameCount="0" value="06235306" status="increment">&lt;/LtcChange>&lt;LtcChange frameCount="2160" value="16495406" status="end">&lt;/LtcChange>&lt;/LtcChangeTable>&lt;CreationDate value="2010-08-31T14:20:38+01:00">&lt;/CreationDate>&lt;TypicalUbit value="0000000017061020">&lt;/TypicalUbit>&lt;BodyUmidBasicChangeTable>&lt;BodyUmidBasicChange frameCount="0" value="060A2B340101010501010D43330000008610568E395405CF08004602022F05F5" status="start">&lt;/BodyUmidBasicChange>&lt;/BodyUmidBasicChangeTable>&lt;BodyUmidWhenChangeTable>&lt;BodyUmidWhenChange frameCount="0" value="44D29404395405A5" status="increment">&lt;/BodyUmidWhenChange>&lt;BodyUmidWhenChange frameCount="2160" value="44EE9604395405A5" status="end">&lt;/BodyUmidWhenChange>&lt;/BodyUmidWhenChangeTable>&lt;KlvPacketTable>&lt;KlvPacket key="060E2B34010101050301020A02000000" frameCount="0" lengthValue="095F5265635374617274" status="spot">&lt;/KlvPacket>&lt;/KlvPacketTable>&lt;VideoFormat>&lt;VideoRecPort port="DIRECT">&lt;/VideoRecPort>&lt;VideoFrame videoCodec="MPEG2HD35_1920_1080_MP@HL" captureFps="50.00i" recFps="50.00" formatFps="50i">&lt;/VideoFrame>&lt;VideoLayout pixel="1920" numOfVerticalLine="1080" aspectRatio="16:9">&lt;/VideoLayout>&lt;/VideoFormat>&lt;AudioFormat numOfChannel="2">&lt;AudioRecPort port="ANALOG" audioCodec="LPCM16" trackDst="CH1">&lt;/AudioRecPort>&lt;AudioRecPort port="ANALOG" audioCodec="LPCM16" trackDst="CH2">&lt;/AudioRecPort>&lt;/AudioFormat>&lt;Device manufacturer="Sony" modelName="PMW-EX3" serialNo="0401525">&lt;/Device>&lt;Lens modelName="VCL-614B2X">&lt;/Lens>&lt;RecordingMode type="normal" cacheRec="false">&lt;/RecordingMode>&lt;/NonRealTimeMeta>
							</value>
						</metadata>
						<metadata>
							<storage>QuickTime</storage>
							<key>com.apple.proapps.reel</key>
							<size>8</size>
							<type>UTF8</type>
							<value>Untitled</value>
						</metadata>
						<metadata>
							<storage>QuickTime</storage>
							<key>com.apple.proapps.clipID</key>
							<size>64</size>
							<type>UTF8</type>
							<value>060A2B340101010501010D43130000008610568E395405CF08004602022F05F5</value>
						</metadata>
						<metadata>
							<storage>QuickTime</storage>
							<key>com.apple.quicktime.information</key>
							<size>64</size>
							<type>UTF8</type>
							<value>060a2b340101010501010d43130000008610568e395405cf08004602022f05f5</value>
						</metadata>
						<metadata>
							<storage>QuickTime</storage>
							<key>com.apple.proapps.originalFormat</key>
							<size>36</size>
							<type>UTF8</type>
							<value>Apple XDCAM EX 1080i50 (35 Mb/s VBR)</value>
						</metadata>
						<timecode>
							<rate>
								<timebase>25</timebase>
							</rate>
							<string>06:53:23:06</string>
							<frame>620081</frame>
							<displayformat>NDF</displayformat>
							<source>source</source>
							<reel>
								<name>Untitled</name>
							</reel>
						</timecode>
						<media>
							<video>
								<duration>2161</duration>
								<samplecharacteristics>
									<width>1920</width>
									<height>1080</height>
								</samplecharacteristics>
							</video>
							<audio>
								<samplecharacteristics>
									<samplerate>48000</samplerate>
									<depth>16</depth>
								</samplecharacteristics>
								<channelcount>1</channelcount>
								<layout>mono</layout>
								<audiochannel>
									<sourcechannel>1</sourcechannel>
									<channellabel>discrete</channellabel>
								</audiochannel>
							</audio>
							<audio>
								<samplecharacteristics>
									<samplerate>48000</samplerate>
									<depth>16</depth>
								</samplecharacteristics>
								<channelcount>1</channelcount>
								<layout>mono</layout>
								<audiochannel>
									<sourcechannel>2</sourcechannel>
									<channellabel>discrete</channellabel>
								</audiochannel>
							</audio>
						</media>
					</file>
					<sourcetrack>
						<mediatype>video</mediatype>
					</sourcetrack>
					<fielddominance>upper</fielddominance>
					<itemhistory>
						<uuid>01C03D2A-4BF6-4D2E-9348-4E040F656E7A</uuid>
					</itemhistory>
				</clipitem>
				<clipitem id="DYR18112_01 5">
					<name>DYR18112_01</name>
					<duration>1428</duration>
					<rate>
						<ntsc>FALSE</ntsc>
						<timebase>25</timebase>
					</rate>
					<in>245</in>
					<out>350</out>
					<start>8890</start>
					<end>8995</end>
					<pixelaspectratio>Square</pixelaspectratio>
					<enabled>TRUE</enabled>
					<anamorphic>FALSE</anamorphic>
					<alphatype>none</alphatype>
					<masterclipid>DYR18112_01 1</masterclipid>
					<logginginfo>
						<scene/>
						<shottake/>
						<lognote/>
						<good>FALSE</good>
					</logginginfo>
					<labels>
						<label2/>
					</labels>
					<comments>
						<mastercomment1/>
						<mastercomment2/>
						<mastercomment3/>
						<mastercomment4/>
					</comments>
					<file id="DYR18112_01 2"/>
					<sourcetrack>
						<mediatype>video</mediatype>
					</sourcetrack>
					<link>
						<linkclipref>DYR18112_01 5</linkclipref>
						<mediatype>video</mediatype>
						<trackindex>1</trackindex>
						<clipindex>85</clipindex>
					</link>
					<link>
						<linkclipref>DYR18112_01 6</linkclipref>
						<mediatype>audio</mediatype>
						<trackindex>1</trackindex>
						<clipindex>82</clipindex>
					</link>
					<link>
						<linkclipref>DYR18112_01 7</linkclipref>
						<mediatype>audio</mediatype>
						<trackindex>2</trackindex>
						<clipindex>79</clipindex>
					</link>
					<fielddominance>upper</fielddominance>
					<itemhistory>
						<uuid>B95116F4-204C-404C-8F8C-6A8C2D686728</uuid>
					</itemhistory>
				</clipitem>
				<clipitem id="DYR18117_01 ">
					<name>DYR18117_01</name>
					<duration>758</duration>
					<rate>
						<ntsc>FALSE</ntsc>
						<timebase>25</timebase>
					</rate>
					<in>96</in>
					<out>234</out>
					<start>9039</start>
					<end>9177</end>
					<pixelaspectratio>Square</pixelaspectratio>
					<enabled>TRUE</enabled>
					<anamorphic>FALSE</anamorphic>
					<alphatype>none</alphatype>
					<masterclipid>DYR18117_01 1</masterclipid>
					<logginginfo>
						<scene/>
						<shottake/>
						<lognote/>
						<good>FALSE</good>
					</logginginfo>
					<labels>
						<label2/>
					</labels>
					<comments>
						<mastercomment1/>
						<mastercomment2/>
						<mastercomment3/>
						<mastercomment4/>
					</comments>
					<file id="DYR18117_01 2">
						<name>DYR18117_01.mov</name>
						<pathurl>file://localhost/Volumes/Askepott/Prosjekter/DNPR637010_Kra%CC%8Akeklubben_TEM_011212/Video/SKOGBARNA/Trollskog/DYR18117_01.mov</pathurl>
						<rate>
							<timebase>25</timebase>
						</rate>
						<duration>758</duration>
						<metadata>
							<storage>QuickTime</storage>
							<key>com.sony.bprl.xdcamtransfer.version</key>
							<size>10</size>
							<type>UTF8</type>
							<value>2.12.0.631</value>
						</metadata>
						<metadata>
							<storage>QuickTime</storage>
							<key>org.smpte.mxf.package.material.packageid</key>
							<size>66</size>
							<type>UTF8</type>
							<value>0x060a2b340101010501010d43130000009479888f395405cb08004602022f05f5</value>
						</metadata>
						<metadata>
							<storage>QuickTime</storage>
							<key>com.sony.professionaldisc.nonrealtimemeta.lastupdate</key>
							<size>25</size>
							<type>UTF8</type>
							<value>2010-08-31 14:27:54 +0100</value>
						</metadata>
						<metadata>
							<storage>QuickTime</storage>
							<key>com.sony.bprl.mxf.umid</key>
							<size>64</size>
							<type>UTF8</type>
							<value>060a2b340101010501010d43130000009479888f395405cb08004602022f05f5</value>
						</metadata>
						<metadata>
							<storage>QuickTime</storage>
							<key>com.sony.bprl.mxf.nrtmetadata</key>
							<size>1991</size>
							<type>UTF8</type>
							<value>&lt;?xml version="1.0" encoding="UTF-8"?>&lt;NonRealTimeMeta xmlns="urn:schemas-professionalDisc:nonRealTimeMeta:ver.1.20" xmlns:lib="urn:schemas-professionalDisc:lib:ver.1.20" xmlns:xsi="http://www.w3.org/2001/XMLSchema-instance" lastUpdate="2010-08-31T14:27:54+01:00">&lt;TargetMaterial umidRef="060A2B340101010501010D43130000009479888F395405CB08004602022F05F5">&lt;/TargetMaterial>&lt;Duration value="758">&lt;/Duration>&lt;LtcChangeTable tcFps="25" halfStep="false">&lt;LtcChange frameCount="0" value="24525506" status="increment">&lt;/LtcChange>&lt;LtcChange frameCount="757" value="06235606" status="end">&lt;/LtcChange>&lt;/LtcChangeTable>&lt;CreationDate value="2010-08-31T14:27:22+01:00">&lt;/CreationDate>&lt;TypicalUbit value="0000000017061020">&lt;/TypicalUbit>&lt;BodyUmidBasicChangeTable>&lt;BodyUmidBasicChange frameCount="0" value="060A2B340101010501010D43330000009479888F395405CB08004602022F05F5" status="start">&lt;/BodyUmidBasicChange>&lt;/BodyUmidBasicChangeTable>&lt;BodyUmidWhenChangeTable>&lt;BodyUmidWhenChange frameCount="0" value="44AF9E04395405A5" status="increment">&lt;/BodyUmidWhenChange>&lt;BodyUmidWhenChange frameCount="757" value="846C9F04395405A5" status="end">&lt;/BodyUmidWhenChange>&lt;/BodyUmidWhenChangeTable>&lt;KlvPacketTable>&lt;KlvPacket key="060E2B34010101050301020A02000000" frameCount="0" lengthValue="095F5265635374617274" status="spot">&lt;/KlvPacket>&lt;/KlvPacketTable>&lt;VideoFormat>&lt;VideoRecPort port="DIRECT">&lt;/VideoRecPort>&lt;VideoFrame videoCodec="MPEG2HD35_1920_1080_MP@HL" captureFps="50.00i" recFps="50.00" formatFps="50i">&lt;/VideoFrame>&lt;VideoLayout pixel="1920" numOfVerticalLine="1080" aspectRatio="16:9">&lt;/VideoLayout>&lt;/VideoFormat>&lt;AudioFormat numOfChannel="2">&lt;AudioRecPort port="ANALOG" audioCodec="LPCM16" trackDst="CH1">&lt;/AudioRecPort>&lt;AudioRecPort port="ANALOG" audioCodec="LPCM16" trackDst="CH2">&lt;/AudioRecPort>&lt;/AudioFormat>&lt;Device manufacturer="Sony" modelName="PMW-EX3" serialNo="0401525">&lt;/Device>&lt;Lens modelName="VCL-614B2X">&lt;/Lens>&lt;RecordingMode type="normal" cacheRec="false">&lt;/RecordingMode>&lt;/NonRealTimeMeta>
							</value>
						</metadata>
						<metadata>
							<storage>QuickTime</storage>
							<key>com.apple.proapps.reel</key>
							<size>8</size>
							<type>UTF8</type>
							<value>Untitled</value>
						</metadata>
						<metadata>
							<storage>QuickTime</storage>
							<key>com.apple.proapps.clipID</key>
							<size>64</size>
							<type>UTF8</type>
							<value>060A2B340101010501010D43130000009479888F395405CB08004602022F05F5</value>
						</metadata>
						<metadata>
							<storage>QuickTime</storage>
							<key>com.apple.quicktime.information</key>
							<size>64</size>
							<type>UTF8</type>
							<value>060a2b340101010501010d43130000009479888f395405cb08004602022f05f5</value>
						</metadata>
						<metadata>
							<storage>QuickTime</storage>
							<key>com.apple.proapps.originalFormat</key>
							<size>36</size>
							<type>UTF8</type>
							<value>Apple XDCAM EX 1080i50 (35 Mb/s VBR)</value>
						</metadata>
						<timecode>
							<rate>
								<timebase>25</timebase>
							</rate>
							<string>06:55:52:24</string>
							<frame>623824</frame>
							<displayformat>NDF</displayformat>
							<source>source</source>
							<reel>
								<name>Untitled</name>
							</reel>
						</timecode>
						<media>
							<video>
								<duration>758</duration>
								<samplecharacteristics>
									<width>1920</width>
									<height>1080</height>
								</samplecharacteristics>
							</video>
							<audio>
								<samplecharacteristics>
									<samplerate>48000</samplerate>
									<depth>16</depth>
								</samplecharacteristics>
								<channelcount>1</channelcount>
								<layout>mono</layout>
								<audiochannel>
									<sourcechannel>1</sourcechannel>
									<channellabel>discrete</channellabel>
								</audiochannel>
							</audio>
							<audio>
								<samplecharacteristics>
									<samplerate>48000</samplerate>
									<depth>16</depth>
								</samplecharacteristics>
								<channelcount>1</channelcount>
								<layout>mono</layout>
								<audiochannel>
									<sourcechannel>2</sourcechannel>
									<channellabel>discrete</channellabel>
								</audiochannel>
							</audio>
						</media>
					</file>
					<sourcetrack>
						<mediatype>video</mediatype>
					</sourcetrack>
					<fielddominance>upper</fielddominance>
					<itemhistory>
						<uuid>83A02CB9-86D0-41EE-B716-5F8185875075</uuid>
					</itemhistory>
				</clipitem>
				<clipitem id="DYR18118_01 ">
					<name>DYR18118_01</name>
					<duration>1491</duration>
					<rate>
						<ntsc>FALSE</ntsc>
						<timebase>25</timebase>
					</rate>
					<in>1036</in>
					<out>1123</out>
					<start>9177</start>
					<end>9264</end>
					<pixelaspectratio>Square</pixelaspectratio>
					<enabled>TRUE</enabled>
					<anamorphic>FALSE</anamorphic>
					<alphatype>none</alphatype>
					<masterclipid>DYR18118_01 1</masterclipid>
					<logginginfo>
						<scene/>
						<shottake/>
						<lognote/>
						<good>FALSE</good>
					</logginginfo>
					<labels>
						<label2/>
					</labels>
					<comments>
						<mastercomment1/>
						<mastercomment2/>
						<mastercomment3/>
						<mastercomment4/>
					</comments>
					<file id="DYR18118_01 2">
						<name>DYR18118_01.mov</name>
						<pathurl>file://localhost/Volumes/Askepott/Prosjekter/DNPR637010_Kra%CC%8Akeklubben_TEM_011212/Video/SKOGBARNA/Trollskog/DYR18118_01.mov</pathurl>
						<rate>
							<timebase>25</timebase>
						</rate>
						<duration>1491</duration>
						<metadata>
							<storage>QuickTime</storage>
							<key>com.sony.bprl.xdcamtransfer.version</key>
							<size>10</size>
							<type>UTF8</type>
							<value>2.12.0.631</value>
						</metadata>
						<metadata>
							<storage>QuickTime</storage>
							<key>org.smpte.mxf.package.material.packageid</key>
							<size>66</size>
							<type>UTF8</type>
							<value>0x060a2b340101010501010d4313000000c18fcd8f395405d808004602022f05f5</value>
						</metadata>
						<metadata>
							<storage>QuickTime</storage>
							<key>com.sony.professionaldisc.nonrealtimemeta.lastupdate</key>
							<size>25</size>
							<type>UTF8</type>
							<value>2010-08-31 14:29:54 +0100</value>
						</metadata>
						<metadata>
							<storage>QuickTime</storage>
							<key>com.sony.bprl.mxf.umid</key>
							<size>64</size>
							<type>UTF8</type>
							<value>060a2b340101010501010d4313000000c18fcd8f395405d808004602022f05f5</value>
						</metadata>
						<metadata>
							<storage>QuickTime</storage>
							<key>com.sony.bprl.mxf.nrtmetadata</key>
							<size>1994</size>
							<type>UTF8</type>
							<value>&lt;?xml version="1.0" encoding="UTF-8"?>&lt;NonRealTimeMeta xmlns="urn:schemas-professionalDisc:nonRealTimeMeta:ver.1.20" xmlns:lib="urn:schemas-professionalDisc:lib:ver.1.20" xmlns:xsi="http://www.w3.org/2001/XMLSchema-instance" lastUpdate="2010-08-31T14:29:54+01:00">&lt;TargetMaterial umidRef="060A2B340101010501010D4313000000C18FCD8F395405D808004602022F05F5">&lt;/TargetMaterial>&lt;Duration value="1491">&lt;/Duration>&lt;LtcChangeTable tcFps="25" halfStep="false">&lt;LtcChange frameCount="0" value="07235606" status="increment">&lt;/LtcChange>&lt;LtcChange frameCount="1490" value="22225706" status="end">&lt;/LtcChange>&lt;/LtcChangeTable>&lt;CreationDate value="2010-08-31T14:28:53+01:00">&lt;/CreationDate>&lt;TypicalUbit value="0000000017061020">&lt;/TypicalUbit>&lt;BodyUmidBasicChangeTable>&lt;BodyUmidBasicChange frameCount="0" value="060A2B340101010501010D4333000000C18FCD8F395405D808004602022F05F5" status="start">&lt;/BodyUmidBasicChange>&lt;/BodyUmidBasicChangeTable>&lt;BodyUmidWhenChangeTable>&lt;BodyUmidWhenChange frameCount="0" value="84E8A004395405A5" status="increment">&lt;/BodyUmidWhenChange>&lt;BodyUmidWhenChange frameCount="1490" value="045DA204395405A5" status="end">&lt;/BodyUmidWhenChange>&lt;/BodyUmidWhenChangeTable>&lt;KlvPacketTable>&lt;KlvPacket key="060E2B34010101050301020A02000000" frameCount="0" lengthValue="095F5265635374617274" status="spot">&lt;/KlvPacket>&lt;/KlvPacketTable>&lt;VideoFormat>&lt;VideoRecPort port="DIRECT">&lt;/VideoRecPort>&lt;VideoFrame videoCodec="MPEG2HD35_1920_1080_MP@HL" captureFps="50.00i" recFps="50.00" formatFps="50i">&lt;/VideoFrame>&lt;VideoLayout pixel="1920" numOfVerticalLine="1080" aspectRatio="16:9">&lt;/VideoLayout>&lt;/VideoFormat>&lt;AudioFormat numOfChannel="2">&lt;AudioRecPort port="ANALOG" audioCodec="LPCM16" trackDst="CH1">&lt;/AudioRecPort>&lt;AudioRecPort port="ANALOG" audioCodec="LPCM16" trackDst="CH2">&lt;/AudioRecPort>&lt;/AudioFormat>&lt;Device manufacturer="Sony" modelName="PMW-EX3" serialNo="0401525">&lt;/Device>&lt;Lens modelName="VCL-614B2X">&lt;/Lens>&lt;RecordingMode type="normal" cacheRec="false">&lt;/RecordingMode>&lt;/NonRealTimeMeta>
							</value>
						</metadata>
						<metadata>
							<storage>QuickTime</storage>
							<key>com.apple.proapps.reel</key>
							<size>8</size>
							<type>UTF8</type>
							<value>Untitled</value>
						</metadata>
						<metadata>
							<storage>QuickTime</storage>
							<key>com.apple.proapps.clipID</key>
							<size>64</size>
							<type>UTF8</type>
							<value>060A2B340101010501010D4313000000C18FCD8F395405D808004602022F05F5</value>
						</metadata>
						<metadata>
							<storage>QuickTime</storage>
							<key>com.apple.quicktime.information</key>
							<size>64</size>
							<type>UTF8</type>
							<value>060a2b340101010501010d4313000000c18fcd8f395405d808004602022f05f5</value>
						</metadata>
						<metadata>
							<storage>QuickTime</storage>
							<key>com.apple.proapps.originalFormat</key>
							<size>36</size>
							<type>UTF8</type>
							<value>Apple XDCAM EX 1080i50 (35 Mb/s VBR)</value>
						</metadata>
						<timecode>
							<rate>
								<timebase>25</timebase>
							</rate>
							<string>06:56:23:07</string>
							<frame>624582</frame>
							<displayformat>NDF</displayformat>
							<source>source</source>
							<reel>
								<name>Untitled</name>
							</reel>
						</timecode>
						<media>
							<video>
								<duration>1491</duration>
								<samplecharacteristics>
									<width>1920</width>
									<height>1080</height>
								</samplecharacteristics>
							</video>
							<audio>
								<samplecharacteristics>
									<samplerate>48000</samplerate>
									<depth>16</depth>
								</samplecharacteristics>
								<channelcount>1</channelcount>
								<layout>mono</layout>
								<audiochannel>
									<sourcechannel>1</sourcechannel>
									<channellabel>discrete</channellabel>
								</audiochannel>
							</audio>
							<audio>
								<samplecharacteristics>
									<samplerate>48000</samplerate>
									<depth>16</depth>
								</samplecharacteristics>
								<channelcount>1</channelcount>
								<layout>mono</layout>
								<audiochannel>
									<sourcechannel>2</sourcechannel>
									<channellabel>discrete</channellabel>
								</audiochannel>
							</audio>
						</media>
					</file>
					<sourcetrack>
						<mediatype>video</mediatype>
					</sourcetrack>
					<link>
						<linkclipref>DYR18118_01 </linkclipref>
						<mediatype>video</mediatype>
						<trackindex>1</trackindex>
						<clipindex>87</clipindex>
					</link>
					<link>
						<linkclipref>DYR18118_01 3</linkclipref>
						<mediatype>audio</mediatype>
						<trackindex>1</trackindex>
						<clipindex>85</clipindex>
					</link>
					<link>
						<linkclipref>DYR18118_01 4</linkclipref>
						<mediatype>audio</mediatype>
						<trackindex>2</trackindex>
						<clipindex>82</clipindex>
					</link>
					<fielddominance>upper</fielddominance>
					<itemhistory>
						<uuid>37833E94-EA61-410A-BBF4-14F33F8C317B</uuid>
					</itemhistory>
				</clipitem>
				<clipitem id="DYR18121_01 ">
					<name>DYR18121_01</name>
					<duration>244</duration>
					<rate>
						<ntsc>FALSE</ntsc>
						<timebase>25</timebase>
					</rate>
					<in>62</in>
					<out>128</out>
					<start>9264</start>
					<end>9330</end>
					<pixelaspectratio>Square</pixelaspectratio>
					<enabled>TRUE</enabled>
					<anamorphic>FALSE</anamorphic>
					<alphatype>none</alphatype>
					<masterclipid>DYR18121_01 1</masterclipid>
					<logginginfo>
						<scene/>
						<shottake/>
						<lognote/>
						<good>FALSE</good>
					</logginginfo>
					<labels>
						<label2/>
					</labels>
					<comments>
						<mastercomment1/>
						<mastercomment2/>
						<mastercomment3/>
						<mastercomment4/>
					</comments>
					<file id="DYR18121_01 2">
						<name>DYR18121_01.mov</name>
						<pathurl>file://localhost/Volumes/Askepott/Prosjekter/DNPR637010_Kra%CC%8Akeklubben_TEM_011212/Video/SKOGBARNA/Trollskog/DYR18121_01.mov</pathurl>
						<rate>
							<timebase>25</timebase>
						</rate>
						<duration>244</duration>
						<metadata>
							<storage>QuickTime</storage>
							<key>com.sony.bprl.xdcamtransfer.version</key>
							<size>10</size>
							<type>UTF8</type>
							<value>2.12.0.631</value>
						</metadata>
						<metadata>
							<storage>QuickTime</storage>
							<key>org.smpte.mxf.package.material.packageid</key>
							<size>66</size>
							<type>UTF8</type>
							<value>0x060a2b340101010501010d431300000015039190395405ce08004602022f05f5</value>
						</metadata>
						<metadata>
							<storage>QuickTime</storage>
							<key>com.sony.professionaldisc.nonrealtimemeta.lastupdate</key>
							<size>25</size>
							<type>UTF8</type>
							<value>2010-08-31 14:33:22 +0100</value>
						</metadata>
						<metadata>
							<storage>QuickTime</storage>
							<key>com.sony.bprl.mxf.umid</key>
							<size>64</size>
							<type>UTF8</type>
							<value>060a2b340101010501010d431300000015039190395405ce08004602022f05f5</value>
						</metadata>
						<metadata>
							<storage>QuickTime</storage>
							<key>com.sony.bprl.mxf.nrtmetadata</key>
							<size>1991</size>
							<type>UTF8</type>
							<value>&lt;?xml version="1.0" encoding="UTF-8"?>&lt;NonRealTimeMeta xmlns="urn:schemas-professionalDisc:nonRealTimeMeta:ver.1.20" xmlns:lib="urn:schemas-professionalDisc:lib:ver.1.20" xmlns:xsi="http://www.w3.org/2001/XMLSchema-instance" lastUpdate="2010-08-31T14:33:22+01:00">&lt;TargetMaterial umidRef="060A2B340101010501010D431300000015039190395405CE08004602022F05F5">&lt;/TargetMaterial>&lt;Duration value="244">&lt;/Duration>&lt;LtcChangeTable tcFps="25" halfStep="false">&lt;LtcChange frameCount="0" value="24255906" status="increment">&lt;/LtcChange>&lt;LtcChange frameCount="243" value="17355906" status="end">&lt;/LtcChange>&lt;/LtcChangeTable>&lt;CreationDate value="2010-08-31T14:33:11+01:00">&lt;/CreationDate>&lt;TypicalUbit value="0000000017061020">&lt;/TypicalUbit>&lt;BodyUmidBasicChangeTable>&lt;BodyUmidBasicChange frameCount="0" value="060A2B340101010501010D433300000015039190395405CE08004602022F05F5" status="start">&lt;/BodyUmidBasicChange>&lt;/BodyUmidBasicChangeTable>&lt;BodyUmidWhenChangeTable>&lt;BodyUmidWhenChange frameCount="0" value="0433A704395405A5" status="increment">&lt;/BodyUmidWhenChange>&lt;BodyUmidWhenChange frameCount="243" value="C46FA704395405A5" status="end">&lt;/BodyUmidWhenChange>&lt;/BodyUmidWhenChangeTable>&lt;KlvPacketTable>&lt;KlvPacket key="060E2B34010101050301020A02000000" frameCount="0" lengthValue="095F5265635374617274" status="spot">&lt;/KlvPacket>&lt;/KlvPacketTable>&lt;VideoFormat>&lt;VideoRecPort port="DIRECT">&lt;/VideoRecPort>&lt;VideoFrame videoCodec="MPEG2HD35_1920_1080_MP@HL" captureFps="50.00i" recFps="50.00" formatFps="50i">&lt;/VideoFrame>&lt;VideoLayout pixel="1920" numOfVerticalLine="1080" aspectRatio="16:9">&lt;/VideoLayout>&lt;/VideoFormat>&lt;AudioFormat numOfChannel="2">&lt;AudioRecPort port="ANALOG" audioCodec="LPCM16" trackDst="CH1">&lt;/AudioRecPort>&lt;AudioRecPort port="ANALOG" audioCodec="LPCM16" trackDst="CH2">&lt;/AudioRecPort>&lt;/AudioFormat>&lt;Device manufacturer="Sony" modelName="PMW-EX3" serialNo="0401525">&lt;/Device>&lt;Lens modelName="VCL-614B2X">&lt;/Lens>&lt;RecordingMode type="normal" cacheRec="false">&lt;/RecordingMode>&lt;/NonRealTimeMeta>
							</value>
						</metadata>
						<metadata>
							<storage>QuickTime</storage>
							<key>com.apple.proapps.reel</key>
							<size>8</size>
							<type>UTF8</type>
							<value>Untitled</value>
						</metadata>
						<metadata>
							<storage>QuickTime</storage>
							<key>com.apple.proapps.clipID</key>
							<size>64</size>
							<type>UTF8</type>
							<value>060A2B340101010501010D431300000015039190395405CE08004602022F05F5</value>
						</metadata>
						<metadata>
							<storage>QuickTime</storage>
							<key>com.apple.quicktime.information</key>
							<size>64</size>
							<type>UTF8</type>
							<value>060a2b340101010501010d431300000015039190395405ce08004602022f05f5</value>
						</metadata>
						<metadata>
							<storage>QuickTime</storage>
							<key>com.apple.proapps.originalFormat</key>
							<size>36</size>
							<type>UTF8</type>
							<value>Apple XDCAM EX 1080i50 (35 Mb/s VBR)</value>
						</metadata>
						<timecode>
							<rate>
								<timebase>25</timebase>
							</rate>
							<string>06:59:25:24</string>
							<frame>629149</frame>
							<displayformat>NDF</displayformat>
							<source>source</source>
							<reel>
								<name>Untitled</name>
							</reel>
						</timecode>
						<media>
							<video>
								<duration>244</duration>
								<samplecharacteristics>
									<width>1920</width>
									<height>1080</height>
								</samplecharacteristics>
							</video>
							<audio>
								<samplecharacteristics>
									<samplerate>48000</samplerate>
									<depth>16</depth>
								</samplecharacteristics>
								<channelcount>1</channelcount>
								<layout>mono</layout>
								<audiochannel>
									<sourcechannel>1</sourcechannel>
									<channellabel>discrete</channellabel>
								</audiochannel>
							</audio>
							<audio>
								<samplecharacteristics>
									<samplerate>48000</samplerate>
									<depth>16</depth>
								</samplecharacteristics>
								<channelcount>1</channelcount>
								<layout>mono</layout>
								<audiochannel>
									<sourcechannel>2</sourcechannel>
									<channellabel>discrete</channellabel>
								</audiochannel>
							</audio>
						</media>
					</file>
					<sourcetrack>
						<mediatype>video</mediatype>
					</sourcetrack>
					<link>
						<linkclipref>DYR18121_01 </linkclipref>
						<mediatype>video</mediatype>
						<trackindex>1</trackindex>
						<clipindex>88</clipindex>
					</link>
					<link>
						<linkclipref>DYR18121_01 3</linkclipref>
						<mediatype>audio</mediatype>
						<trackindex>1</trackindex>
						<clipindex>86</clipindex>
					</link>
					<link>
						<linkclipref>DYR18121_01 4</linkclipref>
						<mediatype>audio</mediatype>
						<trackindex>2</trackindex>
						<clipindex>83</clipindex>
					</link>
					<fielddominance>upper</fielddominance>
					<itemhistory>
						<uuid>C2709A47-CDCE-44F9-B2CD-50977A4CCC9B</uuid>
					</itemhistory>
				</clipitem>
				<clipitem id="DYR18118_01 5">
					<name>DYR18118_01</name>
					<duration>1491</duration>
					<rate>
						<ntsc>FALSE</ntsc>
						<timebase>25</timebase>
					</rate>
					<in>433</in>
					<out>532</out>
					<start>9330</start>
					<end>9429</end>
					<pixelaspectratio>Square</pixelaspectratio>
					<enabled>TRUE</enabled>
					<anamorphic>FALSE</anamorphic>
					<alphatype>none</alphatype>
					<masterclipid>DYR18118_01 1</masterclipid>
					<logginginfo>
						<scene/>
						<shottake/>
						<lognote/>
						<good>FALSE</good>
					</logginginfo>
					<labels>
						<label2/>
					</labels>
					<comments>
						<mastercomment1/>
						<mastercomment2/>
						<mastercomment3/>
						<mastercomment4/>
					</comments>
					<file id="DYR18118_01 2"/>
					<sourcetrack>
						<mediatype>video</mediatype>
					</sourcetrack>
					<link>
						<linkclipref>DYR18118_01 5</linkclipref>
						<mediatype>video</mediatype>
						<trackindex>1</trackindex>
						<clipindex>89</clipindex>
					</link>
					<link>
						<linkclipref>DYR18118_01 6</linkclipref>
						<mediatype>audio</mediatype>
						<trackindex>1</trackindex>
						<clipindex>88</clipindex>
					</link>
					<link>
						<linkclipref>DYR18118_01 7</linkclipref>
						<mediatype>audio</mediatype>
						<trackindex>2</trackindex>
						<clipindex>85</clipindex>
					</link>
					<fielddominance>upper</fielddominance>
					<itemhistory>
						<uuid>1E027F8A-E678-4765-B926-E6C9CC2F8CA6</uuid>
					</itemhistory>
				</clipitem>
				<clipitem id="DYR18120_01 ">
					<name>DYR18120_01</name>
					<duration>2788</duration>
					<rate>
						<ntsc>FALSE</ntsc>
						<timebase>25</timebase>
					</rate>
					<in>1389</in>
					<out>1467</out>
					<start>9429</start>
					<end>-1</end>
					<pixelaspectratio>Square</pixelaspectratio>
					<enabled>TRUE</enabled>
					<anamorphic>FALSE</anamorphic>
					<alphatype>none</alphatype>
					<masterclipid>DYR18120_01 1</masterclipid>
					<logginginfo>
						<scene/>
						<shottake/>
						<lognote/>
						<good>FALSE</good>
					</logginginfo>
					<labels>
						<label2/>
					</labels>
					<comments>
						<mastercomment1/>
						<mastercomment2/>
						<mastercomment3/>
						<mastercomment4/>
					</comments>
					<file id="DYR18120_01 2">
						<name>DYR18120_01.mov</name>
						<pathurl>file://localhost/Volumes/Askepott/Prosjekter/DNPR637010_Kra%CC%8Akeklubben_TEM_011212/Video/SKOGBARNA/Trollskog/DYR18120_01.mov</pathurl>
						<rate>
							<timebase>25</timebase>
						</rate>
						<duration>2788</duration>
						<metadata>
							<storage>QuickTime</storage>
							<key>com.sony.bprl.xdcamtransfer.version</key>
							<size>10</size>
							<type>UTF8</type>
							<value>2.12.0.631</value>
						</metadata>
						<metadata>
							<storage>QuickTime</storage>
							<key>org.smpte.mxf.package.material.packageid</key>
							<size>66</size>
							<type>UTF8</type>
							<value>0x060a2b340101010501010d4313000000f83c2790395405df08004602022f05f5</value>
						</metadata>
						<metadata>
							<storage>QuickTime</storage>
							<key>com.sony.professionaldisc.nonrealtimemeta.lastupdate</key>
							<size>25</size>
							<type>UTF8</type>
							<value>2010-08-31 14:32:44 +0100</value>
						</metadata>
						<metadata>
							<storage>QuickTime</storage>
							<key>com.sony.bprl.mxf.umid</key>
							<size>64</size>
							<type>UTF8</type>
							<value>060a2b340101010501010d4313000000f83c2790395405df08004602022f05f5</value>
						</metadata>
						<metadata>
							<storage>QuickTime</storage>
							<key>com.sony.bprl.mxf.nrtmetadata</key>
							<size>1994</size>
							<type>UTF8</type>
							<value>&lt;?xml version="1.0" encoding="UTF-8"?>&lt;NonRealTimeMeta xmlns="urn:schemas-professionalDisc:nonRealTimeMeta:ver.1.20" xmlns:lib="urn:schemas-professionalDisc:lib:ver.1.20" xmlns:xsi="http://www.w3.org/2001/XMLSchema-instance" lastUpdate="2010-08-31T14:32:44+01:00">&lt;TargetMaterial umidRef="060A2B340101010501010D4313000000F83C2790395405DF08004602022F05F5">&lt;/TargetMaterial>&lt;Duration value="2788">&lt;/Duration>&lt;LtcChangeTable tcFps="25" halfStep="false">&lt;LtcChange frameCount="0" value="11345706" status="increment">&lt;/LtcChange>&lt;LtcChange frameCount="2787" value="23255906" status="end">&lt;/LtcChange>&lt;/LtcChangeTable>&lt;CreationDate value="2010-08-31T14:30:51+01:00">&lt;/CreationDate>&lt;TypicalUbit value="0000000017061020">&lt;/TypicalUbit>&lt;BodyUmidBasicChangeTable>&lt;BodyUmidBasicChange frameCount="0" value="060A2B340101010501010D4333000000F83C2790395405DF08004602022F05F5" status="start">&lt;/BodyUmidBasicChange>&lt;/BodyUmidBasicChangeTable>&lt;BodyUmidWhenChangeTable>&lt;BodyUmidWhenChange frameCount="0" value="44CBA304395405A5" status="increment">&lt;/BodyUmidWhenChange>&lt;BodyUmidWhenChange frameCount="2787" value="0484A604395405A5" status="end">&lt;/BodyUmidWhenChange>&lt;/BodyUmidWhenChangeTable>&lt;KlvPacketTable>&lt;KlvPacket key="060E2B34010101050301020A02000000" frameCount="0" lengthValue="095F5265635374617274" status="spot">&lt;/KlvPacket>&lt;/KlvPacketTable>&lt;VideoFormat>&lt;VideoRecPort port="DIRECT">&lt;/VideoRecPort>&lt;VideoFrame videoCodec="MPEG2HD35_1920_1080_MP@HL" captureFps="50.00i" recFps="50.00" formatFps="50i">&lt;/VideoFrame>&lt;VideoLayout pixel="1920" numOfVerticalLine="1080" aspectRatio="16:9">&lt;/VideoLayout>&lt;/VideoFormat>&lt;AudioFormat numOfChannel="2">&lt;AudioRecPort port="ANALOG" audioCodec="LPCM16" trackDst="CH1">&lt;/AudioRecPort>&lt;AudioRecPort port="ANALOG" audioCodec="LPCM16" trackDst="CH2">&lt;/AudioRecPort>&lt;/AudioFormat>&lt;Device manufacturer="Sony" modelName="PMW-EX3" serialNo="0401525">&lt;/Device>&lt;Lens modelName="VCL-614B2X">&lt;/Lens>&lt;RecordingMode type="normal" cacheRec="false">&lt;/RecordingMode>&lt;/NonRealTimeMeta>
							</value>
						</metadata>
						<metadata>
							<storage>QuickTime</storage>
							<key>com.apple.proapps.reel</key>
							<size>8</size>
							<type>UTF8</type>
							<value>Untitled</value>
						</metadata>
						<metadata>
							<storage>QuickTime</storage>
							<key>com.apple.proapps.clipID</key>
							<size>64</size>
							<type>UTF8</type>
							<value>060A2B340101010501010D4313000000F83C2790395405DF08004602022F05F5</value>
						</metadata>
						<metadata>
							<storage>QuickTime</storage>
							<key>com.apple.quicktime.information</key>
							<size>64</size>
							<type>UTF8</type>
							<value>060a2b340101010501010d4313000000f83c2790395405df08004602022f05f5</value>
						</metadata>
						<metadata>
							<storage>QuickTime</storage>
							<key>com.apple.proapps.originalFormat</key>
							<size>36</size>
							<type>UTF8</type>
							<value>Apple XDCAM EX 1080i50 (35 Mb/s VBR)</value>
						</metadata>
						<timecode>
							<rate>
								<timebase>25</timebase>
							</rate>
							<string>06:57:34:11</string>
							<frame>626361</frame>
							<displayformat>NDF</displayformat>
							<source>source</source>
							<reel>
								<name>Untitled</name>
							</reel>
						</timecode>
						<media>
							<video>
								<duration>2788</duration>
								<samplecharacteristics>
									<width>1920</width>
									<height>1080</height>
								</samplecharacteristics>
							</video>
							<audio>
								<samplecharacteristics>
									<samplerate>48000</samplerate>
									<depth>16</depth>
								</samplecharacteristics>
								<channelcount>1</channelcount>
								<layout>mono</layout>
								<audiochannel>
									<sourcechannel>1</sourcechannel>
									<channellabel>discrete</channellabel>
								</audiochannel>
							</audio>
							<audio>
								<samplecharacteristics>
									<samplerate>48000</samplerate>
									<depth>16</depth>
								</samplecharacteristics>
								<channelcount>1</channelcount>
								<layout>mono</layout>
								<audiochannel>
									<sourcechannel>2</sourcechannel>
									<channellabel>discrete</channellabel>
								</audiochannel>
							</audio>
						</media>
					</file>
					<filter>
						<start>-1</start>
						<end>-1</end>
						<effect>
							<name>G Simple Curves +20 white curve</name>
							<effectcategory>Nattress Big Box of Tricks - Levels and Curves</effectcategory>
							<effecttype>filter</effecttype>
							<mediatype>video</mediatype>
							<parameter>
								<parameterid>colourspace</parameterid>
								<name>Colour Space</name>
								<valuemin>1</valuemin>
								<valuemax>2</valuemax>
								<valuelist>
									<valueentry>
										<name>RGB</name>
										<value>1</value>
									</valueentry>
									<valueentry>
										<name>Y'CbCr</name>
										<value>2</value>
									</valueentry>
								</valuelist>
								<value>2</value>
							</parameter>
							<parameter>
								<parameterid>showcurves</parameterid>
								<name>Show Curves</name>
								<value>FALSE</value>
							</parameter>
							<parameter>
								<parameterid>lvar</parameterid>
								<name>Levels Controls</name>
								<value>string</value>
							</parameter>
							<parameter>
								<parameterid>inw</parameterid>
								<name>White Level</name>
								<valuemin>0</valuemin>
								<valuemax>255</valuemax>
								<value>255</value>
							</parameter>
							<parameter>
								<parameterid>inb</parameterid>
								<name>Black Level</name>
								<valuemin>0</valuemin>
								<valuemax>255</valuemax>
								<value>0</value>
							</parameter>
							<parameter>
								<parameterid>outw</parameterid>
								<name>White Output</name>
								<valuemin>0</valuemin>
								<valuemax>255</valuemax>
								<value>255</value>
							</parameter>
							<parameter>
								<parameterid>outb</parameterid>
								<name>Black Output</name>
								<valuemin>0</valuemin>
								<valuemax>255</valuemax>
								<value>0</value>
							</parameter>
							<parameter>
								<parameterid>cvar</parameterid>
								<name>Curves Controls</name>
								<value>string</value>
							</parameter>
							<parameter>
								<parameterid>curvew</parameterid>
								<name>White Curve</name>
								<valuemin>-100</valuemin>
								<valuemax>100</valuemax>
								<value>20</value>
							</parameter>
							<parameter>
								<parameterid>curveb</parameterid>
								<name>Black Curve</name>
								<valuemin>-100</valuemin>
								<valuemax>100</valuemax>
								<value>0</value>
							</parameter>
							<parameter>
								<parameterid>clipoutput</parameterid>
								<name>Clip Output Levels</name>
								<value>TRUE</value>
							</parameter>
							<parameter>
								<parameterid>copyright</parameterid>
								<name>© www.nattress.com</name>
								<value>string</value>
							</parameter>
						</effect>
					</filter>
					<sourcetrack>
						<mediatype>video</mediatype>
					</sourcetrack>
					<fielddominance>upper</fielddominance>
					<itemhistory>
						<uuid>ACF981DD-7930-431D-B85F-23F3FB02D954</uuid>
					</itemhistory>
				</clipitem>
				<transitionitem>
					<rate>
						<ntsc>FALSE</ntsc>
						<timebase>25</timebase>
					</rate>
					<start>9492</start>
					<end>9507</end>
					<alignment>center</alignment>
					<effect>
						<name>G Lens Flare Generell</name>
						<effectcategory>Nattress Big Box Of Tricks</effectcategory>
						<effecttype>transition</effecttype>
						<mediatype>video</mediatype>
						<startratio>0</startratio>
						<endratio>1</endratio>
						<reverse>FALSE</reverse>
						<parameter>
							<parameterid>dispvar1</parameterid>
							<name>Display Settings</name>
							<value>string</value>
						</parameter>
						<parameter>
							<parameterid>inputvar1</parameterid>
							<name>Flare Position</name>
							<value>string</value>
						</parameter>
						<parameter>
							<parameterid>theangle</parameterid>
							<name>Transition Direction</name>
							<valuemin>-360</valuemin>
							<valuemax>360</valuemax>
							<value>0</value>
						</parameter>
						<parameter>
							<parameterid>transitionblendduration</parameterid>
							<name>Blend Duration</name>
							<valuemin>0</valuemin>
							<valuemax>100</valuemax>
							<value>50</value>
						</parameter>
						<parameter>
							<parameterid>settingsvar1</parameterid>
							<name>Flare Settings</name>
							<value>string</value>
						</parameter>
						<parameter>
							<parameterid>presets</parameterid>
							<name>Preset Select</name>
							<valuemin>1</valuemin>
							<valuemax>4</valuemax>
							<valuelist>
								<valueentry>
									<name>Custom Controls</name>
									<value>1</value>
								</valueentry>
								<valueentry>
									<name>Other End of the Rainbow</name>
									<value>2</value>
								</valueentry>
								<valueentry>
									<name>Photon</name>
									<value>3</value>
								</valueentry>
								<valueentry>
									<name>Gaudy</name>
									<value>4</value>
								</valueentry>
							</valuelist>
							<value>1</value>
						</parameter>
						<parameter>
							<parameterid>randomevolution</parameterid>
							<name>Randomness Evolution</name>
							<valuemin>0</valuemin>
							<valuemax>1</valuemax>
							<value>0.05</value>
						</parameter>
						<parameter>
							<parameterid>flareaspect</parameterid>
							<name>Aspect</name>
							<valuemin>0.1</valuemin>
							<valuemax>10</valuemax>
							<value>1</value>
						</parameter>
						<parameter>
							<parameterid>flareintensity</parameterid>
							<name>Overall Intensity</name>
							<valuemin>0</valuemin>
							<valuemax>400</valuemax>
							<value>300</value>
						</parameter>
						<parameter>
							<parameterid>therandomseed</parameterid>
							<name>Random Seed</name>
							<valuemin>0</valuemin>
							<valuemax>100</valuemax>
							<value>100</value>
						</parameter>
						<parameter>
							<parameterid>settingsvar2</parameterid>
							<name>   Bloom</name>
							<value>string</value>
						</parameter>
						<parameter>
							<parameterid>bloomon</parameterid>
							<name>Bloom On?</name>
							<value>TRUE</value>
						</parameter>
						<parameter>
							<parameterid>bloomcolour</parameterid>
							<name>Bloom Colour</name>
							<value>
								<alpha>255</alpha>
								<red>218</red>
								<green>224</green>
								<blue>254</blue>
							</value>
						</parameter>
						<parameter>
							<parameterid>bloomcolourfromimage</parameterid>
							<name>Use Image for Bloom Colour?</name>
							<value>FALSE</value>
						</parameter>
						<parameter>
							<parameterid>bloomintensity</parameterid>
							<name>Intensity</name>
							<valuemin>0</valuemin>
							<valuemax>100</valuemax>
							<value>90</value>
						</parameter>
						<parameter>
							<parameterid>bloomradius</parameterid>
							<name>Radius</name>
							<valuemin>0</valuemin>
							<valuemax>200</valuemax>
							<value>45</value>
						</parameter>
						<parameter>
							<parameterid>bloomfalloff</parameterid>
							<name>Fall Off</name>
							<valuemin>0</valuemin>
							<valuemax>100</valuemax>
							<value>75</value>
						</parameter>
						<parameter>
							<parameterid>bloomstarry</parameterid>
							<name>Starry</name>
							<valuemin>0</valuemin>
							<valuemax>100</valuemax>
							<value>10</value>
						</parameter>
						<parameter>
							<parameterid>bloomstarpoints</parameterid>
							<name>Star Points</name>
							<valuemin>0</valuemin>
							<valuemax>100</valuemax>
							<value>7</value>
						</parameter>
						<parameter>
							<parameterid>settingsvar3</parameterid>
							<name>   StarBurst</name>
							<value>string</value>
						</parameter>
						<parameter>
							<parameterid>starburston</parameterid>
							<name>StarBurst On?</name>
							<value>TRUE</value>
						</parameter>
						<parameter>
							<parameterid>starburstcolour</parameterid>
							<name>StarBurst Colour</name>
							<value>
								<alpha>255</alpha>
								<red>254</red>
								<green>224</green>
								<blue>218</blue>
							</value>
						</parameter>
						<parameter>
							<parameterid>starburstintensity</parameterid>
							<name>Intensity</name>
							<valuemin>0</valuemin>
							<valuemax>100</valuemax>
							<value>75</value>
						</parameter>
						<parameter>
							<parameterid>starburstradius</parameterid>
							<name>Radius</name>
							<valuemin>0</valuemin>
							<valuemax>150</valuemax>
							<value>75</value>
						</parameter>
						<parameter>
							<parameterid>starburststarpoints</parameterid>
							<name>Star Points</name>
							<valuemin>0</valuemin>
							<valuemax>200</valuemax>
							<value>90</value>
						</parameter>
						<parameter>
							<parameterid>starcentre</parameterid>
							<name>Centre Size</name>
							<valuemin>0</valuemin>
							<valuemax>100</valuemax>
							<value>75</value>
						</parameter>
						<parameter>
							<parameterid>starfalloff</parameterid>
							<name>Fall Off</name>
							<valuemin>0</valuemin>
							<valuemax>100</valuemax>
							<value>75</value>
						</parameter>
						<parameter>
							<parameterid>starburstrandom</parameterid>
							<name>Randomness</name>
							<valuemin>0</valuemin>
							<valuemax>4</valuemax>
							<value>0.4</value>
						</parameter>
						<parameter>
							<parameterid>settingsvar4</parameterid>
							<name>   Rainbow</name>
							<value>string</value>
						</parameter>
						<parameter>
							<parameterid>rainbowon</parameterid>
							<name>Rainbow On?</name>
							<value>TRUE</value>
						</parameter>
						<parameter>
							<parameterid>rainbowcolors</parameterid>
							<name>Colour Type</name>
							<valuemin>1</valuemin>
							<valuemax>2</valuemax>
							<valuelist>
								<valueentry>
									<name>Rainbow</name>
									<value>1</value>
								</valueentry>
								<valueentry>
									<name>User Colour</name>
									<value>2</value>
								</valueentry>
							</valuelist>
							<value>1</value>
						</parameter>
						<parameter>
							<parameterid>rainbowusercolor</parameterid>
							<name>User Colour</name>
							<value>
								<alpha>255</alpha>
								<red>230</red>
								<green>110</green>
								<blue>22</blue>
							</value>
						</parameter>
						<parameter>
							<parameterid>rainbowposition</parameterid>
							<name>Position</name>
							<valuemin>-200</valuemin>
							<valuemax>200</valuemax>
							<value>100</value>
						</parameter>
						<parameter>
							<parameterid>rainbowintensity</parameterid>
							<name>Intensity</name>
							<valuemin>0</valuemin>
							<valuemax>100</valuemax>
							<value>20</value>
						</parameter>
						<parameter>
							<parameterid>rainbowradius</parameterid>
							<name>Radius</name>
							<valuemin>0</valuemin>
							<valuemax>200</valuemax>
							<value>50</value>
						</parameter>
						<parameter>
							<parameterid>rainbowthickness</parameterid>
							<name>Thickness</name>
							<valuemin>0</valuemin>
							<valuemax>1</valuemax>
							<value>0.15</value>
						</parameter>
						<parameter>
							<parameterid>rainbowsharpness</parameterid>
							<name>Sharpness</name>
							<valuemin>0</valuemin>
							<valuemax>1</valuemax>
							<value>0.65</value>
						</parameter>
						<parameter>
							<parameterid>settingsvar5</parameterid>
							<name>   Spots</name>
							<value>string</value>
						</parameter>
						<parameter>
							<parameterid>spotson</parameterid>
							<name>Spots On?</name>
							<value>TRUE</value>
						</parameter>
						<parameter>
							<parameterid>spotsnumber</parameterid>
							<name>Number</name>
							<valuemin>0</valuemin>
							<valuemax>100</valuemax>
							<value>12</value>
						</parameter>
						<parameter>
							<parameterid>spotsintensity</parameterid>
							<name>Intensity</name>
							<valuemin>0</valuemin>
							<valuemax>100</valuemax>
							<value>80</value>
						</parameter>
						<parameter>
							<parameterid>spotsradius</parameterid>
							<name>Radius</name>
							<valuemin>0</valuemin>
							<valuemax>150</valuemax>
							<value>30</value>
						</parameter>
						<parameter>
							<parameterid>spotsdisky</parameterid>
							<name>Disky</name>
							<valuemin>0</valuemin>
							<valuemax>100</valuemax>
							<value>75</value>
						</parameter>
						<parameter>
							<parameterid>spotsringy</parameterid>
							<name>Ringy</name>
							<valuemin>0</valuemin>
							<valuemax>100</valuemax>
							<value>75</value>
						</parameter>
						<parameter>
							<parameterid>spotsblotty</parameterid>
							<name>Blotty</name>
							<valuemin>0</valuemin>
							<valuemax>100</valuemax>
							<value>75</value>
						</parameter>
						<parameter>
							<parameterid>spotsbloony</parameterid>
							<name>Bloony</name>
							<valuemin>0</valuemin>
							<valuemax>100</valuemax>
							<value>75</value>
						</parameter>
						<parameter>
							<parameterid>spotsvarycolour</parameterid>
							<name>Vary Colour</name>
							<valuemin>0</valuemin>
							<valuemax>100</valuemax>
							<value>31</value>
						</parameter>
						<parameter>
							<parameterid>spotsbasehue</parameterid>
							<name>Base Hue</name>
							<valuemin>0</valuemin>
							<valuemax>100</valuemax>
							<value>72</value>
						</parameter>
						<parameter>
							<parameterid>spotssaturation</parameterid>
							<name>Saturation</name>
							<valuemin>0</valuemin>
							<valuemax>100</valuemax>
							<value>20</value>
						</parameter>
						<parameter>
							<parameterid>copyright</parameterid>
							<name>©www.nattress.com</name>
							<value>string</value>
						</parameter>
					</effect>
				</transitionitem>
				<clipitem id="00729001.MOV">
					<name>00729001.MOV</name>
					<duration>4884</duration>
					<rate>
						<ntsc>FALSE</ntsc>
						<timebase>25</timebase>
					</rate>
					<in>3808</in>
					<out>4631</out>
					<start>-1</start>
					<end>-1</end>
					<pixelaspectratio>Square</pixelaspectratio>
					<enabled>TRUE</enabled>
					<anamorphic>FALSE</anamorphic>
					<alphatype>none</alphatype>
					<masterclipid>00729001.MOV1</masterclipid>
					<logginginfo>
						<scene/>
						<shottake/>
						<lognote/>
						<good>FALSE</good>
					</logginginfo>
					<labels>
						<label2/>
					</labels>
					<comments>
						<mastercomment1/>
						<mastercomment2/>
						<mastercomment3/>
						<mastercomment4/>
					</comments>
					<file id="00729001 ">
						<name>00729001.MOV</name>
						<pathurl>file://localhost/Volumes/Askepott/Prosjekter/DNPR637010_Kra%CC%8Akeklubben_TEM_011212/Video/MELLOMSTIKK/S01E05%20Dyrebolig/00729001.MOV</pathurl>
						<rate>
							<timebase>25</timebase>
						</rate>
						<duration>4884</duration>
						<timecode>
							<rate>
								<timebase>25</timebase>
							</rate>
							<string>17:55:41:21</string>
							<frame>1613546</frame>
							<displayformat>NDF</displayformat>
							<source>source</source>
							<reel>
								<name>Flash XDR</name>
							</reel>
						</timecode>
						<media>
							<video>
								<duration>4884</duration>
								<samplecharacteristics>
									<width>1920</width>
									<height>1080</height>
								</samplecharacteristics>
							</video>
							<audio>
								<samplecharacteristics>
									<samplerate>48000</samplerate>
									<depth>24</depth>
								</samplecharacteristics>
								<channelcount>1</channelcount>
							</audio>
							<audio>
								<samplecharacteristics>
									<samplerate>48000</samplerate>
									<depth>24</depth>
								</samplecharacteristics>
								<channelcount>1</channelcount>
							</audio>
						</media>
					</file>
					<filter>
						<start>-1</start>
						<end>-1</end>
						<effect>
							<name>Color Corrector - Lua til Carina 3 bittelitt</name>
							<effectid>Color Corrector</effectid>
							<effectcategory>Color Correction</effectcategory>
							<effecttype>filter</effecttype>
							<mediatype>video</mediatype>
							<parameter>
								<parameterid>dispmode</parameterid>
								<name>Display Mode</name>
								<valuemin>1</valuemin>
								<valuemax>3</valuemax>
								<valuelist>
									<valueentry>
										<name>Final</name>
										<value>1</value>
									</valueentry>
									<valueentry>
										<name>Matte</name>
										<value>2</value>
									</valueentry>
									<valueentry>
										<name>Source</name>
										<value>3</value>
									</valueentry>
								</valuelist>
								<value>1</value>
							</parameter>
							<parameter>
								<parameterid>label1</parameterid>
								<name>Level Controls</name>
								<value/>
							</parameter>
							<parameter>
								<parameterid>highlights</parameterid>
								<name>Highlights</name>
								<valuemin>64</valuemin>
								<valuemax>509</valuemax>
								<value>247</value>
							</parameter>
							<parameter>
								<parameterid>mids</parameterid>
								<name>Mids</name>
								<valuemin>0</valuemin>
								<valuemax>200</valuemax>
								<value>100</value>
							</parameter>
							<parameter>
								<parameterid>blacklevel</parameterid>
								<name>Blacks</name>
								<valuemin>-196</valuemin>
								<valuemax>254</valuemax>
								<value>-3</value>
							</parameter>
							<parameter>
								<parameterid>label2</parameterid>
								<name>Color Balance</name>
								<value/>
							</parameter>
							<parameter>
								<parameterid>hue</parameterid>
								<name>Angle</name>
								<valuemin>-180</valuemin>
								<valuemax>180</valuemax>
								<value>-33</value>
							</parameter>
							<parameter>
								<parameterid>mag</parameterid>
								<name>Magnitude</name>
								<valuemin>0</valuemin>
								<valuemax>200</valuemax>
								<value>0</value>
							</parameter>
							<parameter>
								<parameterid>label4</parameterid>
								<name>Color Controls</name>
								<value/>
							</parameter>
							<parameter>
								<parameterid>chroma</parameterid>
								<name>Saturation</name>
								<valuemin>0</valuemin>
								<valuemax>200</valuemax>
								<value>94</value>
							</parameter>
							<parameter>
								<parameterid>phase</parameterid>
								<name>Phase shift</name>
								<valuemin>-180</valuemin>
								<valuemax>180</valuemax>
								<value>0</value>
							</parameter>
							<parameter>
								<parameterid>label5</parameterid>
								<name>Limit Effect Controls</name>
								<value/>
							</parameter>
							<parameter>
								<parameterid>dochroma</parameterid>
								<name>Limit on Chroma</name>
								<value>TRUE</value>
							</parameter>
							<parameter>
								<parameterid>centerang</parameterid>
								<name>Chroma Center</name>
								<valuemin>-760</valuemin>
								<valuemax>760</valuemax>
								<value>322.256</value>
							</parameter>
							<parameter>
								<parameterid>chromawidth</parameterid>
								<name>Chroma Width</name>
								<valuemin>0</valuemin>
								<valuemax>360</valuemax>
								<value>8.11959</value>
							</parameter>
							<parameter>
								<parameterid>chromasoft</parameterid>
								<name>Chroma Softness</name>
								<valuemin>0</valuemin>
								<valuemax>180</valuemax>
								<value>26.8371</value>
							</parameter>
							<parameter>
								<parameterid>dosat</parameterid>
								<name>Limit on Saturation</name>
								<value>TRUE</value>
							</parameter>
							<parameter>
								<parameterid>satmin</parameterid>
								<name>Sat. Minimum</name>
								<valuemin>0</valuemin>
								<valuemax>125</valuemax>
								<value>36.7837</value>
							</parameter>
							<parameter>
								<parameterid>satwidth</parameterid>
								<name>Sat. Width</name>
								<valuemin>0</valuemin>
								<valuemax>125</valuemax>
								<value>84.0889</value>
							</parameter>
							<parameter>
								<parameterid>satsoft</parameterid>
								<name>Sat. Softness</name>
								<valuemin>0</valuemin>
								<valuemax>125</valuemax>
								<value>5</value>
							</parameter>
							<parameter>
								<parameterid>doluma</parameterid>
								<name>Limit on Luma</name>
								<value>TRUE</value>
							</parameter>
							<parameter>
								<parameterid>lumamin</parameterid>
								<name>Luma Minimum</name>
								<valuemin>0</valuemin>
								<valuemax>120</valuemax>
								<value>0.939667</value>
							</parameter>
							<parameter>
								<parameterid>lumawidth</parameterid>
								<name>Luma Width</name>
								<valuemin>0</valuemin>
								<valuemax>120</valuemax>
								<value>115.45</value>
							</parameter>
							<parameter>
								<parameterid>lumasoft</parameterid>
								<name>Luma Softness</name>
								<valuemin>0</valuemin>
								<valuemax>120</valuemax>
								<value>15.1099</value>
							</parameter>
							<parameter>
								<parameterid>label6</parameterid>
								<name>Edge Control</name>
								<value/>
							</parameter>
							<parameter>
								<parameterid>edgethin</parameterid>
								<name>Thin/Spread</name>
								<valuemin>-100</valuemin>
								<valuemax>100</valuemax>
								<value>0</value>
							</parameter>
							<parameter>
								<parameterid>edgefeather</parameterid>
								<name>Softening</name>
								<valuemin>0</valuemin>
								<valuemax>100</valuemax>
								<value>6</value>
							</parameter>
							<parameter>
								<parameterid>label7</parameterid>
								<name>Mask Control</name>
								<value/>
							</parameter>
							<parameter>
								<parameterid>invertsel</parameterid>
								<name>Invert</name>
								<value>FALSE</value>
							</parameter>
							<parameter>
								<parameterid>debugshow</parameterid>
								<name>Show Stats</name>
								<value>FALSE</value>
							</parameter>
						</effect>
					</filter>
					<sourcetrack>
						<mediatype>video</mediatype>
					</sourcetrack>
					<link>
						<linkclipref>00729001.MOV</linkclipref>
						<mediatype>video</mediatype>
						<trackindex>1</trackindex>
						<clipindex>92</clipindex>
					</link>
					<link>
						<linkclipref>00729001.MOV2</linkclipref>
						<mediatype>audio</mediatype>
						<trackindex>1</trackindex>
						<clipindex>92</clipindex>
					</link>
					<link>
						<linkclipref>00729001.MOV3</linkclipref>
						<mediatype>audio</mediatype>
						<trackindex>2</trackindex>
						<clipindex>89</clipindex>
					</link>
					<fielddominance>upper</fielddominance>
					<itemhistory>
						<uuid>9DBF7AFF-8365-4EE4-BD02-8ABA896E300B</uuid>
					</itemhistory>
				</clipitem>
				<transitionitem>
					<rate>
						<ntsc>FALSE</ntsc>
						<timebase>25</timebase>
					</rate>
					<start>10290</start>
					<end>10315</end>
					<alignment>center</alignment>
					<effect>
						<name>G Lens Flare Musikkvideo</name>
						<effectcategory>Nattress Big Box Of Tricks</effectcategory>
						<effecttype>transition</effecttype>
						<mediatype>video</mediatype>
						<startratio>0</startratio>
						<endratio>1</endratio>
						<reverse>FALSE</reverse>
						<parameter>
							<parameterid>dispvar1</parameterid>
							<name>Display Settings</name>
							<value>string</value>
						</parameter>
						<parameter>
							<parameterid>inputvar1</parameterid>
							<name>Flare Position</name>
							<value>string</value>
						</parameter>
						<parameter>
							<parameterid>theangle</parameterid>
							<name>Transition Direction</name>
							<valuemin>-360</valuemin>
							<valuemax>360</valuemax>
							<value>90</value>
						</parameter>
						<parameter>
							<parameterid>transitionblendduration</parameterid>
							<name>Blend Duration</name>
							<valuemin>0</valuemin>
							<valuemax>100</valuemax>
							<value>50</value>
						</parameter>
						<parameter>
							<parameterid>settingsvar1</parameterid>
							<name>Flare Settings</name>
							<value>string</value>
						</parameter>
						<parameter>
							<parameterid>presets</parameterid>
							<name>Preset Select</name>
							<valuemin>1</valuemin>
							<valuemax>4</valuemax>
							<valuelist>
								<valueentry>
									<name>Custom Controls</name>
									<value>1</value>
								</valueentry>
								<valueentry>
									<name>Other End of the Rainbow</name>
									<value>2</value>
								</valueentry>
								<valueentry>
									<name>Photon</name>
									<value>3</value>
								</valueentry>
								<valueentry>
									<name>Gaudy</name>
									<value>4</value>
								</valueentry>
							</valuelist>
							<value>2</value>
						</parameter>
						<parameter>
							<parameterid>randomevolution</parameterid>
							<name>Randomness Evolution</name>
							<valuemin>0</valuemin>
							<valuemax>1</valuemax>
							<value>0.05</value>
						</parameter>
						<parameter>
							<parameterid>flareaspect</parameterid>
							<name>Aspect</name>
							<valuemin>0.1</valuemin>
							<valuemax>10</valuemax>
							<value>1</value>
						</parameter>
						<parameter>
							<parameterid>flareintensity</parameterid>
							<name>Overall Intensity</name>
							<valuemin>0</valuemin>
							<valuemax>400</valuemax>
							<value>300</value>
						</parameter>
						<parameter>
							<parameterid>therandomseed</parameterid>
							<name>Random Seed</name>
							<valuemin>0</valuemin>
							<valuemax>100</valuemax>
							<value>100</value>
						</parameter>
						<parameter>
							<parameterid>settingsvar2</parameterid>
							<name>   Bloom</name>
							<value>string</value>
						</parameter>
						<parameter>
							<parameterid>bloomon</parameterid>
							<name>Bloom On?</name>
							<value>TRUE</value>
						</parameter>
						<parameter>
							<parameterid>bloomcolour</parameterid>
							<name>Bloom Colour</name>
							<value>
								<alpha>255</alpha>
								<red>218</red>
								<green>224</green>
								<blue>254</blue>
							</value>
						</parameter>
						<parameter>
							<parameterid>bloomcolourfromimage</parameterid>
							<name>Use Image for Bloom Colour?</name>
							<value>FALSE</value>
						</parameter>
						<parameter>
							<parameterid>bloomintensity</parameterid>
							<name>Intensity</name>
							<valuemin>0</valuemin>
							<valuemax>100</valuemax>
							<value>90</value>
						</parameter>
						<parameter>
							<parameterid>bloomradius</parameterid>
							<name>Radius</name>
							<valuemin>0</valuemin>
							<valuemax>200</valuemax>
							<value>45</value>
						</parameter>
						<parameter>
							<parameterid>bloomfalloff</parameterid>
							<name>Fall Off</name>
							<valuemin>0</valuemin>
							<valuemax>100</valuemax>
							<value>75</value>
						</parameter>
						<parameter>
							<parameterid>bloomstarry</parameterid>
							<name>Starry</name>
							<valuemin>0</valuemin>
							<valuemax>100</valuemax>
							<value>10</value>
						</parameter>
						<parameter>
							<parameterid>bloomstarpoints</parameterid>
							<name>Star Points</name>
							<valuemin>0</valuemin>
							<valuemax>100</valuemax>
							<value>7</value>
						</parameter>
						<parameter>
							<parameterid>settingsvar3</parameterid>
							<name>   StarBurst</name>
							<value>string</value>
						</parameter>
						<parameter>
							<parameterid>starburston</parameterid>
							<name>StarBurst On?</name>
							<value>TRUE</value>
						</parameter>
						<parameter>
							<parameterid>starburstcolour</parameterid>
							<name>StarBurst Colour</name>
							<value>
								<alpha>255</alpha>
								<red>254</red>
								<green>224</green>
								<blue>218</blue>
							</value>
						</parameter>
						<parameter>
							<parameterid>starburstintensity</parameterid>
							<name>Intensity</name>
							<valuemin>0</valuemin>
							<valuemax>100</valuemax>
							<value>75</value>
						</parameter>
						<parameter>
							<parameterid>starburstradius</parameterid>
							<name>Radius</name>
							<valuemin>0</valuemin>
							<valuemax>150</valuemax>
							<value>75</value>
						</parameter>
						<parameter>
							<parameterid>starburststarpoints</parameterid>
							<name>Star Points</name>
							<valuemin>0</valuemin>
							<valuemax>200</valuemax>
							<value>90</value>
						</parameter>
						<parameter>
							<parameterid>starcentre</parameterid>
							<name>Centre Size</name>
							<valuemin>0</valuemin>
							<valuemax>100</valuemax>
							<value>75</value>
						</parameter>
						<parameter>
							<parameterid>starfalloff</parameterid>
							<name>Fall Off</name>
							<valuemin>0</valuemin>
							<valuemax>100</valuemax>
							<value>75</value>
						</parameter>
						<parameter>
							<parameterid>starburstrandom</parameterid>
							<name>Randomness</name>
							<valuemin>0</valuemin>
							<valuemax>4</valuemax>
							<value>0.4</value>
						</parameter>
						<parameter>
							<parameterid>settingsvar4</parameterid>
							<name>   Rainbow</name>
							<value>string</value>
						</parameter>
						<parameter>
							<parameterid>rainbowon</parameterid>
							<name>Rainbow On?</name>
							<value>TRUE</value>
						</parameter>
						<parameter>
							<parameterid>rainbowcolors</parameterid>
							<name>Colour Type</name>
							<valuemin>1</valuemin>
							<valuemax>2</valuemax>
							<valuelist>
								<valueentry>
									<name>Rainbow</name>
									<value>1</value>
								</valueentry>
								<valueentry>
									<name>User Colour</name>
									<value>2</value>
								</valueentry>
							</valuelist>
							<value>1</value>
						</parameter>
						<parameter>
							<parameterid>rainbowusercolor</parameterid>
							<name>User Colour</name>
							<value>
								<alpha>255</alpha>
								<red>230</red>
								<green>110</green>
								<blue>22</blue>
							</value>
						</parameter>
						<parameter>
							<parameterid>rainbowposition</parameterid>
							<name>Position</name>
							<valuemin>-200</valuemin>
							<valuemax>200</valuemax>
							<value>100</value>
						</parameter>
						<parameter>
							<parameterid>rainbowintensity</parameterid>
							<name>Intensity</name>
							<valuemin>0</valuemin>
							<valuemax>100</valuemax>
							<value>20</value>
						</parameter>
						<parameter>
							<parameterid>rainbowradius</parameterid>
							<name>Radius</name>
							<valuemin>0</valuemin>
							<valuemax>200</valuemax>
							<value>50</value>
						</parameter>
						<parameter>
							<parameterid>rainbowthickness</parameterid>
							<name>Thickness</name>
							<valuemin>0</valuemin>
							<valuemax>1</valuemax>
							<value>0.15</value>
						</parameter>
						<parameter>
							<parameterid>rainbowsharpness</parameterid>
							<name>Sharpness</name>
							<valuemin>0</valuemin>
							<valuemax>1</valuemax>
							<value>0.65</value>
						</parameter>
						<parameter>
							<parameterid>settingsvar5</parameterid>
							<name>   Spots</name>
							<value>string</value>
						</parameter>
						<parameter>
							<parameterid>spotson</parameterid>
							<name>Spots On?</name>
							<value>TRUE</value>
						</parameter>
						<parameter>
							<parameterid>spotsnumber</parameterid>
							<name>Number</name>
							<valuemin>0</valuemin>
							<valuemax>100</valuemax>
							<value>12</value>
						</parameter>
						<parameter>
							<parameterid>spotsintensity</parameterid>
							<name>Intensity</name>
							<valuemin>0</valuemin>
							<valuemax>100</valuemax>
							<value>80</value>
						</parameter>
						<parameter>
							<parameterid>spotsradius</parameterid>
							<name>Radius</name>
							<valuemin>0</valuemin>
							<valuemax>150</valuemax>
							<value>30</value>
						</parameter>
						<parameter>
							<parameterid>spotsdisky</parameterid>
							<name>Disky</name>
							<valuemin>0</valuemin>
							<valuemax>100</valuemax>
							<value>75</value>
						</parameter>
						<parameter>
							<parameterid>spotsringy</parameterid>
							<name>Ringy</name>
							<valuemin>0</valuemin>
							<valuemax>100</valuemax>
							<value>75</value>
						</parameter>
						<parameter>
							<parameterid>spotsblotty</parameterid>
							<name>Blotty</name>
							<valuemin>0</valuemin>
							<valuemax>100</valuemax>
							<value>75</value>
						</parameter>
						<parameter>
							<parameterid>spotsbloony</parameterid>
							<name>Bloony</name>
							<valuemin>0</valuemin>
							<valuemax>100</valuemax>
							<value>75</value>
						</parameter>
						<parameter>
							<parameterid>spotsvarycolour</parameterid>
							<name>Vary Colour</name>
							<valuemin>0</valuemin>
							<valuemax>100</valuemax>
							<value>31</value>
						</parameter>
						<parameter>
							<parameterid>spotsbasehue</parameterid>
							<name>Base Hue</name>
							<valuemin>0</valuemin>
							<valuemax>100</valuemax>
							<value>72</value>
						</parameter>
						<parameter>
							<parameterid>spotssaturation</parameterid>
							<name>Saturation</name>
							<valuemin>0</valuemin>
							<valuemax>100</valuemax>
							<value>20</value>
						</parameter>
						<parameter>
							<parameterid>copyright</parameterid>
							<name>©www.nattress.com</name>
							<value>string</value>
						</parameter>
					</effect>
				</transitionitem>
				<clipitem id="00844001.MOV">
					<name>00844001.MOV</name>
					<duration>804</duration>
					<rate>
						<ntsc>FALSE</ntsc>
						<timebase>25</timebase>
					</rate>
					<in>321</in>
					<out>550</out>
					<start>-1</start>
					<end>10519</end>
					<pixelaspectratio>Square</pixelaspectratio>
					<enabled>TRUE</enabled>
					<anamorphic>FALSE</anamorphic>
					<alphatype>none</alphatype>
					<masterclipid>00844001.MOV1</masterclipid>
					<logginginfo>
						<scene/>
						<shottake/>
						<lognote/>
						<good>FALSE</good>
					</logginginfo>
					<labels>
						<label2/>
					</labels>
					<comments>
						<mastercomment1/>
						<mastercomment2/>
						<mastercomment3/>
						<mastercomment4/>
					</comments>
					<file id="00844001 ">
						<name>00844001.MOV</name>
						<pathurl>file://localhost/Volumes/Askepott/Prosjekter/DNPR637010_Kra%CC%8Akeklubben_TEM_011212/Video/MELLOMSTIKK/S01E05%20Dyrebolig/DAG2/00844001.MOV</pathurl>
						<rate>
							<timebase>25</timebase>
						</rate>
						<duration>804</duration>
						<timecode>
							<rate>
								<timebase>25</timebase>
							</rate>
							<string>18:40:45:17</string>
							<frame>1681142</frame>
							<displayformat>NDF</displayformat>
							<source>source</source>
							<reel>
								<name>Flash XDR</name>
							</reel>
						</timecode>
						<media>
							<video>
								<duration>804</duration>
								<samplecharacteristics>
									<width>1920</width>
									<height>1080</height>
								</samplecharacteristics>
							</video>
							<audio>
								<samplecharacteristics>
									<samplerate>48000</samplerate>
									<depth>24</depth>
								</samplecharacteristics>
								<channelcount>1</channelcount>
							</audio>
							<audio>
								<samplecharacteristics>
									<samplerate>48000</samplerate>
									<depth>24</depth>
								</samplecharacteristics>
								<channelcount>1</channelcount>
							</audio>
						</media>
					</file>
					<filter>
						<start>-1</start>
						<end>-1</end>
						<effect>
							<name>Color Corrector - Lua til Carina 3 bittelitt</name>
							<effectid>Color Corrector</effectid>
							<effectcategory>Color Correction</effectcategory>
							<effecttype>filter</effecttype>
							<mediatype>video</mediatype>
							<parameter>
								<parameterid>dispmode</parameterid>
								<name>Display Mode</name>
								<valuemin>1</valuemin>
								<valuemax>3</valuemax>
								<valuelist>
									<valueentry>
										<name>Final</name>
										<value>1</value>
									</valueentry>
									<valueentry>
										<name>Matte</name>
										<value>2</value>
									</valueentry>
									<valueentry>
										<name>Source</name>
										<value>3</value>
									</valueentry>
								</valuelist>
								<value>1</value>
							</parameter>
							<parameter>
								<parameterid>label1</parameterid>
								<name>Level Controls</name>
								<value/>
							</parameter>
							<parameter>
								<parameterid>highlights</parameterid>
								<name>Highlights</name>
								<valuemin>64</valuemin>
								<valuemax>509</valuemax>
								<value>247</value>
							</parameter>
							<parameter>
								<parameterid>mids</parameterid>
								<name>Mids</name>
								<valuemin>0</valuemin>
								<valuemax>200</valuemax>
								<value>100</value>
							</parameter>
							<parameter>
								<parameterid>blacklevel</parameterid>
								<name>Blacks</name>
								<valuemin>-196</valuemin>
								<valuemax>254</valuemax>
								<value>-3</value>
							</parameter>
							<parameter>
								<parameterid>label2</parameterid>
								<name>Color Balance</name>
								<value/>
							</parameter>
							<parameter>
								<parameterid>hue</parameterid>
								<name>Angle</name>
								<valuemin>-180</valuemin>
								<valuemax>180</valuemax>
								<value>-33</value>
							</parameter>
							<parameter>
								<parameterid>mag</parameterid>
								<name>Magnitude</name>
								<valuemin>0</valuemin>
								<valuemax>200</valuemax>
								<value>0</value>
							</parameter>
							<parameter>
								<parameterid>label4</parameterid>
								<name>Color Controls</name>
								<value/>
							</parameter>
							<parameter>
								<parameterid>chroma</parameterid>
								<name>Saturation</name>
								<valuemin>0</valuemin>
								<valuemax>200</valuemax>
								<value>94</value>
							</parameter>
							<parameter>
								<parameterid>phase</parameterid>
								<name>Phase shift</name>
								<valuemin>-180</valuemin>
								<valuemax>180</valuemax>
								<value>0</value>
							</parameter>
							<parameter>
								<parameterid>label5</parameterid>
								<name>Limit Effect Controls</name>
								<value/>
							</parameter>
							<parameter>
								<parameterid>dochroma</parameterid>
								<name>Limit on Chroma</name>
								<value>TRUE</value>
							</parameter>
							<parameter>
								<parameterid>centerang</parameterid>
								<name>Chroma Center</name>
								<valuemin>-760</valuemin>
								<valuemax>760</valuemax>
								<value>322.256</value>
							</parameter>
							<parameter>
								<parameterid>chromawidth</parameterid>
								<name>Chroma Width</name>
								<valuemin>0</valuemin>
								<valuemax>360</valuemax>
								<value>8.11959</value>
							</parameter>
							<parameter>
								<parameterid>chromasoft</parameterid>
								<name>Chroma Softness</name>
								<valuemin>0</valuemin>
								<valuemax>180</valuemax>
								<value>26.8371</value>
							</parameter>
							<parameter>
								<parameterid>dosat</parameterid>
								<name>Limit on Saturation</name>
								<value>TRUE</value>
							</parameter>
							<parameter>
								<parameterid>satmin</parameterid>
								<name>Sat. Minimum</name>
								<valuemin>0</valuemin>
								<valuemax>125</valuemax>
								<value>36.7837</value>
							</parameter>
							<parameter>
								<parameterid>satwidth</parameterid>
								<name>Sat. Width</name>
								<valuemin>0</valuemin>
								<valuemax>125</valuemax>
								<value>84.0889</value>
							</parameter>
							<parameter>
								<parameterid>satsoft</parameterid>
								<name>Sat. Softness</name>
								<valuemin>0</valuemin>
								<valuemax>125</valuemax>
								<value>5</value>
							</parameter>
							<parameter>
								<parameterid>doluma</parameterid>
								<name>Limit on Luma</name>
								<value>TRUE</value>
							</parameter>
							<parameter>
								<parameterid>lumamin</parameterid>
								<name>Luma Minimum</name>
								<valuemin>0</valuemin>
								<valuemax>120</valuemax>
								<value>0.939667</value>
							</parameter>
							<parameter>
								<parameterid>lumawidth</parameterid>
								<name>Luma Width</name>
								<valuemin>0</valuemin>
								<valuemax>120</valuemax>
								<value>115.45</value>
							</parameter>
							<parameter>
								<parameterid>lumasoft</parameterid>
								<name>Luma Softness</name>
								<valuemin>0</valuemin>
								<valuemax>120</valuemax>
								<value>15.1099</value>
							</parameter>
							<parameter>
								<parameterid>label6</parameterid>
								<name>Edge Control</name>
								<value/>
							</parameter>
							<parameter>
								<parameterid>edgethin</parameterid>
								<name>Thin/Spread</name>
								<valuemin>-100</valuemin>
								<valuemax>100</valuemax>
								<value>0</value>
							</parameter>
							<parameter>
								<parameterid>edgefeather</parameterid>
								<name>Softening</name>
								<valuemin>0</valuemin>
								<valuemax>100</valuemax>
								<value>6</value>
							</parameter>
							<parameter>
								<parameterid>label7</parameterid>
								<name>Mask Control</name>
								<value/>
							</parameter>
							<parameter>
								<parameterid>invertsel</parameterid>
								<name>Invert</name>
								<value>FALSE</value>
							</parameter>
							<parameter>
								<parameterid>debugshow</parameterid>
								<name>Show Stats</name>
								<value>FALSE</value>
							</parameter>
						</effect>
					</filter>
					<sourcetrack>
						<mediatype>video</mediatype>
					</sourcetrack>
					<link>
						<linkclipref>00844001.MOV</linkclipref>
						<mediatype>video</mediatype>
						<trackindex>1</trackindex>
						<clipindex>94</clipindex>
					</link>
					<link>
						<linkclipref>00844001.MOV2</linkclipref>
						<mediatype>audio</mediatype>
						<trackindex>2</trackindex>
						<clipindex>91</clipindex>
					</link>
					<fielddominance>upper</fielddominance>
					<itemhistory>
						<uuid>CB5023FD-0DEC-4F8E-BC9F-5229FE5C1D45</uuid>
					</itemhistory>
				</clipitem>
				<clipitem id="rev oppskalert">
					<name>rev oppskalert</name>
					<duration>859</duration>
					<rate>
						<ntsc>FALSE</ntsc>
						<timebase>25</timebase>
					</rate>
					<in>728</in>
					<out>820</out>
					<start>10664</start>
					<end>-1</end>
					<pixelaspectratio>Square</pixelaspectratio>
					<enabled>TRUE</enabled>
					<anamorphic>FALSE</anamorphic>
					<alphatype>none</alphatype>
					<masterclipid>rev oppskalert1</masterclipid>
					<logginginfo>
						<scene/>
						<shottake/>
						<lognote/>
						<good>FALSE</good>
					</logginginfo>
					<labels>
						<label2/>
					</labels>
					<comments>
						<mastercomment1/>
						<mastercomment2/>
						<mastercomment3/>
						<mastercomment4/>
					</comments>
					<file id="rev oppskalert2">
						<name>rev oppskalert.mov</name>
						<pathurl>file://localhost/Volumes/Askepott/Prosjekter/DNPR637010_Kra%CC%8Akeklubben_TEM_011212/Video/MELLOMSTIKK/S01E05%20Dyrebolig/Arkiv/rev%20oppskalert.mov</pathurl>
						<rate>
							<timebase>25</timebase>
						</rate>
						<duration>859</duration>
						<metadata>
							<storage>QuickTime</storage>
							<key>com.apple.finalcutstudio.media.uuid</key>
							<size>36</size>
							<type>UTF8</type>
							<value>5A818FD9-AC57-470D-A838-1691FB8C110E</value>
						</metadata>
						<timecode>
							<rate>
								<timebase>25</timebase>
							</rate>
							<string>00:00:00:00</string>
							<frame>0</frame>
							<displayformat>NDF</displayformat>
							<source>source</source>
						</timecode>
						<media>
							<video>
								<duration>859</duration>
								<samplecharacteristics>
									<width>1920</width>
									<height>1080</height>
								</samplecharacteristics>
							</video>
							<audio>
								<samplecharacteristics>
									<samplerate>48000</samplerate>
									<depth>16</depth>
								</samplecharacteristics>
								<channelcount>2</channelcount>
							</audio>
						</media>
					</file>
					<sourcetrack>
						<mediatype>video</mediatype>
					</sourcetrack>
					<fielddominance>upper</fielddominance>
					<itemhistory>
						<uuid>EAEE9E70-F92E-4058-B633-200EB0528BA0</uuid>
					</itemhistory>
				</clipitem>
				<transitionitem>
					<rate>
						<ntsc>FALSE</ntsc>
						<timebase>25</timebase>
					</rate>
					<start>10741</start>
					<end>10756</end>
					<alignment>center</alignment>
					<effect>
						<name>Push Slide</name>
						<effectid>Push Slide</effectid>
						<effectcategory>Slide</effectcategory>
						<effecttype>transition</effecttype>
						<mediatype>video</mediatype>
						<wipecode>1</wipecode>
						<wipeaccuracy>100</wipeaccuracy>
						<startratio>0</startratio>
						<endratio>1</endratio>
						<reverse>FALSE</reverse>
						<parameter>
							<parameterid>angleofpush</parameterid>
							<name>Angle</name>
							<valuemin>-360</valuemin>
							<valuemax>360</valuemax>
							<value>-90</value>
						</parameter>
						<parameter>
							<parameterid>borderwidth</parameterid>
							<name>Border</name>
							<valuemin>0</valuemin>
							<valuemax>10</valuemax>
							<value>0</value>
						</parameter>
						<parameter>
							<parameterid>bordercolor</parameterid>
							<name>Color</name>
							<value>
								<alpha>255</alpha>
								<red>0</red>
								<green>0</green>
								<blue>0</blue>
							</value>
						</parameter>
					</effect>
				</transitionitem>
				<clipitem id="00846001.MOV">
					<name>00846001.MOV</name>
					<duration>2208</duration>
					<rate>
						<ntsc>FALSE</ntsc>
						<timebase>25</timebase>
					</rate>
					<in>318</in>
					<out>607</out>
					<start>-1</start>
					<end>11030</end>
					<pixelaspectratio>Square</pixelaspectratio>
					<enabled>TRUE</enabled>
					<anamorphic>FALSE</anamorphic>
					<alphatype>none</alphatype>
					<masterclipid>00846001.MOV1</masterclipid>
					<logginginfo>
						<scene/>
						<shottake/>
						<lognote/>
						<good>FALSE</good>
					</logginginfo>
					<labels>
						<label2/>
					</labels>
					<comments>
						<mastercomment1/>
						<mastercomment2/>
						<mastercomment3/>
						<mastercomment4/>
					</comments>
					<file id="00846001 ">
						<name>00846001.MOV</name>
						<pathurl>file://localhost/Volumes/Askepott/Prosjekter/DNPR637010_Kra%CC%8Akeklubben_TEM_011212/Video/MELLOMSTIKK/S01E05%20Dyrebolig/DAG2/00846001.MOV</pathurl>
						<rate>
							<timebase>25</timebase>
						</rate>
						<duration>2208</duration>
						<timecode>
							<rate>
								<timebase>25</timebase>
							</rate>
							<string>18:41:53:07</string>
							<frame>1682832</frame>
							<displayformat>NDF</displayformat>
							<source>source</source>
							<reel>
								<name>Flash XDR</name>
							</reel>
						</timecode>
						<media>
							<video>
								<duration>2208</duration>
								<samplecharacteristics>
									<width>1920</width>
									<height>1080</height>
								</samplecharacteristics>
							</video>
							<audio>
								<samplecharacteristics>
									<samplerate>48000</samplerate>
									<depth>24</depth>
								</samplecharacteristics>
								<channelcount>1</channelcount>
							</audio>
							<audio>
								<samplecharacteristics>
									<samplerate>48000</samplerate>
									<depth>24</depth>
								</samplecharacteristics>
								<channelcount>1</channelcount>
							</audio>
						</media>
					</file>
					<filter>
						<enabled>TRUE</enabled>
						<start>-1</start>
						<end>-1</end>
						<effect>
							<name>Color Corrector - Lua til Carina 3 bittelitt</name>
							<effectid>Color Corrector</effectid>
							<effectcategory>Color Correction</effectcategory>
							<effecttype>filter</effecttype>
							<mediatype>video</mediatype>
							<parameter>
								<parameterid>dispmode</parameterid>
								<name>Display Mode</name>
								<valuemin>1</valuemin>
								<valuemax>3</valuemax>
								<valuelist>
									<valueentry>
										<name>Final</name>
										<value>1</value>
									</valueentry>
									<valueentry>
										<name>Matte</name>
										<value>2</value>
									</valueentry>
									<valueentry>
										<name>Source</name>
										<value>3</value>
									</valueentry>
								</valuelist>
								<value>1</value>
							</parameter>
							<parameter>
								<parameterid>label1</parameterid>
								<name>Level Controls</name>
								<value/>
							</parameter>
							<parameter>
								<parameterid>highlights</parameterid>
								<name>Highlights</name>
								<valuemin>64</valuemin>
								<valuemax>509</valuemax>
								<value>247</value>
							</parameter>
							<parameter>
								<parameterid>mids</parameterid>
								<name>Mids</name>
								<valuemin>0</valuemin>
								<valuemax>200</valuemax>
								<value>100</value>
							</parameter>
							<parameter>
								<parameterid>blacklevel</parameterid>
								<name>Blacks</name>
								<valuemin>-196</valuemin>
								<valuemax>254</valuemax>
								<value>-3</value>
							</parameter>
							<parameter>
								<parameterid>label2</parameterid>
								<name>Color Balance</name>
								<value/>
							</parameter>
							<parameter>
								<parameterid>hue</parameterid>
								<name>Angle</name>
								<valuemin>-180</valuemin>
								<valuemax>180</valuemax>
								<value>-33</value>
							</parameter>
							<parameter>
								<parameterid>mag</parameterid>
								<name>Magnitude</name>
								<valuemin>0</valuemin>
								<valuemax>200</valuemax>
								<value>0</value>
							</parameter>
							<parameter>
								<parameterid>label4</parameterid>
								<name>Color Controls</name>
								<value/>
							</parameter>
							<parameter>
								<parameterid>chroma</parameterid>
								<name>Saturation</name>
								<valuemin>0</valuemin>
								<valuemax>200</valuemax>
								<value>94</value>
							</parameter>
							<parameter>
								<parameterid>phase</parameterid>
								<name>Phase shift</name>
								<valuemin>-180</valuemin>
								<valuemax>180</valuemax>
								<value>0</value>
							</parameter>
							<parameter>
								<parameterid>label5</parameterid>
								<name>Limit Effect Controls</name>
								<value/>
							</parameter>
							<parameter>
								<parameterid>dochroma</parameterid>
								<name>Limit on Chroma</name>
								<value>TRUE</value>
							</parameter>
							<parameter>
								<parameterid>centerang</parameterid>
								<name>Chroma Center</name>
								<valuemin>-760</valuemin>
								<valuemax>760</valuemax>
								<value>322.256</value>
							</parameter>
							<parameter>
								<parameterid>chromawidth</parameterid>
								<name>Chroma Width</name>
								<valuemin>0</valuemin>
								<valuemax>360</valuemax>
								<value>8.11959</value>
							</parameter>
							<parameter>
								<parameterid>chromasoft</parameterid>
								<name>Chroma Softness</name>
								<valuemin>0</valuemin>
								<valuemax>180</valuemax>
								<value>26.8371</value>
							</parameter>
							<parameter>
								<parameterid>dosat</parameterid>
								<name>Limit on Saturation</name>
								<value>TRUE</value>
							</parameter>
							<parameter>
								<parameterid>satmin</parameterid>
								<name>Sat. Minimum</name>
								<valuemin>0</valuemin>
								<valuemax>125</valuemax>
								<value>36.7837</value>
							</parameter>
							<parameter>
								<parameterid>satwidth</parameterid>
								<name>Sat. Width</name>
								<valuemin>0</valuemin>
								<valuemax>125</valuemax>
								<value>84.0889</value>
							</parameter>
							<parameter>
								<parameterid>satsoft</parameterid>
								<name>Sat. Softness</name>
								<valuemin>0</valuemin>
								<valuemax>125</valuemax>
								<value>5</value>
							</parameter>
							<parameter>
								<parameterid>doluma</parameterid>
								<name>Limit on Luma</name>
								<value>TRUE</value>
							</parameter>
							<parameter>
								<parameterid>lumamin</parameterid>
								<name>Luma Minimum</name>
								<valuemin>0</valuemin>
								<valuemax>120</valuemax>
								<value>0.939667</value>
							</parameter>
							<parameter>
								<parameterid>lumawidth</parameterid>
								<name>Luma Width</name>
								<valuemin>0</valuemin>
								<valuemax>120</valuemax>
								<value>115.45</value>
							</parameter>
							<parameter>
								<parameterid>lumasoft</parameterid>
								<name>Luma Softness</name>
								<valuemin>0</valuemin>
								<valuemax>120</valuemax>
								<value>15.1099</value>
							</parameter>
							<parameter>
								<parameterid>label6</parameterid>
								<name>Edge Control</name>
								<value/>
							</parameter>
							<parameter>
								<parameterid>edgethin</parameterid>
								<name>Thin/Spread</name>
								<valuemin>-100</valuemin>
								<valuemax>100</valuemax>
								<value>0</value>
							</parameter>
							<parameter>
								<parameterid>edgefeather</parameterid>
								<name>Softening</name>
								<valuemin>0</valuemin>
								<valuemax>100</valuemax>
								<value>6</value>
							</parameter>
							<parameter>
								<parameterid>label7</parameterid>
								<name>Mask Control</name>
								<value/>
							</parameter>
							<parameter>
								<parameterid>invertsel</parameterid>
								<name>Invert</name>
								<value>FALSE</value>
							</parameter>
							<parameter>
								<parameterid>debugshow</parameterid>
								<name>Show Stats</name>
								<value>FALSE</value>
							</parameter>
						</effect>
					</filter>
					<filter>
						<enabled>TRUE</enabled>
						<start>-1</start>
						<end>-1</end>
						<effect>
							<name>G Simple Curves -15 white curve</name>
							<effectcategory>Nattress Big Box of Tricks - Levels and Curves</effectcategory>
							<effecttype>filter</effecttype>
							<mediatype>video</mediatype>
							<parameter>
								<parameterid>colourspace</parameterid>
								<name>Colour Space</name>
								<valuemin>1</valuemin>
								<valuemax>2</valuemax>
								<valuelist>
									<valueentry>
										<name>RGB</name>
										<value>1</value>
									</valueentry>
									<valueentry>
										<name>Y'CbCr</name>
										<value>2</value>
									</valueentry>
								</valuelist>
								<value>2</value>
							</parameter>
							<parameter>
								<parameterid>showcurves</parameterid>
								<name>Show Curves</name>
								<value>FALSE</value>
							</parameter>
							<parameter>
								<parameterid>lvar</parameterid>
								<name>Levels Controls</name>
								<value>string</value>
							</parameter>
							<parameter>
								<parameterid>inw</parameterid>
								<name>White Level</name>
								<valuemin>0</valuemin>
								<valuemax>255</valuemax>
								<value>255</value>
							</parameter>
							<parameter>
								<parameterid>inb</parameterid>
								<name>Black Level</name>
								<valuemin>0</valuemin>
								<valuemax>255</valuemax>
								<value>0</value>
							</parameter>
							<parameter>
								<parameterid>outw</parameterid>
								<name>White Output</name>
								<valuemin>0</valuemin>
								<valuemax>255</valuemax>
								<value>255</value>
							</parameter>
							<parameter>
								<parameterid>outb</parameterid>
								<name>Black Output</name>
								<valuemin>0</valuemin>
								<valuemax>255</valuemax>
								<value>0</value>
							</parameter>
							<parameter>
								<parameterid>cvar</parameterid>
								<name>Curves Controls</name>
								<value>string</value>
							</parameter>
							<parameter>
								<parameterid>curvew</parameterid>
								<name>White Curve</name>
								<valuemin>-100</valuemin>
								<valuemax>100</valuemax>
								<value>-10</value>
							</parameter>
							<parameter>
								<parameterid>curveb</parameterid>
								<name>Black Curve</name>
								<valuemin>-100</valuemin>
								<valuemax>100</valuemax>
								<value>0</value>
							</parameter>
							<parameter>
								<parameterid>clipoutput</parameterid>
								<name>Clip Output Levels</name>
								<value>TRUE</value>
							</parameter>
							<parameter>
								<parameterid>copyright</parameterid>
								<name>© www.nattress.com</name>
								<value>string</value>
							</parameter>
						</effect>
					</filter>
					<sourcetrack>
						<mediatype>video</mediatype>
					</sourcetrack>
					<link>
						<linkclipref>00846001.MOV</linkclipref>
						<mediatype>video</mediatype>
						<trackindex>1</trackindex>
						<clipindex>97</clipindex>
					</link>
					<link>
						<linkclipref>00846001.MOV2</linkclipref>
						<mediatype>audio</mediatype>
						<trackindex>2</trackindex>
						<clipindex>92</clipindex>
					</link>
					<fielddominance>upper</fielddominance>
					<itemhistory>
						<uuid>213B0A06-61AC-44FC-A13E-EC9677EE3007</uuid>
					</itemhistory>
				</clipitem>
				<clipitem id="gnager oppskalert">
					<name>gnager oppskalert</name>
					<duration>268</duration>
					<rate>
						<ntsc>FALSE</ntsc>
						<timebase>25</timebase>
					</rate>
					<in>166</in>
					<out>265</out>
					<start>11137</start>
					<end>-1</end>
					<pixelaspectratio>Square</pixelaspectratio>
					<enabled>TRUE</enabled>
					<anamorphic>FALSE</anamorphic>
					<alphatype>none</alphatype>
					<masterclipid>gnager oppskalert1</masterclipid>
					<logginginfo>
						<scene/>
						<shottake/>
						<lognote/>
						<good>FALSE</good>
					</logginginfo>
					<labels>
						<label2/>
					</labels>
					<comments>
						<mastercomment1/>
						<mastercomment2/>
						<mastercomment3/>
						<mastercomment4/>
					</comments>
					<file id="gnager oppskalert2">
						<name>gnager oppskalert.mov</name>
						<pathurl>file://localhost/Volumes/Askepott/Prosjekter/DNPR637010_Kra%CC%8Akeklubben_TEM_011212/Video/MELLOMSTIKK/S01E05%20Dyrebolig/Arkiv/gnager%20oppskalert.mov</pathurl>
						<rate>
							<timebase>25</timebase>
						</rate>
						<duration>268</duration>
						<metadata>
							<storage>QuickTime</storage>
							<key>com.apple.finalcutstudio.media.uuid</key>
							<size>36</size>
							<type>UTF8</type>
							<value>E207D308-E0A9-49B8-831A-439E623AB93B</value>
						</metadata>
						<timecode>
							<rate>
								<timebase>25</timebase>
							</rate>
							<string>00:00:00:00</string>
							<frame>0</frame>
							<displayformat>NDF</displayformat>
							<source>source</source>
						</timecode>
						<media>
							<video>
								<duration>268</duration>
								<samplecharacteristics>
									<width>1920</width>
									<height>1080</height>
								</samplecharacteristics>
							</video>
							<audio>
								<samplecharacteristics>
									<samplerate>48000</samplerate>
									<depth>16</depth>
								</samplecharacteristics>
								<channelcount>2</channelcount>
							</audio>
						</media>
					</file>
					<filter>
						<effect>
							<name>Basic Motion</name>
							<effectid>basic</effectid>
							<effectcategory>motion</effectcategory>
							<effecttype>motion</effecttype>
							<mediatype>video</mediatype>
							<parameter>
								<parameterid>scale</parameterid>
								<name>Scale</name>
								<valuemin>0</valuemin>
								<valuemax>1000</valuemax>
								<value>117</value>
							</parameter>
							<parameter>
								<parameterid>rotation</parameterid>
								<name>Rotation</name>
								<valuemin>-8640</valuemin>
								<valuemax>8640</valuemax>
								<keyframe>
									<when>31</when>
									<value>0</value>
								</keyframe>
								<keyframe>
									<when>33</when>
									<value>2</value>
								</keyframe>
								<keyframe>
									<when>36</when>
									<value>5</value>
								</keyframe>
								<keyframe>
									<when>40</when>
									<value>8</value>
								</keyframe>
								<keyframe>
									<when>42</when>
									<value>7</value>
								</keyframe>
								<keyframe>
									<when>44</when>
									<value>4</value>
								</keyframe>
								<interpolation>
									<name>FCPCurve</name>
								</interpolation>
								<value>4</value>
							</parameter>
							<parameter>
								<parameterid>center</parameterid>
								<name>Center</name>
								<keyframe>
									<when>31</when>
									<value>
										<horiz>0</horiz>
										<vert>-1.09409</vert>
									</value>
								</keyframe>
								<keyframe>
									<when>33</when>
									<value>
										<horiz>0</horiz>
										<vert>-0.886688</vert>
									</value>
								</keyframe>
								<keyframe>
									<when>36</when>
									<value>
										<horiz>0</horiz>
										<vert>-0.623725</vert>
									</value>
								</keyframe>
								<keyframe>
									<when>40</when>
									<value>
										<horiz>0</horiz>
										<vert>-0.32538</vert>
									</value>
								</keyframe>
								<keyframe>
									<when>42</when>
									<value>
										<horiz>0</horiz>
										<vert>-0.16269</vert>
									</value>
								</keyframe>
								<keyframe>
									<when>44</when>
									<value>
										<horiz>0</horiz>
										<vert>0</vert>
									</value>
								</keyframe>
								<interpolation>
									<name>FCPCurve</name>
								</interpolation>
							</parameter>
							<parameter>
								<parameterid>centerOffset</parameterid>
								<name>Anchor Point</name>
								<value>
									<horiz>0</horiz>
									<vert>0</vert>
								</value>
							</parameter>
						</effect>
					</filter>
					<sourcetrack>
						<mediatype>video</mediatype>
					</sourcetrack>
					<fielddominance>upper</fielddominance>
					<itemhistory>
						<uuid>2C820AFA-DC83-4A3E-AF15-FF88FE7718A9</uuid>
					</itemhistory>
				</clipitem>
				<transitionitem>
					<rate>
						<ntsc>FALSE</ntsc>
						<timebase>25</timebase>
					</rate>
					<start>11221</start>
					<end>11236</end>
					<alignment>center</alignment>
					<effect>
						<name>Push Slide</name>
						<effectid>Push Slide</effectid>
						<effectcategory>Slide</effectcategory>
						<effecttype>transition</effecttype>
						<mediatype>video</mediatype>
						<wipecode>1</wipecode>
						<wipeaccuracy>100</wipeaccuracy>
						<startratio>0</startratio>
						<endratio>1</endratio>
						<reverse>FALSE</reverse>
						<parameter>
							<parameterid>angleofpush</parameterid>
							<name>Angle</name>
							<valuemin>-360</valuemin>
							<valuemax>360</valuemax>
							<value>-90</value>
						</parameter>
						<parameter>
							<parameterid>borderwidth</parameterid>
							<name>Border</name>
							<valuemin>0</valuemin>
							<valuemax>10</valuemax>
							<value>0</value>
						</parameter>
						<parameter>
							<parameterid>bordercolor</parameterid>
							<name>Color</name>
							<value>
								<alpha>255</alpha>
								<red>0</red>
								<green>0</green>
								<blue>0</blue>
							</value>
						</parameter>
					</effect>
				</transitionitem>
				<clipitem id="00850001.MOV">
					<name>00850001.MOV</name>
					<duration>876</duration>
					<rate>
						<ntsc>FALSE</ntsc>
						<timebase>25</timebase>
					</rate>
					<in>510</in>
					<out>672</out>
					<start>-1</start>
					<end>11383</end>
					<pixelaspectratio>Square</pixelaspectratio>
					<enabled>TRUE</enabled>
					<anamorphic>FALSE</anamorphic>
					<alphatype>none</alphatype>
					<masterclipid>00850001.MOV1</masterclipid>
					<logginginfo>
						<scene/>
						<shottake/>
						<lognote/>
						<good>FALSE</good>
					</logginginfo>
					<labels>
						<label2/>
					</labels>
					<comments>
						<mastercomment1/>
						<mastercomment2/>
						<mastercomment3/>
						<mastercomment4/>
					</comments>
					<file id="00850001 ">
						<name>00850001.MOV</name>
						<pathurl>file://localhost/Volumes/Askepott/Prosjekter/DNPR637010_Kra%CC%8Akeklubben_TEM_011212/Video/MELLOMSTIKK/S01E05%20Dyrebolig/DAG2/00850001.MOV</pathurl>
						<rate>
							<timebase>25</timebase>
						</rate>
						<duration>876</duration>
						<timecode>
							<rate>
								<timebase>25</timebase>
							</rate>
							<string>18:45:09:14</string>
							<frame>1687739</frame>
							<displayformat>NDF</displayformat>
							<source>source</source>
							<reel>
								<name>Flash XDR</name>
							</reel>
						</timecode>
						<media>
							<video>
								<duration>876</duration>
								<samplecharacteristics>
									<width>1920</width>
									<height>1080</height>
								</samplecharacteristics>
							</video>
							<audio>
								<samplecharacteristics>
									<samplerate>48000</samplerate>
									<depth>24</depth>
								</samplecharacteristics>
								<channelcount>1</channelcount>
							</audio>
							<audio>
								<samplecharacteristics>
									<samplerate>48000</samplerate>
									<depth>24</depth>
								</samplecharacteristics>
								<channelcount>1</channelcount>
							</audio>
						</media>
					</file>
					<filter>
						<enabled>TRUE</enabled>
						<start>-1</start>
						<end>-1</end>
						<effect>
							<name>G Simple Curves -15 white curve</name>
							<effectcategory>Nattress Big Box of Tricks - Levels and Curves</effectcategory>
							<effecttype>filter</effecttype>
							<mediatype>video</mediatype>
							<parameter>
								<parameterid>colourspace</parameterid>
								<name>Colour Space</name>
								<valuemin>1</valuemin>
								<valuemax>2</valuemax>
								<valuelist>
									<valueentry>
										<name>RGB</name>
										<value>1</value>
									</valueentry>
									<valueentry>
										<name>Y'CbCr</name>
										<value>2</value>
									</valueentry>
								</valuelist>
								<value>2</value>
							</parameter>
							<parameter>
								<parameterid>showcurves</parameterid>
								<name>Show Curves</name>
								<value>FALSE</value>
							</parameter>
							<parameter>
								<parameterid>lvar</parameterid>
								<name>Levels Controls</name>
								<value>string</value>
							</parameter>
							<parameter>
								<parameterid>inw</parameterid>
								<name>White Level</name>
								<valuemin>0</valuemin>
								<valuemax>255</valuemax>
								<value>255</value>
							</parameter>
							<parameter>
								<parameterid>inb</parameterid>
								<name>Black Level</name>
								<valuemin>0</valuemin>
								<valuemax>255</valuemax>
								<value>0</value>
							</parameter>
							<parameter>
								<parameterid>outw</parameterid>
								<name>White Output</name>
								<valuemin>0</valuemin>
								<valuemax>255</valuemax>
								<value>255</value>
							</parameter>
							<parameter>
								<parameterid>outb</parameterid>
								<name>Black Output</name>
								<valuemin>0</valuemin>
								<valuemax>255</valuemax>
								<value>0</value>
							</parameter>
							<parameter>
								<parameterid>cvar</parameterid>
								<name>Curves Controls</name>
								<value>string</value>
							</parameter>
							<parameter>
								<parameterid>curvew</parameterid>
								<name>White Curve</name>
								<valuemin>-100</valuemin>
								<valuemax>100</valuemax>
								<value>-10</value>
							</parameter>
							<parameter>
								<parameterid>curveb</parameterid>
								<name>Black Curve</name>
								<valuemin>-100</valuemin>
								<valuemax>100</valuemax>
								<value>0</value>
							</parameter>
							<parameter>
								<parameterid>clipoutput</parameterid>
								<name>Clip Output Levels</name>
								<value>TRUE</value>
							</parameter>
							<parameter>
								<parameterid>copyright</parameterid>
								<name>© www.nattress.com</name>
								<value>string</value>
							</parameter>
						</effect>
					</filter>
					<filter>
						<enabled>TRUE</enabled>
						<start>-1</start>
						<end>-1</end>
						<effect>
							<name>Color Corrector - Lua til Carina</name>
							<effectid>Color Corrector</effectid>
							<effectcategory>Color Correction</effectcategory>
							<effecttype>filter</effecttype>
							<mediatype>video</mediatype>
							<parameter>
								<parameterid>dispmode</parameterid>
								<name>Display Mode</name>
								<valuemin>1</valuemin>
								<valuemax>3</valuemax>
								<valuelist>
									<valueentry>
										<name>Final</name>
										<value>1</value>
									</valueentry>
									<valueentry>
										<name>Matte</name>
										<value>2</value>
									</valueentry>
									<valueentry>
										<name>Source</name>
										<value>3</value>
									</valueentry>
								</valuelist>
								<value>1</value>
							</parameter>
							<parameter>
								<parameterid>label1</parameterid>
								<name>Level Controls</name>
								<value/>
							</parameter>
							<parameter>
								<parameterid>highlights</parameterid>
								<name>Highlights</name>
								<valuemin>64</valuemin>
								<valuemax>509</valuemax>
								<value>247</value>
							</parameter>
							<parameter>
								<parameterid>mids</parameterid>
								<name>Mids</name>
								<valuemin>0</valuemin>
								<valuemax>200</valuemax>
								<value>100</value>
							</parameter>
							<parameter>
								<parameterid>blacklevel</parameterid>
								<name>Blacks</name>
								<valuemin>-196</valuemin>
								<valuemax>254</valuemax>
								<value>-3</value>
							</parameter>
							<parameter>
								<parameterid>label2</parameterid>
								<name>Color Balance</name>
								<value/>
							</parameter>
							<parameter>
								<parameterid>hue</parameterid>
								<name>Angle</name>
								<valuemin>-180</valuemin>
								<valuemax>180</valuemax>
								<value>-33</value>
							</parameter>
							<parameter>
								<parameterid>mag</parameterid>
								<name>Magnitude</name>
								<valuemin>0</valuemin>
								<valuemax>200</valuemax>
								<value>0</value>
							</parameter>
							<parameter>
								<parameterid>label4</parameterid>
								<name>Color Controls</name>
								<value/>
							</parameter>
							<parameter>
								<parameterid>chroma</parameterid>
								<name>Saturation</name>
								<valuemin>0</valuemin>
								<valuemax>200</valuemax>
								<value>84</value>
							</parameter>
							<parameter>
								<parameterid>phase</parameterid>
								<name>Phase shift</name>
								<valuemin>-180</valuemin>
								<valuemax>180</valuemax>
								<value>0</value>
							</parameter>
							<parameter>
								<parameterid>label5</parameterid>
								<name>Limit Effect Controls</name>
								<value/>
							</parameter>
							<parameter>
								<parameterid>dochroma</parameterid>
								<name>Limit on Chroma</name>
								<value>TRUE</value>
							</parameter>
							<parameter>
								<parameterid>centerang</parameterid>
								<name>Chroma Center</name>
								<valuemin>-760</valuemin>
								<valuemax>760</valuemax>
								<value>322.256</value>
							</parameter>
							<parameter>
								<parameterid>chromawidth</parameterid>
								<name>Chroma Width</name>
								<valuemin>0</valuemin>
								<valuemax>360</valuemax>
								<value>7.49567</value>
							</parameter>
							<parameter>
								<parameterid>chromasoft</parameterid>
								<name>Chroma Softness</name>
								<valuemin>0</valuemin>
								<valuemax>180</valuemax>
								<value>10.6152</value>
							</parameter>
							<parameter>
								<parameterid>dosat</parameterid>
								<name>Limit on Saturation</name>
								<value>TRUE</value>
							</parameter>
							<parameter>
								<parameterid>satmin</parameterid>
								<name>Sat. Minimum</name>
								<valuemin>0</valuemin>
								<valuemax>125</valuemax>
								<value>36.7837</value>
							</parameter>
							<parameter>
								<parameterid>satwidth</parameterid>
								<name>Sat. Width</name>
								<valuemin>0</valuemin>
								<valuemax>125</valuemax>
								<value>84.0889</value>
							</parameter>
							<parameter>
								<parameterid>satsoft</parameterid>
								<name>Sat. Softness</name>
								<valuemin>0</valuemin>
								<valuemax>125</valuemax>
								<value>5</value>
							</parameter>
							<parameter>
								<parameterid>doluma</parameterid>
								<name>Limit on Luma</name>
								<value>TRUE</value>
							</parameter>
							<parameter>
								<parameterid>lumamin</parameterid>
								<name>Luma Minimum</name>
								<valuemin>0</valuemin>
								<valuemax>120</valuemax>
								<value>0.939667</value>
							</parameter>
							<parameter>
								<parameterid>lumawidth</parameterid>
								<name>Luma Width</name>
								<valuemin>0</valuemin>
								<valuemax>120</valuemax>
								<value>115.45</value>
							</parameter>
							<parameter>
								<parameterid>lumasoft</parameterid>
								<name>Luma Softness</name>
								<valuemin>0</valuemin>
								<valuemax>120</valuemax>
								<value>15.1099</value>
							</parameter>
							<parameter>
								<parameterid>label6</parameterid>
								<name>Edge Control</name>
								<value/>
							</parameter>
							<parameter>
								<parameterid>edgethin</parameterid>
								<name>Thin/Spread</name>
								<valuemin>-100</valuemin>
								<valuemax>100</valuemax>
								<value>0</value>
							</parameter>
							<parameter>
								<parameterid>edgefeather</parameterid>
								<name>Softening</name>
								<valuemin>0</valuemin>
								<valuemax>100</valuemax>
								<value>0</value>
							</parameter>
							<parameter>
								<parameterid>label7</parameterid>
								<name>Mask Control</name>
								<value/>
							</parameter>
							<parameter>
								<parameterid>invertsel</parameterid>
								<name>Invert</name>
								<value>FALSE</value>
							</parameter>
							<parameter>
								<parameterid>debugshow</parameterid>
								<name>Show Stats</name>
								<value>FALSE</value>
							</parameter>
						</effect>
					</filter>
					<filter>
						<effect>
							<name>Basic Motion</name>
							<effectid>basic</effectid>
							<effectcategory>motion</effectcategory>
							<effecttype>motion</effecttype>
							<mediatype>video</mediatype>
							<parameter>
								<parameterid>scale</parameterid>
								<name>Scale</name>
								<valuemin>0</valuemin>
								<valuemax>1000</valuemax>
								<value>111</value>
							</parameter>
							<parameter>
								<parameterid>rotation</parameterid>
								<name>Rotation</name>
								<valuemin>-8640</valuemin>
								<valuemax>8640</valuemax>
								<value>0</value>
							</parameter>
							<parameter>
								<parameterid>center</parameterid>
								<name>Center</name>
								<value>
									<horiz>-0.0208333</horiz>
									<vert>0.0296296</vert>
								</value>
							</parameter>
							<parameter>
								<parameterid>centerOffset</parameterid>
								<name>Anchor Point</name>
								<value>
									<horiz>0</horiz>
									<vert>0</vert>
								</value>
							</parameter>
						</effect>
					</filter>
					<filter>
						<enabled>FALSE</enabled>
						<effect>
							<name>Drop Shadow</name>
							<effectid>dropshadow</effectid>
							<effectcategory>motion</effectcategory>
							<effecttype>motion</effecttype>
							<mediatype>video</mediatype>
							<parameter>
								<parameterid>offset</parameterid>
								<name>offset</name>
								<valuemin>-100</valuemin>
								<valuemax>100</valuemax>
								<value>2</value>
							</parameter>
							<parameter>
								<parameterid>angle</parameterid>
								<name>angle</name>
								<valuemin>-720</valuemin>
								<valuemax>720</valuemax>
								<value>135</value>
							</parameter>
							<parameter>
								<parameterid>color</parameterid>
								<name>color</name>
								<value>
									<alpha>0</alpha>
									<red>0</red>
									<green>0</green>
									<blue>0</blue>
								</value>
							</parameter>
							<parameter>
								<parameterid>softness</parameterid>
								<name>softness</name>
								<valuemin>0</valuemin>
								<valuemax>100</valuemax>
								<value>10</value>
							</parameter>
							<parameter>
								<parameterid>opacity</parameterid>
								<name>opacity</name>
								<valuemin>0</valuemin>
								<valuemax>100</valuemax>
								<value>50</value>
							</parameter>
						</effect>
					</filter>
					<filter>
						<enabled>FALSE</enabled>
						<effect>
							<name>Motion Blur</name>
							<effectid>motionblur</effectid>
							<effectcategory>motion</effectcategory>
							<effecttype>motion</effecttype>
							<mediatype>video</mediatype>
							<parameter>
								<parameterid>duration</parameterid>
								<name>% Blur</name>
								<valuemin>0</valuemin>
								<valuemax>1000</valuemax>
								<value>500</value>
							</parameter>
							<parameter>
								<parameterid>samples</parameterid>
								<name>Samples</name>
								<valuemin>1</valuemin>
								<valuemax>16</valuemax>
								<value>4</value>
							</parameter>
						</effect>
					</filter>
					<filter>
						<effect>
							<name>Crop</name>
							<effectid>crop</effectid>
							<effectcategory>motion</effectcategory>
							<effecttype>motion</effecttype>
							<mediatype>video</mediatype>
							<parameter>
								<parameterid>left</parameterid>
								<name>left</name>
								<valuemin>0</valuemin>
								<valuemax>100</valuemax>
								<value>0</value>
							</parameter>
							<parameter>
								<parameterid>right</parameterid>
								<name>right</name>
								<valuemin>0</valuemin>
								<valuemax>100</valuemax>
								<value>0</value>
							</parameter>
							<parameter>
								<parameterid>top</parameterid>
								<name>top</name>
								<valuemin>0</valuemin>
								<valuemax>100</valuemax>
								<value>0</value>
							</parameter>
							<parameter>
								<parameterid>bottom</parameterid>
								<name>bottom</name>
								<valuemin>0</valuemin>
								<valuemax>100</valuemax>
								<value>0</value>
							</parameter>
							<parameter>
								<parameterid>edgefeather</parameterid>
								<name>edgefeather</name>
								<valuemin>0</valuemin>
								<valuemax>100</valuemax>
								<value>0</value>
							</parameter>
						</effect>
					</filter>
					<filter>
						<effect>
							<name>Distort</name>
							<effectid>deformation</effectid>
							<effectcategory>motion</effectcategory>
							<effecttype>motion</effecttype>
							<mediatype>video</mediatype>
							<parameter>
								<parameterid>ulcorner</parameterid>
								<name>Upper Left</name>
								<value>
									<horiz>-0.5</horiz>
									<vert>-0.5</vert>
								</value>
							</parameter>
							<parameter>
								<parameterid>urcorner</parameterid>
								<name>Upper Right</name>
								<value>
									<horiz>0.5</horiz>
									<vert>-0.5</vert>
								</value>
							</parameter>
							<parameter>
								<parameterid>lrcorner</parameterid>
								<name>Lower Right</name>
								<value>
									<horiz>0.5</horiz>
									<vert>0.5</vert>
								</value>
							</parameter>
							<parameter>
								<parameterid>llcorner</parameterid>
								<name>Lower Left</name>
								<value>
									<horiz>-0.5</horiz>
									<vert>0.5</vert>
								</value>
							</parameter>
							<parameter>
								<parameterid>aspect</parameterid>
								<name>Aspect</name>
								<valuemin>-10000</valuemin>
								<valuemax>10000</valuemax>
								<value>0</value>
							</parameter>
						</effect>
					</filter>
					<filter>
						<effect>
							<name>Opacity</name>
							<effectid>opacity</effectid>
							<effectcategory>motion</effectcategory>
							<effecttype>motion</effecttype>
							<mediatype>video</mediatype>
							<parameter>
								<parameterid>opacity</parameterid>
								<name>opacity</name>
								<valuemin>0</valuemin>
								<valuemax>100</valuemax>
								<value>100</value>
							</parameter>
						</effect>
					</filter>
					<sourcetrack>
						<mediatype>video</mediatype>
					</sourcetrack>
					<link>
						<linkclipref>00850001.MOV</linkclipref>
						<mediatype>video</mediatype>
						<trackindex>1</trackindex>
						<clipindex>100</clipindex>
					</link>
					<link>
						<linkclipref>00850001.MOV2</linkclipref>
						<mediatype>audio</mediatype>
						<trackindex>2</trackindex>
						<clipindex>95</clipindex>
					</link>
					<fielddominance>upper</fielddominance>
					<itemhistory>
						<uuid>EDAA8107-A2DA-4247-9AFA-6015F1BEF7A9</uuid>
					</itemhistory>
				</clipitem>
				<clipitem id="00851001.MOV">
					<name>00851001.MOV</name>
					<duration>1464</duration>
					<rate>
						<ntsc>FALSE</ntsc>
						<timebase>25</timebase>
					</rate>
					<in>272</in>
					<out>434</out>
					<start>11383</start>
					<end>11545</end>
					<pixelaspectratio>Square</pixelaspectratio>
					<enabled>TRUE</enabled>
					<anamorphic>FALSE</anamorphic>
					<alphatype>none</alphatype>
					<masterclipid>00851001.MOV1</masterclipid>
					<logginginfo>
						<scene/>
						<shottake/>
						<lognote/>
						<good>FALSE</good>
					</logginginfo>
					<labels>
						<label2/>
					</labels>
					<comments>
						<mastercomment1/>
						<mastercomment2/>
						<mastercomment3/>
						<mastercomment4/>
					</comments>
					<file id="00851001 ">
						<name>00851001.MOV</name>
						<pathurl>file://localhost/Volumes/Askepott/Prosjekter/DNPR637010_Kra%CC%8Akeklubben_TEM_011212/Video/MELLOMSTIKK/S01E05%20Dyrebolig/DAG2/00851001.MOV</pathurl>
						<rate>
							<timebase>25</timebase>
						</rate>
						<duration>1464</duration>
						<timecode>
							<rate>
								<timebase>25</timebase>
							</rate>
							<string>18:45:44:14</string>
							<frame>1688614</frame>
							<displayformat>NDF</displayformat>
							<source>source</source>
							<reel>
								<name>Flash XDR</name>
							</reel>
						</timecode>
						<media>
							<video>
								<duration>1464</duration>
								<samplecharacteristics>
									<width>1920</width>
									<height>1080</height>
								</samplecharacteristics>
							</video>
							<audio>
								<samplecharacteristics>
									<samplerate>48000</samplerate>
									<depth>24</depth>
								</samplecharacteristics>
								<channelcount>1</channelcount>
							</audio>
							<audio>
								<samplecharacteristics>
									<samplerate>48000</samplerate>
									<depth>24</depth>
								</samplecharacteristics>
								<channelcount>1</channelcount>
							</audio>
						</media>
					</file>
					<sourcetrack>
						<mediatype>video</mediatype>
					</sourcetrack>
					<link>
						<linkclipref>00851001.MOV</linkclipref>
						<mediatype>video</mediatype>
						<trackindex>1</trackindex>
						<clipindex>101</clipindex>
					</link>
					<link>
						<linkclipref>00851001.MOV2</linkclipref>
						<mediatype>audio</mediatype>
						<trackindex>2</trackindex>
						<clipindex>96</clipindex>
					</link>
					<fielddominance>upper</fielddominance>
					<itemhistory>
						<uuid>92F5B7C7-7750-47CB-8893-84D87534D0F5</uuid>
					</itemhistory>
				</clipitem>
				<clipitem id="00735001.MOV">
					<name>00735001.MOV</name>
					<duration>1308</duration>
					<rate>
						<ntsc>FALSE</ntsc>
						<timebase>25</timebase>
					</rate>
					<in>843</in>
					<out>929</out>
					<start>12244</start>
					<end>12330</end>
					<pixelaspectratio>Square</pixelaspectratio>
					<enabled>TRUE</enabled>
					<anamorphic>FALSE</anamorphic>
					<alphatype>none</alphatype>
					<masterclipid>00735001.MOV1</masterclipid>
					<logginginfo>
						<scene/>
						<shottake/>
						<lognote/>
						<good>FALSE</good>
					</logginginfo>
					<labels>
						<label2/>
					</labels>
					<comments>
						<mastercomment1/>
						<mastercomment2/>
						<mastercomment3/>
						<mastercomment4/>
					</comments>
					<file id="00735001 ">
						<name>00735001.MOV</name>
						<pathurl>file://localhost/Volumes/Askepott/Prosjekter/DNPR637010_Kra%CC%8Akeklubben_TEM_011212/Video/MELLOMSTIKK/S01E05%20Dyrebolig/00735001.MOV</pathurl>
						<rate>
							<timebase>25</timebase>
						</rate>
						<duration>1308</duration>
						<timecode>
							<rate>
								<timebase>25</timebase>
							</rate>
							<string>18:01:43:21</string>
							<frame>1622596</frame>
							<displayformat>NDF</displayformat>
							<source>source</source>
							<reel>
								<name>Flash XDR</name>
							</reel>
						</timecode>
						<media>
							<video>
								<duration>1308</duration>
								<samplecharacteristics>
									<width>1920</width>
									<height>1080</height>
								</samplecharacteristics>
							</video>
							<audio>
								<samplecharacteristics>
									<samplerate>48000</samplerate>
									<depth>24</depth>
								</samplecharacteristics>
								<channelcount>1</channelcount>
							</audio>
							<audio>
								<samplecharacteristics>
									<samplerate>48000</samplerate>
									<depth>24</depth>
								</samplecharacteristics>
								<channelcount>1</channelcount>
							</audio>
						</media>
					</file>
					<filter>
						<effect>
							<name>Basic Motion</name>
							<effectid>basic</effectid>
							<effectcategory>motion</effectcategory>
							<effecttype>motion</effecttype>
							<mediatype>video</mediatype>
							<parameter>
								<parameterid>scale</parameterid>
								<name>Scale</name>
								<valuemin>0</valuemin>
								<valuemax>1000</valuemax>
								<value>105</value>
							</parameter>
							<parameter>
								<parameterid>rotation</parameterid>
								<name>Rotation</name>
								<valuemin>-8640</valuemin>
								<valuemax>8640</valuemax>
								<value>0</value>
							</parameter>
							<parameter>
								<parameterid>center</parameterid>
								<name>Center</name>
								<value>
									<horiz>-0.0245161</horiz>
									<vert>-0.0229358</vert>
								</value>
							</parameter>
							<parameter>
								<parameterid>centerOffset</parameterid>
								<name>Anchor Point</name>
								<value>
									<horiz>0</horiz>
									<vert>0</vert>
								</value>
							</parameter>
						</effect>
					</filter>
					<filter>
						<enabled>FALSE</enabled>
						<effect>
							<name>Drop Shadow</name>
							<effectid>dropshadow</effectid>
							<effectcategory>motion</effectcategory>
							<effecttype>motion</effecttype>
							<mediatype>video</mediatype>
							<parameter>
								<parameterid>offset</parameterid>
								<name>offset</name>
								<valuemin>-100</valuemin>
								<valuemax>100</valuemax>
								<value>2</value>
							</parameter>
							<parameter>
								<parameterid>angle</parameterid>
								<name>angle</name>
								<valuemin>-720</valuemin>
								<valuemax>720</valuemax>
								<value>135</value>
							</parameter>
							<parameter>
								<parameterid>color</parameterid>
								<name>color</name>
								<value>
									<alpha>0</alpha>
									<red>0</red>
									<green>0</green>
									<blue>0</blue>
								</value>
							</parameter>
							<parameter>
								<parameterid>softness</parameterid>
								<name>softness</name>
								<valuemin>0</valuemin>
								<valuemax>100</valuemax>
								<value>10</value>
							</parameter>
							<parameter>
								<parameterid>opacity</parameterid>
								<name>opacity</name>
								<valuemin>0</valuemin>
								<valuemax>100</valuemax>
								<value>50</value>
							</parameter>
						</effect>
					</filter>
					<filter>
						<enabled>FALSE</enabled>
						<effect>
							<name>Motion Blur</name>
							<effectid>motionblur</effectid>
							<effectcategory>motion</effectcategory>
							<effecttype>motion</effecttype>
							<mediatype>video</mediatype>
							<parameter>
								<parameterid>duration</parameterid>
								<name>% Blur</name>
								<valuemin>0</valuemin>
								<valuemax>1000</valuemax>
								<value>500</value>
							</parameter>
							<parameter>
								<parameterid>samples</parameterid>
								<name>Samples</name>
								<valuemin>1</valuemin>
								<valuemax>16</valuemax>
								<value>4</value>
							</parameter>
						</effect>
					</filter>
					<filter>
						<effect>
							<name>Crop</name>
							<effectid>crop</effectid>
							<effectcategory>motion</effectcategory>
							<effecttype>motion</effecttype>
							<mediatype>video</mediatype>
							<parameter>
								<parameterid>left</parameterid>
								<name>left</name>
								<valuemin>0</valuemin>
								<valuemax>100</valuemax>
								<value>0</value>
							</parameter>
							<parameter>
								<parameterid>right</parameterid>
								<name>right</name>
								<valuemin>0</valuemin>
								<valuemax>100</valuemax>
								<value>0</value>
							</parameter>
							<parameter>
								<parameterid>top</parameterid>
								<name>top</name>
								<valuemin>0</valuemin>
								<valuemax>100</valuemax>
								<value>0</value>
							</parameter>
							<parameter>
								<parameterid>bottom</parameterid>
								<name>bottom</name>
								<valuemin>0</valuemin>
								<valuemax>100</valuemax>
								<value>0</value>
							</parameter>
							<parameter>
								<parameterid>edgefeather</parameterid>
								<name>edgefeather</name>
								<valuemin>0</valuemin>
								<valuemax>100</valuemax>
								<value>0</value>
							</parameter>
						</effect>
					</filter>
					<filter>
						<effect>
							<name>Distort</name>
							<effectid>deformation</effectid>
							<effectcategory>motion</effectcategory>
							<effecttype>motion</effecttype>
							<mediatype>video</mediatype>
							<parameter>
								<parameterid>ulcorner</parameterid>
								<name>Upper Left</name>
								<value>
									<horiz>-0.5</horiz>
									<vert>-0.5</vert>
								</value>
							</parameter>
							<parameter>
								<parameterid>urcorner</parameterid>
								<name>Upper Right</name>
								<value>
									<horiz>0.5</horiz>
									<vert>-0.5</vert>
								</value>
							</parameter>
							<parameter>
								<parameterid>lrcorner</parameterid>
								<name>Lower Right</name>
								<value>
									<horiz>0.5</horiz>
									<vert>0.5</vert>
								</value>
							</parameter>
							<parameter>
								<parameterid>llcorner</parameterid>
								<name>Lower Left</name>
								<value>
									<horiz>-0.5</horiz>
									<vert>0.5</vert>
								</value>
							</parameter>
							<parameter>
								<parameterid>aspect</parameterid>
								<name>Aspect</name>
								<valuemin>-10000</valuemin>
								<valuemax>10000</valuemax>
								<value>0</value>
							</parameter>
						</effect>
					</filter>
					<filter>
						<effect>
							<name>Opacity</name>
							<effectid>opacity</effectid>
							<effectcategory>motion</effectcategory>
							<effecttype>motion</effecttype>
							<mediatype>video</mediatype>
							<parameter>
								<parameterid>opacity</parameterid>
								<name>opacity</name>
								<valuemin>0</valuemin>
								<valuemax>100</valuemax>
								<value>100</value>
							</parameter>
						</effect>
					</filter>
					<sourcetrack>
						<mediatype>video</mediatype>
					</sourcetrack>
					<link>
						<linkclipref>00735001.MOV</linkclipref>
						<mediatype>video</mediatype>
						<trackindex>1</trackindex>
						<clipindex>102</clipindex>
					</link>
					<link>
						<linkclipref>00735001.MOV2</linkclipref>
						<mediatype>audio</mediatype>
						<trackindex>1</trackindex>
						<clipindex>95</clipindex>
					</link>
					<link>
						<linkclipref>00735001.MOV3</linkclipref>
						<mediatype>audio</mediatype>
						<trackindex>2</trackindex>
						<clipindex>99</clipindex>
					</link>
					<fielddominance>upper</fielddominance>
					<itemhistory>
						<uuid>487A229E-733F-4AAF-A6CA-EDBA788399BC</uuid>
					</itemhistory>
				</clipitem>
				<clipitem id="00735001.MOV4">
					<name>00735001.MOV</name>
					<duration>1308</duration>
					<rate>
						<ntsc>FALSE</ntsc>
						<timebase>25</timebase>
					</rate>
					<in>929</in>
					<out>1153</out>
					<start>12414</start>
					<end>12638</end>
					<pixelaspectratio>Square</pixelaspectratio>
					<enabled>TRUE</enabled>
					<anamorphic>FALSE</anamorphic>
					<alphatype>none</alphatype>
					<masterclipid>00735001.MOV1</masterclipid>
					<logginginfo>
						<scene/>
						<shottake/>
						<lognote/>
						<good>FALSE</good>
					</logginginfo>
					<labels>
						<label2/>
					</labels>
					<comments>
						<mastercomment1/>
						<mastercomment2/>
						<mastercomment3/>
						<mastercomment4/>
					</comments>
					<file id="00735001 "/>
					<filter>
						<effect>
							<name>Basic Motion</name>
							<effectid>basic</effectid>
							<effectcategory>motion</effectcategory>
							<effecttype>motion</effecttype>
							<mediatype>video</mediatype>
							<parameter>
								<parameterid>scale</parameterid>
								<name>Scale</name>
								<valuemin>0</valuemin>
								<valuemax>1000</valuemax>
								<value>105</value>
							</parameter>
							<parameter>
								<parameterid>rotation</parameterid>
								<name>Rotation</name>
								<valuemin>-8640</valuemin>
								<valuemax>8640</valuemax>
								<value>0</value>
							</parameter>
							<parameter>
								<parameterid>center</parameterid>
								<name>Center</name>
								<value>
									<horiz>-0.0245161</horiz>
									<vert>-0.0229358</vert>
								</value>
							</parameter>
							<parameter>
								<parameterid>centerOffset</parameterid>
								<name>Anchor Point</name>
								<value>
									<horiz>0</horiz>
									<vert>0</vert>
								</value>
							</parameter>
						</effect>
					</filter>
					<filter>
						<enabled>FALSE</enabled>
						<effect>
							<name>Drop Shadow</name>
							<effectid>dropshadow</effectid>
							<effectcategory>motion</effectcategory>
							<effecttype>motion</effecttype>
							<mediatype>video</mediatype>
							<parameter>
								<parameterid>offset</parameterid>
								<name>offset</name>
								<valuemin>-100</valuemin>
								<valuemax>100</valuemax>
								<value>2</value>
							</parameter>
							<parameter>
								<parameterid>angle</parameterid>
								<name>angle</name>
								<valuemin>-720</valuemin>
								<valuemax>720</valuemax>
								<value>135</value>
							</parameter>
							<parameter>
								<parameterid>color</parameterid>
								<name>color</name>
								<value>
									<alpha>0</alpha>
									<red>0</red>
									<green>0</green>
									<blue>0</blue>
								</value>
							</parameter>
							<parameter>
								<parameterid>softness</parameterid>
								<name>softness</name>
								<valuemin>0</valuemin>
								<valuemax>100</valuemax>
								<value>10</value>
							</parameter>
							<parameter>
								<parameterid>opacity</parameterid>
								<name>opacity</name>
								<valuemin>0</valuemin>
								<valuemax>100</valuemax>
								<value>50</value>
							</parameter>
						</effect>
					</filter>
					<filter>
						<enabled>FALSE</enabled>
						<effect>
							<name>Motion Blur</name>
							<effectid>motionblur</effectid>
							<effectcategory>motion</effectcategory>
							<effecttype>motion</effecttype>
							<mediatype>video</mediatype>
							<parameter>
								<parameterid>duration</parameterid>
								<name>% Blur</name>
								<valuemin>0</valuemin>
								<valuemax>1000</valuemax>
								<value>500</value>
							</parameter>
							<parameter>
								<parameterid>samples</parameterid>
								<name>Samples</name>
								<valuemin>1</valuemin>
								<valuemax>16</valuemax>
								<value>4</value>
							</parameter>
						</effect>
					</filter>
					<filter>
						<effect>
							<name>Crop</name>
							<effectid>crop</effectid>
							<effectcategory>motion</effectcategory>
							<effecttype>motion</effecttype>
							<mediatype>video</mediatype>
							<parameter>
								<parameterid>left</parameterid>
								<name>left</name>
								<valuemin>0</valuemin>
								<valuemax>100</valuemax>
								<value>0</value>
							</parameter>
							<parameter>
								<parameterid>right</parameterid>
								<name>right</name>
								<valuemin>0</valuemin>
								<valuemax>100</valuemax>
								<value>0</value>
							</parameter>
							<parameter>
								<parameterid>top</parameterid>
								<name>top</name>
								<valuemin>0</valuemin>
								<valuemax>100</valuemax>
								<value>0</value>
							</parameter>
							<parameter>
								<parameterid>bottom</parameterid>
								<name>bottom</name>
								<valuemin>0</valuemin>
								<valuemax>100</valuemax>
								<value>0</value>
							</parameter>
							<parameter>
								<parameterid>edgefeather</parameterid>
								<name>edgefeather</name>
								<valuemin>0</valuemin>
								<valuemax>100</valuemax>
								<value>0</value>
							</parameter>
						</effect>
					</filter>
					<filter>
						<effect>
							<name>Distort</name>
							<effectid>deformation</effectid>
							<effectcategory>motion</effectcategory>
							<effecttype>motion</effecttype>
							<mediatype>video</mediatype>
							<parameter>
								<parameterid>ulcorner</parameterid>
								<name>Upper Left</name>
								<value>
									<horiz>-0.5</horiz>
									<vert>-0.5</vert>
								</value>
							</parameter>
							<parameter>
								<parameterid>urcorner</parameterid>
								<name>Upper Right</name>
								<value>
									<horiz>0.5</horiz>
									<vert>-0.5</vert>
								</value>
							</parameter>
							<parameter>
								<parameterid>lrcorner</parameterid>
								<name>Lower Right</name>
								<value>
									<horiz>0.5</horiz>
									<vert>0.5</vert>
								</value>
							</parameter>
							<parameter>
								<parameterid>llcorner</parameterid>
								<name>Lower Left</name>
								<value>
									<horiz>-0.5</horiz>
									<vert>0.5</vert>
								</value>
							</parameter>
							<parameter>
								<parameterid>aspect</parameterid>
								<name>Aspect</name>
								<valuemin>-10000</valuemin>
								<valuemax>10000</valuemax>
								<value>0</value>
							</parameter>
						</effect>
					</filter>
					<filter>
						<effect>
							<name>Opacity</name>
							<effectid>opacity</effectid>
							<effectcategory>motion</effectcategory>
							<effecttype>motion</effecttype>
							<mediatype>video</mediatype>
							<parameter>
								<parameterid>opacity</parameterid>
								<name>opacity</name>
								<valuemin>0</valuemin>
								<valuemax>100</valuemax>
								<value>100</value>
							</parameter>
						</effect>
					</filter>
					<sourcetrack>
						<mediatype>video</mediatype>
					</sourcetrack>
					<link>
						<linkclipref>00735001.MOV4</linkclipref>
						<mediatype>video</mediatype>
						<trackindex>1</trackindex>
						<clipindex>103</clipindex>
					</link>
					<link>
						<linkclipref>00735001.MOV5</linkclipref>
						<mediatype>audio</mediatype>
						<trackindex>1</trackindex>
						<clipindex>96</clipindex>
					</link>
					<link>
						<linkclipref>00735001.MOV6</linkclipref>
						<mediatype>audio</mediatype>
						<trackindex>2</trackindex>
						<clipindex>100</clipindex>
					</link>
					<fielddominance>upper</fielddominance>
					<itemhistory>
						<uuid>96E55E22-0286-4466-B8CE-B4B8209531F8</uuid>
					</itemhistory>
				</clipitem>
				<clipitem id="00736001.MOV">
					<name>00736001.MOV</name>
					<duration>552</duration>
					<rate>
						<ntsc>FALSE</ntsc>
						<timebase>25</timebase>
					</rate>
					<in>296</in>
					<out>378</out>
					<start>12638</start>
					<end>12720</end>
					<pixelaspectratio>Square</pixelaspectratio>
					<enabled>TRUE</enabled>
					<anamorphic>FALSE</anamorphic>
					<alphatype>none</alphatype>
					<masterclipid>00736001.MOV1</masterclipid>
					<logginginfo>
						<scene/>
						<shottake/>
						<lognote/>
						<good>FALSE</good>
					</logginginfo>
					<labels>
						<label2/>
					</labels>
					<comments>
						<mastercomment1/>
						<mastercomment2/>
						<mastercomment3/>
						<mastercomment4/>
					</comments>
					<file id="00736001 ">
						<name>00736001.MOV</name>
						<pathurl>file://localhost/Volumes/Askepott/Prosjekter/DNPR637010_Kra%CC%8Akeklubben_TEM_011212/Video/MELLOMSTIKK/S01E05%20Dyrebolig/00736001.MOV</pathurl>
						<rate>
							<timebase>25</timebase>
						</rate>
						<duration>552</duration>
						<timecode>
							<rate>
								<timebase>25</timebase>
							</rate>
							<string>18:02:36:09</string>
							<frame>1623909</frame>
							<displayformat>NDF</displayformat>
							<source>source</source>
							<reel>
								<name>Flash XDR</name>
							</reel>
						</timecode>
						<media>
							<video>
								<duration>552</duration>
								<samplecharacteristics>
									<width>1920</width>
									<height>1080</height>
								</samplecharacteristics>
							</video>
							<audio>
								<samplecharacteristics>
									<samplerate>48000</samplerate>
									<depth>24</depth>
								</samplecharacteristics>
								<channelcount>1</channelcount>
							</audio>
							<audio>
								<samplecharacteristics>
									<samplerate>48000</samplerate>
									<depth>24</depth>
								</samplecharacteristics>
								<channelcount>1</channelcount>
							</audio>
						</media>
					</file>
					<sourcetrack>
						<mediatype>video</mediatype>
					</sourcetrack>
					<link>
						<linkclipref>00736001.MOV</linkclipref>
						<mediatype>video</mediatype>
						<trackindex>1</trackindex>
						<clipindex>104</clipindex>
					</link>
					<link>
						<linkclipref>00736001.MOV2</linkclipref>
						<mediatype>audio</mediatype>
						<trackindex>1</trackindex>
						<clipindex>97</clipindex>
					</link>
					<link>
						<linkclipref>00736001.MOV3</linkclipref>
						<mediatype>audio</mediatype>
						<trackindex>2</trackindex>
						<clipindex>101</clipindex>
					</link>
					<fielddominance>upper</fielddominance>
					<itemhistory>
						<uuid>238EDE29-CD2B-4353-98A8-D3A19C04C492</uuid>
					</itemhistory>
				</clipitem>
				<clipitem id="00740001.MOV">
					<name>00740001.MOV</name>
					<duration>1440</duration>
					<rate>
						<ntsc>FALSE</ntsc>
						<timebase>25</timebase>
					</rate>
					<in>991</in>
					<out>1360</out>
					<start>12720</start>
					<end>13089</end>
					<pixelaspectratio>Square</pixelaspectratio>
					<enabled>TRUE</enabled>
					<anamorphic>FALSE</anamorphic>
					<alphatype>none</alphatype>
					<masterclipid>00740001.MOV1</masterclipid>
					<logginginfo>
						<scene/>
						<shottake/>
						<lognote/>
						<good>FALSE</good>
					</logginginfo>
					<labels>
						<label2/>
					</labels>
					<comments>
						<mastercomment1/>
						<mastercomment2/>
						<mastercomment3/>
						<mastercomment4/>
					</comments>
					<file id="00740001 ">
						<name>00740001.MOV</name>
						<pathurl>file://localhost/Volumes/Askepott/Prosjekter/DNPR637010_Kra%CC%8Akeklubben_TEM_011212/Video/MELLOMSTIKK/S01E05%20Dyrebolig/00740001.MOV</pathurl>
						<rate>
							<timebase>25</timebase>
						</rate>
						<duration>1440</duration>
						<timecode>
							<rate>
								<timebase>25</timebase>
							</rate>
							<string>18:04:16:22</string>
							<frame>1626422</frame>
							<displayformat>NDF</displayformat>
							<source>source</source>
							<reel>
								<name>Flash XDR</name>
							</reel>
						</timecode>
						<media>
							<video>
								<duration>1440</duration>
								<samplecharacteristics>
									<width>1920</width>
									<height>1080</height>
								</samplecharacteristics>
							</video>
							<audio>
								<samplecharacteristics>
									<samplerate>48000</samplerate>
									<depth>24</depth>
								</samplecharacteristics>
								<channelcount>1</channelcount>
							</audio>
							<audio>
								<samplecharacteristics>
									<samplerate>48000</samplerate>
									<depth>24</depth>
								</samplecharacteristics>
								<channelcount>1</channelcount>
							</audio>
						</media>
					</file>
					<filter>
						<enabled>TRUE</enabled>
						<start>-1</start>
						<end>-1</end>
						<effect>
							<name>G Simple Curves -15 white curve</name>
							<effectcategory>Nattress Big Box of Tricks - Levels and Curves</effectcategory>
							<effecttype>filter</effecttype>
							<mediatype>video</mediatype>
							<parameter>
								<parameterid>colourspace</parameterid>
								<name>Colour Space</name>
								<valuemin>1</valuemin>
								<valuemax>2</valuemax>
								<valuelist>
									<valueentry>
										<name>RGB</name>
										<value>1</value>
									</valueentry>
									<valueentry>
										<name>Y'CbCr</name>
										<value>2</value>
									</valueentry>
								</valuelist>
								<value>2</value>
							</parameter>
							<parameter>
								<parameterid>showcurves</parameterid>
								<name>Show Curves</name>
								<value>FALSE</value>
							</parameter>
							<parameter>
								<parameterid>lvar</parameterid>
								<name>Levels Controls</name>
								<value>string</value>
							</parameter>
							<parameter>
								<parameterid>inw</parameterid>
								<name>White Level</name>
								<valuemin>0</valuemin>
								<valuemax>255</valuemax>
								<value>255</value>
							</parameter>
							<parameter>
								<parameterid>inb</parameterid>
								<name>Black Level</name>
								<valuemin>0</valuemin>
								<valuemax>255</valuemax>
								<value>0</value>
							</parameter>
							<parameter>
								<parameterid>outw</parameterid>
								<name>White Output</name>
								<valuemin>0</valuemin>
								<valuemax>255</valuemax>
								<value>255</value>
							</parameter>
							<parameter>
								<parameterid>outb</parameterid>
								<name>Black Output</name>
								<valuemin>0</valuemin>
								<valuemax>255</valuemax>
								<value>0</value>
							</parameter>
							<parameter>
								<parameterid>cvar</parameterid>
								<name>Curves Controls</name>
								<value>string</value>
							</parameter>
							<parameter>
								<parameterid>curvew</parameterid>
								<name>White Curve</name>
								<valuemin>-100</valuemin>
								<valuemax>100</valuemax>
								<value>-20</value>
							</parameter>
							<parameter>
								<parameterid>curveb</parameterid>
								<name>Black Curve</name>
								<valuemin>-100</valuemin>
								<valuemax>100</valuemax>
								<value>0</value>
							</parameter>
							<parameter>
								<parameterid>clipoutput</parameterid>
								<name>Clip Output Levels</name>
								<value>TRUE</value>
							</parameter>
							<parameter>
								<parameterid>copyright</parameterid>
								<name>© www.nattress.com</name>
								<value>string</value>
							</parameter>
						</effect>
					</filter>
					<filter>
						<enabled>TRUE</enabled>
						<start>-1</start>
						<end>-1</end>
						<effect>
							<name>Color Corrector - Lua til Carina 3 bittelitt</name>
							<effectid>Color Corrector</effectid>
							<effectcategory>Color Correction</effectcategory>
							<effecttype>filter</effecttype>
							<mediatype>video</mediatype>
							<parameter>
								<parameterid>dispmode</parameterid>
								<name>Display Mode</name>
								<valuemin>1</valuemin>
								<valuemax>3</valuemax>
								<valuelist>
									<valueentry>
										<name>Final</name>
										<value>1</value>
									</valueentry>
									<valueentry>
										<name>Matte</name>
										<value>2</value>
									</valueentry>
									<valueentry>
										<name>Source</name>
										<value>3</value>
									</valueentry>
								</valuelist>
								<value>1</value>
							</parameter>
							<parameter>
								<parameterid>label1</parameterid>
								<name>Level Controls</name>
								<value/>
							</parameter>
							<parameter>
								<parameterid>highlights</parameterid>
								<name>Highlights</name>
								<valuemin>64</valuemin>
								<valuemax>509</valuemax>
								<value>247</value>
							</parameter>
							<parameter>
								<parameterid>mids</parameterid>
								<name>Mids</name>
								<valuemin>0</valuemin>
								<valuemax>200</valuemax>
								<value>100</value>
							</parameter>
							<parameter>
								<parameterid>blacklevel</parameterid>
								<name>Blacks</name>
								<valuemin>-196</valuemin>
								<valuemax>254</valuemax>
								<value>-3</value>
							</parameter>
							<parameter>
								<parameterid>label2</parameterid>
								<name>Color Balance</name>
								<value/>
							</parameter>
							<parameter>
								<parameterid>hue</parameterid>
								<name>Angle</name>
								<valuemin>-180</valuemin>
								<valuemax>180</valuemax>
								<value>-33</value>
							</parameter>
							<parameter>
								<parameterid>mag</parameterid>
								<name>Magnitude</name>
								<valuemin>0</valuemin>
								<valuemax>200</valuemax>
								<value>0</value>
							</parameter>
							<parameter>
								<parameterid>label4</parameterid>
								<name>Color Controls</name>
								<value/>
							</parameter>
							<parameter>
								<parameterid>chroma</parameterid>
								<name>Saturation</name>
								<valuemin>0</valuemin>
								<valuemax>200</valuemax>
								<value>94</value>
							</parameter>
							<parameter>
								<parameterid>phase</parameterid>
								<name>Phase shift</name>
								<valuemin>-180</valuemin>
								<valuemax>180</valuemax>
								<value>0</value>
							</parameter>
							<parameter>
								<parameterid>label5</parameterid>
								<name>Limit Effect Controls</name>
								<value/>
							</parameter>
							<parameter>
								<parameterid>dochroma</parameterid>
								<name>Limit on Chroma</name>
								<value>TRUE</value>
							</parameter>
							<parameter>
								<parameterid>centerang</parameterid>
								<name>Chroma Center</name>
								<valuemin>-760</valuemin>
								<valuemax>760</valuemax>
								<value>322.256</value>
							</parameter>
							<parameter>
								<parameterid>chromawidth</parameterid>
								<name>Chroma Width</name>
								<valuemin>0</valuemin>
								<valuemax>360</valuemax>
								<value>8.11959</value>
							</parameter>
							<parameter>
								<parameterid>chromasoft</parameterid>
								<name>Chroma Softness</name>
								<valuemin>0</valuemin>
								<valuemax>180</valuemax>
								<value>26.8371</value>
							</parameter>
							<parameter>
								<parameterid>dosat</parameterid>
								<name>Limit on Saturation</name>
								<value>TRUE</value>
							</parameter>
							<parameter>
								<parameterid>satmin</parameterid>
								<name>Sat. Minimum</name>
								<valuemin>0</valuemin>
								<valuemax>125</valuemax>
								<value>36.7837</value>
							</parameter>
							<parameter>
								<parameterid>satwidth</parameterid>
								<name>Sat. Width</name>
								<valuemin>0</valuemin>
								<valuemax>125</valuemax>
								<value>84.0889</value>
							</parameter>
							<parameter>
								<parameterid>satsoft</parameterid>
								<name>Sat. Softness</name>
								<valuemin>0</valuemin>
								<valuemax>125</valuemax>
								<value>5</value>
							</parameter>
							<parameter>
								<parameterid>doluma</parameterid>
								<name>Limit on Luma</name>
								<value>TRUE</value>
							</parameter>
							<parameter>
								<parameterid>lumamin</parameterid>
								<name>Luma Minimum</name>
								<valuemin>0</valuemin>
								<valuemax>120</valuemax>
								<value>0.939667</value>
							</parameter>
							<parameter>
								<parameterid>lumawidth</parameterid>
								<name>Luma Width</name>
								<valuemin>0</valuemin>
								<valuemax>120</valuemax>
								<value>115.45</value>
							</parameter>
							<parameter>
								<parameterid>lumasoft</parameterid>
								<name>Luma Softness</name>
								<valuemin>0</valuemin>
								<valuemax>120</valuemax>
								<value>15.1099</value>
							</parameter>
							<parameter>
								<parameterid>label6</parameterid>
								<name>Edge Control</name>
								<value/>
							</parameter>
							<parameter>
								<parameterid>edgethin</parameterid>
								<name>Thin/Spread</name>
								<valuemin>-100</valuemin>
								<valuemax>100</valuemax>
								<value>0</value>
							</parameter>
							<parameter>
								<parameterid>edgefeather</parameterid>
								<name>Softening</name>
								<valuemin>0</valuemin>
								<valuemax>100</valuemax>
								<value>6</value>
							</parameter>
							<parameter>
								<parameterid>label7</parameterid>
								<name>Mask Control</name>
								<value/>
							</parameter>
							<parameter>
								<parameterid>invertsel</parameterid>
								<name>Invert</name>
								<value>FALSE</value>
							</parameter>
							<parameter>
								<parameterid>debugshow</parameterid>
								<name>Show Stats</name>
								<value>FALSE</value>
							</parameter>
						</effect>
					</filter>
					<sourcetrack>
						<mediatype>video</mediatype>
					</sourcetrack>
					<link>
						<linkclipref>00740001.MOV</linkclipref>
						<mediatype>video</mediatype>
						<trackindex>1</trackindex>
						<clipindex>105</clipindex>
					</link>
					<link>
						<linkclipref>00740001.MOV2</linkclipref>
						<mediatype>audio</mediatype>
						<trackindex>1</trackindex>
						<clipindex>99</clipindex>
					</link>
					<link>
						<linkclipref>00740001.MOV3</linkclipref>
						<mediatype>audio</mediatype>
						<trackindex>2</trackindex>
						<clipindex>103</clipindex>
					</link>
					<fielddominance>upper</fielddominance>
					<itemhistory>
						<uuid>05EE5AFD-F1A9-4C9F-BAE0-4FD08B25D246</uuid>
					</itemhistory>
				</clipitem>
				<clipitem id="00742001.MOV">
					<name>00742001.MOV</name>
					<duration>780</duration>
					<rate>
						<ntsc>FALSE</ntsc>
						<timebase>25</timebase>
					</rate>
					<in>433</in>
					<out>600</out>
					<start>13089</start>
					<end>13256</end>
					<pixelaspectratio>Square</pixelaspectratio>
					<enabled>TRUE</enabled>
					<anamorphic>FALSE</anamorphic>
					<alphatype>none</alphatype>
					<masterclipid>00742001.MOV1</masterclipid>
					<logginginfo>
						<scene/>
						<shottake/>
						<lognote/>
						<good>FALSE</good>
					</logginginfo>
					<labels>
						<label2/>
					</labels>
					<comments>
						<mastercomment1/>
						<mastercomment2/>
						<mastercomment3/>
						<mastercomment4/>
					</comments>
					<file id="00742001 ">
						<name>00742001.MOV</name>
						<pathurl>file://localhost/Volumes/Askepott/Prosjekter/DNPR637010_Kra%CC%8Akeklubben_TEM_011212/Video/MELLOMSTIKK/S01E05%20Dyrebolig/00742001.MOV</pathurl>
						<rate>
							<timebase>25</timebase>
						</rate>
						<duration>780</duration>
						<timecode>
							<rate>
								<timebase>25</timebase>
							</rate>
							<string>17:42:36:06</string>
							<frame>1593906</frame>
							<displayformat>NDF</displayformat>
							<source>source</source>
							<reel>
								<name>Flash XDR</name>
							</reel>
						</timecode>
						<media>
							<video>
								<duration>780</duration>
								<samplecharacteristics>
									<width>1920</width>
									<height>1080</height>
								</samplecharacteristics>
							</video>
							<audio>
								<samplecharacteristics>
									<samplerate>48000</samplerate>
									<depth>24</depth>
								</samplecharacteristics>
								<channelcount>1</channelcount>
							</audio>
							<audio>
								<samplecharacteristics>
									<samplerate>48000</samplerate>
									<depth>24</depth>
								</samplecharacteristics>
								<channelcount>1</channelcount>
							</audio>
						</media>
					</file>
					<filter>
						<enabled>TRUE</enabled>
						<start>-1</start>
						<end>-1</end>
						<effect>
							<name>G Simple Curves +20 white curve</name>
							<effectcategory>Nattress Big Box of Tricks - Levels and Curves</effectcategory>
							<effecttype>filter</effecttype>
							<mediatype>video</mediatype>
							<parameter>
								<parameterid>colourspace</parameterid>
								<name>Colour Space</name>
								<valuemin>1</valuemin>
								<valuemax>2</valuemax>
								<valuelist>
									<valueentry>
										<name>RGB</name>
										<value>1</value>
									</valueentry>
									<valueentry>
										<name>Y'CbCr</name>
										<value>2</value>
									</valueentry>
								</valuelist>
								<value>2</value>
							</parameter>
							<parameter>
								<parameterid>showcurves</parameterid>
								<name>Show Curves</name>
								<value>FALSE</value>
							</parameter>
							<parameter>
								<parameterid>lvar</parameterid>
								<name>Levels Controls</name>
								<value>string</value>
							</parameter>
							<parameter>
								<parameterid>inw</parameterid>
								<name>White Level</name>
								<valuemin>0</valuemin>
								<valuemax>255</valuemax>
								<value>255</value>
							</parameter>
							<parameter>
								<parameterid>inb</parameterid>
								<name>Black Level</name>
								<valuemin>0</valuemin>
								<valuemax>255</valuemax>
								<value>0</value>
							</parameter>
							<parameter>
								<parameterid>outw</parameterid>
								<name>White Output</name>
								<valuemin>0</valuemin>
								<valuemax>255</valuemax>
								<value>255</value>
							</parameter>
							<parameter>
								<parameterid>outb</parameterid>
								<name>Black Output</name>
								<valuemin>0</valuemin>
								<valuemax>255</valuemax>
								<value>0</value>
							</parameter>
							<parameter>
								<parameterid>cvar</parameterid>
								<name>Curves Controls</name>
								<value>string</value>
							</parameter>
							<parameter>
								<parameterid>curvew</parameterid>
								<name>White Curve</name>
								<valuemin>-100</valuemin>
								<valuemax>100</valuemax>
								<value>5</value>
							</parameter>
							<parameter>
								<parameterid>curveb</parameterid>
								<name>Black Curve</name>
								<valuemin>-100</valuemin>
								<valuemax>100</valuemax>
								<value>0</value>
							</parameter>
							<parameter>
								<parameterid>clipoutput</parameterid>
								<name>Clip Output Levels</name>
								<value>TRUE</value>
							</parameter>
							<parameter>
								<parameterid>copyright</parameterid>
								<name>© www.nattress.com</name>
								<value>string</value>
							</parameter>
						</effect>
					</filter>
					<sourcetrack>
						<mediatype>video</mediatype>
					</sourcetrack>
					<link>
						<linkclipref>00742001.MOV</linkclipref>
						<mediatype>video</mediatype>
						<trackindex>1</trackindex>
						<clipindex>106</clipindex>
					</link>
					<link>
						<linkclipref>00742001.MOV2</linkclipref>
						<mediatype>audio</mediatype>
						<trackindex>1</trackindex>
						<clipindex>100</clipindex>
					</link>
					<link>
						<linkclipref>00742001.MOV3</linkclipref>
						<mediatype>audio</mediatype>
						<trackindex>2</trackindex>
						<clipindex>104</clipindex>
					</link>
					<fielddominance>upper</fielddominance>
					<itemhistory>
						<uuid>369C426A-8971-4C30-9917-248FC29F2193</uuid>
					</itemhistory>
				</clipitem>
				<clipitem id="00748001.MOV">
					<name>00748001.MOV</name>
					<duration>2712</duration>
					<rate>
						<ntsc>FALSE</ntsc>
						<timebase>25</timebase>
					</rate>
					<in>220</in>
					<out>416</out>
					<start>13256</start>
					<end>13452</end>
					<pixelaspectratio>Square</pixelaspectratio>
					<enabled>TRUE</enabled>
					<anamorphic>FALSE</anamorphic>
					<alphatype>none</alphatype>
					<masterclipid>00748001.MOV1</masterclipid>
					<logginginfo>
						<scene/>
						<shottake/>
						<lognote/>
						<good>FALSE</good>
					</logginginfo>
					<labels>
						<label2/>
					</labels>
					<comments>
						<mastercomment1/>
						<mastercomment2/>
						<mastercomment3/>
						<mastercomment4/>
					</comments>
					<file id="00748001 ">
						<name>00748001.MOV</name>
						<pathurl>file://localhost/Volumes/Askepott/Prosjekter/DNPR637010_Kra%CC%8Akeklubben_TEM_011212/Video/MELLOMSTIKK/S01E05%20Dyrebolig/00748001.MOV</pathurl>
						<rate>
							<timebase>25</timebase>
						</rate>
						<duration>2712</duration>
						<timecode>
							<rate>
								<timebase>25</timebase>
							</rate>
							<string>17:44:33:21</string>
							<frame>1596846</frame>
							<displayformat>NDF</displayformat>
							<source>source</source>
							<reel>
								<name>Flash XDR</name>
							</reel>
						</timecode>
						<media>
							<video>
								<duration>2712</duration>
								<samplecharacteristics>
									<width>1920</width>
									<height>1080</height>
								</samplecharacteristics>
							</video>
							<audio>
								<samplecharacteristics>
									<samplerate>48000</samplerate>
									<depth>24</depth>
								</samplecharacteristics>
								<channelcount>1</channelcount>
							</audio>
							<audio>
								<samplecharacteristics>
									<samplerate>48000</samplerate>
									<depth>24</depth>
								</samplecharacteristics>
								<channelcount>1</channelcount>
							</audio>
						</media>
					</file>
					<filter>
						<enabled>TRUE</enabled>
						<start>-1</start>
						<end>-1</end>
						<effect>
							<name>G Simple Curves -15 white curve</name>
							<effectcategory>Nattress Big Box of Tricks - Levels and Curves</effectcategory>
							<effecttype>filter</effecttype>
							<mediatype>video</mediatype>
							<parameter>
								<parameterid>colourspace</parameterid>
								<name>Colour Space</name>
								<valuemin>1</valuemin>
								<valuemax>2</valuemax>
								<valuelist>
									<valueentry>
										<name>RGB</name>
										<value>1</value>
									</valueentry>
									<valueentry>
										<name>Y'CbCr</name>
										<value>2</value>
									</valueentry>
								</valuelist>
								<value>2</value>
							</parameter>
							<parameter>
								<parameterid>showcurves</parameterid>
								<name>Show Curves</name>
								<value>FALSE</value>
							</parameter>
							<parameter>
								<parameterid>lvar</parameterid>
								<name>Levels Controls</name>
								<value>string</value>
							</parameter>
							<parameter>
								<parameterid>inw</parameterid>
								<name>White Level</name>
								<valuemin>0</valuemin>
								<valuemax>255</valuemax>
								<value>255</value>
							</parameter>
							<parameter>
								<parameterid>inb</parameterid>
								<name>Black Level</name>
								<valuemin>0</valuemin>
								<valuemax>255</valuemax>
								<value>10</value>
							</parameter>
							<parameter>
								<parameterid>outw</parameterid>
								<name>White Output</name>
								<valuemin>0</valuemin>
								<valuemax>255</valuemax>
								<value>255</value>
							</parameter>
							<parameter>
								<parameterid>outb</parameterid>
								<name>Black Output</name>
								<valuemin>0</valuemin>
								<valuemax>255</valuemax>
								<value>0</value>
							</parameter>
							<parameter>
								<parameterid>cvar</parameterid>
								<name>Curves Controls</name>
								<value>string</value>
							</parameter>
							<parameter>
								<parameterid>curvew</parameterid>
								<name>White Curve</name>
								<valuemin>-100</valuemin>
								<valuemax>100</valuemax>
								<value>-15</value>
							</parameter>
							<parameter>
								<parameterid>curveb</parameterid>
								<name>Black Curve</name>
								<valuemin>-100</valuemin>
								<valuemax>100</valuemax>
								<value>0</value>
							</parameter>
							<parameter>
								<parameterid>clipoutput</parameterid>
								<name>Clip Output Levels</name>
								<value>TRUE</value>
							</parameter>
							<parameter>
								<parameterid>copyright</parameterid>
								<name>© www.nattress.com</name>
								<value>string</value>
							</parameter>
						</effect>
					</filter>
					<filter>
						<effect>
							<name>Basic Motion</name>
							<effectid>basic</effectid>
							<effectcategory>motion</effectcategory>
							<effecttype>motion</effecttype>
							<mediatype>video</mediatype>
							<parameter>
								<parameterid>scale</parameterid>
								<name>Scale</name>
								<valuemin>0</valuemin>
								<valuemax>1000</valuemax>
								<value>120</value>
							</parameter>
							<parameter>
								<parameterid>rotation</parameterid>
								<name>Rotation</name>
								<valuemin>-8640</valuemin>
								<valuemax>8640</valuemax>
								<value>0</value>
							</parameter>
							<parameter>
								<parameterid>center</parameterid>
								<name>Center</name>
								<value>
									<horiz>0.0954839</horiz>
									<vert>-0.0206422</vert>
								</value>
							</parameter>
							<parameter>
								<parameterid>centerOffset</parameterid>
								<name>Anchor Point</name>
								<value>
									<horiz>0</horiz>
									<vert>0</vert>
								</value>
							</parameter>
						</effect>
					</filter>
					<filter>
						<enabled>FALSE</enabled>
						<effect>
							<name>Drop Shadow</name>
							<effectid>dropshadow</effectid>
							<effectcategory>motion</effectcategory>
							<effecttype>motion</effecttype>
							<mediatype>video</mediatype>
							<parameter>
								<parameterid>offset</parameterid>
								<name>offset</name>
								<valuemin>-100</valuemin>
								<valuemax>100</valuemax>
								<value>2</value>
							</parameter>
							<parameter>
								<parameterid>angle</parameterid>
								<name>angle</name>
								<valuemin>-720</valuemin>
								<valuemax>720</valuemax>
								<value>135</value>
							</parameter>
							<parameter>
								<parameterid>color</parameterid>
								<name>color</name>
								<value>
									<alpha>0</alpha>
									<red>0</red>
									<green>0</green>
									<blue>0</blue>
								</value>
							</parameter>
							<parameter>
								<parameterid>softness</parameterid>
								<name>softness</name>
								<valuemin>0</valuemin>
								<valuemax>100</valuemax>
								<value>10</value>
							</parameter>
							<parameter>
								<parameterid>opacity</parameterid>
								<name>opacity</name>
								<valuemin>0</valuemin>
								<valuemax>100</valuemax>
								<value>50</value>
							</parameter>
						</effect>
					</filter>
					<filter>
						<enabled>FALSE</enabled>
						<effect>
							<name>Motion Blur</name>
							<effectid>motionblur</effectid>
							<effectcategory>motion</effectcategory>
							<effecttype>motion</effecttype>
							<mediatype>video</mediatype>
							<parameter>
								<parameterid>duration</parameterid>
								<name>% Blur</name>
								<valuemin>0</valuemin>
								<valuemax>1000</valuemax>
								<value>500</value>
							</parameter>
							<parameter>
								<parameterid>samples</parameterid>
								<name>Samples</name>
								<valuemin>1</valuemin>
								<valuemax>16</valuemax>
								<value>4</value>
							</parameter>
						</effect>
					</filter>
					<filter>
						<effect>
							<name>Crop</name>
							<effectid>crop</effectid>
							<effectcategory>motion</effectcategory>
							<effecttype>motion</effecttype>
							<mediatype>video</mediatype>
							<parameter>
								<parameterid>left</parameterid>
								<name>left</name>
								<valuemin>0</valuemin>
								<valuemax>100</valuemax>
								<value>0</value>
							</parameter>
							<parameter>
								<parameterid>right</parameterid>
								<name>right</name>
								<valuemin>0</valuemin>
								<valuemax>100</valuemax>
								<value>0</value>
							</parameter>
							<parameter>
								<parameterid>top</parameterid>
								<name>top</name>
								<valuemin>0</valuemin>
								<valuemax>100</valuemax>
								<value>0</value>
							</parameter>
							<parameter>
								<parameterid>bottom</parameterid>
								<name>bottom</name>
								<valuemin>0</valuemin>
								<valuemax>100</valuemax>
								<value>0</value>
							</parameter>
							<parameter>
								<parameterid>edgefeather</parameterid>
								<name>edgefeather</name>
								<valuemin>0</valuemin>
								<valuemax>100</valuemax>
								<value>0</value>
							</parameter>
						</effect>
					</filter>
					<filter>
						<effect>
							<name>Distort</name>
							<effectid>deformation</effectid>
							<effectcategory>motion</effectcategory>
							<effecttype>motion</effecttype>
							<mediatype>video</mediatype>
							<parameter>
								<parameterid>ulcorner</parameterid>
								<name>Upper Left</name>
								<value>
									<horiz>-0.5</horiz>
									<vert>-0.5</vert>
								</value>
							</parameter>
							<parameter>
								<parameterid>urcorner</parameterid>
								<name>Upper Right</name>
								<value>
									<horiz>0.5</horiz>
									<vert>-0.5</vert>
								</value>
							</parameter>
							<parameter>
								<parameterid>lrcorner</parameterid>
								<name>Lower Right</name>
								<value>
									<horiz>0.5</horiz>
									<vert>0.5</vert>
								</value>
							</parameter>
							<parameter>
								<parameterid>llcorner</parameterid>
								<name>Lower Left</name>
								<value>
									<horiz>-0.5</horiz>
									<vert>0.5</vert>
								</value>
							</parameter>
							<parameter>
								<parameterid>aspect</parameterid>
								<name>Aspect</name>
								<valuemin>-10000</valuemin>
								<valuemax>10000</valuemax>
								<value>0</value>
							</parameter>
						</effect>
					</filter>
					<filter>
						<effect>
							<name>Opacity</name>
							<effectid>opacity</effectid>
							<effectcategory>motion</effectcategory>
							<effecttype>motion</effecttype>
							<mediatype>video</mediatype>
							<parameter>
								<parameterid>opacity</parameterid>
								<name>opacity</name>
								<valuemin>0</valuemin>
								<valuemax>100</valuemax>
								<value>100</value>
							</parameter>
						</effect>
					</filter>
					<sourcetrack>
						<mediatype>video</mediatype>
					</sourcetrack>
					<link>
						<linkclipref>00748001.MOV</linkclipref>
						<mediatype>video</mediatype>
						<trackindex>1</trackindex>
						<clipindex>107</clipindex>
					</link>
					<link>
						<linkclipref>00748001.MOV2</linkclipref>
						<mediatype>audio</mediatype>
						<trackindex>1</trackindex>
						<clipindex>101</clipindex>
					</link>
					<link>
						<linkclipref>00748001.MOV3</linkclipref>
						<mediatype>audio</mediatype>
						<trackindex>2</trackindex>
						<clipindex>105</clipindex>
					</link>
					<fielddominance>upper</fielddominance>
					<itemhistory>
						<uuid>471036B1-3842-4771-872A-BE58764F025B</uuid>
					</itemhistory>
				</clipitem>
				<clipitem id="00769001.MOV">
					<name>00769001.MOV</name>
					<duration>708</duration>
					<rate>
						<ntsc>FALSE</ntsc>
						<timebase>25</timebase>
					</rate>
					<in>106</in>
					<out>166</out>
					<start>13452</start>
					<end>13512</end>
					<pixelaspectratio>Square</pixelaspectratio>
					<enabled>TRUE</enabled>
					<anamorphic>FALSE</anamorphic>
					<alphatype>none</alphatype>
					<masterclipid>00769001.MOV1</masterclipid>
					<logginginfo>
						<scene/>
						<shottake/>
						<lognote/>
						<good>FALSE</good>
					</logginginfo>
					<labels>
						<label2/>
					</labels>
					<comments>
						<mastercomment1/>
						<mastercomment2/>
						<mastercomment3/>
						<mastercomment4/>
					</comments>
					<file id="00769001 ">
						<name>00769001.MOV</name>
						<pathurl>file://localhost/Volumes/Askepott/Prosjekter/DNPR637010_Kra%CC%8Akeklubben_TEM_011212/Video/MELLOMSTIKK/S01E05%20Dyrebolig/00769001.MOV</pathurl>
						<rate>
							<timebase>25</timebase>
						</rate>
						<duration>708</duration>
						<timecode>
							<rate>
								<timebase>25</timebase>
							</rate>
							<string>17:55:59:02</string>
							<frame>1613977</frame>
							<displayformat>NDF</displayformat>
							<source>source</source>
							<reel>
								<name>Flash XDR</name>
							</reel>
						</timecode>
						<media>
							<video>
								<duration>708</duration>
								<samplecharacteristics>
									<width>1920</width>
									<height>1080</height>
								</samplecharacteristics>
							</video>
							<audio>
								<samplecharacteristics>
									<samplerate>48000</samplerate>
									<depth>24</depth>
								</samplecharacteristics>
								<channelcount>1</channelcount>
							</audio>
							<audio>
								<samplecharacteristics>
									<samplerate>48000</samplerate>
									<depth>24</depth>
								</samplecharacteristics>
								<channelcount>1</channelcount>
							</audio>
						</media>
					</file>
					<filter>
						<enabled>TRUE</enabled>
						<start>-1</start>
						<end>-1</end>
						<effect>
							<name>Color Corrector - Lua til Carina 3 bittelitt</name>
							<effectid>Color Corrector</effectid>
							<effectcategory>Color Correction</effectcategory>
							<effecttype>filter</effecttype>
							<mediatype>video</mediatype>
							<parameter>
								<parameterid>dispmode</parameterid>
								<name>Display Mode</name>
								<valuemin>1</valuemin>
								<valuemax>3</valuemax>
								<valuelist>
									<valueentry>
										<name>Final</name>
										<value>1</value>
									</valueentry>
									<valueentry>
										<name>Matte</name>
										<value>2</value>
									</valueentry>
									<valueentry>
										<name>Source</name>
										<value>3</value>
									</valueentry>
								</valuelist>
								<value>1</value>
							</parameter>
							<parameter>
								<parameterid>label1</parameterid>
								<name>Level Controls</name>
								<value/>
							</parameter>
							<parameter>
								<parameterid>highlights</parameterid>
								<name>Highlights</name>
								<valuemin>64</valuemin>
								<valuemax>509</valuemax>
								<value>247</value>
							</parameter>
							<parameter>
								<parameterid>mids</parameterid>
								<name>Mids</name>
								<valuemin>0</valuemin>
								<valuemax>200</valuemax>
								<value>100</value>
							</parameter>
							<parameter>
								<parameterid>blacklevel</parameterid>
								<name>Blacks</name>
								<valuemin>-196</valuemin>
								<valuemax>254</valuemax>
								<value>-3</value>
							</parameter>
							<parameter>
								<parameterid>label2</parameterid>
								<name>Color Balance</name>
								<value/>
							</parameter>
							<parameter>
								<parameterid>hue</parameterid>
								<name>Angle</name>
								<valuemin>-180</valuemin>
								<valuemax>180</valuemax>
								<value>-33</value>
							</parameter>
							<parameter>
								<parameterid>mag</parameterid>
								<name>Magnitude</name>
								<valuemin>0</valuemin>
								<valuemax>200</valuemax>
								<value>0</value>
							</parameter>
							<parameter>
								<parameterid>label4</parameterid>
								<name>Color Controls</name>
								<value/>
							</parameter>
							<parameter>
								<parameterid>chroma</parameterid>
								<name>Saturation</name>
								<valuemin>0</valuemin>
								<valuemax>200</valuemax>
								<value>94</value>
							</parameter>
							<parameter>
								<parameterid>phase</parameterid>
								<name>Phase shift</name>
								<valuemin>-180</valuemin>
								<valuemax>180</valuemax>
								<value>0</value>
							</parameter>
							<parameter>
								<parameterid>label5</parameterid>
								<name>Limit Effect Controls</name>
								<value/>
							</parameter>
							<parameter>
								<parameterid>dochroma</parameterid>
								<name>Limit on Chroma</name>
								<value>TRUE</value>
							</parameter>
							<parameter>
								<parameterid>centerang</parameterid>
								<name>Chroma Center</name>
								<valuemin>-760</valuemin>
								<valuemax>760</valuemax>
								<value>322.256</value>
							</parameter>
							<parameter>
								<parameterid>chromawidth</parameterid>
								<name>Chroma Width</name>
								<valuemin>0</valuemin>
								<valuemax>360</valuemax>
								<value>8.11959</value>
							</parameter>
							<parameter>
								<parameterid>chromasoft</parameterid>
								<name>Chroma Softness</name>
								<valuemin>0</valuemin>
								<valuemax>180</valuemax>
								<value>26.8371</value>
							</parameter>
							<parameter>
								<parameterid>dosat</parameterid>
								<name>Limit on Saturation</name>
								<value>TRUE</value>
							</parameter>
							<parameter>
								<parameterid>satmin</parameterid>
								<name>Sat. Minimum</name>
								<valuemin>0</valuemin>
								<valuemax>125</valuemax>
								<value>36.7837</value>
							</parameter>
							<parameter>
								<parameterid>satwidth</parameterid>
								<name>Sat. Width</name>
								<valuemin>0</valuemin>
								<valuemax>125</valuemax>
								<value>84.0889</value>
							</parameter>
							<parameter>
								<parameterid>satsoft</parameterid>
								<name>Sat. Softness</name>
								<valuemin>0</valuemin>
								<valuemax>125</valuemax>
								<value>5</value>
							</parameter>
							<parameter>
								<parameterid>doluma</parameterid>
								<name>Limit on Luma</name>
								<value>TRUE</value>
							</parameter>
							<parameter>
								<parameterid>lumamin</parameterid>
								<name>Luma Minimum</name>
								<valuemin>0</valuemin>
								<valuemax>120</valuemax>
								<value>0.939667</value>
							</parameter>
							<parameter>
								<parameterid>lumawidth</parameterid>
								<name>Luma Width</name>
								<valuemin>0</valuemin>
								<valuemax>120</valuemax>
								<value>115.45</value>
							</parameter>
							<parameter>
								<parameterid>lumasoft</parameterid>
								<name>Luma Softness</name>
								<valuemin>0</valuemin>
								<valuemax>120</valuemax>
								<value>15.1099</value>
							</parameter>
							<parameter>
								<parameterid>label6</parameterid>
								<name>Edge Control</name>
								<value/>
							</parameter>
							<parameter>
								<parameterid>edgethin</parameterid>
								<name>Thin/Spread</name>
								<valuemin>-100</valuemin>
								<valuemax>100</valuemax>
								<value>0</value>
							</parameter>
							<parameter>
								<parameterid>edgefeather</parameterid>
								<name>Softening</name>
								<valuemin>0</valuemin>
								<valuemax>100</valuemax>
								<value>6</value>
							</parameter>
							<parameter>
								<parameterid>label7</parameterid>
								<name>Mask Control</name>
								<value/>
							</parameter>
							<parameter>
								<parameterid>invertsel</parameterid>
								<name>Invert</name>
								<value>FALSE</value>
							</parameter>
							<parameter>
								<parameterid>debugshow</parameterid>
								<name>Show Stats</name>
								<value>FALSE</value>
							</parameter>
						</effect>
					</filter>
					<filter>
						<enabled>TRUE</enabled>
						<start>-1</start>
						<end>-1</end>
						<effect>
							<name>Color Corrector 3-way mindre metning</name>
							<effectid>Color Corrector 3-way</effectid>
							<effectcategory>Color Correction</effectcategory>
							<effecttype>filter</effecttype>
							<mediatype>video</mediatype>
							<parameter>
								<parameterid>dispmode</parameterid>
								<name>Display Mode</name>
								<valuemin>1</valuemin>
								<valuemax>3</valuemax>
								<valuelist>
									<valueentry>
										<name>Final</name>
										<value>1</value>
									</valueentry>
									<valueentry>
										<name>Matte</name>
										<value>2</value>
									</valueentry>
									<valueentry>
										<name>Source</name>
										<value>3</value>
									</valueentry>
								</valuelist>
								<value>1</value>
							</parameter>
							<parameter>
								<parameterid>label1</parameterid>
								<name>Blacks Controls</name>
								<value/>
							</parameter>
							<parameter>
								<parameterid>blacklevel</parameterid>
								<name>Level</name>
								<valuemin>-196</valuemin>
								<valuemax>254</valuemax>
								<value>0</value>
							</parameter>
							<parameter>
								<parameterid>b_hue</parameterid>
								<name>Angle</name>
								<valuemin>-180</valuemin>
								<valuemax>180</valuemax>
								<value>-33</value>
							</parameter>
							<parameter>
								<parameterid>b_mag</parameterid>
								<name>Magnitude</name>
								<valuemin>0</valuemin>
								<valuemax>200</valuemax>
								<value>0</value>
							</parameter>
							<parameter>
								<parameterid>label2</parameterid>
								<name>Midrange Controls</name>
								<value/>
							</parameter>
							<parameter>
								<parameterid>mids</parameterid>
								<name>Level</name>
								<valuemin>0</valuemin>
								<valuemax>200</valuemax>
								<value>100</value>
							</parameter>
							<parameter>
								<parameterid>m_hue</parameterid>
								<name>Angle</name>
								<valuemin>-180</valuemin>
								<valuemax>180</valuemax>
								<value>-33</value>
							</parameter>
							<parameter>
								<parameterid>m_mag</parameterid>
								<name>Magnitude</name>
								<valuemin>0</valuemin>
								<valuemax>200</valuemax>
								<value>0</value>
							</parameter>
							<parameter>
								<parameterid>label3</parameterid>
								<name>Highlight Controls</name>
								<value/>
							</parameter>
							<parameter>
								<parameterid>highlights</parameterid>
								<name>Level</name>
								<valuemin>64</valuemin>
								<valuemax>509</valuemax>
								<value>255</value>
							</parameter>
							<parameter>
								<parameterid>h_hue</parameterid>
								<name>Angle</name>
								<valuemin>-180</valuemin>
								<valuemax>180</valuemax>
								<value>-33</value>
							</parameter>
							<parameter>
								<parameterid>h_mag</parameterid>
								<name>Magnitude</name>
								<valuemin>0</valuemin>
								<valuemax>200</valuemax>
								<value>0</value>
							</parameter>
							<parameter>
								<parameterid>label4</parameterid>
								<name>Color Controls</name>
								<value/>
							</parameter>
							<parameter>
								<parameterid>chroma</parameterid>
								<name>Saturation</name>
								<valuemin>0</valuemin>
								<valuemax>200</valuemax>
								<value>90</value>
							</parameter>
							<parameter>
								<parameterid>label5</parameterid>
								<name>Limit Effect Controls</name>
								<value/>
							</parameter>
							<parameter>
								<parameterid>dochroma</parameterid>
								<name>Limit on Chroma</name>
								<value>FALSE</value>
							</parameter>
							<parameter>
								<parameterid>centerang</parameterid>
								<name>Chroma Center</name>
								<valuemin>-760</valuemin>
								<valuemax>760</valuemax>
								<value>-110</value>
							</parameter>
							<parameter>
								<parameterid>chromawidth</parameterid>
								<name>Chroma Width</name>
								<valuemin>0</valuemin>
								<valuemax>360</valuemax>
								<value>15</value>
							</parameter>
							<parameter>
								<parameterid>chromasoft</parameterid>
								<name>Chroma Softness</name>
								<valuemin>0</valuemin>
								<valuemax>180</valuemax>
								<value>10</value>
							</parameter>
							<parameter>
								<parameterid>dosat</parameterid>
								<name>Limit on Saturation</name>
								<value>FALSE</value>
							</parameter>
							<parameter>
								<parameterid>satmin</parameterid>
								<name>Sat. Minimum</name>
								<valuemin>0</valuemin>
								<valuemax>125</valuemax>
								<value>35</value>
							</parameter>
							<parameter>
								<parameterid>satwidth</parameterid>
								<name>Sat. Width</name>
								<valuemin>0</valuemin>
								<valuemax>125</valuemax>
								<value>40</value>
							</parameter>
							<parameter>
								<parameterid>satsoft</parameterid>
								<name>Sat. Softness</name>
								<valuemin>0</valuemin>
								<valuemax>125</valuemax>
								<value>20</value>
							</parameter>
							<parameter>
								<parameterid>doluma</parameterid>
								<name>Limit on Luma</name>
								<value>FALSE</value>
							</parameter>
							<parameter>
								<parameterid>lumamin</parameterid>
								<name>Luma Minimum</name>
								<valuemin>0</valuemin>
								<valuemax>120</valuemax>
								<value>0</value>
							</parameter>
							<parameter>
								<parameterid>lumawidth</parameterid>
								<name>Luma Width</name>
								<valuemin>0</valuemin>
								<valuemax>120</valuemax>
								<value>40</value>
							</parameter>
							<parameter>
								<parameterid>lumasoft</parameterid>
								<name>Luma Softness</name>
								<valuemin>0</valuemin>
								<valuemax>120</valuemax>
								<value>20</value>
							</parameter>
							<parameter>
								<parameterid>label6</parameterid>
								<name>Edge Control</name>
								<value/>
							</parameter>
							<parameter>
								<parameterid>edgethin</parameterid>
								<name>Thin/Spread</name>
								<valuemin>-100</valuemin>
								<valuemax>100</valuemax>
								<value>0</value>
							</parameter>
							<parameter>
								<parameterid>edgefeather</parameterid>
								<name>Softening</name>
								<valuemin>0</valuemin>
								<valuemax>100</valuemax>
								<value>0</value>
							</parameter>
							<parameter>
								<parameterid>label7</parameterid>
								<name>Mask Control</name>
								<value/>
							</parameter>
							<parameter>
								<parameterid>invertsel</parameterid>
								<name>Invert</name>
								<value>FALSE</value>
							</parameter>
							<parameter>
								<parameterid>debugshow</parameterid>
								<name>Show Stats</name>
								<value>FALSE</value>
							</parameter>
						</effect>
					</filter>
					<filter>
						<effect>
							<name>Basic Motion</name>
							<effectid>basic</effectid>
							<effectcategory>motion</effectcategory>
							<effecttype>motion</effecttype>
							<mediatype>video</mediatype>
							<parameter>
								<parameterid>scale</parameterid>
								<name>Scale</name>
								<valuemin>0</valuemin>
								<valuemax>1000</valuemax>
								<value>117</value>
							</parameter>
							<parameter>
								<parameterid>rotation</parameterid>
								<name>Rotation</name>
								<valuemin>-8640</valuemin>
								<valuemax>8640</valuemax>
								<value>0</value>
							</parameter>
							<parameter>
								<parameterid>center</parameterid>
								<name>Center</name>
								<value>
									<horiz>0.0748387</horiz>
									<vert>0.0848624</vert>
								</value>
							</parameter>
							<parameter>
								<parameterid>centerOffset</parameterid>
								<name>Anchor Point</name>
								<value>
									<horiz>0</horiz>
									<vert>0</vert>
								</value>
							</parameter>
						</effect>
					</filter>
					<filter>
						<enabled>FALSE</enabled>
						<effect>
							<name>Drop Shadow</name>
							<effectid>dropshadow</effectid>
							<effectcategory>motion</effectcategory>
							<effecttype>motion</effecttype>
							<mediatype>video</mediatype>
							<parameter>
								<parameterid>offset</parameterid>
								<name>offset</name>
								<valuemin>-100</valuemin>
								<valuemax>100</valuemax>
								<value>2</value>
							</parameter>
							<parameter>
								<parameterid>angle</parameterid>
								<name>angle</name>
								<valuemin>-720</valuemin>
								<valuemax>720</valuemax>
								<value>135</value>
							</parameter>
							<parameter>
								<parameterid>color</parameterid>
								<name>color</name>
								<value>
									<alpha>0</alpha>
									<red>0</red>
									<green>0</green>
									<blue>0</blue>
								</value>
							</parameter>
							<parameter>
								<parameterid>softness</parameterid>
								<name>softness</name>
								<valuemin>0</valuemin>
								<valuemax>100</valuemax>
								<value>10</value>
							</parameter>
							<parameter>
								<parameterid>opacity</parameterid>
								<name>opacity</name>
								<valuemin>0</valuemin>
								<valuemax>100</valuemax>
								<value>50</value>
							</parameter>
						</effect>
					</filter>
					<filter>
						<enabled>FALSE</enabled>
						<effect>
							<name>Motion Blur</name>
							<effectid>motionblur</effectid>
							<effectcategory>motion</effectcategory>
							<effecttype>motion</effecttype>
							<mediatype>video</mediatype>
							<parameter>
								<parameterid>duration</parameterid>
								<name>% Blur</name>
								<valuemin>0</valuemin>
								<valuemax>1000</valuemax>
								<value>500</value>
							</parameter>
							<parameter>
								<parameterid>samples</parameterid>
								<name>Samples</name>
								<valuemin>1</valuemin>
								<valuemax>16</valuemax>
								<value>4</value>
							</parameter>
						</effect>
					</filter>
					<filter>
						<effect>
							<name>Crop</name>
							<effectid>crop</effectid>
							<effectcategory>motion</effectcategory>
							<effecttype>motion</effecttype>
							<mediatype>video</mediatype>
							<parameter>
								<parameterid>left</parameterid>
								<name>left</name>
								<valuemin>0</valuemin>
								<valuemax>100</valuemax>
								<value>0</value>
							</parameter>
							<parameter>
								<parameterid>right</parameterid>
								<name>right</name>
								<valuemin>0</valuemin>
								<valuemax>100</valuemax>
								<value>0</value>
							</parameter>
							<parameter>
								<parameterid>top</parameterid>
								<name>top</name>
								<valuemin>0</valuemin>
								<valuemax>100</valuemax>
								<value>0</value>
							</parameter>
							<parameter>
								<parameterid>bottom</parameterid>
								<name>bottom</name>
								<valuemin>0</valuemin>
								<valuemax>100</valuemax>
								<value>0</value>
							</parameter>
							<parameter>
								<parameterid>edgefeather</parameterid>
								<name>edgefeather</name>
								<valuemin>0</valuemin>
								<valuemax>100</valuemax>
								<value>0</value>
							</parameter>
						</effect>
					</filter>
					<filter>
						<effect>
							<name>Distort</name>
							<effectid>deformation</effectid>
							<effectcategory>motion</effectcategory>
							<effecttype>motion</effecttype>
							<mediatype>video</mediatype>
							<parameter>
								<parameterid>ulcorner</parameterid>
								<name>Upper Left</name>
								<value>
									<horiz>-0.5</horiz>
									<vert>-0.5</vert>
								</value>
							</parameter>
							<parameter>
								<parameterid>urcorner</parameterid>
								<name>Upper Right</name>
								<value>
									<horiz>0.5</horiz>
									<vert>-0.5</vert>
								</value>
							</parameter>
							<parameter>
								<parameterid>lrcorner</parameterid>
								<name>Lower Right</name>
								<value>
									<horiz>0.5</horiz>
									<vert>0.5</vert>
								</value>
							</parameter>
							<parameter>
								<parameterid>llcorner</parameterid>
								<name>Lower Left</name>
								<value>
									<horiz>-0.5</horiz>
									<vert>0.5</vert>
								</value>
							</parameter>
							<parameter>
								<parameterid>aspect</parameterid>
								<name>Aspect</name>
								<valuemin>-10000</valuemin>
								<valuemax>10000</valuemax>
								<value>0</value>
							</parameter>
						</effect>
					</filter>
					<filter>
						<effect>
							<name>Opacity</name>
							<effectid>opacity</effectid>
							<effectcategory>motion</effectcategory>
							<effecttype>motion</effecttype>
							<mediatype>video</mediatype>
							<parameter>
								<parameterid>opacity</parameterid>
								<name>opacity</name>
								<valuemin>0</valuemin>
								<valuemax>100</valuemax>
								<value>100</value>
							</parameter>
						</effect>
					</filter>
					<sourcetrack>
						<mediatype>video</mediatype>
					</sourcetrack>
					<fielddominance>upper</fielddominance>
					<itemhistory>
						<uuid>54C412B1-C613-4D51-BAF6-1DF5EE519363</uuid>
					</itemhistory>
				</clipitem>
				<clipitem id="00748001.MOV4">
					<name>00748001.MOV</name>
					<duration>2712</duration>
					<rate>
						<ntsc>FALSE</ntsc>
						<timebase>25</timebase>
					</rate>
					<in>1422</in>
					<out>2275</out>
					<start>13512</start>
					<end>14365</end>
					<pixelaspectratio>Square</pixelaspectratio>
					<enabled>TRUE</enabled>
					<anamorphic>FALSE</anamorphic>
					<alphatype>none</alphatype>
					<masterclipid>00748001.MOV1</masterclipid>
					<logginginfo>
						<scene/>
						<shottake/>
						<lognote/>
						<good>FALSE</good>
					</logginginfo>
					<labels>
						<label2/>
					</labels>
					<comments>
						<mastercomment1/>
						<mastercomment2/>
						<mastercomment3/>
						<mastercomment4/>
					</comments>
					<file id="00748001 "/>
					<filter>
						<effect>
							<name>Basic Motion</name>
							<effectid>basic</effectid>
							<effectcategory>motion</effectcategory>
							<effecttype>motion</effecttype>
							<mediatype>video</mediatype>
							<parameter>
								<parameterid>scale</parameterid>
								<name>Scale</name>
								<valuemin>0</valuemin>
								<valuemax>1000</valuemax>
								<value>100</value>
							</parameter>
							<parameter>
								<parameterid>rotation</parameterid>
								<name>Rotation</name>
								<valuemin>-8640</valuemin>
								<valuemax>8640</valuemax>
								<value>0</value>
							</parameter>
							<parameter>
								<parameterid>center</parameterid>
								<name>Center</name>
								<value>
									<horiz>0</horiz>
									<vert>0</vert>
								</value>
							</parameter>
							<parameter>
								<parameterid>centerOffset</parameterid>
								<name>Anchor Point</name>
								<value>
									<horiz>0</horiz>
									<vert>0</vert>
								</value>
							</parameter>
						</effect>
					</filter>
					<filter>
						<enabled>FALSE</enabled>
						<effect>
							<name>Drop Shadow</name>
							<effectid>dropshadow</effectid>
							<effectcategory>motion</effectcategory>
							<effecttype>motion</effecttype>
							<mediatype>video</mediatype>
							<parameter>
								<parameterid>offset</parameterid>
								<name>offset</name>
								<valuemin>-100</valuemin>
								<valuemax>100</valuemax>
								<value>2</value>
							</parameter>
							<parameter>
								<parameterid>angle</parameterid>
								<name>angle</name>
								<valuemin>-720</valuemin>
								<valuemax>720</valuemax>
								<value>135</value>
							</parameter>
							<parameter>
								<parameterid>color</parameterid>
								<name>color</name>
								<value>
									<alpha>0</alpha>
									<red>0</red>
									<green>0</green>
									<blue>0</blue>
								</value>
							</parameter>
							<parameter>
								<parameterid>softness</parameterid>
								<name>softness</name>
								<valuemin>0</valuemin>
								<valuemax>100</valuemax>
								<value>10</value>
							</parameter>
							<parameter>
								<parameterid>opacity</parameterid>
								<name>opacity</name>
								<valuemin>0</valuemin>
								<valuemax>100</valuemax>
								<value>50</value>
							</parameter>
						</effect>
					</filter>
					<filter>
						<enabled>FALSE</enabled>
						<effect>
							<name>Motion Blur</name>
							<effectid>motionblur</effectid>
							<effectcategory>motion</effectcategory>
							<effecttype>motion</effecttype>
							<mediatype>video</mediatype>
							<parameter>
								<parameterid>duration</parameterid>
								<name>% Blur</name>
								<valuemin>0</valuemin>
								<valuemax>1000</valuemax>
								<value>500</value>
							</parameter>
							<parameter>
								<parameterid>samples</parameterid>
								<name>Samples</name>
								<valuemin>1</valuemin>
								<valuemax>16</valuemax>
								<value>4</value>
							</parameter>
						</effect>
					</filter>
					<filter>
						<effect>
							<name>Crop</name>
							<effectid>crop</effectid>
							<effectcategory>motion</effectcategory>
							<effecttype>motion</effecttype>
							<mediatype>video</mediatype>
							<parameter>
								<parameterid>left</parameterid>
								<name>left</name>
								<valuemin>0</valuemin>
								<valuemax>100</valuemax>
								<value>0</value>
							</parameter>
							<parameter>
								<parameterid>right</parameterid>
								<name>right</name>
								<valuemin>0</valuemin>
								<valuemax>100</valuemax>
								<value>0</value>
							</parameter>
							<parameter>
								<parameterid>top</parameterid>
								<name>top</name>
								<valuemin>0</valuemin>
								<valuemax>100</valuemax>
								<value>0</value>
							</parameter>
							<parameter>
								<parameterid>bottom</parameterid>
								<name>bottom</name>
								<valuemin>0</valuemin>
								<valuemax>100</valuemax>
								<value>0</value>
							</parameter>
							<parameter>
								<parameterid>edgefeather</parameterid>
								<name>edgefeather</name>
								<valuemin>0</valuemin>
								<valuemax>100</valuemax>
								<value>0</value>
							</parameter>
						</effect>
					</filter>
					<filter>
						<effect>
							<name>Distort</name>
							<effectid>deformation</effectid>
							<effectcategory>motion</effectcategory>
							<effecttype>motion</effecttype>
							<mediatype>video</mediatype>
							<parameter>
								<parameterid>ulcorner</parameterid>
								<name>Upper Left</name>
								<value>
									<horiz>-0.5</horiz>
									<vert>-0.5</vert>
								</value>
							</parameter>
							<parameter>
								<parameterid>urcorner</parameterid>
								<name>Upper Right</name>
								<value>
									<horiz>0.5</horiz>
									<vert>-0.5</vert>
								</value>
							</parameter>
							<parameter>
								<parameterid>lrcorner</parameterid>
								<name>Lower Right</name>
								<value>
									<horiz>0.5</horiz>
									<vert>0.5</vert>
								</value>
							</parameter>
							<parameter>
								<parameterid>llcorner</parameterid>
								<name>Lower Left</name>
								<value>
									<horiz>-0.5</horiz>
									<vert>0.5</vert>
								</value>
							</parameter>
							<parameter>
								<parameterid>aspect</parameterid>
								<name>Aspect</name>
								<valuemin>-10000</valuemin>
								<valuemax>10000</valuemax>
								<value>0</value>
							</parameter>
						</effect>
					</filter>
					<filter>
						<effect>
							<name>Opacity</name>
							<effectid>opacity</effectid>
							<effectcategory>motion</effectcategory>
							<effecttype>motion</effecttype>
							<mediatype>video</mediatype>
							<parameter>
								<parameterid>opacity</parameterid>
								<name>opacity</name>
								<valuemin>0</valuemin>
								<valuemax>100</valuemax>
								<value>100</value>
							</parameter>
						</effect>
					</filter>
					<sourcetrack>
						<mediatype>video</mediatype>
					</sourcetrack>
					<fielddominance>upper</fielddominance>
					<itemhistory>
						<uuid>C171ED06-197E-44E0-841D-7DDBEAE812EC</uuid>
					</itemhistory>
				</clipitem>
				<clipitem id="00750001.MOV">
					<name>00750001.MOV</name>
					<duration>468</duration>
					<rate>
						<ntsc>FALSE</ntsc>
						<timebase>25</timebase>
					</rate>
					<in>277</in>
					<out>368</out>
					<start>14365</start>
					<end>14456</end>
					<pixelaspectratio>Square</pixelaspectratio>
					<enabled>TRUE</enabled>
					<anamorphic>FALSE</anamorphic>
					<alphatype>none</alphatype>
					<masterclipid>00750001.MOV1</masterclipid>
					<logginginfo>
						<scene/>
						<shottake/>
						<lognote/>
						<good>FALSE</good>
					</logginginfo>
					<labels>
						<label2/>
					</labels>
					<comments>
						<mastercomment1/>
						<mastercomment2/>
						<mastercomment3/>
						<mastercomment4/>
					</comments>
					<file id="00750001 ">
						<name>00750001.MOV</name>
						<pathurl>file://localhost/Volumes/Askepott/Prosjekter/DNPR637010_Kra%CC%8Akeklubben_TEM_011212/Video/MELLOMSTIKK/S01E05%20Dyrebolig/00750001.MOV</pathurl>
						<rate>
							<timebase>25</timebase>
						</rate>
						<duration>468</duration>
						<timecode>
							<rate>
								<timebase>25</timebase>
							</rate>
							<string>17:47:08:02</string>
							<frame>1600702</frame>
							<displayformat>NDF</displayformat>
							<source>source</source>
							<reel>
								<name>Flash XDR</name>
							</reel>
						</timecode>
						<media>
							<video>
								<duration>468</duration>
								<samplecharacteristics>
									<width>1920</width>
									<height>1080</height>
								</samplecharacteristics>
							</video>
							<audio>
								<samplecharacteristics>
									<samplerate>48000</samplerate>
									<depth>24</depth>
								</samplecharacteristics>
								<channelcount>1</channelcount>
							</audio>
							<audio>
								<samplecharacteristics>
									<samplerate>48000</samplerate>
									<depth>24</depth>
								</samplecharacteristics>
								<channelcount>1</channelcount>
							</audio>
						</media>
					</file>
					<filter>
						<start>-1</start>
						<end>-1</end>
						<effect>
							<name>G Simple Curves +20 white curve</name>
							<effectcategory>Nattress Big Box of Tricks - Levels and Curves</effectcategory>
							<effecttype>filter</effecttype>
							<mediatype>video</mediatype>
							<parameter>
								<parameterid>colourspace</parameterid>
								<name>Colour Space</name>
								<valuemin>1</valuemin>
								<valuemax>2</valuemax>
								<valuelist>
									<valueentry>
										<name>RGB</name>
										<value>1</value>
									</valueentry>
									<valueentry>
										<name>Y'CbCr</name>
										<value>2</value>
									</valueentry>
								</valuelist>
								<value>2</value>
							</parameter>
							<parameter>
								<parameterid>showcurves</parameterid>
								<name>Show Curves</name>
								<value>FALSE</value>
							</parameter>
							<parameter>
								<parameterid>lvar</parameterid>
								<name>Levels Controls</name>
								<value>string</value>
							</parameter>
							<parameter>
								<parameterid>inw</parameterid>
								<name>White Level</name>
								<valuemin>0</valuemin>
								<valuemax>255</valuemax>
								<value>255</value>
							</parameter>
							<parameter>
								<parameterid>inb</parameterid>
								<name>Black Level</name>
								<valuemin>0</valuemin>
								<valuemax>255</valuemax>
								<value>0</value>
							</parameter>
							<parameter>
								<parameterid>outw</parameterid>
								<name>White Output</name>
								<valuemin>0</valuemin>
								<valuemax>255</valuemax>
								<value>255</value>
							</parameter>
							<parameter>
								<parameterid>outb</parameterid>
								<name>Black Output</name>
								<valuemin>0</valuemin>
								<valuemax>255</valuemax>
								<value>0</value>
							</parameter>
							<parameter>
								<parameterid>cvar</parameterid>
								<name>Curves Controls</name>
								<value>string</value>
							</parameter>
							<parameter>
								<parameterid>curvew</parameterid>
								<name>White Curve</name>
								<valuemin>-100</valuemin>
								<valuemax>100</valuemax>
								<value>20</value>
							</parameter>
							<parameter>
								<parameterid>curveb</parameterid>
								<name>Black Curve</name>
								<valuemin>-100</valuemin>
								<valuemax>100</valuemax>
								<value>0</value>
							</parameter>
							<parameter>
								<parameterid>clipoutput</parameterid>
								<name>Clip Output Levels</name>
								<value>TRUE</value>
							</parameter>
							<parameter>
								<parameterid>copyright</parameterid>
								<name>© www.nattress.com</name>
								<value>string</value>
							</parameter>
						</effect>
					</filter>
					<filter>
						<effect>
							<name>Basic Motion</name>
							<effectid>basic</effectid>
							<effectcategory>motion</effectcategory>
							<effecttype>motion</effecttype>
							<mediatype>video</mediatype>
							<parameter>
								<parameterid>scale</parameterid>
								<name>Scale</name>
								<valuemin>0</valuemin>
								<valuemax>1000</valuemax>
								<value>106</value>
							</parameter>
							<parameter>
								<parameterid>rotation</parameterid>
								<name>Rotation</name>
								<valuemin>-8640</valuemin>
								<valuemax>8640</valuemax>
								<value>0</value>
							</parameter>
							<parameter>
								<parameterid>center</parameterid>
								<name>Center</name>
								<value>
									<horiz>0.00258065</horiz>
									<vert>0.0298165</vert>
								</value>
							</parameter>
							<parameter>
								<parameterid>centerOffset</parameterid>
								<name>Anchor Point</name>
								<value>
									<horiz>0</horiz>
									<vert>0</vert>
								</value>
							</parameter>
						</effect>
					</filter>
					<filter>
						<enabled>FALSE</enabled>
						<effect>
							<name>Drop Shadow</name>
							<effectid>dropshadow</effectid>
							<effectcategory>motion</effectcategory>
							<effecttype>motion</effecttype>
							<mediatype>video</mediatype>
							<parameter>
								<parameterid>offset</parameterid>
								<name>offset</name>
								<valuemin>-100</valuemin>
								<valuemax>100</valuemax>
								<value>2</value>
							</parameter>
							<parameter>
								<parameterid>angle</parameterid>
								<name>angle</name>
								<valuemin>-720</valuemin>
								<valuemax>720</valuemax>
								<value>135</value>
							</parameter>
							<parameter>
								<parameterid>color</parameterid>
								<name>color</name>
								<value>
									<alpha>0</alpha>
									<red>0</red>
									<green>0</green>
									<blue>0</blue>
								</value>
							</parameter>
							<parameter>
								<parameterid>softness</parameterid>
								<name>softness</name>
								<valuemin>0</valuemin>
								<valuemax>100</valuemax>
								<value>10</value>
							</parameter>
							<parameter>
								<parameterid>opacity</parameterid>
								<name>opacity</name>
								<valuemin>0</valuemin>
								<valuemax>100</valuemax>
								<value>50</value>
							</parameter>
						</effect>
					</filter>
					<filter>
						<enabled>FALSE</enabled>
						<effect>
							<name>Motion Blur</name>
							<effectid>motionblur</effectid>
							<effectcategory>motion</effectcategory>
							<effecttype>motion</effecttype>
							<mediatype>video</mediatype>
							<parameter>
								<parameterid>duration</parameterid>
								<name>% Blur</name>
								<valuemin>0</valuemin>
								<valuemax>1000</valuemax>
								<value>500</value>
							</parameter>
							<parameter>
								<parameterid>samples</parameterid>
								<name>Samples</name>
								<valuemin>1</valuemin>
								<valuemax>16</valuemax>
								<value>4</value>
							</parameter>
						</effect>
					</filter>
					<filter>
						<effect>
							<name>Crop</name>
							<effectid>crop</effectid>
							<effectcategory>motion</effectcategory>
							<effecttype>motion</effecttype>
							<mediatype>video</mediatype>
							<parameter>
								<parameterid>left</parameterid>
								<name>left</name>
								<valuemin>0</valuemin>
								<valuemax>100</valuemax>
								<value>0</value>
							</parameter>
							<parameter>
								<parameterid>right</parameterid>
								<name>right</name>
								<valuemin>0</valuemin>
								<valuemax>100</valuemax>
								<value>0</value>
							</parameter>
							<parameter>
								<parameterid>top</parameterid>
								<name>top</name>
								<valuemin>0</valuemin>
								<valuemax>100</valuemax>
								<value>0</value>
							</parameter>
							<parameter>
								<parameterid>bottom</parameterid>
								<name>bottom</name>
								<valuemin>0</valuemin>
								<valuemax>100</valuemax>
								<value>0</value>
							</parameter>
							<parameter>
								<parameterid>edgefeather</parameterid>
								<name>edgefeather</name>
								<valuemin>0</valuemin>
								<valuemax>100</valuemax>
								<value>0</value>
							</parameter>
						</effect>
					</filter>
					<filter>
						<effect>
							<name>Distort</name>
							<effectid>deformation</effectid>
							<effectcategory>motion</effectcategory>
							<effecttype>motion</effecttype>
							<mediatype>video</mediatype>
							<parameter>
								<parameterid>ulcorner</parameterid>
								<name>Upper Left</name>
								<value>
									<horiz>-0.5</horiz>
									<vert>-0.5</vert>
								</value>
							</parameter>
							<parameter>
								<parameterid>urcorner</parameterid>
								<name>Upper Right</name>
								<value>
									<horiz>0.5</horiz>
									<vert>-0.5</vert>
								</value>
							</parameter>
							<parameter>
								<parameterid>lrcorner</parameterid>
								<name>Lower Right</name>
								<value>
									<horiz>0.5</horiz>
									<vert>0.5</vert>
								</value>
							</parameter>
							<parameter>
								<parameterid>llcorner</parameterid>
								<name>Lower Left</name>
								<value>
									<horiz>-0.5</horiz>
									<vert>0.5</vert>
								</value>
							</parameter>
							<parameter>
								<parameterid>aspect</parameterid>
								<name>Aspect</name>
								<valuemin>-10000</valuemin>
								<valuemax>10000</valuemax>
								<value>0</value>
							</parameter>
						</effect>
					</filter>
					<filter>
						<effect>
							<name>Opacity</name>
							<effectid>opacity</effectid>
							<effectcategory>motion</effectcategory>
							<effecttype>motion</effecttype>
							<mediatype>video</mediatype>
							<parameter>
								<parameterid>opacity</parameterid>
								<name>opacity</name>
								<valuemin>0</valuemin>
								<valuemax>100</valuemax>
								<value>100</value>
							</parameter>
						</effect>
					</filter>
					<sourcetrack>
						<mediatype>video</mediatype>
					</sourcetrack>
					<link>
						<linkclipref>00750001.MOV</linkclipref>
						<mediatype>video</mediatype>
						<trackindex>1</trackindex>
						<clipindex>110</clipindex>
					</link>
					<link>
						<linkclipref>00750001.MOV2</linkclipref>
						<mediatype>audio</mediatype>
						<trackindex>1</trackindex>
						<clipindex>107</clipindex>
					</link>
					<link>
						<linkclipref>00750001.MOV3</linkclipref>
						<mediatype>audio</mediatype>
						<trackindex>2</trackindex>
						<clipindex>111</clipindex>
					</link>
					<fielddominance>upper</fielddominance>
					<itemhistory>
						<uuid>F19545E7-81B1-4BC2-A2EF-C3D94B90C880</uuid>
					</itemhistory>
				</clipitem>
				<clipitem id="00752001.MOV">
					<name>00752001.MOV</name>
					<duration>4716</duration>
					<rate>
						<ntsc>FALSE</ntsc>
						<timebase>25</timebase>
					</rate>
					<in>716</in>
					<out>891</out>
					<start>14456</start>
					<end>14631</end>
					<pixelaspectratio>Square</pixelaspectratio>
					<enabled>TRUE</enabled>
					<anamorphic>FALSE</anamorphic>
					<alphatype>none</alphatype>
					<masterclipid>00752001.MOV1</masterclipid>
					<logginginfo>
						<scene/>
						<shottake/>
						<lognote/>
						<good>FALSE</good>
					</logginginfo>
					<labels>
						<label2/>
					</labels>
					<comments>
						<mastercomment1/>
						<mastercomment2/>
						<mastercomment3/>
						<mastercomment4/>
					</comments>
					<file id="00752001 ">
						<name>00752001.MOV</name>
						<pathurl>file://localhost/Volumes/Askepott/Prosjekter/DNPR637010_Kra%CC%8Akeklubben_TEM_011212/Video/MELLOMSTIKK/S01E05%20Dyrebolig/00752001.MOV</pathurl>
						<rate>
							<timebase>25</timebase>
						</rate>
						<duration>4716</duration>
						<timecode>
							<rate>
								<timebase>25</timebase>
							</rate>
							<string>17:47:39:06</string>
							<frame>1601481</frame>
							<displayformat>NDF</displayformat>
							<source>source</source>
							<reel>
								<name>Flash XDR</name>
							</reel>
						</timecode>
						<media>
							<video>
								<duration>4716</duration>
								<samplecharacteristics>
									<width>1920</width>
									<height>1080</height>
								</samplecharacteristics>
							</video>
							<audio>
								<samplecharacteristics>
									<samplerate>48000</samplerate>
									<depth>24</depth>
								</samplecharacteristics>
								<channelcount>1</channelcount>
							</audio>
							<audio>
								<samplecharacteristics>
									<samplerate>48000</samplerate>
									<depth>24</depth>
								</samplecharacteristics>
								<channelcount>1</channelcount>
							</audio>
						</media>
					</file>
					<filter>
						<effect>
							<name>Basic Motion</name>
							<effectid>basic</effectid>
							<effectcategory>motion</effectcategory>
							<effecttype>motion</effecttype>
							<mediatype>video</mediatype>
							<parameter>
								<parameterid>scale</parameterid>
								<name>Scale</name>
								<valuemin>0</valuemin>
								<valuemax>1000</valuemax>
								<value>125</value>
							</parameter>
							<parameter>
								<parameterid>rotation</parameterid>
								<name>Rotation</name>
								<valuemin>-8640</valuemin>
								<valuemax>8640</valuemax>
								<value>0</value>
							</parameter>
							<parameter>
								<parameterid>center</parameterid>
								<name>Center</name>
								<value>
									<horiz>0</horiz>
									<vert>0</vert>
								</value>
							</parameter>
							<parameter>
								<parameterid>centerOffset</parameterid>
								<name>Anchor Point</name>
								<value>
									<horiz>0</horiz>
									<vert>0</vert>
								</value>
							</parameter>
						</effect>
					</filter>
					<filter>
						<enabled>FALSE</enabled>
						<effect>
							<name>Drop Shadow</name>
							<effectid>dropshadow</effectid>
							<effectcategory>motion</effectcategory>
							<effecttype>motion</effecttype>
							<mediatype>video</mediatype>
							<parameter>
								<parameterid>offset</parameterid>
								<name>offset</name>
								<valuemin>-100</valuemin>
								<valuemax>100</valuemax>
								<value>2</value>
							</parameter>
							<parameter>
								<parameterid>angle</parameterid>
								<name>angle</name>
								<valuemin>-720</valuemin>
								<valuemax>720</valuemax>
								<value>135</value>
							</parameter>
							<parameter>
								<parameterid>color</parameterid>
								<name>color</name>
								<value>
									<alpha>0</alpha>
									<red>0</red>
									<green>0</green>
									<blue>0</blue>
								</value>
							</parameter>
							<parameter>
								<parameterid>softness</parameterid>
								<name>softness</name>
								<valuemin>0</valuemin>
								<valuemax>100</valuemax>
								<value>10</value>
							</parameter>
							<parameter>
								<parameterid>opacity</parameterid>
								<name>opacity</name>
								<valuemin>0</valuemin>
								<valuemax>100</valuemax>
								<value>50</value>
							</parameter>
						</effect>
					</filter>
					<filter>
						<enabled>FALSE</enabled>
						<effect>
							<name>Motion Blur</name>
							<effectid>motionblur</effectid>
							<effectcategory>motion</effectcategory>
							<effecttype>motion</effecttype>
							<mediatype>video</mediatype>
							<parameter>
								<parameterid>duration</parameterid>
								<name>% Blur</name>
								<valuemin>0</valuemin>
								<valuemax>1000</valuemax>
								<value>500</value>
							</parameter>
							<parameter>
								<parameterid>samples</parameterid>
								<name>Samples</name>
								<valuemin>1</valuemin>
								<valuemax>16</valuemax>
								<value>4</value>
							</parameter>
						</effect>
					</filter>
					<filter>
						<effect>
							<name>Crop</name>
							<effectid>crop</effectid>
							<effectcategory>motion</effectcategory>
							<effecttype>motion</effecttype>
							<mediatype>video</mediatype>
							<parameter>
								<parameterid>left</parameterid>
								<name>left</name>
								<valuemin>0</valuemin>
								<valuemax>100</valuemax>
								<value>0</value>
							</parameter>
							<parameter>
								<parameterid>right</parameterid>
								<name>right</name>
								<valuemin>0</valuemin>
								<valuemax>100</valuemax>
								<value>0</value>
							</parameter>
							<parameter>
								<parameterid>top</parameterid>
								<name>top</name>
								<valuemin>0</valuemin>
								<valuemax>100</valuemax>
								<value>0</value>
							</parameter>
							<parameter>
								<parameterid>bottom</parameterid>
								<name>bottom</name>
								<valuemin>0</valuemin>
								<valuemax>100</valuemax>
								<value>0</value>
							</parameter>
							<parameter>
								<parameterid>edgefeather</parameterid>
								<name>edgefeather</name>
								<valuemin>0</valuemin>
								<valuemax>100</valuemax>
								<value>0</value>
							</parameter>
						</effect>
					</filter>
					<filter>
						<effect>
							<name>Distort</name>
							<effectid>deformation</effectid>
							<effectcategory>motion</effectcategory>
							<effecttype>motion</effecttype>
							<mediatype>video</mediatype>
							<parameter>
								<parameterid>ulcorner</parameterid>
								<name>Upper Left</name>
								<value>
									<horiz>-0.5</horiz>
									<vert>-0.5</vert>
								</value>
							</parameter>
							<parameter>
								<parameterid>urcorner</parameterid>
								<name>Upper Right</name>
								<value>
									<horiz>0.5</horiz>
									<vert>-0.5</vert>
								</value>
							</parameter>
							<parameter>
								<parameterid>lrcorner</parameterid>
								<name>Lower Right</name>
								<value>
									<horiz>0.5</horiz>
									<vert>0.5</vert>
								</value>
							</parameter>
							<parameter>
								<parameterid>llcorner</parameterid>
								<name>Lower Left</name>
								<value>
									<horiz>-0.5</horiz>
									<vert>0.5</vert>
								</value>
							</parameter>
							<parameter>
								<parameterid>aspect</parameterid>
								<name>Aspect</name>
								<valuemin>-10000</valuemin>
								<valuemax>10000</valuemax>
								<value>0</value>
							</parameter>
						</effect>
					</filter>
					<filter>
						<effect>
							<name>Opacity</name>
							<effectid>opacity</effectid>
							<effectcategory>motion</effectcategory>
							<effecttype>motion</effecttype>
							<mediatype>video</mediatype>
							<parameter>
								<parameterid>opacity</parameterid>
								<name>opacity</name>
								<valuemin>0</valuemin>
								<valuemax>100</valuemax>
								<value>100</value>
							</parameter>
						</effect>
					</filter>
					<sourcetrack>
						<mediatype>video</mediatype>
					</sourcetrack>
					<link>
						<linkclipref>00752001.MOV</linkclipref>
						<mediatype>video</mediatype>
						<trackindex>1</trackindex>
						<clipindex>111</clipindex>
					</link>
					<link>
						<linkclipref>00752001.MOV2</linkclipref>
						<mediatype>audio</mediatype>
						<trackindex>1</trackindex>
						<clipindex>109</clipindex>
					</link>
					<link>
						<linkclipref>00752001.MOV3</linkclipref>
						<mediatype>audio</mediatype>
						<trackindex>2</trackindex>
						<clipindex>113</clipindex>
					</link>
					<fielddominance>upper</fielddominance>
					<itemhistory>
						<uuid>C6B5C0C5-E547-4D69-AB8B-88C2F5B54C3A</uuid>
					</itemhistory>
				</clipitem>
				<clipitem id="00767001.MOV">
					<name>00767001.MOV</name>
					<duration>4836</duration>
					<rate>
						<ntsc>FALSE</ntsc>
						<timebase>25</timebase>
					</rate>
					<in>1349</in>
					<out>1415</out>
					<start>14631</start>
					<end>14697</end>
					<pixelaspectratio>Square</pixelaspectratio>
					<enabled>TRUE</enabled>
					<anamorphic>FALSE</anamorphic>
					<alphatype>none</alphatype>
					<masterclipid>00767001.MOV1</masterclipid>
					<logginginfo>
						<scene/>
						<shottake/>
						<lognote/>
						<good>FALSE</good>
					</logginginfo>
					<labels>
						<label2/>
					</labels>
					<comments>
						<mastercomment1/>
						<mastercomment2/>
						<mastercomment3/>
						<mastercomment4/>
					</comments>
					<file id="00767001 ">
						<name>00767001.MOV</name>
						<pathurl>file://localhost/Volumes/Askepott/Prosjekter/DNPR637010_Kra%CC%8Akeklubben_TEM_011212/Video/MELLOMSTIKK/S01E05%20Dyrebolig/00767001.MOV</pathurl>
						<rate>
							<timebase>25</timebase>
						</rate>
						<duration>4836</duration>
						<timecode>
							<rate>
								<timebase>25</timebase>
							</rate>
							<string>17:55:59:02</string>
							<frame>1613977</frame>
							<displayformat>NDF</displayformat>
							<source>source</source>
							<reel>
								<name>Flash XDR</name>
							</reel>
						</timecode>
						<media>
							<video>
								<duration>4836</duration>
								<samplecharacteristics>
									<width>1920</width>
									<height>1080</height>
								</samplecharacteristics>
							</video>
							<audio>
								<samplecharacteristics>
									<samplerate>48000</samplerate>
									<depth>24</depth>
								</samplecharacteristics>
								<channelcount>1</channelcount>
							</audio>
							<audio>
								<samplecharacteristics>
									<samplerate>48000</samplerate>
									<depth>24</depth>
								</samplecharacteristics>
								<channelcount>1</channelcount>
							</audio>
						</media>
					</file>
					<filter>
						<start>-1</start>
						<end>-1</end>
						<effect>
							<name>Color Corrector - Lua til Carina</name>
							<effectid>Color Corrector</effectid>
							<effectcategory>Color Correction</effectcategory>
							<effecttype>filter</effecttype>
							<mediatype>video</mediatype>
							<parameter>
								<parameterid>dispmode</parameterid>
								<name>Display Mode</name>
								<valuemin>1</valuemin>
								<valuemax>3</valuemax>
								<valuelist>
									<valueentry>
										<name>Final</name>
										<value>1</value>
									</valueentry>
									<valueentry>
										<name>Matte</name>
										<value>2</value>
									</valueentry>
									<valueentry>
										<name>Source</name>
										<value>3</value>
									</valueentry>
								</valuelist>
								<value>1</value>
							</parameter>
							<parameter>
								<parameterid>label1</parameterid>
								<name>Level Controls</name>
								<value/>
							</parameter>
							<parameter>
								<parameterid>highlights</parameterid>
								<name>Highlights</name>
								<valuemin>64</valuemin>
								<valuemax>509</valuemax>
								<value>247</value>
							</parameter>
							<parameter>
								<parameterid>mids</parameterid>
								<name>Mids</name>
								<valuemin>0</valuemin>
								<valuemax>200</valuemax>
								<value>100</value>
							</parameter>
							<parameter>
								<parameterid>blacklevel</parameterid>
								<name>Blacks</name>
								<valuemin>-196</valuemin>
								<valuemax>254</valuemax>
								<value>-3</value>
							</parameter>
							<parameter>
								<parameterid>label2</parameterid>
								<name>Color Balance</name>
								<value/>
							</parameter>
							<parameter>
								<parameterid>hue</parameterid>
								<name>Angle</name>
								<valuemin>-180</valuemin>
								<valuemax>180</valuemax>
								<value>-33</value>
							</parameter>
							<parameter>
								<parameterid>mag</parameterid>
								<name>Magnitude</name>
								<valuemin>0</valuemin>
								<valuemax>200</valuemax>
								<value>0</value>
							</parameter>
							<parameter>
								<parameterid>label4</parameterid>
								<name>Color Controls</name>
								<value/>
							</parameter>
							<parameter>
								<parameterid>chroma</parameterid>
								<name>Saturation</name>
								<valuemin>0</valuemin>
								<valuemax>200</valuemax>
								<value>84</value>
							</parameter>
							<parameter>
								<parameterid>phase</parameterid>
								<name>Phase shift</name>
								<valuemin>-180</valuemin>
								<valuemax>180</valuemax>
								<value>0</value>
							</parameter>
							<parameter>
								<parameterid>label5</parameterid>
								<name>Limit Effect Controls</name>
								<value/>
							</parameter>
							<parameter>
								<parameterid>dochroma</parameterid>
								<name>Limit on Chroma</name>
								<value>TRUE</value>
							</parameter>
							<parameter>
								<parameterid>centerang</parameterid>
								<name>Chroma Center</name>
								<valuemin>-760</valuemin>
								<valuemax>760</valuemax>
								<value>322.256</value>
							</parameter>
							<parameter>
								<parameterid>chromawidth</parameterid>
								<name>Chroma Width</name>
								<valuemin>0</valuemin>
								<valuemax>360</valuemax>
								<value>7.49567</value>
							</parameter>
							<parameter>
								<parameterid>chromasoft</parameterid>
								<name>Chroma Softness</name>
								<valuemin>0</valuemin>
								<valuemax>180</valuemax>
								<value>10.6152</value>
							</parameter>
							<parameter>
								<parameterid>dosat</parameterid>
								<name>Limit on Saturation</name>
								<value>TRUE</value>
							</parameter>
							<parameter>
								<parameterid>satmin</parameterid>
								<name>Sat. Minimum</name>
								<valuemin>0</valuemin>
								<valuemax>125</valuemax>
								<value>36.7837</value>
							</parameter>
							<parameter>
								<parameterid>satwidth</parameterid>
								<name>Sat. Width</name>
								<valuemin>0</valuemin>
								<valuemax>125</valuemax>
								<value>84.0889</value>
							</parameter>
							<parameter>
								<parameterid>satsoft</parameterid>
								<name>Sat. Softness</name>
								<valuemin>0</valuemin>
								<valuemax>125</valuemax>
								<value>5</value>
							</parameter>
							<parameter>
								<parameterid>doluma</parameterid>
								<name>Limit on Luma</name>
								<value>TRUE</value>
							</parameter>
							<parameter>
								<parameterid>lumamin</parameterid>
								<name>Luma Minimum</name>
								<valuemin>0</valuemin>
								<valuemax>120</valuemax>
								<value>0.939667</value>
							</parameter>
							<parameter>
								<parameterid>lumawidth</parameterid>
								<name>Luma Width</name>
								<valuemin>0</valuemin>
								<valuemax>120</valuemax>
								<value>115.45</value>
							</parameter>
							<parameter>
								<parameterid>lumasoft</parameterid>
								<name>Luma Softness</name>
								<valuemin>0</valuemin>
								<valuemax>120</valuemax>
								<value>15.1099</value>
							</parameter>
							<parameter>
								<parameterid>label6</parameterid>
								<name>Edge Control</name>
								<value/>
							</parameter>
							<parameter>
								<parameterid>edgethin</parameterid>
								<name>Thin/Spread</name>
								<valuemin>-100</valuemin>
								<valuemax>100</valuemax>
								<value>0</value>
							</parameter>
							<parameter>
								<parameterid>edgefeather</parameterid>
								<name>Softening</name>
								<valuemin>0</valuemin>
								<valuemax>100</valuemax>
								<value>0</value>
							</parameter>
							<parameter>
								<parameterid>label7</parameterid>
								<name>Mask Control</name>
								<value/>
							</parameter>
							<parameter>
								<parameterid>invertsel</parameterid>
								<name>Invert</name>
								<value>FALSE</value>
							</parameter>
							<parameter>
								<parameterid>debugshow</parameterid>
								<name>Show Stats</name>
								<value>FALSE</value>
							</parameter>
						</effect>
					</filter>
					<sourcetrack>
						<mediatype>video</mediatype>
					</sourcetrack>
					<fielddominance>upper</fielddominance>
					<itemhistory>
						<uuid>9FCBDB2E-C13B-4E29-8C36-AC2515DFBD7B</uuid>
					</itemhistory>
				</clipitem>
				<clipitem id="00752001.MOV4">
					<name>00752001.MOV</name>
					<duration>4716</duration>
					<rate>
						<ntsc>FALSE</ntsc>
						<timebase>25</timebase>
					</rate>
					<in>4495</in>
					<out>4561</out>
					<start>14697</start>
					<end>14763</end>
					<pixelaspectratio>Square</pixelaspectratio>
					<enabled>TRUE</enabled>
					<anamorphic>FALSE</anamorphic>
					<alphatype>none</alphatype>
					<masterclipid>00752001.MOV1</masterclipid>
					<logginginfo>
						<scene/>
						<shottake/>
						<lognote/>
						<good>FALSE</good>
					</logginginfo>
					<labels>
						<label2/>
					</labels>
					<comments>
						<mastercomment1/>
						<mastercomment2/>
						<mastercomment3/>
						<mastercomment4/>
					</comments>
					<file id="00752001 "/>
					<filter>
						<effect>
							<name>Basic Motion</name>
							<effectid>basic</effectid>
							<effectcategory>motion</effectcategory>
							<effecttype>motion</effecttype>
							<mediatype>video</mediatype>
							<parameter>
								<parameterid>scale</parameterid>
								<name>Scale</name>
								<valuemin>0</valuemin>
								<valuemax>1000</valuemax>
								<value>125</value>
							</parameter>
							<parameter>
								<parameterid>rotation</parameterid>
								<name>Rotation</name>
								<valuemin>-8640</valuemin>
								<valuemax>8640</valuemax>
								<value>0</value>
							</parameter>
							<parameter>
								<parameterid>center</parameterid>
								<name>Center</name>
								<value>
									<horiz>0</horiz>
									<vert>0</vert>
								</value>
							</parameter>
							<parameter>
								<parameterid>centerOffset</parameterid>
								<name>Anchor Point</name>
								<value>
									<horiz>0</horiz>
									<vert>0</vert>
								</value>
							</parameter>
						</effect>
					</filter>
					<filter>
						<enabled>FALSE</enabled>
						<effect>
							<name>Drop Shadow</name>
							<effectid>dropshadow</effectid>
							<effectcategory>motion</effectcategory>
							<effecttype>motion</effecttype>
							<mediatype>video</mediatype>
							<parameter>
								<parameterid>offset</parameterid>
								<name>offset</name>
								<valuemin>-100</valuemin>
								<valuemax>100</valuemax>
								<value>2</value>
							</parameter>
							<parameter>
								<parameterid>angle</parameterid>
								<name>angle</name>
								<valuemin>-720</valuemin>
								<valuemax>720</valuemax>
								<value>135</value>
							</parameter>
							<parameter>
								<parameterid>color</parameterid>
								<name>color</name>
								<value>
									<alpha>0</alpha>
									<red>0</red>
									<green>0</green>
									<blue>0</blue>
								</value>
							</parameter>
							<parameter>
								<parameterid>softness</parameterid>
								<name>softness</name>
								<valuemin>0</valuemin>
								<valuemax>100</valuemax>
								<value>10</value>
							</parameter>
							<parameter>
								<parameterid>opacity</parameterid>
								<name>opacity</name>
								<valuemin>0</valuemin>
								<valuemax>100</valuemax>
								<value>50</value>
							</parameter>
						</effect>
					</filter>
					<filter>
						<enabled>FALSE</enabled>
						<effect>
							<name>Motion Blur</name>
							<effectid>motionblur</effectid>
							<effectcategory>motion</effectcategory>
							<effecttype>motion</effecttype>
							<mediatype>video</mediatype>
							<parameter>
								<parameterid>duration</parameterid>
								<name>% Blur</name>
								<valuemin>0</valuemin>
								<valuemax>1000</valuemax>
								<value>500</value>
							</parameter>
							<parameter>
								<parameterid>samples</parameterid>
								<name>Samples</name>
								<valuemin>1</valuemin>
								<valuemax>16</valuemax>
								<value>4</value>
							</parameter>
						</effect>
					</filter>
					<filter>
						<effect>
							<name>Crop</name>
							<effectid>crop</effectid>
							<effectcategory>motion</effectcategory>
							<effecttype>motion</effecttype>
							<mediatype>video</mediatype>
							<parameter>
								<parameterid>left</parameterid>
								<name>left</name>
								<valuemin>0</valuemin>
								<valuemax>100</valuemax>
								<value>0</value>
							</parameter>
							<parameter>
								<parameterid>right</parameterid>
								<name>right</name>
								<valuemin>0</valuemin>
								<valuemax>100</valuemax>
								<value>0</value>
							</parameter>
							<parameter>
								<parameterid>top</parameterid>
								<name>top</name>
								<valuemin>0</valuemin>
								<valuemax>100</valuemax>
								<value>0</value>
							</parameter>
							<parameter>
								<parameterid>bottom</parameterid>
								<name>bottom</name>
								<valuemin>0</valuemin>
								<valuemax>100</valuemax>
								<value>0</value>
							</parameter>
							<parameter>
								<parameterid>edgefeather</parameterid>
								<name>edgefeather</name>
								<valuemin>0</valuemin>
								<valuemax>100</valuemax>
								<value>0</value>
							</parameter>
						</effect>
					</filter>
					<filter>
						<effect>
							<name>Distort</name>
							<effectid>deformation</effectid>
							<effectcategory>motion</effectcategory>
							<effecttype>motion</effecttype>
							<mediatype>video</mediatype>
							<parameter>
								<parameterid>ulcorner</parameterid>
								<name>Upper Left</name>
								<value>
									<horiz>-0.5</horiz>
									<vert>-0.5</vert>
								</value>
							</parameter>
							<parameter>
								<parameterid>urcorner</parameterid>
								<name>Upper Right</name>
								<value>
									<horiz>0.5</horiz>
									<vert>-0.5</vert>
								</value>
							</parameter>
							<parameter>
								<parameterid>lrcorner</parameterid>
								<name>Lower Right</name>
								<value>
									<horiz>0.5</horiz>
									<vert>0.5</vert>
								</value>
							</parameter>
							<parameter>
								<parameterid>llcorner</parameterid>
								<name>Lower Left</name>
								<value>
									<horiz>-0.5</horiz>
									<vert>0.5</vert>
								</value>
							</parameter>
							<parameter>
								<parameterid>aspect</parameterid>
								<name>Aspect</name>
								<valuemin>-10000</valuemin>
								<valuemax>10000</valuemax>
								<value>0</value>
							</parameter>
						</effect>
					</filter>
					<filter>
						<effect>
							<name>Opacity</name>
							<effectid>opacity</effectid>
							<effectcategory>motion</effectcategory>
							<effecttype>motion</effecttype>
							<mediatype>video</mediatype>
							<parameter>
								<parameterid>opacity</parameterid>
								<name>opacity</name>
								<valuemin>0</valuemin>
								<valuemax>100</valuemax>
								<value>100</value>
							</parameter>
						</effect>
					</filter>
					<sourcetrack>
						<mediatype>video</mediatype>
					</sourcetrack>
					<fielddominance>upper</fielddominance>
					<itemhistory>
						<uuid>82ACB377-CD59-44C4-97F1-EA8D9547F1E8</uuid>
					</itemhistory>
				</clipitem>
				<clipitem id="00767001.MOV2">
					<name>00767001.MOV</name>
					<duration>4836</duration>
					<rate>
						<ntsc>FALSE</ntsc>
						<timebase>25</timebase>
					</rate>
					<in>1432</in>
					<out>1490</out>
					<start>14763</start>
					<end>14821</end>
					<pixelaspectratio>Square</pixelaspectratio>
					<enabled>TRUE</enabled>
					<anamorphic>FALSE</anamorphic>
					<alphatype>none</alphatype>
					<masterclipid>00767001.MOV1</masterclipid>
					<logginginfo>
						<scene/>
						<shottake/>
						<lognote/>
						<good>FALSE</good>
					</logginginfo>
					<labels>
						<label2/>
					</labels>
					<comments>
						<mastercomment1/>
						<mastercomment2/>
						<mastercomment3/>
						<mastercomment4/>
					</comments>
					<file id="00767001 "/>
					<filter>
						<start>-1</start>
						<end>-1</end>
						<effect>
							<name>Color Corrector - Lua til Carina</name>
							<effectid>Color Corrector</effectid>
							<effectcategory>Color Correction</effectcategory>
							<effecttype>filter</effecttype>
							<mediatype>video</mediatype>
							<parameter>
								<parameterid>dispmode</parameterid>
								<name>Display Mode</name>
								<valuemin>1</valuemin>
								<valuemax>3</valuemax>
								<valuelist>
									<valueentry>
										<name>Final</name>
										<value>1</value>
									</valueentry>
									<valueentry>
										<name>Matte</name>
										<value>2</value>
									</valueentry>
									<valueentry>
										<name>Source</name>
										<value>3</value>
									</valueentry>
								</valuelist>
								<value>1</value>
							</parameter>
							<parameter>
								<parameterid>label1</parameterid>
								<name>Level Controls</name>
								<value/>
							</parameter>
							<parameter>
								<parameterid>highlights</parameterid>
								<name>Highlights</name>
								<valuemin>64</valuemin>
								<valuemax>509</valuemax>
								<value>247</value>
							</parameter>
							<parameter>
								<parameterid>mids</parameterid>
								<name>Mids</name>
								<valuemin>0</valuemin>
								<valuemax>200</valuemax>
								<value>100</value>
							</parameter>
							<parameter>
								<parameterid>blacklevel</parameterid>
								<name>Blacks</name>
								<valuemin>-196</valuemin>
								<valuemax>254</valuemax>
								<value>-3</value>
							</parameter>
							<parameter>
								<parameterid>label2</parameterid>
								<name>Color Balance</name>
								<value/>
							</parameter>
							<parameter>
								<parameterid>hue</parameterid>
								<name>Angle</name>
								<valuemin>-180</valuemin>
								<valuemax>180</valuemax>
								<value>-33</value>
							</parameter>
							<parameter>
								<parameterid>mag</parameterid>
								<name>Magnitude</name>
								<valuemin>0</valuemin>
								<valuemax>200</valuemax>
								<value>0</value>
							</parameter>
							<parameter>
								<parameterid>label4</parameterid>
								<name>Color Controls</name>
								<value/>
							</parameter>
							<parameter>
								<parameterid>chroma</parameterid>
								<name>Saturation</name>
								<valuemin>0</valuemin>
								<valuemax>200</valuemax>
								<value>84</value>
							</parameter>
							<parameter>
								<parameterid>phase</parameterid>
								<name>Phase shift</name>
								<valuemin>-180</valuemin>
								<valuemax>180</valuemax>
								<value>0</value>
							</parameter>
							<parameter>
								<parameterid>label5</parameterid>
								<name>Limit Effect Controls</name>
								<value/>
							</parameter>
							<parameter>
								<parameterid>dochroma</parameterid>
								<name>Limit on Chroma</name>
								<value>TRUE</value>
							</parameter>
							<parameter>
								<parameterid>centerang</parameterid>
								<name>Chroma Center</name>
								<valuemin>-760</valuemin>
								<valuemax>760</valuemax>
								<value>322.256</value>
							</parameter>
							<parameter>
								<parameterid>chromawidth</parameterid>
								<name>Chroma Width</name>
								<valuemin>0</valuemin>
								<valuemax>360</valuemax>
								<value>7.49567</value>
							</parameter>
							<parameter>
								<parameterid>chromasoft</parameterid>
								<name>Chroma Softness</name>
								<valuemin>0</valuemin>
								<valuemax>180</valuemax>
								<value>10.6152</value>
							</parameter>
							<parameter>
								<parameterid>dosat</parameterid>
								<name>Limit on Saturation</name>
								<value>TRUE</value>
							</parameter>
							<parameter>
								<parameterid>satmin</parameterid>
								<name>Sat. Minimum</name>
								<valuemin>0</valuemin>
								<valuemax>125</valuemax>
								<value>36.7837</value>
							</parameter>
							<parameter>
								<parameterid>satwidth</parameterid>
								<name>Sat. Width</name>
								<valuemin>0</valuemin>
								<valuemax>125</valuemax>
								<value>84.0889</value>
							</parameter>
							<parameter>
								<parameterid>satsoft</parameterid>
								<name>Sat. Softness</name>
								<valuemin>0</valuemin>
								<valuemax>125</valuemax>
								<value>5</value>
							</parameter>
							<parameter>
								<parameterid>doluma</parameterid>
								<name>Limit on Luma</name>
								<value>TRUE</value>
							</parameter>
							<parameter>
								<parameterid>lumamin</parameterid>
								<name>Luma Minimum</name>
								<valuemin>0</valuemin>
								<valuemax>120</valuemax>
								<value>0.939667</value>
							</parameter>
							<parameter>
								<parameterid>lumawidth</parameterid>
								<name>Luma Width</name>
								<valuemin>0</valuemin>
								<valuemax>120</valuemax>
								<value>115.45</value>
							</parameter>
							<parameter>
								<parameterid>lumasoft</parameterid>
								<name>Luma Softness</name>
								<valuemin>0</valuemin>
								<valuemax>120</valuemax>
								<value>15.1099</value>
							</parameter>
							<parameter>
								<parameterid>label6</parameterid>
								<name>Edge Control</name>
								<value/>
							</parameter>
							<parameter>
								<parameterid>edgethin</parameterid>
								<name>Thin/Spread</name>
								<valuemin>-100</valuemin>
								<valuemax>100</valuemax>
								<value>0</value>
							</parameter>
							<parameter>
								<parameterid>edgefeather</parameterid>
								<name>Softening</name>
								<valuemin>0</valuemin>
								<valuemax>100</valuemax>
								<value>0</value>
							</parameter>
							<parameter>
								<parameterid>label7</parameterid>
								<name>Mask Control</name>
								<value/>
							</parameter>
							<parameter>
								<parameterid>invertsel</parameterid>
								<name>Invert</name>
								<value>FALSE</value>
							</parameter>
							<parameter>
								<parameterid>debugshow</parameterid>
								<name>Show Stats</name>
								<value>FALSE</value>
							</parameter>
						</effect>
					</filter>
					<sourcetrack>
						<mediatype>video</mediatype>
					</sourcetrack>
					<fielddominance>upper</fielddominance>
					<itemhistory>
						<uuid>D60BF49F-4238-4FA7-A2AE-D26707042573</uuid>
					</itemhistory>
				</clipitem>
				<clipitem id="00763001.MOV">
					<name>00763001.MOV</name>
					<duration>7356</duration>
					<rate>
						<ntsc>FALSE</ntsc>
						<timebase>25</timebase>
					</rate>
					<in>5092</in>
					<out>5149</out>
					<start>14821</start>
					<end>14878</end>
					<pixelaspectratio>Square</pixelaspectratio>
					<enabled>TRUE</enabled>
					<anamorphic>FALSE</anamorphic>
					<alphatype>none</alphatype>
					<masterclipid>00763001.MOV1</masterclipid>
					<logginginfo>
						<scene/>
						<shottake/>
						<lognote/>
						<good>FALSE</good>
					</logginginfo>
					<labels>
						<label2/>
					</labels>
					<comments>
						<mastercomment1/>
						<mastercomment2/>
						<mastercomment3/>
						<mastercomment4/>
					</comments>
					<file id="00763001 ">
						<name>00763001.MOV</name>
						<pathurl>file://localhost/Volumes/Askepott/Prosjekter/DNPR637010_Kra%CC%8Akeklubben_TEM_011212/Video/MELLOMSTIKK/S01E05%20Dyrebolig/00763001.MOV</pathurl>
						<rate>
							<timebase>25</timebase>
						</rate>
						<duration>7356</duration>
						<timecode>
							<rate>
								<timebase>25</timebase>
							</rate>
							<string>17:55:59:02</string>
							<frame>1613977</frame>
							<displayformat>NDF</displayformat>
							<source>source</source>
							<reel>
								<name>Flash XDR</name>
							</reel>
						</timecode>
						<media>
							<video>
								<duration>7356</duration>
								<samplecharacteristics>
									<width>1920</width>
									<height>1080</height>
								</samplecharacteristics>
							</video>
							<audio>
								<samplecharacteristics>
									<samplerate>48000</samplerate>
									<depth>24</depth>
								</samplecharacteristics>
								<channelcount>1</channelcount>
							</audio>
							<audio>
								<samplecharacteristics>
									<samplerate>48000</samplerate>
									<depth>24</depth>
								</samplecharacteristics>
								<channelcount>1</channelcount>
							</audio>
						</media>
					</file>
					<sourcetrack>
						<mediatype>video</mediatype>
					</sourcetrack>
					<fielddominance>upper</fielddominance>
					<itemhistory>
						<uuid>69819A3D-24C0-489B-BABF-BA0B70E0230F</uuid>
					</itemhistory>
				</clipitem>
				<clipitem id="00767001.MOV3">
					<name>00767001.MOV</name>
					<duration>4836</duration>
					<rate>
						<ntsc>FALSE</ntsc>
						<timebase>25</timebase>
					</rate>
					<in>1535</in>
					<out>1932</out>
					<start>14878</start>
					<end>15275</end>
					<pixelaspectratio>Square</pixelaspectratio>
					<enabled>TRUE</enabled>
					<anamorphic>FALSE</anamorphic>
					<alphatype>none</alphatype>
					<masterclipid>00767001.MOV1</masterclipid>
					<logginginfo>
						<scene/>
						<shottake/>
						<lognote/>
						<good>FALSE</good>
					</logginginfo>
					<labels>
						<label2/>
					</labels>
					<comments>
						<mastercomment1/>
						<mastercomment2/>
						<mastercomment3/>
						<mastercomment4/>
					</comments>
					<file id="00767001 "/>
					<filter>
						<start>-1</start>
						<end>-1</end>
						<effect>
							<name>Color Corrector - Lua til Carina</name>
							<effectid>Color Corrector</effectid>
							<effectcategory>Color Correction</effectcategory>
							<effecttype>filter</effecttype>
							<mediatype>video</mediatype>
							<parameter>
								<parameterid>dispmode</parameterid>
								<name>Display Mode</name>
								<valuemin>1</valuemin>
								<valuemax>3</valuemax>
								<valuelist>
									<valueentry>
										<name>Final</name>
										<value>1</value>
									</valueentry>
									<valueentry>
										<name>Matte</name>
										<value>2</value>
									</valueentry>
									<valueentry>
										<name>Source</name>
										<value>3</value>
									</valueentry>
								</valuelist>
								<value>1</value>
							</parameter>
							<parameter>
								<parameterid>label1</parameterid>
								<name>Level Controls</name>
								<value/>
							</parameter>
							<parameter>
								<parameterid>highlights</parameterid>
								<name>Highlights</name>
								<valuemin>64</valuemin>
								<valuemax>509</valuemax>
								<value>247</value>
							</parameter>
							<parameter>
								<parameterid>mids</parameterid>
								<name>Mids</name>
								<valuemin>0</valuemin>
								<valuemax>200</valuemax>
								<value>100</value>
							</parameter>
							<parameter>
								<parameterid>blacklevel</parameterid>
								<name>Blacks</name>
								<valuemin>-196</valuemin>
								<valuemax>254</valuemax>
								<value>-3</value>
							</parameter>
							<parameter>
								<parameterid>label2</parameterid>
								<name>Color Balance</name>
								<value/>
							</parameter>
							<parameter>
								<parameterid>hue</parameterid>
								<name>Angle</name>
								<valuemin>-180</valuemin>
								<valuemax>180</valuemax>
								<value>-33</value>
							</parameter>
							<parameter>
								<parameterid>mag</parameterid>
								<name>Magnitude</name>
								<valuemin>0</valuemin>
								<valuemax>200</valuemax>
								<value>0</value>
							</parameter>
							<parameter>
								<parameterid>label4</parameterid>
								<name>Color Controls</name>
								<value/>
							</parameter>
							<parameter>
								<parameterid>chroma</parameterid>
								<name>Saturation</name>
								<valuemin>0</valuemin>
								<valuemax>200</valuemax>
								<value>84</value>
							</parameter>
							<parameter>
								<parameterid>phase</parameterid>
								<name>Phase shift</name>
								<valuemin>-180</valuemin>
								<valuemax>180</valuemax>
								<value>0</value>
							</parameter>
							<parameter>
								<parameterid>label5</parameterid>
								<name>Limit Effect Controls</name>
								<value/>
							</parameter>
							<parameter>
								<parameterid>dochroma</parameterid>
								<name>Limit on Chroma</name>
								<value>TRUE</value>
							</parameter>
							<parameter>
								<parameterid>centerang</parameterid>
								<name>Chroma Center</name>
								<valuemin>-760</valuemin>
								<valuemax>760</valuemax>
								<value>322.256</value>
							</parameter>
							<parameter>
								<parameterid>chromawidth</parameterid>
								<name>Chroma Width</name>
								<valuemin>0</valuemin>
								<valuemax>360</valuemax>
								<value>7.49567</value>
							</parameter>
							<parameter>
								<parameterid>chromasoft</parameterid>
								<name>Chroma Softness</name>
								<valuemin>0</valuemin>
								<valuemax>180</valuemax>
								<value>10.6152</value>
							</parameter>
							<parameter>
								<parameterid>dosat</parameterid>
								<name>Limit on Saturation</name>
								<value>TRUE</value>
							</parameter>
							<parameter>
								<parameterid>satmin</parameterid>
								<name>Sat. Minimum</name>
								<valuemin>0</valuemin>
								<valuemax>125</valuemax>
								<value>36.7837</value>
							</parameter>
							<parameter>
								<parameterid>satwidth</parameterid>
								<name>Sat. Width</name>
								<valuemin>0</valuemin>
								<valuemax>125</valuemax>
								<value>84.0889</value>
							</parameter>
							<parameter>
								<parameterid>satsoft</parameterid>
								<name>Sat. Softness</name>
								<valuemin>0</valuemin>
								<valuemax>125</valuemax>
								<value>5</value>
							</parameter>
							<parameter>
								<parameterid>doluma</parameterid>
								<name>Limit on Luma</name>
								<value>TRUE</value>
							</parameter>
							<parameter>
								<parameterid>lumamin</parameterid>
								<name>Luma Minimum</name>
								<valuemin>0</valuemin>
								<valuemax>120</valuemax>
								<value>0.939667</value>
							</parameter>
							<parameter>
								<parameterid>lumawidth</parameterid>
								<name>Luma Width</name>
								<valuemin>0</valuemin>
								<valuemax>120</valuemax>
								<value>115.45</value>
							</parameter>
							<parameter>
								<parameterid>lumasoft</parameterid>
								<name>Luma Softness</name>
								<valuemin>0</valuemin>
								<valuemax>120</valuemax>
								<value>15.1099</value>
							</parameter>
							<parameter>
								<parameterid>label6</parameterid>
								<name>Edge Control</name>
								<value/>
							</parameter>
							<parameter>
								<parameterid>edgethin</parameterid>
								<name>Thin/Spread</name>
								<valuemin>-100</valuemin>
								<valuemax>100</valuemax>
								<value>0</value>
							</parameter>
							<parameter>
								<parameterid>edgefeather</parameterid>
								<name>Softening</name>
								<valuemin>0</valuemin>
								<valuemax>100</valuemax>
								<value>0</value>
							</parameter>
							<parameter>
								<parameterid>label7</parameterid>
								<name>Mask Control</name>
								<value/>
							</parameter>
							<parameter>
								<parameterid>invertsel</parameterid>
								<name>Invert</name>
								<value>FALSE</value>
							</parameter>
							<parameter>
								<parameterid>debugshow</parameterid>
								<name>Show Stats</name>
								<value>FALSE</value>
							</parameter>
						</effect>
					</filter>
					<sourcetrack>
						<mediatype>video</mediatype>
					</sourcetrack>
					<link>
						<linkclipref>00767001.MOV3</linkclipref>
						<mediatype>video</mediatype>
						<trackindex>1</trackindex>
						<clipindex>116</clipindex>
					</link>
					<link>
						<linkclipref>00767001.MOV4</linkclipref>
						<mediatype>audio</mediatype>
						<trackindex>1</trackindex>
						<clipindex>115</clipindex>
					</link>
					<link>
						<linkclipref>00767001.MOV5</linkclipref>
						<mediatype>audio</mediatype>
						<trackindex>2</trackindex>
						<clipindex>119</clipindex>
					</link>
					<fielddominance>upper</fielddominance>
					<itemhistory>
						<uuid>AD00D7E4-4705-4A18-8CE7-0A9F6FB71AC1</uuid>
					</itemhistory>
				</clipitem>
				<clipitem id="00769001.MOV2">
					<name>00769001.MOV</name>
					<duration>708</duration>
					<rate>
						<ntsc>FALSE</ntsc>
						<timebase>25</timebase>
					</rate>
					<in>61</in>
					<out>218</out>
					<start>15564</start>
					<end>15721</end>
					<pixelaspectratio>Square</pixelaspectratio>
					<enabled>TRUE</enabled>
					<anamorphic>FALSE</anamorphic>
					<alphatype>none</alphatype>
					<masterclipid>00769001.MOV1</masterclipid>
					<logginginfo>
						<scene/>
						<shottake/>
						<lognote/>
						<good>FALSE</good>
					</logginginfo>
					<labels>
						<label2/>
					</labels>
					<comments>
						<mastercomment1/>
						<mastercomment2/>
						<mastercomment3/>
						<mastercomment4/>
					</comments>
					<file id="00769001 "/>
					<sourcetrack>
						<mediatype>video</mediatype>
					</sourcetrack>
					<link>
						<linkclipref>00769001.MOV2</linkclipref>
						<mediatype>video</mediatype>
						<trackindex>1</trackindex>
						<clipindex>117</clipindex>
					</link>
					<link>
						<linkclipref>00769001.MOV3</linkclipref>
						<mediatype>audio</mediatype>
						<trackindex>1</trackindex>
						<clipindex>119</clipindex>
					</link>
					<link>
						<linkclipref>00769001.MOV4</linkclipref>
						<mediatype>audio</mediatype>
						<trackindex>2</trackindex>
						<clipindex>123</clipindex>
					</link>
					<fielddominance>upper</fielddominance>
					<itemhistory>
						<uuid>415B163C-D47C-4269-A2A6-A97290F1DAD4</uuid>
					</itemhistory>
				</clipitem>
				<clipitem id="00769001.MOV5">
					<name>00769001.MOV</name>
					<duration>708</duration>
					<rate>
						<ntsc>FALSE</ntsc>
						<timebase>25</timebase>
					</rate>
					<in>276</in>
					<out>568</out>
					<start>15944</start>
					<end>16236</end>
					<pixelaspectratio>Square</pixelaspectratio>
					<enabled>TRUE</enabled>
					<anamorphic>FALSE</anamorphic>
					<alphatype>none</alphatype>
					<masterclipid>00769001.MOV1</masterclipid>
					<logginginfo>
						<scene/>
						<shottake/>
						<lognote/>
						<good>FALSE</good>
					</logginginfo>
					<labels>
						<label2/>
					</labels>
					<comments>
						<mastercomment1/>
						<mastercomment2/>
						<mastercomment3/>
						<mastercomment4/>
					</comments>
					<file id="00769001 "/>
					<filter>
						<start>-1</start>
						<end>-1</end>
						<effect>
							<name>Color Corrector - Lua til Carina 3 bittelitt</name>
							<effectid>Color Corrector</effectid>
							<effectcategory>Color Correction</effectcategory>
							<effecttype>filter</effecttype>
							<mediatype>video</mediatype>
							<parameter>
								<parameterid>dispmode</parameterid>
								<name>Display Mode</name>
								<valuemin>1</valuemin>
								<valuemax>3</valuemax>
								<valuelist>
									<valueentry>
										<name>Final</name>
										<value>1</value>
									</valueentry>
									<valueentry>
										<name>Matte</name>
										<value>2</value>
									</valueentry>
									<valueentry>
										<name>Source</name>
										<value>3</value>
									</valueentry>
								</valuelist>
								<value>1</value>
							</parameter>
							<parameter>
								<parameterid>label1</parameterid>
								<name>Level Controls</name>
								<value/>
							</parameter>
							<parameter>
								<parameterid>highlights</parameterid>
								<name>Highlights</name>
								<valuemin>64</valuemin>
								<valuemax>509</valuemax>
								<value>247</value>
							</parameter>
							<parameter>
								<parameterid>mids</parameterid>
								<name>Mids</name>
								<valuemin>0</valuemin>
								<valuemax>200</valuemax>
								<value>100</value>
							</parameter>
							<parameter>
								<parameterid>blacklevel</parameterid>
								<name>Blacks</name>
								<valuemin>-196</valuemin>
								<valuemax>254</valuemax>
								<value>-3</value>
							</parameter>
							<parameter>
								<parameterid>label2</parameterid>
								<name>Color Balance</name>
								<value/>
							</parameter>
							<parameter>
								<parameterid>hue</parameterid>
								<name>Angle</name>
								<valuemin>-180</valuemin>
								<valuemax>180</valuemax>
								<value>-33</value>
							</parameter>
							<parameter>
								<parameterid>mag</parameterid>
								<name>Magnitude</name>
								<valuemin>0</valuemin>
								<valuemax>200</valuemax>
								<value>0</value>
							</parameter>
							<parameter>
								<parameterid>label4</parameterid>
								<name>Color Controls</name>
								<value/>
							</parameter>
							<parameter>
								<parameterid>chroma</parameterid>
								<name>Saturation</name>
								<valuemin>0</valuemin>
								<valuemax>200</valuemax>
								<value>94</value>
							</parameter>
							<parameter>
								<parameterid>phase</parameterid>
								<name>Phase shift</name>
								<valuemin>-180</valuemin>
								<valuemax>180</valuemax>
								<value>0</value>
							</parameter>
							<parameter>
								<parameterid>label5</parameterid>
								<name>Limit Effect Controls</name>
								<value/>
							</parameter>
							<parameter>
								<parameterid>dochroma</parameterid>
								<name>Limit on Chroma</name>
								<value>TRUE</value>
							</parameter>
							<parameter>
								<parameterid>centerang</parameterid>
								<name>Chroma Center</name>
								<valuemin>-760</valuemin>
								<valuemax>760</valuemax>
								<value>322.256</value>
							</parameter>
							<parameter>
								<parameterid>chromawidth</parameterid>
								<name>Chroma Width</name>
								<valuemin>0</valuemin>
								<valuemax>360</valuemax>
								<value>8.11959</value>
							</parameter>
							<parameter>
								<parameterid>chromasoft</parameterid>
								<name>Chroma Softness</name>
								<valuemin>0</valuemin>
								<valuemax>180</valuemax>
								<value>26.8371</value>
							</parameter>
							<parameter>
								<parameterid>dosat</parameterid>
								<name>Limit on Saturation</name>
								<value>TRUE</value>
							</parameter>
							<parameter>
								<parameterid>satmin</parameterid>
								<name>Sat. Minimum</name>
								<valuemin>0</valuemin>
								<valuemax>125</valuemax>
								<value>36.7837</value>
							</parameter>
							<parameter>
								<parameterid>satwidth</parameterid>
								<name>Sat. Width</name>
								<valuemin>0</valuemin>
								<valuemax>125</valuemax>
								<value>84.0889</value>
							</parameter>
							<parameter>
								<parameterid>satsoft</parameterid>
								<name>Sat. Softness</name>
								<valuemin>0</valuemin>
								<valuemax>125</valuemax>
								<value>5</value>
							</parameter>
							<parameter>
								<parameterid>doluma</parameterid>
								<name>Limit on Luma</name>
								<value>TRUE</value>
							</parameter>
							<parameter>
								<parameterid>lumamin</parameterid>
								<name>Luma Minimum</name>
								<valuemin>0</valuemin>
								<valuemax>120</valuemax>
								<value>0.939667</value>
							</parameter>
							<parameter>
								<parameterid>lumawidth</parameterid>
								<name>Luma Width</name>
								<valuemin>0</valuemin>
								<valuemax>120</valuemax>
								<value>115.45</value>
							</parameter>
							<parameter>
								<parameterid>lumasoft</parameterid>
								<name>Luma Softness</name>
								<valuemin>0</valuemin>
								<valuemax>120</valuemax>
								<value>15.1099</value>
							</parameter>
							<parameter>
								<parameterid>label6</parameterid>
								<name>Edge Control</name>
								<value/>
							</parameter>
							<parameter>
								<parameterid>edgethin</parameterid>
								<name>Thin/Spread</name>
								<valuemin>-100</valuemin>
								<valuemax>100</valuemax>
								<value>0</value>
							</parameter>
							<parameter>
								<parameterid>edgefeather</parameterid>
								<name>Softening</name>
								<valuemin>0</valuemin>
								<valuemax>100</valuemax>
								<value>6</value>
							</parameter>
							<parameter>
								<parameterid>label7</parameterid>
								<name>Mask Control</name>
								<value/>
							</parameter>
							<parameter>
								<parameterid>invertsel</parameterid>
								<name>Invert</name>
								<value>FALSE</value>
							</parameter>
							<parameter>
								<parameterid>debugshow</parameterid>
								<name>Show Stats</name>
								<value>FALSE</value>
							</parameter>
						</effect>
					</filter>
					<filter>
						<effect>
							<name>Opacity</name>
							<effectid>opacity</effectid>
							<effectcategory>motion</effectcategory>
							<effecttype>motion</effecttype>
							<mediatype>video</mediatype>
							<parameter>
								<parameterid>opacity</parameterid>
								<name>opacity</name>
								<valuemin>0</valuemin>
								<valuemax>100</valuemax>
								<value>100</value>
							</parameter>
						</effect>
					</filter>
					<sourcetrack>
						<mediatype>video</mediatype>
					</sourcetrack>
					<link>
						<linkclipref>00769001.MOV5</linkclipref>
						<mediatype>video</mediatype>
						<trackindex>1</trackindex>
						<clipindex>118</clipindex>
					</link>
					<link>
						<linkclipref>00769001.MOV6</linkclipref>
						<mediatype>audio</mediatype>
						<trackindex>1</trackindex>
						<clipindex>120</clipindex>
					</link>
					<link>
						<linkclipref>00769001.MOV7</linkclipref>
						<mediatype>audio</mediatype>
						<trackindex>2</trackindex>
						<clipindex>124</clipindex>
					</link>
					<fielddominance>upper</fielddominance>
					<itemhistory>
						<uuid>8A930587-EDAC-4766-8976-9A0606D6A9E5</uuid>
					</itemhistory>
				</clipitem>
				<clipitem id="DYR18519_01 ">
					<name>DYR18519_01</name>
					<duration>1686</duration>
					<rate>
						<ntsc>FALSE</ntsc>
						<timebase>25</timebase>
					</rate>
					<in>517</in>
					<out>547</out>
					<start>16569</start>
					<end>16599</end>
					<pixelaspectratio>Square</pixelaspectratio>
					<enabled>TRUE</enabled>
					<anamorphic>FALSE</anamorphic>
					<alphatype>none</alphatype>
					<masterclipid>DYR18519_01 1</masterclipid>
					<logginginfo>
						<scene/>
						<shottake/>
						<lognote/>
						<good>FALSE</good>
					</logginginfo>
					<labels>
						<label2/>
					</labels>
					<comments>
						<mastercomment1/>
						<mastercomment2/>
						<mastercomment3/>
						<mastercomment4/>
					</comments>
					<file id="DYR18519_01 2">
						<name>DYR18519_01.mov</name>
						<pathurl>file://localhost/Volumes/Askepott/Prosjekter/DNPR637010_Kra%CC%8Akeklubben_TEM_011212/Video/TORDS%20GARASJE/Insekt/Maur/DYR18519_01.mov</pathurl>
						<rate>
							<timebase>25</timebase>
						</rate>
						<duration>1686</duration>
						<metadata>
							<storage>QuickTime</storage>
							<key>com.sony.bprl.xdcamtransfer.version</key>
							<size>10</size>
							<type>UTF8</type>
							<value>2.12.0.631</value>
						</metadata>
						<metadata>
							<storage>QuickTime</storage>
							<key>org.smpte.mxf.package.material.packageid</key>
							<size>66</size>
							<type>UTF8</type>
							<value>0x060a2b340101010501010d431300000060e5d083545405c008004602022f05f5</value>
						</metadata>
						<metadata>
							<storage>QuickTime</storage>
							<key>com.sony.professionaldisc.nonrealtimemeta.lastupdate</key>
							<size>25</size>
							<type>UTF8</type>
							<value>2010-09-15 13:22:36 +0100</value>
						</metadata>
						<metadata>
							<storage>QuickTime</storage>
							<key>com.sony.bprl.mxf.umid</key>
							<size>64</size>
							<type>UTF8</type>
							<value>060a2b340101010501010d431300000060e5d083545405c008004602022f05f5</value>
						</metadata>
						<metadata>
							<storage>QuickTime</storage>
							<key>com.sony.bprl.mxf.nrtmetadata</key>
							<size>1994</size>
							<type>UTF8</type>
							<value>&lt;?xml version="1.0" encoding="UTF-8"?>&lt;NonRealTimeMeta xmlns="urn:schemas-professionalDisc:nonRealTimeMeta:ver.1.20" xmlns:lib="urn:schemas-professionalDisc:lib:ver.1.20" xmlns:xsi="http://www.w3.org/2001/XMLSchema-instance" lastUpdate="2010-09-15T13:22:36+01:00">&lt;TargetMaterial umidRef="060A2B340101010501010D431300000060E5D083545405C008004602022F05F5">&lt;/TargetMaterial>&lt;Duration value="1686">&lt;/Duration>&lt;LtcChangeTable tcFps="25" halfStep="false">&lt;LtcChange frameCount="0" value="07030912" status="increment">&lt;/LtcChange>&lt;LtcChange frameCount="1685" value="17101012" status="end">&lt;/LtcChange>&lt;/LtcChangeTable>&lt;CreationDate value="2010-09-15T13:21:27+01:00">&lt;/CreationDate>&lt;TypicalUbit value="0000000017061020">&lt;/TypicalUbit>&lt;BodyUmidBasicChangeTable>&lt;BodyUmidBasicChange frameCount="0" value="060A2B340101010501010D433300000060E5D083545405C008004602022F05F5" status="start">&lt;/BodyUmidBasicChange>&lt;/BodyUmidBasicChangeTable>&lt;BodyUmidWhenChangeTable>&lt;BodyUmidWhenChange frameCount="0" value="44243E04545405A5" status="increment">&lt;/BodyUmidWhenChange>&lt;BodyUmidWhenChange frameCount="1685" value="84C93F04545405A5" status="end">&lt;/BodyUmidWhenChange>&lt;/BodyUmidWhenChangeTable>&lt;KlvPacketTable>&lt;KlvPacket key="060E2B34010101050301020A02000000" frameCount="0" lengthValue="095F5265635374617274" status="spot">&lt;/KlvPacket>&lt;/KlvPacketTable>&lt;VideoFormat>&lt;VideoRecPort port="DIRECT">&lt;/VideoRecPort>&lt;VideoFrame videoCodec="MPEG2HD35_1920_1080_MP@HL" captureFps="50.00i" recFps="50.00" formatFps="50i">&lt;/VideoFrame>&lt;VideoLayout pixel="1920" numOfVerticalLine="1080" aspectRatio="16:9">&lt;/VideoLayout>&lt;/VideoFormat>&lt;AudioFormat numOfChannel="2">&lt;AudioRecPort port="ANALOG" audioCodec="LPCM16" trackDst="CH1">&lt;/AudioRecPort>&lt;AudioRecPort port="DIRECT" audioCodec="LPCM16" trackDst="CH2">&lt;/AudioRecPort>&lt;/AudioFormat>&lt;Device manufacturer="Sony" modelName="PMW-EX3" serialNo="0401525">&lt;/Device>&lt;Lens modelName="VCL-614B2X">&lt;/Lens>&lt;RecordingMode type="normal" cacheRec="false">&lt;/RecordingMode>&lt;/NonRealTimeMeta>
							</value>
						</metadata>
						<metadata>
							<storage>QuickTime</storage>
							<key>com.apple.proapps.reel</key>
							<size>8</size>
							<type>UTF8</type>
							<value>Untitled</value>
						</metadata>
						<metadata>
							<storage>QuickTime</storage>
							<key>com.apple.proapps.clipID</key>
							<size>64</size>
							<type>UTF8</type>
							<value>060A2B340101010501010D431300000060E5D083545405C008004602022F05F5</value>
						</metadata>
						<metadata>
							<storage>QuickTime</storage>
							<key>com.apple.quicktime.information</key>
							<size>64</size>
							<type>UTF8</type>
							<value>060a2b340101010501010d431300000060e5d083545405c008004602022f05f5</value>
						</metadata>
						<metadata>
							<storage>QuickTime</storage>
							<key>com.apple.proapps.originalFormat</key>
							<size>36</size>
							<type>UTF8</type>
							<value>Apple XDCAM EX 1080i50 (35 Mb/s VBR)</value>
						</metadata>
						<timecode>
							<rate>
								<timebase>25</timebase>
							</rate>
							<string>12:09:03:07</string>
							<frame>1093582</frame>
							<displayformat>NDF</displayformat>
							<source>source</source>
							<reel>
								<name>Untitled</name>
							</reel>
						</timecode>
						<media>
							<video>
								<duration>1686</duration>
								<samplecharacteristics>
									<width>1920</width>
									<height>1080</height>
								</samplecharacteristics>
							</video>
							<audio>
								<samplecharacteristics>
									<samplerate>48000</samplerate>
									<depth>16</depth>
								</samplecharacteristics>
								<channelcount>1</channelcount>
								<layout>mono</layout>
								<audiochannel>
									<sourcechannel>1</sourcechannel>
									<channellabel>discrete</channellabel>
								</audiochannel>
							</audio>
							<audio>
								<samplecharacteristics>
									<samplerate>48000</samplerate>
									<depth>16</depth>
								</samplecharacteristics>
								<channelcount>1</channelcount>
								<layout>mono</layout>
								<audiochannel>
									<sourcechannel>2</sourcechannel>
									<channellabel>discrete</channellabel>
								</audiochannel>
							</audio>
						</media>
					</file>
					<sourcetrack>
						<mediatype>video</mediatype>
					</sourcetrack>
					<link>
						<linkclipref>DYR18519_01 </linkclipref>
						<mediatype>video</mediatype>
						<trackindex>1</trackindex>
						<clipindex>119</clipindex>
					</link>
					<link>
						<linkclipref>DYR18519_01 3</linkclipref>
						<mediatype>audio</mediatype>
						<trackindex>1</trackindex>
						<clipindex>125</clipindex>
					</link>
					<link>
						<linkclipref>DYR18519_01 4</linkclipref>
						<mediatype>audio</mediatype>
						<trackindex>2</trackindex>
						<clipindex>129</clipindex>
					</link>
					<fielddominance>upper</fielddominance>
					<itemhistory>
						<uuid>027EE01F-79A9-4A7C-8D64-31476141E4B7</uuid>
					</itemhistory>
				</clipitem>
				<clipitem id="DYR18519_01 5">
					<name>DYR18519_01</name>
					<duration>1686</duration>
					<rate>
						<ntsc>FALSE</ntsc>
						<timebase>25</timebase>
					</rate>
					<in>693</in>
					<out>756</out>
					<start>16599</start>
					<end>16662</end>
					<pixelaspectratio>Square</pixelaspectratio>
					<enabled>TRUE</enabled>
					<anamorphic>FALSE</anamorphic>
					<alphatype>none</alphatype>
					<masterclipid>DYR18519_01 1</masterclipid>
					<logginginfo>
						<scene/>
						<shottake/>
						<lognote/>
						<good>FALSE</good>
					</logginginfo>
					<labels>
						<label2/>
					</labels>
					<comments>
						<mastercomment1/>
						<mastercomment2/>
						<mastercomment3/>
						<mastercomment4/>
					</comments>
					<file id="DYR18519_01 2"/>
					<filter>
						<effect>
							<name>Opacity</name>
							<effectid>opacity</effectid>
							<effectcategory>motion</effectcategory>
							<effecttype>motion</effecttype>
							<mediatype>video</mediatype>
							<parameter>
								<parameterid>opacity</parameterid>
								<name>opacity</name>
								<valuemin>0</valuemin>
								<valuemax>100</valuemax>
								<value>100</value>
							</parameter>
						</effect>
					</filter>
					<sourcetrack>
						<mediatype>video</mediatype>
					</sourcetrack>
					<link>
						<linkclipref>DYR18519_01 5</linkclipref>
						<mediatype>video</mediatype>
						<trackindex>1</trackindex>
						<clipindex>120</clipindex>
					</link>
					<link>
						<linkclipref>DYR18519_01 6</linkclipref>
						<mediatype>audio</mediatype>
						<trackindex>1</trackindex>
						<clipindex>126</clipindex>
					</link>
					<link>
						<linkclipref>DYR18519_01 7</linkclipref>
						<mediatype>audio</mediatype>
						<trackindex>2</trackindex>
						<clipindex>130</clipindex>
					</link>
					<fielddominance>upper</fielddominance>
					<itemhistory>
						<uuid>E7F8973D-26BA-4A5E-AE1F-13080452A7EB</uuid>
					</itemhistory>
				</clipitem>
				<clipitem id="DYR18469_01 ">
					<name>DYR18469_01</name>
					<duration>2324</duration>
					<rate>
						<ntsc>FALSE</ntsc>
						<timebase>25</timebase>
					</rate>
					<in>521</in>
					<out>587</out>
					<start>16662</start>
					<end>16728</end>
					<pixelaspectratio>Square</pixelaspectratio>
					<enabled>TRUE</enabled>
					<anamorphic>FALSE</anamorphic>
					<alphatype>none</alphatype>
					<masterclipid>DYR18469_01 1</masterclipid>
					<logginginfo>
						<scene/>
						<shottake/>
						<lognote/>
						<good>FALSE</good>
					</logginginfo>
					<labels>
						<label2/>
					</labels>
					<comments>
						<mastercomment1/>
						<mastercomment2/>
						<mastercomment3/>
						<mastercomment4/>
					</comments>
					<file id="DYR18469_01 2">
						<name>DYR18469_01.mov</name>
						<pathurl>file://localhost/Volumes/Askepott/Prosjekter/DNPR637010_Kra%CC%8Akeklubben_TEM_011212/Video/TORDS%20GARASJE/Insekt/Maur/DYR18469_01.mov</pathurl>
						<rate>
							<timebase>25</timebase>
						</rate>
						<duration>2324</duration>
						<metadata>
							<storage>QuickTime</storage>
							<key>com.sony.bprl.xdcamtransfer.version</key>
							<size>10</size>
							<type>UTF8</type>
							<value>2.12.0.631</value>
						</metadata>
						<metadata>
							<storage>QuickTime</storage>
							<key>org.smpte.mxf.package.material.packageid</key>
							<size>66</size>
							<type>UTF8</type>
							<value>0x060a2b340101010501010d4313000000bc3f7773545405df08004602022f05f5</value>
						</metadata>
						<metadata>
							<storage>QuickTime</storage>
							<key>com.sony.professionaldisc.nonrealtimemeta.lastupdate</key>
							<size>25</size>
							<type>UTF8</type>
							<value>2010-09-15 11:51:03 +0100</value>
						</metadata>
						<metadata>
							<storage>QuickTime</storage>
							<key>com.sony.bprl.mxf.umid</key>
							<size>64</size>
							<type>UTF8</type>
							<value>060a2b340101010501010d4313000000bc3f7773545405df08004602022f05f5</value>
						</metadata>
						<metadata>
							<storage>QuickTime</storage>
							<key>com.sony.bprl.mxf.nrtmetadata</key>
							<size>1994</size>
							<type>UTF8</type>
							<value>&lt;?xml version="1.0" encoding="UTF-8"?>&lt;NonRealTimeMeta xmlns="urn:schemas-professionalDisc:nonRealTimeMeta:ver.1.20" xmlns:lib="urn:schemas-professionalDisc:lib:ver.1.20" xmlns:xsi="http://www.w3.org/2001/XMLSchema-instance" lastUpdate="2010-09-15T11:51:03+01:00">&lt;TargetMaterial umidRef="060A2B340101010501010D4313000000BC3F7773545405DF08004602022F05F5">&lt;/TargetMaterial>&lt;Duration value="2324">&lt;/Duration>&lt;LtcChangeTable tcFps="25" halfStep="false">&lt;LtcChange frameCount="0" value="21203411" status="increment">&lt;/LtcChange>&lt;LtcChange frameCount="2323" value="19533511" status="end">&lt;/LtcChange>&lt;/LtcChangeTable>&lt;CreationDate value="2010-09-15T11:49:29+01:00">&lt;/CreationDate>&lt;TypicalUbit value="0000000017061020">&lt;/TypicalUbit>&lt;BodyUmidBasicChangeTable>&lt;BodyUmidBasicChange frameCount="0" value="060A2B340101010501010D4333000000BC3F7773545405DF08004602022F05F5" status="start">&lt;/BodyUmidBasicChange>&lt;/BodyUmidBasicChangeTable>&lt;BodyUmidWhenChangeTable>&lt;BodyUmidWhenChange frameCount="0" value="C46AB703545405A5" status="increment">&lt;/BodyUmidWhenChange>&lt;BodyUmidWhenChange frameCount="2323" value="84AFB903545405A5" status="end">&lt;/BodyUmidWhenChange>&lt;/BodyUmidWhenChangeTable>&lt;KlvPacketTable>&lt;KlvPacket key="060E2B34010101050301020A02000000" frameCount="0" lengthValue="095F5265635374617274" status="spot">&lt;/KlvPacket>&lt;/KlvPacketTable>&lt;VideoFormat>&lt;VideoRecPort port="DIRECT">&lt;/VideoRecPort>&lt;VideoFrame videoCodec="MPEG2HD35_1920_1080_MP@HL" captureFps="50.00i" recFps="50.00" formatFps="50i">&lt;/VideoFrame>&lt;VideoLayout pixel="1920" numOfVerticalLine="1080" aspectRatio="16:9">&lt;/VideoLayout>&lt;/VideoFormat>&lt;AudioFormat numOfChannel="2">&lt;AudioRecPort port="ANALOG" audioCodec="LPCM16" trackDst="CH1">&lt;/AudioRecPort>&lt;AudioRecPort port="DIRECT" audioCodec="LPCM16" trackDst="CH2">&lt;/AudioRecPort>&lt;/AudioFormat>&lt;Device manufacturer="Sony" modelName="PMW-EX3" serialNo="0401525">&lt;/Device>&lt;Lens modelName="VCL-614B2X">&lt;/Lens>&lt;RecordingMode type="normal" cacheRec="false">&lt;/RecordingMode>&lt;/NonRealTimeMeta>
							</value>
						</metadata>
						<metadata>
							<storage>QuickTime</storage>
							<key>com.apple.proapps.reel</key>
							<size>8</size>
							<type>UTF8</type>
							<value>Untitled</value>
						</metadata>
						<metadata>
							<storage>QuickTime</storage>
							<key>com.apple.proapps.clipID</key>
							<size>64</size>
							<type>UTF8</type>
							<value>060A2B340101010501010D4313000000BC3F7773545405DF08004602022F05F5</value>
						</metadata>
						<metadata>
							<storage>QuickTime</storage>
							<key>com.apple.quicktime.information</key>
							<size>64</size>
							<type>UTF8</type>
							<value>060a2b340101010501010d4313000000bc3f7773545405df08004602022f05f5</value>
						</metadata>
						<metadata>
							<storage>QuickTime</storage>
							<key>com.apple.proapps.originalFormat</key>
							<size>36</size>
							<type>UTF8</type>
							<value>Apple XDCAM EX 1080i50 (35 Mb/s VBR)</value>
						</metadata>
						<timecode>
							<rate>
								<timebase>25</timebase>
							</rate>
							<string>11:34:20:21</string>
							<frame>1041521</frame>
							<displayformat>NDF</displayformat>
							<source>source</source>
							<reel>
								<name>Untitled</name>
							</reel>
						</timecode>
						<media>
							<video>
								<duration>2324</duration>
								<samplecharacteristics>
									<width>1920</width>
									<height>1080</height>
								</samplecharacteristics>
							</video>
							<audio>
								<samplecharacteristics>
									<samplerate>48000</samplerate>
									<depth>16</depth>
								</samplecharacteristics>
								<channelcount>1</channelcount>
								<layout>mono</layout>
								<audiochannel>
									<sourcechannel>1</sourcechannel>
									<channellabel>discrete</channellabel>
								</audiochannel>
							</audio>
							<audio>
								<samplecharacteristics>
									<samplerate>48000</samplerate>
									<depth>16</depth>
								</samplecharacteristics>
								<channelcount>1</channelcount>
								<layout>mono</layout>
								<audiochannel>
									<sourcechannel>2</sourcechannel>
									<channellabel>discrete</channellabel>
								</audiochannel>
							</audio>
						</media>
					</file>
					<sourcetrack>
						<mediatype>video</mediatype>
					</sourcetrack>
					<link>
						<linkclipref>DYR18469_01 </linkclipref>
						<mediatype>video</mediatype>
						<trackindex>1</trackindex>
						<clipindex>121</clipindex>
					</link>
					<link>
						<linkclipref>DYR18469_01 3</linkclipref>
						<mediatype>audio</mediatype>
						<trackindex>1</trackindex>
						<clipindex>127</clipindex>
					</link>
					<link>
						<linkclipref>DYR18469_01 4</linkclipref>
						<mediatype>audio</mediatype>
						<trackindex>2</trackindex>
						<clipindex>131</clipindex>
					</link>
					<fielddominance>upper</fielddominance>
					<itemhistory>
						<uuid>D41BF9F3-437E-4139-9990-ACF1C17C2109</uuid>
					</itemhistory>
				</clipitem>
				<clipitem id="DYR18473_01 ">
					<name>DYR18473_01</name>
					<duration>777</duration>
					<rate>
						<ntsc>FALSE</ntsc>
						<timebase>25</timebase>
					</rate>
					<in>175</in>
					<out>231</out>
					<start>16728</start>
					<end>16784</end>
					<pixelaspectratio>Square</pixelaspectratio>
					<enabled>TRUE</enabled>
					<anamorphic>FALSE</anamorphic>
					<alphatype>none</alphatype>
					<masterclipid>DYR18473_01 1</masterclipid>
					<logginginfo>
						<scene/>
						<shottake/>
						<lognote/>
						<good>FALSE</good>
					</logginginfo>
					<labels>
						<label2/>
					</labels>
					<comments>
						<mastercomment1/>
						<mastercomment2/>
						<mastercomment3/>
						<mastercomment4/>
					</comments>
					<file id="DYR18473_01 2">
						<name>DYR18473_01.mov</name>
						<pathurl>file://localhost/Volumes/Askepott/Prosjekter/DNPR637010_Kra%CC%8Akeklubben_TEM_011212/Video/TORDS%20GARASJE/Insekt/Maur/DYR18473_01.mov</pathurl>
						<rate>
							<timebase>25</timebase>
						</rate>
						<duration>777</duration>
						<metadata>
							<storage>QuickTime</storage>
							<key>com.sony.bprl.xdcamtransfer.version</key>
							<size>10</size>
							<type>UTF8</type>
							<value>2.12.0.631</value>
						</metadata>
						<metadata>
							<storage>QuickTime</storage>
							<key>org.smpte.mxf.package.material.packageid</key>
							<size>66</size>
							<type>UTF8</type>
							<value>0x060a2b340101010501010d4313000000454f7774545405de08004602022f05f5</value>
						</metadata>
						<metadata>
							<storage>QuickTime</storage>
							<key>com.sony.professionaldisc.nonrealtimemeta.lastupdate</key>
							<size>25</size>
							<type>UTF8</type>
							<value>2010-09-15 11:55:39 +0100</value>
						</metadata>
						<metadata>
							<storage>QuickTime</storage>
							<key>com.sony.bprl.mxf.umid</key>
							<size>64</size>
							<type>UTF8</type>
							<value>060a2b340101010501010d4313000000454f7774545405de08004602022f05f5</value>
						</metadata>
						<metadata>
							<storage>QuickTime</storage>
							<key>com.sony.bprl.mxf.nrtmetadata</key>
							<size>1991</size>
							<type>UTF8</type>
							<value>&lt;?xml version="1.0" encoding="UTF-8"?>&lt;NonRealTimeMeta xmlns="urn:schemas-professionalDisc:nonRealTimeMeta:ver.1.20" xmlns:lib="urn:schemas-professionalDisc:lib:ver.1.20" xmlns:xsi="http://www.w3.org/2001/XMLSchema-instance" lastUpdate="2010-09-15T11:55:39+01:00">&lt;TargetMaterial umidRef="060A2B340101010501010D4313000000454F7774545405DE08004602022F05F5">&lt;/TargetMaterial>&lt;Duration value="777">&lt;/Duration>&lt;LtcChangeTable tcFps="25" halfStep="false">&lt;LtcChange frameCount="0" value="10073711" status="increment">&lt;/LtcChange>&lt;LtcChange frameCount="776" value="11383711" status="end">&lt;/LtcChange>&lt;/LtcChangeTable>&lt;CreationDate value="2010-09-15T11:55:07+01:00">&lt;/CreationDate>&lt;TypicalUbit value="0000000017061020">&lt;/TypicalUbit>&lt;BodyUmidBasicChangeTable>&lt;BodyUmidBasicChange frameCount="0" value="060A2B340101010501010D4333000000454F7774545405DE08004602022F05F5" status="start">&lt;/BodyUmidBasicChange>&lt;/BodyUmidBasicChangeTable>&lt;BodyUmidWhenChangeTable>&lt;BodyUmidWhenChange frameCount="0" value="84A8BF03545405A5" status="increment">&lt;/BodyUmidWhenChange>&lt;BodyUmidWhenChange frameCount="776" value="846AC003545405A5" status="end">&lt;/BodyUmidWhenChange>&lt;/BodyUmidWhenChangeTable>&lt;KlvPacketTable>&lt;KlvPacket key="060E2B34010101050301020A02000000" frameCount="0" lengthValue="095F5265635374617274" status="spot">&lt;/KlvPacket>&lt;/KlvPacketTable>&lt;VideoFormat>&lt;VideoRecPort port="DIRECT">&lt;/VideoRecPort>&lt;VideoFrame videoCodec="MPEG2HD35_1920_1080_MP@HL" captureFps="50.00i" recFps="50.00" formatFps="50i">&lt;/VideoFrame>&lt;VideoLayout pixel="1920" numOfVerticalLine="1080" aspectRatio="16:9">&lt;/VideoLayout>&lt;/VideoFormat>&lt;AudioFormat numOfChannel="2">&lt;AudioRecPort port="ANALOG" audioCodec="LPCM16" trackDst="CH1">&lt;/AudioRecPort>&lt;AudioRecPort port="DIRECT" audioCodec="LPCM16" trackDst="CH2">&lt;/AudioRecPort>&lt;/AudioFormat>&lt;Device manufacturer="Sony" modelName="PMW-EX3" serialNo="0401525">&lt;/Device>&lt;Lens modelName="VCL-614B2X">&lt;/Lens>&lt;RecordingMode type="normal" cacheRec="false">&lt;/RecordingMode>&lt;/NonRealTimeMeta>
							</value>
						</metadata>
						<metadata>
							<storage>QuickTime</storage>
							<key>com.apple.proapps.reel</key>
							<size>8</size>
							<type>UTF8</type>
							<value>Untitled</value>
						</metadata>
						<metadata>
							<storage>QuickTime</storage>
							<key>com.apple.proapps.clipID</key>
							<size>64</size>
							<type>UTF8</type>
							<value>060A2B340101010501010D4313000000454F7774545405DE08004602022F05F5</value>
						</metadata>
						<metadata>
							<storage>QuickTime</storage>
							<key>com.apple.quicktime.information</key>
							<size>64</size>
							<type>UTF8</type>
							<value>060a2b340101010501010d4313000000454f7774545405de08004602022f05f5</value>
						</metadata>
						<metadata>
							<storage>QuickTime</storage>
							<key>com.apple.proapps.originalFormat</key>
							<size>36</size>
							<type>UTF8</type>
							<value>Apple XDCAM EX 1080i50 (35 Mb/s VBR)</value>
						</metadata>
						<timecode>
							<rate>
								<timebase>25</timebase>
							</rate>
							<string>11:37:07:10</string>
							<frame>1045685</frame>
							<displayformat>NDF</displayformat>
							<source>source</source>
							<reel>
								<name>Untitled</name>
							</reel>
						</timecode>
						<media>
							<video>
								<duration>777</duration>
								<samplecharacteristics>
									<width>1920</width>
									<height>1080</height>
								</samplecharacteristics>
							</video>
							<audio>
								<samplecharacteristics>
									<samplerate>48000</samplerate>
									<depth>16</depth>
								</samplecharacteristics>
								<channelcount>1</channelcount>
								<layout>mono</layout>
								<audiochannel>
									<sourcechannel>1</sourcechannel>
									<channellabel>discrete</channellabel>
								</audiochannel>
							</audio>
							<audio>
								<samplecharacteristics>
									<samplerate>48000</samplerate>
									<depth>16</depth>
								</samplecharacteristics>
								<channelcount>1</channelcount>
								<layout>mono</layout>
								<audiochannel>
									<sourcechannel>2</sourcechannel>
									<channellabel>discrete</channellabel>
								</audiochannel>
							</audio>
						</media>
					</file>
					<sourcetrack>
						<mediatype>video</mediatype>
					</sourcetrack>
					<link>
						<linkclipref>DYR18473_01 </linkclipref>
						<mediatype>video</mediatype>
						<trackindex>1</trackindex>
						<clipindex>122</clipindex>
					</link>
					<link>
						<linkclipref>DYR18473_01 3</linkclipref>
						<mediatype>audio</mediatype>
						<trackindex>1</trackindex>
						<clipindex>128</clipindex>
					</link>
					<link>
						<linkclipref>DYR18473_01 4</linkclipref>
						<mediatype>audio</mediatype>
						<trackindex>2</trackindex>
						<clipindex>132</clipindex>
					</link>
					<fielddominance>upper</fielddominance>
					<itemhistory>
						<uuid>F4F3955D-E869-4AD6-8BB2-AFE97CB85F5D</uuid>
					</itemhistory>
				</clipitem>
				<clipitem id="MVI_0768 ">
					<name>MVI_0768</name>
					<duration>942</duration>
					<rate>
						<ntsc>FALSE</ntsc>
						<timebase>25</timebase>
					</rate>
					<in>74</in>
					<out>157</out>
					<start>16784</start>
					<end>16867</end>
					<pixelaspectratio>Square</pixelaspectratio>
					<anamorphic>FALSE</anamorphic>
					<alphatype>none</alphatype>
					<masterclipid>MVI_0768 1</masterclipid>
					<logginginfo>
						<scene/>
						<shottake/>
						<lognote/>
						<good>FALSE</good>
					</logginginfo>
					<labels>
						<label2/>
					</labels>
					<comments>
						<mastercomment1/>
						<mastercomment2/>
						<mastercomment3/>
						<mastercomment4/>
					</comments>
					<file id="MVI_0768 2">
						<name>MVI_0768.mov</name>
						<pathurl>file://localhost/Volumes/Askepott/Prosjekter/DNPR637010_Kra%CC%8Akeklubben_TEM_011212/Video/TORDS%20GARASJE/Insekt/Maur/Apple%20ProRes%20422%20HQ/MVI_0768.mov</pathurl>
						<rate>
							<timebase>25</timebase>
						</rate>
						<duration>942</duration>
						<media>
							<video>
								<duration>942</duration>
								<samplecharacteristics>
									<width>1920</width>
									<height>1080</height>
								</samplecharacteristics>
							</video>
						</media>
					</file>
					<sourcetrack>
						<mediatype>video</mediatype>
					</sourcetrack>
					<fielddominance>upper</fielddominance>
					<itemhistory>
						<uuid>B95F761F-FE16-40F2-A868-423D5C9BBFE2</uuid>
					</itemhistory>
				</clipitem>
				<clipitem id="MVI_0793 ">
					<name>MVI_0793</name>
					<duration>596</duration>
					<rate>
						<ntsc>FALSE</ntsc>
						<timebase>25</timebase>
					</rate>
					<in>88</in>
					<out>148</out>
					<start>16867</start>
					<end>16927</end>
					<pixelaspectratio>Square</pixelaspectratio>
					<enabled>TRUE</enabled>
					<anamorphic>FALSE</anamorphic>
					<alphatype>none</alphatype>
					<masterclipid>MVI_0793 1</masterclipid>
					<logginginfo>
						<scene/>
						<shottake/>
						<lognote/>
						<good>FALSE</good>
					</logginginfo>
					<labels>
						<label2/>
					</labels>
					<comments>
						<mastercomment1/>
						<mastercomment2/>
						<mastercomment3/>
						<mastercomment4/>
					</comments>
					<file id="MVI_0793 2">
						<name>MVI_0793.mov</name>
						<pathurl>file://localhost/Volumes/Askepott/Prosjekter/DNPR637010_Kra%CC%8Akeklubben_TEM_011212/Video/TORDS%20GARASJE/Insekt/Maur/Apple%20ProRes%20422%20HQ/MVI_0793.mov</pathurl>
						<rate>
							<timebase>25</timebase>
						</rate>
						<duration>596</duration>
						<media>
							<video>
								<duration>596</duration>
								<samplecharacteristics>
									<width>1920</width>
									<height>1080</height>
								</samplecharacteristics>
							</video>
						</media>
					</file>
					<filter>
						<effect>
							<name>Basic Motion</name>
							<effectid>basic</effectid>
							<effectcategory>motion</effectcategory>
							<effecttype>motion</effecttype>
							<mediatype>video</mediatype>
							<parameter>
								<parameterid>scale</parameterid>
								<name>Scale</name>
								<valuemin>0</valuemin>
								<valuemax>1000</valuemax>
								<keyframe>
									<when>88</when>
									<value>100</value>
								</keyframe>
								<keyframe>
									<when>174</when>
									<value>110</value>
								</keyframe>
								<interpolation>
									<name>FCPCurve</name>
								</interpolation>
								<value>106.977</value>
							</parameter>
							<parameter>
								<parameterid>rotation</parameterid>
								<name>Rotation</name>
								<valuemin>-8640</valuemin>
								<valuemax>8640</valuemax>
								<value>0</value>
							</parameter>
							<parameter>
								<parameterid>center</parameterid>
								<name>Center</name>
								<value>
									<horiz>0</horiz>
									<vert>0</vert>
								</value>
							</parameter>
							<parameter>
								<parameterid>centerOffset</parameterid>
								<name>Anchor Point</name>
								<value>
									<horiz>0</horiz>
									<vert>0</vert>
								</value>
							</parameter>
						</effect>
					</filter>
					<filter>
						<enabled>FALSE</enabled>
						<effect>
							<name>Drop Shadow</name>
							<effectid>dropshadow</effectid>
							<effectcategory>motion</effectcategory>
							<effecttype>motion</effecttype>
							<mediatype>video</mediatype>
							<parameter>
								<parameterid>offset</parameterid>
								<name>offset</name>
								<valuemin>-100</valuemin>
								<valuemax>100</valuemax>
								<value>2</value>
							</parameter>
							<parameter>
								<parameterid>angle</parameterid>
								<name>angle</name>
								<valuemin>-720</valuemin>
								<valuemax>720</valuemax>
								<value>135</value>
							</parameter>
							<parameter>
								<parameterid>color</parameterid>
								<name>color</name>
								<value>
									<alpha>0</alpha>
									<red>0</red>
									<green>0</green>
									<blue>0</blue>
								</value>
							</parameter>
							<parameter>
								<parameterid>softness</parameterid>
								<name>softness</name>
								<valuemin>0</valuemin>
								<valuemax>100</valuemax>
								<value>10</value>
							</parameter>
							<parameter>
								<parameterid>opacity</parameterid>
								<name>opacity</name>
								<valuemin>0</valuemin>
								<valuemax>100</valuemax>
								<value>50</value>
							</parameter>
						</effect>
					</filter>
					<filter>
						<enabled>FALSE</enabled>
						<effect>
							<name>Motion Blur</name>
							<effectid>motionblur</effectid>
							<effectcategory>motion</effectcategory>
							<effecttype>motion</effecttype>
							<mediatype>video</mediatype>
							<parameter>
								<parameterid>duration</parameterid>
								<name>% Blur</name>
								<valuemin>0</valuemin>
								<valuemax>1000</valuemax>
								<value>500</value>
							</parameter>
							<parameter>
								<parameterid>samples</parameterid>
								<name>Samples</name>
								<valuemin>1</valuemin>
								<valuemax>16</valuemax>
								<value>4</value>
							</parameter>
						</effect>
					</filter>
					<filter>
						<effect>
							<name>Crop</name>
							<effectid>crop</effectid>
							<effectcategory>motion</effectcategory>
							<effecttype>motion</effecttype>
							<mediatype>video</mediatype>
							<parameter>
								<parameterid>left</parameterid>
								<name>left</name>
								<valuemin>0</valuemin>
								<valuemax>100</valuemax>
								<value>0</value>
							</parameter>
							<parameter>
								<parameterid>right</parameterid>
								<name>right</name>
								<valuemin>0</valuemin>
								<valuemax>100</valuemax>
								<value>0</value>
							</parameter>
							<parameter>
								<parameterid>top</parameterid>
								<name>top</name>
								<valuemin>0</valuemin>
								<valuemax>100</valuemax>
								<value>0</value>
							</parameter>
							<parameter>
								<parameterid>bottom</parameterid>
								<name>bottom</name>
								<valuemin>0</valuemin>
								<valuemax>100</valuemax>
								<value>0</value>
							</parameter>
							<parameter>
								<parameterid>edgefeather</parameterid>
								<name>edgefeather</name>
								<valuemin>0</valuemin>
								<valuemax>100</valuemax>
								<value>0</value>
							</parameter>
						</effect>
					</filter>
					<filter>
						<effect>
							<name>Distort</name>
							<effectid>deformation</effectid>
							<effectcategory>motion</effectcategory>
							<effecttype>motion</effecttype>
							<mediatype>video</mediatype>
							<parameter>
								<parameterid>ulcorner</parameterid>
								<name>Upper Left</name>
								<value>
									<horiz>-0.5</horiz>
									<vert>-0.5</vert>
								</value>
							</parameter>
							<parameter>
								<parameterid>urcorner</parameterid>
								<name>Upper Right</name>
								<value>
									<horiz>0.5</horiz>
									<vert>-0.5</vert>
								</value>
							</parameter>
							<parameter>
								<parameterid>lrcorner</parameterid>
								<name>Lower Right</name>
								<value>
									<horiz>0.5</horiz>
									<vert>0.5</vert>
								</value>
							</parameter>
							<parameter>
								<parameterid>llcorner</parameterid>
								<name>Lower Left</name>
								<value>
									<horiz>-0.5</horiz>
									<vert>0.5</vert>
								</value>
							</parameter>
							<parameter>
								<parameterid>aspect</parameterid>
								<name>Aspect</name>
								<valuemin>-10000</valuemin>
								<valuemax>10000</valuemax>
								<value>0</value>
							</parameter>
						</effect>
					</filter>
					<filter>
						<effect>
							<name>Opacity</name>
							<effectid>opacity</effectid>
							<effectcategory>motion</effectcategory>
							<effecttype>motion</effecttype>
							<mediatype>video</mediatype>
							<parameter>
								<parameterid>opacity</parameterid>
								<name>opacity</name>
								<valuemin>0</valuemin>
								<valuemax>100</valuemax>
								<value>100</value>
							</parameter>
						</effect>
					</filter>
					<sourcetrack>
						<mediatype>video</mediatype>
					</sourcetrack>
					<fielddominance>upper</fielddominance>
					<itemhistory>
						<uuid>2FEF8D29-7975-4B9C-876A-1757A513055F</uuid>
					</itemhistory>
				</clipitem>
				<clipitem id="MVI_0824 ">
					<name>MVI_0824</name>
					<duration>188</duration>
					<rate>
						<ntsc>FALSE</ntsc>
						<timebase>25</timebase>
					</rate>
					<in>75</in>
					<out>101</out>
					<start>16965</start>
					<end>16991</end>
					<pixelaspectratio>Square</pixelaspectratio>
					<enabled>TRUE</enabled>
					<anamorphic>FALSE</anamorphic>
					<alphatype>none</alphatype>
					<masterclipid>MVI_0824 1</masterclipid>
					<logginginfo>
						<scene/>
						<shottake/>
						<lognote/>
						<good>FALSE</good>
					</logginginfo>
					<labels>
						<label2/>
					</labels>
					<comments>
						<mastercomment1/>
						<mastercomment2/>
						<mastercomment3/>
						<mastercomment4/>
					</comments>
					<file id="MVI_0824 2">
						<name>MVI_0824.mov</name>
						<pathurl>file://localhost/Volumes/Askepott/Prosjekter/DNPR637010_Kra%CC%8Akeklubben_TEM_011212/Video/TORDS%20GARASJE/Insekt/Maur/Apple%20ProRes%20422%20HQ/MVI_0824.mov</pathurl>
						<rate>
							<timebase>25</timebase>
						</rate>
						<duration>188</duration>
						<media>
							<video>
								<duration>188</duration>
								<samplecharacteristics>
									<width>1920</width>
									<height>1080</height>
								</samplecharacteristics>
							</video>
						</media>
					</file>
					<filter>
						<start>-1</start>
						<end>-1</end>
						<effect>
							<name>Flop</name>
							<effectid>Flop</effectid>
							<effectcategory>Perspective</effectcategory>
							<effecttype>filter</effecttype>
							<mediatype>video</mediatype>
							<parameter>
								<parameterid>flop</parameterid>
								<name>Flop</name>
								<valuemin>1</valuemin>
								<valuemax>3</valuemax>
								<valuelist>
									<valueentry>
										<name>Horizontal</name>
										<value>1</value>
									</valueentry>
									<valueentry>
										<name>Vertical</name>
										<value>2</value>
									</valueentry>
									<valueentry>
										<name>Both</name>
										<value>3</value>
									</valueentry>
								</valuelist>
								<value>1</value>
							</parameter>
						</effect>
					</filter>
					<sourcetrack>
						<mediatype>video</mediatype>
					</sourcetrack>
					<fielddominance>upper</fielddominance>
					<itemhistory>
						<uuid>151FE977-4A3C-4259-A302-4D085959A677</uuid>
					</itemhistory>
				</clipitem>
				<clipitem id="DYR18476_01 ">
					<name>DYR18476_01</name>
					<duration>647</duration>
					<rate>
						<ntsc>FALSE</ntsc>
						<timebase>25</timebase>
					</rate>
					<in>324</in>
					<out>468</out>
					<start>16991</start>
					<end>17135</end>
					<pixelaspectratio>Square</pixelaspectratio>
					<enabled>TRUE</enabled>
					<anamorphic>FALSE</anamorphic>
					<alphatype>none</alphatype>
					<masterclipid>DYR18476_01 1</masterclipid>
					<logginginfo>
						<scene/>
						<shottake/>
						<lognote/>
						<good>FALSE</good>
					</logginginfo>
					<labels>
						<label2/>
					</labels>
					<comments>
						<mastercomment1/>
						<mastercomment2/>
						<mastercomment3/>
						<mastercomment4/>
					</comments>
					<file id="DYR18476_01 2">
						<name>DYR18476_01.mov</name>
						<pathurl>file://localhost/Volumes/Askepott/Prosjekter/DNPR637010_Kra%CC%8Akeklubben_TEM_011212/Video/TORDS%20GARASJE/Insekt/Maur/DYR18476_01.mov</pathurl>
						<rate>
							<timebase>25</timebase>
						</rate>
						<duration>647</duration>
						<metadata>
							<storage>QuickTime</storage>
							<key>com.sony.bprl.xdcamtransfer.version</key>
							<size>10</size>
							<type>UTF8</type>
							<value>2.12.0.631</value>
						</metadata>
						<metadata>
							<storage>QuickTime</storage>
							<key>org.smpte.mxf.package.material.packageid</key>
							<size>66</size>
							<type>UTF8</type>
							<value>0x060a2b340101010501010d4313000000411fce75545405dd08004602022f05f5</value>
						</metadata>
						<metadata>
							<storage>QuickTime</storage>
							<key>com.sony.professionaldisc.nonrealtimemeta.lastupdate</key>
							<size>25</size>
							<type>UTF8</type>
							<value>2010-09-15 12:03:05 +0100</value>
						</metadata>
						<metadata>
							<storage>QuickTime</storage>
							<key>com.sony.bprl.mxf.umid</key>
							<size>64</size>
							<type>UTF8</type>
							<value>060a2b340101010501010d4313000000411fce75545405dd08004602022f05f5</value>
						</metadata>
						<metadata>
							<storage>QuickTime</storage>
							<key>com.sony.bprl.mxf.nrtmetadata</key>
							<size>1991</size>
							<type>UTF8</type>
							<value>&lt;?xml version="1.0" encoding="UTF-8"?>&lt;NonRealTimeMeta xmlns="urn:schemas-professionalDisc:nonRealTimeMeta:ver.1.20" xmlns:lib="urn:schemas-professionalDisc:lib:ver.1.20" xmlns:xsi="http://www.w3.org/2001/XMLSchema-instance" lastUpdate="2010-09-15T12:03:05+01:00">&lt;TargetMaterial umidRef="060A2B340101010501010D4313000000411FCE75545405DD08004602022F05F5">&lt;/TargetMaterial>&lt;Duration value="647">&lt;/Duration>&lt;LtcChangeTable tcFps="25" halfStep="false">&lt;LtcChange frameCount="0" value="07443811" status="increment">&lt;/LtcChange>&lt;LtcChange frameCount="646" value="03103911" status="end">&lt;/LtcChange>&lt;/LtcChangeTable>&lt;CreationDate value="2010-09-15T12:02:39+01:00">&lt;/CreationDate>&lt;TypicalUbit value="0000000017061020">&lt;/TypicalUbit>&lt;BodyUmidBasicChangeTable>&lt;BodyUmidBasicChange frameCount="0" value="060A2B340101010501010D4333000000411FCE75545405DD08004602022F05F5" status="start">&lt;/BodyUmidBasicChange>&lt;/BodyUmidBasicChangeTable>&lt;BodyUmidWhenChangeTable>&lt;BodyUmidWhenChange frameCount="0" value="44B1CA03545405A5" status="increment">&lt;/BodyUmidWhenChange>&lt;BodyUmidWhenChange frameCount="646" value="C452CB03545405A5" status="end">&lt;/BodyUmidWhenChange>&lt;/BodyUmidWhenChangeTable>&lt;KlvPacketTable>&lt;KlvPacket key="060E2B34010101050301020A02000000" frameCount="0" lengthValue="095F5265635374617274" status="spot">&lt;/KlvPacket>&lt;/KlvPacketTable>&lt;VideoFormat>&lt;VideoRecPort port="DIRECT">&lt;/VideoRecPort>&lt;VideoFrame videoCodec="MPEG2HD35_1920_1080_MP@HL" captureFps="50.00i" recFps="50.00" formatFps="50i">&lt;/VideoFrame>&lt;VideoLayout pixel="1920" numOfVerticalLine="1080" aspectRatio="16:9">&lt;/VideoLayout>&lt;/VideoFormat>&lt;AudioFormat numOfChannel="2">&lt;AudioRecPort port="ANALOG" audioCodec="LPCM16" trackDst="CH1">&lt;/AudioRecPort>&lt;AudioRecPort port="DIRECT" audioCodec="LPCM16" trackDst="CH2">&lt;/AudioRecPort>&lt;/AudioFormat>&lt;Device manufacturer="Sony" modelName="PMW-EX3" serialNo="0401525">&lt;/Device>&lt;Lens modelName="VCL-614B2X">&lt;/Lens>&lt;RecordingMode type="normal" cacheRec="false">&lt;/RecordingMode>&lt;/NonRealTimeMeta>
							</value>
						</metadata>
						<metadata>
							<storage>QuickTime</storage>
							<key>com.apple.proapps.reel</key>
							<size>8</size>
							<type>UTF8</type>
							<value>Untitled</value>
						</metadata>
						<metadata>
							<storage>QuickTime</storage>
							<key>com.apple.proapps.clipID</key>
							<size>64</size>
							<type>UTF8</type>
							<value>060A2B340101010501010D4313000000411FCE75545405DD08004602022F05F5</value>
						</metadata>
						<metadata>
							<storage>QuickTime</storage>
							<key>com.apple.quicktime.information</key>
							<size>64</size>
							<type>UTF8</type>
							<value>060a2b340101010501010d4313000000411fce75545405dd08004602022f05f5</value>
						</metadata>
						<metadata>
							<storage>QuickTime</storage>
							<key>com.apple.proapps.originalFormat</key>
							<size>36</size>
							<type>UTF8</type>
							<value>Apple XDCAM EX 1080i50 (35 Mb/s VBR)</value>
						</metadata>
						<timecode>
							<rate>
								<timebase>25</timebase>
							</rate>
							<string>11:38:44:07</string>
							<frame>1048107</frame>
							<displayformat>NDF</displayformat>
							<source>source</source>
							<reel>
								<name>Untitled</name>
							</reel>
						</timecode>
						<media>
							<video>
								<duration>647</duration>
								<samplecharacteristics>
									<width>1920</width>
									<height>1080</height>
								</samplecharacteristics>
							</video>
							<audio>
								<samplecharacteristics>
									<samplerate>48000</samplerate>
									<depth>16</depth>
								</samplecharacteristics>
								<channelcount>1</channelcount>
								<layout>mono</layout>
								<audiochannel>
									<sourcechannel>1</sourcechannel>
									<channellabel>discrete</channellabel>
								</audiochannel>
							</audio>
							<audio>
								<samplecharacteristics>
									<samplerate>48000</samplerate>
									<depth>16</depth>
								</samplecharacteristics>
								<channelcount>1</channelcount>
								<layout>mono</layout>
								<audiochannel>
									<sourcechannel>2</sourcechannel>
									<channellabel>discrete</channellabel>
								</audiochannel>
							</audio>
						</media>
					</file>
					<sourcetrack>
						<mediatype>video</mediatype>
					</sourcetrack>
					<link>
						<linkclipref>DYR18476_01 </linkclipref>
						<mediatype>video</mediatype>
						<trackindex>1</trackindex>
						<clipindex>126</clipindex>
					</link>
					<link>
						<linkclipref>DYR18476_01 3</linkclipref>
						<mediatype>audio</mediatype>
						<trackindex>1</trackindex>
						<clipindex>129</clipindex>
					</link>
					<link>
						<linkclipref>DYR18476_01 4</linkclipref>
						<mediatype>audio</mediatype>
						<trackindex>2</trackindex>
						<clipindex>133</clipindex>
					</link>
					<fielddominance>upper</fielddominance>
					<itemhistory>
						<uuid>5D74002D-94CB-4F63-8745-52DE35FFB948</uuid>
					</itemhistory>
				</clipitem>
				<clipitem id="DYR18478_01 ">
					<name>DYR18478_01</name>
					<duration>863</duration>
					<rate>
						<ntsc>FALSE</ntsc>
						<timebase>25</timebase>
					</rate>
					<in>442</in>
					<out>501</out>
					<start>17181</start>
					<end>17240</end>
					<pixelaspectratio>Square</pixelaspectratio>
					<enabled>TRUE</enabled>
					<anamorphic>FALSE</anamorphic>
					<alphatype>none</alphatype>
					<masterclipid>DYR18478_01 1</masterclipid>
					<logginginfo>
						<scene/>
						<shottake/>
						<lognote/>
						<good>FALSE</good>
					</logginginfo>
					<labels>
						<label2/>
					</labels>
					<comments>
						<mastercomment1/>
						<mastercomment2/>
						<mastercomment3/>
						<mastercomment4/>
					</comments>
					<file id="DYR18478_01 2">
						<name>DYR18478_01.mov</name>
						<pathurl>file://localhost/Volumes/Askepott/Prosjekter/DNPR637010_Kra%CC%8Akeklubben_TEM_011212/Video/TORDS%20GARASJE/Insekt/Maur/DYR18478_01.mov</pathurl>
						<rate>
							<timebase>25</timebase>
						</rate>
						<duration>863</duration>
						<metadata>
							<storage>QuickTime</storage>
							<key>com.sony.bprl.xdcamtransfer.version</key>
							<size>10</size>
							<type>UTF8</type>
							<value>2.12.0.631</value>
						</metadata>
						<metadata>
							<storage>QuickTime</storage>
							<key>org.smpte.mxf.package.material.packageid</key>
							<size>66</size>
							<type>UTF8</type>
							<value>0x060a2b340101010501010d43130000007b3b0d76545405cf08004602022f05f5</value>
						</metadata>
						<metadata>
							<storage>QuickTime</storage>
							<key>com.sony.professionaldisc.nonrealtimemeta.lastupdate</key>
							<size>25</size>
							<type>UTF8</type>
							<value>2010-09-15 12:04:37 +0100</value>
						</metadata>
						<metadata>
							<storage>QuickTime</storage>
							<key>com.sony.bprl.mxf.umid</key>
							<size>64</size>
							<type>UTF8</type>
							<value>060a2b340101010501010d43130000007b3b0d76545405cf08004602022f05f5</value>
						</metadata>
						<metadata>
							<storage>QuickTime</storage>
							<key>com.sony.bprl.mxf.nrtmetadata</key>
							<size>1991</size>
							<type>UTF8</type>
							<value>&lt;?xml version="1.0" encoding="UTF-8"?>&lt;NonRealTimeMeta xmlns="urn:schemas-professionalDisc:nonRealTimeMeta:ver.1.20" xmlns:lib="urn:schemas-professionalDisc:lib:ver.1.20" xmlns:xsi="http://www.w3.org/2001/XMLSchema-instance" lastUpdate="2010-09-15T12:04:37+01:00">&lt;TargetMaterial umidRef="060A2B340101010501010D43130000007B3B0D76545405CF08004602022F05F5">&lt;/TargetMaterial>&lt;Duration value="863">&lt;/Duration>&lt;LtcChangeTable tcFps="25" halfStep="false">&lt;LtcChange frameCount="0" value="22263911" status="increment">&lt;/LtcChange>&lt;LtcChange frameCount="862" value="09014011" status="end">&lt;/LtcChange>&lt;/LtcChangeTable>&lt;CreationDate value="2010-09-15T12:04:02+01:00">&lt;/CreationDate>&lt;TypicalUbit value="0000000017061020">&lt;/TypicalUbit>&lt;BodyUmidBasicChangeTable>&lt;BodyUmidBasicChange frameCount="0" value="060A2B340101010501010D43330000007B3B0D76545405CF08004602022F05F5" status="start">&lt;/BodyUmidBasicChange>&lt;/BodyUmidBasicChangeTable>&lt;BodyUmidWhenChangeTable>&lt;BodyUmidWhenChange frameCount="0" value="44B9CC03545405A5" status="increment">&lt;/BodyUmidWhenChange>&lt;BodyUmidWhenChange frameCount="862" value="C490CD03545405A5" status="end">&lt;/BodyUmidWhenChange>&lt;/BodyUmidWhenChangeTable>&lt;KlvPacketTable>&lt;KlvPacket key="060E2B34010101050301020A02000000" frameCount="0" lengthValue="095F5265635374617274" status="spot">&lt;/KlvPacket>&lt;/KlvPacketTable>&lt;VideoFormat>&lt;VideoRecPort port="DIRECT">&lt;/VideoRecPort>&lt;VideoFrame videoCodec="MPEG2HD35_1920_1080_MP@HL" captureFps="50.00i" recFps="50.00" formatFps="50i">&lt;/VideoFrame>&lt;VideoLayout pixel="1920" numOfVerticalLine="1080" aspectRatio="16:9">&lt;/VideoLayout>&lt;/VideoFormat>&lt;AudioFormat numOfChannel="2">&lt;AudioRecPort port="ANALOG" audioCodec="LPCM16" trackDst="CH1">&lt;/AudioRecPort>&lt;AudioRecPort port="DIRECT" audioCodec="LPCM16" trackDst="CH2">&lt;/AudioRecPort>&lt;/AudioFormat>&lt;Device manufacturer="Sony" modelName="PMW-EX3" serialNo="0401525">&lt;/Device>&lt;Lens modelName="VCL-614B2X">&lt;/Lens>&lt;RecordingMode type="normal" cacheRec="false">&lt;/RecordingMode>&lt;/NonRealTimeMeta>
							</value>
						</metadata>
						<metadata>
							<storage>QuickTime</storage>
							<key>com.apple.proapps.reel</key>
							<size>8</size>
							<type>UTF8</type>
							<value>Untitled</value>
						</metadata>
						<metadata>
							<storage>QuickTime</storage>
							<key>com.apple.proapps.clipID</key>
							<size>64</size>
							<type>UTF8</type>
							<value>060A2B340101010501010D43130000007B3B0D76545405CF08004602022F05F5</value>
						</metadata>
						<metadata>
							<storage>QuickTime</storage>
							<key>com.apple.quicktime.information</key>
							<size>64</size>
							<type>UTF8</type>
							<value>060a2b340101010501010d43130000007b3b0d76545405cf08004602022f05f5</value>
						</metadata>
						<metadata>
							<storage>QuickTime</storage>
							<key>com.apple.proapps.originalFormat</key>
							<size>36</size>
							<type>UTF8</type>
							<value>Apple XDCAM EX 1080i50 (35 Mb/s VBR)</value>
						</metadata>
						<timecode>
							<rate>
								<timebase>25</timebase>
							</rate>
							<string>11:39:26:22</string>
							<frame>1049172</frame>
							<displayformat>NDF</displayformat>
							<source>source</source>
							<reel>
								<name>Untitled</name>
							</reel>
						</timecode>
						<media>
							<video>
								<duration>863</duration>
								<samplecharacteristics>
									<width>1920</width>
									<height>1080</height>
								</samplecharacteristics>
							</video>
							<audio>
								<samplecharacteristics>
									<samplerate>48000</samplerate>
									<depth>16</depth>
								</samplecharacteristics>
								<channelcount>1</channelcount>
								<layout>mono</layout>
								<audiochannel>
									<sourcechannel>1</sourcechannel>
									<channellabel>discrete</channellabel>
								</audiochannel>
							</audio>
							<audio>
								<samplecharacteristics>
									<samplerate>48000</samplerate>
									<depth>16</depth>
								</samplecharacteristics>
								<channelcount>1</channelcount>
								<layout>mono</layout>
								<audiochannel>
									<sourcechannel>2</sourcechannel>
									<channellabel>discrete</channellabel>
								</audiochannel>
							</audio>
						</media>
					</file>
					<sourcetrack>
						<mediatype>video</mediatype>
					</sourcetrack>
					<link>
						<linkclipref>DYR18478_01 </linkclipref>
						<mediatype>video</mediatype>
						<trackindex>1</trackindex>
						<clipindex>127</clipindex>
					</link>
					<link>
						<linkclipref>DYR18478_01 3</linkclipref>
						<mediatype>audio</mediatype>
						<trackindex>1</trackindex>
						<clipindex>130</clipindex>
					</link>
					<link>
						<linkclipref>DYR18478_01 4</linkclipref>
						<mediatype>audio</mediatype>
						<trackindex>2</trackindex>
						<clipindex>134</clipindex>
					</link>
					<fielddominance>upper</fielddominance>
					<itemhistory>
						<uuid>FE7ABE68-F482-422B-8DF5-CDAAE0039575</uuid>
					</itemhistory>
				</clipitem>
				<clipitem id="DYR18481_01 ">
					<name>DYR18481_01</name>
					<duration>1131</duration>
					<rate>
						<ntsc>FALSE</ntsc>
						<timebase>25</timebase>
					</rate>
					<in>697</in>
					<out>772</out>
					<start>17240</start>
					<end>17315</end>
					<pixelaspectratio>Square</pixelaspectratio>
					<enabled>TRUE</enabled>
					<anamorphic>FALSE</anamorphic>
					<alphatype>none</alphatype>
					<masterclipid>DYR18481_01 1</masterclipid>
					<logginginfo>
						<scene/>
						<shottake/>
						<lognote/>
						<good>FALSE</good>
					</logginginfo>
					<labels>
						<label2/>
					</labels>
					<comments>
						<mastercomment1/>
						<mastercomment2/>
						<mastercomment3/>
						<mastercomment4/>
					</comments>
					<file id="DYR18481_01 2">
						<name>DYR18481_01.mov</name>
						<pathurl>file://localhost/Volumes/Askepott/Prosjekter/DNPR637010_Kra%CC%8Akeklubben_TEM_011212/Video/TORDS%20GARASJE/Insekt/Maur/DYR18481_01.mov</pathurl>
						<rate>
							<timebase>25</timebase>
						</rate>
						<duration>1131</duration>
						<metadata>
							<storage>QuickTime</storage>
							<key>com.sony.bprl.xdcamtransfer.version</key>
							<size>10</size>
							<type>UTF8</type>
							<value>2.12.0.631</value>
						</metadata>
						<metadata>
							<storage>QuickTime</storage>
							<key>org.smpte.mxf.package.material.packageid</key>
							<size>66</size>
							<type>UTF8</type>
							<value>0x060a2b340101010501010d43130000000423a676545405dd08004602022f05f5</value>
						</metadata>
						<metadata>
							<storage>QuickTime</storage>
							<key>com.sony.professionaldisc.nonrealtimemeta.lastupdate</key>
							<size>25</size>
							<type>UTF8</type>
							<value>2010-09-15 12:08:10 +0100</value>
						</metadata>
						<metadata>
							<storage>QuickTime</storage>
							<key>com.sony.bprl.mxf.umid</key>
							<size>64</size>
							<type>UTF8</type>
							<value>060a2b340101010501010d43130000000423a676545405dd08004602022f05f5</value>
						</metadata>
						<metadata>
							<storage>QuickTime</storage>
							<key>com.sony.bprl.mxf.nrtmetadata</key>
							<size>1994</size>
							<type>UTF8</type>
							<value>&lt;?xml version="1.0" encoding="UTF-8"?>&lt;NonRealTimeMeta xmlns="urn:schemas-professionalDisc:nonRealTimeMeta:ver.1.20" xmlns:lib="urn:schemas-professionalDisc:lib:ver.1.20" xmlns:xsi="http://www.w3.org/2001/XMLSchema-instance" lastUpdate="2010-09-15T12:08:10+01:00">&lt;TargetMaterial umidRef="060A2B340101010501010D43130000000423A676545405DD08004602022F05F5">&lt;/TargetMaterial>&lt;Duration value="1131">&lt;/Duration>&lt;LtcChangeTable tcFps="25" halfStep="false">&lt;LtcChange frameCount="0" value="06214111" status="increment">&lt;/LtcChange>&lt;LtcChange frameCount="1130" value="11064211" status="end">&lt;/LtcChange>&lt;/LtcChangeTable>&lt;CreationDate value="2010-09-15T12:07:24+01:00">&lt;/CreationDate>&lt;TypicalUbit value="0000000017061020">&lt;/TypicalUbit>&lt;BodyUmidBasicChangeTable>&lt;BodyUmidBasicChange frameCount="0" value="060A2B340101010501010D43330000000423A676545405DD08004602022F05F5" status="start">&lt;/BodyUmidBasicChange>&lt;/BodyUmidBasicChangeTable>&lt;BodyUmidWhenChangeTable>&lt;BodyUmidWhenChange frameCount="0" value="44A5D103545405A5" status="increment">&lt;/BodyUmidWhenChange>&lt;BodyUmidWhenChange frameCount="1130" value="C4BFD203545405A5" status="end">&lt;/BodyUmidWhenChange>&lt;/BodyUmidWhenChangeTable>&lt;KlvPacketTable>&lt;KlvPacket key="060E2B34010101050301020A02000000" frameCount="0" lengthValue="095F5265635374617274" status="spot">&lt;/KlvPacket>&lt;/KlvPacketTable>&lt;VideoFormat>&lt;VideoRecPort port="DIRECT">&lt;/VideoRecPort>&lt;VideoFrame videoCodec="MPEG2HD35_1920_1080_MP@HL" captureFps="50.00i" recFps="50.00" formatFps="50i">&lt;/VideoFrame>&lt;VideoLayout pixel="1920" numOfVerticalLine="1080" aspectRatio="16:9">&lt;/VideoLayout>&lt;/VideoFormat>&lt;AudioFormat numOfChannel="2">&lt;AudioRecPort port="ANALOG" audioCodec="LPCM16" trackDst="CH1">&lt;/AudioRecPort>&lt;AudioRecPort port="DIRECT" audioCodec="LPCM16" trackDst="CH2">&lt;/AudioRecPort>&lt;/AudioFormat>&lt;Device manufacturer="Sony" modelName="PMW-EX3" serialNo="0401525">&lt;/Device>&lt;Lens modelName="VCL-614B2X">&lt;/Lens>&lt;RecordingMode type="normal" cacheRec="false">&lt;/RecordingMode>&lt;/NonRealTimeMeta>
							</value>
						</metadata>
						<metadata>
							<storage>QuickTime</storage>
							<key>com.apple.proapps.reel</key>
							<size>8</size>
							<type>UTF8</type>
							<value>Untitled</value>
						</metadata>
						<metadata>
							<storage>QuickTime</storage>
							<key>com.apple.proapps.clipID</key>
							<size>64</size>
							<type>UTF8</type>
							<value>060A2B340101010501010D43130000000423A676545405DD08004602022F05F5</value>
						</metadata>
						<metadata>
							<storage>QuickTime</storage>
							<key>com.apple.quicktime.information</key>
							<size>64</size>
							<type>UTF8</type>
							<value>060a2b340101010501010d43130000000423a676545405dd08004602022f05f5</value>
						</metadata>
						<metadata>
							<storage>QuickTime</storage>
							<key>com.apple.proapps.originalFormat</key>
							<size>36</size>
							<type>UTF8</type>
							<value>Apple XDCAM EX 1080i50 (35 Mb/s VBR)</value>
						</metadata>
						<timecode>
							<rate>
								<timebase>25</timebase>
							</rate>
							<string>11:41:21:06</string>
							<frame>1052031</frame>
							<displayformat>NDF</displayformat>
							<source>source</source>
							<reel>
								<name>Untitled</name>
							</reel>
						</timecode>
						<media>
							<video>
								<duration>1131</duration>
								<samplecharacteristics>
									<width>1920</width>
									<height>1080</height>
								</samplecharacteristics>
							</video>
							<audio>
								<samplecharacteristics>
									<samplerate>48000</samplerate>
									<depth>16</depth>
								</samplecharacteristics>
								<channelcount>1</channelcount>
								<layout>mono</layout>
								<audiochannel>
									<sourcechannel>1</sourcechannel>
									<channellabel>discrete</channellabel>
								</audiochannel>
							</audio>
							<audio>
								<samplecharacteristics>
									<samplerate>48000</samplerate>
									<depth>16</depth>
								</samplecharacteristics>
								<channelcount>1</channelcount>
								<layout>mono</layout>
								<audiochannel>
									<sourcechannel>2</sourcechannel>
									<channellabel>discrete</channellabel>
								</audiochannel>
							</audio>
						</media>
					</file>
					<filter>
						<enabled>TRUE</enabled>
						<start>-1</start>
						<end>-1</end>
						<effect>
							<name>G Simple Curves +20 white curve</name>
							<effectcategory>Nattress Big Box of Tricks - Levels and Curves</effectcategory>
							<effecttype>filter</effecttype>
							<mediatype>video</mediatype>
							<parameter>
								<parameterid>colourspace</parameterid>
								<name>Colour Space</name>
								<valuemin>1</valuemin>
								<valuemax>2</valuemax>
								<valuelist>
									<valueentry>
										<name>RGB</name>
										<value>1</value>
									</valueentry>
									<valueentry>
										<name>Y'CbCr</name>
										<value>2</value>
									</valueentry>
								</valuelist>
								<value>2</value>
							</parameter>
							<parameter>
								<parameterid>showcurves</parameterid>
								<name>Show Curves</name>
								<value>FALSE</value>
							</parameter>
							<parameter>
								<parameterid>lvar</parameterid>
								<name>Levels Controls</name>
								<value>string</value>
							</parameter>
							<parameter>
								<parameterid>inw</parameterid>
								<name>White Level</name>
								<valuemin>0</valuemin>
								<valuemax>255</valuemax>
								<value>255</value>
							</parameter>
							<parameter>
								<parameterid>inb</parameterid>
								<name>Black Level</name>
								<valuemin>0</valuemin>
								<valuemax>255</valuemax>
								<value>0</value>
							</parameter>
							<parameter>
								<parameterid>outw</parameterid>
								<name>White Output</name>
								<valuemin>0</valuemin>
								<valuemax>255</valuemax>
								<value>255</value>
							</parameter>
							<parameter>
								<parameterid>outb</parameterid>
								<name>Black Output</name>
								<valuemin>0</valuemin>
								<valuemax>255</valuemax>
								<value>0</value>
							</parameter>
							<parameter>
								<parameterid>cvar</parameterid>
								<name>Curves Controls</name>
								<value>string</value>
							</parameter>
							<parameter>
								<parameterid>curvew</parameterid>
								<name>White Curve</name>
								<valuemin>-100</valuemin>
								<valuemax>100</valuemax>
								<value>15</value>
							</parameter>
							<parameter>
								<parameterid>curveb</parameterid>
								<name>Black Curve</name>
								<valuemin>-100</valuemin>
								<valuemax>100</valuemax>
								<value>0</value>
							</parameter>
							<parameter>
								<parameterid>clipoutput</parameterid>
								<name>Clip Output Levels</name>
								<value>TRUE</value>
							</parameter>
							<parameter>
								<parameterid>copyright</parameterid>
								<name>© www.nattress.com</name>
								<value>string</value>
							</parameter>
						</effect>
					</filter>
					<filter>
						<effect>
							<name>Basic Motion</name>
							<effectid>basic</effectid>
							<effectcategory>motion</effectcategory>
							<effecttype>motion</effecttype>
							<mediatype>video</mediatype>
							<parameter>
								<parameterid>scale</parameterid>
								<name>Scale</name>
								<valuemin>0</valuemin>
								<valuemax>1000</valuemax>
								<value>100</value>
							</parameter>
							<parameter>
								<parameterid>rotation</parameterid>
								<name>Rotation</name>
								<valuemin>-8640</valuemin>
								<valuemax>8640</valuemax>
								<value>0</value>
							</parameter>
							<parameter>
								<parameterid>center</parameterid>
								<name>Center</name>
								<value>
									<horiz>0</horiz>
									<vert>0</vert>
								</value>
							</parameter>
							<parameter>
								<parameterid>centerOffset</parameterid>
								<name>Anchor Point</name>
								<value>
									<horiz>0</horiz>
									<vert>0</vert>
								</value>
							</parameter>
						</effect>
					</filter>
					<filter>
						<enabled>FALSE</enabled>
						<effect>
							<name>Drop Shadow</name>
							<effectid>dropshadow</effectid>
							<effectcategory>motion</effectcategory>
							<effecttype>motion</effecttype>
							<mediatype>video</mediatype>
							<parameter>
								<parameterid>offset</parameterid>
								<name>offset</name>
								<valuemin>-100</valuemin>
								<valuemax>100</valuemax>
								<value>2</value>
							</parameter>
							<parameter>
								<parameterid>angle</parameterid>
								<name>angle</name>
								<valuemin>-720</valuemin>
								<valuemax>720</valuemax>
								<value>135</value>
							</parameter>
							<parameter>
								<parameterid>color</parameterid>
								<name>color</name>
								<value>
									<alpha>0</alpha>
									<red>0</red>
									<green>0</green>
									<blue>0</blue>
								</value>
							</parameter>
							<parameter>
								<parameterid>softness</parameterid>
								<name>softness</name>
								<valuemin>0</valuemin>
								<valuemax>100</valuemax>
								<value>10</value>
							</parameter>
							<parameter>
								<parameterid>opacity</parameterid>
								<name>opacity</name>
								<valuemin>0</valuemin>
								<valuemax>100</valuemax>
								<value>50</value>
							</parameter>
						</effect>
					</filter>
					<filter>
						<enabled>FALSE</enabled>
						<effect>
							<name>Motion Blur</name>
							<effectid>motionblur</effectid>
							<effectcategory>motion</effectcategory>
							<effecttype>motion</effecttype>
							<mediatype>video</mediatype>
							<parameter>
								<parameterid>duration</parameterid>
								<name>% Blur</name>
								<valuemin>0</valuemin>
								<valuemax>1000</valuemax>
								<value>500</value>
							</parameter>
							<parameter>
								<parameterid>samples</parameterid>
								<name>Samples</name>
								<valuemin>1</valuemin>
								<valuemax>16</valuemax>
								<value>4</value>
							</parameter>
						</effect>
					</filter>
					<filter>
						<effect>
							<name>Crop</name>
							<effectid>crop</effectid>
							<effectcategory>motion</effectcategory>
							<effecttype>motion</effecttype>
							<mediatype>video</mediatype>
							<parameter>
								<parameterid>left</parameterid>
								<name>left</name>
								<valuemin>0</valuemin>
								<valuemax>100</valuemax>
								<value>0</value>
							</parameter>
							<parameter>
								<parameterid>right</parameterid>
								<name>right</name>
								<valuemin>0</valuemin>
								<valuemax>100</valuemax>
								<value>0</value>
							</parameter>
							<parameter>
								<parameterid>top</parameterid>
								<name>top</name>
								<valuemin>0</valuemin>
								<valuemax>100</valuemax>
								<value>0</value>
							</parameter>
							<parameter>
								<parameterid>bottom</parameterid>
								<name>bottom</name>
								<valuemin>0</valuemin>
								<valuemax>100</valuemax>
								<value>0</value>
							</parameter>
							<parameter>
								<parameterid>edgefeather</parameterid>
								<name>edgefeather</name>
								<valuemin>0</valuemin>
								<valuemax>100</valuemax>
								<value>0</value>
							</parameter>
						</effect>
					</filter>
					<filter>
						<effect>
							<name>Distort</name>
							<effectid>deformation</effectid>
							<effectcategory>motion</effectcategory>
							<effecttype>motion</effecttype>
							<mediatype>video</mediatype>
							<parameter>
								<parameterid>ulcorner</parameterid>
								<name>Upper Left</name>
								<value>
									<horiz>-0.5</horiz>
									<vert>-0.5</vert>
								</value>
							</parameter>
							<parameter>
								<parameterid>urcorner</parameterid>
								<name>Upper Right</name>
								<value>
									<horiz>0.5</horiz>
									<vert>-0.5</vert>
								</value>
							</parameter>
							<parameter>
								<parameterid>lrcorner</parameterid>
								<name>Lower Right</name>
								<value>
									<horiz>0.5</horiz>
									<vert>0.5</vert>
								</value>
							</parameter>
							<parameter>
								<parameterid>llcorner</parameterid>
								<name>Lower Left</name>
								<value>
									<horiz>-0.5</horiz>
									<vert>0.5</vert>
								</value>
							</parameter>
							<parameter>
								<parameterid>aspect</parameterid>
								<name>Aspect</name>
								<valuemin>-10000</valuemin>
								<valuemax>10000</valuemax>
								<value>0</value>
							</parameter>
						</effect>
					</filter>
					<filter>
						<effect>
							<name>Opacity</name>
							<effectid>opacity</effectid>
							<effectcategory>motion</effectcategory>
							<effecttype>motion</effecttype>
							<mediatype>video</mediatype>
							<parameter>
								<parameterid>opacity</parameterid>
								<name>opacity</name>
								<valuemin>0</valuemin>
								<valuemax>100</valuemax>
								<value>100</value>
							</parameter>
						</effect>
					</filter>
					<sourcetrack>
						<mediatype>video</mediatype>
					</sourcetrack>
					<link>
						<linkclipref>DYR18481_01 </linkclipref>
						<mediatype>video</mediatype>
						<trackindex>1</trackindex>
						<clipindex>128</clipindex>
					</link>
					<link>
						<linkclipref>DYR18481_01 3</linkclipref>
						<mediatype>audio</mediatype>
						<trackindex>1</trackindex>
						<clipindex>131</clipindex>
					</link>
					<link>
						<linkclipref>DYR18481_01 4</linkclipref>
						<mediatype>audio</mediatype>
						<trackindex>2</trackindex>
						<clipindex>135</clipindex>
					</link>
					<fielddominance>upper</fielddominance>
					<itemhistory>
						<uuid>1A5C398C-792C-4295-ACF9-4F35A311CA6D</uuid>
					</itemhistory>
				</clipitem>
				<clipitem id="MVI_0813 ">
					<name>MVI_0813</name>
					<duration>638</duration>
					<rate>
						<ntsc>FALSE</ntsc>
						<timebase>25</timebase>
					</rate>
					<in>265</in>
					<out>375</out>
					<start>17315</start>
					<end>17425</end>
					<pixelaspectratio>Square</pixelaspectratio>
					<anamorphic>FALSE</anamorphic>
					<alphatype>none</alphatype>
					<masterclipid>MVI_0813 1</masterclipid>
					<logginginfo>
						<scene/>
						<shottake/>
						<lognote/>
						<good>FALSE</good>
					</logginginfo>
					<labels>
						<label2/>
					</labels>
					<comments>
						<mastercomment1/>
						<mastercomment2/>
						<mastercomment3/>
						<mastercomment4/>
					</comments>
					<file id="MVI_0813 2">
						<name>MVI_0813.mov</name>
						<pathurl>file://localhost/Volumes/Askepott/Prosjekter/DNPR637010_Kra%CC%8Akeklubben_TEM_011212/Video/TORDS%20GARASJE/Insekt/Maur/Apple%20ProRes%20422%20HQ/MVI_0813.mov</pathurl>
						<rate>
							<timebase>25</timebase>
						</rate>
						<duration>638</duration>
						<media>
							<video>
								<duration>638</duration>
								<samplecharacteristics>
									<width>1920</width>
									<height>1080</height>
								</samplecharacteristics>
							</video>
						</media>
					</file>
					<filter>
						<start>-1</start>
						<end>-1</end>
						<effect>
							<name>G Simple Curves +20 white curve</name>
							<effectcategory>Nattress Big Box of Tricks - Levels and Curves</effectcategory>
							<effecttype>filter</effecttype>
							<mediatype>video</mediatype>
							<parameter>
								<parameterid>colourspace</parameterid>
								<name>Colour Space</name>
								<valuemin>1</valuemin>
								<valuemax>2</valuemax>
								<valuelist>
									<valueentry>
										<name>RGB</name>
										<value>1</value>
									</valueentry>
									<valueentry>
										<name>Y'CbCr</name>
										<value>2</value>
									</valueentry>
								</valuelist>
								<value>2</value>
							</parameter>
							<parameter>
								<parameterid>showcurves</parameterid>
								<name>Show Curves</name>
								<value>FALSE</value>
							</parameter>
							<parameter>
								<parameterid>lvar</parameterid>
								<name>Levels Controls</name>
								<value>string</value>
							</parameter>
							<parameter>
								<parameterid>inw</parameterid>
								<name>White Level</name>
								<valuemin>0</valuemin>
								<valuemax>255</valuemax>
								<value>255</value>
							</parameter>
							<parameter>
								<parameterid>inb</parameterid>
								<name>Black Level</name>
								<valuemin>0</valuemin>
								<valuemax>255</valuemax>
								<value>0</value>
							</parameter>
							<parameter>
								<parameterid>outw</parameterid>
								<name>White Output</name>
								<valuemin>0</valuemin>
								<valuemax>255</valuemax>
								<value>255</value>
							</parameter>
							<parameter>
								<parameterid>outb</parameterid>
								<name>Black Output</name>
								<valuemin>0</valuemin>
								<valuemax>255</valuemax>
								<value>0</value>
							</parameter>
							<parameter>
								<parameterid>cvar</parameterid>
								<name>Curves Controls</name>
								<value>string</value>
							</parameter>
							<parameter>
								<parameterid>curvew</parameterid>
								<name>White Curve</name>
								<valuemin>-100</valuemin>
								<valuemax>100</valuemax>
								<value>15</value>
							</parameter>
							<parameter>
								<parameterid>curveb</parameterid>
								<name>Black Curve</name>
								<valuemin>-100</valuemin>
								<valuemax>100</valuemax>
								<value>0</value>
							</parameter>
							<parameter>
								<parameterid>clipoutput</parameterid>
								<name>Clip Output Levels</name>
								<value>TRUE</value>
							</parameter>
							<parameter>
								<parameterid>copyright</parameterid>
								<name>© www.nattress.com</name>
								<value>string</value>
							</parameter>
						</effect>
					</filter>
					<sourcetrack>
						<mediatype>video</mediatype>
					</sourcetrack>
					<fielddominance>upper</fielddominance>
					<itemhistory>
						<uuid>7ABF5DA8-DFF7-4BD0-BC0C-50F01319A131</uuid>
					</itemhistory>
				</clipitem>
				<clipitem id="DYR18481_01 5">
					<name>DYR18481_01</name>
					<duration>1131</duration>
					<rate>
						<ntsc>FALSE</ntsc>
						<timebase>25</timebase>
					</rate>
					<in>772</in>
					<out>885</out>
					<start>17425</start>
					<end>17538</end>
					<pixelaspectratio>Square</pixelaspectratio>
					<enabled>TRUE</enabled>
					<anamorphic>FALSE</anamorphic>
					<alphatype>none</alphatype>
					<masterclipid>DYR18481_01 1</masterclipid>
					<logginginfo>
						<scene/>
						<shottake/>
						<lognote/>
						<good>FALSE</good>
					</logginginfo>
					<labels>
						<label2/>
					</labels>
					<comments>
						<mastercomment1/>
						<mastercomment2/>
						<mastercomment3/>
						<mastercomment4/>
					</comments>
					<file id="DYR18481_01 2"/>
					<sourcetrack>
						<mediatype>video</mediatype>
					</sourcetrack>
					<link>
						<linkclipref>DYR18481_01 5</linkclipref>
						<mediatype>video</mediatype>
						<trackindex>1</trackindex>
						<clipindex>130</clipindex>
					</link>
					<link>
						<linkclipref>DYR18481_01 6</linkclipref>
						<mediatype>audio</mediatype>
						<trackindex>1</trackindex>
						<clipindex>132</clipindex>
					</link>
					<link>
						<linkclipref>DYR18481_01 7</linkclipref>
						<mediatype>audio</mediatype>
						<trackindex>2</trackindex>
						<clipindex>136</clipindex>
					</link>
					<fielddominance>upper</fielddominance>
					<itemhistory>
						<uuid>5A2A7CD9-562F-4A61-A148-6C0E5E939A49</uuid>
					</itemhistory>
				</clipitem>
				<clipitem id="MVI_0813 3">
					<name>MVI_0813</name>
					<duration>638</duration>
					<rate>
						<ntsc>FALSE</ntsc>
						<timebase>25</timebase>
					</rate>
					<in>375</in>
					<out>521</out>
					<start>17538</start>
					<end>17684</end>
					<pixelaspectratio>Square</pixelaspectratio>
					<anamorphic>FALSE</anamorphic>
					<alphatype>none</alphatype>
					<masterclipid>MVI_0813 1</masterclipid>
					<logginginfo>
						<scene/>
						<shottake/>
						<lognote/>
						<good>FALSE</good>
					</logginginfo>
					<labels>
						<label2/>
					</labels>
					<comments>
						<mastercomment1/>
						<mastercomment2/>
						<mastercomment3/>
						<mastercomment4/>
					</comments>
					<file id="MVI_0813 2"/>
					<filter>
						<start>-1</start>
						<end>-1</end>
						<effect>
							<name>G Simple Curves +20 white curve</name>
							<effectcategory>Nattress Big Box of Tricks - Levels and Curves</effectcategory>
							<effecttype>filter</effecttype>
							<mediatype>video</mediatype>
							<parameter>
								<parameterid>colourspace</parameterid>
								<name>Colour Space</name>
								<valuemin>1</valuemin>
								<valuemax>2</valuemax>
								<valuelist>
									<valueentry>
										<name>RGB</name>
										<value>1</value>
									</valueentry>
									<valueentry>
										<name>Y'CbCr</name>
										<value>2</value>
									</valueentry>
								</valuelist>
								<value>2</value>
							</parameter>
							<parameter>
								<parameterid>showcurves</parameterid>
								<name>Show Curves</name>
								<value>FALSE</value>
							</parameter>
							<parameter>
								<parameterid>lvar</parameterid>
								<name>Levels Controls</name>
								<value>string</value>
							</parameter>
							<parameter>
								<parameterid>inw</parameterid>
								<name>White Level</name>
								<valuemin>0</valuemin>
								<valuemax>255</valuemax>
								<value>255</value>
							</parameter>
							<parameter>
								<parameterid>inb</parameterid>
								<name>Black Level</name>
								<valuemin>0</valuemin>
								<valuemax>255</valuemax>
								<value>0</value>
							</parameter>
							<parameter>
								<parameterid>outw</parameterid>
								<name>White Output</name>
								<valuemin>0</valuemin>
								<valuemax>255</valuemax>
								<value>255</value>
							</parameter>
							<parameter>
								<parameterid>outb</parameterid>
								<name>Black Output</name>
								<valuemin>0</valuemin>
								<valuemax>255</valuemax>
								<value>0</value>
							</parameter>
							<parameter>
								<parameterid>cvar</parameterid>
								<name>Curves Controls</name>
								<value>string</value>
							</parameter>
							<parameter>
								<parameterid>curvew</parameterid>
								<name>White Curve</name>
								<valuemin>-100</valuemin>
								<valuemax>100</valuemax>
								<value>15</value>
							</parameter>
							<parameter>
								<parameterid>curveb</parameterid>
								<name>Black Curve</name>
								<valuemin>-100</valuemin>
								<valuemax>100</valuemax>
								<value>0</value>
							</parameter>
							<parameter>
								<parameterid>clipoutput</parameterid>
								<name>Clip Output Levels</name>
								<value>TRUE</value>
							</parameter>
							<parameter>
								<parameterid>copyright</parameterid>
								<name>© www.nattress.com</name>
								<value>string</value>
							</parameter>
						</effect>
					</filter>
					<sourcetrack>
						<mediatype>video</mediatype>
					</sourcetrack>
					<fielddominance>upper</fielddominance>
					<itemhistory>
						<uuid>433835CD-CBE7-4E1A-8B53-C78408F5CE79</uuid>
					</itemhistory>
				</clipitem>
				<clipitem id="DYR18482_01 ">
					<name>DYR18482_01</name>
					<duration>1901</duration>
					<rate>
						<ntsc>FALSE</ntsc>
						<timebase>25</timebase>
					</rate>
					<in>1358</in>
					<out>1595</out>
					<start>17684</start>
					<end>17921</end>
					<pixelaspectratio>Square</pixelaspectratio>
					<enabled>TRUE</enabled>
					<anamorphic>FALSE</anamorphic>
					<alphatype>none</alphatype>
					<masterclipid>DYR18482_01 1</masterclipid>
					<logginginfo>
						<scene/>
						<shottake/>
						<lognote/>
						<good>FALSE</good>
					</logginginfo>
					<labels>
						<label2/>
					</labels>
					<comments>
						<mastercomment1/>
						<mastercomment2/>
						<mastercomment3/>
						<mastercomment4/>
					</comments>
					<file id="DYR18482_01 2">
						<name>DYR18482_01.mov</name>
						<pathurl>file://localhost/Volumes/Askepott/Prosjekter/DNPR637010_Kra%CC%8Akeklubben_TEM_011212/Video/TORDS%20GARASJE/Insekt/Maur/DYR18482_01.mov</pathurl>
						<rate>
							<timebase>25</timebase>
						</rate>
						<duration>1901</duration>
						<metadata>
							<storage>QuickTime</storage>
							<key>com.sony.bprl.xdcamtransfer.version</key>
							<size>10</size>
							<type>UTF8</type>
							<value>2.12.0.631</value>
						</metadata>
						<metadata>
							<storage>QuickTime</storage>
							<key>org.smpte.mxf.package.material.packageid</key>
							<size>66</size>
							<type>UTF8</type>
							<value>0x060a2b340101010501010d43130000003f08ee76545405cb08004602022f05f5</value>
						</metadata>
						<metadata>
							<storage>QuickTime</storage>
							<key>com.sony.professionaldisc.nonrealtimemeta.lastupdate</key>
							<size>25</size>
							<type>UTF8</type>
							<value>2010-09-15 12:10:15 +0100</value>
						</metadata>
						<metadata>
							<storage>QuickTime</storage>
							<key>com.sony.bprl.mxf.umid</key>
							<size>64</size>
							<type>UTF8</type>
							<value>060a2b340101010501010d43130000003f08ee76545405cb08004602022f05f5</value>
						</metadata>
						<metadata>
							<storage>QuickTime</storage>
							<key>com.sony.bprl.mxf.nrtmetadata</key>
							<size>1994</size>
							<type>UTF8</type>
							<value>&lt;?xml version="1.0" encoding="UTF-8"?>&lt;NonRealTimeMeta xmlns="urn:schemas-professionalDisc:nonRealTimeMeta:ver.1.20" xmlns:lib="urn:schemas-professionalDisc:lib:ver.1.20" xmlns:xsi="http://www.w3.org/2001/XMLSchema-instance" lastUpdate="2010-09-15T12:10:15+01:00">&lt;TargetMaterial umidRef="060A2B340101010501010D43130000003F08EE76545405CB08004602022F05F5">&lt;/TargetMaterial>&lt;Duration value="1901">&lt;/Duration>&lt;LtcChangeTable tcFps="25" halfStep="false">&lt;LtcChange frameCount="0" value="12064211" status="increment">&lt;/LtcChange>&lt;LtcChange frameCount="1900" value="12224311" status="end">&lt;/LtcChange>&lt;/LtcChangeTable>&lt;CreationDate value="2010-09-15T12:08:58+01:00">&lt;/CreationDate>&lt;TypicalUbit value="0000000017061020">&lt;/TypicalUbit>&lt;BodyUmidBasicChangeTable>&lt;BodyUmidBasicChange frameCount="0" value="060A2B340101010501010D43330000003F08EE76545405CB08004602022F05F5" status="start">&lt;/BodyUmidBasicChange>&lt;/BodyUmidBasicChangeTable>&lt;BodyUmidWhenChangeTable>&lt;BodyUmidWhenChange frameCount="0" value="C4F5D303545405A5" status="increment">&lt;/BodyUmidWhenChange>&lt;BodyUmidWhenChange frameCount="1900" value="C4D0D503545405A5" status="end">&lt;/BodyUmidWhenChange>&lt;/BodyUmidWhenChangeTable>&lt;KlvPacketTable>&lt;KlvPacket key="060E2B34010101050301020A02000000" frameCount="0" lengthValue="095F5265635374617274" status="spot">&lt;/KlvPacket>&lt;/KlvPacketTable>&lt;VideoFormat>&lt;VideoRecPort port="DIRECT">&lt;/VideoRecPort>&lt;VideoFrame videoCodec="MPEG2HD35_1920_1080_MP@HL" captureFps="50.00i" recFps="50.00" formatFps="50i">&lt;/VideoFrame>&lt;VideoLayout pixel="1920" numOfVerticalLine="1080" aspectRatio="16:9">&lt;/VideoLayout>&lt;/VideoFormat>&lt;AudioFormat numOfChannel="2">&lt;AudioRecPort port="ANALOG" audioCodec="LPCM16" trackDst="CH1">&lt;/AudioRecPort>&lt;AudioRecPort port="DIRECT" audioCodec="LPCM16" trackDst="CH2">&lt;/AudioRecPort>&lt;/AudioFormat>&lt;Device manufacturer="Sony" modelName="PMW-EX3" serialNo="0401525">&lt;/Device>&lt;Lens modelName="VCL-614B2X">&lt;/Lens>&lt;RecordingMode type="normal" cacheRec="false">&lt;/RecordingMode>&lt;/NonRealTimeMeta>
							</value>
						</metadata>
						<metadata>
							<storage>QuickTime</storage>
							<key>com.apple.proapps.reel</key>
							<size>8</size>
							<type>UTF8</type>
							<value>Untitled</value>
						</metadata>
						<metadata>
							<storage>QuickTime</storage>
							<key>com.apple.proapps.clipID</key>
							<size>64</size>
							<type>UTF8</type>
							<value>060A2B340101010501010D43130000003F08EE76545405CB08004602022F05F5</value>
						</metadata>
						<metadata>
							<storage>QuickTime</storage>
							<key>com.apple.quicktime.information</key>
							<size>64</size>
							<type>UTF8</type>
							<value>060a2b340101010501010d43130000003f08ee76545405cb08004602022f05f5</value>
						</metadata>
						<metadata>
							<storage>QuickTime</storage>
							<key>com.apple.proapps.originalFormat</key>
							<size>36</size>
							<type>UTF8</type>
							<value>Apple XDCAM EX 1080i50 (35 Mb/s VBR)</value>
						</metadata>
						<timecode>
							<rate>
								<timebase>25</timebase>
							</rate>
							<string>11:42:06:12</string>
							<frame>1053162</frame>
							<displayformat>NDF</displayformat>
							<source>source</source>
							<reel>
								<name>Untitled</name>
							</reel>
						</timecode>
						<media>
							<video>
								<duration>1901</duration>
								<samplecharacteristics>
									<width>1920</width>
									<height>1080</height>
								</samplecharacteristics>
							</video>
							<audio>
								<samplecharacteristics>
									<samplerate>48000</samplerate>
									<depth>16</depth>
								</samplecharacteristics>
								<channelcount>1</channelcount>
								<layout>mono</layout>
								<audiochannel>
									<sourcechannel>1</sourcechannel>
									<channellabel>discrete</channellabel>
								</audiochannel>
							</audio>
							<audio>
								<samplecharacteristics>
									<samplerate>48000</samplerate>
									<depth>16</depth>
								</samplecharacteristics>
								<channelcount>1</channelcount>
								<layout>mono</layout>
								<audiochannel>
									<sourcechannel>2</sourcechannel>
									<channellabel>discrete</channellabel>
								</audiochannel>
							</audio>
						</media>
					</file>
					<sourcetrack>
						<mediatype>video</mediatype>
					</sourcetrack>
					<link>
						<linkclipref>DYR18482_01 </linkclipref>
						<mediatype>video</mediatype>
						<trackindex>1</trackindex>
						<clipindex>132</clipindex>
					</link>
					<link>
						<linkclipref>DYR18482_01 3</linkclipref>
						<mediatype>audio</mediatype>
						<trackindex>1</trackindex>
						<clipindex>133</clipindex>
					</link>
					<link>
						<linkclipref>DYR18482_01 4</linkclipref>
						<mediatype>audio</mediatype>
						<trackindex>2</trackindex>
						<clipindex>137</clipindex>
					</link>
					<fielddominance>upper</fielddominance>
					<itemhistory>
						<uuid>423D7D20-3AF2-40C4-B05C-AF0D270A5D2F</uuid>
					</itemhistory>
				</clipitem>
				<clipitem id="DYR18486_01 ">
					<name>DYR18486_01</name>
					<duration>1456</duration>
					<rate>
						<ntsc>FALSE</ntsc>
						<timebase>25</timebase>
					</rate>
					<in>69</in>
					<out>245</out>
					<start>18098</start>
					<end>18274</end>
					<pixelaspectratio>Square</pixelaspectratio>
					<enabled>TRUE</enabled>
					<anamorphic>FALSE</anamorphic>
					<alphatype>none</alphatype>
					<masterclipid>DYR18486_01 1</masterclipid>
					<logginginfo>
						<scene/>
						<shottake/>
						<lognote/>
						<good>FALSE</good>
					</logginginfo>
					<labels>
						<label2/>
					</labels>
					<comments>
						<mastercomment1/>
						<mastercomment2/>
						<mastercomment3/>
						<mastercomment4/>
					</comments>
					<file id="DYR18486_01 2">
						<name>DYR18486_01.mov</name>
						<pathurl>file://localhost/Volumes/Askepott/Prosjekter/DNPR637010_Kra%CC%8Akeklubben_TEM_011212/Video/TORDS%20GARASJE/Insekt/Maur/DYR18486_01.mov</pathurl>
						<rate>
							<timebase>25</timebase>
						</rate>
						<duration>1456</duration>
						<metadata>
							<storage>QuickTime</storage>
							<key>com.sony.bprl.xdcamtransfer.version</key>
							<size>10</size>
							<type>UTF8</type>
							<value>2.12.0.631</value>
						</metadata>
						<metadata>
							<storage>QuickTime</storage>
							<key>org.smpte.mxf.package.material.packageid</key>
							<size>66</size>
							<type>UTF8</type>
							<value>0x060a2b340101010501010d43130000004bb71c78545405ce08004602022f05f5</value>
						</metadata>
						<metadata>
							<storage>QuickTime</storage>
							<key>com.sony.professionaldisc.nonrealtimemeta.lastupdate</key>
							<size>25</size>
							<type>UTF8</type>
							<value>2010-09-15 12:16:37 +0100</value>
						</metadata>
						<metadata>
							<storage>QuickTime</storage>
							<key>com.sony.bprl.mxf.umid</key>
							<size>64</size>
							<type>UTF8</type>
							<value>060a2b340101010501010d43130000004bb71c78545405ce08004602022f05f5</value>
						</metadata>
						<metadata>
							<storage>QuickTime</storage>
							<key>com.sony.bprl.mxf.nrtmetadata</key>
							<size>1994</size>
							<type>UTF8</type>
							<value>&lt;?xml version="1.0" encoding="UTF-8"?>&lt;NonRealTimeMeta xmlns="urn:schemas-professionalDisc:nonRealTimeMeta:ver.1.20" xmlns:lib="urn:schemas-professionalDisc:lib:ver.1.20" xmlns:xsi="http://www.w3.org/2001/XMLSchema-instance" lastUpdate="2010-09-15T12:16:37+01:00">&lt;TargetMaterial umidRef="060A2B340101010501010D43130000004BB71C78545405CE08004602022F05F5">&lt;/TargetMaterial>&lt;Duration value="1456">&lt;/Duration>&lt;LtcChangeTable tcFps="25" halfStep="false">&lt;LtcChange frameCount="0" value="09064511" status="increment">&lt;/LtcChange>&lt;LtcChange frameCount="1455" value="14044611" status="end">&lt;/LtcChange>&lt;/LtcChangeTable>&lt;CreationDate value="2010-09-15T12:15:37+01:00">&lt;/CreationDate>&lt;TypicalUbit value="0000000017061020">&lt;/TypicalUbit>&lt;BodyUmidBasicChangeTable>&lt;BodyUmidBasicChange frameCount="0" value="060A2B340101010501010D43330000004BB71C78545405CE08004602022F05F5" status="start">&lt;/BodyUmidBasicChange>&lt;/BodyUmidBasicChangeTable>&lt;BodyUmidWhenChangeTable>&lt;BodyUmidWhenChange frameCount="0" value="C4B3DD03545405A5" status="increment">&lt;/BodyUmidWhenChange>&lt;BodyUmidWhenChange frameCount="1455" value="841FDF03545405A5" status="end">&lt;/BodyUmidWhenChange>&lt;/BodyUmidWhenChangeTable>&lt;KlvPacketTable>&lt;KlvPacket key="060E2B34010101050301020A02000000" frameCount="0" lengthValue="095F5265635374617274" status="spot">&lt;/KlvPacket>&lt;/KlvPacketTable>&lt;VideoFormat>&lt;VideoRecPort port="DIRECT">&lt;/VideoRecPort>&lt;VideoFrame videoCodec="MPEG2HD35_1920_1080_MP@HL" captureFps="50.00i" recFps="50.00" formatFps="50i">&lt;/VideoFrame>&lt;VideoLayout pixel="1920" numOfVerticalLine="1080" aspectRatio="16:9">&lt;/VideoLayout>&lt;/VideoFormat>&lt;AudioFormat numOfChannel="2">&lt;AudioRecPort port="ANALOG" audioCodec="LPCM16" trackDst="CH1">&lt;/AudioRecPort>&lt;AudioRecPort port="DIRECT" audioCodec="LPCM16" trackDst="CH2">&lt;/AudioRecPort>&lt;/AudioFormat>&lt;Device manufacturer="Sony" modelName="PMW-EX3" serialNo="0401525">&lt;/Device>&lt;Lens modelName="VCL-614B2X">&lt;/Lens>&lt;RecordingMode type="normal" cacheRec="false">&lt;/RecordingMode>&lt;/NonRealTimeMeta>
							</value>
						</metadata>
						<metadata>
							<storage>QuickTime</storage>
							<key>com.apple.proapps.reel</key>
							<size>8</size>
							<type>UTF8</type>
							<value>Untitled</value>
						</metadata>
						<metadata>
							<storage>QuickTime</storage>
							<key>com.apple.proapps.clipID</key>
							<size>64</size>
							<type>UTF8</type>
							<value>060A2B340101010501010D43130000004BB71C78545405CE08004602022F05F5</value>
						</metadata>
						<metadata>
							<storage>QuickTime</storage>
							<key>com.apple.quicktime.information</key>
							<size>64</size>
							<type>UTF8</type>
							<value>060a2b340101010501010d43130000004bb71c78545405ce08004602022f05f5</value>
						</metadata>
						<metadata>
							<storage>QuickTime</storage>
							<key>com.apple.proapps.originalFormat</key>
							<size>36</size>
							<type>UTF8</type>
							<value>Apple XDCAM EX 1080i50 (35 Mb/s VBR)</value>
						</metadata>
						<timecode>
							<rate>
								<timebase>25</timebase>
							</rate>
							<string>11:45:06:09</string>
							<frame>1057659</frame>
							<displayformat>NDF</displayformat>
							<source>source</source>
							<reel>
								<name>Untitled</name>
							</reel>
						</timecode>
						<media>
							<video>
								<duration>1456</duration>
								<samplecharacteristics>
									<width>1920</width>
									<height>1080</height>
								</samplecharacteristics>
							</video>
							<audio>
								<samplecharacteristics>
									<samplerate>48000</samplerate>
									<depth>16</depth>
								</samplecharacteristics>
								<channelcount>1</channelcount>
								<layout>mono</layout>
								<audiochannel>
									<sourcechannel>1</sourcechannel>
									<channellabel>discrete</channellabel>
								</audiochannel>
							</audio>
							<audio>
								<samplecharacteristics>
									<samplerate>48000</samplerate>
									<depth>16</depth>
								</samplecharacteristics>
								<channelcount>1</channelcount>
								<layout>mono</layout>
								<audiochannel>
									<sourcechannel>2</sourcechannel>
									<channellabel>discrete</channellabel>
								</audiochannel>
							</audio>
						</media>
					</file>
					<sourcetrack>
						<mediatype>video</mediatype>
					</sourcetrack>
					<link>
						<linkclipref>DYR18486_01 </linkclipref>
						<mediatype>video</mediatype>
						<trackindex>1</trackindex>
						<clipindex>133</clipindex>
					</link>
					<link>
						<linkclipref>DYR18486_01 3</linkclipref>
						<mediatype>audio</mediatype>
						<trackindex>1</trackindex>
						<clipindex>134</clipindex>
					</link>
					<link>
						<linkclipref>DYR18486_01 4</linkclipref>
						<mediatype>audio</mediatype>
						<trackindex>2</trackindex>
						<clipindex>138</clipindex>
					</link>
					<fielddominance>upper</fielddominance>
					<itemhistory>
						<uuid>CB870ED2-EF5E-40D6-92F1-5DC747DF1965</uuid>
					</itemhistory>
				</clipitem>
				<clipitem id="DYR18485_01 ">
					<name>DYR18485_01</name>
					<duration>595</duration>
					<rate>
						<ntsc>FALSE</ntsc>
						<timebase>25</timebase>
					</rate>
					<in>261</in>
					<out>369</out>
					<start>18274</start>
					<end>18382</end>
					<pixelaspectratio>Square</pixelaspectratio>
					<enabled>TRUE</enabled>
					<anamorphic>FALSE</anamorphic>
					<alphatype>none</alphatype>
					<masterclipid>DYR18485_01 1</masterclipid>
					<logginginfo>
						<scene/>
						<shottake/>
						<lognote/>
						<good>FALSE</good>
					</logginginfo>
					<labels>
						<label2/>
					</labels>
					<comments>
						<mastercomment1/>
						<mastercomment2/>
						<mastercomment3/>
						<mastercomment4/>
					</comments>
					<file id="DYR18485_01 2">
						<name>DYR18485_01.mov</name>
						<pathurl>file://localhost/Volumes/Askepott/Prosjekter/DNPR637010_Kra%CC%8Akeklubben_TEM_011212/Video/TORDS%20GARASJE/Insekt/Maur/DYR18485_01.mov</pathurl>
						<rate>
							<timebase>25</timebase>
						</rate>
						<duration>595</duration>
						<metadata>
							<storage>QuickTime</storage>
							<key>com.sony.bprl.xdcamtransfer.version</key>
							<size>10</size>
							<type>UTF8</type>
							<value>2.12.0.631</value>
						</metadata>
						<metadata>
							<storage>QuickTime</storage>
							<key>org.smpte.mxf.package.material.packageid</key>
							<size>66</size>
							<type>UTF8</type>
							<value>0x060a2b340101010501010d431300000057f5ae77545405df08004602022f05f5</value>
						</metadata>
						<metadata>
							<storage>QuickTime</storage>
							<key>com.sony.professionaldisc.nonrealtimemeta.lastupdate</key>
							<size>25</size>
							<type>UTF8</type>
							<value>2010-09-15 12:13:37 +0100</value>
						</metadata>
						<metadata>
							<storage>QuickTime</storage>
							<key>com.sony.bprl.mxf.umid</key>
							<size>64</size>
							<type>UTF8</type>
							<value>060a2b340101010501010d431300000057f5ae77545405df08004602022f05f5</value>
						</metadata>
						<metadata>
							<storage>QuickTime</storage>
							<key>com.sony.bprl.mxf.nrtmetadata</key>
							<size>1991</size>
							<type>UTF8</type>
							<value>&lt;?xml version="1.0" encoding="UTF-8"?>&lt;NonRealTimeMeta xmlns="urn:schemas-professionalDisc:nonRealTimeMeta:ver.1.20" xmlns:lib="urn:schemas-professionalDisc:lib:ver.1.20" xmlns:xsi="http://www.w3.org/2001/XMLSchema-instance" lastUpdate="2010-09-15T12:13:37+01:00">&lt;TargetMaterial umidRef="060A2B340101010501010D431300000057F5AE77545405DF08004602022F05F5">&lt;/TargetMaterial>&lt;Duration value="595">&lt;/Duration>&lt;LtcChangeTable tcFps="25" halfStep="false">&lt;LtcChange frameCount="0" value="14424411" status="increment">&lt;/LtcChange>&lt;LtcChange frameCount="594" value="08064511" status="end">&lt;/LtcChange>&lt;/LtcChangeTable>&lt;CreationDate value="2010-09-15T12:13:13+01:00">&lt;/CreationDate>&lt;TypicalUbit value="0000000017061020">&lt;/TypicalUbit>&lt;BodyUmidBasicChangeTable>&lt;BodyUmidBasicChange frameCount="0" value="060A2B340101010501010D433300000057F5AE77545405DF08004602022F05F5" status="start">&lt;/BodyUmidBasicChange>&lt;/BodyUmidBasicChangeTable>&lt;BodyUmidWhenChangeTable>&lt;BodyUmidWhenChange frameCount="0" value="842BDA03545405A5" status="increment">&lt;/BodyUmidWhenChange>&lt;BodyUmidWhenChange frameCount="594" value="04C0DA03545405A5" status="end">&lt;/BodyUmidWhenChange>&lt;/BodyUmidWhenChangeTable>&lt;KlvPacketTable>&lt;KlvPacket key="060E2B34010101050301020A02000000" frameCount="0" lengthValue="095F5265635374617274" status="spot">&lt;/KlvPacket>&lt;/KlvPacketTable>&lt;VideoFormat>&lt;VideoRecPort port="DIRECT">&lt;/VideoRecPort>&lt;VideoFrame videoCodec="MPEG2HD35_1920_1080_MP@HL" captureFps="50.00i" recFps="50.00" formatFps="50i">&lt;/VideoFrame>&lt;VideoLayout pixel="1920" numOfVerticalLine="1080" aspectRatio="16:9">&lt;/VideoLayout>&lt;/VideoFormat>&lt;AudioFormat numOfChannel="2">&lt;AudioRecPort port="ANALOG" audioCodec="LPCM16" trackDst="CH1">&lt;/AudioRecPort>&lt;AudioRecPort port="DIRECT" audioCodec="LPCM16" trackDst="CH2">&lt;/AudioRecPort>&lt;/AudioFormat>&lt;Device manufacturer="Sony" modelName="PMW-EX3" serialNo="0401525">&lt;/Device>&lt;Lens modelName="VCL-614B2X">&lt;/Lens>&lt;RecordingMode type="normal" cacheRec="false">&lt;/RecordingMode>&lt;/NonRealTimeMeta>
							</value>
						</metadata>
						<metadata>
							<storage>QuickTime</storage>
							<key>com.apple.proapps.reel</key>
							<size>8</size>
							<type>UTF8</type>
							<value>Untitled</value>
						</metadata>
						<metadata>
							<storage>QuickTime</storage>
							<key>com.apple.proapps.clipID</key>
							<size>64</size>
							<type>UTF8</type>
							<value>060A2B340101010501010D431300000057F5AE77545405DF08004602022F05F5</value>
						</metadata>
						<metadata>
							<storage>QuickTime</storage>
							<key>com.apple.quicktime.information</key>
							<size>64</size>
							<type>UTF8</type>
							<value>060a2b340101010501010d431300000057f5ae77545405df08004602022f05f5</value>
						</metadata>
						<metadata>
							<storage>QuickTime</storage>
							<key>com.apple.proapps.originalFormat</key>
							<size>36</size>
							<type>UTF8</type>
							<value>Apple XDCAM EX 1080i50 (35 Mb/s VBR)</value>
						</metadata>
						<timecode>
							<rate>
								<timebase>25</timebase>
							</rate>
							<string>11:44:42:14</string>
							<frame>1057064</frame>
							<displayformat>NDF</displayformat>
							<source>source</source>
							<reel>
								<name>Untitled</name>
							</reel>
						</timecode>
						<media>
							<video>
								<duration>595</duration>
								<samplecharacteristics>
									<width>1920</width>
									<height>1080</height>
								</samplecharacteristics>
							</video>
							<audio>
								<samplecharacteristics>
									<samplerate>48000</samplerate>
									<depth>16</depth>
								</samplecharacteristics>
								<channelcount>1</channelcount>
								<layout>mono</layout>
								<audiochannel>
									<sourcechannel>1</sourcechannel>
									<channellabel>discrete</channellabel>
								</audiochannel>
							</audio>
							<audio>
								<samplecharacteristics>
									<samplerate>48000</samplerate>
									<depth>16</depth>
								</samplecharacteristics>
								<channelcount>1</channelcount>
								<layout>mono</layout>
								<audiochannel>
									<sourcechannel>2</sourcechannel>
									<channellabel>discrete</channellabel>
								</audiochannel>
							</audio>
						</media>
					</file>
					<sourcetrack>
						<mediatype>video</mediatype>
					</sourcetrack>
					<link>
						<linkclipref>DYR18485_01 </linkclipref>
						<mediatype>video</mediatype>
						<trackindex>1</trackindex>
						<clipindex>134</clipindex>
					</link>
					<link>
						<linkclipref>DYR18485_01 3</linkclipref>
						<mediatype>audio</mediatype>
						<trackindex>1</trackindex>
						<clipindex>135</clipindex>
					</link>
					<link>
						<linkclipref>DYR18485_01 4</linkclipref>
						<mediatype>audio</mediatype>
						<trackindex>2</trackindex>
						<clipindex>139</clipindex>
					</link>
					<fielddominance>upper</fielddominance>
					<itemhistory>
						<uuid>46276DB7-8848-4DED-A67B-F5D603074AD5</uuid>
					</itemhistory>
				</clipitem>
				<clipitem id="DYR18488_01 ">
					<name>DYR18488_01</name>
					<duration>1012</duration>
					<rate>
						<ntsc>FALSE</ntsc>
						<timebase>25</timebase>
					</rate>
					<in>149</in>
					<out>186</out>
					<start>18382</start>
					<end>18419</end>
					<pixelaspectratio>Square</pixelaspectratio>
					<enabled>TRUE</enabled>
					<anamorphic>FALSE</anamorphic>
					<alphatype>none</alphatype>
					<masterclipid>DYR18488_01 1</masterclipid>
					<logginginfo>
						<scene/>
						<shottake/>
						<lognote/>
						<good>FALSE</good>
					</logginginfo>
					<labels>
						<label2/>
					</labels>
					<comments>
						<mastercomment1/>
						<mastercomment2/>
						<mastercomment3/>
						<mastercomment4/>
					</comments>
					<file id="DYR18488_01 2">
						<name>DYR18488_01.mov</name>
						<pathurl>file://localhost/Volumes/Askepott/Prosjekter/DNPR637010_Kra%CC%8Akeklubben_TEM_011212/Video/TORDS%20GARASJE/Insekt/Maur/DYR18488_01.mov</pathurl>
						<rate>
							<timebase>25</timebase>
						</rate>
						<duration>1012</duration>
						<metadata>
							<storage>QuickTime</storage>
							<key>com.sony.bprl.xdcamtransfer.version</key>
							<size>10</size>
							<type>UTF8</type>
							<value>2.12.0.631</value>
						</metadata>
						<metadata>
							<storage>QuickTime</storage>
							<key>org.smpte.mxf.package.material.packageid</key>
							<size>66</size>
							<type>UTF8</type>
							<value>0x060a2b340101010501010d4313000000ca871b79545405d108004602022f05f5</value>
						</metadata>
						<metadata>
							<storage>QuickTime</storage>
							<key>com.sony.professionaldisc.nonrealtimemeta.lastupdate</key>
							<size>25</size>
							<type>UTF8</type>
							<value>2010-09-15 12:21:55 +0100</value>
						</metadata>
						<metadata>
							<storage>QuickTime</storage>
							<key>com.sony.bprl.mxf.umid</key>
							<size>64</size>
							<type>UTF8</type>
							<value>060a2b340101010501010d4313000000ca871b79545405d108004602022f05f5</value>
						</metadata>
						<metadata>
							<storage>QuickTime</storage>
							<key>com.sony.bprl.mxf.nrtmetadata</key>
							<size>1994</size>
							<type>UTF8</type>
							<value>&lt;?xml version="1.0" encoding="UTF-8"?>&lt;NonRealTimeMeta xmlns="urn:schemas-professionalDisc:nonRealTimeMeta:ver.1.20" xmlns:lib="urn:schemas-professionalDisc:lib:ver.1.20" xmlns:xsi="http://www.w3.org/2001/XMLSchema-instance" lastUpdate="2010-09-15T12:21:55+01:00">&lt;TargetMaterial umidRef="060A2B340101010501010D4313000000CA871B79545405D108004602022F05F5">&lt;/TargetMaterial>&lt;Duration value="1012">&lt;/Duration>&lt;LtcChangeTable tcFps="25" halfStep="false">&lt;LtcChange frameCount="0" value="00034711" status="increment">&lt;/LtcChange>&lt;LtcChange frameCount="1011" value="11434711" status="end">&lt;/LtcChange>&lt;/LtcChangeTable>&lt;CreationDate value="2010-09-15T12:21:13+01:00">&lt;/CreationDate>&lt;TypicalUbit value="0000000017061020">&lt;/TypicalUbit>&lt;BodyUmidBasicChangeTable>&lt;BodyUmidBasicChange frameCount="0" value="060A2B340101010501010D4333000000CA871B79545405D108004602022F05F5" status="start">&lt;/BodyUmidBasicChange>&lt;/BodyUmidBasicChangeTable>&lt;BodyUmidWhenChangeTable>&lt;BodyUmidWhenChange frameCount="0" value="84E7E503545405A5" status="increment">&lt;/BodyUmidWhenChange>&lt;BodyUmidWhenChange frameCount="1011" value="44E4E603545405A5" status="end">&lt;/BodyUmidWhenChange>&lt;/BodyUmidWhenChangeTable>&lt;KlvPacketTable>&lt;KlvPacket key="060E2B34010101050301020A02000000" frameCount="0" lengthValue="095F5265635374617274" status="spot">&lt;/KlvPacket>&lt;/KlvPacketTable>&lt;VideoFormat>&lt;VideoRecPort port="DIRECT">&lt;/VideoRecPort>&lt;VideoFrame videoCodec="MPEG2HD35_1920_1080_MP@HL" captureFps="50.00i" recFps="50.00" formatFps="50i">&lt;/VideoFrame>&lt;VideoLayout pixel="1920" numOfVerticalLine="1080" aspectRatio="16:9">&lt;/VideoLayout>&lt;/VideoFormat>&lt;AudioFormat numOfChannel="2">&lt;AudioRecPort port="ANALOG" audioCodec="LPCM16" trackDst="CH1">&lt;/AudioRecPort>&lt;AudioRecPort port="DIRECT" audioCodec="LPCM16" trackDst="CH2">&lt;/AudioRecPort>&lt;/AudioFormat>&lt;Device manufacturer="Sony" modelName="PMW-EX3" serialNo="0401525">&lt;/Device>&lt;Lens modelName="VCL-614B2X">&lt;/Lens>&lt;RecordingMode type="normal" cacheRec="false">&lt;/RecordingMode>&lt;/NonRealTimeMeta>
							</value>
						</metadata>
						<metadata>
							<storage>QuickTime</storage>
							<key>com.apple.proapps.reel</key>
							<size>8</size>
							<type>UTF8</type>
							<value>Untitled</value>
						</metadata>
						<metadata>
							<storage>QuickTime</storage>
							<key>com.apple.proapps.clipID</key>
							<size>64</size>
							<type>UTF8</type>
							<value>060A2B340101010501010D4313000000CA871B79545405D108004602022F05F5</value>
						</metadata>
						<metadata>
							<storage>QuickTime</storage>
							<key>com.apple.quicktime.information</key>
							<size>64</size>
							<type>UTF8</type>
							<value>060a2b340101010501010d4313000000ca871b79545405d108004602022f05f5</value>
						</metadata>
						<metadata>
							<storage>QuickTime</storage>
							<key>com.apple.proapps.originalFormat</key>
							<size>36</size>
							<type>UTF8</type>
							<value>Apple XDCAM EX 1080i50 (35 Mb/s VBR)</value>
						</metadata>
						<timecode>
							<rate>
								<timebase>25</timebase>
							</rate>
							<string>11:47:03:00</string>
							<frame>1060575</frame>
							<displayformat>NDF</displayformat>
							<source>source</source>
							<reel>
								<name>Untitled</name>
							</reel>
						</timecode>
						<media>
							<video>
								<duration>1012</duration>
								<samplecharacteristics>
									<width>1920</width>
									<height>1080</height>
								</samplecharacteristics>
							</video>
							<audio>
								<samplecharacteristics>
									<samplerate>48000</samplerate>
									<depth>16</depth>
								</samplecharacteristics>
								<channelcount>1</channelcount>
								<layout>mono</layout>
								<audiochannel>
									<sourcechannel>1</sourcechannel>
									<channellabel>discrete</channellabel>
								</audiochannel>
							</audio>
							<audio>
								<samplecharacteristics>
									<samplerate>48000</samplerate>
									<depth>16</depth>
								</samplecharacteristics>
								<channelcount>1</channelcount>
								<layout>mono</layout>
								<audiochannel>
									<sourcechannel>2</sourcechannel>
									<channellabel>discrete</channellabel>
								</audiochannel>
							</audio>
						</media>
					</file>
					<sourcetrack>
						<mediatype>video</mediatype>
					</sourcetrack>
					<link>
						<linkclipref>DYR18488_01 </linkclipref>
						<mediatype>video</mediatype>
						<trackindex>1</trackindex>
						<clipindex>135</clipindex>
					</link>
					<link>
						<linkclipref>DYR18488_01 3</linkclipref>
						<mediatype>audio</mediatype>
						<trackindex>3</trackindex>
						<clipindex>28</clipindex>
					</link>
					<link>
						<linkclipref>DYR18488_01 4</linkclipref>
						<mediatype>audio</mediatype>
						<trackindex>4</trackindex>
						<clipindex>28</clipindex>
					</link>
					<fielddominance>upper</fielddominance>
					<itemhistory>
						<uuid>C8AE20FB-ED8B-40E5-82D7-3B7FC0434FFB</uuid>
					</itemhistory>
				</clipitem>
				<clipitem id="DYR18492_01 ">
					<name>DYR18492_01</name>
					<duration>2489</duration>
					<rate>
						<ntsc>FALSE</ntsc>
						<timebase>25</timebase>
					</rate>
					<in>678</in>
					<out>957</out>
					<start>18735</start>
					<end>19014</end>
					<pixelaspectratio>Square</pixelaspectratio>
					<enabled>TRUE</enabled>
					<anamorphic>FALSE</anamorphic>
					<alphatype>none</alphatype>
					<masterclipid>DYR18492_01 1</masterclipid>
					<logginginfo>
						<scene/>
						<shottake/>
						<lognote/>
						<good>FALSE</good>
					</logginginfo>
					<labels>
						<label2/>
					</labels>
					<comments>
						<mastercomment1/>
						<mastercomment2/>
						<mastercomment3/>
						<mastercomment4/>
					</comments>
					<file id="DYR18492_01 2">
						<name>DYR18492_01.mov</name>
						<pathurl>file://localhost/Volumes/Askepott/Prosjekter/DNPR637010_Kra%CC%8Akeklubben_TEM_011212/Video/TORDS%20GARASJE/Insekt/Maur/DYR18492_01.mov</pathurl>
						<rate>
							<timebase>25</timebase>
						</rate>
						<duration>2489</duration>
						<metadata>
							<storage>QuickTime</storage>
							<key>com.sony.bprl.xdcamtransfer.version</key>
							<size>10</size>
							<type>UTF8</type>
							<value>2.12.0.631</value>
						</metadata>
						<metadata>
							<storage>QuickTime</storage>
							<key>org.smpte.mxf.package.material.packageid</key>
							<size>66</size>
							<type>UTF8</type>
							<value>0x060a2b340101010501010d431300000064cff279545405cc08004602022f05f5</value>
						</metadata>
						<metadata>
							<storage>QuickTime</storage>
							<key>com.sony.professionaldisc.nonrealtimemeta.lastupdate</key>
							<size>25</size>
							<type>UTF8</type>
							<value>2010-09-15 12:27:38 +0100</value>
						</metadata>
						<metadata>
							<storage>QuickTime</storage>
							<key>com.sony.bprl.mxf.umid</key>
							<size>64</size>
							<type>UTF8</type>
							<value>060a2b340101010501010d431300000064cff279545405cc08004602022f05f5</value>
						</metadata>
						<metadata>
							<storage>QuickTime</storage>
							<key>com.sony.bprl.mxf.nrtmetadata</key>
							<size>1994</size>
							<type>UTF8</type>
							<value>&lt;?xml version="1.0" encoding="UTF-8"?>&lt;NonRealTimeMeta xmlns="urn:schemas-professionalDisc:nonRealTimeMeta:ver.1.20" xmlns:lib="urn:schemas-professionalDisc:lib:ver.1.20" xmlns:xsi="http://www.w3.org/2001/XMLSchema-instance" lastUpdate="2010-09-15T12:27:38+01:00">&lt;TargetMaterial umidRef="060A2B340101010501010D431300000064CFF279545405CC08004602022F05F5">&lt;/TargetMaterial>&lt;Duration value="2489">&lt;/Duration>&lt;LtcChangeTable tcFps="25" halfStep="false">&lt;LtcChange frameCount="0" value="17024911" status="increment">&lt;/LtcChange>&lt;LtcChange frameCount="2488" value="05425011" status="end">&lt;/LtcChange>&lt;/LtcChangeTable>&lt;CreationDate value="2010-09-15T12:25:57+01:00">&lt;/CreationDate>&lt;TypicalUbit value="0000000017061020">&lt;/TypicalUbit>&lt;BodyUmidBasicChangeTable>&lt;BodyUmidBasicChange frameCount="0" value="060A2B340101010501010D433300000064CFF279545405CC08004602022F05F5" status="start">&lt;/BodyUmidBasicChange>&lt;/BodyUmidBasicChangeTable>&lt;BodyUmidWhenChangeTable>&lt;BodyUmidWhenChange frameCount="0" value="44D5EC03545405A5" status="increment">&lt;/BodyUmidWhenChange>&lt;BodyUmidWhenChange frameCount="2488" value="4443EF03545405A5" status="end">&lt;/BodyUmidWhenChange>&lt;/BodyUmidWhenChangeTable>&lt;KlvPacketTable>&lt;KlvPacket key="060E2B34010101050301020A02000000" frameCount="0" lengthValue="095F5265635374617274" status="spot">&lt;/KlvPacket>&lt;/KlvPacketTable>&lt;VideoFormat>&lt;VideoRecPort port="DIRECT">&lt;/VideoRecPort>&lt;VideoFrame videoCodec="MPEG2HD35_1920_1080_MP@HL" captureFps="50.00i" recFps="50.00" formatFps="50i">&lt;/VideoFrame>&lt;VideoLayout pixel="1920" numOfVerticalLine="1080" aspectRatio="16:9">&lt;/VideoLayout>&lt;/VideoFormat>&lt;AudioFormat numOfChannel="2">&lt;AudioRecPort port="ANALOG" audioCodec="LPCM16" trackDst="CH1">&lt;/AudioRecPort>&lt;AudioRecPort port="DIRECT" audioCodec="LPCM16" trackDst="CH2">&lt;/AudioRecPort>&lt;/AudioFormat>&lt;Device manufacturer="Sony" modelName="PMW-EX3" serialNo="0401525">&lt;/Device>&lt;Lens modelName="VCL-614B2X">&lt;/Lens>&lt;RecordingMode type="normal" cacheRec="false">&lt;/RecordingMode>&lt;/NonRealTimeMeta>
							</value>
						</metadata>
						<metadata>
							<storage>QuickTime</storage>
							<key>com.apple.proapps.reel</key>
							<size>8</size>
							<type>UTF8</type>
							<value>Untitled</value>
						</metadata>
						<metadata>
							<storage>QuickTime</storage>
							<key>com.apple.proapps.clipID</key>
							<size>64</size>
							<type>UTF8</type>
							<value>060A2B340101010501010D431300000064CFF279545405CC08004602022F05F5</value>
						</metadata>
						<metadata>
							<storage>QuickTime</storage>
							<key>com.apple.quicktime.information</key>
							<size>64</size>
							<type>UTF8</type>
							<value>060a2b340101010501010d431300000064cff279545405cc08004602022f05f5</value>
						</metadata>
						<metadata>
							<storage>QuickTime</storage>
							<key>com.apple.proapps.originalFormat</key>
							<size>36</size>
							<type>UTF8</type>
							<value>Apple XDCAM EX 1080i50 (35 Mb/s VBR)</value>
						</metadata>
						<timecode>
							<rate>
								<timebase>25</timebase>
							</rate>
							<string>11:49:02:17</string>
							<frame>1063567</frame>
							<displayformat>NDF</displayformat>
							<source>source</source>
							<reel>
								<name>Untitled</name>
							</reel>
						</timecode>
						<media>
							<video>
								<duration>2489</duration>
								<samplecharacteristics>
									<width>1920</width>
									<height>1080</height>
								</samplecharacteristics>
							</video>
							<audio>
								<samplecharacteristics>
									<samplerate>48000</samplerate>
									<depth>16</depth>
								</samplecharacteristics>
								<channelcount>1</channelcount>
								<layout>mono</layout>
								<audiochannel>
									<sourcechannel>1</sourcechannel>
									<channellabel>discrete</channellabel>
								</audiochannel>
							</audio>
							<audio>
								<samplecharacteristics>
									<samplerate>48000</samplerate>
									<depth>16</depth>
								</samplecharacteristics>
								<channelcount>1</channelcount>
								<layout>mono</layout>
								<audiochannel>
									<sourcechannel>2</sourcechannel>
									<channellabel>discrete</channellabel>
								</audiochannel>
							</audio>
						</media>
					</file>
					<sourcetrack>
						<mediatype>video</mediatype>
					</sourcetrack>
					<link>
						<linkclipref>DYR18492_01 </linkclipref>
						<mediatype>video</mediatype>
						<trackindex>1</trackindex>
						<clipindex>136</clipindex>
					</link>
					<link>
						<linkclipref>DYR18492_01 3</linkclipref>
						<mediatype>audio</mediatype>
						<trackindex>1</trackindex>
						<clipindex>137</clipindex>
					</link>
					<link>
						<linkclipref>DYR18492_01 4</linkclipref>
						<mediatype>audio</mediatype>
						<trackindex>2</trackindex>
						<clipindex>141</clipindex>
					</link>
					<fielddominance>upper</fielddominance>
					<itemhistory>
						<uuid>5FFB5F8F-C468-4FB7-8EA7-BBB01CB41BE2</uuid>
					</itemhistory>
				</clipitem>
				<clipitem id="DYR18494_01 ">
					<name>DYR18494_01</name>
					<duration>1145</duration>
					<rate>
						<ntsc>FALSE</ntsc>
						<timebase>25</timebase>
					</rate>
					<in>128</in>
					<out>179</out>
					<start>19014</start>
					<end>19065</end>
					<pixelaspectratio>Square</pixelaspectratio>
					<anamorphic>FALSE</anamorphic>
					<alphatype>none</alphatype>
					<masterclipid>DYR18494_01 1</masterclipid>
					<logginginfo>
						<scene/>
						<shottake/>
						<lognote/>
						<good>FALSE</good>
					</logginginfo>
					<labels>
						<label2/>
					</labels>
					<comments>
						<mastercomment1/>
						<mastercomment2/>
						<mastercomment3/>
						<mastercomment4/>
					</comments>
					<file id="DYR18494_01 2">
						<name>DYR18494_01.mov</name>
						<pathurl>file://localhost/Volumes/Askepott/Prosjekter/DNPR637010_Kra%CC%8Akeklubben_TEM_011212/Video/TORDS%20GARASJE/Insekt/Maur/DYR18494_01.mov</pathurl>
						<rate>
							<timebase>25</timebase>
						</rate>
						<duration>1145</duration>
						<metadata>
							<storage>QuickTime</storage>
							<key>com.sony.bprl.xdcamtransfer.version</key>
							<size>10</size>
							<type>UTF8</type>
							<value>2.12.0.631</value>
						</metadata>
						<metadata>
							<storage>QuickTime</storage>
							<key>org.smpte.mxf.package.material.packageid</key>
							<size>66</size>
							<type>UTF8</type>
							<value>0x060a2b340101010501010d431300000084a6d27a545405df08004602022f05f5</value>
						</metadata>
						<metadata>
							<storage>QuickTime</storage>
							<key>com.sony.professionaldisc.nonrealtimemeta.lastupdate</key>
							<size>25</size>
							<type>UTF8</type>
							<value>2010-09-15 12:31:39 +0100</value>
						</metadata>
						<metadata>
							<storage>QuickTime</storage>
							<key>com.sony.bprl.mxf.umid</key>
							<size>64</size>
							<type>UTF8</type>
							<value>060a2b340101010501010d431300000084a6d27a545405df08004602022f05f5</value>
						</metadata>
						<metadata>
							<storage>QuickTime</storage>
							<key>com.sony.bprl.mxf.nrtmetadata</key>
							<size>1994</size>
							<type>UTF8</type>
							<value>&lt;?xml version="1.0" encoding="UTF-8"?>&lt;NonRealTimeMeta xmlns="urn:schemas-professionalDisc:nonRealTimeMeta:ver.1.20" xmlns:lib="urn:schemas-professionalDisc:lib:ver.1.20" xmlns:xsi="http://www.w3.org/2001/XMLSchema-instance" lastUpdate="2010-09-15T12:31:39+01:00">&lt;TargetMaterial umidRef="060A2B340101010501010D431300000084A6D27A545405DF08004602022F05F5">&lt;/TargetMaterial>&lt;Duration value="1145">&lt;/Duration>&lt;LtcChangeTable tcFps="25" halfStep="false">&lt;LtcChange frameCount="0" value="06485011" status="increment">&lt;/LtcChange>&lt;LtcChange frameCount="1144" value="00345111" status="end">&lt;/LtcChange>&lt;/LtcChangeTable>&lt;CreationDate value="2010-09-15T12:30:52+01:00">&lt;/CreationDate>&lt;TypicalUbit value="0000000017061020">&lt;/TypicalUbit>&lt;BodyUmidBasicChangeTable>&lt;BodyUmidBasicChange frameCount="0" value="060A2B340101010501010D433300000084A6D27A545405DF08004602022F05F5" status="start">&lt;/BodyUmidBasicChange>&lt;/BodyUmidBasicChangeTable>&lt;BodyUmidWhenChangeTable>&lt;BodyUmidWhenChange frameCount="0" value="C409F403545405A5" status="increment">&lt;/BodyUmidWhenChange>&lt;BodyUmidWhenChange frameCount="1144" value="C427F503545405A5" status="end">&lt;/BodyUmidWhenChange>&lt;/BodyUmidWhenChangeTable>&lt;KlvPacketTable>&lt;KlvPacket key="060E2B34010101050301020A02000000" frameCount="0" lengthValue="095F5265635374617274" status="spot">&lt;/KlvPacket>&lt;/KlvPacketTable>&lt;VideoFormat>&lt;VideoRecPort port="DIRECT">&lt;/VideoRecPort>&lt;VideoFrame videoCodec="MPEG2HD35_1920_1080_MP@HL" captureFps="50.00i" recFps="50.00" formatFps="50i">&lt;/VideoFrame>&lt;VideoLayout pixel="1920" numOfVerticalLine="1080" aspectRatio="16:9">&lt;/VideoLayout>&lt;/VideoFormat>&lt;AudioFormat numOfChannel="2">&lt;AudioRecPort port="ANALOG" audioCodec="LPCM16" trackDst="CH1">&lt;/AudioRecPort>&lt;AudioRecPort port="DIRECT" audioCodec="LPCM16" trackDst="CH2">&lt;/AudioRecPort>&lt;/AudioFormat>&lt;Device manufacturer="Sony" modelName="PMW-EX3" serialNo="0401525">&lt;/Device>&lt;Lens modelName="VCL-614B2X">&lt;/Lens>&lt;RecordingMode type="normal" cacheRec="false">&lt;/RecordingMode>&lt;/NonRealTimeMeta>
							</value>
						</metadata>
						<metadata>
							<storage>QuickTime</storage>
							<key>com.apple.proapps.reel</key>
							<size>8</size>
							<type>UTF8</type>
							<value>Untitled</value>
						</metadata>
						<metadata>
							<storage>QuickTime</storage>
							<key>com.apple.proapps.clipID</key>
							<size>64</size>
							<type>UTF8</type>
							<value>060A2B340101010501010D431300000084A6D27A545405DF08004602022F05F5</value>
						</metadata>
						<metadata>
							<storage>QuickTime</storage>
							<key>com.apple.quicktime.information</key>
							<size>64</size>
							<type>UTF8</type>
							<value>060a2b340101010501010d431300000084a6d27a545405df08004602022f05f5</value>
						</metadata>
						<metadata>
							<storage>QuickTime</storage>
							<key>com.apple.proapps.originalFormat</key>
							<size>36</size>
							<type>UTF8</type>
							<value>Apple XDCAM EX 1080i50 (35 Mb/s VBR)</value>
						</metadata>
						<timecode>
							<rate>
								<timebase>25</timebase>
							</rate>
							<string>11:50:48:06</string>
							<frame>1066206</frame>
							<displayformat>NDF</displayformat>
							<source>source</source>
							<reel>
								<name>Untitled</name>
							</reel>
						</timecode>
						<media>
							<video>
								<duration>1145</duration>
								<samplecharacteristics>
									<width>1920</width>
									<height>1080</height>
								</samplecharacteristics>
							</video>
							<audio>
								<samplecharacteristics>
									<samplerate>48000</samplerate>
									<depth>16</depth>
								</samplecharacteristics>
								<channelcount>1</channelcount>
								<layout>mono</layout>
								<audiochannel>
									<sourcechannel>1</sourcechannel>
									<channellabel>discrete</channellabel>
								</audiochannel>
							</audio>
							<audio>
								<samplecharacteristics>
									<samplerate>48000</samplerate>
									<depth>16</depth>
								</samplecharacteristics>
								<channelcount>1</channelcount>
								<layout>mono</layout>
								<audiochannel>
									<sourcechannel>2</sourcechannel>
									<channellabel>discrete</channellabel>
								</audiochannel>
							</audio>
						</media>
					</file>
					<sourcetrack>
						<mediatype>video</mediatype>
					</sourcetrack>
					<link>
						<linkclipref>DYR18494_01 </linkclipref>
						<mediatype>video</mediatype>
						<trackindex>1</trackindex>
						<clipindex>137</clipindex>
					</link>
					<link>
						<linkclipref>DYR18494_01 3</linkclipref>
						<mediatype>audio</mediatype>
						<trackindex>1</trackindex>
						<clipindex>138</clipindex>
					</link>
					<link>
						<linkclipref>DYR18494_01 4</linkclipref>
						<mediatype>audio</mediatype>
						<trackindex>2</trackindex>
						<clipindex>142</clipindex>
					</link>
					<fielddominance>upper</fielddominance>
					<itemhistory>
						<uuid>1331299B-E6B0-4037-A03A-F70F2E72463A</uuid>
					</itemhistory>
				</clipitem>
				<clipitem id="DYR18494_01 5">
					<name>DYR18494_01</name>
					<duration>1145</duration>
					<rate>
						<ntsc>FALSE</ntsc>
						<timebase>25</timebase>
					</rate>
					<in>467</in>
					<out>554</out>
					<start>19065</start>
					<end>19152</end>
					<pixelaspectratio>Square</pixelaspectratio>
					<anamorphic>FALSE</anamorphic>
					<alphatype>none</alphatype>
					<masterclipid>DYR18494_01 1</masterclipid>
					<logginginfo>
						<scene/>
						<shottake/>
						<lognote/>
						<good>FALSE</good>
					</logginginfo>
					<labels>
						<label2/>
					</labels>
					<comments>
						<mastercomment1/>
						<mastercomment2/>
						<mastercomment3/>
						<mastercomment4/>
					</comments>
					<file id="DYR18494_01 2"/>
					<sourcetrack>
						<mediatype>video</mediatype>
					</sourcetrack>
					<link>
						<linkclipref>DYR18494_01 5</linkclipref>
						<mediatype>video</mediatype>
						<trackindex>1</trackindex>
						<clipindex>138</clipindex>
					</link>
					<link>
						<linkclipref>DYR18494_01 6</linkclipref>
						<mediatype>audio</mediatype>
						<trackindex>1</trackindex>
						<clipindex>139</clipindex>
					</link>
					<link>
						<linkclipref>DYR18494_01 7</linkclipref>
						<mediatype>audio</mediatype>
						<trackindex>2</trackindex>
						<clipindex>143</clipindex>
					</link>
					<fielddominance>upper</fielddominance>
					<itemhistory>
						<uuid>FD88774A-028E-4AB4-818E-0B35545E612A</uuid>
					</itemhistory>
				</clipitem>
				<clipitem id="DYR18494_01 8">
					<name>DYR18494_01</name>
					<duration>1145</duration>
					<rate>
						<ntsc>FALSE</ntsc>
						<timebase>25</timebase>
					</rate>
					<in>599</in>
					<out>667</out>
					<start>19152</start>
					<end>19220</end>
					<pixelaspectratio>Square</pixelaspectratio>
					<enabled>TRUE</enabled>
					<anamorphic>FALSE</anamorphic>
					<alphatype>none</alphatype>
					<masterclipid>DYR18494_01 1</masterclipid>
					<logginginfo>
						<scene/>
						<shottake/>
						<lognote/>
						<good>FALSE</good>
					</logginginfo>
					<labels>
						<label2/>
					</labels>
					<comments>
						<mastercomment1/>
						<mastercomment2/>
						<mastercomment3/>
						<mastercomment4/>
					</comments>
					<file id="DYR18494_01 2"/>
					<sourcetrack>
						<mediatype>video</mediatype>
					</sourcetrack>
					<link>
						<linkclipref>DYR18494_01 8</linkclipref>
						<mediatype>video</mediatype>
						<trackindex>1</trackindex>
						<clipindex>139</clipindex>
					</link>
					<link>
						<linkclipref>DYR18494_01 9</linkclipref>
						<mediatype>audio</mediatype>
						<trackindex>1</trackindex>
						<clipindex>140</clipindex>
					</link>
					<link>
						<linkclipref>DYR18494_01 10</linkclipref>
						<mediatype>audio</mediatype>
						<trackindex>2</trackindex>
						<clipindex>144</clipindex>
					</link>
					<fielddominance>upper</fielddominance>
					<itemhistory>
						<uuid>C0084C0F-235A-4BB9-85DE-5A9F1882BF48</uuid>
					</itemhistory>
				</clipitem>
				<clipitem id="DYR18516_01 ">
					<name>DYR18516_01</name>
					<duration>2267</duration>
					<rate>
						<ntsc>FALSE</ntsc>
						<timebase>25</timebase>
					</rate>
					<in>177</in>
					<out>279</out>
					<start>19462</start>
					<end>19564</end>
					<pixelaspectratio>Square</pixelaspectratio>
					<enabled>TRUE</enabled>
					<anamorphic>FALSE</anamorphic>
					<alphatype>none</alphatype>
					<masterclipid>DYR18516_01 1</masterclipid>
					<logginginfo>
						<scene/>
						<shottake/>
						<lognote/>
						<good>FALSE</good>
					</logginginfo>
					<labels>
						<label2/>
					</labels>
					<comments>
						<mastercomment1/>
						<mastercomment2/>
						<mastercomment3/>
						<mastercomment4/>
					</comments>
					<file id="DYR18516_01 2">
						<name>DYR18516_01.mov</name>
						<pathurl>file://localhost/Volumes/Askepott/Prosjekter/DNPR637010_Kra%CC%8Akeklubben_TEM_011212/Video/TORDS%20GARASJE/Insekt/Maur/DYR18516_01.mov</pathurl>
						<rate>
							<timebase>25</timebase>
						</rate>
						<duration>2267</duration>
						<metadata>
							<storage>QuickTime</storage>
							<key>com.sony.bprl.xdcamtransfer.version</key>
							<size>10</size>
							<type>UTF8</type>
							<value>2.12.0.631</value>
						</metadata>
						<metadata>
							<storage>QuickTime</storage>
							<key>org.smpte.mxf.package.material.packageid</key>
							<size>66</size>
							<type>UTF8</type>
							<value>0x060a2b340101010501010d4313000000ce0ed082545405c908004602022f05f5</value>
						</metadata>
						<metadata>
							<storage>QuickTime</storage>
							<key>com.sony.professionaldisc.nonrealtimemeta.lastupdate</key>
							<size>25</size>
							<type>UTF8</type>
							<value>2010-09-15 13:17:21 +0100</value>
						</metadata>
						<metadata>
							<storage>QuickTime</storage>
							<key>com.sony.bprl.mxf.umid</key>
							<size>64</size>
							<type>UTF8</type>
							<value>060a2b340101010501010d4313000000ce0ed082545405c908004602022f05f5</value>
						</metadata>
						<metadata>
							<storage>QuickTime</storage>
							<key>com.sony.bprl.mxf.nrtmetadata</key>
							<size>1994</size>
							<type>UTF8</type>
							<value>&lt;?xml version="1.0" encoding="UTF-8"?>&lt;NonRealTimeMeta xmlns="urn:schemas-professionalDisc:nonRealTimeMeta:ver.1.20" xmlns:lib="urn:schemas-professionalDisc:lib:ver.1.20" xmlns:xsi="http://www.w3.org/2001/XMLSchema-instance" lastUpdate="2010-09-15T13:17:21+01:00">&lt;TargetMaterial umidRef="060A2B340101010501010D4313000000CE0ED082545405C908004602022F05F5">&lt;/TargetMaterial>&lt;Duration value="2267">&lt;/Duration>&lt;LtcChangeTable tcFps="25" halfStep="false">&lt;LtcChange frameCount="0" value="07140412" status="increment">&lt;/LtcChange>&lt;LtcChange frameCount="2266" value="23440512" status="end">&lt;/LtcChange>&lt;/LtcChangeTable>&lt;CreationDate value="2010-09-15T13:15:49+01:00">&lt;/CreationDate>&lt;TypicalUbit value="0000000017061020">&lt;/TypicalUbit>&lt;BodyUmidBasicChangeTable>&lt;BodyUmidBasicChange frameCount="0" value="060A2B340101010501010D4333000000CE0ED082545405C908004602022F05F5" status="start">&lt;/BodyUmidBasicChange>&lt;/BodyUmidBasicChangeTable>&lt;BodyUmidWhenChangeTable>&lt;BodyUmidWhenChange frameCount="0" value="04E03504545405A5" status="increment">&lt;/BodyUmidWhenChange>&lt;BodyUmidWhenChange frameCount="2266" value="84163804545405A5" status="end">&lt;/BodyUmidWhenChange>&lt;/BodyUmidWhenChangeTable>&lt;KlvPacketTable>&lt;KlvPacket key="060E2B34010101050301020A02000000" frameCount="0" lengthValue="095F5265635374617274" status="spot">&lt;/KlvPacket>&lt;/KlvPacketTable>&lt;VideoFormat>&lt;VideoRecPort port="DIRECT">&lt;/VideoRecPort>&lt;VideoFrame videoCodec="MPEG2HD35_1920_1080_MP@HL" captureFps="50.00i" recFps="50.00" formatFps="50i">&lt;/VideoFrame>&lt;VideoLayout pixel="1920" numOfVerticalLine="1080" aspectRatio="16:9">&lt;/VideoLayout>&lt;/VideoFormat>&lt;AudioFormat numOfChannel="2">&lt;AudioRecPort port="ANALOG" audioCodec="LPCM16" trackDst="CH1">&lt;/AudioRecPort>&lt;AudioRecPort port="DIRECT" audioCodec="LPCM16" trackDst="CH2">&lt;/AudioRecPort>&lt;/AudioFormat>&lt;Device manufacturer="Sony" modelName="PMW-EX3" serialNo="0401525">&lt;/Device>&lt;Lens modelName="VCL-614B2X">&lt;/Lens>&lt;RecordingMode type="normal" cacheRec="false">&lt;/RecordingMode>&lt;/NonRealTimeMeta>
							</value>
						</metadata>
						<metadata>
							<storage>QuickTime</storage>
							<key>com.apple.proapps.reel</key>
							<size>8</size>
							<type>UTF8</type>
							<value>Untitled</value>
						</metadata>
						<metadata>
							<storage>QuickTime</storage>
							<key>com.apple.proapps.clipID</key>
							<size>64</size>
							<type>UTF8</type>
							<value>060A2B340101010501010D4313000000CE0ED082545405C908004602022F05F5</value>
						</metadata>
						<metadata>
							<storage>QuickTime</storage>
							<key>com.apple.quicktime.information</key>
							<size>64</size>
							<type>UTF8</type>
							<value>060a2b340101010501010d4313000000ce0ed082545405c908004602022f05f5</value>
						</metadata>
						<metadata>
							<storage>QuickTime</storage>
							<key>com.apple.proapps.originalFormat</key>
							<size>36</size>
							<type>UTF8</type>
							<value>Apple XDCAM EX 1080i50 (35 Mb/s VBR)</value>
						</metadata>
						<timecode>
							<rate>
								<timebase>25</timebase>
							</rate>
							<string>12:04:14:07</string>
							<frame>1086357</frame>
							<displayformat>NDF</displayformat>
							<source>source</source>
							<reel>
								<name>Untitled</name>
							</reel>
						</timecode>
						<media>
							<video>
								<duration>2267</duration>
								<samplecharacteristics>
									<width>1920</width>
									<height>1080</height>
								</samplecharacteristics>
							</video>
							<audio>
								<samplecharacteristics>
									<samplerate>48000</samplerate>
									<depth>16</depth>
								</samplecharacteristics>
								<channelcount>1</channelcount>
								<layout>mono</layout>
								<audiochannel>
									<sourcechannel>1</sourcechannel>
									<channellabel>discrete</channellabel>
								</audiochannel>
							</audio>
							<audio>
								<samplecharacteristics>
									<samplerate>48000</samplerate>
									<depth>16</depth>
								</samplecharacteristics>
								<channelcount>1</channelcount>
								<layout>mono</layout>
								<audiochannel>
									<sourcechannel>2</sourcechannel>
									<channellabel>discrete</channellabel>
								</audiochannel>
							</audio>
						</media>
					</file>
					<sourcetrack>
						<mediatype>video</mediatype>
					</sourcetrack>
					<link>
						<linkclipref>DYR18516_01 </linkclipref>
						<mediatype>video</mediatype>
						<trackindex>1</trackindex>
						<clipindex>140</clipindex>
					</link>
					<link>
						<linkclipref>DYR18516_01 3</linkclipref>
						<mediatype>audio</mediatype>
						<trackindex>1</trackindex>
						<clipindex>142</clipindex>
					</link>
					<link>
						<linkclipref>DYR18516_01 4</linkclipref>
						<mediatype>audio</mediatype>
						<trackindex>2</trackindex>
						<clipindex>145</clipindex>
					</link>
					<fielddominance>upper</fielddominance>
					<itemhistory>
						<uuid>EEC2B51A-4FC5-43BA-B8E1-8C335D65A08D</uuid>
					</itemhistory>
				</clipitem>
				<clipitem id="DYR18516_01 5">
					<name>DYR18516_01</name>
					<duration>2267</duration>
					<rate>
						<ntsc>FALSE</ntsc>
						<timebase>25</timebase>
					</rate>
					<in>378</in>
					<out>423</out>
					<start>19615</start>
					<end>19660</end>
					<pixelaspectratio>Square</pixelaspectratio>
					<enabled>TRUE</enabled>
					<anamorphic>FALSE</anamorphic>
					<alphatype>none</alphatype>
					<masterclipid>DYR18516_01 1</masterclipid>
					<logginginfo>
						<scene/>
						<shottake/>
						<lognote/>
						<good>FALSE</good>
					</logginginfo>
					<labels>
						<label2/>
					</labels>
					<comments>
						<mastercomment1/>
						<mastercomment2/>
						<mastercomment3/>
						<mastercomment4/>
					</comments>
					<file id="DYR18516_01 2"/>
					<sourcetrack>
						<mediatype>video</mediatype>
					</sourcetrack>
					<link>
						<linkclipref>DYR18516_01 5</linkclipref>
						<mediatype>video</mediatype>
						<trackindex>1</trackindex>
						<clipindex>141</clipindex>
					</link>
					<link>
						<linkclipref>DYR18516_01 6</linkclipref>
						<mediatype>audio</mediatype>
						<trackindex>1</trackindex>
						<clipindex>143</clipindex>
					</link>
					<link>
						<linkclipref>DYR18516_01 7</linkclipref>
						<mediatype>audio</mediatype>
						<trackindex>2</trackindex>
						<clipindex>146</clipindex>
					</link>
					<fielddominance>upper</fielddominance>
					<itemhistory>
						<uuid>1A8246E9-C0A8-4898-A993-948AA982A06B</uuid>
					</itemhistory>
				</clipitem>
				<clipitem id="DYR18516_01 8">
					<name>DYR18516_01</name>
					<duration>2267</duration>
					<rate>
						<ntsc>FALSE</ntsc>
						<timebase>25</timebase>
					</rate>
					<in>456</in>
					<out>538</out>
					<start>19689</start>
					<end>19771</end>
					<pixelaspectratio>Square</pixelaspectratio>
					<anamorphic>FALSE</anamorphic>
					<alphatype>none</alphatype>
					<masterclipid>DYR18516_01 1</masterclipid>
					<logginginfo>
						<scene/>
						<shottake/>
						<lognote/>
						<good>FALSE</good>
					</logginginfo>
					<labels>
						<label2/>
					</labels>
					<comments>
						<mastercomment1/>
						<mastercomment2/>
						<mastercomment3/>
						<mastercomment4/>
					</comments>
					<file id="DYR18516_01 2"/>
					<sourcetrack>
						<mediatype>video</mediatype>
					</sourcetrack>
					<link>
						<linkclipref>DYR18516_01 8</linkclipref>
						<mediatype>video</mediatype>
						<trackindex>1</trackindex>
						<clipindex>142</clipindex>
					</link>
					<link>
						<linkclipref>DYR18516_01 9</linkclipref>
						<mediatype>audio</mediatype>
						<trackindex>1</trackindex>
						<clipindex>144</clipindex>
					</link>
					<link>
						<linkclipref>DYR18516_01 10</linkclipref>
						<mediatype>audio</mediatype>
						<trackindex>2</trackindex>
						<clipindex>147</clipindex>
					</link>
					<fielddominance>upper</fielddominance>
					<itemhistory>
						<uuid>67051F5A-8554-42A2-BC39-7998BCA94E01</uuid>
					</itemhistory>
				</clipitem>
				<clipitem id="DYR18516_01 11">
					<name>DYR18516_01</name>
					<duration>2267</duration>
					<rate>
						<ntsc>FALSE</ntsc>
						<timebase>25</timebase>
					</rate>
					<in>788</in>
					<out>1025</out>
					<start>19805</start>
					<end>20042</end>
					<pixelaspectratio>Square</pixelaspectratio>
					<enabled>TRUE</enabled>
					<anamorphic>FALSE</anamorphic>
					<alphatype>none</alphatype>
					<masterclipid>DYR18516_01 1</masterclipid>
					<logginginfo>
						<scene/>
						<shottake/>
						<lognote/>
						<good>FALSE</good>
					</logginginfo>
					<labels>
						<label2/>
					</labels>
					<comments>
						<mastercomment1/>
						<mastercomment2/>
						<mastercomment3/>
						<mastercomment4/>
					</comments>
					<file id="DYR18516_01 2"/>
					<sourcetrack>
						<mediatype>video</mediatype>
					</sourcetrack>
					<link>
						<linkclipref>DYR18516_01 11</linkclipref>
						<mediatype>video</mediatype>
						<trackindex>1</trackindex>
						<clipindex>143</clipindex>
					</link>
					<link>
						<linkclipref>DYR18516_01 12</linkclipref>
						<mediatype>audio</mediatype>
						<trackindex>1</trackindex>
						<clipindex>145</clipindex>
					</link>
					<link>
						<linkclipref>DYR18516_01 13</linkclipref>
						<mediatype>audio</mediatype>
						<trackindex>2</trackindex>
						<clipindex>148</clipindex>
					</link>
					<fielddominance>upper</fielddominance>
					<itemhistory>
						<uuid>218015E3-7E5F-46C4-BCC9-290F33A68126</uuid>
					</itemhistory>
				</clipitem>
				<clipitem id="DYR18516_01 14">
					<name>DYR18516_01</name>
					<duration>2267</duration>
					<rate>
						<ntsc>FALSE</ntsc>
						<timebase>25</timebase>
					</rate>
					<in>1610</in>
					<out>1679</out>
					<start>20042</start>
					<end>20111</end>
					<pixelaspectratio>Square</pixelaspectratio>
					<anamorphic>FALSE</anamorphic>
					<alphatype>none</alphatype>
					<masterclipid>DYR18516_01 1</masterclipid>
					<logginginfo>
						<scene/>
						<shottake/>
						<lognote/>
						<good>FALSE</good>
					</logginginfo>
					<labels>
						<label2/>
					</labels>
					<comments>
						<mastercomment1/>
						<mastercomment2/>
						<mastercomment3/>
						<mastercomment4/>
					</comments>
					<file id="DYR18516_01 2"/>
					<sourcetrack>
						<mediatype>video</mediatype>
					</sourcetrack>
					<link>
						<linkclipref>DYR18516_01 14</linkclipref>
						<mediatype>video</mediatype>
						<trackindex>1</trackindex>
						<clipindex>144</clipindex>
					</link>
					<link>
						<linkclipref>DYR18516_01 15</linkclipref>
						<mediatype>audio</mediatype>
						<trackindex>1</trackindex>
						<clipindex>146</clipindex>
					</link>
					<link>
						<linkclipref>DYR18516_01 16</linkclipref>
						<mediatype>audio</mediatype>
						<trackindex>2</trackindex>
						<clipindex>149</clipindex>
					</link>
					<fielddominance>upper</fielddominance>
					<itemhistory>
						<uuid>D4229A61-E3E3-46AB-8302-9465D7F925B7</uuid>
					</itemhistory>
				</clipitem>
				<clipitem id="DYR18517_01 ">
					<name>DYR18517_01</name>
					<duration>3508</duration>
					<rate>
						<ntsc>FALSE</ntsc>
						<timebase>25</timebase>
					</rate>
					<in>384</in>
					<out>449</out>
					<start>20111</start>
					<end>20176</end>
					<pixelaspectratio>Square</pixelaspectratio>
					<anamorphic>FALSE</anamorphic>
					<alphatype>none</alphatype>
					<masterclipid>DYR18517_01 1</masterclipid>
					<logginginfo>
						<scene/>
						<shottake/>
						<lognote/>
						<good>FALSE</good>
					</logginginfo>
					<labels>
						<label2/>
					</labels>
					<comments>
						<mastercomment1/>
						<mastercomment2/>
						<mastercomment3/>
						<mastercomment4/>
					</comments>
					<file id="DYR18517_01 2">
						<name>DYR18517_01.mov</name>
						<pathurl>file://localhost/Volumes/Askepott/Prosjekter/DNPR637010_Kra%CC%8Akeklubben_TEM_011212/Video/TORDS%20GARASJE/Insekt/Maur/DYR18517_01.mov</pathurl>
						<rate>
							<timebase>25</timebase>
						</rate>
						<duration>3508</duration>
						<metadata>
							<storage>QuickTime</storage>
							<key>com.sony.bprl.xdcamtransfer.version</key>
							<size>10</size>
							<type>UTF8</type>
							<value>2.12.0.631</value>
						</metadata>
						<metadata>
							<storage>QuickTime</storage>
							<key>org.smpte.mxf.package.material.packageid</key>
							<size>66</size>
							<type>UTF8</type>
							<value>0x060a2b340101010501010d431300000074342183545405d408004602022f05f5</value>
						</metadata>
						<metadata>
							<storage>QuickTime</storage>
							<key>com.sony.professionaldisc.nonrealtimemeta.lastupdate</key>
							<size>25</size>
							<type>UTF8</type>
							<value>2010-09-15 13:19:57 +0100</value>
						</metadata>
						<metadata>
							<storage>QuickTime</storage>
							<key>com.sony.bprl.mxf.umid</key>
							<size>64</size>
							<type>UTF8</type>
							<value>060a2b340101010501010d431300000074342183545405d408004602022f05f5</value>
						</metadata>
						<metadata>
							<storage>QuickTime</storage>
							<key>com.sony.bprl.mxf.nrtmetadata</key>
							<size>1994</size>
							<type>UTF8</type>
							<value>&lt;?xml version="1.0" encoding="UTF-8"?>&lt;NonRealTimeMeta xmlns="urn:schemas-professionalDisc:nonRealTimeMeta:ver.1.20" xmlns:lib="urn:schemas-professionalDisc:lib:ver.1.20" xmlns:xsi="http://www.w3.org/2001/XMLSchema-instance" lastUpdate="2010-09-15T13:19:57+01:00">&lt;TargetMaterial umidRef="060A2B340101010501010D431300000074342183545405D408004602022F05F5">&lt;/TargetMaterial>&lt;Duration value="3508">&lt;/Duration>&lt;LtcChangeTable tcFps="25" halfStep="false">&lt;LtcChange frameCount="0" value="24440512" status="increment">&lt;/LtcChange>&lt;LtcChange frameCount="3507" value="06050812" status="end">&lt;/LtcChange>&lt;/LtcChangeTable>&lt;CreationDate value="2010-09-15T13:17:36+01:00">&lt;/CreationDate>&lt;TypicalUbit value="0000000017061020">&lt;/TypicalUbit>&lt;BodyUmidBasicChangeTable>&lt;BodyUmidBasicChange frameCount="0" value="060A2B340101010501010D433300000074342183545405D408004602022F05F5" status="start">&lt;/BodyUmidBasicChange>&lt;/BodyUmidBasicChangeTable>&lt;BodyUmidWhenChangeTable>&lt;BodyUmidWhenChange frameCount="0" value="847C3804545405A5" status="increment">&lt;/BodyUmidWhenChange>&lt;BodyUmidWhenChange frameCount="3507" value="44E93B04545405A5" status="end">&lt;/BodyUmidWhenChange>&lt;/BodyUmidWhenChangeTable>&lt;KlvPacketTable>&lt;KlvPacket key="060E2B34010101050301020A02000000" frameCount="0" lengthValue="095F5265635374617274" status="spot">&lt;/KlvPacket>&lt;/KlvPacketTable>&lt;VideoFormat>&lt;VideoRecPort port="DIRECT">&lt;/VideoRecPort>&lt;VideoFrame videoCodec="MPEG2HD35_1920_1080_MP@HL" captureFps="50.00i" recFps="50.00" formatFps="50i">&lt;/VideoFrame>&lt;VideoLayout pixel="1920" numOfVerticalLine="1080" aspectRatio="16:9">&lt;/VideoLayout>&lt;/VideoFormat>&lt;AudioFormat numOfChannel="2">&lt;AudioRecPort port="ANALOG" audioCodec="LPCM16" trackDst="CH1">&lt;/AudioRecPort>&lt;AudioRecPort port="DIRECT" audioCodec="LPCM16" trackDst="CH2">&lt;/AudioRecPort>&lt;/AudioFormat>&lt;Device manufacturer="Sony" modelName="PMW-EX3" serialNo="0401525">&lt;/Device>&lt;Lens modelName="VCL-614B2X">&lt;/Lens>&lt;RecordingMode type="normal" cacheRec="false">&lt;/RecordingMode>&lt;/NonRealTimeMeta>
							</value>
						</metadata>
						<metadata>
							<storage>QuickTime</storage>
							<key>com.apple.proapps.reel</key>
							<size>8</size>
							<type>UTF8</type>
							<value>Untitled</value>
						</metadata>
						<metadata>
							<storage>QuickTime</storage>
							<key>com.apple.proapps.clipID</key>
							<size>64</size>
							<type>UTF8</type>
							<value>060A2B340101010501010D431300000074342183545405D408004602022F05F5</value>
						</metadata>
						<metadata>
							<storage>QuickTime</storage>
							<key>com.apple.quicktime.information</key>
							<size>64</size>
							<type>UTF8</type>
							<value>060a2b340101010501010d431300000074342183545405d408004602022f05f5</value>
						</metadata>
						<metadata>
							<storage>QuickTime</storage>
							<key>com.apple.proapps.originalFormat</key>
							<size>36</size>
							<type>UTF8</type>
							<value>Apple XDCAM EX 1080i50 (35 Mb/s VBR)</value>
						</metadata>
						<timecode>
							<rate>
								<timebase>25</timebase>
							</rate>
							<string>12:05:44:24</string>
							<frame>1088624</frame>
							<displayformat>NDF</displayformat>
							<source>source</source>
							<reel>
								<name>Untitled</name>
							</reel>
						</timecode>
						<media>
							<video>
								<duration>3508</duration>
								<samplecharacteristics>
									<width>1920</width>
									<height>1080</height>
								</samplecharacteristics>
							</video>
							<audio>
								<samplecharacteristics>
									<samplerate>48000</samplerate>
									<depth>16</depth>
								</samplecharacteristics>
								<channelcount>1</channelcount>
								<layout>mono</layout>
								<audiochannel>
									<sourcechannel>1</sourcechannel>
									<channellabel>discrete</channellabel>
								</audiochannel>
							</audio>
							<audio>
								<samplecharacteristics>
									<samplerate>48000</samplerate>
									<depth>16</depth>
								</samplecharacteristics>
								<channelcount>1</channelcount>
								<layout>mono</layout>
								<audiochannel>
									<sourcechannel>2</sourcechannel>
									<channellabel>discrete</channellabel>
								</audiochannel>
							</audio>
						</media>
					</file>
					<sourcetrack>
						<mediatype>video</mediatype>
					</sourcetrack>
					<link>
						<linkclipref>DYR18517_01 </linkclipref>
						<mediatype>video</mediatype>
						<trackindex>1</trackindex>
						<clipindex>145</clipindex>
					</link>
					<link>
						<linkclipref>DYR18517_01 3</linkclipref>
						<mediatype>audio</mediatype>
						<trackindex>1</trackindex>
						<clipindex>147</clipindex>
					</link>
					<link>
						<linkclipref>DYR18517_01 4</linkclipref>
						<mediatype>audio</mediatype>
						<trackindex>2</trackindex>
						<clipindex>150</clipindex>
					</link>
					<fielddominance>upper</fielddominance>
					<itemhistory>
						<uuid>F9140472-FC45-4654-97A8-33D5F45C9A14</uuid>
					</itemhistory>
				</clipitem>
				<clipitem id="DYR18517_01 5">
					<name>DYR18517_01</name>
					<duration>3508</duration>
					<rate>
						<ntsc>FALSE</ntsc>
						<timebase>25</timebase>
					</rate>
					<in>1466</in>
					<out>1547</out>
					<start>20176</start>
					<end>20257</end>
					<pixelaspectratio>Square</pixelaspectratio>
					<enabled>TRUE</enabled>
					<anamorphic>FALSE</anamorphic>
					<alphatype>none</alphatype>
					<masterclipid>DYR18517_01 1</masterclipid>
					<logginginfo>
						<scene/>
						<shottake/>
						<lognote/>
						<good>FALSE</good>
					</logginginfo>
					<labels>
						<label2/>
					</labels>
					<comments>
						<mastercomment1/>
						<mastercomment2/>
						<mastercomment3/>
						<mastercomment4/>
					</comments>
					<file id="DYR18517_01 2"/>
					<sourcetrack>
						<mediatype>video</mediatype>
					</sourcetrack>
					<link>
						<linkclipref>DYR18517_01 5</linkclipref>
						<mediatype>video</mediatype>
						<trackindex>1</trackindex>
						<clipindex>146</clipindex>
					</link>
					<link>
						<linkclipref>DYR18517_01 6</linkclipref>
						<mediatype>audio</mediatype>
						<trackindex>1</trackindex>
						<clipindex>148</clipindex>
					</link>
					<link>
						<linkclipref>DYR18517_01 7</linkclipref>
						<mediatype>audio</mediatype>
						<trackindex>2</trackindex>
						<clipindex>151</clipindex>
					</link>
					<fielddominance>upper</fielddominance>
					<itemhistory>
						<uuid>636793C1-51F8-4E84-A4E8-F58C744DBC01</uuid>
					</itemhistory>
				</clipitem>
				<clipitem id="DYR18527_01 ">
					<name>DYR18527_01</name>
					<duration>2587</duration>
					<rate>
						<ntsc>FALSE</ntsc>
						<timebase>25</timebase>
					</rate>
					<in>469</in>
					<out>860</out>
					<start>20329</start>
					<end>20720</end>
					<pixelaspectratio>Square</pixelaspectratio>
					<enabled>TRUE</enabled>
					<anamorphic>FALSE</anamorphic>
					<alphatype>none</alphatype>
					<masterclipid>DYR18527_01 1</masterclipid>
					<logginginfo>
						<scene/>
						<shottake/>
						<lognote/>
						<good>FALSE</good>
					</logginginfo>
					<labels>
						<label2/>
					</labels>
					<comments>
						<mastercomment1/>
						<mastercomment2/>
						<mastercomment3/>
						<mastercomment4/>
					</comments>
					<file id="DYR18527_01 2">
						<name>DYR18527_01.mov</name>
						<pathurl>file://localhost/Volumes/Askepott/Prosjekter/DNPR637010_Kra%CC%8Akeklubben_TEM_011212/Video/TORDS%20GARASJE/Insekt/Maur/DYR18527_01.mov</pathurl>
						<rate>
							<timebase>25</timebase>
						</rate>
						<duration>2587</duration>
						<metadata>
							<storage>QuickTime</storage>
							<key>com.sony.bprl.xdcamtransfer.version</key>
							<size>10</size>
							<type>UTF8</type>
							<value>2.12.0.631</value>
						</metadata>
						<metadata>
							<storage>QuickTime</storage>
							<key>org.smpte.mxf.package.material.packageid</key>
							<size>66</size>
							<type>UTF8</type>
							<value>0x060a2b340101010501010d43130000004c410287545405c808004602022f05f5</value>
						</metadata>
						<metadata>
							<storage>QuickTime</storage>
							<key>com.sony.professionaldisc.nonrealtimemeta.lastupdate</key>
							<size>25</size>
							<type>UTF8</type>
							<value>2010-09-15 13:41:10 +0100</value>
						</metadata>
						<metadata>
							<storage>QuickTime</storage>
							<key>com.sony.bprl.mxf.umid</key>
							<size>64</size>
							<type>UTF8</type>
							<value>060a2b340101010501010d43130000004c410287545405c808004602022f05f5</value>
						</metadata>
						<metadata>
							<storage>QuickTime</storage>
							<key>com.sony.bprl.mxf.nrtmetadata</key>
							<size>1994</size>
							<type>UTF8</type>
							<value>&lt;?xml version="1.0" encoding="UTF-8"?>&lt;NonRealTimeMeta xmlns="urn:schemas-professionalDisc:nonRealTimeMeta:ver.1.20" xmlns:lib="urn:schemas-professionalDisc:lib:ver.1.20" xmlns:xsi="http://www.w3.org/2001/XMLSchema-instance" lastUpdate="2010-09-15T13:41:10+01:00">&lt;TargetMaterial umidRef="060A2B340101010501010D43130000004C410287545405C808004602022F05F5">&lt;/TargetMaterial>&lt;Duration value="2587">&lt;/Duration>&lt;LtcChangeTable tcFps="25" halfStep="false">&lt;LtcChange frameCount="0" value="17291412" status="increment">&lt;/LtcChange>&lt;LtcChange frameCount="2586" value="03131612" status="end">&lt;/LtcChange>&lt;/LtcChangeTable>&lt;CreationDate value="2010-09-15T13:39:25+01:00">&lt;/CreationDate>&lt;TypicalUbit value="0000000017061020">&lt;/TypicalUbit>&lt;BodyUmidBasicChangeTable>&lt;BodyUmidBasicChange frameCount="0" value="060A2B340101010501010D43330000004C410287545405C808004602022F05F5" status="start">&lt;/BodyUmidBasicChange>&lt;/BodyUmidBasicChangeTable>&lt;BodyUmidWhenChangeTable>&lt;BodyUmidWhenChange frameCount="0" value="44735804545405A5" status="increment">&lt;/BodyUmidWhenChange>&lt;BodyUmidWhenChange frameCount="2586" value="C4F95A04545405A5" status="end">&lt;/BodyUmidWhenChange>&lt;/BodyUmidWhenChangeTable>&lt;KlvPacketTable>&lt;KlvPacket key="060E2B34010101050301020A02000000" frameCount="0" lengthValue="095F5265635374617274" status="spot">&lt;/KlvPacket>&lt;/KlvPacketTable>&lt;VideoFormat>&lt;VideoRecPort port="DIRECT">&lt;/VideoRecPort>&lt;VideoFrame videoCodec="MPEG2HD35_1920_1080_MP@HL" captureFps="50.00i" recFps="50.00" formatFps="50i">&lt;/VideoFrame>&lt;VideoLayout pixel="1920" numOfVerticalLine="1080" aspectRatio="16:9">&lt;/VideoLayout>&lt;/VideoFormat>&lt;AudioFormat numOfChannel="2">&lt;AudioRecPort port="ANALOG" audioCodec="LPCM16" trackDst="CH1">&lt;/AudioRecPort>&lt;AudioRecPort port="DIRECT" audioCodec="LPCM16" trackDst="CH2">&lt;/AudioRecPort>&lt;/AudioFormat>&lt;Device manufacturer="Sony" modelName="PMW-EX3" serialNo="0401525">&lt;/Device>&lt;Lens modelName="VCL-614B2X">&lt;/Lens>&lt;RecordingMode type="normal" cacheRec="false">&lt;/RecordingMode>&lt;/NonRealTimeMeta>
							</value>
						</metadata>
						<metadata>
							<storage>QuickTime</storage>
							<key>com.apple.proapps.reel</key>
							<size>8</size>
							<type>UTF8</type>
							<value>Untitled</value>
						</metadata>
						<metadata>
							<storage>QuickTime</storage>
							<key>com.apple.proapps.clipID</key>
							<size>64</size>
							<type>UTF8</type>
							<value>060A2B340101010501010D43130000004C410287545405C808004602022F05F5</value>
						</metadata>
						<metadata>
							<storage>QuickTime</storage>
							<key>com.apple.quicktime.information</key>
							<size>64</size>
							<type>UTF8</type>
							<value>060a2b340101010501010d43130000004c410287545405c808004602022f05f5</value>
						</metadata>
						<metadata>
							<storage>QuickTime</storage>
							<key>com.apple.proapps.originalFormat</key>
							<size>36</size>
							<type>UTF8</type>
							<value>Apple XDCAM EX 1080i50 (35 Mb/s VBR)</value>
						</metadata>
						<timecode>
							<rate>
								<timebase>25</timebase>
							</rate>
							<string>12:14:29:17</string>
							<frame>1101742</frame>
							<displayformat>NDF</displayformat>
							<source>source</source>
							<reel>
								<name>Untitled</name>
							</reel>
						</timecode>
						<media>
							<video>
								<duration>2587</duration>
								<samplecharacteristics>
									<width>1920</width>
									<height>1080</height>
								</samplecharacteristics>
							</video>
							<audio>
								<samplecharacteristics>
									<samplerate>48000</samplerate>
									<depth>16</depth>
								</samplecharacteristics>
								<channelcount>1</channelcount>
								<layout>mono</layout>
								<audiochannel>
									<sourcechannel>1</sourcechannel>
									<channellabel>discrete</channellabel>
								</audiochannel>
							</audio>
							<audio>
								<samplecharacteristics>
									<samplerate>48000</samplerate>
									<depth>16</depth>
								</samplecharacteristics>
								<channelcount>1</channelcount>
								<layout>mono</layout>
								<audiochannel>
									<sourcechannel>2</sourcechannel>
									<channellabel>discrete</channellabel>
								</audiochannel>
							</audio>
						</media>
					</file>
					<filter>
						<effect>
							<name>Basic Motion</name>
							<effectid>basic</effectid>
							<effectcategory>motion</effectcategory>
							<effecttype>motion</effecttype>
							<mediatype>video</mediatype>
							<parameter>
								<parameterid>scale</parameterid>
								<name>Scale</name>
								<valuemin>0</valuemin>
								<valuemax>1000</valuemax>
								<value>100</value>
							</parameter>
							<parameter>
								<parameterid>rotation</parameterid>
								<name>Rotation</name>
								<valuemin>-8640</valuemin>
								<valuemax>8640</valuemax>
								<value>0</value>
							</parameter>
							<parameter>
								<parameterid>center</parameterid>
								<name>Center</name>
								<value>
									<horiz>0</horiz>
									<vert>0</vert>
								</value>
							</parameter>
							<parameter>
								<parameterid>centerOffset</parameterid>
								<name>Anchor Point</name>
								<value>
									<horiz>0</horiz>
									<vert>0</vert>
								</value>
							</parameter>
						</effect>
					</filter>
					<filter>
						<enabled>FALSE</enabled>
						<effect>
							<name>Drop Shadow</name>
							<effectid>dropshadow</effectid>
							<effectcategory>motion</effectcategory>
							<effecttype>motion</effecttype>
							<mediatype>video</mediatype>
							<parameter>
								<parameterid>offset</parameterid>
								<name>offset</name>
								<valuemin>-100</valuemin>
								<valuemax>100</valuemax>
								<value>2</value>
							</parameter>
							<parameter>
								<parameterid>angle</parameterid>
								<name>angle</name>
								<valuemin>-720</valuemin>
								<valuemax>720</valuemax>
								<value>135</value>
							</parameter>
							<parameter>
								<parameterid>color</parameterid>
								<name>color</name>
								<value>
									<alpha>0</alpha>
									<red>0</red>
									<green>0</green>
									<blue>0</blue>
								</value>
							</parameter>
							<parameter>
								<parameterid>softness</parameterid>
								<name>softness</name>
								<valuemin>0</valuemin>
								<valuemax>100</valuemax>
								<value>10</value>
							</parameter>
							<parameter>
								<parameterid>opacity</parameterid>
								<name>opacity</name>
								<valuemin>0</valuemin>
								<valuemax>100</valuemax>
								<value>50</value>
							</parameter>
						</effect>
					</filter>
					<filter>
						<enabled>FALSE</enabled>
						<effect>
							<name>Motion Blur</name>
							<effectid>motionblur</effectid>
							<effectcategory>motion</effectcategory>
							<effecttype>motion</effecttype>
							<mediatype>video</mediatype>
							<parameter>
								<parameterid>duration</parameterid>
								<name>% Blur</name>
								<valuemin>0</valuemin>
								<valuemax>1000</valuemax>
								<value>500</value>
							</parameter>
							<parameter>
								<parameterid>samples</parameterid>
								<name>Samples</name>
								<valuemin>1</valuemin>
								<valuemax>16</valuemax>
								<value>4</value>
							</parameter>
						</effect>
					</filter>
					<filter>
						<effect>
							<name>Crop</name>
							<effectid>crop</effectid>
							<effectcategory>motion</effectcategory>
							<effecttype>motion</effecttype>
							<mediatype>video</mediatype>
							<parameter>
								<parameterid>left</parameterid>
								<name>left</name>
								<valuemin>0</valuemin>
								<valuemax>100</valuemax>
								<value>0</value>
							</parameter>
							<parameter>
								<parameterid>right</parameterid>
								<name>right</name>
								<valuemin>0</valuemin>
								<valuemax>100</valuemax>
								<value>0</value>
							</parameter>
							<parameter>
								<parameterid>top</parameterid>
								<name>top</name>
								<valuemin>0</valuemin>
								<valuemax>100</valuemax>
								<value>0</value>
							</parameter>
							<parameter>
								<parameterid>bottom</parameterid>
								<name>bottom</name>
								<valuemin>0</valuemin>
								<valuemax>100</valuemax>
								<value>0</value>
							</parameter>
							<parameter>
								<parameterid>edgefeather</parameterid>
								<name>edgefeather</name>
								<valuemin>0</valuemin>
								<valuemax>100</valuemax>
								<value>0</value>
							</parameter>
						</effect>
					</filter>
					<filter>
						<effect>
							<name>Distort</name>
							<effectid>deformation</effectid>
							<effectcategory>motion</effectcategory>
							<effecttype>motion</effecttype>
							<mediatype>video</mediatype>
							<parameter>
								<parameterid>ulcorner</parameterid>
								<name>Upper Left</name>
								<value>
									<horiz>-0.5</horiz>
									<vert>-0.5</vert>
								</value>
							</parameter>
							<parameter>
								<parameterid>urcorner</parameterid>
								<name>Upper Right</name>
								<value>
									<horiz>0.5</horiz>
									<vert>-0.5</vert>
								</value>
							</parameter>
							<parameter>
								<parameterid>lrcorner</parameterid>
								<name>Lower Right</name>
								<value>
									<horiz>0.5</horiz>
									<vert>0.5</vert>
								</value>
							</parameter>
							<parameter>
								<parameterid>llcorner</parameterid>
								<name>Lower Left</name>
								<value>
									<horiz>-0.5</horiz>
									<vert>0.5</vert>
								</value>
							</parameter>
							<parameter>
								<parameterid>aspect</parameterid>
								<name>Aspect</name>
								<valuemin>-10000</valuemin>
								<valuemax>10000</valuemax>
								<value>0</value>
							</parameter>
						</effect>
					</filter>
					<filter>
						<effect>
							<name>Opacity</name>
							<effectid>opacity</effectid>
							<effectcategory>motion</effectcategory>
							<effecttype>motion</effecttype>
							<mediatype>video</mediatype>
							<parameter>
								<parameterid>opacity</parameterid>
								<name>opacity</name>
								<valuemin>0</valuemin>
								<valuemax>100</valuemax>
								<value>100</value>
							</parameter>
						</effect>
					</filter>
					<sourcetrack>
						<mediatype>video</mediatype>
					</sourcetrack>
					<link>
						<linkclipref>DYR18527_01 </linkclipref>
						<mediatype>video</mediatype>
						<trackindex>1</trackindex>
						<clipindex>147</clipindex>
					</link>
					<link>
						<linkclipref>DYR18527_01 3</linkclipref>
						<mediatype>audio</mediatype>
						<trackindex>1</trackindex>
						<clipindex>149</clipindex>
					</link>
					<fielddominance>upper</fielddominance>
					<itemhistory>
						<uuid>1B849247-E0A8-4B1B-BAF1-D58339D34279</uuid>
					</itemhistory>
					<filter>
						<effect>
							<name>Time Remap</name>
							<effectid>timeremap</effectid>
							<effectcategory>motion</effectcategory>
							<effecttype>motion</effecttype>
							<mediatype>video</mediatype>
							<parameter>
								<parameterid>variablespeed</parameterid>
								<name>variablespeed</name>
								<valuemin>0</valuemin>
								<valuemax>1</valuemax>
								<value>1</value>
							</parameter>
							<parameter>
								<parameterid>mappedduration</parameterid>
								<name>mappedduration</name>
								<value>
									<timecode>
										<rate>
											<timebase>0</timebase>
										</rate>
										<string>0</string>
										<frame>0</frame>
										<displayformat>NDF</displayformat>
									</timecode>
								</value>
							</parameter>
							<parameter>
								<parameterid>speed</parameterid>
								<name>speed</name>
								<valuemin>-10000</valuemin>
								<valuemax>10000</valuemax>
								<value>113</value>
							</parameter>
							<parameter>
								<parameterid>reverse</parameterid>
								<name>reverse</name>
								<value>FALSE</value>
							</parameter>
							<parameter>
								<parameterid>frameblending</parameterid>
								<name>frameblending</name>
								<value>TRUE</value>
							</parameter>
							<parameter>
								<parameterid>graphdict</parameterid>
								<name>graphdict</name>
								<valuemin>0</valuemin>
								<valuemax>2586</valuemax>
								<keyframe>
									<when>0</when>
									<value>0</value>
									<speedkfstart>TRUE</speedkfstart>
									<speedvirtualkf>TRUE</speedvirtualkf>
								</keyframe>
								<keyframe>
									<when>469</when>
									<value>469</value>
									<speedkfin>TRUE</speedkfin>
									<speedvirtualkf>TRUE</speedvirtualkf>
								</keyframe>
								<keyframe>
									<when>731</when>
									<value>731</value>
								</keyframe>
								<keyframe>
									<when>790</when>
									<value>790</value>
									<inbez>
										<horiz>20.1434</horiz>
										<vert>-2.11156</vert>
									</inbez>
									<outbez>
										<horiz>236.599</horiz>
										<vert>1.03003</vert>
									</outbez>
								</keyframe>
								<keyframe>
									<when>860</when>
									<value>913.921</value>
									<speedkfout>TRUE</speedkfout>
									<speedvirtualkf>TRUE</speedvirtualkf>
								</keyframe>
								<keyframe>
									<when>1437</when>
									<value>2239</value>
								</keyframe>
								<keyframe>
									<when>2587</when>
									<value>2587</value>
									<speedkfend>TRUE</speedkfend>
									<speedvirtualkf>TRUE</speedvirtualkf>
								</keyframe>
								<interpolation>
									<name>FCPCurve</name>
								</interpolation>
								<value>469</value>
							</parameter>
						</effect>
					</filter>
				</clipitem>
				<transitionitem>
					<rate>
						<ntsc>FALSE</ntsc>
						<timebase>25</timebase>
					</rate>
					<start>20720</start>
					<end>20725</end>
					<alignment>center</alignment>
					<effect>
						<name>Cross Dissolve</name>
						<effectid>Cross Dissolve</effectid>
						<effectcategory>Dissolve</effectcategory>
						<effecttype>transition</effecttype>
						<mediatype>video</mediatype>
						<wipecode>0</wipecode>
						<wipeaccuracy>100</wipeaccuracy>
						<startratio>0</startratio>
						<endratio>1</endratio>
						<reverse>FALSE</reverse>
					</effect>
				</transitionitem>
				<clipitem id="00834001.MOV">
					<name>00834001.MOV</name>
					<duration>1044</duration>
					<rate>
						<ntsc>FALSE</ntsc>
						<timebase>25</timebase>
					</rate>
					<in>225</in>
					<out>876</out>
					<start>-1</start>
					<end>21371</end>
					<pixelaspectratio>Square</pixelaspectratio>
					<enabled>TRUE</enabled>
					<anamorphic>FALSE</anamorphic>
					<alphatype>none</alphatype>
					<masterclipid>00834001.MOV1</masterclipid>
					<logginginfo>
						<scene/>
						<shottake/>
						<lognote/>
						<good>FALSE</good>
					</logginginfo>
					<labels>
						<label2/>
					</labels>
					<comments>
						<mastercomment1/>
						<mastercomment2/>
						<mastercomment3/>
						<mastercomment4/>
					</comments>
					<file id="00834001 ">
						<name>00834001.MOV</name>
						<pathurl>file://localhost/Volumes/Askepott/Prosjekter/DNPR637010_Kra%CC%8Akeklubben_TEM_011212/Video/MELLOMSTIKK/S01E05%20Dyrebolig/DAG2/00834001.MOV</pathurl>
						<rate>
							<timebase>25</timebase>
						</rate>
						<duration>1044</duration>
						<timecode>
							<rate>
								<timebase>25</timebase>
							</rate>
							<string>18:37:27:14</string>
							<frame>1676189</frame>
							<displayformat>NDF</displayformat>
							<source>source</source>
							<reel>
								<name>Flash XDR</name>
							</reel>
						</timecode>
						<media>
							<video>
								<duration>1044</duration>
								<samplecharacteristics>
									<width>1920</width>
									<height>1080</height>
								</samplecharacteristics>
							</video>
							<audio>
								<samplecharacteristics>
									<samplerate>48000</samplerate>
									<depth>24</depth>
								</samplecharacteristics>
								<channelcount>1</channelcount>
							</audio>
							<audio>
								<samplecharacteristics>
									<samplerate>48000</samplerate>
									<depth>24</depth>
								</samplecharacteristics>
								<channelcount>1</channelcount>
							</audio>
						</media>
					</file>
					<filter>
						<enabled>TRUE</enabled>
						<start>-1</start>
						<end>-1</end>
						<effect>
							<name>Color Corrector - Lua til Carina</name>
							<effectid>Color Corrector</effectid>
							<effectcategory>Color Correction</effectcategory>
							<effecttype>filter</effecttype>
							<mediatype>video</mediatype>
							<parameter>
								<parameterid>dispmode</parameterid>
								<name>Display Mode</name>
								<valuemin>1</valuemin>
								<valuemax>3</valuemax>
								<valuelist>
									<valueentry>
										<name>Final</name>
										<value>1</value>
									</valueentry>
									<valueentry>
										<name>Matte</name>
										<value>2</value>
									</valueentry>
									<valueentry>
										<name>Source</name>
										<value>3</value>
									</valueentry>
								</valuelist>
								<value>1</value>
							</parameter>
							<parameter>
								<parameterid>label1</parameterid>
								<name>Level Controls</name>
								<value/>
							</parameter>
							<parameter>
								<parameterid>highlights</parameterid>
								<name>Highlights</name>
								<valuemin>64</valuemin>
								<valuemax>509</valuemax>
								<value>247</value>
							</parameter>
							<parameter>
								<parameterid>mids</parameterid>
								<name>Mids</name>
								<valuemin>0</valuemin>
								<valuemax>200</valuemax>
								<value>100</value>
							</parameter>
							<parameter>
								<parameterid>blacklevel</parameterid>
								<name>Blacks</name>
								<valuemin>-196</valuemin>
								<valuemax>254</valuemax>
								<value>-3</value>
							</parameter>
							<parameter>
								<parameterid>label2</parameterid>
								<name>Color Balance</name>
								<value/>
							</parameter>
							<parameter>
								<parameterid>hue</parameterid>
								<name>Angle</name>
								<valuemin>-180</valuemin>
								<valuemax>180</valuemax>
								<value>-33</value>
							</parameter>
							<parameter>
								<parameterid>mag</parameterid>
								<name>Magnitude</name>
								<valuemin>0</valuemin>
								<valuemax>200</valuemax>
								<value>0</value>
							</parameter>
							<parameter>
								<parameterid>label4</parameterid>
								<name>Color Controls</name>
								<value/>
							</parameter>
							<parameter>
								<parameterid>chroma</parameterid>
								<name>Saturation</name>
								<valuemin>0</valuemin>
								<valuemax>200</valuemax>
								<value>84</value>
							</parameter>
							<parameter>
								<parameterid>phase</parameterid>
								<name>Phase shift</name>
								<valuemin>-180</valuemin>
								<valuemax>180</valuemax>
								<value>0</value>
							</parameter>
							<parameter>
								<parameterid>label5</parameterid>
								<name>Limit Effect Controls</name>
								<value/>
							</parameter>
							<parameter>
								<parameterid>dochroma</parameterid>
								<name>Limit on Chroma</name>
								<value>TRUE</value>
							</parameter>
							<parameter>
								<parameterid>centerang</parameterid>
								<name>Chroma Center</name>
								<valuemin>-760</valuemin>
								<valuemax>760</valuemax>
								<value>322.256</value>
							</parameter>
							<parameter>
								<parameterid>chromawidth</parameterid>
								<name>Chroma Width</name>
								<valuemin>0</valuemin>
								<valuemax>360</valuemax>
								<value>7.49567</value>
							</parameter>
							<parameter>
								<parameterid>chromasoft</parameterid>
								<name>Chroma Softness</name>
								<valuemin>0</valuemin>
								<valuemax>180</valuemax>
								<value>10.6152</value>
							</parameter>
							<parameter>
								<parameterid>dosat</parameterid>
								<name>Limit on Saturation</name>
								<value>TRUE</value>
							</parameter>
							<parameter>
								<parameterid>satmin</parameterid>
								<name>Sat. Minimum</name>
								<valuemin>0</valuemin>
								<valuemax>125</valuemax>
								<value>36.7837</value>
							</parameter>
							<parameter>
								<parameterid>satwidth</parameterid>
								<name>Sat. Width</name>
								<valuemin>0</valuemin>
								<valuemax>125</valuemax>
								<value>84.0889</value>
							</parameter>
							<parameter>
								<parameterid>satsoft</parameterid>
								<name>Sat. Softness</name>
								<valuemin>0</valuemin>
								<valuemax>125</valuemax>
								<value>5</value>
							</parameter>
							<parameter>
								<parameterid>doluma</parameterid>
								<name>Limit on Luma</name>
								<value>TRUE</value>
							</parameter>
							<parameter>
								<parameterid>lumamin</parameterid>
								<name>Luma Minimum</name>
								<valuemin>0</valuemin>
								<valuemax>120</valuemax>
								<value>0.939667</value>
							</parameter>
							<parameter>
								<parameterid>lumawidth</parameterid>
								<name>Luma Width</name>
								<valuemin>0</valuemin>
								<valuemax>120</valuemax>
								<value>115.45</value>
							</parameter>
							<parameter>
								<parameterid>lumasoft</parameterid>
								<name>Luma Softness</name>
								<valuemin>0</valuemin>
								<valuemax>120</valuemax>
								<value>15.1099</value>
							</parameter>
							<parameter>
								<parameterid>label6</parameterid>
								<name>Edge Control</name>
								<value/>
							</parameter>
							<parameter>
								<parameterid>edgethin</parameterid>
								<name>Thin/Spread</name>
								<valuemin>-100</valuemin>
								<valuemax>100</valuemax>
								<value>0</value>
							</parameter>
							<parameter>
								<parameterid>edgefeather</parameterid>
								<name>Softening</name>
								<valuemin>0</valuemin>
								<valuemax>100</valuemax>
								<value>0</value>
							</parameter>
							<parameter>
								<parameterid>label7</parameterid>
								<name>Mask Control</name>
								<value/>
							</parameter>
							<parameter>
								<parameterid>invertsel</parameterid>
								<name>Invert</name>
								<value>FALSE</value>
							</parameter>
							<parameter>
								<parameterid>debugshow</parameterid>
								<name>Show Stats</name>
								<value>FALSE</value>
							</parameter>
						</effect>
					</filter>
					<filter>
						<start>-1</start>
						<end>-1</end>
						<effect>
							<name>G Simple Curves -15 white curve</name>
							<effectcategory>Nattress Big Box of Tricks - Levels and Curves</effectcategory>
							<effecttype>filter</effecttype>
							<mediatype>video</mediatype>
							<parameter>
								<parameterid>colourspace</parameterid>
								<name>Colour Space</name>
								<valuemin>1</valuemin>
								<valuemax>2</valuemax>
								<valuelist>
									<valueentry>
										<name>RGB</name>
										<value>1</value>
									</valueentry>
									<valueentry>
										<name>Y'CbCr</name>
										<value>2</value>
									</valueentry>
								</valuelist>
								<value>2</value>
							</parameter>
							<parameter>
								<parameterid>showcurves</parameterid>
								<name>Show Curves</name>
								<value>FALSE</value>
							</parameter>
							<parameter>
								<parameterid>lvar</parameterid>
								<name>Levels Controls</name>
								<value>string</value>
							</parameter>
							<parameter>
								<parameterid>inw</parameterid>
								<name>White Level</name>
								<valuemin>0</valuemin>
								<valuemax>255</valuemax>
								<value>255</value>
							</parameter>
							<parameter>
								<parameterid>inb</parameterid>
								<name>Black Level</name>
								<valuemin>0</valuemin>
								<valuemax>255</valuemax>
								<value>0</value>
							</parameter>
							<parameter>
								<parameterid>outw</parameterid>
								<name>White Output</name>
								<valuemin>0</valuemin>
								<valuemax>255</valuemax>
								<value>255</value>
							</parameter>
							<parameter>
								<parameterid>outb</parameterid>
								<name>Black Output</name>
								<valuemin>0</valuemin>
								<valuemax>255</valuemax>
								<value>0</value>
							</parameter>
							<parameter>
								<parameterid>cvar</parameterid>
								<name>Curves Controls</name>
								<value>string</value>
							</parameter>
							<parameter>
								<parameterid>curvew</parameterid>
								<name>White Curve</name>
								<valuemin>-100</valuemin>
								<valuemax>100</valuemax>
								<value>-15</value>
							</parameter>
							<parameter>
								<parameterid>curveb</parameterid>
								<name>Black Curve</name>
								<valuemin>-100</valuemin>
								<valuemax>100</valuemax>
								<value>0</value>
							</parameter>
							<parameter>
								<parameterid>clipoutput</parameterid>
								<name>Clip Output Levels</name>
								<value>TRUE</value>
							</parameter>
							<parameter>
								<parameterid>copyright</parameterid>
								<name>© www.nattress.com</name>
								<value>string</value>
							</parameter>
						</effect>
					</filter>
					<filter>
						<start>-1</start>
						<end>-1</end>
						<effect>
							<name>Color Corrector - Lua til Carina 3 bittelitt</name>
							<effectid>Color Corrector</effectid>
							<effectcategory>Color Correction</effectcategory>
							<effecttype>filter</effecttype>
							<mediatype>video</mediatype>
							<parameter>
								<parameterid>dispmode</parameterid>
								<name>Display Mode</name>
								<valuemin>1</valuemin>
								<valuemax>3</valuemax>
								<valuelist>
									<valueentry>
										<name>Final</name>
										<value>1</value>
									</valueentry>
									<valueentry>
										<name>Matte</name>
										<value>2</value>
									</valueentry>
									<valueentry>
										<name>Source</name>
										<value>3</value>
									</valueentry>
								</valuelist>
								<value>1</value>
							</parameter>
							<parameter>
								<parameterid>label1</parameterid>
								<name>Level Controls</name>
								<value/>
							</parameter>
							<parameter>
								<parameterid>highlights</parameterid>
								<name>Highlights</name>
								<valuemin>64</valuemin>
								<valuemax>509</valuemax>
								<value>247</value>
							</parameter>
							<parameter>
								<parameterid>mids</parameterid>
								<name>Mids</name>
								<valuemin>0</valuemin>
								<valuemax>200</valuemax>
								<value>100</value>
							</parameter>
							<parameter>
								<parameterid>blacklevel</parameterid>
								<name>Blacks</name>
								<valuemin>-196</valuemin>
								<valuemax>254</valuemax>
								<value>-3</value>
							</parameter>
							<parameter>
								<parameterid>label2</parameterid>
								<name>Color Balance</name>
								<value/>
							</parameter>
							<parameter>
								<parameterid>hue</parameterid>
								<name>Angle</name>
								<valuemin>-180</valuemin>
								<valuemax>180</valuemax>
								<value>-33</value>
							</parameter>
							<parameter>
								<parameterid>mag</parameterid>
								<name>Magnitude</name>
								<valuemin>0</valuemin>
								<valuemax>200</valuemax>
								<value>0</value>
							</parameter>
							<parameter>
								<parameterid>label4</parameterid>
								<name>Color Controls</name>
								<value/>
							</parameter>
							<parameter>
								<parameterid>chroma</parameterid>
								<name>Saturation</name>
								<valuemin>0</valuemin>
								<valuemax>200</valuemax>
								<value>94</value>
							</parameter>
							<parameter>
								<parameterid>phase</parameterid>
								<name>Phase shift</name>
								<valuemin>-180</valuemin>
								<valuemax>180</valuemax>
								<value>0</value>
							</parameter>
							<parameter>
								<parameterid>label5</parameterid>
								<name>Limit Effect Controls</name>
								<value/>
							</parameter>
							<parameter>
								<parameterid>dochroma</parameterid>
								<name>Limit on Chroma</name>
								<value>TRUE</value>
							</parameter>
							<parameter>
								<parameterid>centerang</parameterid>
								<name>Chroma Center</name>
								<valuemin>-760</valuemin>
								<valuemax>760</valuemax>
								<value>322.256</value>
							</parameter>
							<parameter>
								<parameterid>chromawidth</parameterid>
								<name>Chroma Width</name>
								<valuemin>0</valuemin>
								<valuemax>360</valuemax>
								<value>8.11959</value>
							</parameter>
							<parameter>
								<parameterid>chromasoft</parameterid>
								<name>Chroma Softness</name>
								<valuemin>0</valuemin>
								<valuemax>180</valuemax>
								<value>26.8371</value>
							</parameter>
							<parameter>
								<parameterid>dosat</parameterid>
								<name>Limit on Saturation</name>
								<value>TRUE</value>
							</parameter>
							<parameter>
								<parameterid>satmin</parameterid>
								<name>Sat. Minimum</name>
								<valuemin>0</valuemin>
								<valuemax>125</valuemax>
								<value>36.7837</value>
							</parameter>
							<parameter>
								<parameterid>satwidth</parameterid>
								<name>Sat. Width</name>
								<valuemin>0</valuemin>
								<valuemax>125</valuemax>
								<value>84.0889</value>
							</parameter>
							<parameter>
								<parameterid>satsoft</parameterid>
								<name>Sat. Softness</name>
								<valuemin>0</valuemin>
								<valuemax>125</valuemax>
								<value>5</value>
							</parameter>
							<parameter>
								<parameterid>doluma</parameterid>
								<name>Limit on Luma</name>
								<value>TRUE</value>
							</parameter>
							<parameter>
								<parameterid>lumamin</parameterid>
								<name>Luma Minimum</name>
								<valuemin>0</valuemin>
								<valuemax>120</valuemax>
								<value>0.939667</value>
							</parameter>
							<parameter>
								<parameterid>lumawidth</parameterid>
								<name>Luma Width</name>
								<valuemin>0</valuemin>
								<valuemax>120</valuemax>
								<value>115.45</value>
							</parameter>
							<parameter>
								<parameterid>lumasoft</parameterid>
								<name>Luma Softness</name>
								<valuemin>0</valuemin>
								<valuemax>120</valuemax>
								<value>15.1099</value>
							</parameter>
							<parameter>
								<parameterid>label6</parameterid>
								<name>Edge Control</name>
								<value/>
							</parameter>
							<parameter>
								<parameterid>edgethin</parameterid>
								<name>Thin/Spread</name>
								<valuemin>-100</valuemin>
								<valuemax>100</valuemax>
								<value>0</value>
							</parameter>
							<parameter>
								<parameterid>edgefeather</parameterid>
								<name>Softening</name>
								<valuemin>0</valuemin>
								<valuemax>100</valuemax>
								<value>6</value>
							</parameter>
							<parameter>
								<parameterid>label7</parameterid>
								<name>Mask Control</name>
								<value/>
							</parameter>
							<parameter>
								<parameterid>invertsel</parameterid>
								<name>Invert</name>
								<value>FALSE</value>
							</parameter>
							<parameter>
								<parameterid>debugshow</parameterid>
								<name>Show Stats</name>
								<value>FALSE</value>
							</parameter>
						</effect>
					</filter>
					<sourcetrack>
						<mediatype>video</mediatype>
					</sourcetrack>
					<link>
						<linkclipref>00834001.MOV</linkclipref>
						<mediatype>video</mediatype>
						<trackindex>1</trackindex>
						<clipindex>149</clipindex>
					</link>
					<link>
						<linkclipref>00834001.MOV2</linkclipref>
						<mediatype>audio</mediatype>
						<trackindex>1</trackindex>
						<clipindex>152</clipindex>
					</link>
					<link>
						<linkclipref>00834001.MOV3</linkclipref>
						<mediatype>audio</mediatype>
						<trackindex>2</trackindex>
						<clipindex>153</clipindex>
					</link>
					<fielddominance>upper</fielddominance>
					<itemhistory>
						<uuid>67A4403A-4419-4E5B-98CF-F5BDF52B4ACD</uuid>
					</itemhistory>
				</clipitem>
				<clipitem id="00836001.MOV">
					<name>00836001.MOV</name>
					<duration>264</duration>
					<rate>
						<ntsc>FALSE</ntsc>
						<timebase>25</timebase>
					</rate>
					<in>70</in>
					<out>164</out>
					<start>21371</start>
					<end>21465</end>
					<pixelaspectratio>Square</pixelaspectratio>
					<enabled>TRUE</enabled>
					<anamorphic>FALSE</anamorphic>
					<alphatype>none</alphatype>
					<masterclipid>00836001.MOV1</masterclipid>
					<logginginfo>
						<scene/>
						<shottake/>
						<lognote/>
						<good>FALSE</good>
					</logginginfo>
					<labels>
						<label2/>
					</labels>
					<comments>
						<mastercomment1/>
						<mastercomment2/>
						<mastercomment3/>
						<mastercomment4/>
					</comments>
					<file id="00836001 ">
						<name>00836001.MOV</name>
						<pathurl>file://localhost/Volumes/Askepott/Prosjekter/DNPR637010_Kra%CC%8Akeklubben_TEM_011212/Video/MELLOMSTIKK/S01E05%20Dyrebolig/DAG2/00836001.MOV</pathurl>
						<rate>
							<timebase>25</timebase>
						</rate>
						<duration>264</duration>
						<timecode>
							<rate>
								<timebase>25</timebase>
							</rate>
							<string>18:38:20:10</string>
							<frame>1677510</frame>
							<displayformat>NDF</displayformat>
							<source>source</source>
							<reel>
								<name>Flash XDR</name>
							</reel>
						</timecode>
						<media>
							<video>
								<duration>264</duration>
								<samplecharacteristics>
									<width>1920</width>
									<height>1080</height>
								</samplecharacteristics>
							</video>
							<audio>
								<samplecharacteristics>
									<samplerate>48000</samplerate>
									<depth>24</depth>
								</samplecharacteristics>
								<channelcount>1</channelcount>
							</audio>
							<audio>
								<samplecharacteristics>
									<samplerate>48000</samplerate>
									<depth>24</depth>
								</samplecharacteristics>
								<channelcount>1</channelcount>
							</audio>
						</media>
					</file>
					<sourcetrack>
						<mediatype>video</mediatype>
					</sourcetrack>
					<link>
						<linkclipref>00836001.MOV</linkclipref>
						<mediatype>video</mediatype>
						<trackindex>1</trackindex>
						<clipindex>150</clipindex>
					</link>
					<link>
						<linkclipref>00836001.MOV2</linkclipref>
						<mediatype>audio</mediatype>
						<trackindex>1</trackindex>
						<clipindex>153</clipindex>
					</link>
					<link>
						<linkclipref>00836001.MOV3</linkclipref>
						<mediatype>audio</mediatype>
						<trackindex>2</trackindex>
						<clipindex>154</clipindex>
					</link>
					<fielddominance>upper</fielddominance>
					<itemhistory>
						<uuid>BDA5F199-FA2B-45D2-A0D6-6DA6BAE43DE3</uuid>
					</itemhistory>
				</clipitem>
				<clipitem id="00837001.MOV">
					<name>00837001.MOV</name>
					<duration>432</duration>
					<rate>
						<ntsc>FALSE</ntsc>
						<timebase>25</timebase>
					</rate>
					<in>95</in>
					<out>282</out>
					<start>21465</start>
					<end>21652</end>
					<pixelaspectratio>Square</pixelaspectratio>
					<enabled>TRUE</enabled>
					<anamorphic>FALSE</anamorphic>
					<alphatype>none</alphatype>
					<masterclipid>00837001.MOV1</masterclipid>
					<logginginfo>
						<scene/>
						<shottake/>
						<lognote/>
						<good>FALSE</good>
					</logginginfo>
					<labels>
						<label2/>
					</labels>
					<comments>
						<mastercomment1/>
						<mastercomment2/>
						<mastercomment3/>
						<mastercomment4/>
					</comments>
					<file id="00837001 ">
						<name>00837001.MOV</name>
						<pathurl>file://localhost/Volumes/Askepott/Prosjekter/DNPR637010_Kra%CC%8Akeklubben_TEM_011212/Video/MELLOMSTIKK/S01E05%20Dyrebolig/DAG2/00837001.MOV</pathurl>
						<rate>
							<timebase>25</timebase>
						</rate>
						<duration>432</duration>
						<timecode>
							<rate>
								<timebase>25</timebase>
							</rate>
							<string>18:38:30:15</string>
							<frame>1677765</frame>
							<displayformat>NDF</displayformat>
							<source>source</source>
							<reel>
								<name>Flash XDR</name>
							</reel>
						</timecode>
						<media>
							<video>
								<duration>432</duration>
								<samplecharacteristics>
									<width>1920</width>
									<height>1080</height>
								</samplecharacteristics>
							</video>
							<audio>
								<samplecharacteristics>
									<samplerate>48000</samplerate>
									<depth>24</depth>
								</samplecharacteristics>
								<channelcount>1</channelcount>
							</audio>
							<audio>
								<samplecharacteristics>
									<samplerate>48000</samplerate>
									<depth>24</depth>
								</samplecharacteristics>
								<channelcount>1</channelcount>
							</audio>
						</media>
					</file>
					<sourcetrack>
						<mediatype>video</mediatype>
					</sourcetrack>
					<link>
						<linkclipref>00837001.MOV</linkclipref>
						<mediatype>video</mediatype>
						<trackindex>1</trackindex>
						<clipindex>151</clipindex>
					</link>
					<link>
						<linkclipref>00837001.MOV2</linkclipref>
						<mediatype>audio</mediatype>
						<trackindex>1</trackindex>
						<clipindex>154</clipindex>
					</link>
					<link>
						<linkclipref>00837001.MOV3</linkclipref>
						<mediatype>audio</mediatype>
						<trackindex>2</trackindex>
						<clipindex>155</clipindex>
					</link>
					<fielddominance>upper</fielddominance>
					<itemhistory>
						<uuid>9036B967-4950-46D7-A097-33FD6BAE7119</uuid>
					</itemhistory>
				</clipitem>
				<clipitem id="00773001.MOV">
					<name>00773001.MOV</name>
					<duration>1572</duration>
					<rate>
						<ntsc>FALSE</ntsc>
						<timebase>25</timebase>
					</rate>
					<in>1368</in>
					<out>1448</out>
					<start>21652</start>
					<end>21732</end>
					<pixelaspectratio>Square</pixelaspectratio>
					<enabled>TRUE</enabled>
					<anamorphic>FALSE</anamorphic>
					<alphatype>none</alphatype>
					<masterclipid>00773001.MOV1</masterclipid>
					<logginginfo>
						<scene/>
						<shottake/>
						<lognote/>
						<good>FALSE</good>
					</logginginfo>
					<labels>
						<label2/>
					</labels>
					<comments>
						<mastercomment1/>
						<mastercomment2/>
						<mastercomment3/>
						<mastercomment4/>
					</comments>
					<file id="00773001 ">
						<name>00773001.MOV</name>
						<pathurl>file://localhost/Volumes/Askepott/Prosjekter/DNPR637010_Kra%CC%8Akeklubben_TEM_011212/Video/MELLOMSTIKK/S01E05%20Dyrebolig/DAG2/00773001.MOV</pathurl>
						<rate>
							<timebase>25</timebase>
						</rate>
						<duration>1572</duration>
						<timecode>
							<rate>
								<timebase>25</timebase>
							</rate>
							<string>17:56:30:04</string>
							<frame>1614754</frame>
							<displayformat>NDF</displayformat>
							<source>source</source>
							<reel>
								<name>Flash XDR</name>
							</reel>
						</timecode>
						<media>
							<video>
								<duration>1572</duration>
								<samplecharacteristics>
									<width>1920</width>
									<height>1080</height>
								</samplecharacteristics>
							</video>
							<audio>
								<samplecharacteristics>
									<samplerate>48000</samplerate>
									<depth>24</depth>
								</samplecharacteristics>
								<channelcount>1</channelcount>
							</audio>
							<audio>
								<samplecharacteristics>
									<samplerate>48000</samplerate>
									<depth>24</depth>
								</samplecharacteristics>
								<channelcount>1</channelcount>
							</audio>
						</media>
					</file>
					<sourcetrack>
						<mediatype>video</mediatype>
					</sourcetrack>
					<link>
						<linkclipref>00773001.MOV</linkclipref>
						<mediatype>video</mediatype>
						<trackindex>1</trackindex>
						<clipindex>152</clipindex>
					</link>
					<link>
						<linkclipref>00773001.MOV2</linkclipref>
						<mediatype>audio</mediatype>
						<trackindex>1</trackindex>
						<clipindex>155</clipindex>
					</link>
					<link>
						<linkclipref>00773001.MOV3</linkclipref>
						<mediatype>audio</mediatype>
						<trackindex>2</trackindex>
						<clipindex>156</clipindex>
					</link>
					<fielddominance>upper</fielddominance>
					<itemhistory>
						<uuid>549FBD59-BED8-4DBC-897D-23C6F765BC26</uuid>
					</itemhistory>
				</clipitem>
				<clipitem id="00778001.MOV">
					<name>00778001.MOV</name>
					<duration>2628</duration>
					<rate>
						<ntsc>FALSE</ntsc>
						<timebase>25</timebase>
					</rate>
					<in>195</in>
					<out>352</out>
					<start>21732</start>
					<end>21889</end>
					<pixelaspectratio>Square</pixelaspectratio>
					<enabled>TRUE</enabled>
					<anamorphic>FALSE</anamorphic>
					<alphatype>none</alphatype>
					<masterclipid>00778001.MOV1</masterclipid>
					<logginginfo>
						<scene/>
						<shottake/>
						<lognote/>
						<good>FALSE</good>
					</logginginfo>
					<labels>
						<label2/>
					</labels>
					<comments>
						<mastercomment1/>
						<mastercomment2/>
						<mastercomment3/>
						<mastercomment4/>
					</comments>
					<file id="00778001 ">
						<name>00778001.MOV</name>
						<pathurl>file://localhost/Volumes/Askepott/Prosjekter/DNPR637010_Kra%CC%8Akeklubben_TEM_011212/Video/MELLOMSTIKK/S01E05%20Dyrebolig/DAG2/00778001.MOV</pathurl>
						<rate>
							<timebase>25</timebase>
						</rate>
						<duration>2628</duration>
						<timecode>
							<rate>
								<timebase>25</timebase>
							</rate>
							<string>18:00:31:05</string>
							<frame>1620780</frame>
							<displayformat>NDF</displayformat>
							<source>source</source>
							<reel>
								<name>Flash XDR</name>
							</reel>
						</timecode>
						<media>
							<video>
								<duration>2628</duration>
								<samplecharacteristics>
									<width>1920</width>
									<height>1080</height>
								</samplecharacteristics>
							</video>
							<audio>
								<samplecharacteristics>
									<samplerate>48000</samplerate>
									<depth>24</depth>
								</samplecharacteristics>
								<channelcount>1</channelcount>
							</audio>
							<audio>
								<samplecharacteristics>
									<samplerate>48000</samplerate>
									<depth>24</depth>
								</samplecharacteristics>
								<channelcount>1</channelcount>
							</audio>
						</media>
					</file>
					<filter>
						<start>-1</start>
						<end>-1</end>
						<effect>
							<name>Color Corrector - Lua til Carina 3 bittelitt</name>
							<effectid>Color Corrector</effectid>
							<effectcategory>Color Correction</effectcategory>
							<effecttype>filter</effecttype>
							<mediatype>video</mediatype>
							<parameter>
								<parameterid>dispmode</parameterid>
								<name>Display Mode</name>
								<valuemin>1</valuemin>
								<valuemax>3</valuemax>
								<valuelist>
									<valueentry>
										<name>Final</name>
										<value>1</value>
									</valueentry>
									<valueentry>
										<name>Matte</name>
										<value>2</value>
									</valueentry>
									<valueentry>
										<name>Source</name>
										<value>3</value>
									</valueentry>
								</valuelist>
								<value>1</value>
							</parameter>
							<parameter>
								<parameterid>label1</parameterid>
								<name>Level Controls</name>
								<value/>
							</parameter>
							<parameter>
								<parameterid>highlights</parameterid>
								<name>Highlights</name>
								<valuemin>64</valuemin>
								<valuemax>509</valuemax>
								<value>247</value>
							</parameter>
							<parameter>
								<parameterid>mids</parameterid>
								<name>Mids</name>
								<valuemin>0</valuemin>
								<valuemax>200</valuemax>
								<value>100</value>
							</parameter>
							<parameter>
								<parameterid>blacklevel</parameterid>
								<name>Blacks</name>
								<valuemin>-196</valuemin>
								<valuemax>254</valuemax>
								<value>-3</value>
							</parameter>
							<parameter>
								<parameterid>label2</parameterid>
								<name>Color Balance</name>
								<value/>
							</parameter>
							<parameter>
								<parameterid>hue</parameterid>
								<name>Angle</name>
								<valuemin>-180</valuemin>
								<valuemax>180</valuemax>
								<value>-33</value>
							</parameter>
							<parameter>
								<parameterid>mag</parameterid>
								<name>Magnitude</name>
								<valuemin>0</valuemin>
								<valuemax>200</valuemax>
								<value>0</value>
							</parameter>
							<parameter>
								<parameterid>label4</parameterid>
								<name>Color Controls</name>
								<value/>
							</parameter>
							<parameter>
								<parameterid>chroma</parameterid>
								<name>Saturation</name>
								<valuemin>0</valuemin>
								<valuemax>200</valuemax>
								<value>94</value>
							</parameter>
							<parameter>
								<parameterid>phase</parameterid>
								<name>Phase shift</name>
								<valuemin>-180</valuemin>
								<valuemax>180</valuemax>
								<value>0</value>
							</parameter>
							<parameter>
								<parameterid>label5</parameterid>
								<name>Limit Effect Controls</name>
								<value/>
							</parameter>
							<parameter>
								<parameterid>dochroma</parameterid>
								<name>Limit on Chroma</name>
								<value>TRUE</value>
							</parameter>
							<parameter>
								<parameterid>centerang</parameterid>
								<name>Chroma Center</name>
								<valuemin>-760</valuemin>
								<valuemax>760</valuemax>
								<value>322.256</value>
							</parameter>
							<parameter>
								<parameterid>chromawidth</parameterid>
								<name>Chroma Width</name>
								<valuemin>0</valuemin>
								<valuemax>360</valuemax>
								<value>8.11959</value>
							</parameter>
							<parameter>
								<parameterid>chromasoft</parameterid>
								<name>Chroma Softness</name>
								<valuemin>0</valuemin>
								<valuemax>180</valuemax>
								<value>26.8371</value>
							</parameter>
							<parameter>
								<parameterid>dosat</parameterid>
								<name>Limit on Saturation</name>
								<value>TRUE</value>
							</parameter>
							<parameter>
								<parameterid>satmin</parameterid>
								<name>Sat. Minimum</name>
								<valuemin>0</valuemin>
								<valuemax>125</valuemax>
								<value>36.7837</value>
							</parameter>
							<parameter>
								<parameterid>satwidth</parameterid>
								<name>Sat. Width</name>
								<valuemin>0</valuemin>
								<valuemax>125</valuemax>
								<value>84.0889</value>
							</parameter>
							<parameter>
								<parameterid>satsoft</parameterid>
								<name>Sat. Softness</name>
								<valuemin>0</valuemin>
								<valuemax>125</valuemax>
								<value>5</value>
							</parameter>
							<parameter>
								<parameterid>doluma</parameterid>
								<name>Limit on Luma</name>
								<value>TRUE</value>
							</parameter>
							<parameter>
								<parameterid>lumamin</parameterid>
								<name>Luma Minimum</name>
								<valuemin>0</valuemin>
								<valuemax>120</valuemax>
								<value>0.939667</value>
							</parameter>
							<parameter>
								<parameterid>lumawidth</parameterid>
								<name>Luma Width</name>
								<valuemin>0</valuemin>
								<valuemax>120</valuemax>
								<value>115.45</value>
							</parameter>
							<parameter>
								<parameterid>lumasoft</parameterid>
								<name>Luma Softness</name>
								<valuemin>0</valuemin>
								<valuemax>120</valuemax>
								<value>15.1099</value>
							</parameter>
							<parameter>
								<parameterid>label6</parameterid>
								<name>Edge Control</name>
								<value/>
							</parameter>
							<parameter>
								<parameterid>edgethin</parameterid>
								<name>Thin/Spread</name>
								<valuemin>-100</valuemin>
								<valuemax>100</valuemax>
								<value>0</value>
							</parameter>
							<parameter>
								<parameterid>edgefeather</parameterid>
								<name>Softening</name>
								<valuemin>0</valuemin>
								<valuemax>100</valuemax>
								<value>6</value>
							</parameter>
							<parameter>
								<parameterid>label7</parameterid>
								<name>Mask Control</name>
								<value/>
							</parameter>
							<parameter>
								<parameterid>invertsel</parameterid>
								<name>Invert</name>
								<value>FALSE</value>
							</parameter>
							<parameter>
								<parameterid>debugshow</parameterid>
								<name>Show Stats</name>
								<value>FALSE</value>
							</parameter>
						</effect>
					</filter>
					<sourcetrack>
						<mediatype>video</mediatype>
					</sourcetrack>
					<link>
						<linkclipref>00778001.MOV</linkclipref>
						<mediatype>video</mediatype>
						<trackindex>1</trackindex>
						<clipindex>153</clipindex>
					</link>
					<link>
						<linkclipref>00778001.MOV2</linkclipref>
						<mediatype>audio</mediatype>
						<trackindex>1</trackindex>
						<clipindex>156</clipindex>
					</link>
					<link>
						<linkclipref>00778001.MOV3</linkclipref>
						<mediatype>audio</mediatype>
						<trackindex>2</trackindex>
						<clipindex>157</clipindex>
					</link>
					<fielddominance>upper</fielddominance>
					<itemhistory>
						<uuid>6DF23074-3A82-4C8D-BD98-5B5E43534186</uuid>
					</itemhistory>
				</clipitem>
				<clipitem id="00779001.MOV">
					<name>00779001.MOV</name>
					<duration>804</duration>
					<rate>
						<ntsc>FALSE</ntsc>
						<timebase>25</timebase>
					</rate>
					<in>207</in>
					<out>284</out>
					<start>21889</start>
					<end>21966</end>
					<pixelaspectratio>Square</pixelaspectratio>
					<anamorphic>FALSE</anamorphic>
					<alphatype>none</alphatype>
					<masterclipid>00779001.MOV1</masterclipid>
					<logginginfo>
						<scene/>
						<shottake/>
						<lognote/>
						<good>FALSE</good>
					</logginginfo>
					<labels>
						<label2/>
					</labels>
					<comments>
						<mastercomment1/>
						<mastercomment2/>
						<mastercomment3/>
						<mastercomment4/>
					</comments>
					<file id="00779001 ">
						<name>00779001.MOV</name>
						<pathurl>file://localhost/Volumes/Askepott/Prosjekter/DNPR637010_Kra%CC%8Akeklubben_TEM_011212/Video/MELLOMSTIKK/S01E05%20Dyrebolig/DAG2/00779001.MOV</pathurl>
						<rate>
							<timebase>25</timebase>
						</rate>
						<duration>804</duration>
						<timecode>
							<rate>
								<timebase>25</timebase>
							</rate>
							<string>18:02:16:07</string>
							<frame>1623407</frame>
							<displayformat>NDF</displayformat>
							<source>source</source>
							<reel>
								<name>Flash XDR</name>
							</reel>
						</timecode>
						<media>
							<video>
								<duration>804</duration>
								<samplecharacteristics>
									<width>1920</width>
									<height>1080</height>
								</samplecharacteristics>
							</video>
							<audio>
								<samplecharacteristics>
									<samplerate>48000</samplerate>
									<depth>24</depth>
								</samplecharacteristics>
								<channelcount>1</channelcount>
							</audio>
							<audio>
								<samplecharacteristics>
									<samplerate>48000</samplerate>
									<depth>24</depth>
								</samplecharacteristics>
								<channelcount>1</channelcount>
							</audio>
						</media>
					</file>
					<filter>
						<start>-1</start>
						<end>-1</end>
						<effect>
							<name>G Simple Curves -15 white curve</name>
							<effectcategory>Nattress Big Box of Tricks - Levels and Curves</effectcategory>
							<effecttype>filter</effecttype>
							<mediatype>video</mediatype>
							<parameter>
								<parameterid>colourspace</parameterid>
								<name>Colour Space</name>
								<valuemin>1</valuemin>
								<valuemax>2</valuemax>
								<valuelist>
									<valueentry>
										<name>RGB</name>
										<value>1</value>
									</valueentry>
									<valueentry>
										<name>Y'CbCr</name>
										<value>2</value>
									</valueentry>
								</valuelist>
								<value>2</value>
							</parameter>
							<parameter>
								<parameterid>showcurves</parameterid>
								<name>Show Curves</name>
								<value>FALSE</value>
							</parameter>
							<parameter>
								<parameterid>lvar</parameterid>
								<name>Levels Controls</name>
								<value>string</value>
							</parameter>
							<parameter>
								<parameterid>inw</parameterid>
								<name>White Level</name>
								<valuemin>0</valuemin>
								<valuemax>255</valuemax>
								<value>255</value>
							</parameter>
							<parameter>
								<parameterid>inb</parameterid>
								<name>Black Level</name>
								<valuemin>0</valuemin>
								<valuemax>255</valuemax>
								<value>0</value>
							</parameter>
							<parameter>
								<parameterid>outw</parameterid>
								<name>White Output</name>
								<valuemin>0</valuemin>
								<valuemax>255</valuemax>
								<value>255</value>
							</parameter>
							<parameter>
								<parameterid>outb</parameterid>
								<name>Black Output</name>
								<valuemin>0</valuemin>
								<valuemax>255</valuemax>
								<value>0</value>
							</parameter>
							<parameter>
								<parameterid>cvar</parameterid>
								<name>Curves Controls</name>
								<value>string</value>
							</parameter>
							<parameter>
								<parameterid>curvew</parameterid>
								<name>White Curve</name>
								<valuemin>-100</valuemin>
								<valuemax>100</valuemax>
								<value>-15</value>
							</parameter>
							<parameter>
								<parameterid>curveb</parameterid>
								<name>Black Curve</name>
								<valuemin>-100</valuemin>
								<valuemax>100</valuemax>
								<value>0</value>
							</parameter>
							<parameter>
								<parameterid>clipoutput</parameterid>
								<name>Clip Output Levels</name>
								<value>TRUE</value>
							</parameter>
							<parameter>
								<parameterid>copyright</parameterid>
								<name>© www.nattress.com</name>
								<value>string</value>
							</parameter>
						</effect>
					</filter>
					<sourcetrack>
						<mediatype>video</mediatype>
					</sourcetrack>
					<link>
						<linkclipref>00779001.MOV</linkclipref>
						<mediatype>video</mediatype>
						<trackindex>1</trackindex>
						<clipindex>154</clipindex>
					</link>
					<link>
						<linkclipref>00779001.MOV2</linkclipref>
						<mediatype>audio</mediatype>
						<trackindex>1</trackindex>
						<clipindex>157</clipindex>
					</link>
					<link>
						<linkclipref>00779001.MOV3</linkclipref>
						<mediatype>audio</mediatype>
						<trackindex>2</trackindex>
						<clipindex>158</clipindex>
					</link>
					<fielddominance>upper</fielddominance>
					<itemhistory>
						<uuid>45B2DFB8-405C-40BC-9871-9DCFC2BD4876</uuid>
					</itemhistory>
				</clipitem>
				<clipitem id="00778001.MOV4">
					<name>00778001.MOV</name>
					<duration>2628</duration>
					<rate>
						<ntsc>FALSE</ntsc>
						<timebase>25</timebase>
					</rate>
					<in>459</in>
					<out>577</out>
					<start>21966</start>
					<end>22084</end>
					<pixelaspectratio>Square</pixelaspectratio>
					<enabled>TRUE</enabled>
					<anamorphic>FALSE</anamorphic>
					<alphatype>none</alphatype>
					<masterclipid>00778001.MOV1</masterclipid>
					<logginginfo>
						<scene/>
						<shottake/>
						<lognote/>
						<good>FALSE</good>
					</logginginfo>
					<labels>
						<label2/>
					</labels>
					<comments>
						<mastercomment1/>
						<mastercomment2/>
						<mastercomment3/>
						<mastercomment4/>
					</comments>
					<file id="00778001 "/>
					<filter>
						<start>-1</start>
						<end>-1</end>
						<effect>
							<name>Color Corrector - Lua til Carina 3 bittelitt</name>
							<effectid>Color Corrector</effectid>
							<effectcategory>Color Correction</effectcategory>
							<effecttype>filter</effecttype>
							<mediatype>video</mediatype>
							<parameter>
								<parameterid>dispmode</parameterid>
								<name>Display Mode</name>
								<valuemin>1</valuemin>
								<valuemax>3</valuemax>
								<valuelist>
									<valueentry>
										<name>Final</name>
										<value>1</value>
									</valueentry>
									<valueentry>
										<name>Matte</name>
										<value>2</value>
									</valueentry>
									<valueentry>
										<name>Source</name>
										<value>3</value>
									</valueentry>
								</valuelist>
								<value>1</value>
							</parameter>
							<parameter>
								<parameterid>label1</parameterid>
								<name>Level Controls</name>
								<value/>
							</parameter>
							<parameter>
								<parameterid>highlights</parameterid>
								<name>Highlights</name>
								<valuemin>64</valuemin>
								<valuemax>509</valuemax>
								<value>247</value>
							</parameter>
							<parameter>
								<parameterid>mids</parameterid>
								<name>Mids</name>
								<valuemin>0</valuemin>
								<valuemax>200</valuemax>
								<value>100</value>
							</parameter>
							<parameter>
								<parameterid>blacklevel</parameterid>
								<name>Blacks</name>
								<valuemin>-196</valuemin>
								<valuemax>254</valuemax>
								<value>-3</value>
							</parameter>
							<parameter>
								<parameterid>label2</parameterid>
								<name>Color Balance</name>
								<value/>
							</parameter>
							<parameter>
								<parameterid>hue</parameterid>
								<name>Angle</name>
								<valuemin>-180</valuemin>
								<valuemax>180</valuemax>
								<value>-33</value>
							</parameter>
							<parameter>
								<parameterid>mag</parameterid>
								<name>Magnitude</name>
								<valuemin>0</valuemin>
								<valuemax>200</valuemax>
								<value>0</value>
							</parameter>
							<parameter>
								<parameterid>label4</parameterid>
								<name>Color Controls</name>
								<value/>
							</parameter>
							<parameter>
								<parameterid>chroma</parameterid>
								<name>Saturation</name>
								<valuemin>0</valuemin>
								<valuemax>200</valuemax>
								<value>94</value>
							</parameter>
							<parameter>
								<parameterid>phase</parameterid>
								<name>Phase shift</name>
								<valuemin>-180</valuemin>
								<valuemax>180</valuemax>
								<value>0</value>
							</parameter>
							<parameter>
								<parameterid>label5</parameterid>
								<name>Limit Effect Controls</name>
								<value/>
							</parameter>
							<parameter>
								<parameterid>dochroma</parameterid>
								<name>Limit on Chroma</name>
								<value>TRUE</value>
							</parameter>
							<parameter>
								<parameterid>centerang</parameterid>
								<name>Chroma Center</name>
								<valuemin>-760</valuemin>
								<valuemax>760</valuemax>
								<value>322.256</value>
							</parameter>
							<parameter>
								<parameterid>chromawidth</parameterid>
								<name>Chroma Width</name>
								<valuemin>0</valuemin>
								<valuemax>360</valuemax>
								<value>8.11959</value>
							</parameter>
							<parameter>
								<parameterid>chromasoft</parameterid>
								<name>Chroma Softness</name>
								<valuemin>0</valuemin>
								<valuemax>180</valuemax>
								<value>26.8371</value>
							</parameter>
							<parameter>
								<parameterid>dosat</parameterid>
								<name>Limit on Saturation</name>
								<value>TRUE</value>
							</parameter>
							<parameter>
								<parameterid>satmin</parameterid>
								<name>Sat. Minimum</name>
								<valuemin>0</valuemin>
								<valuemax>125</valuemax>
								<value>36.7837</value>
							</parameter>
							<parameter>
								<parameterid>satwidth</parameterid>
								<name>Sat. Width</name>
								<valuemin>0</valuemin>
								<valuemax>125</valuemax>
								<value>84.0889</value>
							</parameter>
							<parameter>
								<parameterid>satsoft</parameterid>
								<name>Sat. Softness</name>
								<valuemin>0</valuemin>
								<valuemax>125</valuemax>
								<value>5</value>
							</parameter>
							<parameter>
								<parameterid>doluma</parameterid>
								<name>Limit on Luma</name>
								<value>TRUE</value>
							</parameter>
							<parameter>
								<parameterid>lumamin</parameterid>
								<name>Luma Minimum</name>
								<valuemin>0</valuemin>
								<valuemax>120</valuemax>
								<value>0.939667</value>
							</parameter>
							<parameter>
								<parameterid>lumawidth</parameterid>
								<name>Luma Width</name>
								<valuemin>0</valuemin>
								<valuemax>120</valuemax>
								<value>115.45</value>
							</parameter>
							<parameter>
								<parameterid>lumasoft</parameterid>
								<name>Luma Softness</name>
								<valuemin>0</valuemin>
								<valuemax>120</valuemax>
								<value>15.1099</value>
							</parameter>
							<parameter>
								<parameterid>label6</parameterid>
								<name>Edge Control</name>
								<value/>
							</parameter>
							<parameter>
								<parameterid>edgethin</parameterid>
								<name>Thin/Spread</name>
								<valuemin>-100</valuemin>
								<valuemax>100</valuemax>
								<value>0</value>
							</parameter>
							<parameter>
								<parameterid>edgefeather</parameterid>
								<name>Softening</name>
								<valuemin>0</valuemin>
								<valuemax>100</valuemax>
								<value>6</value>
							</parameter>
							<parameter>
								<parameterid>label7</parameterid>
								<name>Mask Control</name>
								<value/>
							</parameter>
							<parameter>
								<parameterid>invertsel</parameterid>
								<name>Invert</name>
								<value>FALSE</value>
							</parameter>
							<parameter>
								<parameterid>debugshow</parameterid>
								<name>Show Stats</name>
								<value>FALSE</value>
							</parameter>
						</effect>
					</filter>
					<sourcetrack>
						<mediatype>video</mediatype>
					</sourcetrack>
					<link>
						<linkclipref>00778001.MOV4</linkclipref>
						<mediatype>video</mediatype>
						<trackindex>1</trackindex>
						<clipindex>155</clipindex>
					</link>
					<link>
						<linkclipref>00778001.MOV5</linkclipref>
						<mediatype>audio</mediatype>
						<trackindex>1</trackindex>
						<clipindex>158</clipindex>
					</link>
					<link>
						<linkclipref>00778001.MOV6</linkclipref>
						<mediatype>audio</mediatype>
						<trackindex>2</trackindex>
						<clipindex>159</clipindex>
					</link>
					<fielddominance>upper</fielddominance>
					<itemhistory>
						<uuid>EFC9A9DE-341C-408C-A788-A2D684038A2E</uuid>
					</itemhistory>
				</clipitem>
				<clipitem id="00782001.MOV">
					<name>00782001.MOV</name>
					<duration>1248</duration>
					<rate>
						<ntsc>FALSE</ntsc>
						<timebase>25</timebase>
					</rate>
					<in>682</in>
					<out>757</out>
					<start>22084</start>
					<end>22159</end>
					<pixelaspectratio>Square</pixelaspectratio>
					<enabled>TRUE</enabled>
					<anamorphic>FALSE</anamorphic>
					<alphatype>none</alphatype>
					<masterclipid>00782001.MOV1</masterclipid>
					<logginginfo>
						<scene/>
						<shottake/>
						<lognote/>
						<good>FALSE</good>
					</logginginfo>
					<labels>
						<label2/>
					</labels>
					<comments>
						<mastercomment1/>
						<mastercomment2/>
						<mastercomment3/>
						<mastercomment4/>
					</comments>
					<file id="00782001 ">
						<name>00782001.MOV</name>
						<pathurl>file://localhost/Volumes/Askepott/Prosjekter/DNPR637010_Kra%CC%8Akeklubben_TEM_011212/Video/MELLOMSTIKK/S01E05%20Dyrebolig/DAG2/00782001.MOV</pathurl>
						<rate>
							<timebase>25</timebase>
						</rate>
						<duration>1248</duration>
						<timecode>
							<rate>
								<timebase>25</timebase>
							</rate>
							<string>18:03:41:22</string>
							<frame>1625547</frame>
							<displayformat>NDF</displayformat>
							<source>source</source>
							<reel>
								<name>Flash XDR</name>
							</reel>
						</timecode>
						<media>
							<video>
								<duration>1248</duration>
								<samplecharacteristics>
									<width>1920</width>
									<height>1080</height>
								</samplecharacteristics>
							</video>
							<audio>
								<samplecharacteristics>
									<samplerate>48000</samplerate>
									<depth>24</depth>
								</samplecharacteristics>
								<channelcount>1</channelcount>
							</audio>
							<audio>
								<samplecharacteristics>
									<samplerate>48000</samplerate>
									<depth>24</depth>
								</samplecharacteristics>
								<channelcount>1</channelcount>
							</audio>
						</media>
					</file>
					<sourcetrack>
						<mediatype>video</mediatype>
					</sourcetrack>
					<link>
						<linkclipref>00782001.MOV</linkclipref>
						<mediatype>video</mediatype>
						<trackindex>1</trackindex>
						<clipindex>156</clipindex>
					</link>
					<link>
						<linkclipref>00782001.MOV2</linkclipref>
						<mediatype>audio</mediatype>
						<trackindex>1</trackindex>
						<clipindex>159</clipindex>
					</link>
					<link>
						<linkclipref>00782001.MOV3</linkclipref>
						<mediatype>audio</mediatype>
						<trackindex>2</trackindex>
						<clipindex>160</clipindex>
					</link>
					<fielddominance>upper</fielddominance>
					<itemhistory>
						<uuid>AAFA0493-8F4D-41EC-9BFD-B217A83ACB1A</uuid>
					</itemhistory>
				</clipitem>
				<clipitem id="00778001.MOV7">
					<name>00778001.MOV</name>
					<duration>2628</duration>
					<rate>
						<ntsc>FALSE</ntsc>
						<timebase>25</timebase>
					</rate>
					<in>652</in>
					<out>966</out>
					<start>22159</start>
					<end>22473</end>
					<pixelaspectratio>Square</pixelaspectratio>
					<enabled>TRUE</enabled>
					<anamorphic>FALSE</anamorphic>
					<alphatype>none</alphatype>
					<masterclipid>00778001.MOV1</masterclipid>
					<logginginfo>
						<scene/>
						<shottake/>
						<lognote/>
						<good>FALSE</good>
					</logginginfo>
					<labels>
						<label2/>
					</labels>
					<comments>
						<mastercomment1/>
						<mastercomment2/>
						<mastercomment3/>
						<mastercomment4/>
					</comments>
					<file id="00778001 "/>
					<filter>
						<start>-1</start>
						<end>-1</end>
						<effect>
							<name>Color Corrector - Lua til Carina 3 bittelitt</name>
							<effectid>Color Corrector</effectid>
							<effectcategory>Color Correction</effectcategory>
							<effecttype>filter</effecttype>
							<mediatype>video</mediatype>
							<parameter>
								<parameterid>dispmode</parameterid>
								<name>Display Mode</name>
								<valuemin>1</valuemin>
								<valuemax>3</valuemax>
								<valuelist>
									<valueentry>
										<name>Final</name>
										<value>1</value>
									</valueentry>
									<valueentry>
										<name>Matte</name>
										<value>2</value>
									</valueentry>
									<valueentry>
										<name>Source</name>
										<value>3</value>
									</valueentry>
								</valuelist>
								<value>1</value>
							</parameter>
							<parameter>
								<parameterid>label1</parameterid>
								<name>Level Controls</name>
								<value/>
							</parameter>
							<parameter>
								<parameterid>highlights</parameterid>
								<name>Highlights</name>
								<valuemin>64</valuemin>
								<valuemax>509</valuemax>
								<value>247</value>
							</parameter>
							<parameter>
								<parameterid>mids</parameterid>
								<name>Mids</name>
								<valuemin>0</valuemin>
								<valuemax>200</valuemax>
								<value>100</value>
							</parameter>
							<parameter>
								<parameterid>blacklevel</parameterid>
								<name>Blacks</name>
								<valuemin>-196</valuemin>
								<valuemax>254</valuemax>
								<value>-3</value>
							</parameter>
							<parameter>
								<parameterid>label2</parameterid>
								<name>Color Balance</name>
								<value/>
							</parameter>
							<parameter>
								<parameterid>hue</parameterid>
								<name>Angle</name>
								<valuemin>-180</valuemin>
								<valuemax>180</valuemax>
								<value>-33</value>
							</parameter>
							<parameter>
								<parameterid>mag</parameterid>
								<name>Magnitude</name>
								<valuemin>0</valuemin>
								<valuemax>200</valuemax>
								<value>0</value>
							</parameter>
							<parameter>
								<parameterid>label4</parameterid>
								<name>Color Controls</name>
								<value/>
							</parameter>
							<parameter>
								<parameterid>chroma</parameterid>
								<name>Saturation</name>
								<valuemin>0</valuemin>
								<valuemax>200</valuemax>
								<value>94</value>
							</parameter>
							<parameter>
								<parameterid>phase</parameterid>
								<name>Phase shift</name>
								<valuemin>-180</valuemin>
								<valuemax>180</valuemax>
								<value>0</value>
							</parameter>
							<parameter>
								<parameterid>label5</parameterid>
								<name>Limit Effect Controls</name>
								<value/>
							</parameter>
							<parameter>
								<parameterid>dochroma</parameterid>
								<name>Limit on Chroma</name>
								<value>TRUE</value>
							</parameter>
							<parameter>
								<parameterid>centerang</parameterid>
								<name>Chroma Center</name>
								<valuemin>-760</valuemin>
								<valuemax>760</valuemax>
								<value>322.256</value>
							</parameter>
							<parameter>
								<parameterid>chromawidth</parameterid>
								<name>Chroma Width</name>
								<valuemin>0</valuemin>
								<valuemax>360</valuemax>
								<value>8.11959</value>
							</parameter>
							<parameter>
								<parameterid>chromasoft</parameterid>
								<name>Chroma Softness</name>
								<valuemin>0</valuemin>
								<valuemax>180</valuemax>
								<value>26.8371</value>
							</parameter>
							<parameter>
								<parameterid>dosat</parameterid>
								<name>Limit on Saturation</name>
								<value>TRUE</value>
							</parameter>
							<parameter>
								<parameterid>satmin</parameterid>
								<name>Sat. Minimum</name>
								<valuemin>0</valuemin>
								<valuemax>125</valuemax>
								<value>36.7837</value>
							</parameter>
							<parameter>
								<parameterid>satwidth</parameterid>
								<name>Sat. Width</name>
								<valuemin>0</valuemin>
								<valuemax>125</valuemax>
								<value>84.0889</value>
							</parameter>
							<parameter>
								<parameterid>satsoft</parameterid>
								<name>Sat. Softness</name>
								<valuemin>0</valuemin>
								<valuemax>125</valuemax>
								<value>5</value>
							</parameter>
							<parameter>
								<parameterid>doluma</parameterid>
								<name>Limit on Luma</name>
								<value>TRUE</value>
							</parameter>
							<parameter>
								<parameterid>lumamin</parameterid>
								<name>Luma Minimum</name>
								<valuemin>0</valuemin>
								<valuemax>120</valuemax>
								<value>0.939667</value>
							</parameter>
							<parameter>
								<parameterid>lumawidth</parameterid>
								<name>Luma Width</name>
								<valuemin>0</valuemin>
								<valuemax>120</valuemax>
								<value>115.45</value>
							</parameter>
							<parameter>
								<parameterid>lumasoft</parameterid>
								<name>Luma Softness</name>
								<valuemin>0</valuemin>
								<valuemax>120</valuemax>
								<value>15.1099</value>
							</parameter>
							<parameter>
								<parameterid>label6</parameterid>
								<name>Edge Control</name>
								<value/>
							</parameter>
							<parameter>
								<parameterid>edgethin</parameterid>
								<name>Thin/Spread</name>
								<valuemin>-100</valuemin>
								<valuemax>100</valuemax>
								<value>0</value>
							</parameter>
							<parameter>
								<parameterid>edgefeather</parameterid>
								<name>Softening</name>
								<valuemin>0</valuemin>
								<valuemax>100</valuemax>
								<value>6</value>
							</parameter>
							<parameter>
								<parameterid>label7</parameterid>
								<name>Mask Control</name>
								<value/>
							</parameter>
							<parameter>
								<parameterid>invertsel</parameterid>
								<name>Invert</name>
								<value>FALSE</value>
							</parameter>
							<parameter>
								<parameterid>debugshow</parameterid>
								<name>Show Stats</name>
								<value>FALSE</value>
							</parameter>
						</effect>
					</filter>
					<sourcetrack>
						<mediatype>video</mediatype>
					</sourcetrack>
					<link>
						<linkclipref>00778001.MOV7</linkclipref>
						<mediatype>video</mediatype>
						<trackindex>1</trackindex>
						<clipindex>157</clipindex>
					</link>
					<link>
						<linkclipref>00778001.MOV8</linkclipref>
						<mediatype>audio</mediatype>
						<trackindex>1</trackindex>
						<clipindex>160</clipindex>
					</link>
					<link>
						<linkclipref>00778001.MOV9</linkclipref>
						<mediatype>audio</mediatype>
						<trackindex>2</trackindex>
						<clipindex>161</clipindex>
					</link>
					<fielddominance>upper</fielddominance>
					<itemhistory>
						<uuid>33EFF96F-FAED-458E-B4BD-B68B6A6E5871</uuid>
					</itemhistory>
				</clipitem>
				<clipitem id="00787001.MOV">
					<name>00787001.MOV</name>
					<duration>2208</duration>
					<rate>
						<ntsc>FALSE</ntsc>
						<timebase>25</timebase>
					</rate>
					<in>251</in>
					<out>459</out>
					<start>22543</start>
					<end>22751</end>
					<pixelaspectratio>Square</pixelaspectratio>
					<enabled>TRUE</enabled>
					<anamorphic>FALSE</anamorphic>
					<alphatype>none</alphatype>
					<masterclipid>00787001.MOV1</masterclipid>
					<logginginfo>
						<scene/>
						<shottake/>
						<lognote/>
						<good>FALSE</good>
					</logginginfo>
					<labels>
						<label2/>
					</labels>
					<comments>
						<mastercomment1/>
						<mastercomment2/>
						<mastercomment3/>
						<mastercomment4/>
					</comments>
					<file id="00787001 ">
						<name>00787001.MOV</name>
						<pathurl>file://localhost/Volumes/Askepott/Prosjekter/DNPR637010_Kra%CC%8Akeklubben_TEM_011212/Video/MELLOMSTIKK/S01E05%20Dyrebolig/DAG2/00787001.MOV</pathurl>
						<rate>
							<timebase>25</timebase>
						</rate>
						<duration>2208</duration>
						<timecode>
							<rate>
								<timebase>25</timebase>
							</rate>
							<string>18:05:58:05</string>
							<frame>1628955</frame>
							<displayformat>NDF</displayformat>
							<source>source</source>
							<reel>
								<name>Flash XDR</name>
							</reel>
						</timecode>
						<media>
							<video>
								<duration>2208</duration>
								<samplecharacteristics>
									<width>1920</width>
									<height>1080</height>
								</samplecharacteristics>
							</video>
							<audio>
								<samplecharacteristics>
									<samplerate>48000</samplerate>
									<depth>24</depth>
								</samplecharacteristics>
								<channelcount>1</channelcount>
							</audio>
							<audio>
								<samplecharacteristics>
									<samplerate>48000</samplerate>
									<depth>24</depth>
								</samplecharacteristics>
								<channelcount>1</channelcount>
							</audio>
						</media>
					</file>
					<sourcetrack>
						<mediatype>video</mediatype>
					</sourcetrack>
					<link>
						<linkclipref>00787001.MOV</linkclipref>
						<mediatype>video</mediatype>
						<trackindex>1</trackindex>
						<clipindex>158</clipindex>
					</link>
					<link>
						<linkclipref>00787001.MOV2</linkclipref>
						<mediatype>audio</mediatype>
						<trackindex>1</trackindex>
						<clipindex>163</clipindex>
					</link>
					<link>
						<linkclipref>00787001.MOV3</linkclipref>
						<mediatype>audio</mediatype>
						<trackindex>2</trackindex>
						<clipindex>164</clipindex>
					</link>
					<fielddominance>upper</fielddominance>
					<itemhistory>
						<uuid>DD652EFC-0788-4247-BFC0-3591BC3D4796</uuid>
					</itemhistory>
				</clipitem>
				<clipitem id="00790001.MOV">
					<name>00790001.MOV</name>
					<duration>3816</duration>
					<rate>
						<ntsc>FALSE</ntsc>
						<timebase>25</timebase>
					</rate>
					<in>692</in>
					<out>803</out>
					<start>22751</start>
					<end>22862</end>
					<pixelaspectratio>Square</pixelaspectratio>
					<enabled>TRUE</enabled>
					<anamorphic>FALSE</anamorphic>
					<alphatype>none</alphatype>
					<masterclipid>00790001.MOV1</masterclipid>
					<logginginfo>
						<scene/>
						<shottake/>
						<lognote/>
						<good>FALSE</good>
					</logginginfo>
					<labels>
						<label2/>
					</labels>
					<comments>
						<mastercomment1/>
						<mastercomment2/>
						<mastercomment3/>
						<mastercomment4/>
					</comments>
					<file id="00790001 ">
						<name>00790001.MOV</name>
						<pathurl>file://localhost/Volumes/Askepott/Prosjekter/DNPR637010_Kra%CC%8Akeklubben_TEM_011212/Video/MELLOMSTIKK/S01E05%20Dyrebolig/DAG2/00790001.MOV</pathurl>
						<rate>
							<timebase>25</timebase>
						</rate>
						<duration>3816</duration>
						<timecode>
							<rate>
								<timebase>25</timebase>
							</rate>
							<string>18:08:08:15</string>
							<frame>1632215</frame>
							<displayformat>NDF</displayformat>
							<source>source</source>
							<reel>
								<name>Flash XDR</name>
							</reel>
						</timecode>
						<media>
							<video>
								<duration>3816</duration>
								<samplecharacteristics>
									<width>1920</width>
									<height>1080</height>
								</samplecharacteristics>
							</video>
							<audio>
								<samplecharacteristics>
									<samplerate>48000</samplerate>
									<depth>24</depth>
								</samplecharacteristics>
								<channelcount>1</channelcount>
							</audio>
							<audio>
								<samplecharacteristics>
									<samplerate>48000</samplerate>
									<depth>24</depth>
								</samplecharacteristics>
								<channelcount>1</channelcount>
							</audio>
						</media>
					</file>
					<filter>
						<start>-1</start>
						<end>-1</end>
						<effect>
							<name>G Simple Curves +20 white curve</name>
							<effectcategory>Nattress Big Box of Tricks - Levels and Curves</effectcategory>
							<effecttype>filter</effecttype>
							<mediatype>video</mediatype>
							<parameter>
								<parameterid>colourspace</parameterid>
								<name>Colour Space</name>
								<valuemin>1</valuemin>
								<valuemax>2</valuemax>
								<valuelist>
									<valueentry>
										<name>RGB</name>
										<value>1</value>
									</valueentry>
									<valueentry>
										<name>Y'CbCr</name>
										<value>2</value>
									</valueentry>
								</valuelist>
								<value>2</value>
							</parameter>
							<parameter>
								<parameterid>showcurves</parameterid>
								<name>Show Curves</name>
								<value>FALSE</value>
							</parameter>
							<parameter>
								<parameterid>lvar</parameterid>
								<name>Levels Controls</name>
								<value>string</value>
							</parameter>
							<parameter>
								<parameterid>inw</parameterid>
								<name>White Level</name>
								<valuemin>0</valuemin>
								<valuemax>255</valuemax>
								<value>255</value>
							</parameter>
							<parameter>
								<parameterid>inb</parameterid>
								<name>Black Level</name>
								<valuemin>0</valuemin>
								<valuemax>255</valuemax>
								<value>0</value>
							</parameter>
							<parameter>
								<parameterid>outw</parameterid>
								<name>White Output</name>
								<valuemin>0</valuemin>
								<valuemax>255</valuemax>
								<value>255</value>
							</parameter>
							<parameter>
								<parameterid>outb</parameterid>
								<name>Black Output</name>
								<valuemin>0</valuemin>
								<valuemax>255</valuemax>
								<value>0</value>
							</parameter>
							<parameter>
								<parameterid>cvar</parameterid>
								<name>Curves Controls</name>
								<value>string</value>
							</parameter>
							<parameter>
								<parameterid>curvew</parameterid>
								<name>White Curve</name>
								<valuemin>-100</valuemin>
								<valuemax>100</valuemax>
								<value>15</value>
							</parameter>
							<parameter>
								<parameterid>curveb</parameterid>
								<name>Black Curve</name>
								<valuemin>-100</valuemin>
								<valuemax>100</valuemax>
								<value>0</value>
							</parameter>
							<parameter>
								<parameterid>clipoutput</parameterid>
								<name>Clip Output Levels</name>
								<value>TRUE</value>
							</parameter>
							<parameter>
								<parameterid>copyright</parameterid>
								<name>© www.nattress.com</name>
								<value>string</value>
							</parameter>
						</effect>
					</filter>
					<filter>
						<start>-1</start>
						<end>-1</end>
						<effect>
							<name>Color Corrector - Lua til Carina 3 bittelitt</name>
							<effectid>Color Corrector</effectid>
							<effectcategory>Color Correction</effectcategory>
							<effecttype>filter</effecttype>
							<mediatype>video</mediatype>
							<parameter>
								<parameterid>dispmode</parameterid>
								<name>Display Mode</name>
								<valuemin>1</valuemin>
								<valuemax>3</valuemax>
								<valuelist>
									<valueentry>
										<name>Final</name>
										<value>1</value>
									</valueentry>
									<valueentry>
										<name>Matte</name>
										<value>2</value>
									</valueentry>
									<valueentry>
										<name>Source</name>
										<value>3</value>
									</valueentry>
								</valuelist>
								<value>1</value>
							</parameter>
							<parameter>
								<parameterid>label1</parameterid>
								<name>Level Controls</name>
								<value/>
							</parameter>
							<parameter>
								<parameterid>highlights</parameterid>
								<name>Highlights</name>
								<valuemin>64</valuemin>
								<valuemax>509</valuemax>
								<value>247</value>
							</parameter>
							<parameter>
								<parameterid>mids</parameterid>
								<name>Mids</name>
								<valuemin>0</valuemin>
								<valuemax>200</valuemax>
								<value>100</value>
							</parameter>
							<parameter>
								<parameterid>blacklevel</parameterid>
								<name>Blacks</name>
								<valuemin>-196</valuemin>
								<valuemax>254</valuemax>
								<value>-3</value>
							</parameter>
							<parameter>
								<parameterid>label2</parameterid>
								<name>Color Balance</name>
								<value/>
							</parameter>
							<parameter>
								<parameterid>hue</parameterid>
								<name>Angle</name>
								<valuemin>-180</valuemin>
								<valuemax>180</valuemax>
								<value>-33</value>
							</parameter>
							<parameter>
								<parameterid>mag</parameterid>
								<name>Magnitude</name>
								<valuemin>0</valuemin>
								<valuemax>200</valuemax>
								<value>0</value>
							</parameter>
							<parameter>
								<parameterid>label4</parameterid>
								<name>Color Controls</name>
								<value/>
							</parameter>
							<parameter>
								<parameterid>chroma</parameterid>
								<name>Saturation</name>
								<valuemin>0</valuemin>
								<valuemax>200</valuemax>
								<value>94</value>
							</parameter>
							<parameter>
								<parameterid>phase</parameterid>
								<name>Phase shift</name>
								<valuemin>-180</valuemin>
								<valuemax>180</valuemax>
								<value>0</value>
							</parameter>
							<parameter>
								<parameterid>label5</parameterid>
								<name>Limit Effect Controls</name>
								<value/>
							</parameter>
							<parameter>
								<parameterid>dochroma</parameterid>
								<name>Limit on Chroma</name>
								<value>TRUE</value>
							</parameter>
							<parameter>
								<parameterid>centerang</parameterid>
								<name>Chroma Center</name>
								<valuemin>-760</valuemin>
								<valuemax>760</valuemax>
								<value>322.256</value>
							</parameter>
							<parameter>
								<parameterid>chromawidth</parameterid>
								<name>Chroma Width</name>
								<valuemin>0</valuemin>
								<valuemax>360</valuemax>
								<value>8.11959</value>
							</parameter>
							<parameter>
								<parameterid>chromasoft</parameterid>
								<name>Chroma Softness</name>
								<valuemin>0</valuemin>
								<valuemax>180</valuemax>
								<value>26.8371</value>
							</parameter>
							<parameter>
								<parameterid>dosat</parameterid>
								<name>Limit on Saturation</name>
								<value>TRUE</value>
							</parameter>
							<parameter>
								<parameterid>satmin</parameterid>
								<name>Sat. Minimum</name>
								<valuemin>0</valuemin>
								<valuemax>125</valuemax>
								<value>36.7837</value>
							</parameter>
							<parameter>
								<parameterid>satwidth</parameterid>
								<name>Sat. Width</name>
								<valuemin>0</valuemin>
								<valuemax>125</valuemax>
								<value>84.0889</value>
							</parameter>
							<parameter>
								<parameterid>satsoft</parameterid>
								<name>Sat. Softness</name>
								<valuemin>0</valuemin>
								<valuemax>125</valuemax>
								<value>5</value>
							</parameter>
							<parameter>
								<parameterid>doluma</parameterid>
								<name>Limit on Luma</name>
								<value>TRUE</value>
							</parameter>
							<parameter>
								<parameterid>lumamin</parameterid>
								<name>Luma Minimum</name>
								<valuemin>0</valuemin>
								<valuemax>120</valuemax>
								<value>0.939667</value>
							</parameter>
							<parameter>
								<parameterid>lumawidth</parameterid>
								<name>Luma Width</name>
								<valuemin>0</valuemin>
								<valuemax>120</valuemax>
								<value>115.45</value>
							</parameter>
							<parameter>
								<parameterid>lumasoft</parameterid>
								<name>Luma Softness</name>
								<valuemin>0</valuemin>
								<valuemax>120</valuemax>
								<value>15.1099</value>
							</parameter>
							<parameter>
								<parameterid>label6</parameterid>
								<name>Edge Control</name>
								<value/>
							</parameter>
							<parameter>
								<parameterid>edgethin</parameterid>
								<name>Thin/Spread</name>
								<valuemin>-100</valuemin>
								<valuemax>100</valuemax>
								<value>0</value>
							</parameter>
							<parameter>
								<parameterid>edgefeather</parameterid>
								<name>Softening</name>
								<valuemin>0</valuemin>
								<valuemax>100</valuemax>
								<value>6</value>
							</parameter>
							<parameter>
								<parameterid>label7</parameterid>
								<name>Mask Control</name>
								<value/>
							</parameter>
							<parameter>
								<parameterid>invertsel</parameterid>
								<name>Invert</name>
								<value>FALSE</value>
							</parameter>
							<parameter>
								<parameterid>debugshow</parameterid>
								<name>Show Stats</name>
								<value>FALSE</value>
							</parameter>
						</effect>
					</filter>
					<sourcetrack>
						<mediatype>video</mediatype>
					</sourcetrack>
					<link>
						<linkclipref>00790001.MOV</linkclipref>
						<mediatype>video</mediatype>
						<trackindex>1</trackindex>
						<clipindex>159</clipindex>
					</link>
					<link>
						<linkclipref>00790001.MOV2</linkclipref>
						<mediatype>audio</mediatype>
						<trackindex>1</trackindex>
						<clipindex>164</clipindex>
					</link>
					<link>
						<linkclipref>00790001.MOV3</linkclipref>
						<mediatype>audio</mediatype>
						<trackindex>2</trackindex>
						<clipindex>165</clipindex>
					</link>
					<fielddominance>upper</fielddominance>
					<itemhistory>
						<uuid>B6262587-9A49-452F-9900-85C23D8BF8A6</uuid>
					</itemhistory>
				</clipitem>
				<clipitem id="00778001.MOV10">
					<name>00778001.MOV</name>
					<duration>2628</duration>
					<rate>
						<ntsc>FALSE</ntsc>
						<timebase>25</timebase>
					</rate>
					<in>1803</in>
					<out>1844</out>
					<start>23410</start>
					<end>23451</end>
					<pixelaspectratio>Square</pixelaspectratio>
					<enabled>TRUE</enabled>
					<anamorphic>FALSE</anamorphic>
					<alphatype>none</alphatype>
					<masterclipid>00778001.MOV1</masterclipid>
					<logginginfo>
						<scene/>
						<shottake/>
						<lognote/>
						<good>FALSE</good>
					</logginginfo>
					<labels>
						<label2/>
					</labels>
					<comments>
						<mastercomment1/>
						<mastercomment2/>
						<mastercomment3/>
						<mastercomment4/>
					</comments>
					<file id="00778001 "/>
					<sourcetrack>
						<mediatype>video</mediatype>
					</sourcetrack>
					<link>
						<linkclipref>00778001.MOV10</linkclipref>
						<mediatype>video</mediatype>
						<trackindex>1</trackindex>
						<clipindex>160</clipindex>
					</link>
					<link>
						<linkclipref>00778001.MOV11</linkclipref>
						<mediatype>audio</mediatype>
						<trackindex>1</trackindex>
						<clipindex>168</clipindex>
					</link>
					<link>
						<linkclipref>00778001.MOV12</linkclipref>
						<mediatype>audio</mediatype>
						<trackindex>2</trackindex>
						<clipindex>168</clipindex>
					</link>
					<fielddominance>upper</fielddominance>
					<itemhistory>
						<uuid>877CD774-9E85-4BCA-83DC-EC1997C7139C</uuid>
					</itemhistory>
				</clipitem>
				<clipitem id="00778001.MOV13">
					<name>00778001.MOV</name>
					<duration>2628</duration>
					<rate>
						<ntsc>FALSE</ntsc>
						<timebase>25</timebase>
					</rate>
					<in>2092</in>
					<out>2530</out>
					<start>23451</start>
					<end>23889</end>
					<pixelaspectratio>Square</pixelaspectratio>
					<enabled>TRUE</enabled>
					<anamorphic>FALSE</anamorphic>
					<alphatype>none</alphatype>
					<masterclipid>00778001.MOV1</masterclipid>
					<logginginfo>
						<scene/>
						<shottake/>
						<lognote/>
						<good>FALSE</good>
					</logginginfo>
					<labels>
						<label2/>
					</labels>
					<comments>
						<mastercomment1/>
						<mastercomment2/>
						<mastercomment3/>
						<mastercomment4/>
					</comments>
					<file id="00778001 "/>
					<filter>
						<start>-1</start>
						<end>-1</end>
						<effect>
							<name>G Simple Curves -15 white curve</name>
							<effectcategory>Nattress Big Box of Tricks - Levels and Curves</effectcategory>
							<effecttype>filter</effecttype>
							<mediatype>video</mediatype>
							<parameter>
								<parameterid>colourspace</parameterid>
								<name>Colour Space</name>
								<valuemin>1</valuemin>
								<valuemax>2</valuemax>
								<valuelist>
									<valueentry>
										<name>RGB</name>
										<value>1</value>
									</valueentry>
									<valueentry>
										<name>Y'CbCr</name>
										<value>2</value>
									</valueentry>
								</valuelist>
								<value>2</value>
							</parameter>
							<parameter>
								<parameterid>showcurves</parameterid>
								<name>Show Curves</name>
								<value>FALSE</value>
							</parameter>
							<parameter>
								<parameterid>lvar</parameterid>
								<name>Levels Controls</name>
								<value>string</value>
							</parameter>
							<parameter>
								<parameterid>inw</parameterid>
								<name>White Level</name>
								<valuemin>0</valuemin>
								<valuemax>255</valuemax>
								<value>255</value>
							</parameter>
							<parameter>
								<parameterid>inb</parameterid>
								<name>Black Level</name>
								<valuemin>0</valuemin>
								<valuemax>255</valuemax>
								<value>0</value>
							</parameter>
							<parameter>
								<parameterid>outw</parameterid>
								<name>White Output</name>
								<valuemin>0</valuemin>
								<valuemax>255</valuemax>
								<value>255</value>
							</parameter>
							<parameter>
								<parameterid>outb</parameterid>
								<name>Black Output</name>
								<valuemin>0</valuemin>
								<valuemax>255</valuemax>
								<value>0</value>
							</parameter>
							<parameter>
								<parameterid>cvar</parameterid>
								<name>Curves Controls</name>
								<value>string</value>
							</parameter>
							<parameter>
								<parameterid>curvew</parameterid>
								<name>White Curve</name>
								<valuemin>-100</valuemin>
								<valuemax>100</valuemax>
								<value>-15</value>
							</parameter>
							<parameter>
								<parameterid>curveb</parameterid>
								<name>Black Curve</name>
								<valuemin>-100</valuemin>
								<valuemax>100</valuemax>
								<value>0</value>
							</parameter>
							<parameter>
								<parameterid>clipoutput</parameterid>
								<name>Clip Output Levels</name>
								<value>TRUE</value>
							</parameter>
							<parameter>
								<parameterid>copyright</parameterid>
								<name>© www.nattress.com</name>
								<value>string</value>
							</parameter>
						</effect>
					</filter>
					<filter>
						<start>-1</start>
						<end>-1</end>
						<effect>
							<name>Color Corrector - Lua til Carina 3 bittelitt</name>
							<effectid>Color Corrector</effectid>
							<effectcategory>Color Correction</effectcategory>
							<effecttype>filter</effecttype>
							<mediatype>video</mediatype>
							<parameter>
								<parameterid>dispmode</parameterid>
								<name>Display Mode</name>
								<valuemin>1</valuemin>
								<valuemax>3</valuemax>
								<valuelist>
									<valueentry>
										<name>Final</name>
										<value>1</value>
									</valueentry>
									<valueentry>
										<name>Matte</name>
										<value>2</value>
									</valueentry>
									<valueentry>
										<name>Source</name>
										<value>3</value>
									</valueentry>
								</valuelist>
								<value>1</value>
							</parameter>
							<parameter>
								<parameterid>label1</parameterid>
								<name>Level Controls</name>
								<value/>
							</parameter>
							<parameter>
								<parameterid>highlights</parameterid>
								<name>Highlights</name>
								<valuemin>64</valuemin>
								<valuemax>509</valuemax>
								<value>247</value>
							</parameter>
							<parameter>
								<parameterid>mids</parameterid>
								<name>Mids</name>
								<valuemin>0</valuemin>
								<valuemax>200</valuemax>
								<value>100</value>
							</parameter>
							<parameter>
								<parameterid>blacklevel</parameterid>
								<name>Blacks</name>
								<valuemin>-196</valuemin>
								<valuemax>254</valuemax>
								<value>-3</value>
							</parameter>
							<parameter>
								<parameterid>label2</parameterid>
								<name>Color Balance</name>
								<value/>
							</parameter>
							<parameter>
								<parameterid>hue</parameterid>
								<name>Angle</name>
								<valuemin>-180</valuemin>
								<valuemax>180</valuemax>
								<value>-33</value>
							</parameter>
							<parameter>
								<parameterid>mag</parameterid>
								<name>Magnitude</name>
								<valuemin>0</valuemin>
								<valuemax>200</valuemax>
								<value>0</value>
							</parameter>
							<parameter>
								<parameterid>label4</parameterid>
								<name>Color Controls</name>
								<value/>
							</parameter>
							<parameter>
								<parameterid>chroma</parameterid>
								<name>Saturation</name>
								<valuemin>0</valuemin>
								<valuemax>200</valuemax>
								<value>94</value>
							</parameter>
							<parameter>
								<parameterid>phase</parameterid>
								<name>Phase shift</name>
								<valuemin>-180</valuemin>
								<valuemax>180</valuemax>
								<value>0</value>
							</parameter>
							<parameter>
								<parameterid>label5</parameterid>
								<name>Limit Effect Controls</name>
								<value/>
							</parameter>
							<parameter>
								<parameterid>dochroma</parameterid>
								<name>Limit on Chroma</name>
								<value>TRUE</value>
							</parameter>
							<parameter>
								<parameterid>centerang</parameterid>
								<name>Chroma Center</name>
								<valuemin>-760</valuemin>
								<valuemax>760</valuemax>
								<value>322.256</value>
							</parameter>
							<parameter>
								<parameterid>chromawidth</parameterid>
								<name>Chroma Width</name>
								<valuemin>0</valuemin>
								<valuemax>360</valuemax>
								<value>8.11959</value>
							</parameter>
							<parameter>
								<parameterid>chromasoft</parameterid>
								<name>Chroma Softness</name>
								<valuemin>0</valuemin>
								<valuemax>180</valuemax>
								<value>26.8371</value>
							</parameter>
							<parameter>
								<parameterid>dosat</parameterid>
								<name>Limit on Saturation</name>
								<value>TRUE</value>
							</parameter>
							<parameter>
								<parameterid>satmin</parameterid>
								<name>Sat. Minimum</name>
								<valuemin>0</valuemin>
								<valuemax>125</valuemax>
								<value>36.7837</value>
							</parameter>
							<parameter>
								<parameterid>satwidth</parameterid>
								<name>Sat. Width</name>
								<valuemin>0</valuemin>
								<valuemax>125</valuemax>
								<value>84.0889</value>
							</parameter>
							<parameter>
								<parameterid>satsoft</parameterid>
								<name>Sat. Softness</name>
								<valuemin>0</valuemin>
								<valuemax>125</valuemax>
								<value>5</value>
							</parameter>
							<parameter>
								<parameterid>doluma</parameterid>
								<name>Limit on Luma</name>
								<value>TRUE</value>
							</parameter>
							<parameter>
								<parameterid>lumamin</parameterid>
								<name>Luma Minimum</name>
								<valuemin>0</valuemin>
								<valuemax>120</valuemax>
								<value>0.939667</value>
							</parameter>
							<parameter>
								<parameterid>lumawidth</parameterid>
								<name>Luma Width</name>
								<valuemin>0</valuemin>
								<valuemax>120</valuemax>
								<value>115.45</value>
							</parameter>
							<parameter>
								<parameterid>lumasoft</parameterid>
								<name>Luma Softness</name>
								<valuemin>0</valuemin>
								<valuemax>120</valuemax>
								<value>15.1099</value>
							</parameter>
							<parameter>
								<parameterid>label6</parameterid>
								<name>Edge Control</name>
								<value/>
							</parameter>
							<parameter>
								<parameterid>edgethin</parameterid>
								<name>Thin/Spread</name>
								<valuemin>-100</valuemin>
								<valuemax>100</valuemax>
								<value>0</value>
							</parameter>
							<parameter>
								<parameterid>edgefeather</parameterid>
								<name>Softening</name>
								<valuemin>0</valuemin>
								<valuemax>100</valuemax>
								<value>6</value>
							</parameter>
							<parameter>
								<parameterid>label7</parameterid>
								<name>Mask Control</name>
								<value/>
							</parameter>
							<parameter>
								<parameterid>invertsel</parameterid>
								<name>Invert</name>
								<value>FALSE</value>
							</parameter>
							<parameter>
								<parameterid>debugshow</parameterid>
								<name>Show Stats</name>
								<value>FALSE</value>
							</parameter>
						</effect>
					</filter>
					<sourcetrack>
						<mediatype>video</mediatype>
					</sourcetrack>
					<link>
						<linkclipref>00778001.MOV13</linkclipref>
						<mediatype>video</mediatype>
						<trackindex>1</trackindex>
						<clipindex>161</clipindex>
					</link>
					<link>
						<linkclipref>00778001.MOV14</linkclipref>
						<mediatype>audio</mediatype>
						<trackindex>1</trackindex>
						<clipindex>169</clipindex>
					</link>
					<link>
						<linkclipref>00778001.MOV15</linkclipref>
						<mediatype>audio</mediatype>
						<trackindex>2</trackindex>
						<clipindex>169</clipindex>
					</link>
					<fielddominance>upper</fielddominance>
					<itemhistory>
						<uuid>A4249187-1D35-4501-B4A1-08B60585AA5E</uuid>
					</itemhistory>
				</clipitem>
				<clipitem id="MVI_9611 ">
					<name>MVI_9611</name>
					<duration>956</duration>
					<rate>
						<ntsc>FALSE</ntsc>
						<timebase>25</timebase>
					</rate>
					<in>313</in>
					<out>387</out>
					<start>23901</start>
					<end>23975</end>
					<pixelaspectratio>Square</pixelaspectratio>
					<enabled>TRUE</enabled>
					<anamorphic>FALSE</anamorphic>
					<alphatype>none</alphatype>
					<masterclipid>MVI_9611 1</masterclipid>
					<logginginfo>
						<scene/>
						<shottake/>
						<lognote/>
						<good>FALSE</good>
					</logginginfo>
					<labels>
						<label2/>
					</labels>
					<comments>
						<mastercomment1/>
						<mastercomment2/>
						<mastercomment3/>
						<mastercomment4/>
					</comments>
					<file id="MVI_9611 2">
						<name>MVI_9611.mov</name>
						<pathurl>file://localhost/Volumes/Askepott/Prosjekter/DNPR637010_Kra%CC%8Akeklubben_TEM_011212/Video/MUSIKKVIDEO/Treet/Apple%20ProRes%20422%20HQ/MVI_9611.mov</pathurl>
						<rate>
							<timebase>25</timebase>
						</rate>
						<duration>956</duration>
						<media>
							<video>
								<duration>956</duration>
								<samplecharacteristics>
									<width>1920</width>
									<height>1080</height>
								</samplecharacteristics>
							</video>
							<audio>
								<samplecharacteristics>
									<samplerate>48000</samplerate>
									<depth>16</depth>
								</samplecharacteristics>
								<channelcount>2</channelcount>
							</audio>
						</media>
					</file>
					<filter>
						<effect>
							<name>Basic Motion</name>
							<effectid>basic</effectid>
							<effectcategory>motion</effectcategory>
							<effecttype>motion</effecttype>
							<mediatype>video</mediatype>
							<parameter>
								<parameterid>scale</parameterid>
								<name>Scale</name>
								<valuemin>0</valuemin>
								<valuemax>1000</valuemax>
								<value>100</value>
							</parameter>
							<parameter>
								<parameterid>rotation</parameterid>
								<name>Rotation</name>
								<valuemin>-8640</valuemin>
								<valuemax>8640</valuemax>
								<value>0</value>
							</parameter>
							<parameter>
								<parameterid>center</parameterid>
								<name>Center</name>
								<value>
									<horiz>0</horiz>
									<vert>0</vert>
								</value>
							</parameter>
							<parameter>
								<parameterid>centerOffset</parameterid>
								<name>Anchor Point</name>
								<value>
									<horiz>0</horiz>
									<vert>0</vert>
								</value>
							</parameter>
						</effect>
					</filter>
					<filter>
						<enabled>FALSE</enabled>
						<effect>
							<name>Drop Shadow</name>
							<effectid>dropshadow</effectid>
							<effectcategory>motion</effectcategory>
							<effecttype>motion</effecttype>
							<mediatype>video</mediatype>
							<parameter>
								<parameterid>offset</parameterid>
								<name>offset</name>
								<valuemin>-100</valuemin>
								<valuemax>100</valuemax>
								<value>2</value>
							</parameter>
							<parameter>
								<parameterid>angle</parameterid>
								<name>angle</name>
								<valuemin>-720</valuemin>
								<valuemax>720</valuemax>
								<value>135</value>
							</parameter>
							<parameter>
								<parameterid>color</parameterid>
								<name>color</name>
								<value>
									<alpha>0</alpha>
									<red>0</red>
									<green>0</green>
									<blue>0</blue>
								</value>
							</parameter>
							<parameter>
								<parameterid>softness</parameterid>
								<name>softness</name>
								<valuemin>0</valuemin>
								<valuemax>100</valuemax>
								<value>10</value>
							</parameter>
							<parameter>
								<parameterid>opacity</parameterid>
								<name>opacity</name>
								<valuemin>0</valuemin>
								<valuemax>100</valuemax>
								<value>50</value>
							</parameter>
						</effect>
					</filter>
					<filter>
						<enabled>FALSE</enabled>
						<effect>
							<name>Motion Blur</name>
							<effectid>motionblur</effectid>
							<effectcategory>motion</effectcategory>
							<effecttype>motion</effecttype>
							<mediatype>video</mediatype>
							<parameter>
								<parameterid>duration</parameterid>
								<name>% Blur</name>
								<valuemin>0</valuemin>
								<valuemax>1000</valuemax>
								<value>500</value>
							</parameter>
							<parameter>
								<parameterid>samples</parameterid>
								<name>Samples</name>
								<valuemin>1</valuemin>
								<valuemax>16</valuemax>
								<value>4</value>
							</parameter>
						</effect>
					</filter>
					<filter>
						<effect>
							<name>Crop</name>
							<effectid>crop</effectid>
							<effectcategory>motion</effectcategory>
							<effecttype>motion</effecttype>
							<mediatype>video</mediatype>
							<parameter>
								<parameterid>left</parameterid>
								<name>left</name>
								<valuemin>0</valuemin>
								<valuemax>100</valuemax>
								<value>0</value>
							</parameter>
							<parameter>
								<parameterid>right</parameterid>
								<name>right</name>
								<valuemin>0</valuemin>
								<valuemax>100</valuemax>
								<value>0</value>
							</parameter>
							<parameter>
								<parameterid>top</parameterid>
								<name>top</name>
								<valuemin>0</valuemin>
								<valuemax>100</valuemax>
								<value>0</value>
							</parameter>
							<parameter>
								<parameterid>bottom</parameterid>
								<name>bottom</name>
								<valuemin>0</valuemin>
								<valuemax>100</valuemax>
								<value>0</value>
							</parameter>
							<parameter>
								<parameterid>edgefeather</parameterid>
								<name>edgefeather</name>
								<valuemin>0</valuemin>
								<valuemax>100</valuemax>
								<value>0</value>
							</parameter>
						</effect>
					</filter>
					<filter>
						<effect>
							<name>Distort</name>
							<effectid>deformation</effectid>
							<effectcategory>motion</effectcategory>
							<effecttype>motion</effecttype>
							<mediatype>video</mediatype>
							<parameter>
								<parameterid>ulcorner</parameterid>
								<name>Upper Left</name>
								<value>
									<horiz>-0.5</horiz>
									<vert>-0.5</vert>
								</value>
							</parameter>
							<parameter>
								<parameterid>urcorner</parameterid>
								<name>Upper Right</name>
								<value>
									<horiz>0.5</horiz>
									<vert>-0.5</vert>
								</value>
							</parameter>
							<parameter>
								<parameterid>lrcorner</parameterid>
								<name>Lower Right</name>
								<value>
									<horiz>0.5</horiz>
									<vert>0.5</vert>
								</value>
							</parameter>
							<parameter>
								<parameterid>llcorner</parameterid>
								<name>Lower Left</name>
								<value>
									<horiz>-0.5</horiz>
									<vert>0.5</vert>
								</value>
							</parameter>
							<parameter>
								<parameterid>aspect</parameterid>
								<name>Aspect</name>
								<valuemin>-10000</valuemin>
								<valuemax>10000</valuemax>
								<value>0</value>
							</parameter>
						</effect>
					</filter>
					<filter>
						<effect>
							<name>Opacity</name>
							<effectid>opacity</effectid>
							<effectcategory>motion</effectcategory>
							<effecttype>motion</effecttype>
							<mediatype>video</mediatype>
							<parameter>
								<parameterid>opacity</parameterid>
								<name>opacity</name>
								<valuemin>0</valuemin>
								<valuemax>100</valuemax>
								<value>0</value>
							</parameter>
						</effect>
					</filter>
					<sourcetrack>
						<mediatype>video</mediatype>
					</sourcetrack>
					<fielddominance>upper</fielddominance>
					<itemhistory>
						<uuid>E550860D-EA45-49AE-9F64-C6AAFE841FA4</uuid>
					</itemhistory>
				</clipitem>
				<clipitem id="MVI_9541 ">
					<name>MVI_9541</name>
					<duration>381</duration>
					<rate>
						<ntsc>FALSE</ntsc>
						<timebase>25</timebase>
					</rate>
					<in>203</in>
					<out>285</out>
					<start>23975</start>
					<end>24057</end>
					<pixelaspectratio>Square</pixelaspectratio>
					<enabled>TRUE</enabled>
					<anamorphic>FALSE</anamorphic>
					<alphatype>none</alphatype>
					<masterclipid>MVI_9541 1</masterclipid>
					<logginginfo>
						<scene/>
						<shottake/>
						<lognote/>
						<good>FALSE</good>
					</logginginfo>
					<labels>
						<label2/>
					</labels>
					<comments>
						<mastercomment1/>
						<mastercomment2/>
						<mastercomment3/>
						<mastercomment4/>
					</comments>
					<file id="MVI_9541 2">
						<name>MVI_9541.mov</name>
						<pathurl>file://localhost/Volumes/Askepott/Prosjekter/DNPR637010_Kra%CC%8Akeklubben_TEM_011212/Video/MUSIKKVIDEO/Treet/Apple%20ProRes%20422%20HQ/MVI_9541.mov</pathurl>
						<rate>
							<timebase>25</timebase>
						</rate>
						<duration>381</duration>
						<media>
							<video>
								<duration>381</duration>
								<samplecharacteristics>
									<width>1920</width>
									<height>1080</height>
								</samplecharacteristics>
							</video>
							<audio>
								<samplecharacteristics>
									<samplerate>48000</samplerate>
									<depth>16</depth>
								</samplecharacteristics>
								<channelcount>2</channelcount>
							</audio>
						</media>
					</file>
					<sourcetrack>
						<mediatype>video</mediatype>
					</sourcetrack>
					<fielddominance>upper</fielddominance>
					<itemhistory>
						<uuid>F2B9135E-AAFB-4494-AE10-7AF05D5BB4E2</uuid>
					</itemhistory>
				</clipitem>
				<clipitem id="DYR18697_01 ">
					<name>DYR18697_01</name>
					<duration>1802</duration>
					<rate>
						<ntsc>FALSE</ntsc>
						<timebase>25</timebase>
					</rate>
					<in>247</in>
					<out>316</out>
					<start>24057</start>
					<end>24126</end>
					<pixelaspectratio>Square</pixelaspectratio>
					<enabled>TRUE</enabled>
					<anamorphic>FALSE</anamorphic>
					<alphatype>none</alphatype>
					<masterclipid>DYR18697_01 1</masterclipid>
					<logginginfo>
						<scene/>
						<shottake/>
						<lognote/>
						<good>FALSE</good>
					</logginginfo>
					<labels>
						<label2/>
					</labels>
					<comments>
						<mastercomment1/>
						<mastercomment2/>
						<mastercomment3/>
						<mastercomment4/>
					</comments>
					<file id="DYR18697_01 2">
						<name>DYR18697_01.mov</name>
						<pathurl>file://localhost/Volumes/Askepott/Prosjekter/DNPR637010_Kra%CC%8Akeklubben_TEM_011212/Video/MUSIKKVIDEO/Treet/DYR18697_01.mov</pathurl>
						<rate>
							<timebase>25</timebase>
						</rate>
						<duration>1802</duration>
						<metadata>
							<storage>QuickTime</storage>
							<key>com.sony.bprl.xdcamtransfer.version</key>
							<size>10</size>
							<type>UTF8</type>
							<value>2.12.0.631</value>
						</metadata>
						<metadata>
							<storage>QuickTime</storage>
							<key>org.smpte.mxf.package.material.packageid</key>
							<size>66</size>
							<type>UTF8</type>
							<value>0x060a2b340101010501010d431300000041dedd6c625405d908004602022f05f5</value>
						</metadata>
						<metadata>
							<storage>QuickTime</storage>
							<key>com.sony.professionaldisc.nonrealtimemeta.lastupdate</key>
							<size>25</size>
							<type>UTF8</type>
							<value>2010-09-23 11:13:35 +0100</value>
						</metadata>
						<metadata>
							<storage>QuickTime</storage>
							<key>com.sony.bprl.mxf.umid</key>
							<size>64</size>
							<type>UTF8</type>
							<value>060a2b340101010501010d431300000041dedd6c625405d908004602022f05f5</value>
						</metadata>
						<metadata>
							<storage>QuickTime</storage>
							<key>com.sony.bprl.mxf.nrtmetadata</key>
							<size>1994</size>
							<type>UTF8</type>
							<value>&lt;?xml version="1.0" encoding="UTF-8"?>&lt;NonRealTimeMeta xmlns="urn:schemas-professionalDisc:nonRealTimeMeta:ver.1.20" xmlns:lib="urn:schemas-professionalDisc:lib:ver.1.20" xmlns:xsi="http://www.w3.org/2001/XMLSchema-instance" lastUpdate="2010-09-23T11:13:35+01:00">&lt;TargetMaterial umidRef="060A2B340101010501010D431300000041DEDD6C625405D908004602022F05F5">&lt;/TargetMaterial>&lt;Duration value="1802">&lt;/Duration>&lt;LtcChangeTable tcFps="25" halfStep="false">&lt;LtcChange frameCount="0" value="09134813" status="increment">&lt;/LtcChange>&lt;LtcChange frameCount="1801" value="10254913" status="end">&lt;/LtcChange>&lt;/LtcChangeTable>&lt;CreationDate value="2010-09-23T11:12:22+01:00">&lt;/CreationDate>&lt;TypicalUbit value="0000000017061020">&lt;/TypicalUbit>&lt;BodyUmidBasicChangeTable>&lt;BodyUmidBasicChange frameCount="0" value="060A2B340101010501010D433300000041DEDD6C625405D908004602022F05F5" status="start">&lt;/BodyUmidBasicChange>&lt;/BodyUmidBasicChangeTable>&lt;BodyUmidWhenChangeTable>&lt;BodyUmidWhenChange frameCount="0" value="C40A8103625405A5" status="increment">&lt;/BodyUmidWhenChange>&lt;BodyUmidWhenChange frameCount="1801" value="04CD8203625405A5" status="end">&lt;/BodyUmidWhenChange>&lt;/BodyUmidWhenChangeTable>&lt;KlvPacketTable>&lt;KlvPacket key="060E2B34010101050301020A02000000" frameCount="0" lengthValue="095F5265635374617274" status="spot">&lt;/KlvPacket>&lt;/KlvPacketTable>&lt;VideoFormat>&lt;VideoRecPort port="DIRECT">&lt;/VideoRecPort>&lt;VideoFrame videoCodec="MPEG2HD35_1920_1080_MP@HL" captureFps="50.00i" recFps="50.00" formatFps="50i">&lt;/VideoFrame>&lt;VideoLayout pixel="1920" numOfVerticalLine="1080" aspectRatio="16:9">&lt;/VideoLayout>&lt;/VideoFormat>&lt;AudioFormat numOfChannel="2">&lt;AudioRecPort port="DIRECT" audioCodec="LPCM16" trackDst="CH1">&lt;/AudioRecPort>&lt;AudioRecPort port="DIRECT" audioCodec="LPCM16" trackDst="CH2">&lt;/AudioRecPort>&lt;/AudioFormat>&lt;Device manufacturer="Sony" modelName="PMW-EX3" serialNo="0401525">&lt;/Device>&lt;Lens modelName="VCL-614B2X">&lt;/Lens>&lt;RecordingMode type="normal" cacheRec="false">&lt;/RecordingMode>&lt;/NonRealTimeMeta>
							</value>
						</metadata>
						<metadata>
							<storage>QuickTime</storage>
							<key>com.apple.proapps.reel</key>
							<size>8</size>
							<type>UTF8</type>
							<value>Untitled</value>
						</metadata>
						<metadata>
							<storage>QuickTime</storage>
							<key>com.apple.proapps.clipID</key>
							<size>64</size>
							<type>UTF8</type>
							<value>060A2B340101010501010D431300000041DEDD6C625405D908004602022F05F5</value>
						</metadata>
						<metadata>
							<storage>QuickTime</storage>
							<key>com.apple.quicktime.information</key>
							<size>64</size>
							<type>UTF8</type>
							<value>060a2b340101010501010d431300000041dedd6c625405d908004602022f05f5</value>
						</metadata>
						<metadata>
							<storage>QuickTime</storage>
							<key>com.apple.proapps.originalFormat</key>
							<size>36</size>
							<type>UTF8</type>
							<value>Apple XDCAM EX 1080i50 (35 Mb/s VBR)</value>
						</metadata>
						<timecode>
							<rate>
								<timebase>25</timebase>
							</rate>
							<string>13:48:13:09</string>
							<frame>1242334</frame>
							<displayformat>NDF</displayformat>
							<source>source</source>
							<reel>
								<name>Untitled</name>
							</reel>
						</timecode>
						<media>
							<video>
								<duration>1802</duration>
								<samplecharacteristics>
									<width>1920</width>
									<height>1080</height>
								</samplecharacteristics>
							</video>
							<audio>
								<samplecharacteristics>
									<samplerate>48000</samplerate>
									<depth>16</depth>
								</samplecharacteristics>
								<channelcount>1</channelcount>
								<layout>mono</layout>
								<audiochannel>
									<sourcechannel>1</sourcechannel>
									<channellabel>discrete</channellabel>
								</audiochannel>
							</audio>
							<audio>
								<samplecharacteristics>
									<samplerate>48000</samplerate>
									<depth>16</depth>
								</samplecharacteristics>
								<channelcount>1</channelcount>
								<layout>mono</layout>
								<audiochannel>
									<sourcechannel>2</sourcechannel>
									<channellabel>discrete</channellabel>
								</audiochannel>
							</audio>
						</media>
					</file>
					<filter>
						<effect>
							<name>Basic Motion</name>
							<effectid>basic</effectid>
							<effectcategory>motion</effectcategory>
							<effecttype>motion</effecttype>
							<mediatype>video</mediatype>
							<parameter>
								<parameterid>scale</parameterid>
								<name>Scale</name>
								<valuemin>0</valuemin>
								<valuemax>1000</valuemax>
								<value>100</value>
							</parameter>
							<parameter>
								<parameterid>rotation</parameterid>
								<name>Rotation</name>
								<valuemin>-8640</valuemin>
								<valuemax>8640</valuemax>
								<value>0</value>
							</parameter>
							<parameter>
								<parameterid>center</parameterid>
								<name>Center</name>
								<value>
									<horiz>0</horiz>
									<vert>0</vert>
								</value>
							</parameter>
							<parameter>
								<parameterid>centerOffset</parameterid>
								<name>Anchor Point</name>
								<value>
									<horiz>0</horiz>
									<vert>0</vert>
								</value>
							</parameter>
						</effect>
					</filter>
					<filter>
						<enabled>FALSE</enabled>
						<effect>
							<name>Drop Shadow</name>
							<effectid>dropshadow</effectid>
							<effectcategory>motion</effectcategory>
							<effecttype>motion</effecttype>
							<mediatype>video</mediatype>
							<parameter>
								<parameterid>offset</parameterid>
								<name>offset</name>
								<valuemin>-100</valuemin>
								<valuemax>100</valuemax>
								<value>2</value>
							</parameter>
							<parameter>
								<parameterid>angle</parameterid>
								<name>angle</name>
								<valuemin>-720</valuemin>
								<valuemax>720</valuemax>
								<value>135</value>
							</parameter>
							<parameter>
								<parameterid>color</parameterid>
								<name>color</name>
								<value>
									<alpha>0</alpha>
									<red>0</red>
									<green>0</green>
									<blue>0</blue>
								</value>
							</parameter>
							<parameter>
								<parameterid>softness</parameterid>
								<name>softness</name>
								<valuemin>0</valuemin>
								<valuemax>100</valuemax>
								<value>10</value>
							</parameter>
							<parameter>
								<parameterid>opacity</parameterid>
								<name>opacity</name>
								<valuemin>0</valuemin>
								<valuemax>100</valuemax>
								<value>50</value>
							</parameter>
						</effect>
					</filter>
					<filter>
						<enabled>FALSE</enabled>
						<effect>
							<name>Motion Blur</name>
							<effectid>motionblur</effectid>
							<effectcategory>motion</effectcategory>
							<effecttype>motion</effecttype>
							<mediatype>video</mediatype>
							<parameter>
								<parameterid>duration</parameterid>
								<name>% Blur</name>
								<valuemin>0</valuemin>
								<valuemax>1000</valuemax>
								<value>500</value>
							</parameter>
							<parameter>
								<parameterid>samples</parameterid>
								<name>Samples</name>
								<valuemin>1</valuemin>
								<valuemax>16</valuemax>
								<value>4</value>
							</parameter>
						</effect>
					</filter>
					<filter>
						<effect>
							<name>Crop</name>
							<effectid>crop</effectid>
							<effectcategory>motion</effectcategory>
							<effecttype>motion</effecttype>
							<mediatype>video</mediatype>
							<parameter>
								<parameterid>left</parameterid>
								<name>left</name>
								<valuemin>0</valuemin>
								<valuemax>100</valuemax>
								<value>0</value>
							</parameter>
							<parameter>
								<parameterid>right</parameterid>
								<name>right</name>
								<valuemin>0</valuemin>
								<valuemax>100</valuemax>
								<value>0</value>
							</parameter>
							<parameter>
								<parameterid>top</parameterid>
								<name>top</name>
								<valuemin>0</valuemin>
								<valuemax>100</valuemax>
								<value>0</value>
							</parameter>
							<parameter>
								<parameterid>bottom</parameterid>
								<name>bottom</name>
								<valuemin>0</valuemin>
								<valuemax>100</valuemax>
								<value>0</value>
							</parameter>
							<parameter>
								<parameterid>edgefeather</parameterid>
								<name>edgefeather</name>
								<valuemin>0</valuemin>
								<valuemax>100</valuemax>
								<value>0</value>
							</parameter>
						</effect>
					</filter>
					<filter>
						<effect>
							<name>Distort</name>
							<effectid>deformation</effectid>
							<effectcategory>motion</effectcategory>
							<effecttype>motion</effecttype>
							<mediatype>video</mediatype>
							<parameter>
								<parameterid>ulcorner</parameterid>
								<name>Upper Left</name>
								<value>
									<horiz>-0.5</horiz>
									<vert>-0.5</vert>
								</value>
							</parameter>
							<parameter>
								<parameterid>urcorner</parameterid>
								<name>Upper Right</name>
								<value>
									<horiz>0.5</horiz>
									<vert>-0.5</vert>
								</value>
							</parameter>
							<parameter>
								<parameterid>lrcorner</parameterid>
								<name>Lower Right</name>
								<value>
									<horiz>0.5</horiz>
									<vert>0.5</vert>
								</value>
							</parameter>
							<parameter>
								<parameterid>llcorner</parameterid>
								<name>Lower Left</name>
								<value>
									<horiz>-0.5</horiz>
									<vert>0.5</vert>
								</value>
							</parameter>
							<parameter>
								<parameterid>aspect</parameterid>
								<name>Aspect</name>
								<valuemin>-10000</valuemin>
								<valuemax>10000</valuemax>
								<value>0</value>
							</parameter>
						</effect>
					</filter>
					<filter>
						<effect>
							<name>Opacity</name>
							<effectid>opacity</effectid>
							<effectcategory>motion</effectcategory>
							<effecttype>motion</effecttype>
							<mediatype>video</mediatype>
							<parameter>
								<parameterid>opacity</parameterid>
								<name>opacity</name>
								<valuemin>0</valuemin>
								<valuemax>100</valuemax>
								<value>100</value>
							</parameter>
						</effect>
					</filter>
					<sourcetrack>
						<mediatype>video</mediatype>
					</sourcetrack>
					<fielddominance>upper</fielddominance>
					<itemhistory>
						<uuid>883D29F5-072D-4377-A6BE-E7B6FC173CCD</uuid>
					</itemhistory>
					<filter>
						<effect>
							<name>Time Remap</name>
							<effectid>timeremap</effectid>
							<effectcategory>motion</effectcategory>
							<effecttype>motion</effecttype>
							<mediatype>video</mediatype>
							<parameter>
								<parameterid>variablespeed</parameterid>
								<name>variablespeed</name>
								<valuemin>0</valuemin>
								<valuemax>1</valuemax>
								<value>1</value>
							</parameter>
							<parameter>
								<parameterid>mappedduration</parameterid>
								<name>mappedduration</name>
								<value>
									<timecode>
										<rate>
											<timebase>0</timebase>
										</rate>
										<string>0</string>
										<frame>0</frame>
										<displayformat>NDF</displayformat>
									</timecode>
								</value>
							</parameter>
							<parameter>
								<parameterid>speed</parameterid>
								<name>speed</name>
								<valuemin>-10000</valuemin>
								<valuemax>10000</valuemax>
								<value>839</value>
							</parameter>
							<parameter>
								<parameterid>reverse</parameterid>
								<name>reverse</name>
								<value>FALSE</value>
							</parameter>
							<parameter>
								<parameterid>frameblending</parameterid>
								<name>frameblending</name>
								<value>TRUE</value>
							</parameter>
							<parameter>
								<parameterid>graphdict</parameterid>
								<name>graphdict</name>
								<valuemin>0</valuemin>
								<valuemax>1801</valuemax>
								<keyframe>
									<when>0</when>
									<value>0</value>
									<speedkfstart>TRUE</speedkfstart>
									<speedvirtualkf>TRUE</speedvirtualkf>
								</keyframe>
								<keyframe>
									<when>247</when>
									<value>230.092</value>
									<speedkfin>TRUE</speedkfin>
									<speedvirtualkf>TRUE</speedvirtualkf>
								</keyframe>
								<keyframe>
									<when>265</when>
									<value>265</value>
									<inbez>
										<horiz>66.25</horiz>
										<vert>-1.97222</vert>
									</inbez>
									<outbez>
										<horiz>1.75</horiz>
										<vert>1.16937</vert>
									</outbez>
								</keyframe>
								<keyframe>
									<when>278</when>
									<value>578</value>
									<inbez>
										<horiz>1.76978</horiz>
										<vert>-2.04814</vert>
									</inbez>
									<outbez>
										<horiz>245.38</horiz>
										<vert>1.40705</vert>
									</outbez>
								</keyframe>
								<keyframe>
									<when>316</when>
									<value>806.625</value>
									<speedkfout>TRUE</speedkfout>
									<speedvirtualkf>TRUE</speedvirtualkf>
								</keyframe>
								<keyframe>
									<when>320</when>
									<value>820.098</value>
								</keyframe>
								<keyframe>
									<when>1802</when>
									<value>1802</value>
									<speedkfend>TRUE</speedkfend>
									<speedvirtualkf>TRUE</speedvirtualkf>
								</keyframe>
								<interpolation>
									<name>FCPCurve</name>
								</interpolation>
								<value>230.092</value>
							</parameter>
						</effect>
					</filter>
				</clipitem>
				<clipitem id="DYR18683_01 ">
					<name>DYR18683_01</name>
					<duration>979</duration>
					<rate>
						<ntsc>FALSE</ntsc>
						<timebase>25</timebase>
					</rate>
					<in>292</in>
					<out>486</out>
					<start>24126</start>
					<end>24320</end>
					<pixelaspectratio>Square</pixelaspectratio>
					<enabled>TRUE</enabled>
					<anamorphic>FALSE</anamorphic>
					<alphatype>none</alphatype>
					<masterclipid>DYR18683_01 1</masterclipid>
					<logginginfo>
						<scene/>
						<shottake/>
						<lognote/>
						<good>FALSE</good>
					</logginginfo>
					<labels>
						<label2/>
					</labels>
					<comments>
						<mastercomment1/>
						<mastercomment2/>
						<mastercomment3/>
						<mastercomment4/>
					</comments>
					<file id="DYR18683_01 2">
						<name>DYR18683_01.mov</name>
						<pathurl>file://localhost/Volumes/Askepott/Prosjekter/DNPR637010_Kra%CC%8Akeklubben_TEM_011212/Video/MUSIKKVIDEO/Treet/DYR18683_01.mov</pathurl>
						<rate>
							<timebase>25</timebase>
						</rate>
						<duration>979</duration>
						<metadata>
							<storage>QuickTime</storage>
							<key>com.sony.bprl.xdcamtransfer.version</key>
							<size>10</size>
							<type>UTF8</type>
							<value>2.12.0.631</value>
						</metadata>
						<metadata>
							<storage>QuickTime</storage>
							<key>org.smpte.mxf.package.material.packageid</key>
							<size>66</size>
							<type>UTF8</type>
							<value>0x060a2b340101010501010d43130000007cc6d366625405d908004602022f05f5</value>
						</metadata>
						<metadata>
							<storage>QuickTime</storage>
							<key>com.sony.professionaldisc.nonrealtimemeta.lastupdate</key>
							<size>25</size>
							<type>UTF8</type>
							<value>2010-09-23 10:39:04 +0100</value>
						</metadata>
						<metadata>
							<storage>QuickTime</storage>
							<key>com.sony.bprl.mxf.umid</key>
							<size>64</size>
							<type>UTF8</type>
							<value>060a2b340101010501010d43130000007cc6d366625405d908004602022f05f5</value>
						</metadata>
						<metadata>
							<storage>QuickTime</storage>
							<key>com.sony.bprl.mxf.nrtmetadata</key>
							<size>1991</size>
							<type>UTF8</type>
							<value>&lt;?xml version="1.0" encoding="UTF-8"?>&lt;NonRealTimeMeta xmlns="urn:schemas-professionalDisc:nonRealTimeMeta:ver.1.20" xmlns:lib="urn:schemas-professionalDisc:lib:ver.1.20" xmlns:xsi="http://www.w3.org/2001/XMLSchema-instance" lastUpdate="2010-09-23T10:39:04+01:00">&lt;TargetMaterial umidRef="060A2B340101010501010D43130000007CC6D366625405D908004602022F05F5">&lt;/TargetMaterial>&lt;Duration value="979">&lt;/Duration>&lt;LtcChangeTable tcFps="25" halfStep="false">&lt;LtcChange frameCount="0" value="08023913" status="increment">&lt;/LtcChange>&lt;LtcChange frameCount="978" value="11413913" status="end">&lt;/LtcChange>&lt;/LtcChangeTable>&lt;CreationDate value="2010-09-23T10:38:24+01:00">&lt;/CreationDate>&lt;TypicalUbit value="0000000017061020">&lt;/TypicalUbit>&lt;BodyUmidBasicChangeTable>&lt;BodyUmidBasicChange frameCount="0" value="060A2B340101010501010D43330000007CC6D366625405D908004602022F05F5" status="start">&lt;/BodyUmidBasicChange>&lt;/BodyUmidBasicChangeTable>&lt;BodyUmidWhenChangeTable>&lt;BodyUmidWhenChange frameCount="0" value="04474F03625405A5" status="increment">&lt;/BodyUmidWhenChange>&lt;BodyUmidWhenChange frameCount="978" value="843B5003625405A5" status="end">&lt;/BodyUmidWhenChange>&lt;/BodyUmidWhenChangeTable>&lt;KlvPacketTable>&lt;KlvPacket key="060E2B34010101050301020A02000000" frameCount="0" lengthValue="095F5265635374617274" status="spot">&lt;/KlvPacket>&lt;/KlvPacketTable>&lt;VideoFormat>&lt;VideoRecPort port="DIRECT">&lt;/VideoRecPort>&lt;VideoFrame videoCodec="MPEG2HD35_1920_1080_MP@HL" captureFps="50.00i" recFps="50.00" formatFps="50i">&lt;/VideoFrame>&lt;VideoLayout pixel="1920" numOfVerticalLine="1080" aspectRatio="16:9">&lt;/VideoLayout>&lt;/VideoFormat>&lt;AudioFormat numOfChannel="2">&lt;AudioRecPort port="DIRECT" audioCodec="LPCM16" trackDst="CH1">&lt;/AudioRecPort>&lt;AudioRecPort port="DIRECT" audioCodec="LPCM16" trackDst="CH2">&lt;/AudioRecPort>&lt;/AudioFormat>&lt;Device manufacturer="Sony" modelName="PMW-EX3" serialNo="0401525">&lt;/Device>&lt;Lens modelName="VCL-614B2X">&lt;/Lens>&lt;RecordingMode type="normal" cacheRec="false">&lt;/RecordingMode>&lt;/NonRealTimeMeta>
							</value>
						</metadata>
						<metadata>
							<storage>QuickTime</storage>
							<key>com.apple.proapps.reel</key>
							<size>8</size>
							<type>UTF8</type>
							<value>Untitled</value>
						</metadata>
						<metadata>
							<storage>QuickTime</storage>
							<key>com.apple.proapps.clipID</key>
							<size>64</size>
							<type>UTF8</type>
							<value>060A2B340101010501010D43130000007CC6D366625405D908004602022F05F5</value>
						</metadata>
						<metadata>
							<storage>QuickTime</storage>
							<key>com.apple.quicktime.information</key>
							<size>64</size>
							<type>UTF8</type>
							<value>060a2b340101010501010d43130000007cc6d366625405d908004602022f05f5</value>
						</metadata>
						<metadata>
							<storage>QuickTime</storage>
							<key>com.apple.proapps.originalFormat</key>
							<size>36</size>
							<type>UTF8</type>
							<value>Apple XDCAM EX 1080i50 (35 Mb/s VBR)</value>
						</metadata>
						<timecode>
							<rate>
								<timebase>25</timebase>
							</rate>
							<string>13:39:02:08</string>
							<frame>1228558</frame>
							<displayformat>NDF</displayformat>
							<source>source</source>
							<reel>
								<name>Untitled</name>
							</reel>
						</timecode>
						<media>
							<video>
								<duration>979</duration>
								<samplecharacteristics>
									<width>1920</width>
									<height>1080</height>
								</samplecharacteristics>
							</video>
							<audio>
								<samplecharacteristics>
									<samplerate>48000</samplerate>
									<depth>16</depth>
								</samplecharacteristics>
								<channelcount>1</channelcount>
								<layout>mono</layout>
								<audiochannel>
									<sourcechannel>1</sourcechannel>
									<channellabel>discrete</channellabel>
								</audiochannel>
							</audio>
							<audio>
								<samplecharacteristics>
									<samplerate>48000</samplerate>
									<depth>16</depth>
								</samplecharacteristics>
								<channelcount>1</channelcount>
								<layout>mono</layout>
								<audiochannel>
									<sourcechannel>2</sourcechannel>
									<channellabel>discrete</channellabel>
								</audiochannel>
							</audio>
						</media>
					</file>
					<sourcetrack>
						<mediatype>video</mediatype>
					</sourcetrack>
					<fielddominance>upper</fielddominance>
					<itemhistory>
						<uuid>E4ED05A5-E281-4DF8-B555-FB3CF0ABBADD</uuid>
					</itemhistory>
				</clipitem>
				<clipitem id="DYR18579_01 ">
					<name>DYR18579_01</name>
					<duration>449</duration>
					<rate>
						<ntsc>FALSE</ntsc>
						<timebase>25</timebase>
					</rate>
					<in>161</in>
					<out>197</out>
					<start>24320</start>
					<end>24356</end>
					<pixelaspectratio>Square</pixelaspectratio>
					<enabled>TRUE</enabled>
					<anamorphic>FALSE</anamorphic>
					<alphatype>none</alphatype>
					<masterclipid>DYR18579_01 1</masterclipid>
					<logginginfo>
						<scene/>
						<shottake/>
						<lognote/>
						<good>FALSE</good>
					</logginginfo>
					<labels>
						<label2/>
					</labels>
					<comments>
						<mastercomment1/>
						<mastercomment2/>
						<mastercomment3/>
						<mastercomment4/>
					</comments>
					<file id="DYR18579_01 2">
						<name>DYR18579_01.mov</name>
						<pathurl>file://localhost/Volumes/Askepott/Prosjekter/DNPR637010_Kra%CC%8Akeklubben_TEM_011212/Video/MUSIKKVIDEO/Treet/DYR18579_01.mov</pathurl>
						<rate>
							<timebase>25</timebase>
						</rate>
						<duration>449</duration>
						<metadata>
							<storage>QuickTime</storage>
							<key>com.sony.bprl.xdcamtransfer.version</key>
							<size>10</size>
							<type>UTF8</type>
							<value>2.12.0.631</value>
						</metadata>
						<metadata>
							<storage>QuickTime</storage>
							<key>org.smpte.mxf.package.material.packageid</key>
							<size>66</size>
							<type>UTF8</type>
							<value>0x060a2b340101010501010d43130000009d7fc55c615405de08004602022f05f5</value>
						</metadata>
						<metadata>
							<storage>QuickTime</storage>
							<key>com.sony.professionaldisc.nonrealtimemeta.lastupdate</key>
							<size>25</size>
							<type>UTF8</type>
							<value>2010-09-22 09:42:09 +0100</value>
						</metadata>
						<metadata>
							<storage>QuickTime</storage>
							<key>com.sony.bprl.mxf.umid</key>
							<size>64</size>
							<type>UTF8</type>
							<value>060a2b340101010501010d43130000009d7fc55c615405de08004602022f05f5</value>
						</metadata>
						<metadata>
							<storage>QuickTime</storage>
							<key>com.sony.bprl.mxf.nrtmetadata</key>
							<size>1991</size>
							<type>UTF8</type>
							<value>&lt;?xml version="1.0" encoding="UTF-8"?>&lt;NonRealTimeMeta xmlns="urn:schemas-professionalDisc:nonRealTimeMeta:ver.1.20" xmlns:lib="urn:schemas-professionalDisc:lib:ver.1.20" xmlns:xsi="http://www.w3.org/2001/XMLSchema-instance" lastUpdate="2010-09-22T09:42:09+01:00">&lt;TargetMaterial umidRef="060A2B340101010501010D43130000009D7FC55C615405DE08004602022F05F5">&lt;/TargetMaterial>&lt;Duration value="449">&lt;/Duration>&lt;LtcChangeTable tcFps="25" halfStep="false">&lt;LtcChange frameCount="0" value="20503812" status="increment">&lt;/LtcChange>&lt;LtcChange frameCount="448" value="18083912" status="end">&lt;/LtcChange>&lt;/LtcChangeTable>&lt;CreationDate value="2010-09-22T09:41:50+01:00">&lt;/CreationDate>&lt;TypicalUbit value="0000000017061020">&lt;/TypicalUbit>&lt;BodyUmidBasicChangeTable>&lt;BodyUmidBasicChange frameCount="0" value="060A2B340101010501010D43330000009D7FC55C615405DE08004602022F05F5" status="start">&lt;/BodyUmidBasicChange>&lt;/BodyUmidBasicChangeTable>&lt;BodyUmidWhenChangeTable>&lt;BodyUmidWhenChange frameCount="0" value="C46BFC02615405A5" status="increment">&lt;/BodyUmidWhenChange>&lt;BodyUmidWhenChange frameCount="448" value="C4DBFC02615405A5" status="end">&lt;/BodyUmidWhenChange>&lt;/BodyUmidWhenChangeTable>&lt;KlvPacketTable>&lt;KlvPacket key="060E2B34010101050301020A02000000" frameCount="0" lengthValue="095F5265635374617274" status="spot">&lt;/KlvPacket>&lt;/KlvPacketTable>&lt;VideoFormat>&lt;VideoRecPort port="DIRECT">&lt;/VideoRecPort>&lt;VideoFrame videoCodec="MPEG2HD35_1920_1080_MP@HL" captureFps="50.00i" recFps="50.00" formatFps="50i">&lt;/VideoFrame>&lt;VideoLayout pixel="1920" numOfVerticalLine="1080" aspectRatio="16:9">&lt;/VideoLayout>&lt;/VideoFormat>&lt;AudioFormat numOfChannel="2">&lt;AudioRecPort port="DIRECT" audioCodec="LPCM16" trackDst="CH1">&lt;/AudioRecPort>&lt;AudioRecPort port="DIRECT" audioCodec="LPCM16" trackDst="CH2">&lt;/AudioRecPort>&lt;/AudioFormat>&lt;Device manufacturer="Sony" modelName="PMW-EX3" serialNo="0401525">&lt;/Device>&lt;Lens modelName="VCL-614B2X">&lt;/Lens>&lt;RecordingMode type="normal" cacheRec="false">&lt;/RecordingMode>&lt;/NonRealTimeMeta>
							</value>
						</metadata>
						<metadata>
							<storage>QuickTime</storage>
							<key>com.apple.proapps.reel</key>
							<size>8</size>
							<type>UTF8</type>
							<value>Untitled</value>
						</metadata>
						<metadata>
							<storage>QuickTime</storage>
							<key>com.apple.proapps.clipID</key>
							<size>64</size>
							<type>UTF8</type>
							<value>060A2B340101010501010D43130000009D7FC55C615405DE08004602022F05F5</value>
						</metadata>
						<metadata>
							<storage>QuickTime</storage>
							<key>com.apple.quicktime.information</key>
							<size>64</size>
							<type>UTF8</type>
							<value>060a2b340101010501010d43130000009d7fc55c615405de08004602022f05f5</value>
						</metadata>
						<metadata>
							<storage>QuickTime</storage>
							<key>com.apple.proapps.originalFormat</key>
							<size>36</size>
							<type>UTF8</type>
							<value>Apple XDCAM EX 1080i50 (35 Mb/s VBR)</value>
						</metadata>
						<timecode>
							<rate>
								<timebase>25</timebase>
							</rate>
							<string>12:38:50:20</string>
							<frame>1138270</frame>
							<displayformat>NDF</displayformat>
							<source>source</source>
							<reel>
								<name>Untitled</name>
							</reel>
						</timecode>
						<media>
							<video>
								<duration>449</duration>
								<samplecharacteristics>
									<width>1920</width>
									<height>1080</height>
								</samplecharacteristics>
							</video>
							<audio>
								<samplecharacteristics>
									<samplerate>48000</samplerate>
									<depth>16</depth>
								</samplecharacteristics>
								<channelcount>1</channelcount>
								<layout>mono</layout>
								<audiochannel>
									<sourcechannel>1</sourcechannel>
									<channellabel>discrete</channellabel>
								</audiochannel>
							</audio>
							<audio>
								<samplecharacteristics>
									<samplerate>48000</samplerate>
									<depth>16</depth>
								</samplecharacteristics>
								<channelcount>1</channelcount>
								<layout>mono</layout>
								<audiochannel>
									<sourcechannel>2</sourcechannel>
									<channellabel>discrete</channellabel>
								</audiochannel>
							</audio>
						</media>
					</file>
					<sourcetrack>
						<mediatype>video</mediatype>
					</sourcetrack>
					<fielddominance>upper</fielddominance>
					<itemhistory>
						<uuid>421242FD-6FC8-4509-B6EF-09D3AF80C0E8</uuid>
					</itemhistory>
				</clipitem>
				<clipitem id="DYR18692_01 ">
					<name>DYR18692_01</name>
					<duration>728</duration>
					<rate>
						<ntsc>FALSE</ntsc>
						<timebase>25</timebase>
					</rate>
					<in>55</in>
					<out>93</out>
					<start>24356</start>
					<end>24394</end>
					<pixelaspectratio>Square</pixelaspectratio>
					<enabled>TRUE</enabled>
					<anamorphic>FALSE</anamorphic>
					<alphatype>none</alphatype>
					<masterclipid>DYR18692_01 1</masterclipid>
					<logginginfo>
						<scene/>
						<shottake/>
						<lognote/>
						<good>FALSE</good>
					</logginginfo>
					<labels>
						<label2/>
					</labels>
					<comments>
						<mastercomment1/>
						<mastercomment2/>
						<mastercomment3/>
						<mastercomment4/>
					</comments>
					<file id="DYR18692_01 2">
						<name>DYR18692_01.mov</name>
						<pathurl>file://localhost/Volumes/Askepott/Prosjekter/DNPR637010_Kra%CC%8Akeklubben_TEM_011212/Video/MUSIKKVIDEO/Treet/DYR18692_01.mov</pathurl>
						<rate>
							<timebase>25</timebase>
						</rate>
						<duration>728</duration>
						<metadata>
							<storage>QuickTime</storage>
							<key>com.sony.bprl.xdcamtransfer.version</key>
							<size>10</size>
							<type>UTF8</type>
							<value>2.12.0.631</value>
						</metadata>
						<metadata>
							<storage>QuickTime</storage>
							<key>org.smpte.mxf.package.material.packageid</key>
							<size>66</size>
							<type>UTF8</type>
							<value>0x060a2b340101010501010d43130000008f1e316a625405da08004602022f05f5</value>
						</metadata>
						<metadata>
							<storage>QuickTime</storage>
							<key>com.sony.professionaldisc.nonrealtimemeta.lastupdate</key>
							<size>25</size>
							<type>UTF8</type>
							<value>2010-09-23 10:57:50 +0100</value>
						</metadata>
						<metadata>
							<storage>QuickTime</storage>
							<key>com.sony.bprl.mxf.umid</key>
							<size>64</size>
							<type>UTF8</type>
							<value>060a2b340101010501010d43130000008f1e316a625405da08004602022f05f5</value>
						</metadata>
						<metadata>
							<storage>QuickTime</storage>
							<key>com.sony.bprl.mxf.nrtmetadata</key>
							<size>1991</size>
							<type>UTF8</type>
							<value>&lt;?xml version="1.0" encoding="UTF-8"?>&lt;NonRealTimeMeta xmlns="urn:schemas-professionalDisc:nonRealTimeMeta:ver.1.20" xmlns:lib="urn:schemas-professionalDisc:lib:ver.1.20" xmlns:xsi="http://www.w3.org/2001/XMLSchema-instance" lastUpdate="2010-09-23T10:57:50+01:00">&lt;TargetMaterial umidRef="060A2B340101010501010D43130000008F1E316A625405DA08004602022F05F5">&lt;/TargetMaterial>&lt;Duration value="728">&lt;/Duration>&lt;LtcChangeTable tcFps="25" halfStep="false">&lt;LtcChange frameCount="0" value="13274513" status="increment">&lt;/LtcChange>&lt;LtcChange frameCount="727" value="15564513" status="end">&lt;/LtcChange>&lt;/LtcChangeTable>&lt;CreationDate value="2010-09-23T10:57:19+01:00">&lt;/CreationDate>&lt;TypicalUbit value="0000000017061020">&lt;/TypicalUbit>&lt;BodyUmidBasicChangeTable>&lt;BodyUmidBasicChange frameCount="0" value="060A2B340101010501010D43330000008F1E316A625405DA08004602022F05F5" status="start">&lt;/BodyUmidBasicChange>&lt;/BodyUmidBasicChangeTable>&lt;BodyUmidWhenChangeTable>&lt;BodyUmidWhenChange frameCount="0" value="84006B03625405A5" status="increment">&lt;/BodyUmidWhenChange>&lt;BodyUmidWhenChange frameCount="727" value="44B66B03625405A5" status="end">&lt;/BodyUmidWhenChange>&lt;/BodyUmidWhenChangeTable>&lt;KlvPacketTable>&lt;KlvPacket key="060E2B34010101050301020A02000000" frameCount="0" lengthValue="095F5265635374617274" status="spot">&lt;/KlvPacket>&lt;/KlvPacketTable>&lt;VideoFormat>&lt;VideoRecPort port="DIRECT">&lt;/VideoRecPort>&lt;VideoFrame videoCodec="MPEG2HD35_1920_1080_MP@HL" captureFps="50.00i" recFps="50.00" formatFps="50i">&lt;/VideoFrame>&lt;VideoLayout pixel="1920" numOfVerticalLine="1080" aspectRatio="16:9">&lt;/VideoLayout>&lt;/VideoFormat>&lt;AudioFormat numOfChannel="2">&lt;AudioRecPort port="DIRECT" audioCodec="LPCM16" trackDst="CH1">&lt;/AudioRecPort>&lt;AudioRecPort port="DIRECT" audioCodec="LPCM16" trackDst="CH2">&lt;/AudioRecPort>&lt;/AudioFormat>&lt;Device manufacturer="Sony" modelName="PMW-EX3" serialNo="0401525">&lt;/Device>&lt;Lens modelName="VCL-614B2X">&lt;/Lens>&lt;RecordingMode type="normal" cacheRec="false">&lt;/RecordingMode>&lt;/NonRealTimeMeta>
							</value>
						</metadata>
						<metadata>
							<storage>QuickTime</storage>
							<key>com.apple.proapps.reel</key>
							<size>8</size>
							<type>UTF8</type>
							<value>Untitled</value>
						</metadata>
						<metadata>
							<storage>QuickTime</storage>
							<key>com.apple.proapps.clipID</key>
							<size>64</size>
							<type>UTF8</type>
							<value>060A2B340101010501010D43130000008F1E316A625405DA08004602022F05F5</value>
						</metadata>
						<metadata>
							<storage>QuickTime</storage>
							<key>com.apple.quicktime.information</key>
							<size>64</size>
							<type>UTF8</type>
							<value>060a2b340101010501010d43130000008f1e316a625405da08004602022f05f5</value>
						</metadata>
						<metadata>
							<storage>QuickTime</storage>
							<key>com.apple.proapps.originalFormat</key>
							<size>36</size>
							<type>UTF8</type>
							<value>Apple XDCAM EX 1080i50 (35 Mb/s VBR)</value>
						</metadata>
						<timecode>
							<rate>
								<timebase>25</timebase>
							</rate>
							<string>13:45:27:13</string>
							<frame>1238188</frame>
							<displayformat>NDF</displayformat>
							<source>source</source>
							<reel>
								<name>Untitled</name>
							</reel>
						</timecode>
						<media>
							<video>
								<duration>728</duration>
								<samplecharacteristics>
									<width>1920</width>
									<height>1080</height>
								</samplecharacteristics>
							</video>
							<audio>
								<samplecharacteristics>
									<samplerate>48000</samplerate>
									<depth>16</depth>
								</samplecharacteristics>
								<channelcount>1</channelcount>
								<layout>mono</layout>
								<audiochannel>
									<sourcechannel>1</sourcechannel>
									<channellabel>discrete</channellabel>
								</audiochannel>
							</audio>
							<audio>
								<samplecharacteristics>
									<samplerate>48000</samplerate>
									<depth>16</depth>
								</samplecharacteristics>
								<channelcount>1</channelcount>
								<layout>mono</layout>
								<audiochannel>
									<sourcechannel>2</sourcechannel>
									<channellabel>discrete</channellabel>
								</audiochannel>
							</audio>
						</media>
					</file>
					<filter>
						<enabled>TRUE</enabled>
						<start>-1</start>
						<end>-1</end>
						<effect>
							<name>Color Corrector 3-way</name>
							<effectid>Color Corrector 3-way</effectid>
							<effectcategory>Color Correction</effectcategory>
							<effecttype>filter</effecttype>
							<mediatype>video</mediatype>
							<parameter>
								<parameterid>dispmode</parameterid>
								<name>Display Mode</name>
								<valuemin>1</valuemin>
								<valuemax>3</valuemax>
								<valuelist>
									<valueentry>
										<name>Final</name>
										<value>1</value>
									</valueentry>
									<valueentry>
										<name>Matte</name>
										<value>2</value>
									</valueentry>
									<valueentry>
										<name>Source</name>
										<value>3</value>
									</valueentry>
								</valuelist>
								<value>1</value>
							</parameter>
							<parameter>
								<parameterid>label1</parameterid>
								<name>Blacks Controls</name>
								<value/>
							</parameter>
							<parameter>
								<parameterid>blacklevel</parameterid>
								<name>Level</name>
								<valuemin>-196</valuemin>
								<valuemax>254</valuemax>
								<value>2</value>
							</parameter>
							<parameter>
								<parameterid>b_hue</parameterid>
								<name>Angle</name>
								<valuemin>-180</valuemin>
								<valuemax>180</valuemax>
								<value>-33</value>
							</parameter>
							<parameter>
								<parameterid>b_mag</parameterid>
								<name>Magnitude</name>
								<valuemin>0</valuemin>
								<valuemax>200</valuemax>
								<value>0</value>
							</parameter>
							<parameter>
								<parameterid>label2</parameterid>
								<name>Midrange Controls</name>
								<value/>
							</parameter>
							<parameter>
								<parameterid>mids</parameterid>
								<name>Level</name>
								<valuemin>0</valuemin>
								<valuemax>200</valuemax>
								<value>110</value>
							</parameter>
							<parameter>
								<parameterid>m_hue</parameterid>
								<name>Angle</name>
								<valuemin>-180</valuemin>
								<valuemax>180</valuemax>
								<value>-33</value>
							</parameter>
							<parameter>
								<parameterid>m_mag</parameterid>
								<name>Magnitude</name>
								<valuemin>0</valuemin>
								<valuemax>200</valuemax>
								<value>0</value>
							</parameter>
							<parameter>
								<parameterid>label3</parameterid>
								<name>Highlight Controls</name>
								<value/>
							</parameter>
							<parameter>
								<parameterid>highlights</parameterid>
								<name>Level</name>
								<valuemin>64</valuemin>
								<valuemax>509</valuemax>
								<value>313</value>
							</parameter>
							<parameter>
								<parameterid>h_hue</parameterid>
								<name>Angle</name>
								<valuemin>-180</valuemin>
								<valuemax>180</valuemax>
								<value>-33</value>
							</parameter>
							<parameter>
								<parameterid>h_mag</parameterid>
								<name>Magnitude</name>
								<valuemin>0</valuemin>
								<valuemax>200</valuemax>
								<value>0</value>
							</parameter>
							<parameter>
								<parameterid>label4</parameterid>
								<name>Color Controls</name>
								<value/>
							</parameter>
							<parameter>
								<parameterid>chroma</parameterid>
								<name>Saturation</name>
								<valuemin>0</valuemin>
								<valuemax>200</valuemax>
								<value>100</value>
							</parameter>
							<parameter>
								<parameterid>label5</parameterid>
								<name>Limit Effect Controls</name>
								<value/>
							</parameter>
							<parameter>
								<parameterid>dochroma</parameterid>
								<name>Limit on Chroma</name>
								<value>FALSE</value>
							</parameter>
							<parameter>
								<parameterid>centerang</parameterid>
								<name>Chroma Center</name>
								<valuemin>-760</valuemin>
								<valuemax>760</valuemax>
								<value>-110</value>
							</parameter>
							<parameter>
								<parameterid>chromawidth</parameterid>
								<name>Chroma Width</name>
								<valuemin>0</valuemin>
								<valuemax>360</valuemax>
								<value>15</value>
							</parameter>
							<parameter>
								<parameterid>chromasoft</parameterid>
								<name>Chroma Softness</name>
								<valuemin>0</valuemin>
								<valuemax>180</valuemax>
								<value>10</value>
							</parameter>
							<parameter>
								<parameterid>dosat</parameterid>
								<name>Limit on Saturation</name>
								<value>FALSE</value>
							</parameter>
							<parameter>
								<parameterid>satmin</parameterid>
								<name>Sat. Minimum</name>
								<valuemin>0</valuemin>
								<valuemax>125</valuemax>
								<value>35</value>
							</parameter>
							<parameter>
								<parameterid>satwidth</parameterid>
								<name>Sat. Width</name>
								<valuemin>0</valuemin>
								<valuemax>125</valuemax>
								<value>40</value>
							</parameter>
							<parameter>
								<parameterid>satsoft</parameterid>
								<name>Sat. Softness</name>
								<valuemin>0</valuemin>
								<valuemax>125</valuemax>
								<value>20</value>
							</parameter>
							<parameter>
								<parameterid>doluma</parameterid>
								<name>Limit on Luma</name>
								<value>FALSE</value>
							</parameter>
							<parameter>
								<parameterid>lumamin</parameterid>
								<name>Luma Minimum</name>
								<valuemin>0</valuemin>
								<valuemax>120</valuemax>
								<value>0</value>
							</parameter>
							<parameter>
								<parameterid>lumawidth</parameterid>
								<name>Luma Width</name>
								<valuemin>0</valuemin>
								<valuemax>120</valuemax>
								<value>40</value>
							</parameter>
							<parameter>
								<parameterid>lumasoft</parameterid>
								<name>Luma Softness</name>
								<valuemin>0</valuemin>
								<valuemax>120</valuemax>
								<value>20</value>
							</parameter>
							<parameter>
								<parameterid>label6</parameterid>
								<name>Edge Control</name>
								<value/>
							</parameter>
							<parameter>
								<parameterid>edgethin</parameterid>
								<name>Thin/Spread</name>
								<valuemin>-100</valuemin>
								<valuemax>100</valuemax>
								<value>0</value>
							</parameter>
							<parameter>
								<parameterid>edgefeather</parameterid>
								<name>Softening</name>
								<valuemin>0</valuemin>
								<valuemax>100</valuemax>
								<value>0</value>
							</parameter>
							<parameter>
								<parameterid>label7</parameterid>
								<name>Mask Control</name>
								<value/>
							</parameter>
							<parameter>
								<parameterid>invertsel</parameterid>
								<name>Invert</name>
								<value>FALSE</value>
							</parameter>
							<parameter>
								<parameterid>debugshow</parameterid>
								<name>Show Stats</name>
								<value>FALSE</value>
							</parameter>
						</effect>
					</filter>
					<sourcetrack>
						<mediatype>video</mediatype>
					</sourcetrack>
					<fielddominance>upper</fielddominance>
					<itemhistory>
						<uuid>3691AA30-696A-4CB2-85AA-BC8C65C2C915</uuid>
					</itemhistory>
				</clipitem>
				<clipitem id="DYR18579_01 3">
					<name>DYR18579_01</name>
					<duration>449</duration>
					<rate>
						<ntsc>FALSE</ntsc>
						<timebase>25</timebase>
					</rate>
					<in>235</in>
					<out>274</out>
					<start>24394</start>
					<end>24433</end>
					<pixelaspectratio>Square</pixelaspectratio>
					<enabled>TRUE</enabled>
					<anamorphic>FALSE</anamorphic>
					<alphatype>none</alphatype>
					<masterclipid>DYR18579_01 1</masterclipid>
					<logginginfo>
						<scene/>
						<shottake/>
						<lognote/>
						<good>FALSE</good>
					</logginginfo>
					<labels>
						<label2/>
					</labels>
					<comments>
						<mastercomment1/>
						<mastercomment2/>
						<mastercomment3/>
						<mastercomment4/>
					</comments>
					<file id="DYR18579_01 2"/>
					<sourcetrack>
						<mediatype>video</mediatype>
					</sourcetrack>
					<fielddominance>upper</fielddominance>
					<itemhistory>
						<uuid>D51C6CCD-C2EB-4B72-B99A-AFFD8AC540DA</uuid>
					</itemhistory>
				</clipitem>
				<clipitem id="DYR18689_01 ">
					<name>DYR18689_01</name>
					<duration>977</duration>
					<rate>
						<ntsc>FALSE</ntsc>
						<timebase>25</timebase>
					</rate>
					<in>589</in>
					<out>609</out>
					<start>24433</start>
					<end>24453</end>
					<pixelaspectratio>Square</pixelaspectratio>
					<enabled>TRUE</enabled>
					<anamorphic>FALSE</anamorphic>
					<alphatype>none</alphatype>
					<masterclipid>DYR18689_01 1</masterclipid>
					<logginginfo>
						<scene/>
						<shottake/>
						<lognote/>
						<good>FALSE</good>
					</logginginfo>
					<labels>
						<label2/>
					</labels>
					<comments>
						<mastercomment1/>
						<mastercomment2/>
						<mastercomment3/>
						<mastercomment4/>
					</comments>
					<file id="DYR18689_01 2">
						<name>DYR18689_01.mov</name>
						<pathurl>file://localhost/Volumes/Askepott/Prosjekter/DNPR637010_Kra%CC%8Akeklubben_TEM_011212/Video/MUSIKKVIDEO/Treet/DYR18689_01.mov</pathurl>
						<rate>
							<timebase>25</timebase>
						</rate>
						<duration>977</duration>
						<metadata>
							<storage>QuickTime</storage>
							<key>com.sony.bprl.xdcamtransfer.version</key>
							<size>10</size>
							<type>UTF8</type>
							<value>2.12.0.631</value>
						</metadata>
						<metadata>
							<storage>QuickTime</storage>
							<key>org.smpte.mxf.package.material.packageid</key>
							<size>66</size>
							<type>UTF8</type>
							<value>0x060a2b340101010501010d4313000000a6ab8e69625405dd08004602022f05f5</value>
						</metadata>
						<metadata>
							<storage>QuickTime</storage>
							<key>com.sony.professionaldisc.nonrealtimemeta.lastupdate</key>
							<size>25</size>
							<type>UTF8</type>
							<value>2010-09-23 10:54:25 +0100</value>
						</metadata>
						<metadata>
							<storage>QuickTime</storage>
							<key>com.sony.bprl.mxf.umid</key>
							<size>64</size>
							<type>UTF8</type>
							<value>060a2b340101010501010d4313000000a6ab8e69625405dd08004602022f05f5</value>
						</metadata>
						<metadata>
							<storage>QuickTime</storage>
							<key>com.sony.bprl.mxf.nrtmetadata</key>
							<size>1991</size>
							<type>UTF8</type>
							<value>&lt;?xml version="1.0" encoding="UTF-8"?>&lt;NonRealTimeMeta xmlns="urn:schemas-professionalDisc:nonRealTimeMeta:ver.1.20" xmlns:lib="urn:schemas-professionalDisc:lib:ver.1.20" xmlns:xsi="http://www.w3.org/2001/XMLSchema-instance" lastUpdate="2010-09-23T10:54:25+01:00">&lt;TargetMaterial umidRef="060A2B340101010501010D4313000000A6AB8E69625405DD08004602022F05F5">&lt;/TargetMaterial>&lt;Duration value="977">&lt;/Duration>&lt;LtcChangeTable tcFps="25" halfStep="false">&lt;LtcChange frameCount="0" value="15224413" status="increment">&lt;/LtcChange>&lt;LtcChange frameCount="976" value="16014513" status="end">&lt;/LtcChange>&lt;/LtcChangeTable>&lt;CreationDate value="2010-09-23T10:53:45+01:00">&lt;/CreationDate>&lt;TypicalUbit value="0000000017061020">&lt;/TypicalUbit>&lt;BodyUmidBasicChangeTable>&lt;BodyUmidBasicChange frameCount="0" value="060A2B340101010501010D4333000000A6AB8E69625405DD08004602022F05F5" status="start">&lt;/BodyUmidBasicChange>&lt;/BodyUmidBasicChangeTable>&lt;BodyUmidWhenChangeTable>&lt;BodyUmidWhenChange frameCount="0" value="04C66503625405A5" status="increment">&lt;/BodyUmidWhenChange>&lt;BodyUmidWhenChange frameCount="976" value="04BA6603625405A5" status="end">&lt;/BodyUmidWhenChange>&lt;/BodyUmidWhenChangeTable>&lt;KlvPacketTable>&lt;KlvPacket key="060E2B34010101050301020A02000000" frameCount="0" lengthValue="095F5265635374617274" status="spot">&lt;/KlvPacket>&lt;/KlvPacketTable>&lt;VideoFormat>&lt;VideoRecPort port="DIRECT">&lt;/VideoRecPort>&lt;VideoFrame videoCodec="MPEG2HD35_1920_1080_MP@HL" captureFps="50.00i" recFps="50.00" formatFps="50i">&lt;/VideoFrame>&lt;VideoLayout pixel="1920" numOfVerticalLine="1080" aspectRatio="16:9">&lt;/VideoLayout>&lt;/VideoFormat>&lt;AudioFormat numOfChannel="2">&lt;AudioRecPort port="DIRECT" audioCodec="LPCM16" trackDst="CH1">&lt;/AudioRecPort>&lt;AudioRecPort port="DIRECT" audioCodec="LPCM16" trackDst="CH2">&lt;/AudioRecPort>&lt;/AudioFormat>&lt;Device manufacturer="Sony" modelName="PMW-EX3" serialNo="0401525">&lt;/Device>&lt;Lens modelName="VCL-614B2X">&lt;/Lens>&lt;RecordingMode type="normal" cacheRec="false">&lt;/RecordingMode>&lt;/NonRealTimeMeta>
							</value>
						</metadata>
						<metadata>
							<storage>QuickTime</storage>
							<key>com.apple.proapps.reel</key>
							<size>8</size>
							<type>UTF8</type>
							<value>Untitled</value>
						</metadata>
						<metadata>
							<storage>QuickTime</storage>
							<key>com.apple.proapps.clipID</key>
							<size>64</size>
							<type>UTF8</type>
							<value>060A2B340101010501010D4313000000A6AB8E69625405DD08004602022F05F5</value>
						</metadata>
						<metadata>
							<storage>QuickTime</storage>
							<key>com.apple.quicktime.information</key>
							<size>64</size>
							<type>UTF8</type>
							<value>060a2b340101010501010d4313000000a6ab8e69625405dd08004602022f05f5</value>
						</metadata>
						<metadata>
							<storage>QuickTime</storage>
							<key>com.apple.proapps.originalFormat</key>
							<size>36</size>
							<type>UTF8</type>
							<value>Apple XDCAM EX 1080i50 (35 Mb/s VBR)</value>
						</metadata>
						<timecode>
							<rate>
								<timebase>25</timebase>
							</rate>
							<string>13:44:22:15</string>
							<frame>1236565</frame>
							<displayformat>NDF</displayformat>
							<source>source</source>
							<reel>
								<name>Untitled</name>
							</reel>
						</timecode>
						<media>
							<video>
								<duration>977</duration>
								<samplecharacteristics>
									<width>1920</width>
									<height>1080</height>
								</samplecharacteristics>
							</video>
							<audio>
								<samplecharacteristics>
									<samplerate>48000</samplerate>
									<depth>16</depth>
								</samplecharacteristics>
								<channelcount>1</channelcount>
								<layout>mono</layout>
								<audiochannel>
									<sourcechannel>1</sourcechannel>
									<channellabel>discrete</channellabel>
								</audiochannel>
							</audio>
							<audio>
								<samplecharacteristics>
									<samplerate>48000</samplerate>
									<depth>16</depth>
								</samplecharacteristics>
								<channelcount>1</channelcount>
								<layout>mono</layout>
								<audiochannel>
									<sourcechannel>2</sourcechannel>
									<channellabel>discrete</channellabel>
								</audiochannel>
							</audio>
						</media>
					</file>
					<sourcetrack>
						<mediatype>video</mediatype>
					</sourcetrack>
					<fielddominance>upper</fielddominance>
					<itemhistory>
						<uuid>B688264A-796D-4BC5-A2DE-3C91F3EEACFA</uuid>
					</itemhistory>
				</clipitem>
				<clipitem id="DYR18580_01 ">
					<name>DYR18580_01</name>
					<duration>365</duration>
					<rate>
						<ntsc>FALSE</ntsc>
						<timebase>25</timebase>
					</rate>
					<in>204</in>
					<out>256</out>
					<start>24453</start>
					<end>24505</end>
					<pixelaspectratio>Square</pixelaspectratio>
					<enabled>TRUE</enabled>
					<anamorphic>FALSE</anamorphic>
					<alphatype>none</alphatype>
					<masterclipid>DYR18580_01 1</masterclipid>
					<logginginfo>
						<scene/>
						<shottake/>
						<lognote/>
						<good>FALSE</good>
					</logginginfo>
					<labels>
						<label2/>
					</labels>
					<comments>
						<mastercomment1/>
						<mastercomment2/>
						<mastercomment3/>
						<mastercomment4/>
					</comments>
					<file id="DYR18580_01 2">
						<name>DYR18580_01.mov</name>
						<pathurl>file://localhost/Volumes/Askepott/Prosjekter/DNPR637010_Kra%CC%8Akeklubben_TEM_011212/Video/MUSIKKVIDEO/Treet/DYR18580_01.mov</pathurl>
						<rate>
							<timebase>25</timebase>
						</rate>
						<duration>365</duration>
						<metadata>
							<storage>QuickTime</storage>
							<key>com.sony.bprl.xdcamtransfer.version</key>
							<size>10</size>
							<type>UTF8</type>
							<value>2.12.0.631</value>
						</metadata>
						<metadata>
							<storage>QuickTime</storage>
							<key>org.smpte.mxf.package.material.packageid</key>
							<size>66</size>
							<type>UTF8</type>
							<value>0x060a2b340101010501010d4313000000d9f8125d615405d308004602022f05f5</value>
						</metadata>
						<metadata>
							<storage>QuickTime</storage>
							<key>com.sony.professionaldisc.nonrealtimemeta.lastupdate</key>
							<size>25</size>
							<type>UTF8</type>
							<value>2010-09-22 09:43:48 +0100</value>
						</metadata>
						<metadata>
							<storage>QuickTime</storage>
							<key>com.sony.bprl.mxf.umid</key>
							<size>64</size>
							<type>UTF8</type>
							<value>060a2b340101010501010d4313000000d9f8125d615405d308004602022f05f5</value>
						</metadata>
						<metadata>
							<storage>QuickTime</storage>
							<key>com.sony.bprl.mxf.nrtmetadata</key>
							<size>1991</size>
							<type>UTF8</type>
							<value>&lt;?xml version="1.0" encoding="UTF-8"?>&lt;NonRealTimeMeta xmlns="urn:schemas-professionalDisc:nonRealTimeMeta:ver.1.20" xmlns:lib="urn:schemas-professionalDisc:lib:ver.1.20" xmlns:xsi="http://www.w3.org/2001/XMLSchema-instance" lastUpdate="2010-09-22T09:43:48+01:00">&lt;TargetMaterial umidRef="060A2B340101010501010D4313000000D9F8125D615405D308004602022F05F5">&lt;/TargetMaterial>&lt;Duration value="365">&lt;/Duration>&lt;LtcChangeTable tcFps="25" halfStep="false">&lt;LtcChange frameCount="0" value="19083912" status="increment">&lt;/LtcChange>&lt;LtcChange frameCount="364" value="08233912" status="end">&lt;/LtcChange>&lt;/LtcChangeTable>&lt;CreationDate value="2010-09-22T09:43:32+01:00">&lt;/CreationDate>&lt;TypicalUbit value="0000000017061020">&lt;/TypicalUbit>&lt;BodyUmidBasicChangeTable>&lt;BodyUmidBasicChange frameCount="0" value="060A2B340101010501010D4333000000D9F8125D615405D308004602022F05F5" status="start">&lt;/BodyUmidBasicChange>&lt;/BodyUmidBasicChangeTable>&lt;BodyUmidWhenChangeTable>&lt;BodyUmidWhenChange frameCount="0" value="44EAFE02615405A5" status="increment">&lt;/BodyUmidWhenChange>&lt;BodyUmidWhenChange frameCount="364" value="4445FF02615405A5" status="end">&lt;/BodyUmidWhenChange>&lt;/BodyUmidWhenChangeTable>&lt;KlvPacketTable>&lt;KlvPacket key="060E2B34010101050301020A02000000" frameCount="0" lengthValue="095F5265635374617274" status="spot">&lt;/KlvPacket>&lt;/KlvPacketTable>&lt;VideoFormat>&lt;VideoRecPort port="DIRECT">&lt;/VideoRecPort>&lt;VideoFrame videoCodec="MPEG2HD35_1920_1080_MP@HL" captureFps="50.00i" recFps="50.00" formatFps="50i">&lt;/VideoFrame>&lt;VideoLayout pixel="1920" numOfVerticalLine="1080" aspectRatio="16:9">&lt;/VideoLayout>&lt;/VideoFormat>&lt;AudioFormat numOfChannel="2">&lt;AudioRecPort port="DIRECT" audioCodec="LPCM16" trackDst="CH1">&lt;/AudioRecPort>&lt;AudioRecPort port="DIRECT" audioCodec="LPCM16" trackDst="CH2">&lt;/AudioRecPort>&lt;/AudioFormat>&lt;Device manufacturer="Sony" modelName="PMW-EX3" serialNo="0401525">&lt;/Device>&lt;Lens modelName="VCL-614B2X">&lt;/Lens>&lt;RecordingMode type="normal" cacheRec="false">&lt;/RecordingMode>&lt;/NonRealTimeMeta>
							</value>
						</metadata>
						<metadata>
							<storage>QuickTime</storage>
							<key>com.apple.proapps.reel</key>
							<size>8</size>
							<type>UTF8</type>
							<value>Untitled</value>
						</metadata>
						<metadata>
							<storage>QuickTime</storage>
							<key>com.apple.proapps.clipID</key>
							<size>64</size>
							<type>UTF8</type>
							<value>060A2B340101010501010D4313000000D9F8125D615405D308004602022F05F5</value>
						</metadata>
						<metadata>
							<storage>QuickTime</storage>
							<key>com.apple.quicktime.information</key>
							<size>64</size>
							<type>UTF8</type>
							<value>060a2b340101010501010d4313000000d9f8125d615405d308004602022f05f5</value>
						</metadata>
						<metadata>
							<storage>QuickTime</storage>
							<key>com.apple.proapps.originalFormat</key>
							<size>36</size>
							<type>UTF8</type>
							<value>Apple XDCAM EX 1080i50 (35 Mb/s VBR)</value>
						</metadata>
						<timecode>
							<rate>
								<timebase>25</timebase>
							</rate>
							<string>12:39:08:19</string>
							<frame>1138719</frame>
							<displayformat>NDF</displayformat>
							<source>source</source>
							<reel>
								<name>Untitled</name>
							</reel>
						</timecode>
						<media>
							<video>
								<duration>365</duration>
								<samplecharacteristics>
									<width>1920</width>
									<height>1080</height>
								</samplecharacteristics>
							</video>
							<audio>
								<samplecharacteristics>
									<samplerate>48000</samplerate>
									<depth>16</depth>
								</samplecharacteristics>
								<channelcount>1</channelcount>
								<layout>mono</layout>
								<audiochannel>
									<sourcechannel>1</sourcechannel>
									<channellabel>discrete</channellabel>
								</audiochannel>
							</audio>
							<audio>
								<samplecharacteristics>
									<samplerate>48000</samplerate>
									<depth>16</depth>
								</samplecharacteristics>
								<channelcount>1</channelcount>
								<layout>mono</layout>
								<audiochannel>
									<sourcechannel>2</sourcechannel>
									<channellabel>discrete</channellabel>
								</audiochannel>
							</audio>
						</media>
					</file>
					<sourcetrack>
						<mediatype>video</mediatype>
					</sourcetrack>
					<fielddominance>upper</fielddominance>
					<itemhistory>
						<uuid>323DA913-E8A0-4A8F-AF28-4E45E298149A</uuid>
					</itemhistory>
				</clipitem>
				<clipitem id="DYR18579_01 4">
					<name>DYR18579_01</name>
					<duration>449</duration>
					<rate>
						<ntsc>FALSE</ntsc>
						<timebase>25</timebase>
					</rate>
					<in>304</in>
					<out>347</out>
					<start>24505</start>
					<end>24548</end>
					<pixelaspectratio>Square</pixelaspectratio>
					<enabled>TRUE</enabled>
					<anamorphic>FALSE</anamorphic>
					<alphatype>none</alphatype>
					<masterclipid>DYR18579_01 1</masterclipid>
					<logginginfo>
						<scene/>
						<shottake/>
						<lognote/>
						<good>FALSE</good>
					</logginginfo>
					<labels>
						<label2/>
					</labels>
					<comments>
						<mastercomment1/>
						<mastercomment2/>
						<mastercomment3/>
						<mastercomment4/>
					</comments>
					<file id="DYR18579_01 2"/>
					<sourcetrack>
						<mediatype>video</mediatype>
					</sourcetrack>
					<fielddominance>upper</fielddominance>
					<itemhistory>
						<uuid>574186DB-E314-47A6-A598-4128EF9924D9</uuid>
					</itemhistory>
				</clipitem>
				<clipitem id="DYR18693_01 ">
					<name>DYR18693_01</name>
					<duration>1399</duration>
					<rate>
						<ntsc>FALSE</ntsc>
						<timebase>25</timebase>
					</rate>
					<in>417</in>
					<out>480</out>
					<start>24548</start>
					<end>24611</end>
					<pixelaspectratio>Square</pixelaspectratio>
					<enabled>TRUE</enabled>
					<anamorphic>FALSE</anamorphic>
					<alphatype>none</alphatype>
					<masterclipid>DYR18693_01 1</masterclipid>
					<logginginfo>
						<scene/>
						<shottake/>
						<lognote/>
						<good>FALSE</good>
					</logginginfo>
					<labels>
						<label2/>
					</labels>
					<comments>
						<mastercomment1/>
						<mastercomment2/>
						<mastercomment3/>
						<mastercomment4/>
					</comments>
					<file id="DYR18693_01 2">
						<name>DYR18693_01.mov</name>
						<pathurl>file://localhost/Volumes/Askepott/Prosjekter/DNPR637010_Kra%CC%8Akeklubben_TEM_011212/Video/MUSIKKVIDEO/Treet/DYR18693_01.mov</pathurl>
						<rate>
							<timebase>25</timebase>
						</rate>
						<duration>1399</duration>
						<metadata>
							<storage>QuickTime</storage>
							<key>com.sony.bprl.xdcamtransfer.version</key>
							<size>10</size>
							<type>UTF8</type>
							<value>2.12.0.631</value>
						</metadata>
						<metadata>
							<storage>QuickTime</storage>
							<key>org.smpte.mxf.package.material.packageid</key>
							<size>66</size>
							<type>UTF8</type>
							<value>0x060a2b340101010501010d4313000000684aec6a625405df08004602022f05f5</value>
						</metadata>
						<metadata>
							<storage>QuickTime</storage>
							<key>com.sony.professionaldisc.nonrealtimemeta.lastupdate</key>
							<size>25</size>
							<type>UTF8</type>
							<value>2010-09-23 11:02:23 +0100</value>
						</metadata>
						<metadata>
							<storage>QuickTime</storage>
							<key>com.sony.bprl.mxf.umid</key>
							<size>64</size>
							<type>UTF8</type>
							<value>060a2b340101010501010d4313000000684aec6a625405df08004602022f05f5</value>
						</metadata>
						<metadata>
							<storage>QuickTime</storage>
							<key>com.sony.bprl.mxf.nrtmetadata</key>
							<size>1994</size>
							<type>UTF8</type>
							<value>&lt;?xml version="1.0" encoding="UTF-8"?>&lt;NonRealTimeMeta xmlns="urn:schemas-professionalDisc:nonRealTimeMeta:ver.1.20" xmlns:lib="urn:schemas-professionalDisc:lib:ver.1.20" xmlns:xsi="http://www.w3.org/2001/XMLSchema-instance" lastUpdate="2010-09-23T11:02:23+01:00">&lt;TargetMaterial umidRef="060A2B340101010501010D4313000000684AEC6A625405DF08004602022F05F5">&lt;/TargetMaterial>&lt;Duration value="1399">&lt;/Duration>&lt;LtcChangeTable tcFps="25" halfStep="false">&lt;LtcChange frameCount="0" value="16564513" status="increment">&lt;/LtcChange>&lt;LtcChange frameCount="1398" value="14524613" status="end">&lt;/LtcChange>&lt;/LtcChangeTable>&lt;CreationDate value="2010-09-23T11:01:26+01:00">&lt;/CreationDate>&lt;TypicalUbit value="0000000017061020">&lt;/TypicalUbit>&lt;BodyUmidBasicChangeTable>&lt;BodyUmidBasicChange frameCount="0" value="060A2B340101010501010D4333000000684AEC6A625405DF08004602022F05F5" status="start">&lt;/BodyUmidBasicChange>&lt;/BodyUmidBasicChangeTable>&lt;BodyUmidWhenChangeTable>&lt;BodyUmidWhenChange frameCount="0" value="C4067103625405A5" status="increment">&lt;/BodyUmidWhenChange>&lt;BodyUmidWhenChange frameCount="1398" value="44647203625405A5" status="end">&lt;/BodyUmidWhenChange>&lt;/BodyUmidWhenChangeTable>&lt;KlvPacketTable>&lt;KlvPacket key="060E2B34010101050301020A02000000" frameCount="0" lengthValue="095F5265635374617274" status="spot">&lt;/KlvPacket>&lt;/KlvPacketTable>&lt;VideoFormat>&lt;VideoRecPort port="DIRECT">&lt;/VideoRecPort>&lt;VideoFrame videoCodec="MPEG2HD35_1920_1080_MP@HL" captureFps="50.00i" recFps="50.00" formatFps="50i">&lt;/VideoFrame>&lt;VideoLayout pixel="1920" numOfVerticalLine="1080" aspectRatio="16:9">&lt;/VideoLayout>&lt;/VideoFormat>&lt;AudioFormat numOfChannel="2">&lt;AudioRecPort port="DIRECT" audioCodec="LPCM16" trackDst="CH1">&lt;/AudioRecPort>&lt;AudioRecPort port="DIRECT" audioCodec="LPCM16" trackDst="CH2">&lt;/AudioRecPort>&lt;/AudioFormat>&lt;Device manufacturer="Sony" modelName="PMW-EX3" serialNo="0401525">&lt;/Device>&lt;Lens modelName="VCL-614B2X">&lt;/Lens>&lt;RecordingMode type="normal" cacheRec="false">&lt;/RecordingMode>&lt;/NonRealTimeMeta>
							</value>
						</metadata>
						<metadata>
							<storage>QuickTime</storage>
							<key>com.apple.proapps.reel</key>
							<size>8</size>
							<type>UTF8</type>
							<value>Untitled</value>
						</metadata>
						<metadata>
							<storage>QuickTime</storage>
							<key>com.apple.proapps.clipID</key>
							<size>64</size>
							<type>UTF8</type>
							<value>060A2B340101010501010D4313000000684AEC6A625405DF08004602022F05F5</value>
						</metadata>
						<metadata>
							<storage>QuickTime</storage>
							<key>com.apple.quicktime.information</key>
							<size>64</size>
							<type>UTF8</type>
							<value>060a2b340101010501010d4313000000684aec6a625405df08004602022f05f5</value>
						</metadata>
						<metadata>
							<storage>QuickTime</storage>
							<key>com.apple.proapps.originalFormat</key>
							<size>36</size>
							<type>UTF8</type>
							<value>Apple XDCAM EX 1080i50 (35 Mb/s VBR)</value>
						</metadata>
						<timecode>
							<rate>
								<timebase>25</timebase>
							</rate>
							<string>13:45:56:16</string>
							<frame>1238916</frame>
							<displayformat>NDF</displayformat>
							<source>source</source>
							<reel>
								<name>Untitled</name>
							</reel>
						</timecode>
						<media>
							<video>
								<duration>1399</duration>
								<samplecharacteristics>
									<width>1920</width>
									<height>1080</height>
								</samplecharacteristics>
							</video>
							<audio>
								<samplecharacteristics>
									<samplerate>48000</samplerate>
									<depth>16</depth>
								</samplecharacteristics>
								<channelcount>1</channelcount>
								<layout>mono</layout>
								<audiochannel>
									<sourcechannel>1</sourcechannel>
									<channellabel>discrete</channellabel>
								</audiochannel>
							</audio>
							<audio>
								<samplecharacteristics>
									<samplerate>48000</samplerate>
									<depth>16</depth>
								</samplecharacteristics>
								<channelcount>1</channelcount>
								<layout>mono</layout>
								<audiochannel>
									<sourcechannel>2</sourcechannel>
									<channellabel>discrete</channellabel>
								</audiochannel>
							</audio>
						</media>
					</file>
					<filter>
						<effect>
							<name>Basic Motion</name>
							<effectid>basic</effectid>
							<effectcategory>motion</effectcategory>
							<effecttype>motion</effecttype>
							<mediatype>video</mediatype>
							<parameter>
								<parameterid>scale</parameterid>
								<name>Scale</name>
								<valuemin>0</valuemin>
								<valuemax>1000</valuemax>
								<value>100</value>
							</parameter>
							<parameter>
								<parameterid>rotation</parameterid>
								<name>Rotation</name>
								<valuemin>-8640</valuemin>
								<valuemax>8640</valuemax>
								<value>0</value>
							</parameter>
							<parameter>
								<parameterid>center</parameterid>
								<name>Center</name>
								<value>
									<horiz>0</horiz>
									<vert>0</vert>
								</value>
							</parameter>
							<parameter>
								<parameterid>centerOffset</parameterid>
								<name>Anchor Point</name>
								<value>
									<horiz>0</horiz>
									<vert>0</vert>
								</value>
							</parameter>
						</effect>
					</filter>
					<filter>
						<enabled>FALSE</enabled>
						<effect>
							<name>Drop Shadow</name>
							<effectid>dropshadow</effectid>
							<effectcategory>motion</effectcategory>
							<effecttype>motion</effecttype>
							<mediatype>video</mediatype>
							<parameter>
								<parameterid>offset</parameterid>
								<name>offset</name>
								<valuemin>-100</valuemin>
								<valuemax>100</valuemax>
								<value>2</value>
							</parameter>
							<parameter>
								<parameterid>angle</parameterid>
								<name>angle</name>
								<valuemin>-720</valuemin>
								<valuemax>720</valuemax>
								<value>135</value>
							</parameter>
							<parameter>
								<parameterid>color</parameterid>
								<name>color</name>
								<value>
									<alpha>0</alpha>
									<red>0</red>
									<green>0</green>
									<blue>0</blue>
								</value>
							</parameter>
							<parameter>
								<parameterid>softness</parameterid>
								<name>softness</name>
								<valuemin>0</valuemin>
								<valuemax>100</valuemax>
								<value>10</value>
							</parameter>
							<parameter>
								<parameterid>opacity</parameterid>
								<name>opacity</name>
								<valuemin>0</valuemin>
								<valuemax>100</valuemax>
								<value>50</value>
							</parameter>
						</effect>
					</filter>
					<filter>
						<enabled>FALSE</enabled>
						<effect>
							<name>Motion Blur</name>
							<effectid>motionblur</effectid>
							<effectcategory>motion</effectcategory>
							<effecttype>motion</effecttype>
							<mediatype>video</mediatype>
							<parameter>
								<parameterid>duration</parameterid>
								<name>% Blur</name>
								<valuemin>0</valuemin>
								<valuemax>1000</valuemax>
								<value>500</value>
							</parameter>
							<parameter>
								<parameterid>samples</parameterid>
								<name>Samples</name>
								<valuemin>1</valuemin>
								<valuemax>16</valuemax>
								<value>4</value>
							</parameter>
						</effect>
					</filter>
					<filter>
						<effect>
							<name>Crop</name>
							<effectid>crop</effectid>
							<effectcategory>motion</effectcategory>
							<effecttype>motion</effecttype>
							<mediatype>video</mediatype>
							<parameter>
								<parameterid>left</parameterid>
								<name>left</name>
								<valuemin>0</valuemin>
								<valuemax>100</valuemax>
								<value>0</value>
							</parameter>
							<parameter>
								<parameterid>right</parameterid>
								<name>right</name>
								<valuemin>0</valuemin>
								<valuemax>100</valuemax>
								<value>0</value>
							</parameter>
							<parameter>
								<parameterid>top</parameterid>
								<name>top</name>
								<valuemin>0</valuemin>
								<valuemax>100</valuemax>
								<value>0</value>
							</parameter>
							<parameter>
								<parameterid>bottom</parameterid>
								<name>bottom</name>
								<valuemin>0</valuemin>
								<valuemax>100</valuemax>
								<value>0</value>
							</parameter>
							<parameter>
								<parameterid>edgefeather</parameterid>
								<name>edgefeather</name>
								<valuemin>0</valuemin>
								<valuemax>100</valuemax>
								<value>0</value>
							</parameter>
						</effect>
					</filter>
					<filter>
						<effect>
							<name>Distort</name>
							<effectid>deformation</effectid>
							<effectcategory>motion</effectcategory>
							<effecttype>motion</effecttype>
							<mediatype>video</mediatype>
							<parameter>
								<parameterid>ulcorner</parameterid>
								<name>Upper Left</name>
								<value>
									<horiz>-0.5</horiz>
									<vert>-0.5</vert>
								</value>
							</parameter>
							<parameter>
								<parameterid>urcorner</parameterid>
								<name>Upper Right</name>
								<value>
									<horiz>0.5</horiz>
									<vert>-0.5</vert>
								</value>
							</parameter>
							<parameter>
								<parameterid>lrcorner</parameterid>
								<name>Lower Right</name>
								<value>
									<horiz>0.5</horiz>
									<vert>0.5</vert>
								</value>
							</parameter>
							<parameter>
								<parameterid>llcorner</parameterid>
								<name>Lower Left</name>
								<value>
									<horiz>-0.5</horiz>
									<vert>0.5</vert>
								</value>
							</parameter>
							<parameter>
								<parameterid>aspect</parameterid>
								<name>Aspect</name>
								<valuemin>-10000</valuemin>
								<valuemax>10000</valuemax>
								<value>0</value>
							</parameter>
						</effect>
					</filter>
					<filter>
						<effect>
							<name>Opacity</name>
							<effectid>opacity</effectid>
							<effectcategory>motion</effectcategory>
							<effecttype>motion</effecttype>
							<mediatype>video</mediatype>
							<parameter>
								<parameterid>opacity</parameterid>
								<name>opacity</name>
								<valuemin>0</valuemin>
								<valuemax>100</valuemax>
								<value>100</value>
							</parameter>
						</effect>
					</filter>
					<sourcetrack>
						<mediatype>video</mediatype>
					</sourcetrack>
					<fielddominance>upper</fielddominance>
					<itemhistory>
						<uuid>9278CA42-438C-48B6-90EF-457D877A8733</uuid>
					</itemhistory>
					<filter>
						<effect>
							<name>Time Remap</name>
							<effectid>timeremap</effectid>
							<effectcategory>motion</effectcategory>
							<effecttype>motion</effecttype>
							<mediatype>video</mediatype>
							<parameter>
								<parameterid>variablespeed</parameterid>
								<name>variablespeed</name>
								<valuemin>0</valuemin>
								<valuemax>1</valuemax>
								<value>1</value>
							</parameter>
							<parameter>
								<parameterid>mappedduration</parameterid>
								<name>mappedduration</name>
								<value>
									<timecode>
										<rate>
											<timebase>0</timebase>
										</rate>
										<string>0</string>
										<frame>0</frame>
										<displayformat>NDF</displayformat>
									</timecode>
								</value>
							</parameter>
							<parameter>
								<parameterid>speed</parameterid>
								<name>speed</name>
								<valuemin>-10000</valuemin>
								<valuemax>10000</valuemax>
								<value>205</value>
							</parameter>
							<parameter>
								<parameterid>reverse</parameterid>
								<name>reverse</name>
								<value>FALSE</value>
							</parameter>
							<parameter>
								<parameterid>frameblending</parameterid>
								<name>frameblending</name>
								<value>TRUE</value>
							</parameter>
							<parameter>
								<parameterid>graphdict</parameterid>
								<name>graphdict</name>
								<valuemin>0</valuemin>
								<valuemax>1398</valuemax>
								<keyframe>
									<when>0</when>
									<value>0</value>
									<speedkfstart>TRUE</speedkfstart>
									<speedvirtualkf>TRUE</speedvirtualkf>
								</keyframe>
								<keyframe>
									<when>417</when>
									<value>411.771</value>
									<speedkfin>TRUE</speedkfin>
									<speedvirtualkf>TRUE</speedvirtualkf>
								</keyframe>
								<keyframe>
									<when>435</when>
									<value>435</value>
									<inbez>
										<horiz>108.75</horiz>
										<vert>-2.21657</vert>
									</inbez>
									<outbez>
										<horiz>5.25</horiz>
										<vert>0.925025</vert>
									</outbez>
								</keyframe>
								<keyframe>
									<when>456</when>
									<value>511</value>
									<inbez>
										<horiz>5.25</horiz>
										<vert>-2.25147</vert>
									</inbez>
									<outbez>
										<horiz>235.5</horiz>
										<vert>0.890118</vert>
									</outbez>
								</keyframe>
								<keyframe>
									<when>480</when>
									<value>540.177</value>
									<speedkfout>TRUE</speedkfout>
									<speedvirtualkf>TRUE</speedvirtualkf>
								</keyframe>
								<keyframe>
									<when>1399</when>
									<value>1399</value>
									<speedkfend>TRUE</speedkfend>
									<speedvirtualkf>TRUE</speedvirtualkf>
								</keyframe>
								<interpolation>
									<name>FCPCurve</name>
								</interpolation>
								<value>411.771</value>
							</parameter>
						</effect>
					</filter>
				</clipitem>
				<clipitem id="DYR18613_01 ">
					<name>DYR18613_01</name>
					<duration>503</duration>
					<rate>
						<ntsc>FALSE</ntsc>
						<timebase>25</timebase>
					</rate>
					<in>137</in>
					<out>173</out>
					<start>24611</start>
					<end>24647</end>
					<pixelaspectratio>Square</pixelaspectratio>
					<enabled>TRUE</enabled>
					<anamorphic>FALSE</anamorphic>
					<alphatype>none</alphatype>
					<masterclipid>DYR18613_01 1</masterclipid>
					<logginginfo>
						<scene/>
						<shottake/>
						<lognote/>
						<good>FALSE</good>
					</logginginfo>
					<labels>
						<label2/>
					</labels>
					<comments>
						<mastercomment1/>
						<mastercomment2/>
						<mastercomment3/>
						<mastercomment4/>
					</comments>
					<file id="DYR18613_01 2">
						<name>DYR18613_01.mov</name>
						<pathurl>file://localhost/Volumes/Askepott/Prosjekter/DNPR637010_Kra%CC%8Akeklubben_TEM_011212/Video/MUSIKKVIDEO/Treet/DYR18613_01.mov</pathurl>
						<rate>
							<timebase>25</timebase>
						</rate>
						<duration>503</duration>
						<metadata>
							<storage>QuickTime</storage>
							<key>com.sony.bprl.xdcamtransfer.version</key>
							<size>10</size>
							<type>UTF8</type>
							<value>2.12.0.631</value>
						</metadata>
						<metadata>
							<storage>QuickTime</storage>
							<key>org.smpte.mxf.package.material.packageid</key>
							<size>66</size>
							<type>UTF8</type>
							<value>0x060a2b340101010501010d431300000047fbcb71615405d908004602022f05f5</value>
						</metadata>
						<metadata>
							<storage>QuickTime</storage>
							<key>com.sony.professionaldisc.nonrealtimemeta.lastupdate</key>
							<size>25</size>
							<type>UTF8</type>
							<value>2010-09-22 11:40:27 +0100</value>
						</metadata>
						<metadata>
							<storage>QuickTime</storage>
							<key>com.sony.bprl.mxf.umid</key>
							<size>64</size>
							<type>UTF8</type>
							<value>060a2b340101010501010d431300000047fbcb71615405d908004602022f05f5</value>
						</metadata>
						<metadata>
							<storage>QuickTime</storage>
							<key>com.sony.bprl.mxf.nrtmetadata</key>
							<size>1991</size>
							<type>UTF8</type>
							<value>&lt;?xml version="1.0" encoding="UTF-8"?>&lt;NonRealTimeMeta xmlns="urn:schemas-professionalDisc:nonRealTimeMeta:ver.1.20" xmlns:lib="urn:schemas-professionalDisc:lib:ver.1.20" xmlns:xsi="http://www.w3.org/2001/XMLSchema-instance" lastUpdate="2010-09-22T11:40:27+01:00">&lt;TargetMaterial umidRef="060A2B340101010501010D431300000047FBCB71615405D908004602022F05F5">&lt;/TargetMaterial>&lt;Duration value="503">&lt;/Duration>&lt;LtcChangeTable tcFps="25" halfStep="false">&lt;LtcChange frameCount="0" value="08175912" status="increment">&lt;/LtcChange>&lt;LtcChange frameCount="502" value="10375912" status="end">&lt;/LtcChange>&lt;/LtcChangeTable>&lt;CreationDate value="2010-09-22T11:40:06+01:00">&lt;/CreationDate>&lt;TypicalUbit value="0000000017061020">&lt;/TypicalUbit>&lt;BodyUmidBasicChangeTable>&lt;BodyUmidBasicChange frameCount="0" value="060A2B340101010501010D433300000047FBCB71615405D908004602022F05F5" status="start">&lt;/BodyUmidBasicChange>&lt;/BodyUmidBasicChangeTable>&lt;BodyUmidWhenChangeTable>&lt;BodyUmidWhenChange frameCount="0" value="44AAA903615405A5" status="increment">&lt;/BodyUmidWhenChange>&lt;BodyUmidWhenChange frameCount="502" value="C427AA03615405A5" status="end">&lt;/BodyUmidWhenChange>&lt;/BodyUmidWhenChangeTable>&lt;KlvPacketTable>&lt;KlvPacket key="060E2B34010101050301020A02000000" frameCount="0" lengthValue="095F5265635374617274" status="spot">&lt;/KlvPacket>&lt;/KlvPacketTable>&lt;VideoFormat>&lt;VideoRecPort port="DIRECT">&lt;/VideoRecPort>&lt;VideoFrame videoCodec="MPEG2HD35_1920_1080_MP@HL" captureFps="50.00i" recFps="50.00" formatFps="50i">&lt;/VideoFrame>&lt;VideoLayout pixel="1920" numOfVerticalLine="1080" aspectRatio="16:9">&lt;/VideoLayout>&lt;/VideoFormat>&lt;AudioFormat numOfChannel="2">&lt;AudioRecPort port="DIRECT" audioCodec="LPCM16" trackDst="CH1">&lt;/AudioRecPort>&lt;AudioRecPort port="DIRECT" audioCodec="LPCM16" trackDst="CH2">&lt;/AudioRecPort>&lt;/AudioFormat>&lt;Device manufacturer="Sony" modelName="PMW-EX3" serialNo="0401525">&lt;/Device>&lt;Lens modelName="VCL-614B2X">&lt;/Lens>&lt;RecordingMode type="normal" cacheRec="false">&lt;/RecordingMode>&lt;/NonRealTimeMeta>
							</value>
						</metadata>
						<metadata>
							<storage>QuickTime</storage>
							<key>com.apple.proapps.reel</key>
							<size>8</size>
							<type>UTF8</type>
							<value>Untitled</value>
						</metadata>
						<metadata>
							<storage>QuickTime</storage>
							<key>com.apple.proapps.clipID</key>
							<size>64</size>
							<type>UTF8</type>
							<value>060A2B340101010501010D431300000047FBCB71615405D908004602022F05F5</value>
						</metadata>
						<metadata>
							<storage>QuickTime</storage>
							<key>com.apple.quicktime.information</key>
							<size>64</size>
							<type>UTF8</type>
							<value>060a2b340101010501010d431300000047fbcb71615405d908004602022f05f5</value>
						</metadata>
						<metadata>
							<storage>QuickTime</storage>
							<key>com.apple.proapps.originalFormat</key>
							<size>36</size>
							<type>UTF8</type>
							<value>Apple XDCAM EX 1080i50 (35 Mb/s VBR)</value>
						</metadata>
						<timecode>
							<rate>
								<timebase>25</timebase>
							</rate>
							<string>12:59:17:08</string>
							<frame>1168933</frame>
							<displayformat>NDF</displayformat>
							<source>source</source>
							<reel>
								<name>Untitled</name>
							</reel>
						</timecode>
						<media>
							<video>
								<duration>503</duration>
								<samplecharacteristics>
									<width>1920</width>
									<height>1080</height>
								</samplecharacteristics>
							</video>
							<audio>
								<samplecharacteristics>
									<samplerate>48000</samplerate>
									<depth>16</depth>
								</samplecharacteristics>
								<channelcount>1</channelcount>
								<layout>mono</layout>
								<audiochannel>
									<sourcechannel>1</sourcechannel>
									<channellabel>discrete</channellabel>
								</audiochannel>
							</audio>
							<audio>
								<samplecharacteristics>
									<samplerate>48000</samplerate>
									<depth>16</depth>
								</samplecharacteristics>
								<channelcount>1</channelcount>
								<layout>mono</layout>
								<audiochannel>
									<sourcechannel>2</sourcechannel>
									<channellabel>discrete</channellabel>
								</audiochannel>
							</audio>
						</media>
					</file>
					<sourcetrack>
						<mediatype>video</mediatype>
					</sourcetrack>
					<fielddominance>upper</fielddominance>
					<itemhistory>
						<uuid>C59435E9-6482-438B-B827-1D3F6F8B33CB</uuid>
					</itemhistory>
				</clipitem>
				<clipitem id="DYR18582_01 ">
					<name>DYR18582_01</name>
					<duration>1246</duration>
					<rate>
						<ntsc>FALSE</ntsc>
						<timebase>25</timebase>
					</rate>
					<in>910</in>
					<out>965</out>
					<start>24647</start>
					<end>24702</end>
					<pixelaspectratio>Square</pixelaspectratio>
					<enabled>TRUE</enabled>
					<anamorphic>FALSE</anamorphic>
					<alphatype>none</alphatype>
					<masterclipid>DYR18582_01 1</masterclipid>
					<logginginfo>
						<scene/>
						<shottake/>
						<lognote/>
						<good>FALSE</good>
					</logginginfo>
					<labels>
						<label2/>
					</labels>
					<comments>
						<mastercomment1/>
						<mastercomment2/>
						<mastercomment3/>
						<mastercomment4/>
					</comments>
					<file id="DYR18582_01 2">
						<name>DYR18582_01.mov</name>
						<pathurl>file://localhost/Volumes/Askepott/Prosjekter/DNPR637010_Kra%CC%8Akeklubben_TEM_011212/Video/MUSIKKVIDEO/Treet/DYR18582_01.mov</pathurl>
						<rate>
							<timebase>25</timebase>
						</rate>
						<duration>1246</duration>
						<metadata>
							<storage>QuickTime</storage>
							<key>com.sony.bprl.xdcamtransfer.version</key>
							<size>10</size>
							<type>UTF8</type>
							<value>2.12.0.631</value>
						</metadata>
						<metadata>
							<storage>QuickTime</storage>
							<key>org.smpte.mxf.package.material.packageid</key>
							<size>66</size>
							<type>UTF8</type>
							<value>0x060a2b340101010501010d43130000009308d360615405dd08004602022f05f5</value>
						</metadata>
						<metadata>
							<storage>QuickTime</storage>
							<key>com.sony.professionaldisc.nonrealtimemeta.lastupdate</key>
							<size>25</size>
							<type>UTF8</type>
							<value>2010-09-22 10:05:28 +0100</value>
						</metadata>
						<metadata>
							<storage>QuickTime</storage>
							<key>com.sony.bprl.mxf.umid</key>
							<size>64</size>
							<type>UTF8</type>
							<value>060a2b340101010501010d43130000009308d360615405dd08004602022f05f5</value>
						</metadata>
						<metadata>
							<storage>QuickTime</storage>
							<key>com.sony.bprl.mxf.nrtmetadata</key>
							<size>1994</size>
							<type>UTF8</type>
							<value>&lt;?xml version="1.0" encoding="UTF-8"?>&lt;NonRealTimeMeta xmlns="urn:schemas-professionalDisc:nonRealTimeMeta:ver.1.20" xmlns:lib="urn:schemas-professionalDisc:lib:ver.1.20" xmlns:xsi="http://www.w3.org/2001/XMLSchema-instance" lastUpdate="2010-09-22T10:05:28+01:00">&lt;TargetMaterial umidRef="060A2B340101010501010D43130000009308D360615405DD08004602022F05F5">&lt;/TargetMaterial>&lt;Duration value="1246">&lt;/Duration>&lt;LtcChangeTable tcFps="25" halfStep="false">&lt;LtcChange frameCount="0" value="15564112" status="increment">&lt;/LtcChange>&lt;LtcChange frameCount="1245" value="10464212" status="end">&lt;/LtcChange>&lt;/LtcChangeTable>&lt;CreationDate value="2010-09-22T10:04:38+01:00">&lt;/CreationDate>&lt;TypicalUbit value="0000000017061020">&lt;/TypicalUbit>&lt;BodyUmidBasicChangeTable>&lt;BodyUmidBasicChange frameCount="0" value="060A2B340101010501010D43330000009308D360615405DD08004602022F05F5" status="start">&lt;/BodyUmidBasicChange>&lt;/BodyUmidBasicChangeTable>&lt;BodyUmidWhenChangeTable>&lt;BodyUmidWhenChange frameCount="0" value="04D11D03615405A5" status="increment">&lt;/BodyUmidWhenChange>&lt;BodyUmidWhenChange frameCount="1245" value="44081F03615405A5" status="end">&lt;/BodyUmidWhenChange>&lt;/BodyUmidWhenChangeTable>&lt;KlvPacketTable>&lt;KlvPacket key="060E2B34010101050301020A02000000" frameCount="0" lengthValue="095F5265635374617274" status="spot">&lt;/KlvPacket>&lt;/KlvPacketTable>&lt;VideoFormat>&lt;VideoRecPort port="DIRECT">&lt;/VideoRecPort>&lt;VideoFrame videoCodec="MPEG2HD35_1920_1080_MP@HL" captureFps="50.00i" recFps="50.00" formatFps="50i">&lt;/VideoFrame>&lt;VideoLayout pixel="1920" numOfVerticalLine="1080" aspectRatio="16:9">&lt;/VideoLayout>&lt;/VideoFormat>&lt;AudioFormat numOfChannel="2">&lt;AudioRecPort port="DIRECT" audioCodec="LPCM16" trackDst="CH1">&lt;/AudioRecPort>&lt;AudioRecPort port="DIRECT" audioCodec="LPCM16" trackDst="CH2">&lt;/AudioRecPort>&lt;/AudioFormat>&lt;Device manufacturer="Sony" modelName="PMW-EX3" serialNo="0401525">&lt;/Device>&lt;Lens modelName="VCL-614B2X">&lt;/Lens>&lt;RecordingMode type="normal" cacheRec="false">&lt;/RecordingMode>&lt;/NonRealTimeMeta>
							</value>
						</metadata>
						<metadata>
							<storage>QuickTime</storage>
							<key>com.apple.proapps.reel</key>
							<size>8</size>
							<type>UTF8</type>
							<value>Untitled</value>
						</metadata>
						<metadata>
							<storage>QuickTime</storage>
							<key>com.apple.proapps.clipID</key>
							<size>64</size>
							<type>UTF8</type>
							<value>060A2B340101010501010D43130000009308D360615405DD08004602022F05F5</value>
						</metadata>
						<metadata>
							<storage>QuickTime</storage>
							<key>com.apple.quicktime.information</key>
							<size>64</size>
							<type>UTF8</type>
							<value>060a2b340101010501010d43130000009308d360615405dd08004602022f05f5</value>
						</metadata>
						<metadata>
							<storage>QuickTime</storage>
							<key>com.apple.proapps.originalFormat</key>
							<size>36</size>
							<type>UTF8</type>
							<value>Apple XDCAM EX 1080i50 (35 Mb/s VBR)</value>
						</metadata>
						<timecode>
							<rate>
								<timebase>25</timebase>
							</rate>
							<string>12:41:56:15</string>
							<frame>1142915</frame>
							<displayformat>NDF</displayformat>
							<source>source</source>
							<reel>
								<name>Untitled</name>
							</reel>
						</timecode>
						<media>
							<video>
								<duration>1246</duration>
								<samplecharacteristics>
									<width>1920</width>
									<height>1080</height>
								</samplecharacteristics>
							</video>
							<audio>
								<samplecharacteristics>
									<samplerate>48000</samplerate>
									<depth>16</depth>
								</samplecharacteristics>
								<channelcount>1</channelcount>
								<layout>mono</layout>
								<audiochannel>
									<sourcechannel>1</sourcechannel>
									<channellabel>discrete</channellabel>
								</audiochannel>
							</audio>
							<audio>
								<samplecharacteristics>
									<samplerate>48000</samplerate>
									<depth>16</depth>
								</samplecharacteristics>
								<channelcount>1</channelcount>
								<layout>mono</layout>
								<audiochannel>
									<sourcechannel>2</sourcechannel>
									<channellabel>discrete</channellabel>
								</audiochannel>
							</audio>
						</media>
					</file>
					<filter>
						<enabled>TRUE</enabled>
						<start>-1</start>
						<end>-1</end>
						<effect>
							<name>Color Corrector 3-way</name>
							<effectid>Color Corrector 3-way</effectid>
							<effectcategory>Color Correction</effectcategory>
							<effecttype>filter</effecttype>
							<mediatype>video</mediatype>
							<parameter>
								<parameterid>dispmode</parameterid>
								<name>Display Mode</name>
								<valuemin>1</valuemin>
								<valuemax>3</valuemax>
								<valuelist>
									<valueentry>
										<name>Final</name>
										<value>1</value>
									</valueentry>
									<valueentry>
										<name>Matte</name>
										<value>2</value>
									</valueentry>
									<valueentry>
										<name>Source</name>
										<value>3</value>
									</valueentry>
								</valuelist>
								<value>1</value>
							</parameter>
							<parameter>
								<parameterid>label1</parameterid>
								<name>Blacks Controls</name>
								<value/>
							</parameter>
							<parameter>
								<parameterid>blacklevel</parameterid>
								<name>Level</name>
								<valuemin>-196</valuemin>
								<valuemax>254</valuemax>
								<value>0</value>
							</parameter>
							<parameter>
								<parameterid>b_hue</parameterid>
								<name>Angle</name>
								<valuemin>-180</valuemin>
								<valuemax>180</valuemax>
								<value>-33</value>
							</parameter>
							<parameter>
								<parameterid>b_mag</parameterid>
								<name>Magnitude</name>
								<valuemin>0</valuemin>
								<valuemax>200</valuemax>
								<value>0</value>
							</parameter>
							<parameter>
								<parameterid>label2</parameterid>
								<name>Midrange Controls</name>
								<value/>
							</parameter>
							<parameter>
								<parameterid>mids</parameterid>
								<name>Level</name>
								<valuemin>0</valuemin>
								<valuemax>200</valuemax>
								<value>109</value>
							</parameter>
							<parameter>
								<parameterid>m_hue</parameterid>
								<name>Angle</name>
								<valuemin>-180</valuemin>
								<valuemax>180</valuemax>
								<value>-33</value>
							</parameter>
							<parameter>
								<parameterid>m_mag</parameterid>
								<name>Magnitude</name>
								<valuemin>0</valuemin>
								<valuemax>200</valuemax>
								<value>0</value>
							</parameter>
							<parameter>
								<parameterid>label3</parameterid>
								<name>Highlight Controls</name>
								<value/>
							</parameter>
							<parameter>
								<parameterid>highlights</parameterid>
								<name>Level</name>
								<valuemin>64</valuemin>
								<valuemax>509</valuemax>
								<value>255</value>
							</parameter>
							<parameter>
								<parameterid>h_hue</parameterid>
								<name>Angle</name>
								<valuemin>-180</valuemin>
								<valuemax>180</valuemax>
								<value>-33</value>
							</parameter>
							<parameter>
								<parameterid>h_mag</parameterid>
								<name>Magnitude</name>
								<valuemin>0</valuemin>
								<valuemax>200</valuemax>
								<value>0</value>
							</parameter>
							<parameter>
								<parameterid>label4</parameterid>
								<name>Color Controls</name>
								<value/>
							</parameter>
							<parameter>
								<parameterid>chroma</parameterid>
								<name>Saturation</name>
								<valuemin>0</valuemin>
								<valuemax>200</valuemax>
								<value>100</value>
							</parameter>
							<parameter>
								<parameterid>label5</parameterid>
								<name>Limit Effect Controls</name>
								<value/>
							</parameter>
							<parameter>
								<parameterid>dochroma</parameterid>
								<name>Limit on Chroma</name>
								<value>FALSE</value>
							</parameter>
							<parameter>
								<parameterid>centerang</parameterid>
								<name>Chroma Center</name>
								<valuemin>-760</valuemin>
								<valuemax>760</valuemax>
								<value>-110</value>
							</parameter>
							<parameter>
								<parameterid>chromawidth</parameterid>
								<name>Chroma Width</name>
								<valuemin>0</valuemin>
								<valuemax>360</valuemax>
								<value>15</value>
							</parameter>
							<parameter>
								<parameterid>chromasoft</parameterid>
								<name>Chroma Softness</name>
								<valuemin>0</valuemin>
								<valuemax>180</valuemax>
								<value>10</value>
							</parameter>
							<parameter>
								<parameterid>dosat</parameterid>
								<name>Limit on Saturation</name>
								<value>FALSE</value>
							</parameter>
							<parameter>
								<parameterid>satmin</parameterid>
								<name>Sat. Minimum</name>
								<valuemin>0</valuemin>
								<valuemax>125</valuemax>
								<value>35</value>
							</parameter>
							<parameter>
								<parameterid>satwidth</parameterid>
								<name>Sat. Width</name>
								<valuemin>0</valuemin>
								<valuemax>125</valuemax>
								<value>40</value>
							</parameter>
							<parameter>
								<parameterid>satsoft</parameterid>
								<name>Sat. Softness</name>
								<valuemin>0</valuemin>
								<valuemax>125</valuemax>
								<value>20</value>
							</parameter>
							<parameter>
								<parameterid>doluma</parameterid>
								<name>Limit on Luma</name>
								<value>FALSE</value>
							</parameter>
							<parameter>
								<parameterid>lumamin</parameterid>
								<name>Luma Minimum</name>
								<valuemin>0</valuemin>
								<valuemax>120</valuemax>
								<value>0</value>
							</parameter>
							<parameter>
								<parameterid>lumawidth</parameterid>
								<name>Luma Width</name>
								<valuemin>0</valuemin>
								<valuemax>120</valuemax>
								<value>40</value>
							</parameter>
							<parameter>
								<parameterid>lumasoft</parameterid>
								<name>Luma Softness</name>
								<valuemin>0</valuemin>
								<valuemax>120</valuemax>
								<value>20</value>
							</parameter>
							<parameter>
								<parameterid>label6</parameterid>
								<name>Edge Control</name>
								<value/>
							</parameter>
							<parameter>
								<parameterid>edgethin</parameterid>
								<name>Thin/Spread</name>
								<valuemin>-100</valuemin>
								<valuemax>100</valuemax>
								<value>0</value>
							</parameter>
							<parameter>
								<parameterid>edgefeather</parameterid>
								<name>Softening</name>
								<valuemin>0</valuemin>
								<valuemax>100</valuemax>
								<value>0</value>
							</parameter>
							<parameter>
								<parameterid>label7</parameterid>
								<name>Mask Control</name>
								<value/>
							</parameter>
							<parameter>
								<parameterid>invertsel</parameterid>
								<name>Invert</name>
								<value>FALSE</value>
							</parameter>
							<parameter>
								<parameterid>debugshow</parameterid>
								<name>Show Stats</name>
								<value>FALSE</value>
							</parameter>
						</effect>
					</filter>
					<filter>
						<start>-1</start>
						<end>-1</end>
						<effect>
							<name>G Simple Curves +20 white curve</name>
							<effectcategory>Nattress Big Box of Tricks - Levels and Curves</effectcategory>
							<effecttype>filter</effecttype>
							<mediatype>video</mediatype>
							<parameter>
								<parameterid>colourspace</parameterid>
								<name>Colour Space</name>
								<valuemin>1</valuemin>
								<valuemax>2</valuemax>
								<valuelist>
									<valueentry>
										<name>RGB</name>
										<value>1</value>
									</valueentry>
									<valueentry>
										<name>Y'CbCr</name>
										<value>2</value>
									</valueentry>
								</valuelist>
								<value>2</value>
							</parameter>
							<parameter>
								<parameterid>showcurves</parameterid>
								<name>Show Curves</name>
								<value>FALSE</value>
							</parameter>
							<parameter>
								<parameterid>lvar</parameterid>
								<name>Levels Controls</name>
								<value>string</value>
							</parameter>
							<parameter>
								<parameterid>inw</parameterid>
								<name>White Level</name>
								<valuemin>0</valuemin>
								<valuemax>255</valuemax>
								<value>255</value>
							</parameter>
							<parameter>
								<parameterid>inb</parameterid>
								<name>Black Level</name>
								<valuemin>0</valuemin>
								<valuemax>255</valuemax>
								<value>0</value>
							</parameter>
							<parameter>
								<parameterid>outw</parameterid>
								<name>White Output</name>
								<valuemin>0</valuemin>
								<valuemax>255</valuemax>
								<value>255</value>
							</parameter>
							<parameter>
								<parameterid>outb</parameterid>
								<name>Black Output</name>
								<valuemin>0</valuemin>
								<valuemax>255</valuemax>
								<value>0</value>
							</parameter>
							<parameter>
								<parameterid>cvar</parameterid>
								<name>Curves Controls</name>
								<value>string</value>
							</parameter>
							<parameter>
								<parameterid>curvew</parameterid>
								<name>White Curve</name>
								<valuemin>-100</valuemin>
								<valuemax>100</valuemax>
								<value>15</value>
							</parameter>
							<parameter>
								<parameterid>curveb</parameterid>
								<name>Black Curve</name>
								<valuemin>-100</valuemin>
								<valuemax>100</valuemax>
								<value>0</value>
							</parameter>
							<parameter>
								<parameterid>clipoutput</parameterid>
								<name>Clip Output Levels</name>
								<value>TRUE</value>
							</parameter>
							<parameter>
								<parameterid>copyright</parameterid>
								<name>© www.nattress.com</name>
								<value>string</value>
							</parameter>
						</effect>
					</filter>
					<sourcetrack>
						<mediatype>video</mediatype>
					</sourcetrack>
					<fielddominance>upper</fielddominance>
					<itemhistory>
						<uuid>8F060F75-8DF8-470F-A637-53F68EF45104</uuid>
					</itemhistory>
				</clipitem>
				<clipitem id="DYR18691_01 ">
					<name>DYR18691_01</name>
					<duration>414</duration>
					<rate>
						<ntsc>FALSE</ntsc>
						<timebase>25</timebase>
					</rate>
					<in>252</in>
					<out>310</out>
					<start>24702</start>
					<end>-1</end>
					<pixelaspectratio>Square</pixelaspectratio>
					<enabled>TRUE</enabled>
					<anamorphic>FALSE</anamorphic>
					<alphatype>none</alphatype>
					<masterclipid>DYR18691_01 1</masterclipid>
					<logginginfo>
						<scene/>
						<shottake/>
						<lognote/>
						<good>FALSE</good>
					</logginginfo>
					<labels>
						<label2/>
					</labels>
					<comments>
						<mastercomment1/>
						<mastercomment2/>
						<mastercomment3/>
						<mastercomment4/>
					</comments>
					<file id="DYR18691_01 2">
						<name>DYR18691_01.mov</name>
						<pathurl>file://localhost/Volumes/Askepott/Prosjekter/DNPR637010_Kra%CC%8Akeklubben_TEM_011212/Video/MUSIKKVIDEO/Treet/DYR18691_01.mov</pathurl>
						<rate>
							<timebase>25</timebase>
						</rate>
						<duration>414</duration>
						<metadata>
							<storage>QuickTime</storage>
							<key>com.sony.bprl.xdcamtransfer.version</key>
							<size>10</size>
							<type>UTF8</type>
							<value>2.12.0.631</value>
						</metadata>
						<metadata>
							<storage>QuickTime</storage>
							<key>org.smpte.mxf.package.material.packageid</key>
							<size>66</size>
							<type>UTF8</type>
							<value>0x060a2b340101010501010d43130000007b9ff469625405d808004602022f05f5</value>
						</metadata>
						<metadata>
							<storage>QuickTime</storage>
							<key>com.sony.professionaldisc.nonrealtimemeta.lastupdate</key>
							<size>25</size>
							<type>UTF8</type>
							<value>2010-09-23 10:56:17 +0100</value>
						</metadata>
						<metadata>
							<storage>QuickTime</storage>
							<key>com.sony.bprl.mxf.umid</key>
							<size>64</size>
							<type>UTF8</type>
							<value>060a2b340101010501010d43130000007b9ff469625405d808004602022f05f5</value>
						</metadata>
						<metadata>
							<storage>QuickTime</storage>
							<key>com.sony.bprl.mxf.nrtmetadata</key>
							<size>1991</size>
							<type>UTF8</type>
							<value>&lt;?xml version="1.0" encoding="UTF-8"?>&lt;NonRealTimeMeta xmlns="urn:schemas-professionalDisc:nonRealTimeMeta:ver.1.20" xmlns:lib="urn:schemas-professionalDisc:lib:ver.1.20" xmlns:xsi="http://www.w3.org/2001/XMLSchema-instance" lastUpdate="2010-09-23T10:56:17+01:00">&lt;TargetMaterial umidRef="060A2B340101010501010D43130000007B9FF469625405D808004602022F05F5">&lt;/TargetMaterial>&lt;Duration value="414">&lt;/Duration>&lt;LtcChangeTable tcFps="25" halfStep="false">&lt;LtcChange frameCount="0" value="24104513" status="increment">&lt;/LtcChange>&lt;LtcChange frameCount="413" value="12274513" status="end">&lt;/LtcChange>&lt;/LtcChangeTable>&lt;CreationDate value="2010-09-23T10:56:00+01:00">&lt;/CreationDate>&lt;TypicalUbit value="0000000017061020">&lt;/TypicalUbit>&lt;BodyUmidBasicChangeTable>&lt;BodyUmidBasicChange frameCount="0" value="060A2B340101010501010D43330000007B9FF469625405D808004602022F05F5" status="start">&lt;/BodyUmidBasicChange>&lt;/BodyUmidBasicChangeTable>&lt;BodyUmidWhenChangeTable>&lt;BodyUmidWhenChange frameCount="0" value="040E6903625405A5" status="increment">&lt;/BodyUmidWhenChange>&lt;BodyUmidWhenChange frameCount="413" value="44756903625405A5" status="end">&lt;/BodyUmidWhenChange>&lt;/BodyUmidWhenChangeTable>&lt;KlvPacketTable>&lt;KlvPacket key="060E2B34010101050301020A02000000" frameCount="0" lengthValue="095F5265635374617274" status="spot">&lt;/KlvPacket>&lt;/KlvPacketTable>&lt;VideoFormat>&lt;VideoRecPort port="DIRECT">&lt;/VideoRecPort>&lt;VideoFrame videoCodec="MPEG2HD35_1920_1080_MP@HL" captureFps="50.00i" recFps="50.00" formatFps="50i">&lt;/VideoFrame>&lt;VideoLayout pixel="1920" numOfVerticalLine="1080" aspectRatio="16:9">&lt;/VideoLayout>&lt;/VideoFormat>&lt;AudioFormat numOfChannel="2">&lt;AudioRecPort port="DIRECT" audioCodec="LPCM16" trackDst="CH1">&lt;/AudioRecPort>&lt;AudioRecPort port="DIRECT" audioCodec="LPCM16" trackDst="CH2">&lt;/AudioRecPort>&lt;/AudioFormat>&lt;Device manufacturer="Sony" modelName="PMW-EX3" serialNo="0401525">&lt;/Device>&lt;Lens modelName="VCL-614B2X">&lt;/Lens>&lt;RecordingMode type="normal" cacheRec="false">&lt;/RecordingMode>&lt;/NonRealTimeMeta>
							</value>
						</metadata>
						<metadata>
							<storage>QuickTime</storage>
							<key>com.apple.proapps.reel</key>
							<size>8</size>
							<type>UTF8</type>
							<value>Untitled</value>
						</metadata>
						<metadata>
							<storage>QuickTime</storage>
							<key>com.apple.proapps.clipID</key>
							<size>64</size>
							<type>UTF8</type>
							<value>060A2B340101010501010D43130000007B9FF469625405D808004602022F05F5</value>
						</metadata>
						<metadata>
							<storage>QuickTime</storage>
							<key>com.apple.quicktime.information</key>
							<size>64</size>
							<type>UTF8</type>
							<value>060a2b340101010501010d43130000007b9ff469625405d808004602022f05f5</value>
						</metadata>
						<metadata>
							<storage>QuickTime</storage>
							<key>com.apple.proapps.originalFormat</key>
							<size>36</size>
							<type>UTF8</type>
							<value>Apple XDCAM EX 1080i50 (35 Mb/s VBR)</value>
						</metadata>
						<timecode>
							<rate>
								<timebase>25</timebase>
							</rate>
							<string>13:45:10:24</string>
							<frame>1237774</frame>
							<displayformat>NDF</displayformat>
							<source>source</source>
							<reel>
								<name>Untitled</name>
							</reel>
						</timecode>
						<media>
							<video>
								<duration>414</duration>
								<samplecharacteristics>
									<width>1920</width>
									<height>1080</height>
								</samplecharacteristics>
							</video>
							<audio>
								<samplecharacteristics>
									<samplerate>48000</samplerate>
									<depth>16</depth>
								</samplecharacteristics>
								<channelcount>1</channelcount>
								<layout>mono</layout>
								<audiochannel>
									<sourcechannel>1</sourcechannel>
									<channellabel>discrete</channellabel>
								</audiochannel>
							</audio>
							<audio>
								<samplecharacteristics>
									<samplerate>48000</samplerate>
									<depth>16</depth>
								</samplecharacteristics>
								<channelcount>1</channelcount>
								<layout>mono</layout>
								<audiochannel>
									<sourcechannel>2</sourcechannel>
									<channellabel>discrete</channellabel>
								</audiochannel>
							</audio>
						</media>
					</file>
					<filter>
						<enabled>TRUE</enabled>
						<start>-1</start>
						<end>-1</end>
						<effect>
							<name>Color Corrector 3-way</name>
							<effectid>Color Corrector 3-way</effectid>
							<effectcategory>Color Correction</effectcategory>
							<effecttype>filter</effecttype>
							<mediatype>video</mediatype>
							<parameter>
								<parameterid>dispmode</parameterid>
								<name>Display Mode</name>
								<valuemin>1</valuemin>
								<valuemax>3</valuemax>
								<valuelist>
									<valueentry>
										<name>Final</name>
										<value>1</value>
									</valueentry>
									<valueentry>
										<name>Matte</name>
										<value>2</value>
									</valueentry>
									<valueentry>
										<name>Source</name>
										<value>3</value>
									</valueentry>
								</valuelist>
								<value>1</value>
							</parameter>
							<parameter>
								<parameterid>label1</parameterid>
								<name>Blacks Controls</name>
								<value/>
							</parameter>
							<parameter>
								<parameterid>blacklevel</parameterid>
								<name>Level</name>
								<valuemin>-196</valuemin>
								<valuemax>254</valuemax>
								<value>7</value>
							</parameter>
							<parameter>
								<parameterid>b_hue</parameterid>
								<name>Angle</name>
								<valuemin>-180</valuemin>
								<valuemax>180</valuemax>
								<value>-33</value>
							</parameter>
							<parameter>
								<parameterid>b_mag</parameterid>
								<name>Magnitude</name>
								<valuemin>0</valuemin>
								<valuemax>200</valuemax>
								<value>0</value>
							</parameter>
							<parameter>
								<parameterid>label2</parameterid>
								<name>Midrange Controls</name>
								<value/>
							</parameter>
							<parameter>
								<parameterid>mids</parameterid>
								<name>Level</name>
								<valuemin>0</valuemin>
								<valuemax>200</valuemax>
								<value>115</value>
							</parameter>
							<parameter>
								<parameterid>m_hue</parameterid>
								<name>Angle</name>
								<valuemin>-180</valuemin>
								<valuemax>180</valuemax>
								<value>-33</value>
							</parameter>
							<parameter>
								<parameterid>m_mag</parameterid>
								<name>Magnitude</name>
								<valuemin>0</valuemin>
								<valuemax>200</valuemax>
								<value>0</value>
							</parameter>
							<parameter>
								<parameterid>label3</parameterid>
								<name>Highlight Controls</name>
								<value/>
							</parameter>
							<parameter>
								<parameterid>highlights</parameterid>
								<name>Level</name>
								<valuemin>64</valuemin>
								<valuemax>509</valuemax>
								<value>267</value>
							</parameter>
							<parameter>
								<parameterid>h_hue</parameterid>
								<name>Angle</name>
								<valuemin>-180</valuemin>
								<valuemax>180</valuemax>
								<value>-33</value>
							</parameter>
							<parameter>
								<parameterid>h_mag</parameterid>
								<name>Magnitude</name>
								<valuemin>0</valuemin>
								<valuemax>200</valuemax>
								<value>0</value>
							</parameter>
							<parameter>
								<parameterid>label4</parameterid>
								<name>Color Controls</name>
								<value/>
							</parameter>
							<parameter>
								<parameterid>chroma</parameterid>
								<name>Saturation</name>
								<valuemin>0</valuemin>
								<valuemax>200</valuemax>
								<value>100</value>
							</parameter>
							<parameter>
								<parameterid>label5</parameterid>
								<name>Limit Effect Controls</name>
								<value/>
							</parameter>
							<parameter>
								<parameterid>dochroma</parameterid>
								<name>Limit on Chroma</name>
								<value>FALSE</value>
							</parameter>
							<parameter>
								<parameterid>centerang</parameterid>
								<name>Chroma Center</name>
								<valuemin>-760</valuemin>
								<valuemax>760</valuemax>
								<value>-110</value>
							</parameter>
							<parameter>
								<parameterid>chromawidth</parameterid>
								<name>Chroma Width</name>
								<valuemin>0</valuemin>
								<valuemax>360</valuemax>
								<value>15</value>
							</parameter>
							<parameter>
								<parameterid>chromasoft</parameterid>
								<name>Chroma Softness</name>
								<valuemin>0</valuemin>
								<valuemax>180</valuemax>
								<value>10</value>
							</parameter>
							<parameter>
								<parameterid>dosat</parameterid>
								<name>Limit on Saturation</name>
								<value>FALSE</value>
							</parameter>
							<parameter>
								<parameterid>satmin</parameterid>
								<name>Sat. Minimum</name>
								<valuemin>0</valuemin>
								<valuemax>125</valuemax>
								<value>35</value>
							</parameter>
							<parameter>
								<parameterid>satwidth</parameterid>
								<name>Sat. Width</name>
								<valuemin>0</valuemin>
								<valuemax>125</valuemax>
								<value>40</value>
							</parameter>
							<parameter>
								<parameterid>satsoft</parameterid>
								<name>Sat. Softness</name>
								<valuemin>0</valuemin>
								<valuemax>125</valuemax>
								<value>20</value>
							</parameter>
							<parameter>
								<parameterid>doluma</parameterid>
								<name>Limit on Luma</name>
								<value>FALSE</value>
							</parameter>
							<parameter>
								<parameterid>lumamin</parameterid>
								<name>Luma Minimum</name>
								<valuemin>0</valuemin>
								<valuemax>120</valuemax>
								<value>0</value>
							</parameter>
							<parameter>
								<parameterid>lumawidth</parameterid>
								<name>Luma Width</name>
								<valuemin>0</valuemin>
								<valuemax>120</valuemax>
								<value>40</value>
							</parameter>
							<parameter>
								<parameterid>lumasoft</parameterid>
								<name>Luma Softness</name>
								<valuemin>0</valuemin>
								<valuemax>120</valuemax>
								<value>20</value>
							</parameter>
							<parameter>
								<parameterid>label6</parameterid>
								<name>Edge Control</name>
								<value/>
							</parameter>
							<parameter>
								<parameterid>edgethin</parameterid>
								<name>Thin/Spread</name>
								<valuemin>-100</valuemin>
								<valuemax>100</valuemax>
								<value>0</value>
							</parameter>
							<parameter>
								<parameterid>edgefeather</parameterid>
								<name>Softening</name>
								<valuemin>0</valuemin>
								<valuemax>100</valuemax>
								<value>0</value>
							</parameter>
							<parameter>
								<parameterid>label7</parameterid>
								<name>Mask Control</name>
								<value/>
							</parameter>
							<parameter>
								<parameterid>invertsel</parameterid>
								<name>Invert</name>
								<value>FALSE</value>
							</parameter>
							<parameter>
								<parameterid>debugshow</parameterid>
								<name>Show Stats</name>
								<value>FALSE</value>
							</parameter>
						</effect>
					</filter>
					<filter>
						<start>-1</start>
						<end>-1</end>
						<effect>
							<name>G Simple Curves +20 white curve</name>
							<effectcategory>Nattress Big Box of Tricks - Levels and Curves</effectcategory>
							<effecttype>filter</effecttype>
							<mediatype>video</mediatype>
							<parameter>
								<parameterid>colourspace</parameterid>
								<name>Colour Space</name>
								<valuemin>1</valuemin>
								<valuemax>2</valuemax>
								<valuelist>
									<valueentry>
										<name>RGB</name>
										<value>1</value>
									</valueentry>
									<valueentry>
										<name>Y'CbCr</name>
										<value>2</value>
									</valueentry>
								</valuelist>
								<value>2</value>
							</parameter>
							<parameter>
								<parameterid>showcurves</parameterid>
								<name>Show Curves</name>
								<value>FALSE</value>
							</parameter>
							<parameter>
								<parameterid>lvar</parameterid>
								<name>Levels Controls</name>
								<value>string</value>
							</parameter>
							<parameter>
								<parameterid>inw</parameterid>
								<name>White Level</name>
								<valuemin>0</valuemin>
								<valuemax>255</valuemax>
								<value>255</value>
							</parameter>
							<parameter>
								<parameterid>inb</parameterid>
								<name>Black Level</name>
								<valuemin>0</valuemin>
								<valuemax>255</valuemax>
								<value>0</value>
							</parameter>
							<parameter>
								<parameterid>outw</parameterid>
								<name>White Output</name>
								<valuemin>0</valuemin>
								<valuemax>255</valuemax>
								<value>255</value>
							</parameter>
							<parameter>
								<parameterid>outb</parameterid>
								<name>Black Output</name>
								<valuemin>0</valuemin>
								<valuemax>255</valuemax>
								<value>0</value>
							</parameter>
							<parameter>
								<parameterid>cvar</parameterid>
								<name>Curves Controls</name>
								<value>string</value>
							</parameter>
							<parameter>
								<parameterid>curvew</parameterid>
								<name>White Curve</name>
								<valuemin>-100</valuemin>
								<valuemax>100</valuemax>
								<value>15</value>
							</parameter>
							<parameter>
								<parameterid>curveb</parameterid>
								<name>Black Curve</name>
								<valuemin>-100</valuemin>
								<valuemax>100</valuemax>
								<value>0</value>
							</parameter>
							<parameter>
								<parameterid>clipoutput</parameterid>
								<name>Clip Output Levels</name>
								<value>TRUE</value>
							</parameter>
							<parameter>
								<parameterid>copyright</parameterid>
								<name>© www.nattress.com</name>
								<value>string</value>
							</parameter>
						</effect>
					</filter>
					<sourcetrack>
						<mediatype>video</mediatype>
					</sourcetrack>
					<fielddominance>upper</fielddominance>
					<itemhistory>
						<uuid>305B8BCA-02A0-4479-8EBD-DBA2F3FEF93D</uuid>
					</itemhistory>
				</clipitem>
				<transitionitem>
					<rate>
						<ntsc>FALSE</ntsc>
						<timebase>25</timebase>
					</rate>
					<start>24735</start>
					<end>24760</end>
					<alignment>center</alignment>
					<effect>
						<name>G Lens FlareV2</name>
						<effectcategory>Nattress Big Box Of Tricks</effectcategory>
						<effecttype>transition</effecttype>
						<mediatype>video</mediatype>
						<startratio>0</startratio>
						<endratio>1</endratio>
						<reverse>FALSE</reverse>
						<parameter>
							<parameterid>dispvar1</parameterid>
							<name>Display Settings</name>
							<value>string</value>
						</parameter>
						<parameter>
							<parameterid>inputvar1</parameterid>
							<name>Flare Position</name>
							<value>string</value>
						</parameter>
						<parameter>
							<parameterid>theangle</parameterid>
							<name>Transition Direction</name>
							<valuemin>-360</valuemin>
							<valuemax>360</valuemax>
							<value>-180</value>
						</parameter>
						<parameter>
							<parameterid>transitionblendduration</parameterid>
							<name>Blend Duration</name>
							<valuemin>0</valuemin>
							<valuemax>100</valuemax>
							<value>41</value>
						</parameter>
						<parameter>
							<parameterid>settingsvar1</parameterid>
							<name>Flare Settings</name>
							<value>string</value>
						</parameter>
						<parameter>
							<parameterid>presets</parameterid>
							<name>Preset Select</name>
							<valuemin>1</valuemin>
							<valuemax>4</valuemax>
							<valuelist>
								<valueentry>
									<name>Custom Controls</name>
									<value>1</value>
								</valueentry>
								<valueentry>
									<name>Other End of the Rainbow</name>
									<value>2</value>
								</valueentry>
								<valueentry>
									<name>Photon</name>
									<value>3</value>
								</valueentry>
								<valueentry>
									<name>Gaudy</name>
									<value>4</value>
								</valueentry>
							</valuelist>
							<value>3</value>
						</parameter>
						<parameter>
							<parameterid>randomevolution</parameterid>
							<name>Randomness Evolution</name>
							<valuemin>0</valuemin>
							<valuemax>1</valuemax>
							<value>0.05</value>
						</parameter>
						<parameter>
							<parameterid>flareaspect</parameterid>
							<name>Aspect</name>
							<valuemin>0.1</valuemin>
							<valuemax>10</valuemax>
							<value>1</value>
						</parameter>
						<parameter>
							<parameterid>flareintensity</parameterid>
							<name>Overall Intensity</name>
							<valuemin>0</valuemin>
							<valuemax>400</valuemax>
							<value>118</value>
						</parameter>
						<parameter>
							<parameterid>therandomseed</parameterid>
							<name>Random Seed</name>
							<valuemin>0</valuemin>
							<valuemax>100</valuemax>
							<value>100</value>
						</parameter>
						<parameter>
							<parameterid>settingsvar2</parameterid>
							<name>   Bloom</name>
							<value>string</value>
						</parameter>
						<parameter>
							<parameterid>bloomon</parameterid>
							<name>Bloom On?</name>
							<value>TRUE</value>
						</parameter>
						<parameter>
							<parameterid>bloomcolour</parameterid>
							<name>Bloom Colour</name>
							<value>
								<alpha>255</alpha>
								<red>218</red>
								<green>224</green>
								<blue>254</blue>
							</value>
						</parameter>
						<parameter>
							<parameterid>bloomcolourfromimage</parameterid>
							<name>Use Image for Bloom Colour?</name>
							<value>FALSE</value>
						</parameter>
						<parameter>
							<parameterid>bloomintensity</parameterid>
							<name>Intensity</name>
							<valuemin>0</valuemin>
							<valuemax>100</valuemax>
							<value>90</value>
						</parameter>
						<parameter>
							<parameterid>bloomradius</parameterid>
							<name>Radius</name>
							<valuemin>0</valuemin>
							<valuemax>200</valuemax>
							<value>45</value>
						</parameter>
						<parameter>
							<parameterid>bloomfalloff</parameterid>
							<name>Fall Off</name>
							<valuemin>0</valuemin>
							<valuemax>100</valuemax>
							<value>75</value>
						</parameter>
						<parameter>
							<parameterid>bloomstarry</parameterid>
							<name>Starry</name>
							<valuemin>0</valuemin>
							<valuemax>100</valuemax>
							<value>10</value>
						</parameter>
						<parameter>
							<parameterid>bloomstarpoints</parameterid>
							<name>Star Points</name>
							<valuemin>0</valuemin>
							<valuemax>100</valuemax>
							<value>7</value>
						</parameter>
						<parameter>
							<parameterid>settingsvar3</parameterid>
							<name>   StarBurst</name>
							<value>string</value>
						</parameter>
						<parameter>
							<parameterid>starburston</parameterid>
							<name>StarBurst On?</name>
							<value>TRUE</value>
						</parameter>
						<parameter>
							<parameterid>starburstcolour</parameterid>
							<name>StarBurst Colour</name>
							<value>
								<alpha>255</alpha>
								<red>254</red>
								<green>224</green>
								<blue>218</blue>
							</value>
						</parameter>
						<parameter>
							<parameterid>starburstintensity</parameterid>
							<name>Intensity</name>
							<valuemin>0</valuemin>
							<valuemax>100</valuemax>
							<value>75</value>
						</parameter>
						<parameter>
							<parameterid>starburstradius</parameterid>
							<name>Radius</name>
							<valuemin>0</valuemin>
							<valuemax>150</valuemax>
							<value>75</value>
						</parameter>
						<parameter>
							<parameterid>starburststarpoints</parameterid>
							<name>Star Points</name>
							<valuemin>0</valuemin>
							<valuemax>200</valuemax>
							<value>90</value>
						</parameter>
						<parameter>
							<parameterid>starcentre</parameterid>
							<name>Centre Size</name>
							<valuemin>0</valuemin>
							<valuemax>100</valuemax>
							<value>75</value>
						</parameter>
						<parameter>
							<parameterid>starfalloff</parameterid>
							<name>Fall Off</name>
							<valuemin>0</valuemin>
							<valuemax>100</valuemax>
							<value>75</value>
						</parameter>
						<parameter>
							<parameterid>starburstrandom</parameterid>
							<name>Randomness</name>
							<valuemin>0</valuemin>
							<valuemax>4</valuemax>
							<value>0.4</value>
						</parameter>
						<parameter>
							<parameterid>settingsvar4</parameterid>
							<name>   Rainbow</name>
							<value>string</value>
						</parameter>
						<parameter>
							<parameterid>rainbowon</parameterid>
							<name>Rainbow On?</name>
							<value>TRUE</value>
						</parameter>
						<parameter>
							<parameterid>rainbowcolors</parameterid>
							<name>Colour Type</name>
							<valuemin>1</valuemin>
							<valuemax>2</valuemax>
							<valuelist>
								<valueentry>
									<name>Rainbow</name>
									<value>1</value>
								</valueentry>
								<valueentry>
									<name>User Colour</name>
									<value>2</value>
								</valueentry>
							</valuelist>
							<value>1</value>
						</parameter>
						<parameter>
							<parameterid>rainbowusercolor</parameterid>
							<name>User Colour</name>
							<value>
								<alpha>255</alpha>
								<red>230</red>
								<green>110</green>
								<blue>22</blue>
							</value>
						</parameter>
						<parameter>
							<parameterid>rainbowposition</parameterid>
							<name>Position</name>
							<valuemin>-200</valuemin>
							<valuemax>200</valuemax>
							<value>100</value>
						</parameter>
						<parameter>
							<parameterid>rainbowintensity</parameterid>
							<name>Intensity</name>
							<valuemin>0</valuemin>
							<valuemax>100</valuemax>
							<value>20</value>
						</parameter>
						<parameter>
							<parameterid>rainbowradius</parameterid>
							<name>Radius</name>
							<valuemin>0</valuemin>
							<valuemax>200</valuemax>
							<value>50</value>
						</parameter>
						<parameter>
							<parameterid>rainbowthickness</parameterid>
							<name>Thickness</name>
							<valuemin>0</valuemin>
							<valuemax>1</valuemax>
							<value>0.15</value>
						</parameter>
						<parameter>
							<parameterid>rainbowsharpness</parameterid>
							<name>Sharpness</name>
							<valuemin>0</valuemin>
							<valuemax>1</valuemax>
							<value>0.65</value>
						</parameter>
						<parameter>
							<parameterid>settingsvar5</parameterid>
							<name>   Spots</name>
							<value>string</value>
						</parameter>
						<parameter>
							<parameterid>spotson</parameterid>
							<name>Spots On?</name>
							<value>TRUE</value>
						</parameter>
						<parameter>
							<parameterid>spotsnumber</parameterid>
							<name>Number</name>
							<valuemin>0</valuemin>
							<valuemax>100</valuemax>
							<value>12</value>
						</parameter>
						<parameter>
							<parameterid>spotsintensity</parameterid>
							<name>Intensity</name>
							<valuemin>0</valuemin>
							<valuemax>100</valuemax>
							<value>80</value>
						</parameter>
						<parameter>
							<parameterid>spotsradius</parameterid>
							<name>Radius</name>
							<valuemin>0</valuemin>
							<valuemax>150</valuemax>
							<value>30</value>
						</parameter>
						<parameter>
							<parameterid>spotsdisky</parameterid>
							<name>Disky</name>
							<valuemin>0</valuemin>
							<valuemax>100</valuemax>
							<value>75</value>
						</parameter>
						<parameter>
							<parameterid>spotsringy</parameterid>
							<name>Ringy</name>
							<valuemin>0</valuemin>
							<valuemax>100</valuemax>
							<value>75</value>
						</parameter>
						<parameter>
							<parameterid>spotsblotty</parameterid>
							<name>Blotty</name>
							<valuemin>0</valuemin>
							<valuemax>100</valuemax>
							<value>75</value>
						</parameter>
						<parameter>
							<parameterid>spotsbloony</parameterid>
							<name>Bloony</name>
							<valuemin>0</valuemin>
							<valuemax>100</valuemax>
							<value>75</value>
						</parameter>
						<parameter>
							<parameterid>spotsvarycolour</parameterid>
							<name>Vary Colour</name>
							<valuemin>0</valuemin>
							<valuemax>100</valuemax>
							<value>31</value>
						</parameter>
						<parameter>
							<parameterid>spotsbasehue</parameterid>
							<name>Base Hue</name>
							<valuemin>0</valuemin>
							<valuemax>100</valuemax>
							<value>72</value>
						</parameter>
						<parameter>
							<parameterid>spotssaturation</parameterid>
							<name>Saturation</name>
							<valuemin>0</valuemin>
							<valuemax>100</valuemax>
							<value>20</value>
						</parameter>
						<parameter>
							<parameterid>copyright</parameterid>
							<name>©www.nattress.com</name>
							<value>string</value>
						</parameter>
					</effect>
				</transitionitem>
				<clipitem id="DYR18588_01 ">
					<name>DYR18588_01</name>
					<duration>1887</duration>
					<rate>
						<ntsc>FALSE</ntsc>
						<timebase>25</timebase>
					</rate>
					<in>94</in>
					<out>194</out>
					<start>-1</start>
					<end>24835</end>
					<pixelaspectratio>Square</pixelaspectratio>
					<enabled>TRUE</enabled>
					<anamorphic>FALSE</anamorphic>
					<alphatype>none</alphatype>
					<masterclipid>DYR18588_01 1</masterclipid>
					<logginginfo>
						<scene/>
						<shottake/>
						<lognote/>
						<good>FALSE</good>
					</logginginfo>
					<labels>
						<label2/>
					</labels>
					<comments>
						<mastercomment1/>
						<mastercomment2/>
						<mastercomment3/>
						<mastercomment4/>
					</comments>
					<file id="DYR18588_01 2">
						<name>DYR18588_01.mov</name>
						<pathurl>file://localhost/Volumes/Askepott/Prosjekter/DNPR637010_Kra%CC%8Akeklubben_TEM_011212/Video/MUSIKKVIDEO/Treet/DYR18588_01.mov</pathurl>
						<rate>
							<timebase>25</timebase>
						</rate>
						<duration>1887</duration>
						<metadata>
							<storage>QuickTime</storage>
							<key>com.sony.bprl.xdcamtransfer.version</key>
							<size>10</size>
							<type>UTF8</type>
							<value>2.12.0.631</value>
						</metadata>
						<metadata>
							<storage>QuickTime</storage>
							<key>org.smpte.mxf.package.material.packageid</key>
							<size>66</size>
							<type>UTF8</type>
							<value>0x060a2b340101010501010d4313000000ccddb762615405cb08004602022f05f5</value>
						</metadata>
						<metadata>
							<storage>QuickTime</storage>
							<key>com.sony.professionaldisc.nonrealtimemeta.lastupdate</key>
							<size>25</size>
							<type>UTF8</type>
							<value>2010-09-22 10:16:33 +0100</value>
						</metadata>
						<metadata>
							<storage>QuickTime</storage>
							<key>com.sony.bprl.mxf.umid</key>
							<size>64</size>
							<type>UTF8</type>
							<value>060a2b340101010501010d4313000000ccddb762615405cb08004602022f05f5</value>
						</metadata>
						<metadata>
							<storage>QuickTime</storage>
							<key>com.sony.bprl.mxf.nrtmetadata</key>
							<size>1994</size>
							<type>UTF8</type>
							<value>&lt;?xml version="1.0" encoding="UTF-8"?>&lt;NonRealTimeMeta xmlns="urn:schemas-professionalDisc:nonRealTimeMeta:ver.1.20" xmlns:lib="urn:schemas-professionalDisc:lib:ver.1.20" xmlns:xsi="http://www.w3.org/2001/XMLSchema-instance" lastUpdate="2010-09-22T10:16:33+01:00">&lt;TargetMaterial umidRef="060A2B340101010501010D4313000000CCDDB762615405CB08004602022F05F5">&lt;/TargetMaterial>&lt;Duration value="1887">&lt;/Duration>&lt;LtcChangeTable tcFps="25" halfStep="false">&lt;LtcChange frameCount="0" value="20484812" status="increment">&lt;/LtcChange>&lt;LtcChange frameCount="1886" value="06045012" status="end">&lt;/LtcChange>&lt;/LtcChangeTable>&lt;CreationDate value="2010-09-22T10:15:17+01:00">&lt;/CreationDate>&lt;TypicalUbit value="0000000017061020">&lt;/TypicalUbit>&lt;BodyUmidBasicChangeTable>&lt;BodyUmidBasicChange frameCount="0" value="060A2B340101010501010D4333000000CCDDB762615405CB08004602022F05F5" status="start">&lt;/BodyUmidBasicChange>&lt;/BodyUmidBasicChangeTable>&lt;BodyUmidWhenChangeTable>&lt;BodyUmidWhenChange frameCount="0" value="046C2D03615405A5" status="increment">&lt;/BodyUmidWhenChange>&lt;BodyUmidWhenChange frameCount="1886" value="84432F03615405A5" status="end">&lt;/BodyUmidWhenChange>&lt;/BodyUmidWhenChangeTable>&lt;KlvPacketTable>&lt;KlvPacket key="060E2B34010101050301020A02000000" frameCount="0" lengthValue="095F5265635374617274" status="spot">&lt;/KlvPacket>&lt;/KlvPacketTable>&lt;VideoFormat>&lt;VideoRecPort port="DIRECT">&lt;/VideoRecPort>&lt;VideoFrame videoCodec="MPEG2HD35_1920_1080_MP@HL" captureFps="50.00i" recFps="50.00" formatFps="50i">&lt;/VideoFrame>&lt;VideoLayout pixel="1920" numOfVerticalLine="1080" aspectRatio="16:9">&lt;/VideoLayout>&lt;/VideoFormat>&lt;AudioFormat numOfChannel="2">&lt;AudioRecPort port="DIRECT" audioCodec="LPCM16" trackDst="CH1">&lt;/AudioRecPort>&lt;AudioRecPort port="DIRECT" audioCodec="LPCM16" trackDst="CH2">&lt;/AudioRecPort>&lt;/AudioFormat>&lt;Device manufacturer="Sony" modelName="PMW-EX3" serialNo="0401525">&lt;/Device>&lt;Lens modelName="VCL-614B2X">&lt;/Lens>&lt;RecordingMode type="normal" cacheRec="false">&lt;/RecordingMode>&lt;/NonRealTimeMeta>
							</value>
						</metadata>
						<metadata>
							<storage>QuickTime</storage>
							<key>com.apple.proapps.reel</key>
							<size>8</size>
							<type>UTF8</type>
							<value>Untitled</value>
						</metadata>
						<metadata>
							<storage>QuickTime</storage>
							<key>com.apple.proapps.clipID</key>
							<size>64</size>
							<type>UTF8</type>
							<value>060A2B340101010501010D4313000000CCDDB762615405CB08004602022F05F5</value>
						</metadata>
						<metadata>
							<storage>QuickTime</storage>
							<key>com.apple.quicktime.information</key>
							<size>64</size>
							<type>UTF8</type>
							<value>060a2b340101010501010d4313000000ccddb762615405cb08004602022f05f5</value>
						</metadata>
						<metadata>
							<storage>QuickTime</storage>
							<key>com.apple.proapps.originalFormat</key>
							<size>36</size>
							<type>UTF8</type>
							<value>Apple XDCAM EX 1080i50 (35 Mb/s VBR)</value>
						</metadata>
						<timecode>
							<rate>
								<timebase>25</timebase>
							</rate>
							<string>12:48:48:20</string>
							<frame>1153220</frame>
							<displayformat>NDF</displayformat>
							<source>source</source>
							<reel>
								<name>Untitled</name>
							</reel>
						</timecode>
						<media>
							<video>
								<duration>1887</duration>
								<samplecharacteristics>
									<width>1920</width>
									<height>1080</height>
								</samplecharacteristics>
							</video>
							<audio>
								<samplecharacteristics>
									<samplerate>48000</samplerate>
									<depth>16</depth>
								</samplecharacteristics>
								<channelcount>1</channelcount>
								<layout>mono</layout>
								<audiochannel>
									<sourcechannel>1</sourcechannel>
									<channellabel>discrete</channellabel>
								</audiochannel>
							</audio>
							<audio>
								<samplecharacteristics>
									<samplerate>48000</samplerate>
									<depth>16</depth>
								</samplecharacteristics>
								<channelcount>1</channelcount>
								<layout>mono</layout>
								<audiochannel>
									<sourcechannel>2</sourcechannel>
									<channellabel>discrete</channellabel>
								</audiochannel>
							</audio>
						</media>
					</file>
					<filter>
						<enabled>FALSE</enabled>
						<start>-1</start>
						<end>-1</end>
						<effect>
							<name>G Vignette V2.5.1</name>
							<effectcategory>Nattress Film Effects - Image Effects</effectcategory>
							<effecttype>filter</effecttype>
							<mediatype>video</mediatype>
							<parameter>
								<parameterid>vignettevar</parameterid>
								<name>Vignette Controls</name>
								<value>string</value>
							</parameter>
							<parameter>
								<parameterid>rgbtinta</parameterid>
								<name>Vignette Colour A</name>
								<value>
									<alpha>0</alpha>
									<red>0</red>
									<green>0</green>
									<blue>0</blue>
								</value>
							</parameter>
							<parameter>
								<parameterid>rgbtintb</parameterid>
								<name>Vignette Colour B</name>
								<value>
									<alpha>0</alpha>
									<red>128</red>
									<green>128</green>
									<blue>128</blue>
								</value>
							</parameter>
							<parameter>
								<parameterid>mattebackground</parameterid>
								<name>Vignette Background</name>
								<valuemin>1</valuemin>
								<valuemax>4</valuemax>
								<valuelist>
									<valueentry>
										<name>Colour A on White</name>
										<value>1</value>
									</valueentry>
									<valueentry>
										<name>Colour A on Black</name>
										<value>2</value>
									</valueentry>
									<valueentry>
										<name>Colour A on Grey</name>
										<value>3</value>
									</valueentry>
									<valueentry>
										<name>Colour A on Colour B</name>
										<value>4</value>
									</valueentry>
								</valuelist>
								<value>1</value>
							</parameter>
							<parameter>
								<parameterid>shape</parameterid>
								<name>Shape</name>
								<valuemin>1</valuemin>
								<valuemax>3</valuemax>
								<valuelist>
									<valueentry>
										<name>Rectangle</name>
										<value>1</value>
									</valueentry>
									<valueentry>
										<name>Oval</name>
										<value>2</value>
									</valueentry>
									<valueentry>
										<name>Custom</name>
										<value>3</value>
									</valueentry>
								</valuelist>
								<value>3</value>
							</parameter>
							<parameter>
								<parameterid>vblur</parameterid>
								<name>Feather</name>
								<valuemin>0</valuemin>
								<valuemax>100</valuemax>
								<value>49</value>
							</parameter>
							<parameter>
								<parameterid>vblend</parameterid>
								<name>Amount</name>
								<valuemin>0</valuemin>
								<valuemax>100</valuemax>
								<value>12</value>
							</parameter>
							<parameter>
								<parameterid>applyas</parameterid>
								<name>Mode</name>
								<valuemin>1</valuemin>
								<valuemax>7</valuemax>
								<valuelist>
									<valueentry>
										<name>Normal</name>
										<value>1</value>
									</valueentry>
									<valueentry>
										<name>Multiply</name>
										<value>2</value>
									</valueentry>
									<valueentry>
										<name>Screen</name>
										<value>3</value>
									</valueentry>
									<valueentry>
										<name>Overlay</name>
										<value>4</value>
									</valueentry>
									<valueentry>
										<name>Lighten</name>
										<value>5</value>
									</valueentry>
									<valueentry>
										<name>Darken</name>
										<value>6</value>
									</valueentry>
									<valueentry>
										<name>Add</name>
										<value>7</value>
									</valueentry>
								</valuelist>
								<value>2</value>
							</parameter>
							<parameter>
								<parameterid>hq</parameterid>
								<name>Dither</name>
								<valuemin>1</valuemin>
								<valuemax>4</valuemax>
								<valuelist>
									<valueentry>
										<name>Off</name>
										<value>1</value>
									</valueentry>
									<valueentry>
										<name>Minimum</name>
										<value>2</value>
									</valueentry>
									<valueentry>
										<name>Medium</name>
										<value>3</value>
									</valueentry>
									<valueentry>
										<name>Strong</name>
										<value>4</value>
									</valueentry>
								</valuelist>
								<value>1</value>
							</parameter>
							<parameter>
								<parameterid>inverse</parameterid>
								<name>Invert?</name>
								<value>FALSE</value>
							</parameter>
							<parameter>
								<parameterid>diagnostics</parameterid>
								<name>Show Helper Outline</name>
								<value>FALSE</value>
							</parameter>
							<parameter>
								<parameterid>maskstuff</parameterid>
								<name>Shape Controls</name>
								<value>string</value>
							</parameter>
							<parameter>
								<parameterid>maskpolycentre</parameterid>
								<name>Shape Centre</name>
								<value>
									<horiz>0</horiz>
									<vert>0</vert>
								</value>
							</parameter>
							<parameter>
								<parameterid>rotoffset</parameterid>
								<name>Rotation</name>
								<valuemin>-360</valuemin>
								<valuemax>360</valuemax>
								<value>0</value>
							</parameter>
							<parameter>
								<parameterid>thescale</parameterid>
								<name>Scale</name>
								<valuemin>1</valuemin>
								<valuemax>200</valuemax>
								<value>110</value>
							</parameter>
							<parameter>
								<parameterid>vaspect</parameterid>
								<name>Aspect</name>
								<valuemin>0.1</valuemin>
								<valuemax>10</valuemax>
								<value>1.38571</value>
							</parameter>
							<parameter>
								<parameterid>pathvar</parameterid>
								<name>Custom Shape Points</name>
								<value>string</value>
							</parameter>
							<parameter>
								<parameterid>editpoint</parameterid>
								<name>Point to Edit</name>
								<valuemin>1</valuemin>
								<valuemax>8</valuemax>
								<value>1</value>
							</parameter>
							<parameter>
								<parameterid>numpoints</parameterid>
								<name>Number of Points</name>
								<valuemin>3</valuemin>
								<valuemax>8</valuemax>
								<value>8</value>
							</parameter>
							<parameter>
								<parameterid>currentpoint</parameterid>
								<name>Current Point</name>
								<value>
									<horiz>0</horiz>
									<vert>0</vert>
								</value>
							</parameter>
							<parameter>
								<parameterid>pointsharp</parameterid>
								<name>Point Sharpness Toggle</name>
								<value>TRUE</value>
							</parameter>
							<parameter>
								<parameterid>blurvar</parameterid>
								<name>Blur Controls</name>
								<value>string</value>
							</parameter>
							<parameter>
								<parameterid>iblur</parameterid>
								<name>Image Blur</name>
								<valuemin>0</valuemin>
								<valuemax>100</valuemax>
								<value>0</value>
							</parameter>
							<parameter>
								<parameterid>sblur</parameterid>
								<name>Shape Blur</name>
								<valuemin>0</valuemin>
								<valuemax>100</valuemax>
								<value>8</value>
							</parameter>
							<parameter>
								<parameterid>copyright</parameterid>
								<name>© www.nattress.com</name>
								<value>string</value>
							</parameter>
						</effect>
					</filter>
					<filter>
						<enabled>FALSE</enabled>
						<start>-1</start>
						<end>-1</end>
						<effect>
							<name>G Bleach Bypass</name>
							<effectcategory>Nattress Film Effects - Image Effects</effectcategory>
							<effecttype>filter</effecttype>
							<mediatype>video</mediatype>
							<parameter>
								<parameterid>bleachamt</parameterid>
								<name>Bleach Effect Amount</name>
								<valuemin>0</valuemin>
								<valuemax>100</valuemax>
								<value>5</value>
							</parameter>
							<parameter>
								<parameterid>bleachwhiteamt</parameterid>
								<name>Over Exposure</name>
								<valuemin>0</valuemin>
								<valuemax>100</valuemax>
								<value>2</value>
							</parameter>
							<parameter>
								<parameterid>bleachsharpness</parameterid>
								<name>Bleach Sharpness</name>
								<valuemin>0</valuemin>
								<valuemax>100</valuemax>
								<value>13</value>
							</parameter>
							<parameter>
								<parameterid>bleachsaturation</parameterid>
								<name>Bleach Desaturation</name>
								<valuemin>0</valuemin>
								<valuemax>100</valuemax>
								<value>22</value>
							</parameter>
							<parameter>
								<parameterid>copyright</parameterid>
								<name>© www.nattress.com</name>
								<value>string</value>
							</parameter>
						</effect>
					</filter>
					<filter>
						<enabled>FALSE</enabled>
						<start>-1</start>
						<end>-1</end>
						<effect>
							<name>G Film Presets Explorer V2.5.1</name>
							<effectcategory>Nattress Film Effects - Presets</effectcategory>
							<effecttype>filter</effecttype>
							<mediatype>video</mediatype>
							<parameter>
								<parameterid>filmon</parameterid>
								<name>Frame Rate Processing</name>
								<value>FALSE</value>
							</parameter>
							<parameter>
								<parameterid>fpsselect</parameterid>
								<name>Film Frames Per Second (PAL in Brackets)</name>
								<valuemin>1</valuemin>
								<valuemax>4</valuemax>
								<valuelist>
									<valueentry>
										<name>30p (25p)</name>
										<value>1</value>
									</valueentry>
									<valueentry>
										<name>24p (20p)</name>
										<value>2</value>
									</valueentry>
									<valueentry>
										<name>15p (12.5p)</name>
										<value>3</value>
									</valueentry>
									<valueentry>
										<name>12p (10p)</name>
										<value>4</value>
									</valueentry>
								</valuelist>
								<value>2</value>
							</parameter>
							<parameter>
								<parameterid>sourcevar</parameterid>
								<name>Source Settings</name>
								<value>string</value>
							</parameter>
							<parameter>
								<parameterid>fieldorder</parameterid>
								<name>Media Field Order</name>
								<valuemin>1</valuemin>
								<valuemax>2</valuemax>
								<valuelist>
									<valueentry>
										<name>Upper</name>
										<value>1</value>
									</valueentry>
									<valueentry>
										<name>Lower</name>
										<value>2</value>
									</valueentry>
								</valuelist>
								<value>1</value>
							</parameter>
							<parameter>
								<parameterid>fieldorderout</parameterid>
								<name>Output Field Order</name>
								<valuemin>1</valuemin>
								<valuemax>2</valuemax>
								<valuelist>
									<valueentry>
										<name>Upper</name>
										<value>1</value>
									</valueentry>
									<valueentry>
										<name>Lower</name>
										<value>2</value>
									</valueentry>
								</valuelist>
								<value>1</value>
							</parameter>
							<parameter>
								<parameterid>fieldblend</parameterid>
								<name>Motion Blur</name>
								<valuemin>0</valuemin>
								<valuemax>100</valuemax>
								<value>100</value>
							</parameter>
							<parameter>
								<parameterid>tfsetvar</parameterid>
								<name>24p Settings</name>
								<value>string</value>
							</parameter>
							<parameter>
								<parameterid>blendtype</parameterid>
								<name>Blending Type</name>
								<valuemin>1</valuemin>
								<valuemax>4</valuemax>
								<valuelist>
									<valueentry>
										<name>1 Field</name>
										<value>1</value>
									</valueentry>
									<valueentry>
										<name>2 Field</name>
										<value>2</value>
									</valueentry>
									<valueentry>
										<name>3 Field</name>
										<value>3</value>
									</valueentry>
									<valueentry>
										<name>3 Field Var</name>
										<value>4</value>
									</valueentry>
								</valuelist>
								<value>2</value>
							</parameter>
							<parameter>
								<parameterid>pulldownpattern</parameterid>
								<name>Pulldown Pattern</name>
								<valuemin>1</valuemin>
								<valuemax>5</valuemax>
								<valuelist>
									<valueentry>
										<name>WWSSW</name>
										<value>1</value>
									</valueentry>
									<valueentry>
										<name>WWWSS</name>
										<value>2</value>
									</valueentry>
									<valueentry>
										<name>SWWWS</name>
										<value>3</value>
									</valueentry>
									<valueentry>
										<name>SSWWW</name>
										<value>4</value>
									</valueentry>
									<valueentry>
										<name>WSSWW</name>
										<value>5</value>
									</valueentry>
								</valuelist>
								<value>1</value>
							</parameter>
							<parameter>
								<parameterid>outtvar</parameterid>
								<name>Options</name>
								<value>string</value>
							</parameter>
							<parameter>
								<parameterid>antialias</parameterid>
								<name>Anti-Alias Amount</name>
								<valuemin>0</valuemin>
								<valuemax>100</valuemax>
								<value>0</value>
							</parameter>
							<parameter>
								<parameterid>smartd</parameterid>
								<name>De-Interlace Options</name>
								<valuemin>1</valuemin>
								<valuemax>3</valuemax>
								<valuelist>
									<valueentry>
										<name>Normal</name>
										<value>1</value>
									</valueentry>
									<valueentry>
										<name>Smart</name>
										<value>2</value>
									</valueentry>
									<valueentry>
										<name>View Smart Mask</name>
										<value>3</value>
									</valueentry>
								</valuelist>
								<value>2</value>
							</parameter>
							<parameter>
								<parameterid>temporalthreshold</parameterid>
								<name>Tolerance</name>
								<valuemin>2</valuemin>
								<valuemax>100</valuemax>
								<value>10</value>
							</parameter>
							<parameter>
								<parameterid>presetvar</parameterid>
								<name>Presets</name>
								<value>string</value>
							</parameter>
							<parameter>
								<parameterid>preset</parameterid>
								<name>Preset</name>
								<valuemin>1</valuemin>
								<valuemax>20</valuemax>
								<valuelist>
									<valueentry>
										<name>Basic</name>
										<value>1</value>
									</valueentry>
									<valueentry>
										<name>Basic Warm</name>
										<value>2</value>
									</valueentry>
									<valueentry>
										<name>Basic Cool</name>
										<value>3</value>
									</valueentry>
									<valueentry>
										<name>Basic Black &amp; White</name>
										<value>4</value>
									</valueentry>
									<valueentry>
										<name>Basic Bleach</name>
										<value>5</value>
									</valueentry>
									<valueentry>
										<name>Basic Sepia</name>
										<value>6</value>
									</valueentry>
									<valueentry>
										<name>Day For Night</name>
										<value>7</value>
									</valueentry>
									<valueentry>
										<name>Warm Diffusion</name>
										<value>8</value>
									</valueentry>
									<valueentry>
										<name>Old Projector</name>
										<value>9</value>
									</valueentry>
									<valueentry>
										<name>Basic Diffusion</name>
										<value>10</value>
									</valueentry>
									<valueentry>
										<name>Soft Diffusion</name>
										<value>11</value>
									</valueentry>
									<valueentry>
										<name>Cold Diffusion</name>
										<value>12</value>
									</valueentry>
									<valueentry>
										<name>Silent Film</name>
										<value>13</value>
									</valueentry>
									<valueentry>
										<name>Morning Mist</name>
										<value>14</value>
									</valueentry>
									<valueentry>
										<name>Comic</name>
										<value>15</value>
									</valueentry>
									<valueentry>
										<name>Brother</name>
										<value>16</value>
									</valueentry>
									<valueentry>
										<name>Hell</name>
										<value>17</value>
									</valueentry>
									<valueentry>
										<name>Green</name>
										<value>18</value>
									</valueentry>
									<valueentry>
										<name>Orange</name>
										<value>19</value>
									</valueentry>
									<valueentry>
										<name>Sky</name>
										<value>20</value>
									</valueentry>
								</valuelist>
								<value>16</value>
							</parameter>
							<parameter>
								<parameterid>overallvar</parameterid>
								<name>Master Control</name>
								<value>string</value>
							</parameter>
							<parameter>
								<parameterid>master</parameterid>
								<name>Master Effect Amount</name>
								<valuemin>0</valuemin>
								<valuemax>200</valuemax>
								<value>13</value>
							</parameter>
							<parameter>
								<parameterid>masterbrightness</parameterid>
								<name>Master Brightness</name>
								<valuemin>-1</valuemin>
								<valuemax>1</valuemax>
								<value>0</value>
							</parameter>
							<parameter>
								<parameterid>lvar</parameterid>
								<name>Curve Controls</name>
								<value>string</value>
							</parameter>
							<parameter>
								<parameterid>dither</parameterid>
								<name>Dither?</name>
								<value>FALSE</value>
							</parameter>
							<parameter>
								<parameterid>strongdither</parameterid>
								<name>Strong Dither?</name>
								<value>FALSE</value>
							</parameter>
							<parameter>
								<parameterid>cropvar</parameterid>
								<name>Cropping</name>
								<value>string</value>
							</parameter>
							<parameter>
								<parameterid>cropping</parameterid>
								<name>Output Cropping</name>
								<valuemin>1</valuemin>
								<valuemax>5</valuemax>
								<valuelist>
									<valueentry>
										<name>Full Image</name>
										<value>1</value>
									</valueentry>
									<valueentry>
										<name>Minimal</name>
										<value>2</value>
									</valueentry>
									<valueentry>
										<name>16x9</name>
										<value>3</value>
									</valueentry>
									<valueentry>
										<name>2.35:1</name>
										<value>4</value>
									</valueentry>
									<valueentry>
										<name>User Aspect</name>
										<value>5</value>
									</valueentry>
								</valuelist>
								<value>5</value>
							</parameter>
							<parameter>
								<parameterid>croppingshift</parameterid>
								<name>Cropping Shift</name>
								<valuemin>-100</valuemin>
								<valuemax>100</valuemax>
								<value>0</value>
							</parameter>
							<parameter>
								<parameterid>usercropping</parameterid>
								<name>User Aspect</name>
								<valuemin>1</valuemin>
								<valuemax>4</valuemax>
								<value>2.12987</value>
							</parameter>
							<parameter>
								<parameterid>copyright</parameterid>
								<name>© www.nattress.com</name>
								<value>string</value>
							</parameter>
						</effect>
					</filter>
					<filter>
						<effect>
							<name>Basic Motion</name>
							<effectid>basic</effectid>
							<effectcategory>motion</effectcategory>
							<effecttype>motion</effecttype>
							<mediatype>video</mediatype>
							<parameter>
								<parameterid>scale</parameterid>
								<name>Scale</name>
								<valuemin>0</valuemin>
								<valuemax>1000</valuemax>
								<value>100</value>
							</parameter>
							<parameter>
								<parameterid>rotation</parameterid>
								<name>Rotation</name>
								<valuemin>-8640</valuemin>
								<valuemax>8640</valuemax>
								<value>0</value>
							</parameter>
							<parameter>
								<parameterid>center</parameterid>
								<name>Center</name>
								<value>
									<horiz>0</horiz>
									<vert>0</vert>
								</value>
							</parameter>
							<parameter>
								<parameterid>centerOffset</parameterid>
								<name>Anchor Point</name>
								<value>
									<horiz>0</horiz>
									<vert>0</vert>
								</value>
							</parameter>
						</effect>
					</filter>
					<filter>
						<enabled>FALSE</enabled>
						<effect>
							<name>Drop Shadow</name>
							<effectid>dropshadow</effectid>
							<effectcategory>motion</effectcategory>
							<effecttype>motion</effecttype>
							<mediatype>video</mediatype>
							<parameter>
								<parameterid>offset</parameterid>
								<name>offset</name>
								<valuemin>-100</valuemin>
								<valuemax>100</valuemax>
								<value>2</value>
							</parameter>
							<parameter>
								<parameterid>angle</parameterid>
								<name>angle</name>
								<valuemin>-720</valuemin>
								<valuemax>720</valuemax>
								<value>135</value>
							</parameter>
							<parameter>
								<parameterid>color</parameterid>
								<name>color</name>
								<value>
									<alpha>0</alpha>
									<red>0</red>
									<green>0</green>
									<blue>0</blue>
								</value>
							</parameter>
							<parameter>
								<parameterid>softness</parameterid>
								<name>softness</name>
								<valuemin>0</valuemin>
								<valuemax>100</valuemax>
								<value>10</value>
							</parameter>
							<parameter>
								<parameterid>opacity</parameterid>
								<name>opacity</name>
								<valuemin>0</valuemin>
								<valuemax>100</valuemax>
								<value>50</value>
							</parameter>
						</effect>
					</filter>
					<filter>
						<enabled>FALSE</enabled>
						<effect>
							<name>Motion Blur</name>
							<effectid>motionblur</effectid>
							<effectcategory>motion</effectcategory>
							<effecttype>motion</effecttype>
							<mediatype>video</mediatype>
							<parameter>
								<parameterid>duration</parameterid>
								<name>% Blur</name>
								<valuemin>0</valuemin>
								<valuemax>1000</valuemax>
								<value>500</value>
							</parameter>
							<parameter>
								<parameterid>samples</parameterid>
								<name>Samples</name>
								<valuemin>1</valuemin>
								<valuemax>16</valuemax>
								<value>4</value>
							</parameter>
						</effect>
					</filter>
					<filter>
						<effect>
							<name>Crop</name>
							<effectid>crop</effectid>
							<effectcategory>motion</effectcategory>
							<effecttype>motion</effecttype>
							<mediatype>video</mediatype>
							<parameter>
								<parameterid>left</parameterid>
								<name>left</name>
								<valuemin>0</valuemin>
								<valuemax>100</valuemax>
								<value>0</value>
							</parameter>
							<parameter>
								<parameterid>right</parameterid>
								<name>right</name>
								<valuemin>0</valuemin>
								<valuemax>100</valuemax>
								<value>0</value>
							</parameter>
							<parameter>
								<parameterid>top</parameterid>
								<name>top</name>
								<valuemin>0</valuemin>
								<valuemax>100</valuemax>
								<value>0</value>
							</parameter>
							<parameter>
								<parameterid>bottom</parameterid>
								<name>bottom</name>
								<valuemin>0</valuemin>
								<valuemax>100</valuemax>
								<value>0</value>
							</parameter>
							<parameter>
								<parameterid>edgefeather</parameterid>
								<name>edgefeather</name>
								<valuemin>0</valuemin>
								<valuemax>100</valuemax>
								<value>0</value>
							</parameter>
						</effect>
					</filter>
					<filter>
						<effect>
							<name>Distort</name>
							<effectid>deformation</effectid>
							<effectcategory>motion</effectcategory>
							<effecttype>motion</effecttype>
							<mediatype>video</mediatype>
							<parameter>
								<parameterid>ulcorner</parameterid>
								<name>Upper Left</name>
								<value>
									<horiz>-0.5</horiz>
									<vert>-0.5</vert>
								</value>
							</parameter>
							<parameter>
								<parameterid>urcorner</parameterid>
								<name>Upper Right</name>
								<value>
									<horiz>0.5</horiz>
									<vert>-0.5</vert>
								</value>
							</parameter>
							<parameter>
								<parameterid>lrcorner</parameterid>
								<name>Lower Right</name>
								<value>
									<horiz>0.5</horiz>
									<vert>0.5</vert>
								</value>
							</parameter>
							<parameter>
								<parameterid>llcorner</parameterid>
								<name>Lower Left</name>
								<value>
									<horiz>-0.5</horiz>
									<vert>0.5</vert>
								</value>
							</parameter>
							<parameter>
								<parameterid>aspect</parameterid>
								<name>Aspect</name>
								<valuemin>-10000</valuemin>
								<valuemax>10000</valuemax>
								<value>0</value>
							</parameter>
						</effect>
					</filter>
					<filter>
						<effect>
							<name>Opacity</name>
							<effectid>opacity</effectid>
							<effectcategory>motion</effectcategory>
							<effecttype>motion</effecttype>
							<mediatype>video</mediatype>
							<parameter>
								<parameterid>opacity</parameterid>
								<name>opacity</name>
								<valuemin>0</valuemin>
								<valuemax>100</valuemax>
								<value>100</value>
							</parameter>
						</effect>
					</filter>
					<sourcetrack>
						<mediatype>video</mediatype>
					</sourcetrack>
					<fielddominance>upper</fielddominance>
					<itemhistory>
						<uuid>24AE3CC5-1852-47EA-88CC-1E525238D9DB</uuid>
					</itemhistory>
				</clipitem>
				<clipitem id="DYR18589_01 ">
					<name>DYR18589_01</name>
					<duration>1470</duration>
					<rate>
						<ntsc>FALSE</ntsc>
						<timebase>25</timebase>
					</rate>
					<in>197</in>
					<out>258</out>
					<start>24835</start>
					<end>24896</end>
					<pixelaspectratio>Square</pixelaspectratio>
					<enabled>TRUE</enabled>
					<anamorphic>FALSE</anamorphic>
					<alphatype>none</alphatype>
					<masterclipid>DYR18589_01 1</masterclipid>
					<logginginfo>
						<scene/>
						<shottake/>
						<lognote/>
						<good>FALSE</good>
					</logginginfo>
					<labels>
						<label2/>
					</labels>
					<comments>
						<mastercomment1/>
						<mastercomment2/>
						<mastercomment3/>
						<mastercomment4/>
					</comments>
					<file id="DYR18589_01 2">
						<name>DYR18589_01.mov</name>
						<pathurl>file://localhost/Volumes/Askepott/Prosjekter/DNPR637010_Kra%CC%8Akeklubben_TEM_011212/Video/MUSIKKVIDEO/Treet/DYR18589_01.mov</pathurl>
						<rate>
							<timebase>25</timebase>
						</rate>
						<duration>1470</duration>
						<metadata>
							<storage>QuickTime</storage>
							<key>com.sony.bprl.xdcamtransfer.version</key>
							<size>10</size>
							<type>UTF8</type>
							<value>2.12.0.631</value>
						</metadata>
						<metadata>
							<storage>QuickTime</storage>
							<key>org.smpte.mxf.package.material.packageid</key>
							<size>66</size>
							<type>UTF8</type>
							<value>0x060a2b340101010501010d4313000000103cf462615405d808004602022f05f5</value>
						</metadata>
						<metadata>
							<storage>QuickTime</storage>
							<key>com.sony.professionaldisc.nonrealtimemeta.lastupdate</key>
							<size>25</size>
							<type>UTF8</type>
							<value>2010-09-22 10:17:36 +0100</value>
						</metadata>
						<metadata>
							<storage>QuickTime</storage>
							<key>com.sony.bprl.mxf.umid</key>
							<size>64</size>
							<type>UTF8</type>
							<value>060a2b340101010501010d4313000000103cf462615405d808004602022f05f5</value>
						</metadata>
						<metadata>
							<storage>QuickTime</storage>
							<key>com.sony.bprl.mxf.nrtmetadata</key>
							<size>1994</size>
							<type>UTF8</type>
							<value>&lt;?xml version="1.0" encoding="UTF-8"?>&lt;NonRealTimeMeta xmlns="urn:schemas-professionalDisc:nonRealTimeMeta:ver.1.20" xmlns:lib="urn:schemas-professionalDisc:lib:ver.1.20" xmlns:xsi="http://www.w3.org/2001/XMLSchema-instance" lastUpdate="2010-09-22T10:17:36+01:00">&lt;TargetMaterial umidRef="060A2B340101010501010D4313000000103CF462615405D808004602022F05F5">&lt;/TargetMaterial>&lt;Duration value="1470">&lt;/Duration>&lt;LtcChangeTable tcFps="25" halfStep="false">&lt;LtcChange frameCount="0" value="07045012" status="increment">&lt;/LtcChange>&lt;LtcChange frameCount="1469" value="01035112" status="end">&lt;/LtcChange>&lt;/LtcChangeTable>&lt;CreationDate value="2010-09-22T10:16:36+01:00">&lt;/CreationDate>&lt;TypicalUbit value="0000000017061020">&lt;/TypicalUbit>&lt;BodyUmidBasicChangeTable>&lt;BodyUmidBasicChange frameCount="0" value="060A2B340101010501010D4333000000103CF462615405D808004602022F05F5" status="start">&lt;/BodyUmidBasicChange>&lt;/BodyUmidBasicChangeTable>&lt;BodyUmidWhenChangeTable>&lt;BodyUmidWhenChange frameCount="0" value="845D2F03615405A5" status="increment">&lt;/BodyUmidWhenChange>&lt;BodyUmidWhenChange frameCount="1469" value="C4CC3003615405A5" status="end">&lt;/BodyUmidWhenChange>&lt;/BodyUmidWhenChangeTable>&lt;KlvPacketTable>&lt;KlvPacket key="060E2B34010101050301020A02000000" frameCount="0" lengthValue="095F5265635374617274" status="spot">&lt;/KlvPacket>&lt;/KlvPacketTable>&lt;VideoFormat>&lt;VideoRecPort port="DIRECT">&lt;/VideoRecPort>&lt;VideoFrame videoCodec="MPEG2HD35_1920_1080_MP@HL" captureFps="50.00i" recFps="50.00" formatFps="50i">&lt;/VideoFrame>&lt;VideoLayout pixel="1920" numOfVerticalLine="1080" aspectRatio="16:9">&lt;/VideoLayout>&lt;/VideoFormat>&lt;AudioFormat numOfChannel="2">&lt;AudioRecPort port="DIRECT" audioCodec="LPCM16" trackDst="CH1">&lt;/AudioRecPort>&lt;AudioRecPort port="DIRECT" audioCodec="LPCM16" trackDst="CH2">&lt;/AudioRecPort>&lt;/AudioFormat>&lt;Device manufacturer="Sony" modelName="PMW-EX3" serialNo="0401525">&lt;/Device>&lt;Lens modelName="VCL-614B2X">&lt;/Lens>&lt;RecordingMode type="normal" cacheRec="false">&lt;/RecordingMode>&lt;/NonRealTimeMeta>
							</value>
						</metadata>
						<metadata>
							<storage>QuickTime</storage>
							<key>com.apple.proapps.reel</key>
							<size>8</size>
							<type>UTF8</type>
							<value>Untitled</value>
						</metadata>
						<metadata>
							<storage>QuickTime</storage>
							<key>com.apple.proapps.clipID</key>
							<size>64</size>
							<type>UTF8</type>
							<value>060A2B340101010501010D4313000000103CF462615405D808004602022F05F5</value>
						</metadata>
						<metadata>
							<storage>QuickTime</storage>
							<key>com.apple.quicktime.information</key>
							<size>64</size>
							<type>UTF8</type>
							<value>060a2b340101010501010d4313000000103cf462615405d808004602022f05f5</value>
						</metadata>
						<metadata>
							<storage>QuickTime</storage>
							<key>com.apple.proapps.originalFormat</key>
							<size>36</size>
							<type>UTF8</type>
							<value>Apple XDCAM EX 1080i50 (35 Mb/s VBR)</value>
						</metadata>
						<timecode>
							<rate>
								<timebase>25</timebase>
							</rate>
							<string>12:50:04:07</string>
							<frame>1155107</frame>
							<displayformat>NDF</displayformat>
							<source>source</source>
							<reel>
								<name>Untitled</name>
							</reel>
						</timecode>
						<media>
							<video>
								<duration>1470</duration>
								<samplecharacteristics>
									<width>1920</width>
									<height>1080</height>
								</samplecharacteristics>
							</video>
							<audio>
								<samplecharacteristics>
									<samplerate>48000</samplerate>
									<depth>16</depth>
								</samplecharacteristics>
								<channelcount>1</channelcount>
								<layout>mono</layout>
								<audiochannel>
									<sourcechannel>1</sourcechannel>
									<channellabel>discrete</channellabel>
								</audiochannel>
							</audio>
							<audio>
								<samplecharacteristics>
									<samplerate>48000</samplerate>
									<depth>16</depth>
								</samplecharacteristics>
								<channelcount>1</channelcount>
								<layout>mono</layout>
								<audiochannel>
									<sourcechannel>2</sourcechannel>
									<channellabel>discrete</channellabel>
								</audiochannel>
							</audio>
						</media>
					</file>
					<sourcetrack>
						<mediatype>video</mediatype>
					</sourcetrack>
					<fielddominance>upper</fielddominance>
					<itemhistory>
						<uuid>9AAEA4BE-4925-4BE8-9129-73BE92EBB117</uuid>
					</itemhistory>
				</clipitem>
				<clipitem id="DYR18585_01 ">
					<name>DYR18585_01</name>
					<duration>3851</duration>
					<rate>
						<ntsc>FALSE</ntsc>
						<timebase>25</timebase>
					</rate>
					<in>2109</in>
					<out>2144</out>
					<start>24896</start>
					<end>24931</end>
					<pixelaspectratio>Square</pixelaspectratio>
					<enabled>TRUE</enabled>
					<anamorphic>FALSE</anamorphic>
					<alphatype>none</alphatype>
					<masterclipid>DYR18585_01 1</masterclipid>
					<logginginfo>
						<scene/>
						<shottake/>
						<lognote/>
						<good>FALSE</good>
					</logginginfo>
					<labels>
						<label2/>
					</labels>
					<comments>
						<mastercomment1/>
						<mastercomment2/>
						<mastercomment3/>
						<mastercomment4/>
					</comments>
					<file id="DYR18585_01 2">
						<name>DYR18585_01.mov</name>
						<pathurl>file://localhost/Volumes/Askepott/Prosjekter/DNPR637010_Kra%CC%8Akeklubben_TEM_011212/Video/MUSIKKVIDEO/Treet/DYR18585_01.mov</pathurl>
						<rate>
							<timebase>25</timebase>
						</rate>
						<duration>3851</duration>
						<metadata>
							<storage>QuickTime</storage>
							<key>com.sony.bprl.xdcamtransfer.version</key>
							<size>10</size>
							<type>UTF8</type>
							<value>2.12.0.631</value>
						</metadata>
						<metadata>
							<storage>QuickTime</storage>
							<key>org.smpte.mxf.package.material.packageid</key>
							<size>66</size>
							<type>UTF8</type>
							<value>0x060a2b340101010501010d4313000000720a7b61615405dd08004602022f05f5</value>
						</metadata>
						<metadata>
							<storage>QuickTime</storage>
							<key>com.sony.professionaldisc.nonrealtimemeta.lastupdate</key>
							<size>25</size>
							<type>UTF8</type>
							<value>2010-09-22 10:10:54 +0100</value>
						</metadata>
						<metadata>
							<storage>QuickTime</storage>
							<key>com.sony.bprl.mxf.umid</key>
							<size>64</size>
							<type>UTF8</type>
							<value>060a2b340101010501010d4313000000720a7b61615405dd08004602022f05f5</value>
						</metadata>
						<metadata>
							<storage>QuickTime</storage>
							<key>com.sony.bprl.mxf.nrtmetadata</key>
							<size>1994</size>
							<type>UTF8</type>
							<value>&lt;?xml version="1.0" encoding="UTF-8"?>&lt;NonRealTimeMeta xmlns="urn:schemas-professionalDisc:nonRealTimeMeta:ver.1.20" xmlns:lib="urn:schemas-professionalDisc:lib:ver.1.20" xmlns:xsi="http://www.w3.org/2001/XMLSchema-instance" lastUpdate="2010-09-22T10:10:54+01:00">&lt;TargetMaterial umidRef="060A2B340101010501010D4313000000720A7B61615405DD08004602022F05F5">&lt;/TargetMaterial>&lt;Duration value="3851">&lt;/Duration>&lt;LtcChangeTable tcFps="25" halfStep="false">&lt;LtcChange frameCount="0" value="21454412" status="increment">&lt;/LtcChange>&lt;LtcChange frameCount="3850" value="21194712" status="end">&lt;/LtcChange>&lt;/LtcChangeTable>&lt;CreationDate value="2010-09-22T10:08:19+01:00">&lt;/CreationDate>&lt;TypicalUbit value="0000000017061020">&lt;/TypicalUbit>&lt;BodyUmidBasicChangeTable>&lt;BodyUmidBasicChange frameCount="0" value="060A2B340101010501010D4333000000720A7B61615405DD08004602022F05F5" status="start">&lt;/BodyUmidBasicChange>&lt;/BodyUmidBasicChangeTable>&lt;BodyUmidWhenChangeTable>&lt;BodyUmidWhenChange frameCount="0" value="84392303615405A5" status="increment">&lt;/BodyUmidWhenChange>&lt;BodyUmidWhenChange frameCount="3850" value="04FC2603615405A5" status="end">&lt;/BodyUmidWhenChange>&lt;/BodyUmidWhenChangeTable>&lt;KlvPacketTable>&lt;KlvPacket key="060E2B34010101050301020A02000000" frameCount="0" lengthValue="095F5265635374617274" status="spot">&lt;/KlvPacket>&lt;/KlvPacketTable>&lt;VideoFormat>&lt;VideoRecPort port="DIRECT">&lt;/VideoRecPort>&lt;VideoFrame videoCodec="MPEG2HD35_1920_1080_MP@HL" captureFps="50.00i" recFps="50.00" formatFps="50i">&lt;/VideoFrame>&lt;VideoLayout pixel="1920" numOfVerticalLine="1080" aspectRatio="16:9">&lt;/VideoLayout>&lt;/VideoFormat>&lt;AudioFormat numOfChannel="2">&lt;AudioRecPort port="DIRECT" audioCodec="LPCM16" trackDst="CH1">&lt;/AudioRecPort>&lt;AudioRecPort port="DIRECT" audioCodec="LPCM16" trackDst="CH2">&lt;/AudioRecPort>&lt;/AudioFormat>&lt;Device manufacturer="Sony" modelName="PMW-EX3" serialNo="0401525">&lt;/Device>&lt;Lens modelName="VCL-614B2X">&lt;/Lens>&lt;RecordingMode type="normal" cacheRec="false">&lt;/RecordingMode>&lt;/NonRealTimeMeta>
							</value>
						</metadata>
						<metadata>
							<storage>QuickTime</storage>
							<key>com.apple.proapps.reel</key>
							<size>8</size>
							<type>UTF8</type>
							<value>Untitled</value>
						</metadata>
						<metadata>
							<storage>QuickTime</storage>
							<key>com.apple.proapps.clipID</key>
							<size>64</size>
							<type>UTF8</type>
							<value>060A2B340101010501010D4313000000720A7B61615405DD08004602022F05F5</value>
						</metadata>
						<metadata>
							<storage>QuickTime</storage>
							<key>com.apple.quicktime.information</key>
							<size>64</size>
							<type>UTF8</type>
							<value>060a2b340101010501010d4313000000720a7b61615405dd08004602022f05f5</value>
						</metadata>
						<metadata>
							<storage>QuickTime</storage>
							<key>com.apple.proapps.originalFormat</key>
							<size>36</size>
							<type>UTF8</type>
							<value>Apple XDCAM EX 1080i50 (35 Mb/s VBR)</value>
						</metadata>
						<timecode>
							<rate>
								<timebase>25</timebase>
							</rate>
							<string>12:44:45:21</string>
							<frame>1147146</frame>
							<displayformat>NDF</displayformat>
							<source>source</source>
							<reel>
								<name>Untitled</name>
							</reel>
						</timecode>
						<media>
							<video>
								<duration>3851</duration>
								<samplecharacteristics>
									<width>1920</width>
									<height>1080</height>
								</samplecharacteristics>
							</video>
							<audio>
								<samplecharacteristics>
									<samplerate>48000</samplerate>
									<depth>16</depth>
								</samplecharacteristics>
								<channelcount>1</channelcount>
								<layout>mono</layout>
								<audiochannel>
									<sourcechannel>1</sourcechannel>
									<channellabel>discrete</channellabel>
								</audiochannel>
							</audio>
							<audio>
								<samplecharacteristics>
									<samplerate>48000</samplerate>
									<depth>16</depth>
								</samplecharacteristics>
								<channelcount>1</channelcount>
								<layout>mono</layout>
								<audiochannel>
									<sourcechannel>2</sourcechannel>
									<channellabel>discrete</channellabel>
								</audiochannel>
							</audio>
						</media>
					</file>
					<sourcetrack>
						<mediatype>video</mediatype>
					</sourcetrack>
					<fielddominance>upper</fielddominance>
					<itemhistory>
						<uuid>3C36E28D-FE97-4C1D-B158-31DB271F568D</uuid>
					</itemhistory>
				</clipitem>
				<clipitem id="DYR18581_01 ">
					<name>DYR18581_01</name>
					<duration>3831</duration>
					<rate>
						<ntsc>FALSE</ntsc>
						<timebase>25</timebase>
					</rate>
					<in>1060</in>
					<out>1134</out>
					<start>24931</start>
					<end>-1</end>
					<pixelaspectratio>Square</pixelaspectratio>
					<enabled>TRUE</enabled>
					<anamorphic>FALSE</anamorphic>
					<alphatype>none</alphatype>
					<masterclipid>DYR18581_01 1</masterclipid>
					<logginginfo>
						<scene/>
						<shottake/>
						<lognote/>
						<good>FALSE</good>
					</logginginfo>
					<labels>
						<label2/>
					</labels>
					<comments>
						<mastercomment1/>
						<mastercomment2/>
						<mastercomment3/>
						<mastercomment4/>
					</comments>
					<file id="DYR18581_01 2">
						<name>DYR18581_01.mov</name>
						<pathurl>file://localhost/Volumes/Askepott/Prosjekter/DNPR637010_Kra%CC%8Akeklubben_TEM_011212/Video/MUSIKKVIDEO/Treet/DYR18581_01.mov</pathurl>
						<rate>
							<timebase>25</timebase>
						</rate>
						<duration>3831</duration>
						<metadata>
							<storage>QuickTime</storage>
							<key>com.sony.bprl.xdcamtransfer.version</key>
							<size>10</size>
							<type>UTF8</type>
							<value>2.12.0.631</value>
						</metadata>
						<metadata>
							<storage>QuickTime</storage>
							<key>org.smpte.mxf.package.material.packageid</key>
							<size>66</size>
							<type>UTF8</type>
							<value>0x060a2b340101010501010d43130000002d274960615405d908004602022f05f5</value>
						</metadata>
						<metadata>
							<storage>QuickTime</storage>
							<key>com.sony.professionaldisc.nonrealtimemeta.lastupdate</key>
							<size>25</size>
							<type>UTF8</type>
							<value>2010-09-22 10:04:11 +0100</value>
						</metadata>
						<metadata>
							<storage>QuickTime</storage>
							<key>com.sony.bprl.mxf.umid</key>
							<size>64</size>
							<type>UTF8</type>
							<value>060a2b340101010501010d43130000002d274960615405d908004602022f05f5</value>
						</metadata>
						<metadata>
							<storage>QuickTime</storage>
							<key>com.sony.bprl.mxf.nrtmetadata</key>
							<size>1994</size>
							<type>UTF8</type>
							<value>&lt;?xml version="1.0" encoding="UTF-8"?>&lt;NonRealTimeMeta xmlns="urn:schemas-professionalDisc:nonRealTimeMeta:ver.1.20" xmlns:lib="urn:schemas-professionalDisc:lib:ver.1.20" xmlns:xsi="http://www.w3.org/2001/XMLSchema-instance" lastUpdate="2010-09-22T10:04:11+01:00">&lt;TargetMaterial umidRef="060A2B340101010501010D43130000002D274960615405D908004602022F05F5">&lt;/TargetMaterial>&lt;Duration value="3831">&lt;/Duration>&lt;LtcChangeTable tcFps="25" halfStep="false">&lt;LtcChange frameCount="0" value="09233912" status="increment">&lt;/LtcChange>&lt;LtcChange frameCount="3830" value="14564112" status="end">&lt;/LtcChange>&lt;/LtcChangeTable>&lt;CreationDate value="2010-09-22T10:01:36+01:00">&lt;/CreationDate>&lt;TypicalUbit value="0000000017061020">&lt;/TypicalUbit>&lt;BodyUmidBasicChangeTable>&lt;BodyUmidBasicChange frameCount="0" value="060A2B340101010501010D43330000002D274960615405D908004602022F05F5" status="start">&lt;/BodyUmidBasicChange>&lt;/BodyUmidBasicChangeTable>&lt;BodyUmidWhenChangeTable>&lt;BodyUmidWhenChange frameCount="0" value="04611903615405A5" status="increment">&lt;/BodyUmidWhenChange>&lt;BodyUmidWhenChange frameCount="3830" value="841E1D03615405A5" status="end">&lt;/BodyUmidWhenChange>&lt;/BodyUmidWhenChangeTable>&lt;KlvPacketTable>&lt;KlvPacket key="060E2B34010101050301020A02000000" frameCount="0" lengthValue="095F5265635374617274" status="spot">&lt;/KlvPacket>&lt;/KlvPacketTable>&lt;VideoFormat>&lt;VideoRecPort port="DIRECT">&lt;/VideoRecPort>&lt;VideoFrame videoCodec="MPEG2HD35_1920_1080_MP@HL" captureFps="50.00i" recFps="50.00" formatFps="50i">&lt;/VideoFrame>&lt;VideoLayout pixel="1920" numOfVerticalLine="1080" aspectRatio="16:9">&lt;/VideoLayout>&lt;/VideoFormat>&lt;AudioFormat numOfChannel="2">&lt;AudioRecPort port="DIRECT" audioCodec="LPCM16" trackDst="CH1">&lt;/AudioRecPort>&lt;AudioRecPort port="DIRECT" audioCodec="LPCM16" trackDst="CH2">&lt;/AudioRecPort>&lt;/AudioFormat>&lt;Device manufacturer="Sony" modelName="PMW-EX3" serialNo="0401525">&lt;/Device>&lt;Lens modelName="VCL-614B2X">&lt;/Lens>&lt;RecordingMode type="normal" cacheRec="false">&lt;/RecordingMode>&lt;/NonRealTimeMeta>
							</value>
						</metadata>
						<metadata>
							<storage>QuickTime</storage>
							<key>com.apple.proapps.reel</key>
							<size>8</size>
							<type>UTF8</type>
							<value>Untitled</value>
						</metadata>
						<metadata>
							<storage>QuickTime</storage>
							<key>com.apple.proapps.clipID</key>
							<size>64</size>
							<type>UTF8</type>
							<value>060A2B340101010501010D43130000002D274960615405D908004602022F05F5</value>
						</metadata>
						<metadata>
							<storage>QuickTime</storage>
							<key>com.apple.quicktime.information</key>
							<size>64</size>
							<type>UTF8</type>
							<value>060a2b340101010501010d43130000002d274960615405d908004602022f05f5</value>
						</metadata>
						<metadata>
							<storage>QuickTime</storage>
							<key>com.apple.proapps.originalFormat</key>
							<size>36</size>
							<type>UTF8</type>
							<value>Apple XDCAM EX 1080i50 (35 Mb/s VBR)</value>
						</metadata>
						<timecode>
							<rate>
								<timebase>25</timebase>
							</rate>
							<string>12:39:23:09</string>
							<frame>1139084</frame>
							<displayformat>NDF</displayformat>
							<source>source</source>
							<reel>
								<name>Untitled</name>
							</reel>
						</timecode>
						<media>
							<video>
								<duration>3831</duration>
								<samplecharacteristics>
									<width>1920</width>
									<height>1080</height>
								</samplecharacteristics>
							</video>
							<audio>
								<samplecharacteristics>
									<samplerate>48000</samplerate>
									<depth>16</depth>
								</samplecharacteristics>
								<channelcount>1</channelcount>
								<layout>mono</layout>
								<audiochannel>
									<sourcechannel>1</sourcechannel>
									<channellabel>discrete</channellabel>
								</audiochannel>
							</audio>
							<audio>
								<samplecharacteristics>
									<samplerate>48000</samplerate>
									<depth>16</depth>
								</samplecharacteristics>
								<channelcount>1</channelcount>
								<layout>mono</layout>
								<audiochannel>
									<sourcechannel>2</sourcechannel>
									<channellabel>discrete</channellabel>
								</audiochannel>
							</audio>
						</media>
					</file>
					<sourcetrack>
						<mediatype>video</mediatype>
					</sourcetrack>
					<fielddominance>upper</fielddominance>
					<itemhistory>
						<uuid>3F32851C-6777-4006-B541-2DD2CA2EB7E6</uuid>
					</itemhistory>
				</clipitem>
				<transitionitem>
					<rate>
						<ntsc>FALSE</ntsc>
						<timebase>25</timebase>
					</rate>
					<start>24980</start>
					<end>25005</end>
					<alignment>center</alignment>
					<effect>
						<name>G Lens FlareV2</name>
						<effectcategory>Nattress Big Box Of Tricks</effectcategory>
						<effecttype>transition</effecttype>
						<mediatype>video</mediatype>
						<startratio>0</startratio>
						<endratio>1</endratio>
						<reverse>FALSE</reverse>
						<parameter>
							<parameterid>dispvar1</parameterid>
							<name>Display Settings</name>
							<value>string</value>
						</parameter>
						<parameter>
							<parameterid>inputvar1</parameterid>
							<name>Flare Position</name>
							<value>string</value>
						</parameter>
						<parameter>
							<parameterid>theangle</parameterid>
							<name>Transition Direction</name>
							<valuemin>-360</valuemin>
							<valuemax>360</valuemax>
							<value>-77</value>
						</parameter>
						<parameter>
							<parameterid>transitionblendduration</parameterid>
							<name>Blend Duration</name>
							<valuemin>0</valuemin>
							<valuemax>100</valuemax>
							<value>50</value>
						</parameter>
						<parameter>
							<parameterid>settingsvar1</parameterid>
							<name>Flare Settings</name>
							<value>string</value>
						</parameter>
						<parameter>
							<parameterid>presets</parameterid>
							<name>Preset Select</name>
							<valuemin>1</valuemin>
							<valuemax>4</valuemax>
							<valuelist>
								<valueentry>
									<name>Custom Controls</name>
									<value>1</value>
								</valueentry>
								<valueentry>
									<name>Other End of the Rainbow</name>
									<value>2</value>
								</valueentry>
								<valueentry>
									<name>Photon</name>
									<value>3</value>
								</valueentry>
								<valueentry>
									<name>Gaudy</name>
									<value>4</value>
								</valueentry>
							</valuelist>
							<value>4</value>
						</parameter>
						<parameter>
							<parameterid>randomevolution</parameterid>
							<name>Randomness Evolution</name>
							<valuemin>0</valuemin>
							<valuemax>1</valuemax>
							<value>0.05</value>
						</parameter>
						<parameter>
							<parameterid>flareaspect</parameterid>
							<name>Aspect</name>
							<valuemin>0.1</valuemin>
							<valuemax>10</valuemax>
							<value>1</value>
						</parameter>
						<parameter>
							<parameterid>flareintensity</parameterid>
							<name>Overall Intensity</name>
							<valuemin>0</valuemin>
							<valuemax>400</valuemax>
							<value>300</value>
						</parameter>
						<parameter>
							<parameterid>therandomseed</parameterid>
							<name>Random Seed</name>
							<valuemin>0</valuemin>
							<valuemax>100</valuemax>
							<value>100</value>
						</parameter>
						<parameter>
							<parameterid>settingsvar2</parameterid>
							<name>   Bloom</name>
							<value>string</value>
						</parameter>
						<parameter>
							<parameterid>bloomon</parameterid>
							<name>Bloom On?</name>
							<value>TRUE</value>
						</parameter>
						<parameter>
							<parameterid>bloomcolour</parameterid>
							<name>Bloom Colour</name>
							<value>
								<alpha>255</alpha>
								<red>218</red>
								<green>224</green>
								<blue>254</blue>
							</value>
						</parameter>
						<parameter>
							<parameterid>bloomcolourfromimage</parameterid>
							<name>Use Image for Bloom Colour?</name>
							<value>FALSE</value>
						</parameter>
						<parameter>
							<parameterid>bloomintensity</parameterid>
							<name>Intensity</name>
							<valuemin>0</valuemin>
							<valuemax>100</valuemax>
							<value>90</value>
						</parameter>
						<parameter>
							<parameterid>bloomradius</parameterid>
							<name>Radius</name>
							<valuemin>0</valuemin>
							<valuemax>200</valuemax>
							<value>45</value>
						</parameter>
						<parameter>
							<parameterid>bloomfalloff</parameterid>
							<name>Fall Off</name>
							<valuemin>0</valuemin>
							<valuemax>100</valuemax>
							<value>75</value>
						</parameter>
						<parameter>
							<parameterid>bloomstarry</parameterid>
							<name>Starry</name>
							<valuemin>0</valuemin>
							<valuemax>100</valuemax>
							<value>10</value>
						</parameter>
						<parameter>
							<parameterid>bloomstarpoints</parameterid>
							<name>Star Points</name>
							<valuemin>0</valuemin>
							<valuemax>100</valuemax>
							<value>7</value>
						</parameter>
						<parameter>
							<parameterid>settingsvar3</parameterid>
							<name>   StarBurst</name>
							<value>string</value>
						</parameter>
						<parameter>
							<parameterid>starburston</parameterid>
							<name>StarBurst On?</name>
							<value>TRUE</value>
						</parameter>
						<parameter>
							<parameterid>starburstcolour</parameterid>
							<name>StarBurst Colour</name>
							<value>
								<alpha>255</alpha>
								<red>254</red>
								<green>224</green>
								<blue>218</blue>
							</value>
						</parameter>
						<parameter>
							<parameterid>starburstintensity</parameterid>
							<name>Intensity</name>
							<valuemin>0</valuemin>
							<valuemax>100</valuemax>
							<value>75</value>
						</parameter>
						<parameter>
							<parameterid>starburstradius</parameterid>
							<name>Radius</name>
							<valuemin>0</valuemin>
							<valuemax>150</valuemax>
							<value>75</value>
						</parameter>
						<parameter>
							<parameterid>starburststarpoints</parameterid>
							<name>Star Points</name>
							<valuemin>0</valuemin>
							<valuemax>200</valuemax>
							<value>90</value>
						</parameter>
						<parameter>
							<parameterid>starcentre</parameterid>
							<name>Centre Size</name>
							<valuemin>0</valuemin>
							<valuemax>100</valuemax>
							<value>75</value>
						</parameter>
						<parameter>
							<parameterid>starfalloff</parameterid>
							<name>Fall Off</name>
							<valuemin>0</valuemin>
							<valuemax>100</valuemax>
							<value>75</value>
						</parameter>
						<parameter>
							<parameterid>starburstrandom</parameterid>
							<name>Randomness</name>
							<valuemin>0</valuemin>
							<valuemax>4</valuemax>
							<value>0.4</value>
						</parameter>
						<parameter>
							<parameterid>settingsvar4</parameterid>
							<name>   Rainbow</name>
							<value>string</value>
						</parameter>
						<parameter>
							<parameterid>rainbowon</parameterid>
							<name>Rainbow On?</name>
							<value>TRUE</value>
						</parameter>
						<parameter>
							<parameterid>rainbowcolors</parameterid>
							<name>Colour Type</name>
							<valuemin>1</valuemin>
							<valuemax>2</valuemax>
							<valuelist>
								<valueentry>
									<name>Rainbow</name>
									<value>1</value>
								</valueentry>
								<valueentry>
									<name>User Colour</name>
									<value>2</value>
								</valueentry>
							</valuelist>
							<value>1</value>
						</parameter>
						<parameter>
							<parameterid>rainbowusercolor</parameterid>
							<name>User Colour</name>
							<value>
								<alpha>255</alpha>
								<red>230</red>
								<green>110</green>
								<blue>22</blue>
							</value>
						</parameter>
						<parameter>
							<parameterid>rainbowposition</parameterid>
							<name>Position</name>
							<valuemin>-200</valuemin>
							<valuemax>200</valuemax>
							<value>100</value>
						</parameter>
						<parameter>
							<parameterid>rainbowintensity</parameterid>
							<name>Intensity</name>
							<valuemin>0</valuemin>
							<valuemax>100</valuemax>
							<value>20</value>
						</parameter>
						<parameter>
							<parameterid>rainbowradius</parameterid>
							<name>Radius</name>
							<valuemin>0</valuemin>
							<valuemax>200</valuemax>
							<value>50</value>
						</parameter>
						<parameter>
							<parameterid>rainbowthickness</parameterid>
							<name>Thickness</name>
							<valuemin>0</valuemin>
							<valuemax>1</valuemax>
							<value>0.15</value>
						</parameter>
						<parameter>
							<parameterid>rainbowsharpness</parameterid>
							<name>Sharpness</name>
							<valuemin>0</valuemin>
							<valuemax>1</valuemax>
							<value>0.65</value>
						</parameter>
						<parameter>
							<parameterid>settingsvar5</parameterid>
							<name>   Spots</name>
							<value>string</value>
						</parameter>
						<parameter>
							<parameterid>spotson</parameterid>
							<name>Spots On?</name>
							<value>TRUE</value>
						</parameter>
						<parameter>
							<parameterid>spotsnumber</parameterid>
							<name>Number</name>
							<valuemin>0</valuemin>
							<valuemax>100</valuemax>
							<value>12</value>
						</parameter>
						<parameter>
							<parameterid>spotsintensity</parameterid>
							<name>Intensity</name>
							<valuemin>0</valuemin>
							<valuemax>100</valuemax>
							<value>80</value>
						</parameter>
						<parameter>
							<parameterid>spotsradius</parameterid>
							<name>Radius</name>
							<valuemin>0</valuemin>
							<valuemax>150</valuemax>
							<value>30</value>
						</parameter>
						<parameter>
							<parameterid>spotsdisky</parameterid>
							<name>Disky</name>
							<valuemin>0</valuemin>
							<valuemax>100</valuemax>
							<value>75</value>
						</parameter>
						<parameter>
							<parameterid>spotsringy</parameterid>
							<name>Ringy</name>
							<valuemin>0</valuemin>
							<valuemax>100</valuemax>
							<value>75</value>
						</parameter>
						<parameter>
							<parameterid>spotsblotty</parameterid>
							<name>Blotty</name>
							<valuemin>0</valuemin>
							<valuemax>100</valuemax>
							<value>75</value>
						</parameter>
						<parameter>
							<parameterid>spotsbloony</parameterid>
							<name>Bloony</name>
							<valuemin>0</valuemin>
							<valuemax>100</valuemax>
							<value>75</value>
						</parameter>
						<parameter>
							<parameterid>spotsvarycolour</parameterid>
							<name>Vary Colour</name>
							<valuemin>0</valuemin>
							<valuemax>100</valuemax>
							<value>31</value>
						</parameter>
						<parameter>
							<parameterid>spotsbasehue</parameterid>
							<name>Base Hue</name>
							<valuemin>0</valuemin>
							<valuemax>100</valuemax>
							<value>72</value>
						</parameter>
						<parameter>
							<parameterid>spotssaturation</parameterid>
							<name>Saturation</name>
							<valuemin>0</valuemin>
							<valuemax>100</valuemax>
							<value>20</value>
						</parameter>
						<parameter>
							<parameterid>copyright</parameterid>
							<name>©www.nattress.com</name>
							<value>string</value>
						</parameter>
					</effect>
				</transitionitem>
				<clipitem id="DYR18632_01 ">
					<name>DYR18632_01</name>
					<duration>370</duration>
					<rate>
						<ntsc>FALSE</ntsc>
						<timebase>25</timebase>
					</rate>
					<in>59</in>
					<out>139</out>
					<start>-1</start>
					<end>25060</end>
					<pixelaspectratio>Square</pixelaspectratio>
					<enabled>TRUE</enabled>
					<anamorphic>FALSE</anamorphic>
					<alphatype>none</alphatype>
					<masterclipid>DYR18632_01 1</masterclipid>
					<logginginfo>
						<scene/>
						<shottake/>
						<lognote/>
						<good>FALSE</good>
					</logginginfo>
					<labels>
						<label2/>
					</labels>
					<comments>
						<mastercomment1/>
						<mastercomment2/>
						<mastercomment3/>
						<mastercomment4/>
					</comments>
					<file id="DYR18632_01 2">
						<name>DYR18632_01.mov</name>
						<pathurl>file://localhost/Volumes/Askepott/Prosjekter/DNPR637010_Kra%CC%8Akeklubben_TEM_011212/Video/MUSIKKVIDEO/Treet/DYR18632_01.mov</pathurl>
						<rate>
							<timebase>25</timebase>
						</rate>
						<duration>370</duration>
						<metadata>
							<storage>QuickTime</storage>
							<key>com.sony.bprl.xdcamtransfer.version</key>
							<size>10</size>
							<type>UTF8</type>
							<value>2.12.0.631</value>
						</metadata>
						<metadata>
							<storage>QuickTime</storage>
							<key>org.smpte.mxf.package.material.packageid</key>
							<size>66</size>
							<type>UTF8</type>
							<value>0x060a2b340101010501010d4313000000019c8a79615405df08004602022f05f5</value>
						</metadata>
						<metadata>
							<storage>QuickTime</storage>
							<key>com.sony.professionaldisc.nonrealtimemeta.lastupdate</key>
							<size>25</size>
							<type>UTF8</type>
							<value>2010-09-22 12:23:56 +0100</value>
						</metadata>
						<metadata>
							<storage>QuickTime</storage>
							<key>com.sony.bprl.mxf.umid</key>
							<size>64</size>
							<type>UTF8</type>
							<value>060a2b340101010501010d4313000000019c8a79615405df08004602022f05f5</value>
						</metadata>
						<metadata>
							<storage>QuickTime</storage>
							<key>com.sony.bprl.mxf.nrtmetadata</key>
							<size>1991</size>
							<type>UTF8</type>
							<value>&lt;?xml version="1.0" encoding="UTF-8"?>&lt;NonRealTimeMeta xmlns="urn:schemas-professionalDisc:nonRealTimeMeta:ver.1.20" xmlns:lib="urn:schemas-professionalDisc:lib:ver.1.20" xmlns:xsi="http://www.w3.org/2001/XMLSchema-instance" lastUpdate="2010-09-22T12:23:56+01:00">&lt;TargetMaterial umidRef="060A2B340101010501010D4313000000019C8A79615405DF08004602022F05F5">&lt;/TargetMaterial>&lt;Duration value="370">&lt;/Duration>&lt;LtcChangeTable tcFps="25" halfStep="false">&lt;LtcChange frameCount="0" value="17140813" status="increment">&lt;/LtcChange>&lt;LtcChange frameCount="369" value="11290813" status="end">&lt;/LtcChange>&lt;/LtcChangeTable>&lt;CreationDate value="2010-09-22T12:23:40+01:00">&lt;/CreationDate>&lt;TypicalUbit value="0000000017061020">&lt;/TypicalUbit>&lt;BodyUmidBasicChangeTable>&lt;BodyUmidBasicChange frameCount="0" value="060A2B340101010501010D4333000000019C8A79615405DF08004602022F05F5" status="start">&lt;/BodyUmidBasicChange>&lt;/BodyUmidBasicChangeTable>&lt;BodyUmidWhenChangeTable>&lt;BodyUmidWhenChange frameCount="0" value="047BE903615405A5" status="increment">&lt;/BodyUmidWhenChange>&lt;BodyUmidWhenChange frameCount="369" value="44D7E903615405A5" status="end">&lt;/BodyUmidWhenChange>&lt;/BodyUmidWhenChangeTable>&lt;KlvPacketTable>&lt;KlvPacket key="060E2B34010101050301020A02000000" frameCount="0" lengthValue="095F5265635374617274" status="spot">&lt;/KlvPacket>&lt;/KlvPacketTable>&lt;VideoFormat>&lt;VideoRecPort port="DIRECT">&lt;/VideoRecPort>&lt;VideoFrame videoCodec="MPEG2HD35_1920_1080_MP@HL" captureFps="50.00i" recFps="50.00" formatFps="50i">&lt;/VideoFrame>&lt;VideoLayout pixel="1920" numOfVerticalLine="1080" aspectRatio="16:9">&lt;/VideoLayout>&lt;/VideoFormat>&lt;AudioFormat numOfChannel="2">&lt;AudioRecPort port="DIRECT" audioCodec="LPCM16" trackDst="CH1">&lt;/AudioRecPort>&lt;AudioRecPort port="DIRECT" audioCodec="LPCM16" trackDst="CH2">&lt;/AudioRecPort>&lt;/AudioFormat>&lt;Device manufacturer="Sony" modelName="PMW-EX3" serialNo="0401525">&lt;/Device>&lt;Lens modelName="VCL-614B2X">&lt;/Lens>&lt;RecordingMode type="normal" cacheRec="false">&lt;/RecordingMode>&lt;/NonRealTimeMeta>
							</value>
						</metadata>
						<metadata>
							<storage>QuickTime</storage>
							<key>com.apple.proapps.reel</key>
							<size>8</size>
							<type>UTF8</type>
							<value>Untitled</value>
						</metadata>
						<metadata>
							<storage>QuickTime</storage>
							<key>com.apple.proapps.clipID</key>
							<size>64</size>
							<type>UTF8</type>
							<value>060A2B340101010501010D4313000000019C8A79615405DF08004602022F05F5</value>
						</metadata>
						<metadata>
							<storage>QuickTime</storage>
							<key>com.apple.quicktime.information</key>
							<size>64</size>
							<type>UTF8</type>
							<value>060a2b340101010501010d4313000000019c8a79615405df08004602022f05f5</value>
						</metadata>
						<metadata>
							<storage>QuickTime</storage>
							<key>com.apple.proapps.originalFormat</key>
							<size>36</size>
							<type>UTF8</type>
							<value>Apple XDCAM EX 1080i50 (35 Mb/s VBR)</value>
						</metadata>
						<timecode>
							<rate>
								<timebase>25</timebase>
							</rate>
							<string>13:08:14:17</string>
							<frame>1182367</frame>
							<displayformat>NDF</displayformat>
							<source>source</source>
							<reel>
								<name>Untitled</name>
							</reel>
						</timecode>
						<media>
							<video>
								<duration>370</duration>
								<samplecharacteristics>
									<width>1920</width>
									<height>1080</height>
								</samplecharacteristics>
							</video>
							<audio>
								<samplecharacteristics>
									<samplerate>48000</samplerate>
									<depth>16</depth>
								</samplecharacteristics>
								<channelcount>1</channelcount>
								<layout>mono</layout>
								<audiochannel>
									<sourcechannel>1</sourcechannel>
									<channellabel>discrete</channellabel>
								</audiochannel>
							</audio>
							<audio>
								<samplecharacteristics>
									<samplerate>48000</samplerate>
									<depth>16</depth>
								</samplecharacteristics>
								<channelcount>1</channelcount>
								<layout>mono</layout>
								<audiochannel>
									<sourcechannel>2</sourcechannel>
									<channellabel>discrete</channellabel>
								</audiochannel>
							</audio>
						</media>
					</file>
					<sourcetrack>
						<mediatype>video</mediatype>
					</sourcetrack>
					<fielddominance>upper</fielddominance>
					<itemhistory>
						<uuid>B593F5A1-F0CA-4457-8AE5-65B2E97DD260</uuid>
					</itemhistory>
				</clipitem>
				<clipitem id="DYR18620_01 ">
					<name>DYR18620_01</name>
					<duration>255</duration>
					<rate>
						<ntsc>FALSE</ntsc>
						<timebase>25</timebase>
					</rate>
					<in>95</in>
					<out>184</out>
					<start>25060</start>
					<end>25149</end>
					<pixelaspectratio>Square</pixelaspectratio>
					<enabled>TRUE</enabled>
					<anamorphic>FALSE</anamorphic>
					<alphatype>none</alphatype>
					<masterclipid>DYR18620_01 1</masterclipid>
					<logginginfo>
						<scene/>
						<shottake/>
						<lognote/>
						<good>FALSE</good>
					</logginginfo>
					<labels>
						<label2/>
					</labels>
					<comments>
						<mastercomment1/>
						<mastercomment2/>
						<mastercomment3/>
						<mastercomment4/>
					</comments>
					<file id="DYR18620_01 2">
						<name>DYR18620_01.mov</name>
						<pathurl>file://localhost/Volumes/Askepott/Prosjekter/DNPR637010_Kra%CC%8Akeklubben_TEM_011212/Video/MUSIKKVIDEO/Treet/DYR18620_01.mov</pathurl>
						<rate>
							<timebase>25</timebase>
						</rate>
						<duration>255</duration>
						<metadata>
							<storage>QuickTime</storage>
							<key>com.sony.bprl.xdcamtransfer.version</key>
							<size>10</size>
							<type>UTF8</type>
							<value>2.12.0.631</value>
						</metadata>
						<metadata>
							<storage>QuickTime</storage>
							<key>org.smpte.mxf.package.material.packageid</key>
							<size>66</size>
							<type>UTF8</type>
							<value>0x060a2b340101010501010d431300000038ab3075615405cb08004602022f05f5</value>
						</metadata>
						<metadata>
							<storage>QuickTime</storage>
							<key>com.sony.professionaldisc.nonrealtimemeta.lastupdate</key>
							<size>25</size>
							<type>UTF8</type>
							<value>2010-09-22 11:59:22 +0100</value>
						</metadata>
						<metadata>
							<storage>QuickTime</storage>
							<key>com.sony.bprl.mxf.umid</key>
							<size>64</size>
							<type>UTF8</type>
							<value>060a2b340101010501010d431300000038ab3075615405cb08004602022f05f5</value>
						</metadata>
						<metadata>
							<storage>QuickTime</storage>
							<key>com.sony.bprl.mxf.nrtmetadata</key>
							<size>1991</size>
							<type>UTF8</type>
							<value>&lt;?xml version="1.0" encoding="UTF-8"?>&lt;NonRealTimeMeta xmlns="urn:schemas-professionalDisc:nonRealTimeMeta:ver.1.20" xmlns:lib="urn:schemas-professionalDisc:lib:ver.1.20" xmlns:xsi="http://www.w3.org/2001/XMLSchema-instance" lastUpdate="2010-09-22T11:59:22+01:00">&lt;TargetMaterial umidRef="060A2B340101010501010D431300000038AB3075615405CB08004602022F05F5">&lt;/TargetMaterial>&lt;Duration value="255">&lt;/Duration>&lt;LtcChangeTable tcFps="25" halfStep="false">&lt;LtcChange frameCount="0" value="05200113" status="increment">&lt;/LtcChange>&lt;LtcChange frameCount="254" value="09300113" status="end">&lt;/LtcChange>&lt;/LtcChangeTable>&lt;CreationDate value="2010-09-22T11:59:11+01:00">&lt;/CreationDate>&lt;TypicalUbit value="0000000017061020">&lt;/TypicalUbit>&lt;BodyUmidBasicChangeTable>&lt;BodyUmidBasicChange frameCount="0" value="060A2B340101010501010D433300000038AB3075615405CB08004602022F05F5" status="start">&lt;/BodyUmidBasicChange>&lt;/BodyUmidBasicChangeTable>&lt;BodyUmidWhenChangeTable>&lt;BodyUmidWhenChange frameCount="0" value="04A0C503615405A5" status="increment">&lt;/BodyUmidWhenChange>&lt;BodyUmidWhenChange frameCount="254" value="84DFC503615405A5" status="end">&lt;/BodyUmidWhenChange>&lt;/BodyUmidWhenChangeTable>&lt;KlvPacketTable>&lt;KlvPacket key="060E2B34010101050301020A02000000" frameCount="0" lengthValue="095F5265635374617274" status="spot">&lt;/KlvPacket>&lt;/KlvPacketTable>&lt;VideoFormat>&lt;VideoRecPort port="DIRECT">&lt;/VideoRecPort>&lt;VideoFrame videoCodec="MPEG2HD35_1920_1080_MP@HL" captureFps="50.00i" recFps="50.00" formatFps="50i">&lt;/VideoFrame>&lt;VideoLayout pixel="1920" numOfVerticalLine="1080" aspectRatio="16:9">&lt;/VideoLayout>&lt;/VideoFormat>&lt;AudioFormat numOfChannel="2">&lt;AudioRecPort port="DIRECT" audioCodec="LPCM16" trackDst="CH1">&lt;/AudioRecPort>&lt;AudioRecPort port="DIRECT" audioCodec="LPCM16" trackDst="CH2">&lt;/AudioRecPort>&lt;/AudioFormat>&lt;Device manufacturer="Sony" modelName="PMW-EX3" serialNo="0401525">&lt;/Device>&lt;Lens modelName="VCL-614B2X">&lt;/Lens>&lt;RecordingMode type="normal" cacheRec="false">&lt;/RecordingMode>&lt;/NonRealTimeMeta>
							</value>
						</metadata>
						<metadata>
							<storage>QuickTime</storage>
							<key>com.apple.proapps.reel</key>
							<size>8</size>
							<type>UTF8</type>
							<value>Untitled</value>
						</metadata>
						<metadata>
							<storage>QuickTime</storage>
							<key>com.apple.proapps.clipID</key>
							<size>64</size>
							<type>UTF8</type>
							<value>060A2B340101010501010D431300000038AB3075615405CB08004602022F05F5</value>
						</metadata>
						<metadata>
							<storage>QuickTime</storage>
							<key>com.apple.quicktime.information</key>
							<size>64</size>
							<type>UTF8</type>
							<value>060a2b340101010501010d431300000038ab3075615405cb08004602022f05f5</value>
						</metadata>
						<metadata>
							<storage>QuickTime</storage>
							<key>com.apple.proapps.originalFormat</key>
							<size>36</size>
							<type>UTF8</type>
							<value>Apple XDCAM EX 1080i50 (35 Mb/s VBR)</value>
						</metadata>
						<timecode>
							<rate>
								<timebase>25</timebase>
							</rate>
							<string>13:01:20:05</string>
							<frame>1172005</frame>
							<displayformat>NDF</displayformat>
							<source>source</source>
							<reel>
								<name>Untitled</name>
							</reel>
						</timecode>
						<media>
							<video>
								<duration>255</duration>
								<samplecharacteristics>
									<width>1920</width>
									<height>1080</height>
								</samplecharacteristics>
							</video>
							<audio>
								<samplecharacteristics>
									<samplerate>48000</samplerate>
									<depth>16</depth>
								</samplecharacteristics>
								<channelcount>1</channelcount>
								<layout>mono</layout>
								<audiochannel>
									<sourcechannel>1</sourcechannel>
									<channellabel>discrete</channellabel>
								</audiochannel>
							</audio>
							<audio>
								<samplecharacteristics>
									<samplerate>48000</samplerate>
									<depth>16</depth>
								</samplecharacteristics>
								<channelcount>1</channelcount>
								<layout>mono</layout>
								<audiochannel>
									<sourcechannel>2</sourcechannel>
									<channellabel>discrete</channellabel>
								</audiochannel>
							</audio>
						</media>
					</file>
					<sourcetrack>
						<mediatype>video</mediatype>
					</sourcetrack>
					<fielddominance>upper</fielddominance>
					<itemhistory>
						<uuid>EC3C82C8-C2BD-4170-A713-9C5076EE78C1</uuid>
					</itemhistory>
				</clipitem>
				<clipitem id="DYR18629_01 ">
					<name>DYR18629_01</name>
					<duration>2388</duration>
					<rate>
						<ntsc>FALSE</ntsc>
						<timebase>25</timebase>
					</rate>
					<in>2118</in>
					<out>2203</out>
					<start>25149</start>
					<end>25234</end>
					<pixelaspectratio>Square</pixelaspectratio>
					<enabled>TRUE</enabled>
					<anamorphic>FALSE</anamorphic>
					<alphatype>none</alphatype>
					<masterclipid>DYR18629_01 1</masterclipid>
					<logginginfo>
						<scene/>
						<shottake/>
						<lognote/>
						<good>FALSE</good>
					</logginginfo>
					<labels>
						<label2/>
					</labels>
					<comments>
						<mastercomment1/>
						<mastercomment2/>
						<mastercomment3/>
						<mastercomment4/>
					</comments>
					<file id="DYR18629_01 2">
						<name>DYR18629_01.mov</name>
						<pathurl>file://localhost/Volumes/Askepott/Prosjekter/DNPR637010_Kra%CC%8Akeklubben_TEM_011212/Video/MUSIKKVIDEO/Treet/DYR18629_01.mov</pathurl>
						<rate>
							<timebase>25</timebase>
						</rate>
						<duration>2388</duration>
						<metadata>
							<storage>QuickTime</storage>
							<key>com.sony.bprl.xdcamtransfer.version</key>
							<size>10</size>
							<type>UTF8</type>
							<value>2.12.0.631</value>
						</metadata>
						<metadata>
							<storage>QuickTime</storage>
							<key>org.smpte.mxf.package.material.packageid</key>
							<size>66</size>
							<type>UTF8</type>
							<value>0x060a2b340101010501010d431300000056f7b078615405d508004602022f05f5</value>
						</metadata>
						<metadata>
							<storage>QuickTime</storage>
							<key>com.sony.professionaldisc.nonrealtimemeta.lastupdate</key>
							<size>25</size>
							<type>UTF8</type>
							<value>2010-09-22 12:20:29 +0100</value>
						</metadata>
						<metadata>
							<storage>QuickTime</storage>
							<key>com.sony.bprl.mxf.umid</key>
							<size>64</size>
							<type>UTF8</type>
							<value>060a2b340101010501010d431300000056f7b078615405d508004602022f05f5</value>
						</metadata>
						<metadata>
							<storage>QuickTime</storage>
							<key>com.sony.bprl.mxf.nrtmetadata</key>
							<size>1994</size>
							<type>UTF8</type>
							<value>&lt;?xml version="1.0" encoding="UTF-8"?>&lt;NonRealTimeMeta xmlns="urn:schemas-professionalDisc:nonRealTimeMeta:ver.1.20" xmlns:lib="urn:schemas-professionalDisc:lib:ver.1.20" xmlns:xsi="http://www.w3.org/2001/XMLSchema-instance" lastUpdate="2010-09-22T12:20:29+01:00">&lt;TargetMaterial umidRef="060A2B340101010501010D431300000056F7B078615405D508004602022F05F5">&lt;/TargetMaterial>&lt;Duration value="2388">&lt;/Duration>&lt;LtcChangeTable tcFps="25" halfStep="false">&lt;LtcChange frameCount="0" value="14170513" status="increment">&lt;/LtcChange>&lt;LtcChange frameCount="2387" value="01530613" status="end">&lt;/LtcChange>&lt;/LtcChangeTable>&lt;CreationDate value="2010-09-22T12:18:53+01:00">&lt;/CreationDate>&lt;TypicalUbit value="0000000017061020">&lt;/TypicalUbit>&lt;BodyUmidBasicChangeTable>&lt;BodyUmidBasicChange frameCount="0" value="060A2B340101010501010D433300000056F7B078615405D508004602022F05F5" status="start">&lt;/BodyUmidBasicChange>&lt;/BodyUmidBasicChangeTable>&lt;BodyUmidWhenChangeTable>&lt;BodyUmidWhenChange frameCount="0" value="8479E203615405A5" status="increment">&lt;/BodyUmidWhenChange>&lt;BodyUmidWhenChange frameCount="2387" value="44CEE403615405A5" status="end">&lt;/BodyUmidWhenChange>&lt;/BodyUmidWhenChangeTable>&lt;KlvPacketTable>&lt;KlvPacket key="060E2B34010101050301020A02000000" frameCount="0" lengthValue="095F5265635374617274" status="spot">&lt;/KlvPacket>&lt;/KlvPacketTable>&lt;VideoFormat>&lt;VideoRecPort port="DIRECT">&lt;/VideoRecPort>&lt;VideoFrame videoCodec="MPEG2HD35_1920_1080_MP@HL" captureFps="50.00i" recFps="50.00" formatFps="50i">&lt;/VideoFrame>&lt;VideoLayout pixel="1920" numOfVerticalLine="1080" aspectRatio="16:9">&lt;/VideoLayout>&lt;/VideoFormat>&lt;AudioFormat numOfChannel="2">&lt;AudioRecPort port="DIRECT" audioCodec="LPCM16" trackDst="CH1">&lt;/AudioRecPort>&lt;AudioRecPort port="DIRECT" audioCodec="LPCM16" trackDst="CH2">&lt;/AudioRecPort>&lt;/AudioFormat>&lt;Device manufacturer="Sony" modelName="PMW-EX3" serialNo="0401525">&lt;/Device>&lt;Lens modelName="VCL-614B2X">&lt;/Lens>&lt;RecordingMode type="normal" cacheRec="false">&lt;/RecordingMode>&lt;/NonRealTimeMeta>
							</value>
						</metadata>
						<metadata>
							<storage>QuickTime</storage>
							<key>com.apple.proapps.reel</key>
							<size>8</size>
							<type>UTF8</type>
							<value>Untitled</value>
						</metadata>
						<metadata>
							<storage>QuickTime</storage>
							<key>com.apple.proapps.clipID</key>
							<size>64</size>
							<type>UTF8</type>
							<value>060A2B340101010501010D431300000056F7B078615405D508004602022F05F5</value>
						</metadata>
						<metadata>
							<storage>QuickTime</storage>
							<key>com.apple.quicktime.information</key>
							<size>64</size>
							<type>UTF8</type>
							<value>060a2b340101010501010d431300000056f7b078615405d508004602022f05f5</value>
						</metadata>
						<metadata>
							<storage>QuickTime</storage>
							<key>com.apple.proapps.originalFormat</key>
							<size>36</size>
							<type>UTF8</type>
							<value>Apple XDCAM EX 1080i50 (35 Mb/s VBR)</value>
						</metadata>
						<timecode>
							<rate>
								<timebase>25</timebase>
							</rate>
							<string>13:05:17:14</string>
							<frame>1177939</frame>
							<displayformat>NDF</displayformat>
							<source>source</source>
							<reel>
								<name>Untitled</name>
							</reel>
						</timecode>
						<media>
							<video>
								<duration>2388</duration>
								<samplecharacteristics>
									<width>1920</width>
									<height>1080</height>
								</samplecharacteristics>
							</video>
							<audio>
								<samplecharacteristics>
									<samplerate>48000</samplerate>
									<depth>16</depth>
								</samplecharacteristics>
								<channelcount>1</channelcount>
								<layout>mono</layout>
								<audiochannel>
									<sourcechannel>1</sourcechannel>
									<channellabel>discrete</channellabel>
								</audiochannel>
							</audio>
							<audio>
								<samplecharacteristics>
									<samplerate>48000</samplerate>
									<depth>16</depth>
								</samplecharacteristics>
								<channelcount>1</channelcount>
								<layout>mono</layout>
								<audiochannel>
									<sourcechannel>2</sourcechannel>
									<channellabel>discrete</channellabel>
								</audiochannel>
							</audio>
						</media>
					</file>
					<sourcetrack>
						<mediatype>video</mediatype>
					</sourcetrack>
					<fielddominance>upper</fielddominance>
					<itemhistory>
						<uuid>1D160CA3-EEEF-4954-8150-852CCFC80E1B</uuid>
					</itemhistory>
				</clipitem>
				<clipitem id="DYR18601_01 ">
					<name>DYR18601_01</name>
					<duration>666</duration>
					<rate>
						<ntsc>FALSE</ntsc>
						<timebase>25</timebase>
					</rate>
					<in>572</in>
					<out>627</out>
					<start>25234</start>
					<end>25289</end>
					<pixelaspectratio>Square</pixelaspectratio>
					<enabled>TRUE</enabled>
					<anamorphic>FALSE</anamorphic>
					<alphatype>none</alphatype>
					<masterclipid>DYR18601_01 1</masterclipid>
					<logginginfo>
						<scene/>
						<shottake/>
						<lognote/>
						<good>FALSE</good>
					</logginginfo>
					<labels>
						<label2/>
					</labels>
					<comments>
						<mastercomment1/>
						<mastercomment2/>
						<mastercomment3/>
						<mastercomment4/>
					</comments>
					<file id="DYR18601_01 2">
						<name>DYR18601_01.mov</name>
						<pathurl>file://localhost/Volumes/Askepott/Prosjekter/DNPR637010_Kra%CC%8Akeklubben_TEM_011212/Video/MUSIKKVIDEO/Treet/DYR18601_01.mov</pathurl>
						<rate>
							<timebase>25</timebase>
						</rate>
						<duration>666</duration>
						<metadata>
							<storage>QuickTime</storage>
							<key>com.sony.bprl.xdcamtransfer.version</key>
							<size>10</size>
							<type>UTF8</type>
							<value>2.12.0.631</value>
						</metadata>
						<metadata>
							<storage>QuickTime</storage>
							<key>org.smpte.mxf.package.material.packageid</key>
							<size>66</size>
							<type>UTF8</type>
							<value>0x060a2b340101010501010d43130000001b03c06c615405c508004602022f05f5</value>
						</metadata>
						<metadata>
							<storage>QuickTime</storage>
							<key>com.sony.professionaldisc.nonrealtimemeta.lastupdate</key>
							<size>25</size>
							<type>UTF8</type>
							<value>2010-09-22 11:12:10 +0100</value>
						</metadata>
						<metadata>
							<storage>QuickTime</storage>
							<key>com.sony.bprl.mxf.umid</key>
							<size>64</size>
							<type>UTF8</type>
							<value>060a2b340101010501010d43130000001b03c06c615405c508004602022f05f5</value>
						</metadata>
						<metadata>
							<storage>QuickTime</storage>
							<key>com.sony.bprl.mxf.nrtmetadata</key>
							<size>1991</size>
							<type>UTF8</type>
							<value>&lt;?xml version="1.0" encoding="UTF-8"?>&lt;NonRealTimeMeta xmlns="urn:schemas-professionalDisc:nonRealTimeMeta:ver.1.20" xmlns:lib="urn:schemas-professionalDisc:lib:ver.1.20" xmlns:xsi="http://www.w3.org/2001/XMLSchema-instance" lastUpdate="2010-09-22T11:12:10+01:00">&lt;TargetMaterial umidRef="060A2B340101010501010D43130000001B03C06C615405C508004602022F05F5">&lt;/TargetMaterial>&lt;Duration value="666">&lt;/Duration>&lt;LtcChangeTable tcFps="25" halfStep="false">&lt;LtcChange frameCount="0" value="14425512" status="increment">&lt;/LtcChange>&lt;LtcChange frameCount="665" value="04095612" status="end">&lt;/LtcChange>&lt;/LtcChangeTable>&lt;CreationDate value="2010-09-22T11:11:43+01:00">&lt;/CreationDate>&lt;TypicalUbit value="0000000017061020">&lt;/TypicalUbit>&lt;BodyUmidBasicChangeTable>&lt;BodyUmidBasicChange frameCount="0" value="060A2B340101010501010D43330000001B03C06C615405C508004602022F05F5" status="start">&lt;/BodyUmidBasicChange>&lt;/BodyUmidBasicChangeTable>&lt;BodyUmidWhenChangeTable>&lt;BodyUmidWhenChange frameCount="0" value="84148003615405A5" status="increment">&lt;/BodyUmidWhenChange>&lt;BodyUmidWhenChange frameCount="665" value="C4BA8003615405A5" status="end">&lt;/BodyUmidWhenChange>&lt;/BodyUmidWhenChangeTable>&lt;KlvPacketTable>&lt;KlvPacket key="060E2B34010101050301020A02000000" frameCount="0" lengthValue="095F5265635374617274" status="spot">&lt;/KlvPacket>&lt;/KlvPacketTable>&lt;VideoFormat>&lt;VideoRecPort port="DIRECT">&lt;/VideoRecPort>&lt;VideoFrame videoCodec="MPEG2HD35_1920_1080_MP@HL" captureFps="50.00i" recFps="50.00" formatFps="50i">&lt;/VideoFrame>&lt;VideoLayout pixel="1920" numOfVerticalLine="1080" aspectRatio="16:9">&lt;/VideoLayout>&lt;/VideoFormat>&lt;AudioFormat numOfChannel="2">&lt;AudioRecPort port="DIRECT" audioCodec="LPCM16" trackDst="CH1">&lt;/AudioRecPort>&lt;AudioRecPort port="DIRECT" audioCodec="LPCM16" trackDst="CH2">&lt;/AudioRecPort>&lt;/AudioFormat>&lt;Device manufacturer="Sony" modelName="PMW-EX3" serialNo="0401525">&lt;/Device>&lt;Lens modelName="VCL-614B2X">&lt;/Lens>&lt;RecordingMode type="normal" cacheRec="false">&lt;/RecordingMode>&lt;/NonRealTimeMeta>
							</value>
						</metadata>
						<metadata>
							<storage>QuickTime</storage>
							<key>com.apple.proapps.reel</key>
							<size>8</size>
							<type>UTF8</type>
							<value>Untitled</value>
						</metadata>
						<metadata>
							<storage>QuickTime</storage>
							<key>com.apple.proapps.clipID</key>
							<size>64</size>
							<type>UTF8</type>
							<value>060A2B340101010501010D43130000001B03C06C615405C508004602022F05F5</value>
						</metadata>
						<metadata>
							<storage>QuickTime</storage>
							<key>com.apple.quicktime.information</key>
							<size>64</size>
							<type>UTF8</type>
							<value>060a2b340101010501010d43130000001b03c06c615405c508004602022f05f5</value>
						</metadata>
						<metadata>
							<storage>QuickTime</storage>
							<key>com.apple.proapps.originalFormat</key>
							<size>36</size>
							<type>UTF8</type>
							<value>Apple XDCAM EX 1080i50 (35 Mb/s VBR)</value>
						</metadata>
						<timecode>
							<rate>
								<timebase>25</timebase>
							</rate>
							<string>12:55:42:14</string>
							<frame>1163564</frame>
							<displayformat>NDF</displayformat>
							<source>source</source>
							<reel>
								<name>Untitled</name>
							</reel>
						</timecode>
						<media>
							<video>
								<duration>666</duration>
								<samplecharacteristics>
									<width>1920</width>
									<height>1080</height>
								</samplecharacteristics>
							</video>
							<audio>
								<samplecharacteristics>
									<samplerate>48000</samplerate>
									<depth>16</depth>
								</samplecharacteristics>
								<channelcount>1</channelcount>
								<layout>mono</layout>
								<audiochannel>
									<sourcechannel>1</sourcechannel>
									<channellabel>discrete</channellabel>
								</audiochannel>
							</audio>
							<audio>
								<samplecharacteristics>
									<samplerate>48000</samplerate>
									<depth>16</depth>
								</samplecharacteristics>
								<channelcount>1</channelcount>
								<layout>mono</layout>
								<audiochannel>
									<sourcechannel>2</sourcechannel>
									<channellabel>discrete</channellabel>
								</audiochannel>
							</audio>
						</media>
					</file>
					<sourcetrack>
						<mediatype>video</mediatype>
					</sourcetrack>
					<fielddominance>upper</fielddominance>
					<itemhistory>
						<uuid>C0E5D31A-FA89-4036-8076-C705508EA965</uuid>
					</itemhistory>
				</clipitem>
				<clipitem id="DYR18584_01 ">
					<name>DYR18584_01</name>
					<duration>2638</duration>
					<rate>
						<ntsc>FALSE</ntsc>
						<timebase>25</timebase>
					</rate>
					<in>95</in>
					<out>120</out>
					<start>25289</start>
					<end>25314</end>
					<pixelaspectratio>Square</pixelaspectratio>
					<enabled>TRUE</enabled>
					<anamorphic>FALSE</anamorphic>
					<alphatype>none</alphatype>
					<masterclipid>DYR18584_01 1</masterclipid>
					<logginginfo>
						<scene/>
						<shottake/>
						<lognote/>
						<good>FALSE</good>
					</logginginfo>
					<labels>
						<label2/>
					</labels>
					<comments>
						<mastercomment1/>
						<mastercomment2/>
						<mastercomment3/>
						<mastercomment4/>
					</comments>
					<file id="DYR18584_01 2">
						<name>DYR18584_01.mov</name>
						<pathurl>file://localhost/Volumes/Askepott/Prosjekter/DNPR637010_Kra%CC%8Akeklubben_TEM_011212/Video/MUSIKKVIDEO/Treet/DYR18584_01.mov</pathurl>
						<rate>
							<timebase>25</timebase>
						</rate>
						<duration>2638</duration>
						<metadata>
							<storage>QuickTime</storage>
							<key>com.sony.bprl.xdcamtransfer.version</key>
							<size>10</size>
							<type>UTF8</type>
							<value>2.12.0.631</value>
						</metadata>
						<metadata>
							<storage>QuickTime</storage>
							<key>org.smpte.mxf.package.material.packageid</key>
							<size>66</size>
							<type>UTF8</type>
							<value>0x060a2b340101010501010d43130000000dd60d61615405cf08004602022f05f5</value>
						</metadata>
						<metadata>
							<storage>QuickTime</storage>
							<key>com.sony.professionaldisc.nonrealtimemeta.lastupdate</key>
							<size>25</size>
							<type>UTF8</type>
							<value>2010-09-22 10:07:42 +0100</value>
						</metadata>
						<metadata>
							<storage>QuickTime</storage>
							<key>com.sony.bprl.mxf.umid</key>
							<size>64</size>
							<type>UTF8</type>
							<value>060a2b340101010501010d43130000000dd60d61615405cf08004602022f05f5</value>
						</metadata>
						<metadata>
							<storage>QuickTime</storage>
							<key>com.sony.bprl.mxf.nrtmetadata</key>
							<size>1994</size>
							<type>UTF8</type>
							<value>&lt;?xml version="1.0" encoding="UTF-8"?>&lt;NonRealTimeMeta xmlns="urn:schemas-professionalDisc:nonRealTimeMeta:ver.1.20" xmlns:lib="urn:schemas-professionalDisc:lib:ver.1.20" xmlns:xsi="http://www.w3.org/2001/XMLSchema-instance" lastUpdate="2010-09-22T10:07:42+01:00">&lt;TargetMaterial umidRef="060A2B340101010501010D43130000000DD60D61615405CF08004602022F05F5">&lt;/TargetMaterial>&lt;Duration value="2638">&lt;/Duration>&lt;LtcChangeTable tcFps="25" halfStep="false">&lt;LtcChange frameCount="0" value="08004312" status="increment">&lt;/LtcChange>&lt;LtcChange frameCount="2637" value="20454412" status="end">&lt;/LtcChange>&lt;/LtcChangeTable>&lt;CreationDate value="2010-09-22T10:05:55+01:00">&lt;/CreationDate>&lt;TypicalUbit value="0000000017061020">&lt;/TypicalUbit>&lt;BodyUmidBasicChangeTable>&lt;BodyUmidBasicChange frameCount="0" value="060A2B340101010501010D43330000000DD60D61615405CF08004602022F05F5" status="start">&lt;/BodyUmidBasicChange>&lt;/BodyUmidBasicChangeTable>&lt;BodyUmidWhenChangeTable>&lt;BodyUmidWhenChange frameCount="0" value="84B51F03615405A5" status="increment">&lt;/BodyUmidWhenChange>&lt;BodyUmidWhenChange frameCount="2637" value="C4482203615405A5" status="end">&lt;/BodyUmidWhenChange>&lt;/BodyUmidWhenChangeTable>&lt;KlvPacketTable>&lt;KlvPacket key="060E2B34010101050301020A02000000" frameCount="0" lengthValue="095F5265635374617274" status="spot">&lt;/KlvPacket>&lt;/KlvPacketTable>&lt;VideoFormat>&lt;VideoRecPort port="DIRECT">&lt;/VideoRecPort>&lt;VideoFrame videoCodec="MPEG2HD35_1920_1080_MP@HL" captureFps="50.00i" recFps="50.00" formatFps="50i">&lt;/VideoFrame>&lt;VideoLayout pixel="1920" numOfVerticalLine="1080" aspectRatio="16:9">&lt;/VideoLayout>&lt;/VideoFormat>&lt;AudioFormat numOfChannel="2">&lt;AudioRecPort port="DIRECT" audioCodec="LPCM16" trackDst="CH1">&lt;/AudioRecPort>&lt;AudioRecPort port="DIRECT" audioCodec="LPCM16" trackDst="CH2">&lt;/AudioRecPort>&lt;/AudioFormat>&lt;Device manufacturer="Sony" modelName="PMW-EX3" serialNo="0401525">&lt;/Device>&lt;Lens modelName="VCL-614B2X">&lt;/Lens>&lt;RecordingMode type="normal" cacheRec="false">&lt;/RecordingMode>&lt;/NonRealTimeMeta>
							</value>
						</metadata>
						<metadata>
							<storage>QuickTime</storage>
							<key>com.apple.proapps.reel</key>
							<size>8</size>
							<type>UTF8</type>
							<value>Untitled</value>
						</metadata>
						<metadata>
							<storage>QuickTime</storage>
							<key>com.apple.proapps.clipID</key>
							<size>64</size>
							<type>UTF8</type>
							<value>060A2B340101010501010D43130000000DD60D61615405CF08004602022F05F5</value>
						</metadata>
						<metadata>
							<storage>QuickTime</storage>
							<key>com.apple.quicktime.information</key>
							<size>64</size>
							<type>UTF8</type>
							<value>060a2b340101010501010d43130000000dd60d61615405cf08004602022f05f5</value>
						</metadata>
						<metadata>
							<storage>QuickTime</storage>
							<key>com.apple.proapps.originalFormat</key>
							<size>36</size>
							<type>UTF8</type>
							<value>Apple XDCAM EX 1080i50 (35 Mb/s VBR)</value>
						</metadata>
						<timecode>
							<rate>
								<timebase>25</timebase>
							</rate>
							<string>12:43:00:08</string>
							<frame>1144508</frame>
							<displayformat>NDF</displayformat>
							<source>source</source>
							<reel>
								<name>Untitled</name>
							</reel>
						</timecode>
						<media>
							<video>
								<duration>2638</duration>
								<samplecharacteristics>
									<width>1920</width>
									<height>1080</height>
								</samplecharacteristics>
							</video>
							<audio>
								<samplecharacteristics>
									<samplerate>48000</samplerate>
									<depth>16</depth>
								</samplecharacteristics>
								<channelcount>1</channelcount>
								<layout>mono</layout>
								<audiochannel>
									<sourcechannel>1</sourcechannel>
									<channellabel>discrete</channellabel>
								</audiochannel>
							</audio>
							<audio>
								<samplecharacteristics>
									<samplerate>48000</samplerate>
									<depth>16</depth>
								</samplecharacteristics>
								<channelcount>1</channelcount>
								<layout>mono</layout>
								<audiochannel>
									<sourcechannel>2</sourcechannel>
									<channellabel>discrete</channellabel>
								</audiochannel>
							</audio>
						</media>
					</file>
					<sourcetrack>
						<mediatype>video</mediatype>
					</sourcetrack>
					<fielddominance>upper</fielddominance>
					<itemhistory>
						<uuid>9F2FA4D0-3C4E-449F-A5C8-C785C47DE0E0</uuid>
					</itemhistory>
				</clipitem>
				<clipitem id="DYR18588_01 3">
					<name>DYR18588_01</name>
					<duration>1887</duration>
					<rate>
						<ntsc>FALSE</ntsc>
						<timebase>25</timebase>
					</rate>
					<in>110</in>
					<out>144</out>
					<start>25314</start>
					<end>25348</end>
					<pixelaspectratio>Square</pixelaspectratio>
					<enabled>TRUE</enabled>
					<anamorphic>FALSE</anamorphic>
					<alphatype>none</alphatype>
					<masterclipid>DYR18588_01 1</masterclipid>
					<logginginfo>
						<scene/>
						<shottake/>
						<lognote/>
						<good>FALSE</good>
					</logginginfo>
					<labels>
						<label2/>
					</labels>
					<comments>
						<mastercomment1/>
						<mastercomment2/>
						<mastercomment3/>
						<mastercomment4/>
					</comments>
					<file id="DYR18588_01 2"/>
					<sourcetrack>
						<mediatype>video</mediatype>
					</sourcetrack>
					<fielddominance>upper</fielddominance>
					<itemhistory>
						<uuid>EF05851B-14EC-4B68-A680-3FD3E3297A75</uuid>
					</itemhistory>
				</clipitem>
				<clipitem id="DYR18584_01 3">
					<name>DYR18584_01</name>
					<duration>2638</duration>
					<rate>
						<ntsc>FALSE</ntsc>
						<timebase>25</timebase>
					</rate>
					<in>1323</in>
					<out>1374</out>
					<start>25348</start>
					<end>25399</end>
					<pixelaspectratio>Square</pixelaspectratio>
					<enabled>TRUE</enabled>
					<anamorphic>FALSE</anamorphic>
					<alphatype>none</alphatype>
					<masterclipid>DYR18584_01 1</masterclipid>
					<logginginfo>
						<scene/>
						<shottake/>
						<lognote/>
						<good>FALSE</good>
					</logginginfo>
					<labels>
						<label2/>
					</labels>
					<comments>
						<mastercomment1/>
						<mastercomment2/>
						<mastercomment3/>
						<mastercomment4/>
					</comments>
					<file id="DYR18584_01 2"/>
					<sourcetrack>
						<mediatype>video</mediatype>
					</sourcetrack>
					<fielddominance>upper</fielddominance>
					<itemhistory>
						<uuid>328187C2-453A-44C6-B0AC-8825096FC53C</uuid>
					</itemhistory>
				</clipitem>
				<clipitem id="DYR18731_01 ">
					<name>DYR18731_01</name>
					<duration>2708</duration>
					<rate>
						<ntsc>FALSE</ntsc>
						<timebase>25</timebase>
					</rate>
					<in>2331</in>
					<out>2373</out>
					<start>25399</start>
					<end>25441</end>
					<pixelaspectratio>Square</pixelaspectratio>
					<enabled>TRUE</enabled>
					<anamorphic>FALSE</anamorphic>
					<alphatype>none</alphatype>
					<masterclipid>DYR18731_01 1</masterclipid>
					<logginginfo>
						<scene/>
						<shottake/>
						<lognote/>
						<good>FALSE</good>
					</logginginfo>
					<labels>
						<label2/>
					</labels>
					<comments>
						<mastercomment1/>
						<mastercomment2/>
						<mastercomment3/>
						<mastercomment4/>
					</comments>
					<file id="DYR18731_01 2">
						<name>DYR18731_01.mov</name>
						<pathurl>file://localhost/Volumes/Askepott/Prosjekter/DNPR637010_Kra%CC%8Akeklubben_TEM_011212/Video/MUSIKKVIDEO/Treet/DYR18731_01.mov</pathurl>
						<rate>
							<timebase>25</timebase>
						</rate>
						<duration>2708</duration>
						<metadata>
							<storage>QuickTime</storage>
							<key>com.sony.bprl.xdcamtransfer.version</key>
							<size>10</size>
							<type>UTF8</type>
							<value>2.12.0.631</value>
						</metadata>
						<metadata>
							<storage>QuickTime</storage>
							<key>org.smpte.mxf.package.material.packageid</key>
							<size>66</size>
							<type>UTF8</type>
							<value>0x060a2b340101010501010d431300000053251e92625405c508004602022f05f5</value>
						</metadata>
						<metadata>
							<storage>QuickTime</storage>
							<key>com.sony.professionaldisc.nonrealtimemeta.lastupdate</key>
							<size>25</size>
							<type>UTF8</type>
							<value>2010-09-23 14:43:43 +0100</value>
						</metadata>
						<metadata>
							<storage>QuickTime</storage>
							<key>com.sony.bprl.mxf.umid</key>
							<size>64</size>
							<type>UTF8</type>
							<value>060a2b340101010501010d431300000053251e92625405c508004602022f05f5</value>
						</metadata>
						<metadata>
							<storage>QuickTime</storage>
							<key>com.sony.bprl.mxf.nrtmetadata</key>
							<size>1994</size>
							<type>UTF8</type>
							<value>&lt;?xml version="1.0" encoding="UTF-8"?>&lt;NonRealTimeMeta xmlns="urn:schemas-professionalDisc:nonRealTimeMeta:ver.1.20" xmlns:lib="urn:schemas-professionalDisc:lib:ver.1.20" xmlns:xsi="http://www.w3.org/2001/XMLSchema-instance" lastUpdate="2010-09-23T14:43:43+01:00">&lt;TargetMaterial umidRef="060A2B340101010501010D431300000053251E92625405C508004602022F05F5">&lt;/TargetMaterial>&lt;Duration value="2708">&lt;/Duration>&lt;LtcChangeTable tcFps="25" halfStep="false">&lt;LtcChange frameCount="0" value="07031114" status="increment">&lt;/LtcChange>&lt;LtcChange frameCount="2707" value="14511214" status="end">&lt;/LtcChange>&lt;/LtcChangeTable>&lt;CreationDate value="2010-09-23T14:41:54+01:00">&lt;/CreationDate>&lt;TypicalUbit value="0000000017061020">&lt;/TypicalUbit>&lt;BodyUmidBasicChangeTable>&lt;BodyUmidBasicChange frameCount="0" value="060A2B340101010501010D433300000053251E92625405C508004602022F05F5" status="start">&lt;/BodyUmidBasicChange>&lt;/BodyUmidBasicChangeTable>&lt;BodyUmidWhenChangeTable>&lt;BodyUmidWhenChange frameCount="0" value="04FBB304625405A5" status="increment">&lt;/BodyUmidWhenChange>&lt;BodyUmidWhenChange frameCount="2707" value="C49FB604625405A5" status="end">&lt;/BodyUmidWhenChange>&lt;/BodyUmidWhenChangeTable>&lt;KlvPacketTable>&lt;KlvPacket key="060E2B34010101050301020A02000000" frameCount="0" lengthValue="095F5265635374617274" status="spot">&lt;/KlvPacket>&lt;/KlvPacketTable>&lt;VideoFormat>&lt;VideoRecPort port="DIRECT">&lt;/VideoRecPort>&lt;VideoFrame videoCodec="MPEG2HD35_1920_1080_MP@HL" captureFps="50.00i" recFps="50.00" formatFps="50i">&lt;/VideoFrame>&lt;VideoLayout pixel="1920" numOfVerticalLine="1080" aspectRatio="16:9">&lt;/VideoLayout>&lt;/VideoFormat>&lt;AudioFormat numOfChannel="2">&lt;AudioRecPort port="DIRECT" audioCodec="LPCM16" trackDst="CH1">&lt;/AudioRecPort>&lt;AudioRecPort port="DIRECT" audioCodec="LPCM16" trackDst="CH2">&lt;/AudioRecPort>&lt;/AudioFormat>&lt;Device manufacturer="Sony" modelName="PMW-EX3" serialNo="0401525">&lt;/Device>&lt;Lens modelName="VCL-614B2X">&lt;/Lens>&lt;RecordingMode type="normal" cacheRec="false">&lt;/RecordingMode>&lt;/NonRealTimeMeta>
							</value>
						</metadata>
						<metadata>
							<storage>QuickTime</storage>
							<key>com.apple.proapps.reel</key>
							<size>8</size>
							<type>UTF8</type>
							<value>Untitled</value>
						</metadata>
						<metadata>
							<storage>QuickTime</storage>
							<key>com.apple.proapps.clipID</key>
							<size>64</size>
							<type>UTF8</type>
							<value>060A2B340101010501010D431300000053251E92625405C508004602022F05F5</value>
						</metadata>
						<metadata>
							<storage>QuickTime</storage>
							<key>com.apple.quicktime.information</key>
							<size>64</size>
							<type>UTF8</type>
							<value>060a2b340101010501010d431300000053251e92625405c508004602022f05f5</value>
						</metadata>
						<metadata>
							<storage>QuickTime</storage>
							<key>com.apple.proapps.originalFormat</key>
							<size>36</size>
							<type>UTF8</type>
							<value>Apple XDCAM EX 1080i50 (35 Mb/s VBR)</value>
						</metadata>
						<timecode>
							<rate>
								<timebase>25</timebase>
							</rate>
							<string>14:11:03:07</string>
							<frame>1276582</frame>
							<displayformat>NDF</displayformat>
							<source>source</source>
							<reel>
								<name>Untitled</name>
							</reel>
						</timecode>
						<media>
							<video>
								<duration>2708</duration>
								<samplecharacteristics>
									<width>1920</width>
									<height>1080</height>
								</samplecharacteristics>
							</video>
							<audio>
								<samplecharacteristics>
									<samplerate>48000</samplerate>
									<depth>16</depth>
								</samplecharacteristics>
								<channelcount>1</channelcount>
								<layout>mono</layout>
								<audiochannel>
									<sourcechannel>1</sourcechannel>
									<channellabel>discrete</channellabel>
								</audiochannel>
							</audio>
							<audio>
								<samplecharacteristics>
									<samplerate>48000</samplerate>
									<depth>16</depth>
								</samplecharacteristics>
								<channelcount>1</channelcount>
								<layout>mono</layout>
								<audiochannel>
									<sourcechannel>2</sourcechannel>
									<channellabel>discrete</channellabel>
								</audiochannel>
							</audio>
						</media>
					</file>
					<sourcetrack>
						<mediatype>video</mediatype>
					</sourcetrack>
					<fielddominance>upper</fielddominance>
					<itemhistory>
						<uuid>2FE590FE-50F3-4EDF-9E43-5B9DF3246E1D</uuid>
					</itemhistory>
				</clipitem>
				<clipitem id="DYR18586_01 ">
					<name>DYR18586_01</name>
					<duration>723</duration>
					<rate>
						<ntsc>FALSE</ntsc>
						<timebase>25</timebase>
					</rate>
					<in>33</in>
					<out>57</out>
					<start>25441</start>
					<end>25465</end>
					<pixelaspectratio>Square</pixelaspectratio>
					<enabled>TRUE</enabled>
					<anamorphic>FALSE</anamorphic>
					<alphatype>none</alphatype>
					<masterclipid>DYR18586_01 1</masterclipid>
					<logginginfo>
						<scene/>
						<shottake/>
						<lognote/>
						<good>FALSE</good>
					</logginginfo>
					<labels>
						<label2/>
					</labels>
					<comments>
						<mastercomment1/>
						<mastercomment2/>
						<mastercomment3/>
						<mastercomment4/>
					</comments>
					<file id="DYR18586_01 2">
						<name>DYR18586_01.mov</name>
						<pathurl>file://localhost/Volumes/Askepott/Prosjekter/DNPR637010_Kra%CC%8Akeklubben_TEM_011212/Video/MUSIKKVIDEO/Treet/DYR18586_01.mov</pathurl>
						<rate>
							<timebase>25</timebase>
						</rate>
						<duration>723</duration>
						<metadata>
							<storage>QuickTime</storage>
							<key>com.sony.bprl.xdcamtransfer.version</key>
							<size>10</size>
							<type>UTF8</type>
							<value>2.12.0.631</value>
						</metadata>
						<metadata>
							<storage>QuickTime</storage>
							<key>org.smpte.mxf.package.material.packageid</key>
							<size>66</size>
							<type>UTF8</type>
							<value>0x060a2b340101010501010d4313000000e37cfa61615405cc08004602022f05f5</value>
						</metadata>
						<metadata>
							<storage>QuickTime</storage>
							<key>com.sony.professionaldisc.nonrealtimemeta.lastupdate</key>
							<size>25</size>
							<type>UTF8</type>
							<value>2010-09-22 10:11:37 +0100</value>
						</metadata>
						<metadata>
							<storage>QuickTime</storage>
							<key>com.sony.bprl.mxf.umid</key>
							<size>64</size>
							<type>UTF8</type>
							<value>060a2b340101010501010d4313000000e37cfa61615405cc08004602022f05f5</value>
						</metadata>
						<metadata>
							<storage>QuickTime</storage>
							<key>com.sony.bprl.mxf.nrtmetadata</key>
							<size>1991</size>
							<type>UTF8</type>
							<value>&lt;?xml version="1.0" encoding="UTF-8"?>&lt;NonRealTimeMeta xmlns="urn:schemas-professionalDisc:nonRealTimeMeta:ver.1.20" xmlns:lib="urn:schemas-professionalDisc:lib:ver.1.20" xmlns:xsi="http://www.w3.org/2001/XMLSchema-instance" lastUpdate="2010-09-22T10:11:37+01:00">&lt;TargetMaterial umidRef="060A2B340101010501010D4313000000E37CFA61615405CC08004602022F05F5">&lt;/TargetMaterial>&lt;Duration value="723">&lt;/Duration>&lt;LtcChangeTable tcFps="25" halfStep="false">&lt;LtcChange frameCount="0" value="22194712" status="increment">&lt;/LtcChange>&lt;LtcChange frameCount="722" value="19484712" status="end">&lt;/LtcChange>&lt;/LtcChangeTable>&lt;CreationDate value="2010-09-22T10:11:07+01:00">&lt;/CreationDate>&lt;TypicalUbit value="0000000017061020">&lt;/TypicalUbit>&lt;BodyUmidBasicChangeTable>&lt;BodyUmidBasicChange frameCount="0" value="060A2B340101010501010D4333000000E37CFA61615405CC08004602022F05F5" status="start">&lt;/BodyUmidBasicChange>&lt;/BodyUmidBasicChangeTable>&lt;BodyUmidWhenChangeTable>&lt;BodyUmidWhenChange frameCount="0" value="84532703615405A5" status="increment">&lt;/BodyUmidWhenChange>&lt;BodyUmidWhenChange frameCount="722" value="04082803615405A5" status="end">&lt;/BodyUmidWhenChange>&lt;/BodyUmidWhenChangeTable>&lt;KlvPacketTable>&lt;KlvPacket key="060E2B34010101050301020A02000000" frameCount="0" lengthValue="095F5265635374617274" status="spot">&lt;/KlvPacket>&lt;/KlvPacketTable>&lt;VideoFormat>&lt;VideoRecPort port="DIRECT">&lt;/VideoRecPort>&lt;VideoFrame videoCodec="MPEG2HD35_1920_1080_MP@HL" captureFps="50.00i" recFps="50.00" formatFps="50i">&lt;/VideoFrame>&lt;VideoLayout pixel="1920" numOfVerticalLine="1080" aspectRatio="16:9">&lt;/VideoLayout>&lt;/VideoFormat>&lt;AudioFormat numOfChannel="2">&lt;AudioRecPort port="DIRECT" audioCodec="LPCM16" trackDst="CH1">&lt;/AudioRecPort>&lt;AudioRecPort port="DIRECT" audioCodec="LPCM16" trackDst="CH2">&lt;/AudioRecPort>&lt;/AudioFormat>&lt;Device manufacturer="Sony" modelName="PMW-EX3" serialNo="0401525">&lt;/Device>&lt;Lens modelName="VCL-614B2X">&lt;/Lens>&lt;RecordingMode type="normal" cacheRec="false">&lt;/RecordingMode>&lt;/NonRealTimeMeta>
							</value>
						</metadata>
						<metadata>
							<storage>QuickTime</storage>
							<key>com.apple.proapps.reel</key>
							<size>8</size>
							<type>UTF8</type>
							<value>Untitled</value>
						</metadata>
						<metadata>
							<storage>QuickTime</storage>
							<key>com.apple.proapps.clipID</key>
							<size>64</size>
							<type>UTF8</type>
							<value>060A2B340101010501010D4313000000E37CFA61615405CC08004602022F05F5</value>
						</metadata>
						<metadata>
							<storage>QuickTime</storage>
							<key>com.apple.quicktime.information</key>
							<size>64</size>
							<type>UTF8</type>
							<value>060a2b340101010501010d4313000000e37cfa61615405cc08004602022f05f5</value>
						</metadata>
						<metadata>
							<storage>QuickTime</storage>
							<key>com.apple.proapps.originalFormat</key>
							<size>36</size>
							<type>UTF8</type>
							<value>Apple XDCAM EX 1080i50 (35 Mb/s VBR)</value>
						</metadata>
						<timecode>
							<rate>
								<timebase>25</timebase>
							</rate>
							<string>12:47:19:22</string>
							<frame>1150997</frame>
							<displayformat>NDF</displayformat>
							<source>source</source>
							<reel>
								<name>Untitled</name>
							</reel>
						</timecode>
						<media>
							<video>
								<duration>723</duration>
								<samplecharacteristics>
									<width>1920</width>
									<height>1080</height>
								</samplecharacteristics>
							</video>
							<audio>
								<samplecharacteristics>
									<samplerate>48000</samplerate>
									<depth>16</depth>
								</samplecharacteristics>
								<channelcount>1</channelcount>
								<layout>mono</layout>
								<audiochannel>
									<sourcechannel>1</sourcechannel>
									<channellabel>discrete</channellabel>
								</audiochannel>
							</audio>
							<audio>
								<samplecharacteristics>
									<samplerate>48000</samplerate>
									<depth>16</depth>
								</samplecharacteristics>
								<channelcount>1</channelcount>
								<layout>mono</layout>
								<audiochannel>
									<sourcechannel>2</sourcechannel>
									<channellabel>discrete</channellabel>
								</audiochannel>
							</audio>
						</media>
					</file>
					<sourcetrack>
						<mediatype>video</mediatype>
					</sourcetrack>
					<fielddominance>upper</fielddominance>
					<itemhistory>
						<uuid>9B8EA439-B803-4A04-9F52-F29F739223E4</uuid>
					</itemhistory>
				</clipitem>
				<clipitem id="DYR18586_01 3">
					<name>DYR18586_01</name>
					<duration>723</duration>
					<rate>
						<ntsc>FALSE</ntsc>
						<timebase>25</timebase>
					</rate>
					<in>263</in>
					<out>321</out>
					<start>25465</start>
					<end>-1</end>
					<pixelaspectratio>Square</pixelaspectratio>
					<enabled>TRUE</enabled>
					<anamorphic>FALSE</anamorphic>
					<alphatype>none</alphatype>
					<masterclipid>DYR18586_01 1</masterclipid>
					<logginginfo>
						<scene/>
						<shottake/>
						<lognote/>
						<good>FALSE</good>
					</logginginfo>
					<labels>
						<label2/>
					</labels>
					<comments>
						<mastercomment1/>
						<mastercomment2/>
						<mastercomment3/>
						<mastercomment4/>
					</comments>
					<file id="DYR18586_01 2"/>
					<sourcetrack>
						<mediatype>video</mediatype>
					</sourcetrack>
					<fielddominance>upper</fielddominance>
					<itemhistory>
						<uuid>D6C993CB-2E83-47D2-8E92-4A7479602BD0</uuid>
					</itemhistory>
				</clipitem>
				<transitionitem>
					<rate>
						<ntsc>FALSE</ntsc>
						<timebase>25</timebase>
					</rate>
					<start>25508</start>
					<end>25523</end>
					<alignment>center</alignment>
					<effect>
						<name>Cross Dissolve</name>
						<effectid>Cross Dissolve</effectid>
						<effectcategory>Dissolve</effectcategory>
						<effecttype>transition</effecttype>
						<mediatype>video</mediatype>
						<wipecode>0</wipecode>
						<wipeaccuracy>100</wipeaccuracy>
						<startratio>0</startratio>
						<endratio>1</endratio>
						<reverse>FALSE</reverse>
					</effect>
				</transitionitem>
				<clipitem id="DYR18725_01 ">
					<name>DYR18725_01</name>
					<duration>1358</duration>
					<rate>
						<ntsc>FALSE</ntsc>
						<timebase>25</timebase>
					</rate>
					<in>351</in>
					<out>489</out>
					<start>-1</start>
					<end>25646</end>
					<pixelaspectratio>Square</pixelaspectratio>
					<enabled>TRUE</enabled>
					<anamorphic>FALSE</anamorphic>
					<alphatype>none</alphatype>
					<masterclipid>DYR18725_01 1</masterclipid>
					<logginginfo>
						<scene/>
						<shottake/>
						<lognote/>
						<good>FALSE</good>
					</logginginfo>
					<labels>
						<label2/>
					</labels>
					<comments>
						<mastercomment1/>
						<mastercomment2/>
						<mastercomment3/>
						<mastercomment4/>
					</comments>
					<file id="DYR18725_01 2">
						<name>DYR18725_01.mov</name>
						<pathurl>file://localhost/Volumes/Askepott/Prosjekter/DNPR637010_Kra%CC%8Akeklubben_TEM_011212/Video/MUSIKKVIDEO/Treet/DYR18725_01.mov</pathurl>
						<rate>
							<timebase>25</timebase>
						</rate>
						<duration>1358</duration>
						<metadata>
							<storage>QuickTime</storage>
							<key>com.sony.bprl.xdcamtransfer.version</key>
							<size>10</size>
							<type>UTF8</type>
							<value>2.12.0.631</value>
						</metadata>
						<metadata>
							<storage>QuickTime</storage>
							<key>org.smpte.mxf.package.material.packageid</key>
							<size>66</size>
							<type>UTF8</type>
							<value>0x060a2b340101010501010d431300000054dd9486625405d408004602022f05f5</value>
						</metadata>
						<metadata>
							<storage>QuickTime</storage>
							<key>com.sony.professionaldisc.nonrealtimemeta.lastupdate</key>
							<size>25</size>
							<type>UTF8</type>
							<value>2010-09-23 13:37:56 +0100</value>
						</metadata>
						<metadata>
							<storage>QuickTime</storage>
							<key>com.sony.bprl.mxf.umid</key>
							<size>64</size>
							<type>UTF8</type>
							<value>060a2b340101010501010d431300000054dd9486625405d408004602022f05f5</value>
						</metadata>
						<metadata>
							<storage>QuickTime</storage>
							<key>com.sony.bprl.mxf.nrtmetadata</key>
							<size>1994</size>
							<type>UTF8</type>
							<value>&lt;?xml version="1.0" encoding="UTF-8"?>&lt;NonRealTimeMeta xmlns="urn:schemas-professionalDisc:nonRealTimeMeta:ver.1.20" xmlns:lib="urn:schemas-professionalDisc:lib:ver.1.20" xmlns:xsi="http://www.w3.org/2001/XMLSchema-instance" lastUpdate="2010-09-23T13:37:56+01:00">&lt;TargetMaterial umidRef="060A2B340101010501010D431300000054DD9486625405D408004602022F05F5">&lt;/TargetMaterial>&lt;Duration value="1358">&lt;/Duration>&lt;LtcChangeTable tcFps="25" halfStep="false">&lt;LtcChange frameCount="0" value="00580614" status="increment">&lt;/LtcChange>&lt;LtcChange frameCount="1357" value="07520714" status="end">&lt;/LtcChange>&lt;/LtcChangeTable>&lt;CreationDate value="2010-09-23T13:37:01+01:00">&lt;/CreationDate>&lt;TypicalUbit value="0000000017061020">&lt;/TypicalUbit>&lt;BodyUmidBasicChangeTable>&lt;BodyUmidBasicChange frameCount="0" value="060A2B340101010501010D433300000054DD9486625405D408004602022F05F5" status="start">&lt;/BodyUmidBasicChange>&lt;/BodyUmidBasicChangeTable>&lt;BodyUmidWhenChangeTable>&lt;BodyUmidWhenChange frameCount="0" value="84EE5404625405A5" status="increment">&lt;/BodyUmidWhenChange>&lt;BodyUmidWhenChange frameCount="1357" value="C4415604625405A5" status="end">&lt;/BodyUmidWhenChange>&lt;/BodyUmidWhenChangeTable>&lt;KlvPacketTable>&lt;KlvPacket key="060E2B34010101050301020A02000000" frameCount="0" lengthValue="095F5265635374617274" status="spot">&lt;/KlvPacket>&lt;/KlvPacketTable>&lt;VideoFormat>&lt;VideoRecPort port="DIRECT">&lt;/VideoRecPort>&lt;VideoFrame videoCodec="MPEG2HD35_1920_1080_MP@HL" captureFps="50.00i" recFps="50.00" formatFps="50i">&lt;/VideoFrame>&lt;VideoLayout pixel="1920" numOfVerticalLine="1080" aspectRatio="16:9">&lt;/VideoLayout>&lt;/VideoFormat>&lt;AudioFormat numOfChannel="2">&lt;AudioRecPort port="DIRECT" audioCodec="LPCM16" trackDst="CH1">&lt;/AudioRecPort>&lt;AudioRecPort port="DIRECT" audioCodec="LPCM16" trackDst="CH2">&lt;/AudioRecPort>&lt;/AudioFormat>&lt;Device manufacturer="Sony" modelName="PMW-EX3" serialNo="0401525">&lt;/Device>&lt;Lens modelName="VCL-614B2X">&lt;/Lens>&lt;RecordingMode type="normal" cacheRec="false">&lt;/RecordingMode>&lt;/NonRealTimeMeta>
							</value>
						</metadata>
						<metadata>
							<storage>QuickTime</storage>
							<key>com.apple.proapps.reel</key>
							<size>8</size>
							<type>UTF8</type>
							<value>Untitled</value>
						</metadata>
						<metadata>
							<storage>QuickTime</storage>
							<key>com.apple.proapps.clipID</key>
							<size>64</size>
							<type>UTF8</type>
							<value>060A2B340101010501010D431300000054DD9486625405D408004602022F05F5</value>
						</metadata>
						<metadata>
							<storage>QuickTime</storage>
							<key>com.apple.quicktime.information</key>
							<size>64</size>
							<type>UTF8</type>
							<value>060a2b340101010501010d431300000054dd9486625405d408004602022f05f5</value>
						</metadata>
						<metadata>
							<storage>QuickTime</storage>
							<key>com.apple.proapps.originalFormat</key>
							<size>36</size>
							<type>UTF8</type>
							<value>Apple XDCAM EX 1080i50 (35 Mb/s VBR)</value>
						</metadata>
						<timecode>
							<rate>
								<timebase>25</timebase>
							</rate>
							<string>14:06:58:00</string>
							<frame>1270450</frame>
							<displayformat>NDF</displayformat>
							<source>source</source>
							<reel>
								<name>Untitled</name>
							</reel>
						</timecode>
						<media>
							<video>
								<duration>1358</duration>
								<samplecharacteristics>
									<width>1920</width>
									<height>1080</height>
								</samplecharacteristics>
							</video>
							<audio>
								<samplecharacteristics>
									<samplerate>48000</samplerate>
									<depth>16</depth>
								</samplecharacteristics>
								<channelcount>1</channelcount>
								<layout>mono</layout>
								<audiochannel>
									<sourcechannel>1</sourcechannel>
									<channellabel>discrete</channellabel>
								</audiochannel>
							</audio>
							<audio>
								<samplecharacteristics>
									<samplerate>48000</samplerate>
									<depth>16</depth>
								</samplecharacteristics>
								<channelcount>1</channelcount>
								<layout>mono</layout>
								<audiochannel>
									<sourcechannel>2</sourcechannel>
									<channellabel>discrete</channellabel>
								</audiochannel>
							</audio>
						</media>
					</file>
					<filter>
						<effect>
							<name>Basic Motion</name>
							<effectid>basic</effectid>
							<effectcategory>motion</effectcategory>
							<effecttype>motion</effecttype>
							<mediatype>video</mediatype>
							<parameter>
								<parameterid>scale</parameterid>
								<name>Scale</name>
								<valuemin>0</valuemin>
								<valuemax>1000</valuemax>
								<value>100</value>
							</parameter>
							<parameter>
								<parameterid>rotation</parameterid>
								<name>Rotation</name>
								<valuemin>-8640</valuemin>
								<valuemax>8640</valuemax>
								<value>0</value>
							</parameter>
							<parameter>
								<parameterid>center</parameterid>
								<name>Center</name>
								<value>
									<horiz>0</horiz>
									<vert>0</vert>
								</value>
							</parameter>
							<parameter>
								<parameterid>centerOffset</parameterid>
								<name>Anchor Point</name>
								<value>
									<horiz>0</horiz>
									<vert>0</vert>
								</value>
							</parameter>
						</effect>
					</filter>
					<filter>
						<enabled>FALSE</enabled>
						<effect>
							<name>Drop Shadow</name>
							<effectid>dropshadow</effectid>
							<effectcategory>motion</effectcategory>
							<effecttype>motion</effecttype>
							<mediatype>video</mediatype>
							<parameter>
								<parameterid>offset</parameterid>
								<name>offset</name>
								<valuemin>-100</valuemin>
								<valuemax>100</valuemax>
								<value>2</value>
							</parameter>
							<parameter>
								<parameterid>angle</parameterid>
								<name>angle</name>
								<valuemin>-720</valuemin>
								<valuemax>720</valuemax>
								<value>135</value>
							</parameter>
							<parameter>
								<parameterid>color</parameterid>
								<name>color</name>
								<value>
									<alpha>0</alpha>
									<red>0</red>
									<green>0</green>
									<blue>0</blue>
								</value>
							</parameter>
							<parameter>
								<parameterid>softness</parameterid>
								<name>softness</name>
								<valuemin>0</valuemin>
								<valuemax>100</valuemax>
								<value>10</value>
							</parameter>
							<parameter>
								<parameterid>opacity</parameterid>
								<name>opacity</name>
								<valuemin>0</valuemin>
								<valuemax>100</valuemax>
								<value>50</value>
							</parameter>
						</effect>
					</filter>
					<filter>
						<enabled>FALSE</enabled>
						<effect>
							<name>Motion Blur</name>
							<effectid>motionblur</effectid>
							<effectcategory>motion</effectcategory>
							<effecttype>motion</effecttype>
							<mediatype>video</mediatype>
							<parameter>
								<parameterid>duration</parameterid>
								<name>% Blur</name>
								<valuemin>0</valuemin>
								<valuemax>1000</valuemax>
								<value>13</value>
							</parameter>
							<parameter>
								<parameterid>samples</parameterid>
								<name>Samples</name>
								<valuemin>1</valuemin>
								<valuemax>16</valuemax>
								<value>4</value>
							</parameter>
						</effect>
					</filter>
					<filter>
						<effect>
							<name>Crop</name>
							<effectid>crop</effectid>
							<effectcategory>motion</effectcategory>
							<effecttype>motion</effecttype>
							<mediatype>video</mediatype>
							<parameter>
								<parameterid>left</parameterid>
								<name>left</name>
								<valuemin>0</valuemin>
								<valuemax>100</valuemax>
								<value>0</value>
							</parameter>
							<parameter>
								<parameterid>right</parameterid>
								<name>right</name>
								<valuemin>0</valuemin>
								<valuemax>100</valuemax>
								<value>0</value>
							</parameter>
							<parameter>
								<parameterid>top</parameterid>
								<name>top</name>
								<valuemin>0</valuemin>
								<valuemax>100</valuemax>
								<value>0</value>
							</parameter>
							<parameter>
								<parameterid>bottom</parameterid>
								<name>bottom</name>
								<valuemin>0</valuemin>
								<valuemax>100</valuemax>
								<value>0</value>
							</parameter>
							<parameter>
								<parameterid>edgefeather</parameterid>
								<name>edgefeather</name>
								<valuemin>0</valuemin>
								<valuemax>100</valuemax>
								<value>0</value>
							</parameter>
						</effect>
					</filter>
					<filter>
						<effect>
							<name>Distort</name>
							<effectid>deformation</effectid>
							<effectcategory>motion</effectcategory>
							<effecttype>motion</effecttype>
							<mediatype>video</mediatype>
							<parameter>
								<parameterid>ulcorner</parameterid>
								<name>Upper Left</name>
								<value>
									<horiz>-0.5</horiz>
									<vert>-0.5</vert>
								</value>
							</parameter>
							<parameter>
								<parameterid>urcorner</parameterid>
								<name>Upper Right</name>
								<value>
									<horiz>0.5</horiz>
									<vert>-0.5</vert>
								</value>
							</parameter>
							<parameter>
								<parameterid>lrcorner</parameterid>
								<name>Lower Right</name>
								<value>
									<horiz>0.5</horiz>
									<vert>0.5</vert>
								</value>
							</parameter>
							<parameter>
								<parameterid>llcorner</parameterid>
								<name>Lower Left</name>
								<value>
									<horiz>-0.5</horiz>
									<vert>0.5</vert>
								</value>
							</parameter>
							<parameter>
								<parameterid>aspect</parameterid>
								<name>Aspect</name>
								<valuemin>-10000</valuemin>
								<valuemax>10000</valuemax>
								<value>0</value>
							</parameter>
						</effect>
					</filter>
					<filter>
						<effect>
							<name>Opacity</name>
							<effectid>opacity</effectid>
							<effectcategory>motion</effectcategory>
							<effecttype>motion</effecttype>
							<mediatype>video</mediatype>
							<parameter>
								<parameterid>opacity</parameterid>
								<name>opacity</name>
								<valuemin>0</valuemin>
								<valuemax>100</valuemax>
								<value>100</value>
							</parameter>
						</effect>
					</filter>
					<sourcetrack>
						<mediatype>video</mediatype>
					</sourcetrack>
					<fielddominance>upper</fielddominance>
					<itemhistory>
						<uuid>64066467-C5ED-4265-B44B-82306BEF0B45</uuid>
					</itemhistory>
					<filter>
						<effect>
							<name>Time Remap</name>
							<effectid>timeremap</effectid>
							<effectcategory>motion</effectcategory>
							<effecttype>motion</effecttype>
							<mediatype>video</mediatype>
							<parameter>
								<parameterid>variablespeed</parameterid>
								<name>variablespeed</name>
								<valuemin>0</valuemin>
								<valuemax>1</valuemax>
								<value>1</value>
							</parameter>
							<parameter>
								<parameterid>mappedduration</parameterid>
								<name>mappedduration</name>
								<value>
									<timecode>
										<rate>
											<timebase>0</timebase>
										</rate>
										<string>0</string>
										<frame>0</frame>
										<displayformat>NDF</displayformat>
									</timecode>
								</value>
							</parameter>
							<parameter>
								<parameterid>speed</parameterid>
								<name>speed</name>
								<valuemin>-10000</valuemin>
								<valuemax>10000</valuemax>
								<value>692</value>
							</parameter>
							<parameter>
								<parameterid>reverse</parameterid>
								<name>reverse</name>
								<value>FALSE</value>
							</parameter>
							<parameter>
								<parameterid>frameblending</parameterid>
								<name>frameblending</name>
								<value>TRUE</value>
							</parameter>
							<parameter>
								<parameterid>graphdict</parameterid>
								<name>graphdict</name>
								<valuemin>0</valuemin>
								<valuemax>1357</valuemax>
								<keyframe>
									<when>0</when>
									<value>0</value>
									<speedkfstart>TRUE</speedkfstart>
									<speedvirtualkf>TRUE</speedvirtualkf>
								</keyframe>
								<keyframe>
									<when>351</when>
									<value>262.049</value>
									<speedkfin>TRUE</speedkfin>
									<speedvirtualkf>TRUE</speedvirtualkf>
								</keyframe>
								<keyframe>
									<when>386</when>
									<value>386</value>
									<inbez>
										<horiz>195.913</horiz>
										<vert>-1.7673</vert>
									</inbez>
									<outbez>
										<horiz>31.3471</horiz>
										<vert>1.41069</vert>
									</outbez>
								</keyframe>
								<keyframe>
									<when>408</when>
									<value>945</value>
									<inbez>
										<horiz>71.1101</horiz>
										<vert>-1.70354</vert>
									</inbez>
									<outbez>
										<horiz>233.476</horiz>
										<vert>1.4046</vert>
									</outbez>
								</keyframe>
								<keyframe>
									<when>489</when>
									<value>1212.41</value>
									<speedkfout>TRUE</speedkfout>
									<speedvirtualkf>TRUE</speedvirtualkf>
								</keyframe>
								<keyframe>
									<when>704</when>
									<value>1357</value>
								</keyframe>
								<keyframe>
									<when>1358</when>
									<value>1357</value>
									<speedkfend>TRUE</speedkfend>
									<speedvirtualkf>TRUE</speedvirtualkf>
								</keyframe>
								<interpolation>
									<name>FCPCurve</name>
								</interpolation>
								<value>262.049</value>
							</parameter>
						</effect>
					</filter>
				</clipitem>
				<clipitem id="DYR18707_01 ">
					<name>DYR18707_01</name>
					<duration>976</duration>
					<rate>
						<ntsc>FALSE</ntsc>
						<timebase>25</timebase>
					</rate>
					<in>426</in>
					<out>550</out>
					<start>25646</start>
					<end>25770</end>
					<pixelaspectratio>Square</pixelaspectratio>
					<enabled>TRUE</enabled>
					<anamorphic>FALSE</anamorphic>
					<alphatype>none</alphatype>
					<masterclipid>DYR18707_01 1</masterclipid>
					<logginginfo>
						<scene/>
						<shottake/>
						<lognote/>
						<good>FALSE</good>
					</logginginfo>
					<labels>
						<label2/>
					</labels>
					<comments>
						<mastercomment1/>
						<mastercomment2/>
						<mastercomment3/>
						<mastercomment4/>
					</comments>
					<file id="DYR18707_01 2">
						<name>DYR18707_01.mov</name>
						<pathurl>file://localhost/Volumes/Askepott/Prosjekter/DNPR637010_Kra%CC%8Akeklubben_TEM_011212/Video/MUSIKKVIDEO/Treet/DYR18707_01.mov</pathurl>
						<rate>
							<timebase>25</timebase>
						</rate>
						<duration>976</duration>
						<metadata>
							<storage>QuickTime</storage>
							<key>com.sony.bprl.xdcamtransfer.version</key>
							<size>10</size>
							<type>UTF8</type>
							<value>2.12.0.631</value>
						</metadata>
						<metadata>
							<storage>QuickTime</storage>
							<key>org.smpte.mxf.package.material.packageid</key>
							<size>66</size>
							<type>UTF8</type>
							<value>0x060a2b340101010501010d43130000009620ed7a625405cb08004602022f05f5</value>
						</metadata>
						<metadata>
							<storage>QuickTime</storage>
							<key>com.sony.professionaldisc.nonrealtimemeta.lastupdate</key>
							<size>25</size>
							<type>UTF8</type>
							<value>2010-09-23 12:32:07 +0100</value>
						</metadata>
						<metadata>
							<storage>QuickTime</storage>
							<key>com.sony.bprl.mxf.umid</key>
							<size>64</size>
							<type>UTF8</type>
							<value>060a2b340101010501010d43130000009620ed7a625405cb08004602022f05f5</value>
						</metadata>
						<metadata>
							<storage>QuickTime</storage>
							<key>com.sony.bprl.mxf.nrtmetadata</key>
							<size>1991</size>
							<type>UTF8</type>
							<value>&lt;?xml version="1.0" encoding="UTF-8"?>&lt;NonRealTimeMeta xmlns="urn:schemas-professionalDisc:nonRealTimeMeta:ver.1.20" xmlns:lib="urn:schemas-professionalDisc:lib:ver.1.20" xmlns:xsi="http://www.w3.org/2001/XMLSchema-instance" lastUpdate="2010-09-23T12:32:07+01:00">&lt;TargetMaterial umidRef="060A2B340101010501010D43130000009620ED7A625405CB08004602022F05F5">&lt;/TargetMaterial>&lt;Duration value="976">&lt;/Duration>&lt;LtcChangeTable tcFps="25" halfStep="false">&lt;LtcChange frameCount="0" value="14345613" status="increment">&lt;/LtcChange>&lt;LtcChange frameCount="975" value="14135713" status="end">&lt;/LtcChange>&lt;/LtcChangeTable>&lt;CreationDate value="2010-09-23T12:31:27+01:00">&lt;/CreationDate>&lt;TypicalUbit value="0000000017061020">&lt;/TypicalUbit>&lt;BodyUmidBasicChangeTable>&lt;BodyUmidBasicChange frameCount="0" value="060A2B340101010501010D43330000009620ED7A625405CB08004602022F05F5" status="start">&lt;/BodyUmidBasicChange>&lt;/BodyUmidBasicChangeTable>&lt;BodyUmidWhenChangeTable>&lt;BodyUmidWhenChange frameCount="0" value="C4E4F403625405A5" status="increment">&lt;/BodyUmidWhenChange>&lt;BodyUmidWhenChange frameCount="975" value="84D8F503625405A5" status="end">&lt;/BodyUmidWhenChange>&lt;/BodyUmidWhenChangeTable>&lt;KlvPacketTable>&lt;KlvPacket key="060E2B34010101050301020A02000000" frameCount="0" lengthValue="095F5265635374617274" status="spot">&lt;/KlvPacket>&lt;/KlvPacketTable>&lt;VideoFormat>&lt;VideoRecPort port="DIRECT">&lt;/VideoRecPort>&lt;VideoFrame videoCodec="MPEG2HD35_1920_1080_MP@HL" captureFps="50.00i" recFps="50.00" formatFps="50i">&lt;/VideoFrame>&lt;VideoLayout pixel="1920" numOfVerticalLine="1080" aspectRatio="16:9">&lt;/VideoLayout>&lt;/VideoFormat>&lt;AudioFormat numOfChannel="2">&lt;AudioRecPort port="DIRECT" audioCodec="LPCM16" trackDst="CH1">&lt;/AudioRecPort>&lt;AudioRecPort port="DIRECT" audioCodec="LPCM16" trackDst="CH2">&lt;/AudioRecPort>&lt;/AudioFormat>&lt;Device manufacturer="Sony" modelName="PMW-EX3" serialNo="0401525">&lt;/Device>&lt;Lens modelName="VCL-614B2X">&lt;/Lens>&lt;RecordingMode type="normal" cacheRec="false">&lt;/RecordingMode>&lt;/NonRealTimeMeta>
							</value>
						</metadata>
						<metadata>
							<storage>QuickTime</storage>
							<key>com.apple.proapps.reel</key>
							<size>8</size>
							<type>UTF8</type>
							<value>Untitled</value>
						</metadata>
						<metadata>
							<storage>QuickTime</storage>
							<key>com.apple.proapps.clipID</key>
							<size>64</size>
							<type>UTF8</type>
							<value>060A2B340101010501010D43130000009620ED7A625405CB08004602022F05F5</value>
						</metadata>
						<metadata>
							<storage>QuickTime</storage>
							<key>com.apple.quicktime.information</key>
							<size>64</size>
							<type>UTF8</type>
							<value>060a2b340101010501010d43130000009620ed7a625405cb08004602022f05f5</value>
						</metadata>
						<metadata>
							<storage>QuickTime</storage>
							<key>com.apple.proapps.originalFormat</key>
							<size>36</size>
							<type>UTF8</type>
							<value>Apple XDCAM EX 1080i50 (35 Mb/s VBR)</value>
						</metadata>
						<timecode>
							<rate>
								<timebase>25</timebase>
							</rate>
							<string>13:56:34:14</string>
							<frame>1254864</frame>
							<displayformat>NDF</displayformat>
							<source>source</source>
							<reel>
								<name>Untitled</name>
							</reel>
						</timecode>
						<media>
							<video>
								<duration>976</duration>
								<samplecharacteristics>
									<width>1920</width>
									<height>1080</height>
								</samplecharacteristics>
							</video>
							<audio>
								<samplecharacteristics>
									<samplerate>48000</samplerate>
									<depth>16</depth>
								</samplecharacteristics>
								<channelcount>1</channelcount>
								<layout>mono</layout>
								<audiochannel>
									<sourcechannel>1</sourcechannel>
									<channellabel>discrete</channellabel>
								</audiochannel>
							</audio>
							<audio>
								<samplecharacteristics>
									<samplerate>48000</samplerate>
									<depth>16</depth>
								</samplecharacteristics>
								<channelcount>1</channelcount>
								<layout>mono</layout>
								<audiochannel>
									<sourcechannel>2</sourcechannel>
									<channellabel>discrete</channellabel>
								</audiochannel>
							</audio>
						</media>
					</file>
					<sourcetrack>
						<mediatype>video</mediatype>
					</sourcetrack>
					<fielddominance>upper</fielddominance>
					<itemhistory>
						<uuid>AA53A966-6CA8-4933-A0AA-DF511B48326E</uuid>
					</itemhistory>
				</clipitem>
				<clipitem id="DYR18713_01 ">
					<name>DYR18713_01</name>
					<duration>774</duration>
					<rate>
						<ntsc>FALSE</ntsc>
						<timebase>25</timebase>
					</rate>
					<in>355</in>
					<out>465</out>
					<start>25770</start>
					<end>25880</end>
					<pixelaspectratio>Square</pixelaspectratio>
					<enabled>TRUE</enabled>
					<anamorphic>FALSE</anamorphic>
					<alphatype>none</alphatype>
					<masterclipid>DYR18713_01 1</masterclipid>
					<logginginfo>
						<scene/>
						<shottake/>
						<lognote/>
						<good>FALSE</good>
					</logginginfo>
					<labels>
						<label2/>
					</labels>
					<comments>
						<mastercomment1/>
						<mastercomment2/>
						<mastercomment3/>
						<mastercomment4/>
					</comments>
					<file id="DYR18713_01 2">
						<name>DYR18713_01.mov</name>
						<pathurl>file://localhost/Volumes/Askepott/Prosjekter/DNPR637010_Kra%CC%8Akeklubben_TEM_011212/Video/MUSIKKVIDEO/Treet/DYR18713_01.mov</pathurl>
						<rate>
							<timebase>25</timebase>
						</rate>
						<duration>774</duration>
						<metadata>
							<storage>QuickTime</storage>
							<key>com.sony.bprl.xdcamtransfer.version</key>
							<size>10</size>
							<type>UTF8</type>
							<value>2.12.0.631</value>
						</metadata>
						<metadata>
							<storage>QuickTime</storage>
							<key>org.smpte.mxf.package.material.packageid</key>
							<size>66</size>
							<type>UTF8</type>
							<value>0x060a2b340101010501010d4313000000764d837c625405d308004602022f05f5</value>
						</metadata>
						<metadata>
							<storage>QuickTime</storage>
							<key>com.sony.professionaldisc.nonrealtimemeta.lastupdate</key>
							<size>25</size>
							<type>UTF8</type>
							<value>2010-09-23 12:40:55 +0100</value>
						</metadata>
						<metadata>
							<storage>QuickTime</storage>
							<key>com.sony.bprl.mxf.umid</key>
							<size>64</size>
							<type>UTF8</type>
							<value>060a2b340101010501010d4313000000764d837c625405d308004602022f05f5</value>
						</metadata>
						<metadata>
							<storage>QuickTime</storage>
							<key>com.sony.bprl.mxf.nrtmetadata</key>
							<size>1991</size>
							<type>UTF8</type>
							<value>&lt;?xml version="1.0" encoding="UTF-8"?>&lt;NonRealTimeMeta xmlns="urn:schemas-professionalDisc:nonRealTimeMeta:ver.1.20" xmlns:lib="urn:schemas-professionalDisc:lib:ver.1.20" xmlns:xsi="http://www.w3.org/2001/XMLSchema-instance" lastUpdate="2010-09-23T12:40:55+01:00">&lt;TargetMaterial umidRef="060A2B340101010501010D4313000000764D837C625405D308004602022F05F5">&lt;/TargetMaterial>&lt;Duration value="774">&lt;/Duration>&lt;LtcChangeTable tcFps="25" halfStep="false">&lt;LtcChange frameCount="0" value="06445913" status="increment">&lt;/LtcChange>&lt;LtcChange frameCount="773" value="04150014" status="end">&lt;/LtcChange>&lt;/LtcChangeTable>&lt;CreationDate value="2010-09-23T12:40:23+01:00">&lt;/CreationDate>&lt;TypicalUbit value="0000000017061020">&lt;/TypicalUbit>&lt;BodyUmidBasicChangeTable>&lt;BodyUmidBasicChange frameCount="0" value="060A2B340101010501010D4333000000764D837C625405D308004602022F05F5" status="start">&lt;/BodyUmidBasicChange>&lt;/BodyUmidBasicChangeTable>&lt;BodyUmidWhenChangeTable>&lt;BodyUmidWhenChange frameCount="0" value="84F70104625405A5" status="increment">&lt;/BodyUmidWhenChange>&lt;BodyUmidWhenChange frameCount="773" value="C4B80204625405A5" status="end">&lt;/BodyUmidWhenChange>&lt;/BodyUmidWhenChangeTable>&lt;KlvPacketTable>&lt;KlvPacket key="060E2B34010101050301020A02000000" frameCount="0" lengthValue="095F5265635374617274" status="spot">&lt;/KlvPacket>&lt;/KlvPacketTable>&lt;VideoFormat>&lt;VideoRecPort port="DIRECT">&lt;/VideoRecPort>&lt;VideoFrame videoCodec="MPEG2HD35_1920_1080_MP@HL" captureFps="50.00i" recFps="50.00" formatFps="50i">&lt;/VideoFrame>&lt;VideoLayout pixel="1920" numOfVerticalLine="1080" aspectRatio="16:9">&lt;/VideoLayout>&lt;/VideoFormat>&lt;AudioFormat numOfChannel="2">&lt;AudioRecPort port="DIRECT" audioCodec="LPCM16" trackDst="CH1">&lt;/AudioRecPort>&lt;AudioRecPort port="DIRECT" audioCodec="LPCM16" trackDst="CH2">&lt;/AudioRecPort>&lt;/AudioFormat>&lt;Device manufacturer="Sony" modelName="PMW-EX3" serialNo="0401525">&lt;/Device>&lt;Lens modelName="VCL-614B2X">&lt;/Lens>&lt;RecordingMode type="normal" cacheRec="false">&lt;/RecordingMode>&lt;/NonRealTimeMeta>
							</value>
						</metadata>
						<metadata>
							<storage>QuickTime</storage>
							<key>com.apple.proapps.reel</key>
							<size>8</size>
							<type>UTF8</type>
							<value>Untitled</value>
						</metadata>
						<metadata>
							<storage>QuickTime</storage>
							<key>com.apple.proapps.clipID</key>
							<size>64</size>
							<type>UTF8</type>
							<value>060A2B340101010501010D4313000000764D837C625405D308004602022F05F5</value>
						</metadata>
						<metadata>
							<storage>QuickTime</storage>
							<key>com.apple.quicktime.information</key>
							<size>64</size>
							<type>UTF8</type>
							<value>060a2b340101010501010d4313000000764d837c625405d308004602022f05f5</value>
						</metadata>
						<metadata>
							<storage>QuickTime</storage>
							<key>com.apple.proapps.originalFormat</key>
							<size>36</size>
							<type>UTF8</type>
							<value>Apple XDCAM EX 1080i50 (35 Mb/s VBR)</value>
						</metadata>
						<timecode>
							<rate>
								<timebase>25</timebase>
							</rate>
							<string>13:59:44:06</string>
							<frame>1259606</frame>
							<displayformat>NDF</displayformat>
							<source>source</source>
							<reel>
								<name>Untitled</name>
							</reel>
						</timecode>
						<media>
							<video>
								<duration>774</duration>
								<samplecharacteristics>
									<width>1920</width>
									<height>1080</height>
								</samplecharacteristics>
							</video>
							<audio>
								<samplecharacteristics>
									<samplerate>48000</samplerate>
									<depth>16</depth>
								</samplecharacteristics>
								<channelcount>1</channelcount>
								<layout>mono</layout>
								<audiochannel>
									<sourcechannel>1</sourcechannel>
									<channellabel>discrete</channellabel>
								</audiochannel>
							</audio>
							<audio>
								<samplecharacteristics>
									<samplerate>48000</samplerate>
									<depth>16</depth>
								</samplecharacteristics>
								<channelcount>1</channelcount>
								<layout>mono</layout>
								<audiochannel>
									<sourcechannel>2</sourcechannel>
									<channellabel>discrete</channellabel>
								</audiochannel>
							</audio>
						</media>
					</file>
					<filter>
						<enabled>TRUE</enabled>
						<start>-1</start>
						<end>-1</end>
						<effect>
							<name>Color Corrector 3-way</name>
							<effectid>Color Corrector 3-way</effectid>
							<effectcategory>Color Correction</effectcategory>
							<effecttype>filter</effecttype>
							<mediatype>video</mediatype>
							<parameter>
								<parameterid>dispmode</parameterid>
								<name>Display Mode</name>
								<valuemin>1</valuemin>
								<valuemax>3</valuemax>
								<valuelist>
									<valueentry>
										<name>Final</name>
										<value>1</value>
									</valueentry>
									<valueentry>
										<name>Matte</name>
										<value>2</value>
									</valueentry>
									<valueentry>
										<name>Source</name>
										<value>3</value>
									</valueentry>
								</valuelist>
								<value>1</value>
							</parameter>
							<parameter>
								<parameterid>label1</parameterid>
								<name>Blacks Controls</name>
								<value/>
							</parameter>
							<parameter>
								<parameterid>blacklevel</parameterid>
								<name>Level</name>
								<valuemin>-196</valuemin>
								<valuemax>254</valuemax>
								<value>0</value>
							</parameter>
							<parameter>
								<parameterid>b_hue</parameterid>
								<name>Angle</name>
								<valuemin>-180</valuemin>
								<valuemax>180</valuemax>
								<value>-33</value>
							</parameter>
							<parameter>
								<parameterid>b_mag</parameterid>
								<name>Magnitude</name>
								<valuemin>0</valuemin>
								<valuemax>200</valuemax>
								<value>0</value>
							</parameter>
							<parameter>
								<parameterid>label2</parameterid>
								<name>Midrange Controls</name>
								<value/>
							</parameter>
							<parameter>
								<parameterid>mids</parameterid>
								<name>Level</name>
								<valuemin>0</valuemin>
								<valuemax>200</valuemax>
								<value>104</value>
							</parameter>
							<parameter>
								<parameterid>m_hue</parameterid>
								<name>Angle</name>
								<valuemin>-180</valuemin>
								<valuemax>180</valuemax>
								<value>-33</value>
							</parameter>
							<parameter>
								<parameterid>m_mag</parameterid>
								<name>Magnitude</name>
								<valuemin>0</valuemin>
								<valuemax>200</valuemax>
								<value>0</value>
							</parameter>
							<parameter>
								<parameterid>label3</parameterid>
								<name>Highlight Controls</name>
								<value/>
							</parameter>
							<parameter>
								<parameterid>highlights</parameterid>
								<name>Level</name>
								<valuemin>64</valuemin>
								<valuemax>509</valuemax>
								<value>255</value>
							</parameter>
							<parameter>
								<parameterid>h_hue</parameterid>
								<name>Angle</name>
								<valuemin>-180</valuemin>
								<valuemax>180</valuemax>
								<value>-33</value>
							</parameter>
							<parameter>
								<parameterid>h_mag</parameterid>
								<name>Magnitude</name>
								<valuemin>0</valuemin>
								<valuemax>200</valuemax>
								<value>0</value>
							</parameter>
							<parameter>
								<parameterid>label4</parameterid>
								<name>Color Controls</name>
								<value/>
							</parameter>
							<parameter>
								<parameterid>chroma</parameterid>
								<name>Saturation</name>
								<valuemin>0</valuemin>
								<valuemax>200</valuemax>
								<value>100</value>
							</parameter>
							<parameter>
								<parameterid>label5</parameterid>
								<name>Limit Effect Controls</name>
								<value/>
							</parameter>
							<parameter>
								<parameterid>dochroma</parameterid>
								<name>Limit on Chroma</name>
								<value>FALSE</value>
							</parameter>
							<parameter>
								<parameterid>centerang</parameterid>
								<name>Chroma Center</name>
								<valuemin>-760</valuemin>
								<valuemax>760</valuemax>
								<value>-110</value>
							</parameter>
							<parameter>
								<parameterid>chromawidth</parameterid>
								<name>Chroma Width</name>
								<valuemin>0</valuemin>
								<valuemax>360</valuemax>
								<value>15</value>
							</parameter>
							<parameter>
								<parameterid>chromasoft</parameterid>
								<name>Chroma Softness</name>
								<valuemin>0</valuemin>
								<valuemax>180</valuemax>
								<value>10</value>
							</parameter>
							<parameter>
								<parameterid>dosat</parameterid>
								<name>Limit on Saturation</name>
								<value>FALSE</value>
							</parameter>
							<parameter>
								<parameterid>satmin</parameterid>
								<name>Sat. Minimum</name>
								<valuemin>0</valuemin>
								<valuemax>125</valuemax>
								<value>35</value>
							</parameter>
							<parameter>
								<parameterid>satwidth</parameterid>
								<name>Sat. Width</name>
								<valuemin>0</valuemin>
								<valuemax>125</valuemax>
								<value>40</value>
							</parameter>
							<parameter>
								<parameterid>satsoft</parameterid>
								<name>Sat. Softness</name>
								<valuemin>0</valuemin>
								<valuemax>125</valuemax>
								<value>20</value>
							</parameter>
							<parameter>
								<parameterid>doluma</parameterid>
								<name>Limit on Luma</name>
								<value>FALSE</value>
							</parameter>
							<parameter>
								<parameterid>lumamin</parameterid>
								<name>Luma Minimum</name>
								<valuemin>0</valuemin>
								<valuemax>120</valuemax>
								<value>0</value>
							</parameter>
							<parameter>
								<parameterid>lumawidth</parameterid>
								<name>Luma Width</name>
								<valuemin>0</valuemin>
								<valuemax>120</valuemax>
								<value>40</value>
							</parameter>
							<parameter>
								<parameterid>lumasoft</parameterid>
								<name>Luma Softness</name>
								<valuemin>0</valuemin>
								<valuemax>120</valuemax>
								<value>20</value>
							</parameter>
							<parameter>
								<parameterid>label6</parameterid>
								<name>Edge Control</name>
								<value/>
							</parameter>
							<parameter>
								<parameterid>edgethin</parameterid>
								<name>Thin/Spread</name>
								<valuemin>-100</valuemin>
								<valuemax>100</valuemax>
								<value>0</value>
							</parameter>
							<parameter>
								<parameterid>edgefeather</parameterid>
								<name>Softening</name>
								<valuemin>0</valuemin>
								<valuemax>100</valuemax>
								<value>0</value>
							</parameter>
							<parameter>
								<parameterid>label7</parameterid>
								<name>Mask Control</name>
								<value/>
							</parameter>
							<parameter>
								<parameterid>invertsel</parameterid>
								<name>Invert</name>
								<value>FALSE</value>
							</parameter>
							<parameter>
								<parameterid>debugshow</parameterid>
								<name>Show Stats</name>
								<value>FALSE</value>
							</parameter>
						</effect>
					</filter>
					<sourcetrack>
						<mediatype>video</mediatype>
					</sourcetrack>
					<fielddominance>upper</fielddominance>
					<itemhistory>
						<uuid>E016D9ED-7A23-4249-BDB5-D38ED6A4C9FA</uuid>
					</itemhistory>
				</clipitem>
				<clipitem id="DYR18714_01 ">
					<name>DYR18714_01</name>
					<duration>1016</duration>
					<rate>
						<ntsc>FALSE</ntsc>
						<timebase>25</timebase>
					</rate>
					<in>429</in>
					<out>499</out>
					<start>25880</start>
					<end>25950</end>
					<pixelaspectratio>Square</pixelaspectratio>
					<enabled>TRUE</enabled>
					<anamorphic>FALSE</anamorphic>
					<alphatype>none</alphatype>
					<masterclipid>DYR18714_01 1</masterclipid>
					<logginginfo>
						<scene/>
						<shottake/>
						<lognote/>
						<good>FALSE</good>
					</logginginfo>
					<labels>
						<label2/>
					</labels>
					<comments>
						<mastercomment1/>
						<mastercomment2/>
						<mastercomment3/>
						<mastercomment4/>
					</comments>
					<file id="DYR18714_01 2">
						<name>DYR18714_01.mov</name>
						<pathurl>file://localhost/Volumes/Askepott/Prosjekter/DNPR637010_Kra%CC%8Akeklubben_TEM_011212/Video/MUSIKKVIDEO/Treet/DYR18714_01.mov</pathurl>
						<rate>
							<timebase>25</timebase>
						</rate>
						<duration>1016</duration>
						<metadata>
							<storage>QuickTime</storage>
							<key>com.sony.bprl.xdcamtransfer.version</key>
							<size>10</size>
							<type>UTF8</type>
							<value>2.12.0.631</value>
						</metadata>
						<metadata>
							<storage>QuickTime</storage>
							<key>org.smpte.mxf.package.material.packageid</key>
							<size>66</size>
							<type>UTF8</type>
							<value>0x060a2b340101010501010d4313000000b8ea227d625405cd08004602022f05f5</value>
						</metadata>
						<metadata>
							<storage>QuickTime</storage>
							<key>com.sony.professionaldisc.nonrealtimemeta.lastupdate</key>
							<size>25</size>
							<type>UTF8</type>
							<value>2010-09-23 12:44:35 +0100</value>
						</metadata>
						<metadata>
							<storage>QuickTime</storage>
							<key>com.sony.bprl.mxf.umid</key>
							<size>64</size>
							<type>UTF8</type>
							<value>060a2b340101010501010d4313000000b8ea227d625405cd08004602022f05f5</value>
						</metadata>
						<metadata>
							<storage>QuickTime</storage>
							<key>com.sony.bprl.mxf.nrtmetadata</key>
							<size>1994</size>
							<type>UTF8</type>
							<value>&lt;?xml version="1.0" encoding="UTF-8"?>&lt;NonRealTimeMeta xmlns="urn:schemas-professionalDisc:nonRealTimeMeta:ver.1.20" xmlns:lib="urn:schemas-professionalDisc:lib:ver.1.20" xmlns:xsi="http://www.w3.org/2001/XMLSchema-instance" lastUpdate="2010-09-23T12:44:35+01:00">&lt;TargetMaterial umidRef="060A2B340101010501010D4313000000B8EA227D625405CD08004602022F05F5">&lt;/TargetMaterial>&lt;Duration value="1016">&lt;/Duration>&lt;LtcChangeTable tcFps="25" halfStep="false">&lt;LtcChange frameCount="0" value="05150014" status="increment">&lt;/LtcChange>&lt;LtcChange frameCount="1015" value="20550014" status="end">&lt;/LtcChange>&lt;/LtcChangeTable>&lt;CreationDate value="2010-09-23T12:43:53+01:00">&lt;/CreationDate>&lt;TypicalUbit value="0000000017061020">&lt;/TypicalUbit>&lt;BodyUmidBasicChangeTable>&lt;BodyUmidBasicChange frameCount="0" value="060A2B340101010501010D4333000000B8EA227D625405CD08004602022F05F5" status="start">&lt;/BodyUmidBasicChange>&lt;/BodyUmidBasicChangeTable>&lt;BodyUmidWhenChangeTable>&lt;BodyUmidWhenChange frameCount="0" value="C41A0704625405A5" status="increment">&lt;/BodyUmidWhenChange>&lt;BodyUmidWhenChange frameCount="1015" value="84180804625405A5" status="end">&lt;/BodyUmidWhenChange>&lt;/BodyUmidWhenChangeTable>&lt;KlvPacketTable>&lt;KlvPacket key="060E2B34010101050301020A02000000" frameCount="0" lengthValue="095F5265635374617274" status="spot">&lt;/KlvPacket>&lt;/KlvPacketTable>&lt;VideoFormat>&lt;VideoRecPort port="DIRECT">&lt;/VideoRecPort>&lt;VideoFrame videoCodec="MPEG2HD35_1920_1080_MP@HL" captureFps="50.00i" recFps="50.00" formatFps="50i">&lt;/VideoFrame>&lt;VideoLayout pixel="1920" numOfVerticalLine="1080" aspectRatio="16:9">&lt;/VideoLayout>&lt;/VideoFormat>&lt;AudioFormat numOfChannel="2">&lt;AudioRecPort port="DIRECT" audioCodec="LPCM16" trackDst="CH1">&lt;/AudioRecPort>&lt;AudioRecPort port="DIRECT" audioCodec="LPCM16" trackDst="CH2">&lt;/AudioRecPort>&lt;/AudioFormat>&lt;Device manufacturer="Sony" modelName="PMW-EX3" serialNo="0401525">&lt;/Device>&lt;Lens modelName="VCL-614B2X">&lt;/Lens>&lt;RecordingMode type="normal" cacheRec="false">&lt;/RecordingMode>&lt;/NonRealTimeMeta>
							</value>
						</metadata>
						<metadata>
							<storage>QuickTime</storage>
							<key>com.apple.proapps.reel</key>
							<size>8</size>
							<type>UTF8</type>
							<value>Untitled</value>
						</metadata>
						<metadata>
							<storage>QuickTime</storage>
							<key>com.apple.proapps.clipID</key>
							<size>64</size>
							<type>UTF8</type>
							<value>060A2B340101010501010D4313000000B8EA227D625405CD08004602022F05F5</value>
						</metadata>
						<metadata>
							<storage>QuickTime</storage>
							<key>com.apple.quicktime.information</key>
							<size>64</size>
							<type>UTF8</type>
							<value>060a2b340101010501010d4313000000b8ea227d625405cd08004602022f05f5</value>
						</metadata>
						<metadata>
							<storage>QuickTime</storage>
							<key>com.apple.proapps.originalFormat</key>
							<size>36</size>
							<type>UTF8</type>
							<value>Apple XDCAM EX 1080i50 (35 Mb/s VBR)</value>
						</metadata>
						<timecode>
							<rate>
								<timebase>25</timebase>
							</rate>
							<string>14:00:15:05</string>
							<frame>1260380</frame>
							<displayformat>NDF</displayformat>
							<source>source</source>
							<reel>
								<name>Untitled</name>
							</reel>
						</timecode>
						<media>
							<video>
								<duration>1016</duration>
								<samplecharacteristics>
									<width>1920</width>
									<height>1080</height>
								</samplecharacteristics>
							</video>
							<audio>
								<samplecharacteristics>
									<samplerate>48000</samplerate>
									<depth>16</depth>
								</samplecharacteristics>
								<channelcount>1</channelcount>
								<layout>mono</layout>
								<audiochannel>
									<sourcechannel>1</sourcechannel>
									<channellabel>discrete</channellabel>
								</audiochannel>
							</audio>
							<audio>
								<samplecharacteristics>
									<samplerate>48000</samplerate>
									<depth>16</depth>
								</samplecharacteristics>
								<channelcount>1</channelcount>
								<layout>mono</layout>
								<audiochannel>
									<sourcechannel>2</sourcechannel>
									<channellabel>discrete</channellabel>
								</audiochannel>
							</audio>
						</media>
					</file>
					<sourcetrack>
						<mediatype>video</mediatype>
					</sourcetrack>
					<fielddominance>upper</fielddominance>
					<itemhistory>
						<uuid>7665FEEC-979A-4785-99FD-633530C48D91</uuid>
					</itemhistory>
				</clipitem>
				<clipitem id="DYR18714_01 3">
					<name>DYR18714_01</name>
					<duration>1016</duration>
					<rate>
						<ntsc>FALSE</ntsc>
						<timebase>25</timebase>
					</rate>
					<in>157</in>
					<out>222</out>
					<start>25950</start>
					<end>26015</end>
					<pixelaspectratio>Square</pixelaspectratio>
					<enabled>TRUE</enabled>
					<anamorphic>FALSE</anamorphic>
					<alphatype>none</alphatype>
					<masterclipid>DYR18714_01 1</masterclipid>
					<logginginfo>
						<scene/>
						<shottake/>
						<lognote/>
						<good>FALSE</good>
					</logginginfo>
					<labels>
						<label2/>
					</labels>
					<comments>
						<mastercomment1/>
						<mastercomment2/>
						<mastercomment3/>
						<mastercomment4/>
					</comments>
					<file id="DYR18714_01 2"/>
					<sourcetrack>
						<mediatype>video</mediatype>
					</sourcetrack>
					<fielddominance>upper</fielddominance>
					<itemhistory>
						<uuid>E347E9E6-29CF-4AC6-8773-9DF133C78D58</uuid>
					</itemhistory>
				</clipitem>
				<clipitem id="DYR18585_01 3">
					<name>DYR18585_01</name>
					<duration>3851</duration>
					<rate>
						<ntsc>FALSE</ntsc>
						<timebase>25</timebase>
					</rate>
					<in>2152</in>
					<out>2178</out>
					<start>26015</start>
					<end>26041</end>
					<pixelaspectratio>Square</pixelaspectratio>
					<enabled>TRUE</enabled>
					<anamorphic>FALSE</anamorphic>
					<alphatype>none</alphatype>
					<masterclipid>DYR18585_01 1</masterclipid>
					<logginginfo>
						<scene/>
						<shottake/>
						<lognote/>
						<good>FALSE</good>
					</logginginfo>
					<labels>
						<label2/>
					</labels>
					<comments>
						<mastercomment1/>
						<mastercomment2/>
						<mastercomment3/>
						<mastercomment4/>
					</comments>
					<file id="DYR18585_01 2"/>
					<sourcetrack>
						<mediatype>video</mediatype>
					</sourcetrack>
					<fielddominance>upper</fielddominance>
					<itemhistory>
						<uuid>2543CAA7-E016-4EA8-A366-523DEF33B536</uuid>
					</itemhistory>
				</clipitem>
				<clipitem id="DYR18584_01 4">
					<name>DYR18584_01</name>
					<duration>2638</duration>
					<rate>
						<ntsc>FALSE</ntsc>
						<timebase>25</timebase>
					</rate>
					<in>1462</in>
					<out>1511</out>
					<start>26041</start>
					<end>26090</end>
					<pixelaspectratio>Square</pixelaspectratio>
					<anamorphic>FALSE</anamorphic>
					<alphatype>none</alphatype>
					<masterclipid>DYR18584_01 1</masterclipid>
					<logginginfo>
						<scene/>
						<shottake/>
						<lognote/>
						<good>FALSE</good>
					</logginginfo>
					<labels>
						<label2/>
					</labels>
					<comments>
						<mastercomment1/>
						<mastercomment2/>
						<mastercomment3/>
						<mastercomment4/>
					</comments>
					<file id="DYR18584_01 2"/>
					<sourcetrack>
						<mediatype>video</mediatype>
					</sourcetrack>
					<fielddominance>upper</fielddominance>
					<itemhistory>
						<uuid>3E0D1463-50EE-4BBA-9B81-D4827F925F65</uuid>
					</itemhistory>
				</clipitem>
				<clipitem id="DYR18590_01 ">
					<name>DYR18590_01</name>
					<duration>1353</duration>
					<rate>
						<ntsc>FALSE</ntsc>
						<timebase>25</timebase>
					</rate>
					<in>441</in>
					<out>470</out>
					<start>26090</start>
					<end>26119</end>
					<pixelaspectratio>Square</pixelaspectratio>
					<enabled>TRUE</enabled>
					<anamorphic>FALSE</anamorphic>
					<alphatype>none</alphatype>
					<masterclipid>DYR18590_01 1</masterclipid>
					<logginginfo>
						<scene/>
						<shottake/>
						<lognote/>
						<good>FALSE</good>
					</logginginfo>
					<labels>
						<label2/>
					</labels>
					<comments>
						<mastercomment1/>
						<mastercomment2/>
						<mastercomment3/>
						<mastercomment4/>
					</comments>
					<file id="DYR18590_01 2">
						<name>DYR18590_01.mov</name>
						<pathurl>file://localhost/Volumes/Askepott/Prosjekter/DNPR637010_Kra%CC%8Akeklubben_TEM_011212/Video/MUSIKKVIDEO/Treet/DYR18590_01.mov</pathurl>
						<rate>
							<timebase>25</timebase>
						</rate>
						<duration>1353</duration>
						<metadata>
							<storage>QuickTime</storage>
							<key>com.sony.bprl.xdcamtransfer.version</key>
							<size>10</size>
							<type>UTF8</type>
							<value>2.12.0.631</value>
						</metadata>
						<metadata>
							<storage>QuickTime</storage>
							<key>org.smpte.mxf.package.material.packageid</key>
							<size>66</size>
							<type>UTF8</type>
							<value>0x060a2b340101010501010d431300000061053e63615405da08004602022f05f5</value>
						</metadata>
						<metadata>
							<storage>QuickTime</storage>
							<key>com.sony.professionaldisc.nonrealtimemeta.lastupdate</key>
							<size>25</size>
							<type>UTF8</type>
							<value>2010-09-22 10:19:09 +0100</value>
						</metadata>
						<metadata>
							<storage>QuickTime</storage>
							<key>com.sony.bprl.mxf.umid</key>
							<size>64</size>
							<type>UTF8</type>
							<value>060a2b340101010501010d431300000061053e63615405da08004602022f05f5</value>
						</metadata>
						<metadata>
							<storage>QuickTime</storage>
							<key>com.sony.bprl.mxf.nrtmetadata</key>
							<size>1994</size>
							<type>UTF8</type>
							<value>&lt;?xml version="1.0" encoding="UTF-8"?>&lt;NonRealTimeMeta xmlns="urn:schemas-professionalDisc:nonRealTimeMeta:ver.1.20" xmlns:lib="urn:schemas-professionalDisc:lib:ver.1.20" xmlns:xsi="http://www.w3.org/2001/XMLSchema-instance" lastUpdate="2010-09-22T10:19:09+01:00">&lt;TargetMaterial umidRef="060A2B340101010501010D431300000061053E63615405DA08004602022F05F5">&lt;/TargetMaterial>&lt;Duration value="1353">&lt;/Duration>&lt;LtcChangeTable tcFps="25" halfStep="false">&lt;LtcChange frameCount="0" value="02035112" status="increment">&lt;/LtcChange>&lt;LtcChange frameCount="1352" value="04575112" status="end">&lt;/LtcChange>&lt;/LtcChangeTable>&lt;CreationDate value="2010-09-22T10:18:14+01:00">&lt;/CreationDate>&lt;TypicalUbit value="0000000017061020">&lt;/TypicalUbit>&lt;BodyUmidBasicChangeTable>&lt;BodyUmidBasicChange frameCount="0" value="060A2B340101010501010D433300000061053E63615405DA08004602022F05F5" status="start">&lt;/BodyUmidBasicChange>&lt;/BodyUmidBasicChangeTable>&lt;BodyUmidWhenChangeTable>&lt;BodyUmidWhenChange frameCount="0" value="84BD3103615405A5" status="increment">&lt;/BodyUmidWhenChange>&lt;BodyUmidWhenChange frameCount="1352" value="840F3303615405A5" status="end">&lt;/BodyUmidWhenChange>&lt;/BodyUmidWhenChangeTable>&lt;KlvPacketTable>&lt;KlvPacket key="060E2B34010101050301020A02000000" frameCount="0" lengthValue="095F5265635374617274" status="spot">&lt;/KlvPacket>&lt;/KlvPacketTable>&lt;VideoFormat>&lt;VideoRecPort port="DIRECT">&lt;/VideoRecPort>&lt;VideoFrame videoCodec="MPEG2HD35_1920_1080_MP@HL" captureFps="50.00i" recFps="50.00" formatFps="50i">&lt;/VideoFrame>&lt;VideoLayout pixel="1920" numOfVerticalLine="1080" aspectRatio="16:9">&lt;/VideoLayout>&lt;/VideoFormat>&lt;AudioFormat numOfChannel="2">&lt;AudioRecPort port="DIRECT" audioCodec="LPCM16" trackDst="CH1">&lt;/AudioRecPort>&lt;AudioRecPort port="DIRECT" audioCodec="LPCM16" trackDst="CH2">&lt;/AudioRecPort>&lt;/AudioFormat>&lt;Device manufacturer="Sony" modelName="PMW-EX3" serialNo="0401525">&lt;/Device>&lt;Lens modelName="VCL-614B2X">&lt;/Lens>&lt;RecordingMode type="normal" cacheRec="false">&lt;/RecordingMode>&lt;/NonRealTimeMeta>
							</value>
						</metadata>
						<metadata>
							<storage>QuickTime</storage>
							<key>com.apple.proapps.reel</key>
							<size>8</size>
							<type>UTF8</type>
							<value>Untitled</value>
						</metadata>
						<metadata>
							<storage>QuickTime</storage>
							<key>com.apple.proapps.clipID</key>
							<size>64</size>
							<type>UTF8</type>
							<value>060A2B340101010501010D431300000061053E63615405DA08004602022F05F5</value>
						</metadata>
						<metadata>
							<storage>QuickTime</storage>
							<key>com.apple.quicktime.information</key>
							<size>64</size>
							<type>UTF8</type>
							<value>060a2b340101010501010d431300000061053e63615405da08004602022f05f5</value>
						</metadata>
						<metadata>
							<storage>QuickTime</storage>
							<key>com.apple.proapps.originalFormat</key>
							<size>36</size>
							<type>UTF8</type>
							<value>Apple XDCAM EX 1080i50 (35 Mb/s VBR)</value>
						</metadata>
						<timecode>
							<rate>
								<timebase>25</timebase>
							</rate>
							<string>12:51:03:02</string>
							<frame>1156577</frame>
							<displayformat>NDF</displayformat>
							<source>source</source>
							<reel>
								<name>Untitled</name>
							</reel>
						</timecode>
						<media>
							<video>
								<duration>1353</duration>
								<samplecharacteristics>
									<width>1920</width>
									<height>1080</height>
								</samplecharacteristics>
							</video>
							<audio>
								<samplecharacteristics>
									<samplerate>48000</samplerate>
									<depth>16</depth>
								</samplecharacteristics>
								<channelcount>1</channelcount>
								<layout>mono</layout>
								<audiochannel>
									<sourcechannel>1</sourcechannel>
									<channellabel>discrete</channellabel>
								</audiochannel>
							</audio>
							<audio>
								<samplecharacteristics>
									<samplerate>48000</samplerate>
									<depth>16</depth>
								</samplecharacteristics>
								<channelcount>1</channelcount>
								<layout>mono</layout>
								<audiochannel>
									<sourcechannel>2</sourcechannel>
									<channellabel>discrete</channellabel>
								</audiochannel>
							</audio>
						</media>
					</file>
					<sourcetrack>
						<mediatype>video</mediatype>
					</sourcetrack>
					<fielddominance>upper</fielddominance>
					<itemhistory>
						<uuid>7A43913B-4698-4C23-9FB3-2BC0A9B08A1E</uuid>
					</itemhistory>
				</clipitem>
				<clipitem id="DYR18591_01 ">
					<name>DYR18591_01</name>
					<duration>677</duration>
					<rate>
						<ntsc>FALSE</ntsc>
						<timebase>25</timebase>
					</rate>
					<in>517</in>
					<out>561</out>
					<start>26119</start>
					<end>26163</end>
					<pixelaspectratio>Square</pixelaspectratio>
					<enabled>TRUE</enabled>
					<anamorphic>FALSE</anamorphic>
					<alphatype>none</alphatype>
					<masterclipid>DYR18591_01 1</masterclipid>
					<logginginfo>
						<scene/>
						<shottake/>
						<lognote/>
						<good>FALSE</good>
					</logginginfo>
					<labels>
						<label2/>
					</labels>
					<comments>
						<mastercomment1/>
						<mastercomment2/>
						<mastercomment3/>
						<mastercomment4/>
					</comments>
					<file id="DYR18591_01 2">
						<name>DYR18591_01.mov</name>
						<pathurl>file://localhost/Volumes/Askepott/Prosjekter/DNPR637010_Kra%CC%8Akeklubben_TEM_011212/Video/MUSIKKVIDEO/Treet/DYR18591_01.mov</pathurl>
						<rate>
							<timebase>25</timebase>
						</rate>
						<duration>677</duration>
						<metadata>
							<storage>QuickTime</storage>
							<key>com.sony.bprl.xdcamtransfer.version</key>
							<size>10</size>
							<type>UTF8</type>
							<value>2.12.0.631</value>
						</metadata>
						<metadata>
							<storage>QuickTime</storage>
							<key>org.smpte.mxf.package.material.packageid</key>
							<size>66</size>
							<type>UTF8</type>
							<value>0x060a2b340101010501010d4313000000ff0ef763615405df08004602022f05f5</value>
						</metadata>
						<metadata>
							<storage>QuickTime</storage>
							<key>com.sony.professionaldisc.nonrealtimemeta.lastupdate</key>
							<size>25</size>
							<type>UTF8</type>
							<value>2010-09-22 10:22:46 +0100</value>
						</metadata>
						<metadata>
							<storage>QuickTime</storage>
							<key>com.sony.bprl.mxf.umid</key>
							<size>64</size>
							<type>UTF8</type>
							<value>060a2b340101010501010d4313000000ff0ef763615405df08004602022f05f5</value>
						</metadata>
						<metadata>
							<storage>QuickTime</storage>
							<key>com.sony.bprl.mxf.nrtmetadata</key>
							<size>1991</size>
							<type>UTF8</type>
							<value>&lt;?xml version="1.0" encoding="UTF-8"?>&lt;NonRealTimeMeta xmlns="urn:schemas-professionalDisc:nonRealTimeMeta:ver.1.20" xmlns:lib="urn:schemas-professionalDisc:lib:ver.1.20" xmlns:xsi="http://www.w3.org/2001/XMLSchema-instance" lastUpdate="2010-09-22T10:22:46+01:00">&lt;TargetMaterial umidRef="060A2B340101010501010D4313000000FF0EF763615405DF08004602022F05F5">&lt;/TargetMaterial>&lt;Duration value="677">&lt;/Duration>&lt;LtcChangeTable tcFps="25" halfStep="false">&lt;LtcChange frameCount="0" value="05575112" status="increment">&lt;/LtcChange>&lt;LtcChange frameCount="676" value="06245212" status="end">&lt;/LtcChange>&lt;/LtcChangeTable>&lt;CreationDate value="2010-09-22T10:22:18+01:00">&lt;/CreationDate>&lt;TypicalUbit value="0000000017061020">&lt;/TypicalUbit>&lt;BodyUmidBasicChangeTable>&lt;BodyUmidBasicChange frameCount="0" value="060A2B340101010501010D4333000000FF0EF763615405DF08004602022F05F5" status="start">&lt;/BodyUmidBasicChange>&lt;/BodyUmidBasicChangeTable>&lt;BodyUmidWhenChangeTable>&lt;BodyUmidWhenChange frameCount="0" value="44B23703615405A5" status="increment">&lt;/BodyUmidWhenChange>&lt;BodyUmidWhenChange frameCount="676" value="445B3803615405A5" status="end">&lt;/BodyUmidWhenChange>&lt;/BodyUmidWhenChangeTable>&lt;KlvPacketTable>&lt;KlvPacket key="060E2B34010101050301020A02000000" frameCount="0" lengthValue="095F5265635374617274" status="spot">&lt;/KlvPacket>&lt;/KlvPacketTable>&lt;VideoFormat>&lt;VideoRecPort port="DIRECT">&lt;/VideoRecPort>&lt;VideoFrame videoCodec="MPEG2HD35_1920_1080_MP@HL" captureFps="50.00i" recFps="50.00" formatFps="50i">&lt;/VideoFrame>&lt;VideoLayout pixel="1920" numOfVerticalLine="1080" aspectRatio="16:9">&lt;/VideoLayout>&lt;/VideoFormat>&lt;AudioFormat numOfChannel="2">&lt;AudioRecPort port="DIRECT" audioCodec="LPCM16" trackDst="CH1">&lt;/AudioRecPort>&lt;AudioRecPort port="DIRECT" audioCodec="LPCM16" trackDst="CH2">&lt;/AudioRecPort>&lt;/AudioFormat>&lt;Device manufacturer="Sony" modelName="PMW-EX3" serialNo="0401525">&lt;/Device>&lt;Lens modelName="VCL-614B2X">&lt;/Lens>&lt;RecordingMode type="normal" cacheRec="false">&lt;/RecordingMode>&lt;/NonRealTimeMeta>
							</value>
						</metadata>
						<metadata>
							<storage>QuickTime</storage>
							<key>com.apple.proapps.reel</key>
							<size>8</size>
							<type>UTF8</type>
							<value>Untitled</value>
						</metadata>
						<metadata>
							<storage>QuickTime</storage>
							<key>com.apple.proapps.clipID</key>
							<size>64</size>
							<type>UTF8</type>
							<value>060A2B340101010501010D4313000000FF0EF763615405DF08004602022F05F5</value>
						</metadata>
						<metadata>
							<storage>QuickTime</storage>
							<key>com.apple.quicktime.information</key>
							<size>64</size>
							<type>UTF8</type>
							<value>060a2b340101010501010d4313000000ff0ef763615405df08004602022f05f5</value>
						</metadata>
						<metadata>
							<storage>QuickTime</storage>
							<key>com.apple.proapps.originalFormat</key>
							<size>36</size>
							<type>UTF8</type>
							<value>Apple XDCAM EX 1080i50 (35 Mb/s VBR)</value>
						</metadata>
						<timecode>
							<rate>
								<timebase>25</timebase>
							</rate>
							<string>12:51:57:05</string>
							<frame>1157930</frame>
							<displayformat>NDF</displayformat>
							<source>source</source>
							<reel>
								<name>Untitled</name>
							</reel>
						</timecode>
						<media>
							<video>
								<duration>677</duration>
								<samplecharacteristics>
									<width>1920</width>
									<height>1080</height>
								</samplecharacteristics>
							</video>
							<audio>
								<samplecharacteristics>
									<samplerate>48000</samplerate>
									<depth>16</depth>
								</samplecharacteristics>
								<channelcount>1</channelcount>
								<layout>mono</layout>
								<audiochannel>
									<sourcechannel>1</sourcechannel>
									<channellabel>discrete</channellabel>
								</audiochannel>
							</audio>
							<audio>
								<samplecharacteristics>
									<samplerate>48000</samplerate>
									<depth>16</depth>
								</samplecharacteristics>
								<channelcount>1</channelcount>
								<layout>mono</layout>
								<audiochannel>
									<sourcechannel>2</sourcechannel>
									<channellabel>discrete</channellabel>
								</audiochannel>
							</audio>
						</media>
					</file>
					<sourcetrack>
						<mediatype>video</mediatype>
					</sourcetrack>
					<fielddominance>upper</fielddominance>
					<itemhistory>
						<uuid>66039387-C216-4855-85A6-CEF6168A7CE9</uuid>
					</itemhistory>
				</clipitem>
				<clipitem id="DYR18634_01 ">
					<name>DYR18634_01</name>
					<duration>862</duration>
					<rate>
						<ntsc>FALSE</ntsc>
						<timebase>25</timebase>
					</rate>
					<in>262</in>
					<out>340</out>
					<start>26163</start>
					<end>26241</end>
					<pixelaspectratio>Square</pixelaspectratio>
					<enabled>TRUE</enabled>
					<anamorphic>FALSE</anamorphic>
					<alphatype>none</alphatype>
					<masterclipid>DYR18634_01 1</masterclipid>
					<logginginfo>
						<scene/>
						<shottake/>
						<lognote/>
						<good>FALSE</good>
					</logginginfo>
					<labels>
						<label2/>
					</labels>
					<comments>
						<mastercomment1/>
						<mastercomment2/>
						<mastercomment3/>
						<mastercomment4/>
					</comments>
					<file id="DYR18634_01 2">
						<name>DYR18634_01.mov</name>
						<pathurl>file://localhost/Volumes/Askepott/Prosjekter/DNPR637010_Kra%CC%8Akeklubben_TEM_011212/Video/MUSIKKVIDEO/Treet/DYR18634_01.mov</pathurl>
						<rate>
							<timebase>25</timebase>
						</rate>
						<duration>862</duration>
						<metadata>
							<storage>QuickTime</storage>
							<key>com.sony.bprl.xdcamtransfer.version</key>
							<size>10</size>
							<type>UTF8</type>
							<value>2.12.0.631</value>
						</metadata>
						<metadata>
							<storage>QuickTime</storage>
							<key>org.smpte.mxf.package.material.packageid</key>
							<size>66</size>
							<type>UTF8</type>
							<value>0x060a2b340101010501010d4313000000f6d4177a615405dc08004602022f05f5</value>
						</metadata>
						<metadata>
							<storage>QuickTime</storage>
							<key>com.sony.professionaldisc.nonrealtimemeta.lastupdate</key>
							<size>25</size>
							<type>UTF8</type>
							<value>2010-09-22 12:27:21 +0100</value>
						</metadata>
						<metadata>
							<storage>QuickTime</storage>
							<key>com.sony.bprl.mxf.umid</key>
							<size>64</size>
							<type>UTF8</type>
							<value>060a2b340101010501010d4313000000f6d4177a615405dc08004602022f05f5</value>
						</metadata>
						<metadata>
							<storage>QuickTime</storage>
							<key>com.sony.bprl.mxf.nrtmetadata</key>
							<size>1991</size>
							<type>UTF8</type>
							<value>&lt;?xml version="1.0" encoding="UTF-8"?>&lt;NonRealTimeMeta xmlns="urn:schemas-professionalDisc:nonRealTimeMeta:ver.1.20" xmlns:lib="urn:schemas-professionalDisc:lib:ver.1.20" xmlns:xsi="http://www.w3.org/2001/XMLSchema-instance" lastUpdate="2010-09-22T12:27:21+01:00">&lt;TargetMaterial umidRef="060A2B340101010501010D4313000000F6D4177A615405DC08004602022F05F5">&lt;/TargetMaterial>&lt;Duration value="862">&lt;/Duration>&lt;LtcChangeTable tcFps="25" halfStep="false">&lt;LtcChange frameCount="0" value="06340913" status="increment">&lt;/LtcChange>&lt;LtcChange frameCount="861" value="17081013" status="end">&lt;/LtcChange>&lt;/LtcChangeTable>&lt;CreationDate value="2010-09-22T12:26:46+01:00">&lt;/CreationDate>&lt;TypicalUbit value="0000000017061020">&lt;/TypicalUbit>&lt;BodyUmidBasicChangeTable>&lt;BodyUmidBasicChange frameCount="0" value="060A2B340101010501010D4333000000F6D4177A615405DC08004602022F05F5" status="start">&lt;/BodyUmidBasicChange>&lt;/BodyUmidBasicChangeTable>&lt;BodyUmidWhenChangeTable>&lt;BodyUmidWhenChange frameCount="0" value="C405EE03615405A5" status="increment">&lt;/BodyUmidWhenChange>&lt;BodyUmidWhenChange frameCount="861" value="04DDEE03615405A5" status="end">&lt;/BodyUmidWhenChange>&lt;/BodyUmidWhenChangeTable>&lt;KlvPacketTable>&lt;KlvPacket key="060E2B34010101050301020A02000000" frameCount="0" lengthValue="095F5265635374617274" status="spot">&lt;/KlvPacket>&lt;/KlvPacketTable>&lt;VideoFormat>&lt;VideoRecPort port="DIRECT">&lt;/VideoRecPort>&lt;VideoFrame videoCodec="MPEG2HD35_1920_1080_MP@HL" captureFps="50.00i" recFps="50.00" formatFps="50i">&lt;/VideoFrame>&lt;VideoLayout pixel="1920" numOfVerticalLine="1080" aspectRatio="16:9">&lt;/VideoLayout>&lt;/VideoFormat>&lt;AudioFormat numOfChannel="2">&lt;AudioRecPort port="DIRECT" audioCodec="LPCM16" trackDst="CH1">&lt;/AudioRecPort>&lt;AudioRecPort port="DIRECT" audioCodec="LPCM16" trackDst="CH2">&lt;/AudioRecPort>&lt;/AudioFormat>&lt;Device manufacturer="Sony" modelName="PMW-EX3" serialNo="0401525">&lt;/Device>&lt;Lens modelName="VCL-614B2X">&lt;/Lens>&lt;RecordingMode type="normal" cacheRec="false">&lt;/RecordingMode>&lt;/NonRealTimeMeta>
							</value>
						</metadata>
						<metadata>
							<storage>QuickTime</storage>
							<key>com.apple.proapps.reel</key>
							<size>8</size>
							<type>UTF8</type>
							<value>Untitled</value>
						</metadata>
						<metadata>
							<storage>QuickTime</storage>
							<key>com.apple.proapps.clipID</key>
							<size>64</size>
							<type>UTF8</type>
							<value>060A2B340101010501010D4313000000F6D4177A615405DC08004602022F05F5</value>
						</metadata>
						<metadata>
							<storage>QuickTime</storage>
							<key>com.apple.quicktime.information</key>
							<size>64</size>
							<type>UTF8</type>
							<value>060a2b340101010501010d4313000000f6d4177a615405dc08004602022f05f5</value>
						</metadata>
						<metadata>
							<storage>QuickTime</storage>
							<key>com.apple.proapps.originalFormat</key>
							<size>36</size>
							<type>UTF8</type>
							<value>Apple XDCAM EX 1080i50 (35 Mb/s VBR)</value>
						</metadata>
						<timecode>
							<rate>
								<timebase>25</timebase>
							</rate>
							<string>13:09:34:06</string>
							<frame>1184356</frame>
							<displayformat>NDF</displayformat>
							<source>source</source>
							<reel>
								<name>Untitled</name>
							</reel>
						</timecode>
						<media>
							<video>
								<duration>862</duration>
								<samplecharacteristics>
									<width>1920</width>
									<height>1080</height>
								</samplecharacteristics>
							</video>
							<audio>
								<samplecharacteristics>
									<samplerate>48000</samplerate>
									<depth>16</depth>
								</samplecharacteristics>
								<channelcount>1</channelcount>
								<layout>mono</layout>
								<audiochannel>
									<sourcechannel>1</sourcechannel>
									<channellabel>discrete</channellabel>
								</audiochannel>
							</audio>
							<audio>
								<samplecharacteristics>
									<samplerate>48000</samplerate>
									<depth>16</depth>
								</samplecharacteristics>
								<channelcount>1</channelcount>
								<layout>mono</layout>
								<audiochannel>
									<sourcechannel>2</sourcechannel>
									<channellabel>discrete</channellabel>
								</audiochannel>
							</audio>
						</media>
					</file>
					<sourcetrack>
						<mediatype>video</mediatype>
					</sourcetrack>
					<fielddominance>upper</fielddominance>
					<itemhistory>
						<uuid>7A2E68D4-D04E-4DC0-B312-D39203410D2E</uuid>
					</itemhistory>
				</clipitem>
				<clipitem id="DYR18643_01 ">
					<name>DYR18643_01</name>
					<duration>629</duration>
					<rate>
						<ntsc>FALSE</ntsc>
						<timebase>25</timebase>
					</rate>
					<in>401</in>
					<out>440</out>
					<start>26241</start>
					<end>-1</end>
					<pixelaspectratio>Square</pixelaspectratio>
					<enabled>TRUE</enabled>
					<anamorphic>FALSE</anamorphic>
					<alphatype>none</alphatype>
					<masterclipid>DYR18643_01 1</masterclipid>
					<logginginfo>
						<scene/>
						<shottake/>
						<lognote/>
						<good>FALSE</good>
					</logginginfo>
					<labels>
						<label2/>
					</labels>
					<comments>
						<mastercomment1/>
						<mastercomment2/>
						<mastercomment3/>
						<mastercomment4/>
					</comments>
					<file id="DYR18643_01 2">
						<name>DYR18643_01.mov</name>
						<pathurl>file://localhost/Volumes/Askepott/Prosjekter/DNPR637010_Kra%CC%8Akeklubben_TEM_011212/Video/MUSIKKVIDEO/Treet/DYR18643_01.mov</pathurl>
						<rate>
							<timebase>25</timebase>
						</rate>
						<duration>629</duration>
						<metadata>
							<storage>QuickTime</storage>
							<key>com.sony.bprl.xdcamtransfer.version</key>
							<size>10</size>
							<type>UTF8</type>
							<value>2.12.0.631</value>
						</metadata>
						<metadata>
							<storage>QuickTime</storage>
							<key>org.smpte.mxf.package.material.packageid</key>
							<size>66</size>
							<type>UTF8</type>
							<value>0x060a2b340101010501010d4313000000fb88fc7c615405da08004602022f05f5</value>
						</metadata>
						<metadata>
							<storage>QuickTime</storage>
							<key>com.sony.professionaldisc.nonrealtimemeta.lastupdate</key>
							<size>25</size>
							<type>UTF8</type>
							<value>2010-09-22 12:43:29 +0100</value>
						</metadata>
						<metadata>
							<storage>QuickTime</storage>
							<key>com.sony.bprl.mxf.umid</key>
							<size>64</size>
							<type>UTF8</type>
							<value>060a2b340101010501010d4313000000fb88fc7c615405da08004602022f05f5</value>
						</metadata>
						<metadata>
							<storage>QuickTime</storage>
							<key>com.sony.bprl.mxf.nrtmetadata</key>
							<size>1991</size>
							<type>UTF8</type>
							<value>&lt;?xml version="1.0" encoding="UTF-8"?>&lt;NonRealTimeMeta xmlns="urn:schemas-professionalDisc:nonRealTimeMeta:ver.1.20" xmlns:lib="urn:schemas-professionalDisc:lib:ver.1.20" xmlns:xsi="http://www.w3.org/2001/XMLSchema-instance" lastUpdate="2010-09-22T12:43:29+01:00">&lt;TargetMaterial umidRef="060A2B340101010501010D4313000000FB88FC7C615405DA08004602022F05F5">&lt;/TargetMaterial>&lt;Duration value="629">&lt;/Duration>&lt;LtcChangeTable tcFps="25" halfStep="false">&lt;LtcChange frameCount="0" value="03191313" status="increment">&lt;/LtcChange>&lt;LtcChange frameCount="628" value="06441313" status="end">&lt;/LtcChange>&lt;/LtcChangeTable>&lt;CreationDate value="2010-09-22T12:43:02+01:00">&lt;/CreationDate>&lt;TypicalUbit value="0000000017061020">&lt;/TypicalUbit>&lt;BodyUmidBasicChangeTable>&lt;BodyUmidBasicChange frameCount="0" value="060A2B340101010501010D4333000000FB88FC7C615405DA08004602022F05F5" status="start">&lt;/BodyUmidBasicChange>&lt;/BodyUmidBasicChangeTable>&lt;BodyUmidWhenChangeTable>&lt;BodyUmidWhenChange frameCount="0" value="04DD0504615405A5" status="increment">&lt;/BodyUmidWhenChange>&lt;BodyUmidWhenChange frameCount="628" value="047A0604615405A5" status="end">&lt;/BodyUmidWhenChange>&lt;/BodyUmidWhenChangeTable>&lt;KlvPacketTable>&lt;KlvPacket key="060E2B34010101050301020A02000000" frameCount="0" lengthValue="095F5265635374617274" status="spot">&lt;/KlvPacket>&lt;/KlvPacketTable>&lt;VideoFormat>&lt;VideoRecPort port="DIRECT">&lt;/VideoRecPort>&lt;VideoFrame videoCodec="MPEG2HD35_1920_1080_MP@HL" captureFps="50.00i" recFps="50.00" formatFps="50i">&lt;/VideoFrame>&lt;VideoLayout pixel="1920" numOfVerticalLine="1080" aspectRatio="16:9">&lt;/VideoLayout>&lt;/VideoFormat>&lt;AudioFormat numOfChannel="2">&lt;AudioRecPort port="DIRECT" audioCodec="LPCM16" trackDst="CH1">&lt;/AudioRecPort>&lt;AudioRecPort port="DIRECT" audioCodec="LPCM16" trackDst="CH2">&lt;/AudioRecPort>&lt;/AudioFormat>&lt;Device manufacturer="Sony" modelName="PMW-EX3" serialNo="0401525">&lt;/Device>&lt;Lens modelName="VCL-614B2X">&lt;/Lens>&lt;RecordingMode type="normal" cacheRec="false">&lt;/RecordingMode>&lt;/NonRealTimeMeta>
							</value>
						</metadata>
						<metadata>
							<storage>QuickTime</storage>
							<key>com.apple.proapps.reel</key>
							<size>8</size>
							<type>UTF8</type>
							<value>Untitled</value>
						</metadata>
						<metadata>
							<storage>QuickTime</storage>
							<key>com.apple.proapps.clipID</key>
							<size>64</size>
							<type>UTF8</type>
							<value>060A2B340101010501010D4313000000FB88FC7C615405DA08004602022F05F5</value>
						</metadata>
						<metadata>
							<storage>QuickTime</storage>
							<key>com.apple.quicktime.information</key>
							<size>64</size>
							<type>UTF8</type>
							<value>060a2b340101010501010d4313000000fb88fc7c615405da08004602022f05f5</value>
						</metadata>
						<metadata>
							<storage>QuickTime</storage>
							<key>com.apple.proapps.originalFormat</key>
							<size>36</size>
							<type>UTF8</type>
							<value>Apple XDCAM EX 1080i50 (35 Mb/s VBR)</value>
						</metadata>
						<timecode>
							<rate>
								<timebase>25</timebase>
							</rate>
							<string>13:13:19:03</string>
							<frame>1189978</frame>
							<displayformat>NDF</displayformat>
							<source>source</source>
							<reel>
								<name>Untitled</name>
							</reel>
						</timecode>
						<media>
							<video>
								<duration>629</duration>
								<samplecharacteristics>
									<width>1920</width>
									<height>1080</height>
								</samplecharacteristics>
							</video>
							<audio>
								<samplecharacteristics>
									<samplerate>48000</samplerate>
									<depth>16</depth>
								</samplecharacteristics>
								<channelcount>1</channelcount>
								<layout>mono</layout>
								<audiochannel>
									<sourcechannel>1</sourcechannel>
									<channellabel>discrete</channellabel>
								</audiochannel>
							</audio>
							<audio>
								<samplecharacteristics>
									<samplerate>48000</samplerate>
									<depth>16</depth>
								</samplecharacteristics>
								<channelcount>1</channelcount>
								<layout>mono</layout>
								<audiochannel>
									<sourcechannel>2</sourcechannel>
									<channellabel>discrete</channellabel>
								</audiochannel>
							</audio>
						</media>
					</file>
					<sourcetrack>
						<mediatype>video</mediatype>
					</sourcetrack>
					<fielddominance>upper</fielddominance>
					<itemhistory>
						<uuid>7D1E31C1-0AAC-4DD5-8EFE-39F823445E30</uuid>
					</itemhistory>
				</clipitem>
				<transitionitem>
					<rate>
						<ntsc>FALSE</ntsc>
						<timebase>25</timebase>
					</rate>
					<start>26263</start>
					<end>26280</end>
					<alignment>center</alignment>
					<effect>
						<name>Cross Dissolve</name>
						<effectid>Cross Dissolve</effectid>
						<effectcategory>Dissolve</effectcategory>
						<effecttype>transition</effecttype>
						<mediatype>video</mediatype>
						<wipecode>0</wipecode>
						<wipeaccuracy>100</wipeaccuracy>
						<startratio>0</startratio>
						<endratio>1</endratio>
						<reverse>FALSE</reverse>
					</effect>
				</transitionitem>
				<clipitem id="DYR18643_01 3">
					<name>DYR18643_01</name>
					<duration>629</duration>
					<rate>
						<ntsc>FALSE</ntsc>
						<timebase>25</timebase>
					</rate>
					<in>423</in>
					<out>554</out>
					<start>-1</start>
					<end>26394</end>
					<pixelaspectratio>Square</pixelaspectratio>
					<enabled>TRUE</enabled>
					<anamorphic>FALSE</anamorphic>
					<alphatype>none</alphatype>
					<masterclipid>DYR18643_01 1</masterclipid>
					<logginginfo>
						<scene/>
						<shottake/>
						<lognote/>
						<good>FALSE</good>
					</logginginfo>
					<labels>
						<label2/>
					</labels>
					<comments>
						<mastercomment1/>
						<mastercomment2/>
						<mastercomment3/>
						<mastercomment4/>
					</comments>
					<file id="DYR18643_01 2"/>
					<filter>
						<enabled>TRUE</enabled>
						<start>-1</start>
						<end>-1</end>
						<effect>
							<name>Color Corrector 3-way</name>
							<effectid>Color Corrector 3-way</effectid>
							<effectcategory>Color Correction</effectcategory>
							<effecttype>filter</effecttype>
							<mediatype>video</mediatype>
							<parameter>
								<parameterid>dispmode</parameterid>
								<name>Display Mode</name>
								<valuemin>1</valuemin>
								<valuemax>3</valuemax>
								<valuelist>
									<valueentry>
										<name>Final</name>
										<value>1</value>
									</valueentry>
									<valueentry>
										<name>Matte</name>
										<value>2</value>
									</valueentry>
									<valueentry>
										<name>Source</name>
										<value>3</value>
									</valueentry>
								</valuelist>
								<value>1</value>
							</parameter>
							<parameter>
								<parameterid>label1</parameterid>
								<name>Blacks Controls</name>
								<value/>
							</parameter>
							<parameter>
								<parameterid>blacklevel</parameterid>
								<name>Level</name>
								<valuemin>-196</valuemin>
								<valuemax>254</valuemax>
								<value>0</value>
							</parameter>
							<parameter>
								<parameterid>b_hue</parameterid>
								<name>Angle</name>
								<valuemin>-180</valuemin>
								<valuemax>180</valuemax>
								<value>-33</value>
							</parameter>
							<parameter>
								<parameterid>b_mag</parameterid>
								<name>Magnitude</name>
								<valuemin>0</valuemin>
								<valuemax>200</valuemax>
								<value>0</value>
							</parameter>
							<parameter>
								<parameterid>label2</parameterid>
								<name>Midrange Controls</name>
								<value/>
							</parameter>
							<parameter>
								<parameterid>mids</parameterid>
								<name>Level</name>
								<valuemin>0</valuemin>
								<valuemax>200</valuemax>
								<value>86</value>
							</parameter>
							<parameter>
								<parameterid>m_hue</parameterid>
								<name>Angle</name>
								<valuemin>-180</valuemin>
								<valuemax>180</valuemax>
								<value>-33</value>
							</parameter>
							<parameter>
								<parameterid>m_mag</parameterid>
								<name>Magnitude</name>
								<valuemin>0</valuemin>
								<valuemax>200</valuemax>
								<value>0</value>
							</parameter>
							<parameter>
								<parameterid>label3</parameterid>
								<name>Highlight Controls</name>
								<value/>
							</parameter>
							<parameter>
								<parameterid>highlights</parameterid>
								<name>Level</name>
								<valuemin>64</valuemin>
								<valuemax>509</valuemax>
								<value>255</value>
							</parameter>
							<parameter>
								<parameterid>h_hue</parameterid>
								<name>Angle</name>
								<valuemin>-180</valuemin>
								<valuemax>180</valuemax>
								<value>-33</value>
							</parameter>
							<parameter>
								<parameterid>h_mag</parameterid>
								<name>Magnitude</name>
								<valuemin>0</valuemin>
								<valuemax>200</valuemax>
								<value>0</value>
							</parameter>
							<parameter>
								<parameterid>label4</parameterid>
								<name>Color Controls</name>
								<value/>
							</parameter>
							<parameter>
								<parameterid>chroma</parameterid>
								<name>Saturation</name>
								<valuemin>0</valuemin>
								<valuemax>200</valuemax>
								<value>100</value>
							</parameter>
							<parameter>
								<parameterid>label5</parameterid>
								<name>Limit Effect Controls</name>
								<value/>
							</parameter>
							<parameter>
								<parameterid>dochroma</parameterid>
								<name>Limit on Chroma</name>
								<value>FALSE</value>
							</parameter>
							<parameter>
								<parameterid>centerang</parameterid>
								<name>Chroma Center</name>
								<valuemin>-760</valuemin>
								<valuemax>760</valuemax>
								<value>-110</value>
							</parameter>
							<parameter>
								<parameterid>chromawidth</parameterid>
								<name>Chroma Width</name>
								<valuemin>0</valuemin>
								<valuemax>360</valuemax>
								<value>15</value>
							</parameter>
							<parameter>
								<parameterid>chromasoft</parameterid>
								<name>Chroma Softness</name>
								<valuemin>0</valuemin>
								<valuemax>180</valuemax>
								<value>10</value>
							</parameter>
							<parameter>
								<parameterid>dosat</parameterid>
								<name>Limit on Saturation</name>
								<value>FALSE</value>
							</parameter>
							<parameter>
								<parameterid>satmin</parameterid>
								<name>Sat. Minimum</name>
								<valuemin>0</valuemin>
								<valuemax>125</valuemax>
								<value>35</value>
							</parameter>
							<parameter>
								<parameterid>satwidth</parameterid>
								<name>Sat. Width</name>
								<valuemin>0</valuemin>
								<valuemax>125</valuemax>
								<value>40</value>
							</parameter>
							<parameter>
								<parameterid>satsoft</parameterid>
								<name>Sat. Softness</name>
								<valuemin>0</valuemin>
								<valuemax>125</valuemax>
								<value>20</value>
							</parameter>
							<parameter>
								<parameterid>doluma</parameterid>
								<name>Limit on Luma</name>
								<value>FALSE</value>
							</parameter>
							<parameter>
								<parameterid>lumamin</parameterid>
								<name>Luma Minimum</name>
								<valuemin>0</valuemin>
								<valuemax>120</valuemax>
								<value>0</value>
							</parameter>
							<parameter>
								<parameterid>lumawidth</parameterid>
								<name>Luma Width</name>
								<valuemin>0</valuemin>
								<valuemax>120</valuemax>
								<value>40</value>
							</parameter>
							<parameter>
								<parameterid>lumasoft</parameterid>
								<name>Luma Softness</name>
								<valuemin>0</valuemin>
								<valuemax>120</valuemax>
								<value>20</value>
							</parameter>
							<parameter>
								<parameterid>label6</parameterid>
								<name>Edge Control</name>
								<value/>
							</parameter>
							<parameter>
								<parameterid>edgethin</parameterid>
								<name>Thin/Spread</name>
								<valuemin>-100</valuemin>
								<valuemax>100</valuemax>
								<value>0</value>
							</parameter>
							<parameter>
								<parameterid>edgefeather</parameterid>
								<name>Softening</name>
								<valuemin>0</valuemin>
								<valuemax>100</valuemax>
								<value>0</value>
							</parameter>
							<parameter>
								<parameterid>label7</parameterid>
								<name>Mask Control</name>
								<value/>
							</parameter>
							<parameter>
								<parameterid>invertsel</parameterid>
								<name>Invert</name>
								<value>FALSE</value>
							</parameter>
							<parameter>
								<parameterid>debugshow</parameterid>
								<name>Show Stats</name>
								<value>FALSE</value>
							</parameter>
						</effect>
					</filter>
					<sourcetrack>
						<mediatype>video</mediatype>
					</sourcetrack>
					<fielddominance>upper</fielddominance>
					<itemhistory>
						<uuid>222BB645-DAB2-423E-A1EB-9082D4425265</uuid>
					</itemhistory>
				</clipitem>
				<clipitem id="DYR18659_01 ">
					<name>DYR18659_01</name>
					<duration>1905</duration>
					<rate>
						<ntsc>FALSE</ntsc>
						<timebase>25</timebase>
					</rate>
					<in>1387</in>
					<out>1430</out>
					<start>26394</start>
					<end>26437</end>
					<pixelaspectratio>Square</pixelaspectratio>
					<enabled>TRUE</enabled>
					<anamorphic>FALSE</anamorphic>
					<alphatype>none</alphatype>
					<masterclipid>DYR18659_01 1</masterclipid>
					<logginginfo>
						<scene/>
						<shottake/>
						<lognote/>
						<good>FALSE</good>
					</logginginfo>
					<labels>
						<label2/>
					</labels>
					<comments>
						<mastercomment1/>
						<mastercomment2/>
						<mastercomment3/>
						<mastercomment4/>
					</comments>
					<file id="DYR18659_01 2">
						<name>DYR18659_01.mov</name>
						<pathurl>file://localhost/Volumes/Askepott/Prosjekter/DNPR637010_Kra%CC%8Akeklubben_TEM_011212/Video/MUSIKKVIDEO/Treet/DYR18659_01.mov</pathurl>
						<rate>
							<timebase>25</timebase>
						</rate>
						<duration>1905</duration>
						<metadata>
							<storage>QuickTime</storage>
							<key>com.sony.bprl.xdcamtransfer.version</key>
							<size>10</size>
							<type>UTF8</type>
							<value>2.12.0.631</value>
						</metadata>
						<metadata>
							<storage>QuickTime</storage>
							<key>org.smpte.mxf.package.material.packageid</key>
							<size>66</size>
							<type>UTF8</type>
							<value>0x060a2b340101010501010d43130000008693d783615405cf08004602022f05f5</value>
						</metadata>
						<metadata>
							<storage>QuickTime</storage>
							<key>com.sony.professionaldisc.nonrealtimemeta.lastupdate</key>
							<size>25</size>
							<type>UTF8</type>
							<value>2010-09-22 13:22:54 +0100</value>
						</metadata>
						<metadata>
							<storage>QuickTime</storage>
							<key>com.sony.bprl.mxf.umid</key>
							<size>64</size>
							<type>UTF8</type>
							<value>060a2b340101010501010d43130000008693d783615405cf08004602022f05f5</value>
						</metadata>
						<metadata>
							<storage>QuickTime</storage>
							<key>com.sony.bprl.mxf.nrtmetadata</key>
							<size>1994</size>
							<type>UTF8</type>
							<value>&lt;?xml version="1.0" encoding="UTF-8"?>&lt;NonRealTimeMeta xmlns="urn:schemas-professionalDisc:nonRealTimeMeta:ver.1.20" xmlns:lib="urn:schemas-professionalDisc:lib:ver.1.20" xmlns:xsi="http://www.w3.org/2001/XMLSchema-instance" lastUpdate="2010-09-22T13:22:54+01:00">&lt;TargetMaterial umidRef="060A2B340101010501010D43130000008693D783615405CF08004602022F05F5">&lt;/TargetMaterial>&lt;Duration value="1905">&lt;/Duration>&lt;LtcChangeTable tcFps="25" halfStep="false">&lt;LtcChange frameCount="0" value="10482413" status="increment">&lt;/LtcChange>&lt;LtcChange frameCount="1904" value="14042613" status="end">&lt;/LtcChange>&lt;/LtcChangeTable>&lt;CreationDate value="2010-09-22T13:21:36+01:00">&lt;/CreationDate>&lt;TypicalUbit value="0000000017061020">&lt;/TypicalUbit>&lt;BodyUmidBasicChangeTable>&lt;BodyUmidBasicChange frameCount="0" value="060A2B340101010501010D43330000008693D783615405CF08004602022F05F5" status="start">&lt;/BodyUmidBasicChange>&lt;/BodyUmidBasicChangeTable>&lt;BodyUmidWhenChangeTable>&lt;BodyUmidWhenChange frameCount="0" value="845A3E04615405A5" status="increment">&lt;/BodyUmidWhenChange>&lt;BodyUmidWhenChange frameCount="1904" value="84364004615405A5" status="end">&lt;/BodyUmidWhenChange>&lt;/BodyUmidWhenChangeTable>&lt;KlvPacketTable>&lt;KlvPacket key="060E2B34010101050301020A02000000" frameCount="0" lengthValue="095F5265635374617274" status="spot">&lt;/KlvPacket>&lt;/KlvPacketTable>&lt;VideoFormat>&lt;VideoRecPort port="DIRECT">&lt;/VideoRecPort>&lt;VideoFrame videoCodec="MPEG2HD35_1920_1080_MP@HL" captureFps="50.00i" recFps="50.00" formatFps="50i">&lt;/VideoFrame>&lt;VideoLayout pixel="1920" numOfVerticalLine="1080" aspectRatio="16:9">&lt;/VideoLayout>&lt;/VideoFormat>&lt;AudioFormat numOfChannel="2">&lt;AudioRecPort port="DIRECT" audioCodec="LPCM16" trackDst="CH1">&lt;/AudioRecPort>&lt;AudioRecPort port="DIRECT" audioCodec="LPCM16" trackDst="CH2">&lt;/AudioRecPort>&lt;/AudioFormat>&lt;Device manufacturer="Sony" modelName="PMW-EX3" serialNo="0401525">&lt;/Device>&lt;Lens modelName="VCL-614B2X">&lt;/Lens>&lt;RecordingMode type="normal" cacheRec="false">&lt;/RecordingMode>&lt;/NonRealTimeMeta>
							</value>
						</metadata>
						<metadata>
							<storage>QuickTime</storage>
							<key>com.apple.proapps.reel</key>
							<size>8</size>
							<type>UTF8</type>
							<value>Untitled</value>
						</metadata>
						<metadata>
							<storage>QuickTime</storage>
							<key>com.apple.proapps.clipID</key>
							<size>64</size>
							<type>UTF8</type>
							<value>060A2B340101010501010D43130000008693D783615405CF08004602022F05F5</value>
						</metadata>
						<metadata>
							<storage>QuickTime</storage>
							<key>com.apple.quicktime.information</key>
							<size>64</size>
							<type>UTF8</type>
							<value>060a2b340101010501010d43130000008693d783615405cf08004602022f05f5</value>
						</metadata>
						<metadata>
							<storage>QuickTime</storage>
							<key>com.apple.proapps.originalFormat</key>
							<size>36</size>
							<type>UTF8</type>
							<value>Apple XDCAM EX 1080i50 (35 Mb/s VBR)</value>
						</metadata>
						<timecode>
							<rate>
								<timebase>25</timebase>
							</rate>
							<string>13:24:48:10</string>
							<frame>1207210</frame>
							<displayformat>NDF</displayformat>
							<source>source</source>
							<reel>
								<name>Untitled</name>
							</reel>
						</timecode>
						<media>
							<video>
								<duration>1905</duration>
								<samplecharacteristics>
									<width>1920</width>
									<height>1080</height>
								</samplecharacteristics>
							</video>
							<audio>
								<samplecharacteristics>
									<samplerate>48000</samplerate>
									<depth>16</depth>
								</samplecharacteristics>
								<channelcount>1</channelcount>
								<layout>mono</layout>
								<audiochannel>
									<sourcechannel>1</sourcechannel>
									<channellabel>discrete</channellabel>
								</audiochannel>
							</audio>
							<audio>
								<samplecharacteristics>
									<samplerate>48000</samplerate>
									<depth>16</depth>
								</samplecharacteristics>
								<channelcount>1</channelcount>
								<layout>mono</layout>
								<audiochannel>
									<sourcechannel>2</sourcechannel>
									<channellabel>discrete</channellabel>
								</audiochannel>
							</audio>
						</media>
					</file>
					<filter>
						<start>-1</start>
						<end>-1</end>
						<effect>
							<name>Color Corrector 3-way</name>
							<effectid>Color Corrector 3-way</effectid>
							<effectcategory>Color Correction</effectcategory>
							<effecttype>filter</effecttype>
							<mediatype>video</mediatype>
							<parameter>
								<parameterid>dispmode</parameterid>
								<name>Display Mode</name>
								<valuemin>1</valuemin>
								<valuemax>3</valuemax>
								<valuelist>
									<valueentry>
										<name>Final</name>
										<value>1</value>
									</valueentry>
									<valueentry>
										<name>Matte</name>
										<value>2</value>
									</valueentry>
									<valueentry>
										<name>Source</name>
										<value>3</value>
									</valueentry>
								</valuelist>
								<value>1</value>
							</parameter>
							<parameter>
								<parameterid>label1</parameterid>
								<name>Blacks Controls</name>
								<value/>
							</parameter>
							<parameter>
								<parameterid>blacklevel</parameterid>
								<name>Level</name>
								<valuemin>-196</valuemin>
								<valuemax>254</valuemax>
								<value>0</value>
							</parameter>
							<parameter>
								<parameterid>b_hue</parameterid>
								<name>Angle</name>
								<valuemin>-180</valuemin>
								<valuemax>180</valuemax>
								<value>-33</value>
							</parameter>
							<parameter>
								<parameterid>b_mag</parameterid>
								<name>Magnitude</name>
								<valuemin>0</valuemin>
								<valuemax>200</valuemax>
								<value>0</value>
							</parameter>
							<parameter>
								<parameterid>label2</parameterid>
								<name>Midrange Controls</name>
								<value/>
							</parameter>
							<parameter>
								<parameterid>mids</parameterid>
								<name>Level</name>
								<valuemin>0</valuemin>
								<valuemax>200</valuemax>
								<value>104</value>
							</parameter>
							<parameter>
								<parameterid>m_hue</parameterid>
								<name>Angle</name>
								<valuemin>-180</valuemin>
								<valuemax>180</valuemax>
								<value>-33</value>
							</parameter>
							<parameter>
								<parameterid>m_mag</parameterid>
								<name>Magnitude</name>
								<valuemin>0</valuemin>
								<valuemax>200</valuemax>
								<value>0</value>
							</parameter>
							<parameter>
								<parameterid>label3</parameterid>
								<name>Highlight Controls</name>
								<value/>
							</parameter>
							<parameter>
								<parameterid>highlights</parameterid>
								<name>Level</name>
								<valuemin>64</valuemin>
								<valuemax>509</valuemax>
								<value>255</value>
							</parameter>
							<parameter>
								<parameterid>h_hue</parameterid>
								<name>Angle</name>
								<valuemin>-180</valuemin>
								<valuemax>180</valuemax>
								<value>-33</value>
							</parameter>
							<parameter>
								<parameterid>h_mag</parameterid>
								<name>Magnitude</name>
								<valuemin>0</valuemin>
								<valuemax>200</valuemax>
								<value>0</value>
							</parameter>
							<parameter>
								<parameterid>label4</parameterid>
								<name>Color Controls</name>
								<value/>
							</parameter>
							<parameter>
								<parameterid>chroma</parameterid>
								<name>Saturation</name>
								<valuemin>0</valuemin>
								<valuemax>200</valuemax>
								<value>100</value>
							</parameter>
							<parameter>
								<parameterid>label5</parameterid>
								<name>Limit Effect Controls</name>
								<value/>
							</parameter>
							<parameter>
								<parameterid>dochroma</parameterid>
								<name>Limit on Chroma</name>
								<value>FALSE</value>
							</parameter>
							<parameter>
								<parameterid>centerang</parameterid>
								<name>Chroma Center</name>
								<valuemin>-760</valuemin>
								<valuemax>760</valuemax>
								<value>-110</value>
							</parameter>
							<parameter>
								<parameterid>chromawidth</parameterid>
								<name>Chroma Width</name>
								<valuemin>0</valuemin>
								<valuemax>360</valuemax>
								<value>15</value>
							</parameter>
							<parameter>
								<parameterid>chromasoft</parameterid>
								<name>Chroma Softness</name>
								<valuemin>0</valuemin>
								<valuemax>180</valuemax>
								<value>10</value>
							</parameter>
							<parameter>
								<parameterid>dosat</parameterid>
								<name>Limit on Saturation</name>
								<value>FALSE</value>
							</parameter>
							<parameter>
								<parameterid>satmin</parameterid>
								<name>Sat. Minimum</name>
								<valuemin>0</valuemin>
								<valuemax>125</valuemax>
								<value>35</value>
							</parameter>
							<parameter>
								<parameterid>satwidth</parameterid>
								<name>Sat. Width</name>
								<valuemin>0</valuemin>
								<valuemax>125</valuemax>
								<value>40</value>
							</parameter>
							<parameter>
								<parameterid>satsoft</parameterid>
								<name>Sat. Softness</name>
								<valuemin>0</valuemin>
								<valuemax>125</valuemax>
								<value>20</value>
							</parameter>
							<parameter>
								<parameterid>doluma</parameterid>
								<name>Limit on Luma</name>
								<value>FALSE</value>
							</parameter>
							<parameter>
								<parameterid>lumamin</parameterid>
								<name>Luma Minimum</name>
								<valuemin>0</valuemin>
								<valuemax>120</valuemax>
								<value>0</value>
							</parameter>
							<parameter>
								<parameterid>lumawidth</parameterid>
								<name>Luma Width</name>
								<valuemin>0</valuemin>
								<valuemax>120</valuemax>
								<value>40</value>
							</parameter>
							<parameter>
								<parameterid>lumasoft</parameterid>
								<name>Luma Softness</name>
								<valuemin>0</valuemin>
								<valuemax>120</valuemax>
								<value>20</value>
							</parameter>
							<parameter>
								<parameterid>label6</parameterid>
								<name>Edge Control</name>
								<value/>
							</parameter>
							<parameter>
								<parameterid>edgethin</parameterid>
								<name>Thin/Spread</name>
								<valuemin>-100</valuemin>
								<valuemax>100</valuemax>
								<value>0</value>
							</parameter>
							<parameter>
								<parameterid>edgefeather</parameterid>
								<name>Softening</name>
								<valuemin>0</valuemin>
								<valuemax>100</valuemax>
								<value>0</value>
							</parameter>
							<parameter>
								<parameterid>label7</parameterid>
								<name>Mask Control</name>
								<value/>
							</parameter>
							<parameter>
								<parameterid>invertsel</parameterid>
								<name>Invert</name>
								<value>FALSE</value>
							</parameter>
							<parameter>
								<parameterid>debugshow</parameterid>
								<name>Show Stats</name>
								<value>FALSE</value>
							</parameter>
						</effect>
					</filter>
					<sourcetrack>
						<mediatype>video</mediatype>
					</sourcetrack>
					<fielddominance>upper</fielddominance>
					<itemhistory>
						<uuid>F1CEB563-B736-4BFD-A8D7-EE23E3E89B20</uuid>
					</itemhistory>
				</clipitem>
				<clipitem id="DYR18650_01 ">
					<name>DYR18650_01</name>
					<duration>1126</duration>
					<rate>
						<ntsc>FALSE</ntsc>
						<timebase>25</timebase>
					</rate>
					<in>319</in>
					<out>355</out>
					<start>26437</start>
					<end>26473</end>
					<pixelaspectratio>Square</pixelaspectratio>
					<enabled>TRUE</enabled>
					<anamorphic>FALSE</anamorphic>
					<alphatype>none</alphatype>
					<masterclipid>DYR18650_01 1</masterclipid>
					<logginginfo>
						<scene/>
						<shottake/>
						<lognote/>
						<good>FALSE</good>
					</logginginfo>
					<labels>
						<label2/>
					</labels>
					<comments>
						<mastercomment1/>
						<mastercomment2/>
						<mastercomment3/>
						<mastercomment4/>
					</comments>
					<file id="DYR18650_01 2">
						<name>DYR18650_01.mov</name>
						<pathurl>file://localhost/Volumes/Askepott/Prosjekter/DNPR637010_Kra%CC%8Akeklubben_TEM_011212/Video/MUSIKKVIDEO/Treet/DYR18650_01.mov</pathurl>
						<rate>
							<timebase>25</timebase>
						</rate>
						<duration>1126</duration>
						<metadata>
							<storage>QuickTime</storage>
							<key>com.sony.bprl.xdcamtransfer.version</key>
							<size>10</size>
							<type>UTF8</type>
							<value>2.12.0.631</value>
						</metadata>
						<metadata>
							<storage>QuickTime</storage>
							<key>org.smpte.mxf.package.material.packageid</key>
							<size>66</size>
							<type>UTF8</type>
							<value>0x060a2b340101010501010d4313000000bd014e80615405df08004602022f05f5</value>
						</metadata>
						<metadata>
							<storage>QuickTime</storage>
							<key>com.sony.professionaldisc.nonrealtimemeta.lastupdate</key>
							<size>25</size>
							<type>UTF8</type>
							<value>2010-09-22 13:02:28 +0100</value>
						</metadata>
						<metadata>
							<storage>QuickTime</storage>
							<key>com.sony.bprl.mxf.umid</key>
							<size>64</size>
							<type>UTF8</type>
							<value>060a2b340101010501010d4313000000bd014e80615405df08004602022f05f5</value>
						</metadata>
						<metadata>
							<storage>QuickTime</storage>
							<key>com.sony.bprl.mxf.nrtmetadata</key>
							<size>1994</size>
							<type>UTF8</type>
							<value>&lt;?xml version="1.0" encoding="UTF-8"?>&lt;NonRealTimeMeta xmlns="urn:schemas-professionalDisc:nonRealTimeMeta:ver.1.20" xmlns:lib="urn:schemas-professionalDisc:lib:ver.1.20" xmlns:xsi="http://www.w3.org/2001/XMLSchema-instance" lastUpdate="2010-09-22T13:02:28+01:00">&lt;TargetMaterial umidRef="060A2B340101010501010D4313000000BD014E80615405DF08004602022F05F5">&lt;/TargetMaterial>&lt;Duration value="1126">&lt;/Duration>&lt;LtcChangeTable tcFps="25" halfStep="false">&lt;LtcChange frameCount="0" value="12091813" status="increment">&lt;/LtcChange>&lt;LtcChange frameCount="1125" value="12541813" status="end">&lt;/LtcChange>&lt;/LtcChangeTable>&lt;CreationDate value="2010-09-22T13:01:42+01:00">&lt;/CreationDate>&lt;TypicalUbit value="0000000017061020">&lt;/TypicalUbit>&lt;BodyUmidBasicChangeTable>&lt;BodyUmidBasicChange frameCount="0" value="060A2B340101010501010D4333000000BD014E80615405DF08004602022F05F5" status="start">&lt;/BodyUmidBasicChange>&lt;/BodyUmidBasicChangeTable>&lt;BodyUmidWhenChangeTable>&lt;BodyUmidWhenChange frameCount="0" value="84342104615405A5" status="increment">&lt;/BodyUmidWhenChange>&lt;BodyUmidWhenChange frameCount="1125" value="C44D2204615405A5" status="end">&lt;/BodyUmidWhenChange>&lt;/BodyUmidWhenChangeTable>&lt;KlvPacketTable>&lt;KlvPacket key="060E2B34010101050301020A02000000" frameCount="0" lengthValue="095F5265635374617274" status="spot">&lt;/KlvPacket>&lt;/KlvPacketTable>&lt;VideoFormat>&lt;VideoRecPort port="DIRECT">&lt;/VideoRecPort>&lt;VideoFrame videoCodec="MPEG2HD35_1920_1080_MP@HL" captureFps="50.00i" recFps="50.00" formatFps="50i">&lt;/VideoFrame>&lt;VideoLayout pixel="1920" numOfVerticalLine="1080" aspectRatio="16:9">&lt;/VideoLayout>&lt;/VideoFormat>&lt;AudioFormat numOfChannel="2">&lt;AudioRecPort port="DIRECT" audioCodec="LPCM16" trackDst="CH1">&lt;/AudioRecPort>&lt;AudioRecPort port="DIRECT" audioCodec="LPCM16" trackDst="CH2">&lt;/AudioRecPort>&lt;/AudioFormat>&lt;Device manufacturer="Sony" modelName="PMW-EX3" serialNo="0401525">&lt;/Device>&lt;Lens modelName="VCL-614B2X">&lt;/Lens>&lt;RecordingMode type="normal" cacheRec="false">&lt;/RecordingMode>&lt;/NonRealTimeMeta>
							</value>
						</metadata>
						<metadata>
							<storage>QuickTime</storage>
							<key>com.apple.proapps.reel</key>
							<size>8</size>
							<type>UTF8</type>
							<value>Untitled</value>
						</metadata>
						<metadata>
							<storage>QuickTime</storage>
							<key>com.apple.proapps.clipID</key>
							<size>64</size>
							<type>UTF8</type>
							<value>060A2B340101010501010D4313000000BD014E80615405DF08004602022F05F5</value>
						</metadata>
						<metadata>
							<storage>QuickTime</storage>
							<key>com.apple.quicktime.information</key>
							<size>64</size>
							<type>UTF8</type>
							<value>060a2b340101010501010d4313000000bd014e80615405df08004602022f05f5</value>
						</metadata>
						<metadata>
							<storage>QuickTime</storage>
							<key>com.apple.proapps.originalFormat</key>
							<size>36</size>
							<type>UTF8</type>
							<value>Apple XDCAM EX 1080i50 (35 Mb/s VBR)</value>
						</metadata>
						<timecode>
							<rate>
								<timebase>25</timebase>
							</rate>
							<string>13:18:09:12</string>
							<frame>1197237</frame>
							<displayformat>NDF</displayformat>
							<source>source</source>
							<reel>
								<name>Untitled</name>
							</reel>
						</timecode>
						<media>
							<video>
								<duration>1126</duration>
								<samplecharacteristics>
									<width>1920</width>
									<height>1080</height>
								</samplecharacteristics>
							</video>
							<audio>
								<samplecharacteristics>
									<samplerate>48000</samplerate>
									<depth>16</depth>
								</samplecharacteristics>
								<channelcount>1</channelcount>
								<layout>mono</layout>
								<audiochannel>
									<sourcechannel>1</sourcechannel>
									<channellabel>discrete</channellabel>
								</audiochannel>
							</audio>
							<audio>
								<samplecharacteristics>
									<samplerate>48000</samplerate>
									<depth>16</depth>
								</samplecharacteristics>
								<channelcount>1</channelcount>
								<layout>mono</layout>
								<audiochannel>
									<sourcechannel>2</sourcechannel>
									<channellabel>discrete</channellabel>
								</audiochannel>
							</audio>
						</media>
					</file>
					<filter>
						<start>-1</start>
						<end>-1</end>
						<effect>
							<name>Color Corrector 3-way</name>
							<effectid>Color Corrector 3-way</effectid>
							<effectcategory>Color Correction</effectcategory>
							<effecttype>filter</effecttype>
							<mediatype>video</mediatype>
							<parameter>
								<parameterid>dispmode</parameterid>
								<name>Display Mode</name>
								<valuemin>1</valuemin>
								<valuemax>3</valuemax>
								<valuelist>
									<valueentry>
										<name>Final</name>
										<value>1</value>
									</valueentry>
									<valueentry>
										<name>Matte</name>
										<value>2</value>
									</valueentry>
									<valueentry>
										<name>Source</name>
										<value>3</value>
									</valueentry>
								</valuelist>
								<value>1</value>
							</parameter>
							<parameter>
								<parameterid>label1</parameterid>
								<name>Blacks Controls</name>
								<value/>
							</parameter>
							<parameter>
								<parameterid>blacklevel</parameterid>
								<name>Level</name>
								<valuemin>-196</valuemin>
								<valuemax>254</valuemax>
								<value>0</value>
							</parameter>
							<parameter>
								<parameterid>b_hue</parameterid>
								<name>Angle</name>
								<valuemin>-180</valuemin>
								<valuemax>180</valuemax>
								<value>-33</value>
							</parameter>
							<parameter>
								<parameterid>b_mag</parameterid>
								<name>Magnitude</name>
								<valuemin>0</valuemin>
								<valuemax>200</valuemax>
								<value>0</value>
							</parameter>
							<parameter>
								<parameterid>label2</parameterid>
								<name>Midrange Controls</name>
								<value/>
							</parameter>
							<parameter>
								<parameterid>mids</parameterid>
								<name>Level</name>
								<valuemin>0</valuemin>
								<valuemax>200</valuemax>
								<value>104</value>
							</parameter>
							<parameter>
								<parameterid>m_hue</parameterid>
								<name>Angle</name>
								<valuemin>-180</valuemin>
								<valuemax>180</valuemax>
								<value>-33</value>
							</parameter>
							<parameter>
								<parameterid>m_mag</parameterid>
								<name>Magnitude</name>
								<valuemin>0</valuemin>
								<valuemax>200</valuemax>
								<value>0</value>
							</parameter>
							<parameter>
								<parameterid>label3</parameterid>
								<name>Highlight Controls</name>
								<value/>
							</parameter>
							<parameter>
								<parameterid>highlights</parameterid>
								<name>Level</name>
								<valuemin>64</valuemin>
								<valuemax>509</valuemax>
								<value>255</value>
							</parameter>
							<parameter>
								<parameterid>h_hue</parameterid>
								<name>Angle</name>
								<valuemin>-180</valuemin>
								<valuemax>180</valuemax>
								<value>-33</value>
							</parameter>
							<parameter>
								<parameterid>h_mag</parameterid>
								<name>Magnitude</name>
								<valuemin>0</valuemin>
								<valuemax>200</valuemax>
								<value>0</value>
							</parameter>
							<parameter>
								<parameterid>label4</parameterid>
								<name>Color Controls</name>
								<value/>
							</parameter>
							<parameter>
								<parameterid>chroma</parameterid>
								<name>Saturation</name>
								<valuemin>0</valuemin>
								<valuemax>200</valuemax>
								<value>100</value>
							</parameter>
							<parameter>
								<parameterid>label5</parameterid>
								<name>Limit Effect Controls</name>
								<value/>
							</parameter>
							<parameter>
								<parameterid>dochroma</parameterid>
								<name>Limit on Chroma</name>
								<value>FALSE</value>
							</parameter>
							<parameter>
								<parameterid>centerang</parameterid>
								<name>Chroma Center</name>
								<valuemin>-760</valuemin>
								<valuemax>760</valuemax>
								<value>-110</value>
							</parameter>
							<parameter>
								<parameterid>chromawidth</parameterid>
								<name>Chroma Width</name>
								<valuemin>0</valuemin>
								<valuemax>360</valuemax>
								<value>15</value>
							</parameter>
							<parameter>
								<parameterid>chromasoft</parameterid>
								<name>Chroma Softness</name>
								<valuemin>0</valuemin>
								<valuemax>180</valuemax>
								<value>10</value>
							</parameter>
							<parameter>
								<parameterid>dosat</parameterid>
								<name>Limit on Saturation</name>
								<value>FALSE</value>
							</parameter>
							<parameter>
								<parameterid>satmin</parameterid>
								<name>Sat. Minimum</name>
								<valuemin>0</valuemin>
								<valuemax>125</valuemax>
								<value>35</value>
							</parameter>
							<parameter>
								<parameterid>satwidth</parameterid>
								<name>Sat. Width</name>
								<valuemin>0</valuemin>
								<valuemax>125</valuemax>
								<value>40</value>
							</parameter>
							<parameter>
								<parameterid>satsoft</parameterid>
								<name>Sat. Softness</name>
								<valuemin>0</valuemin>
								<valuemax>125</valuemax>
								<value>20</value>
							</parameter>
							<parameter>
								<parameterid>doluma</parameterid>
								<name>Limit on Luma</name>
								<value>FALSE</value>
							</parameter>
							<parameter>
								<parameterid>lumamin</parameterid>
								<name>Luma Minimum</name>
								<valuemin>0</valuemin>
								<valuemax>120</valuemax>
								<value>0</value>
							</parameter>
							<parameter>
								<parameterid>lumawidth</parameterid>
								<name>Luma Width</name>
								<valuemin>0</valuemin>
								<valuemax>120</valuemax>
								<value>40</value>
							</parameter>
							<parameter>
								<parameterid>lumasoft</parameterid>
								<name>Luma Softness</name>
								<valuemin>0</valuemin>
								<valuemax>120</valuemax>
								<value>20</value>
							</parameter>
							<parameter>
								<parameterid>label6</parameterid>
								<name>Edge Control</name>
								<value/>
							</parameter>
							<parameter>
								<parameterid>edgethin</parameterid>
								<name>Thin/Spread</name>
								<valuemin>-100</valuemin>
								<valuemax>100</valuemax>
								<value>0</value>
							</parameter>
							<parameter>
								<parameterid>edgefeather</parameterid>
								<name>Softening</name>
								<valuemin>0</valuemin>
								<valuemax>100</valuemax>
								<value>0</value>
							</parameter>
							<parameter>
								<parameterid>label7</parameterid>
								<name>Mask Control</name>
								<value/>
							</parameter>
							<parameter>
								<parameterid>invertsel</parameterid>
								<name>Invert</name>
								<value>FALSE</value>
							</parameter>
							<parameter>
								<parameterid>debugshow</parameterid>
								<name>Show Stats</name>
								<value>FALSE</value>
							</parameter>
						</effect>
					</filter>
					<sourcetrack>
						<mediatype>video</mediatype>
					</sourcetrack>
					<fielddominance>upper</fielddominance>
					<itemhistory>
						<uuid>AE0DDE36-6100-4E0A-87C7-2D74BDB01CB7</uuid>
					</itemhistory>
				</clipitem>
				<clipitem id="DYR18608_01 ">
					<name>DYR18608_01</name>
					<duration>468</duration>
					<rate>
						<ntsc>FALSE</ntsc>
						<timebase>25</timebase>
					</rate>
					<in>108</in>
					<out>162</out>
					<start>26473</start>
					<end>26527</end>
					<pixelaspectratio>Square</pixelaspectratio>
					<enabled>TRUE</enabled>
					<anamorphic>FALSE</anamorphic>
					<alphatype>none</alphatype>
					<masterclipid>DYR18608_01 1</masterclipid>
					<logginginfo>
						<scene/>
						<shottake/>
						<lognote/>
						<good>FALSE</good>
					</logginginfo>
					<labels>
						<label2/>
					</labels>
					<comments>
						<mastercomment1/>
						<mastercomment2/>
						<mastercomment3/>
						<mastercomment4/>
					</comments>
					<file id="DYR18608_01 2">
						<name>DYR18608_01.mov</name>
						<pathurl>file://localhost/Volumes/Askepott/Prosjekter/DNPR637010_Kra%CC%8Akeklubben_TEM_011212/Video/MUSIKKVIDEO/Treet/DYR18608_01.mov</pathurl>
						<rate>
							<timebase>25</timebase>
						</rate>
						<duration>468</duration>
						<metadata>
							<storage>QuickTime</storage>
							<key>com.sony.bprl.xdcamtransfer.version</key>
							<size>10</size>
							<type>UTF8</type>
							<value>2.12.0.631</value>
						</metadata>
						<metadata>
							<storage>QuickTime</storage>
							<key>org.smpte.mxf.package.material.packageid</key>
							<size>66</size>
							<type>UTF8</type>
							<value>0x060a2b340101010501010d4313000000b113636f615405dd08004602022f05f5</value>
						</metadata>
						<metadata>
							<storage>QuickTime</storage>
							<key>com.sony.professionaldisc.nonrealtimemeta.lastupdate</key>
							<size>25</size>
							<type>UTF8</type>
							<value>2010-09-22 11:26:52 +0100</value>
						</metadata>
						<metadata>
							<storage>QuickTime</storage>
							<key>com.sony.bprl.mxf.umid</key>
							<size>64</size>
							<type>UTF8</type>
							<value>060a2b340101010501010d4313000000b113636f615405dd08004602022f05f5</value>
						</metadata>
						<metadata>
							<storage>QuickTime</storage>
							<key>com.sony.bprl.mxf.nrtmetadata</key>
							<size>1991</size>
							<type>UTF8</type>
							<value>&lt;?xml version="1.0" encoding="UTF-8"?>&lt;NonRealTimeMeta xmlns="urn:schemas-professionalDisc:nonRealTimeMeta:ver.1.20" xmlns:lib="urn:schemas-professionalDisc:lib:ver.1.20" xmlns:xsi="http://www.w3.org/2001/XMLSchema-instance" lastUpdate="2010-09-22T11:26:52+01:00">&lt;TargetMaterial umidRef="060A2B340101010501010D4313000000B113636F615405DD08004602022F05F5">&lt;/TargetMaterial>&lt;Duration value="468">&lt;/Duration>&lt;LtcChangeTable tcFps="25" halfStep="false">&lt;LtcChange frameCount="0" value="00075812" status="increment">&lt;/LtcChange>&lt;LtcChange frameCount="467" value="17255812" status="end">&lt;/LtcChange>&lt;/LtcChangeTable>&lt;CreationDate value="2010-09-22T11:26:33+01:00">&lt;/CreationDate>&lt;TypicalUbit value="0000000017061020">&lt;/TypicalUbit>&lt;BodyUmidBasicChangeTable>&lt;BodyUmidBasicChange frameCount="0" value="060A2B340101010501010D4333000000B113636F615405DD08004602022F05F5" status="start">&lt;/BodyUmidBasicChange>&lt;/BodyUmidBasicChangeTable>&lt;BodyUmidWhenChangeTable>&lt;BodyUmidWhenChange frameCount="0" value="C4CE9503615405A5" status="increment">&lt;/BodyUmidWhenChange>&lt;BodyUmidWhenChange frameCount="467" value="84439603615405A5" status="end">&lt;/BodyUmidWhenChange>&lt;/BodyUmidWhenChangeTable>&lt;KlvPacketTable>&lt;KlvPacket key="060E2B34010101050301020A02000000" frameCount="0" lengthValue="095F5265635374617274" status="spot">&lt;/KlvPacket>&lt;/KlvPacketTable>&lt;VideoFormat>&lt;VideoRecPort port="DIRECT">&lt;/VideoRecPort>&lt;VideoFrame videoCodec="MPEG2HD35_1920_1080_MP@HL" captureFps="50.00i" recFps="50.00" formatFps="50i">&lt;/VideoFrame>&lt;VideoLayout pixel="1920" numOfVerticalLine="1080" aspectRatio="16:9">&lt;/VideoLayout>&lt;/VideoFormat>&lt;AudioFormat numOfChannel="2">&lt;AudioRecPort port="DIRECT" audioCodec="LPCM16" trackDst="CH1">&lt;/AudioRecPort>&lt;AudioRecPort port="DIRECT" audioCodec="LPCM16" trackDst="CH2">&lt;/AudioRecPort>&lt;/AudioFormat>&lt;Device manufacturer="Sony" modelName="PMW-EX3" serialNo="0401525">&lt;/Device>&lt;Lens modelName="VCL-614B2X">&lt;/Lens>&lt;RecordingMode type="normal" cacheRec="false">&lt;/RecordingMode>&lt;/NonRealTimeMeta>
							</value>
						</metadata>
						<metadata>
							<storage>QuickTime</storage>
							<key>com.apple.proapps.reel</key>
							<size>8</size>
							<type>UTF8</type>
							<value>Untitled</value>
						</metadata>
						<metadata>
							<storage>QuickTime</storage>
							<key>com.apple.proapps.clipID</key>
							<size>64</size>
							<type>UTF8</type>
							<value>060A2B340101010501010D4313000000B113636F615405DD08004602022F05F5</value>
						</metadata>
						<metadata>
							<storage>QuickTime</storage>
							<key>com.apple.quicktime.information</key>
							<size>64</size>
							<type>UTF8</type>
							<value>060a2b340101010501010d4313000000b113636f615405dd08004602022f05f5</value>
						</metadata>
						<metadata>
							<storage>QuickTime</storage>
							<key>com.apple.proapps.originalFormat</key>
							<size>36</size>
							<type>UTF8</type>
							<value>Apple XDCAM EX 1080i50 (35 Mb/s VBR)</value>
						</metadata>
						<timecode>
							<rate>
								<timebase>25</timebase>
							</rate>
							<string>12:58:07:00</string>
							<frame>1167175</frame>
							<displayformat>NDF</displayformat>
							<source>source</source>
							<reel>
								<name>Untitled</name>
							</reel>
						</timecode>
						<media>
							<video>
								<duration>468</duration>
								<samplecharacteristics>
									<width>1920</width>
									<height>1080</height>
								</samplecharacteristics>
							</video>
							<audio>
								<samplecharacteristics>
									<samplerate>48000</samplerate>
									<depth>16</depth>
								</samplecharacteristics>
								<channelcount>1</channelcount>
								<layout>mono</layout>
								<audiochannel>
									<sourcechannel>1</sourcechannel>
									<channellabel>discrete</channellabel>
								</audiochannel>
							</audio>
							<audio>
								<samplecharacteristics>
									<samplerate>48000</samplerate>
									<depth>16</depth>
								</samplecharacteristics>
								<channelcount>1</channelcount>
								<layout>mono</layout>
								<audiochannel>
									<sourcechannel>2</sourcechannel>
									<channellabel>discrete</channellabel>
								</audiochannel>
							</audio>
						</media>
					</file>
					<sourcetrack>
						<mediatype>video</mediatype>
					</sourcetrack>
					<fielddominance>upper</fielddominance>
					<itemhistory>
						<uuid>472EE314-CA0C-44D1-A327-332829517AEF</uuid>
					</itemhistory>
				</clipitem>
				<clipitem id="DYR18589_01 3">
					<name>DYR18589_01</name>
					<duration>1470</duration>
					<rate>
						<ntsc>FALSE</ntsc>
						<timebase>25</timebase>
					</rate>
					<in>679</in>
					<out>722</out>
					<start>26527</start>
					<end>26570</end>
					<pixelaspectratio>Square</pixelaspectratio>
					<anamorphic>FALSE</anamorphic>
					<alphatype>none</alphatype>
					<masterclipid>DYR18589_01 1</masterclipid>
					<logginginfo>
						<scene/>
						<shottake/>
						<lognote/>
						<good>FALSE</good>
					</logginginfo>
					<labels>
						<label2/>
					</labels>
					<comments>
						<mastercomment1/>
						<mastercomment2/>
						<mastercomment3/>
						<mastercomment4/>
					</comments>
					<file id="DYR18589_01 2"/>
					<sourcetrack>
						<mediatype>video</mediatype>
					</sourcetrack>
					<fielddominance>upper</fielddominance>
					<itemhistory>
						<uuid>B31AA10A-A5E6-4370-B562-4AE67D051CFB</uuid>
					</itemhistory>
				</clipitem>
				<clipitem id="DYR18587_01 ">
					<name>DYR18587_01</name>
					<duration>1500</duration>
					<rate>
						<ntsc>FALSE</ntsc>
						<timebase>25</timebase>
					</rate>
					<in>1017</in>
					<out>1054</out>
					<start>26570</start>
					<end>26607</end>
					<pixelaspectratio>Square</pixelaspectratio>
					<enabled>TRUE</enabled>
					<anamorphic>FALSE</anamorphic>
					<alphatype>none</alphatype>
					<masterclipid>DYR18587_01 1</masterclipid>
					<logginginfo>
						<scene/>
						<shottake/>
						<lognote/>
						<good>FALSE</good>
					</logginginfo>
					<labels>
						<label2/>
					</labels>
					<comments>
						<mastercomment1/>
						<mastercomment2/>
						<mastercomment3/>
						<mastercomment4/>
					</comments>
					<file id="DYR18587_01 2">
						<name>DYR18587_01.mov</name>
						<pathurl>file://localhost/Volumes/Askepott/Prosjekter/DNPR637010_Kra%CC%8Akeklubben_TEM_011212/Video/MUSIKKVIDEO/Treet/DYR18587_01.mov</pathurl>
						<rate>
							<timebase>25</timebase>
						</rate>
						<duration>1500</duration>
						<metadata>
							<storage>QuickTime</storage>
							<key>com.sony.bprl.xdcamtransfer.version</key>
							<size>10</size>
							<type>UTF8</type>
							<value>2.12.0.631</value>
						</metadata>
						<metadata>
							<storage>QuickTime</storage>
							<key>org.smpte.mxf.package.material.packageid</key>
							<size>66</size>
							<type>UTF8</type>
							<value>0x060a2b340101010501010d431300000083278762615405dd08004602022f05f5</value>
						</metadata>
						<metadata>
							<storage>QuickTime</storage>
							<key>com.sony.professionaldisc.nonrealtimemeta.lastupdate</key>
							<size>25</size>
							<type>UTF8</type>
							<value>2010-09-22 10:15:14 +0100</value>
						</metadata>
						<metadata>
							<storage>QuickTime</storage>
							<key>com.sony.bprl.mxf.umid</key>
							<size>64</size>
							<type>UTF8</type>
							<value>060a2b340101010501010d431300000083278762615405dd08004602022f05f5</value>
						</metadata>
						<metadata>
							<storage>QuickTime</storage>
							<key>com.sony.bprl.mxf.nrtmetadata</key>
							<size>1994</size>
							<type>UTF8</type>
							<value>&lt;?xml version="1.0" encoding="UTF-8"?>&lt;NonRealTimeMeta xmlns="urn:schemas-professionalDisc:nonRealTimeMeta:ver.1.20" xmlns:lib="urn:schemas-professionalDisc:lib:ver.1.20" xmlns:xsi="http://www.w3.org/2001/XMLSchema-instance" lastUpdate="2010-09-22T10:15:14+01:00">&lt;TargetMaterial umidRef="060A2B340101010501010D431300000083278762615405DD08004602022F05F5">&lt;/TargetMaterial>&lt;Duration value="1500">&lt;/Duration>&lt;LtcChangeTable tcFps="25" halfStep="false">&lt;LtcChange frameCount="0" value="20484712" status="increment">&lt;/LtcChange>&lt;LtcChange frameCount="1499" value="19484812" status="end">&lt;/LtcChange>&lt;/LtcChangeTable>&lt;CreationDate value="2010-09-22T10:14:13+01:00">&lt;/CreationDate>&lt;TypicalUbit value="0000000017061020">&lt;/TypicalUbit>&lt;BodyUmidBasicChangeTable>&lt;BodyUmidBasicChange frameCount="0" value="060A2B340101010501010D433300000083278762615405DD08004602022F05F5" status="start">&lt;/BodyUmidBasicChange>&lt;/BodyUmidBasicChangeTable>&lt;BodyUmidWhenChangeTable>&lt;BodyUmidWhenChange frameCount="0" value="C4DA2B03615405A5" status="increment">&lt;/BodyUmidWhenChange>&lt;BodyUmidWhenChange frameCount="1499" value="84512D03615405A5" status="end">&lt;/BodyUmidWhenChange>&lt;/BodyUmidWhenChangeTable>&lt;KlvPacketTable>&lt;KlvPacket key="060E2B34010101050301020A02000000" frameCount="0" lengthValue="095F5265635374617274" status="spot">&lt;/KlvPacket>&lt;/KlvPacketTable>&lt;VideoFormat>&lt;VideoRecPort port="DIRECT">&lt;/VideoRecPort>&lt;VideoFrame videoCodec="MPEG2HD35_1920_1080_MP@HL" captureFps="50.00i" recFps="50.00" formatFps="50i">&lt;/VideoFrame>&lt;VideoLayout pixel="1920" numOfVerticalLine="1080" aspectRatio="16:9">&lt;/VideoLayout>&lt;/VideoFormat>&lt;AudioFormat numOfChannel="2">&lt;AudioRecPort port="DIRECT" audioCodec="LPCM16" trackDst="CH1">&lt;/AudioRecPort>&lt;AudioRecPort port="DIRECT" audioCodec="LPCM16" trackDst="CH2">&lt;/AudioRecPort>&lt;/AudioFormat>&lt;Device manufacturer="Sony" modelName="PMW-EX3" serialNo="0401525">&lt;/Device>&lt;Lens modelName="VCL-614B2X">&lt;/Lens>&lt;RecordingMode type="normal" cacheRec="false">&lt;/RecordingMode>&lt;/NonRealTimeMeta>
							</value>
						</metadata>
						<metadata>
							<storage>QuickTime</storage>
							<key>com.apple.proapps.reel</key>
							<size>8</size>
							<type>UTF8</type>
							<value>Untitled</value>
						</metadata>
						<metadata>
							<storage>QuickTime</storage>
							<key>com.apple.proapps.clipID</key>
							<size>64</size>
							<type>UTF8</type>
							<value>060A2B340101010501010D431300000083278762615405DD08004602022F05F5</value>
						</metadata>
						<metadata>
							<storage>QuickTime</storage>
							<key>com.apple.quicktime.information</key>
							<size>64</size>
							<type>UTF8</type>
							<value>060a2b340101010501010d431300000083278762615405dd08004602022f05f5</value>
						</metadata>
						<metadata>
							<storage>QuickTime</storage>
							<key>com.apple.proapps.originalFormat</key>
							<size>36</size>
							<type>UTF8</type>
							<value>Apple XDCAM EX 1080i50 (35 Mb/s VBR)</value>
						</metadata>
						<timecode>
							<rate>
								<timebase>25</timebase>
							</rate>
							<string>12:47:48:20</string>
							<frame>1151720</frame>
							<displayformat>NDF</displayformat>
							<source>source</source>
							<reel>
								<name>Untitled</name>
							</reel>
						</timecode>
						<media>
							<video>
								<duration>1500</duration>
								<samplecharacteristics>
									<width>1920</width>
									<height>1080</height>
								</samplecharacteristics>
							</video>
							<audio>
								<samplecharacteristics>
									<samplerate>48000</samplerate>
									<depth>16</depth>
								</samplecharacteristics>
								<channelcount>1</channelcount>
								<layout>mono</layout>
								<audiochannel>
									<sourcechannel>1</sourcechannel>
									<channellabel>discrete</channellabel>
								</audiochannel>
							</audio>
							<audio>
								<samplecharacteristics>
									<samplerate>48000</samplerate>
									<depth>16</depth>
								</samplecharacteristics>
								<channelcount>1</channelcount>
								<layout>mono</layout>
								<audiochannel>
									<sourcechannel>2</sourcechannel>
									<channellabel>discrete</channellabel>
								</audiochannel>
							</audio>
						</media>
					</file>
					<sourcetrack>
						<mediatype>video</mediatype>
					</sourcetrack>
					<fielddominance>upper</fielddominance>
					<itemhistory>
						<uuid>F5FB6B5D-E55A-4E07-8519-AA8EF35B5C1B</uuid>
					</itemhistory>
				</clipitem>
				<clipitem id="DYR18584_01 5">
					<name>DYR18584_01</name>
					<duration>2638</duration>
					<rate>
						<ntsc>FALSE</ntsc>
						<timebase>25</timebase>
					</rate>
					<in>1846</in>
					<out>1955</out>
					<start>26607</start>
					<end>26716</end>
					<pixelaspectratio>Square</pixelaspectratio>
					<enabled>TRUE</enabled>
					<anamorphic>FALSE</anamorphic>
					<alphatype>none</alphatype>
					<masterclipid>DYR18584_01 1</masterclipid>
					<logginginfo>
						<scene/>
						<shottake/>
						<lognote/>
						<good>FALSE</good>
					</logginginfo>
					<labels>
						<label2/>
					</labels>
					<comments>
						<mastercomment1/>
						<mastercomment2/>
						<mastercomment3/>
						<mastercomment4/>
					</comments>
					<file id="DYR18584_01 2"/>
					<sourcetrack>
						<mediatype>video</mediatype>
					</sourcetrack>
					<fielddominance>upper</fielddominance>
					<itemhistory>
						<uuid>61E78142-9F83-45ED-9332-470CB00BB7AB</uuid>
					</itemhistory>
				</clipitem>
				<clipitem id="DYR18654_01 ">
					<name>DYR18654_01</name>
					<duration>978</duration>
					<rate>
						<ntsc>FALSE</ntsc>
						<timebase>25</timebase>
					</rate>
					<in>353</in>
					<out>408</out>
					<start>26716</start>
					<end>26771</end>
					<pixelaspectratio>Square</pixelaspectratio>
					<enabled>TRUE</enabled>
					<anamorphic>FALSE</anamorphic>
					<alphatype>none</alphatype>
					<masterclipid>DYR18654_01 1</masterclipid>
					<logginginfo>
						<scene/>
						<shottake/>
						<lognote/>
						<good>FALSE</good>
					</logginginfo>
					<labels>
						<label2/>
					</labels>
					<comments>
						<mastercomment1/>
						<mastercomment2/>
						<mastercomment3/>
						<mastercomment4/>
					</comments>
					<file id="DYR18654_01 2">
						<name>DYR18654_01.mov</name>
						<pathurl>file://localhost/Volumes/Askepott/Prosjekter/DNPR637010_Kra%CC%8Akeklubben_TEM_011212/Video/MUSIKKVIDEO/Treet/DYR18654_01.mov</pathurl>
						<rate>
							<timebase>25</timebase>
						</rate>
						<duration>978</duration>
						<metadata>
							<storage>QuickTime</storage>
							<key>com.sony.bprl.xdcamtransfer.version</key>
							<size>10</size>
							<type>UTF8</type>
							<value>2.12.0.631</value>
						</metadata>
						<metadata>
							<storage>QuickTime</storage>
							<key>org.smpte.mxf.package.material.packageid</key>
							<size>66</size>
							<type>UTF8</type>
							<value>0x060a2b340101010501010d43130000005af3b782615405de08004602022f05f5</value>
						</metadata>
						<metadata>
							<storage>QuickTime</storage>
							<key>com.sony.professionaldisc.nonrealtimemeta.lastupdate</key>
							<size>25</size>
							<type>UTF8</type>
							<value>2010-09-22 13:15:57 +0100</value>
						</metadata>
						<metadata>
							<storage>QuickTime</storage>
							<key>com.sony.bprl.mxf.umid</key>
							<size>64</size>
							<type>UTF8</type>
							<value>060a2b340101010501010d43130000005af3b782615405de08004602022f05f5</value>
						</metadata>
						<metadata>
							<storage>QuickTime</storage>
							<key>com.sony.bprl.mxf.nrtmetadata</key>
							<size>1991</size>
							<type>UTF8</type>
							<value>&lt;?xml version="1.0" encoding="UTF-8"?>&lt;NonRealTimeMeta xmlns="urn:schemas-professionalDisc:nonRealTimeMeta:ver.1.20" xmlns:lib="urn:schemas-professionalDisc:lib:ver.1.20" xmlns:xsi="http://www.w3.org/2001/XMLSchema-instance" lastUpdate="2010-09-22T13:15:57+01:00">&lt;TargetMaterial umidRef="060A2B340101010501010D43130000005AF3B782615405DE08004602022F05F5">&lt;/TargetMaterial>&lt;Duration value="978">&lt;/Duration>&lt;LtcChangeTable tcFps="25" halfStep="false">&lt;LtcChange frameCount="0" value="00282013" status="increment">&lt;/LtcChange>&lt;LtcChange frameCount="977" value="02072113" status="end">&lt;/LtcChange>&lt;/LtcChangeTable>&lt;CreationDate value="2010-09-22T13:15:17+01:00">&lt;/CreationDate>&lt;TypicalUbit value="0000000017061020">&lt;/TypicalUbit>&lt;BodyUmidBasicChangeTable>&lt;BodyUmidBasicChange frameCount="0" value="060A2B340101010501010D43330000005AF3B782615405DE08004602022F05F5" status="start">&lt;/BodyUmidBasicChange>&lt;/BodyUmidBasicChangeTable>&lt;BodyUmidWhenChangeTable>&lt;BodyUmidWhenChange frameCount="0" value="84183504615405A5" status="increment">&lt;/BodyUmidWhenChange>&lt;BodyUmidWhenChange frameCount="977" value="C40C3604615405A5" status="end">&lt;/BodyUmidWhenChange>&lt;/BodyUmidWhenChangeTable>&lt;KlvPacketTable>&lt;KlvPacket key="060E2B34010101050301020A02000000" frameCount="0" lengthValue="095F5265635374617274" status="spot">&lt;/KlvPacket>&lt;/KlvPacketTable>&lt;VideoFormat>&lt;VideoRecPort port="DIRECT">&lt;/VideoRecPort>&lt;VideoFrame videoCodec="MPEG2HD35_1920_1080_MP@HL" captureFps="50.00i" recFps="50.00" formatFps="50i">&lt;/VideoFrame>&lt;VideoLayout pixel="1920" numOfVerticalLine="1080" aspectRatio="16:9">&lt;/VideoLayout>&lt;/VideoFormat>&lt;AudioFormat numOfChannel="2">&lt;AudioRecPort port="DIRECT" audioCodec="LPCM16" trackDst="CH1">&lt;/AudioRecPort>&lt;AudioRecPort port="DIRECT" audioCodec="LPCM16" trackDst="CH2">&lt;/AudioRecPort>&lt;/AudioFormat>&lt;Device manufacturer="Sony" modelName="PMW-EX3" serialNo="0401525">&lt;/Device>&lt;Lens modelName="VCL-614B2X">&lt;/Lens>&lt;RecordingMode type="normal" cacheRec="false">&lt;/RecordingMode>&lt;/NonRealTimeMeta>
							</value>
						</metadata>
						<metadata>
							<storage>QuickTime</storage>
							<key>com.apple.proapps.reel</key>
							<size>8</size>
							<type>UTF8</type>
							<value>Untitled</value>
						</metadata>
						<metadata>
							<storage>QuickTime</storage>
							<key>com.apple.proapps.clipID</key>
							<size>64</size>
							<type>UTF8</type>
							<value>060A2B340101010501010D43130000005AF3B782615405DE08004602022F05F5</value>
						</metadata>
						<metadata>
							<storage>QuickTime</storage>
							<key>com.apple.quicktime.information</key>
							<size>64</size>
							<type>UTF8</type>
							<value>060a2b340101010501010d43130000005af3b782615405de08004602022f05f5</value>
						</metadata>
						<metadata>
							<storage>QuickTime</storage>
							<key>com.apple.proapps.originalFormat</key>
							<size>36</size>
							<type>UTF8</type>
							<value>Apple XDCAM EX 1080i50 (35 Mb/s VBR)</value>
						</metadata>
						<timecode>
							<rate>
								<timebase>25</timebase>
							</rate>
							<string>13:20:28:00</string>
							<frame>1200700</frame>
							<displayformat>NDF</displayformat>
							<source>source</source>
							<reel>
								<name>Untitled</name>
							</reel>
						</timecode>
						<media>
							<video>
								<duration>978</duration>
								<samplecharacteristics>
									<width>1920</width>
									<height>1080</height>
								</samplecharacteristics>
							</video>
							<audio>
								<samplecharacteristics>
									<samplerate>48000</samplerate>
									<depth>16</depth>
								</samplecharacteristics>
								<channelcount>1</channelcount>
								<layout>mono</layout>
								<audiochannel>
									<sourcechannel>1</sourcechannel>
									<channellabel>discrete</channellabel>
								</audiochannel>
							</audio>
							<audio>
								<samplecharacteristics>
									<samplerate>48000</samplerate>
									<depth>16</depth>
								</samplecharacteristics>
								<channelcount>1</channelcount>
								<layout>mono</layout>
								<audiochannel>
									<sourcechannel>2</sourcechannel>
									<channellabel>discrete</channellabel>
								</audiochannel>
							</audio>
						</media>
					</file>
					<sourcetrack>
						<mediatype>video</mediatype>
					</sourcetrack>
					<fielddominance>upper</fielddominance>
					<itemhistory>
						<uuid>93636CDB-7B67-4C7A-BE8D-441D626A16A6</uuid>
					</itemhistory>
				</clipitem>
				<clipitem id="DYR18636_01 ">
					<name>DYR18636_01</name>
					<duration>2265</duration>
					<rate>
						<ntsc>FALSE</ntsc>
						<timebase>25</timebase>
					</rate>
					<in>646</in>
					<out>682</out>
					<start>26771</start>
					<end>26807</end>
					<pixelaspectratio>Square</pixelaspectratio>
					<enabled>TRUE</enabled>
					<anamorphic>FALSE</anamorphic>
					<alphatype>none</alphatype>
					<masterclipid>DYR18636_01 1</masterclipid>
					<logginginfo>
						<scene/>
						<shottake/>
						<lognote/>
						<good>FALSE</good>
					</logginginfo>
					<labels>
						<label2/>
					</labels>
					<comments>
						<mastercomment1/>
						<mastercomment2/>
						<mastercomment3/>
						<mastercomment4/>
					</comments>
					<file id="DYR18636_01 2">
						<name>DYR18636_01.mov</name>
						<pathurl>file://localhost/Volumes/Askepott/Prosjekter/DNPR637010_Kra%CC%8Akeklubben_TEM_011212/Video/MUSIKKVIDEO/Treet/DYR18636_01.mov</pathurl>
						<rate>
							<timebase>25</timebase>
						</rate>
						<duration>2265</duration>
						<metadata>
							<storage>QuickTime</storage>
							<key>com.sony.bprl.xdcamtransfer.version</key>
							<size>10</size>
							<type>UTF8</type>
							<value>2.12.0.631</value>
						</metadata>
						<metadata>
							<storage>QuickTime</storage>
							<key>org.smpte.mxf.package.material.packageid</key>
							<size>66</size>
							<type>UTF8</type>
							<value>0x060a2b340101010501010d4313000000cbeaba7a615405c508004602022f05f5</value>
						</metadata>
						<metadata>
							<storage>QuickTime</storage>
							<key>com.sony.professionaldisc.nonrealtimemeta.lastupdate</key>
							<size>25</size>
							<type>UTF8</type>
							<value>2010-09-22 12:31:53 +0100</value>
						</metadata>
						<metadata>
							<storage>QuickTime</storage>
							<key>com.sony.bprl.mxf.umid</key>
							<size>64</size>
							<type>UTF8</type>
							<value>060a2b340101010501010d4313000000cbeaba7a615405c508004602022f05f5</value>
						</metadata>
						<metadata>
							<storage>QuickTime</storage>
							<key>com.sony.bprl.mxf.nrtmetadata</key>
							<size>1994</size>
							<type>UTF8</type>
							<value>&lt;?xml version="1.0" encoding="UTF-8"?>&lt;NonRealTimeMeta xmlns="urn:schemas-professionalDisc:nonRealTimeMeta:ver.1.20" xmlns:lib="urn:schemas-professionalDisc:lib:ver.1.20" xmlns:xsi="http://www.w3.org/2001/XMLSchema-instance" lastUpdate="2010-09-22T12:31:53+01:00">&lt;TargetMaterial umidRef="060A2B340101010501010D4313000000CBEABA7A615405C508004602022F05F5">&lt;/TargetMaterial>&lt;Duration value="2265">&lt;/Duration>&lt;LtcChangeTable tcFps="25" halfStep="false">&lt;LtcChange frameCount="0" value="09141013" status="increment">&lt;/LtcChange>&lt;LtcChange frameCount="2264" value="23441113" status="end">&lt;/LtcChange>&lt;/LtcChangeTable>&lt;CreationDate value="2010-09-22T12:30:21+01:00">&lt;/CreationDate>&lt;TypicalUbit value="0000000017061020">&lt;/TypicalUbit>&lt;BodyUmidBasicChangeTable>&lt;BodyUmidBasicChange frameCount="0" value="060A2B340101010501010D4333000000CBEABA7A615405C508004602022F05F5" status="start">&lt;/BodyUmidBasicChange>&lt;/BodyUmidBasicChangeTable>&lt;BodyUmidWhenChangeTable>&lt;BodyUmidWhenChange frameCount="0" value="C445F303615405A5" status="increment">&lt;/BodyUmidWhenChange>&lt;BodyUmidWhenChange frameCount="2264" value="C47BF503615405A5" status="end">&lt;/BodyUmidWhenChange>&lt;/BodyUmidWhenChangeTable>&lt;KlvPacketTable>&lt;KlvPacket key="060E2B34010101050301020A02000000" frameCount="0" lengthValue="095F5265635374617274" status="spot">&lt;/KlvPacket>&lt;/KlvPacketTable>&lt;VideoFormat>&lt;VideoRecPort port="DIRECT">&lt;/VideoRecPort>&lt;VideoFrame videoCodec="MPEG2HD35_1920_1080_MP@HL" captureFps="50.00i" recFps="50.00" formatFps="50i">&lt;/VideoFrame>&lt;VideoLayout pixel="1920" numOfVerticalLine="1080" aspectRatio="16:9">&lt;/VideoLayout>&lt;/VideoFormat>&lt;AudioFormat numOfChannel="2">&lt;AudioRecPort port="DIRECT" audioCodec="LPCM16" trackDst="CH1">&lt;/AudioRecPort>&lt;AudioRecPort port="DIRECT" audioCodec="LPCM16" trackDst="CH2">&lt;/AudioRecPort>&lt;/AudioFormat>&lt;Device manufacturer="Sony" modelName="PMW-EX3" serialNo="0401525">&lt;/Device>&lt;Lens modelName="VCL-614B2X">&lt;/Lens>&lt;RecordingMode type="normal" cacheRec="false">&lt;/RecordingMode>&lt;/NonRealTimeMeta>
							</value>
						</metadata>
						<metadata>
							<storage>QuickTime</storage>
							<key>com.apple.proapps.reel</key>
							<size>8</size>
							<type>UTF8</type>
							<value>Untitled</value>
						</metadata>
						<metadata>
							<storage>QuickTime</storage>
							<key>com.apple.proapps.clipID</key>
							<size>64</size>
							<type>UTF8</type>
							<value>060A2B340101010501010D4313000000CBEABA7A615405C508004602022F05F5</value>
						</metadata>
						<metadata>
							<storage>QuickTime</storage>
							<key>com.apple.quicktime.information</key>
							<size>64</size>
							<type>UTF8</type>
							<value>060a2b340101010501010d4313000000cbeaba7a615405c508004602022f05f5</value>
						</metadata>
						<metadata>
							<storage>QuickTime</storage>
							<key>com.apple.proapps.originalFormat</key>
							<size>36</size>
							<type>UTF8</type>
							<value>Apple XDCAM EX 1080i50 (35 Mb/s VBR)</value>
						</metadata>
						<timecode>
							<rate>
								<timebase>25</timebase>
							</rate>
							<string>13:10:14:09</string>
							<frame>1185359</frame>
							<displayformat>NDF</displayformat>
							<source>source</source>
							<reel>
								<name>Untitled</name>
							</reel>
						</timecode>
						<media>
							<video>
								<duration>2265</duration>
								<samplecharacteristics>
									<width>1920</width>
									<height>1080</height>
								</samplecharacteristics>
							</video>
							<audio>
								<samplecharacteristics>
									<samplerate>48000</samplerate>
									<depth>16</depth>
								</samplecharacteristics>
								<channelcount>1</channelcount>
								<layout>mono</layout>
								<audiochannel>
									<sourcechannel>1</sourcechannel>
									<channellabel>discrete</channellabel>
								</audiochannel>
							</audio>
							<audio>
								<samplecharacteristics>
									<samplerate>48000</samplerate>
									<depth>16</depth>
								</samplecharacteristics>
								<channelcount>1</channelcount>
								<layout>mono</layout>
								<audiochannel>
									<sourcechannel>2</sourcechannel>
									<channellabel>discrete</channellabel>
								</audiochannel>
							</audio>
						</media>
					</file>
					<sourcetrack>
						<mediatype>video</mediatype>
					</sourcetrack>
					<fielddominance>upper</fielddominance>
					<itemhistory>
						<uuid>2BD93F31-BA36-4B75-98DF-29E5617DD8BB</uuid>
					</itemhistory>
				</clipitem>
				<clipitem id="DYR18636_01 3">
					<name>DYR18636_01</name>
					<duration>2265</duration>
					<rate>
						<ntsc>FALSE</ntsc>
						<timebase>25</timebase>
					</rate>
					<in>1659</in>
					<out>1694</out>
					<start>26807</start>
					<end>26842</end>
					<pixelaspectratio>Square</pixelaspectratio>
					<anamorphic>FALSE</anamorphic>
					<alphatype>none</alphatype>
					<masterclipid>DYR18636_01 1</masterclipid>
					<logginginfo>
						<scene/>
						<shottake/>
						<lognote/>
						<good>FALSE</good>
					</logginginfo>
					<labels>
						<label2/>
					</labels>
					<comments>
						<mastercomment1/>
						<mastercomment2/>
						<mastercomment3/>
						<mastercomment4/>
					</comments>
					<file id="DYR18636_01 2"/>
					<sourcetrack>
						<mediatype>video</mediatype>
					</sourcetrack>
					<fielddominance>upper</fielddominance>
					<itemhistory>
						<uuid>BE43073A-2E72-4452-B113-063912AD41FD</uuid>
					</itemhistory>
				</clipitem>
				<clipitem id="DYR18595_01 ">
					<name>DYR18595_01</name>
					<duration>821</duration>
					<rate>
						<ntsc>FALSE</ntsc>
						<timebase>25</timebase>
					</rate>
					<in>650</in>
					<out>770</out>
					<start>26842</start>
					<end>-1</end>
					<pixelaspectratio>Square</pixelaspectratio>
					<enabled>TRUE</enabled>
					<anamorphic>FALSE</anamorphic>
					<alphatype>none</alphatype>
					<masterclipid>DYR18595_01 1</masterclipid>
					<logginginfo>
						<scene/>
						<shottake/>
						<lognote/>
						<good>FALSE</good>
					</logginginfo>
					<labels>
						<label2/>
					</labels>
					<comments>
						<mastercomment1/>
						<mastercomment2/>
						<mastercomment3/>
						<mastercomment4/>
					</comments>
					<file id="DYR18595_01 2">
						<name>DYR18595_01.mov</name>
						<pathurl>file://localhost/Volumes/Askepott/Prosjekter/DNPR637010_Kra%CC%8Akeklubben_TEM_011212/Video/MUSIKKVIDEO/Treet/DYR18595_01.mov</pathurl>
						<rate>
							<timebase>25</timebase>
						</rate>
						<duration>821</duration>
						<metadata>
							<storage>QuickTime</storage>
							<key>com.sony.bprl.xdcamtransfer.version</key>
							<size>10</size>
							<type>UTF8</type>
							<value>2.12.0.631</value>
						</metadata>
						<metadata>
							<storage>QuickTime</storage>
							<key>org.smpte.mxf.package.material.packageid</key>
							<size>66</size>
							<type>UTF8</type>
							<value>0x060a2b340101010501010d4313000000406f036b615405dd08004602022f05f5</value>
						</metadata>
						<metadata>
							<storage>QuickTime</storage>
							<key>com.sony.professionaldisc.nonrealtimemeta.lastupdate</key>
							<size>25</size>
							<type>UTF8</type>
							<value>2010-09-22 11:02:31 +0100</value>
						</metadata>
						<metadata>
							<storage>QuickTime</storage>
							<key>com.sony.bprl.mxf.umid</key>
							<size>64</size>
							<type>UTF8</type>
							<value>060a2b340101010501010d4313000000406f036b615405dd08004602022f05f5</value>
						</metadata>
						<metadata>
							<storage>QuickTime</storage>
							<key>com.sony.bprl.mxf.nrtmetadata</key>
							<size>1991</size>
							<type>UTF8</type>
							<value>&lt;?xml version="1.0" encoding="UTF-8"?>&lt;NonRealTimeMeta xmlns="urn:schemas-professionalDisc:nonRealTimeMeta:ver.1.20" xmlns:lib="urn:schemas-professionalDisc:lib:ver.1.20" xmlns:xsi="http://www.w3.org/2001/XMLSchema-instance" lastUpdate="2010-09-22T11:02:31+01:00">&lt;TargetMaterial umidRef="060A2B340101010501010D4313000000406F036B615405DD08004602022F05F5">&lt;/TargetMaterial>&lt;Duration value="821">&lt;/Duration>&lt;LtcChangeTable tcFps="25" halfStep="false">&lt;LtcChange frameCount="0" value="13285312" status="increment">&lt;/LtcChange>&lt;LtcChange frameCount="820" value="08015412" status="end">&lt;/LtcChange>&lt;/LtcChangeTable>&lt;CreationDate value="2010-09-22T11:01:57+01:00">&lt;/CreationDate>&lt;TypicalUbit value="0000000017061020">&lt;/TypicalUbit>&lt;BodyUmidBasicChangeTable>&lt;BodyUmidBasicChange frameCount="0" value="060A2B340101010501010D4333000000406F036B615405DD08004602022F05F5" status="start">&lt;/BodyUmidBasicChange>&lt;/BodyUmidBasicChangeTable>&lt;BodyUmidWhenChangeTable>&lt;BodyUmidWhenChange frameCount="0" value="44C57103615405A5" status="increment">&lt;/BodyUmidWhenChange>&lt;BodyUmidWhenChange frameCount="820" value="44927203615405A5" status="end">&lt;/BodyUmidWhenChange>&lt;/BodyUmidWhenChangeTable>&lt;KlvPacketTable>&lt;KlvPacket key="060E2B34010101050301020A02000000" frameCount="0" lengthValue="095F5265635374617274" status="spot">&lt;/KlvPacket>&lt;/KlvPacketTable>&lt;VideoFormat>&lt;VideoRecPort port="DIRECT">&lt;/VideoRecPort>&lt;VideoFrame videoCodec="MPEG2HD35_1920_1080_MP@HL" captureFps="50.00i" recFps="50.00" formatFps="50i">&lt;/VideoFrame>&lt;VideoLayout pixel="1920" numOfVerticalLine="1080" aspectRatio="16:9">&lt;/VideoLayout>&lt;/VideoFormat>&lt;AudioFormat numOfChannel="2">&lt;AudioRecPort port="DIRECT" audioCodec="LPCM16" trackDst="CH1">&lt;/AudioRecPort>&lt;AudioRecPort port="DIRECT" audioCodec="LPCM16" trackDst="CH2">&lt;/AudioRecPort>&lt;/AudioFormat>&lt;Device manufacturer="Sony" modelName="PMW-EX3" serialNo="0401525">&lt;/Device>&lt;Lens modelName="VCL-614B2X">&lt;/Lens>&lt;RecordingMode type="normal" cacheRec="false">&lt;/RecordingMode>&lt;/NonRealTimeMeta>
							</value>
						</metadata>
						<metadata>
							<storage>QuickTime</storage>
							<key>com.apple.proapps.reel</key>
							<size>8</size>
							<type>UTF8</type>
							<value>Untitled</value>
						</metadata>
						<metadata>
							<storage>QuickTime</storage>
							<key>com.apple.proapps.clipID</key>
							<size>64</size>
							<type>UTF8</type>
							<value>060A2B340101010501010D4313000000406F036B615405DD08004602022F05F5</value>
						</metadata>
						<metadata>
							<storage>QuickTime</storage>
							<key>com.apple.quicktime.information</key>
							<size>64</size>
							<type>UTF8</type>
							<value>060a2b340101010501010d4313000000406f036b615405dd08004602022f05f5</value>
						</metadata>
						<metadata>
							<storage>QuickTime</storage>
							<key>com.apple.proapps.originalFormat</key>
							<size>36</size>
							<type>UTF8</type>
							<value>Apple XDCAM EX 1080i50 (35 Mb/s VBR)</value>
						</metadata>
						<timecode>
							<rate>
								<timebase>25</timebase>
							</rate>
							<string>12:53:28:13</string>
							<frame>1160213</frame>
							<displayformat>NDF</displayformat>
							<source>source</source>
							<reel>
								<name>Untitled</name>
							</reel>
						</timecode>
						<media>
							<video>
								<duration>821</duration>
								<samplecharacteristics>
									<width>1920</width>
									<height>1080</height>
								</samplecharacteristics>
							</video>
							<audio>
								<samplecharacteristics>
									<samplerate>48000</samplerate>
									<depth>16</depth>
								</samplecharacteristics>
								<channelcount>1</channelcount>
								<layout>mono</layout>
								<audiochannel>
									<sourcechannel>1</sourcechannel>
									<channellabel>discrete</channellabel>
								</audiochannel>
							</audio>
							<audio>
								<samplecharacteristics>
									<samplerate>48000</samplerate>
									<depth>16</depth>
								</samplecharacteristics>
								<channelcount>1</channelcount>
								<layout>mono</layout>
								<audiochannel>
									<sourcechannel>2</sourcechannel>
									<channellabel>discrete</channellabel>
								</audiochannel>
							</audio>
						</media>
					</file>
					<sourcetrack>
						<mediatype>video</mediatype>
					</sourcetrack>
					<fielddominance>upper</fielddominance>
					<itemhistory>
						<uuid>59C27174-B8D5-4AC2-B16B-63F07BB558AF</uuid>
					</itemhistory>
				</clipitem>
				<transitionitem>
					<rate>
						<ntsc>FALSE</ntsc>
						<timebase>25</timebase>
					</rate>
					<start>26953</start>
					<end>26962</end>
					<alignment>center</alignment>
					<effect>
						<name>Cross Dissolve</name>
						<effectid>Cross Dissolve</effectid>
						<effectcategory>Dissolve</effectcategory>
						<effecttype>transition</effecttype>
						<mediatype>video</mediatype>
						<wipecode>0</wipecode>
						<wipeaccuracy>100</wipeaccuracy>
						<startratio>0</startratio>
						<endratio>1</endratio>
						<reverse>FALSE</reverse>
					</effect>
				</transitionitem>
				<clipitem id="DYR18724_01 ">
					<name>DYR18724_01</name>
					<duration>498</duration>
					<rate>
						<ntsc>FALSE</ntsc>
						<timebase>25</timebase>
					</rate>
					<in>168</in>
					<out>218</out>
					<start>-1</start>
					<end>27003</end>
					<pixelaspectratio>Square</pixelaspectratio>
					<enabled>TRUE</enabled>
					<anamorphic>FALSE</anamorphic>
					<alphatype>none</alphatype>
					<masterclipid>DYR18724_01 1</masterclipid>
					<logginginfo>
						<scene/>
						<shottake/>
						<lognote/>
						<good>FALSE</good>
					</logginginfo>
					<labels>
						<label2/>
					</labels>
					<comments>
						<mastercomment1/>
						<mastercomment2/>
						<mastercomment3/>
						<mastercomment4/>
					</comments>
					<file id="DYR18724_01 2">
						<name>DYR18724_01.mov</name>
						<pathurl>file://localhost/Volumes/Askepott/Prosjekter/DNPR637010_Kra%CC%8Akeklubben_TEM_011212/Video/MUSIKKVIDEO/Treet/DYR18724_01.mov</pathurl>
						<rate>
							<timebase>25</timebase>
						</rate>
						<duration>498</duration>
						<metadata>
							<storage>QuickTime</storage>
							<key>com.sony.bprl.xdcamtransfer.version</key>
							<size>10</size>
							<type>UTF8</type>
							<value>2.12.0.631</value>
						</metadata>
						<metadata>
							<storage>QuickTime</storage>
							<key>org.smpte.mxf.package.material.packageid</key>
							<size>66</size>
							<type>UTF8</type>
							<value>0x060a2b340101010501010d4313000000087b7686625405c908004602022f05f5</value>
						</metadata>
						<metadata>
							<storage>QuickTime</storage>
							<key>com.sony.professionaldisc.nonrealtimemeta.lastupdate</key>
							<size>25</size>
							<type>UTF8</type>
							<value>2010-09-23 13:36:42 +0100</value>
						</metadata>
						<metadata>
							<storage>QuickTime</storage>
							<key>com.sony.bprl.mxf.umid</key>
							<size>64</size>
							<type>UTF8</type>
							<value>060a2b340101010501010d4313000000087b7686625405c908004602022f05f5</value>
						</metadata>
						<metadata>
							<storage>QuickTime</storage>
							<key>com.sony.bprl.mxf.nrtmetadata</key>
							<size>1991</size>
							<type>UTF8</type>
							<value>&lt;?xml version="1.0" encoding="UTF-8"?>&lt;NonRealTimeMeta xmlns="urn:schemas-professionalDisc:nonRealTimeMeta:ver.1.20" xmlns:lib="urn:schemas-professionalDisc:lib:ver.1.20" xmlns:xsi="http://www.w3.org/2001/XMLSchema-instance" lastUpdate="2010-09-23T13:36:42+01:00">&lt;TargetMaterial umidRef="060A2B340101010501010D4313000000087B7686625405C908004602022F05F5">&lt;/TargetMaterial>&lt;Duration value="498">&lt;/Duration>&lt;LtcChangeTable tcFps="25" halfStep="false">&lt;LtcChange frameCount="0" value="02380614" status="increment">&lt;/LtcChange>&lt;LtcChange frameCount="497" value="24570614" status="end">&lt;/LtcChange>&lt;/LtcChangeTable>&lt;CreationDate value="2010-09-23T13:36:21+01:00">&lt;/CreationDate>&lt;TypicalUbit value="0000000017061020">&lt;/TypicalUbit>&lt;BodyUmidBasicChangeTable>&lt;BodyUmidBasicChange frameCount="0" value="060A2B340101010501010D4333000000087B7686625405C908004602022F05F5" status="start">&lt;/BodyUmidBasicChange>&lt;/BodyUmidBasicChangeTable>&lt;BodyUmidWhenChangeTable>&lt;BodyUmidWhenChange frameCount="0" value="44F45304625405A5" status="increment">&lt;/BodyUmidWhenChange>&lt;BodyUmidWhenChange frameCount="497" value="84705404625405A5" status="end">&lt;/BodyUmidWhenChange>&lt;/BodyUmidWhenChangeTable>&lt;KlvPacketTable>&lt;KlvPacket key="060E2B34010101050301020A02000000" frameCount="0" lengthValue="095F5265635374617274" status="spot">&lt;/KlvPacket>&lt;/KlvPacketTable>&lt;VideoFormat>&lt;VideoRecPort port="DIRECT">&lt;/VideoRecPort>&lt;VideoFrame videoCodec="MPEG2HD35_1920_1080_MP@HL" captureFps="50.00i" recFps="50.00" formatFps="50i">&lt;/VideoFrame>&lt;VideoLayout pixel="1920" numOfVerticalLine="1080" aspectRatio="16:9">&lt;/VideoLayout>&lt;/VideoFormat>&lt;AudioFormat numOfChannel="2">&lt;AudioRecPort port="DIRECT" audioCodec="LPCM16" trackDst="CH1">&lt;/AudioRecPort>&lt;AudioRecPort port="DIRECT" audioCodec="LPCM16" trackDst="CH2">&lt;/AudioRecPort>&lt;/AudioFormat>&lt;Device manufacturer="Sony" modelName="PMW-EX3" serialNo="0401525">&lt;/Device>&lt;Lens modelName="VCL-614B2X">&lt;/Lens>&lt;RecordingMode type="normal" cacheRec="false">&lt;/RecordingMode>&lt;/NonRealTimeMeta>
							</value>
						</metadata>
						<metadata>
							<storage>QuickTime</storage>
							<key>com.apple.proapps.reel</key>
							<size>8</size>
							<type>UTF8</type>
							<value>Untitled</value>
						</metadata>
						<metadata>
							<storage>QuickTime</storage>
							<key>com.apple.proapps.clipID</key>
							<size>64</size>
							<type>UTF8</type>
							<value>060A2B340101010501010D4313000000087B7686625405C908004602022F05F5</value>
						</metadata>
						<metadata>
							<storage>QuickTime</storage>
							<key>com.apple.quicktime.information</key>
							<size>64</size>
							<type>UTF8</type>
							<value>060a2b340101010501010d4313000000087b7686625405c908004602022f05f5</value>
						</metadata>
						<metadata>
							<storage>QuickTime</storage>
							<key>com.apple.proapps.originalFormat</key>
							<size>36</size>
							<type>UTF8</type>
							<value>Apple XDCAM EX 1080i50 (35 Mb/s VBR)</value>
						</metadata>
						<timecode>
							<rate>
								<timebase>25</timebase>
							</rate>
							<string>14:06:38:02</string>
							<frame>1269952</frame>
							<displayformat>NDF</displayformat>
							<source>source</source>
							<reel>
								<name>Untitled</name>
							</reel>
						</timecode>
						<media>
							<video>
								<duration>498</duration>
								<samplecharacteristics>
									<width>1920</width>
									<height>1080</height>
								</samplecharacteristics>
							</video>
							<audio>
								<samplecharacteristics>
									<samplerate>48000</samplerate>
									<depth>16</depth>
								</samplecharacteristics>
								<channelcount>1</channelcount>
								<layout>mono</layout>
								<audiochannel>
									<sourcechannel>1</sourcechannel>
									<channellabel>discrete</channellabel>
								</audiochannel>
							</audio>
							<audio>
								<samplecharacteristics>
									<samplerate>48000</samplerate>
									<depth>16</depth>
								</samplecharacteristics>
								<channelcount>1</channelcount>
								<layout>mono</layout>
								<audiochannel>
									<sourcechannel>2</sourcechannel>
									<channellabel>discrete</channellabel>
								</audiochannel>
							</audio>
						</media>
					</file>
					<filter>
						<effect>
							<name>Basic Motion</name>
							<effectid>basic</effectid>
							<effectcategory>motion</effectcategory>
							<effecttype>motion</effecttype>
							<mediatype>video</mediatype>
							<parameter>
								<parameterid>scale</parameterid>
								<name>Scale</name>
								<valuemin>0</valuemin>
								<valuemax>1000</valuemax>
								<value>100</value>
							</parameter>
							<parameter>
								<parameterid>rotation</parameterid>
								<name>Rotation</name>
								<valuemin>-8640</valuemin>
								<valuemax>8640</valuemax>
								<value>0</value>
							</parameter>
							<parameter>
								<parameterid>center</parameterid>
								<name>Center</name>
								<value>
									<horiz>0</horiz>
									<vert>0</vert>
								</value>
							</parameter>
							<parameter>
								<parameterid>centerOffset</parameterid>
								<name>Anchor Point</name>
								<value>
									<horiz>0</horiz>
									<vert>0</vert>
								</value>
							</parameter>
						</effect>
					</filter>
					<filter>
						<enabled>FALSE</enabled>
						<effect>
							<name>Drop Shadow</name>
							<effectid>dropshadow</effectid>
							<effectcategory>motion</effectcategory>
							<effecttype>motion</effecttype>
							<mediatype>video</mediatype>
							<parameter>
								<parameterid>offset</parameterid>
								<name>offset</name>
								<valuemin>-100</valuemin>
								<valuemax>100</valuemax>
								<value>2</value>
							</parameter>
							<parameter>
								<parameterid>angle</parameterid>
								<name>angle</name>
								<valuemin>-720</valuemin>
								<valuemax>720</valuemax>
								<value>135</value>
							</parameter>
							<parameter>
								<parameterid>color</parameterid>
								<name>color</name>
								<value>
									<alpha>0</alpha>
									<red>0</red>
									<green>0</green>
									<blue>0</blue>
								</value>
							</parameter>
							<parameter>
								<parameterid>softness</parameterid>
								<name>softness</name>
								<valuemin>0</valuemin>
								<valuemax>100</valuemax>
								<value>10</value>
							</parameter>
							<parameter>
								<parameterid>opacity</parameterid>
								<name>opacity</name>
								<valuemin>0</valuemin>
								<valuemax>100</valuemax>
								<value>50</value>
							</parameter>
						</effect>
					</filter>
					<filter>
						<enabled>FALSE</enabled>
						<effect>
							<name>Motion Blur</name>
							<effectid>motionblur</effectid>
							<effectcategory>motion</effectcategory>
							<effecttype>motion</effecttype>
							<mediatype>video</mediatype>
							<parameter>
								<parameterid>duration</parameterid>
								<name>% Blur</name>
								<valuemin>0</valuemin>
								<valuemax>1000</valuemax>
								<value>500</value>
							</parameter>
							<parameter>
								<parameterid>samples</parameterid>
								<name>Samples</name>
								<valuemin>1</valuemin>
								<valuemax>16</valuemax>
								<value>4</value>
							</parameter>
						</effect>
					</filter>
					<filter>
						<effect>
							<name>Crop</name>
							<effectid>crop</effectid>
							<effectcategory>motion</effectcategory>
							<effecttype>motion</effecttype>
							<mediatype>video</mediatype>
							<parameter>
								<parameterid>left</parameterid>
								<name>left</name>
								<valuemin>0</valuemin>
								<valuemax>100</valuemax>
								<value>0</value>
							</parameter>
							<parameter>
								<parameterid>right</parameterid>
								<name>right</name>
								<valuemin>0</valuemin>
								<valuemax>100</valuemax>
								<value>0</value>
							</parameter>
							<parameter>
								<parameterid>top</parameterid>
								<name>top</name>
								<valuemin>0</valuemin>
								<valuemax>100</valuemax>
								<value>0</value>
							</parameter>
							<parameter>
								<parameterid>bottom</parameterid>
								<name>bottom</name>
								<valuemin>0</valuemin>
								<valuemax>100</valuemax>
								<value>0</value>
							</parameter>
							<parameter>
								<parameterid>edgefeather</parameterid>
								<name>edgefeather</name>
								<valuemin>0</valuemin>
								<valuemax>100</valuemax>
								<value>0</value>
							</parameter>
						</effect>
					</filter>
					<filter>
						<effect>
							<name>Distort</name>
							<effectid>deformation</effectid>
							<effectcategory>motion</effectcategory>
							<effecttype>motion</effecttype>
							<mediatype>video</mediatype>
							<parameter>
								<parameterid>ulcorner</parameterid>
								<name>Upper Left</name>
								<value>
									<horiz>-0.5</horiz>
									<vert>-0.5</vert>
								</value>
							</parameter>
							<parameter>
								<parameterid>urcorner</parameterid>
								<name>Upper Right</name>
								<value>
									<horiz>0.5</horiz>
									<vert>-0.5</vert>
								</value>
							</parameter>
							<parameter>
								<parameterid>lrcorner</parameterid>
								<name>Lower Right</name>
								<value>
									<horiz>0.5</horiz>
									<vert>0.5</vert>
								</value>
							</parameter>
							<parameter>
								<parameterid>llcorner</parameterid>
								<name>Lower Left</name>
								<value>
									<horiz>-0.5</horiz>
									<vert>0.5</vert>
								</value>
							</parameter>
							<parameter>
								<parameterid>aspect</parameterid>
								<name>Aspect</name>
								<valuemin>-10000</valuemin>
								<valuemax>10000</valuemax>
								<value>0</value>
							</parameter>
						</effect>
					</filter>
					<filter>
						<effect>
							<name>Opacity</name>
							<effectid>opacity</effectid>
							<effectcategory>motion</effectcategory>
							<effecttype>motion</effecttype>
							<mediatype>video</mediatype>
							<parameter>
								<parameterid>opacity</parameterid>
								<name>opacity</name>
								<valuemin>0</valuemin>
								<valuemax>100</valuemax>
								<value>100</value>
							</parameter>
						</effect>
					</filter>
					<sourcetrack>
						<mediatype>video</mediatype>
					</sourcetrack>
					<fielddominance>upper</fielddominance>
					<itemhistory>
						<uuid>542FD5A2-4354-442C-A5C9-DF1CB7A78EB9</uuid>
					</itemhistory>
					<filter>
						<effect>
							<name>Time Remap</name>
							<effectid>timeremap</effectid>
							<effectcategory>motion</effectcategory>
							<effecttype>motion</effecttype>
							<mediatype>video</mediatype>
							<parameter>
								<parameterid>variablespeed</parameterid>
								<name>variablespeed</name>
								<valuemin>0</valuemin>
								<valuemax>1</valuemax>
								<value>1</value>
							</parameter>
							<parameter>
								<parameterid>mappedduration</parameterid>
								<name>mappedduration</name>
								<value>
									<timecode>
										<rate>
											<timebase>0</timebase>
										</rate>
										<string>0</string>
										<frame>0</frame>
										<displayformat>NDF</displayformat>
									</timecode>
								</value>
							</parameter>
							<parameter>
								<parameterid>speed</parameterid>
								<name>speed</name>
								<valuemin>-10000</valuemin>
								<valuemax>10000</valuemax>
								<value>420</value>
							</parameter>
							<parameter>
								<parameterid>reverse</parameterid>
								<name>reverse</name>
								<value>FALSE</value>
							</parameter>
							<parameter>
								<parameterid>frameblending</parameterid>
								<name>frameblending</name>
								<value>TRUE</value>
							</parameter>
							<parameter>
								<parameterid>graphdict</parameterid>
								<name>graphdict</name>
								<valuemin>0</valuemin>
								<valuemax>497</valuemax>
								<keyframe>
									<when>0</when>
									<value>0</value>
									<speedkfstart>TRUE</speedkfstart>
									<speedvirtualkf>TRUE</speedvirtualkf>
								</keyframe>
								<keyframe>
									<when>168</when>
									<value>171.93</value>
									<speedkfin>TRUE</speedkfin>
									<speedvirtualkf>TRUE</speedvirtualkf>
								</keyframe>
								<keyframe>
									<when>171</when>
									<value>175</value>
								</keyframe>
								<keyframe>
									<when>184</when>
									<value>328</value>
									<inbez>
										<horiz>2.84066</horiz>
										<vert>-2.03543</vert>
									</inbez>
									<outbez>
										<horiz>84.8029</horiz>
										<vert>1.10616</vert>
									</outbez>
								</keyframe>
								<keyframe>
									<when>218</when>
									<value>379.246</value>
									<speedkfout>TRUE</speedkfout>
									<speedvirtualkf>TRUE</speedvirtualkf>
								</keyframe>
								<keyframe>
									<when>498</when>
									<value>498</value>
									<speedkfend>TRUE</speedkfend>
									<speedvirtualkf>TRUE</speedvirtualkf>
								</keyframe>
								<interpolation>
									<name>FCPCurve</name>
								</interpolation>
								<value>171.93</value>
							</parameter>
						</effect>
					</filter>
				</clipitem>
				<clipitem id="DYR18603_01 ">
					<name>DYR18603_01</name>
					<duration>278</duration>
					<rate>
						<ntsc>FALSE</ntsc>
						<timebase>25</timebase>
					</rate>
					<in>61</in>
					<out>174</out>
					<start>27003</start>
					<end>27116</end>
					<pixelaspectratio>Square</pixelaspectratio>
					<enabled>TRUE</enabled>
					<anamorphic>FALSE</anamorphic>
					<alphatype>none</alphatype>
					<masterclipid>DYR18603_01 1</masterclipid>
					<logginginfo>
						<scene/>
						<shottake/>
						<lognote/>
						<good>FALSE</good>
					</logginginfo>
					<labels>
						<label2/>
					</labels>
					<comments>
						<mastercomment1/>
						<mastercomment2/>
						<mastercomment3/>
						<mastercomment4/>
					</comments>
					<file id="DYR18603_01 2">
						<name>DYR18603_01.mov</name>
						<pathurl>file://localhost/Volumes/Askepott/Prosjekter/DNPR637010_Kra%CC%8Akeklubben_TEM_011212/Video/MUSIKKVIDEO/Treet/DYR18603_01.mov</pathurl>
						<rate>
							<timebase>25</timebase>
						</rate>
						<duration>278</duration>
						<metadata>
							<storage>QuickTime</storage>
							<key>com.sony.bprl.xdcamtransfer.version</key>
							<size>10</size>
							<type>UTF8</type>
							<value>2.12.0.631</value>
						</metadata>
						<metadata>
							<storage>QuickTime</storage>
							<key>org.smpte.mxf.package.material.packageid</key>
							<size>66</size>
							<type>UTF8</type>
							<value>0x060a2b340101010501010d43130000005d83f96d615405c508004602022f05f5</value>
						</metadata>
						<metadata>
							<storage>QuickTime</storage>
							<key>com.sony.professionaldisc.nonrealtimemeta.lastupdate</key>
							<size>25</size>
							<type>UTF8</type>
							<value>2010-09-22 11:18:48 +0100</value>
						</metadata>
						<metadata>
							<storage>QuickTime</storage>
							<key>com.sony.bprl.mxf.umid</key>
							<size>64</size>
							<type>UTF8</type>
							<value>060a2b340101010501010d43130000005d83f96d615405c508004602022f05f5</value>
						</metadata>
						<metadata>
							<storage>QuickTime</storage>
							<key>com.sony.bprl.mxf.nrtmetadata</key>
							<size>1991</size>
							<type>UTF8</type>
							<value>&lt;?xml version="1.0" encoding="UTF-8"?>&lt;NonRealTimeMeta xmlns="urn:schemas-professionalDisc:nonRealTimeMeta:ver.1.20" xmlns:lib="urn:schemas-professionalDisc:lib:ver.1.20" xmlns:xsi="http://www.w3.org/2001/XMLSchema-instance" lastUpdate="2010-09-22T11:18:48+01:00">&lt;TargetMaterial umidRef="060A2B340101010501010D43130000005D83F96D615405C508004602022F05F5">&lt;/TargetMaterial>&lt;Duration value="278">&lt;/Duration>&lt;LtcChangeTable tcFps="25" halfStep="false">&lt;LtcChange frameCount="0" value="15275612" status="increment">&lt;/LtcChange>&lt;LtcChange frameCount="277" value="17385612" status="end">&lt;/LtcChange>&lt;/LtcChangeTable>&lt;CreationDate value="2010-09-22T11:18:36+01:00">&lt;/CreationDate>&lt;TypicalUbit value="0000000017061020">&lt;/TypicalUbit>&lt;BodyUmidBasicChangeTable>&lt;BodyUmidBasicChange frameCount="0" value="060A2B340101010501010D43330000005D83F96D615405C508004602022F05F5" status="start">&lt;/BodyUmidBasicChange>&lt;/BodyUmidBasicChangeTable>&lt;BodyUmidWhenChangeTable>&lt;BodyUmidWhenChange frameCount="0" value="842B8A03615405A5" status="increment">&lt;/BodyUmidWhenChange>&lt;BodyUmidWhenChange frameCount="277" value="C4708A03615405A5" status="end">&lt;/BodyUmidWhenChange>&lt;/BodyUmidWhenChangeTable>&lt;KlvPacketTable>&lt;KlvPacket key="060E2B34010101050301020A02000000" frameCount="0" lengthValue="095F5265635374617274" status="spot">&lt;/KlvPacket>&lt;/KlvPacketTable>&lt;VideoFormat>&lt;VideoRecPort port="DIRECT">&lt;/VideoRecPort>&lt;VideoFrame videoCodec="MPEG2HD35_1920_1080_MP@HL" captureFps="50.00i" recFps="50.00" formatFps="50i">&lt;/VideoFrame>&lt;VideoLayout pixel="1920" numOfVerticalLine="1080" aspectRatio="16:9">&lt;/VideoLayout>&lt;/VideoFormat>&lt;AudioFormat numOfChannel="2">&lt;AudioRecPort port="DIRECT" audioCodec="LPCM16" trackDst="CH1">&lt;/AudioRecPort>&lt;AudioRecPort port="DIRECT" audioCodec="LPCM16" trackDst="CH2">&lt;/AudioRecPort>&lt;/AudioFormat>&lt;Device manufacturer="Sony" modelName="PMW-EX3" serialNo="0401525">&lt;/Device>&lt;Lens modelName="VCL-614B2X">&lt;/Lens>&lt;RecordingMode type="normal" cacheRec="false">&lt;/RecordingMode>&lt;/NonRealTimeMeta>
							</value>
						</metadata>
						<metadata>
							<storage>QuickTime</storage>
							<key>com.apple.proapps.reel</key>
							<size>8</size>
							<type>UTF8</type>
							<value>Untitled</value>
						</metadata>
						<metadata>
							<storage>QuickTime</storage>
							<key>com.apple.proapps.clipID</key>
							<size>64</size>
							<type>UTF8</type>
							<value>060A2B340101010501010D43130000005D83F96D615405C508004602022F05F5</value>
						</metadata>
						<metadata>
							<storage>QuickTime</storage>
							<key>com.apple.quicktime.information</key>
							<size>64</size>
							<type>UTF8</type>
							<value>060a2b340101010501010d43130000005d83f96d615405c508004602022f05f5</value>
						</metadata>
						<metadata>
							<storage>QuickTime</storage>
							<key>com.apple.proapps.originalFormat</key>
							<size>36</size>
							<type>UTF8</type>
							<value>Apple XDCAM EX 1080i50 (35 Mb/s VBR)</value>
						</metadata>
						<timecode>
							<rate>
								<timebase>25</timebase>
							</rate>
							<string>12:56:27:15</string>
							<frame>1164690</frame>
							<displayformat>NDF</displayformat>
							<source>source</source>
							<reel>
								<name>Untitled</name>
							</reel>
						</timecode>
						<media>
							<video>
								<duration>278</duration>
								<samplecharacteristics>
									<width>1920</width>
									<height>1080</height>
								</samplecharacteristics>
							</video>
							<audio>
								<samplecharacteristics>
									<samplerate>48000</samplerate>
									<depth>16</depth>
								</samplecharacteristics>
								<channelcount>1</channelcount>
								<layout>mono</layout>
								<audiochannel>
									<sourcechannel>1</sourcechannel>
									<channellabel>discrete</channellabel>
								</audiochannel>
							</audio>
							<audio>
								<samplecharacteristics>
									<samplerate>48000</samplerate>
									<depth>16</depth>
								</samplecharacteristics>
								<channelcount>1</channelcount>
								<layout>mono</layout>
								<audiochannel>
									<sourcechannel>2</sourcechannel>
									<channellabel>discrete</channellabel>
								</audiochannel>
							</audio>
						</media>
					</file>
					<sourcetrack>
						<mediatype>video</mediatype>
					</sourcetrack>
					<fielddominance>upper</fielddominance>
					<itemhistory>
						<uuid>BFB96C76-E744-472F-8E3D-44481F2F7900</uuid>
					</itemhistory>
				</clipitem>
				<clipitem id="DYR18652_01 ">
					<name>DYR18652_01</name>
					<duration>813</duration>
					<rate>
						<ntsc>FALSE</ntsc>
						<timebase>25</timebase>
					</rate>
					<in>334</in>
					<out>397</out>
					<start>27116</start>
					<end>27179</end>
					<pixelaspectratio>Square</pixelaspectratio>
					<enabled>TRUE</enabled>
					<anamorphic>FALSE</anamorphic>
					<alphatype>none</alphatype>
					<masterclipid>DYR18652_01 1</masterclipid>
					<logginginfo>
						<scene/>
						<shottake/>
						<lognote/>
						<good>FALSE</good>
					</logginginfo>
					<labels>
						<label2/>
					</labels>
					<comments>
						<mastercomment1/>
						<mastercomment2/>
						<mastercomment3/>
						<mastercomment4/>
					</comments>
					<file id="DYR18652_01 2">
						<name>DYR18652_01.mov</name>
						<pathurl>file://localhost/Volumes/Askepott/Prosjekter/DNPR637010_Kra%CC%8Akeklubben_TEM_011212/Video/MUSIKKVIDEO/Treet/DYR18652_01.mov</pathurl>
						<rate>
							<timebase>25</timebase>
						</rate>
						<duration>813</duration>
						<metadata>
							<storage>QuickTime</storage>
							<key>com.sony.bprl.xdcamtransfer.version</key>
							<size>10</size>
							<type>UTF8</type>
							<value>2.12.0.631</value>
						</metadata>
						<metadata>
							<storage>QuickTime</storage>
							<key>org.smpte.mxf.package.material.packageid</key>
							<size>66</size>
							<type>UTF8</type>
							<value>0x060a2b340101010501010d431300000052991d81615405da08004602022f05f5</value>
						</metadata>
						<metadata>
							<storage>QuickTime</storage>
							<key>com.sony.professionaldisc.nonrealtimemeta.lastupdate</key>
							<size>25</size>
							<type>UTF8</type>
							<value>2010-09-22 13:06:49 +0100</value>
						</metadata>
						<metadata>
							<storage>QuickTime</storage>
							<key>com.sony.bprl.mxf.umid</key>
							<size>64</size>
							<type>UTF8</type>
							<value>060a2b340101010501010d431300000052991d81615405da08004602022f05f5</value>
						</metadata>
						<metadata>
							<storage>QuickTime</storage>
							<key>com.sony.bprl.mxf.nrtmetadata</key>
							<size>1991</size>
							<type>UTF8</type>
							<value>&lt;?xml version="1.0" encoding="UTF-8"?>&lt;NonRealTimeMeta xmlns="urn:schemas-professionalDisc:nonRealTimeMeta:ver.1.20" xmlns:lib="urn:schemas-professionalDisc:lib:ver.1.20" xmlns:xsi="http://www.w3.org/2001/XMLSchema-instance" lastUpdate="2010-09-22T13:06:49+01:00">&lt;TargetMaterial umidRef="060A2B340101010501010D431300000052991D81615405DA08004602022F05F5">&lt;/TargetMaterial>&lt;Duration value="813">&lt;/Duration>&lt;LtcChangeTable tcFps="25" halfStep="false">&lt;LtcChange frameCount="0" value="19291913" status="increment">&lt;/LtcChange>&lt;LtcChange frameCount="812" value="06022013" status="end">&lt;/LtcChange>&lt;/LtcChangeTable>&lt;CreationDate value="2010-09-22T13:06:16+01:00">&lt;/CreationDate>&lt;TypicalUbit value="0000000017061020">&lt;/TypicalUbit>&lt;BodyUmidBasicChangeTable>&lt;BodyUmidBasicChange frameCount="0" value="060A2B340101010501010D433300000052991D81615405DA08004602022F05F5" status="start">&lt;/BodyUmidBasicChange>&lt;/BodyUmidBasicChangeTable>&lt;BodyUmidWhenChangeTable>&lt;BodyUmidWhenChange frameCount="0" value="04E32704615405A5" status="increment">&lt;/BodyUmidWhenChange>&lt;BodyUmidWhenChange frameCount="812" value="04AE2804615405A5" status="end">&lt;/BodyUmidWhenChange>&lt;/BodyUmidWhenChangeTable>&lt;KlvPacketTable>&lt;KlvPacket key="060E2B34010101050301020A02000000" frameCount="0" lengthValue="095F5265635374617274" status="spot">&lt;/KlvPacket>&lt;/KlvPacketTable>&lt;VideoFormat>&lt;VideoRecPort port="DIRECT">&lt;/VideoRecPort>&lt;VideoFrame videoCodec="MPEG2HD35_1920_1080_MP@HL" captureFps="50.00i" recFps="50.00" formatFps="50i">&lt;/VideoFrame>&lt;VideoLayout pixel="1920" numOfVerticalLine="1080" aspectRatio="16:9">&lt;/VideoLayout>&lt;/VideoFormat>&lt;AudioFormat numOfChannel="2">&lt;AudioRecPort port="DIRECT" audioCodec="LPCM16" trackDst="CH1">&lt;/AudioRecPort>&lt;AudioRecPort port="DIRECT" audioCodec="LPCM16" trackDst="CH2">&lt;/AudioRecPort>&lt;/AudioFormat>&lt;Device manufacturer="Sony" modelName="PMW-EX3" serialNo="0401525">&lt;/Device>&lt;Lens modelName="VCL-614B2X">&lt;/Lens>&lt;RecordingMode type="normal" cacheRec="false">&lt;/RecordingMode>&lt;/NonRealTimeMeta>
							</value>
						</metadata>
						<metadata>
							<storage>QuickTime</storage>
							<key>com.apple.proapps.reel</key>
							<size>8</size>
							<type>UTF8</type>
							<value>Untitled</value>
						</metadata>
						<metadata>
							<storage>QuickTime</storage>
							<key>com.apple.proapps.clipID</key>
							<size>64</size>
							<type>UTF8</type>
							<value>060A2B340101010501010D431300000052991D81615405DA08004602022F05F5</value>
						</metadata>
						<metadata>
							<storage>QuickTime</storage>
							<key>com.apple.quicktime.information</key>
							<size>64</size>
							<type>UTF8</type>
							<value>060a2b340101010501010d431300000052991d81615405da08004602022f05f5</value>
						</metadata>
						<metadata>
							<storage>QuickTime</storage>
							<key>com.apple.proapps.originalFormat</key>
							<size>36</size>
							<type>UTF8</type>
							<value>Apple XDCAM EX 1080i50 (35 Mb/s VBR)</value>
						</metadata>
						<timecode>
							<rate>
								<timebase>25</timebase>
							</rate>
							<string>13:19:29:19</string>
							<frame>1199244</frame>
							<displayformat>NDF</displayformat>
							<source>source</source>
							<reel>
								<name>Untitled</name>
							</reel>
						</timecode>
						<media>
							<video>
								<duration>813</duration>
								<samplecharacteristics>
									<width>1920</width>
									<height>1080</height>
								</samplecharacteristics>
							</video>
							<audio>
								<samplecharacteristics>
									<samplerate>48000</samplerate>
									<depth>16</depth>
								</samplecharacteristics>
								<channelcount>1</channelcount>
								<layout>mono</layout>
								<audiochannel>
									<sourcechannel>1</sourcechannel>
									<channellabel>discrete</channellabel>
								</audiochannel>
							</audio>
							<audio>
								<samplecharacteristics>
									<samplerate>48000</samplerate>
									<depth>16</depth>
								</samplecharacteristics>
								<channelcount>1</channelcount>
								<layout>mono</layout>
								<audiochannel>
									<sourcechannel>2</sourcechannel>
									<channellabel>discrete</channellabel>
								</audiochannel>
							</audio>
						</media>
					</file>
					<filter>
						<effect>
							<name>Basic Motion</name>
							<effectid>basic</effectid>
							<effectcategory>motion</effectcategory>
							<effecttype>motion</effecttype>
							<mediatype>video</mediatype>
							<parameter>
								<parameterid>scale</parameterid>
								<name>Scale</name>
								<valuemin>0</valuemin>
								<valuemax>1000</valuemax>
								<value>105</value>
							</parameter>
							<parameter>
								<parameterid>rotation</parameterid>
								<name>Rotation</name>
								<valuemin>-8640</valuemin>
								<valuemax>8640</valuemax>
								<value>0</value>
							</parameter>
							<parameter>
								<parameterid>center</parameterid>
								<name>Center</name>
								<value>
									<horiz>-0.0260417</horiz>
									<vert>0</vert>
								</value>
							</parameter>
							<parameter>
								<parameterid>centerOffset</parameterid>
								<name>Anchor Point</name>
								<value>
									<horiz>0</horiz>
									<vert>0</vert>
								</value>
							</parameter>
						</effect>
					</filter>
					<filter>
						<enabled>FALSE</enabled>
						<effect>
							<name>Drop Shadow</name>
							<effectid>dropshadow</effectid>
							<effectcategory>motion</effectcategory>
							<effecttype>motion</effecttype>
							<mediatype>video</mediatype>
							<parameter>
								<parameterid>offset</parameterid>
								<name>offset</name>
								<valuemin>-100</valuemin>
								<valuemax>100</valuemax>
								<value>2</value>
							</parameter>
							<parameter>
								<parameterid>angle</parameterid>
								<name>angle</name>
								<valuemin>-720</valuemin>
								<valuemax>720</valuemax>
								<value>135</value>
							</parameter>
							<parameter>
								<parameterid>color</parameterid>
								<name>color</name>
								<value>
									<alpha>0</alpha>
									<red>0</red>
									<green>0</green>
									<blue>0</blue>
								</value>
							</parameter>
							<parameter>
								<parameterid>softness</parameterid>
								<name>softness</name>
								<valuemin>0</valuemin>
								<valuemax>100</valuemax>
								<value>10</value>
							</parameter>
							<parameter>
								<parameterid>opacity</parameterid>
								<name>opacity</name>
								<valuemin>0</valuemin>
								<valuemax>100</valuemax>
								<value>50</value>
							</parameter>
						</effect>
					</filter>
					<filter>
						<enabled>FALSE</enabled>
						<effect>
							<name>Motion Blur</name>
							<effectid>motionblur</effectid>
							<effectcategory>motion</effectcategory>
							<effecttype>motion</effecttype>
							<mediatype>video</mediatype>
							<parameter>
								<parameterid>duration</parameterid>
								<name>% Blur</name>
								<valuemin>0</valuemin>
								<valuemax>1000</valuemax>
								<value>500</value>
							</parameter>
							<parameter>
								<parameterid>samples</parameterid>
								<name>Samples</name>
								<valuemin>1</valuemin>
								<valuemax>16</valuemax>
								<value>4</value>
							</parameter>
						</effect>
					</filter>
					<filter>
						<effect>
							<name>Crop</name>
							<effectid>crop</effectid>
							<effectcategory>motion</effectcategory>
							<effecttype>motion</effecttype>
							<mediatype>video</mediatype>
							<parameter>
								<parameterid>left</parameterid>
								<name>left</name>
								<valuemin>0</valuemin>
								<valuemax>100</valuemax>
								<value>0</value>
							</parameter>
							<parameter>
								<parameterid>right</parameterid>
								<name>right</name>
								<valuemin>0</valuemin>
								<valuemax>100</valuemax>
								<value>0</value>
							</parameter>
							<parameter>
								<parameterid>top</parameterid>
								<name>top</name>
								<valuemin>0</valuemin>
								<valuemax>100</valuemax>
								<value>0</value>
							</parameter>
							<parameter>
								<parameterid>bottom</parameterid>
								<name>bottom</name>
								<valuemin>0</valuemin>
								<valuemax>100</valuemax>
								<value>0</value>
							</parameter>
							<parameter>
								<parameterid>edgefeather</parameterid>
								<name>edgefeather</name>
								<valuemin>0</valuemin>
								<valuemax>100</valuemax>
								<value>0</value>
							</parameter>
						</effect>
					</filter>
					<filter>
						<effect>
							<name>Distort</name>
							<effectid>deformation</effectid>
							<effectcategory>motion</effectcategory>
							<effecttype>motion</effecttype>
							<mediatype>video</mediatype>
							<parameter>
								<parameterid>ulcorner</parameterid>
								<name>Upper Left</name>
								<value>
									<horiz>-0.5</horiz>
									<vert>-0.5</vert>
								</value>
							</parameter>
							<parameter>
								<parameterid>urcorner</parameterid>
								<name>Upper Right</name>
								<value>
									<horiz>0.5</horiz>
									<vert>-0.5</vert>
								</value>
							</parameter>
							<parameter>
								<parameterid>lrcorner</parameterid>
								<name>Lower Right</name>
								<value>
									<horiz>0.5</horiz>
									<vert>0.5</vert>
								</value>
							</parameter>
							<parameter>
								<parameterid>llcorner</parameterid>
								<name>Lower Left</name>
								<value>
									<horiz>-0.5</horiz>
									<vert>0.5</vert>
								</value>
							</parameter>
							<parameter>
								<parameterid>aspect</parameterid>
								<name>Aspect</name>
								<valuemin>-10000</valuemin>
								<valuemax>10000</valuemax>
								<value>0</value>
							</parameter>
						</effect>
					</filter>
					<filter>
						<effect>
							<name>Opacity</name>
							<effectid>opacity</effectid>
							<effectcategory>motion</effectcategory>
							<effecttype>motion</effecttype>
							<mediatype>video</mediatype>
							<parameter>
								<parameterid>opacity</parameterid>
								<name>opacity</name>
								<valuemin>0</valuemin>
								<valuemax>100</valuemax>
								<value>100</value>
							</parameter>
						</effect>
					</filter>
					<sourcetrack>
						<mediatype>video</mediatype>
					</sourcetrack>
					<fielddominance>upper</fielddominance>
					<itemhistory>
						<uuid>9E7027FD-C5B6-40D6-865D-6F62E4C14DF2</uuid>
					</itemhistory>
				</clipitem>
				<clipitem id="DYR18665_01 ">
					<name>DYR18665_01</name>
					<duration>1688</duration>
					<rate>
						<ntsc>FALSE</ntsc>
						<timebase>25</timebase>
					</rate>
					<in>1454</in>
					<out>1558</out>
					<start>27179</start>
					<end>-1</end>
					<pixelaspectratio>Square</pixelaspectratio>
					<enabled>TRUE</enabled>
					<anamorphic>FALSE</anamorphic>
					<alphatype>none</alphatype>
					<masterclipid>DYR18665_01 1</masterclipid>
					<logginginfo>
						<scene/>
						<shottake/>
						<lognote/>
						<good>FALSE</good>
					</logginginfo>
					<labels>
						<label2/>
					</labels>
					<comments>
						<mastercomment1/>
						<mastercomment2/>
						<mastercomment3/>
						<mastercomment4/>
					</comments>
					<file id="DYR18665_01 2">
						<name>DYR18665_01.mov</name>
						<pathurl>file://localhost/Volumes/Askepott/Prosjekter/DNPR637010_Kra%CC%8Akeklubben_TEM_011212/Video/MUSIKKVIDEO/Treet/DYR18665_01.mov</pathurl>
						<rate>
							<timebase>25</timebase>
						</rate>
						<duration>1688</duration>
						<metadata>
							<storage>QuickTime</storage>
							<key>com.sony.bprl.xdcamtransfer.version</key>
							<size>10</size>
							<type>UTF8</type>
							<value>2.12.0.631</value>
						</metadata>
						<metadata>
							<storage>QuickTime</storage>
							<key>org.smpte.mxf.package.material.packageid</key>
							<size>66</size>
							<type>UTF8</type>
							<value>0x060a2b340101010501010d4313000000315b8186615405da08004602022f05f5</value>
						</metadata>
						<metadata>
							<storage>QuickTime</storage>
							<key>com.sony.professionaldisc.nonrealtimemeta.lastupdate</key>
							<size>25</size>
							<type>UTF8</type>
							<value>2010-09-22 13:37:44 +0100</value>
						</metadata>
						<metadata>
							<storage>QuickTime</storage>
							<key>com.sony.bprl.mxf.umid</key>
							<size>64</size>
							<type>UTF8</type>
							<value>060a2b340101010501010d4313000000315b8186615405da08004602022f05f5</value>
						</metadata>
						<metadata>
							<storage>QuickTime</storage>
							<key>com.sony.bprl.mxf.nrtmetadata</key>
							<size>1994</size>
							<type>UTF8</type>
							<value>&lt;?xml version="1.0" encoding="UTF-8"?>&lt;NonRealTimeMeta xmlns="urn:schemas-professionalDisc:nonRealTimeMeta:ver.1.20" xmlns:lib="urn:schemas-professionalDisc:lib:ver.1.20" xmlns:xsi="http://www.w3.org/2001/XMLSchema-instance" lastUpdate="2010-09-22T13:37:44+01:00">&lt;TargetMaterial umidRef="060A2B340101010501010D4313000000315B8186615405DA08004602022F05F5">&lt;/TargetMaterial>&lt;Duration value="1688">&lt;/Duration>&lt;LtcChangeTable tcFps="25" halfStep="false">&lt;LtcChange frameCount="0" value="23482713" status="increment">&lt;/LtcChange>&lt;LtcChange frameCount="1687" value="10562813" status="end">&lt;/LtcChange>&lt;/LtcChangeTable>&lt;CreationDate value="2010-09-22T13:36:35+01:00">&lt;/CreationDate>&lt;TypicalUbit value="0000000017061020">&lt;/TypicalUbit>&lt;BodyUmidBasicChangeTable>&lt;BodyUmidBasicChange frameCount="0" value="060A2B340101010501010D4333000000315B8186615405DA08004602022F05F5" status="start">&lt;/BodyUmidBasicChange>&lt;/BodyUmidBasicChangeTable>&lt;BodyUmidWhenChangeTable>&lt;BodyUmidWhenChange frameCount="0" value="444C5404615405A5" status="increment">&lt;/BodyUmidWhenChange>&lt;BodyUmidWhenChange frameCount="1687" value="04F25504615405A5" status="end">&lt;/BodyUmidWhenChange>&lt;/BodyUmidWhenChangeTable>&lt;KlvPacketTable>&lt;KlvPacket key="060E2B34010101050301020A02000000" frameCount="0" lengthValue="095F5265635374617274" status="spot">&lt;/KlvPacket>&lt;/KlvPacketTable>&lt;VideoFormat>&lt;VideoRecPort port="DIRECT">&lt;/VideoRecPort>&lt;VideoFrame videoCodec="MPEG2HD35_1920_1080_MP@HL" captureFps="50.00i" recFps="50.00" formatFps="50i">&lt;/VideoFrame>&lt;VideoLayout pixel="1920" numOfVerticalLine="1080" aspectRatio="16:9">&lt;/VideoLayout>&lt;/VideoFormat>&lt;AudioFormat numOfChannel="2">&lt;AudioRecPort port="DIRECT" audioCodec="LPCM16" trackDst="CH1">&lt;/AudioRecPort>&lt;AudioRecPort port="DIRECT" audioCodec="LPCM16" trackDst="CH2">&lt;/AudioRecPort>&lt;/AudioFormat>&lt;Device manufacturer="Sony" modelName="PMW-EX3" serialNo="0401525">&lt;/Device>&lt;Lens modelName="VCL-614B2X">&lt;/Lens>&lt;RecordingMode type="normal" cacheRec="false">&lt;/RecordingMode>&lt;/NonRealTimeMeta>
							</value>
						</metadata>
						<metadata>
							<storage>QuickTime</storage>
							<key>com.apple.proapps.reel</key>
							<size>8</size>
							<type>UTF8</type>
							<value>Untitled</value>
						</metadata>
						<metadata>
							<storage>QuickTime</storage>
							<key>com.apple.proapps.clipID</key>
							<size>64</size>
							<type>UTF8</type>
							<value>060A2B340101010501010D4313000000315B8186615405DA08004602022F05F5</value>
						</metadata>
						<metadata>
							<storage>QuickTime</storage>
							<key>com.apple.quicktime.information</key>
							<size>64</size>
							<type>UTF8</type>
							<value>060a2b340101010501010d4313000000315b8186615405da08004602022f05f5</value>
						</metadata>
						<metadata>
							<storage>QuickTime</storage>
							<key>com.apple.proapps.originalFormat</key>
							<size>36</size>
							<type>UTF8</type>
							<value>Apple XDCAM EX 1080i50 (35 Mb/s VBR)</value>
						</metadata>
						<timecode>
							<rate>
								<timebase>25</timebase>
							</rate>
							<string>13:27:48:23</string>
							<frame>1211723</frame>
							<displayformat>NDF</displayformat>
							<source>source</source>
							<reel>
								<name>Untitled</name>
							</reel>
						</timecode>
						<media>
							<video>
								<duration>1688</duration>
								<samplecharacteristics>
									<width>1920</width>
									<height>1080</height>
								</samplecharacteristics>
							</video>
							<audio>
								<samplecharacteristics>
									<samplerate>48000</samplerate>
									<depth>16</depth>
								</samplecharacteristics>
								<channelcount>1</channelcount>
								<layout>mono</layout>
								<audiochannel>
									<sourcechannel>1</sourcechannel>
									<channellabel>discrete</channellabel>
								</audiochannel>
							</audio>
							<audio>
								<samplecharacteristics>
									<samplerate>48000</samplerate>
									<depth>16</depth>
								</samplecharacteristics>
								<channelcount>1</channelcount>
								<layout>mono</layout>
								<audiochannel>
									<sourcechannel>2</sourcechannel>
									<channellabel>discrete</channellabel>
								</audiochannel>
							</audio>
						</media>
					</file>
					<sourcetrack>
						<mediatype>video</mediatype>
					</sourcetrack>
					<fielddominance>upper</fielddominance>
					<itemhistory>
						<uuid>C66DCB9B-EE66-46E3-BD51-86FDBB0B576C</uuid>
					</itemhistory>
				</clipitem>
				<transitionitem>
					<rate>
						<ntsc>FALSE</ntsc>
						<timebase>25</timebase>
					</rate>
					<start>27274</start>
					<end>27283</end>
					<alignment>center</alignment>
					<effect>
						<name>Cross Dissolve</name>
						<effectid>Cross Dissolve</effectid>
						<effectcategory>Dissolve</effectcategory>
						<effecttype>transition</effecttype>
						<mediatype>video</mediatype>
						<wipecode>0</wipecode>
						<wipeaccuracy>100</wipeaccuracy>
						<startratio>0</startratio>
						<endratio>1</endratio>
						<reverse>FALSE</reverse>
					</effect>
				</transitionitem>
				<clipitem id="DYR18693_01 3">
					<name>DYR18693_01</name>
					<duration>1399</duration>
					<rate>
						<ntsc>FALSE</ntsc>
						<timebase>25</timebase>
					</rate>
					<in>269</in>
					<out>328</out>
					<start>-1</start>
					<end>27333</end>
					<pixelaspectratio>Square</pixelaspectratio>
					<enabled>TRUE</enabled>
					<anamorphic>FALSE</anamorphic>
					<alphatype>none</alphatype>
					<masterclipid>DYR18693_01 1</masterclipid>
					<logginginfo>
						<scene/>
						<shottake/>
						<lognote/>
						<good>FALSE</good>
					</logginginfo>
					<labels>
						<label2/>
					</labels>
					<comments>
						<mastercomment1/>
						<mastercomment2/>
						<mastercomment3/>
						<mastercomment4/>
					</comments>
					<file id="DYR18693_01 2"/>
					<filter>
						<effect>
							<name>Basic Motion</name>
							<effectid>basic</effectid>
							<effectcategory>motion</effectcategory>
							<effecttype>motion</effecttype>
							<mediatype>video</mediatype>
							<parameter>
								<parameterid>scale</parameterid>
								<name>Scale</name>
								<valuemin>0</valuemin>
								<valuemax>1000</valuemax>
								<value>100</value>
							</parameter>
							<parameter>
								<parameterid>rotation</parameterid>
								<name>Rotation</name>
								<valuemin>-8640</valuemin>
								<valuemax>8640</valuemax>
								<value>0</value>
							</parameter>
							<parameter>
								<parameterid>center</parameterid>
								<name>Center</name>
								<value>
									<horiz>0</horiz>
									<vert>0</vert>
								</value>
							</parameter>
							<parameter>
								<parameterid>centerOffset</parameterid>
								<name>Anchor Point</name>
								<value>
									<horiz>0</horiz>
									<vert>0</vert>
								</value>
							</parameter>
						</effect>
					</filter>
					<filter>
						<enabled>FALSE</enabled>
						<effect>
							<name>Drop Shadow</name>
							<effectid>dropshadow</effectid>
							<effectcategory>motion</effectcategory>
							<effecttype>motion</effecttype>
							<mediatype>video</mediatype>
							<parameter>
								<parameterid>offset</parameterid>
								<name>offset</name>
								<valuemin>-100</valuemin>
								<valuemax>100</valuemax>
								<value>2</value>
							</parameter>
							<parameter>
								<parameterid>angle</parameterid>
								<name>angle</name>
								<valuemin>-720</valuemin>
								<valuemax>720</valuemax>
								<value>135</value>
							</parameter>
							<parameter>
								<parameterid>color</parameterid>
								<name>color</name>
								<value>
									<alpha>0</alpha>
									<red>0</red>
									<green>0</green>
									<blue>0</blue>
								</value>
							</parameter>
							<parameter>
								<parameterid>softness</parameterid>
								<name>softness</name>
								<valuemin>0</valuemin>
								<valuemax>100</valuemax>
								<value>10</value>
							</parameter>
							<parameter>
								<parameterid>opacity</parameterid>
								<name>opacity</name>
								<valuemin>0</valuemin>
								<valuemax>100</valuemax>
								<value>50</value>
							</parameter>
						</effect>
					</filter>
					<filter>
						<enabled>FALSE</enabled>
						<effect>
							<name>Motion Blur</name>
							<effectid>motionblur</effectid>
							<effectcategory>motion</effectcategory>
							<effecttype>motion</effecttype>
							<mediatype>video</mediatype>
							<parameter>
								<parameterid>duration</parameterid>
								<name>% Blur</name>
								<valuemin>0</valuemin>
								<valuemax>1000</valuemax>
								<value>500</value>
							</parameter>
							<parameter>
								<parameterid>samples</parameterid>
								<name>Samples</name>
								<valuemin>1</valuemin>
								<valuemax>16</valuemax>
								<value>4</value>
							</parameter>
						</effect>
					</filter>
					<filter>
						<effect>
							<name>Crop</name>
							<effectid>crop</effectid>
							<effectcategory>motion</effectcategory>
							<effecttype>motion</effecttype>
							<mediatype>video</mediatype>
							<parameter>
								<parameterid>left</parameterid>
								<name>left</name>
								<valuemin>0</valuemin>
								<valuemax>100</valuemax>
								<value>0</value>
							</parameter>
							<parameter>
								<parameterid>right</parameterid>
								<name>right</name>
								<valuemin>0</valuemin>
								<valuemax>100</valuemax>
								<value>0</value>
							</parameter>
							<parameter>
								<parameterid>top</parameterid>
								<name>top</name>
								<valuemin>0</valuemin>
								<valuemax>100</valuemax>
								<value>0</value>
							</parameter>
							<parameter>
								<parameterid>bottom</parameterid>
								<name>bottom</name>
								<valuemin>0</valuemin>
								<valuemax>100</valuemax>
								<value>0</value>
							</parameter>
							<parameter>
								<parameterid>edgefeather</parameterid>
								<name>edgefeather</name>
								<valuemin>0</valuemin>
								<valuemax>100</valuemax>
								<value>0</value>
							</parameter>
						</effect>
					</filter>
					<filter>
						<effect>
							<name>Distort</name>
							<effectid>deformation</effectid>
							<effectcategory>motion</effectcategory>
							<effecttype>motion</effecttype>
							<mediatype>video</mediatype>
							<parameter>
								<parameterid>ulcorner</parameterid>
								<name>Upper Left</name>
								<value>
									<horiz>-0.5</horiz>
									<vert>-0.5</vert>
								</value>
							</parameter>
							<parameter>
								<parameterid>urcorner</parameterid>
								<name>Upper Right</name>
								<value>
									<horiz>0.5</horiz>
									<vert>-0.5</vert>
								</value>
							</parameter>
							<parameter>
								<parameterid>lrcorner</parameterid>
								<name>Lower Right</name>
								<value>
									<horiz>0.5</horiz>
									<vert>0.5</vert>
								</value>
							</parameter>
							<parameter>
								<parameterid>llcorner</parameterid>
								<name>Lower Left</name>
								<value>
									<horiz>-0.5</horiz>
									<vert>0.5</vert>
								</value>
							</parameter>
							<parameter>
								<parameterid>aspect</parameterid>
								<name>Aspect</name>
								<valuemin>-10000</valuemin>
								<valuemax>10000</valuemax>
								<value>0</value>
							</parameter>
						</effect>
					</filter>
					<filter>
						<effect>
							<name>Opacity</name>
							<effectid>opacity</effectid>
							<effectcategory>motion</effectcategory>
							<effecttype>motion</effecttype>
							<mediatype>video</mediatype>
							<parameter>
								<parameterid>opacity</parameterid>
								<name>opacity</name>
								<valuemin>0</valuemin>
								<valuemax>100</valuemax>
								<value>100</value>
							</parameter>
						</effect>
					</filter>
					<sourcetrack>
						<mediatype>video</mediatype>
					</sourcetrack>
					<fielddominance>upper</fielddominance>
					<itemhistory>
						<uuid>D1779611-D103-4FBF-815A-A92BCE16AD48</uuid>
					</itemhistory>
					<filter>
						<effect>
							<name>Time Remap</name>
							<effectid>timeremap</effectid>
							<effectcategory>motion</effectcategory>
							<effecttype>motion</effecttype>
							<mediatype>video</mediatype>
							<parameter>
								<parameterid>variablespeed</parameterid>
								<name>variablespeed</name>
								<valuemin>0</valuemin>
								<valuemax>1</valuemax>
								<value>1</value>
							</parameter>
							<parameter>
								<parameterid>mappedduration</parameterid>
								<name>mappedduration</name>
								<value>
									<timecode>
										<rate>
											<timebase>0</timebase>
										</rate>
										<string>0</string>
										<frame>0</frame>
										<displayformat>NDF</displayformat>
									</timecode>
								</value>
							</parameter>
							<parameter>
								<parameterid>speed</parameterid>
								<name>speed</name>
								<valuemin>-10000</valuemin>
								<valuemax>10000</valuemax>
								<value>315</value>
							</parameter>
							<parameter>
								<parameterid>reverse</parameterid>
								<name>reverse</name>
								<value>FALSE</value>
							</parameter>
							<parameter>
								<parameterid>frameblending</parameterid>
								<name>frameblending</name>
								<value>TRUE</value>
							</parameter>
							<parameter>
								<parameterid>graphdict</parameterid>
								<name>graphdict</name>
								<valuemin>0</valuemin>
								<valuemax>1398</valuemax>
								<keyframe>
									<when>0</when>
									<value>0</value>
									<speedkfstart>TRUE</speedkfstart>
									<speedvirtualkf>TRUE</speedvirtualkf>
								</keyframe>
								<keyframe>
									<when>264</when>
									<value>272</value>
									<inbez>
										<horiz>68</horiz>
										<vert>-1.97222</vert>
									</inbez>
									<outbez>
										<horiz>4.93502</horiz>
										<vert>1.36675</vert>
									</outbez>
								</keyframe>
								<keyframe>
									<when>269</when>
									<value>307.473</value>
									<speedkfin>TRUE</speedkfin>
									<speedvirtualkf>TRUE</speedvirtualkf>
								</keyframe>
								<keyframe>
									<when>284</when>
									<value>411</value>
									<inbez>
										<horiz>3</horiz>
										<vert>-2.02458</vert>
									</inbez>
									<outbez>
										<horiz>278.5</horiz>
										<vert>1.11701</vert>
									</outbez>
								</keyframe>
								<keyframe>
									<when>328</when>
									<value>492.159</value>
									<speedkfout>TRUE</speedkfout>
									<speedvirtualkf>TRUE</speedvirtualkf>
								</keyframe>
								<keyframe>
									<when>1399</when>
									<value>1399</value>
									<speedkfend>TRUE</speedkfend>
									<speedvirtualkf>TRUE</speedvirtualkf>
								</keyframe>
								<interpolation>
									<name>FCPCurve</name>
								</interpolation>
								<value>307.473</value>
							</parameter>
						</effect>
					</filter>
				</clipitem>
				<clipitem id="DYR18658_01 ">
					<name>DYR18658_01</name>
					<duration>712</duration>
					<rate>
						<ntsc>FALSE</ntsc>
						<timebase>25</timebase>
					</rate>
					<in>329</in>
					<out>388</out>
					<start>27333</start>
					<end>27392</end>
					<pixelaspectratio>Square</pixelaspectratio>
					<enabled>TRUE</enabled>
					<anamorphic>FALSE</anamorphic>
					<alphatype>none</alphatype>
					<masterclipid>DYR18658_01 1</masterclipid>
					<logginginfo>
						<scene/>
						<shottake/>
						<lognote/>
						<good>FALSE</good>
					</logginginfo>
					<labels>
						<label2/>
					</labels>
					<comments>
						<mastercomment1/>
						<mastercomment2/>
						<mastercomment3/>
						<mastercomment4/>
					</comments>
					<file id="DYR18658_01 2">
						<name>DYR18658_01.mov</name>
						<pathurl>file://localhost/Volumes/Askepott/Prosjekter/DNPR637010_Kra%CC%8Akeklubben_TEM_011212/Video/MUSIKKVIDEO/Treet/DYR18658_01.mov</pathurl>
						<rate>
							<timebase>25</timebase>
						</rate>
						<duration>712</duration>
						<metadata>
							<storage>QuickTime</storage>
							<key>com.sony.bprl.xdcamtransfer.version</key>
							<size>10</size>
							<type>UTF8</type>
							<value>2.12.0.631</value>
						</metadata>
						<metadata>
							<storage>QuickTime</storage>
							<key>org.smpte.mxf.package.material.packageid</key>
							<size>66</size>
							<type>UTF8</type>
							<value>0x060a2b340101010501010d4313000000f0d1ba83615405df08004602022f05f5</value>
						</metadata>
						<metadata>
							<storage>QuickTime</storage>
							<key>com.sony.professionaldisc.nonrealtimemeta.lastupdate</key>
							<size>25</size>
							<type>UTF8</type>
							<value>2010-09-22 13:21:28 +0100</value>
						</metadata>
						<metadata>
							<storage>QuickTime</storage>
							<key>com.sony.bprl.mxf.umid</key>
							<size>64</size>
							<type>UTF8</type>
							<value>060a2b340101010501010d4313000000f0d1ba83615405df08004602022f05f5</value>
						</metadata>
						<metadata>
							<storage>QuickTime</storage>
							<key>com.sony.bprl.mxf.nrtmetadata</key>
							<size>1991</size>
							<type>UTF8</type>
							<value>&lt;?xml version="1.0" encoding="UTF-8"?>&lt;NonRealTimeMeta xmlns="urn:schemas-professionalDisc:nonRealTimeMeta:ver.1.20" xmlns:lib="urn:schemas-professionalDisc:lib:ver.1.20" xmlns:xsi="http://www.w3.org/2001/XMLSchema-instance" lastUpdate="2010-09-22T13:21:28+01:00">&lt;TargetMaterial umidRef="060A2B340101010501010D4313000000F0D1BA83615405DF08004602022F05F5">&lt;/TargetMaterial>&lt;Duration value="712">&lt;/Duration>&lt;LtcChangeTable tcFps="25" halfStep="false">&lt;LtcChange frameCount="0" value="23192413" status="increment">&lt;/LtcChange>&lt;LtcChange frameCount="711" value="09482413" status="end">&lt;/LtcChange>&lt;/LtcChangeTable>&lt;CreationDate value="2010-09-22T13:20:58+01:00">&lt;/CreationDate>&lt;TypicalUbit value="0000000017061020">&lt;/TypicalUbit>&lt;BodyUmidBasicChangeTable>&lt;BodyUmidBasicChange frameCount="0" value="060A2B340101010501010D4333000000F0D1BA83615405DF08004602022F05F5" status="start">&lt;/BodyUmidBasicChange>&lt;/BodyUmidBasicChangeTable>&lt;BodyUmidWhenChangeTable>&lt;BodyUmidWhenChange frameCount="0" value="846D3D04615405A5" status="increment">&lt;/BodyUmidWhenChange>&lt;BodyUmidWhenChange frameCount="711" value="441F3E04615405A5" status="end">&lt;/BodyUmidWhenChange>&lt;/BodyUmidWhenChangeTable>&lt;KlvPacketTable>&lt;KlvPacket key="060E2B34010101050301020A02000000" frameCount="0" lengthValue="095F5265635374617274" status="spot">&lt;/KlvPacket>&lt;/KlvPacketTable>&lt;VideoFormat>&lt;VideoRecPort port="DIRECT">&lt;/VideoRecPort>&lt;VideoFrame videoCodec="MPEG2HD35_1920_1080_MP@HL" captureFps="50.00i" recFps="50.00" formatFps="50i">&lt;/VideoFrame>&lt;VideoLayout pixel="1920" numOfVerticalLine="1080" aspectRatio="16:9">&lt;/VideoLayout>&lt;/VideoFormat>&lt;AudioFormat numOfChannel="2">&lt;AudioRecPort port="DIRECT" audioCodec="LPCM16" trackDst="CH1">&lt;/AudioRecPort>&lt;AudioRecPort port="DIRECT" audioCodec="LPCM16" trackDst="CH2">&lt;/AudioRecPort>&lt;/AudioFormat>&lt;Device manufacturer="Sony" modelName="PMW-EX3" serialNo="0401525">&lt;/Device>&lt;Lens modelName="VCL-614B2X">&lt;/Lens>&lt;RecordingMode type="normal" cacheRec="false">&lt;/RecordingMode>&lt;/NonRealTimeMeta>
							</value>
						</metadata>
						<metadata>
							<storage>QuickTime</storage>
							<key>com.apple.proapps.reel</key>
							<size>8</size>
							<type>UTF8</type>
							<value>Untitled</value>
						</metadata>
						<metadata>
							<storage>QuickTime</storage>
							<key>com.apple.proapps.clipID</key>
							<size>64</size>
							<type>UTF8</type>
							<value>060A2B340101010501010D4313000000F0D1BA83615405DF08004602022F05F5</value>
						</metadata>
						<metadata>
							<storage>QuickTime</storage>
							<key>com.apple.quicktime.information</key>
							<size>64</size>
							<type>UTF8</type>
							<value>060a2b340101010501010d4313000000f0d1ba83615405df08004602022f05f5</value>
						</metadata>
						<metadata>
							<storage>QuickTime</storage>
							<key>com.apple.proapps.originalFormat</key>
							<size>36</size>
							<type>UTF8</type>
							<value>Apple XDCAM EX 1080i50 (35 Mb/s VBR)</value>
						</metadata>
						<timecode>
							<rate>
								<timebase>25</timebase>
							</rate>
							<string>13:24:19:23</string>
							<frame>1206498</frame>
							<displayformat>NDF</displayformat>
							<source>source</source>
							<reel>
								<name>Untitled</name>
							</reel>
						</timecode>
						<media>
							<video>
								<duration>712</duration>
								<samplecharacteristics>
									<width>1920</width>
									<height>1080</height>
								</samplecharacteristics>
							</video>
							<audio>
								<samplecharacteristics>
									<samplerate>48000</samplerate>
									<depth>16</depth>
								</samplecharacteristics>
								<channelcount>1</channelcount>
								<layout>mono</layout>
								<audiochannel>
									<sourcechannel>1</sourcechannel>
									<channellabel>discrete</channellabel>
								</audiochannel>
							</audio>
							<audio>
								<samplecharacteristics>
									<samplerate>48000</samplerate>
									<depth>16</depth>
								</samplecharacteristics>
								<channelcount>1</channelcount>
								<layout>mono</layout>
								<audiochannel>
									<sourcechannel>2</sourcechannel>
									<channellabel>discrete</channellabel>
								</audiochannel>
							</audio>
						</media>
					</file>
					<sourcetrack>
						<mediatype>video</mediatype>
					</sourcetrack>
					<fielddominance>upper</fielddominance>
					<itemhistory>
						<uuid>5F972424-CC13-413F-AFD3-6C57BAD2042F</uuid>
					</itemhistory>
				</clipitem>
				<clipitem id="DYR18657_01 ">
					<name>DYR18657_01</name>
					<duration>1380</duration>
					<rate>
						<ntsc>FALSE</ntsc>
						<timebase>25</timebase>
					</rate>
					<in>631</in>
					<out>697</out>
					<start>27392</start>
					<end>27458</end>
					<pixelaspectratio>Square</pixelaspectratio>
					<enabled>TRUE</enabled>
					<anamorphic>FALSE</anamorphic>
					<alphatype>none</alphatype>
					<masterclipid>DYR18657_01 1</masterclipid>
					<logginginfo>
						<scene/>
						<shottake/>
						<lognote/>
						<good>FALSE</good>
					</logginginfo>
					<labels>
						<label2/>
					</labels>
					<comments>
						<mastercomment1/>
						<mastercomment2/>
						<mastercomment3/>
						<mastercomment4/>
					</comments>
					<file id="DYR18657_01 2">
						<name>DYR18657_01.mov</name>
						<pathurl>file://localhost/Volumes/Askepott/Prosjekter/DNPR637010_Kra%CC%8Akeklubben_TEM_011212/Video/MUSIKKVIDEO/Treet/DYR18657_01.mov</pathurl>
						<rate>
							<timebase>25</timebase>
						</rate>
						<duration>1380</duration>
						<metadata>
							<storage>QuickTime</storage>
							<key>com.sony.bprl.xdcamtransfer.version</key>
							<size>10</size>
							<type>UTF8</type>
							<value>2.12.0.631</value>
						</metadata>
						<metadata>
							<storage>QuickTime</storage>
							<key>org.smpte.mxf.package.material.packageid</key>
							<size>66</size>
							<type>UTF8</type>
							<value>0x060a2b340101010501010d4313000000597e8c83615405dd08004602022f05f5</value>
						</metadata>
						<metadata>
							<storage>QuickTime</storage>
							<key>com.sony.professionaldisc.nonrealtimemeta.lastupdate</key>
							<size>25</size>
							<type>UTF8</type>
							<value>2010-09-22 13:20:54 +0100</value>
						</metadata>
						<metadata>
							<storage>QuickTime</storage>
							<key>com.sony.bprl.mxf.umid</key>
							<size>64</size>
							<type>UTF8</type>
							<value>060a2b340101010501010d4313000000597e8c83615405dd08004602022f05f5</value>
						</metadata>
						<metadata>
							<storage>QuickTime</storage>
							<key>com.sony.bprl.mxf.nrtmetadata</key>
							<size>1994</size>
							<type>UTF8</type>
							<value>&lt;?xml version="1.0" encoding="UTF-8"?>&lt;NonRealTimeMeta xmlns="urn:schemas-professionalDisc:nonRealTimeMeta:ver.1.20" xmlns:lib="urn:schemas-professionalDisc:lib:ver.1.20" xmlns:xsi="http://www.w3.org/2001/XMLSchema-instance" lastUpdate="2010-09-22T13:20:54+01:00">&lt;TargetMaterial umidRef="060A2B340101010501010D4313000000597E8C83615405DD08004602022F05F5">&lt;/TargetMaterial>&lt;Duration value="1380">&lt;/Duration>&lt;LtcChangeTable tcFps="25" halfStep="false">&lt;LtcChange frameCount="0" value="18242313" status="increment">&lt;/LtcChange>&lt;LtcChange frameCount="1379" value="22192413" status="end">&lt;/LtcChange>&lt;/LtcChangeTable>&lt;CreationDate value="2010-09-22T13:19:57+01:00">&lt;/CreationDate>&lt;TypicalUbit value="0000000017061020">&lt;/TypicalUbit>&lt;BodyUmidBasicChangeTable>&lt;BodyUmidBasicChange frameCount="0" value="060A2B340101010501010D4333000000597E8C83615405DD08004602022F05F5" status="start">&lt;/BodyUmidBasicChange>&lt;/BodyUmidBasicChangeTable>&lt;BodyUmidWhenChangeTable>&lt;BodyUmidWhenChange frameCount="0" value="C4EF3B04615405A5" status="increment">&lt;/BodyUmidWhenChange>&lt;BodyUmidWhenChange frameCount="1379" value="84483D04615405A5" status="end">&lt;/BodyUmidWhenChange>&lt;/BodyUmidWhenChangeTable>&lt;KlvPacketTable>&lt;KlvPacket key="060E2B34010101050301020A02000000" frameCount="0" lengthValue="095F5265635374617274" status="spot">&lt;/KlvPacket>&lt;/KlvPacketTable>&lt;VideoFormat>&lt;VideoRecPort port="DIRECT">&lt;/VideoRecPort>&lt;VideoFrame videoCodec="MPEG2HD35_1920_1080_MP@HL" captureFps="50.00i" recFps="50.00" formatFps="50i">&lt;/VideoFrame>&lt;VideoLayout pixel="1920" numOfVerticalLine="1080" aspectRatio="16:9">&lt;/VideoLayout>&lt;/VideoFormat>&lt;AudioFormat numOfChannel="2">&lt;AudioRecPort port="DIRECT" audioCodec="LPCM16" trackDst="CH1">&lt;/AudioRecPort>&lt;AudioRecPort port="DIRECT" audioCodec="LPCM16" trackDst="CH2">&lt;/AudioRecPort>&lt;/AudioFormat>&lt;Device manufacturer="Sony" modelName="PMW-EX3" serialNo="0401525">&lt;/Device>&lt;Lens modelName="VCL-614B2X">&lt;/Lens>&lt;RecordingMode type="normal" cacheRec="false">&lt;/RecordingMode>&lt;/NonRealTimeMeta>
							</value>
						</metadata>
						<metadata>
							<storage>QuickTime</storage>
							<key>com.apple.proapps.reel</key>
							<size>8</size>
							<type>UTF8</type>
							<value>Untitled</value>
						</metadata>
						<metadata>
							<storage>QuickTime</storage>
							<key>com.apple.proapps.clipID</key>
							<size>64</size>
							<type>UTF8</type>
							<value>060A2B340101010501010D4313000000597E8C83615405DD08004602022F05F5</value>
						</metadata>
						<metadata>
							<storage>QuickTime</storage>
							<key>com.apple.quicktime.information</key>
							<size>64</size>
							<type>UTF8</type>
							<value>060a2b340101010501010d4313000000597e8c83615405dd08004602022f05f5</value>
						</metadata>
						<metadata>
							<storage>QuickTime</storage>
							<key>com.apple.proapps.originalFormat</key>
							<size>36</size>
							<type>UTF8</type>
							<value>Apple XDCAM EX 1080i50 (35 Mb/s VBR)</value>
						</metadata>
						<timecode>
							<rate>
								<timebase>25</timebase>
							</rate>
							<string>13:23:24:18</string>
							<frame>1205118</frame>
							<displayformat>NDF</displayformat>
							<source>source</source>
							<reel>
								<name>Untitled</name>
							</reel>
						</timecode>
						<media>
							<video>
								<duration>1380</duration>
								<samplecharacteristics>
									<width>1920</width>
									<height>1080</height>
								</samplecharacteristics>
							</video>
							<audio>
								<samplecharacteristics>
									<samplerate>48000</samplerate>
									<depth>16</depth>
								</samplecharacteristics>
								<channelcount>1</channelcount>
								<layout>mono</layout>
								<audiochannel>
									<sourcechannel>1</sourcechannel>
									<channellabel>discrete</channellabel>
								</audiochannel>
							</audio>
							<audio>
								<samplecharacteristics>
									<samplerate>48000</samplerate>
									<depth>16</depth>
								</samplecharacteristics>
								<channelcount>1</channelcount>
								<layout>mono</layout>
								<audiochannel>
									<sourcechannel>2</sourcechannel>
									<channellabel>discrete</channellabel>
								</audiochannel>
							</audio>
						</media>
					</file>
					<sourcetrack>
						<mediatype>video</mediatype>
					</sourcetrack>
					<fielddominance>upper</fielddominance>
					<itemhistory>
						<uuid>608A84E8-1938-4098-8C94-AE459FC9E9F7</uuid>
					</itemhistory>
				</clipitem>
				<clipitem id="DYR18661_01 ">
					<name>DYR18661_01</name>
					<duration>470</duration>
					<rate>
						<ntsc>FALSE</ntsc>
						<timebase>25</timebase>
					</rate>
					<in>59</in>
					<out>122</out>
					<start>27458</start>
					<end>27521</end>
					<pixelaspectratio>Square</pixelaspectratio>
					<enabled>TRUE</enabled>
					<anamorphic>FALSE</anamorphic>
					<alphatype>none</alphatype>
					<masterclipid>DYR18661_01 1</masterclipid>
					<logginginfo>
						<scene/>
						<shottake/>
						<lognote/>
						<good>FALSE</good>
					</logginginfo>
					<labels>
						<label2/>
					</labels>
					<comments>
						<mastercomment1/>
						<mastercomment2/>
						<mastercomment3/>
						<mastercomment4/>
					</comments>
					<file id="DYR18661_01 2">
						<name>DYR18661_01.mov</name>
						<pathurl>file://localhost/Volumes/Askepott/Prosjekter/DNPR637010_Kra%CC%8Akeklubben_TEM_011212/Video/MUSIKKVIDEO/Treet/DYR18661_01.mov</pathurl>
						<rate>
							<timebase>25</timebase>
						</rate>
						<duration>470</duration>
						<metadata>
							<storage>QuickTime</storage>
							<key>com.sony.bprl.xdcamtransfer.version</key>
							<size>10</size>
							<type>UTF8</type>
							<value>2.12.0.631</value>
						</metadata>
						<metadata>
							<storage>QuickTime</storage>
							<key>org.smpte.mxf.package.material.packageid</key>
							<size>66</size>
							<type>UTF8</type>
							<value>0x060a2b340101010501010d4313000000bdea3884615405cc08004602022f05f5</value>
						</metadata>
						<metadata>
							<storage>QuickTime</storage>
							<key>com.sony.professionaldisc.nonrealtimemeta.lastupdate</key>
							<size>25</size>
							<type>UTF8</type>
							<value>2010-09-22 13:24:05 +0100</value>
						</metadata>
						<metadata>
							<storage>QuickTime</storage>
							<key>com.sony.bprl.mxf.umid</key>
							<size>64</size>
							<type>UTF8</type>
							<value>060a2b340101010501010d4313000000bdea3884615405cc08004602022f05f5</value>
						</metadata>
						<metadata>
							<storage>QuickTime</storage>
							<key>com.sony.bprl.mxf.nrtmetadata</key>
							<size>1991</size>
							<type>UTF8</type>
							<value>&lt;?xml version="1.0" encoding="UTF-8"?>&lt;NonRealTimeMeta xmlns="urn:schemas-professionalDisc:nonRealTimeMeta:ver.1.20" xmlns:lib="urn:schemas-professionalDisc:lib:ver.1.20" xmlns:xsi="http://www.w3.org/2001/XMLSchema-instance" lastUpdate="2010-09-22T13:24:05+01:00">&lt;TargetMaterial umidRef="060A2B340101010501010D4313000000BDEA3884615405CC08004602022F05F5">&lt;/TargetMaterial>&lt;Duration value="470">&lt;/Duration>&lt;LtcChangeTable tcFps="25" halfStep="false">&lt;LtcChange frameCount="0" value="16332613" status="increment">&lt;/LtcChange>&lt;LtcChange frameCount="469" value="10522613" status="end">&lt;/LtcChange>&lt;/LtcChangeTable>&lt;CreationDate value="2010-09-22T13:23:45+01:00">&lt;/CreationDate>&lt;TypicalUbit value="0000000017061020">&lt;/TypicalUbit>&lt;BodyUmidBasicChangeTable>&lt;BodyUmidBasicChange frameCount="0" value="060A2B340101010501010D4333000000BDEA3884615405CC08004602022F05F5" status="start">&lt;/BodyUmidBasicChange>&lt;/BodyUmidBasicChangeTable>&lt;BodyUmidWhenChangeTable>&lt;BodyUmidWhenChange frameCount="0" value="847C4104615405A5" status="increment">&lt;/BodyUmidWhenChange>&lt;BodyUmidWhenChange frameCount="469" value="C4F14104615405A5" status="end">&lt;/BodyUmidWhenChange>&lt;/BodyUmidWhenChangeTable>&lt;KlvPacketTable>&lt;KlvPacket key="060E2B34010101050301020A02000000" frameCount="0" lengthValue="095F5265635374617274" status="spot">&lt;/KlvPacket>&lt;/KlvPacketTable>&lt;VideoFormat>&lt;VideoRecPort port="DIRECT">&lt;/VideoRecPort>&lt;VideoFrame videoCodec="MPEG2HD35_1920_1080_MP@HL" captureFps="50.00i" recFps="50.00" formatFps="50i">&lt;/VideoFrame>&lt;VideoLayout pixel="1920" numOfVerticalLine="1080" aspectRatio="16:9">&lt;/VideoLayout>&lt;/VideoFormat>&lt;AudioFormat numOfChannel="2">&lt;AudioRecPort port="DIRECT" audioCodec="LPCM16" trackDst="CH1">&lt;/AudioRecPort>&lt;AudioRecPort port="DIRECT" audioCodec="LPCM16" trackDst="CH2">&lt;/AudioRecPort>&lt;/AudioFormat>&lt;Device manufacturer="Sony" modelName="PMW-EX3" serialNo="0401525">&lt;/Device>&lt;Lens modelName="VCL-614B2X">&lt;/Lens>&lt;RecordingMode type="normal" cacheRec="false">&lt;/RecordingMode>&lt;/NonRealTimeMeta>
							</value>
						</metadata>
						<metadata>
							<storage>QuickTime</storage>
							<key>com.apple.proapps.reel</key>
							<size>8</size>
							<type>UTF8</type>
							<value>Untitled</value>
						</metadata>
						<metadata>
							<storage>QuickTime</storage>
							<key>com.apple.proapps.clipID</key>
							<size>64</size>
							<type>UTF8</type>
							<value>060A2B340101010501010D4313000000BDEA3884615405CC08004602022F05F5</value>
						</metadata>
						<metadata>
							<storage>QuickTime</storage>
							<key>com.apple.quicktime.information</key>
							<size>64</size>
							<type>UTF8</type>
							<value>060a2b340101010501010d4313000000bdea3884615405cc08004602022f05f5</value>
						</metadata>
						<metadata>
							<storage>QuickTime</storage>
							<key>com.apple.proapps.originalFormat</key>
							<size>36</size>
							<type>UTF8</type>
							<value>Apple XDCAM EX 1080i50 (35 Mb/s VBR)</value>
						</metadata>
						<timecode>
							<rate>
								<timebase>25</timebase>
							</rate>
							<string>13:26:33:16</string>
							<frame>1209841</frame>
							<displayformat>NDF</displayformat>
							<source>source</source>
							<reel>
								<name>Untitled</name>
							</reel>
						</timecode>
						<media>
							<video>
								<duration>470</duration>
								<samplecharacteristics>
									<width>1920</width>
									<height>1080</height>
								</samplecharacteristics>
							</video>
							<audio>
								<samplecharacteristics>
									<samplerate>48000</samplerate>
									<depth>16</depth>
								</samplecharacteristics>
								<channelcount>1</channelcount>
								<layout>mono</layout>
								<audiochannel>
									<sourcechannel>1</sourcechannel>
									<channellabel>discrete</channellabel>
								</audiochannel>
							</audio>
							<audio>
								<samplecharacteristics>
									<samplerate>48000</samplerate>
									<depth>16</depth>
								</samplecharacteristics>
								<channelcount>1</channelcount>
								<layout>mono</layout>
								<audiochannel>
									<sourcechannel>2</sourcechannel>
									<channellabel>discrete</channellabel>
								</audiochannel>
							</audio>
						</media>
					</file>
					<sourcetrack>
						<mediatype>video</mediatype>
					</sourcetrack>
					<fielddominance>upper</fielddominance>
					<itemhistory>
						<uuid>1C6CD401-FAA2-4F38-A444-25A6AF97D378</uuid>
					</itemhistory>
				</clipitem>
				<clipitem id="DYR18661_01 3">
					<name>DYR18661_01</name>
					<duration>470</duration>
					<rate>
						<ntsc>FALSE</ntsc>
						<timebase>25</timebase>
					</rate>
					<in>388</in>
					<out>451</out>
					<start>27521</start>
					<end>27584</end>
					<pixelaspectratio>Square</pixelaspectratio>
					<enabled>TRUE</enabled>
					<anamorphic>FALSE</anamorphic>
					<alphatype>none</alphatype>
					<masterclipid>DYR18661_01 1</masterclipid>
					<logginginfo>
						<scene/>
						<shottake/>
						<lognote/>
						<good>FALSE</good>
					</logginginfo>
					<labels>
						<label2/>
					</labels>
					<comments>
						<mastercomment1/>
						<mastercomment2/>
						<mastercomment3/>
						<mastercomment4/>
					</comments>
					<file id="DYR18661_01 2"/>
					<sourcetrack>
						<mediatype>video</mediatype>
					</sourcetrack>
					<fielddominance>upper</fielddominance>
					<itemhistory>
						<uuid>25A67285-C159-4141-9027-EED08754F9AB</uuid>
					</itemhistory>
				</clipitem>
				<clipitem id="DYR18644_01 ">
					<name>DYR18644_01</name>
					<duration>1594</duration>
					<rate>
						<ntsc>FALSE</ntsc>
						<timebase>25</timebase>
					</rate>
					<in>1148</in>
					<out>1205</out>
					<start>27584</start>
					<end>27641</end>
					<pixelaspectratio>Square</pixelaspectratio>
					<enabled>TRUE</enabled>
					<anamorphic>FALSE</anamorphic>
					<alphatype>none</alphatype>
					<masterclipid>DYR18644_01 1</masterclipid>
					<logginginfo>
						<scene/>
						<shottake/>
						<lognote/>
						<good>FALSE</good>
					</logginginfo>
					<labels>
						<label2/>
					</labels>
					<comments>
						<mastercomment1/>
						<mastercomment2/>
						<mastercomment3/>
						<mastercomment4/>
					</comments>
					<file id="DYR18644_01 2">
						<name>DYR18644_01.mov</name>
						<pathurl>file://localhost/Volumes/Askepott/Prosjekter/DNPR637010_Kra%CC%8Akeklubben_TEM_011212/Video/MUSIKKVIDEO/Treet/DYR18644_01.mov</pathurl>
						<rate>
							<timebase>25</timebase>
						</rate>
						<duration>1594</duration>
						<metadata>
							<storage>QuickTime</storage>
							<key>com.sony.bprl.xdcamtransfer.version</key>
							<size>10</size>
							<type>UTF8</type>
							<value>2.12.0.631</value>
						</metadata>
						<metadata>
							<storage>QuickTime</storage>
							<key>org.smpte.mxf.package.material.packageid</key>
							<size>66</size>
							<type>UTF8</type>
							<value>0x060a2b340101010501010d43130000002ed1907d615405cc08004602022f05f5</value>
						</metadata>
						<metadata>
							<storage>QuickTime</storage>
							<key>com.sony.professionaldisc.nonrealtimemeta.lastupdate</key>
							<size>25</size>
							<type>UTF8</type>
							<value>2010-09-22 12:47:23 +0100</value>
						</metadata>
						<metadata>
							<storage>QuickTime</storage>
							<key>com.sony.bprl.mxf.umid</key>
							<size>64</size>
							<type>UTF8</type>
							<value>060a2b340101010501010d43130000002ed1907d615405cc08004602022f05f5</value>
						</metadata>
						<metadata>
							<storage>QuickTime</storage>
							<key>com.sony.bprl.mxf.nrtmetadata</key>
							<size>1994</size>
							<type>UTF8</type>
							<value>&lt;?xml version="1.0" encoding="UTF-8"?>&lt;NonRealTimeMeta xmlns="urn:schemas-professionalDisc:nonRealTimeMeta:ver.1.20" xmlns:lib="urn:schemas-professionalDisc:lib:ver.1.20" xmlns:xsi="http://www.w3.org/2001/XMLSchema-instance" lastUpdate="2010-09-22T12:47:23+01:00">&lt;TargetMaterial umidRef="060A2B340101010501010D43130000002ED1907D615405CC08004602022F05F5">&lt;/TargetMaterial>&lt;Duration value="1594">&lt;/Duration>&lt;LtcChangeTable tcFps="25" halfStep="false">&lt;LtcChange frameCount="0" value="07441313" status="increment">&lt;/LtcChange>&lt;LtcChange frameCount="1593" value="00481413" status="end">&lt;/LtcChange>&lt;/LtcChangeTable>&lt;CreationDate value="2010-09-22T12:46:18+01:00">&lt;/CreationDate>&lt;TypicalUbit value="0000000017061020">&lt;/TypicalUbit>&lt;BodyUmidBasicChangeTable>&lt;BodyUmidBasicChange frameCount="0" value="060A2B340101010501010D43330000002ED1907D615405CC08004602022F05F5" status="start">&lt;/BodyUmidBasicChange>&lt;/BodyUmidBasicChangeTable>&lt;BodyUmidWhenChangeTable>&lt;BodyUmidWhenChange frameCount="0" value="04A30A04615405A5" status="increment">&lt;/BodyUmidWhenChange>&lt;BodyUmidWhenChange frameCount="1593" value="44310C04615405A5" status="end">&lt;/BodyUmidWhenChange>&lt;/BodyUmidWhenChangeTable>&lt;KlvPacketTable>&lt;KlvPacket key="060E2B34010101050301020A02000000" frameCount="0" lengthValue="095F5265635374617274" status="spot">&lt;/KlvPacket>&lt;/KlvPacketTable>&lt;VideoFormat>&lt;VideoRecPort port="DIRECT">&lt;/VideoRecPort>&lt;VideoFrame videoCodec="MPEG2HD35_1920_1080_MP@HL" captureFps="50.00i" recFps="50.00" formatFps="50i">&lt;/VideoFrame>&lt;VideoLayout pixel="1920" numOfVerticalLine="1080" aspectRatio="16:9">&lt;/VideoLayout>&lt;/VideoFormat>&lt;AudioFormat numOfChannel="2">&lt;AudioRecPort port="DIRECT" audioCodec="LPCM16" trackDst="CH1">&lt;/AudioRecPort>&lt;AudioRecPort port="DIRECT" audioCodec="LPCM16" trackDst="CH2">&lt;/AudioRecPort>&lt;/AudioFormat>&lt;Device manufacturer="Sony" modelName="PMW-EX3" serialNo="0401525">&lt;/Device>&lt;Lens modelName="VCL-614B2X">&lt;/Lens>&lt;RecordingMode type="normal" cacheRec="false">&lt;/RecordingMode>&lt;/NonRealTimeMeta>
							</value>
						</metadata>
						<metadata>
							<storage>QuickTime</storage>
							<key>com.apple.proapps.reel</key>
							<size>8</size>
							<type>UTF8</type>
							<value>Untitled</value>
						</metadata>
						<metadata>
							<storage>QuickTime</storage>
							<key>com.apple.proapps.clipID</key>
							<size>64</size>
							<type>UTF8</type>
							<value>060A2B340101010501010D43130000002ED1907D615405CC08004602022F05F5</value>
						</metadata>
						<metadata>
							<storage>QuickTime</storage>
							<key>com.apple.quicktime.information</key>
							<size>64</size>
							<type>UTF8</type>
							<value>060a2b340101010501010d43130000002ed1907d615405cc08004602022f05f5</value>
						</metadata>
						<metadata>
							<storage>QuickTime</storage>
							<key>com.apple.proapps.originalFormat</key>
							<size>36</size>
							<type>UTF8</type>
							<value>Apple XDCAM EX 1080i50 (35 Mb/s VBR)</value>
						</metadata>
						<timecode>
							<rate>
								<timebase>25</timebase>
							</rate>
							<string>13:13:44:07</string>
							<frame>1190607</frame>
							<displayformat>NDF</displayformat>
							<source>source</source>
							<reel>
								<name>Untitled</name>
							</reel>
						</timecode>
						<media>
							<video>
								<duration>1594</duration>
								<samplecharacteristics>
									<width>1920</width>
									<height>1080</height>
								</samplecharacteristics>
							</video>
							<audio>
								<samplecharacteristics>
									<samplerate>48000</samplerate>
									<depth>16</depth>
								</samplecharacteristics>
								<channelcount>1</channelcount>
								<layout>mono</layout>
								<audiochannel>
									<sourcechannel>1</sourcechannel>
									<channellabel>discrete</channellabel>
								</audiochannel>
							</audio>
							<audio>
								<samplecharacteristics>
									<samplerate>48000</samplerate>
									<depth>16</depth>
								</samplecharacteristics>
								<channelcount>1</channelcount>
								<layout>mono</layout>
								<audiochannel>
									<sourcechannel>2</sourcechannel>
									<channellabel>discrete</channellabel>
								</audiochannel>
							</audio>
						</media>
					</file>
					<filter>
						<effect>
							<name>Opacity</name>
							<effectid>opacity</effectid>
							<effectcategory>motion</effectcategory>
							<effecttype>motion</effecttype>
							<mediatype>video</mediatype>
							<parameter>
								<parameterid>opacity</parameterid>
								<name>opacity</name>
								<valuemin>0</valuemin>
								<valuemax>100</valuemax>
								<value>100</value>
							</parameter>
						</effect>
					</filter>
					<sourcetrack>
						<mediatype>video</mediatype>
					</sourcetrack>
					<fielddominance>upper</fielddominance>
					<itemhistory>
						<uuid>1E124BE3-85D6-457A-A7D6-CDB0FA11B8CA</uuid>
					</itemhistory>
				</clipitem>
				<transitionitem>
					<rate>
						<ntsc>FALSE</ntsc>
						<timebase>25</timebase>
					</rate>
					<start>27690</start>
					<end>27715</end>
					<alignment>center</alignment>
					<effect>
						<name>G Lens Flare Musikkvideo</name>
						<effectcategory>Nattress Big Box Of Tricks</effectcategory>
						<effecttype>transition</effecttype>
						<mediatype>video</mediatype>
						<startratio>0</startratio>
						<endratio>1</endratio>
						<reverse>FALSE</reverse>
						<parameter>
							<parameterid>dispvar1</parameterid>
							<name>Display Settings</name>
							<value>string</value>
						</parameter>
						<parameter>
							<parameterid>inputvar1</parameterid>
							<name>Flare Position</name>
							<value>string</value>
						</parameter>
						<parameter>
							<parameterid>theangle</parameterid>
							<name>Transition Direction</name>
							<valuemin>-360</valuemin>
							<valuemax>360</valuemax>
							<value>270</value>
						</parameter>
						<parameter>
							<parameterid>transitionblendduration</parameterid>
							<name>Blend Duration</name>
							<valuemin>0</valuemin>
							<valuemax>100</valuemax>
							<value>50</value>
						</parameter>
						<parameter>
							<parameterid>settingsvar1</parameterid>
							<name>Flare Settings</name>
							<value>string</value>
						</parameter>
						<parameter>
							<parameterid>presets</parameterid>
							<name>Preset Select</name>
							<valuemin>1</valuemin>
							<valuemax>4</valuemax>
							<valuelist>
								<valueentry>
									<name>Custom Controls</name>
									<value>1</value>
								</valueentry>
								<valueentry>
									<name>Other End of the Rainbow</name>
									<value>2</value>
								</valueentry>
								<valueentry>
									<name>Photon</name>
									<value>3</value>
								</valueentry>
								<valueentry>
									<name>Gaudy</name>
									<value>4</value>
								</valueentry>
							</valuelist>
							<value>2</value>
						</parameter>
						<parameter>
							<parameterid>randomevolution</parameterid>
							<name>Randomness Evolution</name>
							<valuemin>0</valuemin>
							<valuemax>1</valuemax>
							<value>0.05</value>
						</parameter>
						<parameter>
							<parameterid>flareaspect</parameterid>
							<name>Aspect</name>
							<valuemin>0.1</valuemin>
							<valuemax>10</valuemax>
							<value>1</value>
						</parameter>
						<parameter>
							<parameterid>flareintensity</parameterid>
							<name>Overall Intensity</name>
							<valuemin>0</valuemin>
							<valuemax>400</valuemax>
							<value>300</value>
						</parameter>
						<parameter>
							<parameterid>therandomseed</parameterid>
							<name>Random Seed</name>
							<valuemin>0</valuemin>
							<valuemax>100</valuemax>
							<value>100</value>
						</parameter>
						<parameter>
							<parameterid>settingsvar2</parameterid>
							<name>   Bloom</name>
							<value>string</value>
						</parameter>
						<parameter>
							<parameterid>bloomon</parameterid>
							<name>Bloom On?</name>
							<value>TRUE</value>
						</parameter>
						<parameter>
							<parameterid>bloomcolour</parameterid>
							<name>Bloom Colour</name>
							<value>
								<alpha>255</alpha>
								<red>218</red>
								<green>224</green>
								<blue>254</blue>
							</value>
						</parameter>
						<parameter>
							<parameterid>bloomcolourfromimage</parameterid>
							<name>Use Image for Bloom Colour?</name>
							<value>FALSE</value>
						</parameter>
						<parameter>
							<parameterid>bloomintensity</parameterid>
							<name>Intensity</name>
							<valuemin>0</valuemin>
							<valuemax>100</valuemax>
							<value>90</value>
						</parameter>
						<parameter>
							<parameterid>bloomradius</parameterid>
							<name>Radius</name>
							<valuemin>0</valuemin>
							<valuemax>200</valuemax>
							<value>45</value>
						</parameter>
						<parameter>
							<parameterid>bloomfalloff</parameterid>
							<name>Fall Off</name>
							<valuemin>0</valuemin>
							<valuemax>100</valuemax>
							<value>75</value>
						</parameter>
						<parameter>
							<parameterid>bloomstarry</parameterid>
							<name>Starry</name>
							<valuemin>0</valuemin>
							<valuemax>100</valuemax>
							<value>10</value>
						</parameter>
						<parameter>
							<parameterid>bloomstarpoints</parameterid>
							<name>Star Points</name>
							<valuemin>0</valuemin>
							<valuemax>100</valuemax>
							<value>7</value>
						</parameter>
						<parameter>
							<parameterid>settingsvar3</parameterid>
							<name>   StarBurst</name>
							<value>string</value>
						</parameter>
						<parameter>
							<parameterid>starburston</parameterid>
							<name>StarBurst On?</name>
							<value>TRUE</value>
						</parameter>
						<parameter>
							<parameterid>starburstcolour</parameterid>
							<name>StarBurst Colour</name>
							<value>
								<alpha>255</alpha>
								<red>254</red>
								<green>224</green>
								<blue>218</blue>
							</value>
						</parameter>
						<parameter>
							<parameterid>starburstintensity</parameterid>
							<name>Intensity</name>
							<valuemin>0</valuemin>
							<valuemax>100</valuemax>
							<value>75</value>
						</parameter>
						<parameter>
							<parameterid>starburstradius</parameterid>
							<name>Radius</name>
							<valuemin>0</valuemin>
							<valuemax>150</valuemax>
							<value>75</value>
						</parameter>
						<parameter>
							<parameterid>starburststarpoints</parameterid>
							<name>Star Points</name>
							<valuemin>0</valuemin>
							<valuemax>200</valuemax>
							<value>90</value>
						</parameter>
						<parameter>
							<parameterid>starcentre</parameterid>
							<name>Centre Size</name>
							<valuemin>0</valuemin>
							<valuemax>100</valuemax>
							<value>75</value>
						</parameter>
						<parameter>
							<parameterid>starfalloff</parameterid>
							<name>Fall Off</name>
							<valuemin>0</valuemin>
							<valuemax>100</valuemax>
							<value>75</value>
						</parameter>
						<parameter>
							<parameterid>starburstrandom</parameterid>
							<name>Randomness</name>
							<valuemin>0</valuemin>
							<valuemax>4</valuemax>
							<value>0.4</value>
						</parameter>
						<parameter>
							<parameterid>settingsvar4</parameterid>
							<name>   Rainbow</name>
							<value>string</value>
						</parameter>
						<parameter>
							<parameterid>rainbowon</parameterid>
							<name>Rainbow On?</name>
							<value>TRUE</value>
						</parameter>
						<parameter>
							<parameterid>rainbowcolors</parameterid>
							<name>Colour Type</name>
							<valuemin>1</valuemin>
							<valuemax>2</valuemax>
							<valuelist>
								<valueentry>
									<name>Rainbow</name>
									<value>1</value>
								</valueentry>
								<valueentry>
									<name>User Colour</name>
									<value>2</value>
								</valueentry>
							</valuelist>
							<value>1</value>
						</parameter>
						<parameter>
							<parameterid>rainbowusercolor</parameterid>
							<name>User Colour</name>
							<value>
								<alpha>255</alpha>
								<red>230</red>
								<green>110</green>
								<blue>22</blue>
							</value>
						</parameter>
						<parameter>
							<parameterid>rainbowposition</parameterid>
							<name>Position</name>
							<valuemin>-200</valuemin>
							<valuemax>200</valuemax>
							<value>100</value>
						</parameter>
						<parameter>
							<parameterid>rainbowintensity</parameterid>
							<name>Intensity</name>
							<valuemin>0</valuemin>
							<valuemax>100</valuemax>
							<value>20</value>
						</parameter>
						<parameter>
							<parameterid>rainbowradius</parameterid>
							<name>Radius</name>
							<valuemin>0</valuemin>
							<valuemax>200</valuemax>
							<value>50</value>
						</parameter>
						<parameter>
							<parameterid>rainbowthickness</parameterid>
							<name>Thickness</name>
							<valuemin>0</valuemin>
							<valuemax>1</valuemax>
							<value>0.15</value>
						</parameter>
						<parameter>
							<parameterid>rainbowsharpness</parameterid>
							<name>Sharpness</name>
							<valuemin>0</valuemin>
							<valuemax>1</valuemax>
							<value>0.65</value>
						</parameter>
						<parameter>
							<parameterid>settingsvar5</parameterid>
							<name>   Spots</name>
							<value>string</value>
						</parameter>
						<parameter>
							<parameterid>spotson</parameterid>
							<name>Spots On?</name>
							<value>TRUE</value>
						</parameter>
						<parameter>
							<parameterid>spotsnumber</parameterid>
							<name>Number</name>
							<valuemin>0</valuemin>
							<valuemax>100</valuemax>
							<value>12</value>
						</parameter>
						<parameter>
							<parameterid>spotsintensity</parameterid>
							<name>Intensity</name>
							<valuemin>0</valuemin>
							<valuemax>100</valuemax>
							<value>80</value>
						</parameter>
						<parameter>
							<parameterid>spotsradius</parameterid>
							<name>Radius</name>
							<valuemin>0</valuemin>
							<valuemax>150</valuemax>
							<value>30</value>
						</parameter>
						<parameter>
							<parameterid>spotsdisky</parameterid>
							<name>Disky</name>
							<valuemin>0</valuemin>
							<valuemax>100</valuemax>
							<value>75</value>
						</parameter>
						<parameter>
							<parameterid>spotsringy</parameterid>
							<name>Ringy</name>
							<valuemin>0</valuemin>
							<valuemax>100</valuemax>
							<value>75</value>
						</parameter>
						<parameter>
							<parameterid>spotsblotty</parameterid>
							<name>Blotty</name>
							<valuemin>0</valuemin>
							<valuemax>100</valuemax>
							<value>75</value>
						</parameter>
						<parameter>
							<parameterid>spotsbloony</parameterid>
							<name>Bloony</name>
							<valuemin>0</valuemin>
							<valuemax>100</valuemax>
							<value>75</value>
						</parameter>
						<parameter>
							<parameterid>spotsvarycolour</parameterid>
							<name>Vary Colour</name>
							<valuemin>0</valuemin>
							<valuemax>100</valuemax>
							<value>31</value>
						</parameter>
						<parameter>
							<parameterid>spotsbasehue</parameterid>
							<name>Base Hue</name>
							<valuemin>0</valuemin>
							<valuemax>100</valuemax>
							<value>72</value>
						</parameter>
						<parameter>
							<parameterid>spotssaturation</parameterid>
							<name>Saturation</name>
							<valuemin>0</valuemin>
							<valuemax>100</valuemax>
							<value>20</value>
						</parameter>
						<parameter>
							<parameterid>copyright</parameterid>
							<name>©www.nattress.com</name>
							<value>string</value>
						</parameter>
					</effect>
				</transitionitem>
				<clipitem id="00804001.MOV">
					<name>00804001.MOV</name>
					<duration>552</duration>
					<rate>
						<ntsc>FALSE</ntsc>
						<timebase>25</timebase>
					</rate>
					<in>147</in>
					<out>247</out>
					<start>-1</start>
					<end>-1</end>
					<pixelaspectratio>Square</pixelaspectratio>
					<enabled>TRUE</enabled>
					<anamorphic>FALSE</anamorphic>
					<alphatype>none</alphatype>
					<masterclipid>00804001.MOV1</masterclipid>
					<logginginfo>
						<scene/>
						<shottake/>
						<lognote/>
						<good>FALSE</good>
					</logginginfo>
					<labels>
						<label2/>
					</labels>
					<comments>
						<mastercomment1/>
						<mastercomment2/>
						<mastercomment3/>
						<mastercomment4/>
					</comments>
					<file id="00804001 ">
						<name>00804001.MOV</name>
						<pathurl>file://localhost/Volumes/Askepott/Prosjekter/DNPR637010_Kra%CC%8Akeklubben_TEM_011212/Video/MELLOMSTIKK/S01E05%20Dyrebolig/DAG2/00804001.MOV</pathurl>
						<rate>
							<timebase>25</timebase>
						</rate>
						<duration>552</duration>
						<timecode>
							<rate>
								<timebase>25</timebase>
							</rate>
							<string>18:17:29:11</string>
							<frame>1646236</frame>
							<displayformat>NDF</displayformat>
							<source>source</source>
							<reel>
								<name>Flash XDR</name>
							</reel>
						</timecode>
						<media>
							<video>
								<duration>552</duration>
								<samplecharacteristics>
									<width>1920</width>
									<height>1080</height>
								</samplecharacteristics>
							</video>
							<audio>
								<samplecharacteristics>
									<samplerate>48000</samplerate>
									<depth>24</depth>
								</samplecharacteristics>
								<channelcount>1</channelcount>
							</audio>
							<audio>
								<samplecharacteristics>
									<samplerate>48000</samplerate>
									<depth>24</depth>
								</samplecharacteristics>
								<channelcount>1</channelcount>
							</audio>
						</media>
					</file>
					<filter>
						<enabled>TRUE</enabled>
						<start>-1</start>
						<end>-1</end>
						<effect>
							<name>G Simple Curves</name>
							<effectcategory>Nattress Big Box of Tricks - Levels and Curves</effectcategory>
							<effecttype>filter</effecttype>
							<mediatype>video</mediatype>
							<parameter>
								<parameterid>colourspace</parameterid>
								<name>Colour Space</name>
								<valuemin>1</valuemin>
								<valuemax>2</valuemax>
								<valuelist>
									<valueentry>
										<name>RGB</name>
										<value>1</value>
									</valueentry>
									<valueentry>
										<name>Y'CbCr</name>
										<value>2</value>
									</valueentry>
								</valuelist>
								<value>1</value>
							</parameter>
							<parameter>
								<parameterid>showcurves</parameterid>
								<name>Show Curves</name>
								<value>FALSE</value>
							</parameter>
							<parameter>
								<parameterid>lvar</parameterid>
								<name>Levels Controls</name>
								<value>string</value>
							</parameter>
							<parameter>
								<parameterid>inw</parameterid>
								<name>White Level</name>
								<valuemin>0</valuemin>
								<valuemax>255</valuemax>
								<value>255</value>
							</parameter>
							<parameter>
								<parameterid>inb</parameterid>
								<name>Black Level</name>
								<valuemin>0</valuemin>
								<valuemax>255</valuemax>
								<value>0</value>
							</parameter>
							<parameter>
								<parameterid>outw</parameterid>
								<name>White Output</name>
								<valuemin>0</valuemin>
								<valuemax>255</valuemax>
								<value>255</value>
							</parameter>
							<parameter>
								<parameterid>outb</parameterid>
								<name>Black Output</name>
								<valuemin>0</valuemin>
								<valuemax>255</valuemax>
								<value>0</value>
							</parameter>
							<parameter>
								<parameterid>cvar</parameterid>
								<name>Curves Controls</name>
								<value>string</value>
							</parameter>
							<parameter>
								<parameterid>curvew</parameterid>
								<name>White Curve</name>
								<valuemin>-100</valuemin>
								<valuemax>100</valuemax>
								<value>-13</value>
							</parameter>
							<parameter>
								<parameterid>curveb</parameterid>
								<name>Black Curve</name>
								<valuemin>-100</valuemin>
								<valuemax>100</valuemax>
								<value>0</value>
							</parameter>
							<parameter>
								<parameterid>clipoutput</parameterid>
								<name>Clip Output Levels</name>
								<value>TRUE</value>
							</parameter>
							<parameter>
								<parameterid>copyright</parameterid>
								<name>© www.nattress.com</name>
								<value>string</value>
							</parameter>
						</effect>
					</filter>
					<filter>
						<enabled>TRUE</enabled>
						<start>-1</start>
						<end>-1</end>
						<effect>
							<name>Color Corrector - Lua til Carina</name>
							<effectid>Color Corrector</effectid>
							<effectcategory>Color Correction</effectcategory>
							<effecttype>filter</effecttype>
							<mediatype>video</mediatype>
							<parameter>
								<parameterid>dispmode</parameterid>
								<name>Display Mode</name>
								<valuemin>1</valuemin>
								<valuemax>3</valuemax>
								<valuelist>
									<valueentry>
										<name>Final</name>
										<value>1</value>
									</valueentry>
									<valueentry>
										<name>Matte</name>
										<value>2</value>
									</valueentry>
									<valueentry>
										<name>Source</name>
										<value>3</value>
									</valueentry>
								</valuelist>
								<value>1</value>
							</parameter>
							<parameter>
								<parameterid>label1</parameterid>
								<name>Level Controls</name>
								<value/>
							</parameter>
							<parameter>
								<parameterid>highlights</parameterid>
								<name>Highlights</name>
								<valuemin>64</valuemin>
								<valuemax>509</valuemax>
								<value>247</value>
							</parameter>
							<parameter>
								<parameterid>mids</parameterid>
								<name>Mids</name>
								<valuemin>0</valuemin>
								<valuemax>200</valuemax>
								<value>100</value>
							</parameter>
							<parameter>
								<parameterid>blacklevel</parameterid>
								<name>Blacks</name>
								<valuemin>-196</valuemin>
								<valuemax>254</valuemax>
								<value>-3</value>
							</parameter>
							<parameter>
								<parameterid>label2</parameterid>
								<name>Color Balance</name>
								<value/>
							</parameter>
							<parameter>
								<parameterid>hue</parameterid>
								<name>Angle</name>
								<valuemin>-180</valuemin>
								<valuemax>180</valuemax>
								<value>-33</value>
							</parameter>
							<parameter>
								<parameterid>mag</parameterid>
								<name>Magnitude</name>
								<valuemin>0</valuemin>
								<valuemax>200</valuemax>
								<value>0</value>
							</parameter>
							<parameter>
								<parameterid>label4</parameterid>
								<name>Color Controls</name>
								<value/>
							</parameter>
							<parameter>
								<parameterid>chroma</parameterid>
								<name>Saturation</name>
								<valuemin>0</valuemin>
								<valuemax>200</valuemax>
								<value>84</value>
							</parameter>
							<parameter>
								<parameterid>phase</parameterid>
								<name>Phase shift</name>
								<valuemin>-180</valuemin>
								<valuemax>180</valuemax>
								<value>0</value>
							</parameter>
							<parameter>
								<parameterid>label5</parameterid>
								<name>Limit Effect Controls</name>
								<value/>
							</parameter>
							<parameter>
								<parameterid>dochroma</parameterid>
								<name>Limit on Chroma</name>
								<value>TRUE</value>
							</parameter>
							<parameter>
								<parameterid>centerang</parameterid>
								<name>Chroma Center</name>
								<valuemin>-760</valuemin>
								<valuemax>760</valuemax>
								<value>322.256</value>
							</parameter>
							<parameter>
								<parameterid>chromawidth</parameterid>
								<name>Chroma Width</name>
								<valuemin>0</valuemin>
								<valuemax>360</valuemax>
								<value>7.49567</value>
							</parameter>
							<parameter>
								<parameterid>chromasoft</parameterid>
								<name>Chroma Softness</name>
								<valuemin>0</valuemin>
								<valuemax>180</valuemax>
								<value>10.6152</value>
							</parameter>
							<parameter>
								<parameterid>dosat</parameterid>
								<name>Limit on Saturation</name>
								<value>TRUE</value>
							</parameter>
							<parameter>
								<parameterid>satmin</parameterid>
								<name>Sat. Minimum</name>
								<valuemin>0</valuemin>
								<valuemax>125</valuemax>
								<value>36.7837</value>
							</parameter>
							<parameter>
								<parameterid>satwidth</parameterid>
								<name>Sat. Width</name>
								<valuemin>0</valuemin>
								<valuemax>125</valuemax>
								<value>84.0889</value>
							</parameter>
							<parameter>
								<parameterid>satsoft</parameterid>
								<name>Sat. Softness</name>
								<valuemin>0</valuemin>
								<valuemax>125</valuemax>
								<value>5</value>
							</parameter>
							<parameter>
								<parameterid>doluma</parameterid>
								<name>Limit on Luma</name>
								<value>TRUE</value>
							</parameter>
							<parameter>
								<parameterid>lumamin</parameterid>
								<name>Luma Minimum</name>
								<valuemin>0</valuemin>
								<valuemax>120</valuemax>
								<value>0.939667</value>
							</parameter>
							<parameter>
								<parameterid>lumawidth</parameterid>
								<name>Luma Width</name>
								<valuemin>0</valuemin>
								<valuemax>120</valuemax>
								<value>115.45</value>
							</parameter>
							<parameter>
								<parameterid>lumasoft</parameterid>
								<name>Luma Softness</name>
								<valuemin>0</valuemin>
								<valuemax>120</valuemax>
								<value>15.1099</value>
							</parameter>
							<parameter>
								<parameterid>label6</parameterid>
								<name>Edge Control</name>
								<value/>
							</parameter>
							<parameter>
								<parameterid>edgethin</parameterid>
								<name>Thin/Spread</name>
								<valuemin>-100</valuemin>
								<valuemax>100</valuemax>
								<value>0</value>
							</parameter>
							<parameter>
								<parameterid>edgefeather</parameterid>
								<name>Softening</name>
								<valuemin>0</valuemin>
								<valuemax>100</valuemax>
								<value>0</value>
							</parameter>
							<parameter>
								<parameterid>label7</parameterid>
								<name>Mask Control</name>
								<value/>
							</parameter>
							<parameter>
								<parameterid>invertsel</parameterid>
								<name>Invert</name>
								<value>FALSE</value>
							</parameter>
							<parameter>
								<parameterid>debugshow</parameterid>
								<name>Show Stats</name>
								<value>FALSE</value>
							</parameter>
						</effect>
					</filter>
					<filter>
						<effect>
							<name>Basic Motion</name>
							<effectid>basic</effectid>
							<effectcategory>motion</effectcategory>
							<effecttype>motion</effecttype>
							<mediatype>video</mediatype>
							<parameter>
								<parameterid>scale</parameterid>
								<name>Scale</name>
								<valuemin>0</valuemin>
								<valuemax>1000</valuemax>
								<value>108</value>
							</parameter>
							<parameter>
								<parameterid>rotation</parameterid>
								<name>Rotation</name>
								<valuemin>-8640</valuemin>
								<valuemax>8640</valuemax>
								<value>0</value>
							</parameter>
							<parameter>
								<parameterid>center</parameterid>
								<name>Center</name>
								<value>
									<horiz>-0.037851</horiz>
									<vert>0.0281996</vert>
								</value>
							</parameter>
							<parameter>
								<parameterid>centerOffset</parameterid>
								<name>Anchor Point</name>
								<value>
									<horiz>0</horiz>
									<vert>0</vert>
								</value>
							</parameter>
						</effect>
					</filter>
					<filter>
						<enabled>FALSE</enabled>
						<effect>
							<name>Drop Shadow</name>
							<effectid>dropshadow</effectid>
							<effectcategory>motion</effectcategory>
							<effecttype>motion</effecttype>
							<mediatype>video</mediatype>
							<parameter>
								<parameterid>offset</parameterid>
								<name>offset</name>
								<valuemin>-100</valuemin>
								<valuemax>100</valuemax>
								<value>2</value>
							</parameter>
							<parameter>
								<parameterid>angle</parameterid>
								<name>angle</name>
								<valuemin>-720</valuemin>
								<valuemax>720</valuemax>
								<value>135</value>
							</parameter>
							<parameter>
								<parameterid>color</parameterid>
								<name>color</name>
								<value>
									<alpha>0</alpha>
									<red>0</red>
									<green>0</green>
									<blue>0</blue>
								</value>
							</parameter>
							<parameter>
								<parameterid>softness</parameterid>
								<name>softness</name>
								<valuemin>0</valuemin>
								<valuemax>100</valuemax>
								<value>10</value>
							</parameter>
							<parameter>
								<parameterid>opacity</parameterid>
								<name>opacity</name>
								<valuemin>0</valuemin>
								<valuemax>100</valuemax>
								<value>50</value>
							</parameter>
						</effect>
					</filter>
					<filter>
						<enabled>FALSE</enabled>
						<effect>
							<name>Motion Blur</name>
							<effectid>motionblur</effectid>
							<effectcategory>motion</effectcategory>
							<effecttype>motion</effecttype>
							<mediatype>video</mediatype>
							<parameter>
								<parameterid>duration</parameterid>
								<name>% Blur</name>
								<valuemin>0</valuemin>
								<valuemax>1000</valuemax>
								<value>500</value>
							</parameter>
							<parameter>
								<parameterid>samples</parameterid>
								<name>Samples</name>
								<valuemin>1</valuemin>
								<valuemax>16</valuemax>
								<value>4</value>
							</parameter>
						</effect>
					</filter>
					<filter>
						<effect>
							<name>Crop</name>
							<effectid>crop</effectid>
							<effectcategory>motion</effectcategory>
							<effecttype>motion</effecttype>
							<mediatype>video</mediatype>
							<parameter>
								<parameterid>left</parameterid>
								<name>left</name>
								<valuemin>0</valuemin>
								<valuemax>100</valuemax>
								<value>0</value>
							</parameter>
							<parameter>
								<parameterid>right</parameterid>
								<name>right</name>
								<valuemin>0</valuemin>
								<valuemax>100</valuemax>
								<value>0</value>
							</parameter>
							<parameter>
								<parameterid>top</parameterid>
								<name>top</name>
								<valuemin>0</valuemin>
								<valuemax>100</valuemax>
								<value>0</value>
							</parameter>
							<parameter>
								<parameterid>bottom</parameterid>
								<name>bottom</name>
								<valuemin>0</valuemin>
								<valuemax>100</valuemax>
								<value>0</value>
							</parameter>
							<parameter>
								<parameterid>edgefeather</parameterid>
								<name>edgefeather</name>
								<valuemin>0</valuemin>
								<valuemax>100</valuemax>
								<value>0</value>
							</parameter>
						</effect>
					</filter>
					<filter>
						<effect>
							<name>Distort</name>
							<effectid>deformation</effectid>
							<effectcategory>motion</effectcategory>
							<effecttype>motion</effecttype>
							<mediatype>video</mediatype>
							<parameter>
								<parameterid>ulcorner</parameterid>
								<name>Upper Left</name>
								<value>
									<horiz>-0.5</horiz>
									<vert>-0.5</vert>
								</value>
							</parameter>
							<parameter>
								<parameterid>urcorner</parameterid>
								<name>Upper Right</name>
								<value>
									<horiz>0.5</horiz>
									<vert>-0.5</vert>
								</value>
							</parameter>
							<parameter>
								<parameterid>lrcorner</parameterid>
								<name>Lower Right</name>
								<value>
									<horiz>0.5</horiz>
									<vert>0.5</vert>
								</value>
							</parameter>
							<parameter>
								<parameterid>llcorner</parameterid>
								<name>Lower Left</name>
								<value>
									<horiz>-0.5</horiz>
									<vert>0.5</vert>
								</value>
							</parameter>
							<parameter>
								<parameterid>aspect</parameterid>
								<name>Aspect</name>
								<valuemin>-10000</valuemin>
								<valuemax>10000</valuemax>
								<value>0</value>
							</parameter>
						</effect>
					</filter>
					<filter>
						<effect>
							<name>Opacity</name>
							<effectid>opacity</effectid>
							<effectcategory>motion</effectcategory>
							<effecttype>motion</effecttype>
							<mediatype>video</mediatype>
							<parameter>
								<parameterid>opacity</parameterid>
								<name>opacity</name>
								<valuemin>0</valuemin>
								<valuemax>100</valuemax>
								<value>100</value>
							</parameter>
						</effect>
					</filter>
					<sourcetrack>
						<mediatype>video</mediatype>
					</sourcetrack>
					<link>
						<linkclipref>00804001.MOV</linkclipref>
						<mediatype>video</mediatype>
						<trackindex>1</trackindex>
						<clipindex>229</clipindex>
					</link>
					<link>
						<linkclipref>00804001.MOV2</linkclipref>
						<mediatype>audio</mediatype>
						<trackindex>1</trackindex>
						<clipindex>189</clipindex>
					</link>
					<link>
						<linkclipref>00804001.MOV3</linkclipref>
						<mediatype>audio</mediatype>
						<trackindex>2</trackindex>
						<clipindex>189</clipindex>
					</link>
					<fielddominance>upper</fielddominance>
					<itemhistory>
						<uuid>03FBD0C4-3856-4BC0-B5C7-AB8176E5E213</uuid>
					</itemhistory>
				</clipitem>
				<transitionitem>
					<rate>
						<ntsc>FALSE</ntsc>
						<timebase>25</timebase>
					</rate>
					<start>27765</start>
					<end>27790</end>
					<alignment>center</alignment>
					<effect>
						<name>Cross Dissolve</name>
						<effectid>Cross Dissolve</effectid>
						<effectcategory>Dissolve</effectcategory>
						<effecttype>transition</effecttype>
						<mediatype>video</mediatype>
						<wipecode>0</wipecode>
						<wipeaccuracy>100</wipeaccuracy>
						<startratio>0</startratio>
						<endratio>1</endratio>
						<reverse>FALSE</reverse>
					</effect>
				</transitionitem>
				<clipitem id="00804001.MOV4">
					<name>00804001.MOV</name>
					<duration>552</duration>
					<rate>
						<ntsc>FALSE</ntsc>
						<timebase>25</timebase>
					</rate>
					<in>222</in>
					<out>306</out>
					<start>-1</start>
					<end>-1</end>
					<pixelaspectratio>Square</pixelaspectratio>
					<enabled>TRUE</enabled>
					<anamorphic>FALSE</anamorphic>
					<alphatype>none</alphatype>
					<masterclipid>00804001.MOV1</masterclipid>
					<logginginfo>
						<scene/>
						<shottake/>
						<lognote/>
						<good>FALSE</good>
					</logginginfo>
					<labels>
						<label2/>
					</labels>
					<comments>
						<mastercomment1/>
						<mastercomment2/>
						<mastercomment3/>
						<mastercomment4/>
					</comments>
					<file id="00804001 "/>
					<filter>
						<enabled>TRUE</enabled>
						<start>-1</start>
						<end>-1</end>
						<effect>
							<name>G Simple Curves</name>
							<effectcategory>Nattress Big Box of Tricks - Levels and Curves</effectcategory>
							<effecttype>filter</effecttype>
							<mediatype>video</mediatype>
							<parameter>
								<parameterid>colourspace</parameterid>
								<name>Colour Space</name>
								<valuemin>1</valuemin>
								<valuemax>2</valuemax>
								<valuelist>
									<valueentry>
										<name>RGB</name>
										<value>1</value>
									</valueentry>
									<valueentry>
										<name>Y'CbCr</name>
										<value>2</value>
									</valueentry>
								</valuelist>
								<value>1</value>
							</parameter>
							<parameter>
								<parameterid>showcurves</parameterid>
								<name>Show Curves</name>
								<value>FALSE</value>
							</parameter>
							<parameter>
								<parameterid>lvar</parameterid>
								<name>Levels Controls</name>
								<value>string</value>
							</parameter>
							<parameter>
								<parameterid>inw</parameterid>
								<name>White Level</name>
								<valuemin>0</valuemin>
								<valuemax>255</valuemax>
								<value>255</value>
							</parameter>
							<parameter>
								<parameterid>inb</parameterid>
								<name>Black Level</name>
								<valuemin>0</valuemin>
								<valuemax>255</valuemax>
								<value>0</value>
							</parameter>
							<parameter>
								<parameterid>outw</parameterid>
								<name>White Output</name>
								<valuemin>0</valuemin>
								<valuemax>255</valuemax>
								<value>255</value>
							</parameter>
							<parameter>
								<parameterid>outb</parameterid>
								<name>Black Output</name>
								<valuemin>0</valuemin>
								<valuemax>255</valuemax>
								<value>0</value>
							</parameter>
							<parameter>
								<parameterid>cvar</parameterid>
								<name>Curves Controls</name>
								<value>string</value>
							</parameter>
							<parameter>
								<parameterid>curvew</parameterid>
								<name>White Curve</name>
								<valuemin>-100</valuemin>
								<valuemax>100</valuemax>
								<value>-21</value>
							</parameter>
							<parameter>
								<parameterid>curveb</parameterid>
								<name>Black Curve</name>
								<valuemin>-100</valuemin>
								<valuemax>100</valuemax>
								<value>0</value>
							</parameter>
							<parameter>
								<parameterid>clipoutput</parameterid>
								<name>Clip Output Levels</name>
								<value>TRUE</value>
							</parameter>
							<parameter>
								<parameterid>copyright</parameterid>
								<name>© www.nattress.com</name>
								<value>string</value>
							</parameter>
						</effect>
					</filter>
					<filter>
						<enabled>TRUE</enabled>
						<start>-1</start>
						<end>-1</end>
						<effect>
							<name>Color Corrector - Lua til Carina</name>
							<effectid>Color Corrector</effectid>
							<effectcategory>Color Correction</effectcategory>
							<effecttype>filter</effecttype>
							<mediatype>video</mediatype>
							<parameter>
								<parameterid>dispmode</parameterid>
								<name>Display Mode</name>
								<valuemin>1</valuemin>
								<valuemax>3</valuemax>
								<valuelist>
									<valueentry>
										<name>Final</name>
										<value>1</value>
									</valueentry>
									<valueentry>
										<name>Matte</name>
										<value>2</value>
									</valueentry>
									<valueentry>
										<name>Source</name>
										<value>3</value>
									</valueentry>
								</valuelist>
								<value>1</value>
							</parameter>
							<parameter>
								<parameterid>label1</parameterid>
								<name>Level Controls</name>
								<value/>
							</parameter>
							<parameter>
								<parameterid>highlights</parameterid>
								<name>Highlights</name>
								<valuemin>64</valuemin>
								<valuemax>509</valuemax>
								<value>247</value>
							</parameter>
							<parameter>
								<parameterid>mids</parameterid>
								<name>Mids</name>
								<valuemin>0</valuemin>
								<valuemax>200</valuemax>
								<value>100</value>
							</parameter>
							<parameter>
								<parameterid>blacklevel</parameterid>
								<name>Blacks</name>
								<valuemin>-196</valuemin>
								<valuemax>254</valuemax>
								<value>-3</value>
							</parameter>
							<parameter>
								<parameterid>label2</parameterid>
								<name>Color Balance</name>
								<value/>
							</parameter>
							<parameter>
								<parameterid>hue</parameterid>
								<name>Angle</name>
								<valuemin>-180</valuemin>
								<valuemax>180</valuemax>
								<value>-33</value>
							</parameter>
							<parameter>
								<parameterid>mag</parameterid>
								<name>Magnitude</name>
								<valuemin>0</valuemin>
								<valuemax>200</valuemax>
								<value>0</value>
							</parameter>
							<parameter>
								<parameterid>label4</parameterid>
								<name>Color Controls</name>
								<value/>
							</parameter>
							<parameter>
								<parameterid>chroma</parameterid>
								<name>Saturation</name>
								<valuemin>0</valuemin>
								<valuemax>200</valuemax>
								<value>84</value>
							</parameter>
							<parameter>
								<parameterid>phase</parameterid>
								<name>Phase shift</name>
								<valuemin>-180</valuemin>
								<valuemax>180</valuemax>
								<value>0</value>
							</parameter>
							<parameter>
								<parameterid>label5</parameterid>
								<name>Limit Effect Controls</name>
								<value/>
							</parameter>
							<parameter>
								<parameterid>dochroma</parameterid>
								<name>Limit on Chroma</name>
								<value>TRUE</value>
							</parameter>
							<parameter>
								<parameterid>centerang</parameterid>
								<name>Chroma Center</name>
								<valuemin>-760</valuemin>
								<valuemax>760</valuemax>
								<value>322.256</value>
							</parameter>
							<parameter>
								<parameterid>chromawidth</parameterid>
								<name>Chroma Width</name>
								<valuemin>0</valuemin>
								<valuemax>360</valuemax>
								<value>7.49567</value>
							</parameter>
							<parameter>
								<parameterid>chromasoft</parameterid>
								<name>Chroma Softness</name>
								<valuemin>0</valuemin>
								<valuemax>180</valuemax>
								<value>10.6152</value>
							</parameter>
							<parameter>
								<parameterid>dosat</parameterid>
								<name>Limit on Saturation</name>
								<value>TRUE</value>
							</parameter>
							<parameter>
								<parameterid>satmin</parameterid>
								<name>Sat. Minimum</name>
								<valuemin>0</valuemin>
								<valuemax>125</valuemax>
								<value>36.7837</value>
							</parameter>
							<parameter>
								<parameterid>satwidth</parameterid>
								<name>Sat. Width</name>
								<valuemin>0</valuemin>
								<valuemax>125</valuemax>
								<value>84.0889</value>
							</parameter>
							<parameter>
								<parameterid>satsoft</parameterid>
								<name>Sat. Softness</name>
								<valuemin>0</valuemin>
								<valuemax>125</valuemax>
								<value>5</value>
							</parameter>
							<parameter>
								<parameterid>doluma</parameterid>
								<name>Limit on Luma</name>
								<value>TRUE</value>
							</parameter>
							<parameter>
								<parameterid>lumamin</parameterid>
								<name>Luma Minimum</name>
								<valuemin>0</valuemin>
								<valuemax>120</valuemax>
								<value>0.939667</value>
							</parameter>
							<parameter>
								<parameterid>lumawidth</parameterid>
								<name>Luma Width</name>
								<valuemin>0</valuemin>
								<valuemax>120</valuemax>
								<value>115.45</value>
							</parameter>
							<parameter>
								<parameterid>lumasoft</parameterid>
								<name>Luma Softness</name>
								<valuemin>0</valuemin>
								<valuemax>120</valuemax>
								<value>15.1099</value>
							</parameter>
							<parameter>
								<parameterid>label6</parameterid>
								<name>Edge Control</name>
								<value/>
							</parameter>
							<parameter>
								<parameterid>edgethin</parameterid>
								<name>Thin/Spread</name>
								<valuemin>-100</valuemin>
								<valuemax>100</valuemax>
								<value>0</value>
							</parameter>
							<parameter>
								<parameterid>edgefeather</parameterid>
								<name>Softening</name>
								<valuemin>0</valuemin>
								<valuemax>100</valuemax>
								<value>0</value>
							</parameter>
							<parameter>
								<parameterid>label7</parameterid>
								<name>Mask Control</name>
								<value/>
							</parameter>
							<parameter>
								<parameterid>invertsel</parameterid>
								<name>Invert</name>
								<value>FALSE</value>
							</parameter>
							<parameter>
								<parameterid>debugshow</parameterid>
								<name>Show Stats</name>
								<value>FALSE</value>
							</parameter>
						</effect>
					</filter>
					<filter>
						<effect>
							<name>Basic Motion</name>
							<effectid>basic</effectid>
							<effectcategory>motion</effectcategory>
							<effecttype>motion</effecttype>
							<mediatype>video</mediatype>
							<parameter>
								<parameterid>scale</parameterid>
								<name>Scale</name>
								<valuemin>0</valuemin>
								<valuemax>1000</valuemax>
								<value>108</value>
							</parameter>
							<parameter>
								<parameterid>rotation</parameterid>
								<name>Rotation</name>
								<valuemin>-8640</valuemin>
								<valuemax>8640</valuemax>
								<value>0</value>
							</parameter>
							<parameter>
								<parameterid>center</parameterid>
								<name>Center</name>
								<value>
									<horiz>-0.037851</horiz>
									<vert>0.0281996</vert>
								</value>
							</parameter>
							<parameter>
								<parameterid>centerOffset</parameterid>
								<name>Anchor Point</name>
								<value>
									<horiz>0</horiz>
									<vert>0</vert>
								</value>
							</parameter>
						</effect>
					</filter>
					<filter>
						<enabled>FALSE</enabled>
						<effect>
							<name>Drop Shadow</name>
							<effectid>dropshadow</effectid>
							<effectcategory>motion</effectcategory>
							<effecttype>motion</effecttype>
							<mediatype>video</mediatype>
							<parameter>
								<parameterid>offset</parameterid>
								<name>offset</name>
								<valuemin>-100</valuemin>
								<valuemax>100</valuemax>
								<value>2</value>
							</parameter>
							<parameter>
								<parameterid>angle</parameterid>
								<name>angle</name>
								<valuemin>-720</valuemin>
								<valuemax>720</valuemax>
								<value>135</value>
							</parameter>
							<parameter>
								<parameterid>color</parameterid>
								<name>color</name>
								<value>
									<alpha>0</alpha>
									<red>0</red>
									<green>0</green>
									<blue>0</blue>
								</value>
							</parameter>
							<parameter>
								<parameterid>softness</parameterid>
								<name>softness</name>
								<valuemin>0</valuemin>
								<valuemax>100</valuemax>
								<value>10</value>
							</parameter>
							<parameter>
								<parameterid>opacity</parameterid>
								<name>opacity</name>
								<valuemin>0</valuemin>
								<valuemax>100</valuemax>
								<value>50</value>
							</parameter>
						</effect>
					</filter>
					<filter>
						<enabled>FALSE</enabled>
						<effect>
							<name>Motion Blur</name>
							<effectid>motionblur</effectid>
							<effectcategory>motion</effectcategory>
							<effecttype>motion</effecttype>
							<mediatype>video</mediatype>
							<parameter>
								<parameterid>duration</parameterid>
								<name>% Blur</name>
								<valuemin>0</valuemin>
								<valuemax>1000</valuemax>
								<value>500</value>
							</parameter>
							<parameter>
								<parameterid>samples</parameterid>
								<name>Samples</name>
								<valuemin>1</valuemin>
								<valuemax>16</valuemax>
								<value>4</value>
							</parameter>
						</effect>
					</filter>
					<filter>
						<effect>
							<name>Crop</name>
							<effectid>crop</effectid>
							<effectcategory>motion</effectcategory>
							<effecttype>motion</effecttype>
							<mediatype>video</mediatype>
							<parameter>
								<parameterid>left</parameterid>
								<name>left</name>
								<valuemin>0</valuemin>
								<valuemax>100</valuemax>
								<value>0</value>
							</parameter>
							<parameter>
								<parameterid>right</parameterid>
								<name>right</name>
								<valuemin>0</valuemin>
								<valuemax>100</valuemax>
								<value>0</value>
							</parameter>
							<parameter>
								<parameterid>top</parameterid>
								<name>top</name>
								<valuemin>0</valuemin>
								<valuemax>100</valuemax>
								<value>0</value>
							</parameter>
							<parameter>
								<parameterid>bottom</parameterid>
								<name>bottom</name>
								<valuemin>0</valuemin>
								<valuemax>100</valuemax>
								<value>0</value>
							</parameter>
							<parameter>
								<parameterid>edgefeather</parameterid>
								<name>edgefeather</name>
								<valuemin>0</valuemin>
								<valuemax>100</valuemax>
								<value>0</value>
							</parameter>
						</effect>
					</filter>
					<filter>
						<effect>
							<name>Distort</name>
							<effectid>deformation</effectid>
							<effectcategory>motion</effectcategory>
							<effecttype>motion</effecttype>
							<mediatype>video</mediatype>
							<parameter>
								<parameterid>ulcorner</parameterid>
								<name>Upper Left</name>
								<value>
									<horiz>-0.5</horiz>
									<vert>-0.5</vert>
								</value>
							</parameter>
							<parameter>
								<parameterid>urcorner</parameterid>
								<name>Upper Right</name>
								<value>
									<horiz>0.5</horiz>
									<vert>-0.5</vert>
								</value>
							</parameter>
							<parameter>
								<parameterid>lrcorner</parameterid>
								<name>Lower Right</name>
								<value>
									<horiz>0.5</horiz>
									<vert>0.5</vert>
								</value>
							</parameter>
							<parameter>
								<parameterid>llcorner</parameterid>
								<name>Lower Left</name>
								<value>
									<horiz>-0.5</horiz>
									<vert>0.5</vert>
								</value>
							</parameter>
							<parameter>
								<parameterid>aspect</parameterid>
								<name>Aspect</name>
								<valuemin>-10000</valuemin>
								<valuemax>10000</valuemax>
								<value>0</value>
							</parameter>
						</effect>
					</filter>
					<filter>
						<effect>
							<name>Opacity</name>
							<effectid>opacity</effectid>
							<effectcategory>motion</effectcategory>
							<effecttype>motion</effecttype>
							<mediatype>video</mediatype>
							<parameter>
								<parameterid>opacity</parameterid>
								<name>opacity</name>
								<valuemin>0</valuemin>
								<valuemax>100</valuemax>
								<value>100</value>
							</parameter>
						</effect>
					</filter>
					<sourcetrack>
						<mediatype>video</mediatype>
					</sourcetrack>
					<link>
						<linkclipref>00804001.MOV4</linkclipref>
						<mediatype>video</mediatype>
						<trackindex>1</trackindex>
						<clipindex>231</clipindex>
					</link>
					<link>
						<linkclipref>00804001.MOV5</linkclipref>
						<mediatype>audio</mediatype>
						<trackindex>1</trackindex>
						<clipindex>190</clipindex>
					</link>
					<link>
						<linkclipref>00804001.MOV6</linkclipref>
						<mediatype>audio</mediatype>
						<trackindex>2</trackindex>
						<clipindex>190</clipindex>
					</link>
					<fielddominance>upper</fielddominance>
					<itemhistory>
						<uuid>F554D790-E6BF-4182-AC27-F8BFEFA93CE7</uuid>
					</itemhistory>
				</clipitem>
				<transitionitem>
					<rate>
						<ntsc>FALSE</ntsc>
						<timebase>25</timebase>
					</rate>
					<start>27808</start>
					<end>27849</end>
					<alignment>center</alignment>
					<effect>
						<name>Cross Dissolve</name>
						<effectid>Cross Dissolve</effectid>
						<effectcategory>Dissolve</effectcategory>
						<effecttype>transition</effecttype>
						<mediatype>video</mediatype>
						<wipecode>0</wipecode>
						<wipeaccuracy>100</wipeaccuracy>
						<startratio>0</startratio>
						<endratio>1</endratio>
						<reverse>FALSE</reverse>
					</effect>
				</transitionitem>
				<clipitem id="00804001.MOV7">
					<name>00804001.MOV</name>
					<duration>552</duration>
					<rate>
						<ntsc>FALSE</ntsc>
						<timebase>25</timebase>
					</rate>
					<in>265</in>
					<out>426</out>
					<start>-1</start>
					<end>27969</end>
					<pixelaspectratio>Square</pixelaspectratio>
					<enabled>TRUE</enabled>
					<anamorphic>FALSE</anamorphic>
					<alphatype>none</alphatype>
					<masterclipid>00804001.MOV1</masterclipid>
					<logginginfo>
						<scene/>
						<shottake/>
						<lognote/>
						<good>FALSE</good>
					</logginginfo>
					<labels>
						<label2/>
					</labels>
					<comments>
						<mastercomment1/>
						<mastercomment2/>
						<mastercomment3/>
						<mastercomment4/>
					</comments>
					<file id="00804001 "/>
					<filter>
						<start>-1</start>
						<end>-1</end>
						<effect>
							<name>Color Corrector - Lua til Carina</name>
							<effectid>Color Corrector</effectid>
							<effectcategory>Color Correction</effectcategory>
							<effecttype>filter</effecttype>
							<mediatype>video</mediatype>
							<parameter>
								<parameterid>dispmode</parameterid>
								<name>Display Mode</name>
								<valuemin>1</valuemin>
								<valuemax>3</valuemax>
								<valuelist>
									<valueentry>
										<name>Final</name>
										<value>1</value>
									</valueentry>
									<valueentry>
										<name>Matte</name>
										<value>2</value>
									</valueentry>
									<valueentry>
										<name>Source</name>
										<value>3</value>
									</valueentry>
								</valuelist>
								<value>1</value>
							</parameter>
							<parameter>
								<parameterid>label1</parameterid>
								<name>Level Controls</name>
								<value/>
							</parameter>
							<parameter>
								<parameterid>highlights</parameterid>
								<name>Highlights</name>
								<valuemin>64</valuemin>
								<valuemax>509</valuemax>
								<value>247</value>
							</parameter>
							<parameter>
								<parameterid>mids</parameterid>
								<name>Mids</name>
								<valuemin>0</valuemin>
								<valuemax>200</valuemax>
								<value>100</value>
							</parameter>
							<parameter>
								<parameterid>blacklevel</parameterid>
								<name>Blacks</name>
								<valuemin>-196</valuemin>
								<valuemax>254</valuemax>
								<value>-3</value>
							</parameter>
							<parameter>
								<parameterid>label2</parameterid>
								<name>Color Balance</name>
								<value/>
							</parameter>
							<parameter>
								<parameterid>hue</parameterid>
								<name>Angle</name>
								<valuemin>-180</valuemin>
								<valuemax>180</valuemax>
								<value>-33</value>
							</parameter>
							<parameter>
								<parameterid>mag</parameterid>
								<name>Magnitude</name>
								<valuemin>0</valuemin>
								<valuemax>200</valuemax>
								<value>0</value>
							</parameter>
							<parameter>
								<parameterid>label4</parameterid>
								<name>Color Controls</name>
								<value/>
							</parameter>
							<parameter>
								<parameterid>chroma</parameterid>
								<name>Saturation</name>
								<valuemin>0</valuemin>
								<valuemax>200</valuemax>
								<value>84</value>
							</parameter>
							<parameter>
								<parameterid>phase</parameterid>
								<name>Phase shift</name>
								<valuemin>-180</valuemin>
								<valuemax>180</valuemax>
								<value>0</value>
							</parameter>
							<parameter>
								<parameterid>label5</parameterid>
								<name>Limit Effect Controls</name>
								<value/>
							</parameter>
							<parameter>
								<parameterid>dochroma</parameterid>
								<name>Limit on Chroma</name>
								<value>TRUE</value>
							</parameter>
							<parameter>
								<parameterid>centerang</parameterid>
								<name>Chroma Center</name>
								<valuemin>-760</valuemin>
								<valuemax>760</valuemax>
								<value>322.256</value>
							</parameter>
							<parameter>
								<parameterid>chromawidth</parameterid>
								<name>Chroma Width</name>
								<valuemin>0</valuemin>
								<valuemax>360</valuemax>
								<value>7.49567</value>
							</parameter>
							<parameter>
								<parameterid>chromasoft</parameterid>
								<name>Chroma Softness</name>
								<valuemin>0</valuemin>
								<valuemax>180</valuemax>
								<value>10.6152</value>
							</parameter>
							<parameter>
								<parameterid>dosat</parameterid>
								<name>Limit on Saturation</name>
								<value>TRUE</value>
							</parameter>
							<parameter>
								<parameterid>satmin</parameterid>
								<name>Sat. Minimum</name>
								<valuemin>0</valuemin>
								<valuemax>125</valuemax>
								<value>36.7837</value>
							</parameter>
							<parameter>
								<parameterid>satwidth</parameterid>
								<name>Sat. Width</name>
								<valuemin>0</valuemin>
								<valuemax>125</valuemax>
								<value>84.0889</value>
							</parameter>
							<parameter>
								<parameterid>satsoft</parameterid>
								<name>Sat. Softness</name>
								<valuemin>0</valuemin>
								<valuemax>125</valuemax>
								<value>5</value>
							</parameter>
							<parameter>
								<parameterid>doluma</parameterid>
								<name>Limit on Luma</name>
								<value>TRUE</value>
							</parameter>
							<parameter>
								<parameterid>lumamin</parameterid>
								<name>Luma Minimum</name>
								<valuemin>0</valuemin>
								<valuemax>120</valuemax>
								<value>0.939667</value>
							</parameter>
							<parameter>
								<parameterid>lumawidth</parameterid>
								<name>Luma Width</name>
								<valuemin>0</valuemin>
								<valuemax>120</valuemax>
								<value>115.45</value>
							</parameter>
							<parameter>
								<parameterid>lumasoft</parameterid>
								<name>Luma Softness</name>
								<valuemin>0</valuemin>
								<valuemax>120</valuemax>
								<value>15.1099</value>
							</parameter>
							<parameter>
								<parameterid>label6</parameterid>
								<name>Edge Control</name>
								<value/>
							</parameter>
							<parameter>
								<parameterid>edgethin</parameterid>
								<name>Thin/Spread</name>
								<valuemin>-100</valuemin>
								<valuemax>100</valuemax>
								<value>0</value>
							</parameter>
							<parameter>
								<parameterid>edgefeather</parameterid>
								<name>Softening</name>
								<valuemin>0</valuemin>
								<valuemax>100</valuemax>
								<value>0</value>
							</parameter>
							<parameter>
								<parameterid>label7</parameterid>
								<name>Mask Control</name>
								<value/>
							</parameter>
							<parameter>
								<parameterid>invertsel</parameterid>
								<name>Invert</name>
								<value>FALSE</value>
							</parameter>
							<parameter>
								<parameterid>debugshow</parameterid>
								<name>Show Stats</name>
								<value>FALSE</value>
							</parameter>
						</effect>
					</filter>
					<filter>
						<effect>
							<name>Basic Motion</name>
							<effectid>basic</effectid>
							<effectcategory>motion</effectcategory>
							<effecttype>motion</effecttype>
							<mediatype>video</mediatype>
							<parameter>
								<parameterid>scale</parameterid>
								<name>Scale</name>
								<valuemin>0</valuemin>
								<valuemax>1000</valuemax>
								<value>108</value>
							</parameter>
							<parameter>
								<parameterid>rotation</parameterid>
								<name>Rotation</name>
								<valuemin>-8640</valuemin>
								<valuemax>8640</valuemax>
								<value>0</value>
							</parameter>
							<parameter>
								<parameterid>center</parameterid>
								<name>Center</name>
								<value>
									<horiz>-0.037851</horiz>
									<vert>0.0281996</vert>
								</value>
							</parameter>
							<parameter>
								<parameterid>centerOffset</parameterid>
								<name>Anchor Point</name>
								<value>
									<horiz>0</horiz>
									<vert>0</vert>
								</value>
							</parameter>
						</effect>
					</filter>
					<filter>
						<enabled>FALSE</enabled>
						<effect>
							<name>Drop Shadow</name>
							<effectid>dropshadow</effectid>
							<effectcategory>motion</effectcategory>
							<effecttype>motion</effecttype>
							<mediatype>video</mediatype>
							<parameter>
								<parameterid>offset</parameterid>
								<name>offset</name>
								<valuemin>-100</valuemin>
								<valuemax>100</valuemax>
								<value>2</value>
							</parameter>
							<parameter>
								<parameterid>angle</parameterid>
								<name>angle</name>
								<valuemin>-720</valuemin>
								<valuemax>720</valuemax>
								<value>135</value>
							</parameter>
							<parameter>
								<parameterid>color</parameterid>
								<name>color</name>
								<value>
									<alpha>0</alpha>
									<red>0</red>
									<green>0</green>
									<blue>0</blue>
								</value>
							</parameter>
							<parameter>
								<parameterid>softness</parameterid>
								<name>softness</name>
								<valuemin>0</valuemin>
								<valuemax>100</valuemax>
								<value>10</value>
							</parameter>
							<parameter>
								<parameterid>opacity</parameterid>
								<name>opacity</name>
								<valuemin>0</valuemin>
								<valuemax>100</valuemax>
								<value>50</value>
							</parameter>
						</effect>
					</filter>
					<filter>
						<enabled>FALSE</enabled>
						<effect>
							<name>Motion Blur</name>
							<effectid>motionblur</effectid>
							<effectcategory>motion</effectcategory>
							<effecttype>motion</effecttype>
							<mediatype>video</mediatype>
							<parameter>
								<parameterid>duration</parameterid>
								<name>% Blur</name>
								<valuemin>0</valuemin>
								<valuemax>1000</valuemax>
								<value>500</value>
							</parameter>
							<parameter>
								<parameterid>samples</parameterid>
								<name>Samples</name>
								<valuemin>1</valuemin>
								<valuemax>16</valuemax>
								<value>4</value>
							</parameter>
						</effect>
					</filter>
					<filter>
						<effect>
							<name>Crop</name>
							<effectid>crop</effectid>
							<effectcategory>motion</effectcategory>
							<effecttype>motion</effecttype>
							<mediatype>video</mediatype>
							<parameter>
								<parameterid>left</parameterid>
								<name>left</name>
								<valuemin>0</valuemin>
								<valuemax>100</valuemax>
								<value>0</value>
							</parameter>
							<parameter>
								<parameterid>right</parameterid>
								<name>right</name>
								<valuemin>0</valuemin>
								<valuemax>100</valuemax>
								<value>0</value>
							</parameter>
							<parameter>
								<parameterid>top</parameterid>
								<name>top</name>
								<valuemin>0</valuemin>
								<valuemax>100</valuemax>
								<value>0</value>
							</parameter>
							<parameter>
								<parameterid>bottom</parameterid>
								<name>bottom</name>
								<valuemin>0</valuemin>
								<valuemax>100</valuemax>
								<value>0</value>
							</parameter>
							<parameter>
								<parameterid>edgefeather</parameterid>
								<name>edgefeather</name>
								<valuemin>0</valuemin>
								<valuemax>100</valuemax>
								<value>0</value>
							</parameter>
						</effect>
					</filter>
					<filter>
						<effect>
							<name>Distort</name>
							<effectid>deformation</effectid>
							<effectcategory>motion</effectcategory>
							<effecttype>motion</effecttype>
							<mediatype>video</mediatype>
							<parameter>
								<parameterid>ulcorner</parameterid>
								<name>Upper Left</name>
								<value>
									<horiz>-0.5</horiz>
									<vert>-0.5</vert>
								</value>
							</parameter>
							<parameter>
								<parameterid>urcorner</parameterid>
								<name>Upper Right</name>
								<value>
									<horiz>0.5</horiz>
									<vert>-0.5</vert>
								</value>
							</parameter>
							<parameter>
								<parameterid>lrcorner</parameterid>
								<name>Lower Right</name>
								<value>
									<horiz>0.5</horiz>
									<vert>0.5</vert>
								</value>
							</parameter>
							<parameter>
								<parameterid>llcorner</parameterid>
								<name>Lower Left</name>
								<value>
									<horiz>-0.5</horiz>
									<vert>0.5</vert>
								</value>
							</parameter>
							<parameter>
								<parameterid>aspect</parameterid>
								<name>Aspect</name>
								<valuemin>-10000</valuemin>
								<valuemax>10000</valuemax>
								<value>0</value>
							</parameter>
						</effect>
					</filter>
					<filter>
						<effect>
							<name>Opacity</name>
							<effectid>opacity</effectid>
							<effectcategory>motion</effectcategory>
							<effecttype>motion</effecttype>
							<mediatype>video</mediatype>
							<parameter>
								<parameterid>opacity</parameterid>
								<name>opacity</name>
								<valuemin>0</valuemin>
								<valuemax>100</valuemax>
								<value>100</value>
							</parameter>
						</effect>
					</filter>
					<sourcetrack>
						<mediatype>video</mediatype>
					</sourcetrack>
					<fielddominance>upper</fielddominance>
					<itemhistory>
						<uuid>D98EF4D2-4731-4D02-8DF1-9A58540A8003</uuid>
					</itemhistory>
				</clipitem>
				<clipitem id="00812001.MOV">
					<name>00812001.MOV</name>
					<duration>720</duration>
					<rate>
						<ntsc>FALSE</ntsc>
						<timebase>25</timebase>
					</rate>
					<in>173</in>
					<out>281</out>
					<start>27969</start>
					<end>28077</end>
					<pixelaspectratio>Square</pixelaspectratio>
					<enabled>TRUE</enabled>
					<anamorphic>FALSE</anamorphic>
					<alphatype>none</alphatype>
					<masterclipid>00812001.MOV1</masterclipid>
					<logginginfo>
						<scene/>
						<shottake/>
						<lognote/>
						<good>FALSE</good>
					</logginginfo>
					<labels>
						<label2/>
					</labels>
					<comments>
						<mastercomment1/>
						<mastercomment2/>
						<mastercomment3/>
						<mastercomment4/>
					</comments>
					<file id="00812001 ">
						<name>00812001.MOV</name>
						<pathurl>file://localhost/Volumes/Askepott/Prosjekter/DNPR637010_Kra%CC%8Akeklubben_TEM_011212/Video/MELLOMSTIKK/S01E05%20Dyrebolig/DAG2/00812001.MOV</pathurl>
						<rate>
							<timebase>25</timebase>
						</rate>
						<duration>720</duration>
						<timecode>
							<rate>
								<timebase>25</timebase>
							</rate>
							<string>18:21:26:19</string>
							<frame>1652169</frame>
							<displayformat>NDF</displayformat>
							<source>source</source>
							<reel>
								<name>Flash XDR</name>
							</reel>
						</timecode>
						<media>
							<video>
								<duration>720</duration>
								<samplecharacteristics>
									<width>1920</width>
									<height>1080</height>
								</samplecharacteristics>
							</video>
							<audio>
								<samplecharacteristics>
									<samplerate>48000</samplerate>
									<depth>24</depth>
								</samplecharacteristics>
								<channelcount>1</channelcount>
							</audio>
							<audio>
								<samplecharacteristics>
									<samplerate>48000</samplerate>
									<depth>24</depth>
								</samplecharacteristics>
								<channelcount>1</channelcount>
							</audio>
						</media>
					</file>
					<filter>
						<enabled>TRUE</enabled>
						<start>-1</start>
						<end>-1</end>
						<effect>
							<name>Color Corrector 3-way</name>
							<effectid>Color Corrector 3-way</effectid>
							<effectcategory>Color Correction</effectcategory>
							<effecttype>filter</effecttype>
							<mediatype>video</mediatype>
							<parameter>
								<parameterid>dispmode</parameterid>
								<name>Display Mode</name>
								<valuemin>1</valuemin>
								<valuemax>3</valuemax>
								<valuelist>
									<valueentry>
										<name>Final</name>
										<value>1</value>
									</valueentry>
									<valueentry>
										<name>Matte</name>
										<value>2</value>
									</valueentry>
									<valueentry>
										<name>Source</name>
										<value>3</value>
									</valueentry>
								</valuelist>
								<value>1</value>
							</parameter>
							<parameter>
								<parameterid>label1</parameterid>
								<name>Blacks Controls</name>
								<value/>
							</parameter>
							<parameter>
								<parameterid>blacklevel</parameterid>
								<name>Level</name>
								<valuemin>-196</valuemin>
								<valuemax>254</valuemax>
								<value>0</value>
							</parameter>
							<parameter>
								<parameterid>b_hue</parameterid>
								<name>Angle</name>
								<valuemin>-180</valuemin>
								<valuemax>180</valuemax>
								<value>-33</value>
							</parameter>
							<parameter>
								<parameterid>b_mag</parameterid>
								<name>Magnitude</name>
								<valuemin>0</valuemin>
								<valuemax>200</valuemax>
								<value>0</value>
							</parameter>
							<parameter>
								<parameterid>label2</parameterid>
								<name>Midrange Controls</name>
								<value/>
							</parameter>
							<parameter>
								<parameterid>mids</parameterid>
								<name>Level</name>
								<valuemin>0</valuemin>
								<valuemax>200</valuemax>
								<value>93</value>
							</parameter>
							<parameter>
								<parameterid>m_hue</parameterid>
								<name>Angle</name>
								<valuemin>-180</valuemin>
								<valuemax>180</valuemax>
								<value>-33</value>
							</parameter>
							<parameter>
								<parameterid>m_mag</parameterid>
								<name>Magnitude</name>
								<valuemin>0</valuemin>
								<valuemax>200</valuemax>
								<value>0</value>
							</parameter>
							<parameter>
								<parameterid>label3</parameterid>
								<name>Highlight Controls</name>
								<value/>
							</parameter>
							<parameter>
								<parameterid>highlights</parameterid>
								<name>Level</name>
								<valuemin>64</valuemin>
								<valuemax>509</valuemax>
								<value>226</value>
							</parameter>
							<parameter>
								<parameterid>h_hue</parameterid>
								<name>Angle</name>
								<valuemin>-180</valuemin>
								<valuemax>180</valuemax>
								<value>-33</value>
							</parameter>
							<parameter>
								<parameterid>h_mag</parameterid>
								<name>Magnitude</name>
								<valuemin>0</valuemin>
								<valuemax>200</valuemax>
								<value>0</value>
							</parameter>
							<parameter>
								<parameterid>label4</parameterid>
								<name>Color Controls</name>
								<value/>
							</parameter>
							<parameter>
								<parameterid>chroma</parameterid>
								<name>Saturation</name>
								<valuemin>0</valuemin>
								<valuemax>200</valuemax>
								<value>82</value>
							</parameter>
							<parameter>
								<parameterid>label5</parameterid>
								<name>Limit Effect Controls</name>
								<value/>
							</parameter>
							<parameter>
								<parameterid>dochroma</parameterid>
								<name>Limit on Chroma</name>
								<value>FALSE</value>
							</parameter>
							<parameter>
								<parameterid>centerang</parameterid>
								<name>Chroma Center</name>
								<valuemin>-760</valuemin>
								<valuemax>760</valuemax>
								<value>-110</value>
							</parameter>
							<parameter>
								<parameterid>chromawidth</parameterid>
								<name>Chroma Width</name>
								<valuemin>0</valuemin>
								<valuemax>360</valuemax>
								<value>15</value>
							</parameter>
							<parameter>
								<parameterid>chromasoft</parameterid>
								<name>Chroma Softness</name>
								<valuemin>0</valuemin>
								<valuemax>180</valuemax>
								<value>10</value>
							</parameter>
							<parameter>
								<parameterid>dosat</parameterid>
								<name>Limit on Saturation</name>
								<value>FALSE</value>
							</parameter>
							<parameter>
								<parameterid>satmin</parameterid>
								<name>Sat. Minimum</name>
								<valuemin>0</valuemin>
								<valuemax>125</valuemax>
								<value>35</value>
							</parameter>
							<parameter>
								<parameterid>satwidth</parameterid>
								<name>Sat. Width</name>
								<valuemin>0</valuemin>
								<valuemax>125</valuemax>
								<value>40</value>
							</parameter>
							<parameter>
								<parameterid>satsoft</parameterid>
								<name>Sat. Softness</name>
								<valuemin>0</valuemin>
								<valuemax>125</valuemax>
								<value>20</value>
							</parameter>
							<parameter>
								<parameterid>doluma</parameterid>
								<name>Limit on Luma</name>
								<value>FALSE</value>
							</parameter>
							<parameter>
								<parameterid>lumamin</parameterid>
								<name>Luma Minimum</name>
								<valuemin>0</valuemin>
								<valuemax>120</valuemax>
								<value>0</value>
							</parameter>
							<parameter>
								<parameterid>lumawidth</parameterid>
								<name>Luma Width</name>
								<valuemin>0</valuemin>
								<valuemax>120</valuemax>
								<value>40</value>
							</parameter>
							<parameter>
								<parameterid>lumasoft</parameterid>
								<name>Luma Softness</name>
								<valuemin>0</valuemin>
								<valuemax>120</valuemax>
								<value>20</value>
							</parameter>
							<parameter>
								<parameterid>label6</parameterid>
								<name>Edge Control</name>
								<value/>
							</parameter>
							<parameter>
								<parameterid>edgethin</parameterid>
								<name>Thin/Spread</name>
								<valuemin>-100</valuemin>
								<valuemax>100</valuemax>
								<value>0</value>
							</parameter>
							<parameter>
								<parameterid>edgefeather</parameterid>
								<name>Softening</name>
								<valuemin>0</valuemin>
								<valuemax>100</valuemax>
								<value>0</value>
							</parameter>
							<parameter>
								<parameterid>label7</parameterid>
								<name>Mask Control</name>
								<value/>
							</parameter>
							<parameter>
								<parameterid>invertsel</parameterid>
								<name>Invert</name>
								<value>FALSE</value>
							</parameter>
							<parameter>
								<parameterid>debugshow</parameterid>
								<name>Show Stats</name>
								<value>FALSE</value>
							</parameter>
						</effect>
					</filter>
					<sourcetrack>
						<mediatype>video</mediatype>
					</sourcetrack>
					<link>
						<linkclipref>00812001.MOV</linkclipref>
						<mediatype>video</mediatype>
						<trackindex>1</trackindex>
						<clipindex>234</clipindex>
					</link>
					<link>
						<linkclipref>00812001.MOV2</linkclipref>
						<mediatype>audio</mediatype>
						<trackindex>1</trackindex>
						<clipindex>191</clipindex>
					</link>
					<link>
						<linkclipref>00812001.MOV3</linkclipref>
						<mediatype>audio</mediatype>
						<trackindex>2</trackindex>
						<clipindex>191</clipindex>
					</link>
					<fielddominance>upper</fielddominance>
					<itemhistory>
						<uuid>2B82BB85-E450-462B-84E0-03711C2ADF61</uuid>
					</itemhistory>
				</clipitem>
				<clipitem id="00811001.MOV">
					<name>00811001.MOV</name>
					<duration>1380</duration>
					<rate>
						<ntsc>FALSE</ntsc>
						<timebase>25</timebase>
					</rate>
					<in>864</in>
					<out>983</out>
					<start>28077</start>
					<end>28196</end>
					<pixelaspectratio>Square</pixelaspectratio>
					<enabled>TRUE</enabled>
					<anamorphic>FALSE</anamorphic>
					<alphatype>none</alphatype>
					<masterclipid>00811001.MOV1</masterclipid>
					<logginginfo>
						<scene/>
						<shottake/>
						<lognote/>
						<good>FALSE</good>
					</logginginfo>
					<labels>
						<label2/>
					</labels>
					<comments>
						<mastercomment1/>
						<mastercomment2/>
						<mastercomment3/>
						<mastercomment4/>
					</comments>
					<file id="00811001 ">
						<name>00811001.MOV</name>
						<pathurl>file://localhost/Volumes/Askepott/Prosjekter/DNPR637010_Kra%CC%8Akeklubben_TEM_011212/Video/MELLOMSTIKK/S01E05%20Dyrebolig/DAG2/00811001.MOV</pathurl>
						<rate>
							<timebase>25</timebase>
						</rate>
						<duration>1380</duration>
						<timecode>
							<rate>
								<timebase>25</timebase>
							</rate>
							<string>18:20:31:14</string>
							<frame>1650789</frame>
							<displayformat>NDF</displayformat>
							<source>source</source>
							<reel>
								<name>Flash XDR</name>
							</reel>
						</timecode>
						<media>
							<video>
								<duration>1380</duration>
								<samplecharacteristics>
									<width>1920</width>
									<height>1080</height>
								</samplecharacteristics>
							</video>
							<audio>
								<samplecharacteristics>
									<samplerate>48000</samplerate>
									<depth>24</depth>
								</samplecharacteristics>
								<channelcount>1</channelcount>
							</audio>
							<audio>
								<samplecharacteristics>
									<samplerate>48000</samplerate>
									<depth>24</depth>
								</samplecharacteristics>
								<channelcount>1</channelcount>
							</audio>
						</media>
					</file>
					<filter>
						<start>-1</start>
						<end>-1</end>
						<effect>
							<name>Color Corrector - Lua til Carina</name>
							<effectid>Color Corrector</effectid>
							<effectcategory>Color Correction</effectcategory>
							<effecttype>filter</effecttype>
							<mediatype>video</mediatype>
							<parameter>
								<parameterid>dispmode</parameterid>
								<name>Display Mode</name>
								<valuemin>1</valuemin>
								<valuemax>3</valuemax>
								<valuelist>
									<valueentry>
										<name>Final</name>
										<value>1</value>
									</valueentry>
									<valueentry>
										<name>Matte</name>
										<value>2</value>
									</valueentry>
									<valueentry>
										<name>Source</name>
										<value>3</value>
									</valueentry>
								</valuelist>
								<value>1</value>
							</parameter>
							<parameter>
								<parameterid>label1</parameterid>
								<name>Level Controls</name>
								<value/>
							</parameter>
							<parameter>
								<parameterid>highlights</parameterid>
								<name>Highlights</name>
								<valuemin>64</valuemin>
								<valuemax>509</valuemax>
								<value>247</value>
							</parameter>
							<parameter>
								<parameterid>mids</parameterid>
								<name>Mids</name>
								<valuemin>0</valuemin>
								<valuemax>200</valuemax>
								<value>100</value>
							</parameter>
							<parameter>
								<parameterid>blacklevel</parameterid>
								<name>Blacks</name>
								<valuemin>-196</valuemin>
								<valuemax>254</valuemax>
								<value>-3</value>
							</parameter>
							<parameter>
								<parameterid>label2</parameterid>
								<name>Color Balance</name>
								<value/>
							</parameter>
							<parameter>
								<parameterid>hue</parameterid>
								<name>Angle</name>
								<valuemin>-180</valuemin>
								<valuemax>180</valuemax>
								<value>-33</value>
							</parameter>
							<parameter>
								<parameterid>mag</parameterid>
								<name>Magnitude</name>
								<valuemin>0</valuemin>
								<valuemax>200</valuemax>
								<value>0</value>
							</parameter>
							<parameter>
								<parameterid>label4</parameterid>
								<name>Color Controls</name>
								<value/>
							</parameter>
							<parameter>
								<parameterid>chroma</parameterid>
								<name>Saturation</name>
								<valuemin>0</valuemin>
								<valuemax>200</valuemax>
								<value>84</value>
							</parameter>
							<parameter>
								<parameterid>phase</parameterid>
								<name>Phase shift</name>
								<valuemin>-180</valuemin>
								<valuemax>180</valuemax>
								<value>0</value>
							</parameter>
							<parameter>
								<parameterid>label5</parameterid>
								<name>Limit Effect Controls</name>
								<value/>
							</parameter>
							<parameter>
								<parameterid>dochroma</parameterid>
								<name>Limit on Chroma</name>
								<value>TRUE</value>
							</parameter>
							<parameter>
								<parameterid>centerang</parameterid>
								<name>Chroma Center</name>
								<valuemin>-760</valuemin>
								<valuemax>760</valuemax>
								<value>322.256</value>
							</parameter>
							<parameter>
								<parameterid>chromawidth</parameterid>
								<name>Chroma Width</name>
								<valuemin>0</valuemin>
								<valuemax>360</valuemax>
								<value>7.49567</value>
							</parameter>
							<parameter>
								<parameterid>chromasoft</parameterid>
								<name>Chroma Softness</name>
								<valuemin>0</valuemin>
								<valuemax>180</valuemax>
								<value>10.6152</value>
							</parameter>
							<parameter>
								<parameterid>dosat</parameterid>
								<name>Limit on Saturation</name>
								<value>TRUE</value>
							</parameter>
							<parameter>
								<parameterid>satmin</parameterid>
								<name>Sat. Minimum</name>
								<valuemin>0</valuemin>
								<valuemax>125</valuemax>
								<value>36.7837</value>
							</parameter>
							<parameter>
								<parameterid>satwidth</parameterid>
								<name>Sat. Width</name>
								<valuemin>0</valuemin>
								<valuemax>125</valuemax>
								<value>84.0889</value>
							</parameter>
							<parameter>
								<parameterid>satsoft</parameterid>
								<name>Sat. Softness</name>
								<valuemin>0</valuemin>
								<valuemax>125</valuemax>
								<value>5</value>
							</parameter>
							<parameter>
								<parameterid>doluma</parameterid>
								<name>Limit on Luma</name>
								<value>TRUE</value>
							</parameter>
							<parameter>
								<parameterid>lumamin</parameterid>
								<name>Luma Minimum</name>
								<valuemin>0</valuemin>
								<valuemax>120</valuemax>
								<value>0.939667</value>
							</parameter>
							<parameter>
								<parameterid>lumawidth</parameterid>
								<name>Luma Width</name>
								<valuemin>0</valuemin>
								<valuemax>120</valuemax>
								<value>115.45</value>
							</parameter>
							<parameter>
								<parameterid>lumasoft</parameterid>
								<name>Luma Softness</name>
								<valuemin>0</valuemin>
								<valuemax>120</valuemax>
								<value>15.1099</value>
							</parameter>
							<parameter>
								<parameterid>label6</parameterid>
								<name>Edge Control</name>
								<value/>
							</parameter>
							<parameter>
								<parameterid>edgethin</parameterid>
								<name>Thin/Spread</name>
								<valuemin>-100</valuemin>
								<valuemax>100</valuemax>
								<value>0</value>
							</parameter>
							<parameter>
								<parameterid>edgefeather</parameterid>
								<name>Softening</name>
								<valuemin>0</valuemin>
								<valuemax>100</valuemax>
								<value>0</value>
							</parameter>
							<parameter>
								<parameterid>label7</parameterid>
								<name>Mask Control</name>
								<value/>
							</parameter>
							<parameter>
								<parameterid>invertsel</parameterid>
								<name>Invert</name>
								<value>FALSE</value>
							</parameter>
							<parameter>
								<parameterid>debugshow</parameterid>
								<name>Show Stats</name>
								<value>FALSE</value>
							</parameter>
						</effect>
					</filter>
					<sourcetrack>
						<mediatype>video</mediatype>
					</sourcetrack>
					<link>
						<linkclipref>00811001.MOV</linkclipref>
						<mediatype>video</mediatype>
						<trackindex>1</trackindex>
						<clipindex>235</clipindex>
					</link>
					<link>
						<linkclipref>00811001.MOV2</linkclipref>
						<mediatype>audio</mediatype>
						<trackindex>1</trackindex>
						<clipindex>192</clipindex>
					</link>
					<link>
						<linkclipref>00811001.MOV3</linkclipref>
						<mediatype>audio</mediatype>
						<trackindex>2</trackindex>
						<clipindex>192</clipindex>
					</link>
					<fielddominance>upper</fielddominance>
					<itemhistory>
						<uuid>49A1DF9A-4CA1-4B9F-8314-56181B8869E3</uuid>
					</itemhistory>
				</clipitem>
				<clipitem id="00813001.MOV">
					<name>00813001.MOV</name>
					<duration>1068</duration>
					<rate>
						<ntsc>FALSE</ntsc>
						<timebase>25</timebase>
					</rate>
					<in>731</in>
					<out>781</out>
					<start>28196</start>
					<end>28246</end>
					<pixelaspectratio>Square</pixelaspectratio>
					<enabled>TRUE</enabled>
					<anamorphic>FALSE</anamorphic>
					<alphatype>none</alphatype>
					<masterclipid>00813001.MOV1</masterclipid>
					<logginginfo>
						<scene/>
						<shottake/>
						<lognote/>
						<good>FALSE</good>
					</logginginfo>
					<labels>
						<label2/>
					</labels>
					<comments>
						<mastercomment1/>
						<mastercomment2/>
						<mastercomment3/>
						<mastercomment4/>
					</comments>
					<file id="00813001 ">
						<name>00813001.MOV</name>
						<pathurl>file://localhost/Volumes/Askepott/Prosjekter/DNPR637010_Kra%CC%8Akeklubben_TEM_011212/Video/MELLOMSTIKK/S01E05%20Dyrebolig/DAG2/00813001.MOV</pathurl>
						<rate>
							<timebase>25</timebase>
						</rate>
						<duration>1068</duration>
						<timecode>
							<rate>
								<timebase>25</timebase>
							</rate>
							<string>18:21:55:19</string>
							<frame>1652894</frame>
							<displayformat>NDF</displayformat>
							<source>source</source>
							<reel>
								<name>Flash XDR</name>
							</reel>
						</timecode>
						<media>
							<video>
								<duration>1068</duration>
								<samplecharacteristics>
									<width>1920</width>
									<height>1080</height>
								</samplecharacteristics>
							</video>
							<audio>
								<samplecharacteristics>
									<samplerate>48000</samplerate>
									<depth>24</depth>
								</samplecharacteristics>
								<channelcount>1</channelcount>
							</audio>
							<audio>
								<samplecharacteristics>
									<samplerate>48000</samplerate>
									<depth>24</depth>
								</samplecharacteristics>
								<channelcount>1</channelcount>
							</audio>
						</media>
					</file>
					<filter>
						<enabled>TRUE</enabled>
						<start>-1</start>
						<end>-1</end>
						<effect>
							<name>Color mindre metning og hoylys</name>
							<effectid>Color Corrector 3-way</effectid>
							<effectcategory>Color Correction</effectcategory>
							<effecttype>filter</effecttype>
							<mediatype>video</mediatype>
							<parameter>
								<parameterid>dispmode</parameterid>
								<name>Display Mode</name>
								<valuemin>1</valuemin>
								<valuemax>3</valuemax>
								<valuelist>
									<valueentry>
										<name>Final</name>
										<value>1</value>
									</valueentry>
									<valueentry>
										<name>Matte</name>
										<value>2</value>
									</valueentry>
									<valueentry>
										<name>Source</name>
										<value>3</value>
									</valueentry>
								</valuelist>
								<value>1</value>
							</parameter>
							<parameter>
								<parameterid>label1</parameterid>
								<name>Blacks Controls</name>
								<value/>
							</parameter>
							<parameter>
								<parameterid>blacklevel</parameterid>
								<name>Level</name>
								<valuemin>-196</valuemin>
								<valuemax>254</valuemax>
								<value>0</value>
							</parameter>
							<parameter>
								<parameterid>b_hue</parameterid>
								<name>Angle</name>
								<valuemin>-180</valuemin>
								<valuemax>180</valuemax>
								<value>-33</value>
							</parameter>
							<parameter>
								<parameterid>b_mag</parameterid>
								<name>Magnitude</name>
								<valuemin>0</valuemin>
								<valuemax>200</valuemax>
								<value>0</value>
							</parameter>
							<parameter>
								<parameterid>label2</parameterid>
								<name>Midrange Controls</name>
								<value/>
							</parameter>
							<parameter>
								<parameterid>mids</parameterid>
								<name>Level</name>
								<valuemin>0</valuemin>
								<valuemax>200</valuemax>
								<value>100</value>
							</parameter>
							<parameter>
								<parameterid>m_hue</parameterid>
								<name>Angle</name>
								<valuemin>-180</valuemin>
								<valuemax>180</valuemax>
								<value>-61.982</value>
							</parameter>
							<parameter>
								<parameterid>m_mag</parameterid>
								<name>Magnitude</name>
								<valuemin>0</valuemin>
								<valuemax>200</valuemax>
								<value>2.78667</value>
							</parameter>
							<parameter>
								<parameterid>label3</parameterid>
								<name>Highlight Controls</name>
								<value/>
							</parameter>
							<parameter>
								<parameterid>highlights</parameterid>
								<name>Level</name>
								<valuemin>64</valuemin>
								<valuemax>509</valuemax>
								<value>238</value>
							</parameter>
							<parameter>
								<parameterid>h_hue</parameterid>
								<name>Angle</name>
								<valuemin>-180</valuemin>
								<valuemax>180</valuemax>
								<value>-33</value>
							</parameter>
							<parameter>
								<parameterid>h_mag</parameterid>
								<name>Magnitude</name>
								<valuemin>0</valuemin>
								<valuemax>200</valuemax>
								<value>0</value>
							</parameter>
							<parameter>
								<parameterid>label4</parameterid>
								<name>Color Controls</name>
								<value/>
							</parameter>
							<parameter>
								<parameterid>chroma</parameterid>
								<name>Saturation</name>
								<valuemin>0</valuemin>
								<valuemax>200</valuemax>
								<value>76</value>
							</parameter>
							<parameter>
								<parameterid>label5</parameterid>
								<name>Limit Effect Controls</name>
								<value/>
							</parameter>
							<parameter>
								<parameterid>dochroma</parameterid>
								<name>Limit on Chroma</name>
								<value>FALSE</value>
							</parameter>
							<parameter>
								<parameterid>centerang</parameterid>
								<name>Chroma Center</name>
								<valuemin>-760</valuemin>
								<valuemax>760</valuemax>
								<value>-110</value>
							</parameter>
							<parameter>
								<parameterid>chromawidth</parameterid>
								<name>Chroma Width</name>
								<valuemin>0</valuemin>
								<valuemax>360</valuemax>
								<value>15</value>
							</parameter>
							<parameter>
								<parameterid>chromasoft</parameterid>
								<name>Chroma Softness</name>
								<valuemin>0</valuemin>
								<valuemax>180</valuemax>
								<value>10</value>
							</parameter>
							<parameter>
								<parameterid>dosat</parameterid>
								<name>Limit on Saturation</name>
								<value>FALSE</value>
							</parameter>
							<parameter>
								<parameterid>satmin</parameterid>
								<name>Sat. Minimum</name>
								<valuemin>0</valuemin>
								<valuemax>125</valuemax>
								<value>35</value>
							</parameter>
							<parameter>
								<parameterid>satwidth</parameterid>
								<name>Sat. Width</name>
								<valuemin>0</valuemin>
								<valuemax>125</valuemax>
								<value>40</value>
							</parameter>
							<parameter>
								<parameterid>satsoft</parameterid>
								<name>Sat. Softness</name>
								<valuemin>0</valuemin>
								<valuemax>125</valuemax>
								<value>20</value>
							</parameter>
							<parameter>
								<parameterid>doluma</parameterid>
								<name>Limit on Luma</name>
								<value>FALSE</value>
							</parameter>
							<parameter>
								<parameterid>lumamin</parameterid>
								<name>Luma Minimum</name>
								<valuemin>0</valuemin>
								<valuemax>120</valuemax>
								<value>0</value>
							</parameter>
							<parameter>
								<parameterid>lumawidth</parameterid>
								<name>Luma Width</name>
								<valuemin>0</valuemin>
								<valuemax>120</valuemax>
								<value>40</value>
							</parameter>
							<parameter>
								<parameterid>lumasoft</parameterid>
								<name>Luma Softness</name>
								<valuemin>0</valuemin>
								<valuemax>120</valuemax>
								<value>20</value>
							</parameter>
							<parameter>
								<parameterid>label6</parameterid>
								<name>Edge Control</name>
								<value/>
							</parameter>
							<parameter>
								<parameterid>edgethin</parameterid>
								<name>Thin/Spread</name>
								<valuemin>-100</valuemin>
								<valuemax>100</valuemax>
								<value>0</value>
							</parameter>
							<parameter>
								<parameterid>edgefeather</parameterid>
								<name>Softening</name>
								<valuemin>0</valuemin>
								<valuemax>100</valuemax>
								<value>0</value>
							</parameter>
							<parameter>
								<parameterid>label7</parameterid>
								<name>Mask Control</name>
								<value/>
							</parameter>
							<parameter>
								<parameterid>invertsel</parameterid>
								<name>Invert</name>
								<value>FALSE</value>
							</parameter>
							<parameter>
								<parameterid>debugshow</parameterid>
								<name>Show Stats</name>
								<value>FALSE</value>
							</parameter>
						</effect>
					</filter>
					<sourcetrack>
						<mediatype>video</mediatype>
					</sourcetrack>
					<fielddominance>upper</fielddominance>
					<itemhistory>
						<uuid>EF3D4627-2215-4EDE-A5F2-F477B631E598</uuid>
					</itemhistory>
				</clipitem>
				<clipitem id="00811001.MOV4">
					<name>00811001.MOV</name>
					<duration>1380</duration>
					<rate>
						<ntsc>FALSE</ntsc>
						<timebase>25</timebase>
					</rate>
					<in>1033</in>
					<out>1186</out>
					<start>28246</start>
					<end>28399</end>
					<pixelaspectratio>Square</pixelaspectratio>
					<enabled>TRUE</enabled>
					<anamorphic>FALSE</anamorphic>
					<alphatype>none</alphatype>
					<masterclipid>00811001.MOV1</masterclipid>
					<logginginfo>
						<scene/>
						<shottake/>
						<lognote/>
						<good>FALSE</good>
					</logginginfo>
					<labels>
						<label2/>
					</labels>
					<comments>
						<mastercomment1/>
						<mastercomment2/>
						<mastercomment3/>
						<mastercomment4/>
					</comments>
					<file id="00811001 "/>
					<filter>
						<start>-1</start>
						<end>-1</end>
						<effect>
							<name>Color Corrector - Lua til Carina</name>
							<effectid>Color Corrector</effectid>
							<effectcategory>Color Correction</effectcategory>
							<effecttype>filter</effecttype>
							<mediatype>video</mediatype>
							<parameter>
								<parameterid>dispmode</parameterid>
								<name>Display Mode</name>
								<valuemin>1</valuemin>
								<valuemax>3</valuemax>
								<valuelist>
									<valueentry>
										<name>Final</name>
										<value>1</value>
									</valueentry>
									<valueentry>
										<name>Matte</name>
										<value>2</value>
									</valueentry>
									<valueentry>
										<name>Source</name>
										<value>3</value>
									</valueentry>
								</valuelist>
								<value>1</value>
							</parameter>
							<parameter>
								<parameterid>label1</parameterid>
								<name>Level Controls</name>
								<value/>
							</parameter>
							<parameter>
								<parameterid>highlights</parameterid>
								<name>Highlights</name>
								<valuemin>64</valuemin>
								<valuemax>509</valuemax>
								<value>247</value>
							</parameter>
							<parameter>
								<parameterid>mids</parameterid>
								<name>Mids</name>
								<valuemin>0</valuemin>
								<valuemax>200</valuemax>
								<value>100</value>
							</parameter>
							<parameter>
								<parameterid>blacklevel</parameterid>
								<name>Blacks</name>
								<valuemin>-196</valuemin>
								<valuemax>254</valuemax>
								<value>-3</value>
							</parameter>
							<parameter>
								<parameterid>label2</parameterid>
								<name>Color Balance</name>
								<value/>
							</parameter>
							<parameter>
								<parameterid>hue</parameterid>
								<name>Angle</name>
								<valuemin>-180</valuemin>
								<valuemax>180</valuemax>
								<value>-33</value>
							</parameter>
							<parameter>
								<parameterid>mag</parameterid>
								<name>Magnitude</name>
								<valuemin>0</valuemin>
								<valuemax>200</valuemax>
								<value>0</value>
							</parameter>
							<parameter>
								<parameterid>label4</parameterid>
								<name>Color Controls</name>
								<value/>
							</parameter>
							<parameter>
								<parameterid>chroma</parameterid>
								<name>Saturation</name>
								<valuemin>0</valuemin>
								<valuemax>200</valuemax>
								<value>84</value>
							</parameter>
							<parameter>
								<parameterid>phase</parameterid>
								<name>Phase shift</name>
								<valuemin>-180</valuemin>
								<valuemax>180</valuemax>
								<value>0</value>
							</parameter>
							<parameter>
								<parameterid>label5</parameterid>
								<name>Limit Effect Controls</name>
								<value/>
							</parameter>
							<parameter>
								<parameterid>dochroma</parameterid>
								<name>Limit on Chroma</name>
								<value>TRUE</value>
							</parameter>
							<parameter>
								<parameterid>centerang</parameterid>
								<name>Chroma Center</name>
								<valuemin>-760</valuemin>
								<valuemax>760</valuemax>
								<value>322.256</value>
							</parameter>
							<parameter>
								<parameterid>chromawidth</parameterid>
								<name>Chroma Width</name>
								<valuemin>0</valuemin>
								<valuemax>360</valuemax>
								<value>7.49567</value>
							</parameter>
							<parameter>
								<parameterid>chromasoft</parameterid>
								<name>Chroma Softness</name>
								<valuemin>0</valuemin>
								<valuemax>180</valuemax>
								<value>10.6152</value>
							</parameter>
							<parameter>
								<parameterid>dosat</parameterid>
								<name>Limit on Saturation</name>
								<value>TRUE</value>
							</parameter>
							<parameter>
								<parameterid>satmin</parameterid>
								<name>Sat. Minimum</name>
								<valuemin>0</valuemin>
								<valuemax>125</valuemax>
								<value>36.7837</value>
							</parameter>
							<parameter>
								<parameterid>satwidth</parameterid>
								<name>Sat. Width</name>
								<valuemin>0</valuemin>
								<valuemax>125</valuemax>
								<value>84.0889</value>
							</parameter>
							<parameter>
								<parameterid>satsoft</parameterid>
								<name>Sat. Softness</name>
								<valuemin>0</valuemin>
								<valuemax>125</valuemax>
								<value>5</value>
							</parameter>
							<parameter>
								<parameterid>doluma</parameterid>
								<name>Limit on Luma</name>
								<value>TRUE</value>
							</parameter>
							<parameter>
								<parameterid>lumamin</parameterid>
								<name>Luma Minimum</name>
								<valuemin>0</valuemin>
								<valuemax>120</valuemax>
								<value>0.939667</value>
							</parameter>
							<parameter>
								<parameterid>lumawidth</parameterid>
								<name>Luma Width</name>
								<valuemin>0</valuemin>
								<valuemax>120</valuemax>
								<value>115.45</value>
							</parameter>
							<parameter>
								<parameterid>lumasoft</parameterid>
								<name>Luma Softness</name>
								<valuemin>0</valuemin>
								<valuemax>120</valuemax>
								<value>15.1099</value>
							</parameter>
							<parameter>
								<parameterid>label6</parameterid>
								<name>Edge Control</name>
								<value/>
							</parameter>
							<parameter>
								<parameterid>edgethin</parameterid>
								<name>Thin/Spread</name>
								<valuemin>-100</valuemin>
								<valuemax>100</valuemax>
								<value>0</value>
							</parameter>
							<parameter>
								<parameterid>edgefeather</parameterid>
								<name>Softening</name>
								<valuemin>0</valuemin>
								<valuemax>100</valuemax>
								<value>0</value>
							</parameter>
							<parameter>
								<parameterid>label7</parameterid>
								<name>Mask Control</name>
								<value/>
							</parameter>
							<parameter>
								<parameterid>invertsel</parameterid>
								<name>Invert</name>
								<value>FALSE</value>
							</parameter>
							<parameter>
								<parameterid>debugshow</parameterid>
								<name>Show Stats</name>
								<value>FALSE</value>
							</parameter>
						</effect>
					</filter>
					<sourcetrack>
						<mediatype>video</mediatype>
					</sourcetrack>
					<fielddominance>upper</fielddominance>
					<itemhistory>
						<uuid>B41CE4BC-F7C0-48BC-BDA3-A7041B791554</uuid>
					</itemhistory>
				</clipitem>
				<clipitem id="00813001.MOV2">
					<name>00813001.MOV</name>
					<duration>1068</duration>
					<rate>
						<ntsc>FALSE</ntsc>
						<timebase>25</timebase>
					</rate>
					<in>904</in>
					<out>963</out>
					<start>28399</start>
					<end>28458</end>
					<pixelaspectratio>Square</pixelaspectratio>
					<enabled>TRUE</enabled>
					<anamorphic>FALSE</anamorphic>
					<alphatype>none</alphatype>
					<masterclipid>00813001.MOV1</masterclipid>
					<logginginfo>
						<scene/>
						<shottake/>
						<lognote/>
						<good>FALSE</good>
					</logginginfo>
					<labels>
						<label2/>
					</labels>
					<comments>
						<mastercomment1/>
						<mastercomment2/>
						<mastercomment3/>
						<mastercomment4/>
					</comments>
					<file id="00813001 "/>
					<filter>
						<enabled>TRUE</enabled>
						<start>-1</start>
						<end>-1</end>
						<effect>
							<name>Color mindre metning og hoylys</name>
							<effectid>Color Corrector 3-way</effectid>
							<effectcategory>Color Correction</effectcategory>
							<effecttype>filter</effecttype>
							<mediatype>video</mediatype>
							<parameter>
								<parameterid>dispmode</parameterid>
								<name>Display Mode</name>
								<valuemin>1</valuemin>
								<valuemax>3</valuemax>
								<valuelist>
									<valueentry>
										<name>Final</name>
										<value>1</value>
									</valueentry>
									<valueentry>
										<name>Matte</name>
										<value>2</value>
									</valueentry>
									<valueentry>
										<name>Source</name>
										<value>3</value>
									</valueentry>
								</valuelist>
								<value>1</value>
							</parameter>
							<parameter>
								<parameterid>label1</parameterid>
								<name>Blacks Controls</name>
								<value/>
							</parameter>
							<parameter>
								<parameterid>blacklevel</parameterid>
								<name>Level</name>
								<valuemin>-196</valuemin>
								<valuemax>254</valuemax>
								<value>0</value>
							</parameter>
							<parameter>
								<parameterid>b_hue</parameterid>
								<name>Angle</name>
								<valuemin>-180</valuemin>
								<valuemax>180</valuemax>
								<value>-33</value>
							</parameter>
							<parameter>
								<parameterid>b_mag</parameterid>
								<name>Magnitude</name>
								<valuemin>0</valuemin>
								<valuemax>200</valuemax>
								<value>0</value>
							</parameter>
							<parameter>
								<parameterid>label2</parameterid>
								<name>Midrange Controls</name>
								<value/>
							</parameter>
							<parameter>
								<parameterid>mids</parameterid>
								<name>Level</name>
								<valuemin>0</valuemin>
								<valuemax>200</valuemax>
								<value>100</value>
							</parameter>
							<parameter>
								<parameterid>m_hue</parameterid>
								<name>Angle</name>
								<valuemin>-180</valuemin>
								<valuemax>180</valuemax>
								<value>-61.982</value>
							</parameter>
							<parameter>
								<parameterid>m_mag</parameterid>
								<name>Magnitude</name>
								<valuemin>0</valuemin>
								<valuemax>200</valuemax>
								<value>2.78667</value>
							</parameter>
							<parameter>
								<parameterid>label3</parameterid>
								<name>Highlight Controls</name>
								<value/>
							</parameter>
							<parameter>
								<parameterid>highlights</parameterid>
								<name>Level</name>
								<valuemin>64</valuemin>
								<valuemax>509</valuemax>
								<value>238</value>
							</parameter>
							<parameter>
								<parameterid>h_hue</parameterid>
								<name>Angle</name>
								<valuemin>-180</valuemin>
								<valuemax>180</valuemax>
								<value>-33</value>
							</parameter>
							<parameter>
								<parameterid>h_mag</parameterid>
								<name>Magnitude</name>
								<valuemin>0</valuemin>
								<valuemax>200</valuemax>
								<value>0</value>
							</parameter>
							<parameter>
								<parameterid>label4</parameterid>
								<name>Color Controls</name>
								<value/>
							</parameter>
							<parameter>
								<parameterid>chroma</parameterid>
								<name>Saturation</name>
								<valuemin>0</valuemin>
								<valuemax>200</valuemax>
								<value>79</value>
							</parameter>
							<parameter>
								<parameterid>label5</parameterid>
								<name>Limit Effect Controls</name>
								<value/>
							</parameter>
							<parameter>
								<parameterid>dochroma</parameterid>
								<name>Limit on Chroma</name>
								<value>FALSE</value>
							</parameter>
							<parameter>
								<parameterid>centerang</parameterid>
								<name>Chroma Center</name>
								<valuemin>-760</valuemin>
								<valuemax>760</valuemax>
								<value>-110</value>
							</parameter>
							<parameter>
								<parameterid>chromawidth</parameterid>
								<name>Chroma Width</name>
								<valuemin>0</valuemin>
								<valuemax>360</valuemax>
								<value>15</value>
							</parameter>
							<parameter>
								<parameterid>chromasoft</parameterid>
								<name>Chroma Softness</name>
								<valuemin>0</valuemin>
								<valuemax>180</valuemax>
								<value>10</value>
							</parameter>
							<parameter>
								<parameterid>dosat</parameterid>
								<name>Limit on Saturation</name>
								<value>FALSE</value>
							</parameter>
							<parameter>
								<parameterid>satmin</parameterid>
								<name>Sat. Minimum</name>
								<valuemin>0</valuemin>
								<valuemax>125</valuemax>
								<value>35</value>
							</parameter>
							<parameter>
								<parameterid>satwidth</parameterid>
								<name>Sat. Width</name>
								<valuemin>0</valuemin>
								<valuemax>125</valuemax>
								<value>40</value>
							</parameter>
							<parameter>
								<parameterid>satsoft</parameterid>
								<name>Sat. Softness</name>
								<valuemin>0</valuemin>
								<valuemax>125</valuemax>
								<value>20</value>
							</parameter>
							<parameter>
								<parameterid>doluma</parameterid>
								<name>Limit on Luma</name>
								<value>FALSE</value>
							</parameter>
							<parameter>
								<parameterid>lumamin</parameterid>
								<name>Luma Minimum</name>
								<valuemin>0</valuemin>
								<valuemax>120</valuemax>
								<value>0</value>
							</parameter>
							<parameter>
								<parameterid>lumawidth</parameterid>
								<name>Luma Width</name>
								<valuemin>0</valuemin>
								<valuemax>120</valuemax>
								<value>40</value>
							</parameter>
							<parameter>
								<parameterid>lumasoft</parameterid>
								<name>Luma Softness</name>
								<valuemin>0</valuemin>
								<valuemax>120</valuemax>
								<value>20</value>
							</parameter>
							<parameter>
								<parameterid>label6</parameterid>
								<name>Edge Control</name>
								<value/>
							</parameter>
							<parameter>
								<parameterid>edgethin</parameterid>
								<name>Thin/Spread</name>
								<valuemin>-100</valuemin>
								<valuemax>100</valuemax>
								<value>0</value>
							</parameter>
							<parameter>
								<parameterid>edgefeather</parameterid>
								<name>Softening</name>
								<valuemin>0</valuemin>
								<valuemax>100</valuemax>
								<value>0</value>
							</parameter>
							<parameter>
								<parameterid>label7</parameterid>
								<name>Mask Control</name>
								<value/>
							</parameter>
							<parameter>
								<parameterid>invertsel</parameterid>
								<name>Invert</name>
								<value>FALSE</value>
							</parameter>
							<parameter>
								<parameterid>debugshow</parameterid>
								<name>Show Stats</name>
								<value>FALSE</value>
							</parameter>
						</effect>
					</filter>
					<sourcetrack>
						<mediatype>video</mediatype>
					</sourcetrack>
					<link>
						<linkclipref>00813001.MOV2</linkclipref>
						<mediatype>video</mediatype>
						<trackindex>1</trackindex>
						<clipindex>238</clipindex>
					</link>
					<link>
						<linkclipref>00813001.MOV3</linkclipref>
						<mediatype>audio</mediatype>
						<trackindex>1</trackindex>
						<clipindex>193</clipindex>
					</link>
					<link>
						<linkclipref>00813001.MOV4</linkclipref>
						<mediatype>audio</mediatype>
						<trackindex>2</trackindex>
						<clipindex>193</clipindex>
					</link>
					<fielddominance>upper</fielddominance>
					<itemhistory>
						<uuid>04FBD557-2092-4A2E-99DB-B3E4FAE0AA5C</uuid>
					</itemhistory>
				</clipitem>
				<clipitem id="00811001.MOV5">
					<name>00811001.MOV</name>
					<duration>1380</duration>
					<rate>
						<ntsc>FALSE</ntsc>
						<timebase>25</timebase>
					</rate>
					<in>1261</in>
					<out>1294</out>
					<start>28458</start>
					<end>28491</end>
					<pixelaspectratio>Square</pixelaspectratio>
					<enabled>TRUE</enabled>
					<anamorphic>FALSE</anamorphic>
					<alphatype>none</alphatype>
					<masterclipid>00811001.MOV1</masterclipid>
					<logginginfo>
						<scene/>
						<shottake/>
						<lognote/>
						<good>FALSE</good>
					</logginginfo>
					<labels>
						<label2/>
					</labels>
					<comments>
						<mastercomment1/>
						<mastercomment2/>
						<mastercomment3/>
						<mastercomment4/>
					</comments>
					<file id="00811001 "/>
					<filter>
						<effect>
							<name>Basic Motion</name>
							<effectid>basic</effectid>
							<effectcategory>motion</effectcategory>
							<effecttype>motion</effecttype>
							<mediatype>video</mediatype>
							<parameter>
								<parameterid>scale</parameterid>
								<name>Scale</name>
								<valuemin>0</valuemin>
								<valuemax>1000</valuemax>
								<value>120</value>
							</parameter>
							<parameter>
								<parameterid>rotation</parameterid>
								<name>Rotation</name>
								<valuemin>-8640</valuemin>
								<valuemax>8640</valuemax>
								<value>0</value>
							</parameter>
							<parameter>
								<parameterid>center</parameterid>
								<name>Center</name>
								<value>
									<horiz>0.0252845</horiz>
									<vert>0.0540541</vert>
								</value>
							</parameter>
							<parameter>
								<parameterid>centerOffset</parameterid>
								<name>Anchor Point</name>
								<value>
									<horiz>0</horiz>
									<vert>0</vert>
								</value>
							</parameter>
						</effect>
					</filter>
					<filter>
						<enabled>FALSE</enabled>
						<effect>
							<name>Drop Shadow</name>
							<effectid>dropshadow</effectid>
							<effectcategory>motion</effectcategory>
							<effecttype>motion</effecttype>
							<mediatype>video</mediatype>
							<parameter>
								<parameterid>offset</parameterid>
								<name>offset</name>
								<valuemin>-100</valuemin>
								<valuemax>100</valuemax>
								<value>2</value>
							</parameter>
							<parameter>
								<parameterid>angle</parameterid>
								<name>angle</name>
								<valuemin>-720</valuemin>
								<valuemax>720</valuemax>
								<value>135</value>
							</parameter>
							<parameter>
								<parameterid>color</parameterid>
								<name>color</name>
								<value>
									<alpha>0</alpha>
									<red>0</red>
									<green>0</green>
									<blue>0</blue>
								</value>
							</parameter>
							<parameter>
								<parameterid>softness</parameterid>
								<name>softness</name>
								<valuemin>0</valuemin>
								<valuemax>100</valuemax>
								<value>10</value>
							</parameter>
							<parameter>
								<parameterid>opacity</parameterid>
								<name>opacity</name>
								<valuemin>0</valuemin>
								<valuemax>100</valuemax>
								<value>50</value>
							</parameter>
						</effect>
					</filter>
					<filter>
						<enabled>FALSE</enabled>
						<effect>
							<name>Motion Blur</name>
							<effectid>motionblur</effectid>
							<effectcategory>motion</effectcategory>
							<effecttype>motion</effecttype>
							<mediatype>video</mediatype>
							<parameter>
								<parameterid>duration</parameterid>
								<name>% Blur</name>
								<valuemin>0</valuemin>
								<valuemax>1000</valuemax>
								<value>500</value>
							</parameter>
							<parameter>
								<parameterid>samples</parameterid>
								<name>Samples</name>
								<valuemin>1</valuemin>
								<valuemax>16</valuemax>
								<value>4</value>
							</parameter>
						</effect>
					</filter>
					<filter>
						<effect>
							<name>Crop</name>
							<effectid>crop</effectid>
							<effectcategory>motion</effectcategory>
							<effecttype>motion</effecttype>
							<mediatype>video</mediatype>
							<parameter>
								<parameterid>left</parameterid>
								<name>left</name>
								<valuemin>0</valuemin>
								<valuemax>100</valuemax>
								<value>0</value>
							</parameter>
							<parameter>
								<parameterid>right</parameterid>
								<name>right</name>
								<valuemin>0</valuemin>
								<valuemax>100</valuemax>
								<value>0</value>
							</parameter>
							<parameter>
								<parameterid>top</parameterid>
								<name>top</name>
								<valuemin>0</valuemin>
								<valuemax>100</valuemax>
								<value>0</value>
							</parameter>
							<parameter>
								<parameterid>bottom</parameterid>
								<name>bottom</name>
								<valuemin>0</valuemin>
								<valuemax>100</valuemax>
								<value>0</value>
							</parameter>
							<parameter>
								<parameterid>edgefeather</parameterid>
								<name>edgefeather</name>
								<valuemin>0</valuemin>
								<valuemax>100</valuemax>
								<value>0</value>
							</parameter>
						</effect>
					</filter>
					<filter>
						<effect>
							<name>Distort</name>
							<effectid>deformation</effectid>
							<effectcategory>motion</effectcategory>
							<effecttype>motion</effecttype>
							<mediatype>video</mediatype>
							<parameter>
								<parameterid>ulcorner</parameterid>
								<name>Upper Left</name>
								<value>
									<horiz>-0.5</horiz>
									<vert>-0.5</vert>
								</value>
							</parameter>
							<parameter>
								<parameterid>urcorner</parameterid>
								<name>Upper Right</name>
								<value>
									<horiz>0.5</horiz>
									<vert>-0.5</vert>
								</value>
							</parameter>
							<parameter>
								<parameterid>lrcorner</parameterid>
								<name>Lower Right</name>
								<value>
									<horiz>0.5</horiz>
									<vert>0.5</vert>
								</value>
							</parameter>
							<parameter>
								<parameterid>llcorner</parameterid>
								<name>Lower Left</name>
								<value>
									<horiz>-0.5</horiz>
									<vert>0.5</vert>
								</value>
							</parameter>
							<parameter>
								<parameterid>aspect</parameterid>
								<name>Aspect</name>
								<valuemin>-10000</valuemin>
								<valuemax>10000</valuemax>
								<value>0</value>
							</parameter>
						</effect>
					</filter>
					<filter>
						<effect>
							<name>Opacity</name>
							<effectid>opacity</effectid>
							<effectcategory>motion</effectcategory>
							<effecttype>motion</effecttype>
							<mediatype>video</mediatype>
							<parameter>
								<parameterid>opacity</parameterid>
								<name>opacity</name>
								<valuemin>0</valuemin>
								<valuemax>100</valuemax>
								<value>100</value>
							</parameter>
						</effect>
					</filter>
					<sourcetrack>
						<mediatype>video</mediatype>
					</sourcetrack>
					<link>
						<linkclipref>00811001.MOV5</linkclipref>
						<mediatype>video</mediatype>
						<trackindex>1</trackindex>
						<clipindex>239</clipindex>
					</link>
					<link>
						<linkclipref>00811001.MOV6</linkclipref>
						<mediatype>audio</mediatype>
						<trackindex>1</trackindex>
						<clipindex>194</clipindex>
					</link>
					<link>
						<linkclipref>00811001.MOV7</linkclipref>
						<mediatype>audio</mediatype>
						<trackindex>2</trackindex>
						<clipindex>194</clipindex>
					</link>
					<fielddominance>upper</fielddominance>
					<itemhistory>
						<uuid>0B869414-92D5-4201-BD44-71B33080B1F9</uuid>
					</itemhistory>
				</clipitem>
				<clipitem id="00816001.MOV">
					<name>00816001.MOV</name>
					<duration>1308</duration>
					<rate>
						<ntsc>FALSE</ntsc>
						<timebase>25</timebase>
					</rate>
					<in>465</in>
					<out>586</out>
					<start>28491</start>
					<end>28612</end>
					<pixelaspectratio>Square</pixelaspectratio>
					<enabled>TRUE</enabled>
					<anamorphic>FALSE</anamorphic>
					<alphatype>none</alphatype>
					<masterclipid>00816001.MOV1</masterclipid>
					<logginginfo>
						<scene/>
						<shottake/>
						<lognote/>
						<good>FALSE</good>
					</logginginfo>
					<labels>
						<label2/>
					</labels>
					<comments>
						<mastercomment1/>
						<mastercomment2/>
						<mastercomment3/>
						<mastercomment4/>
					</comments>
					<file id="00816001 ">
						<name>00816001.MOV</name>
						<pathurl>file://localhost/Volumes/Askepott/Prosjekter/DNPR637010_Kra%CC%8Akeklubben_TEM_011212/Video/MELLOMSTIKK/S01E05%20Dyrebolig/DAG2/00816001.MOV</pathurl>
						<rate>
							<timebase>25</timebase>
						</rate>
						<duration>1308</duration>
						<timecode>
							<rate>
								<timebase>25</timebase>
							</rate>
							<string>18:23:22:24</string>
							<frame>1655074</frame>
							<displayformat>NDF</displayformat>
							<source>source</source>
							<reel>
								<name>Flash XDR</name>
							</reel>
						</timecode>
						<media>
							<video>
								<duration>1308</duration>
								<samplecharacteristics>
									<width>1920</width>
									<height>1080</height>
								</samplecharacteristics>
							</video>
							<audio>
								<samplecharacteristics>
									<samplerate>48000</samplerate>
									<depth>24</depth>
								</samplecharacteristics>
								<channelcount>1</channelcount>
							</audio>
							<audio>
								<samplecharacteristics>
									<samplerate>48000</samplerate>
									<depth>24</depth>
								</samplecharacteristics>
								<channelcount>1</channelcount>
							</audio>
						</media>
					</file>
					<filter>
						<enabled>TRUE</enabled>
						<start>-1</start>
						<end>-1</end>
						<effect>
							<name>Color Corrector - Lua til Carina</name>
							<effectid>Color Corrector</effectid>
							<effectcategory>Color Correction</effectcategory>
							<effecttype>filter</effecttype>
							<mediatype>video</mediatype>
							<parameter>
								<parameterid>dispmode</parameterid>
								<name>Display Mode</name>
								<valuemin>1</valuemin>
								<valuemax>3</valuemax>
								<valuelist>
									<valueentry>
										<name>Final</name>
										<value>1</value>
									</valueentry>
									<valueentry>
										<name>Matte</name>
										<value>2</value>
									</valueentry>
									<valueentry>
										<name>Source</name>
										<value>3</value>
									</valueentry>
								</valuelist>
								<value>1</value>
							</parameter>
							<parameter>
								<parameterid>label1</parameterid>
								<name>Level Controls</name>
								<value/>
							</parameter>
							<parameter>
								<parameterid>highlights</parameterid>
								<name>Highlights</name>
								<valuemin>64</valuemin>
								<valuemax>509</valuemax>
								<value>247</value>
							</parameter>
							<parameter>
								<parameterid>mids</parameterid>
								<name>Mids</name>
								<valuemin>0</valuemin>
								<valuemax>200</valuemax>
								<value>100</value>
							</parameter>
							<parameter>
								<parameterid>blacklevel</parameterid>
								<name>Blacks</name>
								<valuemin>-196</valuemin>
								<valuemax>254</valuemax>
								<value>-3</value>
							</parameter>
							<parameter>
								<parameterid>label2</parameterid>
								<name>Color Balance</name>
								<value/>
							</parameter>
							<parameter>
								<parameterid>hue</parameterid>
								<name>Angle</name>
								<valuemin>-180</valuemin>
								<valuemax>180</valuemax>
								<value>-33</value>
							</parameter>
							<parameter>
								<parameterid>mag</parameterid>
								<name>Magnitude</name>
								<valuemin>0</valuemin>
								<valuemax>200</valuemax>
								<value>0</value>
							</parameter>
							<parameter>
								<parameterid>label4</parameterid>
								<name>Color Controls</name>
								<value/>
							</parameter>
							<parameter>
								<parameterid>chroma</parameterid>
								<name>Saturation</name>
								<valuemin>0</valuemin>
								<valuemax>200</valuemax>
								<value>84</value>
							</parameter>
							<parameter>
								<parameterid>phase</parameterid>
								<name>Phase shift</name>
								<valuemin>-180</valuemin>
								<valuemax>180</valuemax>
								<value>0</value>
							</parameter>
							<parameter>
								<parameterid>label5</parameterid>
								<name>Limit Effect Controls</name>
								<value/>
							</parameter>
							<parameter>
								<parameterid>dochroma</parameterid>
								<name>Limit on Chroma</name>
								<value>TRUE</value>
							</parameter>
							<parameter>
								<parameterid>centerang</parameterid>
								<name>Chroma Center</name>
								<valuemin>-760</valuemin>
								<valuemax>760</valuemax>
								<value>322.256</value>
							</parameter>
							<parameter>
								<parameterid>chromawidth</parameterid>
								<name>Chroma Width</name>
								<valuemin>0</valuemin>
								<valuemax>360</valuemax>
								<value>7.49567</value>
							</parameter>
							<parameter>
								<parameterid>chromasoft</parameterid>
								<name>Chroma Softness</name>
								<valuemin>0</valuemin>
								<valuemax>180</valuemax>
								<value>10.6152</value>
							</parameter>
							<parameter>
								<parameterid>dosat</parameterid>
								<name>Limit on Saturation</name>
								<value>TRUE</value>
							</parameter>
							<parameter>
								<parameterid>satmin</parameterid>
								<name>Sat. Minimum</name>
								<valuemin>0</valuemin>
								<valuemax>125</valuemax>
								<value>36.7837</value>
							</parameter>
							<parameter>
								<parameterid>satwidth</parameterid>
								<name>Sat. Width</name>
								<valuemin>0</valuemin>
								<valuemax>125</valuemax>
								<value>84.0889</value>
							</parameter>
							<parameter>
								<parameterid>satsoft</parameterid>
								<name>Sat. Softness</name>
								<valuemin>0</valuemin>
								<valuemax>125</valuemax>
								<value>5</value>
							</parameter>
							<parameter>
								<parameterid>doluma</parameterid>
								<name>Limit on Luma</name>
								<value>TRUE</value>
							</parameter>
							<parameter>
								<parameterid>lumamin</parameterid>
								<name>Luma Minimum</name>
								<valuemin>0</valuemin>
								<valuemax>120</valuemax>
								<value>0.939667</value>
							</parameter>
							<parameter>
								<parameterid>lumawidth</parameterid>
								<name>Luma Width</name>
								<valuemin>0</valuemin>
								<valuemax>120</valuemax>
								<value>115.45</value>
							</parameter>
							<parameter>
								<parameterid>lumasoft</parameterid>
								<name>Luma Softness</name>
								<valuemin>0</valuemin>
								<valuemax>120</valuemax>
								<value>15.1099</value>
							</parameter>
							<parameter>
								<parameterid>label6</parameterid>
								<name>Edge Control</name>
								<value/>
							</parameter>
							<parameter>
								<parameterid>edgethin</parameterid>
								<name>Thin/Spread</name>
								<valuemin>-100</valuemin>
								<valuemax>100</valuemax>
								<value>0</value>
							</parameter>
							<parameter>
								<parameterid>edgefeather</parameterid>
								<name>Softening</name>
								<valuemin>0</valuemin>
								<valuemax>100</valuemax>
								<value>0</value>
							</parameter>
							<parameter>
								<parameterid>label7</parameterid>
								<name>Mask Control</name>
								<value/>
							</parameter>
							<parameter>
								<parameterid>invertsel</parameterid>
								<name>Invert</name>
								<value>FALSE</value>
							</parameter>
							<parameter>
								<parameterid>debugshow</parameterid>
								<name>Show Stats</name>
								<value>FALSE</value>
							</parameter>
						</effect>
					</filter>
					<filter>
						<enabled>TRUE</enabled>
						<start>-1</start>
						<end>-1</end>
						<effect>
							<name>G Simple Curves</name>
							<effectcategory>Nattress Big Box of Tricks - Levels and Curves</effectcategory>
							<effecttype>filter</effecttype>
							<mediatype>video</mediatype>
							<parameter>
								<parameterid>colourspace</parameterid>
								<name>Colour Space</name>
								<valuemin>1</valuemin>
								<valuemax>2</valuemax>
								<valuelist>
									<valueentry>
										<name>RGB</name>
										<value>1</value>
									</valueentry>
									<valueentry>
										<name>Y'CbCr</name>
										<value>2</value>
									</valueentry>
								</valuelist>
								<value>1</value>
							</parameter>
							<parameter>
								<parameterid>showcurves</parameterid>
								<name>Show Curves</name>
								<value>FALSE</value>
							</parameter>
							<parameter>
								<parameterid>lvar</parameterid>
								<name>Levels Controls</name>
								<value>string</value>
							</parameter>
							<parameter>
								<parameterid>inw</parameterid>
								<name>White Level</name>
								<valuemin>0</valuemin>
								<valuemax>255</valuemax>
								<value>255</value>
							</parameter>
							<parameter>
								<parameterid>inb</parameterid>
								<name>Black Level</name>
								<valuemin>0</valuemin>
								<valuemax>255</valuemax>
								<value>0</value>
							</parameter>
							<parameter>
								<parameterid>outw</parameterid>
								<name>White Output</name>
								<valuemin>0</valuemin>
								<valuemax>255</valuemax>
								<value>238</value>
							</parameter>
							<parameter>
								<parameterid>outb</parameterid>
								<name>Black Output</name>
								<valuemin>0</valuemin>
								<valuemax>255</valuemax>
								<value>0</value>
							</parameter>
							<parameter>
								<parameterid>cvar</parameterid>
								<name>Curves Controls</name>
								<value>string</value>
							</parameter>
							<parameter>
								<parameterid>curvew</parameterid>
								<name>White Curve</name>
								<valuemin>-100</valuemin>
								<valuemax>100</valuemax>
								<value>8</value>
							</parameter>
							<parameter>
								<parameterid>curveb</parameterid>
								<name>Black Curve</name>
								<valuemin>-100</valuemin>
								<valuemax>100</valuemax>
								<value>-8</value>
							</parameter>
							<parameter>
								<parameterid>clipoutput</parameterid>
								<name>Clip Output Levels</name>
								<value>FALSE</value>
							</parameter>
							<parameter>
								<parameterid>copyright</parameterid>
								<name>© www.nattress.com</name>
								<value>string</value>
							</parameter>
						</effect>
					</filter>
					<filter>
						<effect>
							<name>Basic Motion</name>
							<effectid>basic</effectid>
							<effectcategory>motion</effectcategory>
							<effecttype>motion</effecttype>
							<mediatype>video</mediatype>
							<parameter>
								<parameterid>scale</parameterid>
								<name>Scale</name>
								<valuemin>0</valuemin>
								<valuemax>1000</valuemax>
								<value>100</value>
							</parameter>
							<parameter>
								<parameterid>rotation</parameterid>
								<name>Rotation</name>
								<valuemin>-8640</valuemin>
								<valuemax>8640</valuemax>
								<value>0</value>
							</parameter>
							<parameter>
								<parameterid>center</parameterid>
								<name>Center</name>
								<value>
									<horiz>0</horiz>
									<vert>0</vert>
								</value>
							</parameter>
							<parameter>
								<parameterid>centerOffset</parameterid>
								<name>Anchor Point</name>
								<value>
									<horiz>0</horiz>
									<vert>0</vert>
								</value>
							</parameter>
						</effect>
					</filter>
					<filter>
						<enabled>FALSE</enabled>
						<effect>
							<name>Drop Shadow</name>
							<effectid>dropshadow</effectid>
							<effectcategory>motion</effectcategory>
							<effecttype>motion</effecttype>
							<mediatype>video</mediatype>
							<parameter>
								<parameterid>offset</parameterid>
								<name>offset</name>
								<valuemin>-100</valuemin>
								<valuemax>100</valuemax>
								<value>2</value>
							</parameter>
							<parameter>
								<parameterid>angle</parameterid>
								<name>angle</name>
								<valuemin>-720</valuemin>
								<valuemax>720</valuemax>
								<value>135</value>
							</parameter>
							<parameter>
								<parameterid>color</parameterid>
								<name>color</name>
								<value>
									<alpha>0</alpha>
									<red>0</red>
									<green>0</green>
									<blue>0</blue>
								</value>
							</parameter>
							<parameter>
								<parameterid>softness</parameterid>
								<name>softness</name>
								<valuemin>0</valuemin>
								<valuemax>100</valuemax>
								<value>10</value>
							</parameter>
							<parameter>
								<parameterid>opacity</parameterid>
								<name>opacity</name>
								<valuemin>0</valuemin>
								<valuemax>100</valuemax>
								<value>50</value>
							</parameter>
						</effect>
					</filter>
					<filter>
						<enabled>FALSE</enabled>
						<effect>
							<name>Motion Blur</name>
							<effectid>motionblur</effectid>
							<effectcategory>motion</effectcategory>
							<effecttype>motion</effecttype>
							<mediatype>video</mediatype>
							<parameter>
								<parameterid>duration</parameterid>
								<name>% Blur</name>
								<valuemin>0</valuemin>
								<valuemax>1000</valuemax>
								<value>500</value>
							</parameter>
							<parameter>
								<parameterid>samples</parameterid>
								<name>Samples</name>
								<valuemin>1</valuemin>
								<valuemax>16</valuemax>
								<value>4</value>
							</parameter>
						</effect>
					</filter>
					<filter>
						<effect>
							<name>Crop</name>
							<effectid>crop</effectid>
							<effectcategory>motion</effectcategory>
							<effecttype>motion</effecttype>
							<mediatype>video</mediatype>
							<parameter>
								<parameterid>left</parameterid>
								<name>left</name>
								<valuemin>0</valuemin>
								<valuemax>100</valuemax>
								<value>0</value>
							</parameter>
							<parameter>
								<parameterid>right</parameterid>
								<name>right</name>
								<valuemin>0</valuemin>
								<valuemax>100</valuemax>
								<value>0</value>
							</parameter>
							<parameter>
								<parameterid>top</parameterid>
								<name>top</name>
								<valuemin>0</valuemin>
								<valuemax>100</valuemax>
								<value>0</value>
							</parameter>
							<parameter>
								<parameterid>bottom</parameterid>
								<name>bottom</name>
								<valuemin>0</valuemin>
								<valuemax>100</valuemax>
								<value>0</value>
							</parameter>
							<parameter>
								<parameterid>edgefeather</parameterid>
								<name>edgefeather</name>
								<valuemin>0</valuemin>
								<valuemax>100</valuemax>
								<value>0</value>
							</parameter>
						</effect>
					</filter>
					<filter>
						<effect>
							<name>Distort</name>
							<effectid>deformation</effectid>
							<effectcategory>motion</effectcategory>
							<effecttype>motion</effecttype>
							<mediatype>video</mediatype>
							<parameter>
								<parameterid>ulcorner</parameterid>
								<name>Upper Left</name>
								<value>
									<horiz>-0.5</horiz>
									<vert>-0.5</vert>
								</value>
							</parameter>
							<parameter>
								<parameterid>urcorner</parameterid>
								<name>Upper Right</name>
								<value>
									<horiz>0.5</horiz>
									<vert>-0.5</vert>
								</value>
							</parameter>
							<parameter>
								<parameterid>lrcorner</parameterid>
								<name>Lower Right</name>
								<value>
									<horiz>0.5</horiz>
									<vert>0.5</vert>
								</value>
							</parameter>
							<parameter>
								<parameterid>llcorner</parameterid>
								<name>Lower Left</name>
								<value>
									<horiz>-0.5</horiz>
									<vert>0.5</vert>
								</value>
							</parameter>
							<parameter>
								<parameterid>aspect</parameterid>
								<name>Aspect</name>
								<valuemin>-10000</valuemin>
								<valuemax>10000</valuemax>
								<value>0</value>
							</parameter>
						</effect>
					</filter>
					<filter>
						<effect>
							<name>Opacity</name>
							<effectid>opacity</effectid>
							<effectcategory>motion</effectcategory>
							<effecttype>motion</effecttype>
							<mediatype>video</mediatype>
							<parameter>
								<parameterid>opacity</parameterid>
								<name>opacity</name>
								<valuemin>0</valuemin>
								<valuemax>100</valuemax>
								<value>100</value>
							</parameter>
						</effect>
					</filter>
					<sourcetrack>
						<mediatype>video</mediatype>
					</sourcetrack>
					<fielddominance>upper</fielddominance>
					<itemhistory>
						<uuid>F6D43E76-E4D7-4D46-85E2-2017FEC8E2E5</uuid>
					</itemhistory>
				</clipitem>
				<clipitem id="00823001.MOV">
					<name>00823001.MOV</name>
					<duration>2676</duration>
					<rate>
						<ntsc>FALSE</ntsc>
						<timebase>25</timebase>
					</rate>
					<in>101</in>
					<out>196</out>
					<start>28612</start>
					<end>28707</end>
					<pixelaspectratio>Square</pixelaspectratio>
					<enabled>TRUE</enabled>
					<anamorphic>FALSE</anamorphic>
					<alphatype>none</alphatype>
					<masterclipid>00823001.MOV1</masterclipid>
					<logginginfo>
						<scene/>
						<shottake/>
						<lognote/>
						<good>FALSE</good>
					</logginginfo>
					<labels>
						<label2/>
					</labels>
					<comments>
						<mastercomment1/>
						<mastercomment2/>
						<mastercomment3/>
						<mastercomment4/>
					</comments>
					<file id="00823001 ">
						<name>00823001.MOV</name>
						<pathurl>file://localhost/Volumes/Askepott/Prosjekter/DNPR637010_Kra%CC%8Akeklubben_TEM_011212/Video/MELLOMSTIKK/S01E05%20Dyrebolig/DAG2/00823001.MOV</pathurl>
						<rate>
							<timebase>25</timebase>
						</rate>
						<duration>2676</duration>
						<timecode>
							<rate>
								<timebase>25</timebase>
							</rate>
							<string>18:28:21:13</string>
							<frame>1662538</frame>
							<displayformat>NDF</displayformat>
							<source>source</source>
							<reel>
								<name>Flash XDR</name>
							</reel>
						</timecode>
						<media>
							<video>
								<duration>2676</duration>
								<samplecharacteristics>
									<width>1920</width>
									<height>1080</height>
								</samplecharacteristics>
							</video>
							<audio>
								<samplecharacteristics>
									<samplerate>48000</samplerate>
									<depth>24</depth>
								</samplecharacteristics>
								<channelcount>1</channelcount>
							</audio>
							<audio>
								<samplecharacteristics>
									<samplerate>48000</samplerate>
									<depth>24</depth>
								</samplecharacteristics>
								<channelcount>1</channelcount>
							</audio>
						</media>
					</file>
					<filter>
						<enabled>TRUE</enabled>
						<start>-1</start>
						<end>-1</end>
						<effect>
							<name>Color Corrector - Lua til Carina</name>
							<effectid>Color Corrector</effectid>
							<effectcategory>Color Correction</effectcategory>
							<effecttype>filter</effecttype>
							<mediatype>video</mediatype>
							<parameter>
								<parameterid>dispmode</parameterid>
								<name>Display Mode</name>
								<valuemin>1</valuemin>
								<valuemax>3</valuemax>
								<valuelist>
									<valueentry>
										<name>Final</name>
										<value>1</value>
									</valueentry>
									<valueentry>
										<name>Matte</name>
										<value>2</value>
									</valueentry>
									<valueentry>
										<name>Source</name>
										<value>3</value>
									</valueentry>
								</valuelist>
								<value>1</value>
							</parameter>
							<parameter>
								<parameterid>label1</parameterid>
								<name>Level Controls</name>
								<value/>
							</parameter>
							<parameter>
								<parameterid>highlights</parameterid>
								<name>Highlights</name>
								<valuemin>64</valuemin>
								<valuemax>509</valuemax>
								<value>247</value>
							</parameter>
							<parameter>
								<parameterid>mids</parameterid>
								<name>Mids</name>
								<valuemin>0</valuemin>
								<valuemax>200</valuemax>
								<value>100</value>
							</parameter>
							<parameter>
								<parameterid>blacklevel</parameterid>
								<name>Blacks</name>
								<valuemin>-196</valuemin>
								<valuemax>254</valuemax>
								<value>-3</value>
							</parameter>
							<parameter>
								<parameterid>label2</parameterid>
								<name>Color Balance</name>
								<value/>
							</parameter>
							<parameter>
								<parameterid>hue</parameterid>
								<name>Angle</name>
								<valuemin>-180</valuemin>
								<valuemax>180</valuemax>
								<value>-33</value>
							</parameter>
							<parameter>
								<parameterid>mag</parameterid>
								<name>Magnitude</name>
								<valuemin>0</valuemin>
								<valuemax>200</valuemax>
								<value>0</value>
							</parameter>
							<parameter>
								<parameterid>label4</parameterid>
								<name>Color Controls</name>
								<value/>
							</parameter>
							<parameter>
								<parameterid>chroma</parameterid>
								<name>Saturation</name>
								<valuemin>0</valuemin>
								<valuemax>200</valuemax>
								<value>84</value>
							</parameter>
							<parameter>
								<parameterid>phase</parameterid>
								<name>Phase shift</name>
								<valuemin>-180</valuemin>
								<valuemax>180</valuemax>
								<value>0</value>
							</parameter>
							<parameter>
								<parameterid>label5</parameterid>
								<name>Limit Effect Controls</name>
								<value/>
							</parameter>
							<parameter>
								<parameterid>dochroma</parameterid>
								<name>Limit on Chroma</name>
								<value>TRUE</value>
							</parameter>
							<parameter>
								<parameterid>centerang</parameterid>
								<name>Chroma Center</name>
								<valuemin>-760</valuemin>
								<valuemax>760</valuemax>
								<value>322.256</value>
							</parameter>
							<parameter>
								<parameterid>chromawidth</parameterid>
								<name>Chroma Width</name>
								<valuemin>0</valuemin>
								<valuemax>360</valuemax>
								<value>7.49567</value>
							</parameter>
							<parameter>
								<parameterid>chromasoft</parameterid>
								<name>Chroma Softness</name>
								<valuemin>0</valuemin>
								<valuemax>180</valuemax>
								<value>10.6152</value>
							</parameter>
							<parameter>
								<parameterid>dosat</parameterid>
								<name>Limit on Saturation</name>
								<value>TRUE</value>
							</parameter>
							<parameter>
								<parameterid>satmin</parameterid>
								<name>Sat. Minimum</name>
								<valuemin>0</valuemin>
								<valuemax>125</valuemax>
								<value>36.7837</value>
							</parameter>
							<parameter>
								<parameterid>satwidth</parameterid>
								<name>Sat. Width</name>
								<valuemin>0</valuemin>
								<valuemax>125</valuemax>
								<value>84.0889</value>
							</parameter>
							<parameter>
								<parameterid>satsoft</parameterid>
								<name>Sat. Softness</name>
								<valuemin>0</valuemin>
								<valuemax>125</valuemax>
								<value>5</value>
							</parameter>
							<parameter>
								<parameterid>doluma</parameterid>
								<name>Limit on Luma</name>
								<value>TRUE</value>
							</parameter>
							<parameter>
								<parameterid>lumamin</parameterid>
								<name>Luma Minimum</name>
								<valuemin>0</valuemin>
								<valuemax>120</valuemax>
								<value>0.939667</value>
							</parameter>
							<parameter>
								<parameterid>lumawidth</parameterid>
								<name>Luma Width</name>
								<valuemin>0</valuemin>
								<valuemax>120</valuemax>
								<value>115.45</value>
							</parameter>
							<parameter>
								<parameterid>lumasoft</parameterid>
								<name>Luma Softness</name>
								<valuemin>0</valuemin>
								<valuemax>120</valuemax>
								<value>15.1099</value>
							</parameter>
							<parameter>
								<parameterid>label6</parameterid>
								<name>Edge Control</name>
								<value/>
							</parameter>
							<parameter>
								<parameterid>edgethin</parameterid>
								<name>Thin/Spread</name>
								<valuemin>-100</valuemin>
								<valuemax>100</valuemax>
								<value>0</value>
							</parameter>
							<parameter>
								<parameterid>edgefeather</parameterid>
								<name>Softening</name>
								<valuemin>0</valuemin>
								<valuemax>100</valuemax>
								<value>0</value>
							</parameter>
							<parameter>
								<parameterid>label7</parameterid>
								<name>Mask Control</name>
								<value/>
							</parameter>
							<parameter>
								<parameterid>invertsel</parameterid>
								<name>Invert</name>
								<value>FALSE</value>
							</parameter>
							<parameter>
								<parameterid>debugshow</parameterid>
								<name>Show Stats</name>
								<value>FALSE</value>
							</parameter>
						</effect>
					</filter>
					<filter>
						<enabled>TRUE</enabled>
						<start>-1</start>
						<end>-1</end>
						<effect>
							<name>G Simple Curves</name>
							<effectcategory>Nattress Big Box of Tricks - Levels and Curves</effectcategory>
							<effecttype>filter</effecttype>
							<mediatype>video</mediatype>
							<parameter>
								<parameterid>colourspace</parameterid>
								<name>Colour Space</name>
								<valuemin>1</valuemin>
								<valuemax>2</valuemax>
								<valuelist>
									<valueentry>
										<name>RGB</name>
										<value>1</value>
									</valueentry>
									<valueentry>
										<name>Y'CbCr</name>
										<value>2</value>
									</valueentry>
								</valuelist>
								<value>1</value>
							</parameter>
							<parameter>
								<parameterid>showcurves</parameterid>
								<name>Show Curves</name>
								<value>FALSE</value>
							</parameter>
							<parameter>
								<parameterid>lvar</parameterid>
								<name>Levels Controls</name>
								<value>string</value>
							</parameter>
							<parameter>
								<parameterid>inw</parameterid>
								<name>White Level</name>
								<valuemin>0</valuemin>
								<valuemax>255</valuemax>
								<value>255</value>
							</parameter>
							<parameter>
								<parameterid>inb</parameterid>
								<name>Black Level</name>
								<valuemin>0</valuemin>
								<valuemax>255</valuemax>
								<value>0</value>
							</parameter>
							<parameter>
								<parameterid>outw</parameterid>
								<name>White Output</name>
								<valuemin>0</valuemin>
								<valuemax>255</valuemax>
								<value>238</value>
							</parameter>
							<parameter>
								<parameterid>outb</parameterid>
								<name>Black Output</name>
								<valuemin>0</valuemin>
								<valuemax>255</valuemax>
								<value>0</value>
							</parameter>
							<parameter>
								<parameterid>cvar</parameterid>
								<name>Curves Controls</name>
								<value>string</value>
							</parameter>
							<parameter>
								<parameterid>curvew</parameterid>
								<name>White Curve</name>
								<valuemin>-100</valuemin>
								<valuemax>100</valuemax>
								<value>-13</value>
							</parameter>
							<parameter>
								<parameterid>curveb</parameterid>
								<name>Black Curve</name>
								<valuemin>-100</valuemin>
								<valuemax>100</valuemax>
								<value>5</value>
							</parameter>
							<parameter>
								<parameterid>clipoutput</parameterid>
								<name>Clip Output Levels</name>
								<value>FALSE</value>
							</parameter>
							<parameter>
								<parameterid>copyright</parameterid>
								<name>© www.nattress.com</name>
								<value>string</value>
							</parameter>
						</effect>
					</filter>
					<sourcetrack>
						<mediatype>video</mediatype>
					</sourcetrack>
					<link>
						<linkclipref>00823001.MOV</linkclipref>
						<mediatype>video</mediatype>
						<trackindex>1</trackindex>
						<clipindex>241</clipindex>
					</link>
					<link>
						<linkclipref>00823001.MOV2</linkclipref>
						<mediatype>audio</mediatype>
						<trackindex>1</trackindex>
						<clipindex>197</clipindex>
					</link>
					<link>
						<linkclipref>00823001.MOV3</linkclipref>
						<mediatype>audio</mediatype>
						<trackindex>2</trackindex>
						<clipindex>197</clipindex>
					</link>
					<fielddominance>upper</fielddominance>
					<itemhistory>
						<uuid>624F9BFB-2F87-40C5-87BD-6C518ADF16D1</uuid>
					</itemhistory>
				</clipitem>
				<clipitem id="00821001.MOV">
					<name>00821001.MOV</name>
					<duration>3420</duration>
					<rate>
						<ntsc>FALSE</ntsc>
						<timebase>25</timebase>
					</rate>
					<in>450</in>
					<out>596</out>
					<start>28707</start>
					<end>28853</end>
					<pixelaspectratio>Square</pixelaspectratio>
					<enabled>TRUE</enabled>
					<anamorphic>FALSE</anamorphic>
					<alphatype>none</alphatype>
					<masterclipid>00821001.MOV1</masterclipid>
					<logginginfo>
						<scene/>
						<shottake/>
						<lognote/>
						<good>FALSE</good>
					</logginginfo>
					<labels>
						<label2/>
					</labels>
					<comments>
						<mastercomment1/>
						<mastercomment2/>
						<mastercomment3/>
						<mastercomment4/>
					</comments>
					<file id="00821001 ">
						<name>00821001.MOV</name>
						<pathurl>file://localhost/Volumes/Askepott/Prosjekter/DNPR637010_Kra%CC%8Akeklubben_TEM_011212/Video/MELLOMSTIKK/S01E05%20Dyrebolig/DAG2/00821001.MOV</pathurl>
						<rate>
							<timebase>25</timebase>
						</rate>
						<duration>3420</duration>
						<timecode>
							<rate>
								<timebase>25</timebase>
							</rate>
							<string>18:25:32:10</string>
							<frame>1658310</frame>
							<displayformat>NDF</displayformat>
							<source>source</source>
							<reel>
								<name>Flash XDR</name>
							</reel>
						</timecode>
						<media>
							<video>
								<duration>3420</duration>
								<samplecharacteristics>
									<width>1920</width>
									<height>1080</height>
								</samplecharacteristics>
							</video>
							<audio>
								<samplecharacteristics>
									<samplerate>48000</samplerate>
									<depth>24</depth>
								</samplecharacteristics>
								<channelcount>1</channelcount>
							</audio>
							<audio>
								<samplecharacteristics>
									<samplerate>48000</samplerate>
									<depth>24</depth>
								</samplecharacteristics>
								<channelcount>1</channelcount>
							</audio>
						</media>
					</file>
					<filter>
						<enabled>TRUE</enabled>
						<start>-1</start>
						<end>-1</end>
						<effect>
							<name>Color Corrector - Lua til Carina</name>
							<effectid>Color Corrector</effectid>
							<effectcategory>Color Correction</effectcategory>
							<effecttype>filter</effecttype>
							<mediatype>video</mediatype>
							<parameter>
								<parameterid>dispmode</parameterid>
								<name>Display Mode</name>
								<valuemin>1</valuemin>
								<valuemax>3</valuemax>
								<valuelist>
									<valueentry>
										<name>Final</name>
										<value>1</value>
									</valueentry>
									<valueentry>
										<name>Matte</name>
										<value>2</value>
									</valueentry>
									<valueentry>
										<name>Source</name>
										<value>3</value>
									</valueentry>
								</valuelist>
								<value>1</value>
							</parameter>
							<parameter>
								<parameterid>label1</parameterid>
								<name>Level Controls</name>
								<value/>
							</parameter>
							<parameter>
								<parameterid>highlights</parameterid>
								<name>Highlights</name>
								<valuemin>64</valuemin>
								<valuemax>509</valuemax>
								<value>247</value>
							</parameter>
							<parameter>
								<parameterid>mids</parameterid>
								<name>Mids</name>
								<valuemin>0</valuemin>
								<valuemax>200</valuemax>
								<value>100</value>
							</parameter>
							<parameter>
								<parameterid>blacklevel</parameterid>
								<name>Blacks</name>
								<valuemin>-196</valuemin>
								<valuemax>254</valuemax>
								<value>-3</value>
							</parameter>
							<parameter>
								<parameterid>label2</parameterid>
								<name>Color Balance</name>
								<value/>
							</parameter>
							<parameter>
								<parameterid>hue</parameterid>
								<name>Angle</name>
								<valuemin>-180</valuemin>
								<valuemax>180</valuemax>
								<value>-33</value>
							</parameter>
							<parameter>
								<parameterid>mag</parameterid>
								<name>Magnitude</name>
								<valuemin>0</valuemin>
								<valuemax>200</valuemax>
								<value>0</value>
							</parameter>
							<parameter>
								<parameterid>label4</parameterid>
								<name>Color Controls</name>
								<value/>
							</parameter>
							<parameter>
								<parameterid>chroma</parameterid>
								<name>Saturation</name>
								<valuemin>0</valuemin>
								<valuemax>200</valuemax>
								<value>84</value>
							</parameter>
							<parameter>
								<parameterid>phase</parameterid>
								<name>Phase shift</name>
								<valuemin>-180</valuemin>
								<valuemax>180</valuemax>
								<value>0</value>
							</parameter>
							<parameter>
								<parameterid>label5</parameterid>
								<name>Limit Effect Controls</name>
								<value/>
							</parameter>
							<parameter>
								<parameterid>dochroma</parameterid>
								<name>Limit on Chroma</name>
								<value>TRUE</value>
							</parameter>
							<parameter>
								<parameterid>centerang</parameterid>
								<name>Chroma Center</name>
								<valuemin>-760</valuemin>
								<valuemax>760</valuemax>
								<value>322.256</value>
							</parameter>
							<parameter>
								<parameterid>chromawidth</parameterid>
								<name>Chroma Width</name>
								<valuemin>0</valuemin>
								<valuemax>360</valuemax>
								<value>7.49567</value>
							</parameter>
							<parameter>
								<parameterid>chromasoft</parameterid>
								<name>Chroma Softness</name>
								<valuemin>0</valuemin>
								<valuemax>180</valuemax>
								<value>10.6152</value>
							</parameter>
							<parameter>
								<parameterid>dosat</parameterid>
								<name>Limit on Saturation</name>
								<value>TRUE</value>
							</parameter>
							<parameter>
								<parameterid>satmin</parameterid>
								<name>Sat. Minimum</name>
								<valuemin>0</valuemin>
								<valuemax>125</valuemax>
								<value>36.7837</value>
							</parameter>
							<parameter>
								<parameterid>satwidth</parameterid>
								<name>Sat. Width</name>
								<valuemin>0</valuemin>
								<valuemax>125</valuemax>
								<value>84.0889</value>
							</parameter>
							<parameter>
								<parameterid>satsoft</parameterid>
								<name>Sat. Softness</name>
								<valuemin>0</valuemin>
								<valuemax>125</valuemax>
								<value>5</value>
							</parameter>
							<parameter>
								<parameterid>doluma</parameterid>
								<name>Limit on Luma</name>
								<value>TRUE</value>
							</parameter>
							<parameter>
								<parameterid>lumamin</parameterid>
								<name>Luma Minimum</name>
								<valuemin>0</valuemin>
								<valuemax>120</valuemax>
								<value>0.939667</value>
							</parameter>
							<parameter>
								<parameterid>lumawidth</parameterid>
								<name>Luma Width</name>
								<valuemin>0</valuemin>
								<valuemax>120</valuemax>
								<value>115.45</value>
							</parameter>
							<parameter>
								<parameterid>lumasoft</parameterid>
								<name>Luma Softness</name>
								<valuemin>0</valuemin>
								<valuemax>120</valuemax>
								<value>15.1099</value>
							</parameter>
							<parameter>
								<parameterid>label6</parameterid>
								<name>Edge Control</name>
								<value/>
							</parameter>
							<parameter>
								<parameterid>edgethin</parameterid>
								<name>Thin/Spread</name>
								<valuemin>-100</valuemin>
								<valuemax>100</valuemax>
								<value>0</value>
							</parameter>
							<parameter>
								<parameterid>edgefeather</parameterid>
								<name>Softening</name>
								<valuemin>0</valuemin>
								<valuemax>100</valuemax>
								<value>0</value>
							</parameter>
							<parameter>
								<parameterid>label7</parameterid>
								<name>Mask Control</name>
								<value/>
							</parameter>
							<parameter>
								<parameterid>invertsel</parameterid>
								<name>Invert</name>
								<value>FALSE</value>
							</parameter>
							<parameter>
								<parameterid>debugshow</parameterid>
								<name>Show Stats</name>
								<value>FALSE</value>
							</parameter>
						</effect>
					</filter>
					<filter>
						<enabled>TRUE</enabled>
						<start>-1</start>
						<end>-1</end>
						<effect>
							<name>G Simple Curves</name>
							<effectcategory>Nattress Big Box of Tricks - Levels and Curves</effectcategory>
							<effecttype>filter</effecttype>
							<mediatype>video</mediatype>
							<parameter>
								<parameterid>colourspace</parameterid>
								<name>Colour Space</name>
								<valuemin>1</valuemin>
								<valuemax>2</valuemax>
								<valuelist>
									<valueentry>
										<name>RGB</name>
										<value>1</value>
									</valueentry>
									<valueentry>
										<name>Y'CbCr</name>
										<value>2</value>
									</valueentry>
								</valuelist>
								<value>1</value>
							</parameter>
							<parameter>
								<parameterid>showcurves</parameterid>
								<name>Show Curves</name>
								<value>FALSE</value>
							</parameter>
							<parameter>
								<parameterid>lvar</parameterid>
								<name>Levels Controls</name>
								<value>string</value>
							</parameter>
							<parameter>
								<parameterid>inw</parameterid>
								<name>White Level</name>
								<valuemin>0</valuemin>
								<valuemax>255</valuemax>
								<value>255</value>
							</parameter>
							<parameter>
								<parameterid>inb</parameterid>
								<name>Black Level</name>
								<valuemin>0</valuemin>
								<valuemax>255</valuemax>
								<value>0</value>
							</parameter>
							<parameter>
								<parameterid>outw</parameterid>
								<name>White Output</name>
								<valuemin>0</valuemin>
								<valuemax>255</valuemax>
								<value>238</value>
							</parameter>
							<parameter>
								<parameterid>outb</parameterid>
								<name>Black Output</name>
								<valuemin>0</valuemin>
								<valuemax>255</valuemax>
								<value>0</value>
							</parameter>
							<parameter>
								<parameterid>cvar</parameterid>
								<name>Curves Controls</name>
								<value>string</value>
							</parameter>
							<parameter>
								<parameterid>curvew</parameterid>
								<name>White Curve</name>
								<valuemin>-100</valuemin>
								<valuemax>100</valuemax>
								<value>8</value>
							</parameter>
							<parameter>
								<parameterid>curveb</parameterid>
								<name>Black Curve</name>
								<valuemin>-100</valuemin>
								<valuemax>100</valuemax>
								<value>-8</value>
							</parameter>
							<parameter>
								<parameterid>clipoutput</parameterid>
								<name>Clip Output Levels</name>
								<value>FALSE</value>
							</parameter>
							<parameter>
								<parameterid>copyright</parameterid>
								<name>© www.nattress.com</name>
								<value>string</value>
							</parameter>
						</effect>
					</filter>
					<filter>
						<effect>
							<name>Basic Motion</name>
							<effectid>basic</effectid>
							<effectcategory>motion</effectcategory>
							<effecttype>motion</effecttype>
							<mediatype>video</mediatype>
							<parameter>
								<parameterid>scale</parameterid>
								<name>Scale</name>
								<valuemin>0</valuemin>
								<valuemax>1000</valuemax>
								<value>110</value>
							</parameter>
							<parameter>
								<parameterid>rotation</parameterid>
								<name>Rotation</name>
								<valuemin>-8640</valuemin>
								<valuemax>8640</valuemax>
								<value>0</value>
							</parameter>
							<parameter>
								<parameterid>center</parameterid>
								<name>Center</name>
								<keyframe>
									<when>2660</when>
									<value>
										<horiz>0.0404551</horiz>
										<vert>0.0472973</vert>
									</value>
								</keyframe>
								<keyframe>
									<when>2798</when>
									<value>
										<horiz>0.0015625</horiz>
										<vert>-0.00462963</vert>
									</value>
								</keyframe>
								<interpolation>
									<name>FCPCurve</name>
								</interpolation>
							</parameter>
							<parameter>
								<parameterid>centerOffset</parameterid>
								<name>Anchor Point</name>
								<value>
									<horiz>0</horiz>
									<vert>0</vert>
								</value>
							</parameter>
						</effect>
					</filter>
					<filter>
						<enabled>FALSE</enabled>
						<effect>
							<name>Drop Shadow</name>
							<effectid>dropshadow</effectid>
							<effectcategory>motion</effectcategory>
							<effecttype>motion</effecttype>
							<mediatype>video</mediatype>
							<parameter>
								<parameterid>offset</parameterid>
								<name>offset</name>
								<valuemin>-100</valuemin>
								<valuemax>100</valuemax>
								<value>2</value>
							</parameter>
							<parameter>
								<parameterid>angle</parameterid>
								<name>angle</name>
								<valuemin>-720</valuemin>
								<valuemax>720</valuemax>
								<value>135</value>
							</parameter>
							<parameter>
								<parameterid>color</parameterid>
								<name>color</name>
								<value>
									<alpha>0</alpha>
									<red>0</red>
									<green>0</green>
									<blue>0</blue>
								</value>
							</parameter>
							<parameter>
								<parameterid>softness</parameterid>
								<name>softness</name>
								<valuemin>0</valuemin>
								<valuemax>100</valuemax>
								<value>10</value>
							</parameter>
							<parameter>
								<parameterid>opacity</parameterid>
								<name>opacity</name>
								<valuemin>0</valuemin>
								<valuemax>100</valuemax>
								<value>50</value>
							</parameter>
						</effect>
					</filter>
					<filter>
						<enabled>FALSE</enabled>
						<effect>
							<name>Motion Blur</name>
							<effectid>motionblur</effectid>
							<effectcategory>motion</effectcategory>
							<effecttype>motion</effecttype>
							<mediatype>video</mediatype>
							<parameter>
								<parameterid>duration</parameterid>
								<name>% Blur</name>
								<valuemin>0</valuemin>
								<valuemax>1000</valuemax>
								<value>500</value>
							</parameter>
							<parameter>
								<parameterid>samples</parameterid>
								<name>Samples</name>
								<valuemin>1</valuemin>
								<valuemax>16</valuemax>
								<value>4</value>
							</parameter>
						</effect>
					</filter>
					<filter>
						<effect>
							<name>Crop</name>
							<effectid>crop</effectid>
							<effectcategory>motion</effectcategory>
							<effecttype>motion</effecttype>
							<mediatype>video</mediatype>
							<parameter>
								<parameterid>left</parameterid>
								<name>left</name>
								<valuemin>0</valuemin>
								<valuemax>100</valuemax>
								<value>0</value>
							</parameter>
							<parameter>
								<parameterid>right</parameterid>
								<name>right</name>
								<valuemin>0</valuemin>
								<valuemax>100</valuemax>
								<value>0</value>
							</parameter>
							<parameter>
								<parameterid>top</parameterid>
								<name>top</name>
								<valuemin>0</valuemin>
								<valuemax>100</valuemax>
								<value>0</value>
							</parameter>
							<parameter>
								<parameterid>bottom</parameterid>
								<name>bottom</name>
								<valuemin>0</valuemin>
								<valuemax>100</valuemax>
								<value>0</value>
							</parameter>
							<parameter>
								<parameterid>edgefeather</parameterid>
								<name>edgefeather</name>
								<valuemin>0</valuemin>
								<valuemax>100</valuemax>
								<value>0</value>
							</parameter>
						</effect>
					</filter>
					<filter>
						<effect>
							<name>Distort</name>
							<effectid>deformation</effectid>
							<effectcategory>motion</effectcategory>
							<effecttype>motion</effecttype>
							<mediatype>video</mediatype>
							<parameter>
								<parameterid>ulcorner</parameterid>
								<name>Upper Left</name>
								<value>
									<horiz>-0.5</horiz>
									<vert>-0.5</vert>
								</value>
							</parameter>
							<parameter>
								<parameterid>urcorner</parameterid>
								<name>Upper Right</name>
								<value>
									<horiz>0.5</horiz>
									<vert>-0.5</vert>
								</value>
							</parameter>
							<parameter>
								<parameterid>lrcorner</parameterid>
								<name>Lower Right</name>
								<value>
									<horiz>0.5</horiz>
									<vert>0.5</vert>
								</value>
							</parameter>
							<parameter>
								<parameterid>llcorner</parameterid>
								<name>Lower Left</name>
								<value>
									<horiz>-0.5</horiz>
									<vert>0.5</vert>
								</value>
							</parameter>
							<parameter>
								<parameterid>aspect</parameterid>
								<name>Aspect</name>
								<valuemin>-10000</valuemin>
								<valuemax>10000</valuemax>
								<value>0</value>
							</parameter>
						</effect>
					</filter>
					<filter>
						<effect>
							<name>Opacity</name>
							<effectid>opacity</effectid>
							<effectcategory>motion</effectcategory>
							<effecttype>motion</effecttype>
							<mediatype>video</mediatype>
							<parameter>
								<parameterid>opacity</parameterid>
								<name>opacity</name>
								<valuemin>0</valuemin>
								<valuemax>100</valuemax>
								<value>100</value>
							</parameter>
						</effect>
					</filter>
					<sourcetrack>
						<mediatype>video</mediatype>
					</sourcetrack>
					<link>
						<linkclipref>00821001.MOV</linkclipref>
						<mediatype>video</mediatype>
						<trackindex>1</trackindex>
						<clipindex>242</clipindex>
					</link>
					<link>
						<linkclipref>00821001.MOV2</linkclipref>
						<mediatype>audio</mediatype>
						<trackindex>1</trackindex>
						<clipindex>199</clipindex>
					</link>
					<link>
						<linkclipref>00821001.MOV3</linkclipref>
						<mediatype>audio</mediatype>
						<trackindex>2</trackindex>
						<clipindex>199</clipindex>
					</link>
					<fielddominance>upper</fielddominance>
					<itemhistory>
						<uuid>067ABD7A-41A1-4002-90AB-777572F2F2E0</uuid>
					</itemhistory>
				</clipitem>
				<clipitem id="00822001.MOV">
					<name>00822001.MOV</name>
					<duration>816</duration>
					<rate>
						<ntsc>FALSE</ntsc>
						<timebase>25</timebase>
					</rate>
					<in>563</in>
					<out>620</out>
					<start>28853</start>
					<end>28910</end>
					<pixelaspectratio>Square</pixelaspectratio>
					<enabled>TRUE</enabled>
					<anamorphic>FALSE</anamorphic>
					<alphatype>none</alphatype>
					<masterclipid>00822001.MOV1</masterclipid>
					<logginginfo>
						<scene/>
						<shottake/>
						<lognote/>
						<good>FALSE</good>
					</logginginfo>
					<labels>
						<label2/>
					</labels>
					<comments>
						<mastercomment1/>
						<mastercomment2/>
						<mastercomment3/>
						<mastercomment4/>
					</comments>
					<file id="00822001 ">
						<name>00822001.MOV</name>
						<pathurl>file://localhost/Volumes/Askepott/Prosjekter/DNPR637010_Kra%CC%8Akeklubben_TEM_011212/Video/MELLOMSTIKK/S01E05%20Dyrebolig/DAG2/00822001.MOV</pathurl>
						<rate>
							<timebase>25</timebase>
						</rate>
						<duration>816</duration>
						<timecode>
							<rate>
								<timebase>25</timebase>
							</rate>
							<string>18:27:49:01</string>
							<frame>1661726</frame>
							<displayformat>NDF</displayformat>
							<source>source</source>
							<reel>
								<name>Flash XDR</name>
							</reel>
						</timecode>
						<media>
							<video>
								<duration>816</duration>
								<samplecharacteristics>
									<width>1920</width>
									<height>1080</height>
								</samplecharacteristics>
							</video>
							<audio>
								<samplecharacteristics>
									<samplerate>48000</samplerate>
									<depth>24</depth>
								</samplecharacteristics>
								<channelcount>1</channelcount>
							</audio>
							<audio>
								<samplecharacteristics>
									<samplerate>48000</samplerate>
									<depth>24</depth>
								</samplecharacteristics>
								<channelcount>1</channelcount>
							</audio>
						</media>
					</file>
					<filter>
						<enabled>TRUE</enabled>
						<start>-1</start>
						<end>-1</end>
						<effect>
							<name>Color Corrector - Lua til Carina</name>
							<effectid>Color Corrector</effectid>
							<effectcategory>Color Correction</effectcategory>
							<effecttype>filter</effecttype>
							<mediatype>video</mediatype>
							<parameter>
								<parameterid>dispmode</parameterid>
								<name>Display Mode</name>
								<valuemin>1</valuemin>
								<valuemax>3</valuemax>
								<valuelist>
									<valueentry>
										<name>Final</name>
										<value>1</value>
									</valueentry>
									<valueentry>
										<name>Matte</name>
										<value>2</value>
									</valueentry>
									<valueentry>
										<name>Source</name>
										<value>3</value>
									</valueentry>
								</valuelist>
								<value>1</value>
							</parameter>
							<parameter>
								<parameterid>label1</parameterid>
								<name>Level Controls</name>
								<value/>
							</parameter>
							<parameter>
								<parameterid>highlights</parameterid>
								<name>Highlights</name>
								<valuemin>64</valuemin>
								<valuemax>509</valuemax>
								<value>247</value>
							</parameter>
							<parameter>
								<parameterid>mids</parameterid>
								<name>Mids</name>
								<valuemin>0</valuemin>
								<valuemax>200</valuemax>
								<value>100</value>
							</parameter>
							<parameter>
								<parameterid>blacklevel</parameterid>
								<name>Blacks</name>
								<valuemin>-196</valuemin>
								<valuemax>254</valuemax>
								<value>-3</value>
							</parameter>
							<parameter>
								<parameterid>label2</parameterid>
								<name>Color Balance</name>
								<value/>
							</parameter>
							<parameter>
								<parameterid>hue</parameterid>
								<name>Angle</name>
								<valuemin>-180</valuemin>
								<valuemax>180</valuemax>
								<value>-33</value>
							</parameter>
							<parameter>
								<parameterid>mag</parameterid>
								<name>Magnitude</name>
								<valuemin>0</valuemin>
								<valuemax>200</valuemax>
								<value>0</value>
							</parameter>
							<parameter>
								<parameterid>label4</parameterid>
								<name>Color Controls</name>
								<value/>
							</parameter>
							<parameter>
								<parameterid>chroma</parameterid>
								<name>Saturation</name>
								<valuemin>0</valuemin>
								<valuemax>200</valuemax>
								<value>84</value>
							</parameter>
							<parameter>
								<parameterid>phase</parameterid>
								<name>Phase shift</name>
								<valuemin>-180</valuemin>
								<valuemax>180</valuemax>
								<value>0</value>
							</parameter>
							<parameter>
								<parameterid>label5</parameterid>
								<name>Limit Effect Controls</name>
								<value/>
							</parameter>
							<parameter>
								<parameterid>dochroma</parameterid>
								<name>Limit on Chroma</name>
								<value>TRUE</value>
							</parameter>
							<parameter>
								<parameterid>centerang</parameterid>
								<name>Chroma Center</name>
								<valuemin>-760</valuemin>
								<valuemax>760</valuemax>
								<value>322.256</value>
							</parameter>
							<parameter>
								<parameterid>chromawidth</parameterid>
								<name>Chroma Width</name>
								<valuemin>0</valuemin>
								<valuemax>360</valuemax>
								<value>7.49567</value>
							</parameter>
							<parameter>
								<parameterid>chromasoft</parameterid>
								<name>Chroma Softness</name>
								<valuemin>0</valuemin>
								<valuemax>180</valuemax>
								<value>10.6152</value>
							</parameter>
							<parameter>
								<parameterid>dosat</parameterid>
								<name>Limit on Saturation</name>
								<value>TRUE</value>
							</parameter>
							<parameter>
								<parameterid>satmin</parameterid>
								<name>Sat. Minimum</name>
								<valuemin>0</valuemin>
								<valuemax>125</valuemax>
								<value>36.7837</value>
							</parameter>
							<parameter>
								<parameterid>satwidth</parameterid>
								<name>Sat. Width</name>
								<valuemin>0</valuemin>
								<valuemax>125</valuemax>
								<value>84.0889</value>
							</parameter>
							<parameter>
								<parameterid>satsoft</parameterid>
								<name>Sat. Softness</name>
								<valuemin>0</valuemin>
								<valuemax>125</valuemax>
								<value>5</value>
							</parameter>
							<parameter>
								<parameterid>doluma</parameterid>
								<name>Limit on Luma</name>
								<value>TRUE</value>
							</parameter>
							<parameter>
								<parameterid>lumamin</parameterid>
								<name>Luma Minimum</name>
								<valuemin>0</valuemin>
								<valuemax>120</valuemax>
								<value>0.939667</value>
							</parameter>
							<parameter>
								<parameterid>lumawidth</parameterid>
								<name>Luma Width</name>
								<valuemin>0</valuemin>
								<valuemax>120</valuemax>
								<value>115.45</value>
							</parameter>
							<parameter>
								<parameterid>lumasoft</parameterid>
								<name>Luma Softness</name>
								<valuemin>0</valuemin>
								<valuemax>120</valuemax>
								<value>15.1099</value>
							</parameter>
							<parameter>
								<parameterid>label6</parameterid>
								<name>Edge Control</name>
								<value/>
							</parameter>
							<parameter>
								<parameterid>edgethin</parameterid>
								<name>Thin/Spread</name>
								<valuemin>-100</valuemin>
								<valuemax>100</valuemax>
								<value>0</value>
							</parameter>
							<parameter>
								<parameterid>edgefeather</parameterid>
								<name>Softening</name>
								<valuemin>0</valuemin>
								<valuemax>100</valuemax>
								<value>0</value>
							</parameter>
							<parameter>
								<parameterid>label7</parameterid>
								<name>Mask Control</name>
								<value/>
							</parameter>
							<parameter>
								<parameterid>invertsel</parameterid>
								<name>Invert</name>
								<value>FALSE</value>
							</parameter>
							<parameter>
								<parameterid>debugshow</parameterid>
								<name>Show Stats</name>
								<value>FALSE</value>
							</parameter>
						</effect>
					</filter>
					<filter>
						<enabled>TRUE</enabled>
						<start>-1</start>
						<end>-1</end>
						<effect>
							<name>G Simple Curves</name>
							<effectcategory>Nattress Big Box of Tricks - Levels and Curves</effectcategory>
							<effecttype>filter</effecttype>
							<mediatype>video</mediatype>
							<parameter>
								<parameterid>colourspace</parameterid>
								<name>Colour Space</name>
								<valuemin>1</valuemin>
								<valuemax>2</valuemax>
								<valuelist>
									<valueentry>
										<name>RGB</name>
										<value>1</value>
									</valueentry>
									<valueentry>
										<name>Y'CbCr</name>
										<value>2</value>
									</valueentry>
								</valuelist>
								<value>1</value>
							</parameter>
							<parameter>
								<parameterid>showcurves</parameterid>
								<name>Show Curves</name>
								<value>FALSE</value>
							</parameter>
							<parameter>
								<parameterid>lvar</parameterid>
								<name>Levels Controls</name>
								<value>string</value>
							</parameter>
							<parameter>
								<parameterid>inw</parameterid>
								<name>White Level</name>
								<valuemin>0</valuemin>
								<valuemax>255</valuemax>
								<value>255</value>
							</parameter>
							<parameter>
								<parameterid>inb</parameterid>
								<name>Black Level</name>
								<valuemin>0</valuemin>
								<valuemax>255</valuemax>
								<value>0</value>
							</parameter>
							<parameter>
								<parameterid>outw</parameterid>
								<name>White Output</name>
								<valuemin>0</valuemin>
								<valuemax>255</valuemax>
								<value>238</value>
							</parameter>
							<parameter>
								<parameterid>outb</parameterid>
								<name>Black Output</name>
								<valuemin>0</valuemin>
								<valuemax>255</valuemax>
								<value>0</value>
							</parameter>
							<parameter>
								<parameterid>cvar</parameterid>
								<name>Curves Controls</name>
								<value>string</value>
							</parameter>
							<parameter>
								<parameterid>curvew</parameterid>
								<name>White Curve</name>
								<valuemin>-100</valuemin>
								<valuemax>100</valuemax>
								<value>-8</value>
							</parameter>
							<parameter>
								<parameterid>curveb</parameterid>
								<name>Black Curve</name>
								<valuemin>-100</valuemin>
								<valuemax>100</valuemax>
								<value>5</value>
							</parameter>
							<parameter>
								<parameterid>clipoutput</parameterid>
								<name>Clip Output Levels</name>
								<value>FALSE</value>
							</parameter>
							<parameter>
								<parameterid>copyright</parameterid>
								<name>© www.nattress.com</name>
								<value>string</value>
							</parameter>
						</effect>
					</filter>
					<sourcetrack>
						<mediatype>video</mediatype>
					</sourcetrack>
					<link>
						<linkclipref>00822001.MOV</linkclipref>
						<mediatype>video</mediatype>
						<trackindex>1</trackindex>
						<clipindex>243</clipindex>
					</link>
					<link>
						<linkclipref>00822001.MOV2</linkclipref>
						<mediatype>audio</mediatype>
						<trackindex>1</trackindex>
						<clipindex>200</clipindex>
					</link>
					<link>
						<linkclipref>00822001.MOV3</linkclipref>
						<mediatype>audio</mediatype>
						<trackindex>2</trackindex>
						<clipindex>200</clipindex>
					</link>
					<fielddominance>upper</fielddominance>
					<itemhistory>
						<uuid>A451BE75-F7DB-427E-A399-98BE8F90108D</uuid>
					</itemhistory>
				</clipitem>
				<clipitem id="00821001.MOV4">
					<name>00821001.MOV</name>
					<duration>3420</duration>
					<rate>
						<ntsc>FALSE</ntsc>
						<timebase>25</timebase>
					</rate>
					<in>620</in>
					<out>682</out>
					<start>28910</start>
					<end>28972</end>
					<pixelaspectratio>Square</pixelaspectratio>
					<enabled>TRUE</enabled>
					<anamorphic>FALSE</anamorphic>
					<alphatype>none</alphatype>
					<masterclipid>00821001.MOV1</masterclipid>
					<logginginfo>
						<scene/>
						<shottake/>
						<lognote/>
						<good>FALSE</good>
					</logginginfo>
					<labels>
						<label2/>
					</labels>
					<comments>
						<mastercomment1/>
						<mastercomment2/>
						<mastercomment3/>
						<mastercomment4/>
					</comments>
					<file id="00821001 "/>
					<filter>
						<enabled>TRUE</enabled>
						<start>-1</start>
						<end>-1</end>
						<effect>
							<name>Color Corrector - Lua til Carina</name>
							<effectid>Color Corrector</effectid>
							<effectcategory>Color Correction</effectcategory>
							<effecttype>filter</effecttype>
							<mediatype>video</mediatype>
							<parameter>
								<parameterid>dispmode</parameterid>
								<name>Display Mode</name>
								<valuemin>1</valuemin>
								<valuemax>3</valuemax>
								<valuelist>
									<valueentry>
										<name>Final</name>
										<value>1</value>
									</valueentry>
									<valueentry>
										<name>Matte</name>
										<value>2</value>
									</valueentry>
									<valueentry>
										<name>Source</name>
										<value>3</value>
									</valueentry>
								</valuelist>
								<value>1</value>
							</parameter>
							<parameter>
								<parameterid>label1</parameterid>
								<name>Level Controls</name>
								<value/>
							</parameter>
							<parameter>
								<parameterid>highlights</parameterid>
								<name>Highlights</name>
								<valuemin>64</valuemin>
								<valuemax>509</valuemax>
								<value>247</value>
							</parameter>
							<parameter>
								<parameterid>mids</parameterid>
								<name>Mids</name>
								<valuemin>0</valuemin>
								<valuemax>200</valuemax>
								<value>100</value>
							</parameter>
							<parameter>
								<parameterid>blacklevel</parameterid>
								<name>Blacks</name>
								<valuemin>-196</valuemin>
								<valuemax>254</valuemax>
								<value>-3</value>
							</parameter>
							<parameter>
								<parameterid>label2</parameterid>
								<name>Color Balance</name>
								<value/>
							</parameter>
							<parameter>
								<parameterid>hue</parameterid>
								<name>Angle</name>
								<valuemin>-180</valuemin>
								<valuemax>180</valuemax>
								<value>-33</value>
							</parameter>
							<parameter>
								<parameterid>mag</parameterid>
								<name>Magnitude</name>
								<valuemin>0</valuemin>
								<valuemax>200</valuemax>
								<value>0</value>
							</parameter>
							<parameter>
								<parameterid>label4</parameterid>
								<name>Color Controls</name>
								<value/>
							</parameter>
							<parameter>
								<parameterid>chroma</parameterid>
								<name>Saturation</name>
								<valuemin>0</valuemin>
								<valuemax>200</valuemax>
								<value>84</value>
							</parameter>
							<parameter>
								<parameterid>phase</parameterid>
								<name>Phase shift</name>
								<valuemin>-180</valuemin>
								<valuemax>180</valuemax>
								<value>0</value>
							</parameter>
							<parameter>
								<parameterid>label5</parameterid>
								<name>Limit Effect Controls</name>
								<value/>
							</parameter>
							<parameter>
								<parameterid>dochroma</parameterid>
								<name>Limit on Chroma</name>
								<value>TRUE</value>
							</parameter>
							<parameter>
								<parameterid>centerang</parameterid>
								<name>Chroma Center</name>
								<valuemin>-760</valuemin>
								<valuemax>760</valuemax>
								<value>322.256</value>
							</parameter>
							<parameter>
								<parameterid>chromawidth</parameterid>
								<name>Chroma Width</name>
								<valuemin>0</valuemin>
								<valuemax>360</valuemax>
								<value>7.49567</value>
							</parameter>
							<parameter>
								<parameterid>chromasoft</parameterid>
								<name>Chroma Softness</name>
								<valuemin>0</valuemin>
								<valuemax>180</valuemax>
								<value>10.6152</value>
							</parameter>
							<parameter>
								<parameterid>dosat</parameterid>
								<name>Limit on Saturation</name>
								<value>TRUE</value>
							</parameter>
							<parameter>
								<parameterid>satmin</parameterid>
								<name>Sat. Minimum</name>
								<valuemin>0</valuemin>
								<valuemax>125</valuemax>
								<value>36.7837</value>
							</parameter>
							<parameter>
								<parameterid>satwidth</parameterid>
								<name>Sat. Width</name>
								<valuemin>0</valuemin>
								<valuemax>125</valuemax>
								<value>84.0889</value>
							</parameter>
							<parameter>
								<parameterid>satsoft</parameterid>
								<name>Sat. Softness</name>
								<valuemin>0</valuemin>
								<valuemax>125</valuemax>
								<value>5</value>
							</parameter>
							<parameter>
								<parameterid>doluma</parameterid>
								<name>Limit on Luma</name>
								<value>TRUE</value>
							</parameter>
							<parameter>
								<parameterid>lumamin</parameterid>
								<name>Luma Minimum</name>
								<valuemin>0</valuemin>
								<valuemax>120</valuemax>
								<value>0.939667</value>
							</parameter>
							<parameter>
								<parameterid>lumawidth</parameterid>
								<name>Luma Width</name>
								<valuemin>0</valuemin>
								<valuemax>120</valuemax>
								<value>115.45</value>
							</parameter>
							<parameter>
								<parameterid>lumasoft</parameterid>
								<name>Luma Softness</name>
								<valuemin>0</valuemin>
								<valuemax>120</valuemax>
								<value>15.1099</value>
							</parameter>
							<parameter>
								<parameterid>label6</parameterid>
								<name>Edge Control</name>
								<value/>
							</parameter>
							<parameter>
								<parameterid>edgethin</parameterid>
								<name>Thin/Spread</name>
								<valuemin>-100</valuemin>
								<valuemax>100</valuemax>
								<value>0</value>
							</parameter>
							<parameter>
								<parameterid>edgefeather</parameterid>
								<name>Softening</name>
								<valuemin>0</valuemin>
								<valuemax>100</valuemax>
								<value>0</value>
							</parameter>
							<parameter>
								<parameterid>label7</parameterid>
								<name>Mask Control</name>
								<value/>
							</parameter>
							<parameter>
								<parameterid>invertsel</parameterid>
								<name>Invert</name>
								<value>FALSE</value>
							</parameter>
							<parameter>
								<parameterid>debugshow</parameterid>
								<name>Show Stats</name>
								<value>FALSE</value>
							</parameter>
						</effect>
					</filter>
					<filter>
						<enabled>TRUE</enabled>
						<start>-1</start>
						<end>-1</end>
						<effect>
							<name>G Simple Curves</name>
							<effectcategory>Nattress Big Box of Tricks - Levels and Curves</effectcategory>
							<effecttype>filter</effecttype>
							<mediatype>video</mediatype>
							<parameter>
								<parameterid>colourspace</parameterid>
								<name>Colour Space</name>
								<valuemin>1</valuemin>
								<valuemax>2</valuemax>
								<valuelist>
									<valueentry>
										<name>RGB</name>
										<value>1</value>
									</valueentry>
									<valueentry>
										<name>Y'CbCr</name>
										<value>2</value>
									</valueentry>
								</valuelist>
								<value>1</value>
							</parameter>
							<parameter>
								<parameterid>showcurves</parameterid>
								<name>Show Curves</name>
								<value>FALSE</value>
							</parameter>
							<parameter>
								<parameterid>lvar</parameterid>
								<name>Levels Controls</name>
								<value>string</value>
							</parameter>
							<parameter>
								<parameterid>inw</parameterid>
								<name>White Level</name>
								<valuemin>0</valuemin>
								<valuemax>255</valuemax>
								<value>255</value>
							</parameter>
							<parameter>
								<parameterid>inb</parameterid>
								<name>Black Level</name>
								<valuemin>0</valuemin>
								<valuemax>255</valuemax>
								<value>0</value>
							</parameter>
							<parameter>
								<parameterid>outw</parameterid>
								<name>White Output</name>
								<valuemin>0</valuemin>
								<valuemax>255</valuemax>
								<value>238</value>
							</parameter>
							<parameter>
								<parameterid>outb</parameterid>
								<name>Black Output</name>
								<valuemin>0</valuemin>
								<valuemax>255</valuemax>
								<value>0</value>
							</parameter>
							<parameter>
								<parameterid>cvar</parameterid>
								<name>Curves Controls</name>
								<value>string</value>
							</parameter>
							<parameter>
								<parameterid>curvew</parameterid>
								<name>White Curve</name>
								<valuemin>-100</valuemin>
								<valuemax>100</valuemax>
								<value>8</value>
							</parameter>
							<parameter>
								<parameterid>curveb</parameterid>
								<name>Black Curve</name>
								<valuemin>-100</valuemin>
								<valuemax>100</valuemax>
								<value>-8</value>
							</parameter>
							<parameter>
								<parameterid>clipoutput</parameterid>
								<name>Clip Output Levels</name>
								<value>FALSE</value>
							</parameter>
							<parameter>
								<parameterid>copyright</parameterid>
								<name>© www.nattress.com</name>
								<value>string</value>
							</parameter>
						</effect>
					</filter>
					<filter>
						<effect>
							<name>Basic Motion</name>
							<effectid>basic</effectid>
							<effectcategory>motion</effectcategory>
							<effecttype>motion</effecttype>
							<mediatype>video</mediatype>
							<parameter>
								<parameterid>scale</parameterid>
								<name>Scale</name>
								<valuemin>0</valuemin>
								<valuemax>1000</valuemax>
								<value>110</value>
							</parameter>
							<parameter>
								<parameterid>rotation</parameterid>
								<name>Rotation</name>
								<valuemin>-8640</valuemin>
								<valuemax>8640</valuemax>
								<value>0</value>
							</parameter>
							<parameter>
								<parameterid>center</parameterid>
								<name>Center</name>
								<keyframe>
									<when>2660</when>
									<value>
										<horiz>0.0404551</horiz>
										<vert>0.0472973</vert>
									</value>
								</keyframe>
								<keyframe>
									<when>2798</when>
									<value>
										<horiz>0.0015625</horiz>
										<vert>-0.00462963</vert>
									</value>
								</keyframe>
								<interpolation>
									<name>FCPCurve</name>
								</interpolation>
							</parameter>
							<parameter>
								<parameterid>centerOffset</parameterid>
								<name>Anchor Point</name>
								<value>
									<horiz>0</horiz>
									<vert>0</vert>
								</value>
							</parameter>
						</effect>
					</filter>
					<filter>
						<enabled>FALSE</enabled>
						<effect>
							<name>Drop Shadow</name>
							<effectid>dropshadow</effectid>
							<effectcategory>motion</effectcategory>
							<effecttype>motion</effecttype>
							<mediatype>video</mediatype>
							<parameter>
								<parameterid>offset</parameterid>
								<name>offset</name>
								<valuemin>-100</valuemin>
								<valuemax>100</valuemax>
								<value>2</value>
							</parameter>
							<parameter>
								<parameterid>angle</parameterid>
								<name>angle</name>
								<valuemin>-720</valuemin>
								<valuemax>720</valuemax>
								<value>135</value>
							</parameter>
							<parameter>
								<parameterid>color</parameterid>
								<name>color</name>
								<value>
									<alpha>0</alpha>
									<red>0</red>
									<green>0</green>
									<blue>0</blue>
								</value>
							</parameter>
							<parameter>
								<parameterid>softness</parameterid>
								<name>softness</name>
								<valuemin>0</valuemin>
								<valuemax>100</valuemax>
								<value>10</value>
							</parameter>
							<parameter>
								<parameterid>opacity</parameterid>
								<name>opacity</name>
								<valuemin>0</valuemin>
								<valuemax>100</valuemax>
								<value>50</value>
							</parameter>
						</effect>
					</filter>
					<filter>
						<enabled>FALSE</enabled>
						<effect>
							<name>Motion Blur</name>
							<effectid>motionblur</effectid>
							<effectcategory>motion</effectcategory>
							<effecttype>motion</effecttype>
							<mediatype>video</mediatype>
							<parameter>
								<parameterid>duration</parameterid>
								<name>% Blur</name>
								<valuemin>0</valuemin>
								<valuemax>1000</valuemax>
								<value>500</value>
							</parameter>
							<parameter>
								<parameterid>samples</parameterid>
								<name>Samples</name>
								<valuemin>1</valuemin>
								<valuemax>16</valuemax>
								<value>4</value>
							</parameter>
						</effect>
					</filter>
					<filter>
						<effect>
							<name>Crop</name>
							<effectid>crop</effectid>
							<effectcategory>motion</effectcategory>
							<effecttype>motion</effecttype>
							<mediatype>video</mediatype>
							<parameter>
								<parameterid>left</parameterid>
								<name>left</name>
								<valuemin>0</valuemin>
								<valuemax>100</valuemax>
								<value>0</value>
							</parameter>
							<parameter>
								<parameterid>right</parameterid>
								<name>right</name>
								<valuemin>0</valuemin>
								<valuemax>100</valuemax>
								<value>0</value>
							</parameter>
							<parameter>
								<parameterid>top</parameterid>
								<name>top</name>
								<valuemin>0</valuemin>
								<valuemax>100</valuemax>
								<value>0</value>
							</parameter>
							<parameter>
								<parameterid>bottom</parameterid>
								<name>bottom</name>
								<valuemin>0</valuemin>
								<valuemax>100</valuemax>
								<value>0</value>
							</parameter>
							<parameter>
								<parameterid>edgefeather</parameterid>
								<name>edgefeather</name>
								<valuemin>0</valuemin>
								<valuemax>100</valuemax>
								<value>0</value>
							</parameter>
						</effect>
					</filter>
					<filter>
						<effect>
							<name>Distort</name>
							<effectid>deformation</effectid>
							<effectcategory>motion</effectcategory>
							<effecttype>motion</effecttype>
							<mediatype>video</mediatype>
							<parameter>
								<parameterid>ulcorner</parameterid>
								<name>Upper Left</name>
								<value>
									<horiz>-0.5</horiz>
									<vert>-0.5</vert>
								</value>
							</parameter>
							<parameter>
								<parameterid>urcorner</parameterid>
								<name>Upper Right</name>
								<value>
									<horiz>0.5</horiz>
									<vert>-0.5</vert>
								</value>
							</parameter>
							<parameter>
								<parameterid>lrcorner</parameterid>
								<name>Lower Right</name>
								<value>
									<horiz>0.5</horiz>
									<vert>0.5</vert>
								</value>
							</parameter>
							<parameter>
								<parameterid>llcorner</parameterid>
								<name>Lower Left</name>
								<value>
									<horiz>-0.5</horiz>
									<vert>0.5</vert>
								</value>
							</parameter>
							<parameter>
								<parameterid>aspect</parameterid>
								<name>Aspect</name>
								<valuemin>-10000</valuemin>
								<valuemax>10000</valuemax>
								<value>0</value>
							</parameter>
						</effect>
					</filter>
					<filter>
						<effect>
							<name>Opacity</name>
							<effectid>opacity</effectid>
							<effectcategory>motion</effectcategory>
							<effecttype>motion</effecttype>
							<mediatype>video</mediatype>
							<parameter>
								<parameterid>opacity</parameterid>
								<name>opacity</name>
								<valuemin>0</valuemin>
								<valuemax>100</valuemax>
								<value>100</value>
							</parameter>
						</effect>
					</filter>
					<sourcetrack>
						<mediatype>video</mediatype>
					</sourcetrack>
					<link>
						<linkclipref>00821001.MOV4</linkclipref>
						<mediatype>video</mediatype>
						<trackindex>1</trackindex>
						<clipindex>244</clipindex>
					</link>
					<link>
						<linkclipref>00821001.MOV5</linkclipref>
						<mediatype>audio</mediatype>
						<trackindex>1</trackindex>
						<clipindex>202</clipindex>
					</link>
					<link>
						<linkclipref>00821001.MOV6</linkclipref>
						<mediatype>audio</mediatype>
						<trackindex>2</trackindex>
						<clipindex>202</clipindex>
					</link>
					<fielddominance>upper</fielddominance>
					<itemhistory>
						<uuid>7A5A31C9-6109-4AA6-A221-F3F21A23DCAB</uuid>
					</itemhistory>
				</clipitem>
				<clipitem id="00823001.MOV4">
					<name>00823001.MOV</name>
					<duration>2676</duration>
					<rate>
						<ntsc>FALSE</ntsc>
						<timebase>25</timebase>
					</rate>
					<in>438</in>
					<out>561</out>
					<start>28972</start>
					<end>29095</end>
					<pixelaspectratio>Square</pixelaspectratio>
					<enabled>TRUE</enabled>
					<anamorphic>FALSE</anamorphic>
					<alphatype>none</alphatype>
					<masterclipid>00823001.MOV1</masterclipid>
					<logginginfo>
						<scene/>
						<shottake/>
						<lognote/>
						<good>FALSE</good>
					</logginginfo>
					<labels>
						<label2/>
					</labels>
					<comments>
						<mastercomment1/>
						<mastercomment2/>
						<mastercomment3/>
						<mastercomment4/>
					</comments>
					<file id="00823001 "/>
					<filter>
						<enabled>TRUE</enabled>
						<start>-1</start>
						<end>-1</end>
						<effect>
							<name>Color Corrector - Lua til Carina</name>
							<effectid>Color Corrector</effectid>
							<effectcategory>Color Correction</effectcategory>
							<effecttype>filter</effecttype>
							<mediatype>video</mediatype>
							<parameter>
								<parameterid>dispmode</parameterid>
								<name>Display Mode</name>
								<valuemin>1</valuemin>
								<valuemax>3</valuemax>
								<valuelist>
									<valueentry>
										<name>Final</name>
										<value>1</value>
									</valueentry>
									<valueentry>
										<name>Matte</name>
										<value>2</value>
									</valueentry>
									<valueentry>
										<name>Source</name>
										<value>3</value>
									</valueentry>
								</valuelist>
								<value>1</value>
							</parameter>
							<parameter>
								<parameterid>label1</parameterid>
								<name>Level Controls</name>
								<value/>
							</parameter>
							<parameter>
								<parameterid>highlights</parameterid>
								<name>Highlights</name>
								<valuemin>64</valuemin>
								<valuemax>509</valuemax>
								<value>247</value>
							</parameter>
							<parameter>
								<parameterid>mids</parameterid>
								<name>Mids</name>
								<valuemin>0</valuemin>
								<valuemax>200</valuemax>
								<value>100</value>
							</parameter>
							<parameter>
								<parameterid>blacklevel</parameterid>
								<name>Blacks</name>
								<valuemin>-196</valuemin>
								<valuemax>254</valuemax>
								<value>-3</value>
							</parameter>
							<parameter>
								<parameterid>label2</parameterid>
								<name>Color Balance</name>
								<value/>
							</parameter>
							<parameter>
								<parameterid>hue</parameterid>
								<name>Angle</name>
								<valuemin>-180</valuemin>
								<valuemax>180</valuemax>
								<value>-33</value>
							</parameter>
							<parameter>
								<parameterid>mag</parameterid>
								<name>Magnitude</name>
								<valuemin>0</valuemin>
								<valuemax>200</valuemax>
								<value>0</value>
							</parameter>
							<parameter>
								<parameterid>label4</parameterid>
								<name>Color Controls</name>
								<value/>
							</parameter>
							<parameter>
								<parameterid>chroma</parameterid>
								<name>Saturation</name>
								<valuemin>0</valuemin>
								<valuemax>200</valuemax>
								<value>84</value>
							</parameter>
							<parameter>
								<parameterid>phase</parameterid>
								<name>Phase shift</name>
								<valuemin>-180</valuemin>
								<valuemax>180</valuemax>
								<value>0</value>
							</parameter>
							<parameter>
								<parameterid>label5</parameterid>
								<name>Limit Effect Controls</name>
								<value/>
							</parameter>
							<parameter>
								<parameterid>dochroma</parameterid>
								<name>Limit on Chroma</name>
								<value>TRUE</value>
							</parameter>
							<parameter>
								<parameterid>centerang</parameterid>
								<name>Chroma Center</name>
								<valuemin>-760</valuemin>
								<valuemax>760</valuemax>
								<value>322.256</value>
							</parameter>
							<parameter>
								<parameterid>chromawidth</parameterid>
								<name>Chroma Width</name>
								<valuemin>0</valuemin>
								<valuemax>360</valuemax>
								<value>7.49567</value>
							</parameter>
							<parameter>
								<parameterid>chromasoft</parameterid>
								<name>Chroma Softness</name>
								<valuemin>0</valuemin>
								<valuemax>180</valuemax>
								<value>10.6152</value>
							</parameter>
							<parameter>
								<parameterid>dosat</parameterid>
								<name>Limit on Saturation</name>
								<value>TRUE</value>
							</parameter>
							<parameter>
								<parameterid>satmin</parameterid>
								<name>Sat. Minimum</name>
								<valuemin>0</valuemin>
								<valuemax>125</valuemax>
								<value>36.7837</value>
							</parameter>
							<parameter>
								<parameterid>satwidth</parameterid>
								<name>Sat. Width</name>
								<valuemin>0</valuemin>
								<valuemax>125</valuemax>
								<value>84.0889</value>
							</parameter>
							<parameter>
								<parameterid>satsoft</parameterid>
								<name>Sat. Softness</name>
								<valuemin>0</valuemin>
								<valuemax>125</valuemax>
								<value>5</value>
							</parameter>
							<parameter>
								<parameterid>doluma</parameterid>
								<name>Limit on Luma</name>
								<value>TRUE</value>
							</parameter>
							<parameter>
								<parameterid>lumamin</parameterid>
								<name>Luma Minimum</name>
								<valuemin>0</valuemin>
								<valuemax>120</valuemax>
								<value>0.939667</value>
							</parameter>
							<parameter>
								<parameterid>lumawidth</parameterid>
								<name>Luma Width</name>
								<valuemin>0</valuemin>
								<valuemax>120</valuemax>
								<value>115.45</value>
							</parameter>
							<parameter>
								<parameterid>lumasoft</parameterid>
								<name>Luma Softness</name>
								<valuemin>0</valuemin>
								<valuemax>120</valuemax>
								<value>15.1099</value>
							</parameter>
							<parameter>
								<parameterid>label6</parameterid>
								<name>Edge Control</name>
								<value/>
							</parameter>
							<parameter>
								<parameterid>edgethin</parameterid>
								<name>Thin/Spread</name>
								<valuemin>-100</valuemin>
								<valuemax>100</valuemax>
								<value>0</value>
							</parameter>
							<parameter>
								<parameterid>edgefeather</parameterid>
								<name>Softening</name>
								<valuemin>0</valuemin>
								<valuemax>100</valuemax>
								<value>0</value>
							</parameter>
							<parameter>
								<parameterid>label7</parameterid>
								<name>Mask Control</name>
								<value/>
							</parameter>
							<parameter>
								<parameterid>invertsel</parameterid>
								<name>Invert</name>
								<value>FALSE</value>
							</parameter>
							<parameter>
								<parameterid>debugshow</parameterid>
								<name>Show Stats</name>
								<value>FALSE</value>
							</parameter>
						</effect>
					</filter>
					<filter>
						<enabled>TRUE</enabled>
						<start>-1</start>
						<end>-1</end>
						<effect>
							<name>G Simple Curves</name>
							<effectcategory>Nattress Big Box of Tricks - Levels and Curves</effectcategory>
							<effecttype>filter</effecttype>
							<mediatype>video</mediatype>
							<parameter>
								<parameterid>colourspace</parameterid>
								<name>Colour Space</name>
								<valuemin>1</valuemin>
								<valuemax>2</valuemax>
								<valuelist>
									<valueentry>
										<name>RGB</name>
										<value>1</value>
									</valueentry>
									<valueentry>
										<name>Y'CbCr</name>
										<value>2</value>
									</valueentry>
								</valuelist>
								<value>1</value>
							</parameter>
							<parameter>
								<parameterid>showcurves</parameterid>
								<name>Show Curves</name>
								<value>FALSE</value>
							</parameter>
							<parameter>
								<parameterid>lvar</parameterid>
								<name>Levels Controls</name>
								<value>string</value>
							</parameter>
							<parameter>
								<parameterid>inw</parameterid>
								<name>White Level</name>
								<valuemin>0</valuemin>
								<valuemax>255</valuemax>
								<value>255</value>
							</parameter>
							<parameter>
								<parameterid>inb</parameterid>
								<name>Black Level</name>
								<valuemin>0</valuemin>
								<valuemax>255</valuemax>
								<value>0</value>
							</parameter>
							<parameter>
								<parameterid>outw</parameterid>
								<name>White Output</name>
								<valuemin>0</valuemin>
								<valuemax>255</valuemax>
								<value>238</value>
							</parameter>
							<parameter>
								<parameterid>outb</parameterid>
								<name>Black Output</name>
								<valuemin>0</valuemin>
								<valuemax>255</valuemax>
								<value>0</value>
							</parameter>
							<parameter>
								<parameterid>cvar</parameterid>
								<name>Curves Controls</name>
								<value>string</value>
							</parameter>
							<parameter>
								<parameterid>curvew</parameterid>
								<name>White Curve</name>
								<valuemin>-100</valuemin>
								<valuemax>100</valuemax>
								<value>-8</value>
							</parameter>
							<parameter>
								<parameterid>curveb</parameterid>
								<name>Black Curve</name>
								<valuemin>-100</valuemin>
								<valuemax>100</valuemax>
								<value>5</value>
							</parameter>
							<parameter>
								<parameterid>clipoutput</parameterid>
								<name>Clip Output Levels</name>
								<value>FALSE</value>
							</parameter>
							<parameter>
								<parameterid>copyright</parameterid>
								<name>© www.nattress.com</name>
								<value>string</value>
							</parameter>
						</effect>
					</filter>
					<sourcetrack>
						<mediatype>video</mediatype>
					</sourcetrack>
					<link>
						<linkclipref>00823001.MOV4</linkclipref>
						<mediatype>video</mediatype>
						<trackindex>1</trackindex>
						<clipindex>245</clipindex>
					</link>
					<link>
						<linkclipref>00823001.MOV5</linkclipref>
						<mediatype>audio</mediatype>
						<trackindex>1</trackindex>
						<clipindex>204</clipindex>
					</link>
					<link>
						<linkclipref>00823001.MOV6</linkclipref>
						<mediatype>audio</mediatype>
						<trackindex>2</trackindex>
						<clipindex>204</clipindex>
					</link>
					<fielddominance>upper</fielddominance>
					<itemhistory>
						<uuid>8340C16F-DD5F-413D-8D11-48E3B24C7370</uuid>
					</itemhistory>
				</clipitem>
				<clipitem id="00821001.MOV7">
					<name>00821001.MOV</name>
					<duration>3420</duration>
					<rate>
						<ntsc>FALSE</ntsc>
						<timebase>25</timebase>
					</rate>
					<in>775</in>
					<out>856</out>
					<start>29095</start>
					<end>29176</end>
					<pixelaspectratio>Square</pixelaspectratio>
					<enabled>TRUE</enabled>
					<anamorphic>FALSE</anamorphic>
					<alphatype>none</alphatype>
					<masterclipid>00821001.MOV1</masterclipid>
					<logginginfo>
						<scene/>
						<shottake/>
						<lognote/>
						<good>FALSE</good>
					</logginginfo>
					<labels>
						<label2/>
					</labels>
					<comments>
						<mastercomment1/>
						<mastercomment2/>
						<mastercomment3/>
						<mastercomment4/>
					</comments>
					<file id="00821001 "/>
					<filter>
						<enabled>TRUE</enabled>
						<start>-1</start>
						<end>-1</end>
						<effect>
							<name>Color Corrector - Lua til Carina</name>
							<effectid>Color Corrector</effectid>
							<effectcategory>Color Correction</effectcategory>
							<effecttype>filter</effecttype>
							<mediatype>video</mediatype>
							<parameter>
								<parameterid>dispmode</parameterid>
								<name>Display Mode</name>
								<valuemin>1</valuemin>
								<valuemax>3</valuemax>
								<valuelist>
									<valueentry>
										<name>Final</name>
										<value>1</value>
									</valueentry>
									<valueentry>
										<name>Matte</name>
										<value>2</value>
									</valueentry>
									<valueentry>
										<name>Source</name>
										<value>3</value>
									</valueentry>
								</valuelist>
								<value>1</value>
							</parameter>
							<parameter>
								<parameterid>label1</parameterid>
								<name>Level Controls</name>
								<value/>
							</parameter>
							<parameter>
								<parameterid>highlights</parameterid>
								<name>Highlights</name>
								<valuemin>64</valuemin>
								<valuemax>509</valuemax>
								<value>247</value>
							</parameter>
							<parameter>
								<parameterid>mids</parameterid>
								<name>Mids</name>
								<valuemin>0</valuemin>
								<valuemax>200</valuemax>
								<value>100</value>
							</parameter>
							<parameter>
								<parameterid>blacklevel</parameterid>
								<name>Blacks</name>
								<valuemin>-196</valuemin>
								<valuemax>254</valuemax>
								<value>-3</value>
							</parameter>
							<parameter>
								<parameterid>label2</parameterid>
								<name>Color Balance</name>
								<value/>
							</parameter>
							<parameter>
								<parameterid>hue</parameterid>
								<name>Angle</name>
								<valuemin>-180</valuemin>
								<valuemax>180</valuemax>
								<value>-33</value>
							</parameter>
							<parameter>
								<parameterid>mag</parameterid>
								<name>Magnitude</name>
								<valuemin>0</valuemin>
								<valuemax>200</valuemax>
								<value>0</value>
							</parameter>
							<parameter>
								<parameterid>label4</parameterid>
								<name>Color Controls</name>
								<value/>
							</parameter>
							<parameter>
								<parameterid>chroma</parameterid>
								<name>Saturation</name>
								<valuemin>0</valuemin>
								<valuemax>200</valuemax>
								<value>84</value>
							</parameter>
							<parameter>
								<parameterid>phase</parameterid>
								<name>Phase shift</name>
								<valuemin>-180</valuemin>
								<valuemax>180</valuemax>
								<value>0</value>
							</parameter>
							<parameter>
								<parameterid>label5</parameterid>
								<name>Limit Effect Controls</name>
								<value/>
							</parameter>
							<parameter>
								<parameterid>dochroma</parameterid>
								<name>Limit on Chroma</name>
								<value>TRUE</value>
							</parameter>
							<parameter>
								<parameterid>centerang</parameterid>
								<name>Chroma Center</name>
								<valuemin>-760</valuemin>
								<valuemax>760</valuemax>
								<value>322.256</value>
							</parameter>
							<parameter>
								<parameterid>chromawidth</parameterid>
								<name>Chroma Width</name>
								<valuemin>0</valuemin>
								<valuemax>360</valuemax>
								<value>7.49567</value>
							</parameter>
							<parameter>
								<parameterid>chromasoft</parameterid>
								<name>Chroma Softness</name>
								<valuemin>0</valuemin>
								<valuemax>180</valuemax>
								<value>10.6152</value>
							</parameter>
							<parameter>
								<parameterid>dosat</parameterid>
								<name>Limit on Saturation</name>
								<value>TRUE</value>
							</parameter>
							<parameter>
								<parameterid>satmin</parameterid>
								<name>Sat. Minimum</name>
								<valuemin>0</valuemin>
								<valuemax>125</valuemax>
								<value>36.7837</value>
							</parameter>
							<parameter>
								<parameterid>satwidth</parameterid>
								<name>Sat. Width</name>
								<valuemin>0</valuemin>
								<valuemax>125</valuemax>
								<value>84.0889</value>
							</parameter>
							<parameter>
								<parameterid>satsoft</parameterid>
								<name>Sat. Softness</name>
								<valuemin>0</valuemin>
								<valuemax>125</valuemax>
								<value>5</value>
							</parameter>
							<parameter>
								<parameterid>doluma</parameterid>
								<name>Limit on Luma</name>
								<value>TRUE</value>
							</parameter>
							<parameter>
								<parameterid>lumamin</parameterid>
								<name>Luma Minimum</name>
								<valuemin>0</valuemin>
								<valuemax>120</valuemax>
								<value>0.939667</value>
							</parameter>
							<parameter>
								<parameterid>lumawidth</parameterid>
								<name>Luma Width</name>
								<valuemin>0</valuemin>
								<valuemax>120</valuemax>
								<value>115.45</value>
							</parameter>
							<parameter>
								<parameterid>lumasoft</parameterid>
								<name>Luma Softness</name>
								<valuemin>0</valuemin>
								<valuemax>120</valuemax>
								<value>15.1099</value>
							</parameter>
							<parameter>
								<parameterid>label6</parameterid>
								<name>Edge Control</name>
								<value/>
							</parameter>
							<parameter>
								<parameterid>edgethin</parameterid>
								<name>Thin/Spread</name>
								<valuemin>-100</valuemin>
								<valuemax>100</valuemax>
								<value>0</value>
							</parameter>
							<parameter>
								<parameterid>edgefeather</parameterid>
								<name>Softening</name>
								<valuemin>0</valuemin>
								<valuemax>100</valuemax>
								<value>0</value>
							</parameter>
							<parameter>
								<parameterid>label7</parameterid>
								<name>Mask Control</name>
								<value/>
							</parameter>
							<parameter>
								<parameterid>invertsel</parameterid>
								<name>Invert</name>
								<value>FALSE</value>
							</parameter>
							<parameter>
								<parameterid>debugshow</parameterid>
								<name>Show Stats</name>
								<value>FALSE</value>
							</parameter>
						</effect>
					</filter>
					<filter>
						<enabled>TRUE</enabled>
						<start>-1</start>
						<end>-1</end>
						<effect>
							<name>G Simple Curves</name>
							<effectcategory>Nattress Big Box of Tricks - Levels and Curves</effectcategory>
							<effecttype>filter</effecttype>
							<mediatype>video</mediatype>
							<parameter>
								<parameterid>colourspace</parameterid>
								<name>Colour Space</name>
								<valuemin>1</valuemin>
								<valuemax>2</valuemax>
								<valuelist>
									<valueentry>
										<name>RGB</name>
										<value>1</value>
									</valueentry>
									<valueentry>
										<name>Y'CbCr</name>
										<value>2</value>
									</valueentry>
								</valuelist>
								<value>1</value>
							</parameter>
							<parameter>
								<parameterid>showcurves</parameterid>
								<name>Show Curves</name>
								<value>FALSE</value>
							</parameter>
							<parameter>
								<parameterid>lvar</parameterid>
								<name>Levels Controls</name>
								<value>string</value>
							</parameter>
							<parameter>
								<parameterid>inw</parameterid>
								<name>White Level</name>
								<valuemin>0</valuemin>
								<valuemax>255</valuemax>
								<value>255</value>
							</parameter>
							<parameter>
								<parameterid>inb</parameterid>
								<name>Black Level</name>
								<valuemin>0</valuemin>
								<valuemax>255</valuemax>
								<value>0</value>
							</parameter>
							<parameter>
								<parameterid>outw</parameterid>
								<name>White Output</name>
								<valuemin>0</valuemin>
								<valuemax>255</valuemax>
								<value>238</value>
							</parameter>
							<parameter>
								<parameterid>outb</parameterid>
								<name>Black Output</name>
								<valuemin>0</valuemin>
								<valuemax>255</valuemax>
								<value>0</value>
							</parameter>
							<parameter>
								<parameterid>cvar</parameterid>
								<name>Curves Controls</name>
								<value>string</value>
							</parameter>
							<parameter>
								<parameterid>curvew</parameterid>
								<name>White Curve</name>
								<valuemin>-100</valuemin>
								<valuemax>100</valuemax>
								<value>8</value>
							</parameter>
							<parameter>
								<parameterid>curveb</parameterid>
								<name>Black Curve</name>
								<valuemin>-100</valuemin>
								<valuemax>100</valuemax>
								<value>-8</value>
							</parameter>
							<parameter>
								<parameterid>clipoutput</parameterid>
								<name>Clip Output Levels</name>
								<value>FALSE</value>
							</parameter>
							<parameter>
								<parameterid>copyright</parameterid>
								<name>© www.nattress.com</name>
								<value>string</value>
							</parameter>
						</effect>
					</filter>
					<filter>
						<effect>
							<name>Basic Motion</name>
							<effectid>basic</effectid>
							<effectcategory>motion</effectcategory>
							<effecttype>motion</effecttype>
							<mediatype>video</mediatype>
							<parameter>
								<parameterid>scale</parameterid>
								<name>Scale</name>
								<valuemin>0</valuemin>
								<valuemax>1000</valuemax>
								<value>110</value>
							</parameter>
							<parameter>
								<parameterid>rotation</parameterid>
								<name>Rotation</name>
								<valuemin>-8640</valuemin>
								<valuemax>8640</valuemax>
								<value>0</value>
							</parameter>
							<parameter>
								<parameterid>center</parameterid>
								<name>Center</name>
								<keyframe>
									<when>2660</when>
									<value>
										<horiz>0.0404551</horiz>
										<vert>0.0472973</vert>
									</value>
								</keyframe>
								<keyframe>
									<when>2798</when>
									<value>
										<horiz>0.0015625</horiz>
										<vert>-0.00462963</vert>
									</value>
								</keyframe>
								<interpolation>
									<name>FCPCurve</name>
								</interpolation>
							</parameter>
							<parameter>
								<parameterid>centerOffset</parameterid>
								<name>Anchor Point</name>
								<value>
									<horiz>0</horiz>
									<vert>0</vert>
								</value>
							</parameter>
						</effect>
					</filter>
					<filter>
						<enabled>FALSE</enabled>
						<effect>
							<name>Drop Shadow</name>
							<effectid>dropshadow</effectid>
							<effectcategory>motion</effectcategory>
							<effecttype>motion</effecttype>
							<mediatype>video</mediatype>
							<parameter>
								<parameterid>offset</parameterid>
								<name>offset</name>
								<valuemin>-100</valuemin>
								<valuemax>100</valuemax>
								<value>2</value>
							</parameter>
							<parameter>
								<parameterid>angle</parameterid>
								<name>angle</name>
								<valuemin>-720</valuemin>
								<valuemax>720</valuemax>
								<value>135</value>
							</parameter>
							<parameter>
								<parameterid>color</parameterid>
								<name>color</name>
								<value>
									<alpha>0</alpha>
									<red>0</red>
									<green>0</green>
									<blue>0</blue>
								</value>
							</parameter>
							<parameter>
								<parameterid>softness</parameterid>
								<name>softness</name>
								<valuemin>0</valuemin>
								<valuemax>100</valuemax>
								<value>10</value>
							</parameter>
							<parameter>
								<parameterid>opacity</parameterid>
								<name>opacity</name>
								<valuemin>0</valuemin>
								<valuemax>100</valuemax>
								<value>50</value>
							</parameter>
						</effect>
					</filter>
					<filter>
						<enabled>FALSE</enabled>
						<effect>
							<name>Motion Blur</name>
							<effectid>motionblur</effectid>
							<effectcategory>motion</effectcategory>
							<effecttype>motion</effecttype>
							<mediatype>video</mediatype>
							<parameter>
								<parameterid>duration</parameterid>
								<name>% Blur</name>
								<valuemin>0</valuemin>
								<valuemax>1000</valuemax>
								<value>500</value>
							</parameter>
							<parameter>
								<parameterid>samples</parameterid>
								<name>Samples</name>
								<valuemin>1</valuemin>
								<valuemax>16</valuemax>
								<value>4</value>
							</parameter>
						</effect>
					</filter>
					<filter>
						<effect>
							<name>Crop</name>
							<effectid>crop</effectid>
							<effectcategory>motion</effectcategory>
							<effecttype>motion</effecttype>
							<mediatype>video</mediatype>
							<parameter>
								<parameterid>left</parameterid>
								<name>left</name>
								<valuemin>0</valuemin>
								<valuemax>100</valuemax>
								<value>0</value>
							</parameter>
							<parameter>
								<parameterid>right</parameterid>
								<name>right</name>
								<valuemin>0</valuemin>
								<valuemax>100</valuemax>
								<value>0</value>
							</parameter>
							<parameter>
								<parameterid>top</parameterid>
								<name>top</name>
								<valuemin>0</valuemin>
								<valuemax>100</valuemax>
								<value>0</value>
							</parameter>
							<parameter>
								<parameterid>bottom</parameterid>
								<name>bottom</name>
								<valuemin>0</valuemin>
								<valuemax>100</valuemax>
								<value>0</value>
							</parameter>
							<parameter>
								<parameterid>edgefeather</parameterid>
								<name>edgefeather</name>
								<valuemin>0</valuemin>
								<valuemax>100</valuemax>
								<value>0</value>
							</parameter>
						</effect>
					</filter>
					<filter>
						<effect>
							<name>Distort</name>
							<effectid>deformation</effectid>
							<effectcategory>motion</effectcategory>
							<effecttype>motion</effecttype>
							<mediatype>video</mediatype>
							<parameter>
								<parameterid>ulcorner</parameterid>
								<name>Upper Left</name>
								<value>
									<horiz>-0.5</horiz>
									<vert>-0.5</vert>
								</value>
							</parameter>
							<parameter>
								<parameterid>urcorner</parameterid>
								<name>Upper Right</name>
								<value>
									<horiz>0.5</horiz>
									<vert>-0.5</vert>
								</value>
							</parameter>
							<parameter>
								<parameterid>lrcorner</parameterid>
								<name>Lower Right</name>
								<value>
									<horiz>0.5</horiz>
									<vert>0.5</vert>
								</value>
							</parameter>
							<parameter>
								<parameterid>llcorner</parameterid>
								<name>Lower Left</name>
								<value>
									<horiz>-0.5</horiz>
									<vert>0.5</vert>
								</value>
							</parameter>
							<parameter>
								<parameterid>aspect</parameterid>
								<name>Aspect</name>
								<valuemin>-10000</valuemin>
								<valuemax>10000</valuemax>
								<value>0</value>
							</parameter>
						</effect>
					</filter>
					<filter>
						<effect>
							<name>Opacity</name>
							<effectid>opacity</effectid>
							<effectcategory>motion</effectcategory>
							<effecttype>motion</effecttype>
							<mediatype>video</mediatype>
							<parameter>
								<parameterid>opacity</parameterid>
								<name>opacity</name>
								<valuemin>0</valuemin>
								<valuemax>100</valuemax>
								<value>100</value>
							</parameter>
						</effect>
					</filter>
					<sourcetrack>
						<mediatype>video</mediatype>
					</sourcetrack>
					<link>
						<linkclipref>00821001.MOV7</linkclipref>
						<mediatype>video</mediatype>
						<trackindex>1</trackindex>
						<clipindex>246</clipindex>
					</link>
					<link>
						<linkclipref>00821001.MOV8</linkclipref>
						<mediatype>audio</mediatype>
						<trackindex>1</trackindex>
						<clipindex>206</clipindex>
					</link>
					<link>
						<linkclipref>00821001.MOV9</linkclipref>
						<mediatype>audio</mediatype>
						<trackindex>2</trackindex>
						<clipindex>206</clipindex>
					</link>
					<fielddominance>upper</fielddominance>
					<itemhistory>
						<uuid>6CBB8615-F48E-4221-ACD1-88F549F66EFA</uuid>
					</itemhistory>
				</clipitem>
				<clipitem id="00823001.MOV7">
					<name>00823001.MOV</name>
					<duration>2676</duration>
					<rate>
						<ntsc>FALSE</ntsc>
						<timebase>25</timebase>
					</rate>
					<in>624</in>
					<out>707</out>
					<start>29176</start>
					<end>29259</end>
					<pixelaspectratio>Square</pixelaspectratio>
					<enabled>TRUE</enabled>
					<anamorphic>FALSE</anamorphic>
					<alphatype>none</alphatype>
					<masterclipid>00823001.MOV1</masterclipid>
					<logginginfo>
						<scene/>
						<shottake/>
						<lognote/>
						<good>FALSE</good>
					</logginginfo>
					<labels>
						<label2/>
					</labels>
					<comments>
						<mastercomment1/>
						<mastercomment2/>
						<mastercomment3/>
						<mastercomment4/>
					</comments>
					<file id="00823001 "/>
					<filter>
						<enabled>TRUE</enabled>
						<start>-1</start>
						<end>-1</end>
						<effect>
							<name>Color Corrector - Lua til Carina</name>
							<effectid>Color Corrector</effectid>
							<effectcategory>Color Correction</effectcategory>
							<effecttype>filter</effecttype>
							<mediatype>video</mediatype>
							<parameter>
								<parameterid>dispmode</parameterid>
								<name>Display Mode</name>
								<valuemin>1</valuemin>
								<valuemax>3</valuemax>
								<valuelist>
									<valueentry>
										<name>Final</name>
										<value>1</value>
									</valueentry>
									<valueentry>
										<name>Matte</name>
										<value>2</value>
									</valueentry>
									<valueentry>
										<name>Source</name>
										<value>3</value>
									</valueentry>
								</valuelist>
								<value>1</value>
							</parameter>
							<parameter>
								<parameterid>label1</parameterid>
								<name>Level Controls</name>
								<value/>
							</parameter>
							<parameter>
								<parameterid>highlights</parameterid>
								<name>Highlights</name>
								<valuemin>64</valuemin>
								<valuemax>509</valuemax>
								<value>247</value>
							</parameter>
							<parameter>
								<parameterid>mids</parameterid>
								<name>Mids</name>
								<valuemin>0</valuemin>
								<valuemax>200</valuemax>
								<value>100</value>
							</parameter>
							<parameter>
								<parameterid>blacklevel</parameterid>
								<name>Blacks</name>
								<valuemin>-196</valuemin>
								<valuemax>254</valuemax>
								<value>-3</value>
							</parameter>
							<parameter>
								<parameterid>label2</parameterid>
								<name>Color Balance</name>
								<value/>
							</parameter>
							<parameter>
								<parameterid>hue</parameterid>
								<name>Angle</name>
								<valuemin>-180</valuemin>
								<valuemax>180</valuemax>
								<value>-33</value>
							</parameter>
							<parameter>
								<parameterid>mag</parameterid>
								<name>Magnitude</name>
								<valuemin>0</valuemin>
								<valuemax>200</valuemax>
								<value>0</value>
							</parameter>
							<parameter>
								<parameterid>label4</parameterid>
								<name>Color Controls</name>
								<value/>
							</parameter>
							<parameter>
								<parameterid>chroma</parameterid>
								<name>Saturation</name>
								<valuemin>0</valuemin>
								<valuemax>200</valuemax>
								<value>84</value>
							</parameter>
							<parameter>
								<parameterid>phase</parameterid>
								<name>Phase shift</name>
								<valuemin>-180</valuemin>
								<valuemax>180</valuemax>
								<value>0</value>
							</parameter>
							<parameter>
								<parameterid>label5</parameterid>
								<name>Limit Effect Controls</name>
								<value/>
							</parameter>
							<parameter>
								<parameterid>dochroma</parameterid>
								<name>Limit on Chroma</name>
								<value>TRUE</value>
							</parameter>
							<parameter>
								<parameterid>centerang</parameterid>
								<name>Chroma Center</name>
								<valuemin>-760</valuemin>
								<valuemax>760</valuemax>
								<value>322.256</value>
							</parameter>
							<parameter>
								<parameterid>chromawidth</parameterid>
								<name>Chroma Width</name>
								<valuemin>0</valuemin>
								<valuemax>360</valuemax>
								<value>7.49567</value>
							</parameter>
							<parameter>
								<parameterid>chromasoft</parameterid>
								<name>Chroma Softness</name>
								<valuemin>0</valuemin>
								<valuemax>180</valuemax>
								<value>10.6152</value>
							</parameter>
							<parameter>
								<parameterid>dosat</parameterid>
								<name>Limit on Saturation</name>
								<value>TRUE</value>
							</parameter>
							<parameter>
								<parameterid>satmin</parameterid>
								<name>Sat. Minimum</name>
								<valuemin>0</valuemin>
								<valuemax>125</valuemax>
								<value>36.7837</value>
							</parameter>
							<parameter>
								<parameterid>satwidth</parameterid>
								<name>Sat. Width</name>
								<valuemin>0</valuemin>
								<valuemax>125</valuemax>
								<value>84.0889</value>
							</parameter>
							<parameter>
								<parameterid>satsoft</parameterid>
								<name>Sat. Softness</name>
								<valuemin>0</valuemin>
								<valuemax>125</valuemax>
								<value>5</value>
							</parameter>
							<parameter>
								<parameterid>doluma</parameterid>
								<name>Limit on Luma</name>
								<value>TRUE</value>
							</parameter>
							<parameter>
								<parameterid>lumamin</parameterid>
								<name>Luma Minimum</name>
								<valuemin>0</valuemin>
								<valuemax>120</valuemax>
								<value>0.939667</value>
							</parameter>
							<parameter>
								<parameterid>lumawidth</parameterid>
								<name>Luma Width</name>
								<valuemin>0</valuemin>
								<valuemax>120</valuemax>
								<value>115.45</value>
							</parameter>
							<parameter>
								<parameterid>lumasoft</parameterid>
								<name>Luma Softness</name>
								<valuemin>0</valuemin>
								<valuemax>120</valuemax>
								<value>15.1099</value>
							</parameter>
							<parameter>
								<parameterid>label6</parameterid>
								<name>Edge Control</name>
								<value/>
							</parameter>
							<parameter>
								<parameterid>edgethin</parameterid>
								<name>Thin/Spread</name>
								<valuemin>-100</valuemin>
								<valuemax>100</valuemax>
								<value>0</value>
							</parameter>
							<parameter>
								<parameterid>edgefeather</parameterid>
								<name>Softening</name>
								<valuemin>0</valuemin>
								<valuemax>100</valuemax>
								<value>0</value>
							</parameter>
							<parameter>
								<parameterid>label7</parameterid>
								<name>Mask Control</name>
								<value/>
							</parameter>
							<parameter>
								<parameterid>invertsel</parameterid>
								<name>Invert</name>
								<value>FALSE</value>
							</parameter>
							<parameter>
								<parameterid>debugshow</parameterid>
								<name>Show Stats</name>
								<value>FALSE</value>
							</parameter>
						</effect>
					</filter>
					<filter>
						<enabled>TRUE</enabled>
						<start>-1</start>
						<end>-1</end>
						<effect>
							<name>G Simple Curves</name>
							<effectcategory>Nattress Big Box of Tricks - Levels and Curves</effectcategory>
							<effecttype>filter</effecttype>
							<mediatype>video</mediatype>
							<parameter>
								<parameterid>colourspace</parameterid>
								<name>Colour Space</name>
								<valuemin>1</valuemin>
								<valuemax>2</valuemax>
								<valuelist>
									<valueentry>
										<name>RGB</name>
										<value>1</value>
									</valueentry>
									<valueentry>
										<name>Y'CbCr</name>
										<value>2</value>
									</valueentry>
								</valuelist>
								<value>1</value>
							</parameter>
							<parameter>
								<parameterid>showcurves</parameterid>
								<name>Show Curves</name>
								<value>FALSE</value>
							</parameter>
							<parameter>
								<parameterid>lvar</parameterid>
								<name>Levels Controls</name>
								<value>string</value>
							</parameter>
							<parameter>
								<parameterid>inw</parameterid>
								<name>White Level</name>
								<valuemin>0</valuemin>
								<valuemax>255</valuemax>
								<value>255</value>
							</parameter>
							<parameter>
								<parameterid>inb</parameterid>
								<name>Black Level</name>
								<valuemin>0</valuemin>
								<valuemax>255</valuemax>
								<value>0</value>
							</parameter>
							<parameter>
								<parameterid>outw</parameterid>
								<name>White Output</name>
								<valuemin>0</valuemin>
								<valuemax>255</valuemax>
								<value>238</value>
							</parameter>
							<parameter>
								<parameterid>outb</parameterid>
								<name>Black Output</name>
								<valuemin>0</valuemin>
								<valuemax>255</valuemax>
								<value>0</value>
							</parameter>
							<parameter>
								<parameterid>cvar</parameterid>
								<name>Curves Controls</name>
								<value>string</value>
							</parameter>
							<parameter>
								<parameterid>curvew</parameterid>
								<name>White Curve</name>
								<valuemin>-100</valuemin>
								<valuemax>100</valuemax>
								<value>-8</value>
							</parameter>
							<parameter>
								<parameterid>curveb</parameterid>
								<name>Black Curve</name>
								<valuemin>-100</valuemin>
								<valuemax>100</valuemax>
								<value>5</value>
							</parameter>
							<parameter>
								<parameterid>clipoutput</parameterid>
								<name>Clip Output Levels</name>
								<value>FALSE</value>
							</parameter>
							<parameter>
								<parameterid>copyright</parameterid>
								<name>© www.nattress.com</name>
								<value>string</value>
							</parameter>
						</effect>
					</filter>
					<sourcetrack>
						<mediatype>video</mediatype>
					</sourcetrack>
					<link>
						<linkclipref>00823001.MOV7</linkclipref>
						<mediatype>video</mediatype>
						<trackindex>1</trackindex>
						<clipindex>247</clipindex>
					</link>
					<link>
						<linkclipref>00823001.MOV8</linkclipref>
						<mediatype>audio</mediatype>
						<trackindex>1</trackindex>
						<clipindex>208</clipindex>
					</link>
					<link>
						<linkclipref>00823001.MOV9</linkclipref>
						<mediatype>audio</mediatype>
						<trackindex>2</trackindex>
						<clipindex>208</clipindex>
					</link>
					<fielddominance>upper</fielddominance>
					<itemhistory>
						<uuid>8F628484-E1A4-491B-B3DF-2881C600DD4F</uuid>
					</itemhistory>
				</clipitem>
				<clipitem id="00826001.MOV">
					<name>00826001.MOV</name>
					<duration>1800</duration>
					<rate>
						<ntsc>FALSE</ntsc>
						<timebase>25</timebase>
					</rate>
					<in>977</in>
					<out>1121</out>
					<start>29259</start>
					<end>29403</end>
					<pixelaspectratio>Square</pixelaspectratio>
					<enabled>TRUE</enabled>
					<anamorphic>FALSE</anamorphic>
					<alphatype>none</alphatype>
					<masterclipid>00826001.MOV1</masterclipid>
					<logginginfo>
						<scene/>
						<shottake/>
						<lognote/>
						<good>FALSE</good>
					</logginginfo>
					<labels>
						<label2/>
					</labels>
					<comments>
						<mastercomment1/>
						<mastercomment2/>
						<mastercomment3/>
						<mastercomment4/>
					</comments>
					<file id="00826001 ">
						<name>00826001.MOV</name>
						<pathurl>file://localhost/Volumes/Askepott/Prosjekter/DNPR637010_Kra%CC%8Akeklubben_TEM_011212/Video/MELLOMSTIKK/S01E05%20Dyrebolig/DAG2/00826001.MOV</pathurl>
						<rate>
							<timebase>25</timebase>
						</rate>
						<duration>1800</duration>
						<timecode>
							<rate>
								<timebase>25</timebase>
							</rate>
							<string>18:32:26:24</string>
							<frame>1668674</frame>
							<displayformat>NDF</displayformat>
							<source>source</source>
							<reel>
								<name>Flash XDR</name>
							</reel>
						</timecode>
						<media>
							<video>
								<duration>1800</duration>
								<samplecharacteristics>
									<width>1920</width>
									<height>1080</height>
								</samplecharacteristics>
							</video>
							<audio>
								<samplecharacteristics>
									<samplerate>48000</samplerate>
									<depth>24</depth>
								</samplecharacteristics>
								<channelcount>1</channelcount>
							</audio>
							<audio>
								<samplecharacteristics>
									<samplerate>48000</samplerate>
									<depth>24</depth>
								</samplecharacteristics>
								<channelcount>1</channelcount>
							</audio>
						</media>
					</file>
					<filter>
						<enabled>TRUE</enabled>
						<start>-1</start>
						<end>-1</end>
						<effect>
							<name>Color Corrector - Lua til Carina</name>
							<effectid>Color Corrector</effectid>
							<effectcategory>Color Correction</effectcategory>
							<effecttype>filter</effecttype>
							<mediatype>video</mediatype>
							<parameter>
								<parameterid>dispmode</parameterid>
								<name>Display Mode</name>
								<valuemin>1</valuemin>
								<valuemax>3</valuemax>
								<valuelist>
									<valueentry>
										<name>Final</name>
										<value>1</value>
									</valueentry>
									<valueentry>
										<name>Matte</name>
										<value>2</value>
									</valueentry>
									<valueentry>
										<name>Source</name>
										<value>3</value>
									</valueentry>
								</valuelist>
								<value>1</value>
							</parameter>
							<parameter>
								<parameterid>label1</parameterid>
								<name>Level Controls</name>
								<value/>
							</parameter>
							<parameter>
								<parameterid>highlights</parameterid>
								<name>Highlights</name>
								<valuemin>64</valuemin>
								<valuemax>509</valuemax>
								<value>247</value>
							</parameter>
							<parameter>
								<parameterid>mids</parameterid>
								<name>Mids</name>
								<valuemin>0</valuemin>
								<valuemax>200</valuemax>
								<value>100</value>
							</parameter>
							<parameter>
								<parameterid>blacklevel</parameterid>
								<name>Blacks</name>
								<valuemin>-196</valuemin>
								<valuemax>254</valuemax>
								<value>-3</value>
							</parameter>
							<parameter>
								<parameterid>label2</parameterid>
								<name>Color Balance</name>
								<value/>
							</parameter>
							<parameter>
								<parameterid>hue</parameterid>
								<name>Angle</name>
								<valuemin>-180</valuemin>
								<valuemax>180</valuemax>
								<value>-33</value>
							</parameter>
							<parameter>
								<parameterid>mag</parameterid>
								<name>Magnitude</name>
								<valuemin>0</valuemin>
								<valuemax>200</valuemax>
								<value>0</value>
							</parameter>
							<parameter>
								<parameterid>label4</parameterid>
								<name>Color Controls</name>
								<value/>
							</parameter>
							<parameter>
								<parameterid>chroma</parameterid>
								<name>Saturation</name>
								<valuemin>0</valuemin>
								<valuemax>200</valuemax>
								<value>84</value>
							</parameter>
							<parameter>
								<parameterid>phase</parameterid>
								<name>Phase shift</name>
								<valuemin>-180</valuemin>
								<valuemax>180</valuemax>
								<value>0</value>
							</parameter>
							<parameter>
								<parameterid>label5</parameterid>
								<name>Limit Effect Controls</name>
								<value/>
							</parameter>
							<parameter>
								<parameterid>dochroma</parameterid>
								<name>Limit on Chroma</name>
								<value>TRUE</value>
							</parameter>
							<parameter>
								<parameterid>centerang</parameterid>
								<name>Chroma Center</name>
								<valuemin>-760</valuemin>
								<valuemax>760</valuemax>
								<value>322.256</value>
							</parameter>
							<parameter>
								<parameterid>chromawidth</parameterid>
								<name>Chroma Width</name>
								<valuemin>0</valuemin>
								<valuemax>360</valuemax>
								<value>7.49567</value>
							</parameter>
							<parameter>
								<parameterid>chromasoft</parameterid>
								<name>Chroma Softness</name>
								<valuemin>0</valuemin>
								<valuemax>180</valuemax>
								<value>10.6152</value>
							</parameter>
							<parameter>
								<parameterid>dosat</parameterid>
								<name>Limit on Saturation</name>
								<value>TRUE</value>
							</parameter>
							<parameter>
								<parameterid>satmin</parameterid>
								<name>Sat. Minimum</name>
								<valuemin>0</valuemin>
								<valuemax>125</valuemax>
								<value>36.7837</value>
							</parameter>
							<parameter>
								<parameterid>satwidth</parameterid>
								<name>Sat. Width</name>
								<valuemin>0</valuemin>
								<valuemax>125</valuemax>
								<value>84.0889</value>
							</parameter>
							<parameter>
								<parameterid>satsoft</parameterid>
								<name>Sat. Softness</name>
								<valuemin>0</valuemin>
								<valuemax>125</valuemax>
								<value>5</value>
							</parameter>
							<parameter>
								<parameterid>doluma</parameterid>
								<name>Limit on Luma</name>
								<value>TRUE</value>
							</parameter>
							<parameter>
								<parameterid>lumamin</parameterid>
								<name>Luma Minimum</name>
								<valuemin>0</valuemin>
								<valuemax>120</valuemax>
								<value>0.939667</value>
							</parameter>
							<parameter>
								<parameterid>lumawidth</parameterid>
								<name>Luma Width</name>
								<valuemin>0</valuemin>
								<valuemax>120</valuemax>
								<value>115.45</value>
							</parameter>
							<parameter>
								<parameterid>lumasoft</parameterid>
								<name>Luma Softness</name>
								<valuemin>0</valuemin>
								<valuemax>120</valuemax>
								<value>15.1099</value>
							</parameter>
							<parameter>
								<parameterid>label6</parameterid>
								<name>Edge Control</name>
								<value/>
							</parameter>
							<parameter>
								<parameterid>edgethin</parameterid>
								<name>Thin/Spread</name>
								<valuemin>-100</valuemin>
								<valuemax>100</valuemax>
								<value>0</value>
							</parameter>
							<parameter>
								<parameterid>edgefeather</parameterid>
								<name>Softening</name>
								<valuemin>0</valuemin>
								<valuemax>100</valuemax>
								<value>0</value>
							</parameter>
							<parameter>
								<parameterid>label7</parameterid>
								<name>Mask Control</name>
								<value/>
							</parameter>
							<parameter>
								<parameterid>invertsel</parameterid>
								<name>Invert</name>
								<value>FALSE</value>
							</parameter>
							<parameter>
								<parameterid>debugshow</parameterid>
								<name>Show Stats</name>
								<value>FALSE</value>
							</parameter>
						</effect>
					</filter>
					<filter>
						<enabled>TRUE</enabled>
						<start>-1</start>
						<end>-1</end>
						<effect>
							<name>Color mindre metning og hoylys</name>
							<effectid>Color Corrector 3-way</effectid>
							<effectcategory>Color Correction</effectcategory>
							<effecttype>filter</effecttype>
							<mediatype>video</mediatype>
							<parameter>
								<parameterid>dispmode</parameterid>
								<name>Display Mode</name>
								<valuemin>1</valuemin>
								<valuemax>3</valuemax>
								<valuelist>
									<valueentry>
										<name>Final</name>
										<value>1</value>
									</valueentry>
									<valueentry>
										<name>Matte</name>
										<value>2</value>
									</valueentry>
									<valueentry>
										<name>Source</name>
										<value>3</value>
									</valueentry>
								</valuelist>
								<value>1</value>
							</parameter>
							<parameter>
								<parameterid>label1</parameterid>
								<name>Blacks Controls</name>
								<value/>
							</parameter>
							<parameter>
								<parameterid>blacklevel</parameterid>
								<name>Level</name>
								<valuemin>-196</valuemin>
								<valuemax>254</valuemax>
								<value>0</value>
							</parameter>
							<parameter>
								<parameterid>b_hue</parameterid>
								<name>Angle</name>
								<valuemin>-180</valuemin>
								<valuemax>180</valuemax>
								<value>-33</value>
							</parameter>
							<parameter>
								<parameterid>b_mag</parameterid>
								<name>Magnitude</name>
								<valuemin>0</valuemin>
								<valuemax>200</valuemax>
								<value>0</value>
							</parameter>
							<parameter>
								<parameterid>label2</parameterid>
								<name>Midrange Controls</name>
								<value/>
							</parameter>
							<parameter>
								<parameterid>mids</parameterid>
								<name>Level</name>
								<valuemin>0</valuemin>
								<valuemax>200</valuemax>
								<value>100</value>
							</parameter>
							<parameter>
								<parameterid>m_hue</parameterid>
								<name>Angle</name>
								<valuemin>-180</valuemin>
								<valuemax>180</valuemax>
								<value>-61.982</value>
							</parameter>
							<parameter>
								<parameterid>m_mag</parameterid>
								<name>Magnitude</name>
								<valuemin>0</valuemin>
								<valuemax>200</valuemax>
								<value>2.78667</value>
							</parameter>
							<parameter>
								<parameterid>label3</parameterid>
								<name>Highlight Controls</name>
								<value/>
							</parameter>
							<parameter>
								<parameterid>highlights</parameterid>
								<name>Level</name>
								<valuemin>64</valuemin>
								<valuemax>509</valuemax>
								<value>238</value>
							</parameter>
							<parameter>
								<parameterid>h_hue</parameterid>
								<name>Angle</name>
								<valuemin>-180</valuemin>
								<valuemax>180</valuemax>
								<value>-33</value>
							</parameter>
							<parameter>
								<parameterid>h_mag</parameterid>
								<name>Magnitude</name>
								<valuemin>0</valuemin>
								<valuemax>200</valuemax>
								<value>0</value>
							</parameter>
							<parameter>
								<parameterid>label4</parameterid>
								<name>Color Controls</name>
								<value/>
							</parameter>
							<parameter>
								<parameterid>chroma</parameterid>
								<name>Saturation</name>
								<valuemin>0</valuemin>
								<valuemax>200</valuemax>
								<value>88</value>
							</parameter>
							<parameter>
								<parameterid>label5</parameterid>
								<name>Limit Effect Controls</name>
								<value/>
							</parameter>
							<parameter>
								<parameterid>dochroma</parameterid>
								<name>Limit on Chroma</name>
								<value>FALSE</value>
							</parameter>
							<parameter>
								<parameterid>centerang</parameterid>
								<name>Chroma Center</name>
								<valuemin>-760</valuemin>
								<valuemax>760</valuemax>
								<value>-110</value>
							</parameter>
							<parameter>
								<parameterid>chromawidth</parameterid>
								<name>Chroma Width</name>
								<valuemin>0</valuemin>
								<valuemax>360</valuemax>
								<value>15</value>
							</parameter>
							<parameter>
								<parameterid>chromasoft</parameterid>
								<name>Chroma Softness</name>
								<valuemin>0</valuemin>
								<valuemax>180</valuemax>
								<value>10</value>
							</parameter>
							<parameter>
								<parameterid>dosat</parameterid>
								<name>Limit on Saturation</name>
								<value>FALSE</value>
							</parameter>
							<parameter>
								<parameterid>satmin</parameterid>
								<name>Sat. Minimum</name>
								<valuemin>0</valuemin>
								<valuemax>125</valuemax>
								<value>35</value>
							</parameter>
							<parameter>
								<parameterid>satwidth</parameterid>
								<name>Sat. Width</name>
								<valuemin>0</valuemin>
								<valuemax>125</valuemax>
								<value>40</value>
							</parameter>
							<parameter>
								<parameterid>satsoft</parameterid>
								<name>Sat. Softness</name>
								<valuemin>0</valuemin>
								<valuemax>125</valuemax>
								<value>20</value>
							</parameter>
							<parameter>
								<parameterid>doluma</parameterid>
								<name>Limit on Luma</name>
								<value>FALSE</value>
							</parameter>
							<parameter>
								<parameterid>lumamin</parameterid>
								<name>Luma Minimum</name>
								<valuemin>0</valuemin>
								<valuemax>120</valuemax>
								<value>0</value>
							</parameter>
							<parameter>
								<parameterid>lumawidth</parameterid>
								<name>Luma Width</name>
								<valuemin>0</valuemin>
								<valuemax>120</valuemax>
								<value>40</value>
							</parameter>
							<parameter>
								<parameterid>lumasoft</parameterid>
								<name>Luma Softness</name>
								<valuemin>0</valuemin>
								<valuemax>120</valuemax>
								<value>20</value>
							</parameter>
							<parameter>
								<parameterid>label6</parameterid>
								<name>Edge Control</name>
								<value/>
							</parameter>
							<parameter>
								<parameterid>edgethin</parameterid>
								<name>Thin/Spread</name>
								<valuemin>-100</valuemin>
								<valuemax>100</valuemax>
								<value>0</value>
							</parameter>
							<parameter>
								<parameterid>edgefeather</parameterid>
								<name>Softening</name>
								<valuemin>0</valuemin>
								<valuemax>100</valuemax>
								<value>0</value>
							</parameter>
							<parameter>
								<parameterid>label7</parameterid>
								<name>Mask Control</name>
								<value/>
							</parameter>
							<parameter>
								<parameterid>invertsel</parameterid>
								<name>Invert</name>
								<value>FALSE</value>
							</parameter>
							<parameter>
								<parameterid>debugshow</parameterid>
								<name>Show Stats</name>
								<value>FALSE</value>
							</parameter>
						</effect>
					</filter>
					<filter>
						<effect>
							<name>Opacity</name>
							<effectid>opacity</effectid>
							<effectcategory>motion</effectcategory>
							<effecttype>motion</effecttype>
							<mediatype>video</mediatype>
							<parameter>
								<parameterid>opacity</parameterid>
								<name>opacity</name>
								<valuemin>0</valuemin>
								<valuemax>100</valuemax>
								<value>100</value>
							</parameter>
						</effect>
					</filter>
					<sourcetrack>
						<mediatype>video</mediatype>
					</sourcetrack>
					<link>
						<linkclipref>00826001.MOV</linkclipref>
						<mediatype>video</mediatype>
						<trackindex>1</trackindex>
						<clipindex>248</clipindex>
					</link>
					<link>
						<linkclipref>00826001.MOV2</linkclipref>
						<mediatype>audio</mediatype>
						<trackindex>1</trackindex>
						<clipindex>210</clipindex>
					</link>
					<link>
						<linkclipref>00826001.MOV3</linkclipref>
						<mediatype>audio</mediatype>
						<trackindex>2</trackindex>
						<clipindex>210</clipindex>
					</link>
					<fielddominance>upper</fielddominance>
					<itemhistory>
						<uuid>98458168-DE5A-4227-A017-6266D6703A83</uuid>
					</itemhistory>
				</clipitem>
				<clipitem id="00824001.MOV">
					<name>00824001.MOV</name>
					<duration>2328</duration>
					<rate>
						<ntsc>FALSE</ntsc>
						<timebase>25</timebase>
					</rate>
					<in>1375</in>
					<out>1445</out>
					<start>29403</start>
					<end>29473</end>
					<pixelaspectratio>Square</pixelaspectratio>
					<enabled>TRUE</enabled>
					<anamorphic>FALSE</anamorphic>
					<alphatype>none</alphatype>
					<masterclipid>00824001.MOV1</masterclipid>
					<logginginfo>
						<scene/>
						<shottake/>
						<lognote/>
						<good>FALSE</good>
					</logginginfo>
					<labels>
						<label2/>
					</labels>
					<comments>
						<mastercomment1/>
						<mastercomment2/>
						<mastercomment3/>
						<mastercomment4/>
					</comments>
					<file id="00824001 ">
						<name>00824001.MOV</name>
						<pathurl>file://localhost/Volumes/Askepott/Prosjekter/DNPR637010_Kra%CC%8Akeklubben_TEM_011212/Video/MELLOMSTIKK/S01E05%20Dyrebolig/DAG2/00824001.MOV</pathurl>
						<rate>
							<timebase>25</timebase>
						</rate>
						<duration>2328</duration>
						<timecode>
							<rate>
								<timebase>25</timebase>
							</rate>
							<string>18:30:08:18</string>
							<frame>1665218</frame>
							<displayformat>NDF</displayformat>
							<source>source</source>
							<reel>
								<name>Flash XDR</name>
							</reel>
						</timecode>
						<media>
							<video>
								<duration>2328</duration>
								<samplecharacteristics>
									<width>1920</width>
									<height>1080</height>
								</samplecharacteristics>
							</video>
							<audio>
								<samplecharacteristics>
									<samplerate>48000</samplerate>
									<depth>24</depth>
								</samplecharacteristics>
								<channelcount>1</channelcount>
							</audio>
							<audio>
								<samplecharacteristics>
									<samplerate>48000</samplerate>
									<depth>24</depth>
								</samplecharacteristics>
								<channelcount>1</channelcount>
							</audio>
						</media>
					</file>
					<filter>
						<enabled>TRUE</enabled>
						<start>-1</start>
						<end>-1</end>
						<effect>
							<name>Color Corrector - Lua til Carina</name>
							<effectid>Color Corrector</effectid>
							<effectcategory>Color Correction</effectcategory>
							<effecttype>filter</effecttype>
							<mediatype>video</mediatype>
							<parameter>
								<parameterid>dispmode</parameterid>
								<name>Display Mode</name>
								<valuemin>1</valuemin>
								<valuemax>3</valuemax>
								<valuelist>
									<valueentry>
										<name>Final</name>
										<value>1</value>
									</valueentry>
									<valueentry>
										<name>Matte</name>
										<value>2</value>
									</valueentry>
									<valueentry>
										<name>Source</name>
										<value>3</value>
									</valueentry>
								</valuelist>
								<value>1</value>
							</parameter>
							<parameter>
								<parameterid>label1</parameterid>
								<name>Level Controls</name>
								<value/>
							</parameter>
							<parameter>
								<parameterid>highlights</parameterid>
								<name>Highlights</name>
								<valuemin>64</valuemin>
								<valuemax>509</valuemax>
								<value>247</value>
							</parameter>
							<parameter>
								<parameterid>mids</parameterid>
								<name>Mids</name>
								<valuemin>0</valuemin>
								<valuemax>200</valuemax>
								<value>100</value>
							</parameter>
							<parameter>
								<parameterid>blacklevel</parameterid>
								<name>Blacks</name>
								<valuemin>-196</valuemin>
								<valuemax>254</valuemax>
								<value>-3</value>
							</parameter>
							<parameter>
								<parameterid>label2</parameterid>
								<name>Color Balance</name>
								<value/>
							</parameter>
							<parameter>
								<parameterid>hue</parameterid>
								<name>Angle</name>
								<valuemin>-180</valuemin>
								<valuemax>180</valuemax>
								<value>-33</value>
							</parameter>
							<parameter>
								<parameterid>mag</parameterid>
								<name>Magnitude</name>
								<valuemin>0</valuemin>
								<valuemax>200</valuemax>
								<value>0</value>
							</parameter>
							<parameter>
								<parameterid>label4</parameterid>
								<name>Color Controls</name>
								<value/>
							</parameter>
							<parameter>
								<parameterid>chroma</parameterid>
								<name>Saturation</name>
								<valuemin>0</valuemin>
								<valuemax>200</valuemax>
								<value>84</value>
							</parameter>
							<parameter>
								<parameterid>phase</parameterid>
								<name>Phase shift</name>
								<valuemin>-180</valuemin>
								<valuemax>180</valuemax>
								<value>0</value>
							</parameter>
							<parameter>
								<parameterid>label5</parameterid>
								<name>Limit Effect Controls</name>
								<value/>
							</parameter>
							<parameter>
								<parameterid>dochroma</parameterid>
								<name>Limit on Chroma</name>
								<value>TRUE</value>
							</parameter>
							<parameter>
								<parameterid>centerang</parameterid>
								<name>Chroma Center</name>
								<valuemin>-760</valuemin>
								<valuemax>760</valuemax>
								<value>322.256</value>
							</parameter>
							<parameter>
								<parameterid>chromawidth</parameterid>
								<name>Chroma Width</name>
								<valuemin>0</valuemin>
								<valuemax>360</valuemax>
								<value>7.49567</value>
							</parameter>
							<parameter>
								<parameterid>chromasoft</parameterid>
								<name>Chroma Softness</name>
								<valuemin>0</valuemin>
								<valuemax>180</valuemax>
								<value>10.6152</value>
							</parameter>
							<parameter>
								<parameterid>dosat</parameterid>
								<name>Limit on Saturation</name>
								<value>TRUE</value>
							</parameter>
							<parameter>
								<parameterid>satmin</parameterid>
								<name>Sat. Minimum</name>
								<valuemin>0</valuemin>
								<valuemax>125</valuemax>
								<value>36.7837</value>
							</parameter>
							<parameter>
								<parameterid>satwidth</parameterid>
								<name>Sat. Width</name>
								<valuemin>0</valuemin>
								<valuemax>125</valuemax>
								<value>84.0889</value>
							</parameter>
							<parameter>
								<parameterid>satsoft</parameterid>
								<name>Sat. Softness</name>
								<valuemin>0</valuemin>
								<valuemax>125</valuemax>
								<value>5</value>
							</parameter>
							<parameter>
								<parameterid>doluma</parameterid>
								<name>Limit on Luma</name>
								<value>TRUE</value>
							</parameter>
							<parameter>
								<parameterid>lumamin</parameterid>
								<name>Luma Minimum</name>
								<valuemin>0</valuemin>
								<valuemax>120</valuemax>
								<value>0.939667</value>
							</parameter>
							<parameter>
								<parameterid>lumawidth</parameterid>
								<name>Luma Width</name>
								<valuemin>0</valuemin>
								<valuemax>120</valuemax>
								<value>115.45</value>
							</parameter>
							<parameter>
								<parameterid>lumasoft</parameterid>
								<name>Luma Softness</name>
								<valuemin>0</valuemin>
								<valuemax>120</valuemax>
								<value>15.1099</value>
							</parameter>
							<parameter>
								<parameterid>label6</parameterid>
								<name>Edge Control</name>
								<value/>
							</parameter>
							<parameter>
								<parameterid>edgethin</parameterid>
								<name>Thin/Spread</name>
								<valuemin>-100</valuemin>
								<valuemax>100</valuemax>
								<value>0</value>
							</parameter>
							<parameter>
								<parameterid>edgefeather</parameterid>
								<name>Softening</name>
								<valuemin>0</valuemin>
								<valuemax>100</valuemax>
								<value>0</value>
							</parameter>
							<parameter>
								<parameterid>label7</parameterid>
								<name>Mask Control</name>
								<value/>
							</parameter>
							<parameter>
								<parameterid>invertsel</parameterid>
								<name>Invert</name>
								<value>FALSE</value>
							</parameter>
							<parameter>
								<parameterid>debugshow</parameterid>
								<name>Show Stats</name>
								<value>FALSE</value>
							</parameter>
						</effect>
					</filter>
					<sourcetrack>
						<mediatype>video</mediatype>
					</sourcetrack>
					<link>
						<linkclipref>00824001.MOV</linkclipref>
						<mediatype>video</mediatype>
						<trackindex>1</trackindex>
						<clipindex>249</clipindex>
					</link>
					<link>
						<linkclipref>00824001.MOV2</linkclipref>
						<mediatype>audio</mediatype>
						<trackindex>1</trackindex>
						<clipindex>211</clipindex>
					</link>
					<link>
						<linkclipref>00824001.MOV3</linkclipref>
						<mediatype>audio</mediatype>
						<trackindex>2</trackindex>
						<clipindex>211</clipindex>
					</link>
					<fielddominance>upper</fielddominance>
					<itemhistory>
						<uuid>DE481956-9CF9-42BE-80B6-5B2577B29EB6</uuid>
					</itemhistory>
				</clipitem>
				<clipitem id="00827001.MOV">
					<name>00827001.MOV</name>
					<duration>1680</duration>
					<rate>
						<ntsc>FALSE</ntsc>
						<timebase>25</timebase>
					</rate>
					<in>1051</in>
					<out>1109</out>
					<start>29473</start>
					<end>29531</end>
					<pixelaspectratio>Square</pixelaspectratio>
					<enabled>TRUE</enabled>
					<anamorphic>FALSE</anamorphic>
					<alphatype>none</alphatype>
					<masterclipid>00827001.MOV1</masterclipid>
					<logginginfo>
						<scene/>
						<shottake/>
						<lognote/>
						<good>FALSE</good>
					</logginginfo>
					<labels>
						<label2/>
					</labels>
					<comments>
						<mastercomment1/>
						<mastercomment2/>
						<mastercomment3/>
						<mastercomment4/>
					</comments>
					<file id="00827001 ">
						<name>00827001.MOV</name>
						<pathurl>file://localhost/Volumes/Askepott/Prosjekter/DNPR637010_Kra%CC%8Akeklubben_TEM_011212/Video/MELLOMSTIKK/S01E05%20Dyrebolig/DAG2/00827001.MOV</pathurl>
						<rate>
							<timebase>25</timebase>
						</rate>
						<duration>1680</duration>
						<timecode>
							<rate>
								<timebase>25</timebase>
							</rate>
							<string>18:33:39:02</string>
							<frame>1670477</frame>
							<displayformat>NDF</displayformat>
							<source>source</source>
							<reel>
								<name>Flash XDR</name>
							</reel>
						</timecode>
						<media>
							<video>
								<duration>1680</duration>
								<samplecharacteristics>
									<width>1920</width>
									<height>1080</height>
								</samplecharacteristics>
							</video>
							<audio>
								<samplecharacteristics>
									<samplerate>48000</samplerate>
									<depth>24</depth>
								</samplecharacteristics>
								<channelcount>1</channelcount>
							</audio>
							<audio>
								<samplecharacteristics>
									<samplerate>48000</samplerate>
									<depth>24</depth>
								</samplecharacteristics>
								<channelcount>1</channelcount>
							</audio>
						</media>
					</file>
					<filter>
						<enabled>TRUE</enabled>
						<start>-1</start>
						<end>-1</end>
						<effect>
							<name>Color Corrector - Lua til Carina</name>
							<effectid>Color Corrector</effectid>
							<effectcategory>Color Correction</effectcategory>
							<effecttype>filter</effecttype>
							<mediatype>video</mediatype>
							<parameter>
								<parameterid>dispmode</parameterid>
								<name>Display Mode</name>
								<valuemin>1</valuemin>
								<valuemax>3</valuemax>
								<valuelist>
									<valueentry>
										<name>Final</name>
										<value>1</value>
									</valueentry>
									<valueentry>
										<name>Matte</name>
										<value>2</value>
									</valueentry>
									<valueentry>
										<name>Source</name>
										<value>3</value>
									</valueentry>
								</valuelist>
								<value>1</value>
							</parameter>
							<parameter>
								<parameterid>label1</parameterid>
								<name>Level Controls</name>
								<value/>
							</parameter>
							<parameter>
								<parameterid>highlights</parameterid>
								<name>Highlights</name>
								<valuemin>64</valuemin>
								<valuemax>509</valuemax>
								<value>247</value>
							</parameter>
							<parameter>
								<parameterid>mids</parameterid>
								<name>Mids</name>
								<valuemin>0</valuemin>
								<valuemax>200</valuemax>
								<value>100</value>
							</parameter>
							<parameter>
								<parameterid>blacklevel</parameterid>
								<name>Blacks</name>
								<valuemin>-196</valuemin>
								<valuemax>254</valuemax>
								<value>-3</value>
							</parameter>
							<parameter>
								<parameterid>label2</parameterid>
								<name>Color Balance</name>
								<value/>
							</parameter>
							<parameter>
								<parameterid>hue</parameterid>
								<name>Angle</name>
								<valuemin>-180</valuemin>
								<valuemax>180</valuemax>
								<value>-33</value>
							</parameter>
							<parameter>
								<parameterid>mag</parameterid>
								<name>Magnitude</name>
								<valuemin>0</valuemin>
								<valuemax>200</valuemax>
								<value>0</value>
							</parameter>
							<parameter>
								<parameterid>label4</parameterid>
								<name>Color Controls</name>
								<value/>
							</parameter>
							<parameter>
								<parameterid>chroma</parameterid>
								<name>Saturation</name>
								<valuemin>0</valuemin>
								<valuemax>200</valuemax>
								<value>84</value>
							</parameter>
							<parameter>
								<parameterid>phase</parameterid>
								<name>Phase shift</name>
								<valuemin>-180</valuemin>
								<valuemax>180</valuemax>
								<value>0</value>
							</parameter>
							<parameter>
								<parameterid>label5</parameterid>
								<name>Limit Effect Controls</name>
								<value/>
							</parameter>
							<parameter>
								<parameterid>dochroma</parameterid>
								<name>Limit on Chroma</name>
								<value>TRUE</value>
							</parameter>
							<parameter>
								<parameterid>centerang</parameterid>
								<name>Chroma Center</name>
								<valuemin>-760</valuemin>
								<valuemax>760</valuemax>
								<value>322.256</value>
							</parameter>
							<parameter>
								<parameterid>chromawidth</parameterid>
								<name>Chroma Width</name>
								<valuemin>0</valuemin>
								<valuemax>360</valuemax>
								<value>7.49567</value>
							</parameter>
							<parameter>
								<parameterid>chromasoft</parameterid>
								<name>Chroma Softness</name>
								<valuemin>0</valuemin>
								<valuemax>180</valuemax>
								<value>10.6152</value>
							</parameter>
							<parameter>
								<parameterid>dosat</parameterid>
								<name>Limit on Saturation</name>
								<value>TRUE</value>
							</parameter>
							<parameter>
								<parameterid>satmin</parameterid>
								<name>Sat. Minimum</name>
								<valuemin>0</valuemin>
								<valuemax>125</valuemax>
								<value>36.7837</value>
							</parameter>
							<parameter>
								<parameterid>satwidth</parameterid>
								<name>Sat. Width</name>
								<valuemin>0</valuemin>
								<valuemax>125</valuemax>
								<value>84.0889</value>
							</parameter>
							<parameter>
								<parameterid>satsoft</parameterid>
								<name>Sat. Softness</name>
								<valuemin>0</valuemin>
								<valuemax>125</valuemax>
								<value>5</value>
							</parameter>
							<parameter>
								<parameterid>doluma</parameterid>
								<name>Limit on Luma</name>
								<value>TRUE</value>
							</parameter>
							<parameter>
								<parameterid>lumamin</parameterid>
								<name>Luma Minimum</name>
								<valuemin>0</valuemin>
								<valuemax>120</valuemax>
								<value>0.939667</value>
							</parameter>
							<parameter>
								<parameterid>lumawidth</parameterid>
								<name>Luma Width</name>
								<valuemin>0</valuemin>
								<valuemax>120</valuemax>
								<value>115.45</value>
							</parameter>
							<parameter>
								<parameterid>lumasoft</parameterid>
								<name>Luma Softness</name>
								<valuemin>0</valuemin>
								<valuemax>120</valuemax>
								<value>15.1099</value>
							</parameter>
							<parameter>
								<parameterid>label6</parameterid>
								<name>Edge Control</name>
								<value/>
							</parameter>
							<parameter>
								<parameterid>edgethin</parameterid>
								<name>Thin/Spread</name>
								<valuemin>-100</valuemin>
								<valuemax>100</valuemax>
								<value>0</value>
							</parameter>
							<parameter>
								<parameterid>edgefeather</parameterid>
								<name>Softening</name>
								<valuemin>0</valuemin>
								<valuemax>100</valuemax>
								<value>0</value>
							</parameter>
							<parameter>
								<parameterid>label7</parameterid>
								<name>Mask Control</name>
								<value/>
							</parameter>
							<parameter>
								<parameterid>invertsel</parameterid>
								<name>Invert</name>
								<value>FALSE</value>
							</parameter>
							<parameter>
								<parameterid>debugshow</parameterid>
								<name>Show Stats</name>
								<value>FALSE</value>
							</parameter>
						</effect>
					</filter>
					<filter>
						<enabled>TRUE</enabled>
						<start>-1</start>
						<end>-1</end>
						<effect>
							<name>Color Corrector 3-way mindre metning</name>
							<effectid>Color Corrector 3-way</effectid>
							<effectcategory>Color Correction</effectcategory>
							<effecttype>filter</effecttype>
							<mediatype>video</mediatype>
							<parameter>
								<parameterid>dispmode</parameterid>
								<name>Display Mode</name>
								<valuemin>1</valuemin>
								<valuemax>3</valuemax>
								<valuelist>
									<valueentry>
										<name>Final</name>
										<value>1</value>
									</valueentry>
									<valueentry>
										<name>Matte</name>
										<value>2</value>
									</valueentry>
									<valueentry>
										<name>Source</name>
										<value>3</value>
									</valueentry>
								</valuelist>
								<value>1</value>
							</parameter>
							<parameter>
								<parameterid>label1</parameterid>
								<name>Blacks Controls</name>
								<value/>
							</parameter>
							<parameter>
								<parameterid>blacklevel</parameterid>
								<name>Level</name>
								<valuemin>-196</valuemin>
								<valuemax>254</valuemax>
								<value>0</value>
							</parameter>
							<parameter>
								<parameterid>b_hue</parameterid>
								<name>Angle</name>
								<valuemin>-180</valuemin>
								<valuemax>180</valuemax>
								<value>-33</value>
							</parameter>
							<parameter>
								<parameterid>b_mag</parameterid>
								<name>Magnitude</name>
								<valuemin>0</valuemin>
								<valuemax>200</valuemax>
								<value>0</value>
							</parameter>
							<parameter>
								<parameterid>label2</parameterid>
								<name>Midrange Controls</name>
								<value/>
							</parameter>
							<parameter>
								<parameterid>mids</parameterid>
								<name>Level</name>
								<valuemin>0</valuemin>
								<valuemax>200</valuemax>
								<value>100</value>
							</parameter>
							<parameter>
								<parameterid>m_hue</parameterid>
								<name>Angle</name>
								<valuemin>-180</valuemin>
								<valuemax>180</valuemax>
								<value>-33</value>
							</parameter>
							<parameter>
								<parameterid>m_mag</parameterid>
								<name>Magnitude</name>
								<valuemin>0</valuemin>
								<valuemax>200</valuemax>
								<value>0</value>
							</parameter>
							<parameter>
								<parameterid>label3</parameterid>
								<name>Highlight Controls</name>
								<value/>
							</parameter>
							<parameter>
								<parameterid>highlights</parameterid>
								<name>Level</name>
								<valuemin>64</valuemin>
								<valuemax>509</valuemax>
								<value>255</value>
							</parameter>
							<parameter>
								<parameterid>h_hue</parameterid>
								<name>Angle</name>
								<valuemin>-180</valuemin>
								<valuemax>180</valuemax>
								<value>-33</value>
							</parameter>
							<parameter>
								<parameterid>h_mag</parameterid>
								<name>Magnitude</name>
								<valuemin>0</valuemin>
								<valuemax>200</valuemax>
								<value>0</value>
							</parameter>
							<parameter>
								<parameterid>label4</parameterid>
								<name>Color Controls</name>
								<value/>
							</parameter>
							<parameter>
								<parameterid>chroma</parameterid>
								<name>Saturation</name>
								<valuemin>0</valuemin>
								<valuemax>200</valuemax>
								<value>90</value>
							</parameter>
							<parameter>
								<parameterid>label5</parameterid>
								<name>Limit Effect Controls</name>
								<value/>
							</parameter>
							<parameter>
								<parameterid>dochroma</parameterid>
								<name>Limit on Chroma</name>
								<value>FALSE</value>
							</parameter>
							<parameter>
								<parameterid>centerang</parameterid>
								<name>Chroma Center</name>
								<valuemin>-760</valuemin>
								<valuemax>760</valuemax>
								<value>-110</value>
							</parameter>
							<parameter>
								<parameterid>chromawidth</parameterid>
								<name>Chroma Width</name>
								<valuemin>0</valuemin>
								<valuemax>360</valuemax>
								<value>15</value>
							</parameter>
							<parameter>
								<parameterid>chromasoft</parameterid>
								<name>Chroma Softness</name>
								<valuemin>0</valuemin>
								<valuemax>180</valuemax>
								<value>10</value>
							</parameter>
							<parameter>
								<parameterid>dosat</parameterid>
								<name>Limit on Saturation</name>
								<value>FALSE</value>
							</parameter>
							<parameter>
								<parameterid>satmin</parameterid>
								<name>Sat. Minimum</name>
								<valuemin>0</valuemin>
								<valuemax>125</valuemax>
								<value>35</value>
							</parameter>
							<parameter>
								<parameterid>satwidth</parameterid>
								<name>Sat. Width</name>
								<valuemin>0</valuemin>
								<valuemax>125</valuemax>
								<value>40</value>
							</parameter>
							<parameter>
								<parameterid>satsoft</parameterid>
								<name>Sat. Softness</name>
								<valuemin>0</valuemin>
								<valuemax>125</valuemax>
								<value>20</value>
							</parameter>
							<parameter>
								<parameterid>doluma</parameterid>
								<name>Limit on Luma</name>
								<value>FALSE</value>
							</parameter>
							<parameter>
								<parameterid>lumamin</parameterid>
								<name>Luma Minimum</name>
								<valuemin>0</valuemin>
								<valuemax>120</valuemax>
								<value>0</value>
							</parameter>
							<parameter>
								<parameterid>lumawidth</parameterid>
								<name>Luma Width</name>
								<valuemin>0</valuemin>
								<valuemax>120</valuemax>
								<value>40</value>
							</parameter>
							<parameter>
								<parameterid>lumasoft</parameterid>
								<name>Luma Softness</name>
								<valuemin>0</valuemin>
								<valuemax>120</valuemax>
								<value>20</value>
							</parameter>
							<parameter>
								<parameterid>label6</parameterid>
								<name>Edge Control</name>
								<value/>
							</parameter>
							<parameter>
								<parameterid>edgethin</parameterid>
								<name>Thin/Spread</name>
								<valuemin>-100</valuemin>
								<valuemax>100</valuemax>
								<value>0</value>
							</parameter>
							<parameter>
								<parameterid>edgefeather</parameterid>
								<name>Softening</name>
								<valuemin>0</valuemin>
								<valuemax>100</valuemax>
								<value>0</value>
							</parameter>
							<parameter>
								<parameterid>label7</parameterid>
								<name>Mask Control</name>
								<value/>
							</parameter>
							<parameter>
								<parameterid>invertsel</parameterid>
								<name>Invert</name>
								<value>FALSE</value>
							</parameter>
							<parameter>
								<parameterid>debugshow</parameterid>
								<name>Show Stats</name>
								<value>FALSE</value>
							</parameter>
						</effect>
					</filter>
					<sourcetrack>
						<mediatype>video</mediatype>
					</sourcetrack>
					<link>
						<linkclipref>00827001.MOV</linkclipref>
						<mediatype>video</mediatype>
						<trackindex>1</trackindex>
						<clipindex>250</clipindex>
					</link>
					<link>
						<linkclipref>00827001.MOV2</linkclipref>
						<mediatype>audio</mediatype>
						<trackindex>1</trackindex>
						<clipindex>212</clipindex>
					</link>
					<link>
						<linkclipref>00827001.MOV3</linkclipref>
						<mediatype>audio</mediatype>
						<trackindex>2</trackindex>
						<clipindex>212</clipindex>
					</link>
					<fielddominance>upper</fielddominance>
					<itemhistory>
						<uuid>4DC69591-CE4F-4244-A04D-7E57924B8300</uuid>
					</itemhistory>
				</clipitem>
				<clipitem id="00824001.MOV4">
					<name>00824001.MOV</name>
					<duration>2328</duration>
					<rate>
						<ntsc>FALSE</ntsc>
						<timebase>25</timebase>
					</rate>
					<in>1473</in>
					<out>1554</out>
					<start>29531</start>
					<end>29612</end>
					<pixelaspectratio>Square</pixelaspectratio>
					<enabled>TRUE</enabled>
					<anamorphic>FALSE</anamorphic>
					<alphatype>none</alphatype>
					<masterclipid>00824001.MOV1</masterclipid>
					<logginginfo>
						<scene/>
						<shottake/>
						<lognote/>
						<good>FALSE</good>
					</logginginfo>
					<labels>
						<label2/>
					</labels>
					<comments>
						<mastercomment1/>
						<mastercomment2/>
						<mastercomment3/>
						<mastercomment4/>
					</comments>
					<file id="00824001 "/>
					<filter>
						<start>-1</start>
						<end>-1</end>
						<effect>
							<name>Color Corrector - Lua til Carina</name>
							<effectid>Color Corrector</effectid>
							<effectcategory>Color Correction</effectcategory>
							<effecttype>filter</effecttype>
							<mediatype>video</mediatype>
							<parameter>
								<parameterid>dispmode</parameterid>
								<name>Display Mode</name>
								<valuemin>1</valuemin>
								<valuemax>3</valuemax>
								<valuelist>
									<valueentry>
										<name>Final</name>
										<value>1</value>
									</valueentry>
									<valueentry>
										<name>Matte</name>
										<value>2</value>
									</valueentry>
									<valueentry>
										<name>Source</name>
										<value>3</value>
									</valueentry>
								</valuelist>
								<value>1</value>
							</parameter>
							<parameter>
								<parameterid>label1</parameterid>
								<name>Level Controls</name>
								<value/>
							</parameter>
							<parameter>
								<parameterid>highlights</parameterid>
								<name>Highlights</name>
								<valuemin>64</valuemin>
								<valuemax>509</valuemax>
								<value>247</value>
							</parameter>
							<parameter>
								<parameterid>mids</parameterid>
								<name>Mids</name>
								<valuemin>0</valuemin>
								<valuemax>200</valuemax>
								<value>100</value>
							</parameter>
							<parameter>
								<parameterid>blacklevel</parameterid>
								<name>Blacks</name>
								<valuemin>-196</valuemin>
								<valuemax>254</valuemax>
								<value>-3</value>
							</parameter>
							<parameter>
								<parameterid>label2</parameterid>
								<name>Color Balance</name>
								<value/>
							</parameter>
							<parameter>
								<parameterid>hue</parameterid>
								<name>Angle</name>
								<valuemin>-180</valuemin>
								<valuemax>180</valuemax>
								<value>-33</value>
							</parameter>
							<parameter>
								<parameterid>mag</parameterid>
								<name>Magnitude</name>
								<valuemin>0</valuemin>
								<valuemax>200</valuemax>
								<value>0</value>
							</parameter>
							<parameter>
								<parameterid>label4</parameterid>
								<name>Color Controls</name>
								<value/>
							</parameter>
							<parameter>
								<parameterid>chroma</parameterid>
								<name>Saturation</name>
								<valuemin>0</valuemin>
								<valuemax>200</valuemax>
								<value>84</value>
							</parameter>
							<parameter>
								<parameterid>phase</parameterid>
								<name>Phase shift</name>
								<valuemin>-180</valuemin>
								<valuemax>180</valuemax>
								<value>0</value>
							</parameter>
							<parameter>
								<parameterid>label5</parameterid>
								<name>Limit Effect Controls</name>
								<value/>
							</parameter>
							<parameter>
								<parameterid>dochroma</parameterid>
								<name>Limit on Chroma</name>
								<value>TRUE</value>
							</parameter>
							<parameter>
								<parameterid>centerang</parameterid>
								<name>Chroma Center</name>
								<valuemin>-760</valuemin>
								<valuemax>760</valuemax>
								<value>322.256</value>
							</parameter>
							<parameter>
								<parameterid>chromawidth</parameterid>
								<name>Chroma Width</name>
								<valuemin>0</valuemin>
								<valuemax>360</valuemax>
								<value>7.49567</value>
							</parameter>
							<parameter>
								<parameterid>chromasoft</parameterid>
								<name>Chroma Softness</name>
								<valuemin>0</valuemin>
								<valuemax>180</valuemax>
								<value>10.6152</value>
							</parameter>
							<parameter>
								<parameterid>dosat</parameterid>
								<name>Limit on Saturation</name>
								<value>TRUE</value>
							</parameter>
							<parameter>
								<parameterid>satmin</parameterid>
								<name>Sat. Minimum</name>
								<valuemin>0</valuemin>
								<valuemax>125</valuemax>
								<value>36.7837</value>
							</parameter>
							<parameter>
								<parameterid>satwidth</parameterid>
								<name>Sat. Width</name>
								<valuemin>0</valuemin>
								<valuemax>125</valuemax>
								<value>84.0889</value>
							</parameter>
							<parameter>
								<parameterid>satsoft</parameterid>
								<name>Sat. Softness</name>
								<valuemin>0</valuemin>
								<valuemax>125</valuemax>
								<value>5</value>
							</parameter>
							<parameter>
								<parameterid>doluma</parameterid>
								<name>Limit on Luma</name>
								<value>TRUE</value>
							</parameter>
							<parameter>
								<parameterid>lumamin</parameterid>
								<name>Luma Minimum</name>
								<valuemin>0</valuemin>
								<valuemax>120</valuemax>
								<value>0.939667</value>
							</parameter>
							<parameter>
								<parameterid>lumawidth</parameterid>
								<name>Luma Width</name>
								<valuemin>0</valuemin>
								<valuemax>120</valuemax>
								<value>115.45</value>
							</parameter>
							<parameter>
								<parameterid>lumasoft</parameterid>
								<name>Luma Softness</name>
								<valuemin>0</valuemin>
								<valuemax>120</valuemax>
								<value>15.1099</value>
							</parameter>
							<parameter>
								<parameterid>label6</parameterid>
								<name>Edge Control</name>
								<value/>
							</parameter>
							<parameter>
								<parameterid>edgethin</parameterid>
								<name>Thin/Spread</name>
								<valuemin>-100</valuemin>
								<valuemax>100</valuemax>
								<value>0</value>
							</parameter>
							<parameter>
								<parameterid>edgefeather</parameterid>
								<name>Softening</name>
								<valuemin>0</valuemin>
								<valuemax>100</valuemax>
								<value>0</value>
							</parameter>
							<parameter>
								<parameterid>label7</parameterid>
								<name>Mask Control</name>
								<value/>
							</parameter>
							<parameter>
								<parameterid>invertsel</parameterid>
								<name>Invert</name>
								<value>FALSE</value>
							</parameter>
							<parameter>
								<parameterid>debugshow</parameterid>
								<name>Show Stats</name>
								<value>FALSE</value>
							</parameter>
						</effect>
					</filter>
					<sourcetrack>
						<mediatype>video</mediatype>
					</sourcetrack>
					<link>
						<linkclipref>00824001.MOV4</linkclipref>
						<mediatype>video</mediatype>
						<trackindex>1</trackindex>
						<clipindex>251</clipindex>
					</link>
					<link>
						<linkclipref>00824001.MOV5</linkclipref>
						<mediatype>audio</mediatype>
						<trackindex>1</trackindex>
						<clipindex>213</clipindex>
					</link>
					<link>
						<linkclipref>00824001.MOV6</linkclipref>
						<mediatype>audio</mediatype>
						<trackindex>2</trackindex>
						<clipindex>213</clipindex>
					</link>
					<fielddominance>upper</fielddominance>
					<itemhistory>
						<uuid>92C5503C-D45C-417C-9EFE-7ADCAE42C4A0</uuid>
					</itemhistory>
				</clipitem>
				<clipitem id="00827001.MOV4">
					<name>00827001.MOV</name>
					<duration>1680</duration>
					<rate>
						<ntsc>FALSE</ntsc>
						<timebase>25</timebase>
					</rate>
					<in>1112</in>
					<out>1163</out>
					<start>29612</start>
					<end>-1</end>
					<pixelaspectratio>Square</pixelaspectratio>
					<enabled>TRUE</enabled>
					<anamorphic>FALSE</anamorphic>
					<alphatype>none</alphatype>
					<masterclipid>00827001.MOV1</masterclipid>
					<logginginfo>
						<scene/>
						<shottake/>
						<lognote/>
						<good>FALSE</good>
					</logginginfo>
					<labels>
						<label2/>
					</labels>
					<comments>
						<mastercomment1/>
						<mastercomment2/>
						<mastercomment3/>
						<mastercomment4/>
					</comments>
					<file id="00827001 "/>
					<filter>
						<start>-1</start>
						<end>-1</end>
						<effect>
							<name>Color Corrector - Lua til Carina</name>
							<effectid>Color Corrector</effectid>
							<effectcategory>Color Correction</effectcategory>
							<effecttype>filter</effecttype>
							<mediatype>video</mediatype>
							<parameter>
								<parameterid>dispmode</parameterid>
								<name>Display Mode</name>
								<valuemin>1</valuemin>
								<valuemax>3</valuemax>
								<valuelist>
									<valueentry>
										<name>Final</name>
										<value>1</value>
									</valueentry>
									<valueentry>
										<name>Matte</name>
										<value>2</value>
									</valueentry>
									<valueentry>
										<name>Source</name>
										<value>3</value>
									</valueentry>
								</valuelist>
								<value>1</value>
							</parameter>
							<parameter>
								<parameterid>label1</parameterid>
								<name>Level Controls</name>
								<value/>
							</parameter>
							<parameter>
								<parameterid>highlights</parameterid>
								<name>Highlights</name>
								<valuemin>64</valuemin>
								<valuemax>509</valuemax>
								<value>247</value>
							</parameter>
							<parameter>
								<parameterid>mids</parameterid>
								<name>Mids</name>
								<valuemin>0</valuemin>
								<valuemax>200</valuemax>
								<value>100</value>
							</parameter>
							<parameter>
								<parameterid>blacklevel</parameterid>
								<name>Blacks</name>
								<valuemin>-196</valuemin>
								<valuemax>254</valuemax>
								<value>-3</value>
							</parameter>
							<parameter>
								<parameterid>label2</parameterid>
								<name>Color Balance</name>
								<value/>
							</parameter>
							<parameter>
								<parameterid>hue</parameterid>
								<name>Angle</name>
								<valuemin>-180</valuemin>
								<valuemax>180</valuemax>
								<value>-33</value>
							</parameter>
							<parameter>
								<parameterid>mag</parameterid>
								<name>Magnitude</name>
								<valuemin>0</valuemin>
								<valuemax>200</valuemax>
								<value>0</value>
							</parameter>
							<parameter>
								<parameterid>label4</parameterid>
								<name>Color Controls</name>
								<value/>
							</parameter>
							<parameter>
								<parameterid>chroma</parameterid>
								<name>Saturation</name>
								<valuemin>0</valuemin>
								<valuemax>200</valuemax>
								<value>84</value>
							</parameter>
							<parameter>
								<parameterid>phase</parameterid>
								<name>Phase shift</name>
								<valuemin>-180</valuemin>
								<valuemax>180</valuemax>
								<value>0</value>
							</parameter>
							<parameter>
								<parameterid>label5</parameterid>
								<name>Limit Effect Controls</name>
								<value/>
							</parameter>
							<parameter>
								<parameterid>dochroma</parameterid>
								<name>Limit on Chroma</name>
								<value>TRUE</value>
							</parameter>
							<parameter>
								<parameterid>centerang</parameterid>
								<name>Chroma Center</name>
								<valuemin>-760</valuemin>
								<valuemax>760</valuemax>
								<value>322.256</value>
							</parameter>
							<parameter>
								<parameterid>chromawidth</parameterid>
								<name>Chroma Width</name>
								<valuemin>0</valuemin>
								<valuemax>360</valuemax>
								<value>7.49567</value>
							</parameter>
							<parameter>
								<parameterid>chromasoft</parameterid>
								<name>Chroma Softness</name>
								<valuemin>0</valuemin>
								<valuemax>180</valuemax>
								<value>10.6152</value>
							</parameter>
							<parameter>
								<parameterid>dosat</parameterid>
								<name>Limit on Saturation</name>
								<value>TRUE</value>
							</parameter>
							<parameter>
								<parameterid>satmin</parameterid>
								<name>Sat. Minimum</name>
								<valuemin>0</valuemin>
								<valuemax>125</valuemax>
								<value>36.7837</value>
							</parameter>
							<parameter>
								<parameterid>satwidth</parameterid>
								<name>Sat. Width</name>
								<valuemin>0</valuemin>
								<valuemax>125</valuemax>
								<value>84.0889</value>
							</parameter>
							<parameter>
								<parameterid>satsoft</parameterid>
								<name>Sat. Softness</name>
								<valuemin>0</valuemin>
								<valuemax>125</valuemax>
								<value>5</value>
							</parameter>
							<parameter>
								<parameterid>doluma</parameterid>
								<name>Limit on Luma</name>
								<value>TRUE</value>
							</parameter>
							<parameter>
								<parameterid>lumamin</parameterid>
								<name>Luma Minimum</name>
								<valuemin>0</valuemin>
								<valuemax>120</valuemax>
								<value>0.939667</value>
							</parameter>
							<parameter>
								<parameterid>lumawidth</parameterid>
								<name>Luma Width</name>
								<valuemin>0</valuemin>
								<valuemax>120</valuemax>
								<value>115.45</value>
							</parameter>
							<parameter>
								<parameterid>lumasoft</parameterid>
								<name>Luma Softness</name>
								<valuemin>0</valuemin>
								<valuemax>120</valuemax>
								<value>15.1099</value>
							</parameter>
							<parameter>
								<parameterid>label6</parameterid>
								<name>Edge Control</name>
								<value/>
							</parameter>
							<parameter>
								<parameterid>edgethin</parameterid>
								<name>Thin/Spread</name>
								<valuemin>-100</valuemin>
								<valuemax>100</valuemax>
								<value>0</value>
							</parameter>
							<parameter>
								<parameterid>edgefeather</parameterid>
								<name>Softening</name>
								<valuemin>0</valuemin>
								<valuemax>100</valuemax>
								<value>0</value>
							</parameter>
							<parameter>
								<parameterid>label7</parameterid>
								<name>Mask Control</name>
								<value/>
							</parameter>
							<parameter>
								<parameterid>invertsel</parameterid>
								<name>Invert</name>
								<value>FALSE</value>
							</parameter>
							<parameter>
								<parameterid>debugshow</parameterid>
								<name>Show Stats</name>
								<value>FALSE</value>
							</parameter>
						</effect>
					</filter>
					<filter>
						<start>-1</start>
						<end>-1</end>
						<effect>
							<name>Color Corrector 3-way mindre metning</name>
							<effectid>Color Corrector 3-way</effectid>
							<effectcategory>Color Correction</effectcategory>
							<effecttype>filter</effecttype>
							<mediatype>video</mediatype>
							<parameter>
								<parameterid>dispmode</parameterid>
								<name>Display Mode</name>
								<valuemin>1</valuemin>
								<valuemax>3</valuemax>
								<valuelist>
									<valueentry>
										<name>Final</name>
										<value>1</value>
									</valueentry>
									<valueentry>
										<name>Matte</name>
										<value>2</value>
									</valueentry>
									<valueentry>
										<name>Source</name>
										<value>3</value>
									</valueentry>
								</valuelist>
								<value>1</value>
							</parameter>
							<parameter>
								<parameterid>label1</parameterid>
								<name>Blacks Controls</name>
								<value/>
							</parameter>
							<parameter>
								<parameterid>blacklevel</parameterid>
								<name>Level</name>
								<valuemin>-196</valuemin>
								<valuemax>254</valuemax>
								<value>0</value>
							</parameter>
							<parameter>
								<parameterid>b_hue</parameterid>
								<name>Angle</name>
								<valuemin>-180</valuemin>
								<valuemax>180</valuemax>
								<value>-33</value>
							</parameter>
							<parameter>
								<parameterid>b_mag</parameterid>
								<name>Magnitude</name>
								<valuemin>0</valuemin>
								<valuemax>200</valuemax>
								<value>0</value>
							</parameter>
							<parameter>
								<parameterid>label2</parameterid>
								<name>Midrange Controls</name>
								<value/>
							</parameter>
							<parameter>
								<parameterid>mids</parameterid>
								<name>Level</name>
								<valuemin>0</valuemin>
								<valuemax>200</valuemax>
								<value>100</value>
							</parameter>
							<parameter>
								<parameterid>m_hue</parameterid>
								<name>Angle</name>
								<valuemin>-180</valuemin>
								<valuemax>180</valuemax>
								<value>-33</value>
							</parameter>
							<parameter>
								<parameterid>m_mag</parameterid>
								<name>Magnitude</name>
								<valuemin>0</valuemin>
								<valuemax>200</valuemax>
								<value>0</value>
							</parameter>
							<parameter>
								<parameterid>label3</parameterid>
								<name>Highlight Controls</name>
								<value/>
							</parameter>
							<parameter>
								<parameterid>highlights</parameterid>
								<name>Level</name>
								<valuemin>64</valuemin>
								<valuemax>509</valuemax>
								<value>255</value>
							</parameter>
							<parameter>
								<parameterid>h_hue</parameterid>
								<name>Angle</name>
								<valuemin>-180</valuemin>
								<valuemax>180</valuemax>
								<value>-33</value>
							</parameter>
							<parameter>
								<parameterid>h_mag</parameterid>
								<name>Magnitude</name>
								<valuemin>0</valuemin>
								<valuemax>200</valuemax>
								<value>0</value>
							</parameter>
							<parameter>
								<parameterid>label4</parameterid>
								<name>Color Controls</name>
								<value/>
							</parameter>
							<parameter>
								<parameterid>chroma</parameterid>
								<name>Saturation</name>
								<valuemin>0</valuemin>
								<valuemax>200</valuemax>
								<value>90</value>
							</parameter>
							<parameter>
								<parameterid>label5</parameterid>
								<name>Limit Effect Controls</name>
								<value/>
							</parameter>
							<parameter>
								<parameterid>dochroma</parameterid>
								<name>Limit on Chroma</name>
								<value>FALSE</value>
							</parameter>
							<parameter>
								<parameterid>centerang</parameterid>
								<name>Chroma Center</name>
								<valuemin>-760</valuemin>
								<valuemax>760</valuemax>
								<value>-110</value>
							</parameter>
							<parameter>
								<parameterid>chromawidth</parameterid>
								<name>Chroma Width</name>
								<valuemin>0</valuemin>
								<valuemax>360</valuemax>
								<value>15</value>
							</parameter>
							<parameter>
								<parameterid>chromasoft</parameterid>
								<name>Chroma Softness</name>
								<valuemin>0</valuemin>
								<valuemax>180</valuemax>
								<value>10</value>
							</parameter>
							<parameter>
								<parameterid>dosat</parameterid>
								<name>Limit on Saturation</name>
								<value>FALSE</value>
							</parameter>
							<parameter>
								<parameterid>satmin</parameterid>
								<name>Sat. Minimum</name>
								<valuemin>0</valuemin>
								<valuemax>125</valuemax>
								<value>35</value>
							</parameter>
							<parameter>
								<parameterid>satwidth</parameterid>
								<name>Sat. Width</name>
								<valuemin>0</valuemin>
								<valuemax>125</valuemax>
								<value>40</value>
							</parameter>
							<parameter>
								<parameterid>satsoft</parameterid>
								<name>Sat. Softness</name>
								<valuemin>0</valuemin>
								<valuemax>125</valuemax>
								<value>20</value>
							</parameter>
							<parameter>
								<parameterid>doluma</parameterid>
								<name>Limit on Luma</name>
								<value>FALSE</value>
							</parameter>
							<parameter>
								<parameterid>lumamin</parameterid>
								<name>Luma Minimum</name>
								<valuemin>0</valuemin>
								<valuemax>120</valuemax>
								<value>0</value>
							</parameter>
							<parameter>
								<parameterid>lumawidth</parameterid>
								<name>Luma Width</name>
								<valuemin>0</valuemin>
								<valuemax>120</valuemax>
								<value>40</value>
							</parameter>
							<parameter>
								<parameterid>lumasoft</parameterid>
								<name>Luma Softness</name>
								<valuemin>0</valuemin>
								<valuemax>120</valuemax>
								<value>20</value>
							</parameter>
							<parameter>
								<parameterid>label6</parameterid>
								<name>Edge Control</name>
								<value/>
							</parameter>
							<parameter>
								<parameterid>edgethin</parameterid>
								<name>Thin/Spread</name>
								<valuemin>-100</valuemin>
								<valuemax>100</valuemax>
								<value>0</value>
							</parameter>
							<parameter>
								<parameterid>edgefeather</parameterid>
								<name>Softening</name>
								<valuemin>0</valuemin>
								<valuemax>100</valuemax>
								<value>0</value>
							</parameter>
							<parameter>
								<parameterid>label7</parameterid>
								<name>Mask Control</name>
								<value/>
							</parameter>
							<parameter>
								<parameterid>invertsel</parameterid>
								<name>Invert</name>
								<value>FALSE</value>
							</parameter>
							<parameter>
								<parameterid>debugshow</parameterid>
								<name>Show Stats</name>
								<value>FALSE</value>
							</parameter>
						</effect>
					</filter>
					<sourcetrack>
						<mediatype>video</mediatype>
					</sourcetrack>
					<link>
						<linkclipref>00827001.MOV4</linkclipref>
						<mediatype>video</mediatype>
						<trackindex>1</trackindex>
						<clipindex>252</clipindex>
					</link>
					<link>
						<linkclipref>00827001.MOV5</linkclipref>
						<mediatype>audio</mediatype>
						<trackindex>1</trackindex>
						<clipindex>215</clipindex>
					</link>
					<link>
						<linkclipref>00827001.MOV6</linkclipref>
						<mediatype>audio</mediatype>
						<trackindex>2</trackindex>
						<clipindex>215</clipindex>
					</link>
					<fielddominance>upper</fielddominance>
					<itemhistory>
						<uuid>9E221667-70C0-4804-A682-C9C3B187EB1C</uuid>
					</itemhistory>
				</clipitem>
				<transitionitem>
					<rate>
						<ntsc>FALSE</ntsc>
						<timebase>25</timebase>
					</rate>
					<start>29638</start>
					<end>29663</end>
					<alignment>center</alignment>
					<effect>
						<name>Cross Dissolve</name>
						<effectid>Cross Dissolve</effectid>
						<effectcategory>Dissolve</effectcategory>
						<effecttype>transition</effecttype>
						<mediatype>video</mediatype>
						<wipecode>0</wipecode>
						<wipeaccuracy>100</wipeaccuracy>
						<startratio>0</startratio>
						<endratio>1</endratio>
						<reverse>FALSE</reverse>
					</effect>
				</transitionitem>
				<clipitem id="00827001.MOV7">
					<name>00827001.MOV</name>
					<duration>1680</duration>
					<rate>
						<ntsc>FALSE</ntsc>
						<timebase>25</timebase>
					</rate>
					<in>1138</in>
					<out>1198</out>
					<start>-1</start>
					<end>29698</end>
					<pixelaspectratio>Square</pixelaspectratio>
					<enabled>TRUE</enabled>
					<anamorphic>FALSE</anamorphic>
					<alphatype>none</alphatype>
					<masterclipid>00827001.MOV1</masterclipid>
					<logginginfo>
						<scene/>
						<shottake/>
						<lognote/>
						<good>FALSE</good>
					</logginginfo>
					<labels>
						<label2/>
					</labels>
					<comments>
						<mastercomment1/>
						<mastercomment2/>
						<mastercomment3/>
						<mastercomment4/>
					</comments>
					<file id="00827001 "/>
					<filter>
						<enabled>TRUE</enabled>
						<start>-1</start>
						<end>-1</end>
						<effect>
							<name>Color Corrector - Lua til Carina</name>
							<effectid>Color Corrector</effectid>
							<effectcategory>Color Correction</effectcategory>
							<effecttype>filter</effecttype>
							<mediatype>video</mediatype>
							<parameter>
								<parameterid>dispmode</parameterid>
								<name>Display Mode</name>
								<valuemin>1</valuemin>
								<valuemax>3</valuemax>
								<valuelist>
									<valueentry>
										<name>Final</name>
										<value>1</value>
									</valueentry>
									<valueentry>
										<name>Matte</name>
										<value>2</value>
									</valueentry>
									<valueentry>
										<name>Source</name>
										<value>3</value>
									</valueentry>
								</valuelist>
								<value>1</value>
							</parameter>
							<parameter>
								<parameterid>label1</parameterid>
								<name>Level Controls</name>
								<value/>
							</parameter>
							<parameter>
								<parameterid>highlights</parameterid>
								<name>Highlights</name>
								<valuemin>64</valuemin>
								<valuemax>509</valuemax>
								<value>247</value>
							</parameter>
							<parameter>
								<parameterid>mids</parameterid>
								<name>Mids</name>
								<valuemin>0</valuemin>
								<valuemax>200</valuemax>
								<value>100</value>
							</parameter>
							<parameter>
								<parameterid>blacklevel</parameterid>
								<name>Blacks</name>
								<valuemin>-196</valuemin>
								<valuemax>254</valuemax>
								<value>-3</value>
							</parameter>
							<parameter>
								<parameterid>label2</parameterid>
								<name>Color Balance</name>
								<value/>
							</parameter>
							<parameter>
								<parameterid>hue</parameterid>
								<name>Angle</name>
								<valuemin>-180</valuemin>
								<valuemax>180</valuemax>
								<value>-33</value>
							</parameter>
							<parameter>
								<parameterid>mag</parameterid>
								<name>Magnitude</name>
								<valuemin>0</valuemin>
								<valuemax>200</valuemax>
								<value>0</value>
							</parameter>
							<parameter>
								<parameterid>label4</parameterid>
								<name>Color Controls</name>
								<value/>
							</parameter>
							<parameter>
								<parameterid>chroma</parameterid>
								<name>Saturation</name>
								<valuemin>0</valuemin>
								<valuemax>200</valuemax>
								<value>84</value>
							</parameter>
							<parameter>
								<parameterid>phase</parameterid>
								<name>Phase shift</name>
								<valuemin>-180</valuemin>
								<valuemax>180</valuemax>
								<value>0</value>
							</parameter>
							<parameter>
								<parameterid>label5</parameterid>
								<name>Limit Effect Controls</name>
								<value/>
							</parameter>
							<parameter>
								<parameterid>dochroma</parameterid>
								<name>Limit on Chroma</name>
								<value>TRUE</value>
							</parameter>
							<parameter>
								<parameterid>centerang</parameterid>
								<name>Chroma Center</name>
								<valuemin>-760</valuemin>
								<valuemax>760</valuemax>
								<value>322.256</value>
							</parameter>
							<parameter>
								<parameterid>chromawidth</parameterid>
								<name>Chroma Width</name>
								<valuemin>0</valuemin>
								<valuemax>360</valuemax>
								<value>7.49567</value>
							</parameter>
							<parameter>
								<parameterid>chromasoft</parameterid>
								<name>Chroma Softness</name>
								<valuemin>0</valuemin>
								<valuemax>180</valuemax>
								<value>10.6152</value>
							</parameter>
							<parameter>
								<parameterid>dosat</parameterid>
								<name>Limit on Saturation</name>
								<value>TRUE</value>
							</parameter>
							<parameter>
								<parameterid>satmin</parameterid>
								<name>Sat. Minimum</name>
								<valuemin>0</valuemin>
								<valuemax>125</valuemax>
								<value>36.7837</value>
							</parameter>
							<parameter>
								<parameterid>satwidth</parameterid>
								<name>Sat. Width</name>
								<valuemin>0</valuemin>
								<valuemax>125</valuemax>
								<value>84.0889</value>
							</parameter>
							<parameter>
								<parameterid>satsoft</parameterid>
								<name>Sat. Softness</name>
								<valuemin>0</valuemin>
								<valuemax>125</valuemax>
								<value>5</value>
							</parameter>
							<parameter>
								<parameterid>doluma</parameterid>
								<name>Limit on Luma</name>
								<value>TRUE</value>
							</parameter>
							<parameter>
								<parameterid>lumamin</parameterid>
								<name>Luma Minimum</name>
								<valuemin>0</valuemin>
								<valuemax>120</valuemax>
								<value>0.939667</value>
							</parameter>
							<parameter>
								<parameterid>lumawidth</parameterid>
								<name>Luma Width</name>
								<valuemin>0</valuemin>
								<valuemax>120</valuemax>
								<value>115.45</value>
							</parameter>
							<parameter>
								<parameterid>lumasoft</parameterid>
								<name>Luma Softness</name>
								<valuemin>0</valuemin>
								<valuemax>120</valuemax>
								<value>15.1099</value>
							</parameter>
							<parameter>
								<parameterid>label6</parameterid>
								<name>Edge Control</name>
								<value/>
							</parameter>
							<parameter>
								<parameterid>edgethin</parameterid>
								<name>Thin/Spread</name>
								<valuemin>-100</valuemin>
								<valuemax>100</valuemax>
								<value>0</value>
							</parameter>
							<parameter>
								<parameterid>edgefeather</parameterid>
								<name>Softening</name>
								<valuemin>0</valuemin>
								<valuemax>100</valuemax>
								<value>0</value>
							</parameter>
							<parameter>
								<parameterid>label7</parameterid>
								<name>Mask Control</name>
								<value/>
							</parameter>
							<parameter>
								<parameterid>invertsel</parameterid>
								<name>Invert</name>
								<value>FALSE</value>
							</parameter>
							<parameter>
								<parameterid>debugshow</parameterid>
								<name>Show Stats</name>
								<value>FALSE</value>
							</parameter>
						</effect>
					</filter>
					<filter>
						<enabled>TRUE</enabled>
						<start>-1</start>
						<end>-1</end>
						<effect>
							<name>Color Corrector 3-way mindre metning</name>
							<effectid>Color Corrector 3-way</effectid>
							<effectcategory>Color Correction</effectcategory>
							<effecttype>filter</effecttype>
							<mediatype>video</mediatype>
							<parameter>
								<parameterid>dispmode</parameterid>
								<name>Display Mode</name>
								<valuemin>1</valuemin>
								<valuemax>3</valuemax>
								<valuelist>
									<valueentry>
										<name>Final</name>
										<value>1</value>
									</valueentry>
									<valueentry>
										<name>Matte</name>
										<value>2</value>
									</valueentry>
									<valueentry>
										<name>Source</name>
										<value>3</value>
									</valueentry>
								</valuelist>
								<value>1</value>
							</parameter>
							<parameter>
								<parameterid>label1</parameterid>
								<name>Blacks Controls</name>
								<value/>
							</parameter>
							<parameter>
								<parameterid>blacklevel</parameterid>
								<name>Level</name>
								<valuemin>-196</valuemin>
								<valuemax>254</valuemax>
								<value>0</value>
							</parameter>
							<parameter>
								<parameterid>b_hue</parameterid>
								<name>Angle</name>
								<valuemin>-180</valuemin>
								<valuemax>180</valuemax>
								<value>-33</value>
							</parameter>
							<parameter>
								<parameterid>b_mag</parameterid>
								<name>Magnitude</name>
								<valuemin>0</valuemin>
								<valuemax>200</valuemax>
								<value>0</value>
							</parameter>
							<parameter>
								<parameterid>label2</parameterid>
								<name>Midrange Controls</name>
								<value/>
							</parameter>
							<parameter>
								<parameterid>mids</parameterid>
								<name>Level</name>
								<valuemin>0</valuemin>
								<valuemax>200</valuemax>
								<value>100</value>
							</parameter>
							<parameter>
								<parameterid>m_hue</parameterid>
								<name>Angle</name>
								<valuemin>-180</valuemin>
								<valuemax>180</valuemax>
								<value>-33</value>
							</parameter>
							<parameter>
								<parameterid>m_mag</parameterid>
								<name>Magnitude</name>
								<valuemin>0</valuemin>
								<valuemax>200</valuemax>
								<value>0</value>
							</parameter>
							<parameter>
								<parameterid>label3</parameterid>
								<name>Highlight Controls</name>
								<value/>
							</parameter>
							<parameter>
								<parameterid>highlights</parameterid>
								<name>Level</name>
								<valuemin>64</valuemin>
								<valuemax>509</valuemax>
								<value>255</value>
							</parameter>
							<parameter>
								<parameterid>h_hue</parameterid>
								<name>Angle</name>
								<valuemin>-180</valuemin>
								<valuemax>180</valuemax>
								<value>-33</value>
							</parameter>
							<parameter>
								<parameterid>h_mag</parameterid>
								<name>Magnitude</name>
								<valuemin>0</valuemin>
								<valuemax>200</valuemax>
								<value>0</value>
							</parameter>
							<parameter>
								<parameterid>label4</parameterid>
								<name>Color Controls</name>
								<value/>
							</parameter>
							<parameter>
								<parameterid>chroma</parameterid>
								<name>Saturation</name>
								<valuemin>0</valuemin>
								<valuemax>200</valuemax>
								<value>90</value>
							</parameter>
							<parameter>
								<parameterid>label5</parameterid>
								<name>Limit Effect Controls</name>
								<value/>
							</parameter>
							<parameter>
								<parameterid>dochroma</parameterid>
								<name>Limit on Chroma</name>
								<value>FALSE</value>
							</parameter>
							<parameter>
								<parameterid>centerang</parameterid>
								<name>Chroma Center</name>
								<valuemin>-760</valuemin>
								<valuemax>760</valuemax>
								<value>-110</value>
							</parameter>
							<parameter>
								<parameterid>chromawidth</parameterid>
								<name>Chroma Width</name>
								<valuemin>0</valuemin>
								<valuemax>360</valuemax>
								<value>15</value>
							</parameter>
							<parameter>
								<parameterid>chromasoft</parameterid>
								<name>Chroma Softness</name>
								<valuemin>0</valuemin>
								<valuemax>180</valuemax>
								<value>10</value>
							</parameter>
							<parameter>
								<parameterid>dosat</parameterid>
								<name>Limit on Saturation</name>
								<value>FALSE</value>
							</parameter>
							<parameter>
								<parameterid>satmin</parameterid>
								<name>Sat. Minimum</name>
								<valuemin>0</valuemin>
								<valuemax>125</valuemax>
								<value>35</value>
							</parameter>
							<parameter>
								<parameterid>satwidth</parameterid>
								<name>Sat. Width</name>
								<valuemin>0</valuemin>
								<valuemax>125</valuemax>
								<value>40</value>
							</parameter>
							<parameter>
								<parameterid>satsoft</parameterid>
								<name>Sat. Softness</name>
								<valuemin>0</valuemin>
								<valuemax>125</valuemax>
								<value>20</value>
							</parameter>
							<parameter>
								<parameterid>doluma</parameterid>
								<name>Limit on Luma</name>
								<value>FALSE</value>
							</parameter>
							<parameter>
								<parameterid>lumamin</parameterid>
								<name>Luma Minimum</name>
								<valuemin>0</valuemin>
								<valuemax>120</valuemax>
								<value>0</value>
							</parameter>
							<parameter>
								<parameterid>lumawidth</parameterid>
								<name>Luma Width</name>
								<valuemin>0</valuemin>
								<valuemax>120</valuemax>
								<value>40</value>
							</parameter>
							<parameter>
								<parameterid>lumasoft</parameterid>
								<name>Luma Softness</name>
								<valuemin>0</valuemin>
								<valuemax>120</valuemax>
								<value>20</value>
							</parameter>
							<parameter>
								<parameterid>label6</parameterid>
								<name>Edge Control</name>
								<value/>
							</parameter>
							<parameter>
								<parameterid>edgethin</parameterid>
								<name>Thin/Spread</name>
								<valuemin>-100</valuemin>
								<valuemax>100</valuemax>
								<value>0</value>
							</parameter>
							<parameter>
								<parameterid>edgefeather</parameterid>
								<name>Softening</name>
								<valuemin>0</valuemin>
								<valuemax>100</valuemax>
								<value>0</value>
							</parameter>
							<parameter>
								<parameterid>label7</parameterid>
								<name>Mask Control</name>
								<value/>
							</parameter>
							<parameter>
								<parameterid>invertsel</parameterid>
								<name>Invert</name>
								<value>FALSE</value>
							</parameter>
							<parameter>
								<parameterid>debugshow</parameterid>
								<name>Show Stats</name>
								<value>FALSE</value>
							</parameter>
						</effect>
					</filter>
					<filter>
						<enabled>TRUE</enabled>
						<start>-1</start>
						<end>-1</end>
						<effect>
							<name>G Simple Curves</name>
							<effectcategory>Nattress Big Box of Tricks - Levels and Curves</effectcategory>
							<effecttype>filter</effecttype>
							<mediatype>video</mediatype>
							<parameter>
								<parameterid>colourspace</parameterid>
								<name>Colour Space</name>
								<valuemin>1</valuemin>
								<valuemax>2</valuemax>
								<valuelist>
									<valueentry>
										<name>RGB</name>
										<value>1</value>
									</valueentry>
									<valueentry>
										<name>Y'CbCr</name>
										<value>2</value>
									</valueentry>
								</valuelist>
								<value>1</value>
							</parameter>
							<parameter>
								<parameterid>showcurves</parameterid>
								<name>Show Curves</name>
								<value>FALSE</value>
							</parameter>
							<parameter>
								<parameterid>lvar</parameterid>
								<name>Levels Controls</name>
								<value>string</value>
							</parameter>
							<parameter>
								<parameterid>inw</parameterid>
								<name>White Level</name>
								<valuemin>0</valuemin>
								<valuemax>255</valuemax>
								<value>255</value>
							</parameter>
							<parameter>
								<parameterid>inb</parameterid>
								<name>Black Level</name>
								<valuemin>0</valuemin>
								<valuemax>255</valuemax>
								<value>0</value>
							</parameter>
							<parameter>
								<parameterid>outw</parameterid>
								<name>White Output</name>
								<valuemin>0</valuemin>
								<valuemax>255</valuemax>
								<value>255</value>
							</parameter>
							<parameter>
								<parameterid>outb</parameterid>
								<name>Black Output</name>
								<valuemin>0</valuemin>
								<valuemax>255</valuemax>
								<value>0</value>
							</parameter>
							<parameter>
								<parameterid>cvar</parameterid>
								<name>Curves Controls</name>
								<value>string</value>
							</parameter>
							<parameter>
								<parameterid>curvew</parameterid>
								<name>White Curve</name>
								<valuemin>-100</valuemin>
								<valuemax>100</valuemax>
								<value>13</value>
							</parameter>
							<parameter>
								<parameterid>curveb</parameterid>
								<name>Black Curve</name>
								<valuemin>-100</valuemin>
								<valuemax>100</valuemax>
								<value>0</value>
							</parameter>
							<parameter>
								<parameterid>clipoutput</parameterid>
								<name>Clip Output Levels</name>
								<value>TRUE</value>
							</parameter>
							<parameter>
								<parameterid>copyright</parameterid>
								<name>© www.nattress.com</name>
								<value>string</value>
							</parameter>
						</effect>
					</filter>
					<sourcetrack>
						<mediatype>video</mediatype>
					</sourcetrack>
					<fielddominance>upper</fielddominance>
					<itemhistory>
						<uuid>F576D9B1-126D-4455-A104-C5A50630A1D1</uuid>
					</itemhistory>
				</clipitem>
				<clipitem id="00824001.MOV7">
					<name>00824001.MOV</name>
					<duration>2328</duration>
					<rate>
						<ntsc>FALSE</ntsc>
						<timebase>25</timebase>
					</rate>
					<in>1675</in>
					<out>1706</out>
					<start>29698</start>
					<end>29729</end>
					<pixelaspectratio>Square</pixelaspectratio>
					<enabled>TRUE</enabled>
					<anamorphic>FALSE</anamorphic>
					<alphatype>none</alphatype>
					<masterclipid>00824001.MOV1</masterclipid>
					<logginginfo>
						<scene/>
						<shottake/>
						<lognote/>
						<good>FALSE</good>
					</logginginfo>
					<labels>
						<label2/>
					</labels>
					<comments>
						<mastercomment1/>
						<mastercomment2/>
						<mastercomment3/>
						<mastercomment4/>
					</comments>
					<file id="00824001 "/>
					<filter>
						<start>-1</start>
						<end>-1</end>
						<effect>
							<name>Color Corrector - Lua til Carina</name>
							<effectid>Color Corrector</effectid>
							<effectcategory>Color Correction</effectcategory>
							<effecttype>filter</effecttype>
							<mediatype>video</mediatype>
							<parameter>
								<parameterid>dispmode</parameterid>
								<name>Display Mode</name>
								<valuemin>1</valuemin>
								<valuemax>3</valuemax>
								<valuelist>
									<valueentry>
										<name>Final</name>
										<value>1</value>
									</valueentry>
									<valueentry>
										<name>Matte</name>
										<value>2</value>
									</valueentry>
									<valueentry>
										<name>Source</name>
										<value>3</value>
									</valueentry>
								</valuelist>
								<value>1</value>
							</parameter>
							<parameter>
								<parameterid>label1</parameterid>
								<name>Level Controls</name>
								<value/>
							</parameter>
							<parameter>
								<parameterid>highlights</parameterid>
								<name>Highlights</name>
								<valuemin>64</valuemin>
								<valuemax>509</valuemax>
								<value>247</value>
							</parameter>
							<parameter>
								<parameterid>mids</parameterid>
								<name>Mids</name>
								<valuemin>0</valuemin>
								<valuemax>200</valuemax>
								<value>100</value>
							</parameter>
							<parameter>
								<parameterid>blacklevel</parameterid>
								<name>Blacks</name>
								<valuemin>-196</valuemin>
								<valuemax>254</valuemax>
								<value>-3</value>
							</parameter>
							<parameter>
								<parameterid>label2</parameterid>
								<name>Color Balance</name>
								<value/>
							</parameter>
							<parameter>
								<parameterid>hue</parameterid>
								<name>Angle</name>
								<valuemin>-180</valuemin>
								<valuemax>180</valuemax>
								<value>-33</value>
							</parameter>
							<parameter>
								<parameterid>mag</parameterid>
								<name>Magnitude</name>
								<valuemin>0</valuemin>
								<valuemax>200</valuemax>
								<value>0</value>
							</parameter>
							<parameter>
								<parameterid>label4</parameterid>
								<name>Color Controls</name>
								<value/>
							</parameter>
							<parameter>
								<parameterid>chroma</parameterid>
								<name>Saturation</name>
								<valuemin>0</valuemin>
								<valuemax>200</valuemax>
								<value>84</value>
							</parameter>
							<parameter>
								<parameterid>phase</parameterid>
								<name>Phase shift</name>
								<valuemin>-180</valuemin>
								<valuemax>180</valuemax>
								<value>0</value>
							</parameter>
							<parameter>
								<parameterid>label5</parameterid>
								<name>Limit Effect Controls</name>
								<value/>
							</parameter>
							<parameter>
								<parameterid>dochroma</parameterid>
								<name>Limit on Chroma</name>
								<value>TRUE</value>
							</parameter>
							<parameter>
								<parameterid>centerang</parameterid>
								<name>Chroma Center</name>
								<valuemin>-760</valuemin>
								<valuemax>760</valuemax>
								<value>322.256</value>
							</parameter>
							<parameter>
								<parameterid>chromawidth</parameterid>
								<name>Chroma Width</name>
								<valuemin>0</valuemin>
								<valuemax>360</valuemax>
								<value>7.49567</value>
							</parameter>
							<parameter>
								<parameterid>chromasoft</parameterid>
								<name>Chroma Softness</name>
								<valuemin>0</valuemin>
								<valuemax>180</valuemax>
								<value>10.6152</value>
							</parameter>
							<parameter>
								<parameterid>dosat</parameterid>
								<name>Limit on Saturation</name>
								<value>TRUE</value>
							</parameter>
							<parameter>
								<parameterid>satmin</parameterid>
								<name>Sat. Minimum</name>
								<valuemin>0</valuemin>
								<valuemax>125</valuemax>
								<value>36.7837</value>
							</parameter>
							<parameter>
								<parameterid>satwidth</parameterid>
								<name>Sat. Width</name>
								<valuemin>0</valuemin>
								<valuemax>125</valuemax>
								<value>84.0889</value>
							</parameter>
							<parameter>
								<parameterid>satsoft</parameterid>
								<name>Sat. Softness</name>
								<valuemin>0</valuemin>
								<valuemax>125</valuemax>
								<value>5</value>
							</parameter>
							<parameter>
								<parameterid>doluma</parameterid>
								<name>Limit on Luma</name>
								<value>TRUE</value>
							</parameter>
							<parameter>
								<parameterid>lumamin</parameterid>
								<name>Luma Minimum</name>
								<valuemin>0</valuemin>
								<valuemax>120</valuemax>
								<value>0.939667</value>
							</parameter>
							<parameter>
								<parameterid>lumawidth</parameterid>
								<name>Luma Width</name>
								<valuemin>0</valuemin>
								<valuemax>120</valuemax>
								<value>115.45</value>
							</parameter>
							<parameter>
								<parameterid>lumasoft</parameterid>
								<name>Luma Softness</name>
								<valuemin>0</valuemin>
								<valuemax>120</valuemax>
								<value>15.1099</value>
							</parameter>
							<parameter>
								<parameterid>label6</parameterid>
								<name>Edge Control</name>
								<value/>
							</parameter>
							<parameter>
								<parameterid>edgethin</parameterid>
								<name>Thin/Spread</name>
								<valuemin>-100</valuemin>
								<valuemax>100</valuemax>
								<value>0</value>
							</parameter>
							<parameter>
								<parameterid>edgefeather</parameterid>
								<name>Softening</name>
								<valuemin>0</valuemin>
								<valuemax>100</valuemax>
								<value>0</value>
							</parameter>
							<parameter>
								<parameterid>label7</parameterid>
								<name>Mask Control</name>
								<value/>
							</parameter>
							<parameter>
								<parameterid>invertsel</parameterid>
								<name>Invert</name>
								<value>FALSE</value>
							</parameter>
							<parameter>
								<parameterid>debugshow</parameterid>
								<name>Show Stats</name>
								<value>FALSE</value>
							</parameter>
						</effect>
					</filter>
					<sourcetrack>
						<mediatype>video</mediatype>
					</sourcetrack>
					<link>
						<linkclipref>00824001.MOV7</linkclipref>
						<mediatype>video</mediatype>
						<trackindex>1</trackindex>
						<clipindex>255</clipindex>
					</link>
					<link>
						<linkclipref>00824001.MOV8</linkclipref>
						<mediatype>audio</mediatype>
						<trackindex>1</trackindex>
						<clipindex>216</clipindex>
					</link>
					<link>
						<linkclipref>00824001.MOV9</linkclipref>
						<mediatype>audio</mediatype>
						<trackindex>2</trackindex>
						<clipindex>216</clipindex>
					</link>
					<fielddominance>upper</fielddominance>
					<itemhistory>
						<uuid>E48FD791-8082-4402-9C09-8AEEC2CF37A8</uuid>
					</itemhistory>
				</clipitem>
				<clipitem id="00827001.MOV8">
					<name>00827001.MOV</name>
					<duration>1680</duration>
					<rate>
						<ntsc>FALSE</ntsc>
						<timebase>25</timebase>
					</rate>
					<in>1185</in>
					<out>1285</out>
					<start>29729</start>
					<end>29829</end>
					<pixelaspectratio>Square</pixelaspectratio>
					<enabled>TRUE</enabled>
					<anamorphic>FALSE</anamorphic>
					<alphatype>none</alphatype>
					<masterclipid>00827001.MOV1</masterclipid>
					<logginginfo>
						<scene/>
						<shottake/>
						<lognote/>
						<good>FALSE</good>
					</logginginfo>
					<labels>
						<label2/>
					</labels>
					<comments>
						<mastercomment1/>
						<mastercomment2/>
						<mastercomment3/>
						<mastercomment4/>
					</comments>
					<file id="00827001 "/>
					<filter>
						<start>-1</start>
						<end>-1</end>
						<effect>
							<name>Color Corrector - Lua til Carina</name>
							<effectid>Color Corrector</effectid>
							<effectcategory>Color Correction</effectcategory>
							<effecttype>filter</effecttype>
							<mediatype>video</mediatype>
							<parameter>
								<parameterid>dispmode</parameterid>
								<name>Display Mode</name>
								<valuemin>1</valuemin>
								<valuemax>3</valuemax>
								<valuelist>
									<valueentry>
										<name>Final</name>
										<value>1</value>
									</valueentry>
									<valueentry>
										<name>Matte</name>
										<value>2</value>
									</valueentry>
									<valueentry>
										<name>Source</name>
										<value>3</value>
									</valueentry>
								</valuelist>
								<value>1</value>
							</parameter>
							<parameter>
								<parameterid>label1</parameterid>
								<name>Level Controls</name>
								<value/>
							</parameter>
							<parameter>
								<parameterid>highlights</parameterid>
								<name>Highlights</name>
								<valuemin>64</valuemin>
								<valuemax>509</valuemax>
								<value>247</value>
							</parameter>
							<parameter>
								<parameterid>mids</parameterid>
								<name>Mids</name>
								<valuemin>0</valuemin>
								<valuemax>200</valuemax>
								<value>100</value>
							</parameter>
							<parameter>
								<parameterid>blacklevel</parameterid>
								<name>Blacks</name>
								<valuemin>-196</valuemin>
								<valuemax>254</valuemax>
								<value>-3</value>
							</parameter>
							<parameter>
								<parameterid>label2</parameterid>
								<name>Color Balance</name>
								<value/>
							</parameter>
							<parameter>
								<parameterid>hue</parameterid>
								<name>Angle</name>
								<valuemin>-180</valuemin>
								<valuemax>180</valuemax>
								<value>-33</value>
							</parameter>
							<parameter>
								<parameterid>mag</parameterid>
								<name>Magnitude</name>
								<valuemin>0</valuemin>
								<valuemax>200</valuemax>
								<value>0</value>
							</parameter>
							<parameter>
								<parameterid>label4</parameterid>
								<name>Color Controls</name>
								<value/>
							</parameter>
							<parameter>
								<parameterid>chroma</parameterid>
								<name>Saturation</name>
								<valuemin>0</valuemin>
								<valuemax>200</valuemax>
								<value>84</value>
							</parameter>
							<parameter>
								<parameterid>phase</parameterid>
								<name>Phase shift</name>
								<valuemin>-180</valuemin>
								<valuemax>180</valuemax>
								<value>0</value>
							</parameter>
							<parameter>
								<parameterid>label5</parameterid>
								<name>Limit Effect Controls</name>
								<value/>
							</parameter>
							<parameter>
								<parameterid>dochroma</parameterid>
								<name>Limit on Chroma</name>
								<value>TRUE</value>
							</parameter>
							<parameter>
								<parameterid>centerang</parameterid>
								<name>Chroma Center</name>
								<valuemin>-760</valuemin>
								<valuemax>760</valuemax>
								<value>322.256</value>
							</parameter>
							<parameter>
								<parameterid>chromawidth</parameterid>
								<name>Chroma Width</name>
								<valuemin>0</valuemin>
								<valuemax>360</valuemax>
								<value>7.49567</value>
							</parameter>
							<parameter>
								<parameterid>chromasoft</parameterid>
								<name>Chroma Softness</name>
								<valuemin>0</valuemin>
								<valuemax>180</valuemax>
								<value>10.6152</value>
							</parameter>
							<parameter>
								<parameterid>dosat</parameterid>
								<name>Limit on Saturation</name>
								<value>TRUE</value>
							</parameter>
							<parameter>
								<parameterid>satmin</parameterid>
								<name>Sat. Minimum</name>
								<valuemin>0</valuemin>
								<valuemax>125</valuemax>
								<value>36.7837</value>
							</parameter>
							<parameter>
								<parameterid>satwidth</parameterid>
								<name>Sat. Width</name>
								<valuemin>0</valuemin>
								<valuemax>125</valuemax>
								<value>84.0889</value>
							</parameter>
							<parameter>
								<parameterid>satsoft</parameterid>
								<name>Sat. Softness</name>
								<valuemin>0</valuemin>
								<valuemax>125</valuemax>
								<value>5</value>
							</parameter>
							<parameter>
								<parameterid>doluma</parameterid>
								<name>Limit on Luma</name>
								<value>TRUE</value>
							</parameter>
							<parameter>
								<parameterid>lumamin</parameterid>
								<name>Luma Minimum</name>
								<valuemin>0</valuemin>
								<valuemax>120</valuemax>
								<value>0.939667</value>
							</parameter>
							<parameter>
								<parameterid>lumawidth</parameterid>
								<name>Luma Width</name>
								<valuemin>0</valuemin>
								<valuemax>120</valuemax>
								<value>115.45</value>
							</parameter>
							<parameter>
								<parameterid>lumasoft</parameterid>
								<name>Luma Softness</name>
								<valuemin>0</valuemin>
								<valuemax>120</valuemax>
								<value>15.1099</value>
							</parameter>
							<parameter>
								<parameterid>label6</parameterid>
								<name>Edge Control</name>
								<value/>
							</parameter>
							<parameter>
								<parameterid>edgethin</parameterid>
								<name>Thin/Spread</name>
								<valuemin>-100</valuemin>
								<valuemax>100</valuemax>
								<value>0</value>
							</parameter>
							<parameter>
								<parameterid>edgefeather</parameterid>
								<name>Softening</name>
								<valuemin>0</valuemin>
								<valuemax>100</valuemax>
								<value>0</value>
							</parameter>
							<parameter>
								<parameterid>label7</parameterid>
								<name>Mask Control</name>
								<value/>
							</parameter>
							<parameter>
								<parameterid>invertsel</parameterid>
								<name>Invert</name>
								<value>FALSE</value>
							</parameter>
							<parameter>
								<parameterid>debugshow</parameterid>
								<name>Show Stats</name>
								<value>FALSE</value>
							</parameter>
						</effect>
					</filter>
					<filter>
						<start>-1</start>
						<end>-1</end>
						<effect>
							<name>G Simple Curves</name>
							<effectcategory>Nattress Big Box of Tricks - Levels and Curves</effectcategory>
							<effecttype>filter</effecttype>
							<mediatype>video</mediatype>
							<parameter>
								<parameterid>colourspace</parameterid>
								<name>Colour Space</name>
								<valuemin>1</valuemin>
								<valuemax>2</valuemax>
								<valuelist>
									<valueentry>
										<name>RGB</name>
										<value>1</value>
									</valueentry>
									<valueentry>
										<name>Y'CbCr</name>
										<value>2</value>
									</valueentry>
								</valuelist>
								<value>1</value>
							</parameter>
							<parameter>
								<parameterid>showcurves</parameterid>
								<name>Show Curves</name>
								<value>FALSE</value>
							</parameter>
							<parameter>
								<parameterid>lvar</parameterid>
								<name>Levels Controls</name>
								<value>string</value>
							</parameter>
							<parameter>
								<parameterid>inw</parameterid>
								<name>White Level</name>
								<valuemin>0</valuemin>
								<valuemax>255</valuemax>
								<value>255</value>
							</parameter>
							<parameter>
								<parameterid>inb</parameterid>
								<name>Black Level</name>
								<valuemin>0</valuemin>
								<valuemax>255</valuemax>
								<value>0</value>
							</parameter>
							<parameter>
								<parameterid>outw</parameterid>
								<name>White Output</name>
								<valuemin>0</valuemin>
								<valuemax>255</valuemax>
								<value>255</value>
							</parameter>
							<parameter>
								<parameterid>outb</parameterid>
								<name>Black Output</name>
								<valuemin>0</valuemin>
								<valuemax>255</valuemax>
								<value>0</value>
							</parameter>
							<parameter>
								<parameterid>cvar</parameterid>
								<name>Curves Controls</name>
								<value>string</value>
							</parameter>
							<parameter>
								<parameterid>curvew</parameterid>
								<name>White Curve</name>
								<valuemin>-100</valuemin>
								<valuemax>100</valuemax>
								<value>13</value>
							</parameter>
							<parameter>
								<parameterid>curveb</parameterid>
								<name>Black Curve</name>
								<valuemin>-100</valuemin>
								<valuemax>100</valuemax>
								<value>0</value>
							</parameter>
							<parameter>
								<parameterid>clipoutput</parameterid>
								<name>Clip Output Levels</name>
								<value>TRUE</value>
							</parameter>
							<parameter>
								<parameterid>copyright</parameterid>
								<name>© www.nattress.com</name>
								<value>string</value>
							</parameter>
						</effect>
					</filter>
					<sourcetrack>
						<mediatype>video</mediatype>
					</sourcetrack>
					<link>
						<linkclipref>00827001.MOV8</linkclipref>
						<mediatype>video</mediatype>
						<trackindex>1</trackindex>
						<clipindex>256</clipindex>
					</link>
					<link>
						<linkclipref>00827001.MOV9</linkclipref>
						<mediatype>audio</mediatype>
						<trackindex>1</trackindex>
						<clipindex>218</clipindex>
					</link>
					<link>
						<linkclipref>00827001.MOV10</linkclipref>
						<mediatype>audio</mediatype>
						<trackindex>2</trackindex>
						<clipindex>218</clipindex>
					</link>
					<fielddominance>upper</fielddominance>
					<itemhistory>
						<uuid>ED6175EE-E3CF-4DE5-888F-100DE3120D3F</uuid>
					</itemhistory>
				</clipitem>
				<clipitem id="00824001.MOV10">
					<name>00824001.MOV</name>
					<duration>2328</duration>
					<rate>
						<ntsc>FALSE</ntsc>
						<timebase>25</timebase>
					</rate>
					<in>1430</in>
					<out>1466</out>
					<start>29829</start>
					<end>29865</end>
					<pixelaspectratio>Square</pixelaspectratio>
					<enabled>TRUE</enabled>
					<anamorphic>FALSE</anamorphic>
					<alphatype>none</alphatype>
					<masterclipid>00824001.MOV1</masterclipid>
					<logginginfo>
						<scene/>
						<shottake/>
						<lognote/>
						<good>FALSE</good>
					</logginginfo>
					<labels>
						<label2/>
					</labels>
					<comments>
						<mastercomment1/>
						<mastercomment2/>
						<mastercomment3/>
						<mastercomment4/>
					</comments>
					<file id="00824001 "/>
					<filter>
						<start>-1</start>
						<end>-1</end>
						<effect>
							<name>Color Corrector - Lua til Carina</name>
							<effectid>Color Corrector</effectid>
							<effectcategory>Color Correction</effectcategory>
							<effecttype>filter</effecttype>
							<mediatype>video</mediatype>
							<parameter>
								<parameterid>dispmode</parameterid>
								<name>Display Mode</name>
								<valuemin>1</valuemin>
								<valuemax>3</valuemax>
								<valuelist>
									<valueentry>
										<name>Final</name>
										<value>1</value>
									</valueentry>
									<valueentry>
										<name>Matte</name>
										<value>2</value>
									</valueentry>
									<valueentry>
										<name>Source</name>
										<value>3</value>
									</valueentry>
								</valuelist>
								<value>1</value>
							</parameter>
							<parameter>
								<parameterid>label1</parameterid>
								<name>Level Controls</name>
								<value/>
							</parameter>
							<parameter>
								<parameterid>highlights</parameterid>
								<name>Highlights</name>
								<valuemin>64</valuemin>
								<valuemax>509</valuemax>
								<value>247</value>
							</parameter>
							<parameter>
								<parameterid>mids</parameterid>
								<name>Mids</name>
								<valuemin>0</valuemin>
								<valuemax>200</valuemax>
								<value>100</value>
							</parameter>
							<parameter>
								<parameterid>blacklevel</parameterid>
								<name>Blacks</name>
								<valuemin>-196</valuemin>
								<valuemax>254</valuemax>
								<value>-3</value>
							</parameter>
							<parameter>
								<parameterid>label2</parameterid>
								<name>Color Balance</name>
								<value/>
							</parameter>
							<parameter>
								<parameterid>hue</parameterid>
								<name>Angle</name>
								<valuemin>-180</valuemin>
								<valuemax>180</valuemax>
								<value>-33</value>
							</parameter>
							<parameter>
								<parameterid>mag</parameterid>
								<name>Magnitude</name>
								<valuemin>0</valuemin>
								<valuemax>200</valuemax>
								<value>0</value>
							</parameter>
							<parameter>
								<parameterid>label4</parameterid>
								<name>Color Controls</name>
								<value/>
							</parameter>
							<parameter>
								<parameterid>chroma</parameterid>
								<name>Saturation</name>
								<valuemin>0</valuemin>
								<valuemax>200</valuemax>
								<value>84</value>
							</parameter>
							<parameter>
								<parameterid>phase</parameterid>
								<name>Phase shift</name>
								<valuemin>-180</valuemin>
								<valuemax>180</valuemax>
								<value>0</value>
							</parameter>
							<parameter>
								<parameterid>label5</parameterid>
								<name>Limit Effect Controls</name>
								<value/>
							</parameter>
							<parameter>
								<parameterid>dochroma</parameterid>
								<name>Limit on Chroma</name>
								<value>TRUE</value>
							</parameter>
							<parameter>
								<parameterid>centerang</parameterid>
								<name>Chroma Center</name>
								<valuemin>-760</valuemin>
								<valuemax>760</valuemax>
								<value>322.256</value>
							</parameter>
							<parameter>
								<parameterid>chromawidth</parameterid>
								<name>Chroma Width</name>
								<valuemin>0</valuemin>
								<valuemax>360</valuemax>
								<value>7.49567</value>
							</parameter>
							<parameter>
								<parameterid>chromasoft</parameterid>
								<name>Chroma Softness</name>
								<valuemin>0</valuemin>
								<valuemax>180</valuemax>
								<value>10.6152</value>
							</parameter>
							<parameter>
								<parameterid>dosat</parameterid>
								<name>Limit on Saturation</name>
								<value>TRUE</value>
							</parameter>
							<parameter>
								<parameterid>satmin</parameterid>
								<name>Sat. Minimum</name>
								<valuemin>0</valuemin>
								<valuemax>125</valuemax>
								<value>36.7837</value>
							</parameter>
							<parameter>
								<parameterid>satwidth</parameterid>
								<name>Sat. Width</name>
								<valuemin>0</valuemin>
								<valuemax>125</valuemax>
								<value>84.0889</value>
							</parameter>
							<parameter>
								<parameterid>satsoft</parameterid>
								<name>Sat. Softness</name>
								<valuemin>0</valuemin>
								<valuemax>125</valuemax>
								<value>5</value>
							</parameter>
							<parameter>
								<parameterid>doluma</parameterid>
								<name>Limit on Luma</name>
								<value>TRUE</value>
							</parameter>
							<parameter>
								<parameterid>lumamin</parameterid>
								<name>Luma Minimum</name>
								<valuemin>0</valuemin>
								<valuemax>120</valuemax>
								<value>0.939667</value>
							</parameter>
							<parameter>
								<parameterid>lumawidth</parameterid>
								<name>Luma Width</name>
								<valuemin>0</valuemin>
								<valuemax>120</valuemax>
								<value>115.45</value>
							</parameter>
							<parameter>
								<parameterid>lumasoft</parameterid>
								<name>Luma Softness</name>
								<valuemin>0</valuemin>
								<valuemax>120</valuemax>
								<value>15.1099</value>
							</parameter>
							<parameter>
								<parameterid>label6</parameterid>
								<name>Edge Control</name>
								<value/>
							</parameter>
							<parameter>
								<parameterid>edgethin</parameterid>
								<name>Thin/Spread</name>
								<valuemin>-100</valuemin>
								<valuemax>100</valuemax>
								<value>0</value>
							</parameter>
							<parameter>
								<parameterid>edgefeather</parameterid>
								<name>Softening</name>
								<valuemin>0</valuemin>
								<valuemax>100</valuemax>
								<value>0</value>
							</parameter>
							<parameter>
								<parameterid>label7</parameterid>
								<name>Mask Control</name>
								<value/>
							</parameter>
							<parameter>
								<parameterid>invertsel</parameterid>
								<name>Invert</name>
								<value>FALSE</value>
							</parameter>
							<parameter>
								<parameterid>debugshow</parameterid>
								<name>Show Stats</name>
								<value>FALSE</value>
							</parameter>
						</effect>
					</filter>
					<sourcetrack>
						<mediatype>video</mediatype>
					</sourcetrack>
					<fielddominance>upper</fielddominance>
					<itemhistory>
						<uuid>334B52F5-5F34-4B36-8F76-393FEFA1BE9F</uuid>
					</itemhistory>
				</clipitem>
				<clipitem id="00821001.MOV10">
					<name>00821001.MOV</name>
					<duration>3420</duration>
					<rate>
						<ntsc>FALSE</ntsc>
						<timebase>25</timebase>
					</rate>
					<in>2589</in>
					<out>2685</out>
					<start>29865</start>
					<end>29961</end>
					<pixelaspectratio>Square</pixelaspectratio>
					<enabled>TRUE</enabled>
					<anamorphic>FALSE</anamorphic>
					<alphatype>none</alphatype>
					<masterclipid>00821001.MOV1</masterclipid>
					<logginginfo>
						<scene/>
						<shottake/>
						<lognote/>
						<good>FALSE</good>
					</logginginfo>
					<labels>
						<label2/>
					</labels>
					<comments>
						<mastercomment1/>
						<mastercomment2/>
						<mastercomment3/>
						<mastercomment4/>
					</comments>
					<file id="00821001 "/>
					<filter>
						<enabled>TRUE</enabled>
						<start>-1</start>
						<end>-1</end>
						<effect>
							<name>Color Corrector - Lua til Carina</name>
							<effectid>Color Corrector</effectid>
							<effectcategory>Color Correction</effectcategory>
							<effecttype>filter</effecttype>
							<mediatype>video</mediatype>
							<parameter>
								<parameterid>dispmode</parameterid>
								<name>Display Mode</name>
								<valuemin>1</valuemin>
								<valuemax>3</valuemax>
								<valuelist>
									<valueentry>
										<name>Final</name>
										<value>1</value>
									</valueentry>
									<valueentry>
										<name>Matte</name>
										<value>2</value>
									</valueentry>
									<valueentry>
										<name>Source</name>
										<value>3</value>
									</valueentry>
								</valuelist>
								<value>1</value>
							</parameter>
							<parameter>
								<parameterid>label1</parameterid>
								<name>Level Controls</name>
								<value/>
							</parameter>
							<parameter>
								<parameterid>highlights</parameterid>
								<name>Highlights</name>
								<valuemin>64</valuemin>
								<valuemax>509</valuemax>
								<value>247</value>
							</parameter>
							<parameter>
								<parameterid>mids</parameterid>
								<name>Mids</name>
								<valuemin>0</valuemin>
								<valuemax>200</valuemax>
								<value>100</value>
							</parameter>
							<parameter>
								<parameterid>blacklevel</parameterid>
								<name>Blacks</name>
								<valuemin>-196</valuemin>
								<valuemax>254</valuemax>
								<value>-3</value>
							</parameter>
							<parameter>
								<parameterid>label2</parameterid>
								<name>Color Balance</name>
								<value/>
							</parameter>
							<parameter>
								<parameterid>hue</parameterid>
								<name>Angle</name>
								<valuemin>-180</valuemin>
								<valuemax>180</valuemax>
								<value>-33</value>
							</parameter>
							<parameter>
								<parameterid>mag</parameterid>
								<name>Magnitude</name>
								<valuemin>0</valuemin>
								<valuemax>200</valuemax>
								<value>0</value>
							</parameter>
							<parameter>
								<parameterid>label4</parameterid>
								<name>Color Controls</name>
								<value/>
							</parameter>
							<parameter>
								<parameterid>chroma</parameterid>
								<name>Saturation</name>
								<valuemin>0</valuemin>
								<valuemax>200</valuemax>
								<value>84</value>
							</parameter>
							<parameter>
								<parameterid>phase</parameterid>
								<name>Phase shift</name>
								<valuemin>-180</valuemin>
								<valuemax>180</valuemax>
								<value>0</value>
							</parameter>
							<parameter>
								<parameterid>label5</parameterid>
								<name>Limit Effect Controls</name>
								<value/>
							</parameter>
							<parameter>
								<parameterid>dochroma</parameterid>
								<name>Limit on Chroma</name>
								<value>TRUE</value>
							</parameter>
							<parameter>
								<parameterid>centerang</parameterid>
								<name>Chroma Center</name>
								<valuemin>-760</valuemin>
								<valuemax>760</valuemax>
								<value>322.256</value>
							</parameter>
							<parameter>
								<parameterid>chromawidth</parameterid>
								<name>Chroma Width</name>
								<valuemin>0</valuemin>
								<valuemax>360</valuemax>
								<value>7.49567</value>
							</parameter>
							<parameter>
								<parameterid>chromasoft</parameterid>
								<name>Chroma Softness</name>
								<valuemin>0</valuemin>
								<valuemax>180</valuemax>
								<value>10.6152</value>
							</parameter>
							<parameter>
								<parameterid>dosat</parameterid>
								<name>Limit on Saturation</name>
								<value>TRUE</value>
							</parameter>
							<parameter>
								<parameterid>satmin</parameterid>
								<name>Sat. Minimum</name>
								<valuemin>0</valuemin>
								<valuemax>125</valuemax>
								<value>36.7837</value>
							</parameter>
							<parameter>
								<parameterid>satwidth</parameterid>
								<name>Sat. Width</name>
								<valuemin>0</valuemin>
								<valuemax>125</valuemax>
								<value>84.0889</value>
							</parameter>
							<parameter>
								<parameterid>satsoft</parameterid>
								<name>Sat. Softness</name>
								<valuemin>0</valuemin>
								<valuemax>125</valuemax>
								<value>5</value>
							</parameter>
							<parameter>
								<parameterid>doluma</parameterid>
								<name>Limit on Luma</name>
								<value>TRUE</value>
							</parameter>
							<parameter>
								<parameterid>lumamin</parameterid>
								<name>Luma Minimum</name>
								<valuemin>0</valuemin>
								<valuemax>120</valuemax>
								<value>0.939667</value>
							</parameter>
							<parameter>
								<parameterid>lumawidth</parameterid>
								<name>Luma Width</name>
								<valuemin>0</valuemin>
								<valuemax>120</valuemax>
								<value>115.45</value>
							</parameter>
							<parameter>
								<parameterid>lumasoft</parameterid>
								<name>Luma Softness</name>
								<valuemin>0</valuemin>
								<valuemax>120</valuemax>
								<value>15.1099</value>
							</parameter>
							<parameter>
								<parameterid>label6</parameterid>
								<name>Edge Control</name>
								<value/>
							</parameter>
							<parameter>
								<parameterid>edgethin</parameterid>
								<name>Thin/Spread</name>
								<valuemin>-100</valuemin>
								<valuemax>100</valuemax>
								<value>0</value>
							</parameter>
							<parameter>
								<parameterid>edgefeather</parameterid>
								<name>Softening</name>
								<valuemin>0</valuemin>
								<valuemax>100</valuemax>
								<value>0</value>
							</parameter>
							<parameter>
								<parameterid>label7</parameterid>
								<name>Mask Control</name>
								<value/>
							</parameter>
							<parameter>
								<parameterid>invertsel</parameterid>
								<name>Invert</name>
								<value>FALSE</value>
							</parameter>
							<parameter>
								<parameterid>debugshow</parameterid>
								<name>Show Stats</name>
								<value>FALSE</value>
							</parameter>
						</effect>
					</filter>
					<filter>
						<enabled>TRUE</enabled>
						<start>-1</start>
						<end>-1</end>
						<effect>
							<name>G Simple Curves</name>
							<effectcategory>Nattress Big Box of Tricks - Levels and Curves</effectcategory>
							<effecttype>filter</effecttype>
							<mediatype>video</mediatype>
							<parameter>
								<parameterid>colourspace</parameterid>
								<name>Colour Space</name>
								<valuemin>1</valuemin>
								<valuemax>2</valuemax>
								<valuelist>
									<valueentry>
										<name>RGB</name>
										<value>1</value>
									</valueentry>
									<valueentry>
										<name>Y'CbCr</name>
										<value>2</value>
									</valueentry>
								</valuelist>
								<value>1</value>
							</parameter>
							<parameter>
								<parameterid>showcurves</parameterid>
								<name>Show Curves</name>
								<value>FALSE</value>
							</parameter>
							<parameter>
								<parameterid>lvar</parameterid>
								<name>Levels Controls</name>
								<value>string</value>
							</parameter>
							<parameter>
								<parameterid>inw</parameterid>
								<name>White Level</name>
								<valuemin>0</valuemin>
								<valuemax>255</valuemax>
								<value>255</value>
							</parameter>
							<parameter>
								<parameterid>inb</parameterid>
								<name>Black Level</name>
								<valuemin>0</valuemin>
								<valuemax>255</valuemax>
								<value>2</value>
							</parameter>
							<parameter>
								<parameterid>outw</parameterid>
								<name>White Output</name>
								<valuemin>0</valuemin>
								<valuemax>255</valuemax>
								<value>255</value>
							</parameter>
							<parameter>
								<parameterid>outb</parameterid>
								<name>Black Output</name>
								<valuemin>0</valuemin>
								<valuemax>255</valuemax>
								<value>0</value>
							</parameter>
							<parameter>
								<parameterid>cvar</parameterid>
								<name>Curves Controls</name>
								<value>string</value>
							</parameter>
							<parameter>
								<parameterid>curvew</parameterid>
								<name>White Curve</name>
								<valuemin>-100</valuemin>
								<valuemax>100</valuemax>
								<value>-16</value>
							</parameter>
							<parameter>
								<parameterid>curveb</parameterid>
								<name>Black Curve</name>
								<valuemin>-100</valuemin>
								<valuemax>100</valuemax>
								<value>-3</value>
							</parameter>
							<parameter>
								<parameterid>clipoutput</parameterid>
								<name>Clip Output Levels</name>
								<value>TRUE</value>
							</parameter>
							<parameter>
								<parameterid>copyright</parameterid>
								<name>© www.nattress.com</name>
								<value>string</value>
							</parameter>
						</effect>
					</filter>
					<filter>
						<enabled>TRUE</enabled>
						<start>-1</start>
						<end>-1</end>
						<effect>
							<name>Color mindre metning og hoylys</name>
							<effectid>Color Corrector 3-way</effectid>
							<effectcategory>Color Correction</effectcategory>
							<effecttype>filter</effecttype>
							<mediatype>video</mediatype>
							<parameter>
								<parameterid>dispmode</parameterid>
								<name>Display Mode</name>
								<valuemin>1</valuemin>
								<valuemax>3</valuemax>
								<valuelist>
									<valueentry>
										<name>Final</name>
										<value>1</value>
									</valueentry>
									<valueentry>
										<name>Matte</name>
										<value>2</value>
									</valueentry>
									<valueentry>
										<name>Source</name>
										<value>3</value>
									</valueentry>
								</valuelist>
								<value>1</value>
							</parameter>
							<parameter>
								<parameterid>label1</parameterid>
								<name>Blacks Controls</name>
								<value/>
							</parameter>
							<parameter>
								<parameterid>blacklevel</parameterid>
								<name>Level</name>
								<valuemin>-196</valuemin>
								<valuemax>254</valuemax>
								<value>0</value>
							</parameter>
							<parameter>
								<parameterid>b_hue</parameterid>
								<name>Angle</name>
								<valuemin>-180</valuemin>
								<valuemax>180</valuemax>
								<value>-33</value>
							</parameter>
							<parameter>
								<parameterid>b_mag</parameterid>
								<name>Magnitude</name>
								<valuemin>0</valuemin>
								<valuemax>200</valuemax>
								<value>0</value>
							</parameter>
							<parameter>
								<parameterid>label2</parameterid>
								<name>Midrange Controls</name>
								<value/>
							</parameter>
							<parameter>
								<parameterid>mids</parameterid>
								<name>Level</name>
								<valuemin>0</valuemin>
								<valuemax>200</valuemax>
								<value>109</value>
							</parameter>
							<parameter>
								<parameterid>m_hue</parameterid>
								<name>Angle</name>
								<valuemin>-180</valuemin>
								<valuemax>180</valuemax>
								<value>-126.753</value>
							</parameter>
							<parameter>
								<parameterid>m_mag</parameterid>
								<name>Magnitude</name>
								<valuemin>0</valuemin>
								<valuemax>200</valuemax>
								<value>0.756039</value>
							</parameter>
							<parameter>
								<parameterid>label3</parameterid>
								<name>Highlight Controls</name>
								<value/>
							</parameter>
							<parameter>
								<parameterid>highlights</parameterid>
								<name>Level</name>
								<valuemin>64</valuemin>
								<valuemax>509</valuemax>
								<value>238</value>
							</parameter>
							<parameter>
								<parameterid>h_hue</parameterid>
								<name>Angle</name>
								<valuemin>-180</valuemin>
								<valuemax>180</valuemax>
								<value>139.4</value>
							</parameter>
							<parameter>
								<parameterid>h_mag</parameterid>
								<name>Magnitude</name>
								<valuemin>0</valuemin>
								<valuemax>200</valuemax>
								<value>1.03932</value>
							</parameter>
							<parameter>
								<parameterid>label4</parameterid>
								<name>Color Controls</name>
								<value/>
							</parameter>
							<parameter>
								<parameterid>chroma</parameterid>
								<name>Saturation</name>
								<valuemin>0</valuemin>
								<valuemax>200</valuemax>
								<value>109</value>
							</parameter>
							<parameter>
								<parameterid>label5</parameterid>
								<name>Limit Effect Controls</name>
								<value/>
							</parameter>
							<parameter>
								<parameterid>dochroma</parameterid>
								<name>Limit on Chroma</name>
								<value>FALSE</value>
							</parameter>
							<parameter>
								<parameterid>centerang</parameterid>
								<name>Chroma Center</name>
								<valuemin>-760</valuemin>
								<valuemax>760</valuemax>
								<value>-110</value>
							</parameter>
							<parameter>
								<parameterid>chromawidth</parameterid>
								<name>Chroma Width</name>
								<valuemin>0</valuemin>
								<valuemax>360</valuemax>
								<value>15</value>
							</parameter>
							<parameter>
								<parameterid>chromasoft</parameterid>
								<name>Chroma Softness</name>
								<valuemin>0</valuemin>
								<valuemax>180</valuemax>
								<value>10</value>
							</parameter>
							<parameter>
								<parameterid>dosat</parameterid>
								<name>Limit on Saturation</name>
								<value>FALSE</value>
							</parameter>
							<parameter>
								<parameterid>satmin</parameterid>
								<name>Sat. Minimum</name>
								<valuemin>0</valuemin>
								<valuemax>125</valuemax>
								<value>35</value>
							</parameter>
							<parameter>
								<parameterid>satwidth</parameterid>
								<name>Sat. Width</name>
								<valuemin>0</valuemin>
								<valuemax>125</valuemax>
								<value>40</value>
							</parameter>
							<parameter>
								<parameterid>satsoft</parameterid>
								<name>Sat. Softness</name>
								<valuemin>0</valuemin>
								<valuemax>125</valuemax>
								<value>20</value>
							</parameter>
							<parameter>
								<parameterid>doluma</parameterid>
								<name>Limit on Luma</name>
								<value>FALSE</value>
							</parameter>
							<parameter>
								<parameterid>lumamin</parameterid>
								<name>Luma Minimum</name>
								<valuemin>0</valuemin>
								<valuemax>120</valuemax>
								<value>0</value>
							</parameter>
							<parameter>
								<parameterid>lumawidth</parameterid>
								<name>Luma Width</name>
								<valuemin>0</valuemin>
								<valuemax>120</valuemax>
								<value>40</value>
							</parameter>
							<parameter>
								<parameterid>lumasoft</parameterid>
								<name>Luma Softness</name>
								<valuemin>0</valuemin>
								<valuemax>120</valuemax>
								<value>20</value>
							</parameter>
							<parameter>
								<parameterid>label6</parameterid>
								<name>Edge Control</name>
								<value/>
							</parameter>
							<parameter>
								<parameterid>edgethin</parameterid>
								<name>Thin/Spread</name>
								<valuemin>-100</valuemin>
								<valuemax>100</valuemax>
								<value>0</value>
							</parameter>
							<parameter>
								<parameterid>edgefeather</parameterid>
								<name>Softening</name>
								<valuemin>0</valuemin>
								<valuemax>100</valuemax>
								<value>0</value>
							</parameter>
							<parameter>
								<parameterid>label7</parameterid>
								<name>Mask Control</name>
								<value/>
							</parameter>
							<parameter>
								<parameterid>invertsel</parameterid>
								<name>Invert</name>
								<value>FALSE</value>
							</parameter>
							<parameter>
								<parameterid>debugshow</parameterid>
								<name>Show Stats</name>
								<value>FALSE</value>
							</parameter>
						</effect>
					</filter>
					<filter>
						<effect>
							<name>Basic Motion</name>
							<effectid>basic</effectid>
							<effectcategory>motion</effectcategory>
							<effecttype>motion</effecttype>
							<mediatype>video</mediatype>
							<parameter>
								<parameterid>scale</parameterid>
								<name>Scale</name>
								<valuemin>0</valuemin>
								<valuemax>1000</valuemax>
								<value>100</value>
							</parameter>
							<parameter>
								<parameterid>rotation</parameterid>
								<name>Rotation</name>
								<valuemin>-8640</valuemin>
								<valuemax>8640</valuemax>
								<value>0</value>
							</parameter>
							<parameter>
								<parameterid>center</parameterid>
								<name>Center</name>
								<value>
									<horiz>0</horiz>
									<vert>0</vert>
								</value>
							</parameter>
							<parameter>
								<parameterid>centerOffset</parameterid>
								<name>Anchor Point</name>
								<value>
									<horiz>0</horiz>
									<vert>0</vert>
								</value>
							</parameter>
						</effect>
					</filter>
					<filter>
						<enabled>FALSE</enabled>
						<effect>
							<name>Drop Shadow</name>
							<effectid>dropshadow</effectid>
							<effectcategory>motion</effectcategory>
							<effecttype>motion</effecttype>
							<mediatype>video</mediatype>
							<parameter>
								<parameterid>offset</parameterid>
								<name>offset</name>
								<valuemin>-100</valuemin>
								<valuemax>100</valuemax>
								<value>2</value>
							</parameter>
							<parameter>
								<parameterid>angle</parameterid>
								<name>angle</name>
								<valuemin>-720</valuemin>
								<valuemax>720</valuemax>
								<value>135</value>
							</parameter>
							<parameter>
								<parameterid>color</parameterid>
								<name>color</name>
								<value>
									<alpha>0</alpha>
									<red>0</red>
									<green>0</green>
									<blue>0</blue>
								</value>
							</parameter>
							<parameter>
								<parameterid>softness</parameterid>
								<name>softness</name>
								<valuemin>0</valuemin>
								<valuemax>100</valuemax>
								<value>10</value>
							</parameter>
							<parameter>
								<parameterid>opacity</parameterid>
								<name>opacity</name>
								<valuemin>0</valuemin>
								<valuemax>100</valuemax>
								<value>50</value>
							</parameter>
						</effect>
					</filter>
					<filter>
						<enabled>FALSE</enabled>
						<effect>
							<name>Motion Blur</name>
							<effectid>motionblur</effectid>
							<effectcategory>motion</effectcategory>
							<effecttype>motion</effecttype>
							<mediatype>video</mediatype>
							<parameter>
								<parameterid>duration</parameterid>
								<name>% Blur</name>
								<valuemin>0</valuemin>
								<valuemax>1000</valuemax>
								<value>500</value>
							</parameter>
							<parameter>
								<parameterid>samples</parameterid>
								<name>Samples</name>
								<valuemin>1</valuemin>
								<valuemax>16</valuemax>
								<value>4</value>
							</parameter>
						</effect>
					</filter>
					<filter>
						<effect>
							<name>Crop</name>
							<effectid>crop</effectid>
							<effectcategory>motion</effectcategory>
							<effecttype>motion</effecttype>
							<mediatype>video</mediatype>
							<parameter>
								<parameterid>left</parameterid>
								<name>left</name>
								<valuemin>0</valuemin>
								<valuemax>100</valuemax>
								<value>0</value>
							</parameter>
							<parameter>
								<parameterid>right</parameterid>
								<name>right</name>
								<valuemin>0</valuemin>
								<valuemax>100</valuemax>
								<value>0</value>
							</parameter>
							<parameter>
								<parameterid>top</parameterid>
								<name>top</name>
								<valuemin>0</valuemin>
								<valuemax>100</valuemax>
								<value>0</value>
							</parameter>
							<parameter>
								<parameterid>bottom</parameterid>
								<name>bottom</name>
								<valuemin>0</valuemin>
								<valuemax>100</valuemax>
								<value>0</value>
							</parameter>
							<parameter>
								<parameterid>edgefeather</parameterid>
								<name>edgefeather</name>
								<valuemin>0</valuemin>
								<valuemax>100</valuemax>
								<value>0</value>
							</parameter>
						</effect>
					</filter>
					<filter>
						<effect>
							<name>Distort</name>
							<effectid>deformation</effectid>
							<effectcategory>motion</effectcategory>
							<effecttype>motion</effecttype>
							<mediatype>video</mediatype>
							<parameter>
								<parameterid>ulcorner</parameterid>
								<name>Upper Left</name>
								<value>
									<horiz>-0.5</horiz>
									<vert>-0.5</vert>
								</value>
							</parameter>
							<parameter>
								<parameterid>urcorner</parameterid>
								<name>Upper Right</name>
								<value>
									<horiz>0.5</horiz>
									<vert>-0.5</vert>
								</value>
							</parameter>
							<parameter>
								<parameterid>lrcorner</parameterid>
								<name>Lower Right</name>
								<value>
									<horiz>0.5</horiz>
									<vert>0.5</vert>
								</value>
							</parameter>
							<parameter>
								<parameterid>llcorner</parameterid>
								<name>Lower Left</name>
								<value>
									<horiz>-0.5</horiz>
									<vert>0.5</vert>
								</value>
							</parameter>
							<parameter>
								<parameterid>aspect</parameterid>
								<name>Aspect</name>
								<valuemin>-10000</valuemin>
								<valuemax>10000</valuemax>
								<value>0</value>
							</parameter>
						</effect>
					</filter>
					<filter>
						<effect>
							<name>Opacity</name>
							<effectid>opacity</effectid>
							<effectcategory>motion</effectcategory>
							<effecttype>motion</effecttype>
							<mediatype>video</mediatype>
							<parameter>
								<parameterid>opacity</parameterid>
								<name>opacity</name>
								<valuemin>0</valuemin>
								<valuemax>100</valuemax>
								<value>100</value>
							</parameter>
						</effect>
					</filter>
					<sourcetrack>
						<mediatype>video</mediatype>
					</sourcetrack>
					<fielddominance>upper</fielddominance>
					<itemhistory>
						<uuid>46FD747B-5E11-4CF9-BB64-ED98B029D603</uuid>
					</itemhistory>
				</clipitem>
				<clipitem id="00821001.MOV11">
					<name>00821001.MOV</name>
					<duration>3420</duration>
					<rate>
						<ntsc>FALSE</ntsc>
						<timebase>25</timebase>
					</rate>
					<in>2685</in>
					<out>3233</out>
					<start>29961</start>
					<end>-1</end>
					<pixelaspectratio>Square</pixelaspectratio>
					<enabled>TRUE</enabled>
					<anamorphic>FALSE</anamorphic>
					<alphatype>none</alphatype>
					<masterclipid>00821001.MOV1</masterclipid>
					<logginginfo>
						<scene/>
						<shottake/>
						<lognote/>
						<good>FALSE</good>
					</logginginfo>
					<labels>
						<label2/>
					</labels>
					<comments>
						<mastercomment1/>
						<mastercomment2/>
						<mastercomment3/>
						<mastercomment4/>
					</comments>
					<file id="00821001 "/>
					<filter>
						<enabled>FALSE</enabled>
						<start>-1</start>
						<end>-1</end>
						<effect>
							<name>Color Corrector 3-way</name>
							<effectid>Color Corrector 3-way</effectid>
							<effectcategory>Color Correction</effectcategory>
							<effecttype>filter</effecttype>
							<mediatype>video</mediatype>
							<parameter>
								<parameterid>dispmode</parameterid>
								<name>Display Mode</name>
								<valuemin>1</valuemin>
								<valuemax>3</valuemax>
								<valuelist>
									<valueentry>
										<name>Final</name>
										<value>1</value>
									</valueentry>
									<valueentry>
										<name>Matte</name>
										<value>2</value>
									</valueentry>
									<valueentry>
										<name>Source</name>
										<value>3</value>
									</valueentry>
								</valuelist>
								<value>1</value>
							</parameter>
							<parameter>
								<parameterid>label1</parameterid>
								<name>Blacks Controls</name>
								<value/>
							</parameter>
							<parameter>
								<parameterid>blacklevel</parameterid>
								<name>Level</name>
								<valuemin>-196</valuemin>
								<valuemax>254</valuemax>
								<value>-26</value>
							</parameter>
							<parameter>
								<parameterid>b_hue</parameterid>
								<name>Angle</name>
								<valuemin>-180</valuemin>
								<valuemax>180</valuemax>
								<value>-86.7688</value>
							</parameter>
							<parameter>
								<parameterid>b_mag</parameterid>
								<name>Magnitude</name>
								<valuemin>0</valuemin>
								<valuemax>200</valuemax>
								<value>2.80438</value>
							</parameter>
							<parameter>
								<parameterid>label2</parameterid>
								<name>Midrange Controls</name>
								<value/>
							</parameter>
							<parameter>
								<parameterid>mids</parameterid>
								<name>Level</name>
								<valuemin>0</valuemin>
								<valuemax>200</valuemax>
								<value>122</value>
							</parameter>
							<parameter>
								<parameterid>m_hue</parameterid>
								<name>Angle</name>
								<valuemin>-180</valuemin>
								<valuemax>180</valuemax>
								<value>-85.6677</value>
							</parameter>
							<parameter>
								<parameterid>m_mag</parameterid>
								<name>Magnitude</name>
								<valuemin>0</valuemin>
								<valuemax>200</valuemax>
								<value>1.49176</value>
							</parameter>
							<parameter>
								<parameterid>label3</parameterid>
								<name>Highlight Controls</name>
								<value/>
							</parameter>
							<parameter>
								<parameterid>highlights</parameterid>
								<name>Level</name>
								<valuemin>64</valuemin>
								<valuemax>509</valuemax>
								<value>225</value>
							</parameter>
							<parameter>
								<parameterid>h_hue</parameterid>
								<name>Angle</name>
								<valuemin>-180</valuemin>
								<valuemax>180</valuemax>
								<value>109.276</value>
							</parameter>
							<parameter>
								<parameterid>h_mag</parameterid>
								<name>Magnitude</name>
								<valuemin>0</valuemin>
								<valuemax>200</valuemax>
								<value>4.39402</value>
							</parameter>
							<parameter>
								<parameterid>label4</parameterid>
								<name>Color Controls</name>
								<value/>
							</parameter>
							<parameter>
								<parameterid>chroma</parameterid>
								<name>Saturation</name>
								<valuemin>0</valuemin>
								<valuemax>200</valuemax>
								<value>122</value>
							</parameter>
							<parameter>
								<parameterid>label5</parameterid>
								<name>Limit Effect Controls</name>
								<value/>
							</parameter>
							<parameter>
								<parameterid>dochroma</parameterid>
								<name>Limit on Chroma</name>
								<value>FALSE</value>
							</parameter>
							<parameter>
								<parameterid>centerang</parameterid>
								<name>Chroma Center</name>
								<valuemin>-760</valuemin>
								<valuemax>760</valuemax>
								<value>-110</value>
							</parameter>
							<parameter>
								<parameterid>chromawidth</parameterid>
								<name>Chroma Width</name>
								<valuemin>0</valuemin>
								<valuemax>360</valuemax>
								<value>15</value>
							</parameter>
							<parameter>
								<parameterid>chromasoft</parameterid>
								<name>Chroma Softness</name>
								<valuemin>0</valuemin>
								<valuemax>180</valuemax>
								<value>10</value>
							</parameter>
							<parameter>
								<parameterid>dosat</parameterid>
								<name>Limit on Saturation</name>
								<value>FALSE</value>
							</parameter>
							<parameter>
								<parameterid>satmin</parameterid>
								<name>Sat. Minimum</name>
								<valuemin>0</valuemin>
								<valuemax>125</valuemax>
								<value>35</value>
							</parameter>
							<parameter>
								<parameterid>satwidth</parameterid>
								<name>Sat. Width</name>
								<valuemin>0</valuemin>
								<valuemax>125</valuemax>
								<value>40</value>
							</parameter>
							<parameter>
								<parameterid>satsoft</parameterid>
								<name>Sat. Softness</name>
								<valuemin>0</valuemin>
								<valuemax>125</valuemax>
								<value>20</value>
							</parameter>
							<parameter>
								<parameterid>doluma</parameterid>
								<name>Limit on Luma</name>
								<value>FALSE</value>
							</parameter>
							<parameter>
								<parameterid>lumamin</parameterid>
								<name>Luma Minimum</name>
								<valuemin>0</valuemin>
								<valuemax>120</valuemax>
								<value>0</value>
							</parameter>
							<parameter>
								<parameterid>lumawidth</parameterid>
								<name>Luma Width</name>
								<valuemin>0</valuemin>
								<valuemax>120</valuemax>
								<value>40</value>
							</parameter>
							<parameter>
								<parameterid>lumasoft</parameterid>
								<name>Luma Softness</name>
								<valuemin>0</valuemin>
								<valuemax>120</valuemax>
								<value>20</value>
							</parameter>
							<parameter>
								<parameterid>label6</parameterid>
								<name>Edge Control</name>
								<value/>
							</parameter>
							<parameter>
								<parameterid>edgethin</parameterid>
								<name>Thin/Spread</name>
								<valuemin>-100</valuemin>
								<valuemax>100</valuemax>
								<value>0</value>
							</parameter>
							<parameter>
								<parameterid>edgefeather</parameterid>
								<name>Softening</name>
								<valuemin>0</valuemin>
								<valuemax>100</valuemax>
								<value>0</value>
							</parameter>
							<parameter>
								<parameterid>label7</parameterid>
								<name>Mask Control</name>
								<value/>
							</parameter>
							<parameter>
								<parameterid>invertsel</parameterid>
								<name>Invert</name>
								<value>FALSE</value>
							</parameter>
							<parameter>
								<parameterid>debugshow</parameterid>
								<name>Show Stats</name>
								<value>FALSE</value>
							</parameter>
						</effect>
					</filter>
					<filter>
						<start>-1</start>
						<end>-1</end>
						<effect>
							<name>Color Corrector - Lua til Carina</name>
							<effectid>Color Corrector</effectid>
							<effectcategory>Color Correction</effectcategory>
							<effecttype>filter</effecttype>
							<mediatype>video</mediatype>
							<parameter>
								<parameterid>dispmode</parameterid>
								<name>Display Mode</name>
								<valuemin>1</valuemin>
								<valuemax>3</valuemax>
								<valuelist>
									<valueentry>
										<name>Final</name>
										<value>1</value>
									</valueentry>
									<valueentry>
										<name>Matte</name>
										<value>2</value>
									</valueentry>
									<valueentry>
										<name>Source</name>
										<value>3</value>
									</valueentry>
								</valuelist>
								<value>1</value>
							</parameter>
							<parameter>
								<parameterid>label1</parameterid>
								<name>Level Controls</name>
								<value/>
							</parameter>
							<parameter>
								<parameterid>highlights</parameterid>
								<name>Highlights</name>
								<valuemin>64</valuemin>
								<valuemax>509</valuemax>
								<value>247</value>
							</parameter>
							<parameter>
								<parameterid>mids</parameterid>
								<name>Mids</name>
								<valuemin>0</valuemin>
								<valuemax>200</valuemax>
								<value>100</value>
							</parameter>
							<parameter>
								<parameterid>blacklevel</parameterid>
								<name>Blacks</name>
								<valuemin>-196</valuemin>
								<valuemax>254</valuemax>
								<value>-3</value>
							</parameter>
							<parameter>
								<parameterid>label2</parameterid>
								<name>Color Balance</name>
								<value/>
							</parameter>
							<parameter>
								<parameterid>hue</parameterid>
								<name>Angle</name>
								<valuemin>-180</valuemin>
								<valuemax>180</valuemax>
								<value>-33</value>
							</parameter>
							<parameter>
								<parameterid>mag</parameterid>
								<name>Magnitude</name>
								<valuemin>0</valuemin>
								<valuemax>200</valuemax>
								<value>0</value>
							</parameter>
							<parameter>
								<parameterid>label4</parameterid>
								<name>Color Controls</name>
								<value/>
							</parameter>
							<parameter>
								<parameterid>chroma</parameterid>
								<name>Saturation</name>
								<valuemin>0</valuemin>
								<valuemax>200</valuemax>
								<value>84</value>
							</parameter>
							<parameter>
								<parameterid>phase</parameterid>
								<name>Phase shift</name>
								<valuemin>-180</valuemin>
								<valuemax>180</valuemax>
								<value>0</value>
							</parameter>
							<parameter>
								<parameterid>label5</parameterid>
								<name>Limit Effect Controls</name>
								<value/>
							</parameter>
							<parameter>
								<parameterid>dochroma</parameterid>
								<name>Limit on Chroma</name>
								<value>TRUE</value>
							</parameter>
							<parameter>
								<parameterid>centerang</parameterid>
								<name>Chroma Center</name>
								<valuemin>-760</valuemin>
								<valuemax>760</valuemax>
								<value>322.256</value>
							</parameter>
							<parameter>
								<parameterid>chromawidth</parameterid>
								<name>Chroma Width</name>
								<valuemin>0</valuemin>
								<valuemax>360</valuemax>
								<value>7.49567</value>
							</parameter>
							<parameter>
								<parameterid>chromasoft</parameterid>
								<name>Chroma Softness</name>
								<valuemin>0</valuemin>
								<valuemax>180</valuemax>
								<value>10.6152</value>
							</parameter>
							<parameter>
								<parameterid>dosat</parameterid>
								<name>Limit on Saturation</name>
								<value>TRUE</value>
							</parameter>
							<parameter>
								<parameterid>satmin</parameterid>
								<name>Sat. Minimum</name>
								<valuemin>0</valuemin>
								<valuemax>125</valuemax>
								<value>36.7837</value>
							</parameter>
							<parameter>
								<parameterid>satwidth</parameterid>
								<name>Sat. Width</name>
								<valuemin>0</valuemin>
								<valuemax>125</valuemax>
								<value>84.0889</value>
							</parameter>
							<parameter>
								<parameterid>satsoft</parameterid>
								<name>Sat. Softness</name>
								<valuemin>0</valuemin>
								<valuemax>125</valuemax>
								<value>5</value>
							</parameter>
							<parameter>
								<parameterid>doluma</parameterid>
								<name>Limit on Luma</name>
								<value>TRUE</value>
							</parameter>
							<parameter>
								<parameterid>lumamin</parameterid>
								<name>Luma Minimum</name>
								<valuemin>0</valuemin>
								<valuemax>120</valuemax>
								<value>0.939667</value>
							</parameter>
							<parameter>
								<parameterid>lumawidth</parameterid>
								<name>Luma Width</name>
								<valuemin>0</valuemin>
								<valuemax>120</valuemax>
								<value>115.45</value>
							</parameter>
							<parameter>
								<parameterid>lumasoft</parameterid>
								<name>Luma Softness</name>
								<valuemin>0</valuemin>
								<valuemax>120</valuemax>
								<value>15.1099</value>
							</parameter>
							<parameter>
								<parameterid>label6</parameterid>
								<name>Edge Control</name>
								<value/>
							</parameter>
							<parameter>
								<parameterid>edgethin</parameterid>
								<name>Thin/Spread</name>
								<valuemin>-100</valuemin>
								<valuemax>100</valuemax>
								<value>0</value>
							</parameter>
							<parameter>
								<parameterid>edgefeather</parameterid>
								<name>Softening</name>
								<valuemin>0</valuemin>
								<valuemax>100</valuemax>
								<value>0</value>
							</parameter>
							<parameter>
								<parameterid>label7</parameterid>
								<name>Mask Control</name>
								<value/>
							</parameter>
							<parameter>
								<parameterid>invertsel</parameterid>
								<name>Invert</name>
								<value>FALSE</value>
							</parameter>
							<parameter>
								<parameterid>debugshow</parameterid>
								<name>Show Stats</name>
								<value>FALSE</value>
							</parameter>
						</effect>
					</filter>
					<filter>
						<start>-1</start>
						<end>-1</end>
						<effect>
							<name>G Simple Curves</name>
							<effectcategory>Nattress Big Box of Tricks - Levels and Curves</effectcategory>
							<effecttype>filter</effecttype>
							<mediatype>video</mediatype>
							<parameter>
								<parameterid>colourspace</parameterid>
								<name>Colour Space</name>
								<valuemin>1</valuemin>
								<valuemax>2</valuemax>
								<valuelist>
									<valueentry>
										<name>RGB</name>
										<value>1</value>
									</valueentry>
									<valueentry>
										<name>Y'CbCr</name>
										<value>2</value>
									</valueentry>
								</valuelist>
								<value>1</value>
							</parameter>
							<parameter>
								<parameterid>showcurves</parameterid>
								<name>Show Curves</name>
								<value>FALSE</value>
							</parameter>
							<parameter>
								<parameterid>lvar</parameterid>
								<name>Levels Controls</name>
								<value>string</value>
							</parameter>
							<parameter>
								<parameterid>inw</parameterid>
								<name>White Level</name>
								<valuemin>0</valuemin>
								<valuemax>255</valuemax>
								<value>255</value>
							</parameter>
							<parameter>
								<parameterid>inb</parameterid>
								<name>Black Level</name>
								<valuemin>0</valuemin>
								<valuemax>255</valuemax>
								<value>2</value>
							</parameter>
							<parameter>
								<parameterid>outw</parameterid>
								<name>White Output</name>
								<valuemin>0</valuemin>
								<valuemax>255</valuemax>
								<value>255</value>
							</parameter>
							<parameter>
								<parameterid>outb</parameterid>
								<name>Black Output</name>
								<valuemin>0</valuemin>
								<valuemax>255</valuemax>
								<value>0</value>
							</parameter>
							<parameter>
								<parameterid>cvar</parameterid>
								<name>Curves Controls</name>
								<value>string</value>
							</parameter>
							<parameter>
								<parameterid>curvew</parameterid>
								<name>White Curve</name>
								<valuemin>-100</valuemin>
								<valuemax>100</valuemax>
								<value>-16</value>
							</parameter>
							<parameter>
								<parameterid>curveb</parameterid>
								<name>Black Curve</name>
								<valuemin>-100</valuemin>
								<valuemax>100</valuemax>
								<value>-3</value>
							</parameter>
							<parameter>
								<parameterid>clipoutput</parameterid>
								<name>Clip Output Levels</name>
								<value>TRUE</value>
							</parameter>
							<parameter>
								<parameterid>copyright</parameterid>
								<name>© www.nattress.com</name>
								<value>string</value>
							</parameter>
						</effect>
					</filter>
					<filter>
						<start>-1</start>
						<end>-1</end>
						<effect>
							<name>Color mindre metning og hoylys</name>
							<effectid>Color Corrector 3-way</effectid>
							<effectcategory>Color Correction</effectcategory>
							<effecttype>filter</effecttype>
							<mediatype>video</mediatype>
							<parameter>
								<parameterid>dispmode</parameterid>
								<name>Display Mode</name>
								<valuemin>1</valuemin>
								<valuemax>3</valuemax>
								<valuelist>
									<valueentry>
										<name>Final</name>
										<value>1</value>
									</valueentry>
									<valueentry>
										<name>Matte</name>
										<value>2</value>
									</valueentry>
									<valueentry>
										<name>Source</name>
										<value>3</value>
									</valueentry>
								</valuelist>
								<value>1</value>
							</parameter>
							<parameter>
								<parameterid>label1</parameterid>
								<name>Blacks Controls</name>
								<value/>
							</parameter>
							<parameter>
								<parameterid>blacklevel</parameterid>
								<name>Level</name>
								<valuemin>-196</valuemin>
								<valuemax>254</valuemax>
								<value>0</value>
							</parameter>
							<parameter>
								<parameterid>b_hue</parameterid>
								<name>Angle</name>
								<valuemin>-180</valuemin>
								<valuemax>180</valuemax>
								<value>-33</value>
							</parameter>
							<parameter>
								<parameterid>b_mag</parameterid>
								<name>Magnitude</name>
								<valuemin>0</valuemin>
								<valuemax>200</valuemax>
								<value>0</value>
							</parameter>
							<parameter>
								<parameterid>label2</parameterid>
								<name>Midrange Controls</name>
								<value/>
							</parameter>
							<parameter>
								<parameterid>mids</parameterid>
								<name>Level</name>
								<valuemin>0</valuemin>
								<valuemax>200</valuemax>
								<value>109</value>
							</parameter>
							<parameter>
								<parameterid>m_hue</parameterid>
								<name>Angle</name>
								<valuemin>-180</valuemin>
								<valuemax>180</valuemax>
								<value>-126.753</value>
							</parameter>
							<parameter>
								<parameterid>m_mag</parameterid>
								<name>Magnitude</name>
								<valuemin>0</valuemin>
								<valuemax>200</valuemax>
								<value>0.756039</value>
							</parameter>
							<parameter>
								<parameterid>label3</parameterid>
								<name>Highlight Controls</name>
								<value/>
							</parameter>
							<parameter>
								<parameterid>highlights</parameterid>
								<name>Level</name>
								<valuemin>64</valuemin>
								<valuemax>509</valuemax>
								<value>238</value>
							</parameter>
							<parameter>
								<parameterid>h_hue</parameterid>
								<name>Angle</name>
								<valuemin>-180</valuemin>
								<valuemax>180</valuemax>
								<value>139.4</value>
							</parameter>
							<parameter>
								<parameterid>h_mag</parameterid>
								<name>Magnitude</name>
								<valuemin>0</valuemin>
								<valuemax>200</valuemax>
								<value>1.03932</value>
							</parameter>
							<parameter>
								<parameterid>label4</parameterid>
								<name>Color Controls</name>
								<value/>
							</parameter>
							<parameter>
								<parameterid>chroma</parameterid>
								<name>Saturation</name>
								<valuemin>0</valuemin>
								<valuemax>200</valuemax>
								<value>109</value>
							</parameter>
							<parameter>
								<parameterid>label5</parameterid>
								<name>Limit Effect Controls</name>
								<value/>
							</parameter>
							<parameter>
								<parameterid>dochroma</parameterid>
								<name>Limit on Chroma</name>
								<value>FALSE</value>
							</parameter>
							<parameter>
								<parameterid>centerang</parameterid>
								<name>Chroma Center</name>
								<valuemin>-760</valuemin>
								<valuemax>760</valuemax>
								<value>-110</value>
							</parameter>
							<parameter>
								<parameterid>chromawidth</parameterid>
								<name>Chroma Width</name>
								<valuemin>0</valuemin>
								<valuemax>360</valuemax>
								<value>15</value>
							</parameter>
							<parameter>
								<parameterid>chromasoft</parameterid>
								<name>Chroma Softness</name>
								<valuemin>0</valuemin>
								<valuemax>180</valuemax>
								<value>10</value>
							</parameter>
							<parameter>
								<parameterid>dosat</parameterid>
								<name>Limit on Saturation</name>
								<value>FALSE</value>
							</parameter>
							<parameter>
								<parameterid>satmin</parameterid>
								<name>Sat. Minimum</name>
								<valuemin>0</valuemin>
								<valuemax>125</valuemax>
								<value>35</value>
							</parameter>
							<parameter>
								<parameterid>satwidth</parameterid>
								<name>Sat. Width</name>
								<valuemin>0</valuemin>
								<valuemax>125</valuemax>
								<value>40</value>
							</parameter>
							<parameter>
								<parameterid>satsoft</parameterid>
								<name>Sat. Softness</name>
								<valuemin>0</valuemin>
								<valuemax>125</valuemax>
								<value>20</value>
							</parameter>
							<parameter>
								<parameterid>doluma</parameterid>
								<name>Limit on Luma</name>
								<value>FALSE</value>
							</parameter>
							<parameter>
								<parameterid>lumamin</parameterid>
								<name>Luma Minimum</name>
								<valuemin>0</valuemin>
								<valuemax>120</valuemax>
								<value>0</value>
							</parameter>
							<parameter>
								<parameterid>lumawidth</parameterid>
								<name>Luma Width</name>
								<valuemin>0</valuemin>
								<valuemax>120</valuemax>
								<value>40</value>
							</parameter>
							<parameter>
								<parameterid>lumasoft</parameterid>
								<name>Luma Softness</name>
								<valuemin>0</valuemin>
								<valuemax>120</valuemax>
								<value>20</value>
							</parameter>
							<parameter>
								<parameterid>label6</parameterid>
								<name>Edge Control</name>
								<value/>
							</parameter>
							<parameter>
								<parameterid>edgethin</parameterid>
								<name>Thin/Spread</name>
								<valuemin>-100</valuemin>
								<valuemax>100</valuemax>
								<value>0</value>
							</parameter>
							<parameter>
								<parameterid>edgefeather</parameterid>
								<name>Softening</name>
								<valuemin>0</valuemin>
								<valuemax>100</valuemax>
								<value>0</value>
							</parameter>
							<parameter>
								<parameterid>label7</parameterid>
								<name>Mask Control</name>
								<value/>
							</parameter>
							<parameter>
								<parameterid>invertsel</parameterid>
								<name>Invert</name>
								<value>FALSE</value>
							</parameter>
							<parameter>
								<parameterid>debugshow</parameterid>
								<name>Show Stats</name>
								<value>FALSE</value>
							</parameter>
						</effect>
					</filter>
					<filter>
						<effect>
							<name>Basic Motion</name>
							<effectid>basic</effectid>
							<effectcategory>motion</effectcategory>
							<effecttype>motion</effecttype>
							<mediatype>video</mediatype>
							<parameter>
								<parameterid>scale</parameterid>
								<name>Scale</name>
								<valuemin>0</valuemin>
								<valuemax>1000</valuemax>
								<value>100</value>
							</parameter>
							<parameter>
								<parameterid>rotation</parameterid>
								<name>Rotation</name>
								<valuemin>-8640</valuemin>
								<valuemax>8640</valuemax>
								<value>0</value>
							</parameter>
							<parameter>
								<parameterid>center</parameterid>
								<name>Center</name>
								<value>
									<horiz>0</horiz>
									<vert>0</vert>
								</value>
							</parameter>
							<parameter>
								<parameterid>centerOffset</parameterid>
								<name>Anchor Point</name>
								<value>
									<horiz>0</horiz>
									<vert>0</vert>
								</value>
							</parameter>
						</effect>
					</filter>
					<filter>
						<enabled>FALSE</enabled>
						<effect>
							<name>Drop Shadow</name>
							<effectid>dropshadow</effectid>
							<effectcategory>motion</effectcategory>
							<effecttype>motion</effecttype>
							<mediatype>video</mediatype>
							<parameter>
								<parameterid>offset</parameterid>
								<name>offset</name>
								<valuemin>-100</valuemin>
								<valuemax>100</valuemax>
								<value>2</value>
							</parameter>
							<parameter>
								<parameterid>angle</parameterid>
								<name>angle</name>
								<valuemin>-720</valuemin>
								<valuemax>720</valuemax>
								<value>135</value>
							</parameter>
							<parameter>
								<parameterid>color</parameterid>
								<name>color</name>
								<value>
									<alpha>0</alpha>
									<red>0</red>
									<green>0</green>
									<blue>0</blue>
								</value>
							</parameter>
							<parameter>
								<parameterid>softness</parameterid>
								<name>softness</name>
								<valuemin>0</valuemin>
								<valuemax>100</valuemax>
								<value>10</value>
							</parameter>
							<parameter>
								<parameterid>opacity</parameterid>
								<name>opacity</name>
								<valuemin>0</valuemin>
								<valuemax>100</valuemax>
								<value>50</value>
							</parameter>
						</effect>
					</filter>
					<filter>
						<enabled>FALSE</enabled>
						<effect>
							<name>Motion Blur</name>
							<effectid>motionblur</effectid>
							<effectcategory>motion</effectcategory>
							<effecttype>motion</effecttype>
							<mediatype>video</mediatype>
							<parameter>
								<parameterid>duration</parameterid>
								<name>% Blur</name>
								<valuemin>0</valuemin>
								<valuemax>1000</valuemax>
								<value>500</value>
							</parameter>
							<parameter>
								<parameterid>samples</parameterid>
								<name>Samples</name>
								<valuemin>1</valuemin>
								<valuemax>16</valuemax>
								<value>4</value>
							</parameter>
						</effect>
					</filter>
					<filter>
						<effect>
							<name>Crop</name>
							<effectid>crop</effectid>
							<effectcategory>motion</effectcategory>
							<effecttype>motion</effecttype>
							<mediatype>video</mediatype>
							<parameter>
								<parameterid>left</parameterid>
								<name>left</name>
								<valuemin>0</valuemin>
								<valuemax>100</valuemax>
								<value>0</value>
							</parameter>
							<parameter>
								<parameterid>right</parameterid>
								<name>right</name>
								<valuemin>0</valuemin>
								<valuemax>100</valuemax>
								<value>0</value>
							</parameter>
							<parameter>
								<parameterid>top</parameterid>
								<name>top</name>
								<valuemin>0</valuemin>
								<valuemax>100</valuemax>
								<value>0</value>
							</parameter>
							<parameter>
								<parameterid>bottom</parameterid>
								<name>bottom</name>
								<valuemin>0</valuemin>
								<valuemax>100</valuemax>
								<value>0</value>
							</parameter>
							<parameter>
								<parameterid>edgefeather</parameterid>
								<name>edgefeather</name>
								<valuemin>0</valuemin>
								<valuemax>100</valuemax>
								<value>0</value>
							</parameter>
						</effect>
					</filter>
					<filter>
						<effect>
							<name>Distort</name>
							<effectid>deformation</effectid>
							<effectcategory>motion</effectcategory>
							<effecttype>motion</effecttype>
							<mediatype>video</mediatype>
							<parameter>
								<parameterid>ulcorner</parameterid>
								<name>Upper Left</name>
								<value>
									<horiz>-0.5</horiz>
									<vert>-0.5</vert>
								</value>
							</parameter>
							<parameter>
								<parameterid>urcorner</parameterid>
								<name>Upper Right</name>
								<value>
									<horiz>0.5</horiz>
									<vert>-0.5</vert>
								</value>
							</parameter>
							<parameter>
								<parameterid>lrcorner</parameterid>
								<name>Lower Right</name>
								<value>
									<horiz>0.5</horiz>
									<vert>0.5</vert>
								</value>
							</parameter>
							<parameter>
								<parameterid>llcorner</parameterid>
								<name>Lower Left</name>
								<value>
									<horiz>-0.5</horiz>
									<vert>0.5</vert>
								</value>
							</parameter>
							<parameter>
								<parameterid>aspect</parameterid>
								<name>Aspect</name>
								<valuemin>-10000</valuemin>
								<valuemax>10000</valuemax>
								<value>0</value>
							</parameter>
						</effect>
					</filter>
					<filter>
						<effect>
							<name>Opacity</name>
							<effectid>opacity</effectid>
							<effectcategory>motion</effectcategory>
							<effecttype>motion</effecttype>
							<mediatype>video</mediatype>
							<parameter>
								<parameterid>opacity</parameterid>
								<name>opacity</name>
								<valuemin>0</valuemin>
								<valuemax>100</valuemax>
								<value>100</value>
							</parameter>
						</effect>
					</filter>
					<sourcetrack>
						<mediatype>video</mediatype>
					</sourcetrack>
					<fielddominance>upper</fielddominance>
					<itemhistory>
						<uuid>8DB27442-3B6F-480F-94E4-20317246A99D</uuid>
					</itemhistory>
				</clipitem>
				<transitionitem>
					<rate>
						<ntsc>FALSE</ntsc>
						<timebase>25</timebase>
					</rate>
					<start>30484</start>
					<end>30509</end>
					<alignment>end-black</alignment>
					<effect>
						<name>Cross Dissolve</name>
						<effectid>Cross Dissolve</effectid>
						<effectcategory>Dissolve</effectcategory>
						<effecttype>transition</effecttype>
						<mediatype>video</mediatype>
						<wipecode>0</wipecode>
						<wipeaccuracy>100</wipeaccuracy>
						<startratio>0</startratio>
						<endratio>1</endratio>
						<reverse>FALSE</reverse>
					</effect>
				</transitionitem>
				<clipitem id="NRK2011 ">
					<name>NRK2011</name>
					<duration>150</duration>
					<rate>
						<ntsc>FALSE</ntsc>
						<timebase>25</timebase>
					</rate>
					<in>0</in>
					<out>150</out>
					<start>30509</start>
					<end>30659</end>
					<labels>
						<label>Best Take</label>
					</labels>
					<filter>
						<effect>
							<name>Opacity</name>
							<effectid>opacity</effectid>
							<effectcategory>motion</effectcategory>
							<effecttype>motion</effecttype>
							<mediatype>video</mediatype>
							<parameter>
								<parameterid>opacity</parameterid>
								<name>opacity</name>
								<valuemin>0</valuemin>
								<valuemax>100</valuemax>
								<keyframe>
									<when>1</when>
									<value>0</value>
									<outscale>0</outscale>
									<outbez>
										<horiz>6.25</horiz>
										<vert>0</vert>
									</outbez>
								</keyframe>
								<keyframe>
									<when>26</when>
									<value>100</value>
									<inscale>0</inscale>
									<inbez>
										<horiz>6.25</horiz>
										<vert>-3.14159</vert>
									</inbez>
									<outscale>0</outscale>
									<outbez>
										<horiz>24.5</horiz>
										<vert>0</vert>
									</outbez>
								</keyframe>
								<keyframe>
									<when>124</when>
									<value>100</value>
									<inscale>0</inscale>
									<inbez>
										<horiz>24.5</horiz>
										<vert>-3.14159</vert>
									</inbez>
									<outscale>0</outscale>
									<outbez>
										<horiz>6.25</horiz>
										<vert>0</vert>
									</outbez>
								</keyframe>
								<keyframe>
									<when>149</when>
									<value>0</value>
									<inscale>0</inscale>
									<inbez>
										<horiz>6.25</horiz>
										<vert>-3.14159</vert>
									</inbez>
								</keyframe>
								<interpolation>
									<name>FCPCurve</name>
								</interpolation>
								<value>100</value>
							</parameter>
						</effect>
					</filter>
					<sequence id="NRK2011 1">
						<name>NRK2011</name>
						<duration>150</duration>
						<rate>
							<ntsc>FALSE</ntsc>
							<timebase>25</timebase>
						</rate>
						<timecode>
							<rate>
								<ntsc>FALSE</ntsc>
								<timebase>25</timebase>
							</rate>
							<string>00:00:00:00</string>
							<frame>0</frame>
							<source>source</source>
							<displayformat>NDF</displayformat>
						</timecode>
						<in>-1</in>
						<out>-1</out>
						<media>
							<video>
								<format>
									<samplecharacteristics>
										<width>1920</width>
										<height>1080</height>
										<anamorphic>FALSE</anamorphic>
										<pixelaspectratio>Square</pixelaspectratio>
										<fielddominance>upper</fielddominance>
										<rate>
											<ntsc>FALSE</ntsc>
											<timebase>25</timebase>
										</rate>
										<colordepth>24</colordepth>
										<codec>
											<name>Apple XDCAM 422 1080i50 (50 Mb/s CBR)</name>
											<appspecificdata>
												<appname>Final Cut Pro</appname>
												<appmanufacturer>Apple Inc.</appmanufacturer>
												<appversion>7.0</appversion>
												<data>
													<qtcodec>
														<codecname>Apple XDCAM 422 1080i50 (50 Mb/s CBR)</codecname>
														<codectypename>XDCAM 422 1080i50 (50 Mb/s CBR)</codectypename>
														<codectypecode>xd5c</codectypecode>
														<codecvendorcode>appl</codecvendorcode>
														<spatialquality>1023</spatialquality>
														<temporalquality>0</temporalquality>
														<keyframerate>0</keyframerate>
														<datarate>0</datarate>
													</qtcodec>
												</data>
											</appspecificdata>
										</codec>
									</samplecharacteristics>
									<appspecificdata>
										<appname>Final Cut Pro</appname>
										<appmanufacturer>Apple Inc.</appmanufacturer>
										<appversion>7.0</appversion>
										<data>
											<fcpimageprocessing>
												<useyuv>TRUE</useyuv>
												<usesuperwhite>FALSE</usesuperwhite>
												<rendermode>YUV8BPP</rendermode>
											</fcpimageprocessing>
										</data>
									</appspecificdata>
								</format>
								<track>
									<clipitem id="sluttplak_1920x1080 HD">
										<name>sluttplak_1920x1080 HD</name>
										<duration>3026</duration>
										<rate>
											<ntsc>FALSE</ntsc>
											<timebase>25</timebase>
										</rate>
										<in>1500</in>
										<out>1650</out>
										<start>0</start>
										<end>150</end>
										<pixelaspectratio>Square</pixelaspectratio>
										<stillframe>TRUE</stillframe>
										<enabled>TRUE</enabled>
										<anamorphic>FALSE</anamorphic>
										<alphatype>none</alphatype>
										<alphareverse>FALSE</alphareverse>
										<masterclipid>sluttplak_1920x1080 HD1</masterclipid>
										<logginginfo>
											<scene/>
											<shottake/>
											<lognote/>
											<good>FALSE</good>
										</logginginfo>
										<labels>
											<label2/>
										</labels>
										<comments>
											<mastercomment1/>
											<mastercomment2/>
											<mastercomment3/>
											<mastercomment4/>
										</comments>
										<file id="sluttplak_1920x1080 HD2">
											<name>sluttplak_1920x1080 HD.tga</name>
											<pathurl>file://localhost/Volumes/omf/RIKS/Paskemorgen/sluttplak_1920x1080%20HD.tga</pathurl>
											<rate>
												<timebase>25</timebase>
											</rate>
											<duration>2</duration>
											<width>1920</width>
											<height>1080</height>
											<media>
												<video>
													<duration>2</duration>
													<stillframe>TRUE</stillframe>
													<samplecharacteristics>
														<width>1920</width>
														<height>1080</height>
													</samplecharacteristics>
												</video>
											</media>
										</file>
										<filter>
											<effect>
												<name>Opacity</name>
												<effectid>opacity</effectid>
												<effectcategory>motion</effectcategory>
												<effecttype>motion</effecttype>
												<mediatype>video</mediatype>
												<parameter>
													<parameterid>opacity</parameterid>
													<name>opacity</name>
													<valuemin>0</valuemin>
													<valuemax>100</valuemax>
													<value>100</value>
												</parameter>
											</effect>
										</filter>
										<sourcetrack>
											<mediatype>video</mediatype>
										</sourcetrack>
										<fielddominance>none</fielddominance>
										<itemhistory>
											<uuid>6048B404-4AEB-4FF4-AC57-BB765602B281</uuid>
										</itemhistory>
									</clipitem>
									<enabled>TRUE</enabled>
									<locked>FALSE</locked>
								</track>
								<track>
									<clipitem id="Slug">
										<name>Slug</name>
										<duration>3000</duration>
										<rate>
											<ntsc>FALSE</ntsc>
											<timebase>25</timebase>
										</rate>
										<in>0</in>
										<out>150</out>
										<start>0</start>
										<end>150</end>
										<pixelaspectratio>Square</pixelaspectratio>
										<enabled>TRUE</enabled>
										<anamorphic>FALSE</anamorphic>
										<alphatype>none</alphatype>
										<alphareverse>FALSE</alphareverse>
										<logginginfo>
											<scene/>
											<shottake/>
											<lognote/>
											<good>FALSE</good>
										</logginginfo>
										<labels>
											<label2/>
										</labels>
										<comments>
											<mastercomment1/>
											<mastercomment2/>
											<mastercomment3/>
											<mastercomment4/>
										</comments>
										<file id="Slug1">
											<name>Slug</name>
											<mediaSource>Slug</mediaSource>
											<rate>
												<timebase>25</timebase>
											</rate>
											<duration>3000</duration>
											<media>
												<video>
													<duration>3000</duration>
													<samplecharacteristics>
														<width>1920</width>
														<height>1080</height>
													</samplecharacteristics>
												</video>
												<audio>
													<samplecharacteristics>
														<samplerate>48000</samplerate>
														<depth>32</depth>
													</samplecharacteristics>
													<channelcount>2</channelcount>
												</audio>
											</media>
										</file>
										<filter>
											<effect>
												<name>Basic Motion</name>
												<effectid>basic</effectid>
												<effectcategory>motion</effectcategory>
												<effecttype>motion</effecttype>
												<mediatype>video</mediatype>
												<parameter>
													<parameterid>scale</parameterid>
													<name>Scale</name>
													<valuemin>0</valuemin>
													<valuemax>1000</valuemax>
													<value>100</value>
												</parameter>
												<parameter>
													<parameterid>rotation</parameterid>
													<name>Rotation</name>
													<valuemin>-8640</valuemin>
													<valuemax>8640</valuemax>
													<value>0</value>
												</parameter>
												<parameter>
													<parameterid>center</parameterid>
													<name>Center</name>
													<value>
														<horiz>0</horiz>
														<vert>0</vert>
													</value>
												</parameter>
												<parameter>
													<parameterid>centerOffset</parameterid>
													<name>Anchor Point</name>
													<value>
														<horiz>0</horiz>
														<vert>0</vert>
													</value>
												</parameter>
											</effect>
										</filter>
										<filter>
											<enabled>FALSE</enabled>
											<effect>
												<name>Drop Shadow</name>
												<effectid>dropshadow</effectid>
												<effectcategory>motion</effectcategory>
												<effecttype>motion</effecttype>
												<mediatype>video</mediatype>
												<parameter>
													<parameterid>offset</parameterid>
													<name>offset</name>
													<valuemin>-100</valuemin>
													<valuemax>100</valuemax>
													<value>2</value>
												</parameter>
												<parameter>
													<parameterid>angle</parameterid>
													<name>angle</name>
													<valuemin>-720</valuemin>
													<valuemax>720</valuemax>
													<value>135</value>
												</parameter>
												<parameter>
													<parameterid>color</parameterid>
													<name>color</name>
													<value>
														<alpha>0</alpha>
														<red>0</red>
														<green>0</green>
														<blue>0</blue>
													</value>
												</parameter>
												<parameter>
													<parameterid>softness</parameterid>
													<name>softness</name>
													<valuemin>0</valuemin>
													<valuemax>100</valuemax>
													<value>10</value>
												</parameter>
												<parameter>
													<parameterid>opacity</parameterid>
													<name>opacity</name>
													<valuemin>0</valuemin>
													<valuemax>100</valuemax>
													<value>50</value>
												</parameter>
											</effect>
										</filter>
										<filter>
											<enabled>FALSE</enabled>
											<effect>
												<name>Motion Blur</name>
												<effectid>motionblur</effectid>
												<effectcategory>motion</effectcategory>
												<effecttype>motion</effecttype>
												<mediatype>video</mediatype>
												<parameter>
													<parameterid>duration</parameterid>
													<name>% Blur</name>
													<valuemin>0</valuemin>
													<valuemax>1000</valuemax>
													<value>500</value>
												</parameter>
												<parameter>
													<parameterid>samples</parameterid>
													<name>Samples</name>
													<valuemin>1</valuemin>
													<valuemax>16</valuemax>
													<value>4</value>
												</parameter>
											</effect>
										</filter>
										<filter>
											<effect>
												<name>Crop</name>
												<effectid>crop</effectid>
												<effectcategory>motion</effectcategory>
												<effecttype>motion</effecttype>
												<mediatype>video</mediatype>
												<parameter>
													<parameterid>left</parameterid>
													<name>left</name>
													<valuemin>0</valuemin>
													<valuemax>100</valuemax>
													<value>48</value>
												</parameter>
												<parameter>
													<parameterid>right</parameterid>
													<name>right</name>
													<valuemin>0</valuemin>
													<valuemax>100</valuemax>
													<value>0</value>
												</parameter>
												<parameter>
													<parameterid>top</parameterid>
													<name>top</name>
													<valuemin>0</valuemin>
													<valuemax>100</valuemax>
													<value>56</value>
												</parameter>
												<parameter>
													<parameterid>bottom</parameterid>
													<name>bottom</name>
													<valuemin>0</valuemin>
													<valuemax>100</valuemax>
													<value>0</value>
												</parameter>
												<parameter>
													<parameterid>edgefeather</parameterid>
													<name>edgefeather</name>
													<valuemin>0</valuemin>
													<valuemax>100</valuemax>
													<value>0</value>
												</parameter>
											</effect>
										</filter>
										<filter>
											<effect>
												<name>Distort</name>
												<effectid>deformation</effectid>
												<effectcategory>motion</effectcategory>
												<effecttype>motion</effecttype>
												<mediatype>video</mediatype>
												<parameter>
													<parameterid>ulcorner</parameterid>
													<name>Upper Left</name>
													<value>
														<horiz>-0.5</horiz>
														<vert>-0.5</vert>
													</value>
												</parameter>
												<parameter>
													<parameterid>urcorner</parameterid>
													<name>Upper Right</name>
													<value>
														<horiz>0.5</horiz>
														<vert>-0.5</vert>
													</value>
												</parameter>
												<parameter>
													<parameterid>lrcorner</parameterid>
													<name>Lower Right</name>
													<value>
														<horiz>0.5</horiz>
														<vert>0.5</vert>
													</value>
												</parameter>
												<parameter>
													<parameterid>llcorner</parameterid>
													<name>Lower Left</name>
													<value>
														<horiz>-0.5</horiz>
														<vert>0.5</vert>
													</value>
												</parameter>
												<parameter>
													<parameterid>aspect</parameterid>
													<name>Aspect</name>
													<valuemin>-10000</valuemin>
													<valuemax>10000</valuemax>
													<value>0</value>
												</parameter>
											</effect>
										</filter>
										<filter>
											<effect>
												<name>Opacity</name>
												<effectid>opacity</effectid>
												<effectcategory>motion</effectcategory>
												<effecttype>motion</effecttype>
												<mediatype>video</mediatype>
												<parameter>
													<parameterid>opacity</parameterid>
													<name>opacity</name>
													<valuemin>0</valuemin>
													<valuemax>100</valuemax>
													<value>100</value>
												</parameter>
											</effect>
										</filter>
										<sourcetrack>
											<mediatype>video</mediatype>
										</sourcetrack>
										<fielddominance>none</fielddominance>
										<itemhistory>
											<uuid>23BE8A32-A370-47C6-8B44-BFB3D503BD90</uuid>
										</itemhistory>
									</clipitem>
									<enabled>TRUE</enabled>
									<locked>FALSE</locked>
								</track>
								<track>
									<generatoritem id="Text">
										<name>Text</name>
										<duration>3000</duration>
										<rate>
											<ntsc>FALSE</ntsc>
											<timebase>25</timebase>
										</rate>
										<in>1375</in>
										<out>1525</out>
										<start>0</start>
										<end>150</end>
										<enabled>TRUE</enabled>
										<anamorphic>FALSE</anamorphic>
										<alphatype>black</alphatype>
										<alphareverse>FALSE</alphareverse>
										<logginginfo>
											<scene/>
											<shottake/>
											<lognote/>
											<good>FALSE</good>
										</logginginfo>
										<labels>
											<label2/>
										</labels>
										<comments>
											<mastercomment1/>
											<mastercomment2/>
											<mastercomment3/>
											<mastercomment4/>
										</comments>
										<effect>
											<name>Text</name>
											<effectid>Text</effectid>
											<effectcategory>Text</effectcategory>
											<effecttype>generator</effecttype>
											<mediatype>video</mediatype>
											<parameter>
												<parameterid>str</parameterid>
												<name>Text</name>
												<value>2011</value>
											</parameter>
											<parameter>
												<parameterid>fontname</parameterid>
												<name>Font</name>
												<value>Lucida Grande</value>
											</parameter>
											<parameter>
												<parameterid>fontsize</parameterid>
												<name>Size</name>
												<valuemin>0</valuemin>
												<valuemax>1000</valuemax>
												<value>14</value>
											</parameter>
											<parameter>
												<parameterid>fontstyle</parameterid>
												<name>Style</name>
												<valuemin>1</valuemin>
												<valuemax>4</valuemax>
												<valuelist>
													<valueentry>
														<name>Plain</name>
														<value>1</value>
													</valueentry>
													<valueentry>
														<name>Bold</name>
														<value>2</value>
													</valueentry>
													<valueentry>
														<name>Italic</name>
														<value>3</value>
													</valueentry>
													<valueentry>
														<name>Bold/Italic</name>
														<value>4</value>
													</valueentry>
												</valuelist>
												<value>2</value>
											</parameter>
											<parameter>
												<parameterid>fontalign</parameterid>
												<name>Alignment</name>
												<valuemin>1</valuemin>
												<valuemax>3</valuemax>
												<valuelist>
													<valueentry>
														<name>Left</name>
														<value>1</value>
													</valueentry>
													<valueentry>
														<name>Center</name>
														<value>2</value>
													</valueentry>
													<valueentry>
														<name>Right</name>
														<value>3</value>
													</valueentry>
												</valuelist>
												<value>2</value>
											</parameter>
											<parameter>
												<parameterid>fontcolor</parameterid>
												<name>Font Color</name>
												<value>
													<alpha>255</alpha>
													<red>255</red>
													<green>255</green>
													<blue>255</blue>
												</value>
											</parameter>
											<parameter>
												<parameterid>origin</parameterid>
												<name>Origin</name>
												<value>
													<horiz>0.0101138</horiz>
													<vert>0.112613</vert>
												</value>
											</parameter>
											<parameter>
												<parameterid>fonttrack</parameterid>
												<name>Tracking</name>
												<valuemin>-200</valuemin>
												<valuemax>200</valuemax>
												<value>1</value>
											</parameter>
											<parameter>
												<parameterid>leading</parameterid>
												<name>Leading</name>
												<valuemin>-100</valuemin>
												<valuemax>100</valuemax>
												<value>0</value>
											</parameter>
											<parameter>
												<parameterid>aspect</parameterid>
												<name>Aspect</name>
												<valuemin>0.1</valuemin>
												<valuemax>5</valuemax>
												<value>1</value>
											</parameter>
											<parameter>
												<parameterid>autokern</parameterid>
												<name>Auto Kerning</name>
												<value>TRUE</value>
											</parameter>
											<parameter>
												<parameterid>subpixel</parameterid>
												<name>Use Subpixel</name>
												<value>TRUE</value>
											</parameter>
										</effect>
										<filter>
											<effect>
												<name>Basic Motion</name>
												<effectid>basic</effectid>
												<effectcategory>motion</effectcategory>
												<effecttype>motion</effecttype>
												<mediatype>video</mediatype>
												<parameter>
													<parameterid>scale</parameterid>
													<name>Scale</name>
													<valuemin>0</valuemin>
													<valuemax>1000</valuemax>
													<value>100</value>
												</parameter>
												<parameter>
													<parameterid>rotation</parameterid>
													<name>Rotation</name>
													<valuemin>-8640</valuemin>
													<valuemax>8640</valuemax>
													<value>0</value>
												</parameter>
												<parameter>
													<parameterid>center</parameterid>
													<name>Center</name>
													<value>
														<horiz>0</horiz>
														<vert>0</vert>
													</value>
												</parameter>
												<parameter>
													<parameterid>centerOffset</parameterid>
													<name>Anchor Point</name>
													<value>
														<horiz>0</horiz>
														<vert>0</vert>
													</value>
												</parameter>
											</effect>
										</filter>
										<filter>
											<enabled>FALSE</enabled>
											<effect>
												<name>Drop Shadow</name>
												<effectid>dropshadow</effectid>
												<effectcategory>motion</effectcategory>
												<effecttype>motion</effecttype>
												<mediatype>video</mediatype>
												<parameter>
													<parameterid>offset</parameterid>
													<name>offset</name>
													<valuemin>-100</valuemin>
													<valuemax>100</valuemax>
													<value>2</value>
												</parameter>
												<parameter>
													<parameterid>angle</parameterid>
													<name>angle</name>
													<valuemin>-720</valuemin>
													<valuemax>720</valuemax>
													<value>135</value>
												</parameter>
												<parameter>
													<parameterid>color</parameterid>
													<name>color</name>
													<value>
														<alpha>0</alpha>
														<red>0</red>
														<green>0</green>
														<blue>0</blue>
													</value>
												</parameter>
												<parameter>
													<parameterid>softness</parameterid>
													<name>softness</name>
													<valuemin>0</valuemin>
													<valuemax>100</valuemax>
													<value>10</value>
												</parameter>
												<parameter>
													<parameterid>opacity</parameterid>
													<name>opacity</name>
													<valuemin>0</valuemin>
													<valuemax>100</valuemax>
													<value>50</value>
												</parameter>
											</effect>
										</filter>
										<filter>
											<enabled>FALSE</enabled>
											<effect>
												<name>Motion Blur</name>
												<effectid>motionblur</effectid>
												<effectcategory>motion</effectcategory>
												<effecttype>motion</effecttype>
												<mediatype>video</mediatype>
												<parameter>
													<parameterid>duration</parameterid>
													<name>% Blur</name>
													<valuemin>0</valuemin>
													<valuemax>1000</valuemax>
													<value>500</value>
												</parameter>
												<parameter>
													<parameterid>samples</parameterid>
													<name>Samples</name>
													<valuemin>1</valuemin>
													<valuemax>16</valuemax>
													<value>4</value>
												</parameter>
											</effect>
										</filter>
										<filter>
											<effect>
												<name>Crop</name>
												<effectid>crop</effectid>
												<effectcategory>motion</effectcategory>
												<effecttype>motion</effecttype>
												<mediatype>video</mediatype>
												<parameter>
													<parameterid>left</parameterid>
													<name>left</name>
													<valuemin>0</valuemin>
													<valuemax>100</valuemax>
													<value>0</value>
												</parameter>
												<parameter>
													<parameterid>right</parameterid>
													<name>right</name>
													<valuemin>0</valuemin>
													<valuemax>100</valuemax>
													<value>0</value>
												</parameter>
												<parameter>
													<parameterid>top</parameterid>
													<name>top</name>
													<valuemin>0</valuemin>
													<valuemax>100</valuemax>
													<value>0</value>
												</parameter>
												<parameter>
													<parameterid>bottom</parameterid>
													<name>bottom</name>
													<valuemin>0</valuemin>
													<valuemax>100</valuemax>
													<value>0</value>
												</parameter>
												<parameter>
													<parameterid>edgefeather</parameterid>
													<name>edgefeather</name>
													<valuemin>0</valuemin>
													<valuemax>100</valuemax>
													<value>0</value>
												</parameter>
											</effect>
										</filter>
										<filter>
											<effect>
												<name>Distort</name>
												<effectid>deformation</effectid>
												<effectcategory>motion</effectcategory>
												<effecttype>motion</effecttype>
												<mediatype>video</mediatype>
												<parameter>
													<parameterid>ulcorner</parameterid>
													<name>Upper Left</name>
													<value>
														<horiz>-0.5</horiz>
														<vert>-0.5</vert>
													</value>
												</parameter>
												<parameter>
													<parameterid>urcorner</parameterid>
													<name>Upper Right</name>
													<value>
														<horiz>0.5</horiz>
														<vert>-0.5</vert>
													</value>
												</parameter>
												<parameter>
													<parameterid>lrcorner</parameterid>
													<name>Lower Right</name>
													<value>
														<horiz>0.5</horiz>
														<vert>0.5</vert>
													</value>
												</parameter>
												<parameter>
													<parameterid>llcorner</parameterid>
													<name>Lower Left</name>
													<value>
														<horiz>-0.5</horiz>
														<vert>0.5</vert>
													</value>
												</parameter>
												<parameter>
													<parameterid>aspect</parameterid>
													<name>Aspect</name>
													<valuemin>-10000</valuemin>
													<valuemax>10000</valuemax>
													<value>0</value>
												</parameter>
											</effect>
										</filter>
										<filter>
											<effect>
												<name>Opacity</name>
												<effectid>opacity</effectid>
												<effectcategory>motion</effectcategory>
												<effecttype>motion</effecttype>
												<mediatype>video</mediatype>
												<parameter>
													<parameterid>opacity</parameterid>
													<name>opacity</name>
													<valuemin>0</valuemin>
													<valuemax>100</valuemax>
													<value>100</value>
												</parameter>
											</effect>
										</filter>
										<sourcetrack>
											<mediatype>video</mediatype>
										</sourcetrack>
										<itemhistory>
											<uuid>66200BB8-BEC6-4034-AF31-DB69CA313C7B</uuid>
										</itemhistory>
									</generatoritem>
									<enabled>TRUE</enabled>
									<locked>FALSE</locked>
								</track>
							</video>
							<audio>
								<format>
									<samplecharacteristics>
										<depth>24</depth>
										<samplerate>48000</samplerate>
									</samplecharacteristics>
								</format>
								<outputs>
									<group>
										<index>1</index>
										<numchannels>2</numchannels>
										<downmix>0</downmix>
										<channel>
											<index>1</index>
										</channel>
										<channel>
											<index>2</index>
										</channel>
									</group>
								</outputs>
								<in>-1</in>
								<out>-1</out>
								<filter>
									<effect>
										<name>Audio Levels</name>
										<effectid>audiolevels</effectid>
										<effectcategory>audiolevels</effectcategory>
										<effecttype>audiolevels</effecttype>
										<mediatype>audio</mediatype>
										<parameter>
											<name>Level</name>
											<parameterid>level</parameterid>
											<valuemin>0</valuemin>
											<valuemax>3.98109</valuemax>
											<value>1</value>
										</parameter>
									</effect>
								</filter>
							</audio>
						</media>
					</sequence>
					<sourcetrack>
						<mediatype>video</mediatype>
					</sourcetrack>
					<ismasterclip>FALSE</ismasterclip>
					<itemhistory>
						<uuid>B9A569C9-47ED-4E0A-9C6F-F506B0CC8D01</uuid>
					</itemhistory>
				</clipitem>
				<enabled>TRUE</enabled>
				<locked>FALSE</locked>
			</track>
			<track>
				<clipitem id="00693001.MOV4">
					<name>00693001.MOV</name>
					<duration>936</duration>
					<rate>
						<ntsc>FALSE</ntsc>
						<timebase>25</timebase>
					</rate>
					<in>125</in>
					<out>391</out>
					<start>846</start>
					<end>1112</end>
					<pixelaspectratio>Square</pixelaspectratio>
					<enabled>TRUE</enabled>
					<anamorphic>FALSE</anamorphic>
					<alphatype>none</alphatype>
					<masterclipid>00693001.MOV1</masterclipid>
					<logginginfo>
						<scene/>
						<shottake/>
						<lognote/>
						<good>FALSE</good>
					</logginginfo>
					<labels>
						<label2/>
					</labels>
					<comments>
						<mastercomment1/>
						<mastercomment2/>
						<mastercomment3/>
						<mastercomment4/>
					</comments>
					<file id="00693001 "/>
					<sourcetrack>
						<mediatype>video</mediatype>
					</sourcetrack>
					<link>
						<linkclipref>00693001.MOV4</linkclipref>
						<mediatype>video</mediatype>
						<trackindex>2</trackindex>
						<clipindex>1</clipindex>
					</link>
					<link>
						<linkclipref>00693001.MOV5</linkclipref>
						<mediatype>audio</mediatype>
						<trackindex>1</trackindex>
						<clipindex>4</clipindex>
					</link>
					<link>
						<linkclipref>00693001.MOV6</linkclipref>
						<mediatype>audio</mediatype>
						<trackindex>2</trackindex>
						<clipindex>4</clipindex>
					</link>
					<fielddominance>upper</fielddominance>
					<itemhistory>
						<uuid>8C0DC83E-93FC-4184-B3AD-C38F6E286A83</uuid>
					</itemhistory>
				</clipitem>
				<clipitem id="00708001.MOV5">
					<name>00708001.MOV</name>
					<duration>648</duration>
					<rate>
						<ntsc>FALSE</ntsc>
						<timebase>25</timebase>
					</rate>
					<in>17</in>
					<out>72</out>
					<start>1163</start>
					<end>1218</end>
					<pixelaspectratio>Square</pixelaspectratio>
					<enabled>TRUE</enabled>
					<anamorphic>FALSE</anamorphic>
					<alphatype>none</alphatype>
					<masterclipid>00708001.MOV1</masterclipid>
					<logginginfo>
						<scene/>
						<shottake/>
						<lognote/>
						<good>FALSE</good>
					</logginginfo>
					<labels>
						<label2/>
					</labels>
					<comments>
						<mastercomment1/>
						<mastercomment2/>
						<mastercomment3/>
						<mastercomment4/>
					</comments>
					<file id="00708001 "/>
					<filter>
						<effect>
							<name>Basic Motion</name>
							<effectid>basic</effectid>
							<effectcategory>motion</effectcategory>
							<effecttype>motion</effecttype>
							<mediatype>video</mediatype>
							<parameter>
								<parameterid>scale</parameterid>
								<name>Scale</name>
								<valuemin>0</valuemin>
								<valuemax>1000</valuemax>
								<value>125</value>
							</parameter>
							<parameter>
								<parameterid>rotation</parameterid>
								<name>Rotation</name>
								<valuemin>-8640</valuemin>
								<valuemax>8640</valuemax>
								<value>0</value>
							</parameter>
							<parameter>
								<parameterid>center</parameterid>
								<name>Center</name>
								<value>
									<horiz>0.0671551</horiz>
									<vert>0.0607375</vert>
								</value>
							</parameter>
							<parameter>
								<parameterid>centerOffset</parameterid>
								<name>Anchor Point</name>
								<value>
									<horiz>0</horiz>
									<vert>0</vert>
								</value>
							</parameter>
						</effect>
					</filter>
					<filter>
						<enabled>FALSE</enabled>
						<effect>
							<name>Drop Shadow</name>
							<effectid>dropshadow</effectid>
							<effectcategory>motion</effectcategory>
							<effecttype>motion</effecttype>
							<mediatype>video</mediatype>
							<parameter>
								<parameterid>offset</parameterid>
								<name>offset</name>
								<valuemin>-100</valuemin>
								<valuemax>100</valuemax>
								<value>2</value>
							</parameter>
							<parameter>
								<parameterid>angle</parameterid>
								<name>angle</name>
								<valuemin>-720</valuemin>
								<valuemax>720</valuemax>
								<value>135</value>
							</parameter>
							<parameter>
								<parameterid>color</parameterid>
								<name>color</name>
								<value>
									<alpha>0</alpha>
									<red>0</red>
									<green>0</green>
									<blue>0</blue>
								</value>
							</parameter>
							<parameter>
								<parameterid>softness</parameterid>
								<name>softness</name>
								<valuemin>0</valuemin>
								<valuemax>100</valuemax>
								<value>10</value>
							</parameter>
							<parameter>
								<parameterid>opacity</parameterid>
								<name>opacity</name>
								<valuemin>0</valuemin>
								<valuemax>100</valuemax>
								<value>50</value>
							</parameter>
						</effect>
					</filter>
					<filter>
						<enabled>FALSE</enabled>
						<effect>
							<name>Motion Blur</name>
							<effectid>motionblur</effectid>
							<effectcategory>motion</effectcategory>
							<effecttype>motion</effecttype>
							<mediatype>video</mediatype>
							<parameter>
								<parameterid>duration</parameterid>
								<name>% Blur</name>
								<valuemin>0</valuemin>
								<valuemax>1000</valuemax>
								<value>500</value>
							</parameter>
							<parameter>
								<parameterid>samples</parameterid>
								<name>Samples</name>
								<valuemin>1</valuemin>
								<valuemax>16</valuemax>
								<value>4</value>
							</parameter>
						</effect>
					</filter>
					<filter>
						<effect>
							<name>Crop</name>
							<effectid>crop</effectid>
							<effectcategory>motion</effectcategory>
							<effecttype>motion</effecttype>
							<mediatype>video</mediatype>
							<parameter>
								<parameterid>left</parameterid>
								<name>left</name>
								<valuemin>0</valuemin>
								<valuemax>100</valuemax>
								<value>0</value>
							</parameter>
							<parameter>
								<parameterid>right</parameterid>
								<name>right</name>
								<valuemin>0</valuemin>
								<valuemax>100</valuemax>
								<value>0</value>
							</parameter>
							<parameter>
								<parameterid>top</parameterid>
								<name>top</name>
								<valuemin>0</valuemin>
								<valuemax>100</valuemax>
								<value>0</value>
							</parameter>
							<parameter>
								<parameterid>bottom</parameterid>
								<name>bottom</name>
								<valuemin>0</valuemin>
								<valuemax>100</valuemax>
								<value>0</value>
							</parameter>
							<parameter>
								<parameterid>edgefeather</parameterid>
								<name>edgefeather</name>
								<valuemin>0</valuemin>
								<valuemax>100</valuemax>
								<value>0</value>
							</parameter>
						</effect>
					</filter>
					<filter>
						<effect>
							<name>Distort</name>
							<effectid>deformation</effectid>
							<effectcategory>motion</effectcategory>
							<effecttype>motion</effecttype>
							<mediatype>video</mediatype>
							<parameter>
								<parameterid>ulcorner</parameterid>
								<name>Upper Left</name>
								<value>
									<horiz>-0.5</horiz>
									<vert>-0.5</vert>
								</value>
							</parameter>
							<parameter>
								<parameterid>urcorner</parameterid>
								<name>Upper Right</name>
								<value>
									<horiz>0.5</horiz>
									<vert>-0.5</vert>
								</value>
							</parameter>
							<parameter>
								<parameterid>lrcorner</parameterid>
								<name>Lower Right</name>
								<value>
									<horiz>0.5</horiz>
									<vert>0.5</vert>
								</value>
							</parameter>
							<parameter>
								<parameterid>llcorner</parameterid>
								<name>Lower Left</name>
								<value>
									<horiz>-0.5</horiz>
									<vert>0.5</vert>
								</value>
							</parameter>
							<parameter>
								<parameterid>aspect</parameterid>
								<name>Aspect</name>
								<valuemin>-10000</valuemin>
								<valuemax>10000</valuemax>
								<value>0</value>
							</parameter>
						</effect>
					</filter>
					<filter>
						<effect>
							<name>Opacity</name>
							<effectid>opacity</effectid>
							<effectcategory>motion</effectcategory>
							<effecttype>motion</effecttype>
							<mediatype>video</mediatype>
							<parameter>
								<parameterid>opacity</parameterid>
								<name>opacity</name>
								<valuemin>0</valuemin>
								<valuemax>100</valuemax>
								<value>100</value>
							</parameter>
						</effect>
					</filter>
					<sourcetrack>
						<mediatype>video</mediatype>
					</sourcetrack>
					<fielddominance>upper</fielddominance>
					<itemhistory>
						<uuid>58EAF311-9B33-4483-9520-442984351563</uuid>
					</itemhistory>
				</clipitem>
				<clipitem id="00708001.MOV6">
					<name>00708001.MOV</name>
					<duration>648</duration>
					<rate>
						<ntsc>FALSE</ntsc>
						<timebase>25</timebase>
					</rate>
					<in>16</in>
					<out>38</out>
					<start>1505</start>
					<end>-1</end>
					<pixelaspectratio>Square</pixelaspectratio>
					<enabled>TRUE</enabled>
					<anamorphic>FALSE</anamorphic>
					<alphatype>none</alphatype>
					<compositemode>normal</compositemode>
					<masterclipid>00708001.MOV1</masterclipid>
					<logginginfo>
						<scene/>
						<shottake/>
						<lognote/>
						<good>FALSE</good>
					</logginginfo>
					<labels>
						<label2/>
					</labels>
					<comments>
						<mastercomment1/>
						<mastercomment2/>
						<mastercomment3/>
						<mastercomment4/>
					</comments>
					<file id="00708001 "/>
					<filter>
						<enabled>TRUE</enabled>
						<start>-1</start>
						<end>-1</end>
						<effect>
							<name>Eight-Point Garbage Matte</name>
							<effectid>Eight-Point Garbage Matte</effectid>
							<effectcategory>Matte</effectcategory>
							<effecttype>filter</effecttype>
							<mediatype>video</mediatype>
							<parameter>
								<parameterid>viewmode</parameterid>
								<name>View Mode</name>
								<valuemin>1</valuemin>
								<valuemax>3</valuemax>
								<valuelist>
									<valueentry>
										<name>Final</name>
										<value>1</value>
									</valueentry>
									<valueentry>
										<name>Preview</name>
										<value>2</value>
									</valueentry>
									<valueentry>
										<name>Wireframe</name>
										<value>3</value>
									</valueentry>
								</valuelist>
								<value>2</value>
							</parameter>
							<parameter>
								<parameterid>junk1</parameterid>
								<name>Corners</name>
								<value>Corners</value>
							</parameter>
							<parameter>
								<parameterid>p0</parameterid>
								<name>Point 1</name>
								<value>
									<horiz>-0.390968</horiz>
									<vert>0.0848624</vert>
								</value>
							</parameter>
							<parameter>
								<parameterid>p1</parameterid>
								<name>Point 2</name>
								<value>
									<horiz>-0.329032</horiz>
									<vert>-0.0183486</vert>
								</value>
							</parameter>
							<parameter>
								<parameterid>p2</parameterid>
								<name>Point 3</name>
								<value>
									<horiz>-0.236129</horiz>
									<vert>-0.0802752</vert>
								</value>
							</parameter>
							<parameter>
								<parameterid>p3</parameterid>
								<name>Point 4</name>
								<value>
									<horiz>0.329032</horiz>
									<vert>-0.0688073</vert>
								</value>
							</parameter>
							<parameter>
								<parameterid>spacer1</parameterid>
								<name> </name>
								<value> </value>
							</parameter>
							<parameter>
								<parameterid>p4</parameterid>
								<name>Point 5</name>
								<value>
									<horiz>0.443871</horiz>
									<vert>0.0573394</vert>
								</value>
							</parameter>
							<parameter>
								<parameterid>p5</parameterid>
								<name>Point 6</name>
								<value>
									<horiz>0.451613</horiz>
									<vert>0.493119</vert>
								</value>
							</parameter>
							<parameter>
								<parameterid>p6</parameterid>
								<name>Point 7</name>
								<value>
									<horiz>-0.236129</horiz>
									<vert>0.493119</vert>
								</value>
							</parameter>
							<parameter>
								<parameterid>p7</parameterid>
								<name>Point 8</name>
								<value>
									<horiz>-0.381935</horiz>
									<vert>0.275229</vert>
								</value>
							</parameter>
							<parameter>
								<parameterid>junk2</parameterid>
								<name>Edges</name>
								<value>Edges</value>
							</parameter>
							<parameter>
								<parameterid>smooth</parameterid>
								<name>Smooth</name>
								<valuemin>0</valuemin>
								<valuemax>100</valuemax>
								<value>19</value>
							</parameter>
							<parameter>
								<parameterid>choke</parameterid>
								<name>Choke</name>
								<valuemin>-100</valuemin>
								<valuemax>100</valuemax>
								<value>82</value>
							</parameter>
							<parameter>
								<parameterid>soft</parameterid>
								<name>Feather</name>
								<valuemin>0</valuemin>
								<valuemax>100</valuemax>
								<value>36</value>
							</parameter>
							<parameter>
								<parameterid>junk3</parameterid>
								<name>Options</name>
								<value>Options</value>
							</parameter>
							<parameter>
								<parameterid>invertalpha</parameterid>
								<name>Invert</name>
								<value>TRUE</value>
							</parameter>
							<parameter>
								<parameterid>hidelabels</parameterid>
								<name>Hide Labels</name>
								<value>TRUE</value>
							</parameter>
						</effect>
					</filter>
					<filter>
						<enabled>TRUE</enabled>
						<start>-1</start>
						<end>-1</end>
						<effect>
							<name>Brightness and Contrast</name>
							<effectid>Brightness and Contrast</effectid>
							<effecttype>filter</effecttype>
							<mediatype>video</mediatype>
							<appspecificdata>
								<appname>Final Cut Pro</appname>
								<appmanufacturer>Apple Inc.</appmanufacturer>
								<appversion>7.0</appversion>
								<data>
									<qteffectid>
										<whateffect>brco</whateffect>
									</qteffectid>
								</data>
							</appspecificdata>
							<parameter>
								<parameterid>variable-0</parameterid>
								<name>Brightness</name>
								<valuemin>-100</valuemin>
								<valuemax>100</valuemax>
								<value>23</value>
							</parameter>
							<parameter>
								<parameterid>variable-1</parameterid>
								<name>Contrast</name>
								<valuemin>-100</valuemin>
								<valuemax>100</valuemax>
								<value>38</value>
							</parameter>
						</effect>
					</filter>
					<filter>
						<effect>
							<name>Basic Motion</name>
							<effectid>basic</effectid>
							<effectcategory>motion</effectcategory>
							<effecttype>motion</effecttype>
							<mediatype>video</mediatype>
							<parameter>
								<parameterid>scale</parameterid>
								<name>Scale</name>
								<valuemin>0</valuemin>
								<valuemax>1000</valuemax>
								<value>100</value>
							</parameter>
							<parameter>
								<parameterid>rotation</parameterid>
								<name>Rotation</name>
								<valuemin>-8640</valuemin>
								<valuemax>8640</valuemax>
								<value>0</value>
							</parameter>
							<parameter>
								<parameterid>center</parameterid>
								<name>Center</name>
								<value>
									<horiz>0</horiz>
									<vert>0</vert>
								</value>
							</parameter>
							<parameter>
								<parameterid>centerOffset</parameterid>
								<name>Anchor Point</name>
								<value>
									<horiz>0</horiz>
									<vert>0</vert>
								</value>
							</parameter>
						</effect>
					</filter>
					<filter>
						<enabled>FALSE</enabled>
						<effect>
							<name>Drop Shadow</name>
							<effectid>dropshadow</effectid>
							<effectcategory>motion</effectcategory>
							<effecttype>motion</effecttype>
							<mediatype>video</mediatype>
							<parameter>
								<parameterid>offset</parameterid>
								<name>offset</name>
								<valuemin>-100</valuemin>
								<valuemax>100</valuemax>
								<value>2</value>
							</parameter>
							<parameter>
								<parameterid>angle</parameterid>
								<name>angle</name>
								<valuemin>-720</valuemin>
								<valuemax>720</valuemax>
								<value>135</value>
							</parameter>
							<parameter>
								<parameterid>color</parameterid>
								<name>color</name>
								<value>
									<alpha>0</alpha>
									<red>0</red>
									<green>0</green>
									<blue>0</blue>
								</value>
							</parameter>
							<parameter>
								<parameterid>softness</parameterid>
								<name>softness</name>
								<valuemin>0</valuemin>
								<valuemax>100</valuemax>
								<value>10</value>
							</parameter>
							<parameter>
								<parameterid>opacity</parameterid>
								<name>opacity</name>
								<valuemin>0</valuemin>
								<valuemax>100</valuemax>
								<value>50</value>
							</parameter>
						</effect>
					</filter>
					<filter>
						<enabled>FALSE</enabled>
						<effect>
							<name>Motion Blur</name>
							<effectid>motionblur</effectid>
							<effectcategory>motion</effectcategory>
							<effecttype>motion</effecttype>
							<mediatype>video</mediatype>
							<parameter>
								<parameterid>duration</parameterid>
								<name>% Blur</name>
								<valuemin>0</valuemin>
								<valuemax>1000</valuemax>
								<value>500</value>
							</parameter>
							<parameter>
								<parameterid>samples</parameterid>
								<name>Samples</name>
								<valuemin>1</valuemin>
								<valuemax>16</valuemax>
								<value>4</value>
							</parameter>
						</effect>
					</filter>
					<filter>
						<effect>
							<name>Crop</name>
							<effectid>crop</effectid>
							<effectcategory>motion</effectcategory>
							<effecttype>motion</effecttype>
							<mediatype>video</mediatype>
							<parameter>
								<parameterid>left</parameterid>
								<name>left</name>
								<valuemin>0</valuemin>
								<valuemax>100</valuemax>
								<value>0</value>
							</parameter>
							<parameter>
								<parameterid>right</parameterid>
								<name>right</name>
								<valuemin>0</valuemin>
								<valuemax>100</valuemax>
								<value>0</value>
							</parameter>
							<parameter>
								<parameterid>top</parameterid>
								<name>top</name>
								<valuemin>0</valuemin>
								<valuemax>100</valuemax>
								<value>0</value>
							</parameter>
							<parameter>
								<parameterid>bottom</parameterid>
								<name>bottom</name>
								<valuemin>0</valuemin>
								<valuemax>100</valuemax>
								<value>0</value>
							</parameter>
							<parameter>
								<parameterid>edgefeather</parameterid>
								<name>edgefeather</name>
								<valuemin>0</valuemin>
								<valuemax>100</valuemax>
								<value>0</value>
							</parameter>
						</effect>
					</filter>
					<filter>
						<effect>
							<name>Distort</name>
							<effectid>deformation</effectid>
							<effectcategory>motion</effectcategory>
							<effecttype>motion</effecttype>
							<mediatype>video</mediatype>
							<parameter>
								<parameterid>ulcorner</parameterid>
								<name>Upper Left</name>
								<value>
									<horiz>-0.5</horiz>
									<vert>-0.5</vert>
								</value>
							</parameter>
							<parameter>
								<parameterid>urcorner</parameterid>
								<name>Upper Right</name>
								<value>
									<horiz>0.5</horiz>
									<vert>-0.5</vert>
								</value>
							</parameter>
							<parameter>
								<parameterid>lrcorner</parameterid>
								<name>Lower Right</name>
								<value>
									<horiz>0.5</horiz>
									<vert>0.5</vert>
								</value>
							</parameter>
							<parameter>
								<parameterid>llcorner</parameterid>
								<name>Lower Left</name>
								<value>
									<horiz>-0.5</horiz>
									<vert>0.5</vert>
								</value>
							</parameter>
							<parameter>
								<parameterid>aspect</parameterid>
								<name>Aspect</name>
								<valuemin>-10000</valuemin>
								<valuemax>10000</valuemax>
								<value>0</value>
							</parameter>
						</effect>
					</filter>
					<filter>
						<effect>
							<name>Opacity</name>
							<effectid>opacity</effectid>
							<effectcategory>motion</effectcategory>
							<effecttype>motion</effecttype>
							<mediatype>video</mediatype>
							<parameter>
								<parameterid>opacity</parameterid>
								<name>opacity</name>
								<valuemin>0</valuemin>
								<valuemax>100</valuemax>
								<keyframe>
									<when>16</when>
									<value>0</value>
								</keyframe>
								<keyframe>
									<when>29</when>
									<value>75</value>
								</keyframe>
								<interpolation>
									<name>FCPCurve</name>
								</interpolation>
								<value>23.0769</value>
							</parameter>
						</effect>
					</filter>
					<sourcetrack>
						<mediatype>video</mediatype>
					</sourcetrack>
					<fielddominance>upper</fielddominance>
					<itemhistory>
						<uuid>ECC8C7F8-1AA6-4D33-BE87-BAF215BD2D89</uuid>
					</itemhistory>
				</clipitem>
				<transitionitem>
					<rate>
						<ntsc>FALSE</ntsc>
						<timebase>25</timebase>
					</rate>
					<start>1510</start>
					<end>1527</end>
					<alignment>center</alignment>
					<effect>
						<name>G Glow Dissolve</name>
						<effectcategory>Nattress Big Box Of Tricks</effectcategory>
						<effecttype>transition</effecttype>
						<mediatype>video</mediatype>
						<wipecode>0</wipecode>
						<wipeaccuracy>100</wipeaccuracy>
						<startratio>0</startratio>
						<endratio>1</endratio>
						<reverse>FALSE</reverse>
						<parameter>
							<parameterid>glowamount</parameterid>
							<name>Glow Amount</name>
							<valuemin>0</valuemin>
							<valuemax>100</valuemax>
							<value>33</value>
						</parameter>
						<parameter>
							<parameterid>glowthreshold</parameterid>
							<name>Glow Threshold Limit</name>
							<valuemin>0</valuemin>
							<valuemax>100</valuemax>
							<value>12</value>
						</parameter>
						<parameter>
							<parameterid>glowsize</parameterid>
							<name>Glow Size</name>
							<valuemin>0</valuemin>
							<valuemax>100</valuemax>
							<value>2</value>
						</parameter>
						<parameter>
							<parameterid>ablur</parameterid>
							<name>Blur</name>
							<valuemin>0</valuemin>
							<valuemax>100</valuemax>
							<value>4</value>
						</parameter>
						<parameter>
							<parameterid>asaturation</parameterid>
							<name>Saturation</name>
							<valuemin>-1</valuemin>
							<valuemax>4</valuemax>
							<value>0</value>
						</parameter>
						<parameter>
							<parameterid>dissolvep</parameterid>
							<name>Dissolve Percentage</name>
							<valuemin>5</valuemin>
							<valuemax>100</valuemax>
							<value>50</value>
						</parameter>
						<parameter>
							<parameterid>copyright</parameterid>
							<name>© www.nattress.com</name>
							<value>string</value>
						</parameter>
					</effect>
				</transitionitem>
				<clipitem id="00708001.MOV7">
					<name>00708001.MOV</name>
					<duration>648</duration>
					<rate>
						<ntsc>FALSE</ntsc>
						<timebase>25</timebase>
					</rate>
					<in>21</in>
					<out>55</out>
					<start>-1</start>
					<end>-1</end>
					<pixelaspectratio>Square</pixelaspectratio>
					<enabled>TRUE</enabled>
					<anamorphic>FALSE</anamorphic>
					<alphatype>none</alphatype>
					<compositemode>normal</compositemode>
					<masterclipid>00708001.MOV1</masterclipid>
					<logginginfo>
						<scene/>
						<shottake/>
						<lognote/>
						<good>FALSE</good>
					</logginginfo>
					<labels>
						<label2/>
					</labels>
					<comments>
						<mastercomment1/>
						<mastercomment2/>
						<mastercomment3/>
						<mastercomment4/>
					</comments>
					<file id="00708001 "/>
					<filter>
						<enabled>TRUE</enabled>
						<start>-1</start>
						<end>-1</end>
						<effect>
							<name>Eight-Point Garbage Matte</name>
							<effectid>Eight-Point Garbage Matte</effectid>
							<effectcategory>Matte</effectcategory>
							<effecttype>filter</effecttype>
							<mediatype>video</mediatype>
							<parameter>
								<parameterid>viewmode</parameterid>
								<name>View Mode</name>
								<valuemin>1</valuemin>
								<valuemax>3</valuemax>
								<valuelist>
									<valueentry>
										<name>Final</name>
										<value>1</value>
									</valueentry>
									<valueentry>
										<name>Preview</name>
										<value>2</value>
									</valueentry>
									<valueentry>
										<name>Wireframe</name>
										<value>3</value>
									</valueentry>
								</valuelist>
								<value>2</value>
							</parameter>
							<parameter>
								<parameterid>junk1</parameterid>
								<name>Corners</name>
								<value>Corners</value>
							</parameter>
							<parameter>
								<parameterid>p0</parameterid>
								<name>Point 1</name>
								<value>
									<horiz>-0.390968</horiz>
									<vert>0.0848624</vert>
								</value>
							</parameter>
							<parameter>
								<parameterid>p1</parameterid>
								<name>Point 2</name>
								<value>
									<horiz>-0.329032</horiz>
									<vert>-0.0183486</vert>
								</value>
							</parameter>
							<parameter>
								<parameterid>p2</parameterid>
								<name>Point 3</name>
								<value>
									<horiz>-0.236129</horiz>
									<vert>-0.0802752</vert>
								</value>
							</parameter>
							<parameter>
								<parameterid>p3</parameterid>
								<name>Point 4</name>
								<value>
									<horiz>0.329032</horiz>
									<vert>-0.0688073</vert>
								</value>
							</parameter>
							<parameter>
								<parameterid>spacer1</parameterid>
								<name> </name>
								<value> </value>
							</parameter>
							<parameter>
								<parameterid>p4</parameterid>
								<name>Point 5</name>
								<value>
									<horiz>0.443871</horiz>
									<vert>0.0573394</vert>
								</value>
							</parameter>
							<parameter>
								<parameterid>p5</parameterid>
								<name>Point 6</name>
								<value>
									<horiz>0.451613</horiz>
									<vert>0.493119</vert>
								</value>
							</parameter>
							<parameter>
								<parameterid>p6</parameterid>
								<name>Point 7</name>
								<value>
									<horiz>-0.236129</horiz>
									<vert>0.493119</vert>
								</value>
							</parameter>
							<parameter>
								<parameterid>p7</parameterid>
								<name>Point 8</name>
								<value>
									<horiz>-0.381935</horiz>
									<vert>0.275229</vert>
								</value>
							</parameter>
							<parameter>
								<parameterid>junk2</parameterid>
								<name>Edges</name>
								<value>Edges</value>
							</parameter>
							<parameter>
								<parameterid>smooth</parameterid>
								<name>Smooth</name>
								<valuemin>0</valuemin>
								<valuemax>100</valuemax>
								<value>19</value>
							</parameter>
							<parameter>
								<parameterid>choke</parameterid>
								<name>Choke</name>
								<valuemin>-100</valuemin>
								<valuemax>100</valuemax>
								<value>82</value>
							</parameter>
							<parameter>
								<parameterid>soft</parameterid>
								<name>Feather</name>
								<valuemin>0</valuemin>
								<valuemax>100</valuemax>
								<value>36</value>
							</parameter>
							<parameter>
								<parameterid>junk3</parameterid>
								<name>Options</name>
								<value>Options</value>
							</parameter>
							<parameter>
								<parameterid>invertalpha</parameterid>
								<name>Invert</name>
								<value>TRUE</value>
							</parameter>
							<parameter>
								<parameterid>hidelabels</parameterid>
								<name>Hide Labels</name>
								<value>TRUE</value>
							</parameter>
						</effect>
					</filter>
					<filter>
						<enabled>TRUE</enabled>
						<start>-1</start>
						<end>-1</end>
						<effect>
							<name>Brightness and Contrast</name>
							<effectid>Brightness and Contrast</effectid>
							<effecttype>filter</effecttype>
							<mediatype>video</mediatype>
							<appspecificdata>
								<appname>Final Cut Pro</appname>
								<appmanufacturer>Apple Inc.</appmanufacturer>
								<appversion>7.0</appversion>
								<data>
									<qteffectid>
										<whateffect>brco</whateffect>
									</qteffectid>
								</data>
							</appspecificdata>
							<parameter>
								<parameterid>variable-0</parameterid>
								<name>Brightness</name>
								<valuemin>-100</valuemin>
								<valuemax>100</valuemax>
								<value>23</value>
							</parameter>
							<parameter>
								<parameterid>variable-1</parameterid>
								<name>Contrast</name>
								<valuemin>-100</valuemin>
								<valuemax>100</valuemax>
								<value>38</value>
							</parameter>
						</effect>
					</filter>
					<filter>
						<effect>
							<name>Opacity</name>
							<effectid>opacity</effectid>
							<effectcategory>motion</effectcategory>
							<effecttype>motion</effecttype>
							<mediatype>video</mediatype>
							<parameter>
								<parameterid>opacity</parameterid>
								<name>opacity</name>
								<valuemin>0</valuemin>
								<valuemax>100</valuemax>
								<value>50</value>
							</parameter>
						</effect>
					</filter>
					<sourcetrack>
						<mediatype>video</mediatype>
					</sourcetrack>
					<fielddominance>upper</fielddominance>
					<itemhistory>
						<uuid>C6B97674-B4DC-4A1D-B040-B66A1DFC20F0</uuid>
					</itemhistory>
				</clipitem>
				<transitionitem>
					<rate>
						<ntsc>FALSE</ntsc>
						<timebase>25</timebase>
					</rate>
					<start>1527</start>
					<end>1544</end>
					<alignment>center</alignment>
					<effect>
						<name>G Sharp Dissolve</name>
						<effectcategory>Nattress Big Box Of Tricks</effectcategory>
						<effecttype>transition</effecttype>
						<mediatype>video</mediatype>
						<wipecode>0</wipecode>
						<wipeaccuracy>100</wipeaccuracy>
						<startratio>0</startratio>
						<endratio>1</endratio>
						<reverse>FALSE</reverse>
						<parameter>
							<parameterid>easein</parameterid>
							<name>Ease In</name>
							<valuemin>-1</valuemin>
							<valuemax>0</valuemax>
							<value>0</value>
						</parameter>
						<parameter>
							<parameterid>easeout</parameterid>
							<name>Ease Out</name>
							<valuemin>0</valuemin>
							<valuemax>1</valuemax>
							<value>0</value>
						</parameter>
						<parameter>
							<parameterid>aradius</parameterid>
							<name>A Radius</name>
							<valuemin>0</valuemin>
							<valuemax>200</valuemax>
							<value>50</value>
						</parameter>
						<parameter>
							<parameterid>bradius</parameterid>
							<name>B Radius</name>
							<valuemin>0</valuemin>
							<valuemax>200</valuemax>
							<value>50</value>
						</parameter>
						<parameter>
							<parameterid>amount</parameterid>
							<name>Amount</name>
							<valuemin>0</valuemin>
							<valuemax>2000</valuemax>
							<value>500</value>
						</parameter>
						<parameter>
							<parameterid>copyright</parameterid>
							<name>© www.nattress.com</name>
							<value>string</value>
						</parameter>
					</effect>
				</transitionitem>
				<clipitem id="00708001.MOV8">
					<name>00708001.MOV</name>
					<duration>648</duration>
					<rate>
						<ntsc>FALSE</ntsc>
						<timebase>25</timebase>
					</rate>
					<in>38</in>
					<out>74</out>
					<start>-1</start>
					<end>-1</end>
					<pixelaspectratio>Square</pixelaspectratio>
					<enabled>TRUE</enabled>
					<anamorphic>FALSE</anamorphic>
					<alphatype>none</alphatype>
					<compositemode>normal</compositemode>
					<masterclipid>00708001.MOV1</masterclipid>
					<logginginfo>
						<scene/>
						<shottake/>
						<lognote/>
						<good>FALSE</good>
					</logginginfo>
					<labels>
						<label2/>
					</labels>
					<comments>
						<mastercomment1/>
						<mastercomment2/>
						<mastercomment3/>
						<mastercomment4/>
					</comments>
					<file id="00708001 "/>
					<filter>
						<enabled>TRUE</enabled>
						<start>-1</start>
						<end>-1</end>
						<effect>
							<name>Eight-Point Garbage Matte</name>
							<effectid>Eight-Point Garbage Matte</effectid>
							<effectcategory>Matte</effectcategory>
							<effecttype>filter</effecttype>
							<mediatype>video</mediatype>
							<parameter>
								<parameterid>viewmode</parameterid>
								<name>View Mode</name>
								<valuemin>1</valuemin>
								<valuemax>3</valuemax>
								<valuelist>
									<valueentry>
										<name>Final</name>
										<value>1</value>
									</valueentry>
									<valueentry>
										<name>Preview</name>
										<value>2</value>
									</valueentry>
									<valueentry>
										<name>Wireframe</name>
										<value>3</value>
									</valueentry>
								</valuelist>
								<value>2</value>
							</parameter>
							<parameter>
								<parameterid>junk1</parameterid>
								<name>Corners</name>
								<value>Corners</value>
							</parameter>
							<parameter>
								<parameterid>p0</parameterid>
								<name>Point 1</name>
								<value>
									<horiz>-0.390968</horiz>
									<vert>0.0848624</vert>
								</value>
							</parameter>
							<parameter>
								<parameterid>p1</parameterid>
								<name>Point 2</name>
								<value>
									<horiz>-0.329032</horiz>
									<vert>-0.0183486</vert>
								</value>
							</parameter>
							<parameter>
								<parameterid>p2</parameterid>
								<name>Point 3</name>
								<value>
									<horiz>-0.236129</horiz>
									<vert>-0.0802752</vert>
								</value>
							</parameter>
							<parameter>
								<parameterid>p3</parameterid>
								<name>Point 4</name>
								<value>
									<horiz>0.329032</horiz>
									<vert>-0.0688073</vert>
								</value>
							</parameter>
							<parameter>
								<parameterid>spacer1</parameterid>
								<name> </name>
								<value> </value>
							</parameter>
							<parameter>
								<parameterid>p4</parameterid>
								<name>Point 5</name>
								<value>
									<horiz>0.443871</horiz>
									<vert>0.0573394</vert>
								</value>
							</parameter>
							<parameter>
								<parameterid>p5</parameterid>
								<name>Point 6</name>
								<value>
									<horiz>0.451613</horiz>
									<vert>0.493119</vert>
								</value>
							</parameter>
							<parameter>
								<parameterid>p6</parameterid>
								<name>Point 7</name>
								<value>
									<horiz>-0.236129</horiz>
									<vert>0.493119</vert>
								</value>
							</parameter>
							<parameter>
								<parameterid>p7</parameterid>
								<name>Point 8</name>
								<value>
									<horiz>-0.381935</horiz>
									<vert>0.275229</vert>
								</value>
							</parameter>
							<parameter>
								<parameterid>junk2</parameterid>
								<name>Edges</name>
								<value>Edges</value>
							</parameter>
							<parameter>
								<parameterid>smooth</parameterid>
								<name>Smooth</name>
								<valuemin>0</valuemin>
								<valuemax>100</valuemax>
								<value>19</value>
							</parameter>
							<parameter>
								<parameterid>choke</parameterid>
								<name>Choke</name>
								<valuemin>-100</valuemin>
								<valuemax>100</valuemax>
								<value>82</value>
							</parameter>
							<parameter>
								<parameterid>soft</parameterid>
								<name>Feather</name>
								<valuemin>0</valuemin>
								<valuemax>100</valuemax>
								<value>36</value>
							</parameter>
							<parameter>
								<parameterid>junk3</parameterid>
								<name>Options</name>
								<value>Options</value>
							</parameter>
							<parameter>
								<parameterid>invertalpha</parameterid>
								<name>Invert</name>
								<value>TRUE</value>
							</parameter>
							<parameter>
								<parameterid>hidelabels</parameterid>
								<name>Hide Labels</name>
								<value>TRUE</value>
							</parameter>
						</effect>
					</filter>
					<filter>
						<enabled>TRUE</enabled>
						<start>-1</start>
						<end>-1</end>
						<effect>
							<name>Brightness and Contrast</name>
							<effectid>Brightness and Contrast</effectid>
							<effecttype>filter</effecttype>
							<mediatype>video</mediatype>
							<appspecificdata>
								<appname>Final Cut Pro</appname>
								<appmanufacturer>Apple Inc.</appmanufacturer>
								<appversion>7.0</appversion>
								<data>
									<qteffectid>
										<whateffect>brco</whateffect>
									</qteffectid>
								</data>
							</appspecificdata>
							<parameter>
								<parameterid>variable-0</parameterid>
								<name>Brightness</name>
								<valuemin>-100</valuemin>
								<valuemax>100</valuemax>
								<value>23</value>
							</parameter>
							<parameter>
								<parameterid>variable-1</parameterid>
								<name>Contrast</name>
								<valuemin>-100</valuemin>
								<valuemax>100</valuemax>
								<value>38</value>
							</parameter>
						</effect>
					</filter>
					<filter>
						<effect>
							<name>Opacity</name>
							<effectid>opacity</effectid>
							<effectcategory>motion</effectcategory>
							<effecttype>motion</effecttype>
							<mediatype>video</mediatype>
							<parameter>
								<parameterid>opacity</parameterid>
								<name>opacity</name>
								<valuemin>0</valuemin>
								<valuemax>100</valuemax>
								<keyframe>
									<when>59</when>
									<value>75</value>
								</keyframe>
								<interpolation>
									<name>FCPCurve</name>
								</interpolation>
								<value>100</value>
							</parameter>
						</effect>
					</filter>
					<sourcetrack>
						<mediatype>video</mediatype>
					</sourcetrack>
					<fielddominance>upper</fielddominance>
					<itemhistory>
						<uuid>7EC9E8C4-A177-4D1B-BA65-61F7179FE8E2</uuid>
					</itemhistory>
				</clipitem>
				<transitionitem>
					<rate>
						<ntsc>FALSE</ntsc>
						<timebase>25</timebase>
					</rate>
					<start>1544</start>
					<end>1563</end>
					<alignment>center</alignment>
					<effect>
						<name>G Glow Dissolve</name>
						<effectcategory>Nattress Big Box Of Tricks</effectcategory>
						<effecttype>transition</effecttype>
						<mediatype>video</mediatype>
						<wipecode>0</wipecode>
						<wipeaccuracy>100</wipeaccuracy>
						<startratio>0</startratio>
						<endratio>1</endratio>
						<reverse>FALSE</reverse>
						<parameter>
							<parameterid>glowamount</parameterid>
							<name>Glow Amount</name>
							<valuemin>0</valuemin>
							<valuemax>100</valuemax>
							<value>15</value>
						</parameter>
						<parameter>
							<parameterid>glowthreshold</parameterid>
							<name>Glow Threshold Limit</name>
							<valuemin>0</valuemin>
							<valuemax>100</valuemax>
							<value>12</value>
						</parameter>
						<parameter>
							<parameterid>glowsize</parameterid>
							<name>Glow Size</name>
							<valuemin>0</valuemin>
							<valuemax>100</valuemax>
							<value>4</value>
						</parameter>
						<parameter>
							<parameterid>ablur</parameterid>
							<name>Blur</name>
							<valuemin>0</valuemin>
							<valuemax>100</valuemax>
							<value>37</value>
						</parameter>
						<parameter>
							<parameterid>asaturation</parameterid>
							<name>Saturation</name>
							<valuemin>-1</valuemin>
							<valuemax>4</valuemax>
							<value>0</value>
						</parameter>
						<parameter>
							<parameterid>dissolvep</parameterid>
							<name>Dissolve Percentage</name>
							<valuemin>5</valuemin>
							<valuemax>100</valuemax>
							<value>50</value>
						</parameter>
						<parameter>
							<parameterid>copyright</parameterid>
							<name>© www.nattress.com</name>
							<value>string</value>
						</parameter>
					</effect>
				</transitionitem>
				<clipitem id="00708001.MOV9">
					<name>00708001.MOV</name>
					<duration>648</duration>
					<rate>
						<ntsc>FALSE</ntsc>
						<timebase>25</timebase>
					</rate>
					<in>55</in>
					<out>93</out>
					<start>-1</start>
					<end>-1</end>
					<pixelaspectratio>Square</pixelaspectratio>
					<enabled>TRUE</enabled>
					<anamorphic>FALSE</anamorphic>
					<alphatype>none</alphatype>
					<compositemode>normal</compositemode>
					<masterclipid>00708001.MOV1</masterclipid>
					<logginginfo>
						<scene/>
						<shottake/>
						<lognote/>
						<good>FALSE</good>
					</logginginfo>
					<labels>
						<label2/>
					</labels>
					<comments>
						<mastercomment1/>
						<mastercomment2/>
						<mastercomment3/>
						<mastercomment4/>
					</comments>
					<file id="00708001 "/>
					<filter>
						<enabled>TRUE</enabled>
						<start>-1</start>
						<end>-1</end>
						<effect>
							<name>Eight-Point Garbage Matte</name>
							<effectid>Eight-Point Garbage Matte</effectid>
							<effectcategory>Matte</effectcategory>
							<effecttype>filter</effecttype>
							<mediatype>video</mediatype>
							<parameter>
								<parameterid>viewmode</parameterid>
								<name>View Mode</name>
								<valuemin>1</valuemin>
								<valuemax>3</valuemax>
								<valuelist>
									<valueentry>
										<name>Final</name>
										<value>1</value>
									</valueentry>
									<valueentry>
										<name>Preview</name>
										<value>2</value>
									</valueentry>
									<valueentry>
										<name>Wireframe</name>
										<value>3</value>
									</valueentry>
								</valuelist>
								<value>2</value>
							</parameter>
							<parameter>
								<parameterid>junk1</parameterid>
								<name>Corners</name>
								<value>Corners</value>
							</parameter>
							<parameter>
								<parameterid>p0</parameterid>
								<name>Point 1</name>
								<value>
									<horiz>-0.390968</horiz>
									<vert>0.0848624</vert>
								</value>
							</parameter>
							<parameter>
								<parameterid>p1</parameterid>
								<name>Point 2</name>
								<value>
									<horiz>-0.329032</horiz>
									<vert>-0.0183486</vert>
								</value>
							</parameter>
							<parameter>
								<parameterid>p2</parameterid>
								<name>Point 3</name>
								<value>
									<horiz>-0.236129</horiz>
									<vert>-0.0802752</vert>
								</value>
							</parameter>
							<parameter>
								<parameterid>p3</parameterid>
								<name>Point 4</name>
								<value>
									<horiz>0.329032</horiz>
									<vert>-0.0688073</vert>
								</value>
							</parameter>
							<parameter>
								<parameterid>spacer1</parameterid>
								<name> </name>
								<value> </value>
							</parameter>
							<parameter>
								<parameterid>p4</parameterid>
								<name>Point 5</name>
								<value>
									<horiz>0.443871</horiz>
									<vert>0.0573394</vert>
								</value>
							</parameter>
							<parameter>
								<parameterid>p5</parameterid>
								<name>Point 6</name>
								<value>
									<horiz>0.451613</horiz>
									<vert>0.493119</vert>
								</value>
							</parameter>
							<parameter>
								<parameterid>p6</parameterid>
								<name>Point 7</name>
								<value>
									<horiz>-0.236129</horiz>
									<vert>0.493119</vert>
								</value>
							</parameter>
							<parameter>
								<parameterid>p7</parameterid>
								<name>Point 8</name>
								<value>
									<horiz>-0.381935</horiz>
									<vert>0.275229</vert>
								</value>
							</parameter>
							<parameter>
								<parameterid>junk2</parameterid>
								<name>Edges</name>
								<value>Edges</value>
							</parameter>
							<parameter>
								<parameterid>smooth</parameterid>
								<name>Smooth</name>
								<valuemin>0</valuemin>
								<valuemax>100</valuemax>
								<value>19</value>
							</parameter>
							<parameter>
								<parameterid>choke</parameterid>
								<name>Choke</name>
								<valuemin>-100</valuemin>
								<valuemax>100</valuemax>
								<value>82</value>
							</parameter>
							<parameter>
								<parameterid>soft</parameterid>
								<name>Feather</name>
								<valuemin>0</valuemin>
								<valuemax>100</valuemax>
								<value>36</value>
							</parameter>
							<parameter>
								<parameterid>junk3</parameterid>
								<name>Options</name>
								<value>Options</value>
							</parameter>
							<parameter>
								<parameterid>invertalpha</parameterid>
								<name>Invert</name>
								<value>TRUE</value>
							</parameter>
							<parameter>
								<parameterid>hidelabels</parameterid>
								<name>Hide Labels</name>
								<value>TRUE</value>
							</parameter>
						</effect>
					</filter>
					<filter>
						<enabled>TRUE</enabled>
						<start>-1</start>
						<end>-1</end>
						<effect>
							<name>Brightness and Contrast</name>
							<effectid>Brightness and Contrast</effectid>
							<effecttype>filter</effecttype>
							<mediatype>video</mediatype>
							<appspecificdata>
								<appname>Final Cut Pro</appname>
								<appmanufacturer>Apple Inc.</appmanufacturer>
								<appversion>7.0</appversion>
								<data>
									<qteffectid>
										<whateffect>brco</whateffect>
									</qteffectid>
								</data>
							</appspecificdata>
							<parameter>
								<parameterid>variable-0</parameterid>
								<name>Brightness</name>
								<valuemin>-100</valuemin>
								<valuemax>100</valuemax>
								<value>23</value>
							</parameter>
							<parameter>
								<parameterid>variable-1</parameterid>
								<name>Contrast</name>
								<valuemin>-100</valuemin>
								<valuemax>100</valuemax>
								<value>38</value>
							</parameter>
						</effect>
					</filter>
					<filter>
						<effect>
							<name>Opacity</name>
							<effectid>opacity</effectid>
							<effectcategory>motion</effectcategory>
							<effecttype>motion</effecttype>
							<mediatype>video</mediatype>
							<parameter>
								<parameterid>opacity</parameterid>
								<name>opacity</name>
								<valuemin>0</valuemin>
								<valuemax>100</valuemax>
								<value>50</value>
							</parameter>
						</effect>
					</filter>
					<sourcetrack>
						<mediatype>video</mediatype>
					</sourcetrack>
					<fielddominance>upper</fielddominance>
					<itemhistory>
						<uuid>150FC4B0-F785-4526-9B75-7ED5B637016B</uuid>
					</itemhistory>
				</clipitem>
				<transitionitem>
					<rate>
						<ntsc>FALSE</ntsc>
						<timebase>25</timebase>
					</rate>
					<start>1563</start>
					<end>1582</end>
					<alignment>center</alignment>
					<effect>
						<name>G Sharp Dissolve</name>
						<effectcategory>Nattress Big Box Of Tricks</effectcategory>
						<effecttype>transition</effecttype>
						<mediatype>video</mediatype>
						<wipecode>0</wipecode>
						<wipeaccuracy>100</wipeaccuracy>
						<startratio>0</startratio>
						<endratio>1</endratio>
						<reverse>FALSE</reverse>
						<parameter>
							<parameterid>easein</parameterid>
							<name>Ease In</name>
							<valuemin>-1</valuemin>
							<valuemax>0</valuemax>
							<value>0</value>
						</parameter>
						<parameter>
							<parameterid>easeout</parameterid>
							<name>Ease Out</name>
							<valuemin>0</valuemin>
							<valuemax>1</valuemax>
							<value>0</value>
						</parameter>
						<parameter>
							<parameterid>aradius</parameterid>
							<name>A Radius</name>
							<valuemin>0</valuemin>
							<valuemax>200</valuemax>
							<value>50</value>
						</parameter>
						<parameter>
							<parameterid>bradius</parameterid>
							<name>B Radius</name>
							<valuemin>0</valuemin>
							<valuemax>200</valuemax>
							<value>50</value>
						</parameter>
						<parameter>
							<parameterid>amount</parameterid>
							<name>Amount</name>
							<valuemin>0</valuemin>
							<valuemax>2000</valuemax>
							<value>500</value>
						</parameter>
						<parameter>
							<parameterid>copyright</parameterid>
							<name>© www.nattress.com</name>
							<value>string</value>
						</parameter>
					</effect>
				</transitionitem>
				<clipitem id="00708001.MOV10">
					<name>00708001.MOV</name>
					<duration>648</duration>
					<rate>
						<ntsc>FALSE</ntsc>
						<timebase>25</timebase>
					</rate>
					<in>74</in>
					<out>95</out>
					<start>-1</start>
					<end>1584</end>
					<pixelaspectratio>Square</pixelaspectratio>
					<enabled>TRUE</enabled>
					<anamorphic>FALSE</anamorphic>
					<alphatype>none</alphatype>
					<compositemode>normal</compositemode>
					<masterclipid>00708001.MOV1</masterclipid>
					<logginginfo>
						<scene/>
						<shottake/>
						<lognote/>
						<good>FALSE</good>
					</logginginfo>
					<labels>
						<label2/>
					</labels>
					<comments>
						<mastercomment1/>
						<mastercomment2/>
						<mastercomment3/>
						<mastercomment4/>
					</comments>
					<file id="00708001 "/>
					<filter>
						<enabled>TRUE</enabled>
						<start>-1</start>
						<end>-1</end>
						<effect>
							<name>Eight-Point Garbage Matte</name>
							<effectid>Eight-Point Garbage Matte</effectid>
							<effectcategory>Matte</effectcategory>
							<effecttype>filter</effecttype>
							<mediatype>video</mediatype>
							<parameter>
								<parameterid>viewmode</parameterid>
								<name>View Mode</name>
								<valuemin>1</valuemin>
								<valuemax>3</valuemax>
								<valuelist>
									<valueentry>
										<name>Final</name>
										<value>1</value>
									</valueentry>
									<valueentry>
										<name>Preview</name>
										<value>2</value>
									</valueentry>
									<valueentry>
										<name>Wireframe</name>
										<value>3</value>
									</valueentry>
								</valuelist>
								<value>2</value>
							</parameter>
							<parameter>
								<parameterid>junk1</parameterid>
								<name>Corners</name>
								<value>Corners</value>
							</parameter>
							<parameter>
								<parameterid>p0</parameterid>
								<name>Point 1</name>
								<value>
									<horiz>-0.390968</horiz>
									<vert>0.0848624</vert>
								</value>
							</parameter>
							<parameter>
								<parameterid>p1</parameterid>
								<name>Point 2</name>
								<value>
									<horiz>-0.329032</horiz>
									<vert>-0.0183486</vert>
								</value>
							</parameter>
							<parameter>
								<parameterid>p2</parameterid>
								<name>Point 3</name>
								<value>
									<horiz>-0.236129</horiz>
									<vert>-0.0802752</vert>
								</value>
							</parameter>
							<parameter>
								<parameterid>p3</parameterid>
								<name>Point 4</name>
								<value>
									<horiz>0.329032</horiz>
									<vert>-0.0688073</vert>
								</value>
							</parameter>
							<parameter>
								<parameterid>spacer1</parameterid>
								<name> </name>
								<value> </value>
							</parameter>
							<parameter>
								<parameterid>p4</parameterid>
								<name>Point 5</name>
								<value>
									<horiz>0.443871</horiz>
									<vert>0.0573394</vert>
								</value>
							</parameter>
							<parameter>
								<parameterid>p5</parameterid>
								<name>Point 6</name>
								<value>
									<horiz>0.451613</horiz>
									<vert>0.493119</vert>
								</value>
							</parameter>
							<parameter>
								<parameterid>p6</parameterid>
								<name>Point 7</name>
								<value>
									<horiz>-0.236129</horiz>
									<vert>0.493119</vert>
								</value>
							</parameter>
							<parameter>
								<parameterid>p7</parameterid>
								<name>Point 8</name>
								<value>
									<horiz>-0.381935</horiz>
									<vert>0.275229</vert>
								</value>
							</parameter>
							<parameter>
								<parameterid>junk2</parameterid>
								<name>Edges</name>
								<value>Edges</value>
							</parameter>
							<parameter>
								<parameterid>smooth</parameterid>
								<name>Smooth</name>
								<valuemin>0</valuemin>
								<valuemax>100</valuemax>
								<value>19</value>
							</parameter>
							<parameter>
								<parameterid>choke</parameterid>
								<name>Choke</name>
								<valuemin>-100</valuemin>
								<valuemax>100</valuemax>
								<value>82</value>
							</parameter>
							<parameter>
								<parameterid>soft</parameterid>
								<name>Feather</name>
								<valuemin>0</valuemin>
								<valuemax>100</valuemax>
								<value>36</value>
							</parameter>
							<parameter>
								<parameterid>junk3</parameterid>
								<name>Options</name>
								<value>Options</value>
							</parameter>
							<parameter>
								<parameterid>invertalpha</parameterid>
								<name>Invert</name>
								<value>TRUE</value>
							</parameter>
							<parameter>
								<parameterid>hidelabels</parameterid>
								<name>Hide Labels</name>
								<value>TRUE</value>
							</parameter>
						</effect>
					</filter>
					<filter>
						<enabled>TRUE</enabled>
						<start>-1</start>
						<end>-1</end>
						<effect>
							<name>Brightness and Contrast</name>
							<effectid>Brightness and Contrast</effectid>
							<effecttype>filter</effecttype>
							<mediatype>video</mediatype>
							<appspecificdata>
								<appname>Final Cut Pro</appname>
								<appmanufacturer>Apple Inc.</appmanufacturer>
								<appversion>7.0</appversion>
								<data>
									<qteffectid>
										<whateffect>brco</whateffect>
									</qteffectid>
								</data>
							</appspecificdata>
							<parameter>
								<parameterid>variable-0</parameterid>
								<name>Brightness</name>
								<valuemin>-100</valuemin>
								<valuemax>100</valuemax>
								<value>23</value>
							</parameter>
							<parameter>
								<parameterid>variable-1</parameterid>
								<name>Contrast</name>
								<valuemin>-100</valuemin>
								<valuemax>100</valuemax>
								<value>38</value>
							</parameter>
						</effect>
					</filter>
					<filter>
						<effect>
							<name>Opacity</name>
							<effectid>opacity</effectid>
							<effectcategory>motion</effectcategory>
							<effecttype>motion</effecttype>
							<mediatype>video</mediatype>
							<parameter>
								<parameterid>opacity</parameterid>
								<name>opacity</name>
								<valuemin>0</valuemin>
								<valuemax>100</valuemax>
								<keyframe>
									<when>83</when>
									<value>75</value>
								</keyframe>
								<keyframe>
									<when>95</when>
									<value>0</value>
								</keyframe>
								<interpolation>
									<name>FCPCurve</name>
								</interpolation>
								<value>100</value>
							</parameter>
						</effect>
					</filter>
					<sourcetrack>
						<mediatype>video</mediatype>
					</sourcetrack>
					<fielddominance>upper</fielddominance>
					<itemhistory>
						<uuid>16CBFC5D-8DB6-4F0E-8AA5-CD39CD407BDE</uuid>
					</itemhistory>
				</clipitem>
				<clipitem id="00707001.MOV">
					<name>00707001.MOV</name>
					<duration>2172</duration>
					<rate>
						<ntsc>FALSE</ntsc>
						<timebase>25</timebase>
					</rate>
					<in>282</in>
					<out>361</out>
					<start>1923</start>
					<end>2002</end>
					<pixelaspectratio>Square</pixelaspectratio>
					<enabled>TRUE</enabled>
					<anamorphic>FALSE</anamorphic>
					<alphatype>none</alphatype>
					<masterclipid>00707001.MOV1</masterclipid>
					<logginginfo>
						<scene/>
						<shottake/>
						<lognote/>
						<good>FALSE</good>
					</logginginfo>
					<labels>
						<label2/>
					</labels>
					<comments>
						<mastercomment1/>
						<mastercomment2/>
						<mastercomment3/>
						<mastercomment4/>
					</comments>
					<file id="00707001 ">
						<name>00707001.MOV</name>
						<pathurl>file://localhost/Volumes/Askepott/Prosjekter/DNPR637010_Kra%CC%8Akeklubben_TEM_011212/Video/MELLOMSTIKK/S01E05%20Dyrebolig/00707001.MOV</pathurl>
						<rate>
							<timebase>25</timebase>
						</rate>
						<duration>2172</duration>
						<timecode>
							<rate>
								<timebase>25</timebase>
							</rate>
							<string>17:39:22:20</string>
							<frame>1589070</frame>
							<displayformat>NDF</displayformat>
							<source>source</source>
							<reel>
								<name>Flash XDR</name>
							</reel>
						</timecode>
						<media>
							<video>
								<duration>2172</duration>
								<samplecharacteristics>
									<width>1920</width>
									<height>1080</height>
								</samplecharacteristics>
							</video>
							<audio>
								<samplecharacteristics>
									<samplerate>48000</samplerate>
									<depth>24</depth>
								</samplecharacteristics>
								<channelcount>1</channelcount>
							</audio>
							<audio>
								<samplecharacteristics>
									<samplerate>48000</samplerate>
									<depth>24</depth>
								</samplecharacteristics>
								<channelcount>1</channelcount>
							</audio>
						</media>
					</file>
					<filter>
						<effect>
							<name>Basic Motion</name>
							<effectid>basic</effectid>
							<effectcategory>motion</effectcategory>
							<effecttype>motion</effecttype>
							<mediatype>video</mediatype>
							<parameter>
								<parameterid>scale</parameterid>
								<name>Scale</name>
								<valuemin>0</valuemin>
								<valuemax>1000</valuemax>
								<value>104</value>
							</parameter>
							<parameter>
								<parameterid>rotation</parameterid>
								<name>Rotation</name>
								<valuemin>-8640</valuemin>
								<valuemax>8640</valuemax>
								<value>0</value>
							</parameter>
							<parameter>
								<parameterid>center</parameterid>
								<name>Center</name>
								<value>
									<horiz>-0.00732601</horiz>
									<vert>0</vert>
								</value>
							</parameter>
							<parameter>
								<parameterid>centerOffset</parameterid>
								<name>Anchor Point</name>
								<value>
									<horiz>0</horiz>
									<vert>0</vert>
								</value>
							</parameter>
						</effect>
					</filter>
					<filter>
						<enabled>FALSE</enabled>
						<effect>
							<name>Drop Shadow</name>
							<effectid>dropshadow</effectid>
							<effectcategory>motion</effectcategory>
							<effecttype>motion</effecttype>
							<mediatype>video</mediatype>
							<parameter>
								<parameterid>offset</parameterid>
								<name>offset</name>
								<valuemin>-100</valuemin>
								<valuemax>100</valuemax>
								<value>2</value>
							</parameter>
							<parameter>
								<parameterid>angle</parameterid>
								<name>angle</name>
								<valuemin>-720</valuemin>
								<valuemax>720</valuemax>
								<value>135</value>
							</parameter>
							<parameter>
								<parameterid>color</parameterid>
								<name>color</name>
								<value>
									<alpha>0</alpha>
									<red>0</red>
									<green>0</green>
									<blue>0</blue>
								</value>
							</parameter>
							<parameter>
								<parameterid>softness</parameterid>
								<name>softness</name>
								<valuemin>0</valuemin>
								<valuemax>100</valuemax>
								<value>10</value>
							</parameter>
							<parameter>
								<parameterid>opacity</parameterid>
								<name>opacity</name>
								<valuemin>0</valuemin>
								<valuemax>100</valuemax>
								<value>50</value>
							</parameter>
						</effect>
					</filter>
					<filter>
						<enabled>FALSE</enabled>
						<effect>
							<name>Motion Blur</name>
							<effectid>motionblur</effectid>
							<effectcategory>motion</effectcategory>
							<effecttype>motion</effecttype>
							<mediatype>video</mediatype>
							<parameter>
								<parameterid>duration</parameterid>
								<name>% Blur</name>
								<valuemin>0</valuemin>
								<valuemax>1000</valuemax>
								<value>500</value>
							</parameter>
							<parameter>
								<parameterid>samples</parameterid>
								<name>Samples</name>
								<valuemin>1</valuemin>
								<valuemax>16</valuemax>
								<value>4</value>
							</parameter>
						</effect>
					</filter>
					<filter>
						<effect>
							<name>Crop</name>
							<effectid>crop</effectid>
							<effectcategory>motion</effectcategory>
							<effecttype>motion</effecttype>
							<mediatype>video</mediatype>
							<parameter>
								<parameterid>left</parameterid>
								<name>left</name>
								<valuemin>0</valuemin>
								<valuemax>100</valuemax>
								<value>0</value>
							</parameter>
							<parameter>
								<parameterid>right</parameterid>
								<name>right</name>
								<valuemin>0</valuemin>
								<valuemax>100</valuemax>
								<value>0</value>
							</parameter>
							<parameter>
								<parameterid>top</parameterid>
								<name>top</name>
								<valuemin>0</valuemin>
								<valuemax>100</valuemax>
								<value>0</value>
							</parameter>
							<parameter>
								<parameterid>bottom</parameterid>
								<name>bottom</name>
								<valuemin>0</valuemin>
								<valuemax>100</valuemax>
								<value>0</value>
							</parameter>
							<parameter>
								<parameterid>edgefeather</parameterid>
								<name>edgefeather</name>
								<valuemin>0</valuemin>
								<valuemax>100</valuemax>
								<value>0</value>
							</parameter>
						</effect>
					</filter>
					<filter>
						<effect>
							<name>Distort</name>
							<effectid>deformation</effectid>
							<effectcategory>motion</effectcategory>
							<effecttype>motion</effecttype>
							<mediatype>video</mediatype>
							<parameter>
								<parameterid>ulcorner</parameterid>
								<name>Upper Left</name>
								<value>
									<horiz>-0.5</horiz>
									<vert>-0.5</vert>
								</value>
							</parameter>
							<parameter>
								<parameterid>urcorner</parameterid>
								<name>Upper Right</name>
								<value>
									<horiz>0.5</horiz>
									<vert>-0.5</vert>
								</value>
							</parameter>
							<parameter>
								<parameterid>lrcorner</parameterid>
								<name>Lower Right</name>
								<value>
									<horiz>0.5</horiz>
									<vert>0.5</vert>
								</value>
							</parameter>
							<parameter>
								<parameterid>llcorner</parameterid>
								<name>Lower Left</name>
								<value>
									<horiz>-0.5</horiz>
									<vert>0.5</vert>
								</value>
							</parameter>
							<parameter>
								<parameterid>aspect</parameterid>
								<name>Aspect</name>
								<valuemin>-10000</valuemin>
								<valuemax>10000</valuemax>
								<value>0</value>
							</parameter>
						</effect>
					</filter>
					<filter>
						<effect>
							<name>Opacity</name>
							<effectid>opacity</effectid>
							<effectcategory>motion</effectcategory>
							<effecttype>motion</effecttype>
							<mediatype>video</mediatype>
							<parameter>
								<parameterid>opacity</parameterid>
								<name>opacity</name>
								<valuemin>0</valuemin>
								<valuemax>100</valuemax>
								<value>100</value>
							</parameter>
						</effect>
					</filter>
					<sourcetrack>
						<mediatype>video</mediatype>
					</sourcetrack>
					<fielddominance>upper</fielddominance>
					<itemhistory>
						<uuid>2AC1C3AC-7B8A-43C1-A86F-7C61491952B2</uuid>
					</itemhistory>
				</clipitem>
				<clipitem id="00707001.MOV2">
					<name>00707001.MOV</name>
					<duration>2172</duration>
					<rate>
						<ntsc>FALSE</ntsc>
						<timebase>25</timebase>
					</rate>
					<in>718</in>
					<out>800</out>
					<start>2127</start>
					<end>2209</end>
					<pixelaspectratio>Square</pixelaspectratio>
					<enabled>TRUE</enabled>
					<anamorphic>FALSE</anamorphic>
					<alphatype>none</alphatype>
					<masterclipid>00707001.MOV1</masterclipid>
					<logginginfo>
						<scene/>
						<shottake/>
						<lognote/>
						<good>FALSE</good>
					</logginginfo>
					<labels>
						<label2/>
					</labels>
					<comments>
						<mastercomment1/>
						<mastercomment2/>
						<mastercomment3/>
						<mastercomment4/>
					</comments>
					<file id="00707001 "/>
					<filter>
						<start>-1</start>
						<end>-1</end>
						<effect>
							<name>G Simple Curves -20 white curve</name>
							<effectcategory>Nattress Big Box of Tricks - Levels and Curves</effectcategory>
							<effecttype>filter</effecttype>
							<mediatype>video</mediatype>
							<parameter>
								<parameterid>colourspace</parameterid>
								<name>Colour Space</name>
								<valuemin>1</valuemin>
								<valuemax>2</valuemax>
								<valuelist>
									<valueentry>
										<name>RGB</name>
										<value>1</value>
									</valueentry>
									<valueentry>
										<name>Y'CbCr</name>
										<value>2</value>
									</valueentry>
								</valuelist>
								<value>2</value>
							</parameter>
							<parameter>
								<parameterid>showcurves</parameterid>
								<name>Show Curves</name>
								<value>FALSE</value>
							</parameter>
							<parameter>
								<parameterid>lvar</parameterid>
								<name>Levels Controls</name>
								<value>string</value>
							</parameter>
							<parameter>
								<parameterid>inw</parameterid>
								<name>White Level</name>
								<valuemin>0</valuemin>
								<valuemax>255</valuemax>
								<value>255</value>
							</parameter>
							<parameter>
								<parameterid>inb</parameterid>
								<name>Black Level</name>
								<valuemin>0</valuemin>
								<valuemax>255</valuemax>
								<value>0</value>
							</parameter>
							<parameter>
								<parameterid>outw</parameterid>
								<name>White Output</name>
								<valuemin>0</valuemin>
								<valuemax>255</valuemax>
								<value>255</value>
							</parameter>
							<parameter>
								<parameterid>outb</parameterid>
								<name>Black Output</name>
								<valuemin>0</valuemin>
								<valuemax>255</valuemax>
								<value>0</value>
							</parameter>
							<parameter>
								<parameterid>cvar</parameterid>
								<name>Curves Controls</name>
								<value>string</value>
							</parameter>
							<parameter>
								<parameterid>curvew</parameterid>
								<name>White Curve</name>
								<valuemin>-100</valuemin>
								<valuemax>100</valuemax>
								<value>-20</value>
							</parameter>
							<parameter>
								<parameterid>curveb</parameterid>
								<name>Black Curve</name>
								<valuemin>-100</valuemin>
								<valuemax>100</valuemax>
								<value>0</value>
							</parameter>
							<parameter>
								<parameterid>clipoutput</parameterid>
								<name>Clip Output Levels</name>
								<value>TRUE</value>
							</parameter>
							<parameter>
								<parameterid>copyright</parameterid>
								<name>© www.nattress.com</name>
								<value>string</value>
							</parameter>
						</effect>
					</filter>
					<filter>
						<effect>
							<name>Basic Motion</name>
							<effectid>basic</effectid>
							<effectcategory>motion</effectcategory>
							<effecttype>motion</effecttype>
							<mediatype>video</mediatype>
							<parameter>
								<parameterid>scale</parameterid>
								<name>Scale</name>
								<valuemin>0</valuemin>
								<valuemax>1000</valuemax>
								<keyframe>
									<when>338</when>
									<value>100</value>
									<outscale>0</outscale>
									<outbez>
										<horiz>19.75</horiz>
										<vert>0</vert>
									</outbez>
								</keyframe>
								<keyframe>
									<when>432</when>
									<value>120</value>
									<inscale>0</inscale>
									<inbez>
										<horiz>23.5</horiz>
										<vert>-3.14159</vert>
									</inbez>
								</keyframe>
								<interpolation>
									<name>FCPCurve</name>
								</interpolation>
								<value>120</value>
							</parameter>
							<parameter>
								<parameterid>rotation</parameterid>
								<name>Rotation</name>
								<valuemin>-8640</valuemin>
								<valuemax>8640</valuemax>
								<value>0</value>
							</parameter>
							<parameter>
								<parameterid>center</parameterid>
								<name>Center</name>
								<keyframe>
									<when>362</when>
									<value>
										<horiz>0</horiz>
										<vert>0</vert>
									</value>
								</keyframe>
								<keyframe>
									<when>417</when>
									<value>
										<horiz>-0.0877419</horiz>
										<vert>-0.016055</vert>
									</value>
								</keyframe>
								<interpolation>
									<name>FCPCurve</name>
								</interpolation>
							</parameter>
							<parameter>
								<parameterid>centerOffset</parameterid>
								<name>Anchor Point</name>
								<value>
									<horiz>0</horiz>
									<vert>0</vert>
								</value>
							</parameter>
						</effect>
					</filter>
					<filter>
						<enabled>FALSE</enabled>
						<effect>
							<name>Drop Shadow</name>
							<effectid>dropshadow</effectid>
							<effectcategory>motion</effectcategory>
							<effecttype>motion</effecttype>
							<mediatype>video</mediatype>
							<parameter>
								<parameterid>offset</parameterid>
								<name>offset</name>
								<valuemin>-100</valuemin>
								<valuemax>100</valuemax>
								<value>2</value>
							</parameter>
							<parameter>
								<parameterid>angle</parameterid>
								<name>angle</name>
								<valuemin>-720</valuemin>
								<valuemax>720</valuemax>
								<value>135</value>
							</parameter>
							<parameter>
								<parameterid>color</parameterid>
								<name>color</name>
								<value>
									<alpha>0</alpha>
									<red>0</red>
									<green>0</green>
									<blue>0</blue>
								</value>
							</parameter>
							<parameter>
								<parameterid>softness</parameterid>
								<name>softness</name>
								<valuemin>0</valuemin>
								<valuemax>100</valuemax>
								<value>10</value>
							</parameter>
							<parameter>
								<parameterid>opacity</parameterid>
								<name>opacity</name>
								<valuemin>0</valuemin>
								<valuemax>100</valuemax>
								<value>50</value>
							</parameter>
						</effect>
					</filter>
					<filter>
						<enabled>FALSE</enabled>
						<effect>
							<name>Motion Blur</name>
							<effectid>motionblur</effectid>
							<effectcategory>motion</effectcategory>
							<effecttype>motion</effecttype>
							<mediatype>video</mediatype>
							<parameter>
								<parameterid>duration</parameterid>
								<name>% Blur</name>
								<valuemin>0</valuemin>
								<valuemax>1000</valuemax>
								<value>500</value>
							</parameter>
							<parameter>
								<parameterid>samples</parameterid>
								<name>Samples</name>
								<valuemin>1</valuemin>
								<valuemax>16</valuemax>
								<value>4</value>
							</parameter>
						</effect>
					</filter>
					<filter>
						<effect>
							<name>Crop</name>
							<effectid>crop</effectid>
							<effectcategory>motion</effectcategory>
							<effecttype>motion</effecttype>
							<mediatype>video</mediatype>
							<parameter>
								<parameterid>left</parameterid>
								<name>left</name>
								<valuemin>0</valuemin>
								<valuemax>100</valuemax>
								<value>0</value>
							</parameter>
							<parameter>
								<parameterid>right</parameterid>
								<name>right</name>
								<valuemin>0</valuemin>
								<valuemax>100</valuemax>
								<value>0</value>
							</parameter>
							<parameter>
								<parameterid>top</parameterid>
								<name>top</name>
								<valuemin>0</valuemin>
								<valuemax>100</valuemax>
								<value>0</value>
							</parameter>
							<parameter>
								<parameterid>bottom</parameterid>
								<name>bottom</name>
								<valuemin>0</valuemin>
								<valuemax>100</valuemax>
								<value>0</value>
							</parameter>
							<parameter>
								<parameterid>edgefeather</parameterid>
								<name>edgefeather</name>
								<valuemin>0</valuemin>
								<valuemax>100</valuemax>
								<value>0</value>
							</parameter>
						</effect>
					</filter>
					<filter>
						<effect>
							<name>Distort</name>
							<effectid>deformation</effectid>
							<effectcategory>motion</effectcategory>
							<effecttype>motion</effecttype>
							<mediatype>video</mediatype>
							<parameter>
								<parameterid>ulcorner</parameterid>
								<name>Upper Left</name>
								<value>
									<horiz>-0.5</horiz>
									<vert>-0.5</vert>
								</value>
							</parameter>
							<parameter>
								<parameterid>urcorner</parameterid>
								<name>Upper Right</name>
								<value>
									<horiz>0.5</horiz>
									<vert>-0.5</vert>
								</value>
							</parameter>
							<parameter>
								<parameterid>lrcorner</parameterid>
								<name>Lower Right</name>
								<value>
									<horiz>0.5</horiz>
									<vert>0.5</vert>
								</value>
							</parameter>
							<parameter>
								<parameterid>llcorner</parameterid>
								<name>Lower Left</name>
								<value>
									<horiz>-0.5</horiz>
									<vert>0.5</vert>
								</value>
							</parameter>
							<parameter>
								<parameterid>aspect</parameterid>
								<name>Aspect</name>
								<valuemin>-10000</valuemin>
								<valuemax>10000</valuemax>
								<value>0</value>
							</parameter>
						</effect>
					</filter>
					<filter>
						<effect>
							<name>Opacity</name>
							<effectid>opacity</effectid>
							<effectcategory>motion</effectcategory>
							<effecttype>motion</effecttype>
							<mediatype>video</mediatype>
							<parameter>
								<parameterid>opacity</parameterid>
								<name>opacity</name>
								<valuemin>0</valuemin>
								<valuemax>100</valuemax>
								<value>100</value>
							</parameter>
						</effect>
					</filter>
					<sourcetrack>
						<mediatype>video</mediatype>
					</sourcetrack>
					<link>
						<linkclipref>00707001.MOV2</linkclipref>
						<mediatype>video</mediatype>
						<trackindex>2</trackindex>
						<clipindex>13</clipindex>
					</link>
					<fielddominance>upper</fielddominance>
					<itemhistory>
						<uuid>20C4C8BA-350D-477C-81CA-12BE4B67A335</uuid>
					</itemhistory>
				</clipitem>
				<clipitem id="00706001.MOV7">
					<name>00706001.MOV</name>
					<duration>1332</duration>
					<rate>
						<ntsc>FALSE</ntsc>
						<timebase>25</timebase>
					</rate>
					<in>601</in>
					<out>670</out>
					<start>2209</start>
					<end>2278</end>
					<pixelaspectratio>Square</pixelaspectratio>
					<enabled>TRUE</enabled>
					<anamorphic>FALSE</anamorphic>
					<alphatype>none</alphatype>
					<masterclipid>00706001.MOV1</masterclipid>
					<logginginfo>
						<scene/>
						<shottake/>
						<lognote/>
						<good>FALSE</good>
					</logginginfo>
					<labels>
						<label2/>
					</labels>
					<comments>
						<mastercomment1/>
						<mastercomment2/>
						<mastercomment3/>
						<mastercomment4/>
					</comments>
					<file id="00706001 "/>
					<filter>
						<start>-1</start>
						<end>-1</end>
						<effect>
							<name>Color Corrector - Lua til Carina 3 bittelitt</name>
							<effectid>Color Corrector</effectid>
							<effectcategory>Color Correction</effectcategory>
							<effecttype>filter</effecttype>
							<mediatype>video</mediatype>
							<parameter>
								<parameterid>dispmode</parameterid>
								<name>Display Mode</name>
								<valuemin>1</valuemin>
								<valuemax>3</valuemax>
								<valuelist>
									<valueentry>
										<name>Final</name>
										<value>1</value>
									</valueentry>
									<valueentry>
										<name>Matte</name>
										<value>2</value>
									</valueentry>
									<valueentry>
										<name>Source</name>
										<value>3</value>
									</valueentry>
								</valuelist>
								<value>1</value>
							</parameter>
							<parameter>
								<parameterid>label1</parameterid>
								<name>Level Controls</name>
								<value/>
							</parameter>
							<parameter>
								<parameterid>highlights</parameterid>
								<name>Highlights</name>
								<valuemin>64</valuemin>
								<valuemax>509</valuemax>
								<value>247</value>
							</parameter>
							<parameter>
								<parameterid>mids</parameterid>
								<name>Mids</name>
								<valuemin>0</valuemin>
								<valuemax>200</valuemax>
								<value>100</value>
							</parameter>
							<parameter>
								<parameterid>blacklevel</parameterid>
								<name>Blacks</name>
								<valuemin>-196</valuemin>
								<valuemax>254</valuemax>
								<value>-3</value>
							</parameter>
							<parameter>
								<parameterid>label2</parameterid>
								<name>Color Balance</name>
								<value/>
							</parameter>
							<parameter>
								<parameterid>hue</parameterid>
								<name>Angle</name>
								<valuemin>-180</valuemin>
								<valuemax>180</valuemax>
								<value>-33</value>
							</parameter>
							<parameter>
								<parameterid>mag</parameterid>
								<name>Magnitude</name>
								<valuemin>0</valuemin>
								<valuemax>200</valuemax>
								<value>0</value>
							</parameter>
							<parameter>
								<parameterid>label4</parameterid>
								<name>Color Controls</name>
								<value/>
							</parameter>
							<parameter>
								<parameterid>chroma</parameterid>
								<name>Saturation</name>
								<valuemin>0</valuemin>
								<valuemax>200</valuemax>
								<value>94</value>
							</parameter>
							<parameter>
								<parameterid>phase</parameterid>
								<name>Phase shift</name>
								<valuemin>-180</valuemin>
								<valuemax>180</valuemax>
								<value>0</value>
							</parameter>
							<parameter>
								<parameterid>label5</parameterid>
								<name>Limit Effect Controls</name>
								<value/>
							</parameter>
							<parameter>
								<parameterid>dochroma</parameterid>
								<name>Limit on Chroma</name>
								<value>TRUE</value>
							</parameter>
							<parameter>
								<parameterid>centerang</parameterid>
								<name>Chroma Center</name>
								<valuemin>-760</valuemin>
								<valuemax>760</valuemax>
								<value>322.256</value>
							</parameter>
							<parameter>
								<parameterid>chromawidth</parameterid>
								<name>Chroma Width</name>
								<valuemin>0</valuemin>
								<valuemax>360</valuemax>
								<value>8.11959</value>
							</parameter>
							<parameter>
								<parameterid>chromasoft</parameterid>
								<name>Chroma Softness</name>
								<valuemin>0</valuemin>
								<valuemax>180</valuemax>
								<value>26.8371</value>
							</parameter>
							<parameter>
								<parameterid>dosat</parameterid>
								<name>Limit on Saturation</name>
								<value>TRUE</value>
							</parameter>
							<parameter>
								<parameterid>satmin</parameterid>
								<name>Sat. Minimum</name>
								<valuemin>0</valuemin>
								<valuemax>125</valuemax>
								<value>36.7837</value>
							</parameter>
							<parameter>
								<parameterid>satwidth</parameterid>
								<name>Sat. Width</name>
								<valuemin>0</valuemin>
								<valuemax>125</valuemax>
								<value>84.0889</value>
							</parameter>
							<parameter>
								<parameterid>satsoft</parameterid>
								<name>Sat. Softness</name>
								<valuemin>0</valuemin>
								<valuemax>125</valuemax>
								<value>5</value>
							</parameter>
							<parameter>
								<parameterid>doluma</parameterid>
								<name>Limit on Luma</name>
								<value>TRUE</value>
							</parameter>
							<parameter>
								<parameterid>lumamin</parameterid>
								<name>Luma Minimum</name>
								<valuemin>0</valuemin>
								<valuemax>120</valuemax>
								<value>0.939667</value>
							</parameter>
							<parameter>
								<parameterid>lumawidth</parameterid>
								<name>Luma Width</name>
								<valuemin>0</valuemin>
								<valuemax>120</valuemax>
								<value>115.45</value>
							</parameter>
							<parameter>
								<parameterid>lumasoft</parameterid>
								<name>Luma Softness</name>
								<valuemin>0</valuemin>
								<valuemax>120</valuemax>
								<value>15.1099</value>
							</parameter>
							<parameter>
								<parameterid>label6</parameterid>
								<name>Edge Control</name>
								<value/>
							</parameter>
							<parameter>
								<parameterid>edgethin</parameterid>
								<name>Thin/Spread</name>
								<valuemin>-100</valuemin>
								<valuemax>100</valuemax>
								<value>0</value>
							</parameter>
							<parameter>
								<parameterid>edgefeather</parameterid>
								<name>Softening</name>
								<valuemin>0</valuemin>
								<valuemax>100</valuemax>
								<value>6</value>
							</parameter>
							<parameter>
								<parameterid>label7</parameterid>
								<name>Mask Control</name>
								<value/>
							</parameter>
							<parameter>
								<parameterid>invertsel</parameterid>
								<name>Invert</name>
								<value>FALSE</value>
							</parameter>
							<parameter>
								<parameterid>debugshow</parameterid>
								<name>Show Stats</name>
								<value>FALSE</value>
							</parameter>
						</effect>
					</filter>
					<sourcetrack>
						<mediatype>video</mediatype>
					</sourcetrack>
					<link>
						<linkclipref>00706001.MOV7</linkclipref>
						<mediatype>video</mediatype>
						<trackindex>2</trackindex>
						<clipindex>14</clipindex>
					</link>
					<link>
						<linkclipref>00706001.MOV8</linkclipref>
						<mediatype>audio</mediatype>
						<trackindex>1</trackindex>
						<clipindex>12</clipindex>
					</link>
					<link>
						<linkclipref>00706001.MOV9</linkclipref>
						<mediatype>audio</mediatype>
						<trackindex>2</trackindex>
						<clipindex>12</clipindex>
					</link>
					<fielddominance>upper</fielddominance>
					<itemhistory>
						<uuid>F0AD2A76-ED89-437C-A23F-FE8AF656A76C</uuid>
					</itemhistory>
				</clipitem>
				<clipitem id="00830001.MOV">
					<name>00830001.MOV</name>
					<duration>300</duration>
					<rate>
						<ntsc>FALSE</ntsc>
						<timebase>25</timebase>
					</rate>
					<in>106</in>
					<out>161</out>
					<start>3182</start>
					<end>3237</end>
					<pixelaspectratio>Square</pixelaspectratio>
					<enabled>TRUE</enabled>
					<anamorphic>FALSE</anamorphic>
					<alphatype>none</alphatype>
					<masterclipid>00830001.MOV1</masterclipid>
					<logginginfo>
						<scene/>
						<shottake/>
						<lognote/>
						<good>FALSE</good>
					</logginginfo>
					<labels>
						<label2/>
					</labels>
					<comments>
						<mastercomment1/>
						<mastercomment2/>
						<mastercomment3/>
						<mastercomment4/>
					</comments>
					<file id="00830001 ">
						<name>00830001.MOV</name>
						<pathurl>file://localhost/Volumes/Askepott/Prosjekter/DNPR637010_Kra%CC%8Akeklubben_TEM_011212/Video/MELLOMSTIKK/S01E05%20Dyrebolig/DAG2/00830001.MOV</pathurl>
						<rate>
							<timebase>25</timebase>
						</rate>
						<duration>300</duration>
						<timecode>
							<rate>
								<timebase>25</timebase>
							</rate>
							<string>18:35:38:09</string>
							<frame>1673459</frame>
							<displayformat>NDF</displayformat>
							<source>source</source>
							<reel>
								<name>Flash XDR</name>
							</reel>
						</timecode>
						<media>
							<video>
								<duration>300</duration>
								<samplecharacteristics>
									<width>1920</width>
									<height>1080</height>
								</samplecharacteristics>
							</video>
							<audio>
								<samplecharacteristics>
									<samplerate>48000</samplerate>
									<depth>24</depth>
								</samplecharacteristics>
								<channelcount>1</channelcount>
							</audio>
							<audio>
								<samplecharacteristics>
									<samplerate>48000</samplerate>
									<depth>24</depth>
								</samplecharacteristics>
								<channelcount>1</channelcount>
							</audio>
						</media>
					</file>
					<sourcetrack>
						<mediatype>video</mediatype>
					</sourcetrack>
					<fielddominance>upper</fielddominance>
					<itemhistory>
						<uuid>786E921F-8FE4-4A26-8BFA-A6A8B826CEE4</uuid>
					</itemhistory>
				</clipitem>
				<clipitem id="DYR18098_01 5">
					<name>DYR18098_01</name>
					<duration>3421</duration>
					<rate>
						<ntsc>FALSE</ntsc>
						<timebase>25</timebase>
					</rate>
					<in>1674</in>
					<out>1744</out>
					<start>7079</start>
					<end>7149</end>
					<pixelaspectratio>Square</pixelaspectratio>
					<anamorphic>FALSE</anamorphic>
					<alphatype>none</alphatype>
					<masterclipid>DYR18098_01 1</masterclipid>
					<logginginfo>
						<scene/>
						<shottake/>
						<lognote/>
						<good>FALSE</good>
					</logginginfo>
					<labels>
						<label2/>
					</labels>
					<comments>
						<mastercomment1/>
						<mastercomment2/>
						<mastercomment3/>
						<mastercomment4/>
					</comments>
					<file id="DYR18098_01 2"/>
					<sourcetrack>
						<mediatype>video</mediatype>
					</sourcetrack>
					<link>
						<linkclipref>DYR18098_01 5</linkclipref>
						<mediatype>video</mediatype>
						<trackindex>2</trackindex>
						<clipindex>16</clipindex>
					</link>
					<link>
						<linkclipref>DYR18098_01 6</linkclipref>
						<mediatype>audio</mediatype>
						<trackindex>3</trackindex>
						<clipindex>11</clipindex>
					</link>
					<link>
						<linkclipref>DYR18098_01 7</linkclipref>
						<mediatype>audio</mediatype>
						<trackindex>4</trackindex>
						<clipindex>11</clipindex>
					</link>
					<fielddominance>upper</fielddominance>
					<itemhistory>
						<uuid>D0B060ED-BBF9-4D34-9588-3180BFB65EB0</uuid>
					</itemhistory>
				</clipitem>
				<clipitem id="DYR18101_01 ">
					<name>DYR18101_01</name>
					<duration>549</duration>
					<rate>
						<ntsc>FALSE</ntsc>
						<timebase>25</timebase>
					</rate>
					<in>64</in>
					<out>132</out>
					<start>7263</start>
					<end>7331</end>
					<pixelaspectratio>Square</pixelaspectratio>
					<enabled>TRUE</enabled>
					<anamorphic>FALSE</anamorphic>
					<alphatype>none</alphatype>
					<masterclipid>DYR18101_01 1</masterclipid>
					<logginginfo>
						<scene/>
						<shottake/>
						<lognote/>
						<good>FALSE</good>
					</logginginfo>
					<labels>
						<label2/>
					</labels>
					<comments>
						<mastercomment1/>
						<mastercomment2/>
						<mastercomment3/>
						<mastercomment4/>
					</comments>
					<file id="DYR18101_01 2">
						<name>DYR18101_01.mov</name>
						<pathurl>file://localhost/Volumes/Askepott/Prosjekter/DNPR637010_Kra%CC%8Akeklubben_TEM_011212/Video/SKOGBARNA/Trollskog/DYR18101_01.mov</pathurl>
						<rate>
							<timebase>25</timebase>
						</rate>
						<duration>549</duration>
						<metadata>
							<storage>QuickTime</storage>
							<key>com.sony.bprl.xdcamtransfer.version</key>
							<size>10</size>
							<type>UTF8</type>
							<value>2.12.0.631</value>
						</metadata>
						<metadata>
							<storage>QuickTime</storage>
							<key>org.smpte.mxf.package.material.packageid</key>
							<size>66</size>
							<type>UTF8</type>
							<value>0x060a2b340101010501010d43130000005b233d8a395405c808004602022f05f5</value>
						</metadata>
						<metadata>
							<storage>QuickTime</storage>
							<key>com.sony.professionaldisc.nonrealtimemeta.lastupdate</key>
							<size>25</size>
							<type>UTF8</type>
							<value>2010-08-31 13:57:58 +0100</value>
						</metadata>
						<metadata>
							<storage>QuickTime</storage>
							<key>com.sony.bprl.mxf.umid</key>
							<size>64</size>
							<type>UTF8</type>
							<value>060a2b340101010501010d43130000005b233d8a395405c808004602022f05f5</value>
						</metadata>
						<metadata>
							<storage>QuickTime</storage>
							<key>com.sony.bprl.mxf.nrtmetadata</key>
							<size>1991</size>
							<type>UTF8</type>
							<value>&lt;?xml version="1.0" encoding="UTF-8"?>&lt;NonRealTimeMeta xmlns="urn:schemas-professionalDisc:nonRealTimeMeta:ver.1.20" xmlns:lib="urn:schemas-professionalDisc:lib:ver.1.20" xmlns:xsi="http://www.w3.org/2001/XMLSchema-instance" lastUpdate="2010-08-31T13:57:58+01:00">&lt;TargetMaterial umidRef="060A2B340101010501010D43130000005B233D8A395405C808004602022F05F5">&lt;/TargetMaterial>&lt;Duration value="549">&lt;/Duration>&lt;LtcChangeTable tcFps="25" halfStep="false">&lt;LtcChange frameCount="0" value="13423806" status="increment">&lt;/LtcChange>&lt;LtcChange frameCount="548" value="11043906" status="end">&lt;/LtcChange>&lt;/LtcChangeTable>&lt;CreationDate value="2010-08-31T13:57:35+01:00">&lt;/CreationDate>&lt;TypicalUbit value="0000000017061020">&lt;/TypicalUbit>&lt;BodyUmidBasicChangeTable>&lt;BodyUmidBasicChange frameCount="0" value="060A2B340101010501010D43330000005B233D8A395405C808004602022F05F5" status="start">&lt;/BodyUmidBasicChange>&lt;/BodyUmidBasicChangeTable>&lt;BodyUmidWhenChangeTable>&lt;BodyUmidWhenChange frameCount="0" value="84107304395405A5" status="increment">&lt;/BodyUmidWhenChange>&lt;BodyUmidWhenChange frameCount="548" value="84997304395405A5" status="end">&lt;/BodyUmidWhenChange>&lt;/BodyUmidWhenChangeTable>&lt;KlvPacketTable>&lt;KlvPacket key="060E2B34010101050301020A02000000" frameCount="0" lengthValue="095F5265635374617274" status="spot">&lt;/KlvPacket>&lt;/KlvPacketTable>&lt;VideoFormat>&lt;VideoRecPort port="DIRECT">&lt;/VideoRecPort>&lt;VideoFrame videoCodec="MPEG2HD35_1920_1080_MP@HL" captureFps="50.00i" recFps="50.00" formatFps="50i">&lt;/VideoFrame>&lt;VideoLayout pixel="1920" numOfVerticalLine="1080" aspectRatio="16:9">&lt;/VideoLayout>&lt;/VideoFormat>&lt;AudioFormat numOfChannel="2">&lt;AudioRecPort port="ANALOG" audioCodec="LPCM16" trackDst="CH1">&lt;/AudioRecPort>&lt;AudioRecPort port="ANALOG" audioCodec="LPCM16" trackDst="CH2">&lt;/AudioRecPort>&lt;/AudioFormat>&lt;Device manufacturer="Sony" modelName="PMW-EX3" serialNo="0401525">&lt;/Device>&lt;Lens modelName="VCL-614B2X">&lt;/Lens>&lt;RecordingMode type="normal" cacheRec="false">&lt;/RecordingMode>&lt;/NonRealTimeMeta>
							</value>
						</metadata>
						<metadata>
							<storage>QuickTime</storage>
							<key>com.apple.proapps.reel</key>
							<size>8</size>
							<type>UTF8</type>
							<value>Untitled</value>
						</metadata>
						<metadata>
							<storage>QuickTime</storage>
							<key>com.apple.proapps.clipID</key>
							<size>64</size>
							<type>UTF8</type>
							<value>060A2B340101010501010D43130000005B233D8A395405C808004602022F05F5</value>
						</metadata>
						<metadata>
							<storage>QuickTime</storage>
							<key>com.apple.quicktime.information</key>
							<size>64</size>
							<type>UTF8</type>
							<value>060a2b340101010501010d43130000005b233d8a395405c808004602022f05f5</value>
						</metadata>
						<metadata>
							<storage>QuickTime</storage>
							<key>com.apple.proapps.originalFormat</key>
							<size>36</size>
							<type>UTF8</type>
							<value>Apple XDCAM EX 1080i50 (35 Mb/s VBR)</value>
						</metadata>
						<timecode>
							<rate>
								<timebase>25</timebase>
							</rate>
							<string>06:38:42:13</string>
							<frame>598063</frame>
							<displayformat>NDF</displayformat>
							<source>source</source>
							<reel>
								<name>Untitled</name>
							</reel>
						</timecode>
						<media>
							<video>
								<duration>549</duration>
								<samplecharacteristics>
									<width>1920</width>
									<height>1080</height>
								</samplecharacteristics>
							</video>
							<audio>
								<samplecharacteristics>
									<samplerate>48000</samplerate>
									<depth>16</depth>
								</samplecharacteristics>
								<channelcount>1</channelcount>
								<layout>mono</layout>
								<audiochannel>
									<sourcechannel>1</sourcechannel>
									<channellabel>discrete</channellabel>
								</audiochannel>
							</audio>
							<audio>
								<samplecharacteristics>
									<samplerate>48000</samplerate>
									<depth>16</depth>
								</samplecharacteristics>
								<channelcount>1</channelcount>
								<layout>mono</layout>
								<audiochannel>
									<sourcechannel>2</sourcechannel>
									<channellabel>discrete</channellabel>
								</audiochannel>
							</audio>
						</media>
					</file>
					<sourcetrack>
						<mediatype>video</mediatype>
					</sourcetrack>
					<link>
						<linkclipref>DYR18101_01 </linkclipref>
						<mediatype>video</mediatype>
						<trackindex>2</trackindex>
						<clipindex>17</clipindex>
					</link>
					<link>
						<linkclipref>DYR18101_01 3</linkclipref>
						<mediatype>audio</mediatype>
						<trackindex>3</trackindex>
						<clipindex>12</clipindex>
					</link>
					<link>
						<linkclipref>DYR18101_01 4</linkclipref>
						<mediatype>audio</mediatype>
						<trackindex>4</trackindex>
						<clipindex>12</clipindex>
					</link>
					<fielddominance>upper</fielddominance>
					<itemhistory>
						<uuid>888F2D03-FB51-47DA-88DF-2740F25D004E</uuid>
					</itemhistory>
				</clipitem>
				<clipitem id="DYR18102_01 11">
					<name>DYR18102_01</name>
					<duration>2259</duration>
					<rate>
						<ntsc>FALSE</ntsc>
						<timebase>25</timebase>
					</rate>
					<in>1392</in>
					<out>1533</out>
					<start>7479</start>
					<end>7620</end>
					<pixelaspectratio>Square</pixelaspectratio>
					<enabled>TRUE</enabled>
					<anamorphic>FALSE</anamorphic>
					<alphatype>none</alphatype>
					<masterclipid>DYR18102_01 1</masterclipid>
					<logginginfo>
						<scene/>
						<shottake/>
						<lognote/>
						<good>FALSE</good>
					</logginginfo>
					<labels>
						<label2/>
					</labels>
					<comments>
						<mastercomment1/>
						<mastercomment2/>
						<mastercomment3/>
						<mastercomment4/>
					</comments>
					<file id="DYR18102_01 2"/>
					<filter>
						<start>-1</start>
						<end>-1</end>
						<effect>
							<name>G Simple Curves +20 white curve</name>
							<effectcategory>Nattress Big Box of Tricks - Levels and Curves</effectcategory>
							<effecttype>filter</effecttype>
							<mediatype>video</mediatype>
							<parameter>
								<parameterid>colourspace</parameterid>
								<name>Colour Space</name>
								<valuemin>1</valuemin>
								<valuemax>2</valuemax>
								<valuelist>
									<valueentry>
										<name>RGB</name>
										<value>1</value>
									</valueentry>
									<valueentry>
										<name>Y'CbCr</name>
										<value>2</value>
									</valueentry>
								</valuelist>
								<value>2</value>
							</parameter>
							<parameter>
								<parameterid>showcurves</parameterid>
								<name>Show Curves</name>
								<value>FALSE</value>
							</parameter>
							<parameter>
								<parameterid>lvar</parameterid>
								<name>Levels Controls</name>
								<value>string</value>
							</parameter>
							<parameter>
								<parameterid>inw</parameterid>
								<name>White Level</name>
								<valuemin>0</valuemin>
								<valuemax>255</valuemax>
								<value>255</value>
							</parameter>
							<parameter>
								<parameterid>inb</parameterid>
								<name>Black Level</name>
								<valuemin>0</valuemin>
								<valuemax>255</valuemax>
								<value>0</value>
							</parameter>
							<parameter>
								<parameterid>outw</parameterid>
								<name>White Output</name>
								<valuemin>0</valuemin>
								<valuemax>255</valuemax>
								<value>255</value>
							</parameter>
							<parameter>
								<parameterid>outb</parameterid>
								<name>Black Output</name>
								<valuemin>0</valuemin>
								<valuemax>255</valuemax>
								<value>0</value>
							</parameter>
							<parameter>
								<parameterid>cvar</parameterid>
								<name>Curves Controls</name>
								<value>string</value>
							</parameter>
							<parameter>
								<parameterid>curvew</parameterid>
								<name>White Curve</name>
								<valuemin>-100</valuemin>
								<valuemax>100</valuemax>
								<value>15</value>
							</parameter>
							<parameter>
								<parameterid>curveb</parameterid>
								<name>Black Curve</name>
								<valuemin>-100</valuemin>
								<valuemax>100</valuemax>
								<value>0</value>
							</parameter>
							<parameter>
								<parameterid>clipoutput</parameterid>
								<name>Clip Output Levels</name>
								<value>TRUE</value>
							</parameter>
							<parameter>
								<parameterid>copyright</parameterid>
								<name>© www.nattress.com</name>
								<value>string</value>
							</parameter>
						</effect>
					</filter>
					<sourcetrack>
						<mediatype>video</mediatype>
					</sourcetrack>
					<fielddominance>upper</fielddominance>
					<itemhistory>
						<uuid>66F49791-B818-4485-8BA3-5D08776F3AC2</uuid>
					</itemhistory>
				</clipitem>
				<clipitem id="DYR18115_01 ">
					<name>DYR18115_01</name>
					<duration>865</duration>
					<rate>
						<ntsc>FALSE</ntsc>
						<timebase>25</timebase>
					</rate>
					<in>374</in>
					<out>459</out>
					<start>8954</start>
					<end>9039</end>
					<pixelaspectratio>Square</pixelaspectratio>
					<enabled>TRUE</enabled>
					<anamorphic>FALSE</anamorphic>
					<alphatype>none</alphatype>
					<masterclipid>DYR18115_01 1</masterclipid>
					<logginginfo>
						<scene/>
						<shottake/>
						<lognote/>
						<good>FALSE</good>
					</logginginfo>
					<labels>
						<label2/>
					</labels>
					<comments>
						<mastercomment1/>
						<mastercomment2/>
						<mastercomment3/>
						<mastercomment4/>
					</comments>
					<file id="DYR18115_01 2">
						<name>DYR18115_01.mov</name>
						<pathurl>file://localhost/Volumes/Askepott/Prosjekter/DNPR637010_Kra%CC%8Akeklubben_TEM_011212/Video/SKOGBARNA/Trollskog/DYR18115_01.mov</pathurl>
						<rate>
							<timebase>25</timebase>
						</rate>
						<duration>865</duration>
						<metadata>
							<storage>QuickTime</storage>
							<key>com.sony.bprl.xdcamtransfer.version</key>
							<size>10</size>
							<type>UTF8</type>
							<value>2.12.0.631</value>
						</metadata>
						<metadata>
							<storage>QuickTime</storage>
							<key>org.smpte.mxf.package.material.packageid</key>
							<size>66</size>
							<type>UTF8</type>
							<value>0x060a2b340101010501010d43130000000e9faf8e395405cc08004602022f05f5</value>
						</metadata>
						<metadata>
							<storage>QuickTime</storage>
							<key>com.sony.professionaldisc.nonrealtimemeta.lastupdate</key>
							<size>25</size>
							<type>UTF8</type>
							<value>2010-08-31 14:23:11 +0100</value>
						</metadata>
						<metadata>
							<storage>QuickTime</storage>
							<key>com.sony.bprl.mxf.umid</key>
							<size>64</size>
							<type>UTF8</type>
							<value>060a2b340101010501010d43130000000e9faf8e395405cc08004602022f05f5</value>
						</metadata>
						<metadata>
							<storage>QuickTime</storage>
							<key>com.sony.bprl.mxf.nrtmetadata</key>
							<size>1991</size>
							<type>UTF8</type>
							<value>&lt;?xml version="1.0" encoding="UTF-8"?>&lt;NonRealTimeMeta xmlns="urn:schemas-professionalDisc:nonRealTimeMeta:ver.1.20" xmlns:lib="urn:schemas-professionalDisc:lib:ver.1.20" xmlns:xsi="http://www.w3.org/2001/XMLSchema-instance" lastUpdate="2010-08-31T14:23:11+01:00">&lt;TargetMaterial umidRef="060A2B340101010501010D43130000000E9FAF8E395405CC08004602022F05F5">&lt;/TargetMaterial>&lt;Duration value="865">&lt;/Duration>&lt;LtcChangeTable tcFps="25" halfStep="false">&lt;LtcChange frameCount="0" value="17085506" status="increment">&lt;/LtcChange>&lt;LtcChange frameCount="864" value="06435506" status="end">&lt;/LtcChange>&lt;/LtcChangeTable>&lt;CreationDate value="2010-08-31T14:22:36+01:00">&lt;/CreationDate>&lt;TypicalUbit value="0000000017061020">&lt;/TypicalUbit>&lt;BodyUmidBasicChangeTable>&lt;BodyUmidBasicChange frameCount="0" value="060A2B340101010501010D43330000000E9FAF8E395405CC08004602022F05F5" status="start">&lt;/BodyUmidBasicChange>&lt;/BodyUmidBasicChangeTable>&lt;BodyUmidWhenChangeTable>&lt;BodyUmidWhenChange frameCount="0" value="44B49704395405A5" status="increment">&lt;/BodyUmidWhenChange>&lt;BodyUmidWhenChange frameCount="864" value="448C9804395405A5" status="end">&lt;/BodyUmidWhenChange>&lt;/BodyUmidWhenChangeTable>&lt;KlvPacketTable>&lt;KlvPacket key="060E2B34010101050301020A02000000" frameCount="0" lengthValue="095F5265635374617274" status="spot">&lt;/KlvPacket>&lt;/KlvPacketTable>&lt;VideoFormat>&lt;VideoRecPort port="DIRECT">&lt;/VideoRecPort>&lt;VideoFrame videoCodec="MPEG2HD35_1920_1080_MP@HL" captureFps="50.00i" recFps="50.00" formatFps="50i">&lt;/VideoFrame>&lt;VideoLayout pixel="1920" numOfVerticalLine="1080" aspectRatio="16:9">&lt;/VideoLayout>&lt;/VideoFormat>&lt;AudioFormat numOfChannel="2">&lt;AudioRecPort port="ANALOG" audioCodec="LPCM16" trackDst="CH1">&lt;/AudioRecPort>&lt;AudioRecPort port="ANALOG" audioCodec="LPCM16" trackDst="CH2">&lt;/AudioRecPort>&lt;/AudioFormat>&lt;Device manufacturer="Sony" modelName="PMW-EX3" serialNo="0401525">&lt;/Device>&lt;Lens modelName="VCL-614B2X">&lt;/Lens>&lt;RecordingMode type="normal" cacheRec="false">&lt;/RecordingMode>&lt;/NonRealTimeMeta>
							</value>
						</metadata>
						<metadata>
							<storage>QuickTime</storage>
							<key>com.apple.proapps.reel</key>
							<size>8</size>
							<type>UTF8</type>
							<value>Untitled</value>
						</metadata>
						<metadata>
							<storage>QuickTime</storage>
							<key>com.apple.proapps.clipID</key>
							<size>64</size>
							<type>UTF8</type>
							<value>060A2B340101010501010D43130000000E9FAF8E395405CC08004602022F05F5</value>
						</metadata>
						<metadata>
							<storage>QuickTime</storage>
							<key>com.apple.quicktime.information</key>
							<size>64</size>
							<type>UTF8</type>
							<value>060a2b340101010501010d43130000000e9faf8e395405cc08004602022f05f5</value>
						</metadata>
						<metadata>
							<storage>QuickTime</storage>
							<key>com.apple.proapps.originalFormat</key>
							<size>36</size>
							<type>UTF8</type>
							<value>Apple XDCAM EX 1080i50 (35 Mb/s VBR)</value>
						</metadata>
						<timecode>
							<rate>
								<timebase>25</timebase>
							</rate>
							<string>06:55:08:17</string>
							<frame>622717</frame>
							<displayformat>NDF</displayformat>
							<source>source</source>
							<reel>
								<name>Untitled</name>
							</reel>
						</timecode>
						<media>
							<video>
								<duration>865</duration>
								<samplecharacteristics>
									<width>1920</width>
									<height>1080</height>
								</samplecharacteristics>
							</video>
							<audio>
								<samplecharacteristics>
									<samplerate>48000</samplerate>
									<depth>16</depth>
								</samplecharacteristics>
								<channelcount>1</channelcount>
								<layout>mono</layout>
								<audiochannel>
									<sourcechannel>1</sourcechannel>
									<channellabel>discrete</channellabel>
								</audiochannel>
							</audio>
							<audio>
								<samplecharacteristics>
									<samplerate>48000</samplerate>
									<depth>16</depth>
								</samplecharacteristics>
								<channelcount>1</channelcount>
								<layout>mono</layout>
								<audiochannel>
									<sourcechannel>2</sourcechannel>
									<channellabel>discrete</channellabel>
								</audiochannel>
							</audio>
						</media>
					</file>
					<sourcetrack>
						<mediatype>video</mediatype>
					</sourcetrack>
					<fielddominance>upper</fielddominance>
					<itemhistory>
						<uuid>7660DD15-6D33-4823-AEF8-D1E06FCFCEB6</uuid>
					</itemhistory>
				</clipitem>
				<clipitem id="rev oppskalert3">
					<name>rev oppskalert</name>
					<duration>859</duration>
					<rate>
						<ntsc>FALSE</ntsc>
						<timebase>25</timebase>
					</rate>
					<in>12</in>
					<out>81</out>
					<start>10493</start>
					<end>10562</end>
					<pixelaspectratio>Square</pixelaspectratio>
					<enabled>TRUE</enabled>
					<anamorphic>FALSE</anamorphic>
					<alphatype>none</alphatype>
					<masterclipid>rev oppskalert1</masterclipid>
					<logginginfo>
						<scene/>
						<shottake/>
						<lognote/>
						<good>FALSE</good>
					</logginginfo>
					<labels>
						<label2/>
					</labels>
					<comments>
						<mastercomment1/>
						<mastercomment2/>
						<mastercomment3/>
						<mastercomment4/>
					</comments>
					<file id="rev oppskalert2"/>
					<filter>
						<effect>
							<name>Basic Motion</name>
							<effectid>basic</effectid>
							<effectcategory>motion</effectcategory>
							<effecttype>motion</effecttype>
							<mediatype>video</mediatype>
							<parameter>
								<parameterid>scale</parameterid>
								<name>Scale</name>
								<valuemin>0</valuemin>
								<valuemax>1000</valuemax>
								<value>100</value>
							</parameter>
							<parameter>
								<parameterid>rotation</parameterid>
								<name>Rotation</name>
								<valuemin>-8640</valuemin>
								<valuemax>8640</valuemax>
								<value>0</value>
							</parameter>
							<parameter>
								<parameterid>center</parameterid>
								<name>Center</name>
								<keyframe>
									<when>12</when>
									<value>
										<horiz>1.00545</horiz>
										<vert>0</vert>
									</value>
								</keyframe>
								<keyframe>
									<when>14</when>
									<value>
										<horiz>0.949205</horiz>
										<vert>0</vert>
									</value>
								</keyframe>
								<keyframe>
									<when>16</when>
									<value>
										<horiz>0.855455</horiz>
										<vert>0</vert>
									</value>
								</keyframe>
								<keyframe>
									<when>17</when>
									<value>
										<horiz>0.814482</horiz>
										<vert>0</vert>
									</value>
								</keyframe>
								<keyframe>
									<when>19</when>
									<value>
										<horiz>0.670038</horiz>
										<vert>0</vert>
									</value>
								</keyframe>
								<keyframe>
									<when>22</when>
									<value>
										<horiz>0.426043</horiz>
										<vert>0</vert>
									</value>
								</keyframe>
								<keyframe>
									<when>25</when>
									<value>
										<horiz>0.178255</horiz>
										<vert>0</vert>
									</value>
								</keyframe>
								<keyframe>
									<when>27</when>
									<value>
										<horiz>0.00758533</horiz>
										<vert>0</vert>
									</value>
								</keyframe>
								<keyframe>
									<when>28</when>
									<value>
										<horiz>0</horiz>
										<vert>0</vert>
									</value>
								</keyframe>
								<interpolation>
									<name>FCPCurve</name>
								</interpolation>
							</parameter>
							<parameter>
								<parameterid>centerOffset</parameterid>
								<name>Anchor Point</name>
								<value>
									<horiz>0</horiz>
									<vert>0</vert>
								</value>
							</parameter>
						</effect>
					</filter>
					<sourcetrack>
						<mediatype>video</mediatype>
					</sourcetrack>
					<fielddominance>upper</fielddominance>
					<itemhistory>
						<uuid>7DDE8564-0EF7-4A53-B6D5-24131F352362</uuid>
					</itemhistory>
				</clipitem>
				<clipitem id="rev oppskalert4">
					<name>rev oppskalert</name>
					<duration>859</duration>
					<rate>
						<ntsc>FALSE</ntsc>
						<timebase>25</timebase>
					</rate>
					<in>143</in>
					<out>245</out>
					<start>10562</start>
					<end>10664</end>
					<pixelaspectratio>Square</pixelaspectratio>
					<enabled>TRUE</enabled>
					<anamorphic>FALSE</anamorphic>
					<alphatype>none</alphatype>
					<masterclipid>rev oppskalert1</masterclipid>
					<logginginfo>
						<scene/>
						<shottake/>
						<lognote/>
						<good>FALSE</good>
					</logginginfo>
					<labels>
						<label2/>
					</labels>
					<comments>
						<mastercomment1/>
						<mastercomment2/>
						<mastercomment3/>
						<mastercomment4/>
					</comments>
					<file id="rev oppskalert2"/>
					<sourcetrack>
						<mediatype>video</mediatype>
					</sourcetrack>
					<fielddominance>upper</fielddominance>
					<itemhistory>
						<uuid>2B8535E6-C18E-43BC-BB49-E57E7C1BC214</uuid>
					</itemhistory>
				</clipitem>
				<clipitem id="gnager oppskalert3">
					<name>gnager oppskalert</name>
					<duration>268</duration>
					<rate>
						<ntsc>FALSE</ntsc>
						<timebase>25</timebase>
					</rate>
					<in>31</in>
					<out>156</out>
					<start>11012</start>
					<end>11137</end>
					<pixelaspectratio>Square</pixelaspectratio>
					<enabled>TRUE</enabled>
					<anamorphic>FALSE</anamorphic>
					<alphatype>none</alphatype>
					<masterclipid>gnager oppskalert1</masterclipid>
					<logginginfo>
						<scene/>
						<shottake/>
						<lognote/>
						<good>FALSE</good>
					</logginginfo>
					<labels>
						<label2/>
					</labels>
					<comments>
						<mastercomment1/>
						<mastercomment2/>
						<mastercomment3/>
						<mastercomment4/>
					</comments>
					<file id="gnager oppskalert2"/>
					<filter>
						<effect>
							<name>Basic Motion</name>
							<effectid>basic</effectid>
							<effectcategory>motion</effectcategory>
							<effecttype>motion</effecttype>
							<mediatype>video</mediatype>
							<parameter>
								<parameterid>scale</parameterid>
								<name>Scale</name>
								<valuemin>0</valuemin>
								<valuemax>1000</valuemax>
								<value>117</value>
							</parameter>
							<parameter>
								<parameterid>rotation</parameterid>
								<name>Rotation</name>
								<valuemin>-8640</valuemin>
								<valuemax>8640</valuemax>
								<keyframe>
									<when>31</when>
									<value>0</value>
								</keyframe>
								<keyframe>
									<when>33</when>
									<value>2</value>
								</keyframe>
								<keyframe>
									<when>36</when>
									<value>5</value>
								</keyframe>
								<keyframe>
									<when>40</when>
									<value>8</value>
								</keyframe>
								<keyframe>
									<when>42</when>
									<value>7</value>
								</keyframe>
								<keyframe>
									<when>44</when>
									<value>4</value>
								</keyframe>
								<interpolation>
									<name>FCPCurve</name>
								</interpolation>
								<value>4</value>
							</parameter>
							<parameter>
								<parameterid>center</parameterid>
								<name>Center</name>
								<keyframe>
									<when>31</when>
									<value>
										<horiz>0</horiz>
										<vert>-1.09409</vert>
									</value>
								</keyframe>
								<keyframe>
									<when>33</when>
									<value>
										<horiz>0</horiz>
										<vert>-0.886688</vert>
									</value>
								</keyframe>
								<keyframe>
									<when>36</when>
									<value>
										<horiz>0</horiz>
										<vert>-0.623725</vert>
									</value>
								</keyframe>
								<keyframe>
									<when>40</when>
									<value>
										<horiz>0</horiz>
										<vert>-0.32538</vert>
									</value>
								</keyframe>
								<keyframe>
									<when>42</when>
									<value>
										<horiz>0</horiz>
										<vert>-0.16269</vert>
									</value>
								</keyframe>
								<keyframe>
									<when>44</when>
									<value>
										<horiz>0</horiz>
										<vert>0</vert>
									</value>
								</keyframe>
								<interpolation>
									<name>FCPCurve</name>
								</interpolation>
							</parameter>
							<parameter>
								<parameterid>centerOffset</parameterid>
								<name>Anchor Point</name>
								<value>
									<horiz>0</horiz>
									<vert>0</vert>
								</value>
							</parameter>
						</effect>
					</filter>
					<sourcetrack>
						<mediatype>video</mediatype>
					</sourcetrack>
					<fielddominance>upper</fielddominance>
					<itemhistory>
						<uuid>349BE2E1-3AF1-4A81-ADC2-1B5C735E2FBC</uuid>
					</itemhistory>
				</clipitem>
				<clipitem id="MVI_9330 - eremittkreps2 ">
					<name>MVI_9330 - eremittkreps2</name>
					<duration>580</duration>
					<rate>
						<ntsc>FALSE</ntsc>
						<timebase>25</timebase>
					</rate>
					<in>93</in>
					<out>235</out>
					<start>11344</start>
					<end>-1</end>
					<pixelaspectratio>Square</pixelaspectratio>
					<enabled>TRUE</enabled>
					<anamorphic>FALSE</anamorphic>
					<alphatype>none</alphatype>
					<masterclipid>MVI_9330 - eremittkreps2 1</masterclipid>
					<logginginfo>
						<scene/>
						<shottake/>
						<lognote/>
						<good>FALSE</good>
					</logginginfo>
					<labels>
						<label2/>
					</labels>
					<comments>
						<mastercomment1/>
						<mastercomment2/>
						<mastercomment3/>
						<mastercomment4/>
					</comments>
					<file id="MVI_9330 - eremittkreps2 2">
						<name>MVI_9330 - eremittkreps2.mov</name>
						<pathurl>file://localhost/Volumes/Askepott/Prosjekter/DNPR637010_Kra%CC%8Akeklubben_TEM_011212/Video/MELLOMSTIKK/S01E05%20Dyrebolig/Arkiv/MVI_9330%20-%20eremittkreps2.mov</pathurl>
						<rate>
							<timebase>25</timebase>
						</rate>
						<duration>580</duration>
						<media>
							<video>
								<duration>580</duration>
								<samplecharacteristics>
									<width>1920</width>
									<height>1080</height>
								</samplecharacteristics>
							</video>
						</media>
					</file>
					<filter>
						<enabled>TRUE</enabled>
						<start>-1</start>
						<end>-1</end>
						<effect>
							<name>G Simple Curves</name>
							<effectcategory>Nattress Big Box of Tricks - Levels and Curves</effectcategory>
							<effecttype>filter</effecttype>
							<mediatype>video</mediatype>
							<parameter>
								<parameterid>colourspace</parameterid>
								<name>Colour Space</name>
								<valuemin>1</valuemin>
								<valuemax>2</valuemax>
								<valuelist>
									<valueentry>
										<name>RGB</name>
										<value>1</value>
									</valueentry>
									<valueentry>
										<name>Y'CbCr</name>
										<value>2</value>
									</valueentry>
								</valuelist>
								<value>1</value>
							</parameter>
							<parameter>
								<parameterid>showcurves</parameterid>
								<name>Show Curves</name>
								<value>FALSE</value>
							</parameter>
							<parameter>
								<parameterid>lvar</parameterid>
								<name>Levels Controls</name>
								<value>string</value>
							</parameter>
							<parameter>
								<parameterid>inw</parameterid>
								<name>White Level</name>
								<valuemin>0</valuemin>
								<valuemax>255</valuemax>
								<value>255</value>
							</parameter>
							<parameter>
								<parameterid>inb</parameterid>
								<name>Black Level</name>
								<valuemin>0</valuemin>
								<valuemax>255</valuemax>
								<value>0</value>
							</parameter>
							<parameter>
								<parameterid>outw</parameterid>
								<name>White Output</name>
								<valuemin>0</valuemin>
								<valuemax>255</valuemax>
								<value>255</value>
							</parameter>
							<parameter>
								<parameterid>outb</parameterid>
								<name>Black Output</name>
								<valuemin>0</valuemin>
								<valuemax>255</valuemax>
								<value>0</value>
							</parameter>
							<parameter>
								<parameterid>cvar</parameterid>
								<name>Curves Controls</name>
								<value>string</value>
							</parameter>
							<parameter>
								<parameterid>curvew</parameterid>
								<name>White Curve</name>
								<valuemin>-100</valuemin>
								<valuemax>100</valuemax>
								<value>33</value>
							</parameter>
							<parameter>
								<parameterid>curveb</parameterid>
								<name>Black Curve</name>
								<valuemin>-100</valuemin>
								<valuemax>100</valuemax>
								<value>0</value>
							</parameter>
							<parameter>
								<parameterid>clipoutput</parameterid>
								<name>Clip Output Levels</name>
								<value>TRUE</value>
							</parameter>
							<parameter>
								<parameterid>copyright</parameterid>
								<name>© www.nattress.com</name>
								<value>string</value>
							</parameter>
						</effect>
					</filter>
					<filter>
						<effect>
							<name>Basic Motion</name>
							<effectid>basic</effectid>
							<effectcategory>motion</effectcategory>
							<effecttype>motion</effecttype>
							<mediatype>video</mediatype>
							<parameter>
								<parameterid>scale</parameterid>
								<name>Scale</name>
								<valuemin>0</valuemin>
								<valuemax>1000</valuemax>
								<value>100</value>
							</parameter>
							<parameter>
								<parameterid>rotation</parameterid>
								<name>Rotation</name>
								<valuemin>-8640</valuemin>
								<valuemax>8640</valuemax>
								<value>0</value>
							</parameter>
							<parameter>
								<parameterid>center</parameterid>
								<name>Center</name>
								<keyframe>
									<when>90</when>
									<value>
										<horiz>-1.00833</horiz>
										<vert>0</vert>
									</value>
								</keyframe>
								<keyframe>
									<when>93</when>
									<value>
										<horiz>-1.00833</horiz>
										<vert>0</vert>
									</value>
								</keyframe>
								<keyframe>
									<when>95</when>
									<value>
										<horiz>-0.9875</horiz>
										<vert>0</vert>
									</value>
								</keyframe>
								<keyframe>
									<when>99</when>
									<value>
										<horiz>-0.908333</horiz>
										<vert>0</vert>
									</value>
								</keyframe>
								<keyframe>
									<when>103</when>
									<value>
										<horiz>-0.791667</horiz>
										<vert>0</vert>
									</value>
								</keyframe>
								<keyframe>
									<when>107</when>
									<value>
										<horiz>-0.658333</horiz>
										<vert>0</vert>
									</value>
								</keyframe>
								<keyframe>
									<when>112</when>
									<value>
										<horiz>-0.4625</horiz>
										<vert>0</vert>
									</value>
								</keyframe>
								<keyframe>
									<when>117</when>
									<value>
										<horiz>-0.2875</horiz>
										<vert>0</vert>
									</value>
								</keyframe>
								<keyframe>
									<when>122</when>
									<value>
										<horiz>-0.120833</horiz>
										<vert>0</vert>
									</value>
								</keyframe>
								<keyframe>
									<when>126</when>
									<value>
										<horiz>0</horiz>
										<vert>0</vert>
									</value>
								</keyframe>
								<interpolation>
									<name>FCPCurve</name>
								</interpolation>
							</parameter>
							<parameter>
								<parameterid>centerOffset</parameterid>
								<name>Anchor Point</name>
								<value>
									<horiz>0</horiz>
									<vert>0</vert>
								</value>
							</parameter>
						</effect>
					</filter>
					<sourcetrack>
						<mediatype>video</mediatype>
					</sourcetrack>
					<fielddominance>upper</fielddominance>
					<itemhistory>
						<uuid>553299FE-0432-44E5-9F66-4E346183F1D2</uuid>
					</itemhistory>
				</clipitem>
				<transitionitem>
					<rate>
						<ntsc>FALSE</ntsc>
						<timebase>25</timebase>
					</rate>
					<start>11461</start>
					<end>11486</end>
					<alignment>center</alignment>
					<effect>
						<name>Cross Dissolve</name>
						<effectid>Cross Dissolve</effectid>
						<effectcategory>Dissolve</effectcategory>
						<effecttype>transition</effecttype>
						<mediatype>video</mediatype>
						<wipecode>0</wipecode>
						<wipeaccuracy>100</wipeaccuracy>
						<startratio>0</startratio>
						<endratio>1</endratio>
						<reverse>FALSE</reverse>
					</effect>
				</transitionitem>
				<clipitem id="MVI_0644 ">
					<name>MVI_0644</name>
					<duration>1059</duration>
					<rate>
						<ntsc>FALSE</ntsc>
						<timebase>25</timebase>
					</rate>
					<in>102</in>
					<out>227</out>
					<start>-1</start>
					<end>-1</end>
					<pixelaspectratio>Square</pixelaspectratio>
					<enabled>TRUE</enabled>
					<anamorphic>FALSE</anamorphic>
					<alphatype>none</alphatype>
					<masterclipid>MVI_0644 1</masterclipid>
					<logginginfo>
						<scene/>
						<shottake/>
						<lognote/>
						<good>FALSE</good>
					</logginginfo>
					<labels>
						<label2/>
					</labels>
					<comments>
						<mastercomment1/>
						<mastercomment2/>
						<mastercomment3/>
						<mastercomment4/>
					</comments>
					<file id="MVI_0644 2">
						<name>MVI_0644.mov</name>
						<pathurl>file://localhost/Volumes/Askepott/Prosjekter/DNPR637010_Kra%CC%8Akeklubben_TEM_011212/Video/TORDS%20GARASJE/Insekt/Snegle/Apple%20ProRes%20422%20HQ/MVI_0644.mov</pathurl>
						<rate>
							<timebase>25</timebase>
						</rate>
						<duration>1059</duration>
						<media>
							<video>
								<duration>1059</duration>
								<samplecharacteristics>
									<width>1920</width>
									<height>1080</height>
								</samplecharacteristics>
							</video>
						</media>
					</file>
					<sourcetrack>
						<mediatype>video</mediatype>
					</sourcetrack>
					<fielddominance>upper</fielddominance>
					<itemhistory>
						<uuid>CF9CCC10-54A1-4B81-8BB1-AE3107D2BF9F</uuid>
					</itemhistory>
				</clipitem>
				<transitionitem>
					<rate>
						<ntsc>FALSE</ntsc>
						<timebase>25</timebase>
					</rate>
					<start>11571</start>
					<end>11586</end>
					<alignment>center</alignment>
					<effect>
						<name>G Lens Flare Musikkvideo</name>
						<effectcategory>Nattress Big Box Of Tricks</effectcategory>
						<effecttype>transition</effecttype>
						<mediatype>video</mediatype>
						<startratio>0</startratio>
						<endratio>1</endratio>
						<reverse>FALSE</reverse>
						<parameter>
							<parameterid>dispvar1</parameterid>
							<name>Display Settings</name>
							<value>string</value>
						</parameter>
						<parameter>
							<parameterid>inputvar1</parameterid>
							<name>Flare Position</name>
							<value>string</value>
						</parameter>
						<parameter>
							<parameterid>theangle</parameterid>
							<name>Transition Direction</name>
							<valuemin>-360</valuemin>
							<valuemax>360</valuemax>
							<value>90</value>
						</parameter>
						<parameter>
							<parameterid>transitionblendduration</parameterid>
							<name>Blend Duration</name>
							<valuemin>0</valuemin>
							<valuemax>100</valuemax>
							<value>50</value>
						</parameter>
						<parameter>
							<parameterid>settingsvar1</parameterid>
							<name>Flare Settings</name>
							<value>string</value>
						</parameter>
						<parameter>
							<parameterid>presets</parameterid>
							<name>Preset Select</name>
							<valuemin>1</valuemin>
							<valuemax>4</valuemax>
							<valuelist>
								<valueentry>
									<name>Custom Controls</name>
									<value>1</value>
								</valueentry>
								<valueentry>
									<name>Other End of the Rainbow</name>
									<value>2</value>
								</valueentry>
								<valueentry>
									<name>Photon</name>
									<value>3</value>
								</valueentry>
								<valueentry>
									<name>Gaudy</name>
									<value>4</value>
								</valueentry>
							</valuelist>
							<value>2</value>
						</parameter>
						<parameter>
							<parameterid>randomevolution</parameterid>
							<name>Randomness Evolution</name>
							<valuemin>0</valuemin>
							<valuemax>1</valuemax>
							<value>0.05</value>
						</parameter>
						<parameter>
							<parameterid>flareaspect</parameterid>
							<name>Aspect</name>
							<valuemin>0.1</valuemin>
							<valuemax>10</valuemax>
							<value>1</value>
						</parameter>
						<parameter>
							<parameterid>flareintensity</parameterid>
							<name>Overall Intensity</name>
							<valuemin>0</valuemin>
							<valuemax>400</valuemax>
							<value>300</value>
						</parameter>
						<parameter>
							<parameterid>therandomseed</parameterid>
							<name>Random Seed</name>
							<valuemin>0</valuemin>
							<valuemax>100</valuemax>
							<value>100</value>
						</parameter>
						<parameter>
							<parameterid>settingsvar2</parameterid>
							<name>   Bloom</name>
							<value>string</value>
						</parameter>
						<parameter>
							<parameterid>bloomon</parameterid>
							<name>Bloom On?</name>
							<value>TRUE</value>
						</parameter>
						<parameter>
							<parameterid>bloomcolour</parameterid>
							<name>Bloom Colour</name>
							<value>
								<alpha>255</alpha>
								<red>218</red>
								<green>224</green>
								<blue>254</blue>
							</value>
						</parameter>
						<parameter>
							<parameterid>bloomcolourfromimage</parameterid>
							<name>Use Image for Bloom Colour?</name>
							<value>FALSE</value>
						</parameter>
						<parameter>
							<parameterid>bloomintensity</parameterid>
							<name>Intensity</name>
							<valuemin>0</valuemin>
							<valuemax>100</valuemax>
							<value>90</value>
						</parameter>
						<parameter>
							<parameterid>bloomradius</parameterid>
							<name>Radius</name>
							<valuemin>0</valuemin>
							<valuemax>200</valuemax>
							<value>45</value>
						</parameter>
						<parameter>
							<parameterid>bloomfalloff</parameterid>
							<name>Fall Off</name>
							<valuemin>0</valuemin>
							<valuemax>100</valuemax>
							<value>75</value>
						</parameter>
						<parameter>
							<parameterid>bloomstarry</parameterid>
							<name>Starry</name>
							<valuemin>0</valuemin>
							<valuemax>100</valuemax>
							<value>10</value>
						</parameter>
						<parameter>
							<parameterid>bloomstarpoints</parameterid>
							<name>Star Points</name>
							<valuemin>0</valuemin>
							<valuemax>100</valuemax>
							<value>7</value>
						</parameter>
						<parameter>
							<parameterid>settingsvar3</parameterid>
							<name>   StarBurst</name>
							<value>string</value>
						</parameter>
						<parameter>
							<parameterid>starburston</parameterid>
							<name>StarBurst On?</name>
							<value>TRUE</value>
						</parameter>
						<parameter>
							<parameterid>starburstcolour</parameterid>
							<name>StarBurst Colour</name>
							<value>
								<alpha>255</alpha>
								<red>254</red>
								<green>224</green>
								<blue>218</blue>
							</value>
						</parameter>
						<parameter>
							<parameterid>starburstintensity</parameterid>
							<name>Intensity</name>
							<valuemin>0</valuemin>
							<valuemax>100</valuemax>
							<value>75</value>
						</parameter>
						<parameter>
							<parameterid>starburstradius</parameterid>
							<name>Radius</name>
							<valuemin>0</valuemin>
							<valuemax>150</valuemax>
							<value>75</value>
						</parameter>
						<parameter>
							<parameterid>starburststarpoints</parameterid>
							<name>Star Points</name>
							<valuemin>0</valuemin>
							<valuemax>200</valuemax>
							<value>90</value>
						</parameter>
						<parameter>
							<parameterid>starcentre</parameterid>
							<name>Centre Size</name>
							<valuemin>0</valuemin>
							<valuemax>100</valuemax>
							<value>75</value>
						</parameter>
						<parameter>
							<parameterid>starfalloff</parameterid>
							<name>Fall Off</name>
							<valuemin>0</valuemin>
							<valuemax>100</valuemax>
							<value>75</value>
						</parameter>
						<parameter>
							<parameterid>starburstrandom</parameterid>
							<name>Randomness</name>
							<valuemin>0</valuemin>
							<valuemax>4</valuemax>
							<value>0.4</value>
						</parameter>
						<parameter>
							<parameterid>settingsvar4</parameterid>
							<name>   Rainbow</name>
							<value>string</value>
						</parameter>
						<parameter>
							<parameterid>rainbowon</parameterid>
							<name>Rainbow On?</name>
							<value>TRUE</value>
						</parameter>
						<parameter>
							<parameterid>rainbowcolors</parameterid>
							<name>Colour Type</name>
							<valuemin>1</valuemin>
							<valuemax>2</valuemax>
							<valuelist>
								<valueentry>
									<name>Rainbow</name>
									<value>1</value>
								</valueentry>
								<valueentry>
									<name>User Colour</name>
									<value>2</value>
								</valueentry>
							</valuelist>
							<value>1</value>
						</parameter>
						<parameter>
							<parameterid>rainbowusercolor</parameterid>
							<name>User Colour</name>
							<value>
								<alpha>255</alpha>
								<red>230</red>
								<green>110</green>
								<blue>22</blue>
							</value>
						</parameter>
						<parameter>
							<parameterid>rainbowposition</parameterid>
							<name>Position</name>
							<valuemin>-200</valuemin>
							<valuemax>200</valuemax>
							<value>100</value>
						</parameter>
						<parameter>
							<parameterid>rainbowintensity</parameterid>
							<name>Intensity</name>
							<valuemin>0</valuemin>
							<valuemax>100</valuemax>
							<value>20</value>
						</parameter>
						<parameter>
							<parameterid>rainbowradius</parameterid>
							<name>Radius</name>
							<valuemin>0</valuemin>
							<valuemax>200</valuemax>
							<value>50</value>
						</parameter>
						<parameter>
							<parameterid>rainbowthickness</parameterid>
							<name>Thickness</name>
							<valuemin>0</valuemin>
							<valuemax>1</valuemax>
							<value>0.15</value>
						</parameter>
						<parameter>
							<parameterid>rainbowsharpness</parameterid>
							<name>Sharpness</name>
							<valuemin>0</valuemin>
							<valuemax>1</valuemax>
							<value>0.65</value>
						</parameter>
						<parameter>
							<parameterid>settingsvar5</parameterid>
							<name>   Spots</name>
							<value>string</value>
						</parameter>
						<parameter>
							<parameterid>spotson</parameterid>
							<name>Spots On?</name>
							<value>TRUE</value>
						</parameter>
						<parameter>
							<parameterid>spotsnumber</parameterid>
							<name>Number</name>
							<valuemin>0</valuemin>
							<valuemax>100</valuemax>
							<value>12</value>
						</parameter>
						<parameter>
							<parameterid>spotsintensity</parameterid>
							<name>Intensity</name>
							<valuemin>0</valuemin>
							<valuemax>100</valuemax>
							<value>80</value>
						</parameter>
						<parameter>
							<parameterid>spotsradius</parameterid>
							<name>Radius</name>
							<valuemin>0</valuemin>
							<valuemax>150</valuemax>
							<value>30</value>
						</parameter>
						<parameter>
							<parameterid>spotsdisky</parameterid>
							<name>Disky</name>
							<valuemin>0</valuemin>
							<valuemax>100</valuemax>
							<value>75</value>
						</parameter>
						<parameter>
							<parameterid>spotsringy</parameterid>
							<name>Ringy</name>
							<valuemin>0</valuemin>
							<valuemax>100</valuemax>
							<value>75</value>
						</parameter>
						<parameter>
							<parameterid>spotsblotty</parameterid>
							<name>Blotty</name>
							<valuemin>0</valuemin>
							<valuemax>100</valuemax>
							<value>75</value>
						</parameter>
						<parameter>
							<parameterid>spotsbloony</parameterid>
							<name>Bloony</name>
							<valuemin>0</valuemin>
							<valuemax>100</valuemax>
							<value>75</value>
						</parameter>
						<parameter>
							<parameterid>spotsvarycolour</parameterid>
							<name>Vary Colour</name>
							<valuemin>0</valuemin>
							<valuemax>100</valuemax>
							<value>31</value>
						</parameter>
						<parameter>
							<parameterid>spotsbasehue</parameterid>
							<name>Base Hue</name>
							<valuemin>0</valuemin>
							<valuemax>100</valuemax>
							<value>72</value>
						</parameter>
						<parameter>
							<parameterid>spotssaturation</parameterid>
							<name>Saturation</name>
							<valuemin>0</valuemin>
							<valuemax>100</valuemax>
							<value>20</value>
						</parameter>
						<parameter>
							<parameterid>copyright</parameterid>
							<name>©www.nattress.com</name>
							<value>string</value>
						</parameter>
					</effect>
				</transitionitem>
				<clipitem id="00731001.MOV">
					<name>00731001.MOV</name>
					<duration>1008</duration>
					<rate>
						<ntsc>FALSE</ntsc>
						<timebase>25</timebase>
					</rate>
					<in>211</in>
					<out>911</out>
					<start>-1</start>
					<end>12271</end>
					<pixelaspectratio>Square</pixelaspectratio>
					<enabled>TRUE</enabled>
					<anamorphic>FALSE</anamorphic>
					<alphatype>none</alphatype>
					<masterclipid>00731001.MOV1</masterclipid>
					<logginginfo>
						<scene/>
						<shottake/>
						<lognote/>
						<good>FALSE</good>
					</logginginfo>
					<labels>
						<label2/>
					</labels>
					<comments>
						<mastercomment1/>
						<mastercomment2/>
						<mastercomment3/>
						<mastercomment4/>
					</comments>
					<file id="00731001 ">
						<name>00731001.MOV</name>
						<pathurl>file://localhost/Volumes/Askepott/Prosjekter/DNPR637010_Kra%CC%8Akeklubben_TEM_011212/Video/MELLOMSTIKK/S01E05%20Dyrebolig/00731001.MOV</pathurl>
						<rate>
							<timebase>25</timebase>
						</rate>
						<duration>1008</duration>
						<timecode>
							<rate>
								<timebase>25</timebase>
							</rate>
							<string>17:59:35:24</string>
							<frame>1619399</frame>
							<displayformat>NDF</displayformat>
							<source>source</source>
							<reel>
								<name>Flash XDR</name>
							</reel>
						</timecode>
						<media>
							<video>
								<duration>1008</duration>
								<samplecharacteristics>
									<width>1920</width>
									<height>1080</height>
								</samplecharacteristics>
							</video>
							<audio>
								<samplecharacteristics>
									<samplerate>48000</samplerate>
									<depth>24</depth>
								</samplecharacteristics>
								<channelcount>1</channelcount>
							</audio>
							<audio>
								<samplecharacteristics>
									<samplerate>48000</samplerate>
									<depth>24</depth>
								</samplecharacteristics>
								<channelcount>1</channelcount>
							</audio>
						</media>
					</file>
					<sourcetrack>
						<mediatype>video</mediatype>
					</sourcetrack>
					<link>
						<linkclipref>00731001.MOV</linkclipref>
						<mediatype>video</mediatype>
						<trackindex>2</trackindex>
						<clipindex>27</clipindex>
					</link>
					<link>
						<linkclipref>00731001.MOV2</linkclipref>
						<mediatype>audio</mediatype>
						<trackindex>1</trackindex>
						<clipindex>94</clipindex>
					</link>
					<link>
						<linkclipref>00731001.MOV3</linkclipref>
						<mediatype>audio</mediatype>
						<trackindex>2</trackindex>
						<clipindex>98</clipindex>
					</link>
					<fielddominance>upper</fielddominance>
					<itemhistory>
						<uuid>C6775B83-98C6-40B2-A380-740A22333889</uuid>
					</itemhistory>
				</clipitem>
				<clipitem id="S1E5 mot vannkant AFX v3 ">
					<name>S1E5 mot vannkant AFX v3</name>
					<duration>391</duration>
					<rate>
						<ntsc>FALSE</ntsc>
						<timebase>25</timebase>
					</rate>
					<in>0</in>
					<out>156</out>
					<start>12271</start>
					<end>-1</end>
					<pixelaspectratio>Square</pixelaspectratio>
					<enabled>TRUE</enabled>
					<anamorphic>FALSE</anamorphic>
					<alphatype>none</alphatype>
					<logginginfo>
						<scene/>
						<shottake/>
						<lognote/>
						<good>FALSE</good>
					</logginginfo>
					<labels>
						<label2/>
					</labels>
					<comments>
						<mastercomment1/>
						<mastercomment2/>
						<mastercomment3/>
						<mastercomment4/>
					</comments>
					<file id="S1E5 mot vannkant AFX v3 1">
						<name>S1E5 mot vannkant AFX v3.mov</name>
						<pathurl>file://localhost/Volumes/Askepott/Prosjekter/DNPR637010_Kra%CC%8Akeklubben_TEM_011212/Eksport/S01E05/S1E5%20mot%20vannkant%20AFX%20v3.mov</pathurl>
						<rate>
							<timebase>25</timebase>
						</rate>
						<duration>353</duration>
						<timecode>
							<rate>
								<timebase>25</timebase>
							</rate>
							<string>00:00:00:00</string>
							<frame>0</frame>
							<displayformat>NDF</displayformat>
							<source>source</source>
						</timecode>
						<media>
							<video>
								<duration>353</duration>
								<samplecharacteristics>
									<width>1920</width>
									<height>1080</height>
								</samplecharacteristics>
							</video>
						</media>
					</file>
					<filter>
						<enabled>TRUE</enabled>
						<start>-1</start>
						<end>-1</end>
						<effect>
							<name>G Simple Curves +20 white curve</name>
							<effectcategory>Nattress Big Box of Tricks - Levels and Curves</effectcategory>
							<effecttype>filter</effecttype>
							<mediatype>video</mediatype>
							<parameter>
								<parameterid>colourspace</parameterid>
								<name>Colour Space</name>
								<valuemin>1</valuemin>
								<valuemax>2</valuemax>
								<valuelist>
									<valueentry>
										<name>RGB</name>
										<value>1</value>
									</valueentry>
									<valueentry>
										<name>Y'CbCr</name>
										<value>2</value>
									</valueentry>
								</valuelist>
								<value>2</value>
							</parameter>
							<parameter>
								<parameterid>showcurves</parameterid>
								<name>Show Curves</name>
								<value>FALSE</value>
							</parameter>
							<parameter>
								<parameterid>lvar</parameterid>
								<name>Levels Controls</name>
								<value>string</value>
							</parameter>
							<parameter>
								<parameterid>inw</parameterid>
								<name>White Level</name>
								<valuemin>0</valuemin>
								<valuemax>255</valuemax>
								<value>255</value>
							</parameter>
							<parameter>
								<parameterid>inb</parameterid>
								<name>Black Level</name>
								<valuemin>0</valuemin>
								<valuemax>255</valuemax>
								<value>0</value>
							</parameter>
							<parameter>
								<parameterid>outw</parameterid>
								<name>White Output</name>
								<valuemin>0</valuemin>
								<valuemax>255</valuemax>
								<value>255</value>
							</parameter>
							<parameter>
								<parameterid>outb</parameterid>
								<name>Black Output</name>
								<valuemin>0</valuemin>
								<valuemax>255</valuemax>
								<value>0</value>
							</parameter>
							<parameter>
								<parameterid>cvar</parameterid>
								<name>Curves Controls</name>
								<value>string</value>
							</parameter>
							<parameter>
								<parameterid>curvew</parameterid>
								<name>White Curve</name>
								<valuemin>-100</valuemin>
								<valuemax>100</valuemax>
								<value>10</value>
							</parameter>
							<parameter>
								<parameterid>curveb</parameterid>
								<name>Black Curve</name>
								<valuemin>-100</valuemin>
								<valuemax>100</valuemax>
								<value>0</value>
							</parameter>
							<parameter>
								<parameterid>clipoutput</parameterid>
								<name>Clip Output Levels</name>
								<value>TRUE</value>
							</parameter>
							<parameter>
								<parameterid>copyright</parameterid>
								<name>© www.nattress.com</name>
								<value>string</value>
							</parameter>
						</effect>
					</filter>
					<filter>
						<effect>
							<name>Opacity</name>
							<effectid>opacity</effectid>
							<effectcategory>motion</effectcategory>
							<effecttype>motion</effecttype>
							<mediatype>video</mediatype>
							<parameter>
								<parameterid>opacity</parameterid>
								<name>opacity</name>
								<valuemin>0</valuemin>
								<valuemax>100</valuemax>
								<value>100</value>
							</parameter>
						</effect>
					</filter>
					<filter>
						<effect>
							<name>Basic Motion</name>
							<effectid>basic</effectid>
							<effectcategory>motion</effectcategory>
							<effecttype>motion</effecttype>
							<mediatype>video</mediatype>
							<parameter>
								<parameterid>scale</parameterid>
								<name>Scale</name>
								<valuemin>0</valuemin>
								<valuemax>1000</valuemax>
								<value>100</value>
							</parameter>
							<parameter>
								<parameterid>rotation</parameterid>
								<name>Rotation</name>
								<valuemin>-8640</valuemin>
								<valuemax>8640</valuemax>
								<value>0</value>
							</parameter>
							<parameter>
								<parameterid>center</parameterid>
								<name>Center</name>
								<value>
									<horiz>0</horiz>
									<vert>0</vert>
								</value>
							</parameter>
							<parameter>
								<parameterid>centerOffset</parameterid>
								<name>Anchor Point</name>
								<value>
									<horiz>0</horiz>
									<vert>0</vert>
								</value>
							</parameter>
						</effect>
					</filter>
					<filter>
						<enabled>FALSE</enabled>
						<effect>
							<name>Drop Shadow</name>
							<effectid>dropshadow</effectid>
							<effectcategory>motion</effectcategory>
							<effecttype>motion</effecttype>
							<mediatype>video</mediatype>
							<parameter>
								<parameterid>offset</parameterid>
								<name>offset</name>
								<valuemin>-100</valuemin>
								<valuemax>100</valuemax>
								<value>2</value>
							</parameter>
							<parameter>
								<parameterid>angle</parameterid>
								<name>angle</name>
								<valuemin>-720</valuemin>
								<valuemax>720</valuemax>
								<value>135</value>
							</parameter>
							<parameter>
								<parameterid>color</parameterid>
								<name>color</name>
								<value>
									<alpha>0</alpha>
									<red>0</red>
									<green>0</green>
									<blue>0</blue>
								</value>
							</parameter>
							<parameter>
								<parameterid>softness</parameterid>
								<name>softness</name>
								<valuemin>0</valuemin>
								<valuemax>100</valuemax>
								<value>10</value>
							</parameter>
							<parameter>
								<parameterid>opacity</parameterid>
								<name>opacity</name>
								<valuemin>0</valuemin>
								<valuemax>100</valuemax>
								<value>50</value>
							</parameter>
						</effect>
					</filter>
					<filter>
						<enabled>FALSE</enabled>
						<effect>
							<name>Motion Blur</name>
							<effectid>motionblur</effectid>
							<effectcategory>motion</effectcategory>
							<effecttype>motion</effecttype>
							<mediatype>video</mediatype>
							<parameter>
								<parameterid>duration</parameterid>
								<name>% Blur</name>
								<valuemin>0</valuemin>
								<valuemax>1000</valuemax>
								<value>500</value>
							</parameter>
							<parameter>
								<parameterid>samples</parameterid>
								<name>Samples</name>
								<valuemin>1</valuemin>
								<valuemax>16</valuemax>
								<value>4</value>
							</parameter>
						</effect>
					</filter>
					<filter>
						<effect>
							<name>Crop</name>
							<effectid>crop</effectid>
							<effectcategory>motion</effectcategory>
							<effecttype>motion</effecttype>
							<mediatype>video</mediatype>
							<parameter>
								<parameterid>left</parameterid>
								<name>left</name>
								<valuemin>0</valuemin>
								<valuemax>100</valuemax>
								<value>0</value>
							</parameter>
							<parameter>
								<parameterid>right</parameterid>
								<name>right</name>
								<valuemin>0</valuemin>
								<valuemax>100</valuemax>
								<value>0</value>
							</parameter>
							<parameter>
								<parameterid>top</parameterid>
								<name>top</name>
								<valuemin>0</valuemin>
								<valuemax>100</valuemax>
								<value>0</value>
							</parameter>
							<parameter>
								<parameterid>bottom</parameterid>
								<name>bottom</name>
								<valuemin>0</valuemin>
								<valuemax>100</valuemax>
								<value>0</value>
							</parameter>
							<parameter>
								<parameterid>edgefeather</parameterid>
								<name>edgefeather</name>
								<valuemin>0</valuemin>
								<valuemax>100</valuemax>
								<value>0</value>
							</parameter>
						</effect>
					</filter>
					<filter>
						<effect>
							<name>Distort</name>
							<effectid>deformation</effectid>
							<effectcategory>motion</effectcategory>
							<effecttype>motion</effecttype>
							<mediatype>video</mediatype>
							<parameter>
								<parameterid>ulcorner</parameterid>
								<name>Upper Left</name>
								<value>
									<horiz>-0.5</horiz>
									<vert>-0.5</vert>
								</value>
							</parameter>
							<parameter>
								<parameterid>urcorner</parameterid>
								<name>Upper Right</name>
								<value>
									<horiz>0.5</horiz>
									<vert>-0.5</vert>
								</value>
							</parameter>
							<parameter>
								<parameterid>lrcorner</parameterid>
								<name>Lower Right</name>
								<value>
									<horiz>0.5</horiz>
									<vert>0.5</vert>
								</value>
							</parameter>
							<parameter>
								<parameterid>llcorner</parameterid>
								<name>Lower Left</name>
								<value>
									<horiz>-0.5</horiz>
									<vert>0.5</vert>
								</value>
							</parameter>
							<parameter>
								<parameterid>aspect</parameterid>
								<name>Aspect</name>
								<valuemin>-10000</valuemin>
								<valuemax>10000</valuemax>
								<value>0</value>
							</parameter>
						</effect>
					</filter>
					<sourcetrack>
						<mediatype>video</mediatype>
					</sourcetrack>
					<fielddominance>upper</fielddominance>
					<itemhistory>
						<uuid>2737FC88-04D8-46B3-AA65-6019C31A275D</uuid>
					</itemhistory>
					<filter>
						<effect>
							<name>Time Remap</name>
							<effectid>timeremap</effectid>
							<effectcategory>motion</effectcategory>
							<effecttype>motion</effecttype>
							<mediatype>video</mediatype>
							<parameter>
								<parameterid>variablespeed</parameterid>
								<name>variablespeed</name>
								<valuemin>0</valuemin>
								<valuemax>1</valuemax>
								<value>1</value>
							</parameter>
							<parameter>
								<parameterid>mappedduration</parameterid>
								<name>mappedduration</name>
								<value>
									<timecode>
										<rate>
											<timebase>0</timebase>
										</rate>
										<string>0</string>
										<frame>0</frame>
										<displayformat>NDF</displayformat>
									</timecode>
								</value>
							</parameter>
							<parameter>
								<parameterid>speed</parameterid>
								<name>speed</name>
								<valuemin>-10000</valuemin>
								<valuemax>10000</valuemax>
								<value>90</value>
							</parameter>
							<parameter>
								<parameterid>reverse</parameterid>
								<name>reverse</name>
								<value>FALSE</value>
							</parameter>
							<parameter>
								<parameterid>frameblending</parameterid>
								<name>frameblending</name>
								<value>TRUE</value>
							</parameter>
							<parameter>
								<parameterid>graphdict</parameterid>
								<name>graphdict</name>
								<valuemin>0</valuemin>
								<valuemax>352</valuemax>
								<keyframe>
									<when>0</when>
									<value>0</value>
									<speedkfin>TRUE</speedkfin>
								</keyframe>
								<keyframe>
									<when>143</when>
									<value>129.067</value>
									<inbez>
										<horiz>35</horiz>
										<vert>-2.35619</vert>
									</inbez>
								</keyframe>
								<keyframe>
									<when>156</when>
									<value>140.8</value>
									<speedkfout>TRUE</speedkfout>
									<speedvirtualkf>TRUE</speedvirtualkf>
								</keyframe>
								<keyframe>
									<when>391</when>
									<value>353</value>
									<speedkfend>TRUE</speedkfend>
									<speedvirtualkf>TRUE</speedvirtualkf>
								</keyframe>
								<interpolation>
									<name>FCPCurve</name>
								</interpolation>
								<value>0</value>
							</parameter>
						</effect>
					</filter>
				</clipitem>
				<transitionitem>
					<rate>
						<ntsc>FALSE</ntsc>
						<timebase>25</timebase>
					</rate>
					<start>12402</start>
					<end>12427</end>
					<alignment>center</alignment>
					<effect>
						<name>Cross Dissolve</name>
						<effectid>Cross Dissolve</effectid>
						<effectcategory>Dissolve</effectcategory>
						<effecttype>transition</effecttype>
						<mediatype>video</mediatype>
						<wipecode>0</wipecode>
						<wipeaccuracy>100</wipeaccuracy>
						<startratio>0</startratio>
						<endratio>1</endratio>
						<reverse>FALSE</reverse>
					</effect>
				</transitionitem>
				<clipitem id="S1E5 mot vannkant AFX v3 2">
					<name>S1E5 mot vannkant AFX v3</name>
					<duration>353</duration>
					<rate>
						<ntsc>FALSE</ntsc>
						<timebase>25</timebase>
					</rate>
					<in>117</in>
					<out>353</out>
					<start>-1</start>
					<end>12638</end>
					<pixelaspectratio>Square</pixelaspectratio>
					<enabled>TRUE</enabled>
					<anamorphic>FALSE</anamorphic>
					<alphatype>none</alphatype>
					<logginginfo>
						<scene/>
						<shottake/>
						<lognote/>
						<good>FALSE</good>
					</logginginfo>
					<labels>
						<label2/>
					</labels>
					<comments>
						<mastercomment1/>
						<mastercomment2/>
						<mastercomment3/>
						<mastercomment4/>
					</comments>
					<file id="S1E5 mot vannkant AFX v3 1"/>
					<filter>
						<enabled>TRUE</enabled>
						<start>-1</start>
						<end>-1</end>
						<effect>
							<name>G Simple Curves</name>
							<effectcategory>Nattress Big Box of Tricks - Levels and Curves</effectcategory>
							<effecttype>filter</effecttype>
							<mediatype>video</mediatype>
							<parameter>
								<parameterid>colourspace</parameterid>
								<name>Colour Space</name>
								<valuemin>1</valuemin>
								<valuemax>2</valuemax>
								<valuelist>
									<valueentry>
										<name>RGB</name>
										<value>1</value>
									</valueentry>
									<valueentry>
										<name>Y'CbCr</name>
										<value>2</value>
									</valueentry>
								</valuelist>
								<value>1</value>
							</parameter>
							<parameter>
								<parameterid>showcurves</parameterid>
								<name>Show Curves</name>
								<value>FALSE</value>
							</parameter>
							<parameter>
								<parameterid>lvar</parameterid>
								<name>Levels Controls</name>
								<value>string</value>
							</parameter>
							<parameter>
								<parameterid>inw</parameterid>
								<name>White Level</name>
								<valuemin>0</valuemin>
								<valuemax>255</valuemax>
								<value>255</value>
							</parameter>
							<parameter>
								<parameterid>inb</parameterid>
								<name>Black Level</name>
								<valuemin>0</valuemin>
								<valuemax>255</valuemax>
								<value>0</value>
							</parameter>
							<parameter>
								<parameterid>outw</parameterid>
								<name>White Output</name>
								<valuemin>0</valuemin>
								<valuemax>255</valuemax>
								<value>255</value>
							</parameter>
							<parameter>
								<parameterid>outb</parameterid>
								<name>Black Output</name>
								<valuemin>0</valuemin>
								<valuemax>255</valuemax>
								<value>0</value>
							</parameter>
							<parameter>
								<parameterid>cvar</parameterid>
								<name>Curves Controls</name>
								<value>string</value>
							</parameter>
							<parameter>
								<parameterid>curvew</parameterid>
								<name>White Curve</name>
								<valuemin>-100</valuemin>
								<valuemax>100</valuemax>
								<value>8</value>
							</parameter>
							<parameter>
								<parameterid>curveb</parameterid>
								<name>Black Curve</name>
								<valuemin>-100</valuemin>
								<valuemax>100</valuemax>
								<value>31</value>
							</parameter>
							<parameter>
								<parameterid>clipoutput</parameterid>
								<name>Clip Output Levels</name>
								<value>TRUE</value>
							</parameter>
							<parameter>
								<parameterid>copyright</parameterid>
								<name>© www.nattress.com</name>
								<value>string</value>
							</parameter>
						</effect>
					</filter>
					<filter>
						<effect>
							<name>Opacity</name>
							<effectid>opacity</effectid>
							<effectcategory>motion</effectcategory>
							<effecttype>motion</effecttype>
							<mediatype>video</mediatype>
							<parameter>
								<parameterid>opacity</parameterid>
								<name>opacity</name>
								<valuemin>0</valuemin>
								<valuemax>100</valuemax>
								<value>100</value>
							</parameter>
						</effect>
					</filter>
					<sourcetrack>
						<mediatype>video</mediatype>
					</sourcetrack>
					<fielddominance>upper</fielddominance>
					<itemhistory>
						<uuid>3E8458D3-7AE3-4E22-AD87-2E3CC50CC3AA</uuid>
					</itemhistory>
				</clipitem>
				<clipitem id="00736001.MOV4">
					<name>00736001.MOV</name>
					<duration>552</duration>
					<rate>
						<ntsc>FALSE</ntsc>
						<timebase>25</timebase>
					</rate>
					<in>420</in>
					<out>476</out>
					<start>12767</start>
					<end>12823</end>
					<pixelaspectratio>Square</pixelaspectratio>
					<enabled>TRUE</enabled>
					<anamorphic>FALSE</anamorphic>
					<alphatype>none</alphatype>
					<masterclipid>00736001.MOV1</masterclipid>
					<logginginfo>
						<scene/>
						<shottake/>
						<lognote/>
						<good>FALSE</good>
					</logginginfo>
					<labels>
						<label2/>
					</labels>
					<comments>
						<mastercomment1/>
						<mastercomment2/>
						<mastercomment3/>
						<mastercomment4/>
					</comments>
					<file id="00736001 "/>
					<filter>
						<start>-1</start>
						<end>-1</end>
						<effect>
							<name>G Simple Curves -15 white curve</name>
							<effectcategory>Nattress Big Box of Tricks - Levels and Curves</effectcategory>
							<effecttype>filter</effecttype>
							<mediatype>video</mediatype>
							<parameter>
								<parameterid>colourspace</parameterid>
								<name>Colour Space</name>
								<valuemin>1</valuemin>
								<valuemax>2</valuemax>
								<valuelist>
									<valueentry>
										<name>RGB</name>
										<value>1</value>
									</valueentry>
									<valueentry>
										<name>Y'CbCr</name>
										<value>2</value>
									</valueentry>
								</valuelist>
								<value>2</value>
							</parameter>
							<parameter>
								<parameterid>showcurves</parameterid>
								<name>Show Curves</name>
								<value>FALSE</value>
							</parameter>
							<parameter>
								<parameterid>lvar</parameterid>
								<name>Levels Controls</name>
								<value>string</value>
							</parameter>
							<parameter>
								<parameterid>inw</parameterid>
								<name>White Level</name>
								<valuemin>0</valuemin>
								<valuemax>255</valuemax>
								<value>255</value>
							</parameter>
							<parameter>
								<parameterid>inb</parameterid>
								<name>Black Level</name>
								<valuemin>0</valuemin>
								<valuemax>255</valuemax>
								<value>0</value>
							</parameter>
							<parameter>
								<parameterid>outw</parameterid>
								<name>White Output</name>
								<valuemin>0</valuemin>
								<valuemax>255</valuemax>
								<value>255</value>
							</parameter>
							<parameter>
								<parameterid>outb</parameterid>
								<name>Black Output</name>
								<valuemin>0</valuemin>
								<valuemax>255</valuemax>
								<value>0</value>
							</parameter>
							<parameter>
								<parameterid>cvar</parameterid>
								<name>Curves Controls</name>
								<value>string</value>
							</parameter>
							<parameter>
								<parameterid>curvew</parameterid>
								<name>White Curve</name>
								<valuemin>-100</valuemin>
								<valuemax>100</valuemax>
								<value>-15</value>
							</parameter>
							<parameter>
								<parameterid>curveb</parameterid>
								<name>Black Curve</name>
								<valuemin>-100</valuemin>
								<valuemax>100</valuemax>
								<value>0</value>
							</parameter>
							<parameter>
								<parameterid>clipoutput</parameterid>
								<name>Clip Output Levels</name>
								<value>TRUE</value>
							</parameter>
							<parameter>
								<parameterid>copyright</parameterid>
								<name>© www.nattress.com</name>
								<value>string</value>
							</parameter>
						</effect>
					</filter>
					<sourcetrack>
						<mediatype>video</mediatype>
					</sourcetrack>
					<fielddominance>upper</fielddominance>
					<itemhistory>
						<uuid>9EF2ABBC-46B3-49CC-9FD4-E5B459B47B86</uuid>
					</itemhistory>
				</clipitem>
				<clipitem id="00737001.MOV">
					<name>00737001.MOV</name>
					<duration>972</duration>
					<rate>
						<ntsc>FALSE</ntsc>
						<timebase>25</timebase>
					</rate>
					<in>565</in>
					<out>632</out>
					<start>12893</start>
					<end>12960</end>
					<pixelaspectratio>Square</pixelaspectratio>
					<enabled>TRUE</enabled>
					<anamorphic>FALSE</anamorphic>
					<alphatype>none</alphatype>
					<masterclipid>00737001.MOV1</masterclipid>
					<logginginfo>
						<scene/>
						<shottake/>
						<lognote/>
						<good>FALSE</good>
					</logginginfo>
					<labels>
						<label2/>
					</labels>
					<comments>
						<mastercomment1/>
						<mastercomment2/>
						<mastercomment3/>
						<mastercomment4/>
					</comments>
					<file id="00737001 ">
						<name>00737001.MOV</name>
						<pathurl>file://localhost/Volumes/Askepott/Prosjekter/DNPR637010_Kra%CC%8Akeklubben_TEM_011212/Video/MELLOMSTIKK/S01E05%20Dyrebolig/00737001.MOV</pathurl>
						<rate>
							<timebase>25</timebase>
						</rate>
						<duration>972</duration>
						<timecode>
							<rate>
								<timebase>25</timebase>
							</rate>
							<string>18:02:58:11</string>
							<frame>1624461</frame>
							<displayformat>NDF</displayformat>
							<source>source</source>
							<reel>
								<name>Flash XDR</name>
							</reel>
						</timecode>
						<media>
							<video>
								<duration>972</duration>
								<samplecharacteristics>
									<width>1920</width>
									<height>1080</height>
								</samplecharacteristics>
							</video>
							<audio>
								<samplecharacteristics>
									<samplerate>48000</samplerate>
									<depth>24</depth>
								</samplecharacteristics>
								<channelcount>1</channelcount>
							</audio>
							<audio>
								<samplecharacteristics>
									<samplerate>48000</samplerate>
									<depth>24</depth>
								</samplecharacteristics>
								<channelcount>1</channelcount>
							</audio>
						</media>
					</file>
					<filter>
						<start>-1</start>
						<end>-1</end>
						<effect>
							<name>G Simple Curves -15 white curve</name>
							<effectcategory>Nattress Big Box of Tricks - Levels and Curves</effectcategory>
							<effecttype>filter</effecttype>
							<mediatype>video</mediatype>
							<parameter>
								<parameterid>colourspace</parameterid>
								<name>Colour Space</name>
								<valuemin>1</valuemin>
								<valuemax>2</valuemax>
								<valuelist>
									<valueentry>
										<name>RGB</name>
										<value>1</value>
									</valueentry>
									<valueentry>
										<name>Y'CbCr</name>
										<value>2</value>
									</valueentry>
								</valuelist>
								<value>2</value>
							</parameter>
							<parameter>
								<parameterid>showcurves</parameterid>
								<name>Show Curves</name>
								<value>FALSE</value>
							</parameter>
							<parameter>
								<parameterid>lvar</parameterid>
								<name>Levels Controls</name>
								<value>string</value>
							</parameter>
							<parameter>
								<parameterid>inw</parameterid>
								<name>White Level</name>
								<valuemin>0</valuemin>
								<valuemax>255</valuemax>
								<value>255</value>
							</parameter>
							<parameter>
								<parameterid>inb</parameterid>
								<name>Black Level</name>
								<valuemin>0</valuemin>
								<valuemax>255</valuemax>
								<value>0</value>
							</parameter>
							<parameter>
								<parameterid>outw</parameterid>
								<name>White Output</name>
								<valuemin>0</valuemin>
								<valuemax>255</valuemax>
								<value>255</value>
							</parameter>
							<parameter>
								<parameterid>outb</parameterid>
								<name>Black Output</name>
								<valuemin>0</valuemin>
								<valuemax>255</valuemax>
								<value>0</value>
							</parameter>
							<parameter>
								<parameterid>cvar</parameterid>
								<name>Curves Controls</name>
								<value>string</value>
							</parameter>
							<parameter>
								<parameterid>curvew</parameterid>
								<name>White Curve</name>
								<valuemin>-100</valuemin>
								<valuemax>100</valuemax>
								<value>-15</value>
							</parameter>
							<parameter>
								<parameterid>curveb</parameterid>
								<name>Black Curve</name>
								<valuemin>-100</valuemin>
								<valuemax>100</valuemax>
								<value>0</value>
							</parameter>
							<parameter>
								<parameterid>clipoutput</parameterid>
								<name>Clip Output Levels</name>
								<value>TRUE</value>
							</parameter>
							<parameter>
								<parameterid>copyright</parameterid>
								<name>© www.nattress.com</name>
								<value>string</value>
							</parameter>
						</effect>
					</filter>
					<sourcetrack>
						<mediatype>video</mediatype>
					</sourcetrack>
					<fielddominance>upper</fielddominance>
					<itemhistory>
						<uuid>F7C8F1EC-EF92-4E0D-B288-D3E726890B1C</uuid>
					</itemhistory>
				</clipitem>
				<clipitem id="00763002.MOV">
					<name>00763002.MOV</name>
					<duration>1776</duration>
					<rate>
						<ntsc>FALSE</ntsc>
						<timebase>25</timebase>
					</rate>
					<in>298</in>
					<out>596</out>
					<start>14934</start>
					<end>15232</end>
					<pixelaspectratio>Square</pixelaspectratio>
					<enabled>TRUE</enabled>
					<anamorphic>FALSE</anamorphic>
					<alphatype>none</alphatype>
					<masterclipid>00763002.MOV1</masterclipid>
					<logginginfo>
						<scene/>
						<shottake/>
						<lognote/>
						<good>FALSE</good>
					</logginginfo>
					<labels>
						<label2/>
					</labels>
					<comments>
						<mastercomment1/>
						<mastercomment2/>
						<mastercomment3/>
						<mastercomment4/>
					</comments>
					<file id="00763002 ">
						<name>00763002.MOV</name>
						<pathurl>file://localhost/Volumes/Askepott/Prosjekter/DNPR637010_Kra%CC%8Akeklubben_TEM_011212/Video/MELLOMSTIKK/S01E05%20Dyrebolig/00763002.MOV</pathurl>
						<rate>
							<timebase>25</timebase>
						</rate>
						<duration>1776</duration>
						<timecode>
							<rate>
								<timebase>25</timebase>
							</rate>
							<string>18:00:53:08</string>
							<frame>1621333</frame>
							<displayformat>NDF</displayformat>
							<source>source</source>
							<reel>
								<name>Flash XDR</name>
							</reel>
						</timecode>
						<media>
							<video>
								<duration>1776</duration>
								<samplecharacteristics>
									<width>1920</width>
									<height>1080</height>
								</samplecharacteristics>
							</video>
							<audio>
								<samplecharacteristics>
									<samplerate>48000</samplerate>
									<depth>24</depth>
								</samplecharacteristics>
								<channelcount>1</channelcount>
							</audio>
							<audio>
								<samplecharacteristics>
									<samplerate>48000</samplerate>
									<depth>24</depth>
								</samplecharacteristics>
								<channelcount>1</channelcount>
							</audio>
						</media>
					</file>
					<filter>
						<effect>
							<name>Basic Motion</name>
							<effectid>basic</effectid>
							<effectcategory>motion</effectcategory>
							<effecttype>motion</effecttype>
							<mediatype>video</mediatype>
							<parameter>
								<parameterid>scale</parameterid>
								<name>Scale</name>
								<valuemin>0</valuemin>
								<valuemax>1000</valuemax>
								<value>120</value>
							</parameter>
							<parameter>
								<parameterid>rotation</parameterid>
								<name>Rotation</name>
								<valuemin>-8640</valuemin>
								<valuemax>8640</valuemax>
								<value>0</value>
							</parameter>
							<parameter>
								<parameterid>center</parameterid>
								<name>Center</name>
								<keyframe>
									<when>459</when>
									<value>
										<horiz>-0.00126422</horiz>
										<vert>-0.0653153</vert>
									</value>
								</keyframe>
								<keyframe>
									<when>595</when>
									<value>
										<horiz>-0.0948167</horiz>
										<vert>-0.0720721</vert>
									</value>
								</keyframe>
								<interpolation>
									<name>FCPCurve</name>
								</interpolation>
							</parameter>
							<parameter>
								<parameterid>centerOffset</parameterid>
								<name>Anchor Point</name>
								<value>
									<horiz>0</horiz>
									<vert>0</vert>
								</value>
							</parameter>
						</effect>
					</filter>
					<filter>
						<enabled>FALSE</enabled>
						<effect>
							<name>Drop Shadow</name>
							<effectid>dropshadow</effectid>
							<effectcategory>motion</effectcategory>
							<effecttype>motion</effecttype>
							<mediatype>video</mediatype>
							<parameter>
								<parameterid>offset</parameterid>
								<name>offset</name>
								<valuemin>-100</valuemin>
								<valuemax>100</valuemax>
								<value>2</value>
							</parameter>
							<parameter>
								<parameterid>angle</parameterid>
								<name>angle</name>
								<valuemin>-720</valuemin>
								<valuemax>720</valuemax>
								<value>135</value>
							</parameter>
							<parameter>
								<parameterid>color</parameterid>
								<name>color</name>
								<value>
									<alpha>0</alpha>
									<red>0</red>
									<green>0</green>
									<blue>0</blue>
								</value>
							</parameter>
							<parameter>
								<parameterid>softness</parameterid>
								<name>softness</name>
								<valuemin>0</valuemin>
								<valuemax>100</valuemax>
								<value>10</value>
							</parameter>
							<parameter>
								<parameterid>opacity</parameterid>
								<name>opacity</name>
								<valuemin>0</valuemin>
								<valuemax>100</valuemax>
								<value>50</value>
							</parameter>
						</effect>
					</filter>
					<filter>
						<enabled>FALSE</enabled>
						<effect>
							<name>Motion Blur</name>
							<effectid>motionblur</effectid>
							<effectcategory>motion</effectcategory>
							<effecttype>motion</effecttype>
							<mediatype>video</mediatype>
							<parameter>
								<parameterid>duration</parameterid>
								<name>% Blur</name>
								<valuemin>0</valuemin>
								<valuemax>1000</valuemax>
								<value>500</value>
							</parameter>
							<parameter>
								<parameterid>samples</parameterid>
								<name>Samples</name>
								<valuemin>1</valuemin>
								<valuemax>16</valuemax>
								<value>4</value>
							</parameter>
						</effect>
					</filter>
					<filter>
						<effect>
							<name>Crop</name>
							<effectid>crop</effectid>
							<effectcategory>motion</effectcategory>
							<effecttype>motion</effecttype>
							<mediatype>video</mediatype>
							<parameter>
								<parameterid>left</parameterid>
								<name>left</name>
								<valuemin>0</valuemin>
								<valuemax>100</valuemax>
								<value>0</value>
							</parameter>
							<parameter>
								<parameterid>right</parameterid>
								<name>right</name>
								<valuemin>0</valuemin>
								<valuemax>100</valuemax>
								<value>0</value>
							</parameter>
							<parameter>
								<parameterid>top</parameterid>
								<name>top</name>
								<valuemin>0</valuemin>
								<valuemax>100</valuemax>
								<value>0</value>
							</parameter>
							<parameter>
								<parameterid>bottom</parameterid>
								<name>bottom</name>
								<valuemin>0</valuemin>
								<valuemax>100</valuemax>
								<value>0</value>
							</parameter>
							<parameter>
								<parameterid>edgefeather</parameterid>
								<name>edgefeather</name>
								<valuemin>0</valuemin>
								<valuemax>100</valuemax>
								<value>0</value>
							</parameter>
						</effect>
					</filter>
					<filter>
						<effect>
							<name>Distort</name>
							<effectid>deformation</effectid>
							<effectcategory>motion</effectcategory>
							<effecttype>motion</effecttype>
							<mediatype>video</mediatype>
							<parameter>
								<parameterid>ulcorner</parameterid>
								<name>Upper Left</name>
								<value>
									<horiz>-0.5</horiz>
									<vert>-0.5</vert>
								</value>
							</parameter>
							<parameter>
								<parameterid>urcorner</parameterid>
								<name>Upper Right</name>
								<value>
									<horiz>0.5</horiz>
									<vert>-0.5</vert>
								</value>
							</parameter>
							<parameter>
								<parameterid>lrcorner</parameterid>
								<name>Lower Right</name>
								<value>
									<horiz>0.5</horiz>
									<vert>0.5</vert>
								</value>
							</parameter>
							<parameter>
								<parameterid>llcorner</parameterid>
								<name>Lower Left</name>
								<value>
									<horiz>-0.5</horiz>
									<vert>0.5</vert>
								</value>
							</parameter>
							<parameter>
								<parameterid>aspect</parameterid>
								<name>Aspect</name>
								<valuemin>-10000</valuemin>
								<valuemax>10000</valuemax>
								<value>0</value>
							</parameter>
						</effect>
					</filter>
					<filter>
						<effect>
							<name>Opacity</name>
							<effectid>opacity</effectid>
							<effectcategory>motion</effectcategory>
							<effecttype>motion</effecttype>
							<mediatype>video</mediatype>
							<parameter>
								<parameterid>opacity</parameterid>
								<name>opacity</name>
								<valuemin>0</valuemin>
								<valuemax>100</valuemax>
								<value>100</value>
							</parameter>
						</effect>
					</filter>
					<sourcetrack>
						<mediatype>video</mediatype>
					</sourcetrack>
					<fielddominance>upper</fielddominance>
					<itemhistory>
						<uuid>4D6B13D3-48D9-458B-925E-6C5583C698A6</uuid>
					</itemhistory>
				</clipitem>
				<clipitem id="00764001.MOV">
					<name>00764001.MOV</name>
					<duration>5664</duration>
					<rate>
						<ntsc>FALSE</ntsc>
						<timebase>25</timebase>
					</rate>
					<in>1260</in>
					<out>1563</out>
					<start>15261</start>
					<end>15564</end>
					<pixelaspectratio>Square</pixelaspectratio>
					<anamorphic>FALSE</anamorphic>
					<alphatype>none</alphatype>
					<masterclipid>00764001.MOV1</masterclipid>
					<logginginfo>
						<scene/>
						<shottake/>
						<lognote/>
						<good>FALSE</good>
					</logginginfo>
					<labels>
						<label2/>
					</labels>
					<comments>
						<mastercomment1/>
						<mastercomment2/>
						<mastercomment3/>
						<mastercomment4/>
					</comments>
					<file id="00764001 ">
						<name>00764001.MOV</name>
						<pathurl>file://localhost/Volumes/Askepott/Prosjekter/DNPR637010_Kra%CC%8Akeklubben_TEM_011212/Video/MELLOMSTIKK/S01E05%20Dyrebolig/00764001.MOV</pathurl>
						<rate>
							<timebase>25</timebase>
						</rate>
						<duration>5664</duration>
						<timecode>
							<rate>
								<timebase>25</timebase>
							</rate>
							<string>17:55:59:02</string>
							<frame>1613977</frame>
							<displayformat>NDF</displayformat>
							<source>source</source>
							<reel>
								<name>Flash XDR</name>
							</reel>
						</timecode>
						<media>
							<video>
								<duration>5664</duration>
								<samplecharacteristics>
									<width>1920</width>
									<height>1080</height>
								</samplecharacteristics>
							</video>
							<audio>
								<samplecharacteristics>
									<samplerate>48000</samplerate>
									<depth>24</depth>
								</samplecharacteristics>
								<channelcount>1</channelcount>
							</audio>
							<audio>
								<samplecharacteristics>
									<samplerate>48000</samplerate>
									<depth>24</depth>
								</samplecharacteristics>
								<channelcount>1</channelcount>
							</audio>
						</media>
					</file>
					<sourcetrack>
						<mediatype>video</mediatype>
					</sourcetrack>
					<link>
						<linkclipref>00764001.MOV</linkclipref>
						<mediatype>video</mediatype>
						<trackindex>2</trackindex>
						<clipindex>34</clipindex>
					</link>
					<link>
						<linkclipref>00764001.MOV2</linkclipref>
						<mediatype>audio</mediatype>
						<trackindex>1</trackindex>
						<clipindex>116</clipindex>
					</link>
					<link>
						<linkclipref>00764001.MOV3</linkclipref>
						<mediatype>audio</mediatype>
						<trackindex>2</trackindex>
						<clipindex>120</clipindex>
					</link>
					<fielddominance>upper</fielddominance>
					<itemhistory>
						<uuid>FAA73B67-835E-46CE-8C8D-23371B12ADA7</uuid>
					</itemhistory>
				</clipitem>
				<clipitem id="00770001.MOV">
					<name>00770001.MOV</name>
					<duration>6624</duration>
					<rate>
						<ntsc>FALSE</ntsc>
						<timebase>25</timebase>
					</rate>
					<in>2358</in>
					<out>2664</out>
					<start>15632</start>
					<end>15938</end>
					<pixelaspectratio>Square</pixelaspectratio>
					<enabled>TRUE</enabled>
					<anamorphic>FALSE</anamorphic>
					<alphatype>none</alphatype>
					<masterclipid>00770001.MOV1</masterclipid>
					<logginginfo>
						<scene/>
						<shottake/>
						<lognote/>
						<good>FALSE</good>
					</logginginfo>
					<labels>
						<label2/>
					</labels>
					<comments>
						<mastercomment1/>
						<mastercomment2/>
						<mastercomment3/>
						<mastercomment4/>
					</comments>
					<file id="00770001 ">
						<name>00770001.MOV</name>
						<pathurl>file://localhost/Volumes/Askepott/Prosjekter/DNPR637010_Kra%CC%8Akeklubben_TEM_011212/Video/MELLOMSTIKK/S01E05%20Dyrebolig/00770001.MOV</pathurl>
						<rate>
							<timebase>25</timebase>
						</rate>
						<duration>6624</duration>
						<timecode>
							<rate>
								<timebase>25</timebase>
							</rate>
							<string>17:55:59:02</string>
							<frame>1613977</frame>
							<displayformat>NDF</displayformat>
							<source>source</source>
							<reel>
								<name>Flash XDR</name>
							</reel>
						</timecode>
						<media>
							<video>
								<duration>6624</duration>
								<samplecharacteristics>
									<width>1920</width>
									<height>1080</height>
								</samplecharacteristics>
							</video>
							<audio>
								<samplecharacteristics>
									<samplerate>48000</samplerate>
									<depth>24</depth>
								</samplecharacteristics>
								<channelcount>1</channelcount>
							</audio>
							<audio>
								<samplecharacteristics>
									<samplerate>48000</samplerate>
									<depth>24</depth>
								</samplecharacteristics>
								<channelcount>1</channelcount>
							</audio>
						</media>
					</file>
					<filter>
						<start>-1</start>
						<end>-1</end>
						<effect>
							<name>Shift Fields</name>
							<effectid>Shift Fields</effectid>
							<effectcategory>Video</effectcategory>
							<effecttype>filter</effecttype>
							<mediatype>video</mediatype>
							<parameter>
								<parameterid>dir</parameterid>
								<name>Shift Direction</name>
								<valuemin>1</valuemin>
								<valuemax>3</valuemax>
								<valuelist>
									<valueentry>
										<name> +1</name>
										<value>1</value>
									</valueentry>
									<valueentry>
										<name>none</name>
										<value>2</value>
									</valueentry>
									<valueentry>
										<name> -1</name>
										<value>3</value>
									</valueentry>
								</valuelist>
								<value>1</value>
							</parameter>
						</effect>
					</filter>
					<sourcetrack>
						<mediatype>video</mediatype>
					</sourcetrack>
					<fielddominance>upper</fielddominance>
					<itemhistory>
						<uuid>A3A6A9A0-EB05-4893-9392-F93D0CCF6B4B</uuid>
					</itemhistory>
					<filter>
						<effect>
							<name>Time Remap</name>
							<effectid>timeremap</effectid>
							<effectcategory>motion</effectcategory>
							<effecttype>motion</effecttype>
							<mediatype>video</mediatype>
							<parameter>
								<parameterid>variablespeed</parameterid>
								<name>variablespeed</name>
								<valuemin>0</valuemin>
								<valuemax>1</valuemax>
								<value>0</value>
							</parameter>
							<parameter>
								<parameterid>mappedduration</parameterid>
								<name>mappedduration</name>
								<value>
									<timecode>
										<rate>
											<timebase>0</timebase>
										</rate>
										<string>0</string>
										<frame>0</frame>
										<displayformat>NDF</displayformat>
									</timecode>
								</value>
							</parameter>
							<parameter>
								<parameterid>speed</parameterid>
								<name>speed</name>
								<valuemin>-10000</valuemin>
								<valuemax>10000</valuemax>
								<value>100</value>
							</parameter>
							<parameter>
								<parameterid>reverse</parameterid>
								<name>reverse</name>
								<value>TRUE</value>
							</parameter>
							<parameter>
								<parameterid>frameblending</parameterid>
								<name>frameblending</name>
								<value>TRUE</value>
							</parameter>
							<parameter>
								<parameterid>graphdict</parameterid>
								<name>graphdict</name>
								<valuemin>0</valuemin>
								<valuemax>6623</valuemax>
								<keyframe>
									<when>0</when>
									<value>6625</value>
									<speedkfstart>TRUE</speedkfstart>
									<speedvirtualkf>TRUE</speedvirtualkf>
								</keyframe>
								<keyframe>
									<when>2358</when>
									<value>4266</value>
									<speedkfin>TRUE</speedkfin>
									<speedvirtualkf>TRUE</speedvirtualkf>
								</keyframe>
								<keyframe>
									<when>2664</when>
									<value>3960</value>
									<speedkfout>TRUE</speedkfout>
									<speedvirtualkf>TRUE</speedvirtualkf>
								</keyframe>
								<keyframe>
									<when>6624</when>
									<value>1</value>
									<speedkfend>TRUE</speedkfend>
									<speedvirtualkf>TRUE</speedvirtualkf>
								</keyframe>
								<interpolation>
									<name>FCPCurve</name>
								</interpolation>
								<value>4265</value>
							</parameter>
						</effect>
					</filter>
				</clipitem>
				<clipitem id="Tords garasje Vignett">
					<name>Tords garasje Vignett</name>
					<duration>250</duration>
					<rate>
						<ntsc>FALSE</ntsc>
						<timebase>25</timebase>
					</rate>
					<in>0</in>
					<out>250</out>
					<start>16236</start>
					<end>-1</end>
					<pixelaspectratio>Square</pixelaspectratio>
					<enabled>TRUE</enabled>
					<anamorphic>FALSE</anamorphic>
					<alphatype>straight</alphatype>
					<masterclipid>Tords garasje Vignett1</masterclipid>
					<logginginfo>
						<scene/>
						<shottake/>
						<lognote/>
						<good>FALSE</good>
					</logginginfo>
					<labels>
						<label2/>
					</labels>
					<comments>
						<mastercomment1/>
						<mastercomment2/>
						<mastercomment3/>
						<mastercomment4/>
					</comments>
					<file id="Tords garasje Vignett2">
						<name>Tords garasje Vignett.mov</name>
						<pathurl>file://localhost/Volumes/Askepott/Prosjekter/DNPR637010_Kra%CC%8Akeklubben_TEM_011212/Grafikk/MASTERE%20GRAFIKK/Tords%20garasje%20Vignett.mov</pathurl>
						<rate>
							<timebase>25</timebase>
						</rate>
						<duration>250</duration>
						<timecode>
							<rate>
								<timebase>25</timebase>
							</rate>
							<string>00:00:00:00</string>
							<frame>0</frame>
							<displayformat>NDF</displayformat>
							<source>source</source>
						</timecode>
						<media>
							<video>
								<duration>250</duration>
								<samplecharacteristics>
									<width>1920</width>
									<height>1080</height>
								</samplecharacteristics>
							</video>
						</media>
					</file>
					<sourcetrack>
						<mediatype>video</mediatype>
					</sourcetrack>
					<fielddominance>upper</fielddominance>
					<itemhistory>
						<uuid>33D10969-C80C-424F-A7F5-353DA0D7EAB2</uuid>
					</itemhistory>
				</clipitem>
				<transitionitem>
					<rate>
						<ntsc>FALSE</ntsc>
						<timebase>25</timebase>
					</rate>
					<start>16468</start>
					<end>16486</end>
					<alignment>center</alignment>
					<effect>
						<name>G Lens FlareV2</name>
						<effectcategory>Nattress Big Box Of Tricks</effectcategory>
						<effecttype>transition</effecttype>
						<mediatype>video</mediatype>
						<startratio>0</startratio>
						<endratio>1</endratio>
						<reverse>FALSE</reverse>
						<parameter>
							<parameterid>dispvar1</parameterid>
							<name>Display Settings</name>
							<value>string</value>
						</parameter>
						<parameter>
							<parameterid>inputvar1</parameterid>
							<name>Flare Position</name>
							<value>string</value>
						</parameter>
						<parameter>
							<parameterid>theangle</parameterid>
							<name>Transition Direction</name>
							<valuemin>-360</valuemin>
							<valuemax>360</valuemax>
							<value>0</value>
						</parameter>
						<parameter>
							<parameterid>transitionblendduration</parameterid>
							<name>Blend Duration</name>
							<valuemin>0</valuemin>
							<valuemax>100</valuemax>
							<value>50</value>
						</parameter>
						<parameter>
							<parameterid>settingsvar1</parameterid>
							<name>Flare Settings</name>
							<value>string</value>
						</parameter>
						<parameter>
							<parameterid>presets</parameterid>
							<name>Preset Select</name>
							<valuemin>1</valuemin>
							<valuemax>4</valuemax>
							<valuelist>
								<valueentry>
									<name>Custom Controls</name>
									<value>1</value>
								</valueentry>
								<valueentry>
									<name>Other End of the Rainbow</name>
									<value>2</value>
								</valueentry>
								<valueentry>
									<name>Photon</name>
									<value>3</value>
								</valueentry>
								<valueentry>
									<name>Gaudy</name>
									<value>4</value>
								</valueentry>
							</valuelist>
							<value>1</value>
						</parameter>
						<parameter>
							<parameterid>randomevolution</parameterid>
							<name>Randomness Evolution</name>
							<valuemin>0</valuemin>
							<valuemax>1</valuemax>
							<value>0.05</value>
						</parameter>
						<parameter>
							<parameterid>flareaspect</parameterid>
							<name>Aspect</name>
							<valuemin>0.1</valuemin>
							<valuemax>10</valuemax>
							<value>1</value>
						</parameter>
						<parameter>
							<parameterid>flareintensity</parameterid>
							<name>Overall Intensity</name>
							<valuemin>0</valuemin>
							<valuemax>400</valuemax>
							<value>300</value>
						</parameter>
						<parameter>
							<parameterid>therandomseed</parameterid>
							<name>Random Seed</name>
							<valuemin>0</valuemin>
							<valuemax>100</valuemax>
							<value>100</value>
						</parameter>
						<parameter>
							<parameterid>settingsvar2</parameterid>
							<name>   Bloom</name>
							<value>string</value>
						</parameter>
						<parameter>
							<parameterid>bloomon</parameterid>
							<name>Bloom On?</name>
							<value>TRUE</value>
						</parameter>
						<parameter>
							<parameterid>bloomcolour</parameterid>
							<name>Bloom Colour</name>
							<value>
								<alpha>255</alpha>
								<red>218</red>
								<green>224</green>
								<blue>254</blue>
							</value>
						</parameter>
						<parameter>
							<parameterid>bloomcolourfromimage</parameterid>
							<name>Use Image for Bloom Colour?</name>
							<value>FALSE</value>
						</parameter>
						<parameter>
							<parameterid>bloomintensity</parameterid>
							<name>Intensity</name>
							<valuemin>0</valuemin>
							<valuemax>100</valuemax>
							<value>90</value>
						</parameter>
						<parameter>
							<parameterid>bloomradius</parameterid>
							<name>Radius</name>
							<valuemin>0</valuemin>
							<valuemax>200</valuemax>
							<value>45</value>
						</parameter>
						<parameter>
							<parameterid>bloomfalloff</parameterid>
							<name>Fall Off</name>
							<valuemin>0</valuemin>
							<valuemax>100</valuemax>
							<value>75</value>
						</parameter>
						<parameter>
							<parameterid>bloomstarry</parameterid>
							<name>Starry</name>
							<valuemin>0</valuemin>
							<valuemax>100</valuemax>
							<value>10</value>
						</parameter>
						<parameter>
							<parameterid>bloomstarpoints</parameterid>
							<name>Star Points</name>
							<valuemin>0</valuemin>
							<valuemax>100</valuemax>
							<value>7</value>
						</parameter>
						<parameter>
							<parameterid>settingsvar3</parameterid>
							<name>   StarBurst</name>
							<value>string</value>
						</parameter>
						<parameter>
							<parameterid>starburston</parameterid>
							<name>StarBurst On?</name>
							<value>TRUE</value>
						</parameter>
						<parameter>
							<parameterid>starburstcolour</parameterid>
							<name>StarBurst Colour</name>
							<value>
								<alpha>255</alpha>
								<red>254</red>
								<green>224</green>
								<blue>218</blue>
							</value>
						</parameter>
						<parameter>
							<parameterid>starburstintensity</parameterid>
							<name>Intensity</name>
							<valuemin>0</valuemin>
							<valuemax>100</valuemax>
							<value>75</value>
						</parameter>
						<parameter>
							<parameterid>starburstradius</parameterid>
							<name>Radius</name>
							<valuemin>0</valuemin>
							<valuemax>150</valuemax>
							<value>75</value>
						</parameter>
						<parameter>
							<parameterid>starburststarpoints</parameterid>
							<name>Star Points</name>
							<valuemin>0</valuemin>
							<valuemax>200</valuemax>
							<value>90</value>
						</parameter>
						<parameter>
							<parameterid>starcentre</parameterid>
							<name>Centre Size</name>
							<valuemin>0</valuemin>
							<valuemax>100</valuemax>
							<value>75</value>
						</parameter>
						<parameter>
							<parameterid>starfalloff</parameterid>
							<name>Fall Off</name>
							<valuemin>0</valuemin>
							<valuemax>100</valuemax>
							<value>75</value>
						</parameter>
						<parameter>
							<parameterid>starburstrandom</parameterid>
							<name>Randomness</name>
							<valuemin>0</valuemin>
							<valuemax>4</valuemax>
							<value>0.4</value>
						</parameter>
						<parameter>
							<parameterid>settingsvar4</parameterid>
							<name>   Rainbow</name>
							<value>string</value>
						</parameter>
						<parameter>
							<parameterid>rainbowon</parameterid>
							<name>Rainbow On?</name>
							<value>TRUE</value>
						</parameter>
						<parameter>
							<parameterid>rainbowcolors</parameterid>
							<name>Colour Type</name>
							<valuemin>1</valuemin>
							<valuemax>2</valuemax>
							<valuelist>
								<valueentry>
									<name>Rainbow</name>
									<value>1</value>
								</valueentry>
								<valueentry>
									<name>User Colour</name>
									<value>2</value>
								</valueentry>
							</valuelist>
							<value>1</value>
						</parameter>
						<parameter>
							<parameterid>rainbowusercolor</parameterid>
							<name>User Colour</name>
							<value>
								<alpha>255</alpha>
								<red>230</red>
								<green>110</green>
								<blue>22</blue>
							</value>
						</parameter>
						<parameter>
							<parameterid>rainbowposition</parameterid>
							<name>Position</name>
							<valuemin>-200</valuemin>
							<valuemax>200</valuemax>
							<value>100</value>
						</parameter>
						<parameter>
							<parameterid>rainbowintensity</parameterid>
							<name>Intensity</name>
							<valuemin>0</valuemin>
							<valuemax>100</valuemax>
							<value>20</value>
						</parameter>
						<parameter>
							<parameterid>rainbowradius</parameterid>
							<name>Radius</name>
							<valuemin>0</valuemin>
							<valuemax>200</valuemax>
							<value>50</value>
						</parameter>
						<parameter>
							<parameterid>rainbowthickness</parameterid>
							<name>Thickness</name>
							<valuemin>0</valuemin>
							<valuemax>1</valuemax>
							<value>0.15</value>
						</parameter>
						<parameter>
							<parameterid>rainbowsharpness</parameterid>
							<name>Sharpness</name>
							<valuemin>0</valuemin>
							<valuemax>1</valuemax>
							<value>0.65</value>
						</parameter>
						<parameter>
							<parameterid>settingsvar5</parameterid>
							<name>   Spots</name>
							<value>string</value>
						</parameter>
						<parameter>
							<parameterid>spotson</parameterid>
							<name>Spots On?</name>
							<value>TRUE</value>
						</parameter>
						<parameter>
							<parameterid>spotsnumber</parameterid>
							<name>Number</name>
							<valuemin>0</valuemin>
							<valuemax>100</valuemax>
							<value>12</value>
						</parameter>
						<parameter>
							<parameterid>spotsintensity</parameterid>
							<name>Intensity</name>
							<valuemin>0</valuemin>
							<valuemax>100</valuemax>
							<value>80</value>
						</parameter>
						<parameter>
							<parameterid>spotsradius</parameterid>
							<name>Radius</name>
							<valuemin>0</valuemin>
							<valuemax>150</valuemax>
							<value>30</value>
						</parameter>
						<parameter>
							<parameterid>spotsdisky</parameterid>
							<name>Disky</name>
							<valuemin>0</valuemin>
							<valuemax>100</valuemax>
							<value>75</value>
						</parameter>
						<parameter>
							<parameterid>spotsringy</parameterid>
							<name>Ringy</name>
							<valuemin>0</valuemin>
							<valuemax>100</valuemax>
							<value>75</value>
						</parameter>
						<parameter>
							<parameterid>spotsblotty</parameterid>
							<name>Blotty</name>
							<valuemin>0</valuemin>
							<valuemax>100</valuemax>
							<value>75</value>
						</parameter>
						<parameter>
							<parameterid>spotsbloony</parameterid>
							<name>Bloony</name>
							<valuemin>0</valuemin>
							<valuemax>100</valuemax>
							<value>75</value>
						</parameter>
						<parameter>
							<parameterid>spotsvarycolour</parameterid>
							<name>Vary Colour</name>
							<valuemin>0</valuemin>
							<valuemax>100</valuemax>
							<value>31</value>
						</parameter>
						<parameter>
							<parameterid>spotsbasehue</parameterid>
							<name>Base Hue</name>
							<valuemin>0</valuemin>
							<valuemax>100</valuemax>
							<value>72</value>
						</parameter>
						<parameter>
							<parameterid>spotssaturation</parameterid>
							<name>Saturation</name>
							<valuemin>0</valuemin>
							<valuemax>100</valuemax>
							<value>20</value>
						</parameter>
						<parameter>
							<parameterid>copyright</parameterid>
							<name>©www.nattress.com</name>
							<value>string</value>
						</parameter>
					</effect>
				</transitionitem>
				<clipitem id="DYR18477_01 5">
					<name>DYR18477_01</name>
					<duration>418</duration>
					<rate>
						<ntsc>FALSE</ntsc>
						<timebase>25</timebase>
					</rate>
					<in>127</in>
					<out>203</out>
					<start>-1</start>
					<end>16544</end>
					<pixelaspectratio>Square</pixelaspectratio>
					<enabled>TRUE</enabled>
					<anamorphic>FALSE</anamorphic>
					<alphatype>none</alphatype>
					<masterclipid>DYR18477_01 1</masterclipid>
					<logginginfo>
						<scene/>
						<shottake/>
						<lognote/>
						<good>FALSE</good>
					</logginginfo>
					<labels>
						<label2/>
					</labels>
					<comments>
						<mastercomment1/>
						<mastercomment2/>
						<mastercomment3/>
						<mastercomment4/>
					</comments>
					<file id="DYR18477_01 2"/>
					<sourcetrack>
						<mediatype>video</mediatype>
					</sourcetrack>
					<link>
						<linkclipref>DYR18477_01 5</linkclipref>
						<mediatype>video</mediatype>
						<trackindex>2</trackindex>
						<clipindex>38</clipindex>
					</link>
					<link>
						<linkclipref>DYR18477_01 6</linkclipref>
						<mediatype>audio</mediatype>
						<trackindex>1</trackindex>
						<clipindex>123</clipindex>
					</link>
					<link>
						<linkclipref>DYR18477_01 7</linkclipref>
						<mediatype>audio</mediatype>
						<trackindex>2</trackindex>
						<clipindex>127</clipindex>
					</link>
					<fielddominance>upper</fielddominance>
					<itemhistory>
						<uuid>6CC5C3A9-E7F6-4D57-A9F3-5352590763B7</uuid>
					</itemhistory>
				</clipitem>
				<clipitem id="DYR18469_01 5">
					<name>DYR18469_01</name>
					<duration>2324</duration>
					<rate>
						<ntsc>FALSE</ntsc>
						<timebase>25</timebase>
					</rate>
					<in>312</in>
					<out>371</out>
					<start>16544</start>
					<end>16603</end>
					<pixelaspectratio>Square</pixelaspectratio>
					<enabled>TRUE</enabled>
					<anamorphic>FALSE</anamorphic>
					<alphatype>none</alphatype>
					<masterclipid>DYR18469_01 1</masterclipid>
					<logginginfo>
						<scene/>
						<shottake/>
						<lognote/>
						<good>FALSE</good>
					</logginginfo>
					<labels>
						<label2/>
					</labels>
					<comments>
						<mastercomment1/>
						<mastercomment2/>
						<mastercomment3/>
						<mastercomment4/>
					</comments>
					<file id="DYR18469_01 2"/>
					<sourcetrack>
						<mediatype>video</mediatype>
					</sourcetrack>
					<link>
						<linkclipref>DYR18469_01 5</linkclipref>
						<mediatype>video</mediatype>
						<trackindex>2</trackindex>
						<clipindex>39</clipindex>
					</link>
					<link>
						<linkclipref>DYR18469_01 6</linkclipref>
						<mediatype>audio</mediatype>
						<trackindex>1</trackindex>
						<clipindex>124</clipindex>
					</link>
					<link>
						<linkclipref>DYR18469_01 7</linkclipref>
						<mediatype>audio</mediatype>
						<trackindex>2</trackindex>
						<clipindex>128</clipindex>
					</link>
					<fielddominance>upper</fielddominance>
					<itemhistory>
						<uuid>755B5E8B-A2B7-4F48-A2B2-277D6B85D85B</uuid>
					</itemhistory>
				</clipitem>
				<clipitem id="MVI_0834 ">
					<name>MVI_0834</name>
					<duration>742</duration>
					<rate>
						<ntsc>FALSE</ntsc>
						<timebase>25</timebase>
					</rate>
					<in>551</in>
					<out>608</out>
					<start>16908</start>
					<end>16965</end>
					<pixelaspectratio>Square</pixelaspectratio>
					<enabled>TRUE</enabled>
					<anamorphic>FALSE</anamorphic>
					<alphatype>none</alphatype>
					<masterclipid>MVI_0834 1</masterclipid>
					<logginginfo>
						<scene/>
						<shottake/>
						<lognote/>
						<good>FALSE</good>
					</logginginfo>
					<labels>
						<label2/>
					</labels>
					<comments>
						<mastercomment1/>
						<mastercomment2/>
						<mastercomment3/>
						<mastercomment4/>
					</comments>
					<file id="MVI_0834 2">
						<name>MVI_0834.mov</name>
						<pathurl>file://localhost/Volumes/Askepott/Prosjekter/DNPR637010_Kra%CC%8Akeklubben_TEM_011212/Video/TORDS%20GARASJE/Insekt/Maur/Apple%20ProRes%20422%20HQ/MVI_0834.mov</pathurl>
						<rate>
							<timebase>25</timebase>
						</rate>
						<duration>742</duration>
						<media>
							<video>
								<duration>742</duration>
								<samplecharacteristics>
									<width>1920</width>
									<height>1080</height>
								</samplecharacteristics>
							</video>
						</media>
					</file>
					<sourcetrack>
						<mediatype>video</mediatype>
					</sourcetrack>
					<fielddominance>upper</fielddominance>
					<itemhistory>
						<uuid>6C72C548-88EC-4F9A-A1D7-9BA1AE1458BB</uuid>
					</itemhistory>
				</clipitem>
				<clipitem id="MVI_0757 ">
					<name>MVI_0757</name>
					<duration>1128</duration>
					<rate>
						<ntsc>FALSE</ntsc>
						<timebase>25</timebase>
					</rate>
					<in>752</in>
					<out>798</out>
					<start>17135</start>
					<end>17181</end>
					<pixelaspectratio>Square</pixelaspectratio>
					<enabled>TRUE</enabled>
					<anamorphic>FALSE</anamorphic>
					<alphatype>none</alphatype>
					<masterclipid>MVI_0757 1</masterclipid>
					<logginginfo>
						<scene/>
						<shottake/>
						<lognote/>
						<good>FALSE</good>
					</logginginfo>
					<labels>
						<label2/>
					</labels>
					<comments>
						<mastercomment1/>
						<mastercomment2/>
						<mastercomment3/>
						<mastercomment4/>
					</comments>
					<file id="MVI_0757 2">
						<name>MVI_0757.mov</name>
						<pathurl>file://localhost/Volumes/Askepott/Prosjekter/DNPR637010_Kra%CC%8Akeklubben_TEM_011212/Video/TORDS%20GARASJE/Insekt/Maur/Apple%20ProRes%20422%20HQ/MVI_0757.mov</pathurl>
						<rate>
							<timebase>25</timebase>
						</rate>
						<duration>1128</duration>
						<media>
							<video>
								<duration>1128</duration>
								<samplecharacteristics>
									<width>1920</width>
									<height>1080</height>
								</samplecharacteristics>
							</video>
						</media>
					</file>
					<filter>
						<effect>
							<name>Basic Motion</name>
							<effectid>basic</effectid>
							<effectcategory>motion</effectcategory>
							<effecttype>motion</effecttype>
							<mediatype>video</mediatype>
							<parameter>
								<parameterid>scale</parameterid>
								<name>Scale</name>
								<valuemin>0</valuemin>
								<valuemax>1000</valuemax>
								<value>100</value>
							</parameter>
							<parameter>
								<parameterid>rotation</parameterid>
								<name>Rotation</name>
								<valuemin>-8640</valuemin>
								<valuemax>8640</valuemax>
								<value>0</value>
							</parameter>
							<parameter>
								<parameterid>center</parameterid>
								<name>Center</name>
								<value>
									<horiz>0</horiz>
									<vert>0</vert>
								</value>
							</parameter>
							<parameter>
								<parameterid>centerOffset</parameterid>
								<name>Anchor Point</name>
								<value>
									<horiz>0</horiz>
									<vert>0</vert>
								</value>
							</parameter>
						</effect>
					</filter>
					<filter>
						<enabled>FALSE</enabled>
						<effect>
							<name>Drop Shadow</name>
							<effectid>dropshadow</effectid>
							<effectcategory>motion</effectcategory>
							<effecttype>motion</effecttype>
							<mediatype>video</mediatype>
							<parameter>
								<parameterid>offset</parameterid>
								<name>offset</name>
								<valuemin>-100</valuemin>
								<valuemax>100</valuemax>
								<value>2</value>
							</parameter>
							<parameter>
								<parameterid>angle</parameterid>
								<name>angle</name>
								<valuemin>-720</valuemin>
								<valuemax>720</valuemax>
								<value>135</value>
							</parameter>
							<parameter>
								<parameterid>color</parameterid>
								<name>color</name>
								<value>
									<alpha>0</alpha>
									<red>0</red>
									<green>0</green>
									<blue>0</blue>
								</value>
							</parameter>
							<parameter>
								<parameterid>softness</parameterid>
								<name>softness</name>
								<valuemin>0</valuemin>
								<valuemax>100</valuemax>
								<value>10</value>
							</parameter>
							<parameter>
								<parameterid>opacity</parameterid>
								<name>opacity</name>
								<valuemin>0</valuemin>
								<valuemax>100</valuemax>
								<value>50</value>
							</parameter>
						</effect>
					</filter>
					<filter>
						<enabled>FALSE</enabled>
						<effect>
							<name>Motion Blur</name>
							<effectid>motionblur</effectid>
							<effectcategory>motion</effectcategory>
							<effecttype>motion</effecttype>
							<mediatype>video</mediatype>
							<parameter>
								<parameterid>duration</parameterid>
								<name>% Blur</name>
								<valuemin>0</valuemin>
								<valuemax>1000</valuemax>
								<value>500</value>
							</parameter>
							<parameter>
								<parameterid>samples</parameterid>
								<name>Samples</name>
								<valuemin>1</valuemin>
								<valuemax>16</valuemax>
								<value>4</value>
							</parameter>
						</effect>
					</filter>
					<filter>
						<effect>
							<name>Crop</name>
							<effectid>crop</effectid>
							<effectcategory>motion</effectcategory>
							<effecttype>motion</effecttype>
							<mediatype>video</mediatype>
							<parameter>
								<parameterid>left</parameterid>
								<name>left</name>
								<valuemin>0</valuemin>
								<valuemax>100</valuemax>
								<value>0</value>
							</parameter>
							<parameter>
								<parameterid>right</parameterid>
								<name>right</name>
								<valuemin>0</valuemin>
								<valuemax>100</valuemax>
								<value>0</value>
							</parameter>
							<parameter>
								<parameterid>top</parameterid>
								<name>top</name>
								<valuemin>0</valuemin>
								<valuemax>100</valuemax>
								<value>0</value>
							</parameter>
							<parameter>
								<parameterid>bottom</parameterid>
								<name>bottom</name>
								<valuemin>0</valuemin>
								<valuemax>100</valuemax>
								<value>0</value>
							</parameter>
							<parameter>
								<parameterid>edgefeather</parameterid>
								<name>edgefeather</name>
								<valuemin>0</valuemin>
								<valuemax>100</valuemax>
								<value>0</value>
							</parameter>
						</effect>
					</filter>
					<filter>
						<effect>
							<name>Distort</name>
							<effectid>deformation</effectid>
							<effectcategory>motion</effectcategory>
							<effecttype>motion</effecttype>
							<mediatype>video</mediatype>
							<parameter>
								<parameterid>ulcorner</parameterid>
								<name>Upper Left</name>
								<value>
									<horiz>-0.5</horiz>
									<vert>-0.5</vert>
								</value>
							</parameter>
							<parameter>
								<parameterid>urcorner</parameterid>
								<name>Upper Right</name>
								<value>
									<horiz>0.5</horiz>
									<vert>-0.5</vert>
								</value>
							</parameter>
							<parameter>
								<parameterid>lrcorner</parameterid>
								<name>Lower Right</name>
								<value>
									<horiz>0.5</horiz>
									<vert>0.5</vert>
								</value>
							</parameter>
							<parameter>
								<parameterid>llcorner</parameterid>
								<name>Lower Left</name>
								<value>
									<horiz>-0.5</horiz>
									<vert>0.5</vert>
								</value>
							</parameter>
							<parameter>
								<parameterid>aspect</parameterid>
								<name>Aspect</name>
								<valuemin>-10000</valuemin>
								<valuemax>10000</valuemax>
								<value>0</value>
							</parameter>
						</effect>
					</filter>
					<filter>
						<effect>
							<name>Opacity</name>
							<effectid>opacity</effectid>
							<effectcategory>motion</effectcategory>
							<effecttype>motion</effecttype>
							<mediatype>video</mediatype>
							<parameter>
								<parameterid>opacity</parameterid>
								<name>opacity</name>
								<valuemin>0</valuemin>
								<valuemax>100</valuemax>
								<value>100</value>
							</parameter>
						</effect>
					</filter>
					<sourcetrack>
						<mediatype>video</mediatype>
					</sourcetrack>
					<fielddominance>upper</fielddominance>
					<itemhistory>
						<uuid>36FC762F-B9F4-4D5A-A83C-D80263FE2390</uuid>
					</itemhistory>
				</clipitem>
				<clipitem id="MVI_0808 ">
					<name>MVI_0808</name>
					<duration>231</duration>
					<rate>
						<ntsc>FALSE</ntsc>
						<timebase>25</timebase>
					</rate>
					<in>0</in>
					<out>74</out>
					<start>17887</start>
					<end>17961</end>
					<pixelaspectratio>Square</pixelaspectratio>
					<enabled>TRUE</enabled>
					<anamorphic>FALSE</anamorphic>
					<alphatype>none</alphatype>
					<masterclipid>MVI_0808 1</masterclipid>
					<logginginfo>
						<scene/>
						<shottake/>
						<lognote/>
						<good>FALSE</good>
					</logginginfo>
					<labels>
						<label2/>
					</labels>
					<comments>
						<mastercomment1/>
						<mastercomment2/>
						<mastercomment3/>
						<mastercomment4/>
					</comments>
					<file id="MVI_0808 2">
						<name>MVI_0808.mov</name>
						<pathurl>file://localhost/Volumes/Askepott/Prosjekter/DNPR637010_Kra%CC%8Akeklubben_TEM_011212/Video/TORDS%20GARASJE/Insekt/Maur/Apple%20ProRes%20422%20HQ/MVI_0808.mov</pathurl>
						<rate>
							<timebase>25</timebase>
						</rate>
						<duration>231</duration>
						<media>
							<video>
								<duration>231</duration>
								<samplecharacteristics>
									<width>1920</width>
									<height>1080</height>
								</samplecharacteristics>
							</video>
						</media>
					</file>
					<sourcetrack>
						<mediatype>video</mediatype>
					</sourcetrack>
					<fielddominance>upper</fielddominance>
					<itemhistory>
						<uuid>B20930E8-3905-4861-87C8-2D233875B734</uuid>
					</itemhistory>
				</clipitem>
				<clipitem id="MVI_0809 ">
					<name>MVI_0809</name>
					<duration>358</duration>
					<rate>
						<ntsc>FALSE</ntsc>
						<timebase>25</timebase>
					</rate>
					<in>153</in>
					<out>235</out>
					<start>17961</start>
					<end>18043</end>
					<pixelaspectratio>Square</pixelaspectratio>
					<enabled>TRUE</enabled>
					<anamorphic>FALSE</anamorphic>
					<alphatype>none</alphatype>
					<masterclipid>MVI_0809 1</masterclipid>
					<logginginfo>
						<scene/>
						<shottake/>
						<lognote/>
						<good>FALSE</good>
					</logginginfo>
					<labels>
						<label2/>
					</labels>
					<comments>
						<mastercomment1/>
						<mastercomment2/>
						<mastercomment3/>
						<mastercomment4/>
					</comments>
					<file id="MVI_0809 2">
						<name>MVI_0809.mov</name>
						<pathurl>file://localhost/Volumes/Askepott/Prosjekter/DNPR637010_Kra%CC%8Akeklubben_TEM_011212/Video/TORDS%20GARASJE/Insekt/Maur/Apple%20ProRes%20422%20HQ/MVI_0809.mov</pathurl>
						<rate>
							<timebase>25</timebase>
						</rate>
						<duration>358</duration>
						<media>
							<video>
								<duration>358</duration>
								<samplecharacteristics>
									<width>1920</width>
									<height>1080</height>
								</samplecharacteristics>
							</video>
						</media>
					</file>
					<sourcetrack>
						<mediatype>video</mediatype>
					</sourcetrack>
					<fielddominance>upper</fielddominance>
					<itemhistory>
						<uuid>BBDDB55F-7790-4B7E-A6F2-D446B2F5E53B</uuid>
					</itemhistory>
				</clipitem>
				<clipitem id="MVI_0816 ">
					<name>MVI_0816</name>
					<duration>516</duration>
					<rate>
						<ntsc>FALSE</ntsc>
						<timebase>25</timebase>
					</rate>
					<in>2</in>
					<out>79</out>
					<start>18043</start>
					<end>18120</end>
					<pixelaspectratio>Square</pixelaspectratio>
					<enabled>TRUE</enabled>
					<anamorphic>FALSE</anamorphic>
					<alphatype>none</alphatype>
					<masterclipid>MVI_0816 1</masterclipid>
					<logginginfo>
						<scene/>
						<shottake/>
						<lognote/>
						<good>FALSE</good>
					</logginginfo>
					<labels>
						<label2/>
					</labels>
					<comments>
						<mastercomment1/>
						<mastercomment2/>
						<mastercomment3/>
						<mastercomment4/>
					</comments>
					<file id="MVI_0816 2">
						<name>MVI_0816.mov</name>
						<pathurl>file://localhost/Volumes/Askepott/Prosjekter/DNPR637010_Kra%CC%8Akeklubben_TEM_011212/Video/TORDS%20GARASJE/Insekt/Maur/Apple%20ProRes%20422%20HQ/MVI_0816.mov</pathurl>
						<rate>
							<timebase>25</timebase>
						</rate>
						<duration>516</duration>
						<media>
							<video>
								<duration>516</duration>
								<samplecharacteristics>
									<width>1920</width>
									<height>1080</height>
								</samplecharacteristics>
							</video>
						</media>
					</file>
					<sourcetrack>
						<mediatype>video</mediatype>
					</sourcetrack>
					<fielddominance>upper</fielddominance>
					<itemhistory>
						<uuid>6C55D914-1F0C-47C2-B095-43FDB099B275</uuid>
					</itemhistory>
				</clipitem>
				<clipitem id="MVI_0756 ">
					<name>MVI_0756</name>
					<duration>495</duration>
					<rate>
						<ntsc>FALSE</ntsc>
						<timebase>25</timebase>
					</rate>
					<in>205</in>
					<out>257</out>
					<start>18222</start>
					<end>18274</end>
					<pixelaspectratio>Square</pixelaspectratio>
					<enabled>TRUE</enabled>
					<anamorphic>FALSE</anamorphic>
					<alphatype>none</alphatype>
					<masterclipid>MVI_0756 1</masterclipid>
					<logginginfo>
						<scene/>
						<shottake/>
						<lognote/>
						<good>FALSE</good>
					</logginginfo>
					<labels>
						<label2/>
					</labels>
					<comments>
						<mastercomment1/>
						<mastercomment2/>
						<mastercomment3/>
						<mastercomment4/>
					</comments>
					<file id="MVI_0756 2">
						<name>MVI_0756.mov</name>
						<pathurl>file://localhost/Volumes/Askepott/Prosjekter/DNPR637010_Kra%CC%8Akeklubben_TEM_011212/Video/TORDS%20GARASJE/Insekt/Maur/Apple%20ProRes%20422%20HQ/MVI_0756.mov</pathurl>
						<rate>
							<timebase>25</timebase>
						</rate>
						<duration>495</duration>
						<media>
							<video>
								<duration>495</duration>
								<samplecharacteristics>
									<width>1920</width>
									<height>1080</height>
								</samplecharacteristics>
							</video>
						</media>
					</file>
					<sourcetrack>
						<mediatype>video</mediatype>
					</sourcetrack>
					<fielddominance>upper</fielddominance>
					<itemhistory>
						<uuid>5C02302E-2317-49E2-8AD6-E9A42EE3E63B</uuid>
					</itemhistory>
				</clipitem>
				<clipitem id="MVI_0761 ">
					<name>MVI_0761</name>
					<duration>1091</duration>
					<rate>
						<ntsc>FALSE</ntsc>
						<timebase>25</timebase>
					</rate>
					<in>613</in>
					<out>661</out>
					<start>18274</start>
					<end>18322</end>
					<pixelaspectratio>Square</pixelaspectratio>
					<enabled>TRUE</enabled>
					<anamorphic>FALSE</anamorphic>
					<alphatype>none</alphatype>
					<masterclipid>MVI_0761 1</masterclipid>
					<logginginfo>
						<scene/>
						<shottake/>
						<lognote/>
						<good>FALSE</good>
					</logginginfo>
					<labels>
						<label2/>
					</labels>
					<comments>
						<mastercomment1/>
						<mastercomment2/>
						<mastercomment3/>
						<mastercomment4/>
					</comments>
					<file id="MVI_0761 2">
						<name>MVI_0761.mov</name>
						<pathurl>file://localhost/Volumes/Askepott/Prosjekter/DNPR637010_Kra%CC%8Akeklubben_TEM_011212/Video/TORDS%20GARASJE/Insekt/Maur/Apple%20ProRes%20422%20HQ/MVI_0761.mov</pathurl>
						<rate>
							<timebase>25</timebase>
						</rate>
						<duration>1091</duration>
						<media>
							<video>
								<duration>1091</duration>
								<samplecharacteristics>
									<width>1920</width>
									<height>1080</height>
								</samplecharacteristics>
							</video>
						</media>
					</file>
					<sourcetrack>
						<mediatype>video</mediatype>
					</sourcetrack>
					<fielddominance>upper</fielddominance>
					<itemhistory>
						<uuid>110E5D23-FED0-420F-9D8D-A12B8DEF4B48</uuid>
					</itemhistory>
				</clipitem>
				<clipitem id="DYR18488_01 5">
					<name>DYR18488_01</name>
					<duration>1012</duration>
					<rate>
						<ntsc>FALSE</ntsc>
						<timebase>25</timebase>
					</rate>
					<in>340</in>
					<out>697</out>
					<start>18378</start>
					<end>18735</end>
					<pixelaspectratio>Square</pixelaspectratio>
					<enabled>TRUE</enabled>
					<anamorphic>FALSE</anamorphic>
					<alphatype>none</alphatype>
					<masterclipid>DYR18488_01 1</masterclipid>
					<logginginfo>
						<scene/>
						<shottake/>
						<lognote/>
						<good>FALSE</good>
					</logginginfo>
					<labels>
						<label2/>
					</labels>
					<comments>
						<mastercomment1/>
						<mastercomment2/>
						<mastercomment3/>
						<mastercomment4/>
					</comments>
					<file id="DYR18488_01 2"/>
					<sourcetrack>
						<mediatype>video</mediatype>
					</sourcetrack>
					<link>
						<linkclipref>DYR18488_01 5</linkclipref>
						<mediatype>video</mediatype>
						<trackindex>2</trackindex>
						<clipindex>47</clipindex>
					</link>
					<link>
						<linkclipref>DYR18488_01 6</linkclipref>
						<mediatype>audio</mediatype>
						<trackindex>1</trackindex>
						<clipindex>136</clipindex>
					</link>
					<link>
						<linkclipref>DYR18488_01 7</linkclipref>
						<mediatype>audio</mediatype>
						<trackindex>2</trackindex>
						<clipindex>140</clipindex>
					</link>
					<fielddominance>upper</fielddominance>
					<itemhistory>
						<uuid>DACD16BF-DEF0-425D-9D1D-8237F86F5622</uuid>
					</itemhistory>
				</clipitem>
				<clipitem id="DYR18498_01 ">
					<name>DYR18498_01</name>
					<duration>1171</duration>
					<rate>
						<ntsc>FALSE</ntsc>
						<timebase>25</timebase>
					</rate>
					<in>507</in>
					<out>554</out>
					<start>18891</start>
					<end>18938</end>
					<pixelaspectratio>Square</pixelaspectratio>
					<enabled>TRUE</enabled>
					<anamorphic>FALSE</anamorphic>
					<alphatype>none</alphatype>
					<masterclipid>DYR18498_01 1</masterclipid>
					<logginginfo>
						<scene/>
						<shottake/>
						<lognote/>
						<good>FALSE</good>
					</logginginfo>
					<labels>
						<label2/>
					</labels>
					<comments>
						<mastercomment1/>
						<mastercomment2/>
						<mastercomment3/>
						<mastercomment4/>
					</comments>
					<file id="DYR18498_01 2">
						<name>DYR18498_01.mov</name>
						<pathurl>file://localhost/Volumes/Askepott/Prosjekter/DNPR637010_Kra%CC%8Akeklubben_TEM_011212/Video/TORDS%20GARASJE/Insekt/Maur/DYR18498_01.mov</pathurl>
						<rate>
							<timebase>25</timebase>
						</rate>
						<duration>1171</duration>
						<metadata>
							<storage>QuickTime</storage>
							<key>com.sony.bprl.xdcamtransfer.version</key>
							<size>10</size>
							<type>UTF8</type>
							<value>2.12.0.631</value>
						</metadata>
						<metadata>
							<storage>QuickTime</storage>
							<key>org.smpte.mxf.package.material.packageid</key>
							<size>66</size>
							<type>UTF8</type>
							<value>0x060a2b340101010501010d43130000005c70817b545405d508004602022f05f5</value>
						</metadata>
						<metadata>
							<storage>QuickTime</storage>
							<key>com.sony.professionaldisc.nonrealtimemeta.lastupdate</key>
							<size>25</size>
							<type>UTF8</type>
							<value>2010-09-15 12:35:30 +0100</value>
						</metadata>
						<metadata>
							<storage>QuickTime</storage>
							<key>com.sony.bprl.mxf.umid</key>
							<size>64</size>
							<type>UTF8</type>
							<value>060a2b340101010501010d43130000005c70817b545405d508004602022f05f5</value>
						</metadata>
						<metadata>
							<storage>QuickTime</storage>
							<key>com.sony.bprl.mxf.nrtmetadata</key>
							<size>1994</size>
							<type>UTF8</type>
							<value>&lt;?xml version="1.0" encoding="UTF-8"?>&lt;NonRealTimeMeta xmlns="urn:schemas-professionalDisc:nonRealTimeMeta:ver.1.20" xmlns:lib="urn:schemas-professionalDisc:lib:ver.1.20" xmlns:xsi="http://www.w3.org/2001/XMLSchema-instance" lastUpdate="2010-09-15T12:35:30+01:00">&lt;TargetMaterial umidRef="060A2B340101010501010D43130000005C70817B545405D508004602022F05F5">&lt;/TargetMaterial>&lt;Duration value="1171">&lt;/Duration>&lt;LtcChangeTable tcFps="25" halfStep="false">&lt;LtcChange frameCount="0" value="17435211" status="increment">&lt;/LtcChange>&lt;LtcChange frameCount="1170" value="12305311" status="end">&lt;/LtcChange>&lt;/LtcChangeTable>&lt;CreationDate value="2010-09-15T12:34:43+01:00">&lt;/CreationDate>&lt;TypicalUbit value="0000000017061020">&lt;/TypicalUbit>&lt;BodyUmidBasicChangeTable>&lt;BodyUmidBasicChange frameCount="0" value="060A2B340101010501010D43330000005C70817B545405D508004602022F05F5" status="start">&lt;/BodyUmidBasicChange>&lt;/BodyUmidBasicChangeTable>&lt;BodyUmidWhenChangeTable>&lt;BodyUmidWhenChange frameCount="0" value="04AAF903545405A5" status="increment">&lt;/BodyUmidWhenChange>&lt;BodyUmidWhenChange frameCount="1170" value="84CEFA03545405A5" status="end">&lt;/BodyUmidWhenChange>&lt;/BodyUmidWhenChangeTable>&lt;KlvPacketTable>&lt;KlvPacket key="060E2B34010101050301020A02000000" frameCount="0" lengthValue="095F5265635374617274" status="spot">&lt;/KlvPacket>&lt;/KlvPacketTable>&lt;VideoFormat>&lt;VideoRecPort port="DIRECT">&lt;/VideoRecPort>&lt;VideoFrame videoCodec="MPEG2HD35_1920_1080_MP@HL" captureFps="50.00i" recFps="50.00" formatFps="50i">&lt;/VideoFrame>&lt;VideoLayout pixel="1920" numOfVerticalLine="1080" aspectRatio="16:9">&lt;/VideoLayout>&lt;/VideoFormat>&lt;AudioFormat numOfChannel="2">&lt;AudioRecPort port="ANALOG" audioCodec="LPCM16" trackDst="CH1">&lt;/AudioRecPort>&lt;AudioRecPort port="DIRECT" audioCodec="LPCM16" trackDst="CH2">&lt;/AudioRecPort>&lt;/AudioFormat>&lt;Device manufacturer="Sony" modelName="PMW-EX3" serialNo="0401525">&lt;/Device>&lt;Lens modelName="VCL-614B2X">&lt;/Lens>&lt;RecordingMode type="normal" cacheRec="false">&lt;/RecordingMode>&lt;/NonRealTimeMeta>
							</value>
						</metadata>
						<metadata>
							<storage>QuickTime</storage>
							<key>com.apple.proapps.reel</key>
							<size>8</size>
							<type>UTF8</type>
							<value>Untitled</value>
						</metadata>
						<metadata>
							<storage>QuickTime</storage>
							<key>com.apple.proapps.clipID</key>
							<size>64</size>
							<type>UTF8</type>
							<value>060A2B340101010501010D43130000005C70817B545405D508004602022F05F5</value>
						</metadata>
						<metadata>
							<storage>QuickTime</storage>
							<key>com.apple.quicktime.information</key>
							<size>64</size>
							<type>UTF8</type>
							<value>060a2b340101010501010d43130000005c70817b545405d508004602022f05f5</value>
						</metadata>
						<metadata>
							<storage>QuickTime</storage>
							<key>com.apple.proapps.originalFormat</key>
							<size>36</size>
							<type>UTF8</type>
							<value>Apple XDCAM EX 1080i50 (35 Mb/s VBR)</value>
						</metadata>
						<timecode>
							<rate>
								<timebase>25</timebase>
							</rate>
							<string>11:52:43:17</string>
							<frame>1069092</frame>
							<displayformat>NDF</displayformat>
							<source>source</source>
							<reel>
								<name>Untitled</name>
							</reel>
						</timecode>
						<media>
							<video>
								<duration>1171</duration>
								<samplecharacteristics>
									<width>1920</width>
									<height>1080</height>
								</samplecharacteristics>
							</video>
							<audio>
								<samplecharacteristics>
									<samplerate>48000</samplerate>
									<depth>16</depth>
								</samplecharacteristics>
								<channelcount>1</channelcount>
								<layout>mono</layout>
								<audiochannel>
									<sourcechannel>1</sourcechannel>
									<channellabel>discrete</channellabel>
								</audiochannel>
							</audio>
							<audio>
								<samplecharacteristics>
									<samplerate>48000</samplerate>
									<depth>16</depth>
								</samplecharacteristics>
								<channelcount>1</channelcount>
								<layout>mono</layout>
								<audiochannel>
									<sourcechannel>2</sourcechannel>
									<channellabel>discrete</channellabel>
								</audiochannel>
							</audio>
						</media>
					</file>
					<filter>
						<effect>
							<name>Opacity</name>
							<effectid>opacity</effectid>
							<effectcategory>motion</effectcategory>
							<effecttype>motion</effecttype>
							<mediatype>video</mediatype>
							<parameter>
								<parameterid>opacity</parameterid>
								<name>opacity</name>
								<valuemin>0</valuemin>
								<valuemax>100</valuemax>
								<value>100</value>
							</parameter>
						</effect>
					</filter>
					<sourcetrack>
						<mediatype>video</mediatype>
					</sourcetrack>
					<fielddominance>upper</fielddominance>
					<itemhistory>
						<uuid>79835800-4171-48AB-8A7F-D3AA96F620DC</uuid>
					</itemhistory>
				</clipitem>
				<clipitem id="DYR18497_01 ">
					<name>DYR18497_01</name>
					<duration>939</duration>
					<rate>
						<ntsc>FALSE</ntsc>
						<timebase>25</timebase>
					</rate>
					<in>48</in>
					<out>88</out>
					<start>18976</start>
					<end>19016</end>
					<pixelaspectratio>Square</pixelaspectratio>
					<enabled>TRUE</enabled>
					<anamorphic>FALSE</anamorphic>
					<alphatype>none</alphatype>
					<masterclipid>DYR18497_01 1</masterclipid>
					<logginginfo>
						<scene/>
						<shottake/>
						<lognote/>
						<good>FALSE</good>
					</logginginfo>
					<labels>
						<label2/>
					</labels>
					<comments>
						<mastercomment1/>
						<mastercomment2/>
						<mastercomment3/>
						<mastercomment4/>
					</comments>
					<file id="DYR18497_01 2">
						<name>DYR18497_01.mov</name>
						<pathurl>file://localhost/Volumes/Askepott/Prosjekter/DNPR637010_Kra%CC%8Akeklubben_TEM_011212/Video/TORDS%20GARASJE/Insekt/Maur/DYR18497_01.mov</pathurl>
						<rate>
							<timebase>25</timebase>
						</rate>
						<duration>939</duration>
						<metadata>
							<storage>QuickTime</storage>
							<key>com.sony.bprl.xdcamtransfer.version</key>
							<size>10</size>
							<type>UTF8</type>
							<value>2.12.0.631</value>
						</metadata>
						<metadata>
							<storage>QuickTime</storage>
							<key>org.smpte.mxf.package.material.packageid</key>
							<size>66</size>
							<type>UTF8</type>
							<value>0x060a2b340101010501010d4313000000afda457b545405dc08004602022f05f5</value>
						</metadata>
						<metadata>
							<storage>QuickTime</storage>
							<key>com.sony.professionaldisc.nonrealtimemeta.lastupdate</key>
							<size>25</size>
							<type>UTF8</type>
							<value>2010-09-15 12:34:03 +0100</value>
						</metadata>
						<metadata>
							<storage>QuickTime</storage>
							<key>com.sony.bprl.mxf.umid</key>
							<size>64</size>
							<type>UTF8</type>
							<value>060a2b340101010501010d4313000000afda457b545405dc08004602022f05f5</value>
						</metadata>
						<metadata>
							<storage>QuickTime</storage>
							<key>com.sony.bprl.mxf.nrtmetadata</key>
							<size>1991</size>
							<type>UTF8</type>
							<value>&lt;?xml version="1.0" encoding="UTF-8"?>&lt;NonRealTimeMeta xmlns="urn:schemas-professionalDisc:nonRealTimeMeta:ver.1.20" xmlns:lib="urn:schemas-professionalDisc:lib:ver.1.20" xmlns:xsi="http://www.w3.org/2001/XMLSchema-instance" lastUpdate="2010-09-15T12:34:03+01:00">&lt;TargetMaterial umidRef="060A2B340101010501010D4313000000AFDA457B545405DC08004602022F05F5">&lt;/TargetMaterial>&lt;Duration value="939">&lt;/Duration>&lt;LtcChangeTable tcFps="25" halfStep="false">&lt;LtcChange frameCount="0" value="03065211" status="increment">&lt;/LtcChange>&lt;LtcChange frameCount="938" value="16435211" status="end">&lt;/LtcChange>&lt;/LtcChangeTable>&lt;CreationDate value="2010-09-15T12:33:24+01:00">&lt;/CreationDate>&lt;TypicalUbit value="0000000017061020">&lt;/TypicalUbit>&lt;BodyUmidBasicChangeTable>&lt;BodyUmidBasicChange frameCount="0" value="060A2B340101010501010D4333000000AFDA457B545405DC08004602022F05F5" status="start">&lt;/BodyUmidBasicChange>&lt;/BodyUmidBasicChangeTable>&lt;BodyUmidWhenChangeTable>&lt;BodyUmidWhenChange frameCount="0" value="04BFF703545405A5" status="increment">&lt;/BodyUmidWhenChange>&lt;BodyUmidWhenChange frameCount="938" value="84A9F803545405A5" status="end">&lt;/BodyUmidWhenChange>&lt;/BodyUmidWhenChangeTable>&lt;KlvPacketTable>&lt;KlvPacket key="060E2B34010101050301020A02000000" frameCount="0" lengthValue="095F5265635374617274" status="spot">&lt;/KlvPacket>&lt;/KlvPacketTable>&lt;VideoFormat>&lt;VideoRecPort port="DIRECT">&lt;/VideoRecPort>&lt;VideoFrame videoCodec="MPEG2HD35_1920_1080_MP@HL" captureFps="50.00i" recFps="50.00" formatFps="50i">&lt;/VideoFrame>&lt;VideoLayout pixel="1920" numOfVerticalLine="1080" aspectRatio="16:9">&lt;/VideoLayout>&lt;/VideoFormat>&lt;AudioFormat numOfChannel="2">&lt;AudioRecPort port="ANALOG" audioCodec="LPCM16" trackDst="CH1">&lt;/AudioRecPort>&lt;AudioRecPort port="DIRECT" audioCodec="LPCM16" trackDst="CH2">&lt;/AudioRecPort>&lt;/AudioFormat>&lt;Device manufacturer="Sony" modelName="PMW-EX3" serialNo="0401525">&lt;/Device>&lt;Lens modelName="VCL-614B2X">&lt;/Lens>&lt;RecordingMode type="normal" cacheRec="false">&lt;/RecordingMode>&lt;/NonRealTimeMeta>
							</value>
						</metadata>
						<metadata>
							<storage>QuickTime</storage>
							<key>com.apple.proapps.reel</key>
							<size>8</size>
							<type>UTF8</type>
							<value>Untitled</value>
						</metadata>
						<metadata>
							<storage>QuickTime</storage>
							<key>com.apple.proapps.clipID</key>
							<size>64</size>
							<type>UTF8</type>
							<value>060A2B340101010501010D4313000000AFDA457B545405DC08004602022F05F5</value>
						</metadata>
						<metadata>
							<storage>QuickTime</storage>
							<key>com.apple.quicktime.information</key>
							<size>64</size>
							<type>UTF8</type>
							<value>060a2b340101010501010d4313000000afda457b545405dc08004602022f05f5</value>
						</metadata>
						<metadata>
							<storage>QuickTime</storage>
							<key>com.apple.proapps.originalFormat</key>
							<size>36</size>
							<type>UTF8</type>
							<value>Apple XDCAM EX 1080i50 (35 Mb/s VBR)</value>
						</metadata>
						<timecode>
							<rate>
								<timebase>25</timebase>
							</rate>
							<string>11:52:06:03</string>
							<frame>1068153</frame>
							<displayformat>NDF</displayformat>
							<source>source</source>
							<reel>
								<name>Untitled</name>
							</reel>
						</timecode>
						<media>
							<video>
								<duration>939</duration>
								<samplecharacteristics>
									<width>1920</width>
									<height>1080</height>
								</samplecharacteristics>
							</video>
							<audio>
								<samplecharacteristics>
									<samplerate>48000</samplerate>
									<depth>16</depth>
								</samplecharacteristics>
								<channelcount>1</channelcount>
								<layout>mono</layout>
								<audiochannel>
									<sourcechannel>1</sourcechannel>
									<channellabel>discrete</channellabel>
								</audiochannel>
							</audio>
							<audio>
								<samplecharacteristics>
									<samplerate>48000</samplerate>
									<depth>16</depth>
								</samplecharacteristics>
								<channelcount>1</channelcount>
								<layout>mono</layout>
								<audiochannel>
									<sourcechannel>2</sourcechannel>
									<channellabel>discrete</channellabel>
								</audiochannel>
							</audio>
						</media>
					</file>
					<sourcetrack>
						<mediatype>video</mediatype>
					</sourcetrack>
					<fielddominance>upper</fielddominance>
					<itemhistory>
						<uuid>CF8C5A1A-4B1D-47B4-9587-44AEF54ADC2D</uuid>
					</itemhistory>
				</clipitem>
				<clipitem id="DYR18499_01 ">
					<name>DYR18499_01</name>
					<duration>762</duration>
					<rate>
						<ntsc>FALSE</ntsc>
						<timebase>25</timebase>
					</rate>
					<in>599</in>
					<out>693</out>
					<start>19058</start>
					<end>19152</end>
					<pixelaspectratio>Square</pixelaspectratio>
					<enabled>TRUE</enabled>
					<anamorphic>FALSE</anamorphic>
					<alphatype>none</alphatype>
					<masterclipid>DYR18499_01 1</masterclipid>
					<logginginfo>
						<scene/>
						<shottake/>
						<lognote/>
						<good>FALSE</good>
					</logginginfo>
					<labels>
						<label2/>
					</labels>
					<comments>
						<mastercomment1/>
						<mastercomment2/>
						<mastercomment3/>
						<mastercomment4/>
					</comments>
					<file id="DYR18499_01 2">
						<name>DYR18499_01.mov</name>
						<pathurl>file://localhost/Volumes/Askepott/Prosjekter/DNPR637010_Kra%CC%8Akeklubben_TEM_011212/Video/TORDS%20GARASJE/Insekt/Maur/DYR18499_01.mov</pathurl>
						<rate>
							<timebase>25</timebase>
						</rate>
						<duration>762</duration>
						<metadata>
							<storage>QuickTime</storage>
							<key>com.sony.bprl.xdcamtransfer.version</key>
							<size>10</size>
							<type>UTF8</type>
							<value>2.12.0.631</value>
						</metadata>
						<metadata>
							<storage>QuickTime</storage>
							<key>org.smpte.mxf.package.material.packageid</key>
							<size>66</size>
							<type>UTF8</type>
							<value>0x060a2b340101010501010d43130000000f47b57b545405cb08004602022f05f5</value>
						</metadata>
						<metadata>
							<storage>QuickTime</storage>
							<key>com.sony.professionaldisc.nonrealtimemeta.lastupdate</key>
							<size>25</size>
							<type>UTF8</type>
							<value>2010-09-15 12:36:22 +0100</value>
						</metadata>
						<metadata>
							<storage>QuickTime</storage>
							<key>com.sony.bprl.mxf.umid</key>
							<size>64</size>
							<type>UTF8</type>
							<value>060a2b340101010501010d43130000000f47b57b545405cb08004602022f05f5</value>
						</metadata>
						<metadata>
							<storage>QuickTime</storage>
							<key>com.sony.bprl.mxf.nrtmetadata</key>
							<size>1991</size>
							<type>UTF8</type>
							<value>&lt;?xml version="1.0" encoding="UTF-8"?>&lt;NonRealTimeMeta xmlns="urn:schemas-professionalDisc:nonRealTimeMeta:ver.1.20" xmlns:lib="urn:schemas-professionalDisc:lib:ver.1.20" xmlns:xsi="http://www.w3.org/2001/XMLSchema-instance" lastUpdate="2010-09-15T12:36:22+01:00">&lt;TargetMaterial umidRef="060A2B340101010501010D43130000000F47B57B545405CB08004602022F05F5">&lt;/TargetMaterial>&lt;Duration value="762">&lt;/Duration>&lt;LtcChangeTable tcFps="25" halfStep="false">&lt;LtcChange frameCount="0" value="13305311" status="increment">&lt;/LtcChange>&lt;LtcChange frameCount="761" value="24005411" status="end">&lt;/LtcChange>&lt;/LtcChangeTable>&lt;CreationDate value="2010-09-15T12:35:51+01:00">&lt;/CreationDate>&lt;TypicalUbit value="0000000017061020">&lt;/TypicalUbit>&lt;BodyUmidBasicChangeTable>&lt;BodyUmidBasicChange frameCount="0" value="060A2B340101010501010D43330000000F47B57B545405CB08004602022F05F5" status="start">&lt;/BodyUmidBasicChange>&lt;/BodyUmidBasicChangeTable>&lt;BodyUmidWhenChangeTable>&lt;BodyUmidWhenChange frameCount="0" value="4455FB03545405A5" status="increment">&lt;/BodyUmidWhenChange>&lt;BodyUmidWhenChange frameCount="761" value="8413FC03545405A5" status="end">&lt;/BodyUmidWhenChange>&lt;/BodyUmidWhenChangeTable>&lt;KlvPacketTable>&lt;KlvPacket key="060E2B34010101050301020A02000000" frameCount="0" lengthValue="095F5265635374617274" status="spot">&lt;/KlvPacket>&lt;/KlvPacketTable>&lt;VideoFormat>&lt;VideoRecPort port="DIRECT">&lt;/VideoRecPort>&lt;VideoFrame videoCodec="MPEG2HD35_1920_1080_MP@HL" captureFps="50.00i" recFps="50.00" formatFps="50i">&lt;/VideoFrame>&lt;VideoLayout pixel="1920" numOfVerticalLine="1080" aspectRatio="16:9">&lt;/VideoLayout>&lt;/VideoFormat>&lt;AudioFormat numOfChannel="2">&lt;AudioRecPort port="ANALOG" audioCodec="LPCM16" trackDst="CH1">&lt;/AudioRecPort>&lt;AudioRecPort port="DIRECT" audioCodec="LPCM16" trackDst="CH2">&lt;/AudioRecPort>&lt;/AudioFormat>&lt;Device manufacturer="Sony" modelName="PMW-EX3" serialNo="0401525">&lt;/Device>&lt;Lens modelName="VCL-614B2X">&lt;/Lens>&lt;RecordingMode type="normal" cacheRec="false">&lt;/RecordingMode>&lt;/NonRealTimeMeta>
							</value>
						</metadata>
						<metadata>
							<storage>QuickTime</storage>
							<key>com.apple.proapps.reel</key>
							<size>8</size>
							<type>UTF8</type>
							<value>Untitled</value>
						</metadata>
						<metadata>
							<storage>QuickTime</storage>
							<key>com.apple.proapps.clipID</key>
							<size>64</size>
							<type>UTF8</type>
							<value>060A2B340101010501010D43130000000F47B57B545405CB08004602022F05F5</value>
						</metadata>
						<metadata>
							<storage>QuickTime</storage>
							<key>com.apple.quicktime.information</key>
							<size>64</size>
							<type>UTF8</type>
							<value>060a2b340101010501010d43130000000f47b57b545405cb08004602022f05f5</value>
						</metadata>
						<metadata>
							<storage>QuickTime</storage>
							<key>com.apple.proapps.originalFormat</key>
							<size>36</size>
							<type>UTF8</type>
							<value>Apple XDCAM EX 1080i50 (35 Mb/s VBR)</value>
						</metadata>
						<timecode>
							<rate>
								<timebase>25</timebase>
							</rate>
							<string>11:53:30:13</string>
							<frame>1070263</frame>
							<displayformat>NDF</displayformat>
							<source>source</source>
							<reel>
								<name>Untitled</name>
							</reel>
						</timecode>
						<media>
							<video>
								<duration>762</duration>
								<samplecharacteristics>
									<width>1920</width>
									<height>1080</height>
								</samplecharacteristics>
							</video>
							<audio>
								<samplecharacteristics>
									<samplerate>48000</samplerate>
									<depth>16</depth>
								</samplecharacteristics>
								<channelcount>1</channelcount>
								<layout>mono</layout>
								<audiochannel>
									<sourcechannel>1</sourcechannel>
									<channellabel>discrete</channellabel>
								</audiochannel>
							</audio>
							<audio>
								<samplecharacteristics>
									<samplerate>48000</samplerate>
									<depth>16</depth>
								</samplecharacteristics>
								<channelcount>1</channelcount>
								<layout>mono</layout>
								<audiochannel>
									<sourcechannel>2</sourcechannel>
									<channellabel>discrete</channellabel>
								</audiochannel>
							</audio>
						</media>
					</file>
					<sourcetrack>
						<mediatype>video</mediatype>
					</sourcetrack>
					<fielddominance>upper</fielddominance>
					<itemhistory>
						<uuid>88EB5D00-0315-4A7A-8814-0ACBD8F87247</uuid>
					</itemhistory>
				</clipitem>
				<clipitem id="DYR18498_01 3">
					<name>DYR18498_01</name>
					<duration>1171</duration>
					<rate>
						<ntsc>FALSE</ntsc>
						<timebase>25</timebase>
					</rate>
					<in>990</in>
					<out>1071</out>
					<start>19218</start>
					<end>-1</end>
					<pixelaspectratio>Square</pixelaspectratio>
					<enabled>TRUE</enabled>
					<anamorphic>FALSE</anamorphic>
					<alphatype>none</alphatype>
					<masterclipid>DYR18498_01 1</masterclipid>
					<logginginfo>
						<scene/>
						<shottake/>
						<lognote/>
						<good>FALSE</good>
					</logginginfo>
					<labels>
						<label2/>
					</labels>
					<comments>
						<mastercomment1/>
						<mastercomment2/>
						<mastercomment3/>
						<mastercomment4/>
					</comments>
					<file id="DYR18498_01 2"/>
					<sourcetrack>
						<mediatype>video</mediatype>
					</sourcetrack>
					<link>
						<linkclipref>DYR18498_01 3</linkclipref>
						<mediatype>video</mediatype>
						<trackindex>2</trackindex>
						<clipindex>51</clipindex>
					</link>
					<link>
						<linkclipref>DYR18498_01 4</linkclipref>
						<mediatype>audio</mediatype>
						<trackindex>1</trackindex>
						<clipindex>141</clipindex>
					</link>
					<fielddominance>upper</fielddominance>
					<itemhistory>
						<uuid>BAF36008-F602-4136-9883-E12D184397AF</uuid>
					</itemhistory>
				</clipitem>
				<transitionitem>
					<rate>
						<ntsc>FALSE</ntsc>
						<timebase>25</timebase>
					</rate>
					<start>19282</start>
					<end>19299</end>
					<alignment>center</alignment>
					<effect>
						<name>Cross Dissolve</name>
						<effectid>Cross Dissolve</effectid>
						<effectcategory>Dissolve</effectcategory>
						<effecttype>transition</effecttype>
						<mediatype>video</mediatype>
						<wipecode>0</wipecode>
						<wipeaccuracy>100</wipeaccuracy>
						<startratio>0</startratio>
						<endratio>1</endratio>
						<reverse>FALSE</reverse>
					</effect>
				</transitionitem>
				<clipitem id="MVI_0785 ">
					<name>MVI_0785</name>
					<duration>371</duration>
					<rate>
						<ntsc>FALSE</ntsc>
						<timebase>25</timebase>
					</rate>
					<in>2</in>
					<out>103</out>
					<start>-1</start>
					<end>19383</end>
					<pixelaspectratio>Square</pixelaspectratio>
					<enabled>TRUE</enabled>
					<anamorphic>FALSE</anamorphic>
					<alphatype>none</alphatype>
					<masterclipid>MVI_0785 1</masterclipid>
					<logginginfo>
						<scene/>
						<shottake/>
						<lognote/>
						<good>FALSE</good>
					</logginginfo>
					<labels>
						<label2/>
					</labels>
					<comments>
						<mastercomment1/>
						<mastercomment2/>
						<mastercomment3/>
						<mastercomment4/>
					</comments>
					<file id="MVI_0785 2">
						<name>MVI_0785.mov</name>
						<pathurl>file://localhost/Volumes/Askepott/Prosjekter/DNPR637010_Kra%CC%8Akeklubben_TEM_011212/Video/TORDS%20GARASJE/Insekt/Maur/Apple%20ProRes%20422%20HQ/MVI_0785.mov</pathurl>
						<rate>
							<timebase>25</timebase>
						</rate>
						<duration>371</duration>
						<media>
							<video>
								<duration>371</duration>
								<samplecharacteristics>
									<width>1920</width>
									<height>1080</height>
								</samplecharacteristics>
							</video>
						</media>
					</file>
					<sourcetrack>
						<mediatype>video</mediatype>
					</sourcetrack>
					<fielddominance>upper</fielddominance>
					<itemhistory>
						<uuid>EB0889E6-7F39-4EBB-B83E-9D41C1EFE535</uuid>
					</itemhistory>
				</clipitem>
				<clipitem id="MVI_0769 ">
					<name>MVI_0769</name>
					<duration>577</duration>
					<rate>
						<ntsc>FALSE</ntsc>
						<timebase>25</timebase>
					</rate>
					<in>428</in>
					<out>524</out>
					<start>19383</start>
					<end>-1</end>
					<pixelaspectratio>Square</pixelaspectratio>
					<enabled>TRUE</enabled>
					<anamorphic>FALSE</anamorphic>
					<alphatype>none</alphatype>
					<masterclipid>MVI_0769 1</masterclipid>
					<logginginfo>
						<scene/>
						<shottake/>
						<lognote/>
						<good>FALSE</good>
					</logginginfo>
					<labels>
						<label2/>
					</labels>
					<comments>
						<mastercomment1/>
						<mastercomment2/>
						<mastercomment3/>
						<mastercomment4/>
					</comments>
					<file id="MVI_0769 2">
						<name>MVI_0769.mov</name>
						<pathurl>file://localhost/Volumes/Askepott/Prosjekter/DNPR637010_Kra%CC%8Akeklubben_TEM_011212/Video/TORDS%20GARASJE/Insekt/Maur/Apple%20ProRes%20422%20HQ/MVI_0769.mov</pathurl>
						<rate>
							<timebase>25</timebase>
						</rate>
						<duration>577</duration>
						<media>
							<video>
								<duration>577</duration>
								<samplecharacteristics>
									<width>1920</width>
									<height>1080</height>
								</samplecharacteristics>
							</video>
						</media>
					</file>
					<sourcetrack>
						<mediatype>video</mediatype>
					</sourcetrack>
					<fielddominance>upper</fielddominance>
					<itemhistory>
						<uuid>F46DC62E-0DD2-4781-8123-BB0CF6084DF8</uuid>
					</itemhistory>
				</clipitem>
				<transitionitem>
					<rate>
						<ntsc>FALSE</ntsc>
						<timebase>25</timebase>
					</rate>
					<start>19467</start>
					<end>19479</end>
					<alignment>end-black</alignment>
					<effect>
						<name>Cross Dissolve</name>
						<effectid>Cross Dissolve</effectid>
						<effectcategory>Dissolve</effectcategory>
						<effecttype>transition</effecttype>
						<mediatype>video</mediatype>
						<wipecode>0</wipecode>
						<wipeaccuracy>100</wipeaccuracy>
						<startratio>0</startratio>
						<endratio>1</endratio>
						<reverse>FALSE</reverse>
					</effect>
				</transitionitem>
				<clipitem id="MVI_0762 ">
					<name>MVI_0762</name>
					<duration>516</duration>
					<rate>
						<ntsc>FALSE</ntsc>
						<timebase>25</timebase>
					</rate>
					<in>0</in>
					<out>52</out>
					<start>19542</start>
					<end>19594</end>
					<pixelaspectratio>Square</pixelaspectratio>
					<enabled>TRUE</enabled>
					<anamorphic>FALSE</anamorphic>
					<alphatype>none</alphatype>
					<masterclipid>MVI_0762 1</masterclipid>
					<logginginfo>
						<scene/>
						<shottake/>
						<lognote/>
						<good>FALSE</good>
					</logginginfo>
					<labels>
						<label2/>
					</labels>
					<comments>
						<mastercomment1/>
						<mastercomment2/>
						<mastercomment3/>
						<mastercomment4/>
					</comments>
					<file id="MVI_0762 2">
						<name>MVI_0762.mov</name>
						<pathurl>file://localhost/Volumes/Askepott/Prosjekter/DNPR637010_Kra%CC%8Akeklubben_TEM_011212/Video/TORDS%20GARASJE/Insekt/Maur/Apple%20ProRes%20422%20HQ/MVI_0762.mov</pathurl>
						<rate>
							<timebase>25</timebase>
						</rate>
						<duration>516</duration>
						<media>
							<video>
								<duration>516</duration>
								<samplecharacteristics>
									<width>1920</width>
									<height>1080</height>
								</samplecharacteristics>
							</video>
						</media>
					</file>
					<sourcetrack>
						<mediatype>video</mediatype>
					</sourcetrack>
					<fielddominance>upper</fielddominance>
					<itemhistory>
						<uuid>838DF986-D45B-416B-946B-D8462A102B6E</uuid>
					</itemhistory>
				</clipitem>
				<clipitem id="MVI_0776 ">
					<name>MVI_0776</name>
					<duration>210</duration>
					<rate>
						<ntsc>FALSE</ntsc>
						<timebase>25</timebase>
					</rate>
					<in>5</in>
					<out>100</out>
					<start>19594</start>
					<end>19689</end>
					<pixelaspectratio>Square</pixelaspectratio>
					<enabled>TRUE</enabled>
					<anamorphic>FALSE</anamorphic>
					<alphatype>none</alphatype>
					<masterclipid>MVI_0776 1</masterclipid>
					<logginginfo>
						<scene/>
						<shottake/>
						<lognote/>
						<good>FALSE</good>
					</logginginfo>
					<labels>
						<label2/>
					</labels>
					<comments>
						<mastercomment1/>
						<mastercomment2/>
						<mastercomment3/>
						<mastercomment4/>
					</comments>
					<file id="MVI_0776 2">
						<name>MVI_0776.mov</name>
						<pathurl>file://localhost/Volumes/Askepott/Prosjekter/DNPR637010_Kra%CC%8Akeklubben_TEM_011212/Video/TORDS%20GARASJE/Insekt/Maur/Apple%20ProRes%20422%20HQ/MVI_0776.mov</pathurl>
						<rate>
							<timebase>25</timebase>
						</rate>
						<duration>210</duration>
						<media>
							<video>
								<duration>210</duration>
								<samplecharacteristics>
									<width>1920</width>
									<height>1080</height>
								</samplecharacteristics>
							</video>
						</media>
					</file>
					<sourcetrack>
						<mediatype>video</mediatype>
					</sourcetrack>
					<fielddominance>upper</fielddominance>
					<itemhistory>
						<uuid>71EE92D6-1D93-4DB1-AD73-4A0FBEC95E55</uuid>
					</itemhistory>
				</clipitem>
				<clipitem id="DYR18516_01 17">
					<name>DYR18516_01</name>
					<duration>2267</duration>
					<rate>
						<ntsc>FALSE</ntsc>
						<timebase>25</timebase>
					</rate>
					<in>1668</in>
					<out>1757</out>
					<start>20042</start>
					<end>20131</end>
					<pixelaspectratio>Square</pixelaspectratio>
					<enabled>TRUE</enabled>
					<anamorphic>FALSE</anamorphic>
					<alphatype>none</alphatype>
					<masterclipid>DYR18516_01 1</masterclipid>
					<logginginfo>
						<scene/>
						<shottake/>
						<lognote/>
						<good>FALSE</good>
					</logginginfo>
					<labels>
						<label2/>
					</labels>
					<comments>
						<mastercomment1/>
						<mastercomment2/>
						<mastercomment3/>
						<mastercomment4/>
					</comments>
					<file id="DYR18516_01 2"/>
					<sourcetrack>
						<mediatype>video</mediatype>
					</sourcetrack>
					<fielddominance>upper</fielddominance>
					<itemhistory>
						<uuid>F37F909F-CD8B-43CE-9F5E-0EC742CAAD3E</uuid>
					</itemhistory>
				</clipitem>
				<clipitem id="Wipe1_Kongler m Alpha">
					<name>Wipe1_Kongler m Alpha</name>
					<duration>36</duration>
					<rate>
						<ntsc>FALSE</ntsc>
						<timebase>25</timebase>
					</rate>
					<in>0</in>
					<out>36</out>
					<start>20705</start>
					<end>20741</end>
					<pixelaspectratio>Square</pixelaspectratio>
					<anamorphic>FALSE</anamorphic>
					<alphatype>straight</alphatype>
					<masterclipid>Wipe1_Kongler m Alpha1</masterclipid>
					<logginginfo>
						<scene/>
						<shottake/>
						<lognote/>
						<good>FALSE</good>
					</logginginfo>
					<labels>
						<label2/>
					</labels>
					<comments>
						<mastercomment1/>
						<mastercomment2/>
						<mastercomment3/>
						<mastercomment4/>
					</comments>
					<file id="Wipe1_Kongler m Alpha2">
						<name>Wipe1_Kongler m Alpha.mov</name>
						<pathurl>file://localhost/Volumes/Askepott/Prosjekter/DNPR637010_Kra%CC%8Akeklubben_TEM_011212/Grafikk/MASTERE%20GRAFIKK/Wipe1_Kongler%20m%20Alpha.mov</pathurl>
						<rate>
							<timebase>25</timebase>
						</rate>
						<duration>36</duration>
						<timecode>
							<rate>
								<timebase>25</timebase>
							</rate>
							<string>00:00:00:00</string>
							<frame>0</frame>
							<displayformat>NDF</displayformat>
							<source>source</source>
						</timecode>
						<media>
							<video>
								<duration>36</duration>
								<samplecharacteristics>
									<width>1920</width>
									<height>1080</height>
								</samplecharacteristics>
							</video>
						</media>
					</file>
					<sourcetrack>
						<mediatype>video</mediatype>
					</sourcetrack>
					<fielddominance>upper</fielddominance>
					<itemhistory>
						<uuid>C25D731A-35D2-4BF6-828F-0F4FBD4CCD6E</uuid>
					</itemhistory>
				</clipitem>
				<clipitem id="00841001.MOV">
					<name>00841001.MOV</name>
					<duration>408</duration>
					<rate>
						<ntsc>FALSE</ntsc>
						<timebase>25</timebase>
					</rate>
					<in>204</in>
					<out>271</out>
					<start>21533</start>
					<end>21600</end>
					<pixelaspectratio>Square</pixelaspectratio>
					<enabled>TRUE</enabled>
					<anamorphic>FALSE</anamorphic>
					<alphatype>none</alphatype>
					<masterclipid>00841001.MOV1</masterclipid>
					<logginginfo>
						<scene/>
						<shottake/>
						<lognote/>
						<good>FALSE</good>
					</logginginfo>
					<labels>
						<label2/>
					</labels>
					<comments>
						<mastercomment1/>
						<mastercomment2/>
						<mastercomment3/>
						<mastercomment4/>
					</comments>
					<file id="00841001 ">
						<name>00841001.MOV</name>
						<pathurl>file://localhost/Volumes/Askepott/Prosjekter/DNPR637010_Kra%CC%8Akeklubben_TEM_011212/Video/MELLOMSTIKK/S01E05%20Dyrebolig/DAG2/00841001.MOV</pathurl>
						<rate>
							<timebase>25</timebase>
						</rate>
						<duration>408</duration>
						<timecode>
							<rate>
								<timebase>25</timebase>
							</rate>
							<string>18:39:20:11</string>
							<frame>1679011</frame>
							<displayformat>NDF</displayformat>
							<source>source</source>
							<reel>
								<name>Flash XDR</name>
							</reel>
						</timecode>
						<media>
							<video>
								<duration>408</duration>
								<samplecharacteristics>
									<width>1920</width>
									<height>1080</height>
								</samplecharacteristics>
							</video>
							<audio>
								<samplecharacteristics>
									<samplerate>48000</samplerate>
									<depth>24</depth>
								</samplecharacteristics>
								<channelcount>1</channelcount>
							</audio>
							<audio>
								<samplecharacteristics>
									<samplerate>48000</samplerate>
									<depth>24</depth>
								</samplecharacteristics>
								<channelcount>1</channelcount>
							</audio>
						</media>
					</file>
					<filter>
						<enabled>TRUE</enabled>
						<start>-1</start>
						<end>-1</end>
						<effect>
							<name>G Simple Curves</name>
							<effectcategory>Nattress Big Box of Tricks - Levels and Curves</effectcategory>
							<effecttype>filter</effecttype>
							<mediatype>video</mediatype>
							<parameter>
								<parameterid>colourspace</parameterid>
								<name>Colour Space</name>
								<valuemin>1</valuemin>
								<valuemax>2</valuemax>
								<valuelist>
									<valueentry>
										<name>RGB</name>
										<value>1</value>
									</valueentry>
									<valueentry>
										<name>Y'CbCr</name>
										<value>2</value>
									</valueentry>
								</valuelist>
								<value>1</value>
							</parameter>
							<parameter>
								<parameterid>showcurves</parameterid>
								<name>Show Curves</name>
								<value>FALSE</value>
							</parameter>
							<parameter>
								<parameterid>lvar</parameterid>
								<name>Levels Controls</name>
								<value>string</value>
							</parameter>
							<parameter>
								<parameterid>inw</parameterid>
								<name>White Level</name>
								<valuemin>0</valuemin>
								<valuemax>255</valuemax>
								<value>255</value>
							</parameter>
							<parameter>
								<parameterid>inb</parameterid>
								<name>Black Level</name>
								<valuemin>0</valuemin>
								<valuemax>255</valuemax>
								<value>0</value>
							</parameter>
							<parameter>
								<parameterid>outw</parameterid>
								<name>White Output</name>
								<valuemin>0</valuemin>
								<valuemax>255</valuemax>
								<value>255</value>
							</parameter>
							<parameter>
								<parameterid>outb</parameterid>
								<name>Black Output</name>
								<valuemin>0</valuemin>
								<valuemax>255</valuemax>
								<value>0</value>
							</parameter>
							<parameter>
								<parameterid>cvar</parameterid>
								<name>Curves Controls</name>
								<value>string</value>
							</parameter>
							<parameter>
								<parameterid>curvew</parameterid>
								<name>White Curve</name>
								<valuemin>-100</valuemin>
								<valuemax>100</valuemax>
								<value>-18</value>
							</parameter>
							<parameter>
								<parameterid>curveb</parameterid>
								<name>Black Curve</name>
								<valuemin>-100</valuemin>
								<valuemax>100</valuemax>
								<value>0</value>
							</parameter>
							<parameter>
								<parameterid>clipoutput</parameterid>
								<name>Clip Output Levels</name>
								<value>TRUE</value>
							</parameter>
							<parameter>
								<parameterid>copyright</parameterid>
								<name>© www.nattress.com</name>
								<value>string</value>
							</parameter>
						</effect>
					</filter>
					<filter>
						<start>-1</start>
						<end>-1</end>
						<effect>
							<name>G Simple Curves -15 white curve</name>
							<effectcategory>Nattress Big Box of Tricks - Levels and Curves</effectcategory>
							<effecttype>filter</effecttype>
							<mediatype>video</mediatype>
							<parameter>
								<parameterid>colourspace</parameterid>
								<name>Colour Space</name>
								<valuemin>1</valuemin>
								<valuemax>2</valuemax>
								<valuelist>
									<valueentry>
										<name>RGB</name>
										<value>1</value>
									</valueentry>
									<valueentry>
										<name>Y'CbCr</name>
										<value>2</value>
									</valueentry>
								</valuelist>
								<value>2</value>
							</parameter>
							<parameter>
								<parameterid>showcurves</parameterid>
								<name>Show Curves</name>
								<value>FALSE</value>
							</parameter>
							<parameter>
								<parameterid>lvar</parameterid>
								<name>Levels Controls</name>
								<value>string</value>
							</parameter>
							<parameter>
								<parameterid>inw</parameterid>
								<name>White Level</name>
								<valuemin>0</valuemin>
								<valuemax>255</valuemax>
								<value>255</value>
							</parameter>
							<parameter>
								<parameterid>inb</parameterid>
								<name>Black Level</name>
								<valuemin>0</valuemin>
								<valuemax>255</valuemax>
								<value>0</value>
							</parameter>
							<parameter>
								<parameterid>outw</parameterid>
								<name>White Output</name>
								<valuemin>0</valuemin>
								<valuemax>255</valuemax>
								<value>255</value>
							</parameter>
							<parameter>
								<parameterid>outb</parameterid>
								<name>Black Output</name>
								<valuemin>0</valuemin>
								<valuemax>255</valuemax>
								<value>0</value>
							</parameter>
							<parameter>
								<parameterid>cvar</parameterid>
								<name>Curves Controls</name>
								<value>string</value>
							</parameter>
							<parameter>
								<parameterid>curvew</parameterid>
								<name>White Curve</name>
								<valuemin>-100</valuemin>
								<valuemax>100</valuemax>
								<value>-15</value>
							</parameter>
							<parameter>
								<parameterid>curveb</parameterid>
								<name>Black Curve</name>
								<valuemin>-100</valuemin>
								<valuemax>100</valuemax>
								<value>0</value>
							</parameter>
							<parameter>
								<parameterid>clipoutput</parameterid>
								<name>Clip Output Levels</name>
								<value>TRUE</value>
							</parameter>
							<parameter>
								<parameterid>copyright</parameterid>
								<name>© www.nattress.com</name>
								<value>string</value>
							</parameter>
						</effect>
					</filter>
					<sourcetrack>
						<mediatype>video</mediatype>
					</sourcetrack>
					<fielddominance>upper</fielddominance>
					<itemhistory>
						<uuid>CDEE513B-0132-4819-B7BB-61C9A13D42A4</uuid>
					</itemhistory>
				</clipitem>
				<clipitem id="00782001.MOV4">
					<name>00782001.MOV</name>
					<duration>1248</duration>
					<rate>
						<ntsc>FALSE</ntsc>
						<timebase>25</timebase>
					</rate>
					<in>13</in>
					<out>54</out>
					<start>21708</start>
					<end>21749</end>
					<pixelaspectratio>Square</pixelaspectratio>
					<enabled>TRUE</enabled>
					<anamorphic>FALSE</anamorphic>
					<alphatype>none</alphatype>
					<masterclipid>00782001.MOV1</masterclipid>
					<logginginfo>
						<scene/>
						<shottake/>
						<lognote/>
						<good>FALSE</good>
					</logginginfo>
					<labels>
						<label2/>
					</labels>
					<comments>
						<mastercomment1/>
						<mastercomment2/>
						<mastercomment3/>
						<mastercomment4/>
					</comments>
					<file id="00782001 "/>
					<sourcetrack>
						<mediatype>video</mediatype>
					</sourcetrack>
					<fielddominance>upper</fielddominance>
					<itemhistory>
						<uuid>6B6A9CA5-E2D6-460E-87A9-1BC046A79AB8</uuid>
					</itemhistory>
				</clipitem>
				<clipitem id="00790001.MOV4">
					<name>00790001.MOV</name>
					<duration>3816</duration>
					<rate>
						<ntsc>FALSE</ntsc>
						<timebase>25</timebase>
					</rate>
					<in>331</in>
					<out>385</out>
					<start>22430</start>
					<end>22484</end>
					<pixelaspectratio>Square</pixelaspectratio>
					<enabled>TRUE</enabled>
					<anamorphic>FALSE</anamorphic>
					<alphatype>none</alphatype>
					<masterclipid>00790001.MOV1</masterclipid>
					<logginginfo>
						<scene/>
						<shottake/>
						<lognote/>
						<good>FALSE</good>
					</logginginfo>
					<labels>
						<label2/>
					</labels>
					<comments>
						<mastercomment1/>
						<mastercomment2/>
						<mastercomment3/>
						<mastercomment4/>
					</comments>
					<file id="00790001 "/>
					<filter>
						<enabled>TRUE</enabled>
						<start>-1</start>
						<end>-1</end>
						<effect>
							<name>G Simple Curves +20 white curve</name>
							<effectcategory>Nattress Big Box of Tricks - Levels and Curves</effectcategory>
							<effecttype>filter</effecttype>
							<mediatype>video</mediatype>
							<parameter>
								<parameterid>colourspace</parameterid>
								<name>Colour Space</name>
								<valuemin>1</valuemin>
								<valuemax>2</valuemax>
								<valuelist>
									<valueentry>
										<name>RGB</name>
										<value>1</value>
									</valueentry>
									<valueentry>
										<name>Y'CbCr</name>
										<value>2</value>
									</valueentry>
								</valuelist>
								<value>2</value>
							</parameter>
							<parameter>
								<parameterid>showcurves</parameterid>
								<name>Show Curves</name>
								<value>FALSE</value>
							</parameter>
							<parameter>
								<parameterid>lvar</parameterid>
								<name>Levels Controls</name>
								<value>string</value>
							</parameter>
							<parameter>
								<parameterid>inw</parameterid>
								<name>White Level</name>
								<valuemin>0</valuemin>
								<valuemax>255</valuemax>
								<value>255</value>
							</parameter>
							<parameter>
								<parameterid>inb</parameterid>
								<name>Black Level</name>
								<valuemin>0</valuemin>
								<valuemax>255</valuemax>
								<value>0</value>
							</parameter>
							<parameter>
								<parameterid>outw</parameterid>
								<name>White Output</name>
								<valuemin>0</valuemin>
								<valuemax>255</valuemax>
								<value>255</value>
							</parameter>
							<parameter>
								<parameterid>outb</parameterid>
								<name>Black Output</name>
								<valuemin>0</valuemin>
								<valuemax>255</valuemax>
								<value>0</value>
							</parameter>
							<parameter>
								<parameterid>cvar</parameterid>
								<name>Curves Controls</name>
								<value>string</value>
							</parameter>
							<parameter>
								<parameterid>curvew</parameterid>
								<name>White Curve</name>
								<valuemin>-100</valuemin>
								<valuemax>100</valuemax>
								<value>15</value>
							</parameter>
							<parameter>
								<parameterid>curveb</parameterid>
								<name>Black Curve</name>
								<valuemin>-100</valuemin>
								<valuemax>100</valuemax>
								<value>0</value>
							</parameter>
							<parameter>
								<parameterid>clipoutput</parameterid>
								<name>Clip Output Levels</name>
								<value>TRUE</value>
							</parameter>
							<parameter>
								<parameterid>copyright</parameterid>
								<name>© www.nattress.com</name>
								<value>string</value>
							</parameter>
						</effect>
					</filter>
					<filter>
						<enabled>TRUE</enabled>
						<start>-1</start>
						<end>-1</end>
						<effect>
							<name>Color Corrector - Lua til Carina 3 bittelitt</name>
							<effectid>Color Corrector</effectid>
							<effectcategory>Color Correction</effectcategory>
							<effecttype>filter</effecttype>
							<mediatype>video</mediatype>
							<parameter>
								<parameterid>dispmode</parameterid>
								<name>Display Mode</name>
								<valuemin>1</valuemin>
								<valuemax>3</valuemax>
								<valuelist>
									<valueentry>
										<name>Final</name>
										<value>1</value>
									</valueentry>
									<valueentry>
										<name>Matte</name>
										<value>2</value>
									</valueentry>
									<valueentry>
										<name>Source</name>
										<value>3</value>
									</valueentry>
								</valuelist>
								<value>1</value>
							</parameter>
							<parameter>
								<parameterid>label1</parameterid>
								<name>Level Controls</name>
								<value/>
							</parameter>
							<parameter>
								<parameterid>highlights</parameterid>
								<name>Highlights</name>
								<valuemin>64</valuemin>
								<valuemax>509</valuemax>
								<value>247</value>
							</parameter>
							<parameter>
								<parameterid>mids</parameterid>
								<name>Mids</name>
								<valuemin>0</valuemin>
								<valuemax>200</valuemax>
								<value>100</value>
							</parameter>
							<parameter>
								<parameterid>blacklevel</parameterid>
								<name>Blacks</name>
								<valuemin>-196</valuemin>
								<valuemax>254</valuemax>
								<value>-3</value>
							</parameter>
							<parameter>
								<parameterid>label2</parameterid>
								<name>Color Balance</name>
								<value/>
							</parameter>
							<parameter>
								<parameterid>hue</parameterid>
								<name>Angle</name>
								<valuemin>-180</valuemin>
								<valuemax>180</valuemax>
								<value>-33</value>
							</parameter>
							<parameter>
								<parameterid>mag</parameterid>
								<name>Magnitude</name>
								<valuemin>0</valuemin>
								<valuemax>200</valuemax>
								<value>0</value>
							</parameter>
							<parameter>
								<parameterid>label4</parameterid>
								<name>Color Controls</name>
								<value/>
							</parameter>
							<parameter>
								<parameterid>chroma</parameterid>
								<name>Saturation</name>
								<valuemin>0</valuemin>
								<valuemax>200</valuemax>
								<value>94</value>
							</parameter>
							<parameter>
								<parameterid>phase</parameterid>
								<name>Phase shift</name>
								<valuemin>-180</valuemin>
								<valuemax>180</valuemax>
								<value>0</value>
							</parameter>
							<parameter>
								<parameterid>label5</parameterid>
								<name>Limit Effect Controls</name>
								<value/>
							</parameter>
							<parameter>
								<parameterid>dochroma</parameterid>
								<name>Limit on Chroma</name>
								<value>TRUE</value>
							</parameter>
							<parameter>
								<parameterid>centerang</parameterid>
								<name>Chroma Center</name>
								<valuemin>-760</valuemin>
								<valuemax>760</valuemax>
								<value>322.256</value>
							</parameter>
							<parameter>
								<parameterid>chromawidth</parameterid>
								<name>Chroma Width</name>
								<valuemin>0</valuemin>
								<valuemax>360</valuemax>
								<value>8.11959</value>
							</parameter>
							<parameter>
								<parameterid>chromasoft</parameterid>
								<name>Chroma Softness</name>
								<valuemin>0</valuemin>
								<valuemax>180</valuemax>
								<value>26.8371</value>
							</parameter>
							<parameter>
								<parameterid>dosat</parameterid>
								<name>Limit on Saturation</name>
								<value>TRUE</value>
							</parameter>
							<parameter>
								<parameterid>satmin</parameterid>
								<name>Sat. Minimum</name>
								<valuemin>0</valuemin>
								<valuemax>125</valuemax>
								<value>36.7837</value>
							</parameter>
							<parameter>
								<parameterid>satwidth</parameterid>
								<name>Sat. Width</name>
								<valuemin>0</valuemin>
								<valuemax>125</valuemax>
								<value>84.0889</value>
							</parameter>
							<parameter>
								<parameterid>satsoft</parameterid>
								<name>Sat. Softness</name>
								<valuemin>0</valuemin>
								<valuemax>125</valuemax>
								<value>5</value>
							</parameter>
							<parameter>
								<parameterid>doluma</parameterid>
								<name>Limit on Luma</name>
								<value>TRUE</value>
							</parameter>
							<parameter>
								<parameterid>lumamin</parameterid>
								<name>Luma Minimum</name>
								<valuemin>0</valuemin>
								<valuemax>120</valuemax>
								<value>0.939667</value>
							</parameter>
							<parameter>
								<parameterid>lumawidth</parameterid>
								<name>Luma Width</name>
								<valuemin>0</valuemin>
								<valuemax>120</valuemax>
								<value>115.45</value>
							</parameter>
							<parameter>
								<parameterid>lumasoft</parameterid>
								<name>Luma Softness</name>
								<valuemin>0</valuemin>
								<valuemax>120</valuemax>
								<value>15.1099</value>
							</parameter>
							<parameter>
								<parameterid>label6</parameterid>
								<name>Edge Control</name>
								<value/>
							</parameter>
							<parameter>
								<parameterid>edgethin</parameterid>
								<name>Thin/Spread</name>
								<valuemin>-100</valuemin>
								<valuemax>100</valuemax>
								<value>0</value>
							</parameter>
							<parameter>
								<parameterid>edgefeather</parameterid>
								<name>Softening</name>
								<valuemin>0</valuemin>
								<valuemax>100</valuemax>
								<value>6</value>
							</parameter>
							<parameter>
								<parameterid>label7</parameterid>
								<name>Mask Control</name>
								<value/>
							</parameter>
							<parameter>
								<parameterid>invertsel</parameterid>
								<name>Invert</name>
								<value>FALSE</value>
							</parameter>
							<parameter>
								<parameterid>debugshow</parameterid>
								<name>Show Stats</name>
								<value>FALSE</value>
							</parameter>
						</effect>
					</filter>
					<sourcetrack>
						<mediatype>video</mediatype>
					</sourcetrack>
					<link>
						<linkclipref>00790001.MOV4</linkclipref>
						<mediatype>video</mediatype>
						<trackindex>2</trackindex>
						<clipindex>62</clipindex>
					</link>
					<link>
						<linkclipref>00790001.MOV5</linkclipref>
						<mediatype>audio</mediatype>
						<trackindex>3</trackindex>
						<clipindex>30</clipindex>
					</link>
					<link>
						<linkclipref>00790001.MOV6</linkclipref>
						<mediatype>audio</mediatype>
						<trackindex>4</trackindex>
						<clipindex>30</clipindex>
					</link>
					<fielddominance>upper</fielddominance>
					<itemhistory>
						<uuid>36A63076-15BC-408D-BE65-EE2A76A886D1</uuid>
					</itemhistory>
				</clipitem>
				<clipitem id="00782001.MOV5">
					<name>00782001.MOV</name>
					<duration>1248</duration>
					<rate>
						<ntsc>FALSE</ntsc>
						<timebase>25</timebase>
					</rate>
					<in>952</in>
					<out>1029</out>
					<start>22484</start>
					<end>22561</end>
					<pixelaspectratio>Square</pixelaspectratio>
					<enabled>TRUE</enabled>
					<anamorphic>FALSE</anamorphic>
					<alphatype>none</alphatype>
					<masterclipid>00782001.MOV1</masterclipid>
					<logginginfo>
						<scene/>
						<shottake/>
						<lognote/>
						<good>FALSE</good>
					</logginginfo>
					<labels>
						<label2/>
					</labels>
					<comments>
						<mastercomment1/>
						<mastercomment2/>
						<mastercomment3/>
						<mastercomment4/>
					</comments>
					<file id="00782001 "/>
					<sourcetrack>
						<mediatype>video</mediatype>
					</sourcetrack>
					<fielddominance>upper</fielddominance>
					<itemhistory>
						<uuid>68D7AA10-5182-4FF6-8239-5C3A46732D67</uuid>
					</itemhistory>
				</clipitem>
				<clipitem id="00787001.MOV4">
					<name>00787001.MOV</name>
					<duration>2208</duration>
					<rate>
						<ntsc>FALSE</ntsc>
						<timebase>25</timebase>
					</rate>
					<in>692</in>
					<out>1162</out>
					<start>22990</start>
					<end>23460</end>
					<pixelaspectratio>Square</pixelaspectratio>
					<enabled>TRUE</enabled>
					<anamorphic>FALSE</anamorphic>
					<alphatype>none</alphatype>
					<masterclipid>00787001.MOV1</masterclipid>
					<logginginfo>
						<scene/>
						<shottake/>
						<lognote/>
						<good>FALSE</good>
					</logginginfo>
					<labels>
						<label2/>
					</labels>
					<comments>
						<mastercomment1/>
						<mastercomment2/>
						<mastercomment3/>
						<mastercomment4/>
					</comments>
					<file id="00787001 "/>
					<filter>
						<start>-1</start>
						<end>-1</end>
						<effect>
							<name>G Simple Curves</name>
							<effectcategory>Nattress Big Box of Tricks - Levels and Curves</effectcategory>
							<effecttype>filter</effecttype>
							<mediatype>video</mediatype>
							<parameter>
								<parameterid>colourspace</parameterid>
								<name>Colour Space</name>
								<valuemin>1</valuemin>
								<valuemax>2</valuemax>
								<valuelist>
									<valueentry>
										<name>RGB</name>
										<value>1</value>
									</valueentry>
									<valueentry>
										<name>Y'CbCr</name>
										<value>2</value>
									</valueentry>
								</valuelist>
								<value>1</value>
							</parameter>
							<parameter>
								<parameterid>showcurves</parameterid>
								<name>Show Curves</name>
								<value>FALSE</value>
							</parameter>
							<parameter>
								<parameterid>lvar</parameterid>
								<name>Levels Controls</name>
								<value>string</value>
							</parameter>
							<parameter>
								<parameterid>inw</parameterid>
								<name>White Level</name>
								<valuemin>0</valuemin>
								<valuemax>255</valuemax>
								<value>255</value>
							</parameter>
							<parameter>
								<parameterid>inb</parameterid>
								<name>Black Level</name>
								<valuemin>0</valuemin>
								<valuemax>255</valuemax>
								<value>0</value>
							</parameter>
							<parameter>
								<parameterid>outw</parameterid>
								<name>White Output</name>
								<valuemin>0</valuemin>
								<valuemax>255</valuemax>
								<value>255</value>
							</parameter>
							<parameter>
								<parameterid>outb</parameterid>
								<name>Black Output</name>
								<valuemin>0</valuemin>
								<valuemax>255</valuemax>
								<value>0</value>
							</parameter>
							<parameter>
								<parameterid>cvar</parameterid>
								<name>Curves Controls</name>
								<value>string</value>
							</parameter>
							<parameter>
								<parameterid>curvew</parameterid>
								<name>White Curve</name>
								<valuemin>-100</valuemin>
								<valuemax>100</valuemax>
								<value>0</value>
							</parameter>
							<parameter>
								<parameterid>curveb</parameterid>
								<name>Black Curve</name>
								<valuemin>-100</valuemin>
								<valuemax>100</valuemax>
								<value>0</value>
							</parameter>
							<parameter>
								<parameterid>clipoutput</parameterid>
								<name>Clip Output Levels</name>
								<value>TRUE</value>
							</parameter>
							<parameter>
								<parameterid>copyright</parameterid>
								<name>© www.nattress.com</name>
								<value>string</value>
							</parameter>
						</effect>
					</filter>
					<filter>
						<effect>
							<name>Basic Motion</name>
							<effectid>basic</effectid>
							<effectcategory>motion</effectcategory>
							<effecttype>motion</effecttype>
							<mediatype>video</mediatype>
							<parameter>
								<parameterid>scale</parameterid>
								<name>Scale</name>
								<valuemin>0</valuemin>
								<valuemax>1000</valuemax>
								<value>120</value>
							</parameter>
							<parameter>
								<parameterid>rotation</parameterid>
								<name>Rotation</name>
								<valuemin>-8640</valuemin>
								<valuemax>8640</valuemax>
								<value>0</value>
							</parameter>
							<parameter>
								<parameterid>center</parameterid>
								<name>Center</name>
								<value>
									<horiz>-0.0859671</horiz>
									<vert>0.101351</vert>
								</value>
							</parameter>
							<parameter>
								<parameterid>centerOffset</parameterid>
								<name>Anchor Point</name>
								<value>
									<horiz>0</horiz>
									<vert>0</vert>
								</value>
							</parameter>
						</effect>
					</filter>
					<filter>
						<enabled>FALSE</enabled>
						<effect>
							<name>Drop Shadow</name>
							<effectid>dropshadow</effectid>
							<effectcategory>motion</effectcategory>
							<effecttype>motion</effecttype>
							<mediatype>video</mediatype>
							<parameter>
								<parameterid>offset</parameterid>
								<name>offset</name>
								<valuemin>-100</valuemin>
								<valuemax>100</valuemax>
								<value>2</value>
							</parameter>
							<parameter>
								<parameterid>angle</parameterid>
								<name>angle</name>
								<valuemin>-720</valuemin>
								<valuemax>720</valuemax>
								<value>135</value>
							</parameter>
							<parameter>
								<parameterid>color</parameterid>
								<name>color</name>
								<value>
									<alpha>0</alpha>
									<red>0</red>
									<green>0</green>
									<blue>0</blue>
								</value>
							</parameter>
							<parameter>
								<parameterid>softness</parameterid>
								<name>softness</name>
								<valuemin>0</valuemin>
								<valuemax>100</valuemax>
								<value>10</value>
							</parameter>
							<parameter>
								<parameterid>opacity</parameterid>
								<name>opacity</name>
								<valuemin>0</valuemin>
								<valuemax>100</valuemax>
								<value>50</value>
							</parameter>
						</effect>
					</filter>
					<filter>
						<enabled>FALSE</enabled>
						<effect>
							<name>Motion Blur</name>
							<effectid>motionblur</effectid>
							<effectcategory>motion</effectcategory>
							<effecttype>motion</effecttype>
							<mediatype>video</mediatype>
							<parameter>
								<parameterid>duration</parameterid>
								<name>% Blur</name>
								<valuemin>0</valuemin>
								<valuemax>1000</valuemax>
								<value>500</value>
							</parameter>
							<parameter>
								<parameterid>samples</parameterid>
								<name>Samples</name>
								<valuemin>1</valuemin>
								<valuemax>16</valuemax>
								<value>4</value>
							</parameter>
						</effect>
					</filter>
					<filter>
						<effect>
							<name>Crop</name>
							<effectid>crop</effectid>
							<effectcategory>motion</effectcategory>
							<effecttype>motion</effecttype>
							<mediatype>video</mediatype>
							<parameter>
								<parameterid>left</parameterid>
								<name>left</name>
								<valuemin>0</valuemin>
								<valuemax>100</valuemax>
								<value>0</value>
							</parameter>
							<parameter>
								<parameterid>right</parameterid>
								<name>right</name>
								<valuemin>0</valuemin>
								<valuemax>100</valuemax>
								<value>0</value>
							</parameter>
							<parameter>
								<parameterid>top</parameterid>
								<name>top</name>
								<valuemin>0</valuemin>
								<valuemax>100</valuemax>
								<value>0</value>
							</parameter>
							<parameter>
								<parameterid>bottom</parameterid>
								<name>bottom</name>
								<valuemin>0</valuemin>
								<valuemax>100</valuemax>
								<value>0</value>
							</parameter>
							<parameter>
								<parameterid>edgefeather</parameterid>
								<name>edgefeather</name>
								<valuemin>0</valuemin>
								<valuemax>100</valuemax>
								<value>0</value>
							</parameter>
						</effect>
					</filter>
					<filter>
						<effect>
							<name>Distort</name>
							<effectid>deformation</effectid>
							<effectcategory>motion</effectcategory>
							<effecttype>motion</effecttype>
							<mediatype>video</mediatype>
							<parameter>
								<parameterid>ulcorner</parameterid>
								<name>Upper Left</name>
								<value>
									<horiz>-0.5</horiz>
									<vert>-0.5</vert>
								</value>
							</parameter>
							<parameter>
								<parameterid>urcorner</parameterid>
								<name>Upper Right</name>
								<value>
									<horiz>0.5</horiz>
									<vert>-0.5</vert>
								</value>
							</parameter>
							<parameter>
								<parameterid>lrcorner</parameterid>
								<name>Lower Right</name>
								<value>
									<horiz>0.5</horiz>
									<vert>0.5</vert>
								</value>
							</parameter>
							<parameter>
								<parameterid>llcorner</parameterid>
								<name>Lower Left</name>
								<value>
									<horiz>-0.5</horiz>
									<vert>0.5</vert>
								</value>
							</parameter>
							<parameter>
								<parameterid>aspect</parameterid>
								<name>Aspect</name>
								<valuemin>-10000</valuemin>
								<valuemax>10000</valuemax>
								<value>0</value>
							</parameter>
						</effect>
					</filter>
					<filter>
						<effect>
							<name>Opacity</name>
							<effectid>opacity</effectid>
							<effectcategory>motion</effectcategory>
							<effecttype>motion</effecttype>
							<mediatype>video</mediatype>
							<parameter>
								<parameterid>opacity</parameterid>
								<name>opacity</name>
								<valuemin>0</valuemin>
								<valuemax>100</valuemax>
								<value>100</value>
							</parameter>
						</effect>
					</filter>
					<sourcetrack>
						<mediatype>video</mediatype>
					</sourcetrack>
					<fielddominance>upper</fielddominance>
					<itemhistory>
						<uuid>51B8695D-0FA3-47E4-A02B-9F37E5293F37</uuid>
					</itemhistory>
				</clipitem>
				<clipitem id="00821001.MOV12">
					<name>00821001.MOV</name>
					<duration>3420</duration>
					<rate>
						<ntsc>FALSE</ntsc>
						<timebase>25</timebase>
					</rate>
					<in>2685</in>
					<out>3233</out>
					<start>29961</start>
					<end>-1</end>
					<pixelaspectratio>Square</pixelaspectratio>
					<enabled>TRUE</enabled>
					<anamorphic>FALSE</anamorphic>
					<alphatype>none</alphatype>
					<masterclipid>00821001.MOV1</masterclipid>
					<logginginfo>
						<scene/>
						<shottake/>
						<lognote/>
						<good>FALSE</good>
					</logginginfo>
					<labels>
						<label2/>
					</labels>
					<comments>
						<mastercomment1/>
						<mastercomment2/>
						<mastercomment3/>
						<mastercomment4/>
					</comments>
					<file id="00821001 "/>
					<filter>
						<enabled>TRUE</enabled>
						<start>-1</start>
						<end>-1</end>
						<effect>
							<name>Color Corrector 3-way</name>
							<effectid>Color Corrector 3-way</effectid>
							<effectcategory>Color Correction</effectcategory>
							<effecttype>filter</effecttype>
							<mediatype>video</mediatype>
							<parameter>
								<parameterid>dispmode</parameterid>
								<name>Display Mode</name>
								<valuemin>1</valuemin>
								<valuemax>3</valuemax>
								<valuelist>
									<valueentry>
										<name>Final</name>
										<value>1</value>
									</valueentry>
									<valueentry>
										<name>Matte</name>
										<value>2</value>
									</valueentry>
									<valueentry>
										<name>Source</name>
										<value>3</value>
									</valueentry>
								</valuelist>
								<value>1</value>
							</parameter>
							<parameter>
								<parameterid>label1</parameterid>
								<name>Blacks Controls</name>
								<value/>
							</parameter>
							<parameter>
								<parameterid>blacklevel</parameterid>
								<name>Level</name>
								<valuemin>-196</valuemin>
								<valuemax>254</valuemax>
								<value>20</value>
							</parameter>
							<parameter>
								<parameterid>b_hue</parameterid>
								<name>Angle</name>
								<valuemin>-180</valuemin>
								<valuemax>180</valuemax>
								<value>-33</value>
							</parameter>
							<parameter>
								<parameterid>b_mag</parameterid>
								<name>Magnitude</name>
								<valuemin>0</valuemin>
								<valuemax>200</valuemax>
								<value>0</value>
							</parameter>
							<parameter>
								<parameterid>label2</parameterid>
								<name>Midrange Controls</name>
								<value/>
							</parameter>
							<parameter>
								<parameterid>mids</parameterid>
								<name>Level</name>
								<valuemin>0</valuemin>
								<valuemax>200</valuemax>
								<value>91</value>
							</parameter>
							<parameter>
								<parameterid>m_hue</parameterid>
								<name>Angle</name>
								<valuemin>-180</valuemin>
								<valuemax>180</valuemax>
								<value>-33</value>
							</parameter>
							<parameter>
								<parameterid>m_mag</parameterid>
								<name>Magnitude</name>
								<valuemin>0</valuemin>
								<valuemax>200</valuemax>
								<value>0</value>
							</parameter>
							<parameter>
								<parameterid>label3</parameterid>
								<name>Highlight Controls</name>
								<value/>
							</parameter>
							<parameter>
								<parameterid>highlights</parameterid>
								<name>Level</name>
								<valuemin>64</valuemin>
								<valuemax>509</valuemax>
								<value>170</value>
							</parameter>
							<parameter>
								<parameterid>h_hue</parameterid>
								<name>Angle</name>
								<valuemin>-180</valuemin>
								<valuemax>180</valuemax>
								<value>-33</value>
							</parameter>
							<parameter>
								<parameterid>h_mag</parameterid>
								<name>Magnitude</name>
								<valuemin>0</valuemin>
								<valuemax>200</valuemax>
								<value>0</value>
							</parameter>
							<parameter>
								<parameterid>label4</parameterid>
								<name>Color Controls</name>
								<value/>
							</parameter>
							<parameter>
								<parameterid>chroma</parameterid>
								<name>Saturation</name>
								<valuemin>0</valuemin>
								<valuemax>200</valuemax>
								<value>53</value>
							</parameter>
							<parameter>
								<parameterid>label5</parameterid>
								<name>Limit Effect Controls</name>
								<value/>
							</parameter>
							<parameter>
								<parameterid>dochroma</parameterid>
								<name>Limit on Chroma</name>
								<value>FALSE</value>
							</parameter>
							<parameter>
								<parameterid>centerang</parameterid>
								<name>Chroma Center</name>
								<valuemin>-760</valuemin>
								<valuemax>760</valuemax>
								<value>-110</value>
							</parameter>
							<parameter>
								<parameterid>chromawidth</parameterid>
								<name>Chroma Width</name>
								<valuemin>0</valuemin>
								<valuemax>360</valuemax>
								<value>15</value>
							</parameter>
							<parameter>
								<parameterid>chromasoft</parameterid>
								<name>Chroma Softness</name>
								<valuemin>0</valuemin>
								<valuemax>180</valuemax>
								<value>10</value>
							</parameter>
							<parameter>
								<parameterid>dosat</parameterid>
								<name>Limit on Saturation</name>
								<value>FALSE</value>
							</parameter>
							<parameter>
								<parameterid>satmin</parameterid>
								<name>Sat. Minimum</name>
								<valuemin>0</valuemin>
								<valuemax>125</valuemax>
								<value>35</value>
							</parameter>
							<parameter>
								<parameterid>satwidth</parameterid>
								<name>Sat. Width</name>
								<valuemin>0</valuemin>
								<valuemax>125</valuemax>
								<value>40</value>
							</parameter>
							<parameter>
								<parameterid>satsoft</parameterid>
								<name>Sat. Softness</name>
								<valuemin>0</valuemin>
								<valuemax>125</valuemax>
								<value>20</value>
							</parameter>
							<parameter>
								<parameterid>doluma</parameterid>
								<name>Limit on Luma</name>
								<value>FALSE</value>
							</parameter>
							<parameter>
								<parameterid>lumamin</parameterid>
								<name>Luma Minimum</name>
								<valuemin>0</valuemin>
								<valuemax>120</valuemax>
								<value>0</value>
							</parameter>
							<parameter>
								<parameterid>lumawidth</parameterid>
								<name>Luma Width</name>
								<valuemin>0</valuemin>
								<valuemax>120</valuemax>
								<value>40</value>
							</parameter>
							<parameter>
								<parameterid>lumasoft</parameterid>
								<name>Luma Softness</name>
								<valuemin>0</valuemin>
								<valuemax>120</valuemax>
								<value>20</value>
							</parameter>
							<parameter>
								<parameterid>label6</parameterid>
								<name>Edge Control</name>
								<value/>
							</parameter>
							<parameter>
								<parameterid>edgethin</parameterid>
								<name>Thin/Spread</name>
								<valuemin>-100</valuemin>
								<valuemax>100</valuemax>
								<value>0</value>
							</parameter>
							<parameter>
								<parameterid>edgefeather</parameterid>
								<name>Softening</name>
								<valuemin>0</valuemin>
								<valuemax>100</valuemax>
								<value>0</value>
							</parameter>
							<parameter>
								<parameterid>label7</parameterid>
								<name>Mask Control</name>
								<value/>
							</parameter>
							<parameter>
								<parameterid>invertsel</parameterid>
								<name>Invert</name>
								<value>FALSE</value>
							</parameter>
							<parameter>
								<parameterid>debugshow</parameterid>
								<name>Show Stats</name>
								<value>FALSE</value>
							</parameter>
						</effect>
					</filter>
					<filter>
						<enabled>FALSE</enabled>
						<start>-1</start>
						<end>-1</end>
						<effect>
							<name>Color Corrector 3-way - 2</name>
							<effectid>Color Corrector 3-way</effectid>
							<effectcategory>Color Correction</effectcategory>
							<effecttype>filter</effecttype>
							<mediatype>video</mediatype>
							<parameter>
								<parameterid>dispmode</parameterid>
								<name>Display Mode</name>
								<valuemin>1</valuemin>
								<valuemax>3</valuemax>
								<valuelist>
									<valueentry>
										<name>Final</name>
										<value>1</value>
									</valueentry>
									<valueentry>
										<name>Matte</name>
										<value>2</value>
									</valueentry>
									<valueentry>
										<name>Source</name>
										<value>3</value>
									</valueentry>
								</valuelist>
								<value>1</value>
							</parameter>
							<parameter>
								<parameterid>label1</parameterid>
								<name>Blacks Controls</name>
								<value/>
							</parameter>
							<parameter>
								<parameterid>blacklevel</parameterid>
								<name>Level</name>
								<valuemin>-196</valuemin>
								<valuemax>254</valuemax>
								<value>-26</value>
							</parameter>
							<parameter>
								<parameterid>b_hue</parameterid>
								<name>Angle</name>
								<valuemin>-180</valuemin>
								<valuemax>180</valuemax>
								<value>-86.7688</value>
							</parameter>
							<parameter>
								<parameterid>b_mag</parameterid>
								<name>Magnitude</name>
								<valuemin>0</valuemin>
								<valuemax>200</valuemax>
								<value>2.80438</value>
							</parameter>
							<parameter>
								<parameterid>label2</parameterid>
								<name>Midrange Controls</name>
								<value/>
							</parameter>
							<parameter>
								<parameterid>mids</parameterid>
								<name>Level</name>
								<valuemin>0</valuemin>
								<valuemax>200</valuemax>
								<value>122</value>
							</parameter>
							<parameter>
								<parameterid>m_hue</parameterid>
								<name>Angle</name>
								<valuemin>-180</valuemin>
								<valuemax>180</valuemax>
								<value>-85.6677</value>
							</parameter>
							<parameter>
								<parameterid>m_mag</parameterid>
								<name>Magnitude</name>
								<valuemin>0</valuemin>
								<valuemax>200</valuemax>
								<value>1.49176</value>
							</parameter>
							<parameter>
								<parameterid>label3</parameterid>
								<name>Highlight Controls</name>
								<value/>
							</parameter>
							<parameter>
								<parameterid>highlights</parameterid>
								<name>Level</name>
								<valuemin>64</valuemin>
								<valuemax>509</valuemax>
								<value>225</value>
							</parameter>
							<parameter>
								<parameterid>h_hue</parameterid>
								<name>Angle</name>
								<valuemin>-180</valuemin>
								<valuemax>180</valuemax>
								<value>109.276</value>
							</parameter>
							<parameter>
								<parameterid>h_mag</parameterid>
								<name>Magnitude</name>
								<valuemin>0</valuemin>
								<valuemax>200</valuemax>
								<value>4.39402</value>
							</parameter>
							<parameter>
								<parameterid>label4</parameterid>
								<name>Color Controls</name>
								<value/>
							</parameter>
							<parameter>
								<parameterid>chroma</parameterid>
								<name>Saturation</name>
								<valuemin>0</valuemin>
								<valuemax>200</valuemax>
								<value>122</value>
							</parameter>
							<parameter>
								<parameterid>label5</parameterid>
								<name>Limit Effect Controls</name>
								<value/>
							</parameter>
							<parameter>
								<parameterid>dochroma</parameterid>
								<name>Limit on Chroma</name>
								<value>FALSE</value>
							</parameter>
							<parameter>
								<parameterid>centerang</parameterid>
								<name>Chroma Center</name>
								<valuemin>-760</valuemin>
								<valuemax>760</valuemax>
								<value>-110</value>
							</parameter>
							<parameter>
								<parameterid>chromawidth</parameterid>
								<name>Chroma Width</name>
								<valuemin>0</valuemin>
								<valuemax>360</valuemax>
								<value>15</value>
							</parameter>
							<parameter>
								<parameterid>chromasoft</parameterid>
								<name>Chroma Softness</name>
								<valuemin>0</valuemin>
								<valuemax>180</valuemax>
								<value>10</value>
							</parameter>
							<parameter>
								<parameterid>dosat</parameterid>
								<name>Limit on Saturation</name>
								<value>FALSE</value>
							</parameter>
							<parameter>
								<parameterid>satmin</parameterid>
								<name>Sat. Minimum</name>
								<valuemin>0</valuemin>
								<valuemax>125</valuemax>
								<value>35</value>
							</parameter>
							<parameter>
								<parameterid>satwidth</parameterid>
								<name>Sat. Width</name>
								<valuemin>0</valuemin>
								<valuemax>125</valuemax>
								<value>40</value>
							</parameter>
							<parameter>
								<parameterid>satsoft</parameterid>
								<name>Sat. Softness</name>
								<valuemin>0</valuemin>
								<valuemax>125</valuemax>
								<value>20</value>
							</parameter>
							<parameter>
								<parameterid>doluma</parameterid>
								<name>Limit on Luma</name>
								<value>FALSE</value>
							</parameter>
							<parameter>
								<parameterid>lumamin</parameterid>
								<name>Luma Minimum</name>
								<valuemin>0</valuemin>
								<valuemax>120</valuemax>
								<value>0</value>
							</parameter>
							<parameter>
								<parameterid>lumawidth</parameterid>
								<name>Luma Width</name>
								<valuemin>0</valuemin>
								<valuemax>120</valuemax>
								<value>40</value>
							</parameter>
							<parameter>
								<parameterid>lumasoft</parameterid>
								<name>Luma Softness</name>
								<valuemin>0</valuemin>
								<valuemax>120</valuemax>
								<value>20</value>
							</parameter>
							<parameter>
								<parameterid>label6</parameterid>
								<name>Edge Control</name>
								<value/>
							</parameter>
							<parameter>
								<parameterid>edgethin</parameterid>
								<name>Thin/Spread</name>
								<valuemin>-100</valuemin>
								<valuemax>100</valuemax>
								<value>0</value>
							</parameter>
							<parameter>
								<parameterid>edgefeather</parameterid>
								<name>Softening</name>
								<valuemin>0</valuemin>
								<valuemax>100</valuemax>
								<value>0</value>
							</parameter>
							<parameter>
								<parameterid>label7</parameterid>
								<name>Mask Control</name>
								<value/>
							</parameter>
							<parameter>
								<parameterid>invertsel</parameterid>
								<name>Invert</name>
								<value>FALSE</value>
							</parameter>
							<parameter>
								<parameterid>debugshow</parameterid>
								<name>Show Stats</name>
								<value>FALSE</value>
							</parameter>
						</effect>
					</filter>
					<filter>
						<enabled>TRUE</enabled>
						<start>-1</start>
						<end>-1</end>
						<effect>
							<name>Defocus</name>
							<effectid>FxPlugWrapper:0F3B36EF_B955_4471_87C6_9EE2A74AFE5E</effectid>
							<effectclass>FxPlug</effectclass>
							<effecttype>filter</effecttype>
							<mediatype>video</mediatype>
							<parameter>
								<parameterid>input_1</parameterid>
								<name>Amount</name>
								<valuemin>0</valuemin>
								<valuemax>16</valuemax>
								<value>13</value>
							</parameter>
							<parameter>
								<parameterid>input_2</parameterid>
								<name>Gain</name>
								<valuemin>0.05</valuemin>
								<valuemax>4</valuemax>
								<value>1.53766</value>
							</parameter>
							<parameter>
								<parameterid>input_3</parameterid>
								<name>Shape</name>
								<valuelist>
									<valueentry>
										<name>Circle</name>
										<value>1</value>
									</valueentry>
									<valueentry>
										<name>Polygon</name>
										<value>2</value>
									</valueentry>
								</valuelist>
								<value>1</value>
							</parameter>
							<parameter>
								<parameterid>input_4</parameterid>
								<name>Sides</name>
								<valuemin>3</valuemin>
								<valuemax>12</valuemax>
								<value>5.92208</value>
							</parameter>
							<parameter>
								<parameterid>input_5</parameterid>
								<name>Rotation</name>
								<valuemin>0</valuemin>
								<valuemax>360</valuemax>
								<value>0</value>
							</parameter>
							<parameter>
								<parameterid>input_6</parameterid>
								<name>Aspect Ratio</name>
								<valuemin>0</valuemin>
								<valuemax>2</valuemax>
								<value>1</value>
							</parameter>
							<parameter>
								<parameterid>input_7</parameterid>
								<name>Crop</name>
								<value>FALSE</value>
							</parameter>
							<parameter>
								<parameterid>FCP_FilterMix</parameterid>
								<name>Mix</name>
								<valuemin>0</valuemin>
								<valuemax>100</valuemax>
								<value>100</value>
							</parameter>
						</effect>
					</filter>
					<filter>
						<enabled>TRUE</enabled>
						<start>-1</start>
						<end>-1</end>
						<effect>
							<name>Tint</name>
							<effectid>Tint</effectid>
							<effectcategory>Image Control</effectcategory>
							<effecttype>filter</effecttype>
							<mediatype>video</mediatype>
							<parameter>
								<parameterid>rgbtint</parameterid>
								<name>Tint Color</name>
								<value>
									<alpha>0</alpha>
									<red>39</red>
									<green>123</green>
									<blue>255</blue>
								</value>
							</parameter>
							<parameter>
								<parameterid>amt</parameterid>
								<name>Amount</name>
								<valuemin>0</valuemin>
								<valuemax>100</valuemax>
								<value>12</value>
							</parameter>
						</effect>
					</filter>
					<filter>
						<effect>
							<name>Basic Motion</name>
							<effectid>basic</effectid>
							<effectcategory>motion</effectcategory>
							<effecttype>motion</effecttype>
							<mediatype>video</mediatype>
							<parameter>
								<parameterid>scale</parameterid>
								<name>Scale</name>
								<valuemin>0</valuemin>
								<valuemax>1000</valuemax>
								<value>100</value>
							</parameter>
							<parameter>
								<parameterid>rotation</parameterid>
								<name>Rotation</name>
								<valuemin>-8640</valuemin>
								<valuemax>8640</valuemax>
								<value>0</value>
							</parameter>
							<parameter>
								<parameterid>center</parameterid>
								<name>Center</name>
								<value>
									<horiz>0</horiz>
									<vert>0</vert>
								</value>
							</parameter>
							<parameter>
								<parameterid>centerOffset</parameterid>
								<name>Anchor Point</name>
								<value>
									<horiz>0</horiz>
									<vert>0</vert>
								</value>
							</parameter>
						</effect>
					</filter>
					<filter>
						<enabled>FALSE</enabled>
						<effect>
							<name>Drop Shadow</name>
							<effectid>dropshadow</effectid>
							<effectcategory>motion</effectcategory>
							<effecttype>motion</effecttype>
							<mediatype>video</mediatype>
							<parameter>
								<parameterid>offset</parameterid>
								<name>offset</name>
								<valuemin>-100</valuemin>
								<valuemax>100</valuemax>
								<value>2</value>
							</parameter>
							<parameter>
								<parameterid>angle</parameterid>
								<name>angle</name>
								<valuemin>-720</valuemin>
								<valuemax>720</valuemax>
								<value>135</value>
							</parameter>
							<parameter>
								<parameterid>color</parameterid>
								<name>color</name>
								<value>
									<alpha>0</alpha>
									<red>0</red>
									<green>0</green>
									<blue>0</blue>
								</value>
							</parameter>
							<parameter>
								<parameterid>softness</parameterid>
								<name>softness</name>
								<valuemin>0</valuemin>
								<valuemax>100</valuemax>
								<value>10</value>
							</parameter>
							<parameter>
								<parameterid>opacity</parameterid>
								<name>opacity</name>
								<valuemin>0</valuemin>
								<valuemax>100</valuemax>
								<value>50</value>
							</parameter>
						</effect>
					</filter>
					<filter>
						<enabled>FALSE</enabled>
						<effect>
							<name>Motion Blur</name>
							<effectid>motionblur</effectid>
							<effectcategory>motion</effectcategory>
							<effecttype>motion</effecttype>
							<mediatype>video</mediatype>
							<parameter>
								<parameterid>duration</parameterid>
								<name>% Blur</name>
								<valuemin>0</valuemin>
								<valuemax>1000</valuemax>
								<value>500</value>
							</parameter>
							<parameter>
								<parameterid>samples</parameterid>
								<name>Samples</name>
								<valuemin>1</valuemin>
								<valuemax>16</valuemax>
								<value>4</value>
							</parameter>
						</effect>
					</filter>
					<filter>
						<effect>
							<name>Crop</name>
							<effectid>crop</effectid>
							<effectcategory>motion</effectcategory>
							<effecttype>motion</effecttype>
							<mediatype>video</mediatype>
							<parameter>
								<parameterid>left</parameterid>
								<name>left</name>
								<valuemin>0</valuemin>
								<valuemax>100</valuemax>
								<value>53</value>
							</parameter>
							<parameter>
								<parameterid>right</parameterid>
								<name>right</name>
								<valuemin>0</valuemin>
								<valuemax>100</valuemax>
								<value>0</value>
							</parameter>
							<parameter>
								<parameterid>top</parameterid>
								<name>top</name>
								<valuemin>0</valuemin>
								<valuemax>100</valuemax>
								<value>0</value>
							</parameter>
							<parameter>
								<parameterid>bottom</parameterid>
								<name>bottom</name>
								<valuemin>0</valuemin>
								<valuemax>100</valuemax>
								<value>0</value>
							</parameter>
							<parameter>
								<parameterid>edgefeather</parameterid>
								<name>edgefeather</name>
								<valuemin>0</valuemin>
								<valuemax>100</valuemax>
								<value>0</value>
							</parameter>
						</effect>
					</filter>
					<filter>
						<effect>
							<name>Distort</name>
							<effectid>deformation</effectid>
							<effectcategory>motion</effectcategory>
							<effecttype>motion</effecttype>
							<mediatype>video</mediatype>
							<parameter>
								<parameterid>ulcorner</parameterid>
								<name>Upper Left</name>
								<value>
									<horiz>-0.5</horiz>
									<vert>-0.5</vert>
								</value>
							</parameter>
							<parameter>
								<parameterid>urcorner</parameterid>
								<name>Upper Right</name>
								<value>
									<horiz>0.5</horiz>
									<vert>-0.5</vert>
								</value>
							</parameter>
							<parameter>
								<parameterid>lrcorner</parameterid>
								<name>Lower Right</name>
								<value>
									<horiz>0.5</horiz>
									<vert>0.5</vert>
								</value>
							</parameter>
							<parameter>
								<parameterid>llcorner</parameterid>
								<name>Lower Left</name>
								<value>
									<horiz>-0.5</horiz>
									<vert>0.5</vert>
								</value>
							</parameter>
							<parameter>
								<parameterid>aspect</parameterid>
								<name>Aspect</name>
								<valuemin>-10000</valuemin>
								<valuemax>10000</valuemax>
								<value>0</value>
							</parameter>
						</effect>
					</filter>
					<filter>
						<effect>
							<name>Opacity</name>
							<effectid>opacity</effectid>
							<effectcategory>motion</effectcategory>
							<effecttype>motion</effecttype>
							<mediatype>video</mediatype>
							<parameter>
								<parameterid>opacity</parameterid>
								<name>opacity</name>
								<valuemin>0</valuemin>
								<valuemax>100</valuemax>
								<keyframe>
									<when>2687</when>
									<value>0</value>
									<outscale>0</outscale>
									<outbez>
										<horiz>9.25</horiz>
										<vert>0</vert>
									</outbez>
								</keyframe>
								<keyframe>
									<when>2770</when>
									<value>100</value>
									<inscale>0</inscale>
									<inbez>
										<horiz>9.25</horiz>
										<vert>-3.14159</vert>
									</inbez>
								</keyframe>
								<interpolation>
									<name>FCPCurve</name>
								</interpolation>
								<value>100</value>
							</parameter>
						</effect>
					</filter>
					<sourcetrack>
						<mediatype>video</mediatype>
					</sourcetrack>
					<fielddominance>upper</fielddominance>
					<itemhistory>
						<uuid>4B0F35E3-917C-4C84-B2A7-F6C737DD34A1</uuid>
					</itemhistory>
				</clipitem>
				<transitionitem>
					<rate>
						<ntsc>FALSE</ntsc>
						<timebase>25</timebase>
					</rate>
					<start>30484</start>
					<end>30509</end>
					<alignment>end-black</alignment>
					<effect>
						<name>Cross Dissolve</name>
						<effectid>Cross Dissolve</effectid>
						<effectcategory>Dissolve</effectcategory>
						<effecttype>transition</effecttype>
						<mediatype>video</mediatype>
						<wipecode>0</wipecode>
						<wipeaccuracy>100</wipeaccuracy>
						<startratio>0</startratio>
						<endratio>1</endratio>
						<reverse>FALSE</reverse>
					</effect>
				</transitionitem>
				<enabled>TRUE</enabled>
				<locked>FALSE</locked>
			</track>
			<track>
				<clipitem id="VIGNETT m ALPHA 25fps PROG SCAN">
					<name>VIGNETT m ALPHA 25fps PROG SCAN</name>
					<duration>881</duration>
					<rate>
						<ntsc>FALSE</ntsc>
						<timebase>25</timebase>
					</rate>
					<in>0</in>
					<out>720</out>
					<start>0</start>
					<end>720</end>
					<pixelaspectratio>Square</pixelaspectratio>
					<enabled>TRUE</enabled>
					<anamorphic>FALSE</anamorphic>
					<alphatype>straight</alphatype>
					<masterclipid>VIGNETT m ALPHA 25fps PROG SCAN1</masterclipid>
					<logginginfo>
						<scene/>
						<shottake/>
						<lognote/>
						<good>FALSE</good>
					</logginginfo>
					<labels>
						<label2/>
					</labels>
					<comments>
						<mastercomment1/>
						<mastercomment2/>
						<mastercomment3/>
						<mastercomment4/>
					</comments>
					<file id="VIGNETT m ALPHA 25fps PROG SCAN2">
						<name>VIGNETT m ALPHA 25fps PROG SCAN.mov</name>
						<pathurl>file://localhost/Volumes/Askepott/Prosjekter/DNPR637010_Kra%CC%8Akeklubben_TEM_011212/Grafikk/MASTERE%20GRAFIKK/VIGNETT%20m%20ALPHA%2025fps%20PROG%20SCAN.mov</pathurl>
						<rate>
							<timebase>25</timebase>
						</rate>
						<duration>881</duration>
						<timecode>
							<rate>
								<timebase>25</timebase>
							</rate>
							<string>00:00:00:00</string>
							<frame>0</frame>
							<displayformat>NDF</displayformat>
							<source>source</source>
						</timecode>
						<media>
							<video>
								<duration>881</duration>
								<samplecharacteristics>
									<width>1920</width>
									<height>1080</height>
								</samplecharacteristics>
							</video>
						</media>
					</file>
					<sourcetrack>
						<mediatype>video</mediatype>
					</sourcetrack>
					<fielddominance>upper</fielddominance>
					<itemhistory>
						<uuid>8FCB990C-D004-48BA-9012-E4E8BAB78CE3</uuid>
					</itemhistory>
				</clipitem>
				<clipitem id="VIGNETT m ALPHA 25fps PROG SCAN3">
					<name>VIGNETT m ALPHA 25fps PROG SCAN</name>
					<duration>881</duration>
					<rate>
						<ntsc>FALSE</ntsc>
						<timebase>25</timebase>
					</rate>
					<in>747</in>
					<out>876</out>
					<start>720</start>
					<end>849</end>
					<pixelaspectratio>Square</pixelaspectratio>
					<enabled>TRUE</enabled>
					<anamorphic>FALSE</anamorphic>
					<alphatype>straight</alphatype>
					<masterclipid>VIGNETT m ALPHA 25fps PROG SCAN1</masterclipid>
					<logginginfo>
						<scene/>
						<shottake/>
						<lognote/>
						<good>FALSE</good>
					</logginginfo>
					<labels>
						<label2/>
					</labels>
					<comments>
						<mastercomment1/>
						<mastercomment2/>
						<mastercomment3/>
						<mastercomment4/>
					</comments>
					<file id="VIGNETT m ALPHA 25fps PROG SCAN2"/>
					<sourcetrack>
						<mediatype>video</mediatype>
					</sourcetrack>
					<fielddominance>upper</fielddominance>
					<itemhistory>
						<uuid>537C124F-04C3-4482-9C17-8A09E40404C9</uuid>
					</itemhistory>
				</clipitem>
				<clipitem id="00767001.MOV6">
					<name>00767001.MOV</name>
					<duration>4836</duration>
					<rate>
						<ntsc>FALSE</ntsc>
						<timebase>25</timebase>
					</rate>
					<in>2205</in>
					<out>2252</out>
					<start>15231</start>
					<end>15278</end>
					<pixelaspectratio>Square</pixelaspectratio>
					<enabled>TRUE</enabled>
					<anamorphic>FALSE</anamorphic>
					<alphatype>none</alphatype>
					<masterclipid>00767001.MOV1</masterclipid>
					<logginginfo>
						<scene/>
						<shottake/>
						<lognote/>
						<good>FALSE</good>
					</logginginfo>
					<labels>
						<label2/>
					</labels>
					<comments>
						<mastercomment1/>
						<mastercomment2/>
						<mastercomment3/>
						<mastercomment4/>
					</comments>
					<file id="00767001 "/>
					<filter>
						<effect>
							<name>Basic Motion</name>
							<effectid>basic</effectid>
							<effectcategory>motion</effectcategory>
							<effecttype>motion</effecttype>
							<mediatype>video</mediatype>
							<parameter>
								<parameterid>scale</parameterid>
								<name>Scale</name>
								<valuemin>0</valuemin>
								<valuemax>1000</valuemax>
								<value>100</value>
							</parameter>
							<parameter>
								<parameterid>rotation</parameterid>
								<name>Rotation</name>
								<valuemin>-8640</valuemin>
								<valuemax>8640</valuemax>
								<value>0</value>
							</parameter>
							<parameter>
								<parameterid>center</parameterid>
								<name>Center</name>
								<value>
									<horiz>0</horiz>
									<vert>0</vert>
								</value>
							</parameter>
							<parameter>
								<parameterid>centerOffset</parameterid>
								<name>Anchor Point</name>
								<value>
									<horiz>0</horiz>
									<vert>0</vert>
								</value>
							</parameter>
						</effect>
					</filter>
					<filter>
						<enabled>FALSE</enabled>
						<effect>
							<name>Drop Shadow</name>
							<effectid>dropshadow</effectid>
							<effectcategory>motion</effectcategory>
							<effecttype>motion</effecttype>
							<mediatype>video</mediatype>
							<parameter>
								<parameterid>offset</parameterid>
								<name>offset</name>
								<valuemin>-100</valuemin>
								<valuemax>100</valuemax>
								<value>2</value>
							</parameter>
							<parameter>
								<parameterid>angle</parameterid>
								<name>angle</name>
								<valuemin>-720</valuemin>
								<valuemax>720</valuemax>
								<value>135</value>
							</parameter>
							<parameter>
								<parameterid>color</parameterid>
								<name>color</name>
								<value>
									<alpha>0</alpha>
									<red>0</red>
									<green>0</green>
									<blue>0</blue>
								</value>
							</parameter>
							<parameter>
								<parameterid>softness</parameterid>
								<name>softness</name>
								<valuemin>0</valuemin>
								<valuemax>100</valuemax>
								<value>10</value>
							</parameter>
							<parameter>
								<parameterid>opacity</parameterid>
								<name>opacity</name>
								<valuemin>0</valuemin>
								<valuemax>100</valuemax>
								<value>50</value>
							</parameter>
						</effect>
					</filter>
					<filter>
						<enabled>FALSE</enabled>
						<effect>
							<name>Motion Blur</name>
							<effectid>motionblur</effectid>
							<effectcategory>motion</effectcategory>
							<effecttype>motion</effecttype>
							<mediatype>video</mediatype>
							<parameter>
								<parameterid>duration</parameterid>
								<name>% Blur</name>
								<valuemin>0</valuemin>
								<valuemax>1000</valuemax>
								<value>500</value>
							</parameter>
							<parameter>
								<parameterid>samples</parameterid>
								<name>Samples</name>
								<valuemin>1</valuemin>
								<valuemax>16</valuemax>
								<value>4</value>
							</parameter>
						</effect>
					</filter>
					<filter>
						<effect>
							<name>Crop</name>
							<effectid>crop</effectid>
							<effectcategory>motion</effectcategory>
							<effecttype>motion</effecttype>
							<mediatype>video</mediatype>
							<parameter>
								<parameterid>left</parameterid>
								<name>left</name>
								<valuemin>0</valuemin>
								<valuemax>100</valuemax>
								<value>0</value>
							</parameter>
							<parameter>
								<parameterid>right</parameterid>
								<name>right</name>
								<valuemin>0</valuemin>
								<valuemax>100</valuemax>
								<value>0</value>
							</parameter>
							<parameter>
								<parameterid>top</parameterid>
								<name>top</name>
								<valuemin>0</valuemin>
								<valuemax>100</valuemax>
								<value>0</value>
							</parameter>
							<parameter>
								<parameterid>bottom</parameterid>
								<name>bottom</name>
								<valuemin>0</valuemin>
								<valuemax>100</valuemax>
								<value>0</value>
							</parameter>
							<parameter>
								<parameterid>edgefeather</parameterid>
								<name>edgefeather</name>
								<valuemin>0</valuemin>
								<valuemax>100</valuemax>
								<value>0</value>
							</parameter>
						</effect>
					</filter>
					<filter>
						<effect>
							<name>Distort</name>
							<effectid>deformation</effectid>
							<effectcategory>motion</effectcategory>
							<effecttype>motion</effecttype>
							<mediatype>video</mediatype>
							<parameter>
								<parameterid>ulcorner</parameterid>
								<name>Upper Left</name>
								<value>
									<horiz>-0.5</horiz>
									<vert>-0.5</vert>
								</value>
							</parameter>
							<parameter>
								<parameterid>urcorner</parameterid>
								<name>Upper Right</name>
								<value>
									<horiz>0.5</horiz>
									<vert>-0.5</vert>
								</value>
							</parameter>
							<parameter>
								<parameterid>lrcorner</parameterid>
								<name>Lower Right</name>
								<value>
									<horiz>0.5</horiz>
									<vert>0.5</vert>
								</value>
							</parameter>
							<parameter>
								<parameterid>llcorner</parameterid>
								<name>Lower Left</name>
								<value>
									<horiz>-0.5</horiz>
									<vert>0.5</vert>
								</value>
							</parameter>
							<parameter>
								<parameterid>aspect</parameterid>
								<name>Aspect</name>
								<valuemin>-10000</valuemin>
								<valuemax>10000</valuemax>
								<value>0</value>
							</parameter>
						</effect>
					</filter>
					<filter>
						<effect>
							<name>Opacity</name>
							<effectid>opacity</effectid>
							<effectcategory>motion</effectcategory>
							<effecttype>motion</effecttype>
							<mediatype>video</mediatype>
							<parameter>
								<parameterid>opacity</parameterid>
								<name>opacity</name>
								<valuemin>0</valuemin>
								<valuemax>100</valuemax>
								<value>100</value>
							</parameter>
						</effect>
					</filter>
					<sourcetrack>
						<mediatype>video</mediatype>
					</sourcetrack>
					<fielddominance>upper</fielddominance>
					<itemhistory>
						<uuid>8631F609-D0D9-452D-AFE2-68999DC4A46B</uuid>
					</itemhistory>
				</clipitem>
				<clipitem id="00767001.MOV7">
					<name>00767001.MOV</name>
					<duration>4836</duration>
					<rate>
						<ntsc>FALSE</ntsc>
						<timebase>25</timebase>
					</rate>
					<in>1128</in>
					<out>1156</out>
					<start>15807</start>
					<end>15835</end>
					<pixelaspectratio>Square</pixelaspectratio>
					<enabled>TRUE</enabled>
					<anamorphic>FALSE</anamorphic>
					<alphatype>none</alphatype>
					<masterclipid>00767001.MOV1</masterclipid>
					<logginginfo>
						<scene/>
						<shottake/>
						<lognote/>
						<good>FALSE</good>
					</logginginfo>
					<labels>
						<label2/>
					</labels>
					<comments>
						<mastercomment1/>
						<mastercomment2/>
						<mastercomment3/>
						<mastercomment4/>
					</comments>
					<file id="00767001 "/>
					<filter>
						<effect>
							<name>Basic Motion</name>
							<effectid>basic</effectid>
							<effectcategory>motion</effectcategory>
							<effecttype>motion</effecttype>
							<mediatype>video</mediatype>
							<parameter>
								<parameterid>scale</parameterid>
								<name>Scale</name>
								<valuemin>0</valuemin>
								<valuemax>1000</valuemax>
								<value>100</value>
							</parameter>
							<parameter>
								<parameterid>rotation</parameterid>
								<name>Rotation</name>
								<valuemin>-8640</valuemin>
								<valuemax>8640</valuemax>
								<value>0</value>
							</parameter>
							<parameter>
								<parameterid>center</parameterid>
								<name>Center</name>
								<value>
									<horiz>0</horiz>
									<vert>0</vert>
								</value>
							</parameter>
							<parameter>
								<parameterid>centerOffset</parameterid>
								<name>Anchor Point</name>
								<value>
									<horiz>0</horiz>
									<vert>0</vert>
								</value>
							</parameter>
						</effect>
					</filter>
					<filter>
						<enabled>FALSE</enabled>
						<effect>
							<name>Drop Shadow</name>
							<effectid>dropshadow</effectid>
							<effectcategory>motion</effectcategory>
							<effecttype>motion</effecttype>
							<mediatype>video</mediatype>
							<parameter>
								<parameterid>offset</parameterid>
								<name>offset</name>
								<valuemin>-100</valuemin>
								<valuemax>100</valuemax>
								<value>2</value>
							</parameter>
							<parameter>
								<parameterid>angle</parameterid>
								<name>angle</name>
								<valuemin>-720</valuemin>
								<valuemax>720</valuemax>
								<value>135</value>
							</parameter>
							<parameter>
								<parameterid>color</parameterid>
								<name>color</name>
								<value>
									<alpha>0</alpha>
									<red>0</red>
									<green>0</green>
									<blue>0</blue>
								</value>
							</parameter>
							<parameter>
								<parameterid>softness</parameterid>
								<name>softness</name>
								<valuemin>0</valuemin>
								<valuemax>100</valuemax>
								<value>10</value>
							</parameter>
							<parameter>
								<parameterid>opacity</parameterid>
								<name>opacity</name>
								<valuemin>0</valuemin>
								<valuemax>100</valuemax>
								<value>50</value>
							</parameter>
						</effect>
					</filter>
					<filter>
						<enabled>FALSE</enabled>
						<effect>
							<name>Motion Blur</name>
							<effectid>motionblur</effectid>
							<effectcategory>motion</effectcategory>
							<effecttype>motion</effecttype>
							<mediatype>video</mediatype>
							<parameter>
								<parameterid>duration</parameterid>
								<name>% Blur</name>
								<valuemin>0</valuemin>
								<valuemax>1000</valuemax>
								<value>500</value>
							</parameter>
							<parameter>
								<parameterid>samples</parameterid>
								<name>Samples</name>
								<valuemin>1</valuemin>
								<valuemax>16</valuemax>
								<value>4</value>
							</parameter>
						</effect>
					</filter>
					<filter>
						<effect>
							<name>Crop</name>
							<effectid>crop</effectid>
							<effectcategory>motion</effectcategory>
							<effecttype>motion</effecttype>
							<mediatype>video</mediatype>
							<parameter>
								<parameterid>left</parameterid>
								<name>left</name>
								<valuemin>0</valuemin>
								<valuemax>100</valuemax>
								<value>0</value>
							</parameter>
							<parameter>
								<parameterid>right</parameterid>
								<name>right</name>
								<valuemin>0</valuemin>
								<valuemax>100</valuemax>
								<value>0</value>
							</parameter>
							<parameter>
								<parameterid>top</parameterid>
								<name>top</name>
								<valuemin>0</valuemin>
								<valuemax>100</valuemax>
								<value>0</value>
							</parameter>
							<parameter>
								<parameterid>bottom</parameterid>
								<name>bottom</name>
								<valuemin>0</valuemin>
								<valuemax>100</valuemax>
								<value>0</value>
							</parameter>
							<parameter>
								<parameterid>edgefeather</parameterid>
								<name>edgefeather</name>
								<valuemin>0</valuemin>
								<valuemax>100</valuemax>
								<value>0</value>
							</parameter>
						</effect>
					</filter>
					<filter>
						<effect>
							<name>Distort</name>
							<effectid>deformation</effectid>
							<effectcategory>motion</effectcategory>
							<effecttype>motion</effecttype>
							<mediatype>video</mediatype>
							<parameter>
								<parameterid>ulcorner</parameterid>
								<name>Upper Left</name>
								<value>
									<horiz>-0.5</horiz>
									<vert>-0.5</vert>
								</value>
							</parameter>
							<parameter>
								<parameterid>urcorner</parameterid>
								<name>Upper Right</name>
								<value>
									<horiz>0.5</horiz>
									<vert>-0.5</vert>
								</value>
							</parameter>
							<parameter>
								<parameterid>lrcorner</parameterid>
								<name>Lower Right</name>
								<value>
									<horiz>0.5</horiz>
									<vert>0.5</vert>
								</value>
							</parameter>
							<parameter>
								<parameterid>llcorner</parameterid>
								<name>Lower Left</name>
								<value>
									<horiz>-0.5</horiz>
									<vert>0.5</vert>
								</value>
							</parameter>
							<parameter>
								<parameterid>aspect</parameterid>
								<name>Aspect</name>
								<valuemin>-10000</valuemin>
								<valuemax>10000</valuemax>
								<value>0</value>
							</parameter>
						</effect>
					</filter>
					<filter>
						<effect>
							<name>Opacity</name>
							<effectid>opacity</effectid>
							<effectcategory>motion</effectcategory>
							<effecttype>motion</effecttype>
							<mediatype>video</mediatype>
							<parameter>
								<parameterid>opacity</parameterid>
								<name>opacity</name>
								<valuemin>0</valuemin>
								<valuemax>100</valuemax>
								<value>100</value>
							</parameter>
						</effect>
					</filter>
					<sourcetrack>
						<mediatype>video</mediatype>
					</sourcetrack>
					<fielddominance>upper</fielddominance>
					<itemhistory>
						<uuid>F607D9C9-6CE4-4B49-B8F2-F4FABDE1FB50</uuid>
					</itemhistory>
				</clipitem>
				<clipitem id="00748001.MOV5">
					<name>00748001.MOV</name>
					<duration>2712</duration>
					<rate>
						<ntsc>FALSE</ntsc>
						<timebase>25</timebase>
					</rate>
					<in>1152</in>
					<out>1271</out>
					<start>15835</start>
					<end>15954</end>
					<pixelaspectratio>Square</pixelaspectratio>
					<enabled>TRUE</enabled>
					<anamorphic>FALSE</anamorphic>
					<alphatype>none</alphatype>
					<masterclipid>00748001.MOV1</masterclipid>
					<logginginfo>
						<scene/>
						<shottake/>
						<lognote/>
						<good>FALSE</good>
					</logginginfo>
					<labels>
						<label2/>
					</labels>
					<comments>
						<mastercomment1/>
						<mastercomment2/>
						<mastercomment3/>
						<mastercomment4/>
					</comments>
					<file id="00748001 "/>
					<filter>
						<start>-1</start>
						<end>-1</end>
						<effect>
							<name>Shift Fields</name>
							<effectid>Shift Fields</effectid>
							<effectcategory>Video</effectcategory>
							<effecttype>filter</effecttype>
							<mediatype>video</mediatype>
							<parameter>
								<parameterid>dir</parameterid>
								<name>Shift Direction</name>
								<valuemin>1</valuemin>
								<valuemax>3</valuemax>
								<valuelist>
									<valueentry>
										<name> +1</name>
										<value>1</value>
									</valueentry>
									<valueentry>
										<name>none</name>
										<value>2</value>
									</valueentry>
									<valueentry>
										<name> -1</name>
										<value>3</value>
									</valueentry>
								</valuelist>
								<value>1</value>
							</parameter>
						</effect>
					</filter>
					<sourcetrack>
						<mediatype>video</mediatype>
					</sourcetrack>
					<fielddominance>upper</fielddominance>
					<itemhistory>
						<uuid>DCBD1F1D-BE46-4748-9B6E-7E93B73D5419</uuid>
					</itemhistory>
					<filter>
						<effect>
							<name>Time Remap</name>
							<effectid>timeremap</effectid>
							<effectcategory>motion</effectcategory>
							<effecttype>motion</effecttype>
							<mediatype>video</mediatype>
							<parameter>
								<parameterid>variablespeed</parameterid>
								<name>variablespeed</name>
								<valuemin>0</valuemin>
								<valuemax>1</valuemax>
								<value>0</value>
							</parameter>
							<parameter>
								<parameterid>mappedduration</parameterid>
								<name>mappedduration</name>
								<value>
									<timecode>
										<rate>
											<timebase>0</timebase>
										</rate>
										<string>0</string>
										<frame>0</frame>
										<displayformat>NDF</displayformat>
									</timecode>
								</value>
							</parameter>
							<parameter>
								<parameterid>speed</parameterid>
								<name>speed</name>
								<valuemin>-10000</valuemin>
								<valuemax>10000</valuemax>
								<value>100</value>
							</parameter>
							<parameter>
								<parameterid>reverse</parameterid>
								<name>reverse</name>
								<value>TRUE</value>
							</parameter>
							<parameter>
								<parameterid>frameblending</parameterid>
								<name>frameblending</name>
								<value>TRUE</value>
							</parameter>
							<parameter>
								<parameterid>graphdict</parameterid>
								<name>graphdict</name>
								<valuemin>0</valuemin>
								<valuemax>2711</valuemax>
								<keyframe>
									<when>0</when>
									<value>2713</value>
									<speedkfstart>TRUE</speedkfstart>
									<speedvirtualkf>TRUE</speedvirtualkf>
								</keyframe>
								<keyframe>
									<when>1152</when>
									<value>1560</value>
									<speedkfin>TRUE</speedkfin>
									<speedvirtualkf>TRUE</speedvirtualkf>
								</keyframe>
								<keyframe>
									<when>1271</when>
									<value>1441</value>
									<speedkfout>TRUE</speedkfout>
									<speedvirtualkf>TRUE</speedvirtualkf>
								</keyframe>
								<keyframe>
									<when>2712</when>
									<value>1</value>
									<speedkfend>TRUE</speedkfend>
									<speedvirtualkf>TRUE</speedvirtualkf>
								</keyframe>
								<interpolation>
									<name>FCPCurve</name>
								</interpolation>
								<value>1559</value>
							</parameter>
						</effect>
					</filter>
				</clipitem>
				<clipitem id="MVI_0756 3">
					<name>MVI_0756</name>
					<duration>495</duration>
					<rate>
						<ntsc>FALSE</ntsc>
						<timebase>25</timebase>
					</rate>
					<in>205</in>
					<out>282</out>
					<start>16540</start>
					<end>16617</end>
					<pixelaspectratio>Square</pixelaspectratio>
					<enabled>TRUE</enabled>
					<anamorphic>FALSE</anamorphic>
					<alphatype>none</alphatype>
					<masterclipid>MVI_0756 1</masterclipid>
					<logginginfo>
						<scene/>
						<shottake/>
						<lognote/>
						<good>FALSE</good>
					</logginginfo>
					<labels>
						<label2/>
					</labels>
					<comments>
						<mastercomment1/>
						<mastercomment2/>
						<mastercomment3/>
						<mastercomment4/>
					</comments>
					<file id="MVI_0756 2"/>
					<sourcetrack>
						<mediatype>video</mediatype>
					</sourcetrack>
					<fielddominance>upper</fielddominance>
					<itemhistory>
						<uuid>C9BBFB17-A8EE-40CB-B0AE-19F1A76A706D</uuid>
					</itemhistory>
				</clipitem>
				<clipitem id="MVI_0757 3">
					<name>MVI_0757</name>
					<duration>1128</duration>
					<rate>
						<ntsc>FALSE</ntsc>
						<timebase>25</timebase>
					</rate>
					<in>752</in>
					<out>798</out>
					<start>17135</start>
					<end>17181</end>
					<pixelaspectratio>Square</pixelaspectratio>
					<anamorphic>FALSE</anamorphic>
					<alphatype>none</alphatype>
					<masterclipid>MVI_0757 1</masterclipid>
					<logginginfo>
						<scene/>
						<shottake/>
						<lognote/>
						<good>FALSE</good>
					</logginginfo>
					<labels>
						<label2/>
					</labels>
					<comments>
						<mastercomment1/>
						<mastercomment2/>
						<mastercomment3/>
						<mastercomment4/>
					</comments>
					<file id="MVI_0757 2"/>
					<filter>
						<effect>
							<name>Basic Motion</name>
							<effectid>basic</effectid>
							<effectcategory>motion</effectcategory>
							<effecttype>motion</effecttype>
							<mediatype>video</mediatype>
							<parameter>
								<parameterid>scale</parameterid>
								<name>Scale</name>
								<valuemin>0</valuemin>
								<valuemax>1000</valuemax>
								<value>100</value>
							</parameter>
							<parameter>
								<parameterid>rotation</parameterid>
								<name>Rotation</name>
								<valuemin>-8640</valuemin>
								<valuemax>8640</valuemax>
								<value>0</value>
							</parameter>
							<parameter>
								<parameterid>center</parameterid>
								<name>Center</name>
								<value>
									<horiz>0</horiz>
									<vert>0</vert>
								</value>
							</parameter>
							<parameter>
								<parameterid>centerOffset</parameterid>
								<name>Anchor Point</name>
								<value>
									<horiz>0</horiz>
									<vert>0</vert>
								</value>
							</parameter>
						</effect>
					</filter>
					<filter>
						<enabled>FALSE</enabled>
						<effect>
							<name>Drop Shadow</name>
							<effectid>dropshadow</effectid>
							<effectcategory>motion</effectcategory>
							<effecttype>motion</effecttype>
							<mediatype>video</mediatype>
							<parameter>
								<parameterid>offset</parameterid>
								<name>offset</name>
								<valuemin>-100</valuemin>
								<valuemax>100</valuemax>
								<value>2</value>
							</parameter>
							<parameter>
								<parameterid>angle</parameterid>
								<name>angle</name>
								<valuemin>-720</valuemin>
								<valuemax>720</valuemax>
								<value>135</value>
							</parameter>
							<parameter>
								<parameterid>color</parameterid>
								<name>color</name>
								<value>
									<alpha>0</alpha>
									<red>0</red>
									<green>0</green>
									<blue>0</blue>
								</value>
							</parameter>
							<parameter>
								<parameterid>softness</parameterid>
								<name>softness</name>
								<valuemin>0</valuemin>
								<valuemax>100</valuemax>
								<value>10</value>
							</parameter>
							<parameter>
								<parameterid>opacity</parameterid>
								<name>opacity</name>
								<valuemin>0</valuemin>
								<valuemax>100</valuemax>
								<value>50</value>
							</parameter>
						</effect>
					</filter>
					<filter>
						<enabled>FALSE</enabled>
						<effect>
							<name>Motion Blur</name>
							<effectid>motionblur</effectid>
							<effectcategory>motion</effectcategory>
							<effecttype>motion</effecttype>
							<mediatype>video</mediatype>
							<parameter>
								<parameterid>duration</parameterid>
								<name>% Blur</name>
								<valuemin>0</valuemin>
								<valuemax>1000</valuemax>
								<value>500</value>
							</parameter>
							<parameter>
								<parameterid>samples</parameterid>
								<name>Samples</name>
								<valuemin>1</valuemin>
								<valuemax>16</valuemax>
								<value>4</value>
							</parameter>
						</effect>
					</filter>
					<filter>
						<effect>
							<name>Crop</name>
							<effectid>crop</effectid>
							<effectcategory>motion</effectcategory>
							<effecttype>motion</effecttype>
							<mediatype>video</mediatype>
							<parameter>
								<parameterid>left</parameterid>
								<name>left</name>
								<valuemin>0</valuemin>
								<valuemax>100</valuemax>
								<value>0</value>
							</parameter>
							<parameter>
								<parameterid>right</parameterid>
								<name>right</name>
								<valuemin>0</valuemin>
								<valuemax>100</valuemax>
								<value>0</value>
							</parameter>
							<parameter>
								<parameterid>top</parameterid>
								<name>top</name>
								<valuemin>0</valuemin>
								<valuemax>100</valuemax>
								<value>0</value>
							</parameter>
							<parameter>
								<parameterid>bottom</parameterid>
								<name>bottom</name>
								<valuemin>0</valuemin>
								<valuemax>100</valuemax>
								<value>0</value>
							</parameter>
							<parameter>
								<parameterid>edgefeather</parameterid>
								<name>edgefeather</name>
								<valuemin>0</valuemin>
								<valuemax>100</valuemax>
								<value>0</value>
							</parameter>
						</effect>
					</filter>
					<filter>
						<effect>
							<name>Distort</name>
							<effectid>deformation</effectid>
							<effectcategory>motion</effectcategory>
							<effecttype>motion</effecttype>
							<mediatype>video</mediatype>
							<parameter>
								<parameterid>ulcorner</parameterid>
								<name>Upper Left</name>
								<value>
									<horiz>-0.5</horiz>
									<vert>-0.5</vert>
								</value>
							</parameter>
							<parameter>
								<parameterid>urcorner</parameterid>
								<name>Upper Right</name>
								<value>
									<horiz>0.5</horiz>
									<vert>-0.5</vert>
								</value>
							</parameter>
							<parameter>
								<parameterid>lrcorner</parameterid>
								<name>Lower Right</name>
								<value>
									<horiz>0.5</horiz>
									<vert>0.5</vert>
								</value>
							</parameter>
							<parameter>
								<parameterid>llcorner</parameterid>
								<name>Lower Left</name>
								<value>
									<horiz>-0.5</horiz>
									<vert>0.5</vert>
								</value>
							</parameter>
							<parameter>
								<parameterid>aspect</parameterid>
								<name>Aspect</name>
								<valuemin>-10000</valuemin>
								<valuemax>10000</valuemax>
								<value>0</value>
							</parameter>
						</effect>
					</filter>
					<filter>
						<effect>
							<name>Opacity</name>
							<effectid>opacity</effectid>
							<effectcategory>motion</effectcategory>
							<effecttype>motion</effecttype>
							<mediatype>video</mediatype>
							<parameter>
								<parameterid>opacity</parameterid>
								<name>opacity</name>
								<valuemin>0</valuemin>
								<valuemax>100</valuemax>
								<value>100</value>
							</parameter>
						</effect>
					</filter>
					<sourcetrack>
						<mediatype>video</mediatype>
					</sourcetrack>
					<fielddominance>upper</fielddominance>
					<itemhistory>
						<uuid>AE7B17B6-9207-43B2-ABF5-491BD5B96405</uuid>
					</itemhistory>
				</clipitem>
				<clipitem id="DYR18499_01 3">
					<name>DYR18499_01</name>
					<duration>762</duration>
					<rate>
						<ntsc>FALSE</ntsc>
						<timebase>25</timebase>
					</rate>
					<in>599</in>
					<out>638</out>
					<start>18937</start>
					<end>18976</end>
					<pixelaspectratio>Square</pixelaspectratio>
					<enabled>TRUE</enabled>
					<anamorphic>FALSE</anamorphic>
					<alphatype>none</alphatype>
					<masterclipid>DYR18499_01 1</masterclipid>
					<logginginfo>
						<scene/>
						<shottake/>
						<lognote/>
						<good>FALSE</good>
					</logginginfo>
					<labels>
						<label2/>
					</labels>
					<comments>
						<mastercomment1/>
						<mastercomment2/>
						<mastercomment3/>
						<mastercomment4/>
					</comments>
					<file id="DYR18499_01 2"/>
					<sourcetrack>
						<mediatype>video</mediatype>
					</sourcetrack>
					<fielddominance>upper</fielddominance>
					<itemhistory>
						<uuid>B45B1053-A489-4ECD-B1C4-F281A992A796</uuid>
					</itemhistory>
				</clipitem>
				<transitionitem>
					<rate>
						<ntsc>FALSE</ntsc>
						<timebase>25</timebase>
					</rate>
					<start>19123</start>
					<end>19135</end>
					<alignment>start-black</alignment>
					<effect>
						<name>Cross Dissolve</name>
						<effectid>Cross Dissolve</effectid>
						<effectcategory>Dissolve</effectcategory>
						<effecttype>transition</effecttype>
						<mediatype>video</mediatype>
						<wipecode>0</wipecode>
						<wipeaccuracy>100</wipeaccuracy>
						<startratio>0</startratio>
						<endratio>1</endratio>
						<reverse>FALSE</reverse>
					</effect>
				</transitionitem>
				<clipitem id="DYR18497_01 3">
					<name>DYR18497_01</name>
					<duration>939</duration>
					<rate>
						<ntsc>FALSE</ntsc>
						<timebase>25</timebase>
					</rate>
					<in>107</in>
					<out>204</out>
					<start>-1</start>
					<end>19220</end>
					<pixelaspectratio>Square</pixelaspectratio>
					<enabled>TRUE</enabled>
					<anamorphic>FALSE</anamorphic>
					<alphatype>none</alphatype>
					<masterclipid>DYR18497_01 1</masterclipid>
					<logginginfo>
						<scene/>
						<shottake/>
						<lognote/>
						<good>FALSE</good>
					</logginginfo>
					<labels>
						<label2/>
					</labels>
					<comments>
						<mastercomment1/>
						<mastercomment2/>
						<mastercomment3/>
						<mastercomment4/>
					</comments>
					<file id="DYR18497_01 2"/>
					<sourcetrack>
						<mediatype>video</mediatype>
					</sourcetrack>
					<fielddominance>upper</fielddominance>
					<itemhistory>
						<uuid>73769B34-1071-4894-9784-713280888E1E</uuid>
					</itemhistory>
				</clipitem>
				<clipitem id="MVI_0795 ">
					<name>MVI_0795</name>
					<duration>284</duration>
					<rate>
						<ntsc>FALSE</ntsc>
						<timebase>25</timebase>
					</rate>
					<in>2</in>
					<out>122</out>
					<start>19689</start>
					<end>19809</end>
					<pixelaspectratio>Square</pixelaspectratio>
					<enabled>TRUE</enabled>
					<anamorphic>FALSE</anamorphic>
					<alphatype>none</alphatype>
					<masterclipid>MVI_0795 1</masterclipid>
					<logginginfo>
						<scene/>
						<shottake/>
						<lognote/>
						<good>FALSE</good>
					</logginginfo>
					<labels>
						<label2/>
					</labels>
					<comments>
						<mastercomment1/>
						<mastercomment2/>
						<mastercomment3/>
						<mastercomment4/>
					</comments>
					<file id="MVI_0795 2">
						<name>MVI_0795.mov</name>
						<pathurl>file://localhost/Volumes/Askepott/Prosjekter/DNPR637010_Kra%CC%8Akeklubben_TEM_011212/Video/TORDS%20GARASJE/Insekt/Maur/Apple%20ProRes%20422%20HQ/MVI_0795.mov</pathurl>
						<rate>
							<timebase>25</timebase>
						</rate>
						<duration>284</duration>
						<media>
							<video>
								<duration>284</duration>
								<samplecharacteristics>
									<width>1920</width>
									<height>1080</height>
								</samplecharacteristics>
							</video>
						</media>
					</file>
					<sourcetrack>
						<mediatype>video</mediatype>
					</sourcetrack>
					<fielddominance>upper</fielddominance>
					<itemhistory>
						<uuid>1A145EF7-8AD1-4B02-A247-E930C573C54B</uuid>
					</itemhistory>
				</clipitem>
				<clipitem id="MVI_0820 ">
					<name>MVI_0820</name>
					<duration>291</duration>
					<rate>
						<ntsc>FALSE</ntsc>
						<timebase>25</timebase>
					</rate>
					<in>21</in>
					<out>125</out>
					<start>20175</start>
					<end>-1</end>
					<pixelaspectratio>Square</pixelaspectratio>
					<enabled>TRUE</enabled>
					<anamorphic>FALSE</anamorphic>
					<alphatype>none</alphatype>
					<masterclipid>MVI_0820 1</masterclipid>
					<logginginfo>
						<scene/>
						<shottake/>
						<lognote/>
						<good>FALSE</good>
					</logginginfo>
					<labels>
						<label2/>
					</labels>
					<comments>
						<mastercomment1/>
						<mastercomment2/>
						<mastercomment3/>
						<mastercomment4/>
					</comments>
					<file id="MVI_0820 2">
						<name>MVI_0820.mov</name>
						<pathurl>file://localhost/Volumes/Askepott/Prosjekter/DNPR637010_Kra%CC%8Akeklubben_TEM_011212/Video/TORDS%20GARASJE/Insekt/Maur/Apple%20ProRes%20422%20HQ/MVI_0820.mov</pathurl>
						<rate>
							<timebase>25</timebase>
						</rate>
						<duration>291</duration>
						<media>
							<video>
								<duration>291</duration>
								<samplecharacteristics>
									<width>1920</width>
									<height>1080</height>
								</samplecharacteristics>
							</video>
						</media>
					</file>
					<sourcetrack>
						<mediatype>video</mediatype>
					</sourcetrack>
					<fielddominance>upper</fielddominance>
					<itemhistory>
						<uuid>8042E65F-8A2E-48E7-B1CA-206B97F99E8E</uuid>
					</itemhistory>
				</clipitem>
				<transitionitem>
					<rate>
						<ntsc>FALSE</ntsc>
						<timebase>25</timebase>
					</rate>
					<start>20254</start>
					<end>20279</end>
					<alignment>center</alignment>
					<effect>
						<name>Cross Dissolve</name>
						<effectid>Cross Dissolve</effectid>
						<effectcategory>Dissolve</effectcategory>
						<effecttype>transition</effecttype>
						<mediatype>video</mediatype>
						<wipecode>0</wipecode>
						<wipeaccuracy>100</wipeaccuracy>
						<startratio>0</startratio>
						<endratio>1</endratio>
						<reverse>FALSE</reverse>
					</effect>
				</transitionitem>
				<clipitem id="MVI_0790 ">
					<name>MVI_0790</name>
					<duration>879</duration>
					<rate>
						<ntsc>FALSE</ntsc>
						<timebase>25</timebase>
					</rate>
					<in>392</in>
					<out>520</out>
					<start>-1</start>
					<end>20382</end>
					<pixelaspectratio>Square</pixelaspectratio>
					<enabled>TRUE</enabled>
					<anamorphic>FALSE</anamorphic>
					<alphatype>none</alphatype>
					<masterclipid>MVI_0790 1</masterclipid>
					<logginginfo>
						<scene/>
						<shottake/>
						<lognote/>
						<good>FALSE</good>
					</logginginfo>
					<labels>
						<label2/>
					</labels>
					<comments>
						<mastercomment1/>
						<mastercomment2/>
						<mastercomment3/>
						<mastercomment4/>
					</comments>
					<file id="MVI_0790 2">
						<name>MVI_0790.mov</name>
						<pathurl>file://localhost/Volumes/Askepott/Prosjekter/DNPR637010_Kra%CC%8Akeklubben_TEM_011212/Video/TORDS%20GARASJE/Insekt/Maur/Apple%20ProRes%20422%20HQ/MVI_0790.mov</pathurl>
						<rate>
							<timebase>25</timebase>
						</rate>
						<duration>879</duration>
						<media>
							<video>
								<duration>879</duration>
								<samplecharacteristics>
									<width>1920</width>
									<height>1080</height>
								</samplecharacteristics>
							</video>
						</media>
					</file>
					<sourcetrack>
						<mediatype>video</mediatype>
					</sourcetrack>
					<fielddominance>upper</fielddominance>
					<itemhistory>
						<uuid>2B361BDC-46CA-4E4D-8A9D-9C73E113D9DF</uuid>
					</itemhistory>
				</clipitem>
				<clipitem id="00791001.MOV">
					<name>00791001.MOV</name>
					<duration>1224</duration>
					<rate>
						<ntsc>FALSE</ntsc>
						<timebase>25</timebase>
					</rate>
					<in>986</in>
					<out>1069</out>
					<start>22814</start>
					<end>22897</end>
					<pixelaspectratio>Square</pixelaspectratio>
					<enabled>TRUE</enabled>
					<anamorphic>FALSE</anamorphic>
					<alphatype>none</alphatype>
					<masterclipid>00791001.MOV1</masterclipid>
					<logginginfo>
						<scene/>
						<shottake/>
						<lognote/>
						<good>FALSE</good>
					</logginginfo>
					<labels>
						<label2/>
					</labels>
					<comments>
						<mastercomment1/>
						<mastercomment2/>
						<mastercomment3/>
						<mastercomment4/>
					</comments>
					<file id="00791001 ">
						<name>00791001.MOV</name>
						<pathurl>file://localhost/Volumes/Askepott/Prosjekter/DNPR637010_Kra%CC%8Akeklubben_TEM_011212/Video/MELLOMSTIKK/S01E05%20Dyrebolig/DAG2/00791001.MOV</pathurl>
						<rate>
							<timebase>25</timebase>
						</rate>
						<duration>1224</duration>
						<timecode>
							<rate>
								<timebase>25</timebase>
							</rate>
							<string>18:10:41:03</string>
							<frame>1636028</frame>
							<displayformat>NDF</displayformat>
							<source>source</source>
							<reel>
								<name>Flash XDR</name>
							</reel>
						</timecode>
						<media>
							<video>
								<duration>1224</duration>
								<samplecharacteristics>
									<width>1920</width>
									<height>1080</height>
								</samplecharacteristics>
							</video>
							<audio>
								<samplecharacteristics>
									<samplerate>48000</samplerate>
									<depth>24</depth>
								</samplecharacteristics>
								<channelcount>1</channelcount>
							</audio>
							<audio>
								<samplecharacteristics>
									<samplerate>48000</samplerate>
									<depth>24</depth>
								</samplecharacteristics>
								<channelcount>1</channelcount>
							</audio>
						</media>
					</file>
					<sourcetrack>
						<mediatype>video</mediatype>
					</sourcetrack>
					<fielddominance>upper</fielddominance>
					<itemhistory>
						<uuid>3740C6DC-871F-4CCF-A2F7-F9582299CC45</uuid>
					</itemhistory>
				</clipitem>
				<clipitem id="00783001.MOV">
					<name>00783001.MOV</name>
					<duration>216</duration>
					<rate>
						<ntsc>FALSE</ntsc>
						<timebase>25</timebase>
					</rate>
					<in>85</in>
					<out>178</out>
					<start>22897</start>
					<end>22990</end>
					<pixelaspectratio>Square</pixelaspectratio>
					<enabled>TRUE</enabled>
					<anamorphic>FALSE</anamorphic>
					<alphatype>none</alphatype>
					<masterclipid>00783001.MOV1</masterclipid>
					<logginginfo>
						<scene/>
						<shottake/>
						<lognote/>
						<good>FALSE</good>
					</logginginfo>
					<labels>
						<label2/>
					</labels>
					<comments>
						<mastercomment1/>
						<mastercomment2/>
						<mastercomment3/>
						<mastercomment4/>
					</comments>
					<file id="00783001 ">
						<name>00783001.MOV</name>
						<pathurl>file://localhost/Volumes/Askepott/Prosjekter/DNPR637010_Kra%CC%8Akeklubben_TEM_011212/Video/MELLOMSTIKK/S01E05%20Dyrebolig/DAG2/00783001.MOV</pathurl>
						<rate>
							<timebase>25</timebase>
						</rate>
						<duration>216</duration>
						<timecode>
							<rate>
								<timebase>25</timebase>
							</rate>
							<string>18:04:32:01</string>
							<frame>1626801</frame>
							<displayformat>NDF</displayformat>
							<source>source</source>
							<reel>
								<name>Flash XDR</name>
							</reel>
						</timecode>
						<media>
							<video>
								<duration>216</duration>
								<samplecharacteristics>
									<width>1920</width>
									<height>1080</height>
								</samplecharacteristics>
							</video>
							<audio>
								<samplecharacteristics>
									<samplerate>48000</samplerate>
									<depth>24</depth>
								</samplecharacteristics>
								<channelcount>1</channelcount>
							</audio>
							<audio>
								<samplecharacteristics>
									<samplerate>48000</samplerate>
									<depth>24</depth>
								</samplecharacteristics>
								<channelcount>1</channelcount>
							</audio>
						</media>
					</file>
					<filter>
						<start>-1</start>
						<end>-1</end>
						<effect>
							<name>Flop</name>
							<effectid>Flop</effectid>
							<effectcategory>Perspective</effectcategory>
							<effecttype>filter</effecttype>
							<mediatype>video</mediatype>
							<parameter>
								<parameterid>flop</parameterid>
								<name>Flop</name>
								<valuemin>1</valuemin>
								<valuemax>3</valuemax>
								<valuelist>
									<valueentry>
										<name>Horizontal</name>
										<value>1</value>
									</valueentry>
									<valueentry>
										<name>Vertical</name>
										<value>2</value>
									</valueentry>
									<valueentry>
										<name>Both</name>
										<value>3</value>
									</valueentry>
								</valuelist>
								<value>1</value>
							</parameter>
						</effect>
					</filter>
					<filter>
						<start>-1</start>
						<end>-1</end>
						<effect>
							<name>G Simple Curves</name>
							<effectcategory>Nattress Big Box of Tricks - Levels and Curves</effectcategory>
							<effecttype>filter</effecttype>
							<mediatype>video</mediatype>
							<parameter>
								<parameterid>colourspace</parameterid>
								<name>Colour Space</name>
								<valuemin>1</valuemin>
								<valuemax>2</valuemax>
								<valuelist>
									<valueentry>
										<name>RGB</name>
										<value>1</value>
									</valueentry>
									<valueentry>
										<name>Y'CbCr</name>
										<value>2</value>
									</valueentry>
								</valuelist>
								<value>1</value>
							</parameter>
							<parameter>
								<parameterid>showcurves</parameterid>
								<name>Show Curves</name>
								<value>FALSE</value>
							</parameter>
							<parameter>
								<parameterid>lvar</parameterid>
								<name>Levels Controls</name>
								<value>string</value>
							</parameter>
							<parameter>
								<parameterid>inw</parameterid>
								<name>White Level</name>
								<valuemin>0</valuemin>
								<valuemax>255</valuemax>
								<value>255</value>
							</parameter>
							<parameter>
								<parameterid>inb</parameterid>
								<name>Black Level</name>
								<valuemin>0</valuemin>
								<valuemax>255</valuemax>
								<value>0</value>
							</parameter>
							<parameter>
								<parameterid>outw</parameterid>
								<name>White Output</name>
								<valuemin>0</valuemin>
								<valuemax>255</valuemax>
								<value>255</value>
							</parameter>
							<parameter>
								<parameterid>outb</parameterid>
								<name>Black Output</name>
								<valuemin>0</valuemin>
								<valuemax>255</valuemax>
								<value>0</value>
							</parameter>
							<parameter>
								<parameterid>cvar</parameterid>
								<name>Curves Controls</name>
								<value>string</value>
							</parameter>
							<parameter>
								<parameterid>curvew</parameterid>
								<name>White Curve</name>
								<valuemin>-100</valuemin>
								<valuemax>100</valuemax>
								<value>0</value>
							</parameter>
							<parameter>
								<parameterid>curveb</parameterid>
								<name>Black Curve</name>
								<valuemin>-100</valuemin>
								<valuemax>100</valuemax>
								<value>0</value>
							</parameter>
							<parameter>
								<parameterid>clipoutput</parameterid>
								<name>Clip Output Levels</name>
								<value>TRUE</value>
							</parameter>
							<parameter>
								<parameterid>copyright</parameterid>
								<name>© www.nattress.com</name>
								<value>string</value>
							</parameter>
						</effect>
					</filter>
					<sourcetrack>
						<mediatype>video</mediatype>
					</sourcetrack>
					<fielddominance>upper</fielddominance>
					<itemhistory>
						<uuid>D9E94B44-07D8-4C22-91B4-AD398FB22A65</uuid>
					</itemhistory>
				</clipitem>
				<transitionitem>
					<rate>
						<ntsc>FALSE</ntsc>
						<timebase>25</timebase>
					</rate>
					<start>23876</start>
					<end>23901</end>
					<alignment>center</alignment>
					<effect>
						<name>G Lens Flare Musikkvideo</name>
						<effectcategory>Nattress Big Box Of Tricks</effectcategory>
						<effecttype>transition</effecttype>
						<mediatype>video</mediatype>
						<startratio>0</startratio>
						<endratio>1</endratio>
						<reverse>FALSE</reverse>
						<parameter>
							<parameterid>dispvar1</parameterid>
							<name>Display Settings</name>
							<value>string</value>
						</parameter>
						<parameter>
							<parameterid>inputvar1</parameterid>
							<name>Flare Position</name>
							<value>string</value>
						</parameter>
						<parameter>
							<parameterid>theangle</parameterid>
							<name>Transition Direction</name>
							<valuemin>-360</valuemin>
							<valuemax>360</valuemax>
							<value>270</value>
						</parameter>
						<parameter>
							<parameterid>transitionblendduration</parameterid>
							<name>Blend Duration</name>
							<valuemin>0</valuemin>
							<valuemax>100</valuemax>
							<value>50</value>
						</parameter>
						<parameter>
							<parameterid>settingsvar1</parameterid>
							<name>Flare Settings</name>
							<value>string</value>
						</parameter>
						<parameter>
							<parameterid>presets</parameterid>
							<name>Preset Select</name>
							<valuemin>1</valuemin>
							<valuemax>4</valuemax>
							<valuelist>
								<valueentry>
									<name>Custom Controls</name>
									<value>1</value>
								</valueentry>
								<valueentry>
									<name>Other End of the Rainbow</name>
									<value>2</value>
								</valueentry>
								<valueentry>
									<name>Photon</name>
									<value>3</value>
								</valueentry>
								<valueentry>
									<name>Gaudy</name>
									<value>4</value>
								</valueentry>
							</valuelist>
							<value>2</value>
						</parameter>
						<parameter>
							<parameterid>randomevolution</parameterid>
							<name>Randomness Evolution</name>
							<valuemin>0</valuemin>
							<valuemax>1</valuemax>
							<value>0.05</value>
						</parameter>
						<parameter>
							<parameterid>flareaspect</parameterid>
							<name>Aspect</name>
							<valuemin>0.1</valuemin>
							<valuemax>10</valuemax>
							<value>1</value>
						</parameter>
						<parameter>
							<parameterid>flareintensity</parameterid>
							<name>Overall Intensity</name>
							<valuemin>0</valuemin>
							<valuemax>400</valuemax>
							<value>300</value>
						</parameter>
						<parameter>
							<parameterid>therandomseed</parameterid>
							<name>Random Seed</name>
							<valuemin>0</valuemin>
							<valuemax>100</valuemax>
							<value>100</value>
						</parameter>
						<parameter>
							<parameterid>settingsvar2</parameterid>
							<name>   Bloom</name>
							<value>string</value>
						</parameter>
						<parameter>
							<parameterid>bloomon</parameterid>
							<name>Bloom On?</name>
							<value>TRUE</value>
						</parameter>
						<parameter>
							<parameterid>bloomcolour</parameterid>
							<name>Bloom Colour</name>
							<value>
								<alpha>255</alpha>
								<red>218</red>
								<green>224</green>
								<blue>254</blue>
							</value>
						</parameter>
						<parameter>
							<parameterid>bloomcolourfromimage</parameterid>
							<name>Use Image for Bloom Colour?</name>
							<value>FALSE</value>
						</parameter>
						<parameter>
							<parameterid>bloomintensity</parameterid>
							<name>Intensity</name>
							<valuemin>0</valuemin>
							<valuemax>100</valuemax>
							<value>90</value>
						</parameter>
						<parameter>
							<parameterid>bloomradius</parameterid>
							<name>Radius</name>
							<valuemin>0</valuemin>
							<valuemax>200</valuemax>
							<value>45</value>
						</parameter>
						<parameter>
							<parameterid>bloomfalloff</parameterid>
							<name>Fall Off</name>
							<valuemin>0</valuemin>
							<valuemax>100</valuemax>
							<value>75</value>
						</parameter>
						<parameter>
							<parameterid>bloomstarry</parameterid>
							<name>Starry</name>
							<valuemin>0</valuemin>
							<valuemax>100</valuemax>
							<value>10</value>
						</parameter>
						<parameter>
							<parameterid>bloomstarpoints</parameterid>
							<name>Star Points</name>
							<valuemin>0</valuemin>
							<valuemax>100</valuemax>
							<value>7</value>
						</parameter>
						<parameter>
							<parameterid>settingsvar3</parameterid>
							<name>   StarBurst</name>
							<value>string</value>
						</parameter>
						<parameter>
							<parameterid>starburston</parameterid>
							<name>StarBurst On?</name>
							<value>TRUE</value>
						</parameter>
						<parameter>
							<parameterid>starburstcolour</parameterid>
							<name>StarBurst Colour</name>
							<value>
								<alpha>255</alpha>
								<red>254</red>
								<green>224</green>
								<blue>218</blue>
							</value>
						</parameter>
						<parameter>
							<parameterid>starburstintensity</parameterid>
							<name>Intensity</name>
							<valuemin>0</valuemin>
							<valuemax>100</valuemax>
							<value>75</value>
						</parameter>
						<parameter>
							<parameterid>starburstradius</parameterid>
							<name>Radius</name>
							<valuemin>0</valuemin>
							<valuemax>150</valuemax>
							<value>75</value>
						</parameter>
						<parameter>
							<parameterid>starburststarpoints</parameterid>
							<name>Star Points</name>
							<valuemin>0</valuemin>
							<valuemax>200</valuemax>
							<value>90</value>
						</parameter>
						<parameter>
							<parameterid>starcentre</parameterid>
							<name>Centre Size</name>
							<valuemin>0</valuemin>
							<valuemax>100</valuemax>
							<value>75</value>
						</parameter>
						<parameter>
							<parameterid>starfalloff</parameterid>
							<name>Fall Off</name>
							<valuemin>0</valuemin>
							<valuemax>100</valuemax>
							<value>75</value>
						</parameter>
						<parameter>
							<parameterid>starburstrandom</parameterid>
							<name>Randomness</name>
							<valuemin>0</valuemin>
							<valuemax>4</valuemax>
							<value>0.4</value>
						</parameter>
						<parameter>
							<parameterid>settingsvar4</parameterid>
							<name>   Rainbow</name>
							<value>string</value>
						</parameter>
						<parameter>
							<parameterid>rainbowon</parameterid>
							<name>Rainbow On?</name>
							<value>TRUE</value>
						</parameter>
						<parameter>
							<parameterid>rainbowcolors</parameterid>
							<name>Colour Type</name>
							<valuemin>1</valuemin>
							<valuemax>2</valuemax>
							<valuelist>
								<valueentry>
									<name>Rainbow</name>
									<value>1</value>
								</valueentry>
								<valueentry>
									<name>User Colour</name>
									<value>2</value>
								</valueentry>
							</valuelist>
							<value>1</value>
						</parameter>
						<parameter>
							<parameterid>rainbowusercolor</parameterid>
							<name>User Colour</name>
							<value>
								<alpha>255</alpha>
								<red>230</red>
								<green>110</green>
								<blue>22</blue>
							</value>
						</parameter>
						<parameter>
							<parameterid>rainbowposition</parameterid>
							<name>Position</name>
							<valuemin>-200</valuemin>
							<valuemax>200</valuemax>
							<value>100</value>
						</parameter>
						<parameter>
							<parameterid>rainbowintensity</parameterid>
							<name>Intensity</name>
							<valuemin>0</valuemin>
							<valuemax>100</valuemax>
							<value>20</value>
						</parameter>
						<parameter>
							<parameterid>rainbowradius</parameterid>
							<name>Radius</name>
							<valuemin>0</valuemin>
							<valuemax>200</valuemax>
							<value>50</value>
						</parameter>
						<parameter>
							<parameterid>rainbowthickness</parameterid>
							<name>Thickness</name>
							<valuemin>0</valuemin>
							<valuemax>1</valuemax>
							<value>0.15</value>
						</parameter>
						<parameter>
							<parameterid>rainbowsharpness</parameterid>
							<name>Sharpness</name>
							<valuemin>0</valuemin>
							<valuemax>1</valuemax>
							<value>0.65</value>
						</parameter>
						<parameter>
							<parameterid>settingsvar5</parameterid>
							<name>   Spots</name>
							<value>string</value>
						</parameter>
						<parameter>
							<parameterid>spotson</parameterid>
							<name>Spots On?</name>
							<value>TRUE</value>
						</parameter>
						<parameter>
							<parameterid>spotsnumber</parameterid>
							<name>Number</name>
							<valuemin>0</valuemin>
							<valuemax>100</valuemax>
							<value>12</value>
						</parameter>
						<parameter>
							<parameterid>spotsintensity</parameterid>
							<name>Intensity</name>
							<valuemin>0</valuemin>
							<valuemax>100</valuemax>
							<value>80</value>
						</parameter>
						<parameter>
							<parameterid>spotsradius</parameterid>
							<name>Radius</name>
							<valuemin>0</valuemin>
							<valuemax>150</valuemax>
							<value>30</value>
						</parameter>
						<parameter>
							<parameterid>spotsdisky</parameterid>
							<name>Disky</name>
							<valuemin>0</valuemin>
							<valuemax>100</valuemax>
							<value>75</value>
						</parameter>
						<parameter>
							<parameterid>spotsringy</parameterid>
							<name>Ringy</name>
							<valuemin>0</valuemin>
							<valuemax>100</valuemax>
							<value>75</value>
						</parameter>
						<parameter>
							<parameterid>spotsblotty</parameterid>
							<name>Blotty</name>
							<valuemin>0</valuemin>
							<valuemax>100</valuemax>
							<value>75</value>
						</parameter>
						<parameter>
							<parameterid>spotsbloony</parameterid>
							<name>Bloony</name>
							<valuemin>0</valuemin>
							<valuemax>100</valuemax>
							<value>75</value>
						</parameter>
						<parameter>
							<parameterid>spotsvarycolour</parameterid>
							<name>Vary Colour</name>
							<valuemin>0</valuemin>
							<valuemax>100</valuemax>
							<value>31</value>
						</parameter>
						<parameter>
							<parameterid>spotsbasehue</parameterid>
							<name>Base Hue</name>
							<valuemin>0</valuemin>
							<valuemax>100</valuemax>
							<value>72</value>
						</parameter>
						<parameter>
							<parameterid>spotssaturation</parameterid>
							<name>Saturation</name>
							<valuemin>0</valuemin>
							<valuemax>100</valuemax>
							<value>20</value>
						</parameter>
						<parameter>
							<parameterid>copyright</parameterid>
							<name>©www.nattress.com</name>
							<value>string</value>
						</parameter>
					</effect>
				</transitionitem>
				<clipitem id="Startbilde og nr to AFX v3 ">
					<name>Startbilde og nr to AFX v3</name>
					<duration>250</duration>
					<rate>
						<ntsc>FALSE</ntsc>
						<timebase>25</timebase>
					</rate>
					<in>0</in>
					<out>181</out>
					<start>-1</start>
					<end>24057</end>
					<pixelaspectratio>Square</pixelaspectratio>
					<enabled>TRUE</enabled>
					<anamorphic>FALSE</anamorphic>
					<alphatype>none</alphatype>
					<masterclipid>Startbilde og nr to AFX v3 1</masterclipid>
					<logginginfo>
						<scene/>
						<shottake/>
						<lognote/>
						<good>FALSE</good>
					</logginginfo>
					<labels>
						<label2/>
					</labels>
					<comments>
						<mastercomment1/>
						<mastercomment2/>
						<mastercomment3/>
						<mastercomment4/>
					</comments>
					<file id="Startbilde og nr to AFX v3 2">
						<name>Startbilde og nr to AFX v3.mov</name>
						<pathurl>file://localhost/Volumes/Askepott/Prosjekter/DNPR637010_Kra%CC%8Akeklubben_TEM_011212/Eksport/Tresangen/Startbilde%20og%20nr%20to%20AFX%20v3.mov</pathurl>
						<rate>
							<timebase>25</timebase>
						</rate>
						<duration>250</duration>
						<timecode>
							<rate>
								<timebase>25</timebase>
							</rate>
							<string>00:00:00:00</string>
							<frame>0</frame>
							<displayformat>NDF</displayformat>
							<source>source</source>
						</timecode>
						<media>
							<video>
								<duration>250</duration>
								<samplecharacteristics>
									<width>1920</width>
									<height>1080</height>
								</samplecharacteristics>
							</video>
						</media>
					</file>
					<filter>
						<enabled>TRUE</enabled>
						<start>-1</start>
						<end>-1</end>
						<effect>
							<name>G Simple Curves</name>
							<effectcategory>Nattress Big Box of Tricks - Levels and Curves</effectcategory>
							<effecttype>filter</effecttype>
							<mediatype>video</mediatype>
							<parameter>
								<parameterid>colourspace</parameterid>
								<name>Colour Space</name>
								<valuemin>1</valuemin>
								<valuemax>2</valuemax>
								<valuelist>
									<valueentry>
										<name>RGB</name>
										<value>1</value>
									</valueentry>
									<valueentry>
										<name>Y'CbCr</name>
										<value>2</value>
									</valueentry>
								</valuelist>
								<value>1</value>
							</parameter>
							<parameter>
								<parameterid>showcurves</parameterid>
								<name>Show Curves</name>
								<value>FALSE</value>
							</parameter>
							<parameter>
								<parameterid>lvar</parameterid>
								<name>Levels Controls</name>
								<value>string</value>
							</parameter>
							<parameter>
								<parameterid>inw</parameterid>
								<name>White Level</name>
								<valuemin>0</valuemin>
								<valuemax>255</valuemax>
								<value>255</value>
							</parameter>
							<parameter>
								<parameterid>inb</parameterid>
								<name>Black Level</name>
								<valuemin>0</valuemin>
								<valuemax>255</valuemax>
								<value>0</value>
							</parameter>
							<parameter>
								<parameterid>outw</parameterid>
								<name>White Output</name>
								<valuemin>0</valuemin>
								<valuemax>255</valuemax>
								<value>255</value>
							</parameter>
							<parameter>
								<parameterid>outb</parameterid>
								<name>Black Output</name>
								<valuemin>0</valuemin>
								<valuemax>255</valuemax>
								<value>0</value>
							</parameter>
							<parameter>
								<parameterid>cvar</parameterid>
								<name>Curves Controls</name>
								<value>string</value>
							</parameter>
							<parameter>
								<parameterid>curvew</parameterid>
								<name>White Curve</name>
								<valuemin>-100</valuemin>
								<valuemax>100</valuemax>
								<value>13</value>
							</parameter>
							<parameter>
								<parameterid>curveb</parameterid>
								<name>Black Curve</name>
								<valuemin>-100</valuemin>
								<valuemax>100</valuemax>
								<value>13</value>
							</parameter>
							<parameter>
								<parameterid>clipoutput</parameterid>
								<name>Clip Output Levels</name>
								<value>TRUE</value>
							</parameter>
							<parameter>
								<parameterid>copyright</parameterid>
								<name>© www.nattress.com</name>
								<value>string</value>
							</parameter>
						</effect>
					</filter>
					<filter>
						<effect>
							<name>Opacity</name>
							<effectid>opacity</effectid>
							<effectcategory>motion</effectcategory>
							<effecttype>motion</effecttype>
							<mediatype>video</mediatype>
							<parameter>
								<parameterid>opacity</parameterid>
								<name>opacity</name>
								<valuemin>0</valuemin>
								<valuemax>100</valuemax>
								<value>100</value>
							</parameter>
						</effect>
					</filter>
					<sourcetrack>
						<mediatype>video</mediatype>
					</sourcetrack>
					<fielddominance>upper</fielddominance>
					<itemhistory>
						<uuid>FE116136-F6CB-4DC8-AB1D-251668327A5A</uuid>
					</itemhistory>
				</clipitem>
				<clipitem id="Bilde to AFX">
					<name>Bilde to AFX</name>
					<duration>124</duration>
					<rate>
						<ntsc>FALSE</ntsc>
						<timebase>25</timebase>
					</rate>
					<in>0</in>
					<out>34</out>
					<start>24057</start>
					<end>24091</end>
					<pixelaspectratio>Square</pixelaspectratio>
					<enabled>TRUE</enabled>
					<anamorphic>FALSE</anamorphic>
					<alphatype>none</alphatype>
					<masterclipid>Bilde to AFX1</masterclipid>
					<logginginfo>
						<scene/>
						<shottake/>
						<lognote/>
						<good>FALSE</good>
					</logginginfo>
					<labels>
						<label2/>
					</labels>
					<comments>
						<mastercomment1/>
						<mastercomment2/>
						<mastercomment3/>
						<mastercomment4/>
					</comments>
					<file id="Bilde to AFX2">
						<name>Bilde to AFX.mov</name>
						<pathurl>file://localhost/Volumes/Askepott/Prosjekter/DNPR637010_Kra%CC%8Akeklubben_TEM_011212/Eksport/Tresangen/Bilde%20to%20AFX.mov</pathurl>
						<rate>
							<timebase>25</timebase>
						</rate>
						<duration>124</duration>
						<timecode>
							<rate>
								<timebase>25</timebase>
							</rate>
							<string>00:00:07:06</string>
							<frame>181</frame>
							<displayformat>NDF</displayformat>
							<source>source</source>
						</timecode>
						<media>
							<video>
								<duration>124</duration>
								<samplecharacteristics>
									<width>1920</width>
									<height>1080</height>
								</samplecharacteristics>
							</video>
						</media>
					</file>
					<filter>
						<start>-1</start>
						<end>-1</end>
						<effect>
							<name>G Simple Curves</name>
							<effectcategory>Nattress Big Box of Tricks - Levels and Curves</effectcategory>
							<effecttype>filter</effecttype>
							<mediatype>video</mediatype>
							<parameter>
								<parameterid>colourspace</parameterid>
								<name>Colour Space</name>
								<valuemin>1</valuemin>
								<valuemax>2</valuemax>
								<valuelist>
									<valueentry>
										<name>RGB</name>
										<value>1</value>
									</valueentry>
									<valueentry>
										<name>Y'CbCr</name>
										<value>2</value>
									</valueentry>
								</valuelist>
								<value>1</value>
							</parameter>
							<parameter>
								<parameterid>showcurves</parameterid>
								<name>Show Curves</name>
								<value>FALSE</value>
							</parameter>
							<parameter>
								<parameterid>lvar</parameterid>
								<name>Levels Controls</name>
								<value>string</value>
							</parameter>
							<parameter>
								<parameterid>inw</parameterid>
								<name>White Level</name>
								<valuemin>0</valuemin>
								<valuemax>255</valuemax>
								<value>255</value>
							</parameter>
							<parameter>
								<parameterid>inb</parameterid>
								<name>Black Level</name>
								<valuemin>0</valuemin>
								<valuemax>255</valuemax>
								<value>0</value>
							</parameter>
							<parameter>
								<parameterid>outw</parameterid>
								<name>White Output</name>
								<valuemin>0</valuemin>
								<valuemax>255</valuemax>
								<value>255</value>
							</parameter>
							<parameter>
								<parameterid>outb</parameterid>
								<name>Black Output</name>
								<valuemin>0</valuemin>
								<valuemax>255</valuemax>
								<value>0</value>
							</parameter>
							<parameter>
								<parameterid>cvar</parameterid>
								<name>Curves Controls</name>
								<value>string</value>
							</parameter>
							<parameter>
								<parameterid>curvew</parameterid>
								<name>White Curve</name>
								<valuemin>-100</valuemin>
								<valuemax>100</valuemax>
								<value>13</value>
							</parameter>
							<parameter>
								<parameterid>curveb</parameterid>
								<name>Black Curve</name>
								<valuemin>-100</valuemin>
								<valuemax>100</valuemax>
								<value>13</value>
							</parameter>
							<parameter>
								<parameterid>clipoutput</parameterid>
								<name>Clip Output Levels</name>
								<value>TRUE</value>
							</parameter>
							<parameter>
								<parameterid>copyright</parameterid>
								<name>© www.nattress.com</name>
								<value>string</value>
							</parameter>
						</effect>
					</filter>
					<sourcetrack>
						<mediatype>video</mediatype>
					</sourcetrack>
					<fielddominance>upper</fielddominance>
					<itemhistory>
						<uuid>6B60A9C3-E069-4C43-BFC7-4915DB1E20E3</uuid>
					</itemhistory>
				</clipitem>
				<clipitem id="Bilde to AFX3">
					<name>Bilde to AFX</name>
					<duration>62</duration>
					<rate>
						<ntsc>FALSE</ntsc>
						<timebase>25</timebase>
					</rate>
					<in>16</in>
					<out>61</out>
					<start>24091</start>
					<end>24136</end>
					<pixelaspectratio>Square</pixelaspectratio>
					<anamorphic>FALSE</anamorphic>
					<alphatype>none</alphatype>
					<masterclipid>Bilde to AFX1</masterclipid>
					<logginginfo>
						<scene/>
						<shottake/>
						<lognote/>
						<good>FALSE</good>
					</logginginfo>
					<labels>
						<label2/>
					</labels>
					<comments>
						<mastercomment1/>
						<mastercomment2/>
						<mastercomment3/>
						<mastercomment4/>
					</comments>
					<file id="Bilde to AFX2"/>
					<filter>
						<start>-1</start>
						<end>-1</end>
						<effect>
							<name>G Simple Curves</name>
							<effectcategory>Nattress Big Box of Tricks - Levels and Curves</effectcategory>
							<effecttype>filter</effecttype>
							<mediatype>video</mediatype>
							<parameter>
								<parameterid>colourspace</parameterid>
								<name>Colour Space</name>
								<valuemin>1</valuemin>
								<valuemax>2</valuemax>
								<valuelist>
									<valueentry>
										<name>RGB</name>
										<value>1</value>
									</valueentry>
									<valueentry>
										<name>Y'CbCr</name>
										<value>2</value>
									</valueentry>
								</valuelist>
								<value>1</value>
							</parameter>
							<parameter>
								<parameterid>showcurves</parameterid>
								<name>Show Curves</name>
								<value>FALSE</value>
							</parameter>
							<parameter>
								<parameterid>lvar</parameterid>
								<name>Levels Controls</name>
								<value>string</value>
							</parameter>
							<parameter>
								<parameterid>inw</parameterid>
								<name>White Level</name>
								<valuemin>0</valuemin>
								<valuemax>255</valuemax>
								<value>255</value>
							</parameter>
							<parameter>
								<parameterid>inb</parameterid>
								<name>Black Level</name>
								<valuemin>0</valuemin>
								<valuemax>255</valuemax>
								<value>0</value>
							</parameter>
							<parameter>
								<parameterid>outw</parameterid>
								<name>White Output</name>
								<valuemin>0</valuemin>
								<valuemax>255</valuemax>
								<value>255</value>
							</parameter>
							<parameter>
								<parameterid>outb</parameterid>
								<name>Black Output</name>
								<valuemin>0</valuemin>
								<valuemax>255</valuemax>
								<value>0</value>
							</parameter>
							<parameter>
								<parameterid>cvar</parameterid>
								<name>Curves Controls</name>
								<value>string</value>
							</parameter>
							<parameter>
								<parameterid>curvew</parameterid>
								<name>White Curve</name>
								<valuemin>-100</valuemin>
								<valuemax>100</valuemax>
								<value>13</value>
							</parameter>
							<parameter>
								<parameterid>curveb</parameterid>
								<name>Black Curve</name>
								<valuemin>-100</valuemin>
								<valuemax>100</valuemax>
								<value>13</value>
							</parameter>
							<parameter>
								<parameterid>clipoutput</parameterid>
								<name>Clip Output Levels</name>
								<value>TRUE</value>
							</parameter>
							<parameter>
								<parameterid>copyright</parameterid>
								<name>© www.nattress.com</name>
								<value>string</value>
							</parameter>
						</effect>
					</filter>
					<sourcetrack>
						<mediatype>video</mediatype>
					</sourcetrack>
					<fielddominance>upper</fielddominance>
					<itemhistory>
						<uuid>65C151BB-ADC6-4E7A-9661-FB79091F1EFF</uuid>
					</itemhistory>
					<filter>
						<effect>
							<name>Time Remap</name>
							<effectid>timeremap</effectid>
							<effectcategory>motion</effectcategory>
							<effecttype>motion</effecttype>
							<mediatype>video</mediatype>
							<parameter>
								<parameterid>variablespeed</parameterid>
								<name>variablespeed</name>
								<valuemin>0</valuemin>
								<valuemax>1</valuemax>
								<value>1</value>
							</parameter>
							<parameter>
								<parameterid>mappedduration</parameterid>
								<name>mappedduration</name>
								<value>
									<timecode>
										<rate>
											<timebase>0</timebase>
										</rate>
										<string>0</string>
										<frame>0</frame>
										<displayformat>NDF</displayformat>
									</timecode>
								</value>
							</parameter>
							<parameter>
								<parameterid>speed</parameterid>
								<name>speed</name>
								<valuemin>-10000</valuemin>
								<valuemax>10000</valuemax>
								<value>201</value>
							</parameter>
							<parameter>
								<parameterid>reverse</parameterid>
								<name>reverse</name>
								<value>FALSE</value>
							</parameter>
							<parameter>
								<parameterid>frameblending</parameterid>
								<name>frameblending</name>
								<value>TRUE</value>
							</parameter>
							<parameter>
								<parameterid>graphdict</parameterid>
								<name>graphdict</name>
								<valuemin>0</valuemin>
								<valuemax>123</valuemax>
								<keyframe>
									<when>0</when>
									<value>1.7377</value>
									<speedkfstart>TRUE</speedkfstart>
									<speedvirtualkf>TRUE</speedvirtualkf>
									<anchorOffset>1.7377</anchorOffset>
								</keyframe>
								<keyframe>
									<when>16</when>
									<value>34</value>
									<speedkfin>TRUE</speedkfin>
									<speedvirtualkf>TRUE</speedvirtualkf>
									<outbez>
										<horiz>11</horiz>
										<vert>0.785398</vert>
									</outbez>
								</keyframe>
								<keyframe>
									<when>61</when>
									<value>123</value>
									<speedkfout>TRUE</speedkfout>
								</keyframe>
								<keyframe>
									<when>62</when>
									<value>125.738</value>
									<speedkfend>TRUE</speedkfend>
									<speedvirtualkf>TRUE</speedvirtualkf>
								</keyframe>
								<interpolation>
									<name>FCPCurve</name>
								</interpolation>
								<value>34</value>
							</parameter>
						</effect>
					</filter>
				</clipitem>
				<clipitem id="Sluttbilde AFX">
					<name>Sluttbilde AFX</name>
					<duration>300</duration>
					<rate>
						<ntsc>FALSE</ntsc>
						<timebase>25</timebase>
					</rate>
					<in>0</in>
					<out>249</out>
					<start>27453</start>
					<end>27702</end>
					<pixelaspectratio>Square</pixelaspectratio>
					<enabled>TRUE</enabled>
					<anamorphic>FALSE</anamorphic>
					<alphatype>none</alphatype>
					<masterclipid>Sluttbilde AFX1</masterclipid>
					<logginginfo>
						<scene/>
						<shottake/>
						<lognote/>
						<good>FALSE</good>
					</logginginfo>
					<labels>
						<label2/>
					</labels>
					<comments>
						<mastercomment1/>
						<mastercomment2/>
						<mastercomment3/>
						<mastercomment4/>
					</comments>
					<file id="Sluttbilde AFX2">
						<name>Sluttbilde AFX.mov</name>
						<pathurl>file://localhost/Volumes/Askepott/Prosjekter/DNPR637010_Kra%CC%8Akeklubben_TEM_011212/Eksport/Tresangen/Sluttbilde%20AFX.mov</pathurl>
						<rate>
							<timebase>25</timebase>
						</rate>
						<duration>300</duration>
						<timecode>
							<rate>
								<timebase>25</timebase>
							</rate>
							<string>00:00:00:00</string>
							<frame>0</frame>
							<displayformat>NDF</displayformat>
							<source>source</source>
						</timecode>
						<media>
							<video>
								<duration>300</duration>
								<samplecharacteristics>
									<width>1920</width>
									<height>1080</height>
								</samplecharacteristics>
							</video>
						</media>
					</file>
					<sourcetrack>
						<mediatype>video</mediatype>
					</sourcetrack>
					<fielddominance>upper</fielddominance>
					<itemhistory>
						<uuid>3C770BC5-836D-4ED0-9EE0-CC587AEE615D</uuid>
					</itemhistory>
				</clipitem>
				<generatoritem id="Scrolling Text">
					<name>Scrolling Text</name>
					<duration>3000</duration>
					<rate>
						<ntsc>FALSE</ntsc>
						<timebase>25</timebase>
					</rate>
					<in>1375</in>
					<out>1887</out>
					<start>29985</start>
					<end>30497</end>
					<enabled>TRUE</enabled>
					<anamorphic>FALSE</anamorphic>
					<alphatype>black</alphatype>
					<logginginfo>
						<scene/>
						<shottake/>
						<lognote/>
						<good>FALSE</good>
					</logginginfo>
					<labels>
						<label2/>
					</labels>
					<comments>
						<mastercomment1/>
						<mastercomment2/>
						<mastercomment3/>
						<mastercomment4/>
					</comments>
					<effect>
						<name>Scrolling Text</name>
						<effectid>Scrolling Text</effectid>
						<effectcategory>Text</effectcategory>
						<effecttype>generator</effecttype>
						<mediatype>video</mediatype>
						<parameter>
							<parameterid>s</parameterid>
							<name>Text</name>
							<value>Programleder:&#13;Carina Olset&#13;&#13;Kråka:&#13;Mari Bjørnsdatter Knudsen&#13;&#13;Medvirkende:&#13;Emma&#13;Mille&#13;Tord&#13;&#13;Manus:&#13;Carina Olset&#13;Mari Bjørnsdatter Knudsen&#13;Ragnhild Giæver&#13;&#13;Vignettmusikk:&#13;Aggie E. Peterson&#13;&#13;&#13;Kor: &#13;Embla&#13;Irana&#13;Isak&#13;Kamilla&#13;&#13;Musikk:&#13;Aggie E. Peterson&#13;Sonoton Recorded Music Library&#13;&#13;Vignett:&#13;Leif Henning Broch Johnsen&#13;Christian Mona&#13;Kurt Jarnes&#13;&#13;Scenograf:&#13;Britt Halvorsen&#13;&#13;Rekvisitør:&#13;Lill Birgitte Larsen&#13;&#13;Kostymer:&#13;Christin Jakobsen&#13;&#13;Dukkemaker:&#13;Christina Espedal&#13;&#13;Animasjon "Kråka":&#13;Kåre Johannes Inderberg&#13;&#13;Foto:&#13;Tor Even Mathisen&#13;&#13;Redigering:&#13;Kåre Johannes Inderberg&#13;Tor Even Mathisen&#13;&#13;Arkivbilder:&#13;Albert W. Owesen&#13;Ulf Myrwold&#13;&#13;Lydmix:&#13;Nils Petter Christensen&#13;&#13;Produksjonsleder:&#13;Cecilie Arder Skildheim&#13;&#13;Regi:&#13;Ragnhild Giæver&#13;&#13;Prosjektleder:&#13;Mari Bjørnsdatter Knudsen&#13;&#13;&#13;Redaktør NRK Super:&#13;Nils Stokke&#13;&#13;&#13;Produsert av:&#13;NRK Troms og Finnmark</value>
						</parameter>
						<parameter>
							<parameterid>font</parameterid>
							<name>Font</name>
							<value>Neo Sans Pro</value>
						</parameter>
						<parameter>
							<parameterid>size</parameterid>
							<name>Size</name>
							<valuemin>4</valuemin>
							<valuemax>100</valuemax>
							<value>15</value>
						</parameter>
						<parameter>
							<parameterid>style</parameterid>
							<name>Style</name>
							<valuemin>1</valuemin>
							<valuemax>4</valuemax>
							<valuelist>
								<valueentry>
									<name>Plain</name>
									<value>1</value>
								</valueentry>
								<valueentry>
									<name>Bold</name>
									<value>2</value>
								</valueentry>
								<valueentry>
									<name>Italic</name>
									<value>3</value>
								</valueentry>
								<valueentry>
									<name>Bold/Italic</name>
									<value>4</value>
								</valueentry>
							</valuelist>
							<value>1</value>
						</parameter>
						<parameter>
							<parameterid>align</parameterid>
							<name>Alignment</name>
							<valuemin>1</valuemin>
							<valuemax>3</valuemax>
							<valuelist>
								<valueentry>
									<name>Left</name>
									<value>1</value>
								</valueentry>
								<valueentry>
									<name>Center</name>
									<value>2</value>
								</valueentry>
								<valueentry>
									<name>Right</name>
									<value>3</value>
								</valueentry>
							</valuelist>
							<value>3</value>
						</parameter>
						<parameter>
							<parameterid>col</parameterid>
							<name>Color</name>
							<value>
								<alpha>255</alpha>
								<red>255</red>
								<green>146</green>
								<blue>36</blue>
							</value>
						</parameter>
						<parameter>
							<parameterid>spacing</parameterid>
							<name>Spacing</name>
							<valuemin>-5</valuemin>
							<valuemax>10</valuemax>
							<value>1</value>
						</parameter>
						<parameter>
							<parameterid>leading</parameterid>
							<name>Leading</name>
							<valuemin>-100</valuemin>
							<valuemax>200</valuemax>
							<value>0</value>
						</parameter>
						<parameter>
							<parameterid>indent</parameterid>
							<name>Indent</name>
							<valuemin>0</valuemin>
							<valuemax>100</valuemax>
							<value>10</value>
						</parameter>
						<parameter>
							<parameterid>gap</parameterid>
							<name>Gap Width</name>
							<valuemin>0</valuemin>
							<valuemax>30</valuemax>
							<value>5</value>
						</parameter>
						<parameter>
							<parameterid>fadesize</parameterid>
							<name>Fade Size</name>
							<valuemin>0</valuemin>
							<valuemax>50</valuemax>
							<value>0</value>
						</parameter>
						<parameter>
							<parameterid>direction</parameterid>
							<name>Direction</name>
							<valuemin>1</valuemin>
							<valuemax>2</valuemax>
							<valuelist>
								<valueentry>
									<name>Up</name>
									<value>1</value>
								</valueentry>
								<valueentry>
									<name>Down</name>
									<value>2</value>
								</valueentry>
							</valuelist>
							<value>1</value>
						</parameter>
						<parameter>
							<parameterid>autokern</parameterid>
							<name>Auto Kerning</name>
							<value>TRUE</value>
						</parameter>
					</effect>
					<filter>
						<effect>
							<name>Basic Motion</name>
							<effectid>basic</effectid>
							<effectcategory>motion</effectcategory>
							<effecttype>motion</effecttype>
							<mediatype>video</mediatype>
							<parameter>
								<parameterid>scale</parameterid>
								<name>Scale</name>
								<valuemin>0</valuemin>
								<valuemax>1000</valuemax>
								<value>100</value>
							</parameter>
							<parameter>
								<parameterid>rotation</parameterid>
								<name>Rotation</name>
								<valuemin>-8640</valuemin>
								<valuemax>8640</valuemax>
								<value>0</value>
							</parameter>
							<parameter>
								<parameterid>center</parameterid>
								<name>Center</name>
								<value>
									<horiz>-0.00252844</horiz>
									<vert>0</vert>
								</value>
							</parameter>
							<parameter>
								<parameterid>centerOffset</parameterid>
								<name>Anchor Point</name>
								<value>
									<horiz>0</horiz>
									<vert>0</vert>
								</value>
							</parameter>
						</effect>
					</filter>
					<filter>
						<enabled>TRUE</enabled>
						<effect>
							<name>Drop Shadow</name>
							<effectid>dropshadow</effectid>
							<effectcategory>motion</effectcategory>
							<effecttype>motion</effecttype>
							<mediatype>video</mediatype>
							<parameter>
								<parameterid>offset</parameterid>
								<name>offset</name>
								<valuemin>-100</valuemin>
								<valuemax>100</valuemax>
								<value>0.8</value>
							</parameter>
							<parameter>
								<parameterid>angle</parameterid>
								<name>angle</name>
								<valuemin>-720</valuemin>
								<valuemax>720</valuemax>
								<value>135</value>
							</parameter>
							<parameter>
								<parameterid>color</parameterid>
								<name>color</name>
								<value>
									<alpha>0</alpha>
									<red>0</red>
									<green>0</green>
									<blue>0</blue>
								</value>
							</parameter>
							<parameter>
								<parameterid>softness</parameterid>
								<name>softness</name>
								<valuemin>0</valuemin>
								<valuemax>100</valuemax>
								<value>5</value>
							</parameter>
							<parameter>
								<parameterid>opacity</parameterid>
								<name>opacity</name>
								<valuemin>0</valuemin>
								<valuemax>100</valuemax>
								<value>75</value>
							</parameter>
						</effect>
					</filter>
					<filter>
						<enabled>FALSE</enabled>
						<effect>
							<name>Motion Blur</name>
							<effectid>motionblur</effectid>
							<effectcategory>motion</effectcategory>
							<effecttype>motion</effecttype>
							<mediatype>video</mediatype>
							<parameter>
								<parameterid>duration</parameterid>
								<name>% Blur</name>
								<valuemin>0</valuemin>
								<valuemax>1000</valuemax>
								<value>500</value>
							</parameter>
							<parameter>
								<parameterid>samples</parameterid>
								<name>Samples</name>
								<valuemin>1</valuemin>
								<valuemax>16</valuemax>
								<value>4</value>
							</parameter>
						</effect>
					</filter>
					<filter>
						<effect>
							<name>Crop</name>
							<effectid>crop</effectid>
							<effectcategory>motion</effectcategory>
							<effecttype>motion</effecttype>
							<mediatype>video</mediatype>
							<parameter>
								<parameterid>left</parameterid>
								<name>left</name>
								<valuemin>0</valuemin>
								<valuemax>100</valuemax>
								<value>0</value>
							</parameter>
							<parameter>
								<parameterid>right</parameterid>
								<name>right</name>
								<valuemin>0</valuemin>
								<valuemax>100</valuemax>
								<value>0</value>
							</parameter>
							<parameter>
								<parameterid>top</parameterid>
								<name>top</name>
								<valuemin>0</valuemin>
								<valuemax>100</valuemax>
								<value>0</value>
							</parameter>
							<parameter>
								<parameterid>bottom</parameterid>
								<name>bottom</name>
								<valuemin>0</valuemin>
								<valuemax>100</valuemax>
								<value>0</value>
							</parameter>
							<parameter>
								<parameterid>edgefeather</parameterid>
								<name>edgefeather</name>
								<valuemin>0</valuemin>
								<valuemax>100</valuemax>
								<value>0</value>
							</parameter>
						</effect>
					</filter>
					<filter>
						<effect>
							<name>Distort</name>
							<effectid>deformation</effectid>
							<effectcategory>motion</effectcategory>
							<effecttype>motion</effecttype>
							<mediatype>video</mediatype>
							<parameter>
								<parameterid>ulcorner</parameterid>
								<name>Upper Left</name>
								<value>
									<horiz>-0.5</horiz>
									<vert>-0.5</vert>
								</value>
							</parameter>
							<parameter>
								<parameterid>urcorner</parameterid>
								<name>Upper Right</name>
								<value>
									<horiz>0.5</horiz>
									<vert>-0.5</vert>
								</value>
							</parameter>
							<parameter>
								<parameterid>lrcorner</parameterid>
								<name>Lower Right</name>
								<value>
									<horiz>0.5</horiz>
									<vert>0.5</vert>
								</value>
							</parameter>
							<parameter>
								<parameterid>llcorner</parameterid>
								<name>Lower Left</name>
								<value>
									<horiz>-0.5</horiz>
									<vert>0.5</vert>
								</value>
							</parameter>
							<parameter>
								<parameterid>aspect</parameterid>
								<name>Aspect</name>
								<valuemin>-10000</valuemin>
								<valuemax>10000</valuemax>
								<value>0</value>
							</parameter>
						</effect>
					</filter>
					<filter>
						<effect>
							<name>Opacity</name>
							<effectid>opacity</effectid>
							<effectcategory>motion</effectcategory>
							<effecttype>motion</effecttype>
							<mediatype>video</mediatype>
							<parameter>
								<parameterid>opacity</parameterid>
								<name>opacity</name>
								<valuemin>0</valuemin>
								<valuemax>100</valuemax>
								<value>100</value>
							</parameter>
						</effect>
					</filter>
					<sourcetrack>
						<mediatype>video</mediatype>
					</sourcetrack>
					<itemhistory>
						<uuid>9BFE8A4E-C618-4042-822E-783792F0C809</uuid>
					</itemhistory>
				</generatoritem>
				<enabled>TRUE</enabled>
				<locked>FALSE</locked>
			</track>
			<track>
				<clipitem id="Wipe1_Kongler m Alpha3">
					<name>Wipe1_Kongler m Alpha</name>
					<duration>36</duration>
					<rate>
						<ntsc>FALSE</ntsc>
						<timebase>25</timebase>
					</rate>
					<in>0</in>
					<out>36</out>
					<start>830</start>
					<end>866</end>
					<pixelaspectratio>Square</pixelaspectratio>
					<anamorphic>FALSE</anamorphic>
					<alphatype>straight</alphatype>
					<masterclipid>Wipe1_Kongler m Alpha1</masterclipid>
					<logginginfo>
						<scene/>
						<shottake/>
						<lognote/>
						<good>FALSE</good>
					</logginginfo>
					<labels>
						<label2/>
					</labels>
					<comments>
						<mastercomment1/>
						<mastercomment2/>
						<mastercomment3/>
						<mastercomment4/>
					</comments>
					<file id="Wipe1_Kongler m Alpha2"/>
					<sourcetrack>
						<mediatype>video</mediatype>
					</sourcetrack>
					<fielddominance>upper</fielddominance>
					<itemhistory>
						<uuid>10668E58-20EF-40D3-90D1-0744EF59DA93</uuid>
					</itemhistory>
				</clipitem>
				<clipitem id="00767001.MOV8">
					<name>00767001.MOV</name>
					<duration>4836</duration>
					<rate>
						<ntsc>FALSE</ntsc>
						<timebase>25</timebase>
					</rate>
					<in>2981</in>
					<out>3021</out>
					<start>15795</start>
					<end>15835</end>
					<pixelaspectratio>Square</pixelaspectratio>
					<enabled>TRUE</enabled>
					<anamorphic>FALSE</anamorphic>
					<alphatype>none</alphatype>
					<masterclipid>00767001.MOV1</masterclipid>
					<logginginfo>
						<scene/>
						<shottake/>
						<lognote/>
						<good>FALSE</good>
					</logginginfo>
					<labels>
						<label2/>
					</labels>
					<comments>
						<mastercomment1/>
						<mastercomment2/>
						<mastercomment3/>
						<mastercomment4/>
					</comments>
					<file id="00767001 "/>
					<filter>
						<start>-1</start>
						<end>-1</end>
						<effect>
							<name>G Simple Curves</name>
							<effectcategory>Nattress Big Box of Tricks - Levels and Curves</effectcategory>
							<effecttype>filter</effecttype>
							<mediatype>video</mediatype>
							<parameter>
								<parameterid>colourspace</parameterid>
								<name>Colour Space</name>
								<valuemin>1</valuemin>
								<valuemax>2</valuemax>
								<valuelist>
									<valueentry>
										<name>RGB</name>
										<value>1</value>
									</valueentry>
									<valueentry>
										<name>Y'CbCr</name>
										<value>2</value>
									</valueentry>
								</valuelist>
								<value>1</value>
							</parameter>
							<parameter>
								<parameterid>showcurves</parameterid>
								<name>Show Curves</name>
								<value>FALSE</value>
							</parameter>
							<parameter>
								<parameterid>lvar</parameterid>
								<name>Levels Controls</name>
								<value>string</value>
							</parameter>
							<parameter>
								<parameterid>inw</parameterid>
								<name>White Level</name>
								<valuemin>0</valuemin>
								<valuemax>255</valuemax>
								<value>255</value>
							</parameter>
							<parameter>
								<parameterid>inb</parameterid>
								<name>Black Level</name>
								<valuemin>0</valuemin>
								<valuemax>255</valuemax>
								<value>0</value>
							</parameter>
							<parameter>
								<parameterid>outw</parameterid>
								<name>White Output</name>
								<valuemin>0</valuemin>
								<valuemax>255</valuemax>
								<value>255</value>
							</parameter>
							<parameter>
								<parameterid>outb</parameterid>
								<name>Black Output</name>
								<valuemin>0</valuemin>
								<valuemax>255</valuemax>
								<value>0</value>
							</parameter>
							<parameter>
								<parameterid>cvar</parameterid>
								<name>Curves Controls</name>
								<value>string</value>
							</parameter>
							<parameter>
								<parameterid>curvew</parameterid>
								<name>White Curve</name>
								<valuemin>-100</valuemin>
								<valuemax>100</valuemax>
								<value>0</value>
							</parameter>
							<parameter>
								<parameterid>curveb</parameterid>
								<name>Black Curve</name>
								<valuemin>-100</valuemin>
								<valuemax>100</valuemax>
								<value>0</value>
							</parameter>
							<parameter>
								<parameterid>clipoutput</parameterid>
								<name>Clip Output Levels</name>
								<value>TRUE</value>
							</parameter>
							<parameter>
								<parameterid>copyright</parameterid>
								<name>© www.nattress.com</name>
								<value>string</value>
							</parameter>
						</effect>
					</filter>
					<filter>
						<effect>
							<name>Basic Motion</name>
							<effectid>basic</effectid>
							<effectcategory>motion</effectcategory>
							<effecttype>motion</effecttype>
							<mediatype>video</mediatype>
							<parameter>
								<parameterid>scale</parameterid>
								<name>Scale</name>
								<valuemin>0</valuemin>
								<valuemax>1000</valuemax>
								<value>100</value>
							</parameter>
							<parameter>
								<parameterid>rotation</parameterid>
								<name>Rotation</name>
								<valuemin>-8640</valuemin>
								<valuemax>8640</valuemax>
								<value>0</value>
							</parameter>
							<parameter>
								<parameterid>center</parameterid>
								<name>Center</name>
								<value>
									<horiz>0</horiz>
									<vert>0</vert>
								</value>
							</parameter>
							<parameter>
								<parameterid>centerOffset</parameterid>
								<name>Anchor Point</name>
								<value>
									<horiz>0</horiz>
									<vert>0</vert>
								</value>
							</parameter>
						</effect>
					</filter>
					<filter>
						<enabled>FALSE</enabled>
						<effect>
							<name>Drop Shadow</name>
							<effectid>dropshadow</effectid>
							<effectcategory>motion</effectcategory>
							<effecttype>motion</effecttype>
							<mediatype>video</mediatype>
							<parameter>
								<parameterid>offset</parameterid>
								<name>offset</name>
								<valuemin>-100</valuemin>
								<valuemax>100</valuemax>
								<value>2</value>
							</parameter>
							<parameter>
								<parameterid>angle</parameterid>
								<name>angle</name>
								<valuemin>-720</valuemin>
								<valuemax>720</valuemax>
								<value>135</value>
							</parameter>
							<parameter>
								<parameterid>color</parameterid>
								<name>color</name>
								<value>
									<alpha>0</alpha>
									<red>0</red>
									<green>0</green>
									<blue>0</blue>
								</value>
							</parameter>
							<parameter>
								<parameterid>softness</parameterid>
								<name>softness</name>
								<valuemin>0</valuemin>
								<valuemax>100</valuemax>
								<value>10</value>
							</parameter>
							<parameter>
								<parameterid>opacity</parameterid>
								<name>opacity</name>
								<valuemin>0</valuemin>
								<valuemax>100</valuemax>
								<value>50</value>
							</parameter>
						</effect>
					</filter>
					<filter>
						<enabled>FALSE</enabled>
						<effect>
							<name>Motion Blur</name>
							<effectid>motionblur</effectid>
							<effectcategory>motion</effectcategory>
							<effecttype>motion</effecttype>
							<mediatype>video</mediatype>
							<parameter>
								<parameterid>duration</parameterid>
								<name>% Blur</name>
								<valuemin>0</valuemin>
								<valuemax>1000</valuemax>
								<value>500</value>
							</parameter>
							<parameter>
								<parameterid>samples</parameterid>
								<name>Samples</name>
								<valuemin>1</valuemin>
								<valuemax>16</valuemax>
								<value>4</value>
							</parameter>
						</effect>
					</filter>
					<filter>
						<effect>
							<name>Crop</name>
							<effectid>crop</effectid>
							<effectcategory>motion</effectcategory>
							<effecttype>motion</effecttype>
							<mediatype>video</mediatype>
							<parameter>
								<parameterid>left</parameterid>
								<name>left</name>
								<valuemin>0</valuemin>
								<valuemax>100</valuemax>
								<value>0</value>
							</parameter>
							<parameter>
								<parameterid>right</parameterid>
								<name>right</name>
								<valuemin>0</valuemin>
								<valuemax>100</valuemax>
								<value>0</value>
							</parameter>
							<parameter>
								<parameterid>top</parameterid>
								<name>top</name>
								<valuemin>0</valuemin>
								<valuemax>100</valuemax>
								<value>0</value>
							</parameter>
							<parameter>
								<parameterid>bottom</parameterid>
								<name>bottom</name>
								<valuemin>0</valuemin>
								<valuemax>100</valuemax>
								<value>0</value>
							</parameter>
							<parameter>
								<parameterid>edgefeather</parameterid>
								<name>edgefeather</name>
								<valuemin>0</valuemin>
								<valuemax>100</valuemax>
								<value>0</value>
							</parameter>
						</effect>
					</filter>
					<filter>
						<effect>
							<name>Distort</name>
							<effectid>deformation</effectid>
							<effectcategory>motion</effectcategory>
							<effecttype>motion</effecttype>
							<mediatype>video</mediatype>
							<parameter>
								<parameterid>ulcorner</parameterid>
								<name>Upper Left</name>
								<value>
									<horiz>-0.5</horiz>
									<vert>-0.5</vert>
								</value>
							</parameter>
							<parameter>
								<parameterid>urcorner</parameterid>
								<name>Upper Right</name>
								<value>
									<horiz>0.5</horiz>
									<vert>-0.5</vert>
								</value>
							</parameter>
							<parameter>
								<parameterid>lrcorner</parameterid>
								<name>Lower Right</name>
								<value>
									<horiz>0.5</horiz>
									<vert>0.5</vert>
								</value>
							</parameter>
							<parameter>
								<parameterid>llcorner</parameterid>
								<name>Lower Left</name>
								<value>
									<horiz>-0.5</horiz>
									<vert>0.5</vert>
								</value>
							</parameter>
							<parameter>
								<parameterid>aspect</parameterid>
								<name>Aspect</name>
								<valuemin>-10000</valuemin>
								<valuemax>10000</valuemax>
								<value>0</value>
							</parameter>
						</effect>
					</filter>
					<filter>
						<effect>
							<name>Opacity</name>
							<effectid>opacity</effectid>
							<effectcategory>motion</effectcategory>
							<effecttype>motion</effecttype>
							<mediatype>video</mediatype>
							<parameter>
								<parameterid>opacity</parameterid>
								<name>opacity</name>
								<valuemin>0</valuemin>
								<valuemax>100</valuemax>
								<value>100</value>
							</parameter>
						</effect>
					</filter>
					<sourcetrack>
						<mediatype>video</mediatype>
					</sourcetrack>
					<fielddominance>upper</fielddominance>
					<itemhistory>
						<uuid>26B55189-ADA4-46F0-86F9-D26B1802DEC9</uuid>
					</itemhistory>
				</clipitem>
				<enabled>TRUE</enabled>
				<locked>FALSE</locked>
			</track>
		</video>
		<audio>
			<format>
				<samplecharacteristics>
					<depth>24</depth>
					<samplerate>48000</samplerate>
				</samplecharacteristics>
			</format>
			<outputs>
				<group>
					<index>1</index>
					<numchannels>2</numchannels>
					<downmix>0</downmix>
					<channel>
						<index>1</index>
					</channel>
					<channel>
						<index>2</index>
					</channel>
				</group>
			</outputs>
			<in>-1</in>
			<out>30904</out>
			<track>
				<clipitem id="DYR18091_01 plukke mose2">
					<name>DYR18091_01 plukke mose</name>
					<duration>935</duration>
					<rate>
						<ntsc>FALSE</ntsc>
						<timebase>25</timebase>
					</rate>
					<in>258</in>
					<out>368</out>
					<start>416</start>
					<end>526</end>
					<subframeoffset>0</subframeoffset>
					<enabled>TRUE</enabled>
					<masterclipid>DYR18091_01 plukke mose1</masterclipid>
					<logginginfo>
						<scene/>
						<shottake/>
						<lognote/>
						<good>FALSE</good>
					</logginginfo>
					<labels>
						<label2/>
					</labels>
					<comments>
						<mastercomment1/>
						<mastercomment2/>
						<mastercomment3/>
						<mastercomment4/>
					</comments>
					<file id="DYR18091_01 "/>
					<filter>
						<effect>
							<name>Audio Levels</name>
							<effectid>audiolevels</effectid>
							<effectcategory>audiolevels</effectcategory>
							<effecttype>audiolevels</effecttype>
							<mediatype>audio</mediatype>
							<parameter>
								<name>Level</name>
								<parameterid>level</parameterid>
								<valuemin>0</valuemin>
								<valuemax>3.98109</valuemax>
								<value>1</value>
							</parameter>
						</effect>
					</filter>
					<filter>
						<effect>
							<name>Audio Pan</name>
							<effectid>audiopan</effectid>
							<effectcategory>audiopan</effectcategory>
							<effecttype>audiopan</effecttype>
							<mediatype>audio</mediatype>
							<parameter>
								<name>Pan</name>
								<parameterid>pan</parameterid>
								<valuemin>-1</valuemin>
								<valuemax>1</valuemax>
								<value>0</value>
							</parameter>
						</effect>
					</filter>
					<sourcetrack>
						<mediatype>audio</mediatype>
						<trackindex>1</trackindex>
					</sourcetrack>
					<link>
						<linkclipref>DYR18091_01 plukke mose</linkclipref>
						<mediatype>video</mediatype>
						<trackindex>1</trackindex>
						<clipindex>1</clipindex>
					</link>
					<link>
						<linkclipref>DYR18091_01 plukke mose2</linkclipref>
						<mediatype>audio</mediatype>
						<trackindex>1</trackindex>
						<clipindex>1</clipindex>
					</link>
					<link>
						<linkclipref>DYR18091_01 plukke mose3</linkclipref>
						<mediatype>audio</mediatype>
						<trackindex>2</trackindex>
						<clipindex>1</clipindex>
					</link>
					<itemhistory>
						<uuid>1BCB5085-35EA-4C62-A4E8-990E46E77376</uuid>
						<uuid>110B6CCE-F75D-431E-8872-2D016174F68E</uuid>
					</itemhistory>
				</clipitem>
				<clipitem id="DYR18477_01 3">
					<name>DYR18477_01</name>
					<duration>418</duration>
					<rate>
						<ntsc>FALSE</ntsc>
						<timebase>25</timebase>
					</rate>
					<in>160</in>
					<out>271</out>
					<start>526</start>
					<end>637</end>
					<subframeoffset>0</subframeoffset>
					<masterclipid>DYR18477_01 1</masterclipid>
					<logginginfo>
						<scene/>
						<shottake/>
						<lognote/>
						<good>FALSE</good>
					</logginginfo>
					<labels>
						<label2/>
					</labels>
					<comments>
						<mastercomment1/>
						<mastercomment2/>
						<mastercomment3/>
						<mastercomment4/>
					</comments>
					<file id="DYR18477_01 2"/>
					<filter>
						<effect>
							<name>Audio Levels</name>
							<effectid>audiolevels</effectid>
							<effectcategory>audiolevels</effectcategory>
							<effecttype>audiolevels</effecttype>
							<mediatype>audio</mediatype>
							<parameter>
								<name>Level</name>
								<parameterid>level</parameterid>
								<valuemin>0</valuemin>
								<valuemax>3.98109</valuemax>
								<value>1</value>
							</parameter>
						</effect>
					</filter>
					<filter>
						<effect>
							<name>Audio Pan</name>
							<effectid>audiopan</effectid>
							<effectcategory>audiopan</effectcategory>
							<effecttype>audiopan</effecttype>
							<mediatype>audio</mediatype>
							<parameter>
								<name>Pan</name>
								<parameterid>pan</parameterid>
								<valuemin>-1</valuemin>
								<valuemax>1</valuemax>
								<value>0</value>
							</parameter>
						</effect>
					</filter>
					<sourcetrack>
						<mediatype>audio</mediatype>
						<trackindex>1</trackindex>
					</sourcetrack>
					<link>
						<linkclipref>DYR18477_01 </linkclipref>
						<mediatype>video</mediatype>
						<trackindex>1</trackindex>
						<clipindex>2</clipindex>
					</link>
					<link>
						<linkclipref>DYR18477_01 3</linkclipref>
						<mediatype>audio</mediatype>
						<trackindex>1</trackindex>
						<clipindex>2</clipindex>
					</link>
					<link>
						<linkclipref>DYR18477_01 4</linkclipref>
						<mediatype>audio</mediatype>
						<trackindex>2</trackindex>
						<clipindex>2</clipindex>
					</link>
					<itemhistory>
						<uuid>03B58356-B74C-47A3-9D56-76C9E58C6D33</uuid>
					</itemhistory>
				</clipitem>
				<clipitem id="00795001.MOV2">
					<name>00795001.MOV</name>
					<duration>648</duration>
					<rate>
						<ntsc>FALSE</ntsc>
						<timebase>25</timebase>
					</rate>
					<in>365</in>
					<out>531</out>
					<start>637</start>
					<end>803</end>
					<subframeoffset>0</subframeoffset>
					<enabled>TRUE</enabled>
					<masterclipid>00795001.MOV1</masterclipid>
					<logginginfo>
						<scene/>
						<shottake/>
						<lognote/>
						<good>FALSE</good>
					</logginginfo>
					<labels>
						<label2/>
					</labels>
					<comments>
						<mastercomment1/>
						<mastercomment2/>
						<mastercomment3/>
						<mastercomment4/>
					</comments>
					<file id="00795001 "/>
					<filter>
						<effect>
							<name>Audio Levels</name>
							<effectid>audiolevels</effectid>
							<effectcategory>audiolevels</effectcategory>
							<effecttype>audiolevels</effecttype>
							<mediatype>audio</mediatype>
							<parameter>
								<name>Level</name>
								<parameterid>level</parameterid>
								<valuemin>0</valuemin>
								<valuemax>3.98109</valuemax>
								<value>1</value>
							</parameter>
						</effect>
					</filter>
					<filter>
						<effect>
							<name>Audio Pan</name>
							<effectid>audiopan</effectid>
							<effectcategory>audiopan</effectcategory>
							<effecttype>audiopan</effecttype>
							<mediatype>audio</mediatype>
							<parameter>
								<name>Pan</name>
								<parameterid>pan</parameterid>
								<valuemin>-1</valuemin>
								<valuemax>1</valuemax>
								<value>0</value>
							</parameter>
						</effect>
					</filter>
					<sourcetrack>
						<mediatype>audio</mediatype>
						<trackindex>1</trackindex>
					</sourcetrack>
					<link>
						<linkclipref>00795001.MOV</linkclipref>
						<mediatype>video</mediatype>
						<trackindex>1</trackindex>
						<clipindex>3</clipindex>
					</link>
					<link>
						<linkclipref>00795001.MOV2</linkclipref>
						<mediatype>audio</mediatype>
						<trackindex>1</trackindex>
						<clipindex>3</clipindex>
					</link>
					<link>
						<linkclipref>00795001.MOV3</linkclipref>
						<mediatype>audio</mediatype>
						<trackindex>2</trackindex>
						<clipindex>3</clipindex>
					</link>
					<itemhistory>
						<uuid>1C823E8F-63BA-44CA-B235-C2331FC8A123</uuid>
					</itemhistory>
				</clipitem>
				<clipitem id="00693001.MOV5">
					<name>00693001.MOV</name>
					<duration>936</duration>
					<rate>
						<ntsc>FALSE</ntsc>
						<timebase>25</timebase>
					</rate>
					<in>125</in>
					<out>380</out>
					<start>846</start>
					<end>1101</end>
					<subframeoffset>0</subframeoffset>
					<masterclipid>00693001.MOV1</masterclipid>
					<logginginfo>
						<scene/>
						<shottake/>
						<lognote/>
						<good>FALSE</good>
					</logginginfo>
					<labels>
						<label2/>
					</labels>
					<comments>
						<mastercomment1/>
						<mastercomment2/>
						<mastercomment3/>
						<mastercomment4/>
					</comments>
					<file id="00693001 "/>
					<filter>
						<effect>
							<name>Audio Levels</name>
							<effectid>audiolevels</effectid>
							<effectcategory>audiolevels</effectcategory>
							<effecttype>audiolevels</effecttype>
							<mediatype>audio</mediatype>
							<parameter>
								<name>Level</name>
								<parameterid>level</parameterid>
								<valuemin>0</valuemin>
								<valuemax>3.98109</valuemax>
								<value>1.77828</value>
							</parameter>
						</effect>
					</filter>
					<filter>
						<effect>
							<name>Audio Pan</name>
							<effectid>audiopan</effectid>
							<effectcategory>audiopan</effectcategory>
							<effecttype>audiopan</effecttype>
							<mediatype>audio</mediatype>
							<parameter>
								<name>Pan</name>
								<parameterid>pan</parameterid>
								<valuemin>-1</valuemin>
								<valuemax>1</valuemax>
								<value>0</value>
							</parameter>
						</effect>
					</filter>
					<sourcetrack>
						<mediatype>audio</mediatype>
						<trackindex>1</trackindex>
					</sourcetrack>
					<link>
						<linkclipref>00693001.MOV4</linkclipref>
						<mediatype>video</mediatype>
						<trackindex>2</trackindex>
						<clipindex>1</clipindex>
					</link>
					<link>
						<linkclipref>00693001.MOV5</linkclipref>
						<mediatype>audio</mediatype>
						<trackindex>1</trackindex>
						<clipindex>4</clipindex>
					</link>
					<link>
						<linkclipref>00693001.MOV6</linkclipref>
						<mediatype>audio</mediatype>
						<trackindex>2</trackindex>
						<clipindex>4</clipindex>
					</link>
					<itemhistory>
						<uuid>146B0F86-B3E9-4A56-ABDE-186F4571D9EE</uuid>
					</itemhistory>
				</clipitem>
				<clipitem id="00698001.MOV2">
					<name>00698001.MOV</name>
					<duration>780</duration>
					<rate>
						<ntsc>FALSE</ntsc>
						<timebase>25</timebase>
					</rate>
					<in>231</in>
					<out>315</out>
					<start>1101</start>
					<end>1185</end>
					<subframeoffset>0</subframeoffset>
					<enabled>TRUE</enabled>
					<masterclipid>00698001.MOV1</masterclipid>
					<logginginfo>
						<scene/>
						<shottake/>
						<lognote/>
						<good>FALSE</good>
					</logginginfo>
					<labels>
						<label2/>
					</labels>
					<comments>
						<mastercomment1/>
						<mastercomment2/>
						<mastercomment3/>
						<mastercomment4/>
					</comments>
					<file id="00698001 "/>
					<filter>
						<effect>
							<name>Audio Levels</name>
							<effectid>audiolevels</effectid>
							<effectcategory>audiolevels</effectcategory>
							<effecttype>audiolevels</effecttype>
							<mediatype>audio</mediatype>
							<parameter>
								<name>Level</name>
								<parameterid>level</parameterid>
								<valuemin>0</valuemin>
								<valuemax>3.98109</valuemax>
								<value>1.77828</value>
							</parameter>
						</effect>
					</filter>
					<filter>
						<effect>
							<name>Audio Pan</name>
							<effectid>audiopan</effectid>
							<effectcategory>audiopan</effectcategory>
							<effecttype>audiopan</effecttype>
							<mediatype>audio</mediatype>
							<parameter>
								<name>Pan</name>
								<parameterid>pan</parameterid>
								<valuemin>-1</valuemin>
								<valuemax>1</valuemax>
								<value>0</value>
							</parameter>
						</effect>
					</filter>
					<sourcetrack>
						<mediatype>audio</mediatype>
						<trackindex>1</trackindex>
					</sourcetrack>
					<link>
						<linkclipref>00698001.MOV</linkclipref>
						<mediatype>video</mediatype>
						<trackindex>1</trackindex>
						<clipindex>4</clipindex>
					</link>
					<link>
						<linkclipref>00698001.MOV2</linkclipref>
						<mediatype>audio</mediatype>
						<trackindex>1</trackindex>
						<clipindex>5</clipindex>
					</link>
					<link>
						<linkclipref>00698001.MOV3</linkclipref>
						<mediatype>audio</mediatype>
						<trackindex>2</trackindex>
						<clipindex>5</clipindex>
					</link>
					<itemhistory>
						<uuid>19F19E59-5266-4088-8CF8-7B04D816E65A</uuid>
					</itemhistory>
				</clipitem>
				<clipitem id="00693001.MOV2">
					<name>00693001.MOV</name>
					<duration>936</duration>
					<rate>
						<ntsc>FALSE</ntsc>
						<timebase>25</timebase>
					</rate>
					<in>504</in>
					<out>828</out>
					<start>1185</start>
					<end>1509</end>
					<subframeoffset>0</subframeoffset>
					<masterclipid>00693001.MOV1</masterclipid>
					<logginginfo>
						<scene/>
						<shottake/>
						<lognote/>
						<good>FALSE</good>
					</logginginfo>
					<labels>
						<label2/>
					</labels>
					<comments>
						<mastercomment1/>
						<mastercomment2/>
						<mastercomment3/>
						<mastercomment4/>
					</comments>
					<file id="00693001 "/>
					<filter>
						<effect>
							<name>Audio Levels</name>
							<effectid>audiolevels</effectid>
							<effectcategory>audiolevels</effectcategory>
							<effecttype>audiolevels</effecttype>
							<mediatype>audio</mediatype>
							<parameter>
								<name>Level</name>
								<parameterid>level</parameterid>
								<valuemin>0</valuemin>
								<valuemax>3.98109</valuemax>
								<value>1.77828</value>
							</parameter>
						</effect>
					</filter>
					<filter>
						<effect>
							<name>Audio Pan</name>
							<effectid>audiopan</effectid>
							<effectcategory>audiopan</effectcategory>
							<effecttype>audiopan</effecttype>
							<mediatype>audio</mediatype>
							<parameter>
								<name>Pan</name>
								<parameterid>pan</parameterid>
								<valuemin>-1</valuemin>
								<valuemax>1</valuemax>
								<value>0</value>
							</parameter>
						</effect>
					</filter>
					<sourcetrack>
						<mediatype>audio</mediatype>
						<trackindex>1</trackindex>
					</sourcetrack>
					<link>
						<linkclipref>00693001.MOV</linkclipref>
						<mediatype>video</mediatype>
						<trackindex>1</trackindex>
						<clipindex>5</clipindex>
					</link>
					<link>
						<linkclipref>00693001.MOV2</linkclipref>
						<mediatype>audio</mediatype>
						<trackindex>1</trackindex>
						<clipindex>6</clipindex>
					</link>
					<link>
						<linkclipref>00693001.MOV3</linkclipref>
						<mediatype>audio</mediatype>
						<trackindex>2</trackindex>
						<clipindex>6</clipindex>
					</link>
					<itemhistory>
						<uuid>F6382ADE-756B-492B-871B-A4611F7A6D08</uuid>
					</itemhistory>
				</clipitem>
				<clipitem id="00696001.MOV2">
					<name>00696001.MOV</name>
					<duration>1728</duration>
					<rate>
						<ntsc>FALSE</ntsc>
						<timebase>25</timebase>
					</rate>
					<in>294</in>
					<out>397</out>
					<start>1584</start>
					<end>1687</end>
					<subframeoffset>0</subframeoffset>
					<enabled>TRUE</enabled>
					<masterclipid>00696001.MOV1</masterclipid>
					<logginginfo>
						<scene/>
						<shottake/>
						<lognote/>
						<good>FALSE</good>
					</logginginfo>
					<labels>
						<label2/>
					</labels>
					<comments>
						<mastercomment1/>
						<mastercomment2/>
						<mastercomment3/>
						<mastercomment4/>
					</comments>
					<file id="00696001 "/>
					<filter>
						<effect>
							<name>Audio Levels</name>
							<effectid>audiolevels</effectid>
							<effectcategory>audiolevels</effectcategory>
							<effecttype>audiolevels</effecttype>
							<mediatype>audio</mediatype>
							<parameter>
								<name>Level</name>
								<parameterid>level</parameterid>
								<valuemin>0</valuemin>
								<valuemax>3.98109</valuemax>
								<value>1.77828</value>
							</parameter>
						</effect>
					</filter>
					<filter>
						<effect>
							<name>Audio Pan</name>
							<effectid>audiopan</effectid>
							<effectcategory>audiopan</effectcategory>
							<effecttype>audiopan</effecttype>
							<mediatype>audio</mediatype>
							<parameter>
								<name>Pan</name>
								<parameterid>pan</parameterid>
								<valuemin>-1</valuemin>
								<valuemax>1</valuemax>
								<value>0</value>
							</parameter>
						</effect>
					</filter>
					<sourcetrack>
						<mediatype>audio</mediatype>
						<trackindex>1</trackindex>
					</sourcetrack>
					<link>
						<linkclipref>00696001.MOV</linkclipref>
						<mediatype>video</mediatype>
						<trackindex>1</trackindex>
						<clipindex>14</clipindex>
					</link>
					<link>
						<linkclipref>00696001.MOV2</linkclipref>
						<mediatype>audio</mediatype>
						<trackindex>1</trackindex>
						<clipindex>7</clipindex>
					</link>
					<link>
						<linkclipref>00696001.MOV3</linkclipref>
						<mediatype>audio</mediatype>
						<trackindex>2</trackindex>
						<clipindex>7</clipindex>
					</link>
					<itemhistory>
						<uuid>65D29BC5-9F48-4BDF-BA84-59AE45CEFEB0</uuid>
					</itemhistory>
				</clipitem>
				<clipitem id="00700001.MOV2">
					<name>00700001.MOV</name>
					<duration>1404</duration>
					<rate>
						<ntsc>FALSE</ntsc>
						<timebase>25</timebase>
					</rate>
					<in>122</in>
					<out>257</out>
					<start>1687</start>
					<end>-1</end>
					<subframeoffset>0</subframeoffset>
					<enabled>TRUE</enabled>
					<masterclipid>00700001.MOV1</masterclipid>
					<logginginfo>
						<scene/>
						<shottake/>
						<lognote/>
						<good>FALSE</good>
					</logginginfo>
					<labels>
						<label2/>
					</labels>
					<comments>
						<mastercomment1/>
						<mastercomment2/>
						<mastercomment3/>
						<mastercomment4/>
					</comments>
					<file id="00700001 "/>
					<filter>
						<effect>
							<name>Audio Levels</name>
							<effectid>audiolevels</effectid>
							<effectcategory>audiolevels</effectcategory>
							<effecttype>audiolevels</effecttype>
							<mediatype>audio</mediatype>
							<parameter>
								<name>Level</name>
								<parameterid>level</parameterid>
								<valuemin>0</valuemin>
								<valuemax>3.98109</valuemax>
								<value>1.77828</value>
							</parameter>
						</effect>
					</filter>
					<filter>
						<effect>
							<name>Audio Pan</name>
							<effectid>audiopan</effectid>
							<effectcategory>audiopan</effectcategory>
							<effecttype>audiopan</effecttype>
							<mediatype>audio</mediatype>
							<parameter>
								<name>Pan</name>
								<parameterid>pan</parameterid>
								<valuemin>-1</valuemin>
								<valuemax>1</valuemax>
								<value>0</value>
							</parameter>
						</effect>
					</filter>
					<sourcetrack>
						<mediatype>audio</mediatype>
						<trackindex>1</trackindex>
					</sourcetrack>
					<link>
						<linkclipref>00700001.MOV</linkclipref>
						<mediatype>video</mediatype>
						<trackindex>1</trackindex>
						<clipindex>16</clipindex>
					</link>
					<link>
						<linkclipref>00700001.MOV2</linkclipref>
						<mediatype>audio</mediatype>
						<trackindex>1</trackindex>
						<clipindex>8</clipindex>
					</link>
					<link>
						<linkclipref>00700001.MOV3</linkclipref>
						<mediatype>audio</mediatype>
						<trackindex>2</trackindex>
						<clipindex>8</clipindex>
					</link>
					<itemhistory>
						<uuid>409DC77C-3938-41D2-BEDB-C935AA44E915</uuid>
					</itemhistory>
				</clipitem>
				<transitionitem>
					<rate>
						<ntsc>FALSE</ntsc>
						<timebase>25</timebase>
					</rate>
					<start>1820</start>
					<end>1822</end>
					<alignment>center</alignment>
					<effect>
						<name>Cross Fade (+3dB)</name>
						<effectid>KGAudioTransCrossFade3dB</effectid>
						<effecttype>transition</effecttype>
						<mediatype>audio</mediatype>
					</effect>
				</transitionitem>
				<clipitem id="00705001.MOV3">
					<name>00705001.MOV</name>
					<duration>1632</duration>
					<rate>
						<ntsc>FALSE</ntsc>
						<timebase>25</timebase>
					</rate>
					<in>359</in>
					<out>457</out>
					<start>-1</start>
					<end>1918</end>
					<subframeoffset>0</subframeoffset>
					<masterclipid>00705001.MOV1</masterclipid>
					<logginginfo>
						<scene/>
						<shottake/>
						<lognote/>
						<good>FALSE</good>
					</logginginfo>
					<labels>
						<label2/>
					</labels>
					<comments>
						<mastercomment1/>
						<mastercomment2/>
						<mastercomment3/>
						<mastercomment4/>
					</comments>
					<file id="00705001 "/>
					<filter>
						<effect>
							<name>Audio Levels</name>
							<effectid>audiolevels</effectid>
							<effectcategory>audiolevels</effectcategory>
							<effecttype>audiolevels</effecttype>
							<mediatype>audio</mediatype>
							<parameter>
								<name>Level</name>
								<parameterid>level</parameterid>
								<valuemin>0</valuemin>
								<valuemax>3.98109</valuemax>
								<value>1.77828</value>
							</parameter>
						</effect>
					</filter>
					<filter>
						<effect>
							<name>Audio Pan</name>
							<effectid>audiopan</effectid>
							<effectcategory>audiopan</effectcategory>
							<effecttype>audiopan</effecttype>
							<mediatype>audio</mediatype>
							<parameter>
								<name>Pan</name>
								<parameterid>pan</parameterid>
								<valuemin>-1</valuemin>
								<valuemax>1</valuemax>
								<value>0</value>
							</parameter>
						</effect>
					</filter>
					<sourcetrack>
						<mediatype>audio</mediatype>
						<trackindex>1</trackindex>
					</sourcetrack>
					<link>
						<linkclipref>00705001.MOV2</linkclipref>
						<mediatype>video</mediatype>
						<trackindex>1</trackindex>
						<clipindex>18</clipindex>
					</link>
					<link>
						<linkclipref>00705001.MOV3</linkclipref>
						<mediatype>audio</mediatype>
						<trackindex>1</trackindex>
						<clipindex>10</clipindex>
					</link>
					<link>
						<linkclipref>00705001.MOV4</linkclipref>
						<mediatype>audio</mediatype>
						<trackindex>2</trackindex>
						<clipindex>10</clipindex>
					</link>
					<itemhistory>
						<uuid>E65BE453-B781-4ABE-85D5-7EC83232A1CC</uuid>
					</itemhistory>
				</clipitem>
				<clipitem id="00700001.MOV5">
					<name>00700001.MOV</name>
					<duration>1404</duration>
					<rate>
						<ntsc>FALSE</ntsc>
						<timebase>25</timebase>
					</rate>
					<in>403</in>
					<out>705</out>
					<start>1918</start>
					<end>2220</end>
					<subframeoffset>0</subframeoffset>
					<enabled>TRUE</enabled>
					<masterclipid>00700001.MOV1</masterclipid>
					<logginginfo>
						<scene/>
						<shottake/>
						<lognote/>
						<good>FALSE</good>
					</logginginfo>
					<labels>
						<label2/>
					</labels>
					<comments>
						<mastercomment1/>
						<mastercomment2/>
						<mastercomment3/>
						<mastercomment4/>
					</comments>
					<file id="00700001 "/>
					<filter>
						<effect>
							<name>Audio Levels</name>
							<effectid>audiolevels</effectid>
							<effectcategory>audiolevels</effectcategory>
							<effecttype>audiolevels</effecttype>
							<mediatype>audio</mediatype>
							<parameter>
								<name>Level</name>
								<parameterid>level</parameterid>
								<valuemin>0</valuemin>
								<valuemax>3.98109</valuemax>
								<value>1.77828</value>
							</parameter>
						</effect>
					</filter>
					<filter>
						<effect>
							<name>Audio Pan</name>
							<effectid>audiopan</effectid>
							<effectcategory>audiopan</effectcategory>
							<effecttype>audiopan</effecttype>
							<mediatype>audio</mediatype>
							<parameter>
								<name>Pan</name>
								<parameterid>pan</parameterid>
								<valuemin>-1</valuemin>
								<valuemax>1</valuemax>
								<value>0</value>
							</parameter>
						</effect>
					</filter>
					<sourcetrack>
						<mediatype>audio</mediatype>
						<trackindex>1</trackindex>
					</sourcetrack>
					<link>
						<linkclipref>00700001.MOV4</linkclipref>
						<mediatype>video</mediatype>
						<trackindex>1</trackindex>
						<clipindex>19</clipindex>
					</link>
					<link>
						<linkclipref>00700001.MOV5</linkclipref>
						<mediatype>audio</mediatype>
						<trackindex>1</trackindex>
						<clipindex>11</clipindex>
					</link>
					<link>
						<linkclipref>00700001.MOV6</linkclipref>
						<mediatype>audio</mediatype>
						<trackindex>2</trackindex>
						<clipindex>11</clipindex>
					</link>
					<itemhistory>
						<uuid>0F733C96-1E47-4FC9-967E-F02E19087138</uuid>
					</itemhistory>
				</clipitem>
				<clipitem id="00706001.MOV8">
					<name>00706001.MOV</name>
					<duration>1332</duration>
					<rate>
						<ntsc>FALSE</ntsc>
						<timebase>25</timebase>
					</rate>
					<in>612</in>
					<out>676</out>
					<start>2220</start>
					<end>2284</end>
					<subframeoffset>0</subframeoffset>
					<masterclipid>00706001.MOV1</masterclipid>
					<logginginfo>
						<scene/>
						<shottake/>
						<lognote/>
						<good>FALSE</good>
					</logginginfo>
					<labels>
						<label2/>
					</labels>
					<comments>
						<mastercomment1/>
						<mastercomment2/>
						<mastercomment3/>
						<mastercomment4/>
					</comments>
					<file id="00706001 "/>
					<filter>
						<effect>
							<name>Audio Levels</name>
							<effectid>audiolevels</effectid>
							<effectcategory>audiolevels</effectcategory>
							<effecttype>audiolevels</effecttype>
							<mediatype>audio</mediatype>
							<parameter>
								<name>Level</name>
								<parameterid>level</parameterid>
								<valuemin>0</valuemin>
								<valuemax>3.98109</valuemax>
								<value>1.77828</value>
							</parameter>
						</effect>
					</filter>
					<filter>
						<effect>
							<name>Audio Pan</name>
							<effectid>audiopan</effectid>
							<effectcategory>audiopan</effectcategory>
							<effecttype>audiopan</effecttype>
							<mediatype>audio</mediatype>
							<parameter>
								<name>Pan</name>
								<parameterid>pan</parameterid>
								<valuemin>-1</valuemin>
								<valuemax>1</valuemax>
								<value>0</value>
							</parameter>
						</effect>
					</filter>
					<sourcetrack>
						<mediatype>audio</mediatype>
						<trackindex>1</trackindex>
					</sourcetrack>
					<link>
						<linkclipref>00706001.MOV7</linkclipref>
						<mediatype>video</mediatype>
						<trackindex>2</trackindex>
						<clipindex>14</clipindex>
					</link>
					<link>
						<linkclipref>00706001.MOV8</linkclipref>
						<mediatype>audio</mediatype>
						<trackindex>1</trackindex>
						<clipindex>12</clipindex>
					</link>
					<link>
						<linkclipref>00706001.MOV9</linkclipref>
						<mediatype>audio</mediatype>
						<trackindex>2</trackindex>
						<clipindex>12</clipindex>
					</link>
					<itemhistory>
						<uuid>0B9F0AD3-2E43-42C1-8F1E-44B52AC14D8B</uuid>
					</itemhistory>
				</clipitem>
				<clipitem id="00700001.MOV8">
					<name>00700001.MOV</name>
					<duration>1404</duration>
					<rate>
						<ntsc>FALSE</ntsc>
						<timebase>25</timebase>
					</rate>
					<in>795</in>
					<out>912</out>
					<start>2284</start>
					<end>-1</end>
					<subframeoffset>0</subframeoffset>
					<masterclipid>00700001.MOV1</masterclipid>
					<logginginfo>
						<scene/>
						<shottake/>
						<lognote/>
						<good>FALSE</good>
					</logginginfo>
					<labels>
						<label2/>
					</labels>
					<comments>
						<mastercomment1/>
						<mastercomment2/>
						<mastercomment3/>
						<mastercomment4/>
					</comments>
					<file id="00700001 "/>
					<filter>
						<effect>
							<name>Audio Levels</name>
							<effectid>audiolevels</effectid>
							<effectcategory>audiolevels</effectcategory>
							<effecttype>audiolevels</effecttype>
							<mediatype>audio</mediatype>
							<parameter>
								<name>Level</name>
								<parameterid>level</parameterid>
								<valuemin>0</valuemin>
								<valuemax>3.98109</valuemax>
								<value>1.77828</value>
							</parameter>
						</effect>
					</filter>
					<filter>
						<effect>
							<name>Audio Pan</name>
							<effectid>audiopan</effectid>
							<effectcategory>audiopan</effectcategory>
							<effecttype>audiopan</effecttype>
							<mediatype>audio</mediatype>
							<parameter>
								<name>Pan</name>
								<parameterid>pan</parameterid>
								<valuemin>-1</valuemin>
								<valuemax>1</valuemax>
								<value>0</value>
							</parameter>
						</effect>
					</filter>
					<sourcetrack>
						<mediatype>audio</mediatype>
						<trackindex>1</trackindex>
					</sourcetrack>
					<link>
						<linkclipref>00700001.MOV7</linkclipref>
						<mediatype>video</mediatype>
						<trackindex>1</trackindex>
						<clipindex>20</clipindex>
					</link>
					<link>
						<linkclipref>00700001.MOV8</linkclipref>
						<mediatype>audio</mediatype>
						<trackindex>1</trackindex>
						<clipindex>13</clipindex>
					</link>
					<link>
						<linkclipref>00700001.MOV9</linkclipref>
						<mediatype>audio</mediatype>
						<trackindex>2</trackindex>
						<clipindex>13</clipindex>
					</link>
					<itemhistory>
						<uuid>FC62A0B0-5CA0-4DC8-B14D-4CB5E6C04D7C</uuid>
					</itemhistory>
				</clipitem>
				<transitionitem>
					<rate>
						<ntsc>FALSE</ntsc>
						<timebase>25</timebase>
					</rate>
					<start>2394</start>
					<end>2401</end>
					<alignment>center</alignment>
					<effect>
						<name>Cross Fade (+3dB)</name>
						<effectid>KGAudioTransCrossFade3dB</effectid>
						<effecttype>transition</effecttype>
						<mediatype>audio</mediatype>
					</effect>
				</transitionitem>
				<clipitem id="00706001.MOV2">
					<name>00706001.MOV</name>
					<duration>1332</duration>
					<rate>
						<ntsc>FALSE</ntsc>
						<timebase>25</timebase>
					</rate>
					<in>784</in>
					<out>932</out>
					<start>-1</start>
					<end>2542</end>
					<subframeoffset>0</subframeoffset>
					<masterclipid>00706001.MOV1</masterclipid>
					<logginginfo>
						<scene/>
						<shottake/>
						<lognote/>
						<good>FALSE</good>
					</logginginfo>
					<labels>
						<label2/>
					</labels>
					<comments>
						<mastercomment1/>
						<mastercomment2/>
						<mastercomment3/>
						<mastercomment4/>
					</comments>
					<file id="00706001 "/>
					<filter>
						<effect>
							<name>Audio Levels</name>
							<effectid>audiolevels</effectid>
							<effectcategory>audiolevels</effectcategory>
							<effecttype>audiolevels</effecttype>
							<mediatype>audio</mediatype>
							<parameter>
								<name>Level</name>
								<parameterid>level</parameterid>
								<valuemin>0</valuemin>
								<valuemax>3.98109</valuemax>
								<value>1.77828</value>
							</parameter>
						</effect>
					</filter>
					<filter>
						<effect>
							<name>Audio Pan</name>
							<effectid>audiopan</effectid>
							<effectcategory>audiopan</effectcategory>
							<effecttype>audiopan</effecttype>
							<mediatype>audio</mediatype>
							<parameter>
								<name>Pan</name>
								<parameterid>pan</parameterid>
								<valuemin>-1</valuemin>
								<valuemax>1</valuemax>
								<value>0</value>
							</parameter>
						</effect>
					</filter>
					<sourcetrack>
						<mediatype>audio</mediatype>
						<trackindex>1</trackindex>
					</sourcetrack>
					<link>
						<linkclipref>00706001.MOV</linkclipref>
						<mediatype>video</mediatype>
						<trackindex>1</trackindex>
						<clipindex>21</clipindex>
					</link>
					<link>
						<linkclipref>00706001.MOV2</linkclipref>
						<mediatype>audio</mediatype>
						<trackindex>1</trackindex>
						<clipindex>15</clipindex>
					</link>
					<link>
						<linkclipref>00706001.MOV3</linkclipref>
						<mediatype>audio</mediatype>
						<trackindex>2</trackindex>
						<clipindex>15</clipindex>
					</link>
					<itemhistory>
						<uuid>ABACAC7A-5AB4-47AF-854D-F37D389B7ABA</uuid>
					</itemhistory>
				</clipitem>
				<clipitem id="00702001.MOV2">
					<name>00702001.MOV</name>
					<duration>1668</duration>
					<rate>
						<ntsc>FALSE</ntsc>
						<timebase>25</timebase>
					</rate>
					<in>1169</in>
					<out>1355</out>
					<start>2542</start>
					<end>2728</end>
					<subframeoffset>0</subframeoffset>
					<enabled>TRUE</enabled>
					<masterclipid>00702001.MOV1</masterclipid>
					<logginginfo>
						<scene/>
						<shottake/>
						<lognote/>
						<good>FALSE</good>
					</logginginfo>
					<labels>
						<label2/>
					</labels>
					<comments>
						<mastercomment1/>
						<mastercomment2/>
						<mastercomment3/>
						<mastercomment4/>
					</comments>
					<file id="00702001 "/>
					<filter>
						<effect>
							<name>Audio Levels</name>
							<effectid>audiolevels</effectid>
							<effectcategory>audiolevels</effectcategory>
							<effecttype>audiolevels</effecttype>
							<mediatype>audio</mediatype>
							<parameter>
								<name>Level</name>
								<parameterid>level</parameterid>
								<valuemin>0</valuemin>
								<valuemax>3.98109</valuemax>
								<value>1.77828</value>
							</parameter>
						</effect>
					</filter>
					<filter>
						<effect>
							<name>Audio Pan</name>
							<effectid>audiopan</effectid>
							<effectcategory>audiopan</effectcategory>
							<effecttype>audiopan</effecttype>
							<mediatype>audio</mediatype>
							<parameter>
								<name>Pan</name>
								<parameterid>pan</parameterid>
								<valuemin>-1</valuemin>
								<valuemax>1</valuemax>
								<value>0</value>
							</parameter>
						</effect>
					</filter>
					<sourcetrack>
						<mediatype>audio</mediatype>
						<trackindex>1</trackindex>
					</sourcetrack>
					<link>
						<linkclipref>00702001.MOV</linkclipref>
						<mediatype>video</mediatype>
						<trackindex>1</trackindex>
						<clipindex>22</clipindex>
					</link>
					<link>
						<linkclipref>00702001.MOV2</linkclipref>
						<mediatype>audio</mediatype>
						<trackindex>1</trackindex>
						<clipindex>16</clipindex>
					</link>
					<link>
						<linkclipref>00702001.MOV3</linkclipref>
						<mediatype>audio</mediatype>
						<trackindex>2</trackindex>
						<clipindex>16</clipindex>
					</link>
					<itemhistory>
						<uuid>21446A01-2861-4E7E-8DBC-7DA484524FA9</uuid>
					</itemhistory>
				</clipitem>
				<clipitem id="00696001.MOV5">
					<name>00696001.MOV</name>
					<duration>1728</duration>
					<rate>
						<ntsc>FALSE</ntsc>
						<timebase>25</timebase>
					</rate>
					<in>1436</in>
					<out>1551</out>
					<start>2728</start>
					<end>2843</end>
					<subframeoffset>0</subframeoffset>
					<enabled>TRUE</enabled>
					<masterclipid>00696001.MOV1</masterclipid>
					<logginginfo>
						<scene/>
						<shottake/>
						<lognote/>
						<good>FALSE</good>
					</logginginfo>
					<labels>
						<label2/>
					</labels>
					<comments>
						<mastercomment1/>
						<mastercomment2/>
						<mastercomment3/>
						<mastercomment4/>
					</comments>
					<file id="00696001 "/>
					<filter>
						<effect>
							<name>Audio Levels</name>
							<effectid>audiolevels</effectid>
							<effectcategory>audiolevels</effectcategory>
							<effecttype>audiolevels</effecttype>
							<mediatype>audio</mediatype>
							<parameter>
								<name>Level</name>
								<parameterid>level</parameterid>
								<valuemin>0</valuemin>
								<valuemax>3.98109</valuemax>
								<value>1.77828</value>
							</parameter>
						</effect>
					</filter>
					<filter>
						<effect>
							<name>Audio Pan</name>
							<effectid>audiopan</effectid>
							<effectcategory>audiopan</effectcategory>
							<effecttype>audiopan</effecttype>
							<mediatype>audio</mediatype>
							<parameter>
								<name>Pan</name>
								<parameterid>pan</parameterid>
								<valuemin>-1</valuemin>
								<valuemax>1</valuemax>
								<value>0</value>
							</parameter>
						</effect>
					</filter>
					<sourcetrack>
						<mediatype>audio</mediatype>
						<trackindex>1</trackindex>
					</sourcetrack>
					<link>
						<linkclipref>00696001.MOV4</linkclipref>
						<mediatype>video</mediatype>
						<trackindex>1</trackindex>
						<clipindex>23</clipindex>
					</link>
					<link>
						<linkclipref>00696001.MOV5</linkclipref>
						<mediatype>audio</mediatype>
						<trackindex>1</trackindex>
						<clipindex>17</clipindex>
					</link>
					<link>
						<linkclipref>00696001.MOV6</linkclipref>
						<mediatype>audio</mediatype>
						<trackindex>2</trackindex>
						<clipindex>17</clipindex>
					</link>
					<itemhistory>
						<uuid>724D9190-FBBE-4A45-AD0B-194E0F51817D</uuid>
					</itemhistory>
				</clipitem>
				<clipitem id="00706001.MOV5">
					<name>00706001.MOV</name>
					<duration>1332</duration>
					<rate>
						<ntsc>FALSE</ntsc>
						<timebase>25</timebase>
					</rate>
					<in>1171</in>
					<out>1241</out>
					<start>2843</start>
					<end>2913</end>
					<subframeoffset>0</subframeoffset>
					<masterclipid>00706001.MOV1</masterclipid>
					<logginginfo>
						<scene/>
						<shottake/>
						<lognote/>
						<good>FALSE</good>
					</logginginfo>
					<labels>
						<label2/>
					</labels>
					<comments>
						<mastercomment1/>
						<mastercomment2/>
						<mastercomment3/>
						<mastercomment4/>
					</comments>
					<file id="00706001 "/>
					<filter>
						<effect>
							<name>Audio Levels</name>
							<effectid>audiolevels</effectid>
							<effectcategory>audiolevels</effectcategory>
							<effecttype>audiolevels</effecttype>
							<mediatype>audio</mediatype>
							<parameter>
								<name>Level</name>
								<parameterid>level</parameterid>
								<valuemin>0</valuemin>
								<valuemax>3.98109</valuemax>
								<value>1.77828</value>
							</parameter>
						</effect>
					</filter>
					<filter>
						<effect>
							<name>Audio Pan</name>
							<effectid>audiopan</effectid>
							<effectcategory>audiopan</effectcategory>
							<effecttype>audiopan</effecttype>
							<mediatype>audio</mediatype>
							<parameter>
								<name>Pan</name>
								<parameterid>pan</parameterid>
								<valuemin>-1</valuemin>
								<valuemax>1</valuemax>
								<value>0</value>
							</parameter>
						</effect>
					</filter>
					<sourcetrack>
						<mediatype>audio</mediatype>
						<trackindex>1</trackindex>
					</sourcetrack>
					<link>
						<linkclipref>00706001.MOV4</linkclipref>
						<mediatype>video</mediatype>
						<trackindex>1</trackindex>
						<clipindex>24</clipindex>
					</link>
					<link>
						<linkclipref>00706001.MOV5</linkclipref>
						<mediatype>audio</mediatype>
						<trackindex>1</trackindex>
						<clipindex>18</clipindex>
					</link>
					<link>
						<linkclipref>00706001.MOV6</linkclipref>
						<mediatype>audio</mediatype>
						<trackindex>2</trackindex>
						<clipindex>18</clipindex>
					</link>
					<itemhistory>
						<uuid>0A3F2561-98CF-4948-BE6D-E80719FDDBD9</uuid>
					</itemhistory>
				</clipitem>
				<clipitem id="00711001.MOV2">
					<name>00711001.MOV</name>
					<duration>948</duration>
					<rate>
						<ntsc>FALSE</ntsc>
						<timebase>25</timebase>
					</rate>
					<in>534</in>
					<out>797</out>
					<start>2913</start>
					<end>3176</end>
					<subframeoffset>0</subframeoffset>
					<masterclipid>00711001.MOV1</masterclipid>
					<logginginfo>
						<scene/>
						<shottake/>
						<lognote/>
						<good>FALSE</good>
					</logginginfo>
					<labels>
						<label2/>
					</labels>
					<comments>
						<mastercomment1/>
						<mastercomment2/>
						<mastercomment3/>
						<mastercomment4/>
					</comments>
					<file id="00711001 "/>
					<filter>
						<effect>
							<name>Audio Levels</name>
							<effectid>audiolevels</effectid>
							<effectcategory>audiolevels</effectcategory>
							<effecttype>audiolevels</effecttype>
							<mediatype>audio</mediatype>
							<parameter>
								<name>Level</name>
								<parameterid>level</parameterid>
								<valuemin>0</valuemin>
								<valuemax>3.98109</valuemax>
								<value>1.77828</value>
							</parameter>
						</effect>
					</filter>
					<filter>
						<effect>
							<name>Audio Pan</name>
							<effectid>audiopan</effectid>
							<effectcategory>audiopan</effectcategory>
							<effecttype>audiopan</effecttype>
							<mediatype>audio</mediatype>
							<parameter>
								<name>Pan</name>
								<parameterid>pan</parameterid>
								<valuemin>-1</valuemin>
								<valuemax>1</valuemax>
								<value>0</value>
							</parameter>
						</effect>
					</filter>
					<sourcetrack>
						<mediatype>audio</mediatype>
						<trackindex>1</trackindex>
					</sourcetrack>
					<link>
						<linkclipref>00711001.MOV</linkclipref>
						<mediatype>video</mediatype>
						<trackindex>1</trackindex>
						<clipindex>25</clipindex>
					</link>
					<link>
						<linkclipref>00711001.MOV2</linkclipref>
						<mediatype>audio</mediatype>
						<trackindex>1</trackindex>
						<clipindex>19</clipindex>
					</link>
					<link>
						<linkclipref>00711001.MOV3</linkclipref>
						<mediatype>audio</mediatype>
						<trackindex>2</trackindex>
						<clipindex>19</clipindex>
					</link>
					<itemhistory>
						<uuid>9AD6E8FF-15FE-4B01-B76F-C490B595AB73</uuid>
					</itemhistory>
				</clipitem>
				<clipitem id="00720001.MOV">
					<name>00720001.MOV</name>
					<duration>600</duration>
					<rate>
						<ntsc>FALSE</ntsc>
						<timebase>25</timebase>
					</rate>
					<in>168</in>
					<out>225</out>
					<start>3176</start>
					<end>-1</end>
					<subframeoffset>0</subframeoffset>
					<masterclipid>00720001.MOV1</masterclipid>
					<logginginfo>
						<scene/>
						<shottake/>
						<lognote/>
						<good>FALSE</good>
					</logginginfo>
					<labels>
						<label2/>
					</labels>
					<comments>
						<mastercomment1/>
						<mastercomment2/>
						<mastercomment3/>
						<mastercomment4/>
					</comments>
					<file id="00720001 ">
						<name>00720001.MOV</name>
						<pathurl>file://localhost/Volumes/Askepott/Prosjekter/DNPR637010_Kra%CC%8Akeklubben_TEM_011212/Video/MELLOMSTIKK/S01E05%20Dyrebolig/00720001.MOV</pathurl>
						<rate>
							<timebase>25</timebase>
						</rate>
						<duration>600</duration>
						<timecode>
							<rate>
								<timebase>25</timebase>
							</rate>
							<string>17:49:12:12</string>
							<frame>1603812</frame>
							<displayformat>NDF</displayformat>
							<source>source</source>
							<reel>
								<name>Flash XDR</name>
							</reel>
						</timecode>
						<media>
							<video>
								<duration>600</duration>
								<samplecharacteristics>
									<width>1920</width>
									<height>1080</height>
								</samplecharacteristics>
							</video>
							<audio>
								<samplecharacteristics>
									<samplerate>48000</samplerate>
									<depth>24</depth>
								</samplecharacteristics>
								<channelcount>1</channelcount>
							</audio>
							<audio>
								<samplecharacteristics>
									<samplerate>48000</samplerate>
									<depth>24</depth>
								</samplecharacteristics>
								<channelcount>1</channelcount>
							</audio>
						</media>
					</file>
					<filter>
						<effect>
							<name>Audio Levels</name>
							<effectid>audiolevels</effectid>
							<effectcategory>audiolevels</effectcategory>
							<effecttype>audiolevels</effecttype>
							<mediatype>audio</mediatype>
							<parameter>
								<name>Level</name>
								<parameterid>level</parameterid>
								<valuemin>0</valuemin>
								<valuemax>3.98109</valuemax>
								<value>1.77828</value>
							</parameter>
						</effect>
					</filter>
					<filter>
						<effect>
							<name>Audio Pan</name>
							<effectid>audiopan</effectid>
							<effectcategory>audiopan</effectcategory>
							<effecttype>audiopan</effecttype>
							<mediatype>audio</mediatype>
							<parameter>
								<name>Pan</name>
								<parameterid>pan</parameterid>
								<valuemin>-1</valuemin>
								<valuemax>1</valuemax>
								<value>0</value>
							</parameter>
						</effect>
					</filter>
					<sourcetrack>
						<mediatype>audio</mediatype>
						<trackindex>1</trackindex>
					</sourcetrack>
					<link>
						<linkclipref>00720001.MOV</linkclipref>
						<mediatype>audio</mediatype>
						<trackindex>1</trackindex>
						<clipindex>20</clipindex>
					</link>
					<link>
						<linkclipref>00720001.MOV2</linkclipref>
						<mediatype>audio</mediatype>
						<trackindex>2</trackindex>
						<clipindex>20</clipindex>
					</link>
					<itemhistory>
						<uuid>641D1DDF-CA3D-4614-BA3E-CA326AB3B53B</uuid>
					</itemhistory>
				</clipitem>
				<transitionitem>
					<rate>
						<ntsc>FALSE</ntsc>
						<timebase>25</timebase>
					</rate>
					<start>3226</start>
					<end>3233</end>
					<alignment>center</alignment>
					<effect>
						<name>Cross Fade (+3dB)</name>
						<effectid>KGAudioTransCrossFade3dB</effectid>
						<effecttype>transition</effecttype>
						<mediatype>audio</mediatype>
					</effect>
				</transitionitem>
				<clipitem id="00722001.MOV2">
					<name>00722001.MOV</name>
					<duration>1392</duration>
					<rate>
						<ntsc>FALSE</ntsc>
						<timebase>25</timebase>
					</rate>
					<in>419</in>
					<out>461</out>
					<start>-1</start>
					<end>3268</end>
					<subframeoffset>0</subframeoffset>
					<enabled>TRUE</enabled>
					<masterclipid>00722001.MOV1</masterclipid>
					<logginginfo>
						<scene/>
						<shottake/>
						<lognote/>
						<good>FALSE</good>
					</logginginfo>
					<labels>
						<label2/>
					</labels>
					<comments>
						<mastercomment1/>
						<mastercomment2/>
						<mastercomment3/>
						<mastercomment4/>
					</comments>
					<file id="00722001 "/>
					<filter>
						<effect>
							<name>Audio Levels</name>
							<effectid>audiolevels</effectid>
							<effectcategory>audiolevels</effectcategory>
							<effecttype>audiolevels</effecttype>
							<mediatype>audio</mediatype>
							<parameter>
								<name>Level</name>
								<parameterid>level</parameterid>
								<valuemin>0</valuemin>
								<valuemax>3.98109</valuemax>
								<value>1</value>
							</parameter>
						</effect>
					</filter>
					<filter>
						<effect>
							<name>Audio Pan</name>
							<effectid>audiopan</effectid>
							<effectcategory>audiopan</effectcategory>
							<effecttype>audiopan</effecttype>
							<mediatype>audio</mediatype>
							<parameter>
								<name>Pan</name>
								<parameterid>pan</parameterid>
								<valuemin>-1</valuemin>
								<valuemax>1</valuemax>
								<value>0</value>
							</parameter>
						</effect>
					</filter>
					<sourcetrack>
						<mediatype>audio</mediatype>
						<trackindex>1</trackindex>
					</sourcetrack>
					<link>
						<linkclipref>00722001.MOV</linkclipref>
						<mediatype>video</mediatype>
						<trackindex>1</trackindex>
						<clipindex>26</clipindex>
					</link>
					<link>
						<linkclipref>00722001.MOV2</linkclipref>
						<mediatype>audio</mediatype>
						<trackindex>1</trackindex>
						<clipindex>22</clipindex>
					</link>
					<link>
						<linkclipref>00722001.MOV3</linkclipref>
						<mediatype>audio</mediatype>
						<trackindex>2</trackindex>
						<clipindex>22</clipindex>
					</link>
					<itemhistory>
						<uuid>55454F00-367E-4C02-84A5-E3BBAC49F68B</uuid>
					</itemhistory>
				</clipitem>
				<clipitem id="00715001.MOV2">
					<name>00715001.MOV</name>
					<duration>3156</duration>
					<rate>
						<ntsc>FALSE</ntsc>
						<timebase>25</timebase>
					</rate>
					<in>230</in>
					<out>529</out>
					<start>3268</start>
					<end>3567</end>
					<subframeoffset>0</subframeoffset>
					<enabled>TRUE</enabled>
					<masterclipid>00715001.MOV1</masterclipid>
					<logginginfo>
						<scene/>
						<shottake/>
						<lognote/>
						<good>FALSE</good>
					</logginginfo>
					<labels>
						<label2/>
					</labels>
					<comments>
						<mastercomment1/>
						<mastercomment2/>
						<mastercomment3/>
						<mastercomment4/>
					</comments>
					<file id="00715001 "/>
					<filter>
						<effect>
							<name>Audio Levels</name>
							<effectid>audiolevels</effectid>
							<effectcategory>audiolevels</effectcategory>
							<effecttype>audiolevels</effecttype>
							<mediatype>audio</mediatype>
							<parameter>
								<name>Level</name>
								<parameterid>level</parameterid>
								<valuemin>0</valuemin>
								<valuemax>3.98109</valuemax>
								<value>1.77828</value>
							</parameter>
						</effect>
					</filter>
					<filter>
						<effect>
							<name>Audio Pan</name>
							<effectid>audiopan</effectid>
							<effectcategory>audiopan</effectcategory>
							<effecttype>audiopan</effecttype>
							<mediatype>audio</mediatype>
							<parameter>
								<name>Pan</name>
								<parameterid>pan</parameterid>
								<valuemin>-1</valuemin>
								<valuemax>1</valuemax>
								<value>0</value>
							</parameter>
						</effect>
					</filter>
					<sourcetrack>
						<mediatype>audio</mediatype>
						<trackindex>1</trackindex>
					</sourcetrack>
					<link>
						<linkclipref>00715001.MOV</linkclipref>
						<mediatype>video</mediatype>
						<trackindex>1</trackindex>
						<clipindex>27</clipindex>
					</link>
					<link>
						<linkclipref>00715001.MOV2</linkclipref>
						<mediatype>audio</mediatype>
						<trackindex>1</trackindex>
						<clipindex>23</clipindex>
					</link>
					<link>
						<linkclipref>00715001.MOV3</linkclipref>
						<mediatype>audio</mediatype>
						<trackindex>2</trackindex>
						<clipindex>23</clipindex>
					</link>
					<itemhistory>
						<uuid>792D91B9-6E25-421A-8A96-15098228D348</uuid>
					</itemhistory>
				</clipitem>
				<clipitem id="00718001.MOV2">
					<name>00718001.MOV</name>
					<duration>2232</duration>
					<rate>
						<ntsc>FALSE</ntsc>
						<timebase>25</timebase>
					</rate>
					<in>1059</in>
					<out>1135</out>
					<start>3567</start>
					<end>3643</end>
					<subframeoffset>0</subframeoffset>
					<enabled>TRUE</enabled>
					<masterclipid>00718001.MOV1</masterclipid>
					<logginginfo>
						<scene/>
						<shottake/>
						<lognote/>
						<good>FALSE</good>
					</logginginfo>
					<labels>
						<label2/>
					</labels>
					<comments>
						<mastercomment1/>
						<mastercomment2/>
						<mastercomment3/>
						<mastercomment4/>
					</comments>
					<file id="00718001 "/>
					<filter>
						<effect>
							<name>Audio Levels</name>
							<effectid>audiolevels</effectid>
							<effectcategory>audiolevels</effectcategory>
							<effecttype>audiolevels</effecttype>
							<mediatype>audio</mediatype>
							<parameter>
								<name>Level</name>
								<parameterid>level</parameterid>
								<valuemin>0</valuemin>
								<valuemax>3.98109</valuemax>
								<value>1.77828</value>
							</parameter>
						</effect>
					</filter>
					<filter>
						<effect>
							<name>Audio Pan</name>
							<effectid>audiopan</effectid>
							<effectcategory>audiopan</effectcategory>
							<effecttype>audiopan</effecttype>
							<mediatype>audio</mediatype>
							<parameter>
								<name>Pan</name>
								<parameterid>pan</parameterid>
								<valuemin>-1</valuemin>
								<valuemax>1</valuemax>
								<value>0</value>
							</parameter>
						</effect>
					</filter>
					<sourcetrack>
						<mediatype>audio</mediatype>
						<trackindex>1</trackindex>
					</sourcetrack>
					<link>
						<linkclipref>00718001.MOV</linkclipref>
						<mediatype>video</mediatype>
						<trackindex>1</trackindex>
						<clipindex>28</clipindex>
					</link>
					<link>
						<linkclipref>00718001.MOV2</linkclipref>
						<mediatype>audio</mediatype>
						<trackindex>1</trackindex>
						<clipindex>24</clipindex>
					</link>
					<link>
						<linkclipref>00718001.MOV3</linkclipref>
						<mediatype>audio</mediatype>
						<trackindex>2</trackindex>
						<clipindex>24</clipindex>
					</link>
					<itemhistory>
						<uuid>FC5A6DBA-24E0-474E-9F85-DB0FD6E36D3F</uuid>
					</itemhistory>
				</clipitem>
				<clipitem id="00715001.MOV5">
					<name>00715001.MOV</name>
					<duration>3156</duration>
					<rate>
						<ntsc>FALSE</ntsc>
						<timebase>25</timebase>
					</rate>
					<in>1789</in>
					<out>1940</out>
					<start>3643</start>
					<end>3794</end>
					<subframeoffset>0</subframeoffset>
					<masterclipid>00715001.MOV1</masterclipid>
					<logginginfo>
						<scene/>
						<shottake/>
						<lognote/>
						<good>FALSE</good>
					</logginginfo>
					<labels>
						<label2/>
					</labels>
					<comments>
						<mastercomment1/>
						<mastercomment2/>
						<mastercomment3/>
						<mastercomment4/>
					</comments>
					<file id="00715001 "/>
					<filter>
						<effect>
							<name>Audio Levels</name>
							<effectid>audiolevels</effectid>
							<effectcategory>audiolevels</effectcategory>
							<effecttype>audiolevels</effecttype>
							<mediatype>audio</mediatype>
							<parameter>
								<name>Level</name>
								<parameterid>level</parameterid>
								<valuemin>0</valuemin>
								<valuemax>3.98109</valuemax>
								<value>1.77828</value>
							</parameter>
						</effect>
					</filter>
					<filter>
						<effect>
							<name>Audio Pan</name>
							<effectid>audiopan</effectid>
							<effectcategory>audiopan</effectcategory>
							<effecttype>audiopan</effecttype>
							<mediatype>audio</mediatype>
							<parameter>
								<name>Pan</name>
								<parameterid>pan</parameterid>
								<valuemin>-1</valuemin>
								<valuemax>1</valuemax>
								<value>0</value>
							</parameter>
						</effect>
					</filter>
					<sourcetrack>
						<mediatype>audio</mediatype>
						<trackindex>1</trackindex>
					</sourcetrack>
					<link>
						<linkclipref>00715001.MOV4</linkclipref>
						<mediatype>video</mediatype>
						<trackindex>1</trackindex>
						<clipindex>29</clipindex>
					</link>
					<link>
						<linkclipref>00715001.MOV5</linkclipref>
						<mediatype>audio</mediatype>
						<trackindex>1</trackindex>
						<clipindex>25</clipindex>
					</link>
					<link>
						<linkclipref>00715001.MOV6</linkclipref>
						<mediatype>audio</mediatype>
						<trackindex>2</trackindex>
						<clipindex>25</clipindex>
					</link>
					<itemhistory>
						<uuid>4F24625E-683D-4F73-8B11-611EEB64EDB8</uuid>
					</itemhistory>
				</clipitem>
				<clipitem id="00718001.MOV5">
					<name>00718001.MOV</name>
					<duration>2232</duration>
					<rate>
						<ntsc>FALSE</ntsc>
						<timebase>25</timebase>
					</rate>
					<in>1284</in>
					<out>1408</out>
					<start>3794</start>
					<end>3918</end>
					<subframeoffset>0</subframeoffset>
					<enabled>TRUE</enabled>
					<masterclipid>00718001.MOV1</masterclipid>
					<logginginfo>
						<scene/>
						<shottake/>
						<lognote/>
						<good>FALSE</good>
					</logginginfo>
					<labels>
						<label2/>
					</labels>
					<comments>
						<mastercomment1/>
						<mastercomment2/>
						<mastercomment3/>
						<mastercomment4/>
					</comments>
					<file id="00718001 "/>
					<filter>
						<effect>
							<name>Audio Levels</name>
							<effectid>audiolevels</effectid>
							<effectcategory>audiolevels</effectcategory>
							<effecttype>audiolevels</effecttype>
							<mediatype>audio</mediatype>
							<parameter>
								<name>Level</name>
								<parameterid>level</parameterid>
								<valuemin>0</valuemin>
								<valuemax>3.98109</valuemax>
								<value>1.77828</value>
							</parameter>
						</effect>
					</filter>
					<filter>
						<effect>
							<name>Audio Pan</name>
							<effectid>audiopan</effectid>
							<effectcategory>audiopan</effectcategory>
							<effecttype>audiopan</effecttype>
							<mediatype>audio</mediatype>
							<parameter>
								<name>Pan</name>
								<parameterid>pan</parameterid>
								<valuemin>-1</valuemin>
								<valuemax>1</valuemax>
								<value>0</value>
							</parameter>
						</effect>
					</filter>
					<sourcetrack>
						<mediatype>audio</mediatype>
						<trackindex>1</trackindex>
					</sourcetrack>
					<link>
						<linkclipref>00718001.MOV4</linkclipref>
						<mediatype>video</mediatype>
						<trackindex>1</trackindex>
						<clipindex>30</clipindex>
					</link>
					<link>
						<linkclipref>00718001.MOV5</linkclipref>
						<mediatype>audio</mediatype>
						<trackindex>1</trackindex>
						<clipindex>26</clipindex>
					</link>
					<link>
						<linkclipref>00718001.MOV6</linkclipref>
						<mediatype>audio</mediatype>
						<trackindex>2</trackindex>
						<clipindex>26</clipindex>
					</link>
					<itemhistory>
						<uuid>B3CFC4F7-96BD-4BFB-9F05-5734FF319F2B</uuid>
					</itemhistory>
				</clipitem>
				<clipitem id="00715001.MOV8">
					<name>00715001.MOV</name>
					<duration>3156</duration>
					<rate>
						<ntsc>FALSE</ntsc>
						<timebase>25</timebase>
					</rate>
					<in>2118</in>
					<out>2290</out>
					<start>3918</start>
					<end>4090</end>
					<subframeoffset>0</subframeoffset>
					<masterclipid>00715001.MOV1</masterclipid>
					<logginginfo>
						<scene/>
						<shottake/>
						<lognote/>
						<good>FALSE</good>
					</logginginfo>
					<labels>
						<label2/>
					</labels>
					<comments>
						<mastercomment1/>
						<mastercomment2/>
						<mastercomment3/>
						<mastercomment4/>
					</comments>
					<file id="00715001 "/>
					<filter>
						<effect>
							<name>Audio Levels</name>
							<effectid>audiolevels</effectid>
							<effectcategory>audiolevels</effectcategory>
							<effecttype>audiolevels</effecttype>
							<mediatype>audio</mediatype>
							<parameter>
								<name>Level</name>
								<parameterid>level</parameterid>
								<valuemin>0</valuemin>
								<valuemax>3.98109</valuemax>
								<value>1.77828</value>
							</parameter>
						</effect>
					</filter>
					<filter>
						<effect>
							<name>Audio Pan</name>
							<effectid>audiopan</effectid>
							<effectcategory>audiopan</effectcategory>
							<effecttype>audiopan</effecttype>
							<mediatype>audio</mediatype>
							<parameter>
								<name>Pan</name>
								<parameterid>pan</parameterid>
								<valuemin>-1</valuemin>
								<valuemax>1</valuemax>
								<value>0</value>
							</parameter>
						</effect>
					</filter>
					<sourcetrack>
						<mediatype>audio</mediatype>
						<trackindex>1</trackindex>
					</sourcetrack>
					<link>
						<linkclipref>00715001.MOV7</linkclipref>
						<mediatype>video</mediatype>
						<trackindex>1</trackindex>
						<clipindex>31</clipindex>
					</link>
					<link>
						<linkclipref>00715001.MOV8</linkclipref>
						<mediatype>audio</mediatype>
						<trackindex>1</trackindex>
						<clipindex>27</clipindex>
					</link>
					<link>
						<linkclipref>00715001.MOV9</linkclipref>
						<mediatype>audio</mediatype>
						<trackindex>2</trackindex>
						<clipindex>27</clipindex>
					</link>
					<itemhistory>
						<uuid>D54E7EEF-3379-4C5F-A04F-203237104334</uuid>
					</itemhistory>
				</clipitem>
				<clipitem id="00722001.MOV5">
					<name>00722001.MOV</name>
					<duration>1392</duration>
					<rate>
						<ntsc>FALSE</ntsc>
						<timebase>25</timebase>
					</rate>
					<in>663</in>
					<out>736</out>
					<start>4090</start>
					<end>-1</end>
					<subframeoffset>0</subframeoffset>
					<enabled>TRUE</enabled>
					<masterclipid>00722001.MOV1</masterclipid>
					<logginginfo>
						<scene/>
						<shottake/>
						<lognote/>
						<good>FALSE</good>
					</logginginfo>
					<labels>
						<label2/>
					</labels>
					<comments>
						<mastercomment1/>
						<mastercomment2/>
						<mastercomment3/>
						<mastercomment4/>
					</comments>
					<file id="00722001 "/>
					<filter>
						<effect>
							<name>Audio Levels</name>
							<effectid>audiolevels</effectid>
							<effectcategory>audiolevels</effectcategory>
							<effecttype>audiolevels</effecttype>
							<mediatype>audio</mediatype>
							<parameter>
								<name>Level</name>
								<parameterid>level</parameterid>
								<valuemin>0</valuemin>
								<valuemax>3.98109</valuemax>
								<value>1.77828</value>
							</parameter>
						</effect>
					</filter>
					<filter>
						<effect>
							<name>Audio Pan</name>
							<effectid>audiopan</effectid>
							<effectcategory>audiopan</effectcategory>
							<effecttype>audiopan</effecttype>
							<mediatype>audio</mediatype>
							<parameter>
								<name>Pan</name>
								<parameterid>pan</parameterid>
								<valuemin>-1</valuemin>
								<valuemax>1</valuemax>
								<value>0</value>
							</parameter>
						</effect>
					</filter>
					<sourcetrack>
						<mediatype>audio</mediatype>
						<trackindex>1</trackindex>
					</sourcetrack>
					<link>
						<linkclipref>00722001.MOV4</linkclipref>
						<mediatype>video</mediatype>
						<trackindex>1</trackindex>
						<clipindex>32</clipindex>
					</link>
					<link>
						<linkclipref>00722001.MOV5</linkclipref>
						<mediatype>audio</mediatype>
						<trackindex>1</trackindex>
						<clipindex>28</clipindex>
					</link>
					<link>
						<linkclipref>00722001.MOV6</linkclipref>
						<mediatype>audio</mediatype>
						<trackindex>2</trackindex>
						<clipindex>28</clipindex>
					</link>
					<itemhistory>
						<uuid>81B8DBD1-0BB0-45D5-A46D-BDA4491765C8</uuid>
					</itemhistory>
				</clipitem>
				<transitionitem>
					<rate>
						<ntsc>FALSE</ntsc>
						<timebase>25</timebase>
					</rate>
					<start>4158</start>
					<end>4163</end>
					<alignment>center</alignment>
					<effect>
						<name>Cross Fade (+3dB)</name>
						<effectid>KGAudioTransCrossFade3dB</effectid>
						<effecttype>transition</effecttype>
						<mediatype>audio</mediatype>
					</effect>
				</transitionitem>
				<clipitem id="00718001.MOV8">
					<name>00718001.MOV</name>
					<duration>2232</duration>
					<rate>
						<ntsc>FALSE</ntsc>
						<timebase>25</timebase>
					</rate>
					<in>1601</in>
					<out>1867</out>
					<start>-1</start>
					<end>4424</end>
					<subframeoffset>0</subframeoffset>
					<enabled>TRUE</enabled>
					<masterclipid>00718001.MOV1</masterclipid>
					<logginginfo>
						<scene/>
						<shottake/>
						<lognote/>
						<good>FALSE</good>
					</logginginfo>
					<labels>
						<label2/>
					</labels>
					<comments>
						<mastercomment1/>
						<mastercomment2/>
						<mastercomment3/>
						<mastercomment4/>
					</comments>
					<file id="00718001 "/>
					<filter>
						<effect>
							<name>Audio Levels</name>
							<effectid>audiolevels</effectid>
							<effectcategory>audiolevels</effectcategory>
							<effecttype>audiolevels</effecttype>
							<mediatype>audio</mediatype>
							<parameter>
								<name>Level</name>
								<parameterid>level</parameterid>
								<valuemin>0</valuemin>
								<valuemax>3.98109</valuemax>
								<value>1.77828</value>
							</parameter>
						</effect>
					</filter>
					<filter>
						<effect>
							<name>Audio Pan</name>
							<effectid>audiopan</effectid>
							<effectcategory>audiopan</effectcategory>
							<effecttype>audiopan</effecttype>
							<mediatype>audio</mediatype>
							<parameter>
								<name>Pan</name>
								<parameterid>pan</parameterid>
								<valuemin>-1</valuemin>
								<valuemax>1</valuemax>
								<value>0</value>
							</parameter>
						</effect>
					</filter>
					<sourcetrack>
						<mediatype>audio</mediatype>
						<trackindex>1</trackindex>
					</sourcetrack>
					<link>
						<linkclipref>00718001.MOV7</linkclipref>
						<mediatype>video</mediatype>
						<trackindex>1</trackindex>
						<clipindex>33</clipindex>
					</link>
					<link>
						<linkclipref>00718001.MOV8</linkclipref>
						<mediatype>audio</mediatype>
						<trackindex>1</trackindex>
						<clipindex>30</clipindex>
					</link>
					<link>
						<linkclipref>00718001.MOV9</linkclipref>
						<mediatype>audio</mediatype>
						<trackindex>2</trackindex>
						<clipindex>30</clipindex>
					</link>
					<itemhistory>
						<uuid>FC4ADCA3-AEA1-4EFF-9B3E-ABE025E770A2</uuid>
					</itemhistory>
				</clipitem>
				<clipitem id="00715001.MOV11">
					<name>00715001.MOV</name>
					<duration>3156</duration>
					<rate>
						<ntsc>FALSE</ntsc>
						<timebase>25</timebase>
					</rate>
					<in>2720</in>
					<out>3057</out>
					<start>4424</start>
					<end>4761</end>
					<subframeoffset>0</subframeoffset>
					<enabled>TRUE</enabled>
					<masterclipid>00715001.MOV1</masterclipid>
					<logginginfo>
						<scene/>
						<shottake/>
						<lognote/>
						<good>FALSE</good>
					</logginginfo>
					<labels>
						<label2/>
					</labels>
					<comments>
						<mastercomment1/>
						<mastercomment2/>
						<mastercomment3/>
						<mastercomment4/>
					</comments>
					<file id="00715001 "/>
					<filter>
						<effect>
							<name>Audio Levels</name>
							<effectid>audiolevels</effectid>
							<effectcategory>audiolevels</effectcategory>
							<effecttype>audiolevels</effecttype>
							<mediatype>audio</mediatype>
							<parameter>
								<name>Level</name>
								<parameterid>level</parameterid>
								<valuemin>0</valuemin>
								<valuemax>3.98109</valuemax>
								<value>1.77828</value>
							</parameter>
						</effect>
					</filter>
					<filter>
						<effect>
							<name>Audio Pan</name>
							<effectid>audiopan</effectid>
							<effectcategory>audiopan</effectcategory>
							<effecttype>audiopan</effecttype>
							<mediatype>audio</mediatype>
							<parameter>
								<name>Pan</name>
								<parameterid>pan</parameterid>
								<valuemin>-1</valuemin>
								<valuemax>1</valuemax>
								<value>0</value>
							</parameter>
						</effect>
					</filter>
					<sourcetrack>
						<mediatype>audio</mediatype>
						<trackindex>1</trackindex>
					</sourcetrack>
					<link>
						<linkclipref>00715001.MOV10</linkclipref>
						<mediatype>video</mediatype>
						<trackindex>1</trackindex>
						<clipindex>34</clipindex>
					</link>
					<link>
						<linkclipref>00715001.MOV11</linkclipref>
						<mediatype>audio</mediatype>
						<trackindex>1</trackindex>
						<clipindex>31</clipindex>
					</link>
					<link>
						<linkclipref>00715001.MOV12</linkclipref>
						<mediatype>audio</mediatype>
						<trackindex>2</trackindex>
						<clipindex>31</clipindex>
					</link>
					<itemhistory>
						<uuid>EA07A39A-3D9B-4A96-9093-23F64CE5554A</uuid>
					</itemhistory>
				</clipitem>
				<clipitem id="DYR18071_01 3">
					<name>DYR18071_01</name>
					<duration>610</duration>
					<rate>
						<ntsc>FALSE</ntsc>
						<timebase>25</timebase>
					</rate>
					<in>302</in>
					<out>337</out>
					<start>4761</start>
					<end>4796</end>
					<subframeoffset>0</subframeoffset>
					<masterclipid>DYR18071_01 1</masterclipid>
					<logginginfo>
						<scene/>
						<shottake/>
						<lognote/>
						<good>FALSE</good>
					</logginginfo>
					<labels>
						<label2/>
					</labels>
					<comments>
						<mastercomment1/>
						<mastercomment2/>
						<mastercomment3/>
						<mastercomment4/>
					</comments>
					<file id="DYR18071_01 2"/>
					<filter>
						<effect>
							<name>Audio Levels</name>
							<effectid>audiolevels</effectid>
							<effectcategory>audiolevels</effectcategory>
							<effecttype>audiolevels</effecttype>
							<mediatype>audio</mediatype>
							<parameter>
								<name>Level</name>
								<parameterid>level</parameterid>
								<valuemin>0</valuemin>
								<valuemax>3.98109</valuemax>
								<value>0</value>
							</parameter>
						</effect>
					</filter>
					<filter>
						<effect>
							<name>Audio Pan</name>
							<effectid>audiopan</effectid>
							<effectcategory>audiopan</effectcategory>
							<effecttype>audiopan</effecttype>
							<mediatype>audio</mediatype>
							<parameter>
								<name>Pan</name>
								<parameterid>pan</parameterid>
								<valuemin>-1</valuemin>
								<valuemax>1</valuemax>
								<value>0</value>
							</parameter>
						</effect>
					</filter>
					<sourcetrack>
						<mediatype>audio</mediatype>
						<trackindex>1</trackindex>
					</sourcetrack>
					<link>
						<linkclipref>DYR18071_01 </linkclipref>
						<mediatype>video</mediatype>
						<trackindex>1</trackindex>
						<clipindex>36</clipindex>
					</link>
					<link>
						<linkclipref>DYR18071_01 3</linkclipref>
						<mediatype>audio</mediatype>
						<trackindex>1</trackindex>
						<clipindex>32</clipindex>
					</link>
					<link>
						<linkclipref>DYR18071_01 4</linkclipref>
						<mediatype>audio</mediatype>
						<trackindex>2</trackindex>
						<clipindex>32</clipindex>
					</link>
					<itemhistory>
						<uuid>465812C6-5882-4680-91A4-D101046CF9C6</uuid>
					</itemhistory>
				</clipitem>
				<transitionitem>
					<rate>
						<ntsc>FALSE</ntsc>
						<timebase>25</timebase>
					</rate>
					<start>4842</start>
					<end>4849</end>
					<alignment>start-black</alignment>
					<effect>
						<name>Cross Fade (+3dB)</name>
						<effectid>KGAudioTransCrossFade3dB</effectid>
						<effecttype>transition</effecttype>
						<mediatype>audio</mediatype>
					</effect>
				</transitionitem>
				<clipitem id="DYR18058_01 3">
					<name>DYR18058_01</name>
					<duration>579</duration>
					<rate>
						<ntsc>FALSE</ntsc>
						<timebase>25</timebase>
					</rate>
					<in>288</in>
					<out>373</out>
					<start>-1</start>
					<end>4927</end>
					<subframeoffset>0</subframeoffset>
					<enabled>TRUE</enabled>
					<masterclipid>DYR18058_01 1</masterclipid>
					<logginginfo>
						<scene/>
						<shottake/>
						<lognote/>
						<good>FALSE</good>
					</logginginfo>
					<labels>
						<label2/>
					</labels>
					<comments>
						<mastercomment1/>
						<mastercomment2/>
						<mastercomment3/>
						<mastercomment4/>
					</comments>
					<file id="DYR18058_01 2"/>
					<filter>
						<enabled>TRUE</enabled>
						<start>-1</start>
						<end>-1</end>
						<effect>
							<name>Gain</name>
							<effectid>{61756678, 4761696e, 4b657947}</effectid>
							<effecttype>filter</effecttype>
							<mediatype>audio</mediatype>
							<parameter>
								<parameterid>Gain(dB)</parameterid>
								<parameterspecifier>0:0:0</parameterspecifier>
								<name>Gain(dB)</name>
								<valuemin>-96</valuemin>
								<valuemax>96</valuemax>
								<value>7</value>
							</parameter>
						</effect>
					</filter>
					<filter>
						<effect>
							<name>Audio Levels</name>
							<effectid>audiolevels</effectid>
							<effectcategory>audiolevels</effectcategory>
							<effecttype>audiolevels</effecttype>
							<mediatype>audio</mediatype>
							<parameter>
								<name>Level</name>
								<parameterid>level</parameterid>
								<valuemin>0</valuemin>
								<valuemax>3.98109</valuemax>
								<value>0</value>
							</parameter>
						</effect>
					</filter>
					<filter>
						<effect>
							<name>Audio Pan</name>
							<effectid>audiopan</effectid>
							<effectcategory>audiopan</effectcategory>
							<effecttype>audiopan</effecttype>
							<mediatype>audio</mediatype>
							<parameter>
								<name>Pan</name>
								<parameterid>pan</parameterid>
								<valuemin>-1</valuemin>
								<valuemax>1</valuemax>
								<value>0</value>
							</parameter>
						</effect>
					</filter>
					<sourcetrack>
						<mediatype>audio</mediatype>
						<trackindex>1</trackindex>
					</sourcetrack>
					<link>
						<linkclipref>DYR18058_01 </linkclipref>
						<mediatype>video</mediatype>
						<trackindex>1</trackindex>
						<clipindex>37</clipindex>
					</link>
					<link>
						<linkclipref>DYR18058_01 3</linkclipref>
						<mediatype>audio</mediatype>
						<trackindex>1</trackindex>
						<clipindex>34</clipindex>
					</link>
					<link>
						<linkclipref>DYR18058_01 4</linkclipref>
						<mediatype>audio</mediatype>
						<trackindex>2</trackindex>
						<clipindex>34</clipindex>
					</link>
					<itemhistory>
						<uuid>175D331B-FE00-47BE-9143-8C7AA2C5F349</uuid>
					</itemhistory>
				</clipitem>
				<clipitem id="DYR18071_01 6">
					<name>DYR18071_01</name>
					<duration>610</duration>
					<rate>
						<ntsc>FALSE</ntsc>
						<timebase>25</timebase>
					</rate>
					<in>85</in>
					<out>128</out>
					<start>4927</start>
					<end>4970</end>
					<subframeoffset>0</subframeoffset>
					<enabled>TRUE</enabled>
					<masterclipid>DYR18071_01 1</masterclipid>
					<logginginfo>
						<scene/>
						<shottake/>
						<lognote/>
						<good>FALSE</good>
					</logginginfo>
					<labels>
						<label2/>
					</labels>
					<comments>
						<mastercomment1/>
						<mastercomment2/>
						<mastercomment3/>
						<mastercomment4/>
					</comments>
					<file id="DYR18071_01 2"/>
					<filter>
						<effect>
							<name>Audio Levels</name>
							<effectid>audiolevels</effectid>
							<effectcategory>audiolevels</effectcategory>
							<effecttype>audiolevels</effecttype>
							<mediatype>audio</mediatype>
							<parameter>
								<name>Level</name>
								<parameterid>level</parameterid>
								<valuemin>0</valuemin>
								<valuemax>3.98109</valuemax>
								<value>0</value>
							</parameter>
						</effect>
					</filter>
					<filter>
						<effect>
							<name>Audio Pan</name>
							<effectid>audiopan</effectid>
							<effectcategory>audiopan</effectcategory>
							<effecttype>audiopan</effecttype>
							<mediatype>audio</mediatype>
							<parameter>
								<name>Pan</name>
								<parameterid>pan</parameterid>
								<valuemin>-1</valuemin>
								<valuemax>1</valuemax>
								<value>0</value>
							</parameter>
						</effect>
					</filter>
					<sourcetrack>
						<mediatype>audio</mediatype>
						<trackindex>1</trackindex>
					</sourcetrack>
					<link>
						<linkclipref>DYR18071_01 5</linkclipref>
						<mediatype>video</mediatype>
						<trackindex>1</trackindex>
						<clipindex>38</clipindex>
					</link>
					<link>
						<linkclipref>DYR18071_01 6</linkclipref>
						<mediatype>audio</mediatype>
						<trackindex>1</trackindex>
						<clipindex>35</clipindex>
					</link>
					<link>
						<linkclipref>DYR18071_01 7</linkclipref>
						<mediatype>audio</mediatype>
						<trackindex>2</trackindex>
						<clipindex>35</clipindex>
					</link>
					<itemhistory>
						<uuid>AD29E004-A1C8-4D5B-9510-42F67C954F22</uuid>
					</itemhistory>
				</clipitem>
				<clipitem id="DYR18064_01 3">
					<name>DYR18064_01</name>
					<duration>757</duration>
					<rate>
						<ntsc>FALSE</ntsc>
						<timebase>25</timebase>
					</rate>
					<in>148</in>
					<out>200</out>
					<start>4970</start>
					<end>5022</end>
					<subframeoffset>0</subframeoffset>
					<enabled>TRUE</enabled>
					<masterclipid>DYR18064_01 1</masterclipid>
					<logginginfo>
						<scene/>
						<shottake/>
						<lognote/>
						<good>FALSE</good>
					</logginginfo>
					<labels>
						<label2/>
					</labels>
					<comments>
						<mastercomment1/>
						<mastercomment2/>
						<mastercomment3/>
						<mastercomment4/>
					</comments>
					<file id="DYR18064_01 2"/>
					<filter>
						<enabled>TRUE</enabled>
						<start>-1</start>
						<end>-1</end>
						<effect>
							<name>Gain</name>
							<effectid>{61756678, 4761696e, 4b657947}</effectid>
							<effecttype>filter</effecttype>
							<mediatype>audio</mediatype>
							<parameter>
								<parameterid>Gain(dB)</parameterid>
								<parameterspecifier>0:0:0</parameterspecifier>
								<name>Gain(dB)</name>
								<valuemin>-96</valuemin>
								<valuemax>96</valuemax>
								<value>5</value>
							</parameter>
						</effect>
					</filter>
					<filter>
						<effect>
							<name>Audio Levels</name>
							<effectid>audiolevels</effectid>
							<effectcategory>audiolevels</effectcategory>
							<effecttype>audiolevels</effecttype>
							<mediatype>audio</mediatype>
							<parameter>
								<name>Level</name>
								<parameterid>level</parameterid>
								<valuemin>0</valuemin>
								<valuemax>3.98109</valuemax>
								<value>3.98107</value>
							</parameter>
						</effect>
					</filter>
					<filter>
						<effect>
							<name>Audio Pan</name>
							<effectid>audiopan</effectid>
							<effectcategory>audiopan</effectcategory>
							<effecttype>audiopan</effecttype>
							<mediatype>audio</mediatype>
							<parameter>
								<name>Pan</name>
								<parameterid>pan</parameterid>
								<valuemin>-1</valuemin>
								<valuemax>1</valuemax>
								<value>0</value>
							</parameter>
						</effect>
					</filter>
					<sourcetrack>
						<mediatype>audio</mediatype>
						<trackindex>1</trackindex>
					</sourcetrack>
					<link>
						<linkclipref>DYR18064_01 </linkclipref>
						<mediatype>video</mediatype>
						<trackindex>1</trackindex>
						<clipindex>39</clipindex>
					</link>
					<link>
						<linkclipref>DYR18064_01 3</linkclipref>
						<mediatype>audio</mediatype>
						<trackindex>1</trackindex>
						<clipindex>36</clipindex>
					</link>
					<link>
						<linkclipref>DYR18064_01 4</linkclipref>
						<mediatype>audio</mediatype>
						<trackindex>2</trackindex>
						<clipindex>36</clipindex>
					</link>
					<itemhistory>
						<uuid>4BBE59E6-40DE-463E-983B-28B7F173104E</uuid>
					</itemhistory>
				</clipitem>
				<clipitem id="DYR18047_01 3">
					<name>DYR18047_01</name>
					<duration>1523</duration>
					<rate>
						<ntsc>FALSE</ntsc>
						<timebase>25</timebase>
					</rate>
					<in>487</in>
					<out>523</out>
					<start>5049</start>
					<end>5085</end>
					<subframeoffset>0</subframeoffset>
					<masterclipid>DYR18047_01 1</masterclipid>
					<logginginfo>
						<scene/>
						<shottake/>
						<lognote/>
						<good>FALSE</good>
					</logginginfo>
					<labels>
						<label2/>
					</labels>
					<comments>
						<mastercomment1/>
						<mastercomment2/>
						<mastercomment3/>
						<mastercomment4/>
					</comments>
					<file id="DYR18047_01 2"/>
					<filter>
						<effect>
							<name>Audio Levels</name>
							<effectid>audiolevels</effectid>
							<effectcategory>audiolevels</effectcategory>
							<effecttype>audiolevels</effecttype>
							<mediatype>audio</mediatype>
							<parameter>
								<name>Level</name>
								<parameterid>level</parameterid>
								<valuemin>0</valuemin>
								<valuemax>3.98109</valuemax>
								<value>0.630957</value>
							</parameter>
						</effect>
					</filter>
					<filter>
						<effect>
							<name>Audio Pan</name>
							<effectid>audiopan</effectid>
							<effectcategory>audiopan</effectcategory>
							<effecttype>audiopan</effecttype>
							<mediatype>audio</mediatype>
							<parameter>
								<name>Pan</name>
								<parameterid>pan</parameterid>
								<valuemin>-1</valuemin>
								<valuemax>1</valuemax>
								<value>0</value>
							</parameter>
						</effect>
					</filter>
					<sourcetrack>
						<mediatype>audio</mediatype>
						<trackindex>1</trackindex>
					</sourcetrack>
					<link>
						<linkclipref>DYR18047_01 </linkclipref>
						<mediatype>video</mediatype>
						<trackindex>1</trackindex>
						<clipindex>41</clipindex>
					</link>
					<link>
						<linkclipref>DYR18047_01 3</linkclipref>
						<mediatype>audio</mediatype>
						<trackindex>1</trackindex>
						<clipindex>37</clipindex>
					</link>
					<link>
						<linkclipref>DYR18047_01 4</linkclipref>
						<mediatype>audio</mediatype>
						<trackindex>2</trackindex>
						<clipindex>37</clipindex>
					</link>
					<itemhistory>
						<uuid>940023DB-EB62-4ADB-8BE3-CE0FD567E2CF</uuid>
					</itemhistory>
				</clipitem>
				<clipitem id="DYR18047_01 6">
					<name>DYR18047_01</name>
					<duration>1523</duration>
					<rate>
						<ntsc>FALSE</ntsc>
						<timebase>25</timebase>
					</rate>
					<in>286</in>
					<out>323</out>
					<start>5086</start>
					<end>5123</end>
					<subframeoffset>0</subframeoffset>
					<enabled>TRUE</enabled>
					<masterclipid>DYR18047_01 1</masterclipid>
					<logginginfo>
						<scene/>
						<shottake/>
						<lognote/>
						<good>FALSE</good>
					</logginginfo>
					<labels>
						<label2/>
					</labels>
					<comments>
						<mastercomment1/>
						<mastercomment2/>
						<mastercomment3/>
						<mastercomment4/>
					</comments>
					<file id="DYR18047_01 2"/>
					<filter>
						<effect>
							<name>Audio Levels</name>
							<effectid>audiolevels</effectid>
							<effectcategory>audiolevels</effectcategory>
							<effecttype>audiolevels</effecttype>
							<mediatype>audio</mediatype>
							<parameter>
								<name>Level</name>
								<parameterid>level</parameterid>
								<valuemin>0</valuemin>
								<valuemax>3.98109</valuemax>
								<value>0</value>
							</parameter>
						</effect>
					</filter>
					<filter>
						<effect>
							<name>Audio Pan</name>
							<effectid>audiopan</effectid>
							<effectcategory>audiopan</effectcategory>
							<effecttype>audiopan</effecttype>
							<mediatype>audio</mediatype>
							<parameter>
								<name>Pan</name>
								<parameterid>pan</parameterid>
								<valuemin>-1</valuemin>
								<valuemax>1</valuemax>
								<value>0</value>
							</parameter>
						</effect>
					</filter>
					<sourcetrack>
						<mediatype>audio</mediatype>
						<trackindex>1</trackindex>
					</sourcetrack>
					<link>
						<linkclipref>DYR18047_01 5</linkclipref>
						<mediatype>video</mediatype>
						<trackindex>1</trackindex>
						<clipindex>42</clipindex>
					</link>
					<link>
						<linkclipref>DYR18047_01 6</linkclipref>
						<mediatype>audio</mediatype>
						<trackindex>1</trackindex>
						<clipindex>38</clipindex>
					</link>
					<link>
						<linkclipref>DYR18047_01 7</linkclipref>
						<mediatype>audio</mediatype>
						<trackindex>2</trackindex>
						<clipindex>38</clipindex>
					</link>
					<itemhistory>
						<uuid>D5C45292-4B31-4072-8511-200EFCB0843C</uuid>
					</itemhistory>
				</clipitem>
				<clipitem id="DYR18047_01 9">
					<name>DYR18047_01</name>
					<duration>1523</duration>
					<rate>
						<ntsc>FALSE</ntsc>
						<timebase>25</timebase>
					</rate>
					<in>1284</in>
					<out>1347</out>
					<start>5123</start>
					<end>5186</end>
					<subframeoffset>0</subframeoffset>
					<enabled>TRUE</enabled>
					<masterclipid>DYR18047_01 1</masterclipid>
					<logginginfo>
						<scene/>
						<shottake/>
						<lognote/>
						<good>FALSE</good>
					</logginginfo>
					<labels>
						<label2/>
					</labels>
					<comments>
						<mastercomment1/>
						<mastercomment2/>
						<mastercomment3/>
						<mastercomment4/>
					</comments>
					<file id="DYR18047_01 2"/>
					<filter>
						<effect>
							<name>Audio Levels</name>
							<effectid>audiolevels</effectid>
							<effectcategory>audiolevels</effectcategory>
							<effecttype>audiolevels</effecttype>
							<mediatype>audio</mediatype>
							<parameter>
								<name>Level</name>
								<parameterid>level</parameterid>
								<valuemin>0</valuemin>
								<valuemax>3.98109</valuemax>
								<value>1</value>
							</parameter>
						</effect>
					</filter>
					<filter>
						<effect>
							<name>Audio Pan</name>
							<effectid>audiopan</effectid>
							<effectcategory>audiopan</effectcategory>
							<effecttype>audiopan</effecttype>
							<mediatype>audio</mediatype>
							<parameter>
								<name>Pan</name>
								<parameterid>pan</parameterid>
								<valuemin>-1</valuemin>
								<valuemax>1</valuemax>
								<value>0</value>
							</parameter>
						</effect>
					</filter>
					<sourcetrack>
						<mediatype>audio</mediatype>
						<trackindex>1</trackindex>
					</sourcetrack>
					<link>
						<linkclipref>DYR18047_01 8</linkclipref>
						<mediatype>video</mediatype>
						<trackindex>1</trackindex>
						<clipindex>43</clipindex>
					</link>
					<link>
						<linkclipref>DYR18047_01 9</linkclipref>
						<mediatype>audio</mediatype>
						<trackindex>1</trackindex>
						<clipindex>39</clipindex>
					</link>
					<link>
						<linkclipref>DYR18047_01 10</linkclipref>
						<mediatype>audio</mediatype>
						<trackindex>2</trackindex>
						<clipindex>39</clipindex>
					</link>
					<itemhistory>
						<uuid>F21BC129-789A-4217-B78A-DB8B4E710C4F</uuid>
					</itemhistory>
				</clipitem>
				<clipitem id="DYR18050_01 3">
					<name>DYR18050_01</name>
					<duration>482</duration>
					<rate>
						<ntsc>FALSE</ntsc>
						<timebase>25</timebase>
					</rate>
					<in>212</in>
					<out>272</out>
					<start>5186</start>
					<end>5246</end>
					<subframeoffset>0</subframeoffset>
					<enabled>TRUE</enabled>
					<masterclipid>DYR18050_01 1</masterclipid>
					<logginginfo>
						<scene/>
						<shottake/>
						<lognote/>
						<good>FALSE</good>
					</logginginfo>
					<labels>
						<label2/>
					</labels>
					<comments>
						<mastercomment1/>
						<mastercomment2/>
						<mastercomment3/>
						<mastercomment4/>
					</comments>
					<file id="DYR18050_01 2"/>
					<filter>
						<effect>
							<name>Audio Levels</name>
							<effectid>audiolevels</effectid>
							<effectcategory>audiolevels</effectcategory>
							<effecttype>audiolevels</effecttype>
							<mediatype>audio</mediatype>
							<parameter>
								<name>Level</name>
								<parameterid>level</parameterid>
								<valuemin>0</valuemin>
								<valuemax>3.98109</valuemax>
								<value>1</value>
							</parameter>
						</effect>
					</filter>
					<filter>
						<effect>
							<name>Audio Pan</name>
							<effectid>audiopan</effectid>
							<effectcategory>audiopan</effectcategory>
							<effecttype>audiopan</effecttype>
							<mediatype>audio</mediatype>
							<parameter>
								<name>Pan</name>
								<parameterid>pan</parameterid>
								<valuemin>-1</valuemin>
								<valuemax>1</valuemax>
								<value>0</value>
							</parameter>
						</effect>
					</filter>
					<sourcetrack>
						<mediatype>audio</mediatype>
						<trackindex>1</trackindex>
					</sourcetrack>
					<link>
						<linkclipref>DYR18050_01 </linkclipref>
						<mediatype>video</mediatype>
						<trackindex>1</trackindex>
						<clipindex>44</clipindex>
					</link>
					<link>
						<linkclipref>DYR18050_01 3</linkclipref>
						<mediatype>audio</mediatype>
						<trackindex>1</trackindex>
						<clipindex>40</clipindex>
					</link>
					<link>
						<linkclipref>DYR18050_01 4</linkclipref>
						<mediatype>audio</mediatype>
						<trackindex>2</trackindex>
						<clipindex>40</clipindex>
					</link>
					<itemhistory>
						<uuid>CD9377C3-4CF9-45EF-8478-78837E502B11</uuid>
					</itemhistory>
				</clipitem>
				<clipitem id="DYR18044_01 3">
					<name>DYR18044_01</name>
					<duration>941</duration>
					<rate>
						<ntsc>FALSE</ntsc>
						<timebase>25</timebase>
					</rate>
					<in>126</in>
					<out>179</out>
					<start>5246</start>
					<end>5299</end>
					<subframeoffset>0</subframeoffset>
					<masterclipid>DYR18044_01 1</masterclipid>
					<logginginfo>
						<scene/>
						<shottake/>
						<lognote/>
						<good>FALSE</good>
					</logginginfo>
					<labels>
						<label2/>
					</labels>
					<comments>
						<mastercomment1/>
						<mastercomment2/>
						<mastercomment3/>
						<mastercomment4/>
					</comments>
					<file id="DYR18044_01 2"/>
					<filter>
						<effect>
							<name>Audio Levels</name>
							<effectid>audiolevels</effectid>
							<effectcategory>audiolevels</effectcategory>
							<effecttype>audiolevels</effecttype>
							<mediatype>audio</mediatype>
							<parameter>
								<name>Level</name>
								<parameterid>level</parameterid>
								<valuemin>0</valuemin>
								<valuemax>3.98109</valuemax>
								<value>1</value>
							</parameter>
						</effect>
					</filter>
					<filter>
						<effect>
							<name>Audio Pan</name>
							<effectid>audiopan</effectid>
							<effectcategory>audiopan</effectcategory>
							<effecttype>audiopan</effecttype>
							<mediatype>audio</mediatype>
							<parameter>
								<name>Pan</name>
								<parameterid>pan</parameterid>
								<valuemin>-1</valuemin>
								<valuemax>1</valuemax>
								<value>0</value>
							</parameter>
						</effect>
					</filter>
					<sourcetrack>
						<mediatype>audio</mediatype>
						<trackindex>1</trackindex>
					</sourcetrack>
					<link>
						<linkclipref>DYR18044_01 </linkclipref>
						<mediatype>video</mediatype>
						<trackindex>1</trackindex>
						<clipindex>45</clipindex>
					</link>
					<link>
						<linkclipref>DYR18044_01 3</linkclipref>
						<mediatype>audio</mediatype>
						<trackindex>1</trackindex>
						<clipindex>41</clipindex>
					</link>
					<link>
						<linkclipref>DYR18044_01 4</linkclipref>
						<mediatype>audio</mediatype>
						<trackindex>2</trackindex>
						<clipindex>41</clipindex>
					</link>
					<itemhistory>
						<uuid>69771A8D-E85F-4797-B518-3402ABF162DE</uuid>
					</itemhistory>
				</clipitem>
				<clipitem id="DYR18067_01 3">
					<name>DYR18067_01</name>
					<duration>254</duration>
					<rate>
						<ntsc>FALSE</ntsc>
						<timebase>25</timebase>
					</rate>
					<in>151</in>
					<out>188</out>
					<start>5299</start>
					<end>5336</end>
					<subframeoffset>0</subframeoffset>
					<masterclipid>DYR18067_01 1</masterclipid>
					<logginginfo>
						<scene/>
						<shottake/>
						<lognote/>
						<good>FALSE</good>
					</logginginfo>
					<labels>
						<label2/>
					</labels>
					<comments>
						<mastercomment1/>
						<mastercomment2/>
						<mastercomment3/>
						<mastercomment4/>
					</comments>
					<file id="DYR18067_01 2"/>
					<filter>
						<effect>
							<name>Audio Levels</name>
							<effectid>audiolevels</effectid>
							<effectcategory>audiolevels</effectcategory>
							<effecttype>audiolevels</effecttype>
							<mediatype>audio</mediatype>
							<parameter>
								<name>Level</name>
								<parameterid>level</parameterid>
								<valuemin>0</valuemin>
								<valuemax>3.98109</valuemax>
								<value>0.251189</value>
							</parameter>
						</effect>
					</filter>
					<filter>
						<effect>
							<name>Audio Pan</name>
							<effectid>audiopan</effectid>
							<effectcategory>audiopan</effectcategory>
							<effecttype>audiopan</effecttype>
							<mediatype>audio</mediatype>
							<parameter>
								<name>Pan</name>
								<parameterid>pan</parameterid>
								<valuemin>-1</valuemin>
								<valuemax>1</valuemax>
								<value>0</value>
							</parameter>
						</effect>
					</filter>
					<sourcetrack>
						<mediatype>audio</mediatype>
						<trackindex>1</trackindex>
					</sourcetrack>
					<link>
						<linkclipref>DYR18067_01 </linkclipref>
						<mediatype>video</mediatype>
						<trackindex>1</trackindex>
						<clipindex>46</clipindex>
					</link>
					<link>
						<linkclipref>DYR18067_01 3</linkclipref>
						<mediatype>audio</mediatype>
						<trackindex>1</trackindex>
						<clipindex>42</clipindex>
					</link>
					<link>
						<linkclipref>DYR18067_01 4</linkclipref>
						<mediatype>audio</mediatype>
						<trackindex>2</trackindex>
						<clipindex>42</clipindex>
					</link>
					<itemhistory>
						<uuid>4629FFD4-4345-4404-8914-6DB48BC58EAE</uuid>
					</itemhistory>
				</clipitem>
				<clipitem id="DYR18070_01 3">
					<name>DYR18070_01</name>
					<duration>508</duration>
					<rate>
						<ntsc>FALSE</ntsc>
						<timebase>25</timebase>
					</rate>
					<in>305</in>
					<out>364</out>
					<start>5336</start>
					<end>5395</end>
					<subframeoffset>0</subframeoffset>
					<masterclipid>DYR18070_01 1</masterclipid>
					<logginginfo>
						<scene/>
						<shottake/>
						<lognote/>
						<good>FALSE</good>
					</logginginfo>
					<labels>
						<label2/>
					</labels>
					<comments>
						<mastercomment1/>
						<mastercomment2/>
						<mastercomment3/>
						<mastercomment4/>
					</comments>
					<file id="DYR18070_01 2"/>
					<filter>
						<effect>
							<name>Audio Levels</name>
							<effectid>audiolevels</effectid>
							<effectcategory>audiolevels</effectcategory>
							<effecttype>audiolevels</effecttype>
							<mediatype>audio</mediatype>
							<parameter>
								<name>Level</name>
								<parameterid>level</parameterid>
								<valuemin>0</valuemin>
								<valuemax>3.98109</valuemax>
								<value>1.99526</value>
							</parameter>
						</effect>
					</filter>
					<filter>
						<effect>
							<name>Audio Pan</name>
							<effectid>audiopan</effectid>
							<effectcategory>audiopan</effectcategory>
							<effecttype>audiopan</effecttype>
							<mediatype>audio</mediatype>
							<parameter>
								<name>Pan</name>
								<parameterid>pan</parameterid>
								<valuemin>-1</valuemin>
								<valuemax>1</valuemax>
								<value>0</value>
							</parameter>
						</effect>
					</filter>
					<sourcetrack>
						<mediatype>audio</mediatype>
						<trackindex>1</trackindex>
					</sourcetrack>
					<link>
						<linkclipref>DYR18070_01 </linkclipref>
						<mediatype>video</mediatype>
						<trackindex>1</trackindex>
						<clipindex>47</clipindex>
					</link>
					<link>
						<linkclipref>DYR18070_01 3</linkclipref>
						<mediatype>audio</mediatype>
						<trackindex>1</trackindex>
						<clipindex>43</clipindex>
					</link>
					<link>
						<linkclipref>DYR18070_01 4</linkclipref>
						<mediatype>audio</mediatype>
						<trackindex>2</trackindex>
						<clipindex>43</clipindex>
					</link>
					<itemhistory>
						<uuid>E36A9E55-6601-4292-8096-8B6D79F5619A</uuid>
					</itemhistory>
				</clipitem>
				<clipitem id="DYR18069_01 3">
					<name>DYR18069_01</name>
					<duration>194</duration>
					<rate>
						<ntsc>FALSE</ntsc>
						<timebase>25</timebase>
					</rate>
					<in>72</in>
					<out>140</out>
					<start>5395</start>
					<end>5463</end>
					<subframeoffset>0</subframeoffset>
					<masterclipid>DYR18069_01 1</masterclipid>
					<logginginfo>
						<scene/>
						<shottake/>
						<lognote/>
						<good>FALSE</good>
					</logginginfo>
					<labels>
						<label2/>
					</labels>
					<comments>
						<mastercomment1/>
						<mastercomment2/>
						<mastercomment3/>
						<mastercomment4/>
					</comments>
					<file id="DYR18069_01 2"/>
					<filter>
						<effect>
							<name>Audio Levels</name>
							<effectid>audiolevels</effectid>
							<effectcategory>audiolevels</effectcategory>
							<effecttype>audiolevels</effecttype>
							<mediatype>audio</mediatype>
							<parameter>
								<name>Level</name>
								<parameterid>level</parameterid>
								<valuemin>0</valuemin>
								<valuemax>3.98109</valuemax>
								<value>1</value>
							</parameter>
						</effect>
					</filter>
					<filter>
						<effect>
							<name>Audio Pan</name>
							<effectid>audiopan</effectid>
							<effectcategory>audiopan</effectcategory>
							<effecttype>audiopan</effecttype>
							<mediatype>audio</mediatype>
							<parameter>
								<name>Pan</name>
								<parameterid>pan</parameterid>
								<valuemin>-1</valuemin>
								<valuemax>1</valuemax>
								<value>0</value>
							</parameter>
						</effect>
					</filter>
					<sourcetrack>
						<mediatype>audio</mediatype>
						<trackindex>1</trackindex>
					</sourcetrack>
					<link>
						<linkclipref>DYR18069_01 </linkclipref>
						<mediatype>video</mediatype>
						<trackindex>1</trackindex>
						<clipindex>48</clipindex>
					</link>
					<link>
						<linkclipref>DYR18069_01 3</linkclipref>
						<mediatype>audio</mediatype>
						<trackindex>1</trackindex>
						<clipindex>44</clipindex>
					</link>
					<link>
						<linkclipref>DYR18069_01 4</linkclipref>
						<mediatype>audio</mediatype>
						<trackindex>2</trackindex>
						<clipindex>44</clipindex>
					</link>
					<itemhistory>
						<uuid>FCB3FD19-1B82-4706-954C-480C47EA3611</uuid>
					</itemhistory>
				</clipitem>
				<clipitem id="DYR18068_01 3">
					<name>DYR18068_01</name>
					<duration>407</duration>
					<rate>
						<ntsc>FALSE</ntsc>
						<timebase>25</timebase>
					</rate>
					<in>175</in>
					<out>249</out>
					<start>5463</start>
					<end>5537</end>
					<subframeoffset>0</subframeoffset>
					<enabled>TRUE</enabled>
					<masterclipid>DYR18068_01 1</masterclipid>
					<logginginfo>
						<scene/>
						<shottake/>
						<lognote/>
						<good>FALSE</good>
					</logginginfo>
					<labels>
						<label2/>
					</labels>
					<comments>
						<mastercomment1/>
						<mastercomment2/>
						<mastercomment3/>
						<mastercomment4/>
					</comments>
					<file id="DYR18068_01 2"/>
					<filter>
						<effect>
							<name>Audio Levels</name>
							<effectid>audiolevels</effectid>
							<effectcategory>audiolevels</effectcategory>
							<effecttype>audiolevels</effecttype>
							<mediatype>audio</mediatype>
							<parameter>
								<name>Level</name>
								<parameterid>level</parameterid>
								<valuemin>0</valuemin>
								<valuemax>3.98109</valuemax>
								<value>2.81838</value>
							</parameter>
						</effect>
					</filter>
					<filter>
						<effect>
							<name>Audio Pan</name>
							<effectid>audiopan</effectid>
							<effectcategory>audiopan</effectcategory>
							<effecttype>audiopan</effecttype>
							<mediatype>audio</mediatype>
							<parameter>
								<name>Pan</name>
								<parameterid>pan</parameterid>
								<valuemin>-1</valuemin>
								<valuemax>1</valuemax>
								<value>0</value>
							</parameter>
						</effect>
					</filter>
					<sourcetrack>
						<mediatype>audio</mediatype>
						<trackindex>1</trackindex>
					</sourcetrack>
					<link>
						<linkclipref>DYR18068_01 </linkclipref>
						<mediatype>video</mediatype>
						<trackindex>1</trackindex>
						<clipindex>49</clipindex>
					</link>
					<link>
						<linkclipref>DYR18068_01 3</linkclipref>
						<mediatype>audio</mediatype>
						<trackindex>1</trackindex>
						<clipindex>45</clipindex>
					</link>
					<link>
						<linkclipref>DYR18068_01 4</linkclipref>
						<mediatype>audio</mediatype>
						<trackindex>2</trackindex>
						<clipindex>45</clipindex>
					</link>
					<itemhistory>
						<uuid>BE1530E9-2EB1-4D97-925F-7B6CD6388A44</uuid>
					</itemhistory>
				</clipitem>
				<clipitem id="DYR18091_01 plukke mose5">
					<name>DYR18091_01 plukke mose</name>
					<duration>935</duration>
					<rate>
						<ntsc>FALSE</ntsc>
						<timebase>25</timebase>
					</rate>
					<in>265</in>
					<out>380</out>
					<start>5537</start>
					<end>5652</end>
					<subframeoffset>0</subframeoffset>
					<masterclipid>DYR18091_01 plukke mose1</masterclipid>
					<logginginfo>
						<scene/>
						<shottake/>
						<lognote/>
						<good>FALSE</good>
					</logginginfo>
					<labels>
						<label2/>
					</labels>
					<comments>
						<mastercomment1/>
						<mastercomment2/>
						<mastercomment3/>
						<mastercomment4/>
					</comments>
					<file id="DYR18091_01 "/>
					<filter>
						<effect>
							<name>Audio Levels</name>
							<effectid>audiolevels</effectid>
							<effectcategory>audiolevels</effectcategory>
							<effecttype>audiolevels</effecttype>
							<mediatype>audio</mediatype>
							<parameter>
								<name>Level</name>
								<parameterid>level</parameterid>
								<valuemin>0</valuemin>
								<valuemax>3.98109</valuemax>
								<value>1</value>
							</parameter>
						</effect>
					</filter>
					<filter>
						<effect>
							<name>Audio Pan</name>
							<effectid>audiopan</effectid>
							<effectcategory>audiopan</effectcategory>
							<effecttype>audiopan</effecttype>
							<mediatype>audio</mediatype>
							<parameter>
								<name>Pan</name>
								<parameterid>pan</parameterid>
								<valuemin>-1</valuemin>
								<valuemax>1</valuemax>
								<value>0</value>
							</parameter>
						</effect>
					</filter>
					<sourcetrack>
						<mediatype>audio</mediatype>
						<trackindex>1</trackindex>
					</sourcetrack>
					<link>
						<linkclipref>DYR18091_01 plukke mose4</linkclipref>
						<mediatype>video</mediatype>
						<trackindex>1</trackindex>
						<clipindex>50</clipindex>
					</link>
					<link>
						<linkclipref>DYR18091_01 plukke mose5</linkclipref>
						<mediatype>audio</mediatype>
						<trackindex>1</trackindex>
						<clipindex>46</clipindex>
					</link>
					<link>
						<linkclipref>DYR18091_01 plukke mose6</linkclipref>
						<mediatype>audio</mediatype>
						<trackindex>2</trackindex>
						<clipindex>46</clipindex>
					</link>
					<itemhistory>
						<uuid>AE41F090-4A6D-4224-ABF5-CCF23F142943</uuid>
						<uuid>110B6CCE-F75D-431E-8872-2D016174F68E</uuid>
					</itemhistory>
				</clipitem>
				<clipitem id="DYR18089_01 plukke subjektivt2">
					<name>DYR18089_01 plukke subjektivt</name>
					<duration>626</duration>
					<rate>
						<ntsc>FALSE</ntsc>
						<timebase>25</timebase>
					</rate>
					<in>180</in>
					<out>326</out>
					<start>5652</start>
					<end>5798</end>
					<subframeoffset>0</subframeoffset>
					<masterclipid>DYR18089_01 plukke subjektivt1</masterclipid>
					<logginginfo>
						<scene/>
						<shottake/>
						<lognote/>
						<good>FALSE</good>
					</logginginfo>
					<labels>
						<label2/>
					</labels>
					<comments>
						<mastercomment1/>
						<mastercomment2/>
						<mastercomment3/>
						<mastercomment4/>
					</comments>
					<file id="DYR18089_01 "/>
					<filter>
						<effect>
							<name>Audio Levels</name>
							<effectid>audiolevels</effectid>
							<effectcategory>audiolevels</effectcategory>
							<effecttype>audiolevels</effecttype>
							<mediatype>audio</mediatype>
							<parameter>
								<name>Level</name>
								<parameterid>level</parameterid>
								<valuemin>0</valuemin>
								<valuemax>3.98109</valuemax>
								<value>1</value>
							</parameter>
						</effect>
					</filter>
					<filter>
						<effect>
							<name>Audio Pan</name>
							<effectid>audiopan</effectid>
							<effectcategory>audiopan</effectcategory>
							<effecttype>audiopan</effecttype>
							<mediatype>audio</mediatype>
							<parameter>
								<name>Pan</name>
								<parameterid>pan</parameterid>
								<valuemin>-1</valuemin>
								<valuemax>1</valuemax>
								<value>0</value>
							</parameter>
						</effect>
					</filter>
					<sourcetrack>
						<mediatype>audio</mediatype>
						<trackindex>1</trackindex>
					</sourcetrack>
					<link>
						<linkclipref>DYR18089_01 plukke subjektivt</linkclipref>
						<mediatype>video</mediatype>
						<trackindex>1</trackindex>
						<clipindex>51</clipindex>
					</link>
					<link>
						<linkclipref>DYR18089_01 plukke subjektivt2</linkclipref>
						<mediatype>audio</mediatype>
						<trackindex>1</trackindex>
						<clipindex>47</clipindex>
					</link>
					<link>
						<linkclipref>DYR18089_01 plukke subjektivt3</linkclipref>
						<mediatype>audio</mediatype>
						<trackindex>2</trackindex>
						<clipindex>47</clipindex>
					</link>
					<itemhistory>
						<uuid>F52AE68B-3F15-42CB-B4BD-0BB5D522D4B3</uuid>
					</itemhistory>
				</clipitem>
				<clipitem id="DYR18073_01 3">
					<name>DYR18073_01</name>
					<duration>612</duration>
					<rate>
						<ntsc>FALSE</ntsc>
						<timebase>25</timebase>
					</rate>
					<in>167</in>
					<out>216</out>
					<start>5798</start>
					<end>5847</end>
					<subframeoffset>0</subframeoffset>
					<masterclipid>DYR18073_01 1</masterclipid>
					<logginginfo>
						<scene/>
						<shottake/>
						<lognote/>
						<good>FALSE</good>
					</logginginfo>
					<labels>
						<label2/>
					</labels>
					<comments>
						<mastercomment1/>
						<mastercomment2/>
						<mastercomment3/>
						<mastercomment4/>
					</comments>
					<file id="DYR18073_01 2"/>
					<filter>
						<effect>
							<name>Audio Levels</name>
							<effectid>audiolevels</effectid>
							<effectcategory>audiolevels</effectcategory>
							<effecttype>audiolevels</effecttype>
							<mediatype>audio</mediatype>
							<parameter>
								<name>Level</name>
								<parameterid>level</parameterid>
								<valuemin>0</valuemin>
								<valuemax>3.98109</valuemax>
								<value>1</value>
							</parameter>
						</effect>
					</filter>
					<filter>
						<effect>
							<name>Audio Pan</name>
							<effectid>audiopan</effectid>
							<effectcategory>audiopan</effectcategory>
							<effecttype>audiopan</effecttype>
							<mediatype>audio</mediatype>
							<parameter>
								<name>Pan</name>
								<parameterid>pan</parameterid>
								<valuemin>-1</valuemin>
								<valuemax>1</valuemax>
								<value>0</value>
							</parameter>
						</effect>
					</filter>
					<sourcetrack>
						<mediatype>audio</mediatype>
						<trackindex>1</trackindex>
					</sourcetrack>
					<link>
						<linkclipref>DYR18073_01 </linkclipref>
						<mediatype>video</mediatype>
						<trackindex>1</trackindex>
						<clipindex>52</clipindex>
					</link>
					<link>
						<linkclipref>DYR18073_01 3</linkclipref>
						<mediatype>audio</mediatype>
						<trackindex>1</trackindex>
						<clipindex>48</clipindex>
					</link>
					<link>
						<linkclipref>DYR18073_01 4</linkclipref>
						<mediatype>audio</mediatype>
						<trackindex>2</trackindex>
						<clipindex>48</clipindex>
					</link>
					<itemhistory>
						<uuid>0DC7B267-761E-495D-BD2E-B06582449BB8</uuid>
					</itemhistory>
				</clipitem>
				<clipitem id="DYR18077_01 3">
					<name>DYR18077_01</name>
					<duration>650</duration>
					<rate>
						<ntsc>FALSE</ntsc>
						<timebase>25</timebase>
					</rate>
					<in>368</in>
					<out>450</out>
					<start>5847</start>
					<end>5929</end>
					<subframeoffset>0</subframeoffset>
					<masterclipid>DYR18077_01 1</masterclipid>
					<logginginfo>
						<scene/>
						<shottake/>
						<lognote/>
						<good>FALSE</good>
					</logginginfo>
					<labels>
						<label2/>
					</labels>
					<comments>
						<mastercomment1/>
						<mastercomment2/>
						<mastercomment3/>
						<mastercomment4/>
					</comments>
					<file id="DYR18077_01 2"/>
					<filter>
						<effect>
							<name>Audio Levels</name>
							<effectid>audiolevels</effectid>
							<effectcategory>audiolevels</effectcategory>
							<effecttype>audiolevels</effecttype>
							<mediatype>audio</mediatype>
							<parameter>
								<name>Level</name>
								<parameterid>level</parameterid>
								<valuemin>0</valuemin>
								<valuemax>3.98109</valuemax>
								<value>1</value>
							</parameter>
						</effect>
					</filter>
					<filter>
						<effect>
							<name>Audio Pan</name>
							<effectid>audiopan</effectid>
							<effectcategory>audiopan</effectcategory>
							<effecttype>audiopan</effecttype>
							<mediatype>audio</mediatype>
							<parameter>
								<name>Pan</name>
								<parameterid>pan</parameterid>
								<valuemin>-1</valuemin>
								<valuemax>1</valuemax>
								<value>0</value>
							</parameter>
						</effect>
					</filter>
					<sourcetrack>
						<mediatype>audio</mediatype>
						<trackindex>1</trackindex>
					</sourcetrack>
					<link>
						<linkclipref>DYR18077_01 </linkclipref>
						<mediatype>video</mediatype>
						<trackindex>1</trackindex>
						<clipindex>53</clipindex>
					</link>
					<link>
						<linkclipref>DYR18077_01 3</linkclipref>
						<mediatype>audio</mediatype>
						<trackindex>1</trackindex>
						<clipindex>49</clipindex>
					</link>
					<link>
						<linkclipref>DYR18077_01 4</linkclipref>
						<mediatype>audio</mediatype>
						<trackindex>2</trackindex>
						<clipindex>49</clipindex>
					</link>
					<itemhistory>
						<uuid>1634D5C5-AD0E-4510-9F81-0D618382526C</uuid>
					</itemhistory>
				</clipitem>
				<clipitem id="DYR18079_01 3">
					<name>DYR18079_01</name>
					<duration>656</duration>
					<rate>
						<ntsc>FALSE</ntsc>
						<timebase>25</timebase>
					</rate>
					<in>452</in>
					<out>513</out>
					<start>5929</start>
					<end>5990</end>
					<subframeoffset>0</subframeoffset>
					<masterclipid>DYR18079_01 1</masterclipid>
					<logginginfo>
						<scene/>
						<shottake/>
						<lognote/>
						<good>FALSE</good>
					</logginginfo>
					<labels>
						<label2/>
					</labels>
					<comments>
						<mastercomment1/>
						<mastercomment2/>
						<mastercomment3/>
						<mastercomment4/>
					</comments>
					<file id="DYR18079_01 2"/>
					<filter>
						<effect>
							<name>Audio Levels</name>
							<effectid>audiolevels</effectid>
							<effectcategory>audiolevels</effectcategory>
							<effecttype>audiolevels</effecttype>
							<mediatype>audio</mediatype>
							<parameter>
								<name>Level</name>
								<parameterid>level</parameterid>
								<valuemin>0</valuemin>
								<valuemax>3.98109</valuemax>
								<value>2.23872</value>
							</parameter>
						</effect>
					</filter>
					<filter>
						<effect>
							<name>Audio Pan</name>
							<effectid>audiopan</effectid>
							<effectcategory>audiopan</effectcategory>
							<effecttype>audiopan</effecttype>
							<mediatype>audio</mediatype>
							<parameter>
								<name>Pan</name>
								<parameterid>pan</parameterid>
								<valuemin>-1</valuemin>
								<valuemax>1</valuemax>
								<value>0</value>
							</parameter>
						</effect>
					</filter>
					<sourcetrack>
						<mediatype>audio</mediatype>
						<trackindex>1</trackindex>
					</sourcetrack>
					<link>
						<linkclipref>DYR18079_01 </linkclipref>
						<mediatype>video</mediatype>
						<trackindex>1</trackindex>
						<clipindex>54</clipindex>
					</link>
					<link>
						<linkclipref>DYR18079_01 3</linkclipref>
						<mediatype>audio</mediatype>
						<trackindex>1</trackindex>
						<clipindex>50</clipindex>
					</link>
					<link>
						<linkclipref>DYR18079_01 4</linkclipref>
						<mediatype>audio</mediatype>
						<trackindex>2</trackindex>
						<clipindex>50</clipindex>
					</link>
					<itemhistory>
						<uuid>5D790C04-9877-4FCA-B5BD-46B37EA5E42F</uuid>
					</itemhistory>
				</clipitem>
				<clipitem id="DYR18079_01 5">
					<name>DYR18079_01</name>
					<duration>656</duration>
					<rate>
						<ntsc>FALSE</ntsc>
						<timebase>25</timebase>
					</rate>
					<in>584</in>
					<out>614</out>
					<start>5994</start>
					<end>6024</end>
					<subframeoffset>0</subframeoffset>
					<masterclipid>DYR18079_01 1</masterclipid>
					<logginginfo>
						<scene/>
						<shottake/>
						<lognote/>
						<good>FALSE</good>
					</logginginfo>
					<labels>
						<label2/>
					</labels>
					<comments>
						<mastercomment1/>
						<mastercomment2/>
						<mastercomment3/>
						<mastercomment4/>
					</comments>
					<file id="DYR18079_01 2"/>
					<filter>
						<effect>
							<name>Audio Levels</name>
							<effectid>audiolevels</effectid>
							<effectcategory>audiolevels</effectcategory>
							<effecttype>audiolevels</effecttype>
							<mediatype>audio</mediatype>
							<parameter>
								<name>Level</name>
								<parameterid>level</parameterid>
								<valuemin>0</valuemin>
								<valuemax>3.98109</valuemax>
								<value>1</value>
							</parameter>
						</effect>
					</filter>
					<filter>
						<effect>
							<name>Audio Pan</name>
							<effectid>audiopan</effectid>
							<effectcategory>audiopan</effectcategory>
							<effecttype>audiopan</effecttype>
							<mediatype>audio</mediatype>
							<parameter>
								<name>Pan</name>
								<parameterid>pan</parameterid>
								<valuemin>-1</valuemin>
								<valuemax>1</valuemax>
								<value>0</value>
							</parameter>
						</effect>
					</filter>
					<sourcetrack>
						<mediatype>audio</mediatype>
						<trackindex>1</trackindex>
					</sourcetrack>
					<link>
						<linkclipref>DYR18079_01 5</linkclipref>
						<mediatype>audio</mediatype>
						<trackindex>1</trackindex>
						<clipindex>51</clipindex>
					</link>
					<link>
						<linkclipref>DYR18079_01 6</linkclipref>
						<mediatype>audio</mediatype>
						<trackindex>2</trackindex>
						<clipindex>51</clipindex>
					</link>
					<itemhistory>
						<uuid>C023AF03-B384-4630-8DA5-E8D5A12ACD5D</uuid>
					</itemhistory>
				</clipitem>
				<clipitem id="DYR18094_01 3">
					<name>DYR18094_01</name>
					<duration>1238</duration>
					<rate>
						<ntsc>FALSE</ntsc>
						<timebase>25</timebase>
					</rate>
					<in>281</in>
					<out>548</out>
					<start>6035</start>
					<end>6302</end>
					<subframeoffset>0</subframeoffset>
					<masterclipid>DYR18094_01 1</masterclipid>
					<logginginfo>
						<scene/>
						<shottake/>
						<lognote/>
						<good>FALSE</good>
					</logginginfo>
					<labels>
						<label2/>
					</labels>
					<comments>
						<mastercomment1/>
						<mastercomment2/>
						<mastercomment3/>
						<mastercomment4/>
					</comments>
					<file id="DYR18094_01 2"/>
					<filter>
						<effect>
							<name>Audio Levels</name>
							<effectid>audiolevels</effectid>
							<effectcategory>audiolevels</effectcategory>
							<effecttype>audiolevels</effecttype>
							<mediatype>audio</mediatype>
							<parameter>
								<name>Level</name>
								<parameterid>level</parameterid>
								<valuemin>0</valuemin>
								<valuemax>3.98109</valuemax>
								<value>1</value>
							</parameter>
						</effect>
					</filter>
					<filter>
						<effect>
							<name>Audio Pan</name>
							<effectid>audiopan</effectid>
							<effectcategory>audiopan</effectcategory>
							<effecttype>audiopan</effecttype>
							<mediatype>audio</mediatype>
							<parameter>
								<name>Pan</name>
								<parameterid>pan</parameterid>
								<valuemin>-1</valuemin>
								<valuemax>1</valuemax>
								<value>0</value>
							</parameter>
						</effect>
					</filter>
					<sourcetrack>
						<mediatype>audio</mediatype>
						<trackindex>1</trackindex>
					</sourcetrack>
					<link>
						<linkclipref>DYR18094_01 </linkclipref>
						<mediatype>video</mediatype>
						<trackindex>1</trackindex>
						<clipindex>56</clipindex>
					</link>
					<link>
						<linkclipref>DYR18094_01 3</linkclipref>
						<mediatype>audio</mediatype>
						<trackindex>1</trackindex>
						<clipindex>52</clipindex>
					</link>
					<link>
						<linkclipref>DYR18094_01 4</linkclipref>
						<mediatype>audio</mediatype>
						<trackindex>2</trackindex>
						<clipindex>52</clipindex>
					</link>
					<itemhistory>
						<uuid>DAB09E81-44FA-48E3-8B1E-81ABB5CCEC50</uuid>
					</itemhistory>
				</clipitem>
				<clipitem id="DYR18095_01 3">
					<name>DYR18095_01</name>
					<duration>5990</duration>
					<rate>
						<ntsc>FALSE</ntsc>
						<timebase>25</timebase>
					</rate>
					<in>707</in>
					<out>786</out>
					<start>6302</start>
					<end>6381</end>
					<subframeoffset>0</subframeoffset>
					<masterclipid>DYR18095_01 1</masterclipid>
					<logginginfo>
						<scene/>
						<shottake/>
						<lognote/>
						<good>FALSE</good>
					</logginginfo>
					<labels>
						<label2/>
					</labels>
					<comments>
						<mastercomment1/>
						<mastercomment2/>
						<mastercomment3/>
						<mastercomment4/>
					</comments>
					<file id="DYR18095_01 2"/>
					<filter>
						<effect>
							<name>Audio Levels</name>
							<effectid>audiolevels</effectid>
							<effectcategory>audiolevels</effectcategory>
							<effecttype>audiolevels</effecttype>
							<mediatype>audio</mediatype>
							<parameter>
								<name>Level</name>
								<parameterid>level</parameterid>
								<valuemin>0</valuemin>
								<valuemax>3.98109</valuemax>
								<value>1</value>
							</parameter>
						</effect>
					</filter>
					<filter>
						<effect>
							<name>Audio Pan</name>
							<effectid>audiopan</effectid>
							<effectcategory>audiopan</effectcategory>
							<effecttype>audiopan</effecttype>
							<mediatype>audio</mediatype>
							<parameter>
								<name>Pan</name>
								<parameterid>pan</parameterid>
								<valuemin>-1</valuemin>
								<valuemax>1</valuemax>
								<value>0</value>
							</parameter>
						</effect>
					</filter>
					<sourcetrack>
						<mediatype>audio</mediatype>
						<trackindex>1</trackindex>
					</sourcetrack>
					<link>
						<linkclipref>DYR18095_01 </linkclipref>
						<mediatype>video</mediatype>
						<trackindex>1</trackindex>
						<clipindex>57</clipindex>
					</link>
					<link>
						<linkclipref>DYR18095_01 3</linkclipref>
						<mediatype>audio</mediatype>
						<trackindex>1</trackindex>
						<clipindex>53</clipindex>
					</link>
					<link>
						<linkclipref>DYR18095_01 4</linkclipref>
						<mediatype>audio</mediatype>
						<trackindex>2</trackindex>
						<clipindex>53</clipindex>
					</link>
					<itemhistory>
						<uuid>42B95481-39B5-465C-B96B-9B7912194EC5</uuid>
						<uuid>7AB41733-E24F-4501-BB12-2ED0E17BB723</uuid>
					</itemhistory>
				</clipitem>
				<clipitem id="DYR18097_01 3">
					<name>DYR18097_01</name>
					<duration>787</duration>
					<rate>
						<ntsc>FALSE</ntsc>
						<timebase>25</timebase>
					</rate>
					<in>277</in>
					<out>358</out>
					<start>6381</start>
					<end>6462</end>
					<subframeoffset>0</subframeoffset>
					<masterclipid>DYR18097_01 1</masterclipid>
					<logginginfo>
						<scene/>
						<shottake/>
						<lognote/>
						<good>FALSE</good>
					</logginginfo>
					<labels>
						<label2/>
					</labels>
					<comments>
						<mastercomment1/>
						<mastercomment2/>
						<mastercomment3/>
						<mastercomment4/>
					</comments>
					<file id="DYR18097_01 2"/>
					<filter>
						<effect>
							<name>Audio Levels</name>
							<effectid>audiolevels</effectid>
							<effectcategory>audiolevels</effectcategory>
							<effecttype>audiolevels</effecttype>
							<mediatype>audio</mediatype>
							<parameter>
								<name>Level</name>
								<parameterid>level</parameterid>
								<valuemin>0</valuemin>
								<valuemax>3.98109</valuemax>
								<value>0.0501187</value>
							</parameter>
						</effect>
					</filter>
					<filter>
						<effect>
							<name>Audio Pan</name>
							<effectid>audiopan</effectid>
							<effectcategory>audiopan</effectcategory>
							<effecttype>audiopan</effecttype>
							<mediatype>audio</mediatype>
							<parameter>
								<name>Pan</name>
								<parameterid>pan</parameterid>
								<valuemin>-1</valuemin>
								<valuemax>1</valuemax>
								<value>0</value>
							</parameter>
						</effect>
					</filter>
					<sourcetrack>
						<mediatype>audio</mediatype>
						<trackindex>1</trackindex>
					</sourcetrack>
					<link>
						<linkclipref>DYR18097_01 </linkclipref>
						<mediatype>video</mediatype>
						<trackindex>1</trackindex>
						<clipindex>58</clipindex>
					</link>
					<link>
						<linkclipref>DYR18097_01 3</linkclipref>
						<mediatype>audio</mediatype>
						<trackindex>1</trackindex>
						<clipindex>54</clipindex>
					</link>
					<link>
						<linkclipref>DYR18097_01 4</linkclipref>
						<mediatype>audio</mediatype>
						<trackindex>2</trackindex>
						<clipindex>54</clipindex>
					</link>
					<itemhistory>
						<uuid>4B15EFF7-E6A1-44E6-90CF-8931A22E2F7B</uuid>
					</itemhistory>
				</clipitem>
				<clipitem id="DYR18095_01 6">
					<name>DYR18095_01</name>
					<duration>5990</duration>
					<rate>
						<ntsc>FALSE</ntsc>
						<timebase>25</timebase>
					</rate>
					<in>786</in>
					<out>899</out>
					<start>6462</start>
					<end>6575</end>
					<subframeoffset>0</subframeoffset>
					<masterclipid>DYR18095_01 1</masterclipid>
					<logginginfo>
						<scene/>
						<shottake/>
						<lognote/>
						<good>FALSE</good>
					</logginginfo>
					<labels>
						<label2/>
					</labels>
					<comments>
						<mastercomment1/>
						<mastercomment2/>
						<mastercomment3/>
						<mastercomment4/>
					</comments>
					<file id="DYR18095_01 2"/>
					<filter>
						<effect>
							<name>Audio Levels</name>
							<effectid>audiolevels</effectid>
							<effectcategory>audiolevels</effectcategory>
							<effecttype>audiolevels</effecttype>
							<mediatype>audio</mediatype>
							<parameter>
								<name>Level</name>
								<parameterid>level</parameterid>
								<valuemin>0</valuemin>
								<valuemax>3.98109</valuemax>
								<value>1</value>
							</parameter>
						</effect>
					</filter>
					<filter>
						<effect>
							<name>Audio Pan</name>
							<effectid>audiopan</effectid>
							<effectcategory>audiopan</effectcategory>
							<effecttype>audiopan</effecttype>
							<mediatype>audio</mediatype>
							<parameter>
								<name>Pan</name>
								<parameterid>pan</parameterid>
								<valuemin>-1</valuemin>
								<valuemax>1</valuemax>
								<value>0</value>
							</parameter>
						</effect>
					</filter>
					<sourcetrack>
						<mediatype>audio</mediatype>
						<trackindex>1</trackindex>
					</sourcetrack>
					<link>
						<linkclipref>DYR18095_01 5</linkclipref>
						<mediatype>video</mediatype>
						<trackindex>1</trackindex>
						<clipindex>59</clipindex>
					</link>
					<link>
						<linkclipref>DYR18095_01 6</linkclipref>
						<mediatype>audio</mediatype>
						<trackindex>1</trackindex>
						<clipindex>55</clipindex>
					</link>
					<link>
						<linkclipref>DYR18095_01 7</linkclipref>
						<mediatype>audio</mediatype>
						<trackindex>2</trackindex>
						<clipindex>55</clipindex>
					</link>
					<itemhistory>
						<uuid>73BAD6AE-AAF6-4463-AD53-61D1DA94192E</uuid>
						<uuid>7AB41733-E24F-4501-BB12-2ED0E17BB723</uuid>
					</itemhistory>
				</clipitem>
				<clipitem id="DYR18095_01 9">
					<name>DYR18095_01</name>
					<duration>5990</duration>
					<rate>
						<ntsc>FALSE</ntsc>
						<timebase>25</timebase>
					</rate>
					<in>980</in>
					<out>1051</out>
					<start>6575</start>
					<end>6646</end>
					<subframeoffset>0</subframeoffset>
					<masterclipid>DYR18095_01 1</masterclipid>
					<logginginfo>
						<scene/>
						<shottake/>
						<lognote/>
						<good>FALSE</good>
					</logginginfo>
					<labels>
						<label2/>
					</labels>
					<comments>
						<mastercomment1/>
						<mastercomment2/>
						<mastercomment3/>
						<mastercomment4/>
					</comments>
					<file id="DYR18095_01 2"/>
					<filter>
						<effect>
							<name>Audio Levels</name>
							<effectid>audiolevels</effectid>
							<effectcategory>audiolevels</effectcategory>
							<effecttype>audiolevels</effecttype>
							<mediatype>audio</mediatype>
							<parameter>
								<name>Level</name>
								<parameterid>level</parameterid>
								<valuemin>0</valuemin>
								<valuemax>3.98109</valuemax>
								<value>1</value>
							</parameter>
						</effect>
					</filter>
					<filter>
						<effect>
							<name>Audio Pan</name>
							<effectid>audiopan</effectid>
							<effectcategory>audiopan</effectcategory>
							<effecttype>audiopan</effecttype>
							<mediatype>audio</mediatype>
							<parameter>
								<name>Pan</name>
								<parameterid>pan</parameterid>
								<valuemin>-1</valuemin>
								<valuemax>1</valuemax>
								<value>0</value>
							</parameter>
						</effect>
					</filter>
					<sourcetrack>
						<mediatype>audio</mediatype>
						<trackindex>1</trackindex>
					</sourcetrack>
					<link>
						<linkclipref>DYR18095_01 8</linkclipref>
						<mediatype>video</mediatype>
						<trackindex>1</trackindex>
						<clipindex>60</clipindex>
					</link>
					<link>
						<linkclipref>DYR18095_01 9</linkclipref>
						<mediatype>audio</mediatype>
						<trackindex>1</trackindex>
						<clipindex>56</clipindex>
					</link>
					<link>
						<linkclipref>DYR18095_01 10</linkclipref>
						<mediatype>audio</mediatype>
						<trackindex>2</trackindex>
						<clipindex>56</clipindex>
					</link>
					<itemhistory>
						<uuid>AF3F32C8-0E9B-49B1-BE2E-56407AF0E73B</uuid>
					</itemhistory>
				</clipitem>
				<clipitem id="DYR18095_01 12">
					<name>DYR18095_01</name>
					<duration>5990</duration>
					<rate>
						<ntsc>FALSE</ntsc>
						<timebase>25</timebase>
					</rate>
					<in>1697</in>
					<out>1888</out>
					<start>6646</start>
					<end>6837</end>
					<subframeoffset>0</subframeoffset>
					<masterclipid>DYR18095_01 1</masterclipid>
					<logginginfo>
						<scene/>
						<shottake/>
						<lognote/>
						<good>FALSE</good>
					</logginginfo>
					<labels>
						<label2/>
					</labels>
					<comments>
						<mastercomment1/>
						<mastercomment2/>
						<mastercomment3/>
						<mastercomment4/>
					</comments>
					<file id="DYR18095_01 2"/>
					<filter>
						<effect>
							<name>Audio Levels</name>
							<effectid>audiolevels</effectid>
							<effectcategory>audiolevels</effectcategory>
							<effecttype>audiolevels</effecttype>
							<mediatype>audio</mediatype>
							<parameter>
								<name>Level</name>
								<parameterid>level</parameterid>
								<valuemin>0</valuemin>
								<valuemax>3.98109</valuemax>
								<value>1</value>
							</parameter>
						</effect>
					</filter>
					<filter>
						<effect>
							<name>Audio Pan</name>
							<effectid>audiopan</effectid>
							<effectcategory>audiopan</effectcategory>
							<effecttype>audiopan</effecttype>
							<mediatype>audio</mediatype>
							<parameter>
								<name>Pan</name>
								<parameterid>pan</parameterid>
								<valuemin>-1</valuemin>
								<valuemax>1</valuemax>
								<value>0</value>
							</parameter>
						</effect>
					</filter>
					<sourcetrack>
						<mediatype>audio</mediatype>
						<trackindex>1</trackindex>
					</sourcetrack>
					<link>
						<linkclipref>DYR18095_01 11</linkclipref>
						<mediatype>video</mediatype>
						<trackindex>1</trackindex>
						<clipindex>61</clipindex>
					</link>
					<link>
						<linkclipref>DYR18095_01 12</linkclipref>
						<mediatype>audio</mediatype>
						<trackindex>1</trackindex>
						<clipindex>57</clipindex>
					</link>
					<link>
						<linkclipref>DYR18095_01 13</linkclipref>
						<mediatype>audio</mediatype>
						<trackindex>2</trackindex>
						<clipindex>57</clipindex>
					</link>
					<itemhistory>
						<uuid>3B88CD51-27B5-4661-AD7D-0026FEF3E1D7</uuid>
					</itemhistory>
				</clipitem>
				<clipitem id="DYR18095_01 15">
					<name>DYR18095_01</name>
					<duration>5990</duration>
					<rate>
						<ntsc>FALSE</ntsc>
						<timebase>25</timebase>
					</rate>
					<in>4014</in>
					<out>4077</out>
					<start>6837</start>
					<end>6900</end>
					<subframeoffset>0</subframeoffset>
					<masterclipid>DYR18095_01 1</masterclipid>
					<logginginfo>
						<scene/>
						<shottake/>
						<lognote/>
						<good>FALSE</good>
					</logginginfo>
					<labels>
						<label2/>
					</labels>
					<comments>
						<mastercomment1/>
						<mastercomment2/>
						<mastercomment3/>
						<mastercomment4/>
					</comments>
					<file id="DYR18095_01 2"/>
					<filter>
						<effect>
							<name>Audio Levels</name>
							<effectid>audiolevels</effectid>
							<effectcategory>audiolevels</effectcategory>
							<effecttype>audiolevels</effecttype>
							<mediatype>audio</mediatype>
							<parameter>
								<name>Level</name>
								<parameterid>level</parameterid>
								<valuemin>0</valuemin>
								<valuemax>3.98109</valuemax>
								<value>1</value>
							</parameter>
						</effect>
					</filter>
					<filter>
						<effect>
							<name>Audio Pan</name>
							<effectid>audiopan</effectid>
							<effectcategory>audiopan</effectcategory>
							<effecttype>audiopan</effecttype>
							<mediatype>audio</mediatype>
							<parameter>
								<name>Pan</name>
								<parameterid>pan</parameterid>
								<valuemin>-1</valuemin>
								<valuemax>1</valuemax>
								<value>0</value>
							</parameter>
						</effect>
					</filter>
					<sourcetrack>
						<mediatype>audio</mediatype>
						<trackindex>1</trackindex>
					</sourcetrack>
					<link>
						<linkclipref>DYR18095_01 14</linkclipref>
						<mediatype>video</mediatype>
						<trackindex>1</trackindex>
						<clipindex>62</clipindex>
					</link>
					<link>
						<linkclipref>DYR18095_01 15</linkclipref>
						<mediatype>audio</mediatype>
						<trackindex>1</trackindex>
						<clipindex>58</clipindex>
					</link>
					<link>
						<linkclipref>DYR18095_01 16</linkclipref>
						<mediatype>audio</mediatype>
						<trackindex>2</trackindex>
						<clipindex>58</clipindex>
					</link>
					<itemhistory>
						<uuid>0107A882-7EE8-42EF-B0F6-69CAF385EF9F</uuid>
					</itemhistory>
				</clipitem>
				<clipitem id="DYR18096_01 3">
					<name>DYR18096_01</name>
					<duration>659</duration>
					<rate>
						<ntsc>FALSE</ntsc>
						<timebase>25</timebase>
					</rate>
					<in>416</in>
					<out>466</out>
					<start>6900</start>
					<end>6950</end>
					<subframeoffset>0</subframeoffset>
					<masterclipid>DYR18096_01 1</masterclipid>
					<logginginfo>
						<scene/>
						<shottake/>
						<lognote/>
						<good>FALSE</good>
					</logginginfo>
					<labels>
						<label2/>
					</labels>
					<comments>
						<mastercomment1/>
						<mastercomment2/>
						<mastercomment3/>
						<mastercomment4/>
					</comments>
					<file id="DYR18096_01 2"/>
					<filter>
						<effect>
							<name>Audio Levels</name>
							<effectid>audiolevels</effectid>
							<effectcategory>audiolevels</effectcategory>
							<effecttype>audiolevels</effecttype>
							<mediatype>audio</mediatype>
							<parameter>
								<name>Level</name>
								<parameterid>level</parameterid>
								<valuemin>0</valuemin>
								<valuemax>3.98109</valuemax>
								<value>1</value>
							</parameter>
						</effect>
					</filter>
					<filter>
						<effect>
							<name>Audio Pan</name>
							<effectid>audiopan</effectid>
							<effectcategory>audiopan</effectcategory>
							<effecttype>audiopan</effecttype>
							<mediatype>audio</mediatype>
							<parameter>
								<name>Pan</name>
								<parameterid>pan</parameterid>
								<valuemin>-1</valuemin>
								<valuemax>1</valuemax>
								<value>0</value>
							</parameter>
						</effect>
					</filter>
					<sourcetrack>
						<mediatype>audio</mediatype>
						<trackindex>1</trackindex>
					</sourcetrack>
					<link>
						<linkclipref>DYR18096_01 </linkclipref>
						<mediatype>video</mediatype>
						<trackindex>1</trackindex>
						<clipindex>63</clipindex>
					</link>
					<link>
						<linkclipref>DYR18096_01 3</linkclipref>
						<mediatype>audio</mediatype>
						<trackindex>1</trackindex>
						<clipindex>59</clipindex>
					</link>
					<link>
						<linkclipref>DYR18096_01 4</linkclipref>
						<mediatype>audio</mediatype>
						<trackindex>2</trackindex>
						<clipindex>59</clipindex>
					</link>
					<itemhistory>
						<uuid>82FB7359-1C8C-4634-93B3-69929298D862</uuid>
					</itemhistory>
				</clipitem>
				<clipitem id="DYR18097_01 6">
					<name>DYR18097_01</name>
					<duration>787</duration>
					<rate>
						<ntsc>FALSE</ntsc>
						<timebase>25</timebase>
					</rate>
					<in>263</in>
					<out>281</out>
					<start>6950</start>
					<end>6968</end>
					<subframeoffset>0</subframeoffset>
					<masterclipid>DYR18097_01 1</masterclipid>
					<logginginfo>
						<scene/>
						<shottake/>
						<lognote/>
						<good>FALSE</good>
					</logginginfo>
					<labels>
						<label2/>
					</labels>
					<comments>
						<mastercomment1/>
						<mastercomment2/>
						<mastercomment3/>
						<mastercomment4/>
					</comments>
					<file id="DYR18097_01 2"/>
					<filter>
						<effect>
							<name>Audio Levels</name>
							<effectid>audiolevels</effectid>
							<effectcategory>audiolevels</effectcategory>
							<effecttype>audiolevels</effecttype>
							<mediatype>audio</mediatype>
							<parameter>
								<name>Level</name>
								<parameterid>level</parameterid>
								<valuemin>0</valuemin>
								<valuemax>3.98109</valuemax>
								<value>0</value>
							</parameter>
						</effect>
					</filter>
					<filter>
						<effect>
							<name>Audio Pan</name>
							<effectid>audiopan</effectid>
							<effectcategory>audiopan</effectcategory>
							<effecttype>audiopan</effecttype>
							<mediatype>audio</mediatype>
							<parameter>
								<name>Pan</name>
								<parameterid>pan</parameterid>
								<valuemin>-1</valuemin>
								<valuemax>1</valuemax>
								<value>0</value>
							</parameter>
						</effect>
					</filter>
					<sourcetrack>
						<mediatype>audio</mediatype>
						<trackindex>1</trackindex>
					</sourcetrack>
					<link>
						<linkclipref>DYR18097_01 5</linkclipref>
						<mediatype>video</mediatype>
						<trackindex>1</trackindex>
						<clipindex>64</clipindex>
					</link>
					<link>
						<linkclipref>DYR18097_01 6</linkclipref>
						<mediatype>audio</mediatype>
						<trackindex>1</trackindex>
						<clipindex>60</clipindex>
					</link>
					<link>
						<linkclipref>DYR18097_01 7</linkclipref>
						<mediatype>audio</mediatype>
						<trackindex>2</trackindex>
						<clipindex>60</clipindex>
					</link>
					<itemhistory>
						<uuid>BC917565-EB16-40DF-BC80-EC7C36845065</uuid>
					</itemhistory>
				</clipitem>
				<clipitem id="DYR18098_01 8">
					<name>DYR18098_01</name>
					<duration>3421</duration>
					<rate>
						<ntsc>FALSE</ntsc>
						<timebase>25</timebase>
					</rate>
					<in>627</in>
					<out>660</out>
					<start>6968</start>
					<end>7001</end>
					<subframeoffset>0</subframeoffset>
					<masterclipid>DYR18098_01 1</masterclipid>
					<logginginfo>
						<scene/>
						<shottake/>
						<lognote/>
						<good>FALSE</good>
					</logginginfo>
					<labels>
						<label2/>
					</labels>
					<comments>
						<mastercomment1/>
						<mastercomment2/>
						<mastercomment3/>
						<mastercomment4/>
					</comments>
					<file id="DYR18098_01 2"/>
					<filter>
						<effect>
							<name>Audio Levels</name>
							<effectid>audiolevels</effectid>
							<effectcategory>audiolevels</effectcategory>
							<effecttype>audiolevels</effecttype>
							<mediatype>audio</mediatype>
							<parameter>
								<name>Level</name>
								<parameterid>level</parameterid>
								<valuemin>0</valuemin>
								<valuemax>3.98109</valuemax>
								<value>1</value>
							</parameter>
						</effect>
					</filter>
					<filter>
						<effect>
							<name>Audio Pan</name>
							<effectid>audiopan</effectid>
							<effectcategory>audiopan</effectcategory>
							<effecttype>audiopan</effecttype>
							<mediatype>audio</mediatype>
							<parameter>
								<name>Pan</name>
								<parameterid>pan</parameterid>
								<valuemin>-1</valuemin>
								<valuemax>1</valuemax>
								<value>0</value>
							</parameter>
						</effect>
					</filter>
					<sourcetrack>
						<mediatype>audio</mediatype>
						<trackindex>1</trackindex>
					</sourcetrack>
					<link>
						<linkclipref>DYR18098_01 8</linkclipref>
						<mediatype>audio</mediatype>
						<trackindex>1</trackindex>
						<clipindex>61</clipindex>
					</link>
					<link>
						<linkclipref>DYR18098_01 9</linkclipref>
						<mediatype>audio</mediatype>
						<trackindex>2</trackindex>
						<clipindex>61</clipindex>
					</link>
					<itemhistory>
						<uuid>8C059164-AC8C-482F-AA1C-08BD6A3E34CA</uuid>
					</itemhistory>
				</clipitem>
				<clipitem id="DYR18097_01 8">
					<name>DYR18097_01</name>
					<duration>787</duration>
					<rate>
						<ntsc>FALSE</ntsc>
						<timebase>25</timebase>
					</rate>
					<in>314</in>
					<out>340</out>
					<start>7001</start>
					<end>7027</end>
					<subframeoffset>0</subframeoffset>
					<masterclipid>DYR18097_01 1</masterclipid>
					<logginginfo>
						<scene/>
						<shottake/>
						<lognote/>
						<good>FALSE</good>
					</logginginfo>
					<labels>
						<label2/>
					</labels>
					<comments>
						<mastercomment1/>
						<mastercomment2/>
						<mastercomment3/>
						<mastercomment4/>
					</comments>
					<file id="DYR18097_01 2"/>
					<filter>
						<effect>
							<name>Audio Levels</name>
							<effectid>audiolevels</effectid>
							<effectcategory>audiolevels</effectcategory>
							<effecttype>audiolevels</effecttype>
							<mediatype>audio</mediatype>
							<parameter>
								<name>Level</name>
								<parameterid>level</parameterid>
								<valuemin>0</valuemin>
								<valuemax>3.98109</valuemax>
								<value>0.0630957</value>
							</parameter>
						</effect>
					</filter>
					<filter>
						<effect>
							<name>Audio Pan</name>
							<effectid>audiopan</effectid>
							<effectcategory>audiopan</effectcategory>
							<effecttype>audiopan</effecttype>
							<mediatype>audio</mediatype>
							<parameter>
								<name>Pan</name>
								<parameterid>pan</parameterid>
								<valuemin>-1</valuemin>
								<valuemax>1</valuemax>
								<value>0</value>
							</parameter>
						</effect>
					</filter>
					<sourcetrack>
						<mediatype>audio</mediatype>
						<trackindex>1</trackindex>
					</sourcetrack>
					<link>
						<linkclipref>DYR18097_01 8</linkclipref>
						<mediatype>audio</mediatype>
						<trackindex>1</trackindex>
						<clipindex>62</clipindex>
					</link>
					<link>
						<linkclipref>DYR18097_01 9</linkclipref>
						<mediatype>audio</mediatype>
						<trackindex>2</trackindex>
						<clipindex>62</clipindex>
					</link>
					<itemhistory>
						<uuid>FEDAD0E6-6F91-4D8E-972F-C0BB8AAAD4C5</uuid>
					</itemhistory>
				</clipitem>
				<clipitem id="DYR18098_01 3">
					<name>DYR18098_01</name>
					<duration>3421</duration>
					<rate>
						<ntsc>FALSE</ntsc>
						<timebase>25</timebase>
					</rate>
					<in>1319</in>
					<out>1393</out>
					<start>7027</start>
					<end>7101</end>
					<subframeoffset>0</subframeoffset>
					<masterclipid>DYR18098_01 1</masterclipid>
					<logginginfo>
						<scene/>
						<shottake/>
						<lognote/>
						<good>FALSE</good>
					</logginginfo>
					<labels>
						<label2/>
					</labels>
					<comments>
						<mastercomment1/>
						<mastercomment2/>
						<mastercomment3/>
						<mastercomment4/>
					</comments>
					<file id="DYR18098_01 2"/>
					<filter>
						<effect>
							<name>Audio Levels</name>
							<effectid>audiolevels</effectid>
							<effectcategory>audiolevels</effectcategory>
							<effecttype>audiolevels</effecttype>
							<mediatype>audio</mediatype>
							<parameter>
								<name>Level</name>
								<parameterid>level</parameterid>
								<valuemin>0</valuemin>
								<valuemax>3.98109</valuemax>
								<value>1</value>
							</parameter>
						</effect>
					</filter>
					<filter>
						<effect>
							<name>Audio Pan</name>
							<effectid>audiopan</effectid>
							<effectcategory>audiopan</effectcategory>
							<effecttype>audiopan</effecttype>
							<mediatype>audio</mediatype>
							<parameter>
								<name>Pan</name>
								<parameterid>pan</parameterid>
								<valuemin>-1</valuemin>
								<valuemax>1</valuemax>
								<value>0</value>
							</parameter>
						</effect>
					</filter>
					<sourcetrack>
						<mediatype>audio</mediatype>
						<trackindex>1</trackindex>
					</sourcetrack>
					<link>
						<linkclipref>DYR18098_01 </linkclipref>
						<mediatype>video</mediatype>
						<trackindex>1</trackindex>
						<clipindex>65</clipindex>
					</link>
					<link>
						<linkclipref>DYR18098_01 3</linkclipref>
						<mediatype>audio</mediatype>
						<trackindex>1</trackindex>
						<clipindex>63</clipindex>
					</link>
					<link>
						<linkclipref>DYR18098_01 4</linkclipref>
						<mediatype>audio</mediatype>
						<trackindex>2</trackindex>
						<clipindex>63</clipindex>
					</link>
					<itemhistory>
						<uuid>E3959691-B11E-4294-8F81-FC98EB893142</uuid>
					</itemhistory>
				</clipitem>
				<clipitem id="DYR18099_01 3">
					<name>DYR18099_01</name>
					<duration>1893</duration>
					<rate>
						<ntsc>FALSE</ntsc>
						<timebase>25</timebase>
					</rate>
					<in>824</in>
					<out>938</out>
					<start>7149</start>
					<end>7263</end>
					<subframeoffset>0</subframeoffset>
					<masterclipid>DYR18099_01 1</masterclipid>
					<logginginfo>
						<scene/>
						<shottake/>
						<lognote/>
						<good>FALSE</good>
					</logginginfo>
					<labels>
						<label2/>
					</labels>
					<comments>
						<mastercomment1/>
						<mastercomment2/>
						<mastercomment3/>
						<mastercomment4/>
					</comments>
					<file id="DYR18099_01 2"/>
					<filter>
						<effect>
							<name>Audio Levels</name>
							<effectid>audiolevels</effectid>
							<effectcategory>audiolevels</effectcategory>
							<effecttype>audiolevels</effecttype>
							<mediatype>audio</mediatype>
							<parameter>
								<name>Level</name>
								<parameterid>level</parameterid>
								<valuemin>0</valuemin>
								<valuemax>3.98109</valuemax>
								<value>0.0891251</value>
							</parameter>
						</effect>
					</filter>
					<filter>
						<effect>
							<name>Audio Pan</name>
							<effectid>audiopan</effectid>
							<effectcategory>audiopan</effectcategory>
							<effecttype>audiopan</effecttype>
							<mediatype>audio</mediatype>
							<parameter>
								<name>Pan</name>
								<parameterid>pan</parameterid>
								<valuemin>-1</valuemin>
								<valuemax>1</valuemax>
								<value>0</value>
							</parameter>
						</effect>
					</filter>
					<sourcetrack>
						<mediatype>audio</mediatype>
						<trackindex>1</trackindex>
					</sourcetrack>
					<link>
						<linkclipref>DYR18099_01 </linkclipref>
						<mediatype>video</mediatype>
						<trackindex>1</trackindex>
						<clipindex>66</clipindex>
					</link>
					<link>
						<linkclipref>DYR18099_01 3</linkclipref>
						<mediatype>audio</mediatype>
						<trackindex>1</trackindex>
						<clipindex>64</clipindex>
					</link>
					<link>
						<linkclipref>DYR18099_01 4</linkclipref>
						<mediatype>audio</mediatype>
						<trackindex>2</trackindex>
						<clipindex>64</clipindex>
					</link>
					<itemhistory>
						<uuid>A5D55C4D-FEBA-4C78-A8B4-1912880D584A</uuid>
					</itemhistory>
				</clipitem>
				<clipitem id="DYR18102_01 3">
					<name>DYR18102_01</name>
					<duration>2259</duration>
					<rate>
						<ntsc>FALSE</ntsc>
						<timebase>25</timebase>
					</rate>
					<in>174</in>
					<out>269</out>
					<start>7296</start>
					<end>7391</end>
					<subframeoffset>0</subframeoffset>
					<masterclipid>DYR18102_01 1</masterclipid>
					<logginginfo>
						<scene/>
						<shottake/>
						<lognote/>
						<good>FALSE</good>
					</logginginfo>
					<labels>
						<label2/>
					</labels>
					<comments>
						<mastercomment1/>
						<mastercomment2/>
						<mastercomment3/>
						<mastercomment4/>
					</comments>
					<file id="DYR18102_01 2"/>
					<filter>
						<effect>
							<name>Audio Levels</name>
							<effectid>audiolevels</effectid>
							<effectcategory>audiolevels</effectcategory>
							<effecttype>audiolevels</effecttype>
							<mediatype>audio</mediatype>
							<parameter>
								<name>Level</name>
								<parameterid>level</parameterid>
								<valuemin>0</valuemin>
								<valuemax>3.98109</valuemax>
								<value>1.99526</value>
							</parameter>
						</effect>
					</filter>
					<filter>
						<effect>
							<name>Audio Pan</name>
							<effectid>audiopan</effectid>
							<effectcategory>audiopan</effectcategory>
							<effecttype>audiopan</effecttype>
							<mediatype>audio</mediatype>
							<parameter>
								<name>Pan</name>
								<parameterid>pan</parameterid>
								<valuemin>-1</valuemin>
								<valuemax>1</valuemax>
								<value>0</value>
							</parameter>
						</effect>
					</filter>
					<sourcetrack>
						<mediatype>audio</mediatype>
						<trackindex>1</trackindex>
					</sourcetrack>
					<link>
						<linkclipref>DYR18102_01 </linkclipref>
						<mediatype>video</mediatype>
						<trackindex>1</trackindex>
						<clipindex>67</clipindex>
					</link>
					<link>
						<linkclipref>DYR18102_01 3</linkclipref>
						<mediatype>audio</mediatype>
						<trackindex>1</trackindex>
						<clipindex>65</clipindex>
					</link>
					<link>
						<linkclipref>DYR18102_01 4</linkclipref>
						<mediatype>audio</mediatype>
						<trackindex>2</trackindex>
						<clipindex>65</clipindex>
					</link>
					<itemhistory>
						<uuid>34700C75-0D0B-4E4B-89EF-7AAE8BF22527</uuid>
					</itemhistory>
				</clipitem>
				<clipitem id="DYR18102_01 6">
					<name>DYR18102_01</name>
					<duration>2259</duration>
					<rate>
						<ntsc>FALSE</ntsc>
						<timebase>25</timebase>
					</rate>
					<in>814</in>
					<out>915</out>
					<start>7391</start>
					<end>7492</end>
					<subframeoffset>0</subframeoffset>
					<enabled>TRUE</enabled>
					<masterclipid>DYR18102_01 1</masterclipid>
					<logginginfo>
						<scene/>
						<shottake/>
						<lognote/>
						<good>FALSE</good>
					</logginginfo>
					<labels>
						<label2/>
					</labels>
					<comments>
						<mastercomment1/>
						<mastercomment2/>
						<mastercomment3/>
						<mastercomment4/>
					</comments>
					<file id="DYR18102_01 2"/>
					<filter>
						<effect>
							<name>Audio Levels</name>
							<effectid>audiolevels</effectid>
							<effectcategory>audiolevels</effectcategory>
							<effecttype>audiolevels</effecttype>
							<mediatype>audio</mediatype>
							<parameter>
								<name>Level</name>
								<parameterid>level</parameterid>
								<valuemin>0</valuemin>
								<valuemax>3.98109</valuemax>
								<value>1.99526</value>
							</parameter>
						</effect>
					</filter>
					<filter>
						<effect>
							<name>Audio Pan</name>
							<effectid>audiopan</effectid>
							<effectcategory>audiopan</effectcategory>
							<effecttype>audiopan</effecttype>
							<mediatype>audio</mediatype>
							<parameter>
								<name>Pan</name>
								<parameterid>pan</parameterid>
								<valuemin>-1</valuemin>
								<valuemax>1</valuemax>
								<value>0</value>
							</parameter>
						</effect>
					</filter>
					<sourcetrack>
						<mediatype>audio</mediatype>
						<trackindex>1</trackindex>
					</sourcetrack>
					<link>
						<linkclipref>DYR18102_01 5</linkclipref>
						<mediatype>video</mediatype>
						<trackindex>1</trackindex>
						<clipindex>68</clipindex>
					</link>
					<link>
						<linkclipref>DYR18102_01 6</linkclipref>
						<mediatype>audio</mediatype>
						<trackindex>1</trackindex>
						<clipindex>66</clipindex>
					</link>
					<link>
						<linkclipref>DYR18102_01 7</linkclipref>
						<mediatype>audio</mediatype>
						<trackindex>2</trackindex>
						<clipindex>66</clipindex>
					</link>
					<itemhistory>
						<uuid>D5A28D0A-0BD9-4F3E-B788-5778279B78B6</uuid>
					</itemhistory>
				</clipitem>
				<clipitem id="DYR18102_01 9">
					<name>DYR18102_01</name>
					<duration>2259</duration>
					<rate>
						<ntsc>FALSE</ntsc>
						<timebase>25</timebase>
					</rate>
					<in>1081</in>
					<out>1116</out>
					<start>7492</start>
					<end>7527</end>
					<subframeoffset>0</subframeoffset>
					<masterclipid>DYR18102_01 1</masterclipid>
					<logginginfo>
						<scene/>
						<shottake/>
						<lognote/>
						<good>FALSE</good>
					</logginginfo>
					<labels>
						<label2/>
					</labels>
					<comments>
						<mastercomment1/>
						<mastercomment2/>
						<mastercomment3/>
						<mastercomment4/>
					</comments>
					<file id="DYR18102_01 2"/>
					<filter>
						<effect>
							<name>Audio Levels</name>
							<effectid>audiolevels</effectid>
							<effectcategory>audiolevels</effectcategory>
							<effecttype>audiolevels</effecttype>
							<mediatype>audio</mediatype>
							<parameter>
								<name>Level</name>
								<parameterid>level</parameterid>
								<valuemin>0</valuemin>
								<valuemax>3.98109</valuemax>
								<value>1</value>
							</parameter>
						</effect>
					</filter>
					<filter>
						<effect>
							<name>Audio Pan</name>
							<effectid>audiopan</effectid>
							<effectcategory>audiopan</effectcategory>
							<effecttype>audiopan</effecttype>
							<mediatype>audio</mediatype>
							<parameter>
								<name>Pan</name>
								<parameterid>pan</parameterid>
								<valuemin>-1</valuemin>
								<valuemax>1</valuemax>
								<value>0</value>
							</parameter>
						</effect>
					</filter>
					<sourcetrack>
						<mediatype>audio</mediatype>
						<trackindex>1</trackindex>
					</sourcetrack>
					<link>
						<linkclipref>DYR18102_01 8</linkclipref>
						<mediatype>video</mediatype>
						<trackindex>1</trackindex>
						<clipindex>69</clipindex>
					</link>
					<link>
						<linkclipref>DYR18102_01 9</linkclipref>
						<mediatype>audio</mediatype>
						<trackindex>1</trackindex>
						<clipindex>67</clipindex>
					</link>
					<link>
						<linkclipref>DYR18102_01 10</linkclipref>
						<mediatype>audio</mediatype>
						<trackindex>2</trackindex>
						<clipindex>67</clipindex>
					</link>
					<itemhistory>
						<uuid>519A5D81-7A0D-43E1-9413-69B365F77948</uuid>
					</itemhistory>
				</clipitem>
				<clipitem id="DYR18103_01 3">
					<name>DYR18103_01</name>
					<duration>3184</duration>
					<rate>
						<ntsc>FALSE</ntsc>
						<timebase>25</timebase>
					</rate>
					<in>66</in>
					<out>159</out>
					<start>7527</start>
					<end>7620</end>
					<subframeoffset>0</subframeoffset>
					<masterclipid>DYR18103_01 1</masterclipid>
					<logginginfo>
						<scene/>
						<shottake/>
						<lognote/>
						<good>FALSE</good>
					</logginginfo>
					<labels>
						<label2/>
					</labels>
					<comments>
						<mastercomment1/>
						<mastercomment2/>
						<mastercomment3/>
						<mastercomment4/>
					</comments>
					<file id="DYR18103_01 2"/>
					<filter>
						<effect>
							<name>Audio Levels</name>
							<effectid>audiolevels</effectid>
							<effectcategory>audiolevels</effectcategory>
							<effecttype>audiolevels</effecttype>
							<mediatype>audio</mediatype>
							<parameter>
								<name>Level</name>
								<parameterid>level</parameterid>
								<valuemin>0</valuemin>
								<valuemax>3.98109</valuemax>
								<value>2.51189</value>
							</parameter>
						</effect>
					</filter>
					<filter>
						<effect>
							<name>Audio Pan</name>
							<effectid>audiopan</effectid>
							<effectcategory>audiopan</effectcategory>
							<effecttype>audiopan</effecttype>
							<mediatype>audio</mediatype>
							<parameter>
								<name>Pan</name>
								<parameterid>pan</parameterid>
								<valuemin>-1</valuemin>
								<valuemax>1</valuemax>
								<value>0</value>
							</parameter>
						</effect>
					</filter>
					<sourcetrack>
						<mediatype>audio</mediatype>
						<trackindex>1</trackindex>
					</sourcetrack>
					<link>
						<linkclipref>DYR18103_01 </linkclipref>
						<mediatype>video</mediatype>
						<trackindex>1</trackindex>
						<clipindex>70</clipindex>
					</link>
					<link>
						<linkclipref>DYR18103_01 3</linkclipref>
						<mediatype>audio</mediatype>
						<trackindex>1</trackindex>
						<clipindex>68</clipindex>
					</link>
					<itemhistory>
						<uuid>367AB6B4-7BB1-4032-AF17-A2FD8E6238F4</uuid>
					</itemhistory>
				</clipitem>
				<clipitem id="DYR18104_01 3">
					<name>DYR18104_01</name>
					<duration>1992</duration>
					<rate>
						<ntsc>FALSE</ntsc>
						<timebase>25</timebase>
					</rate>
					<in>228</in>
					<out>382</out>
					<start>7620</start>
					<end>7774</end>
					<subframeoffset>0</subframeoffset>
					<masterclipid>DYR18104_01 1</masterclipid>
					<logginginfo>
						<scene/>
						<shottake/>
						<lognote/>
						<good>FALSE</good>
					</logginginfo>
					<labels>
						<label2/>
					</labels>
					<comments>
						<mastercomment1/>
						<mastercomment2/>
						<mastercomment3/>
						<mastercomment4/>
					</comments>
					<file id="DYR18104_01 2"/>
					<filter>
						<effect>
							<name>Audio Levels</name>
							<effectid>audiolevels</effectid>
							<effectcategory>audiolevels</effectcategory>
							<effecttype>audiolevels</effecttype>
							<mediatype>audio</mediatype>
							<parameter>
								<name>Level</name>
								<parameterid>level</parameterid>
								<valuemin>0</valuemin>
								<valuemax>3.98109</valuemax>
								<value>0.199526</value>
							</parameter>
						</effect>
					</filter>
					<filter>
						<effect>
							<name>Audio Pan</name>
							<effectid>audiopan</effectid>
							<effectcategory>audiopan</effectcategory>
							<effecttype>audiopan</effecttype>
							<mediatype>audio</mediatype>
							<parameter>
								<name>Pan</name>
								<parameterid>pan</parameterid>
								<valuemin>-1</valuemin>
								<valuemax>1</valuemax>
								<value>0</value>
							</parameter>
						</effect>
					</filter>
					<sourcetrack>
						<mediatype>audio</mediatype>
						<trackindex>1</trackindex>
					</sourcetrack>
					<link>
						<linkclipref>DYR18104_01 </linkclipref>
						<mediatype>video</mediatype>
						<trackindex>1</trackindex>
						<clipindex>71</clipindex>
					</link>
					<link>
						<linkclipref>DYR18104_01 3</linkclipref>
						<mediatype>audio</mediatype>
						<trackindex>1</trackindex>
						<clipindex>69</clipindex>
					</link>
					<itemhistory>
						<uuid>0BEEB366-9628-4388-AFD2-B2B134CB1685</uuid>
					</itemhistory>
				</clipitem>
				<clipitem id="DYR18106_01 3">
					<name>DYR18106_01</name>
					<duration>4625</duration>
					<rate>
						<ntsc>FALSE</ntsc>
						<timebase>25</timebase>
					</rate>
					<in>2281</in>
					<out>2323</out>
					<start>7774</start>
					<end>7816</end>
					<subframeoffset>0</subframeoffset>
					<masterclipid>DYR18106_01 1</masterclipid>
					<logginginfo>
						<scene/>
						<shottake/>
						<lognote/>
						<good>FALSE</good>
					</logginginfo>
					<labels>
						<label2/>
					</labels>
					<comments>
						<mastercomment1/>
						<mastercomment2/>
						<mastercomment3/>
						<mastercomment4/>
					</comments>
					<file id="DYR18106_01 2"/>
					<filter>
						<effect>
							<name>Audio Levels</name>
							<effectid>audiolevels</effectid>
							<effectcategory>audiolevels</effectcategory>
							<effecttype>audiolevels</effecttype>
							<mediatype>audio</mediatype>
							<parameter>
								<name>Level</name>
								<parameterid>level</parameterid>
								<valuemin>0</valuemin>
								<valuemax>3.98109</valuemax>
								<value>0.0177828</value>
							</parameter>
						</effect>
					</filter>
					<filter>
						<effect>
							<name>Audio Pan</name>
							<effectid>audiopan</effectid>
							<effectcategory>audiopan</effectcategory>
							<effecttype>audiopan</effecttype>
							<mediatype>audio</mediatype>
							<parameter>
								<name>Pan</name>
								<parameterid>pan</parameterid>
								<valuemin>-1</valuemin>
								<valuemax>1</valuemax>
								<value>0</value>
							</parameter>
						</effect>
					</filter>
					<sourcetrack>
						<mediatype>audio</mediatype>
						<trackindex>1</trackindex>
					</sourcetrack>
					<link>
						<linkclipref>DYR18106_01 </linkclipref>
						<mediatype>video</mediatype>
						<trackindex>1</trackindex>
						<clipindex>72</clipindex>
					</link>
					<link>
						<linkclipref>DYR18106_01 3</linkclipref>
						<mediatype>audio</mediatype>
						<trackindex>1</trackindex>
						<clipindex>70</clipindex>
					</link>
					<link>
						<linkclipref>DYR18106_01 4</linkclipref>
						<mediatype>audio</mediatype>
						<trackindex>2</trackindex>
						<clipindex>68</clipindex>
					</link>
					<itemhistory>
						<uuid>5D5B219D-C8DB-4F51-A673-028489CBB116</uuid>
					</itemhistory>
				</clipitem>
				<clipitem id="DYR18106_01 6">
					<name>DYR18106_01</name>
					<duration>4625</duration>
					<rate>
						<ntsc>FALSE</ntsc>
						<timebase>25</timebase>
					</rate>
					<in>1232</in>
					<out>1277</out>
					<start>7816</start>
					<end>7861</end>
					<subframeoffset>0</subframeoffset>
					<masterclipid>DYR18106_01 1</masterclipid>
					<logginginfo>
						<scene/>
						<shottake/>
						<lognote/>
						<good>FALSE</good>
					</logginginfo>
					<labels>
						<label2/>
					</labels>
					<comments>
						<mastercomment1/>
						<mastercomment2/>
						<mastercomment3/>
						<mastercomment4/>
					</comments>
					<file id="DYR18106_01 2"/>
					<filter>
						<effect>
							<name>Audio Levels</name>
							<effectid>audiolevels</effectid>
							<effectcategory>audiolevels</effectcategory>
							<effecttype>audiolevels</effecttype>
							<mediatype>audio</mediatype>
							<parameter>
								<name>Level</name>
								<parameterid>level</parameterid>
								<valuemin>0</valuemin>
								<valuemax>3.98109</valuemax>
								<value>1</value>
							</parameter>
						</effect>
					</filter>
					<filter>
						<effect>
							<name>Audio Pan</name>
							<effectid>audiopan</effectid>
							<effectcategory>audiopan</effectcategory>
							<effecttype>audiopan</effecttype>
							<mediatype>audio</mediatype>
							<parameter>
								<name>Pan</name>
								<parameterid>pan</parameterid>
								<valuemin>-1</valuemin>
								<valuemax>1</valuemax>
								<value>0</value>
							</parameter>
						</effect>
					</filter>
					<sourcetrack>
						<mediatype>audio</mediatype>
						<trackindex>1</trackindex>
					</sourcetrack>
					<link>
						<linkclipref>DYR18106_01 5</linkclipref>
						<mediatype>video</mediatype>
						<trackindex>1</trackindex>
						<clipindex>73</clipindex>
					</link>
					<link>
						<linkclipref>DYR18106_01 6</linkclipref>
						<mediatype>audio</mediatype>
						<trackindex>1</trackindex>
						<clipindex>71</clipindex>
					</link>
					<link>
						<linkclipref>DYR18106_01 7</linkclipref>
						<mediatype>audio</mediatype>
						<trackindex>2</trackindex>
						<clipindex>69</clipindex>
					</link>
					<itemhistory>
						<uuid>6CAD0089-0EE5-424C-BCD9-1C1AE1BC647C</uuid>
					</itemhistory>
				</clipitem>
				<clipitem id="DYR18103_01 5">
					<name>DYR18103_01</name>
					<duration>3184</duration>
					<rate>
						<ntsc>FALSE</ntsc>
						<timebase>25</timebase>
					</rate>
					<in>1280</in>
					<out>1330</out>
					<start>7861</start>
					<end>7911</end>
					<subframeoffset>0</subframeoffset>
					<enabled>TRUE</enabled>
					<masterclipid>DYR18103_01 1</masterclipid>
					<logginginfo>
						<scene/>
						<shottake/>
						<lognote/>
						<good>FALSE</good>
					</logginginfo>
					<labels>
						<label2/>
					</labels>
					<comments>
						<mastercomment1/>
						<mastercomment2/>
						<mastercomment3/>
						<mastercomment4/>
					</comments>
					<file id="DYR18103_01 2"/>
					<filter>
						<effect>
							<name>Audio Levels</name>
							<effectid>audiolevels</effectid>
							<effectcategory>audiolevels</effectcategory>
							<effecttype>audiolevels</effecttype>
							<mediatype>audio</mediatype>
							<parameter>
								<name>Level</name>
								<parameterid>level</parameterid>
								<valuemin>0</valuemin>
								<valuemax>3.98109</valuemax>
								<value>1</value>
							</parameter>
						</effect>
					</filter>
					<filter>
						<effect>
							<name>Audio Pan</name>
							<effectid>audiopan</effectid>
							<effectcategory>audiopan</effectcategory>
							<effecttype>audiopan</effecttype>
							<mediatype>audio</mediatype>
							<parameter>
								<name>Pan</name>
								<parameterid>pan</parameterid>
								<valuemin>-1</valuemin>
								<valuemax>1</valuemax>
								<value>0</value>
							</parameter>
						</effect>
					</filter>
					<sourcetrack>
						<mediatype>audio</mediatype>
						<trackindex>1</trackindex>
					</sourcetrack>
					<link>
						<linkclipref>DYR18103_01 4</linkclipref>
						<mediatype>video</mediatype>
						<trackindex>1</trackindex>
						<clipindex>74</clipindex>
					</link>
					<link>
						<linkclipref>DYR18103_01 5</linkclipref>
						<mediatype>audio</mediatype>
						<trackindex>1</trackindex>
						<clipindex>72</clipindex>
					</link>
					<link>
						<linkclipref>DYR18103_01 6</linkclipref>
						<mediatype>audio</mediatype>
						<trackindex>2</trackindex>
						<clipindex>70</clipindex>
					</link>
					<itemhistory>
						<uuid>5DA5DC1F-567F-4D64-A64D-7CD71D8583B0</uuid>
					</itemhistory>
				</clipitem>
				<clipitem id="DYR18109_01 3">
					<name>DYR18109_01</name>
					<duration>3056</duration>
					<rate>
						<ntsc>FALSE</ntsc>
						<timebase>25</timebase>
					</rate>
					<in>772</in>
					<out>1128</out>
					<start>7911</start>
					<end>8267</end>
					<subframeoffset>0</subframeoffset>
					<masterclipid>DYR18109_01 1</masterclipid>
					<logginginfo>
						<scene/>
						<shottake/>
						<lognote/>
						<good>FALSE</good>
					</logginginfo>
					<labels>
						<label2/>
					</labels>
					<comments>
						<mastercomment1/>
						<mastercomment2/>
						<mastercomment3/>
						<mastercomment4/>
					</comments>
					<file id="DYR18109_01 2"/>
					<filter>
						<effect>
							<name>Audio Levels</name>
							<effectid>audiolevels</effectid>
							<effectcategory>audiolevels</effectcategory>
							<effecttype>audiolevels</effecttype>
							<mediatype>audio</mediatype>
							<parameter>
								<name>Level</name>
								<parameterid>level</parameterid>
								<valuemin>0</valuemin>
								<valuemax>3.98109</valuemax>
								<value>1</value>
							</parameter>
						</effect>
					</filter>
					<filter>
						<effect>
							<name>Audio Pan</name>
							<effectid>audiopan</effectid>
							<effectcategory>audiopan</effectcategory>
							<effecttype>audiopan</effecttype>
							<mediatype>audio</mediatype>
							<parameter>
								<name>Pan</name>
								<parameterid>pan</parameterid>
								<valuemin>-1</valuemin>
								<valuemax>1</valuemax>
								<value>0</value>
							</parameter>
						</effect>
					</filter>
					<sourcetrack>
						<mediatype>audio</mediatype>
						<trackindex>1</trackindex>
					</sourcetrack>
					<link>
						<linkclipref>DYR18109_01 </linkclipref>
						<mediatype>video</mediatype>
						<trackindex>1</trackindex>
						<clipindex>75</clipindex>
					</link>
					<link>
						<linkclipref>DYR18109_01 3</linkclipref>
						<mediatype>audio</mediatype>
						<trackindex>1</trackindex>
						<clipindex>73</clipindex>
					</link>
					<link>
						<linkclipref>DYR18109_01 4</linkclipref>
						<mediatype>audio</mediatype>
						<trackindex>2</trackindex>
						<clipindex>71</clipindex>
					</link>
					<itemhistory>
						<uuid>AE300AFB-7702-4063-AE47-8174946D3F17</uuid>
					</itemhistory>
				</clipitem>
				<clipitem id="DYR18109_01 6">
					<name>DYR18109_01</name>
					<duration>3056</duration>
					<rate>
						<ntsc>FALSE</ntsc>
						<timebase>25</timebase>
					</rate>
					<in>1443</in>
					<out>1509</out>
					<start>8267</start>
					<end>8333</end>
					<subframeoffset>0</subframeoffset>
					<masterclipid>DYR18109_01 1</masterclipid>
					<logginginfo>
						<scene/>
						<shottake/>
						<lognote/>
						<good>FALSE</good>
					</logginginfo>
					<labels>
						<label2/>
					</labels>
					<comments>
						<mastercomment1/>
						<mastercomment2/>
						<mastercomment3/>
						<mastercomment4/>
					</comments>
					<file id="DYR18109_01 2"/>
					<filter>
						<effect>
							<name>Audio Levels</name>
							<effectid>audiolevels</effectid>
							<effectcategory>audiolevels</effectcategory>
							<effecttype>audiolevels</effecttype>
							<mediatype>audio</mediatype>
							<parameter>
								<name>Level</name>
								<parameterid>level</parameterid>
								<valuemin>0</valuemin>
								<valuemax>3.98109</valuemax>
								<value>1</value>
							</parameter>
						</effect>
					</filter>
					<filter>
						<effect>
							<name>Audio Pan</name>
							<effectid>audiopan</effectid>
							<effectcategory>audiopan</effectcategory>
							<effecttype>audiopan</effecttype>
							<mediatype>audio</mediatype>
							<parameter>
								<name>Pan</name>
								<parameterid>pan</parameterid>
								<valuemin>-1</valuemin>
								<valuemax>1</valuemax>
								<value>0</value>
							</parameter>
						</effect>
					</filter>
					<sourcetrack>
						<mediatype>audio</mediatype>
						<trackindex>1</trackindex>
					</sourcetrack>
					<link>
						<linkclipref>DYR18109_01 5</linkclipref>
						<mediatype>video</mediatype>
						<trackindex>1</trackindex>
						<clipindex>76</clipindex>
					</link>
					<link>
						<linkclipref>DYR18109_01 6</linkclipref>
						<mediatype>audio</mediatype>
						<trackindex>1</trackindex>
						<clipindex>74</clipindex>
					</link>
					<link>
						<linkclipref>DYR18109_01 7</linkclipref>
						<mediatype>audio</mediatype>
						<trackindex>2</trackindex>
						<clipindex>72</clipindex>
					</link>
					<itemhistory>
						<uuid>E532FB60-59C0-405F-BC07-DF0AC75EF2F9</uuid>
					</itemhistory>
				</clipitem>
				<clipitem id="DYR18109_01 9">
					<name>DYR18109_01</name>
					<duration>3056</duration>
					<rate>
						<ntsc>FALSE</ntsc>
						<timebase>25</timebase>
					</rate>
					<in>1721</in>
					<out>1828</out>
					<start>8333</start>
					<end>8440</end>
					<subframeoffset>0</subframeoffset>
					<enabled>TRUE</enabled>
					<masterclipid>DYR18109_01 1</masterclipid>
					<logginginfo>
						<scene/>
						<shottake/>
						<lognote/>
						<good>FALSE</good>
					</logginginfo>
					<labels>
						<label2/>
					</labels>
					<comments>
						<mastercomment1/>
						<mastercomment2/>
						<mastercomment3/>
						<mastercomment4/>
					</comments>
					<file id="DYR18109_01 2"/>
					<filter>
						<effect>
							<name>Audio Levels</name>
							<effectid>audiolevels</effectid>
							<effectcategory>audiolevels</effectcategory>
							<effecttype>audiolevels</effecttype>
							<mediatype>audio</mediatype>
							<parameter>
								<name>Level</name>
								<parameterid>level</parameterid>
								<valuemin>0</valuemin>
								<valuemax>3.98109</valuemax>
								<value>2.81838</value>
							</parameter>
						</effect>
					</filter>
					<filter>
						<effect>
							<name>Audio Pan</name>
							<effectid>audiopan</effectid>
							<effectcategory>audiopan</effectcategory>
							<effecttype>audiopan</effecttype>
							<mediatype>audio</mediatype>
							<parameter>
								<name>Pan</name>
								<parameterid>pan</parameterid>
								<valuemin>-1</valuemin>
								<valuemax>1</valuemax>
								<value>0</value>
							</parameter>
						</effect>
					</filter>
					<sourcetrack>
						<mediatype>audio</mediatype>
						<trackindex>1</trackindex>
					</sourcetrack>
					<link>
						<linkclipref>DYR18109_01 8</linkclipref>
						<mediatype>video</mediatype>
						<trackindex>1</trackindex>
						<clipindex>77</clipindex>
					</link>
					<link>
						<linkclipref>DYR18109_01 9</linkclipref>
						<mediatype>audio</mediatype>
						<trackindex>1</trackindex>
						<clipindex>75</clipindex>
					</link>
					<link>
						<linkclipref>DYR18109_01 10</linkclipref>
						<mediatype>audio</mediatype>
						<trackindex>2</trackindex>
						<clipindex>73</clipindex>
					</link>
					<itemhistory>
						<uuid>0348CD12-B7A5-45A5-87D5-C952473D7925</uuid>
					</itemhistory>
				</clipitem>
				<clipitem id="DYR18110_01 3">
					<name>DYR18110_01</name>
					<duration>1835</duration>
					<rate>
						<ntsc>FALSE</ntsc>
						<timebase>25</timebase>
					</rate>
					<in>1432</in>
					<out>1570</out>
					<start>8440</start>
					<end>8578</end>
					<subframeoffset>0</subframeoffset>
					<enabled>TRUE</enabled>
					<masterclipid>DYR18110_01 1</masterclipid>
					<logginginfo>
						<scene/>
						<shottake/>
						<lognote/>
						<good>FALSE</good>
					</logginginfo>
					<labels>
						<label2/>
					</labels>
					<comments>
						<mastercomment1/>
						<mastercomment2/>
						<mastercomment3/>
						<mastercomment4/>
					</comments>
					<file id="DYR18110_01 2"/>
					<filter>
						<effect>
							<name>Audio Levels</name>
							<effectid>audiolevels</effectid>
							<effectcategory>audiolevels</effectcategory>
							<effecttype>audiolevels</effecttype>
							<mediatype>audio</mediatype>
							<parameter>
								<name>Level</name>
								<parameterid>level</parameterid>
								<valuemin>0</valuemin>
								<valuemax>3.98109</valuemax>
								<value>1</value>
							</parameter>
						</effect>
					</filter>
					<filter>
						<effect>
							<name>Audio Pan</name>
							<effectid>audiopan</effectid>
							<effectcategory>audiopan</effectcategory>
							<effecttype>audiopan</effecttype>
							<mediatype>audio</mediatype>
							<parameter>
								<name>Pan</name>
								<parameterid>pan</parameterid>
								<valuemin>-1</valuemin>
								<valuemax>1</valuemax>
								<value>0</value>
							</parameter>
						</effect>
					</filter>
					<sourcetrack>
						<mediatype>audio</mediatype>
						<trackindex>1</trackindex>
					</sourcetrack>
					<link>
						<linkclipref>DYR18110_01 </linkclipref>
						<mediatype>video</mediatype>
						<trackindex>1</trackindex>
						<clipindex>78</clipindex>
					</link>
					<link>
						<linkclipref>DYR18110_01 3</linkclipref>
						<mediatype>audio</mediatype>
						<trackindex>1</trackindex>
						<clipindex>76</clipindex>
					</link>
					<link>
						<linkclipref>DYR18110_01 4</linkclipref>
						<mediatype>audio</mediatype>
						<trackindex>2</trackindex>
						<clipindex>74</clipindex>
					</link>
					<itemhistory>
						<uuid>ED649100-B15E-45F9-8212-E5C7083A7240</uuid>
					</itemhistory>
				</clipitem>
				<clipitem id="DYR18110_01 6">
					<name>DYR18110_01</name>
					<duration>1835</duration>
					<rate>
						<ntsc>FALSE</ntsc>
						<timebase>25</timebase>
					</rate>
					<in>248</in>
					<out>279</out>
					<start>8578</start>
					<end>8609</end>
					<subframeoffset>0</subframeoffset>
					<masterclipid>DYR18110_01 1</masterclipid>
					<logginginfo>
						<scene/>
						<shottake/>
						<lognote/>
						<good>FALSE</good>
					</logginginfo>
					<labels>
						<label2/>
					</labels>
					<comments>
						<mastercomment1/>
						<mastercomment2/>
						<mastercomment3/>
						<mastercomment4/>
					</comments>
					<file id="DYR18110_01 2"/>
					<filter>
						<effect>
							<name>Audio Levels</name>
							<effectid>audiolevels</effectid>
							<effectcategory>audiolevels</effectcategory>
							<effecttype>audiolevels</effecttype>
							<mediatype>audio</mediatype>
							<parameter>
								<name>Level</name>
								<parameterid>level</parameterid>
								<valuemin>0</valuemin>
								<valuemax>3.98109</valuemax>
								<value>1</value>
							</parameter>
						</effect>
					</filter>
					<filter>
						<effect>
							<name>Audio Pan</name>
							<effectid>audiopan</effectid>
							<effectcategory>audiopan</effectcategory>
							<effecttype>audiopan</effecttype>
							<mediatype>audio</mediatype>
							<parameter>
								<name>Pan</name>
								<parameterid>pan</parameterid>
								<valuemin>-1</valuemin>
								<valuemax>1</valuemax>
								<value>0</value>
							</parameter>
						</effect>
					</filter>
					<sourcetrack>
						<mediatype>audio</mediatype>
						<trackindex>1</trackindex>
					</sourcetrack>
					<link>
						<linkclipref>DYR18110_01 5</linkclipref>
						<mediatype>video</mediatype>
						<trackindex>1</trackindex>
						<clipindex>79</clipindex>
					</link>
					<link>
						<linkclipref>DYR18110_01 6</linkclipref>
						<mediatype>audio</mediatype>
						<trackindex>1</trackindex>
						<clipindex>77</clipindex>
					</link>
					<link>
						<linkclipref>DYR18110_01 7</linkclipref>
						<mediatype>audio</mediatype>
						<trackindex>2</trackindex>
						<clipindex>75</clipindex>
					</link>
					<itemhistory>
						<uuid>7C8023D4-0761-47DD-B165-F29AC9EA73BC</uuid>
					</itemhistory>
				</clipitem>
				<clipitem id="DYR18110_01 9">
					<name>DYR18110_01</name>
					<duration>1835</duration>
					<rate>
						<ntsc>FALSE</ntsc>
						<timebase>25</timebase>
					</rate>
					<in>1679</in>
					<out>1739</out>
					<start>8609</start>
					<end>8669</end>
					<subframeoffset>0</subframeoffset>
					<masterclipid>DYR18110_01 1</masterclipid>
					<logginginfo>
						<scene/>
						<shottake/>
						<lognote/>
						<good>FALSE</good>
					</logginginfo>
					<labels>
						<label2/>
					</labels>
					<comments>
						<mastercomment1/>
						<mastercomment2/>
						<mastercomment3/>
						<mastercomment4/>
					</comments>
					<file id="DYR18110_01 2"/>
					<filter>
						<effect>
							<name>Audio Levels</name>
							<effectid>audiolevels</effectid>
							<effectcategory>audiolevels</effectcategory>
							<effecttype>audiolevels</effecttype>
							<mediatype>audio</mediatype>
							<parameter>
								<name>Level</name>
								<parameterid>level</parameterid>
								<valuemin>0</valuemin>
								<valuemax>3.98109</valuemax>
								<value>1</value>
							</parameter>
						</effect>
					</filter>
					<filter>
						<effect>
							<name>Audio Pan</name>
							<effectid>audiopan</effectid>
							<effectcategory>audiopan</effectcategory>
							<effecttype>audiopan</effecttype>
							<mediatype>audio</mediatype>
							<parameter>
								<name>Pan</name>
								<parameterid>pan</parameterid>
								<valuemin>-1</valuemin>
								<valuemax>1</valuemax>
								<value>0</value>
							</parameter>
						</effect>
					</filter>
					<sourcetrack>
						<mediatype>audio</mediatype>
						<trackindex>1</trackindex>
					</sourcetrack>
					<link>
						<linkclipref>DYR18110_01 8</linkclipref>
						<mediatype>video</mediatype>
						<trackindex>1</trackindex>
						<clipindex>80</clipindex>
					</link>
					<link>
						<linkclipref>DYR18110_01 9</linkclipref>
						<mediatype>audio</mediatype>
						<trackindex>1</trackindex>
						<clipindex>78</clipindex>
					</link>
					<link>
						<linkclipref>DYR18110_01 10</linkclipref>
						<mediatype>audio</mediatype>
						<trackindex>2</trackindex>
						<clipindex>76</clipindex>
					</link>
					<itemhistory>
						<uuid>B9E297F6-0065-418D-90B5-31D7D1462B7E</uuid>
					</itemhistory>
				</clipitem>
				<clipitem id="DYR18104_01 5">
					<name>DYR18104_01</name>
					<duration>1992</duration>
					<rate>
						<ntsc>FALSE</ntsc>
						<timebase>25</timebase>
					</rate>
					<in>1465</in>
					<out>1494</out>
					<start>8669</start>
					<end>8698</end>
					<subframeoffset>0</subframeoffset>
					<enabled>TRUE</enabled>
					<masterclipid>DYR18104_01 1</masterclipid>
					<logginginfo>
						<scene/>
						<shottake/>
						<lognote/>
						<good>FALSE</good>
					</logginginfo>
					<labels>
						<label2/>
					</labels>
					<comments>
						<mastercomment1/>
						<mastercomment2/>
						<mastercomment3/>
						<mastercomment4/>
					</comments>
					<file id="DYR18104_01 2"/>
					<filter>
						<effect>
							<name>Audio Levels</name>
							<effectid>audiolevels</effectid>
							<effectcategory>audiolevels</effectcategory>
							<effecttype>audiolevels</effecttype>
							<mediatype>audio</mediatype>
							<parameter>
								<name>Level</name>
								<parameterid>level</parameterid>
								<valuemin>0</valuemin>
								<valuemax>3.98109</valuemax>
								<value>1</value>
							</parameter>
						</effect>
					</filter>
					<filter>
						<effect>
							<name>Audio Pan</name>
							<effectid>audiopan</effectid>
							<effectcategory>audiopan</effectcategory>
							<effecttype>audiopan</effecttype>
							<mediatype>audio</mediatype>
							<parameter>
								<name>Pan</name>
								<parameterid>pan</parameterid>
								<valuemin>-1</valuemin>
								<valuemax>1</valuemax>
								<value>0</value>
							</parameter>
						</effect>
					</filter>
					<sourcetrack>
						<mediatype>audio</mediatype>
						<trackindex>1</trackindex>
					</sourcetrack>
					<link>
						<linkclipref>DYR18104_01 4</linkclipref>
						<mediatype>video</mediatype>
						<trackindex>1</trackindex>
						<clipindex>81</clipindex>
					</link>
					<link>
						<linkclipref>DYR18104_01 5</linkclipref>
						<mediatype>audio</mediatype>
						<trackindex>1</trackindex>
						<clipindex>79</clipindex>
					</link>
					<itemhistory>
						<uuid>7E1C92A5-0425-4031-B73A-23B43D646E0E</uuid>
					</itemhistory>
				</clipitem>
				<clipitem id="DYR18110_01 12">
					<name>DYR18110_01</name>
					<duration>1835</duration>
					<rate>
						<ntsc>FALSE</ntsc>
						<timebase>25</timebase>
					</rate>
					<in>1587</in>
					<out>1632</out>
					<start>8698</start>
					<end>8743</end>
					<subframeoffset>0</subframeoffset>
					<masterclipid>DYR18110_01 1</masterclipid>
					<logginginfo>
						<scene/>
						<shottake/>
						<lognote/>
						<good>FALSE</good>
					</logginginfo>
					<labels>
						<label2/>
					</labels>
					<comments>
						<mastercomment1/>
						<mastercomment2/>
						<mastercomment3/>
						<mastercomment4/>
					</comments>
					<file id="DYR18110_01 2"/>
					<filter>
						<effect>
							<name>Audio Levels</name>
							<effectid>audiolevels</effectid>
							<effectcategory>audiolevels</effectcategory>
							<effecttype>audiolevels</effecttype>
							<mediatype>audio</mediatype>
							<parameter>
								<name>Level</name>
								<parameterid>level</parameterid>
								<valuemin>0</valuemin>
								<valuemax>3.98109</valuemax>
								<value>1</value>
							</parameter>
						</effect>
					</filter>
					<filter>
						<effect>
							<name>Audio Pan</name>
							<effectid>audiopan</effectid>
							<effectcategory>audiopan</effectcategory>
							<effecttype>audiopan</effecttype>
							<mediatype>audio</mediatype>
							<parameter>
								<name>Pan</name>
								<parameterid>pan</parameterid>
								<valuemin>-1</valuemin>
								<valuemax>1</valuemax>
								<value>0</value>
							</parameter>
						</effect>
					</filter>
					<sourcetrack>
						<mediatype>audio</mediatype>
						<trackindex>1</trackindex>
					</sourcetrack>
					<link>
						<linkclipref>DYR18110_01 11</linkclipref>
						<mediatype>video</mediatype>
						<trackindex>1</trackindex>
						<clipindex>82</clipindex>
					</link>
					<link>
						<linkclipref>DYR18110_01 12</linkclipref>
						<mediatype>audio</mediatype>
						<trackindex>1</trackindex>
						<clipindex>80</clipindex>
					</link>
					<link>
						<linkclipref>DYR18110_01 13</linkclipref>
						<mediatype>audio</mediatype>
						<trackindex>2</trackindex>
						<clipindex>77</clipindex>
					</link>
					<itemhistory>
						<uuid>0D98817A-C8A4-4F6E-B43A-3BE9BB7EE20A</uuid>
					</itemhistory>
				</clipitem>
				<clipitem id="DYR18112_01 3">
					<name>DYR18112_01</name>
					<duration>1428</duration>
					<rate>
						<ntsc>FALSE</ntsc>
						<timebase>25</timebase>
					</rate>
					<in>118</in>
					<out>212</out>
					<start>8743</start>
					<end>8837</end>
					<subframeoffset>0</subframeoffset>
					<masterclipid>DYR18112_01 1</masterclipid>
					<logginginfo>
						<scene/>
						<shottake/>
						<lognote/>
						<good>FALSE</good>
					</logginginfo>
					<labels>
						<label2/>
					</labels>
					<comments>
						<mastercomment1/>
						<mastercomment2/>
						<mastercomment3/>
						<mastercomment4/>
					</comments>
					<file id="DYR18112_01 2"/>
					<filter>
						<effect>
							<name>Audio Levels</name>
							<effectid>audiolevels</effectid>
							<effectcategory>audiolevels</effectcategory>
							<effecttype>audiolevels</effecttype>
							<mediatype>audio</mediatype>
							<parameter>
								<name>Level</name>
								<parameterid>level</parameterid>
								<valuemin>0</valuemin>
								<valuemax>3.98109</valuemax>
								<value>1</value>
							</parameter>
						</effect>
					</filter>
					<filter>
						<effect>
							<name>Audio Pan</name>
							<effectid>audiopan</effectid>
							<effectcategory>audiopan</effectcategory>
							<effecttype>audiopan</effecttype>
							<mediatype>audio</mediatype>
							<parameter>
								<name>Pan</name>
								<parameterid>pan</parameterid>
								<valuemin>-1</valuemin>
								<valuemax>1</valuemax>
								<value>0</value>
							</parameter>
						</effect>
					</filter>
					<sourcetrack>
						<mediatype>audio</mediatype>
						<trackindex>1</trackindex>
					</sourcetrack>
					<link>
						<linkclipref>DYR18112_01 </linkclipref>
						<mediatype>video</mediatype>
						<trackindex>1</trackindex>
						<clipindex>83</clipindex>
					</link>
					<link>
						<linkclipref>DYR18112_01 3</linkclipref>
						<mediatype>audio</mediatype>
						<trackindex>1</trackindex>
						<clipindex>81</clipindex>
					</link>
					<link>
						<linkclipref>DYR18112_01 4</linkclipref>
						<mediatype>audio</mediatype>
						<trackindex>2</trackindex>
						<clipindex>78</clipindex>
					</link>
					<itemhistory>
						<uuid>7F4DAF13-D71A-4769-914F-329F8DF04F4D</uuid>
					</itemhistory>
				</clipitem>
				<clipitem id="DYR18112_01 6">
					<name>DYR18112_01</name>
					<duration>1428</duration>
					<rate>
						<ntsc>FALSE</ntsc>
						<timebase>25</timebase>
					</rate>
					<in>192</in>
					<out>380</out>
					<start>8837</start>
					<end>9025</end>
					<subframeoffset>0</subframeoffset>
					<masterclipid>DYR18112_01 1</masterclipid>
					<logginginfo>
						<scene/>
						<shottake/>
						<lognote/>
						<good>FALSE</good>
					</logginginfo>
					<labels>
						<label2/>
					</labels>
					<comments>
						<mastercomment1/>
						<mastercomment2/>
						<mastercomment3/>
						<mastercomment4/>
					</comments>
					<file id="DYR18112_01 2"/>
					<filter>
						<effect>
							<name>Audio Levels</name>
							<effectid>audiolevels</effectid>
							<effectcategory>audiolevels</effectcategory>
							<effecttype>audiolevels</effecttype>
							<mediatype>audio</mediatype>
							<parameter>
								<name>Level</name>
								<parameterid>level</parameterid>
								<valuemin>0</valuemin>
								<valuemax>3.98109</valuemax>
								<value>1</value>
							</parameter>
						</effect>
					</filter>
					<filter>
						<effect>
							<name>Audio Pan</name>
							<effectid>audiopan</effectid>
							<effectcategory>audiopan</effectcategory>
							<effecttype>audiopan</effecttype>
							<mediatype>audio</mediatype>
							<parameter>
								<name>Pan</name>
								<parameterid>pan</parameterid>
								<valuemin>-1</valuemin>
								<valuemax>1</valuemax>
								<value>0</value>
							</parameter>
						</effect>
					</filter>
					<sourcetrack>
						<mediatype>audio</mediatype>
						<trackindex>1</trackindex>
					</sourcetrack>
					<link>
						<linkclipref>DYR18112_01 5</linkclipref>
						<mediatype>video</mediatype>
						<trackindex>1</trackindex>
						<clipindex>85</clipindex>
					</link>
					<link>
						<linkclipref>DYR18112_01 6</linkclipref>
						<mediatype>audio</mediatype>
						<trackindex>1</trackindex>
						<clipindex>82</clipindex>
					</link>
					<link>
						<linkclipref>DYR18112_01 7</linkclipref>
						<mediatype>audio</mediatype>
						<trackindex>2</trackindex>
						<clipindex>79</clipindex>
					</link>
					<itemhistory>
						<uuid>87917EED-4107-4BD7-A4D3-0CC20BAB54D8</uuid>
					</itemhistory>
				</clipitem>
				<clipitem id="DYR18117_01 3">
					<name>DYR18117_01</name>
					<duration>758</duration>
					<rate>
						<ntsc>FALSE</ntsc>
						<timebase>25</timebase>
					</rate>
					<in>206</in>
					<out>278</out>
					<start>9063</start>
					<end>9135</end>
					<subframeoffset>0</subframeoffset>
					<masterclipid>DYR18117_01 1</masterclipid>
					<logginginfo>
						<scene/>
						<shottake/>
						<lognote/>
						<good>FALSE</good>
					</logginginfo>
					<labels>
						<label2/>
					</labels>
					<comments>
						<mastercomment1/>
						<mastercomment2/>
						<mastercomment3/>
						<mastercomment4/>
					</comments>
					<file id="DYR18117_01 2"/>
					<filter>
						<effect>
							<name>Audio Levels</name>
							<effectid>audiolevels</effectid>
							<effectcategory>audiolevels</effectcategory>
							<effecttype>audiolevels</effecttype>
							<mediatype>audio</mediatype>
							<parameter>
								<name>Level</name>
								<parameterid>level</parameterid>
								<valuemin>0</valuemin>
								<valuemax>3.98109</valuemax>
								<value>1</value>
							</parameter>
						</effect>
					</filter>
					<filter>
						<effect>
							<name>Audio Pan</name>
							<effectid>audiopan</effectid>
							<effectcategory>audiopan</effectcategory>
							<effecttype>audiopan</effecttype>
							<mediatype>audio</mediatype>
							<parameter>
								<name>Pan</name>
								<parameterid>pan</parameterid>
								<valuemin>-1</valuemin>
								<valuemax>1</valuemax>
								<value>0</value>
							</parameter>
						</effect>
					</filter>
					<sourcetrack>
						<mediatype>audio</mediatype>
						<trackindex>1</trackindex>
					</sourcetrack>
					<itemhistory>
						<uuid>0AE91298-7CBF-4F76-AF46-F8EFBDCC535F</uuid>
					</itemhistory>
				</clipitem>
				<clipitem id="DYR18117_01 4">
					<name>DYR18117_01</name>
					<duration>758</duration>
					<rate>
						<ntsc>FALSE</ntsc>
						<timebase>25</timebase>
					</rate>
					<in>93</in>
					<out>135</out>
					<start>9135</start>
					<end>9177</end>
					<subframeoffset>0</subframeoffset>
					<masterclipid>DYR18117_01 1</masterclipid>
					<logginginfo>
						<scene/>
						<shottake/>
						<lognote/>
						<good>FALSE</good>
					</logginginfo>
					<labels>
						<label2/>
					</labels>
					<comments>
						<mastercomment1/>
						<mastercomment2/>
						<mastercomment3/>
						<mastercomment4/>
					</comments>
					<file id="DYR18117_01 2"/>
					<filter>
						<effect>
							<name>Audio Levels</name>
							<effectid>audiolevels</effectid>
							<effectcategory>audiolevels</effectcategory>
							<effecttype>audiolevels</effecttype>
							<mediatype>audio</mediatype>
							<parameter>
								<name>Level</name>
								<parameterid>level</parameterid>
								<valuemin>0</valuemin>
								<valuemax>3.98109</valuemax>
								<value>1</value>
							</parameter>
						</effect>
					</filter>
					<filter>
						<effect>
							<name>Audio Pan</name>
							<effectid>audiopan</effectid>
							<effectcategory>audiopan</effectcategory>
							<effecttype>audiopan</effecttype>
							<mediatype>audio</mediatype>
							<parameter>
								<name>Pan</name>
								<parameterid>pan</parameterid>
								<valuemin>-1</valuemin>
								<valuemax>1</valuemax>
								<value>0</value>
							</parameter>
						</effect>
					</filter>
					<sourcetrack>
						<mediatype>audio</mediatype>
						<trackindex>1</trackindex>
					</sourcetrack>
					<link>
						<linkclipref>DYR18117_01 4</linkclipref>
						<mediatype>audio</mediatype>
						<trackindex>1</trackindex>
						<clipindex>84</clipindex>
					</link>
					<link>
						<linkclipref>DYR18117_01 5</linkclipref>
						<mediatype>audio</mediatype>
						<trackindex>2</trackindex>
						<clipindex>81</clipindex>
					</link>
					<itemhistory>
						<uuid>B22E7090-4994-4DDF-89CB-39AF9EF9DF22</uuid>
					</itemhistory>
				</clipitem>
				<clipitem id="DYR18118_01 3">
					<name>DYR18118_01</name>
					<duration>1491</duration>
					<rate>
						<ntsc>FALSE</ntsc>
						<timebase>25</timebase>
					</rate>
					<in>1036</in>
					<out>1130</out>
					<start>9177</start>
					<end>9271</end>
					<subframeoffset>0</subframeoffset>
					<masterclipid>DYR18118_01 1</masterclipid>
					<logginginfo>
						<scene/>
						<shottake/>
						<lognote/>
						<good>FALSE</good>
					</logginginfo>
					<labels>
						<label2/>
					</labels>
					<comments>
						<mastercomment1/>
						<mastercomment2/>
						<mastercomment3/>
						<mastercomment4/>
					</comments>
					<file id="DYR18118_01 2"/>
					<filter>
						<effect>
							<name>Audio Levels</name>
							<effectid>audiolevels</effectid>
							<effectcategory>audiolevels</effectcategory>
							<effecttype>audiolevels</effecttype>
							<mediatype>audio</mediatype>
							<parameter>
								<name>Level</name>
								<parameterid>level</parameterid>
								<valuemin>0</valuemin>
								<valuemax>3.98109</valuemax>
								<value>1</value>
							</parameter>
						</effect>
					</filter>
					<filter>
						<effect>
							<name>Audio Pan</name>
							<effectid>audiopan</effectid>
							<effectcategory>audiopan</effectcategory>
							<effecttype>audiopan</effecttype>
							<mediatype>audio</mediatype>
							<parameter>
								<name>Pan</name>
								<parameterid>pan</parameterid>
								<valuemin>-1</valuemin>
								<valuemax>1</valuemax>
								<value>0</value>
							</parameter>
						</effect>
					</filter>
					<sourcetrack>
						<mediatype>audio</mediatype>
						<trackindex>1</trackindex>
					</sourcetrack>
					<link>
						<linkclipref>DYR18118_01 </linkclipref>
						<mediatype>video</mediatype>
						<trackindex>1</trackindex>
						<clipindex>87</clipindex>
					</link>
					<link>
						<linkclipref>DYR18118_01 3</linkclipref>
						<mediatype>audio</mediatype>
						<trackindex>1</trackindex>
						<clipindex>85</clipindex>
					</link>
					<link>
						<linkclipref>DYR18118_01 4</linkclipref>
						<mediatype>audio</mediatype>
						<trackindex>2</trackindex>
						<clipindex>82</clipindex>
					</link>
					<itemhistory>
						<uuid>95CFE06C-F07B-4B20-9A15-656F322D020E</uuid>
					</itemhistory>
				</clipitem>
				<clipitem id="DYR18121_01 3">
					<name>DYR18121_01</name>
					<duration>244</duration>
					<rate>
						<ntsc>FALSE</ntsc>
						<timebase>25</timebase>
					</rate>
					<in>69</in>
					<out>140</out>
					<start>9271</start>
					<end>-1</end>
					<subframeoffset>0</subframeoffset>
					<masterclipid>DYR18121_01 1</masterclipid>
					<logginginfo>
						<scene/>
						<shottake/>
						<lognote/>
						<good>FALSE</good>
					</logginginfo>
					<labels>
						<label2/>
					</labels>
					<comments>
						<mastercomment1/>
						<mastercomment2/>
						<mastercomment3/>
						<mastercomment4/>
					</comments>
					<file id="DYR18121_01 2"/>
					<filter>
						<effect>
							<name>Audio Levels</name>
							<effectid>audiolevels</effectid>
							<effectcategory>audiolevels</effectcategory>
							<effecttype>audiolevels</effecttype>
							<mediatype>audio</mediatype>
							<parameter>
								<name>Level</name>
								<parameterid>level</parameterid>
								<valuemin>0</valuemin>
								<valuemax>3.98109</valuemax>
								<value>1</value>
							</parameter>
						</effect>
					</filter>
					<filter>
						<effect>
							<name>Audio Pan</name>
							<effectid>audiopan</effectid>
							<effectcategory>audiopan</effectcategory>
							<effecttype>audiopan</effecttype>
							<mediatype>audio</mediatype>
							<parameter>
								<name>Pan</name>
								<parameterid>pan</parameterid>
								<valuemin>-1</valuemin>
								<valuemax>1</valuemax>
								<value>0</value>
							</parameter>
						</effect>
					</filter>
					<sourcetrack>
						<mediatype>audio</mediatype>
						<trackindex>1</trackindex>
					</sourcetrack>
					<link>
						<linkclipref>DYR18121_01 </linkclipref>
						<mediatype>video</mediatype>
						<trackindex>1</trackindex>
						<clipindex>88</clipindex>
					</link>
					<link>
						<linkclipref>DYR18121_01 3</linkclipref>
						<mediatype>audio</mediatype>
						<trackindex>1</trackindex>
						<clipindex>86</clipindex>
					</link>
					<link>
						<linkclipref>DYR18121_01 4</linkclipref>
						<mediatype>audio</mediatype>
						<trackindex>2</trackindex>
						<clipindex>83</clipindex>
					</link>
					<itemhistory>
						<uuid>12B0354A-329B-4CE0-9572-076F81E2D10B</uuid>
					</itemhistory>
				</clipitem>
				<transitionitem>
					<rate>
						<ntsc>FALSE</ntsc>
						<timebase>25</timebase>
					</rate>
					<start>9332</start>
					<end>9342</end>
					<alignment>center</alignment>
					<effect>
						<name>Cross Fade (+3dB)</name>
						<effectid>KGAudioTransCrossFade3dB</effectid>
						<effecttype>transition</effecttype>
						<mediatype>audio</mediatype>
					</effect>
				</transitionitem>
				<clipitem id="DYR18118_01 6">
					<name>DYR18118_01</name>
					<duration>1491</duration>
					<rate>
						<ntsc>FALSE</ntsc>
						<timebase>25</timebase>
					</rate>
					<in>435</in>
					<out>537</out>
					<start>-1</start>
					<end>-1</end>
					<subframeoffset>0</subframeoffset>
					<masterclipid>DYR18118_01 1</masterclipid>
					<logginginfo>
						<scene/>
						<shottake/>
						<lognote/>
						<good>FALSE</good>
					</logginginfo>
					<labels>
						<label2/>
					</labels>
					<comments>
						<mastercomment1/>
						<mastercomment2/>
						<mastercomment3/>
						<mastercomment4/>
					</comments>
					<file id="DYR18118_01 2"/>
					<filter>
						<effect>
							<name>Audio Levels</name>
							<effectid>audiolevels</effectid>
							<effectcategory>audiolevels</effectcategory>
							<effecttype>audiolevels</effecttype>
							<mediatype>audio</mediatype>
							<parameter>
								<name>Level</name>
								<parameterid>level</parameterid>
								<valuemin>0</valuemin>
								<valuemax>3.98109</valuemax>
								<value>2.51189</value>
							</parameter>
						</effect>
					</filter>
					<filter>
						<effect>
							<name>Audio Pan</name>
							<effectid>audiopan</effectid>
							<effectcategory>audiopan</effectcategory>
							<effecttype>audiopan</effecttype>
							<mediatype>audio</mediatype>
							<parameter>
								<name>Pan</name>
								<parameterid>pan</parameterid>
								<valuemin>-1</valuemin>
								<valuemax>1</valuemax>
								<value>0</value>
							</parameter>
						</effect>
					</filter>
					<sourcetrack>
						<mediatype>audio</mediatype>
						<trackindex>1</trackindex>
					</sourcetrack>
					<link>
						<linkclipref>DYR18118_01 5</linkclipref>
						<mediatype>video</mediatype>
						<trackindex>1</trackindex>
						<clipindex>89</clipindex>
					</link>
					<link>
						<linkclipref>DYR18118_01 6</linkclipref>
						<mediatype>audio</mediatype>
						<trackindex>1</trackindex>
						<clipindex>88</clipindex>
					</link>
					<link>
						<linkclipref>DYR18118_01 7</linkclipref>
						<mediatype>audio</mediatype>
						<trackindex>2</trackindex>
						<clipindex>85</clipindex>
					</link>
					<itemhistory>
						<uuid>02780502-7F7A-457C-8796-3C4918CAAFC8</uuid>
					</itemhistory>
				</clipitem>
				<transitionitem>
					<rate>
						<ntsc>FALSE</ntsc>
						<timebase>25</timebase>
					</rate>
					<start>9424</start>
					<end>9434</end>
					<alignment>center</alignment>
					<effect>
						<name>Cross Fade (+3dB)</name>
						<effectid>KGAudioTransCrossFade3dB</effectid>
						<effecttype>transition</effecttype>
						<mediatype>audio</mediatype>
					</effect>
				</transitionitem>
				<clipitem id="DYR18121_01 5">
					<name>DYR18121_01</name>
					<duration>244</duration>
					<rate>
						<ntsc>FALSE</ntsc>
						<timebase>25</timebase>
					</rate>
					<in>147</in>
					<out>240</out>
					<start>-1</start>
					<end>-1</end>
					<subframeoffset>0</subframeoffset>
					<masterclipid>DYR18121_01 1</masterclipid>
					<logginginfo>
						<scene/>
						<shottake/>
						<lognote/>
						<good>FALSE</good>
					</logginginfo>
					<labels>
						<label2/>
					</labels>
					<comments>
						<mastercomment1/>
						<mastercomment2/>
						<mastercomment3/>
						<mastercomment4/>
					</comments>
					<file id="DYR18121_01 2"/>
					<filter>
						<effect>
							<name>Audio Levels</name>
							<effectid>audiolevels</effectid>
							<effectcategory>audiolevels</effectcategory>
							<effecttype>audiolevels</effecttype>
							<mediatype>audio</mediatype>
							<parameter>
								<name>Level</name>
								<parameterid>level</parameterid>
								<valuemin>0</valuemin>
								<valuemax>3.98109</valuemax>
								<value>0.501187</value>
							</parameter>
						</effect>
					</filter>
					<filter>
						<effect>
							<name>Audio Pan</name>
							<effectid>audiopan</effectid>
							<effectcategory>audiopan</effectcategory>
							<effecttype>audiopan</effecttype>
							<mediatype>audio</mediatype>
							<parameter>
								<name>Pan</name>
								<parameterid>pan</parameterid>
								<valuemin>-1</valuemin>
								<valuemax>1</valuemax>
								<value>0</value>
							</parameter>
						</effect>
					</filter>
					<sourcetrack>
						<mediatype>audio</mediatype>
						<trackindex>1</trackindex>
					</sourcetrack>
					<link>
						<linkclipref>DYR18121_01 5</linkclipref>
						<mediatype>audio</mediatype>
						<trackindex>1</trackindex>
						<clipindex>90</clipindex>
					</link>
					<link>
						<linkclipref>DYR18121_01 6</linkclipref>
						<mediatype>audio</mediatype>
						<trackindex>2</trackindex>
						<clipindex>87</clipindex>
					</link>
					<itemhistory>
						<uuid>FD4ADD96-7EC9-4D07-91C0-E2679650EBFA</uuid>
					</itemhistory>
				</clipitem>
				<transitionitem>
					<rate>
						<ntsc>FALSE</ntsc>
						<timebase>25</timebase>
					</rate>
					<start>9492</start>
					<end>9517</end>
					<alignment>center</alignment>
					<effect>
						<name>Cross Fade (+3dB)</name>
						<effectid>KGAudioTransCrossFade3dB</effectid>
						<effecttype>transition</effecttype>
						<mediatype>audio</mediatype>
					</effect>
				</transitionitem>
				<clipitem id="00729001.MOV2">
					<name>00729001.MOV</name>
					<duration>4884</duration>
					<rate>
						<ntsc>FALSE</ntsc>
						<timebase>25</timebase>
					</rate>
					<in>3808</in>
					<out>4618</out>
					<start>-1</start>
					<end>10302</end>
					<subframeoffset>0</subframeoffset>
					<enabled>TRUE</enabled>
					<masterclipid>00729001.MOV1</masterclipid>
					<syncoffset>0</syncoffset>
					<logginginfo>
						<scene/>
						<shottake/>
						<lognote/>
						<good>FALSE</good>
					</logginginfo>
					<labels>
						<label2/>
					</labels>
					<comments>
						<mastercomment1/>
						<mastercomment2/>
						<mastercomment3/>
						<mastercomment4/>
					</comments>
					<file id="00729001 "/>
					<filter>
						<effect>
							<name>Audio Levels</name>
							<effectid>audiolevels</effectid>
							<effectcategory>audiolevels</effectcategory>
							<effecttype>audiolevels</effecttype>
							<mediatype>audio</mediatype>
							<parameter>
								<name>Level</name>
								<parameterid>level</parameterid>
								<valuemin>0</valuemin>
								<valuemax>3.98109</valuemax>
								<keyframe>
									<when>3832</when>
									<value>1.99526</value>
								</keyframe>
								<keyframe>
									<when>3921.57</when>
									<value>1.99526</value>
								</keyframe>
								<keyframe>
									<when>3946.71</when>
									<value>3.98107</value>
								</keyframe>
								<keyframe>
									<when>4557</when>
									<value>3.98107</value>
								</keyframe>
								<keyframe>
									<when>4613</when>
									<value>0</value>
								</keyframe>
								<interpolation>
									<name>FCPCurve</name>
								</interpolation>
								<value>3.98107</value>
							</parameter>
						</effect>
					</filter>
					<filter>
						<effect>
							<name>Audio Pan</name>
							<effectid>audiopan</effectid>
							<effectcategory>audiopan</effectcategory>
							<effecttype>audiopan</effecttype>
							<mediatype>audio</mediatype>
							<parameter>
								<name>Pan</name>
								<parameterid>pan</parameterid>
								<valuemin>-1</valuemin>
								<valuemax>1</valuemax>
								<value>0</value>
							</parameter>
						</effect>
					</filter>
					<sourcetrack>
						<mediatype>audio</mediatype>
						<trackindex>1</trackindex>
					</sourcetrack>
					<link>
						<linkclipref>00729001.MOV</linkclipref>
						<mediatype>video</mediatype>
						<trackindex>1</trackindex>
						<clipindex>92</clipindex>
					</link>
					<link>
						<linkclipref>00729001.MOV2</linkclipref>
						<mediatype>audio</mediatype>
						<trackindex>1</trackindex>
						<clipindex>92</clipindex>
					</link>
					<link>
						<linkclipref>00729001.MOV3</linkclipref>
						<mediatype>audio</mediatype>
						<trackindex>2</trackindex>
						<clipindex>89</clipindex>
					</link>
					<itemhistory>
						<uuid>010693F1-9CC8-44E6-9ACA-CE3992AB4216</uuid>
					</itemhistory>
				</clipitem>
				<transitionitem>
					<rate>
						<ntsc>FALSE</ntsc>
						<timebase>25</timebase>
					</rate>
					<start>11567</start>
					<end>11592</end>
					<alignment>start-black</alignment>
					<effect>
						<name>Cross Fade (+3dB)</name>
						<effectid>KGAudioTransCrossFade3dB</effectid>
						<effecttype>transition</effecttype>
						<mediatype>audio</mediatype>
					</effect>
				</transitionitem>
				<clipitem id="00731001.MOV2">
					<name>00731001.MOV</name>
					<duration>1008</duration>
					<rate>
						<ntsc>FALSE</ntsc>
						<timebase>25</timebase>
					</rate>
					<in>207</in>
					<out>882</out>
					<start>-1</start>
					<end>12242</end>
					<subframeoffset>0</subframeoffset>
					<masterclipid>00731001.MOV1</masterclipid>
					<syncoffset>0</syncoffset>
					<logginginfo>
						<scene/>
						<shottake/>
						<lognote/>
						<good>FALSE</good>
					</logginginfo>
					<labels>
						<label2/>
					</labels>
					<comments>
						<mastercomment1/>
						<mastercomment2/>
						<mastercomment3/>
						<mastercomment4/>
					</comments>
					<file id="00731001 "/>
					<filter>
						<effect>
							<name>Audio Levels</name>
							<effectid>audiolevels</effectid>
							<effectcategory>audiolevels</effectcategory>
							<effecttype>audiolevels</effecttype>
							<mediatype>audio</mediatype>
							<parameter>
								<name>Level</name>
								<parameterid>level</parameterid>
								<valuemin>0</valuemin>
								<valuemax>3.98109</valuemax>
								<value>2.51189</value>
							</parameter>
						</effect>
					</filter>
					<filter>
						<effect>
							<name>Audio Pan</name>
							<effectid>audiopan</effectid>
							<effectcategory>audiopan</effectcategory>
							<effecttype>audiopan</effecttype>
							<mediatype>audio</mediatype>
							<parameter>
								<name>Pan</name>
								<parameterid>pan</parameterid>
								<valuemin>-1</valuemin>
								<valuemax>1</valuemax>
								<value>0</value>
							</parameter>
						</effect>
					</filter>
					<sourcetrack>
						<mediatype>audio</mediatype>
						<trackindex>1</trackindex>
					</sourcetrack>
					<link>
						<linkclipref>00731001.MOV</linkclipref>
						<mediatype>video</mediatype>
						<trackindex>2</trackindex>
						<clipindex>27</clipindex>
					</link>
					<link>
						<linkclipref>00731001.MOV2</linkclipref>
						<mediatype>audio</mediatype>
						<trackindex>1</trackindex>
						<clipindex>94</clipindex>
					</link>
					<link>
						<linkclipref>00731001.MOV3</linkclipref>
						<mediatype>audio</mediatype>
						<trackindex>2</trackindex>
						<clipindex>98</clipindex>
					</link>
					<itemhistory>
						<uuid>B3DA1FA8-9485-4504-AF86-80C09AB397CA</uuid>
					</itemhistory>
				</clipitem>
				<clipitem id="00735001.MOV2">
					<name>00735001.MOV</name>
					<duration>1308</duration>
					<rate>
						<ntsc>FALSE</ntsc>
						<timebase>25</timebase>
					</rate>
					<in>841</in>
					<out>945</out>
					<start>12242</start>
					<end>12346</end>
					<subframeoffset>0</subframeoffset>
					<enabled>TRUE</enabled>
					<masterclipid>00735001.MOV1</masterclipid>
					<syncoffset>0</syncoffset>
					<logginginfo>
						<scene/>
						<shottake/>
						<lognote/>
						<good>FALSE</good>
					</logginginfo>
					<labels>
						<label2/>
					</labels>
					<comments>
						<mastercomment1/>
						<mastercomment2/>
						<mastercomment3/>
						<mastercomment4/>
					</comments>
					<file id="00735001 "/>
					<filter>
						<effect>
							<name>Audio Levels</name>
							<effectid>audiolevels</effectid>
							<effectcategory>audiolevels</effectcategory>
							<effecttype>audiolevels</effecttype>
							<mediatype>audio</mediatype>
							<parameter>
								<name>Level</name>
								<parameterid>level</parameterid>
								<valuemin>0</valuemin>
								<valuemax>3.98109</valuemax>
								<value>1.41254</value>
							</parameter>
						</effect>
					</filter>
					<filter>
						<effect>
							<name>Audio Pan</name>
							<effectid>audiopan</effectid>
							<effectcategory>audiopan</effectcategory>
							<effecttype>audiopan</effecttype>
							<mediatype>audio</mediatype>
							<parameter>
								<name>Pan</name>
								<parameterid>pan</parameterid>
								<valuemin>-1</valuemin>
								<valuemax>1</valuemax>
								<value>0</value>
							</parameter>
						</effect>
					</filter>
					<sourcetrack>
						<mediatype>audio</mediatype>
						<trackindex>1</trackindex>
					</sourcetrack>
					<link>
						<linkclipref>00735001.MOV</linkclipref>
						<mediatype>video</mediatype>
						<trackindex>1</trackindex>
						<clipindex>102</clipindex>
					</link>
					<link>
						<linkclipref>00735001.MOV2</linkclipref>
						<mediatype>audio</mediatype>
						<trackindex>1</trackindex>
						<clipindex>95</clipindex>
					</link>
					<link>
						<linkclipref>00735001.MOV3</linkclipref>
						<mediatype>audio</mediatype>
						<trackindex>2</trackindex>
						<clipindex>99</clipindex>
					</link>
					<itemhistory>
						<uuid>0CAA5194-70DD-4F29-B6A7-CEFFB634E13A</uuid>
					</itemhistory>
				</clipitem>
				<clipitem id="00735001.MOV5">
					<name>00735001.MOV</name>
					<duration>1308</duration>
					<rate>
						<ntsc>FALSE</ntsc>
						<timebase>25</timebase>
					</rate>
					<in>945</in>
					<out>1153</out>
					<start>12430</start>
					<end>12638</end>
					<subframeoffset>0</subframeoffset>
					<enabled>TRUE</enabled>
					<masterclipid>00735001.MOV1</masterclipid>
					<syncoffset>0</syncoffset>
					<logginginfo>
						<scene/>
						<shottake/>
						<lognote/>
						<good>FALSE</good>
					</logginginfo>
					<labels>
						<label2/>
					</labels>
					<comments>
						<mastercomment1/>
						<mastercomment2/>
						<mastercomment3/>
						<mastercomment4/>
					</comments>
					<file id="00735001 "/>
					<filter>
						<effect>
							<name>Audio Levels</name>
							<effectid>audiolevels</effectid>
							<effectcategory>audiolevels</effectcategory>
							<effecttype>audiolevels</effecttype>
							<mediatype>audio</mediatype>
							<parameter>
								<name>Level</name>
								<parameterid>level</parameterid>
								<valuemin>0</valuemin>
								<valuemax>3.98109</valuemax>
								<value>3.98107</value>
							</parameter>
						</effect>
					</filter>
					<filter>
						<effect>
							<name>Audio Pan</name>
							<effectid>audiopan</effectid>
							<effectcategory>audiopan</effectcategory>
							<effecttype>audiopan</effecttype>
							<mediatype>audio</mediatype>
							<parameter>
								<name>Pan</name>
								<parameterid>pan</parameterid>
								<valuemin>-1</valuemin>
								<valuemax>1</valuemax>
								<value>0</value>
							</parameter>
						</effect>
					</filter>
					<sourcetrack>
						<mediatype>audio</mediatype>
						<trackindex>1</trackindex>
					</sourcetrack>
					<link>
						<linkclipref>00735001.MOV4</linkclipref>
						<mediatype>video</mediatype>
						<trackindex>1</trackindex>
						<clipindex>103</clipindex>
					</link>
					<link>
						<linkclipref>00735001.MOV5</linkclipref>
						<mediatype>audio</mediatype>
						<trackindex>1</trackindex>
						<clipindex>96</clipindex>
					</link>
					<link>
						<linkclipref>00735001.MOV6</linkclipref>
						<mediatype>audio</mediatype>
						<trackindex>2</trackindex>
						<clipindex>100</clipindex>
					</link>
					<itemhistory>
						<uuid>693670C5-18EA-4F4F-AA29-DBC3E87ECA51</uuid>
					</itemhistory>
				</clipitem>
				<clipitem id="00736001.MOV2">
					<name>00736001.MOV</name>
					<duration>552</duration>
					<rate>
						<ntsc>FALSE</ntsc>
						<timebase>25</timebase>
					</rate>
					<in>296</in>
					<out>383</out>
					<start>12638</start>
					<end>-1</end>
					<subframeoffset>0</subframeoffset>
					<masterclipid>00736001.MOV1</masterclipid>
					<logginginfo>
						<scene/>
						<shottake/>
						<lognote/>
						<good>FALSE</good>
					</logginginfo>
					<labels>
						<label2/>
					</labels>
					<comments>
						<mastercomment1/>
						<mastercomment2/>
						<mastercomment3/>
						<mastercomment4/>
					</comments>
					<file id="00736001 "/>
					<filter>
						<effect>
							<name>Audio Levels</name>
							<effectid>audiolevels</effectid>
							<effectcategory>audiolevels</effectcategory>
							<effecttype>audiolevels</effecttype>
							<mediatype>audio</mediatype>
							<parameter>
								<name>Level</name>
								<parameterid>level</parameterid>
								<valuemin>0</valuemin>
								<valuemax>3.98109</valuemax>
								<value>1</value>
							</parameter>
						</effect>
					</filter>
					<filter>
						<effect>
							<name>Audio Pan</name>
							<effectid>audiopan</effectid>
							<effectcategory>audiopan</effectcategory>
							<effecttype>audiopan</effecttype>
							<mediatype>audio</mediatype>
							<parameter>
								<name>Pan</name>
								<parameterid>pan</parameterid>
								<valuemin>-1</valuemin>
								<valuemax>1</valuemax>
								<value>0</value>
							</parameter>
						</effect>
					</filter>
					<sourcetrack>
						<mediatype>audio</mediatype>
						<trackindex>1</trackindex>
					</sourcetrack>
					<link>
						<linkclipref>00736001.MOV</linkclipref>
						<mediatype>video</mediatype>
						<trackindex>1</trackindex>
						<clipindex>104</clipindex>
					</link>
					<link>
						<linkclipref>00736001.MOV2</linkclipref>
						<mediatype>audio</mediatype>
						<trackindex>1</trackindex>
						<clipindex>97</clipindex>
					</link>
					<link>
						<linkclipref>00736001.MOV3</linkclipref>
						<mediatype>audio</mediatype>
						<trackindex>2</trackindex>
						<clipindex>101</clipindex>
					</link>
					<itemhistory>
						<uuid>20A236E9-E7F7-417F-8EE2-168C202C34BA</uuid>
					</itemhistory>
				</clipitem>
				<transitionitem>
					<rate>
						<ntsc>FALSE</ntsc>
						<timebase>25</timebase>
					</rate>
					<start>12715</start>
					<end>12725</end>
					<alignment>center</alignment>
					<effect>
						<name>Cross Fade (+3dB)</name>
						<effectid>KGAudioTransCrossFade3dB</effectid>
						<effecttype>transition</effecttype>
						<mediatype>audio</mediatype>
					</effect>
				</transitionitem>
				<clipitem id="00740001.MOV2">
					<name>00740001.MOV</name>
					<duration>1440</duration>
					<rate>
						<ntsc>FALSE</ntsc>
						<timebase>25</timebase>
					</rate>
					<in>986</in>
					<out>1360</out>
					<start>-1</start>
					<end>13089</end>
					<subframeoffset>0</subframeoffset>
					<enabled>TRUE</enabled>
					<masterclipid>00740001.MOV1</masterclipid>
					<logginginfo>
						<scene/>
						<shottake/>
						<lognote/>
						<good>FALSE</good>
					</logginginfo>
					<labels>
						<label2/>
					</labels>
					<comments>
						<mastercomment1/>
						<mastercomment2/>
						<mastercomment3/>
						<mastercomment4/>
					</comments>
					<file id="00740001 "/>
					<filter>
						<effect>
							<name>Audio Levels</name>
							<effectid>audiolevels</effectid>
							<effectcategory>audiolevels</effectcategory>
							<effecttype>audiolevels</effecttype>
							<mediatype>audio</mediatype>
							<parameter>
								<name>Level</name>
								<parameterid>level</parameterid>
								<valuemin>0</valuemin>
								<valuemax>3.98109</valuemax>
								<value>1.25893</value>
							</parameter>
						</effect>
					</filter>
					<filter>
						<effect>
							<name>Audio Pan</name>
							<effectid>audiopan</effectid>
							<effectcategory>audiopan</effectcategory>
							<effecttype>audiopan</effecttype>
							<mediatype>audio</mediatype>
							<parameter>
								<name>Pan</name>
								<parameterid>pan</parameterid>
								<valuemin>-1</valuemin>
								<valuemax>1</valuemax>
								<value>0</value>
							</parameter>
						</effect>
					</filter>
					<sourcetrack>
						<mediatype>audio</mediatype>
						<trackindex>1</trackindex>
					</sourcetrack>
					<link>
						<linkclipref>00740001.MOV</linkclipref>
						<mediatype>video</mediatype>
						<trackindex>1</trackindex>
						<clipindex>105</clipindex>
					</link>
					<link>
						<linkclipref>00740001.MOV2</linkclipref>
						<mediatype>audio</mediatype>
						<trackindex>1</trackindex>
						<clipindex>99</clipindex>
					</link>
					<link>
						<linkclipref>00740001.MOV3</linkclipref>
						<mediatype>audio</mediatype>
						<trackindex>2</trackindex>
						<clipindex>103</clipindex>
					</link>
					<itemhistory>
						<uuid>B858EA9B-BEA4-4DC9-A93C-57F9A14E4FA9</uuid>
					</itemhistory>
				</clipitem>
				<clipitem id="00742001.MOV2">
					<name>00742001.MOV</name>
					<duration>780</duration>
					<rate>
						<ntsc>FALSE</ntsc>
						<timebase>25</timebase>
					</rate>
					<in>433</in>
					<out>610</out>
					<start>13089</start>
					<end>13266</end>
					<subframeoffset>0</subframeoffset>
					<enabled>TRUE</enabled>
					<masterclipid>00742001.MOV1</masterclipid>
					<logginginfo>
						<scene/>
						<shottake/>
						<lognote/>
						<good>FALSE</good>
					</logginginfo>
					<labels>
						<label2/>
					</labels>
					<comments>
						<mastercomment1/>
						<mastercomment2/>
						<mastercomment3/>
						<mastercomment4/>
					</comments>
					<file id="00742001 "/>
					<filter>
						<effect>
							<name>Audio Levels</name>
							<effectid>audiolevels</effectid>
							<effectcategory>audiolevels</effectcategory>
							<effecttype>audiolevels</effecttype>
							<mediatype>audio</mediatype>
							<parameter>
								<name>Level</name>
								<parameterid>level</parameterid>
								<valuemin>0</valuemin>
								<valuemax>3.98109</valuemax>
								<value>1.99526</value>
							</parameter>
						</effect>
					</filter>
					<filter>
						<effect>
							<name>Audio Pan</name>
							<effectid>audiopan</effectid>
							<effectcategory>audiopan</effectcategory>
							<effecttype>audiopan</effecttype>
							<mediatype>audio</mediatype>
							<parameter>
								<name>Pan</name>
								<parameterid>pan</parameterid>
								<valuemin>-1</valuemin>
								<valuemax>1</valuemax>
								<value>0</value>
							</parameter>
						</effect>
					</filter>
					<sourcetrack>
						<mediatype>audio</mediatype>
						<trackindex>1</trackindex>
					</sourcetrack>
					<link>
						<linkclipref>00742001.MOV</linkclipref>
						<mediatype>video</mediatype>
						<trackindex>1</trackindex>
						<clipindex>106</clipindex>
					</link>
					<link>
						<linkclipref>00742001.MOV2</linkclipref>
						<mediatype>audio</mediatype>
						<trackindex>1</trackindex>
						<clipindex>100</clipindex>
					</link>
					<link>
						<linkclipref>00742001.MOV3</linkclipref>
						<mediatype>audio</mediatype>
						<trackindex>2</trackindex>
						<clipindex>104</clipindex>
					</link>
					<itemhistory>
						<uuid>9FEA08EB-93D2-4341-8571-334471487E6C</uuid>
					</itemhistory>
				</clipitem>
				<clipitem id="00748001.MOV2">
					<name>00748001.MOV</name>
					<duration>2712</duration>
					<rate>
						<ntsc>FALSE</ntsc>
						<timebase>25</timebase>
					</rate>
					<in>230</in>
					<out>426</out>
					<start>13266</start>
					<end>13462</end>
					<subframeoffset>0</subframeoffset>
					<enabled>TRUE</enabled>
					<masterclipid>00748001.MOV1</masterclipid>
					<logginginfo>
						<scene/>
						<shottake/>
						<lognote/>
						<good>FALSE</good>
					</logginginfo>
					<labels>
						<label2/>
					</labels>
					<comments>
						<mastercomment1/>
						<mastercomment2/>
						<mastercomment3/>
						<mastercomment4/>
					</comments>
					<file id="00748001 "/>
					<filter>
						<effect>
							<name>Audio Levels</name>
							<effectid>audiolevels</effectid>
							<effectcategory>audiolevels</effectcategory>
							<effecttype>audiolevels</effecttype>
							<mediatype>audio</mediatype>
							<parameter>
								<name>Level</name>
								<parameterid>level</parameterid>
								<valuemin>0</valuemin>
								<valuemax>3.98109</valuemax>
								<value>1</value>
							</parameter>
						</effect>
					</filter>
					<filter>
						<effect>
							<name>Audio Pan</name>
							<effectid>audiopan</effectid>
							<effectcategory>audiopan</effectcategory>
							<effecttype>audiopan</effecttype>
							<mediatype>audio</mediatype>
							<parameter>
								<name>Pan</name>
								<parameterid>pan</parameterid>
								<valuemin>-1</valuemin>
								<valuemax>1</valuemax>
								<value>0</value>
							</parameter>
						</effect>
					</filter>
					<sourcetrack>
						<mediatype>audio</mediatype>
						<trackindex>1</trackindex>
					</sourcetrack>
					<link>
						<linkclipref>00748001.MOV</linkclipref>
						<mediatype>video</mediatype>
						<trackindex>1</trackindex>
						<clipindex>107</clipindex>
					</link>
					<link>
						<linkclipref>00748001.MOV2</linkclipref>
						<mediatype>audio</mediatype>
						<trackindex>1</trackindex>
						<clipindex>101</clipindex>
					</link>
					<link>
						<linkclipref>00748001.MOV3</linkclipref>
						<mediatype>audio</mediatype>
						<trackindex>2</trackindex>
						<clipindex>105</clipindex>
					</link>
					<itemhistory>
						<uuid>7C4FBE4A-AF11-48AC-895E-BA24ABF22F19</uuid>
					</itemhistory>
				</clipitem>
				<clipitem id="00748001.MOV6">
					<name>00748001.MOV</name>
					<duration>2712</duration>
					<rate>
						<ntsc>FALSE</ntsc>
						<timebase>25</timebase>
					</rate>
					<in>546</in>
					<out>571</out>
					<start>13462</start>
					<end>13487</end>
					<subframeoffset>0</subframeoffset>
					<masterclipid>00748001.MOV1</masterclipid>
					<logginginfo>
						<scene/>
						<shottake/>
						<lognote/>
						<good>FALSE</good>
					</logginginfo>
					<labels>
						<label2/>
					</labels>
					<comments>
						<mastercomment1/>
						<mastercomment2/>
						<mastercomment3/>
						<mastercomment4/>
					</comments>
					<file id="00748001 "/>
					<filter>
						<effect>
							<name>Audio Levels</name>
							<effectid>audiolevels</effectid>
							<effectcategory>audiolevels</effectcategory>
							<effecttype>audiolevels</effecttype>
							<mediatype>audio</mediatype>
							<parameter>
								<name>Level</name>
								<parameterid>level</parameterid>
								<valuemin>0</valuemin>
								<valuemax>3.98109</valuemax>
								<value>2.23872</value>
							</parameter>
						</effect>
					</filter>
					<filter>
						<effect>
							<name>Audio Pan</name>
							<effectid>audiopan</effectid>
							<effectcategory>audiopan</effectcategory>
							<effecttype>audiopan</effecttype>
							<mediatype>audio</mediatype>
							<parameter>
								<name>Pan</name>
								<parameterid>pan</parameterid>
								<valuemin>-1</valuemin>
								<valuemax>1</valuemax>
								<value>0</value>
							</parameter>
						</effect>
					</filter>
					<sourcetrack>
						<mediatype>audio</mediatype>
						<trackindex>1</trackindex>
					</sourcetrack>
					<link>
						<linkclipref>00748001.MOV6</linkclipref>
						<mediatype>audio</mediatype>
						<trackindex>1</trackindex>
						<clipindex>102</clipindex>
					</link>
					<link>
						<linkclipref>00748001.MOV7</linkclipref>
						<mediatype>audio</mediatype>
						<trackindex>2</trackindex>
						<clipindex>106</clipindex>
					</link>
					<itemhistory>
						<uuid>E1266948-167B-4C2E-8341-4626A95B7A79</uuid>
					</itemhistory>
				</clipitem>
				<clipitem id="00748001.MOV8">
					<name>00748001.MOV</name>
					<duration>2712</duration>
					<rate>
						<ntsc>FALSE</ntsc>
						<timebase>25</timebase>
					</rate>
					<in>509</in>
					<out>535</out>
					<start>13487</start>
					<end>13513</end>
					<subframeoffset>0</subframeoffset>
					<masterclipid>00748001.MOV1</masterclipid>
					<logginginfo>
						<scene/>
						<shottake/>
						<lognote/>
						<good>FALSE</good>
					</logginginfo>
					<labels>
						<label2/>
					</labels>
					<comments>
						<mastercomment1/>
						<mastercomment2/>
						<mastercomment3/>
						<mastercomment4/>
					</comments>
					<file id="00748001 "/>
					<filter>
						<effect>
							<name>Audio Levels</name>
							<effectid>audiolevels</effectid>
							<effectcategory>audiolevels</effectcategory>
							<effecttype>audiolevels</effecttype>
							<mediatype>audio</mediatype>
							<parameter>
								<name>Level</name>
								<parameterid>level</parameterid>
								<valuemin>0</valuemin>
								<valuemax>3.98109</valuemax>
								<value>2.23872</value>
							</parameter>
						</effect>
					</filter>
					<filter>
						<effect>
							<name>Audio Pan</name>
							<effectid>audiopan</effectid>
							<effectcategory>audiopan</effectcategory>
							<effecttype>audiopan</effecttype>
							<mediatype>audio</mediatype>
							<parameter>
								<name>Pan</name>
								<parameterid>pan</parameterid>
								<valuemin>-1</valuemin>
								<valuemax>1</valuemax>
								<value>0</value>
							</parameter>
						</effect>
					</filter>
					<sourcetrack>
						<mediatype>audio</mediatype>
						<trackindex>1</trackindex>
					</sourcetrack>
					<link>
						<linkclipref>00748001.MOV8</linkclipref>
						<mediatype>audio</mediatype>
						<trackindex>1</trackindex>
						<clipindex>103</clipindex>
					</link>
					<link>
						<linkclipref>00748001.MOV9</linkclipref>
						<mediatype>audio</mediatype>
						<trackindex>2</trackindex>
						<clipindex>107</clipindex>
					</link>
					<itemhistory>
						<uuid>0F51805A-4864-4503-A0CB-24C109B423AB</uuid>
					</itemhistory>
				</clipitem>
				<clipitem id="00748001.MOV10">
					<name>00748001.MOV</name>
					<duration>2712</duration>
					<rate>
						<ntsc>FALSE</ntsc>
						<timebase>25</timebase>
					</rate>
					<in>639</in>
					<out>669</out>
					<start>13513</start>
					<end>13543</end>
					<subframeoffset>0</subframeoffset>
					<enabled>TRUE</enabled>
					<masterclipid>00748001.MOV1</masterclipid>
					<logginginfo>
						<scene/>
						<shottake/>
						<lognote/>
						<good>FALSE</good>
					</logginginfo>
					<labels>
						<label2/>
					</labels>
					<comments>
						<mastercomment1/>
						<mastercomment2/>
						<mastercomment3/>
						<mastercomment4/>
					</comments>
					<file id="00748001 "/>
					<filter>
						<effect>
							<name>Audio Levels</name>
							<effectid>audiolevels</effectid>
							<effectcategory>audiolevels</effectcategory>
							<effecttype>audiolevels</effecttype>
							<mediatype>audio</mediatype>
							<parameter>
								<name>Level</name>
								<parameterid>level</parameterid>
								<valuemin>0</valuemin>
								<valuemax>3.98109</valuemax>
								<value>2.23872</value>
							</parameter>
						</effect>
					</filter>
					<filter>
						<effect>
							<name>Audio Pan</name>
							<effectid>audiopan</effectid>
							<effectcategory>audiopan</effectcategory>
							<effecttype>audiopan</effecttype>
							<mediatype>audio</mediatype>
							<parameter>
								<name>Pan</name>
								<parameterid>pan</parameterid>
								<valuemin>-1</valuemin>
								<valuemax>1</valuemax>
								<value>0</value>
							</parameter>
						</effect>
					</filter>
					<sourcetrack>
						<mediatype>audio</mediatype>
						<trackindex>1</trackindex>
					</sourcetrack>
					<link>
						<linkclipref>00748001.MOV10</linkclipref>
						<mediatype>audio</mediatype>
						<trackindex>1</trackindex>
						<clipindex>104</clipindex>
					</link>
					<link>
						<linkclipref>00748001.MOV11</linkclipref>
						<mediatype>audio</mediatype>
						<trackindex>2</trackindex>
						<clipindex>108</clipindex>
					</link>
					<itemhistory>
						<uuid>1574F9FB-B060-4BCF-91CC-5B9E863812F0</uuid>
					</itemhistory>
				</clipitem>
				<clipitem id="00769001.MOV8">
					<name>00769001.MOV</name>
					<duration>708</duration>
					<rate>
						<ntsc>FALSE</ntsc>
						<timebase>25</timebase>
					</rate>
					<in>71</in>
					<out>96</out>
					<start>13543</start>
					<end>13568</end>
					<subframeoffset>0</subframeoffset>
					<masterclipid>00769001.MOV1</masterclipid>
					<logginginfo>
						<scene/>
						<shottake/>
						<lognote/>
						<good>FALSE</good>
					</logginginfo>
					<labels>
						<label2/>
					</labels>
					<comments>
						<mastercomment1/>
						<mastercomment2/>
						<mastercomment3/>
						<mastercomment4/>
					</comments>
					<file id="00769001 "/>
					<filter>
						<effect>
							<name>Audio Levels</name>
							<effectid>audiolevels</effectid>
							<effectcategory>audiolevels</effectcategory>
							<effecttype>audiolevels</effecttype>
							<mediatype>audio</mediatype>
							<parameter>
								<name>Level</name>
								<parameterid>level</parameterid>
								<valuemin>0</valuemin>
								<valuemax>3.98109</valuemax>
								<value>0</value>
							</parameter>
						</effect>
					</filter>
					<filter>
						<effect>
							<name>Audio Pan</name>
							<effectid>audiopan</effectid>
							<effectcategory>audiopan</effectcategory>
							<effecttype>audiopan</effecttype>
							<mediatype>audio</mediatype>
							<parameter>
								<name>Pan</name>
								<parameterid>pan</parameterid>
								<valuemin>-1</valuemin>
								<valuemax>1</valuemax>
								<value>0</value>
							</parameter>
						</effect>
					</filter>
					<sourcetrack>
						<mediatype>audio</mediatype>
						<trackindex>1</trackindex>
					</sourcetrack>
					<link>
						<linkclipref>00769001.MOV8</linkclipref>
						<mediatype>audio</mediatype>
						<trackindex>1</trackindex>
						<clipindex>105</clipindex>
					</link>
					<link>
						<linkclipref>00769001.MOV9</linkclipref>
						<mediatype>audio</mediatype>
						<trackindex>2</trackindex>
						<clipindex>109</clipindex>
					</link>
					<itemhistory>
						<uuid>D0407377-1760-4540-AA68-F701664BEBB0</uuid>
					</itemhistory>
				</clipitem>
				<clipitem id="00748001.MOV12">
					<name>00748001.MOV</name>
					<duration>2712</duration>
					<rate>
						<ntsc>FALSE</ntsc>
						<timebase>25</timebase>
					</rate>
					<in>1478</in>
					<out>2282</out>
					<start>13568</start>
					<end>14372</end>
					<subframeoffset>0</subframeoffset>
					<enabled>TRUE</enabled>
					<masterclipid>00748001.MOV1</masterclipid>
					<logginginfo>
						<scene/>
						<shottake/>
						<lognote/>
						<good>FALSE</good>
					</logginginfo>
					<labels>
						<label2/>
					</labels>
					<comments>
						<mastercomment1/>
						<mastercomment2/>
						<mastercomment3/>
						<mastercomment4/>
					</comments>
					<file id="00748001 "/>
					<filter>
						<effect>
							<name>Audio Levels</name>
							<effectid>audiolevels</effectid>
							<effectcategory>audiolevels</effectcategory>
							<effecttype>audiolevels</effecttype>
							<mediatype>audio</mediatype>
							<parameter>
								<name>Level</name>
								<parameterid>level</parameterid>
								<valuemin>0</valuemin>
								<valuemax>3.98109</valuemax>
								<value>1.77828</value>
							</parameter>
						</effect>
					</filter>
					<filter>
						<effect>
							<name>Audio Pan</name>
							<effectid>audiopan</effectid>
							<effectcategory>audiopan</effectcategory>
							<effecttype>audiopan</effecttype>
							<mediatype>audio</mediatype>
							<parameter>
								<name>Pan</name>
								<parameterid>pan</parameterid>
								<valuemin>-1</valuemin>
								<valuemax>1</valuemax>
								<value>0</value>
							</parameter>
						</effect>
					</filter>
					<sourcetrack>
						<mediatype>audio</mediatype>
						<trackindex>1</trackindex>
					</sourcetrack>
					<link>
						<linkclipref>00748001.MOV12</linkclipref>
						<mediatype>audio</mediatype>
						<trackindex>1</trackindex>
						<clipindex>106</clipindex>
					</link>
					<link>
						<linkclipref>00748001.MOV13</linkclipref>
						<mediatype>audio</mediatype>
						<trackindex>2</trackindex>
						<clipindex>110</clipindex>
					</link>
					<itemhistory>
						<uuid>BE416B02-0D4E-4965-B0D3-ACA5AD10EC66</uuid>
					</itemhistory>
				</clipitem>
				<clipitem id="00750001.MOV2">
					<name>00750001.MOV</name>
					<duration>468</duration>
					<rate>
						<ntsc>FALSE</ntsc>
						<timebase>25</timebase>
					</rate>
					<in>284</in>
					<out>351</out>
					<start>14372</start>
					<end>14439</end>
					<subframeoffset>0</subframeoffset>
					<enabled>TRUE</enabled>
					<masterclipid>00750001.MOV1</masterclipid>
					<logginginfo>
						<scene/>
						<shottake/>
						<lognote/>
						<good>FALSE</good>
					</logginginfo>
					<labels>
						<label2/>
					</labels>
					<comments>
						<mastercomment1/>
						<mastercomment2/>
						<mastercomment3/>
						<mastercomment4/>
					</comments>
					<file id="00750001 "/>
					<filter>
						<effect>
							<name>Audio Levels</name>
							<effectid>audiolevels</effectid>
							<effectcategory>audiolevels</effectcategory>
							<effecttype>audiolevels</effecttype>
							<mediatype>audio</mediatype>
							<parameter>
								<name>Level</name>
								<parameterid>level</parameterid>
								<valuemin>0</valuemin>
								<valuemax>3.98109</valuemax>
								<value>1</value>
							</parameter>
						</effect>
					</filter>
					<filter>
						<effect>
							<name>Audio Pan</name>
							<effectid>audiopan</effectid>
							<effectcategory>audiopan</effectcategory>
							<effecttype>audiopan</effecttype>
							<mediatype>audio</mediatype>
							<parameter>
								<name>Pan</name>
								<parameterid>pan</parameterid>
								<valuemin>-1</valuemin>
								<valuemax>1</valuemax>
								<value>0</value>
							</parameter>
						</effect>
					</filter>
					<sourcetrack>
						<mediatype>audio</mediatype>
						<trackindex>1</trackindex>
					</sourcetrack>
					<link>
						<linkclipref>00750001.MOV</linkclipref>
						<mediatype>video</mediatype>
						<trackindex>1</trackindex>
						<clipindex>110</clipindex>
					</link>
					<link>
						<linkclipref>00750001.MOV2</linkclipref>
						<mediatype>audio</mediatype>
						<trackindex>1</trackindex>
						<clipindex>107</clipindex>
					</link>
					<link>
						<linkclipref>00750001.MOV3</linkclipref>
						<mediatype>audio</mediatype>
						<trackindex>2</trackindex>
						<clipindex>111</clipindex>
					</link>
					<itemhistory>
						<uuid>8313E698-FA4F-4F17-BBD4-10066AAD141F</uuid>
					</itemhistory>
				</clipitem>
				<clipitem id="00767001.MOV9">
					<name>00767001.MOV</name>
					<duration>4836</duration>
					<rate>
						<ntsc>FALSE</ntsc>
						<timebase>25</timebase>
					</rate>
					<in>1188</in>
					<out>1344</out>
					<start>14439</start>
					<end>14595</end>
					<subframeoffset>0</subframeoffset>
					<masterclipid>00767001.MOV1</masterclipid>
					<logginginfo>
						<scene/>
						<shottake/>
						<lognote/>
						<good>FALSE</good>
					</logginginfo>
					<labels>
						<label2/>
					</labels>
					<comments>
						<mastercomment1/>
						<mastercomment2/>
						<mastercomment3/>
						<mastercomment4/>
					</comments>
					<file id="00767001 "/>
					<filter>
						<effect>
							<name>Audio Levels</name>
							<effectid>audiolevels</effectid>
							<effectcategory>audiolevels</effectcategory>
							<effecttype>audiolevels</effecttype>
							<mediatype>audio</mediatype>
							<parameter>
								<name>Level</name>
								<parameterid>level</parameterid>
								<valuemin>0</valuemin>
								<valuemax>3.98109</valuemax>
								<value>2.23872</value>
							</parameter>
						</effect>
					</filter>
					<filter>
						<effect>
							<name>Audio Pan</name>
							<effectid>audiopan</effectid>
							<effectcategory>audiopan</effectcategory>
							<effecttype>audiopan</effecttype>
							<mediatype>audio</mediatype>
							<parameter>
								<name>Pan</name>
								<parameterid>pan</parameterid>
								<valuemin>-1</valuemin>
								<valuemax>1</valuemax>
								<value>0</value>
							</parameter>
						</effect>
					</filter>
					<sourcetrack>
						<mediatype>audio</mediatype>
						<trackindex>1</trackindex>
					</sourcetrack>
					<link>
						<linkclipref>00767001.MOV9</linkclipref>
						<mediatype>audio</mediatype>
						<trackindex>1</trackindex>
						<clipindex>108</clipindex>
					</link>
					<link>
						<linkclipref>00767001.MOV10</linkclipref>
						<mediatype>audio</mediatype>
						<trackindex>2</trackindex>
						<clipindex>112</clipindex>
					</link>
					<itemhistory>
						<uuid>23709B10-79C2-4365-BCC3-9FB50BC419B9</uuid>
					</itemhistory>
				</clipitem>
				<clipitem id="00752001.MOV2">
					<name>00752001.MOV</name>
					<duration>4716</duration>
					<rate>
						<ntsc>FALSE</ntsc>
						<timebase>25</timebase>
					</rate>
					<in>855</in>
					<out>863</out>
					<start>14595</start>
					<end>14603</end>
					<subframeoffset>0</subframeoffset>
					<enabled>TRUE</enabled>
					<masterclipid>00752001.MOV1</masterclipid>
					<logginginfo>
						<scene/>
						<shottake/>
						<lognote/>
						<good>FALSE</good>
					</logginginfo>
					<labels>
						<label2/>
					</labels>
					<comments>
						<mastercomment1/>
						<mastercomment2/>
						<mastercomment3/>
						<mastercomment4/>
					</comments>
					<file id="00752001 "/>
					<filter>
						<effect>
							<name>Audio Levels</name>
							<effectid>audiolevels</effectid>
							<effectcategory>audiolevels</effectcategory>
							<effecttype>audiolevels</effecttype>
							<mediatype>audio</mediatype>
							<parameter>
								<name>Level</name>
								<parameterid>level</parameterid>
								<valuemin>0</valuemin>
								<valuemax>3.98109</valuemax>
								<value>1</value>
							</parameter>
						</effect>
					</filter>
					<filter>
						<effect>
							<name>Audio Pan</name>
							<effectid>audiopan</effectid>
							<effectcategory>audiopan</effectcategory>
							<effecttype>audiopan</effecttype>
							<mediatype>audio</mediatype>
							<parameter>
								<name>Pan</name>
								<parameterid>pan</parameterid>
								<valuemin>-1</valuemin>
								<valuemax>1</valuemax>
								<value>0</value>
							</parameter>
						</effect>
					</filter>
					<sourcetrack>
						<mediatype>audio</mediatype>
						<trackindex>1</trackindex>
					</sourcetrack>
					<link>
						<linkclipref>00752001.MOV</linkclipref>
						<mediatype>video</mediatype>
						<trackindex>1</trackindex>
						<clipindex>111</clipindex>
					</link>
					<link>
						<linkclipref>00752001.MOV2</linkclipref>
						<mediatype>audio</mediatype>
						<trackindex>1</trackindex>
						<clipindex>109</clipindex>
					</link>
					<link>
						<linkclipref>00752001.MOV3</linkclipref>
						<mediatype>audio</mediatype>
						<trackindex>2</trackindex>
						<clipindex>113</clipindex>
					</link>
					<itemhistory>
						<uuid>076B2DBD-A13F-43E5-9225-D89330172D3F</uuid>
					</itemhistory>
				</clipitem>
				<clipitem id="00767001.MOV11">
					<name>00767001.MOV</name>
					<duration>4836</duration>
					<rate>
						<ntsc>FALSE</ntsc>
						<timebase>25</timebase>
					</rate>
					<in>485</in>
					<out>502</out>
					<start>14603</start>
					<end>14620</end>
					<subframeoffset>0</subframeoffset>
					<masterclipid>00767001.MOV1</masterclipid>
					<logginginfo>
						<scene/>
						<shottake/>
						<lognote/>
						<good>FALSE</good>
					</logginginfo>
					<labels>
						<label2/>
					</labels>
					<comments>
						<mastercomment1/>
						<mastercomment2/>
						<mastercomment3/>
						<mastercomment4/>
					</comments>
					<file id="00767001 "/>
					<filter>
						<effect>
							<name>Audio Levels</name>
							<effectid>audiolevels</effectid>
							<effectcategory>audiolevels</effectcategory>
							<effecttype>audiolevels</effecttype>
							<mediatype>audio</mediatype>
							<parameter>
								<name>Level</name>
								<parameterid>level</parameterid>
								<valuemin>0</valuemin>
								<valuemax>3.98109</valuemax>
								<value>1</value>
							</parameter>
						</effect>
					</filter>
					<filter>
						<effect>
							<name>Audio Pan</name>
							<effectid>audiopan</effectid>
							<effectcategory>audiopan</effectcategory>
							<effecttype>audiopan</effecttype>
							<mediatype>audio</mediatype>
							<parameter>
								<name>Pan</name>
								<parameterid>pan</parameterid>
								<valuemin>-1</valuemin>
								<valuemax>1</valuemax>
								<value>0</value>
							</parameter>
						</effect>
					</filter>
					<sourcetrack>
						<mediatype>audio</mediatype>
						<trackindex>1</trackindex>
					</sourcetrack>
					<link>
						<linkclipref>00767001.MOV11</linkclipref>
						<mediatype>audio</mediatype>
						<trackindex>1</trackindex>
						<clipindex>110</clipindex>
					</link>
					<link>
						<linkclipref>00767001.MOV12</linkclipref>
						<mediatype>audio</mediatype>
						<trackindex>2</trackindex>
						<clipindex>114</clipindex>
					</link>
					<itemhistory>
						<uuid>4284C719-1E9F-4F19-AD35-20E0D7BAD0E9</uuid>
					</itemhistory>
				</clipitem>
				<clipitem id="00767001.MOV13">
					<name>00767001.MOV</name>
					<duration>4836</duration>
					<rate>
						<ntsc>FALSE</ntsc>
						<timebase>25</timebase>
					</rate>
					<in>403</in>
					<out>453</out>
					<start>14620</start>
					<end>14670</end>
					<subframeoffset>0</subframeoffset>
					<enabled>TRUE</enabled>
					<masterclipid>00767001.MOV1</masterclipid>
					<logginginfo>
						<scene/>
						<shottake/>
						<lognote/>
						<good>FALSE</good>
					</logginginfo>
					<labels>
						<label2/>
					</labels>
					<comments>
						<mastercomment1/>
						<mastercomment2/>
						<mastercomment3/>
						<mastercomment4/>
					</comments>
					<file id="00767001 "/>
					<filter>
						<effect>
							<name>Audio Levels</name>
							<effectid>audiolevels</effectid>
							<effectcategory>audiolevels</effectcategory>
							<effecttype>audiolevels</effecttype>
							<mediatype>audio</mediatype>
							<parameter>
								<name>Level</name>
								<parameterid>level</parameterid>
								<valuemin>0</valuemin>
								<valuemax>3.98109</valuemax>
								<value>1</value>
							</parameter>
						</effect>
					</filter>
					<filter>
						<effect>
							<name>Audio Pan</name>
							<effectid>audiopan</effectid>
							<effectcategory>audiopan</effectcategory>
							<effecttype>audiopan</effecttype>
							<mediatype>audio</mediatype>
							<parameter>
								<name>Pan</name>
								<parameterid>pan</parameterid>
								<valuemin>-1</valuemin>
								<valuemax>1</valuemax>
								<value>0</value>
							</parameter>
						</effect>
					</filter>
					<sourcetrack>
						<mediatype>audio</mediatype>
						<trackindex>1</trackindex>
					</sourcetrack>
					<itemhistory>
						<uuid>776EF530-00D0-4BF2-9EAD-982B02978AC0</uuid>
					</itemhistory>
				</clipitem>
				<clipitem id="00767001.MOV14">
					<name>00767001.MOV</name>
					<duration>4836</duration>
					<rate>
						<ntsc>FALSE</ntsc>
						<timebase>25</timebase>
					</rate>
					<in>1393</in>
					<out>1425</out>
					<start>14670</start>
					<end>14702</end>
					<subframeoffset>0</subframeoffset>
					<enabled>TRUE</enabled>
					<masterclipid>00767001.MOV1</masterclipid>
					<logginginfo>
						<scene/>
						<shottake/>
						<lognote/>
						<good>FALSE</good>
					</logginginfo>
					<labels>
						<label2/>
					</labels>
					<comments>
						<mastercomment1/>
						<mastercomment2/>
						<mastercomment3/>
						<mastercomment4/>
					</comments>
					<file id="00767001 "/>
					<filter>
						<effect>
							<name>Audio Levels</name>
							<effectid>audiolevels</effectid>
							<effectcategory>audiolevels</effectcategory>
							<effecttype>audiolevels</effecttype>
							<mediatype>audio</mediatype>
							<parameter>
								<name>Level</name>
								<parameterid>level</parameterid>
								<valuemin>0</valuemin>
								<valuemax>3.98109</valuemax>
								<value>2.23872</value>
							</parameter>
						</effect>
					</filter>
					<filter>
						<effect>
							<name>Audio Pan</name>
							<effectid>audiopan</effectid>
							<effectcategory>audiopan</effectcategory>
							<effecttype>audiopan</effecttype>
							<mediatype>audio</mediatype>
							<parameter>
								<name>Pan</name>
								<parameterid>pan</parameterid>
								<valuemin>-1</valuemin>
								<valuemax>1</valuemax>
								<value>0</value>
							</parameter>
						</effect>
					</filter>
					<sourcetrack>
						<mediatype>audio</mediatype>
						<trackindex>1</trackindex>
					</sourcetrack>
					<link>
						<linkclipref>00767001.MOV14</linkclipref>
						<mediatype>audio</mediatype>
						<trackindex>1</trackindex>
						<clipindex>112</clipindex>
					</link>
					<link>
						<linkclipref>00767001.MOV15</linkclipref>
						<mediatype>audio</mediatype>
						<trackindex>2</trackindex>
						<clipindex>116</clipindex>
					</link>
					<itemhistory>
						<uuid>48B310D6-D91C-476F-9BFF-ECD5B452B49E</uuid>
					</itemhistory>
				</clipitem>
				<clipitem id="00767001.MOV16">
					<name>00767001.MOV</name>
					<duration>4836</duration>
					<rate>
						<ntsc>FALSE</ntsc>
						<timebase>25</timebase>
					</rate>
					<in>1452</in>
					<out>1548</out>
					<start>14702</start>
					<end>14798</end>
					<subframeoffset>0</subframeoffset>
					<masterclipid>00767001.MOV1</masterclipid>
					<logginginfo>
						<scene/>
						<shottake/>
						<lognote/>
						<good>FALSE</good>
					</logginginfo>
					<labels>
						<label2/>
					</labels>
					<comments>
						<mastercomment1/>
						<mastercomment2/>
						<mastercomment3/>
						<mastercomment4/>
					</comments>
					<file id="00767001 "/>
					<filter>
						<effect>
							<name>Audio Levels</name>
							<effectid>audiolevels</effectid>
							<effectcategory>audiolevels</effectcategory>
							<effecttype>audiolevels</effecttype>
							<mediatype>audio</mediatype>
							<parameter>
								<name>Level</name>
								<parameterid>level</parameterid>
								<valuemin>0</valuemin>
								<valuemax>3.98109</valuemax>
								<value>2.23872</value>
							</parameter>
						</effect>
					</filter>
					<filter>
						<effect>
							<name>Audio Pan</name>
							<effectid>audiopan</effectid>
							<effectcategory>audiopan</effectcategory>
							<effecttype>audiopan</effecttype>
							<mediatype>audio</mediatype>
							<parameter>
								<name>Pan</name>
								<parameterid>pan</parameterid>
								<valuemin>-1</valuemin>
								<valuemax>1</valuemax>
								<value>0</value>
							</parameter>
						</effect>
					</filter>
					<sourcetrack>
						<mediatype>audio</mediatype>
						<trackindex>1</trackindex>
					</sourcetrack>
					<link>
						<linkclipref>00767001.MOV16</linkclipref>
						<mediatype>audio</mediatype>
						<trackindex>1</trackindex>
						<clipindex>113</clipindex>
					</link>
					<link>
						<linkclipref>00767001.MOV17</linkclipref>
						<mediatype>audio</mediatype>
						<trackindex>2</trackindex>
						<clipindex>117</clipindex>
					</link>
					<itemhistory>
						<uuid>37E73658-38DB-49F2-967A-16B89B96B531</uuid>
					</itemhistory>
				</clipitem>
				<clipitem id="00767001.MOV18">
					<name>00767001.MOV</name>
					<duration>4836</duration>
					<rate>
						<ntsc>FALSE</ntsc>
						<timebase>25</timebase>
					</rate>
					<in>3270</in>
					<out>3329</out>
					<start>14798</start>
					<end>14857</end>
					<subframeoffset>0</subframeoffset>
					<masterclipid>00767001.MOV1</masterclipid>
					<logginginfo>
						<scene/>
						<shottake/>
						<lognote/>
						<good>FALSE</good>
					</logginginfo>
					<labels>
						<label2/>
					</labels>
					<comments>
						<mastercomment1/>
						<mastercomment2/>
						<mastercomment3/>
						<mastercomment4/>
					</comments>
					<file id="00767001 "/>
					<filter>
						<effect>
							<name>Audio Levels</name>
							<effectid>audiolevels</effectid>
							<effectcategory>audiolevels</effectcategory>
							<effecttype>audiolevels</effecttype>
							<mediatype>audio</mediatype>
							<parameter>
								<name>Level</name>
								<parameterid>level</parameterid>
								<valuemin>0</valuemin>
								<valuemax>3.98109</valuemax>
								<value>2.23872</value>
							</parameter>
						</effect>
					</filter>
					<filter>
						<effect>
							<name>Audio Pan</name>
							<effectid>audiopan</effectid>
							<effectcategory>audiopan</effectcategory>
							<effecttype>audiopan</effecttype>
							<mediatype>audio</mediatype>
							<parameter>
								<name>Pan</name>
								<parameterid>pan</parameterid>
								<valuemin>-1</valuemin>
								<valuemax>1</valuemax>
								<value>0</value>
							</parameter>
						</effect>
					</filter>
					<sourcetrack>
						<mediatype>audio</mediatype>
						<trackindex>1</trackindex>
					</sourcetrack>
					<link>
						<linkclipref>00767001.MOV18</linkclipref>
						<mediatype>audio</mediatype>
						<trackindex>1</trackindex>
						<clipindex>114</clipindex>
					</link>
					<link>
						<linkclipref>00767001.MOV19</linkclipref>
						<mediatype>audio</mediatype>
						<trackindex>2</trackindex>
						<clipindex>118</clipindex>
					</link>
					<itemhistory>
						<uuid>51C56FC2-F2C2-4D67-A96C-132EC92B4BA9</uuid>
					</itemhistory>
					<filter>
						<effect>
							<name>Time Remap</name>
							<effectid>timeremap</effectid>
							<effectcategory>motion</effectcategory>
							<effecttype>motion</effecttype>
							<mediatype>audio</mediatype>
							<parameter>
								<parameterid>variablespeed</parameterid>
								<name>variablespeed</name>
								<valuemin>0</valuemin>
								<valuemax>1</valuemax>
								<value>0</value>
							</parameter>
							<parameter>
								<parameterid>mappedduration</parameterid>
								<name>mappedduration</name>
								<value>
									<timecode>
										<rate>
											<timebase>0</timebase>
										</rate>
										<string>0</string>
										<frame>0</frame>
										<displayformat>NDF</displayformat>
									</timecode>
								</value>
							</parameter>
							<parameter>
								<parameterid>speed</parameterid>
								<name>speed</name>
								<valuemin>-10000</valuemin>
								<valuemax>10000</valuemax>
								<value>100</value>
							</parameter>
							<parameter>
								<parameterid>reverse</parameterid>
								<name>reverse</name>
								<value>TRUE</value>
							</parameter>
							<parameter>
								<parameterid>frameblending</parameterid>
								<name>frameblending</name>
								<value>TRUE</value>
							</parameter>
							<parameter>
								<parameterid>graphdict</parameterid>
								<name>graphdict</name>
								<valuemin>0</valuemin>
								<valuemax>4835</valuemax>
								<keyframe>
									<when>0</when>
									<value>4837</value>
									<speedkfstart>TRUE</speedkfstart>
									<speedvirtualkf>TRUE</speedvirtualkf>
								</keyframe>
								<keyframe>
									<when>3270</when>
									<value>1566</value>
									<speedkfin>TRUE</speedkfin>
									<speedvirtualkf>TRUE</speedvirtualkf>
								</keyframe>
								<keyframe>
									<when>3329</when>
									<value>1507</value>
									<speedkfout>TRUE</speedkfout>
									<speedvirtualkf>TRUE</speedvirtualkf>
								</keyframe>
								<keyframe>
									<when>4836</when>
									<value>1</value>
									<speedkfend>TRUE</speedkfend>
									<speedvirtualkf>TRUE</speedvirtualkf>
								</keyframe>
								<interpolation>
									<name>FCPCurve</name>
								</interpolation>
								<value>1565</value>
							</parameter>
						</effect>
					</filter>
				</clipitem>
				<clipitem id="00767001.MOV4">
					<name>00767001.MOV</name>
					<duration>4836</duration>
					<rate>
						<ntsc>FALSE</ntsc>
						<timebase>25</timebase>
					</rate>
					<in>1514</in>
					<out>1918</out>
					<start>14857</start>
					<end>15261</end>
					<subframeoffset>0</subframeoffset>
					<masterclipid>00767001.MOV1</masterclipid>
					<syncoffset>0</syncoffset>
					<logginginfo>
						<scene/>
						<shottake/>
						<lognote/>
						<good>FALSE</good>
					</logginginfo>
					<labels>
						<label2/>
					</labels>
					<comments>
						<mastercomment1/>
						<mastercomment2/>
						<mastercomment3/>
						<mastercomment4/>
					</comments>
					<file id="00767001 "/>
					<filter>
						<effect>
							<name>Audio Levels</name>
							<effectid>audiolevels</effectid>
							<effectcategory>audiolevels</effectcategory>
							<effecttype>audiolevels</effecttype>
							<mediatype>audio</mediatype>
							<parameter>
								<name>Level</name>
								<parameterid>level</parameterid>
								<valuemin>0</valuemin>
								<valuemax>3.98109</valuemax>
								<value>2.23872</value>
							</parameter>
						</effect>
					</filter>
					<filter>
						<effect>
							<name>Audio Pan</name>
							<effectid>audiopan</effectid>
							<effectcategory>audiopan</effectcategory>
							<effecttype>audiopan</effecttype>
							<mediatype>audio</mediatype>
							<parameter>
								<name>Pan</name>
								<parameterid>pan</parameterid>
								<valuemin>-1</valuemin>
								<valuemax>1</valuemax>
								<value>0</value>
							</parameter>
						</effect>
					</filter>
					<sourcetrack>
						<mediatype>audio</mediatype>
						<trackindex>1</trackindex>
					</sourcetrack>
					<link>
						<linkclipref>00767001.MOV3</linkclipref>
						<mediatype>video</mediatype>
						<trackindex>1</trackindex>
						<clipindex>116</clipindex>
					</link>
					<link>
						<linkclipref>00767001.MOV4</linkclipref>
						<mediatype>audio</mediatype>
						<trackindex>1</trackindex>
						<clipindex>115</clipindex>
					</link>
					<link>
						<linkclipref>00767001.MOV5</linkclipref>
						<mediatype>audio</mediatype>
						<trackindex>2</trackindex>
						<clipindex>119</clipindex>
					</link>
					<itemhistory>
						<uuid>C4F7BF22-2181-4371-82B7-438D727910EA</uuid>
					</itemhistory>
				</clipitem>
				<clipitem id="00764001.MOV2">
					<name>00764001.MOV</name>
					<duration>5664</duration>
					<rate>
						<ntsc>FALSE</ntsc>
						<timebase>25</timebase>
					</rate>
					<in>1260</in>
					<out>1354</out>
					<start>15261</start>
					<end>-1</end>
					<subframeoffset>0</subframeoffset>
					<masterclipid>00764001.MOV1</masterclipid>
					<logginginfo>
						<scene/>
						<shottake/>
						<lognote/>
						<good>FALSE</good>
					</logginginfo>
					<labels>
						<label2/>
					</labels>
					<comments>
						<mastercomment1/>
						<mastercomment2/>
						<mastercomment3/>
						<mastercomment4/>
					</comments>
					<file id="00764001 "/>
					<filter>
						<effect>
							<name>Audio Levels</name>
							<effectid>audiolevels</effectid>
							<effectcategory>audiolevels</effectcategory>
							<effecttype>audiolevels</effecttype>
							<mediatype>audio</mediatype>
							<parameter>
								<name>Level</name>
								<parameterid>level</parameterid>
								<valuemin>0</valuemin>
								<valuemax>3.98109</valuemax>
								<value>1</value>
							</parameter>
						</effect>
					</filter>
					<filter>
						<effect>
							<name>Audio Pan</name>
							<effectid>audiopan</effectid>
							<effectcategory>audiopan</effectcategory>
							<effecttype>audiopan</effecttype>
							<mediatype>audio</mediatype>
							<parameter>
								<name>Pan</name>
								<parameterid>pan</parameterid>
								<valuemin>-1</valuemin>
								<valuemax>1</valuemax>
								<value>0</value>
							</parameter>
						</effect>
					</filter>
					<sourcetrack>
						<mediatype>audio</mediatype>
						<trackindex>1</trackindex>
					</sourcetrack>
					<link>
						<linkclipref>00764001.MOV</linkclipref>
						<mediatype>video</mediatype>
						<trackindex>2</trackindex>
						<clipindex>34</clipindex>
					</link>
					<link>
						<linkclipref>00764001.MOV2</linkclipref>
						<mediatype>audio</mediatype>
						<trackindex>1</trackindex>
						<clipindex>116</clipindex>
					</link>
					<link>
						<linkclipref>00764001.MOV3</linkclipref>
						<mediatype>audio</mediatype>
						<trackindex>2</trackindex>
						<clipindex>120</clipindex>
					</link>
					<itemhistory>
						<uuid>54C6B7A3-35E5-4F76-BE09-62E94649BD58</uuid>
					</itemhistory>
				</clipitem>
				<transitionitem>
					<rate>
						<ntsc>FALSE</ntsc>
						<timebase>25</timebase>
					</rate>
					<start>15352</start>
					<end>15355</end>
					<alignment>center</alignment>
					<effect>
						<name>Cross Fade (+3dB)</name>
						<effectid>KGAudioTransCrossFade3dB</effectid>
						<effecttype>transition</effecttype>
						<mediatype>audio</mediatype>
					</effect>
				</transitionitem>
				<clipitem id="00764001.MOV4">
					<name>00764001.MOV</name>
					<duration>5664</duration>
					<rate>
						<ntsc>FALSE</ntsc>
						<timebase>25</timebase>
					</rate>
					<in>1359</in>
					<out>1564</out>
					<start>-1</start>
					<end>15557</end>
					<subframeoffset>0</subframeoffset>
					<masterclipid>00764001.MOV1</masterclipid>
					<logginginfo>
						<scene/>
						<shottake/>
						<lognote/>
						<good>FALSE</good>
					</logginginfo>
					<labels>
						<label2/>
					</labels>
					<comments>
						<mastercomment1/>
						<mastercomment2/>
						<mastercomment3/>
						<mastercomment4/>
					</comments>
					<file id="00764001 "/>
					<filter>
						<effect>
							<name>Audio Levels</name>
							<effectid>audiolevels</effectid>
							<effectcategory>audiolevels</effectcategory>
							<effecttype>audiolevels</effecttype>
							<mediatype>audio</mediatype>
							<parameter>
								<name>Level</name>
								<parameterid>level</parameterid>
								<valuemin>0</valuemin>
								<valuemax>3.98109</valuemax>
								<value>1</value>
							</parameter>
						</effect>
					</filter>
					<filter>
						<effect>
							<name>Audio Pan</name>
							<effectid>audiopan</effectid>
							<effectcategory>audiopan</effectcategory>
							<effecttype>audiopan</effecttype>
							<mediatype>audio</mediatype>
							<parameter>
								<name>Pan</name>
								<parameterid>pan</parameterid>
								<valuemin>-1</valuemin>
								<valuemax>1</valuemax>
								<value>0</value>
							</parameter>
						</effect>
					</filter>
					<sourcetrack>
						<mediatype>audio</mediatype>
						<trackindex>1</trackindex>
					</sourcetrack>
					<itemhistory>
						<uuid>B68761A3-D181-4D0A-8C20-2E3717069B73</uuid>
					</itemhistory>
				</clipitem>
				<clipitem id="00769001.MOV3">
					<name>00769001.MOV</name>
					<duration>708</duration>
					<rate>
						<ntsc>FALSE</ntsc>
						<timebase>25</timebase>
					</rate>
					<in>56</in>
					<out>218</out>
					<start>15564</start>
					<end>15726</end>
					<subframeoffset>0</subframeoffset>
					<masterclipid>00769001.MOV1</masterclipid>
					<syncoffset>5</syncoffset>
					<logginginfo>
						<scene/>
						<shottake/>
						<lognote/>
						<good>FALSE</good>
					</logginginfo>
					<labels>
						<label2/>
					</labels>
					<comments>
						<mastercomment1/>
						<mastercomment2/>
						<mastercomment3/>
						<mastercomment4/>
					</comments>
					<file id="00769001 "/>
					<filter>
						<effect>
							<name>Audio Levels</name>
							<effectid>audiolevels</effectid>
							<effectcategory>audiolevels</effectcategory>
							<effecttype>audiolevels</effecttype>
							<mediatype>audio</mediatype>
							<parameter>
								<name>Level</name>
								<parameterid>level</parameterid>
								<valuemin>0</valuemin>
								<valuemax>3.98109</valuemax>
								<value>1.77828</value>
							</parameter>
						</effect>
					</filter>
					<filter>
						<effect>
							<name>Audio Pan</name>
							<effectid>audiopan</effectid>
							<effectcategory>audiopan</effectcategory>
							<effecttype>audiopan</effecttype>
							<mediatype>audio</mediatype>
							<parameter>
								<name>Pan</name>
								<parameterid>pan</parameterid>
								<valuemin>-1</valuemin>
								<valuemax>1</valuemax>
								<value>0</value>
							</parameter>
						</effect>
					</filter>
					<sourcetrack>
						<mediatype>audio</mediatype>
						<trackindex>1</trackindex>
					</sourcetrack>
					<link>
						<linkclipref>00769001.MOV2</linkclipref>
						<mediatype>video</mediatype>
						<trackindex>1</trackindex>
						<clipindex>117</clipindex>
					</link>
					<link>
						<linkclipref>00769001.MOV3</linkclipref>
						<mediatype>audio</mediatype>
						<trackindex>1</trackindex>
						<clipindex>119</clipindex>
					</link>
					<link>
						<linkclipref>00769001.MOV4</linkclipref>
						<mediatype>audio</mediatype>
						<trackindex>2</trackindex>
						<clipindex>123</clipindex>
					</link>
					<itemhistory>
						<uuid>007C626E-B951-4A52-81BF-09681F6A0C65</uuid>
					</itemhistory>
				</clipitem>
				<clipitem id="00769001.MOV6">
					<name>00769001.MOV</name>
					<duration>708</duration>
					<rate>
						<ntsc>FALSE</ntsc>
						<timebase>25</timebase>
					</rate>
					<in>276</in>
					<out>568</out>
					<start>15944</start>
					<end>16236</end>
					<subframeoffset>0</subframeoffset>
					<masterclipid>00769001.MOV1</masterclipid>
					<logginginfo>
						<scene/>
						<shottake/>
						<lognote/>
						<good>FALSE</good>
					</logginginfo>
					<labels>
						<label2/>
					</labels>
					<comments>
						<mastercomment1/>
						<mastercomment2/>
						<mastercomment3/>
						<mastercomment4/>
					</comments>
					<file id="00769001 "/>
					<filter>
						<effect>
							<name>Audio Levels</name>
							<effectid>audiolevels</effectid>
							<effectcategory>audiolevels</effectcategory>
							<effecttype>audiolevels</effecttype>
							<mediatype>audio</mediatype>
							<parameter>
								<name>Level</name>
								<parameterid>level</parameterid>
								<valuemin>0</valuemin>
								<valuemax>3.98109</valuemax>
								<value>1.99526</value>
							</parameter>
						</effect>
					</filter>
					<filter>
						<effect>
							<name>Audio Pan</name>
							<effectid>audiopan</effectid>
							<effectcategory>audiopan</effectcategory>
							<effecttype>audiopan</effecttype>
							<mediatype>audio</mediatype>
							<parameter>
								<name>Pan</name>
								<parameterid>pan</parameterid>
								<valuemin>-1</valuemin>
								<valuemax>1</valuemax>
								<value>0</value>
							</parameter>
						</effect>
					</filter>
					<sourcetrack>
						<mediatype>audio</mediatype>
						<trackindex>1</trackindex>
					</sourcetrack>
					<link>
						<linkclipref>00769001.MOV5</linkclipref>
						<mediatype>video</mediatype>
						<trackindex>1</trackindex>
						<clipindex>118</clipindex>
					</link>
					<link>
						<linkclipref>00769001.MOV6</linkclipref>
						<mediatype>audio</mediatype>
						<trackindex>1</trackindex>
						<clipindex>120</clipindex>
					</link>
					<link>
						<linkclipref>00769001.MOV7</linkclipref>
						<mediatype>audio</mediatype>
						<trackindex>2</trackindex>
						<clipindex>124</clipindex>
					</link>
					<itemhistory>
						<uuid>4F613262-8C3B-416F-94CB-9A11558B83D2</uuid>
					</itemhistory>
				</clipitem>
				<clipitem id="Kråkeklubben S1E1 Ny miks.wav">
					<name>Kråkeklubben S1E1 Ny miks.wav</name>
					<duration>38152</duration>
					<rate>
						<ntsc>FALSE</ntsc>
						<timebase>25</timebase>
					</rate>
					<in>12266</in>
					<out>12521</out>
					<start>16236</start>
					<end>-1</end>
					<masterclipid>Kråkeklubben S1E1 Ny miks.wav1</masterclipid>
					<logginginfo>
						<scene/>
						<shottake/>
						<lognote/>
						<good>FALSE</good>
					</logginginfo>
					<labels>
						<label2/>
					</labels>
					<comments>
						<mastercomment1/>
						<mastercomment2/>
						<mastercomment3/>
						<mastercomment4/>
					</comments>
					<file id="Kråkeklubben S1E1 Ny miks">
						<name>Kråkeklubben S1E1 Ny miks.wav</name>
						<pathurl>file://localhost/Volumes/Askepott/Prosjekter/DNPR637010_Kra%CC%8Akeklubben_TEM_011212/LYD/Kra%CC%8Akeklubben%20S1E1%20Ny%20miks.wav</pathurl>
						<rate>
							<timebase>25</timebase>
						</rate>
						<duration>38152</duration>
						<timecode>
							<rate>
								<timebase>25</timebase>
							</rate>
							<string>00:00:00:00</string>
							<frame>0</frame>
							<displayformat>NDF</displayformat>
							<source>source</source>
						</timecode>
						<media>
							<audio>
								<samplecharacteristics>
									<samplerate>48000</samplerate>
									<depth>24</depth>
								</samplecharacteristics>
								<channelcount>2</channelcount>
							</audio>
						</media>
					</file>
					<filter>
						<effect>
							<name>Audio Levels</name>
							<effectid>audiolevels</effectid>
							<effectcategory>audiolevels</effectcategory>
							<effecttype>audiolevels</effecttype>
							<mediatype>audio</mediatype>
							<parameter>
								<name>Level</name>
								<parameterid>level</parameterid>
								<valuemin>0</valuemin>
								<valuemax>3.98109</valuemax>
								<value>1</value>
							</parameter>
						</effect>
					</filter>
					<filter>
						<effect>
							<name>Audio Pan</name>
							<effectid>audiopan</effectid>
							<effectcategory>audiopan</effectcategory>
							<effecttype>audiopan</effecttype>
							<mediatype>audio</mediatype>
							<parameter>
								<name>Pan</name>
								<parameterid>pan</parameterid>
								<valuemin>-1</valuemin>
								<valuemax>1</valuemax>
								<value>-1</value>
							</parameter>
						</effect>
					</filter>
					<sourcetrack>
						<mediatype>audio</mediatype>
						<trackindex>1</trackindex>
					</sourcetrack>
					<link>
						<linkclipref>Kråkeklubben S1E1 Ny miks.wav</linkclipref>
						<mediatype>audio</mediatype>
						<trackindex>1</trackindex>
						<clipindex>121</clipindex>
						<groupindex>1</groupindex>
					</link>
					<link>
						<linkclipref>Kråkeklubben S1E1 Ny miks.wav2</linkclipref>
						<mediatype>audio</mediatype>
						<trackindex>2</trackindex>
						<clipindex>125</clipindex>
						<groupindex>1</groupindex>
					</link>
					<itemhistory>
						<uuid>9CD1FF76-3FCC-41B8-B88F-07BCFE83AF8B</uuid>
					</itemhistory>
				</clipitem>
				<transitionitem>
					<rate>
						<ntsc>FALSE</ntsc>
						<timebase>25</timebase>
					</rate>
					<start>16466</start>
					<end>16491</end>
					<alignment>center</alignment>
					<effect>
						<name>Cross Fade (+3dB)</name>
						<effectid>KGAudioTransCrossFade3dB</effectid>
						<effecttype>transition</effecttype>
						<mediatype>audio</mediatype>
					</effect>
				</transitionitem>
				<clipitem id="DYR18477_01 6">
					<name>DYR18477_01</name>
					<duration>418</duration>
					<rate>
						<ntsc>FALSE</ntsc>
						<timebase>25</timebase>
					</rate>
					<in>125</in>
					<out>171</out>
					<start>-1</start>
					<end>16512</end>
					<subframeoffset>0</subframeoffset>
					<masterclipid>DYR18477_01 1</masterclipid>
					<logginginfo>
						<scene/>
						<shottake/>
						<lognote/>
						<good>FALSE</good>
					</logginginfo>
					<labels>
						<label2/>
					</labels>
					<comments>
						<mastercomment1/>
						<mastercomment2/>
						<mastercomment3/>
						<mastercomment4/>
					</comments>
					<file id="DYR18477_01 2"/>
					<filter>
						<effect>
							<name>Audio Levels</name>
							<effectid>audiolevels</effectid>
							<effectcategory>audiolevels</effectcategory>
							<effecttype>audiolevels</effecttype>
							<mediatype>audio</mediatype>
							<parameter>
								<name>Level</name>
								<parameterid>level</parameterid>
								<valuemin>0</valuemin>
								<valuemax>3.98109</valuemax>
								<value>0</value>
							</parameter>
						</effect>
					</filter>
					<filter>
						<effect>
							<name>Audio Pan</name>
							<effectid>audiopan</effectid>
							<effectcategory>audiopan</effectcategory>
							<effecttype>audiopan</effecttype>
							<mediatype>audio</mediatype>
							<parameter>
								<name>Pan</name>
								<parameterid>pan</parameterid>
								<valuemin>-1</valuemin>
								<valuemax>1</valuemax>
								<value>0</value>
							</parameter>
						</effect>
					</filter>
					<sourcetrack>
						<mediatype>audio</mediatype>
						<trackindex>1</trackindex>
					</sourcetrack>
					<link>
						<linkclipref>DYR18477_01 5</linkclipref>
						<mediatype>video</mediatype>
						<trackindex>2</trackindex>
						<clipindex>38</clipindex>
					</link>
					<link>
						<linkclipref>DYR18477_01 6</linkclipref>
						<mediatype>audio</mediatype>
						<trackindex>1</trackindex>
						<clipindex>123</clipindex>
					</link>
					<link>
						<linkclipref>DYR18477_01 7</linkclipref>
						<mediatype>audio</mediatype>
						<trackindex>2</trackindex>
						<clipindex>127</clipindex>
					</link>
					<itemhistory>
						<uuid>94078C29-D187-4116-94EB-F8C9B235979B</uuid>
					</itemhistory>
				</clipitem>
				<clipitem id="DYR18469_01 6">
					<name>DYR18469_01</name>
					<duration>2324</duration>
					<rate>
						<ntsc>FALSE</ntsc>
						<timebase>25</timebase>
					</rate>
					<in>280</in>
					<out>337</out>
					<start>16512</start>
					<end>16569</end>
					<subframeoffset>0</subframeoffset>
					<masterclipid>DYR18469_01 1</masterclipid>
					<logginginfo>
						<scene/>
						<shottake/>
						<lognote/>
						<good>FALSE</good>
					</logginginfo>
					<labels>
						<label2/>
					</labels>
					<comments>
						<mastercomment1/>
						<mastercomment2/>
						<mastercomment3/>
						<mastercomment4/>
					</comments>
					<file id="DYR18469_01 2"/>
					<filter>
						<effect>
							<name>Audio Levels</name>
							<effectid>audiolevels</effectid>
							<effectcategory>audiolevels</effectcategory>
							<effecttype>audiolevels</effecttype>
							<mediatype>audio</mediatype>
							<parameter>
								<name>Level</name>
								<parameterid>level</parameterid>
								<valuemin>0</valuemin>
								<valuemax>3.98109</valuemax>
								<value>1</value>
							</parameter>
						</effect>
					</filter>
					<filter>
						<effect>
							<name>Audio Pan</name>
							<effectid>audiopan</effectid>
							<effectcategory>audiopan</effectcategory>
							<effecttype>audiopan</effecttype>
							<mediatype>audio</mediatype>
							<parameter>
								<name>Pan</name>
								<parameterid>pan</parameterid>
								<valuemin>-1</valuemin>
								<valuemax>1</valuemax>
								<value>0</value>
							</parameter>
						</effect>
					</filter>
					<sourcetrack>
						<mediatype>audio</mediatype>
						<trackindex>1</trackindex>
					</sourcetrack>
					<link>
						<linkclipref>DYR18469_01 5</linkclipref>
						<mediatype>video</mediatype>
						<trackindex>2</trackindex>
						<clipindex>39</clipindex>
					</link>
					<link>
						<linkclipref>DYR18469_01 6</linkclipref>
						<mediatype>audio</mediatype>
						<trackindex>1</trackindex>
						<clipindex>124</clipindex>
					</link>
					<link>
						<linkclipref>DYR18469_01 7</linkclipref>
						<mediatype>audio</mediatype>
						<trackindex>2</trackindex>
						<clipindex>128</clipindex>
					</link>
					<itemhistory>
						<uuid>877D853B-CBB7-4C43-8DF0-5432B1AABE65</uuid>
					</itemhistory>
				</clipitem>
				<clipitem id="DYR18519_01 3">
					<name>DYR18519_01</name>
					<duration>1686</duration>
					<rate>
						<ntsc>FALSE</ntsc>
						<timebase>25</timebase>
					</rate>
					<in>517</in>
					<out>547</out>
					<start>16569</start>
					<end>16599</end>
					<subframeoffset>0</subframeoffset>
					<masterclipid>DYR18519_01 1</masterclipid>
					<logginginfo>
						<scene/>
						<shottake/>
						<lognote/>
						<good>FALSE</good>
					</logginginfo>
					<labels>
						<label2/>
					</labels>
					<comments>
						<mastercomment1/>
						<mastercomment2/>
						<mastercomment3/>
						<mastercomment4/>
					</comments>
					<file id="DYR18519_01 2"/>
					<filter>
						<effect>
							<name>Audio Levels</name>
							<effectid>audiolevels</effectid>
							<effectcategory>audiolevels</effectcategory>
							<effecttype>audiolevels</effecttype>
							<mediatype>audio</mediatype>
							<parameter>
								<name>Level</name>
								<parameterid>level</parameterid>
								<valuemin>0</valuemin>
								<valuemax>3.98109</valuemax>
								<value>1</value>
							</parameter>
						</effect>
					</filter>
					<filter>
						<effect>
							<name>Audio Pan</name>
							<effectid>audiopan</effectid>
							<effectcategory>audiopan</effectcategory>
							<effecttype>audiopan</effecttype>
							<mediatype>audio</mediatype>
							<parameter>
								<name>Pan</name>
								<parameterid>pan</parameterid>
								<valuemin>-1</valuemin>
								<valuemax>1</valuemax>
								<value>0</value>
							</parameter>
						</effect>
					</filter>
					<sourcetrack>
						<mediatype>audio</mediatype>
						<trackindex>1</trackindex>
					</sourcetrack>
					<link>
						<linkclipref>DYR18519_01 </linkclipref>
						<mediatype>video</mediatype>
						<trackindex>1</trackindex>
						<clipindex>119</clipindex>
					</link>
					<link>
						<linkclipref>DYR18519_01 3</linkclipref>
						<mediatype>audio</mediatype>
						<trackindex>1</trackindex>
						<clipindex>125</clipindex>
					</link>
					<link>
						<linkclipref>DYR18519_01 4</linkclipref>
						<mediatype>audio</mediatype>
						<trackindex>2</trackindex>
						<clipindex>129</clipindex>
					</link>
					<itemhistory>
						<uuid>0B39A33B-657E-4315-BC62-274FF0AE99ED</uuid>
					</itemhistory>
				</clipitem>
				<clipitem id="DYR18519_01 6">
					<name>DYR18519_01</name>
					<duration>1686</duration>
					<rate>
						<ntsc>FALSE</ntsc>
						<timebase>25</timebase>
					</rate>
					<in>693</in>
					<out>756</out>
					<start>16599</start>
					<end>16662</end>
					<subframeoffset>0</subframeoffset>
					<masterclipid>DYR18519_01 1</masterclipid>
					<logginginfo>
						<scene/>
						<shottake/>
						<lognote/>
						<good>FALSE</good>
					</logginginfo>
					<labels>
						<label2/>
					</labels>
					<comments>
						<mastercomment1/>
						<mastercomment2/>
						<mastercomment3/>
						<mastercomment4/>
					</comments>
					<file id="DYR18519_01 2"/>
					<filter>
						<effect>
							<name>Audio Levels</name>
							<effectid>audiolevels</effectid>
							<effectcategory>audiolevels</effectcategory>
							<effecttype>audiolevels</effecttype>
							<mediatype>audio</mediatype>
							<parameter>
								<name>Level</name>
								<parameterid>level</parameterid>
								<valuemin>0</valuemin>
								<valuemax>3.98109</valuemax>
								<value>1</value>
							</parameter>
						</effect>
					</filter>
					<filter>
						<effect>
							<name>Audio Pan</name>
							<effectid>audiopan</effectid>
							<effectcategory>audiopan</effectcategory>
							<effecttype>audiopan</effecttype>
							<mediatype>audio</mediatype>
							<parameter>
								<name>Pan</name>
								<parameterid>pan</parameterid>
								<valuemin>-1</valuemin>
								<valuemax>1</valuemax>
								<value>0</value>
							</parameter>
						</effect>
					</filter>
					<sourcetrack>
						<mediatype>audio</mediatype>
						<trackindex>1</trackindex>
					</sourcetrack>
					<link>
						<linkclipref>DYR18519_01 5</linkclipref>
						<mediatype>video</mediatype>
						<trackindex>1</trackindex>
						<clipindex>120</clipindex>
					</link>
					<link>
						<linkclipref>DYR18519_01 6</linkclipref>
						<mediatype>audio</mediatype>
						<trackindex>1</trackindex>
						<clipindex>126</clipindex>
					</link>
					<link>
						<linkclipref>DYR18519_01 7</linkclipref>
						<mediatype>audio</mediatype>
						<trackindex>2</trackindex>
						<clipindex>130</clipindex>
					</link>
					<itemhistory>
						<uuid>C5383D10-7B29-41AA-B3E2-F7C4F8C9F1DD</uuid>
					</itemhistory>
				</clipitem>
				<clipitem id="DYR18469_01 3">
					<name>DYR18469_01</name>
					<duration>2324</duration>
					<rate>
						<ntsc>FALSE</ntsc>
						<timebase>25</timebase>
					</rate>
					<in>521</in>
					<out>587</out>
					<start>16662</start>
					<end>16728</end>
					<subframeoffset>0</subframeoffset>
					<masterclipid>DYR18469_01 1</masterclipid>
					<logginginfo>
						<scene/>
						<shottake/>
						<lognote/>
						<good>FALSE</good>
					</logginginfo>
					<labels>
						<label2/>
					</labels>
					<comments>
						<mastercomment1/>
						<mastercomment2/>
						<mastercomment3/>
						<mastercomment4/>
					</comments>
					<file id="DYR18469_01 2"/>
					<filter>
						<effect>
							<name>Audio Levels</name>
							<effectid>audiolevels</effectid>
							<effectcategory>audiolevels</effectcategory>
							<effecttype>audiolevels</effecttype>
							<mediatype>audio</mediatype>
							<parameter>
								<name>Level</name>
								<parameterid>level</parameterid>
								<valuemin>0</valuemin>
								<valuemax>3.98109</valuemax>
								<value>1</value>
							</parameter>
						</effect>
					</filter>
					<filter>
						<effect>
							<name>Audio Pan</name>
							<effectid>audiopan</effectid>
							<effectcategory>audiopan</effectcategory>
							<effecttype>audiopan</effecttype>
							<mediatype>audio</mediatype>
							<parameter>
								<name>Pan</name>
								<parameterid>pan</parameterid>
								<valuemin>-1</valuemin>
								<valuemax>1</valuemax>
								<value>0</value>
							</parameter>
						</effect>
					</filter>
					<sourcetrack>
						<mediatype>audio</mediatype>
						<trackindex>1</trackindex>
					</sourcetrack>
					<link>
						<linkclipref>DYR18469_01 </linkclipref>
						<mediatype>video</mediatype>
						<trackindex>1</trackindex>
						<clipindex>121</clipindex>
					</link>
					<link>
						<linkclipref>DYR18469_01 3</linkclipref>
						<mediatype>audio</mediatype>
						<trackindex>1</trackindex>
						<clipindex>127</clipindex>
					</link>
					<link>
						<linkclipref>DYR18469_01 4</linkclipref>
						<mediatype>audio</mediatype>
						<trackindex>2</trackindex>
						<clipindex>131</clipindex>
					</link>
					<itemhistory>
						<uuid>5D9A2E06-BC52-4E08-ADF3-2062D1136BC2</uuid>
					</itemhistory>
				</clipitem>
				<clipitem id="DYR18473_01 3">
					<name>DYR18473_01</name>
					<duration>777</duration>
					<rate>
						<ntsc>FALSE</ntsc>
						<timebase>25</timebase>
					</rate>
					<in>175</in>
					<out>247</out>
					<start>16728</start>
					<end>16800</end>
					<subframeoffset>0</subframeoffset>
					<masterclipid>DYR18473_01 1</masterclipid>
					<logginginfo>
						<scene/>
						<shottake/>
						<lognote/>
						<good>FALSE</good>
					</logginginfo>
					<labels>
						<label2/>
					</labels>
					<comments>
						<mastercomment1/>
						<mastercomment2/>
						<mastercomment3/>
						<mastercomment4/>
					</comments>
					<file id="DYR18473_01 2"/>
					<filter>
						<effect>
							<name>Audio Levels</name>
							<effectid>audiolevels</effectid>
							<effectcategory>audiolevels</effectcategory>
							<effecttype>audiolevels</effecttype>
							<mediatype>audio</mediatype>
							<parameter>
								<name>Level</name>
								<parameterid>level</parameterid>
								<valuemin>0</valuemin>
								<valuemax>3.98109</valuemax>
								<value>1</value>
							</parameter>
						</effect>
					</filter>
					<filter>
						<effect>
							<name>Audio Pan</name>
							<effectid>audiopan</effectid>
							<effectcategory>audiopan</effectcategory>
							<effecttype>audiopan</effecttype>
							<mediatype>audio</mediatype>
							<parameter>
								<name>Pan</name>
								<parameterid>pan</parameterid>
								<valuemin>-1</valuemin>
								<valuemax>1</valuemax>
								<value>0</value>
							</parameter>
						</effect>
					</filter>
					<sourcetrack>
						<mediatype>audio</mediatype>
						<trackindex>1</trackindex>
					</sourcetrack>
					<link>
						<linkclipref>DYR18473_01 </linkclipref>
						<mediatype>video</mediatype>
						<trackindex>1</trackindex>
						<clipindex>122</clipindex>
					</link>
					<link>
						<linkclipref>DYR18473_01 3</linkclipref>
						<mediatype>audio</mediatype>
						<trackindex>1</trackindex>
						<clipindex>128</clipindex>
					</link>
					<link>
						<linkclipref>DYR18473_01 4</linkclipref>
						<mediatype>audio</mediatype>
						<trackindex>2</trackindex>
						<clipindex>132</clipindex>
					</link>
					<itemhistory>
						<uuid>878E829D-9D75-429B-835D-0E31EF37AEE5</uuid>
					</itemhistory>
				</clipitem>
				<clipitem id="DYR18476_01 3">
					<name>DYR18476_01</name>
					<duration>647</duration>
					<rate>
						<ntsc>FALSE</ntsc>
						<timebase>25</timebase>
					</rate>
					<in>335</in>
					<out>468</out>
					<start>17002</start>
					<end>17135</end>
					<subframeoffset>0</subframeoffset>
					<masterclipid>DYR18476_01 1</masterclipid>
					<logginginfo>
						<scene/>
						<shottake/>
						<lognote/>
						<good>FALSE</good>
					</logginginfo>
					<labels>
						<label2/>
					</labels>
					<comments>
						<mastercomment1/>
						<mastercomment2/>
						<mastercomment3/>
						<mastercomment4/>
					</comments>
					<file id="DYR18476_01 2"/>
					<filter>
						<effect>
							<name>Audio Levels</name>
							<effectid>audiolevels</effectid>
							<effectcategory>audiolevels</effectcategory>
							<effecttype>audiolevels</effecttype>
							<mediatype>audio</mediatype>
							<parameter>
								<name>Level</name>
								<parameterid>level</parameterid>
								<valuemin>0</valuemin>
								<valuemax>3.98109</valuemax>
								<value>1</value>
							</parameter>
						</effect>
					</filter>
					<filter>
						<effect>
							<name>Audio Pan</name>
							<effectid>audiopan</effectid>
							<effectcategory>audiopan</effectcategory>
							<effecttype>audiopan</effecttype>
							<mediatype>audio</mediatype>
							<parameter>
								<name>Pan</name>
								<parameterid>pan</parameterid>
								<valuemin>-1</valuemin>
								<valuemax>1</valuemax>
								<value>0</value>
							</parameter>
						</effect>
					</filter>
					<sourcetrack>
						<mediatype>audio</mediatype>
						<trackindex>1</trackindex>
					</sourcetrack>
					<link>
						<linkclipref>DYR18476_01 </linkclipref>
						<mediatype>video</mediatype>
						<trackindex>1</trackindex>
						<clipindex>126</clipindex>
					</link>
					<link>
						<linkclipref>DYR18476_01 3</linkclipref>
						<mediatype>audio</mediatype>
						<trackindex>1</trackindex>
						<clipindex>129</clipindex>
					</link>
					<link>
						<linkclipref>DYR18476_01 4</linkclipref>
						<mediatype>audio</mediatype>
						<trackindex>2</trackindex>
						<clipindex>133</clipindex>
					</link>
					<itemhistory>
						<uuid>7B6ABEF0-FBD9-4B69-9279-9B26455EFCBD</uuid>
					</itemhistory>
				</clipitem>
				<clipitem id="DYR18478_01 3">
					<name>DYR18478_01</name>
					<duration>863</duration>
					<rate>
						<ntsc>FALSE</ntsc>
						<timebase>25</timebase>
					</rate>
					<in>442</in>
					<out>501</out>
					<start>17181</start>
					<end>17240</end>
					<subframeoffset>0</subframeoffset>
					<masterclipid>DYR18478_01 1</masterclipid>
					<logginginfo>
						<scene/>
						<shottake/>
						<lognote/>
						<good>FALSE</good>
					</logginginfo>
					<labels>
						<label2/>
					</labels>
					<comments>
						<mastercomment1/>
						<mastercomment2/>
						<mastercomment3/>
						<mastercomment4/>
					</comments>
					<file id="DYR18478_01 2"/>
					<filter>
						<effect>
							<name>Audio Levels</name>
							<effectid>audiolevels</effectid>
							<effectcategory>audiolevels</effectcategory>
							<effecttype>audiolevels</effecttype>
							<mediatype>audio</mediatype>
							<parameter>
								<name>Level</name>
								<parameterid>level</parameterid>
								<valuemin>0</valuemin>
								<valuemax>3.98109</valuemax>
								<value>1</value>
							</parameter>
						</effect>
					</filter>
					<filter>
						<effect>
							<name>Audio Pan</name>
							<effectid>audiopan</effectid>
							<effectcategory>audiopan</effectcategory>
							<effecttype>audiopan</effecttype>
							<mediatype>audio</mediatype>
							<parameter>
								<name>Pan</name>
								<parameterid>pan</parameterid>
								<valuemin>-1</valuemin>
								<valuemax>1</valuemax>
								<value>0</value>
							</parameter>
						</effect>
					</filter>
					<sourcetrack>
						<mediatype>audio</mediatype>
						<trackindex>1</trackindex>
					</sourcetrack>
					<link>
						<linkclipref>DYR18478_01 </linkclipref>
						<mediatype>video</mediatype>
						<trackindex>1</trackindex>
						<clipindex>127</clipindex>
					</link>
					<link>
						<linkclipref>DYR18478_01 3</linkclipref>
						<mediatype>audio</mediatype>
						<trackindex>1</trackindex>
						<clipindex>130</clipindex>
					</link>
					<link>
						<linkclipref>DYR18478_01 4</linkclipref>
						<mediatype>audio</mediatype>
						<trackindex>2</trackindex>
						<clipindex>134</clipindex>
					</link>
					<itemhistory>
						<uuid>B0857C95-3DE4-4EE6-9043-0E837787059A</uuid>
					</itemhistory>
				</clipitem>
				<clipitem id="DYR18481_01 3">
					<name>DYR18481_01</name>
					<duration>1131</duration>
					<rate>
						<ntsc>FALSE</ntsc>
						<timebase>25</timebase>
					</rate>
					<in>697</in>
					<out>772</out>
					<start>17240</start>
					<end>17315</end>
					<subframeoffset>0</subframeoffset>
					<enabled>TRUE</enabled>
					<masterclipid>DYR18481_01 1</masterclipid>
					<logginginfo>
						<scene/>
						<shottake/>
						<lognote/>
						<good>FALSE</good>
					</logginginfo>
					<labels>
						<label2/>
					</labels>
					<comments>
						<mastercomment1/>
						<mastercomment2/>
						<mastercomment3/>
						<mastercomment4/>
					</comments>
					<file id="DYR18481_01 2"/>
					<filter>
						<effect>
							<name>Audio Levels</name>
							<effectid>audiolevels</effectid>
							<effectcategory>audiolevels</effectcategory>
							<effecttype>audiolevels</effecttype>
							<mediatype>audio</mediatype>
							<parameter>
								<name>Level</name>
								<parameterid>level</parameterid>
								<valuemin>0</valuemin>
								<valuemax>3.98109</valuemax>
								<value>1</value>
							</parameter>
						</effect>
					</filter>
					<filter>
						<effect>
							<name>Audio Pan</name>
							<effectid>audiopan</effectid>
							<effectcategory>audiopan</effectcategory>
							<effecttype>audiopan</effecttype>
							<mediatype>audio</mediatype>
							<parameter>
								<name>Pan</name>
								<parameterid>pan</parameterid>
								<valuemin>-1</valuemin>
								<valuemax>1</valuemax>
								<value>0</value>
							</parameter>
						</effect>
					</filter>
					<sourcetrack>
						<mediatype>audio</mediatype>
						<trackindex>1</trackindex>
					</sourcetrack>
					<link>
						<linkclipref>DYR18481_01 </linkclipref>
						<mediatype>video</mediatype>
						<trackindex>1</trackindex>
						<clipindex>128</clipindex>
					</link>
					<link>
						<linkclipref>DYR18481_01 3</linkclipref>
						<mediatype>audio</mediatype>
						<trackindex>1</trackindex>
						<clipindex>131</clipindex>
					</link>
					<link>
						<linkclipref>DYR18481_01 4</linkclipref>
						<mediatype>audio</mediatype>
						<trackindex>2</trackindex>
						<clipindex>135</clipindex>
					</link>
					<itemhistory>
						<uuid>6F67A284-0352-4DEA-807A-D2D4FE31AEC6</uuid>
					</itemhistory>
				</clipitem>
				<clipitem id="DYR18481_01 6">
					<name>DYR18481_01</name>
					<duration>1131</duration>
					<rate>
						<ntsc>FALSE</ntsc>
						<timebase>25</timebase>
					</rate>
					<in>772</in>
					<out>871</out>
					<start>17425</start>
					<end>17524</end>
					<subframeoffset>0</subframeoffset>
					<masterclipid>DYR18481_01 1</masterclipid>
					<logginginfo>
						<scene/>
						<shottake/>
						<lognote/>
						<good>FALSE</good>
					</logginginfo>
					<labels>
						<label2/>
					</labels>
					<comments>
						<mastercomment1/>
						<mastercomment2/>
						<mastercomment3/>
						<mastercomment4/>
					</comments>
					<file id="DYR18481_01 2"/>
					<filter>
						<effect>
							<name>Audio Levels</name>
							<effectid>audiolevels</effectid>
							<effectcategory>audiolevels</effectcategory>
							<effecttype>audiolevels</effecttype>
							<mediatype>audio</mediatype>
							<parameter>
								<name>Level</name>
								<parameterid>level</parameterid>
								<valuemin>0</valuemin>
								<valuemax>3.98109</valuemax>
								<value>1</value>
							</parameter>
						</effect>
					</filter>
					<filter>
						<effect>
							<name>Audio Pan</name>
							<effectid>audiopan</effectid>
							<effectcategory>audiopan</effectcategory>
							<effecttype>audiopan</effecttype>
							<mediatype>audio</mediatype>
							<parameter>
								<name>Pan</name>
								<parameterid>pan</parameterid>
								<valuemin>-1</valuemin>
								<valuemax>1</valuemax>
								<value>0</value>
							</parameter>
						</effect>
					</filter>
					<sourcetrack>
						<mediatype>audio</mediatype>
						<trackindex>1</trackindex>
					</sourcetrack>
					<link>
						<linkclipref>DYR18481_01 5</linkclipref>
						<mediatype>video</mediatype>
						<trackindex>1</trackindex>
						<clipindex>130</clipindex>
					</link>
					<link>
						<linkclipref>DYR18481_01 6</linkclipref>
						<mediatype>audio</mediatype>
						<trackindex>1</trackindex>
						<clipindex>132</clipindex>
					</link>
					<link>
						<linkclipref>DYR18481_01 7</linkclipref>
						<mediatype>audio</mediatype>
						<trackindex>2</trackindex>
						<clipindex>136</clipindex>
					</link>
					<itemhistory>
						<uuid>65B7F2B7-B243-49A4-97A8-70BA8887648F</uuid>
					</itemhistory>
				</clipitem>
				<clipitem id="DYR18482_01 3">
					<name>DYR18482_01</name>
					<duration>1901</duration>
					<rate>
						<ntsc>FALSE</ntsc>
						<timebase>25</timebase>
					</rate>
					<in>1358</in>
					<out>1595</out>
					<start>17684</start>
					<end>17921</end>
					<subframeoffset>0</subframeoffset>
					<masterclipid>DYR18482_01 1</masterclipid>
					<logginginfo>
						<scene/>
						<shottake/>
						<lognote/>
						<good>FALSE</good>
					</logginginfo>
					<labels>
						<label2/>
					</labels>
					<comments>
						<mastercomment1/>
						<mastercomment2/>
						<mastercomment3/>
						<mastercomment4/>
					</comments>
					<file id="DYR18482_01 2"/>
					<filter>
						<effect>
							<name>Audio Levels</name>
							<effectid>audiolevels</effectid>
							<effectcategory>audiolevels</effectcategory>
							<effecttype>audiolevels</effecttype>
							<mediatype>audio</mediatype>
							<parameter>
								<name>Level</name>
								<parameterid>level</parameterid>
								<valuemin>0</valuemin>
								<valuemax>3.98109</valuemax>
								<value>1</value>
							</parameter>
						</effect>
					</filter>
					<filter>
						<effect>
							<name>Audio Pan</name>
							<effectid>audiopan</effectid>
							<effectcategory>audiopan</effectcategory>
							<effecttype>audiopan</effecttype>
							<mediatype>audio</mediatype>
							<parameter>
								<name>Pan</name>
								<parameterid>pan</parameterid>
								<valuemin>-1</valuemin>
								<valuemax>1</valuemax>
								<value>0</value>
							</parameter>
						</effect>
					</filter>
					<sourcetrack>
						<mediatype>audio</mediatype>
						<trackindex>1</trackindex>
					</sourcetrack>
					<link>
						<linkclipref>DYR18482_01 </linkclipref>
						<mediatype>video</mediatype>
						<trackindex>1</trackindex>
						<clipindex>132</clipindex>
					</link>
					<link>
						<linkclipref>DYR18482_01 3</linkclipref>
						<mediatype>audio</mediatype>
						<trackindex>1</trackindex>
						<clipindex>133</clipindex>
					</link>
					<link>
						<linkclipref>DYR18482_01 4</linkclipref>
						<mediatype>audio</mediatype>
						<trackindex>2</trackindex>
						<clipindex>137</clipindex>
					</link>
					<itemhistory>
						<uuid>E4E5E320-7540-46E8-9A43-EEAC31CDAF0A</uuid>
					</itemhistory>
				</clipitem>
				<clipitem id="DYR18486_01 3">
					<name>DYR18486_01</name>
					<duration>1456</duration>
					<rate>
						<ntsc>FALSE</ntsc>
						<timebase>25</timebase>
					</rate>
					<in>69</in>
					<out>245</out>
					<start>18098</start>
					<end>18274</end>
					<subframeoffset>0</subframeoffset>
					<masterclipid>DYR18486_01 1</masterclipid>
					<logginginfo>
						<scene/>
						<shottake/>
						<lognote/>
						<good>FALSE</good>
					</logginginfo>
					<labels>
						<label2/>
					</labels>
					<comments>
						<mastercomment1/>
						<mastercomment2/>
						<mastercomment3/>
						<mastercomment4/>
					</comments>
					<file id="DYR18486_01 2"/>
					<filter>
						<effect>
							<name>Audio Levels</name>
							<effectid>audiolevels</effectid>
							<effectcategory>audiolevels</effectcategory>
							<effecttype>audiolevels</effecttype>
							<mediatype>audio</mediatype>
							<parameter>
								<name>Level</name>
								<parameterid>level</parameterid>
								<valuemin>0</valuemin>
								<valuemax>3.98109</valuemax>
								<value>1</value>
							</parameter>
						</effect>
					</filter>
					<filter>
						<effect>
							<name>Audio Pan</name>
							<effectid>audiopan</effectid>
							<effectcategory>audiopan</effectcategory>
							<effecttype>audiopan</effecttype>
							<mediatype>audio</mediatype>
							<parameter>
								<name>Pan</name>
								<parameterid>pan</parameterid>
								<valuemin>-1</valuemin>
								<valuemax>1</valuemax>
								<value>0</value>
							</parameter>
						</effect>
					</filter>
					<sourcetrack>
						<mediatype>audio</mediatype>
						<trackindex>1</trackindex>
					</sourcetrack>
					<link>
						<linkclipref>DYR18486_01 </linkclipref>
						<mediatype>video</mediatype>
						<trackindex>1</trackindex>
						<clipindex>133</clipindex>
					</link>
					<link>
						<linkclipref>DYR18486_01 3</linkclipref>
						<mediatype>audio</mediatype>
						<trackindex>1</trackindex>
						<clipindex>134</clipindex>
					</link>
					<link>
						<linkclipref>DYR18486_01 4</linkclipref>
						<mediatype>audio</mediatype>
						<trackindex>2</trackindex>
						<clipindex>138</clipindex>
					</link>
					<itemhistory>
						<uuid>6D117D07-B450-43AD-B7B1-0E0523351103</uuid>
					</itemhistory>
				</clipitem>
				<clipitem id="DYR18485_01 3">
					<name>DYR18485_01</name>
					<duration>595</duration>
					<rate>
						<ntsc>FALSE</ntsc>
						<timebase>25</timebase>
					</rate>
					<in>261</in>
					<out>365</out>
					<start>18274</start>
					<end>18378</end>
					<subframeoffset>0</subframeoffset>
					<masterclipid>DYR18485_01 1</masterclipid>
					<logginginfo>
						<scene/>
						<shottake/>
						<lognote/>
						<good>FALSE</good>
					</logginginfo>
					<labels>
						<label2/>
					</labels>
					<comments>
						<mastercomment1/>
						<mastercomment2/>
						<mastercomment3/>
						<mastercomment4/>
					</comments>
					<file id="DYR18485_01 2"/>
					<filter>
						<effect>
							<name>Audio Levels</name>
							<effectid>audiolevels</effectid>
							<effectcategory>audiolevels</effectcategory>
							<effecttype>audiolevels</effecttype>
							<mediatype>audio</mediatype>
							<parameter>
								<name>Level</name>
								<parameterid>level</parameterid>
								<valuemin>0</valuemin>
								<valuemax>3.98109</valuemax>
								<value>1</value>
							</parameter>
						</effect>
					</filter>
					<filter>
						<effect>
							<name>Audio Pan</name>
							<effectid>audiopan</effectid>
							<effectcategory>audiopan</effectcategory>
							<effecttype>audiopan</effecttype>
							<mediatype>audio</mediatype>
							<parameter>
								<name>Pan</name>
								<parameterid>pan</parameterid>
								<valuemin>-1</valuemin>
								<valuemax>1</valuemax>
								<value>0</value>
							</parameter>
						</effect>
					</filter>
					<sourcetrack>
						<mediatype>audio</mediatype>
						<trackindex>1</trackindex>
					</sourcetrack>
					<link>
						<linkclipref>DYR18485_01 </linkclipref>
						<mediatype>video</mediatype>
						<trackindex>1</trackindex>
						<clipindex>134</clipindex>
					</link>
					<link>
						<linkclipref>DYR18485_01 3</linkclipref>
						<mediatype>audio</mediatype>
						<trackindex>1</trackindex>
						<clipindex>135</clipindex>
					</link>
					<link>
						<linkclipref>DYR18485_01 4</linkclipref>
						<mediatype>audio</mediatype>
						<trackindex>2</trackindex>
						<clipindex>139</clipindex>
					</link>
					<itemhistory>
						<uuid>4A7A2D49-F9E3-4119-8E16-C5CC6A904407</uuid>
					</itemhistory>
				</clipitem>
				<clipitem id="DYR18488_01 6">
					<name>DYR18488_01</name>
					<duration>1012</duration>
					<rate>
						<ntsc>FALSE</ntsc>
						<timebase>25</timebase>
					</rate>
					<in>340</in>
					<out>697</out>
					<start>18378</start>
					<end>18735</end>
					<subframeoffset>0</subframeoffset>
					<masterclipid>DYR18488_01 1</masterclipid>
					<logginginfo>
						<scene/>
						<shottake/>
						<lognote/>
						<good>FALSE</good>
					</logginginfo>
					<labels>
						<label2/>
					</labels>
					<comments>
						<mastercomment1/>
						<mastercomment2/>
						<mastercomment3/>
						<mastercomment4/>
					</comments>
					<file id="DYR18488_01 2"/>
					<filter>
						<effect>
							<name>Audio Levels</name>
							<effectid>audiolevels</effectid>
							<effectcategory>audiolevels</effectcategory>
							<effecttype>audiolevels</effecttype>
							<mediatype>audio</mediatype>
							<parameter>
								<name>Level</name>
								<parameterid>level</parameterid>
								<valuemin>0</valuemin>
								<valuemax>3.98109</valuemax>
								<value>1</value>
							</parameter>
						</effect>
					</filter>
					<filter>
						<effect>
							<name>Audio Pan</name>
							<effectid>audiopan</effectid>
							<effectcategory>audiopan</effectcategory>
							<effecttype>audiopan</effecttype>
							<mediatype>audio</mediatype>
							<parameter>
								<name>Pan</name>
								<parameterid>pan</parameterid>
								<valuemin>-1</valuemin>
								<valuemax>1</valuemax>
								<value>0</value>
							</parameter>
						</effect>
					</filter>
					<sourcetrack>
						<mediatype>audio</mediatype>
						<trackindex>1</trackindex>
					</sourcetrack>
					<link>
						<linkclipref>DYR18488_01 5</linkclipref>
						<mediatype>video</mediatype>
						<trackindex>2</trackindex>
						<clipindex>47</clipindex>
					</link>
					<link>
						<linkclipref>DYR18488_01 6</linkclipref>
						<mediatype>audio</mediatype>
						<trackindex>1</trackindex>
						<clipindex>136</clipindex>
					</link>
					<link>
						<linkclipref>DYR18488_01 7</linkclipref>
						<mediatype>audio</mediatype>
						<trackindex>2</trackindex>
						<clipindex>140</clipindex>
					</link>
					<itemhistory>
						<uuid>8A750DD9-E202-4775-996A-2F478FFC1EDD</uuid>
					</itemhistory>
				</clipitem>
				<clipitem id="DYR18492_01 3">
					<name>DYR18492_01</name>
					<duration>2489</duration>
					<rate>
						<ntsc>FALSE</ntsc>
						<timebase>25</timebase>
					</rate>
					<in>678</in>
					<out>957</out>
					<start>18735</start>
					<end>19014</end>
					<subframeoffset>0</subframeoffset>
					<masterclipid>DYR18492_01 1</masterclipid>
					<logginginfo>
						<scene/>
						<shottake/>
						<lognote/>
						<good>FALSE</good>
					</logginginfo>
					<labels>
						<label2/>
					</labels>
					<comments>
						<mastercomment1/>
						<mastercomment2/>
						<mastercomment3/>
						<mastercomment4/>
					</comments>
					<file id="DYR18492_01 2"/>
					<filter>
						<effect>
							<name>Audio Levels</name>
							<effectid>audiolevels</effectid>
							<effectcategory>audiolevels</effectcategory>
							<effecttype>audiolevels</effecttype>
							<mediatype>audio</mediatype>
							<parameter>
								<name>Level</name>
								<parameterid>level</parameterid>
								<valuemin>0</valuemin>
								<valuemax>3.98109</valuemax>
								<keyframe>
									<when>683.143</when>
									<value>3.16228</value>
								</keyframe>
								<keyframe>
									<when>816</when>
									<value>1.99526</value>
								</keyframe>
								<interpolation>
									<name>FCPCurve</name>
								</interpolation>
								<value>1.99526</value>
							</parameter>
						</effect>
					</filter>
					<filter>
						<effect>
							<name>Audio Pan</name>
							<effectid>audiopan</effectid>
							<effectcategory>audiopan</effectcategory>
							<effecttype>audiopan</effecttype>
							<mediatype>audio</mediatype>
							<parameter>
								<name>Pan</name>
								<parameterid>pan</parameterid>
								<valuemin>-1</valuemin>
								<valuemax>1</valuemax>
								<value>0</value>
							</parameter>
						</effect>
					</filter>
					<sourcetrack>
						<mediatype>audio</mediatype>
						<trackindex>1</trackindex>
					</sourcetrack>
					<link>
						<linkclipref>DYR18492_01 </linkclipref>
						<mediatype>video</mediatype>
						<trackindex>1</trackindex>
						<clipindex>136</clipindex>
					</link>
					<link>
						<linkclipref>DYR18492_01 3</linkclipref>
						<mediatype>audio</mediatype>
						<trackindex>1</trackindex>
						<clipindex>137</clipindex>
					</link>
					<link>
						<linkclipref>DYR18492_01 4</linkclipref>
						<mediatype>audio</mediatype>
						<trackindex>2</trackindex>
						<clipindex>141</clipindex>
					</link>
					<itemhistory>
						<uuid>7C792E9A-2CB0-4C3A-A2FD-FF6D8B8A2CCE</uuid>
					</itemhistory>
				</clipitem>
				<clipitem id="DYR18494_01 3">
					<name>DYR18494_01</name>
					<duration>1145</duration>
					<rate>
						<ntsc>FALSE</ntsc>
						<timebase>25</timebase>
					</rate>
					<in>128</in>
					<out>179</out>
					<start>19014</start>
					<end>19065</end>
					<subframeoffset>0</subframeoffset>
					<masterclipid>DYR18494_01 1</masterclipid>
					<logginginfo>
						<scene/>
						<shottake/>
						<lognote/>
						<good>FALSE</good>
					</logginginfo>
					<labels>
						<label2/>
					</labels>
					<comments>
						<mastercomment1/>
						<mastercomment2/>
						<mastercomment3/>
						<mastercomment4/>
					</comments>
					<file id="DYR18494_01 2"/>
					<filter>
						<effect>
							<name>Audio Levels</name>
							<effectid>audiolevels</effectid>
							<effectcategory>audiolevels</effectcategory>
							<effecttype>audiolevels</effecttype>
							<mediatype>audio</mediatype>
							<parameter>
								<name>Level</name>
								<parameterid>level</parameterid>
								<valuemin>0</valuemin>
								<valuemax>3.98109</valuemax>
								<value>1.99526</value>
							</parameter>
						</effect>
					</filter>
					<filter>
						<effect>
							<name>Audio Pan</name>
							<effectid>audiopan</effectid>
							<effectcategory>audiopan</effectcategory>
							<effecttype>audiopan</effecttype>
							<mediatype>audio</mediatype>
							<parameter>
								<name>Pan</name>
								<parameterid>pan</parameterid>
								<valuemin>-1</valuemin>
								<valuemax>1</valuemax>
								<value>0</value>
							</parameter>
						</effect>
					</filter>
					<sourcetrack>
						<mediatype>audio</mediatype>
						<trackindex>1</trackindex>
					</sourcetrack>
					<link>
						<linkclipref>DYR18494_01 </linkclipref>
						<mediatype>video</mediatype>
						<trackindex>1</trackindex>
						<clipindex>137</clipindex>
					</link>
					<link>
						<linkclipref>DYR18494_01 3</linkclipref>
						<mediatype>audio</mediatype>
						<trackindex>1</trackindex>
						<clipindex>138</clipindex>
					</link>
					<link>
						<linkclipref>DYR18494_01 4</linkclipref>
						<mediatype>audio</mediatype>
						<trackindex>2</trackindex>
						<clipindex>142</clipindex>
					</link>
					<itemhistory>
						<uuid>486837E0-2A49-4FC4-B313-CBD24CFEA24F</uuid>
					</itemhistory>
				</clipitem>
				<clipitem id="DYR18494_01 6">
					<name>DYR18494_01</name>
					<duration>1145</duration>
					<rate>
						<ntsc>FALSE</ntsc>
						<timebase>25</timebase>
					</rate>
					<in>467</in>
					<out>554</out>
					<start>19065</start>
					<end>19152</end>
					<subframeoffset>0</subframeoffset>
					<masterclipid>DYR18494_01 1</masterclipid>
					<logginginfo>
						<scene/>
						<shottake/>
						<lognote/>
						<good>FALSE</good>
					</logginginfo>
					<labels>
						<label2/>
					</labels>
					<comments>
						<mastercomment1/>
						<mastercomment2/>
						<mastercomment3/>
						<mastercomment4/>
					</comments>
					<file id="DYR18494_01 2"/>
					<filter>
						<effect>
							<name>Audio Levels</name>
							<effectid>audiolevels</effectid>
							<effectcategory>audiolevels</effectcategory>
							<effecttype>audiolevels</effecttype>
							<mediatype>audio</mediatype>
							<parameter>
								<name>Level</name>
								<parameterid>level</parameterid>
								<valuemin>0</valuemin>
								<valuemax>3.98109</valuemax>
								<value>1.99526</value>
							</parameter>
						</effect>
					</filter>
					<filter>
						<effect>
							<name>Audio Pan</name>
							<effectid>audiopan</effectid>
							<effectcategory>audiopan</effectcategory>
							<effecttype>audiopan</effecttype>
							<mediatype>audio</mediatype>
							<parameter>
								<name>Pan</name>
								<parameterid>pan</parameterid>
								<valuemin>-1</valuemin>
								<valuemax>1</valuemax>
								<value>0</value>
							</parameter>
						</effect>
					</filter>
					<sourcetrack>
						<mediatype>audio</mediatype>
						<trackindex>1</trackindex>
					</sourcetrack>
					<link>
						<linkclipref>DYR18494_01 5</linkclipref>
						<mediatype>video</mediatype>
						<trackindex>1</trackindex>
						<clipindex>138</clipindex>
					</link>
					<link>
						<linkclipref>DYR18494_01 6</linkclipref>
						<mediatype>audio</mediatype>
						<trackindex>1</trackindex>
						<clipindex>139</clipindex>
					</link>
					<link>
						<linkclipref>DYR18494_01 7</linkclipref>
						<mediatype>audio</mediatype>
						<trackindex>2</trackindex>
						<clipindex>143</clipindex>
					</link>
					<itemhistory>
						<uuid>AE07061A-6FAA-41CC-91AC-A74ED2B2B9AD</uuid>
					</itemhistory>
				</clipitem>
				<clipitem id="DYR18494_01 9">
					<name>DYR18494_01</name>
					<duration>1145</duration>
					<rate>
						<ntsc>FALSE</ntsc>
						<timebase>25</timebase>
					</rate>
					<in>599</in>
					<out>659</out>
					<start>19152</start>
					<end>19212</end>
					<subframeoffset>0</subframeoffset>
					<masterclipid>DYR18494_01 1</masterclipid>
					<logginginfo>
						<scene/>
						<shottake/>
						<lognote/>
						<good>FALSE</good>
					</logginginfo>
					<labels>
						<label2/>
					</labels>
					<comments>
						<mastercomment1/>
						<mastercomment2/>
						<mastercomment3/>
						<mastercomment4/>
					</comments>
					<file id="DYR18494_01 2"/>
					<filter>
						<effect>
							<name>Audio Levels</name>
							<effectid>audiolevels</effectid>
							<effectcategory>audiolevels</effectcategory>
							<effecttype>audiolevels</effecttype>
							<mediatype>audio</mediatype>
							<parameter>
								<name>Level</name>
								<parameterid>level</parameterid>
								<valuemin>0</valuemin>
								<valuemax>3.98109</valuemax>
								<value>1.99526</value>
							</parameter>
						</effect>
					</filter>
					<filter>
						<effect>
							<name>Audio Pan</name>
							<effectid>audiopan</effectid>
							<effectcategory>audiopan</effectcategory>
							<effecttype>audiopan</effecttype>
							<mediatype>audio</mediatype>
							<parameter>
								<name>Pan</name>
								<parameterid>pan</parameterid>
								<valuemin>-1</valuemin>
								<valuemax>1</valuemax>
								<value>0</value>
							</parameter>
						</effect>
					</filter>
					<sourcetrack>
						<mediatype>audio</mediatype>
						<trackindex>1</trackindex>
					</sourcetrack>
					<link>
						<linkclipref>DYR18494_01 8</linkclipref>
						<mediatype>video</mediatype>
						<trackindex>1</trackindex>
						<clipindex>139</clipindex>
					</link>
					<link>
						<linkclipref>DYR18494_01 9</linkclipref>
						<mediatype>audio</mediatype>
						<trackindex>1</trackindex>
						<clipindex>140</clipindex>
					</link>
					<link>
						<linkclipref>DYR18494_01 10</linkclipref>
						<mediatype>audio</mediatype>
						<trackindex>2</trackindex>
						<clipindex>144</clipindex>
					</link>
					<itemhistory>
						<uuid>92D32DAE-0364-4D72-B8B2-4189C1705BDE</uuid>
					</itemhistory>
				</clipitem>
				<clipitem id="DYR18498_01 4">
					<name>DYR18498_01</name>
					<duration>1171</duration>
					<rate>
						<ntsc>FALSE</ntsc>
						<timebase>25</timebase>
					</rate>
					<in>984</in>
					<out>1068</out>
					<start>19212</start>
					<end>19296</end>
					<subframeoffset>0</subframeoffset>
					<masterclipid>DYR18498_01 1</masterclipid>
					<logginginfo>
						<scene/>
						<shottake/>
						<lognote/>
						<good>FALSE</good>
					</logginginfo>
					<labels>
						<label2/>
					</labels>
					<comments>
						<mastercomment1/>
						<mastercomment2/>
						<mastercomment3/>
						<mastercomment4/>
					</comments>
					<file id="DYR18498_01 2"/>
					<filter>
						<effect>
							<name>Audio Levels</name>
							<effectid>audiolevels</effectid>
							<effectcategory>audiolevels</effectcategory>
							<effecttype>audiolevels</effecttype>
							<mediatype>audio</mediatype>
							<parameter>
								<name>Level</name>
								<parameterid>level</parameterid>
								<valuemin>0</valuemin>
								<valuemax>3.98109</valuemax>
								<value>1</value>
							</parameter>
						</effect>
					</filter>
					<filter>
						<effect>
							<name>Audio Pan</name>
							<effectid>audiopan</effectid>
							<effectcategory>audiopan</effectcategory>
							<effecttype>audiopan</effecttype>
							<mediatype>audio</mediatype>
							<parameter>
								<name>Pan</name>
								<parameterid>pan</parameterid>
								<valuemin>-1</valuemin>
								<valuemax>1</valuemax>
								<value>0</value>
							</parameter>
						</effect>
					</filter>
					<sourcetrack>
						<mediatype>audio</mediatype>
						<trackindex>1</trackindex>
					</sourcetrack>
					<link>
						<linkclipref>DYR18498_01 3</linkclipref>
						<mediatype>video</mediatype>
						<trackindex>2</trackindex>
						<clipindex>51</clipindex>
					</link>
					<link>
						<linkclipref>DYR18498_01 4</linkclipref>
						<mediatype>audio</mediatype>
						<trackindex>1</trackindex>
						<clipindex>141</clipindex>
					</link>
					<itemhistory>
						<uuid>4A35499B-5907-4FFC-A396-F8B3AE81D415</uuid>
					</itemhistory>
				</clipitem>
				<clipitem id="DYR18516_01 3">
					<name>DYR18516_01</name>
					<duration>2267</duration>
					<rate>
						<ntsc>FALSE</ntsc>
						<timebase>25</timebase>
					</rate>
					<in>177</in>
					<out>279</out>
					<start>19462</start>
					<end>19564</end>
					<subframeoffset>0</subframeoffset>
					<masterclipid>DYR18516_01 1</masterclipid>
					<logginginfo>
						<scene/>
						<shottake/>
						<lognote/>
						<good>FALSE</good>
					</logginginfo>
					<labels>
						<label2/>
					</labels>
					<comments>
						<mastercomment1/>
						<mastercomment2/>
						<mastercomment3/>
						<mastercomment4/>
					</comments>
					<file id="DYR18516_01 2"/>
					<filter>
						<effect>
							<name>Audio Levels</name>
							<effectid>audiolevels</effectid>
							<effectcategory>audiolevels</effectcategory>
							<effecttype>audiolevels</effecttype>
							<mediatype>audio</mediatype>
							<parameter>
								<name>Level</name>
								<parameterid>level</parameterid>
								<valuemin>0</valuemin>
								<valuemax>3.98109</valuemax>
								<value>1</value>
							</parameter>
						</effect>
					</filter>
					<filter>
						<effect>
							<name>Audio Pan</name>
							<effectid>audiopan</effectid>
							<effectcategory>audiopan</effectcategory>
							<effecttype>audiopan</effecttype>
							<mediatype>audio</mediatype>
							<parameter>
								<name>Pan</name>
								<parameterid>pan</parameterid>
								<valuemin>-1</valuemin>
								<valuemax>1</valuemax>
								<value>0</value>
							</parameter>
						</effect>
					</filter>
					<sourcetrack>
						<mediatype>audio</mediatype>
						<trackindex>1</trackindex>
					</sourcetrack>
					<link>
						<linkclipref>DYR18516_01 </linkclipref>
						<mediatype>video</mediatype>
						<trackindex>1</trackindex>
						<clipindex>140</clipindex>
					</link>
					<link>
						<linkclipref>DYR18516_01 3</linkclipref>
						<mediatype>audio</mediatype>
						<trackindex>1</trackindex>
						<clipindex>142</clipindex>
					</link>
					<link>
						<linkclipref>DYR18516_01 4</linkclipref>
						<mediatype>audio</mediatype>
						<trackindex>2</trackindex>
						<clipindex>145</clipindex>
					</link>
					<itemhistory>
						<uuid>8CAE211F-5C21-45B9-8721-1C775409B1A6</uuid>
					</itemhistory>
				</clipitem>
				<clipitem id="DYR18516_01 6">
					<name>DYR18516_01</name>
					<duration>2267</duration>
					<rate>
						<ntsc>FALSE</ntsc>
						<timebase>25</timebase>
					</rate>
					<in>378</in>
					<out>423</out>
					<start>19615</start>
					<end>19660</end>
					<subframeoffset>0</subframeoffset>
					<masterclipid>DYR18516_01 1</masterclipid>
					<logginginfo>
						<scene/>
						<shottake/>
						<lognote/>
						<good>FALSE</good>
					</logginginfo>
					<labels>
						<label2/>
					</labels>
					<comments>
						<mastercomment1/>
						<mastercomment2/>
						<mastercomment3/>
						<mastercomment4/>
					</comments>
					<file id="DYR18516_01 2"/>
					<filter>
						<effect>
							<name>Audio Levels</name>
							<effectid>audiolevels</effectid>
							<effectcategory>audiolevels</effectcategory>
							<effecttype>audiolevels</effecttype>
							<mediatype>audio</mediatype>
							<parameter>
								<name>Level</name>
								<parameterid>level</parameterid>
								<valuemin>0</valuemin>
								<valuemax>3.98109</valuemax>
								<value>1</value>
							</parameter>
						</effect>
					</filter>
					<filter>
						<effect>
							<name>Audio Pan</name>
							<effectid>audiopan</effectid>
							<effectcategory>audiopan</effectcategory>
							<effecttype>audiopan</effecttype>
							<mediatype>audio</mediatype>
							<parameter>
								<name>Pan</name>
								<parameterid>pan</parameterid>
								<valuemin>-1</valuemin>
								<valuemax>1</valuemax>
								<value>0</value>
							</parameter>
						</effect>
					</filter>
					<sourcetrack>
						<mediatype>audio</mediatype>
						<trackindex>1</trackindex>
					</sourcetrack>
					<link>
						<linkclipref>DYR18516_01 5</linkclipref>
						<mediatype>video</mediatype>
						<trackindex>1</trackindex>
						<clipindex>141</clipindex>
					</link>
					<link>
						<linkclipref>DYR18516_01 6</linkclipref>
						<mediatype>audio</mediatype>
						<trackindex>1</trackindex>
						<clipindex>143</clipindex>
					</link>
					<link>
						<linkclipref>DYR18516_01 7</linkclipref>
						<mediatype>audio</mediatype>
						<trackindex>2</trackindex>
						<clipindex>146</clipindex>
					</link>
					<itemhistory>
						<uuid>824EBB8B-95CB-4F0F-A444-E98D992FE37E</uuid>
					</itemhistory>
				</clipitem>
				<clipitem id="DYR18516_01 9">
					<name>DYR18516_01</name>
					<duration>2267</duration>
					<rate>
						<ntsc>FALSE</ntsc>
						<timebase>25</timebase>
					</rate>
					<in>456</in>
					<out>538</out>
					<start>19689</start>
					<end>19771</end>
					<subframeoffset>0</subframeoffset>
					<masterclipid>DYR18516_01 1</masterclipid>
					<logginginfo>
						<scene/>
						<shottake/>
						<lognote/>
						<good>FALSE</good>
					</logginginfo>
					<labels>
						<label2/>
					</labels>
					<comments>
						<mastercomment1/>
						<mastercomment2/>
						<mastercomment3/>
						<mastercomment4/>
					</comments>
					<file id="DYR18516_01 2"/>
					<filter>
						<effect>
							<name>Audio Levels</name>
							<effectid>audiolevels</effectid>
							<effectcategory>audiolevels</effectcategory>
							<effecttype>audiolevels</effecttype>
							<mediatype>audio</mediatype>
							<parameter>
								<name>Level</name>
								<parameterid>level</parameterid>
								<valuemin>0</valuemin>
								<valuemax>3.98109</valuemax>
								<value>1</value>
							</parameter>
						</effect>
					</filter>
					<filter>
						<effect>
							<name>Audio Pan</name>
							<effectid>audiopan</effectid>
							<effectcategory>audiopan</effectcategory>
							<effecttype>audiopan</effecttype>
							<mediatype>audio</mediatype>
							<parameter>
								<name>Pan</name>
								<parameterid>pan</parameterid>
								<valuemin>-1</valuemin>
								<valuemax>1</valuemax>
								<value>0</value>
							</parameter>
						</effect>
					</filter>
					<sourcetrack>
						<mediatype>audio</mediatype>
						<trackindex>1</trackindex>
					</sourcetrack>
					<link>
						<linkclipref>DYR18516_01 8</linkclipref>
						<mediatype>video</mediatype>
						<trackindex>1</trackindex>
						<clipindex>142</clipindex>
					</link>
					<link>
						<linkclipref>DYR18516_01 9</linkclipref>
						<mediatype>audio</mediatype>
						<trackindex>1</trackindex>
						<clipindex>144</clipindex>
					</link>
					<link>
						<linkclipref>DYR18516_01 10</linkclipref>
						<mediatype>audio</mediatype>
						<trackindex>2</trackindex>
						<clipindex>147</clipindex>
					</link>
					<itemhistory>
						<uuid>28AAEE0A-38F2-47A6-89F1-39C342FCFB1A</uuid>
					</itemhistory>
				</clipitem>
				<clipitem id="DYR18516_01 12">
					<name>DYR18516_01</name>
					<duration>2267</duration>
					<rate>
						<ntsc>FALSE</ntsc>
						<timebase>25</timebase>
					</rate>
					<in>788</in>
					<out>1025</out>
					<start>19805</start>
					<end>20042</end>
					<subframeoffset>0</subframeoffset>
					<masterclipid>DYR18516_01 1</masterclipid>
					<logginginfo>
						<scene/>
						<shottake/>
						<lognote/>
						<good>FALSE</good>
					</logginginfo>
					<labels>
						<label2/>
					</labels>
					<comments>
						<mastercomment1/>
						<mastercomment2/>
						<mastercomment3/>
						<mastercomment4/>
					</comments>
					<file id="DYR18516_01 2"/>
					<filter>
						<effect>
							<name>Audio Levels</name>
							<effectid>audiolevels</effectid>
							<effectcategory>audiolevels</effectcategory>
							<effecttype>audiolevels</effecttype>
							<mediatype>audio</mediatype>
							<parameter>
								<name>Level</name>
								<parameterid>level</parameterid>
								<valuemin>0</valuemin>
								<valuemax>3.98109</valuemax>
								<value>1</value>
							</parameter>
						</effect>
					</filter>
					<filter>
						<effect>
							<name>Audio Pan</name>
							<effectid>audiopan</effectid>
							<effectcategory>audiopan</effectcategory>
							<effecttype>audiopan</effecttype>
							<mediatype>audio</mediatype>
							<parameter>
								<name>Pan</name>
								<parameterid>pan</parameterid>
								<valuemin>-1</valuemin>
								<valuemax>1</valuemax>
								<value>0</value>
							</parameter>
						</effect>
					</filter>
					<sourcetrack>
						<mediatype>audio</mediatype>
						<trackindex>1</trackindex>
					</sourcetrack>
					<link>
						<linkclipref>DYR18516_01 11</linkclipref>
						<mediatype>video</mediatype>
						<trackindex>1</trackindex>
						<clipindex>143</clipindex>
					</link>
					<link>
						<linkclipref>DYR18516_01 12</linkclipref>
						<mediatype>audio</mediatype>
						<trackindex>1</trackindex>
						<clipindex>145</clipindex>
					</link>
					<link>
						<linkclipref>DYR18516_01 13</linkclipref>
						<mediatype>audio</mediatype>
						<trackindex>2</trackindex>
						<clipindex>148</clipindex>
					</link>
					<itemhistory>
						<uuid>20459C33-5381-457B-A0BA-04AF6D318809</uuid>
					</itemhistory>
				</clipitem>
				<clipitem id="DYR18516_01 15">
					<name>DYR18516_01</name>
					<duration>2267</duration>
					<rate>
						<ntsc>FALSE</ntsc>
						<timebase>25</timebase>
					</rate>
					<in>1610</in>
					<out>1679</out>
					<start>20042</start>
					<end>20111</end>
					<subframeoffset>0</subframeoffset>
					<masterclipid>DYR18516_01 1</masterclipid>
					<logginginfo>
						<scene/>
						<shottake/>
						<lognote/>
						<good>FALSE</good>
					</logginginfo>
					<labels>
						<label2/>
					</labels>
					<comments>
						<mastercomment1/>
						<mastercomment2/>
						<mastercomment3/>
						<mastercomment4/>
					</comments>
					<file id="DYR18516_01 2"/>
					<filter>
						<effect>
							<name>Audio Levels</name>
							<effectid>audiolevels</effectid>
							<effectcategory>audiolevels</effectcategory>
							<effecttype>audiolevels</effecttype>
							<mediatype>audio</mediatype>
							<parameter>
								<name>Level</name>
								<parameterid>level</parameterid>
								<valuemin>0</valuemin>
								<valuemax>3.98109</valuemax>
								<value>0</value>
							</parameter>
						</effect>
					</filter>
					<filter>
						<effect>
							<name>Audio Pan</name>
							<effectid>audiopan</effectid>
							<effectcategory>audiopan</effectcategory>
							<effecttype>audiopan</effecttype>
							<mediatype>audio</mediatype>
							<parameter>
								<name>Pan</name>
								<parameterid>pan</parameterid>
								<valuemin>-1</valuemin>
								<valuemax>1</valuemax>
								<value>0</value>
							</parameter>
						</effect>
					</filter>
					<sourcetrack>
						<mediatype>audio</mediatype>
						<trackindex>1</trackindex>
					</sourcetrack>
					<link>
						<linkclipref>DYR18516_01 14</linkclipref>
						<mediatype>video</mediatype>
						<trackindex>1</trackindex>
						<clipindex>144</clipindex>
					</link>
					<link>
						<linkclipref>DYR18516_01 15</linkclipref>
						<mediatype>audio</mediatype>
						<trackindex>1</trackindex>
						<clipindex>146</clipindex>
					</link>
					<link>
						<linkclipref>DYR18516_01 16</linkclipref>
						<mediatype>audio</mediatype>
						<trackindex>2</trackindex>
						<clipindex>149</clipindex>
					</link>
					<itemhistory>
						<uuid>F31F102B-C809-4359-8E50-1B0A4BF9C9A9</uuid>
					</itemhistory>
				</clipitem>
				<clipitem id="DYR18517_01 3">
					<name>DYR18517_01</name>
					<duration>3508</duration>
					<rate>
						<ntsc>FALSE</ntsc>
						<timebase>25</timebase>
					</rate>
					<in>384</in>
					<out>449</out>
					<start>20111</start>
					<end>20176</end>
					<subframeoffset>0</subframeoffset>
					<masterclipid>DYR18517_01 1</masterclipid>
					<logginginfo>
						<scene/>
						<shottake/>
						<lognote/>
						<good>FALSE</good>
					</logginginfo>
					<labels>
						<label2/>
					</labels>
					<comments>
						<mastercomment1/>
						<mastercomment2/>
						<mastercomment3/>
						<mastercomment4/>
					</comments>
					<file id="DYR18517_01 2"/>
					<filter>
						<effect>
							<name>Audio Levels</name>
							<effectid>audiolevels</effectid>
							<effectcategory>audiolevels</effectcategory>
							<effecttype>audiolevels</effecttype>
							<mediatype>audio</mediatype>
							<parameter>
								<name>Level</name>
								<parameterid>level</parameterid>
								<valuemin>0</valuemin>
								<valuemax>3.98109</valuemax>
								<value>1</value>
							</parameter>
						</effect>
					</filter>
					<filter>
						<effect>
							<name>Audio Pan</name>
							<effectid>audiopan</effectid>
							<effectcategory>audiopan</effectcategory>
							<effecttype>audiopan</effecttype>
							<mediatype>audio</mediatype>
							<parameter>
								<name>Pan</name>
								<parameterid>pan</parameterid>
								<valuemin>-1</valuemin>
								<valuemax>1</valuemax>
								<value>0</value>
							</parameter>
						</effect>
					</filter>
					<sourcetrack>
						<mediatype>audio</mediatype>
						<trackindex>1</trackindex>
					</sourcetrack>
					<link>
						<linkclipref>DYR18517_01 </linkclipref>
						<mediatype>video</mediatype>
						<trackindex>1</trackindex>
						<clipindex>145</clipindex>
					</link>
					<link>
						<linkclipref>DYR18517_01 3</linkclipref>
						<mediatype>audio</mediatype>
						<trackindex>1</trackindex>
						<clipindex>147</clipindex>
					</link>
					<link>
						<linkclipref>DYR18517_01 4</linkclipref>
						<mediatype>audio</mediatype>
						<trackindex>2</trackindex>
						<clipindex>150</clipindex>
					</link>
					<itemhistory>
						<uuid>0CB112FB-F107-462D-93E1-35E8F866D669</uuid>
					</itemhistory>
				</clipitem>
				<clipitem id="DYR18517_01 6">
					<name>DYR18517_01</name>
					<duration>3508</duration>
					<rate>
						<ntsc>FALSE</ntsc>
						<timebase>25</timebase>
					</rate>
					<in>1466</in>
					<out>1574</out>
					<start>20176</start>
					<end>20284</end>
					<subframeoffset>0</subframeoffset>
					<masterclipid>DYR18517_01 1</masterclipid>
					<logginginfo>
						<scene/>
						<shottake/>
						<lognote/>
						<good>FALSE</good>
					</logginginfo>
					<labels>
						<label2/>
					</labels>
					<comments>
						<mastercomment1/>
						<mastercomment2/>
						<mastercomment3/>
						<mastercomment4/>
					</comments>
					<file id="DYR18517_01 2"/>
					<filter>
						<effect>
							<name>Audio Levels</name>
							<effectid>audiolevels</effectid>
							<effectcategory>audiolevels</effectcategory>
							<effecttype>audiolevels</effecttype>
							<mediatype>audio</mediatype>
							<parameter>
								<name>Level</name>
								<parameterid>level</parameterid>
								<valuemin>0</valuemin>
								<valuemax>3.98109</valuemax>
								<value>1</value>
							</parameter>
						</effect>
					</filter>
					<filter>
						<effect>
							<name>Audio Pan</name>
							<effectid>audiopan</effectid>
							<effectcategory>audiopan</effectcategory>
							<effecttype>audiopan</effecttype>
							<mediatype>audio</mediatype>
							<parameter>
								<name>Pan</name>
								<parameterid>pan</parameterid>
								<valuemin>-1</valuemin>
								<valuemax>1</valuemax>
								<value>0</value>
							</parameter>
						</effect>
					</filter>
					<sourcetrack>
						<mediatype>audio</mediatype>
						<trackindex>1</trackindex>
					</sourcetrack>
					<link>
						<linkclipref>DYR18517_01 5</linkclipref>
						<mediatype>video</mediatype>
						<trackindex>1</trackindex>
						<clipindex>146</clipindex>
					</link>
					<link>
						<linkclipref>DYR18517_01 6</linkclipref>
						<mediatype>audio</mediatype>
						<trackindex>1</trackindex>
						<clipindex>148</clipindex>
					</link>
					<link>
						<linkclipref>DYR18517_01 7</linkclipref>
						<mediatype>audio</mediatype>
						<trackindex>2</trackindex>
						<clipindex>151</clipindex>
					</link>
					<itemhistory>
						<uuid>5E4A5145-4C1E-47D9-9FFC-584DA804D165</uuid>
					</itemhistory>
				</clipitem>
				<clipitem id="DYR18527_01 3">
					<name>DYR18527_01</name>
					<duration>2587</duration>
					<rate>
						<ntsc>FALSE</ntsc>
						<timebase>25</timebase>
					</rate>
					<in>469</in>
					<out>738</out>
					<start>20329</start>
					<end>20598</end>
					<subframeoffset>0</subframeoffset>
					<enabled>TRUE</enabled>
					<masterclipid>DYR18527_01 1</masterclipid>
					<logginginfo>
						<scene/>
						<shottake/>
						<lognote/>
						<good>FALSE</good>
					</logginginfo>
					<labels>
						<label2/>
					</labels>
					<comments>
						<mastercomment1/>
						<mastercomment2/>
						<mastercomment3/>
						<mastercomment4/>
					</comments>
					<file id="DYR18527_01 2"/>
					<filter>
						<effect>
							<name>Audio Levels</name>
							<effectid>audiolevels</effectid>
							<effectcategory>audiolevels</effectcategory>
							<effecttype>audiolevels</effecttype>
							<mediatype>audio</mediatype>
							<parameter>
								<name>Level</name>
								<parameterid>level</parameterid>
								<valuemin>0</valuemin>
								<valuemax>3.98109</valuemax>
								<value>1</value>
							</parameter>
						</effect>
					</filter>
					<filter>
						<effect>
							<name>Audio Pan</name>
							<effectid>audiopan</effectid>
							<effectcategory>audiopan</effectcategory>
							<effecttype>audiopan</effecttype>
							<mediatype>audio</mediatype>
							<parameter>
								<name>Pan</name>
								<parameterid>pan</parameterid>
								<valuemin>-1</valuemin>
								<valuemax>1</valuemax>
								<value>0</value>
							</parameter>
						</effect>
					</filter>
					<sourcetrack>
						<mediatype>audio</mediatype>
						<trackindex>1</trackindex>
					</sourcetrack>
					<link>
						<linkclipref>DYR18527_01 </linkclipref>
						<mediatype>video</mediatype>
						<trackindex>1</trackindex>
						<clipindex>147</clipindex>
					</link>
					<link>
						<linkclipref>DYR18527_01 3</linkclipref>
						<mediatype>audio</mediatype>
						<trackindex>1</trackindex>
						<clipindex>149</clipindex>
					</link>
					<itemhistory>
						<uuid>BB6FDF19-594D-430A-8793-7C3AF5E45AB1</uuid>
					</itemhistory>
				</clipitem>
				<clipitem id="DYR18527_01 4">
					<name>DYR18527_01</name>
					<duration>2587</duration>
					<rate>
						<ntsc>FALSE</ntsc>
						<timebase>25</timebase>
					</rate>
					<in>799</in>
					<out>915</out>
					<start>20598</start>
					<end>20714</end>
					<subframeoffset>0</subframeoffset>
					<enabled>TRUE</enabled>
					<masterclipid>DYR18527_01 1</masterclipid>
					<logginginfo>
						<scene/>
						<shottake/>
						<lognote/>
						<good>FALSE</good>
					</logginginfo>
					<labels>
						<label2/>
					</labels>
					<comments>
						<mastercomment1/>
						<mastercomment2/>
						<mastercomment3/>
						<mastercomment4/>
					</comments>
					<file id="DYR18527_01 2"/>
					<filter>
						<effect>
							<name>Audio Levels</name>
							<effectid>audiolevels</effectid>
							<effectcategory>audiolevels</effectcategory>
							<effecttype>audiolevels</effecttype>
							<mediatype>audio</mediatype>
							<parameter>
								<name>Level</name>
								<parameterid>level</parameterid>
								<valuemin>0</valuemin>
								<valuemax>3.98109</valuemax>
								<keyframe>
									<when>847</when>
									<value>1</value>
								</keyframe>
								<keyframe>
									<when>856.714</when>
									<value>0</value>
								</keyframe>
								<interpolation>
									<name>FCPCurve</name>
								</interpolation>
								<value>1</value>
							</parameter>
						</effect>
					</filter>
					<filter>
						<effect>
							<name>Audio Pan</name>
							<effectid>audiopan</effectid>
							<effectcategory>audiopan</effectcategory>
							<effecttype>audiopan</effecttype>
							<mediatype>audio</mediatype>
							<parameter>
								<name>Pan</name>
								<parameterid>pan</parameterid>
								<valuemin>-1</valuemin>
								<valuemax>1</valuemax>
								<value>0</value>
							</parameter>
						</effect>
					</filter>
					<sourcetrack>
						<mediatype>audio</mediatype>
						<trackindex>1</trackindex>
					</sourcetrack>
					<itemhistory>
						<uuid>14E03E9E-88AD-43D6-8D90-7A87FFC867D7</uuid>
					</itemhistory>
				</clipitem>
				<transitionitem>
					<rate>
						<ntsc>FALSE</ntsc>
						<timebase>25</timebase>
					</rate>
					<start>20721</start>
					<end>20746</end>
					<alignment>start-black</alignment>
					<effect>
						<name>Cross Fade (+3dB)</name>
						<effectid>KGAudioTransCrossFade3dB</effectid>
						<effecttype>transition</effecttype>
						<mediatype>audio</mediatype>
					</effect>
				</transitionitem>
				<clipitem id="00834001.MOV2">
					<name>00834001.MOV</name>
					<duration>1044</duration>
					<rate>
						<ntsc>FALSE</ntsc>
						<timebase>25</timebase>
					</rate>
					<in>226</in>
					<out>876</out>
					<start>-1</start>
					<end>21371</end>
					<subframeoffset>0</subframeoffset>
					<enabled>TRUE</enabled>
					<masterclipid>00834001.MOV1</masterclipid>
					<logginginfo>
						<scene/>
						<shottake/>
						<lognote/>
						<good>FALSE</good>
					</logginginfo>
					<labels>
						<label2/>
					</labels>
					<comments>
						<mastercomment1/>
						<mastercomment2/>
						<mastercomment3/>
						<mastercomment4/>
					</comments>
					<file id="00834001 "/>
					<filter>
						<effect>
							<name>Audio Levels</name>
							<effectid>audiolevels</effectid>
							<effectcategory>audiolevels</effectcategory>
							<effecttype>audiolevels</effecttype>
							<mediatype>audio</mediatype>
							<parameter>
								<name>Level</name>
								<parameterid>level</parameterid>
								<valuemin>0</valuemin>
								<valuemax>3.98109</valuemax>
								<value>1.58489</value>
							</parameter>
						</effect>
					</filter>
					<filter>
						<effect>
							<name>Audio Pan</name>
							<effectid>audiopan</effectid>
							<effectcategory>audiopan</effectcategory>
							<effecttype>audiopan</effecttype>
							<mediatype>audio</mediatype>
							<parameter>
								<name>Pan</name>
								<parameterid>pan</parameterid>
								<valuemin>-1</valuemin>
								<valuemax>1</valuemax>
								<value>0</value>
							</parameter>
						</effect>
					</filter>
					<sourcetrack>
						<mediatype>audio</mediatype>
						<trackindex>1</trackindex>
					</sourcetrack>
					<link>
						<linkclipref>00834001.MOV</linkclipref>
						<mediatype>video</mediatype>
						<trackindex>1</trackindex>
						<clipindex>149</clipindex>
					</link>
					<link>
						<linkclipref>00834001.MOV2</linkclipref>
						<mediatype>audio</mediatype>
						<trackindex>1</trackindex>
						<clipindex>152</clipindex>
					</link>
					<link>
						<linkclipref>00834001.MOV3</linkclipref>
						<mediatype>audio</mediatype>
						<trackindex>2</trackindex>
						<clipindex>153</clipindex>
					</link>
					<itemhistory>
						<uuid>FDC57955-145B-4C24-B124-04550E78EDFB</uuid>
					</itemhistory>
				</clipitem>
				<clipitem id="00836001.MOV2">
					<name>00836001.MOV</name>
					<duration>264</duration>
					<rate>
						<ntsc>FALSE</ntsc>
						<timebase>25</timebase>
					</rate>
					<in>70</in>
					<out>164</out>
					<start>21371</start>
					<end>21465</end>
					<subframeoffset>0</subframeoffset>
					<masterclipid>00836001.MOV1</masterclipid>
					<logginginfo>
						<scene/>
						<shottake/>
						<lognote/>
						<good>FALSE</good>
					</logginginfo>
					<labels>
						<label2/>
					</labels>
					<comments>
						<mastercomment1/>
						<mastercomment2/>
						<mastercomment3/>
						<mastercomment4/>
					</comments>
					<file id="00836001 "/>
					<filter>
						<effect>
							<name>Audio Levels</name>
							<effectid>audiolevels</effectid>
							<effectcategory>audiolevels</effectcategory>
							<effecttype>audiolevels</effecttype>
							<mediatype>audio</mediatype>
							<parameter>
								<name>Level</name>
								<parameterid>level</parameterid>
								<valuemin>0</valuemin>
								<valuemax>3.98109</valuemax>
								<value>1.77828</value>
							</parameter>
						</effect>
					</filter>
					<filter>
						<effect>
							<name>Audio Pan</name>
							<effectid>audiopan</effectid>
							<effectcategory>audiopan</effectcategory>
							<effecttype>audiopan</effecttype>
							<mediatype>audio</mediatype>
							<parameter>
								<name>Pan</name>
								<parameterid>pan</parameterid>
								<valuemin>-1</valuemin>
								<valuemax>1</valuemax>
								<value>0</value>
							</parameter>
						</effect>
					</filter>
					<sourcetrack>
						<mediatype>audio</mediatype>
						<trackindex>1</trackindex>
					</sourcetrack>
					<link>
						<linkclipref>00836001.MOV</linkclipref>
						<mediatype>video</mediatype>
						<trackindex>1</trackindex>
						<clipindex>150</clipindex>
					</link>
					<link>
						<linkclipref>00836001.MOV2</linkclipref>
						<mediatype>audio</mediatype>
						<trackindex>1</trackindex>
						<clipindex>153</clipindex>
					</link>
					<link>
						<linkclipref>00836001.MOV3</linkclipref>
						<mediatype>audio</mediatype>
						<trackindex>2</trackindex>
						<clipindex>154</clipindex>
					</link>
					<itemhistory>
						<uuid>329E7A78-2C6B-4AEB-B406-DACE38E4E13F</uuid>
					</itemhistory>
				</clipitem>
				<clipitem id="00837001.MOV2">
					<name>00837001.MOV</name>
					<duration>432</duration>
					<rate>
						<ntsc>FALSE</ntsc>
						<timebase>25</timebase>
					</rate>
					<in>95</in>
					<out>262</out>
					<start>21465</start>
					<end>21632</end>
					<subframeoffset>0</subframeoffset>
					<masterclipid>00837001.MOV1</masterclipid>
					<logginginfo>
						<scene/>
						<shottake/>
						<lognote/>
						<good>FALSE</good>
					</logginginfo>
					<labels>
						<label2/>
					</labels>
					<comments>
						<mastercomment1/>
						<mastercomment2/>
						<mastercomment3/>
						<mastercomment4/>
					</comments>
					<file id="00837001 "/>
					<filter>
						<effect>
							<name>Audio Levels</name>
							<effectid>audiolevels</effectid>
							<effectcategory>audiolevels</effectcategory>
							<effecttype>audiolevels</effecttype>
							<mediatype>audio</mediatype>
							<parameter>
								<name>Level</name>
								<parameterid>level</parameterid>
								<valuemin>0</valuemin>
								<valuemax>3.98109</valuemax>
								<value>1.77828</value>
							</parameter>
						</effect>
					</filter>
					<filter>
						<effect>
							<name>Audio Pan</name>
							<effectid>audiopan</effectid>
							<effectcategory>audiopan</effectcategory>
							<effecttype>audiopan</effecttype>
							<mediatype>audio</mediatype>
							<parameter>
								<name>Pan</name>
								<parameterid>pan</parameterid>
								<valuemin>-1</valuemin>
								<valuemax>1</valuemax>
								<value>0</value>
							</parameter>
						</effect>
					</filter>
					<sourcetrack>
						<mediatype>audio</mediatype>
						<trackindex>1</trackindex>
					</sourcetrack>
					<link>
						<linkclipref>00837001.MOV</linkclipref>
						<mediatype>video</mediatype>
						<trackindex>1</trackindex>
						<clipindex>151</clipindex>
					</link>
					<link>
						<linkclipref>00837001.MOV2</linkclipref>
						<mediatype>audio</mediatype>
						<trackindex>1</trackindex>
						<clipindex>154</clipindex>
					</link>
					<link>
						<linkclipref>00837001.MOV3</linkclipref>
						<mediatype>audio</mediatype>
						<trackindex>2</trackindex>
						<clipindex>155</clipindex>
					</link>
					<itemhistory>
						<uuid>6247274D-E800-4D48-8400-6C6286CF74C4</uuid>
					</itemhistory>
				</clipitem>
				<clipitem id="00773001.MOV2">
					<name>00773001.MOV</name>
					<duration>1572</duration>
					<rate>
						<ntsc>FALSE</ntsc>
						<timebase>25</timebase>
					</rate>
					<in>1348</in>
					<out>1448</out>
					<start>21632</start>
					<end>21732</end>
					<subframeoffset>0</subframeoffset>
					<masterclipid>00773001.MOV1</masterclipid>
					<logginginfo>
						<scene/>
						<shottake/>
						<lognote/>
						<good>FALSE</good>
					</logginginfo>
					<labels>
						<label2/>
					</labels>
					<comments>
						<mastercomment1/>
						<mastercomment2/>
						<mastercomment3/>
						<mastercomment4/>
					</comments>
					<file id="00773001 "/>
					<filter>
						<effect>
							<name>Audio Levels</name>
							<effectid>audiolevels</effectid>
							<effectcategory>audiolevels</effectcategory>
							<effecttype>audiolevels</effecttype>
							<mediatype>audio</mediatype>
							<parameter>
								<name>Level</name>
								<parameterid>level</parameterid>
								<valuemin>0</valuemin>
								<valuemax>3.98109</valuemax>
								<value>1.77828</value>
							</parameter>
						</effect>
					</filter>
					<filter>
						<effect>
							<name>Audio Pan</name>
							<effectid>audiopan</effectid>
							<effectcategory>audiopan</effectcategory>
							<effecttype>audiopan</effecttype>
							<mediatype>audio</mediatype>
							<parameter>
								<name>Pan</name>
								<parameterid>pan</parameterid>
								<valuemin>-1</valuemin>
								<valuemax>1</valuemax>
								<value>0</value>
							</parameter>
						</effect>
					</filter>
					<sourcetrack>
						<mediatype>audio</mediatype>
						<trackindex>1</trackindex>
					</sourcetrack>
					<link>
						<linkclipref>00773001.MOV</linkclipref>
						<mediatype>video</mediatype>
						<trackindex>1</trackindex>
						<clipindex>152</clipindex>
					</link>
					<link>
						<linkclipref>00773001.MOV2</linkclipref>
						<mediatype>audio</mediatype>
						<trackindex>1</trackindex>
						<clipindex>155</clipindex>
					</link>
					<link>
						<linkclipref>00773001.MOV3</linkclipref>
						<mediatype>audio</mediatype>
						<trackindex>2</trackindex>
						<clipindex>156</clipindex>
					</link>
					<itemhistory>
						<uuid>FC1F401E-CC75-4388-8329-40F852E27707</uuid>
					</itemhistory>
				</clipitem>
				<clipitem id="00778001.MOV2">
					<name>00778001.MOV</name>
					<duration>2628</duration>
					<rate>
						<ntsc>FALSE</ntsc>
						<timebase>25</timebase>
					</rate>
					<in>195</in>
					<out>334</out>
					<start>21732</start>
					<end>21871</end>
					<subframeoffset>0</subframeoffset>
					<masterclipid>00778001.MOV1</masterclipid>
					<logginginfo>
						<scene/>
						<shottake/>
						<lognote/>
						<good>FALSE</good>
					</logginginfo>
					<labels>
						<label2/>
					</labels>
					<comments>
						<mastercomment1/>
						<mastercomment2/>
						<mastercomment3/>
						<mastercomment4/>
					</comments>
					<file id="00778001 "/>
					<filter>
						<effect>
							<name>Audio Levels</name>
							<effectid>audiolevels</effectid>
							<effectcategory>audiolevels</effectcategory>
							<effecttype>audiolevels</effecttype>
							<mediatype>audio</mediatype>
							<parameter>
								<name>Level</name>
								<parameterid>level</parameterid>
								<valuemin>0</valuemin>
								<valuemax>3.98109</valuemax>
								<value>3.16228</value>
							</parameter>
						</effect>
					</filter>
					<filter>
						<effect>
							<name>Audio Pan</name>
							<effectid>audiopan</effectid>
							<effectcategory>audiopan</effectcategory>
							<effecttype>audiopan</effecttype>
							<mediatype>audio</mediatype>
							<parameter>
								<name>Pan</name>
								<parameterid>pan</parameterid>
								<valuemin>-1</valuemin>
								<valuemax>1</valuemax>
								<value>0</value>
							</parameter>
						</effect>
					</filter>
					<sourcetrack>
						<mediatype>audio</mediatype>
						<trackindex>1</trackindex>
					</sourcetrack>
					<link>
						<linkclipref>00778001.MOV</linkclipref>
						<mediatype>video</mediatype>
						<trackindex>1</trackindex>
						<clipindex>153</clipindex>
					</link>
					<link>
						<linkclipref>00778001.MOV2</linkclipref>
						<mediatype>audio</mediatype>
						<trackindex>1</trackindex>
						<clipindex>156</clipindex>
					</link>
					<link>
						<linkclipref>00778001.MOV3</linkclipref>
						<mediatype>audio</mediatype>
						<trackindex>2</trackindex>
						<clipindex>157</clipindex>
					</link>
					<itemhistory>
						<uuid>74DEA935-F0CC-4417-B346-F238CB8643BE</uuid>
					</itemhistory>
				</clipitem>
				<clipitem id="00779001.MOV2">
					<name>00779001.MOV</name>
					<duration>804</duration>
					<rate>
						<ntsc>FALSE</ntsc>
						<timebase>25</timebase>
					</rate>
					<in>189</in>
					<out>264</out>
					<start>21871</start>
					<end>21946</end>
					<subframeoffset>0</subframeoffset>
					<masterclipid>00779001.MOV1</masterclipid>
					<logginginfo>
						<scene/>
						<shottake/>
						<lognote/>
						<good>FALSE</good>
					</logginginfo>
					<labels>
						<label2/>
					</labels>
					<comments>
						<mastercomment1/>
						<mastercomment2/>
						<mastercomment3/>
						<mastercomment4/>
					</comments>
					<file id="00779001 "/>
					<filter>
						<effect>
							<name>Audio Levels</name>
							<effectid>audiolevels</effectid>
							<effectcategory>audiolevels</effectcategory>
							<effecttype>audiolevels</effecttype>
							<mediatype>audio</mediatype>
							<parameter>
								<name>Level</name>
								<parameterid>level</parameterid>
								<valuemin>0</valuemin>
								<valuemax>3.98109</valuemax>
								<value>3.16228</value>
							</parameter>
						</effect>
					</filter>
					<filter>
						<effect>
							<name>Audio Pan</name>
							<effectid>audiopan</effectid>
							<effectcategory>audiopan</effectcategory>
							<effecttype>audiopan</effecttype>
							<mediatype>audio</mediatype>
							<parameter>
								<name>Pan</name>
								<parameterid>pan</parameterid>
								<valuemin>-1</valuemin>
								<valuemax>1</valuemax>
								<value>0</value>
							</parameter>
						</effect>
					</filter>
					<sourcetrack>
						<mediatype>audio</mediatype>
						<trackindex>1</trackindex>
					</sourcetrack>
					<link>
						<linkclipref>00779001.MOV</linkclipref>
						<mediatype>video</mediatype>
						<trackindex>1</trackindex>
						<clipindex>154</clipindex>
					</link>
					<link>
						<linkclipref>00779001.MOV2</linkclipref>
						<mediatype>audio</mediatype>
						<trackindex>1</trackindex>
						<clipindex>157</clipindex>
					</link>
					<link>
						<linkclipref>00779001.MOV3</linkclipref>
						<mediatype>audio</mediatype>
						<trackindex>2</trackindex>
						<clipindex>158</clipindex>
					</link>
					<itemhistory>
						<uuid>B1F99392-B36E-4E6F-9516-33BC8CFEAFA1</uuid>
					</itemhistory>
				</clipitem>
				<clipitem id="00778001.MOV5">
					<name>00778001.MOV</name>
					<duration>2628</duration>
					<rate>
						<ntsc>FALSE</ntsc>
						<timebase>25</timebase>
					</rate>
					<in>439</in>
					<out>577</out>
					<start>21946</start>
					<end>22084</end>
					<subframeoffset>0</subframeoffset>
					<masterclipid>00778001.MOV1</masterclipid>
					<logginginfo>
						<scene/>
						<shottake/>
						<lognote/>
						<good>FALSE</good>
					</logginginfo>
					<labels>
						<label2/>
					</labels>
					<comments>
						<mastercomment1/>
						<mastercomment2/>
						<mastercomment3/>
						<mastercomment4/>
					</comments>
					<file id="00778001 "/>
					<filter>
						<effect>
							<name>Audio Levels</name>
							<effectid>audiolevels</effectid>
							<effectcategory>audiolevels</effectcategory>
							<effecttype>audiolevels</effecttype>
							<mediatype>audio</mediatype>
							<parameter>
								<name>Level</name>
								<parameterid>level</parameterid>
								<valuemin>0</valuemin>
								<valuemax>3.98109</valuemax>
								<value>3.16228</value>
							</parameter>
						</effect>
					</filter>
					<filter>
						<effect>
							<name>Audio Pan</name>
							<effectid>audiopan</effectid>
							<effectcategory>audiopan</effectcategory>
							<effecttype>audiopan</effecttype>
							<mediatype>audio</mediatype>
							<parameter>
								<name>Pan</name>
								<parameterid>pan</parameterid>
								<valuemin>-1</valuemin>
								<valuemax>1</valuemax>
								<value>0</value>
							</parameter>
						</effect>
					</filter>
					<sourcetrack>
						<mediatype>audio</mediatype>
						<trackindex>1</trackindex>
					</sourcetrack>
					<link>
						<linkclipref>00778001.MOV4</linkclipref>
						<mediatype>video</mediatype>
						<trackindex>1</trackindex>
						<clipindex>155</clipindex>
					</link>
					<link>
						<linkclipref>00778001.MOV5</linkclipref>
						<mediatype>audio</mediatype>
						<trackindex>1</trackindex>
						<clipindex>158</clipindex>
					</link>
					<link>
						<linkclipref>00778001.MOV6</linkclipref>
						<mediatype>audio</mediatype>
						<trackindex>2</trackindex>
						<clipindex>159</clipindex>
					</link>
					<itemhistory>
						<uuid>14EEF464-6C6F-4D8E-BDDF-382A9487AE4E</uuid>
					</itemhistory>
				</clipitem>
				<clipitem id="00782001.MOV2">
					<name>00782001.MOV</name>
					<duration>1248</duration>
					<rate>
						<ntsc>FALSE</ntsc>
						<timebase>25</timebase>
					</rate>
					<in>682</in>
					<out>757</out>
					<start>22084</start>
					<end>22159</end>
					<subframeoffset>0</subframeoffset>
					<masterclipid>00782001.MOV1</masterclipid>
					<logginginfo>
						<scene/>
						<shottake/>
						<lognote/>
						<good>FALSE</good>
					</logginginfo>
					<labels>
						<label2/>
					</labels>
					<comments>
						<mastercomment1/>
						<mastercomment2/>
						<mastercomment3/>
						<mastercomment4/>
					</comments>
					<file id="00782001 "/>
					<filter>
						<effect>
							<name>Audio Levels</name>
							<effectid>audiolevels</effectid>
							<effectcategory>audiolevels</effectcategory>
							<effecttype>audiolevels</effecttype>
							<mediatype>audio</mediatype>
							<parameter>
								<name>Level</name>
								<parameterid>level</parameterid>
								<valuemin>0</valuemin>
								<valuemax>3.98109</valuemax>
								<value>1</value>
							</parameter>
						</effect>
					</filter>
					<filter>
						<effect>
							<name>Audio Pan</name>
							<effectid>audiopan</effectid>
							<effectcategory>audiopan</effectcategory>
							<effecttype>audiopan</effecttype>
							<mediatype>audio</mediatype>
							<parameter>
								<name>Pan</name>
								<parameterid>pan</parameterid>
								<valuemin>-1</valuemin>
								<valuemax>1</valuemax>
								<value>0</value>
							</parameter>
						</effect>
					</filter>
					<sourcetrack>
						<mediatype>audio</mediatype>
						<trackindex>1</trackindex>
					</sourcetrack>
					<link>
						<linkclipref>00782001.MOV</linkclipref>
						<mediatype>video</mediatype>
						<trackindex>1</trackindex>
						<clipindex>156</clipindex>
					</link>
					<link>
						<linkclipref>00782001.MOV2</linkclipref>
						<mediatype>audio</mediatype>
						<trackindex>1</trackindex>
						<clipindex>159</clipindex>
					</link>
					<link>
						<linkclipref>00782001.MOV3</linkclipref>
						<mediatype>audio</mediatype>
						<trackindex>2</trackindex>
						<clipindex>160</clipindex>
					</link>
					<itemhistory>
						<uuid>82113385-732D-4777-B68D-99B68852CFF3</uuid>
					</itemhistory>
				</clipitem>
				<clipitem id="00778001.MOV8">
					<name>00778001.MOV</name>
					<duration>2628</duration>
					<rate>
						<ntsc>FALSE</ntsc>
						<timebase>25</timebase>
					</rate>
					<in>652</in>
					<out>940</out>
					<start>22159</start>
					<end>22447</end>
					<subframeoffset>0</subframeoffset>
					<masterclipid>00778001.MOV1</masterclipid>
					<logginginfo>
						<scene/>
						<shottake/>
						<lognote/>
						<good>FALSE</good>
					</logginginfo>
					<labels>
						<label2/>
					</labels>
					<comments>
						<mastercomment1/>
						<mastercomment2/>
						<mastercomment3/>
						<mastercomment4/>
					</comments>
					<file id="00778001 "/>
					<filter>
						<effect>
							<name>Audio Levels</name>
							<effectid>audiolevels</effectid>
							<effectcategory>audiolevels</effectcategory>
							<effecttype>audiolevels</effecttype>
							<mediatype>audio</mediatype>
							<parameter>
								<name>Level</name>
								<parameterid>level</parameterid>
								<valuemin>0</valuemin>
								<valuemax>3.98109</valuemax>
								<value>3.16228</value>
							</parameter>
						</effect>
					</filter>
					<filter>
						<effect>
							<name>Audio Pan</name>
							<effectid>audiopan</effectid>
							<effectcategory>audiopan</effectcategory>
							<effecttype>audiopan</effecttype>
							<mediatype>audio</mediatype>
							<parameter>
								<name>Pan</name>
								<parameterid>pan</parameterid>
								<valuemin>-1</valuemin>
								<valuemax>1</valuemax>
								<value>0</value>
							</parameter>
						</effect>
					</filter>
					<sourcetrack>
						<mediatype>audio</mediatype>
						<trackindex>1</trackindex>
					</sourcetrack>
					<link>
						<linkclipref>00778001.MOV7</linkclipref>
						<mediatype>video</mediatype>
						<trackindex>1</trackindex>
						<clipindex>157</clipindex>
					</link>
					<link>
						<linkclipref>00778001.MOV8</linkclipref>
						<mediatype>audio</mediatype>
						<trackindex>1</trackindex>
						<clipindex>160</clipindex>
					</link>
					<link>
						<linkclipref>00778001.MOV9</linkclipref>
						<mediatype>audio</mediatype>
						<trackindex>2</trackindex>
						<clipindex>161</clipindex>
					</link>
					<itemhistory>
						<uuid>D5B7DA54-A3B6-46A8-846D-4F3E0C14F65C</uuid>
					</itemhistory>
				</clipitem>
				<clipitem id="00778001.MOV16">
					<name>00778001.MOV</name>
					<duration>2628</duration>
					<rate>
						<ntsc>FALSE</ntsc>
						<timebase>25</timebase>
					</rate>
					<in>940</in>
					<out>976</out>
					<start>22482</start>
					<end>22518</end>
					<subframeoffset>0</subframeoffset>
					<masterclipid>00778001.MOV1</masterclipid>
					<logginginfo>
						<scene/>
						<shottake/>
						<lognote/>
						<good>FALSE</good>
					</logginginfo>
					<labels>
						<label2/>
					</labels>
					<comments>
						<mastercomment1/>
						<mastercomment2/>
						<mastercomment3/>
						<mastercomment4/>
					</comments>
					<file id="00778001 "/>
					<filter>
						<effect>
							<name>Audio Levels</name>
							<effectid>audiolevels</effectid>
							<effectcategory>audiolevels</effectcategory>
							<effecttype>audiolevels</effecttype>
							<mediatype>audio</mediatype>
							<parameter>
								<name>Level</name>
								<parameterid>level</parameterid>
								<valuemin>0</valuemin>
								<valuemax>3.98109</valuemax>
								<value>3.16228</value>
							</parameter>
						</effect>
					</filter>
					<filter>
						<effect>
							<name>Audio Pan</name>
							<effectid>audiopan</effectid>
							<effectcategory>audiopan</effectcategory>
							<effecttype>audiopan</effecttype>
							<mediatype>audio</mediatype>
							<parameter>
								<name>Pan</name>
								<parameterid>pan</parameterid>
								<valuemin>-1</valuemin>
								<valuemax>1</valuemax>
								<value>0</value>
							</parameter>
						</effect>
					</filter>
					<sourcetrack>
						<mediatype>audio</mediatype>
						<trackindex>1</trackindex>
					</sourcetrack>
					<itemhistory>
						<uuid>4992B08D-0EE3-469D-ABC5-CC0AEA7677BE</uuid>
					</itemhistory>
				</clipitem>
				<clipitem id="00778001.MOV17">
					<name>00778001.MOV</name>
					<duration>2628</duration>
					<rate>
						<ntsc>FALSE</ntsc>
						<timebase>25</timebase>
					</rate>
					<in>976</in>
					<out>1025</out>
					<start>22518</start>
					<end>22567</end>
					<subframeoffset>0</subframeoffset>
					<masterclipid>00778001.MOV1</masterclipid>
					<logginginfo>
						<scene/>
						<shottake/>
						<lognote/>
						<good>FALSE</good>
					</logginginfo>
					<labels>
						<label2/>
					</labels>
					<comments>
						<mastercomment1/>
						<mastercomment2/>
						<mastercomment3/>
						<mastercomment4/>
					</comments>
					<file id="00778001 "/>
					<filter>
						<effect>
							<name>Audio Levels</name>
							<effectid>audiolevels</effectid>
							<effectcategory>audiolevels</effectcategory>
							<effecttype>audiolevels</effecttype>
							<mediatype>audio</mediatype>
							<parameter>
								<name>Level</name>
								<parameterid>level</parameterid>
								<valuemin>0</valuemin>
								<valuemax>3.98109</valuemax>
								<value>0</value>
							</parameter>
						</effect>
					</filter>
					<filter>
						<effect>
							<name>Audio Pan</name>
							<effectid>audiopan</effectid>
							<effectcategory>audiopan</effectcategory>
							<effecttype>audiopan</effecttype>
							<mediatype>audio</mediatype>
							<parameter>
								<name>Pan</name>
								<parameterid>pan</parameterid>
								<valuemin>-1</valuemin>
								<valuemax>1</valuemax>
								<value>0</value>
							</parameter>
						</effect>
					</filter>
					<sourcetrack>
						<mediatype>audio</mediatype>
						<trackindex>1</trackindex>
					</sourcetrack>
					<itemhistory>
						<uuid>34C0608B-506B-408E-B703-ED9373CEB4A5</uuid>
					</itemhistory>
				</clipitem>
				<clipitem id="00787001.MOV2">
					<name>00787001.MOV</name>
					<duration>2208</duration>
					<rate>
						<ntsc>FALSE</ntsc>
						<timebase>25</timebase>
					</rate>
					<in>275</in>
					<out>459</out>
					<start>22567</start>
					<end>22751</end>
					<subframeoffset>0</subframeoffset>
					<masterclipid>00787001.MOV1</masterclipid>
					<logginginfo>
						<scene/>
						<shottake/>
						<lognote/>
						<good>FALSE</good>
					</logginginfo>
					<labels>
						<label2/>
					</labels>
					<comments>
						<mastercomment1/>
						<mastercomment2/>
						<mastercomment3/>
						<mastercomment4/>
					</comments>
					<file id="00787001 "/>
					<filter>
						<effect>
							<name>Audio Levels</name>
							<effectid>audiolevels</effectid>
							<effectcategory>audiolevels</effectcategory>
							<effecttype>audiolevels</effecttype>
							<mediatype>audio</mediatype>
							<parameter>
								<name>Level</name>
								<parameterid>level</parameterid>
								<valuemin>0</valuemin>
								<valuemax>3.98109</valuemax>
								<value>1</value>
							</parameter>
						</effect>
					</filter>
					<filter>
						<effect>
							<name>Audio Pan</name>
							<effectid>audiopan</effectid>
							<effectcategory>audiopan</effectcategory>
							<effecttype>audiopan</effecttype>
							<mediatype>audio</mediatype>
							<parameter>
								<name>Pan</name>
								<parameterid>pan</parameterid>
								<valuemin>-1</valuemin>
								<valuemax>1</valuemax>
								<value>0</value>
							</parameter>
						</effect>
					</filter>
					<sourcetrack>
						<mediatype>audio</mediatype>
						<trackindex>1</trackindex>
					</sourcetrack>
					<link>
						<linkclipref>00787001.MOV</linkclipref>
						<mediatype>video</mediatype>
						<trackindex>1</trackindex>
						<clipindex>158</clipindex>
					</link>
					<link>
						<linkclipref>00787001.MOV2</linkclipref>
						<mediatype>audio</mediatype>
						<trackindex>1</trackindex>
						<clipindex>163</clipindex>
					</link>
					<link>
						<linkclipref>00787001.MOV3</linkclipref>
						<mediatype>audio</mediatype>
						<trackindex>2</trackindex>
						<clipindex>164</clipindex>
					</link>
					<itemhistory>
						<uuid>41A3414C-E5A7-4242-BECC-13F575EDF678</uuid>
					</itemhistory>
				</clipitem>
				<clipitem id="00790001.MOV2">
					<name>00790001.MOV</name>
					<duration>3816</duration>
					<rate>
						<ntsc>FALSE</ntsc>
						<timebase>25</timebase>
					</rate>
					<in>692</in>
					<out>790</out>
					<start>22751</start>
					<end>22849</end>
					<subframeoffset>0</subframeoffset>
					<masterclipid>00790001.MOV1</masterclipid>
					<logginginfo>
						<scene/>
						<shottake/>
						<lognote/>
						<good>FALSE</good>
					</logginginfo>
					<labels>
						<label2/>
					</labels>
					<comments>
						<mastercomment1/>
						<mastercomment2/>
						<mastercomment3/>
						<mastercomment4/>
					</comments>
					<file id="00790001 "/>
					<filter>
						<effect>
							<name>Audio Levels</name>
							<effectid>audiolevels</effectid>
							<effectcategory>audiolevels</effectcategory>
							<effecttype>audiolevels</effecttype>
							<mediatype>audio</mediatype>
							<parameter>
								<name>Level</name>
								<parameterid>level</parameterid>
								<valuemin>0</valuemin>
								<valuemax>3.98109</valuemax>
								<value>1</value>
							</parameter>
						</effect>
					</filter>
					<filter>
						<effect>
							<name>Audio Pan</name>
							<effectid>audiopan</effectid>
							<effectcategory>audiopan</effectcategory>
							<effecttype>audiopan</effecttype>
							<mediatype>audio</mediatype>
							<parameter>
								<name>Pan</name>
								<parameterid>pan</parameterid>
								<valuemin>-1</valuemin>
								<valuemax>1</valuemax>
								<value>0</value>
							</parameter>
						</effect>
					</filter>
					<sourcetrack>
						<mediatype>audio</mediatype>
						<trackindex>1</trackindex>
					</sourcetrack>
					<link>
						<linkclipref>00790001.MOV</linkclipref>
						<mediatype>video</mediatype>
						<trackindex>1</trackindex>
						<clipindex>159</clipindex>
					</link>
					<link>
						<linkclipref>00790001.MOV2</linkclipref>
						<mediatype>audio</mediatype>
						<trackindex>1</trackindex>
						<clipindex>164</clipindex>
					</link>
					<link>
						<linkclipref>00790001.MOV3</linkclipref>
						<mediatype>audio</mediatype>
						<trackindex>2</trackindex>
						<clipindex>165</clipindex>
					</link>
					<itemhistory>
						<uuid>D3ED6B07-CD47-4133-82C0-FDF0C6069F9A</uuid>
					</itemhistory>
				</clipitem>
				<clipitem id="00790001.MOV7">
					<name>00790001.MOV</name>
					<duration>3816</duration>
					<rate>
						<ntsc>FALSE</ntsc>
						<timebase>25</timebase>
					</rate>
					<in>790</in>
					<out>827</out>
					<start>22849</start>
					<end>22886</end>
					<subframeoffset>0</subframeoffset>
					<masterclipid>00790001.MOV1</masterclipid>
					<logginginfo>
						<scene/>
						<shottake/>
						<lognote/>
						<good>FALSE</good>
					</logginginfo>
					<labels>
						<label2/>
					</labels>
					<comments>
						<mastercomment1/>
						<mastercomment2/>
						<mastercomment3/>
						<mastercomment4/>
					</comments>
					<file id="00790001 "/>
					<filter>
						<effect>
							<name>Audio Levels</name>
							<effectid>audiolevels</effectid>
							<effectcategory>audiolevels</effectcategory>
							<effecttype>audiolevels</effecttype>
							<mediatype>audio</mediatype>
							<parameter>
								<name>Level</name>
								<parameterid>level</parameterid>
								<valuemin>0</valuemin>
								<valuemax>3.98109</valuemax>
								<value>0</value>
							</parameter>
						</effect>
					</filter>
					<filter>
						<effect>
							<name>Audio Pan</name>
							<effectid>audiopan</effectid>
							<effectcategory>audiopan</effectcategory>
							<effecttype>audiopan</effecttype>
							<mediatype>audio</mediatype>
							<parameter>
								<name>Pan</name>
								<parameterid>pan</parameterid>
								<valuemin>-1</valuemin>
								<valuemax>1</valuemax>
								<value>0</value>
							</parameter>
						</effect>
					</filter>
					<sourcetrack>
						<mediatype>audio</mediatype>
						<trackindex>1</trackindex>
					</sourcetrack>
					<itemhistory>
						<uuid>99549361-DD0A-406E-B8FB-432518001CAD</uuid>
					</itemhistory>
				</clipitem>
				<clipitem id="00791001.MOV2">
					<name>00791001.MOV</name>
					<duration>1224</duration>
					<rate>
						<ntsc>FALSE</ntsc>
						<timebase>25</timebase>
					</rate>
					<in>1058</in>
					<out>1155</out>
					<start>22886</start>
					<end>22983</end>
					<subframeoffset>0</subframeoffset>
					<masterclipid>00791001.MOV1</masterclipid>
					<logginginfo>
						<scene/>
						<shottake/>
						<lognote/>
						<good>FALSE</good>
					</logginginfo>
					<labels>
						<label2/>
					</labels>
					<comments>
						<mastercomment1/>
						<mastercomment2/>
						<mastercomment3/>
						<mastercomment4/>
					</comments>
					<file id="00791001 "/>
					<filter>
						<effect>
							<name>Audio Levels</name>
							<effectid>audiolevels</effectid>
							<effectcategory>audiolevels</effectcategory>
							<effecttype>audiolevels</effecttype>
							<mediatype>audio</mediatype>
							<parameter>
								<name>Level</name>
								<parameterid>level</parameterid>
								<valuemin>0</valuemin>
								<valuemax>3.98109</valuemax>
								<value>1.99526</value>
							</parameter>
						</effect>
					</filter>
					<filter>
						<effect>
							<name>Audio Pan</name>
							<effectid>audiopan</effectid>
							<effectcategory>audiopan</effectcategory>
							<effecttype>audiopan</effecttype>
							<mediatype>audio</mediatype>
							<parameter>
								<name>Pan</name>
								<parameterid>pan</parameterid>
								<valuemin>-1</valuemin>
								<valuemax>1</valuemax>
								<value>0</value>
							</parameter>
						</effect>
					</filter>
					<sourcetrack>
						<mediatype>audio</mediatype>
						<trackindex>1</trackindex>
					</sourcetrack>
					<itemhistory>
						<uuid>8FFB7032-E939-4D95-99E6-BA2F696F4746</uuid>
					</itemhistory>
				</clipitem>
				<clipitem id="00787001.MOV5">
					<name>00787001.MOV</name>
					<duration>2208</duration>
					<rate>
						<ntsc>FALSE</ntsc>
						<timebase>25</timebase>
					</rate>
					<in>707</in>
					<out>1069</out>
					<start>23005</start>
					<end>23367</end>
					<subframeoffset>0</subframeoffset>
					<masterclipid>00787001.MOV1</masterclipid>
					<logginginfo>
						<scene/>
						<shottake/>
						<lognote/>
						<good>FALSE</good>
					</logginginfo>
					<labels>
						<label2/>
					</labels>
					<comments>
						<mastercomment1/>
						<mastercomment2/>
						<mastercomment3/>
						<mastercomment4/>
					</comments>
					<file id="00787001 "/>
					<filter>
						<effect>
							<name>Audio Levels</name>
							<effectid>audiolevels</effectid>
							<effectcategory>audiolevels</effectcategory>
							<effecttype>audiolevels</effecttype>
							<mediatype>audio</mediatype>
							<parameter>
								<name>Level</name>
								<parameterid>level</parameterid>
								<valuemin>0</valuemin>
								<valuemax>3.98109</valuemax>
								<value>1</value>
							</parameter>
						</effect>
					</filter>
					<filter>
						<effect>
							<name>Audio Pan</name>
							<effectid>audiopan</effectid>
							<effectcategory>audiopan</effectcategory>
							<effecttype>audiopan</effecttype>
							<mediatype>audio</mediatype>
							<parameter>
								<name>Pan</name>
								<parameterid>pan</parameterid>
								<valuemin>-1</valuemin>
								<valuemax>1</valuemax>
								<value>0</value>
							</parameter>
						</effect>
					</filter>
					<sourcetrack>
						<mediatype>audio</mediatype>
						<trackindex>1</trackindex>
					</sourcetrack>
					<link>
						<linkclipref>00787001.MOV5</linkclipref>
						<mediatype>audio</mediatype>
						<trackindex>1</trackindex>
						<clipindex>167</clipindex>
					</link>
					<link>
						<linkclipref>00787001.MOV6</linkclipref>
						<mediatype>audio</mediatype>
						<trackindex>2</trackindex>
						<clipindex>167</clipindex>
					</link>
					<itemhistory>
						<uuid>57E92F2A-A53A-4849-B844-2AEAC0422745</uuid>
					</itemhistory>
				</clipitem>
				<clipitem id="00778001.MOV11">
					<name>00778001.MOV</name>
					<duration>2628</duration>
					<rate>
						<ntsc>FALSE</ntsc>
						<timebase>25</timebase>
					</rate>
					<in>1790</in>
					<out>1844</out>
					<start>23397</start>
					<end>23451</end>
					<subframeoffset>0</subframeoffset>
					<masterclipid>00778001.MOV1</masterclipid>
					<logginginfo>
						<scene/>
						<shottake/>
						<lognote/>
						<good>FALSE</good>
					</logginginfo>
					<labels>
						<label2/>
					</labels>
					<comments>
						<mastercomment1/>
						<mastercomment2/>
						<mastercomment3/>
						<mastercomment4/>
					</comments>
					<file id="00778001 "/>
					<filter>
						<effect>
							<name>Audio Levels</name>
							<effectid>audiolevels</effectid>
							<effectcategory>audiolevels</effectcategory>
							<effecttype>audiolevels</effecttype>
							<mediatype>audio</mediatype>
							<parameter>
								<name>Level</name>
								<parameterid>level</parameterid>
								<valuemin>0</valuemin>
								<valuemax>3.98109</valuemax>
								<value>3.16228</value>
							</parameter>
						</effect>
					</filter>
					<filter>
						<effect>
							<name>Audio Pan</name>
							<effectid>audiopan</effectid>
							<effectcategory>audiopan</effectcategory>
							<effecttype>audiopan</effecttype>
							<mediatype>audio</mediatype>
							<parameter>
								<name>Pan</name>
								<parameterid>pan</parameterid>
								<valuemin>-1</valuemin>
								<valuemax>1</valuemax>
								<value>0</value>
							</parameter>
						</effect>
					</filter>
					<sourcetrack>
						<mediatype>audio</mediatype>
						<trackindex>1</trackindex>
					</sourcetrack>
					<link>
						<linkclipref>00778001.MOV10</linkclipref>
						<mediatype>video</mediatype>
						<trackindex>1</trackindex>
						<clipindex>160</clipindex>
					</link>
					<link>
						<linkclipref>00778001.MOV11</linkclipref>
						<mediatype>audio</mediatype>
						<trackindex>1</trackindex>
						<clipindex>168</clipindex>
					</link>
					<link>
						<linkclipref>00778001.MOV12</linkclipref>
						<mediatype>audio</mediatype>
						<trackindex>2</trackindex>
						<clipindex>168</clipindex>
					</link>
					<itemhistory>
						<uuid>C919AE45-97BB-430B-9D2A-BD0928D3A091</uuid>
					</itemhistory>
				</clipitem>
				<clipitem id="00778001.MOV14">
					<name>00778001.MOV</name>
					<duration>2628</duration>
					<rate>
						<ntsc>FALSE</ntsc>
						<timebase>25</timebase>
					</rate>
					<in>2092</in>
					<out>2553</out>
					<start>23451</start>
					<end>23912</end>
					<subframeoffset>0</subframeoffset>
					<masterclipid>00778001.MOV1</masterclipid>
					<logginginfo>
						<scene/>
						<shottake/>
						<lognote/>
						<good>FALSE</good>
					</logginginfo>
					<labels>
						<label2/>
					</labels>
					<comments>
						<mastercomment1/>
						<mastercomment2/>
						<mastercomment3/>
						<mastercomment4/>
					</comments>
					<file id="00778001 "/>
					<filter>
						<effect>
							<name>Audio Levels</name>
							<effectid>audiolevels</effectid>
							<effectcategory>audiolevels</effectcategory>
							<effecttype>audiolevels</effecttype>
							<mediatype>audio</mediatype>
							<parameter>
								<name>Level</name>
								<parameterid>level</parameterid>
								<valuemin>0</valuemin>
								<valuemax>3.98109</valuemax>
								<value>3.16228</value>
							</parameter>
						</effect>
					</filter>
					<filter>
						<effect>
							<name>Audio Pan</name>
							<effectid>audiopan</effectid>
							<effectcategory>audiopan</effectcategory>
							<effecttype>audiopan</effecttype>
							<mediatype>audio</mediatype>
							<parameter>
								<name>Pan</name>
								<parameterid>pan</parameterid>
								<valuemin>-1</valuemin>
								<valuemax>1</valuemax>
								<value>0</value>
							</parameter>
						</effect>
					</filter>
					<sourcetrack>
						<mediatype>audio</mediatype>
						<trackindex>1</trackindex>
					</sourcetrack>
					<link>
						<linkclipref>00778001.MOV13</linkclipref>
						<mediatype>video</mediatype>
						<trackindex>1</trackindex>
						<clipindex>161</clipindex>
					</link>
					<link>
						<linkclipref>00778001.MOV14</linkclipref>
						<mediatype>audio</mediatype>
						<trackindex>1</trackindex>
						<clipindex>169</clipindex>
					</link>
					<link>
						<linkclipref>00778001.MOV15</linkclipref>
						<mediatype>audio</mediatype>
						<trackindex>2</trackindex>
						<clipindex>169</clipindex>
					</link>
					<itemhistory>
						<uuid>1A1FD4BC-DF98-4C52-8EB9-F532A7D9B960</uuid>
					</itemhistory>
				</clipitem>
				<clipitem id="DYR18683_01 3">
					<name>DYR18683_01</name>
					<duration>979</duration>
					<rate>
						<ntsc>FALSE</ntsc>
						<timebase>25</timebase>
					</rate>
					<in>319</in>
					<out>894</out>
					<start>24153</start>
					<end>24728</end>
					<subframeoffset>0</subframeoffset>
					<masterclipid>DYR18683_01 1</masterclipid>
					<logginginfo>
						<scene/>
						<shottake/>
						<lognote/>
						<good>FALSE</good>
					</logginginfo>
					<labels>
						<label2/>
					</labels>
					<comments>
						<mastercomment1/>
						<mastercomment2/>
						<mastercomment3/>
						<mastercomment4/>
					</comments>
					<file id="DYR18683_01 2"/>
					<filter>
						<effect>
							<name>Audio Levels</name>
							<effectid>audiolevels</effectid>
							<effectcategory>audiolevels</effectcategory>
							<effecttype>audiolevels</effecttype>
							<mediatype>audio</mediatype>
							<parameter>
								<name>Level</name>
								<parameterid>level</parameterid>
								<valuemin>0</valuemin>
								<valuemax>3.98109</valuemax>
								<value>0</value>
							</parameter>
						</effect>
					</filter>
					<filter>
						<effect>
							<name>Audio Pan</name>
							<effectid>audiopan</effectid>
							<effectcategory>audiopan</effectcategory>
							<effecttype>audiopan</effecttype>
							<mediatype>audio</mediatype>
							<parameter>
								<name>Pan</name>
								<parameterid>pan</parameterid>
								<valuemin>-1</valuemin>
								<valuemax>1</valuemax>
								<value>0</value>
							</parameter>
						</effect>
					</filter>
					<sourcetrack>
						<mediatype>audio</mediatype>
						<trackindex>1</trackindex>
					</sourcetrack>
					<link>
						<linkclipref>DYR18683_01 3</linkclipref>
						<mediatype>audio</mediatype>
						<trackindex>1</trackindex>
						<clipindex>170</clipindex>
					</link>
					<link>
						<linkclipref>DYR18683_01 4</linkclipref>
						<mediatype>audio</mediatype>
						<trackindex>2</trackindex>
						<clipindex>170</clipindex>
					</link>
					<itemhistory>
						<uuid>A0237F5E-09AB-44AB-839D-E7D4101B85E0</uuid>
					</itemhistory>
				</clipitem>
				<clipitem id="DYR18588_01 4">
					<name>DYR18588_01</name>
					<duration>1887</duration>
					<rate>
						<ntsc>FALSE</ntsc>
						<timebase>25</timebase>
					</rate>
					<in>106</in>
					<out>194</out>
					<start>24747</start>
					<end>24835</end>
					<subframeoffset>0</subframeoffset>
					<masterclipid>DYR18588_01 1</masterclipid>
					<logginginfo>
						<scene/>
						<shottake/>
						<lognote/>
						<good>FALSE</good>
					</logginginfo>
					<labels>
						<label2/>
					</labels>
					<comments>
						<mastercomment1/>
						<mastercomment2/>
						<mastercomment3/>
						<mastercomment4/>
					</comments>
					<file id="DYR18588_01 2"/>
					<filter>
						<effect>
							<name>Audio Levels</name>
							<effectid>audiolevels</effectid>
							<effectcategory>audiolevels</effectcategory>
							<effecttype>audiolevels</effecttype>
							<mediatype>audio</mediatype>
							<parameter>
								<name>Level</name>
								<parameterid>level</parameterid>
								<valuemin>0</valuemin>
								<valuemax>3.98109</valuemax>
								<value>0</value>
							</parameter>
						</effect>
					</filter>
					<filter>
						<effect>
							<name>Audio Pan</name>
							<effectid>audiopan</effectid>
							<effectcategory>audiopan</effectcategory>
							<effecttype>audiopan</effecttype>
							<mediatype>audio</mediatype>
							<parameter>
								<name>Pan</name>
								<parameterid>pan</parameterid>
								<valuemin>-1</valuemin>
								<valuemax>1</valuemax>
								<value>0</value>
							</parameter>
						</effect>
					</filter>
					<sourcetrack>
						<mediatype>audio</mediatype>
						<trackindex>1</trackindex>
					</sourcetrack>
					<link>
						<linkclipref>DYR18588_01 4</linkclipref>
						<mediatype>audio</mediatype>
						<trackindex>1</trackindex>
						<clipindex>171</clipindex>
					</link>
					<link>
						<linkclipref>DYR18588_01 5</linkclipref>
						<mediatype>audio</mediatype>
						<trackindex>2</trackindex>
						<clipindex>171</clipindex>
					</link>
					<itemhistory>
						<uuid>F730C28B-E446-4F49-A7C8-39B064357DA8</uuid>
					</itemhistory>
				</clipitem>
				<clipitem id="DYR18589_01 4">
					<name>DYR18589_01</name>
					<duration>1470</duration>
					<rate>
						<ntsc>FALSE</ntsc>
						<timebase>25</timebase>
					</rate>
					<in>197</in>
					<out>258</out>
					<start>24835</start>
					<end>24896</end>
					<subframeoffset>0</subframeoffset>
					<masterclipid>DYR18589_01 1</masterclipid>
					<logginginfo>
						<scene/>
						<shottake/>
						<lognote/>
						<good>FALSE</good>
					</logginginfo>
					<labels>
						<label2/>
					</labels>
					<comments>
						<mastercomment1/>
						<mastercomment2/>
						<mastercomment3/>
						<mastercomment4/>
					</comments>
					<file id="DYR18589_01 2"/>
					<filter>
						<effect>
							<name>Audio Levels</name>
							<effectid>audiolevels</effectid>
							<effectcategory>audiolevels</effectcategory>
							<effecttype>audiolevels</effecttype>
							<mediatype>audio</mediatype>
							<parameter>
								<name>Level</name>
								<parameterid>level</parameterid>
								<valuemin>0</valuemin>
								<valuemax>3.98109</valuemax>
								<value>0</value>
							</parameter>
						</effect>
					</filter>
					<filter>
						<effect>
							<name>Audio Pan</name>
							<effectid>audiopan</effectid>
							<effectcategory>audiopan</effectcategory>
							<effecttype>audiopan</effecttype>
							<mediatype>audio</mediatype>
							<parameter>
								<name>Pan</name>
								<parameterid>pan</parameterid>
								<valuemin>-1</valuemin>
								<valuemax>1</valuemax>
								<value>0</value>
							</parameter>
						</effect>
					</filter>
					<sourcetrack>
						<mediatype>audio</mediatype>
						<trackindex>1</trackindex>
					</sourcetrack>
					<link>
						<linkclipref>DYR18589_01 4</linkclipref>
						<mediatype>audio</mediatype>
						<trackindex>1</trackindex>
						<clipindex>172</clipindex>
					</link>
					<link>
						<linkclipref>DYR18589_01 5</linkclipref>
						<mediatype>audio</mediatype>
						<trackindex>2</trackindex>
						<clipindex>172</clipindex>
					</link>
					<itemhistory>
						<uuid>D2266307-1861-447E-9BC0-3DDE1F9C6DFD</uuid>
					</itemhistory>
				</clipitem>
				<clipitem id="DYR18585_01 4">
					<name>DYR18585_01</name>
					<duration>3851</duration>
					<rate>
						<ntsc>FALSE</ntsc>
						<timebase>25</timebase>
					</rate>
					<in>2109</in>
					<out>2144</out>
					<start>24896</start>
					<end>24931</end>
					<subframeoffset>0</subframeoffset>
					<masterclipid>DYR18585_01 1</masterclipid>
					<logginginfo>
						<scene/>
						<shottake/>
						<lognote/>
						<good>FALSE</good>
					</logginginfo>
					<labels>
						<label2/>
					</labels>
					<comments>
						<mastercomment1/>
						<mastercomment2/>
						<mastercomment3/>
						<mastercomment4/>
					</comments>
					<file id="DYR18585_01 2"/>
					<filter>
						<effect>
							<name>Audio Levels</name>
							<effectid>audiolevels</effectid>
							<effectcategory>audiolevels</effectcategory>
							<effecttype>audiolevels</effecttype>
							<mediatype>audio</mediatype>
							<parameter>
								<name>Level</name>
								<parameterid>level</parameterid>
								<valuemin>0</valuemin>
								<valuemax>3.98109</valuemax>
								<value>0</value>
							</parameter>
						</effect>
					</filter>
					<filter>
						<effect>
							<name>Audio Pan</name>
							<effectid>audiopan</effectid>
							<effectcategory>audiopan</effectcategory>
							<effecttype>audiopan</effecttype>
							<mediatype>audio</mediatype>
							<parameter>
								<name>Pan</name>
								<parameterid>pan</parameterid>
								<valuemin>-1</valuemin>
								<valuemax>1</valuemax>
								<value>0</value>
							</parameter>
						</effect>
					</filter>
					<sourcetrack>
						<mediatype>audio</mediatype>
						<trackindex>1</trackindex>
					</sourcetrack>
					<link>
						<linkclipref>DYR18585_01 4</linkclipref>
						<mediatype>audio</mediatype>
						<trackindex>1</trackindex>
						<clipindex>173</clipindex>
					</link>
					<link>
						<linkclipref>DYR18585_01 5</linkclipref>
						<mediatype>audio</mediatype>
						<trackindex>2</trackindex>
						<clipindex>173</clipindex>
					</link>
					<itemhistory>
						<uuid>2BC60D0D-8116-480F-A90C-6DBF0BBA9F22</uuid>
					</itemhistory>
				</clipitem>
				<clipitem id="DYR18581_01 3">
					<name>DYR18581_01</name>
					<duration>3831</duration>
					<rate>
						<ntsc>FALSE</ntsc>
						<timebase>25</timebase>
					</rate>
					<in>1060</in>
					<out>1134</out>
					<start>24931</start>
					<end>25005</end>
					<subframeoffset>0</subframeoffset>
					<masterclipid>DYR18581_01 1</masterclipid>
					<logginginfo>
						<scene/>
						<shottake/>
						<lognote/>
						<good>FALSE</good>
					</logginginfo>
					<labels>
						<label2/>
					</labels>
					<comments>
						<mastercomment1/>
						<mastercomment2/>
						<mastercomment3/>
						<mastercomment4/>
					</comments>
					<file id="DYR18581_01 2"/>
					<filter>
						<effect>
							<name>Audio Levels</name>
							<effectid>audiolevels</effectid>
							<effectcategory>audiolevels</effectcategory>
							<effecttype>audiolevels</effecttype>
							<mediatype>audio</mediatype>
							<parameter>
								<name>Level</name>
								<parameterid>level</parameterid>
								<valuemin>0</valuemin>
								<valuemax>3.98109</valuemax>
								<value>0</value>
							</parameter>
						</effect>
					</filter>
					<filter>
						<effect>
							<name>Audio Pan</name>
							<effectid>audiopan</effectid>
							<effectcategory>audiopan</effectcategory>
							<effecttype>audiopan</effecttype>
							<mediatype>audio</mediatype>
							<parameter>
								<name>Pan</name>
								<parameterid>pan</parameterid>
								<valuemin>-1</valuemin>
								<valuemax>1</valuemax>
								<value>0</value>
							</parameter>
						</effect>
					</filter>
					<sourcetrack>
						<mediatype>audio</mediatype>
						<trackindex>1</trackindex>
					</sourcetrack>
					<link>
						<linkclipref>DYR18581_01 3</linkclipref>
						<mediatype>audio</mediatype>
						<trackindex>1</trackindex>
						<clipindex>174</clipindex>
					</link>
					<link>
						<linkclipref>DYR18581_01 4</linkclipref>
						<mediatype>audio</mediatype>
						<trackindex>2</trackindex>
						<clipindex>174</clipindex>
					</link>
					<itemhistory>
						<uuid>B5EB7E14-D56C-4B56-A760-F5728453FC32</uuid>
					</itemhistory>
				</clipitem>
				<clipitem id="DYR18620_01 3">
					<name>DYR18620_01</name>
					<duration>255</duration>
					<rate>
						<ntsc>FALSE</ntsc>
						<timebase>25</timebase>
					</rate>
					<in>95</in>
					<out>184</out>
					<start>25060</start>
					<end>25149</end>
					<subframeoffset>0</subframeoffset>
					<masterclipid>DYR18620_01 1</masterclipid>
					<logginginfo>
						<scene/>
						<shottake/>
						<lognote/>
						<good>FALSE</good>
					</logginginfo>
					<labels>
						<label2/>
					</labels>
					<comments>
						<mastercomment1/>
						<mastercomment2/>
						<mastercomment3/>
						<mastercomment4/>
					</comments>
					<file id="DYR18620_01 2"/>
					<filter>
						<effect>
							<name>Audio Levels</name>
							<effectid>audiolevels</effectid>
							<effectcategory>audiolevels</effectcategory>
							<effecttype>audiolevels</effecttype>
							<mediatype>audio</mediatype>
							<parameter>
								<name>Level</name>
								<parameterid>level</parameterid>
								<valuemin>0</valuemin>
								<valuemax>3.98109</valuemax>
								<value>0</value>
							</parameter>
						</effect>
					</filter>
					<filter>
						<effect>
							<name>Audio Pan</name>
							<effectid>audiopan</effectid>
							<effectcategory>audiopan</effectcategory>
							<effecttype>audiopan</effecttype>
							<mediatype>audio</mediatype>
							<parameter>
								<name>Pan</name>
								<parameterid>pan</parameterid>
								<valuemin>-1</valuemin>
								<valuemax>1</valuemax>
								<value>0</value>
							</parameter>
						</effect>
					</filter>
					<sourcetrack>
						<mediatype>audio</mediatype>
						<trackindex>1</trackindex>
					</sourcetrack>
					<link>
						<linkclipref>DYR18620_01 3</linkclipref>
						<mediatype>audio</mediatype>
						<trackindex>1</trackindex>
						<clipindex>175</clipindex>
					</link>
					<link>
						<linkclipref>DYR18620_01 4</linkclipref>
						<mediatype>audio</mediatype>
						<trackindex>2</trackindex>
						<clipindex>175</clipindex>
					</link>
					<itemhistory>
						<uuid>1A3D0944-BD29-457B-93AC-508952D0B5D1</uuid>
					</itemhistory>
				</clipitem>
				<clipitem id="DYR18629_01 3">
					<name>DYR18629_01</name>
					<duration>2388</duration>
					<rate>
						<ntsc>FALSE</ntsc>
						<timebase>25</timebase>
					</rate>
					<in>2118</in>
					<out>2203</out>
					<start>25149</start>
					<end>25234</end>
					<subframeoffset>0</subframeoffset>
					<masterclipid>DYR18629_01 1</masterclipid>
					<logginginfo>
						<scene/>
						<shottake/>
						<lognote/>
						<good>FALSE</good>
					</logginginfo>
					<labels>
						<label2/>
					</labels>
					<comments>
						<mastercomment1/>
						<mastercomment2/>
						<mastercomment3/>
						<mastercomment4/>
					</comments>
					<file id="DYR18629_01 2"/>
					<filter>
						<effect>
							<name>Audio Levels</name>
							<effectid>audiolevels</effectid>
							<effectcategory>audiolevels</effectcategory>
							<effecttype>audiolevels</effecttype>
							<mediatype>audio</mediatype>
							<parameter>
								<name>Level</name>
								<parameterid>level</parameterid>
								<valuemin>0</valuemin>
								<valuemax>3.98109</valuemax>
								<value>0</value>
							</parameter>
						</effect>
					</filter>
					<filter>
						<effect>
							<name>Audio Pan</name>
							<effectid>audiopan</effectid>
							<effectcategory>audiopan</effectcategory>
							<effecttype>audiopan</effecttype>
							<mediatype>audio</mediatype>
							<parameter>
								<name>Pan</name>
								<parameterid>pan</parameterid>
								<valuemin>-1</valuemin>
								<valuemax>1</valuemax>
								<value>0</value>
							</parameter>
						</effect>
					</filter>
					<sourcetrack>
						<mediatype>audio</mediatype>
						<trackindex>1</trackindex>
					</sourcetrack>
					<link>
						<linkclipref>DYR18629_01 3</linkclipref>
						<mediatype>audio</mediatype>
						<trackindex>1</trackindex>
						<clipindex>176</clipindex>
					</link>
					<link>
						<linkclipref>DYR18629_01 4</linkclipref>
						<mediatype>audio</mediatype>
						<trackindex>2</trackindex>
						<clipindex>176</clipindex>
					</link>
					<itemhistory>
						<uuid>CAFCEF61-1FFA-4DFE-91B0-427F34590F6B</uuid>
					</itemhistory>
				</clipitem>
				<clipitem id="DYR18601_01 3">
					<name>DYR18601_01</name>
					<duration>666</duration>
					<rate>
						<ntsc>FALSE</ntsc>
						<timebase>25</timebase>
					</rate>
					<in>572</in>
					<out>627</out>
					<start>25234</start>
					<end>25289</end>
					<subframeoffset>0</subframeoffset>
					<masterclipid>DYR18601_01 1</masterclipid>
					<logginginfo>
						<scene/>
						<shottake/>
						<lognote/>
						<good>FALSE</good>
					</logginginfo>
					<labels>
						<label2/>
					</labels>
					<comments>
						<mastercomment1/>
						<mastercomment2/>
						<mastercomment3/>
						<mastercomment4/>
					</comments>
					<file id="DYR18601_01 2"/>
					<filter>
						<effect>
							<name>Audio Levels</name>
							<effectid>audiolevels</effectid>
							<effectcategory>audiolevels</effectcategory>
							<effecttype>audiolevels</effecttype>
							<mediatype>audio</mediatype>
							<parameter>
								<name>Level</name>
								<parameterid>level</parameterid>
								<valuemin>0</valuemin>
								<valuemax>3.98109</valuemax>
								<value>0</value>
							</parameter>
						</effect>
					</filter>
					<filter>
						<effect>
							<name>Audio Pan</name>
							<effectid>audiopan</effectid>
							<effectcategory>audiopan</effectcategory>
							<effecttype>audiopan</effecttype>
							<mediatype>audio</mediatype>
							<parameter>
								<name>Pan</name>
								<parameterid>pan</parameterid>
								<valuemin>-1</valuemin>
								<valuemax>1</valuemax>
								<value>0</value>
							</parameter>
						</effect>
					</filter>
					<sourcetrack>
						<mediatype>audio</mediatype>
						<trackindex>1</trackindex>
					</sourcetrack>
					<link>
						<linkclipref>DYR18601_01 3</linkclipref>
						<mediatype>audio</mediatype>
						<trackindex>1</trackindex>
						<clipindex>177</clipindex>
					</link>
					<link>
						<linkclipref>DYR18601_01 4</linkclipref>
						<mediatype>audio</mediatype>
						<trackindex>2</trackindex>
						<clipindex>177</clipindex>
					</link>
					<itemhistory>
						<uuid>E8E7D137-A78A-4DA2-8844-50C432D85304</uuid>
					</itemhistory>
				</clipitem>
				<clipitem id="DYR18584_01 6">
					<name>DYR18584_01</name>
					<duration>2638</duration>
					<rate>
						<ntsc>FALSE</ntsc>
						<timebase>25</timebase>
					</rate>
					<in>95</in>
					<out>120</out>
					<start>25289</start>
					<end>25314</end>
					<subframeoffset>0</subframeoffset>
					<masterclipid>DYR18584_01 1</masterclipid>
					<logginginfo>
						<scene/>
						<shottake/>
						<lognote/>
						<good>FALSE</good>
					</logginginfo>
					<labels>
						<label2/>
					</labels>
					<comments>
						<mastercomment1/>
						<mastercomment2/>
						<mastercomment3/>
						<mastercomment4/>
					</comments>
					<file id="DYR18584_01 2"/>
					<filter>
						<effect>
							<name>Audio Levels</name>
							<effectid>audiolevels</effectid>
							<effectcategory>audiolevels</effectcategory>
							<effecttype>audiolevels</effecttype>
							<mediatype>audio</mediatype>
							<parameter>
								<name>Level</name>
								<parameterid>level</parameterid>
								<valuemin>0</valuemin>
								<valuemax>3.98109</valuemax>
								<value>0</value>
							</parameter>
						</effect>
					</filter>
					<filter>
						<effect>
							<name>Audio Pan</name>
							<effectid>audiopan</effectid>
							<effectcategory>audiopan</effectcategory>
							<effecttype>audiopan</effecttype>
							<mediatype>audio</mediatype>
							<parameter>
								<name>Pan</name>
								<parameterid>pan</parameterid>
								<valuemin>-1</valuemin>
								<valuemax>1</valuemax>
								<value>0</value>
							</parameter>
						</effect>
					</filter>
					<sourcetrack>
						<mediatype>audio</mediatype>
						<trackindex>1</trackindex>
					</sourcetrack>
					<link>
						<linkclipref>DYR18584_01 6</linkclipref>
						<mediatype>audio</mediatype>
						<trackindex>1</trackindex>
						<clipindex>178</clipindex>
					</link>
					<link>
						<linkclipref>DYR18584_01 7</linkclipref>
						<mediatype>audio</mediatype>
						<trackindex>2</trackindex>
						<clipindex>178</clipindex>
					</link>
					<itemhistory>
						<uuid>0BE5E110-717F-4B27-8F14-CF5FF4B7314B</uuid>
					</itemhistory>
				</clipitem>
				<clipitem id="DYR18588_01 6">
					<name>DYR18588_01</name>
					<duration>1887</duration>
					<rate>
						<ntsc>FALSE</ntsc>
						<timebase>25</timebase>
					</rate>
					<in>110</in>
					<out>144</out>
					<start>25314</start>
					<end>25348</end>
					<subframeoffset>0</subframeoffset>
					<masterclipid>DYR18588_01 1</masterclipid>
					<logginginfo>
						<scene/>
						<shottake/>
						<lognote/>
						<good>FALSE</good>
					</logginginfo>
					<labels>
						<label2/>
					</labels>
					<comments>
						<mastercomment1/>
						<mastercomment2/>
						<mastercomment3/>
						<mastercomment4/>
					</comments>
					<file id="DYR18588_01 2"/>
					<filter>
						<effect>
							<name>Audio Levels</name>
							<effectid>audiolevels</effectid>
							<effectcategory>audiolevels</effectcategory>
							<effecttype>audiolevels</effecttype>
							<mediatype>audio</mediatype>
							<parameter>
								<name>Level</name>
								<parameterid>level</parameterid>
								<valuemin>0</valuemin>
								<valuemax>3.98109</valuemax>
								<value>0</value>
							</parameter>
						</effect>
					</filter>
					<filter>
						<effect>
							<name>Audio Pan</name>
							<effectid>audiopan</effectid>
							<effectcategory>audiopan</effectcategory>
							<effecttype>audiopan</effecttype>
							<mediatype>audio</mediatype>
							<parameter>
								<name>Pan</name>
								<parameterid>pan</parameterid>
								<valuemin>-1</valuemin>
								<valuemax>1</valuemax>
								<value>0</value>
							</parameter>
						</effect>
					</filter>
					<sourcetrack>
						<mediatype>audio</mediatype>
						<trackindex>1</trackindex>
					</sourcetrack>
					<link>
						<linkclipref>DYR18588_01 6</linkclipref>
						<mediatype>audio</mediatype>
						<trackindex>1</trackindex>
						<clipindex>179</clipindex>
					</link>
					<link>
						<linkclipref>DYR18588_01 7</linkclipref>
						<mediatype>audio</mediatype>
						<trackindex>2</trackindex>
						<clipindex>179</clipindex>
					</link>
					<itemhistory>
						<uuid>12309542-4BF5-455A-8B40-57992127441E</uuid>
					</itemhistory>
				</clipitem>
				<clipitem id="DYR18707_01 3">
					<name>DYR18707_01</name>
					<duration>976</duration>
					<rate>
						<ntsc>FALSE</ntsc>
						<timebase>25</timebase>
					</rate>
					<in>426</in>
					<out>550</out>
					<start>25646</start>
					<end>25770</end>
					<subframeoffset>0</subframeoffset>
					<masterclipid>DYR18707_01 1</masterclipid>
					<logginginfo>
						<scene/>
						<shottake/>
						<lognote/>
						<good>FALSE</good>
					</logginginfo>
					<labels>
						<label2/>
					</labels>
					<comments>
						<mastercomment1/>
						<mastercomment2/>
						<mastercomment3/>
						<mastercomment4/>
					</comments>
					<file id="DYR18707_01 2"/>
					<filter>
						<effect>
							<name>Audio Levels</name>
							<effectid>audiolevels</effectid>
							<effectcategory>audiolevels</effectcategory>
							<effecttype>audiolevels</effecttype>
							<mediatype>audio</mediatype>
							<parameter>
								<name>Level</name>
								<parameterid>level</parameterid>
								<valuemin>0</valuemin>
								<valuemax>3.98109</valuemax>
								<value>0</value>
							</parameter>
						</effect>
					</filter>
					<filter>
						<effect>
							<name>Audio Pan</name>
							<effectid>audiopan</effectid>
							<effectcategory>audiopan</effectcategory>
							<effecttype>audiopan</effecttype>
							<mediatype>audio</mediatype>
							<parameter>
								<name>Pan</name>
								<parameterid>pan</parameterid>
								<valuemin>-1</valuemin>
								<valuemax>1</valuemax>
								<value>0</value>
							</parameter>
						</effect>
					</filter>
					<sourcetrack>
						<mediatype>audio</mediatype>
						<trackindex>1</trackindex>
					</sourcetrack>
					<link>
						<linkclipref>DYR18707_01 3</linkclipref>
						<mediatype>audio</mediatype>
						<trackindex>1</trackindex>
						<clipindex>180</clipindex>
					</link>
					<link>
						<linkclipref>DYR18707_01 4</linkclipref>
						<mediatype>audio</mediatype>
						<trackindex>2</trackindex>
						<clipindex>180</clipindex>
					</link>
					<itemhistory>
						<uuid>D92867AF-0B9B-470C-8DA0-EF6171B24B1B</uuid>
					</itemhistory>
				</clipitem>
				<clipitem id="DYR18634_01 3">
					<name>DYR18634_01</name>
					<duration>862</duration>
					<rate>
						<ntsc>FALSE</ntsc>
						<timebase>25</timebase>
					</rate>
					<in>262</in>
					<out>340</out>
					<start>26163</start>
					<end>26241</end>
					<subframeoffset>0</subframeoffset>
					<masterclipid>DYR18634_01 1</masterclipid>
					<logginginfo>
						<scene/>
						<shottake/>
						<lognote/>
						<good>FALSE</good>
					</logginginfo>
					<labels>
						<label2/>
					</labels>
					<comments>
						<mastercomment1/>
						<mastercomment2/>
						<mastercomment3/>
						<mastercomment4/>
					</comments>
					<file id="DYR18634_01 2"/>
					<filter>
						<effect>
							<name>Audio Levels</name>
							<effectid>audiolevels</effectid>
							<effectcategory>audiolevels</effectcategory>
							<effecttype>audiolevels</effecttype>
							<mediatype>audio</mediatype>
							<parameter>
								<name>Level</name>
								<parameterid>level</parameterid>
								<valuemin>0</valuemin>
								<valuemax>3.98109</valuemax>
								<value>0</value>
							</parameter>
						</effect>
					</filter>
					<filter>
						<effect>
							<name>Audio Pan</name>
							<effectid>audiopan</effectid>
							<effectcategory>audiopan</effectcategory>
							<effecttype>audiopan</effecttype>
							<mediatype>audio</mediatype>
							<parameter>
								<name>Pan</name>
								<parameterid>pan</parameterid>
								<valuemin>-1</valuemin>
								<valuemax>1</valuemax>
								<value>0</value>
							</parameter>
						</effect>
					</filter>
					<sourcetrack>
						<mediatype>audio</mediatype>
						<trackindex>1</trackindex>
					</sourcetrack>
					<link>
						<linkclipref>DYR18634_01 3</linkclipref>
						<mediatype>audio</mediatype>
						<trackindex>1</trackindex>
						<clipindex>181</clipindex>
					</link>
					<link>
						<linkclipref>DYR18634_01 4</linkclipref>
						<mediatype>audio</mediatype>
						<trackindex>2</trackindex>
						<clipindex>181</clipindex>
					</link>
					<itemhistory>
						<uuid>D1C0905B-3886-4AFE-9DA0-68200057CA09</uuid>
					</itemhistory>
				</clipitem>
				<clipitem id="DYR18643_01 4">
					<name>DYR18643_01</name>
					<duration>629</duration>
					<rate>
						<ntsc>FALSE</ntsc>
						<timebase>25</timebase>
					</rate>
					<in>431</in>
					<out>554</out>
					<start>26271</start>
					<end>26394</end>
					<subframeoffset>0</subframeoffset>
					<masterclipid>DYR18643_01 1</masterclipid>
					<logginginfo>
						<scene/>
						<shottake/>
						<lognote/>
						<good>FALSE</good>
					</logginginfo>
					<labels>
						<label2/>
					</labels>
					<comments>
						<mastercomment1/>
						<mastercomment2/>
						<mastercomment3/>
						<mastercomment4/>
					</comments>
					<file id="DYR18643_01 2"/>
					<filter>
						<effect>
							<name>Audio Levels</name>
							<effectid>audiolevels</effectid>
							<effectcategory>audiolevels</effectcategory>
							<effecttype>audiolevels</effecttype>
							<mediatype>audio</mediatype>
							<parameter>
								<name>Level</name>
								<parameterid>level</parameterid>
								<valuemin>0</valuemin>
								<valuemax>3.98109</valuemax>
								<value>0</value>
							</parameter>
						</effect>
					</filter>
					<filter>
						<effect>
							<name>Audio Pan</name>
							<effectid>audiopan</effectid>
							<effectcategory>audiopan</effectcategory>
							<effecttype>audiopan</effecttype>
							<mediatype>audio</mediatype>
							<parameter>
								<name>Pan</name>
								<parameterid>pan</parameterid>
								<valuemin>-1</valuemin>
								<valuemax>1</valuemax>
								<value>0</value>
							</parameter>
						</effect>
					</filter>
					<sourcetrack>
						<mediatype>audio</mediatype>
						<trackindex>1</trackindex>
					</sourcetrack>
					<link>
						<linkclipref>DYR18643_01 4</linkclipref>
						<mediatype>audio</mediatype>
						<trackindex>1</trackindex>
						<clipindex>182</clipindex>
					</link>
					<link>
						<linkclipref>DYR18643_01 5</linkclipref>
						<mediatype>audio</mediatype>
						<trackindex>2</trackindex>
						<clipindex>182</clipindex>
					</link>
					<itemhistory>
						<uuid>F9973550-D74F-4BA9-9BC8-F61488CAA748</uuid>
					</itemhistory>
				</clipitem>
				<clipitem id="DYR18587_01 3">
					<name>DYR18587_01</name>
					<duration>1500</duration>
					<rate>
						<ntsc>FALSE</ntsc>
						<timebase>25</timebase>
					</rate>
					<in>1017</in>
					<out>1054</out>
					<start>26570</start>
					<end>26607</end>
					<subframeoffset>0</subframeoffset>
					<masterclipid>DYR18587_01 1</masterclipid>
					<logginginfo>
						<scene/>
						<shottake/>
						<lognote/>
						<good>FALSE</good>
					</logginginfo>
					<labels>
						<label2/>
					</labels>
					<comments>
						<mastercomment1/>
						<mastercomment2/>
						<mastercomment3/>
						<mastercomment4/>
					</comments>
					<file id="DYR18587_01 2"/>
					<filter>
						<effect>
							<name>Audio Levels</name>
							<effectid>audiolevels</effectid>
							<effectcategory>audiolevels</effectcategory>
							<effecttype>audiolevels</effecttype>
							<mediatype>audio</mediatype>
							<parameter>
								<name>Level</name>
								<parameterid>level</parameterid>
								<valuemin>0</valuemin>
								<valuemax>3.98109</valuemax>
								<value>0</value>
							</parameter>
						</effect>
					</filter>
					<filter>
						<effect>
							<name>Audio Pan</name>
							<effectid>audiopan</effectid>
							<effectcategory>audiopan</effectcategory>
							<effecttype>audiopan</effecttype>
							<mediatype>audio</mediatype>
							<parameter>
								<name>Pan</name>
								<parameterid>pan</parameterid>
								<valuemin>-1</valuemin>
								<valuemax>1</valuemax>
								<value>0</value>
							</parameter>
						</effect>
					</filter>
					<sourcetrack>
						<mediatype>audio</mediatype>
						<trackindex>1</trackindex>
					</sourcetrack>
					<link>
						<linkclipref>DYR18587_01 3</linkclipref>
						<mediatype>audio</mediatype>
						<trackindex>1</trackindex>
						<clipindex>183</clipindex>
					</link>
					<link>
						<linkclipref>DYR18587_01 4</linkclipref>
						<mediatype>audio</mediatype>
						<trackindex>2</trackindex>
						<clipindex>183</clipindex>
					</link>
					<itemhistory>
						<uuid>DFE9D1EB-E8BE-4ED6-8521-0B758E175EF7</uuid>
					</itemhistory>
				</clipitem>
				<clipitem id="DYR18654_01 3">
					<name>DYR18654_01</name>
					<duration>978</duration>
					<rate>
						<ntsc>FALSE</ntsc>
						<timebase>25</timebase>
					</rate>
					<in>353</in>
					<out>408</out>
					<start>26716</start>
					<end>26771</end>
					<subframeoffset>0</subframeoffset>
					<masterclipid>DYR18654_01 1</masterclipid>
					<logginginfo>
						<scene/>
						<shottake/>
						<lognote/>
						<good>FALSE</good>
					</logginginfo>
					<labels>
						<label2/>
					</labels>
					<comments>
						<mastercomment1/>
						<mastercomment2/>
						<mastercomment3/>
						<mastercomment4/>
					</comments>
					<file id="DYR18654_01 2"/>
					<filter>
						<effect>
							<name>Audio Levels</name>
							<effectid>audiolevels</effectid>
							<effectcategory>audiolevels</effectcategory>
							<effecttype>audiolevels</effecttype>
							<mediatype>audio</mediatype>
							<parameter>
								<name>Level</name>
								<parameterid>level</parameterid>
								<valuemin>0</valuemin>
								<valuemax>3.98109</valuemax>
								<value>0</value>
							</parameter>
						</effect>
					</filter>
					<filter>
						<effect>
							<name>Audio Pan</name>
							<effectid>audiopan</effectid>
							<effectcategory>audiopan</effectcategory>
							<effecttype>audiopan</effecttype>
							<mediatype>audio</mediatype>
							<parameter>
								<name>Pan</name>
								<parameterid>pan</parameterid>
								<valuemin>-1</valuemin>
								<valuemax>1</valuemax>
								<value>0</value>
							</parameter>
						</effect>
					</filter>
					<sourcetrack>
						<mediatype>audio</mediatype>
						<trackindex>1</trackindex>
					</sourcetrack>
					<link>
						<linkclipref>DYR18654_01 3</linkclipref>
						<mediatype>audio</mediatype>
						<trackindex>1</trackindex>
						<clipindex>184</clipindex>
					</link>
					<link>
						<linkclipref>DYR18654_01 4</linkclipref>
						<mediatype>audio</mediatype>
						<trackindex>2</trackindex>
						<clipindex>184</clipindex>
					</link>
					<itemhistory>
						<uuid>26A07F39-6C06-47FA-8FA8-35A4EA0827EE</uuid>
					</itemhistory>
				</clipitem>
				<clipitem id="DYR18595_01 3">
					<name>DYR18595_01</name>
					<duration>821</duration>
					<rate>
						<ntsc>FALSE</ntsc>
						<timebase>25</timebase>
					</rate>
					<in>650</in>
					<out>770</out>
					<start>26842</start>
					<end>26962</end>
					<subframeoffset>0</subframeoffset>
					<masterclipid>DYR18595_01 1</masterclipid>
					<logginginfo>
						<scene/>
						<shottake/>
						<lognote/>
						<good>FALSE</good>
					</logginginfo>
					<labels>
						<label2/>
					</labels>
					<comments>
						<mastercomment1/>
						<mastercomment2/>
						<mastercomment3/>
						<mastercomment4/>
					</comments>
					<file id="DYR18595_01 2"/>
					<filter>
						<effect>
							<name>Audio Levels</name>
							<effectid>audiolevels</effectid>
							<effectcategory>audiolevels</effectcategory>
							<effecttype>audiolevels</effecttype>
							<mediatype>audio</mediatype>
							<parameter>
								<name>Level</name>
								<parameterid>level</parameterid>
								<valuemin>0</valuemin>
								<valuemax>3.98109</valuemax>
								<value>0</value>
							</parameter>
						</effect>
					</filter>
					<filter>
						<effect>
							<name>Audio Pan</name>
							<effectid>audiopan</effectid>
							<effectcategory>audiopan</effectcategory>
							<effecttype>audiopan</effecttype>
							<mediatype>audio</mediatype>
							<parameter>
								<name>Pan</name>
								<parameterid>pan</parameterid>
								<valuemin>-1</valuemin>
								<valuemax>1</valuemax>
								<value>0</value>
							</parameter>
						</effect>
					</filter>
					<sourcetrack>
						<mediatype>audio</mediatype>
						<trackindex>1</trackindex>
					</sourcetrack>
					<link>
						<linkclipref>DYR18595_01 3</linkclipref>
						<mediatype>audio</mediatype>
						<trackindex>1</trackindex>
						<clipindex>185</clipindex>
					</link>
					<link>
						<linkclipref>DYR18595_01 4</linkclipref>
						<mediatype>audio</mediatype>
						<trackindex>2</trackindex>
						<clipindex>185</clipindex>
					</link>
					<itemhistory>
						<uuid>6C1C1F66-05AA-45F7-B034-4DA03F7DD2F1</uuid>
					</itemhistory>
				</clipitem>
				<clipitem id="DYR18603_01 3">
					<name>DYR18603_01</name>
					<duration>278</duration>
					<rate>
						<ntsc>FALSE</ntsc>
						<timebase>25</timebase>
					</rate>
					<in>61</in>
					<out>174</out>
					<start>27003</start>
					<end>27116</end>
					<subframeoffset>0</subframeoffset>
					<masterclipid>DYR18603_01 1</masterclipid>
					<logginginfo>
						<scene/>
						<shottake/>
						<lognote/>
						<good>FALSE</good>
					</logginginfo>
					<labels>
						<label2/>
					</labels>
					<comments>
						<mastercomment1/>
						<mastercomment2/>
						<mastercomment3/>
						<mastercomment4/>
					</comments>
					<file id="DYR18603_01 2"/>
					<filter>
						<effect>
							<name>Audio Levels</name>
							<effectid>audiolevels</effectid>
							<effectcategory>audiolevels</effectcategory>
							<effecttype>audiolevels</effecttype>
							<mediatype>audio</mediatype>
							<parameter>
								<name>Level</name>
								<parameterid>level</parameterid>
								<valuemin>0</valuemin>
								<valuemax>3.98109</valuemax>
								<value>0</value>
							</parameter>
						</effect>
					</filter>
					<filter>
						<effect>
							<name>Audio Pan</name>
							<effectid>audiopan</effectid>
							<effectcategory>audiopan</effectcategory>
							<effecttype>audiopan</effecttype>
							<mediatype>audio</mediatype>
							<parameter>
								<name>Pan</name>
								<parameterid>pan</parameterid>
								<valuemin>-1</valuemin>
								<valuemax>1</valuemax>
								<value>0</value>
							</parameter>
						</effect>
					</filter>
					<sourcetrack>
						<mediatype>audio</mediatype>
						<trackindex>1</trackindex>
					</sourcetrack>
					<link>
						<linkclipref>DYR18603_01 3</linkclipref>
						<mediatype>audio</mediatype>
						<trackindex>1</trackindex>
						<clipindex>186</clipindex>
					</link>
					<link>
						<linkclipref>DYR18603_01 4</linkclipref>
						<mediatype>audio</mediatype>
						<trackindex>2</trackindex>
						<clipindex>186</clipindex>
					</link>
					<itemhistory>
						<uuid>B0D214C2-8197-411D-BFA3-CC253D349F5C</uuid>
					</itemhistory>
				</clipitem>
				<clipitem id="DYR18652_01 3">
					<name>DYR18652_01</name>
					<duration>813</duration>
					<rate>
						<ntsc>FALSE</ntsc>
						<timebase>25</timebase>
					</rate>
					<in>334</in>
					<out>397</out>
					<start>27116</start>
					<end>27179</end>
					<subframeoffset>0</subframeoffset>
					<masterclipid>DYR18652_01 1</masterclipid>
					<logginginfo>
						<scene/>
						<shottake/>
						<lognote/>
						<good>FALSE</good>
					</logginginfo>
					<labels>
						<label2/>
					</labels>
					<comments>
						<mastercomment1/>
						<mastercomment2/>
						<mastercomment3/>
						<mastercomment4/>
					</comments>
					<file id="DYR18652_01 2"/>
					<filter>
						<effect>
							<name>Audio Levels</name>
							<effectid>audiolevels</effectid>
							<effectcategory>audiolevels</effectcategory>
							<effecttype>audiolevels</effecttype>
							<mediatype>audio</mediatype>
							<parameter>
								<name>Level</name>
								<parameterid>level</parameterid>
								<valuemin>0</valuemin>
								<valuemax>3.98109</valuemax>
								<value>0</value>
							</parameter>
						</effect>
					</filter>
					<filter>
						<effect>
							<name>Audio Pan</name>
							<effectid>audiopan</effectid>
							<effectcategory>audiopan</effectcategory>
							<effecttype>audiopan</effecttype>
							<mediatype>audio</mediatype>
							<parameter>
								<name>Pan</name>
								<parameterid>pan</parameterid>
								<valuemin>-1</valuemin>
								<valuemax>1</valuemax>
								<value>0</value>
							</parameter>
						</effect>
					</filter>
					<sourcetrack>
						<mediatype>audio</mediatype>
						<trackindex>1</trackindex>
					</sourcetrack>
					<link>
						<linkclipref>DYR18652_01 3</linkclipref>
						<mediatype>audio</mediatype>
						<trackindex>1</trackindex>
						<clipindex>187</clipindex>
					</link>
					<link>
						<linkclipref>DYR18652_01 4</linkclipref>
						<mediatype>audio</mediatype>
						<trackindex>2</trackindex>
						<clipindex>187</clipindex>
					</link>
					<itemhistory>
						<uuid>66AB67C2-D83C-41BE-A687-7AAF1A44A501</uuid>
					</itemhistory>
				</clipitem>
				<clipitem id="DYR18665_01 3">
					<name>DYR18665_01</name>
					<duration>1688</duration>
					<rate>
						<ntsc>FALSE</ntsc>
						<timebase>25</timebase>
					</rate>
					<in>1454</in>
					<out>1558</out>
					<start>27179</start>
					<end>27283</end>
					<subframeoffset>0</subframeoffset>
					<masterclipid>DYR18665_01 1</masterclipid>
					<logginginfo>
						<scene/>
						<shottake/>
						<lognote/>
						<good>FALSE</good>
					</logginginfo>
					<labels>
						<label2/>
					</labels>
					<comments>
						<mastercomment1/>
						<mastercomment2/>
						<mastercomment3/>
						<mastercomment4/>
					</comments>
					<file id="DYR18665_01 2"/>
					<filter>
						<effect>
							<name>Audio Levels</name>
							<effectid>audiolevels</effectid>
							<effectcategory>audiolevels</effectcategory>
							<effecttype>audiolevels</effecttype>
							<mediatype>audio</mediatype>
							<parameter>
								<name>Level</name>
								<parameterid>level</parameterid>
								<valuemin>0</valuemin>
								<valuemax>3.98109</valuemax>
								<value>0</value>
							</parameter>
						</effect>
					</filter>
					<filter>
						<effect>
							<name>Audio Pan</name>
							<effectid>audiopan</effectid>
							<effectcategory>audiopan</effectcategory>
							<effecttype>audiopan</effecttype>
							<mediatype>audio</mediatype>
							<parameter>
								<name>Pan</name>
								<parameterid>pan</parameterid>
								<valuemin>-1</valuemin>
								<valuemax>1</valuemax>
								<value>0</value>
							</parameter>
						</effect>
					</filter>
					<sourcetrack>
						<mediatype>audio</mediatype>
						<trackindex>1</trackindex>
					</sourcetrack>
					<link>
						<linkclipref>DYR18665_01 3</linkclipref>
						<mediatype>audio</mediatype>
						<trackindex>1</trackindex>
						<clipindex>188</clipindex>
					</link>
					<link>
						<linkclipref>DYR18665_01 4</linkclipref>
						<mediatype>audio</mediatype>
						<trackindex>2</trackindex>
						<clipindex>188</clipindex>
					</link>
					<itemhistory>
						<uuid>9A10CE14-CF19-4C22-B49E-F43409D3C17D</uuid>
					</itemhistory>
				</clipitem>
				<clipitem id="00804001.MOV2">
					<name>00804001.MOV</name>
					<duration>552</duration>
					<rate>
						<ntsc>FALSE</ntsc>
						<timebase>25</timebase>
					</rate>
					<in>159</in>
					<out>234</out>
					<start>27702</start>
					<end>27777</end>
					<subframeoffset>0</subframeoffset>
					<enabled>TRUE</enabled>
					<masterclipid>00804001.MOV1</masterclipid>
					<logginginfo>
						<scene/>
						<shottake/>
						<lognote/>
						<good>FALSE</good>
					</logginginfo>
					<labels>
						<label2/>
					</labels>
					<comments>
						<mastercomment1/>
						<mastercomment2/>
						<mastercomment3/>
						<mastercomment4/>
					</comments>
					<file id="00804001 "/>
					<filter>
						<effect>
							<name>Audio Levels</name>
							<effectid>audiolevels</effectid>
							<effectcategory>audiolevels</effectcategory>
							<effecttype>audiolevels</effecttype>
							<mediatype>audio</mediatype>
							<parameter>
								<name>Level</name>
								<parameterid>level</parameterid>
								<valuemin>0</valuemin>
								<valuemax>3.98109</valuemax>
								<value>1.58489</value>
							</parameter>
						</effect>
					</filter>
					<filter>
						<effect>
							<name>Audio Pan</name>
							<effectid>audiopan</effectid>
							<effectcategory>audiopan</effectcategory>
							<effecttype>audiopan</effecttype>
							<mediatype>audio</mediatype>
							<parameter>
								<name>Pan</name>
								<parameterid>pan</parameterid>
								<valuemin>-1</valuemin>
								<valuemax>1</valuemax>
								<value>0</value>
							</parameter>
						</effect>
					</filter>
					<sourcetrack>
						<mediatype>audio</mediatype>
						<trackindex>1</trackindex>
					</sourcetrack>
					<link>
						<linkclipref>00804001.MOV</linkclipref>
						<mediatype>video</mediatype>
						<trackindex>1</trackindex>
						<clipindex>229</clipindex>
					</link>
					<link>
						<linkclipref>00804001.MOV2</linkclipref>
						<mediatype>audio</mediatype>
						<trackindex>1</trackindex>
						<clipindex>189</clipindex>
					</link>
					<link>
						<linkclipref>00804001.MOV3</linkclipref>
						<mediatype>audio</mediatype>
						<trackindex>2</trackindex>
						<clipindex>189</clipindex>
					</link>
					<itemhistory>
						<uuid>74F1A8C6-A017-4761-B879-D501C59C2416</uuid>
					</itemhistory>
				</clipitem>
				<clipitem id="00804001.MOV5">
					<name>00804001.MOV</name>
					<duration>552</duration>
					<rate>
						<ntsc>FALSE</ntsc>
						<timebase>25</timebase>
					</rate>
					<in>234</in>
					<out>417</out>
					<start>27777</start>
					<end>27960</end>
					<subframeoffset>0</subframeoffset>
					<enabled>TRUE</enabled>
					<masterclipid>00804001.MOV1</masterclipid>
					<logginginfo>
						<scene/>
						<shottake/>
						<lognote/>
						<good>FALSE</good>
					</logginginfo>
					<labels>
						<label2/>
					</labels>
					<comments>
						<mastercomment1/>
						<mastercomment2/>
						<mastercomment3/>
						<mastercomment4/>
					</comments>
					<file id="00804001 "/>
					<filter>
						<effect>
							<name>Audio Levels</name>
							<effectid>audiolevels</effectid>
							<effectcategory>audiolevels</effectcategory>
							<effecttype>audiolevels</effecttype>
							<mediatype>audio</mediatype>
							<parameter>
								<name>Level</name>
								<parameterid>level</parameterid>
								<valuemin>0</valuemin>
								<valuemax>3.98109</valuemax>
								<value>1.58489</value>
							</parameter>
						</effect>
					</filter>
					<filter>
						<effect>
							<name>Audio Pan</name>
							<effectid>audiopan</effectid>
							<effectcategory>audiopan</effectcategory>
							<effecttype>audiopan</effecttype>
							<mediatype>audio</mediatype>
							<parameter>
								<name>Pan</name>
								<parameterid>pan</parameterid>
								<valuemin>-1</valuemin>
								<valuemax>1</valuemax>
								<value>0</value>
							</parameter>
						</effect>
					</filter>
					<sourcetrack>
						<mediatype>audio</mediatype>
						<trackindex>1</trackindex>
					</sourcetrack>
					<link>
						<linkclipref>00804001.MOV4</linkclipref>
						<mediatype>video</mediatype>
						<trackindex>1</trackindex>
						<clipindex>231</clipindex>
					</link>
					<link>
						<linkclipref>00804001.MOV5</linkclipref>
						<mediatype>audio</mediatype>
						<trackindex>1</trackindex>
						<clipindex>190</clipindex>
					</link>
					<link>
						<linkclipref>00804001.MOV6</linkclipref>
						<mediatype>audio</mediatype>
						<trackindex>2</trackindex>
						<clipindex>190</clipindex>
					</link>
					<itemhistory>
						<uuid>0A3EF251-BA4D-43D3-8B85-157EEDE8151C</uuid>
					</itemhistory>
				</clipitem>
				<clipitem id="00812001.MOV2">
					<name>00812001.MOV</name>
					<duration>720</duration>
					<rate>
						<ntsc>FALSE</ntsc>
						<timebase>25</timebase>
					</rate>
					<in>164</in>
					<out>281</out>
					<start>27960</start>
					<end>28077</end>
					<subframeoffset>0</subframeoffset>
					<enabled>TRUE</enabled>
					<masterclipid>00812001.MOV1</masterclipid>
					<logginginfo>
						<scene/>
						<shottake/>
						<lognote/>
						<good>FALSE</good>
					</logginginfo>
					<labels>
						<label2/>
					</labels>
					<comments>
						<mastercomment1/>
						<mastercomment2/>
						<mastercomment3/>
						<mastercomment4/>
					</comments>
					<file id="00812001 "/>
					<filter>
						<effect>
							<name>Audio Levels</name>
							<effectid>audiolevels</effectid>
							<effectcategory>audiolevels</effectcategory>
							<effecttype>audiolevels</effecttype>
							<mediatype>audio</mediatype>
							<parameter>
								<name>Level</name>
								<parameterid>level</parameterid>
								<valuemin>0</valuemin>
								<valuemax>3.98109</valuemax>
								<value>1.58489</value>
							</parameter>
						</effect>
					</filter>
					<filter>
						<effect>
							<name>Audio Pan</name>
							<effectid>audiopan</effectid>
							<effectcategory>audiopan</effectcategory>
							<effecttype>audiopan</effecttype>
							<mediatype>audio</mediatype>
							<parameter>
								<name>Pan</name>
								<parameterid>pan</parameterid>
								<valuemin>-1</valuemin>
								<valuemax>1</valuemax>
								<value>0</value>
							</parameter>
						</effect>
					</filter>
					<sourcetrack>
						<mediatype>audio</mediatype>
						<trackindex>1</trackindex>
					</sourcetrack>
					<link>
						<linkclipref>00812001.MOV</linkclipref>
						<mediatype>video</mediatype>
						<trackindex>1</trackindex>
						<clipindex>234</clipindex>
					</link>
					<link>
						<linkclipref>00812001.MOV2</linkclipref>
						<mediatype>audio</mediatype>
						<trackindex>1</trackindex>
						<clipindex>191</clipindex>
					</link>
					<link>
						<linkclipref>00812001.MOV3</linkclipref>
						<mediatype>audio</mediatype>
						<trackindex>2</trackindex>
						<clipindex>191</clipindex>
					</link>
					<itemhistory>
						<uuid>556D2814-C342-49B3-BB47-6CDC5E9962B7</uuid>
					</itemhistory>
				</clipitem>
				<clipitem id="00811001.MOV2">
					<name>00811001.MOV</name>
					<duration>1380</duration>
					<rate>
						<ntsc>FALSE</ntsc>
						<timebase>25</timebase>
					</rate>
					<in>864</in>
					<out>1196</out>
					<start>28077</start>
					<end>28409</end>
					<subframeoffset>0</subframeoffset>
					<masterclipid>00811001.MOV1</masterclipid>
					<logginginfo>
						<scene/>
						<shottake/>
						<lognote/>
						<good>FALSE</good>
					</logginginfo>
					<labels>
						<label2/>
					</labels>
					<comments>
						<mastercomment1/>
						<mastercomment2/>
						<mastercomment3/>
						<mastercomment4/>
					</comments>
					<file id="00811001 "/>
					<filter>
						<effect>
							<name>Audio Levels</name>
							<effectid>audiolevels</effectid>
							<effectcategory>audiolevels</effectcategory>
							<effecttype>audiolevels</effecttype>
							<mediatype>audio</mediatype>
							<parameter>
								<name>Level</name>
								<parameterid>level</parameterid>
								<valuemin>0</valuemin>
								<valuemax>3.98109</valuemax>
								<value>1.58489</value>
							</parameter>
						</effect>
					</filter>
					<filter>
						<effect>
							<name>Audio Pan</name>
							<effectid>audiopan</effectid>
							<effectcategory>audiopan</effectcategory>
							<effecttype>audiopan</effecttype>
							<mediatype>audio</mediatype>
							<parameter>
								<name>Pan</name>
								<parameterid>pan</parameterid>
								<valuemin>-1</valuemin>
								<valuemax>1</valuemax>
								<value>0</value>
							</parameter>
						</effect>
					</filter>
					<sourcetrack>
						<mediatype>audio</mediatype>
						<trackindex>1</trackindex>
					</sourcetrack>
					<link>
						<linkclipref>00811001.MOV</linkclipref>
						<mediatype>video</mediatype>
						<trackindex>1</trackindex>
						<clipindex>235</clipindex>
					</link>
					<link>
						<linkclipref>00811001.MOV2</linkclipref>
						<mediatype>audio</mediatype>
						<trackindex>1</trackindex>
						<clipindex>192</clipindex>
					</link>
					<link>
						<linkclipref>00811001.MOV3</linkclipref>
						<mediatype>audio</mediatype>
						<trackindex>2</trackindex>
						<clipindex>192</clipindex>
					</link>
					<itemhistory>
						<uuid>50714580-2186-418D-B366-8B7D420339AA</uuid>
					</itemhistory>
				</clipitem>
				<clipitem id="00813001.MOV3">
					<name>00813001.MOV</name>
					<duration>1068</duration>
					<rate>
						<ntsc>FALSE</ntsc>
						<timebase>25</timebase>
					</rate>
					<in>914</in>
					<out>963</out>
					<start>28409</start>
					<end>28458</end>
					<subframeoffset>0</subframeoffset>
					<enabled>TRUE</enabled>
					<masterclipid>00813001.MOV1</masterclipid>
					<logginginfo>
						<scene/>
						<shottake/>
						<lognote/>
						<good>FALSE</good>
					</logginginfo>
					<labels>
						<label2/>
					</labels>
					<comments>
						<mastercomment1/>
						<mastercomment2/>
						<mastercomment3/>
						<mastercomment4/>
					</comments>
					<file id="00813001 "/>
					<filter>
						<effect>
							<name>Audio Levels</name>
							<effectid>audiolevels</effectid>
							<effectcategory>audiolevels</effectcategory>
							<effecttype>audiolevels</effecttype>
							<mediatype>audio</mediatype>
							<parameter>
								<name>Level</name>
								<parameterid>level</parameterid>
								<valuemin>0</valuemin>
								<valuemax>3.98109</valuemax>
								<value>1.99526</value>
							</parameter>
						</effect>
					</filter>
					<filter>
						<effect>
							<name>Audio Pan</name>
							<effectid>audiopan</effectid>
							<effectcategory>audiopan</effectcategory>
							<effecttype>audiopan</effecttype>
							<mediatype>audio</mediatype>
							<parameter>
								<name>Pan</name>
								<parameterid>pan</parameterid>
								<valuemin>-1</valuemin>
								<valuemax>1</valuemax>
								<value>0</value>
							</parameter>
						</effect>
					</filter>
					<sourcetrack>
						<mediatype>audio</mediatype>
						<trackindex>1</trackindex>
					</sourcetrack>
					<link>
						<linkclipref>00813001.MOV2</linkclipref>
						<mediatype>video</mediatype>
						<trackindex>1</trackindex>
						<clipindex>238</clipindex>
					</link>
					<link>
						<linkclipref>00813001.MOV3</linkclipref>
						<mediatype>audio</mediatype>
						<trackindex>1</trackindex>
						<clipindex>193</clipindex>
					</link>
					<link>
						<linkclipref>00813001.MOV4</linkclipref>
						<mediatype>audio</mediatype>
						<trackindex>2</trackindex>
						<clipindex>193</clipindex>
					</link>
					<itemhistory>
						<uuid>87E9463B-9421-4FC5-B561-8646E8466CCA</uuid>
					</itemhistory>
				</clipitem>
				<clipitem id="00811001.MOV6">
					<name>00811001.MOV</name>
					<duration>1380</duration>
					<rate>
						<ntsc>FALSE</ntsc>
						<timebase>25</timebase>
					</rate>
					<in>1261</in>
					<out>1294</out>
					<start>28458</start>
					<end>28491</end>
					<subframeoffset>0</subframeoffset>
					<enabled>TRUE</enabled>
					<masterclipid>00811001.MOV1</masterclipid>
					<logginginfo>
						<scene/>
						<shottake/>
						<lognote/>
						<good>FALSE</good>
					</logginginfo>
					<labels>
						<label2/>
					</labels>
					<comments>
						<mastercomment1/>
						<mastercomment2/>
						<mastercomment3/>
						<mastercomment4/>
					</comments>
					<file id="00811001 "/>
					<filter>
						<effect>
							<name>Audio Levels</name>
							<effectid>audiolevels</effectid>
							<effectcategory>audiolevels</effectcategory>
							<effecttype>audiolevels</effecttype>
							<mediatype>audio</mediatype>
							<parameter>
								<name>Level</name>
								<parameterid>level</parameterid>
								<valuemin>0</valuemin>
								<valuemax>3.98109</valuemax>
								<value>1.58489</value>
							</parameter>
						</effect>
					</filter>
					<filter>
						<effect>
							<name>Audio Pan</name>
							<effectid>audiopan</effectid>
							<effectcategory>audiopan</effectcategory>
							<effecttype>audiopan</effecttype>
							<mediatype>audio</mediatype>
							<parameter>
								<name>Pan</name>
								<parameterid>pan</parameterid>
								<valuemin>-1</valuemin>
								<valuemax>1</valuemax>
								<value>0</value>
							</parameter>
						</effect>
					</filter>
					<sourcetrack>
						<mediatype>audio</mediatype>
						<trackindex>1</trackindex>
					</sourcetrack>
					<link>
						<linkclipref>00811001.MOV5</linkclipref>
						<mediatype>video</mediatype>
						<trackindex>1</trackindex>
						<clipindex>239</clipindex>
					</link>
					<link>
						<linkclipref>00811001.MOV6</linkclipref>
						<mediatype>audio</mediatype>
						<trackindex>1</trackindex>
						<clipindex>194</clipindex>
					</link>
					<link>
						<linkclipref>00811001.MOV7</linkclipref>
						<mediatype>audio</mediatype>
						<trackindex>2</trackindex>
						<clipindex>194</clipindex>
					</link>
					<itemhistory>
						<uuid>CADC3389-A11E-42F0-A468-886A8248DBE2</uuid>
					</itemhistory>
				</clipitem>
				<transitionitem>
					<rate>
						<ntsc>FALSE</ntsc>
						<timebase>25</timebase>
					</rate>
					<start>28525</start>
					<end>28539</end>
					<alignment>start-black</alignment>
					<effect>
						<name>Cross Fade (+3dB)</name>
						<effectid>KGAudioTransCrossFade3dB</effectid>
						<effecttype>transition</effecttype>
						<mediatype>audio</mediatype>
					</effect>
				</transitionitem>
				<clipitem id="00816001.MOV2">
					<name>00816001.MOV</name>
					<duration>1308</duration>
					<rate>
						<ntsc>FALSE</ntsc>
						<timebase>25</timebase>
					</rate>
					<in>499</in>
					<out>596</out>
					<start>-1</start>
					<end>28622</end>
					<subframeoffset>0</subframeoffset>
					<masterclipid>00816001.MOV1</masterclipid>
					<logginginfo>
						<scene/>
						<shottake/>
						<lognote/>
						<good>FALSE</good>
					</logginginfo>
					<labels>
						<label2/>
					</labels>
					<comments>
						<mastercomment1/>
						<mastercomment2/>
						<mastercomment3/>
						<mastercomment4/>
					</comments>
					<file id="00816001 "/>
					<filter>
						<effect>
							<name>Audio Levels</name>
							<effectid>audiolevels</effectid>
							<effectcategory>audiolevels</effectcategory>
							<effecttype>audiolevels</effecttype>
							<mediatype>audio</mediatype>
							<parameter>
								<name>Level</name>
								<parameterid>level</parameterid>
								<valuemin>0</valuemin>
								<valuemax>3.98109</valuemax>
								<value>1</value>
							</parameter>
						</effect>
					</filter>
					<filter>
						<effect>
							<name>Audio Pan</name>
							<effectid>audiopan</effectid>
							<effectcategory>audiopan</effectcategory>
							<effecttype>audiopan</effecttype>
							<mediatype>audio</mediatype>
							<parameter>
								<name>Pan</name>
								<parameterid>pan</parameterid>
								<valuemin>-1</valuemin>
								<valuemax>1</valuemax>
								<value>0</value>
							</parameter>
						</effect>
					</filter>
					<sourcetrack>
						<mediatype>audio</mediatype>
						<trackindex>1</trackindex>
					</sourcetrack>
					<link>
						<linkclipref>00816001.MOV2</linkclipref>
						<mediatype>audio</mediatype>
						<trackindex>1</trackindex>
						<clipindex>196</clipindex>
					</link>
					<link>
						<linkclipref>00816001.MOV3</linkclipref>
						<mediatype>audio</mediatype>
						<trackindex>2</trackindex>
						<clipindex>196</clipindex>
					</link>
					<itemhistory>
						<uuid>97A9F0E8-3CB1-4FB7-8086-D7F14A88E5D7</uuid>
					</itemhistory>
				</clipitem>
				<clipitem id="00823001.MOV2">
					<name>00823001.MOV</name>
					<duration>2676</duration>
					<rate>
						<ntsc>FALSE</ntsc>
						<timebase>25</timebase>
					</rate>
					<in>111</in>
					<out>207</out>
					<start>28622</start>
					<end>-1</end>
					<subframeoffset>0</subframeoffset>
					<enabled>TRUE</enabled>
					<masterclipid>00823001.MOV1</masterclipid>
					<logginginfo>
						<scene/>
						<shottake/>
						<lognote/>
						<good>FALSE</good>
					</logginginfo>
					<labels>
						<label2/>
					</labels>
					<comments>
						<mastercomment1/>
						<mastercomment2/>
						<mastercomment3/>
						<mastercomment4/>
					</comments>
					<file id="00823001 "/>
					<filter>
						<effect>
							<name>Audio Levels</name>
							<effectid>audiolevels</effectid>
							<effectcategory>audiolevels</effectcategory>
							<effecttype>audiolevels</effecttype>
							<mediatype>audio</mediatype>
							<parameter>
								<name>Level</name>
								<parameterid>level</parameterid>
								<valuemin>0</valuemin>
								<valuemax>3.98109</valuemax>
								<value>1</value>
							</parameter>
						</effect>
					</filter>
					<filter>
						<effect>
							<name>Audio Pan</name>
							<effectid>audiopan</effectid>
							<effectcategory>audiopan</effectcategory>
							<effecttype>audiopan</effecttype>
							<mediatype>audio</mediatype>
							<parameter>
								<name>Pan</name>
								<parameterid>pan</parameterid>
								<valuemin>-1</valuemin>
								<valuemax>1</valuemax>
								<value>0</value>
							</parameter>
						</effect>
					</filter>
					<sourcetrack>
						<mediatype>audio</mediatype>
						<trackindex>1</trackindex>
					</sourcetrack>
					<link>
						<linkclipref>00823001.MOV</linkclipref>
						<mediatype>video</mediatype>
						<trackindex>1</trackindex>
						<clipindex>241</clipindex>
					</link>
					<link>
						<linkclipref>00823001.MOV2</linkclipref>
						<mediatype>audio</mediatype>
						<trackindex>1</trackindex>
						<clipindex>197</clipindex>
					</link>
					<link>
						<linkclipref>00823001.MOV3</linkclipref>
						<mediatype>audio</mediatype>
						<trackindex>2</trackindex>
						<clipindex>197</clipindex>
					</link>
					<itemhistory>
						<uuid>0095739C-FF30-4511-ADD2-596AF5069EEE</uuid>
					</itemhistory>
				</clipitem>
				<transitionitem>
					<rate>
						<ntsc>FALSE</ntsc>
						<timebase>25</timebase>
					</rate>
					<start>28716</start>
					<end>28718</end>
					<alignment>center</alignment>
					<effect>
						<name>Cross Fade (+3dB)</name>
						<effectid>KGAudioTransCrossFade3dB</effectid>
						<effecttype>transition</effecttype>
						<mediatype>audio</mediatype>
					</effect>
				</transitionitem>
				<clipitem id="00821001.MOV2">
					<name>00821001.MOV</name>
					<duration>3420</duration>
					<rate>
						<ntsc>FALSE</ntsc>
						<timebase>25</timebase>
					</rate>
					<in>459</in>
					<out>591</out>
					<start>-1</start>
					<end>28848</end>
					<subframeoffset>0</subframeoffset>
					<enabled>TRUE</enabled>
					<masterclipid>00821001.MOV1</masterclipid>
					<logginginfo>
						<scene/>
						<shottake/>
						<lognote/>
						<good>FALSE</good>
					</logginginfo>
					<labels>
						<label2/>
					</labels>
					<comments>
						<mastercomment1/>
						<mastercomment2/>
						<mastercomment3/>
						<mastercomment4/>
					</comments>
					<file id="00821001 "/>
					<filter>
						<effect>
							<name>Audio Levels</name>
							<effectid>audiolevels</effectid>
							<effectcategory>audiolevels</effectcategory>
							<effecttype>audiolevels</effecttype>
							<mediatype>audio</mediatype>
							<parameter>
								<name>Level</name>
								<parameterid>level</parameterid>
								<valuemin>0</valuemin>
								<valuemax>3.98109</valuemax>
								<value>1</value>
							</parameter>
						</effect>
					</filter>
					<filter>
						<effect>
							<name>Audio Pan</name>
							<effectid>audiopan</effectid>
							<effectcategory>audiopan</effectcategory>
							<effecttype>audiopan</effecttype>
							<mediatype>audio</mediatype>
							<parameter>
								<name>Pan</name>
								<parameterid>pan</parameterid>
								<valuemin>-1</valuemin>
								<valuemax>1</valuemax>
								<value>0</value>
							</parameter>
						</effect>
					</filter>
					<sourcetrack>
						<mediatype>audio</mediatype>
						<trackindex>1</trackindex>
					</sourcetrack>
					<link>
						<linkclipref>00821001.MOV</linkclipref>
						<mediatype>video</mediatype>
						<trackindex>1</trackindex>
						<clipindex>242</clipindex>
					</link>
					<link>
						<linkclipref>00821001.MOV2</linkclipref>
						<mediatype>audio</mediatype>
						<trackindex>1</trackindex>
						<clipindex>199</clipindex>
					</link>
					<link>
						<linkclipref>00821001.MOV3</linkclipref>
						<mediatype>audio</mediatype>
						<trackindex>2</trackindex>
						<clipindex>199</clipindex>
					</link>
					<itemhistory>
						<uuid>581BF267-D4D4-4609-9516-80FA79C00FBC</uuid>
					</itemhistory>
				</clipitem>
				<clipitem id="00822001.MOV2">
					<name>00822001.MOV</name>
					<duration>816</duration>
					<rate>
						<ntsc>FALSE</ntsc>
						<timebase>25</timebase>
					</rate>
					<in>558</in>
					<out>625</out>
					<start>28848</start>
					<end>-1</end>
					<subframeoffset>0</subframeoffset>
					<enabled>TRUE</enabled>
					<masterclipid>00822001.MOV1</masterclipid>
					<logginginfo>
						<scene/>
						<shottake/>
						<lognote/>
						<good>FALSE</good>
					</logginginfo>
					<labels>
						<label2/>
					</labels>
					<comments>
						<mastercomment1/>
						<mastercomment2/>
						<mastercomment3/>
						<mastercomment4/>
					</comments>
					<file id="00822001 "/>
					<filter>
						<effect>
							<name>Audio Levels</name>
							<effectid>audiolevels</effectid>
							<effectcategory>audiolevels</effectcategory>
							<effecttype>audiolevels</effecttype>
							<mediatype>audio</mediatype>
							<parameter>
								<name>Level</name>
								<parameterid>level</parameterid>
								<valuemin>0</valuemin>
								<valuemax>3.98109</valuemax>
								<value>1.58489</value>
							</parameter>
						</effect>
					</filter>
					<filter>
						<effect>
							<name>Audio Pan</name>
							<effectid>audiopan</effectid>
							<effectcategory>audiopan</effectcategory>
							<effecttype>audiopan</effecttype>
							<mediatype>audio</mediatype>
							<parameter>
								<name>Pan</name>
								<parameterid>pan</parameterid>
								<valuemin>-1</valuemin>
								<valuemax>1</valuemax>
								<value>0</value>
							</parameter>
						</effect>
					</filter>
					<sourcetrack>
						<mediatype>audio</mediatype>
						<trackindex>1</trackindex>
					</sourcetrack>
					<link>
						<linkclipref>00822001.MOV</linkclipref>
						<mediatype>video</mediatype>
						<trackindex>1</trackindex>
						<clipindex>243</clipindex>
					</link>
					<link>
						<linkclipref>00822001.MOV2</linkclipref>
						<mediatype>audio</mediatype>
						<trackindex>1</trackindex>
						<clipindex>200</clipindex>
					</link>
					<link>
						<linkclipref>00822001.MOV3</linkclipref>
						<mediatype>audio</mediatype>
						<trackindex>2</trackindex>
						<clipindex>200</clipindex>
					</link>
					<itemhistory>
						<uuid>D5F1869D-EF85-4303-BD0B-27F5D8AAD737</uuid>
					</itemhistory>
				</clipitem>
				<transitionitem>
					<rate>
						<ntsc>FALSE</ntsc>
						<timebase>25</timebase>
					</rate>
					<start>28902</start>
					<end>28915</end>
					<alignment>center</alignment>
					<effect>
						<name>Cross Fade (+3dB)</name>
						<effectid>KGAudioTransCrossFade3dB</effectid>
						<effecttype>transition</effecttype>
						<mediatype>audio</mediatype>
					</effect>
				</transitionitem>
				<clipitem id="00821001.MOV5">
					<name>00821001.MOV</name>
					<duration>3420</duration>
					<rate>
						<ntsc>FALSE</ntsc>
						<timebase>25</timebase>
					</rate>
					<in>612</in>
					<out>690</out>
					<start>-1</start>
					<end>-1</end>
					<subframeoffset>0</subframeoffset>
					<enabled>TRUE</enabled>
					<masterclipid>00821001.MOV1</masterclipid>
					<logginginfo>
						<scene/>
						<shottake/>
						<lognote/>
						<good>FALSE</good>
					</logginginfo>
					<labels>
						<label2/>
					</labels>
					<comments>
						<mastercomment1/>
						<mastercomment2/>
						<mastercomment3/>
						<mastercomment4/>
					</comments>
					<file id="00821001 "/>
					<filter>
						<effect>
							<name>Audio Levels</name>
							<effectid>audiolevels</effectid>
							<effectcategory>audiolevels</effectcategory>
							<effecttype>audiolevels</effecttype>
							<mediatype>audio</mediatype>
							<parameter>
								<name>Level</name>
								<parameterid>level</parameterid>
								<valuemin>0</valuemin>
								<valuemax>3.98109</valuemax>
								<value>1</value>
							</parameter>
						</effect>
					</filter>
					<filter>
						<effect>
							<name>Audio Pan</name>
							<effectid>audiopan</effectid>
							<effectcategory>audiopan</effectcategory>
							<effecttype>audiopan</effecttype>
							<mediatype>audio</mediatype>
							<parameter>
								<name>Pan</name>
								<parameterid>pan</parameterid>
								<valuemin>-1</valuemin>
								<valuemax>1</valuemax>
								<value>0</value>
							</parameter>
						</effect>
					</filter>
					<sourcetrack>
						<mediatype>audio</mediatype>
						<trackindex>1</trackindex>
					</sourcetrack>
					<link>
						<linkclipref>00821001.MOV4</linkclipref>
						<mediatype>video</mediatype>
						<trackindex>1</trackindex>
						<clipindex>244</clipindex>
					</link>
					<link>
						<linkclipref>00821001.MOV5</linkclipref>
						<mediatype>audio</mediatype>
						<trackindex>1</trackindex>
						<clipindex>202</clipindex>
					</link>
					<link>
						<linkclipref>00821001.MOV6</linkclipref>
						<mediatype>audio</mediatype>
						<trackindex>2</trackindex>
						<clipindex>202</clipindex>
					</link>
					<itemhistory>
						<uuid>31416B15-04C0-4C78-A2CF-7C4EB7AE8466</uuid>
					</itemhistory>
				</clipitem>
				<transitionitem>
					<rate>
						<ntsc>FALSE</ntsc>
						<timebase>25</timebase>
					</rate>
					<start>28965</start>
					<end>28980</end>
					<alignment>center</alignment>
					<effect>
						<name>Cross Fade (+3dB)</name>
						<effectid>KGAudioTransCrossFade3dB</effectid>
						<effecttype>transition</effecttype>
						<mediatype>audio</mediatype>
					</effect>
				</transitionitem>
				<clipitem id="00823001.MOV5">
					<name>00823001.MOV</name>
					<duration>2676</duration>
					<rate>
						<ntsc>FALSE</ntsc>
						<timebase>25</timebase>
					</rate>
					<in>431</in>
					<out>561</out>
					<start>-1</start>
					<end>-1</end>
					<subframeoffset>0</subframeoffset>
					<enabled>TRUE</enabled>
					<masterclipid>00823001.MOV1</masterclipid>
					<logginginfo>
						<scene/>
						<shottake/>
						<lognote/>
						<good>FALSE</good>
					</logginginfo>
					<labels>
						<label2/>
					</labels>
					<comments>
						<mastercomment1/>
						<mastercomment2/>
						<mastercomment3/>
						<mastercomment4/>
					</comments>
					<file id="00823001 "/>
					<filter>
						<effect>
							<name>Audio Levels</name>
							<effectid>audiolevels</effectid>
							<effectcategory>audiolevels</effectcategory>
							<effecttype>audiolevels</effecttype>
							<mediatype>audio</mediatype>
							<parameter>
								<name>Level</name>
								<parameterid>level</parameterid>
								<valuemin>0</valuemin>
								<valuemax>3.98109</valuemax>
								<value>1</value>
							</parameter>
						</effect>
					</filter>
					<filter>
						<effect>
							<name>Audio Pan</name>
							<effectid>audiopan</effectid>
							<effectcategory>audiopan</effectcategory>
							<effecttype>audiopan</effecttype>
							<mediatype>audio</mediatype>
							<parameter>
								<name>Pan</name>
								<parameterid>pan</parameterid>
								<valuemin>-1</valuemin>
								<valuemax>1</valuemax>
								<value>0</value>
							</parameter>
						</effect>
					</filter>
					<sourcetrack>
						<mediatype>audio</mediatype>
						<trackindex>1</trackindex>
					</sourcetrack>
					<link>
						<linkclipref>00823001.MOV4</linkclipref>
						<mediatype>video</mediatype>
						<trackindex>1</trackindex>
						<clipindex>245</clipindex>
					</link>
					<link>
						<linkclipref>00823001.MOV5</linkclipref>
						<mediatype>audio</mediatype>
						<trackindex>1</trackindex>
						<clipindex>204</clipindex>
					</link>
					<link>
						<linkclipref>00823001.MOV6</linkclipref>
						<mediatype>audio</mediatype>
						<trackindex>2</trackindex>
						<clipindex>204</clipindex>
					</link>
					<itemhistory>
						<uuid>22D90185-4A15-4300-A110-993AD4F005C4</uuid>
					</itemhistory>
				</clipitem>
				<transitionitem>
					<rate>
						<ntsc>FALSE</ntsc>
						<timebase>25</timebase>
					</rate>
					<start>29079</start>
					<end>29095</end>
					<alignment>end</alignment>
					<effect>
						<name>Cross Fade (+3dB)</name>
						<effectid>KGAudioTransCrossFade3dB</effectid>
						<effecttype>transition</effecttype>
						<mediatype>audio</mediatype>
					</effect>
				</transitionitem>
				<clipitem id="00821001.MOV8">
					<name>00821001.MOV</name>
					<duration>3420</duration>
					<rate>
						<ntsc>FALSE</ntsc>
						<timebase>25</timebase>
					</rate>
					<in>759</in>
					<out>861</out>
					<start>-1</start>
					<end>-1</end>
					<subframeoffset>0</subframeoffset>
					<enabled>TRUE</enabled>
					<masterclipid>00821001.MOV1</masterclipid>
					<logginginfo>
						<scene/>
						<shottake/>
						<lognote/>
						<good>FALSE</good>
					</logginginfo>
					<labels>
						<label2/>
					</labels>
					<comments>
						<mastercomment1/>
						<mastercomment2/>
						<mastercomment3/>
						<mastercomment4/>
					</comments>
					<file id="00821001 "/>
					<filter>
						<effect>
							<name>Audio Levels</name>
							<effectid>audiolevels</effectid>
							<effectcategory>audiolevels</effectcategory>
							<effecttype>audiolevels</effecttype>
							<mediatype>audio</mediatype>
							<parameter>
								<name>Level</name>
								<parameterid>level</parameterid>
								<valuemin>0</valuemin>
								<valuemax>3.98109</valuemax>
								<value>1</value>
							</parameter>
						</effect>
					</filter>
					<filter>
						<effect>
							<name>Audio Pan</name>
							<effectid>audiopan</effectid>
							<effectcategory>audiopan</effectcategory>
							<effecttype>audiopan</effecttype>
							<mediatype>audio</mediatype>
							<parameter>
								<name>Pan</name>
								<parameterid>pan</parameterid>
								<valuemin>-1</valuemin>
								<valuemax>1</valuemax>
								<value>0</value>
							</parameter>
						</effect>
					</filter>
					<sourcetrack>
						<mediatype>audio</mediatype>
						<trackindex>1</trackindex>
					</sourcetrack>
					<link>
						<linkclipref>00821001.MOV7</linkclipref>
						<mediatype>video</mediatype>
						<trackindex>1</trackindex>
						<clipindex>246</clipindex>
					</link>
					<link>
						<linkclipref>00821001.MOV8</linkclipref>
						<mediatype>audio</mediatype>
						<trackindex>1</trackindex>
						<clipindex>206</clipindex>
					</link>
					<link>
						<linkclipref>00821001.MOV9</linkclipref>
						<mediatype>audio</mediatype>
						<trackindex>2</trackindex>
						<clipindex>206</clipindex>
					</link>
					<itemhistory>
						<uuid>9C9B9788-207A-46F7-8786-923C8CA97168</uuid>
					</itemhistory>
				</clipitem>
				<transitionitem>
					<rate>
						<ntsc>FALSE</ntsc>
						<timebase>25</timebase>
					</rate>
					<start>29179</start>
					<end>29181</end>
					<alignment>center</alignment>
					<effect>
						<name>Cross Fade (+3dB)</name>
						<effectid>KGAudioTransCrossFade3dB</effectid>
						<effecttype>transition</effecttype>
						<mediatype>audio</mediatype>
					</effect>
				</transitionitem>
				<clipitem id="00823001.MOV8">
					<name>00823001.MOV</name>
					<duration>2676</duration>
					<rate>
						<ntsc>FALSE</ntsc>
						<timebase>25</timebase>
					</rate>
					<in>627</in>
					<out>712</out>
					<start>-1</start>
					<end>-1</end>
					<subframeoffset>0</subframeoffset>
					<enabled>TRUE</enabled>
					<masterclipid>00823001.MOV1</masterclipid>
					<logginginfo>
						<scene/>
						<shottake/>
						<lognote/>
						<good>FALSE</good>
					</logginginfo>
					<labels>
						<label2/>
					</labels>
					<comments>
						<mastercomment1/>
						<mastercomment2/>
						<mastercomment3/>
						<mastercomment4/>
					</comments>
					<file id="00823001 "/>
					<filter>
						<effect>
							<name>Audio Levels</name>
							<effectid>audiolevels</effectid>
							<effectcategory>audiolevels</effectcategory>
							<effecttype>audiolevels</effecttype>
							<mediatype>audio</mediatype>
							<parameter>
								<name>Level</name>
								<parameterid>level</parameterid>
								<valuemin>0</valuemin>
								<valuemax>3.98109</valuemax>
								<value>1</value>
							</parameter>
						</effect>
					</filter>
					<filter>
						<effect>
							<name>Audio Pan</name>
							<effectid>audiopan</effectid>
							<effectcategory>audiopan</effectcategory>
							<effecttype>audiopan</effecttype>
							<mediatype>audio</mediatype>
							<parameter>
								<name>Pan</name>
								<parameterid>pan</parameterid>
								<valuemin>-1</valuemin>
								<valuemax>1</valuemax>
								<value>0</value>
							</parameter>
						</effect>
					</filter>
					<sourcetrack>
						<mediatype>audio</mediatype>
						<trackindex>1</trackindex>
					</sourcetrack>
					<link>
						<linkclipref>00823001.MOV7</linkclipref>
						<mediatype>video</mediatype>
						<trackindex>1</trackindex>
						<clipindex>247</clipindex>
					</link>
					<link>
						<linkclipref>00823001.MOV8</linkclipref>
						<mediatype>audio</mediatype>
						<trackindex>1</trackindex>
						<clipindex>208</clipindex>
					</link>
					<link>
						<linkclipref>00823001.MOV9</linkclipref>
						<mediatype>audio</mediatype>
						<trackindex>2</trackindex>
						<clipindex>208</clipindex>
					</link>
					<itemhistory>
						<uuid>E2774DFF-5DA9-4161-A3C4-AE43B10A0BBD</uuid>
					</itemhistory>
				</clipitem>
				<transitionitem>
					<rate>
						<ntsc>FALSE</ntsc>
						<timebase>25</timebase>
					</rate>
					<start>29257</start>
					<end>29264</end>
					<alignment>center</alignment>
					<effect>
						<name>Cross Fade (+3dB)</name>
						<effectid>KGAudioTransCrossFade3dB</effectid>
						<effecttype>transition</effecttype>
						<mediatype>audio</mediatype>
					</effect>
				</transitionitem>
				<clipitem id="00826001.MOV2">
					<name>00826001.MOV</name>
					<duration>1800</duration>
					<rate>
						<ntsc>FALSE</ntsc>
						<timebase>25</timebase>
					</rate>
					<in>975</in>
					<out>1118</out>
					<start>-1</start>
					<end>29400</end>
					<subframeoffset>0</subframeoffset>
					<enabled>TRUE</enabled>
					<masterclipid>00826001.MOV1</masterclipid>
					<logginginfo>
						<scene/>
						<shottake/>
						<lognote/>
						<good>FALSE</good>
					</logginginfo>
					<labels>
						<label2/>
					</labels>
					<comments>
						<mastercomment1/>
						<mastercomment2/>
						<mastercomment3/>
						<mastercomment4/>
					</comments>
					<file id="00826001 "/>
					<filter>
						<effect>
							<name>Audio Levels</name>
							<effectid>audiolevels</effectid>
							<effectcategory>audiolevels</effectcategory>
							<effecttype>audiolevels</effecttype>
							<mediatype>audio</mediatype>
							<parameter>
								<name>Level</name>
								<parameterid>level</parameterid>
								<valuemin>0</valuemin>
								<valuemax>3.98109</valuemax>
								<value>1</value>
							</parameter>
						</effect>
					</filter>
					<filter>
						<effect>
							<name>Audio Pan</name>
							<effectid>audiopan</effectid>
							<effectcategory>audiopan</effectcategory>
							<effecttype>audiopan</effecttype>
							<mediatype>audio</mediatype>
							<parameter>
								<name>Pan</name>
								<parameterid>pan</parameterid>
								<valuemin>-1</valuemin>
								<valuemax>1</valuemax>
								<value>0</value>
							</parameter>
						</effect>
					</filter>
					<sourcetrack>
						<mediatype>audio</mediatype>
						<trackindex>1</trackindex>
					</sourcetrack>
					<link>
						<linkclipref>00826001.MOV</linkclipref>
						<mediatype>video</mediatype>
						<trackindex>1</trackindex>
						<clipindex>248</clipindex>
					</link>
					<link>
						<linkclipref>00826001.MOV2</linkclipref>
						<mediatype>audio</mediatype>
						<trackindex>1</trackindex>
						<clipindex>210</clipindex>
					</link>
					<link>
						<linkclipref>00826001.MOV3</linkclipref>
						<mediatype>audio</mediatype>
						<trackindex>2</trackindex>
						<clipindex>210</clipindex>
					</link>
					<itemhistory>
						<uuid>89B98D37-6B01-42FB-9368-CF6F253FDD8A</uuid>
					</itemhistory>
				</clipitem>
				<clipitem id="00824001.MOV2">
					<name>00824001.MOV</name>
					<duration>2328</duration>
					<rate>
						<ntsc>FALSE</ntsc>
						<timebase>25</timebase>
					</rate>
					<in>1372</in>
					<out>1444</out>
					<start>29400</start>
					<end>29472</end>
					<subframeoffset>0</subframeoffset>
					<enabled>TRUE</enabled>
					<masterclipid>00824001.MOV1</masterclipid>
					<logginginfo>
						<scene/>
						<shottake/>
						<lognote/>
						<good>FALSE</good>
					</logginginfo>
					<labels>
						<label2/>
					</labels>
					<comments>
						<mastercomment1/>
						<mastercomment2/>
						<mastercomment3/>
						<mastercomment4/>
					</comments>
					<file id="00824001 "/>
					<filter>
						<effect>
							<name>Audio Levels</name>
							<effectid>audiolevels</effectid>
							<effectcategory>audiolevels</effectcategory>
							<effecttype>audiolevels</effecttype>
							<mediatype>audio</mediatype>
							<parameter>
								<name>Level</name>
								<parameterid>level</parameterid>
								<valuemin>0</valuemin>
								<valuemax>3.98109</valuemax>
								<value>1</value>
							</parameter>
						</effect>
					</filter>
					<filter>
						<effect>
							<name>Audio Pan</name>
							<effectid>audiopan</effectid>
							<effectcategory>audiopan</effectcategory>
							<effecttype>audiopan</effecttype>
							<mediatype>audio</mediatype>
							<parameter>
								<name>Pan</name>
								<parameterid>pan</parameterid>
								<valuemin>-1</valuemin>
								<valuemax>1</valuemax>
								<value>0</value>
							</parameter>
						</effect>
					</filter>
					<sourcetrack>
						<mediatype>audio</mediatype>
						<trackindex>1</trackindex>
					</sourcetrack>
					<link>
						<linkclipref>00824001.MOV</linkclipref>
						<mediatype>video</mediatype>
						<trackindex>1</trackindex>
						<clipindex>249</clipindex>
					</link>
					<link>
						<linkclipref>00824001.MOV2</linkclipref>
						<mediatype>audio</mediatype>
						<trackindex>1</trackindex>
						<clipindex>211</clipindex>
					</link>
					<link>
						<linkclipref>00824001.MOV3</linkclipref>
						<mediatype>audio</mediatype>
						<trackindex>2</trackindex>
						<clipindex>211</clipindex>
					</link>
					<itemhistory>
						<uuid>69FEF854-3DEB-4056-A459-BB42530BD72E</uuid>
					</itemhistory>
				</clipitem>
				<clipitem id="00827001.MOV2">
					<name>00827001.MOV</name>
					<duration>1680</duration>
					<rate>
						<ntsc>FALSE</ntsc>
						<timebase>25</timebase>
					</rate>
					<in>1050</in>
					<out>1100</out>
					<start>29472</start>
					<end>29522</end>
					<subframeoffset>0</subframeoffset>
					<enabled>TRUE</enabled>
					<masterclipid>00827001.MOV1</masterclipid>
					<logginginfo>
						<scene/>
						<shottake/>
						<lognote/>
						<good>FALSE</good>
					</logginginfo>
					<labels>
						<label2/>
					</labels>
					<comments>
						<mastercomment1/>
						<mastercomment2/>
						<mastercomment3/>
						<mastercomment4/>
					</comments>
					<file id="00827001 "/>
					<filter>
						<effect>
							<name>Audio Levels</name>
							<effectid>audiolevels</effectid>
							<effectcategory>audiolevels</effectcategory>
							<effecttype>audiolevels</effecttype>
							<mediatype>audio</mediatype>
							<parameter>
								<name>Level</name>
								<parameterid>level</parameterid>
								<valuemin>0</valuemin>
								<valuemax>3.98109</valuemax>
								<value>1</value>
							</parameter>
						</effect>
					</filter>
					<filter>
						<effect>
							<name>Audio Pan</name>
							<effectid>audiopan</effectid>
							<effectcategory>audiopan</effectcategory>
							<effecttype>audiopan</effecttype>
							<mediatype>audio</mediatype>
							<parameter>
								<name>Pan</name>
								<parameterid>pan</parameterid>
								<valuemin>-1</valuemin>
								<valuemax>1</valuemax>
								<value>0</value>
							</parameter>
						</effect>
					</filter>
					<sourcetrack>
						<mediatype>audio</mediatype>
						<trackindex>1</trackindex>
					</sourcetrack>
					<link>
						<linkclipref>00827001.MOV</linkclipref>
						<mediatype>video</mediatype>
						<trackindex>1</trackindex>
						<clipindex>250</clipindex>
					</link>
					<link>
						<linkclipref>00827001.MOV2</linkclipref>
						<mediatype>audio</mediatype>
						<trackindex>1</trackindex>
						<clipindex>212</clipindex>
					</link>
					<link>
						<linkclipref>00827001.MOV3</linkclipref>
						<mediatype>audio</mediatype>
						<trackindex>2</trackindex>
						<clipindex>212</clipindex>
					</link>
					<itemhistory>
						<uuid>1EE9E482-75F3-4709-AFF9-105D9E54EA88</uuid>
					</itemhistory>
				</clipitem>
				<clipitem id="00824001.MOV5">
					<name>00824001.MOV</name>
					<duration>2328</duration>
					<rate>
						<ntsc>FALSE</ntsc>
						<timebase>25</timebase>
					</rate>
					<in>1464</in>
					<out>1555</out>
					<start>29522</start>
					<end>-1</end>
					<subframeoffset>0</subframeoffset>
					<masterclipid>00824001.MOV1</masterclipid>
					<logginginfo>
						<scene/>
						<shottake/>
						<lognote/>
						<good>FALSE</good>
					</logginginfo>
					<labels>
						<label2/>
					</labels>
					<comments>
						<mastercomment1/>
						<mastercomment2/>
						<mastercomment3/>
						<mastercomment4/>
					</comments>
					<file id="00824001 "/>
					<filter>
						<effect>
							<name>Audio Levels</name>
							<effectid>audiolevels</effectid>
							<effectcategory>audiolevels</effectcategory>
							<effecttype>audiolevels</effecttype>
							<mediatype>audio</mediatype>
							<parameter>
								<name>Level</name>
								<parameterid>level</parameterid>
								<valuemin>0</valuemin>
								<valuemax>3.98109</valuemax>
								<value>1</value>
							</parameter>
						</effect>
					</filter>
					<filter>
						<effect>
							<name>Audio Pan</name>
							<effectid>audiopan</effectid>
							<effectcategory>audiopan</effectcategory>
							<effecttype>audiopan</effecttype>
							<mediatype>audio</mediatype>
							<parameter>
								<name>Pan</name>
								<parameterid>pan</parameterid>
								<valuemin>-1</valuemin>
								<valuemax>1</valuemax>
								<value>0</value>
							</parameter>
						</effect>
					</filter>
					<sourcetrack>
						<mediatype>audio</mediatype>
						<trackindex>1</trackindex>
					</sourcetrack>
					<link>
						<linkclipref>00824001.MOV4</linkclipref>
						<mediatype>video</mediatype>
						<trackindex>1</trackindex>
						<clipindex>251</clipindex>
					</link>
					<link>
						<linkclipref>00824001.MOV5</linkclipref>
						<mediatype>audio</mediatype>
						<trackindex>1</trackindex>
						<clipindex>213</clipindex>
					</link>
					<link>
						<linkclipref>00824001.MOV6</linkclipref>
						<mediatype>audio</mediatype>
						<trackindex>2</trackindex>
						<clipindex>213</clipindex>
					</link>
					<itemhistory>
						<uuid>3C671FF4-E404-4D5A-9FEF-C3D58B0F4A92</uuid>
					</itemhistory>
				</clipitem>
				<transitionitem>
					<rate>
						<ntsc>FALSE</ntsc>
						<timebase>25</timebase>
					</rate>
					<start>29611</start>
					<end>29613</end>
					<alignment>center</alignment>
					<effect>
						<name>Cross Fade (+3dB)</name>
						<effectid>KGAudioTransCrossFade3dB</effectid>
						<effecttype>transition</effecttype>
						<mediatype>audio</mediatype>
					</effect>
				</transitionitem>
				<clipitem id="00827001.MOV5">
					<name>00827001.MOV</name>
					<duration>1680</duration>
					<rate>
						<ntsc>FALSE</ntsc>
						<timebase>25</timebase>
					</rate>
					<in>1111</in>
					<out>1198</out>
					<start>-1</start>
					<end>29698</end>
					<subframeoffset>0</subframeoffset>
					<enabled>TRUE</enabled>
					<masterclipid>00827001.MOV1</masterclipid>
					<logginginfo>
						<scene/>
						<shottake/>
						<lognote/>
						<good>FALSE</good>
					</logginginfo>
					<labels>
						<label2/>
					</labels>
					<comments>
						<mastercomment1/>
						<mastercomment2/>
						<mastercomment3/>
						<mastercomment4/>
					</comments>
					<file id="00827001 "/>
					<filter>
						<effect>
							<name>Audio Levels</name>
							<effectid>audiolevels</effectid>
							<effectcategory>audiolevels</effectcategory>
							<effecttype>audiolevels</effecttype>
							<mediatype>audio</mediatype>
							<parameter>
								<name>Level</name>
								<parameterid>level</parameterid>
								<valuemin>0</valuemin>
								<valuemax>3.98109</valuemax>
								<value>1</value>
							</parameter>
						</effect>
					</filter>
					<filter>
						<effect>
							<name>Audio Pan</name>
							<effectid>audiopan</effectid>
							<effectcategory>audiopan</effectcategory>
							<effecttype>audiopan</effecttype>
							<mediatype>audio</mediatype>
							<parameter>
								<name>Pan</name>
								<parameterid>pan</parameterid>
								<valuemin>-1</valuemin>
								<valuemax>1</valuemax>
								<value>0</value>
							</parameter>
						</effect>
					</filter>
					<sourcetrack>
						<mediatype>audio</mediatype>
						<trackindex>1</trackindex>
					</sourcetrack>
					<link>
						<linkclipref>00827001.MOV4</linkclipref>
						<mediatype>video</mediatype>
						<trackindex>1</trackindex>
						<clipindex>252</clipindex>
					</link>
					<link>
						<linkclipref>00827001.MOV5</linkclipref>
						<mediatype>audio</mediatype>
						<trackindex>1</trackindex>
						<clipindex>215</clipindex>
					</link>
					<link>
						<linkclipref>00827001.MOV6</linkclipref>
						<mediatype>audio</mediatype>
						<trackindex>2</trackindex>
						<clipindex>215</clipindex>
					</link>
					<itemhistory>
						<uuid>62349AC6-6C04-401C-891B-17E7DF1F942A</uuid>
					</itemhistory>
				</clipitem>
				<clipitem id="00824001.MOV8">
					<name>00824001.MOV</name>
					<duration>2328</duration>
					<rate>
						<ntsc>FALSE</ntsc>
						<timebase>25</timebase>
					</rate>
					<in>1675</in>
					<out>1720</out>
					<start>29698</start>
					<end>-1</end>
					<subframeoffset>0</subframeoffset>
					<enabled>TRUE</enabled>
					<masterclipid>00824001.MOV1</masterclipid>
					<logginginfo>
						<scene/>
						<shottake/>
						<lognote/>
						<good>FALSE</good>
					</logginginfo>
					<labels>
						<label2/>
					</labels>
					<comments>
						<mastercomment1/>
						<mastercomment2/>
						<mastercomment3/>
						<mastercomment4/>
					</comments>
					<file id="00824001 "/>
					<filter>
						<effect>
							<name>Audio Levels</name>
							<effectid>audiolevels</effectid>
							<effectcategory>audiolevels</effectcategory>
							<effecttype>audiolevels</effecttype>
							<mediatype>audio</mediatype>
							<parameter>
								<name>Level</name>
								<parameterid>level</parameterid>
								<valuemin>0</valuemin>
								<valuemax>3.98109</valuemax>
								<value>1</value>
							</parameter>
						</effect>
					</filter>
					<filter>
						<effect>
							<name>Audio Pan</name>
							<effectid>audiopan</effectid>
							<effectcategory>audiopan</effectcategory>
							<effecttype>audiopan</effecttype>
							<mediatype>audio</mediatype>
							<parameter>
								<name>Pan</name>
								<parameterid>pan</parameterid>
								<valuemin>-1</valuemin>
								<valuemax>1</valuemax>
								<value>0</value>
							</parameter>
						</effect>
					</filter>
					<sourcetrack>
						<mediatype>audio</mediatype>
						<trackindex>1</trackindex>
					</sourcetrack>
					<link>
						<linkclipref>00824001.MOV7</linkclipref>
						<mediatype>video</mediatype>
						<trackindex>1</trackindex>
						<clipindex>255</clipindex>
					</link>
					<link>
						<linkclipref>00824001.MOV8</linkclipref>
						<mediatype>audio</mediatype>
						<trackindex>1</trackindex>
						<clipindex>216</clipindex>
					</link>
					<link>
						<linkclipref>00824001.MOV9</linkclipref>
						<mediatype>audio</mediatype>
						<trackindex>2</trackindex>
						<clipindex>216</clipindex>
					</link>
					<itemhistory>
						<uuid>CA623A81-D566-4F86-84C5-5E5576AD6DDF</uuid>
					</itemhistory>
				</clipitem>
				<transitionitem>
					<rate>
						<ntsc>FALSE</ntsc>
						<timebase>25</timebase>
					</rate>
					<start>29741</start>
					<end>29743</end>
					<alignment>center</alignment>
					<effect>
						<name>Cross Fade (+3dB)</name>
						<effectid>KGAudioTransCrossFade3dB</effectid>
						<effecttype>transition</effecttype>
						<mediatype>audio</mediatype>
					</effect>
				</transitionitem>
				<clipitem id="00827001.MOV9">
					<name>00827001.MOV</name>
					<duration>1680</duration>
					<rate>
						<ntsc>FALSE</ntsc>
						<timebase>25</timebase>
					</rate>
					<in>1197</in>
					<out>1319</out>
					<start>-1</start>
					<end>29863</end>
					<subframeoffset>0</subframeoffset>
					<enabled>TRUE</enabled>
					<masterclipid>00827001.MOV1</masterclipid>
					<logginginfo>
						<scene/>
						<shottake/>
						<lognote/>
						<good>FALSE</good>
					</logginginfo>
					<labels>
						<label2/>
					</labels>
					<comments>
						<mastercomment1/>
						<mastercomment2/>
						<mastercomment3/>
						<mastercomment4/>
					</comments>
					<file id="00827001 "/>
					<filter>
						<effect>
							<name>Audio Levels</name>
							<effectid>audiolevels</effectid>
							<effectcategory>audiolevels</effectcategory>
							<effecttype>audiolevels</effecttype>
							<mediatype>audio</mediatype>
							<parameter>
								<name>Level</name>
								<parameterid>level</parameterid>
								<valuemin>0</valuemin>
								<valuemax>3.98109</valuemax>
								<value>1</value>
							</parameter>
						</effect>
					</filter>
					<filter>
						<effect>
							<name>Audio Pan</name>
							<effectid>audiopan</effectid>
							<effectcategory>audiopan</effectcategory>
							<effecttype>audiopan</effecttype>
							<mediatype>audio</mediatype>
							<parameter>
								<name>Pan</name>
								<parameterid>pan</parameterid>
								<valuemin>-1</valuemin>
								<valuemax>1</valuemax>
								<value>0</value>
							</parameter>
						</effect>
					</filter>
					<sourcetrack>
						<mediatype>audio</mediatype>
						<trackindex>1</trackindex>
					</sourcetrack>
					<link>
						<linkclipref>00827001.MOV8</linkclipref>
						<mediatype>video</mediatype>
						<trackindex>1</trackindex>
						<clipindex>256</clipindex>
					</link>
					<link>
						<linkclipref>00827001.MOV9</linkclipref>
						<mediatype>audio</mediatype>
						<trackindex>1</trackindex>
						<clipindex>218</clipindex>
					</link>
					<link>
						<linkclipref>00827001.MOV10</linkclipref>
						<mediatype>audio</mediatype>
						<trackindex>2</trackindex>
						<clipindex>218</clipindex>
					</link>
					<itemhistory>
						<uuid>B80F527C-7E1A-476F-A68D-27608AF9BA44</uuid>
					</itemhistory>
				</clipitem>
				<clipitem id="00821001.MOV13">
					<name>00821001.MOV</name>
					<duration>3420</duration>
					<rate>
						<ntsc>FALSE</ntsc>
						<timebase>25</timebase>
					</rate>
					<in>2587</in>
					<out>3382</out>
					<start>29863</start>
					<end>-1</end>
					<subframeoffset>0</subframeoffset>
					<enabled>TRUE</enabled>
					<masterclipid>00821001.MOV1</masterclipid>
					<logginginfo>
						<scene/>
						<shottake/>
						<lognote/>
						<good>FALSE</good>
					</logginginfo>
					<labels>
						<label2/>
					</labels>
					<comments>
						<mastercomment1/>
						<mastercomment2/>
						<mastercomment3/>
						<mastercomment4/>
					</comments>
					<file id="00821001 "/>
					<filter>
						<effect>
							<name>Audio Levels</name>
							<effectid>audiolevels</effectid>
							<effectcategory>audiolevels</effectcategory>
							<effecttype>audiolevels</effecttype>
							<mediatype>audio</mediatype>
							<parameter>
								<name>Level</name>
								<parameterid>level</parameterid>
								<valuemin>0</valuemin>
								<valuemax>3.98109</valuemax>
								<value>1</value>
							</parameter>
						</effect>
					</filter>
					<filter>
						<effect>
							<name>Audio Pan</name>
							<effectid>audiopan</effectid>
							<effectcategory>audiopan</effectcategory>
							<effecttype>audiopan</effecttype>
							<mediatype>audio</mediatype>
							<parameter>
								<name>Pan</name>
								<parameterid>pan</parameterid>
								<valuemin>-1</valuemin>
								<valuemax>1</valuemax>
								<value>0</value>
							</parameter>
						</effect>
					</filter>
					<sourcetrack>
						<mediatype>audio</mediatype>
						<trackindex>1</trackindex>
					</sourcetrack>
					<link>
						<linkclipref>00821001.MOV13</linkclipref>
						<mediatype>audio</mediatype>
						<trackindex>1</trackindex>
						<clipindex>219</clipindex>
					</link>
					<link>
						<linkclipref>00821001.MOV14</linkclipref>
						<mediatype>audio</mediatype>
						<trackindex>2</trackindex>
						<clipindex>219</clipindex>
					</link>
					<itemhistory>
						<uuid>8110EFAE-68D4-4107-BE30-F58DEA96B125</uuid>
					</itemhistory>
				</clipitem>
				<transitionitem>
					<rate>
						<ntsc>FALSE</ntsc>
						<timebase>25</timebase>
					</rate>
					<start>30633</start>
					<end>30658</end>
					<alignment>end-black</alignment>
					<effect>
						<name>Cross Fade (+3dB)</name>
						<effectid>KGAudioTransCrossFade3dB</effectid>
						<effecttype>transition</effecttype>
						<mediatype>audio</mediatype>
					</effect>
				</transitionitem>
				<enabled>TRUE</enabled>
				<locked>FALSE</locked>
				<outputchannelindex>1</outputchannelindex>
			</track>
			<track>
				<clipitem id="DYR18091_01 plukke mose3">
					<name>DYR18091_01 plukke mose</name>
					<duration>935</duration>
					<rate>
						<ntsc>FALSE</ntsc>
						<timebase>25</timebase>
					</rate>
					<in>258</in>
					<out>368</out>
					<start>416</start>
					<end>526</end>
					<subframeoffset>0</subframeoffset>
					<enabled>TRUE</enabled>
					<masterclipid>DYR18091_01 plukke mose1</masterclipid>
					<logginginfo>
						<scene/>
						<shottake/>
						<lognote/>
						<good>FALSE</good>
					</logginginfo>
					<labels>
						<label2/>
					</labels>
					<comments>
						<mastercomment1/>
						<mastercomment2/>
						<mastercomment3/>
						<mastercomment4/>
					</comments>
					<file id="DYR18091_01 "/>
					<filter>
						<effect>
							<name>Audio Levels</name>
							<effectid>audiolevels</effectid>
							<effectcategory>audiolevels</effectcategory>
							<effecttype>audiolevels</effecttype>
							<mediatype>audio</mediatype>
							<parameter>
								<name>Level</name>
								<parameterid>level</parameterid>
								<valuemin>0</valuemin>
								<valuemax>3.98109</valuemax>
								<value>1</value>
							</parameter>
						</effect>
					</filter>
					<filter>
						<effect>
							<name>Audio Pan</name>
							<effectid>audiopan</effectid>
							<effectcategory>audiopan</effectcategory>
							<effecttype>audiopan</effecttype>
							<mediatype>audio</mediatype>
							<parameter>
								<name>Pan</name>
								<parameterid>pan</parameterid>
								<valuemin>-1</valuemin>
								<valuemax>1</valuemax>
								<value>0</value>
							</parameter>
						</effect>
					</filter>
					<sourcetrack>
						<mediatype>audio</mediatype>
						<trackindex>2</trackindex>
					</sourcetrack>
					<link>
						<linkclipref>DYR18091_01 plukke mose</linkclipref>
						<mediatype>video</mediatype>
						<trackindex>1</trackindex>
						<clipindex>1</clipindex>
					</link>
					<link>
						<linkclipref>DYR18091_01 plukke mose2</linkclipref>
						<mediatype>audio</mediatype>
						<trackindex>1</trackindex>
						<clipindex>1</clipindex>
					</link>
					<link>
						<linkclipref>DYR18091_01 plukke mose3</linkclipref>
						<mediatype>audio</mediatype>
						<trackindex>2</trackindex>
						<clipindex>1</clipindex>
					</link>
					<itemhistory>
						<uuid>11162CED-099B-434C-939A-C0C0DA7FCA76</uuid>
						<uuid>20B9F0FA-0427-4E5C-8A6A-48B4DE6CD5C1</uuid>
					</itemhistory>
				</clipitem>
				<clipitem id="DYR18477_01 4">
					<name>DYR18477_01</name>
					<duration>418</duration>
					<rate>
						<ntsc>FALSE</ntsc>
						<timebase>25</timebase>
					</rate>
					<in>160</in>
					<out>271</out>
					<start>526</start>
					<end>637</end>
					<subframeoffset>0</subframeoffset>
					<masterclipid>DYR18477_01 1</masterclipid>
					<logginginfo>
						<scene/>
						<shottake/>
						<lognote/>
						<good>FALSE</good>
					</logginginfo>
					<labels>
						<label2/>
					</labels>
					<comments>
						<mastercomment1/>
						<mastercomment2/>
						<mastercomment3/>
						<mastercomment4/>
					</comments>
					<file id="DYR18477_01 2"/>
					<filter>
						<effect>
							<name>Audio Levels</name>
							<effectid>audiolevels</effectid>
							<effectcategory>audiolevels</effectcategory>
							<effecttype>audiolevels</effecttype>
							<mediatype>audio</mediatype>
							<parameter>
								<name>Level</name>
								<parameterid>level</parameterid>
								<valuemin>0</valuemin>
								<valuemax>3.98109</valuemax>
								<value>1</value>
							</parameter>
						</effect>
					</filter>
					<filter>
						<effect>
							<name>Audio Pan</name>
							<effectid>audiopan</effectid>
							<effectcategory>audiopan</effectcategory>
							<effecttype>audiopan</effecttype>
							<mediatype>audio</mediatype>
							<parameter>
								<name>Pan</name>
								<parameterid>pan</parameterid>
								<valuemin>-1</valuemin>
								<valuemax>1</valuemax>
								<value>0</value>
							</parameter>
						</effect>
					</filter>
					<sourcetrack>
						<mediatype>audio</mediatype>
						<trackindex>2</trackindex>
					</sourcetrack>
					<link>
						<linkclipref>DYR18477_01 </linkclipref>
						<mediatype>video</mediatype>
						<trackindex>1</trackindex>
						<clipindex>2</clipindex>
					</link>
					<link>
						<linkclipref>DYR18477_01 3</linkclipref>
						<mediatype>audio</mediatype>
						<trackindex>1</trackindex>
						<clipindex>2</clipindex>
					</link>
					<link>
						<linkclipref>DYR18477_01 4</linkclipref>
						<mediatype>audio</mediatype>
						<trackindex>2</trackindex>
						<clipindex>2</clipindex>
					</link>
					<itemhistory>
						<uuid>CF6E2C1F-5614-4A99-B2BB-9727BB14A9F8</uuid>
					</itemhistory>
				</clipitem>
				<clipitem id="00795001.MOV3">
					<name>00795001.MOV</name>
					<duration>648</duration>
					<rate>
						<ntsc>FALSE</ntsc>
						<timebase>25</timebase>
					</rate>
					<in>365</in>
					<out>531</out>
					<start>637</start>
					<end>803</end>
					<subframeoffset>0</subframeoffset>
					<enabled>TRUE</enabled>
					<masterclipid>00795001.MOV1</masterclipid>
					<logginginfo>
						<scene/>
						<shottake/>
						<lognote/>
						<good>FALSE</good>
					</logginginfo>
					<labels>
						<label2/>
					</labels>
					<comments>
						<mastercomment1/>
						<mastercomment2/>
						<mastercomment3/>
						<mastercomment4/>
					</comments>
					<file id="00795001 "/>
					<filter>
						<effect>
							<name>Audio Levels</name>
							<effectid>audiolevels</effectid>
							<effectcategory>audiolevels</effectcategory>
							<effecttype>audiolevels</effecttype>
							<mediatype>audio</mediatype>
							<parameter>
								<name>Level</name>
								<parameterid>level</parameterid>
								<valuemin>0</valuemin>
								<valuemax>3.98109</valuemax>
								<value>0.794328</value>
							</parameter>
						</effect>
					</filter>
					<filter>
						<effect>
							<name>Audio Pan</name>
							<effectid>audiopan</effectid>
							<effectcategory>audiopan</effectcategory>
							<effecttype>audiopan</effecttype>
							<mediatype>audio</mediatype>
							<parameter>
								<name>Pan</name>
								<parameterid>pan</parameterid>
								<valuemin>-1</valuemin>
								<valuemax>1</valuemax>
								<value>0</value>
							</parameter>
						</effect>
					</filter>
					<sourcetrack>
						<mediatype>audio</mediatype>
						<trackindex>2</trackindex>
					</sourcetrack>
					<link>
						<linkclipref>00795001.MOV</linkclipref>
						<mediatype>video</mediatype>
						<trackindex>1</trackindex>
						<clipindex>3</clipindex>
					</link>
					<link>
						<linkclipref>00795001.MOV2</linkclipref>
						<mediatype>audio</mediatype>
						<trackindex>1</trackindex>
						<clipindex>3</clipindex>
					</link>
					<link>
						<linkclipref>00795001.MOV3</linkclipref>
						<mediatype>audio</mediatype>
						<trackindex>2</trackindex>
						<clipindex>3</clipindex>
					</link>
					<itemhistory>
						<uuid>2EB7092D-272A-4AA4-AC1D-4C9D6AC81DCB</uuid>
					</itemhistory>
				</clipitem>
				<clipitem id="00693001.MOV6">
					<name>00693001.MOV</name>
					<duration>936</duration>
					<rate>
						<ntsc>FALSE</ntsc>
						<timebase>25</timebase>
					</rate>
					<in>125</in>
					<out>380</out>
					<start>846</start>
					<end>1101</end>
					<subframeoffset>0</subframeoffset>
					<masterclipid>00693001.MOV1</masterclipid>
					<logginginfo>
						<scene/>
						<shottake/>
						<lognote/>
						<good>FALSE</good>
					</logginginfo>
					<labels>
						<label2/>
					</labels>
					<comments>
						<mastercomment1/>
						<mastercomment2/>
						<mastercomment3/>
						<mastercomment4/>
					</comments>
					<file id="00693001 "/>
					<filter>
						<effect>
							<name>Audio Levels</name>
							<effectid>audiolevels</effectid>
							<effectcategory>audiolevels</effectcategory>
							<effecttype>audiolevels</effecttype>
							<mediatype>audio</mediatype>
							<parameter>
								<name>Level</name>
								<parameterid>level</parameterid>
								<valuemin>0</valuemin>
								<valuemax>3.98109</valuemax>
								<value>1.77828</value>
							</parameter>
						</effect>
					</filter>
					<filter>
						<effect>
							<name>Audio Pan</name>
							<effectid>audiopan</effectid>
							<effectcategory>audiopan</effectcategory>
							<effecttype>audiopan</effecttype>
							<mediatype>audio</mediatype>
							<parameter>
								<name>Pan</name>
								<parameterid>pan</parameterid>
								<valuemin>-1</valuemin>
								<valuemax>1</valuemax>
								<value>0</value>
							</parameter>
						</effect>
					</filter>
					<sourcetrack>
						<mediatype>audio</mediatype>
						<trackindex>2</trackindex>
					</sourcetrack>
					<link>
						<linkclipref>00693001.MOV4</linkclipref>
						<mediatype>video</mediatype>
						<trackindex>2</trackindex>
						<clipindex>1</clipindex>
					</link>
					<link>
						<linkclipref>00693001.MOV5</linkclipref>
						<mediatype>audio</mediatype>
						<trackindex>1</trackindex>
						<clipindex>4</clipindex>
					</link>
					<link>
						<linkclipref>00693001.MOV6</linkclipref>
						<mediatype>audio</mediatype>
						<trackindex>2</trackindex>
						<clipindex>4</clipindex>
					</link>
					<itemhistory>
						<uuid>47DB6CB9-F154-4383-A18B-1F9048F0CB1C</uuid>
					</itemhistory>
				</clipitem>
				<clipitem id="00698001.MOV3">
					<name>00698001.MOV</name>
					<duration>780</duration>
					<rate>
						<ntsc>FALSE</ntsc>
						<timebase>25</timebase>
					</rate>
					<in>231</in>
					<out>315</out>
					<start>1101</start>
					<end>1185</end>
					<subframeoffset>0</subframeoffset>
					<enabled>TRUE</enabled>
					<masterclipid>00698001.MOV1</masterclipid>
					<logginginfo>
						<scene/>
						<shottake/>
						<lognote/>
						<good>FALSE</good>
					</logginginfo>
					<labels>
						<label2/>
					</labels>
					<comments>
						<mastercomment1/>
						<mastercomment2/>
						<mastercomment3/>
						<mastercomment4/>
					</comments>
					<file id="00698001 "/>
					<filter>
						<effect>
							<name>Audio Levels</name>
							<effectid>audiolevels</effectid>
							<effectcategory>audiolevels</effectcategory>
							<effecttype>audiolevels</effecttype>
							<mediatype>audio</mediatype>
							<parameter>
								<name>Level</name>
								<parameterid>level</parameterid>
								<valuemin>0</valuemin>
								<valuemax>3.98109</valuemax>
								<value>1.77828</value>
							</parameter>
						</effect>
					</filter>
					<filter>
						<effect>
							<name>Audio Pan</name>
							<effectid>audiopan</effectid>
							<effectcategory>audiopan</effectcategory>
							<effecttype>audiopan</effecttype>
							<mediatype>audio</mediatype>
							<parameter>
								<name>Pan</name>
								<parameterid>pan</parameterid>
								<valuemin>-1</valuemin>
								<valuemax>1</valuemax>
								<value>0</value>
							</parameter>
						</effect>
					</filter>
					<sourcetrack>
						<mediatype>audio</mediatype>
						<trackindex>2</trackindex>
					</sourcetrack>
					<link>
						<linkclipref>00698001.MOV</linkclipref>
						<mediatype>video</mediatype>
						<trackindex>1</trackindex>
						<clipindex>4</clipindex>
					</link>
					<link>
						<linkclipref>00698001.MOV2</linkclipref>
						<mediatype>audio</mediatype>
						<trackindex>1</trackindex>
						<clipindex>5</clipindex>
					</link>
					<link>
						<linkclipref>00698001.MOV3</linkclipref>
						<mediatype>audio</mediatype>
						<trackindex>2</trackindex>
						<clipindex>5</clipindex>
					</link>
					<itemhistory>
						<uuid>0A46410B-5541-4B53-A6AB-25C0314267F8</uuid>
					</itemhistory>
				</clipitem>
				<clipitem id="00693001.MOV3">
					<name>00693001.MOV</name>
					<duration>936</duration>
					<rate>
						<ntsc>FALSE</ntsc>
						<timebase>25</timebase>
					</rate>
					<in>504</in>
					<out>828</out>
					<start>1185</start>
					<end>1509</end>
					<subframeoffset>0</subframeoffset>
					<masterclipid>00693001.MOV1</masterclipid>
					<logginginfo>
						<scene/>
						<shottake/>
						<lognote/>
						<good>FALSE</good>
					</logginginfo>
					<labels>
						<label2/>
					</labels>
					<comments>
						<mastercomment1/>
						<mastercomment2/>
						<mastercomment3/>
						<mastercomment4/>
					</comments>
					<file id="00693001 "/>
					<filter>
						<effect>
							<name>Audio Levels</name>
							<effectid>audiolevels</effectid>
							<effectcategory>audiolevels</effectcategory>
							<effecttype>audiolevels</effecttype>
							<mediatype>audio</mediatype>
							<parameter>
								<name>Level</name>
								<parameterid>level</parameterid>
								<valuemin>0</valuemin>
								<valuemax>3.98109</valuemax>
								<value>1.77828</value>
							</parameter>
						</effect>
					</filter>
					<filter>
						<effect>
							<name>Audio Pan</name>
							<effectid>audiopan</effectid>
							<effectcategory>audiopan</effectcategory>
							<effecttype>audiopan</effecttype>
							<mediatype>audio</mediatype>
							<parameter>
								<name>Pan</name>
								<parameterid>pan</parameterid>
								<valuemin>-1</valuemin>
								<valuemax>1</valuemax>
								<value>0</value>
							</parameter>
						</effect>
					</filter>
					<sourcetrack>
						<mediatype>audio</mediatype>
						<trackindex>2</trackindex>
					</sourcetrack>
					<link>
						<linkclipref>00693001.MOV</linkclipref>
						<mediatype>video</mediatype>
						<trackindex>1</trackindex>
						<clipindex>5</clipindex>
					</link>
					<link>
						<linkclipref>00693001.MOV2</linkclipref>
						<mediatype>audio</mediatype>
						<trackindex>1</trackindex>
						<clipindex>6</clipindex>
					</link>
					<link>
						<linkclipref>00693001.MOV3</linkclipref>
						<mediatype>audio</mediatype>
						<trackindex>2</trackindex>
						<clipindex>6</clipindex>
					</link>
					<itemhistory>
						<uuid>BA9FA346-C2A0-4FCA-A3BC-6F2E4D648EED</uuid>
					</itemhistory>
				</clipitem>
				<clipitem id="00696001.MOV3">
					<name>00696001.MOV</name>
					<duration>1728</duration>
					<rate>
						<ntsc>FALSE</ntsc>
						<timebase>25</timebase>
					</rate>
					<in>294</in>
					<out>397</out>
					<start>1584</start>
					<end>1687</end>
					<subframeoffset>0</subframeoffset>
					<enabled>TRUE</enabled>
					<masterclipid>00696001.MOV1</masterclipid>
					<logginginfo>
						<scene/>
						<shottake/>
						<lognote/>
						<good>FALSE</good>
					</logginginfo>
					<labels>
						<label2/>
					</labels>
					<comments>
						<mastercomment1/>
						<mastercomment2/>
						<mastercomment3/>
						<mastercomment4/>
					</comments>
					<file id="00696001 "/>
					<filter>
						<effect>
							<name>Audio Levels</name>
							<effectid>audiolevels</effectid>
							<effectcategory>audiolevels</effectcategory>
							<effecttype>audiolevels</effecttype>
							<mediatype>audio</mediatype>
							<parameter>
								<name>Level</name>
								<parameterid>level</parameterid>
								<valuemin>0</valuemin>
								<valuemax>3.98109</valuemax>
								<value>1.77828</value>
							</parameter>
						</effect>
					</filter>
					<filter>
						<effect>
							<name>Audio Pan</name>
							<effectid>audiopan</effectid>
							<effectcategory>audiopan</effectcategory>
							<effecttype>audiopan</effecttype>
							<mediatype>audio</mediatype>
							<parameter>
								<name>Pan</name>
								<parameterid>pan</parameterid>
								<valuemin>-1</valuemin>
								<valuemax>1</valuemax>
								<value>0</value>
							</parameter>
						</effect>
					</filter>
					<sourcetrack>
						<mediatype>audio</mediatype>
						<trackindex>2</trackindex>
					</sourcetrack>
					<link>
						<linkclipref>00696001.MOV</linkclipref>
						<mediatype>video</mediatype>
						<trackindex>1</trackindex>
						<clipindex>14</clipindex>
					</link>
					<link>
						<linkclipref>00696001.MOV2</linkclipref>
						<mediatype>audio</mediatype>
						<trackindex>1</trackindex>
						<clipindex>7</clipindex>
					</link>
					<link>
						<linkclipref>00696001.MOV3</linkclipref>
						<mediatype>audio</mediatype>
						<trackindex>2</trackindex>
						<clipindex>7</clipindex>
					</link>
					<itemhistory>
						<uuid>0B7B43B6-DC2E-4D7E-B64D-37ADBE7054F6</uuid>
					</itemhistory>
				</clipitem>
				<clipitem id="00700001.MOV3">
					<name>00700001.MOV</name>
					<duration>1404</duration>
					<rate>
						<ntsc>FALSE</ntsc>
						<timebase>25</timebase>
					</rate>
					<in>122</in>
					<out>256</out>
					<start>1687</start>
					<end>-1</end>
					<subframeoffset>0</subframeoffset>
					<enabled>TRUE</enabled>
					<masterclipid>00700001.MOV1</masterclipid>
					<logginginfo>
						<scene/>
						<shottake/>
						<lognote/>
						<good>FALSE</good>
					</logginginfo>
					<labels>
						<label2/>
					</labels>
					<comments>
						<mastercomment1/>
						<mastercomment2/>
						<mastercomment3/>
						<mastercomment4/>
					</comments>
					<file id="00700001 "/>
					<filter>
						<effect>
							<name>Audio Levels</name>
							<effectid>audiolevels</effectid>
							<effectcategory>audiolevels</effectcategory>
							<effecttype>audiolevels</effecttype>
							<mediatype>audio</mediatype>
							<parameter>
								<name>Level</name>
								<parameterid>level</parameterid>
								<valuemin>0</valuemin>
								<valuemax>3.98109</valuemax>
								<value>1.77828</value>
							</parameter>
						</effect>
					</filter>
					<filter>
						<effect>
							<name>Audio Pan</name>
							<effectid>audiopan</effectid>
							<effectcategory>audiopan</effectcategory>
							<effecttype>audiopan</effecttype>
							<mediatype>audio</mediatype>
							<parameter>
								<name>Pan</name>
								<parameterid>pan</parameterid>
								<valuemin>-1</valuemin>
								<valuemax>1</valuemax>
								<value>0</value>
							</parameter>
						</effect>
					</filter>
					<sourcetrack>
						<mediatype>audio</mediatype>
						<trackindex>2</trackindex>
					</sourcetrack>
					<link>
						<linkclipref>00700001.MOV</linkclipref>
						<mediatype>video</mediatype>
						<trackindex>1</trackindex>
						<clipindex>16</clipindex>
					</link>
					<link>
						<linkclipref>00700001.MOV2</linkclipref>
						<mediatype>audio</mediatype>
						<trackindex>1</trackindex>
						<clipindex>8</clipindex>
					</link>
					<link>
						<linkclipref>00700001.MOV3</linkclipref>
						<mediatype>audio</mediatype>
						<trackindex>2</trackindex>
						<clipindex>8</clipindex>
					</link>
					<itemhistory>
						<uuid>0704A146-C38D-40FC-B186-E4FA38C037C6</uuid>
					</itemhistory>
				</clipitem>
				<transitionitem>
					<rate>
						<ntsc>FALSE</ntsc>
						<timebase>25</timebase>
					</rate>
					<start>1819</start>
					<end>1821</end>
					<alignment>center</alignment>
					<effect>
						<name>Cross Fade (+3dB)</name>
						<effectid>KGAudioTransCrossFade3dB</effectid>
						<effecttype>transition</effecttype>
						<mediatype>audio</mediatype>
					</effect>
				</transitionitem>
				<clipitem id="00705001.MOV4">
					<name>00705001.MOV</name>
					<duration>1632</duration>
					<rate>
						<ntsc>FALSE</ntsc>
						<timebase>25</timebase>
					</rate>
					<in>358</in>
					<out>457</out>
					<start>-1</start>
					<end>1918</end>
					<subframeoffset>0</subframeoffset>
					<masterclipid>00705001.MOV1</masterclipid>
					<logginginfo>
						<scene/>
						<shottake/>
						<lognote/>
						<good>FALSE</good>
					</logginginfo>
					<labels>
						<label2/>
					</labels>
					<comments>
						<mastercomment1/>
						<mastercomment2/>
						<mastercomment3/>
						<mastercomment4/>
					</comments>
					<file id="00705001 "/>
					<filter>
						<effect>
							<name>Audio Levels</name>
							<effectid>audiolevels</effectid>
							<effectcategory>audiolevels</effectcategory>
							<effecttype>audiolevels</effecttype>
							<mediatype>audio</mediatype>
							<parameter>
								<name>Level</name>
								<parameterid>level</parameterid>
								<valuemin>0</valuemin>
								<valuemax>3.98109</valuemax>
								<value>1.77828</value>
							</parameter>
						</effect>
					</filter>
					<filter>
						<effect>
							<name>Audio Pan</name>
							<effectid>audiopan</effectid>
							<effectcategory>audiopan</effectcategory>
							<effecttype>audiopan</effecttype>
							<mediatype>audio</mediatype>
							<parameter>
								<name>Pan</name>
								<parameterid>pan</parameterid>
								<valuemin>-1</valuemin>
								<valuemax>1</valuemax>
								<value>0</value>
							</parameter>
						</effect>
					</filter>
					<sourcetrack>
						<mediatype>audio</mediatype>
						<trackindex>2</trackindex>
					</sourcetrack>
					<link>
						<linkclipref>00705001.MOV2</linkclipref>
						<mediatype>video</mediatype>
						<trackindex>1</trackindex>
						<clipindex>18</clipindex>
					</link>
					<link>
						<linkclipref>00705001.MOV3</linkclipref>
						<mediatype>audio</mediatype>
						<trackindex>1</trackindex>
						<clipindex>10</clipindex>
					</link>
					<link>
						<linkclipref>00705001.MOV4</linkclipref>
						<mediatype>audio</mediatype>
						<trackindex>2</trackindex>
						<clipindex>10</clipindex>
					</link>
					<itemhistory>
						<uuid>962B2A9C-AB81-4BEB-8D84-AE4BB6EB190A</uuid>
					</itemhistory>
				</clipitem>
				<clipitem id="00700001.MOV6">
					<name>00700001.MOV</name>
					<duration>1404</duration>
					<rate>
						<ntsc>FALSE</ntsc>
						<timebase>25</timebase>
					</rate>
					<in>403</in>
					<out>705</out>
					<start>1918</start>
					<end>2220</end>
					<subframeoffset>0</subframeoffset>
					<enabled>TRUE</enabled>
					<masterclipid>00700001.MOV1</masterclipid>
					<logginginfo>
						<scene/>
						<shottake/>
						<lognote/>
						<good>FALSE</good>
					</logginginfo>
					<labels>
						<label2/>
					</labels>
					<comments>
						<mastercomment1/>
						<mastercomment2/>
						<mastercomment3/>
						<mastercomment4/>
					</comments>
					<file id="00700001 "/>
					<filter>
						<effect>
							<name>Audio Levels</name>
							<effectid>audiolevels</effectid>
							<effectcategory>audiolevels</effectcategory>
							<effecttype>audiolevels</effecttype>
							<mediatype>audio</mediatype>
							<parameter>
								<name>Level</name>
								<parameterid>level</parameterid>
								<valuemin>0</valuemin>
								<valuemax>3.98109</valuemax>
								<value>1.77828</value>
							</parameter>
						</effect>
					</filter>
					<filter>
						<effect>
							<name>Audio Pan</name>
							<effectid>audiopan</effectid>
							<effectcategory>audiopan</effectcategory>
							<effecttype>audiopan</effecttype>
							<mediatype>audio</mediatype>
							<parameter>
								<name>Pan</name>
								<parameterid>pan</parameterid>
								<valuemin>-1</valuemin>
								<valuemax>1</valuemax>
								<value>0</value>
							</parameter>
						</effect>
					</filter>
					<sourcetrack>
						<mediatype>audio</mediatype>
						<trackindex>2</trackindex>
					</sourcetrack>
					<link>
						<linkclipref>00700001.MOV4</linkclipref>
						<mediatype>video</mediatype>
						<trackindex>1</trackindex>
						<clipindex>19</clipindex>
					</link>
					<link>
						<linkclipref>00700001.MOV5</linkclipref>
						<mediatype>audio</mediatype>
						<trackindex>1</trackindex>
						<clipindex>11</clipindex>
					</link>
					<link>
						<linkclipref>00700001.MOV6</linkclipref>
						<mediatype>audio</mediatype>
						<trackindex>2</trackindex>
						<clipindex>11</clipindex>
					</link>
					<itemhistory>
						<uuid>4E2CD2B3-6EC9-46EE-BC7C-7409760A1B9B</uuid>
					</itemhistory>
				</clipitem>
				<clipitem id="00706001.MOV9">
					<name>00706001.MOV</name>
					<duration>1332</duration>
					<rate>
						<ntsc>FALSE</ntsc>
						<timebase>25</timebase>
					</rate>
					<in>612</in>
					<out>676</out>
					<start>2220</start>
					<end>2284</end>
					<subframeoffset>0</subframeoffset>
					<masterclipid>00706001.MOV1</masterclipid>
					<logginginfo>
						<scene/>
						<shottake/>
						<lognote/>
						<good>FALSE</good>
					</logginginfo>
					<labels>
						<label2/>
					</labels>
					<comments>
						<mastercomment1/>
						<mastercomment2/>
						<mastercomment3/>
						<mastercomment4/>
					</comments>
					<file id="00706001 "/>
					<filter>
						<effect>
							<name>Audio Levels</name>
							<effectid>audiolevels</effectid>
							<effectcategory>audiolevels</effectcategory>
							<effecttype>audiolevels</effecttype>
							<mediatype>audio</mediatype>
							<parameter>
								<name>Level</name>
								<parameterid>level</parameterid>
								<valuemin>0</valuemin>
								<valuemax>3.98109</valuemax>
								<value>1.77828</value>
							</parameter>
						</effect>
					</filter>
					<filter>
						<effect>
							<name>Audio Pan</name>
							<effectid>audiopan</effectid>
							<effectcategory>audiopan</effectcategory>
							<effecttype>audiopan</effecttype>
							<mediatype>audio</mediatype>
							<parameter>
								<name>Pan</name>
								<parameterid>pan</parameterid>
								<valuemin>-1</valuemin>
								<valuemax>1</valuemax>
								<value>0</value>
							</parameter>
						</effect>
					</filter>
					<sourcetrack>
						<mediatype>audio</mediatype>
						<trackindex>2</trackindex>
					</sourcetrack>
					<link>
						<linkclipref>00706001.MOV7</linkclipref>
						<mediatype>video</mediatype>
						<trackindex>2</trackindex>
						<clipindex>14</clipindex>
					</link>
					<link>
						<linkclipref>00706001.MOV8</linkclipref>
						<mediatype>audio</mediatype>
						<trackindex>1</trackindex>
						<clipindex>12</clipindex>
					</link>
					<link>
						<linkclipref>00706001.MOV9</linkclipref>
						<mediatype>audio</mediatype>
						<trackindex>2</trackindex>
						<clipindex>12</clipindex>
					</link>
					<itemhistory>
						<uuid>C8712395-C042-4DA1-8C8A-74E84AC2D77F</uuid>
					</itemhistory>
				</clipitem>
				<clipitem id="00700001.MOV9">
					<name>00700001.MOV</name>
					<duration>1404</duration>
					<rate>
						<ntsc>FALSE</ntsc>
						<timebase>25</timebase>
					</rate>
					<in>795</in>
					<out>912</out>
					<start>2284</start>
					<end>-1</end>
					<subframeoffset>0</subframeoffset>
					<masterclipid>00700001.MOV1</masterclipid>
					<logginginfo>
						<scene/>
						<shottake/>
						<lognote/>
						<good>FALSE</good>
					</logginginfo>
					<labels>
						<label2/>
					</labels>
					<comments>
						<mastercomment1/>
						<mastercomment2/>
						<mastercomment3/>
						<mastercomment4/>
					</comments>
					<file id="00700001 "/>
					<filter>
						<effect>
							<name>Audio Levels</name>
							<effectid>audiolevels</effectid>
							<effectcategory>audiolevels</effectcategory>
							<effecttype>audiolevels</effecttype>
							<mediatype>audio</mediatype>
							<parameter>
								<name>Level</name>
								<parameterid>level</parameterid>
								<valuemin>0</valuemin>
								<valuemax>3.98109</valuemax>
								<value>1.77828</value>
							</parameter>
						</effect>
					</filter>
					<filter>
						<effect>
							<name>Audio Pan</name>
							<effectid>audiopan</effectid>
							<effectcategory>audiopan</effectcategory>
							<effecttype>audiopan</effecttype>
							<mediatype>audio</mediatype>
							<parameter>
								<name>Pan</name>
								<parameterid>pan</parameterid>
								<valuemin>-1</valuemin>
								<valuemax>1</valuemax>
								<value>0</value>
							</parameter>
						</effect>
					</filter>
					<sourcetrack>
						<mediatype>audio</mediatype>
						<trackindex>2</trackindex>
					</sourcetrack>
					<link>
						<linkclipref>00700001.MOV7</linkclipref>
						<mediatype>video</mediatype>
						<trackindex>1</trackindex>
						<clipindex>20</clipindex>
					</link>
					<link>
						<linkclipref>00700001.MOV8</linkclipref>
						<mediatype>audio</mediatype>
						<trackindex>1</trackindex>
						<clipindex>13</clipindex>
					</link>
					<link>
						<linkclipref>00700001.MOV9</linkclipref>
						<mediatype>audio</mediatype>
						<trackindex>2</trackindex>
						<clipindex>13</clipindex>
					</link>
					<itemhistory>
						<uuid>C9D03056-5365-40A9-868C-669C64C17091</uuid>
					</itemhistory>
				</clipitem>
				<transitionitem>
					<rate>
						<ntsc>FALSE</ntsc>
						<timebase>25</timebase>
					</rate>
					<start>2394</start>
					<end>2401</end>
					<alignment>center</alignment>
					<effect>
						<name>Cross Fade (+3dB)</name>
						<effectid>KGAudioTransCrossFade3dB</effectid>
						<effecttype>transition</effecttype>
						<mediatype>audio</mediatype>
					</effect>
				</transitionitem>
				<clipitem id="00706001.MOV3">
					<name>00706001.MOV</name>
					<duration>1332</duration>
					<rate>
						<ntsc>FALSE</ntsc>
						<timebase>25</timebase>
					</rate>
					<in>784</in>
					<out>932</out>
					<start>-1</start>
					<end>2542</end>
					<subframeoffset>0</subframeoffset>
					<masterclipid>00706001.MOV1</masterclipid>
					<logginginfo>
						<scene/>
						<shottake/>
						<lognote/>
						<good>FALSE</good>
					</logginginfo>
					<labels>
						<label2/>
					</labels>
					<comments>
						<mastercomment1/>
						<mastercomment2/>
						<mastercomment3/>
						<mastercomment4/>
					</comments>
					<file id="00706001 "/>
					<filter>
						<effect>
							<name>Audio Levels</name>
							<effectid>audiolevels</effectid>
							<effectcategory>audiolevels</effectcategory>
							<effecttype>audiolevels</effecttype>
							<mediatype>audio</mediatype>
							<parameter>
								<name>Level</name>
								<parameterid>level</parameterid>
								<valuemin>0</valuemin>
								<valuemax>3.98109</valuemax>
								<value>1.77828</value>
							</parameter>
						</effect>
					</filter>
					<filter>
						<effect>
							<name>Audio Pan</name>
							<effectid>audiopan</effectid>
							<effectcategory>audiopan</effectcategory>
							<effecttype>audiopan</effecttype>
							<mediatype>audio</mediatype>
							<parameter>
								<name>Pan</name>
								<parameterid>pan</parameterid>
								<valuemin>-1</valuemin>
								<valuemax>1</valuemax>
								<value>0</value>
							</parameter>
						</effect>
					</filter>
					<sourcetrack>
						<mediatype>audio</mediatype>
						<trackindex>2</trackindex>
					</sourcetrack>
					<link>
						<linkclipref>00706001.MOV</linkclipref>
						<mediatype>video</mediatype>
						<trackindex>1</trackindex>
						<clipindex>21</clipindex>
					</link>
					<link>
						<linkclipref>00706001.MOV2</linkclipref>
						<mediatype>audio</mediatype>
						<trackindex>1</trackindex>
						<clipindex>15</clipindex>
					</link>
					<link>
						<linkclipref>00706001.MOV3</linkclipref>
						<mediatype>audio</mediatype>
						<trackindex>2</trackindex>
						<clipindex>15</clipindex>
					</link>
					<itemhistory>
						<uuid>B4A0E860-5BFD-4DBC-B42F-3A7EF2789D25</uuid>
					</itemhistory>
				</clipitem>
				<clipitem id="00702001.MOV3">
					<name>00702001.MOV</name>
					<duration>1668</duration>
					<rate>
						<ntsc>FALSE</ntsc>
						<timebase>25</timebase>
					</rate>
					<in>1169</in>
					<out>1355</out>
					<start>2542</start>
					<end>2728</end>
					<subframeoffset>0</subframeoffset>
					<enabled>TRUE</enabled>
					<masterclipid>00702001.MOV1</masterclipid>
					<logginginfo>
						<scene/>
						<shottake/>
						<lognote/>
						<good>FALSE</good>
					</logginginfo>
					<labels>
						<label2/>
					</labels>
					<comments>
						<mastercomment1/>
						<mastercomment2/>
						<mastercomment3/>
						<mastercomment4/>
					</comments>
					<file id="00702001 "/>
					<filter>
						<effect>
							<name>Audio Levels</name>
							<effectid>audiolevels</effectid>
							<effectcategory>audiolevels</effectcategory>
							<effecttype>audiolevels</effecttype>
							<mediatype>audio</mediatype>
							<parameter>
								<name>Level</name>
								<parameterid>level</parameterid>
								<valuemin>0</valuemin>
								<valuemax>3.98109</valuemax>
								<value>1.77828</value>
							</parameter>
						</effect>
					</filter>
					<filter>
						<effect>
							<name>Audio Pan</name>
							<effectid>audiopan</effectid>
							<effectcategory>audiopan</effectcategory>
							<effecttype>audiopan</effecttype>
							<mediatype>audio</mediatype>
							<parameter>
								<name>Pan</name>
								<parameterid>pan</parameterid>
								<valuemin>-1</valuemin>
								<valuemax>1</valuemax>
								<value>0</value>
							</parameter>
						</effect>
					</filter>
					<sourcetrack>
						<mediatype>audio</mediatype>
						<trackindex>2</trackindex>
					</sourcetrack>
					<link>
						<linkclipref>00702001.MOV</linkclipref>
						<mediatype>video</mediatype>
						<trackindex>1</trackindex>
						<clipindex>22</clipindex>
					</link>
					<link>
						<linkclipref>00702001.MOV2</linkclipref>
						<mediatype>audio</mediatype>
						<trackindex>1</trackindex>
						<clipindex>16</clipindex>
					</link>
					<link>
						<linkclipref>00702001.MOV3</linkclipref>
						<mediatype>audio</mediatype>
						<trackindex>2</trackindex>
						<clipindex>16</clipindex>
					</link>
					<itemhistory>
						<uuid>65E4CBEF-0511-4AA3-AABC-EB179C481BF3</uuid>
					</itemhistory>
				</clipitem>
				<clipitem id="00696001.MOV6">
					<name>00696001.MOV</name>
					<duration>1728</duration>
					<rate>
						<ntsc>FALSE</ntsc>
						<timebase>25</timebase>
					</rate>
					<in>1436</in>
					<out>1551</out>
					<start>2728</start>
					<end>2843</end>
					<subframeoffset>0</subframeoffset>
					<enabled>TRUE</enabled>
					<masterclipid>00696001.MOV1</masterclipid>
					<logginginfo>
						<scene/>
						<shottake/>
						<lognote/>
						<good>FALSE</good>
					</logginginfo>
					<labels>
						<label2/>
					</labels>
					<comments>
						<mastercomment1/>
						<mastercomment2/>
						<mastercomment3/>
						<mastercomment4/>
					</comments>
					<file id="00696001 "/>
					<filter>
						<effect>
							<name>Audio Levels</name>
							<effectid>audiolevels</effectid>
							<effectcategory>audiolevels</effectcategory>
							<effecttype>audiolevels</effecttype>
							<mediatype>audio</mediatype>
							<parameter>
								<name>Level</name>
								<parameterid>level</parameterid>
								<valuemin>0</valuemin>
								<valuemax>3.98109</valuemax>
								<value>1.77828</value>
							</parameter>
						</effect>
					</filter>
					<filter>
						<effect>
							<name>Audio Pan</name>
							<effectid>audiopan</effectid>
							<effectcategory>audiopan</effectcategory>
							<effecttype>audiopan</effecttype>
							<mediatype>audio</mediatype>
							<parameter>
								<name>Pan</name>
								<parameterid>pan</parameterid>
								<valuemin>-1</valuemin>
								<valuemax>1</valuemax>
								<value>0</value>
							</parameter>
						</effect>
					</filter>
					<sourcetrack>
						<mediatype>audio</mediatype>
						<trackindex>2</trackindex>
					</sourcetrack>
					<link>
						<linkclipref>00696001.MOV4</linkclipref>
						<mediatype>video</mediatype>
						<trackindex>1</trackindex>
						<clipindex>23</clipindex>
					</link>
					<link>
						<linkclipref>00696001.MOV5</linkclipref>
						<mediatype>audio</mediatype>
						<trackindex>1</trackindex>
						<clipindex>17</clipindex>
					</link>
					<link>
						<linkclipref>00696001.MOV6</linkclipref>
						<mediatype>audio</mediatype>
						<trackindex>2</trackindex>
						<clipindex>17</clipindex>
					</link>
					<itemhistory>
						<uuid>E7289A0A-BC9F-4F66-9152-4DB2B7298046</uuid>
					</itemhistory>
				</clipitem>
				<clipitem id="00706001.MOV6">
					<name>00706001.MOV</name>
					<duration>1332</duration>
					<rate>
						<ntsc>FALSE</ntsc>
						<timebase>25</timebase>
					</rate>
					<in>1171</in>
					<out>1241</out>
					<start>2843</start>
					<end>2913</end>
					<subframeoffset>0</subframeoffset>
					<masterclipid>00706001.MOV1</masterclipid>
					<logginginfo>
						<scene/>
						<shottake/>
						<lognote/>
						<good>FALSE</good>
					</logginginfo>
					<labels>
						<label2/>
					</labels>
					<comments>
						<mastercomment1/>
						<mastercomment2/>
						<mastercomment3/>
						<mastercomment4/>
					</comments>
					<file id="00706001 "/>
					<filter>
						<effect>
							<name>Audio Levels</name>
							<effectid>audiolevels</effectid>
							<effectcategory>audiolevels</effectcategory>
							<effecttype>audiolevels</effecttype>
							<mediatype>audio</mediatype>
							<parameter>
								<name>Level</name>
								<parameterid>level</parameterid>
								<valuemin>0</valuemin>
								<valuemax>3.98109</valuemax>
								<value>1.77828</value>
							</parameter>
						</effect>
					</filter>
					<filter>
						<effect>
							<name>Audio Pan</name>
							<effectid>audiopan</effectid>
							<effectcategory>audiopan</effectcategory>
							<effecttype>audiopan</effecttype>
							<mediatype>audio</mediatype>
							<parameter>
								<name>Pan</name>
								<parameterid>pan</parameterid>
								<valuemin>-1</valuemin>
								<valuemax>1</valuemax>
								<value>0</value>
							</parameter>
						</effect>
					</filter>
					<sourcetrack>
						<mediatype>audio</mediatype>
						<trackindex>2</trackindex>
					</sourcetrack>
					<link>
						<linkclipref>00706001.MOV4</linkclipref>
						<mediatype>video</mediatype>
						<trackindex>1</trackindex>
						<clipindex>24</clipindex>
					</link>
					<link>
						<linkclipref>00706001.MOV5</linkclipref>
						<mediatype>audio</mediatype>
						<trackindex>1</trackindex>
						<clipindex>18</clipindex>
					</link>
					<link>
						<linkclipref>00706001.MOV6</linkclipref>
						<mediatype>audio</mediatype>
						<trackindex>2</trackindex>
						<clipindex>18</clipindex>
					</link>
					<itemhistory>
						<uuid>34AB12A2-73D8-4059-B649-FFDC02B99DE5</uuid>
					</itemhistory>
				</clipitem>
				<clipitem id="00711001.MOV3">
					<name>00711001.MOV</name>
					<duration>948</duration>
					<rate>
						<ntsc>FALSE</ntsc>
						<timebase>25</timebase>
					</rate>
					<in>534</in>
					<out>797</out>
					<start>2913</start>
					<end>3176</end>
					<subframeoffset>0</subframeoffset>
					<masterclipid>00711001.MOV1</masterclipid>
					<logginginfo>
						<scene/>
						<shottake/>
						<lognote/>
						<good>FALSE</good>
					</logginginfo>
					<labels>
						<label2/>
					</labels>
					<comments>
						<mastercomment1/>
						<mastercomment2/>
						<mastercomment3/>
						<mastercomment4/>
					</comments>
					<file id="00711001 "/>
					<filter>
						<effect>
							<name>Audio Levels</name>
							<effectid>audiolevels</effectid>
							<effectcategory>audiolevels</effectcategory>
							<effecttype>audiolevels</effecttype>
							<mediatype>audio</mediatype>
							<parameter>
								<name>Level</name>
								<parameterid>level</parameterid>
								<valuemin>0</valuemin>
								<valuemax>3.98109</valuemax>
								<value>1.77828</value>
							</parameter>
						</effect>
					</filter>
					<filter>
						<effect>
							<name>Audio Pan</name>
							<effectid>audiopan</effectid>
							<effectcategory>audiopan</effectcategory>
							<effecttype>audiopan</effecttype>
							<mediatype>audio</mediatype>
							<parameter>
								<name>Pan</name>
								<parameterid>pan</parameterid>
								<valuemin>-1</valuemin>
								<valuemax>1</valuemax>
								<value>0</value>
							</parameter>
						</effect>
					</filter>
					<sourcetrack>
						<mediatype>audio</mediatype>
						<trackindex>2</trackindex>
					</sourcetrack>
					<link>
						<linkclipref>00711001.MOV</linkclipref>
						<mediatype>video</mediatype>
						<trackindex>1</trackindex>
						<clipindex>25</clipindex>
					</link>
					<link>
						<linkclipref>00711001.MOV2</linkclipref>
						<mediatype>audio</mediatype>
						<trackindex>1</trackindex>
						<clipindex>19</clipindex>
					</link>
					<link>
						<linkclipref>00711001.MOV3</linkclipref>
						<mediatype>audio</mediatype>
						<trackindex>2</trackindex>
						<clipindex>19</clipindex>
					</link>
					<itemhistory>
						<uuid>2605FE1F-C789-40B6-98EA-C27A13A80DE1</uuid>
					</itemhistory>
				</clipitem>
				<clipitem id="00720001.MOV2">
					<name>00720001.MOV</name>
					<duration>600</duration>
					<rate>
						<ntsc>FALSE</ntsc>
						<timebase>25</timebase>
					</rate>
					<in>168</in>
					<out>225</out>
					<start>3176</start>
					<end>-1</end>
					<subframeoffset>0</subframeoffset>
					<masterclipid>00720001.MOV1</masterclipid>
					<logginginfo>
						<scene/>
						<shottake/>
						<lognote/>
						<good>FALSE</good>
					</logginginfo>
					<labels>
						<label2/>
					</labels>
					<comments>
						<mastercomment1/>
						<mastercomment2/>
						<mastercomment3/>
						<mastercomment4/>
					</comments>
					<file id="00720001 "/>
					<filter>
						<effect>
							<name>Audio Levels</name>
							<effectid>audiolevels</effectid>
							<effectcategory>audiolevels</effectcategory>
							<effecttype>audiolevels</effecttype>
							<mediatype>audio</mediatype>
							<parameter>
								<name>Level</name>
								<parameterid>level</parameterid>
								<valuemin>0</valuemin>
								<valuemax>3.98109</valuemax>
								<value>1.77828</value>
							</parameter>
						</effect>
					</filter>
					<filter>
						<effect>
							<name>Audio Pan</name>
							<effectid>audiopan</effectid>
							<effectcategory>audiopan</effectcategory>
							<effecttype>audiopan</effecttype>
							<mediatype>audio</mediatype>
							<parameter>
								<name>Pan</name>
								<parameterid>pan</parameterid>
								<valuemin>-1</valuemin>
								<valuemax>1</valuemax>
								<value>0</value>
							</parameter>
						</effect>
					</filter>
					<sourcetrack>
						<mediatype>audio</mediatype>
						<trackindex>2</trackindex>
					</sourcetrack>
					<link>
						<linkclipref>00720001.MOV</linkclipref>
						<mediatype>audio</mediatype>
						<trackindex>1</trackindex>
						<clipindex>20</clipindex>
					</link>
					<link>
						<linkclipref>00720001.MOV2</linkclipref>
						<mediatype>audio</mediatype>
						<trackindex>2</trackindex>
						<clipindex>20</clipindex>
					</link>
					<itemhistory>
						<uuid>5AD72C8C-287E-45AF-96EA-E9645709C6E9</uuid>
					</itemhistory>
				</clipitem>
				<transitionitem>
					<rate>
						<ntsc>FALSE</ntsc>
						<timebase>25</timebase>
					</rate>
					<start>3226</start>
					<end>3233</end>
					<alignment>center</alignment>
					<effect>
						<name>Cross Fade (+3dB)</name>
						<effectid>KGAudioTransCrossFade3dB</effectid>
						<effecttype>transition</effecttype>
						<mediatype>audio</mediatype>
					</effect>
				</transitionitem>
				<clipitem id="00722001.MOV3">
					<name>00722001.MOV</name>
					<duration>1392</duration>
					<rate>
						<ntsc>FALSE</ntsc>
						<timebase>25</timebase>
					</rate>
					<in>419</in>
					<out>461</out>
					<start>-1</start>
					<end>3268</end>
					<subframeoffset>0</subframeoffset>
					<enabled>TRUE</enabled>
					<masterclipid>00722001.MOV1</masterclipid>
					<logginginfo>
						<scene/>
						<shottake/>
						<lognote/>
						<good>FALSE</good>
					</logginginfo>
					<labels>
						<label2/>
					</labels>
					<comments>
						<mastercomment1/>
						<mastercomment2/>
						<mastercomment3/>
						<mastercomment4/>
					</comments>
					<file id="00722001 "/>
					<filter>
						<effect>
							<name>Audio Levels</name>
							<effectid>audiolevels</effectid>
							<effectcategory>audiolevels</effectcategory>
							<effecttype>audiolevels</effecttype>
							<mediatype>audio</mediatype>
							<parameter>
								<name>Level</name>
								<parameterid>level</parameterid>
								<valuemin>0</valuemin>
								<valuemax>3.98109</valuemax>
								<value>1</value>
							</parameter>
						</effect>
					</filter>
					<filter>
						<effect>
							<name>Audio Pan</name>
							<effectid>audiopan</effectid>
							<effectcategory>audiopan</effectcategory>
							<effecttype>audiopan</effecttype>
							<mediatype>audio</mediatype>
							<parameter>
								<name>Pan</name>
								<parameterid>pan</parameterid>
								<valuemin>-1</valuemin>
								<valuemax>1</valuemax>
								<value>0</value>
							</parameter>
						</effect>
					</filter>
					<sourcetrack>
						<mediatype>audio</mediatype>
						<trackindex>2</trackindex>
					</sourcetrack>
					<link>
						<linkclipref>00722001.MOV</linkclipref>
						<mediatype>video</mediatype>
						<trackindex>1</trackindex>
						<clipindex>26</clipindex>
					</link>
					<link>
						<linkclipref>00722001.MOV2</linkclipref>
						<mediatype>audio</mediatype>
						<trackindex>1</trackindex>
						<clipindex>22</clipindex>
					</link>
					<link>
						<linkclipref>00722001.MOV3</linkclipref>
						<mediatype>audio</mediatype>
						<trackindex>2</trackindex>
						<clipindex>22</clipindex>
					</link>
					<itemhistory>
						<uuid>ACB188FC-F831-4544-B839-EF1685271291</uuid>
					</itemhistory>
				</clipitem>
				<clipitem id="00715001.MOV3">
					<name>00715001.MOV</name>
					<duration>3156</duration>
					<rate>
						<ntsc>FALSE</ntsc>
						<timebase>25</timebase>
					</rate>
					<in>230</in>
					<out>529</out>
					<start>3268</start>
					<end>3567</end>
					<subframeoffset>0</subframeoffset>
					<enabled>TRUE</enabled>
					<masterclipid>00715001.MOV1</masterclipid>
					<logginginfo>
						<scene/>
						<shottake/>
						<lognote/>
						<good>FALSE</good>
					</logginginfo>
					<labels>
						<label2/>
					</labels>
					<comments>
						<mastercomment1/>
						<mastercomment2/>
						<mastercomment3/>
						<mastercomment4/>
					</comments>
					<file id="00715001 "/>
					<filter>
						<effect>
							<name>Audio Levels</name>
							<effectid>audiolevels</effectid>
							<effectcategory>audiolevels</effectcategory>
							<effecttype>audiolevels</effecttype>
							<mediatype>audio</mediatype>
							<parameter>
								<name>Level</name>
								<parameterid>level</parameterid>
								<valuemin>0</valuemin>
								<valuemax>3.98109</valuemax>
								<value>1.77828</value>
							</parameter>
						</effect>
					</filter>
					<filter>
						<effect>
							<name>Audio Pan</name>
							<effectid>audiopan</effectid>
							<effectcategory>audiopan</effectcategory>
							<effecttype>audiopan</effecttype>
							<mediatype>audio</mediatype>
							<parameter>
								<name>Pan</name>
								<parameterid>pan</parameterid>
								<valuemin>-1</valuemin>
								<valuemax>1</valuemax>
								<value>0</value>
							</parameter>
						</effect>
					</filter>
					<sourcetrack>
						<mediatype>audio</mediatype>
						<trackindex>2</trackindex>
					</sourcetrack>
					<link>
						<linkclipref>00715001.MOV</linkclipref>
						<mediatype>video</mediatype>
						<trackindex>1</trackindex>
						<clipindex>27</clipindex>
					</link>
					<link>
						<linkclipref>00715001.MOV2</linkclipref>
						<mediatype>audio</mediatype>
						<trackindex>1</trackindex>
						<clipindex>23</clipindex>
					</link>
					<link>
						<linkclipref>00715001.MOV3</linkclipref>
						<mediatype>audio</mediatype>
						<trackindex>2</trackindex>
						<clipindex>23</clipindex>
					</link>
					<itemhistory>
						<uuid>B8B8290B-AB2C-4F2E-8D0E-6936D4F005A0</uuid>
					</itemhistory>
				</clipitem>
				<clipitem id="00718001.MOV3">
					<name>00718001.MOV</name>
					<duration>2232</duration>
					<rate>
						<ntsc>FALSE</ntsc>
						<timebase>25</timebase>
					</rate>
					<in>1059</in>
					<out>1135</out>
					<start>3567</start>
					<end>3643</end>
					<subframeoffset>0</subframeoffset>
					<enabled>TRUE</enabled>
					<masterclipid>00718001.MOV1</masterclipid>
					<logginginfo>
						<scene/>
						<shottake/>
						<lognote/>
						<good>FALSE</good>
					</logginginfo>
					<labels>
						<label2/>
					</labels>
					<comments>
						<mastercomment1/>
						<mastercomment2/>
						<mastercomment3/>
						<mastercomment4/>
					</comments>
					<file id="00718001 "/>
					<filter>
						<effect>
							<name>Audio Levels</name>
							<effectid>audiolevels</effectid>
							<effectcategory>audiolevels</effectcategory>
							<effecttype>audiolevels</effecttype>
							<mediatype>audio</mediatype>
							<parameter>
								<name>Level</name>
								<parameterid>level</parameterid>
								<valuemin>0</valuemin>
								<valuemax>3.98109</valuemax>
								<value>1.77828</value>
							</parameter>
						</effect>
					</filter>
					<filter>
						<effect>
							<name>Audio Pan</name>
							<effectid>audiopan</effectid>
							<effectcategory>audiopan</effectcategory>
							<effecttype>audiopan</effecttype>
							<mediatype>audio</mediatype>
							<parameter>
								<name>Pan</name>
								<parameterid>pan</parameterid>
								<valuemin>-1</valuemin>
								<valuemax>1</valuemax>
								<value>0</value>
							</parameter>
						</effect>
					</filter>
					<sourcetrack>
						<mediatype>audio</mediatype>
						<trackindex>2</trackindex>
					</sourcetrack>
					<link>
						<linkclipref>00718001.MOV</linkclipref>
						<mediatype>video</mediatype>
						<trackindex>1</trackindex>
						<clipindex>28</clipindex>
					</link>
					<link>
						<linkclipref>00718001.MOV2</linkclipref>
						<mediatype>audio</mediatype>
						<trackindex>1</trackindex>
						<clipindex>24</clipindex>
					</link>
					<link>
						<linkclipref>00718001.MOV3</linkclipref>
						<mediatype>audio</mediatype>
						<trackindex>2</trackindex>
						<clipindex>24</clipindex>
					</link>
					<itemhistory>
						<uuid>862279E3-591B-4A2D-B100-8AFA63ECBD07</uuid>
					</itemhistory>
				</clipitem>
				<clipitem id="00715001.MOV6">
					<name>00715001.MOV</name>
					<duration>3156</duration>
					<rate>
						<ntsc>FALSE</ntsc>
						<timebase>25</timebase>
					</rate>
					<in>1789</in>
					<out>1940</out>
					<start>3643</start>
					<end>3794</end>
					<subframeoffset>0</subframeoffset>
					<masterclipid>00715001.MOV1</masterclipid>
					<logginginfo>
						<scene/>
						<shottake/>
						<lognote/>
						<good>FALSE</good>
					</logginginfo>
					<labels>
						<label2/>
					</labels>
					<comments>
						<mastercomment1/>
						<mastercomment2/>
						<mastercomment3/>
						<mastercomment4/>
					</comments>
					<file id="00715001 "/>
					<filter>
						<effect>
							<name>Audio Levels</name>
							<effectid>audiolevels</effectid>
							<effectcategory>audiolevels</effectcategory>
							<effecttype>audiolevels</effecttype>
							<mediatype>audio</mediatype>
							<parameter>
								<name>Level</name>
								<parameterid>level</parameterid>
								<valuemin>0</valuemin>
								<valuemax>3.98109</valuemax>
								<value>1.77828</value>
							</parameter>
						</effect>
					</filter>
					<filter>
						<effect>
							<name>Audio Pan</name>
							<effectid>audiopan</effectid>
							<effectcategory>audiopan</effectcategory>
							<effecttype>audiopan</effecttype>
							<mediatype>audio</mediatype>
							<parameter>
								<name>Pan</name>
								<parameterid>pan</parameterid>
								<valuemin>-1</valuemin>
								<valuemax>1</valuemax>
								<value>0</value>
							</parameter>
						</effect>
					</filter>
					<sourcetrack>
						<mediatype>audio</mediatype>
						<trackindex>2</trackindex>
					</sourcetrack>
					<link>
						<linkclipref>00715001.MOV4</linkclipref>
						<mediatype>video</mediatype>
						<trackindex>1</trackindex>
						<clipindex>29</clipindex>
					</link>
					<link>
						<linkclipref>00715001.MOV5</linkclipref>
						<mediatype>audio</mediatype>
						<trackindex>1</trackindex>
						<clipindex>25</clipindex>
					</link>
					<link>
						<linkclipref>00715001.MOV6</linkclipref>
						<mediatype>audio</mediatype>
						<trackindex>2</trackindex>
						<clipindex>25</clipindex>
					</link>
					<itemhistory>
						<uuid>3926AD52-98A8-4044-870E-4BCAA151CB1B</uuid>
					</itemhistory>
				</clipitem>
				<clipitem id="00718001.MOV6">
					<name>00718001.MOV</name>
					<duration>2232</duration>
					<rate>
						<ntsc>FALSE</ntsc>
						<timebase>25</timebase>
					</rate>
					<in>1284</in>
					<out>1408</out>
					<start>3794</start>
					<end>3918</end>
					<subframeoffset>0</subframeoffset>
					<enabled>TRUE</enabled>
					<masterclipid>00718001.MOV1</masterclipid>
					<logginginfo>
						<scene/>
						<shottake/>
						<lognote/>
						<good>FALSE</good>
					</logginginfo>
					<labels>
						<label2/>
					</labels>
					<comments>
						<mastercomment1/>
						<mastercomment2/>
						<mastercomment3/>
						<mastercomment4/>
					</comments>
					<file id="00718001 "/>
					<filter>
						<effect>
							<name>Audio Levels</name>
							<effectid>audiolevels</effectid>
							<effectcategory>audiolevels</effectcategory>
							<effecttype>audiolevels</effecttype>
							<mediatype>audio</mediatype>
							<parameter>
								<name>Level</name>
								<parameterid>level</parameterid>
								<valuemin>0</valuemin>
								<valuemax>3.98109</valuemax>
								<value>1.77828</value>
							</parameter>
						</effect>
					</filter>
					<filter>
						<effect>
							<name>Audio Pan</name>
							<effectid>audiopan</effectid>
							<effectcategory>audiopan</effectcategory>
							<effecttype>audiopan</effecttype>
							<mediatype>audio</mediatype>
							<parameter>
								<name>Pan</name>
								<parameterid>pan</parameterid>
								<valuemin>-1</valuemin>
								<valuemax>1</valuemax>
								<value>0</value>
							</parameter>
						</effect>
					</filter>
					<sourcetrack>
						<mediatype>audio</mediatype>
						<trackindex>2</trackindex>
					</sourcetrack>
					<link>
						<linkclipref>00718001.MOV4</linkclipref>
						<mediatype>video</mediatype>
						<trackindex>1</trackindex>
						<clipindex>30</clipindex>
					</link>
					<link>
						<linkclipref>00718001.MOV5</linkclipref>
						<mediatype>audio</mediatype>
						<trackindex>1</trackindex>
						<clipindex>26</clipindex>
					</link>
					<link>
						<linkclipref>00718001.MOV6</linkclipref>
						<mediatype>audio</mediatype>
						<trackindex>2</trackindex>
						<clipindex>26</clipindex>
					</link>
					<itemhistory>
						<uuid>6F3D1DBA-FB81-43D2-A9BA-DB3D40C73369</uuid>
					</itemhistory>
				</clipitem>
				<clipitem id="00715001.MOV9">
					<name>00715001.MOV</name>
					<duration>3156</duration>
					<rate>
						<ntsc>FALSE</ntsc>
						<timebase>25</timebase>
					</rate>
					<in>2118</in>
					<out>2290</out>
					<start>3918</start>
					<end>4090</end>
					<subframeoffset>0</subframeoffset>
					<masterclipid>00715001.MOV1</masterclipid>
					<logginginfo>
						<scene/>
						<shottake/>
						<lognote/>
						<good>FALSE</good>
					</logginginfo>
					<labels>
						<label2/>
					</labels>
					<comments>
						<mastercomment1/>
						<mastercomment2/>
						<mastercomment3/>
						<mastercomment4/>
					</comments>
					<file id="00715001 "/>
					<filter>
						<effect>
							<name>Audio Levels</name>
							<effectid>audiolevels</effectid>
							<effectcategory>audiolevels</effectcategory>
							<effecttype>audiolevels</effecttype>
							<mediatype>audio</mediatype>
							<parameter>
								<name>Level</name>
								<parameterid>level</parameterid>
								<valuemin>0</valuemin>
								<valuemax>3.98109</valuemax>
								<value>1.77828</value>
							</parameter>
						</effect>
					</filter>
					<filter>
						<effect>
							<name>Audio Pan</name>
							<effectid>audiopan</effectid>
							<effectcategory>audiopan</effectcategory>
							<effecttype>audiopan</effecttype>
							<mediatype>audio</mediatype>
							<parameter>
								<name>Pan</name>
								<parameterid>pan</parameterid>
								<valuemin>-1</valuemin>
								<valuemax>1</valuemax>
								<value>0</value>
							</parameter>
						</effect>
					</filter>
					<sourcetrack>
						<mediatype>audio</mediatype>
						<trackindex>2</trackindex>
					</sourcetrack>
					<link>
						<linkclipref>00715001.MOV7</linkclipref>
						<mediatype>video</mediatype>
						<trackindex>1</trackindex>
						<clipindex>31</clipindex>
					</link>
					<link>
						<linkclipref>00715001.MOV8</linkclipref>
						<mediatype>audio</mediatype>
						<trackindex>1</trackindex>
						<clipindex>27</clipindex>
					</link>
					<link>
						<linkclipref>00715001.MOV9</linkclipref>
						<mediatype>audio</mediatype>
						<trackindex>2</trackindex>
						<clipindex>27</clipindex>
					</link>
					<itemhistory>
						<uuid>1C0D1A92-74C1-4962-8F6F-91AF79D5E6A0</uuid>
					</itemhistory>
				</clipitem>
				<clipitem id="00722001.MOV6">
					<name>00722001.MOV</name>
					<duration>1392</duration>
					<rate>
						<ntsc>FALSE</ntsc>
						<timebase>25</timebase>
					</rate>
					<in>663</in>
					<out>736</out>
					<start>4090</start>
					<end>-1</end>
					<subframeoffset>0</subframeoffset>
					<enabled>TRUE</enabled>
					<masterclipid>00722001.MOV1</masterclipid>
					<logginginfo>
						<scene/>
						<shottake/>
						<lognote/>
						<good>FALSE</good>
					</logginginfo>
					<labels>
						<label2/>
					</labels>
					<comments>
						<mastercomment1/>
						<mastercomment2/>
						<mastercomment3/>
						<mastercomment4/>
					</comments>
					<file id="00722001 "/>
					<filter>
						<effect>
							<name>Audio Levels</name>
							<effectid>audiolevels</effectid>
							<effectcategory>audiolevels</effectcategory>
							<effecttype>audiolevels</effecttype>
							<mediatype>audio</mediatype>
							<parameter>
								<name>Level</name>
								<parameterid>level</parameterid>
								<valuemin>0</valuemin>
								<valuemax>3.98109</valuemax>
								<value>1.77828</value>
							</parameter>
						</effect>
					</filter>
					<filter>
						<effect>
							<name>Audio Pan</name>
							<effectid>audiopan</effectid>
							<effectcategory>audiopan</effectcategory>
							<effecttype>audiopan</effecttype>
							<mediatype>audio</mediatype>
							<parameter>
								<name>Pan</name>
								<parameterid>pan</parameterid>
								<valuemin>-1</valuemin>
								<valuemax>1</valuemax>
								<value>0</value>
							</parameter>
						</effect>
					</filter>
					<sourcetrack>
						<mediatype>audio</mediatype>
						<trackindex>2</trackindex>
					</sourcetrack>
					<link>
						<linkclipref>00722001.MOV4</linkclipref>
						<mediatype>video</mediatype>
						<trackindex>1</trackindex>
						<clipindex>32</clipindex>
					</link>
					<link>
						<linkclipref>00722001.MOV5</linkclipref>
						<mediatype>audio</mediatype>
						<trackindex>1</trackindex>
						<clipindex>28</clipindex>
					</link>
					<link>
						<linkclipref>00722001.MOV6</linkclipref>
						<mediatype>audio</mediatype>
						<trackindex>2</trackindex>
						<clipindex>28</clipindex>
					</link>
					<itemhistory>
						<uuid>FEA1F65B-BC07-44C1-8BE7-E224507BF951</uuid>
					</itemhistory>
				</clipitem>
				<transitionitem>
					<rate>
						<ntsc>FALSE</ntsc>
						<timebase>25</timebase>
					</rate>
					<start>4158</start>
					<end>4163</end>
					<alignment>center</alignment>
					<effect>
						<name>Cross Fade (+3dB)</name>
						<effectid>KGAudioTransCrossFade3dB</effectid>
						<effecttype>transition</effecttype>
						<mediatype>audio</mediatype>
					</effect>
				</transitionitem>
				<clipitem id="00718001.MOV9">
					<name>00718001.MOV</name>
					<duration>2232</duration>
					<rate>
						<ntsc>FALSE</ntsc>
						<timebase>25</timebase>
					</rate>
					<in>1601</in>
					<out>1867</out>
					<start>-1</start>
					<end>4424</end>
					<subframeoffset>0</subframeoffset>
					<enabled>TRUE</enabled>
					<masterclipid>00718001.MOV1</masterclipid>
					<logginginfo>
						<scene/>
						<shottake/>
						<lognote/>
						<good>FALSE</good>
					</logginginfo>
					<labels>
						<label2/>
					</labels>
					<comments>
						<mastercomment1/>
						<mastercomment2/>
						<mastercomment3/>
						<mastercomment4/>
					</comments>
					<file id="00718001 "/>
					<filter>
						<effect>
							<name>Audio Levels</name>
							<effectid>audiolevels</effectid>
							<effectcategory>audiolevels</effectcategory>
							<effecttype>audiolevels</effecttype>
							<mediatype>audio</mediatype>
							<parameter>
								<name>Level</name>
								<parameterid>level</parameterid>
								<valuemin>0</valuemin>
								<valuemax>3.98109</valuemax>
								<value>1.77828</value>
							</parameter>
						</effect>
					</filter>
					<filter>
						<effect>
							<name>Audio Pan</name>
							<effectid>audiopan</effectid>
							<effectcategory>audiopan</effectcategory>
							<effecttype>audiopan</effecttype>
							<mediatype>audio</mediatype>
							<parameter>
								<name>Pan</name>
								<parameterid>pan</parameterid>
								<valuemin>-1</valuemin>
								<valuemax>1</valuemax>
								<value>0</value>
							</parameter>
						</effect>
					</filter>
					<sourcetrack>
						<mediatype>audio</mediatype>
						<trackindex>2</trackindex>
					</sourcetrack>
					<link>
						<linkclipref>00718001.MOV7</linkclipref>
						<mediatype>video</mediatype>
						<trackindex>1</trackindex>
						<clipindex>33</clipindex>
					</link>
					<link>
						<linkclipref>00718001.MOV8</linkclipref>
						<mediatype>audio</mediatype>
						<trackindex>1</trackindex>
						<clipindex>30</clipindex>
					</link>
					<link>
						<linkclipref>00718001.MOV9</linkclipref>
						<mediatype>audio</mediatype>
						<trackindex>2</trackindex>
						<clipindex>30</clipindex>
					</link>
					<itemhistory>
						<uuid>A1B2449E-16DE-458B-8373-6D93F62CAA69</uuid>
					</itemhistory>
				</clipitem>
				<clipitem id="00715001.MOV12">
					<name>00715001.MOV</name>
					<duration>3156</duration>
					<rate>
						<ntsc>FALSE</ntsc>
						<timebase>25</timebase>
					</rate>
					<in>2720</in>
					<out>3057</out>
					<start>4424</start>
					<end>4761</end>
					<subframeoffset>0</subframeoffset>
					<enabled>TRUE</enabled>
					<masterclipid>00715001.MOV1</masterclipid>
					<logginginfo>
						<scene/>
						<shottake/>
						<lognote/>
						<good>FALSE</good>
					</logginginfo>
					<labels>
						<label2/>
					</labels>
					<comments>
						<mastercomment1/>
						<mastercomment2/>
						<mastercomment3/>
						<mastercomment4/>
					</comments>
					<file id="00715001 "/>
					<filter>
						<effect>
							<name>Audio Levels</name>
							<effectid>audiolevels</effectid>
							<effectcategory>audiolevels</effectcategory>
							<effecttype>audiolevels</effecttype>
							<mediatype>audio</mediatype>
							<parameter>
								<name>Level</name>
								<parameterid>level</parameterid>
								<valuemin>0</valuemin>
								<valuemax>3.98109</valuemax>
								<value>1.77828</value>
							</parameter>
						</effect>
					</filter>
					<filter>
						<effect>
							<name>Audio Pan</name>
							<effectid>audiopan</effectid>
							<effectcategory>audiopan</effectcategory>
							<effecttype>audiopan</effecttype>
							<mediatype>audio</mediatype>
							<parameter>
								<name>Pan</name>
								<parameterid>pan</parameterid>
								<valuemin>-1</valuemin>
								<valuemax>1</valuemax>
								<value>0</value>
							</parameter>
						</effect>
					</filter>
					<sourcetrack>
						<mediatype>audio</mediatype>
						<trackindex>2</trackindex>
					</sourcetrack>
					<link>
						<linkclipref>00715001.MOV10</linkclipref>
						<mediatype>video</mediatype>
						<trackindex>1</trackindex>
						<clipindex>34</clipindex>
					</link>
					<link>
						<linkclipref>00715001.MOV11</linkclipref>
						<mediatype>audio</mediatype>
						<trackindex>1</trackindex>
						<clipindex>31</clipindex>
					</link>
					<link>
						<linkclipref>00715001.MOV12</linkclipref>
						<mediatype>audio</mediatype>
						<trackindex>2</trackindex>
						<clipindex>31</clipindex>
					</link>
					<itemhistory>
						<uuid>7FCF6583-CD10-4F04-BFBC-9F453BE24A75</uuid>
					</itemhistory>
				</clipitem>
				<clipitem id="DYR18071_01 4">
					<name>DYR18071_01</name>
					<duration>610</duration>
					<rate>
						<ntsc>FALSE</ntsc>
						<timebase>25</timebase>
					</rate>
					<in>302</in>
					<out>337</out>
					<start>4761</start>
					<end>4796</end>
					<subframeoffset>0</subframeoffset>
					<masterclipid>DYR18071_01 1</masterclipid>
					<logginginfo>
						<scene/>
						<shottake/>
						<lognote/>
						<good>FALSE</good>
					</logginginfo>
					<labels>
						<label2/>
					</labels>
					<comments>
						<mastercomment1/>
						<mastercomment2/>
						<mastercomment3/>
						<mastercomment4/>
					</comments>
					<file id="DYR18071_01 2"/>
					<filter>
						<effect>
							<name>Audio Levels</name>
							<effectid>audiolevels</effectid>
							<effectcategory>audiolevels</effectcategory>
							<effecttype>audiolevels</effecttype>
							<mediatype>audio</mediatype>
							<parameter>
								<name>Level</name>
								<parameterid>level</parameterid>
								<valuemin>0</valuemin>
								<valuemax>3.98109</valuemax>
								<value>0</value>
							</parameter>
						</effect>
					</filter>
					<filter>
						<effect>
							<name>Audio Pan</name>
							<effectid>audiopan</effectid>
							<effectcategory>audiopan</effectcategory>
							<effecttype>audiopan</effecttype>
							<mediatype>audio</mediatype>
							<parameter>
								<name>Pan</name>
								<parameterid>pan</parameterid>
								<valuemin>-1</valuemin>
								<valuemax>1</valuemax>
								<value>0</value>
							</parameter>
						</effect>
					</filter>
					<sourcetrack>
						<mediatype>audio</mediatype>
						<trackindex>2</trackindex>
					</sourcetrack>
					<link>
						<linkclipref>DYR18071_01 </linkclipref>
						<mediatype>video</mediatype>
						<trackindex>1</trackindex>
						<clipindex>36</clipindex>
					</link>
					<link>
						<linkclipref>DYR18071_01 3</linkclipref>
						<mediatype>audio</mediatype>
						<trackindex>1</trackindex>
						<clipindex>32</clipindex>
					</link>
					<link>
						<linkclipref>DYR18071_01 4</linkclipref>
						<mediatype>audio</mediatype>
						<trackindex>2</trackindex>
						<clipindex>32</clipindex>
					</link>
					<itemhistory>
						<uuid>7AB7E042-68A5-46C9-BC6D-392FE3D3B260</uuid>
					</itemhistory>
				</clipitem>
				<transitionitem>
					<rate>
						<ntsc>FALSE</ntsc>
						<timebase>25</timebase>
					</rate>
					<start>4842</start>
					<end>4849</end>
					<alignment>start-black</alignment>
					<effect>
						<name>Cross Fade (+3dB)</name>
						<effectid>KGAudioTransCrossFade3dB</effectid>
						<effecttype>transition</effecttype>
						<mediatype>audio</mediatype>
					</effect>
				</transitionitem>
				<clipitem id="DYR18058_01 4">
					<name>DYR18058_01</name>
					<duration>579</duration>
					<rate>
						<ntsc>FALSE</ntsc>
						<timebase>25</timebase>
					</rate>
					<in>288</in>
					<out>373</out>
					<start>-1</start>
					<end>4927</end>
					<subframeoffset>0</subframeoffset>
					<enabled>TRUE</enabled>
					<masterclipid>DYR18058_01 1</masterclipid>
					<logginginfo>
						<scene/>
						<shottake/>
						<lognote/>
						<good>FALSE</good>
					</logginginfo>
					<labels>
						<label2/>
					</labels>
					<comments>
						<mastercomment1/>
						<mastercomment2/>
						<mastercomment3/>
						<mastercomment4/>
					</comments>
					<file id="DYR18058_01 2"/>
					<filter>
						<enabled>TRUE</enabled>
						<start>-1</start>
						<end>-1</end>
						<effect>
							<name>Gain</name>
							<effectid>{61756678, 4761696e, 4b657947}</effectid>
							<effecttype>filter</effecttype>
							<mediatype>audio</mediatype>
							<parameter>
								<parameterid>Gain(dB)</parameterid>
								<parameterspecifier>0:0:0</parameterspecifier>
								<name>Gain(dB)</name>
								<valuemin>-96</valuemin>
								<valuemax>96</valuemax>
								<value>7</value>
							</parameter>
						</effect>
					</filter>
					<filter>
						<effect>
							<name>Audio Levels</name>
							<effectid>audiolevels</effectid>
							<effectcategory>audiolevels</effectcategory>
							<effecttype>audiolevels</effecttype>
							<mediatype>audio</mediatype>
							<parameter>
								<name>Level</name>
								<parameterid>level</parameterid>
								<valuemin>0</valuemin>
								<valuemax>3.98109</valuemax>
								<value>3.98107</value>
							</parameter>
						</effect>
					</filter>
					<filter>
						<effect>
							<name>Audio Pan</name>
							<effectid>audiopan</effectid>
							<effectcategory>audiopan</effectcategory>
							<effecttype>audiopan</effecttype>
							<mediatype>audio</mediatype>
							<parameter>
								<name>Pan</name>
								<parameterid>pan</parameterid>
								<valuemin>-1</valuemin>
								<valuemax>1</valuemax>
								<value>0</value>
							</parameter>
						</effect>
					</filter>
					<sourcetrack>
						<mediatype>audio</mediatype>
						<trackindex>2</trackindex>
					</sourcetrack>
					<link>
						<linkclipref>DYR18058_01 </linkclipref>
						<mediatype>video</mediatype>
						<trackindex>1</trackindex>
						<clipindex>37</clipindex>
					</link>
					<link>
						<linkclipref>DYR18058_01 3</linkclipref>
						<mediatype>audio</mediatype>
						<trackindex>1</trackindex>
						<clipindex>34</clipindex>
					</link>
					<link>
						<linkclipref>DYR18058_01 4</linkclipref>
						<mediatype>audio</mediatype>
						<trackindex>2</trackindex>
						<clipindex>34</clipindex>
					</link>
					<itemhistory>
						<uuid>6B1505AC-28D3-46C6-AB4C-9BF8A7B15E06</uuid>
					</itemhistory>
				</clipitem>
				<clipitem id="DYR18071_01 7">
					<name>DYR18071_01</name>
					<duration>610</duration>
					<rate>
						<ntsc>FALSE</ntsc>
						<timebase>25</timebase>
					</rate>
					<in>85</in>
					<out>128</out>
					<start>4927</start>
					<end>4970</end>
					<subframeoffset>0</subframeoffset>
					<enabled>TRUE</enabled>
					<masterclipid>DYR18071_01 1</masterclipid>
					<logginginfo>
						<scene/>
						<shottake/>
						<lognote/>
						<good>FALSE</good>
					</logginginfo>
					<labels>
						<label2/>
					</labels>
					<comments>
						<mastercomment1/>
						<mastercomment2/>
						<mastercomment3/>
						<mastercomment4/>
					</comments>
					<file id="DYR18071_01 2"/>
					<filter>
						<effect>
							<name>Audio Levels</name>
							<effectid>audiolevels</effectid>
							<effectcategory>audiolevels</effectcategory>
							<effecttype>audiolevels</effecttype>
							<mediatype>audio</mediatype>
							<parameter>
								<name>Level</name>
								<parameterid>level</parameterid>
								<valuemin>0</valuemin>
								<valuemax>3.98109</valuemax>
								<value>0</value>
							</parameter>
						</effect>
					</filter>
					<filter>
						<effect>
							<name>Audio Pan</name>
							<effectid>audiopan</effectid>
							<effectcategory>audiopan</effectcategory>
							<effecttype>audiopan</effecttype>
							<mediatype>audio</mediatype>
							<parameter>
								<name>Pan</name>
								<parameterid>pan</parameterid>
								<valuemin>-1</valuemin>
								<valuemax>1</valuemax>
								<value>0</value>
							</parameter>
						</effect>
					</filter>
					<sourcetrack>
						<mediatype>audio</mediatype>
						<trackindex>2</trackindex>
					</sourcetrack>
					<link>
						<linkclipref>DYR18071_01 5</linkclipref>
						<mediatype>video</mediatype>
						<trackindex>1</trackindex>
						<clipindex>38</clipindex>
					</link>
					<link>
						<linkclipref>DYR18071_01 6</linkclipref>
						<mediatype>audio</mediatype>
						<trackindex>1</trackindex>
						<clipindex>35</clipindex>
					</link>
					<link>
						<linkclipref>DYR18071_01 7</linkclipref>
						<mediatype>audio</mediatype>
						<trackindex>2</trackindex>
						<clipindex>35</clipindex>
					</link>
					<itemhistory>
						<uuid>DF869EC1-9CB2-4C85-817F-362FBFD712C6</uuid>
					</itemhistory>
				</clipitem>
				<clipitem id="DYR18064_01 4">
					<name>DYR18064_01</name>
					<duration>757</duration>
					<rate>
						<ntsc>FALSE</ntsc>
						<timebase>25</timebase>
					</rate>
					<in>148</in>
					<out>200</out>
					<start>4970</start>
					<end>5022</end>
					<subframeoffset>0</subframeoffset>
					<enabled>TRUE</enabled>
					<masterclipid>DYR18064_01 1</masterclipid>
					<logginginfo>
						<scene/>
						<shottake/>
						<lognote/>
						<good>FALSE</good>
					</logginginfo>
					<labels>
						<label2/>
					</labels>
					<comments>
						<mastercomment1/>
						<mastercomment2/>
						<mastercomment3/>
						<mastercomment4/>
					</comments>
					<file id="DYR18064_01 2"/>
					<filter>
						<effect>
							<name>Audio Levels</name>
							<effectid>audiolevels</effectid>
							<effectcategory>audiolevels</effectcategory>
							<effecttype>audiolevels</effecttype>
							<mediatype>audio</mediatype>
							<parameter>
								<name>Level</name>
								<parameterid>level</parameterid>
								<valuemin>0</valuemin>
								<valuemax>3.98109</valuemax>
								<value>0</value>
							</parameter>
						</effect>
					</filter>
					<filter>
						<effect>
							<name>Audio Pan</name>
							<effectid>audiopan</effectid>
							<effectcategory>audiopan</effectcategory>
							<effecttype>audiopan</effecttype>
							<mediatype>audio</mediatype>
							<parameter>
								<name>Pan</name>
								<parameterid>pan</parameterid>
								<valuemin>-1</valuemin>
								<valuemax>1</valuemax>
								<value>0</value>
							</parameter>
						</effect>
					</filter>
					<sourcetrack>
						<mediatype>audio</mediatype>
						<trackindex>2</trackindex>
					</sourcetrack>
					<link>
						<linkclipref>DYR18064_01 </linkclipref>
						<mediatype>video</mediatype>
						<trackindex>1</trackindex>
						<clipindex>39</clipindex>
					</link>
					<link>
						<linkclipref>DYR18064_01 3</linkclipref>
						<mediatype>audio</mediatype>
						<trackindex>1</trackindex>
						<clipindex>36</clipindex>
					</link>
					<link>
						<linkclipref>DYR18064_01 4</linkclipref>
						<mediatype>audio</mediatype>
						<trackindex>2</trackindex>
						<clipindex>36</clipindex>
					</link>
					<itemhistory>
						<uuid>FB20C55F-BBD1-41B9-AB06-D7586BB3E224</uuid>
					</itemhistory>
				</clipitem>
				<clipitem id="DYR18047_01 4">
					<name>DYR18047_01</name>
					<duration>1523</duration>
					<rate>
						<ntsc>FALSE</ntsc>
						<timebase>25</timebase>
					</rate>
					<in>487</in>
					<out>523</out>
					<start>5049</start>
					<end>5085</end>
					<subframeoffset>0</subframeoffset>
					<masterclipid>DYR18047_01 1</masterclipid>
					<logginginfo>
						<scene/>
						<shottake/>
						<lognote/>
						<good>FALSE</good>
					</logginginfo>
					<labels>
						<label2/>
					</labels>
					<comments>
						<mastercomment1/>
						<mastercomment2/>
						<mastercomment3/>
						<mastercomment4/>
					</comments>
					<file id="DYR18047_01 2"/>
					<filter>
						<effect>
							<name>Audio Levels</name>
							<effectid>audiolevels</effectid>
							<effectcategory>audiolevels</effectcategory>
							<effecttype>audiolevels</effecttype>
							<mediatype>audio</mediatype>
							<parameter>
								<name>Level</name>
								<parameterid>level</parameterid>
								<valuemin>0</valuemin>
								<valuemax>3.98109</valuemax>
								<value>0.630957</value>
							</parameter>
						</effect>
					</filter>
					<filter>
						<effect>
							<name>Audio Pan</name>
							<effectid>audiopan</effectid>
							<effectcategory>audiopan</effectcategory>
							<effecttype>audiopan</effecttype>
							<mediatype>audio</mediatype>
							<parameter>
								<name>Pan</name>
								<parameterid>pan</parameterid>
								<valuemin>-1</valuemin>
								<valuemax>1</valuemax>
								<value>0</value>
							</parameter>
						</effect>
					</filter>
					<sourcetrack>
						<mediatype>audio</mediatype>
						<trackindex>2</trackindex>
					</sourcetrack>
					<link>
						<linkclipref>DYR18047_01 </linkclipref>
						<mediatype>video</mediatype>
						<trackindex>1</trackindex>
						<clipindex>41</clipindex>
					</link>
					<link>
						<linkclipref>DYR18047_01 3</linkclipref>
						<mediatype>audio</mediatype>
						<trackindex>1</trackindex>
						<clipindex>37</clipindex>
					</link>
					<link>
						<linkclipref>DYR18047_01 4</linkclipref>
						<mediatype>audio</mediatype>
						<trackindex>2</trackindex>
						<clipindex>37</clipindex>
					</link>
					<itemhistory>
						<uuid>5272C535-9FE1-431D-B7AD-D6560491B320</uuid>
					</itemhistory>
				</clipitem>
				<clipitem id="DYR18047_01 7">
					<name>DYR18047_01</name>
					<duration>1523</duration>
					<rate>
						<ntsc>FALSE</ntsc>
						<timebase>25</timebase>
					</rate>
					<in>286</in>
					<out>323</out>
					<start>5086</start>
					<end>5123</end>
					<subframeoffset>0</subframeoffset>
					<enabled>TRUE</enabled>
					<masterclipid>DYR18047_01 1</masterclipid>
					<logginginfo>
						<scene/>
						<shottake/>
						<lognote/>
						<good>FALSE</good>
					</logginginfo>
					<labels>
						<label2/>
					</labels>
					<comments>
						<mastercomment1/>
						<mastercomment2/>
						<mastercomment3/>
						<mastercomment4/>
					</comments>
					<file id="DYR18047_01 2"/>
					<filter>
						<effect>
							<name>Audio Levels</name>
							<effectid>audiolevels</effectid>
							<effectcategory>audiolevels</effectcategory>
							<effecttype>audiolevels</effecttype>
							<mediatype>audio</mediatype>
							<parameter>
								<name>Level</name>
								<parameterid>level</parameterid>
								<valuemin>0</valuemin>
								<valuemax>3.98109</valuemax>
								<value>0</value>
							</parameter>
						</effect>
					</filter>
					<filter>
						<effect>
							<name>Audio Pan</name>
							<effectid>audiopan</effectid>
							<effectcategory>audiopan</effectcategory>
							<effecttype>audiopan</effecttype>
							<mediatype>audio</mediatype>
							<parameter>
								<name>Pan</name>
								<parameterid>pan</parameterid>
								<valuemin>-1</valuemin>
								<valuemax>1</valuemax>
								<value>0</value>
							</parameter>
						</effect>
					</filter>
					<sourcetrack>
						<mediatype>audio</mediatype>
						<trackindex>2</trackindex>
					</sourcetrack>
					<link>
						<linkclipref>DYR18047_01 5</linkclipref>
						<mediatype>video</mediatype>
						<trackindex>1</trackindex>
						<clipindex>42</clipindex>
					</link>
					<link>
						<linkclipref>DYR18047_01 6</linkclipref>
						<mediatype>audio</mediatype>
						<trackindex>1</trackindex>
						<clipindex>38</clipindex>
					</link>
					<link>
						<linkclipref>DYR18047_01 7</linkclipref>
						<mediatype>audio</mediatype>
						<trackindex>2</trackindex>
						<clipindex>38</clipindex>
					</link>
					<itemhistory>
						<uuid>399FBDBF-1FB3-4922-8C00-2B2762D13FE6</uuid>
					</itemhistory>
				</clipitem>
				<clipitem id="DYR18047_01 10">
					<name>DYR18047_01</name>
					<duration>1523</duration>
					<rate>
						<ntsc>FALSE</ntsc>
						<timebase>25</timebase>
					</rate>
					<in>1284</in>
					<out>1347</out>
					<start>5123</start>
					<end>5186</end>
					<subframeoffset>0</subframeoffset>
					<enabled>TRUE</enabled>
					<masterclipid>DYR18047_01 1</masterclipid>
					<logginginfo>
						<scene/>
						<shottake/>
						<lognote/>
						<good>FALSE</good>
					</logginginfo>
					<labels>
						<label2/>
					</labels>
					<comments>
						<mastercomment1/>
						<mastercomment2/>
						<mastercomment3/>
						<mastercomment4/>
					</comments>
					<file id="DYR18047_01 2"/>
					<filter>
						<effect>
							<name>Audio Levels</name>
							<effectid>audiolevels</effectid>
							<effectcategory>audiolevels</effectcategory>
							<effecttype>audiolevels</effecttype>
							<mediatype>audio</mediatype>
							<parameter>
								<name>Level</name>
								<parameterid>level</parameterid>
								<valuemin>0</valuemin>
								<valuemax>3.98109</valuemax>
								<value>1</value>
							</parameter>
						</effect>
					</filter>
					<filter>
						<effect>
							<name>Audio Pan</name>
							<effectid>audiopan</effectid>
							<effectcategory>audiopan</effectcategory>
							<effecttype>audiopan</effecttype>
							<mediatype>audio</mediatype>
							<parameter>
								<name>Pan</name>
								<parameterid>pan</parameterid>
								<valuemin>-1</valuemin>
								<valuemax>1</valuemax>
								<value>0</value>
							</parameter>
						</effect>
					</filter>
					<sourcetrack>
						<mediatype>audio</mediatype>
						<trackindex>2</trackindex>
					</sourcetrack>
					<link>
						<linkclipref>DYR18047_01 8</linkclipref>
						<mediatype>video</mediatype>
						<trackindex>1</trackindex>
						<clipindex>43</clipindex>
					</link>
					<link>
						<linkclipref>DYR18047_01 9</linkclipref>
						<mediatype>audio</mediatype>
						<trackindex>1</trackindex>
						<clipindex>39</clipindex>
					</link>
					<link>
						<linkclipref>DYR18047_01 10</linkclipref>
						<mediatype>audio</mediatype>
						<trackindex>2</trackindex>
						<clipindex>39</clipindex>
					</link>
					<itemhistory>
						<uuid>796F736D-20E5-46BD-A3AD-F5261209E9A3</uuid>
					</itemhistory>
				</clipitem>
				<clipitem id="DYR18050_01 4">
					<name>DYR18050_01</name>
					<duration>482</duration>
					<rate>
						<ntsc>FALSE</ntsc>
						<timebase>25</timebase>
					</rate>
					<in>212</in>
					<out>272</out>
					<start>5186</start>
					<end>5246</end>
					<subframeoffset>0</subframeoffset>
					<enabled>TRUE</enabled>
					<masterclipid>DYR18050_01 1</masterclipid>
					<logginginfo>
						<scene/>
						<shottake/>
						<lognote/>
						<good>FALSE</good>
					</logginginfo>
					<labels>
						<label2/>
					</labels>
					<comments>
						<mastercomment1/>
						<mastercomment2/>
						<mastercomment3/>
						<mastercomment4/>
					</comments>
					<file id="DYR18050_01 2"/>
					<filter>
						<effect>
							<name>Audio Levels</name>
							<effectid>audiolevels</effectid>
							<effectcategory>audiolevels</effectcategory>
							<effecttype>audiolevels</effecttype>
							<mediatype>audio</mediatype>
							<parameter>
								<name>Level</name>
								<parameterid>level</parameterid>
								<valuemin>0</valuemin>
								<valuemax>3.98109</valuemax>
								<value>1</value>
							</parameter>
						</effect>
					</filter>
					<filter>
						<effect>
							<name>Audio Pan</name>
							<effectid>audiopan</effectid>
							<effectcategory>audiopan</effectcategory>
							<effecttype>audiopan</effecttype>
							<mediatype>audio</mediatype>
							<parameter>
								<name>Pan</name>
								<parameterid>pan</parameterid>
								<valuemin>-1</valuemin>
								<valuemax>1</valuemax>
								<value>0</value>
							</parameter>
						</effect>
					</filter>
					<sourcetrack>
						<mediatype>audio</mediatype>
						<trackindex>2</trackindex>
					</sourcetrack>
					<link>
						<linkclipref>DYR18050_01 </linkclipref>
						<mediatype>video</mediatype>
						<trackindex>1</trackindex>
						<clipindex>44</clipindex>
					</link>
					<link>
						<linkclipref>DYR18050_01 3</linkclipref>
						<mediatype>audio</mediatype>
						<trackindex>1</trackindex>
						<clipindex>40</clipindex>
					</link>
					<link>
						<linkclipref>DYR18050_01 4</linkclipref>
						<mediatype>audio</mediatype>
						<trackindex>2</trackindex>
						<clipindex>40</clipindex>
					</link>
					<itemhistory>
						<uuid>39133830-DF33-4EE8-932F-438A285E2CFA</uuid>
					</itemhistory>
				</clipitem>
				<clipitem id="DYR18044_01 4">
					<name>DYR18044_01</name>
					<duration>941</duration>
					<rate>
						<ntsc>FALSE</ntsc>
						<timebase>25</timebase>
					</rate>
					<in>126</in>
					<out>179</out>
					<start>5246</start>
					<end>5299</end>
					<subframeoffset>0</subframeoffset>
					<masterclipid>DYR18044_01 1</masterclipid>
					<logginginfo>
						<scene/>
						<shottake/>
						<lognote/>
						<good>FALSE</good>
					</logginginfo>
					<labels>
						<label2/>
					</labels>
					<comments>
						<mastercomment1/>
						<mastercomment2/>
						<mastercomment3/>
						<mastercomment4/>
					</comments>
					<file id="DYR18044_01 2"/>
					<filter>
						<effect>
							<name>Audio Levels</name>
							<effectid>audiolevels</effectid>
							<effectcategory>audiolevels</effectcategory>
							<effecttype>audiolevels</effecttype>
							<mediatype>audio</mediatype>
							<parameter>
								<name>Level</name>
								<parameterid>level</parameterid>
								<valuemin>0</valuemin>
								<valuemax>3.98109</valuemax>
								<value>1</value>
							</parameter>
						</effect>
					</filter>
					<filter>
						<effect>
							<name>Audio Pan</name>
							<effectid>audiopan</effectid>
							<effectcategory>audiopan</effectcategory>
							<effecttype>audiopan</effecttype>
							<mediatype>audio</mediatype>
							<parameter>
								<name>Pan</name>
								<parameterid>pan</parameterid>
								<valuemin>-1</valuemin>
								<valuemax>1</valuemax>
								<value>0</value>
							</parameter>
						</effect>
					</filter>
					<sourcetrack>
						<mediatype>audio</mediatype>
						<trackindex>2</trackindex>
					</sourcetrack>
					<link>
						<linkclipref>DYR18044_01 </linkclipref>
						<mediatype>video</mediatype>
						<trackindex>1</trackindex>
						<clipindex>45</clipindex>
					</link>
					<link>
						<linkclipref>DYR18044_01 3</linkclipref>
						<mediatype>audio</mediatype>
						<trackindex>1</trackindex>
						<clipindex>41</clipindex>
					</link>
					<link>
						<linkclipref>DYR18044_01 4</linkclipref>
						<mediatype>audio</mediatype>
						<trackindex>2</trackindex>
						<clipindex>41</clipindex>
					</link>
					<itemhistory>
						<uuid>2261AD89-A387-45A1-8649-44D6C0321275</uuid>
					</itemhistory>
				</clipitem>
				<clipitem id="DYR18067_01 4">
					<name>DYR18067_01</name>
					<duration>254</duration>
					<rate>
						<ntsc>FALSE</ntsc>
						<timebase>25</timebase>
					</rate>
					<in>151</in>
					<out>188</out>
					<start>5299</start>
					<end>5336</end>
					<subframeoffset>0</subframeoffset>
					<masterclipid>DYR18067_01 1</masterclipid>
					<logginginfo>
						<scene/>
						<shottake/>
						<lognote/>
						<good>FALSE</good>
					</logginginfo>
					<labels>
						<label2/>
					</labels>
					<comments>
						<mastercomment1/>
						<mastercomment2/>
						<mastercomment3/>
						<mastercomment4/>
					</comments>
					<file id="DYR18067_01 2"/>
					<filter>
						<effect>
							<name>Audio Levels</name>
							<effectid>audiolevels</effectid>
							<effectcategory>audiolevels</effectcategory>
							<effecttype>audiolevels</effecttype>
							<mediatype>audio</mediatype>
							<parameter>
								<name>Level</name>
								<parameterid>level</parameterid>
								<valuemin>0</valuemin>
								<valuemax>3.98109</valuemax>
								<value>0.251189</value>
							</parameter>
						</effect>
					</filter>
					<filter>
						<effect>
							<name>Audio Pan</name>
							<effectid>audiopan</effectid>
							<effectcategory>audiopan</effectcategory>
							<effecttype>audiopan</effecttype>
							<mediatype>audio</mediatype>
							<parameter>
								<name>Pan</name>
								<parameterid>pan</parameterid>
								<valuemin>-1</valuemin>
								<valuemax>1</valuemax>
								<value>0</value>
							</parameter>
						</effect>
					</filter>
					<sourcetrack>
						<mediatype>audio</mediatype>
						<trackindex>2</trackindex>
					</sourcetrack>
					<link>
						<linkclipref>DYR18067_01 </linkclipref>
						<mediatype>video</mediatype>
						<trackindex>1</trackindex>
						<clipindex>46</clipindex>
					</link>
					<link>
						<linkclipref>DYR18067_01 3</linkclipref>
						<mediatype>audio</mediatype>
						<trackindex>1</trackindex>
						<clipindex>42</clipindex>
					</link>
					<link>
						<linkclipref>DYR18067_01 4</linkclipref>
						<mediatype>audio</mediatype>
						<trackindex>2</trackindex>
						<clipindex>42</clipindex>
					</link>
					<itemhistory>
						<uuid>92E3633C-688A-465F-BAD9-E42DCC3DFAF0</uuid>
					</itemhistory>
				</clipitem>
				<clipitem id="DYR18070_01 4">
					<name>DYR18070_01</name>
					<duration>508</duration>
					<rate>
						<ntsc>FALSE</ntsc>
						<timebase>25</timebase>
					</rate>
					<in>305</in>
					<out>364</out>
					<start>5336</start>
					<end>5395</end>
					<subframeoffset>0</subframeoffset>
					<masterclipid>DYR18070_01 1</masterclipid>
					<logginginfo>
						<scene/>
						<shottake/>
						<lognote/>
						<good>FALSE</good>
					</logginginfo>
					<labels>
						<label2/>
					</labels>
					<comments>
						<mastercomment1/>
						<mastercomment2/>
						<mastercomment3/>
						<mastercomment4/>
					</comments>
					<file id="DYR18070_01 2"/>
					<filter>
						<effect>
							<name>Audio Levels</name>
							<effectid>audiolevels</effectid>
							<effectcategory>audiolevels</effectcategory>
							<effecttype>audiolevels</effecttype>
							<mediatype>audio</mediatype>
							<parameter>
								<name>Level</name>
								<parameterid>level</parameterid>
								<valuemin>0</valuemin>
								<valuemax>3.98109</valuemax>
								<value>0</value>
							</parameter>
						</effect>
					</filter>
					<filter>
						<effect>
							<name>Audio Pan</name>
							<effectid>audiopan</effectid>
							<effectcategory>audiopan</effectcategory>
							<effecttype>audiopan</effecttype>
							<mediatype>audio</mediatype>
							<parameter>
								<name>Pan</name>
								<parameterid>pan</parameterid>
								<valuemin>-1</valuemin>
								<valuemax>1</valuemax>
								<value>0</value>
							</parameter>
						</effect>
					</filter>
					<sourcetrack>
						<mediatype>audio</mediatype>
						<trackindex>2</trackindex>
					</sourcetrack>
					<link>
						<linkclipref>DYR18070_01 </linkclipref>
						<mediatype>video</mediatype>
						<trackindex>1</trackindex>
						<clipindex>47</clipindex>
					</link>
					<link>
						<linkclipref>DYR18070_01 3</linkclipref>
						<mediatype>audio</mediatype>
						<trackindex>1</trackindex>
						<clipindex>43</clipindex>
					</link>
					<link>
						<linkclipref>DYR18070_01 4</linkclipref>
						<mediatype>audio</mediatype>
						<trackindex>2</trackindex>
						<clipindex>43</clipindex>
					</link>
					<itemhistory>
						<uuid>0792A395-7EBD-43B4-979C-EB1F1C3A4B42</uuid>
					</itemhistory>
				</clipitem>
				<clipitem id="DYR18069_01 4">
					<name>DYR18069_01</name>
					<duration>194</duration>
					<rate>
						<ntsc>FALSE</ntsc>
						<timebase>25</timebase>
					</rate>
					<in>72</in>
					<out>140</out>
					<start>5395</start>
					<end>5463</end>
					<subframeoffset>0</subframeoffset>
					<masterclipid>DYR18069_01 1</masterclipid>
					<logginginfo>
						<scene/>
						<shottake/>
						<lognote/>
						<good>FALSE</good>
					</logginginfo>
					<labels>
						<label2/>
					</labels>
					<comments>
						<mastercomment1/>
						<mastercomment2/>
						<mastercomment3/>
						<mastercomment4/>
					</comments>
					<file id="DYR18069_01 2"/>
					<filter>
						<effect>
							<name>Audio Levels</name>
							<effectid>audiolevels</effectid>
							<effectcategory>audiolevels</effectcategory>
							<effecttype>audiolevels</effecttype>
							<mediatype>audio</mediatype>
							<parameter>
								<name>Level</name>
								<parameterid>level</parameterid>
								<valuemin>0</valuemin>
								<valuemax>3.98109</valuemax>
								<value>0.281838</value>
							</parameter>
						</effect>
					</filter>
					<filter>
						<effect>
							<name>Audio Pan</name>
							<effectid>audiopan</effectid>
							<effectcategory>audiopan</effectcategory>
							<effecttype>audiopan</effecttype>
							<mediatype>audio</mediatype>
							<parameter>
								<name>Pan</name>
								<parameterid>pan</parameterid>
								<valuemin>-1</valuemin>
								<valuemax>1</valuemax>
								<value>0</value>
							</parameter>
						</effect>
					</filter>
					<sourcetrack>
						<mediatype>audio</mediatype>
						<trackindex>2</trackindex>
					</sourcetrack>
					<link>
						<linkclipref>DYR18069_01 </linkclipref>
						<mediatype>video</mediatype>
						<trackindex>1</trackindex>
						<clipindex>48</clipindex>
					</link>
					<link>
						<linkclipref>DYR18069_01 3</linkclipref>
						<mediatype>audio</mediatype>
						<trackindex>1</trackindex>
						<clipindex>44</clipindex>
					</link>
					<link>
						<linkclipref>DYR18069_01 4</linkclipref>
						<mediatype>audio</mediatype>
						<trackindex>2</trackindex>
						<clipindex>44</clipindex>
					</link>
					<itemhistory>
						<uuid>794672D0-AE9E-470D-8841-F2781B48FE1A</uuid>
					</itemhistory>
				</clipitem>
				<clipitem id="DYR18068_01 4">
					<name>DYR18068_01</name>
					<duration>407</duration>
					<rate>
						<ntsc>FALSE</ntsc>
						<timebase>25</timebase>
					</rate>
					<in>175</in>
					<out>249</out>
					<start>5463</start>
					<end>5537</end>
					<subframeoffset>0</subframeoffset>
					<enabled>TRUE</enabled>
					<masterclipid>DYR18068_01 1</masterclipid>
					<logginginfo>
						<scene/>
						<shottake/>
						<lognote/>
						<good>FALSE</good>
					</logginginfo>
					<labels>
						<label2/>
					</labels>
					<comments>
						<mastercomment1/>
						<mastercomment2/>
						<mastercomment3/>
						<mastercomment4/>
					</comments>
					<file id="DYR18068_01 2"/>
					<filter>
						<effect>
							<name>Audio Levels</name>
							<effectid>audiolevels</effectid>
							<effectcategory>audiolevels</effectcategory>
							<effecttype>audiolevels</effecttype>
							<mediatype>audio</mediatype>
							<parameter>
								<name>Level</name>
								<parameterid>level</parameterid>
								<valuemin>0</valuemin>
								<valuemax>3.98109</valuemax>
								<value>0</value>
							</parameter>
						</effect>
					</filter>
					<filter>
						<effect>
							<name>Audio Pan</name>
							<effectid>audiopan</effectid>
							<effectcategory>audiopan</effectcategory>
							<effecttype>audiopan</effecttype>
							<mediatype>audio</mediatype>
							<parameter>
								<name>Pan</name>
								<parameterid>pan</parameterid>
								<valuemin>-1</valuemin>
								<valuemax>1</valuemax>
								<value>0</value>
							</parameter>
						</effect>
					</filter>
					<sourcetrack>
						<mediatype>audio</mediatype>
						<trackindex>2</trackindex>
					</sourcetrack>
					<link>
						<linkclipref>DYR18068_01 </linkclipref>
						<mediatype>video</mediatype>
						<trackindex>1</trackindex>
						<clipindex>49</clipindex>
					</link>
					<link>
						<linkclipref>DYR18068_01 3</linkclipref>
						<mediatype>audio</mediatype>
						<trackindex>1</trackindex>
						<clipindex>45</clipindex>
					</link>
					<link>
						<linkclipref>DYR18068_01 4</linkclipref>
						<mediatype>audio</mediatype>
						<trackindex>2</trackindex>
						<clipindex>45</clipindex>
					</link>
					<itemhistory>
						<uuid>F540C3E7-3855-4738-BF10-E31CD6B89C34</uuid>
					</itemhistory>
				</clipitem>
				<clipitem id="DYR18091_01 plukke mose6">
					<name>DYR18091_01 plukke mose</name>
					<duration>935</duration>
					<rate>
						<ntsc>FALSE</ntsc>
						<timebase>25</timebase>
					</rate>
					<in>265</in>
					<out>380</out>
					<start>5537</start>
					<end>5652</end>
					<subframeoffset>0</subframeoffset>
					<masterclipid>DYR18091_01 plukke mose1</masterclipid>
					<logginginfo>
						<scene/>
						<shottake/>
						<lognote/>
						<good>FALSE</good>
					</logginginfo>
					<labels>
						<label2/>
					</labels>
					<comments>
						<mastercomment1/>
						<mastercomment2/>
						<mastercomment3/>
						<mastercomment4/>
					</comments>
					<file id="DYR18091_01 "/>
					<filter>
						<effect>
							<name>Audio Levels</name>
							<effectid>audiolevels</effectid>
							<effectcategory>audiolevels</effectcategory>
							<effecttype>audiolevels</effecttype>
							<mediatype>audio</mediatype>
							<parameter>
								<name>Level</name>
								<parameterid>level</parameterid>
								<valuemin>0</valuemin>
								<valuemax>3.98109</valuemax>
								<value>1</value>
							</parameter>
						</effect>
					</filter>
					<filter>
						<effect>
							<name>Audio Pan</name>
							<effectid>audiopan</effectid>
							<effectcategory>audiopan</effectcategory>
							<effecttype>audiopan</effecttype>
							<mediatype>audio</mediatype>
							<parameter>
								<name>Pan</name>
								<parameterid>pan</parameterid>
								<valuemin>-1</valuemin>
								<valuemax>1</valuemax>
								<value>0</value>
							</parameter>
						</effect>
					</filter>
					<sourcetrack>
						<mediatype>audio</mediatype>
						<trackindex>2</trackindex>
					</sourcetrack>
					<link>
						<linkclipref>DYR18091_01 plukke mose4</linkclipref>
						<mediatype>video</mediatype>
						<trackindex>1</trackindex>
						<clipindex>50</clipindex>
					</link>
					<link>
						<linkclipref>DYR18091_01 plukke mose5</linkclipref>
						<mediatype>audio</mediatype>
						<trackindex>1</trackindex>
						<clipindex>46</clipindex>
					</link>
					<link>
						<linkclipref>DYR18091_01 plukke mose6</linkclipref>
						<mediatype>audio</mediatype>
						<trackindex>2</trackindex>
						<clipindex>46</clipindex>
					</link>
					<itemhistory>
						<uuid>B47A09F7-96D6-4776-BADF-C3B4D52242DE</uuid>
						<uuid>20B9F0FA-0427-4E5C-8A6A-48B4DE6CD5C1</uuid>
					</itemhistory>
				</clipitem>
				<clipitem id="DYR18089_01 plukke subjektivt3">
					<name>DYR18089_01 plukke subjektivt</name>
					<duration>626</duration>
					<rate>
						<ntsc>FALSE</ntsc>
						<timebase>25</timebase>
					</rate>
					<in>180</in>
					<out>326</out>
					<start>5652</start>
					<end>5798</end>
					<subframeoffset>0</subframeoffset>
					<masterclipid>DYR18089_01 plukke subjektivt1</masterclipid>
					<logginginfo>
						<scene/>
						<shottake/>
						<lognote/>
						<good>FALSE</good>
					</logginginfo>
					<labels>
						<label2/>
					</labels>
					<comments>
						<mastercomment1/>
						<mastercomment2/>
						<mastercomment3/>
						<mastercomment4/>
					</comments>
					<file id="DYR18089_01 "/>
					<filter>
						<effect>
							<name>Audio Levels</name>
							<effectid>audiolevels</effectid>
							<effectcategory>audiolevels</effectcategory>
							<effecttype>audiolevels</effecttype>
							<mediatype>audio</mediatype>
							<parameter>
								<name>Level</name>
								<parameterid>level</parameterid>
								<valuemin>0</valuemin>
								<valuemax>3.98109</valuemax>
								<value>1</value>
							</parameter>
						</effect>
					</filter>
					<filter>
						<effect>
							<name>Audio Pan</name>
							<effectid>audiopan</effectid>
							<effectcategory>audiopan</effectcategory>
							<effecttype>audiopan</effecttype>
							<mediatype>audio</mediatype>
							<parameter>
								<name>Pan</name>
								<parameterid>pan</parameterid>
								<valuemin>-1</valuemin>
								<valuemax>1</valuemax>
								<value>0</value>
							</parameter>
						</effect>
					</filter>
					<sourcetrack>
						<mediatype>audio</mediatype>
						<trackindex>2</trackindex>
					</sourcetrack>
					<link>
						<linkclipref>DYR18089_01 plukke subjektivt</linkclipref>
						<mediatype>video</mediatype>
						<trackindex>1</trackindex>
						<clipindex>51</clipindex>
					</link>
					<link>
						<linkclipref>DYR18089_01 plukke subjektivt2</linkclipref>
						<mediatype>audio</mediatype>
						<trackindex>1</trackindex>
						<clipindex>47</clipindex>
					</link>
					<link>
						<linkclipref>DYR18089_01 plukke subjektivt3</linkclipref>
						<mediatype>audio</mediatype>
						<trackindex>2</trackindex>
						<clipindex>47</clipindex>
					</link>
					<itemhistory>
						<uuid>A4A982EE-45B7-428D-A830-DF700A032F8B</uuid>
					</itemhistory>
				</clipitem>
				<clipitem id="DYR18073_01 4">
					<name>DYR18073_01</name>
					<duration>612</duration>
					<rate>
						<ntsc>FALSE</ntsc>
						<timebase>25</timebase>
					</rate>
					<in>167</in>
					<out>216</out>
					<start>5798</start>
					<end>5847</end>
					<subframeoffset>0</subframeoffset>
					<masterclipid>DYR18073_01 1</masterclipid>
					<logginginfo>
						<scene/>
						<shottake/>
						<lognote/>
						<good>FALSE</good>
					</logginginfo>
					<labels>
						<label2/>
					</labels>
					<comments>
						<mastercomment1/>
						<mastercomment2/>
						<mastercomment3/>
						<mastercomment4/>
					</comments>
					<file id="DYR18073_01 2"/>
					<filter>
						<effect>
							<name>Audio Levels</name>
							<effectid>audiolevels</effectid>
							<effectcategory>audiolevels</effectcategory>
							<effecttype>audiolevels</effecttype>
							<mediatype>audio</mediatype>
							<parameter>
								<name>Level</name>
								<parameterid>level</parameterid>
								<valuemin>0</valuemin>
								<valuemax>3.98109</valuemax>
								<value>1</value>
							</parameter>
						</effect>
					</filter>
					<filter>
						<effect>
							<name>Audio Pan</name>
							<effectid>audiopan</effectid>
							<effectcategory>audiopan</effectcategory>
							<effecttype>audiopan</effecttype>
							<mediatype>audio</mediatype>
							<parameter>
								<name>Pan</name>
								<parameterid>pan</parameterid>
								<valuemin>-1</valuemin>
								<valuemax>1</valuemax>
								<value>0</value>
							</parameter>
						</effect>
					</filter>
					<sourcetrack>
						<mediatype>audio</mediatype>
						<trackindex>2</trackindex>
					</sourcetrack>
					<link>
						<linkclipref>DYR18073_01 </linkclipref>
						<mediatype>video</mediatype>
						<trackindex>1</trackindex>
						<clipindex>52</clipindex>
					</link>
					<link>
						<linkclipref>DYR18073_01 3</linkclipref>
						<mediatype>audio</mediatype>
						<trackindex>1</trackindex>
						<clipindex>48</clipindex>
					</link>
					<link>
						<linkclipref>DYR18073_01 4</linkclipref>
						<mediatype>audio</mediatype>
						<trackindex>2</trackindex>
						<clipindex>48</clipindex>
					</link>
					<itemhistory>
						<uuid>E84D9E35-1E45-45DB-BFBF-095F26ADAE79</uuid>
					</itemhistory>
				</clipitem>
				<clipitem id="DYR18077_01 4">
					<name>DYR18077_01</name>
					<duration>650</duration>
					<rate>
						<ntsc>FALSE</ntsc>
						<timebase>25</timebase>
					</rate>
					<in>368</in>
					<out>450</out>
					<start>5847</start>
					<end>5929</end>
					<subframeoffset>0</subframeoffset>
					<masterclipid>DYR18077_01 1</masterclipid>
					<logginginfo>
						<scene/>
						<shottake/>
						<lognote/>
						<good>FALSE</good>
					</logginginfo>
					<labels>
						<label2/>
					</labels>
					<comments>
						<mastercomment1/>
						<mastercomment2/>
						<mastercomment3/>
						<mastercomment4/>
					</comments>
					<file id="DYR18077_01 2"/>
					<filter>
						<effect>
							<name>Audio Levels</name>
							<effectid>audiolevels</effectid>
							<effectcategory>audiolevels</effectcategory>
							<effecttype>audiolevels</effecttype>
							<mediatype>audio</mediatype>
							<parameter>
								<name>Level</name>
								<parameterid>level</parameterid>
								<valuemin>0</valuemin>
								<valuemax>3.98109</valuemax>
								<value>1</value>
							</parameter>
						</effect>
					</filter>
					<filter>
						<effect>
							<name>Audio Pan</name>
							<effectid>audiopan</effectid>
							<effectcategory>audiopan</effectcategory>
							<effecttype>audiopan</effecttype>
							<mediatype>audio</mediatype>
							<parameter>
								<name>Pan</name>
								<parameterid>pan</parameterid>
								<valuemin>-1</valuemin>
								<valuemax>1</valuemax>
								<value>0</value>
							</parameter>
						</effect>
					</filter>
					<sourcetrack>
						<mediatype>audio</mediatype>
						<trackindex>2</trackindex>
					</sourcetrack>
					<link>
						<linkclipref>DYR18077_01 </linkclipref>
						<mediatype>video</mediatype>
						<trackindex>1</trackindex>
						<clipindex>53</clipindex>
					</link>
					<link>
						<linkclipref>DYR18077_01 3</linkclipref>
						<mediatype>audio</mediatype>
						<trackindex>1</trackindex>
						<clipindex>49</clipindex>
					</link>
					<link>
						<linkclipref>DYR18077_01 4</linkclipref>
						<mediatype>audio</mediatype>
						<trackindex>2</trackindex>
						<clipindex>49</clipindex>
					</link>
					<itemhistory>
						<uuid>D156DE04-353E-4051-90F3-E4BD25F3F88F</uuid>
					</itemhistory>
				</clipitem>
				<clipitem id="DYR18079_01 4">
					<name>DYR18079_01</name>
					<duration>656</duration>
					<rate>
						<ntsc>FALSE</ntsc>
						<timebase>25</timebase>
					</rate>
					<in>452</in>
					<out>517</out>
					<start>5929</start>
					<end>5994</end>
					<subframeoffset>0</subframeoffset>
					<masterclipid>DYR18079_01 1</masterclipid>
					<logginginfo>
						<scene/>
						<shottake/>
						<lognote/>
						<good>FALSE</good>
					</logginginfo>
					<labels>
						<label2/>
					</labels>
					<comments>
						<mastercomment1/>
						<mastercomment2/>
						<mastercomment3/>
						<mastercomment4/>
					</comments>
					<file id="DYR18079_01 2"/>
					<filter>
						<effect>
							<name>Audio Levels</name>
							<effectid>audiolevels</effectid>
							<effectcategory>audiolevels</effectcategory>
							<effecttype>audiolevels</effecttype>
							<mediatype>audio</mediatype>
							<parameter>
								<name>Level</name>
								<parameterid>level</parameterid>
								<valuemin>0</valuemin>
								<valuemax>3.98109</valuemax>
								<value>0.199526</value>
							</parameter>
						</effect>
					</filter>
					<filter>
						<effect>
							<name>Audio Pan</name>
							<effectid>audiopan</effectid>
							<effectcategory>audiopan</effectcategory>
							<effecttype>audiopan</effecttype>
							<mediatype>audio</mediatype>
							<parameter>
								<name>Pan</name>
								<parameterid>pan</parameterid>
								<valuemin>-1</valuemin>
								<valuemax>1</valuemax>
								<value>0</value>
							</parameter>
						</effect>
					</filter>
					<sourcetrack>
						<mediatype>audio</mediatype>
						<trackindex>2</trackindex>
					</sourcetrack>
					<link>
						<linkclipref>DYR18079_01 </linkclipref>
						<mediatype>video</mediatype>
						<trackindex>1</trackindex>
						<clipindex>54</clipindex>
					</link>
					<link>
						<linkclipref>DYR18079_01 3</linkclipref>
						<mediatype>audio</mediatype>
						<trackindex>1</trackindex>
						<clipindex>50</clipindex>
					</link>
					<link>
						<linkclipref>DYR18079_01 4</linkclipref>
						<mediatype>audio</mediatype>
						<trackindex>2</trackindex>
						<clipindex>50</clipindex>
					</link>
					<itemhistory>
						<uuid>E45EF823-605E-47AD-B297-CC63791DCA14</uuid>
					</itemhistory>
				</clipitem>
				<clipitem id="DYR18079_01 6">
					<name>DYR18079_01</name>
					<duration>656</duration>
					<rate>
						<ntsc>FALSE</ntsc>
						<timebase>25</timebase>
					</rate>
					<in>584</in>
					<out>614</out>
					<start>5994</start>
					<end>6024</end>
					<subframeoffset>0</subframeoffset>
					<masterclipid>DYR18079_01 1</masterclipid>
					<logginginfo>
						<scene/>
						<shottake/>
						<lognote/>
						<good>FALSE</good>
					</logginginfo>
					<labels>
						<label2/>
					</labels>
					<comments>
						<mastercomment1/>
						<mastercomment2/>
						<mastercomment3/>
						<mastercomment4/>
					</comments>
					<file id="DYR18079_01 2"/>
					<filter>
						<effect>
							<name>Audio Levels</name>
							<effectid>audiolevels</effectid>
							<effectcategory>audiolevels</effectcategory>
							<effecttype>audiolevels</effecttype>
							<mediatype>audio</mediatype>
							<parameter>
								<name>Level</name>
								<parameterid>level</parameterid>
								<valuemin>0</valuemin>
								<valuemax>3.98109</valuemax>
								<value>1</value>
							</parameter>
						</effect>
					</filter>
					<filter>
						<effect>
							<name>Audio Pan</name>
							<effectid>audiopan</effectid>
							<effectcategory>audiopan</effectcategory>
							<effecttype>audiopan</effecttype>
							<mediatype>audio</mediatype>
							<parameter>
								<name>Pan</name>
								<parameterid>pan</parameterid>
								<valuemin>-1</valuemin>
								<valuemax>1</valuemax>
								<value>0</value>
							</parameter>
						</effect>
					</filter>
					<sourcetrack>
						<mediatype>audio</mediatype>
						<trackindex>2</trackindex>
					</sourcetrack>
					<link>
						<linkclipref>DYR18079_01 5</linkclipref>
						<mediatype>audio</mediatype>
						<trackindex>1</trackindex>
						<clipindex>51</clipindex>
					</link>
					<link>
						<linkclipref>DYR18079_01 6</linkclipref>
						<mediatype>audio</mediatype>
						<trackindex>2</trackindex>
						<clipindex>51</clipindex>
					</link>
					<itemhistory>
						<uuid>FF5FFF6F-FC8F-48C6-B3B8-DBFB5B001BC4</uuid>
					</itemhistory>
				</clipitem>
				<clipitem id="DYR18094_01 4">
					<name>DYR18094_01</name>
					<duration>1238</duration>
					<rate>
						<ntsc>FALSE</ntsc>
						<timebase>25</timebase>
					</rate>
					<in>281</in>
					<out>548</out>
					<start>6035</start>
					<end>6302</end>
					<subframeoffset>0</subframeoffset>
					<masterclipid>DYR18094_01 1</masterclipid>
					<logginginfo>
						<scene/>
						<shottake/>
						<lognote/>
						<good>FALSE</good>
					</logginginfo>
					<labels>
						<label2/>
					</labels>
					<comments>
						<mastercomment1/>
						<mastercomment2/>
						<mastercomment3/>
						<mastercomment4/>
					</comments>
					<file id="DYR18094_01 2"/>
					<filter>
						<effect>
							<name>Audio Levels</name>
							<effectid>audiolevels</effectid>
							<effectcategory>audiolevels</effectcategory>
							<effecttype>audiolevels</effecttype>
							<mediatype>audio</mediatype>
							<parameter>
								<name>Level</name>
								<parameterid>level</parameterid>
								<valuemin>0</valuemin>
								<valuemax>3.98109</valuemax>
								<value>1</value>
							</parameter>
						</effect>
					</filter>
					<filter>
						<effect>
							<name>Audio Pan</name>
							<effectid>audiopan</effectid>
							<effectcategory>audiopan</effectcategory>
							<effecttype>audiopan</effecttype>
							<mediatype>audio</mediatype>
							<parameter>
								<name>Pan</name>
								<parameterid>pan</parameterid>
								<valuemin>-1</valuemin>
								<valuemax>1</valuemax>
								<value>0</value>
							</parameter>
						</effect>
					</filter>
					<sourcetrack>
						<mediatype>audio</mediatype>
						<trackindex>2</trackindex>
					</sourcetrack>
					<link>
						<linkclipref>DYR18094_01 </linkclipref>
						<mediatype>video</mediatype>
						<trackindex>1</trackindex>
						<clipindex>56</clipindex>
					</link>
					<link>
						<linkclipref>DYR18094_01 3</linkclipref>
						<mediatype>audio</mediatype>
						<trackindex>1</trackindex>
						<clipindex>52</clipindex>
					</link>
					<link>
						<linkclipref>DYR18094_01 4</linkclipref>
						<mediatype>audio</mediatype>
						<trackindex>2</trackindex>
						<clipindex>52</clipindex>
					</link>
					<itemhistory>
						<uuid>06D5F892-C2E0-4C52-BAE0-310C338D2140</uuid>
					</itemhistory>
				</clipitem>
				<clipitem id="DYR18095_01 4">
					<name>DYR18095_01</name>
					<duration>5990</duration>
					<rate>
						<ntsc>FALSE</ntsc>
						<timebase>25</timebase>
					</rate>
					<in>707</in>
					<out>786</out>
					<start>6302</start>
					<end>6381</end>
					<subframeoffset>0</subframeoffset>
					<masterclipid>DYR18095_01 1</masterclipid>
					<logginginfo>
						<scene/>
						<shottake/>
						<lognote/>
						<good>FALSE</good>
					</logginginfo>
					<labels>
						<label2/>
					</labels>
					<comments>
						<mastercomment1/>
						<mastercomment2/>
						<mastercomment3/>
						<mastercomment4/>
					</comments>
					<file id="DYR18095_01 2"/>
					<filter>
						<effect>
							<name>Audio Levels</name>
							<effectid>audiolevels</effectid>
							<effectcategory>audiolevels</effectcategory>
							<effecttype>audiolevels</effecttype>
							<mediatype>audio</mediatype>
							<parameter>
								<name>Level</name>
								<parameterid>level</parameterid>
								<valuemin>0</valuemin>
								<valuemax>3.98109</valuemax>
								<value>1</value>
							</parameter>
						</effect>
					</filter>
					<filter>
						<effect>
							<name>Audio Pan</name>
							<effectid>audiopan</effectid>
							<effectcategory>audiopan</effectcategory>
							<effecttype>audiopan</effecttype>
							<mediatype>audio</mediatype>
							<parameter>
								<name>Pan</name>
								<parameterid>pan</parameterid>
								<valuemin>-1</valuemin>
								<valuemax>1</valuemax>
								<value>0</value>
							</parameter>
						</effect>
					</filter>
					<sourcetrack>
						<mediatype>audio</mediatype>
						<trackindex>2</trackindex>
					</sourcetrack>
					<link>
						<linkclipref>DYR18095_01 </linkclipref>
						<mediatype>video</mediatype>
						<trackindex>1</trackindex>
						<clipindex>57</clipindex>
					</link>
					<link>
						<linkclipref>DYR18095_01 3</linkclipref>
						<mediatype>audio</mediatype>
						<trackindex>1</trackindex>
						<clipindex>53</clipindex>
					</link>
					<link>
						<linkclipref>DYR18095_01 4</linkclipref>
						<mediatype>audio</mediatype>
						<trackindex>2</trackindex>
						<clipindex>53</clipindex>
					</link>
					<itemhistory>
						<uuid>57AC5C50-28BE-4B83-A22D-89D6D16E2659</uuid>
						<uuid>FDE329D1-E0C7-4C80-87C0-52BEF65BEE27</uuid>
					</itemhistory>
				</clipitem>
				<clipitem id="DYR18097_01 4">
					<name>DYR18097_01</name>
					<duration>787</duration>
					<rate>
						<ntsc>FALSE</ntsc>
						<timebase>25</timebase>
					</rate>
					<in>277</in>
					<out>358</out>
					<start>6381</start>
					<end>6462</end>
					<subframeoffset>0</subframeoffset>
					<masterclipid>DYR18097_01 1</masterclipid>
					<logginginfo>
						<scene/>
						<shottake/>
						<lognote/>
						<good>FALSE</good>
					</logginginfo>
					<labels>
						<label2/>
					</labels>
					<comments>
						<mastercomment1/>
						<mastercomment2/>
						<mastercomment3/>
						<mastercomment4/>
					</comments>
					<file id="DYR18097_01 2"/>
					<filter>
						<effect>
							<name>Audio Levels</name>
							<effectid>audiolevels</effectid>
							<effectcategory>audiolevels</effectcategory>
							<effecttype>audiolevels</effecttype>
							<mediatype>audio</mediatype>
							<parameter>
								<name>Level</name>
								<parameterid>level</parameterid>
								<valuemin>0</valuemin>
								<valuemax>3.98109</valuemax>
								<value>0.0501187</value>
							</parameter>
						</effect>
					</filter>
					<filter>
						<effect>
							<name>Audio Pan</name>
							<effectid>audiopan</effectid>
							<effectcategory>audiopan</effectcategory>
							<effecttype>audiopan</effecttype>
							<mediatype>audio</mediatype>
							<parameter>
								<name>Pan</name>
								<parameterid>pan</parameterid>
								<valuemin>-1</valuemin>
								<valuemax>1</valuemax>
								<value>0</value>
							</parameter>
						</effect>
					</filter>
					<sourcetrack>
						<mediatype>audio</mediatype>
						<trackindex>2</trackindex>
					</sourcetrack>
					<link>
						<linkclipref>DYR18097_01 </linkclipref>
						<mediatype>video</mediatype>
						<trackindex>1</trackindex>
						<clipindex>58</clipindex>
					</link>
					<link>
						<linkclipref>DYR18097_01 3</linkclipref>
						<mediatype>audio</mediatype>
						<trackindex>1</trackindex>
						<clipindex>54</clipindex>
					</link>
					<link>
						<linkclipref>DYR18097_01 4</linkclipref>
						<mediatype>audio</mediatype>
						<trackindex>2</trackindex>
						<clipindex>54</clipindex>
					</link>
					<itemhistory>
						<uuid>C5B03543-0005-4DF7-BFB3-3B9D3592CC4B</uuid>
					</itemhistory>
				</clipitem>
				<clipitem id="DYR18095_01 7">
					<name>DYR18095_01</name>
					<duration>5990</duration>
					<rate>
						<ntsc>FALSE</ntsc>
						<timebase>25</timebase>
					</rate>
					<in>786</in>
					<out>899</out>
					<start>6462</start>
					<end>6575</end>
					<subframeoffset>0</subframeoffset>
					<masterclipid>DYR18095_01 1</masterclipid>
					<logginginfo>
						<scene/>
						<shottake/>
						<lognote/>
						<good>FALSE</good>
					</logginginfo>
					<labels>
						<label2/>
					</labels>
					<comments>
						<mastercomment1/>
						<mastercomment2/>
						<mastercomment3/>
						<mastercomment4/>
					</comments>
					<file id="DYR18095_01 2"/>
					<filter>
						<effect>
							<name>Audio Levels</name>
							<effectid>audiolevels</effectid>
							<effectcategory>audiolevels</effectcategory>
							<effecttype>audiolevels</effecttype>
							<mediatype>audio</mediatype>
							<parameter>
								<name>Level</name>
								<parameterid>level</parameterid>
								<valuemin>0</valuemin>
								<valuemax>3.98109</valuemax>
								<value>1</value>
							</parameter>
						</effect>
					</filter>
					<filter>
						<effect>
							<name>Audio Pan</name>
							<effectid>audiopan</effectid>
							<effectcategory>audiopan</effectcategory>
							<effecttype>audiopan</effecttype>
							<mediatype>audio</mediatype>
							<parameter>
								<name>Pan</name>
								<parameterid>pan</parameterid>
								<valuemin>-1</valuemin>
								<valuemax>1</valuemax>
								<value>0</value>
							</parameter>
						</effect>
					</filter>
					<sourcetrack>
						<mediatype>audio</mediatype>
						<trackindex>2</trackindex>
					</sourcetrack>
					<link>
						<linkclipref>DYR18095_01 5</linkclipref>
						<mediatype>video</mediatype>
						<trackindex>1</trackindex>
						<clipindex>59</clipindex>
					</link>
					<link>
						<linkclipref>DYR18095_01 6</linkclipref>
						<mediatype>audio</mediatype>
						<trackindex>1</trackindex>
						<clipindex>55</clipindex>
					</link>
					<link>
						<linkclipref>DYR18095_01 7</linkclipref>
						<mediatype>audio</mediatype>
						<trackindex>2</trackindex>
						<clipindex>55</clipindex>
					</link>
					<itemhistory>
						<uuid>CF29A105-5513-4968-B2FE-E4AAE74C37FC</uuid>
						<uuid>FDE329D1-E0C7-4C80-87C0-52BEF65BEE27</uuid>
					</itemhistory>
				</clipitem>
				<clipitem id="DYR18095_01 10">
					<name>DYR18095_01</name>
					<duration>5990</duration>
					<rate>
						<ntsc>FALSE</ntsc>
						<timebase>25</timebase>
					</rate>
					<in>980</in>
					<out>1051</out>
					<start>6575</start>
					<end>6646</end>
					<subframeoffset>0</subframeoffset>
					<masterclipid>DYR18095_01 1</masterclipid>
					<logginginfo>
						<scene/>
						<shottake/>
						<lognote/>
						<good>FALSE</good>
					</logginginfo>
					<labels>
						<label2/>
					</labels>
					<comments>
						<mastercomment1/>
						<mastercomment2/>
						<mastercomment3/>
						<mastercomment4/>
					</comments>
					<file id="DYR18095_01 2"/>
					<filter>
						<effect>
							<name>Audio Levels</name>
							<effectid>audiolevels</effectid>
							<effectcategory>audiolevels</effectcategory>
							<effecttype>audiolevels</effecttype>
							<mediatype>audio</mediatype>
							<parameter>
								<name>Level</name>
								<parameterid>level</parameterid>
								<valuemin>0</valuemin>
								<valuemax>3.98109</valuemax>
								<value>1</value>
							</parameter>
						</effect>
					</filter>
					<filter>
						<effect>
							<name>Audio Pan</name>
							<effectid>audiopan</effectid>
							<effectcategory>audiopan</effectcategory>
							<effecttype>audiopan</effecttype>
							<mediatype>audio</mediatype>
							<parameter>
								<name>Pan</name>
								<parameterid>pan</parameterid>
								<valuemin>-1</valuemin>
								<valuemax>1</valuemax>
								<value>0</value>
							</parameter>
						</effect>
					</filter>
					<sourcetrack>
						<mediatype>audio</mediatype>
						<trackindex>2</trackindex>
					</sourcetrack>
					<link>
						<linkclipref>DYR18095_01 8</linkclipref>
						<mediatype>video</mediatype>
						<trackindex>1</trackindex>
						<clipindex>60</clipindex>
					</link>
					<link>
						<linkclipref>DYR18095_01 9</linkclipref>
						<mediatype>audio</mediatype>
						<trackindex>1</trackindex>
						<clipindex>56</clipindex>
					</link>
					<link>
						<linkclipref>DYR18095_01 10</linkclipref>
						<mediatype>audio</mediatype>
						<trackindex>2</trackindex>
						<clipindex>56</clipindex>
					</link>
					<itemhistory>
						<uuid>04AAEEEF-645B-4109-AA4A-9BA4E21073CC</uuid>
					</itemhistory>
				</clipitem>
				<clipitem id="DYR18095_01 13">
					<name>DYR18095_01</name>
					<duration>5990</duration>
					<rate>
						<ntsc>FALSE</ntsc>
						<timebase>25</timebase>
					</rate>
					<in>1697</in>
					<out>1888</out>
					<start>6646</start>
					<end>6837</end>
					<subframeoffset>0</subframeoffset>
					<masterclipid>DYR18095_01 1</masterclipid>
					<logginginfo>
						<scene/>
						<shottake/>
						<lognote/>
						<good>FALSE</good>
					</logginginfo>
					<labels>
						<label2/>
					</labels>
					<comments>
						<mastercomment1/>
						<mastercomment2/>
						<mastercomment3/>
						<mastercomment4/>
					</comments>
					<file id="DYR18095_01 2"/>
					<filter>
						<effect>
							<name>Audio Levels</name>
							<effectid>audiolevels</effectid>
							<effectcategory>audiolevels</effectcategory>
							<effecttype>audiolevels</effecttype>
							<mediatype>audio</mediatype>
							<parameter>
								<name>Level</name>
								<parameterid>level</parameterid>
								<valuemin>0</valuemin>
								<valuemax>3.98109</valuemax>
								<value>1</value>
							</parameter>
						</effect>
					</filter>
					<filter>
						<effect>
							<name>Audio Pan</name>
							<effectid>audiopan</effectid>
							<effectcategory>audiopan</effectcategory>
							<effecttype>audiopan</effecttype>
							<mediatype>audio</mediatype>
							<parameter>
								<name>Pan</name>
								<parameterid>pan</parameterid>
								<valuemin>-1</valuemin>
								<valuemax>1</valuemax>
								<value>0</value>
							</parameter>
						</effect>
					</filter>
					<sourcetrack>
						<mediatype>audio</mediatype>
						<trackindex>2</trackindex>
					</sourcetrack>
					<link>
						<linkclipref>DYR18095_01 11</linkclipref>
						<mediatype>video</mediatype>
						<trackindex>1</trackindex>
						<clipindex>61</clipindex>
					</link>
					<link>
						<linkclipref>DYR18095_01 12</linkclipref>
						<mediatype>audio</mediatype>
						<trackindex>1</trackindex>
						<clipindex>57</clipindex>
					</link>
					<link>
						<linkclipref>DYR18095_01 13</linkclipref>
						<mediatype>audio</mediatype>
						<trackindex>2</trackindex>
						<clipindex>57</clipindex>
					</link>
					<itemhistory>
						<uuid>C7264D8E-DDCE-4142-B7A7-73044E9717C9</uuid>
					</itemhistory>
				</clipitem>
				<clipitem id="DYR18095_01 16">
					<name>DYR18095_01</name>
					<duration>5990</duration>
					<rate>
						<ntsc>FALSE</ntsc>
						<timebase>25</timebase>
					</rate>
					<in>4014</in>
					<out>4077</out>
					<start>6837</start>
					<end>6900</end>
					<subframeoffset>0</subframeoffset>
					<masterclipid>DYR18095_01 1</masterclipid>
					<logginginfo>
						<scene/>
						<shottake/>
						<lognote/>
						<good>FALSE</good>
					</logginginfo>
					<labels>
						<label2/>
					</labels>
					<comments>
						<mastercomment1/>
						<mastercomment2/>
						<mastercomment3/>
						<mastercomment4/>
					</comments>
					<file id="DYR18095_01 2"/>
					<filter>
						<effect>
							<name>Audio Levels</name>
							<effectid>audiolevels</effectid>
							<effectcategory>audiolevels</effectcategory>
							<effecttype>audiolevels</effecttype>
							<mediatype>audio</mediatype>
							<parameter>
								<name>Level</name>
								<parameterid>level</parameterid>
								<valuemin>0</valuemin>
								<valuemax>3.98109</valuemax>
								<value>1</value>
							</parameter>
						</effect>
					</filter>
					<filter>
						<effect>
							<name>Audio Pan</name>
							<effectid>audiopan</effectid>
							<effectcategory>audiopan</effectcategory>
							<effecttype>audiopan</effecttype>
							<mediatype>audio</mediatype>
							<parameter>
								<name>Pan</name>
								<parameterid>pan</parameterid>
								<valuemin>-1</valuemin>
								<valuemax>1</valuemax>
								<value>0</value>
							</parameter>
						</effect>
					</filter>
					<sourcetrack>
						<mediatype>audio</mediatype>
						<trackindex>2</trackindex>
					</sourcetrack>
					<link>
						<linkclipref>DYR18095_01 14</linkclipref>
						<mediatype>video</mediatype>
						<trackindex>1</trackindex>
						<clipindex>62</clipindex>
					</link>
					<link>
						<linkclipref>DYR18095_01 15</linkclipref>
						<mediatype>audio</mediatype>
						<trackindex>1</trackindex>
						<clipindex>58</clipindex>
					</link>
					<link>
						<linkclipref>DYR18095_01 16</linkclipref>
						<mediatype>audio</mediatype>
						<trackindex>2</trackindex>
						<clipindex>58</clipindex>
					</link>
					<itemhistory>
						<uuid>5AD421DB-DB20-4C87-AEF1-F87527D23DD5</uuid>
					</itemhistory>
				</clipitem>
				<clipitem id="DYR18096_01 4">
					<name>DYR18096_01</name>
					<duration>659</duration>
					<rate>
						<ntsc>FALSE</ntsc>
						<timebase>25</timebase>
					</rate>
					<in>416</in>
					<out>466</out>
					<start>6900</start>
					<end>6950</end>
					<subframeoffset>0</subframeoffset>
					<masterclipid>DYR18096_01 1</masterclipid>
					<logginginfo>
						<scene/>
						<shottake/>
						<lognote/>
						<good>FALSE</good>
					</logginginfo>
					<labels>
						<label2/>
					</labels>
					<comments>
						<mastercomment1/>
						<mastercomment2/>
						<mastercomment3/>
						<mastercomment4/>
					</comments>
					<file id="DYR18096_01 2"/>
					<filter>
						<effect>
							<name>Audio Levels</name>
							<effectid>audiolevels</effectid>
							<effectcategory>audiolevels</effectcategory>
							<effecttype>audiolevels</effecttype>
							<mediatype>audio</mediatype>
							<parameter>
								<name>Level</name>
								<parameterid>level</parameterid>
								<valuemin>0</valuemin>
								<valuemax>3.98109</valuemax>
								<value>1</value>
							</parameter>
						</effect>
					</filter>
					<filter>
						<effect>
							<name>Audio Pan</name>
							<effectid>audiopan</effectid>
							<effectcategory>audiopan</effectcategory>
							<effecttype>audiopan</effecttype>
							<mediatype>audio</mediatype>
							<parameter>
								<name>Pan</name>
								<parameterid>pan</parameterid>
								<valuemin>-1</valuemin>
								<valuemax>1</valuemax>
								<value>0</value>
							</parameter>
						</effect>
					</filter>
					<sourcetrack>
						<mediatype>audio</mediatype>
						<trackindex>2</trackindex>
					</sourcetrack>
					<link>
						<linkclipref>DYR18096_01 </linkclipref>
						<mediatype>video</mediatype>
						<trackindex>1</trackindex>
						<clipindex>63</clipindex>
					</link>
					<link>
						<linkclipref>DYR18096_01 3</linkclipref>
						<mediatype>audio</mediatype>
						<trackindex>1</trackindex>
						<clipindex>59</clipindex>
					</link>
					<link>
						<linkclipref>DYR18096_01 4</linkclipref>
						<mediatype>audio</mediatype>
						<trackindex>2</trackindex>
						<clipindex>59</clipindex>
					</link>
					<itemhistory>
						<uuid>ADAFFAEA-96EF-4308-984D-36F4B9EC3D8F</uuid>
					</itemhistory>
				</clipitem>
				<clipitem id="DYR18097_01 7">
					<name>DYR18097_01</name>
					<duration>787</duration>
					<rate>
						<ntsc>FALSE</ntsc>
						<timebase>25</timebase>
					</rate>
					<in>263</in>
					<out>281</out>
					<start>6950</start>
					<end>6968</end>
					<subframeoffset>0</subframeoffset>
					<masterclipid>DYR18097_01 1</masterclipid>
					<logginginfo>
						<scene/>
						<shottake/>
						<lognote/>
						<good>FALSE</good>
					</logginginfo>
					<labels>
						<label2/>
					</labels>
					<comments>
						<mastercomment1/>
						<mastercomment2/>
						<mastercomment3/>
						<mastercomment4/>
					</comments>
					<file id="DYR18097_01 2"/>
					<filter>
						<effect>
							<name>Audio Levels</name>
							<effectid>audiolevels</effectid>
							<effectcategory>audiolevels</effectcategory>
							<effecttype>audiolevels</effecttype>
							<mediatype>audio</mediatype>
							<parameter>
								<name>Level</name>
								<parameterid>level</parameterid>
								<valuemin>0</valuemin>
								<valuemax>3.98109</valuemax>
								<value>0</value>
							</parameter>
						</effect>
					</filter>
					<filter>
						<effect>
							<name>Audio Pan</name>
							<effectid>audiopan</effectid>
							<effectcategory>audiopan</effectcategory>
							<effecttype>audiopan</effecttype>
							<mediatype>audio</mediatype>
							<parameter>
								<name>Pan</name>
								<parameterid>pan</parameterid>
								<valuemin>-1</valuemin>
								<valuemax>1</valuemax>
								<value>0</value>
							</parameter>
						</effect>
					</filter>
					<sourcetrack>
						<mediatype>audio</mediatype>
						<trackindex>2</trackindex>
					</sourcetrack>
					<link>
						<linkclipref>DYR18097_01 5</linkclipref>
						<mediatype>video</mediatype>
						<trackindex>1</trackindex>
						<clipindex>64</clipindex>
					</link>
					<link>
						<linkclipref>DYR18097_01 6</linkclipref>
						<mediatype>audio</mediatype>
						<trackindex>1</trackindex>
						<clipindex>60</clipindex>
					</link>
					<link>
						<linkclipref>DYR18097_01 7</linkclipref>
						<mediatype>audio</mediatype>
						<trackindex>2</trackindex>
						<clipindex>60</clipindex>
					</link>
					<itemhistory>
						<uuid>6280E7A7-C103-42A0-B735-794D5FC06BE6</uuid>
					</itemhistory>
				</clipitem>
				<clipitem id="DYR18098_01 9">
					<name>DYR18098_01</name>
					<duration>3421</duration>
					<rate>
						<ntsc>FALSE</ntsc>
						<timebase>25</timebase>
					</rate>
					<in>627</in>
					<out>660</out>
					<start>6968</start>
					<end>7001</end>
					<subframeoffset>0</subframeoffset>
					<masterclipid>DYR18098_01 1</masterclipid>
					<logginginfo>
						<scene/>
						<shottake/>
						<lognote/>
						<good>FALSE</good>
					</logginginfo>
					<labels>
						<label2/>
					</labels>
					<comments>
						<mastercomment1/>
						<mastercomment2/>
						<mastercomment3/>
						<mastercomment4/>
					</comments>
					<file id="DYR18098_01 2"/>
					<filter>
						<effect>
							<name>Audio Levels</name>
							<effectid>audiolevels</effectid>
							<effectcategory>audiolevels</effectcategory>
							<effecttype>audiolevels</effecttype>
							<mediatype>audio</mediatype>
							<parameter>
								<name>Level</name>
								<parameterid>level</parameterid>
								<valuemin>0</valuemin>
								<valuemax>3.98109</valuemax>
								<value>1</value>
							</parameter>
						</effect>
					</filter>
					<filter>
						<effect>
							<name>Audio Pan</name>
							<effectid>audiopan</effectid>
							<effectcategory>audiopan</effectcategory>
							<effecttype>audiopan</effecttype>
							<mediatype>audio</mediatype>
							<parameter>
								<name>Pan</name>
								<parameterid>pan</parameterid>
								<valuemin>-1</valuemin>
								<valuemax>1</valuemax>
								<value>0</value>
							</parameter>
						</effect>
					</filter>
					<sourcetrack>
						<mediatype>audio</mediatype>
						<trackindex>2</trackindex>
					</sourcetrack>
					<link>
						<linkclipref>DYR18098_01 8</linkclipref>
						<mediatype>audio</mediatype>
						<trackindex>1</trackindex>
						<clipindex>61</clipindex>
					</link>
					<link>
						<linkclipref>DYR18098_01 9</linkclipref>
						<mediatype>audio</mediatype>
						<trackindex>2</trackindex>
						<clipindex>61</clipindex>
					</link>
					<itemhistory>
						<uuid>7CA7FBF3-6629-454B-A99B-02E7918F3059</uuid>
					</itemhistory>
				</clipitem>
				<clipitem id="DYR18097_01 9">
					<name>DYR18097_01</name>
					<duration>787</duration>
					<rate>
						<ntsc>FALSE</ntsc>
						<timebase>25</timebase>
					</rate>
					<in>314</in>
					<out>340</out>
					<start>7001</start>
					<end>7027</end>
					<subframeoffset>0</subframeoffset>
					<masterclipid>DYR18097_01 1</masterclipid>
					<logginginfo>
						<scene/>
						<shottake/>
						<lognote/>
						<good>FALSE</good>
					</logginginfo>
					<labels>
						<label2/>
					</labels>
					<comments>
						<mastercomment1/>
						<mastercomment2/>
						<mastercomment3/>
						<mastercomment4/>
					</comments>
					<file id="DYR18097_01 2"/>
					<filter>
						<effect>
							<name>Audio Levels</name>
							<effectid>audiolevels</effectid>
							<effectcategory>audiolevels</effectcategory>
							<effecttype>audiolevels</effecttype>
							<mediatype>audio</mediatype>
							<parameter>
								<name>Level</name>
								<parameterid>level</parameterid>
								<valuemin>0</valuemin>
								<valuemax>3.98109</valuemax>
								<value>0.0251189</value>
							</parameter>
						</effect>
					</filter>
					<filter>
						<effect>
							<name>Audio Pan</name>
							<effectid>audiopan</effectid>
							<effectcategory>audiopan</effectcategory>
							<effecttype>audiopan</effecttype>
							<mediatype>audio</mediatype>
							<parameter>
								<name>Pan</name>
								<parameterid>pan</parameterid>
								<valuemin>-1</valuemin>
								<valuemax>1</valuemax>
								<value>0</value>
							</parameter>
						</effect>
					</filter>
					<sourcetrack>
						<mediatype>audio</mediatype>
						<trackindex>2</trackindex>
					</sourcetrack>
					<link>
						<linkclipref>DYR18097_01 8</linkclipref>
						<mediatype>audio</mediatype>
						<trackindex>1</trackindex>
						<clipindex>62</clipindex>
					</link>
					<link>
						<linkclipref>DYR18097_01 9</linkclipref>
						<mediatype>audio</mediatype>
						<trackindex>2</trackindex>
						<clipindex>62</clipindex>
					</link>
					<itemhistory>
						<uuid>3981F4EE-4FA8-4F50-89C9-EDF274E2E2DF</uuid>
					</itemhistory>
				</clipitem>
				<clipitem id="DYR18098_01 4">
					<name>DYR18098_01</name>
					<duration>3421</duration>
					<rate>
						<ntsc>FALSE</ntsc>
						<timebase>25</timebase>
					</rate>
					<in>1319</in>
					<out>1393</out>
					<start>7027</start>
					<end>7101</end>
					<subframeoffset>0</subframeoffset>
					<masterclipid>DYR18098_01 1</masterclipid>
					<logginginfo>
						<scene/>
						<shottake/>
						<lognote/>
						<good>FALSE</good>
					</logginginfo>
					<labels>
						<label2/>
					</labels>
					<comments>
						<mastercomment1/>
						<mastercomment2/>
						<mastercomment3/>
						<mastercomment4/>
					</comments>
					<file id="DYR18098_01 2"/>
					<filter>
						<effect>
							<name>Audio Levels</name>
							<effectid>audiolevels</effectid>
							<effectcategory>audiolevels</effectcategory>
							<effecttype>audiolevels</effecttype>
							<mediatype>audio</mediatype>
							<parameter>
								<name>Level</name>
								<parameterid>level</parameterid>
								<valuemin>0</valuemin>
								<valuemax>3.98109</valuemax>
								<value>1</value>
							</parameter>
						</effect>
					</filter>
					<filter>
						<effect>
							<name>Audio Pan</name>
							<effectid>audiopan</effectid>
							<effectcategory>audiopan</effectcategory>
							<effecttype>audiopan</effecttype>
							<mediatype>audio</mediatype>
							<parameter>
								<name>Pan</name>
								<parameterid>pan</parameterid>
								<valuemin>-1</valuemin>
								<valuemax>1</valuemax>
								<value>0</value>
							</parameter>
						</effect>
					</filter>
					<sourcetrack>
						<mediatype>audio</mediatype>
						<trackindex>2</trackindex>
					</sourcetrack>
					<link>
						<linkclipref>DYR18098_01 </linkclipref>
						<mediatype>video</mediatype>
						<trackindex>1</trackindex>
						<clipindex>65</clipindex>
					</link>
					<link>
						<linkclipref>DYR18098_01 3</linkclipref>
						<mediatype>audio</mediatype>
						<trackindex>1</trackindex>
						<clipindex>63</clipindex>
					</link>
					<link>
						<linkclipref>DYR18098_01 4</linkclipref>
						<mediatype>audio</mediatype>
						<trackindex>2</trackindex>
						<clipindex>63</clipindex>
					</link>
					<itemhistory>
						<uuid>C049CCE6-1E62-4788-939A-0FFFE6D7C2E2</uuid>
					</itemhistory>
				</clipitem>
				<clipitem id="DYR18099_01 4">
					<name>DYR18099_01</name>
					<duration>1893</duration>
					<rate>
						<ntsc>FALSE</ntsc>
						<timebase>25</timebase>
					</rate>
					<in>824</in>
					<out>938</out>
					<start>7149</start>
					<end>7263</end>
					<subframeoffset>0</subframeoffset>
					<masterclipid>DYR18099_01 1</masterclipid>
					<logginginfo>
						<scene/>
						<shottake/>
						<lognote/>
						<good>FALSE</good>
					</logginginfo>
					<labels>
						<label2/>
					</labels>
					<comments>
						<mastercomment1/>
						<mastercomment2/>
						<mastercomment3/>
						<mastercomment4/>
					</comments>
					<file id="DYR18099_01 2"/>
					<filter>
						<effect>
							<name>Audio Levels</name>
							<effectid>audiolevels</effectid>
							<effectcategory>audiolevels</effectcategory>
							<effecttype>audiolevels</effecttype>
							<mediatype>audio</mediatype>
							<parameter>
								<name>Level</name>
								<parameterid>level</parameterid>
								<valuemin>0</valuemin>
								<valuemax>3.98109</valuemax>
								<keyframe>
									<when>899.125</when>
									<value>2.81838</value>
								</keyframe>
								<keyframe>
									<when>903.188</when>
									<value>0.00630957</value>
								</keyframe>
								<interpolation>
									<name>FCPCurve</name>
								</interpolation>
								<value>2.81838</value>
							</parameter>
						</effect>
					</filter>
					<filter>
						<effect>
							<name>Audio Pan</name>
							<effectid>audiopan</effectid>
							<effectcategory>audiopan</effectcategory>
							<effecttype>audiopan</effecttype>
							<mediatype>audio</mediatype>
							<parameter>
								<name>Pan</name>
								<parameterid>pan</parameterid>
								<valuemin>-1</valuemin>
								<valuemax>1</valuemax>
								<value>0</value>
							</parameter>
						</effect>
					</filter>
					<sourcetrack>
						<mediatype>audio</mediatype>
						<trackindex>2</trackindex>
					</sourcetrack>
					<link>
						<linkclipref>DYR18099_01 </linkclipref>
						<mediatype>video</mediatype>
						<trackindex>1</trackindex>
						<clipindex>66</clipindex>
					</link>
					<link>
						<linkclipref>DYR18099_01 3</linkclipref>
						<mediatype>audio</mediatype>
						<trackindex>1</trackindex>
						<clipindex>64</clipindex>
					</link>
					<link>
						<linkclipref>DYR18099_01 4</linkclipref>
						<mediatype>audio</mediatype>
						<trackindex>2</trackindex>
						<clipindex>64</clipindex>
					</link>
					<itemhistory>
						<uuid>6B4CE796-8223-483D-8170-7A56235124D1</uuid>
					</itemhistory>
				</clipitem>
				<clipitem id="DYR18102_01 4">
					<name>DYR18102_01</name>
					<duration>2259</duration>
					<rate>
						<ntsc>FALSE</ntsc>
						<timebase>25</timebase>
					</rate>
					<in>174</in>
					<out>269</out>
					<start>7296</start>
					<end>7391</end>
					<subframeoffset>0</subframeoffset>
					<masterclipid>DYR18102_01 1</masterclipid>
					<logginginfo>
						<scene/>
						<shottake/>
						<lognote/>
						<good>FALSE</good>
					</logginginfo>
					<labels>
						<label2/>
					</labels>
					<comments>
						<mastercomment1/>
						<mastercomment2/>
						<mastercomment3/>
						<mastercomment4/>
					</comments>
					<file id="DYR18102_01 2"/>
					<filter>
						<effect>
							<name>Audio Levels</name>
							<effectid>audiolevels</effectid>
							<effectcategory>audiolevels</effectcategory>
							<effecttype>audiolevels</effecttype>
							<mediatype>audio</mediatype>
							<parameter>
								<name>Level</name>
								<parameterid>level</parameterid>
								<valuemin>0</valuemin>
								<valuemax>3.98109</valuemax>
								<value>0</value>
							</parameter>
						</effect>
					</filter>
					<filter>
						<effect>
							<name>Audio Pan</name>
							<effectid>audiopan</effectid>
							<effectcategory>audiopan</effectcategory>
							<effecttype>audiopan</effecttype>
							<mediatype>audio</mediatype>
							<parameter>
								<name>Pan</name>
								<parameterid>pan</parameterid>
								<valuemin>-1</valuemin>
								<valuemax>1</valuemax>
								<value>0</value>
							</parameter>
						</effect>
					</filter>
					<sourcetrack>
						<mediatype>audio</mediatype>
						<trackindex>2</trackindex>
					</sourcetrack>
					<link>
						<linkclipref>DYR18102_01 </linkclipref>
						<mediatype>video</mediatype>
						<trackindex>1</trackindex>
						<clipindex>67</clipindex>
					</link>
					<link>
						<linkclipref>DYR18102_01 3</linkclipref>
						<mediatype>audio</mediatype>
						<trackindex>1</trackindex>
						<clipindex>65</clipindex>
					</link>
					<link>
						<linkclipref>DYR18102_01 4</linkclipref>
						<mediatype>audio</mediatype>
						<trackindex>2</trackindex>
						<clipindex>65</clipindex>
					</link>
					<itemhistory>
						<uuid>57ED4552-5BC0-4574-884F-60A7A54AFC80</uuid>
					</itemhistory>
				</clipitem>
				<clipitem id="DYR18102_01 7">
					<name>DYR18102_01</name>
					<duration>2259</duration>
					<rate>
						<ntsc>FALSE</ntsc>
						<timebase>25</timebase>
					</rate>
					<in>814</in>
					<out>915</out>
					<start>7391</start>
					<end>7492</end>
					<subframeoffset>0</subframeoffset>
					<enabled>TRUE</enabled>
					<masterclipid>DYR18102_01 1</masterclipid>
					<logginginfo>
						<scene/>
						<shottake/>
						<lognote/>
						<good>FALSE</good>
					</logginginfo>
					<labels>
						<label2/>
					</labels>
					<comments>
						<mastercomment1/>
						<mastercomment2/>
						<mastercomment3/>
						<mastercomment4/>
					</comments>
					<file id="DYR18102_01 2"/>
					<filter>
						<effect>
							<name>Audio Levels</name>
							<effectid>audiolevels</effectid>
							<effectcategory>audiolevels</effectcategory>
							<effecttype>audiolevels</effecttype>
							<mediatype>audio</mediatype>
							<parameter>
								<name>Level</name>
								<parameterid>level</parameterid>
								<valuemin>0</valuemin>
								<valuemax>3.98109</valuemax>
								<value>0</value>
							</parameter>
						</effect>
					</filter>
					<filter>
						<effect>
							<name>Audio Pan</name>
							<effectid>audiopan</effectid>
							<effectcategory>audiopan</effectcategory>
							<effecttype>audiopan</effecttype>
							<mediatype>audio</mediatype>
							<parameter>
								<name>Pan</name>
								<parameterid>pan</parameterid>
								<valuemin>-1</valuemin>
								<valuemax>1</valuemax>
								<value>0</value>
							</parameter>
						</effect>
					</filter>
					<sourcetrack>
						<mediatype>audio</mediatype>
						<trackindex>2</trackindex>
					</sourcetrack>
					<link>
						<linkclipref>DYR18102_01 5</linkclipref>
						<mediatype>video</mediatype>
						<trackindex>1</trackindex>
						<clipindex>68</clipindex>
					</link>
					<link>
						<linkclipref>DYR18102_01 6</linkclipref>
						<mediatype>audio</mediatype>
						<trackindex>1</trackindex>
						<clipindex>66</clipindex>
					</link>
					<link>
						<linkclipref>DYR18102_01 7</linkclipref>
						<mediatype>audio</mediatype>
						<trackindex>2</trackindex>
						<clipindex>66</clipindex>
					</link>
					<itemhistory>
						<uuid>AD52EE08-4335-439D-9841-1F0F9884A44A</uuid>
					</itemhistory>
				</clipitem>
				<clipitem id="DYR18102_01 10">
					<name>DYR18102_01</name>
					<duration>2259</duration>
					<rate>
						<ntsc>FALSE</ntsc>
						<timebase>25</timebase>
					</rate>
					<in>1081</in>
					<out>1116</out>
					<start>7492</start>
					<end>7527</end>
					<subframeoffset>0</subframeoffset>
					<masterclipid>DYR18102_01 1</masterclipid>
					<logginginfo>
						<scene/>
						<shottake/>
						<lognote/>
						<good>FALSE</good>
					</logginginfo>
					<labels>
						<label2/>
					</labels>
					<comments>
						<mastercomment1/>
						<mastercomment2/>
						<mastercomment3/>
						<mastercomment4/>
					</comments>
					<file id="DYR18102_01 2"/>
					<filter>
						<effect>
							<name>Audio Levels</name>
							<effectid>audiolevels</effectid>
							<effectcategory>audiolevels</effectcategory>
							<effecttype>audiolevels</effecttype>
							<mediatype>audio</mediatype>
							<parameter>
								<name>Level</name>
								<parameterid>level</parameterid>
								<valuemin>0</valuemin>
								<valuemax>3.98109</valuemax>
								<value>0</value>
							</parameter>
						</effect>
					</filter>
					<filter>
						<effect>
							<name>Audio Pan</name>
							<effectid>audiopan</effectid>
							<effectcategory>audiopan</effectcategory>
							<effecttype>audiopan</effecttype>
							<mediatype>audio</mediatype>
							<parameter>
								<name>Pan</name>
								<parameterid>pan</parameterid>
								<valuemin>-1</valuemin>
								<valuemax>1</valuemax>
								<value>0</value>
							</parameter>
						</effect>
					</filter>
					<sourcetrack>
						<mediatype>audio</mediatype>
						<trackindex>2</trackindex>
					</sourcetrack>
					<link>
						<linkclipref>DYR18102_01 8</linkclipref>
						<mediatype>video</mediatype>
						<trackindex>1</trackindex>
						<clipindex>69</clipindex>
					</link>
					<link>
						<linkclipref>DYR18102_01 9</linkclipref>
						<mediatype>audio</mediatype>
						<trackindex>1</trackindex>
						<clipindex>67</clipindex>
					</link>
					<link>
						<linkclipref>DYR18102_01 10</linkclipref>
						<mediatype>audio</mediatype>
						<trackindex>2</trackindex>
						<clipindex>67</clipindex>
					</link>
					<itemhistory>
						<uuid>990C8F06-E2EE-4447-8DEC-53EE14D7A0BB</uuid>
					</itemhistory>
				</clipitem>
				<clipitem id="DYR18106_01 4">
					<name>DYR18106_01</name>
					<duration>4625</duration>
					<rate>
						<ntsc>FALSE</ntsc>
						<timebase>25</timebase>
					</rate>
					<in>2291</in>
					<out>2323</out>
					<start>7784</start>
					<end>7816</end>
					<subframeoffset>0</subframeoffset>
					<masterclipid>DYR18106_01 1</masterclipid>
					<logginginfo>
						<scene/>
						<shottake/>
						<lognote/>
						<good>FALSE</good>
					</logginginfo>
					<labels>
						<label2/>
					</labels>
					<comments>
						<mastercomment1/>
						<mastercomment2/>
						<mastercomment3/>
						<mastercomment4/>
					</comments>
					<file id="DYR18106_01 2"/>
					<filter>
						<effect>
							<name>Audio Levels</name>
							<effectid>audiolevels</effectid>
							<effectcategory>audiolevels</effectcategory>
							<effecttype>audiolevels</effecttype>
							<mediatype>audio</mediatype>
							<parameter>
								<name>Level</name>
								<parameterid>level</parameterid>
								<valuemin>0</valuemin>
								<valuemax>3.98109</valuemax>
								<value>0.000398107</value>
							</parameter>
						</effect>
					</filter>
					<filter>
						<effect>
							<name>Audio Pan</name>
							<effectid>audiopan</effectid>
							<effectcategory>audiopan</effectcategory>
							<effecttype>audiopan</effecttype>
							<mediatype>audio</mediatype>
							<parameter>
								<name>Pan</name>
								<parameterid>pan</parameterid>
								<valuemin>-1</valuemin>
								<valuemax>1</valuemax>
								<value>0</value>
							</parameter>
						</effect>
					</filter>
					<sourcetrack>
						<mediatype>audio</mediatype>
						<trackindex>2</trackindex>
					</sourcetrack>
					<link>
						<linkclipref>DYR18106_01 </linkclipref>
						<mediatype>video</mediatype>
						<trackindex>1</trackindex>
						<clipindex>72</clipindex>
					</link>
					<link>
						<linkclipref>DYR18106_01 3</linkclipref>
						<mediatype>audio</mediatype>
						<trackindex>1</trackindex>
						<clipindex>70</clipindex>
					</link>
					<link>
						<linkclipref>DYR18106_01 4</linkclipref>
						<mediatype>audio</mediatype>
						<trackindex>2</trackindex>
						<clipindex>68</clipindex>
					</link>
					<itemhistory>
						<uuid>D291C378-5D6F-4190-8512-EAF78E81CF44</uuid>
					</itemhistory>
				</clipitem>
				<clipitem id="DYR18106_01 7">
					<name>DYR18106_01</name>
					<duration>4625</duration>
					<rate>
						<ntsc>FALSE</ntsc>
						<timebase>25</timebase>
					</rate>
					<in>1232</in>
					<out>1277</out>
					<start>7816</start>
					<end>7861</end>
					<subframeoffset>0</subframeoffset>
					<masterclipid>DYR18106_01 1</masterclipid>
					<logginginfo>
						<scene/>
						<shottake/>
						<lognote/>
						<good>FALSE</good>
					</logginginfo>
					<labels>
						<label2/>
					</labels>
					<comments>
						<mastercomment1/>
						<mastercomment2/>
						<mastercomment3/>
						<mastercomment4/>
					</comments>
					<file id="DYR18106_01 2"/>
					<filter>
						<effect>
							<name>Audio Levels</name>
							<effectid>audiolevels</effectid>
							<effectcategory>audiolevels</effectcategory>
							<effecttype>audiolevels</effecttype>
							<mediatype>audio</mediatype>
							<parameter>
								<name>Level</name>
								<parameterid>level</parameterid>
								<valuemin>0</valuemin>
								<valuemax>3.98109</valuemax>
								<value>1</value>
							</parameter>
						</effect>
					</filter>
					<filter>
						<effect>
							<name>Audio Pan</name>
							<effectid>audiopan</effectid>
							<effectcategory>audiopan</effectcategory>
							<effecttype>audiopan</effecttype>
							<mediatype>audio</mediatype>
							<parameter>
								<name>Pan</name>
								<parameterid>pan</parameterid>
								<valuemin>-1</valuemin>
								<valuemax>1</valuemax>
								<value>0</value>
							</parameter>
						</effect>
					</filter>
					<sourcetrack>
						<mediatype>audio</mediatype>
						<trackindex>2</trackindex>
					</sourcetrack>
					<link>
						<linkclipref>DYR18106_01 5</linkclipref>
						<mediatype>video</mediatype>
						<trackindex>1</trackindex>
						<clipindex>73</clipindex>
					</link>
					<link>
						<linkclipref>DYR18106_01 6</linkclipref>
						<mediatype>audio</mediatype>
						<trackindex>1</trackindex>
						<clipindex>71</clipindex>
					</link>
					<link>
						<linkclipref>DYR18106_01 7</linkclipref>
						<mediatype>audio</mediatype>
						<trackindex>2</trackindex>
						<clipindex>69</clipindex>
					</link>
					<itemhistory>
						<uuid>1F77E67A-24B9-48B3-A9F0-A70F04121082</uuid>
					</itemhistory>
				</clipitem>
				<clipitem id="DYR18103_01 6">
					<name>DYR18103_01</name>
					<duration>3184</duration>
					<rate>
						<ntsc>FALSE</ntsc>
						<timebase>25</timebase>
					</rate>
					<in>1280</in>
					<out>1330</out>
					<start>7861</start>
					<end>7911</end>
					<subframeoffset>0</subframeoffset>
					<enabled>TRUE</enabled>
					<masterclipid>DYR18103_01 1</masterclipid>
					<logginginfo>
						<scene/>
						<shottake/>
						<lognote/>
						<good>FALSE</good>
					</logginginfo>
					<labels>
						<label2/>
					</labels>
					<comments>
						<mastercomment1/>
						<mastercomment2/>
						<mastercomment3/>
						<mastercomment4/>
					</comments>
					<file id="DYR18103_01 2"/>
					<filter>
						<effect>
							<name>Audio Levels</name>
							<effectid>audiolevels</effectid>
							<effectcategory>audiolevels</effectcategory>
							<effecttype>audiolevels</effecttype>
							<mediatype>audio</mediatype>
							<parameter>
								<name>Level</name>
								<parameterid>level</parameterid>
								<valuemin>0</valuemin>
								<valuemax>3.98109</valuemax>
								<value>1</value>
							</parameter>
						</effect>
					</filter>
					<filter>
						<effect>
							<name>Audio Pan</name>
							<effectid>audiopan</effectid>
							<effectcategory>audiopan</effectcategory>
							<effecttype>audiopan</effecttype>
							<mediatype>audio</mediatype>
							<parameter>
								<name>Pan</name>
								<parameterid>pan</parameterid>
								<valuemin>-1</valuemin>
								<valuemax>1</valuemax>
								<value>0</value>
							</parameter>
						</effect>
					</filter>
					<sourcetrack>
						<mediatype>audio</mediatype>
						<trackindex>2</trackindex>
					</sourcetrack>
					<link>
						<linkclipref>DYR18103_01 4</linkclipref>
						<mediatype>video</mediatype>
						<trackindex>1</trackindex>
						<clipindex>74</clipindex>
					</link>
					<link>
						<linkclipref>DYR18103_01 5</linkclipref>
						<mediatype>audio</mediatype>
						<trackindex>1</trackindex>
						<clipindex>72</clipindex>
					</link>
					<link>
						<linkclipref>DYR18103_01 6</linkclipref>
						<mediatype>audio</mediatype>
						<trackindex>2</trackindex>
						<clipindex>70</clipindex>
					</link>
					<itemhistory>
						<uuid>C3ABEA97-B4DE-496A-83ED-CEAB2099C922</uuid>
					</itemhistory>
				</clipitem>
				<clipitem id="DYR18109_01 4">
					<name>DYR18109_01</name>
					<duration>3056</duration>
					<rate>
						<ntsc>FALSE</ntsc>
						<timebase>25</timebase>
					</rate>
					<in>772</in>
					<out>1128</out>
					<start>7911</start>
					<end>8267</end>
					<subframeoffset>0</subframeoffset>
					<masterclipid>DYR18109_01 1</masterclipid>
					<logginginfo>
						<scene/>
						<shottake/>
						<lognote/>
						<good>FALSE</good>
					</logginginfo>
					<labels>
						<label2/>
					</labels>
					<comments>
						<mastercomment1/>
						<mastercomment2/>
						<mastercomment3/>
						<mastercomment4/>
					</comments>
					<file id="DYR18109_01 2"/>
					<filter>
						<effect>
							<name>Audio Levels</name>
							<effectid>audiolevels</effectid>
							<effectcategory>audiolevels</effectcategory>
							<effecttype>audiolevels</effecttype>
							<mediatype>audio</mediatype>
							<parameter>
								<name>Level</name>
								<parameterid>level</parameterid>
								<valuemin>0</valuemin>
								<valuemax>3.98109</valuemax>
								<value>1.58489</value>
							</parameter>
						</effect>
					</filter>
					<filter>
						<effect>
							<name>Audio Pan</name>
							<effectid>audiopan</effectid>
							<effectcategory>audiopan</effectcategory>
							<effecttype>audiopan</effecttype>
							<mediatype>audio</mediatype>
							<parameter>
								<name>Pan</name>
								<parameterid>pan</parameterid>
								<valuemin>-1</valuemin>
								<valuemax>1</valuemax>
								<value>0</value>
							</parameter>
						</effect>
					</filter>
					<sourcetrack>
						<mediatype>audio</mediatype>
						<trackindex>2</trackindex>
					</sourcetrack>
					<link>
						<linkclipref>DYR18109_01 </linkclipref>
						<mediatype>video</mediatype>
						<trackindex>1</trackindex>
						<clipindex>75</clipindex>
					</link>
					<link>
						<linkclipref>DYR18109_01 3</linkclipref>
						<mediatype>audio</mediatype>
						<trackindex>1</trackindex>
						<clipindex>73</clipindex>
					</link>
					<link>
						<linkclipref>DYR18109_01 4</linkclipref>
						<mediatype>audio</mediatype>
						<trackindex>2</trackindex>
						<clipindex>71</clipindex>
					</link>
					<itemhistory>
						<uuid>3B043974-547F-4406-8644-B1B6BC936D4A</uuid>
					</itemhistory>
				</clipitem>
				<clipitem id="DYR18109_01 7">
					<name>DYR18109_01</name>
					<duration>3056</duration>
					<rate>
						<ntsc>FALSE</ntsc>
						<timebase>25</timebase>
					</rate>
					<in>1443</in>
					<out>1509</out>
					<start>8267</start>
					<end>8333</end>
					<subframeoffset>0</subframeoffset>
					<masterclipid>DYR18109_01 1</masterclipid>
					<logginginfo>
						<scene/>
						<shottake/>
						<lognote/>
						<good>FALSE</good>
					</logginginfo>
					<labels>
						<label2/>
					</labels>
					<comments>
						<mastercomment1/>
						<mastercomment2/>
						<mastercomment3/>
						<mastercomment4/>
					</comments>
					<file id="DYR18109_01 2"/>
					<filter>
						<effect>
							<name>Audio Levels</name>
							<effectid>audiolevels</effectid>
							<effectcategory>audiolevels</effectcategory>
							<effecttype>audiolevels</effecttype>
							<mediatype>audio</mediatype>
							<parameter>
								<name>Level</name>
								<parameterid>level</parameterid>
								<valuemin>0</valuemin>
								<valuemax>3.98109</valuemax>
								<value>1</value>
							</parameter>
						</effect>
					</filter>
					<filter>
						<effect>
							<name>Audio Pan</name>
							<effectid>audiopan</effectid>
							<effectcategory>audiopan</effectcategory>
							<effecttype>audiopan</effecttype>
							<mediatype>audio</mediatype>
							<parameter>
								<name>Pan</name>
								<parameterid>pan</parameterid>
								<valuemin>-1</valuemin>
								<valuemax>1</valuemax>
								<value>0</value>
							</parameter>
						</effect>
					</filter>
					<sourcetrack>
						<mediatype>audio</mediatype>
						<trackindex>2</trackindex>
					</sourcetrack>
					<link>
						<linkclipref>DYR18109_01 5</linkclipref>
						<mediatype>video</mediatype>
						<trackindex>1</trackindex>
						<clipindex>76</clipindex>
					</link>
					<link>
						<linkclipref>DYR18109_01 6</linkclipref>
						<mediatype>audio</mediatype>
						<trackindex>1</trackindex>
						<clipindex>74</clipindex>
					</link>
					<link>
						<linkclipref>DYR18109_01 7</linkclipref>
						<mediatype>audio</mediatype>
						<trackindex>2</trackindex>
						<clipindex>72</clipindex>
					</link>
					<itemhistory>
						<uuid>4F65710C-F4D0-42E7-A462-5CECED5A77E5</uuid>
					</itemhistory>
				</clipitem>
				<clipitem id="DYR18109_01 10">
					<name>DYR18109_01</name>
					<duration>3056</duration>
					<rate>
						<ntsc>FALSE</ntsc>
						<timebase>25</timebase>
					</rate>
					<in>1721</in>
					<out>1828</out>
					<start>8333</start>
					<end>8440</end>
					<subframeoffset>0</subframeoffset>
					<enabled>TRUE</enabled>
					<masterclipid>DYR18109_01 1</masterclipid>
					<logginginfo>
						<scene/>
						<shottake/>
						<lognote/>
						<good>FALSE</good>
					</logginginfo>
					<labels>
						<label2/>
					</labels>
					<comments>
						<mastercomment1/>
						<mastercomment2/>
						<mastercomment3/>
						<mastercomment4/>
					</comments>
					<file id="DYR18109_01 2"/>
					<filter>
						<effect>
							<name>Audio Levels</name>
							<effectid>audiolevels</effectid>
							<effectcategory>audiolevels</effectcategory>
							<effecttype>audiolevels</effecttype>
							<mediatype>audio</mediatype>
							<parameter>
								<name>Level</name>
								<parameterid>level</parameterid>
								<valuemin>0</valuemin>
								<valuemax>3.98109</valuemax>
								<value>1</value>
							</parameter>
						</effect>
					</filter>
					<filter>
						<effect>
							<name>Audio Pan</name>
							<effectid>audiopan</effectid>
							<effectcategory>audiopan</effectcategory>
							<effecttype>audiopan</effecttype>
							<mediatype>audio</mediatype>
							<parameter>
								<name>Pan</name>
								<parameterid>pan</parameterid>
								<valuemin>-1</valuemin>
								<valuemax>1</valuemax>
								<value>0</value>
							</parameter>
						</effect>
					</filter>
					<sourcetrack>
						<mediatype>audio</mediatype>
						<trackindex>2</trackindex>
					</sourcetrack>
					<link>
						<linkclipref>DYR18109_01 8</linkclipref>
						<mediatype>video</mediatype>
						<trackindex>1</trackindex>
						<clipindex>77</clipindex>
					</link>
					<link>
						<linkclipref>DYR18109_01 9</linkclipref>
						<mediatype>audio</mediatype>
						<trackindex>1</trackindex>
						<clipindex>75</clipindex>
					</link>
					<link>
						<linkclipref>DYR18109_01 10</linkclipref>
						<mediatype>audio</mediatype>
						<trackindex>2</trackindex>
						<clipindex>73</clipindex>
					</link>
					<itemhistory>
						<uuid>46EE463A-139A-488C-98C2-245B1873C81E</uuid>
					</itemhistory>
				</clipitem>
				<clipitem id="DYR18110_01 4">
					<name>DYR18110_01</name>
					<duration>1835</duration>
					<rate>
						<ntsc>FALSE</ntsc>
						<timebase>25</timebase>
					</rate>
					<in>1432</in>
					<out>1570</out>
					<start>8440</start>
					<end>8578</end>
					<subframeoffset>0</subframeoffset>
					<enabled>TRUE</enabled>
					<masterclipid>DYR18110_01 1</masterclipid>
					<logginginfo>
						<scene/>
						<shottake/>
						<lognote/>
						<good>FALSE</good>
					</logginginfo>
					<labels>
						<label2/>
					</labels>
					<comments>
						<mastercomment1/>
						<mastercomment2/>
						<mastercomment3/>
						<mastercomment4/>
					</comments>
					<file id="DYR18110_01 2"/>
					<filter>
						<effect>
							<name>Audio Levels</name>
							<effectid>audiolevels</effectid>
							<effectcategory>audiolevels</effectcategory>
							<effecttype>audiolevels</effecttype>
							<mediatype>audio</mediatype>
							<parameter>
								<name>Level</name>
								<parameterid>level</parameterid>
								<valuemin>0</valuemin>
								<valuemax>3.98109</valuemax>
								<value>1</value>
							</parameter>
						</effect>
					</filter>
					<filter>
						<effect>
							<name>Audio Pan</name>
							<effectid>audiopan</effectid>
							<effectcategory>audiopan</effectcategory>
							<effecttype>audiopan</effecttype>
							<mediatype>audio</mediatype>
							<parameter>
								<name>Pan</name>
								<parameterid>pan</parameterid>
								<valuemin>-1</valuemin>
								<valuemax>1</valuemax>
								<value>0</value>
							</parameter>
						</effect>
					</filter>
					<sourcetrack>
						<mediatype>audio</mediatype>
						<trackindex>2</trackindex>
					</sourcetrack>
					<link>
						<linkclipref>DYR18110_01 </linkclipref>
						<mediatype>video</mediatype>
						<trackindex>1</trackindex>
						<clipindex>78</clipindex>
					</link>
					<link>
						<linkclipref>DYR18110_01 3</linkclipref>
						<mediatype>audio</mediatype>
						<trackindex>1</trackindex>
						<clipindex>76</clipindex>
					</link>
					<link>
						<linkclipref>DYR18110_01 4</linkclipref>
						<mediatype>audio</mediatype>
						<trackindex>2</trackindex>
						<clipindex>74</clipindex>
					</link>
					<itemhistory>
						<uuid>D6BAEB74-4473-4EDF-993F-1A422370349F</uuid>
					</itemhistory>
				</clipitem>
				<clipitem id="DYR18110_01 7">
					<name>DYR18110_01</name>
					<duration>1835</duration>
					<rate>
						<ntsc>FALSE</ntsc>
						<timebase>25</timebase>
					</rate>
					<in>248</in>
					<out>279</out>
					<start>8578</start>
					<end>8609</end>
					<subframeoffset>0</subframeoffset>
					<masterclipid>DYR18110_01 1</masterclipid>
					<logginginfo>
						<scene/>
						<shottake/>
						<lognote/>
						<good>FALSE</good>
					</logginginfo>
					<labels>
						<label2/>
					</labels>
					<comments>
						<mastercomment1/>
						<mastercomment2/>
						<mastercomment3/>
						<mastercomment4/>
					</comments>
					<file id="DYR18110_01 2"/>
					<filter>
						<effect>
							<name>Audio Levels</name>
							<effectid>audiolevels</effectid>
							<effectcategory>audiolevels</effectcategory>
							<effecttype>audiolevels</effecttype>
							<mediatype>audio</mediatype>
							<parameter>
								<name>Level</name>
								<parameterid>level</parameterid>
								<valuemin>0</valuemin>
								<valuemax>3.98109</valuemax>
								<value>1</value>
							</parameter>
						</effect>
					</filter>
					<filter>
						<effect>
							<name>Audio Pan</name>
							<effectid>audiopan</effectid>
							<effectcategory>audiopan</effectcategory>
							<effecttype>audiopan</effecttype>
							<mediatype>audio</mediatype>
							<parameter>
								<name>Pan</name>
								<parameterid>pan</parameterid>
								<valuemin>-1</valuemin>
								<valuemax>1</valuemax>
								<value>0</value>
							</parameter>
						</effect>
					</filter>
					<sourcetrack>
						<mediatype>audio</mediatype>
						<trackindex>2</trackindex>
					</sourcetrack>
					<link>
						<linkclipref>DYR18110_01 5</linkclipref>
						<mediatype>video</mediatype>
						<trackindex>1</trackindex>
						<clipindex>79</clipindex>
					</link>
					<link>
						<linkclipref>DYR18110_01 6</linkclipref>
						<mediatype>audio</mediatype>
						<trackindex>1</trackindex>
						<clipindex>77</clipindex>
					</link>
					<link>
						<linkclipref>DYR18110_01 7</linkclipref>
						<mediatype>audio</mediatype>
						<trackindex>2</trackindex>
						<clipindex>75</clipindex>
					</link>
					<itemhistory>
						<uuid>823C3CB1-CFA0-4120-9050-8FCEDE9D2023</uuid>
					</itemhistory>
				</clipitem>
				<clipitem id="DYR18110_01 10">
					<name>DYR18110_01</name>
					<duration>1835</duration>
					<rate>
						<ntsc>FALSE</ntsc>
						<timebase>25</timebase>
					</rate>
					<in>1679</in>
					<out>1739</out>
					<start>8609</start>
					<end>8669</end>
					<subframeoffset>0</subframeoffset>
					<masterclipid>DYR18110_01 1</masterclipid>
					<logginginfo>
						<scene/>
						<shottake/>
						<lognote/>
						<good>FALSE</good>
					</logginginfo>
					<labels>
						<label2/>
					</labels>
					<comments>
						<mastercomment1/>
						<mastercomment2/>
						<mastercomment3/>
						<mastercomment4/>
					</comments>
					<file id="DYR18110_01 2"/>
					<filter>
						<effect>
							<name>Audio Levels</name>
							<effectid>audiolevels</effectid>
							<effectcategory>audiolevels</effectcategory>
							<effecttype>audiolevels</effecttype>
							<mediatype>audio</mediatype>
							<parameter>
								<name>Level</name>
								<parameterid>level</parameterid>
								<valuemin>0</valuemin>
								<valuemax>3.98109</valuemax>
								<value>1</value>
							</parameter>
						</effect>
					</filter>
					<filter>
						<effect>
							<name>Audio Pan</name>
							<effectid>audiopan</effectid>
							<effectcategory>audiopan</effectcategory>
							<effecttype>audiopan</effecttype>
							<mediatype>audio</mediatype>
							<parameter>
								<name>Pan</name>
								<parameterid>pan</parameterid>
								<valuemin>-1</valuemin>
								<valuemax>1</valuemax>
								<value>0</value>
							</parameter>
						</effect>
					</filter>
					<sourcetrack>
						<mediatype>audio</mediatype>
						<trackindex>2</trackindex>
					</sourcetrack>
					<link>
						<linkclipref>DYR18110_01 8</linkclipref>
						<mediatype>video</mediatype>
						<trackindex>1</trackindex>
						<clipindex>80</clipindex>
					</link>
					<link>
						<linkclipref>DYR18110_01 9</linkclipref>
						<mediatype>audio</mediatype>
						<trackindex>1</trackindex>
						<clipindex>78</clipindex>
					</link>
					<link>
						<linkclipref>DYR18110_01 10</linkclipref>
						<mediatype>audio</mediatype>
						<trackindex>2</trackindex>
						<clipindex>76</clipindex>
					</link>
					<itemhistory>
						<uuid>A16BD9D0-1E8C-4CF9-9D82-C68BAD96ABAB</uuid>
					</itemhistory>
				</clipitem>
				<clipitem id="DYR18110_01 13">
					<name>DYR18110_01</name>
					<duration>1835</duration>
					<rate>
						<ntsc>FALSE</ntsc>
						<timebase>25</timebase>
					</rate>
					<in>1597</in>
					<out>1632</out>
					<start>8708</start>
					<end>8743</end>
					<subframeoffset>0</subframeoffset>
					<masterclipid>DYR18110_01 1</masterclipid>
					<logginginfo>
						<scene/>
						<shottake/>
						<lognote/>
						<good>FALSE</good>
					</logginginfo>
					<labels>
						<label2/>
					</labels>
					<comments>
						<mastercomment1/>
						<mastercomment2/>
						<mastercomment3/>
						<mastercomment4/>
					</comments>
					<file id="DYR18110_01 2"/>
					<filter>
						<effect>
							<name>Audio Levels</name>
							<effectid>audiolevels</effectid>
							<effectcategory>audiolevels</effectcategory>
							<effecttype>audiolevels</effecttype>
							<mediatype>audio</mediatype>
							<parameter>
								<name>Level</name>
								<parameterid>level</parameterid>
								<valuemin>0</valuemin>
								<valuemax>3.98109</valuemax>
								<value>1</value>
							</parameter>
						</effect>
					</filter>
					<filter>
						<effect>
							<name>Audio Pan</name>
							<effectid>audiopan</effectid>
							<effectcategory>audiopan</effectcategory>
							<effecttype>audiopan</effecttype>
							<mediatype>audio</mediatype>
							<parameter>
								<name>Pan</name>
								<parameterid>pan</parameterid>
								<valuemin>-1</valuemin>
								<valuemax>1</valuemax>
								<value>0</value>
							</parameter>
						</effect>
					</filter>
					<sourcetrack>
						<mediatype>audio</mediatype>
						<trackindex>2</trackindex>
					</sourcetrack>
					<link>
						<linkclipref>DYR18110_01 11</linkclipref>
						<mediatype>video</mediatype>
						<trackindex>1</trackindex>
						<clipindex>82</clipindex>
					</link>
					<link>
						<linkclipref>DYR18110_01 12</linkclipref>
						<mediatype>audio</mediatype>
						<trackindex>1</trackindex>
						<clipindex>80</clipindex>
					</link>
					<link>
						<linkclipref>DYR18110_01 13</linkclipref>
						<mediatype>audio</mediatype>
						<trackindex>2</trackindex>
						<clipindex>77</clipindex>
					</link>
					<itemhistory>
						<uuid>CF146FE2-77EE-4558-A8A4-C79E18910B41</uuid>
					</itemhistory>
				</clipitem>
				<clipitem id="DYR18112_01 4">
					<name>DYR18112_01</name>
					<duration>1428</duration>
					<rate>
						<ntsc>FALSE</ntsc>
						<timebase>25</timebase>
					</rate>
					<in>118</in>
					<out>212</out>
					<start>8743</start>
					<end>8837</end>
					<subframeoffset>0</subframeoffset>
					<masterclipid>DYR18112_01 1</masterclipid>
					<logginginfo>
						<scene/>
						<shottake/>
						<lognote/>
						<good>FALSE</good>
					</logginginfo>
					<labels>
						<label2/>
					</labels>
					<comments>
						<mastercomment1/>
						<mastercomment2/>
						<mastercomment3/>
						<mastercomment4/>
					</comments>
					<file id="DYR18112_01 2"/>
					<filter>
						<effect>
							<name>Audio Levels</name>
							<effectid>audiolevels</effectid>
							<effectcategory>audiolevels</effectcategory>
							<effecttype>audiolevels</effecttype>
							<mediatype>audio</mediatype>
							<parameter>
								<name>Level</name>
								<parameterid>level</parameterid>
								<valuemin>0</valuemin>
								<valuemax>3.98109</valuemax>
								<value>1</value>
							</parameter>
						</effect>
					</filter>
					<filter>
						<effect>
							<name>Audio Pan</name>
							<effectid>audiopan</effectid>
							<effectcategory>audiopan</effectcategory>
							<effecttype>audiopan</effecttype>
							<mediatype>audio</mediatype>
							<parameter>
								<name>Pan</name>
								<parameterid>pan</parameterid>
								<valuemin>-1</valuemin>
								<valuemax>1</valuemax>
								<value>0</value>
							</parameter>
						</effect>
					</filter>
					<sourcetrack>
						<mediatype>audio</mediatype>
						<trackindex>2</trackindex>
					</sourcetrack>
					<link>
						<linkclipref>DYR18112_01 </linkclipref>
						<mediatype>video</mediatype>
						<trackindex>1</trackindex>
						<clipindex>83</clipindex>
					</link>
					<link>
						<linkclipref>DYR18112_01 3</linkclipref>
						<mediatype>audio</mediatype>
						<trackindex>1</trackindex>
						<clipindex>81</clipindex>
					</link>
					<link>
						<linkclipref>DYR18112_01 4</linkclipref>
						<mediatype>audio</mediatype>
						<trackindex>2</trackindex>
						<clipindex>78</clipindex>
					</link>
					<itemhistory>
						<uuid>FDF09389-58BA-4737-9FB1-5A79D5D0B18F</uuid>
					</itemhistory>
				</clipitem>
				<clipitem id="DYR18112_01 7">
					<name>DYR18112_01</name>
					<duration>1428</duration>
					<rate>
						<ntsc>FALSE</ntsc>
						<timebase>25</timebase>
					</rate>
					<in>192</in>
					<out>380</out>
					<start>8837</start>
					<end>9025</end>
					<subframeoffset>0</subframeoffset>
					<masterclipid>DYR18112_01 1</masterclipid>
					<logginginfo>
						<scene/>
						<shottake/>
						<lognote/>
						<good>FALSE</good>
					</logginginfo>
					<labels>
						<label2/>
					</labels>
					<comments>
						<mastercomment1/>
						<mastercomment2/>
						<mastercomment3/>
						<mastercomment4/>
					</comments>
					<file id="DYR18112_01 2"/>
					<filter>
						<effect>
							<name>Audio Levels</name>
							<effectid>audiolevels</effectid>
							<effectcategory>audiolevels</effectcategory>
							<effecttype>audiolevels</effecttype>
							<mediatype>audio</mediatype>
							<parameter>
								<name>Level</name>
								<parameterid>level</parameterid>
								<valuemin>0</valuemin>
								<valuemax>3.98109</valuemax>
								<value>1</value>
							</parameter>
						</effect>
					</filter>
					<filter>
						<effect>
							<name>Audio Pan</name>
							<effectid>audiopan</effectid>
							<effectcategory>audiopan</effectcategory>
							<effecttype>audiopan</effecttype>
							<mediatype>audio</mediatype>
							<parameter>
								<name>Pan</name>
								<parameterid>pan</parameterid>
								<valuemin>-1</valuemin>
								<valuemax>1</valuemax>
								<value>0</value>
							</parameter>
						</effect>
					</filter>
					<sourcetrack>
						<mediatype>audio</mediatype>
						<trackindex>2</trackindex>
					</sourcetrack>
					<link>
						<linkclipref>DYR18112_01 5</linkclipref>
						<mediatype>video</mediatype>
						<trackindex>1</trackindex>
						<clipindex>85</clipindex>
					</link>
					<link>
						<linkclipref>DYR18112_01 6</linkclipref>
						<mediatype>audio</mediatype>
						<trackindex>1</trackindex>
						<clipindex>82</clipindex>
					</link>
					<link>
						<linkclipref>DYR18112_01 7</linkclipref>
						<mediatype>audio</mediatype>
						<trackindex>2</trackindex>
						<clipindex>79</clipindex>
					</link>
					<itemhistory>
						<uuid>5798CE3C-E743-4649-ABBF-573715BCDA79</uuid>
					</itemhistory>
				</clipitem>
				<clipitem id="DYR18117_01 6">
					<name>DYR18117_01</name>
					<duration>758</duration>
					<rate>
						<ntsc>FALSE</ntsc>
						<timebase>25</timebase>
					</rate>
					<in>206</in>
					<out>278</out>
					<start>9063</start>
					<end>9135</end>
					<subframeoffset>0</subframeoffset>
					<masterclipid>DYR18117_01 1</masterclipid>
					<logginginfo>
						<scene/>
						<shottake/>
						<lognote/>
						<good>FALSE</good>
					</logginginfo>
					<labels>
						<label2/>
					</labels>
					<comments>
						<mastercomment1/>
						<mastercomment2/>
						<mastercomment3/>
						<mastercomment4/>
					</comments>
					<file id="DYR18117_01 2"/>
					<filter>
						<effect>
							<name>Audio Levels</name>
							<effectid>audiolevels</effectid>
							<effectcategory>audiolevels</effectcategory>
							<effecttype>audiolevels</effecttype>
							<mediatype>audio</mediatype>
							<parameter>
								<name>Level</name>
								<parameterid>level</parameterid>
								<valuemin>0</valuemin>
								<valuemax>3.98109</valuemax>
								<value>1</value>
							</parameter>
						</effect>
					</filter>
					<filter>
						<effect>
							<name>Audio Pan</name>
							<effectid>audiopan</effectid>
							<effectcategory>audiopan</effectcategory>
							<effecttype>audiopan</effecttype>
							<mediatype>audio</mediatype>
							<parameter>
								<name>Pan</name>
								<parameterid>pan</parameterid>
								<valuemin>-1</valuemin>
								<valuemax>1</valuemax>
								<value>0</value>
							</parameter>
						</effect>
					</filter>
					<sourcetrack>
						<mediatype>audio</mediatype>
						<trackindex>2</trackindex>
					</sourcetrack>
					<itemhistory>
						<uuid>B91E4AD7-E51B-4D16-B208-D146490C4A1C</uuid>
					</itemhistory>
				</clipitem>
				<clipitem id="DYR18117_01 5">
					<name>DYR18117_01</name>
					<duration>758</duration>
					<rate>
						<ntsc>FALSE</ntsc>
						<timebase>25</timebase>
					</rate>
					<in>93</in>
					<out>135</out>
					<start>9135</start>
					<end>9177</end>
					<subframeoffset>0</subframeoffset>
					<masterclipid>DYR18117_01 1</masterclipid>
					<logginginfo>
						<scene/>
						<shottake/>
						<lognote/>
						<good>FALSE</good>
					</logginginfo>
					<labels>
						<label2/>
					</labels>
					<comments>
						<mastercomment1/>
						<mastercomment2/>
						<mastercomment3/>
						<mastercomment4/>
					</comments>
					<file id="DYR18117_01 2"/>
					<filter>
						<effect>
							<name>Audio Levels</name>
							<effectid>audiolevels</effectid>
							<effectcategory>audiolevels</effectcategory>
							<effecttype>audiolevels</effecttype>
							<mediatype>audio</mediatype>
							<parameter>
								<name>Level</name>
								<parameterid>level</parameterid>
								<valuemin>0</valuemin>
								<valuemax>3.98109</valuemax>
								<value>1</value>
							</parameter>
						</effect>
					</filter>
					<filter>
						<effect>
							<name>Audio Pan</name>
							<effectid>audiopan</effectid>
							<effectcategory>audiopan</effectcategory>
							<effecttype>audiopan</effecttype>
							<mediatype>audio</mediatype>
							<parameter>
								<name>Pan</name>
								<parameterid>pan</parameterid>
								<valuemin>-1</valuemin>
								<valuemax>1</valuemax>
								<value>0</value>
							</parameter>
						</effect>
					</filter>
					<sourcetrack>
						<mediatype>audio</mediatype>
						<trackindex>2</trackindex>
					</sourcetrack>
					<link>
						<linkclipref>DYR18117_01 4</linkclipref>
						<mediatype>audio</mediatype>
						<trackindex>1</trackindex>
						<clipindex>84</clipindex>
					</link>
					<link>
						<linkclipref>DYR18117_01 5</linkclipref>
						<mediatype>audio</mediatype>
						<trackindex>2</trackindex>
						<clipindex>81</clipindex>
					</link>
					<itemhistory>
						<uuid>C2E863ED-B9F7-44C3-A74C-47DC6C2DE48C</uuid>
					</itemhistory>
				</clipitem>
				<clipitem id="DYR18118_01 4">
					<name>DYR18118_01</name>
					<duration>1491</duration>
					<rate>
						<ntsc>FALSE</ntsc>
						<timebase>25</timebase>
					</rate>
					<in>1036</in>
					<out>1130</out>
					<start>9177</start>
					<end>9271</end>
					<subframeoffset>0</subframeoffset>
					<masterclipid>DYR18118_01 1</masterclipid>
					<logginginfo>
						<scene/>
						<shottake/>
						<lognote/>
						<good>FALSE</good>
					</logginginfo>
					<labels>
						<label2/>
					</labels>
					<comments>
						<mastercomment1/>
						<mastercomment2/>
						<mastercomment3/>
						<mastercomment4/>
					</comments>
					<file id="DYR18118_01 2"/>
					<filter>
						<effect>
							<name>Audio Levels</name>
							<effectid>audiolevels</effectid>
							<effectcategory>audiolevels</effectcategory>
							<effecttype>audiolevels</effecttype>
							<mediatype>audio</mediatype>
							<parameter>
								<name>Level</name>
								<parameterid>level</parameterid>
								<valuemin>0</valuemin>
								<valuemax>3.98109</valuemax>
								<value>1</value>
							</parameter>
						</effect>
					</filter>
					<filter>
						<effect>
							<name>Audio Pan</name>
							<effectid>audiopan</effectid>
							<effectcategory>audiopan</effectcategory>
							<effecttype>audiopan</effecttype>
							<mediatype>audio</mediatype>
							<parameter>
								<name>Pan</name>
								<parameterid>pan</parameterid>
								<valuemin>-1</valuemin>
								<valuemax>1</valuemax>
								<value>0</value>
							</parameter>
						</effect>
					</filter>
					<sourcetrack>
						<mediatype>audio</mediatype>
						<trackindex>2</trackindex>
					</sourcetrack>
					<link>
						<linkclipref>DYR18118_01 </linkclipref>
						<mediatype>video</mediatype>
						<trackindex>1</trackindex>
						<clipindex>87</clipindex>
					</link>
					<link>
						<linkclipref>DYR18118_01 3</linkclipref>
						<mediatype>audio</mediatype>
						<trackindex>1</trackindex>
						<clipindex>85</clipindex>
					</link>
					<link>
						<linkclipref>DYR18118_01 4</linkclipref>
						<mediatype>audio</mediatype>
						<trackindex>2</trackindex>
						<clipindex>82</clipindex>
					</link>
					<itemhistory>
						<uuid>E3171558-F302-49DC-BA60-D1F155C61353</uuid>
					</itemhistory>
				</clipitem>
				<clipitem id="DYR18121_01 4">
					<name>DYR18121_01</name>
					<duration>244</duration>
					<rate>
						<ntsc>FALSE</ntsc>
						<timebase>25</timebase>
					</rate>
					<in>69</in>
					<out>140</out>
					<start>9271</start>
					<end>-1</end>
					<subframeoffset>0</subframeoffset>
					<masterclipid>DYR18121_01 1</masterclipid>
					<logginginfo>
						<scene/>
						<shottake/>
						<lognote/>
						<good>FALSE</good>
					</logginginfo>
					<labels>
						<label2/>
					</labels>
					<comments>
						<mastercomment1/>
						<mastercomment2/>
						<mastercomment3/>
						<mastercomment4/>
					</comments>
					<file id="DYR18121_01 2"/>
					<filter>
						<effect>
							<name>Audio Levels</name>
							<effectid>audiolevels</effectid>
							<effectcategory>audiolevels</effectcategory>
							<effecttype>audiolevels</effecttype>
							<mediatype>audio</mediatype>
							<parameter>
								<name>Level</name>
								<parameterid>level</parameterid>
								<valuemin>0</valuemin>
								<valuemax>3.98109</valuemax>
								<value>1</value>
							</parameter>
						</effect>
					</filter>
					<filter>
						<effect>
							<name>Audio Pan</name>
							<effectid>audiopan</effectid>
							<effectcategory>audiopan</effectcategory>
							<effecttype>audiopan</effecttype>
							<mediatype>audio</mediatype>
							<parameter>
								<name>Pan</name>
								<parameterid>pan</parameterid>
								<valuemin>-1</valuemin>
								<valuemax>1</valuemax>
								<value>0</value>
							</parameter>
						</effect>
					</filter>
					<sourcetrack>
						<mediatype>audio</mediatype>
						<trackindex>2</trackindex>
					</sourcetrack>
					<link>
						<linkclipref>DYR18121_01 </linkclipref>
						<mediatype>video</mediatype>
						<trackindex>1</trackindex>
						<clipindex>88</clipindex>
					</link>
					<link>
						<linkclipref>DYR18121_01 3</linkclipref>
						<mediatype>audio</mediatype>
						<trackindex>1</trackindex>
						<clipindex>86</clipindex>
					</link>
					<link>
						<linkclipref>DYR18121_01 4</linkclipref>
						<mediatype>audio</mediatype>
						<trackindex>2</trackindex>
						<clipindex>83</clipindex>
					</link>
					<itemhistory>
						<uuid>0D378C60-24A6-41AF-9A3D-EC3503E38AD6</uuid>
					</itemhistory>
				</clipitem>
				<transitionitem>
					<rate>
						<ntsc>FALSE</ntsc>
						<timebase>25</timebase>
					</rate>
					<start>9332</start>
					<end>9342</end>
					<alignment>center</alignment>
					<effect>
						<name>Cross Fade (+3dB)</name>
						<effectid>KGAudioTransCrossFade3dB</effectid>
						<effecttype>transition</effecttype>
						<mediatype>audio</mediatype>
					</effect>
				</transitionitem>
				<clipitem id="DYR18118_01 7">
					<name>DYR18118_01</name>
					<duration>1491</duration>
					<rate>
						<ntsc>FALSE</ntsc>
						<timebase>25</timebase>
					</rate>
					<in>435</in>
					<out>537</out>
					<start>-1</start>
					<end>-1</end>
					<subframeoffset>0</subframeoffset>
					<masterclipid>DYR18118_01 1</masterclipid>
					<logginginfo>
						<scene/>
						<shottake/>
						<lognote/>
						<good>FALSE</good>
					</logginginfo>
					<labels>
						<label2/>
					</labels>
					<comments>
						<mastercomment1/>
						<mastercomment2/>
						<mastercomment3/>
						<mastercomment4/>
					</comments>
					<file id="DYR18118_01 2"/>
					<filter>
						<effect>
							<name>Audio Levels</name>
							<effectid>audiolevels</effectid>
							<effectcategory>audiolevels</effectcategory>
							<effecttype>audiolevels</effecttype>
							<mediatype>audio</mediatype>
							<parameter>
								<name>Level</name>
								<parameterid>level</parameterid>
								<valuemin>0</valuemin>
								<valuemax>3.98109</valuemax>
								<value>0.112202</value>
							</parameter>
						</effect>
					</filter>
					<filter>
						<effect>
							<name>Audio Pan</name>
							<effectid>audiopan</effectid>
							<effectcategory>audiopan</effectcategory>
							<effecttype>audiopan</effecttype>
							<mediatype>audio</mediatype>
							<parameter>
								<name>Pan</name>
								<parameterid>pan</parameterid>
								<valuemin>-1</valuemin>
								<valuemax>1</valuemax>
								<value>0</value>
							</parameter>
						</effect>
					</filter>
					<sourcetrack>
						<mediatype>audio</mediatype>
						<trackindex>2</trackindex>
					</sourcetrack>
					<link>
						<linkclipref>DYR18118_01 5</linkclipref>
						<mediatype>video</mediatype>
						<trackindex>1</trackindex>
						<clipindex>89</clipindex>
					</link>
					<link>
						<linkclipref>DYR18118_01 6</linkclipref>
						<mediatype>audio</mediatype>
						<trackindex>1</trackindex>
						<clipindex>88</clipindex>
					</link>
					<link>
						<linkclipref>DYR18118_01 7</linkclipref>
						<mediatype>audio</mediatype>
						<trackindex>2</trackindex>
						<clipindex>85</clipindex>
					</link>
					<itemhistory>
						<uuid>E67B5ED9-07E7-4B37-9C54-FC18B37E8391</uuid>
					</itemhistory>
				</clipitem>
				<transitionitem>
					<rate>
						<ntsc>FALSE</ntsc>
						<timebase>25</timebase>
					</rate>
					<start>9424</start>
					<end>9434</end>
					<alignment>center</alignment>
					<effect>
						<name>Cross Fade (+3dB)</name>
						<effectid>KGAudioTransCrossFade3dB</effectid>
						<effecttype>transition</effecttype>
						<mediatype>audio</mediatype>
					</effect>
				</transitionitem>
				<clipitem id="DYR18121_01 6">
					<name>DYR18121_01</name>
					<duration>244</duration>
					<rate>
						<ntsc>FALSE</ntsc>
						<timebase>25</timebase>
					</rate>
					<in>147</in>
					<out>240</out>
					<start>-1</start>
					<end>-1</end>
					<subframeoffset>0</subframeoffset>
					<masterclipid>DYR18121_01 1</masterclipid>
					<logginginfo>
						<scene/>
						<shottake/>
						<lognote/>
						<good>FALSE</good>
					</logginginfo>
					<labels>
						<label2/>
					</labels>
					<comments>
						<mastercomment1/>
						<mastercomment2/>
						<mastercomment3/>
						<mastercomment4/>
					</comments>
					<file id="DYR18121_01 2"/>
					<filter>
						<effect>
							<name>Audio Levels</name>
							<effectid>audiolevels</effectid>
							<effectcategory>audiolevels</effectcategory>
							<effecttype>audiolevels</effecttype>
							<mediatype>audio</mediatype>
							<parameter>
								<name>Level</name>
								<parameterid>level</parameterid>
								<valuemin>0</valuemin>
								<valuemax>3.98109</valuemax>
								<value>0.446684</value>
							</parameter>
						</effect>
					</filter>
					<filter>
						<effect>
							<name>Audio Pan</name>
							<effectid>audiopan</effectid>
							<effectcategory>audiopan</effectcategory>
							<effecttype>audiopan</effecttype>
							<mediatype>audio</mediatype>
							<parameter>
								<name>Pan</name>
								<parameterid>pan</parameterid>
								<valuemin>-1</valuemin>
								<valuemax>1</valuemax>
								<value>0</value>
							</parameter>
						</effect>
					</filter>
					<sourcetrack>
						<mediatype>audio</mediatype>
						<trackindex>2</trackindex>
					</sourcetrack>
					<link>
						<linkclipref>DYR18121_01 5</linkclipref>
						<mediatype>audio</mediatype>
						<trackindex>1</trackindex>
						<clipindex>90</clipindex>
					</link>
					<link>
						<linkclipref>DYR18121_01 6</linkclipref>
						<mediatype>audio</mediatype>
						<trackindex>2</trackindex>
						<clipindex>87</clipindex>
					</link>
					<itemhistory>
						<uuid>9C65CF65-C519-4D18-B872-439E78B9EC0C</uuid>
					</itemhistory>
				</clipitem>
				<transitionitem>
					<rate>
						<ntsc>FALSE</ntsc>
						<timebase>25</timebase>
					</rate>
					<start>9492</start>
					<end>9517</end>
					<alignment>center</alignment>
					<effect>
						<name>Cross Fade (+3dB)</name>
						<effectid>KGAudioTransCrossFade3dB</effectid>
						<effecttype>transition</effecttype>
						<mediatype>audio</mediatype>
					</effect>
				</transitionitem>
				<clipitem id="00729001.MOV3">
					<name>00729001.MOV</name>
					<duration>4884</duration>
					<rate>
						<ntsc>FALSE</ntsc>
						<timebase>25</timebase>
					</rate>
					<in>3808</in>
					<out>4631</out>
					<start>-1</start>
					<end>-1</end>
					<subframeoffset>0</subframeoffset>
					<enabled>TRUE</enabled>
					<masterclipid>00729001.MOV1</masterclipid>
					<syncoffset>0</syncoffset>
					<logginginfo>
						<scene/>
						<shottake/>
						<lognote/>
						<good>FALSE</good>
					</logginginfo>
					<labels>
						<label2/>
					</labels>
					<comments>
						<mastercomment1/>
						<mastercomment2/>
						<mastercomment3/>
						<mastercomment4/>
					</comments>
					<file id="00729001 "/>
					<filter>
						<effect>
							<name>Audio Levels</name>
							<effectid>audiolevels</effectid>
							<effectcategory>audiolevels</effectcategory>
							<effecttype>audiolevels</effecttype>
							<mediatype>audio</mediatype>
							<parameter>
								<name>Level</name>
								<parameterid>level</parameterid>
								<valuemin>0</valuemin>
								<valuemax>3.98109</valuemax>
								<keyframe>
									<when>3831.71</when>
									<value>1.99526</value>
								</keyframe>
								<interpolation>
									<name>FCPCurve</name>
								</interpolation>
								<value>1.99526</value>
							</parameter>
						</effect>
					</filter>
					<filter>
						<effect>
							<name>Audio Pan</name>
							<effectid>audiopan</effectid>
							<effectcategory>audiopan</effectcategory>
							<effecttype>audiopan</effecttype>
							<mediatype>audio</mediatype>
							<parameter>
								<name>Pan</name>
								<parameterid>pan</parameterid>
								<valuemin>-1</valuemin>
								<valuemax>1</valuemax>
								<value>0</value>
							</parameter>
						</effect>
					</filter>
					<sourcetrack>
						<mediatype>audio</mediatype>
						<trackindex>2</trackindex>
					</sourcetrack>
					<link>
						<linkclipref>00729001.MOV</linkclipref>
						<mediatype>video</mediatype>
						<trackindex>1</trackindex>
						<clipindex>92</clipindex>
					</link>
					<link>
						<linkclipref>00729001.MOV2</linkclipref>
						<mediatype>audio</mediatype>
						<trackindex>1</trackindex>
						<clipindex>92</clipindex>
					</link>
					<link>
						<linkclipref>00729001.MOV3</linkclipref>
						<mediatype>audio</mediatype>
						<trackindex>2</trackindex>
						<clipindex>89</clipindex>
					</link>
					<itemhistory>
						<uuid>DCF04BE1-AF45-4A64-B7A3-67D79DB4AAB1</uuid>
					</itemhistory>
				</clipitem>
				<transitionitem>
					<rate>
						<ntsc>FALSE</ntsc>
						<timebase>25</timebase>
					</rate>
					<start>10290</start>
					<end>10315</end>
					<alignment>center</alignment>
					<effect>
						<name>Cross Fade (+3dB)</name>
						<effectid>KGAudioTransCrossFade3dB</effectid>
						<effecttype>transition</effecttype>
						<mediatype>audio</mediatype>
					</effect>
				</transitionitem>
				<clipitem id="00844001.MOV2">
					<name>00844001.MOV</name>
					<duration>804</duration>
					<rate>
						<ntsc>FALSE</ntsc>
						<timebase>25</timebase>
					</rate>
					<in>321</in>
					<out>702</out>
					<start>-1</start>
					<end>10671</end>
					<subframeoffset>0</subframeoffset>
					<enabled>TRUE</enabled>
					<masterclipid>00844001.MOV1</masterclipid>
					<logginginfo>
						<scene/>
						<shottake/>
						<lognote/>
						<good>FALSE</good>
					</logginginfo>
					<labels>
						<label2/>
					</labels>
					<comments>
						<mastercomment1/>
						<mastercomment2/>
						<mastercomment3/>
						<mastercomment4/>
					</comments>
					<file id="00844001 "/>
					<filter>
						<effect>
							<name>Audio Levels</name>
							<effectid>audiolevels</effectid>
							<effectcategory>audiolevels</effectcategory>
							<effecttype>audiolevels</effecttype>
							<mediatype>audio</mediatype>
							<parameter>
								<name>Level</name>
								<parameterid>level</parameterid>
								<valuemin>0</valuemin>
								<valuemax>3.98109</valuemax>
								<value>2.23872</value>
							</parameter>
						</effect>
					</filter>
					<filter>
						<effect>
							<name>Audio Pan</name>
							<effectid>audiopan</effectid>
							<effectcategory>audiopan</effectcategory>
							<effecttype>audiopan</effecttype>
							<mediatype>audio</mediatype>
							<parameter>
								<name>Pan</name>
								<parameterid>pan</parameterid>
								<valuemin>-1</valuemin>
								<valuemax>1</valuemax>
								<value>0</value>
							</parameter>
						</effect>
					</filter>
					<sourcetrack>
						<mediatype>audio</mediatype>
						<trackindex>2</trackindex>
					</sourcetrack>
					<link>
						<linkclipref>00844001.MOV</linkclipref>
						<mediatype>video</mediatype>
						<trackindex>1</trackindex>
						<clipindex>94</clipindex>
					</link>
					<link>
						<linkclipref>00844001.MOV2</linkclipref>
						<mediatype>audio</mediatype>
						<trackindex>2</trackindex>
						<clipindex>91</clipindex>
					</link>
					<itemhistory>
						<uuid>83CF4E36-A5B2-474F-8C93-8C28E4A735B0</uuid>
					</itemhistory>
				</clipitem>
				<clipitem id="00846001.MOV2">
					<name>00846001.MOV</name>
					<duration>2208</duration>
					<rate>
						<ntsc>FALSE</ntsc>
						<timebase>25</timebase>
					</rate>
					<in>324</in>
					<out>621</out>
					<start>10747</start>
					<end>11044</end>
					<subframeoffset>0</subframeoffset>
					<enabled>TRUE</enabled>
					<masterclipid>00846001.MOV1</masterclipid>
					<logginginfo>
						<scene/>
						<shottake/>
						<lognote/>
						<good>FALSE</good>
					</logginginfo>
					<labels>
						<label2/>
					</labels>
					<comments>
						<mastercomment1/>
						<mastercomment2/>
						<mastercomment3/>
						<mastercomment4/>
					</comments>
					<file id="00846001 "/>
					<filter>
						<effect>
							<name>Audio Levels</name>
							<effectid>audiolevels</effectid>
							<effectcategory>audiolevels</effectcategory>
							<effecttype>audiolevels</effecttype>
							<mediatype>audio</mediatype>
							<parameter>
								<name>Level</name>
								<parameterid>level</parameterid>
								<valuemin>0</valuemin>
								<valuemax>3.98109</valuemax>
								<value>2.51189</value>
							</parameter>
						</effect>
					</filter>
					<filter>
						<effect>
							<name>Audio Pan</name>
							<effectid>audiopan</effectid>
							<effectcategory>audiopan</effectcategory>
							<effecttype>audiopan</effecttype>
							<mediatype>audio</mediatype>
							<parameter>
								<name>Pan</name>
								<parameterid>pan</parameterid>
								<valuemin>-1</valuemin>
								<valuemax>1</valuemax>
								<value>0</value>
							</parameter>
						</effect>
					</filter>
					<sourcetrack>
						<mediatype>audio</mediatype>
						<trackindex>2</trackindex>
					</sourcetrack>
					<link>
						<linkclipref>00846001.MOV</linkclipref>
						<mediatype>video</mediatype>
						<trackindex>1</trackindex>
						<clipindex>97</clipindex>
					</link>
					<link>
						<linkclipref>00846001.MOV2</linkclipref>
						<mediatype>audio</mediatype>
						<trackindex>2</trackindex>
						<clipindex>92</clipindex>
					</link>
					<itemhistory>
						<uuid>C8C208E4-DF90-4163-9A14-F6D6B8CAEC01</uuid>
					</itemhistory>
				</clipitem>
				<clipitem id="00846001.MOV3">
					<name>00846001.MOV</name>
					<duration>2208</duration>
					<rate>
						<ntsc>FALSE</ntsc>
						<timebase>25</timebase>
					</rate>
					<in>663</in>
					<out>712</out>
					<start>11044</start>
					<end>11093</end>
					<subframeoffset>0</subframeoffset>
					<masterclipid>00846001.MOV1</masterclipid>
					<logginginfo>
						<scene/>
						<shottake/>
						<lognote/>
						<good>FALSE</good>
					</logginginfo>
					<labels>
						<label2/>
					</labels>
					<comments>
						<mastercomment1/>
						<mastercomment2/>
						<mastercomment3/>
						<mastercomment4/>
					</comments>
					<file id="00846001 "/>
					<filter>
						<effect>
							<name>Audio Levels</name>
							<effectid>audiolevels</effectid>
							<effectcategory>audiolevels</effectcategory>
							<effecttype>audiolevels</effecttype>
							<mediatype>audio</mediatype>
							<parameter>
								<name>Level</name>
								<parameterid>level</parameterid>
								<valuemin>0</valuemin>
								<valuemax>3.98109</valuemax>
								<value>2.51189</value>
							</parameter>
						</effect>
					</filter>
					<filter>
						<effect>
							<name>Audio Pan</name>
							<effectid>audiopan</effectid>
							<effectcategory>audiopan</effectcategory>
							<effecttype>audiopan</effecttype>
							<mediatype>audio</mediatype>
							<parameter>
								<name>Pan</name>
								<parameterid>pan</parameterid>
								<valuemin>-1</valuemin>
								<valuemax>1</valuemax>
								<value>0</value>
							</parameter>
						</effect>
					</filter>
					<sourcetrack>
						<mediatype>audio</mediatype>
						<trackindex>2</trackindex>
					</sourcetrack>
					<itemhistory>
						<uuid>489EC1B8-6EB4-4CB5-83E6-DF42BE9221A9</uuid>
					</itemhistory>
				</clipitem>
				<clipitem id="00846001.MOV4">
					<name>00846001.MOV</name>
					<duration>2208</duration>
					<rate>
						<ntsc>FALSE</ntsc>
						<timebase>25</timebase>
					</rate>
					<in>712</in>
					<out>785</out>
					<start>11127</start>
					<end>11200</end>
					<subframeoffset>0</subframeoffset>
					<masterclipid>00846001.MOV1</masterclipid>
					<logginginfo>
						<scene/>
						<shottake/>
						<lognote/>
						<good>FALSE</good>
					</logginginfo>
					<labels>
						<label2/>
					</labels>
					<comments>
						<mastercomment1/>
						<mastercomment2/>
						<mastercomment3/>
						<mastercomment4/>
					</comments>
					<file id="00846001 "/>
					<filter>
						<effect>
							<name>Audio Levels</name>
							<effectid>audiolevels</effectid>
							<effectcategory>audiolevels</effectcategory>
							<effecttype>audiolevels</effecttype>
							<mediatype>audio</mediatype>
							<parameter>
								<name>Level</name>
								<parameterid>level</parameterid>
								<valuemin>0</valuemin>
								<valuemax>3.98109</valuemax>
								<value>2.51189</value>
							</parameter>
						</effect>
					</filter>
					<filter>
						<effect>
							<name>Audio Pan</name>
							<effectid>audiopan</effectid>
							<effectcategory>audiopan</effectcategory>
							<effecttype>audiopan</effecttype>
							<mediatype>audio</mediatype>
							<parameter>
								<name>Pan</name>
								<parameterid>pan</parameterid>
								<valuemin>-1</valuemin>
								<valuemax>1</valuemax>
								<value>0</value>
							</parameter>
						</effect>
					</filter>
					<sourcetrack>
						<mediatype>audio</mediatype>
						<trackindex>2</trackindex>
					</sourcetrack>
					<itemhistory>
						<uuid>D732DDE3-1408-45C0-B44F-39C522C3FD3F</uuid>
					</itemhistory>
				</clipitem>
				<clipitem id="00850001.MOV2">
					<name>00850001.MOV</name>
					<duration>876</duration>
					<rate>
						<ntsc>FALSE</ntsc>
						<timebase>25</timebase>
					</rate>
					<in>517</in>
					<out>672</out>
					<start>11228</start>
					<end>11383</end>
					<subframeoffset>0</subframeoffset>
					<enabled>TRUE</enabled>
					<masterclipid>00850001.MOV1</masterclipid>
					<logginginfo>
						<scene/>
						<shottake/>
						<lognote/>
						<good>FALSE</good>
					</logginginfo>
					<labels>
						<label2/>
					</labels>
					<comments>
						<mastercomment1/>
						<mastercomment2/>
						<mastercomment3/>
						<mastercomment4/>
					</comments>
					<file id="00850001 "/>
					<filter>
						<effect>
							<name>Audio Levels</name>
							<effectid>audiolevels</effectid>
							<effectcategory>audiolevels</effectcategory>
							<effecttype>audiolevels</effecttype>
							<mediatype>audio</mediatype>
							<parameter>
								<name>Level</name>
								<parameterid>level</parameterid>
								<valuemin>0</valuemin>
								<valuemax>3.98109</valuemax>
								<value>2.51189</value>
							</parameter>
						</effect>
					</filter>
					<filter>
						<effect>
							<name>Audio Pan</name>
							<effectid>audiopan</effectid>
							<effectcategory>audiopan</effectcategory>
							<effecttype>audiopan</effecttype>
							<mediatype>audio</mediatype>
							<parameter>
								<name>Pan</name>
								<parameterid>pan</parameterid>
								<valuemin>-1</valuemin>
								<valuemax>1</valuemax>
								<value>0</value>
							</parameter>
						</effect>
					</filter>
					<sourcetrack>
						<mediatype>audio</mediatype>
						<trackindex>2</trackindex>
					</sourcetrack>
					<link>
						<linkclipref>00850001.MOV</linkclipref>
						<mediatype>video</mediatype>
						<trackindex>1</trackindex>
						<clipindex>100</clipindex>
					</link>
					<link>
						<linkclipref>00850001.MOV2</linkclipref>
						<mediatype>audio</mediatype>
						<trackindex>2</trackindex>
						<clipindex>95</clipindex>
					</link>
					<itemhistory>
						<uuid>5CF6DA18-3254-468A-9477-C103F7472AA6</uuid>
					</itemhistory>
				</clipitem>
				<clipitem id="00851001.MOV2">
					<name>00851001.MOV</name>
					<duration>1464</duration>
					<rate>
						<ntsc>FALSE</ntsc>
						<timebase>25</timebase>
					</rate>
					<in>272</in>
					<out>439</out>
					<start>11383</start>
					<end>11550</end>
					<subframeoffset>0</subframeoffset>
					<masterclipid>00851001.MOV1</masterclipid>
					<logginginfo>
						<scene/>
						<shottake/>
						<lognote/>
						<good>FALSE</good>
					</logginginfo>
					<labels>
						<label2/>
					</labels>
					<comments>
						<mastercomment1/>
						<mastercomment2/>
						<mastercomment3/>
						<mastercomment4/>
					</comments>
					<file id="00851001 "/>
					<filter>
						<effect>
							<name>Audio Levels</name>
							<effectid>audiolevels</effectid>
							<effectcategory>audiolevels</effectcategory>
							<effecttype>audiolevels</effecttype>
							<mediatype>audio</mediatype>
							<parameter>
								<name>Level</name>
								<parameterid>level</parameterid>
								<valuemin>0</valuemin>
								<valuemax>3.98109</valuemax>
								<value>2.51189</value>
							</parameter>
						</effect>
					</filter>
					<filter>
						<effect>
							<name>Audio Pan</name>
							<effectid>audiopan</effectid>
							<effectcategory>audiopan</effectcategory>
							<effecttype>audiopan</effecttype>
							<mediatype>audio</mediatype>
							<parameter>
								<name>Pan</name>
								<parameterid>pan</parameterid>
								<valuemin>-1</valuemin>
								<valuemax>1</valuemax>
								<value>0</value>
							</parameter>
						</effect>
					</filter>
					<sourcetrack>
						<mediatype>audio</mediatype>
						<trackindex>2</trackindex>
					</sourcetrack>
					<link>
						<linkclipref>00851001.MOV</linkclipref>
						<mediatype>video</mediatype>
						<trackindex>1</trackindex>
						<clipindex>101</clipindex>
					</link>
					<link>
						<linkclipref>00851001.MOV2</linkclipref>
						<mediatype>audio</mediatype>
						<trackindex>2</trackindex>
						<clipindex>96</clipindex>
					</link>
					<itemhistory>
						<uuid>C7A67EBB-5BE8-43FA-B5E8-AA59F12E349A</uuid>
					</itemhistory>
				</clipitem>
				<transitionitem>
					<rate>
						<ntsc>FALSE</ntsc>
						<timebase>25</timebase>
					</rate>
					<start>11567</start>
					<end>11592</end>
					<alignment>start-black</alignment>
					<effect>
						<name>Cross Fade (+3dB)</name>
						<effectid>KGAudioTransCrossFade3dB</effectid>
						<effecttype>transition</effecttype>
						<mediatype>audio</mediatype>
					</effect>
				</transitionitem>
				<clipitem id="00731001.MOV3">
					<name>00731001.MOV</name>
					<duration>1008</duration>
					<rate>
						<ntsc>FALSE</ntsc>
						<timebase>25</timebase>
					</rate>
					<in>207</in>
					<out>882</out>
					<start>-1</start>
					<end>12242</end>
					<subframeoffset>0</subframeoffset>
					<masterclipid>00731001.MOV1</masterclipid>
					<syncoffset>0</syncoffset>
					<logginginfo>
						<scene/>
						<shottake/>
						<lognote/>
						<good>FALSE</good>
					</logginginfo>
					<labels>
						<label2/>
					</labels>
					<comments>
						<mastercomment1/>
						<mastercomment2/>
						<mastercomment3/>
						<mastercomment4/>
					</comments>
					<file id="00731001 "/>
					<filter>
						<effect>
							<name>Audio Levels</name>
							<effectid>audiolevels</effectid>
							<effectcategory>audiolevels</effectcategory>
							<effecttype>audiolevels</effecttype>
							<mediatype>audio</mediatype>
							<parameter>
								<name>Level</name>
								<parameterid>level</parameterid>
								<valuemin>0</valuemin>
								<valuemax>3.98109</valuemax>
								<value>2.51189</value>
							</parameter>
						</effect>
					</filter>
					<filter>
						<effect>
							<name>Audio Pan</name>
							<effectid>audiopan</effectid>
							<effectcategory>audiopan</effectcategory>
							<effecttype>audiopan</effecttype>
							<mediatype>audio</mediatype>
							<parameter>
								<name>Pan</name>
								<parameterid>pan</parameterid>
								<valuemin>-1</valuemin>
								<valuemax>1</valuemax>
								<value>0</value>
							</parameter>
						</effect>
					</filter>
					<sourcetrack>
						<mediatype>audio</mediatype>
						<trackindex>2</trackindex>
					</sourcetrack>
					<link>
						<linkclipref>00731001.MOV</linkclipref>
						<mediatype>video</mediatype>
						<trackindex>2</trackindex>
						<clipindex>27</clipindex>
					</link>
					<link>
						<linkclipref>00731001.MOV2</linkclipref>
						<mediatype>audio</mediatype>
						<trackindex>1</trackindex>
						<clipindex>94</clipindex>
					</link>
					<link>
						<linkclipref>00731001.MOV3</linkclipref>
						<mediatype>audio</mediatype>
						<trackindex>2</trackindex>
						<clipindex>98</clipindex>
					</link>
					<itemhistory>
						<uuid>ED97C815-423D-413A-A7D7-DDBC22B4C74F</uuid>
					</itemhistory>
				</clipitem>
				<clipitem id="00735001.MOV3">
					<name>00735001.MOV</name>
					<duration>1308</duration>
					<rate>
						<ntsc>FALSE</ntsc>
						<timebase>25</timebase>
					</rate>
					<in>841</in>
					<out>945</out>
					<start>12242</start>
					<end>12346</end>
					<subframeoffset>0</subframeoffset>
					<enabled>TRUE</enabled>
					<masterclipid>00735001.MOV1</masterclipid>
					<syncoffset>0</syncoffset>
					<logginginfo>
						<scene/>
						<shottake/>
						<lognote/>
						<good>FALSE</good>
					</logginginfo>
					<labels>
						<label2/>
					</labels>
					<comments>
						<mastercomment1/>
						<mastercomment2/>
						<mastercomment3/>
						<mastercomment4/>
					</comments>
					<file id="00735001 "/>
					<filter>
						<effect>
							<name>Audio Levels</name>
							<effectid>audiolevels</effectid>
							<effectcategory>audiolevels</effectcategory>
							<effecttype>audiolevels</effecttype>
							<mediatype>audio</mediatype>
							<parameter>
								<name>Level</name>
								<parameterid>level</parameterid>
								<valuemin>0</valuemin>
								<valuemax>3.98109</valuemax>
								<value>1</value>
							</parameter>
						</effect>
					</filter>
					<filter>
						<effect>
							<name>Audio Pan</name>
							<effectid>audiopan</effectid>
							<effectcategory>audiopan</effectcategory>
							<effecttype>audiopan</effecttype>
							<mediatype>audio</mediatype>
							<parameter>
								<name>Pan</name>
								<parameterid>pan</parameterid>
								<valuemin>-1</valuemin>
								<valuemax>1</valuemax>
								<value>0</value>
							</parameter>
						</effect>
					</filter>
					<sourcetrack>
						<mediatype>audio</mediatype>
						<trackindex>2</trackindex>
					</sourcetrack>
					<link>
						<linkclipref>00735001.MOV</linkclipref>
						<mediatype>video</mediatype>
						<trackindex>1</trackindex>
						<clipindex>102</clipindex>
					</link>
					<link>
						<linkclipref>00735001.MOV2</linkclipref>
						<mediatype>audio</mediatype>
						<trackindex>1</trackindex>
						<clipindex>95</clipindex>
					</link>
					<link>
						<linkclipref>00735001.MOV3</linkclipref>
						<mediatype>audio</mediatype>
						<trackindex>2</trackindex>
						<clipindex>99</clipindex>
					</link>
					<itemhistory>
						<uuid>95431A66-A172-4622-8F86-6AD684E0C9FE</uuid>
					</itemhistory>
				</clipitem>
				<clipitem id="00735001.MOV6">
					<name>00735001.MOV</name>
					<duration>1308</duration>
					<rate>
						<ntsc>FALSE</ntsc>
						<timebase>25</timebase>
					</rate>
					<in>945</in>
					<out>1153</out>
					<start>12430</start>
					<end>12638</end>
					<subframeoffset>0</subframeoffset>
					<enabled>TRUE</enabled>
					<masterclipid>00735001.MOV1</masterclipid>
					<syncoffset>0</syncoffset>
					<logginginfo>
						<scene/>
						<shottake/>
						<lognote/>
						<good>FALSE</good>
					</logginginfo>
					<labels>
						<label2/>
					</labels>
					<comments>
						<mastercomment1/>
						<mastercomment2/>
						<mastercomment3/>
						<mastercomment4/>
					</comments>
					<file id="00735001 "/>
					<filter>
						<effect>
							<name>Audio Levels</name>
							<effectid>audiolevels</effectid>
							<effectcategory>audiolevels</effectcategory>
							<effecttype>audiolevels</effecttype>
							<mediatype>audio</mediatype>
							<parameter>
								<name>Level</name>
								<parameterid>level</parameterid>
								<valuemin>0</valuemin>
								<valuemax>3.98109</valuemax>
								<value>2.23872</value>
							</parameter>
						</effect>
					</filter>
					<filter>
						<effect>
							<name>Audio Pan</name>
							<effectid>audiopan</effectid>
							<effectcategory>audiopan</effectcategory>
							<effecttype>audiopan</effecttype>
							<mediatype>audio</mediatype>
							<parameter>
								<name>Pan</name>
								<parameterid>pan</parameterid>
								<valuemin>-1</valuemin>
								<valuemax>1</valuemax>
								<value>0</value>
							</parameter>
						</effect>
					</filter>
					<sourcetrack>
						<mediatype>audio</mediatype>
						<trackindex>2</trackindex>
					</sourcetrack>
					<link>
						<linkclipref>00735001.MOV4</linkclipref>
						<mediatype>video</mediatype>
						<trackindex>1</trackindex>
						<clipindex>103</clipindex>
					</link>
					<link>
						<linkclipref>00735001.MOV5</linkclipref>
						<mediatype>audio</mediatype>
						<trackindex>1</trackindex>
						<clipindex>96</clipindex>
					</link>
					<link>
						<linkclipref>00735001.MOV6</linkclipref>
						<mediatype>audio</mediatype>
						<trackindex>2</trackindex>
						<clipindex>100</clipindex>
					</link>
					<itemhistory>
						<uuid>BB82B494-803E-4585-8655-7A7BC023F60A</uuid>
					</itemhistory>
				</clipitem>
				<clipitem id="00736001.MOV3">
					<name>00736001.MOV</name>
					<duration>552</duration>
					<rate>
						<ntsc>FALSE</ntsc>
						<timebase>25</timebase>
					</rate>
					<in>296</in>
					<out>383</out>
					<start>12638</start>
					<end>-1</end>
					<subframeoffset>0</subframeoffset>
					<masterclipid>00736001.MOV1</masterclipid>
					<logginginfo>
						<scene/>
						<shottake/>
						<lognote/>
						<good>FALSE</good>
					</logginginfo>
					<labels>
						<label2/>
					</labels>
					<comments>
						<mastercomment1/>
						<mastercomment2/>
						<mastercomment3/>
						<mastercomment4/>
					</comments>
					<file id="00736001 "/>
					<filter>
						<effect>
							<name>Audio Levels</name>
							<effectid>audiolevels</effectid>
							<effectcategory>audiolevels</effectcategory>
							<effecttype>audiolevels</effecttype>
							<mediatype>audio</mediatype>
							<parameter>
								<name>Level</name>
								<parameterid>level</parameterid>
								<valuemin>0</valuemin>
								<valuemax>3.98109</valuemax>
								<value>1</value>
							</parameter>
						</effect>
					</filter>
					<filter>
						<effect>
							<name>Audio Pan</name>
							<effectid>audiopan</effectid>
							<effectcategory>audiopan</effectcategory>
							<effecttype>audiopan</effecttype>
							<mediatype>audio</mediatype>
							<parameter>
								<name>Pan</name>
								<parameterid>pan</parameterid>
								<valuemin>-1</valuemin>
								<valuemax>1</valuemax>
								<value>0</value>
							</parameter>
						</effect>
					</filter>
					<sourcetrack>
						<mediatype>audio</mediatype>
						<trackindex>2</trackindex>
					</sourcetrack>
					<link>
						<linkclipref>00736001.MOV</linkclipref>
						<mediatype>video</mediatype>
						<trackindex>1</trackindex>
						<clipindex>104</clipindex>
					</link>
					<link>
						<linkclipref>00736001.MOV2</linkclipref>
						<mediatype>audio</mediatype>
						<trackindex>1</trackindex>
						<clipindex>97</clipindex>
					</link>
					<link>
						<linkclipref>00736001.MOV3</linkclipref>
						<mediatype>audio</mediatype>
						<trackindex>2</trackindex>
						<clipindex>101</clipindex>
					</link>
					<itemhistory>
						<uuid>BF3227FB-D423-453D-B0E2-B7554153549C</uuid>
					</itemhistory>
				</clipitem>
				<transitionitem>
					<rate>
						<ntsc>FALSE</ntsc>
						<timebase>25</timebase>
					</rate>
					<start>12715</start>
					<end>12725</end>
					<alignment>center</alignment>
					<effect>
						<name>Cross Fade (+3dB)</name>
						<effectid>KGAudioTransCrossFade3dB</effectid>
						<effecttype>transition</effecttype>
						<mediatype>audio</mediatype>
					</effect>
				</transitionitem>
				<clipitem id="00740001.MOV3">
					<name>00740001.MOV</name>
					<duration>1440</duration>
					<rate>
						<ntsc>FALSE</ntsc>
						<timebase>25</timebase>
					</rate>
					<in>986</in>
					<out>1360</out>
					<start>-1</start>
					<end>13089</end>
					<subframeoffset>0</subframeoffset>
					<enabled>TRUE</enabled>
					<masterclipid>00740001.MOV1</masterclipid>
					<logginginfo>
						<scene/>
						<shottake/>
						<lognote/>
						<good>FALSE</good>
					</logginginfo>
					<labels>
						<label2/>
					</labels>
					<comments>
						<mastercomment1/>
						<mastercomment2/>
						<mastercomment3/>
						<mastercomment4/>
					</comments>
					<file id="00740001 "/>
					<filter>
						<effect>
							<name>Audio Levels</name>
							<effectid>audiolevels</effectid>
							<effectcategory>audiolevels</effectcategory>
							<effecttype>audiolevels</effecttype>
							<mediatype>audio</mediatype>
							<parameter>
								<name>Level</name>
								<parameterid>level</parameterid>
								<valuemin>0</valuemin>
								<valuemax>3.98109</valuemax>
								<value>1.58489</value>
							</parameter>
						</effect>
					</filter>
					<filter>
						<effect>
							<name>Audio Pan</name>
							<effectid>audiopan</effectid>
							<effectcategory>audiopan</effectcategory>
							<effecttype>audiopan</effecttype>
							<mediatype>audio</mediatype>
							<parameter>
								<name>Pan</name>
								<parameterid>pan</parameterid>
								<valuemin>-1</valuemin>
								<valuemax>1</valuemax>
								<value>0</value>
							</parameter>
						</effect>
					</filter>
					<sourcetrack>
						<mediatype>audio</mediatype>
						<trackindex>2</trackindex>
					</sourcetrack>
					<link>
						<linkclipref>00740001.MOV</linkclipref>
						<mediatype>video</mediatype>
						<trackindex>1</trackindex>
						<clipindex>105</clipindex>
					</link>
					<link>
						<linkclipref>00740001.MOV2</linkclipref>
						<mediatype>audio</mediatype>
						<trackindex>1</trackindex>
						<clipindex>99</clipindex>
					</link>
					<link>
						<linkclipref>00740001.MOV3</linkclipref>
						<mediatype>audio</mediatype>
						<trackindex>2</trackindex>
						<clipindex>103</clipindex>
					</link>
					<itemhistory>
						<uuid>E5BD922C-5AF8-465E-8F89-7E675BEC6378</uuid>
					</itemhistory>
				</clipitem>
				<clipitem id="00742001.MOV3">
					<name>00742001.MOV</name>
					<duration>780</duration>
					<rate>
						<ntsc>FALSE</ntsc>
						<timebase>25</timebase>
					</rate>
					<in>433</in>
					<out>610</out>
					<start>13089</start>
					<end>13266</end>
					<subframeoffset>0</subframeoffset>
					<enabled>TRUE</enabled>
					<masterclipid>00742001.MOV1</masterclipid>
					<logginginfo>
						<scene/>
						<shottake/>
						<lognote/>
						<good>FALSE</good>
					</logginginfo>
					<labels>
						<label2/>
					</labels>
					<comments>
						<mastercomment1/>
						<mastercomment2/>
						<mastercomment3/>
						<mastercomment4/>
					</comments>
					<file id="00742001 "/>
					<filter>
						<effect>
							<name>Audio Levels</name>
							<effectid>audiolevels</effectid>
							<effectcategory>audiolevels</effectcategory>
							<effecttype>audiolevels</effecttype>
							<mediatype>audio</mediatype>
							<parameter>
								<name>Level</name>
								<parameterid>level</parameterid>
								<valuemin>0</valuemin>
								<valuemax>3.98109</valuemax>
								<value>1</value>
							</parameter>
						</effect>
					</filter>
					<filter>
						<effect>
							<name>Audio Pan</name>
							<effectid>audiopan</effectid>
							<effectcategory>audiopan</effectcategory>
							<effecttype>audiopan</effecttype>
							<mediatype>audio</mediatype>
							<parameter>
								<name>Pan</name>
								<parameterid>pan</parameterid>
								<valuemin>-1</valuemin>
								<valuemax>1</valuemax>
								<value>0</value>
							</parameter>
						</effect>
					</filter>
					<sourcetrack>
						<mediatype>audio</mediatype>
						<trackindex>2</trackindex>
					</sourcetrack>
					<link>
						<linkclipref>00742001.MOV</linkclipref>
						<mediatype>video</mediatype>
						<trackindex>1</trackindex>
						<clipindex>106</clipindex>
					</link>
					<link>
						<linkclipref>00742001.MOV2</linkclipref>
						<mediatype>audio</mediatype>
						<trackindex>1</trackindex>
						<clipindex>100</clipindex>
					</link>
					<link>
						<linkclipref>00742001.MOV3</linkclipref>
						<mediatype>audio</mediatype>
						<trackindex>2</trackindex>
						<clipindex>104</clipindex>
					</link>
					<itemhistory>
						<uuid>EBE9FC35-ADEC-45DF-8362-7D20E0190C42</uuid>
					</itemhistory>
				</clipitem>
				<clipitem id="00748001.MOV3">
					<name>00748001.MOV</name>
					<duration>2712</duration>
					<rate>
						<ntsc>FALSE</ntsc>
						<timebase>25</timebase>
					</rate>
					<in>230</in>
					<out>426</out>
					<start>13266</start>
					<end>13462</end>
					<subframeoffset>0</subframeoffset>
					<enabled>TRUE</enabled>
					<masterclipid>00748001.MOV1</masterclipid>
					<logginginfo>
						<scene/>
						<shottake/>
						<lognote/>
						<good>FALSE</good>
					</logginginfo>
					<labels>
						<label2/>
					</labels>
					<comments>
						<mastercomment1/>
						<mastercomment2/>
						<mastercomment3/>
						<mastercomment4/>
					</comments>
					<file id="00748001 "/>
					<filter>
						<effect>
							<name>Audio Levels</name>
							<effectid>audiolevels</effectid>
							<effectcategory>audiolevels</effectcategory>
							<effecttype>audiolevels</effecttype>
							<mediatype>audio</mediatype>
							<parameter>
								<name>Level</name>
								<parameterid>level</parameterid>
								<valuemin>0</valuemin>
								<valuemax>3.98109</valuemax>
								<value>1</value>
							</parameter>
						</effect>
					</filter>
					<filter>
						<effect>
							<name>Audio Pan</name>
							<effectid>audiopan</effectid>
							<effectcategory>audiopan</effectcategory>
							<effecttype>audiopan</effecttype>
							<mediatype>audio</mediatype>
							<parameter>
								<name>Pan</name>
								<parameterid>pan</parameterid>
								<valuemin>-1</valuemin>
								<valuemax>1</valuemax>
								<value>0</value>
							</parameter>
						</effect>
					</filter>
					<sourcetrack>
						<mediatype>audio</mediatype>
						<trackindex>2</trackindex>
					</sourcetrack>
					<link>
						<linkclipref>00748001.MOV</linkclipref>
						<mediatype>video</mediatype>
						<trackindex>1</trackindex>
						<clipindex>107</clipindex>
					</link>
					<link>
						<linkclipref>00748001.MOV2</linkclipref>
						<mediatype>audio</mediatype>
						<trackindex>1</trackindex>
						<clipindex>101</clipindex>
					</link>
					<link>
						<linkclipref>00748001.MOV3</linkclipref>
						<mediatype>audio</mediatype>
						<trackindex>2</trackindex>
						<clipindex>105</clipindex>
					</link>
					<itemhistory>
						<uuid>F038B3EE-2D4A-4832-846A-673928163686</uuid>
					</itemhistory>
				</clipitem>
				<clipitem id="00748001.MOV7">
					<name>00748001.MOV</name>
					<duration>2712</duration>
					<rate>
						<ntsc>FALSE</ntsc>
						<timebase>25</timebase>
					</rate>
					<in>546</in>
					<out>571</out>
					<start>13462</start>
					<end>13487</end>
					<subframeoffset>0</subframeoffset>
					<masterclipid>00748001.MOV1</masterclipid>
					<logginginfo>
						<scene/>
						<shottake/>
						<lognote/>
						<good>FALSE</good>
					</logginginfo>
					<labels>
						<label2/>
					</labels>
					<comments>
						<mastercomment1/>
						<mastercomment2/>
						<mastercomment3/>
						<mastercomment4/>
					</comments>
					<file id="00748001 "/>
					<filter>
						<effect>
							<name>Audio Levels</name>
							<effectid>audiolevels</effectid>
							<effectcategory>audiolevels</effectcategory>
							<effecttype>audiolevels</effecttype>
							<mediatype>audio</mediatype>
							<parameter>
								<name>Level</name>
								<parameterid>level</parameterid>
								<valuemin>0</valuemin>
								<valuemax>3.98109</valuemax>
								<value>2.51189</value>
							</parameter>
						</effect>
					</filter>
					<filter>
						<effect>
							<name>Audio Pan</name>
							<effectid>audiopan</effectid>
							<effectcategory>audiopan</effectcategory>
							<effecttype>audiopan</effecttype>
							<mediatype>audio</mediatype>
							<parameter>
								<name>Pan</name>
								<parameterid>pan</parameterid>
								<valuemin>-1</valuemin>
								<valuemax>1</valuemax>
								<value>0</value>
							</parameter>
						</effect>
					</filter>
					<sourcetrack>
						<mediatype>audio</mediatype>
						<trackindex>2</trackindex>
					</sourcetrack>
					<link>
						<linkclipref>00748001.MOV6</linkclipref>
						<mediatype>audio</mediatype>
						<trackindex>1</trackindex>
						<clipindex>102</clipindex>
					</link>
					<link>
						<linkclipref>00748001.MOV7</linkclipref>
						<mediatype>audio</mediatype>
						<trackindex>2</trackindex>
						<clipindex>106</clipindex>
					</link>
					<itemhistory>
						<uuid>E9DF7585-7F37-4FF3-B3A2-59461EA40935</uuid>
					</itemhistory>
				</clipitem>
				<clipitem id="00748001.MOV9">
					<name>00748001.MOV</name>
					<duration>2712</duration>
					<rate>
						<ntsc>FALSE</ntsc>
						<timebase>25</timebase>
					</rate>
					<in>509</in>
					<out>535</out>
					<start>13487</start>
					<end>13513</end>
					<subframeoffset>0</subframeoffset>
					<masterclipid>00748001.MOV1</masterclipid>
					<logginginfo>
						<scene/>
						<shottake/>
						<lognote/>
						<good>FALSE</good>
					</logginginfo>
					<labels>
						<label2/>
					</labels>
					<comments>
						<mastercomment1/>
						<mastercomment2/>
						<mastercomment3/>
						<mastercomment4/>
					</comments>
					<file id="00748001 "/>
					<filter>
						<effect>
							<name>Audio Levels</name>
							<effectid>audiolevels</effectid>
							<effectcategory>audiolevels</effectcategory>
							<effecttype>audiolevels</effecttype>
							<mediatype>audio</mediatype>
							<parameter>
								<name>Level</name>
								<parameterid>level</parameterid>
								<valuemin>0</valuemin>
								<valuemax>3.98109</valuemax>
								<value>2.51189</value>
							</parameter>
						</effect>
					</filter>
					<filter>
						<effect>
							<name>Audio Pan</name>
							<effectid>audiopan</effectid>
							<effectcategory>audiopan</effectcategory>
							<effecttype>audiopan</effecttype>
							<mediatype>audio</mediatype>
							<parameter>
								<name>Pan</name>
								<parameterid>pan</parameterid>
								<valuemin>-1</valuemin>
								<valuemax>1</valuemax>
								<value>0</value>
							</parameter>
						</effect>
					</filter>
					<sourcetrack>
						<mediatype>audio</mediatype>
						<trackindex>2</trackindex>
					</sourcetrack>
					<link>
						<linkclipref>00748001.MOV8</linkclipref>
						<mediatype>audio</mediatype>
						<trackindex>1</trackindex>
						<clipindex>103</clipindex>
					</link>
					<link>
						<linkclipref>00748001.MOV9</linkclipref>
						<mediatype>audio</mediatype>
						<trackindex>2</trackindex>
						<clipindex>107</clipindex>
					</link>
					<itemhistory>
						<uuid>E4B21E36-592D-43B7-BC83-F0E060A25C02</uuid>
					</itemhistory>
				</clipitem>
				<clipitem id="00748001.MOV11">
					<name>00748001.MOV</name>
					<duration>2712</duration>
					<rate>
						<ntsc>FALSE</ntsc>
						<timebase>25</timebase>
					</rate>
					<in>639</in>
					<out>669</out>
					<start>13513</start>
					<end>13543</end>
					<subframeoffset>0</subframeoffset>
					<enabled>TRUE</enabled>
					<masterclipid>00748001.MOV1</masterclipid>
					<logginginfo>
						<scene/>
						<shottake/>
						<lognote/>
						<good>FALSE</good>
					</logginginfo>
					<labels>
						<label2/>
					</labels>
					<comments>
						<mastercomment1/>
						<mastercomment2/>
						<mastercomment3/>
						<mastercomment4/>
					</comments>
					<file id="00748001 "/>
					<filter>
						<effect>
							<name>Audio Levels</name>
							<effectid>audiolevels</effectid>
							<effectcategory>audiolevels</effectcategory>
							<effecttype>audiolevels</effecttype>
							<mediatype>audio</mediatype>
							<parameter>
								<name>Level</name>
								<parameterid>level</parameterid>
								<valuemin>0</valuemin>
								<valuemax>3.98109</valuemax>
								<value>2.51189</value>
							</parameter>
						</effect>
					</filter>
					<filter>
						<effect>
							<name>Audio Pan</name>
							<effectid>audiopan</effectid>
							<effectcategory>audiopan</effectcategory>
							<effecttype>audiopan</effecttype>
							<mediatype>audio</mediatype>
							<parameter>
								<name>Pan</name>
								<parameterid>pan</parameterid>
								<valuemin>-1</valuemin>
								<valuemax>1</valuemax>
								<value>0</value>
							</parameter>
						</effect>
					</filter>
					<sourcetrack>
						<mediatype>audio</mediatype>
						<trackindex>2</trackindex>
					</sourcetrack>
					<link>
						<linkclipref>00748001.MOV10</linkclipref>
						<mediatype>audio</mediatype>
						<trackindex>1</trackindex>
						<clipindex>104</clipindex>
					</link>
					<link>
						<linkclipref>00748001.MOV11</linkclipref>
						<mediatype>audio</mediatype>
						<trackindex>2</trackindex>
						<clipindex>108</clipindex>
					</link>
					<itemhistory>
						<uuid>7FA38045-4BDD-4A16-AEA1-8F54804FBD46</uuid>
					</itemhistory>
				</clipitem>
				<clipitem id="00769001.MOV9">
					<name>00769001.MOV</name>
					<duration>708</duration>
					<rate>
						<ntsc>FALSE</ntsc>
						<timebase>25</timebase>
					</rate>
					<in>71</in>
					<out>96</out>
					<start>13543</start>
					<end>13568</end>
					<subframeoffset>0</subframeoffset>
					<masterclipid>00769001.MOV1</masterclipid>
					<logginginfo>
						<scene/>
						<shottake/>
						<lognote/>
						<good>FALSE</good>
					</logginginfo>
					<labels>
						<label2/>
					</labels>
					<comments>
						<mastercomment1/>
						<mastercomment2/>
						<mastercomment3/>
						<mastercomment4/>
					</comments>
					<file id="00769001 "/>
					<filter>
						<effect>
							<name>Audio Levels</name>
							<effectid>audiolevels</effectid>
							<effectcategory>audiolevels</effectcategory>
							<effecttype>audiolevels</effecttype>
							<mediatype>audio</mediatype>
							<parameter>
								<name>Level</name>
								<parameterid>level</parameterid>
								<valuemin>0</valuemin>
								<valuemax>3.98109</valuemax>
								<value>0</value>
							</parameter>
						</effect>
					</filter>
					<filter>
						<effect>
							<name>Audio Pan</name>
							<effectid>audiopan</effectid>
							<effectcategory>audiopan</effectcategory>
							<effecttype>audiopan</effecttype>
							<mediatype>audio</mediatype>
							<parameter>
								<name>Pan</name>
								<parameterid>pan</parameterid>
								<valuemin>-1</valuemin>
								<valuemax>1</valuemax>
								<value>0</value>
							</parameter>
						</effect>
					</filter>
					<sourcetrack>
						<mediatype>audio</mediatype>
						<trackindex>2</trackindex>
					</sourcetrack>
					<link>
						<linkclipref>00769001.MOV8</linkclipref>
						<mediatype>audio</mediatype>
						<trackindex>1</trackindex>
						<clipindex>105</clipindex>
					</link>
					<link>
						<linkclipref>00769001.MOV9</linkclipref>
						<mediatype>audio</mediatype>
						<trackindex>2</trackindex>
						<clipindex>109</clipindex>
					</link>
					<itemhistory>
						<uuid>94F594D8-095D-4E54-B6F0-745C3182D1A1</uuid>
					</itemhistory>
				</clipitem>
				<clipitem id="00748001.MOV13">
					<name>00748001.MOV</name>
					<duration>2712</duration>
					<rate>
						<ntsc>FALSE</ntsc>
						<timebase>25</timebase>
					</rate>
					<in>1478</in>
					<out>2282</out>
					<start>13568</start>
					<end>14372</end>
					<subframeoffset>0</subframeoffset>
					<enabled>TRUE</enabled>
					<masterclipid>00748001.MOV1</masterclipid>
					<logginginfo>
						<scene/>
						<shottake/>
						<lognote/>
						<good>FALSE</good>
					</logginginfo>
					<labels>
						<label2/>
					</labels>
					<comments>
						<mastercomment1/>
						<mastercomment2/>
						<mastercomment3/>
						<mastercomment4/>
					</comments>
					<file id="00748001 "/>
					<filter>
						<effect>
							<name>Audio Levels</name>
							<effectid>audiolevels</effectid>
							<effectcategory>audiolevels</effectcategory>
							<effecttype>audiolevels</effecttype>
							<mediatype>audio</mediatype>
							<parameter>
								<name>Level</name>
								<parameterid>level</parameterid>
								<valuemin>0</valuemin>
								<valuemax>3.98109</valuemax>
								<value>1.77828</value>
							</parameter>
						</effect>
					</filter>
					<filter>
						<effect>
							<name>Audio Pan</name>
							<effectid>audiopan</effectid>
							<effectcategory>audiopan</effectcategory>
							<effecttype>audiopan</effecttype>
							<mediatype>audio</mediatype>
							<parameter>
								<name>Pan</name>
								<parameterid>pan</parameterid>
								<valuemin>-1</valuemin>
								<valuemax>1</valuemax>
								<value>0</value>
							</parameter>
						</effect>
					</filter>
					<sourcetrack>
						<mediatype>audio</mediatype>
						<trackindex>2</trackindex>
					</sourcetrack>
					<link>
						<linkclipref>00748001.MOV12</linkclipref>
						<mediatype>audio</mediatype>
						<trackindex>1</trackindex>
						<clipindex>106</clipindex>
					</link>
					<link>
						<linkclipref>00748001.MOV13</linkclipref>
						<mediatype>audio</mediatype>
						<trackindex>2</trackindex>
						<clipindex>110</clipindex>
					</link>
					<itemhistory>
						<uuid>04096319-B7EF-44B9-B750-984F626BF611</uuid>
					</itemhistory>
				</clipitem>
				<clipitem id="00750001.MOV3">
					<name>00750001.MOV</name>
					<duration>468</duration>
					<rate>
						<ntsc>FALSE</ntsc>
						<timebase>25</timebase>
					</rate>
					<in>284</in>
					<out>351</out>
					<start>14372</start>
					<end>14439</end>
					<subframeoffset>0</subframeoffset>
					<enabled>TRUE</enabled>
					<masterclipid>00750001.MOV1</masterclipid>
					<logginginfo>
						<scene/>
						<shottake/>
						<lognote/>
						<good>FALSE</good>
					</logginginfo>
					<labels>
						<label2/>
					</labels>
					<comments>
						<mastercomment1/>
						<mastercomment2/>
						<mastercomment3/>
						<mastercomment4/>
					</comments>
					<file id="00750001 "/>
					<filter>
						<effect>
							<name>Audio Levels</name>
							<effectid>audiolevels</effectid>
							<effectcategory>audiolevels</effectcategory>
							<effecttype>audiolevels</effecttype>
							<mediatype>audio</mediatype>
							<parameter>
								<name>Level</name>
								<parameterid>level</parameterid>
								<valuemin>0</valuemin>
								<valuemax>3.98109</valuemax>
								<value>1.99526</value>
							</parameter>
						</effect>
					</filter>
					<filter>
						<effect>
							<name>Audio Pan</name>
							<effectid>audiopan</effectid>
							<effectcategory>audiopan</effectcategory>
							<effecttype>audiopan</effecttype>
							<mediatype>audio</mediatype>
							<parameter>
								<name>Pan</name>
								<parameterid>pan</parameterid>
								<valuemin>-1</valuemin>
								<valuemax>1</valuemax>
								<value>0</value>
							</parameter>
						</effect>
					</filter>
					<sourcetrack>
						<mediatype>audio</mediatype>
						<trackindex>2</trackindex>
					</sourcetrack>
					<link>
						<linkclipref>00750001.MOV</linkclipref>
						<mediatype>video</mediatype>
						<trackindex>1</trackindex>
						<clipindex>110</clipindex>
					</link>
					<link>
						<linkclipref>00750001.MOV2</linkclipref>
						<mediatype>audio</mediatype>
						<trackindex>1</trackindex>
						<clipindex>107</clipindex>
					</link>
					<link>
						<linkclipref>00750001.MOV3</linkclipref>
						<mediatype>audio</mediatype>
						<trackindex>2</trackindex>
						<clipindex>111</clipindex>
					</link>
					<itemhistory>
						<uuid>C2C686F1-FC64-43A2-8270-5E3AF4BCA4AA</uuid>
					</itemhistory>
				</clipitem>
				<clipitem id="00767001.MOV10">
					<name>00767001.MOV</name>
					<duration>4836</duration>
					<rate>
						<ntsc>FALSE</ntsc>
						<timebase>25</timebase>
					</rate>
					<in>1188</in>
					<out>1344</out>
					<start>14439</start>
					<end>14595</end>
					<subframeoffset>0</subframeoffset>
					<masterclipid>00767001.MOV1</masterclipid>
					<logginginfo>
						<scene/>
						<shottake/>
						<lognote/>
						<good>FALSE</good>
					</logginginfo>
					<labels>
						<label2/>
					</labels>
					<comments>
						<mastercomment1/>
						<mastercomment2/>
						<mastercomment3/>
						<mastercomment4/>
					</comments>
					<file id="00767001 "/>
					<filter>
						<effect>
							<name>Audio Levels</name>
							<effectid>audiolevels</effectid>
							<effectcategory>audiolevels</effectcategory>
							<effecttype>audiolevels</effecttype>
							<mediatype>audio</mediatype>
							<parameter>
								<name>Level</name>
								<parameterid>level</parameterid>
								<valuemin>0</valuemin>
								<valuemax>3.98109</valuemax>
								<value>2.23872</value>
							</parameter>
						</effect>
					</filter>
					<filter>
						<effect>
							<name>Audio Pan</name>
							<effectid>audiopan</effectid>
							<effectcategory>audiopan</effectcategory>
							<effecttype>audiopan</effecttype>
							<mediatype>audio</mediatype>
							<parameter>
								<name>Pan</name>
								<parameterid>pan</parameterid>
								<valuemin>-1</valuemin>
								<valuemax>1</valuemax>
								<value>0</value>
							</parameter>
						</effect>
					</filter>
					<sourcetrack>
						<mediatype>audio</mediatype>
						<trackindex>2</trackindex>
					</sourcetrack>
					<link>
						<linkclipref>00767001.MOV9</linkclipref>
						<mediatype>audio</mediatype>
						<trackindex>1</trackindex>
						<clipindex>108</clipindex>
					</link>
					<link>
						<linkclipref>00767001.MOV10</linkclipref>
						<mediatype>audio</mediatype>
						<trackindex>2</trackindex>
						<clipindex>112</clipindex>
					</link>
					<itemhistory>
						<uuid>42E35235-1F7D-457C-9B54-6EE5502E9912</uuid>
					</itemhistory>
				</clipitem>
				<clipitem id="00752001.MOV3">
					<name>00752001.MOV</name>
					<duration>4716</duration>
					<rate>
						<ntsc>FALSE</ntsc>
						<timebase>25</timebase>
					</rate>
					<in>855</in>
					<out>863</out>
					<start>14595</start>
					<end>14603</end>
					<subframeoffset>0</subframeoffset>
					<enabled>TRUE</enabled>
					<masterclipid>00752001.MOV1</masterclipid>
					<logginginfo>
						<scene/>
						<shottake/>
						<lognote/>
						<good>FALSE</good>
					</logginginfo>
					<labels>
						<label2/>
					</labels>
					<comments>
						<mastercomment1/>
						<mastercomment2/>
						<mastercomment3/>
						<mastercomment4/>
					</comments>
					<file id="00752001 "/>
					<filter>
						<effect>
							<name>Audio Levels</name>
							<effectid>audiolevels</effectid>
							<effectcategory>audiolevels</effectcategory>
							<effecttype>audiolevels</effecttype>
							<mediatype>audio</mediatype>
							<parameter>
								<name>Level</name>
								<parameterid>level</parameterid>
								<valuemin>0</valuemin>
								<valuemax>3.98109</valuemax>
								<value>1</value>
							</parameter>
						</effect>
					</filter>
					<filter>
						<effect>
							<name>Audio Pan</name>
							<effectid>audiopan</effectid>
							<effectcategory>audiopan</effectcategory>
							<effecttype>audiopan</effecttype>
							<mediatype>audio</mediatype>
							<parameter>
								<name>Pan</name>
								<parameterid>pan</parameterid>
								<valuemin>-1</valuemin>
								<valuemax>1</valuemax>
								<value>0</value>
							</parameter>
						</effect>
					</filter>
					<sourcetrack>
						<mediatype>audio</mediatype>
						<trackindex>2</trackindex>
					</sourcetrack>
					<link>
						<linkclipref>00752001.MOV</linkclipref>
						<mediatype>video</mediatype>
						<trackindex>1</trackindex>
						<clipindex>111</clipindex>
					</link>
					<link>
						<linkclipref>00752001.MOV2</linkclipref>
						<mediatype>audio</mediatype>
						<trackindex>1</trackindex>
						<clipindex>109</clipindex>
					</link>
					<link>
						<linkclipref>00752001.MOV3</linkclipref>
						<mediatype>audio</mediatype>
						<trackindex>2</trackindex>
						<clipindex>113</clipindex>
					</link>
					<itemhistory>
						<uuid>42C892D2-1997-4801-BF06-61E71E5ADBF2</uuid>
					</itemhistory>
				</clipitem>
				<clipitem id="00767001.MOV12">
					<name>00767001.MOV</name>
					<duration>4836</duration>
					<rate>
						<ntsc>FALSE</ntsc>
						<timebase>25</timebase>
					</rate>
					<in>485</in>
					<out>502</out>
					<start>14603</start>
					<end>14620</end>
					<subframeoffset>0</subframeoffset>
					<masterclipid>00767001.MOV1</masterclipid>
					<logginginfo>
						<scene/>
						<shottake/>
						<lognote/>
						<good>FALSE</good>
					</logginginfo>
					<labels>
						<label2/>
					</labels>
					<comments>
						<mastercomment1/>
						<mastercomment2/>
						<mastercomment3/>
						<mastercomment4/>
					</comments>
					<file id="00767001 "/>
					<filter>
						<effect>
							<name>Audio Levels</name>
							<effectid>audiolevels</effectid>
							<effectcategory>audiolevels</effectcategory>
							<effecttype>audiolevels</effecttype>
							<mediatype>audio</mediatype>
							<parameter>
								<name>Level</name>
								<parameterid>level</parameterid>
								<valuemin>0</valuemin>
								<valuemax>3.98109</valuemax>
								<value>2.51189</value>
							</parameter>
						</effect>
					</filter>
					<filter>
						<effect>
							<name>Audio Pan</name>
							<effectid>audiopan</effectid>
							<effectcategory>audiopan</effectcategory>
							<effecttype>audiopan</effecttype>
							<mediatype>audio</mediatype>
							<parameter>
								<name>Pan</name>
								<parameterid>pan</parameterid>
								<valuemin>-1</valuemin>
								<valuemax>1</valuemax>
								<value>0</value>
							</parameter>
						</effect>
					</filter>
					<sourcetrack>
						<mediatype>audio</mediatype>
						<trackindex>2</trackindex>
					</sourcetrack>
					<link>
						<linkclipref>00767001.MOV11</linkclipref>
						<mediatype>audio</mediatype>
						<trackindex>1</trackindex>
						<clipindex>110</clipindex>
					</link>
					<link>
						<linkclipref>00767001.MOV12</linkclipref>
						<mediatype>audio</mediatype>
						<trackindex>2</trackindex>
						<clipindex>114</clipindex>
					</link>
					<itemhistory>
						<uuid>84A02B26-6A5A-4917-893F-61D5C0EA6349</uuid>
					</itemhistory>
				</clipitem>
				<clipitem id="00767001.MOV20">
					<name>00767001.MOV</name>
					<duration>4836</duration>
					<rate>
						<ntsc>FALSE</ntsc>
						<timebase>25</timebase>
					</rate>
					<in>403</in>
					<out>453</out>
					<start>14620</start>
					<end>14670</end>
					<subframeoffset>0</subframeoffset>
					<enabled>TRUE</enabled>
					<masterclipid>00767001.MOV1</masterclipid>
					<logginginfo>
						<scene/>
						<shottake/>
						<lognote/>
						<good>FALSE</good>
					</logginginfo>
					<labels>
						<label2/>
					</labels>
					<comments>
						<mastercomment1/>
						<mastercomment2/>
						<mastercomment3/>
						<mastercomment4/>
					</comments>
					<file id="00767001 "/>
					<filter>
						<effect>
							<name>Audio Levels</name>
							<effectid>audiolevels</effectid>
							<effectcategory>audiolevels</effectcategory>
							<effecttype>audiolevels</effecttype>
							<mediatype>audio</mediatype>
							<parameter>
								<name>Level</name>
								<parameterid>level</parameterid>
								<valuemin>0</valuemin>
								<valuemax>3.98109</valuemax>
								<value>1</value>
							</parameter>
						</effect>
					</filter>
					<filter>
						<effect>
							<name>Audio Pan</name>
							<effectid>audiopan</effectid>
							<effectcategory>audiopan</effectcategory>
							<effecttype>audiopan</effecttype>
							<mediatype>audio</mediatype>
							<parameter>
								<name>Pan</name>
								<parameterid>pan</parameterid>
								<valuemin>-1</valuemin>
								<valuemax>1</valuemax>
								<value>0</value>
							</parameter>
						</effect>
					</filter>
					<sourcetrack>
						<mediatype>audio</mediatype>
						<trackindex>2</trackindex>
					</sourcetrack>
					<itemhistory>
						<uuid>F6D2820F-846D-4AA6-8AB7-F730D87A4619</uuid>
					</itemhistory>
				</clipitem>
				<clipitem id="00767001.MOV15">
					<name>00767001.MOV</name>
					<duration>4836</duration>
					<rate>
						<ntsc>FALSE</ntsc>
						<timebase>25</timebase>
					</rate>
					<in>1393</in>
					<out>1425</out>
					<start>14670</start>
					<end>14702</end>
					<subframeoffset>0</subframeoffset>
					<enabled>TRUE</enabled>
					<masterclipid>00767001.MOV1</masterclipid>
					<logginginfo>
						<scene/>
						<shottake/>
						<lognote/>
						<good>FALSE</good>
					</logginginfo>
					<labels>
						<label2/>
					</labels>
					<comments>
						<mastercomment1/>
						<mastercomment2/>
						<mastercomment3/>
						<mastercomment4/>
					</comments>
					<file id="00767001 "/>
					<filter>
						<effect>
							<name>Audio Levels</name>
							<effectid>audiolevels</effectid>
							<effectcategory>audiolevels</effectcategory>
							<effecttype>audiolevels</effecttype>
							<mediatype>audio</mediatype>
							<parameter>
								<name>Level</name>
								<parameterid>level</parameterid>
								<valuemin>0</valuemin>
								<valuemax>3.98109</valuemax>
								<value>3.98107</value>
							</parameter>
						</effect>
					</filter>
					<filter>
						<effect>
							<name>Audio Pan</name>
							<effectid>audiopan</effectid>
							<effectcategory>audiopan</effectcategory>
							<effecttype>audiopan</effecttype>
							<mediatype>audio</mediatype>
							<parameter>
								<name>Pan</name>
								<parameterid>pan</parameterid>
								<valuemin>-1</valuemin>
								<valuemax>1</valuemax>
								<value>0</value>
							</parameter>
						</effect>
					</filter>
					<sourcetrack>
						<mediatype>audio</mediatype>
						<trackindex>2</trackindex>
					</sourcetrack>
					<link>
						<linkclipref>00767001.MOV14</linkclipref>
						<mediatype>audio</mediatype>
						<trackindex>1</trackindex>
						<clipindex>112</clipindex>
					</link>
					<link>
						<linkclipref>00767001.MOV15</linkclipref>
						<mediatype>audio</mediatype>
						<trackindex>2</trackindex>
						<clipindex>116</clipindex>
					</link>
					<itemhistory>
						<uuid>2DE178C0-C46B-4CCD-B410-567DC8820F70</uuid>
					</itemhistory>
				</clipitem>
				<clipitem id="00767001.MOV17">
					<name>00767001.MOV</name>
					<duration>4836</duration>
					<rate>
						<ntsc>FALSE</ntsc>
						<timebase>25</timebase>
					</rate>
					<in>1452</in>
					<out>1548</out>
					<start>14702</start>
					<end>14798</end>
					<subframeoffset>0</subframeoffset>
					<masterclipid>00767001.MOV1</masterclipid>
					<logginginfo>
						<scene/>
						<shottake/>
						<lognote/>
						<good>FALSE</good>
					</logginginfo>
					<labels>
						<label2/>
					</labels>
					<comments>
						<mastercomment1/>
						<mastercomment2/>
						<mastercomment3/>
						<mastercomment4/>
					</comments>
					<file id="00767001 "/>
					<filter>
						<effect>
							<name>Audio Levels</name>
							<effectid>audiolevels</effectid>
							<effectcategory>audiolevels</effectcategory>
							<effecttype>audiolevels</effecttype>
							<mediatype>audio</mediatype>
							<parameter>
								<name>Level</name>
								<parameterid>level</parameterid>
								<valuemin>0</valuemin>
								<valuemax>3.98109</valuemax>
								<value>3.98107</value>
							</parameter>
						</effect>
					</filter>
					<filter>
						<effect>
							<name>Audio Pan</name>
							<effectid>audiopan</effectid>
							<effectcategory>audiopan</effectcategory>
							<effecttype>audiopan</effecttype>
							<mediatype>audio</mediatype>
							<parameter>
								<name>Pan</name>
								<parameterid>pan</parameterid>
								<valuemin>-1</valuemin>
								<valuemax>1</valuemax>
								<value>0</value>
							</parameter>
						</effect>
					</filter>
					<sourcetrack>
						<mediatype>audio</mediatype>
						<trackindex>2</trackindex>
					</sourcetrack>
					<link>
						<linkclipref>00767001.MOV16</linkclipref>
						<mediatype>audio</mediatype>
						<trackindex>1</trackindex>
						<clipindex>113</clipindex>
					</link>
					<link>
						<linkclipref>00767001.MOV17</linkclipref>
						<mediatype>audio</mediatype>
						<trackindex>2</trackindex>
						<clipindex>117</clipindex>
					</link>
					<itemhistory>
						<uuid>249A92E4-C86E-427F-BFBB-12D0657CCD48</uuid>
					</itemhistory>
				</clipitem>
				<clipitem id="00767001.MOV19">
					<name>00767001.MOV</name>
					<duration>4836</duration>
					<rate>
						<ntsc>FALSE</ntsc>
						<timebase>25</timebase>
					</rate>
					<in>3270</in>
					<out>3329</out>
					<start>14798</start>
					<end>14857</end>
					<subframeoffset>0</subframeoffset>
					<masterclipid>00767001.MOV1</masterclipid>
					<logginginfo>
						<scene/>
						<shottake/>
						<lognote/>
						<good>FALSE</good>
					</logginginfo>
					<labels>
						<label2/>
					</labels>
					<comments>
						<mastercomment1/>
						<mastercomment2/>
						<mastercomment3/>
						<mastercomment4/>
					</comments>
					<file id="00767001 "/>
					<filter>
						<effect>
							<name>Audio Levels</name>
							<effectid>audiolevels</effectid>
							<effectcategory>audiolevels</effectcategory>
							<effecttype>audiolevels</effecttype>
							<mediatype>audio</mediatype>
							<parameter>
								<name>Level</name>
								<parameterid>level</parameterid>
								<valuemin>0</valuemin>
								<valuemax>3.98109</valuemax>
								<value>3.98107</value>
							</parameter>
						</effect>
					</filter>
					<filter>
						<effect>
							<name>Audio Pan</name>
							<effectid>audiopan</effectid>
							<effectcategory>audiopan</effectcategory>
							<effecttype>audiopan</effecttype>
							<mediatype>audio</mediatype>
							<parameter>
								<name>Pan</name>
								<parameterid>pan</parameterid>
								<valuemin>-1</valuemin>
								<valuemax>1</valuemax>
								<value>0</value>
							</parameter>
						</effect>
					</filter>
					<sourcetrack>
						<mediatype>audio</mediatype>
						<trackindex>2</trackindex>
					</sourcetrack>
					<link>
						<linkclipref>00767001.MOV18</linkclipref>
						<mediatype>audio</mediatype>
						<trackindex>1</trackindex>
						<clipindex>114</clipindex>
					</link>
					<link>
						<linkclipref>00767001.MOV19</linkclipref>
						<mediatype>audio</mediatype>
						<trackindex>2</trackindex>
						<clipindex>118</clipindex>
					</link>
					<itemhistory>
						<uuid>4E978BAC-388B-4883-9258-939008FEFA64</uuid>
					</itemhistory>
					<filter>
						<effect>
							<name>Time Remap</name>
							<effectid>timeremap</effectid>
							<effectcategory>motion</effectcategory>
							<effecttype>motion</effecttype>
							<mediatype>audio</mediatype>
							<parameter>
								<parameterid>variablespeed</parameterid>
								<name>variablespeed</name>
								<valuemin>0</valuemin>
								<valuemax>1</valuemax>
								<value>0</value>
							</parameter>
							<parameter>
								<parameterid>mappedduration</parameterid>
								<name>mappedduration</name>
								<value>
									<timecode>
										<rate>
											<timebase>0</timebase>
										</rate>
										<string>0</string>
										<frame>0</frame>
										<displayformat>NDF</displayformat>
									</timecode>
								</value>
							</parameter>
							<parameter>
								<parameterid>speed</parameterid>
								<name>speed</name>
								<valuemin>-10000</valuemin>
								<valuemax>10000</valuemax>
								<value>100</value>
							</parameter>
							<parameter>
								<parameterid>reverse</parameterid>
								<name>reverse</name>
								<value>TRUE</value>
							</parameter>
							<parameter>
								<parameterid>frameblending</parameterid>
								<name>frameblending</name>
								<value>TRUE</value>
							</parameter>
							<parameter>
								<parameterid>graphdict</parameterid>
								<name>graphdict</name>
								<valuemin>0</valuemin>
								<valuemax>4835</valuemax>
								<keyframe>
									<when>0</when>
									<value>4837</value>
									<speedkfstart>TRUE</speedkfstart>
									<speedvirtualkf>TRUE</speedvirtualkf>
								</keyframe>
								<keyframe>
									<when>3270</when>
									<value>1566</value>
									<speedkfin>TRUE</speedkfin>
									<speedvirtualkf>TRUE</speedvirtualkf>
								</keyframe>
								<keyframe>
									<when>3329</when>
									<value>1507</value>
									<speedkfout>TRUE</speedkfout>
									<speedvirtualkf>TRUE</speedvirtualkf>
								</keyframe>
								<keyframe>
									<when>4836</when>
									<value>1</value>
									<speedkfend>TRUE</speedkfend>
									<speedvirtualkf>TRUE</speedvirtualkf>
								</keyframe>
								<interpolation>
									<name>FCPCurve</name>
								</interpolation>
								<value>1565</value>
							</parameter>
						</effect>
					</filter>
				</clipitem>
				<clipitem id="00767001.MOV5">
					<name>00767001.MOV</name>
					<duration>4836</duration>
					<rate>
						<ntsc>FALSE</ntsc>
						<timebase>25</timebase>
					</rate>
					<in>1514</in>
					<out>1918</out>
					<start>14857</start>
					<end>15261</end>
					<subframeoffset>0</subframeoffset>
					<masterclipid>00767001.MOV1</masterclipid>
					<syncoffset>0</syncoffset>
					<logginginfo>
						<scene/>
						<shottake/>
						<lognote/>
						<good>FALSE</good>
					</logginginfo>
					<labels>
						<label2/>
					</labels>
					<comments>
						<mastercomment1/>
						<mastercomment2/>
						<mastercomment3/>
						<mastercomment4/>
					</comments>
					<file id="00767001 "/>
					<filter>
						<effect>
							<name>Audio Levels</name>
							<effectid>audiolevels</effectid>
							<effectcategory>audiolevels</effectcategory>
							<effecttype>audiolevels</effecttype>
							<mediatype>audio</mediatype>
							<parameter>
								<name>Level</name>
								<parameterid>level</parameterid>
								<valuemin>0</valuemin>
								<valuemax>3.98109</valuemax>
								<value>3.98107</value>
							</parameter>
						</effect>
					</filter>
					<filter>
						<effect>
							<name>Audio Pan</name>
							<effectid>audiopan</effectid>
							<effectcategory>audiopan</effectcategory>
							<effecttype>audiopan</effecttype>
							<mediatype>audio</mediatype>
							<parameter>
								<name>Pan</name>
								<parameterid>pan</parameterid>
								<valuemin>-1</valuemin>
								<valuemax>1</valuemax>
								<value>0</value>
							</parameter>
						</effect>
					</filter>
					<sourcetrack>
						<mediatype>audio</mediatype>
						<trackindex>2</trackindex>
					</sourcetrack>
					<link>
						<linkclipref>00767001.MOV3</linkclipref>
						<mediatype>video</mediatype>
						<trackindex>1</trackindex>
						<clipindex>116</clipindex>
					</link>
					<link>
						<linkclipref>00767001.MOV4</linkclipref>
						<mediatype>audio</mediatype>
						<trackindex>1</trackindex>
						<clipindex>115</clipindex>
					</link>
					<link>
						<linkclipref>00767001.MOV5</linkclipref>
						<mediatype>audio</mediatype>
						<trackindex>2</trackindex>
						<clipindex>119</clipindex>
					</link>
					<itemhistory>
						<uuid>3855C618-72A6-4000-A4E8-5F2719593D06</uuid>
					</itemhistory>
				</clipitem>
				<clipitem id="00764001.MOV3">
					<name>00764001.MOV</name>
					<duration>5664</duration>
					<rate>
						<ntsc>FALSE</ntsc>
						<timebase>25</timebase>
					</rate>
					<in>1260</in>
					<out>1354</out>
					<start>15261</start>
					<end>-1</end>
					<subframeoffset>0</subframeoffset>
					<masterclipid>00764001.MOV1</masterclipid>
					<logginginfo>
						<scene/>
						<shottake/>
						<lognote/>
						<good>FALSE</good>
					</logginginfo>
					<labels>
						<label2/>
					</labels>
					<comments>
						<mastercomment1/>
						<mastercomment2/>
						<mastercomment3/>
						<mastercomment4/>
					</comments>
					<file id="00764001 "/>
					<filter>
						<effect>
							<name>Audio Levels</name>
							<effectid>audiolevels</effectid>
							<effectcategory>audiolevels</effectcategory>
							<effecttype>audiolevels</effecttype>
							<mediatype>audio</mediatype>
							<parameter>
								<name>Level</name>
								<parameterid>level</parameterid>
								<valuemin>0</valuemin>
								<valuemax>3.98109</valuemax>
								<value>3.16228</value>
							</parameter>
						</effect>
					</filter>
					<filter>
						<effect>
							<name>Audio Pan</name>
							<effectid>audiopan</effectid>
							<effectcategory>audiopan</effectcategory>
							<effecttype>audiopan</effecttype>
							<mediatype>audio</mediatype>
							<parameter>
								<name>Pan</name>
								<parameterid>pan</parameterid>
								<valuemin>-1</valuemin>
								<valuemax>1</valuemax>
								<value>0</value>
							</parameter>
						</effect>
					</filter>
					<sourcetrack>
						<mediatype>audio</mediatype>
						<trackindex>2</trackindex>
					</sourcetrack>
					<link>
						<linkclipref>00764001.MOV</linkclipref>
						<mediatype>video</mediatype>
						<trackindex>2</trackindex>
						<clipindex>34</clipindex>
					</link>
					<link>
						<linkclipref>00764001.MOV2</linkclipref>
						<mediatype>audio</mediatype>
						<trackindex>1</trackindex>
						<clipindex>116</clipindex>
					</link>
					<link>
						<linkclipref>00764001.MOV3</linkclipref>
						<mediatype>audio</mediatype>
						<trackindex>2</trackindex>
						<clipindex>120</clipindex>
					</link>
					<itemhistory>
						<uuid>541720F4-E259-4EB6-9227-6D805D3A509A</uuid>
					</itemhistory>
				</clipitem>
				<transitionitem>
					<rate>
						<ntsc>FALSE</ntsc>
						<timebase>25</timebase>
					</rate>
					<start>15352</start>
					<end>15355</end>
					<alignment>center</alignment>
					<effect>
						<name>Cross Fade (+3dB)</name>
						<effectid>KGAudioTransCrossFade3dB</effectid>
						<effecttype>transition</effecttype>
						<mediatype>audio</mediatype>
					</effect>
				</transitionitem>
				<clipitem id="00764001.MOV5">
					<name>00764001.MOV</name>
					<duration>5664</duration>
					<rate>
						<ntsc>FALSE</ntsc>
						<timebase>25</timebase>
					</rate>
					<in>1359</in>
					<out>1564</out>
					<start>-1</start>
					<end>15557</end>
					<subframeoffset>0</subframeoffset>
					<masterclipid>00764001.MOV1</masterclipid>
					<logginginfo>
						<scene/>
						<shottake/>
						<lognote/>
						<good>FALSE</good>
					</logginginfo>
					<labels>
						<label2/>
					</labels>
					<comments>
						<mastercomment1/>
						<mastercomment2/>
						<mastercomment3/>
						<mastercomment4/>
					</comments>
					<file id="00764001 "/>
					<filter>
						<effect>
							<name>Audio Levels</name>
							<effectid>audiolevels</effectid>
							<effectcategory>audiolevels</effectcategory>
							<effecttype>audiolevels</effecttype>
							<mediatype>audio</mediatype>
							<parameter>
								<name>Level</name>
								<parameterid>level</parameterid>
								<valuemin>0</valuemin>
								<valuemax>3.98109</valuemax>
								<value>3.16228</value>
							</parameter>
						</effect>
					</filter>
					<filter>
						<effect>
							<name>Audio Pan</name>
							<effectid>audiopan</effectid>
							<effectcategory>audiopan</effectcategory>
							<effecttype>audiopan</effecttype>
							<mediatype>audio</mediatype>
							<parameter>
								<name>Pan</name>
								<parameterid>pan</parameterid>
								<valuemin>-1</valuemin>
								<valuemax>1</valuemax>
								<value>0</value>
							</parameter>
						</effect>
					</filter>
					<sourcetrack>
						<mediatype>audio</mediatype>
						<trackindex>2</trackindex>
					</sourcetrack>
					<itemhistory>
						<uuid>632D3FA8-C18E-4867-A6C4-21DCC16C0E9C</uuid>
					</itemhistory>
				</clipitem>
				<clipitem id="00769001.MOV4">
					<name>00769001.MOV</name>
					<duration>708</duration>
					<rate>
						<ntsc>FALSE</ntsc>
						<timebase>25</timebase>
					</rate>
					<in>56</in>
					<out>218</out>
					<start>15564</start>
					<end>15726</end>
					<subframeoffset>0</subframeoffset>
					<masterclipid>00769001.MOV1</masterclipid>
					<syncoffset>5</syncoffset>
					<logginginfo>
						<scene/>
						<shottake/>
						<lognote/>
						<good>FALSE</good>
					</logginginfo>
					<labels>
						<label2/>
					</labels>
					<comments>
						<mastercomment1/>
						<mastercomment2/>
						<mastercomment3/>
						<mastercomment4/>
					</comments>
					<file id="00769001 "/>
					<filter>
						<effect>
							<name>Audio Levels</name>
							<effectid>audiolevels</effectid>
							<effectcategory>audiolevels</effectcategory>
							<effecttype>audiolevels</effecttype>
							<mediatype>audio</mediatype>
							<parameter>
								<name>Level</name>
								<parameterid>level</parameterid>
								<valuemin>0</valuemin>
								<valuemax>3.98109</valuemax>
								<value>1.99526</value>
							</parameter>
						</effect>
					</filter>
					<filter>
						<effect>
							<name>Audio Pan</name>
							<effectid>audiopan</effectid>
							<effectcategory>audiopan</effectcategory>
							<effecttype>audiopan</effecttype>
							<mediatype>audio</mediatype>
							<parameter>
								<name>Pan</name>
								<parameterid>pan</parameterid>
								<valuemin>-1</valuemin>
								<valuemax>1</valuemax>
								<value>0</value>
							</parameter>
						</effect>
					</filter>
					<sourcetrack>
						<mediatype>audio</mediatype>
						<trackindex>2</trackindex>
					</sourcetrack>
					<link>
						<linkclipref>00769001.MOV2</linkclipref>
						<mediatype>video</mediatype>
						<trackindex>1</trackindex>
						<clipindex>117</clipindex>
					</link>
					<link>
						<linkclipref>00769001.MOV3</linkclipref>
						<mediatype>audio</mediatype>
						<trackindex>1</trackindex>
						<clipindex>119</clipindex>
					</link>
					<link>
						<linkclipref>00769001.MOV4</linkclipref>
						<mediatype>audio</mediatype>
						<trackindex>2</trackindex>
						<clipindex>123</clipindex>
					</link>
					<itemhistory>
						<uuid>20D7EFC0-34DB-4120-A7B9-074A24FE4F35</uuid>
					</itemhistory>
				</clipitem>
				<clipitem id="00769001.MOV7">
					<name>00769001.MOV</name>
					<duration>708</duration>
					<rate>
						<ntsc>FALSE</ntsc>
						<timebase>25</timebase>
					</rate>
					<in>276</in>
					<out>568</out>
					<start>15944</start>
					<end>16236</end>
					<subframeoffset>0</subframeoffset>
					<masterclipid>00769001.MOV1</masterclipid>
					<logginginfo>
						<scene/>
						<shottake/>
						<lognote/>
						<good>FALSE</good>
					</logginginfo>
					<labels>
						<label2/>
					</labels>
					<comments>
						<mastercomment1/>
						<mastercomment2/>
						<mastercomment3/>
						<mastercomment4/>
					</comments>
					<file id="00769001 "/>
					<filter>
						<effect>
							<name>Audio Levels</name>
							<effectid>audiolevels</effectid>
							<effectcategory>audiolevels</effectcategory>
							<effecttype>audiolevels</effecttype>
							<mediatype>audio</mediatype>
							<parameter>
								<name>Level</name>
								<parameterid>level</parameterid>
								<valuemin>0</valuemin>
								<valuemax>3.98109</valuemax>
								<value>1.99526</value>
							</parameter>
						</effect>
					</filter>
					<filter>
						<effect>
							<name>Audio Pan</name>
							<effectid>audiopan</effectid>
							<effectcategory>audiopan</effectcategory>
							<effecttype>audiopan</effecttype>
							<mediatype>audio</mediatype>
							<parameter>
								<name>Pan</name>
								<parameterid>pan</parameterid>
								<valuemin>-1</valuemin>
								<valuemax>1</valuemax>
								<value>0</value>
							</parameter>
						</effect>
					</filter>
					<sourcetrack>
						<mediatype>audio</mediatype>
						<trackindex>2</trackindex>
					</sourcetrack>
					<link>
						<linkclipref>00769001.MOV5</linkclipref>
						<mediatype>video</mediatype>
						<trackindex>1</trackindex>
						<clipindex>118</clipindex>
					</link>
					<link>
						<linkclipref>00769001.MOV6</linkclipref>
						<mediatype>audio</mediatype>
						<trackindex>1</trackindex>
						<clipindex>120</clipindex>
					</link>
					<link>
						<linkclipref>00769001.MOV7</linkclipref>
						<mediatype>audio</mediatype>
						<trackindex>2</trackindex>
						<clipindex>124</clipindex>
					</link>
					<itemhistory>
						<uuid>CF3C6A3F-393A-49BA-89F9-86485CA2060B</uuid>
					</itemhistory>
				</clipitem>
				<clipitem id="Kråkeklubben S1E1 Ny miks.wav2">
					<name>Kråkeklubben S1E1 Ny miks.wav</name>
					<duration>38152</duration>
					<rate>
						<ntsc>FALSE</ntsc>
						<timebase>25</timebase>
					</rate>
					<in>12266</in>
					<out>12521</out>
					<start>16236</start>
					<end>-1</end>
					<masterclipid>Kråkeklubben S1E1 Ny miks.wav1</masterclipid>
					<logginginfo>
						<scene/>
						<shottake/>
						<lognote/>
						<good>FALSE</good>
					</logginginfo>
					<labels>
						<label2/>
					</labels>
					<comments>
						<mastercomment1/>
						<mastercomment2/>
						<mastercomment3/>
						<mastercomment4/>
					</comments>
					<file id="Kråkeklubben S1E1 Ny miks"/>
					<filter>
						<effect>
							<name>Audio Levels</name>
							<effectid>audiolevels</effectid>
							<effectcategory>audiolevels</effectcategory>
							<effecttype>audiolevels</effecttype>
							<mediatype>audio</mediatype>
							<parameter>
								<name>Level</name>
								<parameterid>level</parameterid>
								<valuemin>0</valuemin>
								<valuemax>3.98109</valuemax>
								<value>1</value>
							</parameter>
						</effect>
					</filter>
					<filter>
						<effect>
							<name>Audio Pan</name>
							<effectid>audiopan</effectid>
							<effectcategory>audiopan</effectcategory>
							<effecttype>audiopan</effecttype>
							<mediatype>audio</mediatype>
							<parameter>
								<name>Pan</name>
								<parameterid>pan</parameterid>
								<valuemin>-1</valuemin>
								<valuemax>1</valuemax>
								<value>1</value>
							</parameter>
						</effect>
					</filter>
					<sourcetrack>
						<mediatype>audio</mediatype>
						<trackindex>2</trackindex>
					</sourcetrack>
					<link>
						<linkclipref>Kråkeklubben S1E1 Ny miks.wav</linkclipref>
						<mediatype>audio</mediatype>
						<trackindex>1</trackindex>
						<clipindex>121</clipindex>
						<groupindex>1</groupindex>
					</link>
					<link>
						<linkclipref>Kråkeklubben S1E1 Ny miks.wav2</linkclipref>
						<mediatype>audio</mediatype>
						<trackindex>2</trackindex>
						<clipindex>125</clipindex>
						<groupindex>1</groupindex>
					</link>
					<itemhistory>
						<uuid>2374BACD-14DC-453B-98E2-7C6CAFF73574</uuid>
					</itemhistory>
				</clipitem>
				<transitionitem>
					<rate>
						<ntsc>FALSE</ntsc>
						<timebase>25</timebase>
					</rate>
					<start>16466</start>
					<end>16491</end>
					<alignment>center</alignment>
					<effect>
						<name>Cross Fade (+3dB)</name>
						<effectid>KGAudioTransCrossFade3dB</effectid>
						<effecttype>transition</effecttype>
						<mediatype>audio</mediatype>
					</effect>
				</transitionitem>
				<clipitem id="DYR18477_01 7">
					<name>DYR18477_01</name>
					<duration>418</duration>
					<rate>
						<ntsc>FALSE</ntsc>
						<timebase>25</timebase>
					</rate>
					<in>125</in>
					<out>171</out>
					<start>-1</start>
					<end>16512</end>
					<subframeoffset>0</subframeoffset>
					<masterclipid>DYR18477_01 1</masterclipid>
					<logginginfo>
						<scene/>
						<shottake/>
						<lognote/>
						<good>FALSE</good>
					</logginginfo>
					<labels>
						<label2/>
					</labels>
					<comments>
						<mastercomment1/>
						<mastercomment2/>
						<mastercomment3/>
						<mastercomment4/>
					</comments>
					<file id="DYR18477_01 2"/>
					<filter>
						<effect>
							<name>Audio Levels</name>
							<effectid>audiolevels</effectid>
							<effectcategory>audiolevels</effectcategory>
							<effecttype>audiolevels</effecttype>
							<mediatype>audio</mediatype>
							<parameter>
								<name>Level</name>
								<parameterid>level</parameterid>
								<valuemin>0</valuemin>
								<valuemax>3.98109</valuemax>
								<value>0</value>
							</parameter>
						</effect>
					</filter>
					<filter>
						<effect>
							<name>Audio Pan</name>
							<effectid>audiopan</effectid>
							<effectcategory>audiopan</effectcategory>
							<effecttype>audiopan</effecttype>
							<mediatype>audio</mediatype>
							<parameter>
								<name>Pan</name>
								<parameterid>pan</parameterid>
								<valuemin>-1</valuemin>
								<valuemax>1</valuemax>
								<value>0</value>
							</parameter>
						</effect>
					</filter>
					<sourcetrack>
						<mediatype>audio</mediatype>
						<trackindex>2</trackindex>
					</sourcetrack>
					<link>
						<linkclipref>DYR18477_01 5</linkclipref>
						<mediatype>video</mediatype>
						<trackindex>2</trackindex>
						<clipindex>38</clipindex>
					</link>
					<link>
						<linkclipref>DYR18477_01 6</linkclipref>
						<mediatype>audio</mediatype>
						<trackindex>1</trackindex>
						<clipindex>123</clipindex>
					</link>
					<link>
						<linkclipref>DYR18477_01 7</linkclipref>
						<mediatype>audio</mediatype>
						<trackindex>2</trackindex>
						<clipindex>127</clipindex>
					</link>
					<itemhistory>
						<uuid>27AC4532-B029-434E-A8D8-AA13CD3CF920</uuid>
					</itemhistory>
				</clipitem>
				<clipitem id="DYR18469_01 7">
					<name>DYR18469_01</name>
					<duration>2324</duration>
					<rate>
						<ntsc>FALSE</ntsc>
						<timebase>25</timebase>
					</rate>
					<in>280</in>
					<out>337</out>
					<start>16512</start>
					<end>16569</end>
					<subframeoffset>0</subframeoffset>
					<masterclipid>DYR18469_01 1</masterclipid>
					<logginginfo>
						<scene/>
						<shottake/>
						<lognote/>
						<good>FALSE</good>
					</logginginfo>
					<labels>
						<label2/>
					</labels>
					<comments>
						<mastercomment1/>
						<mastercomment2/>
						<mastercomment3/>
						<mastercomment4/>
					</comments>
					<file id="DYR18469_01 2"/>
					<filter>
						<effect>
							<name>Audio Levels</name>
							<effectid>audiolevels</effectid>
							<effectcategory>audiolevels</effectcategory>
							<effecttype>audiolevels</effecttype>
							<mediatype>audio</mediatype>
							<parameter>
								<name>Level</name>
								<parameterid>level</parameterid>
								<valuemin>0</valuemin>
								<valuemax>3.98109</valuemax>
								<value>1</value>
							</parameter>
						</effect>
					</filter>
					<filter>
						<effect>
							<name>Audio Pan</name>
							<effectid>audiopan</effectid>
							<effectcategory>audiopan</effectcategory>
							<effecttype>audiopan</effecttype>
							<mediatype>audio</mediatype>
							<parameter>
								<name>Pan</name>
								<parameterid>pan</parameterid>
								<valuemin>-1</valuemin>
								<valuemax>1</valuemax>
								<value>0</value>
							</parameter>
						</effect>
					</filter>
					<sourcetrack>
						<mediatype>audio</mediatype>
						<trackindex>2</trackindex>
					</sourcetrack>
					<link>
						<linkclipref>DYR18469_01 5</linkclipref>
						<mediatype>video</mediatype>
						<trackindex>2</trackindex>
						<clipindex>39</clipindex>
					</link>
					<link>
						<linkclipref>DYR18469_01 6</linkclipref>
						<mediatype>audio</mediatype>
						<trackindex>1</trackindex>
						<clipindex>124</clipindex>
					</link>
					<link>
						<linkclipref>DYR18469_01 7</linkclipref>
						<mediatype>audio</mediatype>
						<trackindex>2</trackindex>
						<clipindex>128</clipindex>
					</link>
					<itemhistory>
						<uuid>F460A2B0-480D-40FC-BDB5-3F85EE3EBD07</uuid>
					</itemhistory>
				</clipitem>
				<clipitem id="DYR18519_01 4">
					<name>DYR18519_01</name>
					<duration>1686</duration>
					<rate>
						<ntsc>FALSE</ntsc>
						<timebase>25</timebase>
					</rate>
					<in>517</in>
					<out>547</out>
					<start>16569</start>
					<end>16599</end>
					<subframeoffset>0</subframeoffset>
					<masterclipid>DYR18519_01 1</masterclipid>
					<logginginfo>
						<scene/>
						<shottake/>
						<lognote/>
						<good>FALSE</good>
					</logginginfo>
					<labels>
						<label2/>
					</labels>
					<comments>
						<mastercomment1/>
						<mastercomment2/>
						<mastercomment3/>
						<mastercomment4/>
					</comments>
					<file id="DYR18519_01 2"/>
					<filter>
						<effect>
							<name>Audio Levels</name>
							<effectid>audiolevels</effectid>
							<effectcategory>audiolevels</effectcategory>
							<effecttype>audiolevels</effecttype>
							<mediatype>audio</mediatype>
							<parameter>
								<name>Level</name>
								<parameterid>level</parameterid>
								<valuemin>0</valuemin>
								<valuemax>3.98109</valuemax>
								<value>1</value>
							</parameter>
						</effect>
					</filter>
					<filter>
						<effect>
							<name>Audio Pan</name>
							<effectid>audiopan</effectid>
							<effectcategory>audiopan</effectcategory>
							<effecttype>audiopan</effecttype>
							<mediatype>audio</mediatype>
							<parameter>
								<name>Pan</name>
								<parameterid>pan</parameterid>
								<valuemin>-1</valuemin>
								<valuemax>1</valuemax>
								<value>0</value>
							</parameter>
						</effect>
					</filter>
					<sourcetrack>
						<mediatype>audio</mediatype>
						<trackindex>2</trackindex>
					</sourcetrack>
					<link>
						<linkclipref>DYR18519_01 </linkclipref>
						<mediatype>video</mediatype>
						<trackindex>1</trackindex>
						<clipindex>119</clipindex>
					</link>
					<link>
						<linkclipref>DYR18519_01 3</linkclipref>
						<mediatype>audio</mediatype>
						<trackindex>1</trackindex>
						<clipindex>125</clipindex>
					</link>
					<link>
						<linkclipref>DYR18519_01 4</linkclipref>
						<mediatype>audio</mediatype>
						<trackindex>2</trackindex>
						<clipindex>129</clipindex>
					</link>
					<itemhistory>
						<uuid>BDE96287-2C2B-48E3-8057-C6F251BC7685</uuid>
					</itemhistory>
				</clipitem>
				<clipitem id="DYR18519_01 7">
					<name>DYR18519_01</name>
					<duration>1686</duration>
					<rate>
						<ntsc>FALSE</ntsc>
						<timebase>25</timebase>
					</rate>
					<in>693</in>
					<out>756</out>
					<start>16599</start>
					<end>16662</end>
					<subframeoffset>0</subframeoffset>
					<masterclipid>DYR18519_01 1</masterclipid>
					<logginginfo>
						<scene/>
						<shottake/>
						<lognote/>
						<good>FALSE</good>
					</logginginfo>
					<labels>
						<label2/>
					</labels>
					<comments>
						<mastercomment1/>
						<mastercomment2/>
						<mastercomment3/>
						<mastercomment4/>
					</comments>
					<file id="DYR18519_01 2"/>
					<filter>
						<effect>
							<name>Audio Levels</name>
							<effectid>audiolevels</effectid>
							<effectcategory>audiolevels</effectcategory>
							<effecttype>audiolevels</effecttype>
							<mediatype>audio</mediatype>
							<parameter>
								<name>Level</name>
								<parameterid>level</parameterid>
								<valuemin>0</valuemin>
								<valuemax>3.98109</valuemax>
								<value>1</value>
							</parameter>
						</effect>
					</filter>
					<filter>
						<effect>
							<name>Audio Pan</name>
							<effectid>audiopan</effectid>
							<effectcategory>audiopan</effectcategory>
							<effecttype>audiopan</effecttype>
							<mediatype>audio</mediatype>
							<parameter>
								<name>Pan</name>
								<parameterid>pan</parameterid>
								<valuemin>-1</valuemin>
								<valuemax>1</valuemax>
								<value>0</value>
							</parameter>
						</effect>
					</filter>
					<sourcetrack>
						<mediatype>audio</mediatype>
						<trackindex>2</trackindex>
					</sourcetrack>
					<link>
						<linkclipref>DYR18519_01 5</linkclipref>
						<mediatype>video</mediatype>
						<trackindex>1</trackindex>
						<clipindex>120</clipindex>
					</link>
					<link>
						<linkclipref>DYR18519_01 6</linkclipref>
						<mediatype>audio</mediatype>
						<trackindex>1</trackindex>
						<clipindex>126</clipindex>
					</link>
					<link>
						<linkclipref>DYR18519_01 7</linkclipref>
						<mediatype>audio</mediatype>
						<trackindex>2</trackindex>
						<clipindex>130</clipindex>
					</link>
					<itemhistory>
						<uuid>BCD4A082-0962-437C-A83F-A2341CEA0CF3</uuid>
					</itemhistory>
				</clipitem>
				<clipitem id="DYR18469_01 4">
					<name>DYR18469_01</name>
					<duration>2324</duration>
					<rate>
						<ntsc>FALSE</ntsc>
						<timebase>25</timebase>
					</rate>
					<in>521</in>
					<out>587</out>
					<start>16662</start>
					<end>16728</end>
					<subframeoffset>0</subframeoffset>
					<masterclipid>DYR18469_01 1</masterclipid>
					<logginginfo>
						<scene/>
						<shottake/>
						<lognote/>
						<good>FALSE</good>
					</logginginfo>
					<labels>
						<label2/>
					</labels>
					<comments>
						<mastercomment1/>
						<mastercomment2/>
						<mastercomment3/>
						<mastercomment4/>
					</comments>
					<file id="DYR18469_01 2"/>
					<filter>
						<effect>
							<name>Audio Levels</name>
							<effectid>audiolevels</effectid>
							<effectcategory>audiolevels</effectcategory>
							<effecttype>audiolevels</effecttype>
							<mediatype>audio</mediatype>
							<parameter>
								<name>Level</name>
								<parameterid>level</parameterid>
								<valuemin>0</valuemin>
								<valuemax>3.98109</valuemax>
								<value>1</value>
							</parameter>
						</effect>
					</filter>
					<filter>
						<effect>
							<name>Audio Pan</name>
							<effectid>audiopan</effectid>
							<effectcategory>audiopan</effectcategory>
							<effecttype>audiopan</effecttype>
							<mediatype>audio</mediatype>
							<parameter>
								<name>Pan</name>
								<parameterid>pan</parameterid>
								<valuemin>-1</valuemin>
								<valuemax>1</valuemax>
								<value>0</value>
							</parameter>
						</effect>
					</filter>
					<sourcetrack>
						<mediatype>audio</mediatype>
						<trackindex>2</trackindex>
					</sourcetrack>
					<link>
						<linkclipref>DYR18469_01 </linkclipref>
						<mediatype>video</mediatype>
						<trackindex>1</trackindex>
						<clipindex>121</clipindex>
					</link>
					<link>
						<linkclipref>DYR18469_01 3</linkclipref>
						<mediatype>audio</mediatype>
						<trackindex>1</trackindex>
						<clipindex>127</clipindex>
					</link>
					<link>
						<linkclipref>DYR18469_01 4</linkclipref>
						<mediatype>audio</mediatype>
						<trackindex>2</trackindex>
						<clipindex>131</clipindex>
					</link>
					<itemhistory>
						<uuid>72FEB8E3-1B9E-45D6-BBAF-A11BF4949F01</uuid>
					</itemhistory>
				</clipitem>
				<clipitem id="DYR18473_01 4">
					<name>DYR18473_01</name>
					<duration>777</duration>
					<rate>
						<ntsc>FALSE</ntsc>
						<timebase>25</timebase>
					</rate>
					<in>175</in>
					<out>247</out>
					<start>16728</start>
					<end>16800</end>
					<subframeoffset>0</subframeoffset>
					<masterclipid>DYR18473_01 1</masterclipid>
					<logginginfo>
						<scene/>
						<shottake/>
						<lognote/>
						<good>FALSE</good>
					</logginginfo>
					<labels>
						<label2/>
					</labels>
					<comments>
						<mastercomment1/>
						<mastercomment2/>
						<mastercomment3/>
						<mastercomment4/>
					</comments>
					<file id="DYR18473_01 2"/>
					<filter>
						<effect>
							<name>Audio Levels</name>
							<effectid>audiolevels</effectid>
							<effectcategory>audiolevels</effectcategory>
							<effecttype>audiolevels</effecttype>
							<mediatype>audio</mediatype>
							<parameter>
								<name>Level</name>
								<parameterid>level</parameterid>
								<valuemin>0</valuemin>
								<valuemax>3.98109</valuemax>
								<value>1</value>
							</parameter>
						</effect>
					</filter>
					<filter>
						<effect>
							<name>Audio Pan</name>
							<effectid>audiopan</effectid>
							<effectcategory>audiopan</effectcategory>
							<effecttype>audiopan</effecttype>
							<mediatype>audio</mediatype>
							<parameter>
								<name>Pan</name>
								<parameterid>pan</parameterid>
								<valuemin>-1</valuemin>
								<valuemax>1</valuemax>
								<value>0</value>
							</parameter>
						</effect>
					</filter>
					<sourcetrack>
						<mediatype>audio</mediatype>
						<trackindex>2</trackindex>
					</sourcetrack>
					<link>
						<linkclipref>DYR18473_01 </linkclipref>
						<mediatype>video</mediatype>
						<trackindex>1</trackindex>
						<clipindex>122</clipindex>
					</link>
					<link>
						<linkclipref>DYR18473_01 3</linkclipref>
						<mediatype>audio</mediatype>
						<trackindex>1</trackindex>
						<clipindex>128</clipindex>
					</link>
					<link>
						<linkclipref>DYR18473_01 4</linkclipref>
						<mediatype>audio</mediatype>
						<trackindex>2</trackindex>
						<clipindex>132</clipindex>
					</link>
					<itemhistory>
						<uuid>9E455403-82C2-442B-A378-84A2EAA5D346</uuid>
					</itemhistory>
				</clipitem>
				<clipitem id="DYR18476_01 4">
					<name>DYR18476_01</name>
					<duration>647</duration>
					<rate>
						<ntsc>FALSE</ntsc>
						<timebase>25</timebase>
					</rate>
					<in>342</in>
					<out>468</out>
					<start>17009</start>
					<end>17135</end>
					<subframeoffset>0</subframeoffset>
					<masterclipid>DYR18476_01 1</masterclipid>
					<logginginfo>
						<scene/>
						<shottake/>
						<lognote/>
						<good>FALSE</good>
					</logginginfo>
					<labels>
						<label2/>
					</labels>
					<comments>
						<mastercomment1/>
						<mastercomment2/>
						<mastercomment3/>
						<mastercomment4/>
					</comments>
					<file id="DYR18476_01 2"/>
					<filter>
						<effect>
							<name>Audio Levels</name>
							<effectid>audiolevels</effectid>
							<effectcategory>audiolevels</effectcategory>
							<effecttype>audiolevels</effecttype>
							<mediatype>audio</mediatype>
							<parameter>
								<name>Level</name>
								<parameterid>level</parameterid>
								<valuemin>0</valuemin>
								<valuemax>3.98109</valuemax>
								<value>1</value>
							</parameter>
						</effect>
					</filter>
					<filter>
						<effect>
							<name>Audio Pan</name>
							<effectid>audiopan</effectid>
							<effectcategory>audiopan</effectcategory>
							<effecttype>audiopan</effecttype>
							<mediatype>audio</mediatype>
							<parameter>
								<name>Pan</name>
								<parameterid>pan</parameterid>
								<valuemin>-1</valuemin>
								<valuemax>1</valuemax>
								<value>0</value>
							</parameter>
						</effect>
					</filter>
					<sourcetrack>
						<mediatype>audio</mediatype>
						<trackindex>2</trackindex>
					</sourcetrack>
					<link>
						<linkclipref>DYR18476_01 </linkclipref>
						<mediatype>video</mediatype>
						<trackindex>1</trackindex>
						<clipindex>126</clipindex>
					</link>
					<link>
						<linkclipref>DYR18476_01 3</linkclipref>
						<mediatype>audio</mediatype>
						<trackindex>1</trackindex>
						<clipindex>129</clipindex>
					</link>
					<link>
						<linkclipref>DYR18476_01 4</linkclipref>
						<mediatype>audio</mediatype>
						<trackindex>2</trackindex>
						<clipindex>133</clipindex>
					</link>
					<itemhistory>
						<uuid>A9954F3B-1806-4FDC-ACCA-9C51F505166F</uuid>
					</itemhistory>
				</clipitem>
				<clipitem id="DYR18478_01 4">
					<name>DYR18478_01</name>
					<duration>863</duration>
					<rate>
						<ntsc>FALSE</ntsc>
						<timebase>25</timebase>
					</rate>
					<in>442</in>
					<out>501</out>
					<start>17181</start>
					<end>17240</end>
					<subframeoffset>0</subframeoffset>
					<masterclipid>DYR18478_01 1</masterclipid>
					<logginginfo>
						<scene/>
						<shottake/>
						<lognote/>
						<good>FALSE</good>
					</logginginfo>
					<labels>
						<label2/>
					</labels>
					<comments>
						<mastercomment1/>
						<mastercomment2/>
						<mastercomment3/>
						<mastercomment4/>
					</comments>
					<file id="DYR18478_01 2"/>
					<filter>
						<effect>
							<name>Audio Levels</name>
							<effectid>audiolevels</effectid>
							<effectcategory>audiolevels</effectcategory>
							<effecttype>audiolevels</effecttype>
							<mediatype>audio</mediatype>
							<parameter>
								<name>Level</name>
								<parameterid>level</parameterid>
								<valuemin>0</valuemin>
								<valuemax>3.98109</valuemax>
								<value>1</value>
							</parameter>
						</effect>
					</filter>
					<filter>
						<effect>
							<name>Audio Pan</name>
							<effectid>audiopan</effectid>
							<effectcategory>audiopan</effectcategory>
							<effecttype>audiopan</effecttype>
							<mediatype>audio</mediatype>
							<parameter>
								<name>Pan</name>
								<parameterid>pan</parameterid>
								<valuemin>-1</valuemin>
								<valuemax>1</valuemax>
								<value>0</value>
							</parameter>
						</effect>
					</filter>
					<sourcetrack>
						<mediatype>audio</mediatype>
						<trackindex>2</trackindex>
					</sourcetrack>
					<link>
						<linkclipref>DYR18478_01 </linkclipref>
						<mediatype>video</mediatype>
						<trackindex>1</trackindex>
						<clipindex>127</clipindex>
					</link>
					<link>
						<linkclipref>DYR18478_01 3</linkclipref>
						<mediatype>audio</mediatype>
						<trackindex>1</trackindex>
						<clipindex>130</clipindex>
					</link>
					<link>
						<linkclipref>DYR18478_01 4</linkclipref>
						<mediatype>audio</mediatype>
						<trackindex>2</trackindex>
						<clipindex>134</clipindex>
					</link>
					<itemhistory>
						<uuid>6B041CE6-87B3-4292-9775-38C7FAE2BB2E</uuid>
					</itemhistory>
				</clipitem>
				<clipitem id="DYR18481_01 4">
					<name>DYR18481_01</name>
					<duration>1131</duration>
					<rate>
						<ntsc>FALSE</ntsc>
						<timebase>25</timebase>
					</rate>
					<in>697</in>
					<out>772</out>
					<start>17240</start>
					<end>17315</end>
					<subframeoffset>0</subframeoffset>
					<enabled>TRUE</enabled>
					<masterclipid>DYR18481_01 1</masterclipid>
					<logginginfo>
						<scene/>
						<shottake/>
						<lognote/>
						<good>FALSE</good>
					</logginginfo>
					<labels>
						<label2/>
					</labels>
					<comments>
						<mastercomment1/>
						<mastercomment2/>
						<mastercomment3/>
						<mastercomment4/>
					</comments>
					<file id="DYR18481_01 2"/>
					<filter>
						<effect>
							<name>Audio Levels</name>
							<effectid>audiolevels</effectid>
							<effectcategory>audiolevels</effectcategory>
							<effecttype>audiolevels</effecttype>
							<mediatype>audio</mediatype>
							<parameter>
								<name>Level</name>
								<parameterid>level</parameterid>
								<valuemin>0</valuemin>
								<valuemax>3.98109</valuemax>
								<value>1</value>
							</parameter>
						</effect>
					</filter>
					<filter>
						<effect>
							<name>Audio Pan</name>
							<effectid>audiopan</effectid>
							<effectcategory>audiopan</effectcategory>
							<effecttype>audiopan</effecttype>
							<mediatype>audio</mediatype>
							<parameter>
								<name>Pan</name>
								<parameterid>pan</parameterid>
								<valuemin>-1</valuemin>
								<valuemax>1</valuemax>
								<value>0</value>
							</parameter>
						</effect>
					</filter>
					<sourcetrack>
						<mediatype>audio</mediatype>
						<trackindex>2</trackindex>
					</sourcetrack>
					<link>
						<linkclipref>DYR18481_01 </linkclipref>
						<mediatype>video</mediatype>
						<trackindex>1</trackindex>
						<clipindex>128</clipindex>
					</link>
					<link>
						<linkclipref>DYR18481_01 3</linkclipref>
						<mediatype>audio</mediatype>
						<trackindex>1</trackindex>
						<clipindex>131</clipindex>
					</link>
					<link>
						<linkclipref>DYR18481_01 4</linkclipref>
						<mediatype>audio</mediatype>
						<trackindex>2</trackindex>
						<clipindex>135</clipindex>
					</link>
					<itemhistory>
						<uuid>9110FCF7-2D36-4EC6-A687-F12F2AC9CD2B</uuid>
					</itemhistory>
				</clipitem>
				<clipitem id="DYR18481_01 7">
					<name>DYR18481_01</name>
					<duration>1131</duration>
					<rate>
						<ntsc>FALSE</ntsc>
						<timebase>25</timebase>
					</rate>
					<in>772</in>
					<out>871</out>
					<start>17425</start>
					<end>17524</end>
					<subframeoffset>0</subframeoffset>
					<masterclipid>DYR18481_01 1</masterclipid>
					<logginginfo>
						<scene/>
						<shottake/>
						<lognote/>
						<good>FALSE</good>
					</logginginfo>
					<labels>
						<label2/>
					</labels>
					<comments>
						<mastercomment1/>
						<mastercomment2/>
						<mastercomment3/>
						<mastercomment4/>
					</comments>
					<file id="DYR18481_01 2"/>
					<filter>
						<effect>
							<name>Audio Levels</name>
							<effectid>audiolevels</effectid>
							<effectcategory>audiolevels</effectcategory>
							<effecttype>audiolevels</effecttype>
							<mediatype>audio</mediatype>
							<parameter>
								<name>Level</name>
								<parameterid>level</parameterid>
								<valuemin>0</valuemin>
								<valuemax>3.98109</valuemax>
								<value>1</value>
							</parameter>
						</effect>
					</filter>
					<filter>
						<effect>
							<name>Audio Pan</name>
							<effectid>audiopan</effectid>
							<effectcategory>audiopan</effectcategory>
							<effecttype>audiopan</effecttype>
							<mediatype>audio</mediatype>
							<parameter>
								<name>Pan</name>
								<parameterid>pan</parameterid>
								<valuemin>-1</valuemin>
								<valuemax>1</valuemax>
								<value>0</value>
							</parameter>
						</effect>
					</filter>
					<sourcetrack>
						<mediatype>audio</mediatype>
						<trackindex>2</trackindex>
					</sourcetrack>
					<link>
						<linkclipref>DYR18481_01 5</linkclipref>
						<mediatype>video</mediatype>
						<trackindex>1</trackindex>
						<clipindex>130</clipindex>
					</link>
					<link>
						<linkclipref>DYR18481_01 6</linkclipref>
						<mediatype>audio</mediatype>
						<trackindex>1</trackindex>
						<clipindex>132</clipindex>
					</link>
					<link>
						<linkclipref>DYR18481_01 7</linkclipref>
						<mediatype>audio</mediatype>
						<trackindex>2</trackindex>
						<clipindex>136</clipindex>
					</link>
					<itemhistory>
						<uuid>A70C3812-8C92-4307-A414-9826FEC1399D</uuid>
					</itemhistory>
				</clipitem>
				<clipitem id="DYR18482_01 4">
					<name>DYR18482_01</name>
					<duration>1901</duration>
					<rate>
						<ntsc>FALSE</ntsc>
						<timebase>25</timebase>
					</rate>
					<in>1358</in>
					<out>1595</out>
					<start>17684</start>
					<end>17921</end>
					<subframeoffset>0</subframeoffset>
					<masterclipid>DYR18482_01 1</masterclipid>
					<logginginfo>
						<scene/>
						<shottake/>
						<lognote/>
						<good>FALSE</good>
					</logginginfo>
					<labels>
						<label2/>
					</labels>
					<comments>
						<mastercomment1/>
						<mastercomment2/>
						<mastercomment3/>
						<mastercomment4/>
					</comments>
					<file id="DYR18482_01 2"/>
					<filter>
						<effect>
							<name>Audio Levels</name>
							<effectid>audiolevels</effectid>
							<effectcategory>audiolevels</effectcategory>
							<effecttype>audiolevels</effecttype>
							<mediatype>audio</mediatype>
							<parameter>
								<name>Level</name>
								<parameterid>level</parameterid>
								<valuemin>0</valuemin>
								<valuemax>3.98109</valuemax>
								<value>1</value>
							</parameter>
						</effect>
					</filter>
					<filter>
						<effect>
							<name>Audio Pan</name>
							<effectid>audiopan</effectid>
							<effectcategory>audiopan</effectcategory>
							<effecttype>audiopan</effecttype>
							<mediatype>audio</mediatype>
							<parameter>
								<name>Pan</name>
								<parameterid>pan</parameterid>
								<valuemin>-1</valuemin>
								<valuemax>1</valuemax>
								<value>0</value>
							</parameter>
						</effect>
					</filter>
					<sourcetrack>
						<mediatype>audio</mediatype>
						<trackindex>2</trackindex>
					</sourcetrack>
					<link>
						<linkclipref>DYR18482_01 </linkclipref>
						<mediatype>video</mediatype>
						<trackindex>1</trackindex>
						<clipindex>132</clipindex>
					</link>
					<link>
						<linkclipref>DYR18482_01 3</linkclipref>
						<mediatype>audio</mediatype>
						<trackindex>1</trackindex>
						<clipindex>133</clipindex>
					</link>
					<link>
						<linkclipref>DYR18482_01 4</linkclipref>
						<mediatype>audio</mediatype>
						<trackindex>2</trackindex>
						<clipindex>137</clipindex>
					</link>
					<itemhistory>
						<uuid>C43B670C-701F-495D-8B49-10189B543039</uuid>
					</itemhistory>
				</clipitem>
				<clipitem id="DYR18486_01 4">
					<name>DYR18486_01</name>
					<duration>1456</duration>
					<rate>
						<ntsc>FALSE</ntsc>
						<timebase>25</timebase>
					</rate>
					<in>69</in>
					<out>245</out>
					<start>18098</start>
					<end>18274</end>
					<subframeoffset>0</subframeoffset>
					<masterclipid>DYR18486_01 1</masterclipid>
					<logginginfo>
						<scene/>
						<shottake/>
						<lognote/>
						<good>FALSE</good>
					</logginginfo>
					<labels>
						<label2/>
					</labels>
					<comments>
						<mastercomment1/>
						<mastercomment2/>
						<mastercomment3/>
						<mastercomment4/>
					</comments>
					<file id="DYR18486_01 2"/>
					<filter>
						<effect>
							<name>Audio Levels</name>
							<effectid>audiolevels</effectid>
							<effectcategory>audiolevels</effectcategory>
							<effecttype>audiolevels</effecttype>
							<mediatype>audio</mediatype>
							<parameter>
								<name>Level</name>
								<parameterid>level</parameterid>
								<valuemin>0</valuemin>
								<valuemax>3.98109</valuemax>
								<value>1</value>
							</parameter>
						</effect>
					</filter>
					<filter>
						<effect>
							<name>Audio Pan</name>
							<effectid>audiopan</effectid>
							<effectcategory>audiopan</effectcategory>
							<effecttype>audiopan</effecttype>
							<mediatype>audio</mediatype>
							<parameter>
								<name>Pan</name>
								<parameterid>pan</parameterid>
								<valuemin>-1</valuemin>
								<valuemax>1</valuemax>
								<value>0</value>
							</parameter>
						</effect>
					</filter>
					<sourcetrack>
						<mediatype>audio</mediatype>
						<trackindex>2</trackindex>
					</sourcetrack>
					<link>
						<linkclipref>DYR18486_01 </linkclipref>
						<mediatype>video</mediatype>
						<trackindex>1</trackindex>
						<clipindex>133</clipindex>
					</link>
					<link>
						<linkclipref>DYR18486_01 3</linkclipref>
						<mediatype>audio</mediatype>
						<trackindex>1</trackindex>
						<clipindex>134</clipindex>
					</link>
					<link>
						<linkclipref>DYR18486_01 4</linkclipref>
						<mediatype>audio</mediatype>
						<trackindex>2</trackindex>
						<clipindex>138</clipindex>
					</link>
					<itemhistory>
						<uuid>FAAD4FFB-B603-4783-A511-1020EA0B03A4</uuid>
					</itemhistory>
				</clipitem>
				<clipitem id="DYR18485_01 4">
					<name>DYR18485_01</name>
					<duration>595</duration>
					<rate>
						<ntsc>FALSE</ntsc>
						<timebase>25</timebase>
					</rate>
					<in>261</in>
					<out>365</out>
					<start>18274</start>
					<end>18378</end>
					<subframeoffset>0</subframeoffset>
					<masterclipid>DYR18485_01 1</masterclipid>
					<logginginfo>
						<scene/>
						<shottake/>
						<lognote/>
						<good>FALSE</good>
					</logginginfo>
					<labels>
						<label2/>
					</labels>
					<comments>
						<mastercomment1/>
						<mastercomment2/>
						<mastercomment3/>
						<mastercomment4/>
					</comments>
					<file id="DYR18485_01 2"/>
					<filter>
						<effect>
							<name>Audio Levels</name>
							<effectid>audiolevels</effectid>
							<effectcategory>audiolevels</effectcategory>
							<effecttype>audiolevels</effecttype>
							<mediatype>audio</mediatype>
							<parameter>
								<name>Level</name>
								<parameterid>level</parameterid>
								<valuemin>0</valuemin>
								<valuemax>3.98109</valuemax>
								<value>1</value>
							</parameter>
						</effect>
					</filter>
					<filter>
						<effect>
							<name>Audio Pan</name>
							<effectid>audiopan</effectid>
							<effectcategory>audiopan</effectcategory>
							<effecttype>audiopan</effecttype>
							<mediatype>audio</mediatype>
							<parameter>
								<name>Pan</name>
								<parameterid>pan</parameterid>
								<valuemin>-1</valuemin>
								<valuemax>1</valuemax>
								<value>0</value>
							</parameter>
						</effect>
					</filter>
					<sourcetrack>
						<mediatype>audio</mediatype>
						<trackindex>2</trackindex>
					</sourcetrack>
					<link>
						<linkclipref>DYR18485_01 </linkclipref>
						<mediatype>video</mediatype>
						<trackindex>1</trackindex>
						<clipindex>134</clipindex>
					</link>
					<link>
						<linkclipref>DYR18485_01 3</linkclipref>
						<mediatype>audio</mediatype>
						<trackindex>1</trackindex>
						<clipindex>135</clipindex>
					</link>
					<link>
						<linkclipref>DYR18485_01 4</linkclipref>
						<mediatype>audio</mediatype>
						<trackindex>2</trackindex>
						<clipindex>139</clipindex>
					</link>
					<itemhistory>
						<uuid>E52406C8-0570-4FF3-B9B4-E40AA1181F22</uuid>
					</itemhistory>
				</clipitem>
				<clipitem id="DYR18488_01 7">
					<name>DYR18488_01</name>
					<duration>1012</duration>
					<rate>
						<ntsc>FALSE</ntsc>
						<timebase>25</timebase>
					</rate>
					<in>340</in>
					<out>697</out>
					<start>18378</start>
					<end>18735</end>
					<subframeoffset>0</subframeoffset>
					<masterclipid>DYR18488_01 1</masterclipid>
					<logginginfo>
						<scene/>
						<shottake/>
						<lognote/>
						<good>FALSE</good>
					</logginginfo>
					<labels>
						<label2/>
					</labels>
					<comments>
						<mastercomment1/>
						<mastercomment2/>
						<mastercomment3/>
						<mastercomment4/>
					</comments>
					<file id="DYR18488_01 2"/>
					<filter>
						<effect>
							<name>Audio Levels</name>
							<effectid>audiolevels</effectid>
							<effectcategory>audiolevels</effectcategory>
							<effecttype>audiolevels</effecttype>
							<mediatype>audio</mediatype>
							<parameter>
								<name>Level</name>
								<parameterid>level</parameterid>
								<valuemin>0</valuemin>
								<valuemax>3.98109</valuemax>
								<value>1</value>
							</parameter>
						</effect>
					</filter>
					<filter>
						<effect>
							<name>Audio Pan</name>
							<effectid>audiopan</effectid>
							<effectcategory>audiopan</effectcategory>
							<effecttype>audiopan</effecttype>
							<mediatype>audio</mediatype>
							<parameter>
								<name>Pan</name>
								<parameterid>pan</parameterid>
								<valuemin>-1</valuemin>
								<valuemax>1</valuemax>
								<value>0</value>
							</parameter>
						</effect>
					</filter>
					<sourcetrack>
						<mediatype>audio</mediatype>
						<trackindex>2</trackindex>
					</sourcetrack>
					<link>
						<linkclipref>DYR18488_01 5</linkclipref>
						<mediatype>video</mediatype>
						<trackindex>2</trackindex>
						<clipindex>47</clipindex>
					</link>
					<link>
						<linkclipref>DYR18488_01 6</linkclipref>
						<mediatype>audio</mediatype>
						<trackindex>1</trackindex>
						<clipindex>136</clipindex>
					</link>
					<link>
						<linkclipref>DYR18488_01 7</linkclipref>
						<mediatype>audio</mediatype>
						<trackindex>2</trackindex>
						<clipindex>140</clipindex>
					</link>
					<itemhistory>
						<uuid>F173C369-6A05-4ABA-8E7C-6871B7F41B49</uuid>
					</itemhistory>
				</clipitem>
				<clipitem id="DYR18492_01 4">
					<name>DYR18492_01</name>
					<duration>2489</duration>
					<rate>
						<ntsc>FALSE</ntsc>
						<timebase>25</timebase>
					</rate>
					<in>678</in>
					<out>957</out>
					<start>18735</start>
					<end>19014</end>
					<subframeoffset>0</subframeoffset>
					<masterclipid>DYR18492_01 1</masterclipid>
					<logginginfo>
						<scene/>
						<shottake/>
						<lognote/>
						<good>FALSE</good>
					</logginginfo>
					<labels>
						<label2/>
					</labels>
					<comments>
						<mastercomment1/>
						<mastercomment2/>
						<mastercomment3/>
						<mastercomment4/>
					</comments>
					<file id="DYR18492_01 2"/>
					<filter>
						<effect>
							<name>Audio Levels</name>
							<effectid>audiolevels</effectid>
							<effectcategory>audiolevels</effectcategory>
							<effecttype>audiolevels</effecttype>
							<mediatype>audio</mediatype>
							<parameter>
								<name>Level</name>
								<parameterid>level</parameterid>
								<valuemin>0</valuemin>
								<valuemax>3.98109</valuemax>
								<value>0</value>
							</parameter>
						</effect>
					</filter>
					<filter>
						<effect>
							<name>Audio Pan</name>
							<effectid>audiopan</effectid>
							<effectcategory>audiopan</effectcategory>
							<effecttype>audiopan</effecttype>
							<mediatype>audio</mediatype>
							<parameter>
								<name>Pan</name>
								<parameterid>pan</parameterid>
								<valuemin>-1</valuemin>
								<valuemax>1</valuemax>
								<value>0</value>
							</parameter>
						</effect>
					</filter>
					<sourcetrack>
						<mediatype>audio</mediatype>
						<trackindex>2</trackindex>
					</sourcetrack>
					<link>
						<linkclipref>DYR18492_01 </linkclipref>
						<mediatype>video</mediatype>
						<trackindex>1</trackindex>
						<clipindex>136</clipindex>
					</link>
					<link>
						<linkclipref>DYR18492_01 3</linkclipref>
						<mediatype>audio</mediatype>
						<trackindex>1</trackindex>
						<clipindex>137</clipindex>
					</link>
					<link>
						<linkclipref>DYR18492_01 4</linkclipref>
						<mediatype>audio</mediatype>
						<trackindex>2</trackindex>
						<clipindex>141</clipindex>
					</link>
					<itemhistory>
						<uuid>662E0ACC-F7BB-4E8D-893C-A52C83F74D61</uuid>
					</itemhistory>
				</clipitem>
				<clipitem id="DYR18494_01 4">
					<name>DYR18494_01</name>
					<duration>1145</duration>
					<rate>
						<ntsc>FALSE</ntsc>
						<timebase>25</timebase>
					</rate>
					<in>128</in>
					<out>179</out>
					<start>19014</start>
					<end>19065</end>
					<subframeoffset>0</subframeoffset>
					<masterclipid>DYR18494_01 1</masterclipid>
					<logginginfo>
						<scene/>
						<shottake/>
						<lognote/>
						<good>FALSE</good>
					</logginginfo>
					<labels>
						<label2/>
					</labels>
					<comments>
						<mastercomment1/>
						<mastercomment2/>
						<mastercomment3/>
						<mastercomment4/>
					</comments>
					<file id="DYR18494_01 2"/>
					<filter>
						<effect>
							<name>Audio Levels</name>
							<effectid>audiolevels</effectid>
							<effectcategory>audiolevels</effectcategory>
							<effecttype>audiolevels</effecttype>
							<mediatype>audio</mediatype>
							<parameter>
								<name>Level</name>
								<parameterid>level</parameterid>
								<valuemin>0</valuemin>
								<valuemax>3.98109</valuemax>
								<value>0</value>
							</parameter>
						</effect>
					</filter>
					<filter>
						<effect>
							<name>Audio Pan</name>
							<effectid>audiopan</effectid>
							<effectcategory>audiopan</effectcategory>
							<effecttype>audiopan</effecttype>
							<mediatype>audio</mediatype>
							<parameter>
								<name>Pan</name>
								<parameterid>pan</parameterid>
								<valuemin>-1</valuemin>
								<valuemax>1</valuemax>
								<value>0</value>
							</parameter>
						</effect>
					</filter>
					<sourcetrack>
						<mediatype>audio</mediatype>
						<trackindex>2</trackindex>
					</sourcetrack>
					<link>
						<linkclipref>DYR18494_01 </linkclipref>
						<mediatype>video</mediatype>
						<trackindex>1</trackindex>
						<clipindex>137</clipindex>
					</link>
					<link>
						<linkclipref>DYR18494_01 3</linkclipref>
						<mediatype>audio</mediatype>
						<trackindex>1</trackindex>
						<clipindex>138</clipindex>
					</link>
					<link>
						<linkclipref>DYR18494_01 4</linkclipref>
						<mediatype>audio</mediatype>
						<trackindex>2</trackindex>
						<clipindex>142</clipindex>
					</link>
					<itemhistory>
						<uuid>E1FCE76C-C4BA-404B-97FC-4B651D4697A8</uuid>
					</itemhistory>
				</clipitem>
				<clipitem id="DYR18494_01 7">
					<name>DYR18494_01</name>
					<duration>1145</duration>
					<rate>
						<ntsc>FALSE</ntsc>
						<timebase>25</timebase>
					</rate>
					<in>467</in>
					<out>554</out>
					<start>19065</start>
					<end>19152</end>
					<subframeoffset>0</subframeoffset>
					<masterclipid>DYR18494_01 1</masterclipid>
					<logginginfo>
						<scene/>
						<shottake/>
						<lognote/>
						<good>FALSE</good>
					</logginginfo>
					<labels>
						<label2/>
					</labels>
					<comments>
						<mastercomment1/>
						<mastercomment2/>
						<mastercomment3/>
						<mastercomment4/>
					</comments>
					<file id="DYR18494_01 2"/>
					<filter>
						<effect>
							<name>Audio Levels</name>
							<effectid>audiolevels</effectid>
							<effectcategory>audiolevels</effectcategory>
							<effecttype>audiolevels</effecttype>
							<mediatype>audio</mediatype>
							<parameter>
								<name>Level</name>
								<parameterid>level</parameterid>
								<valuemin>0</valuemin>
								<valuemax>3.98109</valuemax>
								<value>1</value>
							</parameter>
						</effect>
					</filter>
					<filter>
						<effect>
							<name>Audio Pan</name>
							<effectid>audiopan</effectid>
							<effectcategory>audiopan</effectcategory>
							<effecttype>audiopan</effecttype>
							<mediatype>audio</mediatype>
							<parameter>
								<name>Pan</name>
								<parameterid>pan</parameterid>
								<valuemin>-1</valuemin>
								<valuemax>1</valuemax>
								<value>0</value>
							</parameter>
						</effect>
					</filter>
					<sourcetrack>
						<mediatype>audio</mediatype>
						<trackindex>2</trackindex>
					</sourcetrack>
					<link>
						<linkclipref>DYR18494_01 5</linkclipref>
						<mediatype>video</mediatype>
						<trackindex>1</trackindex>
						<clipindex>138</clipindex>
					</link>
					<link>
						<linkclipref>DYR18494_01 6</linkclipref>
						<mediatype>audio</mediatype>
						<trackindex>1</trackindex>
						<clipindex>139</clipindex>
					</link>
					<link>
						<linkclipref>DYR18494_01 7</linkclipref>
						<mediatype>audio</mediatype>
						<trackindex>2</trackindex>
						<clipindex>143</clipindex>
					</link>
					<itemhistory>
						<uuid>6C3E242F-86D0-4117-AA70-BEA123470B48</uuid>
					</itemhistory>
				</clipitem>
				<clipitem id="DYR18494_01 10">
					<name>DYR18494_01</name>
					<duration>1145</duration>
					<rate>
						<ntsc>FALSE</ntsc>
						<timebase>25</timebase>
					</rate>
					<in>599</in>
					<out>667</out>
					<start>19152</start>
					<end>19220</end>
					<subframeoffset>0</subframeoffset>
					<masterclipid>DYR18494_01 1</masterclipid>
					<logginginfo>
						<scene/>
						<shottake/>
						<lognote/>
						<good>FALSE</good>
					</logginginfo>
					<labels>
						<label2/>
					</labels>
					<comments>
						<mastercomment1/>
						<mastercomment2/>
						<mastercomment3/>
						<mastercomment4/>
					</comments>
					<file id="DYR18494_01 2"/>
					<filter>
						<effect>
							<name>Audio Levels</name>
							<effectid>audiolevels</effectid>
							<effectcategory>audiolevels</effectcategory>
							<effecttype>audiolevels</effecttype>
							<mediatype>audio</mediatype>
							<parameter>
								<name>Level</name>
								<parameterid>level</parameterid>
								<valuemin>0</valuemin>
								<valuemax>3.98109</valuemax>
								<value>1</value>
							</parameter>
						</effect>
					</filter>
					<filter>
						<effect>
							<name>Audio Pan</name>
							<effectid>audiopan</effectid>
							<effectcategory>audiopan</effectcategory>
							<effecttype>audiopan</effecttype>
							<mediatype>audio</mediatype>
							<parameter>
								<name>Pan</name>
								<parameterid>pan</parameterid>
								<valuemin>-1</valuemin>
								<valuemax>1</valuemax>
								<value>0</value>
							</parameter>
						</effect>
					</filter>
					<sourcetrack>
						<mediatype>audio</mediatype>
						<trackindex>2</trackindex>
					</sourcetrack>
					<link>
						<linkclipref>DYR18494_01 8</linkclipref>
						<mediatype>video</mediatype>
						<trackindex>1</trackindex>
						<clipindex>139</clipindex>
					</link>
					<link>
						<linkclipref>DYR18494_01 9</linkclipref>
						<mediatype>audio</mediatype>
						<trackindex>1</trackindex>
						<clipindex>140</clipindex>
					</link>
					<link>
						<linkclipref>DYR18494_01 10</linkclipref>
						<mediatype>audio</mediatype>
						<trackindex>2</trackindex>
						<clipindex>144</clipindex>
					</link>
					<itemhistory>
						<uuid>6567483E-DE76-48D4-8439-85020461E0D3</uuid>
					</itemhistory>
				</clipitem>
				<clipitem id="DYR18516_01 4">
					<name>DYR18516_01</name>
					<duration>2267</duration>
					<rate>
						<ntsc>FALSE</ntsc>
						<timebase>25</timebase>
					</rate>
					<in>177</in>
					<out>279</out>
					<start>19462</start>
					<end>19564</end>
					<subframeoffset>0</subframeoffset>
					<masterclipid>DYR18516_01 1</masterclipid>
					<logginginfo>
						<scene/>
						<shottake/>
						<lognote/>
						<good>FALSE</good>
					</logginginfo>
					<labels>
						<label2/>
					</labels>
					<comments>
						<mastercomment1/>
						<mastercomment2/>
						<mastercomment3/>
						<mastercomment4/>
					</comments>
					<file id="DYR18516_01 2"/>
					<filter>
						<effect>
							<name>Audio Levels</name>
							<effectid>audiolevels</effectid>
							<effectcategory>audiolevels</effectcategory>
							<effecttype>audiolevels</effecttype>
							<mediatype>audio</mediatype>
							<parameter>
								<name>Level</name>
								<parameterid>level</parameterid>
								<valuemin>0</valuemin>
								<valuemax>3.98109</valuemax>
								<value>1</value>
							</parameter>
						</effect>
					</filter>
					<filter>
						<effect>
							<name>Audio Pan</name>
							<effectid>audiopan</effectid>
							<effectcategory>audiopan</effectcategory>
							<effecttype>audiopan</effecttype>
							<mediatype>audio</mediatype>
							<parameter>
								<name>Pan</name>
								<parameterid>pan</parameterid>
								<valuemin>-1</valuemin>
								<valuemax>1</valuemax>
								<value>0</value>
							</parameter>
						</effect>
					</filter>
					<sourcetrack>
						<mediatype>audio</mediatype>
						<trackindex>2</trackindex>
					</sourcetrack>
					<link>
						<linkclipref>DYR18516_01 </linkclipref>
						<mediatype>video</mediatype>
						<trackindex>1</trackindex>
						<clipindex>140</clipindex>
					</link>
					<link>
						<linkclipref>DYR18516_01 3</linkclipref>
						<mediatype>audio</mediatype>
						<trackindex>1</trackindex>
						<clipindex>142</clipindex>
					</link>
					<link>
						<linkclipref>DYR18516_01 4</linkclipref>
						<mediatype>audio</mediatype>
						<trackindex>2</trackindex>
						<clipindex>145</clipindex>
					</link>
					<itemhistory>
						<uuid>60C4A100-11CC-4BC0-9EC6-C4EF72B23FEC</uuid>
					</itemhistory>
				</clipitem>
				<clipitem id="DYR18516_01 7">
					<name>DYR18516_01</name>
					<duration>2267</duration>
					<rate>
						<ntsc>FALSE</ntsc>
						<timebase>25</timebase>
					</rate>
					<in>378</in>
					<out>423</out>
					<start>19615</start>
					<end>19660</end>
					<subframeoffset>0</subframeoffset>
					<masterclipid>DYR18516_01 1</masterclipid>
					<logginginfo>
						<scene/>
						<shottake/>
						<lognote/>
						<good>FALSE</good>
					</logginginfo>
					<labels>
						<label2/>
					</labels>
					<comments>
						<mastercomment1/>
						<mastercomment2/>
						<mastercomment3/>
						<mastercomment4/>
					</comments>
					<file id="DYR18516_01 2"/>
					<filter>
						<effect>
							<name>Audio Levels</name>
							<effectid>audiolevels</effectid>
							<effectcategory>audiolevels</effectcategory>
							<effecttype>audiolevels</effecttype>
							<mediatype>audio</mediatype>
							<parameter>
								<name>Level</name>
								<parameterid>level</parameterid>
								<valuemin>0</valuemin>
								<valuemax>3.98109</valuemax>
								<value>1</value>
							</parameter>
						</effect>
					</filter>
					<filter>
						<effect>
							<name>Audio Pan</name>
							<effectid>audiopan</effectid>
							<effectcategory>audiopan</effectcategory>
							<effecttype>audiopan</effecttype>
							<mediatype>audio</mediatype>
							<parameter>
								<name>Pan</name>
								<parameterid>pan</parameterid>
								<valuemin>-1</valuemin>
								<valuemax>1</valuemax>
								<value>0</value>
							</parameter>
						</effect>
					</filter>
					<sourcetrack>
						<mediatype>audio</mediatype>
						<trackindex>2</trackindex>
					</sourcetrack>
					<link>
						<linkclipref>DYR18516_01 5</linkclipref>
						<mediatype>video</mediatype>
						<trackindex>1</trackindex>
						<clipindex>141</clipindex>
					</link>
					<link>
						<linkclipref>DYR18516_01 6</linkclipref>
						<mediatype>audio</mediatype>
						<trackindex>1</trackindex>
						<clipindex>143</clipindex>
					</link>
					<link>
						<linkclipref>DYR18516_01 7</linkclipref>
						<mediatype>audio</mediatype>
						<trackindex>2</trackindex>
						<clipindex>146</clipindex>
					</link>
					<itemhistory>
						<uuid>BDE2D1A4-1035-4BA4-A5A7-8425715F80A5</uuid>
					</itemhistory>
				</clipitem>
				<clipitem id="DYR18516_01 10">
					<name>DYR18516_01</name>
					<duration>2267</duration>
					<rate>
						<ntsc>FALSE</ntsc>
						<timebase>25</timebase>
					</rate>
					<in>456</in>
					<out>538</out>
					<start>19689</start>
					<end>19771</end>
					<subframeoffset>0</subframeoffset>
					<masterclipid>DYR18516_01 1</masterclipid>
					<logginginfo>
						<scene/>
						<shottake/>
						<lognote/>
						<good>FALSE</good>
					</logginginfo>
					<labels>
						<label2/>
					</labels>
					<comments>
						<mastercomment1/>
						<mastercomment2/>
						<mastercomment3/>
						<mastercomment4/>
					</comments>
					<file id="DYR18516_01 2"/>
					<filter>
						<effect>
							<name>Audio Levels</name>
							<effectid>audiolevels</effectid>
							<effectcategory>audiolevels</effectcategory>
							<effecttype>audiolevels</effecttype>
							<mediatype>audio</mediatype>
							<parameter>
								<name>Level</name>
								<parameterid>level</parameterid>
								<valuemin>0</valuemin>
								<valuemax>3.98109</valuemax>
								<value>1</value>
							</parameter>
						</effect>
					</filter>
					<filter>
						<effect>
							<name>Audio Pan</name>
							<effectid>audiopan</effectid>
							<effectcategory>audiopan</effectcategory>
							<effecttype>audiopan</effecttype>
							<mediatype>audio</mediatype>
							<parameter>
								<name>Pan</name>
								<parameterid>pan</parameterid>
								<valuemin>-1</valuemin>
								<valuemax>1</valuemax>
								<value>0</value>
							</parameter>
						</effect>
					</filter>
					<sourcetrack>
						<mediatype>audio</mediatype>
						<trackindex>2</trackindex>
					</sourcetrack>
					<link>
						<linkclipref>DYR18516_01 8</linkclipref>
						<mediatype>video</mediatype>
						<trackindex>1</trackindex>
						<clipindex>142</clipindex>
					</link>
					<link>
						<linkclipref>DYR18516_01 9</linkclipref>
						<mediatype>audio</mediatype>
						<trackindex>1</trackindex>
						<clipindex>144</clipindex>
					</link>
					<link>
						<linkclipref>DYR18516_01 10</linkclipref>
						<mediatype>audio</mediatype>
						<trackindex>2</trackindex>
						<clipindex>147</clipindex>
					</link>
					<itemhistory>
						<uuid>0535EEF9-554F-4BAE-9DCA-56A6DDBA8C4A</uuid>
					</itemhistory>
				</clipitem>
				<clipitem id="DYR18516_01 13">
					<name>DYR18516_01</name>
					<duration>2267</duration>
					<rate>
						<ntsc>FALSE</ntsc>
						<timebase>25</timebase>
					</rate>
					<in>788</in>
					<out>1025</out>
					<start>19805</start>
					<end>20042</end>
					<subframeoffset>0</subframeoffset>
					<masterclipid>DYR18516_01 1</masterclipid>
					<logginginfo>
						<scene/>
						<shottake/>
						<lognote/>
						<good>FALSE</good>
					</logginginfo>
					<labels>
						<label2/>
					</labels>
					<comments>
						<mastercomment1/>
						<mastercomment2/>
						<mastercomment3/>
						<mastercomment4/>
					</comments>
					<file id="DYR18516_01 2"/>
					<filter>
						<effect>
							<name>Audio Levels</name>
							<effectid>audiolevels</effectid>
							<effectcategory>audiolevels</effectcategory>
							<effecttype>audiolevels</effecttype>
							<mediatype>audio</mediatype>
							<parameter>
								<name>Level</name>
								<parameterid>level</parameterid>
								<valuemin>0</valuemin>
								<valuemax>3.98109</valuemax>
								<value>1</value>
							</parameter>
						</effect>
					</filter>
					<filter>
						<effect>
							<name>Audio Pan</name>
							<effectid>audiopan</effectid>
							<effectcategory>audiopan</effectcategory>
							<effecttype>audiopan</effecttype>
							<mediatype>audio</mediatype>
							<parameter>
								<name>Pan</name>
								<parameterid>pan</parameterid>
								<valuemin>-1</valuemin>
								<valuemax>1</valuemax>
								<value>0</value>
							</parameter>
						</effect>
					</filter>
					<sourcetrack>
						<mediatype>audio</mediatype>
						<trackindex>2</trackindex>
					</sourcetrack>
					<link>
						<linkclipref>DYR18516_01 11</linkclipref>
						<mediatype>video</mediatype>
						<trackindex>1</trackindex>
						<clipindex>143</clipindex>
					</link>
					<link>
						<linkclipref>DYR18516_01 12</linkclipref>
						<mediatype>audio</mediatype>
						<trackindex>1</trackindex>
						<clipindex>145</clipindex>
					</link>
					<link>
						<linkclipref>DYR18516_01 13</linkclipref>
						<mediatype>audio</mediatype>
						<trackindex>2</trackindex>
						<clipindex>148</clipindex>
					</link>
					<itemhistory>
						<uuid>21457CEF-55BC-4005-B8B4-9F02D95672E6</uuid>
					</itemhistory>
				</clipitem>
				<clipitem id="DYR18516_01 16">
					<name>DYR18516_01</name>
					<duration>2267</duration>
					<rate>
						<ntsc>FALSE</ntsc>
						<timebase>25</timebase>
					</rate>
					<in>1610</in>
					<out>1679</out>
					<start>20042</start>
					<end>20111</end>
					<subframeoffset>0</subframeoffset>
					<masterclipid>DYR18516_01 1</masterclipid>
					<logginginfo>
						<scene/>
						<shottake/>
						<lognote/>
						<good>FALSE</good>
					</logginginfo>
					<labels>
						<label2/>
					</labels>
					<comments>
						<mastercomment1/>
						<mastercomment2/>
						<mastercomment3/>
						<mastercomment4/>
					</comments>
					<file id="DYR18516_01 2"/>
					<filter>
						<effect>
							<name>Audio Levels</name>
							<effectid>audiolevels</effectid>
							<effectcategory>audiolevels</effectcategory>
							<effecttype>audiolevels</effecttype>
							<mediatype>audio</mediatype>
							<parameter>
								<name>Level</name>
								<parameterid>level</parameterid>
								<valuemin>0</valuemin>
								<valuemax>3.98109</valuemax>
								<value>0</value>
							</parameter>
						</effect>
					</filter>
					<filter>
						<effect>
							<name>Audio Pan</name>
							<effectid>audiopan</effectid>
							<effectcategory>audiopan</effectcategory>
							<effecttype>audiopan</effecttype>
							<mediatype>audio</mediatype>
							<parameter>
								<name>Pan</name>
								<parameterid>pan</parameterid>
								<valuemin>-1</valuemin>
								<valuemax>1</valuemax>
								<value>0</value>
							</parameter>
						</effect>
					</filter>
					<sourcetrack>
						<mediatype>audio</mediatype>
						<trackindex>2</trackindex>
					</sourcetrack>
					<link>
						<linkclipref>DYR18516_01 14</linkclipref>
						<mediatype>video</mediatype>
						<trackindex>1</trackindex>
						<clipindex>144</clipindex>
					</link>
					<link>
						<linkclipref>DYR18516_01 15</linkclipref>
						<mediatype>audio</mediatype>
						<trackindex>1</trackindex>
						<clipindex>146</clipindex>
					</link>
					<link>
						<linkclipref>DYR18516_01 16</linkclipref>
						<mediatype>audio</mediatype>
						<trackindex>2</trackindex>
						<clipindex>149</clipindex>
					</link>
					<itemhistory>
						<uuid>644CAB09-0570-4AB3-83C5-765184416014</uuid>
					</itemhistory>
				</clipitem>
				<clipitem id="DYR18517_01 4">
					<name>DYR18517_01</name>
					<duration>3508</duration>
					<rate>
						<ntsc>FALSE</ntsc>
						<timebase>25</timebase>
					</rate>
					<in>384</in>
					<out>449</out>
					<start>20111</start>
					<end>20176</end>
					<subframeoffset>0</subframeoffset>
					<masterclipid>DYR18517_01 1</masterclipid>
					<logginginfo>
						<scene/>
						<shottake/>
						<lognote/>
						<good>FALSE</good>
					</logginginfo>
					<labels>
						<label2/>
					</labels>
					<comments>
						<mastercomment1/>
						<mastercomment2/>
						<mastercomment3/>
						<mastercomment4/>
					</comments>
					<file id="DYR18517_01 2"/>
					<filter>
						<effect>
							<name>Audio Levels</name>
							<effectid>audiolevels</effectid>
							<effectcategory>audiolevels</effectcategory>
							<effecttype>audiolevels</effecttype>
							<mediatype>audio</mediatype>
							<parameter>
								<name>Level</name>
								<parameterid>level</parameterid>
								<valuemin>0</valuemin>
								<valuemax>3.98109</valuemax>
								<value>1</value>
							</parameter>
						</effect>
					</filter>
					<filter>
						<effect>
							<name>Audio Pan</name>
							<effectid>audiopan</effectid>
							<effectcategory>audiopan</effectcategory>
							<effecttype>audiopan</effecttype>
							<mediatype>audio</mediatype>
							<parameter>
								<name>Pan</name>
								<parameterid>pan</parameterid>
								<valuemin>-1</valuemin>
								<valuemax>1</valuemax>
								<value>0</value>
							</parameter>
						</effect>
					</filter>
					<sourcetrack>
						<mediatype>audio</mediatype>
						<trackindex>2</trackindex>
					</sourcetrack>
					<link>
						<linkclipref>DYR18517_01 </linkclipref>
						<mediatype>video</mediatype>
						<trackindex>1</trackindex>
						<clipindex>145</clipindex>
					</link>
					<link>
						<linkclipref>DYR18517_01 3</linkclipref>
						<mediatype>audio</mediatype>
						<trackindex>1</trackindex>
						<clipindex>147</clipindex>
					</link>
					<link>
						<linkclipref>DYR18517_01 4</linkclipref>
						<mediatype>audio</mediatype>
						<trackindex>2</trackindex>
						<clipindex>150</clipindex>
					</link>
					<itemhistory>
						<uuid>F48E4A2E-954A-4726-9EA7-AA02F25292C4</uuid>
					</itemhistory>
				</clipitem>
				<clipitem id="DYR18517_01 7">
					<name>DYR18517_01</name>
					<duration>3508</duration>
					<rate>
						<ntsc>FALSE</ntsc>
						<timebase>25</timebase>
					</rate>
					<in>1466</in>
					<out>1574</out>
					<start>20176</start>
					<end>20284</end>
					<subframeoffset>0</subframeoffset>
					<masterclipid>DYR18517_01 1</masterclipid>
					<logginginfo>
						<scene/>
						<shottake/>
						<lognote/>
						<good>FALSE</good>
					</logginginfo>
					<labels>
						<label2/>
					</labels>
					<comments>
						<mastercomment1/>
						<mastercomment2/>
						<mastercomment3/>
						<mastercomment4/>
					</comments>
					<file id="DYR18517_01 2"/>
					<filter>
						<effect>
							<name>Audio Levels</name>
							<effectid>audiolevels</effectid>
							<effectcategory>audiolevels</effectcategory>
							<effecttype>audiolevels</effecttype>
							<mediatype>audio</mediatype>
							<parameter>
								<name>Level</name>
								<parameterid>level</parameterid>
								<valuemin>0</valuemin>
								<valuemax>3.98109</valuemax>
								<value>1</value>
							</parameter>
						</effect>
					</filter>
					<filter>
						<effect>
							<name>Audio Pan</name>
							<effectid>audiopan</effectid>
							<effectcategory>audiopan</effectcategory>
							<effecttype>audiopan</effecttype>
							<mediatype>audio</mediatype>
							<parameter>
								<name>Pan</name>
								<parameterid>pan</parameterid>
								<valuemin>-1</valuemin>
								<valuemax>1</valuemax>
								<value>0</value>
							</parameter>
						</effect>
					</filter>
					<sourcetrack>
						<mediatype>audio</mediatype>
						<trackindex>2</trackindex>
					</sourcetrack>
					<link>
						<linkclipref>DYR18517_01 5</linkclipref>
						<mediatype>video</mediatype>
						<trackindex>1</trackindex>
						<clipindex>146</clipindex>
					</link>
					<link>
						<linkclipref>DYR18517_01 6</linkclipref>
						<mediatype>audio</mediatype>
						<trackindex>1</trackindex>
						<clipindex>148</clipindex>
					</link>
					<link>
						<linkclipref>DYR18517_01 7</linkclipref>
						<mediatype>audio</mediatype>
						<trackindex>2</trackindex>
						<clipindex>151</clipindex>
					</link>
					<itemhistory>
						<uuid>9D1CFA9B-2FBF-4B73-9AE1-8139E9F5811E</uuid>
					</itemhistory>
				</clipitem>
				<transitionitem>
					<rate>
						<ntsc>FALSE</ntsc>
						<timebase>25</timebase>
					</rate>
					<start>20721</start>
					<end>20746</end>
					<alignment>start-black</alignment>
					<effect>
						<name>Cross Fade (+3dB)</name>
						<effectid>KGAudioTransCrossFade3dB</effectid>
						<effecttype>transition</effecttype>
						<mediatype>audio</mediatype>
					</effect>
				</transitionitem>
				<clipitem id="00834001.MOV3">
					<name>00834001.MOV</name>
					<duration>1044</duration>
					<rate>
						<ntsc>FALSE</ntsc>
						<timebase>25</timebase>
					</rate>
					<in>226</in>
					<out>876</out>
					<start>-1</start>
					<end>21371</end>
					<subframeoffset>0</subframeoffset>
					<enabled>TRUE</enabled>
					<masterclipid>00834001.MOV1</masterclipid>
					<logginginfo>
						<scene/>
						<shottake/>
						<lognote/>
						<good>FALSE</good>
					</logginginfo>
					<labels>
						<label2/>
					</labels>
					<comments>
						<mastercomment1/>
						<mastercomment2/>
						<mastercomment3/>
						<mastercomment4/>
					</comments>
					<file id="00834001 "/>
					<filter>
						<effect>
							<name>Audio Levels</name>
							<effectid>audiolevels</effectid>
							<effectcategory>audiolevels</effectcategory>
							<effecttype>audiolevels</effecttype>
							<mediatype>audio</mediatype>
							<parameter>
								<name>Level</name>
								<parameterid>level</parameterid>
								<valuemin>0</valuemin>
								<valuemax>3.98109</valuemax>
								<value>1.41254</value>
							</parameter>
						</effect>
					</filter>
					<filter>
						<effect>
							<name>Audio Pan</name>
							<effectid>audiopan</effectid>
							<effectcategory>audiopan</effectcategory>
							<effecttype>audiopan</effecttype>
							<mediatype>audio</mediatype>
							<parameter>
								<name>Pan</name>
								<parameterid>pan</parameterid>
								<valuemin>-1</valuemin>
								<valuemax>1</valuemax>
								<value>0</value>
							</parameter>
						</effect>
					</filter>
					<sourcetrack>
						<mediatype>audio</mediatype>
						<trackindex>2</trackindex>
					</sourcetrack>
					<link>
						<linkclipref>00834001.MOV</linkclipref>
						<mediatype>video</mediatype>
						<trackindex>1</trackindex>
						<clipindex>149</clipindex>
					</link>
					<link>
						<linkclipref>00834001.MOV2</linkclipref>
						<mediatype>audio</mediatype>
						<trackindex>1</trackindex>
						<clipindex>152</clipindex>
					</link>
					<link>
						<linkclipref>00834001.MOV3</linkclipref>
						<mediatype>audio</mediatype>
						<trackindex>2</trackindex>
						<clipindex>153</clipindex>
					</link>
					<itemhistory>
						<uuid>249C021A-EC34-479B-BAF1-E52A2BED2040</uuid>
					</itemhistory>
				</clipitem>
				<clipitem id="00836001.MOV3">
					<name>00836001.MOV</name>
					<duration>264</duration>
					<rate>
						<ntsc>FALSE</ntsc>
						<timebase>25</timebase>
					</rate>
					<in>70</in>
					<out>164</out>
					<start>21371</start>
					<end>21465</end>
					<subframeoffset>0</subframeoffset>
					<masterclipid>00836001.MOV1</masterclipid>
					<logginginfo>
						<scene/>
						<shottake/>
						<lognote/>
						<good>FALSE</good>
					</logginginfo>
					<labels>
						<label2/>
					</labels>
					<comments>
						<mastercomment1/>
						<mastercomment2/>
						<mastercomment3/>
						<mastercomment4/>
					</comments>
					<file id="00836001 "/>
					<filter>
						<effect>
							<name>Audio Levels</name>
							<effectid>audiolevels</effectid>
							<effectcategory>audiolevels</effectcategory>
							<effecttype>audiolevels</effecttype>
							<mediatype>audio</mediatype>
							<parameter>
								<name>Level</name>
								<parameterid>level</parameterid>
								<valuemin>0</valuemin>
								<valuemax>3.98109</valuemax>
								<value>1.77828</value>
							</parameter>
						</effect>
					</filter>
					<filter>
						<effect>
							<name>Audio Pan</name>
							<effectid>audiopan</effectid>
							<effectcategory>audiopan</effectcategory>
							<effecttype>audiopan</effecttype>
							<mediatype>audio</mediatype>
							<parameter>
								<name>Pan</name>
								<parameterid>pan</parameterid>
								<valuemin>-1</valuemin>
								<valuemax>1</valuemax>
								<value>0</value>
							</parameter>
						</effect>
					</filter>
					<sourcetrack>
						<mediatype>audio</mediatype>
						<trackindex>2</trackindex>
					</sourcetrack>
					<link>
						<linkclipref>00836001.MOV</linkclipref>
						<mediatype>video</mediatype>
						<trackindex>1</trackindex>
						<clipindex>150</clipindex>
					</link>
					<link>
						<linkclipref>00836001.MOV2</linkclipref>
						<mediatype>audio</mediatype>
						<trackindex>1</trackindex>
						<clipindex>153</clipindex>
					</link>
					<link>
						<linkclipref>00836001.MOV3</linkclipref>
						<mediatype>audio</mediatype>
						<trackindex>2</trackindex>
						<clipindex>154</clipindex>
					</link>
					<itemhistory>
						<uuid>0ED40D68-D2EF-4E96-9A94-DC659322C9A3</uuid>
					</itemhistory>
				</clipitem>
				<clipitem id="00837001.MOV3">
					<name>00837001.MOV</name>
					<duration>432</duration>
					<rate>
						<ntsc>FALSE</ntsc>
						<timebase>25</timebase>
					</rate>
					<in>95</in>
					<out>292</out>
					<start>21465</start>
					<end>21662</end>
					<subframeoffset>0</subframeoffset>
					<masterclipid>00837001.MOV1</masterclipid>
					<logginginfo>
						<scene/>
						<shottake/>
						<lognote/>
						<good>FALSE</good>
					</logginginfo>
					<labels>
						<label2/>
					</labels>
					<comments>
						<mastercomment1/>
						<mastercomment2/>
						<mastercomment3/>
						<mastercomment4/>
					</comments>
					<file id="00837001 "/>
					<filter>
						<effect>
							<name>Audio Levels</name>
							<effectid>audiolevels</effectid>
							<effectcategory>audiolevels</effectcategory>
							<effecttype>audiolevels</effecttype>
							<mediatype>audio</mediatype>
							<parameter>
								<name>Level</name>
								<parameterid>level</parameterid>
								<valuemin>0</valuemin>
								<valuemax>3.98109</valuemax>
								<value>1.77828</value>
							</parameter>
						</effect>
					</filter>
					<filter>
						<effect>
							<name>Audio Pan</name>
							<effectid>audiopan</effectid>
							<effectcategory>audiopan</effectcategory>
							<effecttype>audiopan</effecttype>
							<mediatype>audio</mediatype>
							<parameter>
								<name>Pan</name>
								<parameterid>pan</parameterid>
								<valuemin>-1</valuemin>
								<valuemax>1</valuemax>
								<value>0</value>
							</parameter>
						</effect>
					</filter>
					<sourcetrack>
						<mediatype>audio</mediatype>
						<trackindex>2</trackindex>
					</sourcetrack>
					<link>
						<linkclipref>00837001.MOV</linkclipref>
						<mediatype>video</mediatype>
						<trackindex>1</trackindex>
						<clipindex>151</clipindex>
					</link>
					<link>
						<linkclipref>00837001.MOV2</linkclipref>
						<mediatype>audio</mediatype>
						<trackindex>1</trackindex>
						<clipindex>154</clipindex>
					</link>
					<link>
						<linkclipref>00837001.MOV3</linkclipref>
						<mediatype>audio</mediatype>
						<trackindex>2</trackindex>
						<clipindex>155</clipindex>
					</link>
					<itemhistory>
						<uuid>80E49155-A169-4004-BE76-4E3AEECB1ABC</uuid>
					</itemhistory>
				</clipitem>
				<clipitem id="00773001.MOV3">
					<name>00773001.MOV</name>
					<duration>1572</duration>
					<rate>
						<ntsc>FALSE</ntsc>
						<timebase>25</timebase>
					</rate>
					<in>1378</in>
					<out>1448</out>
					<start>21662</start>
					<end>21732</end>
					<subframeoffset>0</subframeoffset>
					<masterclipid>00773001.MOV1</masterclipid>
					<logginginfo>
						<scene/>
						<shottake/>
						<lognote/>
						<good>FALSE</good>
					</logginginfo>
					<labels>
						<label2/>
					</labels>
					<comments>
						<mastercomment1/>
						<mastercomment2/>
						<mastercomment3/>
						<mastercomment4/>
					</comments>
					<file id="00773001 "/>
					<filter>
						<effect>
							<name>Audio Levels</name>
							<effectid>audiolevels</effectid>
							<effectcategory>audiolevels</effectcategory>
							<effecttype>audiolevels</effecttype>
							<mediatype>audio</mediatype>
							<parameter>
								<name>Level</name>
								<parameterid>level</parameterid>
								<valuemin>0</valuemin>
								<valuemax>3.98109</valuemax>
								<value>1.77828</value>
							</parameter>
						</effect>
					</filter>
					<filter>
						<effect>
							<name>Audio Pan</name>
							<effectid>audiopan</effectid>
							<effectcategory>audiopan</effectcategory>
							<effecttype>audiopan</effecttype>
							<mediatype>audio</mediatype>
							<parameter>
								<name>Pan</name>
								<parameterid>pan</parameterid>
								<valuemin>-1</valuemin>
								<valuemax>1</valuemax>
								<value>0</value>
							</parameter>
						</effect>
					</filter>
					<sourcetrack>
						<mediatype>audio</mediatype>
						<trackindex>2</trackindex>
					</sourcetrack>
					<link>
						<linkclipref>00773001.MOV</linkclipref>
						<mediatype>video</mediatype>
						<trackindex>1</trackindex>
						<clipindex>152</clipindex>
					</link>
					<link>
						<linkclipref>00773001.MOV2</linkclipref>
						<mediatype>audio</mediatype>
						<trackindex>1</trackindex>
						<clipindex>155</clipindex>
					</link>
					<link>
						<linkclipref>00773001.MOV3</linkclipref>
						<mediatype>audio</mediatype>
						<trackindex>2</trackindex>
						<clipindex>156</clipindex>
					</link>
					<itemhistory>
						<uuid>8436EC57-88B4-4B0A-95DC-B4B15232A9D8</uuid>
					</itemhistory>
				</clipitem>
				<clipitem id="00778001.MOV3">
					<name>00778001.MOV</name>
					<duration>2628</duration>
					<rate>
						<ntsc>FALSE</ntsc>
						<timebase>25</timebase>
					</rate>
					<in>195</in>
					<out>334</out>
					<start>21732</start>
					<end>21871</end>
					<subframeoffset>0</subframeoffset>
					<masterclipid>00778001.MOV1</masterclipid>
					<logginginfo>
						<scene/>
						<shottake/>
						<lognote/>
						<good>FALSE</good>
					</logginginfo>
					<labels>
						<label2/>
					</labels>
					<comments>
						<mastercomment1/>
						<mastercomment2/>
						<mastercomment3/>
						<mastercomment4/>
					</comments>
					<file id="00778001 "/>
					<filter>
						<effect>
							<name>Audio Levels</name>
							<effectid>audiolevels</effectid>
							<effectcategory>audiolevels</effectcategory>
							<effecttype>audiolevels</effecttype>
							<mediatype>audio</mediatype>
							<parameter>
								<name>Level</name>
								<parameterid>level</parameterid>
								<valuemin>0</valuemin>
								<valuemax>3.98109</valuemax>
								<value>2.81838</value>
							</parameter>
						</effect>
					</filter>
					<filter>
						<effect>
							<name>Audio Pan</name>
							<effectid>audiopan</effectid>
							<effectcategory>audiopan</effectcategory>
							<effecttype>audiopan</effecttype>
							<mediatype>audio</mediatype>
							<parameter>
								<name>Pan</name>
								<parameterid>pan</parameterid>
								<valuemin>-1</valuemin>
								<valuemax>1</valuemax>
								<value>0</value>
							</parameter>
						</effect>
					</filter>
					<sourcetrack>
						<mediatype>audio</mediatype>
						<trackindex>2</trackindex>
					</sourcetrack>
					<link>
						<linkclipref>00778001.MOV</linkclipref>
						<mediatype>video</mediatype>
						<trackindex>1</trackindex>
						<clipindex>153</clipindex>
					</link>
					<link>
						<linkclipref>00778001.MOV2</linkclipref>
						<mediatype>audio</mediatype>
						<trackindex>1</trackindex>
						<clipindex>156</clipindex>
					</link>
					<link>
						<linkclipref>00778001.MOV3</linkclipref>
						<mediatype>audio</mediatype>
						<trackindex>2</trackindex>
						<clipindex>157</clipindex>
					</link>
					<itemhistory>
						<uuid>7681BEE0-9733-40B1-8FA3-5BBC326873D4</uuid>
					</itemhistory>
				</clipitem>
				<clipitem id="00779001.MOV3">
					<name>00779001.MOV</name>
					<duration>804</duration>
					<rate>
						<ntsc>FALSE</ntsc>
						<timebase>25</timebase>
					</rate>
					<in>189</in>
					<out>264</out>
					<start>21871</start>
					<end>21946</end>
					<subframeoffset>0</subframeoffset>
					<masterclipid>00779001.MOV1</masterclipid>
					<logginginfo>
						<scene/>
						<shottake/>
						<lognote/>
						<good>FALSE</good>
					</logginginfo>
					<labels>
						<label2/>
					</labels>
					<comments>
						<mastercomment1/>
						<mastercomment2/>
						<mastercomment3/>
						<mastercomment4/>
					</comments>
					<file id="00779001 "/>
					<filter>
						<effect>
							<name>Audio Levels</name>
							<effectid>audiolevels</effectid>
							<effectcategory>audiolevels</effectcategory>
							<effecttype>audiolevels</effecttype>
							<mediatype>audio</mediatype>
							<parameter>
								<name>Level</name>
								<parameterid>level</parameterid>
								<valuemin>0</valuemin>
								<valuemax>3.98109</valuemax>
								<value>2.81838</value>
							</parameter>
						</effect>
					</filter>
					<filter>
						<effect>
							<name>Audio Pan</name>
							<effectid>audiopan</effectid>
							<effectcategory>audiopan</effectcategory>
							<effecttype>audiopan</effecttype>
							<mediatype>audio</mediatype>
							<parameter>
								<name>Pan</name>
								<parameterid>pan</parameterid>
								<valuemin>-1</valuemin>
								<valuemax>1</valuemax>
								<value>0</value>
							</parameter>
						</effect>
					</filter>
					<sourcetrack>
						<mediatype>audio</mediatype>
						<trackindex>2</trackindex>
					</sourcetrack>
					<link>
						<linkclipref>00779001.MOV</linkclipref>
						<mediatype>video</mediatype>
						<trackindex>1</trackindex>
						<clipindex>154</clipindex>
					</link>
					<link>
						<linkclipref>00779001.MOV2</linkclipref>
						<mediatype>audio</mediatype>
						<trackindex>1</trackindex>
						<clipindex>157</clipindex>
					</link>
					<link>
						<linkclipref>00779001.MOV3</linkclipref>
						<mediatype>audio</mediatype>
						<trackindex>2</trackindex>
						<clipindex>158</clipindex>
					</link>
					<itemhistory>
						<uuid>83567201-6AF3-4CE6-BAD3-C6DB2FAE717C</uuid>
					</itemhistory>
				</clipitem>
				<clipitem id="00778001.MOV6">
					<name>00778001.MOV</name>
					<duration>2628</duration>
					<rate>
						<ntsc>FALSE</ntsc>
						<timebase>25</timebase>
					</rate>
					<in>439</in>
					<out>577</out>
					<start>21946</start>
					<end>22084</end>
					<subframeoffset>0</subframeoffset>
					<masterclipid>00778001.MOV1</masterclipid>
					<logginginfo>
						<scene/>
						<shottake/>
						<lognote/>
						<good>FALSE</good>
					</logginginfo>
					<labels>
						<label2/>
					</labels>
					<comments>
						<mastercomment1/>
						<mastercomment2/>
						<mastercomment3/>
						<mastercomment4/>
					</comments>
					<file id="00778001 "/>
					<filter>
						<effect>
							<name>Audio Levels</name>
							<effectid>audiolevels</effectid>
							<effectcategory>audiolevels</effectcategory>
							<effecttype>audiolevels</effecttype>
							<mediatype>audio</mediatype>
							<parameter>
								<name>Level</name>
								<parameterid>level</parameterid>
								<valuemin>0</valuemin>
								<valuemax>3.98109</valuemax>
								<value>2.81838</value>
							</parameter>
						</effect>
					</filter>
					<filter>
						<effect>
							<name>Audio Pan</name>
							<effectid>audiopan</effectid>
							<effectcategory>audiopan</effectcategory>
							<effecttype>audiopan</effecttype>
							<mediatype>audio</mediatype>
							<parameter>
								<name>Pan</name>
								<parameterid>pan</parameterid>
								<valuemin>-1</valuemin>
								<valuemax>1</valuemax>
								<value>0</value>
							</parameter>
						</effect>
					</filter>
					<sourcetrack>
						<mediatype>audio</mediatype>
						<trackindex>2</trackindex>
					</sourcetrack>
					<link>
						<linkclipref>00778001.MOV4</linkclipref>
						<mediatype>video</mediatype>
						<trackindex>1</trackindex>
						<clipindex>155</clipindex>
					</link>
					<link>
						<linkclipref>00778001.MOV5</linkclipref>
						<mediatype>audio</mediatype>
						<trackindex>1</trackindex>
						<clipindex>158</clipindex>
					</link>
					<link>
						<linkclipref>00778001.MOV6</linkclipref>
						<mediatype>audio</mediatype>
						<trackindex>2</trackindex>
						<clipindex>159</clipindex>
					</link>
					<itemhistory>
						<uuid>BBF76F40-94E9-457D-9022-FA1BCC9CFC5E</uuid>
					</itemhistory>
				</clipitem>
				<clipitem id="00782001.MOV3">
					<name>00782001.MOV</name>
					<duration>1248</duration>
					<rate>
						<ntsc>FALSE</ntsc>
						<timebase>25</timebase>
					</rate>
					<in>682</in>
					<out>757</out>
					<start>22084</start>
					<end>22159</end>
					<subframeoffset>0</subframeoffset>
					<masterclipid>00782001.MOV1</masterclipid>
					<logginginfo>
						<scene/>
						<shottake/>
						<lognote/>
						<good>FALSE</good>
					</logginginfo>
					<labels>
						<label2/>
					</labels>
					<comments>
						<mastercomment1/>
						<mastercomment2/>
						<mastercomment3/>
						<mastercomment4/>
					</comments>
					<file id="00782001 "/>
					<filter>
						<effect>
							<name>Audio Levels</name>
							<effectid>audiolevels</effectid>
							<effectcategory>audiolevels</effectcategory>
							<effecttype>audiolevels</effecttype>
							<mediatype>audio</mediatype>
							<parameter>
								<name>Level</name>
								<parameterid>level</parameterid>
								<valuemin>0</valuemin>
								<valuemax>3.98109</valuemax>
								<value>1</value>
							</parameter>
						</effect>
					</filter>
					<filter>
						<effect>
							<name>Audio Pan</name>
							<effectid>audiopan</effectid>
							<effectcategory>audiopan</effectcategory>
							<effecttype>audiopan</effecttype>
							<mediatype>audio</mediatype>
							<parameter>
								<name>Pan</name>
								<parameterid>pan</parameterid>
								<valuemin>-1</valuemin>
								<valuemax>1</valuemax>
								<value>0</value>
							</parameter>
						</effect>
					</filter>
					<sourcetrack>
						<mediatype>audio</mediatype>
						<trackindex>2</trackindex>
					</sourcetrack>
					<link>
						<linkclipref>00782001.MOV</linkclipref>
						<mediatype>video</mediatype>
						<trackindex>1</trackindex>
						<clipindex>156</clipindex>
					</link>
					<link>
						<linkclipref>00782001.MOV2</linkclipref>
						<mediatype>audio</mediatype>
						<trackindex>1</trackindex>
						<clipindex>159</clipindex>
					</link>
					<link>
						<linkclipref>00782001.MOV3</linkclipref>
						<mediatype>audio</mediatype>
						<trackindex>2</trackindex>
						<clipindex>160</clipindex>
					</link>
					<itemhistory>
						<uuid>DDE905DF-4762-45D5-97AC-D35CEDCDE859</uuid>
					</itemhistory>
				</clipitem>
				<clipitem id="00778001.MOV9">
					<name>00778001.MOV</name>
					<duration>2628</duration>
					<rate>
						<ntsc>FALSE</ntsc>
						<timebase>25</timebase>
					</rate>
					<in>652</in>
					<out>940</out>
					<start>22159</start>
					<end>22447</end>
					<subframeoffset>0</subframeoffset>
					<masterclipid>00778001.MOV1</masterclipid>
					<logginginfo>
						<scene/>
						<shottake/>
						<lognote/>
						<good>FALSE</good>
					</logginginfo>
					<labels>
						<label2/>
					</labels>
					<comments>
						<mastercomment1/>
						<mastercomment2/>
						<mastercomment3/>
						<mastercomment4/>
					</comments>
					<file id="00778001 "/>
					<filter>
						<effect>
							<name>Audio Levels</name>
							<effectid>audiolevels</effectid>
							<effectcategory>audiolevels</effectcategory>
							<effecttype>audiolevels</effecttype>
							<mediatype>audio</mediatype>
							<parameter>
								<name>Level</name>
								<parameterid>level</parameterid>
								<valuemin>0</valuemin>
								<valuemax>3.98109</valuemax>
								<value>2.81838</value>
							</parameter>
						</effect>
					</filter>
					<filter>
						<effect>
							<name>Audio Pan</name>
							<effectid>audiopan</effectid>
							<effectcategory>audiopan</effectcategory>
							<effecttype>audiopan</effecttype>
							<mediatype>audio</mediatype>
							<parameter>
								<name>Pan</name>
								<parameterid>pan</parameterid>
								<valuemin>-1</valuemin>
								<valuemax>1</valuemax>
								<value>0</value>
							</parameter>
						</effect>
					</filter>
					<sourcetrack>
						<mediatype>audio</mediatype>
						<trackindex>2</trackindex>
					</sourcetrack>
					<link>
						<linkclipref>00778001.MOV7</linkclipref>
						<mediatype>video</mediatype>
						<trackindex>1</trackindex>
						<clipindex>157</clipindex>
					</link>
					<link>
						<linkclipref>00778001.MOV8</linkclipref>
						<mediatype>audio</mediatype>
						<trackindex>1</trackindex>
						<clipindex>160</clipindex>
					</link>
					<link>
						<linkclipref>00778001.MOV9</linkclipref>
						<mediatype>audio</mediatype>
						<trackindex>2</trackindex>
						<clipindex>161</clipindex>
					</link>
					<itemhistory>
						<uuid>25D21213-1749-4038-9C46-EAFA80CD65AD</uuid>
					</itemhistory>
				</clipitem>
				<clipitem id="00778001.MOV18">
					<name>00778001.MOV</name>
					<duration>2628</duration>
					<rate>
						<ntsc>FALSE</ntsc>
						<timebase>25</timebase>
					</rate>
					<in>940</in>
					<out>976</out>
					<start>22482</start>
					<end>22518</end>
					<subframeoffset>0</subframeoffset>
					<masterclipid>00778001.MOV1</masterclipid>
					<logginginfo>
						<scene/>
						<shottake/>
						<lognote/>
						<good>FALSE</good>
					</logginginfo>
					<labels>
						<label2/>
					</labels>
					<comments>
						<mastercomment1/>
						<mastercomment2/>
						<mastercomment3/>
						<mastercomment4/>
					</comments>
					<file id="00778001 "/>
					<filter>
						<effect>
							<name>Audio Levels</name>
							<effectid>audiolevels</effectid>
							<effectcategory>audiolevels</effectcategory>
							<effecttype>audiolevels</effecttype>
							<mediatype>audio</mediatype>
							<parameter>
								<name>Level</name>
								<parameterid>level</parameterid>
								<valuemin>0</valuemin>
								<valuemax>3.98109</valuemax>
								<value>2.81838</value>
							</parameter>
						</effect>
					</filter>
					<filter>
						<effect>
							<name>Audio Pan</name>
							<effectid>audiopan</effectid>
							<effectcategory>audiopan</effectcategory>
							<effecttype>audiopan</effecttype>
							<mediatype>audio</mediatype>
							<parameter>
								<name>Pan</name>
								<parameterid>pan</parameterid>
								<valuemin>-1</valuemin>
								<valuemax>1</valuemax>
								<value>0</value>
							</parameter>
						</effect>
					</filter>
					<sourcetrack>
						<mediatype>audio</mediatype>
						<trackindex>2</trackindex>
					</sourcetrack>
					<itemhistory>
						<uuid>51D41F74-9363-4BDA-979D-EA0E0E3818FE</uuid>
					</itemhistory>
				</clipitem>
				<clipitem id="00778001.MOV19">
					<name>00778001.MOV</name>
					<duration>2628</duration>
					<rate>
						<ntsc>FALSE</ntsc>
						<timebase>25</timebase>
					</rate>
					<in>976</in>
					<out>1025</out>
					<start>22518</start>
					<end>22567</end>
					<subframeoffset>0</subframeoffset>
					<masterclipid>00778001.MOV1</masterclipid>
					<logginginfo>
						<scene/>
						<shottake/>
						<lognote/>
						<good>FALSE</good>
					</logginginfo>
					<labels>
						<label2/>
					</labels>
					<comments>
						<mastercomment1/>
						<mastercomment2/>
						<mastercomment3/>
						<mastercomment4/>
					</comments>
					<file id="00778001 "/>
					<filter>
						<effect>
							<name>Audio Levels</name>
							<effectid>audiolevels</effectid>
							<effectcategory>audiolevels</effectcategory>
							<effecttype>audiolevels</effecttype>
							<mediatype>audio</mediatype>
							<parameter>
								<name>Level</name>
								<parameterid>level</parameterid>
								<valuemin>0</valuemin>
								<valuemax>3.98109</valuemax>
								<value>0</value>
							</parameter>
						</effect>
					</filter>
					<filter>
						<effect>
							<name>Audio Pan</name>
							<effectid>audiopan</effectid>
							<effectcategory>audiopan</effectcategory>
							<effecttype>audiopan</effecttype>
							<mediatype>audio</mediatype>
							<parameter>
								<name>Pan</name>
								<parameterid>pan</parameterid>
								<valuemin>-1</valuemin>
								<valuemax>1</valuemax>
								<value>0</value>
							</parameter>
						</effect>
					</filter>
					<sourcetrack>
						<mediatype>audio</mediatype>
						<trackindex>2</trackindex>
					</sourcetrack>
					<itemhistory>
						<uuid>23662923-DB65-4D88-83E5-56227828969A</uuid>
					</itemhistory>
				</clipitem>
				<clipitem id="00787001.MOV3">
					<name>00787001.MOV</name>
					<duration>2208</duration>
					<rate>
						<ntsc>FALSE</ntsc>
						<timebase>25</timebase>
					</rate>
					<in>275</in>
					<out>459</out>
					<start>22567</start>
					<end>22751</end>
					<subframeoffset>0</subframeoffset>
					<masterclipid>00787001.MOV1</masterclipid>
					<logginginfo>
						<scene/>
						<shottake/>
						<lognote/>
						<good>FALSE</good>
					</logginginfo>
					<labels>
						<label2/>
					</labels>
					<comments>
						<mastercomment1/>
						<mastercomment2/>
						<mastercomment3/>
						<mastercomment4/>
					</comments>
					<file id="00787001 "/>
					<filter>
						<effect>
							<name>Audio Levels</name>
							<effectid>audiolevels</effectid>
							<effectcategory>audiolevels</effectcategory>
							<effecttype>audiolevels</effecttype>
							<mediatype>audio</mediatype>
							<parameter>
								<name>Level</name>
								<parameterid>level</parameterid>
								<valuemin>0</valuemin>
								<valuemax>3.98109</valuemax>
								<value>1</value>
							</parameter>
						</effect>
					</filter>
					<filter>
						<effect>
							<name>Audio Pan</name>
							<effectid>audiopan</effectid>
							<effectcategory>audiopan</effectcategory>
							<effecttype>audiopan</effecttype>
							<mediatype>audio</mediatype>
							<parameter>
								<name>Pan</name>
								<parameterid>pan</parameterid>
								<valuemin>-1</valuemin>
								<valuemax>1</valuemax>
								<value>0</value>
							</parameter>
						</effect>
					</filter>
					<sourcetrack>
						<mediatype>audio</mediatype>
						<trackindex>2</trackindex>
					</sourcetrack>
					<link>
						<linkclipref>00787001.MOV</linkclipref>
						<mediatype>video</mediatype>
						<trackindex>1</trackindex>
						<clipindex>158</clipindex>
					</link>
					<link>
						<linkclipref>00787001.MOV2</linkclipref>
						<mediatype>audio</mediatype>
						<trackindex>1</trackindex>
						<clipindex>163</clipindex>
					</link>
					<link>
						<linkclipref>00787001.MOV3</linkclipref>
						<mediatype>audio</mediatype>
						<trackindex>2</trackindex>
						<clipindex>164</clipindex>
					</link>
					<itemhistory>
						<uuid>646389DB-DB68-476E-9489-F447ED39767D</uuid>
					</itemhistory>
				</clipitem>
				<clipitem id="00790001.MOV3">
					<name>00790001.MOV</name>
					<duration>3816</duration>
					<rate>
						<ntsc>FALSE</ntsc>
						<timebase>25</timebase>
					</rate>
					<in>692</in>
					<out>790</out>
					<start>22751</start>
					<end>22849</end>
					<subframeoffset>0</subframeoffset>
					<masterclipid>00790001.MOV1</masterclipid>
					<logginginfo>
						<scene/>
						<shottake/>
						<lognote/>
						<good>FALSE</good>
					</logginginfo>
					<labels>
						<label2/>
					</labels>
					<comments>
						<mastercomment1/>
						<mastercomment2/>
						<mastercomment3/>
						<mastercomment4/>
					</comments>
					<file id="00790001 "/>
					<filter>
						<effect>
							<name>Audio Levels</name>
							<effectid>audiolevels</effectid>
							<effectcategory>audiolevels</effectcategory>
							<effecttype>audiolevels</effecttype>
							<mediatype>audio</mediatype>
							<parameter>
								<name>Level</name>
								<parameterid>level</parameterid>
								<valuemin>0</valuemin>
								<valuemax>3.98109</valuemax>
								<value>1</value>
							</parameter>
						</effect>
					</filter>
					<filter>
						<effect>
							<name>Audio Pan</name>
							<effectid>audiopan</effectid>
							<effectcategory>audiopan</effectcategory>
							<effecttype>audiopan</effecttype>
							<mediatype>audio</mediatype>
							<parameter>
								<name>Pan</name>
								<parameterid>pan</parameterid>
								<valuemin>-1</valuemin>
								<valuemax>1</valuemax>
								<value>0</value>
							</parameter>
						</effect>
					</filter>
					<sourcetrack>
						<mediatype>audio</mediatype>
						<trackindex>2</trackindex>
					</sourcetrack>
					<link>
						<linkclipref>00790001.MOV</linkclipref>
						<mediatype>video</mediatype>
						<trackindex>1</trackindex>
						<clipindex>159</clipindex>
					</link>
					<link>
						<linkclipref>00790001.MOV2</linkclipref>
						<mediatype>audio</mediatype>
						<trackindex>1</trackindex>
						<clipindex>164</clipindex>
					</link>
					<link>
						<linkclipref>00790001.MOV3</linkclipref>
						<mediatype>audio</mediatype>
						<trackindex>2</trackindex>
						<clipindex>165</clipindex>
					</link>
					<itemhistory>
						<uuid>460FE10E-C44C-4027-A637-8F518F73F009</uuid>
					</itemhistory>
				</clipitem>
				<clipitem id="00791001.MOV3">
					<name>00791001.MOV</name>
					<duration>1224</duration>
					<rate>
						<ntsc>FALSE</ntsc>
						<timebase>25</timebase>
					</rate>
					<in>1034</in>
					<out>1186</out>
					<start>22862</start>
					<end>23014</end>
					<subframeoffset>0</subframeoffset>
					<masterclipid>00791001.MOV1</masterclipid>
					<logginginfo>
						<scene/>
						<shottake/>
						<lognote/>
						<good>FALSE</good>
					</logginginfo>
					<labels>
						<label2/>
					</labels>
					<comments>
						<mastercomment1/>
						<mastercomment2/>
						<mastercomment3/>
						<mastercomment4/>
					</comments>
					<file id="00791001 "/>
					<filter>
						<effect>
							<name>Audio Levels</name>
							<effectid>audiolevels</effectid>
							<effectcategory>audiolevels</effectcategory>
							<effecttype>audiolevels</effecttype>
							<mediatype>audio</mediatype>
							<parameter>
								<name>Level</name>
								<parameterid>level</parameterid>
								<valuemin>0</valuemin>
								<valuemax>3.98109</valuemax>
								<value>1</value>
							</parameter>
						</effect>
					</filter>
					<filter>
						<effect>
							<name>Audio Pan</name>
							<effectid>audiopan</effectid>
							<effectcategory>audiopan</effectcategory>
							<effecttype>audiopan</effecttype>
							<mediatype>audio</mediatype>
							<parameter>
								<name>Pan</name>
								<parameterid>pan</parameterid>
								<valuemin>-1</valuemin>
								<valuemax>1</valuemax>
								<value>0</value>
							</parameter>
						</effect>
					</filter>
					<sourcetrack>
						<mediatype>audio</mediatype>
						<trackindex>2</trackindex>
					</sourcetrack>
					<itemhistory>
						<uuid>AB2D14E9-2F8C-492B-8858-D4177024E6DA</uuid>
					</itemhistory>
				</clipitem>
				<clipitem id="00787001.MOV6">
					<name>00787001.MOV</name>
					<duration>2208</duration>
					<rate>
						<ntsc>FALSE</ntsc>
						<timebase>25</timebase>
					</rate>
					<in>716</in>
					<out>1069</out>
					<start>23014</start>
					<end>23367</end>
					<subframeoffset>0</subframeoffset>
					<masterclipid>00787001.MOV1</masterclipid>
					<logginginfo>
						<scene/>
						<shottake/>
						<lognote/>
						<good>FALSE</good>
					</logginginfo>
					<labels>
						<label2/>
					</labels>
					<comments>
						<mastercomment1/>
						<mastercomment2/>
						<mastercomment3/>
						<mastercomment4/>
					</comments>
					<file id="00787001 "/>
					<filter>
						<effect>
							<name>Audio Levels</name>
							<effectid>audiolevels</effectid>
							<effectcategory>audiolevels</effectcategory>
							<effecttype>audiolevels</effecttype>
							<mediatype>audio</mediatype>
							<parameter>
								<name>Level</name>
								<parameterid>level</parameterid>
								<valuemin>0</valuemin>
								<valuemax>3.98109</valuemax>
								<value>1</value>
							</parameter>
						</effect>
					</filter>
					<filter>
						<effect>
							<name>Audio Pan</name>
							<effectid>audiopan</effectid>
							<effectcategory>audiopan</effectcategory>
							<effecttype>audiopan</effecttype>
							<mediatype>audio</mediatype>
							<parameter>
								<name>Pan</name>
								<parameterid>pan</parameterid>
								<valuemin>-1</valuemin>
								<valuemax>1</valuemax>
								<value>0</value>
							</parameter>
						</effect>
					</filter>
					<sourcetrack>
						<mediatype>audio</mediatype>
						<trackindex>2</trackindex>
					</sourcetrack>
					<link>
						<linkclipref>00787001.MOV5</linkclipref>
						<mediatype>audio</mediatype>
						<trackindex>1</trackindex>
						<clipindex>167</clipindex>
					</link>
					<link>
						<linkclipref>00787001.MOV6</linkclipref>
						<mediatype>audio</mediatype>
						<trackindex>2</trackindex>
						<clipindex>167</clipindex>
					</link>
					<itemhistory>
						<uuid>7DF4C541-1F89-4807-832F-D6F20E9B461C</uuid>
					</itemhistory>
				</clipitem>
				<clipitem id="00778001.MOV12">
					<name>00778001.MOV</name>
					<duration>2628</duration>
					<rate>
						<ntsc>FALSE</ntsc>
						<timebase>25</timebase>
					</rate>
					<in>1790</in>
					<out>1844</out>
					<start>23397</start>
					<end>23451</end>
					<subframeoffset>0</subframeoffset>
					<masterclipid>00778001.MOV1</masterclipid>
					<logginginfo>
						<scene/>
						<shottake/>
						<lognote/>
						<good>FALSE</good>
					</logginginfo>
					<labels>
						<label2/>
					</labels>
					<comments>
						<mastercomment1/>
						<mastercomment2/>
						<mastercomment3/>
						<mastercomment4/>
					</comments>
					<file id="00778001 "/>
					<filter>
						<effect>
							<name>Audio Levels</name>
							<effectid>audiolevels</effectid>
							<effectcategory>audiolevels</effectcategory>
							<effecttype>audiolevels</effecttype>
							<mediatype>audio</mediatype>
							<parameter>
								<name>Level</name>
								<parameterid>level</parameterid>
								<valuemin>0</valuemin>
								<valuemax>3.98109</valuemax>
								<value>2.81838</value>
							</parameter>
						</effect>
					</filter>
					<filter>
						<effect>
							<name>Audio Pan</name>
							<effectid>audiopan</effectid>
							<effectcategory>audiopan</effectcategory>
							<effecttype>audiopan</effecttype>
							<mediatype>audio</mediatype>
							<parameter>
								<name>Pan</name>
								<parameterid>pan</parameterid>
								<valuemin>-1</valuemin>
								<valuemax>1</valuemax>
								<value>0</value>
							</parameter>
						</effect>
					</filter>
					<sourcetrack>
						<mediatype>audio</mediatype>
						<trackindex>2</trackindex>
					</sourcetrack>
					<link>
						<linkclipref>00778001.MOV10</linkclipref>
						<mediatype>video</mediatype>
						<trackindex>1</trackindex>
						<clipindex>160</clipindex>
					</link>
					<link>
						<linkclipref>00778001.MOV11</linkclipref>
						<mediatype>audio</mediatype>
						<trackindex>1</trackindex>
						<clipindex>168</clipindex>
					</link>
					<link>
						<linkclipref>00778001.MOV12</linkclipref>
						<mediatype>audio</mediatype>
						<trackindex>2</trackindex>
						<clipindex>168</clipindex>
					</link>
					<itemhistory>
						<uuid>D7308D01-A478-4D6A-9009-6AAE4E9D5830</uuid>
					</itemhistory>
				</clipitem>
				<clipitem id="00778001.MOV15">
					<name>00778001.MOV</name>
					<duration>2628</duration>
					<rate>
						<ntsc>FALSE</ntsc>
						<timebase>25</timebase>
					</rate>
					<in>2092</in>
					<out>2553</out>
					<start>23451</start>
					<end>23912</end>
					<subframeoffset>0</subframeoffset>
					<masterclipid>00778001.MOV1</masterclipid>
					<logginginfo>
						<scene/>
						<shottake/>
						<lognote/>
						<good>FALSE</good>
					</logginginfo>
					<labels>
						<label2/>
					</labels>
					<comments>
						<mastercomment1/>
						<mastercomment2/>
						<mastercomment3/>
						<mastercomment4/>
					</comments>
					<file id="00778001 "/>
					<filter>
						<effect>
							<name>Audio Levels</name>
							<effectid>audiolevels</effectid>
							<effectcategory>audiolevels</effectcategory>
							<effecttype>audiolevels</effecttype>
							<mediatype>audio</mediatype>
							<parameter>
								<name>Level</name>
								<parameterid>level</parameterid>
								<valuemin>0</valuemin>
								<valuemax>3.98109</valuemax>
								<value>2.81838</value>
							</parameter>
						</effect>
					</filter>
					<filter>
						<effect>
							<name>Audio Pan</name>
							<effectid>audiopan</effectid>
							<effectcategory>audiopan</effectcategory>
							<effecttype>audiopan</effecttype>
							<mediatype>audio</mediatype>
							<parameter>
								<name>Pan</name>
								<parameterid>pan</parameterid>
								<valuemin>-1</valuemin>
								<valuemax>1</valuemax>
								<value>0</value>
							</parameter>
						</effect>
					</filter>
					<sourcetrack>
						<mediatype>audio</mediatype>
						<trackindex>2</trackindex>
					</sourcetrack>
					<link>
						<linkclipref>00778001.MOV13</linkclipref>
						<mediatype>video</mediatype>
						<trackindex>1</trackindex>
						<clipindex>161</clipindex>
					</link>
					<link>
						<linkclipref>00778001.MOV14</linkclipref>
						<mediatype>audio</mediatype>
						<trackindex>1</trackindex>
						<clipindex>169</clipindex>
					</link>
					<link>
						<linkclipref>00778001.MOV15</linkclipref>
						<mediatype>audio</mediatype>
						<trackindex>2</trackindex>
						<clipindex>169</clipindex>
					</link>
					<itemhistory>
						<uuid>4FABDB5B-294B-4DC3-99D4-49B1FE450B82</uuid>
					</itemhistory>
				</clipitem>
				<clipitem id="DYR18683_01 4">
					<name>DYR18683_01</name>
					<duration>979</duration>
					<rate>
						<ntsc>FALSE</ntsc>
						<timebase>25</timebase>
					</rate>
					<in>319</in>
					<out>894</out>
					<start>24153</start>
					<end>24728</end>
					<subframeoffset>0</subframeoffset>
					<masterclipid>DYR18683_01 1</masterclipid>
					<logginginfo>
						<scene/>
						<shottake/>
						<lognote/>
						<good>FALSE</good>
					</logginginfo>
					<labels>
						<label2/>
					</labels>
					<comments>
						<mastercomment1/>
						<mastercomment2/>
						<mastercomment3/>
						<mastercomment4/>
					</comments>
					<file id="DYR18683_01 2"/>
					<filter>
						<effect>
							<name>Audio Levels</name>
							<effectid>audiolevels</effectid>
							<effectcategory>audiolevels</effectcategory>
							<effecttype>audiolevels</effecttype>
							<mediatype>audio</mediatype>
							<parameter>
								<name>Level</name>
								<parameterid>level</parameterid>
								<valuemin>0</valuemin>
								<valuemax>3.98109</valuemax>
								<value>0</value>
							</parameter>
						</effect>
					</filter>
					<filter>
						<effect>
							<name>Audio Pan</name>
							<effectid>audiopan</effectid>
							<effectcategory>audiopan</effectcategory>
							<effecttype>audiopan</effecttype>
							<mediatype>audio</mediatype>
							<parameter>
								<name>Pan</name>
								<parameterid>pan</parameterid>
								<valuemin>-1</valuemin>
								<valuemax>1</valuemax>
								<value>0</value>
							</parameter>
						</effect>
					</filter>
					<sourcetrack>
						<mediatype>audio</mediatype>
						<trackindex>2</trackindex>
					</sourcetrack>
					<link>
						<linkclipref>DYR18683_01 3</linkclipref>
						<mediatype>audio</mediatype>
						<trackindex>1</trackindex>
						<clipindex>170</clipindex>
					</link>
					<link>
						<linkclipref>DYR18683_01 4</linkclipref>
						<mediatype>audio</mediatype>
						<trackindex>2</trackindex>
						<clipindex>170</clipindex>
					</link>
					<itemhistory>
						<uuid>C48186C9-C89F-4B24-9483-7523CD010D9D</uuid>
					</itemhistory>
				</clipitem>
				<clipitem id="DYR18588_01 5">
					<name>DYR18588_01</name>
					<duration>1887</duration>
					<rate>
						<ntsc>FALSE</ntsc>
						<timebase>25</timebase>
					</rate>
					<in>106</in>
					<out>194</out>
					<start>24747</start>
					<end>24835</end>
					<subframeoffset>0</subframeoffset>
					<masterclipid>DYR18588_01 1</masterclipid>
					<logginginfo>
						<scene/>
						<shottake/>
						<lognote/>
						<good>FALSE</good>
					</logginginfo>
					<labels>
						<label2/>
					</labels>
					<comments>
						<mastercomment1/>
						<mastercomment2/>
						<mastercomment3/>
						<mastercomment4/>
					</comments>
					<file id="DYR18588_01 2"/>
					<filter>
						<effect>
							<name>Audio Levels</name>
							<effectid>audiolevels</effectid>
							<effectcategory>audiolevels</effectcategory>
							<effecttype>audiolevels</effecttype>
							<mediatype>audio</mediatype>
							<parameter>
								<name>Level</name>
								<parameterid>level</parameterid>
								<valuemin>0</valuemin>
								<valuemax>3.98109</valuemax>
								<value>0</value>
							</parameter>
						</effect>
					</filter>
					<filter>
						<effect>
							<name>Audio Pan</name>
							<effectid>audiopan</effectid>
							<effectcategory>audiopan</effectcategory>
							<effecttype>audiopan</effecttype>
							<mediatype>audio</mediatype>
							<parameter>
								<name>Pan</name>
								<parameterid>pan</parameterid>
								<valuemin>-1</valuemin>
								<valuemax>1</valuemax>
								<value>0</value>
							</parameter>
						</effect>
					</filter>
					<sourcetrack>
						<mediatype>audio</mediatype>
						<trackindex>2</trackindex>
					</sourcetrack>
					<link>
						<linkclipref>DYR18588_01 4</linkclipref>
						<mediatype>audio</mediatype>
						<trackindex>1</trackindex>
						<clipindex>171</clipindex>
					</link>
					<link>
						<linkclipref>DYR18588_01 5</linkclipref>
						<mediatype>audio</mediatype>
						<trackindex>2</trackindex>
						<clipindex>171</clipindex>
					</link>
					<itemhistory>
						<uuid>E15FEE3D-5109-48EA-86A0-C8C2D1E92DFD</uuid>
					</itemhistory>
				</clipitem>
				<clipitem id="DYR18589_01 5">
					<name>DYR18589_01</name>
					<duration>1470</duration>
					<rate>
						<ntsc>FALSE</ntsc>
						<timebase>25</timebase>
					</rate>
					<in>197</in>
					<out>258</out>
					<start>24835</start>
					<end>24896</end>
					<subframeoffset>0</subframeoffset>
					<masterclipid>DYR18589_01 1</masterclipid>
					<logginginfo>
						<scene/>
						<shottake/>
						<lognote/>
						<good>FALSE</good>
					</logginginfo>
					<labels>
						<label2/>
					</labels>
					<comments>
						<mastercomment1/>
						<mastercomment2/>
						<mastercomment3/>
						<mastercomment4/>
					</comments>
					<file id="DYR18589_01 2"/>
					<filter>
						<effect>
							<name>Audio Levels</name>
							<effectid>audiolevels</effectid>
							<effectcategory>audiolevels</effectcategory>
							<effecttype>audiolevels</effecttype>
							<mediatype>audio</mediatype>
							<parameter>
								<name>Level</name>
								<parameterid>level</parameterid>
								<valuemin>0</valuemin>
								<valuemax>3.98109</valuemax>
								<value>0</value>
							</parameter>
						</effect>
					</filter>
					<filter>
						<effect>
							<name>Audio Pan</name>
							<effectid>audiopan</effectid>
							<effectcategory>audiopan</effectcategory>
							<effecttype>audiopan</effecttype>
							<mediatype>audio</mediatype>
							<parameter>
								<name>Pan</name>
								<parameterid>pan</parameterid>
								<valuemin>-1</valuemin>
								<valuemax>1</valuemax>
								<value>0</value>
							</parameter>
						</effect>
					</filter>
					<sourcetrack>
						<mediatype>audio</mediatype>
						<trackindex>2</trackindex>
					</sourcetrack>
					<link>
						<linkclipref>DYR18589_01 4</linkclipref>
						<mediatype>audio</mediatype>
						<trackindex>1</trackindex>
						<clipindex>172</clipindex>
					</link>
					<link>
						<linkclipref>DYR18589_01 5</linkclipref>
						<mediatype>audio</mediatype>
						<trackindex>2</trackindex>
						<clipindex>172</clipindex>
					</link>
					<itemhistory>
						<uuid>DF441848-32F0-45CE-BFEC-57C3C43E24D7</uuid>
					</itemhistory>
				</clipitem>
				<clipitem id="DYR18585_01 5">
					<name>DYR18585_01</name>
					<duration>3851</duration>
					<rate>
						<ntsc>FALSE</ntsc>
						<timebase>25</timebase>
					</rate>
					<in>2109</in>
					<out>2144</out>
					<start>24896</start>
					<end>24931</end>
					<subframeoffset>0</subframeoffset>
					<masterclipid>DYR18585_01 1</masterclipid>
					<logginginfo>
						<scene/>
						<shottake/>
						<lognote/>
						<good>FALSE</good>
					</logginginfo>
					<labels>
						<label2/>
					</labels>
					<comments>
						<mastercomment1/>
						<mastercomment2/>
						<mastercomment3/>
						<mastercomment4/>
					</comments>
					<file id="DYR18585_01 2"/>
					<filter>
						<effect>
							<name>Audio Levels</name>
							<effectid>audiolevels</effectid>
							<effectcategory>audiolevels</effectcategory>
							<effecttype>audiolevels</effecttype>
							<mediatype>audio</mediatype>
							<parameter>
								<name>Level</name>
								<parameterid>level</parameterid>
								<valuemin>0</valuemin>
								<valuemax>3.98109</valuemax>
								<value>0</value>
							</parameter>
						</effect>
					</filter>
					<filter>
						<effect>
							<name>Audio Pan</name>
							<effectid>audiopan</effectid>
							<effectcategory>audiopan</effectcategory>
							<effecttype>audiopan</effecttype>
							<mediatype>audio</mediatype>
							<parameter>
								<name>Pan</name>
								<parameterid>pan</parameterid>
								<valuemin>-1</valuemin>
								<valuemax>1</valuemax>
								<value>0</value>
							</parameter>
						</effect>
					</filter>
					<sourcetrack>
						<mediatype>audio</mediatype>
						<trackindex>2</trackindex>
					</sourcetrack>
					<link>
						<linkclipref>DYR18585_01 4</linkclipref>
						<mediatype>audio</mediatype>
						<trackindex>1</trackindex>
						<clipindex>173</clipindex>
					</link>
					<link>
						<linkclipref>DYR18585_01 5</linkclipref>
						<mediatype>audio</mediatype>
						<trackindex>2</trackindex>
						<clipindex>173</clipindex>
					</link>
					<itemhistory>
						<uuid>D0534A5F-37B0-4F96-80C4-5C3B69307D6A</uuid>
					</itemhistory>
				</clipitem>
				<clipitem id="DYR18581_01 4">
					<name>DYR18581_01</name>
					<duration>3831</duration>
					<rate>
						<ntsc>FALSE</ntsc>
						<timebase>25</timebase>
					</rate>
					<in>1060</in>
					<out>1134</out>
					<start>24931</start>
					<end>25005</end>
					<subframeoffset>0</subframeoffset>
					<masterclipid>DYR18581_01 1</masterclipid>
					<logginginfo>
						<scene/>
						<shottake/>
						<lognote/>
						<good>FALSE</good>
					</logginginfo>
					<labels>
						<label2/>
					</labels>
					<comments>
						<mastercomment1/>
						<mastercomment2/>
						<mastercomment3/>
						<mastercomment4/>
					</comments>
					<file id="DYR18581_01 2"/>
					<filter>
						<effect>
							<name>Audio Levels</name>
							<effectid>audiolevels</effectid>
							<effectcategory>audiolevels</effectcategory>
							<effecttype>audiolevels</effecttype>
							<mediatype>audio</mediatype>
							<parameter>
								<name>Level</name>
								<parameterid>level</parameterid>
								<valuemin>0</valuemin>
								<valuemax>3.98109</valuemax>
								<value>0</value>
							</parameter>
						</effect>
					</filter>
					<filter>
						<effect>
							<name>Audio Pan</name>
							<effectid>audiopan</effectid>
							<effectcategory>audiopan</effectcategory>
							<effecttype>audiopan</effecttype>
							<mediatype>audio</mediatype>
							<parameter>
								<name>Pan</name>
								<parameterid>pan</parameterid>
								<valuemin>-1</valuemin>
								<valuemax>1</valuemax>
								<value>0</value>
							</parameter>
						</effect>
					</filter>
					<sourcetrack>
						<mediatype>audio</mediatype>
						<trackindex>2</trackindex>
					</sourcetrack>
					<link>
						<linkclipref>DYR18581_01 3</linkclipref>
						<mediatype>audio</mediatype>
						<trackindex>1</trackindex>
						<clipindex>174</clipindex>
					</link>
					<link>
						<linkclipref>DYR18581_01 4</linkclipref>
						<mediatype>audio</mediatype>
						<trackindex>2</trackindex>
						<clipindex>174</clipindex>
					</link>
					<itemhistory>
						<uuid>C06C37E7-C160-4976-BA27-A3A09CE5B325</uuid>
					</itemhistory>
				</clipitem>
				<clipitem id="DYR18620_01 4">
					<name>DYR18620_01</name>
					<duration>255</duration>
					<rate>
						<ntsc>FALSE</ntsc>
						<timebase>25</timebase>
					</rate>
					<in>95</in>
					<out>184</out>
					<start>25060</start>
					<end>25149</end>
					<subframeoffset>0</subframeoffset>
					<masterclipid>DYR18620_01 1</masterclipid>
					<logginginfo>
						<scene/>
						<shottake/>
						<lognote/>
						<good>FALSE</good>
					</logginginfo>
					<labels>
						<label2/>
					</labels>
					<comments>
						<mastercomment1/>
						<mastercomment2/>
						<mastercomment3/>
						<mastercomment4/>
					</comments>
					<file id="DYR18620_01 2"/>
					<filter>
						<effect>
							<name>Audio Levels</name>
							<effectid>audiolevels</effectid>
							<effectcategory>audiolevels</effectcategory>
							<effecttype>audiolevels</effecttype>
							<mediatype>audio</mediatype>
							<parameter>
								<name>Level</name>
								<parameterid>level</parameterid>
								<valuemin>0</valuemin>
								<valuemax>3.98109</valuemax>
								<value>0</value>
							</parameter>
						</effect>
					</filter>
					<filter>
						<effect>
							<name>Audio Pan</name>
							<effectid>audiopan</effectid>
							<effectcategory>audiopan</effectcategory>
							<effecttype>audiopan</effecttype>
							<mediatype>audio</mediatype>
							<parameter>
								<name>Pan</name>
								<parameterid>pan</parameterid>
								<valuemin>-1</valuemin>
								<valuemax>1</valuemax>
								<value>0</value>
							</parameter>
						</effect>
					</filter>
					<sourcetrack>
						<mediatype>audio</mediatype>
						<trackindex>2</trackindex>
					</sourcetrack>
					<link>
						<linkclipref>DYR18620_01 3</linkclipref>
						<mediatype>audio</mediatype>
						<trackindex>1</trackindex>
						<clipindex>175</clipindex>
					</link>
					<link>
						<linkclipref>DYR18620_01 4</linkclipref>
						<mediatype>audio</mediatype>
						<trackindex>2</trackindex>
						<clipindex>175</clipindex>
					</link>
					<itemhistory>
						<uuid>8F0868D6-305A-4E7D-A2B6-A05809313E8C</uuid>
					</itemhistory>
				</clipitem>
				<clipitem id="DYR18629_01 4">
					<name>DYR18629_01</name>
					<duration>2388</duration>
					<rate>
						<ntsc>FALSE</ntsc>
						<timebase>25</timebase>
					</rate>
					<in>2118</in>
					<out>2203</out>
					<start>25149</start>
					<end>25234</end>
					<subframeoffset>0</subframeoffset>
					<masterclipid>DYR18629_01 1</masterclipid>
					<logginginfo>
						<scene/>
						<shottake/>
						<lognote/>
						<good>FALSE</good>
					</logginginfo>
					<labels>
						<label2/>
					</labels>
					<comments>
						<mastercomment1/>
						<mastercomment2/>
						<mastercomment3/>
						<mastercomment4/>
					</comments>
					<file id="DYR18629_01 2"/>
					<filter>
						<effect>
							<name>Audio Levels</name>
							<effectid>audiolevels</effectid>
							<effectcategory>audiolevels</effectcategory>
							<effecttype>audiolevels</effecttype>
							<mediatype>audio</mediatype>
							<parameter>
								<name>Level</name>
								<parameterid>level</parameterid>
								<valuemin>0</valuemin>
								<valuemax>3.98109</valuemax>
								<value>0</value>
							</parameter>
						</effect>
					</filter>
					<filter>
						<effect>
							<name>Audio Pan</name>
							<effectid>audiopan</effectid>
							<effectcategory>audiopan</effectcategory>
							<effecttype>audiopan</effecttype>
							<mediatype>audio</mediatype>
							<parameter>
								<name>Pan</name>
								<parameterid>pan</parameterid>
								<valuemin>-1</valuemin>
								<valuemax>1</valuemax>
								<value>0</value>
							</parameter>
						</effect>
					</filter>
					<sourcetrack>
						<mediatype>audio</mediatype>
						<trackindex>2</trackindex>
					</sourcetrack>
					<link>
						<linkclipref>DYR18629_01 3</linkclipref>
						<mediatype>audio</mediatype>
						<trackindex>1</trackindex>
						<clipindex>176</clipindex>
					</link>
					<link>
						<linkclipref>DYR18629_01 4</linkclipref>
						<mediatype>audio</mediatype>
						<trackindex>2</trackindex>
						<clipindex>176</clipindex>
					</link>
					<itemhistory>
						<uuid>A48E7168-96CF-473B-B315-E2EBC47578DF</uuid>
					</itemhistory>
				</clipitem>
				<clipitem id="DYR18601_01 4">
					<name>DYR18601_01</name>
					<duration>666</duration>
					<rate>
						<ntsc>FALSE</ntsc>
						<timebase>25</timebase>
					</rate>
					<in>572</in>
					<out>627</out>
					<start>25234</start>
					<end>25289</end>
					<subframeoffset>0</subframeoffset>
					<masterclipid>DYR18601_01 1</masterclipid>
					<logginginfo>
						<scene/>
						<shottake/>
						<lognote/>
						<good>FALSE</good>
					</logginginfo>
					<labels>
						<label2/>
					</labels>
					<comments>
						<mastercomment1/>
						<mastercomment2/>
						<mastercomment3/>
						<mastercomment4/>
					</comments>
					<file id="DYR18601_01 2"/>
					<filter>
						<effect>
							<name>Audio Levels</name>
							<effectid>audiolevels</effectid>
							<effectcategory>audiolevels</effectcategory>
							<effecttype>audiolevels</effecttype>
							<mediatype>audio</mediatype>
							<parameter>
								<name>Level</name>
								<parameterid>level</parameterid>
								<valuemin>0</valuemin>
								<valuemax>3.98109</valuemax>
								<value>0</value>
							</parameter>
						</effect>
					</filter>
					<filter>
						<effect>
							<name>Audio Pan</name>
							<effectid>audiopan</effectid>
							<effectcategory>audiopan</effectcategory>
							<effecttype>audiopan</effecttype>
							<mediatype>audio</mediatype>
							<parameter>
								<name>Pan</name>
								<parameterid>pan</parameterid>
								<valuemin>-1</valuemin>
								<valuemax>1</valuemax>
								<value>0</value>
							</parameter>
						</effect>
					</filter>
					<sourcetrack>
						<mediatype>audio</mediatype>
						<trackindex>2</trackindex>
					</sourcetrack>
					<link>
						<linkclipref>DYR18601_01 3</linkclipref>
						<mediatype>audio</mediatype>
						<trackindex>1</trackindex>
						<clipindex>177</clipindex>
					</link>
					<link>
						<linkclipref>DYR18601_01 4</linkclipref>
						<mediatype>audio</mediatype>
						<trackindex>2</trackindex>
						<clipindex>177</clipindex>
					</link>
					<itemhistory>
						<uuid>661C6E1E-FB70-4CD7-99B7-AAB5BE883B68</uuid>
					</itemhistory>
				</clipitem>
				<clipitem id="DYR18584_01 7">
					<name>DYR18584_01</name>
					<duration>2638</duration>
					<rate>
						<ntsc>FALSE</ntsc>
						<timebase>25</timebase>
					</rate>
					<in>95</in>
					<out>120</out>
					<start>25289</start>
					<end>25314</end>
					<subframeoffset>0</subframeoffset>
					<masterclipid>DYR18584_01 1</masterclipid>
					<logginginfo>
						<scene/>
						<shottake/>
						<lognote/>
						<good>FALSE</good>
					</logginginfo>
					<labels>
						<label2/>
					</labels>
					<comments>
						<mastercomment1/>
						<mastercomment2/>
						<mastercomment3/>
						<mastercomment4/>
					</comments>
					<file id="DYR18584_01 2"/>
					<filter>
						<effect>
							<name>Audio Levels</name>
							<effectid>audiolevels</effectid>
							<effectcategory>audiolevels</effectcategory>
							<effecttype>audiolevels</effecttype>
							<mediatype>audio</mediatype>
							<parameter>
								<name>Level</name>
								<parameterid>level</parameterid>
								<valuemin>0</valuemin>
								<valuemax>3.98109</valuemax>
								<value>0</value>
							</parameter>
						</effect>
					</filter>
					<filter>
						<effect>
							<name>Audio Pan</name>
							<effectid>audiopan</effectid>
							<effectcategory>audiopan</effectcategory>
							<effecttype>audiopan</effecttype>
							<mediatype>audio</mediatype>
							<parameter>
								<name>Pan</name>
								<parameterid>pan</parameterid>
								<valuemin>-1</valuemin>
								<valuemax>1</valuemax>
								<value>0</value>
							</parameter>
						</effect>
					</filter>
					<sourcetrack>
						<mediatype>audio</mediatype>
						<trackindex>2</trackindex>
					</sourcetrack>
					<link>
						<linkclipref>DYR18584_01 6</linkclipref>
						<mediatype>audio</mediatype>
						<trackindex>1</trackindex>
						<clipindex>178</clipindex>
					</link>
					<link>
						<linkclipref>DYR18584_01 7</linkclipref>
						<mediatype>audio</mediatype>
						<trackindex>2</trackindex>
						<clipindex>178</clipindex>
					</link>
					<itemhistory>
						<uuid>1A1807DA-3E83-4125-BF5B-809A52094ADF</uuid>
					</itemhistory>
				</clipitem>
				<clipitem id="DYR18588_01 7">
					<name>DYR18588_01</name>
					<duration>1887</duration>
					<rate>
						<ntsc>FALSE</ntsc>
						<timebase>25</timebase>
					</rate>
					<in>110</in>
					<out>144</out>
					<start>25314</start>
					<end>25348</end>
					<subframeoffset>0</subframeoffset>
					<masterclipid>DYR18588_01 1</masterclipid>
					<logginginfo>
						<scene/>
						<shottake/>
						<lognote/>
						<good>FALSE</good>
					</logginginfo>
					<labels>
						<label2/>
					</labels>
					<comments>
						<mastercomment1/>
						<mastercomment2/>
						<mastercomment3/>
						<mastercomment4/>
					</comments>
					<file id="DYR18588_01 2"/>
					<filter>
						<effect>
							<name>Audio Levels</name>
							<effectid>audiolevels</effectid>
							<effectcategory>audiolevels</effectcategory>
							<effecttype>audiolevels</effecttype>
							<mediatype>audio</mediatype>
							<parameter>
								<name>Level</name>
								<parameterid>level</parameterid>
								<valuemin>0</valuemin>
								<valuemax>3.98109</valuemax>
								<value>0</value>
							</parameter>
						</effect>
					</filter>
					<filter>
						<effect>
							<name>Audio Pan</name>
							<effectid>audiopan</effectid>
							<effectcategory>audiopan</effectcategory>
							<effecttype>audiopan</effecttype>
							<mediatype>audio</mediatype>
							<parameter>
								<name>Pan</name>
								<parameterid>pan</parameterid>
								<valuemin>-1</valuemin>
								<valuemax>1</valuemax>
								<value>0</value>
							</parameter>
						</effect>
					</filter>
					<sourcetrack>
						<mediatype>audio</mediatype>
						<trackindex>2</trackindex>
					</sourcetrack>
					<link>
						<linkclipref>DYR18588_01 6</linkclipref>
						<mediatype>audio</mediatype>
						<trackindex>1</trackindex>
						<clipindex>179</clipindex>
					</link>
					<link>
						<linkclipref>DYR18588_01 7</linkclipref>
						<mediatype>audio</mediatype>
						<trackindex>2</trackindex>
						<clipindex>179</clipindex>
					</link>
					<itemhistory>
						<uuid>61129D02-CD48-4615-886E-48439198F236</uuid>
					</itemhistory>
				</clipitem>
				<clipitem id="DYR18707_01 4">
					<name>DYR18707_01</name>
					<duration>976</duration>
					<rate>
						<ntsc>FALSE</ntsc>
						<timebase>25</timebase>
					</rate>
					<in>426</in>
					<out>550</out>
					<start>25646</start>
					<end>25770</end>
					<subframeoffset>0</subframeoffset>
					<masterclipid>DYR18707_01 1</masterclipid>
					<logginginfo>
						<scene/>
						<shottake/>
						<lognote/>
						<good>FALSE</good>
					</logginginfo>
					<labels>
						<label2/>
					</labels>
					<comments>
						<mastercomment1/>
						<mastercomment2/>
						<mastercomment3/>
						<mastercomment4/>
					</comments>
					<file id="DYR18707_01 2"/>
					<filter>
						<effect>
							<name>Audio Levels</name>
							<effectid>audiolevels</effectid>
							<effectcategory>audiolevels</effectcategory>
							<effecttype>audiolevels</effecttype>
							<mediatype>audio</mediatype>
							<parameter>
								<name>Level</name>
								<parameterid>level</parameterid>
								<valuemin>0</valuemin>
								<valuemax>3.98109</valuemax>
								<value>0</value>
							</parameter>
						</effect>
					</filter>
					<filter>
						<effect>
							<name>Audio Pan</name>
							<effectid>audiopan</effectid>
							<effectcategory>audiopan</effectcategory>
							<effecttype>audiopan</effecttype>
							<mediatype>audio</mediatype>
							<parameter>
								<name>Pan</name>
								<parameterid>pan</parameterid>
								<valuemin>-1</valuemin>
								<valuemax>1</valuemax>
								<value>0</value>
							</parameter>
						</effect>
					</filter>
					<sourcetrack>
						<mediatype>audio</mediatype>
						<trackindex>2</trackindex>
					</sourcetrack>
					<link>
						<linkclipref>DYR18707_01 3</linkclipref>
						<mediatype>audio</mediatype>
						<trackindex>1</trackindex>
						<clipindex>180</clipindex>
					</link>
					<link>
						<linkclipref>DYR18707_01 4</linkclipref>
						<mediatype>audio</mediatype>
						<trackindex>2</trackindex>
						<clipindex>180</clipindex>
					</link>
					<itemhistory>
						<uuid>4E7BE6C4-76F5-41D7-A153-ECD2163F5DAD</uuid>
					</itemhistory>
				</clipitem>
				<clipitem id="DYR18634_01 4">
					<name>DYR18634_01</name>
					<duration>862</duration>
					<rate>
						<ntsc>FALSE</ntsc>
						<timebase>25</timebase>
					</rate>
					<in>262</in>
					<out>340</out>
					<start>26163</start>
					<end>26241</end>
					<subframeoffset>0</subframeoffset>
					<masterclipid>DYR18634_01 1</masterclipid>
					<logginginfo>
						<scene/>
						<shottake/>
						<lognote/>
						<good>FALSE</good>
					</logginginfo>
					<labels>
						<label2/>
					</labels>
					<comments>
						<mastercomment1/>
						<mastercomment2/>
						<mastercomment3/>
						<mastercomment4/>
					</comments>
					<file id="DYR18634_01 2"/>
					<filter>
						<effect>
							<name>Audio Levels</name>
							<effectid>audiolevels</effectid>
							<effectcategory>audiolevels</effectcategory>
							<effecttype>audiolevels</effecttype>
							<mediatype>audio</mediatype>
							<parameter>
								<name>Level</name>
								<parameterid>level</parameterid>
								<valuemin>0</valuemin>
								<valuemax>3.98109</valuemax>
								<value>0</value>
							</parameter>
						</effect>
					</filter>
					<filter>
						<effect>
							<name>Audio Pan</name>
							<effectid>audiopan</effectid>
							<effectcategory>audiopan</effectcategory>
							<effecttype>audiopan</effecttype>
							<mediatype>audio</mediatype>
							<parameter>
								<name>Pan</name>
								<parameterid>pan</parameterid>
								<valuemin>-1</valuemin>
								<valuemax>1</valuemax>
								<value>0</value>
							</parameter>
						</effect>
					</filter>
					<sourcetrack>
						<mediatype>audio</mediatype>
						<trackindex>2</trackindex>
					</sourcetrack>
					<link>
						<linkclipref>DYR18634_01 3</linkclipref>
						<mediatype>audio</mediatype>
						<trackindex>1</trackindex>
						<clipindex>181</clipindex>
					</link>
					<link>
						<linkclipref>DYR18634_01 4</linkclipref>
						<mediatype>audio</mediatype>
						<trackindex>2</trackindex>
						<clipindex>181</clipindex>
					</link>
					<itemhistory>
						<uuid>C417FCEF-7306-4CC7-9557-282CCA4FA72D</uuid>
					</itemhistory>
				</clipitem>
				<clipitem id="DYR18643_01 5">
					<name>DYR18643_01</name>
					<duration>629</duration>
					<rate>
						<ntsc>FALSE</ntsc>
						<timebase>25</timebase>
					</rate>
					<in>431</in>
					<out>554</out>
					<start>26271</start>
					<end>26394</end>
					<subframeoffset>0</subframeoffset>
					<masterclipid>DYR18643_01 1</masterclipid>
					<logginginfo>
						<scene/>
						<shottake/>
						<lognote/>
						<good>FALSE</good>
					</logginginfo>
					<labels>
						<label2/>
					</labels>
					<comments>
						<mastercomment1/>
						<mastercomment2/>
						<mastercomment3/>
						<mastercomment4/>
					</comments>
					<file id="DYR18643_01 2"/>
					<filter>
						<effect>
							<name>Audio Levels</name>
							<effectid>audiolevels</effectid>
							<effectcategory>audiolevels</effectcategory>
							<effecttype>audiolevels</effecttype>
							<mediatype>audio</mediatype>
							<parameter>
								<name>Level</name>
								<parameterid>level</parameterid>
								<valuemin>0</valuemin>
								<valuemax>3.98109</valuemax>
								<value>0</value>
							</parameter>
						</effect>
					</filter>
					<filter>
						<effect>
							<name>Audio Pan</name>
							<effectid>audiopan</effectid>
							<effectcategory>audiopan</effectcategory>
							<effecttype>audiopan</effecttype>
							<mediatype>audio</mediatype>
							<parameter>
								<name>Pan</name>
								<parameterid>pan</parameterid>
								<valuemin>-1</valuemin>
								<valuemax>1</valuemax>
								<value>0</value>
							</parameter>
						</effect>
					</filter>
					<sourcetrack>
						<mediatype>audio</mediatype>
						<trackindex>2</trackindex>
					</sourcetrack>
					<link>
						<linkclipref>DYR18643_01 4</linkclipref>
						<mediatype>audio</mediatype>
						<trackindex>1</trackindex>
						<clipindex>182</clipindex>
					</link>
					<link>
						<linkclipref>DYR18643_01 5</linkclipref>
						<mediatype>audio</mediatype>
						<trackindex>2</trackindex>
						<clipindex>182</clipindex>
					</link>
					<itemhistory>
						<uuid>37E662E6-6255-4A55-AECD-53EE4D68ABBB</uuid>
					</itemhistory>
				</clipitem>
				<clipitem id="DYR18587_01 4">
					<name>DYR18587_01</name>
					<duration>1500</duration>
					<rate>
						<ntsc>FALSE</ntsc>
						<timebase>25</timebase>
					</rate>
					<in>1017</in>
					<out>1054</out>
					<start>26570</start>
					<end>26607</end>
					<subframeoffset>0</subframeoffset>
					<masterclipid>DYR18587_01 1</masterclipid>
					<logginginfo>
						<scene/>
						<shottake/>
						<lognote/>
						<good>FALSE</good>
					</logginginfo>
					<labels>
						<label2/>
					</labels>
					<comments>
						<mastercomment1/>
						<mastercomment2/>
						<mastercomment3/>
						<mastercomment4/>
					</comments>
					<file id="DYR18587_01 2"/>
					<filter>
						<effect>
							<name>Audio Levels</name>
							<effectid>audiolevels</effectid>
							<effectcategory>audiolevels</effectcategory>
							<effecttype>audiolevels</effecttype>
							<mediatype>audio</mediatype>
							<parameter>
								<name>Level</name>
								<parameterid>level</parameterid>
								<valuemin>0</valuemin>
								<valuemax>3.98109</valuemax>
								<value>0</value>
							</parameter>
						</effect>
					</filter>
					<filter>
						<effect>
							<name>Audio Pan</name>
							<effectid>audiopan</effectid>
							<effectcategory>audiopan</effectcategory>
							<effecttype>audiopan</effecttype>
							<mediatype>audio</mediatype>
							<parameter>
								<name>Pan</name>
								<parameterid>pan</parameterid>
								<valuemin>-1</valuemin>
								<valuemax>1</valuemax>
								<value>0</value>
							</parameter>
						</effect>
					</filter>
					<sourcetrack>
						<mediatype>audio</mediatype>
						<trackindex>2</trackindex>
					</sourcetrack>
					<link>
						<linkclipref>DYR18587_01 3</linkclipref>
						<mediatype>audio</mediatype>
						<trackindex>1</trackindex>
						<clipindex>183</clipindex>
					</link>
					<link>
						<linkclipref>DYR18587_01 4</linkclipref>
						<mediatype>audio</mediatype>
						<trackindex>2</trackindex>
						<clipindex>183</clipindex>
					</link>
					<itemhistory>
						<uuid>B494609B-F70B-4E7F-B2DB-CAACC455A53A</uuid>
					</itemhistory>
				</clipitem>
				<clipitem id="DYR18654_01 4">
					<name>DYR18654_01</name>
					<duration>978</duration>
					<rate>
						<ntsc>FALSE</ntsc>
						<timebase>25</timebase>
					</rate>
					<in>353</in>
					<out>408</out>
					<start>26716</start>
					<end>26771</end>
					<subframeoffset>0</subframeoffset>
					<masterclipid>DYR18654_01 1</masterclipid>
					<logginginfo>
						<scene/>
						<shottake/>
						<lognote/>
						<good>FALSE</good>
					</logginginfo>
					<labels>
						<label2/>
					</labels>
					<comments>
						<mastercomment1/>
						<mastercomment2/>
						<mastercomment3/>
						<mastercomment4/>
					</comments>
					<file id="DYR18654_01 2"/>
					<filter>
						<effect>
							<name>Audio Levels</name>
							<effectid>audiolevels</effectid>
							<effectcategory>audiolevels</effectcategory>
							<effecttype>audiolevels</effecttype>
							<mediatype>audio</mediatype>
							<parameter>
								<name>Level</name>
								<parameterid>level</parameterid>
								<valuemin>0</valuemin>
								<valuemax>3.98109</valuemax>
								<value>0</value>
							</parameter>
						</effect>
					</filter>
					<filter>
						<effect>
							<name>Audio Pan</name>
							<effectid>audiopan</effectid>
							<effectcategory>audiopan</effectcategory>
							<effecttype>audiopan</effecttype>
							<mediatype>audio</mediatype>
							<parameter>
								<name>Pan</name>
								<parameterid>pan</parameterid>
								<valuemin>-1</valuemin>
								<valuemax>1</valuemax>
								<value>0</value>
							</parameter>
						</effect>
					</filter>
					<sourcetrack>
						<mediatype>audio</mediatype>
						<trackindex>2</trackindex>
					</sourcetrack>
					<link>
						<linkclipref>DYR18654_01 3</linkclipref>
						<mediatype>audio</mediatype>
						<trackindex>1</trackindex>
						<clipindex>184</clipindex>
					</link>
					<link>
						<linkclipref>DYR18654_01 4</linkclipref>
						<mediatype>audio</mediatype>
						<trackindex>2</trackindex>
						<clipindex>184</clipindex>
					</link>
					<itemhistory>
						<uuid>1D9C1905-3CCD-4AD2-B5D4-9894F80A37AB</uuid>
					</itemhistory>
				</clipitem>
				<clipitem id="DYR18595_01 4">
					<name>DYR18595_01</name>
					<duration>821</duration>
					<rate>
						<ntsc>FALSE</ntsc>
						<timebase>25</timebase>
					</rate>
					<in>650</in>
					<out>770</out>
					<start>26842</start>
					<end>26962</end>
					<subframeoffset>0</subframeoffset>
					<masterclipid>DYR18595_01 1</masterclipid>
					<logginginfo>
						<scene/>
						<shottake/>
						<lognote/>
						<good>FALSE</good>
					</logginginfo>
					<labels>
						<label2/>
					</labels>
					<comments>
						<mastercomment1/>
						<mastercomment2/>
						<mastercomment3/>
						<mastercomment4/>
					</comments>
					<file id="DYR18595_01 2"/>
					<filter>
						<effect>
							<name>Audio Levels</name>
							<effectid>audiolevels</effectid>
							<effectcategory>audiolevels</effectcategory>
							<effecttype>audiolevels</effecttype>
							<mediatype>audio</mediatype>
							<parameter>
								<name>Level</name>
								<parameterid>level</parameterid>
								<valuemin>0</valuemin>
								<valuemax>3.98109</valuemax>
								<value>0</value>
							</parameter>
						</effect>
					</filter>
					<filter>
						<effect>
							<name>Audio Pan</name>
							<effectid>audiopan</effectid>
							<effectcategory>audiopan</effectcategory>
							<effecttype>audiopan</effecttype>
							<mediatype>audio</mediatype>
							<parameter>
								<name>Pan</name>
								<parameterid>pan</parameterid>
								<valuemin>-1</valuemin>
								<valuemax>1</valuemax>
								<value>0</value>
							</parameter>
						</effect>
					</filter>
					<sourcetrack>
						<mediatype>audio</mediatype>
						<trackindex>2</trackindex>
					</sourcetrack>
					<link>
						<linkclipref>DYR18595_01 3</linkclipref>
						<mediatype>audio</mediatype>
						<trackindex>1</trackindex>
						<clipindex>185</clipindex>
					</link>
					<link>
						<linkclipref>DYR18595_01 4</linkclipref>
						<mediatype>audio</mediatype>
						<trackindex>2</trackindex>
						<clipindex>185</clipindex>
					</link>
					<itemhistory>
						<uuid>EFC11DB0-E0E3-496B-9946-473893DF7DAB</uuid>
					</itemhistory>
				</clipitem>
				<clipitem id="DYR18603_01 4">
					<name>DYR18603_01</name>
					<duration>278</duration>
					<rate>
						<ntsc>FALSE</ntsc>
						<timebase>25</timebase>
					</rate>
					<in>61</in>
					<out>174</out>
					<start>27003</start>
					<end>27116</end>
					<subframeoffset>0</subframeoffset>
					<masterclipid>DYR18603_01 1</masterclipid>
					<logginginfo>
						<scene/>
						<shottake/>
						<lognote/>
						<good>FALSE</good>
					</logginginfo>
					<labels>
						<label2/>
					</labels>
					<comments>
						<mastercomment1/>
						<mastercomment2/>
						<mastercomment3/>
						<mastercomment4/>
					</comments>
					<file id="DYR18603_01 2"/>
					<filter>
						<effect>
							<name>Audio Levels</name>
							<effectid>audiolevels</effectid>
							<effectcategory>audiolevels</effectcategory>
							<effecttype>audiolevels</effecttype>
							<mediatype>audio</mediatype>
							<parameter>
								<name>Level</name>
								<parameterid>level</parameterid>
								<valuemin>0</valuemin>
								<valuemax>3.98109</valuemax>
								<value>0</value>
							</parameter>
						</effect>
					</filter>
					<filter>
						<effect>
							<name>Audio Pan</name>
							<effectid>audiopan</effectid>
							<effectcategory>audiopan</effectcategory>
							<effecttype>audiopan</effecttype>
							<mediatype>audio</mediatype>
							<parameter>
								<name>Pan</name>
								<parameterid>pan</parameterid>
								<valuemin>-1</valuemin>
								<valuemax>1</valuemax>
								<value>0</value>
							</parameter>
						</effect>
					</filter>
					<sourcetrack>
						<mediatype>audio</mediatype>
						<trackindex>2</trackindex>
					</sourcetrack>
					<link>
						<linkclipref>DYR18603_01 3</linkclipref>
						<mediatype>audio</mediatype>
						<trackindex>1</trackindex>
						<clipindex>186</clipindex>
					</link>
					<link>
						<linkclipref>DYR18603_01 4</linkclipref>
						<mediatype>audio</mediatype>
						<trackindex>2</trackindex>
						<clipindex>186</clipindex>
					</link>
					<itemhistory>
						<uuid>02EBFD81-6CA8-41B6-9CA0-1E9A6D2832A4</uuid>
					</itemhistory>
				</clipitem>
				<clipitem id="DYR18652_01 4">
					<name>DYR18652_01</name>
					<duration>813</duration>
					<rate>
						<ntsc>FALSE</ntsc>
						<timebase>25</timebase>
					</rate>
					<in>334</in>
					<out>397</out>
					<start>27116</start>
					<end>27179</end>
					<subframeoffset>0</subframeoffset>
					<masterclipid>DYR18652_01 1</masterclipid>
					<logginginfo>
						<scene/>
						<shottake/>
						<lognote/>
						<good>FALSE</good>
					</logginginfo>
					<labels>
						<label2/>
					</labels>
					<comments>
						<mastercomment1/>
						<mastercomment2/>
						<mastercomment3/>
						<mastercomment4/>
					</comments>
					<file id="DYR18652_01 2"/>
					<filter>
						<effect>
							<name>Audio Levels</name>
							<effectid>audiolevels</effectid>
							<effectcategory>audiolevels</effectcategory>
							<effecttype>audiolevels</effecttype>
							<mediatype>audio</mediatype>
							<parameter>
								<name>Level</name>
								<parameterid>level</parameterid>
								<valuemin>0</valuemin>
								<valuemax>3.98109</valuemax>
								<value>0</value>
							</parameter>
						</effect>
					</filter>
					<filter>
						<effect>
							<name>Audio Pan</name>
							<effectid>audiopan</effectid>
							<effectcategory>audiopan</effectcategory>
							<effecttype>audiopan</effecttype>
							<mediatype>audio</mediatype>
							<parameter>
								<name>Pan</name>
								<parameterid>pan</parameterid>
								<valuemin>-1</valuemin>
								<valuemax>1</valuemax>
								<value>0</value>
							</parameter>
						</effect>
					</filter>
					<sourcetrack>
						<mediatype>audio</mediatype>
						<trackindex>2</trackindex>
					</sourcetrack>
					<link>
						<linkclipref>DYR18652_01 3</linkclipref>
						<mediatype>audio</mediatype>
						<trackindex>1</trackindex>
						<clipindex>187</clipindex>
					</link>
					<link>
						<linkclipref>DYR18652_01 4</linkclipref>
						<mediatype>audio</mediatype>
						<trackindex>2</trackindex>
						<clipindex>187</clipindex>
					</link>
					<itemhistory>
						<uuid>325FD733-0EF1-42DF-9F5D-A9AC3744B6E6</uuid>
					</itemhistory>
				</clipitem>
				<clipitem id="DYR18665_01 4">
					<name>DYR18665_01</name>
					<duration>1688</duration>
					<rate>
						<ntsc>FALSE</ntsc>
						<timebase>25</timebase>
					</rate>
					<in>1454</in>
					<out>1558</out>
					<start>27179</start>
					<end>27283</end>
					<subframeoffset>0</subframeoffset>
					<masterclipid>DYR18665_01 1</masterclipid>
					<logginginfo>
						<scene/>
						<shottake/>
						<lognote/>
						<good>FALSE</good>
					</logginginfo>
					<labels>
						<label2/>
					</labels>
					<comments>
						<mastercomment1/>
						<mastercomment2/>
						<mastercomment3/>
						<mastercomment4/>
					</comments>
					<file id="DYR18665_01 2"/>
					<filter>
						<effect>
							<name>Audio Levels</name>
							<effectid>audiolevels</effectid>
							<effectcategory>audiolevels</effectcategory>
							<effecttype>audiolevels</effecttype>
							<mediatype>audio</mediatype>
							<parameter>
								<name>Level</name>
								<parameterid>level</parameterid>
								<valuemin>0</valuemin>
								<valuemax>3.98109</valuemax>
								<value>0</value>
							</parameter>
						</effect>
					</filter>
					<filter>
						<effect>
							<name>Audio Pan</name>
							<effectid>audiopan</effectid>
							<effectcategory>audiopan</effectcategory>
							<effecttype>audiopan</effecttype>
							<mediatype>audio</mediatype>
							<parameter>
								<name>Pan</name>
								<parameterid>pan</parameterid>
								<valuemin>-1</valuemin>
								<valuemax>1</valuemax>
								<value>0</value>
							</parameter>
						</effect>
					</filter>
					<sourcetrack>
						<mediatype>audio</mediatype>
						<trackindex>2</trackindex>
					</sourcetrack>
					<link>
						<linkclipref>DYR18665_01 3</linkclipref>
						<mediatype>audio</mediatype>
						<trackindex>1</trackindex>
						<clipindex>188</clipindex>
					</link>
					<link>
						<linkclipref>DYR18665_01 4</linkclipref>
						<mediatype>audio</mediatype>
						<trackindex>2</trackindex>
						<clipindex>188</clipindex>
					</link>
					<itemhistory>
						<uuid>9CEF79B3-8689-46A0-849A-7F1E31698A04</uuid>
					</itemhistory>
				</clipitem>
				<clipitem id="00804001.MOV3">
					<name>00804001.MOV</name>
					<duration>552</duration>
					<rate>
						<ntsc>FALSE</ntsc>
						<timebase>25</timebase>
					</rate>
					<in>159</in>
					<out>234</out>
					<start>27702</start>
					<end>27777</end>
					<subframeoffset>0</subframeoffset>
					<enabled>TRUE</enabled>
					<masterclipid>00804001.MOV1</masterclipid>
					<logginginfo>
						<scene/>
						<shottake/>
						<lognote/>
						<good>FALSE</good>
					</logginginfo>
					<labels>
						<label2/>
					</labels>
					<comments>
						<mastercomment1/>
						<mastercomment2/>
						<mastercomment3/>
						<mastercomment4/>
					</comments>
					<file id="00804001 "/>
					<filter>
						<effect>
							<name>Audio Levels</name>
							<effectid>audiolevels</effectid>
							<effectcategory>audiolevels</effectcategory>
							<effecttype>audiolevels</effecttype>
							<mediatype>audio</mediatype>
							<parameter>
								<name>Level</name>
								<parameterid>level</parameterid>
								<valuemin>0</valuemin>
								<valuemax>3.98109</valuemax>
								<value>1.58489</value>
							</parameter>
						</effect>
					</filter>
					<filter>
						<effect>
							<name>Audio Pan</name>
							<effectid>audiopan</effectid>
							<effectcategory>audiopan</effectcategory>
							<effecttype>audiopan</effecttype>
							<mediatype>audio</mediatype>
							<parameter>
								<name>Pan</name>
								<parameterid>pan</parameterid>
								<valuemin>-1</valuemin>
								<valuemax>1</valuemax>
								<value>0</value>
							</parameter>
						</effect>
					</filter>
					<sourcetrack>
						<mediatype>audio</mediatype>
						<trackindex>2</trackindex>
					</sourcetrack>
					<link>
						<linkclipref>00804001.MOV</linkclipref>
						<mediatype>video</mediatype>
						<trackindex>1</trackindex>
						<clipindex>229</clipindex>
					</link>
					<link>
						<linkclipref>00804001.MOV2</linkclipref>
						<mediatype>audio</mediatype>
						<trackindex>1</trackindex>
						<clipindex>189</clipindex>
					</link>
					<link>
						<linkclipref>00804001.MOV3</linkclipref>
						<mediatype>audio</mediatype>
						<trackindex>2</trackindex>
						<clipindex>189</clipindex>
					</link>
					<itemhistory>
						<uuid>B63C98FF-7D81-4518-B781-B218069DDB8B</uuid>
					</itemhistory>
				</clipitem>
				<clipitem id="00804001.MOV6">
					<name>00804001.MOV</name>
					<duration>552</duration>
					<rate>
						<ntsc>FALSE</ntsc>
						<timebase>25</timebase>
					</rate>
					<in>234</in>
					<out>417</out>
					<start>27777</start>
					<end>27960</end>
					<subframeoffset>0</subframeoffset>
					<enabled>TRUE</enabled>
					<masterclipid>00804001.MOV1</masterclipid>
					<logginginfo>
						<scene/>
						<shottake/>
						<lognote/>
						<good>FALSE</good>
					</logginginfo>
					<labels>
						<label2/>
					</labels>
					<comments>
						<mastercomment1/>
						<mastercomment2/>
						<mastercomment3/>
						<mastercomment4/>
					</comments>
					<file id="00804001 "/>
					<filter>
						<effect>
							<name>Audio Levels</name>
							<effectid>audiolevels</effectid>
							<effectcategory>audiolevels</effectcategory>
							<effecttype>audiolevels</effecttype>
							<mediatype>audio</mediatype>
							<parameter>
								<name>Level</name>
								<parameterid>level</parameterid>
								<valuemin>0</valuemin>
								<valuemax>3.98109</valuemax>
								<value>1.58489</value>
							</parameter>
						</effect>
					</filter>
					<filter>
						<effect>
							<name>Audio Pan</name>
							<effectid>audiopan</effectid>
							<effectcategory>audiopan</effectcategory>
							<effecttype>audiopan</effecttype>
							<mediatype>audio</mediatype>
							<parameter>
								<name>Pan</name>
								<parameterid>pan</parameterid>
								<valuemin>-1</valuemin>
								<valuemax>1</valuemax>
								<value>0</value>
							</parameter>
						</effect>
					</filter>
					<sourcetrack>
						<mediatype>audio</mediatype>
						<trackindex>2</trackindex>
					</sourcetrack>
					<link>
						<linkclipref>00804001.MOV4</linkclipref>
						<mediatype>video</mediatype>
						<trackindex>1</trackindex>
						<clipindex>231</clipindex>
					</link>
					<link>
						<linkclipref>00804001.MOV5</linkclipref>
						<mediatype>audio</mediatype>
						<trackindex>1</trackindex>
						<clipindex>190</clipindex>
					</link>
					<link>
						<linkclipref>00804001.MOV6</linkclipref>
						<mediatype>audio</mediatype>
						<trackindex>2</trackindex>
						<clipindex>190</clipindex>
					</link>
					<itemhistory>
						<uuid>00E640DA-6A2F-46B0-B23A-22C3E27DE296</uuid>
					</itemhistory>
				</clipitem>
				<clipitem id="00812001.MOV3">
					<name>00812001.MOV</name>
					<duration>720</duration>
					<rate>
						<ntsc>FALSE</ntsc>
						<timebase>25</timebase>
					</rate>
					<in>164</in>
					<out>281</out>
					<start>27960</start>
					<end>28077</end>
					<subframeoffset>0</subframeoffset>
					<enabled>TRUE</enabled>
					<masterclipid>00812001.MOV1</masterclipid>
					<logginginfo>
						<scene/>
						<shottake/>
						<lognote/>
						<good>FALSE</good>
					</logginginfo>
					<labels>
						<label2/>
					</labels>
					<comments>
						<mastercomment1/>
						<mastercomment2/>
						<mastercomment3/>
						<mastercomment4/>
					</comments>
					<file id="00812001 "/>
					<filter>
						<effect>
							<name>Audio Levels</name>
							<effectid>audiolevels</effectid>
							<effectcategory>audiolevels</effectcategory>
							<effecttype>audiolevels</effecttype>
							<mediatype>audio</mediatype>
							<parameter>
								<name>Level</name>
								<parameterid>level</parameterid>
								<valuemin>0</valuemin>
								<valuemax>3.98109</valuemax>
								<value>1.58489</value>
							</parameter>
						</effect>
					</filter>
					<filter>
						<effect>
							<name>Audio Pan</name>
							<effectid>audiopan</effectid>
							<effectcategory>audiopan</effectcategory>
							<effecttype>audiopan</effecttype>
							<mediatype>audio</mediatype>
							<parameter>
								<name>Pan</name>
								<parameterid>pan</parameterid>
								<valuemin>-1</valuemin>
								<valuemax>1</valuemax>
								<value>0</value>
							</parameter>
						</effect>
					</filter>
					<sourcetrack>
						<mediatype>audio</mediatype>
						<trackindex>2</trackindex>
					</sourcetrack>
					<link>
						<linkclipref>00812001.MOV</linkclipref>
						<mediatype>video</mediatype>
						<trackindex>1</trackindex>
						<clipindex>234</clipindex>
					</link>
					<link>
						<linkclipref>00812001.MOV2</linkclipref>
						<mediatype>audio</mediatype>
						<trackindex>1</trackindex>
						<clipindex>191</clipindex>
					</link>
					<link>
						<linkclipref>00812001.MOV3</linkclipref>
						<mediatype>audio</mediatype>
						<trackindex>2</trackindex>
						<clipindex>191</clipindex>
					</link>
					<itemhistory>
						<uuid>E9B2B31F-C42B-4E1D-96CA-146954DC00CD</uuid>
					</itemhistory>
				</clipitem>
				<clipitem id="00811001.MOV3">
					<name>00811001.MOV</name>
					<duration>1380</duration>
					<rate>
						<ntsc>FALSE</ntsc>
						<timebase>25</timebase>
					</rate>
					<in>864</in>
					<out>1196</out>
					<start>28077</start>
					<end>28409</end>
					<subframeoffset>0</subframeoffset>
					<masterclipid>00811001.MOV1</masterclipid>
					<logginginfo>
						<scene/>
						<shottake/>
						<lognote/>
						<good>FALSE</good>
					</logginginfo>
					<labels>
						<label2/>
					</labels>
					<comments>
						<mastercomment1/>
						<mastercomment2/>
						<mastercomment3/>
						<mastercomment4/>
					</comments>
					<file id="00811001 "/>
					<filter>
						<effect>
							<name>Audio Levels</name>
							<effectid>audiolevels</effectid>
							<effectcategory>audiolevels</effectcategory>
							<effecttype>audiolevels</effecttype>
							<mediatype>audio</mediatype>
							<parameter>
								<name>Level</name>
								<parameterid>level</parameterid>
								<valuemin>0</valuemin>
								<valuemax>3.98109</valuemax>
								<value>1.58489</value>
							</parameter>
						</effect>
					</filter>
					<filter>
						<effect>
							<name>Audio Pan</name>
							<effectid>audiopan</effectid>
							<effectcategory>audiopan</effectcategory>
							<effecttype>audiopan</effecttype>
							<mediatype>audio</mediatype>
							<parameter>
								<name>Pan</name>
								<parameterid>pan</parameterid>
								<valuemin>-1</valuemin>
								<valuemax>1</valuemax>
								<value>0</value>
							</parameter>
						</effect>
					</filter>
					<sourcetrack>
						<mediatype>audio</mediatype>
						<trackindex>2</trackindex>
					</sourcetrack>
					<link>
						<linkclipref>00811001.MOV</linkclipref>
						<mediatype>video</mediatype>
						<trackindex>1</trackindex>
						<clipindex>235</clipindex>
					</link>
					<link>
						<linkclipref>00811001.MOV2</linkclipref>
						<mediatype>audio</mediatype>
						<trackindex>1</trackindex>
						<clipindex>192</clipindex>
					</link>
					<link>
						<linkclipref>00811001.MOV3</linkclipref>
						<mediatype>audio</mediatype>
						<trackindex>2</trackindex>
						<clipindex>192</clipindex>
					</link>
					<itemhistory>
						<uuid>F6F1B26D-E40B-44F4-9591-63D5FE1AD510</uuid>
					</itemhistory>
				</clipitem>
				<clipitem id="00813001.MOV4">
					<name>00813001.MOV</name>
					<duration>1068</duration>
					<rate>
						<ntsc>FALSE</ntsc>
						<timebase>25</timebase>
					</rate>
					<in>914</in>
					<out>963</out>
					<start>28409</start>
					<end>28458</end>
					<subframeoffset>0</subframeoffset>
					<enabled>TRUE</enabled>
					<masterclipid>00813001.MOV1</masterclipid>
					<logginginfo>
						<scene/>
						<shottake/>
						<lognote/>
						<good>FALSE</good>
					</logginginfo>
					<labels>
						<label2/>
					</labels>
					<comments>
						<mastercomment1/>
						<mastercomment2/>
						<mastercomment3/>
						<mastercomment4/>
					</comments>
					<file id="00813001 "/>
					<filter>
						<effect>
							<name>Audio Levels</name>
							<effectid>audiolevels</effectid>
							<effectcategory>audiolevels</effectcategory>
							<effecttype>audiolevels</effecttype>
							<mediatype>audio</mediatype>
							<parameter>
								<name>Level</name>
								<parameterid>level</parameterid>
								<valuemin>0</valuemin>
								<valuemax>3.98109</valuemax>
								<value>1.58489</value>
							</parameter>
						</effect>
					</filter>
					<filter>
						<effect>
							<name>Audio Pan</name>
							<effectid>audiopan</effectid>
							<effectcategory>audiopan</effectcategory>
							<effecttype>audiopan</effecttype>
							<mediatype>audio</mediatype>
							<parameter>
								<name>Pan</name>
								<parameterid>pan</parameterid>
								<valuemin>-1</valuemin>
								<valuemax>1</valuemax>
								<value>0</value>
							</parameter>
						</effect>
					</filter>
					<sourcetrack>
						<mediatype>audio</mediatype>
						<trackindex>2</trackindex>
					</sourcetrack>
					<link>
						<linkclipref>00813001.MOV2</linkclipref>
						<mediatype>video</mediatype>
						<trackindex>1</trackindex>
						<clipindex>238</clipindex>
					</link>
					<link>
						<linkclipref>00813001.MOV3</linkclipref>
						<mediatype>audio</mediatype>
						<trackindex>1</trackindex>
						<clipindex>193</clipindex>
					</link>
					<link>
						<linkclipref>00813001.MOV4</linkclipref>
						<mediatype>audio</mediatype>
						<trackindex>2</trackindex>
						<clipindex>193</clipindex>
					</link>
					<itemhistory>
						<uuid>EDA6D4AD-63C4-4A0B-86E8-CA1B0296D24D</uuid>
					</itemhistory>
				</clipitem>
				<clipitem id="00811001.MOV7">
					<name>00811001.MOV</name>
					<duration>1380</duration>
					<rate>
						<ntsc>FALSE</ntsc>
						<timebase>25</timebase>
					</rate>
					<in>1261</in>
					<out>1294</out>
					<start>28458</start>
					<end>28491</end>
					<subframeoffset>0</subframeoffset>
					<enabled>TRUE</enabled>
					<masterclipid>00811001.MOV1</masterclipid>
					<logginginfo>
						<scene/>
						<shottake/>
						<lognote/>
						<good>FALSE</good>
					</logginginfo>
					<labels>
						<label2/>
					</labels>
					<comments>
						<mastercomment1/>
						<mastercomment2/>
						<mastercomment3/>
						<mastercomment4/>
					</comments>
					<file id="00811001 "/>
					<filter>
						<effect>
							<name>Audio Levels</name>
							<effectid>audiolevels</effectid>
							<effectcategory>audiolevels</effectcategory>
							<effecttype>audiolevels</effecttype>
							<mediatype>audio</mediatype>
							<parameter>
								<name>Level</name>
								<parameterid>level</parameterid>
								<valuemin>0</valuemin>
								<valuemax>3.98109</valuemax>
								<value>1.58489</value>
							</parameter>
						</effect>
					</filter>
					<filter>
						<effect>
							<name>Audio Pan</name>
							<effectid>audiopan</effectid>
							<effectcategory>audiopan</effectcategory>
							<effecttype>audiopan</effecttype>
							<mediatype>audio</mediatype>
							<parameter>
								<name>Pan</name>
								<parameterid>pan</parameterid>
								<valuemin>-1</valuemin>
								<valuemax>1</valuemax>
								<value>0</value>
							</parameter>
						</effect>
					</filter>
					<sourcetrack>
						<mediatype>audio</mediatype>
						<trackindex>2</trackindex>
					</sourcetrack>
					<link>
						<linkclipref>00811001.MOV5</linkclipref>
						<mediatype>video</mediatype>
						<trackindex>1</trackindex>
						<clipindex>239</clipindex>
					</link>
					<link>
						<linkclipref>00811001.MOV6</linkclipref>
						<mediatype>audio</mediatype>
						<trackindex>1</trackindex>
						<clipindex>194</clipindex>
					</link>
					<link>
						<linkclipref>00811001.MOV7</linkclipref>
						<mediatype>audio</mediatype>
						<trackindex>2</trackindex>
						<clipindex>194</clipindex>
					</link>
					<itemhistory>
						<uuid>E3063A17-0136-4798-A034-F857720E16BC</uuid>
					</itemhistory>
				</clipitem>
				<transitionitem>
					<rate>
						<ntsc>FALSE</ntsc>
						<timebase>25</timebase>
					</rate>
					<start>28525</start>
					<end>28539</end>
					<alignment>start-black</alignment>
					<effect>
						<name>Cross Fade (+3dB)</name>
						<effectid>KGAudioTransCrossFade3dB</effectid>
						<effecttype>transition</effecttype>
						<mediatype>audio</mediatype>
					</effect>
				</transitionitem>
				<clipitem id="00816001.MOV3">
					<name>00816001.MOV</name>
					<duration>1308</duration>
					<rate>
						<ntsc>FALSE</ntsc>
						<timebase>25</timebase>
					</rate>
					<in>499</in>
					<out>596</out>
					<start>-1</start>
					<end>28622</end>
					<subframeoffset>0</subframeoffset>
					<masterclipid>00816001.MOV1</masterclipid>
					<logginginfo>
						<scene/>
						<shottake/>
						<lognote/>
						<good>FALSE</good>
					</logginginfo>
					<labels>
						<label2/>
					</labels>
					<comments>
						<mastercomment1/>
						<mastercomment2/>
						<mastercomment3/>
						<mastercomment4/>
					</comments>
					<file id="00816001 "/>
					<filter>
						<effect>
							<name>Audio Levels</name>
							<effectid>audiolevels</effectid>
							<effectcategory>audiolevels</effectcategory>
							<effecttype>audiolevels</effecttype>
							<mediatype>audio</mediatype>
							<parameter>
								<name>Level</name>
								<parameterid>level</parameterid>
								<valuemin>0</valuemin>
								<valuemax>3.98109</valuemax>
								<value>1.99526</value>
							</parameter>
						</effect>
					</filter>
					<filter>
						<effect>
							<name>Audio Pan</name>
							<effectid>audiopan</effectid>
							<effectcategory>audiopan</effectcategory>
							<effecttype>audiopan</effecttype>
							<mediatype>audio</mediatype>
							<parameter>
								<name>Pan</name>
								<parameterid>pan</parameterid>
								<valuemin>-1</valuemin>
								<valuemax>1</valuemax>
								<value>0</value>
							</parameter>
						</effect>
					</filter>
					<sourcetrack>
						<mediatype>audio</mediatype>
						<trackindex>2</trackindex>
					</sourcetrack>
					<link>
						<linkclipref>00816001.MOV2</linkclipref>
						<mediatype>audio</mediatype>
						<trackindex>1</trackindex>
						<clipindex>196</clipindex>
					</link>
					<link>
						<linkclipref>00816001.MOV3</linkclipref>
						<mediatype>audio</mediatype>
						<trackindex>2</trackindex>
						<clipindex>196</clipindex>
					</link>
					<itemhistory>
						<uuid>245110BB-D37F-46CC-8584-2F00B14B3680</uuid>
					</itemhistory>
				</clipitem>
				<clipitem id="00823001.MOV3">
					<name>00823001.MOV</name>
					<duration>2676</duration>
					<rate>
						<ntsc>FALSE</ntsc>
						<timebase>25</timebase>
					</rate>
					<in>111</in>
					<out>207</out>
					<start>28622</start>
					<end>-1</end>
					<subframeoffset>0</subframeoffset>
					<enabled>TRUE</enabled>
					<masterclipid>00823001.MOV1</masterclipid>
					<logginginfo>
						<scene/>
						<shottake/>
						<lognote/>
						<good>FALSE</good>
					</logginginfo>
					<labels>
						<label2/>
					</labels>
					<comments>
						<mastercomment1/>
						<mastercomment2/>
						<mastercomment3/>
						<mastercomment4/>
					</comments>
					<file id="00823001 "/>
					<filter>
						<effect>
							<name>Audio Levels</name>
							<effectid>audiolevels</effectid>
							<effectcategory>audiolevels</effectcategory>
							<effecttype>audiolevels</effecttype>
							<mediatype>audio</mediatype>
							<parameter>
								<name>Level</name>
								<parameterid>level</parameterid>
								<valuemin>0</valuemin>
								<valuemax>3.98109</valuemax>
								<value>2.23872</value>
							</parameter>
						</effect>
					</filter>
					<filter>
						<effect>
							<name>Audio Pan</name>
							<effectid>audiopan</effectid>
							<effectcategory>audiopan</effectcategory>
							<effecttype>audiopan</effecttype>
							<mediatype>audio</mediatype>
							<parameter>
								<name>Pan</name>
								<parameterid>pan</parameterid>
								<valuemin>-1</valuemin>
								<valuemax>1</valuemax>
								<value>0</value>
							</parameter>
						</effect>
					</filter>
					<sourcetrack>
						<mediatype>audio</mediatype>
						<trackindex>2</trackindex>
					</sourcetrack>
					<link>
						<linkclipref>00823001.MOV</linkclipref>
						<mediatype>video</mediatype>
						<trackindex>1</trackindex>
						<clipindex>241</clipindex>
					</link>
					<link>
						<linkclipref>00823001.MOV2</linkclipref>
						<mediatype>audio</mediatype>
						<trackindex>1</trackindex>
						<clipindex>197</clipindex>
					</link>
					<link>
						<linkclipref>00823001.MOV3</linkclipref>
						<mediatype>audio</mediatype>
						<trackindex>2</trackindex>
						<clipindex>197</clipindex>
					</link>
					<itemhistory>
						<uuid>9F8FF4AE-6CE6-47F1-9DDE-5A1F058302A2</uuid>
					</itemhistory>
				</clipitem>
				<transitionitem>
					<rate>
						<ntsc>FALSE</ntsc>
						<timebase>25</timebase>
					</rate>
					<start>28716</start>
					<end>28718</end>
					<alignment>center</alignment>
					<effect>
						<name>Cross Fade (+3dB)</name>
						<effectid>KGAudioTransCrossFade3dB</effectid>
						<effecttype>transition</effecttype>
						<mediatype>audio</mediatype>
					</effect>
				</transitionitem>
				<clipitem id="00821001.MOV3">
					<name>00821001.MOV</name>
					<duration>3420</duration>
					<rate>
						<ntsc>FALSE</ntsc>
						<timebase>25</timebase>
					</rate>
					<in>459</in>
					<out>591</out>
					<start>-1</start>
					<end>28848</end>
					<subframeoffset>0</subframeoffset>
					<enabled>TRUE</enabled>
					<masterclipid>00821001.MOV1</masterclipid>
					<logginginfo>
						<scene/>
						<shottake/>
						<lognote/>
						<good>FALSE</good>
					</logginginfo>
					<labels>
						<label2/>
					</labels>
					<comments>
						<mastercomment1/>
						<mastercomment2/>
						<mastercomment3/>
						<mastercomment4/>
					</comments>
					<file id="00821001 "/>
					<filter>
						<effect>
							<name>Audio Levels</name>
							<effectid>audiolevels</effectid>
							<effectcategory>audiolevels</effectcategory>
							<effecttype>audiolevels</effecttype>
							<mediatype>audio</mediatype>
							<parameter>
								<name>Level</name>
								<parameterid>level</parameterid>
								<valuemin>0</valuemin>
								<valuemax>3.98109</valuemax>
								<value>2.23872</value>
							</parameter>
						</effect>
					</filter>
					<filter>
						<effect>
							<name>Audio Pan</name>
							<effectid>audiopan</effectid>
							<effectcategory>audiopan</effectcategory>
							<effecttype>audiopan</effecttype>
							<mediatype>audio</mediatype>
							<parameter>
								<name>Pan</name>
								<parameterid>pan</parameterid>
								<valuemin>-1</valuemin>
								<valuemax>1</valuemax>
								<value>0</value>
							</parameter>
						</effect>
					</filter>
					<sourcetrack>
						<mediatype>audio</mediatype>
						<trackindex>2</trackindex>
					</sourcetrack>
					<link>
						<linkclipref>00821001.MOV</linkclipref>
						<mediatype>video</mediatype>
						<trackindex>1</trackindex>
						<clipindex>242</clipindex>
					</link>
					<link>
						<linkclipref>00821001.MOV2</linkclipref>
						<mediatype>audio</mediatype>
						<trackindex>1</trackindex>
						<clipindex>199</clipindex>
					</link>
					<link>
						<linkclipref>00821001.MOV3</linkclipref>
						<mediatype>audio</mediatype>
						<trackindex>2</trackindex>
						<clipindex>199</clipindex>
					</link>
					<itemhistory>
						<uuid>BBF4B96E-DD75-4638-927C-83C5283BF9F6</uuid>
					</itemhistory>
				</clipitem>
				<clipitem id="00822001.MOV3">
					<name>00822001.MOV</name>
					<duration>816</duration>
					<rate>
						<ntsc>FALSE</ntsc>
						<timebase>25</timebase>
					</rate>
					<in>558</in>
					<out>625</out>
					<start>28848</start>
					<end>-1</end>
					<subframeoffset>0</subframeoffset>
					<enabled>TRUE</enabled>
					<masterclipid>00822001.MOV1</masterclipid>
					<logginginfo>
						<scene/>
						<shottake/>
						<lognote/>
						<good>FALSE</good>
					</logginginfo>
					<labels>
						<label2/>
					</labels>
					<comments>
						<mastercomment1/>
						<mastercomment2/>
						<mastercomment3/>
						<mastercomment4/>
					</comments>
					<file id="00822001 "/>
					<filter>
						<effect>
							<name>Audio Levels</name>
							<effectid>audiolevels</effectid>
							<effectcategory>audiolevels</effectcategory>
							<effecttype>audiolevels</effecttype>
							<mediatype>audio</mediatype>
							<parameter>
								<name>Level</name>
								<parameterid>level</parameterid>
								<valuemin>0</valuemin>
								<valuemax>3.98109</valuemax>
								<value>2.23872</value>
							</parameter>
						</effect>
					</filter>
					<filter>
						<effect>
							<name>Audio Pan</name>
							<effectid>audiopan</effectid>
							<effectcategory>audiopan</effectcategory>
							<effecttype>audiopan</effecttype>
							<mediatype>audio</mediatype>
							<parameter>
								<name>Pan</name>
								<parameterid>pan</parameterid>
								<valuemin>-1</valuemin>
								<valuemax>1</valuemax>
								<value>0</value>
							</parameter>
						</effect>
					</filter>
					<sourcetrack>
						<mediatype>audio</mediatype>
						<trackindex>2</trackindex>
					</sourcetrack>
					<link>
						<linkclipref>00822001.MOV</linkclipref>
						<mediatype>video</mediatype>
						<trackindex>1</trackindex>
						<clipindex>243</clipindex>
					</link>
					<link>
						<linkclipref>00822001.MOV2</linkclipref>
						<mediatype>audio</mediatype>
						<trackindex>1</trackindex>
						<clipindex>200</clipindex>
					</link>
					<link>
						<linkclipref>00822001.MOV3</linkclipref>
						<mediatype>audio</mediatype>
						<trackindex>2</trackindex>
						<clipindex>200</clipindex>
					</link>
					<itemhistory>
						<uuid>AFE7A0B1-B23F-4B0B-814B-B7A71E8AFA66</uuid>
					</itemhistory>
				</clipitem>
				<transitionitem>
					<rate>
						<ntsc>FALSE</ntsc>
						<timebase>25</timebase>
					</rate>
					<start>28902</start>
					<end>28915</end>
					<alignment>center</alignment>
					<effect>
						<name>Cross Fade (+3dB)</name>
						<effectid>KGAudioTransCrossFade3dB</effectid>
						<effecttype>transition</effecttype>
						<mediatype>audio</mediatype>
					</effect>
				</transitionitem>
				<clipitem id="00821001.MOV6">
					<name>00821001.MOV</name>
					<duration>3420</duration>
					<rate>
						<ntsc>FALSE</ntsc>
						<timebase>25</timebase>
					</rate>
					<in>612</in>
					<out>690</out>
					<start>-1</start>
					<end>-1</end>
					<subframeoffset>0</subframeoffset>
					<enabled>TRUE</enabled>
					<masterclipid>00821001.MOV1</masterclipid>
					<logginginfo>
						<scene/>
						<shottake/>
						<lognote/>
						<good>FALSE</good>
					</logginginfo>
					<labels>
						<label2/>
					</labels>
					<comments>
						<mastercomment1/>
						<mastercomment2/>
						<mastercomment3/>
						<mastercomment4/>
					</comments>
					<file id="00821001 "/>
					<filter>
						<effect>
							<name>Audio Levels</name>
							<effectid>audiolevels</effectid>
							<effectcategory>audiolevels</effectcategory>
							<effecttype>audiolevels</effecttype>
							<mediatype>audio</mediatype>
							<parameter>
								<name>Level</name>
								<parameterid>level</parameterid>
								<valuemin>0</valuemin>
								<valuemax>3.98109</valuemax>
								<value>2.23872</value>
							</parameter>
						</effect>
					</filter>
					<filter>
						<effect>
							<name>Audio Pan</name>
							<effectid>audiopan</effectid>
							<effectcategory>audiopan</effectcategory>
							<effecttype>audiopan</effecttype>
							<mediatype>audio</mediatype>
							<parameter>
								<name>Pan</name>
								<parameterid>pan</parameterid>
								<valuemin>-1</valuemin>
								<valuemax>1</valuemax>
								<value>0</value>
							</parameter>
						</effect>
					</filter>
					<sourcetrack>
						<mediatype>audio</mediatype>
						<trackindex>2</trackindex>
					</sourcetrack>
					<link>
						<linkclipref>00821001.MOV4</linkclipref>
						<mediatype>video</mediatype>
						<trackindex>1</trackindex>
						<clipindex>244</clipindex>
					</link>
					<link>
						<linkclipref>00821001.MOV5</linkclipref>
						<mediatype>audio</mediatype>
						<trackindex>1</trackindex>
						<clipindex>202</clipindex>
					</link>
					<link>
						<linkclipref>00821001.MOV6</linkclipref>
						<mediatype>audio</mediatype>
						<trackindex>2</trackindex>
						<clipindex>202</clipindex>
					</link>
					<itemhistory>
						<uuid>BCE7EA1B-4C73-413B-8AC6-457553370433</uuid>
					</itemhistory>
				</clipitem>
				<transitionitem>
					<rate>
						<ntsc>FALSE</ntsc>
						<timebase>25</timebase>
					</rate>
					<start>28965</start>
					<end>28980</end>
					<alignment>center</alignment>
					<effect>
						<name>Cross Fade (+3dB)</name>
						<effectid>KGAudioTransCrossFade3dB</effectid>
						<effecttype>transition</effecttype>
						<mediatype>audio</mediatype>
					</effect>
				</transitionitem>
				<clipitem id="00823001.MOV6">
					<name>00823001.MOV</name>
					<duration>2676</duration>
					<rate>
						<ntsc>FALSE</ntsc>
						<timebase>25</timebase>
					</rate>
					<in>431</in>
					<out>561</out>
					<start>-1</start>
					<end>-1</end>
					<subframeoffset>0</subframeoffset>
					<enabled>TRUE</enabled>
					<masterclipid>00823001.MOV1</masterclipid>
					<logginginfo>
						<scene/>
						<shottake/>
						<lognote/>
						<good>FALSE</good>
					</logginginfo>
					<labels>
						<label2/>
					</labels>
					<comments>
						<mastercomment1/>
						<mastercomment2/>
						<mastercomment3/>
						<mastercomment4/>
					</comments>
					<file id="00823001 "/>
					<filter>
						<effect>
							<name>Audio Levels</name>
							<effectid>audiolevels</effectid>
							<effectcategory>audiolevels</effectcategory>
							<effecttype>audiolevels</effecttype>
							<mediatype>audio</mediatype>
							<parameter>
								<name>Level</name>
								<parameterid>level</parameterid>
								<valuemin>0</valuemin>
								<valuemax>3.98109</valuemax>
								<value>2.23872</value>
							</parameter>
						</effect>
					</filter>
					<filter>
						<effect>
							<name>Audio Pan</name>
							<effectid>audiopan</effectid>
							<effectcategory>audiopan</effectcategory>
							<effecttype>audiopan</effecttype>
							<mediatype>audio</mediatype>
							<parameter>
								<name>Pan</name>
								<parameterid>pan</parameterid>
								<valuemin>-1</valuemin>
								<valuemax>1</valuemax>
								<value>0</value>
							</parameter>
						</effect>
					</filter>
					<sourcetrack>
						<mediatype>audio</mediatype>
						<trackindex>2</trackindex>
					</sourcetrack>
					<link>
						<linkclipref>00823001.MOV4</linkclipref>
						<mediatype>video</mediatype>
						<trackindex>1</trackindex>
						<clipindex>245</clipindex>
					</link>
					<link>
						<linkclipref>00823001.MOV5</linkclipref>
						<mediatype>audio</mediatype>
						<trackindex>1</trackindex>
						<clipindex>204</clipindex>
					</link>
					<link>
						<linkclipref>00823001.MOV6</linkclipref>
						<mediatype>audio</mediatype>
						<trackindex>2</trackindex>
						<clipindex>204</clipindex>
					</link>
					<itemhistory>
						<uuid>24C18E3A-DD6A-4027-96CE-B1818CB980FE</uuid>
					</itemhistory>
				</clipitem>
				<transitionitem>
					<rate>
						<ntsc>FALSE</ntsc>
						<timebase>25</timebase>
					</rate>
					<start>29079</start>
					<end>29095</end>
					<alignment>end</alignment>
					<effect>
						<name>Cross Fade (+3dB)</name>
						<effectid>KGAudioTransCrossFade3dB</effectid>
						<effecttype>transition</effecttype>
						<mediatype>audio</mediatype>
					</effect>
				</transitionitem>
				<clipitem id="00821001.MOV9">
					<name>00821001.MOV</name>
					<duration>3420</duration>
					<rate>
						<ntsc>FALSE</ntsc>
						<timebase>25</timebase>
					</rate>
					<in>759</in>
					<out>861</out>
					<start>-1</start>
					<end>-1</end>
					<subframeoffset>0</subframeoffset>
					<enabled>TRUE</enabled>
					<masterclipid>00821001.MOV1</masterclipid>
					<logginginfo>
						<scene/>
						<shottake/>
						<lognote/>
						<good>FALSE</good>
					</logginginfo>
					<labels>
						<label2/>
					</labels>
					<comments>
						<mastercomment1/>
						<mastercomment2/>
						<mastercomment3/>
						<mastercomment4/>
					</comments>
					<file id="00821001 "/>
					<filter>
						<effect>
							<name>Audio Levels</name>
							<effectid>audiolevels</effectid>
							<effectcategory>audiolevels</effectcategory>
							<effecttype>audiolevels</effecttype>
							<mediatype>audio</mediatype>
							<parameter>
								<name>Level</name>
								<parameterid>level</parameterid>
								<valuemin>0</valuemin>
								<valuemax>3.98109</valuemax>
								<keyframe>
									<when>778.571</when>
									<value>0.281838</value>
								</keyframe>
								<keyframe>
									<when>827.714</when>
									<value>2.23872</value>
								</keyframe>
								<interpolation>
									<name>FCPCurve</name>
								</interpolation>
								<value>1.33423</value>
							</parameter>
						</effect>
					</filter>
					<filter>
						<effect>
							<name>Audio Pan</name>
							<effectid>audiopan</effectid>
							<effectcategory>audiopan</effectcategory>
							<effecttype>audiopan</effecttype>
							<mediatype>audio</mediatype>
							<parameter>
								<name>Pan</name>
								<parameterid>pan</parameterid>
								<valuemin>-1</valuemin>
								<valuemax>1</valuemax>
								<value>0</value>
							</parameter>
						</effect>
					</filter>
					<sourcetrack>
						<mediatype>audio</mediatype>
						<trackindex>2</trackindex>
					</sourcetrack>
					<link>
						<linkclipref>00821001.MOV7</linkclipref>
						<mediatype>video</mediatype>
						<trackindex>1</trackindex>
						<clipindex>246</clipindex>
					</link>
					<link>
						<linkclipref>00821001.MOV8</linkclipref>
						<mediatype>audio</mediatype>
						<trackindex>1</trackindex>
						<clipindex>206</clipindex>
					</link>
					<link>
						<linkclipref>00821001.MOV9</linkclipref>
						<mediatype>audio</mediatype>
						<trackindex>2</trackindex>
						<clipindex>206</clipindex>
					</link>
					<itemhistory>
						<uuid>89A5E9A4-CCC5-4824-91FA-58B786CA2451</uuid>
					</itemhistory>
				</clipitem>
				<transitionitem>
					<rate>
						<ntsc>FALSE</ntsc>
						<timebase>25</timebase>
					</rate>
					<start>29179</start>
					<end>29181</end>
					<alignment>center</alignment>
					<effect>
						<name>Cross Fade (+3dB)</name>
						<effectid>KGAudioTransCrossFade3dB</effectid>
						<effecttype>transition</effecttype>
						<mediatype>audio</mediatype>
					</effect>
				</transitionitem>
				<clipitem id="00823001.MOV9">
					<name>00823001.MOV</name>
					<duration>2676</duration>
					<rate>
						<ntsc>FALSE</ntsc>
						<timebase>25</timebase>
					</rate>
					<in>627</in>
					<out>712</out>
					<start>-1</start>
					<end>-1</end>
					<subframeoffset>0</subframeoffset>
					<enabled>TRUE</enabled>
					<masterclipid>00823001.MOV1</masterclipid>
					<logginginfo>
						<scene/>
						<shottake/>
						<lognote/>
						<good>FALSE</good>
					</logginginfo>
					<labels>
						<label2/>
					</labels>
					<comments>
						<mastercomment1/>
						<mastercomment2/>
						<mastercomment3/>
						<mastercomment4/>
					</comments>
					<file id="00823001 "/>
					<filter>
						<effect>
							<name>Audio Levels</name>
							<effectid>audiolevels</effectid>
							<effectcategory>audiolevels</effectcategory>
							<effecttype>audiolevels</effecttype>
							<mediatype>audio</mediatype>
							<parameter>
								<name>Level</name>
								<parameterid>level</parameterid>
								<valuemin>0</valuemin>
								<valuemax>3.98109</valuemax>
								<value>1.99526</value>
							</parameter>
						</effect>
					</filter>
					<filter>
						<effect>
							<name>Audio Pan</name>
							<effectid>audiopan</effectid>
							<effectcategory>audiopan</effectcategory>
							<effecttype>audiopan</effecttype>
							<mediatype>audio</mediatype>
							<parameter>
								<name>Pan</name>
								<parameterid>pan</parameterid>
								<valuemin>-1</valuemin>
								<valuemax>1</valuemax>
								<value>0</value>
							</parameter>
						</effect>
					</filter>
					<sourcetrack>
						<mediatype>audio</mediatype>
						<trackindex>2</trackindex>
					</sourcetrack>
					<link>
						<linkclipref>00823001.MOV7</linkclipref>
						<mediatype>video</mediatype>
						<trackindex>1</trackindex>
						<clipindex>247</clipindex>
					</link>
					<link>
						<linkclipref>00823001.MOV8</linkclipref>
						<mediatype>audio</mediatype>
						<trackindex>1</trackindex>
						<clipindex>208</clipindex>
					</link>
					<link>
						<linkclipref>00823001.MOV9</linkclipref>
						<mediatype>audio</mediatype>
						<trackindex>2</trackindex>
						<clipindex>208</clipindex>
					</link>
					<itemhistory>
						<uuid>97C3834B-4E97-4E9A-8620-BF8C870BCEEF</uuid>
					</itemhistory>
				</clipitem>
				<transitionitem>
					<rate>
						<ntsc>FALSE</ntsc>
						<timebase>25</timebase>
					</rate>
					<start>29257</start>
					<end>29264</end>
					<alignment>center</alignment>
					<effect>
						<name>Cross Fade (+3dB)</name>
						<effectid>KGAudioTransCrossFade3dB</effectid>
						<effecttype>transition</effecttype>
						<mediatype>audio</mediatype>
					</effect>
				</transitionitem>
				<clipitem id="00826001.MOV3">
					<name>00826001.MOV</name>
					<duration>1800</duration>
					<rate>
						<ntsc>FALSE</ntsc>
						<timebase>25</timebase>
					</rate>
					<in>975</in>
					<out>1118</out>
					<start>-1</start>
					<end>29400</end>
					<subframeoffset>0</subframeoffset>
					<enabled>TRUE</enabled>
					<masterclipid>00826001.MOV1</masterclipid>
					<logginginfo>
						<scene/>
						<shottake/>
						<lognote/>
						<good>FALSE</good>
					</logginginfo>
					<labels>
						<label2/>
					</labels>
					<comments>
						<mastercomment1/>
						<mastercomment2/>
						<mastercomment3/>
						<mastercomment4/>
					</comments>
					<file id="00826001 "/>
					<filter>
						<effect>
							<name>Audio Levels</name>
							<effectid>audiolevels</effectid>
							<effectcategory>audiolevels</effectcategory>
							<effecttype>audiolevels</effecttype>
							<mediatype>audio</mediatype>
							<parameter>
								<name>Level</name>
								<parameterid>level</parameterid>
								<valuemin>0</valuemin>
								<valuemax>3.98109</valuemax>
								<value>2.51189</value>
							</parameter>
						</effect>
					</filter>
					<filter>
						<effect>
							<name>Audio Pan</name>
							<effectid>audiopan</effectid>
							<effectcategory>audiopan</effectcategory>
							<effecttype>audiopan</effecttype>
							<mediatype>audio</mediatype>
							<parameter>
								<name>Pan</name>
								<parameterid>pan</parameterid>
								<valuemin>-1</valuemin>
								<valuemax>1</valuemax>
								<value>0</value>
							</parameter>
						</effect>
					</filter>
					<sourcetrack>
						<mediatype>audio</mediatype>
						<trackindex>2</trackindex>
					</sourcetrack>
					<link>
						<linkclipref>00826001.MOV</linkclipref>
						<mediatype>video</mediatype>
						<trackindex>1</trackindex>
						<clipindex>248</clipindex>
					</link>
					<link>
						<linkclipref>00826001.MOV2</linkclipref>
						<mediatype>audio</mediatype>
						<trackindex>1</trackindex>
						<clipindex>210</clipindex>
					</link>
					<link>
						<linkclipref>00826001.MOV3</linkclipref>
						<mediatype>audio</mediatype>
						<trackindex>2</trackindex>
						<clipindex>210</clipindex>
					</link>
					<itemhistory>
						<uuid>2C1788D7-275D-4E2B-95AF-36C6664FFD30</uuid>
					</itemhistory>
				</clipitem>
				<clipitem id="00824001.MOV3">
					<name>00824001.MOV</name>
					<duration>2328</duration>
					<rate>
						<ntsc>FALSE</ntsc>
						<timebase>25</timebase>
					</rate>
					<in>1372</in>
					<out>1444</out>
					<start>29400</start>
					<end>29472</end>
					<subframeoffset>0</subframeoffset>
					<enabled>TRUE</enabled>
					<masterclipid>00824001.MOV1</masterclipid>
					<logginginfo>
						<scene/>
						<shottake/>
						<lognote/>
						<good>FALSE</good>
					</logginginfo>
					<labels>
						<label2/>
					</labels>
					<comments>
						<mastercomment1/>
						<mastercomment2/>
						<mastercomment3/>
						<mastercomment4/>
					</comments>
					<file id="00824001 "/>
					<filter>
						<effect>
							<name>Audio Levels</name>
							<effectid>audiolevels</effectid>
							<effectcategory>audiolevels</effectcategory>
							<effecttype>audiolevels</effecttype>
							<mediatype>audio</mediatype>
							<parameter>
								<name>Level</name>
								<parameterid>level</parameterid>
								<valuemin>0</valuemin>
								<valuemax>3.98109</valuemax>
								<value>2.51189</value>
							</parameter>
						</effect>
					</filter>
					<filter>
						<effect>
							<name>Audio Pan</name>
							<effectid>audiopan</effectid>
							<effectcategory>audiopan</effectcategory>
							<effecttype>audiopan</effecttype>
							<mediatype>audio</mediatype>
							<parameter>
								<name>Pan</name>
								<parameterid>pan</parameterid>
								<valuemin>-1</valuemin>
								<valuemax>1</valuemax>
								<value>0</value>
							</parameter>
						</effect>
					</filter>
					<sourcetrack>
						<mediatype>audio</mediatype>
						<trackindex>2</trackindex>
					</sourcetrack>
					<link>
						<linkclipref>00824001.MOV</linkclipref>
						<mediatype>video</mediatype>
						<trackindex>1</trackindex>
						<clipindex>249</clipindex>
					</link>
					<link>
						<linkclipref>00824001.MOV2</linkclipref>
						<mediatype>audio</mediatype>
						<trackindex>1</trackindex>
						<clipindex>211</clipindex>
					</link>
					<link>
						<linkclipref>00824001.MOV3</linkclipref>
						<mediatype>audio</mediatype>
						<trackindex>2</trackindex>
						<clipindex>211</clipindex>
					</link>
					<itemhistory>
						<uuid>ECFD8669-6672-47F9-9AD8-5A55F2D6E64E</uuid>
					</itemhistory>
				</clipitem>
				<clipitem id="00827001.MOV3">
					<name>00827001.MOV</name>
					<duration>1680</duration>
					<rate>
						<ntsc>FALSE</ntsc>
						<timebase>25</timebase>
					</rate>
					<in>1050</in>
					<out>1100</out>
					<start>29472</start>
					<end>29522</end>
					<subframeoffset>0</subframeoffset>
					<enabled>TRUE</enabled>
					<masterclipid>00827001.MOV1</masterclipid>
					<logginginfo>
						<scene/>
						<shottake/>
						<lognote/>
						<good>FALSE</good>
					</logginginfo>
					<labels>
						<label2/>
					</labels>
					<comments>
						<mastercomment1/>
						<mastercomment2/>
						<mastercomment3/>
						<mastercomment4/>
					</comments>
					<file id="00827001 "/>
					<filter>
						<effect>
							<name>Audio Levels</name>
							<effectid>audiolevels</effectid>
							<effectcategory>audiolevels</effectcategory>
							<effecttype>audiolevels</effecttype>
							<mediatype>audio</mediatype>
							<parameter>
								<name>Level</name>
								<parameterid>level</parameterid>
								<valuemin>0</valuemin>
								<valuemax>3.98109</valuemax>
								<value>2.51189</value>
							</parameter>
						</effect>
					</filter>
					<filter>
						<effect>
							<name>Audio Pan</name>
							<effectid>audiopan</effectid>
							<effectcategory>audiopan</effectcategory>
							<effecttype>audiopan</effecttype>
							<mediatype>audio</mediatype>
							<parameter>
								<name>Pan</name>
								<parameterid>pan</parameterid>
								<valuemin>-1</valuemin>
								<valuemax>1</valuemax>
								<value>0</value>
							</parameter>
						</effect>
					</filter>
					<sourcetrack>
						<mediatype>audio</mediatype>
						<trackindex>2</trackindex>
					</sourcetrack>
					<link>
						<linkclipref>00827001.MOV</linkclipref>
						<mediatype>video</mediatype>
						<trackindex>1</trackindex>
						<clipindex>250</clipindex>
					</link>
					<link>
						<linkclipref>00827001.MOV2</linkclipref>
						<mediatype>audio</mediatype>
						<trackindex>1</trackindex>
						<clipindex>212</clipindex>
					</link>
					<link>
						<linkclipref>00827001.MOV3</linkclipref>
						<mediatype>audio</mediatype>
						<trackindex>2</trackindex>
						<clipindex>212</clipindex>
					</link>
					<itemhistory>
						<uuid>FD527E04-73D2-4899-B094-CBE8FA75295F</uuid>
					</itemhistory>
				</clipitem>
				<clipitem id="00824001.MOV6">
					<name>00824001.MOV</name>
					<duration>2328</duration>
					<rate>
						<ntsc>FALSE</ntsc>
						<timebase>25</timebase>
					</rate>
					<in>1464</in>
					<out>1555</out>
					<start>29522</start>
					<end>-1</end>
					<subframeoffset>0</subframeoffset>
					<masterclipid>00824001.MOV1</masterclipid>
					<logginginfo>
						<scene/>
						<shottake/>
						<lognote/>
						<good>FALSE</good>
					</logginginfo>
					<labels>
						<label2/>
					</labels>
					<comments>
						<mastercomment1/>
						<mastercomment2/>
						<mastercomment3/>
						<mastercomment4/>
					</comments>
					<file id="00824001 "/>
					<filter>
						<effect>
							<name>Audio Levels</name>
							<effectid>audiolevels</effectid>
							<effectcategory>audiolevels</effectcategory>
							<effecttype>audiolevels</effecttype>
							<mediatype>audio</mediatype>
							<parameter>
								<name>Level</name>
								<parameterid>level</parameterid>
								<valuemin>0</valuemin>
								<valuemax>3.98109</valuemax>
								<keyframe>
									<when>1486</when>
									<value>0</value>
								</keyframe>
								<keyframe>
									<when>1494.57</when>
									<value>2.23872</value>
								</keyframe>
								<interpolation>
									<name>FCPCurve</name>
								</interpolation>
								<value>1</value>
							</parameter>
						</effect>
					</filter>
					<filter>
						<effect>
							<name>Audio Pan</name>
							<effectid>audiopan</effectid>
							<effectcategory>audiopan</effectcategory>
							<effecttype>audiopan</effecttype>
							<mediatype>audio</mediatype>
							<parameter>
								<name>Pan</name>
								<parameterid>pan</parameterid>
								<valuemin>-1</valuemin>
								<valuemax>1</valuemax>
								<value>0</value>
							</parameter>
						</effect>
					</filter>
					<sourcetrack>
						<mediatype>audio</mediatype>
						<trackindex>2</trackindex>
					</sourcetrack>
					<link>
						<linkclipref>00824001.MOV4</linkclipref>
						<mediatype>video</mediatype>
						<trackindex>1</trackindex>
						<clipindex>251</clipindex>
					</link>
					<link>
						<linkclipref>00824001.MOV5</linkclipref>
						<mediatype>audio</mediatype>
						<trackindex>1</trackindex>
						<clipindex>213</clipindex>
					</link>
					<link>
						<linkclipref>00824001.MOV6</linkclipref>
						<mediatype>audio</mediatype>
						<trackindex>2</trackindex>
						<clipindex>213</clipindex>
					</link>
					<itemhistory>
						<uuid>1B06DAB4-FF74-45BB-9240-93FF11C09D74</uuid>
					</itemhistory>
				</clipitem>
				<transitionitem>
					<rate>
						<ntsc>FALSE</ntsc>
						<timebase>25</timebase>
					</rate>
					<start>29611</start>
					<end>29613</end>
					<alignment>center</alignment>
					<effect>
						<name>Cross Fade (+3dB)</name>
						<effectid>KGAudioTransCrossFade3dB</effectid>
						<effecttype>transition</effecttype>
						<mediatype>audio</mediatype>
					</effect>
				</transitionitem>
				<clipitem id="00827001.MOV6">
					<name>00827001.MOV</name>
					<duration>1680</duration>
					<rate>
						<ntsc>FALSE</ntsc>
						<timebase>25</timebase>
					</rate>
					<in>1111</in>
					<out>1198</out>
					<start>-1</start>
					<end>29698</end>
					<subframeoffset>0</subframeoffset>
					<enabled>TRUE</enabled>
					<masterclipid>00827001.MOV1</masterclipid>
					<logginginfo>
						<scene/>
						<shottake/>
						<lognote/>
						<good>FALSE</good>
					</logginginfo>
					<labels>
						<label2/>
					</labels>
					<comments>
						<mastercomment1/>
						<mastercomment2/>
						<mastercomment3/>
						<mastercomment4/>
					</comments>
					<file id="00827001 "/>
					<filter>
						<effect>
							<name>Audio Levels</name>
							<effectid>audiolevels</effectid>
							<effectcategory>audiolevels</effectcategory>
							<effecttype>audiolevels</effecttype>
							<mediatype>audio</mediatype>
							<parameter>
								<name>Level</name>
								<parameterid>level</parameterid>
								<valuemin>0</valuemin>
								<valuemax>3.98109</valuemax>
								<value>2.51189</value>
							</parameter>
						</effect>
					</filter>
					<filter>
						<effect>
							<name>Audio Pan</name>
							<effectid>audiopan</effectid>
							<effectcategory>audiopan</effectcategory>
							<effecttype>audiopan</effecttype>
							<mediatype>audio</mediatype>
							<parameter>
								<name>Pan</name>
								<parameterid>pan</parameterid>
								<valuemin>-1</valuemin>
								<valuemax>1</valuemax>
								<value>0</value>
							</parameter>
						</effect>
					</filter>
					<sourcetrack>
						<mediatype>audio</mediatype>
						<trackindex>2</trackindex>
					</sourcetrack>
					<link>
						<linkclipref>00827001.MOV4</linkclipref>
						<mediatype>video</mediatype>
						<trackindex>1</trackindex>
						<clipindex>252</clipindex>
					</link>
					<link>
						<linkclipref>00827001.MOV5</linkclipref>
						<mediatype>audio</mediatype>
						<trackindex>1</trackindex>
						<clipindex>215</clipindex>
					</link>
					<link>
						<linkclipref>00827001.MOV6</linkclipref>
						<mediatype>audio</mediatype>
						<trackindex>2</trackindex>
						<clipindex>215</clipindex>
					</link>
					<itemhistory>
						<uuid>7B3ED554-57DE-49E7-98CE-970BF093C444</uuid>
					</itemhistory>
				</clipitem>
				<clipitem id="00824001.MOV9">
					<name>00824001.MOV</name>
					<duration>2328</duration>
					<rate>
						<ntsc>FALSE</ntsc>
						<timebase>25</timebase>
					</rate>
					<in>1675</in>
					<out>1720</out>
					<start>29698</start>
					<end>-1</end>
					<subframeoffset>0</subframeoffset>
					<enabled>TRUE</enabled>
					<masterclipid>00824001.MOV1</masterclipid>
					<logginginfo>
						<scene/>
						<shottake/>
						<lognote/>
						<good>FALSE</good>
					</logginginfo>
					<labels>
						<label2/>
					</labels>
					<comments>
						<mastercomment1/>
						<mastercomment2/>
						<mastercomment3/>
						<mastercomment4/>
					</comments>
					<file id="00824001 "/>
					<filter>
						<effect>
							<name>Audio Levels</name>
							<effectid>audiolevels</effectid>
							<effectcategory>audiolevels</effectcategory>
							<effecttype>audiolevels</effecttype>
							<mediatype>audio</mediatype>
							<parameter>
								<name>Level</name>
								<parameterid>level</parameterid>
								<valuemin>0</valuemin>
								<valuemax>3.98109</valuemax>
								<keyframe>
									<when>1486</when>
									<value>0</value>
								</keyframe>
								<keyframe>
									<when>1494.57</when>
									<value>2.51189</value>
								</keyframe>
								<interpolation>
									<name>FCPCurve</name>
								</interpolation>
								<value>1</value>
							</parameter>
						</effect>
					</filter>
					<filter>
						<effect>
							<name>Audio Pan</name>
							<effectid>audiopan</effectid>
							<effectcategory>audiopan</effectcategory>
							<effecttype>audiopan</effecttype>
							<mediatype>audio</mediatype>
							<parameter>
								<name>Pan</name>
								<parameterid>pan</parameterid>
								<valuemin>-1</valuemin>
								<valuemax>1</valuemax>
								<value>0</value>
							</parameter>
						</effect>
					</filter>
					<sourcetrack>
						<mediatype>audio</mediatype>
						<trackindex>2</trackindex>
					</sourcetrack>
					<link>
						<linkclipref>00824001.MOV7</linkclipref>
						<mediatype>video</mediatype>
						<trackindex>1</trackindex>
						<clipindex>255</clipindex>
					</link>
					<link>
						<linkclipref>00824001.MOV8</linkclipref>
						<mediatype>audio</mediatype>
						<trackindex>1</trackindex>
						<clipindex>216</clipindex>
					</link>
					<link>
						<linkclipref>00824001.MOV9</linkclipref>
						<mediatype>audio</mediatype>
						<trackindex>2</trackindex>
						<clipindex>216</clipindex>
					</link>
					<itemhistory>
						<uuid>8E0BFF27-46E3-4DDE-A634-0C2F3113ABC9</uuid>
					</itemhistory>
				</clipitem>
				<transitionitem>
					<rate>
						<ntsc>FALSE</ntsc>
						<timebase>25</timebase>
					</rate>
					<start>29741</start>
					<end>29743</end>
					<alignment>center</alignment>
					<effect>
						<name>Cross Fade (+3dB)</name>
						<effectid>KGAudioTransCrossFade3dB</effectid>
						<effecttype>transition</effecttype>
						<mediatype>audio</mediatype>
					</effect>
				</transitionitem>
				<clipitem id="00827001.MOV10">
					<name>00827001.MOV</name>
					<duration>1680</duration>
					<rate>
						<ntsc>FALSE</ntsc>
						<timebase>25</timebase>
					</rate>
					<in>1197</in>
					<out>1319</out>
					<start>-1</start>
					<end>29863</end>
					<subframeoffset>0</subframeoffset>
					<enabled>TRUE</enabled>
					<masterclipid>00827001.MOV1</masterclipid>
					<logginginfo>
						<scene/>
						<shottake/>
						<lognote/>
						<good>FALSE</good>
					</logginginfo>
					<labels>
						<label2/>
					</labels>
					<comments>
						<mastercomment1/>
						<mastercomment2/>
						<mastercomment3/>
						<mastercomment4/>
					</comments>
					<file id="00827001 "/>
					<filter>
						<effect>
							<name>Audio Levels</name>
							<effectid>audiolevels</effectid>
							<effectcategory>audiolevels</effectcategory>
							<effecttype>audiolevels</effecttype>
							<mediatype>audio</mediatype>
							<parameter>
								<name>Level</name>
								<parameterid>level</parameterid>
								<valuemin>0</valuemin>
								<valuemax>3.98109</valuemax>
								<value>2.23872</value>
							</parameter>
						</effect>
					</filter>
					<filter>
						<effect>
							<name>Audio Pan</name>
							<effectid>audiopan</effectid>
							<effectcategory>audiopan</effectcategory>
							<effecttype>audiopan</effecttype>
							<mediatype>audio</mediatype>
							<parameter>
								<name>Pan</name>
								<parameterid>pan</parameterid>
								<valuemin>-1</valuemin>
								<valuemax>1</valuemax>
								<value>0</value>
							</parameter>
						</effect>
					</filter>
					<sourcetrack>
						<mediatype>audio</mediatype>
						<trackindex>2</trackindex>
					</sourcetrack>
					<link>
						<linkclipref>00827001.MOV8</linkclipref>
						<mediatype>video</mediatype>
						<trackindex>1</trackindex>
						<clipindex>256</clipindex>
					</link>
					<link>
						<linkclipref>00827001.MOV9</linkclipref>
						<mediatype>audio</mediatype>
						<trackindex>1</trackindex>
						<clipindex>218</clipindex>
					</link>
					<link>
						<linkclipref>00827001.MOV10</linkclipref>
						<mediatype>audio</mediatype>
						<trackindex>2</trackindex>
						<clipindex>218</clipindex>
					</link>
					<itemhistory>
						<uuid>A953AECD-9CE7-4585-9135-3A641D3F2094</uuid>
					</itemhistory>
				</clipitem>
				<clipitem id="00821001.MOV14">
					<name>00821001.MOV</name>
					<duration>3420</duration>
					<rate>
						<ntsc>FALSE</ntsc>
						<timebase>25</timebase>
					</rate>
					<in>2587</in>
					<out>3382</out>
					<start>29863</start>
					<end>-1</end>
					<subframeoffset>0</subframeoffset>
					<enabled>TRUE</enabled>
					<masterclipid>00821001.MOV1</masterclipid>
					<logginginfo>
						<scene/>
						<shottake/>
						<lognote/>
						<good>FALSE</good>
					</logginginfo>
					<labels>
						<label2/>
					</labels>
					<comments>
						<mastercomment1/>
						<mastercomment2/>
						<mastercomment3/>
						<mastercomment4/>
					</comments>
					<file id="00821001 "/>
					<filter>
						<effect>
							<name>Audio Levels</name>
							<effectid>audiolevels</effectid>
							<effectcategory>audiolevels</effectcategory>
							<effecttype>audiolevels</effecttype>
							<mediatype>audio</mediatype>
							<parameter>
								<name>Level</name>
								<parameterid>level</parameterid>
								<valuemin>0</valuemin>
								<valuemax>3.98109</valuemax>
								<value>2.23872</value>
							</parameter>
						</effect>
					</filter>
					<filter>
						<effect>
							<name>Audio Pan</name>
							<effectid>audiopan</effectid>
							<effectcategory>audiopan</effectcategory>
							<effecttype>audiopan</effecttype>
							<mediatype>audio</mediatype>
							<parameter>
								<name>Pan</name>
								<parameterid>pan</parameterid>
								<valuemin>-1</valuemin>
								<valuemax>1</valuemax>
								<value>0</value>
							</parameter>
						</effect>
					</filter>
					<sourcetrack>
						<mediatype>audio</mediatype>
						<trackindex>2</trackindex>
					</sourcetrack>
					<link>
						<linkclipref>00821001.MOV13</linkclipref>
						<mediatype>audio</mediatype>
						<trackindex>1</trackindex>
						<clipindex>219</clipindex>
					</link>
					<link>
						<linkclipref>00821001.MOV14</linkclipref>
						<mediatype>audio</mediatype>
						<trackindex>2</trackindex>
						<clipindex>219</clipindex>
					</link>
					<itemhistory>
						<uuid>66407945-56FE-4F3D-8426-928694035A04</uuid>
					</itemhistory>
				</clipitem>
				<transitionitem>
					<rate>
						<ntsc>FALSE</ntsc>
						<timebase>25</timebase>
					</rate>
					<start>30633</start>
					<end>30658</end>
					<alignment>end-black</alignment>
					<effect>
						<name>Cross Fade (+3dB)</name>
						<effectid>KGAudioTransCrossFade3dB</effectid>
						<effecttype>transition</effecttype>
						<mediatype>audio</mediatype>
					</effect>
				</transitionitem>
				<enabled>TRUE</enabled>
				<locked>FALSE</locked>
				<outputchannelindex>2</outputchannelindex>
			</track>
			<track>
				<clipitem id="Vignett Ferdigmiks.wav">
					<name>Vignett Ferdigmiks.wav</name>
					<duration>1604</duration>
					<rate>
						<ntsc>FALSE</ntsc>
						<timebase>25</timebase>
					</rate>
					<in>0</in>
					<out>916</out>
					<start>0</start>
					<end>916</end>
					<masterclipid>Vignett Ferdigmiks.wav1</masterclipid>
					<logginginfo>
						<scene/>
						<shottake/>
						<lognote/>
						<good>FALSE</good>
					</logginginfo>
					<labels>
						<label2/>
					</labels>
					<comments>
						<mastercomment1/>
						<mastercomment2/>
						<mastercomment3/>
						<mastercomment4/>
					</comments>
					<file id="Vignett Ferdigmiks">
						<name>Vignett Ferdigmiks.wav</name>
						<pathurl>file://localhost/Volumes/Askepott/Prosjekter/DNPR637010_Kra%CC%8Akeklubben_TEM_011212/Grafikk/MASTERE%20GRAFIKK/Vignett%20Ferdigmiks.wav</pathurl>
						<rate>
							<timebase>25</timebase>
						</rate>
						<duration>1604</duration>
						<timecode>
							<rate>
								<timebase>25</timebase>
							</rate>
							<string>00:07:20:04</string>
							<frame>11004</frame>
							<displayformat>NDF</displayformat>
							<source>source</source>
						</timecode>
						<media>
							<audio>
								<samplecharacteristics>
									<samplerate>48000</samplerate>
									<depth>24</depth>
								</samplecharacteristics>
								<channelcount>2</channelcount>
							</audio>
						</media>
					</file>
					<filter>
						<effect>
							<name>Audio Levels</name>
							<effectid>audiolevels</effectid>
							<effectcategory>audiolevels</effectcategory>
							<effecttype>audiolevels</effecttype>
							<mediatype>audio</mediatype>
							<parameter>
								<name>Level</name>
								<parameterid>level</parameterid>
								<valuemin>0</valuemin>
								<valuemax>3.98109</valuemax>
								<value>1</value>
							</parameter>
						</effect>
					</filter>
					<filter>
						<effect>
							<name>Audio Pan</name>
							<effectid>audiopan</effectid>
							<effectcategory>audiopan</effectcategory>
							<effecttype>audiopan</effecttype>
							<mediatype>audio</mediatype>
							<parameter>
								<name>Pan</name>
								<parameterid>pan</parameterid>
								<valuemin>-1</valuemin>
								<valuemax>1</valuemax>
								<value>-1</value>
							</parameter>
						</effect>
					</filter>
					<sourcetrack>
						<mediatype>audio</mediatype>
						<trackindex>1</trackindex>
					</sourcetrack>
					<link>
						<linkclipref>Vignett Ferdigmiks.wav</linkclipref>
						<mediatype>audio</mediatype>
						<trackindex>3</trackindex>
						<clipindex>1</clipindex>
						<groupindex>1</groupindex>
					</link>
					<link>
						<linkclipref>Vignett Ferdigmiks.wav2</linkclipref>
						<mediatype>audio</mediatype>
						<trackindex>4</trackindex>
						<clipindex>1</clipindex>
						<groupindex>1</groupindex>
					</link>
					<itemhistory>
						<uuid>3971E741-F3E6-4148-8CD1-82C8D0C84B31</uuid>
					</itemhistory>
				</clipitem>
				<clipitem id="Cartoon Timpani.caf">
					<name>Cartoon Timpani.caf</name>
					<duration>41</duration>
					<rate>
						<ntsc>FALSE</ntsc>
						<timebase>25</timebase>
					</rate>
					<in>0</in>
					<out>41</out>
					<start>1620</start>
					<end>-1</end>
					<subframeoffset>0</subframeoffset>
					<masterclipid>Cartoon Timpani.caf1</masterclipid>
					<logginginfo>
						<scene/>
						<shottake/>
						<lognote/>
						<good>FALSE</good>
					</logginginfo>
					<labels>
						<label2/>
					</labels>
					<comments>
						<mastercomment1/>
						<mastercomment2/>
						<mastercomment3/>
						<mastercomment4/>
					</comments>
					<file id="Cartoon Timpani">
						<name>Cartoon Timpani.caf</name>
						<pathurl>file://localhost/Volumes/Askepott/Prosjekter/DNPR637010_Kra%CC%8Akeklubben_TEM_011212/MUSIKK/NATURLEK/Cartoon%20Timpani.caf</pathurl>
						<rate>
							<timebase>25</timebase>
						</rate>
						<duration>41</duration>
						<media>
							<audio>
								<samplecharacteristics>
									<samplerate>44100</samplerate>
									<depth>32</depth>
								</samplecharacteristics>
								<channelcount>2</channelcount>
							</audio>
						</media>
					</file>
					<filter>
						<effect>
							<name>Audio Levels</name>
							<effectid>audiolevels</effectid>
							<effectcategory>audiolevels</effectcategory>
							<effecttype>audiolevels</effecttype>
							<mediatype>audio</mediatype>
							<parameter>
								<name>Level</name>
								<parameterid>level</parameterid>
								<valuemin>0</valuemin>
								<valuemax>3.98109</valuemax>
								<keyframe>
									<when>29.8571</when>
									<value>0</value>
								</keyframe>
								<keyframe>
									<when>38.7143</when>
									<value>0.446684</value>
								</keyframe>
								<interpolation>
									<name>FCPCurve</name>
								</interpolation>
								<value>1</value>
							</parameter>
						</effect>
					</filter>
					<filter>
						<effect>
							<name>Audio Pan</name>
							<effectid>audiopan</effectid>
							<effectcategory>audiopan</effectcategory>
							<effecttype>audiopan</effecttype>
							<mediatype>audio</mediatype>
							<parameter>
								<name>Pan</name>
								<parameterid>pan</parameterid>
								<valuemin>-1</valuemin>
								<valuemax>1</valuemax>
								<value>-1</value>
							</parameter>
						</effect>
					</filter>
					<sourcetrack>
						<mediatype>audio</mediatype>
						<trackindex>1</trackindex>
					</sourcetrack>
					<link>
						<linkclipref>Cartoon Timpani.caf</linkclipref>
						<mediatype>audio</mediatype>
						<trackindex>3</trackindex>
						<clipindex>2</clipindex>
						<groupindex>1</groupindex>
					</link>
					<link>
						<linkclipref>Cartoon Timpani.caf2</linkclipref>
						<mediatype>audio</mediatype>
						<trackindex>4</trackindex>
						<clipindex>2</clipindex>
						<groupindex>1</groupindex>
					</link>
					<itemhistory>
						<uuid>7EBDD293-2195-4B3D-A274-A0525ABF465A</uuid>
					</itemhistory>
					<filter>
						<effect>
							<name>Time Remap</name>
							<effectid>timeremap</effectid>
							<effectcategory>motion</effectcategory>
							<effecttype>motion</effecttype>
							<mediatype>audio</mediatype>
							<parameter>
								<parameterid>variablespeed</parameterid>
								<name>variablespeed</name>
								<valuemin>0</valuemin>
								<valuemax>1</valuemax>
								<value>0</value>
							</parameter>
							<parameter>
								<parameterid>mappedduration</parameterid>
								<name>mappedduration</name>
								<value>
									<timecode>
										<rate>
											<timebase>0</timebase>
										</rate>
										<string>0</string>
										<frame>0</frame>
										<displayformat>NDF</displayformat>
									</timecode>
								</value>
							</parameter>
							<parameter>
								<parameterid>speed</parameterid>
								<name>speed</name>
								<valuemin>-10000</valuemin>
								<valuemax>10000</valuemax>
								<value>100</value>
							</parameter>
							<parameter>
								<parameterid>reverse</parameterid>
								<name>reverse</name>
								<value>TRUE</value>
							</parameter>
							<parameter>
								<parameterid>frameblending</parameterid>
								<name>frameblending</name>
								<value>TRUE</value>
							</parameter>
							<parameter>
								<parameterid>graphdict</parameterid>
								<name>graphdict</name>
								<valuemin>0</valuemin>
								<valuemax>40</valuemax>
								<keyframe>
									<when>0</when>
									<value>42</value>
									<speedkfin>TRUE</speedkfin>
								</keyframe>
								<keyframe>
									<when>41</when>
									<value>1</value>
									<speedkfout>TRUE</speedkfout>
									<speedvirtualkf>TRUE</speedvirtualkf>
								</keyframe>
								<interpolation>
									<name>FCPCurve</name>
								</interpolation>
								<value>40</value>
							</parameter>
						</effect>
					</filter>
				</clipitem>
				<transitionitem>
					<rate>
						<ntsc>FALSE</ntsc>
						<timebase>25</timebase>
					</rate>
					<start>1659</start>
					<end>1661</end>
					<alignment>center</alignment>
					<effect>
						<name>Cross Fade (+3dB)</name>
						<effectid>KGAudioTransCrossFade3dB</effectid>
						<effecttype>transition</effecttype>
						<mediatype>audio</mediatype>
					</effect>
				</transitionitem>
				<clipitem id="Cartoon Timpani.caf3">
					<name>Cartoon Timpani.caf</name>
					<duration>41</duration>
					<rate>
						<ntsc>FALSE</ntsc>
						<timebase>25</timebase>
					</rate>
					<in>0</in>
					<out>41</out>
					<start>-1</start>
					<end>1700</end>
					<subframeoffset>0</subframeoffset>
					<masterclipid>Cartoon Timpani.caf1</masterclipid>
					<logginginfo>
						<scene/>
						<shottake/>
						<lognote/>
						<good>FALSE</good>
					</logginginfo>
					<labels>
						<label2/>
					</labels>
					<comments>
						<mastercomment1/>
						<mastercomment2/>
						<mastercomment3/>
						<mastercomment4/>
					</comments>
					<file id="Cartoon Timpani"/>
					<filter>
						<effect>
							<name>Audio Levels</name>
							<effectid>audiolevels</effectid>
							<effectcategory>audiolevels</effectcategory>
							<effecttype>audiolevels</effecttype>
							<mediatype>audio</mediatype>
							<parameter>
								<name>Level</name>
								<parameterid>level</parameterid>
								<valuemin>0</valuemin>
								<valuemax>3.98109</valuemax>
								<keyframe>
									<when>9.42857</when>
									<value>0.446684</value>
								</keyframe>
								<keyframe>
									<when>40.1429</when>
									<value>0</value>
								</keyframe>
								<interpolation>
									<name>FCPCurve</name>
								</interpolation>
								<value>0.446684</value>
							</parameter>
						</effect>
					</filter>
					<filter>
						<effect>
							<name>Audio Pan</name>
							<effectid>audiopan</effectid>
							<effectcategory>audiopan</effectcategory>
							<effecttype>audiopan</effecttype>
							<mediatype>audio</mediatype>
							<parameter>
								<name>Pan</name>
								<parameterid>pan</parameterid>
								<valuemin>-1</valuemin>
								<valuemax>1</valuemax>
								<value>-1</value>
							</parameter>
						</effect>
					</filter>
					<sourcetrack>
						<mediatype>audio</mediatype>
						<trackindex>1</trackindex>
					</sourcetrack>
					<link>
						<linkclipref>Cartoon Timpani.caf3</linkclipref>
						<mediatype>audio</mediatype>
						<trackindex>3</trackindex>
						<clipindex>4</clipindex>
						<groupindex>1</groupindex>
					</link>
					<link>
						<linkclipref>Cartoon Timpani.caf4</linkclipref>
						<mediatype>audio</mediatype>
						<trackindex>4</trackindex>
						<clipindex>4</clipindex>
						<groupindex>1</groupindex>
					</link>
					<itemhistory>
						<uuid>1433E948-FB45-42D1-BB7A-1211FFFFD7BB</uuid>
					</itemhistory>
				</clipitem>
				<clipitem id="SCD054824.wav">
					<name>SCD054824.wav</name>
					<duration>3817</duration>
					<rate>
						<ntsc>FALSE</ntsc>
						<timebase>25</timebase>
					</rate>
					<in>0</in>
					<out>127</out>
					<start>4643</start>
					<end>-1</end>
					<subframeoffset>0</subframeoffset>
					<masterclipid>SCD054824.wav1</masterclipid>
					<logginginfo>
						<scene/>
						<shottake/>
						<lognote/>
						<good>FALSE</good>
					</logginginfo>
					<labels>
						<label2/>
					</labels>
					<comments>
						<mastercomment1/>
						<mastercomment2/>
						<mastercomment3/>
						<mastercomment4/>
					</comments>
					<file id="SCD054824 ">
						<name>SCD054824.wav</name>
						<pathurl>file://localhost/Volumes/Askepott/Prosjekter/DNPR637010_Kra%CC%8Akeklubben_TEM_011212/MUSIKK/Underlag/SCD054824.wav</pathurl>
						<rate>
							<timebase>25</timebase>
						</rate>
						<duration>3817</duration>
						<media>
							<audio>
								<samplecharacteristics>
									<samplerate>48000</samplerate>
									<depth>16</depth>
								</samplecharacteristics>
								<channelcount>2</channelcount>
							</audio>
						</media>
					</file>
					<filter>
						<effect>
							<name>Audio Levels</name>
							<effectid>audiolevels</effectid>
							<effectcategory>audiolevels</effectcategory>
							<effecttype>audiolevels</effecttype>
							<mediatype>audio</mediatype>
							<parameter>
								<name>Level</name>
								<parameterid>level</parameterid>
								<valuemin>0</valuemin>
								<valuemax>3.98109</valuemax>
								<value>1</value>
							</parameter>
						</effect>
					</filter>
					<filter>
						<effect>
							<name>Audio Pan</name>
							<effectid>audiopan</effectid>
							<effectcategory>audiopan</effectcategory>
							<effecttype>audiopan</effecttype>
							<mediatype>audio</mediatype>
							<parameter>
								<name>Pan</name>
								<parameterid>pan</parameterid>
								<valuemin>-1</valuemin>
								<valuemax>1</valuemax>
								<value>-1</value>
							</parameter>
						</effect>
					</filter>
					<sourcetrack>
						<mediatype>audio</mediatype>
						<trackindex>1</trackindex>
					</sourcetrack>
					<link>
						<linkclipref>SCD054824.wav</linkclipref>
						<mediatype>audio</mediatype>
						<trackindex>3</trackindex>
						<clipindex>5</clipindex>
						<groupindex>1</groupindex>
					</link>
					<link>
						<linkclipref>SCD054824.wav2</linkclipref>
						<mediatype>audio</mediatype>
						<trackindex>4</trackindex>
						<clipindex>5</clipindex>
						<groupindex>1</groupindex>
					</link>
					<itemhistory>
						<uuid>DF79AE49-49E6-43B9-A87D-DEF272663E13</uuid>
					</itemhistory>
				</clipitem>
				<transitionitem>
					<rate>
						<ntsc>FALSE</ntsc>
						<timebase>25</timebase>
					</rate>
					<start>4769</start>
					<end>4770</end>
					<alignment>center</alignment>
					<effect>
						<name>Cross Fade (+3dB)</name>
						<effectid>KGAudioTransCrossFade3dB</effectid>
						<effecttype>transition</effecttype>
						<mediatype>audio</mediatype>
					</effect>
				</transitionitem>
				<clipitem id="SCD007902 ">
					<name>SCD007902</name>
					<duration>4700</duration>
					<rate>
						<ntsc>FALSE</ntsc>
						<timebase>25</timebase>
					</rate>
					<in>8</in>
					<out>181</out>
					<start>-1</start>
					<end>-1</end>
					<masterclipid>SCD007902 1</masterclipid>
					<logginginfo>
						<scene/>
						<shottake/>
						<lognote/>
						<good>FALSE</good>
					</logginginfo>
					<labels>
						<label2/>
					</labels>
					<comments>
						<mastercomment1/>
						<mastercomment2/>
						<mastercomment3/>
						<mastercomment4/>
					</comments>
					<file id="SCD007902 2">
						<name>SCD007902.wav</name>
						<pathurl>file://localhost/Volumes/Askepott/Prosjekter/DNPR637010_Kra%CC%8Akeklubben_TEM_011212/MUSIKK/NATURLEK/trollskog/SCD007902.wav</pathurl>
						<rate>
							<timebase>25</timebase>
						</rate>
						<duration>4700</duration>
						<media>
							<audio>
								<samplecharacteristics>
									<samplerate>48000</samplerate>
									<depth>16</depth>
								</samplecharacteristics>
								<channelcount>2</channelcount>
							</audio>
						</media>
					</file>
					<filter>
						<effect>
							<name>Audio Levels</name>
							<effectid>audiolevels</effectid>
							<effectcategory>audiolevels</effectcategory>
							<effecttype>audiolevels</effecttype>
							<mediatype>audio</mediatype>
							<parameter>
								<name>Level</name>
								<parameterid>level</parameterid>
								<valuemin>0</valuemin>
								<valuemax>3.98109</valuemax>
								<keyframe>
									<when>0</when>
									<value>3.98107</value>
								</keyframe>
								<keyframe>
									<when>69.2143</when>
									<value>0.891251</value>
								</keyframe>
								<keyframe>
									<when>85.6071</when>
									<value>0.158489</value>
								</keyframe>
								<interpolation>
									<name>FCPCurve</name>
								</interpolation>
								<value>0.281838</value>
							</parameter>
						</effect>
					</filter>
					<filter>
						<effect>
							<name>Audio Pan</name>
							<effectid>audiopan</effectid>
							<effectcategory>audiopan</effectcategory>
							<effecttype>audiopan</effecttype>
							<mediatype>audio</mediatype>
							<parameter>
								<name>Pan</name>
								<parameterid>pan</parameterid>
								<valuemin>-1</valuemin>
								<valuemax>1</valuemax>
								<value>-1</value>
							</parameter>
						</effect>
					</filter>
					<sourcetrack>
						<mediatype>audio</mediatype>
						<trackindex>1</trackindex>
					</sourcetrack>
					<link>
						<linkclipref>SCD007902 </linkclipref>
						<mediatype>audio</mediatype>
						<trackindex>3</trackindex>
						<clipindex>7</clipindex>
						<groupindex>1</groupindex>
					</link>
					<link>
						<linkclipref>SCD007902 3</linkclipref>
						<mediatype>audio</mediatype>
						<trackindex>4</trackindex>
						<clipindex>7</clipindex>
						<groupindex>1</groupindex>
					</link>
					<itemhistory>
						<uuid>30212397-F310-4D12-AE66-F6F1FF2F6729</uuid>
					</itemhistory>
				</clipitem>
				<transitionitem>
					<rate>
						<ntsc>FALSE</ntsc>
						<timebase>25</timebase>
					</rate>
					<start>4892</start>
					<end>4942</end>
					<alignment>center</alignment>
					<effect>
						<name>Cross Fade (+3dB) Copy</name>
						<effectid>KGAudioTransCrossFade3dB</effectid>
						<effecttype>transition</effecttype>
						<mediatype>audio</mediatype>
					</effect>
				</transitionitem>
				<clipitem id="SCD007902 4">
					<name>SCD007902</name>
					<duration>4700</duration>
					<rate>
						<ntsc>FALSE</ntsc>
						<timebase>25</timebase>
					</rate>
					<in>404</in>
					<out>603</out>
					<start>-1</start>
					<end>-1</end>
					<masterclipid>SCD007902 1</masterclipid>
					<logginginfo>
						<scene/>
						<shottake/>
						<lognote/>
						<good>FALSE</good>
					</logginginfo>
					<labels>
						<label2/>
					</labels>
					<comments>
						<mastercomment1/>
						<mastercomment2/>
						<mastercomment3/>
						<mastercomment4/>
					</comments>
					<file id="SCD007902 2"/>
					<filter>
						<effect>
							<name>Audio Levels</name>
							<effectid>audiolevels</effectid>
							<effectcategory>audiolevels</effectcategory>
							<effecttype>audiolevels</effecttype>
							<mediatype>audio</mediatype>
							<parameter>
								<name>Level</name>
								<parameterid>level</parameterid>
								<valuemin>0</valuemin>
								<valuemax>3.98109</valuemax>
								<keyframe>
									<when>0</when>
									<value>3.98107</value>
								</keyframe>
								<keyframe>
									<when>146.036</when>
									<value>0.281838</value>
								</keyframe>
								<interpolation>
									<name>FCPCurve</name>
								</interpolation>
								<value>0.281838</value>
							</parameter>
						</effect>
					</filter>
					<filter>
						<effect>
							<name>Audio Pan</name>
							<effectid>audiopan</effectid>
							<effectcategory>audiopan</effectcategory>
							<effecttype>audiopan</effecttype>
							<mediatype>audio</mediatype>
							<parameter>
								<name>Pan</name>
								<parameterid>pan</parameterid>
								<valuemin>-1</valuemin>
								<valuemax>1</valuemax>
								<value>-1</value>
							</parameter>
						</effect>
					</filter>
					<sourcetrack>
						<mediatype>audio</mediatype>
						<trackindex>1</trackindex>
					</sourcetrack>
					<link>
						<linkclipref>SCD007902 4</linkclipref>
						<mediatype>audio</mediatype>
						<trackindex>3</trackindex>
						<clipindex>9</clipindex>
						<groupindex>1</groupindex>
					</link>
					<link>
						<linkclipref>SCD007902 5</linkclipref>
						<mediatype>audio</mediatype>
						<trackindex>4</trackindex>
						<clipindex>9</clipindex>
						<groupindex>1</groupindex>
					</link>
					<itemhistory>
						<uuid>9BAFF72F-7295-4E71-8336-FA54AF8DF853</uuid>
					</itemhistory>
				</clipitem>
				<transitionitem>
					<rate>
						<ntsc>FALSE</ntsc>
						<timebase>25</timebase>
					</rate>
					<start>5041</start>
					<end>5091</end>
					<alignment>end-black</alignment>
					<effect>
						<name>Cross Fade (+3dB) Copy</name>
						<effectid>KGAudioTransCrossFade3dB</effectid>
						<effecttype>transition</effecttype>
						<mediatype>audio</mediatype>
					</effect>
				</transitionitem>
				<clipitem id="DYR18098_01 6">
					<name>DYR18098_01</name>
					<duration>3421</duration>
					<rate>
						<ntsc>FALSE</ntsc>
						<timebase>25</timebase>
					</rate>
					<in>1674</in>
					<out>1744</out>
					<start>7079</start>
					<end>7149</end>
					<subframeoffset>0</subframeoffset>
					<masterclipid>DYR18098_01 1</masterclipid>
					<logginginfo>
						<scene/>
						<shottake/>
						<lognote/>
						<good>FALSE</good>
					</logginginfo>
					<labels>
						<label2/>
					</labels>
					<comments>
						<mastercomment1/>
						<mastercomment2/>
						<mastercomment3/>
						<mastercomment4/>
					</comments>
					<file id="DYR18098_01 2"/>
					<filter>
						<effect>
							<name>Audio Levels</name>
							<effectid>audiolevels</effectid>
							<effectcategory>audiolevels</effectcategory>
							<effecttype>audiolevels</effecttype>
							<mediatype>audio</mediatype>
							<parameter>
								<name>Level</name>
								<parameterid>level</parameterid>
								<valuemin>0</valuemin>
								<valuemax>3.98109</valuemax>
								<value>0</value>
							</parameter>
						</effect>
					</filter>
					<filter>
						<effect>
							<name>Audio Pan</name>
							<effectid>audiopan</effectid>
							<effectcategory>audiopan</effectcategory>
							<effecttype>audiopan</effecttype>
							<mediatype>audio</mediatype>
							<parameter>
								<name>Pan</name>
								<parameterid>pan</parameterid>
								<valuemin>-1</valuemin>
								<valuemax>1</valuemax>
								<value>0</value>
							</parameter>
						</effect>
					</filter>
					<sourcetrack>
						<mediatype>audio</mediatype>
						<trackindex>1</trackindex>
					</sourcetrack>
					<link>
						<linkclipref>DYR18098_01 5</linkclipref>
						<mediatype>video</mediatype>
						<trackindex>2</trackindex>
						<clipindex>16</clipindex>
					</link>
					<link>
						<linkclipref>DYR18098_01 6</linkclipref>
						<mediatype>audio</mediatype>
						<trackindex>3</trackindex>
						<clipindex>11</clipindex>
					</link>
					<link>
						<linkclipref>DYR18098_01 7</linkclipref>
						<mediatype>audio</mediatype>
						<trackindex>4</trackindex>
						<clipindex>11</clipindex>
					</link>
					<itemhistory>
						<uuid>17FB521E-1081-4F02-9C96-D2FCBD3F8CE4</uuid>
					</itemhistory>
				</clipitem>
				<clipitem id="DYR18101_01 3">
					<name>DYR18101_01</name>
					<duration>549</duration>
					<rate>
						<ntsc>FALSE</ntsc>
						<timebase>25</timebase>
					</rate>
					<in>64</in>
					<out>132</out>
					<start>7263</start>
					<end>7331</end>
					<subframeoffset>0</subframeoffset>
					<masterclipid>DYR18101_01 1</masterclipid>
					<logginginfo>
						<scene/>
						<shottake/>
						<lognote/>
						<good>FALSE</good>
					</logginginfo>
					<labels>
						<label2/>
					</labels>
					<comments>
						<mastercomment1/>
						<mastercomment2/>
						<mastercomment3/>
						<mastercomment4/>
					</comments>
					<file id="DYR18101_01 2"/>
					<filter>
						<effect>
							<name>Audio Levels</name>
							<effectid>audiolevels</effectid>
							<effectcategory>audiolevels</effectcategory>
							<effecttype>audiolevels</effecttype>
							<mediatype>audio</mediatype>
							<parameter>
								<name>Level</name>
								<parameterid>level</parameterid>
								<valuemin>0</valuemin>
								<valuemax>3.98109</valuemax>
								<value>0</value>
							</parameter>
						</effect>
					</filter>
					<filter>
						<effect>
							<name>Audio Pan</name>
							<effectid>audiopan</effectid>
							<effectcategory>audiopan</effectcategory>
							<effecttype>audiopan</effecttype>
							<mediatype>audio</mediatype>
							<parameter>
								<name>Pan</name>
								<parameterid>pan</parameterid>
								<valuemin>-1</valuemin>
								<valuemax>1</valuemax>
								<value>0</value>
							</parameter>
						</effect>
					</filter>
					<sourcetrack>
						<mediatype>audio</mediatype>
						<trackindex>1</trackindex>
					</sourcetrack>
					<link>
						<linkclipref>DYR18101_01 </linkclipref>
						<mediatype>video</mediatype>
						<trackindex>2</trackindex>
						<clipindex>17</clipindex>
					</link>
					<link>
						<linkclipref>DYR18101_01 3</linkclipref>
						<mediatype>audio</mediatype>
						<trackindex>3</trackindex>
						<clipindex>12</clipindex>
					</link>
					<link>
						<linkclipref>DYR18101_01 4</linkclipref>
						<mediatype>audio</mediatype>
						<trackindex>4</trackindex>
						<clipindex>12</clipindex>
					</link>
					<itemhistory>
						<uuid>3F47E45E-599E-48AF-A9F9-7DA59596748B</uuid>
					</itemhistory>
				</clipitem>
				<clipitem id="DYR18121_01 7">
					<name>DYR18121_01</name>
					<duration>244</duration>
					<rate>
						<ntsc>FALSE</ntsc>
						<timebase>25</timebase>
					</rate>
					<in>200</in>
					<out>232</out>
					<start>7868</start>
					<end>7900</end>
					<subframeoffset>0</subframeoffset>
					<masterclipid>DYR18121_01 1</masterclipid>
					<logginginfo>
						<scene/>
						<shottake/>
						<lognote/>
						<good>FALSE</good>
					</logginginfo>
					<labels>
						<label2/>
					</labels>
					<comments>
						<mastercomment1/>
						<mastercomment2/>
						<mastercomment3/>
						<mastercomment4/>
					</comments>
					<file id="DYR18121_01 2"/>
					<filter>
						<effect>
							<name>Audio Levels</name>
							<effectid>audiolevels</effectid>
							<effectcategory>audiolevels</effectcategory>
							<effecttype>audiolevels</effecttype>
							<mediatype>audio</mediatype>
							<parameter>
								<name>Level</name>
								<parameterid>level</parameterid>
								<valuemin>0</valuemin>
								<valuemax>3.98109</valuemax>
								<value>1</value>
							</parameter>
						</effect>
					</filter>
					<filter>
						<effect>
							<name>Audio Pan</name>
							<effectid>audiopan</effectid>
							<effectcategory>audiopan</effectcategory>
							<effecttype>audiopan</effecttype>
							<mediatype>audio</mediatype>
							<parameter>
								<name>Pan</name>
								<parameterid>pan</parameterid>
								<valuemin>-1</valuemin>
								<valuemax>1</valuemax>
								<value>0</value>
							</parameter>
						</effect>
					</filter>
					<sourcetrack>
						<mediatype>audio</mediatype>
						<trackindex>1</trackindex>
					</sourcetrack>
					<link>
						<linkclipref>DYR18121_01 7</linkclipref>
						<mediatype>audio</mediatype>
						<trackindex>3</trackindex>
						<clipindex>13</clipindex>
					</link>
					<link>
						<linkclipref>DYR18121_01 8</linkclipref>
						<mediatype>audio</mediatype>
						<trackindex>4</trackindex>
						<clipindex>13</clipindex>
					</link>
					<itemhistory>
						<uuid>D0D504CD-7C2F-42E5-9B14-D5294759EAAE</uuid>
					</itemhistory>
				</clipitem>
				<clipitem id="DYR18064_01 5">
					<name>DYR18064_01</name>
					<duration>757</duration>
					<rate>
						<ntsc>FALSE</ntsc>
						<timebase>25</timebase>
					</rate>
					<in>495</in>
					<out>496</out>
					<start>7900</start>
					<end>7901</end>
					<subframeoffset>0</subframeoffset>
					<masterclipid>DYR18064_01 1</masterclipid>
					<logginginfo>
						<scene/>
						<shottake/>
						<lognote/>
						<good>FALSE</good>
					</logginginfo>
					<labels>
						<label2/>
					</labels>
					<comments>
						<mastercomment1/>
						<mastercomment2/>
						<mastercomment3/>
						<mastercomment4/>
					</comments>
					<file id="DYR18064_01 2"/>
					<filter>
						<effect>
							<name>Audio Levels</name>
							<effectid>audiolevels</effectid>
							<effectcategory>audiolevels</effectcategory>
							<effecttype>audiolevels</effecttype>
							<mediatype>audio</mediatype>
							<parameter>
								<name>Level</name>
								<parameterid>level</parameterid>
								<valuemin>0</valuemin>
								<valuemax>3.98109</valuemax>
								<value>1</value>
							</parameter>
						</effect>
					</filter>
					<filter>
						<effect>
							<name>Audio Pan</name>
							<effectid>audiopan</effectid>
							<effectcategory>audiopan</effectcategory>
							<effecttype>audiopan</effecttype>
							<mediatype>audio</mediatype>
							<parameter>
								<name>Pan</name>
								<parameterid>pan</parameterid>
								<valuemin>-1</valuemin>
								<valuemax>1</valuemax>
								<value>0</value>
							</parameter>
						</effect>
					</filter>
					<sourcetrack>
						<mediatype>audio</mediatype>
						<trackindex>1</trackindex>
					</sourcetrack>
					<link>
						<linkclipref>DYR18064_01 5</linkclipref>
						<mediatype>audio</mediatype>
						<trackindex>3</trackindex>
						<clipindex>14</clipindex>
					</link>
					<link>
						<linkclipref>DYR18064_01 6</linkclipref>
						<mediatype>audio</mediatype>
						<trackindex>4</trackindex>
						<clipindex>14</clipindex>
					</link>
					<itemhistory>
						<uuid>8F24E403-1E94-4310-B210-C698A6428663</uuid>
					</itemhistory>
				</clipitem>
				<clipitem id="WHOOSHLARG…WHOOSHBYFS105004 ">
					<name>WHOOSHLARG…WHOOSHBYFS105004</name>
					<duration>325</duration>
					<rate>
						<ntsc>FALSE</ntsc>
						<timebase>25</timebase>
					</rate>
					<in>41</in>
					<out>127</out>
					<start>9462</start>
					<end>9548</end>
					<enabled>TRUE</enabled>
					<masterclipid>WHOOSHLARG…WHOOSHBYFS105004 1</masterclipid>
					<logginginfo>
						<scene/>
						<shottake/>
						<lognote/>
						<good>FALSE</good>
					</logginginfo>
					<labels>
						<label2/>
					</labels>
					<comments>
						<mastercomment1/>
						<mastercomment2/>
						<mastercomment3/>
						<mastercomment4/>
					</comments>
					<file id="WHOOSHLARG…WHOOSHBYFS105004 2">
						<name>WHOOSHLARG…WHOOSHBYFS105004.WAV</name>
						<pathurl>file://localhost/Volumes/Askepott/Prosjekter/DNPR630011_Dyrevenn_sesong_6_IVS_010612/Lydeffekter/Svosj/WHOOSHLARG%E2%80%A6WHOOSHBYFS105004.WAV</pathurl>
						<rate>
							<timebase>25</timebase>
						</rate>
						<duration>82</duration>
						<timecode>
							<rate>
								<timebase>25</timebase>
							</rate>
							<string>00:00:00:00</string>
							<frame>0</frame>
							<displayformat>NDF</displayformat>
							<source>source</source>
						</timecode>
						<media>
							<audio>
								<samplecharacteristics>
									<samplerate>44100</samplerate>
									<depth>16</depth>
								</samplecharacteristics>
								<channelcount>2</channelcount>
							</audio>
						</media>
					</file>
					<filter>
						<effect>
							<name>Audio Levels</name>
							<effectid>audiolevels</effectid>
							<effectcategory>audiolevels</effectcategory>
							<effecttype>audiolevels</effecttype>
							<mediatype>audio</mediatype>
							<parameter>
								<name>Level</name>
								<parameterid>level</parameterid>
								<valuemin>0</valuemin>
								<valuemax>3.98109</valuemax>
								<value>0.630957</value>
							</parameter>
						</effect>
					</filter>
					<filter>
						<effect>
							<name>Audio Pan</name>
							<effectid>audiopan</effectid>
							<effectcategory>audiopan</effectcategory>
							<effecttype>audiopan</effecttype>
							<mediatype>audio</mediatype>
							<parameter>
								<name>Pan</name>
								<parameterid>pan</parameterid>
								<valuemin>-1</valuemin>
								<valuemax>1</valuemax>
								<value>-1</value>
							</parameter>
						</effect>
					</filter>
					<sourcetrack>
						<mediatype>audio</mediatype>
						<trackindex>1</trackindex>
					</sourcetrack>
					<link>
						<linkclipref>WHOOSHLARG…WHOOSHBYFS105004 </linkclipref>
						<mediatype>audio</mediatype>
						<trackindex>3</trackindex>
						<clipindex>15</clipindex>
						<groupindex>1</groupindex>
					</link>
					<link>
						<linkclipref>WHOOSHLARG…WHOOSHBYFS105004 3</linkclipref>
						<mediatype>audio</mediatype>
						<trackindex>4</trackindex>
						<clipindex>15</clipindex>
						<groupindex>1</groupindex>
					</link>
					<itemhistory>
						<uuid>F982CD1B-0CE7-4FD9-BAE4-8BBA82913DE6</uuid>
					</itemhistory>
					<filter>
						<effect>
							<name>Time Remap</name>
							<effectid>timeremap</effectid>
							<effectcategory>motion</effectcategory>
							<effecttype>motion</effecttype>
							<mediatype>audio</mediatype>
							<parameter>
								<parameterid>variablespeed</parameterid>
								<name>variablespeed</name>
								<valuemin>0</valuemin>
								<valuemax>1</valuemax>
								<value>0</value>
							</parameter>
							<parameter>
								<parameterid>mappedduration</parameterid>
								<name>mappedduration</name>
								<value>
									<timecode>
										<rate>
											<timebase>0</timebase>
										</rate>
										<string>0</string>
										<frame>0</frame>
										<displayformat>NDF</displayformat>
									</timecode>
								</value>
							</parameter>
							<parameter>
								<parameterid>speed</parameterid>
								<name>speed</name>
								<valuemin>-10000</valuemin>
								<valuemax>10000</valuemax>
								<value>25</value>
							</parameter>
							<parameter>
								<parameterid>reverse</parameterid>
								<name>reverse</name>
								<value>FALSE</value>
							</parameter>
							<parameter>
								<parameterid>frameblending</parameterid>
								<name>frameblending</name>
								<value>TRUE</value>
							</parameter>
							<parameter>
								<parameterid>graphdict</parameterid>
								<name>graphdict</name>
								<valuemin>0</valuemin>
								<valuemax>81</valuemax>
								<keyframe>
									<when>0</when>
									<value>0</value>
									<speedkfstart>TRUE</speedkfstart>
									<speedvirtualkf>TRUE</speedvirtualkf>
								</keyframe>
								<keyframe>
									<when>41</when>
									<value>10.25</value>
									<speedkfin>TRUE</speedkfin>
									<speedvirtualkf>TRUE</speedvirtualkf>
								</keyframe>
								<keyframe>
									<when>127</when>
									<value>31.75</value>
									<speedkfout>TRUE</speedkfout>
									<speedvirtualkf>TRUE</speedvirtualkf>
								</keyframe>
								<keyframe>
									<when>325</when>
									<value>82</value>
									<speedkfend>TRUE</speedkfend>
									<speedvirtualkf>TRUE</speedvirtualkf>
								</keyframe>
								<interpolation>
									<name>FCPCurve</name>
								</interpolation>
								<value>10.25</value>
							</parameter>
						</effect>
					</filter>
				</clipitem>
				<clipitem id="WHOOSHLARG…WHOOSHBYFS105302.WAV">
					<name>WHOOSHLARG…WHOOSHBYFS105302.WAV</name>
					<duration>183</duration>
					<rate>
						<ntsc>FALSE</ntsc>
						<timebase>25</timebase>
					</rate>
					<in>0</in>
					<out>82</out>
					<start>10271</start>
					<end>10353</end>
					<subframeoffset>0</subframeoffset>
					<masterclipid>WHOOSHLARG…WHOOSHBYFS105302.WAV1</masterclipid>
					<logginginfo>
						<scene/>
						<shottake/>
						<lognote/>
						<good>FALSE</good>
					</logginginfo>
					<labels>
						<label2/>
					</labels>
					<comments>
						<mastercomment1/>
						<mastercomment2/>
						<mastercomment3/>
						<mastercomment4/>
					</comments>
					<file id="WHOOSHLARG…WHOOSHBYFS105302 ">
						<name>WHOOSHLARG…WHOOSHBYFS105302.WAV</name>
						<pathurl>file://localhost/Volumes/Askepott/Prosjekter/DNPR630011_Dyrevenn_sesong_6_IVS_010612/Lydeffekter/Svosj/WHOOSHLARG%E2%80%A6WHOOSHBYFS105302.WAV</pathurl>
						<rate>
							<timebase>25</timebase>
						</rate>
						<duration>92</duration>
						<timecode>
							<rate>
								<timebase>25</timebase>
							</rate>
							<string>00:00:00:00</string>
							<frame>0</frame>
							<displayformat>NDF</displayformat>
							<source>source</source>
						</timecode>
						<media>
							<audio>
								<samplecharacteristics>
									<samplerate>44100</samplerate>
									<depth>16</depth>
								</samplecharacteristics>
								<channelcount>2</channelcount>
							</audio>
						</media>
					</file>
					<filter>
						<effect>
							<name>Audio Levels</name>
							<effectid>audiolevels</effectid>
							<effectcategory>audiolevels</effectcategory>
							<effecttype>audiolevels</effecttype>
							<mediatype>audio</mediatype>
							<parameter>
								<name>Level</name>
								<parameterid>level</parameterid>
								<valuemin>0</valuemin>
								<valuemax>3.98109</valuemax>
								<value>0.251189</value>
							</parameter>
						</effect>
					</filter>
					<filter>
						<effect>
							<name>Audio Pan</name>
							<effectid>audiopan</effectid>
							<effectcategory>audiopan</effectcategory>
							<effecttype>audiopan</effecttype>
							<mediatype>audio</mediatype>
							<parameter>
								<name>Pan</name>
								<parameterid>pan</parameterid>
								<valuemin>-1</valuemin>
								<valuemax>1</valuemax>
								<value>-1</value>
							</parameter>
						</effect>
					</filter>
					<sourcetrack>
						<mediatype>audio</mediatype>
						<trackindex>1</trackindex>
					</sourcetrack>
					<link>
						<linkclipref>WHOOSHLARG…WHOOSHBYFS105302.WAV</linkclipref>
						<mediatype>audio</mediatype>
						<trackindex>3</trackindex>
						<clipindex>16</clipindex>
						<groupindex>1</groupindex>
					</link>
					<link>
						<linkclipref>WHOOSHLARG…WHOOSHBYFS105302.WAV2</linkclipref>
						<mediatype>audio</mediatype>
						<trackindex>4</trackindex>
						<clipindex>16</clipindex>
						<groupindex>1</groupindex>
					</link>
					<itemhistory>
						<uuid>301CDA3A-FFC8-4FD2-82AD-68A0F0B1C07D</uuid>
					</itemhistory>
					<filter>
						<effect>
							<name>Time Remap</name>
							<effectid>timeremap</effectid>
							<effectcategory>motion</effectcategory>
							<effecttype>motion</effecttype>
							<mediatype>audio</mediatype>
							<parameter>
								<parameterid>variablespeed</parameterid>
								<name>variablespeed</name>
								<valuemin>0</valuemin>
								<valuemax>1</valuemax>
								<value>0</value>
							</parameter>
							<parameter>
								<parameterid>mappedduration</parameterid>
								<name>mappedduration</name>
								<value>
									<timecode>
										<rate>
											<timebase>0</timebase>
										</rate>
										<string>0</string>
										<frame>0</frame>
										<displayformat>NDF</displayformat>
									</timecode>
								</value>
							</parameter>
							<parameter>
								<parameterid>speed</parameterid>
								<name>speed</name>
								<valuemin>-10000</valuemin>
								<valuemax>10000</valuemax>
								<value>50</value>
							</parameter>
							<parameter>
								<parameterid>reverse</parameterid>
								<name>reverse</name>
								<value>FALSE</value>
							</parameter>
							<parameter>
								<parameterid>frameblending</parameterid>
								<name>frameblending</name>
								<value>TRUE</value>
							</parameter>
							<parameter>
								<parameterid>graphdict</parameterid>
								<name>graphdict</name>
								<valuemin>0</valuemin>
								<valuemax>91</valuemax>
								<keyframe>
									<when>0</when>
									<value>0.4999</value>
									<speedkfin>TRUE</speedkfin>
									<anchorOffset>0.4999</anchorOffset>
								</keyframe>
								<keyframe>
									<when>82</when>
									<value>41.4999</value>
									<speedkfout>TRUE</speedkfout>
									<speedvirtualkf>TRUE</speedvirtualkf>
								</keyframe>
								<keyframe>
									<when>183</when>
									<value>92.4999</value>
									<speedkfend>TRUE</speedkfend>
									<speedvirtualkf>TRUE</speedvirtualkf>
								</keyframe>
								<interpolation>
									<name>FCPCurve</name>
								</interpolation>
								<value>0.4999</value>
							</parameter>
						</effect>
					</filter>
				</clipitem>
				<clipitem id="WHOOSHLARG…WHOOSHBYFS105302.WAV3">
					<name>WHOOSHLARG…WHOOSHBYFS105302.WAV</name>
					<duration>227</duration>
					<rate>
						<ntsc>FALSE</ntsc>
						<timebase>25</timebase>
					</rate>
					<in>0</in>
					<out>70</out>
					<start>10461</start>
					<end>10531</end>
					<subframeoffset>0</subframeoffset>
					<masterclipid>WHOOSHLARG…WHOOSHBYFS105302.WAV1</masterclipid>
					<logginginfo>
						<scene/>
						<shottake/>
						<lognote/>
						<good>FALSE</good>
					</logginginfo>
					<labels>
						<label2/>
					</labels>
					<comments>
						<mastercomment1/>
						<mastercomment2/>
						<mastercomment3/>
						<mastercomment4/>
					</comments>
					<file id="WHOOSHLARG…WHOOSHBYFS105302 "/>
					<filter>
						<effect>
							<name>Audio Levels</name>
							<effectid>audiolevels</effectid>
							<effectcategory>audiolevels</effectcategory>
							<effecttype>audiolevels</effecttype>
							<mediatype>audio</mediatype>
							<parameter>
								<name>Level</name>
								<parameterid>level</parameterid>
								<valuemin>0</valuemin>
								<valuemax>3.98109</valuemax>
								<value>0.630957</value>
							</parameter>
						</effect>
					</filter>
					<filter>
						<effect>
							<name>Audio Pan</name>
							<effectid>audiopan</effectid>
							<effectcategory>audiopan</effectcategory>
							<effecttype>audiopan</effecttype>
							<mediatype>audio</mediatype>
							<parameter>
								<name>Pan</name>
								<parameterid>pan</parameterid>
								<valuemin>-1</valuemin>
								<valuemax>1</valuemax>
								<value>-1</value>
							</parameter>
						</effect>
					</filter>
					<sourcetrack>
						<mediatype>audio</mediatype>
						<trackindex>1</trackindex>
					</sourcetrack>
					<link>
						<linkclipref>WHOOSHLARG…WHOOSHBYFS105302.WAV3</linkclipref>
						<mediatype>audio</mediatype>
						<trackindex>3</trackindex>
						<clipindex>17</clipindex>
						<groupindex>1</groupindex>
					</link>
					<link>
						<linkclipref>WHOOSHLARG…WHOOSHBYFS105302.WAV4</linkclipref>
						<mediatype>audio</mediatype>
						<trackindex>4</trackindex>
						<clipindex>17</clipindex>
						<groupindex>1</groupindex>
					</link>
					<itemhistory>
						<uuid>4A8B59CF-824C-42CC-BD96-BC2CE1615925</uuid>
						<uuid>305121D6-E389-40E5-9751-AC703C2E40FC</uuid>
					</itemhistory>
					<filter>
						<effect>
							<name>Time Remap</name>
							<effectid>timeremap</effectid>
							<effectcategory>motion</effectcategory>
							<effecttype>motion</effecttype>
							<mediatype>audio</mediatype>
							<parameter>
								<parameterid>variablespeed</parameterid>
								<name>variablespeed</name>
								<valuemin>0</valuemin>
								<valuemax>1</valuemax>
								<value>0</value>
							</parameter>
							<parameter>
								<parameterid>mappedduration</parameterid>
								<name>mappedduration</name>
								<value>
									<timecode>
										<rate>
											<timebase>0</timebase>
										</rate>
										<string>0</string>
										<frame>0</frame>
										<displayformat>NDF</displayformat>
									</timecode>
								</value>
							</parameter>
							<parameter>
								<parameterid>speed</parameterid>
								<name>speed</name>
								<valuemin>-10000</valuemin>
								<valuemax>10000</valuemax>
								<value>40</value>
							</parameter>
							<parameter>
								<parameterid>reverse</parameterid>
								<name>reverse</name>
								<value>FALSE</value>
							</parameter>
							<parameter>
								<parameterid>frameblending</parameterid>
								<name>frameblending</name>
								<value>TRUE</value>
							</parameter>
							<parameter>
								<parameterid>graphdict</parameterid>
								<name>graphdict</name>
								<valuemin>0</valuemin>
								<valuemax>91</valuemax>
								<keyframe>
									<when>0</when>
									<value>0.3626</value>
									<speedkfin>TRUE</speedkfin>
									<anchorOffset>0.3626</anchorOffset>
								</keyframe>
								<keyframe>
									<when>70</when>
									<value>28.5484</value>
									<speedkfout>TRUE</speedkfout>
									<speedvirtualkf>TRUE</speedvirtualkf>
								</keyframe>
								<keyframe>
									<when>227</when>
									<value>92.3626</value>
									<speedkfend>TRUE</speedkfend>
									<speedvirtualkf>TRUE</speedvirtualkf>
								</keyframe>
								<interpolation>
									<name>FCPCurve</name>
								</interpolation>
								<value>0.3626</value>
							</parameter>
						</effect>
					</filter>
				</clipitem>
				<clipitem id="WHOOSHLARG…WHOOSHBYFS105302.WAV5">
					<name>WHOOSHLARG…WHOOSHBYFS105302.WAV</name>
					<duration>227</duration>
					<rate>
						<ntsc>FALSE</ntsc>
						<timebase>25</timebase>
					</rate>
					<in>0</in>
					<out>70</out>
					<start>10713</start>
					<end>10783</end>
					<subframeoffset>0</subframeoffset>
					<masterclipid>WHOOSHLARG…WHOOSHBYFS105302.WAV1</masterclipid>
					<logginginfo>
						<scene/>
						<shottake/>
						<lognote/>
						<good>FALSE</good>
					</logginginfo>
					<labels>
						<label2/>
					</labels>
					<comments>
						<mastercomment1/>
						<mastercomment2/>
						<mastercomment3/>
						<mastercomment4/>
					</comments>
					<file id="WHOOSHLARG…WHOOSHBYFS105302 "/>
					<filter>
						<effect>
							<name>Audio Levels</name>
							<effectid>audiolevels</effectid>
							<effectcategory>audiolevels</effectcategory>
							<effecttype>audiolevels</effecttype>
							<mediatype>audio</mediatype>
							<parameter>
								<name>Level</name>
								<parameterid>level</parameterid>
								<valuemin>0</valuemin>
								<valuemax>3.98109</valuemax>
								<value>0.630957</value>
							</parameter>
						</effect>
					</filter>
					<filter>
						<effect>
							<name>Audio Pan</name>
							<effectid>audiopan</effectid>
							<effectcategory>audiopan</effectcategory>
							<effecttype>audiopan</effecttype>
							<mediatype>audio</mediatype>
							<parameter>
								<name>Pan</name>
								<parameterid>pan</parameterid>
								<valuemin>-1</valuemin>
								<valuemax>1</valuemax>
								<value>-1</value>
							</parameter>
						</effect>
					</filter>
					<sourcetrack>
						<mediatype>audio</mediatype>
						<trackindex>1</trackindex>
					</sourcetrack>
					<link>
						<linkclipref>WHOOSHLARG…WHOOSHBYFS105302.WAV5</linkclipref>
						<mediatype>audio</mediatype>
						<trackindex>3</trackindex>
						<clipindex>18</clipindex>
						<groupindex>1</groupindex>
					</link>
					<link>
						<linkclipref>WHOOSHLARG…WHOOSHBYFS105302.WAV6</linkclipref>
						<mediatype>audio</mediatype>
						<trackindex>4</trackindex>
						<clipindex>18</clipindex>
						<groupindex>1</groupindex>
					</link>
					<itemhistory>
						<uuid>3441C290-3FAF-4564-9411-F9FAADA3D853</uuid>
						<uuid>305121D6-E389-40E5-9751-AC703C2E40FC</uuid>
					</itemhistory>
					<filter>
						<effect>
							<name>Time Remap</name>
							<effectid>timeremap</effectid>
							<effectcategory>motion</effectcategory>
							<effecttype>motion</effecttype>
							<mediatype>audio</mediatype>
							<parameter>
								<parameterid>variablespeed</parameterid>
								<name>variablespeed</name>
								<valuemin>0</valuemin>
								<valuemax>1</valuemax>
								<value>0</value>
							</parameter>
							<parameter>
								<parameterid>mappedduration</parameterid>
								<name>mappedduration</name>
								<value>
									<timecode>
										<rate>
											<timebase>0</timebase>
										</rate>
										<string>0</string>
										<frame>0</frame>
										<displayformat>NDF</displayformat>
									</timecode>
								</value>
							</parameter>
							<parameter>
								<parameterid>speed</parameterid>
								<name>speed</name>
								<valuemin>-10000</valuemin>
								<valuemax>10000</valuemax>
								<value>40</value>
							</parameter>
							<parameter>
								<parameterid>reverse</parameterid>
								<name>reverse</name>
								<value>FALSE</value>
							</parameter>
							<parameter>
								<parameterid>frameblending</parameterid>
								<name>frameblending</name>
								<value>TRUE</value>
							</parameter>
							<parameter>
								<parameterid>graphdict</parameterid>
								<name>graphdict</name>
								<valuemin>0</valuemin>
								<valuemax>91</valuemax>
								<keyframe>
									<when>0</when>
									<value>0.3626</value>
									<speedkfin>TRUE</speedkfin>
									<anchorOffset>0.3626</anchorOffset>
								</keyframe>
								<keyframe>
									<when>70</when>
									<value>28.5484</value>
									<speedkfout>TRUE</speedkfout>
									<speedvirtualkf>TRUE</speedvirtualkf>
								</keyframe>
								<keyframe>
									<when>227</when>
									<value>92.3626</value>
									<speedkfend>TRUE</speedkfend>
									<speedvirtualkf>TRUE</speedvirtualkf>
								</keyframe>
								<interpolation>
									<name>FCPCurve</name>
								</interpolation>
								<value>0.3626</value>
							</parameter>
						</effect>
					</filter>
				</clipitem>
				<clipitem id="WHOOSHLARG…WHOOSHBYFS105302.WAV7">
					<name>WHOOSHLARG…WHOOSHBYFS105302.WAV</name>
					<duration>227</duration>
					<rate>
						<ntsc>FALSE</ntsc>
						<timebase>25</timebase>
					</rate>
					<in>0</in>
					<out>70</out>
					<start>10984</start>
					<end>11054</end>
					<subframeoffset>0</subframeoffset>
					<masterclipid>WHOOSHLARG…WHOOSHBYFS105302.WAV1</masterclipid>
					<logginginfo>
						<scene/>
						<shottake/>
						<lognote/>
						<good>FALSE</good>
					</logginginfo>
					<labels>
						<label2/>
					</labels>
					<comments>
						<mastercomment1/>
						<mastercomment2/>
						<mastercomment3/>
						<mastercomment4/>
					</comments>
					<file id="WHOOSHLARG…WHOOSHBYFS105302 "/>
					<filter>
						<effect>
							<name>Audio Levels</name>
							<effectid>audiolevels</effectid>
							<effectcategory>audiolevels</effectcategory>
							<effecttype>audiolevels</effecttype>
							<mediatype>audio</mediatype>
							<parameter>
								<name>Level</name>
								<parameterid>level</parameterid>
								<valuemin>0</valuemin>
								<valuemax>3.98109</valuemax>
								<value>0.630957</value>
							</parameter>
						</effect>
					</filter>
					<filter>
						<effect>
							<name>Audio Pan</name>
							<effectid>audiopan</effectid>
							<effectcategory>audiopan</effectcategory>
							<effecttype>audiopan</effecttype>
							<mediatype>audio</mediatype>
							<parameter>
								<name>Pan</name>
								<parameterid>pan</parameterid>
								<valuemin>-1</valuemin>
								<valuemax>1</valuemax>
								<value>-1</value>
							</parameter>
						</effect>
					</filter>
					<sourcetrack>
						<mediatype>audio</mediatype>
						<trackindex>1</trackindex>
					</sourcetrack>
					<link>
						<linkclipref>WHOOSHLARG…WHOOSHBYFS105302.WAV7</linkclipref>
						<mediatype>audio</mediatype>
						<trackindex>3</trackindex>
						<clipindex>19</clipindex>
						<groupindex>1</groupindex>
					</link>
					<link>
						<linkclipref>WHOOSHLARG…WHOOSHBYFS105302.WAV8</linkclipref>
						<mediatype>audio</mediatype>
						<trackindex>4</trackindex>
						<clipindex>19</clipindex>
						<groupindex>1</groupindex>
					</link>
					<itemhistory>
						<uuid>D12A2708-6F4F-4F42-9301-04BD5F86CDED</uuid>
						<uuid>305121D6-E389-40E5-9751-AC703C2E40FC</uuid>
					</itemhistory>
					<filter>
						<effect>
							<name>Time Remap</name>
							<effectid>timeremap</effectid>
							<effectcategory>motion</effectcategory>
							<effecttype>motion</effecttype>
							<mediatype>audio</mediatype>
							<parameter>
								<parameterid>variablespeed</parameterid>
								<name>variablespeed</name>
								<valuemin>0</valuemin>
								<valuemax>1</valuemax>
								<value>0</value>
							</parameter>
							<parameter>
								<parameterid>mappedduration</parameterid>
								<name>mappedduration</name>
								<value>
									<timecode>
										<rate>
											<timebase>0</timebase>
										</rate>
										<string>0</string>
										<frame>0</frame>
										<displayformat>NDF</displayformat>
									</timecode>
								</value>
							</parameter>
							<parameter>
								<parameterid>speed</parameterid>
								<name>speed</name>
								<valuemin>-10000</valuemin>
								<valuemax>10000</valuemax>
								<value>40</value>
							</parameter>
							<parameter>
								<parameterid>reverse</parameterid>
								<name>reverse</name>
								<value>FALSE</value>
							</parameter>
							<parameter>
								<parameterid>frameblending</parameterid>
								<name>frameblending</name>
								<value>TRUE</value>
							</parameter>
							<parameter>
								<parameterid>graphdict</parameterid>
								<name>graphdict</name>
								<valuemin>0</valuemin>
								<valuemax>91</valuemax>
								<keyframe>
									<when>0</when>
									<value>0.3626</value>
									<speedkfin>TRUE</speedkfin>
									<anchorOffset>0.3626</anchorOffset>
								</keyframe>
								<keyframe>
									<when>70</when>
									<value>28.5484</value>
									<speedkfout>TRUE</speedkfout>
									<speedvirtualkf>TRUE</speedvirtualkf>
								</keyframe>
								<keyframe>
									<when>227</when>
									<value>92.3626</value>
									<speedkfend>TRUE</speedkfend>
									<speedvirtualkf>TRUE</speedvirtualkf>
								</keyframe>
								<interpolation>
									<name>FCPCurve</name>
								</interpolation>
								<value>0.3626</value>
							</parameter>
						</effect>
					</filter>
				</clipitem>
				<clipitem id="WHOOSHLARG…WHOOSHBYFS105302.WAV9">
					<name>WHOOSHLARG…WHOOSHBYFS105302.WAV</name>
					<duration>261</duration>
					<rate>
						<ntsc>FALSE</ntsc>
						<timebase>25</timebase>
					</rate>
					<in>0</in>
					<out>118</out>
					<start>11183</start>
					<end>11301</end>
					<subframeoffset>0</subframeoffset>
					<enabled>TRUE</enabled>
					<masterclipid>WHOOSHLARG…WHOOSHBYFS105302.WAV1</masterclipid>
					<logginginfo>
						<scene/>
						<shottake/>
						<lognote/>
						<good>FALSE</good>
					</logginginfo>
					<labels>
						<label2/>
					</labels>
					<comments>
						<mastercomment1/>
						<mastercomment2/>
						<mastercomment3/>
						<mastercomment4/>
					</comments>
					<file id="WHOOSHLARG…WHOOSHBYFS105302 "/>
					<filter>
						<effect>
							<name>Audio Levels</name>
							<effectid>audiolevels</effectid>
							<effectcategory>audiolevels</effectcategory>
							<effecttype>audiolevels</effecttype>
							<mediatype>audio</mediatype>
							<parameter>
								<name>Level</name>
								<parameterid>level</parameterid>
								<valuemin>0</valuemin>
								<valuemax>3.98109</valuemax>
								<value>0.398107</value>
							</parameter>
						</effect>
					</filter>
					<filter>
						<effect>
							<name>Audio Pan</name>
							<effectid>audiopan</effectid>
							<effectcategory>audiopan</effectcategory>
							<effecttype>audiopan</effecttype>
							<mediatype>audio</mediatype>
							<parameter>
								<name>Pan</name>
								<parameterid>pan</parameterid>
								<valuemin>-1</valuemin>
								<valuemax>1</valuemax>
								<value>-1</value>
							</parameter>
						</effect>
					</filter>
					<sourcetrack>
						<mediatype>audio</mediatype>
						<trackindex>1</trackindex>
					</sourcetrack>
					<link>
						<linkclipref>WHOOSHLARG…WHOOSHBYFS105302.WAV9</linkclipref>
						<mediatype>audio</mediatype>
						<trackindex>3</trackindex>
						<clipindex>20</clipindex>
						<groupindex>1</groupindex>
					</link>
					<link>
						<linkclipref>WHOOSHLARG…WHOOSHBYFS105302.WAV10</linkclipref>
						<mediatype>audio</mediatype>
						<trackindex>4</trackindex>
						<clipindex>20</clipindex>
						<groupindex>1</groupindex>
					</link>
					<itemhistory>
						<uuid>A1A9E1DC-02E8-44C4-BE21-0C058D65048A</uuid>
						<uuid>305121D6-E389-40E5-9751-AC703C2E40FC</uuid>
					</itemhistory>
					<filter>
						<effect>
							<name>Time Remap</name>
							<effectid>timeremap</effectid>
							<effectcategory>motion</effectcategory>
							<effecttype>motion</effecttype>
							<mediatype>audio</mediatype>
							<parameter>
								<parameterid>variablespeed</parameterid>
								<name>variablespeed</name>
								<valuemin>0</valuemin>
								<valuemax>1</valuemax>
								<value>0</value>
							</parameter>
							<parameter>
								<parameterid>mappedduration</parameterid>
								<name>mappedduration</name>
								<value>
									<timecode>
										<rate>
											<timebase>0</timebase>
										</rate>
										<string>0</string>
										<frame>0</frame>
										<displayformat>NDF</displayformat>
									</timecode>
								</value>
							</parameter>
							<parameter>
								<parameterid>speed</parameterid>
								<name>speed</name>
								<valuemin>-10000</valuemin>
								<valuemax>10000</valuemax>
								<value>34</value>
							</parameter>
							<parameter>
								<parameterid>reverse</parameterid>
								<name>reverse</name>
								<value>FALSE</value>
							</parameter>
							<parameter>
								<parameterid>frameblending</parameterid>
								<name>frameblending</name>
								<value>TRUE</value>
							</parameter>
							<parameter>
								<parameterid>graphdict</parameterid>
								<name>graphdict</name>
								<valuemin>0</valuemin>
								<valuemax>91</valuemax>
								<keyframe>
									<when>0</when>
									<value>0.0497</value>
									<speedkfin>TRUE</speedkfin>
									<anchorOffset>0.0497</anchorOffset>
								</keyframe>
								<keyframe>
									<when>118</when>
									<value>41.3497</value>
									<speedkfout>TRUE</speedkfout>
									<speedvirtualkf>TRUE</speedvirtualkf>
								</keyframe>
								<keyframe>
									<when>261</when>
									<value>92.0497</value>
									<speedkfend>TRUE</speedkfend>
									<speedvirtualkf>TRUE</speedvirtualkf>
								</keyframe>
								<interpolation>
									<name>FCPCurve</name>
								</interpolation>
								<value>0.0497</value>
							</parameter>
						</effect>
					</filter>
				</clipitem>
				<clipitem id="WHOOSHLARG…WHOOSHBYFS105302.WAV11">
					<name>WHOOSHLARG…WHOOSHBYFS105302.WAV</name>
					<duration>455</duration>
					<rate>
						<ntsc>FALSE</ntsc>
						<timebase>25</timebase>
					</rate>
					<in>49</in>
					<out>130</out>
					<start>11330</start>
					<end>11411</end>
					<subframeoffset>0</subframeoffset>
					<enabled>TRUE</enabled>
					<masterclipid>WHOOSHLARG…WHOOSHBYFS105302.WAV1</masterclipid>
					<logginginfo>
						<scene/>
						<shottake/>
						<lognote/>
						<good>FALSE</good>
					</logginginfo>
					<labels>
						<label2/>
					</labels>
					<comments>
						<mastercomment1/>
						<mastercomment2/>
						<mastercomment3/>
						<mastercomment4/>
					</comments>
					<file id="WHOOSHLARG…WHOOSHBYFS105302 "/>
					<filter>
						<effect>
							<name>Audio Levels</name>
							<effectid>audiolevels</effectid>
							<effectcategory>audiolevels</effectcategory>
							<effecttype>audiolevels</effecttype>
							<mediatype>audio</mediatype>
							<parameter>
								<name>Level</name>
								<parameterid>level</parameterid>
								<valuemin>0</valuemin>
								<valuemax>3.98109</valuemax>
								<value>0.398107</value>
							</parameter>
						</effect>
					</filter>
					<filter>
						<effect>
							<name>Audio Pan</name>
							<effectid>audiopan</effectid>
							<effectcategory>audiopan</effectcategory>
							<effecttype>audiopan</effecttype>
							<mediatype>audio</mediatype>
							<parameter>
								<name>Pan</name>
								<parameterid>pan</parameterid>
								<valuemin>-1</valuemin>
								<valuemax>1</valuemax>
								<value>-1</value>
							</parameter>
						</effect>
					</filter>
					<sourcetrack>
						<mediatype>audio</mediatype>
						<trackindex>1</trackindex>
					</sourcetrack>
					<link>
						<linkclipref>WHOOSHLARG…WHOOSHBYFS105302.WAV11</linkclipref>
						<mediatype>audio</mediatype>
						<trackindex>3</trackindex>
						<clipindex>21</clipindex>
						<groupindex>1</groupindex>
					</link>
					<link>
						<linkclipref>WHOOSHLARG…WHOOSHBYFS105302.WAV12</linkclipref>
						<mediatype>audio</mediatype>
						<trackindex>4</trackindex>
						<clipindex>21</clipindex>
						<groupindex>1</groupindex>
					</link>
					<itemhistory>
						<uuid>275293C2-8F0B-4A1E-A850-38E695518E57</uuid>
						<uuid>305121D6-E389-40E5-9751-AC703C2E40FC</uuid>
					</itemhistory>
					<filter>
						<effect>
							<name>Time Remap</name>
							<effectid>timeremap</effectid>
							<effectcategory>motion</effectcategory>
							<effecttype>motion</effecttype>
							<mediatype>audio</mediatype>
							<parameter>
								<parameterid>variablespeed</parameterid>
								<name>variablespeed</name>
								<valuemin>0</valuemin>
								<valuemax>1</valuemax>
								<value>0</value>
							</parameter>
							<parameter>
								<parameterid>mappedduration</parameterid>
								<name>mappedduration</name>
								<value>
									<timecode>
										<rate>
											<timebase>0</timebase>
										</rate>
										<string>0</string>
										<frame>0</frame>
										<displayformat>NDF</displayformat>
									</timecode>
								</value>
							</parameter>
							<parameter>
								<parameterid>speed</parameterid>
								<name>speed</name>
								<valuemin>-10000</valuemin>
								<valuemax>10000</valuemax>
								<value>20</value>
							</parameter>
							<parameter>
								<parameterid>reverse</parameterid>
								<name>reverse</name>
								<value>FALSE</value>
							</parameter>
							<parameter>
								<parameterid>frameblending</parameterid>
								<name>frameblending</name>
								<value>TRUE</value>
							</parameter>
							<parameter>
								<parameterid>graphdict</parameterid>
								<name>graphdict</name>
								<valuemin>0</valuemin>
								<valuemax>91</valuemax>
								<keyframe>
									<when>0</when>
									<value>0.0497</value>
									<speedkfstart>TRUE</speedkfstart>
									<speedvirtualkf>TRUE</speedvirtualkf>
									<anchorOffset>0.0497</anchorOffset>
								</keyframe>
								<keyframe>
									<when>49</when>
									<value>9.87129</value>
									<speedkfin>TRUE</speedkfin>
									<speedvirtualkf>TRUE</speedvirtualkf>
								</keyframe>
								<keyframe>
									<when>130</when>
									<value>26.107</value>
									<speedkfout>TRUE</speedkfout>
									<speedvirtualkf>TRUE</speedvirtualkf>
								</keyframe>
								<keyframe>
									<when>455</when>
									<value>92.0497</value>
									<speedkfend>TRUE</speedkfend>
									<speedvirtualkf>TRUE</speedvirtualkf>
								</keyframe>
								<interpolation>
									<name>FCPCurve</name>
								</interpolation>
								<value>9.87129</value>
							</parameter>
						</effect>
					</filter>
				</clipitem>
				<clipitem id="WHOOSHLARG…WHOOSHBYFS105302.WAV13">
					<name>WHOOSHLARG…WHOOSHBYFS105302.WAV</name>
					<duration>203</duration>
					<rate>
						<ntsc>FALSE</ntsc>
						<timebase>25</timebase>
					</rate>
					<in>5</in>
					<out>81</out>
					<start>11547</start>
					<end>11623</end>
					<subframeoffset>0</subframeoffset>
					<masterclipid>WHOOSHLARG…WHOOSHBYFS105302.WAV1</masterclipid>
					<logginginfo>
						<scene/>
						<shottake/>
						<lognote/>
						<good>FALSE</good>
					</logginginfo>
					<labels>
						<label2/>
					</labels>
					<comments>
						<mastercomment1/>
						<mastercomment2/>
						<mastercomment3/>
						<mastercomment4/>
					</comments>
					<file id="WHOOSHLARG…WHOOSHBYFS105302 "/>
					<filter>
						<effect>
							<name>Audio Levels</name>
							<effectid>audiolevels</effectid>
							<effectcategory>audiolevels</effectcategory>
							<effecttype>audiolevels</effecttype>
							<mediatype>audio</mediatype>
							<parameter>
								<name>Level</name>
								<parameterid>level</parameterid>
								<valuemin>0</valuemin>
								<valuemax>3.98109</valuemax>
								<value>1</value>
							</parameter>
						</effect>
					</filter>
					<filter>
						<effect>
							<name>Audio Pan</name>
							<effectid>audiopan</effectid>
							<effectcategory>audiopan</effectcategory>
							<effecttype>audiopan</effecttype>
							<mediatype>audio</mediatype>
							<parameter>
								<name>Pan</name>
								<parameterid>pan</parameterid>
								<valuemin>-1</valuemin>
								<valuemax>1</valuemax>
								<value>-1</value>
							</parameter>
						</effect>
					</filter>
					<sourcetrack>
						<mediatype>audio</mediatype>
						<trackindex>1</trackindex>
					</sourcetrack>
					<link>
						<linkclipref>WHOOSHLARG…WHOOSHBYFS105302.WAV13</linkclipref>
						<mediatype>audio</mediatype>
						<trackindex>3</trackindex>
						<clipindex>22</clipindex>
						<groupindex>1</groupindex>
					</link>
					<link>
						<linkclipref>WHOOSHLARG…WHOOSHBYFS105302.WAV14</linkclipref>
						<mediatype>audio</mediatype>
						<trackindex>4</trackindex>
						<clipindex>22</clipindex>
						<groupindex>1</groupindex>
					</link>
					<itemhistory>
						<uuid>4977E964-21A5-4502-B4C7-205AD47BE9D6</uuid>
						<uuid>305121D6-E389-40E5-9751-AC703C2E40FC</uuid>
					</itemhistory>
					<filter>
						<effect>
							<name>Time Remap</name>
							<effectid>timeremap</effectid>
							<effectcategory>motion</effectcategory>
							<effecttype>motion</effecttype>
							<mediatype>audio</mediatype>
							<parameter>
								<parameterid>variablespeed</parameterid>
								<name>variablespeed</name>
								<valuemin>0</valuemin>
								<valuemax>1</valuemax>
								<value>0</value>
							</parameter>
							<parameter>
								<parameterid>mappedduration</parameterid>
								<name>mappedduration</name>
								<value>
									<timecode>
										<rate>
											<timebase>0</timebase>
										</rate>
										<string>0</string>
										<frame>0</frame>
										<displayformat>NDF</displayformat>
									</timecode>
								</value>
							</parameter>
							<parameter>
								<parameterid>speed</parameterid>
								<name>speed</name>
								<valuemin>-10000</valuemin>
								<valuemax>10000</valuemax>
								<value>45</value>
							</parameter>
							<parameter>
								<parameterid>reverse</parameterid>
								<name>reverse</name>
								<value>FALSE</value>
							</parameter>
							<parameter>
								<parameterid>frameblending</parameterid>
								<name>frameblending</name>
								<value>TRUE</value>
							</parameter>
							<parameter>
								<parameterid>graphdict</parameterid>
								<name>graphdict</name>
								<valuemin>0</valuemin>
								<valuemax>91</valuemax>
								<keyframe>
									<when>0</when>
									<value>0.1432</value>
									<speedkfstart>TRUE</speedkfstart>
									<speedvirtualkf>TRUE</speedvirtualkf>
									<anchorOffset>0.1432</anchorOffset>
								</keyframe>
								<keyframe>
									<when>5</when>
									<value>2.39568</value>
									<speedkfin>TRUE</speedkfin>
									<speedvirtualkf>TRUE</speedvirtualkf>
								</keyframe>
								<keyframe>
									<when>81</when>
									<value>36.6333</value>
									<speedkfout>TRUE</speedkfout>
									<speedvirtualkf>TRUE</speedvirtualkf>
								</keyframe>
								<keyframe>
									<when>203</when>
									<value>92.1432</value>
									<speedkfend>TRUE</speedkfend>
									<speedvirtualkf>TRUE</speedvirtualkf>
								</keyframe>
								<interpolation>
									<name>FCPCurve</name>
								</interpolation>
								<value>2.39568</value>
							</parameter>
						</effect>
					</filter>
				</clipitem>
				<clipitem id="WHOOSHLARG…WHOOSHBYFS105004 4">
					<name>WHOOSHLARG…WHOOSHBYFS105004</name>
					<duration>325</duration>
					<rate>
						<ntsc>FALSE</ntsc>
						<timebase>25</timebase>
					</rate>
					<in>41</in>
					<out>140</out>
					<start>12242</start>
					<end>-1</end>
					<enabled>TRUE</enabled>
					<masterclipid>WHOOSHLARG…WHOOSHBYFS105004 1</masterclipid>
					<logginginfo>
						<scene/>
						<shottake/>
						<lognote/>
						<good>FALSE</good>
					</logginginfo>
					<labels>
						<label2/>
					</labels>
					<comments>
						<mastercomment1/>
						<mastercomment2/>
						<mastercomment3/>
						<mastercomment4/>
					</comments>
					<file id="WHOOSHLARG…WHOOSHBYFS105004 2"/>
					<filter>
						<effect>
							<name>Audio Levels</name>
							<effectid>audiolevels</effectid>
							<effectcategory>audiolevels</effectcategory>
							<effecttype>audiolevels</effecttype>
							<mediatype>audio</mediatype>
							<parameter>
								<name>Level</name>
								<parameterid>level</parameterid>
								<valuemin>0</valuemin>
								<valuemax>3.98109</valuemax>
								<value>0.281838</value>
							</parameter>
						</effect>
					</filter>
					<filter>
						<effect>
							<name>Audio Pan</name>
							<effectid>audiopan</effectid>
							<effectcategory>audiopan</effectcategory>
							<effecttype>audiopan</effecttype>
							<mediatype>audio</mediatype>
							<parameter>
								<name>Pan</name>
								<parameterid>pan</parameterid>
								<valuemin>-1</valuemin>
								<valuemax>1</valuemax>
								<value>-1</value>
							</parameter>
						</effect>
					</filter>
					<sourcetrack>
						<mediatype>audio</mediatype>
						<trackindex>1</trackindex>
					</sourcetrack>
					<link>
						<linkclipref>WHOOSHLARG…WHOOSHBYFS105004 4</linkclipref>
						<mediatype>audio</mediatype>
						<trackindex>3</trackindex>
						<clipindex>23</clipindex>
						<groupindex>1</groupindex>
					</link>
					<link>
						<linkclipref>WHOOSHLARG…WHOOSHBYFS105004 5</linkclipref>
						<mediatype>audio</mediatype>
						<trackindex>4</trackindex>
						<clipindex>23</clipindex>
						<groupindex>1</groupindex>
					</link>
					<itemhistory>
						<uuid>C84A8A9A-AF4F-40B8-9455-1703D0BD47ED</uuid>
					</itemhistory>
					<filter>
						<effect>
							<name>Time Remap</name>
							<effectid>timeremap</effectid>
							<effectcategory>motion</effectcategory>
							<effecttype>motion</effecttype>
							<mediatype>audio</mediatype>
							<parameter>
								<parameterid>variablespeed</parameterid>
								<name>variablespeed</name>
								<valuemin>0</valuemin>
								<valuemax>1</valuemax>
								<value>0</value>
							</parameter>
							<parameter>
								<parameterid>mappedduration</parameterid>
								<name>mappedduration</name>
								<value>
									<timecode>
										<rate>
											<timebase>0</timebase>
										</rate>
										<string>0</string>
										<frame>0</frame>
										<displayformat>NDF</displayformat>
									</timecode>
								</value>
							</parameter>
							<parameter>
								<parameterid>speed</parameterid>
								<name>speed</name>
								<valuemin>-10000</valuemin>
								<valuemax>10000</valuemax>
								<value>25</value>
							</parameter>
							<parameter>
								<parameterid>reverse</parameterid>
								<name>reverse</name>
								<value>FALSE</value>
							</parameter>
							<parameter>
								<parameterid>frameblending</parameterid>
								<name>frameblending</name>
								<value>TRUE</value>
							</parameter>
							<parameter>
								<parameterid>graphdict</parameterid>
								<name>graphdict</name>
								<valuemin>0</valuemin>
								<valuemax>81</valuemax>
								<keyframe>
									<when>0</when>
									<value>0</value>
									<speedkfstart>TRUE</speedkfstart>
									<speedvirtualkf>TRUE</speedvirtualkf>
								</keyframe>
								<keyframe>
									<when>41</when>
									<value>10.25</value>
									<speedkfin>TRUE</speedkfin>
									<speedvirtualkf>TRUE</speedvirtualkf>
								</keyframe>
								<keyframe>
									<when>140</when>
									<value>35</value>
									<speedkfout>TRUE</speedkfout>
									<speedvirtualkf>TRUE</speedvirtualkf>
								</keyframe>
								<keyframe>
									<when>325</when>
									<value>82</value>
									<speedkfend>TRUE</speedkfend>
									<speedvirtualkf>TRUE</speedvirtualkf>
								</keyframe>
								<interpolation>
									<name>FCPCurve</name>
								</interpolation>
								<value>10.25</value>
							</parameter>
						</effect>
					</filter>
				</clipitem>
				<transitionitem>
					<rate>
						<ntsc>FALSE</ntsc>
						<timebase>25</timebase>
					</rate>
					<start>12316</start>
					<end>12341</end>
					<alignment>center</alignment>
					<effect>
						<name>Cross Fade (+3dB)</name>
						<effectid>KGAudioTransCrossFade3dB</effectid>
						<effecttype>transition</effecttype>
						<mediatype>audio</mediatype>
					</effect>
				</transitionitem>
				<clipitem id="WHOOSHLARG…WHOOSHBYFS105004 6">
					<name>WHOOSHLARG…WHOOSHBYFS105004</name>
					<duration>811</duration>
					<rate>
						<ntsc>FALSE</ntsc>
						<timebase>25</timebase>
					</rate>
					<in>556</in>
					<out>737</out>
					<start>-1</start>
					<end>12497</end>
					<enabled>TRUE</enabled>
					<masterclipid>WHOOSHLARG…WHOOSHBYFS105004 1</masterclipid>
					<logginginfo>
						<scene/>
						<shottake/>
						<lognote/>
						<good>FALSE</good>
					</logginginfo>
					<labels>
						<label2/>
					</labels>
					<comments>
						<mastercomment1/>
						<mastercomment2/>
						<mastercomment3/>
						<mastercomment4/>
					</comments>
					<file id="WHOOSHLARG…WHOOSHBYFS105004 2"/>
					<filter>
						<effect>
							<name>Audio Levels</name>
							<effectid>audiolevels</effectid>
							<effectcategory>audiolevels</effectcategory>
							<effecttype>audiolevels</effecttype>
							<mediatype>audio</mediatype>
							<parameter>
								<name>Level</name>
								<parameterid>level</parameterid>
								<valuemin>0</valuemin>
								<valuemax>3.98109</valuemax>
								<value>0.630957</value>
							</parameter>
						</effect>
					</filter>
					<filter>
						<effect>
							<name>Audio Pan</name>
							<effectid>audiopan</effectid>
							<effectcategory>audiopan</effectcategory>
							<effecttype>audiopan</effecttype>
							<mediatype>audio</mediatype>
							<parameter>
								<name>Pan</name>
								<parameterid>pan</parameterid>
								<valuemin>-1</valuemin>
								<valuemax>1</valuemax>
								<value>-1</value>
							</parameter>
						</effect>
					</filter>
					<sourcetrack>
						<mediatype>audio</mediatype>
						<trackindex>1</trackindex>
					</sourcetrack>
					<link>
						<linkclipref>WHOOSHLARG…WHOOSHBYFS105004 6</linkclipref>
						<mediatype>audio</mediatype>
						<trackindex>3</trackindex>
						<clipindex>25</clipindex>
						<groupindex>1</groupindex>
					</link>
					<link>
						<linkclipref>WHOOSHLARG…WHOOSHBYFS105004 7</linkclipref>
						<mediatype>audio</mediatype>
						<trackindex>4</trackindex>
						<clipindex>25</clipindex>
						<groupindex>1</groupindex>
					</link>
					<itemhistory>
						<uuid>FA89A4EF-5223-430D-BCD0-A335AAF5A14F</uuid>
					</itemhistory>
					<filter>
						<effect>
							<name>Time Remap</name>
							<effectid>timeremap</effectid>
							<effectcategory>motion</effectcategory>
							<effecttype>motion</effecttype>
							<mediatype>audio</mediatype>
							<parameter>
								<parameterid>variablespeed</parameterid>
								<name>variablespeed</name>
								<valuemin>0</valuemin>
								<valuemax>1</valuemax>
								<value>0</value>
							</parameter>
							<parameter>
								<parameterid>mappedduration</parameterid>
								<name>mappedduration</name>
								<value>
									<timecode>
										<rate>
											<timebase>0</timebase>
										</rate>
										<string>0</string>
										<frame>0</frame>
										<displayformat>NDF</displayformat>
									</timecode>
								</value>
							</parameter>
							<parameter>
								<parameterid>speed</parameterid>
								<name>speed</name>
								<valuemin>-10000</valuemin>
								<valuemax>10000</valuemax>
								<value>10</value>
							</parameter>
							<parameter>
								<parameterid>reverse</parameterid>
								<name>reverse</name>
								<value>TRUE</value>
							</parameter>
							<parameter>
								<parameterid>frameblending</parameterid>
								<name>frameblending</name>
								<value>TRUE</value>
							</parameter>
							<parameter>
								<parameterid>graphdict</parameterid>
								<name>graphdict</name>
								<valuemin>0</valuemin>
								<valuemax>81</valuemax>
								<keyframe>
									<when>0</when>
									<value>83.0499</value>
									<speedkfstart>TRUE</speedkfstart>
									<speedvirtualkf>TRUE</speedvirtualkf>
									<anchorOffset>0.0499</anchorOffset>
								</keyframe>
								<keyframe>
									<when>556</when>
									<value>26.4499</value>
									<speedkfin>TRUE</speedkfin>
									<speedvirtualkf>TRUE</speedvirtualkf>
								</keyframe>
								<keyframe>
									<when>737</when>
									<value>8.3499</value>
									<speedkfout>TRUE</speedkfout>
									<speedvirtualkf>TRUE</speedvirtualkf>
								</keyframe>
								<keyframe>
									<when>811</when>
									<value>1.0499</value>
									<speedkfend>TRUE</speedkfend>
									<speedvirtualkf>TRUE</speedvirtualkf>
								</keyframe>
								<interpolation>
									<name>FCPCurve</name>
								</interpolation>
								<value>25.4499</value>
							</parameter>
						</effect>
					</filter>
				</clipitem>
				<clipitem id="WHOOSHLARG…WHOOSHBYFS105302.WAV15">
					<name>WHOOSHLARG…WHOOSHBYFS105302.WAV</name>
					<duration>261</duration>
					<rate>
						<ntsc>FALSE</ntsc>
						<timebase>25</timebase>
					</rate>
					<in>17</in>
					<out>92</out>
					<start>16209</start>
					<end>16284</end>
					<subframeoffset>0</subframeoffset>
					<masterclipid>WHOOSHLARG…WHOOSHBYFS105302.WAV1</masterclipid>
					<logginginfo>
						<scene/>
						<shottake/>
						<lognote/>
						<good>FALSE</good>
					</logginginfo>
					<labels>
						<label2/>
					</labels>
					<comments>
						<mastercomment1/>
						<mastercomment2/>
						<mastercomment3/>
						<mastercomment4/>
					</comments>
					<file id="WHOOSHLARG…WHOOSHBYFS105302 "/>
					<filter>
						<effect>
							<name>Audio Levels</name>
							<effectid>audiolevels</effectid>
							<effectcategory>audiolevels</effectcategory>
							<effecttype>audiolevels</effecttype>
							<mediatype>audio</mediatype>
							<parameter>
								<name>Level</name>
								<parameterid>level</parameterid>
								<valuemin>0</valuemin>
								<valuemax>3.98109</valuemax>
								<value>0.141254</value>
							</parameter>
						</effect>
					</filter>
					<filter>
						<effect>
							<name>Audio Pan</name>
							<effectid>audiopan</effectid>
							<effectcategory>audiopan</effectcategory>
							<effecttype>audiopan</effecttype>
							<mediatype>audio</mediatype>
							<parameter>
								<name>Pan</name>
								<parameterid>pan</parameterid>
								<valuemin>-1</valuemin>
								<valuemax>1</valuemax>
								<value>-1</value>
							</parameter>
						</effect>
					</filter>
					<sourcetrack>
						<mediatype>audio</mediatype>
						<trackindex>1</trackindex>
					</sourcetrack>
					<link>
						<linkclipref>WHOOSHLARG…WHOOSHBYFS105302.WAV15</linkclipref>
						<mediatype>audio</mediatype>
						<trackindex>3</trackindex>
						<clipindex>26</clipindex>
						<groupindex>1</groupindex>
					</link>
					<link>
						<linkclipref>WHOOSHLARG…WHOOSHBYFS105302.WAV16</linkclipref>
						<mediatype>audio</mediatype>
						<trackindex>4</trackindex>
						<clipindex>26</clipindex>
						<groupindex>1</groupindex>
					</link>
					<itemhistory>
						<uuid>09B4DFAC-02EB-4B53-83D7-3A9B8A030A45</uuid>
						<uuid>305121D6-E389-40E5-9751-AC703C2E40FC</uuid>
					</itemhistory>
					<filter>
						<effect>
							<name>Time Remap</name>
							<effectid>timeremap</effectid>
							<effectcategory>motion</effectcategory>
							<effecttype>motion</effecttype>
							<mediatype>audio</mediatype>
							<parameter>
								<parameterid>variablespeed</parameterid>
								<name>variablespeed</name>
								<valuemin>0</valuemin>
								<valuemax>1</valuemax>
								<value>0</value>
							</parameter>
							<parameter>
								<parameterid>mappedduration</parameterid>
								<name>mappedduration</name>
								<value>
									<timecode>
										<rate>
											<timebase>0</timebase>
										</rate>
										<string>0</string>
										<frame>0</frame>
										<displayformat>NDF</displayformat>
									</timecode>
								</value>
							</parameter>
							<parameter>
								<parameterid>speed</parameterid>
								<name>speed</name>
								<valuemin>-10000</valuemin>
								<valuemax>10000</valuemax>
								<value>34</value>
							</parameter>
							<parameter>
								<parameterid>reverse</parameterid>
								<name>reverse</name>
								<value>FALSE</value>
							</parameter>
							<parameter>
								<parameterid>frameblending</parameterid>
								<name>frameblending</name>
								<value>TRUE</value>
							</parameter>
							<parameter>
								<parameterid>graphdict</parameterid>
								<name>graphdict</name>
								<valuemin>0</valuemin>
								<valuemax>91</valuemax>
								<keyframe>
									<when>0</when>
									<value>0.0497</value>
									<speedkfstart>TRUE</speedkfstart>
									<speedvirtualkf>TRUE</speedvirtualkf>
									<anchorOffset>0.0497</anchorOffset>
								</keyframe>
								<keyframe>
									<when>17</when>
									<value>5.9997</value>
									<speedkfin>TRUE</speedkfin>
									<speedvirtualkf>TRUE</speedvirtualkf>
								</keyframe>
								<keyframe>
									<when>92</when>
									<value>32.2497</value>
									<speedkfout>TRUE</speedkfout>
									<speedvirtualkf>TRUE</speedvirtualkf>
								</keyframe>
								<keyframe>
									<when>261</when>
									<value>92.0497</value>
									<speedkfend>TRUE</speedkfend>
									<speedvirtualkf>TRUE</speedvirtualkf>
								</keyframe>
								<interpolation>
									<name>FCPCurve</name>
								</interpolation>
								<value>5.9997</value>
							</parameter>
						</effect>
					</filter>
				</clipitem>
				<clipitem id="WHOOSHLARG…WHOOSHBYFS105302.WAV17">
					<name>WHOOSHLARG…WHOOSHBYFS105302.WAV</name>
					<duration>261</duration>
					<rate>
						<ntsc>FALSE</ntsc>
						<timebase>25</timebase>
					</rate>
					<in>17</in>
					<out>92</out>
					<start>16451</start>
					<end>16526</end>
					<subframeoffset>0</subframeoffset>
					<masterclipid>WHOOSHLARG…WHOOSHBYFS105302.WAV1</masterclipid>
					<logginginfo>
						<scene/>
						<shottake/>
						<lognote/>
						<good>FALSE</good>
					</logginginfo>
					<labels>
						<label2/>
					</labels>
					<comments>
						<mastercomment1/>
						<mastercomment2/>
						<mastercomment3/>
						<mastercomment4/>
					</comments>
					<file id="WHOOSHLARG…WHOOSHBYFS105302 "/>
					<filter>
						<effect>
							<name>Audio Levels</name>
							<effectid>audiolevels</effectid>
							<effectcategory>audiolevels</effectcategory>
							<effecttype>audiolevels</effecttype>
							<mediatype>audio</mediatype>
							<parameter>
								<name>Level</name>
								<parameterid>level</parameterid>
								<valuemin>0</valuemin>
								<valuemax>3.98109</valuemax>
								<value>0</value>
							</parameter>
						</effect>
					</filter>
					<filter>
						<effect>
							<name>Audio Pan</name>
							<effectid>audiopan</effectid>
							<effectcategory>audiopan</effectcategory>
							<effecttype>audiopan</effecttype>
							<mediatype>audio</mediatype>
							<parameter>
								<name>Pan</name>
								<parameterid>pan</parameterid>
								<valuemin>-1</valuemin>
								<valuemax>1</valuemax>
								<value>-1</value>
							</parameter>
						</effect>
					</filter>
					<sourcetrack>
						<mediatype>audio</mediatype>
						<trackindex>1</trackindex>
					</sourcetrack>
					<link>
						<linkclipref>WHOOSHLARG…WHOOSHBYFS105302.WAV17</linkclipref>
						<mediatype>audio</mediatype>
						<trackindex>3</trackindex>
						<clipindex>27</clipindex>
						<groupindex>1</groupindex>
					</link>
					<link>
						<linkclipref>WHOOSHLARG…WHOOSHBYFS105302.WAV18</linkclipref>
						<mediatype>audio</mediatype>
						<trackindex>4</trackindex>
						<clipindex>27</clipindex>
						<groupindex>1</groupindex>
					</link>
					<itemhistory>
						<uuid>1A29E736-2668-4AC1-8C8C-27D69BD2251E</uuid>
						<uuid>305121D6-E389-40E5-9751-AC703C2E40FC</uuid>
					</itemhistory>
					<filter>
						<effect>
							<name>Time Remap</name>
							<effectid>timeremap</effectid>
							<effectcategory>motion</effectcategory>
							<effecttype>motion</effecttype>
							<mediatype>audio</mediatype>
							<parameter>
								<parameterid>variablespeed</parameterid>
								<name>variablespeed</name>
								<valuemin>0</valuemin>
								<valuemax>1</valuemax>
								<value>0</value>
							</parameter>
							<parameter>
								<parameterid>mappedduration</parameterid>
								<name>mappedduration</name>
								<value>
									<timecode>
										<rate>
											<timebase>0</timebase>
										</rate>
										<string>0</string>
										<frame>0</frame>
										<displayformat>NDF</displayformat>
									</timecode>
								</value>
							</parameter>
							<parameter>
								<parameterid>speed</parameterid>
								<name>speed</name>
								<valuemin>-10000</valuemin>
								<valuemax>10000</valuemax>
								<value>34</value>
							</parameter>
							<parameter>
								<parameterid>reverse</parameterid>
								<name>reverse</name>
								<value>FALSE</value>
							</parameter>
							<parameter>
								<parameterid>frameblending</parameterid>
								<name>frameblending</name>
								<value>TRUE</value>
							</parameter>
							<parameter>
								<parameterid>graphdict</parameterid>
								<name>graphdict</name>
								<valuemin>0</valuemin>
								<valuemax>91</valuemax>
								<keyframe>
									<when>0</when>
									<value>0.0497</value>
									<speedkfstart>TRUE</speedkfstart>
									<speedvirtualkf>TRUE</speedvirtualkf>
									<anchorOffset>0.0497</anchorOffset>
								</keyframe>
								<keyframe>
									<when>17</when>
									<value>5.9997</value>
									<speedkfin>TRUE</speedkfin>
									<speedvirtualkf>TRUE</speedvirtualkf>
								</keyframe>
								<keyframe>
									<when>92</when>
									<value>32.2497</value>
									<speedkfout>TRUE</speedkfout>
									<speedvirtualkf>TRUE</speedvirtualkf>
								</keyframe>
								<keyframe>
									<when>261</when>
									<value>92.0497</value>
									<speedkfend>TRUE</speedkfend>
									<speedvirtualkf>TRUE</speedvirtualkf>
								</keyframe>
								<interpolation>
									<name>FCPCurve</name>
								</interpolation>
								<value>5.9997</value>
							</parameter>
						</effect>
					</filter>
				</clipitem>
				<clipitem id="DYR18488_01 3">
					<name>DYR18488_01</name>
					<duration>1012</duration>
					<rate>
						<ntsc>FALSE</ntsc>
						<timebase>25</timebase>
					</rate>
					<in>149</in>
					<out>186</out>
					<start>18382</start>
					<end>18419</end>
					<subframeoffset>0</subframeoffset>
					<masterclipid>DYR18488_01 1</masterclipid>
					<logginginfo>
						<scene/>
						<shottake/>
						<lognote/>
						<good>FALSE</good>
					</logginginfo>
					<labels>
						<label2/>
					</labels>
					<comments>
						<mastercomment1/>
						<mastercomment2/>
						<mastercomment3/>
						<mastercomment4/>
					</comments>
					<file id="DYR18488_01 2"/>
					<filter>
						<effect>
							<name>Audio Levels</name>
							<effectid>audiolevels</effectid>
							<effectcategory>audiolevels</effectcategory>
							<effecttype>audiolevels</effecttype>
							<mediatype>audio</mediatype>
							<parameter>
								<name>Level</name>
								<parameterid>level</parameterid>
								<valuemin>0</valuemin>
								<valuemax>3.98109</valuemax>
								<value>1</value>
							</parameter>
						</effect>
					</filter>
					<filter>
						<effect>
							<name>Audio Pan</name>
							<effectid>audiopan</effectid>
							<effectcategory>audiopan</effectcategory>
							<effecttype>audiopan</effecttype>
							<mediatype>audio</mediatype>
							<parameter>
								<name>Pan</name>
								<parameterid>pan</parameterid>
								<valuemin>-1</valuemin>
								<valuemax>1</valuemax>
								<value>0</value>
							</parameter>
						</effect>
					</filter>
					<sourcetrack>
						<mediatype>audio</mediatype>
						<trackindex>1</trackindex>
					</sourcetrack>
					<link>
						<linkclipref>DYR18488_01 </linkclipref>
						<mediatype>video</mediatype>
						<trackindex>1</trackindex>
						<clipindex>135</clipindex>
					</link>
					<link>
						<linkclipref>DYR18488_01 3</linkclipref>
						<mediatype>audio</mediatype>
						<trackindex>3</trackindex>
						<clipindex>28</clipindex>
					</link>
					<link>
						<linkclipref>DYR18488_01 4</linkclipref>
						<mediatype>audio</mediatype>
						<trackindex>4</trackindex>
						<clipindex>28</clipindex>
					</link>
					<itemhistory>
						<uuid>267C302F-0D3B-4151-AB0A-A6EF4E505720</uuid>
					</itemhistory>
				</clipitem>
				<clipitem id="WHOOSHLARG…WHOOSHBYFS105302.WAV19">
					<name>WHOOSHLARG…WHOOSHBYFS105302.WAV</name>
					<duration>203</duration>
					<rate>
						<ntsc>FALSE</ntsc>
						<timebase>25</timebase>
					</rate>
					<in>4</in>
					<out>99</out>
					<start>20692</start>
					<end>20787</end>
					<subframeoffset>0</subframeoffset>
					<masterclipid>WHOOSHLARG…WHOOSHBYFS105302.WAV1</masterclipid>
					<logginginfo>
						<scene/>
						<shottake/>
						<lognote/>
						<good>FALSE</good>
					</logginginfo>
					<labels>
						<label2/>
					</labels>
					<comments>
						<mastercomment1/>
						<mastercomment2/>
						<mastercomment3/>
						<mastercomment4/>
					</comments>
					<file id="WHOOSHLARG…WHOOSHBYFS105302 "/>
					<filter>
						<effect>
							<name>Audio Levels</name>
							<effectid>audiolevels</effectid>
							<effectcategory>audiolevels</effectcategory>
							<effecttype>audiolevels</effecttype>
							<mediatype>audio</mediatype>
							<parameter>
								<name>Level</name>
								<parameterid>level</parameterid>
								<valuemin>0</valuemin>
								<valuemax>3.98109</valuemax>
								<value>0.199526</value>
							</parameter>
						</effect>
					</filter>
					<filter>
						<effect>
							<name>Audio Pan</name>
							<effectid>audiopan</effectid>
							<effectcategory>audiopan</effectcategory>
							<effecttype>audiopan</effecttype>
							<mediatype>audio</mediatype>
							<parameter>
								<name>Pan</name>
								<parameterid>pan</parameterid>
								<valuemin>-1</valuemin>
								<valuemax>1</valuemax>
								<value>-1</value>
							</parameter>
						</effect>
					</filter>
					<sourcetrack>
						<mediatype>audio</mediatype>
						<trackindex>1</trackindex>
					</sourcetrack>
					<link>
						<linkclipref>WHOOSHLARG…WHOOSHBYFS105302.WAV19</linkclipref>
						<mediatype>audio</mediatype>
						<trackindex>3</trackindex>
						<clipindex>29</clipindex>
						<groupindex>1</groupindex>
					</link>
					<link>
						<linkclipref>WHOOSHLARG…WHOOSHBYFS105302.WAV20</linkclipref>
						<mediatype>audio</mediatype>
						<trackindex>4</trackindex>
						<clipindex>29</clipindex>
						<groupindex>1</groupindex>
					</link>
					<itemhistory>
						<uuid>77A8D4A4-89D6-4C34-9BB5-D9DC3B0D4FF9</uuid>
						<uuid>305121D6-E389-40E5-9751-AC703C2E40FC</uuid>
					</itemhistory>
					<filter>
						<effect>
							<name>Time Remap</name>
							<effectid>timeremap</effectid>
							<effectcategory>motion</effectcategory>
							<effecttype>motion</effecttype>
							<mediatype>audio</mediatype>
							<parameter>
								<parameterid>variablespeed</parameterid>
								<name>variablespeed</name>
								<valuemin>0</valuemin>
								<valuemax>1</valuemax>
								<value>0</value>
							</parameter>
							<parameter>
								<parameterid>mappedduration</parameterid>
								<name>mappedduration</name>
								<value>
									<timecode>
										<rate>
											<timebase>0</timebase>
										</rate>
										<string>0</string>
										<frame>0</frame>
										<displayformat>NDF</displayformat>
									</timecode>
								</value>
							</parameter>
							<parameter>
								<parameterid>speed</parameterid>
								<name>speed</name>
								<valuemin>-10000</valuemin>
								<valuemax>10000</valuemax>
								<value>45</value>
							</parameter>
							<parameter>
								<parameterid>reverse</parameterid>
								<name>reverse</name>
								<value>FALSE</value>
							</parameter>
							<parameter>
								<parameterid>frameblending</parameterid>
								<name>frameblending</name>
								<value>TRUE</value>
							</parameter>
							<parameter>
								<parameterid>graphdict</parameterid>
								<name>graphdict</name>
								<valuemin>0</valuemin>
								<valuemax>91</valuemax>
								<keyframe>
									<when>0</when>
									<value>0.1432</value>
									<speedkfstart>TRUE</speedkfstart>
									<speedvirtualkf>TRUE</speedvirtualkf>
									<anchorOffset>0.1432</anchorOffset>
								</keyframe>
								<keyframe>
									<when>4</when>
									<value>1.94518</value>
									<speedkfin>TRUE</speedkfin>
									<speedvirtualkf>TRUE</speedvirtualkf>
								</keyframe>
								<keyframe>
									<when>99</when>
									<value>44.7422</value>
									<speedkfout>TRUE</speedkfout>
									<speedvirtualkf>TRUE</speedvirtualkf>
								</keyframe>
								<keyframe>
									<when>203</when>
									<value>92.1432</value>
									<speedkfend>TRUE</speedkfend>
									<speedvirtualkf>TRUE</speedvirtualkf>
								</keyframe>
								<interpolation>
									<name>FCPCurve</name>
								</interpolation>
								<value>1.94518</value>
							</parameter>
						</effect>
					</filter>
				</clipitem>
				<clipitem id="00790001.MOV5">
					<name>00790001.MOV</name>
					<duration>3816</duration>
					<rate>
						<ntsc>FALSE</ntsc>
						<timebase>25</timebase>
					</rate>
					<in>351</in>
					<out>382</out>
					<start>22450</start>
					<end>22481</end>
					<subframeoffset>0</subframeoffset>
					<enabled>TRUE</enabled>
					<masterclipid>00790001.MOV1</masterclipid>
					<logginginfo>
						<scene/>
						<shottake/>
						<lognote/>
						<good>FALSE</good>
					</logginginfo>
					<labels>
						<label2/>
					</labels>
					<comments>
						<mastercomment1/>
						<mastercomment2/>
						<mastercomment3/>
						<mastercomment4/>
					</comments>
					<file id="00790001 "/>
					<filter>
						<effect>
							<name>Audio Levels</name>
							<effectid>audiolevels</effectid>
							<effectcategory>audiolevels</effectcategory>
							<effecttype>audiolevels</effecttype>
							<mediatype>audio</mediatype>
							<parameter>
								<name>Level</name>
								<parameterid>level</parameterid>
								<valuemin>0</valuemin>
								<valuemax>3.98109</valuemax>
								<value>1</value>
							</parameter>
						</effect>
					</filter>
					<filter>
						<effect>
							<name>Audio Pan</name>
							<effectid>audiopan</effectid>
							<effectcategory>audiopan</effectcategory>
							<effecttype>audiopan</effecttype>
							<mediatype>audio</mediatype>
							<parameter>
								<name>Pan</name>
								<parameterid>pan</parameterid>
								<valuemin>-1</valuemin>
								<valuemax>1</valuemax>
								<value>0</value>
							</parameter>
						</effect>
					</filter>
					<sourcetrack>
						<mediatype>audio</mediatype>
						<trackindex>1</trackindex>
					</sourcetrack>
					<link>
						<linkclipref>00790001.MOV4</linkclipref>
						<mediatype>video</mediatype>
						<trackindex>2</trackindex>
						<clipindex>62</clipindex>
					</link>
					<link>
						<linkclipref>00790001.MOV5</linkclipref>
						<mediatype>audio</mediatype>
						<trackindex>3</trackindex>
						<clipindex>30</clipindex>
					</link>
					<link>
						<linkclipref>00790001.MOV6</linkclipref>
						<mediatype>audio</mediatype>
						<trackindex>4</trackindex>
						<clipindex>30</clipindex>
					</link>
					<itemhistory>
						<uuid>96F57F2C-9AD5-4A75-A666-9EA8AEAA1310</uuid>
					</itemhistory>
				</clipitem>
				<clipitem id="00782001.MOV6">
					<name>00782001.MOV</name>
					<duration>1248</duration>
					<rate>
						<ntsc>FALSE</ntsc>
						<timebase>25</timebase>
					</rate>
					<in>986</in>
					<out>1029</out>
					<start>22518</start>
					<end>22561</end>
					<subframeoffset>0</subframeoffset>
					<masterclipid>00782001.MOV1</masterclipid>
					<logginginfo>
						<scene/>
						<shottake/>
						<lognote/>
						<good>FALSE</good>
					</logginginfo>
					<labels>
						<label2/>
					</labels>
					<comments>
						<mastercomment1/>
						<mastercomment2/>
						<mastercomment3/>
						<mastercomment4/>
					</comments>
					<file id="00782001 "/>
					<filter>
						<effect>
							<name>Audio Levels</name>
							<effectid>audiolevels</effectid>
							<effectcategory>audiolevels</effectcategory>
							<effecttype>audiolevels</effecttype>
							<mediatype>audio</mediatype>
							<parameter>
								<name>Level</name>
								<parameterid>level</parameterid>
								<valuemin>0</valuemin>
								<valuemax>3.98109</valuemax>
								<value>1</value>
							</parameter>
						</effect>
					</filter>
					<filter>
						<effect>
							<name>Audio Pan</name>
							<effectid>audiopan</effectid>
							<effectcategory>audiopan</effectcategory>
							<effecttype>audiopan</effecttype>
							<mediatype>audio</mediatype>
							<parameter>
								<name>Pan</name>
								<parameterid>pan</parameterid>
								<valuemin>-1</valuemin>
								<valuemax>1</valuemax>
								<value>0</value>
							</parameter>
						</effect>
					</filter>
					<sourcetrack>
						<mediatype>audio</mediatype>
						<trackindex>1</trackindex>
					</sourcetrack>
					<link>
						<linkclipref>00782001.MOV6</linkclipref>
						<mediatype>audio</mediatype>
						<trackindex>3</trackindex>
						<clipindex>31</clipindex>
					</link>
					<link>
						<linkclipref>00782001.MOV7</linkclipref>
						<mediatype>audio</mediatype>
						<trackindex>4</trackindex>
						<clipindex>31</clipindex>
					</link>
					<itemhistory>
						<uuid>D95E5552-C1A3-496B-A586-B0ADC001B358</uuid>
					</itemhistory>
				</clipitem>
				<clipitem id="00791001.MOV4">
					<name>00791001.MOV</name>
					<duration>1224</duration>
					<rate>
						<ntsc>FALSE</ntsc>
						<timebase>25</timebase>
					</rate>
					<in>995</in>
					<out>1029</out>
					<start>22823</start>
					<end>22857</end>
					<subframeoffset>0</subframeoffset>
					<masterclipid>00791001.MOV1</masterclipid>
					<logginginfo>
						<scene/>
						<shottake/>
						<lognote/>
						<good>FALSE</good>
					</logginginfo>
					<labels>
						<label2/>
					</labels>
					<comments>
						<mastercomment1/>
						<mastercomment2/>
						<mastercomment3/>
						<mastercomment4/>
					</comments>
					<file id="00791001 "/>
					<filter>
						<effect>
							<name>Audio Levels</name>
							<effectid>audiolevels</effectid>
							<effectcategory>audiolevels</effectcategory>
							<effecttype>audiolevels</effecttype>
							<mediatype>audio</mediatype>
							<parameter>
								<name>Level</name>
								<parameterid>level</parameterid>
								<valuemin>0</valuemin>
								<valuemax>3.98109</valuemax>
								<value>0</value>
							</parameter>
						</effect>
					</filter>
					<filter>
						<effect>
							<name>Audio Pan</name>
							<effectid>audiopan</effectid>
							<effectcategory>audiopan</effectcategory>
							<effecttype>audiopan</effecttype>
							<mediatype>audio</mediatype>
							<parameter>
								<name>Pan</name>
								<parameterid>pan</parameterid>
								<valuemin>-1</valuemin>
								<valuemax>1</valuemax>
								<value>0</value>
							</parameter>
						</effect>
					</filter>
					<sourcetrack>
						<mediatype>audio</mediatype>
						<trackindex>1</trackindex>
					</sourcetrack>
					<itemhistory>
						<uuid>019D28FA-A4B7-468C-AA8C-D6C6C8C52BF5</uuid>
					</itemhistory>
				</clipitem>
				<clipitem id="Treet Playback Miks 1 ">
					<name>Treet Playback Miks 1</name>
					<duration>5351</duration>
					<rate>
						<ntsc>FALSE</ntsc>
						<timebase>25</timebase>
					</rate>
					<in>0</in>
					<out>4230</out>
					<start>23888</start>
					<end>28118</end>
					<masterclipid>Treet Playback Miks 1 1</masterclipid>
					<logginginfo>
						<scene/>
						<shottake/>
						<lognote/>
						<good>FALSE</good>
					</logginginfo>
					<labels>
						<label2/>
					</labels>
					<comments>
						<mastercomment1/>
						<mastercomment2/>
						<mastercomment3/>
						<mastercomment4/>
					</comments>
					<file id="Treet Playback Miks 1 2">
						<name>Treet Playback Miks 1.mp3</name>
						<pathurl>file://localhost/Volumes/Askepott/Prosjekter/DNPR637010_Kra%CC%8Akeklubben_TEM_011212/MUSIKK/MUSIKKVIDEO/Treet%20Playback%20Miks%201.mp3</pathurl>
						<rate>
							<timebase>25</timebase>
						</rate>
						<duration>5351</duration>
						<media>
							<audio>
								<samplecharacteristics>
									<samplerate>44100</samplerate>
									<depth>32</depth>
								</samplecharacteristics>
								<channelcount>2</channelcount>
							</audio>
						</media>
					</file>
					<filter>
						<effect>
							<name>Audio Levels</name>
							<effectid>audiolevels</effectid>
							<effectcategory>audiolevels</effectcategory>
							<effecttype>audiolevels</effecttype>
							<mediatype>audio</mediatype>
							<parameter>
								<name>Level</name>
								<parameterid>level</parameterid>
								<valuemin>0</valuemin>
								<valuemax>3.98109</valuemax>
								<keyframe>
									<when>3747.14</when>
									<value>1</value>
								</keyframe>
								<keyframe>
									<when>3857.14</when>
									<value>0.0354813</value>
								</keyframe>
								<keyframe>
									<when>4203.57</when>
									<value>0</value>
								</keyframe>
								<interpolation>
									<name>FCPCurve</name>
								</interpolation>
								<value>1</value>
							</parameter>
						</effect>
					</filter>
					<filter>
						<effect>
							<name>Audio Pan</name>
							<effectid>audiopan</effectid>
							<effectcategory>audiopan</effectcategory>
							<effecttype>audiopan</effecttype>
							<mediatype>audio</mediatype>
							<parameter>
								<name>Pan</name>
								<parameterid>pan</parameterid>
								<valuemin>-1</valuemin>
								<valuemax>1</valuemax>
								<value>-1</value>
							</parameter>
						</effect>
					</filter>
					<sourcetrack>
						<mediatype>audio</mediatype>
						<trackindex>1</trackindex>
					</sourcetrack>
					<link>
						<linkclipref>Treet Playback Miks 1 </linkclipref>
						<mediatype>audio</mediatype>
						<trackindex>3</trackindex>
						<clipindex>33</clipindex>
						<groupindex>1</groupindex>
					</link>
					<link>
						<linkclipref>Treet Playback Miks 1 3</linkclipref>
						<mediatype>audio</mediatype>
						<trackindex>4</trackindex>
						<clipindex>33</clipindex>
						<groupindex>1</groupindex>
					</link>
					<itemhistory>
						<uuid>24CE6507-46C0-4B2D-8FE1-BB56584D716F</uuid>
					</itemhistory>
				</clipitem>
				<clipitem id="SCD072220.wav">
					<name>SCD072220.wav</name>
					<duration>3140</duration>
					<rate>
						<ntsc>FALSE</ntsc>
						<timebase>25</timebase>
					</rate>
					<in>0</in>
					<out>237</out>
					<start>28431</start>
					<end>28668</end>
					<subframeoffset>0</subframeoffset>
					<masterclipid>SCD072220.wav1</masterclipid>
					<logginginfo>
						<scene/>
						<shottake/>
						<lognote/>
						<good>FALSE</good>
					</logginginfo>
					<labels>
						<label2/>
					</labels>
					<comments>
						<mastercomment1>Munnharpe</mastercomment1>
						<mastercomment2/>
						<mastercomment3/>
						<mastercomment4/>
					</comments>
					<file id="SCD072220 ">
						<name>SCD072220.wav</name>
						<pathurl>file://localhost/Volumes/Askepott/Prosjekter/DNPR637010_Kra%CC%8Akeklubben_TEM_011212/MUSIKK/NATURLEK/trollskog/SCD072220.wav</pathurl>
						<rate>
							<timebase>25</timebase>
						</rate>
						<duration>3140</duration>
						<timecode>
							<rate>
								<timebase>25</timebase>
							</rate>
							<string>00:54:23:10</string>
							<frame>81585</frame>
							<displayformat>NDF</displayformat>
							<source>source</source>
						</timecode>
						<media>
							<audio>
								<samplecharacteristics>
									<samplerate>48000</samplerate>
									<depth>16</depth>
								</samplecharacteristics>
								<channelcount>2</channelcount>
							</audio>
						</media>
					</file>
					<filter>
						<effect>
							<name>Audio Levels</name>
							<effectid>audiolevels</effectid>
							<effectcategory>audiolevels</effectcategory>
							<effecttype>audiolevels</effecttype>
							<mediatype>audio</mediatype>
							<parameter>
								<name>Level</name>
								<parameterid>level</parameterid>
								<valuemin>0</valuemin>
								<valuemax>3.98109</valuemax>
								<keyframe>
									<when>184.429</when>
									<value>0.199526</value>
								</keyframe>
								<keyframe>
									<when>237</when>
									<value>0</value>
								</keyframe>
								<interpolation>
									<name>FCPCurve</name>
								</interpolation>
								<value>1</value>
							</parameter>
						</effect>
					</filter>
					<filter>
						<effect>
							<name>Audio Pan</name>
							<effectid>audiopan</effectid>
							<effectcategory>audiopan</effectcategory>
							<effecttype>audiopan</effecttype>
							<mediatype>audio</mediatype>
							<parameter>
								<name>Pan</name>
								<parameterid>pan</parameterid>
								<valuemin>-1</valuemin>
								<valuemax>1</valuemax>
								<value>-1</value>
							</parameter>
						</effect>
					</filter>
					<sourcetrack>
						<mediatype>audio</mediatype>
						<trackindex>1</trackindex>
					</sourcetrack>
					<link>
						<linkclipref>SCD072220.wav</linkclipref>
						<mediatype>audio</mediatype>
						<trackindex>3</trackindex>
						<clipindex>34</clipindex>
						<groupindex>1</groupindex>
					</link>
					<link>
						<linkclipref>SCD072220.wav2</linkclipref>
						<mediatype>audio</mediatype>
						<trackindex>4</trackindex>
						<clipindex>34</clipindex>
						<groupindex>1</groupindex>
					</link>
					<itemhistory>
						<uuid>004291E3-92F2-40B7-AECC-92086E4691D7</uuid>
					</itemhistory>
				</clipitem>
				<enabled>TRUE</enabled>
				<locked>FALSE</locked>
				<outputchannelindex>1</outputchannelindex>
			</track>
			<track>
				<clipitem id="Vignett Ferdigmiks.wav2">
					<name>Vignett Ferdigmiks.wav</name>
					<duration>1604</duration>
					<rate>
						<ntsc>FALSE</ntsc>
						<timebase>25</timebase>
					</rate>
					<in>0</in>
					<out>916</out>
					<start>0</start>
					<end>916</end>
					<masterclipid>Vignett Ferdigmiks.wav1</masterclipid>
					<logginginfo>
						<scene/>
						<shottake/>
						<lognote/>
						<good>FALSE</good>
					</logginginfo>
					<labels>
						<label2/>
					</labels>
					<comments>
						<mastercomment1/>
						<mastercomment2/>
						<mastercomment3/>
						<mastercomment4/>
					</comments>
					<file id="Vignett Ferdigmiks"/>
					<filter>
						<effect>
							<name>Audio Levels</name>
							<effectid>audiolevels</effectid>
							<effectcategory>audiolevels</effectcategory>
							<effecttype>audiolevels</effecttype>
							<mediatype>audio</mediatype>
							<parameter>
								<name>Level</name>
								<parameterid>level</parameterid>
								<valuemin>0</valuemin>
								<valuemax>3.98109</valuemax>
								<value>1</value>
							</parameter>
						</effect>
					</filter>
					<filter>
						<effect>
							<name>Audio Pan</name>
							<effectid>audiopan</effectid>
							<effectcategory>audiopan</effectcategory>
							<effecttype>audiopan</effecttype>
							<mediatype>audio</mediatype>
							<parameter>
								<name>Pan</name>
								<parameterid>pan</parameterid>
								<valuemin>-1</valuemin>
								<valuemax>1</valuemax>
								<value>1</value>
							</parameter>
						</effect>
					</filter>
					<sourcetrack>
						<mediatype>audio</mediatype>
						<trackindex>2</trackindex>
					</sourcetrack>
					<link>
						<linkclipref>Vignett Ferdigmiks.wav</linkclipref>
						<mediatype>audio</mediatype>
						<trackindex>3</trackindex>
						<clipindex>1</clipindex>
						<groupindex>1</groupindex>
					</link>
					<link>
						<linkclipref>Vignett Ferdigmiks.wav2</linkclipref>
						<mediatype>audio</mediatype>
						<trackindex>4</trackindex>
						<clipindex>1</clipindex>
						<groupindex>1</groupindex>
					</link>
					<itemhistory>
						<uuid>AF35D28B-E495-412D-8E12-4473020FAE25</uuid>
					</itemhistory>
				</clipitem>
				<clipitem id="Cartoon Timpani.caf2">
					<name>Cartoon Timpani.caf</name>
					<duration>41</duration>
					<rate>
						<ntsc>FALSE</ntsc>
						<timebase>25</timebase>
					</rate>
					<in>0</in>
					<out>41</out>
					<start>1620</start>
					<end>-1</end>
					<subframeoffset>0</subframeoffset>
					<masterclipid>Cartoon Timpani.caf1</masterclipid>
					<logginginfo>
						<scene/>
						<shottake/>
						<lognote/>
						<good>FALSE</good>
					</logginginfo>
					<labels>
						<label2/>
					</labels>
					<comments>
						<mastercomment1/>
						<mastercomment2/>
						<mastercomment3/>
						<mastercomment4/>
					</comments>
					<file id="Cartoon Timpani"/>
					<filter>
						<effect>
							<name>Audio Levels</name>
							<effectid>audiolevels</effectid>
							<effectcategory>audiolevels</effectcategory>
							<effecttype>audiolevels</effecttype>
							<mediatype>audio</mediatype>
							<parameter>
								<name>Level</name>
								<parameterid>level</parameterid>
								<valuemin>0</valuemin>
								<valuemax>3.98109</valuemax>
								<keyframe>
									<when>29.8571</when>
									<value>0</value>
								</keyframe>
								<keyframe>
									<when>38.7143</when>
									<value>0.446684</value>
								</keyframe>
								<interpolation>
									<name>FCPCurve</name>
								</interpolation>
								<value>1</value>
							</parameter>
						</effect>
					</filter>
					<filter>
						<effect>
							<name>Audio Pan</name>
							<effectid>audiopan</effectid>
							<effectcategory>audiopan</effectcategory>
							<effecttype>audiopan</effecttype>
							<mediatype>audio</mediatype>
							<parameter>
								<name>Pan</name>
								<parameterid>pan</parameterid>
								<valuemin>-1</valuemin>
								<valuemax>1</valuemax>
								<value>1</value>
							</parameter>
						</effect>
					</filter>
					<sourcetrack>
						<mediatype>audio</mediatype>
						<trackindex>2</trackindex>
					</sourcetrack>
					<link>
						<linkclipref>Cartoon Timpani.caf</linkclipref>
						<mediatype>audio</mediatype>
						<trackindex>3</trackindex>
						<clipindex>2</clipindex>
						<groupindex>1</groupindex>
					</link>
					<link>
						<linkclipref>Cartoon Timpani.caf2</linkclipref>
						<mediatype>audio</mediatype>
						<trackindex>4</trackindex>
						<clipindex>2</clipindex>
						<groupindex>1</groupindex>
					</link>
					<itemhistory>
						<uuid>DE360458-5A99-4659-ADE9-117B6340006C</uuid>
					</itemhistory>
					<filter>
						<effect>
							<name>Time Remap</name>
							<effectid>timeremap</effectid>
							<effectcategory>motion</effectcategory>
							<effecttype>motion</effecttype>
							<mediatype>audio</mediatype>
							<parameter>
								<parameterid>variablespeed</parameterid>
								<name>variablespeed</name>
								<valuemin>0</valuemin>
								<valuemax>1</valuemax>
								<value>0</value>
							</parameter>
							<parameter>
								<parameterid>mappedduration</parameterid>
								<name>mappedduration</name>
								<value>
									<timecode>
										<rate>
											<timebase>0</timebase>
										</rate>
										<string>0</string>
										<frame>0</frame>
										<displayformat>NDF</displayformat>
									</timecode>
								</value>
							</parameter>
							<parameter>
								<parameterid>speed</parameterid>
								<name>speed</name>
								<valuemin>-10000</valuemin>
								<valuemax>10000</valuemax>
								<value>100</value>
							</parameter>
							<parameter>
								<parameterid>reverse</parameterid>
								<name>reverse</name>
								<value>TRUE</value>
							</parameter>
							<parameter>
								<parameterid>frameblending</parameterid>
								<name>frameblending</name>
								<value>TRUE</value>
							</parameter>
							<parameter>
								<parameterid>graphdict</parameterid>
								<name>graphdict</name>
								<valuemin>0</valuemin>
								<valuemax>40</valuemax>
								<keyframe>
									<when>0</when>
									<value>42</value>
									<speedkfin>TRUE</speedkfin>
								</keyframe>
								<keyframe>
									<when>41</when>
									<value>1</value>
									<speedkfout>TRUE</speedkfout>
									<speedvirtualkf>TRUE</speedvirtualkf>
								</keyframe>
								<interpolation>
									<name>FCPCurve</name>
								</interpolation>
								<value>40</value>
							</parameter>
						</effect>
					</filter>
				</clipitem>
				<transitionitem>
					<rate>
						<ntsc>FALSE</ntsc>
						<timebase>25</timebase>
					</rate>
					<start>1659</start>
					<end>1661</end>
					<alignment>center</alignment>
					<effect>
						<name>Cross Fade (+3dB)</name>
						<effectid>KGAudioTransCrossFade3dB</effectid>
						<effecttype>transition</effecttype>
						<mediatype>audio</mediatype>
					</effect>
				</transitionitem>
				<clipitem id="Cartoon Timpani.caf4">
					<name>Cartoon Timpani.caf</name>
					<duration>41</duration>
					<rate>
						<ntsc>FALSE</ntsc>
						<timebase>25</timebase>
					</rate>
					<in>0</in>
					<out>41</out>
					<start>-1</start>
					<end>1700</end>
					<subframeoffset>0</subframeoffset>
					<masterclipid>Cartoon Timpani.caf1</masterclipid>
					<logginginfo>
						<scene/>
						<shottake/>
						<lognote/>
						<good>FALSE</good>
					</logginginfo>
					<labels>
						<label2/>
					</labels>
					<comments>
						<mastercomment1/>
						<mastercomment2/>
						<mastercomment3/>
						<mastercomment4/>
					</comments>
					<file id="Cartoon Timpani"/>
					<filter>
						<effect>
							<name>Audio Levels</name>
							<effectid>audiolevels</effectid>
							<effectcategory>audiolevels</effectcategory>
							<effecttype>audiolevels</effecttype>
							<mediatype>audio</mediatype>
							<parameter>
								<name>Level</name>
								<parameterid>level</parameterid>
								<valuemin>0</valuemin>
								<valuemax>3.98109</valuemax>
								<keyframe>
									<when>9.42857</when>
									<value>0.446684</value>
								</keyframe>
								<keyframe>
									<when>40.1429</when>
									<value>0</value>
								</keyframe>
								<interpolation>
									<name>FCPCurve</name>
								</interpolation>
								<value>0.446684</value>
							</parameter>
						</effect>
					</filter>
					<filter>
						<effect>
							<name>Audio Pan</name>
							<effectid>audiopan</effectid>
							<effectcategory>audiopan</effectcategory>
							<effecttype>audiopan</effecttype>
							<mediatype>audio</mediatype>
							<parameter>
								<name>Pan</name>
								<parameterid>pan</parameterid>
								<valuemin>-1</valuemin>
								<valuemax>1</valuemax>
								<value>1</value>
							</parameter>
						</effect>
					</filter>
					<sourcetrack>
						<mediatype>audio</mediatype>
						<trackindex>2</trackindex>
					</sourcetrack>
					<link>
						<linkclipref>Cartoon Timpani.caf3</linkclipref>
						<mediatype>audio</mediatype>
						<trackindex>3</trackindex>
						<clipindex>4</clipindex>
						<groupindex>1</groupindex>
					</link>
					<link>
						<linkclipref>Cartoon Timpani.caf4</linkclipref>
						<mediatype>audio</mediatype>
						<trackindex>4</trackindex>
						<clipindex>4</clipindex>
						<groupindex>1</groupindex>
					</link>
					<itemhistory>
						<uuid>2A41BB49-0800-4039-A4DE-DFA0470B5298</uuid>
					</itemhistory>
				</clipitem>
				<clipitem id="SCD054824.wav2">
					<name>SCD054824.wav</name>
					<duration>3817</duration>
					<rate>
						<ntsc>FALSE</ntsc>
						<timebase>25</timebase>
					</rate>
					<in>0</in>
					<out>127</out>
					<start>4643</start>
					<end>-1</end>
					<subframeoffset>0</subframeoffset>
					<masterclipid>SCD054824.wav1</masterclipid>
					<logginginfo>
						<scene/>
						<shottake/>
						<lognote/>
						<good>FALSE</good>
					</logginginfo>
					<labels>
						<label2/>
					</labels>
					<comments>
						<mastercomment1/>
						<mastercomment2/>
						<mastercomment3/>
						<mastercomment4/>
					</comments>
					<file id="SCD054824 "/>
					<filter>
						<effect>
							<name>Audio Levels</name>
							<effectid>audiolevels</effectid>
							<effectcategory>audiolevels</effectcategory>
							<effecttype>audiolevels</effecttype>
							<mediatype>audio</mediatype>
							<parameter>
								<name>Level</name>
								<parameterid>level</parameterid>
								<valuemin>0</valuemin>
								<valuemax>3.98109</valuemax>
								<value>1</value>
							</parameter>
						</effect>
					</filter>
					<filter>
						<effect>
							<name>Audio Pan</name>
							<effectid>audiopan</effectid>
							<effectcategory>audiopan</effectcategory>
							<effecttype>audiopan</effecttype>
							<mediatype>audio</mediatype>
							<parameter>
								<name>Pan</name>
								<parameterid>pan</parameterid>
								<valuemin>-1</valuemin>
								<valuemax>1</valuemax>
								<value>1</value>
							</parameter>
						</effect>
					</filter>
					<sourcetrack>
						<mediatype>audio</mediatype>
						<trackindex>2</trackindex>
					</sourcetrack>
					<link>
						<linkclipref>SCD054824.wav</linkclipref>
						<mediatype>audio</mediatype>
						<trackindex>3</trackindex>
						<clipindex>5</clipindex>
						<groupindex>1</groupindex>
					</link>
					<link>
						<linkclipref>SCD054824.wav2</linkclipref>
						<mediatype>audio</mediatype>
						<trackindex>4</trackindex>
						<clipindex>5</clipindex>
						<groupindex>1</groupindex>
					</link>
					<itemhistory>
						<uuid>BA0EBF67-8419-40B1-B393-2C7AA5B1ABF3</uuid>
					</itemhistory>
				</clipitem>
				<transitionitem>
					<rate>
						<ntsc>FALSE</ntsc>
						<timebase>25</timebase>
					</rate>
					<start>4769</start>
					<end>4770</end>
					<alignment>center</alignment>
					<effect>
						<name>Cross Fade (+3dB)</name>
						<effectid>KGAudioTransCrossFade3dB</effectid>
						<effecttype>transition</effecttype>
						<mediatype>audio</mediatype>
					</effect>
				</transitionitem>
				<clipitem id="SCD007902 3">
					<name>SCD007902</name>
					<duration>4700</duration>
					<rate>
						<ntsc>FALSE</ntsc>
						<timebase>25</timebase>
					</rate>
					<in>8</in>
					<out>181</out>
					<start>-1</start>
					<end>-1</end>
					<masterclipid>SCD007902 1</masterclipid>
					<logginginfo>
						<scene/>
						<shottake/>
						<lognote/>
						<good>FALSE</good>
					</logginginfo>
					<labels>
						<label2/>
					</labels>
					<comments>
						<mastercomment1/>
						<mastercomment2/>
						<mastercomment3/>
						<mastercomment4/>
					</comments>
					<file id="SCD007902 2"/>
					<filter>
						<effect>
							<name>Audio Levels</name>
							<effectid>audiolevels</effectid>
							<effectcategory>audiolevels</effectcategory>
							<effecttype>audiolevels</effecttype>
							<mediatype>audio</mediatype>
							<parameter>
								<name>Level</name>
								<parameterid>level</parameterid>
								<valuemin>0</valuemin>
								<valuemax>3.98109</valuemax>
								<keyframe>
									<when>0</when>
									<value>3.98107</value>
								</keyframe>
								<keyframe>
									<when>69.2143</when>
									<value>0.891251</value>
								</keyframe>
								<keyframe>
									<when>85.6071</when>
									<value>0.158489</value>
								</keyframe>
								<interpolation>
									<name>FCPCurve</name>
								</interpolation>
								<value>0.281838</value>
							</parameter>
						</effect>
					</filter>
					<filter>
						<effect>
							<name>Audio Pan</name>
							<effectid>audiopan</effectid>
							<effectcategory>audiopan</effectcategory>
							<effecttype>audiopan</effecttype>
							<mediatype>audio</mediatype>
							<parameter>
								<name>Pan</name>
								<parameterid>pan</parameterid>
								<valuemin>-1</valuemin>
								<valuemax>1</valuemax>
								<value>1</value>
							</parameter>
						</effect>
					</filter>
					<sourcetrack>
						<mediatype>audio</mediatype>
						<trackindex>2</trackindex>
					</sourcetrack>
					<link>
						<linkclipref>SCD007902 </linkclipref>
						<mediatype>audio</mediatype>
						<trackindex>3</trackindex>
						<clipindex>7</clipindex>
						<groupindex>1</groupindex>
					</link>
					<link>
						<linkclipref>SCD007902 3</linkclipref>
						<mediatype>audio</mediatype>
						<trackindex>4</trackindex>
						<clipindex>7</clipindex>
						<groupindex>1</groupindex>
					</link>
					<itemhistory>
						<uuid>F23A687D-7597-4802-A92D-9DE3CC80CDE0</uuid>
					</itemhistory>
				</clipitem>
				<transitionitem>
					<rate>
						<ntsc>FALSE</ntsc>
						<timebase>25</timebase>
					</rate>
					<start>4892</start>
					<end>4942</end>
					<alignment>center</alignment>
					<effect>
						<name>Cross Fade (+3dB) Copy</name>
						<effectid>KGAudioTransCrossFade3dB</effectid>
						<effecttype>transition</effecttype>
						<mediatype>audio</mediatype>
					</effect>
				</transitionitem>
				<clipitem id="SCD007902 5">
					<name>SCD007902</name>
					<duration>4700</duration>
					<rate>
						<ntsc>FALSE</ntsc>
						<timebase>25</timebase>
					</rate>
					<in>404</in>
					<out>603</out>
					<start>-1</start>
					<end>-1</end>
					<masterclipid>SCD007902 1</masterclipid>
					<logginginfo>
						<scene/>
						<shottake/>
						<lognote/>
						<good>FALSE</good>
					</logginginfo>
					<labels>
						<label2/>
					</labels>
					<comments>
						<mastercomment1/>
						<mastercomment2/>
						<mastercomment3/>
						<mastercomment4/>
					</comments>
					<file id="SCD007902 2"/>
					<filter>
						<effect>
							<name>Audio Levels</name>
							<effectid>audiolevels</effectid>
							<effectcategory>audiolevels</effectcategory>
							<effecttype>audiolevels</effecttype>
							<mediatype>audio</mediatype>
							<parameter>
								<name>Level</name>
								<parameterid>level</parameterid>
								<valuemin>0</valuemin>
								<valuemax>3.98109</valuemax>
								<keyframe>
									<when>0</when>
									<value>3.98107</value>
								</keyframe>
								<keyframe>
									<when>146.036</when>
									<value>0.281838</value>
								</keyframe>
								<interpolation>
									<name>FCPCurve</name>
								</interpolation>
								<value>0.281838</value>
							</parameter>
						</effect>
					</filter>
					<filter>
						<effect>
							<name>Audio Pan</name>
							<effectid>audiopan</effectid>
							<effectcategory>audiopan</effectcategory>
							<effecttype>audiopan</effecttype>
							<mediatype>audio</mediatype>
							<parameter>
								<name>Pan</name>
								<parameterid>pan</parameterid>
								<valuemin>-1</valuemin>
								<valuemax>1</valuemax>
								<value>1</value>
							</parameter>
						</effect>
					</filter>
					<sourcetrack>
						<mediatype>audio</mediatype>
						<trackindex>2</trackindex>
					</sourcetrack>
					<link>
						<linkclipref>SCD007902 4</linkclipref>
						<mediatype>audio</mediatype>
						<trackindex>3</trackindex>
						<clipindex>9</clipindex>
						<groupindex>1</groupindex>
					</link>
					<link>
						<linkclipref>SCD007902 5</linkclipref>
						<mediatype>audio</mediatype>
						<trackindex>4</trackindex>
						<clipindex>9</clipindex>
						<groupindex>1</groupindex>
					</link>
					<itemhistory>
						<uuid>10D2CC28-5317-4E11-8965-894209F271CF</uuid>
					</itemhistory>
				</clipitem>
				<transitionitem>
					<rate>
						<ntsc>FALSE</ntsc>
						<timebase>25</timebase>
					</rate>
					<start>5041</start>
					<end>5091</end>
					<alignment>end-black</alignment>
					<effect>
						<name>Cross Fade (+3dB) Copy</name>
						<effectid>KGAudioTransCrossFade3dB</effectid>
						<effecttype>transition</effecttype>
						<mediatype>audio</mediatype>
					</effect>
				</transitionitem>
				<clipitem id="DYR18098_01 7">
					<name>DYR18098_01</name>
					<duration>3421</duration>
					<rate>
						<ntsc>FALSE</ntsc>
						<timebase>25</timebase>
					</rate>
					<in>1674</in>
					<out>1744</out>
					<start>7079</start>
					<end>7149</end>
					<subframeoffset>0</subframeoffset>
					<masterclipid>DYR18098_01 1</masterclipid>
					<logginginfo>
						<scene/>
						<shottake/>
						<lognote/>
						<good>FALSE</good>
					</logginginfo>
					<labels>
						<label2/>
					</labels>
					<comments>
						<mastercomment1/>
						<mastercomment2/>
						<mastercomment3/>
						<mastercomment4/>
					</comments>
					<file id="DYR18098_01 2"/>
					<filter>
						<effect>
							<name>Audio Levels</name>
							<effectid>audiolevels</effectid>
							<effectcategory>audiolevels</effectcategory>
							<effecttype>audiolevels</effecttype>
							<mediatype>audio</mediatype>
							<parameter>
								<name>Level</name>
								<parameterid>level</parameterid>
								<valuemin>0</valuemin>
								<valuemax>3.98109</valuemax>
								<value>0</value>
							</parameter>
						</effect>
					</filter>
					<filter>
						<effect>
							<name>Audio Pan</name>
							<effectid>audiopan</effectid>
							<effectcategory>audiopan</effectcategory>
							<effecttype>audiopan</effecttype>
							<mediatype>audio</mediatype>
							<parameter>
								<name>Pan</name>
								<parameterid>pan</parameterid>
								<valuemin>-1</valuemin>
								<valuemax>1</valuemax>
								<value>0</value>
							</parameter>
						</effect>
					</filter>
					<sourcetrack>
						<mediatype>audio</mediatype>
						<trackindex>2</trackindex>
					</sourcetrack>
					<link>
						<linkclipref>DYR18098_01 5</linkclipref>
						<mediatype>video</mediatype>
						<trackindex>2</trackindex>
						<clipindex>16</clipindex>
					</link>
					<link>
						<linkclipref>DYR18098_01 6</linkclipref>
						<mediatype>audio</mediatype>
						<trackindex>3</trackindex>
						<clipindex>11</clipindex>
					</link>
					<link>
						<linkclipref>DYR18098_01 7</linkclipref>
						<mediatype>audio</mediatype>
						<trackindex>4</trackindex>
						<clipindex>11</clipindex>
					</link>
					<itemhistory>
						<uuid>3277FB21-2CDB-4676-86C0-2E5248A9E1A4</uuid>
					</itemhistory>
				</clipitem>
				<clipitem id="DYR18101_01 4">
					<name>DYR18101_01</name>
					<duration>549</duration>
					<rate>
						<ntsc>FALSE</ntsc>
						<timebase>25</timebase>
					</rate>
					<in>64</in>
					<out>132</out>
					<start>7263</start>
					<end>7331</end>
					<subframeoffset>0</subframeoffset>
					<masterclipid>DYR18101_01 1</masterclipid>
					<logginginfo>
						<scene/>
						<shottake/>
						<lognote/>
						<good>FALSE</good>
					</logginginfo>
					<labels>
						<label2/>
					</labels>
					<comments>
						<mastercomment1/>
						<mastercomment2/>
						<mastercomment3/>
						<mastercomment4/>
					</comments>
					<file id="DYR18101_01 2"/>
					<filter>
						<effect>
							<name>Audio Levels</name>
							<effectid>audiolevels</effectid>
							<effectcategory>audiolevels</effectcategory>
							<effecttype>audiolevels</effecttype>
							<mediatype>audio</mediatype>
							<parameter>
								<name>Level</name>
								<parameterid>level</parameterid>
								<valuemin>0</valuemin>
								<valuemax>3.98109</valuemax>
								<value>0</value>
							</parameter>
						</effect>
					</filter>
					<filter>
						<effect>
							<name>Audio Pan</name>
							<effectid>audiopan</effectid>
							<effectcategory>audiopan</effectcategory>
							<effecttype>audiopan</effecttype>
							<mediatype>audio</mediatype>
							<parameter>
								<name>Pan</name>
								<parameterid>pan</parameterid>
								<valuemin>-1</valuemin>
								<valuemax>1</valuemax>
								<value>0</value>
							</parameter>
						</effect>
					</filter>
					<sourcetrack>
						<mediatype>audio</mediatype>
						<trackindex>2</trackindex>
					</sourcetrack>
					<link>
						<linkclipref>DYR18101_01 </linkclipref>
						<mediatype>video</mediatype>
						<trackindex>2</trackindex>
						<clipindex>17</clipindex>
					</link>
					<link>
						<linkclipref>DYR18101_01 3</linkclipref>
						<mediatype>audio</mediatype>
						<trackindex>3</trackindex>
						<clipindex>12</clipindex>
					</link>
					<link>
						<linkclipref>DYR18101_01 4</linkclipref>
						<mediatype>audio</mediatype>
						<trackindex>4</trackindex>
						<clipindex>12</clipindex>
					</link>
					<itemhistory>
						<uuid>C081E558-9B75-4CBB-88C7-A5DE04F731D5</uuid>
					</itemhistory>
				</clipitem>
				<clipitem id="DYR18121_01 8">
					<name>DYR18121_01</name>
					<duration>244</duration>
					<rate>
						<ntsc>FALSE</ntsc>
						<timebase>25</timebase>
					</rate>
					<in>200</in>
					<out>232</out>
					<start>7868</start>
					<end>7900</end>
					<subframeoffset>0</subframeoffset>
					<masterclipid>DYR18121_01 1</masterclipid>
					<logginginfo>
						<scene/>
						<shottake/>
						<lognote/>
						<good>FALSE</good>
					</logginginfo>
					<labels>
						<label2/>
					</labels>
					<comments>
						<mastercomment1/>
						<mastercomment2/>
						<mastercomment3/>
						<mastercomment4/>
					</comments>
					<file id="DYR18121_01 2"/>
					<filter>
						<effect>
							<name>Audio Levels</name>
							<effectid>audiolevels</effectid>
							<effectcategory>audiolevels</effectcategory>
							<effecttype>audiolevels</effecttype>
							<mediatype>audio</mediatype>
							<parameter>
								<name>Level</name>
								<parameterid>level</parameterid>
								<valuemin>0</valuemin>
								<valuemax>3.98109</valuemax>
								<value>1</value>
							</parameter>
						</effect>
					</filter>
					<filter>
						<effect>
							<name>Audio Pan</name>
							<effectid>audiopan</effectid>
							<effectcategory>audiopan</effectcategory>
							<effecttype>audiopan</effecttype>
							<mediatype>audio</mediatype>
							<parameter>
								<name>Pan</name>
								<parameterid>pan</parameterid>
								<valuemin>-1</valuemin>
								<valuemax>1</valuemax>
								<value>0</value>
							</parameter>
						</effect>
					</filter>
					<sourcetrack>
						<mediatype>audio</mediatype>
						<trackindex>2</trackindex>
					</sourcetrack>
					<link>
						<linkclipref>DYR18121_01 7</linkclipref>
						<mediatype>audio</mediatype>
						<trackindex>3</trackindex>
						<clipindex>13</clipindex>
					</link>
					<link>
						<linkclipref>DYR18121_01 8</linkclipref>
						<mediatype>audio</mediatype>
						<trackindex>4</trackindex>
						<clipindex>13</clipindex>
					</link>
					<itemhistory>
						<uuid>00388203-9191-435D-9F65-C8BAB1FA22C1</uuid>
					</itemhistory>
				</clipitem>
				<clipitem id="DYR18064_01 6">
					<name>DYR18064_01</name>
					<duration>757</duration>
					<rate>
						<ntsc>FALSE</ntsc>
						<timebase>25</timebase>
					</rate>
					<in>495</in>
					<out>496</out>
					<start>7900</start>
					<end>7901</end>
					<subframeoffset>0</subframeoffset>
					<masterclipid>DYR18064_01 1</masterclipid>
					<logginginfo>
						<scene/>
						<shottake/>
						<lognote/>
						<good>FALSE</good>
					</logginginfo>
					<labels>
						<label2/>
					</labels>
					<comments>
						<mastercomment1/>
						<mastercomment2/>
						<mastercomment3/>
						<mastercomment4/>
					</comments>
					<file id="DYR18064_01 2"/>
					<filter>
						<effect>
							<name>Audio Levels</name>
							<effectid>audiolevels</effectid>
							<effectcategory>audiolevels</effectcategory>
							<effecttype>audiolevels</effecttype>
							<mediatype>audio</mediatype>
							<parameter>
								<name>Level</name>
								<parameterid>level</parameterid>
								<valuemin>0</valuemin>
								<valuemax>3.98109</valuemax>
								<value>0</value>
							</parameter>
						</effect>
					</filter>
					<filter>
						<effect>
							<name>Audio Pan</name>
							<effectid>audiopan</effectid>
							<effectcategory>audiopan</effectcategory>
							<effecttype>audiopan</effecttype>
							<mediatype>audio</mediatype>
							<parameter>
								<name>Pan</name>
								<parameterid>pan</parameterid>
								<valuemin>-1</valuemin>
								<valuemax>1</valuemax>
								<value>0</value>
							</parameter>
						</effect>
					</filter>
					<sourcetrack>
						<mediatype>audio</mediatype>
						<trackindex>2</trackindex>
					</sourcetrack>
					<link>
						<linkclipref>DYR18064_01 5</linkclipref>
						<mediatype>audio</mediatype>
						<trackindex>3</trackindex>
						<clipindex>14</clipindex>
					</link>
					<link>
						<linkclipref>DYR18064_01 6</linkclipref>
						<mediatype>audio</mediatype>
						<trackindex>4</trackindex>
						<clipindex>14</clipindex>
					</link>
					<itemhistory>
						<uuid>B1FC58C7-821A-47D0-983C-3F2D992611E0</uuid>
					</itemhistory>
				</clipitem>
				<clipitem id="WHOOSHLARG…WHOOSHBYFS105004 3">
					<name>WHOOSHLARG…WHOOSHBYFS105004</name>
					<duration>325</duration>
					<rate>
						<ntsc>FALSE</ntsc>
						<timebase>25</timebase>
					</rate>
					<in>41</in>
					<out>127</out>
					<start>9462</start>
					<end>9548</end>
					<enabled>TRUE</enabled>
					<masterclipid>WHOOSHLARG…WHOOSHBYFS105004 1</masterclipid>
					<logginginfo>
						<scene/>
						<shottake/>
						<lognote/>
						<good>FALSE</good>
					</logginginfo>
					<labels>
						<label2/>
					</labels>
					<comments>
						<mastercomment1/>
						<mastercomment2/>
						<mastercomment3/>
						<mastercomment4/>
					</comments>
					<file id="WHOOSHLARG…WHOOSHBYFS105004 2"/>
					<filter>
						<effect>
							<name>Audio Levels</name>
							<effectid>audiolevels</effectid>
							<effectcategory>audiolevels</effectcategory>
							<effecttype>audiolevels</effecttype>
							<mediatype>audio</mediatype>
							<parameter>
								<name>Level</name>
								<parameterid>level</parameterid>
								<valuemin>0</valuemin>
								<valuemax>3.98109</valuemax>
								<value>0.630957</value>
							</parameter>
						</effect>
					</filter>
					<filter>
						<effect>
							<name>Audio Pan</name>
							<effectid>audiopan</effectid>
							<effectcategory>audiopan</effectcategory>
							<effecttype>audiopan</effecttype>
							<mediatype>audio</mediatype>
							<parameter>
								<name>Pan</name>
								<parameterid>pan</parameterid>
								<valuemin>-1</valuemin>
								<valuemax>1</valuemax>
								<value>1</value>
							</parameter>
						</effect>
					</filter>
					<sourcetrack>
						<mediatype>audio</mediatype>
						<trackindex>2</trackindex>
					</sourcetrack>
					<link>
						<linkclipref>WHOOSHLARG…WHOOSHBYFS105004 </linkclipref>
						<mediatype>audio</mediatype>
						<trackindex>3</trackindex>
						<clipindex>15</clipindex>
						<groupindex>1</groupindex>
					</link>
					<link>
						<linkclipref>WHOOSHLARG…WHOOSHBYFS105004 3</linkclipref>
						<mediatype>audio</mediatype>
						<trackindex>4</trackindex>
						<clipindex>15</clipindex>
						<groupindex>1</groupindex>
					</link>
					<itemhistory>
						<uuid>DB3876AE-75BF-491B-ABC4-778E88BA8B31</uuid>
					</itemhistory>
					<filter>
						<effect>
							<name>Time Remap</name>
							<effectid>timeremap</effectid>
							<effectcategory>motion</effectcategory>
							<effecttype>motion</effecttype>
							<mediatype>audio</mediatype>
							<parameter>
								<parameterid>variablespeed</parameterid>
								<name>variablespeed</name>
								<valuemin>0</valuemin>
								<valuemax>1</valuemax>
								<value>0</value>
							</parameter>
							<parameter>
								<parameterid>mappedduration</parameterid>
								<name>mappedduration</name>
								<value>
									<timecode>
										<rate>
											<timebase>0</timebase>
										</rate>
										<string>0</string>
										<frame>0</frame>
										<displayformat>NDF</displayformat>
									</timecode>
								</value>
							</parameter>
							<parameter>
								<parameterid>speed</parameterid>
								<name>speed</name>
								<valuemin>-10000</valuemin>
								<valuemax>10000</valuemax>
								<value>25</value>
							</parameter>
							<parameter>
								<parameterid>reverse</parameterid>
								<name>reverse</name>
								<value>FALSE</value>
							</parameter>
							<parameter>
								<parameterid>frameblending</parameterid>
								<name>frameblending</name>
								<value>TRUE</value>
							</parameter>
							<parameter>
								<parameterid>graphdict</parameterid>
								<name>graphdict</name>
								<valuemin>0</valuemin>
								<valuemax>81</valuemax>
								<keyframe>
									<when>0</when>
									<value>0</value>
									<speedkfstart>TRUE</speedkfstart>
									<speedvirtualkf>TRUE</speedvirtualkf>
								</keyframe>
								<keyframe>
									<when>41</when>
									<value>10.25</value>
									<speedkfin>TRUE</speedkfin>
									<speedvirtualkf>TRUE</speedvirtualkf>
								</keyframe>
								<keyframe>
									<when>127</when>
									<value>31.75</value>
									<speedkfout>TRUE</speedkfout>
									<speedvirtualkf>TRUE</speedvirtualkf>
								</keyframe>
								<keyframe>
									<when>325</when>
									<value>82</value>
									<speedkfend>TRUE</speedkfend>
									<speedvirtualkf>TRUE</speedvirtualkf>
								</keyframe>
								<interpolation>
									<name>FCPCurve</name>
								</interpolation>
								<value>10.25</value>
							</parameter>
						</effect>
					</filter>
				</clipitem>
				<clipitem id="WHOOSHLARG…WHOOSHBYFS105302.WAV2">
					<name>WHOOSHLARG…WHOOSHBYFS105302.WAV</name>
					<duration>183</duration>
					<rate>
						<ntsc>FALSE</ntsc>
						<timebase>25</timebase>
					</rate>
					<in>0</in>
					<out>82</out>
					<start>10271</start>
					<end>10353</end>
					<subframeoffset>0</subframeoffset>
					<masterclipid>WHOOSHLARG…WHOOSHBYFS105302.WAV1</masterclipid>
					<logginginfo>
						<scene/>
						<shottake/>
						<lognote/>
						<good>FALSE</good>
					</logginginfo>
					<labels>
						<label2/>
					</labels>
					<comments>
						<mastercomment1/>
						<mastercomment2/>
						<mastercomment3/>
						<mastercomment4/>
					</comments>
					<file id="WHOOSHLARG…WHOOSHBYFS105302 "/>
					<filter>
						<effect>
							<name>Audio Levels</name>
							<effectid>audiolevels</effectid>
							<effectcategory>audiolevels</effectcategory>
							<effecttype>audiolevels</effecttype>
							<mediatype>audio</mediatype>
							<parameter>
								<name>Level</name>
								<parameterid>level</parameterid>
								<valuemin>0</valuemin>
								<valuemax>3.98109</valuemax>
								<value>0.251189</value>
							</parameter>
						</effect>
					</filter>
					<filter>
						<effect>
							<name>Audio Pan</name>
							<effectid>audiopan</effectid>
							<effectcategory>audiopan</effectcategory>
							<effecttype>audiopan</effecttype>
							<mediatype>audio</mediatype>
							<parameter>
								<name>Pan</name>
								<parameterid>pan</parameterid>
								<valuemin>-1</valuemin>
								<valuemax>1</valuemax>
								<value>1</value>
							</parameter>
						</effect>
					</filter>
					<sourcetrack>
						<mediatype>audio</mediatype>
						<trackindex>2</trackindex>
					</sourcetrack>
					<link>
						<linkclipref>WHOOSHLARG…WHOOSHBYFS105302.WAV</linkclipref>
						<mediatype>audio</mediatype>
						<trackindex>3</trackindex>
						<clipindex>16</clipindex>
						<groupindex>1</groupindex>
					</link>
					<link>
						<linkclipref>WHOOSHLARG…WHOOSHBYFS105302.WAV2</linkclipref>
						<mediatype>audio</mediatype>
						<trackindex>4</trackindex>
						<clipindex>16</clipindex>
						<groupindex>1</groupindex>
					</link>
					<itemhistory>
						<uuid>174378A4-A8B3-4654-A915-D87C74D86DEB</uuid>
					</itemhistory>
					<filter>
						<effect>
							<name>Time Remap</name>
							<effectid>timeremap</effectid>
							<effectcategory>motion</effectcategory>
							<effecttype>motion</effecttype>
							<mediatype>audio</mediatype>
							<parameter>
								<parameterid>variablespeed</parameterid>
								<name>variablespeed</name>
								<valuemin>0</valuemin>
								<valuemax>1</valuemax>
								<value>0</value>
							</parameter>
							<parameter>
								<parameterid>mappedduration</parameterid>
								<name>mappedduration</name>
								<value>
									<timecode>
										<rate>
											<timebase>0</timebase>
										</rate>
										<string>0</string>
										<frame>0</frame>
										<displayformat>NDF</displayformat>
									</timecode>
								</value>
							</parameter>
							<parameter>
								<parameterid>speed</parameterid>
								<name>speed</name>
								<valuemin>-10000</valuemin>
								<valuemax>10000</valuemax>
								<value>50</value>
							</parameter>
							<parameter>
								<parameterid>reverse</parameterid>
								<name>reverse</name>
								<value>FALSE</value>
							</parameter>
							<parameter>
								<parameterid>frameblending</parameterid>
								<name>frameblending</name>
								<value>TRUE</value>
							</parameter>
							<parameter>
								<parameterid>graphdict</parameterid>
								<name>graphdict</name>
								<valuemin>0</valuemin>
								<valuemax>91</valuemax>
								<keyframe>
									<when>0</when>
									<value>0.4999</value>
									<speedkfin>TRUE</speedkfin>
									<anchorOffset>0.4999</anchorOffset>
								</keyframe>
								<keyframe>
									<when>82</when>
									<value>41.4999</value>
									<speedkfout>TRUE</speedkfout>
									<speedvirtualkf>TRUE</speedvirtualkf>
								</keyframe>
								<keyframe>
									<when>183</when>
									<value>92.4999</value>
									<speedkfend>TRUE</speedkfend>
									<speedvirtualkf>TRUE</speedvirtualkf>
								</keyframe>
								<interpolation>
									<name>FCPCurve</name>
								</interpolation>
								<value>0.4999</value>
							</parameter>
						</effect>
					</filter>
				</clipitem>
				<clipitem id="WHOOSHLARG…WHOOSHBYFS105302.WAV4">
					<name>WHOOSHLARG…WHOOSHBYFS105302.WAV</name>
					<duration>227</duration>
					<rate>
						<ntsc>FALSE</ntsc>
						<timebase>25</timebase>
					</rate>
					<in>0</in>
					<out>70</out>
					<start>10461</start>
					<end>10531</end>
					<subframeoffset>0</subframeoffset>
					<masterclipid>WHOOSHLARG…WHOOSHBYFS105302.WAV1</masterclipid>
					<logginginfo>
						<scene/>
						<shottake/>
						<lognote/>
						<good>FALSE</good>
					</logginginfo>
					<labels>
						<label2/>
					</labels>
					<comments>
						<mastercomment1/>
						<mastercomment2/>
						<mastercomment3/>
						<mastercomment4/>
					</comments>
					<file id="WHOOSHLARG…WHOOSHBYFS105302 "/>
					<filter>
						<effect>
							<name>Audio Levels</name>
							<effectid>audiolevels</effectid>
							<effectcategory>audiolevels</effectcategory>
							<effecttype>audiolevels</effecttype>
							<mediatype>audio</mediatype>
							<parameter>
								<name>Level</name>
								<parameterid>level</parameterid>
								<valuemin>0</valuemin>
								<valuemax>3.98109</valuemax>
								<value>0.630957</value>
							</parameter>
						</effect>
					</filter>
					<filter>
						<effect>
							<name>Audio Pan</name>
							<effectid>audiopan</effectid>
							<effectcategory>audiopan</effectcategory>
							<effecttype>audiopan</effecttype>
							<mediatype>audio</mediatype>
							<parameter>
								<name>Pan</name>
								<parameterid>pan</parameterid>
								<valuemin>-1</valuemin>
								<valuemax>1</valuemax>
								<value>1</value>
							</parameter>
						</effect>
					</filter>
					<sourcetrack>
						<mediatype>audio</mediatype>
						<trackindex>2</trackindex>
					</sourcetrack>
					<link>
						<linkclipref>WHOOSHLARG…WHOOSHBYFS105302.WAV3</linkclipref>
						<mediatype>audio</mediatype>
						<trackindex>3</trackindex>
						<clipindex>17</clipindex>
						<groupindex>1</groupindex>
					</link>
					<link>
						<linkclipref>WHOOSHLARG…WHOOSHBYFS105302.WAV4</linkclipref>
						<mediatype>audio</mediatype>
						<trackindex>4</trackindex>
						<clipindex>17</clipindex>
						<groupindex>1</groupindex>
					</link>
					<itemhistory>
						<uuid>66F5D3B6-817E-47D5-A7C4-6BB6739A595C</uuid>
						<uuid>93AE1182-23ED-41CA-A60D-E1D26717DFFE</uuid>
					</itemhistory>
					<filter>
						<effect>
							<name>Time Remap</name>
							<effectid>timeremap</effectid>
							<effectcategory>motion</effectcategory>
							<effecttype>motion</effecttype>
							<mediatype>audio</mediatype>
							<parameter>
								<parameterid>variablespeed</parameterid>
								<name>variablespeed</name>
								<valuemin>0</valuemin>
								<valuemax>1</valuemax>
								<value>0</value>
							</parameter>
							<parameter>
								<parameterid>mappedduration</parameterid>
								<name>mappedduration</name>
								<value>
									<timecode>
										<rate>
											<timebase>0</timebase>
										</rate>
										<string>0</string>
										<frame>0</frame>
										<displayformat>NDF</displayformat>
									</timecode>
								</value>
							</parameter>
							<parameter>
								<parameterid>speed</parameterid>
								<name>speed</name>
								<valuemin>-10000</valuemin>
								<valuemax>10000</valuemax>
								<value>40</value>
							</parameter>
							<parameter>
								<parameterid>reverse</parameterid>
								<name>reverse</name>
								<value>FALSE</value>
							</parameter>
							<parameter>
								<parameterid>frameblending</parameterid>
								<name>frameblending</name>
								<value>TRUE</value>
							</parameter>
							<parameter>
								<parameterid>graphdict</parameterid>
								<name>graphdict</name>
								<valuemin>0</valuemin>
								<valuemax>91</valuemax>
								<keyframe>
									<when>0</when>
									<value>0.3626</value>
									<speedkfin>TRUE</speedkfin>
									<anchorOffset>0.3626</anchorOffset>
								</keyframe>
								<keyframe>
									<when>70</when>
									<value>28.5484</value>
									<speedkfout>TRUE</speedkfout>
									<speedvirtualkf>TRUE</speedvirtualkf>
								</keyframe>
								<keyframe>
									<when>227</when>
									<value>92.3626</value>
									<speedkfend>TRUE</speedkfend>
									<speedvirtualkf>TRUE</speedvirtualkf>
								</keyframe>
								<interpolation>
									<name>FCPCurve</name>
								</interpolation>
								<value>0.3626</value>
							</parameter>
						</effect>
					</filter>
				</clipitem>
				<clipitem id="WHOOSHLARG…WHOOSHBYFS105302.WAV6">
					<name>WHOOSHLARG…WHOOSHBYFS105302.WAV</name>
					<duration>227</duration>
					<rate>
						<ntsc>FALSE</ntsc>
						<timebase>25</timebase>
					</rate>
					<in>0</in>
					<out>70</out>
					<start>10713</start>
					<end>10783</end>
					<subframeoffset>0</subframeoffset>
					<masterclipid>WHOOSHLARG…WHOOSHBYFS105302.WAV1</masterclipid>
					<logginginfo>
						<scene/>
						<shottake/>
						<lognote/>
						<good>FALSE</good>
					</logginginfo>
					<labels>
						<label2/>
					</labels>
					<comments>
						<mastercomment1/>
						<mastercomment2/>
						<mastercomment3/>
						<mastercomment4/>
					</comments>
					<file id="WHOOSHLARG…WHOOSHBYFS105302 "/>
					<filter>
						<effect>
							<name>Audio Levels</name>
							<effectid>audiolevels</effectid>
							<effectcategory>audiolevels</effectcategory>
							<effecttype>audiolevels</effecttype>
							<mediatype>audio</mediatype>
							<parameter>
								<name>Level</name>
								<parameterid>level</parameterid>
								<valuemin>0</valuemin>
								<valuemax>3.98109</valuemax>
								<value>0.630957</value>
							</parameter>
						</effect>
					</filter>
					<filter>
						<effect>
							<name>Audio Pan</name>
							<effectid>audiopan</effectid>
							<effectcategory>audiopan</effectcategory>
							<effecttype>audiopan</effecttype>
							<mediatype>audio</mediatype>
							<parameter>
								<name>Pan</name>
								<parameterid>pan</parameterid>
								<valuemin>-1</valuemin>
								<valuemax>1</valuemax>
								<value>1</value>
							</parameter>
						</effect>
					</filter>
					<sourcetrack>
						<mediatype>audio</mediatype>
						<trackindex>2</trackindex>
					</sourcetrack>
					<link>
						<linkclipref>WHOOSHLARG…WHOOSHBYFS105302.WAV5</linkclipref>
						<mediatype>audio</mediatype>
						<trackindex>3</trackindex>
						<clipindex>18</clipindex>
						<groupindex>1</groupindex>
					</link>
					<link>
						<linkclipref>WHOOSHLARG…WHOOSHBYFS105302.WAV6</linkclipref>
						<mediatype>audio</mediatype>
						<trackindex>4</trackindex>
						<clipindex>18</clipindex>
						<groupindex>1</groupindex>
					</link>
					<itemhistory>
						<uuid>654C39FD-6D0A-43F7-855E-4504399A818E</uuid>
						<uuid>93AE1182-23ED-41CA-A60D-E1D26717DFFE</uuid>
					</itemhistory>
					<filter>
						<effect>
							<name>Time Remap</name>
							<effectid>timeremap</effectid>
							<effectcategory>motion</effectcategory>
							<effecttype>motion</effecttype>
							<mediatype>audio</mediatype>
							<parameter>
								<parameterid>variablespeed</parameterid>
								<name>variablespeed</name>
								<valuemin>0</valuemin>
								<valuemax>1</valuemax>
								<value>0</value>
							</parameter>
							<parameter>
								<parameterid>mappedduration</parameterid>
								<name>mappedduration</name>
								<value>
									<timecode>
										<rate>
											<timebase>0</timebase>
										</rate>
										<string>0</string>
										<frame>0</frame>
										<displayformat>NDF</displayformat>
									</timecode>
								</value>
							</parameter>
							<parameter>
								<parameterid>speed</parameterid>
								<name>speed</name>
								<valuemin>-10000</valuemin>
								<valuemax>10000</valuemax>
								<value>40</value>
							</parameter>
							<parameter>
								<parameterid>reverse</parameterid>
								<name>reverse</name>
								<value>FALSE</value>
							</parameter>
							<parameter>
								<parameterid>frameblending</parameterid>
								<name>frameblending</name>
								<value>TRUE</value>
							</parameter>
							<parameter>
								<parameterid>graphdict</parameterid>
								<name>graphdict</name>
								<valuemin>0</valuemin>
								<valuemax>91</valuemax>
								<keyframe>
									<when>0</when>
									<value>0.3626</value>
									<speedkfin>TRUE</speedkfin>
									<anchorOffset>0.3626</anchorOffset>
								</keyframe>
								<keyframe>
									<when>70</when>
									<value>28.5484</value>
									<speedkfout>TRUE</speedkfout>
									<speedvirtualkf>TRUE</speedvirtualkf>
								</keyframe>
								<keyframe>
									<when>227</when>
									<value>92.3626</value>
									<speedkfend>TRUE</speedkfend>
									<speedvirtualkf>TRUE</speedvirtualkf>
								</keyframe>
								<interpolation>
									<name>FCPCurve</name>
								</interpolation>
								<value>0.3626</value>
							</parameter>
						</effect>
					</filter>
				</clipitem>
				<clipitem id="WHOOSHLARG…WHOOSHBYFS105302.WAV8">
					<name>WHOOSHLARG…WHOOSHBYFS105302.WAV</name>
					<duration>227</duration>
					<rate>
						<ntsc>FALSE</ntsc>
						<timebase>25</timebase>
					</rate>
					<in>0</in>
					<out>70</out>
					<start>10984</start>
					<end>11054</end>
					<subframeoffset>0</subframeoffset>
					<masterclipid>WHOOSHLARG…WHOOSHBYFS105302.WAV1</masterclipid>
					<logginginfo>
						<scene/>
						<shottake/>
						<lognote/>
						<good>FALSE</good>
					</logginginfo>
					<labels>
						<label2/>
					</labels>
					<comments>
						<mastercomment1/>
						<mastercomment2/>
						<mastercomment3/>
						<mastercomment4/>
					</comments>
					<file id="WHOOSHLARG…WHOOSHBYFS105302 "/>
					<filter>
						<effect>
							<name>Audio Levels</name>
							<effectid>audiolevels</effectid>
							<effectcategory>audiolevels</effectcategory>
							<effecttype>audiolevels</effecttype>
							<mediatype>audio</mediatype>
							<parameter>
								<name>Level</name>
								<parameterid>level</parameterid>
								<valuemin>0</valuemin>
								<valuemax>3.98109</valuemax>
								<value>0.630957</value>
							</parameter>
						</effect>
					</filter>
					<filter>
						<effect>
							<name>Audio Pan</name>
							<effectid>audiopan</effectid>
							<effectcategory>audiopan</effectcategory>
							<effecttype>audiopan</effecttype>
							<mediatype>audio</mediatype>
							<parameter>
								<name>Pan</name>
								<parameterid>pan</parameterid>
								<valuemin>-1</valuemin>
								<valuemax>1</valuemax>
								<value>1</value>
							</parameter>
						</effect>
					</filter>
					<sourcetrack>
						<mediatype>audio</mediatype>
						<trackindex>2</trackindex>
					</sourcetrack>
					<link>
						<linkclipref>WHOOSHLARG…WHOOSHBYFS105302.WAV7</linkclipref>
						<mediatype>audio</mediatype>
						<trackindex>3</trackindex>
						<clipindex>19</clipindex>
						<groupindex>1</groupindex>
					</link>
					<link>
						<linkclipref>WHOOSHLARG…WHOOSHBYFS105302.WAV8</linkclipref>
						<mediatype>audio</mediatype>
						<trackindex>4</trackindex>
						<clipindex>19</clipindex>
						<groupindex>1</groupindex>
					</link>
					<itemhistory>
						<uuid>4CA2041D-2FB7-4BE4-97FD-5F7530B8098C</uuid>
						<uuid>93AE1182-23ED-41CA-A60D-E1D26717DFFE</uuid>
					</itemhistory>
					<filter>
						<effect>
							<name>Time Remap</name>
							<effectid>timeremap</effectid>
							<effectcategory>motion</effectcategory>
							<effecttype>motion</effecttype>
							<mediatype>audio</mediatype>
							<parameter>
								<parameterid>variablespeed</parameterid>
								<name>variablespeed</name>
								<valuemin>0</valuemin>
								<valuemax>1</valuemax>
								<value>0</value>
							</parameter>
							<parameter>
								<parameterid>mappedduration</parameterid>
								<name>mappedduration</name>
								<value>
									<timecode>
										<rate>
											<timebase>0</timebase>
										</rate>
										<string>0</string>
										<frame>0</frame>
										<displayformat>NDF</displayformat>
									</timecode>
								</value>
							</parameter>
							<parameter>
								<parameterid>speed</parameterid>
								<name>speed</name>
								<valuemin>-10000</valuemin>
								<valuemax>10000</valuemax>
								<value>40</value>
							</parameter>
							<parameter>
								<parameterid>reverse</parameterid>
								<name>reverse</name>
								<value>FALSE</value>
							</parameter>
							<parameter>
								<parameterid>frameblending</parameterid>
								<name>frameblending</name>
								<value>TRUE</value>
							</parameter>
							<parameter>
								<parameterid>graphdict</parameterid>
								<name>graphdict</name>
								<valuemin>0</valuemin>
								<valuemax>91</valuemax>
								<keyframe>
									<when>0</when>
									<value>0.3626</value>
									<speedkfin>TRUE</speedkfin>
									<anchorOffset>0.3626</anchorOffset>
								</keyframe>
								<keyframe>
									<when>70</when>
									<value>28.5484</value>
									<speedkfout>TRUE</speedkfout>
									<speedvirtualkf>TRUE</speedvirtualkf>
								</keyframe>
								<keyframe>
									<when>227</when>
									<value>92.3626</value>
									<speedkfend>TRUE</speedkfend>
									<speedvirtualkf>TRUE</speedvirtualkf>
								</keyframe>
								<interpolation>
									<name>FCPCurve</name>
								</interpolation>
								<value>0.3626</value>
							</parameter>
						</effect>
					</filter>
				</clipitem>
				<clipitem id="WHOOSHLARG…WHOOSHBYFS105302.WAV10">
					<name>WHOOSHLARG…WHOOSHBYFS105302.WAV</name>
					<duration>261</duration>
					<rate>
						<ntsc>FALSE</ntsc>
						<timebase>25</timebase>
					</rate>
					<in>0</in>
					<out>118</out>
					<start>11183</start>
					<end>11301</end>
					<subframeoffset>0</subframeoffset>
					<enabled>TRUE</enabled>
					<masterclipid>WHOOSHLARG…WHOOSHBYFS105302.WAV1</masterclipid>
					<logginginfo>
						<scene/>
						<shottake/>
						<lognote/>
						<good>FALSE</good>
					</logginginfo>
					<labels>
						<label2/>
					</labels>
					<comments>
						<mastercomment1/>
						<mastercomment2/>
						<mastercomment3/>
						<mastercomment4/>
					</comments>
					<file id="WHOOSHLARG…WHOOSHBYFS105302 "/>
					<filter>
						<effect>
							<name>Audio Levels</name>
							<effectid>audiolevels</effectid>
							<effectcategory>audiolevels</effectcategory>
							<effecttype>audiolevels</effecttype>
							<mediatype>audio</mediatype>
							<parameter>
								<name>Level</name>
								<parameterid>level</parameterid>
								<valuemin>0</valuemin>
								<valuemax>3.98109</valuemax>
								<value>0.398107</value>
							</parameter>
						</effect>
					</filter>
					<filter>
						<effect>
							<name>Audio Pan</name>
							<effectid>audiopan</effectid>
							<effectcategory>audiopan</effectcategory>
							<effecttype>audiopan</effecttype>
							<mediatype>audio</mediatype>
							<parameter>
								<name>Pan</name>
								<parameterid>pan</parameterid>
								<valuemin>-1</valuemin>
								<valuemax>1</valuemax>
								<value>1</value>
							</parameter>
						</effect>
					</filter>
					<sourcetrack>
						<mediatype>audio</mediatype>
						<trackindex>2</trackindex>
					</sourcetrack>
					<link>
						<linkclipref>WHOOSHLARG…WHOOSHBYFS105302.WAV9</linkclipref>
						<mediatype>audio</mediatype>
						<trackindex>3</trackindex>
						<clipindex>20</clipindex>
						<groupindex>1</groupindex>
					</link>
					<link>
						<linkclipref>WHOOSHLARG…WHOOSHBYFS105302.WAV10</linkclipref>
						<mediatype>audio</mediatype>
						<trackindex>4</trackindex>
						<clipindex>20</clipindex>
						<groupindex>1</groupindex>
					</link>
					<itemhistory>
						<uuid>BC90687E-B4D2-46D0-8486-813414376F40</uuid>
						<uuid>93AE1182-23ED-41CA-A60D-E1D26717DFFE</uuid>
					</itemhistory>
					<filter>
						<effect>
							<name>Time Remap</name>
							<effectid>timeremap</effectid>
							<effectcategory>motion</effectcategory>
							<effecttype>motion</effecttype>
							<mediatype>audio</mediatype>
							<parameter>
								<parameterid>variablespeed</parameterid>
								<name>variablespeed</name>
								<valuemin>0</valuemin>
								<valuemax>1</valuemax>
								<value>0</value>
							</parameter>
							<parameter>
								<parameterid>mappedduration</parameterid>
								<name>mappedduration</name>
								<value>
									<timecode>
										<rate>
											<timebase>0</timebase>
										</rate>
										<string>0</string>
										<frame>0</frame>
										<displayformat>NDF</displayformat>
									</timecode>
								</value>
							</parameter>
							<parameter>
								<parameterid>speed</parameterid>
								<name>speed</name>
								<valuemin>-10000</valuemin>
								<valuemax>10000</valuemax>
								<value>34</value>
							</parameter>
							<parameter>
								<parameterid>reverse</parameterid>
								<name>reverse</name>
								<value>FALSE</value>
							</parameter>
							<parameter>
								<parameterid>frameblending</parameterid>
								<name>frameblending</name>
								<value>TRUE</value>
							</parameter>
							<parameter>
								<parameterid>graphdict</parameterid>
								<name>graphdict</name>
								<valuemin>0</valuemin>
								<valuemax>91</valuemax>
								<keyframe>
									<when>0</when>
									<value>0.0497</value>
									<speedkfin>TRUE</speedkfin>
									<anchorOffset>0.0497</anchorOffset>
								</keyframe>
								<keyframe>
									<when>118</when>
									<value>41.3497</value>
									<speedkfout>TRUE</speedkfout>
									<speedvirtualkf>TRUE</speedvirtualkf>
								</keyframe>
								<keyframe>
									<when>261</when>
									<value>92.0497</value>
									<speedkfend>TRUE</speedkfend>
									<speedvirtualkf>TRUE</speedvirtualkf>
								</keyframe>
								<interpolation>
									<name>FCPCurve</name>
								</interpolation>
								<value>0.0497</value>
							</parameter>
						</effect>
					</filter>
				</clipitem>
				<clipitem id="WHOOSHLARG…WHOOSHBYFS105302.WAV12">
					<name>WHOOSHLARG…WHOOSHBYFS105302.WAV</name>
					<duration>455</duration>
					<rate>
						<ntsc>FALSE</ntsc>
						<timebase>25</timebase>
					</rate>
					<in>49</in>
					<out>130</out>
					<start>11330</start>
					<end>11411</end>
					<subframeoffset>0</subframeoffset>
					<enabled>TRUE</enabled>
					<masterclipid>WHOOSHLARG…WHOOSHBYFS105302.WAV1</masterclipid>
					<logginginfo>
						<scene/>
						<shottake/>
						<lognote/>
						<good>FALSE</good>
					</logginginfo>
					<labels>
						<label2/>
					</labels>
					<comments>
						<mastercomment1/>
						<mastercomment2/>
						<mastercomment3/>
						<mastercomment4/>
					</comments>
					<file id="WHOOSHLARG…WHOOSHBYFS105302 "/>
					<filter>
						<effect>
							<name>Audio Levels</name>
							<effectid>audiolevels</effectid>
							<effectcategory>audiolevels</effectcategory>
							<effecttype>audiolevels</effecttype>
							<mediatype>audio</mediatype>
							<parameter>
								<name>Level</name>
								<parameterid>level</parameterid>
								<valuemin>0</valuemin>
								<valuemax>3.98109</valuemax>
								<value>0.398107</value>
							</parameter>
						</effect>
					</filter>
					<filter>
						<effect>
							<name>Audio Pan</name>
							<effectid>audiopan</effectid>
							<effectcategory>audiopan</effectcategory>
							<effecttype>audiopan</effecttype>
							<mediatype>audio</mediatype>
							<parameter>
								<name>Pan</name>
								<parameterid>pan</parameterid>
								<valuemin>-1</valuemin>
								<valuemax>1</valuemax>
								<value>1</value>
							</parameter>
						</effect>
					</filter>
					<sourcetrack>
						<mediatype>audio</mediatype>
						<trackindex>2</trackindex>
					</sourcetrack>
					<link>
						<linkclipref>WHOOSHLARG…WHOOSHBYFS105302.WAV11</linkclipref>
						<mediatype>audio</mediatype>
						<trackindex>3</trackindex>
						<clipindex>21</clipindex>
						<groupindex>1</groupindex>
					</link>
					<link>
						<linkclipref>WHOOSHLARG…WHOOSHBYFS105302.WAV12</linkclipref>
						<mediatype>audio</mediatype>
						<trackindex>4</trackindex>
						<clipindex>21</clipindex>
						<groupindex>1</groupindex>
					</link>
					<itemhistory>
						<uuid>20766FE6-B867-421E-AD48-1D436CD361D0</uuid>
						<uuid>93AE1182-23ED-41CA-A60D-E1D26717DFFE</uuid>
					</itemhistory>
					<filter>
						<effect>
							<name>Time Remap</name>
							<effectid>timeremap</effectid>
							<effectcategory>motion</effectcategory>
							<effecttype>motion</effecttype>
							<mediatype>audio</mediatype>
							<parameter>
								<parameterid>variablespeed</parameterid>
								<name>variablespeed</name>
								<valuemin>0</valuemin>
								<valuemax>1</valuemax>
								<value>0</value>
							</parameter>
							<parameter>
								<parameterid>mappedduration</parameterid>
								<name>mappedduration</name>
								<value>
									<timecode>
										<rate>
											<timebase>0</timebase>
										</rate>
										<string>0</string>
										<frame>0</frame>
										<displayformat>NDF</displayformat>
									</timecode>
								</value>
							</parameter>
							<parameter>
								<parameterid>speed</parameterid>
								<name>speed</name>
								<valuemin>-10000</valuemin>
								<valuemax>10000</valuemax>
								<value>20</value>
							</parameter>
							<parameter>
								<parameterid>reverse</parameterid>
								<name>reverse</name>
								<value>FALSE</value>
							</parameter>
							<parameter>
								<parameterid>frameblending</parameterid>
								<name>frameblending</name>
								<value>TRUE</value>
							</parameter>
							<parameter>
								<parameterid>graphdict</parameterid>
								<name>graphdict</name>
								<valuemin>0</valuemin>
								<valuemax>91</valuemax>
								<keyframe>
									<when>0</when>
									<value>0.0497</value>
									<speedkfstart>TRUE</speedkfstart>
									<speedvirtualkf>TRUE</speedvirtualkf>
									<anchorOffset>0.0497</anchorOffset>
								</keyframe>
								<keyframe>
									<when>49</when>
									<value>9.87129</value>
									<speedkfin>TRUE</speedkfin>
									<speedvirtualkf>TRUE</speedvirtualkf>
								</keyframe>
								<keyframe>
									<when>130</when>
									<value>26.107</value>
									<speedkfout>TRUE</speedkfout>
									<speedvirtualkf>TRUE</speedvirtualkf>
								</keyframe>
								<keyframe>
									<when>455</when>
									<value>92.0497</value>
									<speedkfend>TRUE</speedkfend>
									<speedvirtualkf>TRUE</speedvirtualkf>
								</keyframe>
								<interpolation>
									<name>FCPCurve</name>
								</interpolation>
								<value>9.87129</value>
							</parameter>
						</effect>
					</filter>
				</clipitem>
				<clipitem id="WHOOSHLARG…WHOOSHBYFS105302.WAV14">
					<name>WHOOSHLARG…WHOOSHBYFS105302.WAV</name>
					<duration>203</duration>
					<rate>
						<ntsc>FALSE</ntsc>
						<timebase>25</timebase>
					</rate>
					<in>5</in>
					<out>81</out>
					<start>11547</start>
					<end>11623</end>
					<subframeoffset>0</subframeoffset>
					<masterclipid>WHOOSHLARG…WHOOSHBYFS105302.WAV1</masterclipid>
					<logginginfo>
						<scene/>
						<shottake/>
						<lognote/>
						<good>FALSE</good>
					</logginginfo>
					<labels>
						<label2/>
					</labels>
					<comments>
						<mastercomment1/>
						<mastercomment2/>
						<mastercomment3/>
						<mastercomment4/>
					</comments>
					<file id="WHOOSHLARG…WHOOSHBYFS105302 "/>
					<filter>
						<effect>
							<name>Audio Levels</name>
							<effectid>audiolevels</effectid>
							<effectcategory>audiolevels</effectcategory>
							<effecttype>audiolevels</effecttype>
							<mediatype>audio</mediatype>
							<parameter>
								<name>Level</name>
								<parameterid>level</parameterid>
								<valuemin>0</valuemin>
								<valuemax>3.98109</valuemax>
								<value>1</value>
							</parameter>
						</effect>
					</filter>
					<filter>
						<effect>
							<name>Audio Pan</name>
							<effectid>audiopan</effectid>
							<effectcategory>audiopan</effectcategory>
							<effecttype>audiopan</effecttype>
							<mediatype>audio</mediatype>
							<parameter>
								<name>Pan</name>
								<parameterid>pan</parameterid>
								<valuemin>-1</valuemin>
								<valuemax>1</valuemax>
								<value>1</value>
							</parameter>
						</effect>
					</filter>
					<sourcetrack>
						<mediatype>audio</mediatype>
						<trackindex>2</trackindex>
					</sourcetrack>
					<link>
						<linkclipref>WHOOSHLARG…WHOOSHBYFS105302.WAV13</linkclipref>
						<mediatype>audio</mediatype>
						<trackindex>3</trackindex>
						<clipindex>22</clipindex>
						<groupindex>1</groupindex>
					</link>
					<link>
						<linkclipref>WHOOSHLARG…WHOOSHBYFS105302.WAV14</linkclipref>
						<mediatype>audio</mediatype>
						<trackindex>4</trackindex>
						<clipindex>22</clipindex>
						<groupindex>1</groupindex>
					</link>
					<itemhistory>
						<uuid>51B75524-DA9E-4FBE-953C-53D9AC955382</uuid>
						<uuid>93AE1182-23ED-41CA-A60D-E1D26717DFFE</uuid>
					</itemhistory>
					<filter>
						<effect>
							<name>Time Remap</name>
							<effectid>timeremap</effectid>
							<effectcategory>motion</effectcategory>
							<effecttype>motion</effecttype>
							<mediatype>audio</mediatype>
							<parameter>
								<parameterid>variablespeed</parameterid>
								<name>variablespeed</name>
								<valuemin>0</valuemin>
								<valuemax>1</valuemax>
								<value>0</value>
							</parameter>
							<parameter>
								<parameterid>mappedduration</parameterid>
								<name>mappedduration</name>
								<value>
									<timecode>
										<rate>
											<timebase>0</timebase>
										</rate>
										<string>0</string>
										<frame>0</frame>
										<displayformat>NDF</displayformat>
									</timecode>
								</value>
							</parameter>
							<parameter>
								<parameterid>speed</parameterid>
								<name>speed</name>
								<valuemin>-10000</valuemin>
								<valuemax>10000</valuemax>
								<value>45</value>
							</parameter>
							<parameter>
								<parameterid>reverse</parameterid>
								<name>reverse</name>
								<value>FALSE</value>
							</parameter>
							<parameter>
								<parameterid>frameblending</parameterid>
								<name>frameblending</name>
								<value>TRUE</value>
							</parameter>
							<parameter>
								<parameterid>graphdict</parameterid>
								<name>graphdict</name>
								<valuemin>0</valuemin>
								<valuemax>91</valuemax>
								<keyframe>
									<when>0</when>
									<value>0.1432</value>
									<speedkfstart>TRUE</speedkfstart>
									<speedvirtualkf>TRUE</speedvirtualkf>
									<anchorOffset>0.1432</anchorOffset>
								</keyframe>
								<keyframe>
									<when>5</when>
									<value>2.39568</value>
									<speedkfin>TRUE</speedkfin>
									<speedvirtualkf>TRUE</speedvirtualkf>
								</keyframe>
								<keyframe>
									<when>81</when>
									<value>36.6333</value>
									<speedkfout>TRUE</speedkfout>
									<speedvirtualkf>TRUE</speedvirtualkf>
								</keyframe>
								<keyframe>
									<when>203</when>
									<value>92.1432</value>
									<speedkfend>TRUE</speedkfend>
									<speedvirtualkf>TRUE</speedvirtualkf>
								</keyframe>
								<interpolation>
									<name>FCPCurve</name>
								</interpolation>
								<value>2.39568</value>
							</parameter>
						</effect>
					</filter>
				</clipitem>
				<clipitem id="WHOOSHLARG…WHOOSHBYFS105004 5">
					<name>WHOOSHLARG…WHOOSHBYFS105004</name>
					<duration>325</duration>
					<rate>
						<ntsc>FALSE</ntsc>
						<timebase>25</timebase>
					</rate>
					<in>41</in>
					<out>140</out>
					<start>12242</start>
					<end>-1</end>
					<enabled>TRUE</enabled>
					<masterclipid>WHOOSHLARG…WHOOSHBYFS105004 1</masterclipid>
					<logginginfo>
						<scene/>
						<shottake/>
						<lognote/>
						<good>FALSE</good>
					</logginginfo>
					<labels>
						<label2/>
					</labels>
					<comments>
						<mastercomment1/>
						<mastercomment2/>
						<mastercomment3/>
						<mastercomment4/>
					</comments>
					<file id="WHOOSHLARG…WHOOSHBYFS105004 2"/>
					<filter>
						<effect>
							<name>Audio Levels</name>
							<effectid>audiolevels</effectid>
							<effectcategory>audiolevels</effectcategory>
							<effecttype>audiolevels</effecttype>
							<mediatype>audio</mediatype>
							<parameter>
								<name>Level</name>
								<parameterid>level</parameterid>
								<valuemin>0</valuemin>
								<valuemax>3.98109</valuemax>
								<value>0.281838</value>
							</parameter>
						</effect>
					</filter>
					<filter>
						<effect>
							<name>Audio Pan</name>
							<effectid>audiopan</effectid>
							<effectcategory>audiopan</effectcategory>
							<effecttype>audiopan</effecttype>
							<mediatype>audio</mediatype>
							<parameter>
								<name>Pan</name>
								<parameterid>pan</parameterid>
								<valuemin>-1</valuemin>
								<valuemax>1</valuemax>
								<value>1</value>
							</parameter>
						</effect>
					</filter>
					<sourcetrack>
						<mediatype>audio</mediatype>
						<trackindex>2</trackindex>
					</sourcetrack>
					<link>
						<linkclipref>WHOOSHLARG…WHOOSHBYFS105004 4</linkclipref>
						<mediatype>audio</mediatype>
						<trackindex>3</trackindex>
						<clipindex>23</clipindex>
						<groupindex>1</groupindex>
					</link>
					<link>
						<linkclipref>WHOOSHLARG…WHOOSHBYFS105004 5</linkclipref>
						<mediatype>audio</mediatype>
						<trackindex>4</trackindex>
						<clipindex>23</clipindex>
						<groupindex>1</groupindex>
					</link>
					<itemhistory>
						<uuid>7B7CFDC8-78E7-4434-8B50-B8718953AAD4</uuid>
					</itemhistory>
					<filter>
						<effect>
							<name>Time Remap</name>
							<effectid>timeremap</effectid>
							<effectcategory>motion</effectcategory>
							<effecttype>motion</effecttype>
							<mediatype>audio</mediatype>
							<parameter>
								<parameterid>variablespeed</parameterid>
								<name>variablespeed</name>
								<valuemin>0</valuemin>
								<valuemax>1</valuemax>
								<value>0</value>
							</parameter>
							<parameter>
								<parameterid>mappedduration</parameterid>
								<name>mappedduration</name>
								<value>
									<timecode>
										<rate>
											<timebase>0</timebase>
										</rate>
										<string>0</string>
										<frame>0</frame>
										<displayformat>NDF</displayformat>
									</timecode>
								</value>
							</parameter>
							<parameter>
								<parameterid>speed</parameterid>
								<name>speed</name>
								<valuemin>-10000</valuemin>
								<valuemax>10000</valuemax>
								<value>25</value>
							</parameter>
							<parameter>
								<parameterid>reverse</parameterid>
								<name>reverse</name>
								<value>FALSE</value>
							</parameter>
							<parameter>
								<parameterid>frameblending</parameterid>
								<name>frameblending</name>
								<value>TRUE</value>
							</parameter>
							<parameter>
								<parameterid>graphdict</parameterid>
								<name>graphdict</name>
								<valuemin>0</valuemin>
								<valuemax>81</valuemax>
								<keyframe>
									<when>0</when>
									<value>0</value>
									<speedkfstart>TRUE</speedkfstart>
									<speedvirtualkf>TRUE</speedvirtualkf>
								</keyframe>
								<keyframe>
									<when>41</when>
									<value>10.25</value>
									<speedkfin>TRUE</speedkfin>
									<speedvirtualkf>TRUE</speedvirtualkf>
								</keyframe>
								<keyframe>
									<when>140</when>
									<value>35</value>
									<speedkfout>TRUE</speedkfout>
									<speedvirtualkf>TRUE</speedvirtualkf>
								</keyframe>
								<keyframe>
									<when>325</when>
									<value>82</value>
									<speedkfend>TRUE</speedkfend>
									<speedvirtualkf>TRUE</speedvirtualkf>
								</keyframe>
								<interpolation>
									<name>FCPCurve</name>
								</interpolation>
								<value>10.25</value>
							</parameter>
						</effect>
					</filter>
				</clipitem>
				<transitionitem>
					<rate>
						<ntsc>FALSE</ntsc>
						<timebase>25</timebase>
					</rate>
					<start>12316</start>
					<end>12341</end>
					<alignment>center</alignment>
					<effect>
						<name>Cross Fade (+3dB)</name>
						<effectid>KGAudioTransCrossFade3dB</effectid>
						<effecttype>transition</effecttype>
						<mediatype>audio</mediatype>
					</effect>
				</transitionitem>
				<clipitem id="WHOOSHLARG…WHOOSHBYFS105004 7">
					<name>WHOOSHLARG…WHOOSHBYFS105004</name>
					<duration>811</duration>
					<rate>
						<ntsc>FALSE</ntsc>
						<timebase>25</timebase>
					</rate>
					<in>556</in>
					<out>737</out>
					<start>-1</start>
					<end>12497</end>
					<enabled>TRUE</enabled>
					<masterclipid>WHOOSHLARG…WHOOSHBYFS105004 1</masterclipid>
					<logginginfo>
						<scene/>
						<shottake/>
						<lognote/>
						<good>FALSE</good>
					</logginginfo>
					<labels>
						<label2/>
					</labels>
					<comments>
						<mastercomment1/>
						<mastercomment2/>
						<mastercomment3/>
						<mastercomment4/>
					</comments>
					<file id="WHOOSHLARG…WHOOSHBYFS105004 2"/>
					<filter>
						<effect>
							<name>Audio Levels</name>
							<effectid>audiolevels</effectid>
							<effectcategory>audiolevels</effectcategory>
							<effecttype>audiolevels</effecttype>
							<mediatype>audio</mediatype>
							<parameter>
								<name>Level</name>
								<parameterid>level</parameterid>
								<valuemin>0</valuemin>
								<valuemax>3.98109</valuemax>
								<value>0.630957</value>
							</parameter>
						</effect>
					</filter>
					<filter>
						<effect>
							<name>Audio Pan</name>
							<effectid>audiopan</effectid>
							<effectcategory>audiopan</effectcategory>
							<effecttype>audiopan</effecttype>
							<mediatype>audio</mediatype>
							<parameter>
								<name>Pan</name>
								<parameterid>pan</parameterid>
								<valuemin>-1</valuemin>
								<valuemax>1</valuemax>
								<value>1</value>
							</parameter>
						</effect>
					</filter>
					<sourcetrack>
						<mediatype>audio</mediatype>
						<trackindex>2</trackindex>
					</sourcetrack>
					<link>
						<linkclipref>WHOOSHLARG…WHOOSHBYFS105004 6</linkclipref>
						<mediatype>audio</mediatype>
						<trackindex>3</trackindex>
						<clipindex>25</clipindex>
						<groupindex>1</groupindex>
					</link>
					<link>
						<linkclipref>WHOOSHLARG…WHOOSHBYFS105004 7</linkclipref>
						<mediatype>audio</mediatype>
						<trackindex>4</trackindex>
						<clipindex>25</clipindex>
						<groupindex>1</groupindex>
					</link>
					<itemhistory>
						<uuid>FA5CA3CC-37AE-4AFC-AE9F-C9008B766754</uuid>
					</itemhistory>
					<filter>
						<effect>
							<name>Time Remap</name>
							<effectid>timeremap</effectid>
							<effectcategory>motion</effectcategory>
							<effecttype>motion</effecttype>
							<mediatype>audio</mediatype>
							<parameter>
								<parameterid>variablespeed</parameterid>
								<name>variablespeed</name>
								<valuemin>0</valuemin>
								<valuemax>1</valuemax>
								<value>0</value>
							</parameter>
							<parameter>
								<parameterid>mappedduration</parameterid>
								<name>mappedduration</name>
								<value>
									<timecode>
										<rate>
											<timebase>0</timebase>
										</rate>
										<string>0</string>
										<frame>0</frame>
										<displayformat>NDF</displayformat>
									</timecode>
								</value>
							</parameter>
							<parameter>
								<parameterid>speed</parameterid>
								<name>speed</name>
								<valuemin>-10000</valuemin>
								<valuemax>10000</valuemax>
								<value>10</value>
							</parameter>
							<parameter>
								<parameterid>reverse</parameterid>
								<name>reverse</name>
								<value>TRUE</value>
							</parameter>
							<parameter>
								<parameterid>frameblending</parameterid>
								<name>frameblending</name>
								<value>TRUE</value>
							</parameter>
							<parameter>
								<parameterid>graphdict</parameterid>
								<name>graphdict</name>
								<valuemin>0</valuemin>
								<valuemax>81</valuemax>
								<keyframe>
									<when>0</when>
									<value>83.0499</value>
									<speedkfstart>TRUE</speedkfstart>
									<speedvirtualkf>TRUE</speedvirtualkf>
									<anchorOffset>0.0499</anchorOffset>
								</keyframe>
								<keyframe>
									<when>556</when>
									<value>26.4499</value>
									<speedkfin>TRUE</speedkfin>
									<speedvirtualkf>TRUE</speedvirtualkf>
								</keyframe>
								<keyframe>
									<when>737</when>
									<value>8.3499</value>
									<speedkfout>TRUE</speedkfout>
									<speedvirtualkf>TRUE</speedvirtualkf>
								</keyframe>
								<keyframe>
									<when>811</when>
									<value>1.0499</value>
									<speedkfend>TRUE</speedkfend>
									<speedvirtualkf>TRUE</speedvirtualkf>
								</keyframe>
								<interpolation>
									<name>FCPCurve</name>
								</interpolation>
								<value>25.4499</value>
							</parameter>
						</effect>
					</filter>
				</clipitem>
				<clipitem id="WHOOSHLARG…WHOOSHBYFS105302.WAV16">
					<name>WHOOSHLARG…WHOOSHBYFS105302.WAV</name>
					<duration>261</duration>
					<rate>
						<ntsc>FALSE</ntsc>
						<timebase>25</timebase>
					</rate>
					<in>17</in>
					<out>92</out>
					<start>16209</start>
					<end>16284</end>
					<subframeoffset>0</subframeoffset>
					<masterclipid>WHOOSHLARG…WHOOSHBYFS105302.WAV1</masterclipid>
					<logginginfo>
						<scene/>
						<shottake/>
						<lognote/>
						<good>FALSE</good>
					</logginginfo>
					<labels>
						<label2/>
					</labels>
					<comments>
						<mastercomment1/>
						<mastercomment2/>
						<mastercomment3/>
						<mastercomment4/>
					</comments>
					<file id="WHOOSHLARG…WHOOSHBYFS105302 "/>
					<filter>
						<effect>
							<name>Audio Levels</name>
							<effectid>audiolevels</effectid>
							<effectcategory>audiolevels</effectcategory>
							<effecttype>audiolevels</effecttype>
							<mediatype>audio</mediatype>
							<parameter>
								<name>Level</name>
								<parameterid>level</parameterid>
								<valuemin>0</valuemin>
								<valuemax>3.98109</valuemax>
								<value>0.141254</value>
							</parameter>
						</effect>
					</filter>
					<filter>
						<effect>
							<name>Audio Pan</name>
							<effectid>audiopan</effectid>
							<effectcategory>audiopan</effectcategory>
							<effecttype>audiopan</effecttype>
							<mediatype>audio</mediatype>
							<parameter>
								<name>Pan</name>
								<parameterid>pan</parameterid>
								<valuemin>-1</valuemin>
								<valuemax>1</valuemax>
								<value>1</value>
							</parameter>
						</effect>
					</filter>
					<sourcetrack>
						<mediatype>audio</mediatype>
						<trackindex>2</trackindex>
					</sourcetrack>
					<link>
						<linkclipref>WHOOSHLARG…WHOOSHBYFS105302.WAV15</linkclipref>
						<mediatype>audio</mediatype>
						<trackindex>3</trackindex>
						<clipindex>26</clipindex>
						<groupindex>1</groupindex>
					</link>
					<link>
						<linkclipref>WHOOSHLARG…WHOOSHBYFS105302.WAV16</linkclipref>
						<mediatype>audio</mediatype>
						<trackindex>4</trackindex>
						<clipindex>26</clipindex>
						<groupindex>1</groupindex>
					</link>
					<itemhistory>
						<uuid>88DDE6DF-BC70-4DD3-9254-63884FA51E02</uuid>
						<uuid>93AE1182-23ED-41CA-A60D-E1D26717DFFE</uuid>
					</itemhistory>
					<filter>
						<effect>
							<name>Time Remap</name>
							<effectid>timeremap</effectid>
							<effectcategory>motion</effectcategory>
							<effecttype>motion</effecttype>
							<mediatype>audio</mediatype>
							<parameter>
								<parameterid>variablespeed</parameterid>
								<name>variablespeed</name>
								<valuemin>0</valuemin>
								<valuemax>1</valuemax>
								<value>0</value>
							</parameter>
							<parameter>
								<parameterid>mappedduration</parameterid>
								<name>mappedduration</name>
								<value>
									<timecode>
										<rate>
											<timebase>0</timebase>
										</rate>
										<string>0</string>
										<frame>0</frame>
										<displayformat>NDF</displayformat>
									</timecode>
								</value>
							</parameter>
							<parameter>
								<parameterid>speed</parameterid>
								<name>speed</name>
								<valuemin>-10000</valuemin>
								<valuemax>10000</valuemax>
								<value>34</value>
							</parameter>
							<parameter>
								<parameterid>reverse</parameterid>
								<name>reverse</name>
								<value>FALSE</value>
							</parameter>
							<parameter>
								<parameterid>frameblending</parameterid>
								<name>frameblending</name>
								<value>TRUE</value>
							</parameter>
							<parameter>
								<parameterid>graphdict</parameterid>
								<name>graphdict</name>
								<valuemin>0</valuemin>
								<valuemax>91</valuemax>
								<keyframe>
									<when>0</when>
									<value>0.0497</value>
									<speedkfstart>TRUE</speedkfstart>
									<speedvirtualkf>TRUE</speedvirtualkf>
									<anchorOffset>0.0497</anchorOffset>
								</keyframe>
								<keyframe>
									<when>17</when>
									<value>5.9997</value>
									<speedkfin>TRUE</speedkfin>
									<speedvirtualkf>TRUE</speedvirtualkf>
								</keyframe>
								<keyframe>
									<when>92</when>
									<value>32.2497</value>
									<speedkfout>TRUE</speedkfout>
									<speedvirtualkf>TRUE</speedvirtualkf>
								</keyframe>
								<keyframe>
									<when>261</when>
									<value>92.0497</value>
									<speedkfend>TRUE</speedkfend>
									<speedvirtualkf>TRUE</speedvirtualkf>
								</keyframe>
								<interpolation>
									<name>FCPCurve</name>
								</interpolation>
								<value>5.9997</value>
							</parameter>
						</effect>
					</filter>
				</clipitem>
				<clipitem id="WHOOSHLARG…WHOOSHBYFS105302.WAV18">
					<name>WHOOSHLARG…WHOOSHBYFS105302.WAV</name>
					<duration>261</duration>
					<rate>
						<ntsc>FALSE</ntsc>
						<timebase>25</timebase>
					</rate>
					<in>17</in>
					<out>92</out>
					<start>16451</start>
					<end>16526</end>
					<subframeoffset>0</subframeoffset>
					<masterclipid>WHOOSHLARG…WHOOSHBYFS105302.WAV1</masterclipid>
					<logginginfo>
						<scene/>
						<shottake/>
						<lognote/>
						<good>FALSE</good>
					</logginginfo>
					<labels>
						<label2/>
					</labels>
					<comments>
						<mastercomment1/>
						<mastercomment2/>
						<mastercomment3/>
						<mastercomment4/>
					</comments>
					<file id="WHOOSHLARG…WHOOSHBYFS105302 "/>
					<filter>
						<effect>
							<name>Audio Levels</name>
							<effectid>audiolevels</effectid>
							<effectcategory>audiolevels</effectcategory>
							<effecttype>audiolevels</effecttype>
							<mediatype>audio</mediatype>
							<parameter>
								<name>Level</name>
								<parameterid>level</parameterid>
								<valuemin>0</valuemin>
								<valuemax>3.98109</valuemax>
								<value>0</value>
							</parameter>
						</effect>
					</filter>
					<filter>
						<effect>
							<name>Audio Pan</name>
							<effectid>audiopan</effectid>
							<effectcategory>audiopan</effectcategory>
							<effecttype>audiopan</effecttype>
							<mediatype>audio</mediatype>
							<parameter>
								<name>Pan</name>
								<parameterid>pan</parameterid>
								<valuemin>-1</valuemin>
								<valuemax>1</valuemax>
								<value>1</value>
							</parameter>
						</effect>
					</filter>
					<sourcetrack>
						<mediatype>audio</mediatype>
						<trackindex>2</trackindex>
					</sourcetrack>
					<link>
						<linkclipref>WHOOSHLARG…WHOOSHBYFS105302.WAV17</linkclipref>
						<mediatype>audio</mediatype>
						<trackindex>3</trackindex>
						<clipindex>27</clipindex>
						<groupindex>1</groupindex>
					</link>
					<link>
						<linkclipref>WHOOSHLARG…WHOOSHBYFS105302.WAV18</linkclipref>
						<mediatype>audio</mediatype>
						<trackindex>4</trackindex>
						<clipindex>27</clipindex>
						<groupindex>1</groupindex>
					</link>
					<itemhistory>
						<uuid>CA81D355-3E49-4C8A-8171-EBCD943B2A9F</uuid>
						<uuid>93AE1182-23ED-41CA-A60D-E1D26717DFFE</uuid>
					</itemhistory>
					<filter>
						<effect>
							<name>Time Remap</name>
							<effectid>timeremap</effectid>
							<effectcategory>motion</effectcategory>
							<effecttype>motion</effecttype>
							<mediatype>audio</mediatype>
							<parameter>
								<parameterid>variablespeed</parameterid>
								<name>variablespeed</name>
								<valuemin>0</valuemin>
								<valuemax>1</valuemax>
								<value>0</value>
							</parameter>
							<parameter>
								<parameterid>mappedduration</parameterid>
								<name>mappedduration</name>
								<value>
									<timecode>
										<rate>
											<timebase>0</timebase>
										</rate>
										<string>0</string>
										<frame>0</frame>
										<displayformat>NDF</displayformat>
									</timecode>
								</value>
							</parameter>
							<parameter>
								<parameterid>speed</parameterid>
								<name>speed</name>
								<valuemin>-10000</valuemin>
								<valuemax>10000</valuemax>
								<value>34</value>
							</parameter>
							<parameter>
								<parameterid>reverse</parameterid>
								<name>reverse</name>
								<value>FALSE</value>
							</parameter>
							<parameter>
								<parameterid>frameblending</parameterid>
								<name>frameblending</name>
								<value>TRUE</value>
							</parameter>
							<parameter>
								<parameterid>graphdict</parameterid>
								<name>graphdict</name>
								<valuemin>0</valuemin>
								<valuemax>91</valuemax>
								<keyframe>
									<when>0</when>
									<value>0.0497</value>
									<speedkfstart>TRUE</speedkfstart>
									<speedvirtualkf>TRUE</speedvirtualkf>
									<anchorOffset>0.0497</anchorOffset>
								</keyframe>
								<keyframe>
									<when>17</when>
									<value>5.9997</value>
									<speedkfin>TRUE</speedkfin>
									<speedvirtualkf>TRUE</speedvirtualkf>
								</keyframe>
								<keyframe>
									<when>92</when>
									<value>32.2497</value>
									<speedkfout>TRUE</speedkfout>
									<speedvirtualkf>TRUE</speedvirtualkf>
								</keyframe>
								<keyframe>
									<when>261</when>
									<value>92.0497</value>
									<speedkfend>TRUE</speedkfend>
									<speedvirtualkf>TRUE</speedvirtualkf>
								</keyframe>
								<interpolation>
									<name>FCPCurve</name>
								</interpolation>
								<value>5.9997</value>
							</parameter>
						</effect>
					</filter>
				</clipitem>
				<clipitem id="DYR18488_01 4">
					<name>DYR18488_01</name>
					<duration>1012</duration>
					<rate>
						<ntsc>FALSE</ntsc>
						<timebase>25</timebase>
					</rate>
					<in>149</in>
					<out>186</out>
					<start>18382</start>
					<end>18419</end>
					<subframeoffset>0</subframeoffset>
					<masterclipid>DYR18488_01 1</masterclipid>
					<logginginfo>
						<scene/>
						<shottake/>
						<lognote/>
						<good>FALSE</good>
					</logginginfo>
					<labels>
						<label2/>
					</labels>
					<comments>
						<mastercomment1/>
						<mastercomment2/>
						<mastercomment3/>
						<mastercomment4/>
					</comments>
					<file id="DYR18488_01 2"/>
					<filter>
						<effect>
							<name>Audio Levels</name>
							<effectid>audiolevels</effectid>
							<effectcategory>audiolevels</effectcategory>
							<effecttype>audiolevels</effecttype>
							<mediatype>audio</mediatype>
							<parameter>
								<name>Level</name>
								<parameterid>level</parameterid>
								<valuemin>0</valuemin>
								<valuemax>3.98109</valuemax>
								<value>1</value>
							</parameter>
						</effect>
					</filter>
					<filter>
						<effect>
							<name>Audio Pan</name>
							<effectid>audiopan</effectid>
							<effectcategory>audiopan</effectcategory>
							<effecttype>audiopan</effecttype>
							<mediatype>audio</mediatype>
							<parameter>
								<name>Pan</name>
								<parameterid>pan</parameterid>
								<valuemin>-1</valuemin>
								<valuemax>1</valuemax>
								<value>0</value>
							</parameter>
						</effect>
					</filter>
					<sourcetrack>
						<mediatype>audio</mediatype>
						<trackindex>2</trackindex>
					</sourcetrack>
					<link>
						<linkclipref>DYR18488_01 </linkclipref>
						<mediatype>video</mediatype>
						<trackindex>1</trackindex>
						<clipindex>135</clipindex>
					</link>
					<link>
						<linkclipref>DYR18488_01 3</linkclipref>
						<mediatype>audio</mediatype>
						<trackindex>3</trackindex>
						<clipindex>28</clipindex>
					</link>
					<link>
						<linkclipref>DYR18488_01 4</linkclipref>
						<mediatype>audio</mediatype>
						<trackindex>4</trackindex>
						<clipindex>28</clipindex>
					</link>
					<itemhistory>
						<uuid>D0BBC634-57FE-447E-824D-FC85FB8D17B9</uuid>
					</itemhistory>
				</clipitem>
				<clipitem id="WHOOSHLARG…WHOOSHBYFS105302.WAV20">
					<name>WHOOSHLARG…WHOOSHBYFS105302.WAV</name>
					<duration>203</duration>
					<rate>
						<ntsc>FALSE</ntsc>
						<timebase>25</timebase>
					</rate>
					<in>4</in>
					<out>99</out>
					<start>20692</start>
					<end>20787</end>
					<subframeoffset>0</subframeoffset>
					<masterclipid>WHOOSHLARG…WHOOSHBYFS105302.WAV1</masterclipid>
					<logginginfo>
						<scene/>
						<shottake/>
						<lognote/>
						<good>FALSE</good>
					</logginginfo>
					<labels>
						<label2/>
					</labels>
					<comments>
						<mastercomment1/>
						<mastercomment2/>
						<mastercomment3/>
						<mastercomment4/>
					</comments>
					<file id="WHOOSHLARG…WHOOSHBYFS105302 "/>
					<filter>
						<effect>
							<name>Audio Levels</name>
							<effectid>audiolevels</effectid>
							<effectcategory>audiolevels</effectcategory>
							<effecttype>audiolevels</effecttype>
							<mediatype>audio</mediatype>
							<parameter>
								<name>Level</name>
								<parameterid>level</parameterid>
								<valuemin>0</valuemin>
								<valuemax>3.98109</valuemax>
								<value>0.199526</value>
							</parameter>
						</effect>
					</filter>
					<filter>
						<effect>
							<name>Audio Pan</name>
							<effectid>audiopan</effectid>
							<effectcategory>audiopan</effectcategory>
							<effecttype>audiopan</effecttype>
							<mediatype>audio</mediatype>
							<parameter>
								<name>Pan</name>
								<parameterid>pan</parameterid>
								<valuemin>-1</valuemin>
								<valuemax>1</valuemax>
								<value>1</value>
							</parameter>
						</effect>
					</filter>
					<sourcetrack>
						<mediatype>audio</mediatype>
						<trackindex>2</trackindex>
					</sourcetrack>
					<link>
						<linkclipref>WHOOSHLARG…WHOOSHBYFS105302.WAV19</linkclipref>
						<mediatype>audio</mediatype>
						<trackindex>3</trackindex>
						<clipindex>29</clipindex>
						<groupindex>1</groupindex>
					</link>
					<link>
						<linkclipref>WHOOSHLARG…WHOOSHBYFS105302.WAV20</linkclipref>
						<mediatype>audio</mediatype>
						<trackindex>4</trackindex>
						<clipindex>29</clipindex>
						<groupindex>1</groupindex>
					</link>
					<itemhistory>
						<uuid>EC12D7B8-8820-4523-9B20-9F5908C67374</uuid>
						<uuid>93AE1182-23ED-41CA-A60D-E1D26717DFFE</uuid>
					</itemhistory>
					<filter>
						<effect>
							<name>Time Remap</name>
							<effectid>timeremap</effectid>
							<effectcategory>motion</effectcategory>
							<effecttype>motion</effecttype>
							<mediatype>audio</mediatype>
							<parameter>
								<parameterid>variablespeed</parameterid>
								<name>variablespeed</name>
								<valuemin>0</valuemin>
								<valuemax>1</valuemax>
								<value>0</value>
							</parameter>
							<parameter>
								<parameterid>mappedduration</parameterid>
								<name>mappedduration</name>
								<value>
									<timecode>
										<rate>
											<timebase>0</timebase>
										</rate>
										<string>0</string>
										<frame>0</frame>
										<displayformat>NDF</displayformat>
									</timecode>
								</value>
							</parameter>
							<parameter>
								<parameterid>speed</parameterid>
								<name>speed</name>
								<valuemin>-10000</valuemin>
								<valuemax>10000</valuemax>
								<value>45</value>
							</parameter>
							<parameter>
								<parameterid>reverse</parameterid>
								<name>reverse</name>
								<value>FALSE</value>
							</parameter>
							<parameter>
								<parameterid>frameblending</parameterid>
								<name>frameblending</name>
								<value>TRUE</value>
							</parameter>
							<parameter>
								<parameterid>graphdict</parameterid>
								<name>graphdict</name>
								<valuemin>0</valuemin>
								<valuemax>91</valuemax>
								<keyframe>
									<when>0</when>
									<value>0.1432</value>
									<speedkfstart>TRUE</speedkfstart>
									<speedvirtualkf>TRUE</speedvirtualkf>
									<anchorOffset>0.1432</anchorOffset>
								</keyframe>
								<keyframe>
									<when>4</when>
									<value>1.94518</value>
									<speedkfin>TRUE</speedkfin>
									<speedvirtualkf>TRUE</speedvirtualkf>
								</keyframe>
								<keyframe>
									<when>99</when>
									<value>44.7422</value>
									<speedkfout>TRUE</speedkfout>
									<speedvirtualkf>TRUE</speedvirtualkf>
								</keyframe>
								<keyframe>
									<when>203</when>
									<value>92.1432</value>
									<speedkfend>TRUE</speedkfend>
									<speedvirtualkf>TRUE</speedvirtualkf>
								</keyframe>
								<interpolation>
									<name>FCPCurve</name>
								</interpolation>
								<value>1.94518</value>
							</parameter>
						</effect>
					</filter>
				</clipitem>
				<clipitem id="00790001.MOV6">
					<name>00790001.MOV</name>
					<duration>3816</duration>
					<rate>
						<ntsc>FALSE</ntsc>
						<timebase>25</timebase>
					</rate>
					<in>351</in>
					<out>382</out>
					<start>22450</start>
					<end>22481</end>
					<subframeoffset>0</subframeoffset>
					<enabled>TRUE</enabled>
					<masterclipid>00790001.MOV1</masterclipid>
					<logginginfo>
						<scene/>
						<shottake/>
						<lognote/>
						<good>FALSE</good>
					</logginginfo>
					<labels>
						<label2/>
					</labels>
					<comments>
						<mastercomment1/>
						<mastercomment2/>
						<mastercomment3/>
						<mastercomment4/>
					</comments>
					<file id="00790001 "/>
					<filter>
						<effect>
							<name>Audio Levels</name>
							<effectid>audiolevels</effectid>
							<effectcategory>audiolevels</effectcategory>
							<effecttype>audiolevels</effecttype>
							<mediatype>audio</mediatype>
							<parameter>
								<name>Level</name>
								<parameterid>level</parameterid>
								<valuemin>0</valuemin>
								<valuemax>3.98109</valuemax>
								<value>1</value>
							</parameter>
						</effect>
					</filter>
					<filter>
						<effect>
							<name>Audio Pan</name>
							<effectid>audiopan</effectid>
							<effectcategory>audiopan</effectcategory>
							<effecttype>audiopan</effecttype>
							<mediatype>audio</mediatype>
							<parameter>
								<name>Pan</name>
								<parameterid>pan</parameterid>
								<valuemin>-1</valuemin>
								<valuemax>1</valuemax>
								<value>0</value>
							</parameter>
						</effect>
					</filter>
					<sourcetrack>
						<mediatype>audio</mediatype>
						<trackindex>2</trackindex>
					</sourcetrack>
					<link>
						<linkclipref>00790001.MOV4</linkclipref>
						<mediatype>video</mediatype>
						<trackindex>2</trackindex>
						<clipindex>62</clipindex>
					</link>
					<link>
						<linkclipref>00790001.MOV5</linkclipref>
						<mediatype>audio</mediatype>
						<trackindex>3</trackindex>
						<clipindex>30</clipindex>
					</link>
					<link>
						<linkclipref>00790001.MOV6</linkclipref>
						<mediatype>audio</mediatype>
						<trackindex>4</trackindex>
						<clipindex>30</clipindex>
					</link>
					<itemhistory>
						<uuid>377DF3ED-AA1F-4F50-9D80-900068FC64D0</uuid>
					</itemhistory>
				</clipitem>
				<clipitem id="00782001.MOV7">
					<name>00782001.MOV</name>
					<duration>1248</duration>
					<rate>
						<ntsc>FALSE</ntsc>
						<timebase>25</timebase>
					</rate>
					<in>986</in>
					<out>1029</out>
					<start>22518</start>
					<end>22561</end>
					<subframeoffset>0</subframeoffset>
					<masterclipid>00782001.MOV1</masterclipid>
					<logginginfo>
						<scene/>
						<shottake/>
						<lognote/>
						<good>FALSE</good>
					</logginginfo>
					<labels>
						<label2/>
					</labels>
					<comments>
						<mastercomment1/>
						<mastercomment2/>
						<mastercomment3/>
						<mastercomment4/>
					</comments>
					<file id="00782001 "/>
					<filter>
						<effect>
							<name>Audio Levels</name>
							<effectid>audiolevels</effectid>
							<effectcategory>audiolevels</effectcategory>
							<effecttype>audiolevels</effecttype>
							<mediatype>audio</mediatype>
							<parameter>
								<name>Level</name>
								<parameterid>level</parameterid>
								<valuemin>0</valuemin>
								<valuemax>3.98109</valuemax>
								<value>3.98107</value>
							</parameter>
						</effect>
					</filter>
					<filter>
						<effect>
							<name>Audio Pan</name>
							<effectid>audiopan</effectid>
							<effectcategory>audiopan</effectcategory>
							<effecttype>audiopan</effecttype>
							<mediatype>audio</mediatype>
							<parameter>
								<name>Pan</name>
								<parameterid>pan</parameterid>
								<valuemin>-1</valuemin>
								<valuemax>1</valuemax>
								<value>0</value>
							</parameter>
						</effect>
					</filter>
					<sourcetrack>
						<mediatype>audio</mediatype>
						<trackindex>2</trackindex>
					</sourcetrack>
					<link>
						<linkclipref>00782001.MOV6</linkclipref>
						<mediatype>audio</mediatype>
						<trackindex>3</trackindex>
						<clipindex>31</clipindex>
					</link>
					<link>
						<linkclipref>00782001.MOV7</linkclipref>
						<mediatype>audio</mediatype>
						<trackindex>4</trackindex>
						<clipindex>31</clipindex>
					</link>
					<itemhistory>
						<uuid>8BF10E08-A850-40D4-B7EB-9282F6062ECD</uuid>
					</itemhistory>
				</clipitem>
				<clipitem id="00791001.MOV5">
					<name>00791001.MOV</name>
					<duration>1224</duration>
					<rate>
						<ntsc>FALSE</ntsc>
						<timebase>25</timebase>
					</rate>
					<in>1016</in>
					<out>1029</out>
					<start>22854</start>
					<end>22867</end>
					<subframeoffset>0</subframeoffset>
					<masterclipid>00791001.MOV1</masterclipid>
					<logginginfo>
						<scene/>
						<shottake/>
						<lognote/>
						<good>FALSE</good>
					</logginginfo>
					<labels>
						<label2/>
					</labels>
					<comments>
						<mastercomment1/>
						<mastercomment2/>
						<mastercomment3/>
						<mastercomment4/>
					</comments>
					<file id="00791001 "/>
					<filter>
						<effect>
							<name>Audio Levels</name>
							<effectid>audiolevels</effectid>
							<effectcategory>audiolevels</effectcategory>
							<effecttype>audiolevels</effecttype>
							<mediatype>audio</mediatype>
							<parameter>
								<name>Level</name>
								<parameterid>level</parameterid>
								<valuemin>0</valuemin>
								<valuemax>3.98109</valuemax>
								<value>1</value>
							</parameter>
						</effect>
					</filter>
					<filter>
						<effect>
							<name>Audio Pan</name>
							<effectid>audiopan</effectid>
							<effectcategory>audiopan</effectcategory>
							<effecttype>audiopan</effecttype>
							<mediatype>audio</mediatype>
							<parameter>
								<name>Pan</name>
								<parameterid>pan</parameterid>
								<valuemin>-1</valuemin>
								<valuemax>1</valuemax>
								<value>0</value>
							</parameter>
						</effect>
					</filter>
					<sourcetrack>
						<mediatype>audio</mediatype>
						<trackindex>2</trackindex>
					</sourcetrack>
					<itemhistory>
						<uuid>AD1C576A-97C0-41FE-9CC1-9FF8C5105C66</uuid>
					</itemhistory>
				</clipitem>
				<clipitem id="Treet Playback Miks 1 3">
					<name>Treet Playback Miks 1</name>
					<duration>5351</duration>
					<rate>
						<ntsc>FALSE</ntsc>
						<timebase>25</timebase>
					</rate>
					<in>0</in>
					<out>4230</out>
					<start>23888</start>
					<end>28118</end>
					<masterclipid>Treet Playback Miks 1 1</masterclipid>
					<logginginfo>
						<scene/>
						<shottake/>
						<lognote/>
						<good>FALSE</good>
					</logginginfo>
					<labels>
						<label2/>
					</labels>
					<comments>
						<mastercomment1/>
						<mastercomment2/>
						<mastercomment3/>
						<mastercomment4/>
					</comments>
					<file id="Treet Playback Miks 1 2"/>
					<filter>
						<effect>
							<name>Audio Levels</name>
							<effectid>audiolevels</effectid>
							<effectcategory>audiolevels</effectcategory>
							<effecttype>audiolevels</effecttype>
							<mediatype>audio</mediatype>
							<parameter>
								<name>Level</name>
								<parameterid>level</parameterid>
								<valuemin>0</valuemin>
								<valuemax>3.98109</valuemax>
								<keyframe>
									<when>3747.14</when>
									<value>1</value>
								</keyframe>
								<keyframe>
									<when>3857.14</when>
									<value>0.0354813</value>
								</keyframe>
								<keyframe>
									<when>4203.57</when>
									<value>0</value>
								</keyframe>
								<interpolation>
									<name>FCPCurve</name>
								</interpolation>
								<value>1</value>
							</parameter>
						</effect>
					</filter>
					<filter>
						<effect>
							<name>Audio Pan</name>
							<effectid>audiopan</effectid>
							<effectcategory>audiopan</effectcategory>
							<effecttype>audiopan</effecttype>
							<mediatype>audio</mediatype>
							<parameter>
								<name>Pan</name>
								<parameterid>pan</parameterid>
								<valuemin>-1</valuemin>
								<valuemax>1</valuemax>
								<value>1</value>
							</parameter>
						</effect>
					</filter>
					<sourcetrack>
						<mediatype>audio</mediatype>
						<trackindex>2</trackindex>
					</sourcetrack>
					<link>
						<linkclipref>Treet Playback Miks 1 </linkclipref>
						<mediatype>audio</mediatype>
						<trackindex>3</trackindex>
						<clipindex>33</clipindex>
						<groupindex>1</groupindex>
					</link>
					<link>
						<linkclipref>Treet Playback Miks 1 3</linkclipref>
						<mediatype>audio</mediatype>
						<trackindex>4</trackindex>
						<clipindex>33</clipindex>
						<groupindex>1</groupindex>
					</link>
					<itemhistory>
						<uuid>4C03028F-3177-4AD2-8524-D00C39AA048D</uuid>
					</itemhistory>
				</clipitem>
				<clipitem id="SCD072220.wav2">
					<name>SCD072220.wav</name>
					<duration>3140</duration>
					<rate>
						<ntsc>FALSE</ntsc>
						<timebase>25</timebase>
					</rate>
					<in>0</in>
					<out>237</out>
					<start>28431</start>
					<end>28668</end>
					<subframeoffset>0</subframeoffset>
					<masterclipid>SCD072220.wav1</masterclipid>
					<logginginfo>
						<scene/>
						<shottake/>
						<lognote/>
						<good>FALSE</good>
					</logginginfo>
					<labels>
						<label2/>
					</labels>
					<comments>
						<mastercomment1>Munnharpe</mastercomment1>
						<mastercomment2/>
						<mastercomment3/>
						<mastercomment4/>
					</comments>
					<file id="SCD072220 "/>
					<filter>
						<effect>
							<name>Audio Levels</name>
							<effectid>audiolevels</effectid>
							<effectcategory>audiolevels</effectcategory>
							<effecttype>audiolevels</effecttype>
							<mediatype>audio</mediatype>
							<parameter>
								<name>Level</name>
								<parameterid>level</parameterid>
								<valuemin>0</valuemin>
								<valuemax>3.98109</valuemax>
								<keyframe>
									<when>184.429</when>
									<value>0.199526</value>
								</keyframe>
								<keyframe>
									<when>237</when>
									<value>0</value>
								</keyframe>
								<interpolation>
									<name>FCPCurve</name>
								</interpolation>
								<value>1</value>
							</parameter>
						</effect>
					</filter>
					<filter>
						<effect>
							<name>Audio Pan</name>
							<effectid>audiopan</effectid>
							<effectcategory>audiopan</effectcategory>
							<effecttype>audiopan</effecttype>
							<mediatype>audio</mediatype>
							<parameter>
								<name>Pan</name>
								<parameterid>pan</parameterid>
								<valuemin>-1</valuemin>
								<valuemax>1</valuemax>
								<value>1</value>
							</parameter>
						</effect>
					</filter>
					<sourcetrack>
						<mediatype>audio</mediatype>
						<trackindex>2</trackindex>
					</sourcetrack>
					<link>
						<linkclipref>SCD072220.wav</linkclipref>
						<mediatype>audio</mediatype>
						<trackindex>3</trackindex>
						<clipindex>34</clipindex>
						<groupindex>1</groupindex>
					</link>
					<link>
						<linkclipref>SCD072220.wav2</linkclipref>
						<mediatype>audio</mediatype>
						<trackindex>4</trackindex>
						<clipindex>34</clipindex>
						<groupindex>1</groupindex>
					</link>
					<itemhistory>
						<uuid>CB4EF0FA-F588-4150-89F0-980A800482BC</uuid>
					</itemhistory>
				</clipitem>
				<enabled>TRUE</enabled>
				<locked>FALSE</locked>
				<outputchannelindex>2</outputchannelindex>
			</track>
			<track>
				<clipitem id="Mari Teaser PGM 5 Endelig.wav">
					<name>Mari Teaser PGM 5 Endelig.wav</name>
					<duration>754</duration>
					<rate>
						<ntsc>FALSE</ntsc>
						<timebase>25</timebase>
					</rate>
					<in>413</in>
					<out>518</out>
					<start>419</start>
					<end>524</end>
					<subframeoffset>0</subframeoffset>
					<masterclipid>Mari Teaser PGM 5 Endelig.wav1</masterclipid>
					<logginginfo>
						<scene/>
						<shottake/>
						<lognote/>
						<good>FALSE</good>
					</logginginfo>
					<labels>
						<label2/>
					</labels>
					<comments>
						<mastercomment1/>
						<mastercomment2/>
						<mastercomment3/>
						<mastercomment4/>
					</comments>
					<file id="Mari Teaser PGM 5 Endelig">
						<name>Mari Teaser PGM 5 Endelig.wav</name>
						<pathurl>file://localhost/Volumes/Askepott/Prosjekter/DNPR637010_Kra%CC%8Akeklubben_TEM_011212/LYD/Mari%20Teaser%20PGM%205%20Endelig.wav</pathurl>
						<rate>
							<timebase>25</timebase>
						</rate>
						<duration>754</duration>
						<timecode>
							<rate>
								<timebase>25</timebase>
							</rate>
							<string>00:07:20:04</string>
							<frame>11004</frame>
							<displayformat>NDF</displayformat>
							<source>source</source>
						</timecode>
						<media>
							<audio>
								<samplecharacteristics>
									<samplerate>48000</samplerate>
									<depth>24</depth>
								</samplecharacteristics>
								<channelcount>1</channelcount>
							</audio>
						</media>
					</file>
					<filter>
						<effect>
							<name>Audio Levels</name>
							<effectid>audiolevels</effectid>
							<effectcategory>audiolevels</effectcategory>
							<effecttype>audiolevels</effecttype>
							<mediatype>audio</mediatype>
							<parameter>
								<name>Level</name>
								<parameterid>level</parameterid>
								<valuemin>0</valuemin>
								<valuemax>3.98109</valuemax>
								<value>1.99526</value>
							</parameter>
						</effect>
					</filter>
					<filter>
						<effect>
							<name>Audio Pan</name>
							<effectid>audiopan</effectid>
							<effectcategory>audiopan</effectcategory>
							<effecttype>audiopan</effecttype>
							<mediatype>audio</mediatype>
							<parameter>
								<name>Pan</name>
								<parameterid>pan</parameterid>
								<valuemin>-1</valuemin>
								<valuemax>1</valuemax>
								<value>0</value>
							</parameter>
						</effect>
					</filter>
					<sourcetrack>
						<mediatype>audio</mediatype>
						<trackindex>1</trackindex>
					</sourcetrack>
					<itemhistory>
						<uuid>ADBEFA36-0DB6-4A68-ABD2-ABFC757DFCFB</uuid>
					</itemhistory>
				</clipitem>
				<clipitem id="Mari Teaser PGM 5 Endelig.wav2">
					<name>Mari Teaser PGM 5 Endelig.wav</name>
					<duration>754</duration>
					<rate>
						<ntsc>FALSE</ntsc>
						<timebase>25</timebase>
					</rate>
					<in>518</in>
					<out>624</out>
					<start>531</start>
					<end>637</end>
					<subframeoffset>0</subframeoffset>
					<masterclipid>Mari Teaser PGM 5 Endelig.wav1</masterclipid>
					<logginginfo>
						<scene/>
						<shottake/>
						<lognote/>
						<good>FALSE</good>
					</logginginfo>
					<labels>
						<label2/>
					</labels>
					<comments>
						<mastercomment1/>
						<mastercomment2/>
						<mastercomment3/>
						<mastercomment4/>
					</comments>
					<file id="Mari Teaser PGM 5 Endelig"/>
					<filter>
						<effect>
							<name>Audio Levels</name>
							<effectid>audiolevels</effectid>
							<effectcategory>audiolevels</effectcategory>
							<effecttype>audiolevels</effecttype>
							<mediatype>audio</mediatype>
							<parameter>
								<name>Level</name>
								<parameterid>level</parameterid>
								<valuemin>0</valuemin>
								<valuemax>3.98109</valuemax>
								<value>1.99526</value>
							</parameter>
						</effect>
					</filter>
					<filter>
						<effect>
							<name>Audio Pan</name>
							<effectid>audiopan</effectid>
							<effectcategory>audiopan</effectcategory>
							<effecttype>audiopan</effecttype>
							<mediatype>audio</mediatype>
							<parameter>
								<name>Pan</name>
								<parameterid>pan</parameterid>
								<valuemin>-1</valuemin>
								<valuemax>1</valuemax>
								<value>0</value>
							</parameter>
						</effect>
					</filter>
					<sourcetrack>
						<mediatype>audio</mediatype>
						<trackindex>1</trackindex>
					</sourcetrack>
					<itemhistory>
						<uuid>E41882BC-5127-45A3-AE4E-E39755930CA6</uuid>
					</itemhistory>
				</clipitem>
				<clipitem id="Mari Teaser PGM 5 Endelig.wav3">
					<name>Mari Teaser PGM 5 Endelig.wav</name>
					<duration>754</duration>
					<rate>
						<ntsc>FALSE</ntsc>
						<timebase>25</timebase>
					</rate>
					<in>624</in>
					<out>754</out>
					<start>638</start>
					<end>768</end>
					<subframeoffset>0</subframeoffset>
					<masterclipid>Mari Teaser PGM 5 Endelig.wav1</masterclipid>
					<logginginfo>
						<scene/>
						<shottake/>
						<lognote/>
						<good>FALSE</good>
					</logginginfo>
					<labels>
						<label2/>
					</labels>
					<comments>
						<mastercomment1/>
						<mastercomment2/>
						<mastercomment3/>
						<mastercomment4/>
					</comments>
					<file id="Mari Teaser PGM 5 Endelig"/>
					<filter>
						<effect>
							<name>Audio Levels</name>
							<effectid>audiolevels</effectid>
							<effectcategory>audiolevels</effectcategory>
							<effecttype>audiolevels</effecttype>
							<mediatype>audio</mediatype>
							<parameter>
								<name>Level</name>
								<parameterid>level</parameterid>
								<valuemin>0</valuemin>
								<valuemax>3.98109</valuemax>
								<value>1.99526</value>
							</parameter>
						</effect>
					</filter>
					<filter>
						<effect>
							<name>Audio Pan</name>
							<effectid>audiopan</effectid>
							<effectcategory>audiopan</effectcategory>
							<effecttype>audiopan</effecttype>
							<mediatype>audio</mediatype>
							<parameter>
								<name>Pan</name>
								<parameterid>pan</parameterid>
								<valuemin>-1</valuemin>
								<valuemax>1</valuemax>
								<value>0</value>
							</parameter>
						</effect>
					</filter>
					<sourcetrack>
						<mediatype>audio</mediatype>
						<trackindex>1</trackindex>
					</sourcetrack>
					<itemhistory>
						<uuid>30E46E78-6FCE-42E7-B1AC-9782B4128DCF</uuid>
					</itemhistory>
				</clipitem>
				<clipitem id="StarsIn…tronicDIGIFXJ027401.WAV">
					<name>StarsIn…tronicDIGIFXJ027401.WAV</name>
					<duration>822</duration>
					<rate>
						<ntsc>FALSE</ntsc>
						<timebase>25</timebase>
					</rate>
					<in>8</in>
					<out>121</out>
					<start>1484</start>
					<end>-1</end>
					<subframeoffset>0</subframeoffset>
					<masterclipid>StarsIn…tronicDIGIFXJ027401.WAV1</masterclipid>
					<logginginfo>
						<scene/>
						<shottake/>
						<lognote/>
						<good>FALSE</good>
					</logginginfo>
					<labels>
						<label2/>
					</labels>
					<comments>
						<mastercomment1/>
						<mastercomment2/>
						<mastercomment3/>
						<mastercomment4/>
					</comments>
					<file id="StarsIn…tronicDIGIFXJ027401 ">
						<name>StarsIn…tronicDIGIFXJ027401.WAV</name>
						<pathurl>file://localhost/Volumes/Askepott/Prosjekter/DNPR630011_Dyrevenn_sesong_6_IVS_010612/Lydeffekter/Natur/StarsIn%E2%80%A6tronicDIGIFXJ027401.WAV</pathurl>
						<rate>
							<timebase>25</timebase>
						</rate>
						<duration>822</duration>
						<timecode>
							<rate>
								<timebase>25</timebase>
							</rate>
							<string>00:00:00:00</string>
							<frame>0</frame>
							<displayformat>NDF</displayformat>
							<source>source</source>
						</timecode>
						<media>
							<audio>
								<samplecharacteristics>
									<samplerate>44100</samplerate>
									<depth>16</depth>
								</samplecharacteristics>
								<channelcount>2</channelcount>
							</audio>
						</media>
					</file>
					<filter>
						<effect>
							<name>Audio Levels</name>
							<effectid>audiolevels</effectid>
							<effectcategory>audiolevels</effectcategory>
							<effecttype>audiolevels</effecttype>
							<mediatype>audio</mediatype>
							<parameter>
								<name>Level</name>
								<parameterid>level</parameterid>
								<valuemin>0</valuemin>
								<valuemax>3.98109</valuemax>
								<keyframe>
									<when>131</when>
									<value>0.354813</value>
								</keyframe>
								<interpolation>
									<name>FCPCurve</name>
								</interpolation>
								<value>1</value>
							</parameter>
						</effect>
					</filter>
					<filter>
						<effect>
							<name>Audio Pan</name>
							<effectid>audiopan</effectid>
							<effectcategory>audiopan</effectcategory>
							<effecttype>audiopan</effecttype>
							<mediatype>audio</mediatype>
							<parameter>
								<name>Pan</name>
								<parameterid>pan</parameterid>
								<valuemin>-1</valuemin>
								<valuemax>1</valuemax>
								<value>-1</value>
							</parameter>
						</effect>
					</filter>
					<sourcetrack>
						<mediatype>audio</mediatype>
						<trackindex>1</trackindex>
					</sourcetrack>
					<link>
						<linkclipref>StarsIn…tronicDIGIFXJ027401.WAV</linkclipref>
						<mediatype>audio</mediatype>
						<trackindex>5</trackindex>
						<clipindex>4</clipindex>
						<groupindex>1</groupindex>
					</link>
					<link>
						<linkclipref>StarsIn…tronicDIGIFXJ027401.WAV2</linkclipref>
						<mediatype>audio</mediatype>
						<trackindex>6</trackindex>
						<clipindex>1</clipindex>
						<groupindex>1</groupindex>
					</link>
					<itemhistory>
						<uuid>AC3423BB-4CE2-4769-A7A4-629DD52852B0</uuid>
					</itemhistory>
				</clipitem>
				<transitionitem>
					<rate>
						<ntsc>FALSE</ntsc>
						<timebase>25</timebase>
					</rate>
					<start>1586</start>
					<end>1597</end>
					<alignment>center</alignment>
					<effect>
						<name>Cross Fade (+3dB)</name>
						<effectid>KGAudioTransCrossFade3dB</effectid>
						<effecttype>transition</effecttype>
						<mediatype>audio</mediatype>
					</effect>
				</transitionitem>
				<clipitem id="Gong-DeepDIGIFXJ013601.WAV">
					<name>Gong-DeepDIGIFXJ013601.WAV</name>
					<duration>1049</duration>
					<rate>
						<ntsc>FALSE</ntsc>
						<timebase>25</timebase>
					</rate>
					<in>9</in>
					<out>132</out>
					<start>-1</start>
					<end>1709</end>
					<subframeoffset>0</subframeoffset>
					<masterclipid>Gong-DeepDIGIFXJ013601.WAV1</masterclipid>
					<logginginfo>
						<scene/>
						<shottake/>
						<lognote/>
						<good>FALSE</good>
					</logginginfo>
					<labels>
						<label2/>
					</labels>
					<comments>
						<mastercomment1/>
						<mastercomment2/>
						<mastercomment3/>
						<mastercomment4/>
					</comments>
					<file id="Gong-DeepDIGIFXJ013601 ">
						<name>Gong-DeepDIGIFXJ013601.WAV</name>
						<pathurl>file://localhost/Volumes/Askepott/Prosjekter/DNPR630011_Dyrevenn_sesong_6_IVS_010612/Lydeffekter/Korte%20lyder/Gong-DeepDIGIFXJ013601.WAV</pathurl>
						<rate>
							<timebase>25</timebase>
						</rate>
						<duration>1049</duration>
						<timecode>
							<rate>
								<timebase>25</timebase>
							</rate>
							<string>00:00:00:00</string>
							<frame>0</frame>
							<displayformat>NDF</displayformat>
							<source>source</source>
						</timecode>
						<media>
							<audio>
								<samplecharacteristics>
									<samplerate>44100</samplerate>
									<depth>16</depth>
								</samplecharacteristics>
								<channelcount>2</channelcount>
							</audio>
						</media>
					</file>
					<filter>
						<effect>
							<name>Audio Levels</name>
							<effectid>audiolevels</effectid>
							<effectcategory>audiolevels</effectcategory>
							<effecttype>audiolevels</effecttype>
							<mediatype>audio</mediatype>
							<parameter>
								<name>Level</name>
								<parameterid>level</parameterid>
								<valuemin>0</valuemin>
								<valuemax>3.98109</valuemax>
								<keyframe>
									<when>21.5714</when>
									<value>0.354813</value>
								</keyframe>
								<keyframe>
									<when>123.857</when>
									<value>0</value>
								</keyframe>
								<interpolation>
									<name>FCPCurve</name>
								</interpolation>
								<value>1</value>
							</parameter>
						</effect>
					</filter>
					<filter>
						<effect>
							<name>Audio Pan</name>
							<effectid>audiopan</effectid>
							<effectcategory>audiopan</effectcategory>
							<effecttype>audiopan</effecttype>
							<mediatype>audio</mediatype>
							<parameter>
								<name>Pan</name>
								<parameterid>pan</parameterid>
								<valuemin>-1</valuemin>
								<valuemax>1</valuemax>
								<value>-1</value>
							</parameter>
						</effect>
					</filter>
					<sourcetrack>
						<mediatype>audio</mediatype>
						<trackindex>1</trackindex>
					</sourcetrack>
					<link>
						<linkclipref>Gong-DeepDIGIFXJ013601.WAV</linkclipref>
						<mediatype>audio</mediatype>
						<trackindex>5</trackindex>
						<clipindex>6</clipindex>
						<groupindex>1</groupindex>
					</link>
					<link>
						<linkclipref>Gong-DeepDIGIFXJ013601.WAV2</linkclipref>
						<mediatype>audio</mediatype>
						<trackindex>6</trackindex>
						<clipindex>3</clipindex>
						<groupindex>1</groupindex>
					</link>
					<itemhistory>
						<uuid>2C5B810D-5374-4FF5-A2AB-B85B9CC7C00C</uuid>
					</itemhistory>
				</clipitem>
				<clipitem id="SCD048720.wav">
					<name>SCD048720.wav</name>
					<duration>2137</duration>
					<rate>
						<ntsc>FALSE</ntsc>
						<timebase>25</timebase>
					</rate>
					<in>44</in>
					<out>151</out>
					<start>2909</start>
					<end>-1</end>
					<subframeoffset>0</subframeoffset>
					<masterclipid>SCD048720.wav1</masterclipid>
					<logginginfo>
						<scene/>
						<shottake/>
						<lognote/>
						<good>FALSE</good>
					</logginginfo>
					<labels>
						<label2/>
					</labels>
					<comments>
						<mastercomment1>Swingende vispetakt</mastercomment1>
						<mastercomment2/>
						<mastercomment3/>
						<mastercomment4/>
					</comments>
					<file id="SCD048720 ">
						<name>SCD048720.wav</name>
						<pathurl>file://localhost/Volumes/Askepott/Prosjekter/DNPR637010_Kra%CC%8Akeklubben_TEM_011212/MUSIKK/NATURLEK/SCD048720.wav</pathurl>
						<rate>
							<timebase>25</timebase>
						</rate>
						<duration>2137</duration>
						<media>
							<audio>
								<samplecharacteristics>
									<samplerate>48000</samplerate>
									<depth>16</depth>
								</samplecharacteristics>
								<channelcount>2</channelcount>
							</audio>
						</media>
					</file>
					<filter>
						<effect>
							<name>Audio Levels</name>
							<effectid>audiolevels</effectid>
							<effectcategory>audiolevels</effectcategory>
							<effecttype>audiolevels</effecttype>
							<mediatype>audio</mediatype>
							<parameter>
								<name>Level</name>
								<parameterid>level</parameterid>
								<valuemin>0</valuemin>
								<valuemax>3.98109</valuemax>
								<keyframe>
									<when>44.2857</when>
									<value>0</value>
								</keyframe>
								<keyframe>
									<when>45.4286</when>
									<value>0.199526</value>
								</keyframe>
								<interpolation>
									<name>FCPCurve</name>
								</interpolation>
								<value>0.199526</value>
							</parameter>
						</effect>
					</filter>
					<filter>
						<effect>
							<name>Audio Pan</name>
							<effectid>audiopan</effectid>
							<effectcategory>audiopan</effectcategory>
							<effecttype>audiopan</effecttype>
							<mediatype>audio</mediatype>
							<parameter>
								<name>Pan</name>
								<parameterid>pan</parameterid>
								<valuemin>-1</valuemin>
								<valuemax>1</valuemax>
								<value>-1</value>
							</parameter>
						</effect>
					</filter>
					<sourcetrack>
						<mediatype>audio</mediatype>
						<trackindex>1</trackindex>
					</sourcetrack>
					<link>
						<linkclipref>SCD048720.wav</linkclipref>
						<mediatype>audio</mediatype>
						<trackindex>5</trackindex>
						<clipindex>7</clipindex>
						<groupindex>1</groupindex>
					</link>
					<link>
						<linkclipref>SCD048720.wav2</linkclipref>
						<mediatype>audio</mediatype>
						<trackindex>6</trackindex>
						<clipindex>4</clipindex>
						<groupindex>1</groupindex>
					</link>
					<itemhistory>
						<uuid>E6B9FA34-4DF1-4933-8A07-824A11C5B2D9</uuid>
					</itemhistory>
				</clipitem>
				<transitionitem>
					<rate>
						<ntsc>FALSE</ntsc>
						<timebase>25</timebase>
					</rate>
					<start>2998</start>
					<end>3016</end>
					<alignment>center</alignment>
					<effect>
						<name>Cross Fade (+3dB)</name>
						<effectid>KGAudioTransCrossFade3dB</effectid>
						<effecttype>transition</effecttype>
						<mediatype>audio</mediatype>
					</effect>
				</transitionitem>
				<clipitem id="SCD048720.wav3">
					<name>SCD048720.wav</name>
					<duration>2137</duration>
					<rate>
						<ntsc>FALSE</ntsc>
						<timebase>25</timebase>
					</rate>
					<in>2016</in>
					<out>2087</out>
					<start>-1</start>
					<end>3069</end>
					<subframeoffset>0</subframeoffset>
					<masterclipid>SCD048720.wav1</masterclipid>
					<logginginfo>
						<scene/>
						<shottake/>
						<lognote/>
						<good>FALSE</good>
					</logginginfo>
					<labels>
						<label2/>
					</labels>
					<comments>
						<mastercomment1>Swingende vispetakt</mastercomment1>
						<mastercomment2/>
						<mastercomment3/>
						<mastercomment4/>
					</comments>
					<file id="SCD048720 "/>
					<filter>
						<effect>
							<name>Audio Levels</name>
							<effectid>audiolevels</effectid>
							<effectcategory>audiolevels</effectcategory>
							<effecttype>audiolevels</effecttype>
							<mediatype>audio</mediatype>
							<parameter>
								<name>Level</name>
								<parameterid>level</parameterid>
								<valuemin>0</valuemin>
								<valuemax>3.98109</valuemax>
								<value>0.199526</value>
							</parameter>
						</effect>
					</filter>
					<filter>
						<effect>
							<name>Audio Pan</name>
							<effectid>audiopan</effectid>
							<effectcategory>audiopan</effectcategory>
							<effecttype>audiopan</effecttype>
							<mediatype>audio</mediatype>
							<parameter>
								<name>Pan</name>
								<parameterid>pan</parameterid>
								<valuemin>-1</valuemin>
								<valuemax>1</valuemax>
								<value>-1</value>
							</parameter>
						</effect>
					</filter>
					<sourcetrack>
						<mediatype>audio</mediatype>
						<trackindex>1</trackindex>
					</sourcetrack>
					<link>
						<linkclipref>SCD048720.wav3</linkclipref>
						<mediatype>audio</mediatype>
						<trackindex>5</trackindex>
						<clipindex>9</clipindex>
						<groupindex>1</groupindex>
					</link>
					<link>
						<linkclipref>SCD048720.wav4</linkclipref>
						<mediatype>audio</mediatype>
						<trackindex>6</trackindex>
						<clipindex>6</clipindex>
						<groupindex>1</groupindex>
					</link>
					<itemhistory>
						<uuid>36E95C67-69B2-4090-B181-F217354D1B44</uuid>
					</itemhistory>
				</clipitem>
				<transitionitem>
					<rate>
						<ntsc>FALSE</ntsc>
						<timebase>25</timebase>
					</rate>
					<start>5005</start>
					<end>5055</end>
					<alignment>start-black</alignment>
					<effect>
						<name>Cross Fade (+3dB) Copy</name>
						<effectid>KGAudioTransCrossFade3dB</effectid>
						<effecttype>transition</effecttype>
						<mediatype>audio</mediatype>
					</effect>
				</transitionitem>
				<clipitem id="SCD073718 ">
					<name>SCD073718</name>
					<duration>3976</duration>
					<rate>
						<ntsc>FALSE</ntsc>
						<timebase>25</timebase>
					</rate>
					<in>446</in>
					<out>1596</out>
					<start>-1</start>
					<end>6155</end>
					<subframeoffset>0</subframeoffset>
					<masterclipid>SCD073718 1</masterclipid>
					<logginginfo>
						<scene/>
						<shottake/>
						<lognote/>
						<good>FALSE</good>
					</logginginfo>
					<labels>
						<label2/>
					</labels>
					<comments>
						<mastercomment1/>
						<mastercomment2/>
						<mastercomment3/>
						<mastercomment4/>
					</comments>
					<file id="SCD073718 2">
						<name>SCD073718.wav</name>
						<pathurl>file://localhost/Volumes/Askepott/Prosjekter/DNPR637010_Kra%CC%8Akeklubben_TEM_011212/MUSIKK/NATURLEK/trollskog/SCD073718.wav</pathurl>
						<rate>
							<timebase>25</timebase>
						</rate>
						<duration>3976</duration>
						<media>
							<audio>
								<samplecharacteristics>
									<samplerate>48000</samplerate>
									<depth>16</depth>
								</samplecharacteristics>
								<channelcount>2</channelcount>
							</audio>
						</media>
					</file>
					<filter>
						<effect>
							<name>Audio Levels</name>
							<effectid>audiolevels</effectid>
							<effectcategory>audiolevels</effectcategory>
							<effecttype>audiolevels</effecttype>
							<mediatype>audio</mediatype>
							<parameter>
								<name>Level</name>
								<parameterid>level</parameterid>
								<valuemin>0</valuemin>
								<valuemax>3.98109</valuemax>
								<keyframe>
									<when>664</when>
									<value>0.251189</value>
								</keyframe>
								<keyframe>
									<when>760</when>
									<value>0.141254</value>
								</keyframe>
								<keyframe>
									<when>1247</when>
									<value>0.141254</value>
								</keyframe>
								<keyframe>
									<when>1393</when>
									<value>0.0354813</value>
								</keyframe>
								<keyframe>
									<when>1584.71</when>
									<value>0</value>
								</keyframe>
								<interpolation>
									<name>FCPCurve</name>
								</interpolation>
								<value>0.398107</value>
							</parameter>
						</effect>
					</filter>
					<filter>
						<effect>
							<name>Audio Pan</name>
							<effectid>audiopan</effectid>
							<effectcategory>audiopan</effectcategory>
							<effecttype>audiopan</effecttype>
							<mediatype>audio</mediatype>
							<parameter>
								<name>Pan</name>
								<parameterid>pan</parameterid>
								<valuemin>-1</valuemin>
								<valuemax>1</valuemax>
								<value>-1</value>
							</parameter>
						</effect>
					</filter>
					<sourcetrack>
						<mediatype>audio</mediatype>
						<trackindex>1</trackindex>
					</sourcetrack>
					<link>
						<linkclipref>SCD073718 </linkclipref>
						<mediatype>audio</mediatype>
						<trackindex>5</trackindex>
						<clipindex>11</clipindex>
						<groupindex>1</groupindex>
					</link>
					<link>
						<linkclipref>SCD073718 3</linkclipref>
						<mediatype>audio</mediatype>
						<trackindex>6</trackindex>
						<clipindex>8</clipindex>
						<groupindex>1</groupindex>
					</link>
					<itemhistory>
						<uuid>D950E236-677C-46EC-B061-58547F059464</uuid>
					</itemhistory>
				</clipitem>
				<clipitem id="Swooshi…2TimesDIGIFXJ034002.WAV">
					<name>Swooshi…2TimesDIGIFXJ034002.WAV</name>
					<duration>187</duration>
					<rate>
						<ntsc>FALSE</ntsc>
						<timebase>25</timebase>
					</rate>
					<in>110</in>
					<out>160</out>
					<start>10301</start>
					<end>10351</end>
					<subframeoffset>0</subframeoffset>
					<enabled>TRUE</enabled>
					<masterclipid>Swooshi…2TimesDIGIFXJ034002.WAV1</masterclipid>
					<logginginfo>
						<scene/>
						<shottake/>
						<lognote/>
						<good>FALSE</good>
					</logginginfo>
					<labels>
						<label2/>
					</labels>
					<comments>
						<mastercomment1/>
						<mastercomment2/>
						<mastercomment3/>
						<mastercomment4/>
					</comments>
					<file id="Swooshi…2TimesDIGIFXJ034002 ">
						<name>Swooshi…2TimesDIGIFXJ034002.WAV</name>
						<pathurl>file://localhost/Volumes/Askepott/Prosjekter/DNPR630011_Dyrevenn_sesong_6_IVS_010612/Lydeffekter/Korte%20lyder/Swooshi%E2%80%A62TimesDIGIFXJ034002.WAV</pathurl>
						<rate>
							<timebase>25</timebase>
						</rate>
						<duration>188</duration>
						<timecode>
							<rate>
								<timebase>25</timebase>
							</rate>
							<string>00:00:00:00</string>
							<frame>0</frame>
							<displayformat>NDF</displayformat>
							<source>source</source>
						</timecode>
						<media>
							<audio>
								<samplecharacteristics>
									<samplerate>44100</samplerate>
									<depth>16</depth>
								</samplecharacteristics>
								<channelcount>2</channelcount>
							</audio>
						</media>
					</file>
					<filter>
						<enabled>TRUE</enabled>
						<start>-1</start>
						<end>-1</end>
						<effect>
							<name>AUPitch</name>
							<effectid>{61756678, 746d7074, 6170706c}</effectid>
							<effecttype>filter</effecttype>
							<mediatype>audio</mediatype>
							<parameter>
								<parameterid>pitch</parameterid>
								<parameterspecifier>1:0:0</parameterspecifier>
								<name>pitch</name>
								<valuemin>-2400</valuemin>
								<valuemax>2400</valuemax>
								<value>862</value>
							</parameter>
							<parameter>
								<parameterid>effect blend</parameterid>
								<parameterspecifier>2:0:0</parameterspecifier>
								<name>effect blend</name>
								<valuemin>0</valuemin>
								<valuemax>100</valuemax>
								<value>100</value>
							</parameter>
							<parameter>
								<parameterid>smoothness</parameterid>
								<parameterspecifier>3:0:0</parameterspecifier>
								<name>smoothness</name>
								<valuemin>0</valuemin>
								<valuemax>100</valuemax>
								<value>50</value>
							</parameter>
							<parameter>
								<parameterid>tightness</parameterid>
								<parameterspecifier>4:0:0</parameterspecifier>
								<name>tightness</name>
								<valuemin>0</valuemin>
								<valuemax>100</valuemax>
								<value>50</value>
							</parameter>
							<parameter>
								<parameterid>Analysis Size</parameterid>
								<parameterspecifier>5:0:0</parameterspecifier>
								<name>Analysis Size</name>
								<valuemin>20</valuemin>
								<valuemax>120</valuemax>
								<value>60</value>
							</parameter>
							<parameter>
								<parameterid>Analysis Window</parameterid>
								<parameterspecifier>6:0:0</parameterspecifier>
								<name>Analysis Window</name>
								<valuemin>2</valuemin>
								<valuemax>20</valuemax>
								<value>4</value>
							</parameter>
							<parameter>
								<parameterid>Resynth Window</parameterid>
								<parameterspecifier>7:0:0</parameterspecifier>
								<name>Resynth Window</name>
								<valuemin>0</valuemin>
								<valuemax>7</valuemax>
								<valuelist>
									<valueentry>
										<name>Linear 1</name>
										<value>0</value>
									</valueentry>
									<valueentry>
										<name>Linear 2</name>
										<value>1</value>
									</valueentry>
									<valueentry>
										<name>Linear 3</name>
										<value>2</value>
									</valueentry>
									<valueentry>
										<name>Linear 4</name>
										<value>3</value>
									</valueentry>
									<valueentry>
										<name>Equal Power 1</name>
										<value>4</value>
									</valueentry>
									<valueentry>
										<name>Equal Power 2</name>
										<value>5</value>
									</valueentry>
									<valueentry>
										<name>Equal Power 3</name>
										<value>6</value>
									</valueentry>
									<valueentry>
										<name>Equal Power 4</name>
										<value>7</value>
									</valueentry>
								</valuelist>
								<value>1</value>
							</parameter>
							<parameter>
								<parameterid>Overlap</parameterid>
								<parameterspecifier>8:0:0</parameterspecifier>
								<name>Overlap</name>
								<valuemin>0</valuemin>
								<valuemax>10</valuemax>
								<valuelist>
									<valueentry>
										<name>4</name>
										<value>0</value>
									</valueentry>
									<valueentry>
										<name>6</name>
										<value>1</value>
									</valueentry>
									<valueentry>
										<name>8</name>
										<value>2</value>
									</valueentry>
									<valueentry>
										<name>10</name>
										<value>3</value>
									</valueentry>
									<valueentry>
										<name>12</name>
										<value>4</value>
									</valueentry>
									<valueentry>
										<name>14</name>
										<value>5</value>
									</valueentry>
									<valueentry>
										<name>16</name>
										<value>6</value>
									</valueentry>
									<valueentry>
										<name>18</name>
										<value>7</value>
									</valueentry>
									<valueentry>
										<name>20</name>
										<value>8</value>
									</valueentry>
									<valueentry>
										<name>22</name>
										<value>9</value>
									</valueentry>
									<valueentry>
										<name>24</name>
										<value>10</value>
									</valueentry>
								</valuelist>
								<value>2</value>
							</parameter>
							<parameter>
								<parameterid>Transient Follow</parameterid>
								<parameterspecifier>9:0:0</parameterspecifier>
								<name>Transient Follow</name>
								<valuemin>0</valuemin>
								<valuemax>1</valuemax>
								<value>0</value>
							</parameter>
							<parameter>
								<parameterid>Trigger Threshold 1</parameterid>
								<parameterspecifier>10:0:0</parameterspecifier>
								<name>Trigger Threshold 1</name>
								<valuemin>1</valuemin>
								<valuemax>4</valuemax>
								<value>1.25</value>
							</parameter>
							<parameter>
								<parameterid>Trigger Threshold 2</parameterid>
								<parameterspecifier>11:0:0</parameterspecifier>
								<name>Trigger Threshold 2</name>
								<valuemin>1</valuemin>
								<valuemax>4</valuemax>
								<value>1.25</value>
							</parameter>
							<parameter>
								<parameterid>Weak Threshold</parameterid>
								<parameterspecifier>12:0:0</parameterspecifier>
								<name>Weak Threshold</name>
								<valuemin>0</valuemin>
								<valuemax>1</valuemax>
								<value>0.75</value>
							</parameter>
							<parameter>
								<parameterid>Reset Power</parameterid>
								<parameterspecifier>13:0:0</parameterspecifier>
								<name>Reset Power</name>
								<valuemin>0.1</valuemin>
								<valuemax>8</valuemax>
								<value>1.5</value>
							</parameter>
							<parameter>
								<parameterid>Reset Scale</parameterid>
								<parameterspecifier>14:0:0</parameterspecifier>
								<name>Reset Scale</name>
								<valuemin>0.25</valuemin>
								<valuemax>4</valuemax>
								<value>1</value>
							</parameter>
							<parameter>
								<parameterid>Hard Reset Amount</parameterid>
								<parameterspecifier>15:0:0</parameterspecifier>
								<name>Hard Reset Amount</name>
								<valuemin>0</valuemin>
								<valuemax>100</valuemax>
								<value>0</value>
							</parameter>
							<parameter>
								<parameterid>Hard Reset Threshold</parameterid>
								<parameterspecifier>16:0:0</parameterspecifier>
								<name>Hard Reset Threshold</name>
								<valuemin>0.0001</valuemin>
								<valuemax>1</valuemax>
								<value>1</value>
							</parameter>
							<parameter>
								<parameterid>Locking Threshold</parameterid>
								<parameterspecifier>17:0:0</parameterspecifier>
								<name>Locking Threshold</name>
								<valuemin>1</valuemin>
								<valuemax>500</valuemax>
								<value>10</value>
							</parameter>
							<parameter>
								<parameterid>High Freq Enhance</parameterid>
								<parameterspecifier>18:0:0</parameterspecifier>
								<name>High Freq Enhance</name>
								<valuemin>0.001</valuemin>
								<valuemax>40</valuemax>
								<value>2</value>
							</parameter>
							<parameter>
								<parameterid>Quiet Enhance</parameterid>
								<parameterspecifier>19:0:0</parameterspecifier>
								<name>Quiet Enhance</name>
								<valuemin>0.001</valuemin>
								<valuemax>40</valuemax>
								<value>4</value>
							</parameter>
							<parameter>
								<parameterid>Loud Aggr K</parameterid>
								<parameterspecifier>20:0:0</parameterspecifier>
								<name>Loud Aggr K</name>
								<valuemin>0.001</valuemin>
								<valuemax>500</valuemax>
								<value>4</value>
							</parameter>
							<parameter>
								<parameterid>Selection Freq</parameterid>
								<parameterspecifier>21:0:0</parameterspecifier>
								<name>Selection Freq</name>
								<valuemin>10</valuemin>
								<valuemax>22050</valuemax>
								<value>2000</value>
							</parameter>
							<parameter>
								<parameterid>Peak Locking</parameterid>
								<parameterspecifier>22:0:0</parameterspecifier>
								<name>Peak Locking</name>
								<value>TRUE</value>
							</parameter>
							<parameter>
								<parameterid>Peak Transients</parameterid>
								<parameterspecifier>23:0:0</parameterspecifier>
								<name>Peak Transients</name>
								<value>TRUE</value>
							</parameter>
							<parameter>
								<parameterid>Full Frequency</parameterid>
								<parameterspecifier>24:0:0</parameterspecifier>
								<name>Full Frequency</name>
								<value>TRUE</value>
							</parameter>
						</effect>
					</filter>
					<filter>
						<effect>
							<name>Audio Levels</name>
							<effectid>audiolevels</effectid>
							<effectcategory>audiolevels</effectcategory>
							<effecttype>audiolevels</effecttype>
							<mediatype>audio</mediatype>
							<parameter>
								<name>Level</name>
								<parameterid>level</parameterid>
								<valuemin>0</valuemin>
								<valuemax>3.98109</valuemax>
								<keyframe>
									<when>119.857</when>
									<value>0</value>
								</keyframe>
								<keyframe>
									<when>128.571</when>
									<value>0.707946</value>
								</keyframe>
								<interpolation>
									<name>FCPCurve</name>
								</interpolation>
								<value>0.707946</value>
							</parameter>
						</effect>
					</filter>
					<filter>
						<effect>
							<name>Audio Pan</name>
							<effectid>audiopan</effectid>
							<effectcategory>audiopan</effectcategory>
							<effecttype>audiopan</effecttype>
							<mediatype>audio</mediatype>
							<parameter>
								<name>Pan</name>
								<parameterid>pan</parameterid>
								<valuemin>-1</valuemin>
								<valuemax>1</valuemax>
								<value>0</value>
							</parameter>
						</effect>
					</filter>
					<sourcetrack>
						<mediatype>audio</mediatype>
						<trackindex>1</trackindex>
					</sourcetrack>
					<itemhistory>
						<uuid>E4EE7A27-17E1-4C02-BBF6-068BB39CE0AD</uuid>
					</itemhistory>
					<filter>
						<effect>
							<name>Time Remap</name>
							<effectid>timeremap</effectid>
							<effectcategory>motion</effectcategory>
							<effecttype>motion</effecttype>
							<mediatype>audio</mediatype>
							<parameter>
								<parameterid>variablespeed</parameterid>
								<name>variablespeed</name>
								<valuemin>0</valuemin>
								<valuemax>1</valuemax>
								<value>0</value>
							</parameter>
							<parameter>
								<parameterid>mappedduration</parameterid>
								<name>mappedduration</name>
								<value>
									<timecode>
										<rate>
											<timebase>0</timebase>
										</rate>
										<string>0</string>
										<frame>0</frame>
										<displayformat>NDF</displayformat>
									</timecode>
								</value>
							</parameter>
							<parameter>
								<parameterid>speed</parameterid>
								<name>speed</name>
								<valuemin>-10000</valuemin>
								<valuemax>10000</valuemax>
								<value>100</value>
							</parameter>
							<parameter>
								<parameterid>reverse</parameterid>
								<name>reverse</name>
								<value>TRUE</value>
							</parameter>
							<parameter>
								<parameterid>frameblending</parameterid>
								<name>frameblending</name>
								<value>TRUE</value>
							</parameter>
							<parameter>
								<parameterid>graphdict</parameterid>
								<name>graphdict</name>
								<valuemin>0</valuemin>
								<valuemax>187</valuemax>
								<keyframe>
									<when>0</when>
									<value>189.228</value>
									<speedkfstart>TRUE</speedkfstart>
									<speedvirtualkf>TRUE</speedvirtualkf>
									<anchorOffset>0.2283</anchorOffset>
								</keyframe>
								<keyframe>
									<when>110</when>
									<value>77.6369</value>
									<speedkfin>TRUE</speedkfin>
									<speedvirtualkf>TRUE</speedvirtualkf>
								</keyframe>
								<keyframe>
									<when>160</when>
									<value>27.3681</value>
									<speedkfout>TRUE</speedkfout>
									<speedvirtualkf>TRUE</speedvirtualkf>
								</keyframe>
								<keyframe>
									<when>187</when>
									<value>1.2283</value>
									<speedkfend>TRUE</speedkfend>
									<speedvirtualkf>TRUE</speedvirtualkf>
								</keyframe>
								<interpolation>
									<name>FCPCurve</name>
								</interpolation>
								<value>76.6369</value>
							</parameter>
						</effect>
					</filter>
				</clipitem>
				<clipitem id="SCD048720.wav5">
					<name>SCD048720.wav</name>
					<duration>2137</duration>
					<rate>
						<ntsc>FALSE</ntsc>
						<timebase>25</timebase>
					</rate>
					<in>2</in>
					<out>349</out>
					<start>12225</start>
					<end>-1</end>
					<subframeoffset>0</subframeoffset>
					<masterclipid>SCD048720.wav1</masterclipid>
					<logginginfo>
						<scene/>
						<shottake/>
						<lognote/>
						<good>FALSE</good>
					</logginginfo>
					<labels>
						<label2/>
					</labels>
					<comments>
						<mastercomment1>Swingende vispetakt</mastercomment1>
						<mastercomment2/>
						<mastercomment3/>
						<mastercomment4/>
					</comments>
					<file id="SCD048720 "/>
					<filter>
						<effect>
							<name>Audio Levels</name>
							<effectid>audiolevels</effectid>
							<effectcategory>audiolevels</effectcategory>
							<effecttype>audiolevels</effecttype>
							<mediatype>audio</mediatype>
							<parameter>
								<name>Level</name>
								<parameterid>level</parameterid>
								<valuemin>0</valuemin>
								<valuemax>3.98109</valuemax>
								<keyframe>
									<when>172.286</when>
									<value>0.251189</value>
								</keyframe>
								<keyframe>
									<when>179.143</when>
									<value>0.199526</value>
								</keyframe>
								<interpolation>
									<name>FCPCurve</name>
								</interpolation>
								<value>0.251189</value>
							</parameter>
						</effect>
					</filter>
					<filter>
						<effect>
							<name>Audio Pan</name>
							<effectid>audiopan</effectid>
							<effectcategory>audiopan</effectcategory>
							<effecttype>audiopan</effecttype>
							<mediatype>audio</mediatype>
							<parameter>
								<name>Pan</name>
								<parameterid>pan</parameterid>
								<valuemin>-1</valuemin>
								<valuemax>1</valuemax>
								<value>-1</value>
							</parameter>
						</effect>
					</filter>
					<sourcetrack>
						<mediatype>audio</mediatype>
						<trackindex>1</trackindex>
					</sourcetrack>
					<link>
						<linkclipref>SCD048720.wav5</linkclipref>
						<mediatype>audio</mediatype>
						<trackindex>5</trackindex>
						<clipindex>13</clipindex>
						<groupindex>1</groupindex>
					</link>
					<link>
						<linkclipref>SCD048720.wav6</linkclipref>
						<mediatype>audio</mediatype>
						<trackindex>6</trackindex>
						<clipindex>9</clipindex>
						<groupindex>1</groupindex>
					</link>
					<itemhistory>
						<uuid>ECA89DDB-8249-4F9B-815B-2B66CCCF9D18</uuid>
					</itemhistory>
				</clipitem>
				<transitionitem>
					<rate>
						<ntsc>FALSE</ntsc>
						<timebase>25</timebase>
					</rate>
					<start>12567</start>
					<end>12572</end>
					<alignment>center</alignment>
					<effect>
						<name>Cross Fade (+3dB)</name>
						<effectid>KGAudioTransCrossFade3dB</effectid>
						<effecttype>transition</effecttype>
						<mediatype>audio</mediatype>
					</effect>
				</transitionitem>
				<clipitem id="SCD048720.wav7">
					<name>SCD048720.wav</name>
					<duration>2137</duration>
					<rate>
						<ntsc>FALSE</ntsc>
						<timebase>25</timebase>
					</rate>
					<in>2002</in>
					<out>2077</out>
					<start>-1</start>
					<end>12642</end>
					<subframeoffset>0</subframeoffset>
					<masterclipid>SCD048720.wav1</masterclipid>
					<logginginfo>
						<scene/>
						<shottake/>
						<lognote/>
						<good>FALSE</good>
					</logginginfo>
					<labels>
						<label2/>
					</labels>
					<comments>
						<mastercomment1>Swingende vispetakt</mastercomment1>
						<mastercomment2/>
						<mastercomment3/>
						<mastercomment4/>
					</comments>
					<file id="SCD048720 "/>
					<filter>
						<effect>
							<name>Audio Levels</name>
							<effectid>audiolevels</effectid>
							<effectcategory>audiolevels</effectcategory>
							<effecttype>audiolevels</effecttype>
							<mediatype>audio</mediatype>
							<parameter>
								<name>Level</name>
								<parameterid>level</parameterid>
								<valuemin>0</valuemin>
								<valuemax>3.98109</valuemax>
								<value>0.141254</value>
							</parameter>
						</effect>
					</filter>
					<filter>
						<effect>
							<name>Audio Pan</name>
							<effectid>audiopan</effectid>
							<effectcategory>audiopan</effectcategory>
							<effecttype>audiopan</effecttype>
							<mediatype>audio</mediatype>
							<parameter>
								<name>Pan</name>
								<parameterid>pan</parameterid>
								<valuemin>-1</valuemin>
								<valuemax>1</valuemax>
								<value>-1</value>
							</parameter>
						</effect>
					</filter>
					<sourcetrack>
						<mediatype>audio</mediatype>
						<trackindex>1</trackindex>
					</sourcetrack>
					<link>
						<linkclipref>SCD048720.wav7</linkclipref>
						<mediatype>audio</mediatype>
						<trackindex>5</trackindex>
						<clipindex>15</clipindex>
						<groupindex>1</groupindex>
					</link>
					<link>
						<linkclipref>SCD048720.wav8</linkclipref>
						<mediatype>audio</mediatype>
						<trackindex>6</trackindex>
						<clipindex>11</clipindex>
						<groupindex>1</groupindex>
					</link>
					<itemhistory>
						<uuid>4DAD70D5-2A7F-4F34-AB22-F4E65F8561D3</uuid>
					</itemhistory>
				</clipitem>
				<clipitem id="SCD048720.wav9">
					<name>SCD048720.wav</name>
					<duration>2137</duration>
					<rate>
						<ntsc>FALSE</ntsc>
						<timebase>25</timebase>
					</rate>
					<in>1566</in>
					<out>2137</out>
					<start>12663</start>
					<end>13234</end>
					<subframeoffset>0</subframeoffset>
					<masterclipid>SCD048720.wav1</masterclipid>
					<logginginfo>
						<scene/>
						<shottake/>
						<lognote/>
						<good>FALSE</good>
					</logginginfo>
					<labels>
						<label2/>
					</labels>
					<comments>
						<mastercomment1>Swingende vispetakt</mastercomment1>
						<mastercomment2/>
						<mastercomment3/>
						<mastercomment4/>
					</comments>
					<file id="SCD048720 "/>
					<filter>
						<effect>
							<name>Audio Levels</name>
							<effectid>audiolevels</effectid>
							<effectcategory>audiolevels</effectcategory>
							<effecttype>audiolevels</effecttype>
							<mediatype>audio</mediatype>
							<parameter>
								<name>Level</name>
								<parameterid>level</parameterid>
								<valuemin>0</valuemin>
								<valuemax>3.98109</valuemax>
								<keyframe>
									<when>1619</when>
									<value>0</value>
								</keyframe>
								<keyframe>
									<when>1761.86</when>
									<value>0.0501187</value>
								</keyframe>
								<keyframe>
									<when>1924.14</when>
									<value>0.0630957</value>
								</keyframe>
								<keyframe>
									<when>1944.43</when>
									<value>0.251189</value>
								</keyframe>
								<interpolation>
									<name>FCPCurve</name>
								</interpolation>
								<value>0.251189</value>
							</parameter>
						</effect>
					</filter>
					<filter>
						<effect>
							<name>Audio Pan</name>
							<effectid>audiopan</effectid>
							<effectcategory>audiopan</effectcategory>
							<effecttype>audiopan</effecttype>
							<mediatype>audio</mediatype>
							<parameter>
								<name>Pan</name>
								<parameterid>pan</parameterid>
								<valuemin>-1</valuemin>
								<valuemax>1</valuemax>
								<value>-1</value>
							</parameter>
						</effect>
					</filter>
					<sourcetrack>
						<mediatype>audio</mediatype>
						<trackindex>1</trackindex>
					</sourcetrack>
					<link>
						<linkclipref>SCD048720.wav9</linkclipref>
						<mediatype>audio</mediatype>
						<trackindex>5</trackindex>
						<clipindex>16</clipindex>
						<groupindex>1</groupindex>
					</link>
					<link>
						<linkclipref>SCD048720.wav10</linkclipref>
						<mediatype>audio</mediatype>
						<trackindex>6</trackindex>
						<clipindex>12</clipindex>
						<groupindex>1</groupindex>
					</link>
					<itemhistory>
						<uuid>A210A189-D5E8-44AA-A724-4626C769CD0B</uuid>
					</itemhistory>
				</clipitem>
				<clipitem id="SCD083314.wav">
					<name>SCD083314.wav</name>
					<duration>2741</duration>
					<rate>
						<ntsc>FALSE</ntsc>
						<timebase>25</timebase>
					</rate>
					<in>0</in>
					<out>159</out>
					<start>13345</start>
					<end>-1</end>
					<subframeoffset>0</subframeoffset>
					<masterclipid>SCD083314.wav1</masterclipid>
					<logginginfo>
						<scene/>
						<shottake/>
						<lognote/>
						<good>FALSE</good>
					</logginginfo>
					<labels>
						<label2/>
					</labels>
					<comments>
						<mastercomment1/>
						<mastercomment2/>
						<mastercomment3/>
						<mastercomment4/>
					</comments>
					<file id="SCD083314 ">
						<name>SCD083314.wav</name>
						<pathurl>file://localhost/Volumes/Askepott/Prosjekter/DNPR637010_Kra%CC%8Akeklubben_TEM_011212/MUSIKK/NATURLEK/Eventyrskog/SCD083314.wav</pathurl>
						<rate>
							<timebase>25</timebase>
						</rate>
						<duration>2741</duration>
						<timecode>
							<rate>
								<timebase>25</timebase>
							</rate>
							<string>00:40:28:01</string>
							<frame>60701</frame>
							<displayformat>NDF</displayformat>
							<source>source</source>
						</timecode>
						<media>
							<audio>
								<samplecharacteristics>
									<samplerate>48000</samplerate>
									<depth>16</depth>
								</samplecharacteristics>
								<channelcount>2</channelcount>
							</audio>
						</media>
					</file>
					<filter>
						<effect>
							<name>Audio Levels</name>
							<effectid>audiolevels</effectid>
							<effectcategory>audiolevels</effectcategory>
							<effecttype>audiolevels</effecttype>
							<mediatype>audio</mediatype>
							<parameter>
								<name>Level</name>
								<parameterid>level</parameterid>
								<valuemin>0</valuemin>
								<valuemax>3.98109</valuemax>
								<keyframe>
									<when>1</when>
									<value>0</value>
								</keyframe>
								<keyframe>
									<when>154.714</when>
									<value>0.281838</value>
								</keyframe>
								<interpolation>
									<name>FCPCurve</name>
								</interpolation>
								<value>1.12202</value>
							</parameter>
						</effect>
					</filter>
					<filter>
						<effect>
							<name>Audio Pan</name>
							<effectid>audiopan</effectid>
							<effectcategory>audiopan</effectcategory>
							<effecttype>audiopan</effecttype>
							<mediatype>audio</mediatype>
							<parameter>
								<name>Pan</name>
								<parameterid>pan</parameterid>
								<valuemin>-1</valuemin>
								<valuemax>1</valuemax>
								<value>-1</value>
							</parameter>
						</effect>
					</filter>
					<sourcetrack>
						<mediatype>audio</mediatype>
						<trackindex>1</trackindex>
					</sourcetrack>
					<link>
						<linkclipref>SCD083314.wav</linkclipref>
						<mediatype>audio</mediatype>
						<trackindex>5</trackindex>
						<clipindex>17</clipindex>
						<groupindex>1</groupindex>
					</link>
					<link>
						<linkclipref>SCD083314.wav2</linkclipref>
						<mediatype>audio</mediatype>
						<trackindex>6</trackindex>
						<clipindex>13</clipindex>
						<groupindex>1</groupindex>
					</link>
					<itemhistory>
						<uuid>B1269551-C5E5-45E4-BF50-B705F33ED06D</uuid>
					</itemhistory>
				</clipitem>
				<transitionitem>
					<rate>
						<ntsc>FALSE</ntsc>
						<timebase>25</timebase>
					</rate>
					<start>13501</start>
					<end>13504</end>
					<alignment>center</alignment>
					<effect>
						<name>Cross Fade (+3dB)</name>
						<effectid>KGAudioTransCrossFade3dB</effectid>
						<effecttype>transition</effecttype>
						<mediatype>audio</mediatype>
					</effect>
				</transitionitem>
				<clipitem id="SCD083314.wav3">
					<name>SCD083314.wav</name>
					<duration>2741</duration>
					<rate>
						<ntsc>FALSE</ntsc>
						<timebase>25</timebase>
					</rate>
					<in>1</in>
					<out>1059</out>
					<start>-1</start>
					<end>-1</end>
					<subframeoffset>0</subframeoffset>
					<enabled>TRUE</enabled>
					<masterclipid>SCD083314.wav1</masterclipid>
					<logginginfo>
						<scene/>
						<shottake/>
						<lognote/>
						<good>FALSE</good>
					</logginginfo>
					<labels>
						<label2/>
					</labels>
					<comments>
						<mastercomment1/>
						<mastercomment2/>
						<mastercomment3/>
						<mastercomment4/>
					</comments>
					<file id="SCD083314 "/>
					<filter>
						<effect>
							<name>Audio Levels</name>
							<effectid>audiolevels</effectid>
							<effectcategory>audiolevels</effectcategory>
							<effecttype>audiolevels</effecttype>
							<mediatype>audio</mediatype>
							<parameter>
								<name>Level</name>
								<parameterid>level</parameterid>
								<valuemin>0</valuemin>
								<valuemax>3.98109</valuemax>
								<keyframe>
									<when>4.85714</when>
									<value>0.281838</value>
								</keyframe>
								<keyframe>
									<when>155.714</when>
									<value>0.354813</value>
								</keyframe>
								<keyframe>
									<when>286.429</when>
									<value>0.398107</value>
								</keyframe>
								<keyframe>
									<when>413.286</when>
									<value>0.0630957</value>
								</keyframe>
								<keyframe>
									<when>940.143</when>
									<value>0.0630957</value>
								</keyframe>
								<keyframe>
									<when>1030.43</when>
									<value>0.199526</value>
								</keyframe>
								<interpolation>
									<name>FCPCurve</name>
								</interpolation>
								<value>0.0630957</value>
							</parameter>
						</effect>
					</filter>
					<filter>
						<effect>
							<name>Audio Pan</name>
							<effectid>audiopan</effectid>
							<effectcategory>audiopan</effectcategory>
							<effecttype>audiopan</effecttype>
							<mediatype>audio</mediatype>
							<parameter>
								<name>Pan</name>
								<parameterid>pan</parameterid>
								<valuemin>-1</valuemin>
								<valuemax>1</valuemax>
								<value>-1</value>
							</parameter>
						</effect>
					</filter>
					<sourcetrack>
						<mediatype>audio</mediatype>
						<trackindex>1</trackindex>
					</sourcetrack>
					<link>
						<linkclipref>SCD083314.wav3</linkclipref>
						<mediatype>audio</mediatype>
						<trackindex>5</trackindex>
						<clipindex>19</clipindex>
						<groupindex>1</groupindex>
					</link>
					<link>
						<linkclipref>SCD083314.wav4</linkclipref>
						<mediatype>audio</mediatype>
						<trackindex>6</trackindex>
						<clipindex>15</clipindex>
						<groupindex>1</groupindex>
					</link>
					<itemhistory>
						<uuid>F6E56048-093B-4BDB-B8C9-34D634FF5AA2</uuid>
					</itemhistory>
				</clipitem>
				<transitionitem>
					<rate>
						<ntsc>FALSE</ntsc>
						<timebase>25</timebase>
					</rate>
					<start>14534</start>
					<end>14559</end>
					<alignment>center</alignment>
					<effect>
						<name>Cross Fade (+3dB)</name>
						<effectid>KGAudioTransCrossFade3dB</effectid>
						<effecttype>transition</effecttype>
						<mediatype>audio</mediatype>
					</effect>
				</transitionitem>
				<clipitem id="SCD083314.wav5">
					<name>SCD083314.wav</name>
					<duration>2741</duration>
					<rate>
						<ntsc>FALSE</ntsc>
						<timebase>25</timebase>
					</rate>
					<in>1262</in>
					<out>2741</out>
					<start>-1</start>
					<end>16013</end>
					<subframeoffset>0</subframeoffset>
					<enabled>TRUE</enabled>
					<masterclipid>SCD083314.wav1</masterclipid>
					<logginginfo>
						<scene/>
						<shottake/>
						<lognote/>
						<good>FALSE</good>
					</logginginfo>
					<labels>
						<label2/>
					</labels>
					<comments>
						<mastercomment1/>
						<mastercomment2/>
						<mastercomment3/>
						<mastercomment4/>
					</comments>
					<file id="SCD083314 "/>
					<filter>
						<effect>
							<name>Audio Levels</name>
							<effectid>audiolevels</effectid>
							<effectcategory>audiolevels</effectcategory>
							<effecttype>audiolevels</effecttype>
							<mediatype>audio</mediatype>
							<parameter>
								<name>Level</name>
								<parameterid>level</parameterid>
								<valuemin>0</valuemin>
								<valuemax>3.98109</valuemax>
								<keyframe>
									<when>4.85714</when>
									<value>0.281838</value>
								</keyframe>
								<keyframe>
									<when>155.714</when>
									<value>0.354813</value>
								</keyframe>
								<keyframe>
									<when>286.429</when>
									<value>0.398107</value>
								</keyframe>
								<keyframe>
									<when>413.286</when>
									<value>0.0630957</value>
								</keyframe>
								<keyframe>
									<when>940.143</when>
									<value>0.0630957</value>
								</keyframe>
								<keyframe>
									<when>990.429</when>
									<value>0.199526</value>
								</keyframe>
								<keyframe>
									<when>1806.29</when>
									<value>0.199526</value>
								</keyframe>
								<keyframe>
									<when>1842.86</when>
									<value>0.0630957</value>
								</keyframe>
								<keyframe>
									<when>1868</when>
									<value>0.199526</value>
								</keyframe>
								<keyframe>
									<when>1991.43</when>
									<value>0.199526</value>
								</keyframe>
								<keyframe>
									<when>2012</when>
									<value>0.0630957</value>
								</keyframe>
								<keyframe>
									<when>2345.14</when>
									<value>0.0630957</value>
								</keyframe>
								<keyframe>
									<when>2365.14</when>
									<value>0.199526</value>
								</keyframe>
								<keyframe>
									<when>2594.86</when>
									<value>0.158489</value>
								</keyframe>
								<interpolation>
									<name>FCPCurve</name>
								</interpolation>
								<value>0.0630957</value>
							</parameter>
						</effect>
					</filter>
					<filter>
						<effect>
							<name>Audio Pan</name>
							<effectid>audiopan</effectid>
							<effectcategory>audiopan</effectcategory>
							<effecttype>audiopan</effecttype>
							<mediatype>audio</mediatype>
							<parameter>
								<name>Pan</name>
								<parameterid>pan</parameterid>
								<valuemin>-1</valuemin>
								<valuemax>1</valuemax>
								<value>-1</value>
							</parameter>
						</effect>
					</filter>
					<sourcetrack>
						<mediatype>audio</mediatype>
						<trackindex>1</trackindex>
					</sourcetrack>
					<link>
						<linkclipref>SCD083314.wav5</linkclipref>
						<mediatype>audio</mediatype>
						<trackindex>5</trackindex>
						<clipindex>21</clipindex>
						<groupindex>1</groupindex>
					</link>
					<link>
						<linkclipref>SCD083314.wav6</linkclipref>
						<mediatype>audio</mediatype>
						<trackindex>6</trackindex>
						<clipindex>17</clipindex>
						<groupindex>1</groupindex>
					</link>
					<itemhistory>
						<uuid>D51E709E-6564-4B3F-90B5-96A7D9BCE57F</uuid>
					</itemhistory>
				</clipitem>
				<clipitem id="STT002015_MACHINES UPRISING  D_SONOTON">
					<name>STT002015_MACHINES UPRISING  D_SONOTON</name>
					<duration>2732</duration>
					<rate>
						<ntsc>FALSE</ntsc>
						<timebase>25</timebase>
					</rate>
					<in>0</in>
					<out>288</out>
					<start>16478</start>
					<end>-1</end>
					<masterclipid>STT002015_MACHINES UPRISING  D_SONOTON1</masterclipid>
					<logginginfo>
						<scene/>
						<shottake/>
						<lognote/>
						<good>FALSE</good>
					</logginginfo>
					<labels>
						<label2/>
					</labels>
					<comments>
						<mastercomment1/>
						<mastercomment2/>
						<mastercomment3/>
						<mastercomment4/>
					</comments>
					<file id="STT002015_MACHINES UPRISING  D_SONOTON2">
						<name>STT002015_MACHINES UPRISING  D_SONOTON.wav</name>
						<pathurl>file://localhost/Volumes/Askepott/Prosjekter/DNPR637010_Kra%CC%8Akeklubben_TEM_011212/MUSIKK/INSEKT/Maur/STT002015_MACHINES%20UPRISING%20%20D_SONOTON.wav</pathurl>
						<rate>
							<timebase>25</timebase>
						</rate>
						<duration>2732</duration>
						<timecode>
							<rate>
								<timebase>25</timebase>
							</rate>
							<string>01:40:41:20</string>
							<frame>151045</frame>
							<displayformat>NDF</displayformat>
							<source>source</source>
						</timecode>
						<media>
							<audio>
								<samplecharacteristics>
									<samplerate>48000</samplerate>
									<depth>16</depth>
								</samplecharacteristics>
								<channelcount>2</channelcount>
							</audio>
						</media>
					</file>
					<filter>
						<effect>
							<name>Audio Levels</name>
							<effectid>audiolevels</effectid>
							<effectcategory>audiolevels</effectcategory>
							<effecttype>audiolevels</effecttype>
							<mediatype>audio</mediatype>
							<parameter>
								<name>Level</name>
								<parameterid>level</parameterid>
								<valuemin>0</valuemin>
								<valuemax>3.98109</valuemax>
								<value>0.354813</value>
							</parameter>
						</effect>
					</filter>
					<filter>
						<effect>
							<name>Audio Pan</name>
							<effectid>audiopan</effectid>
							<effectcategory>audiopan</effectcategory>
							<effecttype>audiopan</effecttype>
							<mediatype>audio</mediatype>
							<parameter>
								<name>Pan</name>
								<parameterid>pan</parameterid>
								<valuemin>-1</valuemin>
								<valuemax>1</valuemax>
								<value>-1</value>
							</parameter>
						</effect>
					</filter>
					<sourcetrack>
						<mediatype>audio</mediatype>
						<trackindex>1</trackindex>
					</sourcetrack>
					<link>
						<linkclipref>STT002015_MACHINES UPRISING  D_SONOTON</linkclipref>
						<mediatype>audio</mediatype>
						<trackindex>5</trackindex>
						<clipindex>22</clipindex>
						<groupindex>1</groupindex>
					</link>
					<link>
						<linkclipref>STT002015_MACHINES UPRISING  D_SONOTON3</linkclipref>
						<mediatype>audio</mediatype>
						<trackindex>6</trackindex>
						<clipindex>18</clipindex>
						<groupindex>1</groupindex>
					</link>
					<itemhistory>
						<uuid>29C41056-7297-42E6-BAC1-41DEB644B8B5</uuid>
					</itemhistory>
				</clipitem>
				<transitionitem>
					<rate>
						<ntsc>FALSE</ntsc>
						<timebase>25</timebase>
					</rate>
					<start>16741</start>
					<end>16766</end>
					<alignment>center</alignment>
					<effect>
						<name>Cross Fade (+3dB)</name>
						<effectid>KGAudioTransCrossFade3dB</effectid>
						<effecttype>transition</effecttype>
						<mediatype>audio</mediatype>
					</effect>
				</transitionitem>
				<clipitem id="STT002015_MACHINES UPRISING  D_SONOTON4">
					<name>STT002015_MACHINES UPRISING  D_SONOTON</name>
					<duration>2732</duration>
					<rate>
						<ntsc>FALSE</ntsc>
						<timebase>25</timebase>
					</rate>
					<in>363</in>
					<out>760</out>
					<start>-1</start>
					<end>-1</end>
					<masterclipid>STT002015_MACHINES UPRISING  D_SONOTON1</masterclipid>
					<logginginfo>
						<scene/>
						<shottake/>
						<lognote/>
						<good>FALSE</good>
					</logginginfo>
					<labels>
						<label2/>
					</labels>
					<comments>
						<mastercomment1/>
						<mastercomment2/>
						<mastercomment3/>
						<mastercomment4/>
					</comments>
					<file id="STT002015_MACHINES UPRISING  D_SONOTON2"/>
					<filter>
						<effect>
							<name>Audio Levels</name>
							<effectid>audiolevels</effectid>
							<effectcategory>audiolevels</effectcategory>
							<effecttype>audiolevels</effecttype>
							<mediatype>audio</mediatype>
							<parameter>
								<name>Level</name>
								<parameterid>level</parameterid>
								<valuemin>0</valuemin>
								<valuemax>3.98109</valuemax>
								<keyframe>
									<when>585.714</when>
									<value>0.354813</value>
								</keyframe>
								<keyframe>
									<when>621.714</when>
									<value>0.112202</value>
								</keyframe>
								<interpolation>
									<name>FCPCurve</name>
								</interpolation>
								<value>0.354813</value>
							</parameter>
						</effect>
					</filter>
					<filter>
						<effect>
							<name>Audio Pan</name>
							<effectid>audiopan</effectid>
							<effectcategory>audiopan</effectcategory>
							<effecttype>audiopan</effecttype>
							<mediatype>audio</mediatype>
							<parameter>
								<name>Pan</name>
								<parameterid>pan</parameterid>
								<valuemin>-1</valuemin>
								<valuemax>1</valuemax>
								<value>-1</value>
							</parameter>
						</effect>
					</filter>
					<sourcetrack>
						<mediatype>audio</mediatype>
						<trackindex>1</trackindex>
					</sourcetrack>
					<link>
						<linkclipref>STT002015_MACHINES UPRISING  D_SONOTON4</linkclipref>
						<mediatype>audio</mediatype>
						<trackindex>5</trackindex>
						<clipindex>24</clipindex>
						<groupindex>1</groupindex>
					</link>
					<link>
						<linkclipref>STT002015_MACHINES UPRISING  D_SONOTON5</linkclipref>
						<mediatype>audio</mediatype>
						<trackindex>6</trackindex>
						<clipindex>20</clipindex>
						<groupindex>1</groupindex>
					</link>
					<itemhistory>
						<uuid>E1527364-ACA7-422D-B45F-51F7DA9FE60F</uuid>
					</itemhistory>
				</clipitem>
				<transitionitem>
					<rate>
						<ntsc>FALSE</ntsc>
						<timebase>25</timebase>
					</rate>
					<start>17131</start>
					<end>17138</end>
					<alignment>center</alignment>
					<effect>
						<name>Cross Fade (+3dB)</name>
						<effectid>KGAudioTransCrossFade3dB</effectid>
						<effecttype>transition</effecttype>
						<mediatype>audio</mediatype>
					</effect>
				</transitionitem>
				<clipitem id="STT002015_MACHINES UPRISING  D_SONOTON6">
					<name>STT002015_MACHINES UPRISING  D_SONOTON</name>
					<duration>2732</duration>
					<rate>
						<ntsc>FALSE</ntsc>
						<timebase>25</timebase>
					</rate>
					<in>969</in>
					<out>1103</out>
					<start>-1</start>
					<end>-1</end>
					<subframeoffset>0</subframeoffset>
					<masterclipid>STT002015_MACHINES UPRISING  D_SONOTON1</masterclipid>
					<logginginfo>
						<scene/>
						<shottake/>
						<lognote/>
						<good>FALSE</good>
					</logginginfo>
					<labels>
						<label2/>
					</labels>
					<comments>
						<mastercomment1/>
						<mastercomment2/>
						<mastercomment3/>
						<mastercomment4/>
					</comments>
					<file id="STT002015_MACHINES UPRISING  D_SONOTON2"/>
					<filter>
						<effect>
							<name>Audio Levels</name>
							<effectid>audiolevels</effectid>
							<effectcategory>audiolevels</effectcategory>
							<effecttype>audiolevels</effecttype>
							<mediatype>audio</mediatype>
							<parameter>
								<name>Level</name>
								<parameterid>level</parameterid>
								<valuemin>0</valuemin>
								<valuemax>3.98109</valuemax>
								<value>0.354813</value>
							</parameter>
						</effect>
					</filter>
					<filter>
						<effect>
							<name>Audio Pan</name>
							<effectid>audiopan</effectid>
							<effectcategory>audiopan</effectcategory>
							<effecttype>audiopan</effecttype>
							<mediatype>audio</mediatype>
							<parameter>
								<name>Pan</name>
								<parameterid>pan</parameterid>
								<valuemin>-1</valuemin>
								<valuemax>1</valuemax>
								<value>-1</value>
							</parameter>
						</effect>
					</filter>
					<sourcetrack>
						<mediatype>audio</mediatype>
						<trackindex>1</trackindex>
					</sourcetrack>
					<link>
						<linkclipref>STT002015_MACHINES UPRISING  D_SONOTON6</linkclipref>
						<mediatype>audio</mediatype>
						<trackindex>5</trackindex>
						<clipindex>26</clipindex>
						<groupindex>1</groupindex>
					</link>
					<link>
						<linkclipref>STT002015_MACHINES UPRISING  D_SONOTON7</linkclipref>
						<mediatype>audio</mediatype>
						<trackindex>6</trackindex>
						<clipindex>22</clipindex>
						<groupindex>1</groupindex>
					</link>
					<itemhistory>
						<uuid>523FF55C-C4EA-4A90-B52E-ACA42DFDCBB4</uuid>
					</itemhistory>
				</clipitem>
				<transitionitem>
					<rate>
						<ntsc>FALSE</ntsc>
						<timebase>25</timebase>
					</rate>
					<start>17232</start>
					<end>17265</end>
					<alignment>center</alignment>
					<effect>
						<name>Cross Fade (+3dB)</name>
						<effectid>KGAudioTransCrossFade3dB</effectid>
						<effecttype>transition</effecttype>
						<mediatype>audio</mediatype>
					</effect>
				</transitionitem>
				<clipitem id="STT002015_MACHINES UPRISING  D_SONOTON8">
					<name>STT002015_MACHINES UPRISING  D_SONOTON</name>
					<duration>2732</duration>
					<rate>
						<ntsc>FALSE</ntsc>
						<timebase>25</timebase>
					</rate>
					<in>808</in>
					<out>2373</out>
					<start>-1</start>
					<end>18797</end>
					<masterclipid>STT002015_MACHINES UPRISING  D_SONOTON1</masterclipid>
					<logginginfo>
						<scene/>
						<shottake/>
						<lognote/>
						<good>FALSE</good>
					</logginginfo>
					<labels>
						<label2/>
					</labels>
					<comments>
						<mastercomment1/>
						<mastercomment2/>
						<mastercomment3/>
						<mastercomment4/>
					</comments>
					<file id="STT002015_MACHINES UPRISING  D_SONOTON2"/>
					<filter>
						<effect>
							<name>Audio Levels</name>
							<effectid>audiolevels</effectid>
							<effectcategory>audiolevels</effectcategory>
							<effecttype>audiolevels</effecttype>
							<mediatype>audio</mediatype>
							<parameter>
								<name>Level</name>
								<parameterid>level</parameterid>
								<valuemin>0</valuemin>
								<valuemax>3.98109</valuemax>
								<keyframe>
									<when>884</when>
									<value>0.0501187</value>
								</keyframe>
								<keyframe>
									<when>899</when>
									<value>0.199526</value>
								</keyframe>
								<keyframe>
									<when>977.75</when>
									<value>0.199526</value>
								</keyframe>
								<keyframe>
									<when>1005.61</when>
									<value>0.0891251</value>
								</keyframe>
								<keyframe>
									<when>1073.64</when>
									<value>0.0891251</value>
								</keyframe>
								<keyframe>
									<when>1130.43</when>
									<value>0.354813</value>
								</keyframe>
								<keyframe>
									<when>1214</when>
									<value>0.354813</value>
								</keyframe>
								<keyframe>
									<when>1264.36</when>
									<value>0.0630957</value>
								</keyframe>
								<keyframe>
									<when>1380.07</when>
									<value>0.0630957</value>
								</keyframe>
								<keyframe>
									<when>1454</when>
									<value>0.354813</value>
								</keyframe>
								<keyframe>
									<when>1654.89</when>
									<value>0.354813</value>
								</keyframe>
								<keyframe>
									<when>1697.48</when>
									<value>0.0891251</value>
								</keyframe>
								<keyframe>
									<when>1728.55</when>
									<value>0.0501187</value>
								</keyframe>
								<keyframe>
									<when>1945.78</when>
									<value>0.0501187</value>
								</keyframe>
								<keyframe>
									<when>2055.88</when>
									<value>0.0251189</value>
								</keyframe>
								<keyframe>
									<when>2331.5</when>
									<value>0.0251189</value>
								</keyframe>
								<keyframe>
									<when>2355.07</when>
									<value>0</value>
								</keyframe>
								<interpolation>
									<name>FCPCurve</name>
								</interpolation>
								<value>0.0501187</value>
							</parameter>
						</effect>
					</filter>
					<filter>
						<effect>
							<name>Audio Pan</name>
							<effectid>audiopan</effectid>
							<effectcategory>audiopan</effectcategory>
							<effecttype>audiopan</effecttype>
							<mediatype>audio</mediatype>
							<parameter>
								<name>Pan</name>
								<parameterid>pan</parameterid>
								<valuemin>-1</valuemin>
								<valuemax>1</valuemax>
								<value>-1</value>
							</parameter>
						</effect>
					</filter>
					<sourcetrack>
						<mediatype>audio</mediatype>
						<trackindex>1</trackindex>
					</sourcetrack>
					<link>
						<linkclipref>STT002015_MACHINES UPRISING  D_SONOTON8</linkclipref>
						<mediatype>audio</mediatype>
						<trackindex>5</trackindex>
						<clipindex>28</clipindex>
						<groupindex>1</groupindex>
					</link>
					<link>
						<linkclipref>STT002015_MACHINES UPRISING  D_SONOTON9</linkclipref>
						<mediatype>audio</mediatype>
						<trackindex>6</trackindex>
						<clipindex>24</clipindex>
						<groupindex>1</groupindex>
					</link>
					<itemhistory>
						<uuid>CFAE960A-DF51-4454-BF10-DCBE93ED0809</uuid>
					</itemhistory>
				</clipitem>
				<clipitem id="SCD082109_SCENIC ELEGY_SONOTON">
					<name>SCD082109_SCENIC ELEGY_SONOTON</name>
					<duration>3057</duration>
					<rate>
						<ntsc>FALSE</ntsc>
						<timebase>25</timebase>
					</rate>
					<in>0</in>
					<out>1277</out>
					<start>19164</start>
					<end>-1</end>
					<masterclipid>SCD082109_SCENIC ELEGY_SONOTON1</masterclipid>
					<logginginfo>
						<scene/>
						<shottake/>
						<lognote/>
						<good>FALSE</good>
					</logginginfo>
					<labels>
						<label2/>
					</labels>
					<comments>
						<mastercomment1/>
						<mastercomment2/>
						<mastercomment3/>
						<mastercomment4/>
					</comments>
					<file id="SCD082109_SCENIC ELEGY_SONOTON2">
						<name>SCD082109_SCENIC ELEGY_SONOTON.wav</name>
						<pathurl>file://localhost/Volumes/Askepott/Prosjekter/DNPR637010_Kra%CC%8Akeklubben_TEM_011212/MUSIKK/INSEKT/Maur/SCD082109_SCENIC%20ELEGY_SONOTON.wav</pathurl>
						<rate>
							<timebase>25</timebase>
						</rate>
						<duration>3057</duration>
						<timecode>
							<rate>
								<timebase>25</timebase>
							</rate>
							<string>00:26:01:23</string>
							<frame>39048</frame>
							<displayformat>NDF</displayformat>
							<source>source</source>
						</timecode>
						<media>
							<audio>
								<samplecharacteristics>
									<samplerate>48000</samplerate>
									<depth>16</depth>
								</samplecharacteristics>
								<channelcount>2</channelcount>
							</audio>
						</media>
					</file>
					<filter>
						<effect>
							<name>Audio Levels</name>
							<effectid>audiolevels</effectid>
							<effectcategory>audiolevels</effectcategory>
							<effecttype>audiolevels</effecttype>
							<mediatype>audio</mediatype>
							<parameter>
								<name>Level</name>
								<parameterid>level</parameterid>
								<valuemin>0</valuemin>
								<valuemax>3.98109</valuemax>
								<keyframe>
									<when>91.5</when>
									<value>0.0630957</value>
								</keyframe>
								<keyframe>
									<when>149</when>
									<value>0.251189</value>
								</keyframe>
								<keyframe>
									<when>259</when>
									<value>0.251189</value>
								</keyframe>
								<keyframe>
									<when>378</when>
									<value>0.0630957</value>
								</keyframe>
								<interpolation>
									<name>FCPCurve</name>
								</interpolation>
								<value>0.281838</value>
							</parameter>
						</effect>
					</filter>
					<filter>
						<effect>
							<name>Audio Pan</name>
							<effectid>audiopan</effectid>
							<effectcategory>audiopan</effectcategory>
							<effecttype>audiopan</effecttype>
							<mediatype>audio</mediatype>
							<parameter>
								<name>Pan</name>
								<parameterid>pan</parameterid>
								<valuemin>-1</valuemin>
								<valuemax>1</valuemax>
								<value>-1</value>
							</parameter>
						</effect>
					</filter>
					<sourcetrack>
						<mediatype>audio</mediatype>
						<trackindex>1</trackindex>
					</sourcetrack>
					<link>
						<linkclipref>SCD082109_SCENIC ELEGY_SONOTON</linkclipref>
						<mediatype>audio</mediatype>
						<trackindex>5</trackindex>
						<clipindex>29</clipindex>
						<groupindex>1</groupindex>
					</link>
					<link>
						<linkclipref>SCD082109_SCENIC ELEGY_SONOTON3</linkclipref>
						<mediatype>audio</mediatype>
						<trackindex>6</trackindex>
						<clipindex>25</clipindex>
						<groupindex>1</groupindex>
					</link>
					<itemhistory>
						<uuid>DB5C2F90-ECF4-4379-A1FD-F782BB5B8D4A</uuid>
					</itemhistory>
				</clipitem>
				<transitionitem>
					<rate>
						<ntsc>FALSE</ntsc>
						<timebase>25</timebase>
					</rate>
					<start>20416</start>
					<end>20441</end>
					<alignment>center</alignment>
					<effect>
						<name>Cross Fade (+3dB)</name>
						<effectid>KGAudioTransCrossFade3dB</effectid>
						<effecttype>transition</effecttype>
						<mediatype>audio</mediatype>
					</effect>
				</transitionitem>
				<clipitem id="SCD082109_SCENIC ELEGY_SONOTON4">
					<name>SCD082109_SCENIC ELEGY_SONOTON</name>
					<duration>3057</duration>
					<rate>
						<ntsc>FALSE</ntsc>
						<timebase>25</timebase>
					</rate>
					<in>2689</in>
					<out>3057</out>
					<start>-1</start>
					<end>20784</end>
					<subframeoffset>0</subframeoffset>
					<masterclipid>SCD082109_SCENIC ELEGY_SONOTON1</masterclipid>
					<logginginfo>
						<scene/>
						<shottake/>
						<lognote/>
						<good>FALSE</good>
					</logginginfo>
					<labels>
						<label2/>
					</labels>
					<comments>
						<mastercomment1/>
						<mastercomment2/>
						<mastercomment3/>
						<mastercomment4/>
					</comments>
					<file id="SCD082109_SCENIC ELEGY_SONOTON2"/>
					<filter>
						<effect>
							<name>Audio Levels</name>
							<effectid>audiolevels</effectid>
							<effectcategory>audiolevels</effectcategory>
							<effecttype>audiolevels</effecttype>
							<mediatype>audio</mediatype>
							<parameter>
								<name>Level</name>
								<parameterid>level</parameterid>
								<valuemin>0</valuemin>
								<valuemax>3.98109</valuemax>
								<value>0.0501187</value>
							</parameter>
						</effect>
					</filter>
					<filter>
						<effect>
							<name>Audio Pan</name>
							<effectid>audiopan</effectid>
							<effectcategory>audiopan</effectcategory>
							<effecttype>audiopan</effecttype>
							<mediatype>audio</mediatype>
							<parameter>
								<name>Pan</name>
								<parameterid>pan</parameterid>
								<valuemin>-1</valuemin>
								<valuemax>1</valuemax>
								<value>-1</value>
							</parameter>
						</effect>
					</filter>
					<sourcetrack>
						<mediatype>audio</mediatype>
						<trackindex>1</trackindex>
					</sourcetrack>
					<link>
						<linkclipref>SCD082109_SCENIC ELEGY_SONOTON4</linkclipref>
						<mediatype>audio</mediatype>
						<trackindex>5</trackindex>
						<clipindex>31</clipindex>
						<groupindex>1</groupindex>
					</link>
					<link>
						<linkclipref>SCD082109_SCENIC ELEGY_SONOTON5</linkclipref>
						<mediatype>audio</mediatype>
						<trackindex>6</trackindex>
						<clipindex>27</clipindex>
						<groupindex>1</groupindex>
					</link>
					<itemhistory>
						<uuid>BC73BC25-7ED6-4B61-A8A2-42A213C78A15</uuid>
					</itemhistory>
				</clipitem>
				<clipitem id="WHOOSHLARG…WHOOSHBYFS105004 8">
					<name>WHOOSHLARG…WHOOSHBYFS105004</name>
					<duration>325</duration>
					<rate>
						<ntsc>FALSE</ntsc>
						<timebase>25</timebase>
					</rate>
					<in>54</in>
					<out>127</out>
					<start>23862</start>
					<end>23935</end>
					<enabled>TRUE</enabled>
					<masterclipid>WHOOSHLARG…WHOOSHBYFS105004 1</masterclipid>
					<logginginfo>
						<scene/>
						<shottake/>
						<lognote/>
						<good>FALSE</good>
					</logginginfo>
					<labels>
						<label2/>
					</labels>
					<comments>
						<mastercomment1/>
						<mastercomment2/>
						<mastercomment3/>
						<mastercomment4/>
					</comments>
					<file id="WHOOSHLARG…WHOOSHBYFS105004 2"/>
					<filter>
						<effect>
							<name>Audio Levels</name>
							<effectid>audiolevels</effectid>
							<effectcategory>audiolevels</effectcategory>
							<effecttype>audiolevels</effecttype>
							<mediatype>audio</mediatype>
							<parameter>
								<name>Level</name>
								<parameterid>level</parameterid>
								<valuemin>0</valuemin>
								<valuemax>3.98109</valuemax>
								<value>0.398107</value>
							</parameter>
						</effect>
					</filter>
					<filter>
						<effect>
							<name>Audio Pan</name>
							<effectid>audiopan</effectid>
							<effectcategory>audiopan</effectcategory>
							<effecttype>audiopan</effecttype>
							<mediatype>audio</mediatype>
							<parameter>
								<name>Pan</name>
								<parameterid>pan</parameterid>
								<valuemin>-1</valuemin>
								<valuemax>1</valuemax>
								<value>-1</value>
							</parameter>
						</effect>
					</filter>
					<sourcetrack>
						<mediatype>audio</mediatype>
						<trackindex>1</trackindex>
					</sourcetrack>
					<link>
						<linkclipref>WHOOSHLARG…WHOOSHBYFS105004 8</linkclipref>
						<mediatype>audio</mediatype>
						<trackindex>5</trackindex>
						<clipindex>32</clipindex>
						<groupindex>1</groupindex>
					</link>
					<link>
						<linkclipref>WHOOSHLARG…WHOOSHBYFS105004 9</linkclipref>
						<mediatype>audio</mediatype>
						<trackindex>6</trackindex>
						<clipindex>28</clipindex>
						<groupindex>1</groupindex>
					</link>
					<itemhistory>
						<uuid>844D2932-D8D5-4FC1-B81D-AFAFCA2BE09F</uuid>
					</itemhistory>
					<filter>
						<effect>
							<name>Time Remap</name>
							<effectid>timeremap</effectid>
							<effectcategory>motion</effectcategory>
							<effecttype>motion</effecttype>
							<mediatype>audio</mediatype>
							<parameter>
								<parameterid>variablespeed</parameterid>
								<name>variablespeed</name>
								<valuemin>0</valuemin>
								<valuemax>1</valuemax>
								<value>0</value>
							</parameter>
							<parameter>
								<parameterid>mappedduration</parameterid>
								<name>mappedduration</name>
								<value>
									<timecode>
										<rate>
											<timebase>0</timebase>
										</rate>
										<string>0</string>
										<frame>0</frame>
										<displayformat>NDF</displayformat>
									</timecode>
								</value>
							</parameter>
							<parameter>
								<parameterid>speed</parameterid>
								<name>speed</name>
								<valuemin>-10000</valuemin>
								<valuemax>10000</valuemax>
								<value>25</value>
							</parameter>
							<parameter>
								<parameterid>reverse</parameterid>
								<name>reverse</name>
								<value>FALSE</value>
							</parameter>
							<parameter>
								<parameterid>frameblending</parameterid>
								<name>frameblending</name>
								<value>TRUE</value>
							</parameter>
							<parameter>
								<parameterid>graphdict</parameterid>
								<name>graphdict</name>
								<valuemin>0</valuemin>
								<valuemax>81</valuemax>
								<keyframe>
									<when>0</when>
									<value>0</value>
									<speedkfstart>TRUE</speedkfstart>
									<speedvirtualkf>TRUE</speedvirtualkf>
								</keyframe>
								<keyframe>
									<when>54</when>
									<value>13.5</value>
									<speedkfin>TRUE</speedkfin>
									<speedvirtualkf>TRUE</speedvirtualkf>
								</keyframe>
								<keyframe>
									<when>127</when>
									<value>31.75</value>
									<speedkfout>TRUE</speedkfout>
									<speedvirtualkf>TRUE</speedvirtualkf>
								</keyframe>
								<keyframe>
									<when>325</when>
									<value>82</value>
									<speedkfend>TRUE</speedkfend>
									<speedvirtualkf>TRUE</speedvirtualkf>
								</keyframe>
								<interpolation>
									<name>FCPCurve</name>
								</interpolation>
								<value>13.5</value>
							</parameter>
						</effect>
					</filter>
				</clipitem>
				<clipitem id="DYR18603_01 5">
					<name>DYR18603_01</name>
					<duration>278</duration>
					<rate>
						<ntsc>FALSE</ntsc>
						<timebase>25</timebase>
					</rate>
					<in>133</in>
					<out>174</out>
					<start>27075</start>
					<end>27116</end>
					<subframeoffset>0</subframeoffset>
					<masterclipid>DYR18603_01 1</masterclipid>
					<logginginfo>
						<scene/>
						<shottake/>
						<lognote/>
						<good>FALSE</good>
					</logginginfo>
					<labels>
						<label2/>
					</labels>
					<comments>
						<mastercomment1/>
						<mastercomment2/>
						<mastercomment3/>
						<mastercomment4/>
					</comments>
					<file id="DYR18603_01 2"/>
					<filter>
						<effect>
							<name>Audio Levels</name>
							<effectid>audiolevels</effectid>
							<effectcategory>audiolevels</effectcategory>
							<effecttype>audiolevels</effecttype>
							<mediatype>audio</mediatype>
							<parameter>
								<name>Level</name>
								<parameterid>level</parameterid>
								<valuemin>0</valuemin>
								<valuemax>3.98109</valuemax>
								<value>1</value>
							</parameter>
						</effect>
					</filter>
					<filter>
						<effect>
							<name>Audio Pan</name>
							<effectid>audiopan</effectid>
							<effectcategory>audiopan</effectcategory>
							<effecttype>audiopan</effecttype>
							<mediatype>audio</mediatype>
							<parameter>
								<name>Pan</name>
								<parameterid>pan</parameterid>
								<valuemin>-1</valuemin>
								<valuemax>1</valuemax>
								<value>0</value>
							</parameter>
						</effect>
					</filter>
					<sourcetrack>
						<mediatype>audio</mediatype>
						<trackindex>1</trackindex>
					</sourcetrack>
					<itemhistory>
						<uuid>10CDB35A-A1A8-4CEE-9F75-9042CB9822CF</uuid>
					</itemhistory>
				</clipitem>
				<clipitem id="WHOOSHLARG…WHOOSHBYFS105004 10">
					<name>WHOOSHLARG…WHOOSHBYFS105004</name>
					<duration>325</duration>
					<rate>
						<ntsc>FALSE</ntsc>
						<timebase>25</timebase>
					</rate>
					<in>54</in>
					<out>127</out>
					<start>27676</start>
					<end>27749</end>
					<enabled>TRUE</enabled>
					<masterclipid>WHOOSHLARG…WHOOSHBYFS105004 1</masterclipid>
					<logginginfo>
						<scene/>
						<shottake/>
						<lognote/>
						<good>FALSE</good>
					</logginginfo>
					<labels>
						<label2/>
					</labels>
					<comments>
						<mastercomment1/>
						<mastercomment2/>
						<mastercomment3/>
						<mastercomment4/>
					</comments>
					<file id="WHOOSHLARG…WHOOSHBYFS105004 2"/>
					<filter>
						<effect>
							<name>Audio Levels</name>
							<effectid>audiolevels</effectid>
							<effectcategory>audiolevels</effectcategory>
							<effecttype>audiolevels</effecttype>
							<mediatype>audio</mediatype>
							<parameter>
								<name>Level</name>
								<parameterid>level</parameterid>
								<valuemin>0</valuemin>
								<valuemax>3.98109</valuemax>
								<value>0.398107</value>
							</parameter>
						</effect>
					</filter>
					<filter>
						<effect>
							<name>Audio Pan</name>
							<effectid>audiopan</effectid>
							<effectcategory>audiopan</effectcategory>
							<effecttype>audiopan</effecttype>
							<mediatype>audio</mediatype>
							<parameter>
								<name>Pan</name>
								<parameterid>pan</parameterid>
								<valuemin>-1</valuemin>
								<valuemax>1</valuemax>
								<value>-1</value>
							</parameter>
						</effect>
					</filter>
					<sourcetrack>
						<mediatype>audio</mediatype>
						<trackindex>1</trackindex>
					</sourcetrack>
					<link>
						<linkclipref>WHOOSHLARG…WHOOSHBYFS105004 10</linkclipref>
						<mediatype>audio</mediatype>
						<trackindex>5</trackindex>
						<clipindex>34</clipindex>
						<groupindex>1</groupindex>
					</link>
					<link>
						<linkclipref>WHOOSHLARG…WHOOSHBYFS105004 11</linkclipref>
						<mediatype>audio</mediatype>
						<trackindex>6</trackindex>
						<clipindex>30</clipindex>
						<groupindex>1</groupindex>
					</link>
					<itemhistory>
						<uuid>D85566AF-3256-4A4C-8989-326FD3F28B02</uuid>
					</itemhistory>
					<filter>
						<effect>
							<name>Time Remap</name>
							<effectid>timeremap</effectid>
							<effectcategory>motion</effectcategory>
							<effecttype>motion</effecttype>
							<mediatype>audio</mediatype>
							<parameter>
								<parameterid>variablespeed</parameterid>
								<name>variablespeed</name>
								<valuemin>0</valuemin>
								<valuemax>1</valuemax>
								<value>0</value>
							</parameter>
							<parameter>
								<parameterid>mappedduration</parameterid>
								<name>mappedduration</name>
								<value>
									<timecode>
										<rate>
											<timebase>0</timebase>
										</rate>
										<string>0</string>
										<frame>0</frame>
										<displayformat>NDF</displayformat>
									</timecode>
								</value>
							</parameter>
							<parameter>
								<parameterid>speed</parameterid>
								<name>speed</name>
								<valuemin>-10000</valuemin>
								<valuemax>10000</valuemax>
								<value>25</value>
							</parameter>
							<parameter>
								<parameterid>reverse</parameterid>
								<name>reverse</name>
								<value>FALSE</value>
							</parameter>
							<parameter>
								<parameterid>frameblending</parameterid>
								<name>frameblending</name>
								<value>TRUE</value>
							</parameter>
							<parameter>
								<parameterid>graphdict</parameterid>
								<name>graphdict</name>
								<valuemin>0</valuemin>
								<valuemax>81</valuemax>
								<keyframe>
									<when>0</when>
									<value>0</value>
									<speedkfstart>TRUE</speedkfstart>
									<speedvirtualkf>TRUE</speedvirtualkf>
								</keyframe>
								<keyframe>
									<when>54</when>
									<value>13.5</value>
									<speedkfin>TRUE</speedkfin>
									<speedvirtualkf>TRUE</speedvirtualkf>
								</keyframe>
								<keyframe>
									<when>127</when>
									<value>31.75</value>
									<speedkfout>TRUE</speedkfout>
									<speedvirtualkf>TRUE</speedvirtualkf>
								</keyframe>
								<keyframe>
									<when>325</when>
									<value>82</value>
									<speedkfend>TRUE</speedkfend>
									<speedvirtualkf>TRUE</speedvirtualkf>
								</keyframe>
								<interpolation>
									<name>FCPCurve</name>
								</interpolation>
								<value>13.5</value>
							</parameter>
						</effect>
					</filter>
				</clipitem>
				<clipitem id="Cartoon Timpani.caf5">
					<name>Cartoon Timpani.caf</name>
					<duration>41</duration>
					<rate>
						<ntsc>FALSE</ntsc>
						<timebase>25</timebase>
					</rate>
					<in>0</in>
					<out>37</out>
					<start>27923</start>
					<end>27960</end>
					<subframeoffset>0</subframeoffset>
					<masterclipid>Cartoon Timpani.caf1</masterclipid>
					<logginginfo>
						<scene/>
						<shottake/>
						<lognote/>
						<good>FALSE</good>
					</logginginfo>
					<labels>
						<label2/>
					</labels>
					<comments>
						<mastercomment1/>
						<mastercomment2/>
						<mastercomment3/>
						<mastercomment4/>
					</comments>
					<file id="Cartoon Timpani"/>
					<filter>
						<effect>
							<name>Audio Levels</name>
							<effectid>audiolevels</effectid>
							<effectcategory>audiolevels</effectcategory>
							<effecttype>audiolevels</effecttype>
							<mediatype>audio</mediatype>
							<parameter>
								<name>Level</name>
								<parameterid>level</parameterid>
								<valuemin>0</valuemin>
								<valuemax>3.98109</valuemax>
								<value>1</value>
							</parameter>
						</effect>
					</filter>
					<filter>
						<effect>
							<name>Audio Pan</name>
							<effectid>audiopan</effectid>
							<effectcategory>audiopan</effectcategory>
							<effecttype>audiopan</effecttype>
							<mediatype>audio</mediatype>
							<parameter>
								<name>Pan</name>
								<parameterid>pan</parameterid>
								<valuemin>-1</valuemin>
								<valuemax>1</valuemax>
								<value>-1</value>
							</parameter>
						</effect>
					</filter>
					<sourcetrack>
						<mediatype>audio</mediatype>
						<trackindex>1</trackindex>
					</sourcetrack>
					<link>
						<linkclipref>Cartoon Timpani.caf5</linkclipref>
						<mediatype>audio</mediatype>
						<trackindex>5</trackindex>
						<clipindex>35</clipindex>
						<groupindex>1</groupindex>
					</link>
					<link>
						<linkclipref>Cartoon Timpani.caf6</linkclipref>
						<mediatype>audio</mediatype>
						<trackindex>6</trackindex>
						<clipindex>31</clipindex>
						<groupindex>1</groupindex>
					</link>
					<itemhistory>
						<uuid>C5D94DF4-DF50-48CB-9066-812C5FB8AA81</uuid>
					</itemhistory>
				</clipitem>
				<clipitem id="SCD048720.wav11">
					<name>SCD048720.wav</name>
					<duration>2137</duration>
					<rate>
						<ntsc>FALSE</ntsc>
						<timebase>25</timebase>
					</rate>
					<in>0</in>
					<out>975</out>
					<start>29928</start>
					<end>30903</end>
					<subframeoffset>0</subframeoffset>
					<masterclipid>SCD048720.wav1</masterclipid>
					<logginginfo>
						<scene/>
						<shottake/>
						<lognote/>
						<good>FALSE</good>
					</logginginfo>
					<labels>
						<label2/>
					</labels>
					<comments>
						<mastercomment1>Swingende vispetakt</mastercomment1>
						<mastercomment2/>
						<mastercomment3/>
						<mastercomment4/>
					</comments>
					<file id="SCD048720 "/>
					<filter>
						<effect>
							<name>Audio Levels</name>
							<effectid>audiolevels</effectid>
							<effectcategory>audiolevels</effectcategory>
							<effecttype>audiolevels</effecttype>
							<mediatype>audio</mediatype>
							<parameter>
								<name>Level</name>
								<parameterid>level</parameterid>
								<valuemin>0</valuemin>
								<valuemax>3.98109</valuemax>
								<keyframe>
									<when>724.429</when>
									<value>0.141254</value>
								</keyframe>
								<keyframe>
									<when>809</when>
									<value>0</value>
								</keyframe>
								<interpolation>
									<name>FCPCurve</name>
								</interpolation>
								<value>0.141254</value>
							</parameter>
						</effect>
					</filter>
					<filter>
						<effect>
							<name>Audio Pan</name>
							<effectid>audiopan</effectid>
							<effectcategory>audiopan</effectcategory>
							<effecttype>audiopan</effecttype>
							<mediatype>audio</mediatype>
							<parameter>
								<name>Pan</name>
								<parameterid>pan</parameterid>
								<valuemin>-1</valuemin>
								<valuemax>1</valuemax>
								<value>-1</value>
							</parameter>
						</effect>
					</filter>
					<sourcetrack>
						<mediatype>audio</mediatype>
						<trackindex>1</trackindex>
					</sourcetrack>
					<link>
						<linkclipref>SCD048720.wav11</linkclipref>
						<mediatype>audio</mediatype>
						<trackindex>5</trackindex>
						<clipindex>36</clipindex>
						<groupindex>1</groupindex>
					</link>
					<link>
						<linkclipref>SCD048720.wav12</linkclipref>
						<mediatype>audio</mediatype>
						<trackindex>6</trackindex>
						<clipindex>32</clipindex>
						<groupindex>1</groupindex>
					</link>
					<itemhistory>
						<uuid>DED829A8-5F45-4991-9968-9E4A95959756</uuid>
					</itemhistory>
				</clipitem>
				<enabled>TRUE</enabled>
				<locked>FALSE</locked>
				<outputchannelindex>1</outputchannelindex>
			</track>
			<track>
				<clipitem id="StarsIn…tronicDIGIFXJ027401.WAV2">
					<name>StarsIn…tronicDIGIFXJ027401.WAV</name>
					<duration>822</duration>
					<rate>
						<ntsc>FALSE</ntsc>
						<timebase>25</timebase>
					</rate>
					<in>8</in>
					<out>121</out>
					<start>1484</start>
					<end>-1</end>
					<subframeoffset>0</subframeoffset>
					<masterclipid>StarsIn…tronicDIGIFXJ027401.WAV1</masterclipid>
					<logginginfo>
						<scene/>
						<shottake/>
						<lognote/>
						<good>FALSE</good>
					</logginginfo>
					<labels>
						<label2/>
					</labels>
					<comments>
						<mastercomment1/>
						<mastercomment2/>
						<mastercomment3/>
						<mastercomment4/>
					</comments>
					<file id="StarsIn…tronicDIGIFXJ027401 "/>
					<filter>
						<effect>
							<name>Audio Levels</name>
							<effectid>audiolevels</effectid>
							<effectcategory>audiolevels</effectcategory>
							<effecttype>audiolevels</effecttype>
							<mediatype>audio</mediatype>
							<parameter>
								<name>Level</name>
								<parameterid>level</parameterid>
								<valuemin>0</valuemin>
								<valuemax>3.98109</valuemax>
								<keyframe>
									<when>131</when>
									<value>0.354813</value>
								</keyframe>
								<interpolation>
									<name>FCPCurve</name>
								</interpolation>
								<value>1</value>
							</parameter>
						</effect>
					</filter>
					<filter>
						<effect>
							<name>Audio Pan</name>
							<effectid>audiopan</effectid>
							<effectcategory>audiopan</effectcategory>
							<effecttype>audiopan</effecttype>
							<mediatype>audio</mediatype>
							<parameter>
								<name>Pan</name>
								<parameterid>pan</parameterid>
								<valuemin>-1</valuemin>
								<valuemax>1</valuemax>
								<value>1</value>
							</parameter>
						</effect>
					</filter>
					<sourcetrack>
						<mediatype>audio</mediatype>
						<trackindex>2</trackindex>
					</sourcetrack>
					<link>
						<linkclipref>StarsIn…tronicDIGIFXJ027401.WAV</linkclipref>
						<mediatype>audio</mediatype>
						<trackindex>5</trackindex>
						<clipindex>4</clipindex>
						<groupindex>1</groupindex>
					</link>
					<link>
						<linkclipref>StarsIn…tronicDIGIFXJ027401.WAV2</linkclipref>
						<mediatype>audio</mediatype>
						<trackindex>6</trackindex>
						<clipindex>1</clipindex>
						<groupindex>1</groupindex>
					</link>
					<itemhistory>
						<uuid>3C9E08F4-54FA-46F5-97E8-8F50AA4F462E</uuid>
					</itemhistory>
				</clipitem>
				<transitionitem>
					<rate>
						<ntsc>FALSE</ntsc>
						<timebase>25</timebase>
					</rate>
					<start>1586</start>
					<end>1597</end>
					<alignment>center</alignment>
					<effect>
						<name>Cross Fade (+3dB)</name>
						<effectid>KGAudioTransCrossFade3dB</effectid>
						<effecttype>transition</effecttype>
						<mediatype>audio</mediatype>
					</effect>
				</transitionitem>
				<clipitem id="Gong-DeepDIGIFXJ013601.WAV2">
					<name>Gong-DeepDIGIFXJ013601.WAV</name>
					<duration>1049</duration>
					<rate>
						<ntsc>FALSE</ntsc>
						<timebase>25</timebase>
					</rate>
					<in>9</in>
					<out>132</out>
					<start>-1</start>
					<end>1709</end>
					<subframeoffset>0</subframeoffset>
					<masterclipid>Gong-DeepDIGIFXJ013601.WAV1</masterclipid>
					<logginginfo>
						<scene/>
						<shottake/>
						<lognote/>
						<good>FALSE</good>
					</logginginfo>
					<labels>
						<label2/>
					</labels>
					<comments>
						<mastercomment1/>
						<mastercomment2/>
						<mastercomment3/>
						<mastercomment4/>
					</comments>
					<file id="Gong-DeepDIGIFXJ013601 "/>
					<filter>
						<effect>
							<name>Audio Levels</name>
							<effectid>audiolevels</effectid>
							<effectcategory>audiolevels</effectcategory>
							<effecttype>audiolevels</effecttype>
							<mediatype>audio</mediatype>
							<parameter>
								<name>Level</name>
								<parameterid>level</parameterid>
								<valuemin>0</valuemin>
								<valuemax>3.98109</valuemax>
								<keyframe>
									<when>21.5714</when>
									<value>0.354813</value>
								</keyframe>
								<keyframe>
									<when>123.857</when>
									<value>0</value>
								</keyframe>
								<interpolation>
									<name>FCPCurve</name>
								</interpolation>
								<value>1</value>
							</parameter>
						</effect>
					</filter>
					<filter>
						<effect>
							<name>Audio Pan</name>
							<effectid>audiopan</effectid>
							<effectcategory>audiopan</effectcategory>
							<effecttype>audiopan</effecttype>
							<mediatype>audio</mediatype>
							<parameter>
								<name>Pan</name>
								<parameterid>pan</parameterid>
								<valuemin>-1</valuemin>
								<valuemax>1</valuemax>
								<value>1</value>
							</parameter>
						</effect>
					</filter>
					<sourcetrack>
						<mediatype>audio</mediatype>
						<trackindex>2</trackindex>
					</sourcetrack>
					<link>
						<linkclipref>Gong-DeepDIGIFXJ013601.WAV</linkclipref>
						<mediatype>audio</mediatype>
						<trackindex>5</trackindex>
						<clipindex>6</clipindex>
						<groupindex>1</groupindex>
					</link>
					<link>
						<linkclipref>Gong-DeepDIGIFXJ013601.WAV2</linkclipref>
						<mediatype>audio</mediatype>
						<trackindex>6</trackindex>
						<clipindex>3</clipindex>
						<groupindex>1</groupindex>
					</link>
					<itemhistory>
						<uuid>DAEFFE0D-2417-4C79-B63C-B83AE529C725</uuid>
					</itemhistory>
				</clipitem>
				<clipitem id="SCD048720.wav2">
					<name>SCD048720.wav</name>
					<duration>2137</duration>
					<rate>
						<ntsc>FALSE</ntsc>
						<timebase>25</timebase>
					</rate>
					<in>44</in>
					<out>151</out>
					<start>2909</start>
					<end>-1</end>
					<subframeoffset>0</subframeoffset>
					<masterclipid>SCD048720.wav1</masterclipid>
					<logginginfo>
						<scene/>
						<shottake/>
						<lognote/>
						<good>FALSE</good>
					</logginginfo>
					<labels>
						<label2/>
					</labels>
					<comments>
						<mastercomment1>Swingende vispetakt</mastercomment1>
						<mastercomment2/>
						<mastercomment3/>
						<mastercomment4/>
					</comments>
					<file id="SCD048720 "/>
					<filter>
						<effect>
							<name>Audio Levels</name>
							<effectid>audiolevels</effectid>
							<effectcategory>audiolevels</effectcategory>
							<effecttype>audiolevels</effecttype>
							<mediatype>audio</mediatype>
							<parameter>
								<name>Level</name>
								<parameterid>level</parameterid>
								<valuemin>0</valuemin>
								<valuemax>3.98109</valuemax>
								<keyframe>
									<when>44.2857</when>
									<value>0</value>
								</keyframe>
								<keyframe>
									<when>45.4286</when>
									<value>0.199526</value>
								</keyframe>
								<interpolation>
									<name>FCPCurve</name>
								</interpolation>
								<value>0.199526</value>
							</parameter>
						</effect>
					</filter>
					<filter>
						<effect>
							<name>Audio Pan</name>
							<effectid>audiopan</effectid>
							<effectcategory>audiopan</effectcategory>
							<effecttype>audiopan</effecttype>
							<mediatype>audio</mediatype>
							<parameter>
								<name>Pan</name>
								<parameterid>pan</parameterid>
								<valuemin>-1</valuemin>
								<valuemax>1</valuemax>
								<value>1</value>
							</parameter>
						</effect>
					</filter>
					<sourcetrack>
						<mediatype>audio</mediatype>
						<trackindex>2</trackindex>
					</sourcetrack>
					<link>
						<linkclipref>SCD048720.wav</linkclipref>
						<mediatype>audio</mediatype>
						<trackindex>5</trackindex>
						<clipindex>7</clipindex>
						<groupindex>1</groupindex>
					</link>
					<link>
						<linkclipref>SCD048720.wav2</linkclipref>
						<mediatype>audio</mediatype>
						<trackindex>6</trackindex>
						<clipindex>4</clipindex>
						<groupindex>1</groupindex>
					</link>
					<itemhistory>
						<uuid>4D2992D0-8C36-474D-BFC8-53C1C8B5EFE1</uuid>
					</itemhistory>
				</clipitem>
				<transitionitem>
					<rate>
						<ntsc>FALSE</ntsc>
						<timebase>25</timebase>
					</rate>
					<start>2998</start>
					<end>3016</end>
					<alignment>center</alignment>
					<effect>
						<name>Cross Fade (+3dB)</name>
						<effectid>KGAudioTransCrossFade3dB</effectid>
						<effecttype>transition</effecttype>
						<mediatype>audio</mediatype>
					</effect>
				</transitionitem>
				<clipitem id="SCD048720.wav4">
					<name>SCD048720.wav</name>
					<duration>2137</duration>
					<rate>
						<ntsc>FALSE</ntsc>
						<timebase>25</timebase>
					</rate>
					<in>2016</in>
					<out>2087</out>
					<start>-1</start>
					<end>3069</end>
					<subframeoffset>0</subframeoffset>
					<masterclipid>SCD048720.wav1</masterclipid>
					<logginginfo>
						<scene/>
						<shottake/>
						<lognote/>
						<good>FALSE</good>
					</logginginfo>
					<labels>
						<label2/>
					</labels>
					<comments>
						<mastercomment1>Swingende vispetakt</mastercomment1>
						<mastercomment2/>
						<mastercomment3/>
						<mastercomment4/>
					</comments>
					<file id="SCD048720 "/>
					<filter>
						<effect>
							<name>Audio Levels</name>
							<effectid>audiolevels</effectid>
							<effectcategory>audiolevels</effectcategory>
							<effecttype>audiolevels</effecttype>
							<mediatype>audio</mediatype>
							<parameter>
								<name>Level</name>
								<parameterid>level</parameterid>
								<valuemin>0</valuemin>
								<valuemax>3.98109</valuemax>
								<value>0.199526</value>
							</parameter>
						</effect>
					</filter>
					<filter>
						<effect>
							<name>Audio Pan</name>
							<effectid>audiopan</effectid>
							<effectcategory>audiopan</effectcategory>
							<effecttype>audiopan</effecttype>
							<mediatype>audio</mediatype>
							<parameter>
								<name>Pan</name>
								<parameterid>pan</parameterid>
								<valuemin>-1</valuemin>
								<valuemax>1</valuemax>
								<value>1</value>
							</parameter>
						</effect>
					</filter>
					<sourcetrack>
						<mediatype>audio</mediatype>
						<trackindex>2</trackindex>
					</sourcetrack>
					<link>
						<linkclipref>SCD048720.wav3</linkclipref>
						<mediatype>audio</mediatype>
						<trackindex>5</trackindex>
						<clipindex>9</clipindex>
						<groupindex>1</groupindex>
					</link>
					<link>
						<linkclipref>SCD048720.wav4</linkclipref>
						<mediatype>audio</mediatype>
						<trackindex>6</trackindex>
						<clipindex>6</clipindex>
						<groupindex>1</groupindex>
					</link>
					<itemhistory>
						<uuid>E752BE62-CB01-4BE0-B14E-777FFFDE6B76</uuid>
					</itemhistory>
				</clipitem>
				<transitionitem>
					<rate>
						<ntsc>FALSE</ntsc>
						<timebase>25</timebase>
					</rate>
					<start>5005</start>
					<end>5055</end>
					<alignment>start-black</alignment>
					<effect>
						<name>Cross Fade (+3dB) Copy</name>
						<effectid>KGAudioTransCrossFade3dB</effectid>
						<effecttype>transition</effecttype>
						<mediatype>audio</mediatype>
					</effect>
				</transitionitem>
				<clipitem id="SCD073718 3">
					<name>SCD073718</name>
					<duration>3976</duration>
					<rate>
						<ntsc>FALSE</ntsc>
						<timebase>25</timebase>
					</rate>
					<in>446</in>
					<out>1596</out>
					<start>-1</start>
					<end>6155</end>
					<subframeoffset>0</subframeoffset>
					<masterclipid>SCD073718 1</masterclipid>
					<logginginfo>
						<scene/>
						<shottake/>
						<lognote/>
						<good>FALSE</good>
					</logginginfo>
					<labels>
						<label2/>
					</labels>
					<comments>
						<mastercomment1/>
						<mastercomment2/>
						<mastercomment3/>
						<mastercomment4/>
					</comments>
					<file id="SCD073718 2"/>
					<filter>
						<effect>
							<name>Audio Levels</name>
							<effectid>audiolevels</effectid>
							<effectcategory>audiolevels</effectcategory>
							<effecttype>audiolevels</effecttype>
							<mediatype>audio</mediatype>
							<parameter>
								<name>Level</name>
								<parameterid>level</parameterid>
								<valuemin>0</valuemin>
								<valuemax>3.98109</valuemax>
								<keyframe>
									<when>664</when>
									<value>0.251189</value>
								</keyframe>
								<keyframe>
									<when>760</when>
									<value>0.141254</value>
								</keyframe>
								<keyframe>
									<when>1247</when>
									<value>0.141254</value>
								</keyframe>
								<keyframe>
									<when>1393</when>
									<value>0.0354813</value>
								</keyframe>
								<keyframe>
									<when>1584.71</when>
									<value>0</value>
								</keyframe>
								<interpolation>
									<name>FCPCurve</name>
								</interpolation>
								<value>0.398107</value>
							</parameter>
						</effect>
					</filter>
					<filter>
						<effect>
							<name>Audio Pan</name>
							<effectid>audiopan</effectid>
							<effectcategory>audiopan</effectcategory>
							<effecttype>audiopan</effecttype>
							<mediatype>audio</mediatype>
							<parameter>
								<name>Pan</name>
								<parameterid>pan</parameterid>
								<valuemin>-1</valuemin>
								<valuemax>1</valuemax>
								<value>1</value>
							</parameter>
						</effect>
					</filter>
					<sourcetrack>
						<mediatype>audio</mediatype>
						<trackindex>2</trackindex>
					</sourcetrack>
					<link>
						<linkclipref>SCD073718 </linkclipref>
						<mediatype>audio</mediatype>
						<trackindex>5</trackindex>
						<clipindex>11</clipindex>
						<groupindex>1</groupindex>
					</link>
					<link>
						<linkclipref>SCD073718 3</linkclipref>
						<mediatype>audio</mediatype>
						<trackindex>6</trackindex>
						<clipindex>8</clipindex>
						<groupindex>1</groupindex>
					</link>
					<itemhistory>
						<uuid>035C1AEC-AAE3-4281-B6CA-3A7A56931333</uuid>
					</itemhistory>
				</clipitem>
				<clipitem id="SCD048720.wav6">
					<name>SCD048720.wav</name>
					<duration>2137</duration>
					<rate>
						<ntsc>FALSE</ntsc>
						<timebase>25</timebase>
					</rate>
					<in>2</in>
					<out>349</out>
					<start>12225</start>
					<end>-1</end>
					<subframeoffset>0</subframeoffset>
					<masterclipid>SCD048720.wav1</masterclipid>
					<logginginfo>
						<scene/>
						<shottake/>
						<lognote/>
						<good>FALSE</good>
					</logginginfo>
					<labels>
						<label2/>
					</labels>
					<comments>
						<mastercomment1>Swingende vispetakt</mastercomment1>
						<mastercomment2/>
						<mastercomment3/>
						<mastercomment4/>
					</comments>
					<file id="SCD048720 "/>
					<filter>
						<effect>
							<name>Audio Levels</name>
							<effectid>audiolevels</effectid>
							<effectcategory>audiolevels</effectcategory>
							<effecttype>audiolevels</effecttype>
							<mediatype>audio</mediatype>
							<parameter>
								<name>Level</name>
								<parameterid>level</parameterid>
								<valuemin>0</valuemin>
								<valuemax>3.98109</valuemax>
								<keyframe>
									<when>172.286</when>
									<value>0.251189</value>
								</keyframe>
								<keyframe>
									<when>179.143</when>
									<value>0.199526</value>
								</keyframe>
								<interpolation>
									<name>FCPCurve</name>
								</interpolation>
								<value>0.251189</value>
							</parameter>
						</effect>
					</filter>
					<filter>
						<effect>
							<name>Audio Pan</name>
							<effectid>audiopan</effectid>
							<effectcategory>audiopan</effectcategory>
							<effecttype>audiopan</effecttype>
							<mediatype>audio</mediatype>
							<parameter>
								<name>Pan</name>
								<parameterid>pan</parameterid>
								<valuemin>-1</valuemin>
								<valuemax>1</valuemax>
								<value>1</value>
							</parameter>
						</effect>
					</filter>
					<sourcetrack>
						<mediatype>audio</mediatype>
						<trackindex>2</trackindex>
					</sourcetrack>
					<link>
						<linkclipref>SCD048720.wav5</linkclipref>
						<mediatype>audio</mediatype>
						<trackindex>5</trackindex>
						<clipindex>13</clipindex>
						<groupindex>1</groupindex>
					</link>
					<link>
						<linkclipref>SCD048720.wav6</linkclipref>
						<mediatype>audio</mediatype>
						<trackindex>6</trackindex>
						<clipindex>9</clipindex>
						<groupindex>1</groupindex>
					</link>
					<itemhistory>
						<uuid>080C686F-8F38-4CE9-BE53-4FAF12E79A94</uuid>
					</itemhistory>
				</clipitem>
				<transitionitem>
					<rate>
						<ntsc>FALSE</ntsc>
						<timebase>25</timebase>
					</rate>
					<start>12567</start>
					<end>12572</end>
					<alignment>center</alignment>
					<effect>
						<name>Cross Fade (+3dB)</name>
						<effectid>KGAudioTransCrossFade3dB</effectid>
						<effecttype>transition</effecttype>
						<mediatype>audio</mediatype>
					</effect>
				</transitionitem>
				<clipitem id="SCD048720.wav8">
					<name>SCD048720.wav</name>
					<duration>2137</duration>
					<rate>
						<ntsc>FALSE</ntsc>
						<timebase>25</timebase>
					</rate>
					<in>2002</in>
					<out>2077</out>
					<start>-1</start>
					<end>12642</end>
					<subframeoffset>0</subframeoffset>
					<masterclipid>SCD048720.wav1</masterclipid>
					<logginginfo>
						<scene/>
						<shottake/>
						<lognote/>
						<good>FALSE</good>
					</logginginfo>
					<labels>
						<label2/>
					</labels>
					<comments>
						<mastercomment1>Swingende vispetakt</mastercomment1>
						<mastercomment2/>
						<mastercomment3/>
						<mastercomment4/>
					</comments>
					<file id="SCD048720 "/>
					<filter>
						<effect>
							<name>Audio Levels</name>
							<effectid>audiolevels</effectid>
							<effectcategory>audiolevels</effectcategory>
							<effecttype>audiolevels</effecttype>
							<mediatype>audio</mediatype>
							<parameter>
								<name>Level</name>
								<parameterid>level</parameterid>
								<valuemin>0</valuemin>
								<valuemax>3.98109</valuemax>
								<value>0.141254</value>
							</parameter>
						</effect>
					</filter>
					<filter>
						<effect>
							<name>Audio Pan</name>
							<effectid>audiopan</effectid>
							<effectcategory>audiopan</effectcategory>
							<effecttype>audiopan</effecttype>
							<mediatype>audio</mediatype>
							<parameter>
								<name>Pan</name>
								<parameterid>pan</parameterid>
								<valuemin>-1</valuemin>
								<valuemax>1</valuemax>
								<value>1</value>
							</parameter>
						</effect>
					</filter>
					<sourcetrack>
						<mediatype>audio</mediatype>
						<trackindex>2</trackindex>
					</sourcetrack>
					<link>
						<linkclipref>SCD048720.wav7</linkclipref>
						<mediatype>audio</mediatype>
						<trackindex>5</trackindex>
						<clipindex>15</clipindex>
						<groupindex>1</groupindex>
					</link>
					<link>
						<linkclipref>SCD048720.wav8</linkclipref>
						<mediatype>audio</mediatype>
						<trackindex>6</trackindex>
						<clipindex>11</clipindex>
						<groupindex>1</groupindex>
					</link>
					<itemhistory>
						<uuid>F5B8C3EF-C0ED-4423-AFEE-44CA43DD391F</uuid>
					</itemhistory>
				</clipitem>
				<clipitem id="SCD048720.wav10">
					<name>SCD048720.wav</name>
					<duration>2137</duration>
					<rate>
						<ntsc>FALSE</ntsc>
						<timebase>25</timebase>
					</rate>
					<in>1566</in>
					<out>2137</out>
					<start>12663</start>
					<end>13234</end>
					<subframeoffset>0</subframeoffset>
					<masterclipid>SCD048720.wav1</masterclipid>
					<logginginfo>
						<scene/>
						<shottake/>
						<lognote/>
						<good>FALSE</good>
					</logginginfo>
					<labels>
						<label2/>
					</labels>
					<comments>
						<mastercomment1>Swingende vispetakt</mastercomment1>
						<mastercomment2/>
						<mastercomment3/>
						<mastercomment4/>
					</comments>
					<file id="SCD048720 "/>
					<filter>
						<effect>
							<name>Audio Levels</name>
							<effectid>audiolevels</effectid>
							<effectcategory>audiolevels</effectcategory>
							<effecttype>audiolevels</effecttype>
							<mediatype>audio</mediatype>
							<parameter>
								<name>Level</name>
								<parameterid>level</parameterid>
								<valuemin>0</valuemin>
								<valuemax>3.98109</valuemax>
								<keyframe>
									<when>1619</when>
									<value>0</value>
								</keyframe>
								<keyframe>
									<when>1761.86</when>
									<value>0.0501187</value>
								</keyframe>
								<keyframe>
									<when>1924.14</when>
									<value>0.0630957</value>
								</keyframe>
								<keyframe>
									<when>1944.43</when>
									<value>0.251189</value>
								</keyframe>
								<interpolation>
									<name>FCPCurve</name>
								</interpolation>
								<value>0.251189</value>
							</parameter>
						</effect>
					</filter>
					<filter>
						<effect>
							<name>Audio Pan</name>
							<effectid>audiopan</effectid>
							<effectcategory>audiopan</effectcategory>
							<effecttype>audiopan</effecttype>
							<mediatype>audio</mediatype>
							<parameter>
								<name>Pan</name>
								<parameterid>pan</parameterid>
								<valuemin>-1</valuemin>
								<valuemax>1</valuemax>
								<value>1</value>
							</parameter>
						</effect>
					</filter>
					<sourcetrack>
						<mediatype>audio</mediatype>
						<trackindex>2</trackindex>
					</sourcetrack>
					<link>
						<linkclipref>SCD048720.wav9</linkclipref>
						<mediatype>audio</mediatype>
						<trackindex>5</trackindex>
						<clipindex>16</clipindex>
						<groupindex>1</groupindex>
					</link>
					<link>
						<linkclipref>SCD048720.wav10</linkclipref>
						<mediatype>audio</mediatype>
						<trackindex>6</trackindex>
						<clipindex>12</clipindex>
						<groupindex>1</groupindex>
					</link>
					<itemhistory>
						<uuid>4743E245-C655-47AE-B7B5-D8DBF07E479E</uuid>
					</itemhistory>
				</clipitem>
				<clipitem id="SCD083314.wav2">
					<name>SCD083314.wav</name>
					<duration>2741</duration>
					<rate>
						<ntsc>FALSE</ntsc>
						<timebase>25</timebase>
					</rate>
					<in>0</in>
					<out>159</out>
					<start>13345</start>
					<end>-1</end>
					<subframeoffset>0</subframeoffset>
					<masterclipid>SCD083314.wav1</masterclipid>
					<logginginfo>
						<scene/>
						<shottake/>
						<lognote/>
						<good>FALSE</good>
					</logginginfo>
					<labels>
						<label2/>
					</labels>
					<comments>
						<mastercomment1/>
						<mastercomment2/>
						<mastercomment3/>
						<mastercomment4/>
					</comments>
					<file id="SCD083314 "/>
					<filter>
						<effect>
							<name>Audio Levels</name>
							<effectid>audiolevels</effectid>
							<effectcategory>audiolevels</effectcategory>
							<effecttype>audiolevels</effecttype>
							<mediatype>audio</mediatype>
							<parameter>
								<name>Level</name>
								<parameterid>level</parameterid>
								<valuemin>0</valuemin>
								<valuemax>3.98109</valuemax>
								<keyframe>
									<when>1</when>
									<value>0</value>
								</keyframe>
								<keyframe>
									<when>154.714</when>
									<value>0.281838</value>
								</keyframe>
								<interpolation>
									<name>FCPCurve</name>
								</interpolation>
								<value>1.12202</value>
							</parameter>
						</effect>
					</filter>
					<filter>
						<effect>
							<name>Audio Pan</name>
							<effectid>audiopan</effectid>
							<effectcategory>audiopan</effectcategory>
							<effecttype>audiopan</effecttype>
							<mediatype>audio</mediatype>
							<parameter>
								<name>Pan</name>
								<parameterid>pan</parameterid>
								<valuemin>-1</valuemin>
								<valuemax>1</valuemax>
								<value>1</value>
							</parameter>
						</effect>
					</filter>
					<sourcetrack>
						<mediatype>audio</mediatype>
						<trackindex>2</trackindex>
					</sourcetrack>
					<link>
						<linkclipref>SCD083314.wav</linkclipref>
						<mediatype>audio</mediatype>
						<trackindex>5</trackindex>
						<clipindex>17</clipindex>
						<groupindex>1</groupindex>
					</link>
					<link>
						<linkclipref>SCD083314.wav2</linkclipref>
						<mediatype>audio</mediatype>
						<trackindex>6</trackindex>
						<clipindex>13</clipindex>
						<groupindex>1</groupindex>
					</link>
					<itemhistory>
						<uuid>7490A306-7909-4A5B-8079-BBF660FBAA33</uuid>
					</itemhistory>
				</clipitem>
				<transitionitem>
					<rate>
						<ntsc>FALSE</ntsc>
						<timebase>25</timebase>
					</rate>
					<start>13501</start>
					<end>13504</end>
					<alignment>center</alignment>
					<effect>
						<name>Cross Fade (+3dB)</name>
						<effectid>KGAudioTransCrossFade3dB</effectid>
						<effecttype>transition</effecttype>
						<mediatype>audio</mediatype>
					</effect>
				</transitionitem>
				<clipitem id="SCD083314.wav4">
					<name>SCD083314.wav</name>
					<duration>2741</duration>
					<rate>
						<ntsc>FALSE</ntsc>
						<timebase>25</timebase>
					</rate>
					<in>1</in>
					<out>1059</out>
					<start>-1</start>
					<end>-1</end>
					<subframeoffset>0</subframeoffset>
					<enabled>TRUE</enabled>
					<masterclipid>SCD083314.wav1</masterclipid>
					<logginginfo>
						<scene/>
						<shottake/>
						<lognote/>
						<good>FALSE</good>
					</logginginfo>
					<labels>
						<label2/>
					</labels>
					<comments>
						<mastercomment1/>
						<mastercomment2/>
						<mastercomment3/>
						<mastercomment4/>
					</comments>
					<file id="SCD083314 "/>
					<filter>
						<effect>
							<name>Audio Levels</name>
							<effectid>audiolevels</effectid>
							<effectcategory>audiolevels</effectcategory>
							<effecttype>audiolevels</effecttype>
							<mediatype>audio</mediatype>
							<parameter>
								<name>Level</name>
								<parameterid>level</parameterid>
								<valuemin>0</valuemin>
								<valuemax>3.98109</valuemax>
								<keyframe>
									<when>4.85714</when>
									<value>0.281838</value>
								</keyframe>
								<keyframe>
									<when>155.714</when>
									<value>0.354813</value>
								</keyframe>
								<keyframe>
									<when>286.429</when>
									<value>0.398107</value>
								</keyframe>
								<keyframe>
									<when>413.286</when>
									<value>0.0630957</value>
								</keyframe>
								<keyframe>
									<when>940.143</when>
									<value>0.0630957</value>
								</keyframe>
								<keyframe>
									<when>1030.43</when>
									<value>0.199526</value>
								</keyframe>
								<interpolation>
									<name>FCPCurve</name>
								</interpolation>
								<value>0.0630957</value>
							</parameter>
						</effect>
					</filter>
					<filter>
						<effect>
							<name>Audio Pan</name>
							<effectid>audiopan</effectid>
							<effectcategory>audiopan</effectcategory>
							<effecttype>audiopan</effecttype>
							<mediatype>audio</mediatype>
							<parameter>
								<name>Pan</name>
								<parameterid>pan</parameterid>
								<valuemin>-1</valuemin>
								<valuemax>1</valuemax>
								<value>1</value>
							</parameter>
						</effect>
					</filter>
					<sourcetrack>
						<mediatype>audio</mediatype>
						<trackindex>2</trackindex>
					</sourcetrack>
					<link>
						<linkclipref>SCD083314.wav3</linkclipref>
						<mediatype>audio</mediatype>
						<trackindex>5</trackindex>
						<clipindex>19</clipindex>
						<groupindex>1</groupindex>
					</link>
					<link>
						<linkclipref>SCD083314.wav4</linkclipref>
						<mediatype>audio</mediatype>
						<trackindex>6</trackindex>
						<clipindex>15</clipindex>
						<groupindex>1</groupindex>
					</link>
					<itemhistory>
						<uuid>F1C087BD-D31B-4783-B237-0197ED18F39D</uuid>
					</itemhistory>
				</clipitem>
				<transitionitem>
					<rate>
						<ntsc>FALSE</ntsc>
						<timebase>25</timebase>
					</rate>
					<start>14534</start>
					<end>14559</end>
					<alignment>center</alignment>
					<effect>
						<name>Cross Fade (+3dB)</name>
						<effectid>KGAudioTransCrossFade3dB</effectid>
						<effecttype>transition</effecttype>
						<mediatype>audio</mediatype>
					</effect>
				</transitionitem>
				<clipitem id="SCD083314.wav6">
					<name>SCD083314.wav</name>
					<duration>2741</duration>
					<rate>
						<ntsc>FALSE</ntsc>
						<timebase>25</timebase>
					</rate>
					<in>1262</in>
					<out>2741</out>
					<start>-1</start>
					<end>16013</end>
					<subframeoffset>0</subframeoffset>
					<enabled>TRUE</enabled>
					<masterclipid>SCD083314.wav1</masterclipid>
					<logginginfo>
						<scene/>
						<shottake/>
						<lognote/>
						<good>FALSE</good>
					</logginginfo>
					<labels>
						<label2/>
					</labels>
					<comments>
						<mastercomment1/>
						<mastercomment2/>
						<mastercomment3/>
						<mastercomment4/>
					</comments>
					<file id="SCD083314 "/>
					<filter>
						<effect>
							<name>Audio Levels</name>
							<effectid>audiolevels</effectid>
							<effectcategory>audiolevels</effectcategory>
							<effecttype>audiolevels</effecttype>
							<mediatype>audio</mediatype>
							<parameter>
								<name>Level</name>
								<parameterid>level</parameterid>
								<valuemin>0</valuemin>
								<valuemax>3.98109</valuemax>
								<keyframe>
									<when>4.85714</when>
									<value>0.281838</value>
								</keyframe>
								<keyframe>
									<when>155.714</when>
									<value>0.354813</value>
								</keyframe>
								<keyframe>
									<when>286.429</when>
									<value>0.398107</value>
								</keyframe>
								<keyframe>
									<when>413.286</when>
									<value>0.0630957</value>
								</keyframe>
								<keyframe>
									<when>940.143</when>
									<value>0.0630957</value>
								</keyframe>
								<keyframe>
									<when>990.429</when>
									<value>0.199526</value>
								</keyframe>
								<keyframe>
									<when>1806.29</when>
									<value>0.199526</value>
								</keyframe>
								<keyframe>
									<when>1842.86</when>
									<value>0.0630957</value>
								</keyframe>
								<keyframe>
									<when>1868</when>
									<value>0.199526</value>
								</keyframe>
								<keyframe>
									<when>1991.43</when>
									<value>0.199526</value>
								</keyframe>
								<keyframe>
									<when>2012</when>
									<value>0.0630957</value>
								</keyframe>
								<keyframe>
									<when>2345.14</when>
									<value>0.0630957</value>
								</keyframe>
								<keyframe>
									<when>2365.14</when>
									<value>0.199526</value>
								</keyframe>
								<keyframe>
									<when>2594.86</when>
									<value>0.158489</value>
								</keyframe>
								<interpolation>
									<name>FCPCurve</name>
								</interpolation>
								<value>0.0630957</value>
							</parameter>
						</effect>
					</filter>
					<filter>
						<effect>
							<name>Audio Pan</name>
							<effectid>audiopan</effectid>
							<effectcategory>audiopan</effectcategory>
							<effecttype>audiopan</effecttype>
							<mediatype>audio</mediatype>
							<parameter>
								<name>Pan</name>
								<parameterid>pan</parameterid>
								<valuemin>-1</valuemin>
								<valuemax>1</valuemax>
								<value>1</value>
							</parameter>
						</effect>
					</filter>
					<sourcetrack>
						<mediatype>audio</mediatype>
						<trackindex>2</trackindex>
					</sourcetrack>
					<link>
						<linkclipref>SCD083314.wav5</linkclipref>
						<mediatype>audio</mediatype>
						<trackindex>5</trackindex>
						<clipindex>21</clipindex>
						<groupindex>1</groupindex>
					</link>
					<link>
						<linkclipref>SCD083314.wav6</linkclipref>
						<mediatype>audio</mediatype>
						<trackindex>6</trackindex>
						<clipindex>17</clipindex>
						<groupindex>1</groupindex>
					</link>
					<itemhistory>
						<uuid>871E3F85-3C29-41F1-A105-52D6B9CB981E</uuid>
					</itemhistory>
				</clipitem>
				<clipitem id="STT002015_MACHINES UPRISING  D_SONOTON3">
					<name>STT002015_MACHINES UPRISING  D_SONOTON</name>
					<duration>2732</duration>
					<rate>
						<ntsc>FALSE</ntsc>
						<timebase>25</timebase>
					</rate>
					<in>0</in>
					<out>288</out>
					<start>16478</start>
					<end>-1</end>
					<masterclipid>STT002015_MACHINES UPRISING  D_SONOTON1</masterclipid>
					<logginginfo>
						<scene/>
						<shottake/>
						<lognote/>
						<good>FALSE</good>
					</logginginfo>
					<labels>
						<label2/>
					</labels>
					<comments>
						<mastercomment1/>
						<mastercomment2/>
						<mastercomment3/>
						<mastercomment4/>
					</comments>
					<file id="STT002015_MACHINES UPRISING  D_SONOTON2"/>
					<filter>
						<effect>
							<name>Audio Levels</name>
							<effectid>audiolevels</effectid>
							<effectcategory>audiolevels</effectcategory>
							<effecttype>audiolevels</effecttype>
							<mediatype>audio</mediatype>
							<parameter>
								<name>Level</name>
								<parameterid>level</parameterid>
								<valuemin>0</valuemin>
								<valuemax>3.98109</valuemax>
								<value>0.354813</value>
							</parameter>
						</effect>
					</filter>
					<filter>
						<effect>
							<name>Audio Pan</name>
							<effectid>audiopan</effectid>
							<effectcategory>audiopan</effectcategory>
							<effecttype>audiopan</effecttype>
							<mediatype>audio</mediatype>
							<parameter>
								<name>Pan</name>
								<parameterid>pan</parameterid>
								<valuemin>-1</valuemin>
								<valuemax>1</valuemax>
								<value>1</value>
							</parameter>
						</effect>
					</filter>
					<sourcetrack>
						<mediatype>audio</mediatype>
						<trackindex>2</trackindex>
					</sourcetrack>
					<link>
						<linkclipref>STT002015_MACHINES UPRISING  D_SONOTON</linkclipref>
						<mediatype>audio</mediatype>
						<trackindex>5</trackindex>
						<clipindex>22</clipindex>
						<groupindex>1</groupindex>
					</link>
					<link>
						<linkclipref>STT002015_MACHINES UPRISING  D_SONOTON3</linkclipref>
						<mediatype>audio</mediatype>
						<trackindex>6</trackindex>
						<clipindex>18</clipindex>
						<groupindex>1</groupindex>
					</link>
					<itemhistory>
						<uuid>EDBBDF36-A51B-4A39-AC9A-433A7B89D01A</uuid>
					</itemhistory>
				</clipitem>
				<transitionitem>
					<rate>
						<ntsc>FALSE</ntsc>
						<timebase>25</timebase>
					</rate>
					<start>16741</start>
					<end>16766</end>
					<alignment>center</alignment>
					<effect>
						<name>Cross Fade (+3dB)</name>
						<effectid>KGAudioTransCrossFade3dB</effectid>
						<effecttype>transition</effecttype>
						<mediatype>audio</mediatype>
					</effect>
				</transitionitem>
				<clipitem id="STT002015_MACHINES UPRISING  D_SONOTON5">
					<name>STT002015_MACHINES UPRISING  D_SONOTON</name>
					<duration>2732</duration>
					<rate>
						<ntsc>FALSE</ntsc>
						<timebase>25</timebase>
					</rate>
					<in>363</in>
					<out>760</out>
					<start>-1</start>
					<end>-1</end>
					<masterclipid>STT002015_MACHINES UPRISING  D_SONOTON1</masterclipid>
					<logginginfo>
						<scene/>
						<shottake/>
						<lognote/>
						<good>FALSE</good>
					</logginginfo>
					<labels>
						<label2/>
					</labels>
					<comments>
						<mastercomment1/>
						<mastercomment2/>
						<mastercomment3/>
						<mastercomment4/>
					</comments>
					<file id="STT002015_MACHINES UPRISING  D_SONOTON2"/>
					<filter>
						<effect>
							<name>Audio Levels</name>
							<effectid>audiolevels</effectid>
							<effectcategory>audiolevels</effectcategory>
							<effecttype>audiolevels</effecttype>
							<mediatype>audio</mediatype>
							<parameter>
								<name>Level</name>
								<parameterid>level</parameterid>
								<valuemin>0</valuemin>
								<valuemax>3.98109</valuemax>
								<keyframe>
									<when>585.714</when>
									<value>0.354813</value>
								</keyframe>
								<keyframe>
									<when>621.714</when>
									<value>0.112202</value>
								</keyframe>
								<interpolation>
									<name>FCPCurve</name>
								</interpolation>
								<value>0.354813</value>
							</parameter>
						</effect>
					</filter>
					<filter>
						<effect>
							<name>Audio Pan</name>
							<effectid>audiopan</effectid>
							<effectcategory>audiopan</effectcategory>
							<effecttype>audiopan</effecttype>
							<mediatype>audio</mediatype>
							<parameter>
								<name>Pan</name>
								<parameterid>pan</parameterid>
								<valuemin>-1</valuemin>
								<valuemax>1</valuemax>
								<value>1</value>
							</parameter>
						</effect>
					</filter>
					<sourcetrack>
						<mediatype>audio</mediatype>
						<trackindex>2</trackindex>
					</sourcetrack>
					<link>
						<linkclipref>STT002015_MACHINES UPRISING  D_SONOTON4</linkclipref>
						<mediatype>audio</mediatype>
						<trackindex>5</trackindex>
						<clipindex>24</clipindex>
						<groupindex>1</groupindex>
					</link>
					<link>
						<linkclipref>STT002015_MACHINES UPRISING  D_SONOTON5</linkclipref>
						<mediatype>audio</mediatype>
						<trackindex>6</trackindex>
						<clipindex>20</clipindex>
						<groupindex>1</groupindex>
					</link>
					<itemhistory>
						<uuid>8DF94BF6-FBAD-4148-B01A-452DCC27ADA7</uuid>
					</itemhistory>
				</clipitem>
				<transitionitem>
					<rate>
						<ntsc>FALSE</ntsc>
						<timebase>25</timebase>
					</rate>
					<start>17131</start>
					<end>17138</end>
					<alignment>center</alignment>
					<effect>
						<name>Cross Fade (+3dB)</name>
						<effectid>KGAudioTransCrossFade3dB</effectid>
						<effecttype>transition</effecttype>
						<mediatype>audio</mediatype>
					</effect>
				</transitionitem>
				<clipitem id="STT002015_MACHINES UPRISING  D_SONOTON7">
					<name>STT002015_MACHINES UPRISING  D_SONOTON</name>
					<duration>2732</duration>
					<rate>
						<ntsc>FALSE</ntsc>
						<timebase>25</timebase>
					</rate>
					<in>969</in>
					<out>1103</out>
					<start>-1</start>
					<end>-1</end>
					<subframeoffset>0</subframeoffset>
					<masterclipid>STT002015_MACHINES UPRISING  D_SONOTON1</masterclipid>
					<logginginfo>
						<scene/>
						<shottake/>
						<lognote/>
						<good>FALSE</good>
					</logginginfo>
					<labels>
						<label2/>
					</labels>
					<comments>
						<mastercomment1/>
						<mastercomment2/>
						<mastercomment3/>
						<mastercomment4/>
					</comments>
					<file id="STT002015_MACHINES UPRISING  D_SONOTON2"/>
					<filter>
						<effect>
							<name>Audio Levels</name>
							<effectid>audiolevels</effectid>
							<effectcategory>audiolevels</effectcategory>
							<effecttype>audiolevels</effecttype>
							<mediatype>audio</mediatype>
							<parameter>
								<name>Level</name>
								<parameterid>level</parameterid>
								<valuemin>0</valuemin>
								<valuemax>3.98109</valuemax>
								<value>0.354813</value>
							</parameter>
						</effect>
					</filter>
					<filter>
						<effect>
							<name>Audio Pan</name>
							<effectid>audiopan</effectid>
							<effectcategory>audiopan</effectcategory>
							<effecttype>audiopan</effecttype>
							<mediatype>audio</mediatype>
							<parameter>
								<name>Pan</name>
								<parameterid>pan</parameterid>
								<valuemin>-1</valuemin>
								<valuemax>1</valuemax>
								<value>1</value>
							</parameter>
						</effect>
					</filter>
					<sourcetrack>
						<mediatype>audio</mediatype>
						<trackindex>2</trackindex>
					</sourcetrack>
					<link>
						<linkclipref>STT002015_MACHINES UPRISING  D_SONOTON6</linkclipref>
						<mediatype>audio</mediatype>
						<trackindex>5</trackindex>
						<clipindex>26</clipindex>
						<groupindex>1</groupindex>
					</link>
					<link>
						<linkclipref>STT002015_MACHINES UPRISING  D_SONOTON7</linkclipref>
						<mediatype>audio</mediatype>
						<trackindex>6</trackindex>
						<clipindex>22</clipindex>
						<groupindex>1</groupindex>
					</link>
					<itemhistory>
						<uuid>7255ECD3-CF90-44CE-A20F-EA5A71F0B5F5</uuid>
					</itemhistory>
				</clipitem>
				<transitionitem>
					<rate>
						<ntsc>FALSE</ntsc>
						<timebase>25</timebase>
					</rate>
					<start>17232</start>
					<end>17265</end>
					<alignment>center</alignment>
					<effect>
						<name>Cross Fade (+3dB)</name>
						<effectid>KGAudioTransCrossFade3dB</effectid>
						<effecttype>transition</effecttype>
						<mediatype>audio</mediatype>
					</effect>
				</transitionitem>
				<clipitem id="STT002015_MACHINES UPRISING  D_SONOTON9">
					<name>STT002015_MACHINES UPRISING  D_SONOTON</name>
					<duration>2732</duration>
					<rate>
						<ntsc>FALSE</ntsc>
						<timebase>25</timebase>
					</rate>
					<in>808</in>
					<out>2373</out>
					<start>-1</start>
					<end>18797</end>
					<masterclipid>STT002015_MACHINES UPRISING  D_SONOTON1</masterclipid>
					<logginginfo>
						<scene/>
						<shottake/>
						<lognote/>
						<good>FALSE</good>
					</logginginfo>
					<labels>
						<label2/>
					</labels>
					<comments>
						<mastercomment1/>
						<mastercomment2/>
						<mastercomment3/>
						<mastercomment4/>
					</comments>
					<file id="STT002015_MACHINES UPRISING  D_SONOTON2"/>
					<filter>
						<effect>
							<name>Audio Levels</name>
							<effectid>audiolevels</effectid>
							<effectcategory>audiolevels</effectcategory>
							<effecttype>audiolevels</effecttype>
							<mediatype>audio</mediatype>
							<parameter>
								<name>Level</name>
								<parameterid>level</parameterid>
								<valuemin>0</valuemin>
								<valuemax>3.98109</valuemax>
								<keyframe>
									<when>884</when>
									<value>0.0501187</value>
								</keyframe>
								<keyframe>
									<when>899</when>
									<value>0.199526</value>
								</keyframe>
								<keyframe>
									<when>977.75</when>
									<value>0.199526</value>
								</keyframe>
								<keyframe>
									<when>1005.61</when>
									<value>0.0891251</value>
								</keyframe>
								<keyframe>
									<when>1073.64</when>
									<value>0.0891251</value>
								</keyframe>
								<keyframe>
									<when>1130.43</when>
									<value>0.354813</value>
								</keyframe>
								<keyframe>
									<when>1214</when>
									<value>0.354813</value>
								</keyframe>
								<keyframe>
									<when>1264.36</when>
									<value>0.0630957</value>
								</keyframe>
								<keyframe>
									<when>1380.07</when>
									<value>0.0630957</value>
								</keyframe>
								<keyframe>
									<when>1454</when>
									<value>0.354813</value>
								</keyframe>
								<keyframe>
									<when>1654.89</when>
									<value>0.354813</value>
								</keyframe>
								<keyframe>
									<when>1697.48</when>
									<value>0.0891251</value>
								</keyframe>
								<keyframe>
									<when>1728.55</when>
									<value>0.0501187</value>
								</keyframe>
								<keyframe>
									<when>1945.78</when>
									<value>0.0501187</value>
								</keyframe>
								<keyframe>
									<when>2055.88</when>
									<value>0.0251189</value>
								</keyframe>
								<keyframe>
									<when>2331.5</when>
									<value>0.0251189</value>
								</keyframe>
								<keyframe>
									<when>2355.07</when>
									<value>0</value>
								</keyframe>
								<interpolation>
									<name>FCPCurve</name>
								</interpolation>
								<value>0.0501187</value>
							</parameter>
						</effect>
					</filter>
					<filter>
						<effect>
							<name>Audio Pan</name>
							<effectid>audiopan</effectid>
							<effectcategory>audiopan</effectcategory>
							<effecttype>audiopan</effecttype>
							<mediatype>audio</mediatype>
							<parameter>
								<name>Pan</name>
								<parameterid>pan</parameterid>
								<valuemin>-1</valuemin>
								<valuemax>1</valuemax>
								<value>1</value>
							</parameter>
						</effect>
					</filter>
					<sourcetrack>
						<mediatype>audio</mediatype>
						<trackindex>2</trackindex>
					</sourcetrack>
					<link>
						<linkclipref>STT002015_MACHINES UPRISING  D_SONOTON8</linkclipref>
						<mediatype>audio</mediatype>
						<trackindex>5</trackindex>
						<clipindex>28</clipindex>
						<groupindex>1</groupindex>
					</link>
					<link>
						<linkclipref>STT002015_MACHINES UPRISING  D_SONOTON9</linkclipref>
						<mediatype>audio</mediatype>
						<trackindex>6</trackindex>
						<clipindex>24</clipindex>
						<groupindex>1</groupindex>
					</link>
					<itemhistory>
						<uuid>2E8CCB3E-D630-435E-B336-0CE4447FA369</uuid>
					</itemhistory>
				</clipitem>
				<clipitem id="SCD082109_SCENIC ELEGY_SONOTON3">
					<name>SCD082109_SCENIC ELEGY_SONOTON</name>
					<duration>3057</duration>
					<rate>
						<ntsc>FALSE</ntsc>
						<timebase>25</timebase>
					</rate>
					<in>0</in>
					<out>1277</out>
					<start>19164</start>
					<end>-1</end>
					<masterclipid>SCD082109_SCENIC ELEGY_SONOTON1</masterclipid>
					<logginginfo>
						<scene/>
						<shottake/>
						<lognote/>
						<good>FALSE</good>
					</logginginfo>
					<labels>
						<label2/>
					</labels>
					<comments>
						<mastercomment1/>
						<mastercomment2/>
						<mastercomment3/>
						<mastercomment4/>
					</comments>
					<file id="SCD082109_SCENIC ELEGY_SONOTON2"/>
					<filter>
						<effect>
							<name>Audio Levels</name>
							<effectid>audiolevels</effectid>
							<effectcategory>audiolevels</effectcategory>
							<effecttype>audiolevels</effecttype>
							<mediatype>audio</mediatype>
							<parameter>
								<name>Level</name>
								<parameterid>level</parameterid>
								<valuemin>0</valuemin>
								<valuemax>3.98109</valuemax>
								<keyframe>
									<when>91.5</when>
									<value>0.0630957</value>
								</keyframe>
								<keyframe>
									<when>149</when>
									<value>0.251189</value>
								</keyframe>
								<keyframe>
									<when>259</when>
									<value>0.251189</value>
								</keyframe>
								<keyframe>
									<when>378</when>
									<value>0.0630957</value>
								</keyframe>
								<interpolation>
									<name>FCPCurve</name>
								</interpolation>
								<value>0.281838</value>
							</parameter>
						</effect>
					</filter>
					<filter>
						<effect>
							<name>Audio Pan</name>
							<effectid>audiopan</effectid>
							<effectcategory>audiopan</effectcategory>
							<effecttype>audiopan</effecttype>
							<mediatype>audio</mediatype>
							<parameter>
								<name>Pan</name>
								<parameterid>pan</parameterid>
								<valuemin>-1</valuemin>
								<valuemax>1</valuemax>
								<value>1</value>
							</parameter>
						</effect>
					</filter>
					<sourcetrack>
						<mediatype>audio</mediatype>
						<trackindex>2</trackindex>
					</sourcetrack>
					<link>
						<linkclipref>SCD082109_SCENIC ELEGY_SONOTON</linkclipref>
						<mediatype>audio</mediatype>
						<trackindex>5</trackindex>
						<clipindex>29</clipindex>
						<groupindex>1</groupindex>
					</link>
					<link>
						<linkclipref>SCD082109_SCENIC ELEGY_SONOTON3</linkclipref>
						<mediatype>audio</mediatype>
						<trackindex>6</trackindex>
						<clipindex>25</clipindex>
						<groupindex>1</groupindex>
					</link>
					<itemhistory>
						<uuid>0642AEBA-ADAB-4CFE-86EF-9B7B98AED15B</uuid>
					</itemhistory>
				</clipitem>
				<transitionitem>
					<rate>
						<ntsc>FALSE</ntsc>
						<timebase>25</timebase>
					</rate>
					<start>20416</start>
					<end>20441</end>
					<alignment>center</alignment>
					<effect>
						<name>Cross Fade (+3dB)</name>
						<effectid>KGAudioTransCrossFade3dB</effectid>
						<effecttype>transition</effecttype>
						<mediatype>audio</mediatype>
					</effect>
				</transitionitem>
				<clipitem id="SCD082109_SCENIC ELEGY_SONOTON5">
					<name>SCD082109_SCENIC ELEGY_SONOTON</name>
					<duration>3057</duration>
					<rate>
						<ntsc>FALSE</ntsc>
						<timebase>25</timebase>
					</rate>
					<in>2689</in>
					<out>3057</out>
					<start>-1</start>
					<end>20784</end>
					<subframeoffset>0</subframeoffset>
					<masterclipid>SCD082109_SCENIC ELEGY_SONOTON1</masterclipid>
					<logginginfo>
						<scene/>
						<shottake/>
						<lognote/>
						<good>FALSE</good>
					</logginginfo>
					<labels>
						<label2/>
					</labels>
					<comments>
						<mastercomment1/>
						<mastercomment2/>
						<mastercomment3/>
						<mastercomment4/>
					</comments>
					<file id="SCD082109_SCENIC ELEGY_SONOTON2"/>
					<filter>
						<effect>
							<name>Audio Levels</name>
							<effectid>audiolevels</effectid>
							<effectcategory>audiolevels</effectcategory>
							<effecttype>audiolevels</effecttype>
							<mediatype>audio</mediatype>
							<parameter>
								<name>Level</name>
								<parameterid>level</parameterid>
								<valuemin>0</valuemin>
								<valuemax>3.98109</valuemax>
								<value>0.0501187</value>
							</parameter>
						</effect>
					</filter>
					<filter>
						<effect>
							<name>Audio Pan</name>
							<effectid>audiopan</effectid>
							<effectcategory>audiopan</effectcategory>
							<effecttype>audiopan</effecttype>
							<mediatype>audio</mediatype>
							<parameter>
								<name>Pan</name>
								<parameterid>pan</parameterid>
								<valuemin>-1</valuemin>
								<valuemax>1</valuemax>
								<value>1</value>
							</parameter>
						</effect>
					</filter>
					<sourcetrack>
						<mediatype>audio</mediatype>
						<trackindex>2</trackindex>
					</sourcetrack>
					<link>
						<linkclipref>SCD082109_SCENIC ELEGY_SONOTON4</linkclipref>
						<mediatype>audio</mediatype>
						<trackindex>5</trackindex>
						<clipindex>31</clipindex>
						<groupindex>1</groupindex>
					</link>
					<link>
						<linkclipref>SCD082109_SCENIC ELEGY_SONOTON5</linkclipref>
						<mediatype>audio</mediatype>
						<trackindex>6</trackindex>
						<clipindex>27</clipindex>
						<groupindex>1</groupindex>
					</link>
					<itemhistory>
						<uuid>666DF5AF-1E09-48AE-9BFA-1281A1E27112</uuid>
					</itemhistory>
				</clipitem>
				<clipitem id="WHOOSHLARG…WHOOSHBYFS105004 9">
					<name>WHOOSHLARG…WHOOSHBYFS105004</name>
					<duration>325</duration>
					<rate>
						<ntsc>FALSE</ntsc>
						<timebase>25</timebase>
					</rate>
					<in>54</in>
					<out>127</out>
					<start>23862</start>
					<end>23935</end>
					<enabled>TRUE</enabled>
					<masterclipid>WHOOSHLARG…WHOOSHBYFS105004 1</masterclipid>
					<logginginfo>
						<scene/>
						<shottake/>
						<lognote/>
						<good>FALSE</good>
					</logginginfo>
					<labels>
						<label2/>
					</labels>
					<comments>
						<mastercomment1/>
						<mastercomment2/>
						<mastercomment3/>
						<mastercomment4/>
					</comments>
					<file id="WHOOSHLARG…WHOOSHBYFS105004 2"/>
					<filter>
						<effect>
							<name>Audio Levels</name>
							<effectid>audiolevels</effectid>
							<effectcategory>audiolevels</effectcategory>
							<effecttype>audiolevels</effecttype>
							<mediatype>audio</mediatype>
							<parameter>
								<name>Level</name>
								<parameterid>level</parameterid>
								<valuemin>0</valuemin>
								<valuemax>3.98109</valuemax>
								<value>0.398107</value>
							</parameter>
						</effect>
					</filter>
					<filter>
						<effect>
							<name>Audio Pan</name>
							<effectid>audiopan</effectid>
							<effectcategory>audiopan</effectcategory>
							<effecttype>audiopan</effecttype>
							<mediatype>audio</mediatype>
							<parameter>
								<name>Pan</name>
								<parameterid>pan</parameterid>
								<valuemin>-1</valuemin>
								<valuemax>1</valuemax>
								<value>1</value>
							</parameter>
						</effect>
					</filter>
					<sourcetrack>
						<mediatype>audio</mediatype>
						<trackindex>2</trackindex>
					</sourcetrack>
					<link>
						<linkclipref>WHOOSHLARG…WHOOSHBYFS105004 8</linkclipref>
						<mediatype>audio</mediatype>
						<trackindex>5</trackindex>
						<clipindex>32</clipindex>
						<groupindex>1</groupindex>
					</link>
					<link>
						<linkclipref>WHOOSHLARG…WHOOSHBYFS105004 9</linkclipref>
						<mediatype>audio</mediatype>
						<trackindex>6</trackindex>
						<clipindex>28</clipindex>
						<groupindex>1</groupindex>
					</link>
					<itemhistory>
						<uuid>F6C0924D-EF6E-40B9-8A27-2A8656E9FF10</uuid>
					</itemhistory>
					<filter>
						<effect>
							<name>Time Remap</name>
							<effectid>timeremap</effectid>
							<effectcategory>motion</effectcategory>
							<effecttype>motion</effecttype>
							<mediatype>audio</mediatype>
							<parameter>
								<parameterid>variablespeed</parameterid>
								<name>variablespeed</name>
								<valuemin>0</valuemin>
								<valuemax>1</valuemax>
								<value>0</value>
							</parameter>
							<parameter>
								<parameterid>mappedduration</parameterid>
								<name>mappedduration</name>
								<value>
									<timecode>
										<rate>
											<timebase>0</timebase>
										</rate>
										<string>0</string>
										<frame>0</frame>
										<displayformat>NDF</displayformat>
									</timecode>
								</value>
							</parameter>
							<parameter>
								<parameterid>speed</parameterid>
								<name>speed</name>
								<valuemin>-10000</valuemin>
								<valuemax>10000</valuemax>
								<value>25</value>
							</parameter>
							<parameter>
								<parameterid>reverse</parameterid>
								<name>reverse</name>
								<value>FALSE</value>
							</parameter>
							<parameter>
								<parameterid>frameblending</parameterid>
								<name>frameblending</name>
								<value>TRUE</value>
							</parameter>
							<parameter>
								<parameterid>graphdict</parameterid>
								<name>graphdict</name>
								<valuemin>0</valuemin>
								<valuemax>81</valuemax>
								<keyframe>
									<when>0</when>
									<value>0</value>
									<speedkfstart>TRUE</speedkfstart>
									<speedvirtualkf>TRUE</speedvirtualkf>
								</keyframe>
								<keyframe>
									<when>54</when>
									<value>13.5</value>
									<speedkfin>TRUE</speedkfin>
									<speedvirtualkf>TRUE</speedvirtualkf>
								</keyframe>
								<keyframe>
									<when>127</when>
									<value>31.75</value>
									<speedkfout>TRUE</speedkfout>
									<speedvirtualkf>TRUE</speedvirtualkf>
								</keyframe>
								<keyframe>
									<when>325</when>
									<value>82</value>
									<speedkfend>TRUE</speedkfend>
									<speedvirtualkf>TRUE</speedvirtualkf>
								</keyframe>
								<interpolation>
									<name>FCPCurve</name>
								</interpolation>
								<value>13.5</value>
							</parameter>
						</effect>
					</filter>
				</clipitem>
				<clipitem id="DYR18603_01 6">
					<name>DYR18603_01</name>
					<duration>278</duration>
					<rate>
						<ntsc>FALSE</ntsc>
						<timebase>25</timebase>
					</rate>
					<in>131</in>
					<out>174</out>
					<start>27073</start>
					<end>27116</end>
					<subframeoffset>0</subframeoffset>
					<masterclipid>DYR18603_01 1</masterclipid>
					<logginginfo>
						<scene/>
						<shottake/>
						<lognote/>
						<good>FALSE</good>
					</logginginfo>
					<labels>
						<label2/>
					</labels>
					<comments>
						<mastercomment1/>
						<mastercomment2/>
						<mastercomment3/>
						<mastercomment4/>
					</comments>
					<file id="DYR18603_01 2"/>
					<filter>
						<effect>
							<name>Audio Levels</name>
							<effectid>audiolevels</effectid>
							<effectcategory>audiolevels</effectcategory>
							<effecttype>audiolevels</effecttype>
							<mediatype>audio</mediatype>
							<parameter>
								<name>Level</name>
								<parameterid>level</parameterid>
								<valuemin>0</valuemin>
								<valuemax>3.98109</valuemax>
								<value>1</value>
							</parameter>
						</effect>
					</filter>
					<filter>
						<effect>
							<name>Audio Pan</name>
							<effectid>audiopan</effectid>
							<effectcategory>audiopan</effectcategory>
							<effecttype>audiopan</effecttype>
							<mediatype>audio</mediatype>
							<parameter>
								<name>Pan</name>
								<parameterid>pan</parameterid>
								<valuemin>-1</valuemin>
								<valuemax>1</valuemax>
								<value>0</value>
							</parameter>
						</effect>
					</filter>
					<sourcetrack>
						<mediatype>audio</mediatype>
						<trackindex>2</trackindex>
					</sourcetrack>
					<itemhistory>
						<uuid>D3A2FB82-B335-4105-A1FD-CD2F402EC9CB</uuid>
					</itemhistory>
				</clipitem>
				<clipitem id="WHOOSHLARG…WHOOSHBYFS105004 11">
					<name>WHOOSHLARG…WHOOSHBYFS105004</name>
					<duration>325</duration>
					<rate>
						<ntsc>FALSE</ntsc>
						<timebase>25</timebase>
					</rate>
					<in>54</in>
					<out>127</out>
					<start>27676</start>
					<end>27749</end>
					<enabled>TRUE</enabled>
					<masterclipid>WHOOSHLARG…WHOOSHBYFS105004 1</masterclipid>
					<logginginfo>
						<scene/>
						<shottake/>
						<lognote/>
						<good>FALSE</good>
					</logginginfo>
					<labels>
						<label2/>
					</labels>
					<comments>
						<mastercomment1/>
						<mastercomment2/>
						<mastercomment3/>
						<mastercomment4/>
					</comments>
					<file id="WHOOSHLARG…WHOOSHBYFS105004 2"/>
					<filter>
						<effect>
							<name>Audio Levels</name>
							<effectid>audiolevels</effectid>
							<effectcategory>audiolevels</effectcategory>
							<effecttype>audiolevels</effecttype>
							<mediatype>audio</mediatype>
							<parameter>
								<name>Level</name>
								<parameterid>level</parameterid>
								<valuemin>0</valuemin>
								<valuemax>3.98109</valuemax>
								<value>0.398107</value>
							</parameter>
						</effect>
					</filter>
					<filter>
						<effect>
							<name>Audio Pan</name>
							<effectid>audiopan</effectid>
							<effectcategory>audiopan</effectcategory>
							<effecttype>audiopan</effecttype>
							<mediatype>audio</mediatype>
							<parameter>
								<name>Pan</name>
								<parameterid>pan</parameterid>
								<valuemin>-1</valuemin>
								<valuemax>1</valuemax>
								<value>1</value>
							</parameter>
						</effect>
					</filter>
					<sourcetrack>
						<mediatype>audio</mediatype>
						<trackindex>2</trackindex>
					</sourcetrack>
					<link>
						<linkclipref>WHOOSHLARG…WHOOSHBYFS105004 10</linkclipref>
						<mediatype>audio</mediatype>
						<trackindex>5</trackindex>
						<clipindex>34</clipindex>
						<groupindex>1</groupindex>
					</link>
					<link>
						<linkclipref>WHOOSHLARG…WHOOSHBYFS105004 11</linkclipref>
						<mediatype>audio</mediatype>
						<trackindex>6</trackindex>
						<clipindex>30</clipindex>
						<groupindex>1</groupindex>
					</link>
					<itemhistory>
						<uuid>08781DB7-F19C-417F-A47E-232135907F32</uuid>
					</itemhistory>
					<filter>
						<effect>
							<name>Time Remap</name>
							<effectid>timeremap</effectid>
							<effectcategory>motion</effectcategory>
							<effecttype>motion</effecttype>
							<mediatype>audio</mediatype>
							<parameter>
								<parameterid>variablespeed</parameterid>
								<name>variablespeed</name>
								<valuemin>0</valuemin>
								<valuemax>1</valuemax>
								<value>0</value>
							</parameter>
							<parameter>
								<parameterid>mappedduration</parameterid>
								<name>mappedduration</name>
								<value>
									<timecode>
										<rate>
											<timebase>0</timebase>
										</rate>
										<string>0</string>
										<frame>0</frame>
										<displayformat>NDF</displayformat>
									</timecode>
								</value>
							</parameter>
							<parameter>
								<parameterid>speed</parameterid>
								<name>speed</name>
								<valuemin>-10000</valuemin>
								<valuemax>10000</valuemax>
								<value>25</value>
							</parameter>
							<parameter>
								<parameterid>reverse</parameterid>
								<name>reverse</name>
								<value>FALSE</value>
							</parameter>
							<parameter>
								<parameterid>frameblending</parameterid>
								<name>frameblending</name>
								<value>TRUE</value>
							</parameter>
							<parameter>
								<parameterid>graphdict</parameterid>
								<name>graphdict</name>
								<valuemin>0</valuemin>
								<valuemax>81</valuemax>
								<keyframe>
									<when>0</when>
									<value>0</value>
									<speedkfstart>TRUE</speedkfstart>
									<speedvirtualkf>TRUE</speedvirtualkf>
								</keyframe>
								<keyframe>
									<when>54</when>
									<value>13.5</value>
									<speedkfin>TRUE</speedkfin>
									<speedvirtualkf>TRUE</speedvirtualkf>
								</keyframe>
								<keyframe>
									<when>127</when>
									<value>31.75</value>
									<speedkfout>TRUE</speedkfout>
									<speedvirtualkf>TRUE</speedvirtualkf>
								</keyframe>
								<keyframe>
									<when>325</when>
									<value>82</value>
									<speedkfend>TRUE</speedkfend>
									<speedvirtualkf>TRUE</speedvirtualkf>
								</keyframe>
								<interpolation>
									<name>FCPCurve</name>
								</interpolation>
								<value>13.5</value>
							</parameter>
						</effect>
					</filter>
				</clipitem>
				<clipitem id="Cartoon Timpani.caf6">
					<name>Cartoon Timpani.caf</name>
					<duration>41</duration>
					<rate>
						<ntsc>FALSE</ntsc>
						<timebase>25</timebase>
					</rate>
					<in>0</in>
					<out>37</out>
					<start>27923</start>
					<end>27960</end>
					<subframeoffset>0</subframeoffset>
					<masterclipid>Cartoon Timpani.caf1</masterclipid>
					<logginginfo>
						<scene/>
						<shottake/>
						<lognote/>
						<good>FALSE</good>
					</logginginfo>
					<labels>
						<label2/>
					</labels>
					<comments>
						<mastercomment1/>
						<mastercomment2/>
						<mastercomment3/>
						<mastercomment4/>
					</comments>
					<file id="Cartoon Timpani"/>
					<filter>
						<effect>
							<name>Audio Levels</name>
							<effectid>audiolevels</effectid>
							<effectcategory>audiolevels</effectcategory>
							<effecttype>audiolevels</effecttype>
							<mediatype>audio</mediatype>
							<parameter>
								<name>Level</name>
								<parameterid>level</parameterid>
								<valuemin>0</valuemin>
								<valuemax>3.98109</valuemax>
								<value>1</value>
							</parameter>
						</effect>
					</filter>
					<filter>
						<effect>
							<name>Audio Pan</name>
							<effectid>audiopan</effectid>
							<effectcategory>audiopan</effectcategory>
							<effecttype>audiopan</effecttype>
							<mediatype>audio</mediatype>
							<parameter>
								<name>Pan</name>
								<parameterid>pan</parameterid>
								<valuemin>-1</valuemin>
								<valuemax>1</valuemax>
								<value>1</value>
							</parameter>
						</effect>
					</filter>
					<sourcetrack>
						<mediatype>audio</mediatype>
						<trackindex>2</trackindex>
					</sourcetrack>
					<link>
						<linkclipref>Cartoon Timpani.caf5</linkclipref>
						<mediatype>audio</mediatype>
						<trackindex>5</trackindex>
						<clipindex>35</clipindex>
						<groupindex>1</groupindex>
					</link>
					<link>
						<linkclipref>Cartoon Timpani.caf6</linkclipref>
						<mediatype>audio</mediatype>
						<trackindex>6</trackindex>
						<clipindex>31</clipindex>
						<groupindex>1</groupindex>
					</link>
					<itemhistory>
						<uuid>BF6EE8BB-FAD8-4C3E-8FEE-FB3ABFCAE7D7</uuid>
					</itemhistory>
				</clipitem>
				<clipitem id="SCD048720.wav12">
					<name>SCD048720.wav</name>
					<duration>2137</duration>
					<rate>
						<ntsc>FALSE</ntsc>
						<timebase>25</timebase>
					</rate>
					<in>0</in>
					<out>975</out>
					<start>29928</start>
					<end>30903</end>
					<subframeoffset>0</subframeoffset>
					<masterclipid>SCD048720.wav1</masterclipid>
					<logginginfo>
						<scene/>
						<shottake/>
						<lognote/>
						<good>FALSE</good>
					</logginginfo>
					<labels>
						<label2/>
					</labels>
					<comments>
						<mastercomment1>Swingende vispetakt</mastercomment1>
						<mastercomment2/>
						<mastercomment3/>
						<mastercomment4/>
					</comments>
					<file id="SCD048720 "/>
					<filter>
						<effect>
							<name>Audio Levels</name>
							<effectid>audiolevels</effectid>
							<effectcategory>audiolevels</effectcategory>
							<effecttype>audiolevels</effecttype>
							<mediatype>audio</mediatype>
							<parameter>
								<name>Level</name>
								<parameterid>level</parameterid>
								<valuemin>0</valuemin>
								<valuemax>3.98109</valuemax>
								<keyframe>
									<when>724.429</when>
									<value>0.141254</value>
								</keyframe>
								<keyframe>
									<when>809</when>
									<value>0</value>
								</keyframe>
								<interpolation>
									<name>FCPCurve</name>
								</interpolation>
								<value>0.141254</value>
							</parameter>
						</effect>
					</filter>
					<filter>
						<effect>
							<name>Audio Pan</name>
							<effectid>audiopan</effectid>
							<effectcategory>audiopan</effectcategory>
							<effecttype>audiopan</effecttype>
							<mediatype>audio</mediatype>
							<parameter>
								<name>Pan</name>
								<parameterid>pan</parameterid>
								<valuemin>-1</valuemin>
								<valuemax>1</valuemax>
								<value>1</value>
							</parameter>
						</effect>
					</filter>
					<sourcetrack>
						<mediatype>audio</mediatype>
						<trackindex>2</trackindex>
					</sourcetrack>
					<link>
						<linkclipref>SCD048720.wav11</linkclipref>
						<mediatype>audio</mediatype>
						<trackindex>5</trackindex>
						<clipindex>36</clipindex>
						<groupindex>1</groupindex>
					</link>
					<link>
						<linkclipref>SCD048720.wav12</linkclipref>
						<mediatype>audio</mediatype>
						<trackindex>6</trackindex>
						<clipindex>32</clipindex>
						<groupindex>1</groupindex>
					</link>
					<itemhistory>
						<uuid>B25EE2E2-5CCB-4B78-A9DE-B235FF68BED9</uuid>
					</itemhistory>
				</clipitem>
				<enabled>TRUE</enabled>
				<locked>FALSE</locked>
				<outputchannelindex>2</outputchannelindex>
			</track>
			<track>
				<clipitem id="SPACEWHOO…HOOSHBYSI60404904.WAV">
					<name>SPACEWHOO…HOOSHBYSI60404904.WAV</name>
					<duration>127</duration>
					<rate>
						<ntsc>FALSE</ntsc>
						<timebase>25</timebase>
					</rate>
					<in>13</in>
					<out>53</out>
					<start>1570</start>
					<end>1610</end>
					<subframeoffset>0</subframeoffset>
					<masterclipid>SPACEWHOO…HOOSHBYSI60404904.WAV1</masterclipid>
					<logginginfo>
						<scene/>
						<shottake/>
						<lognote/>
						<good>FALSE</good>
					</logginginfo>
					<labels>
						<label2/>
					</labels>
					<comments>
						<mastercomment1/>
						<mastercomment2/>
						<mastercomment3/>
						<mastercomment4/>
					</comments>
					<file id="SPACEWHOO…HOOSHBYSI60404904 ">
						<name>SPACEWHOO…HOOSHBYSI60404904.WAV</name>
						<pathurl>file://localhost/Volumes/Askepott/Prosjekter/DNPR630011_Dyrevenn_sesong_6_IVS_010612/Lydeffekter/Svosj/SPACEWHOO%E2%80%A6HOOSHBYSI60404904.WAV</pathurl>
						<rate>
							<timebase>25</timebase>
						</rate>
						<duration>127</duration>
						<timecode>
							<rate>
								<timebase>25</timebase>
							</rate>
							<string>00:00:00:00</string>
							<frame>0</frame>
							<displayformat>NDF</displayformat>
							<source>source</source>
						</timecode>
						<media>
							<audio>
								<samplecharacteristics>
									<samplerate>44100</samplerate>
									<depth>16</depth>
								</samplecharacteristics>
								<channelcount>2</channelcount>
							</audio>
						</media>
					</file>
					<filter>
						<effect>
							<name>Audio Levels</name>
							<effectid>audiolevels</effectid>
							<effectcategory>audiolevels</effectcategory>
							<effecttype>audiolevels</effecttype>
							<mediatype>audio</mediatype>
							<parameter>
								<name>Level</name>
								<parameterid>level</parameterid>
								<valuemin>0</valuemin>
								<valuemax>3.98109</valuemax>
								<value>0.354813</value>
							</parameter>
						</effect>
					</filter>
					<filter>
						<effect>
							<name>Audio Pan</name>
							<effectid>audiopan</effectid>
							<effectcategory>audiopan</effectcategory>
							<effecttype>audiopan</effecttype>
							<mediatype>audio</mediatype>
							<parameter>
								<name>Pan</name>
								<parameterid>pan</parameterid>
								<valuemin>-1</valuemin>
								<valuemax>1</valuemax>
								<value>-1</value>
							</parameter>
						</effect>
					</filter>
					<sourcetrack>
						<mediatype>audio</mediatype>
						<trackindex>1</trackindex>
					</sourcetrack>
					<link>
						<linkclipref>SPACEWHOO…HOOSHBYSI60404904.WAV</linkclipref>
						<mediatype>audio</mediatype>
						<trackindex>7</trackindex>
						<clipindex>1</clipindex>
						<groupindex>1</groupindex>
					</link>
					<link>
						<linkclipref>SPACEWHOO…HOOSHBYSI60404904.WAV2</linkclipref>
						<mediatype>audio</mediatype>
						<trackindex>8</trackindex>
						<clipindex>1</clipindex>
						<groupindex>1</groupindex>
					</link>
					<itemhistory>
						<uuid>58BF7E81-2C97-4443-B909-A1D997D990A5</uuid>
					</itemhistory>
				</clipitem>
				<clipitem id="SCD062743 ">
					<name>SCD062743</name>
					<duration>2282</duration>
					<rate>
						<ntsc>FALSE</ntsc>
						<timebase>25</timebase>
					</rate>
					<in>0</in>
					<out>2282</out>
					<start>6021</start>
					<end>8303</end>
					<masterclipid>SCD062743 1</masterclipid>
					<logginginfo>
						<scene/>
						<shottake/>
						<lognote/>
						<good>FALSE</good>
					</logginginfo>
					<labels>
						<label2/>
					</labels>
					<comments>
						<mastercomment1/>
						<mastercomment2/>
						<mastercomment3/>
						<mastercomment4/>
					</comments>
					<file id="SCD062743 2">
						<name>SCD062743.wav</name>
						<pathurl>file://localhost/Volumes/Askepott/Prosjekter/DNPR637010_Kra%CC%8Akeklubben_TEM_011212/MUSIKK/NATURLEK/trollskog/SCD062743.wav</pathurl>
						<rate>
							<timebase>25</timebase>
						</rate>
						<duration>2282</duration>
						<media>
							<audio>
								<samplecharacteristics>
									<samplerate>48000</samplerate>
									<depth>16</depth>
								</samplecharacteristics>
								<channelcount>2</channelcount>
							</audio>
						</media>
					</file>
					<filter>
						<effect>
							<name>Audio Levels</name>
							<effectid>audiolevels</effectid>
							<effectcategory>audiolevels</effectcategory>
							<effecttype>audiolevels</effecttype>
							<mediatype>audio</mediatype>
							<parameter>
								<name>Level</name>
								<parameterid>level</parameterid>
								<valuemin>0</valuemin>
								<valuemax>3.98109</valuemax>
								<keyframe>
									<when>1827</when>
									<value>0.141254</value>
								</keyframe>
								<keyframe>
									<when>2145.86</when>
									<value>0</value>
								</keyframe>
								<interpolation>
									<name>FCPCurve</name>
								</interpolation>
								<value>0.141254</value>
							</parameter>
						</effect>
					</filter>
					<filter>
						<effect>
							<name>Audio Pan</name>
							<effectid>audiopan</effectid>
							<effectcategory>audiopan</effectcategory>
							<effecttype>audiopan</effecttype>
							<mediatype>audio</mediatype>
							<parameter>
								<name>Pan</name>
								<parameterid>pan</parameterid>
								<valuemin>-1</valuemin>
								<valuemax>1</valuemax>
								<value>-1</value>
							</parameter>
						</effect>
					</filter>
					<sourcetrack>
						<mediatype>audio</mediatype>
						<trackindex>1</trackindex>
					</sourcetrack>
					<link>
						<linkclipref>SCD062743 </linkclipref>
						<mediatype>audio</mediatype>
						<trackindex>7</trackindex>
						<clipindex>2</clipindex>
						<groupindex>1</groupindex>
					</link>
					<link>
						<linkclipref>SCD062743 3</linkclipref>
						<mediatype>audio</mediatype>
						<trackindex>8</trackindex>
						<clipindex>2</clipindex>
						<groupindex>1</groupindex>
					</link>
					<itemhistory>
						<uuid>F7981806-E568-4CCB-BDFD-BB5326CF28FD</uuid>
					</itemhistory>
				</clipitem>
				<clipitem id="SCD081514 ">
					<name>SCD081514</name>
					<duration>4081</duration>
					<rate>
						<ntsc>FALSE</ntsc>
						<timebase>25</timebase>
					</rate>
					<in>0</in>
					<out>1080</out>
					<start>8303</start>
					<end>-1</end>
					<masterclipid>SCD081514 1</masterclipid>
					<logginginfo>
						<scene/>
						<shottake/>
						<lognote/>
						<good>FALSE</good>
					</logginginfo>
					<labels>
						<label2/>
					</labels>
					<comments>
						<mastercomment1/>
						<mastercomment2/>
						<mastercomment3/>
						<mastercomment4/>
					</comments>
					<file id="SCD081514 2">
						<name>SCD081514.wav</name>
						<pathurl>file://localhost/Volumes/Askepott/Prosjekter/DNPR637010_Kra%CC%8Akeklubben_TEM_011212/MUSIKK/NATURLEK/trollskog/SCD081514.wav</pathurl>
						<rate>
							<timebase>25</timebase>
						</rate>
						<duration>4081</duration>
						<timecode>
							<rate>
								<timebase>25</timebase>
							</rate>
							<string>00:35:28:14</string>
							<frame>53214</frame>
							<displayformat>NDF</displayformat>
							<source>source</source>
						</timecode>
						<media>
							<audio>
								<samplecharacteristics>
									<samplerate>48000</samplerate>
									<depth>16</depth>
								</samplecharacteristics>
								<channelcount>2</channelcount>
							</audio>
						</media>
					</file>
					<filter>
						<effect>
							<name>Audio Levels</name>
							<effectid>audiolevels</effectid>
							<effectcategory>audiolevels</effectcategory>
							<effecttype>audiolevels</effecttype>
							<mediatype>audio</mediatype>
							<parameter>
								<name>Level</name>
								<parameterid>level</parameterid>
								<valuemin>0</valuemin>
								<valuemax>3.98109</valuemax>
								<keyframe>
									<when>859.25</when>
									<value>0.158489</value>
								</keyframe>
								<keyframe>
									<when>1024.25</when>
									<value>0.0891251</value>
								</keyframe>
								<interpolation>
									<name>FCPCurve</name>
								</interpolation>
								<value>0.158489</value>
							</parameter>
						</effect>
					</filter>
					<filter>
						<effect>
							<name>Audio Pan</name>
							<effectid>audiopan</effectid>
							<effectcategory>audiopan</effectcategory>
							<effecttype>audiopan</effecttype>
							<mediatype>audio</mediatype>
							<parameter>
								<name>Pan</name>
								<parameterid>pan</parameterid>
								<valuemin>-1</valuemin>
								<valuemax>1</valuemax>
								<value>-1</value>
							</parameter>
						</effect>
					</filter>
					<sourcetrack>
						<mediatype>audio</mediatype>
						<trackindex>1</trackindex>
					</sourcetrack>
					<link>
						<linkclipref>SCD081514 </linkclipref>
						<mediatype>audio</mediatype>
						<trackindex>7</trackindex>
						<clipindex>3</clipindex>
						<groupindex>1</groupindex>
					</link>
					<link>
						<linkclipref>SCD081514 3</linkclipref>
						<mediatype>audio</mediatype>
						<trackindex>8</trackindex>
						<clipindex>3</clipindex>
						<groupindex>1</groupindex>
					</link>
					<itemhistory>
						<uuid>E2CD79C3-B297-423C-9773-5A803564B8C7</uuid>
					</itemhistory>
				</clipitem>
				<transitionitem>
					<rate>
						<ntsc>FALSE</ntsc>
						<timebase>25</timebase>
					</rate>
					<start>9357</start>
					<end>9383</end>
					<alignment>center</alignment>
					<effect>
						<name>Cross Fade (+3dB) Copy</name>
						<effectid>KGAudioTransCrossFade3dB</effectid>
						<effecttype>transition</effecttype>
						<mediatype>audio</mediatype>
					</effect>
				</transitionitem>
				<clipitem id="SCD081514 4">
					<name>SCD081514</name>
					<duration>4081</duration>
					<rate>
						<ntsc>FALSE</ntsc>
						<timebase>25</timebase>
					</rate>
					<in>3912</in>
					<out>4065</out>
					<start>-1</start>
					<end>9510</end>
					<subframeoffset>0</subframeoffset>
					<masterclipid>SCD081514 1</masterclipid>
					<logginginfo>
						<scene/>
						<shottake/>
						<lognote/>
						<good>FALSE</good>
					</logginginfo>
					<labels>
						<label2/>
					</labels>
					<comments>
						<mastercomment1/>
						<mastercomment2/>
						<mastercomment3/>
						<mastercomment4/>
					</comments>
					<file id="SCD081514 2"/>
					<filter>
						<effect>
							<name>Audio Levels</name>
							<effectid>audiolevels</effectid>
							<effectcategory>audiolevels</effectcategory>
							<effecttype>audiolevels</effecttype>
							<mediatype>audio</mediatype>
							<parameter>
								<name>Level</name>
								<parameterid>level</parameterid>
								<valuemin>0</valuemin>
								<valuemax>3.98109</valuemax>
								<value>0.281838</value>
							</parameter>
						</effect>
					</filter>
					<filter>
						<effect>
							<name>Audio Pan</name>
							<effectid>audiopan</effectid>
							<effectcategory>audiopan</effectcategory>
							<effecttype>audiopan</effecttype>
							<mediatype>audio</mediatype>
							<parameter>
								<name>Pan</name>
								<parameterid>pan</parameterid>
								<valuemin>-1</valuemin>
								<valuemax>1</valuemax>
								<value>-1</value>
							</parameter>
						</effect>
					</filter>
					<sourcetrack>
						<mediatype>audio</mediatype>
						<trackindex>1</trackindex>
					</sourcetrack>
					<link>
						<linkclipref>SCD081514 4</linkclipref>
						<mediatype>audio</mediatype>
						<trackindex>7</trackindex>
						<clipindex>5</clipindex>
						<groupindex>1</groupindex>
					</link>
					<link>
						<linkclipref>SCD081514 5</linkclipref>
						<mediatype>audio</mediatype>
						<trackindex>8</trackindex>
						<clipindex>5</clipindex>
						<groupindex>1</groupindex>
					</link>
					<itemhistory>
						<uuid>79546839-4560-463E-984A-30AA490E12AC</uuid>
					</itemhistory>
				</clipitem>
				<clipitem id="SCD078019 ">
					<name>SCD078019</name>
					<duration>3133</duration>
					<rate>
						<ntsc>FALSE</ntsc>
						<timebase>25</timebase>
					</rate>
					<in>0</in>
					<out>513</out>
					<start>10270</start>
					<end>-1</end>
					<masterclipid>SCD078019 1</masterclipid>
					<logginginfo>
						<scene/>
						<shottake/>
						<lognote/>
						<good>FALSE</good>
					</logginginfo>
					<labels>
						<label2/>
					</labels>
					<comments>
						<mastercomment1/>
						<mastercomment2/>
						<mastercomment3/>
						<mastercomment4/>
					</comments>
					<file id="SCD078019 2">
						<name>SCD078019.wav</name>
						<pathurl>file://localhost/Volumes/Askepott/Prosjekter/DNPR637010_Kra%CC%8Akeklubben_TEM_011212/MUSIKK/Underlag/SCD078019.wav</pathurl>
						<rate>
							<timebase>25</timebase>
						</rate>
						<duration>3133</duration>
						<timecode>
							<rate>
								<timebase>25</timebase>
							</rate>
							<string>00:45:04:15</string>
							<frame>67615</frame>
							<displayformat>NDF</displayformat>
							<source>source</source>
						</timecode>
						<media>
							<audio>
								<samplecharacteristics>
									<samplerate>48000</samplerate>
									<depth>16</depth>
								</samplecharacteristics>
								<channelcount>2</channelcount>
							</audio>
						</media>
					</file>
					<filter>
						<effect>
							<name>Audio Levels</name>
							<effectid>audiolevels</effectid>
							<effectcategory>audiolevels</effectcategory>
							<effecttype>audiolevels</effecttype>
							<mediatype>audio</mediatype>
							<parameter>
								<name>Level</name>
								<parameterid>level</parameterid>
								<valuemin>0</valuemin>
								<valuemax>3.98109</valuemax>
								<keyframe>
									<when>63.25</when>
									<value>0.199526</value>
								</keyframe>
								<interpolation>
									<name>FCPCurve</name>
								</interpolation>
								<value>0.199526</value>
							</parameter>
						</effect>
					</filter>
					<filter>
						<effect>
							<name>Audio Pan</name>
							<effectid>audiopan</effectid>
							<effectcategory>audiopan</effectcategory>
							<effecttype>audiopan</effecttype>
							<mediatype>audio</mediatype>
							<parameter>
								<name>Pan</name>
								<parameterid>pan</parameterid>
								<valuemin>-1</valuemin>
								<valuemax>1</valuemax>
								<value>-1</value>
							</parameter>
						</effect>
					</filter>
					<sourcetrack>
						<mediatype>audio</mediatype>
						<trackindex>1</trackindex>
					</sourcetrack>
					<link>
						<linkclipref>SCD078019 </linkclipref>
						<mediatype>audio</mediatype>
						<trackindex>7</trackindex>
						<clipindex>6</clipindex>
						<groupindex>1</groupindex>
					</link>
					<link>
						<linkclipref>SCD078019 3</linkclipref>
						<mediatype>audio</mediatype>
						<trackindex>8</trackindex>
						<clipindex>6</clipindex>
						<groupindex>1</groupindex>
					</link>
					<itemhistory>
						<uuid>D37E8481-E055-4C8B-AAEA-0AC47C84C96D</uuid>
					</itemhistory>
				</clipitem>
				<transitionitem>
					<rate>
						<ntsc>FALSE</ntsc>
						<timebase>25</timebase>
					</rate>
					<start>10726</start>
					<end>10783</end>
					<alignment>center</alignment>
					<effect>
						<name>Cross Fade (+3dB)</name>
						<effectid>KGAudioTransCrossFade3dB</effectid>
						<effecttype>transition</effecttype>
						<mediatype>audio</mediatype>
					</effect>
				</transitionitem>
				<clipitem id="SCD078019 4">
					<name>SCD078019</name>
					<duration>3133</duration>
					<rate>
						<ntsc>FALSE</ntsc>
						<timebase>25</timebase>
					</rate>
					<in>2208</in>
					<out>3133</out>
					<start>-1</start>
					<end>11651</end>
					<subframeoffset>0</subframeoffset>
					<masterclipid>SCD078019 1</masterclipid>
					<logginginfo>
						<scene/>
						<shottake/>
						<lognote/>
						<good>FALSE</good>
					</logginginfo>
					<labels>
						<label2/>
					</labels>
					<comments>
						<mastercomment1/>
						<mastercomment2/>
						<mastercomment3/>
						<mastercomment4/>
					</comments>
					<file id="SCD078019 2"/>
					<filter>
						<effect>
							<name>Audio Levels</name>
							<effectid>audiolevels</effectid>
							<effectcategory>audiolevels</effectcategory>
							<effecttype>audiolevels</effecttype>
							<mediatype>audio</mediatype>
							<parameter>
								<name>Level</name>
								<parameterid>level</parameterid>
								<valuemin>0</valuemin>
								<valuemax>3.98109</valuemax>
								<value>0.199526</value>
							</parameter>
						</effect>
					</filter>
					<filter>
						<effect>
							<name>Audio Pan</name>
							<effectid>audiopan</effectid>
							<effectcategory>audiopan</effectcategory>
							<effecttype>audiopan</effecttype>
							<mediatype>audio</mediatype>
							<parameter>
								<name>Pan</name>
								<parameterid>pan</parameterid>
								<valuemin>-1</valuemin>
								<valuemax>1</valuemax>
								<value>-0.99</value>
							</parameter>
						</effect>
					</filter>
					<sourcetrack>
						<mediatype>audio</mediatype>
						<trackindex>1</trackindex>
					</sourcetrack>
					<link>
						<linkclipref>SCD078019 4</linkclipref>
						<mediatype>audio</mediatype>
						<trackindex>7</trackindex>
						<clipindex>8</clipindex>
						<groupindex>1</groupindex>
					</link>
					<link>
						<linkclipref>SCD078019 5</linkclipref>
						<mediatype>audio</mediatype>
						<trackindex>8</trackindex>
						<clipindex>8</clipindex>
						<groupindex>1</groupindex>
					</link>
					<itemhistory>
						<uuid>FAD64816-BF93-476E-9AB1-8803175DD076</uuid>
					</itemhistory>
				</clipitem>
				<clipitem id="WHOOSHLARG…WHOOSHBYFS105004 12">
					<name>WHOOSHLARG…WHOOSHBYFS105004</name>
					<duration>811</duration>
					<rate>
						<ntsc>FALSE</ntsc>
						<timebase>25</timebase>
					</rate>
					<in>104</in>
					<out>264</out>
					<start>12218</start>
					<end>-1</end>
					<enabled>TRUE</enabled>
					<masterclipid>WHOOSHLARG…WHOOSHBYFS105004 1</masterclipid>
					<logginginfo>
						<scene/>
						<shottake/>
						<lognote/>
						<good>FALSE</good>
					</logginginfo>
					<labels>
						<label2/>
					</labels>
					<comments>
						<mastercomment1/>
						<mastercomment2/>
						<mastercomment3/>
						<mastercomment4/>
					</comments>
					<file id="WHOOSHLARG…WHOOSHBYFS105004 2"/>
					<filter>
						<effect>
							<name>Audio Levels</name>
							<effectid>audiolevels</effectid>
							<effectcategory>audiolevels</effectcategory>
							<effecttype>audiolevels</effecttype>
							<mediatype>audio</mediatype>
							<parameter>
								<name>Level</name>
								<parameterid>level</parameterid>
								<valuemin>0</valuemin>
								<valuemax>3.98109</valuemax>
								<keyframe>
									<when>163.571</when>
									<value>0.707946</value>
								</keyframe>
								<keyframe>
									<when>208.143</when>
									<value>0.354813</value>
								</keyframe>
								<keyframe>
									<when>245.286</when>
									<value>0.707946</value>
								</keyframe>
								<interpolation>
									<name>FCPCurve</name>
								</interpolation>
								<value>0.630957</value>
							</parameter>
						</effect>
					</filter>
					<filter>
						<effect>
							<name>Audio Pan</name>
							<effectid>audiopan</effectid>
							<effectcategory>audiopan</effectcategory>
							<effecttype>audiopan</effecttype>
							<mediatype>audio</mediatype>
							<parameter>
								<name>Pan</name>
								<parameterid>pan</parameterid>
								<valuemin>-1</valuemin>
								<valuemax>1</valuemax>
								<value>-1</value>
							</parameter>
						</effect>
					</filter>
					<sourcetrack>
						<mediatype>audio</mediatype>
						<trackindex>1</trackindex>
					</sourcetrack>
					<link>
						<linkclipref>WHOOSHLARG…WHOOSHBYFS105004 12</linkclipref>
						<mediatype>audio</mediatype>
						<trackindex>7</trackindex>
						<clipindex>9</clipindex>
						<groupindex>1</groupindex>
					</link>
					<link>
						<linkclipref>WHOOSHLARG…WHOOSHBYFS105004 13</linkclipref>
						<mediatype>audio</mediatype>
						<trackindex>8</trackindex>
						<clipindex>9</clipindex>
						<groupindex>1</groupindex>
					</link>
					<itemhistory>
						<uuid>D55F0126-C25B-4D6B-8887-54602C637A11</uuid>
					</itemhistory>
					<filter>
						<effect>
							<name>Time Remap</name>
							<effectid>timeremap</effectid>
							<effectcategory>motion</effectcategory>
							<effecttype>motion</effecttype>
							<mediatype>audio</mediatype>
							<parameter>
								<parameterid>variablespeed</parameterid>
								<name>variablespeed</name>
								<valuemin>0</valuemin>
								<valuemax>1</valuemax>
								<value>0</value>
							</parameter>
							<parameter>
								<parameterid>mappedduration</parameterid>
								<name>mappedduration</name>
								<value>
									<timecode>
										<rate>
											<timebase>0</timebase>
										</rate>
										<string>0</string>
										<frame>0</frame>
										<displayformat>NDF</displayformat>
									</timecode>
								</value>
							</parameter>
							<parameter>
								<parameterid>speed</parameterid>
								<name>speed</name>
								<valuemin>-10000</valuemin>
								<valuemax>10000</valuemax>
								<value>10</value>
							</parameter>
							<parameter>
								<parameterid>reverse</parameterid>
								<name>reverse</name>
								<value>FALSE</value>
							</parameter>
							<parameter>
								<parameterid>frameblending</parameterid>
								<name>frameblending</name>
								<value>TRUE</value>
							</parameter>
							<parameter>
								<parameterid>graphdict</parameterid>
								<name>graphdict</name>
								<valuemin>0</valuemin>
								<valuemax>81</valuemax>
								<keyframe>
									<when>0</when>
									<value>0.0499</value>
									<speedkfstart>TRUE</speedkfstart>
									<speedvirtualkf>TRUE</speedvirtualkf>
									<anchorOffset>0.0499</anchorOffset>
								</keyframe>
								<keyframe>
									<when>104</when>
									<value>10.4499</value>
									<speedkfin>TRUE</speedkfin>
									<speedvirtualkf>TRUE</speedvirtualkf>
								</keyframe>
								<keyframe>
									<when>264</when>
									<value>26.4499</value>
									<speedkfout>TRUE</speedkfout>
									<speedvirtualkf>TRUE</speedvirtualkf>
								</keyframe>
								<keyframe>
									<when>811</when>
									<value>82.0499</value>
									<speedkfend>TRUE</speedkfend>
									<speedvirtualkf>TRUE</speedvirtualkf>
								</keyframe>
								<interpolation>
									<name>FCPCurve</name>
								</interpolation>
								<value>10.4499</value>
							</parameter>
						</effect>
					</filter>
				</clipitem>
				<transitionitem>
					<rate>
						<ntsc>FALSE</ntsc>
						<timebase>25</timebase>
					</rate>
					<start>12353</start>
					<end>12378</end>
					<alignment>center</alignment>
					<effect>
						<name>Cross Fade (+3dB)</name>
						<effectid>KGAudioTransCrossFade3dB</effectid>
						<effecttype>transition</effecttype>
						<mediatype>audio</mediatype>
					</effect>
				</transitionitem>
				<clipitem id="WHOOSHLARG…WHOOSHBYFS105302.WAV21">
					<name>WHOOSHLARG…WHOOSHBYFS105302.WAV</name>
					<duration>261</duration>
					<rate>
						<ntsc>FALSE</ntsc>
						<timebase>25</timebase>
					</rate>
					<in>0</in>
					<out>104</out>
					<start>-1</start>
					<end>12457</end>
					<subframeoffset>0</subframeoffset>
					<masterclipid>WHOOSHLARG…WHOOSHBYFS105302.WAV1</masterclipid>
					<logginginfo>
						<scene/>
						<shottake/>
						<lognote/>
						<good>FALSE</good>
					</logginginfo>
					<labels>
						<label2/>
					</labels>
					<comments>
						<mastercomment1/>
						<mastercomment2/>
						<mastercomment3/>
						<mastercomment4/>
					</comments>
					<file id="WHOOSHLARG…WHOOSHBYFS105302 "/>
					<filter>
						<effect>
							<name>Audio Levels</name>
							<effectid>audiolevels</effectid>
							<effectcategory>audiolevels</effectcategory>
							<effecttype>audiolevels</effecttype>
							<mediatype>audio</mediatype>
							<parameter>
								<name>Level</name>
								<parameterid>level</parameterid>
								<valuemin>0</valuemin>
								<valuemax>3.98109</valuemax>
								<value>0.398107</value>
							</parameter>
						</effect>
					</filter>
					<filter>
						<effect>
							<name>Audio Pan</name>
							<effectid>audiopan</effectid>
							<effectcategory>audiopan</effectcategory>
							<effecttype>audiopan</effecttype>
							<mediatype>audio</mediatype>
							<parameter>
								<name>Pan</name>
								<parameterid>pan</parameterid>
								<valuemin>-1</valuemin>
								<valuemax>1</valuemax>
								<value>-1</value>
							</parameter>
						</effect>
					</filter>
					<sourcetrack>
						<mediatype>audio</mediatype>
						<trackindex>1</trackindex>
					</sourcetrack>
					<link>
						<linkclipref>WHOOSHLARG…WHOOSHBYFS105302.WAV21</linkclipref>
						<mediatype>audio</mediatype>
						<trackindex>7</trackindex>
						<clipindex>11</clipindex>
						<groupindex>1</groupindex>
					</link>
					<link>
						<linkclipref>WHOOSHLARG…WHOOSHBYFS105302.WAV22</linkclipref>
						<mediatype>audio</mediatype>
						<trackindex>8</trackindex>
						<clipindex>11</clipindex>
						<groupindex>1</groupindex>
					</link>
					<itemhistory>
						<uuid>18689C62-CE24-49F4-BBB7-AE0ADC0220BC</uuid>
						<uuid>305121D6-E389-40E5-9751-AC703C2E40FC</uuid>
					</itemhistory>
					<filter>
						<effect>
							<name>Time Remap</name>
							<effectid>timeremap</effectid>
							<effectcategory>motion</effectcategory>
							<effecttype>motion</effecttype>
							<mediatype>audio</mediatype>
							<parameter>
								<parameterid>variablespeed</parameterid>
								<name>variablespeed</name>
								<valuemin>0</valuemin>
								<valuemax>1</valuemax>
								<value>0</value>
							</parameter>
							<parameter>
								<parameterid>mappedduration</parameterid>
								<name>mappedduration</name>
								<value>
									<timecode>
										<rate>
											<timebase>0</timebase>
										</rate>
										<string>0</string>
										<frame>0</frame>
										<displayformat>NDF</displayformat>
									</timecode>
								</value>
							</parameter>
							<parameter>
								<parameterid>speed</parameterid>
								<name>speed</name>
								<valuemin>-10000</valuemin>
								<valuemax>10000</valuemax>
								<value>34</value>
							</parameter>
							<parameter>
								<parameterid>reverse</parameterid>
								<name>reverse</name>
								<value>FALSE</value>
							</parameter>
							<parameter>
								<parameterid>frameblending</parameterid>
								<name>frameblending</name>
								<value>TRUE</value>
							</parameter>
							<parameter>
								<parameterid>graphdict</parameterid>
								<name>graphdict</name>
								<valuemin>0</valuemin>
								<valuemax>91</valuemax>
								<keyframe>
									<when>0</when>
									<value>0.0497</value>
									<speedkfin>TRUE</speedkfin>
									<anchorOffset>0.0497</anchorOffset>
								</keyframe>
								<keyframe>
									<when>104</when>
									<value>36.4497</value>
									<speedkfout>TRUE</speedkfout>
									<speedvirtualkf>TRUE</speedvirtualkf>
								</keyframe>
								<keyframe>
									<when>261</when>
									<value>92.0497</value>
									<speedkfend>TRUE</speedkfend>
									<speedvirtualkf>TRUE</speedvirtualkf>
								</keyframe>
								<interpolation>
									<name>FCPCurve</name>
								</interpolation>
								<value>0.0497</value>
							</parameter>
						</effect>
					</filter>
				</clipitem>
				<clipitem id="SCD076819.wav">
					<name>SCD076819.wav</name>
					<duration>3293</duration>
					<rate>
						<ntsc>FALSE</ntsc>
						<timebase>25</timebase>
					</rate>
					<in>0</in>
					<out>1043</out>
					<start>20741</start>
					<end>21784</end>
					<subframeoffset>0</subframeoffset>
					<masterclipid>SCD076819.wav1</masterclipid>
					<logginginfo>
						<scene/>
						<shottake/>
						<lognote/>
						<good>FALSE</good>
					</logginginfo>
					<labels>
						<label2/>
					</labels>
					<comments>
						<mastercomment1>Bass og trekkspill</mastercomment1>
						<mastercomment2/>
						<mastercomment3/>
						<mastercomment4/>
					</comments>
					<file id="SCD076819 ">
						<name>SCD076819.wav</name>
						<pathurl>file://localhost/Volumes/Askepott/Prosjekter/DNPR637010_Kra%CC%8Akeklubben_TEM_011212/MUSIKK/NATURLEK/Kongledyr/SCD076819.wav</pathurl>
						<rate>
							<timebase>25</timebase>
						</rate>
						<duration>3293</duration>
						<media>
							<audio>
								<samplecharacteristics>
									<samplerate>48000</samplerate>
									<depth>16</depth>
								</samplecharacteristics>
								<channelcount>2</channelcount>
							</audio>
						</media>
					</file>
					<filter>
						<effect>
							<name>Audio Levels</name>
							<effectid>audiolevels</effectid>
							<effectcategory>audiolevels</effectcategory>
							<effecttype>audiolevels</effecttype>
							<mediatype>audio</mediatype>
							<parameter>
								<name>Level</name>
								<parameterid>level</parameterid>
								<valuemin>0</valuemin>
								<valuemax>3.98109</valuemax>
								<keyframe>
									<when>551.143</when>
									<value>0.158489</value>
								</keyframe>
								<keyframe>
									<when>651.714</when>
									<value>1</value>
								</keyframe>
								<keyframe>
									<when>873.429</when>
									<value>1</value>
								</keyframe>
								<keyframe>
									<when>943.143</when>
									<value>0.0630957</value>
								</keyframe>
								<interpolation>
									<name>FCPCurve</name>
								</interpolation>
								<value>0.398107</value>
							</parameter>
						</effect>
					</filter>
					<filter>
						<effect>
							<name>Audio Pan</name>
							<effectid>audiopan</effectid>
							<effectcategory>audiopan</effectcategory>
							<effecttype>audiopan</effecttype>
							<mediatype>audio</mediatype>
							<parameter>
								<name>Pan</name>
								<parameterid>pan</parameterid>
								<valuemin>-1</valuemin>
								<valuemax>1</valuemax>
								<value>-1</value>
							</parameter>
						</effect>
					</filter>
					<sourcetrack>
						<mediatype>audio</mediatype>
						<trackindex>1</trackindex>
					</sourcetrack>
					<link>
						<linkclipref>SCD076819.wav</linkclipref>
						<mediatype>audio</mediatype>
						<trackindex>7</trackindex>
						<clipindex>12</clipindex>
						<groupindex>1</groupindex>
					</link>
					<link>
						<linkclipref>SCD076819.wav2</linkclipref>
						<mediatype>audio</mediatype>
						<trackindex>8</trackindex>
						<clipindex>12</clipindex>
						<groupindex>1</groupindex>
					</link>
					<itemhistory>
						<uuid>7A5A5AB4-6BDB-448E-954C-CAD8F985CCC1</uuid>
					</itemhistory>
				</clipitem>
				<clipitem id="SCD076819.wav3">
					<name>SCD076819.wav</name>
					<duration>3293</duration>
					<rate>
						<ntsc>FALSE</ntsc>
						<timebase>25</timebase>
					</rate>
					<in>1188</in>
					<out>3293</out>
					<start>21806</start>
					<end>23911</end>
					<subframeoffset>0</subframeoffset>
					<masterclipid>SCD076819.wav1</masterclipid>
					<logginginfo>
						<scene/>
						<shottake/>
						<lognote/>
						<good>FALSE</good>
					</logginginfo>
					<labels>
						<label2/>
					</labels>
					<comments>
						<mastercomment1>Bass og trekkspill</mastercomment1>
						<mastercomment2/>
						<mastercomment3/>
						<mastercomment4/>
					</comments>
					<file id="SCD076819 "/>
					<filter>
						<effect>
							<name>Audio Levels</name>
							<effectid>audiolevels</effectid>
							<effectcategory>audiolevels</effectcategory>
							<effecttype>audiolevels</effecttype>
							<mediatype>audio</mediatype>
							<parameter>
								<name>Level</name>
								<parameterid>level</parameterid>
								<valuemin>0</valuemin>
								<valuemax>3.98109</valuemax>
								<keyframe>
									<when>551.143</when>
									<value>0.158489</value>
								</keyframe>
								<keyframe>
									<when>651.714</when>
									<value>1</value>
								</keyframe>
								<keyframe>
									<when>873.429</when>
									<value>1</value>
								</keyframe>
								<keyframe>
									<when>943.143</when>
									<value>0.0630957</value>
								</keyframe>
								<keyframe>
									<when>2902.43</when>
									<value>0.0630957</value>
								</keyframe>
								<keyframe>
									<when>3100.43</when>
									<value>0.0251189</value>
								</keyframe>
								<interpolation>
									<name>FCPCurve</name>
								</interpolation>
								<value>0.398107</value>
							</parameter>
						</effect>
					</filter>
					<filter>
						<effect>
							<name>Audio Pan</name>
							<effectid>audiopan</effectid>
							<effectcategory>audiopan</effectcategory>
							<effecttype>audiopan</effecttype>
							<mediatype>audio</mediatype>
							<parameter>
								<name>Pan</name>
								<parameterid>pan</parameterid>
								<valuemin>-1</valuemin>
								<valuemax>1</valuemax>
								<value>-1</value>
							</parameter>
						</effect>
					</filter>
					<sourcetrack>
						<mediatype>audio</mediatype>
						<trackindex>1</trackindex>
					</sourcetrack>
					<link>
						<linkclipref>SCD076819.wav3</linkclipref>
						<mediatype>audio</mediatype>
						<trackindex>7</trackindex>
						<clipindex>13</clipindex>
						<groupindex>1</groupindex>
					</link>
					<link>
						<linkclipref>SCD076819.wav4</linkclipref>
						<mediatype>audio</mediatype>
						<trackindex>8</trackindex>
						<clipindex>13</clipindex>
						<groupindex>1</groupindex>
					</link>
					<itemhistory>
						<uuid>22740949-7790-4F7C-AB61-D07A9D516617</uuid>
					</itemhistory>
				</clipitem>
				<enabled>TRUE</enabled>
				<locked>FALSE</locked>
				<outputchannelindex>1</outputchannelindex>
			</track>
			<track>
				<clipitem id="SPACEWHOO…HOOSHBYSI60404904.WAV2">
					<name>SPACEWHOO…HOOSHBYSI60404904.WAV</name>
					<duration>127</duration>
					<rate>
						<ntsc>FALSE</ntsc>
						<timebase>25</timebase>
					</rate>
					<in>13</in>
					<out>53</out>
					<start>1570</start>
					<end>1610</end>
					<subframeoffset>0</subframeoffset>
					<masterclipid>SPACEWHOO…HOOSHBYSI60404904.WAV1</masterclipid>
					<logginginfo>
						<scene/>
						<shottake/>
						<lognote/>
						<good>FALSE</good>
					</logginginfo>
					<labels>
						<label2/>
					</labels>
					<comments>
						<mastercomment1/>
						<mastercomment2/>
						<mastercomment3/>
						<mastercomment4/>
					</comments>
					<file id="SPACEWHOO…HOOSHBYSI60404904 "/>
					<filter>
						<effect>
							<name>Audio Levels</name>
							<effectid>audiolevels</effectid>
							<effectcategory>audiolevels</effectcategory>
							<effecttype>audiolevels</effecttype>
							<mediatype>audio</mediatype>
							<parameter>
								<name>Level</name>
								<parameterid>level</parameterid>
								<valuemin>0</valuemin>
								<valuemax>3.98109</valuemax>
								<value>0.354813</value>
							</parameter>
						</effect>
					</filter>
					<filter>
						<effect>
							<name>Audio Pan</name>
							<effectid>audiopan</effectid>
							<effectcategory>audiopan</effectcategory>
							<effecttype>audiopan</effecttype>
							<mediatype>audio</mediatype>
							<parameter>
								<name>Pan</name>
								<parameterid>pan</parameterid>
								<valuemin>-1</valuemin>
								<valuemax>1</valuemax>
								<value>1</value>
							</parameter>
						</effect>
					</filter>
					<sourcetrack>
						<mediatype>audio</mediatype>
						<trackindex>2</trackindex>
					</sourcetrack>
					<link>
						<linkclipref>SPACEWHOO…HOOSHBYSI60404904.WAV</linkclipref>
						<mediatype>audio</mediatype>
						<trackindex>7</trackindex>
						<clipindex>1</clipindex>
						<groupindex>1</groupindex>
					</link>
					<link>
						<linkclipref>SPACEWHOO…HOOSHBYSI60404904.WAV2</linkclipref>
						<mediatype>audio</mediatype>
						<trackindex>8</trackindex>
						<clipindex>1</clipindex>
						<groupindex>1</groupindex>
					</link>
					<itemhistory>
						<uuid>FA8A246E-A52C-49AB-85C6-8AA4A34058F6</uuid>
					</itemhistory>
				</clipitem>
				<clipitem id="SCD062743 3">
					<name>SCD062743</name>
					<duration>2282</duration>
					<rate>
						<ntsc>FALSE</ntsc>
						<timebase>25</timebase>
					</rate>
					<in>0</in>
					<out>2282</out>
					<start>6021</start>
					<end>8303</end>
					<masterclipid>SCD062743 1</masterclipid>
					<logginginfo>
						<scene/>
						<shottake/>
						<lognote/>
						<good>FALSE</good>
					</logginginfo>
					<labels>
						<label2/>
					</labels>
					<comments>
						<mastercomment1/>
						<mastercomment2/>
						<mastercomment3/>
						<mastercomment4/>
					</comments>
					<file id="SCD062743 2"/>
					<filter>
						<effect>
							<name>Audio Levels</name>
							<effectid>audiolevels</effectid>
							<effectcategory>audiolevels</effectcategory>
							<effecttype>audiolevels</effecttype>
							<mediatype>audio</mediatype>
							<parameter>
								<name>Level</name>
								<parameterid>level</parameterid>
								<valuemin>0</valuemin>
								<valuemax>3.98109</valuemax>
								<keyframe>
									<when>1827</when>
									<value>0.141254</value>
								</keyframe>
								<keyframe>
									<when>2145.86</when>
									<value>0</value>
								</keyframe>
								<interpolation>
									<name>FCPCurve</name>
								</interpolation>
								<value>0.141254</value>
							</parameter>
						</effect>
					</filter>
					<filter>
						<effect>
							<name>Audio Pan</name>
							<effectid>audiopan</effectid>
							<effectcategory>audiopan</effectcategory>
							<effecttype>audiopan</effecttype>
							<mediatype>audio</mediatype>
							<parameter>
								<name>Pan</name>
								<parameterid>pan</parameterid>
								<valuemin>-1</valuemin>
								<valuemax>1</valuemax>
								<value>1</value>
							</parameter>
						</effect>
					</filter>
					<sourcetrack>
						<mediatype>audio</mediatype>
						<trackindex>2</trackindex>
					</sourcetrack>
					<link>
						<linkclipref>SCD062743 </linkclipref>
						<mediatype>audio</mediatype>
						<trackindex>7</trackindex>
						<clipindex>2</clipindex>
						<groupindex>1</groupindex>
					</link>
					<link>
						<linkclipref>SCD062743 3</linkclipref>
						<mediatype>audio</mediatype>
						<trackindex>8</trackindex>
						<clipindex>2</clipindex>
						<groupindex>1</groupindex>
					</link>
					<itemhistory>
						<uuid>3DC59445-C43B-4BD4-AD33-1A52F1FB52C4</uuid>
					</itemhistory>
				</clipitem>
				<clipitem id="SCD081514 3">
					<name>SCD081514</name>
					<duration>4081</duration>
					<rate>
						<ntsc>FALSE</ntsc>
						<timebase>25</timebase>
					</rate>
					<in>0</in>
					<out>1080</out>
					<start>8303</start>
					<end>-1</end>
					<masterclipid>SCD081514 1</masterclipid>
					<logginginfo>
						<scene/>
						<shottake/>
						<lognote/>
						<good>FALSE</good>
					</logginginfo>
					<labels>
						<label2/>
					</labels>
					<comments>
						<mastercomment1/>
						<mastercomment2/>
						<mastercomment3/>
						<mastercomment4/>
					</comments>
					<file id="SCD081514 2"/>
					<filter>
						<effect>
							<name>Audio Levels</name>
							<effectid>audiolevels</effectid>
							<effectcategory>audiolevels</effectcategory>
							<effecttype>audiolevels</effecttype>
							<mediatype>audio</mediatype>
							<parameter>
								<name>Level</name>
								<parameterid>level</parameterid>
								<valuemin>0</valuemin>
								<valuemax>3.98109</valuemax>
								<keyframe>
									<when>859.25</when>
									<value>0.158489</value>
								</keyframe>
								<keyframe>
									<when>1024.25</when>
									<value>0.0891251</value>
								</keyframe>
								<interpolation>
									<name>FCPCurve</name>
								</interpolation>
								<value>0.158489</value>
							</parameter>
						</effect>
					</filter>
					<filter>
						<effect>
							<name>Audio Pan</name>
							<effectid>audiopan</effectid>
							<effectcategory>audiopan</effectcategory>
							<effecttype>audiopan</effecttype>
							<mediatype>audio</mediatype>
							<parameter>
								<name>Pan</name>
								<parameterid>pan</parameterid>
								<valuemin>-1</valuemin>
								<valuemax>1</valuemax>
								<value>1</value>
							</parameter>
						</effect>
					</filter>
					<sourcetrack>
						<mediatype>audio</mediatype>
						<trackindex>2</trackindex>
					</sourcetrack>
					<link>
						<linkclipref>SCD081514 </linkclipref>
						<mediatype>audio</mediatype>
						<trackindex>7</trackindex>
						<clipindex>3</clipindex>
						<groupindex>1</groupindex>
					</link>
					<link>
						<linkclipref>SCD081514 3</linkclipref>
						<mediatype>audio</mediatype>
						<trackindex>8</trackindex>
						<clipindex>3</clipindex>
						<groupindex>1</groupindex>
					</link>
					<itemhistory>
						<uuid>F462F3E3-7B39-474E-AC64-731E7A309229</uuid>
					</itemhistory>
				</clipitem>
				<transitionitem>
					<rate>
						<ntsc>FALSE</ntsc>
						<timebase>25</timebase>
					</rate>
					<start>9357</start>
					<end>9383</end>
					<alignment>center</alignment>
					<effect>
						<name>Cross Fade (+3dB) Copy</name>
						<effectid>KGAudioTransCrossFade3dB</effectid>
						<effecttype>transition</effecttype>
						<mediatype>audio</mediatype>
					</effect>
				</transitionitem>
				<clipitem id="SCD081514 5">
					<name>SCD081514</name>
					<duration>4081</duration>
					<rate>
						<ntsc>FALSE</ntsc>
						<timebase>25</timebase>
					</rate>
					<in>3912</in>
					<out>4065</out>
					<start>-1</start>
					<end>9510</end>
					<subframeoffset>0</subframeoffset>
					<masterclipid>SCD081514 1</masterclipid>
					<logginginfo>
						<scene/>
						<shottake/>
						<lognote/>
						<good>FALSE</good>
					</logginginfo>
					<labels>
						<label2/>
					</labels>
					<comments>
						<mastercomment1/>
						<mastercomment2/>
						<mastercomment3/>
						<mastercomment4/>
					</comments>
					<file id="SCD081514 2"/>
					<filter>
						<effect>
							<name>Audio Levels</name>
							<effectid>audiolevels</effectid>
							<effectcategory>audiolevels</effectcategory>
							<effecttype>audiolevels</effecttype>
							<mediatype>audio</mediatype>
							<parameter>
								<name>Level</name>
								<parameterid>level</parameterid>
								<valuemin>0</valuemin>
								<valuemax>3.98109</valuemax>
								<value>0.281838</value>
							</parameter>
						</effect>
					</filter>
					<filter>
						<effect>
							<name>Audio Pan</name>
							<effectid>audiopan</effectid>
							<effectcategory>audiopan</effectcategory>
							<effecttype>audiopan</effecttype>
							<mediatype>audio</mediatype>
							<parameter>
								<name>Pan</name>
								<parameterid>pan</parameterid>
								<valuemin>-1</valuemin>
								<valuemax>1</valuemax>
								<value>1</value>
							</parameter>
						</effect>
					</filter>
					<sourcetrack>
						<mediatype>audio</mediatype>
						<trackindex>2</trackindex>
					</sourcetrack>
					<link>
						<linkclipref>SCD081514 4</linkclipref>
						<mediatype>audio</mediatype>
						<trackindex>7</trackindex>
						<clipindex>5</clipindex>
						<groupindex>1</groupindex>
					</link>
					<link>
						<linkclipref>SCD081514 5</linkclipref>
						<mediatype>audio</mediatype>
						<trackindex>8</trackindex>
						<clipindex>5</clipindex>
						<groupindex>1</groupindex>
					</link>
					<itemhistory>
						<uuid>CD6F7DDB-FDA2-4E80-AFD7-EECE3D39F4D9</uuid>
					</itemhistory>
				</clipitem>
				<clipitem id="SCD078019 3">
					<name>SCD078019</name>
					<duration>3133</duration>
					<rate>
						<ntsc>FALSE</ntsc>
						<timebase>25</timebase>
					</rate>
					<in>0</in>
					<out>513</out>
					<start>10270</start>
					<end>-1</end>
					<masterclipid>SCD078019 1</masterclipid>
					<logginginfo>
						<scene/>
						<shottake/>
						<lognote/>
						<good>FALSE</good>
					</logginginfo>
					<labels>
						<label2/>
					</labels>
					<comments>
						<mastercomment1/>
						<mastercomment2/>
						<mastercomment3/>
						<mastercomment4/>
					</comments>
					<file id="SCD078019 2"/>
					<filter>
						<effect>
							<name>Audio Levels</name>
							<effectid>audiolevels</effectid>
							<effectcategory>audiolevels</effectcategory>
							<effecttype>audiolevels</effecttype>
							<mediatype>audio</mediatype>
							<parameter>
								<name>Level</name>
								<parameterid>level</parameterid>
								<valuemin>0</valuemin>
								<valuemax>3.98109</valuemax>
								<keyframe>
									<when>63.25</when>
									<value>0.199526</value>
								</keyframe>
								<interpolation>
									<name>FCPCurve</name>
								</interpolation>
								<value>0.199526</value>
							</parameter>
						</effect>
					</filter>
					<filter>
						<effect>
							<name>Audio Pan</name>
							<effectid>audiopan</effectid>
							<effectcategory>audiopan</effectcategory>
							<effecttype>audiopan</effecttype>
							<mediatype>audio</mediatype>
							<parameter>
								<name>Pan</name>
								<parameterid>pan</parameterid>
								<valuemin>-1</valuemin>
								<valuemax>1</valuemax>
								<value>1</value>
							</parameter>
						</effect>
					</filter>
					<sourcetrack>
						<mediatype>audio</mediatype>
						<trackindex>2</trackindex>
					</sourcetrack>
					<link>
						<linkclipref>SCD078019 </linkclipref>
						<mediatype>audio</mediatype>
						<trackindex>7</trackindex>
						<clipindex>6</clipindex>
						<groupindex>1</groupindex>
					</link>
					<link>
						<linkclipref>SCD078019 3</linkclipref>
						<mediatype>audio</mediatype>
						<trackindex>8</trackindex>
						<clipindex>6</clipindex>
						<groupindex>1</groupindex>
					</link>
					<itemhistory>
						<uuid>A3C20D06-E5F4-4FEE-AD31-43C915296BB6</uuid>
					</itemhistory>
				</clipitem>
				<transitionitem>
					<rate>
						<ntsc>FALSE</ntsc>
						<timebase>25</timebase>
					</rate>
					<start>10726</start>
					<end>10783</end>
					<alignment>center</alignment>
					<effect>
						<name>Cross Fade (+3dB)</name>
						<effectid>KGAudioTransCrossFade3dB</effectid>
						<effecttype>transition</effecttype>
						<mediatype>audio</mediatype>
					</effect>
				</transitionitem>
				<clipitem id="SCD078019 5">
					<name>SCD078019</name>
					<duration>3133</duration>
					<rate>
						<ntsc>FALSE</ntsc>
						<timebase>25</timebase>
					</rate>
					<in>2208</in>
					<out>3133</out>
					<start>-1</start>
					<end>11651</end>
					<subframeoffset>0</subframeoffset>
					<masterclipid>SCD078019 1</masterclipid>
					<logginginfo>
						<scene/>
						<shottake/>
						<lognote/>
						<good>FALSE</good>
					</logginginfo>
					<labels>
						<label2/>
					</labels>
					<comments>
						<mastercomment1/>
						<mastercomment2/>
						<mastercomment3/>
						<mastercomment4/>
					</comments>
					<file id="SCD078019 2"/>
					<filter>
						<effect>
							<name>Audio Levels</name>
							<effectid>audiolevels</effectid>
							<effectcategory>audiolevels</effectcategory>
							<effecttype>audiolevels</effecttype>
							<mediatype>audio</mediatype>
							<parameter>
								<name>Level</name>
								<parameterid>level</parameterid>
								<valuemin>0</valuemin>
								<valuemax>3.98109</valuemax>
								<value>0.199526</value>
							</parameter>
						</effect>
					</filter>
					<filter>
						<effect>
							<name>Audio Pan</name>
							<effectid>audiopan</effectid>
							<effectcategory>audiopan</effectcategory>
							<effecttype>audiopan</effecttype>
							<mediatype>audio</mediatype>
							<parameter>
								<name>Pan</name>
								<parameterid>pan</parameterid>
								<valuemin>-1</valuemin>
								<valuemax>1</valuemax>
								<value>0.99</value>
							</parameter>
						</effect>
					</filter>
					<sourcetrack>
						<mediatype>audio</mediatype>
						<trackindex>2</trackindex>
					</sourcetrack>
					<link>
						<linkclipref>SCD078019 4</linkclipref>
						<mediatype>audio</mediatype>
						<trackindex>7</trackindex>
						<clipindex>8</clipindex>
						<groupindex>1</groupindex>
					</link>
					<link>
						<linkclipref>SCD078019 5</linkclipref>
						<mediatype>audio</mediatype>
						<trackindex>8</trackindex>
						<clipindex>8</clipindex>
						<groupindex>1</groupindex>
					</link>
					<itemhistory>
						<uuid>F4B8BBE3-84F1-4BA0-8F48-78B82AE2C7A5</uuid>
					</itemhistory>
				</clipitem>
				<clipitem id="WHOOSHLARG…WHOOSHBYFS105004 13">
					<name>WHOOSHLARG…WHOOSHBYFS105004</name>
					<duration>811</duration>
					<rate>
						<ntsc>FALSE</ntsc>
						<timebase>25</timebase>
					</rate>
					<in>104</in>
					<out>264</out>
					<start>12218</start>
					<end>-1</end>
					<enabled>TRUE</enabled>
					<masterclipid>WHOOSHLARG…WHOOSHBYFS105004 1</masterclipid>
					<logginginfo>
						<scene/>
						<shottake/>
						<lognote/>
						<good>FALSE</good>
					</logginginfo>
					<labels>
						<label2/>
					</labels>
					<comments>
						<mastercomment1/>
						<mastercomment2/>
						<mastercomment3/>
						<mastercomment4/>
					</comments>
					<file id="WHOOSHLARG…WHOOSHBYFS105004 2"/>
					<filter>
						<effect>
							<name>Audio Levels</name>
							<effectid>audiolevels</effectid>
							<effectcategory>audiolevels</effectcategory>
							<effecttype>audiolevels</effecttype>
							<mediatype>audio</mediatype>
							<parameter>
								<name>Level</name>
								<parameterid>level</parameterid>
								<valuemin>0</valuemin>
								<valuemax>3.98109</valuemax>
								<keyframe>
									<when>163.571</when>
									<value>0.707946</value>
								</keyframe>
								<keyframe>
									<when>208.143</when>
									<value>0.354813</value>
								</keyframe>
								<keyframe>
									<when>245.286</when>
									<value>0.707946</value>
								</keyframe>
								<interpolation>
									<name>FCPCurve</name>
								</interpolation>
								<value>0.630957</value>
							</parameter>
						</effect>
					</filter>
					<filter>
						<effect>
							<name>Audio Pan</name>
							<effectid>audiopan</effectid>
							<effectcategory>audiopan</effectcategory>
							<effecttype>audiopan</effecttype>
							<mediatype>audio</mediatype>
							<parameter>
								<name>Pan</name>
								<parameterid>pan</parameterid>
								<valuemin>-1</valuemin>
								<valuemax>1</valuemax>
								<value>1</value>
							</parameter>
						</effect>
					</filter>
					<sourcetrack>
						<mediatype>audio</mediatype>
						<trackindex>2</trackindex>
					</sourcetrack>
					<link>
						<linkclipref>WHOOSHLARG…WHOOSHBYFS105004 12</linkclipref>
						<mediatype>audio</mediatype>
						<trackindex>7</trackindex>
						<clipindex>9</clipindex>
						<groupindex>1</groupindex>
					</link>
					<link>
						<linkclipref>WHOOSHLARG…WHOOSHBYFS105004 13</linkclipref>
						<mediatype>audio</mediatype>
						<trackindex>8</trackindex>
						<clipindex>9</clipindex>
						<groupindex>1</groupindex>
					</link>
					<itemhistory>
						<uuid>A185FDBF-2599-46F7-BBC3-40358C1FCA4D</uuid>
					</itemhistory>
					<filter>
						<effect>
							<name>Time Remap</name>
							<effectid>timeremap</effectid>
							<effectcategory>motion</effectcategory>
							<effecttype>motion</effecttype>
							<mediatype>audio</mediatype>
							<parameter>
								<parameterid>variablespeed</parameterid>
								<name>variablespeed</name>
								<valuemin>0</valuemin>
								<valuemax>1</valuemax>
								<value>0</value>
							</parameter>
							<parameter>
								<parameterid>mappedduration</parameterid>
								<name>mappedduration</name>
								<value>
									<timecode>
										<rate>
											<timebase>0</timebase>
										</rate>
										<string>0</string>
										<frame>0</frame>
										<displayformat>NDF</displayformat>
									</timecode>
								</value>
							</parameter>
							<parameter>
								<parameterid>speed</parameterid>
								<name>speed</name>
								<valuemin>-10000</valuemin>
								<valuemax>10000</valuemax>
								<value>10</value>
							</parameter>
							<parameter>
								<parameterid>reverse</parameterid>
								<name>reverse</name>
								<value>FALSE</value>
							</parameter>
							<parameter>
								<parameterid>frameblending</parameterid>
								<name>frameblending</name>
								<value>TRUE</value>
							</parameter>
							<parameter>
								<parameterid>graphdict</parameterid>
								<name>graphdict</name>
								<valuemin>0</valuemin>
								<valuemax>81</valuemax>
								<keyframe>
									<when>0</when>
									<value>0.0499</value>
									<speedkfstart>TRUE</speedkfstart>
									<speedvirtualkf>TRUE</speedvirtualkf>
									<anchorOffset>0.0499</anchorOffset>
								</keyframe>
								<keyframe>
									<when>104</when>
									<value>10.4499</value>
									<speedkfin>TRUE</speedkfin>
									<speedvirtualkf>TRUE</speedvirtualkf>
								</keyframe>
								<keyframe>
									<when>264</when>
									<value>26.4499</value>
									<speedkfout>TRUE</speedkfout>
									<speedvirtualkf>TRUE</speedvirtualkf>
								</keyframe>
								<keyframe>
									<when>811</when>
									<value>82.0499</value>
									<speedkfend>TRUE</speedkfend>
									<speedvirtualkf>TRUE</speedvirtualkf>
								</keyframe>
								<interpolation>
									<name>FCPCurve</name>
								</interpolation>
								<value>10.4499</value>
							</parameter>
						</effect>
					</filter>
				</clipitem>
				<transitionitem>
					<rate>
						<ntsc>FALSE</ntsc>
						<timebase>25</timebase>
					</rate>
					<start>12353</start>
					<end>12378</end>
					<alignment>center</alignment>
					<effect>
						<name>Cross Fade (+3dB)</name>
						<effectid>KGAudioTransCrossFade3dB</effectid>
						<effecttype>transition</effecttype>
						<mediatype>audio</mediatype>
					</effect>
				</transitionitem>
				<clipitem id="WHOOSHLARG…WHOOSHBYFS105302.WAV22">
					<name>WHOOSHLARG…WHOOSHBYFS105302.WAV</name>
					<duration>261</duration>
					<rate>
						<ntsc>FALSE</ntsc>
						<timebase>25</timebase>
					</rate>
					<in>0</in>
					<out>104</out>
					<start>-1</start>
					<end>12457</end>
					<subframeoffset>0</subframeoffset>
					<masterclipid>WHOOSHLARG…WHOOSHBYFS105302.WAV1</masterclipid>
					<logginginfo>
						<scene/>
						<shottake/>
						<lognote/>
						<good>FALSE</good>
					</logginginfo>
					<labels>
						<label2/>
					</labels>
					<comments>
						<mastercomment1/>
						<mastercomment2/>
						<mastercomment3/>
						<mastercomment4/>
					</comments>
					<file id="WHOOSHLARG…WHOOSHBYFS105302 "/>
					<filter>
						<effect>
							<name>Audio Levels</name>
							<effectid>audiolevels</effectid>
							<effectcategory>audiolevels</effectcategory>
							<effecttype>audiolevels</effecttype>
							<mediatype>audio</mediatype>
							<parameter>
								<name>Level</name>
								<parameterid>level</parameterid>
								<valuemin>0</valuemin>
								<valuemax>3.98109</valuemax>
								<value>0.398107</value>
							</parameter>
						</effect>
					</filter>
					<filter>
						<effect>
							<name>Audio Pan</name>
							<effectid>audiopan</effectid>
							<effectcategory>audiopan</effectcategory>
							<effecttype>audiopan</effecttype>
							<mediatype>audio</mediatype>
							<parameter>
								<name>Pan</name>
								<parameterid>pan</parameterid>
								<valuemin>-1</valuemin>
								<valuemax>1</valuemax>
								<value>1</value>
							</parameter>
						</effect>
					</filter>
					<sourcetrack>
						<mediatype>audio</mediatype>
						<trackindex>2</trackindex>
					</sourcetrack>
					<link>
						<linkclipref>WHOOSHLARG…WHOOSHBYFS105302.WAV21</linkclipref>
						<mediatype>audio</mediatype>
						<trackindex>7</trackindex>
						<clipindex>11</clipindex>
						<groupindex>1</groupindex>
					</link>
					<link>
						<linkclipref>WHOOSHLARG…WHOOSHBYFS105302.WAV22</linkclipref>
						<mediatype>audio</mediatype>
						<trackindex>8</trackindex>
						<clipindex>11</clipindex>
						<groupindex>1</groupindex>
					</link>
					<itemhistory>
						<uuid>1F567944-F483-4892-8BA2-CEF66D752BFD</uuid>
						<uuid>93AE1182-23ED-41CA-A60D-E1D26717DFFE</uuid>
					</itemhistory>
					<filter>
						<effect>
							<name>Time Remap</name>
							<effectid>timeremap</effectid>
							<effectcategory>motion</effectcategory>
							<effecttype>motion</effecttype>
							<mediatype>audio</mediatype>
							<parameter>
								<parameterid>variablespeed</parameterid>
								<name>variablespeed</name>
								<valuemin>0</valuemin>
								<valuemax>1</valuemax>
								<value>0</value>
							</parameter>
							<parameter>
								<parameterid>mappedduration</parameterid>
								<name>mappedduration</name>
								<value>
									<timecode>
										<rate>
											<timebase>0</timebase>
										</rate>
										<string>0</string>
										<frame>0</frame>
										<displayformat>NDF</displayformat>
									</timecode>
								</value>
							</parameter>
							<parameter>
								<parameterid>speed</parameterid>
								<name>speed</name>
								<valuemin>-10000</valuemin>
								<valuemax>10000</valuemax>
								<value>34</value>
							</parameter>
							<parameter>
								<parameterid>reverse</parameterid>
								<name>reverse</name>
								<value>FALSE</value>
							</parameter>
							<parameter>
								<parameterid>frameblending</parameterid>
								<name>frameblending</name>
								<value>TRUE</value>
							</parameter>
							<parameter>
								<parameterid>graphdict</parameterid>
								<name>graphdict</name>
								<valuemin>0</valuemin>
								<valuemax>91</valuemax>
								<keyframe>
									<when>0</when>
									<value>0.0497</value>
									<speedkfin>TRUE</speedkfin>
									<anchorOffset>0.0497</anchorOffset>
								</keyframe>
								<keyframe>
									<when>104</when>
									<value>36.4497</value>
									<speedkfout>TRUE</speedkfout>
									<speedvirtualkf>TRUE</speedvirtualkf>
								</keyframe>
								<keyframe>
									<when>261</when>
									<value>92.0497</value>
									<speedkfend>TRUE</speedkfend>
									<speedvirtualkf>TRUE</speedvirtualkf>
								</keyframe>
								<interpolation>
									<name>FCPCurve</name>
								</interpolation>
								<value>0.0497</value>
							</parameter>
						</effect>
					</filter>
				</clipitem>
				<clipitem id="SCD076819.wav2">
					<name>SCD076819.wav</name>
					<duration>3293</duration>
					<rate>
						<ntsc>FALSE</ntsc>
						<timebase>25</timebase>
					</rate>
					<in>0</in>
					<out>1043</out>
					<start>20741</start>
					<end>21784</end>
					<subframeoffset>0</subframeoffset>
					<masterclipid>SCD076819.wav1</masterclipid>
					<logginginfo>
						<scene/>
						<shottake/>
						<lognote/>
						<good>FALSE</good>
					</logginginfo>
					<labels>
						<label2/>
					</labels>
					<comments>
						<mastercomment1>Bass og trekkspill</mastercomment1>
						<mastercomment2/>
						<mastercomment3/>
						<mastercomment4/>
					</comments>
					<file id="SCD076819 "/>
					<filter>
						<effect>
							<name>Audio Levels</name>
							<effectid>audiolevels</effectid>
							<effectcategory>audiolevels</effectcategory>
							<effecttype>audiolevels</effecttype>
							<mediatype>audio</mediatype>
							<parameter>
								<name>Level</name>
								<parameterid>level</parameterid>
								<valuemin>0</valuemin>
								<valuemax>3.98109</valuemax>
								<keyframe>
									<when>551.143</when>
									<value>0.158489</value>
								</keyframe>
								<keyframe>
									<when>651.714</when>
									<value>1</value>
								</keyframe>
								<keyframe>
									<when>873.429</when>
									<value>1</value>
								</keyframe>
								<keyframe>
									<when>943.143</when>
									<value>0.0630957</value>
								</keyframe>
								<interpolation>
									<name>FCPCurve</name>
								</interpolation>
								<value>0.398107</value>
							</parameter>
						</effect>
					</filter>
					<filter>
						<effect>
							<name>Audio Pan</name>
							<effectid>audiopan</effectid>
							<effectcategory>audiopan</effectcategory>
							<effecttype>audiopan</effecttype>
							<mediatype>audio</mediatype>
							<parameter>
								<name>Pan</name>
								<parameterid>pan</parameterid>
								<valuemin>-1</valuemin>
								<valuemax>1</valuemax>
								<value>1</value>
							</parameter>
						</effect>
					</filter>
					<sourcetrack>
						<mediatype>audio</mediatype>
						<trackindex>2</trackindex>
					</sourcetrack>
					<link>
						<linkclipref>SCD076819.wav</linkclipref>
						<mediatype>audio</mediatype>
						<trackindex>7</trackindex>
						<clipindex>12</clipindex>
						<groupindex>1</groupindex>
					</link>
					<link>
						<linkclipref>SCD076819.wav2</linkclipref>
						<mediatype>audio</mediatype>
						<trackindex>8</trackindex>
						<clipindex>12</clipindex>
						<groupindex>1</groupindex>
					</link>
					<itemhistory>
						<uuid>624FFE5E-AE75-4577-9E53-F291873D374B</uuid>
					</itemhistory>
				</clipitem>
				<clipitem id="SCD076819.wav4">
					<name>SCD076819.wav</name>
					<duration>3293</duration>
					<rate>
						<ntsc>FALSE</ntsc>
						<timebase>25</timebase>
					</rate>
					<in>1188</in>
					<out>3293</out>
					<start>21806</start>
					<end>23911</end>
					<subframeoffset>0</subframeoffset>
					<masterclipid>SCD076819.wav1</masterclipid>
					<logginginfo>
						<scene/>
						<shottake/>
						<lognote/>
						<good>FALSE</good>
					</logginginfo>
					<labels>
						<label2/>
					</labels>
					<comments>
						<mastercomment1>Bass og trekkspill</mastercomment1>
						<mastercomment2/>
						<mastercomment3/>
						<mastercomment4/>
					</comments>
					<file id="SCD076819 "/>
					<filter>
						<effect>
							<name>Audio Levels</name>
							<effectid>audiolevels</effectid>
							<effectcategory>audiolevels</effectcategory>
							<effecttype>audiolevels</effecttype>
							<mediatype>audio</mediatype>
							<parameter>
								<name>Level</name>
								<parameterid>level</parameterid>
								<valuemin>0</valuemin>
								<valuemax>3.98109</valuemax>
								<keyframe>
									<when>551.143</when>
									<value>0.158489</value>
								</keyframe>
								<keyframe>
									<when>651.714</when>
									<value>1</value>
								</keyframe>
								<keyframe>
									<when>873.429</when>
									<value>1</value>
								</keyframe>
								<keyframe>
									<when>943.143</when>
									<value>0.0630957</value>
								</keyframe>
								<keyframe>
									<when>2902.43</when>
									<value>0.0630957</value>
								</keyframe>
								<keyframe>
									<when>3100.43</when>
									<value>0.0251189</value>
								</keyframe>
								<interpolation>
									<name>FCPCurve</name>
								</interpolation>
								<value>0.398107</value>
							</parameter>
						</effect>
					</filter>
					<filter>
						<effect>
							<name>Audio Pan</name>
							<effectid>audiopan</effectid>
							<effectcategory>audiopan</effectcategory>
							<effecttype>audiopan</effecttype>
							<mediatype>audio</mediatype>
							<parameter>
								<name>Pan</name>
								<parameterid>pan</parameterid>
								<valuemin>-1</valuemin>
								<valuemax>1</valuemax>
								<value>1</value>
							</parameter>
						</effect>
					</filter>
					<sourcetrack>
						<mediatype>audio</mediatype>
						<trackindex>2</trackindex>
					</sourcetrack>
					<link>
						<linkclipref>SCD076819.wav3</linkclipref>
						<mediatype>audio</mediatype>
						<trackindex>7</trackindex>
						<clipindex>13</clipindex>
						<groupindex>1</groupindex>
					</link>
					<link>
						<linkclipref>SCD076819.wav4</linkclipref>
						<mediatype>audio</mediatype>
						<trackindex>8</trackindex>
						<clipindex>13</clipindex>
						<groupindex>1</groupindex>
					</link>
					<itemhistory>
						<uuid>9E731C6A-799B-49C3-AB1C-AAEEA64B6D0C</uuid>
					</itemhistory>
				</clipitem>
				<enabled>TRUE</enabled>
				<locked>FALSE</locked>
				<outputchannelindex>2</outputchannelindex>
			</track>
			<track>
				<clipitem id="WHOOSHLARG…WHOOSHBYFS105004 14">
					<name>WHOOSHLARG…WHOOSHBYFS105004</name>
					<duration>811</duration>
					<rate>
						<ntsc>FALSE</ntsc>
						<timebase>25</timebase>
					</rate>
					<in>507</in>
					<out>665</out>
					<start>12242</start>
					<end>12400</end>
					<enabled>TRUE</enabled>
					<masterclipid>WHOOSHLARG…WHOOSHBYFS105004 1</masterclipid>
					<logginginfo>
						<scene/>
						<shottake/>
						<lognote/>
						<good>FALSE</good>
					</logginginfo>
					<labels>
						<label2/>
					</labels>
					<comments>
						<mastercomment1/>
						<mastercomment2/>
						<mastercomment3/>
						<mastercomment4/>
					</comments>
					<file id="WHOOSHLARG…WHOOSHBYFS105004 2"/>
					<filter>
						<effect>
							<name>Audio Levels</name>
							<effectid>audiolevels</effectid>
							<effectcategory>audiolevels</effectcategory>
							<effecttype>audiolevels</effecttype>
							<mediatype>audio</mediatype>
							<parameter>
								<name>Level</name>
								<parameterid>level</parameterid>
								<valuemin>0</valuemin>
								<valuemax>3.98109</valuemax>
								<keyframe>
									<when>163.571</when>
									<value>0.707946</value>
								</keyframe>
								<keyframe>
									<when>208.143</when>
									<value>0.354813</value>
								</keyframe>
								<keyframe>
									<when>245.286</when>
									<value>0.707946</value>
								</keyframe>
								<interpolation>
									<name>FCPCurve</name>
								</interpolation>
								<value>0.707946</value>
							</parameter>
						</effect>
					</filter>
					<filter>
						<effect>
							<name>Audio Pan</name>
							<effectid>audiopan</effectid>
							<effectcategory>audiopan</effectcategory>
							<effecttype>audiopan</effecttype>
							<mediatype>audio</mediatype>
							<parameter>
								<name>Pan</name>
								<parameterid>pan</parameterid>
								<valuemin>-1</valuemin>
								<valuemax>1</valuemax>
								<value>-1</value>
							</parameter>
						</effect>
					</filter>
					<sourcetrack>
						<mediatype>audio</mediatype>
						<trackindex>1</trackindex>
					</sourcetrack>
					<link>
						<linkclipref>WHOOSHLARG…WHOOSHBYFS105004 14</linkclipref>
						<mediatype>audio</mediatype>
						<trackindex>9</trackindex>
						<clipindex>1</clipindex>
						<groupindex>1</groupindex>
					</link>
					<link>
						<linkclipref>WHOOSHLARG…WHOOSHBYFS105004 15</linkclipref>
						<mediatype>audio</mediatype>
						<trackindex>10</trackindex>
						<clipindex>1</clipindex>
						<groupindex>1</groupindex>
					</link>
					<itemhistory>
						<uuid>CE1CD3FF-D314-4E95-A569-CF73FC86AA15</uuid>
					</itemhistory>
					<filter>
						<effect>
							<name>Time Remap</name>
							<effectid>timeremap</effectid>
							<effectcategory>motion</effectcategory>
							<effecttype>motion</effecttype>
							<mediatype>audio</mediatype>
							<parameter>
								<parameterid>variablespeed</parameterid>
								<name>variablespeed</name>
								<valuemin>0</valuemin>
								<valuemax>1</valuemax>
								<value>0</value>
							</parameter>
							<parameter>
								<parameterid>mappedduration</parameterid>
								<name>mappedduration</name>
								<value>
									<timecode>
										<rate>
											<timebase>0</timebase>
										</rate>
										<string>0</string>
										<frame>0</frame>
										<displayformat>NDF</displayformat>
									</timecode>
								</value>
							</parameter>
							<parameter>
								<parameterid>speed</parameterid>
								<name>speed</name>
								<valuemin>-10000</valuemin>
								<valuemax>10000</valuemax>
								<value>10</value>
							</parameter>
							<parameter>
								<parameterid>reverse</parameterid>
								<name>reverse</name>
								<value>TRUE</value>
							</parameter>
							<parameter>
								<parameterid>frameblending</parameterid>
								<name>frameblending</name>
								<value>TRUE</value>
							</parameter>
							<parameter>
								<parameterid>graphdict</parameterid>
								<name>graphdict</name>
								<valuemin>0</valuemin>
								<valuemax>81</valuemax>
								<keyframe>
									<when>0</when>
									<value>83.0499</value>
									<speedkfstart>TRUE</speedkfstart>
									<speedvirtualkf>TRUE</speedvirtualkf>
									<anchorOffset>0.0499</anchorOffset>
								</keyframe>
								<keyframe>
									<when>507</when>
									<value>31.3499</value>
									<speedkfin>TRUE</speedkfin>
									<speedvirtualkf>TRUE</speedvirtualkf>
								</keyframe>
								<keyframe>
									<when>665</when>
									<value>15.5499</value>
									<speedkfout>TRUE</speedkfout>
									<speedvirtualkf>TRUE</speedvirtualkf>
								</keyframe>
								<keyframe>
									<when>811</when>
									<value>1.0499</value>
									<speedkfend>TRUE</speedkfend>
									<speedvirtualkf>TRUE</speedvirtualkf>
								</keyframe>
								<interpolation>
									<name>FCPCurve</name>
								</interpolation>
								<value>30.3499</value>
							</parameter>
						</effect>
					</filter>
				</clipitem>
				<clipitem id="WHOOSHLARG…WHOOSHBYFS105004 16">
					<name>WHOOSHLARG…WHOOSHBYFS105004</name>
					<duration>811</duration>
					<rate>
						<ntsc>FALSE</ntsc>
						<timebase>25</timebase>
					</rate>
					<in>665</in>
					<out>707</out>
					<start>12414</start>
					<end>12456</end>
					<enabled>TRUE</enabled>
					<masterclipid>WHOOSHLARG…WHOOSHBYFS105004 1</masterclipid>
					<logginginfo>
						<scene/>
						<shottake/>
						<lognote/>
						<good>FALSE</good>
					</logginginfo>
					<labels>
						<label2/>
					</labels>
					<comments>
						<mastercomment1/>
						<mastercomment2/>
						<mastercomment3/>
						<mastercomment4/>
					</comments>
					<file id="WHOOSHLARG…WHOOSHBYFS105004 2"/>
					<filter>
						<effect>
							<name>Audio Levels</name>
							<effectid>audiolevels</effectid>
							<effectcategory>audiolevels</effectcategory>
							<effecttype>audiolevels</effecttype>
							<mediatype>audio</mediatype>
							<parameter>
								<name>Level</name>
								<parameterid>level</parameterid>
								<valuemin>0</valuemin>
								<valuemax>3.98109</valuemax>
								<keyframe>
									<when>163.571</when>
									<value>0.707946</value>
								</keyframe>
								<keyframe>
									<when>208.143</when>
									<value>0.354813</value>
								</keyframe>
								<keyframe>
									<when>245.286</when>
									<value>0.707946</value>
								</keyframe>
								<interpolation>
									<name>FCPCurve</name>
								</interpolation>
								<value>0.707946</value>
							</parameter>
						</effect>
					</filter>
					<filter>
						<effect>
							<name>Audio Pan</name>
							<effectid>audiopan</effectid>
							<effectcategory>audiopan</effectcategory>
							<effecttype>audiopan</effecttype>
							<mediatype>audio</mediatype>
							<parameter>
								<name>Pan</name>
								<parameterid>pan</parameterid>
								<valuemin>-1</valuemin>
								<valuemax>1</valuemax>
								<value>-1</value>
							</parameter>
						</effect>
					</filter>
					<sourcetrack>
						<mediatype>audio</mediatype>
						<trackindex>1</trackindex>
					</sourcetrack>
					<link>
						<linkclipref>WHOOSHLARG…WHOOSHBYFS105004 16</linkclipref>
						<mediatype>audio</mediatype>
						<trackindex>9</trackindex>
						<clipindex>2</clipindex>
						<groupindex>1</groupindex>
					</link>
					<link>
						<linkclipref>WHOOSHLARG…WHOOSHBYFS105004 17</linkclipref>
						<mediatype>audio</mediatype>
						<trackindex>10</trackindex>
						<clipindex>2</clipindex>
						<groupindex>1</groupindex>
					</link>
					<itemhistory>
						<uuid>BCCCDB51-B3FD-4875-89D1-D256D7A26E1A</uuid>
					</itemhistory>
					<filter>
						<effect>
							<name>Time Remap</name>
							<effectid>timeremap</effectid>
							<effectcategory>motion</effectcategory>
							<effecttype>motion</effecttype>
							<mediatype>audio</mediatype>
							<parameter>
								<parameterid>variablespeed</parameterid>
								<name>variablespeed</name>
								<valuemin>0</valuemin>
								<valuemax>1</valuemax>
								<value>0</value>
							</parameter>
							<parameter>
								<parameterid>mappedduration</parameterid>
								<name>mappedduration</name>
								<value>
									<timecode>
										<rate>
											<timebase>0</timebase>
										</rate>
										<string>0</string>
										<frame>0</frame>
										<displayformat>NDF</displayformat>
									</timecode>
								</value>
							</parameter>
							<parameter>
								<parameterid>speed</parameterid>
								<name>speed</name>
								<valuemin>-10000</valuemin>
								<valuemax>10000</valuemax>
								<value>10</value>
							</parameter>
							<parameter>
								<parameterid>reverse</parameterid>
								<name>reverse</name>
								<value>TRUE</value>
							</parameter>
							<parameter>
								<parameterid>frameblending</parameterid>
								<name>frameblending</name>
								<value>TRUE</value>
							</parameter>
							<parameter>
								<parameterid>graphdict</parameterid>
								<name>graphdict</name>
								<valuemin>0</valuemin>
								<valuemax>81</valuemax>
								<keyframe>
									<when>0</when>
									<value>83.0499</value>
									<speedkfstart>TRUE</speedkfstart>
									<speedvirtualkf>TRUE</speedvirtualkf>
									<anchorOffset>0.0499</anchorOffset>
								</keyframe>
								<keyframe>
									<when>665</when>
									<value>15.5499</value>
									<speedkfin>TRUE</speedkfin>
									<speedvirtualkf>TRUE</speedvirtualkf>
								</keyframe>
								<keyframe>
									<when>707</when>
									<value>11.3499</value>
									<speedkfout>TRUE</speedkfout>
									<speedvirtualkf>TRUE</speedvirtualkf>
								</keyframe>
								<keyframe>
									<when>811</when>
									<value>1.0499</value>
									<speedkfend>TRUE</speedkfend>
									<speedvirtualkf>TRUE</speedvirtualkf>
								</keyframe>
								<interpolation>
									<name>FCPCurve</name>
								</interpolation>
								<value>14.5499</value>
							</parameter>
						</effect>
					</filter>
				</clipitem>
				<clipitem id="WHOOSHLARG…WHOOSHBYFS105004 18">
					<name>WHOOSHLARG…WHOOSHBYFS105004</name>
					<duration>811</duration>
					<rate>
						<ntsc>FALSE</ntsc>
						<timebase>25</timebase>
					</rate>
					<in>679</in>
					<out>693</out>
					<start>12473</start>
					<end>12487</end>
					<enabled>TRUE</enabled>
					<masterclipid>WHOOSHLARG…WHOOSHBYFS105004 1</masterclipid>
					<logginginfo>
						<scene/>
						<shottake/>
						<lognote/>
						<good>FALSE</good>
					</logginginfo>
					<labels>
						<label2/>
					</labels>
					<comments>
						<mastercomment1/>
						<mastercomment2/>
						<mastercomment3/>
						<mastercomment4/>
					</comments>
					<file id="WHOOSHLARG…WHOOSHBYFS105004 2"/>
					<filter>
						<effect>
							<name>Audio Levels</name>
							<effectid>audiolevels</effectid>
							<effectcategory>audiolevels</effectcategory>
							<effecttype>audiolevels</effecttype>
							<mediatype>audio</mediatype>
							<parameter>
								<name>Level</name>
								<parameterid>level</parameterid>
								<valuemin>0</valuemin>
								<valuemax>3.98109</valuemax>
								<keyframe>
									<when>163.571</when>
									<value>0.707946</value>
								</keyframe>
								<keyframe>
									<when>208.143</when>
									<value>0.354813</value>
								</keyframe>
								<keyframe>
									<when>245.286</when>
									<value>0.707946</value>
								</keyframe>
								<interpolation>
									<name>FCPCurve</name>
								</interpolation>
								<value>0.707946</value>
							</parameter>
						</effect>
					</filter>
					<filter>
						<effect>
							<name>Audio Pan</name>
							<effectid>audiopan</effectid>
							<effectcategory>audiopan</effectcategory>
							<effecttype>audiopan</effecttype>
							<mediatype>audio</mediatype>
							<parameter>
								<name>Pan</name>
								<parameterid>pan</parameterid>
								<valuemin>-1</valuemin>
								<valuemax>1</valuemax>
								<value>-1</value>
							</parameter>
						</effect>
					</filter>
					<sourcetrack>
						<mediatype>audio</mediatype>
						<trackindex>1</trackindex>
					</sourcetrack>
					<link>
						<linkclipref>WHOOSHLARG…WHOOSHBYFS105004 18</linkclipref>
						<mediatype>audio</mediatype>
						<trackindex>9</trackindex>
						<clipindex>3</clipindex>
						<groupindex>1</groupindex>
					</link>
					<link>
						<linkclipref>WHOOSHLARG…WHOOSHBYFS105004 19</linkclipref>
						<mediatype>audio</mediatype>
						<trackindex>10</trackindex>
						<clipindex>3</clipindex>
						<groupindex>1</groupindex>
					</link>
					<itemhistory>
						<uuid>E2A5C448-0812-469B-A1BB-A0083AD3BD67</uuid>
					</itemhistory>
					<filter>
						<effect>
							<name>Time Remap</name>
							<effectid>timeremap</effectid>
							<effectcategory>motion</effectcategory>
							<effecttype>motion</effecttype>
							<mediatype>audio</mediatype>
							<parameter>
								<parameterid>variablespeed</parameterid>
								<name>variablespeed</name>
								<valuemin>0</valuemin>
								<valuemax>1</valuemax>
								<value>0</value>
							</parameter>
							<parameter>
								<parameterid>mappedduration</parameterid>
								<name>mappedduration</name>
								<value>
									<timecode>
										<rate>
											<timebase>0</timebase>
										</rate>
										<string>0</string>
										<frame>0</frame>
										<displayformat>NDF</displayformat>
									</timecode>
								</value>
							</parameter>
							<parameter>
								<parameterid>speed</parameterid>
								<name>speed</name>
								<valuemin>-10000</valuemin>
								<valuemax>10000</valuemax>
								<value>10</value>
							</parameter>
							<parameter>
								<parameterid>reverse</parameterid>
								<name>reverse</name>
								<value>TRUE</value>
							</parameter>
							<parameter>
								<parameterid>frameblending</parameterid>
								<name>frameblending</name>
								<value>TRUE</value>
							</parameter>
							<parameter>
								<parameterid>graphdict</parameterid>
								<name>graphdict</name>
								<valuemin>0</valuemin>
								<valuemax>81</valuemax>
								<keyframe>
									<when>0</when>
									<value>83.0499</value>
									<speedkfstart>TRUE</speedkfstart>
									<speedvirtualkf>TRUE</speedvirtualkf>
									<anchorOffset>0.0499</anchorOffset>
								</keyframe>
								<keyframe>
									<when>679</when>
									<value>14.1499</value>
									<speedkfin>TRUE</speedkfin>
									<speedvirtualkf>TRUE</speedvirtualkf>
								</keyframe>
								<keyframe>
									<when>693</when>
									<value>12.7499</value>
									<speedkfout>TRUE</speedkfout>
									<speedvirtualkf>TRUE</speedvirtualkf>
								</keyframe>
								<keyframe>
									<when>811</when>
									<value>1.0499</value>
									<speedkfend>TRUE</speedkfend>
									<speedvirtualkf>TRUE</speedvirtualkf>
								</keyframe>
								<interpolation>
									<name>FCPCurve</name>
								</interpolation>
								<value>13.1499</value>
							</parameter>
						</effect>
					</filter>
				</clipitem>
				<enabled>TRUE</enabled>
				<locked>FALSE</locked>
				<outputchannelindex>1</outputchannelindex>
			</track>
			<track>
				<clipitem id="WHOOSHLARG…WHOOSHBYFS105004 15">
					<name>WHOOSHLARG…WHOOSHBYFS105004</name>
					<duration>811</duration>
					<rate>
						<ntsc>FALSE</ntsc>
						<timebase>25</timebase>
					</rate>
					<in>507</in>
					<out>665</out>
					<start>12242</start>
					<end>12400</end>
					<enabled>TRUE</enabled>
					<masterclipid>WHOOSHLARG…WHOOSHBYFS105004 1</masterclipid>
					<logginginfo>
						<scene/>
						<shottake/>
						<lognote/>
						<good>FALSE</good>
					</logginginfo>
					<labels>
						<label2/>
					</labels>
					<comments>
						<mastercomment1/>
						<mastercomment2/>
						<mastercomment3/>
						<mastercomment4/>
					</comments>
					<file id="WHOOSHLARG…WHOOSHBYFS105004 2"/>
					<filter>
						<effect>
							<name>Audio Levels</name>
							<effectid>audiolevels</effectid>
							<effectcategory>audiolevels</effectcategory>
							<effecttype>audiolevels</effecttype>
							<mediatype>audio</mediatype>
							<parameter>
								<name>Level</name>
								<parameterid>level</parameterid>
								<valuemin>0</valuemin>
								<valuemax>3.98109</valuemax>
								<keyframe>
									<when>163.571</when>
									<value>0.707946</value>
								</keyframe>
								<keyframe>
									<when>208.143</when>
									<value>0.354813</value>
								</keyframe>
								<keyframe>
									<when>245.286</when>
									<value>0.707946</value>
								</keyframe>
								<interpolation>
									<name>FCPCurve</name>
								</interpolation>
								<value>0.707946</value>
							</parameter>
						</effect>
					</filter>
					<filter>
						<effect>
							<name>Audio Pan</name>
							<effectid>audiopan</effectid>
							<effectcategory>audiopan</effectcategory>
							<effecttype>audiopan</effecttype>
							<mediatype>audio</mediatype>
							<parameter>
								<name>Pan</name>
								<parameterid>pan</parameterid>
								<valuemin>-1</valuemin>
								<valuemax>1</valuemax>
								<value>1</value>
							</parameter>
						</effect>
					</filter>
					<sourcetrack>
						<mediatype>audio</mediatype>
						<trackindex>2</trackindex>
					</sourcetrack>
					<link>
						<linkclipref>WHOOSHLARG…WHOOSHBYFS105004 14</linkclipref>
						<mediatype>audio</mediatype>
						<trackindex>9</trackindex>
						<clipindex>1</clipindex>
						<groupindex>1</groupindex>
					</link>
					<link>
						<linkclipref>WHOOSHLARG…WHOOSHBYFS105004 15</linkclipref>
						<mediatype>audio</mediatype>
						<trackindex>10</trackindex>
						<clipindex>1</clipindex>
						<groupindex>1</groupindex>
					</link>
					<itemhistory>
						<uuid>9268B0F3-4B19-4C75-B0BE-ACFD2FFB6435</uuid>
					</itemhistory>
					<filter>
						<effect>
							<name>Time Remap</name>
							<effectid>timeremap</effectid>
							<effectcategory>motion</effectcategory>
							<effecttype>motion</effecttype>
							<mediatype>audio</mediatype>
							<parameter>
								<parameterid>variablespeed</parameterid>
								<name>variablespeed</name>
								<valuemin>0</valuemin>
								<valuemax>1</valuemax>
								<value>0</value>
							</parameter>
							<parameter>
								<parameterid>mappedduration</parameterid>
								<name>mappedduration</name>
								<value>
									<timecode>
										<rate>
											<timebase>0</timebase>
										</rate>
										<string>0</string>
										<frame>0</frame>
										<displayformat>NDF</displayformat>
									</timecode>
								</value>
							</parameter>
							<parameter>
								<parameterid>speed</parameterid>
								<name>speed</name>
								<valuemin>-10000</valuemin>
								<valuemax>10000</valuemax>
								<value>10</value>
							</parameter>
							<parameter>
								<parameterid>reverse</parameterid>
								<name>reverse</name>
								<value>TRUE</value>
							</parameter>
							<parameter>
								<parameterid>frameblending</parameterid>
								<name>frameblending</name>
								<value>TRUE</value>
							</parameter>
							<parameter>
								<parameterid>graphdict</parameterid>
								<name>graphdict</name>
								<valuemin>0</valuemin>
								<valuemax>81</valuemax>
								<keyframe>
									<when>0</when>
									<value>83.0499</value>
									<speedkfstart>TRUE</speedkfstart>
									<speedvirtualkf>TRUE</speedvirtualkf>
									<anchorOffset>0.0499</anchorOffset>
								</keyframe>
								<keyframe>
									<when>507</when>
									<value>31.3499</value>
									<speedkfin>TRUE</speedkfin>
									<speedvirtualkf>TRUE</speedvirtualkf>
								</keyframe>
								<keyframe>
									<when>665</when>
									<value>15.5499</value>
									<speedkfout>TRUE</speedkfout>
									<speedvirtualkf>TRUE</speedvirtualkf>
								</keyframe>
								<keyframe>
									<when>811</when>
									<value>1.0499</value>
									<speedkfend>TRUE</speedkfend>
									<speedvirtualkf>TRUE</speedvirtualkf>
								</keyframe>
								<interpolation>
									<name>FCPCurve</name>
								</interpolation>
								<value>30.3499</value>
							</parameter>
						</effect>
					</filter>
				</clipitem>
				<clipitem id="WHOOSHLARG…WHOOSHBYFS105004 17">
					<name>WHOOSHLARG…WHOOSHBYFS105004</name>
					<duration>811</duration>
					<rate>
						<ntsc>FALSE</ntsc>
						<timebase>25</timebase>
					</rate>
					<in>665</in>
					<out>707</out>
					<start>12414</start>
					<end>12456</end>
					<enabled>TRUE</enabled>
					<masterclipid>WHOOSHLARG…WHOOSHBYFS105004 1</masterclipid>
					<logginginfo>
						<scene/>
						<shottake/>
						<lognote/>
						<good>FALSE</good>
					</logginginfo>
					<labels>
						<label2/>
					</labels>
					<comments>
						<mastercomment1/>
						<mastercomment2/>
						<mastercomment3/>
						<mastercomment4/>
					</comments>
					<file id="WHOOSHLARG…WHOOSHBYFS105004 2"/>
					<filter>
						<effect>
							<name>Audio Levels</name>
							<effectid>audiolevels</effectid>
							<effectcategory>audiolevels</effectcategory>
							<effecttype>audiolevels</effecttype>
							<mediatype>audio</mediatype>
							<parameter>
								<name>Level</name>
								<parameterid>level</parameterid>
								<valuemin>0</valuemin>
								<valuemax>3.98109</valuemax>
								<keyframe>
									<when>163.571</when>
									<value>0.707946</value>
								</keyframe>
								<keyframe>
									<when>208.143</when>
									<value>0.354813</value>
								</keyframe>
								<keyframe>
									<when>245.286</when>
									<value>0.707946</value>
								</keyframe>
								<interpolation>
									<name>FCPCurve</name>
								</interpolation>
								<value>0.707946</value>
							</parameter>
						</effect>
					</filter>
					<filter>
						<effect>
							<name>Audio Pan</name>
							<effectid>audiopan</effectid>
							<effectcategory>audiopan</effectcategory>
							<effecttype>audiopan</effecttype>
							<mediatype>audio</mediatype>
							<parameter>
								<name>Pan</name>
								<parameterid>pan</parameterid>
								<valuemin>-1</valuemin>
								<valuemax>1</valuemax>
								<value>1</value>
							</parameter>
						</effect>
					</filter>
					<sourcetrack>
						<mediatype>audio</mediatype>
						<trackindex>2</trackindex>
					</sourcetrack>
					<link>
						<linkclipref>WHOOSHLARG…WHOOSHBYFS105004 16</linkclipref>
						<mediatype>audio</mediatype>
						<trackindex>9</trackindex>
						<clipindex>2</clipindex>
						<groupindex>1</groupindex>
					</link>
					<link>
						<linkclipref>WHOOSHLARG…WHOOSHBYFS105004 17</linkclipref>
						<mediatype>audio</mediatype>
						<trackindex>10</trackindex>
						<clipindex>2</clipindex>
						<groupindex>1</groupindex>
					</link>
					<itemhistory>
						<uuid>ED5619EA-846B-42D7-AFD7-FCFFC8D06F98</uuid>
					</itemhistory>
					<filter>
						<effect>
							<name>Time Remap</name>
							<effectid>timeremap</effectid>
							<effectcategory>motion</effectcategory>
							<effecttype>motion</effecttype>
							<mediatype>audio</mediatype>
							<parameter>
								<parameterid>variablespeed</parameterid>
								<name>variablespeed</name>
								<valuemin>0</valuemin>
								<valuemax>1</valuemax>
								<value>0</value>
							</parameter>
							<parameter>
								<parameterid>mappedduration</parameterid>
								<name>mappedduration</name>
								<value>
									<timecode>
										<rate>
											<timebase>0</timebase>
										</rate>
										<string>0</string>
										<frame>0</frame>
										<displayformat>NDF</displayformat>
									</timecode>
								</value>
							</parameter>
							<parameter>
								<parameterid>speed</parameterid>
								<name>speed</name>
								<valuemin>-10000</valuemin>
								<valuemax>10000</valuemax>
								<value>10</value>
							</parameter>
							<parameter>
								<parameterid>reverse</parameterid>
								<name>reverse</name>
								<value>TRUE</value>
							</parameter>
							<parameter>
								<parameterid>frameblending</parameterid>
								<name>frameblending</name>
								<value>TRUE</value>
							</parameter>
							<parameter>
								<parameterid>graphdict</parameterid>
								<name>graphdict</name>
								<valuemin>0</valuemin>
								<valuemax>81</valuemax>
								<keyframe>
									<when>0</when>
									<value>83.0499</value>
									<speedkfstart>TRUE</speedkfstart>
									<speedvirtualkf>TRUE</speedvirtualkf>
									<anchorOffset>0.0499</anchorOffset>
								</keyframe>
								<keyframe>
									<when>665</when>
									<value>15.5499</value>
									<speedkfin>TRUE</speedkfin>
									<speedvirtualkf>TRUE</speedvirtualkf>
								</keyframe>
								<keyframe>
									<when>707</when>
									<value>11.3499</value>
									<speedkfout>TRUE</speedkfout>
									<speedvirtualkf>TRUE</speedvirtualkf>
								</keyframe>
								<keyframe>
									<when>811</when>
									<value>1.0499</value>
									<speedkfend>TRUE</speedkfend>
									<speedvirtualkf>TRUE</speedvirtualkf>
								</keyframe>
								<interpolation>
									<name>FCPCurve</name>
								</interpolation>
								<value>14.5499</value>
							</parameter>
						</effect>
					</filter>
				</clipitem>
				<clipitem id="WHOOSHLARG…WHOOSHBYFS105004 19">
					<name>WHOOSHLARG…WHOOSHBYFS105004</name>
					<duration>811</duration>
					<rate>
						<ntsc>FALSE</ntsc>
						<timebase>25</timebase>
					</rate>
					<in>679</in>
					<out>693</out>
					<start>12473</start>
					<end>12487</end>
					<enabled>TRUE</enabled>
					<masterclipid>WHOOSHLARG…WHOOSHBYFS105004 1</masterclipid>
					<logginginfo>
						<scene/>
						<shottake/>
						<lognote/>
						<good>FALSE</good>
					</logginginfo>
					<labels>
						<label2/>
					</labels>
					<comments>
						<mastercomment1/>
						<mastercomment2/>
						<mastercomment3/>
						<mastercomment4/>
					</comments>
					<file id="WHOOSHLARG…WHOOSHBYFS105004 2"/>
					<filter>
						<effect>
							<name>Audio Levels</name>
							<effectid>audiolevels</effectid>
							<effectcategory>audiolevels</effectcategory>
							<effecttype>audiolevels</effecttype>
							<mediatype>audio</mediatype>
							<parameter>
								<name>Level</name>
								<parameterid>level</parameterid>
								<valuemin>0</valuemin>
								<valuemax>3.98109</valuemax>
								<keyframe>
									<when>163.571</when>
									<value>0.707946</value>
								</keyframe>
								<keyframe>
									<when>208.143</when>
									<value>0.354813</value>
								</keyframe>
								<keyframe>
									<when>245.286</when>
									<value>0.707946</value>
								</keyframe>
								<interpolation>
									<name>FCPCurve</name>
								</interpolation>
								<value>0.707946</value>
							</parameter>
						</effect>
					</filter>
					<filter>
						<effect>
							<name>Audio Pan</name>
							<effectid>audiopan</effectid>
							<effectcategory>audiopan</effectcategory>
							<effecttype>audiopan</effecttype>
							<mediatype>audio</mediatype>
							<parameter>
								<name>Pan</name>
								<parameterid>pan</parameterid>
								<valuemin>-1</valuemin>
								<valuemax>1</valuemax>
								<value>1</value>
							</parameter>
						</effect>
					</filter>
					<sourcetrack>
						<mediatype>audio</mediatype>
						<trackindex>2</trackindex>
					</sourcetrack>
					<link>
						<linkclipref>WHOOSHLARG…WHOOSHBYFS105004 18</linkclipref>
						<mediatype>audio</mediatype>
						<trackindex>9</trackindex>
						<clipindex>3</clipindex>
						<groupindex>1</groupindex>
					</link>
					<link>
						<linkclipref>WHOOSHLARG…WHOOSHBYFS105004 19</linkclipref>
						<mediatype>audio</mediatype>
						<trackindex>10</trackindex>
						<clipindex>3</clipindex>
						<groupindex>1</groupindex>
					</link>
					<itemhistory>
						<uuid>04317E58-F884-4FEF-AF53-C708121C2F7C</uuid>
					</itemhistory>
					<filter>
						<effect>
							<name>Time Remap</name>
							<effectid>timeremap</effectid>
							<effectcategory>motion</effectcategory>
							<effecttype>motion</effecttype>
							<mediatype>audio</mediatype>
							<parameter>
								<parameterid>variablespeed</parameterid>
								<name>variablespeed</name>
								<valuemin>0</valuemin>
								<valuemax>1</valuemax>
								<value>0</value>
							</parameter>
							<parameter>
								<parameterid>mappedduration</parameterid>
								<name>mappedduration</name>
								<value>
									<timecode>
										<rate>
											<timebase>0</timebase>
										</rate>
										<string>0</string>
										<frame>0</frame>
										<displayformat>NDF</displayformat>
									</timecode>
								</value>
							</parameter>
							<parameter>
								<parameterid>speed</parameterid>
								<name>speed</name>
								<valuemin>-10000</valuemin>
								<valuemax>10000</valuemax>
								<value>10</value>
							</parameter>
							<parameter>
								<parameterid>reverse</parameterid>
								<name>reverse</name>
								<value>TRUE</value>
							</parameter>
							<parameter>
								<parameterid>frameblending</parameterid>
								<name>frameblending</name>
								<value>TRUE</value>
							</parameter>
							<parameter>
								<parameterid>graphdict</parameterid>
								<name>graphdict</name>
								<valuemin>0</valuemin>
								<valuemax>81</valuemax>
								<keyframe>
									<when>0</when>
									<value>83.0499</value>
									<speedkfstart>TRUE</speedkfstart>
									<speedvirtualkf>TRUE</speedvirtualkf>
									<anchorOffset>0.0499</anchorOffset>
								</keyframe>
								<keyframe>
									<when>679</when>
									<value>14.1499</value>
									<speedkfin>TRUE</speedkfin>
									<speedvirtualkf>TRUE</speedvirtualkf>
								</keyframe>
								<keyframe>
									<when>693</when>
									<value>12.7499</value>
									<speedkfout>TRUE</speedkfout>
									<speedvirtualkf>TRUE</speedvirtualkf>
								</keyframe>
								<keyframe>
									<when>811</when>
									<value>1.0499</value>
									<speedkfend>TRUE</speedkfend>
									<speedvirtualkf>TRUE</speedvirtualkf>
								</keyframe>
								<interpolation>
									<name>FCPCurve</name>
								</interpolation>
								<value>13.1499</value>
							</parameter>
						</effect>
					</filter>
				</clipitem>
				<enabled>TRUE</enabled>
				<locked>FALSE</locked>
				<outputchannelindex>2</outputchannelindex>
			</track>
			<filter>
				<effect>
					<name>Audio Levels</name>
					<effectid>audiolevels</effectid>
					<effectcategory>audiolevels</effectcategory>
					<effecttype>audiolevels</effecttype>
					<mediatype>audio</mediatype>
					<parameter>
						<name>Level</name>
						<parameterid>level</parameterid>
						<valuemin>0</valuemin>
						<valuemax>3.98109</valuemax>
						<value>1</value>
					</parameter>
				</effect>
			</filter>
		</audio>
	</media>
	<ismasterclip>FALSE</ismasterclip>
	<labels>
		<label>Best Take</label>
	</labels>
</sequence>
</xmeml>


