<?xml version="1.0" encoding="UTF-8"?>
<!DOCTYPE xmeml>
<xmeml version="4">
	<sequence id="sequence-2" TL.SQAudioVisibleBase="9" TL.SQVideoVisibleBase="0" TL.SQVisibleBaseTime="0" TL.SQAVDividerPosition="0.2738095223903656005859375" TL.SQHideShyTracks="0" TL.SQHeaderWidth="188" Monitor.ProgramZoomOut="440382458880000" Monitor.ProgramZoomIn="0" TL.SQTimePerPixel="0.094058159722222214882414448311" AM.TrackVScrollPosition="0" AM.TrackScrollPosition="0" MZ.EditLine="5344496640000" MZ.Sequence.PreviewFrameSizeHeight="1080" MZ.Sequence.PreviewFrameSizeWidth="1920" MZ.Sequence.AudioTimeDisplayFormat="200" MZ.Sequence.PreviewRenderingClassID="1297106761" MZ.Sequence.PreviewRenderingPresetCodec="1297107278" MZ.Sequence.PreviewRenderingPresetPath="EncoderPresets/SequencePreview/bcb27263-0b7a-406f-bda9-3d3796f18c3a/I-Frame Only MPEG.epr" MZ.Sequence.PreviewUseMaxRenderQuality="false" MZ.Sequence.PreviewUseMaxBitDepth="false" MZ.Sequence.EditingModeGUID="bcb27263-0b7a-406f-bda9-3d3796f18c3a" MZ.Sequence.VideoTimeDisplayFormat="101" MZ.WorkOutPoint="129446553600000" MZ.WorkInPoint="103973829120000" explodedTracks="true">
		<uuid>b3f4ff78-280c-4619-9811-ab5e2e763539</uuid>
		<duration>43342</duration>
		<rate>
			<timebase>25</timebase>
			<ntsc>FALSE</ntsc>
		</rate>
		<name>master v10 til lydmix</name>
		<media>
			<video>
				<format>
					<samplecharacteristics>
						<rate>
							<timebase>25</timebase>
							<ntsc>FALSE</ntsc>
						</rate>
						<codec>
							<name>Apple ProRes 422</name>
							<appspecificdata>
								<appname>Final Cut Pro</appname>
								<appmanufacturer>Apple Inc.</appmanufacturer>
								<appversion>7.0</appversion>
								<data>
									<qtcodec>
										<codecname>Apple ProRes 422</codecname>
										<codectypename>Apple ProRes 422</codectypename>
										<codectypecode>apcn</codectypecode>
										<codecvendorcode>appl</codecvendorcode>
										<spatialquality>1024</spatialquality>
										<temporalquality>0</temporalquality>
										<keyframerate>0</keyframerate>
										<datarate>0</datarate>
									</qtcodec>
								</data>
							</appspecificdata>
						</codec>
						<width>1920</width>
						<height>1080</height>
						<anamorphic>FALSE</anamorphic>
						<pixelaspectratio>square</pixelaspectratio>
						<fielddominance>upper</fielddominance>
						<colordepth>24</colordepth>
					</samplecharacteristics>
				</format>
				<track TL.SQTrackShy="0" TL.SQTrackExpandedHeight="65" TL.SQTrackExpanded="0" MZ.TrackTargeted="0">
					<clipitem id="clipitem-384" frameBlend="FALSE">
						<masterclipid>masterclip-2</masterclipid>
						<name>E_Intro_hjemme_tastatur.MOV</name>
						<enabled>TRUE</enabled>
						<duration>430</duration>
						<rate>
							<timebase>25</timebase>
							<ntsc>FALSE</ntsc>
						</rate>
						<start>0</start>
						<end>20</end>
						<in>178</in>
						<out>198</out>
						<alphatype>black</alphatype>
						<pixelaspectratio>square</pixelaspectratio>
						<anamorphic>FALSE</anamorphic>
						<file id="file-2">
							<name>E_Intro_hjemme_tastatur.MOV</name>
							<pathurl>file://localhost/Volumes/Brakka/AdobeLager/Katta/Katta-14xxxx-Smart_eller_overvaaket-Chris/02-Video/Mobilvideo%20restopptak%20begge/E_Intro_hjemme_tastatur.MOV</pathurl>
							<rate>
								<timebase>30</timebase>
								<ntsc>FALSE</ntsc>
							</rate>
							<duration>517</duration>
							<timecode>
								<rate>
									<timebase>30</timebase>
									<ntsc>FALSE</ntsc>
								</rate>
								<string>00:00:00:00</string>
								<frame>0</frame>
								<displayformat>NDF</displayformat>
								<reel>
									<name></name>
								</reel>
							</timecode>
							<media>
								<video>
									<duration>18000</duration>
									<samplecharacteristics>
										<rate>
											<timebase>30</timebase>
											<ntsc>FALSE</ntsc>
										</rate>
										<width>1920</width>
										<height>1080</height>
										<anamorphic>FALSE</anamorphic>
										<pixelaspectratio>square</pixelaspectratio>
										<fielddominance>none</fielddominance>
									</samplecharacteristics>
								</video>
								<audio>
									<samplecharacteristics>
										<depth>16</depth>
										<samplerate>44100</samplerate>
									</samplecharacteristics>
									<channelcount>1</channelcount>
									<layout>mono</layout>
									<audiochannel>
										<sourcechannel>1</sourcechannel>
										<channellabel>discrete</channellabel>
									</audiochannel>
								</audio>
							</media>
						</file>
						<logginginfo>
							<description></description>
							<scene></scene>
							<shottake></shottake>
							<lognote></lognote>
						</logginginfo>
						<labels>
							<label2>Iris</label2>
						</labels>
					</clipitem>
					<clipitem id="clipitem-385" frameBlend="FALSE">
						<masterclipid>masterclip-3</masterclipid>
						<name>E_Intro_skjerm.MOV</name>
						<enabled>TRUE</enabled>
						<duration>475</duration>
						<rate>
							<timebase>25</timebase>
							<ntsc>FALSE</ntsc>
						</rate>
						<start>20</start>
						<end>79</end>
						<in>234</in>
						<out>293</out>
						<alphatype>black</alphatype>
						<pixelaspectratio>square</pixelaspectratio>
						<anamorphic>FALSE</anamorphic>
						<file id="file-3">
							<name>E_Intro_skjerm.MOV</name>
							<pathurl>file://localhost/Volumes/Brakka/AdobeLager/Katta/Katta-14xxxx-Smart_eller_overvaaket-Chris/02-Video/Mobilvideo%20restopptak%20begge/E_Intro_skjerm.MOV</pathurl>
							<rate>
								<timebase>30</timebase>
								<ntsc>FALSE</ntsc>
							</rate>
							<duration>570</duration>
							<timecode>
								<rate>
									<timebase>30</timebase>
									<ntsc>FALSE</ntsc>
								</rate>
								<string>00:00:00:00</string>
								<frame>0</frame>
								<displayformat>NDF</displayformat>
								<reel>
									<name></name>
								</reel>
							</timecode>
							<media>
								<video>
									<duration>18000</duration>
									<samplecharacteristics>
										<rate>
											<timebase>30</timebase>
											<ntsc>FALSE</ntsc>
										</rate>
										<width>1920</width>
										<height>1080</height>
										<anamorphic>FALSE</anamorphic>
										<pixelaspectratio>square</pixelaspectratio>
										<fielddominance>none</fielddominance>
									</samplecharacteristics>
								</video>
								<audio>
									<samplecharacteristics>
										<depth>16</depth>
										<samplerate>44100</samplerate>
									</samplecharacteristics>
									<channelcount>1</channelcount>
									<layout>mono</layout>
									<audiochannel>
										<sourcechannel>1</sourcechannel>
										<channellabel>discrete</channellabel>
									</audiochannel>
								</audio>
							</media>
						</file>
						<logginginfo>
							<description></description>
							<scene></scene>
							<shottake></shottake>
							<lognote></lognote>
						</logginginfo>
						<labels>
							<label2>Iris</label2>
						</labels>
					</clipitem>
					<clipitem id="clipitem-386" frameBlend="FALSE">
						<masterclipid>masterclip-4</masterclipid>
						<name>E_Intro_hjemme_AVBRUDD.MOV</name>
						<enabled>TRUE</enabled>
						<duration>382</duration>
						<rate>
							<timebase>25</timebase>
							<ntsc>FALSE</ntsc>
						</rate>
						<start>79</start>
						<end>266</end>
						<in>77</in>
						<out>264</out>
						<alphatype>black</alphatype>
						<pixelaspectratio>square</pixelaspectratio>
						<anamorphic>FALSE</anamorphic>
						<file id="file-4">
							<name>E_Intro_hjemme_AVBRUDD.MOV</name>
							<pathurl>file://localhost/Volumes/Brakka/AdobeLager/Katta/Katta-14xxxx-Smart_eller_overvaaket-Chris/02-Video/Mobilvideo%20restopptak%20begge/E_Intro_hjemme_AVBRUDD.MOV</pathurl>
							<rate>
								<timebase>24</timebase>
								<ntsc>FALSE</ntsc>
							</rate>
							<duration>367</duration>
							<timecode>
								<rate>
									<timebase>24</timebase>
									<ntsc>FALSE</ntsc>
								</rate>
								<string>00:00:00:00</string>
								<frame>0</frame>
								<displayformat>NDF</displayformat>
								<reel>
									<name></name>
								</reel>
							</timecode>
							<media>
								<video>
									<duration>18000</duration>
									<samplecharacteristics>
										<rate>
											<timebase>24</timebase>
											<ntsc>FALSE</ntsc>
										</rate>
										<width>1280</width>
										<height>720</height>
										<anamorphic>FALSE</anamorphic>
										<pixelaspectratio>square</pixelaspectratio>
										<fielddominance>none</fielddominance>
									</samplecharacteristics>
								</video>
								<audio>
									<samplecharacteristics>
										<depth>16</depth>
										<samplerate>44100</samplerate>
									</samplecharacteristics>
									<channelcount>1</channelcount>
									<layout>mono</layout>
									<audiochannel>
										<sourcechannel>1</sourcechannel>
										<channellabel>discrete</channellabel>
									</audiochannel>
								</audio>
							</media>
						</file>
						<link>
							<linkclipref>clipitem-386</linkclipref>
							<mediatype>video</mediatype>
							<trackindex>1</trackindex>
							<clipindex>3</clipindex>
						</link>
						<link>
							<linkclipref>clipitem-998</linkclipref>
							<mediatype>audio</mediatype>
							<trackindex>1</trackindex>
							<clipindex>1</clipindex>
						</link>
						<logginginfo>
							<description></description>
							<scene></scene>
							<shottake></shottake>
							<lognote></lognote>
						</logginginfo>
						<labels>
							<label2>Iris</label2>
						</labels>
					</clipitem>
					<clipitem id="clipitem-387" frameBlend="FALSE">
						<masterclipid>masterclip-5</masterclipid>
						<name>Chris 469115669_h2.mov</name>
						<enabled>TRUE</enabled>
						<duration>92</duration>
						<rate>
							<timebase>25</timebase>
							<ntsc>FALSE</ntsc>
						</rate>
						<start>266</start>
						<end>338</end>
						<in>0</in>
						<out>72</out>
						<alphatype>none</alphatype>
						<pixelaspectratio>square</pixelaspectratio>
						<anamorphic>FALSE</anamorphic>
						<file id="file-5">
							<name>Chris 469115669_h2.mov</name>
							<pathurl>file://localhost/Volumes/Brakka/AdobeLager/Katta/Katta-14xxxx-Smart_eller_overvaaket-Chris/02-Video/Arkiv/Chris%20469115669_h2.mov</pathurl>
							<rate>
								<timebase>30</timebase>
								<ntsc>TRUE</ntsc>
							</rate>
							<duration>331</duration>
							<timecode>
								<rate>
									<timebase>30</timebase>
									<ntsc>TRUE</ntsc>
								</rate>
								<string>00:00:00:00</string>
								<frame>0</frame>
								<displayformat>NDF</displayformat>
								<reel>
									<name></name>
								</reel>
							</timecode>
							<media>
								<video>
									<duration>18000</duration>
									<samplecharacteristics>
										<rate>
											<timebase>30</timebase>
											<ntsc>TRUE</ntsc>
										</rate>
										<width>1920</width>
										<height>1080</height>
										<anamorphic>FALSE</anamorphic>
										<pixelaspectratio>square</pixelaspectratio>
										<fielddominance>none</fielddominance>
									</samplecharacteristics>
								</video>
							</media>
						</file>
							<filter>
								<effect>
									<name>Time Remap</name>
									<effectid>timeremap</effectid>
									<effectcategory>motion</effectcategory>
									<effecttype>motion</effecttype>
									<mediatype>video</mediatype>
									<parameter authoringApp="PremierePro">
										<parameterid>variablespeed</parameterid>
										<name>variablespeed</name>
										<valuemin>0</valuemin>
										<valuemax>1</valuemax>
										<value>0</value>
									</parameter>
									<parameter authoringApp="PremierePro">
										<parameterid>mappedduration</parameterid>
										<name>mappedduration</name>
										<value>
											<timecode>
												<rate>
													<timebase>0</timebase>
												</rate>
												<string>0</string>
												<frame>0</frame>
												<displayformat>NDF</displayformat>
											</timecode>
										</value>
									</parameter>
									<parameter authoringApp="PremierePro">
										<parameterid>speed</parameterid>
										<name>speed</name>
										<valuemin>-100000</valuemin>
										<valuemax>100000</valuemax>
										<value>300</value>
									</parameter>
									<parameter authoringApp="PremierePro">
										<parameterid>reverse</parameterid>
										<name>reverse</name>
										<value>FALSE</value>
									</parameter>
									<parameter authoringApp="PremierePro">
										<parameterid>frameblending</parameterid>
										<name>frameblending</name>
										<value>FALSE</value>
									</parameter>
								</effect>
							</filter>
						<logginginfo>
							<description></description>
							<scene></scene>
							<shottake></shottake>
							<lognote></lognote>
						</logginginfo>
						<labels>
							<label2>Violet</label2>
						</labels>
					</clipitem>
					<clipitem id="clipitem-388" frameBlend="FALSE">
						<masterclipid>masterclip-6</masterclipid>
						<name>136297_1_5_volvo.mov</name>
						<enabled>TRUE</enabled>
						<duration>3155</duration>
						<rate>
							<timebase>25</timebase>
							<ntsc>FALSE</ntsc>
						</rate>
						<start>338</start>
						<end>395</end>
						<in>1488</in>
						<out>1545</out>
						<alphatype>black</alphatype>
						<pixelaspectratio>square</pixelaspectratio>
						<anamorphic>FALSE</anamorphic>
						<file id="file-6">
							<name>136297_1_5_volvo.mov</name>
							<pathurl>file://localhost/Volumes/Brakka/AdobeLager/Katta/Katta-14xxxx-Smart_eller_overvaaket-Chris/02-Video/Arkiv/136297_1_5_volvo.mov</pathurl>
							<rate>
								<timebase>25</timebase>
								<ntsc>FALSE</ntsc>
							</rate>
							<duration>3155</duration>
							<timecode>
								<rate>
									<timebase>25</timebase>
									<ntsc>FALSE</ntsc>
								</rate>
								<string>00:00:00:00</string>
								<frame>0</frame>
								<displayformat>NDF</displayformat>
								<reel>
									<name></name>
								</reel>
							</timecode>
							<media>
								<video>
									<duration>18000</duration>
									<samplecharacteristics>
										<rate>
											<timebase>25</timebase>
											<ntsc>FALSE</ntsc>
										</rate>
										<width>1920</width>
										<height>1080</height>
										<anamorphic>FALSE</anamorphic>
										<pixelaspectratio>square</pixelaspectratio>
										<fielddominance>none</fielddominance>
									</samplecharacteristics>
								</video>
								<audio>
									<samplecharacteristics>
										<depth>16</depth>
										<samplerate>48000</samplerate>
									</samplecharacteristics>
									<channelcount>2</channelcount>
								</audio>
							</media>
						</file>
						<logginginfo>
							<description></description>
							<scene></scene>
							<shottake></shottake>
							<lognote></lognote>
						</logginginfo>
						<labels>
							<label2>Iris</label2>
						</labels>
					</clipitem>
					<clipitem id="clipitem-389" frameBlend="FALSE">
						<masterclipid>masterclip-7</masterclipid>
						<name>Chris 451764742_h1.mov</name>
						<enabled>TRUE</enabled>
						<duration>275</duration>
						<rate>
							<timebase>25</timebase>
							<ntsc>FALSE</ntsc>
						</rate>
						<start>395</start>
						<end>441</end>
						<in>62</in>
						<out>108</out>
						<alphatype>none</alphatype>
						<pixelaspectratio>square</pixelaspectratio>
						<anamorphic>FALSE</anamorphic>
						<file id="file-7">
							<name>Chris 451764742_h1.mov</name>
							<pathurl>file://localhost/Volumes/Brakka/AdobeLager/Katta/Katta-14xxxx-Smart_eller_overvaaket-Chris/02-Video/Arkiv/Chris%20451764742_h1.mov</pathurl>
							<rate>
								<timebase>24</timebase>
								<ntsc>TRUE</ntsc>
							</rate>
							<duration>264</duration>
							<timecode>
								<rate>
									<timebase>24</timebase>
									<ntsc>TRUE</ntsc>
								</rate>
								<string>00:00:00:00</string>
								<frame>0</frame>
								<displayformat>NDF</displayformat>
								<reel>
									<name></name>
								</reel>
							</timecode>
							<media>
								<video>
									<duration>18000</duration>
									<samplecharacteristics>
										<rate>
											<timebase>24</timebase>
											<ntsc>TRUE</ntsc>
										</rate>
										<width>1920</width>
										<height>1080</height>
										<anamorphic>FALSE</anamorphic>
										<pixelaspectratio>square</pixelaspectratio>
										<fielddominance>none</fielddominance>
									</samplecharacteristics>
								</video>
							</media>
						</file>
						<logginginfo>
							<description></description>
							<scene></scene>
							<shottake></shottake>
							<lognote></lognote>
						</logginginfo>
						<labels>
							<label2>Violet</label2>
						</labels>
					</clipitem>
					<clipitem id="clipitem-390" frameBlend="FALSE">
						<masterclipid>masterclip-8</masterclipid>
						<name>MVI_0359.MOVIBMulti</name>
						<enabled>TRUE</enabled>
						<duration>7759</duration>
						<rate>
							<timebase>25</timebase>
							<ntsc>FALSE</ntsc>
						</rate>
						<start>441</start>
						<end>510</end>
						<in>926</in>
						<out>995</out>
						<sequence id="sequence-4">
							<duration>150</duration>
							<rate>
								<timebase>25</timebase>
								<ntsc>FALSE</ntsc>
							</rate>
							<name>MVI_0359.MOVIBMulti-2</name>
							<media>
								<video>
									<format>
										<samplecharacteristics>
											<rate>
												<timebase>25</timebase>
												<ntsc>FALSE</ntsc>
											</rate>
											<codec>
												<name>Apple ProRes 422</name>
												<appspecificdata>
													<appname>Final Cut Pro</appname>
													<appmanufacturer>Apple Inc.</appmanufacturer>
													<appversion>7.0</appversion>
													<data>
														<qtcodec>
															<codecname>Apple ProRes 422</codecname>
															<codectypename>Apple ProRes 422</codectypename>
															<codectypecode>apcn</codectypecode>
															<codecvendorcode>appl</codecvendorcode>
															<spatialquality>1024</spatialquality>
															<temporalquality>0</temporalquality>
															<keyframerate>0</keyframerate>
															<datarate>0</datarate>
														</qtcodec>
													</data>
												</appspecificdata>
											</codec>
											<width>1920</width>
											<height>1080</height>
											<anamorphic>FALSE</anamorphic>
											<pixelaspectratio>square</pixelaspectratio>
											<fielddominance>none</fielddominance>
											<colordepth>24</colordepth>
										</samplecharacteristics>
									</format>
									<track TL.SQTrackShy="0" TL.SQTrackExpandedHeight="25" TL.SQTrackExpanded="0" MZ.TrackTargeted="0">
										<clipitem id="clipitem-394" frameBlend="FALSE">
											<masterclipid>masterclip-10</masterclipid>
											<name>AA034901.MXF</name>
											<enabled>TRUE</enabled>
											<duration>7584</duration>
											<rate>
												<timebase>25</timebase>
												<ntsc>FALSE</ntsc>
											</rate>
											<start>175</start>
											<end>7759</end>
											<in>0</in>
											<out>7584</out>
											<alphatype>none</alphatype>
											<pixelaspectratio>square</pixelaspectratio>
											<anamorphic>FALSE</anamorphic>
											<file id="file-9">
												<name>AA034901.MXF</name>
												<pathurl>file://localhost/Volumes/Brakka/AdobeLager/Katta/Katta-14xxxx-Smart_eller_overvaaket-Chris/02-Video/IBM%20C300/CONTENTS/CLIPS001/AA0349/AA034901.MXF</pathurl>
												<rate>
													<timebase>25</timebase>
													<ntsc>FALSE</ntsc>
												</rate>
												<duration>7584</duration>
												<timecode>
													<rate>
														<timebase>25</timebase>
														<ntsc>FALSE</ntsc>
													</rate>
													<string>06:16:10:14</string>
													<frame>564264</frame>
													<displayformat>NDF</displayformat>
													<reel>
														<name></name>
													</reel>
												</timecode>
												<media>
													<video>
														<duration>18000</duration>
														<samplecharacteristics>
															<rate>
																<timebase>25</timebase>
																<ntsc>FALSE</ntsc>
															</rate>
															<width>1920</width>
															<height>1080</height>
															<anamorphic>FALSE</anamorphic>
															<pixelaspectratio>square</pixelaspectratio>
															<fielddominance>none</fielddominance>
														</samplecharacteristics>
													</video>
													<audio>
														<samplecharacteristics>
															<depth>16</depth>
															<samplerate>48000</samplerate>
														</samplecharacteristics>
														<channelcount>1</channelcount>
														<layout>mono</layout>
														<audiochannel>
															<sourcechannel>1</sourcechannel>
															<channellabel>discrete</channellabel>
														</audiochannel>
													</audio>
													<audio>
														<samplecharacteristics>
															<depth>16</depth>
															<samplerate>48000</samplerate>
														</samplecharacteristics>
														<channelcount>1</channelcount>
														<layout>mono</layout>
														<audiochannel>
															<sourcechannel>2</sourcechannel>
															<channellabel>discrete</channellabel>
														</audiochannel>
													</audio>
												</media>
											</file>
											<logginginfo>
												<description></description>
												<scene></scene>
												<shottake>AA0349</shottake>
												<lognote></lognote>
											</logginginfo>
											<labels>
												<label2>Iris</label2>
											</labels>
										</clipitem>
										<enabled>TRUE</enabled>
										<locked>FALSE</locked>
									</track>
								</video>
								<audio>
									<format>
										<samplecharacteristics>
											<depth>16</depth>
											<samplerate>48000</samplerate>
										</samplecharacteristics>
									</format>
									<outputs>
										<group>
											<index>1</index>
											<numchannels>1</numchannels>
											<downmix>0</downmix>
											<channel>
												<index>1</index>
											</channel>
										</group>
										<group>
											<index>2</index>
											<numchannels>1</numchannels>
											<downmix>0</downmix>
											<channel>
												<index>2</index>
											</channel>
										</group>
										<group>
											<index>3</index>
											<numchannels>1</numchannels>
											<downmix>0</downmix>
											<channel>
												<index>3</index>
											</channel>
										</group>
										<group>
											<index>4</index>
											<numchannels>1</numchannels>
											<downmix>0</downmix>
											<channel>
												<index>4</index>
											</channel>
										</group>
									</outputs>
									<track TL.SQTrackAudioKeyframeStyle="0" TL.SQTrackShy="0" TL.SQTrackExpandedHeight="25" TL.SQTrackExpanded="0" MZ.TrackTargeted="1" PannerCurrentValue="1." PannerIsInverted="true" PannerStartKeyframe="-91445760000000000,1.,0,0,0,0,0,0" PannerName="Balance" currentExplodedTrackIndex="0" totalExplodedTrackCount="1" premiereTrackType="Stereo">
										<clipitem id="clipitem-393" frameBlend="FALSE" PannerCurrentValue="0.5" PannerKeyframes="" PannerStartKeyframe="-91445760000000000,0.5,0,0,0,0,0,0" PannerIsInverted="true" PannerName="Pan">
											<masterclipid>masterclip-9</masterclipid>
											<name>MVI_0359.MOV</name>
											<enabled>TRUE</enabled>
											<duration>7512</duration>
											<rate>
												<timebase>25</timebase>
												<ntsc>FALSE</ntsc>
											</rate>
											<start>0</start>
											<end>7512</end>
											<in>0</in>
											<out>7512</out>
											<file id="file-8"/>
											<sourcetrack>
												<mediatype>audio</mediatype>
												<trackindex>2</trackindex>
											</sourcetrack>
												<filter>
													<effect>
														<name>Audio Pan</name>
														<effectid>audiopan</effectid>
														<effectcategory>audiopan</effectcategory>
														<effecttype>audiopan</effecttype>
														<mediatype>audio</mediatype>
														<parameter authoringApp="PremierePro">
															<parameterid>pan</parameterid>
															<name>Pan</name>
															<valuemin>-1</valuemin>
															<valuemax>1</valuemax>
															<value>0</value>
														</parameter>
													</effect>
												</filter>
											<logginginfo>
												<description></description>
												<scene></scene>
												<shottake></shottake>
												<lognote></lognote>
											</logginginfo>
											<labels>
												<label2>Iris</label2>
											</labels>
										</clipitem>
										<enabled>TRUE</enabled>
										<locked>FALSE</locked>
										<outputchannelindex>1</outputchannelindex>
									</track>
								</audio>
							</media>
							<timecode>
								<rate>
									<timebase>25</timebase>
									<ntsc>FALSE</ntsc>
								</rate>
								<string>00:00:00:00</string>
								<frame>0</frame>
								<displayformat>NDF</displayformat>
							</timecode>
						</sequence>
						<labels>
							<label2>Forest</label2>
						</labels>
					</clipitem>
					<clipitem id="clipitem-396" frameBlend="FALSE">
						<masterclipid>masterclip-11</masterclipid>
						<name>Chris 117450910_h8.mov</name>
						<enabled>TRUE</enabled>
						<duration>113</duration>
						<rate>
							<timebase>25</timebase>
							<ntsc>FALSE</ntsc>
						</rate>
						<start>510</start>
						<end>563</end>
						<in>0</in>
						<out>52</out>
						<alphatype>none</alphatype>
						<pixelaspectratio>square</pixelaspectratio>
						<anamorphic>FALSE</anamorphic>
						<file id="file-10">
							<name>Chris 117450910_h8.mov</name>
							<pathurl>file://localhost/Volumes/Brakka/AdobeLager/Katta/Katta-14xxxx-Smart_eller_overvaaket-Chris/02-Video/Arkiv/Chris%20117450910_h8.mov</pathurl>
							<rate>
								<timebase>24</timebase>
								<ntsc>TRUE</ntsc>
							</rate>
							<duration>654</duration>
							<timecode>
								<rate>
									<timebase>24</timebase>
									<ntsc>TRUE</ntsc>
								</rate>
								<string>00:00:00:00</string>
								<frame>0</frame>
								<displayformat>NDF</displayformat>
								<reel>
									<name></name>
								</reel>
							</timecode>
							<media>
								<video>
									<duration>18000</duration>
									<samplecharacteristics>
										<rate>
											<timebase>24</timebase>
											<ntsc>TRUE</ntsc>
										</rate>
										<width>1920</width>
										<height>1080</height>
										<anamorphic>FALSE</anamorphic>
										<pixelaspectratio>square</pixelaspectratio>
										<fielddominance>none</fielddominance>
									</samplecharacteristics>
								</video>
							</media>
						</file>
							<filter>
								<effect>
									<name>Time Remap</name>
									<effectid>timeremap</effectid>
									<effectcategory>motion</effectcategory>
									<effecttype>motion</effecttype>
									<mediatype>video</mediatype>
									<parameter authoringApp="PremierePro">
										<parameterid>variablespeed</parameterid>
										<name>variablespeed</name>
										<valuemin>0</valuemin>
										<valuemax>1</valuemax>
										<value>0</value>
									</parameter>
									<parameter authoringApp="PremierePro">
										<parameterid>mappedduration</parameterid>
										<name>mappedduration</name>
										<value>
											<timecode>
												<rate>
													<timebase>0</timebase>
												</rate>
												<string>0</string>
												<frame>0</frame>
												<displayformat>NDF</displayformat>
											</timecode>
										</value>
									</parameter>
									<parameter authoringApp="PremierePro">
										<parameterid>speed</parameterid>
										<name>speed</name>
										<valuemin>-100000</valuemin>
										<valuemax>100000</valuemax>
										<value>598.185</value>
									</parameter>
									<parameter authoringApp="PremierePro">
										<parameterid>reverse</parameterid>
										<name>reverse</name>
										<value>FALSE</value>
									</parameter>
									<parameter authoringApp="PremierePro">
										<parameterid>frameblending</parameterid>
										<name>frameblending</name>
										<value>FALSE</value>
									</parameter>
								</effect>
							</filter>
						<logginginfo>
							<description></description>
							<scene></scene>
							<shottake></shottake>
							<lognote></lognote>
						</logginginfo>
						<labels>
							<label2>Violet</label2>
						</labels>
					</clipitem>
					<clipitem id="clipitem-397" frameBlend="FALSE">
						<masterclipid>masterclip-12</masterclipid>
						<name>MVI_0119.MOV</name>
						<enabled>TRUE</enabled>
						<duration>214</duration>
						<rate>
							<timebase>25</timebase>
							<ntsc>FALSE</ntsc>
						</rate>
						<start>563</start>
						<end>601</end>
						<in>13</in>
						<out>51</out>
						<alphatype>black</alphatype>
						<pixelaspectratio>square</pixelaspectratio>
						<anamorphic>FALSE</anamorphic>
						<file id="file-11">
							<name>MVI_0119.MOV</name>
							<pathurl>file://localhost/Volumes/Brakka/AdobeLager/Katta/Katta-14xxxx-Smart_eller_overvaaket-Chris/02-Video/COWI%20Varemesse%205D/DCIM/100EOS5D/MVI_0119.MOV</pathurl>
							<rate>
								<timebase>25</timebase>
								<ntsc>FALSE</ntsc>
							</rate>
							<duration>214</duration>
							<timecode>
								<rate>
									<timebase>25</timebase>
									<ntsc>FALSE</ntsc>
								</rate>
								<string>00:00:00:00</string>
								<frame>0</frame>
								<displayformat>NDF</displayformat>
								<reel>
									<name></name>
								</reel>
							</timecode>
							<media>
								<video>
									<duration>18000</duration>
									<samplecharacteristics>
										<rate>
											<timebase>25</timebase>
											<ntsc>FALSE</ntsc>
										</rate>
										<width>1920</width>
										<height>1080</height>
										<anamorphic>FALSE</anamorphic>
										<pixelaspectratio>square</pixelaspectratio>
										<fielddominance>none</fielddominance>
									</samplecharacteristics>
								</video>
								<audio>
									<samplecharacteristics>
										<depth>16</depth>
										<samplerate>48000</samplerate>
									</samplecharacteristics>
									<channelcount>2</channelcount>
								</audio>
							</media>
						</file>
						<logginginfo>
							<description></description>
							<scene></scene>
							<shottake></shottake>
							<lognote></lognote>
						</logginginfo>
						<labels>
							<label2>Iris</label2>
						</labels>
					</clipitem>
					<clipitem id="clipitem-398" frameBlend="FALSE">
						<masterclipid>masterclip-13</masterclipid>
						<name>MVI_0130.MOV</name>
						<enabled>TRUE</enabled>
						<duration>1756</duration>
						<rate>
							<timebase>25</timebase>
							<ntsc>FALSE</ntsc>
						</rate>
						<start>601</start>
						<end>643</end>
						<in>375</in>
						<out>417</out>
						<alphatype>black</alphatype>
						<pixelaspectratio>square</pixelaspectratio>
						<anamorphic>FALSE</anamorphic>
						<file id="file-12">
							<name>MVI_0130.MOV</name>
							<pathurl>file://localhost/Volumes/Brakka/AdobeLager/Katta/Katta-14xxxx-Smart_eller_overvaaket-Chris/02-Video/COWI%20Varemesse%205D/DCIM/100EOS5D/MVI_0130.MOV</pathurl>
							<rate>
								<timebase>25</timebase>
								<ntsc>FALSE</ntsc>
							</rate>
							<duration>1756</duration>
							<timecode>
								<rate>
									<timebase>25</timebase>
									<ntsc>FALSE</ntsc>
								</rate>
								<string>00:00:00:00</string>
								<frame>0</frame>
								<displayformat>NDF</displayformat>
								<reel>
									<name></name>
								</reel>
							</timecode>
							<media>
								<video>
									<duration>18000</duration>
									<samplecharacteristics>
										<rate>
											<timebase>25</timebase>
											<ntsc>FALSE</ntsc>
										</rate>
										<width>1920</width>
										<height>1080</height>
										<anamorphic>FALSE</anamorphic>
										<pixelaspectratio>square</pixelaspectratio>
										<fielddominance>none</fielddominance>
									</samplecharacteristics>
								</video>
								<audio>
									<samplecharacteristics>
										<depth>16</depth>
										<samplerate>48000</samplerate>
									</samplecharacteristics>
									<channelcount>2</channelcount>
								</audio>
							</media>
						</file>
						<logginginfo>
							<description></description>
							<scene></scene>
							<shottake></shottake>
							<lognote></lognote>
						</logginginfo>
						<labels>
							<label2>Iris</label2>
						</labels>
					</clipitem>
					<clipitem id="clipitem-399" frameBlend="FALSE">
						<masterclipid>masterclip-14</masterclipid>
						<name>AA050001.MXF</name>
						<enabled>TRUE</enabled>
						<duration>10644</duration>
						<rate>
							<timebase>25</timebase>
							<ntsc>FALSE</ntsc>
						</rate>
						<start>643</start>
						<end>716</end>
						<in>7752</in>
						<out>7825</out>
						<alphatype>none</alphatype>
						<pixelaspectratio>square</pixelaspectratio>
						<anamorphic>FALSE</anamorphic>
						<file id="file-13">
							<name>AA050001.MXF</name>
							<pathurl>file://localhost/Volumes/Brakka/AdobeLager/Katta/Katta-14xxxx-Smart_eller_overvaaket-Chris/02-Video/Datatilsynet%20Case%20C300/CONTENTS/CLIPS001/AA0500/AA050001.MXF</pathurl>
							<rate>
								<timebase>25</timebase>
								<ntsc>FALSE</ntsc>
							</rate>
							<duration>10644</duration>
							<timecode>
								<rate>
									<timebase>25</timebase>
									<ntsc>FALSE</ntsc>
								</rate>
								<string>10:41:59:01</string>
								<frame>962976</frame>
								<displayformat>NDF</displayformat>
								<reel>
									<name></name>
								</reel>
							</timecode>
							<media>
								<video>
									<duration>18000</duration>
									<samplecharacteristics>
										<rate>
											<timebase>25</timebase>
											<ntsc>FALSE</ntsc>
										</rate>
										<width>1920</width>
										<height>1080</height>
										<anamorphic>FALSE</anamorphic>
										<pixelaspectratio>square</pixelaspectratio>
										<fielddominance>none</fielddominance>
									</samplecharacteristics>
								</video>
								<audio>
									<samplecharacteristics>
										<depth>16</depth>
										<samplerate>48000</samplerate>
									</samplecharacteristics>
									<channelcount>1</channelcount>
									<layout>mono</layout>
									<audiochannel>
										<sourcechannel>1</sourcechannel>
										<channellabel>discrete</channellabel>
									</audiochannel>
								</audio>
								<audio>
									<samplecharacteristics>
										<depth>16</depth>
										<samplerate>48000</samplerate>
									</samplecharacteristics>
									<channelcount>1</channelcount>
									<layout>mono</layout>
									<audiochannel>
										<sourcechannel>2</sourcechannel>
										<channellabel>discrete</channellabel>
									</audiochannel>
								</audio>
							</media>
						</file>
							<marker>
								<comment>vi har valgmuligheter</comment>
								<name>ikke redd</name>
								<in>4502</in>
								<out>-1</out>
							</marker>
							<marker>
								<comment>det er ikke ond vilje, men alle de gode formￃﾥlene vil bli utvidet</comment>
								<name>gode formￃﾥl</name>
								<in>2400</in>
								<out>-1</out>
							</marker>
							<marker>
								<comment>har vi stￃﾸrre krav pￃﾥ ￃﾥ ha vￃﾥrt privatliv i fred</comment>
								<name>hvis vi er lovlydige</name>
								<in>8469</in>
								<out>-1</out>
							</marker>
							<marker>
								<comment></comment>
								<name></name>
								<in>2965</in>
								<out>-1</out>
							</marker>
							<marker>
								<comment>er du redd nￃﾥr mer og mer blir intelligent</comment>
								<name>frykter du </name>
								<in>3267</in>
								<out>-1</out>
							</marker>
							<marker>
								<comment></comment>
								<name></name>
								<in>3906</in>
								<out>-1</out>
							</marker>
							<marker>
								<comment>er ikke en vaksine mot totalitￃﾦre tendenser</comment>
								<name>demokrati</name>
								<in>5809</in>
								<out>-1</out>
							</marker>
							<marker>
								<comment>velger selv hvilken vei vi vil gￃﾥ</comment>
								<name>kan velge vei</name>
								<in>4698</in>
								<out>-1</out>
							</marker>
							<marker>
								<comment>hva blir de faktiske fￃﾸlgen dersom lt vi gjￃﾸr blr registrert</comment>
								<name>ikke tillit</name>
								<in>1338</in>
								<out>-1</out>
							</marker>
							<marker>
								<comment>vil dukke opp nye formￃﾥl og de vil kunne utvides</comment>
								<name>nye formￃﾥl</name>
								<in>9188</in>
								<out>-1</out>
							</marker>
						<logginginfo>
							<description></description>
							<scene></scene>
							<shottake>AA0500</shottake>
							<lognote></lognote>
						</logginginfo>
						<labels>
							<label2>Iris</label2>
						</labels>
					</clipitem>
					<clipitem id="clipitem-400" frameBlend="FALSE">
						<masterclipid>masterclip-15</masterclipid>
						<name>Intel_Telematics_Final-rev.mp4</name>
						<enabled>TRUE</enabled>
						<duration>940</duration>
						<rate>
							<timebase>25</timebase>
							<ntsc>FALSE</ntsc>
						</rate>
						<start>716</start>
						<end>747</end>
						<in>228</in>
						<out>259</out>
						<alphatype>black</alphatype>
						<pixelaspectratio>square</pixelaspectratio>
						<anamorphic>FALSE</anamorphic>
						<file id="file-14">
							<name>Intel_Telematics_Final-rev.mp4</name>
							<pathurl>file://localhost/Volumes/Brakka/AdobeLager/Katta/Katta-14xxxx-Smart_eller_overvaaket-Chris/02-Video/Arkiv/Intel_Telematics_Final-rev.mp4</pathurl>
							<rate>
								<timebase>30</timebase>
								<ntsc>TRUE</ntsc>
							</rate>
							<duration>4509</duration>
							<timecode>
								<rate>
									<timebase>30</timebase>
									<ntsc>TRUE</ntsc>
								</rate>
								<string>00:00:00:00</string>
								<frame>0</frame>
								<displayformat>NDF</displayformat>
								<reel>
									<name></name>
								</reel>
							</timecode>
							<media>
								<video>
									<duration>18000</duration>
									<samplecharacteristics>
										<rate>
											<timebase>30</timebase>
											<ntsc>TRUE</ntsc>
										</rate>
										<width>1920</width>
										<height>1080</height>
										<anamorphic>FALSE</anamorphic>
										<pixelaspectratio>square</pixelaspectratio>
										<fielddominance>none</fielddominance>
									</samplecharacteristics>
								</video>
								<audio>
									<samplecharacteristics>
										<depth>16</depth>
										<samplerate>48000</samplerate>
									</samplecharacteristics>
									<channelcount>2</channelcount>
								</audio>
							</media>
						</file>
							<filter>
								<effect>
									<name>Time Remap</name>
									<effectid>timeremap</effectid>
									<effectcategory>motion</effectcategory>
									<effecttype>motion</effecttype>
									<mediatype>video</mediatype>
									<parameter authoringApp="PremierePro">
										<parameterid>variablespeed</parameterid>
										<name>variablespeed</name>
										<valuemin>0</valuemin>
										<valuemax>1</valuemax>
										<value>0</value>
									</parameter>
									<parameter authoringApp="PremierePro">
										<parameterid>mappedduration</parameterid>
										<name>mappedduration</name>
										<value>
											<timecode>
												<rate>
													<timebase>0</timebase>
												</rate>
												<string>0</string>
												<frame>0</frame>
												<displayformat>NDF</displayformat>
											</timecode>
										</value>
									</parameter>
									<parameter authoringApp="PremierePro">
										<parameterid>speed</parameterid>
										<name>speed</name>
										<valuemin>-100000</valuemin>
										<valuemax>100000</valuemax>
										<value>400</value>
									</parameter>
									<parameter authoringApp="PremierePro">
										<parameterid>reverse</parameterid>
										<name>reverse</name>
										<value>FALSE</value>
									</parameter>
									<parameter authoringApp="PremierePro">
										<parameterid>frameblending</parameterid>
										<name>frameblending</name>
										<value>FALSE</value>
									</parameter>
								</effect>
							</filter>
						<logginginfo>
							<description></description>
							<scene></scene>
							<shottake></shottake>
							<lognote></lognote>
						</logginginfo>
						<labels>
							<label2>Iris</label2>
						</labels>
					</clipitem>
					<clipitem id="clipitem-401" frameBlend="FALSE">
						<masterclipid>masterclip-16</masterclipid>
						<name>nowdwn.mov</name>
						<enabled>TRUE</enabled>
						<duration>20</duration>
						<rate>
							<timebase>25</timebase>
							<ntsc>FALSE</ntsc>
						</rate>
						<start>747</start>
						<end>766</end>
						<in>0</in>
						<out>19</out>
						<alphatype>none</alphatype>
						<pixelaspectratio>square</pixelaspectratio>
						<anamorphic>FALSE</anamorphic>
						<file id="file-15">
							<name>nowdwn.mov</name>
							<pathurl>file://localhost/Volumes/Brakka/AdobeLager/Katta/Katta-14xxxx-Smart_eller_overvaaket-Chris/02-Video/Arkiv/nowdwn.mov</pathurl>
							<rate>
								<timebase>25</timebase>
								<ntsc>FALSE</ntsc>
							</rate>
							<duration>20</duration>
							<timecode>
								<rate>
									<timebase>25</timebase>
									<ntsc>FALSE</ntsc>
								</rate>
								<string>00:00:29:22</string>
								<frame>747</frame>
								<displayformat>NDF</displayformat>
								<reel>
									<name></name>
								</reel>
							</timecode>
							<media>
								<video>
									<duration>18000</duration>
									<samplecharacteristics>
										<rate>
											<timebase>25</timebase>
											<ntsc>FALSE</ntsc>
										</rate>
										<width>1920</width>
										<height>1080</height>
										<anamorphic>FALSE</anamorphic>
										<pixelaspectratio>square</pixelaspectratio>
										<fielddominance>upper</fielddominance>
									</samplecharacteristics>
								</video>
								<audio>
									<samplecharacteristics>
										<depth>16</depth>
										<samplerate>48000</samplerate>
									</samplecharacteristics>
									<channelcount>2</channelcount>
								</audio>
							</media>
						</file>
						<logginginfo>
							<description></description>
							<scene></scene>
							<shottake></shottake>
							<lognote></lognote>
						</logginginfo>
						<labels>
							<label2>Iris</label2>
						</labels>
					</clipitem>
					<clipitem id="clipitem-402" frameBlend="FALSE">
						<masterclipid>masterclip-17</masterclipid>
						<name>Rio (IBM).mov</name>
						<enabled>TRUE</enabled>
						<duration>2627</duration>
						<rate>
							<timebase>25</timebase>
							<ntsc>FALSE</ntsc>
						</rate>
						<start>766</start>
						<end>804</end>
						<in>2059</in>
						<out>2097</out>
						<alphatype>black</alphatype>
						<pixelaspectratio>square</pixelaspectratio>
						<anamorphic>FALSE</anamorphic>
						<file id="file-16">
							<name>Rio (IBM).mov</name>
							<pathurl>file://localhost/Volumes/Brakka/AdobeLager/Katta/Katta-14xxxx-Smart_eller_overvaaket-Chris/02-Video/Arkiv/Rio%20(IBM).mov</pathurl>
							<rate>
								<timebase>30</timebase>
								<ntsc>TRUE</ntsc>
							</rate>
							<duration>12600</duration>
							<timecode>
								<rate>
									<timebase>30</timebase>
									<ntsc>TRUE</ntsc>
								</rate>
								<string>00:00:00:00</string>
								<frame>0</frame>
								<displayformat>NDF</displayformat>
								<reel>
									<name></name>
								</reel>
							</timecode>
							<media>
								<video>
									<duration>18000</duration>
									<samplecharacteristics>
										<rate>
											<timebase>30</timebase>
											<ntsc>TRUE</ntsc>
										</rate>
										<width>1280</width>
										<height>720</height>
										<anamorphic>FALSE</anamorphic>
										<pixelaspectratio>square</pixelaspectratio>
										<fielddominance>none</fielddominance>
									</samplecharacteristics>
								</video>
								<audio>
									<samplecharacteristics>
										<depth>16</depth>
										<samplerate>48000</samplerate>
									</samplecharacteristics>
									<channelcount>1</channelcount>
									<layout>mono</layout>
									<audiochannel>
										<sourcechannel>1</sourcechannel>
										<channellabel>discrete</channellabel>
									</audiochannel>
								</audio>
								<audio>
									<samplecharacteristics>
										<depth>16</depth>
										<samplerate>48000</samplerate>
									</samplecharacteristics>
									<channelcount>1</channelcount>
									<layout>mono</layout>
									<audiochannel>
										<sourcechannel>2</sourcechannel>
										<channellabel>discrete</channellabel>
									</audiochannel>
								</audio>
							</media>
						</file>
							<filter>
								<effect>
									<name>Basic Motion</name>
									<effectid>basic</effectid>
									<effectcategory>motion</effectcategory>
									<effecttype>motion</effecttype>
									<mediatype>video</mediatype>
									<parameter authoringApp="PremierePro">
										<parameterid>scale</parameterid>
										<name>Scale</name>
										<valuemin>0</valuemin>
										<valuemax>1000</valuemax>
										<value>150</value>
									</parameter>
									<parameter authoringApp="PremierePro">
										<parameterid>rotation</parameterid>
										<name>Rotation</name>
										<valuemin>-8640</valuemin>
										<valuemax>8640</valuemax>
										<value>0</value>
									</parameter>
									<parameter authoringApp="PremierePro">
										<parameterid>center</parameterid>
										<name>Center</name>
										<value>
											<horiz>0</horiz>
											<vert>0</vert>
										</value>
									</parameter>
									<parameter authoringApp="PremierePro">
										<parameterid>centerOffset</parameterid>
										<name>Anchor Point</name>
										<value>
											<horiz>0</horiz>
											<vert>0</vert>
										</value>
									</parameter>
								</effect>
							</filter>
							<filter>
								<effect>
									<name>Time Remap</name>
									<effectid>timeremap</effectid>
									<effectcategory>motion</effectcategory>
									<effecttype>motion</effecttype>
									<mediatype>video</mediatype>
									<parameter authoringApp="PremierePro">
										<parameterid>variablespeed</parameterid>
										<name>variablespeed</name>
										<valuemin>0</valuemin>
										<valuemax>1</valuemax>
										<value>0</value>
									</parameter>
									<parameter authoringApp="PremierePro">
										<parameterid>mappedduration</parameterid>
										<name>mappedduration</name>
										<value>
											<timecode>
												<rate>
													<timebase>0</timebase>
												</rate>
												<string>0</string>
												<frame>0</frame>
												<displayformat>NDF</displayformat>
											</timecode>
										</value>
									</parameter>
									<parameter authoringApp="PremierePro">
										<parameterid>speed</parameterid>
										<name>speed</name>
										<valuemin>-100000</valuemin>
										<valuemax>100000</valuemax>
										<value>400</value>
									</parameter>
									<parameter authoringApp="PremierePro">
										<parameterid>reverse</parameterid>
										<name>reverse</name>
										<value>FALSE</value>
									</parameter>
									<parameter authoringApp="PremierePro">
										<parameterid>frameblending</parameterid>
										<name>frameblending</name>
										<value>FALSE</value>
									</parameter>
								</effect>
							</filter>
						<logginginfo>
							<description></description>
							<scene></scene>
							<shottake></shottake>
							<lognote></lognote>
						</logginginfo>
						<labels>
							<label2>Iris</label2>
						</labels>
					</clipitem>
					<clipitem id="clipitem-403" frameBlend="FALSE">
						<masterclipid>masterclip-18</masterclipid>
						<name>E_Intro_hjemme.MOV</name>
						<enabled>TRUE</enabled>
						<duration>589</duration>
						<rate>
							<timebase>25</timebase>
							<ntsc>FALSE</ntsc>
						</rate>
						<start>804</start>
						<end>891</end>
						<in>429</in>
						<out>516</out>
						<alphatype>black</alphatype>
						<pixelaspectratio>square</pixelaspectratio>
						<anamorphic>FALSE</anamorphic>
						<file id="file-17">
							<name>E_Intro_hjemme.MOV</name>
							<pathurl>file://localhost/Volumes/Brakka/AdobeLager/Katta/Katta-14xxxx-Smart_eller_overvaaket-Chris/02-Video/Mobilvideo%20restopptak%20begge/E_Intro_hjemme.MOV</pathurl>
							<rate>
								<timebase>24</timebase>
								<ntsc>FALSE</ntsc>
							</rate>
							<duration>566</duration>
							<timecode>
								<rate>
									<timebase>24</timebase>
									<ntsc>FALSE</ntsc>
								</rate>
								<string>00:00:00:00</string>
								<frame>0</frame>
								<displayformat>NDF</displayformat>
								<reel>
									<name></name>
								</reel>
							</timecode>
							<media>
								<video>
									<duration>18000</duration>
									<samplecharacteristics>
										<rate>
											<timebase>24</timebase>
											<ntsc>FALSE</ntsc>
										</rate>
										<width>1280</width>
										<height>720</height>
										<anamorphic>FALSE</anamorphic>
										<pixelaspectratio>square</pixelaspectratio>
										<fielddominance>none</fielddominance>
									</samplecharacteristics>
								</video>
								<audio>
									<samplecharacteristics>
										<depth>16</depth>
										<samplerate>44100</samplerate>
									</samplecharacteristics>
									<channelcount>1</channelcount>
									<layout>mono</layout>
									<audiochannel>
										<sourcechannel>1</sourcechannel>
										<channellabel>discrete</channellabel>
									</audiochannel>
								</audio>
							</media>
						</file>
						<link>
							<linkclipref>clipitem-403</linkclipref>
							<mediatype>video</mediatype>
							<trackindex>1</trackindex>
							<clipindex>15</clipindex>
						</link>
						<link>
							<linkclipref>clipitem-1000</linkclipref>
							<mediatype>audio</mediatype>
							<trackindex>1</trackindex>
							<clipindex>3</clipindex>
						</link>
						<logginginfo>
							<description></description>
							<scene></scene>
							<shottake></shottake>
							<lognote></lognote>
						</logginginfo>
						<labels>
							<label2>Iris</label2>
						</labels>
					</clipitem>
					<clipitem id="clipitem-404" frameBlend="FALSE">
						<masterclipid>masterclip-19</masterclipid>
						<name>Vignett katta 14 v1.mov</name>
						<enabled>TRUE</enabled>
						<duration>402</duration>
						<rate>
							<timebase>25</timebase>
							<ntsc>FALSE</ntsc>
						</rate>
						<start>891</start>
						<end>1103</end>
						<in>69</in>
						<out>281</out>
						<alphatype>none</alphatype>
						<pixelaspectratio>square</pixelaspectratio>
						<anamorphic>FALSE</anamorphic>
						<file id="file-18">
							<name>Vignett katta 14 v1.mov</name>
							<pathurl>file://localhost/Volumes/Brakka/Katta/Katta%20Grafikk%20og%20maler/Orginal%20vignetter/Vignett%20katta%2014%20v1.mov</pathurl>
							<rate>
								<timebase>25</timebase>
								<ntsc>FALSE</ntsc>
							</rate>
							<duration>402</duration>
							<timecode>
								<rate>
									<timebase>25</timebase>
									<ntsc>FALSE</ntsc>
								</rate>
								<string>00:00:00:00</string>
								<frame>0</frame>
								<displayformat>NDF</displayformat>
								<reel>
									<name></name>
								</reel>
							</timecode>
							<media>
								<video>
									<duration>18000</duration>
									<samplecharacteristics>
										<rate>
											<timebase>25</timebase>
											<ntsc>FALSE</ntsc>
										</rate>
										<width>1920</width>
										<height>1080</height>
										<anamorphic>FALSE</anamorphic>
										<pixelaspectratio>square</pixelaspectratio>
										<fielddominance>upper</fielddominance>
									</samplecharacteristics>
								</video>
								<audio>
									<samplecharacteristics>
										<depth>16</depth>
										<samplerate>48000</samplerate>
									</samplecharacteristics>
									<channelcount>2</channelcount>
								</audio>
							</media>
						</file>
						<link>
							<linkclipref>clipitem-404</linkclipref>
							<mediatype>video</mediatype>
							<trackindex>1</trackindex>
							<clipindex>16</clipindex>
						</link>
						<link>
							<linkclipref>clipitem-1704</linkclipref>
							<mediatype>audio</mediatype>
							<trackindex>14</trackindex>
							<clipindex>1</clipindex>
							<groupindex>1</groupindex>
						</link>
						<link>
							<linkclipref>clipitem-1710</linkclipref>
							<mediatype>audio</mediatype>
							<trackindex>15</trackindex>
							<clipindex>1</clipindex>
							<groupindex>1</groupindex>
						</link>
						<logginginfo>
							<description></description>
							<scene></scene>
							<shottake></shottake>
							<lognote></lognote>
						</logginginfo>
						<labels>
							<label2>Iris</label2>
						</labels>
					</clipitem>
					<clipitem id="clipitem-405" frameBlend="FALSE">
						<masterclipid>masterclip-20</masterclipid>
						<name>Felles_intro.MOV</name>
						<enabled>TRUE</enabled>
						<duration>1003</duration>
						<rate>
							<timebase>25</timebase>
							<ntsc>FALSE</ntsc>
						</rate>
						<start>1103</start>
						<end>1976</end>
						<in>19</in>
						<out>892</out>
						<alphatype>black</alphatype>
						<pixelaspectratio>square</pixelaspectratio>
						<anamorphic>FALSE</anamorphic>
						<file id="file-19">
							<name>Felles_intro.MOV</name>
							<pathurl>file://localhost/Volumes/Brakka/AdobeLager/Katta/Katta-14xxxx-Smart_eller_overvaaket-Chris/02-Video/Mobilvideo%20restopptak%20begge/Felles_intro.MOV</pathurl>
							<rate>
								<timebase>30</timebase>
								<ntsc>FALSE</ntsc>
							</rate>
							<duration>1204</duration>
							<timecode>
								<rate>
									<timebase>30</timebase>
									<ntsc>FALSE</ntsc>
								</rate>
								<string>00:00:00:00</string>
								<frame>0</frame>
								<displayformat>NDF</displayformat>
								<reel>
									<name></name>
								</reel>
							</timecode>
							<media>
								<video>
									<duration>18000</duration>
									<samplecharacteristics>
										<rate>
											<timebase>30</timebase>
											<ntsc>FALSE</ntsc>
										</rate>
										<width>1280</width>
										<height>720</height>
										<anamorphic>FALSE</anamorphic>
										<pixelaspectratio>square</pixelaspectratio>
										<fielddominance>none</fielddominance>
									</samplecharacteristics>
								</video>
								<audio>
									<samplecharacteristics>
										<depth>16</depth>
										<samplerate>44100</samplerate>
									</samplecharacteristics>
									<channelcount>1</channelcount>
									<layout>mono</layout>
									<audiochannel>
										<sourcechannel>1</sourcechannel>
										<channellabel>discrete</channellabel>
									</audiochannel>
								</audio>
							</media>
						</file>
						<link>
							<linkclipref>clipitem-405</linkclipref>
							<mediatype>video</mediatype>
							<trackindex>1</trackindex>
							<clipindex>17</clipindex>
						</link>
						<link>
							<linkclipref>clipitem-1001</linkclipref>
							<mediatype>audio</mediatype>
							<trackindex>1</trackindex>
							<clipindex>4</clipindex>
						</link>
						<logginginfo>
							<description></description>
							<scene></scene>
							<shottake></shottake>
							<lognote></lognote>
						</logginginfo>
						<labels>
							<label2>Iris</label2>
						</labels>
					</clipitem>
					<clipitem id="clipitem-406" frameBlend="FALSE">
						<masterclipid>masterclip-21</masterclipid>
						<name>Reise10.MOV</name>
						<enabled>TRUE</enabled>
						<duration>237</duration>
						<rate>
							<timebase>25</timebase>
							<ntsc>FALSE</ntsc>
						</rate>
						<start>1976</start>
						<end>2061</end>
						<in>132</in>
						<out>217</out>
						<alphatype>black</alphatype>
						<pixelaspectratio>square</pixelaspectratio>
						<anamorphic>FALSE</anamorphic>
						<file id="file-20">
							<name>Reise10.MOV</name>
							<pathurl>file://localhost/Volumes/Brakka/AdobeLager/Katta/Katta-14xxxx-Smart_eller_overvaaket-Chris/02-Video/Mobilvideo%20Eldrid/Reise10.MOV</pathurl>
							<rate>
								<timebase>30</timebase>
								<ntsc>FALSE</ntsc>
							</rate>
							<duration>285</duration>
							<timecode>
								<rate>
									<timebase>30</timebase>
									<ntsc>FALSE</ntsc>
								</rate>
								<string>00:00:00:00</string>
								<frame>0</frame>
								<displayformat>NDF</displayformat>
								<reel>
									<name></name>
								</reel>
							</timecode>
							<media>
								<video>
									<duration>18000</duration>
									<samplecharacteristics>
										<rate>
											<timebase>30</timebase>
											<ntsc>FALSE</ntsc>
										</rate>
										<width>1920</width>
										<height>1080</height>
										<anamorphic>FALSE</anamorphic>
										<pixelaspectratio>square</pixelaspectratio>
										<fielddominance>none</fielddominance>
									</samplecharacteristics>
								</video>
								<audio>
									<samplecharacteristics>
										<depth>16</depth>
										<samplerate>44100</samplerate>
									</samplecharacteristics>
									<channelcount>1</channelcount>
									<layout>mono</layout>
									<audiochannel>
										<sourcechannel>1</sourcechannel>
										<channellabel>discrete</channellabel>
									</audiochannel>
								</audio>
							</media>
						</file>
						<link>
							<linkclipref>clipitem-406</linkclipref>
							<mediatype>video</mediatype>
							<trackindex>1</trackindex>
							<clipindex>18</clipindex>
						</link>
						<link>
							<linkclipref>clipitem-1002</linkclipref>
							<mediatype>audio</mediatype>
							<trackindex>1</trackindex>
							<clipindex>5</clipindex>
						</link>
						<logginginfo>
							<description></description>
							<scene></scene>
							<shottake></shottake>
							<lognote></lognote>
						</logginginfo>
						<labels>
							<label2>Iris</label2>
						</labels>
					</clipitem>
					<clipitem id="clipitem-407" frameBlend="FALSE">
						<masterclipid>masterclip-22</masterclipid>
						<name>MVI_9527.MOV</name>
						<enabled>TRUE</enabled>
						<duration>1695</duration>
						<rate>
							<timebase>25</timebase>
							<ntsc>FALSE</ntsc>
						</rate>
						<start>2061</start>
						<end>2128</end>
						<in>791</in>
						<out>858</out>
						<alphatype>black</alphatype>
						<pixelaspectratio>square</pixelaspectratio>
						<anamorphic>FALSE</anamorphic>
						<file id="file-21">
							<name>MVI_9527.MOV</name>
							<pathurl>file://localhost/Volumes/Brakka/AdobeLager/Katta/Katta-14xxxx-Smart_eller_overvaaket-Chris/02-Video/Smartly%205D/DCIM/100EOS5D/MVI_9527.MOV</pathurl>
							<rate>
								<timebase>25</timebase>
								<ntsc>FALSE</ntsc>
							</rate>
							<duration>1695</duration>
							<timecode>
								<rate>
									<timebase>25</timebase>
									<ntsc>FALSE</ntsc>
								</rate>
								<string>00:00:00:00</string>
								<frame>0</frame>
								<displayformat>NDF</displayformat>
								<reel>
									<name></name>
								</reel>
							</timecode>
							<media>
								<video>
									<duration>18000</duration>
									<samplecharacteristics>
										<rate>
											<timebase>25</timebase>
											<ntsc>FALSE</ntsc>
										</rate>
										<width>1920</width>
										<height>1080</height>
										<anamorphic>FALSE</anamorphic>
										<pixelaspectratio>square</pixelaspectratio>
										<fielddominance>none</fielddominance>
									</samplecharacteristics>
								</video>
								<audio>
									<samplecharacteristics>
										<depth>16</depth>
										<samplerate>48000</samplerate>
									</samplecharacteristics>
									<channelcount>1</channelcount>
									<layout>mono</layout>
									<audiochannel>
										<sourcechannel>1</sourcechannel>
										<channellabel>discrete</channellabel>
									</audiochannel>
								</audio>
								<audio>
									<samplecharacteristics>
										<depth>16</depth>
										<samplerate>48000</samplerate>
									</samplecharacteristics>
									<channelcount>1</channelcount>
									<layout>mono</layout>
									<audiochannel>
										<sourcechannel>2</sourcechannel>
										<channellabel>discrete</channellabel>
									</audiochannel>
								</audio>
							</media>
						</file>
						<link>
							<linkclipref>clipitem-407</linkclipref>
							<mediatype>video</mediatype>
							<trackindex>1</trackindex>
							<clipindex>19</clipindex>
						</link>
						<link>
							<linkclipref>clipitem-1493</linkclipref>
							<mediatype>audio</mediatype>
							<trackindex>5</trackindex>
							<clipindex>2</clipindex>
						</link>
						<link>
							<linkclipref>clipitem-1585</linkclipref>
							<mediatype>audio</mediatype>
							<trackindex>7</trackindex>
							<clipindex>1</clipindex>
						</link>
						<logginginfo>
							<description></description>
							<scene></scene>
							<shottake></shottake>
							<lognote></lognote>
						</logginginfo>
						<labels>
							<label2>Iris</label2>
						</labels>
					</clipitem>
					<clipitem id="clipitem-408" frameBlend="FALSE">
						<masterclipid>masterclip-23</masterclipid>
						<name>MVI_9530.MOV</name>
						<enabled>TRUE</enabled>
						<duration>595</duration>
						<rate>
							<timebase>25</timebase>
							<ntsc>FALSE</ntsc>
						</rate>
						<start>2128</start>
						<end>2199</end>
						<in>72</in>
						<out>143</out>
						<alphatype>black</alphatype>
						<pixelaspectratio>square</pixelaspectratio>
						<anamorphic>FALSE</anamorphic>
						<file id="file-22">
							<name>MVI_9530.MOV</name>
							<pathurl>file://localhost/Volumes/Brakka/AdobeLager/Katta/Katta-14xxxx-Smart_eller_overvaaket-Chris/02-Video/Smartly%205D/DCIM/100EOS5D/MVI_9530.MOV</pathurl>
							<rate>
								<timebase>25</timebase>
								<ntsc>FALSE</ntsc>
							</rate>
							<duration>595</duration>
							<timecode>
								<rate>
									<timebase>25</timebase>
									<ntsc>FALSE</ntsc>
								</rate>
								<string>00:00:00:00</string>
								<frame>0</frame>
								<displayformat>NDF</displayformat>
								<reel>
									<name></name>
								</reel>
							</timecode>
							<media>
								<video>
									<duration>18000</duration>
									<samplecharacteristics>
										<rate>
											<timebase>25</timebase>
											<ntsc>FALSE</ntsc>
										</rate>
										<width>1920</width>
										<height>1080</height>
										<anamorphic>FALSE</anamorphic>
										<pixelaspectratio>square</pixelaspectratio>
										<fielddominance>none</fielddominance>
									</samplecharacteristics>
								</video>
								<audio>
									<samplecharacteristics>
										<depth>16</depth>
										<samplerate>48000</samplerate>
									</samplecharacteristics>
									<channelcount>1</channelcount>
									<layout>mono</layout>
									<audiochannel>
										<sourcechannel>1</sourcechannel>
										<channellabel>discrete</channellabel>
									</audiochannel>
								</audio>
								<audio>
									<samplecharacteristics>
										<depth>16</depth>
										<samplerate>48000</samplerate>
									</samplecharacteristics>
									<channelcount>1</channelcount>
									<layout>mono</layout>
									<audiochannel>
										<sourcechannel>2</sourcechannel>
										<channellabel>discrete</channellabel>
									</audiochannel>
								</audio>
							</media>
						</file>
						<link>
							<linkclipref>clipitem-408</linkclipref>
							<mediatype>video</mediatype>
							<trackindex>1</trackindex>
							<clipindex>20</clipindex>
						</link>
						<link>
							<linkclipref>clipitem-1494</linkclipref>
							<mediatype>audio</mediatype>
							<trackindex>5</trackindex>
							<clipindex>3</clipindex>
						</link>
						<link>
							<linkclipref>clipitem-1586</linkclipref>
							<mediatype>audio</mediatype>
							<trackindex>7</trackindex>
							<clipindex>2</clipindex>
						</link>
						<logginginfo>
							<description></description>
							<scene></scene>
							<shottake></shottake>
							<lognote></lognote>
						</logginginfo>
						<labels>
							<label2>Iris</label2>
						</labels>
					</clipitem>
					<clipitem id="clipitem-409" frameBlend="FALSE">
						<masterclipid>masterclip-24</masterclipid>
						<name>MVI_9528.MOV</name>
						<enabled>TRUE</enabled>
						<duration>308</duration>
						<rate>
							<timebase>25</timebase>
							<ntsc>FALSE</ntsc>
						</rate>
						<start>2199</start>
						<end>2360</end>
						<in>97</in>
						<out>258</out>
						<alphatype>black</alphatype>
						<pixelaspectratio>square</pixelaspectratio>
						<anamorphic>FALSE</anamorphic>
						<file id="file-23">
							<name>MVI_9528.MOV</name>
							<pathurl>file://localhost/Volumes/Brakka/AdobeLager/Katta/Katta-14xxxx-Smart_eller_overvaaket-Chris/02-Video/Smartly%205D/DCIM/100EOS5D/MVI_9528.MOV</pathurl>
							<rate>
								<timebase>25</timebase>
								<ntsc>FALSE</ntsc>
							</rate>
							<duration>308</duration>
							<timecode>
								<rate>
									<timebase>25</timebase>
									<ntsc>FALSE</ntsc>
								</rate>
								<string>00:00:00:00</string>
								<frame>0</frame>
								<displayformat>NDF</displayformat>
								<reel>
									<name></name>
								</reel>
							</timecode>
							<media>
								<video>
									<duration>18000</duration>
									<samplecharacteristics>
										<rate>
											<timebase>25</timebase>
											<ntsc>FALSE</ntsc>
										</rate>
										<width>1920</width>
										<height>1080</height>
										<anamorphic>FALSE</anamorphic>
										<pixelaspectratio>square</pixelaspectratio>
										<fielddominance>none</fielddominance>
									</samplecharacteristics>
								</video>
								<audio>
									<samplecharacteristics>
										<depth>16</depth>
										<samplerate>48000</samplerate>
									</samplecharacteristics>
									<channelcount>1</channelcount>
									<layout>mono</layout>
									<audiochannel>
										<sourcechannel>1</sourcechannel>
										<channellabel>discrete</channellabel>
									</audiochannel>
								</audio>
								<audio>
									<samplecharacteristics>
										<depth>16</depth>
										<samplerate>48000</samplerate>
									</samplecharacteristics>
									<channelcount>1</channelcount>
									<layout>mono</layout>
									<audiochannel>
										<sourcechannel>2</sourcechannel>
										<channellabel>discrete</channellabel>
									</audiochannel>
								</audio>
							</media>
						</file>
						<link>
							<linkclipref>clipitem-409</linkclipref>
							<mediatype>video</mediatype>
							<trackindex>1</trackindex>
							<clipindex>21</clipindex>
						</link>
						<link>
							<linkclipref>clipitem-1495</linkclipref>
							<mediatype>audio</mediatype>
							<trackindex>5</trackindex>
							<clipindex>4</clipindex>
						</link>
						<link>
							<linkclipref>clipitem-1587</linkclipref>
							<mediatype>audio</mediatype>
							<trackindex>7</trackindex>
							<clipindex>3</clipindex>
						</link>
						<logginginfo>
							<description></description>
							<scene></scene>
							<shottake></shottake>
							<lognote></lognote>
						</logginginfo>
						<labels>
							<label2>Iris</label2>
						</labels>
					</clipitem>
					<clipitem id="clipitem-410" frameBlend="FALSE">
						<masterclipid>masterclip-25</masterclipid>
						<name>Lyse_intro2.MOV</name>
						<enabled>TRUE</enabled>
						<duration>338</duration>
						<rate>
							<timebase>25</timebase>
							<ntsc>FALSE</ntsc>
						</rate>
						<start>2360</start>
						<end>2698</end>
						<in>0</in>
						<out>338</out>
						<alphatype>black</alphatype>
						<pixelaspectratio>square</pixelaspectratio>
						<anamorphic>FALSE</anamorphic>
						<file id="file-24">
							<name>Lyse_intro2.MOV</name>
							<pathurl>file://localhost/Volumes/Brakka/AdobeLager/Katta/Katta-14xxxx-Smart_eller_overvaaket-Chris/02-Video/Mobilvideo%20Eldrid/Lyse_intro2.MOV</pathurl>
							<rate>
								<timebase>30</timebase>
								<ntsc>FALSE</ntsc>
							</rate>
							<duration>406</duration>
							<timecode>
								<rate>
									<timebase>30</timebase>
									<ntsc>FALSE</ntsc>
								</rate>
								<string>00:00:00:00</string>
								<frame>0</frame>
								<displayformat>NDF</displayformat>
								<reel>
									<name></name>
								</reel>
							</timecode>
							<media>
								<video>
									<duration>18000</duration>
									<samplecharacteristics>
										<rate>
											<timebase>30</timebase>
											<ntsc>FALSE</ntsc>
										</rate>
										<width>1280</width>
										<height>720</height>
										<anamorphic>FALSE</anamorphic>
										<pixelaspectratio>square</pixelaspectratio>
										<fielddominance>none</fielddominance>
									</samplecharacteristics>
								</video>
								<audio>
									<samplecharacteristics>
										<depth>16</depth>
										<samplerate>44100</samplerate>
									</samplecharacteristics>
									<channelcount>1</channelcount>
									<layout>mono</layout>
									<audiochannel>
										<sourcechannel>1</sourcechannel>
										<channellabel>discrete</channellabel>
									</audiochannel>
								</audio>
							</media>
						</file>
						<link>
							<linkclipref>clipitem-410</linkclipref>
							<mediatype>video</mediatype>
							<trackindex>1</trackindex>
							<clipindex>22</clipindex>
						</link>
						<link>
							<linkclipref>clipitem-1003</linkclipref>
							<mediatype>audio</mediatype>
							<trackindex>1</trackindex>
							<clipindex>6</clipindex>
						</link>
						<logginginfo>
							<description></description>
							<scene></scene>
							<shottake></shottake>
							<lognote></lognote>
						</logginginfo>
						<labels>
							<label2>Iris</label2>
						</labels>
					</clipitem>
					<clipitem id="clipitem-411" frameBlend="FALSE">
						<masterclipid>masterclip-26</masterclipid>
						<name>AA310801.MXF</name>
						<enabled>TRUE</enabled>
						<duration>1032</duration>
						<rate>
							<timebase>25</timebase>
							<ntsc>FALSE</ntsc>
						</rate>
						<start>2698</start>
						<end>2913</end>
						<in>248</in>
						<out>463</out>
						<alphatype>none</alphatype>
						<pixelaspectratio>square</pixelaspectratio>
						<anamorphic>FALSE</anamorphic>
						<file id="file-25">
							<name>AA310801.MXF</name>
							<pathurl>file://localhost/Volumes/Brakka/AdobeLager/Katta/Katta-14xxxx-Smart_eller_overvaaket-Chris/02-Video/Smartly300%201/CONTENTS/CLIPS001/AA3108/AA310801.MXF</pathurl>
							<rate>
								<timebase>25</timebase>
								<ntsc>FALSE</ntsc>
							</rate>
							<duration>1032</duration>
							<timecode>
								<rate>
									<timebase>25</timebase>
									<ntsc>FALSE</ntsc>
								</rate>
								<string>03:09:32:23</string>
								<frame>284323</frame>
								<displayformat>NDF</displayformat>
								<reel>
									<name></name>
								</reel>
							</timecode>
							<media>
								<video>
									<duration>18000</duration>
									<samplecharacteristics>
										<rate>
											<timebase>25</timebase>
											<ntsc>FALSE</ntsc>
										</rate>
										<width>1920</width>
										<height>1080</height>
										<anamorphic>FALSE</anamorphic>
										<pixelaspectratio>square</pixelaspectratio>
										<fielddominance>upper</fielddominance>
									</samplecharacteristics>
								</video>
								<audio>
									<samplecharacteristics>
										<depth>16</depth>
										<samplerate>48000</samplerate>
									</samplecharacteristics>
									<channelcount>1</channelcount>
									<layout>mono</layout>
									<audiochannel>
										<sourcechannel>1</sourcechannel>
										<channellabel>discrete</channellabel>
									</audiochannel>
								</audio>
								<audio>
									<samplecharacteristics>
										<depth>16</depth>
										<samplerate>48000</samplerate>
									</samplecharacteristics>
									<channelcount>1</channelcount>
									<layout>mono</layout>
									<audiochannel>
										<sourcechannel>2</sourcechannel>
										<channellabel>discrete</channellabel>
									</audiochannel>
								</audio>
							</media>
						</file>
						<logginginfo>
							<description></description>
							<scene></scene>
							<shottake>AA3108</shottake>
							<lognote></lognote>
						</logginginfo>
						<labels>
							<label2>Iris</label2>
						</labels>
					</clipitem>
					<clipitem id="clipitem-412" frameBlend="FALSE">
						<masterclipid>masterclip-26</masterclipid>
						<name>AA310801.MXF</name>
						<enabled>TRUE</enabled>
						<duration>1032</duration>
						<rate>
							<timebase>25</timebase>
							<ntsc>FALSE</ntsc>
						</rate>
						<start>2913</start>
						<end>2935</end>
						<in>769</in>
						<out>791</out>
						<alphatype>none</alphatype>
						<file id="file-25"/>
						<link>
							<linkclipref>clipitem-412</linkclipref>
							<mediatype>video</mediatype>
							<trackindex>1</trackindex>
							<clipindex>24</clipindex>
						</link>
						<link>
							<linkclipref>clipitem-1005</linkclipref>
							<mediatype>audio</mediatype>
							<trackindex>1</trackindex>
							<clipindex>8</clipindex>
						</link>
						<link>
							<linkclipref>clipitem-1360</linkclipref>
							<mediatype>audio</mediatype>
							<trackindex>3</trackindex>
							<clipindex>4</clipindex>
						</link>
						<logginginfo>
							<description></description>
							<scene></scene>
							<shottake>AA3108</shottake>
							<lognote></lognote>
						</logginginfo>
						<labels>
							<label2>Iris</label2>
						</labels>
					</clipitem>
					<clipitem id="clipitem-413" frameBlend="FALSE">
						<masterclipid>masterclip-26</masterclipid>
						<name>AA310801.MXF</name>
						<enabled>TRUE</enabled>
						<duration>1032</duration>
						<rate>
							<timebase>25</timebase>
							<ntsc>FALSE</ntsc>
						</rate>
						<start>2935</start>
						<end>2978</end>
						<in>817</in>
						<out>860</out>
						<alphatype>none</alphatype>
						<file id="file-25"/>
						<link>
							<linkclipref>clipitem-413</linkclipref>
							<mediatype>video</mediatype>
							<trackindex>1</trackindex>
							<clipindex>25</clipindex>
						</link>
						<link>
							<linkclipref>clipitem-1006</linkclipref>
							<mediatype>audio</mediatype>
							<trackindex>1</trackindex>
							<clipindex>9</clipindex>
						</link>
						<link>
							<linkclipref>clipitem-1361</linkclipref>
							<mediatype>audio</mediatype>
							<trackindex>3</trackindex>
							<clipindex>5</clipindex>
						</link>
						<logginginfo>
							<description></description>
							<scene></scene>
							<shottake>AA3108</shottake>
							<lognote></lognote>
						</logginginfo>
						<labels>
							<label2>Iris</label2>
						</labels>
					</clipitem>
					<clipitem id="clipitem-414" frameBlend="FALSE">
						<masterclipid>masterclip-27</masterclipid>
						<name>AA312501.MXFMulticam</name>
						<enabled>TRUE</enabled>
						<duration>5682</duration>
						<rate>
							<timebase>25</timebase>
							<ntsc>FALSE</ntsc>
						</rate>
						<start>2978</start>
						<end>3018</end>
						<in>2539</in>
						<out>2579</out>
							<marker>
								<comment>skal installere en lyiten datamaskin i alle hjemmene i hele regionen</comment>
								<name></name>
								<in>2862</in>
								<out>-1</out>
							</marker>
						<labels>
							<label2>Forest</label2>
						</labels>
					</clipitem>
					<clipitem id="clipitem-423" frameBlend="FALSE">
						<masterclipid>masterclip-27</masterclipid>
						<name>AA312501.MXFMulticam</name>
						<enabled>TRUE</enabled>
						<duration>5682</duration>
						<rate>
							<timebase>25</timebase>
							<ntsc>FALSE</ntsc>
						</rate>
						<start>3018</start>
						<end>3267</end>
						<in>2589</in>
						<out>2838</out>
						<sequence id="sequence-8">
							<duration>150</duration>
							<rate>
								<timebase>25</timebase>
								<ntsc>FALSE</ntsc>
							</rate>
							<name>AA312501.MXFMulticam-2</name>
							<media>
								<video>
									<format>
										<samplecharacteristics>
											<rate>
												<timebase>25</timebase>
												<ntsc>FALSE</ntsc>
											</rate>
											<codec>
												<name>Apple ProRes 422</name>
												<appspecificdata>
													<appname>Final Cut Pro</appname>
													<appmanufacturer>Apple Inc.</appmanufacturer>
													<appversion>7.0</appversion>
													<data>
														<qtcodec>
															<codecname>Apple ProRes 422</codecname>
															<codectypename>Apple ProRes 422</codectypename>
															<codectypecode>apcn</codectypecode>
															<codecvendorcode>appl</codecvendorcode>
															<spatialquality>1024</spatialquality>
															<temporalquality>0</temporalquality>
															<keyframerate>0</keyframerate>
															<datarate>0</datarate>
														</qtcodec>
													</data>
												</appspecificdata>
											</codec>
											<width>1920</width>
											<height>1080</height>
											<anamorphic>FALSE</anamorphic>
											<pixelaspectratio>square</pixelaspectratio>
											<fielddominance>upper</fielddominance>
											<colordepth>24</colordepth>
										</samplecharacteristics>
									</format>
									<track TL.SQTrackShy="0" TL.SQTrackExpandedHeight="25" TL.SQTrackExpanded="0" MZ.TrackTargeted="0">
										<clipitem id="clipitem-418" frameBlend="FALSE">
											<masterclipid>masterclip-29</masterclipid>
											<name>AA312601.MXF</name>
											<enabled>TRUE</enabled>
											<duration>1236</duration>
											<rate>
												<timebase>25</timebase>
												<ntsc>FALSE</ntsc>
											</rate>
											<start>2118</start>
											<end>3354</end>
											<in>0</in>
											<out>1236</out>
											<alphatype>none</alphatype>
											<pixelaspectratio>square</pixelaspectratio>
											<anamorphic>FALSE</anamorphic>
											<file id="file-27">
												<name>AA312601.MXF</name>
												<pathurl>file://localhost/Volumes/Brakka/AdobeLager/Katta/Katta-14xxxx-Smart_eller_overvaaket-Chris/02-Video/Smartly300%201/CONTENTS/CLIPS001/AA3126/AA312601.MXF</pathurl>
												<rate>
													<timebase>25</timebase>
													<ntsc>FALSE</ntsc>
												</rate>
												<duration>1236</duration>
												<timecode>
													<rate>
														<timebase>25</timebase>
														<ntsc>FALSE</ntsc>
													</rate>
													<string>04:12:12:11</string>
													<frame>378311</frame>
													<displayformat>NDF</displayformat>
													<reel>
														<name></name>
													</reel>
												</timecode>
												<media>
													<video>
														<duration>18000</duration>
														<samplecharacteristics>
															<rate>
																<timebase>25</timebase>
																<ntsc>FALSE</ntsc>
															</rate>
															<width>1920</width>
															<height>1080</height>
															<anamorphic>FALSE</anamorphic>
															<pixelaspectratio>square</pixelaspectratio>
															<fielddominance>upper</fielddominance>
														</samplecharacteristics>
													</video>
													<audio>
														<samplecharacteristics>
															<depth>16</depth>
															<samplerate>48000</samplerate>
														</samplecharacteristics>
														<channelcount>1</channelcount>
														<layout>mono</layout>
														<audiochannel>
															<sourcechannel>1</sourcechannel>
															<channellabel>discrete</channellabel>
														</audiochannel>
													</audio>
													<audio>
														<samplecharacteristics>
															<depth>16</depth>
															<samplerate>48000</samplerate>
														</samplecharacteristics>
														<channelcount>1</channelcount>
														<layout>mono</layout>
														<audiochannel>
															<sourcechannel>2</sourcechannel>
															<channellabel>discrete</channellabel>
														</audiochannel>
													</audio>
												</media>
											</file>
											<logginginfo>
												<description></description>
												<scene></scene>
												<shottake>AA3126</shottake>
												<lognote></lognote>
											</logginginfo>
											<labels>
												<label2>Iris</label2>
											</labels>
										</clipitem>
										<enabled>TRUE</enabled>
										<locked>FALSE</locked>
									</track>
								</video>
								<audio>
									<format>
										<samplecharacteristics>
											<depth>16</depth>
											<samplerate>48000</samplerate>
										</samplecharacteristics>
									</format>
									<outputs>
										<group>
											<index>1</index>
											<numchannels>1</numchannels>
											<downmix>0</downmix>
											<channel>
												<index>1</index>
											</channel>
										</group>
										<group>
											<index>2</index>
											<numchannels>1</numchannels>
											<downmix>0</downmix>
											<channel>
												<index>2</index>
											</channel>
										</group>
										<group>
											<index>3</index>
											<numchannels>1</numchannels>
											<downmix>0</downmix>
											<channel>
												<index>3</index>
											</channel>
										</group>
										<group>
											<index>4</index>
											<numchannels>1</numchannels>
											<downmix>0</downmix>
											<channel>
												<index>4</index>
											</channel>
										</group>
										<group>
											<index>5</index>
											<numchannels>1</numchannels>
											<downmix>0</downmix>
											<channel>
												<index>5</index>
											</channel>
										</group>
										<group>
											<index>6</index>
											<numchannels>1</numchannels>
											<downmix>0</downmix>
											<channel>
												<index>6</index>
											</channel>
										</group>
										<group>
											<index>7</index>
											<numchannels>1</numchannels>
											<downmix>0</downmix>
											<channel>
												<index>7</index>
											</channel>
										</group>
										<group>
											<index>8</index>
											<numchannels>1</numchannels>
											<downmix>0</downmix>
											<channel>
												<index>8</index>
											</channel>
										</group>
										<group>
											<index>9</index>
											<numchannels>1</numchannels>
											<downmix>0</downmix>
											<channel>
												<index>9</index>
											</channel>
										</group>
										<group>
											<index>10</index>
											<numchannels>1</numchannels>
											<downmix>0</downmix>
											<channel>
												<index>10</index>
											</channel>
										</group>
									</outputs>
									<track TL.SQTrackAudioKeyframeStyle="0" TL.SQTrackShy="0" TL.SQTrackExpandedHeight="56" TL.SQTrackExpanded="1" MZ.TrackTargeted="1" PannerCurrentValue="1." PannerIsInverted="true" PannerStartKeyframe="-91445760000000000,1.,0,0,0,0,0,0" PannerName="Balance" currentExplodedTrackIndex="0" totalExplodedTrackCount="1" premiereTrackType="Stereo">
										<clipitem id="clipitem-417" frameBlend="FALSE" PannerCurrentValue="0.5" PannerKeyframes="" PannerStartKeyframe="-91445760000000000,0.5,0,0,0,0,0,0" PannerIsInverted="true" PannerName="Pan">
											<masterclipid>masterclip-28</masterclipid>
											<name>AA312501.MXF</name>
											<enabled>TRUE</enabled>
											<duration>1776</duration>
											<rate>
												<timebase>25</timebase>
												<ntsc>FALSE</ntsc>
											</rate>
											<start>207</start>
											<end>1983</end>
											<in>0</in>
											<out>1776</out>
											<file id="file-26"/>
											<sourcetrack>
												<mediatype>audio</mediatype>
												<trackindex>1</trackindex>
											</sourcetrack>
												<filter>
													<effect>
														<name>Audio Pan</name>
														<effectid>audiopan</effectid>
														<effectcategory>audiopan</effectcategory>
														<effecttype>audiopan</effecttype>
														<mediatype>audio</mediatype>
														<parameter authoringApp="PremierePro">
															<parameterid>pan</parameterid>
															<name>Pan</name>
															<valuemin>-1</valuemin>
															<valuemax>1</valuemax>
															<value>0</value>
														</parameter>
													</effect>
												</filter>
											<logginginfo>
												<description></description>
												<scene></scene>
												<shottake>AA3125</shottake>
												<lognote></lognote>
											</logginginfo>
											<labels>
												<label2>Iris</label2>
											</labels>
										</clipitem>
										<enabled>TRUE</enabled>
										<locked>FALSE</locked>
										<outputchannelindex>1</outputchannelindex>
									</track>
								</audio>
							</media>
							<timecode>
								<rate>
									<timebase>25</timebase>
									<ntsc>FALSE</ntsc>
								</rate>
								<string>00:00:00:00</string>
								<frame>0</frame>
								<displayformat>NDF</displayformat>
							</timecode>
						</sequence>
							<marker>
								<comment>skal installere en lyiten datamaskin i alle hjemmene i hele regionen</comment>
								<name></name>
								<in>2862</in>
								<out>-1</out>
							</marker>
						<labels>
							<label2>Forest</label2>
						</labels>
					</clipitem>
					<clipitem id="clipitem-424" frameBlend="FALSE">
						<masterclipid>masterclip-31</masterclipid>
						<name>AA312801.MXF</name>
						<enabled>TRUE</enabled>
						<duration>336</duration>
						<rate>
							<timebase>25</timebase>
							<ntsc>FALSE</ntsc>
						</rate>
						<start>3267</start>
						<end>3464</end>
						<in>42</in>
						<out>239</out>
						<alphatype>none</alphatype>
						<file id="file-29"/>
						<link>
							<linkclipref>clipitem-424</linkclipref>
							<mediatype>video</mediatype>
							<trackindex>1</trackindex>
							<clipindex>28</clipindex>
						</link>
						<link>
							<linkclipref>clipitem-1008</linkclipref>
							<mediatype>audio</mediatype>
							<trackindex>1</trackindex>
							<clipindex>11</clipindex>
						</link>
						<link>
							<linkclipref>clipitem-1363</linkclipref>
							<mediatype>audio</mediatype>
							<trackindex>3</trackindex>
							<clipindex>7</clipindex>
						</link>
						<logginginfo>
							<description></description>
							<scene></scene>
							<shottake>AA3128</shottake>
							<lognote></lognote>
						</logginginfo>
						<labels>
							<label2>Iris</label2>
						</labels>
					</clipitem>
					<clipitem id="clipitem-425" frameBlend="FALSE">
						<masterclipid>masterclip-32</masterclipid>
						<name>MVI_9583.MOV</name>
						<enabled>TRUE</enabled>
						<duration>397</duration>
						<rate>
							<timebase>25</timebase>
							<ntsc>FALSE</ntsc>
						</rate>
						<start>3464</start>
						<end>3543</end>
						<in>243</in>
						<out>322</out>
						<alphatype>black</alphatype>
						<pixelaspectratio>square</pixelaspectratio>
						<anamorphic>FALSE</anamorphic>
						<file id="file-30">
							<name>MVI_9583.MOV</name>
							<pathurl>file://localhost/Volumes/Brakka/AdobeLager/Katta/Katta-14xxxx-Smart_eller_overvaaket-Chris/02-Video/Smartly%205D/DCIM/100EOS5D/MVI_9583.MOV</pathurl>
							<rate>
								<timebase>25</timebase>
								<ntsc>FALSE</ntsc>
							</rate>
							<duration>397</duration>
							<timecode>
								<rate>
									<timebase>25</timebase>
									<ntsc>FALSE</ntsc>
								</rate>
								<string>00:00:00:00</string>
								<frame>0</frame>
								<displayformat>NDF</displayformat>
								<reel>
									<name></name>
								</reel>
							</timecode>
							<media>
								<video>
									<duration>18000</duration>
									<samplecharacteristics>
										<rate>
											<timebase>25</timebase>
											<ntsc>FALSE</ntsc>
										</rate>
										<width>1920</width>
										<height>1080</height>
										<anamorphic>FALSE</anamorphic>
										<pixelaspectratio>square</pixelaspectratio>
										<fielddominance>none</fielddominance>
									</samplecharacteristics>
								</video>
								<audio>
									<samplecharacteristics>
										<depth>16</depth>
										<samplerate>48000</samplerate>
									</samplecharacteristics>
									<channelcount>1</channelcount>
									<layout>mono</layout>
									<audiochannel>
										<sourcechannel>1</sourcechannel>
										<channellabel>discrete</channellabel>
									</audiochannel>
								</audio>
								<audio>
									<samplecharacteristics>
										<depth>16</depth>
										<samplerate>48000</samplerate>
									</samplecharacteristics>
									<channelcount>1</channelcount>
									<layout>mono</layout>
									<audiochannel>
										<sourcechannel>2</sourcechannel>
										<channellabel>discrete</channellabel>
									</audiochannel>
								</audio>
							</media>
						</file>
						<link>
							<linkclipref>clipitem-425</linkclipref>
							<mediatype>video</mediatype>
							<trackindex>1</trackindex>
							<clipindex>29</clipindex>
						</link>
						<link>
							<linkclipref>clipitem-1009</linkclipref>
							<mediatype>audio</mediatype>
							<trackindex>1</trackindex>
							<clipindex>12</clipindex>
						</link>
						<link>
							<linkclipref>clipitem-1364</linkclipref>
							<mediatype>audio</mediatype>
							<trackindex>3</trackindex>
							<clipindex>8</clipindex>
						</link>
						<logginginfo>
							<description></description>
							<scene></scene>
							<shottake></shottake>
							<lognote></lognote>
						</logginginfo>
						<labels>
							<label2>Iris</label2>
						</labels>
					</clipitem>
					<clipitem id="clipitem-426" frameBlend="FALSE">
						<masterclipid>masterclip-33</masterclipid>
						<name>AA315901.MXF</name>
						<enabled>TRUE</enabled>
						<duration>816</duration>
						<rate>
							<timebase>25</timebase>
							<ntsc>FALSE</ntsc>
						</rate>
						<start>3543</start>
						<end>3619</end>
						<in>604</in>
						<out>680</out>
						<alphatype>none</alphatype>
						<pixelaspectratio>square</pixelaspectratio>
						<anamorphic>FALSE</anamorphic>
						<file id="file-31">
							<name>AA315901.MXF</name>
							<pathurl>file://localhost/Volumes/Brakka/AdobeLager/Katta/Katta-14xxxx-Smart_eller_overvaaket-Chris/02-Video/Smartly300%201/CONTENTS/CLIPS001/AA3159/AA315901.MXF</pathurl>
							<rate>
								<timebase>25</timebase>
								<ntsc>FALSE</ntsc>
							</rate>
							<duration>816</duration>
							<timecode>
								<rate>
									<timebase>25</timebase>
									<ntsc>FALSE</ntsc>
								</rate>
								<string>06:38:31:18</string>
								<frame>597793</frame>
								<displayformat>NDF</displayformat>
								<reel>
									<name></name>
								</reel>
							</timecode>
							<media>
								<video>
									<duration>18000</duration>
									<samplecharacteristics>
										<rate>
											<timebase>25</timebase>
											<ntsc>FALSE</ntsc>
										</rate>
										<width>1920</width>
										<height>1080</height>
										<anamorphic>FALSE</anamorphic>
										<pixelaspectratio>square</pixelaspectratio>
										<fielddominance>upper</fielddominance>
									</samplecharacteristics>
								</video>
								<audio>
									<samplecharacteristics>
										<depth>16</depth>
										<samplerate>48000</samplerate>
									</samplecharacteristics>
									<channelcount>1</channelcount>
									<layout>mono</layout>
									<audiochannel>
										<sourcechannel>1</sourcechannel>
										<channellabel>discrete</channellabel>
									</audiochannel>
								</audio>
								<audio>
									<samplecharacteristics>
										<depth>16</depth>
										<samplerate>48000</samplerate>
									</samplecharacteristics>
									<channelcount>1</channelcount>
									<layout>mono</layout>
									<audiochannel>
										<sourcechannel>2</sourcechannel>
										<channellabel>discrete</channellabel>
									</audiochannel>
								</audio>
							</media>
						</file>
						<link>
							<linkclipref>clipitem-426</linkclipref>
							<mediatype>video</mediatype>
							<trackindex>1</trackindex>
							<clipindex>30</clipindex>
						</link>
						<link>
							<linkclipref>clipitem-1010</linkclipref>
							<mediatype>audio</mediatype>
							<trackindex>1</trackindex>
							<clipindex>13</clipindex>
						</link>
						<link>
							<linkclipref>clipitem-1365</linkclipref>
							<mediatype>audio</mediatype>
							<trackindex>3</trackindex>
							<clipindex>9</clipindex>
						</link>
						<logginginfo>
							<description></description>
							<scene></scene>
							<shottake>AA3159</shottake>
							<lognote></lognote>
						</logginginfo>
						<labels>
							<label2>Iris</label2>
						</labels>
					</clipitem>
					<clipitem id="clipitem-427" frameBlend="FALSE">
						<masterclipid>masterclip-34</masterclipid>
						<name>MVI_9564.MOV</name>
						<enabled>TRUE</enabled>
						<duration>1090</duration>
						<rate>
							<timebase>25</timebase>
							<ntsc>FALSE</ntsc>
						</rate>
						<start>3619</start>
						<end>3709</end>
						<in>896</in>
						<out>986</out>
						<alphatype>black</alphatype>
						<pixelaspectratio>square</pixelaspectratio>
						<anamorphic>FALSE</anamorphic>
						<file id="file-32">
							<name>MVI_9564.MOV</name>
							<pathurl>file://localhost/Volumes/Brakka/AdobeLager/Katta/Katta-14xxxx-Smart_eller_overvaaket-Chris/02-Video/Smartly%205D/DCIM/100EOS5D/MVI_9564.MOV</pathurl>
							<rate>
								<timebase>25</timebase>
								<ntsc>FALSE</ntsc>
							</rate>
							<duration>1090</duration>
							<timecode>
								<rate>
									<timebase>25</timebase>
									<ntsc>FALSE</ntsc>
								</rate>
								<string>00:00:00:00</string>
								<frame>0</frame>
								<displayformat>NDF</displayformat>
								<reel>
									<name></name>
								</reel>
							</timecode>
							<media>
								<video>
									<duration>18000</duration>
									<samplecharacteristics>
										<rate>
											<timebase>25</timebase>
											<ntsc>FALSE</ntsc>
										</rate>
										<width>1920</width>
										<height>1080</height>
										<anamorphic>FALSE</anamorphic>
										<pixelaspectratio>square</pixelaspectratio>
										<fielddominance>none</fielddominance>
									</samplecharacteristics>
								</video>
								<audio>
									<samplecharacteristics>
										<depth>16</depth>
										<samplerate>48000</samplerate>
									</samplecharacteristics>
									<channelcount>1</channelcount>
									<layout>mono</layout>
									<audiochannel>
										<sourcechannel>1</sourcechannel>
										<channellabel>discrete</channellabel>
									</audiochannel>
								</audio>
								<audio>
									<samplecharacteristics>
										<depth>16</depth>
										<samplerate>48000</samplerate>
									</samplecharacteristics>
									<channelcount>1</channelcount>
									<layout>mono</layout>
									<audiochannel>
										<sourcechannel>2</sourcechannel>
										<channellabel>discrete</channellabel>
									</audiochannel>
								</audio>
							</media>
						</file>
						<link>
							<linkclipref>clipitem-427</linkclipref>
							<mediatype>video</mediatype>
							<trackindex>1</trackindex>
							<clipindex>31</clipindex>
						</link>
						<link>
							<linkclipref>clipitem-1011</linkclipref>
							<mediatype>audio</mediatype>
							<trackindex>1</trackindex>
							<clipindex>14</clipindex>
						</link>
						<link>
							<linkclipref>clipitem-1366</linkclipref>
							<mediatype>audio</mediatype>
							<trackindex>3</trackindex>
							<clipindex>10</clipindex>
						</link>
						<logginginfo>
							<description></description>
							<scene></scene>
							<shottake></shottake>
							<lognote></lognote>
						</logginginfo>
						<labels>
							<label2>Iris</label2>
						</labels>
					</clipitem>
					<clipitem id="clipitem-428" frameBlend="FALSE">
						<masterclipid>masterclip-35</masterclipid>
						<name>AA313201.MXFMulticam</name>
						<enabled>TRUE</enabled>
						<duration>1788</duration>
						<rate>
							<timebase>25</timebase>
							<ntsc>FALSE</ntsc>
						</rate>
						<start>3709</start>
						<end>3787</end>
						<in>348</in>
						<out>426</out>
						<sequence id="sequence-11">
							<duration>150</duration>
							<rate>
								<timebase>25</timebase>
								<ntsc>FALSE</ntsc>
							</rate>
							<name>AA313201.MXFMulticam-1</name>
							<media>
								<video>
									<format>
										<samplecharacteristics>
											<rate>
												<timebase>25</timebase>
												<ntsc>FALSE</ntsc>
											</rate>
											<codec>
												<name>Apple ProRes 422</name>
												<appspecificdata>
													<appname>Final Cut Pro</appname>
													<appmanufacturer>Apple Inc.</appmanufacturer>
													<appversion>7.0</appversion>
													<data>
														<qtcodec>
															<codecname>Apple ProRes 422</codecname>
															<codectypename>Apple ProRes 422</codectypename>
															<codectypecode>apcn</codectypecode>
															<codecvendorcode>appl</codecvendorcode>
															<spatialquality>1024</spatialquality>
															<temporalquality>0</temporalquality>
															<keyframerate>0</keyframerate>
															<datarate>0</datarate>
														</qtcodec>
													</data>
												</appspecificdata>
											</codec>
											<width>1920</width>
											<height>1080</height>
											<anamorphic>FALSE</anamorphic>
											<pixelaspectratio>square</pixelaspectratio>
											<fielddominance>upper</fielddominance>
											<colordepth>24</colordepth>
										</samplecharacteristics>
									</format>
									<track TL.SQTrackShy="0" TL.SQTrackExpandedHeight="25" TL.SQTrackExpanded="0" MZ.TrackTargeted="0">
										<clipitem id="clipitem-430" frameBlend="FALSE">
											<masterclipid>masterclip-36</masterclipid>
											<name>AA313201.MXF</name>
											<enabled>TRUE</enabled>
											<duration>1788</duration>
											<rate>
												<timebase>25</timebase>
												<ntsc>FALSE</ntsc>
											</rate>
											<start>0</start>
											<end>1788</end>
											<in>0</in>
											<out>1788</out>
											<alphatype>none</alphatype>
											<file id="file-33"/>
											<logginginfo>
												<description></description>
												<scene></scene>
												<shottake>AA3132</shottake>
												<lognote></lognote>
											</logginginfo>
											<labels>
												<label2>Iris</label2>
											</labels>
										</clipitem>
										<enabled>TRUE</enabled>
										<locked>FALSE</locked>
									</track>
								</video>
								<audio>
									<format>
										<samplecharacteristics>
											<depth>16</depth>
											<samplerate>48000</samplerate>
										</samplecharacteristics>
									</format>
									<outputs>
										<group>
											<index>1</index>
											<numchannels>1</numchannels>
											<downmix>0</downmix>
											<channel>
												<index>1</index>
											</channel>
										</group>
										<group>
											<index>2</index>
											<numchannels>1</numchannels>
											<downmix>0</downmix>
											<channel>
												<index>2</index>
											</channel>
										</group>
										<group>
											<index>3</index>
											<numchannels>1</numchannels>
											<downmix>0</downmix>
											<channel>
												<index>3</index>
											</channel>
										</group>
										<group>
											<index>4</index>
											<numchannels>1</numchannels>
											<downmix>0</downmix>
											<channel>
												<index>4</index>
											</channel>
										</group>
									</outputs>
									<track TL.SQTrackAudioKeyframeStyle="0" TL.SQTrackShy="0" TL.SQTrackExpandedHeight="25" TL.SQTrackExpanded="0" MZ.TrackTargeted="1" PannerCurrentValue="0" PannerIsInverted="true" PannerStartKeyframe="-91445760000000000,0.,0,0,0,0,0,0" PannerName="Balance" currentExplodedTrackIndex="0" totalExplodedTrackCount="1" premiereTrackType="Stereo">
										<clipitem id="clipitem-429" frameBlend="FALSE" PannerCurrentValue="0.5" PannerKeyframes="" PannerStartKeyframe="-91445760000000000,0.5,0,0,0,0,0,0" PannerIsInverted="true" PannerName="Pan">
											<masterclipid>masterclip-36</masterclipid>
											<name>AA313201.MXF</name>
											<enabled>TRUE</enabled>
											<duration>1788</duration>
											<rate>
												<timebase>25</timebase>
												<ntsc>FALSE</ntsc>
											</rate>
											<start>0</start>
											<end>1788</end>
											<in>0</in>
											<out>1788</out>
											<pixelaspectratio>square</pixelaspectratio>
											<anamorphic>FALSE</anamorphic>
											<file id="file-33">
												<name>AA313201.MXF</name>
												<pathurl>file://localhost/Volumes/Brakka/AdobeLager/Katta/Katta-14xxxx-Smart_eller_overvaaket-Chris/02-Video/Smartly300%201/CONTENTS/CLIPS001/AA3132/AA313201.MXF</pathurl>
												<rate>
													<timebase>25</timebase>
													<ntsc>FALSE</ntsc>
												</rate>
												<duration>1788</duration>
												<timecode>
													<rate>
														<timebase>25</timebase>
														<ntsc>FALSE</ntsc>
													</rate>
													<string>04:36:29:07</string>
													<frame>414732</frame>
													<displayformat>NDF</displayformat>
													<reel>
														<name></name>
													</reel>
												</timecode>
												<media>
													<video>
														<duration>18000</duration>
														<samplecharacteristics>
															<rate>
																<timebase>25</timebase>
																<ntsc>FALSE</ntsc>
															</rate>
															<width>1920</width>
															<height>1080</height>
															<anamorphic>FALSE</anamorphic>
															<pixelaspectratio>square</pixelaspectratio>
															<fielddominance>upper</fielddominance>
														</samplecharacteristics>
													</video>
													<audio>
														<samplecharacteristics>
															<depth>16</depth>
															<samplerate>48000</samplerate>
														</samplecharacteristics>
														<channelcount>1</channelcount>
														<layout>mono</layout>
														<audiochannel>
															<sourcechannel>1</sourcechannel>
															<channellabel>discrete</channellabel>
														</audiochannel>
													</audio>
													<audio>
														<samplecharacteristics>
															<depth>16</depth>
															<samplerate>48000</samplerate>
														</samplecharacteristics>
														<channelcount>1</channelcount>
														<layout>mono</layout>
														<audiochannel>
															<sourcechannel>2</sourcechannel>
															<channellabel>discrete</channellabel>
														</audiochannel>
													</audio>
												</media>
											</file>
											<sourcetrack>
												<mediatype>audio</mediatype>
												<trackindex>1</trackindex>
											</sourcetrack>
												<filter>
													<effect>
														<name>Audio Pan</name>
														<effectid>audiopan</effectid>
														<effectcategory>audiopan</effectcategory>
														<effecttype>audiopan</effecttype>
														<mediatype>audio</mediatype>
														<parameter authoringApp="PremierePro">
															<parameterid>pan</parameterid>
															<name>Pan</name>
															<valuemin>-1</valuemin>
															<valuemax>1</valuemax>
															<value>0</value>
														</parameter>
													</effect>
												</filter>
											<logginginfo>
												<description></description>
												<scene></scene>
												<shottake>AA3132</shottake>
												<lognote></lognote>
											</logginginfo>
											<labels>
												<label2>Iris</label2>
											</labels>
										</clipitem>
										<enabled>TRUE</enabled>
										<locked>FALSE</locked>
										<outputchannelindex>1</outputchannelindex>
									</track>
								</audio>
							</media>
							<timecode>
								<rate>
									<timebase>25</timebase>
									<ntsc>FALSE</ntsc>
								</rate>
								<string>00:00:00:00</string>
								<frame>0</frame>
								<displayformat>NDF</displayformat>
							</timecode>
						</sequence>
							<marker>
								<comment>skal vￃﾦre enjkelt ￃﾥ si at du er borte trenger ikke mobil</comment>
								<name></name>
								<in>848</in>
								<out>-1</out>
							</marker>
						<link>
							<linkclipref>clipitem-428</linkclipref>
							<mediatype>video</mediatype>
							<trackindex>1</trackindex>
							<clipindex>32</clipindex>
						</link>
						<link>
							<linkclipref>clipitem-1013</linkclipref>
							<mediatype>audio</mediatype>
							<trackindex>1</trackindex>
							<clipindex>16</clipindex>
						</link>
						<link>
							<linkclipref>clipitem-1368</linkclipref>
							<mediatype>audio</mediatype>
							<trackindex>3</trackindex>
							<clipindex>12</clipindex>
						</link>
						<labels>
							<label2>Forest</label2>
						</labels>
					</clipitem>
					<clipitem id="clipitem-435" frameBlend="FALSE">
						<masterclipid>masterclip-38</masterclipid>
						<name>AA313301.MXF</name>
						<enabled>TRUE</enabled>
						<duration>360</duration>
						<rate>
							<timebase>25</timebase>
							<ntsc>FALSE</ntsc>
						</rate>
						<start>3787</start>
						<end>3820</end>
						<in>280</in>
						<out>313</out>
						<alphatype>none</alphatype>
						<pixelaspectratio>square</pixelaspectratio>
						<anamorphic>FALSE</anamorphic>
						<file id="file-35">
							<name>AA313301.MXF</name>
							<pathurl>file://localhost/Volumes/Brakka/AdobeLager/Katta/Katta-14xxxx-Smart_eller_overvaaket-Chris/02-Video/Smartly300%201/CONTENTS/CLIPS001/AA3133/AA313301.MXF</pathurl>
							<rate>
								<timebase>25</timebase>
								<ntsc>FALSE</ntsc>
							</rate>
							<duration>360</duration>
							<timecode>
								<rate>
									<timebase>25</timebase>
									<ntsc>FALSE</ntsc>
								</rate>
								<string>04:38:37:16</string>
								<frame>417941</frame>
								<displayformat>NDF</displayformat>
								<reel>
									<name></name>
								</reel>
							</timecode>
							<media>
								<video>
									<duration>18000</duration>
									<samplecharacteristics>
										<rate>
											<timebase>25</timebase>
											<ntsc>FALSE</ntsc>
										</rate>
										<width>1920</width>
										<height>1080</height>
										<anamorphic>FALSE</anamorphic>
										<pixelaspectratio>square</pixelaspectratio>
										<fielddominance>upper</fielddominance>
									</samplecharacteristics>
								</video>
								<audio>
									<samplecharacteristics>
										<depth>16</depth>
										<samplerate>48000</samplerate>
									</samplecharacteristics>
									<channelcount>1</channelcount>
									<layout>mono</layout>
									<audiochannel>
										<sourcechannel>1</sourcechannel>
										<channellabel>discrete</channellabel>
									</audiochannel>
								</audio>
								<audio>
									<samplecharacteristics>
										<depth>16</depth>
										<samplerate>48000</samplerate>
									</samplecharacteristics>
									<channelcount>1</channelcount>
									<layout>mono</layout>
									<audiochannel>
										<sourcechannel>2</sourcechannel>
										<channellabel>discrete</channellabel>
									</audiochannel>
								</audio>
							</media>
						</file>
						<link>
							<linkclipref>clipitem-435</linkclipref>
							<mediatype>video</mediatype>
							<trackindex>1</trackindex>
							<clipindex>33</clipindex>
						</link>
						<link>
							<linkclipref>clipitem-1496</linkclipref>
							<mediatype>audio</mediatype>
							<trackindex>5</trackindex>
							<clipindex>5</clipindex>
						</link>
						<link>
							<linkclipref>clipitem-1588</linkclipref>
							<mediatype>audio</mediatype>
							<trackindex>7</trackindex>
							<clipindex>4</clipindex>
						</link>
						<logginginfo>
							<description></description>
							<scene></scene>
							<shottake>AA3133</shottake>
							<lognote></lognote>
						</logginginfo>
						<labels>
							<label2>Iris</label2>
						</labels>
					</clipitem>
					<clipitem id="clipitem-436" frameBlend="FALSE">
						<masterclipid>masterclip-35</masterclipid>
						<name>AA313201.MXFMulticam</name>
						<enabled>TRUE</enabled>
						<duration>1788</duration>
						<rate>
							<timebase>25</timebase>
							<ntsc>FALSE</ntsc>
						</rate>
						<start>3820</start>
						<end>3910</end>
						<in>615</in>
						<out>705</out>
						<sequence id="sequence-11"/>
							<marker>
								<comment>skal vￃﾦre enjkelt ￃﾥ si at du er borte trenger ikke mobil</comment>
								<name></name>
								<in>848</in>
								<out>-1</out>
							</marker>
						<labels>
							<label2>Forest</label2>
						</labels>
					</clipitem>
					<clipitem id="clipitem-437" frameBlend="FALSE">
						<masterclipid>masterclip-35</masterclipid>
						<name>AA313201.MXFMulticam</name>
						<enabled>TRUE</enabled>
						<duration>1788</duration>
						<rate>
							<timebase>25</timebase>
							<ntsc>FALSE</ntsc>
						</rate>
						<start>3910</start>
						<end>3998</end>
						<in>809</in>
						<out>897</out>
						<sequence id="sequence-11"/>
							<marker>
								<comment>skal vￃﾦre enjkelt ￃﾥ si at du er borte trenger ikke mobil</comment>
								<name></name>
								<in>848</in>
								<out>-1</out>
							</marker>
						<link>
							<linkclipref>clipitem-437</linkclipref>
							<mediatype>video</mediatype>
							<trackindex>1</trackindex>
							<clipindex>35</clipindex>
						</link>
						<link>
							<linkclipref>clipitem-1022</linkclipref>
							<mediatype>audio</mediatype>
							<trackindex>1</trackindex>
							<clipindex>19</clipindex>
						</link>
						<link>
							<linkclipref>clipitem-1371</linkclipref>
							<mediatype>audio</mediatype>
							<trackindex>3</trackindex>
							<clipindex>15</clipindex>
						</link>
						<labels>
							<label2>Forest</label2>
						</labels>
					</clipitem>
					<clipitem id="clipitem-438" frameBlend="FALSE">
						<masterclipid>masterclip-35</masterclipid>
						<name>AA313201.MXFMulticam</name>
						<enabled>TRUE</enabled>
						<duration>1788</duration>
						<rate>
							<timebase>25</timebase>
							<ntsc>FALSE</ntsc>
						</rate>
						<start>3998</start>
						<end>4026</end>
						<in>897</in>
						<out>925</out>
						<sequence id="sequence-11"/>
							<marker>
								<comment>skal vￃﾦre enjkelt ￃﾥ si at du er borte trenger ikke mobil</comment>
								<name></name>
								<in>848</in>
								<out>-1</out>
							</marker>
						<labels>
							<label2>Forest</label2>
						</labels>
					</clipitem>
					<clipitem id="clipitem-439" frameBlend="FALSE">
						<masterclipid>masterclip-39</masterclipid>
						<name>MVI_9545.MOV</name>
						<enabled>TRUE</enabled>
						<duration>389</duration>
						<rate>
							<timebase>25</timebase>
							<ntsc>FALSE</ntsc>
						</rate>
						<start>4026</start>
						<end>4045</end>
						<in>358</in>
						<out>377</out>
						<alphatype>black</alphatype>
						<pixelaspectratio>square</pixelaspectratio>
						<anamorphic>FALSE</anamorphic>
						<file id="file-36">
							<name>MVI_9545.MOV</name>
							<pathurl>file://localhost/Volumes/Brakka/AdobeLager/Katta/Katta-14xxxx-Smart_eller_overvaaket-Chris/02-Video/Smartly%205D/DCIM/100EOS5D/MVI_9545.MOV</pathurl>
							<rate>
								<timebase>25</timebase>
								<ntsc>FALSE</ntsc>
							</rate>
							<duration>389</duration>
							<timecode>
								<rate>
									<timebase>25</timebase>
									<ntsc>FALSE</ntsc>
								</rate>
								<string>00:00:00:00</string>
								<frame>0</frame>
								<displayformat>NDF</displayformat>
								<reel>
									<name></name>
								</reel>
							</timecode>
							<media>
								<video>
									<duration>18000</duration>
									<samplecharacteristics>
										<rate>
											<timebase>25</timebase>
											<ntsc>FALSE</ntsc>
										</rate>
										<width>1920</width>
										<height>1080</height>
										<anamorphic>FALSE</anamorphic>
										<pixelaspectratio>square</pixelaspectratio>
										<fielddominance>none</fielddominance>
									</samplecharacteristics>
								</video>
								<audio>
									<samplecharacteristics>
										<depth>16</depth>
										<samplerate>48000</samplerate>
									</samplecharacteristics>
									<channelcount>1</channelcount>
									<layout>mono</layout>
									<audiochannel>
										<sourcechannel>1</sourcechannel>
										<channellabel>discrete</channellabel>
									</audiochannel>
								</audio>
								<audio>
									<samplecharacteristics>
										<depth>16</depth>
										<samplerate>48000</samplerate>
									</samplecharacteristics>
									<channelcount>1</channelcount>
									<layout>mono</layout>
									<audiochannel>
										<sourcechannel>2</sourcechannel>
										<channellabel>discrete</channellabel>
									</audiochannel>
								</audio>
							</media>
						</file>
						<logginginfo>
							<description></description>
							<scene></scene>
							<shottake></shottake>
							<lognote></lognote>
						</logginginfo>
						<labels>
							<label2>Iris</label2>
						</labels>
					</clipitem>
					<clipitem id="clipitem-440" frameBlend="FALSE">
						<masterclipid>masterclip-40</masterclipid>
						<name>Smarte hus slow.mov</name>
						<enabled>TRUE</enabled>
						<duration>34</duration>
						<rate>
							<timebase>25</timebase>
							<ntsc>FALSE</ntsc>
						</rate>
						<start>4045</start>
						<end>4078</end>
						<in>1</in>
						<out>34</out>
						<alphatype>none</alphatype>
						<pixelaspectratio>square</pixelaspectratio>
						<anamorphic>FALSE</anamorphic>
						<file id="file-37">
							<name>Smarte hus slow.mov</name>
							<pathurl>file://localhost/Volumes/Brakka/AdobeLager/Katta/Katta-14xxxx-Smart_eller_overvaaket-Chris/04-Grafikk/Smarte%20hus%20slow.mov</pathurl>
							<rate>
								<timebase>25</timebase>
								<ntsc>FALSE</ntsc>
							</rate>
							<duration>34</duration>
							<timecode>
								<rate>
									<timebase>25</timebase>
									<ntsc>FALSE</ntsc>
								</rate>
								<string>00:01:22:21</string>
								<frame>2071</frame>
								<displayformat>NDF</displayformat>
								<reel>
									<name></name>
								</reel>
							</timecode>
							<media>
								<video>
									<duration>18000</duration>
									<samplecharacteristics>
										<rate>
											<timebase>25</timebase>
											<ntsc>FALSE</ntsc>
										</rate>
										<width>1920</width>
										<height>1080</height>
										<anamorphic>FALSE</anamorphic>
										<pixelaspectratio>square</pixelaspectratio>
										<fielddominance>upper</fielddominance>
									</samplecharacteristics>
								</video>
								<audio>
									<samplecharacteristics>
										<depth>16</depth>
										<samplerate>48000</samplerate>
									</samplecharacteristics>
									<channelcount>2</channelcount>
								</audio>
							</media>
						</file>
							<filter>
								<effect>
									<name>Time Remap</name>
									<effectid>timeremap</effectid>
									<effectcategory>motion</effectcategory>
									<effecttype>motion</effecttype>
									<mediatype>video</mediatype>
									<parameter authoringApp="PremierePro">
										<parameterid>variablespeed</parameterid>
										<name>variablespeed</name>
										<valuemin>0</valuemin>
										<valuemax>1</valuemax>
										<value>0</value>
									</parameter>
									<parameter authoringApp="PremierePro">
										<parameterid>mappedduration</parameterid>
										<name>mappedduration</name>
										<value>
											<timecode>
												<rate>
													<timebase>0</timebase>
												</rate>
												<string>0</string>
												<frame>0</frame>
												<displayformat>NDF</displayformat>
											</timecode>
										</value>
									</parameter>
									<parameter authoringApp="PremierePro">
										<parameterid>speed</parameterid>
										<name>speed</name>
										<valuemin>-100000</valuemin>
										<valuemax>100000</valuemax>
										<value>100</value>
									</parameter>
									<parameter authoringApp="PremierePro">
										<parameterid>reverse</parameterid>
										<name>reverse</name>
										<value>TRUE</value>
									</parameter>
									<parameter authoringApp="PremierePro">
										<parameterid>frameblending</parameterid>
										<name>frameblending</name>
										<value>FALSE</value>
									</parameter>
									<parameter authoringApp="PremierePro">
										<parameterid>graphdict</parameterid>
										<name>graphdict</name>
										<valuemin>0</valuemin>
										<valuemax>34</valuemax>
										<value>0</value>
										<keyframe>
											<when>0</when>
											<value>35</value>
											<speedvirtualkf>TRUE</speedvirtualkf>
											<origvalue>34</origvalue>
											<speedkfstart>TRUE</speedkfstart>
										</keyframe>
										<keyframe>
											<when>1</when>
											<value>33</value>
											<speedvirtualkf>TRUE</speedvirtualkf>
											<origvalue>33</origvalue>
											<speedkfin>TRUE</speedkfin>
										</keyframe>
										<keyframe>
											<when>34</when>
											<value>0</value>
											<speedvirtualkf>TRUE</speedvirtualkf>
											<origvalue>0</origvalue>
											<speedkfout>TRUE</speedkfout>
										</keyframe>
										<interpolation>
											<name>FCPCurve</name>
										</interpolation>
									</parameter>
								</effect>
							</filter>
						<logginginfo>
							<description></description>
							<scene></scene>
							<shottake></shottake>
							<lognote></lognote>
						</logginginfo>
						<labels>
							<label2>Iris</label2>
						</labels>
					</clipitem>
					<clipitem id="clipitem-441" frameBlend="FALSE">
						<masterclipid>masterclip-35</masterclipid>
						<name>AA313201.MXFMulticam</name>
						<enabled>TRUE</enabled>
						<duration>1788</duration>
						<rate>
							<timebase>25</timebase>
							<ntsc>FALSE</ntsc>
						</rate>
						<start>4078</start>
						<end>4133</end>
						<in>1064</in>
						<out>1119</out>
						<sequence id="sequence-11"/>
							<filter>
								<effect>
									<name>Basic Motion</name>
									<effectid>basic</effectid>
									<effectcategory>motion</effectcategory>
									<effecttype>motion</effecttype>
									<mediatype>video</mediatype>
									<parameter authoringApp="PremierePro">
										<parameterid>scale</parameterid>
										<name>Scale</name>
										<valuemin>0</valuemin>
										<valuemax>1000</valuemax>
										<value>100</value>
										<keyframe>
											<when>1050</when>
											<value>121</value>
										</keyframe>
										<keyframe>
											<when>1102</when>
											<value>121</value>
										</keyframe>
										<keyframe>
											<when>1117</when>
											<value>100</value>
										</keyframe>
									</parameter>
									<parameter authoringApp="PremierePro">
										<parameterid>rotation</parameterid>
										<name>Rotation</name>
										<valuemin>-8640</valuemin>
										<valuemax>8640</valuemax>
										<value>0</value>
									</parameter>
									<parameter authoringApp="PremierePro">
										<parameterid>center</parameterid>
										<name>Center</name>
										<value>
											<horiz>-0.5</horiz>
											<vert>-0.5</vert>
										</value>
										<keyframe>
											<when>1050</when>
											<value>
												<horiz>-0.5</horiz>
												<vert>-0.5</vert>
											</value>
										</keyframe>
										<keyframe>
											<when>1102</when>
											<value>
												<horiz>-0.5</horiz>
												<vert>-0.5</vert>
											</value>
										</keyframe>
										<keyframe>
											<when>1117</when>
											<value>
												<horiz>-0.5</horiz>
												<vert>-0.5</vert>
											</value>
										</keyframe>
									</parameter>
									<parameter authoringApp="PremierePro">
										<parameterid>centerOffset</parameterid>
										<name>Anchor Point</name>
										<value>
											<horiz>0</horiz>
											<vert>0</vert>
										</value>
									</parameter>
								</effect>
							</filter>
							<marker>
								<comment>skal vￃﾦre enjkelt ￃﾥ si at du er borte trenger ikke mobil</comment>
								<name></name>
								<in>848</in>
								<out>-1</out>
							</marker>
						<labels>
							<label2>Forest</label2>
						</labels>
					</clipitem>
					<clipitem id="clipitem-442" frameBlend="FALSE">
						<masterclipid>masterclip-35</masterclipid>
						<name>AA313201.MXFMulticam</name>
						<enabled>TRUE</enabled>
						<duration>1788</duration>
						<rate>
							<timebase>25</timebase>
							<ntsc>FALSE</ntsc>
						</rate>
						<start>4133</start>
						<end>4728</end>
						<in>1119</in>
						<out>1714</out>
						<sequence id="sequence-11"/>
							<marker>
								<comment>skal vￃﾦre enjkelt ￃﾥ si at du er borte trenger ikke mobil</comment>
								<name></name>
								<in>848</in>
								<out>-1</out>
							</marker>
						<labels>
							<label2>Forest</label2>
						</labels>
					</clipitem>
					<clipitem id="clipitem-443" frameBlend="FALSE">
						<masterclipid>masterclip-41</masterclipid>
						<name>MVI_9579.MOV</name>
						<enabled>TRUE</enabled>
						<duration>1587</duration>
						<rate>
							<timebase>25</timebase>
							<ntsc>FALSE</ntsc>
						</rate>
						<start>4728</start>
						<end>4811</end>
						<in>760</in>
						<out>843</out>
						<alphatype>black</alphatype>
						<pixelaspectratio>square</pixelaspectratio>
						<anamorphic>FALSE</anamorphic>
						<file id="file-38">
							<name>MVI_9579.MOV</name>
							<pathurl>file://localhost/Volumes/Brakka/AdobeLager/Katta/Katta-14xxxx-Smart_eller_overvaaket-Chris/02-Video/Smartly%205D/DCIM/100EOS5D/MVI_9579.MOV</pathurl>
							<rate>
								<timebase>25</timebase>
								<ntsc>FALSE</ntsc>
							</rate>
							<duration>1587</duration>
							<timecode>
								<rate>
									<timebase>25</timebase>
									<ntsc>FALSE</ntsc>
								</rate>
								<string>00:00:00:00</string>
								<frame>0</frame>
								<displayformat>NDF</displayformat>
								<reel>
									<name></name>
								</reel>
							</timecode>
							<media>
								<video>
									<duration>18000</duration>
									<samplecharacteristics>
										<rate>
											<timebase>25</timebase>
											<ntsc>FALSE</ntsc>
										</rate>
										<width>1920</width>
										<height>1080</height>
										<anamorphic>FALSE</anamorphic>
										<pixelaspectratio>square</pixelaspectratio>
										<fielddominance>none</fielddominance>
									</samplecharacteristics>
								</video>
								<audio>
									<samplecharacteristics>
										<depth>16</depth>
										<samplerate>48000</samplerate>
									</samplecharacteristics>
									<channelcount>1</channelcount>
									<layout>mono</layout>
									<audiochannel>
										<sourcechannel>1</sourcechannel>
										<channellabel>discrete</channellabel>
									</audiochannel>
								</audio>
								<audio>
									<samplecharacteristics>
										<depth>16</depth>
										<samplerate>48000</samplerate>
									</samplecharacteristics>
									<channelcount>1</channelcount>
									<layout>mono</layout>
									<audiochannel>
										<sourcechannel>2</sourcechannel>
										<channellabel>discrete</channellabel>
									</audiochannel>
								</audio>
							</media>
						</file>
						<link>
							<linkclipref>clipitem-443</linkclipref>
							<mediatype>video</mediatype>
							<trackindex>1</trackindex>
							<clipindex>41</clipindex>
						</link>
						<link>
							<linkclipref>clipitem-1497</linkclipref>
							<mediatype>audio</mediatype>
							<trackindex>5</trackindex>
							<clipindex>6</clipindex>
						</link>
						<link>
							<linkclipref>clipitem-1589</linkclipref>
							<mediatype>audio</mediatype>
							<trackindex>7</trackindex>
							<clipindex>5</clipindex>
						</link>
						<logginginfo>
							<description></description>
							<scene></scene>
							<shottake></shottake>
							<lognote></lognote>
						</logginginfo>
						<labels>
							<label2>Iris</label2>
						</labels>
					</clipitem>
					<clipitem id="clipitem-444" frameBlend="FALSE">
						<masterclipid>masterclip-42</masterclipid>
						<name>AA314901.MXF</name>
						<enabled>TRUE</enabled>
						<duration>4956</duration>
						<rate>
							<timebase>25</timebase>
							<ntsc>FALSE</ntsc>
						</rate>
						<start>4811</start>
						<end>4924</end>
						<in>4636</in>
						<out>4749</out>
						<alphatype>none</alphatype>
						<pixelaspectratio>square</pixelaspectratio>
						<anamorphic>FALSE</anamorphic>
						<file id="file-39">
							<name>AA314901.MXF</name>
							<pathurl>file://localhost/Volumes/Brakka/AdobeLager/Katta/Katta-14xxxx-Smart_eller_overvaaket-Chris/02-Video/Smartly300%201/CONTENTS/CLIPS001/AA3149/AA314901.MXF</pathurl>
							<rate>
								<timebase>25</timebase>
								<ntsc>FALSE</ntsc>
							</rate>
							<duration>4956</duration>
							<timecode>
								<rate>
									<timebase>25</timebase>
									<ntsc>FALSE</ntsc>
								</rate>
								<string>05:50:46:01</string>
								<frame>526151</frame>
								<displayformat>NDF</displayformat>
								<reel>
									<name></name>
								</reel>
							</timecode>
							<media>
								<video>
									<duration>18000</duration>
									<samplecharacteristics>
										<rate>
											<timebase>25</timebase>
											<ntsc>FALSE</ntsc>
										</rate>
										<width>1920</width>
										<height>1080</height>
										<anamorphic>FALSE</anamorphic>
										<pixelaspectratio>square</pixelaspectratio>
										<fielddominance>upper</fielddominance>
									</samplecharacteristics>
								</video>
								<audio>
									<samplecharacteristics>
										<depth>16</depth>
										<samplerate>48000</samplerate>
									</samplecharacteristics>
									<channelcount>1</channelcount>
									<layout>mono</layout>
									<audiochannel>
										<sourcechannel>1</sourcechannel>
										<channellabel>discrete</channellabel>
									</audiochannel>
								</audio>
								<audio>
									<samplecharacteristics>
										<depth>16</depth>
										<samplerate>48000</samplerate>
									</samplecharacteristics>
									<channelcount>1</channelcount>
									<layout>mono</layout>
									<audiochannel>
										<sourcechannel>2</sourcechannel>
										<channellabel>discrete</channellabel>
									</audiochannel>
								</audio>
							</media>
						</file>
						<link>
							<linkclipref>clipitem-444</linkclipref>
							<mediatype>video</mediatype>
							<trackindex>1</trackindex>
							<clipindex>42</clipindex>
						</link>
						<link>
							<linkclipref>clipitem-1498</linkclipref>
							<mediatype>audio</mediatype>
							<trackindex>5</trackindex>
							<clipindex>7</clipindex>
						</link>
						<link>
							<linkclipref>clipitem-1590</linkclipref>
							<mediatype>audio</mediatype>
							<trackindex>7</trackindex>
							<clipindex>6</clipindex>
						</link>
						<logginginfo>
							<description></description>
							<scene></scene>
							<shottake>AA3149</shottake>
							<lognote></lognote>
						</logginginfo>
						<labels>
							<label2>Iris</label2>
						</labels>
					</clipitem>
					<clipitem id="clipitem-445" frameBlend="FALSE">
						<masterclipid>masterclip-43</masterclipid>
						<name>MVI_9570.MOV</name>
						<enabled>TRUE</enabled>
						<duration>617</duration>
						<rate>
							<timebase>25</timebase>
							<ntsc>FALSE</ntsc>
						</rate>
						<start>4924</start>
						<end>4985</end>
						<in>448</in>
						<out>509</out>
						<alphatype>black</alphatype>
						<pixelaspectratio>square</pixelaspectratio>
						<anamorphic>FALSE</anamorphic>
						<file id="file-40">
							<name>MVI_9570.MOV</name>
							<pathurl>file://localhost/Volumes/Brakka/AdobeLager/Katta/Katta-14xxxx-Smart_eller_overvaaket-Chris/02-Video/Smartly%205D/DCIM/100EOS5D/MVI_9570.MOV</pathurl>
							<rate>
								<timebase>25</timebase>
								<ntsc>FALSE</ntsc>
							</rate>
							<duration>617</duration>
							<timecode>
								<rate>
									<timebase>25</timebase>
									<ntsc>FALSE</ntsc>
								</rate>
								<string>00:00:00:00</string>
								<frame>0</frame>
								<displayformat>NDF</displayformat>
								<reel>
									<name></name>
								</reel>
							</timecode>
							<media>
								<video>
									<duration>18000</duration>
									<samplecharacteristics>
										<rate>
											<timebase>25</timebase>
											<ntsc>FALSE</ntsc>
										</rate>
										<width>1920</width>
										<height>1080</height>
										<anamorphic>FALSE</anamorphic>
										<pixelaspectratio>square</pixelaspectratio>
										<fielddominance>none</fielddominance>
									</samplecharacteristics>
								</video>
								<audio>
									<samplecharacteristics>
										<depth>16</depth>
										<samplerate>48000</samplerate>
									</samplecharacteristics>
									<channelcount>1</channelcount>
									<layout>mono</layout>
									<audiochannel>
										<sourcechannel>1</sourcechannel>
										<channellabel>discrete</channellabel>
									</audiochannel>
								</audio>
								<audio>
									<samplecharacteristics>
										<depth>16</depth>
										<samplerate>48000</samplerate>
									</samplecharacteristics>
									<channelcount>1</channelcount>
									<layout>mono</layout>
									<audiochannel>
										<sourcechannel>2</sourcechannel>
										<channellabel>discrete</channellabel>
									</audiochannel>
								</audio>
							</media>
						</file>
						<logginginfo>
							<description></description>
							<scene></scene>
							<shottake></shottake>
							<lognote></lognote>
						</logginginfo>
						<labels>
							<label2>Iris</label2>
						</labels>
					</clipitem>
					<clipitem id="clipitem-446" frameBlend="FALSE">
						<masterclipid>masterclip-44</masterclipid>
						<name>AA313701.MXFMulticam</name>
						<enabled>TRUE</enabled>
						<duration>14040</duration>
						<rate>
							<timebase>25</timebase>
							<ntsc>FALSE</ntsc>
						</rate>
						<start>4985</start>
						<end>5039</end>
						<in>6500</in>
						<out>6554</out>
						<sequence id="sequence-15">
							<duration>150</duration>
							<rate>
								<timebase>25</timebase>
								<ntsc>FALSE</ntsc>
							</rate>
							<name>AA313701.MXFMulticam-1</name>
							<media>
								<video>
									<format>
										<samplecharacteristics>
											<rate>
												<timebase>25</timebase>
												<ntsc>FALSE</ntsc>
											</rate>
											<codec>
												<name>Apple ProRes 422</name>
												<appspecificdata>
													<appname>Final Cut Pro</appname>
													<appmanufacturer>Apple Inc.</appmanufacturer>
													<appversion>7.0</appversion>
													<data>
														<qtcodec>
															<codecname>Apple ProRes 422</codecname>
															<codectypename>Apple ProRes 422</codectypename>
															<codectypecode>apcn</codectypecode>
															<codecvendorcode>appl</codecvendorcode>
															<spatialquality>1024</spatialquality>
															<temporalquality>0</temporalquality>
															<keyframerate>0</keyframerate>
															<datarate>0</datarate>
														</qtcodec>
													</data>
												</appspecificdata>
											</codec>
											<width>1920</width>
											<height>1080</height>
											<anamorphic>FALSE</anamorphic>
											<pixelaspectratio>square</pixelaspectratio>
											<fielddominance>upper</fielddominance>
											<colordepth>24</colordepth>
										</samplecharacteristics>
									</format>
									<track TL.SQTrackShy="0" TL.SQTrackExpandedHeight="25" TL.SQTrackExpanded="0" MZ.TrackTargeted="0">
										<clipitem id="clipitem-448" frameBlend="FALSE">
											<masterclipid>masterclip-45</masterclipid>
											<name>AA313701.MXF</name>
											<enabled>TRUE</enabled>
											<duration>14040</duration>
											<rate>
												<timebase>25</timebase>
												<ntsc>FALSE</ntsc>
											</rate>
											<start>0</start>
											<end>14040</end>
											<in>0</in>
											<out>14040</out>
											<alphatype>none</alphatype>
											<file id="file-41"/>
											<logginginfo>
												<description></description>
												<scene></scene>
												<shottake>AA3137</shottake>
												<lognote></lognote>
											</logginginfo>
											<labels>
												<label2>Iris</label2>
											</labels>
										</clipitem>
										<enabled>TRUE</enabled>
										<locked>FALSE</locked>
									</track>
								</video>
								<audio>
									<format>
										<samplecharacteristics>
											<depth>16</depth>
											<samplerate>48000</samplerate>
										</samplecharacteristics>
									</format>
									<outputs>
										<group>
											<index>1</index>
											<numchannels>1</numchannels>
											<downmix>0</downmix>
											<channel>
												<index>1</index>
											</channel>
										</group>
										<group>
											<index>2</index>
											<numchannels>1</numchannels>
											<downmix>0</downmix>
											<channel>
												<index>2</index>
											</channel>
										</group>
										<group>
											<index>3</index>
											<numchannels>1</numchannels>
											<downmix>0</downmix>
											<channel>
												<index>3</index>
											</channel>
										</group>
										<group>
											<index>4</index>
											<numchannels>1</numchannels>
											<downmix>0</downmix>
											<channel>
												<index>4</index>
											</channel>
										</group>
									</outputs>
									<track TL.SQTrackAudioKeyframeStyle="0" TL.SQTrackShy="0" TL.SQTrackExpandedHeight="25" TL.SQTrackExpanded="0" MZ.TrackTargeted="1" PannerCurrentValue="0" PannerIsInverted="true" PannerStartKeyframe="-91445760000000000,0.,0,0,0,0,0,0" PannerName="Balance" currentExplodedTrackIndex="0" totalExplodedTrackCount="1" premiereTrackType="Stereo">
										<clipitem id="clipitem-447" frameBlend="FALSE" PannerCurrentValue="0.5" PannerKeyframes="" PannerStartKeyframe="-91445760000000000,0.5,0,0,0,0,0,0" PannerIsInverted="true" PannerName="Pan">
											<masterclipid>masterclip-45</masterclipid>
											<name>AA313701.MXF</name>
											<enabled>TRUE</enabled>
											<duration>14040</duration>
											<rate>
												<timebase>25</timebase>
												<ntsc>FALSE</ntsc>
											</rate>
											<start>0</start>
											<end>14040</end>
											<in>0</in>
											<out>14040</out>
											<pixelaspectratio>square</pixelaspectratio>
											<anamorphic>FALSE</anamorphic>
											<file id="file-41">
												<name>AA313701.MXF</name>
												<pathurl>file://localhost/Volumes/Brakka/AdobeLager/Katta/Katta-14xxxx-Smart_eller_overvaaket-Chris/02-Video/Smartly300%201/CONTENTS/CLIPS001/AA3137/AA313701.MXF</pathurl>
												<rate>
													<timebase>25</timebase>
													<ntsc>FALSE</ntsc>
												</rate>
												<duration>14040</duration>
												<timecode>
													<rate>
														<timebase>25</timebase>
														<ntsc>FALSE</ntsc>
													</rate>
													<string>04:49:30:11</string>
													<frame>434261</frame>
													<displayformat>NDF</displayformat>
													<reel>
														<name></name>
													</reel>
												</timecode>
												<media>
													<video>
														<duration>18000</duration>
														<samplecharacteristics>
															<rate>
																<timebase>25</timebase>
																<ntsc>FALSE</ntsc>
															</rate>
															<width>1920</width>
															<height>1080</height>
															<anamorphic>FALSE</anamorphic>
															<pixelaspectratio>square</pixelaspectratio>
															<fielddominance>upper</fielddominance>
														</samplecharacteristics>
													</video>
													<audio>
														<samplecharacteristics>
															<depth>16</depth>
															<samplerate>48000</samplerate>
														</samplecharacteristics>
														<channelcount>1</channelcount>
														<layout>mono</layout>
														<audiochannel>
															<sourcechannel>1</sourcechannel>
															<channellabel>discrete</channellabel>
														</audiochannel>
													</audio>
													<audio>
														<samplecharacteristics>
															<depth>16</depth>
															<samplerate>48000</samplerate>
														</samplecharacteristics>
														<channelcount>1</channelcount>
														<layout>mono</layout>
														<audiochannel>
															<sourcechannel>2</sourcechannel>
															<channellabel>discrete</channellabel>
														</audiochannel>
													</audio>
												</media>
											</file>
											<sourcetrack>
												<mediatype>audio</mediatype>
												<trackindex>1</trackindex>
											</sourcetrack>
												<filter>
													<effect>
														<name>Audio Pan</name>
														<effectid>audiopan</effectid>
														<effectcategory>audiopan</effectcategory>
														<effecttype>audiopan</effecttype>
														<mediatype>audio</mediatype>
														<parameter authoringApp="PremierePro">
															<parameterid>pan</parameterid>
															<name>Pan</name>
															<valuemin>-1</valuemin>
															<valuemax>1</valuemax>
															<value>0</value>
														</parameter>
													</effect>
												</filter>
											<logginginfo>
												<description></description>
												<scene></scene>
												<shottake>AA3137</shottake>
												<lognote></lognote>
											</logginginfo>
											<labels>
												<label2>Iris</label2>
											</labels>
										</clipitem>
										<enabled>TRUE</enabled>
										<locked>FALSE</locked>
										<outputchannelindex>1</outputchannelindex>
									</track>
								</audio>
							</media>
							<timecode>
								<rate>
									<timebase>25</timebase>
									<ntsc>FALSE</ntsc>
								</rate>
								<string>00:00:00:00</string>
								<frame>0</frame>
								<displayformat>NDF</displayformat>
							</timecode>
						</sequence>
							<marker>
								<comment>du gir fra deg dataene dine, hvordan fￃﾸles det ￃﾥ vite at de vet alt du gjￃﾸr?</comment>
								<name></name>
								<in>1441</in>
								<out>-1</out>
							</marker>
							<marker>
								<comment>av og pￃﾥ lys</comment>
								<name></name>
								<in>7029</in>
								<out>-1</out>
							</marker>
							<marker>
								<comment>dere kan vite hva jeg ser pￃﾥ tv, nￃﾥr jeg dusjer, nￃﾥr jeg setter pￃﾥ vaskemaskinen min</comment>
								<name></name>
								<in>3985</in>
								<out>-1</out>
							</marker>
							<marker>
								<comment>vet ikke om det er meg eller kona eller dattera mi</comment>
								<name></name>
								<in>2090</in>
								<out>-1</out>
							</marker>
							<marker>
								<comment>veldig nyttig</comment>
								<name>:)</name>
								<in>13312</in>
								<out>-1</out>
							</marker>
							<marker>
								<comment>lyse kan overvￃﾥke folk</comment>
								<name></name>
								<in>2876</in>
								<out>-1</out>
							</marker>
							<marker>
								<comment>bevegelsessenor, varmekablene er koblet opp og lamper og jobber med ￃﾥ fￃﾥ koblet det med lydanlegget&#13;mￃﾥ selbvgￃﾸlge ha :)</comment>
								<name></name>
								<in>914</in>
								<out>-1</out>
							</marker>
							<marker>
								<comment>absurd meningslￃﾸs greie, men gￃﾸyal</comment>
								<name></name>
								<in>12226</in>
								<out>-1</out>
							</marker>
							<marker>
								<comment>hallo dattera kommer</comment>
								<name></name>
								<in>4816</in>
								<out>-1</out>
							</marker>
							<marker>
								<comment>jeg kan styre pappa sitt rom&#13;tro du ha nblir fornￃﾸyd da?</comment>
								<name>: )</name>
								<in>7819</in>
								<out>-1</out>
							</marker>
							<marker>
								<comment>lￃﾦrt ￃﾥ styre ting pￃﾥ eget rom?</comment>
								<name></name>
								<in>6191</in>
								<out>-1</out>
							</marker>
							<marker>
								<comment>verdt det men ville ikke gitt dem tilgang til kameraer og sￃﾥnne ting</comment>
								<name></name>
								<in>2636</in>
								<out>-1</out>
							</marker>
							<marker>
								<comment>viktig at jeg som sluttbruker eier mine egne data</comment>
								<name></name>
								<in>3582</in>
								<out>-1</out>
							</marker>
							<marker>
								<comment>kjￃﾸkkenet er av stua er av</comment>
								<name></name>
								<in>10120</in>
								<out>-1</out>
							</marker>
						<labels>
							<label2>Forest</label2>
						</labels>
					</clipitem>
					<clipitem id="clipitem-453" frameBlend="FALSE">
						<masterclipid>masterclip-44</masterclipid>
						<name>AA313701.MXFMulticam</name>
						<enabled>TRUE</enabled>
						<duration>14040</duration>
						<rate>
							<timebase>25</timebase>
							<ntsc>FALSE</ntsc>
						</rate>
						<start>5039</start>
						<end>5089</end>
						<in>6998</in>
						<out>7048</out>
						<sequence id="sequence-15"/>
							<marker>
								<comment>du gir fra deg dataene dine, hvordan fￃﾸles det ￃﾥ vite at de vet alt du gjￃﾸr?</comment>
								<name></name>
								<in>1441</in>
								<out>-1</out>
							</marker>
							<marker>
								<comment>av og pￃﾥ lys</comment>
								<name></name>
								<in>7029</in>
								<out>-1</out>
							</marker>
							<marker>
								<comment>dere kan vite hva jeg ser pￃﾥ tv, nￃﾥr jeg dusjer, nￃﾥr jeg setter pￃﾥ vaskemaskinen min</comment>
								<name></name>
								<in>3985</in>
								<out>-1</out>
							</marker>
							<marker>
								<comment>vet ikke om det er meg eller kona eller dattera mi</comment>
								<name></name>
								<in>2090</in>
								<out>-1</out>
							</marker>
							<marker>
								<comment>veldig nyttig</comment>
								<name>:)</name>
								<in>13312</in>
								<out>-1</out>
							</marker>
							<marker>
								<comment>lyse kan overvￃﾥke folk</comment>
								<name></name>
								<in>2876</in>
								<out>-1</out>
							</marker>
							<marker>
								<comment>bevegelsessenor, varmekablene er koblet opp og lamper og jobber med ￃﾥ fￃﾥ koblet det med lydanlegget&#13;mￃﾥ selbvgￃﾸlge ha :)</comment>
								<name></name>
								<in>914</in>
								<out>-1</out>
							</marker>
							<marker>
								<comment>absurd meningslￃﾸs greie, men gￃﾸyal</comment>
								<name></name>
								<in>12226</in>
								<out>-1</out>
							</marker>
							<marker>
								<comment>hallo dattera kommer</comment>
								<name></name>
								<in>4816</in>
								<out>-1</out>
							</marker>
							<marker>
								<comment>jeg kan styre pappa sitt rom&#13;tro du ha nblir fornￃﾸyd da?</comment>
								<name>: )</name>
								<in>7819</in>
								<out>-1</out>
							</marker>
							<marker>
								<comment>lￃﾦrt ￃﾥ styre ting pￃﾥ eget rom?</comment>
								<name></name>
								<in>6191</in>
								<out>-1</out>
							</marker>
							<marker>
								<comment>verdt det men ville ikke gitt dem tilgang til kameraer og sￃﾥnne ting</comment>
								<name></name>
								<in>2636</in>
								<out>-1</out>
							</marker>
							<marker>
								<comment>viktig at jeg som sluttbruker eier mine egne data</comment>
								<name></name>
								<in>3582</in>
								<out>-1</out>
							</marker>
							<marker>
								<comment>kjￃﾸkkenet er av stua er av</comment>
								<name></name>
								<in>10120</in>
								<out>-1</out>
							</marker>
						<link>
							<linkclipref>clipitem-453</linkclipref>
							<mediatype>video</mediatype>
							<trackindex>1</trackindex>
							<clipindex>45</clipindex>
						</link>
						<link>
							<linkclipref>clipitem-1033</linkclipref>
							<mediatype>audio</mediatype>
							<trackindex>1</trackindex>
							<clipindex>24</clipindex>
						</link>
						<link>
							<linkclipref>clipitem-1376</linkclipref>
							<mediatype>audio</mediatype>
							<trackindex>3</trackindex>
							<clipindex>20</clipindex>
						</link>
						<labels>
							<label2>Forest</label2>
						</labels>
					</clipitem>
					<clipitem id="clipitem-454" frameBlend="FALSE">
						<masterclipid>masterclip-44</masterclipid>
						<name>AA313701.MXFMulticam</name>
						<enabled>TRUE</enabled>
						<duration>14040</duration>
						<rate>
							<timebase>25</timebase>
							<ntsc>FALSE</ntsc>
						</rate>
						<start>5089</start>
						<end>5120</end>
						<in>7048</in>
						<out>7079</out>
						<sequence id="sequence-15"/>
							<marker>
								<comment>du gir fra deg dataene dine, hvordan fￃﾸles det ￃﾥ vite at de vet alt du gjￃﾸr?</comment>
								<name></name>
								<in>1441</in>
								<out>-1</out>
							</marker>
							<marker>
								<comment>av og pￃﾥ lys</comment>
								<name></name>
								<in>7029</in>
								<out>-1</out>
							</marker>
							<marker>
								<comment>dere kan vite hva jeg ser pￃﾥ tv, nￃﾥr jeg dusjer, nￃﾥr jeg setter pￃﾥ vaskemaskinen min</comment>
								<name></name>
								<in>3985</in>
								<out>-1</out>
							</marker>
							<marker>
								<comment>vet ikke om det er meg eller kona eller dattera mi</comment>
								<name></name>
								<in>2090</in>
								<out>-1</out>
							</marker>
							<marker>
								<comment>veldig nyttig</comment>
								<name>:)</name>
								<in>13312</in>
								<out>-1</out>
							</marker>
							<marker>
								<comment>lyse kan overvￃﾥke folk</comment>
								<name></name>
								<in>2876</in>
								<out>-1</out>
							</marker>
							<marker>
								<comment>bevegelsessenor, varmekablene er koblet opp og lamper og jobber med ￃﾥ fￃﾥ koblet det med lydanlegget&#13;mￃﾥ selbvgￃﾸlge ha :)</comment>
								<name></name>
								<in>914</in>
								<out>-1</out>
							</marker>
							<marker>
								<comment>absurd meningslￃﾸs greie, men gￃﾸyal</comment>
								<name></name>
								<in>12226</in>
								<out>-1</out>
							</marker>
							<marker>
								<comment>hallo dattera kommer</comment>
								<name></name>
								<in>4816</in>
								<out>-1</out>
							</marker>
							<marker>
								<comment>jeg kan styre pappa sitt rom&#13;tro du ha nblir fornￃﾸyd da?</comment>
								<name>: )</name>
								<in>7819</in>
								<out>-1</out>
							</marker>
							<marker>
								<comment>lￃﾦrt ￃﾥ styre ting pￃﾥ eget rom?</comment>
								<name></name>
								<in>6191</in>
								<out>-1</out>
							</marker>
							<marker>
								<comment>verdt det men ville ikke gitt dem tilgang til kameraer og sￃﾥnne ting</comment>
								<name></name>
								<in>2636</in>
								<out>-1</out>
							</marker>
							<marker>
								<comment>viktig at jeg som sluttbruker eier mine egne data</comment>
								<name></name>
								<in>3582</in>
								<out>-1</out>
							</marker>
							<marker>
								<comment>kjￃﾸkkenet er av stua er av</comment>
								<name></name>
								<in>10120</in>
								<out>-1</out>
							</marker>
						<link>
							<linkclipref>clipitem-454</linkclipref>
							<mediatype>video</mediatype>
							<trackindex>1</trackindex>
							<clipindex>46</clipindex>
						</link>
						<link>
							<linkclipref>clipitem-1034</linkclipref>
							<mediatype>audio</mediatype>
							<trackindex>1</trackindex>
							<clipindex>25</clipindex>
						</link>
						<link>
							<linkclipref>clipitem-1377</linkclipref>
							<mediatype>audio</mediatype>
							<trackindex>3</trackindex>
							<clipindex>21</clipindex>
						</link>
						<labels>
							<label2>Forest</label2>
						</labels>
					</clipitem>
					<clipitem id="clipitem-455" frameBlend="FALSE">
						<masterclipid>masterclip-44</masterclipid>
						<name>AA313701.MXFMulticam</name>
						<enabled>TRUE</enabled>
						<duration>14040</duration>
						<rate>
							<timebase>25</timebase>
							<ntsc>FALSE</ntsc>
						</rate>
						<start>5120</start>
						<end>5153</end>
						<in>7305</in>
						<out>7338</out>
						<sequence id="sequence-16">
							<duration>150</duration>
							<rate>
								<timebase>25</timebase>
								<ntsc>FALSE</ntsc>
							</rate>
							<name>AA313701.MXFMulticam-2</name>
							<media>
								<video>
									<format>
										<samplecharacteristics>
											<rate>
												<timebase>25</timebase>
												<ntsc>FALSE</ntsc>
											</rate>
											<codec>
												<name>Apple ProRes 422</name>
												<appspecificdata>
													<appname>Final Cut Pro</appname>
													<appmanufacturer>Apple Inc.</appmanufacturer>
													<appversion>7.0</appversion>
													<data>
														<qtcodec>
															<codecname>Apple ProRes 422</codecname>
															<codectypename>Apple ProRes 422</codectypename>
															<codectypecode>apcn</codectypecode>
															<codecvendorcode>appl</codecvendorcode>
															<spatialquality>1024</spatialquality>
															<temporalquality>0</temporalquality>
															<keyframerate>0</keyframerate>
															<datarate>0</datarate>
														</qtcodec>
													</data>
												</appspecificdata>
											</codec>
											<width>1920</width>
											<height>1080</height>
											<anamorphic>FALSE</anamorphic>
											<pixelaspectratio>square</pixelaspectratio>
											<fielddominance>upper</fielddominance>
											<colordepth>24</colordepth>
										</samplecharacteristics>
									</format>
									<track TL.SQTrackShy="0" TL.SQTrackExpandedHeight="25" TL.SQTrackExpanded="0" MZ.TrackTargeted="0">
										<clipitem id="clipitem-450" frameBlend="FALSE">
											<masterclipid>masterclip-46</masterclipid>
											<name>MVI_9556.MOV</name>
											<enabled>TRUE</enabled>
											<duration>11370</duration>
											<rate>
												<timebase>25</timebase>
												<ntsc>FALSE</ntsc>
											</rate>
											<start>58</start>
											<end>11428</end>
											<in>0</in>
											<out>11370</out>
											<alphatype>black</alphatype>
											<pixelaspectratio>square</pixelaspectratio>
											<anamorphic>FALSE</anamorphic>
											<file id="file-42">
												<name>MVI_9556.MOV</name>
												<pathurl>file://localhost/Volumes/Brakka/AdobeLager/Katta/Katta-14xxxx-Smart_eller_overvaaket-Chris/02-Video/Smartly%205D/DCIM/100EOS5D/MVI_9556.MOV</pathurl>
												<rate>
													<timebase>25</timebase>
													<ntsc>FALSE</ntsc>
												</rate>
												<duration>11370</duration>
												<timecode>
													<rate>
														<timebase>25</timebase>
														<ntsc>FALSE</ntsc>
													</rate>
													<string>00:00:00:00</string>
													<frame>0</frame>
													<displayformat>NDF</displayformat>
													<reel>
														<name></name>
													</reel>
												</timecode>
												<media>
													<video>
														<duration>18000</duration>
														<samplecharacteristics>
															<rate>
																<timebase>25</timebase>
																<ntsc>FALSE</ntsc>
															</rate>
															<width>1920</width>
															<height>1080</height>
															<anamorphic>FALSE</anamorphic>
															<pixelaspectratio>square</pixelaspectratio>
															<fielddominance>none</fielddominance>
														</samplecharacteristics>
													</video>
													<audio>
														<samplecharacteristics>
															<depth>16</depth>
															<samplerate>48000</samplerate>
														</samplecharacteristics>
														<channelcount>1</channelcount>
														<layout>mono</layout>
														<audiochannel>
															<sourcechannel>1</sourcechannel>
															<channellabel>discrete</channellabel>
														</audiochannel>
													</audio>
													<audio>
														<samplecharacteristics>
															<depth>16</depth>
															<samplerate>48000</samplerate>
														</samplecharacteristics>
														<channelcount>1</channelcount>
														<layout>mono</layout>
														<audiochannel>
															<sourcechannel>2</sourcechannel>
															<channellabel>discrete</channellabel>
														</audiochannel>
													</audio>
												</media>
											</file>
											<logginginfo>
												<description></description>
												<scene></scene>
												<shottake></shottake>
												<lognote></lognote>
											</logginginfo>
											<labels>
												<label2>Iris</label2>
											</labels>
										</clipitem>
										<enabled>TRUE</enabled>
										<locked>FALSE</locked>
									</track>
								</video>
								<audio>
									<format>
										<samplecharacteristics>
											<depth>16</depth>
											<samplerate>48000</samplerate>
										</samplecharacteristics>
									</format>
									<outputs>
										<group>
											<index>1</index>
											<numchannels>1</numchannels>
											<downmix>0</downmix>
											<channel>
												<index>1</index>
											</channel>
										</group>
										<group>
											<index>2</index>
											<numchannels>1</numchannels>
											<downmix>0</downmix>
											<channel>
												<index>2</index>
											</channel>
										</group>
										<group>
											<index>3</index>
											<numchannels>1</numchannels>
											<downmix>0</downmix>
											<channel>
												<index>3</index>
											</channel>
										</group>
										<group>
											<index>4</index>
											<numchannels>1</numchannels>
											<downmix>0</downmix>
											<channel>
												<index>4</index>
											</channel>
										</group>
									</outputs>
									<track TL.SQTrackAudioKeyframeStyle="0" TL.SQTrackShy="0" TL.SQTrackExpandedHeight="25" TL.SQTrackExpanded="0" MZ.TrackTargeted="1" PannerCurrentValue="1." PannerIsInverted="true" PannerStartKeyframe="-91445760000000000,1.,0,0,0,0,0,0" PannerName="Balance" currentExplodedTrackIndex="0" totalExplodedTrackCount="1" premiereTrackType="Stereo">
										<clipitem id="clipitem-449" frameBlend="FALSE" PannerCurrentValue="0.5" PannerKeyframes="" PannerStartKeyframe="-91445760000000000,0.5,0,0,0,0,0,0" PannerIsInverted="true" PannerName="Pan">
											<masterclipid>masterclip-45</masterclipid>
											<name>AA313701.MXF</name>
											<enabled>TRUE</enabled>
											<duration>14040</duration>
											<rate>
												<timebase>25</timebase>
												<ntsc>FALSE</ntsc>
											</rate>
											<start>0</start>
											<end>14040</end>
											<in>0</in>
											<out>14040</out>
											<file id="file-41"/>
											<sourcetrack>
												<mediatype>audio</mediatype>
												<trackindex>1</trackindex>
											</sourcetrack>
												<filter>
													<effect>
														<name>Audio Pan</name>
														<effectid>audiopan</effectid>
														<effectcategory>audiopan</effectcategory>
														<effecttype>audiopan</effecttype>
														<mediatype>audio</mediatype>
														<parameter authoringApp="PremierePro">
															<parameterid>pan</parameterid>
															<name>Pan</name>
															<valuemin>-1</valuemin>
															<valuemax>1</valuemax>
															<value>0</value>
														</parameter>
													</effect>
												</filter>
											<logginginfo>
												<description></description>
												<scene></scene>
												<shottake>AA3137</shottake>
												<lognote></lognote>
											</logginginfo>
											<labels>
												<label2>Iris</label2>
											</labels>
										</clipitem>
										<enabled>TRUE</enabled>
										<locked>FALSE</locked>
										<outputchannelindex>1</outputchannelindex>
									</track>
								</audio>
							</media>
							<timecode>
								<rate>
									<timebase>25</timebase>
									<ntsc>FALSE</ntsc>
								</rate>
								<string>00:00:00:00</string>
								<frame>0</frame>
								<displayformat>NDF</displayformat>
							</timecode>
						</sequence>
							<marker>
								<comment>du gir fra deg dataene dine, hvordan fￃﾸles det ￃﾥ vite at de vet alt du gjￃﾸr?</comment>
								<name></name>
								<in>1441</in>
								<out>-1</out>
							</marker>
							<marker>
								<comment>av og pￃﾥ lys</comment>
								<name></name>
								<in>7029</in>
								<out>-1</out>
							</marker>
							<marker>
								<comment>dere kan vite hva jeg ser pￃﾥ tv, nￃﾥr jeg dusjer, nￃﾥr jeg setter pￃﾥ vaskemaskinen min</comment>
								<name></name>
								<in>3985</in>
								<out>-1</out>
							</marker>
							<marker>
								<comment>vet ikke om det er meg eller kona eller dattera mi</comment>
								<name></name>
								<in>2090</in>
								<out>-1</out>
							</marker>
							<marker>
								<comment>veldig nyttig</comment>
								<name>:)</name>
								<in>13312</in>
								<out>-1</out>
							</marker>
							<marker>
								<comment>lyse kan overvￃﾥke folk</comment>
								<name></name>
								<in>2876</in>
								<out>-1</out>
							</marker>
							<marker>
								<comment>bevegelsessenor, varmekablene er koblet opp og lamper og jobber med ￃﾥ fￃﾥ koblet det med lydanlegget&#13;mￃﾥ selbvgￃﾸlge ha :)</comment>
								<name></name>
								<in>914</in>
								<out>-1</out>
							</marker>
							<marker>
								<comment>absurd meningslￃﾸs greie, men gￃﾸyal</comment>
								<name></name>
								<in>12226</in>
								<out>-1</out>
							</marker>
							<marker>
								<comment>hallo dattera kommer</comment>
								<name></name>
								<in>4816</in>
								<out>-1</out>
							</marker>
							<marker>
								<comment>jeg kan styre pappa sitt rom&#13;tro du ha nblir fornￃﾸyd da?</comment>
								<name>: )</name>
								<in>7819</in>
								<out>-1</out>
							</marker>
							<marker>
								<comment>lￃﾦrt ￃﾥ styre ting pￃﾥ eget rom?</comment>
								<name></name>
								<in>6191</in>
								<out>-1</out>
							</marker>
							<marker>
								<comment>verdt det men ville ikke gitt dem tilgang til kameraer og sￃﾥnne ting</comment>
								<name></name>
								<in>2636</in>
								<out>-1</out>
							</marker>
							<marker>
								<comment>viktig at jeg som sluttbruker eier mine egne data</comment>
								<name></name>
								<in>3582</in>
								<out>-1</out>
							</marker>
							<marker>
								<comment>kjￃﾸkkenet er av stua er av</comment>
								<name></name>
								<in>10120</in>
								<out>-1</out>
							</marker>
						<link>
							<linkclipref>clipitem-455</linkclipref>
							<mediatype>video</mediatype>
							<trackindex>1</trackindex>
							<clipindex>47</clipindex>
						</link>
						<link>
							<linkclipref>clipitem-1035</linkclipref>
							<mediatype>audio</mediatype>
							<trackindex>1</trackindex>
							<clipindex>26</clipindex>
						</link>
						<link>
							<linkclipref>clipitem-1378</linkclipref>
							<mediatype>audio</mediatype>
							<trackindex>3</trackindex>
							<clipindex>22</clipindex>
						</link>
						<labels>
							<label2>Forest</label2>
						</labels>
					</clipitem>
					<clipitem id="clipitem-456" frameBlend="FALSE">
						<masterclipid>masterclip-44</masterclipid>
						<name>AA313701.MXFMulticam</name>
						<enabled>TRUE</enabled>
						<duration>14040</duration>
						<rate>
							<timebase>25</timebase>
							<ntsc>FALSE</ntsc>
						</rate>
						<start>5153</start>
						<end>5233</end>
						<in>7651</in>
						<out>7731</out>
						<sequence id="sequence-15"/>
							<marker>
								<comment>du gir fra deg dataene dine, hvordan fￃﾸles det ￃﾥ vite at de vet alt du gjￃﾸr?</comment>
								<name></name>
								<in>1441</in>
								<out>-1</out>
							</marker>
							<marker>
								<comment>av og pￃﾥ lys</comment>
								<name></name>
								<in>7029</in>
								<out>-1</out>
							</marker>
							<marker>
								<comment>dere kan vite hva jeg ser pￃﾥ tv, nￃﾥr jeg dusjer, nￃﾥr jeg setter pￃﾥ vaskemaskinen min</comment>
								<name></name>
								<in>3985</in>
								<out>-1</out>
							</marker>
							<marker>
								<comment>vet ikke om det er meg eller kona eller dattera mi</comment>
								<name></name>
								<in>2090</in>
								<out>-1</out>
							</marker>
							<marker>
								<comment>veldig nyttig</comment>
								<name>:)</name>
								<in>13312</in>
								<out>-1</out>
							</marker>
							<marker>
								<comment>lyse kan overvￃﾥke folk</comment>
								<name></name>
								<in>2876</in>
								<out>-1</out>
							</marker>
							<marker>
								<comment>bevegelsessenor, varmekablene er koblet opp og lamper og jobber med ￃﾥ fￃﾥ koblet det med lydanlegget&#13;mￃﾥ selbvgￃﾸlge ha :)</comment>
								<name></name>
								<in>914</in>
								<out>-1</out>
							</marker>
							<marker>
								<comment>absurd meningslￃﾸs greie, men gￃﾸyal</comment>
								<name></name>
								<in>12226</in>
								<out>-1</out>
							</marker>
							<marker>
								<comment>hallo dattera kommer</comment>
								<name></name>
								<in>4816</in>
								<out>-1</out>
							</marker>
							<marker>
								<comment>jeg kan styre pappa sitt rom&#13;tro du ha nblir fornￃﾸyd da?</comment>
								<name>: )</name>
								<in>7819</in>
								<out>-1</out>
							</marker>
							<marker>
								<comment>lￃﾦrt ￃﾥ styre ting pￃﾥ eget rom?</comment>
								<name></name>
								<in>6191</in>
								<out>-1</out>
							</marker>
							<marker>
								<comment>verdt det men ville ikke gitt dem tilgang til kameraer og sￃﾥnne ting</comment>
								<name></name>
								<in>2636</in>
								<out>-1</out>
							</marker>
							<marker>
								<comment>viktig at jeg som sluttbruker eier mine egne data</comment>
								<name></name>
								<in>3582</in>
								<out>-1</out>
							</marker>
							<marker>
								<comment>kjￃﾸkkenet er av stua er av</comment>
								<name></name>
								<in>10120</in>
								<out>-1</out>
							</marker>
						<link>
							<linkclipref>clipitem-456</linkclipref>
							<mediatype>video</mediatype>
							<trackindex>1</trackindex>
							<clipindex>48</clipindex>
						</link>
						<link>
							<linkclipref>clipitem-1036</linkclipref>
							<mediatype>audio</mediatype>
							<trackindex>1</trackindex>
							<clipindex>27</clipindex>
						</link>
						<link>
							<linkclipref>clipitem-1379</linkclipref>
							<mediatype>audio</mediatype>
							<trackindex>3</trackindex>
							<clipindex>23</clipindex>
						</link>
						<labels>
							<label2>Forest</label2>
						</labels>
					</clipitem>
					<clipitem id="clipitem-457" frameBlend="FALSE">
						<masterclipid>masterclip-44</masterclipid>
						<name>AA313701.MXFMulticam</name>
						<enabled>TRUE</enabled>
						<duration>14040</duration>
						<rate>
							<timebase>25</timebase>
							<ntsc>FALSE</ntsc>
						</rate>
						<start>5233</start>
						<end>5343</end>
						<in>7731</in>
						<out>7841</out>
						<sequence id="sequence-16"/>
							<marker>
								<comment>du gir fra deg dataene dine, hvordan fￃﾸles det ￃﾥ vite at de vet alt du gjￃﾸr?</comment>
								<name></name>
								<in>1441</in>
								<out>-1</out>
							</marker>
							<marker>
								<comment>av og pￃﾥ lys</comment>
								<name></name>
								<in>7029</in>
								<out>-1</out>
							</marker>
							<marker>
								<comment>dere kan vite hva jeg ser pￃﾥ tv, nￃﾥr jeg dusjer, nￃﾥr jeg setter pￃﾥ vaskemaskinen min</comment>
								<name></name>
								<in>3985</in>
								<out>-1</out>
							</marker>
							<marker>
								<comment>vet ikke om det er meg eller kona eller dattera mi</comment>
								<name></name>
								<in>2090</in>
								<out>-1</out>
							</marker>
							<marker>
								<comment>veldig nyttig</comment>
								<name>:)</name>
								<in>13312</in>
								<out>-1</out>
							</marker>
							<marker>
								<comment>lyse kan overvￃﾥke folk</comment>
								<name></name>
								<in>2876</in>
								<out>-1</out>
							</marker>
							<marker>
								<comment>bevegelsessenor, varmekablene er koblet opp og lamper og jobber med ￃﾥ fￃﾥ koblet det med lydanlegget&#13;mￃﾥ selbvgￃﾸlge ha :)</comment>
								<name></name>
								<in>914</in>
								<out>-1</out>
							</marker>
							<marker>
								<comment>absurd meningslￃﾸs greie, men gￃﾸyal</comment>
								<name></name>
								<in>12226</in>
								<out>-1</out>
							</marker>
							<marker>
								<comment>hallo dattera kommer</comment>
								<name></name>
								<in>4816</in>
								<out>-1</out>
							</marker>
							<marker>
								<comment>jeg kan styre pappa sitt rom&#13;tro du ha nblir fornￃﾸyd da?</comment>
								<name>: )</name>
								<in>7819</in>
								<out>-1</out>
							</marker>
							<marker>
								<comment>lￃﾦrt ￃﾥ styre ting pￃﾥ eget rom?</comment>
								<name></name>
								<in>6191</in>
								<out>-1</out>
							</marker>
							<marker>
								<comment>verdt det men ville ikke gitt dem tilgang til kameraer og sￃﾥnne ting</comment>
								<name></name>
								<in>2636</in>
								<out>-1</out>
							</marker>
							<marker>
								<comment>viktig at jeg som sluttbruker eier mine egne data</comment>
								<name></name>
								<in>3582</in>
								<out>-1</out>
							</marker>
							<marker>
								<comment>kjￃﾸkkenet er av stua er av</comment>
								<name></name>
								<in>10120</in>
								<out>-1</out>
							</marker>
						<link>
							<linkclipref>clipitem-457</linkclipref>
							<mediatype>video</mediatype>
							<trackindex>1</trackindex>
							<clipindex>49</clipindex>
						</link>
						<link>
							<linkclipref>clipitem-1037</linkclipref>
							<mediatype>audio</mediatype>
							<trackindex>1</trackindex>
							<clipindex>28</clipindex>
						</link>
						<link>
							<linkclipref>clipitem-1380</linkclipref>
							<mediatype>audio</mediatype>
							<trackindex>3</trackindex>
							<clipindex>24</clipindex>
						</link>
						<labels>
							<label2>Forest</label2>
						</labels>
					</clipitem>
					<clipitem id="clipitem-458" frameBlend="FALSE">
						<masterclipid>masterclip-44</masterclipid>
						<name>AA313701.MXFMulticam</name>
						<enabled>TRUE</enabled>
						<duration>14040</duration>
						<rate>
							<timebase>25</timebase>
							<ntsc>FALSE</ntsc>
						</rate>
						<start>5343</start>
						<end>5386</end>
						<in>7841</in>
						<out>7884</out>
						<sequence id="sequence-15"/>
							<marker>
								<comment>du gir fra deg dataene dine, hvordan fￃﾸles det ￃﾥ vite at de vet alt du gjￃﾸr?</comment>
								<name></name>
								<in>1441</in>
								<out>-1</out>
							</marker>
							<marker>
								<comment>av og pￃﾥ lys</comment>
								<name></name>
								<in>7029</in>
								<out>-1</out>
							</marker>
							<marker>
								<comment>dere kan vite hva jeg ser pￃﾥ tv, nￃﾥr jeg dusjer, nￃﾥr jeg setter pￃﾥ vaskemaskinen min</comment>
								<name></name>
								<in>3985</in>
								<out>-1</out>
							</marker>
							<marker>
								<comment>vet ikke om det er meg eller kona eller dattera mi</comment>
								<name></name>
								<in>2090</in>
								<out>-1</out>
							</marker>
							<marker>
								<comment>veldig nyttig</comment>
								<name>:)</name>
								<in>13312</in>
								<out>-1</out>
							</marker>
							<marker>
								<comment>lyse kan overvￃﾥke folk</comment>
								<name></name>
								<in>2876</in>
								<out>-1</out>
							</marker>
							<marker>
								<comment>bevegelsessenor, varmekablene er koblet opp og lamper og jobber med ￃﾥ fￃﾥ koblet det med lydanlegget&#13;mￃﾥ selbvgￃﾸlge ha :)</comment>
								<name></name>
								<in>914</in>
								<out>-1</out>
							</marker>
							<marker>
								<comment>absurd meningslￃﾸs greie, men gￃﾸyal</comment>
								<name></name>
								<in>12226</in>
								<out>-1</out>
							</marker>
							<marker>
								<comment>hallo dattera kommer</comment>
								<name></name>
								<in>4816</in>
								<out>-1</out>
							</marker>
							<marker>
								<comment>jeg kan styre pappa sitt rom&#13;tro du ha nblir fornￃﾸyd da?</comment>
								<name>: )</name>
								<in>7819</in>
								<out>-1</out>
							</marker>
							<marker>
								<comment>lￃﾦrt ￃﾥ styre ting pￃﾥ eget rom?</comment>
								<name></name>
								<in>6191</in>
								<out>-1</out>
							</marker>
							<marker>
								<comment>verdt det men ville ikke gitt dem tilgang til kameraer og sￃﾥnne ting</comment>
								<name></name>
								<in>2636</in>
								<out>-1</out>
							</marker>
							<marker>
								<comment>viktig at jeg som sluttbruker eier mine egne data</comment>
								<name></name>
								<in>3582</in>
								<out>-1</out>
							</marker>
							<marker>
								<comment>kjￃﾸkkenet er av stua er av</comment>
								<name></name>
								<in>10120</in>
								<out>-1</out>
							</marker>
						<link>
							<linkclipref>clipitem-458</linkclipref>
							<mediatype>video</mediatype>
							<trackindex>1</trackindex>
							<clipindex>50</clipindex>
						</link>
						<link>
							<linkclipref>clipitem-1038</linkclipref>
							<mediatype>audio</mediatype>
							<trackindex>1</trackindex>
							<clipindex>29</clipindex>
						</link>
						<link>
							<linkclipref>clipitem-1381</linkclipref>
							<mediatype>audio</mediatype>
							<trackindex>3</trackindex>
							<clipindex>25</clipindex>
						</link>
						<labels>
							<label2>Forest</label2>
						</labels>
					</clipitem>
					<clipitem id="clipitem-459" frameBlend="FALSE">
						<masterclipid>masterclip-47</masterclipid>
						<name>AA313401.MXFMulticam</name>
						<enabled>TRUE</enabled>
						<duration>5201</duration>
						<rate>
							<timebase>25</timebase>
							<ntsc>FALSE</ntsc>
						</rate>
						<start>5386</start>
						<end>5419</end>
						<in>1716</in>
						<out>1749</out>
						<sequence id="sequence-20">
							<duration>150</duration>
							<rate>
								<timebase>25</timebase>
								<ntsc>FALSE</ntsc>
							</rate>
							<name>AA313401.MXFMulticam-2</name>
							<media>
								<video>
									<format>
										<samplecharacteristics>
											<rate>
												<timebase>25</timebase>
												<ntsc>FALSE</ntsc>
											</rate>
											<codec>
												<name>Apple ProRes 422</name>
												<appspecificdata>
													<appname>Final Cut Pro</appname>
													<appmanufacturer>Apple Inc.</appmanufacturer>
													<appversion>7.0</appversion>
													<data>
														<qtcodec>
															<codecname>Apple ProRes 422</codecname>
															<codectypename>Apple ProRes 422</codectypename>
															<codectypecode>apcn</codectypecode>
															<codecvendorcode>appl</codecvendorcode>
															<spatialquality>1024</spatialquality>
															<temporalquality>0</temporalquality>
															<keyframerate>0</keyframerate>
															<datarate>0</datarate>
														</qtcodec>
													</data>
												</appspecificdata>
											</codec>
											<width>1920</width>
											<height>1080</height>
											<anamorphic>FALSE</anamorphic>
											<pixelaspectratio>square</pixelaspectratio>
											<fielddominance>upper</fielddominance>
											<colordepth>24</colordepth>
										</samplecharacteristics>
									</format>
									<track>
										<clipitem id="clipitem-463" frameBlend="FALSE">
											<masterclipid>masterclip-49</masterclipid>
											<name>MVI_9553.MOV</name>
											<enabled>TRUE</enabled>
											<duration>5201</duration>
											<rate>
												<timebase>25</timebase>
												<ntsc>FALSE</ntsc>
											</rate>
											<start>0</start>
											<end>5201</end>
											<in>0</in>
											<out>5201</out>
											<alphatype>black</alphatype>
											<pixelaspectratio>square</pixelaspectratio>
											<anamorphic>FALSE</anamorphic>
											<file id="file-44">
												<name>MVI_9553.MOV</name>
												<pathurl>file://localhost/Volumes/Brakka/AdobeLager/Katta/Katta-14xxxx-Smart_eller_overvaaket-Chris/02-Video/Smartly%205D/DCIM/100EOS5D/MVI_9553.MOV</pathurl>
												<rate>
													<timebase>25</timebase>
													<ntsc>FALSE</ntsc>
												</rate>
												<duration>5201</duration>
												<timecode>
													<rate>
														<timebase>25</timebase>
														<ntsc>FALSE</ntsc>
													</rate>
													<string>00:00:00:00</string>
													<frame>0</frame>
													<displayformat>NDF</displayformat>
													<reel>
														<name></name>
													</reel>
												</timecode>
												<media>
													<video>
														<duration>18000</duration>
														<samplecharacteristics>
															<rate>
																<timebase>25</timebase>
																<ntsc>FALSE</ntsc>
															</rate>
															<width>1920</width>
															<height>1080</height>
															<anamorphic>FALSE</anamorphic>
															<pixelaspectratio>square</pixelaspectratio>
															<fielddominance>none</fielddominance>
														</samplecharacteristics>
													</video>
													<audio>
														<samplecharacteristics>
															<depth>16</depth>
															<samplerate>48000</samplerate>
														</samplecharacteristics>
														<channelcount>1</channelcount>
														<layout>mono</layout>
														<audiochannel>
															<sourcechannel>1</sourcechannel>
															<channellabel>discrete</channellabel>
														</audiochannel>
													</audio>
													<audio>
														<samplecharacteristics>
															<depth>16</depth>
															<samplerate>48000</samplerate>
														</samplecharacteristics>
														<channelcount>1</channelcount>
														<layout>mono</layout>
														<audiochannel>
															<sourcechannel>2</sourcechannel>
															<channellabel>discrete</channellabel>
														</audiochannel>
													</audio>
												</media>
											</file>
											<logginginfo>
												<description></description>
												<scene></scene>
												<shottake></shottake>
												<lognote></lognote>
											</logginginfo>
											<labels>
												<label2>Iris</label2>
											</labels>
										</clipitem>
										<enabled>TRUE</enabled>
										<locked>FALSE</locked>
									</track>
								</video>
								<audio>
									<format>
										<samplecharacteristics>
											<depth>16</depth>
											<samplerate>48000</samplerate>
										</samplecharacteristics>
									</format>
									<outputs>
										<group>
											<index>1</index>
											<numchannels>1</numchannels>
											<downmix>0</downmix>
											<channel>
												<index>1</index>
											</channel>
										</group>
										<group>
											<index>2</index>
											<numchannels>1</numchannels>
											<downmix>0</downmix>
											<channel>
												<index>2</index>
											</channel>
										</group>
										<group>
											<index>3</index>
											<numchannels>1</numchannels>
											<downmix>0</downmix>
											<channel>
												<index>3</index>
											</channel>
										</group>
										<group>
											<index>4</index>
											<numchannels>1</numchannels>
											<downmix>0</downmix>
											<channel>
												<index>4</index>
											</channel>
										</group>
									</outputs>
									<track TL.SQTrackExpandedHeight="25" TL.SQTrackExpanded="0" MZ.TrackTargeted="1" PannerCurrentValue="1." PannerIsInverted="true" PannerStartKeyframe="-91445760000000000,1.,0,0,0,0,0,0" PannerName="Balance" currentExplodedTrackIndex="0" totalExplodedTrackCount="1" premiereTrackType="Stereo">
										<clipitem id="clipitem-462" frameBlend="FALSE" PannerCurrentValue="0.5" PannerKeyframes="" PannerStartKeyframe="-91445760000000000,0.5,0,0,0,0,0,0" PannerIsInverted="true" PannerName="Pan">
											<masterclipid>masterclip-48</masterclipid>
											<name>AA313401.MXF</name>
											<enabled>TRUE</enabled>
											<duration>4404</duration>
											<rate>
												<timebase>25</timebase>
												<ntsc>FALSE</ntsc>
											</rate>
											<start>418</start>
											<end>4822</end>
											<in>0</in>
											<out>4404</out>
											<file id="file-43"/>
											<sourcetrack>
												<mediatype>audio</mediatype>
												<trackindex>1</trackindex>
											</sourcetrack>
												<filter>
													<effect>
														<name>Audio Pan</name>
														<effectid>audiopan</effectid>
														<effectcategory>audiopan</effectcategory>
														<effecttype>audiopan</effecttype>
														<mediatype>audio</mediatype>
														<parameter authoringApp="PremierePro">
															<parameterid>pan</parameterid>
															<name>Pan</name>
															<valuemin>-1</valuemin>
															<valuemax>1</valuemax>
															<value>0</value>
														</parameter>
													</effect>
												</filter>
											<logginginfo>
												<description></description>
												<scene></scene>
												<shottake>AA3134</shottake>
												<lognote></lognote>
											</logginginfo>
											<labels>
												<label2>Iris</label2>
											</labels>
										</clipitem>
										<enabled>TRUE</enabled>
										<locked>FALSE</locked>
										<outputchannelindex>1</outputchannelindex>
									</track>
								</audio>
							</media>
							<timecode>
								<rate>
									<timebase>25</timebase>
									<ntsc>FALSE</ntsc>
								</rate>
								<string>00:00:00:00</string>
								<frame>0</frame>
								<displayformat>NDF</displayformat>
							</timecode>
						</sequence>
							<marker>
								<comment>vi har koblet varmepumpa etter mye om og men</comment>
								<name>vi har </name>
								<in>3638</in>
								<out>-1</out>
							</marker>
							<marker>
								<comment>diskusjon pￃﾥ hjemmebane om man burde ha det eller ei</comment>
								<name></name>
								<in>2118</in>
								<out>-1</out>
							</marker>
							<marker>
								<comment>dattera mi kan styre ls pￃﾥ rommet, pￃﾥ kjￃﾸkkenet har vi kamera som kan se lys og varme</comment>
								<name></name>
								<in>1702</in>
								<out>-1</out>
							</marker>
							<marker>
								<comment>viktig at alt snakker sammen</comment>
								<name></name>
								<in>4649</in>
								<out>-1</out>
							</marker>
							<marker>
								<comment>kan fￃﾥ varsler nￃﾥr det er bevegelse</comment>
								<name></name>
								<in>2306</in>
								<out>-1</out>
							</marker>
							<marker>
								<comment>her kan jeg styre hele hjemmet og logge meg inn pￃﾥ alle rom</comment>
								<name></name>
								<in>965</in>
								<out>-1</out>
							</marker>
							<marker>
								<comment>hvis du er i tredje og har lyst til ￃﾥ se hva ungene driver pￃﾥ med i fￃﾸrste</comment>
								<name></name>
								<in>2851</in>
								<out>-1</out>
							</marker>
						<labels>
							<label2>Forest</label2>
						</labels>
					</clipitem>
					<clipitem id="clipitem-466" frameBlend="FALSE">
						<masterclipid>masterclip-50</masterclipid>
						<name>MVI_9573.MOV</name>
						<enabled>TRUE</enabled>
						<duration>273</duration>
						<rate>
							<timebase>25</timebase>
							<ntsc>FALSE</ntsc>
						</rate>
						<start>5419</start>
						<end>5447</end>
						<in>125</in>
						<out>153</out>
						<alphatype>black</alphatype>
						<pixelaspectratio>square</pixelaspectratio>
						<anamorphic>FALSE</anamorphic>
						<file id="file-45">
							<name>MVI_9573.MOV</name>
							<pathurl>file://localhost/Volumes/Brakka/AdobeLager/Katta/Katta-14xxxx-Smart_eller_overvaaket-Chris/02-Video/Smartly%205D/DCIM/100EOS5D/MVI_9573.MOV</pathurl>
							<rate>
								<timebase>25</timebase>
								<ntsc>FALSE</ntsc>
							</rate>
							<duration>273</duration>
							<timecode>
								<rate>
									<timebase>25</timebase>
									<ntsc>FALSE</ntsc>
								</rate>
								<string>00:00:00:00</string>
								<frame>0</frame>
								<displayformat>NDF</displayformat>
								<reel>
									<name></name>
								</reel>
							</timecode>
							<media>
								<video>
									<duration>18000</duration>
									<samplecharacteristics>
										<rate>
											<timebase>25</timebase>
											<ntsc>FALSE</ntsc>
										</rate>
										<width>1920</width>
										<height>1080</height>
										<anamorphic>FALSE</anamorphic>
										<pixelaspectratio>square</pixelaspectratio>
										<fielddominance>none</fielddominance>
									</samplecharacteristics>
								</video>
								<audio>
									<samplecharacteristics>
										<depth>16</depth>
										<samplerate>48000</samplerate>
									</samplecharacteristics>
									<channelcount>1</channelcount>
									<layout>mono</layout>
									<audiochannel>
										<sourcechannel>1</sourcechannel>
										<channellabel>discrete</channellabel>
									</audiochannel>
								</audio>
								<audio>
									<samplecharacteristics>
										<depth>16</depth>
										<samplerate>48000</samplerate>
									</samplecharacteristics>
									<channelcount>1</channelcount>
									<layout>mono</layout>
									<audiochannel>
										<sourcechannel>2</sourcechannel>
										<channellabel>discrete</channellabel>
									</audiochannel>
								</audio>
							</media>
						</file>
						<link>
							<linkclipref>clipitem-466</linkclipref>
							<mediatype>video</mediatype>
							<trackindex>1</trackindex>
							<clipindex>52</clipindex>
						</link>
						<link>
							<linkclipref>clipitem-1501</linkclipref>
							<mediatype>audio</mediatype>
							<trackindex>5</trackindex>
							<clipindex>10</clipindex>
						</link>
						<link>
							<linkclipref>clipitem-1594</linkclipref>
							<mediatype>audio</mediatype>
							<trackindex>7</trackindex>
							<clipindex>10</clipindex>
						</link>
						<logginginfo>
							<description></description>
							<scene></scene>
							<shottake></shottake>
							<lognote></lognote>
						</logginginfo>
						<labels>
							<label2>Iris</label2>
						</labels>
					</clipitem>
					<clipitem id="clipitem-467" frameBlend="FALSE">
						<masterclipid>masterclip-51</masterclipid>
						<name>MVI_9574.MOV</name>
						<enabled>TRUE</enabled>
						<duration>6058</duration>
						<rate>
							<timebase>25</timebase>
							<ntsc>FALSE</ntsc>
						</rate>
						<start>5447</start>
						<end>5519</end>
						<in>4024</in>
						<out>4096</out>
						<alphatype>black</alphatype>
						<pixelaspectratio>square</pixelaspectratio>
						<anamorphic>FALSE</anamorphic>
						<file id="file-46">
							<name>MVI_9574.MOV</name>
							<pathurl>file://localhost/Volumes/Brakka/AdobeLager/Katta/Katta-14xxxx-Smart_eller_overvaaket-Chris/02-Video/Smartly%205D/DCIM/100EOS5D/MVI_9574.MOV</pathurl>
							<rate>
								<timebase>25</timebase>
								<ntsc>FALSE</ntsc>
							</rate>
							<duration>6058</duration>
							<timecode>
								<rate>
									<timebase>25</timebase>
									<ntsc>FALSE</ntsc>
								</rate>
								<string>00:00:00:00</string>
								<frame>0</frame>
								<displayformat>NDF</displayformat>
								<reel>
									<name></name>
								</reel>
							</timecode>
							<media>
								<video>
									<duration>18000</duration>
									<samplecharacteristics>
										<rate>
											<timebase>25</timebase>
											<ntsc>FALSE</ntsc>
										</rate>
										<width>1920</width>
										<height>1080</height>
										<anamorphic>FALSE</anamorphic>
										<pixelaspectratio>square</pixelaspectratio>
										<fielddominance>none</fielddominance>
									</samplecharacteristics>
								</video>
								<audio>
									<samplecharacteristics>
										<depth>16</depth>
										<samplerate>48000</samplerate>
									</samplecharacteristics>
									<channelcount>1</channelcount>
									<layout>mono</layout>
									<audiochannel>
										<sourcechannel>1</sourcechannel>
										<channellabel>discrete</channellabel>
									</audiochannel>
								</audio>
								<audio>
									<samplecharacteristics>
										<depth>16</depth>
										<samplerate>48000</samplerate>
									</samplecharacteristics>
									<channelcount>1</channelcount>
									<layout>mono</layout>
									<audiochannel>
										<sourcechannel>2</sourcechannel>
										<channellabel>discrete</channellabel>
									</audiochannel>
								</audio>
							</media>
						</file>
						<link>
							<linkclipref>clipitem-467</linkclipref>
							<mediatype>video</mediatype>
							<trackindex>1</trackindex>
							<clipindex>53</clipindex>
						</link>
						<link>
							<linkclipref>clipitem-1502</linkclipref>
							<mediatype>audio</mediatype>
							<trackindex>5</trackindex>
							<clipindex>11</clipindex>
						</link>
						<link>
							<linkclipref>clipitem-1595</linkclipref>
							<mediatype>audio</mediatype>
							<trackindex>7</trackindex>
							<clipindex>11</clipindex>
						</link>
						<logginginfo>
							<description></description>
							<scene></scene>
							<shottake></shottake>
							<lognote></lognote>
						</logginginfo>
						<labels>
							<label2>Iris</label2>
						</labels>
					</clipitem>
					<clipitem id="clipitem-468" frameBlend="FALSE">
						<masterclipid>masterclip-45</masterclipid>
						<name>AA313701.MXF</name>
						<enabled>TRUE</enabled>
						<duration>14040</duration>
						<rate>
							<timebase>25</timebase>
							<ntsc>FALSE</ntsc>
						</rate>
						<start>5519</start>
						<end>5929</end>
						<in>739</in>
						<out>1149</out>
						<alphatype>none</alphatype>
						<file id="file-41"/>
						<logginginfo>
							<description></description>
							<scene></scene>
							<shottake>AA3137</shottake>
							<lognote></lognote>
						</logginginfo>
						<labels>
							<label2>Iris</label2>
						</labels>
					</clipitem>
					<clipitem id="clipitem-469" frameBlend="FALSE">
						<masterclipid>masterclip-52</masterclipid>
						<name>AA313601.MXF</name>
						<enabled>TRUE</enabled>
						<duration>1608</duration>
						<rate>
							<timebase>25</timebase>
							<ntsc>FALSE</ntsc>
						</rate>
						<start>5929</start>
						<end>6096</end>
						<in>181</in>
						<out>348</out>
						<alphatype>none</alphatype>
						<pixelaspectratio>square</pixelaspectratio>
						<anamorphic>FALSE</anamorphic>
						<file id="file-47">
							<name>AA313601.MXF</name>
							<pathurl>file://localhost/Volumes/Brakka/AdobeLager/Katta/Katta-14xxxx-Smart_eller_overvaaket-Chris/02-Video/Smartly300%201/CONTENTS/CLIPS001/AA3136/AA313601.MXF</pathurl>
							<rate>
								<timebase>25</timebase>
								<ntsc>FALSE</ntsc>
							</rate>
							<duration>1608</duration>
							<timecode>
								<rate>
									<timebase>25</timebase>
									<ntsc>FALSE</ntsc>
								</rate>
								<string>04:47:02:09</string>
								<frame>430559</frame>
								<displayformat>NDF</displayformat>
								<reel>
									<name></name>
								</reel>
							</timecode>
							<media>
								<video>
									<duration>18000</duration>
									<samplecharacteristics>
										<rate>
											<timebase>25</timebase>
											<ntsc>FALSE</ntsc>
										</rate>
										<width>1920</width>
										<height>1080</height>
										<anamorphic>FALSE</anamorphic>
										<pixelaspectratio>square</pixelaspectratio>
										<fielddominance>upper</fielddominance>
									</samplecharacteristics>
								</video>
								<audio>
									<samplecharacteristics>
										<depth>16</depth>
										<samplerate>48000</samplerate>
									</samplecharacteristics>
									<channelcount>1</channelcount>
									<layout>mono</layout>
									<audiochannel>
										<sourcechannel>1</sourcechannel>
										<channellabel>discrete</channellabel>
									</audiochannel>
								</audio>
								<audio>
									<samplecharacteristics>
										<depth>16</depth>
										<samplerate>48000</samplerate>
									</samplecharacteristics>
									<channelcount>1</channelcount>
									<layout>mono</layout>
									<audiochannel>
										<sourcechannel>2</sourcechannel>
										<channellabel>discrete</channellabel>
									</audiochannel>
								</audio>
							</media>
						</file>
						<logginginfo>
							<description></description>
							<scene></scene>
							<shottake>AA3136</shottake>
							<lognote></lognote>
						</logginginfo>
						<labels>
							<label2>Iris</label2>
						</labels>
					</clipitem>
					<clipitem id="clipitem-470" frameBlend="FALSE">
						<masterclipid>masterclip-44</masterclipid>
						<name>AA313701.MXFMulticam</name>
						<enabled>TRUE</enabled>
						<duration>14040</duration>
						<rate>
							<timebase>25</timebase>
							<ntsc>FALSE</ntsc>
						</rate>
						<start>6096</start>
						<end>6223</end>
						<in>2500</in>
						<out>2627</out>
						<sequence id="sequence-15"/>
							<marker>
								<comment>du gir fra deg dataene dine, hvordan fￃﾸles det ￃﾥ vite at de vet alt du gjￃﾸr?</comment>
								<name></name>
								<in>1441</in>
								<out>-1</out>
							</marker>
							<marker>
								<comment>av og pￃﾥ lys</comment>
								<name></name>
								<in>7029</in>
								<out>-1</out>
							</marker>
							<marker>
								<comment>dere kan vite hva jeg ser pￃﾥ tv, nￃﾥr jeg dusjer, nￃﾥr jeg setter pￃﾥ vaskemaskinen min</comment>
								<name></name>
								<in>3985</in>
								<out>-1</out>
							</marker>
							<marker>
								<comment>vet ikke om det er meg eller kona eller dattera mi</comment>
								<name></name>
								<in>2090</in>
								<out>-1</out>
							</marker>
							<marker>
								<comment>veldig nyttig</comment>
								<name>:)</name>
								<in>13312</in>
								<out>-1</out>
							</marker>
							<marker>
								<comment>lyse kan overvￃﾥke folk</comment>
								<name></name>
								<in>2876</in>
								<out>-1</out>
							</marker>
							<marker>
								<comment>bevegelsessenor, varmekablene er koblet opp og lamper og jobber med ￃﾥ fￃﾥ koblet det med lydanlegget&#13;mￃﾥ selbvgￃﾸlge ha :)</comment>
								<name></name>
								<in>914</in>
								<out>-1</out>
							</marker>
							<marker>
								<comment>absurd meningslￃﾸs greie, men gￃﾸyal</comment>
								<name></name>
								<in>12226</in>
								<out>-1</out>
							</marker>
							<marker>
								<comment>hallo dattera kommer</comment>
								<name></name>
								<in>4816</in>
								<out>-1</out>
							</marker>
							<marker>
								<comment>jeg kan styre pappa sitt rom&#13;tro du ha nblir fornￃﾸyd da?</comment>
								<name>: )</name>
								<in>7819</in>
								<out>-1</out>
							</marker>
							<marker>
								<comment>lￃﾦrt ￃﾥ styre ting pￃﾥ eget rom?</comment>
								<name></name>
								<in>6191</in>
								<out>-1</out>
							</marker>
							<marker>
								<comment>verdt det men ville ikke gitt dem tilgang til kameraer og sￃﾥnne ting</comment>
								<name></name>
								<in>2636</in>
								<out>-1</out>
							</marker>
							<marker>
								<comment>viktig at jeg som sluttbruker eier mine egne data</comment>
								<name></name>
								<in>3582</in>
								<out>-1</out>
							</marker>
							<marker>
								<comment>kjￃﾸkkenet er av stua er av</comment>
								<name></name>
								<in>10120</in>
								<out>-1</out>
							</marker>
						<labels>
							<label2>Forest</label2>
						</labels>
					</clipitem>
					<clipitem id="clipitem-471" frameBlend="FALSE">
						<masterclipid>masterclip-44</masterclipid>
						<name>AA313701.MXFMulticam</name>
						<enabled>TRUE</enabled>
						<duration>14040</duration>
						<rate>
							<timebase>25</timebase>
							<ntsc>FALSE</ntsc>
						</rate>
						<start>6223</start>
						<end>6247</end>
						<in>4686</in>
						<out>4710</out>
						<sequence id="sequence-15"/>
							<marker>
								<comment>du gir fra deg dataene dine, hvordan fￃﾸles det ￃﾥ vite at de vet alt du gjￃﾸr?</comment>
								<name></name>
								<in>1441</in>
								<out>-1</out>
							</marker>
							<marker>
								<comment>av og pￃﾥ lys</comment>
								<name></name>
								<in>7029</in>
								<out>-1</out>
							</marker>
							<marker>
								<comment>dere kan vite hva jeg ser pￃﾥ tv, nￃﾥr jeg dusjer, nￃﾥr jeg setter pￃﾥ vaskemaskinen min</comment>
								<name></name>
								<in>3985</in>
								<out>-1</out>
							</marker>
							<marker>
								<comment>vet ikke om det er meg eller kona eller dattera mi</comment>
								<name></name>
								<in>2090</in>
								<out>-1</out>
							</marker>
							<marker>
								<comment>veldig nyttig</comment>
								<name>:)</name>
								<in>13312</in>
								<out>-1</out>
							</marker>
							<marker>
								<comment>lyse kan overvￃﾥke folk</comment>
								<name></name>
								<in>2876</in>
								<out>-1</out>
							</marker>
							<marker>
								<comment>bevegelsessenor, varmekablene er koblet opp og lamper og jobber med ￃﾥ fￃﾥ koblet det med lydanlegget&#13;mￃﾥ selbvgￃﾸlge ha :)</comment>
								<name></name>
								<in>914</in>
								<out>-1</out>
							</marker>
							<marker>
								<comment>absurd meningslￃﾸs greie, men gￃﾸyal</comment>
								<name></name>
								<in>12226</in>
								<out>-1</out>
							</marker>
							<marker>
								<comment>hallo dattera kommer</comment>
								<name></name>
								<in>4816</in>
								<out>-1</out>
							</marker>
							<marker>
								<comment>jeg kan styre pappa sitt rom&#13;tro du ha nblir fornￃﾸyd da?</comment>
								<name>: )</name>
								<in>7819</in>
								<out>-1</out>
							</marker>
							<marker>
								<comment>lￃﾦrt ￃﾥ styre ting pￃﾥ eget rom?</comment>
								<name></name>
								<in>6191</in>
								<out>-1</out>
							</marker>
							<marker>
								<comment>verdt det men ville ikke gitt dem tilgang til kameraer og sￃﾥnne ting</comment>
								<name></name>
								<in>2636</in>
								<out>-1</out>
							</marker>
							<marker>
								<comment>viktig at jeg som sluttbruker eier mine egne data</comment>
								<name></name>
								<in>3582</in>
								<out>-1</out>
							</marker>
							<marker>
								<comment>kjￃﾸkkenet er av stua er av</comment>
								<name></name>
								<in>10120</in>
								<out>-1</out>
							</marker>
						<labels>
							<label2>Forest</label2>
						</labels>
					</clipitem>
					<clipitem id="clipitem-472" frameBlend="FALSE">
						<masterclipid>masterclip-44</masterclipid>
						<name>AA313701.MXFMulticam</name>
						<enabled>TRUE</enabled>
						<duration>14040</duration>
						<rate>
							<timebase>25</timebase>
							<ntsc>FALSE</ntsc>
						</rate>
						<start>6247</start>
						<end>6283</end>
						<in>4710</in>
						<out>4746</out>
						<sequence id="sequence-16"/>
							<marker>
								<comment>du gir fra deg dataene dine, hvordan fￃﾸles det ￃﾥ vite at de vet alt du gjￃﾸr?</comment>
								<name></name>
								<in>1441</in>
								<out>-1</out>
							</marker>
							<marker>
								<comment>av og pￃﾥ lys</comment>
								<name></name>
								<in>7029</in>
								<out>-1</out>
							</marker>
							<marker>
								<comment>dere kan vite hva jeg ser pￃﾥ tv, nￃﾥr jeg dusjer, nￃﾥr jeg setter pￃﾥ vaskemaskinen min</comment>
								<name></name>
								<in>3985</in>
								<out>-1</out>
							</marker>
							<marker>
								<comment>vet ikke om det er meg eller kona eller dattera mi</comment>
								<name></name>
								<in>2090</in>
								<out>-1</out>
							</marker>
							<marker>
								<comment>veldig nyttig</comment>
								<name>:)</name>
								<in>13312</in>
								<out>-1</out>
							</marker>
							<marker>
								<comment>lyse kan overvￃﾥke folk</comment>
								<name></name>
								<in>2876</in>
								<out>-1</out>
							</marker>
							<marker>
								<comment>bevegelsessenor, varmekablene er koblet opp og lamper og jobber med ￃﾥ fￃﾥ koblet det med lydanlegget&#13;mￃﾥ selbvgￃﾸlge ha :)</comment>
								<name></name>
								<in>914</in>
								<out>-1</out>
							</marker>
							<marker>
								<comment>absurd meningslￃﾸs greie, men gￃﾸyal</comment>
								<name></name>
								<in>12226</in>
								<out>-1</out>
							</marker>
							<marker>
								<comment>hallo dattera kommer</comment>
								<name></name>
								<in>4816</in>
								<out>-1</out>
							</marker>
							<marker>
								<comment>jeg kan styre pappa sitt rom&#13;tro du ha nblir fornￃﾸyd da?</comment>
								<name>: )</name>
								<in>7819</in>
								<out>-1</out>
							</marker>
							<marker>
								<comment>lￃﾦrt ￃﾥ styre ting pￃﾥ eget rom?</comment>
								<name></name>
								<in>6191</in>
								<out>-1</out>
							</marker>
							<marker>
								<comment>verdt det men ville ikke gitt dem tilgang til kameraer og sￃﾥnne ting</comment>
								<name></name>
								<in>2636</in>
								<out>-1</out>
							</marker>
							<marker>
								<comment>viktig at jeg som sluttbruker eier mine egne data</comment>
								<name></name>
								<in>3582</in>
								<out>-1</out>
							</marker>
							<marker>
								<comment>kjￃﾸkkenet er av stua er av</comment>
								<name></name>
								<in>10120</in>
								<out>-1</out>
							</marker>
						<labels>
							<label2>Forest</label2>
						</labels>
					</clipitem>
					<clipitem id="clipitem-473" frameBlend="FALSE">
						<masterclipid>masterclip-44</masterclipid>
						<name>AA313701.MXFMulticam</name>
						<enabled>TRUE</enabled>
						<duration>14040</duration>
						<rate>
							<timebase>25</timebase>
							<ntsc>FALSE</ntsc>
						</rate>
						<start>6283</start>
						<end>6345</end>
						<in>4790</in>
						<out>4852</out>
						<sequence id="sequence-15"/>
							<marker>
								<comment>du gir fra deg dataene dine, hvordan fￃﾸles det ￃﾥ vite at de vet alt du gjￃﾸr?</comment>
								<name></name>
								<in>1441</in>
								<out>-1</out>
							</marker>
							<marker>
								<comment>av og pￃﾥ lys</comment>
								<name></name>
								<in>7029</in>
								<out>-1</out>
							</marker>
							<marker>
								<comment>dere kan vite hva jeg ser pￃﾥ tv, nￃﾥr jeg dusjer, nￃﾥr jeg setter pￃﾥ vaskemaskinen min</comment>
								<name></name>
								<in>3985</in>
								<out>-1</out>
							</marker>
							<marker>
								<comment>vet ikke om det er meg eller kona eller dattera mi</comment>
								<name></name>
								<in>2090</in>
								<out>-1</out>
							</marker>
							<marker>
								<comment>veldig nyttig</comment>
								<name>:)</name>
								<in>13312</in>
								<out>-1</out>
							</marker>
							<marker>
								<comment>lyse kan overvￃﾥke folk</comment>
								<name></name>
								<in>2876</in>
								<out>-1</out>
							</marker>
							<marker>
								<comment>bevegelsessenor, varmekablene er koblet opp og lamper og jobber med ￃﾥ fￃﾥ koblet det med lydanlegget&#13;mￃﾥ selbvgￃﾸlge ha :)</comment>
								<name></name>
								<in>914</in>
								<out>-1</out>
							</marker>
							<marker>
								<comment>absurd meningslￃﾸs greie, men gￃﾸyal</comment>
								<name></name>
								<in>12226</in>
								<out>-1</out>
							</marker>
							<marker>
								<comment>hallo dattera kommer</comment>
								<name></name>
								<in>4816</in>
								<out>-1</out>
							</marker>
							<marker>
								<comment>jeg kan styre pappa sitt rom&#13;tro du ha nblir fornￃﾸyd da?</comment>
								<name>: )</name>
								<in>7819</in>
								<out>-1</out>
							</marker>
							<marker>
								<comment>lￃﾦrt ￃﾥ styre ting pￃﾥ eget rom?</comment>
								<name></name>
								<in>6191</in>
								<out>-1</out>
							</marker>
							<marker>
								<comment>verdt det men ville ikke gitt dem tilgang til kameraer og sￃﾥnne ting</comment>
								<name></name>
								<in>2636</in>
								<out>-1</out>
							</marker>
							<marker>
								<comment>viktig at jeg som sluttbruker eier mine egne data</comment>
								<name></name>
								<in>3582</in>
								<out>-1</out>
							</marker>
							<marker>
								<comment>kjￃﾸkkenet er av stua er av</comment>
								<name></name>
								<in>10120</in>
								<out>-1</out>
							</marker>
						<labels>
							<label2>Forest</label2>
						</labels>
					</clipitem>
					<clipitem id="clipitem-474" frameBlend="FALSE">
						<masterclipid>masterclip-44</masterclipid>
						<name>AA313701.MXFMulticam</name>
						<enabled>TRUE</enabled>
						<duration>14040</duration>
						<rate>
							<timebase>25</timebase>
							<ntsc>FALSE</ntsc>
						</rate>
						<start>6345</start>
						<end>6365</end>
						<in>4852</in>
						<out>4872</out>
						<sequence id="sequence-15"/>
							<marker>
								<comment>du gir fra deg dataene dine, hvordan fￃﾸles det ￃﾥ vite at de vet alt du gjￃﾸr?</comment>
								<name></name>
								<in>1441</in>
								<out>-1</out>
							</marker>
							<marker>
								<comment>av og pￃﾥ lys</comment>
								<name></name>
								<in>7029</in>
								<out>-1</out>
							</marker>
							<marker>
								<comment>dere kan vite hva jeg ser pￃﾥ tv, nￃﾥr jeg dusjer, nￃﾥr jeg setter pￃﾥ vaskemaskinen min</comment>
								<name></name>
								<in>3985</in>
								<out>-1</out>
							</marker>
							<marker>
								<comment>vet ikke om det er meg eller kona eller dattera mi</comment>
								<name></name>
								<in>2090</in>
								<out>-1</out>
							</marker>
							<marker>
								<comment>veldig nyttig</comment>
								<name>:)</name>
								<in>13312</in>
								<out>-1</out>
							</marker>
							<marker>
								<comment>lyse kan overvￃﾥke folk</comment>
								<name></name>
								<in>2876</in>
								<out>-1</out>
							</marker>
							<marker>
								<comment>bevegelsessenor, varmekablene er koblet opp og lamper og jobber med ￃﾥ fￃﾥ koblet det med lydanlegget&#13;mￃﾥ selbvgￃﾸlge ha :)</comment>
								<name></name>
								<in>914</in>
								<out>-1</out>
							</marker>
							<marker>
								<comment>absurd meningslￃﾸs greie, men gￃﾸyal</comment>
								<name></name>
								<in>12226</in>
								<out>-1</out>
							</marker>
							<marker>
								<comment>hallo dattera kommer</comment>
								<name></name>
								<in>4816</in>
								<out>-1</out>
							</marker>
							<marker>
								<comment>jeg kan styre pappa sitt rom&#13;tro du ha nblir fornￃﾸyd da?</comment>
								<name>: )</name>
								<in>7819</in>
								<out>-1</out>
							</marker>
							<marker>
								<comment>lￃﾦrt ￃﾥ styre ting pￃﾥ eget rom?</comment>
								<name></name>
								<in>6191</in>
								<out>-1</out>
							</marker>
							<marker>
								<comment>verdt det men ville ikke gitt dem tilgang til kameraer og sￃﾥnne ting</comment>
								<name></name>
								<in>2636</in>
								<out>-1</out>
							</marker>
							<marker>
								<comment>viktig at jeg som sluttbruker eier mine egne data</comment>
								<name></name>
								<in>3582</in>
								<out>-1</out>
							</marker>
							<marker>
								<comment>kjￃﾸkkenet er av stua er av</comment>
								<name></name>
								<in>10120</in>
								<out>-1</out>
							</marker>
						<labels>
							<label2>Forest</label2>
						</labels>
					</clipitem>
					<clipitem id="clipitem-475" frameBlend="FALSE">
						<masterclipid>masterclip-44</masterclipid>
						<name>AA313701.MXFMulticam</name>
						<enabled>TRUE</enabled>
						<duration>14040</duration>
						<rate>
							<timebase>25</timebase>
							<ntsc>FALSE</ntsc>
						</rate>
						<start>6365</start>
						<end>6459</end>
						<in>4932</in>
						<out>5026</out>
						<sequence id="sequence-15"/>
							<marker>
								<comment>du gir fra deg dataene dine, hvordan fￃﾸles det ￃﾥ vite at de vet alt du gjￃﾸr?</comment>
								<name></name>
								<in>1441</in>
								<out>-1</out>
							</marker>
							<marker>
								<comment>av og pￃﾥ lys</comment>
								<name></name>
								<in>7029</in>
								<out>-1</out>
							</marker>
							<marker>
								<comment>dere kan vite hva jeg ser pￃﾥ tv, nￃﾥr jeg dusjer, nￃﾥr jeg setter pￃﾥ vaskemaskinen min</comment>
								<name></name>
								<in>3985</in>
								<out>-1</out>
							</marker>
							<marker>
								<comment>vet ikke om det er meg eller kona eller dattera mi</comment>
								<name></name>
								<in>2090</in>
								<out>-1</out>
							</marker>
							<marker>
								<comment>veldig nyttig</comment>
								<name>:)</name>
								<in>13312</in>
								<out>-1</out>
							</marker>
							<marker>
								<comment>lyse kan overvￃﾥke folk</comment>
								<name></name>
								<in>2876</in>
								<out>-1</out>
							</marker>
							<marker>
								<comment>bevegelsessenor, varmekablene er koblet opp og lamper og jobber med ￃﾥ fￃﾥ koblet det med lydanlegget&#13;mￃﾥ selbvgￃﾸlge ha :)</comment>
								<name></name>
								<in>914</in>
								<out>-1</out>
							</marker>
							<marker>
								<comment>absurd meningslￃﾸs greie, men gￃﾸyal</comment>
								<name></name>
								<in>12226</in>
								<out>-1</out>
							</marker>
							<marker>
								<comment>hallo dattera kommer</comment>
								<name></name>
								<in>4816</in>
								<out>-1</out>
							</marker>
							<marker>
								<comment>jeg kan styre pappa sitt rom&#13;tro du ha nblir fornￃﾸyd da?</comment>
								<name>: )</name>
								<in>7819</in>
								<out>-1</out>
							</marker>
							<marker>
								<comment>lￃﾦrt ￃﾥ styre ting pￃﾥ eget rom?</comment>
								<name></name>
								<in>6191</in>
								<out>-1</out>
							</marker>
							<marker>
								<comment>verdt det men ville ikke gitt dem tilgang til kameraer og sￃﾥnne ting</comment>
								<name></name>
								<in>2636</in>
								<out>-1</out>
							</marker>
							<marker>
								<comment>viktig at jeg som sluttbruker eier mine egne data</comment>
								<name></name>
								<in>3582</in>
								<out>-1</out>
							</marker>
							<marker>
								<comment>kjￃﾸkkenet er av stua er av</comment>
								<name></name>
								<in>10120</in>
								<out>-1</out>
							</marker>
						<labels>
							<label2>Forest</label2>
						</labels>
					</clipitem>
					<clipitem id="clipitem-476" frameBlend="FALSE">
						<masterclipid>masterclip-44</masterclipid>
						<name>AA313701.MXFMulticam</name>
						<enabled>TRUE</enabled>
						<duration>14040</duration>
						<rate>
							<timebase>25</timebase>
							<ntsc>FALSE</ntsc>
						</rate>
						<start>6459</start>
						<end>7095</end>
						<in>1725</in>
						<out>2361</out>
						<sequence id="sequence-15"/>
							<marker>
								<comment>du gir fra deg dataene dine, hvordan fￃﾸles det ￃﾥ vite at de vet alt du gjￃﾸr?</comment>
								<name></name>
								<in>1441</in>
								<out>-1</out>
							</marker>
							<marker>
								<comment>av og pￃﾥ lys</comment>
								<name></name>
								<in>7029</in>
								<out>-1</out>
							</marker>
							<marker>
								<comment>dere kan vite hva jeg ser pￃﾥ tv, nￃﾥr jeg dusjer, nￃﾥr jeg setter pￃﾥ vaskemaskinen min</comment>
								<name></name>
								<in>3985</in>
								<out>-1</out>
							</marker>
							<marker>
								<comment>vet ikke om det er meg eller kona eller dattera mi</comment>
								<name></name>
								<in>2090</in>
								<out>-1</out>
							</marker>
							<marker>
								<comment>veldig nyttig</comment>
								<name>:)</name>
								<in>13312</in>
								<out>-1</out>
							</marker>
							<marker>
								<comment>lyse kan overvￃﾥke folk</comment>
								<name></name>
								<in>2876</in>
								<out>-1</out>
							</marker>
							<marker>
								<comment>bevegelsessenor, varmekablene er koblet opp og lamper og jobber med ￃﾥ fￃﾥ koblet det med lydanlegget&#13;mￃﾥ selbvgￃﾸlge ha :)</comment>
								<name></name>
								<in>914</in>
								<out>-1</out>
							</marker>
							<marker>
								<comment>absurd meningslￃﾸs greie, men gￃﾸyal</comment>
								<name></name>
								<in>12226</in>
								<out>-1</out>
							</marker>
							<marker>
								<comment>hallo dattera kommer</comment>
								<name></name>
								<in>4816</in>
								<out>-1</out>
							</marker>
							<marker>
								<comment>jeg kan styre pappa sitt rom&#13;tro du ha nblir fornￃﾸyd da?</comment>
								<name>: )</name>
								<in>7819</in>
								<out>-1</out>
							</marker>
							<marker>
								<comment>lￃﾦrt ￃﾥ styre ting pￃﾥ eget rom?</comment>
								<name></name>
								<in>6191</in>
								<out>-1</out>
							</marker>
							<marker>
								<comment>verdt det men ville ikke gitt dem tilgang til kameraer og sￃﾥnne ting</comment>
								<name></name>
								<in>2636</in>
								<out>-1</out>
							</marker>
							<marker>
								<comment>viktig at jeg som sluttbruker eier mine egne data</comment>
								<name></name>
								<in>3582</in>
								<out>-1</out>
							</marker>
							<marker>
								<comment>kjￃﾸkkenet er av stua er av</comment>
								<name></name>
								<in>10120</in>
								<out>-1</out>
							</marker>
						<labels>
							<label2>Forest</label2>
						</labels>
					</clipitem>
					<clipitem id="clipitem-477" frameBlend="FALSE">
						<masterclipid>masterclip-53</masterclipid>
						<name>MVI_9582.MOV</name>
						<enabled>TRUE</enabled>
						<duration>470</duration>
						<rate>
							<timebase>25</timebase>
							<ntsc>FALSE</ntsc>
						</rate>
						<start>7095</start>
						<end>7187</end>
						<in>328</in>
						<out>420</out>
						<alphatype>black</alphatype>
						<pixelaspectratio>square</pixelaspectratio>
						<anamorphic>FALSE</anamorphic>
						<file id="file-48">
							<name>MVI_9582.MOV</name>
							<pathurl>file://localhost/Volumes/Brakka/AdobeLager/Katta/Katta-14xxxx-Smart_eller_overvaaket-Chris/02-Video/Smartly%205D/DCIM/100EOS5D/MVI_9582.MOV</pathurl>
							<rate>
								<timebase>25</timebase>
								<ntsc>FALSE</ntsc>
							</rate>
							<duration>470</duration>
							<timecode>
								<rate>
									<timebase>25</timebase>
									<ntsc>FALSE</ntsc>
								</rate>
								<string>00:00:00:00</string>
								<frame>0</frame>
								<displayformat>NDF</displayformat>
								<reel>
									<name></name>
								</reel>
							</timecode>
							<media>
								<video>
									<duration>18000</duration>
									<samplecharacteristics>
										<rate>
											<timebase>25</timebase>
											<ntsc>FALSE</ntsc>
										</rate>
										<width>1920</width>
										<height>1080</height>
										<anamorphic>FALSE</anamorphic>
										<pixelaspectratio>square</pixelaspectratio>
										<fielddominance>none</fielddominance>
									</samplecharacteristics>
								</video>
								<audio>
									<samplecharacteristics>
										<depth>16</depth>
										<samplerate>48000</samplerate>
									</samplecharacteristics>
									<channelcount>1</channelcount>
									<layout>mono</layout>
									<audiochannel>
										<sourcechannel>1</sourcechannel>
										<channellabel>discrete</channellabel>
									</audiochannel>
								</audio>
								<audio>
									<samplecharacteristics>
										<depth>16</depth>
										<samplerate>48000</samplerate>
									</samplecharacteristics>
									<channelcount>1</channelcount>
									<layout>mono</layout>
									<audiochannel>
										<sourcechannel>2</sourcechannel>
										<channellabel>discrete</channellabel>
									</audiochannel>
								</audio>
							</media>
						</file>
						<logginginfo>
							<description></description>
							<scene></scene>
							<shottake></shottake>
							<lognote></lognote>
						</logginginfo>
						<labels>
							<label2>Iris</label2>
						</labels>
					</clipitem>
					<clipitem id="clipitem-478" frameBlend="FALSE">
						<masterclipid>masterclip-54</masterclipid>
						<name>AA315301.MXF</name>
						<enabled>TRUE</enabled>
						<duration>7692</duration>
						<rate>
							<timebase>25</timebase>
							<ntsc>FALSE</ntsc>
						</rate>
						<start>7187</start>
						<end>7266</end>
						<in>135</in>
						<out>214</out>
						<alphatype>none</alphatype>
						<pixelaspectratio>square</pixelaspectratio>
						<anamorphic>FALSE</anamorphic>
						<file id="file-49">
							<name>AA315301.MXF</name>
							<pathurl>file://localhost/Volumes/Brakka/AdobeLager/Katta/Katta-14xxxx-Smart_eller_overvaaket-Chris/02-Video/Smartly300%201/CONTENTS/CLIPS001/AA3153/AA315301.MXF</pathurl>
							<rate>
								<timebase>25</timebase>
								<ntsc>FALSE</ntsc>
							</rate>
							<duration>7692</duration>
							<timecode>
								<rate>
									<timebase>25</timebase>
									<ntsc>FALSE</ntsc>
								</rate>
								<string>06:26:44:21</string>
								<frame>580121</frame>
								<displayformat>NDF</displayformat>
								<reel>
									<name></name>
								</reel>
							</timecode>
							<media>
								<video>
									<duration>18000</duration>
									<samplecharacteristics>
										<rate>
											<timebase>25</timebase>
											<ntsc>FALSE</ntsc>
										</rate>
										<width>1920</width>
										<height>1080</height>
										<anamorphic>FALSE</anamorphic>
										<pixelaspectratio>square</pixelaspectratio>
										<fielddominance>upper</fielddominance>
									</samplecharacteristics>
								</video>
								<audio>
									<samplecharacteristics>
										<depth>16</depth>
										<samplerate>48000</samplerate>
									</samplecharacteristics>
									<channelcount>1</channelcount>
									<layout>mono</layout>
									<audiochannel>
										<sourcechannel>1</sourcechannel>
										<channellabel>discrete</channellabel>
									</audiochannel>
								</audio>
								<audio>
									<samplecharacteristics>
										<depth>16</depth>
										<samplerate>48000</samplerate>
									</samplecharacteristics>
									<channelcount>1</channelcount>
									<layout>mono</layout>
									<audiochannel>
										<sourcechannel>2</sourcechannel>
										<channellabel>discrete</channellabel>
									</audiochannel>
								</audio>
							</media>
						</file>
						<logginginfo>
							<description></description>
							<scene></scene>
							<shottake>AA3153</shottake>
							<lognote></lognote>
						</logginginfo>
						<labels>
							<label2>Iris</label2>
						</labels>
					</clipitem>
					<clipitem id="clipitem-479" frameBlend="FALSE">
						<masterclipid>masterclip-55</masterclipid>
						<name>AA315701.MXF</name>
						<enabled>TRUE</enabled>
						<duration>720</duration>
						<rate>
							<timebase>25</timebase>
							<ntsc>FALSE</ntsc>
						</rate>
						<start>7266</start>
						<end>7302</end>
						<in>153</in>
						<out>189</out>
						<alphatype>none</alphatype>
						<pixelaspectratio>square</pixelaspectratio>
						<anamorphic>FALSE</anamorphic>
						<file id="file-50">
							<name>AA315701.MXF</name>
							<pathurl>file://localhost/Volumes/Brakka/AdobeLager/Katta/Katta-14xxxx-Smart_eller_overvaaket-Chris/02-Video/Smartly300%201/CONTENTS/CLIPS001/AA3157/AA315701.MXF</pathurl>
							<rate>
								<timebase>25</timebase>
								<ntsc>FALSE</ntsc>
							</rate>
							<duration>720</duration>
							<timecode>
								<rate>
									<timebase>25</timebase>
									<ntsc>FALSE</ntsc>
								</rate>
								<string>06:34:07:15</string>
								<frame>591190</frame>
								<displayformat>NDF</displayformat>
								<reel>
									<name></name>
								</reel>
							</timecode>
							<media>
								<video>
									<duration>18000</duration>
									<samplecharacteristics>
										<rate>
											<timebase>25</timebase>
											<ntsc>FALSE</ntsc>
										</rate>
										<width>1920</width>
										<height>1080</height>
										<anamorphic>FALSE</anamorphic>
										<pixelaspectratio>square</pixelaspectratio>
										<fielddominance>upper</fielddominance>
									</samplecharacteristics>
								</video>
								<audio>
									<samplecharacteristics>
										<depth>16</depth>
										<samplerate>48000</samplerate>
									</samplecharacteristics>
									<channelcount>1</channelcount>
									<layout>mono</layout>
									<audiochannel>
										<sourcechannel>1</sourcechannel>
										<channellabel>discrete</channellabel>
									</audiochannel>
								</audio>
								<audio>
									<samplecharacteristics>
										<depth>16</depth>
										<samplerate>48000</samplerate>
									</samplecharacteristics>
									<channelcount>1</channelcount>
									<layout>mono</layout>
									<audiochannel>
										<sourcechannel>2</sourcechannel>
										<channellabel>discrete</channellabel>
									</audiochannel>
								</audio>
							</media>
						</file>
						<logginginfo>
							<description></description>
							<scene></scene>
							<shottake>AA3157</shottake>
							<lognote></lognote>
						</logginginfo>
						<labels>
							<label2>Iris</label2>
						</labels>
					</clipitem>
					<clipitem id="clipitem-480" frameBlend="FALSE">
						<masterclipid>masterclip-54</masterclipid>
						<name>AA315301.MXF</name>
						<enabled>TRUE</enabled>
						<duration>7692</duration>
						<rate>
							<timebase>25</timebase>
							<ntsc>FALSE</ntsc>
						</rate>
						<start>7302</start>
						<end>7407</end>
						<in>532</in>
						<out>637</out>
						<alphatype>none</alphatype>
						<file id="file-49"/>
						<logginginfo>
							<description></description>
							<scene></scene>
							<shottake>AA3153</shottake>
							<lognote></lognote>
						</logginginfo>
						<labels>
							<label2>Iris</label2>
						</labels>
					</clipitem>
					<clipitem id="clipitem-481" frameBlend="FALSE">
						<masterclipid>masterclip-54</masterclipid>
						<name>AA315301.MXF</name>
						<enabled>TRUE</enabled>
						<duration>7692</duration>
						<rate>
							<timebase>25</timebase>
							<ntsc>FALSE</ntsc>
						</rate>
						<start>7407</start>
						<end>7499</end>
						<in>1015</in>
						<out>1107</out>
						<alphatype>none</alphatype>
						<file id="file-49"/>
						<logginginfo>
							<description></description>
							<scene></scene>
							<shottake>AA3153</shottake>
							<lognote></lognote>
						</logginginfo>
						<labels>
							<label2>Iris</label2>
						</labels>
					</clipitem>
					<clipitem id="clipitem-482" frameBlend="FALSE">
						<masterclipid>masterclip-56</masterclipid>
						<name>AA315601.MXF</name>
						<enabled>TRUE</enabled>
						<duration>420</duration>
						<rate>
							<timebase>25</timebase>
							<ntsc>FALSE</ntsc>
						</rate>
						<start>7499</start>
						<end>7554</end>
						<in>227</in>
						<out>282</out>
						<alphatype>none</alphatype>
						<pixelaspectratio>square</pixelaspectratio>
						<anamorphic>FALSE</anamorphic>
						<file id="file-51">
							<name>AA315601.MXF</name>
							<pathurl>file://localhost/Volumes/Brakka/AdobeLager/Katta/Katta-14xxxx-Smart_eller_overvaaket-Chris/02-Video/Smartly300%201/CONTENTS/CLIPS001/AA3156/AA315601.MXF</pathurl>
							<rate>
								<timebase>25</timebase>
								<ntsc>FALSE</ntsc>
							</rate>
							<duration>420</duration>
							<timecode>
								<rate>
									<timebase>25</timebase>
									<ntsc>FALSE</ntsc>
								</rate>
								<string>06:33:24:15</string>
								<frame>590115</frame>
								<displayformat>NDF</displayformat>
								<reel>
									<name></name>
								</reel>
							</timecode>
							<media>
								<video>
									<duration>18000</duration>
									<samplecharacteristics>
										<rate>
											<timebase>25</timebase>
											<ntsc>FALSE</ntsc>
										</rate>
										<width>1920</width>
										<height>1080</height>
										<anamorphic>FALSE</anamorphic>
										<pixelaspectratio>square</pixelaspectratio>
										<fielddominance>upper</fielddominance>
									</samplecharacteristics>
								</video>
								<audio>
									<samplecharacteristics>
										<depth>16</depth>
										<samplerate>48000</samplerate>
									</samplecharacteristics>
									<channelcount>1</channelcount>
									<layout>mono</layout>
									<audiochannel>
										<sourcechannel>1</sourcechannel>
										<channellabel>discrete</channellabel>
									</audiochannel>
								</audio>
								<audio>
									<samplecharacteristics>
										<depth>16</depth>
										<samplerate>48000</samplerate>
									</samplecharacteristics>
									<channelcount>1</channelcount>
									<layout>mono</layout>
									<audiochannel>
										<sourcechannel>2</sourcechannel>
										<channellabel>discrete</channellabel>
									</audiochannel>
								</audio>
							</media>
						</file>
						<logginginfo>
							<description></description>
							<scene></scene>
							<shottake>AA3156</shottake>
							<lognote></lognote>
						</logginginfo>
						<labels>
							<label2>Iris</label2>
						</labels>
					</clipitem>
					<clipitem id="clipitem-483" frameBlend="FALSE">
						<masterclipid>masterclip-54</masterclipid>
						<name>AA315301.MXF</name>
						<enabled>TRUE</enabled>
						<duration>7692</duration>
						<rate>
							<timebase>25</timebase>
							<ntsc>FALSE</ntsc>
						</rate>
						<start>7554</start>
						<end>7649</end>
						<in>1354</in>
						<out>1449</out>
						<alphatype>none</alphatype>
						<file id="file-49"/>
						<logginginfo>
							<description></description>
							<scene></scene>
							<shottake>AA3153</shottake>
							<lognote></lognote>
						</logginginfo>
						<labels>
							<label2>Iris</label2>
						</labels>
					</clipitem>
					<clipitem id="clipitem-484" frameBlend="FALSE">
						<masterclipid>masterclip-54</masterclipid>
						<name>AA315301.MXF</name>
						<enabled>TRUE</enabled>
						<duration>7692</duration>
						<rate>
							<timebase>25</timebase>
							<ntsc>FALSE</ntsc>
						</rate>
						<start>7649</start>
						<end>7722</end>
						<in>517</in>
						<out>590</out>
						<alphatype>none</alphatype>
						<file id="file-49"/>
							<filter>
								<effect>
									<name>Basic Motion</name>
									<effectid>basic</effectid>
									<effectcategory>motion</effectcategory>
									<effecttype>motion</effecttype>
									<mediatype>video</mediatype>
									<parameter authoringApp="PremierePro">
										<parameterid>scale</parameterid>
										<name>Scale</name>
										<valuemin>0</valuemin>
										<valuemax>1000</valuemax>
										<value>195.23</value>
									</parameter>
									<parameter authoringApp="PremierePro">
										<parameterid>rotation</parameterid>
										<name>Rotation</name>
										<valuemin>-8640</valuemin>
										<valuemax>8640</valuemax>
										<value>0</value>
									</parameter>
									<parameter authoringApp="PremierePro">
										<parameterid>center</parameterid>
										<name>Center</name>
										<value>
											<horiz>-0.0828125</horiz>
											<vert>0</vert>
										</value>
										<keyframe>
											<when>540</when>
											<value>
												<horiz>-0.0828125</horiz>
												<vert>0</vert>
											</value>
										</keyframe>
										<keyframe>
											<when>566</when>
											<value>
												<horiz>-0.0828125</horiz>
												<vert>0</vert>
											</value>
										</keyframe>
										<keyframe>
											<when>589</when>
											<value>
												<horiz>-0.298438</horiz>
												<vert>0</vert>
											</value>
										</keyframe>
									</parameter>
									<parameter authoringApp="PremierePro">
										<parameterid>centerOffset</parameterid>
										<name>Anchor Point</name>
										<value>
											<horiz>0</horiz>
											<vert>0</vert>
										</value>
									</parameter>
								</effect>
							</filter>
						<logginginfo>
							<description></description>
							<scene></scene>
							<shottake>AA3153</shottake>
							<lognote></lognote>
						</logginginfo>
						<labels>
							<label2>Iris</label2>
						</labels>
					</clipitem>
					<clipitem id="clipitem-485" frameBlend="FALSE">
						<masterclipid>masterclip-54</masterclipid>
						<name>AA315301.MXF</name>
						<enabled>TRUE</enabled>
						<duration>7692</duration>
						<rate>
							<timebase>25</timebase>
							<ntsc>FALSE</ntsc>
						</rate>
						<start>7722</start>
						<end>7901</end>
						<in>1916</in>
						<out>2095</out>
						<alphatype>none</alphatype>
						<file id="file-49"/>
						<logginginfo>
							<description></description>
							<scene></scene>
							<shottake>AA3153</shottake>
							<lognote></lognote>
						</logginginfo>
						<labels>
							<label2>Iris</label2>
						</labels>
					</clipitem>
					<clipitem id="clipitem-486" frameBlend="FALSE">
						<masterclipid>masterclip-54</masterclipid>
						<name>AA315301.MXF</name>
						<enabled>TRUE</enabled>
						<duration>7692</duration>
						<rate>
							<timebase>25</timebase>
							<ntsc>FALSE</ntsc>
						</rate>
						<start>7901</start>
						<end>8048</end>
						<in>3223</in>
						<out>3370</out>
						<alphatype>none</alphatype>
						<file id="file-49"/>
						<logginginfo>
							<description></description>
							<scene></scene>
							<shottake>AA3153</shottake>
							<lognote></lognote>
						</logginginfo>
						<labels>
							<label2>Iris</label2>
						</labels>
					</clipitem>
					<clipitem id="clipitem-487" frameBlend="FALSE">
						<masterclipid>masterclip-57</masterclipid>
						<name>AA315801.MXF</name>
						<enabled>TRUE</enabled>
						<duration>384</duration>
						<rate>
							<timebase>25</timebase>
							<ntsc>FALSE</ntsc>
						</rate>
						<start>8048</start>
						<end>8137</end>
						<in>44</in>
						<out>133</out>
						<alphatype>none</alphatype>
						<pixelaspectratio>square</pixelaspectratio>
						<anamorphic>FALSE</anamorphic>
						<file id="file-52">
							<name>AA315801.MXF</name>
							<pathurl>file://localhost/Volumes/Brakka/AdobeLager/Katta/Katta-14xxxx-Smart_eller_overvaaket-Chris/02-Video/Smartly300%201/CONTENTS/CLIPS001/AA3158/AA315801.MXF</pathurl>
							<rate>
								<timebase>25</timebase>
								<ntsc>FALSE</ntsc>
							</rate>
							<duration>384</duration>
							<timecode>
								<rate>
									<timebase>25</timebase>
									<ntsc>FALSE</ntsc>
								</rate>
								<string>06:34:38:04</string>
								<frame>591954</frame>
								<displayformat>NDF</displayformat>
								<reel>
									<name></name>
								</reel>
							</timecode>
							<media>
								<video>
									<duration>18000</duration>
									<samplecharacteristics>
										<rate>
											<timebase>25</timebase>
											<ntsc>FALSE</ntsc>
										</rate>
										<width>1920</width>
										<height>1080</height>
										<anamorphic>FALSE</anamorphic>
										<pixelaspectratio>square</pixelaspectratio>
										<fielddominance>upper</fielddominance>
									</samplecharacteristics>
								</video>
								<audio>
									<samplecharacteristics>
										<depth>16</depth>
										<samplerate>48000</samplerate>
									</samplecharacteristics>
									<channelcount>1</channelcount>
									<layout>mono</layout>
									<audiochannel>
										<sourcechannel>1</sourcechannel>
										<channellabel>discrete</channellabel>
									</audiochannel>
								</audio>
								<audio>
									<samplecharacteristics>
										<depth>16</depth>
										<samplerate>48000</samplerate>
									</samplecharacteristics>
									<channelcount>1</channelcount>
									<layout>mono</layout>
									<audiochannel>
										<sourcechannel>2</sourcechannel>
										<channellabel>discrete</channellabel>
									</audiochannel>
								</audio>
							</media>
						</file>
						<logginginfo>
							<description></description>
							<scene></scene>
							<shottake>AA3158</shottake>
							<lognote></lognote>
						</logginginfo>
						<labels>
							<label2>Iris</label2>
						</labels>
					</clipitem>
					<clipitem id="clipitem-488" frameBlend="FALSE">
						<masterclipid>masterclip-54</masterclipid>
						<name>AA315301.MXF</name>
						<enabled>TRUE</enabled>
						<duration>7692</duration>
						<rate>
							<timebase>25</timebase>
							<ntsc>FALSE</ntsc>
						</rate>
						<start>8137</start>
						<end>8284</end>
						<in>5585</in>
						<out>5732</out>
						<alphatype>none</alphatype>
						<file id="file-49"/>
						<logginginfo>
							<description></description>
							<scene></scene>
							<shottake>AA3153</shottake>
							<lognote></lognote>
						</logginginfo>
						<labels>
							<label2>Iris</label2>
						</labels>
					</clipitem>
					<clipitem id="clipitem-489" frameBlend="FALSE">
						<masterclipid>masterclip-58</masterclipid>
						<name>AA315401.MXF</name>
						<enabled>TRUE</enabled>
						<duration>2004</duration>
						<rate>
							<timebase>25</timebase>
							<ntsc>FALSE</ntsc>
						</rate>
						<start>8284</start>
						<end>8357</end>
						<in>0</in>
						<out>73</out>
						<alphatype>none</alphatype>
						<pixelaspectratio>square</pixelaspectratio>
						<anamorphic>FALSE</anamorphic>
						<file id="file-53">
							<name>AA315401.MXF</name>
							<pathurl>file://localhost/Volumes/Brakka/AdobeLager/Katta/Katta-14xxxx-Smart_eller_overvaaket-Chris/02-Video/Smartly300%201/CONTENTS/CLIPS001/AA3154/AA315401.MXF</pathurl>
							<rate>
								<timebase>25</timebase>
								<ntsc>FALSE</ntsc>
							</rate>
							<duration>2004</duration>
							<timecode>
								<rate>
									<timebase>25</timebase>
									<ntsc>FALSE</ntsc>
								</rate>
								<string>06:31:56:07</string>
								<frame>587907</frame>
								<displayformat>NDF</displayformat>
								<reel>
									<name></name>
								</reel>
							</timecode>
							<media>
								<video>
									<duration>18000</duration>
									<samplecharacteristics>
										<rate>
											<timebase>25</timebase>
											<ntsc>FALSE</ntsc>
										</rate>
										<width>1920</width>
										<height>1080</height>
										<anamorphic>FALSE</anamorphic>
										<pixelaspectratio>square</pixelaspectratio>
										<fielddominance>upper</fielddominance>
									</samplecharacteristics>
								</video>
								<audio>
									<samplecharacteristics>
										<depth>16</depth>
										<samplerate>48000</samplerate>
									</samplecharacteristics>
									<channelcount>1</channelcount>
									<layout>mono</layout>
									<audiochannel>
										<sourcechannel>1</sourcechannel>
										<channellabel>discrete</channellabel>
									</audiochannel>
								</audio>
								<audio>
									<samplecharacteristics>
										<depth>16</depth>
										<samplerate>48000</samplerate>
									</samplecharacteristics>
									<channelcount>1</channelcount>
									<layout>mono</layout>
									<audiochannel>
										<sourcechannel>2</sourcechannel>
										<channellabel>discrete</channellabel>
									</audiochannel>
								</audio>
							</media>
						</file>
						<logginginfo>
							<description></description>
							<scene></scene>
							<shottake>AA3154</shottake>
							<lognote></lognote>
						</logginginfo>
						<labels>
							<label2>Iris</label2>
						</labels>
					</clipitem>
					<clipitem id="clipitem-490" frameBlend="FALSE">
						<masterclipid>masterclip-54</masterclipid>
						<name>AA315301.MXF</name>
						<enabled>TRUE</enabled>
						<duration>7692</duration>
						<rate>
							<timebase>25</timebase>
							<ntsc>FALSE</ntsc>
						</rate>
						<start>8357</start>
						<end>8591</end>
						<in>6054</in>
						<out>6288</out>
						<alphatype>none</alphatype>
						<file id="file-49"/>
						<logginginfo>
							<description></description>
							<scene></scene>
							<shottake>AA3153</shottake>
							<lognote></lognote>
						</logginginfo>
						<labels>
							<label2>Iris</label2>
						</labels>
					</clipitem>
					<clipitem id="clipitem-491" frameBlend="FALSE">
						<masterclipid>masterclip-59</masterclipid>
						<name>AA314401.MXFMulticam</name>
						<enabled>TRUE</enabled>
						<duration>18437</duration>
						<rate>
							<timebase>25</timebase>
							<ntsc>FALSE</ntsc>
						</rate>
						<start>8591</start>
						<end>8641</end>
						<in>2538</in>
						<out>2588</out>
						<sequence id="sequence-25">
							<duration>150</duration>
							<rate>
								<timebase>25</timebase>
								<ntsc>FALSE</ntsc>
							</rate>
							<name>AA314401.MXFMulticam-3</name>
							<media>
								<video>
									<format>
										<samplecharacteristics>
											<rate>
												<timebase>25</timebase>
												<ntsc>FALSE</ntsc>
											</rate>
											<codec>
												<name>Apple ProRes 422</name>
												<appspecificdata>
													<appname>Final Cut Pro</appname>
													<appmanufacturer>Apple Inc.</appmanufacturer>
													<appversion>7.0</appversion>
													<data>
														<qtcodec>
															<codecname>Apple ProRes 422</codecname>
															<codectypename>Apple ProRes 422</codectypename>
															<codectypecode>apcn</codectypecode>
															<codecvendorcode>appl</codecvendorcode>
															<spatialquality>1024</spatialquality>
															<temporalquality>0</temporalquality>
															<keyframerate>0</keyframerate>
															<datarate>0</datarate>
														</qtcodec>
													</data>
												</appspecificdata>
											</codec>
											<width>1920</width>
											<height>1080</height>
											<anamorphic>FALSE</anamorphic>
											<pixelaspectratio>square</pixelaspectratio>
											<fielddominance>upper</fielddominance>
											<colordepth>24</colordepth>
										</samplecharacteristics>
									</format>
									<track TL.SQTrackShy="0" TL.SQTrackExpandedHeight="25" TL.SQTrackExpanded="0" MZ.TrackTargeted="0">
										<clipitem id="clipitem-497" frameBlend="FALSE">
											<masterclipid>masterclip-62</masterclipid>
											<name>MVI_9562.MOV</name>
											<enabled>TRUE</enabled>
											<duration>18397</duration>
											<rate>
												<timebase>25</timebase>
												<ntsc>FALSE</ntsc>
											</rate>
											<start>0</start>
											<end>18397</end>
											<in>0</in>
											<out>18397</out>
											<alphatype>black</alphatype>
											<pixelaspectratio>square</pixelaspectratio>
											<anamorphic>FALSE</anamorphic>
											<file id="file-56">
												<name>MVI_9562.MOV</name>
												<pathurl>file://localhost/Volumes/Brakka/AdobeLager/Katta/Katta-14xxxx-Smart_eller_overvaaket-Chris/02-Video/Smartly%205D/DCIM/100EOS5D/MVI_9562.MOV</pathurl>
												<rate>
													<timebase>25</timebase>
													<ntsc>FALSE</ntsc>
												</rate>
												<duration>18397</duration>
												<timecode>
													<rate>
														<timebase>25</timebase>
														<ntsc>FALSE</ntsc>
													</rate>
													<string>00:00:00:00</string>
													<frame>0</frame>
													<displayformat>NDF</displayformat>
													<reel>
														<name></name>
													</reel>
												</timecode>
												<media>
													<video>
														<duration>18000</duration>
														<samplecharacteristics>
															<rate>
																<timebase>25</timebase>
																<ntsc>FALSE</ntsc>
															</rate>
															<width>1920</width>
															<height>1080</height>
															<anamorphic>FALSE</anamorphic>
															<pixelaspectratio>square</pixelaspectratio>
															<fielddominance>none</fielddominance>
														</samplecharacteristics>
													</video>
													<audio>
														<samplecharacteristics>
															<depth>16</depth>
															<samplerate>48000</samplerate>
														</samplecharacteristics>
														<channelcount>1</channelcount>
														<layout>mono</layout>
														<audiochannel>
															<sourcechannel>1</sourcechannel>
															<channellabel>discrete</channellabel>
														</audiochannel>
													</audio>
													<audio>
														<samplecharacteristics>
															<depth>16</depth>
															<samplerate>48000</samplerate>
														</samplecharacteristics>
														<channelcount>1</channelcount>
														<layout>mono</layout>
														<audiochannel>
															<sourcechannel>2</sourcechannel>
															<channellabel>discrete</channellabel>
														</audiochannel>
													</audio>
												</media>
											</file>
											<logginginfo>
												<description></description>
												<scene></scene>
												<shottake></shottake>
												<lognote></lognote>
											</logginginfo>
											<labels>
												<label2>Iris</label2>
											</labels>
										</clipitem>
										<enabled>TRUE</enabled>
										<locked>FALSE</locked>
									</track>
								</video>
								<audio>
									<format>
										<samplecharacteristics>
											<depth>16</depth>
											<samplerate>48000</samplerate>
										</samplecharacteristics>
									</format>
									<outputs>
										<group>
											<index>1</index>
											<numchannels>1</numchannels>
											<downmix>0</downmix>
											<channel>
												<index>1</index>
											</channel>
										</group>
										<group>
											<index>2</index>
											<numchannels>1</numchannels>
											<downmix>0</downmix>
											<channel>
												<index>2</index>
											</channel>
										</group>
										<group>
											<index>3</index>
											<numchannels>1</numchannels>
											<downmix>0</downmix>
											<channel>
												<index>3</index>
											</channel>
										</group>
										<group>
											<index>4</index>
											<numchannels>1</numchannels>
											<downmix>0</downmix>
											<channel>
												<index>4</index>
											</channel>
										</group>
										<group>
											<index>5</index>
											<numchannels>1</numchannels>
											<downmix>0</downmix>
											<channel>
												<index>5</index>
											</channel>
										</group>
										<group>
											<index>6</index>
											<numchannels>1</numchannels>
											<downmix>0</downmix>
											<channel>
												<index>6</index>
											</channel>
										</group>
									</outputs>
									<track TL.SQTrackAudioKeyframeStyle="0" TL.SQTrackShy="0" TL.SQTrackExpandedHeight="25" TL.SQTrackExpanded="0" MZ.TrackTargeted="0" PannerCurrentValue="0" PannerIsInverted="true" PannerStartKeyframe="-91445760000000000,0.,0,0,0,0,0,0" PannerName="Balance" currentExplodedTrackIndex="0" totalExplodedTrackCount="1" premiereTrackType="Stereo">
										<clipitem id="clipitem-496" frameBlend="FALSE" PannerCurrentValue="0.5" PannerKeyframes="" PannerStartKeyframe="-91445760000000000,0.5,0,0,0,0,0,0" PannerIsInverted="true" PannerName="Pan">
											<masterclipid>masterclip-61</masterclipid>
											<name>AA314501.MXF</name>
											<enabled>TRUE</enabled>
											<duration>1704</duration>
											<rate>
												<timebase>25</timebase>
												<ntsc>FALSE</ntsc>
											</rate>
											<start>16733</start>
											<end>18437</end>
											<in>0</in>
											<out>1704</out>
											<file id="file-55"/>
											<sourcetrack>
												<mediatype>audio</mediatype>
												<trackindex>1</trackindex>
											</sourcetrack>
												<filter>
													<effect>
														<name>Audio Pan</name>
														<effectid>audiopan</effectid>
														<effectcategory>audiopan</effectcategory>
														<effecttype>audiopan</effecttype>
														<mediatype>audio</mediatype>
														<parameter authoringApp="PremierePro">
															<parameterid>pan</parameterid>
															<name>Pan</name>
															<valuemin>-1</valuemin>
															<valuemax>1</valuemax>
															<value>0</value>
														</parameter>
													</effect>
												</filter>
											<logginginfo>
												<description></description>
												<scene></scene>
												<shottake>AA3145</shottake>
												<lognote></lognote>
											</logginginfo>
											<labels>
												<label2>Iris</label2>
											</labels>
										</clipitem>
										<enabled>TRUE</enabled>
										<locked>FALSE</locked>
										<outputchannelindex>1</outputchannelindex>
									</track>
								</audio>
							</media>
							<timecode>
								<rate>
									<timebase>25</timebase>
									<ntsc>FALSE</ntsc>
								</rate>
								<string>00:00:00:00</string>
								<frame>0</frame>
								<displayformat>NDF</displayformat>
							</timecode>
						</sequence>
							<marker>
								<comment>vil du ofre det i framtida?&#13;ja, hvis det er kjekt nok, er jeg villig til ￃﾥ strekke strikken</comment>
								<name></name>
								<in>18238</in>
								<out>-1</out>
							</marker>
							<marker>
								<comment>da google kjￃﾸpte NEst som har rￃﾸykvarlser og smarte termostater, hva skulle Google med et sￃﾥnt selskap?</comment>
								<name></name>
								<in>14621</in>
								<out>-1</out>
							</marker>
							<marker>
								<comment>hvor smart er klokka di?</comment>
								<name></name>
								<in>1014</in>
								<out>-1</out>
							</marker>
							<marker>
								<comment>faren er at du ikke vet hva du har sagt ja til og det er vanskelig ￃﾥ endre pￃﾥ det</comment>
								<name></name>
								<in>10791</in>
								<out>-1</out>
							</marker>
							<marker>
								<comment>ikke alt som skal opp i skya, noe mￃﾥ du beholde selv</comment>
								<name></name>
								<in>7871</in>
								<out>-1</out>
							</marker>
							<marker>
								<comment>skal vￃﾦre forsikt, kan bli misbnrukt av forsikringsbransjen eller hvem det er</comment>
								<name>data kan bli</name>
								<in>4134</in>
								<out>-1</out>
							</marker>
							<marker>
								<comment>sￃﾥ lenge du har en formening om hvor datene blir lagret, bￃﾸr det vￃﾦre greit</comment>
								<name></name>
								<in>4429</in>
								<out>-1</out>
							</marker>
							<marker>
								<comment>gir du avkall pￃﾥ personver?&#13;ikke smarthus, men pￃﾥ pc og mobil</comment>
								<name></name>
								<in>17066</in>
								<out>-1</out>
							</marker>
							<marker>
								<comment>myndigheten kan bestemme at dataene blir i Norge, eller Eu</comment>
								<name></name>
								<in>8508</in>
								<out>-1</out>
							</marker>
							<marker>
								<comment>de vil ha fysisk informasjon om hva so rￃﾸrer seg runt i livene vￃﾥre</comment>
								<name></name>
								<in>14776</in>
								<out>-1</out>
							</marker>
							<marker>
								<comment>jeg er bekymret for sporing pￃﾥ internett, men nￃﾥ blir det i det virkelige livet</comment>
								<name></name>
								<in>14122</in>
								<out>-1</out>
							</marker>
							<marker>
								<comment>leger kan ville selge data om det, hￃﾸres veldig negativt ut, men hvis det blir anoymisert...</comment>
								<name></name>
								<in>13087</in>
								<out>-1</out>
							</marker>
							<marker>
								<comment>nervￃﾸs for at dataen kan havne pￃﾥ avveie</comment>
								<name></name>
								<in>3846</in>
								<out>-1</out>
							</marker>
							<marker>
								<comment>du mￃﾥ gi fra deg litt frihet for ￃﾥ kunne fￃﾥ tilbake</comment>
								<name></name>
								<in>10309</in>
								<out>-1</out>
							</marker>
							<marker>
								<comment>skulle ￃﾸsnke at alle dataene er dine og ikke sￃﾥnn som nￃﾥ hvor vi deler alt og blir restrikvite</comment>
								<name></name>
								<in>5573</in>
								<out>-1</out>
							</marker>
							<marker>
								<comment>appene er skrekkscenario, du gir masse tilgang og du krysser av pￃﾥ ok, ok</comment>
								<name></name>
								<in>5805</in>
								<out>-1</out>
							</marker>
							<marker>
								<comment>overvￃﾥkingssamfunnet er det lover og regler for</comment>
								<name></name>
								<in>12095</in>
								<out>-1</out>
							</marker>
							<marker>
								<comment>jeg gjￃﾸr sikkert dumme valg jeg og, men det er en tradeoff</comment>
								<name></name>
								<in>6008</in>
								<out>-1</out>
							</marker>
							<marker>
								<comment>det m ￃﾥ vￃﾦre lett ￂﾨsi nￃﾥ vi ljeg ha tilbake mine data</comment>
								<name></name>
								<in>10941</in>
								<out>-1</out>
							</marker>
							<marker>
								<comment>du mￃﾥ velge de leverandￃﾸren som du stoler pￃﾥ, og du mￃﾥ stole pￃﾥ noen pￃﾥ ett eller annet tidspunkt</comment>
								<name></name>
								<in>15618</in>
								<out>-1</out>
							</marker>
							<marker>
								<comment>innen helse og velferd vil det vￃﾦre noen fallgruver&#13;</comment>
								<name></name>
								<in>12440</in>
								<out>-1</out>
							</marker>
							<marker>
								<comment>holde datene litt nￃﾦrme kroppen og ikke del med alt og alle</comment>
								<name></name>
								<in>4990</in>
								<out>-1</out>
							</marker>
							<marker>
								<comment>forsikringen kan se om dￃﾸra var lￃﾥst eller ei etter et innbrudd</comment>
								<name></name>
								<in>6963</in>
								<out>-1</out>
							</marker>
							<marker>
								<comment>ja, det virker litt sￃﾥnn</comment>
								<name>:)</name>
								<in>15327</in>
								<out>-1</out>
							</marker>
							<marker>
								<comment>fￃﾥr se om vi fￃﾥr kontroll pￃﾥ det google vet om oss, og kanskje syns vi det er sￃﾥ kjekt at vi deler</comment>
								<name></name>
								<in>15192</in>
								<out>-1</out>
							</marker>
						<labels>
							<label2>Forest</label2>
						</labels>
					</clipitem>
					<clipitem id="clipitem-499" frameBlend="FALSE">
						<masterclipid>masterclip-59</masterclipid>
						<name>AA314401.MXFMulticam</name>
						<enabled>TRUE</enabled>
						<duration>18437</duration>
						<rate>
							<timebase>25</timebase>
							<ntsc>FALSE</ntsc>
						</rate>
						<start>8641</start>
						<end>8738</end>
						<in>2574</in>
						<out>2671</out>
						<sequence id="sequence-23">
							<duration>150</duration>
							<rate>
								<timebase>25</timebase>
								<ntsc>FALSE</ntsc>
							</rate>
							<name>AA314401.MXFMulticam-1</name>
							<media>
								<video>
									<format>
										<samplecharacteristics>
											<rate>
												<timebase>25</timebase>
												<ntsc>FALSE</ntsc>
											</rate>
											<codec>
												<name>Apple ProRes 422</name>
												<appspecificdata>
													<appname>Final Cut Pro</appname>
													<appmanufacturer>Apple Inc.</appmanufacturer>
													<appversion>7.0</appversion>
													<data>
														<qtcodec>
															<codecname>Apple ProRes 422</codecname>
															<codectypename>Apple ProRes 422</codectypename>
															<codectypecode>apcn</codectypecode>
															<codecvendorcode>appl</codecvendorcode>
															<spatialquality>1024</spatialquality>
															<temporalquality>0</temporalquality>
															<keyframerate>0</keyframerate>
															<datarate>0</datarate>
														</qtcodec>
													</data>
												</appspecificdata>
											</codec>
											<width>1920</width>
											<height>1080</height>
											<anamorphic>FALSE</anamorphic>
											<pixelaspectratio>square</pixelaspectratio>
											<fielddominance>upper</fielddominance>
											<colordepth>24</colordepth>
										</samplecharacteristics>
									</format>
									<track TL.SQTrackShy="0" TL.SQTrackExpandedHeight="50" TL.SQTrackExpanded="1" MZ.TrackTargeted="0">
										<clipitem id="clipitem-493" frameBlend="FALSE">
											<masterclipid>masterclip-60</masterclipid>
											<name>AA314401.MXF</name>
											<enabled>TRUE</enabled>
											<duration>15768</duration>
											<rate>
												<timebase>25</timebase>
												<ntsc>FALSE</ntsc>
											</rate>
											<start>529</start>
											<end>16297</end>
											<in>0</in>
											<out>15768</out>
											<alphatype>none</alphatype>
											<file id="file-54"/>
											<logginginfo>
												<description></description>
												<scene></scene>
												<shottake>AA3144</shottake>
												<lognote></lognote>
											</logginginfo>
											<labels>
												<label2>Iris</label2>
											</labels>
										</clipitem>
										<enabled>TRUE</enabled>
										<locked>FALSE</locked>
									</track>
								</video>
								<audio>
									<format>
										<samplecharacteristics>
											<depth>16</depth>
											<samplerate>48000</samplerate>
										</samplecharacteristics>
									</format>
									<outputs>
										<group>
											<index>1</index>
											<numchannels>1</numchannels>
											<downmix>0</downmix>
											<channel>
												<index>1</index>
											</channel>
										</group>
										<group>
											<index>2</index>
											<numchannels>1</numchannels>
											<downmix>0</downmix>
											<channel>
												<index>2</index>
											</channel>
										</group>
										<group>
											<index>3</index>
											<numchannels>1</numchannels>
											<downmix>0</downmix>
											<channel>
												<index>3</index>
											</channel>
										</group>
										<group>
											<index>4</index>
											<numchannels>1</numchannels>
											<downmix>0</downmix>
											<channel>
												<index>4</index>
											</channel>
										</group>
										<group>
											<index>5</index>
											<numchannels>1</numchannels>
											<downmix>0</downmix>
											<channel>
												<index>5</index>
											</channel>
										</group>
										<group>
											<index>6</index>
											<numchannels>1</numchannels>
											<downmix>0</downmix>
											<channel>
												<index>6</index>
											</channel>
										</group>
									</outputs>
									<track TL.SQTrackAudioKeyframeStyle="0" TL.SQTrackShy="0" TL.SQTrackExpandedHeight="26" TL.SQTrackExpanded="1" MZ.TrackTargeted="1" PannerCurrentValue="0" PannerIsInverted="true" PannerStartKeyframe="-91445760000000000,0.,0,0,0,0,0,0" PannerName="Balance" currentExplodedTrackIndex="0" totalExplodedTrackCount="1" premiereTrackType="Stereo">
										<clipitem id="clipitem-492" frameBlend="FALSE" PannerCurrentValue="0.5" PannerKeyframes="" PannerStartKeyframe="-91445760000000000,0.5,0,0,0,0,0,0" PannerIsInverted="true" PannerName="Pan">
											<masterclipid>masterclip-60</masterclipid>
											<name>AA314401.MXF</name>
											<enabled>TRUE</enabled>
											<duration>15768</duration>
											<rate>
												<timebase>25</timebase>
												<ntsc>FALSE</ntsc>
											</rate>
											<start>529</start>
											<end>16297</end>
											<in>0</in>
											<out>15768</out>
											<pixelaspectratio>square</pixelaspectratio>
											<anamorphic>FALSE</anamorphic>
											<file id="file-54">
												<name>AA314401.MXF</name>
												<pathurl>file://localhost/Volumes/Brakka/AdobeLager/Katta/Katta-14xxxx-Smart_eller_overvaaket-Chris/02-Video/Smartly300%201/CONTENTS/CLIPS001/AA3144/AA314401.MXF</pathurl>
												<rate>
													<timebase>25</timebase>
													<ntsc>FALSE</ntsc>
												</rate>
												<duration>15768</duration>
												<timecode>
													<rate>
														<timebase>25</timebase>
														<ntsc>FALSE</ntsc>
													</rate>
													<string>05:11:58:24</string>
													<frame>467974</frame>
													<displayformat>NDF</displayformat>
													<reel>
														<name></name>
													</reel>
												</timecode>
												<media>
													<video>
														<duration>18000</duration>
														<samplecharacteristics>
															<rate>
																<timebase>25</timebase>
																<ntsc>FALSE</ntsc>
															</rate>
															<width>1920</width>
															<height>1080</height>
															<anamorphic>FALSE</anamorphic>
															<pixelaspectratio>square</pixelaspectratio>
															<fielddominance>upper</fielddominance>
														</samplecharacteristics>
													</video>
													<audio>
														<samplecharacteristics>
															<depth>16</depth>
															<samplerate>48000</samplerate>
														</samplecharacteristics>
														<channelcount>1</channelcount>
														<layout>mono</layout>
														<audiochannel>
															<sourcechannel>1</sourcechannel>
															<channellabel>discrete</channellabel>
														</audiochannel>
													</audio>
													<audio>
														<samplecharacteristics>
															<depth>16</depth>
															<samplerate>48000</samplerate>
														</samplecharacteristics>
														<channelcount>1</channelcount>
														<layout>mono</layout>
														<audiochannel>
															<sourcechannel>2</sourcechannel>
															<channellabel>discrete</channellabel>
														</audiochannel>
													</audio>
												</media>
											</file>
											<sourcetrack>
												<mediatype>audio</mediatype>
												<trackindex>1</trackindex>
											</sourcetrack>
												<filter>
													<effect>
														<name>Audio Pan</name>
														<effectid>audiopan</effectid>
														<effectcategory>audiopan</effectcategory>
														<effecttype>audiopan</effecttype>
														<mediatype>audio</mediatype>
														<parameter authoringApp="PremierePro">
															<parameterid>pan</parameterid>
															<name>Pan</name>
															<valuemin>-1</valuemin>
															<valuemax>1</valuemax>
															<value>0</value>
														</parameter>
													</effect>
												</filter>
											<logginginfo>
												<description></description>
												<scene></scene>
												<shottake>AA3144</shottake>
												<lognote></lognote>
											</logginginfo>
											<labels>
												<label2>Iris</label2>
											</labels>
										</clipitem>
										<enabled>TRUE</enabled>
										<locked>FALSE</locked>
										<outputchannelindex>1</outputchannelindex>
									</track>
								</audio>
							</media>
							<timecode>
								<rate>
									<timebase>25</timebase>
									<ntsc>FALSE</ntsc>
								</rate>
								<string>00:00:00:00</string>
								<frame>0</frame>
								<displayformat>NDF</displayformat>
							</timecode>
						</sequence>
							<marker>
								<comment>vil du ofre det i framtida?&#13;ja, hvis det er kjekt nok, er jeg villig til ￃﾥ strekke strikken</comment>
								<name></name>
								<in>18238</in>
								<out>-1</out>
							</marker>
							<marker>
								<comment>da google kjￃﾸpte NEst som har rￃﾸykvarlser og smarte termostater, hva skulle Google med et sￃﾥnt selskap?</comment>
								<name></name>
								<in>14621</in>
								<out>-1</out>
							</marker>
							<marker>
								<comment>hvor smart er klokka di?</comment>
								<name></name>
								<in>1014</in>
								<out>-1</out>
							</marker>
							<marker>
								<comment>faren er at du ikke vet hva du har sagt ja til og det er vanskelig ￃﾥ endre pￃﾥ det</comment>
								<name></name>
								<in>10791</in>
								<out>-1</out>
							</marker>
							<marker>
								<comment>ikke alt som skal opp i skya, noe mￃﾥ du beholde selv</comment>
								<name></name>
								<in>7871</in>
								<out>-1</out>
							</marker>
							<marker>
								<comment>skal vￃﾦre forsikt, kan bli misbnrukt av forsikringsbransjen eller hvem det er</comment>
								<name>data kan bli</name>
								<in>4134</in>
								<out>-1</out>
							</marker>
							<marker>
								<comment>sￃﾥ lenge du har en formening om hvor datene blir lagret, bￃﾸr det vￃﾦre greit</comment>
								<name></name>
								<in>4429</in>
								<out>-1</out>
							</marker>
							<marker>
								<comment>gir du avkall pￃﾥ personver?&#13;ikke smarthus, men pￃﾥ pc og mobil</comment>
								<name></name>
								<in>17066</in>
								<out>-1</out>
							</marker>
							<marker>
								<comment>myndigheten kan bestemme at dataene blir i Norge, eller Eu</comment>
								<name></name>
								<in>8508</in>
								<out>-1</out>
							</marker>
							<marker>
								<comment>de vil ha fysisk informasjon om hva so rￃﾸrer seg runt i livene vￃﾥre</comment>
								<name></name>
								<in>14776</in>
								<out>-1</out>
							</marker>
							<marker>
								<comment>jeg er bekymret for sporing pￃﾥ internett, men nￃﾥ blir det i det virkelige livet</comment>
								<name></name>
								<in>14122</in>
								<out>-1</out>
							</marker>
							<marker>
								<comment>leger kan ville selge data om det, hￃﾸres veldig negativt ut, men hvis det blir anoymisert...</comment>
								<name></name>
								<in>13087</in>
								<out>-1</out>
							</marker>
							<marker>
								<comment>nervￃﾸs for at dataen kan havne pￃﾥ avveie</comment>
								<name></name>
								<in>3846</in>
								<out>-1</out>
							</marker>
							<marker>
								<comment>du mￃﾥ gi fra deg litt frihet for ￃﾥ kunne fￃﾥ tilbake</comment>
								<name></name>
								<in>10309</in>
								<out>-1</out>
							</marker>
							<marker>
								<comment>skulle ￃﾸsnke at alle dataene er dine og ikke sￃﾥnn som nￃﾥ hvor vi deler alt og blir restrikvite</comment>
								<name></name>
								<in>5573</in>
								<out>-1</out>
							</marker>
							<marker>
								<comment>appene er skrekkscenario, du gir masse tilgang og du krysser av pￃﾥ ok, ok</comment>
								<name></name>
								<in>5805</in>
								<out>-1</out>
							</marker>
							<marker>
								<comment>overvￃﾥkingssamfunnet er det lover og regler for</comment>
								<name></name>
								<in>12095</in>
								<out>-1</out>
							</marker>
							<marker>
								<comment>jeg gjￃﾸr sikkert dumme valg jeg og, men det er en tradeoff</comment>
								<name></name>
								<in>6008</in>
								<out>-1</out>
							</marker>
							<marker>
								<comment>det m ￃﾥ vￃﾦre lett ￂﾨsi nￃﾥ vi ljeg ha tilbake mine data</comment>
								<name></name>
								<in>10941</in>
								<out>-1</out>
							</marker>
							<marker>
								<comment>du mￃﾥ velge de leverandￃﾸren som du stoler pￃﾥ, og du mￃﾥ stole pￃﾥ noen pￃﾥ ett eller annet tidspunkt</comment>
								<name></name>
								<in>15618</in>
								<out>-1</out>
							</marker>
							<marker>
								<comment>innen helse og velferd vil det vￃﾦre noen fallgruver&#13;</comment>
								<name></name>
								<in>12440</in>
								<out>-1</out>
							</marker>
							<marker>
								<comment>holde datene litt nￃﾦrme kroppen og ikke del med alt og alle</comment>
								<name></name>
								<in>4990</in>
								<out>-1</out>
							</marker>
							<marker>
								<comment>forsikringen kan se om dￃﾸra var lￃﾥst eller ei etter et innbrudd</comment>
								<name></name>
								<in>6963</in>
								<out>-1</out>
							</marker>
							<marker>
								<comment>ja, det virker litt sￃﾥnn</comment>
								<name>:)</name>
								<in>15327</in>
								<out>-1</out>
							</marker>
							<marker>
								<comment>fￃﾥr se om vi fￃﾥr kontroll pￃﾥ det google vet om oss, og kanskje syns vi det er sￃﾥ kjekt at vi deler</comment>
								<name></name>
								<in>15192</in>
								<out>-1</out>
							</marker>
						<labels>
							<label2>Forest</label2>
						</labels>
					</clipitem>
					<clipitem id="clipitem-500" frameBlend="FALSE">
						<masterclipid>masterclip-59</masterclipid>
						<name>AA314401.MXFMulticam</name>
						<enabled>TRUE</enabled>
						<duration>18437</duration>
						<rate>
							<timebase>25</timebase>
							<ntsc>FALSE</ntsc>
						</rate>
						<start>8738</start>
						<end>8775</end>
						<in>2671</in>
						<out>2708</out>
						<sequence id="sequence-25"/>
							<marker>
								<comment>vil du ofre det i framtida?&#13;ja, hvis det er kjekt nok, er jeg villig til ￃﾥ strekke strikken</comment>
								<name></name>
								<in>18238</in>
								<out>-1</out>
							</marker>
							<marker>
								<comment>da google kjￃﾸpte NEst som har rￃﾸykvarlser og smarte termostater, hva skulle Google med et sￃﾥnt selskap?</comment>
								<name></name>
								<in>14621</in>
								<out>-1</out>
							</marker>
							<marker>
								<comment>hvor smart er klokka di?</comment>
								<name></name>
								<in>1014</in>
								<out>-1</out>
							</marker>
							<marker>
								<comment>faren er at du ikke vet hva du har sagt ja til og det er vanskelig ￃﾥ endre pￃﾥ det</comment>
								<name></name>
								<in>10791</in>
								<out>-1</out>
							</marker>
							<marker>
								<comment>ikke alt som skal opp i skya, noe mￃﾥ du beholde selv</comment>
								<name></name>
								<in>7871</in>
								<out>-1</out>
							</marker>
							<marker>
								<comment>skal vￃﾦre forsikt, kan bli misbnrukt av forsikringsbransjen eller hvem det er</comment>
								<name>data kan bli</name>
								<in>4134</in>
								<out>-1</out>
							</marker>
							<marker>
								<comment>sￃﾥ lenge du har en formening om hvor datene blir lagret, bￃﾸr det vￃﾦre greit</comment>
								<name></name>
								<in>4429</in>
								<out>-1</out>
							</marker>
							<marker>
								<comment>gir du avkall pￃﾥ personver?&#13;ikke smarthus, men pￃﾥ pc og mobil</comment>
								<name></name>
								<in>17066</in>
								<out>-1</out>
							</marker>
							<marker>
								<comment>myndigheten kan bestemme at dataene blir i Norge, eller Eu</comment>
								<name></name>
								<in>8508</in>
								<out>-1</out>
							</marker>
							<marker>
								<comment>de vil ha fysisk informasjon om hva so rￃﾸrer seg runt i livene vￃﾥre</comment>
								<name></name>
								<in>14776</in>
								<out>-1</out>
							</marker>
							<marker>
								<comment>jeg er bekymret for sporing pￃﾥ internett, men nￃﾥ blir det i det virkelige livet</comment>
								<name></name>
								<in>14122</in>
								<out>-1</out>
							</marker>
							<marker>
								<comment>leger kan ville selge data om det, hￃﾸres veldig negativt ut, men hvis det blir anoymisert...</comment>
								<name></name>
								<in>13087</in>
								<out>-1</out>
							</marker>
							<marker>
								<comment>nervￃﾸs for at dataen kan havne pￃﾥ avveie</comment>
								<name></name>
								<in>3846</in>
								<out>-1</out>
							</marker>
							<marker>
								<comment>du mￃﾥ gi fra deg litt frihet for ￃﾥ kunne fￃﾥ tilbake</comment>
								<name></name>
								<in>10309</in>
								<out>-1</out>
							</marker>
							<marker>
								<comment>skulle ￃﾸsnke at alle dataene er dine og ikke sￃﾥnn som nￃﾥ hvor vi deler alt og blir restrikvite</comment>
								<name></name>
								<in>5573</in>
								<out>-1</out>
							</marker>
							<marker>
								<comment>appene er skrekkscenario, du gir masse tilgang og du krysser av pￃﾥ ok, ok</comment>
								<name></name>
								<in>5805</in>
								<out>-1</out>
							</marker>
							<marker>
								<comment>overvￃﾥkingssamfunnet er det lover og regler for</comment>
								<name></name>
								<in>12095</in>
								<out>-1</out>
							</marker>
							<marker>
								<comment>jeg gjￃﾸr sikkert dumme valg jeg og, men det er en tradeoff</comment>
								<name></name>
								<in>6008</in>
								<out>-1</out>
							</marker>
							<marker>
								<comment>det m ￃﾥ vￃﾦre lett ￂﾨsi nￃﾥ vi ljeg ha tilbake mine data</comment>
								<name></name>
								<in>10941</in>
								<out>-1</out>
							</marker>
							<marker>
								<comment>du mￃﾥ velge de leverandￃﾸren som du stoler pￃﾥ, og du mￃﾥ stole pￃﾥ noen pￃﾥ ett eller annet tidspunkt</comment>
								<name></name>
								<in>15618</in>
								<out>-1</out>
							</marker>
							<marker>
								<comment>innen helse og velferd vil det vￃﾦre noen fallgruver&#13;</comment>
								<name></name>
								<in>12440</in>
								<out>-1</out>
							</marker>
							<marker>
								<comment>holde datene litt nￃﾦrme kroppen og ikke del med alt og alle</comment>
								<name></name>
								<in>4990</in>
								<out>-1</out>
							</marker>
							<marker>
								<comment>forsikringen kan se om dￃﾸra var lￃﾥst eller ei etter et innbrudd</comment>
								<name></name>
								<in>6963</in>
								<out>-1</out>
							</marker>
							<marker>
								<comment>ja, det virker litt sￃﾥnn</comment>
								<name>:)</name>
								<in>15327</in>
								<out>-1</out>
							</marker>
							<marker>
								<comment>fￃﾥr se om vi fￃﾥr kontroll pￃﾥ det google vet om oss, og kanskje syns vi det er sￃﾥ kjekt at vi deler</comment>
								<name></name>
								<in>15192</in>
								<out>-1</out>
							</marker>
						<labels>
							<label2>Forest</label2>
						</labels>
					</clipitem>
					<clipitem id="clipitem-501" frameBlend="FALSE">
						<masterclipid>masterclip-63</masterclipid>
						<name>AA314001.MXFMulticam</name>
						<enabled>TRUE</enabled>
						<duration>3568</duration>
						<rate>
							<timebase>25</timebase>
							<ntsc>FALSE</ntsc>
						</rate>
						<start>8775</start>
						<end>8787</end>
						<in>263</in>
						<out>275</out>
						<sequence id="sequence-29">
							<duration>150</duration>
							<rate>
								<timebase>25</timebase>
								<ntsc>FALSE</ntsc>
							</rate>
							<name>AA314001.MXFMulticam-3</name>
							<media>
								<video>
									<format>
										<samplecharacteristics>
											<rate>
												<timebase>25</timebase>
												<ntsc>FALSE</ntsc>
											</rate>
											<codec>
												<name>Apple ProRes 422</name>
												<appspecificdata>
													<appname>Final Cut Pro</appname>
													<appmanufacturer>Apple Inc.</appmanufacturer>
													<appversion>7.0</appversion>
													<data>
														<qtcodec>
															<codecname>Apple ProRes 422</codecname>
															<codectypename>Apple ProRes 422</codectypename>
															<codectypecode>apcn</codectypecode>
															<codecvendorcode>appl</codecvendorcode>
															<spatialquality>1024</spatialquality>
															<temporalquality>0</temporalquality>
															<keyframerate>0</keyframerate>
															<datarate>0</datarate>
														</qtcodec>
													</data>
												</appspecificdata>
											</codec>
											<width>1920</width>
											<height>1080</height>
											<anamorphic>FALSE</anamorphic>
											<pixelaspectratio>square</pixelaspectratio>
											<fielddominance>upper</fielddominance>
											<colordepth>24</colordepth>
										</samplecharacteristics>
									</format>
									<track>
										<clipitem id="clipitem-507" frameBlend="FALSE">
											<masterclipid>masterclip-65</masterclipid>
											<name>MVI_9559.MOV</name>
											<enabled>TRUE</enabled>
											<duration>3568</duration>
											<rate>
												<timebase>25</timebase>
												<ntsc>FALSE</ntsc>
											</rate>
											<start>0</start>
											<end>3568</end>
											<in>0</in>
											<out>3568</out>
											<alphatype>black</alphatype>
											<pixelaspectratio>square</pixelaspectratio>
											<anamorphic>FALSE</anamorphic>
											<file id="file-58">
												<name>MVI_9559.MOV</name>
												<pathurl>file://localhost/Volumes/Brakka/AdobeLager/Katta/Katta-14xxxx-Smart_eller_overvaaket-Chris/02-Video/Smartly%205D/DCIM/100EOS5D/MVI_9559.MOV</pathurl>
												<rate>
													<timebase>25</timebase>
													<ntsc>FALSE</ntsc>
												</rate>
												<duration>3568</duration>
												<timecode>
													<rate>
														<timebase>25</timebase>
														<ntsc>FALSE</ntsc>
													</rate>
													<string>00:00:00:00</string>
													<frame>0</frame>
													<displayformat>NDF</displayformat>
													<reel>
														<name></name>
													</reel>
												</timecode>
												<media>
													<video>
														<duration>18000</duration>
														<samplecharacteristics>
															<rate>
																<timebase>25</timebase>
																<ntsc>FALSE</ntsc>
															</rate>
															<width>1920</width>
															<height>1080</height>
															<anamorphic>FALSE</anamorphic>
															<pixelaspectratio>square</pixelaspectratio>
															<fielddominance>none</fielddominance>
														</samplecharacteristics>
													</video>
													<audio>
														<samplecharacteristics>
															<depth>16</depth>
															<samplerate>48000</samplerate>
														</samplecharacteristics>
														<channelcount>1</channelcount>
														<layout>mono</layout>
														<audiochannel>
															<sourcechannel>1</sourcechannel>
															<channellabel>discrete</channellabel>
														</audiochannel>
													</audio>
													<audio>
														<samplecharacteristics>
															<depth>16</depth>
															<samplerate>48000</samplerate>
														</samplecharacteristics>
														<channelcount>1</channelcount>
														<layout>mono</layout>
														<audiochannel>
															<sourcechannel>2</sourcechannel>
															<channellabel>discrete</channellabel>
														</audiochannel>
													</audio>
												</media>
											</file>
											<logginginfo>
												<description></description>
												<scene></scene>
												<shottake></shottake>
												<lognote></lognote>
											</logginginfo>
											<labels>
												<label2>Iris</label2>
											</labels>
										</clipitem>
										<enabled>TRUE</enabled>
										<locked>FALSE</locked>
									</track>
								</video>
								<audio>
									<format>
										<samplecharacteristics>
											<depth>16</depth>
											<samplerate>48000</samplerate>
										</samplecharacteristics>
									</format>
									<outputs>
										<group>
											<index>1</index>
											<numchannels>1</numchannels>
											<downmix>0</downmix>
											<channel>
												<index>1</index>
											</channel>
										</group>
										<group>
											<index>2</index>
											<numchannels>1</numchannels>
											<downmix>0</downmix>
											<channel>
												<index>2</index>
											</channel>
										</group>
										<group>
											<index>3</index>
											<numchannels>1</numchannels>
											<downmix>0</downmix>
											<channel>
												<index>3</index>
											</channel>
										</group>
										<group>
											<index>4</index>
											<numchannels>1</numchannels>
											<downmix>0</downmix>
											<channel>
												<index>4</index>
											</channel>
										</group>
										<group>
											<index>5</index>
											<numchannels>1</numchannels>
											<downmix>0</downmix>
											<channel>
												<index>5</index>
											</channel>
										</group>
										<group>
											<index>6</index>
											<numchannels>1</numchannels>
											<downmix>0</downmix>
											<channel>
												<index>6</index>
											</channel>
										</group>
									</outputs>
									<track TL.SQTrackExpandedHeight="25" TL.SQTrackExpanded="0" MZ.TrackTargeted="1" PannerCurrentValue="0" PannerIsInverted="true" PannerStartKeyframe="-91445760000000000,0.,0,0,0,0,0,0" PannerName="Balance" currentExplodedTrackIndex="0" totalExplodedTrackCount="1" premiereTrackType="Stereo">
										<clipitem id="clipitem-506" frameBlend="FALSE" PannerCurrentValue="0.5" PannerKeyframes="" PannerStartKeyframe="-91445760000000000,0.5,0,0,0,0,0,0" PannerIsInverted="true" PannerName="Pan">
											<masterclipid>masterclip-56</masterclipid>
											<name>AA315601.MXF</name>
											<enabled>TRUE</enabled>
											<duration>420</duration>
											<rate>
												<timebase>25</timebase>
												<ntsc>FALSE</ntsc>
											</rate>
											<start>2223</start>
											<end>2643</end>
											<in>0</in>
											<out>420</out>
											<file id="file-51"/>
											<sourcetrack>
												<mediatype>audio</mediatype>
												<trackindex>1</trackindex>
											</sourcetrack>
												<filter>
													<effect>
														<name>Audio Pan</name>
														<effectid>audiopan</effectid>
														<effectcategory>audiopan</effectcategory>
														<effecttype>audiopan</effecttype>
														<mediatype>audio</mediatype>
														<parameter authoringApp="PremierePro">
															<parameterid>pan</parameterid>
															<name>Pan</name>
															<valuemin>-1</valuemin>
															<valuemax>1</valuemax>
															<value>0</value>
														</parameter>
													</effect>
												</filter>
											<logginginfo>
												<description></description>
												<scene></scene>
												<shottake>AA3156</shottake>
												<lognote></lognote>
											</logginginfo>
											<labels>
												<label2>Iris</label2>
											</labels>
										</clipitem>
										<enabled>TRUE</enabled>
										<locked>FALSE</locked>
										<outputchannelindex>3</outputchannelindex>
									</track>
								</audio>
							</media>
							<timecode>
								<rate>
									<timebase>25</timebase>
									<ntsc>FALSE</ntsc>
								</rate>
								<string>00:00:00:00</string>
								<frame>0</frame>
								<displayformat>NDF</displayformat>
							</timecode>
						</sequence>
							<marker>
								<comment>neste ￃﾥr vil huset skjￃﾸnne hva jeg vil og jeg kan snakke med det, ting skjer fort nￃﾥ</comment>
								<name></name>
								<in>1242</in>
								<out>-1</out>
							</marker>
							<marker>
								<comment>redd for at uvedkommende skal fￃﾥ tillgang til data og sￃﾦrlig hvis de forstￃﾥr hva jeg tenker</comment>
								<name></name>
								<in>2204</in>
								<out>-1</out>
							</marker>
						<link>
							<linkclipref>clipitem-501</linkclipref>
							<mediatype>video</mediatype>
							<trackindex>1</trackindex>
							<clipindex>80</clipindex>
						</link>
						<link>
							<linkclipref>clipitem-1507</linkclipref>
							<mediatype>audio</mediatype>
							<trackindex>5</trackindex>
							<clipindex>16</clipindex>
						</link>
						<link>
							<linkclipref>clipitem-1600</linkclipref>
							<mediatype>audio</mediatype>
							<trackindex>7</trackindex>
							<clipindex>16</clipindex>
						</link>
						<labels>
							<label2>Forest</label2>
						</labels>
					</clipitem>
					<clipitem id="clipitem-509" frameBlend="FALSE">
						<masterclipid>masterclip-63</masterclipid>
						<name>AA314001.MXFMulticam</name>
						<enabled>TRUE</enabled>
						<duration>3568</duration>
						<rate>
							<timebase>25</timebase>
							<ntsc>FALSE</ntsc>
						</rate>
						<start>8787</start>
						<end>8820</end>
						<in>275</in>
						<out>308</out>
						<sequence id="sequence-27">
							<duration>150</duration>
							<rate>
								<timebase>25</timebase>
								<ntsc>FALSE</ntsc>
							</rate>
							<name>AA314001.MXFMulticam-1</name>
							<media>
								<video>
									<format>
										<samplecharacteristics>
											<rate>
												<timebase>25</timebase>
												<ntsc>FALSE</ntsc>
											</rate>
											<codec>
												<name>Apple ProRes 422</name>
												<appspecificdata>
													<appname>Final Cut Pro</appname>
													<appmanufacturer>Apple Inc.</appmanufacturer>
													<appversion>7.0</appversion>
													<data>
														<qtcodec>
															<codecname>Apple ProRes 422</codecname>
															<codectypename>Apple ProRes 422</codectypename>
															<codectypecode>apcn</codectypecode>
															<codecvendorcode>appl</codecvendorcode>
															<spatialquality>1024</spatialquality>
															<temporalquality>0</temporalquality>
															<keyframerate>0</keyframerate>
															<datarate>0</datarate>
														</qtcodec>
													</data>
												</appspecificdata>
											</codec>
											<width>1920</width>
											<height>1080</height>
											<anamorphic>FALSE</anamorphic>
											<pixelaspectratio>square</pixelaspectratio>
											<fielddominance>upper</fielddominance>
											<colordepth>24</colordepth>
										</samplecharacteristics>
									</format>
									<track>
										<clipitem id="clipitem-503" frameBlend="FALSE">
											<masterclipid>masterclip-64</masterclipid>
											<name>AA314001.MXF</name>
											<enabled>TRUE</enabled>
											<duration>3300</duration>
											<rate>
												<timebase>25</timebase>
												<ntsc>FALSE</ntsc>
											</rate>
											<start>9</start>
											<end>3309</end>
											<in>0</in>
											<out>3300</out>
											<alphatype>none</alphatype>
											<file id="file-57"/>
											<logginginfo>
												<description></description>
												<scene></scene>
												<shottake>AA3140</shottake>
												<lognote></lognote>
											</logginginfo>
											<labels>
												<label2>Iris</label2>
											</labels>
										</clipitem>
										<enabled>TRUE</enabled>
										<locked>FALSE</locked>
									</track>
								</video>
								<audio>
									<format>
										<samplecharacteristics>
											<depth>16</depth>
											<samplerate>48000</samplerate>
										</samplecharacteristics>
									</format>
									<outputs>
										<group>
											<index>1</index>
											<numchannels>1</numchannels>
											<downmix>0</downmix>
											<channel>
												<index>1</index>
											</channel>
										</group>
										<group>
											<index>2</index>
											<numchannels>1</numchannels>
											<downmix>0</downmix>
											<channel>
												<index>2</index>
											</channel>
										</group>
										<group>
											<index>3</index>
											<numchannels>1</numchannels>
											<downmix>0</downmix>
											<channel>
												<index>3</index>
											</channel>
										</group>
										<group>
											<index>4</index>
											<numchannels>1</numchannels>
											<downmix>0</downmix>
											<channel>
												<index>4</index>
											</channel>
										</group>
										<group>
											<index>5</index>
											<numchannels>1</numchannels>
											<downmix>0</downmix>
											<channel>
												<index>5</index>
											</channel>
										</group>
										<group>
											<index>6</index>
											<numchannels>1</numchannels>
											<downmix>0</downmix>
											<channel>
												<index>6</index>
											</channel>
										</group>
									</outputs>
									<track TL.SQTrackExpandedHeight="25" TL.SQTrackExpanded="0" MZ.TrackTargeted="1" PannerCurrentValue="0" PannerIsInverted="true" PannerStartKeyframe="-91445760000000000,0.,0,0,0,0,0,0" PannerName="Balance" currentExplodedTrackIndex="0" totalExplodedTrackCount="1" premiereTrackType="Stereo">
										<clipitem id="clipitem-502" frameBlend="FALSE" PannerCurrentValue="0.5" PannerKeyframes="" PannerStartKeyframe="-91445760000000000,0.5,0,0,0,0,0,0" PannerIsInverted="true" PannerName="Pan">
											<masterclipid>masterclip-64</masterclipid>
											<name>AA314001.MXF</name>
											<enabled>TRUE</enabled>
											<duration>3300</duration>
											<rate>
												<timebase>25</timebase>
												<ntsc>FALSE</ntsc>
											</rate>
											<start>9</start>
											<end>3309</end>
											<in>0</in>
											<out>3300</out>
											<pixelaspectratio>square</pixelaspectratio>
											<anamorphic>FALSE</anamorphic>
											<file id="file-57">
												<name>AA314001.MXF</name>
												<pathurl>file://localhost/Volumes/Brakka/AdobeLager/Katta/Katta-14xxxx-Smart_eller_overvaaket-Chris/02-Video/Smartly300%201/CONTENTS/CLIPS001/AA3140/AA314001.MXF</pathurl>
												<rate>
													<timebase>25</timebase>
													<ntsc>FALSE</ntsc>
												</rate>
												<duration>3300</duration>
												<timecode>
													<rate>
														<timebase>25</timebase>
														<ntsc>FALSE</ntsc>
													</rate>
													<string>05:06:23:02</string>
													<frame>459577</frame>
													<displayformat>NDF</displayformat>
													<reel>
														<name></name>
													</reel>
												</timecode>
												<media>
													<video>
														<duration>18000</duration>
														<samplecharacteristics>
															<rate>
																<timebase>25</timebase>
																<ntsc>FALSE</ntsc>
															</rate>
															<width>1920</width>
															<height>1080</height>
															<anamorphic>FALSE</anamorphic>
															<pixelaspectratio>square</pixelaspectratio>
															<fielddominance>upper</fielddominance>
														</samplecharacteristics>
													</video>
													<audio>
														<samplecharacteristics>
															<depth>16</depth>
															<samplerate>48000</samplerate>
														</samplecharacteristics>
														<channelcount>1</channelcount>
														<layout>mono</layout>
														<audiochannel>
															<sourcechannel>1</sourcechannel>
															<channellabel>discrete</channellabel>
														</audiochannel>
													</audio>
													<audio>
														<samplecharacteristics>
															<depth>16</depth>
															<samplerate>48000</samplerate>
														</samplecharacteristics>
														<channelcount>1</channelcount>
														<layout>mono</layout>
														<audiochannel>
															<sourcechannel>2</sourcechannel>
															<channellabel>discrete</channellabel>
														</audiochannel>
													</audio>
												</media>
											</file>
											<sourcetrack>
												<mediatype>audio</mediatype>
												<trackindex>1</trackindex>
											</sourcetrack>
												<filter>
													<effect>
														<name>Audio Pan</name>
														<effectid>audiopan</effectid>
														<effectcategory>audiopan</effectcategory>
														<effecttype>audiopan</effecttype>
														<mediatype>audio</mediatype>
														<parameter authoringApp="PremierePro">
															<parameterid>pan</parameterid>
															<name>Pan</name>
															<valuemin>-1</valuemin>
															<valuemax>1</valuemax>
															<value>0</value>
														</parameter>
													</effect>
												</filter>
											<logginginfo>
												<description></description>
												<scene></scene>
												<shottake>AA3140</shottake>
												<lognote></lognote>
											</logginginfo>
											<labels>
												<label2>Iris</label2>
											</labels>
										</clipitem>
										<enabled>TRUE</enabled>
										<locked>FALSE</locked>
										<outputchannelindex>1</outputchannelindex>
									</track>
								</audio>
							</media>
							<timecode>
								<rate>
									<timebase>25</timebase>
									<ntsc>FALSE</ntsc>
								</rate>
								<string>00:00:00:00</string>
								<frame>0</frame>
								<displayformat>NDF</displayformat>
							</timecode>
						</sequence>
							<marker>
								<comment>neste ￃﾥr vil huset skjￃﾸnne hva jeg vil og jeg kan snakke med det, ting skjer fort nￃﾥ</comment>
								<name></name>
								<in>1242</in>
								<out>-1</out>
							</marker>
							<marker>
								<comment>redd for at uvedkommende skal fￃﾥ tillgang til data og sￃﾦrlig hvis de forstￃﾥr hva jeg tenker</comment>
								<name></name>
								<in>2204</in>
								<out>-1</out>
							</marker>
						<labels>
							<label2>Forest</label2>
						</labels>
					</clipitem>
					<clipitem id="clipitem-510" frameBlend="FALSE">
						<masterclipid>masterclip-66</masterclipid>
						<name>MVI_9557.MOV</name>
						<enabled>TRUE</enabled>
						<duration>2542</duration>
						<rate>
							<timebase>25</timebase>
							<ntsc>FALSE</ntsc>
						</rate>
						<start>8820</start>
						<end>9055</end>
						<in>147</in>
						<out>382</out>
						<alphatype>black</alphatype>
						<pixelaspectratio>square</pixelaspectratio>
						<anamorphic>FALSE</anamorphic>
						<file id="file-59">
							<name>MVI_9557.MOV</name>
							<pathurl>file://localhost/Volumes/Brakka/AdobeLager/Katta/Katta-14xxxx-Smart_eller_overvaaket-Chris/02-Video/Smartly%205D/DCIM/100EOS5D/MVI_9557.MOV</pathurl>
							<rate>
								<timebase>25</timebase>
								<ntsc>FALSE</ntsc>
							</rate>
							<duration>2542</duration>
							<timecode>
								<rate>
									<timebase>25</timebase>
									<ntsc>FALSE</ntsc>
								</rate>
								<string>00:00:00:00</string>
								<frame>0</frame>
								<displayformat>NDF</displayformat>
								<reel>
									<name></name>
								</reel>
							</timecode>
							<media>
								<video>
									<duration>18000</duration>
									<samplecharacteristics>
										<rate>
											<timebase>25</timebase>
											<ntsc>FALSE</ntsc>
										</rate>
										<width>1920</width>
										<height>1080</height>
										<anamorphic>FALSE</anamorphic>
										<pixelaspectratio>square</pixelaspectratio>
										<fielddominance>none</fielddominance>
									</samplecharacteristics>
								</video>
								<audio>
									<samplecharacteristics>
										<depth>16</depth>
										<samplerate>48000</samplerate>
									</samplecharacteristics>
									<channelcount>1</channelcount>
									<layout>mono</layout>
									<audiochannel>
										<sourcechannel>1</sourcechannel>
										<channellabel>discrete</channellabel>
									</audiochannel>
								</audio>
								<audio>
									<samplecharacteristics>
										<depth>16</depth>
										<samplerate>48000</samplerate>
									</samplecharacteristics>
									<channelcount>1</channelcount>
									<layout>mono</layout>
									<audiochannel>
										<sourcechannel>2</sourcechannel>
										<channellabel>discrete</channellabel>
									</audiochannel>
								</audio>
							</media>
						</file>
						<link>
							<linkclipref>clipitem-510</linkclipref>
							<mediatype>video</mediatype>
							<trackindex>1</trackindex>
							<clipindex>82</clipindex>
						</link>
						<link>
							<linkclipref>clipitem-1057</linkclipref>
							<mediatype>audio</mediatype>
							<trackindex>1</trackindex>
							<clipindex>48</clipindex>
						</link>
						<link>
							<linkclipref>clipitem-1399</linkclipref>
							<mediatype>audio</mediatype>
							<trackindex>3</trackindex>
							<clipindex>43</clipindex>
						</link>
						<logginginfo>
							<description></description>
							<scene></scene>
							<shottake></shottake>
							<lognote></lognote>
						</logginginfo>
						<labels>
							<label2>Iris</label2>
						</labels>
					</clipitem>
					<clipitem id="clipitem-511" frameBlend="FALSE">
						<masterclipid>masterclip-59</masterclipid>
						<name>AA314401.MXFMulticam</name>
						<enabled>TRUE</enabled>
						<duration>18437</duration>
						<rate>
							<timebase>25</timebase>
							<ntsc>FALSE</ntsc>
						</rate>
						<start>9055</start>
						<end>9247</end>
						<in>6008</in>
						<out>6200</out>
						<sequence id="sequence-25"/>
							<marker>
								<comment>vil du ofre det i framtida?&#13;ja, hvis det er kjekt nok, er jeg villig til ￃﾥ strekke strikken</comment>
								<name></name>
								<in>18238</in>
								<out>-1</out>
							</marker>
							<marker>
								<comment>da google kjￃﾸpte NEst som har rￃﾸykvarlser og smarte termostater, hva skulle Google med et sￃﾥnt selskap?</comment>
								<name></name>
								<in>14621</in>
								<out>-1</out>
							</marker>
							<marker>
								<comment>hvor smart er klokka di?</comment>
								<name></name>
								<in>1014</in>
								<out>-1</out>
							</marker>
							<marker>
								<comment>faren er at du ikke vet hva du har sagt ja til og det er vanskelig ￃﾥ endre pￃﾥ det</comment>
								<name></name>
								<in>10791</in>
								<out>-1</out>
							</marker>
							<marker>
								<comment>ikke alt som skal opp i skya, noe mￃﾥ du beholde selv</comment>
								<name></name>
								<in>7871</in>
								<out>-1</out>
							</marker>
							<marker>
								<comment>skal vￃﾦre forsikt, kan bli misbnrukt av forsikringsbransjen eller hvem det er</comment>
								<name>data kan bli</name>
								<in>4134</in>
								<out>-1</out>
							</marker>
							<marker>
								<comment>sￃﾥ lenge du har en formening om hvor datene blir lagret, bￃﾸr det vￃﾦre greit</comment>
								<name></name>
								<in>4429</in>
								<out>-1</out>
							</marker>
							<marker>
								<comment>gir du avkall pￃﾥ personver?&#13;ikke smarthus, men pￃﾥ pc og mobil</comment>
								<name></name>
								<in>17066</in>
								<out>-1</out>
							</marker>
							<marker>
								<comment>myndigheten kan bestemme at dataene blir i Norge, eller Eu</comment>
								<name></name>
								<in>8508</in>
								<out>-1</out>
							</marker>
							<marker>
								<comment>de vil ha fysisk informasjon om hva so rￃﾸrer seg runt i livene vￃﾥre</comment>
								<name></name>
								<in>14776</in>
								<out>-1</out>
							</marker>
							<marker>
								<comment>jeg er bekymret for sporing pￃﾥ internett, men nￃﾥ blir det i det virkelige livet</comment>
								<name></name>
								<in>14122</in>
								<out>-1</out>
							</marker>
							<marker>
								<comment>leger kan ville selge data om det, hￃﾸres veldig negativt ut, men hvis det blir anoymisert...</comment>
								<name></name>
								<in>13087</in>
								<out>-1</out>
							</marker>
							<marker>
								<comment>nervￃﾸs for at dataen kan havne pￃﾥ avveie</comment>
								<name></name>
								<in>3846</in>
								<out>-1</out>
							</marker>
							<marker>
								<comment>du mￃﾥ gi fra deg litt frihet for ￃﾥ kunne fￃﾥ tilbake</comment>
								<name></name>
								<in>10309</in>
								<out>-1</out>
							</marker>
							<marker>
								<comment>skulle ￃﾸsnke at alle dataene er dine og ikke sￃﾥnn som nￃﾥ hvor vi deler alt og blir restrikvite</comment>
								<name></name>
								<in>5573</in>
								<out>-1</out>
							</marker>
							<marker>
								<comment>appene er skrekkscenario, du gir masse tilgang og du krysser av pￃﾥ ok, ok</comment>
								<name></name>
								<in>5805</in>
								<out>-1</out>
							</marker>
							<marker>
								<comment>overvￃﾥkingssamfunnet er det lover og regler for</comment>
								<name></name>
								<in>12095</in>
								<out>-1</out>
							</marker>
							<marker>
								<comment>jeg gjￃﾸr sikkert dumme valg jeg og, men det er en tradeoff</comment>
								<name></name>
								<in>6008</in>
								<out>-1</out>
							</marker>
							<marker>
								<comment>det m ￃﾥ vￃﾦre lett ￂﾨsi nￃﾥ vi ljeg ha tilbake mine data</comment>
								<name></name>
								<in>10941</in>
								<out>-1</out>
							</marker>
							<marker>
								<comment>du mￃﾥ velge de leverandￃﾸren som du stoler pￃﾥ, og du mￃﾥ stole pￃﾥ noen pￃﾥ ett eller annet tidspunkt</comment>
								<name></name>
								<in>15618</in>
								<out>-1</out>
							</marker>
							<marker>
								<comment>innen helse og velferd vil det vￃﾦre noen fallgruver&#13;</comment>
								<name></name>
								<in>12440</in>
								<out>-1</out>
							</marker>
							<marker>
								<comment>holde datene litt nￃﾦrme kroppen og ikke del med alt og alle</comment>
								<name></name>
								<in>4990</in>
								<out>-1</out>
							</marker>
							<marker>
								<comment>forsikringen kan se om dￃﾸra var lￃﾥst eller ei etter et innbrudd</comment>
								<name></name>
								<in>6963</in>
								<out>-1</out>
							</marker>
							<marker>
								<comment>ja, det virker litt sￃﾥnn</comment>
								<name>:)</name>
								<in>15327</in>
								<out>-1</out>
							</marker>
							<marker>
								<comment>fￃﾥr se om vi fￃﾥr kontroll pￃﾥ det google vet om oss, og kanskje syns vi det er sￃﾥ kjekt at vi deler</comment>
								<name></name>
								<in>15192</in>
								<out>-1</out>
							</marker>
						<labels>
							<label2>Forest</label2>
						</labels>
					</clipitem>
					<clipitem id="clipitem-512" frameBlend="FALSE">
						<masterclipid>masterclip-59</masterclipid>
						<name>AA314401.MXFMulticam</name>
						<enabled>TRUE</enabled>
						<duration>18437</duration>
						<rate>
							<timebase>25</timebase>
							<ntsc>FALSE</ntsc>
						</rate>
						<start>9247</start>
						<end>9370</end>
						<in>6200</in>
						<out>6323</out>
						<sequence id="sequence-23"/>
							<marker>
								<comment>vil du ofre det i framtida?&#13;ja, hvis det er kjekt nok, er jeg villig til ￃﾥ strekke strikken</comment>
								<name></name>
								<in>18238</in>
								<out>-1</out>
							</marker>
							<marker>
								<comment>da google kjￃﾸpte NEst som har rￃﾸykvarlser og smarte termostater, hva skulle Google med et sￃﾥnt selskap?</comment>
								<name></name>
								<in>14621</in>
								<out>-1</out>
							</marker>
							<marker>
								<comment>hvor smart er klokka di?</comment>
								<name></name>
								<in>1014</in>
								<out>-1</out>
							</marker>
							<marker>
								<comment>faren er at du ikke vet hva du har sagt ja til og det er vanskelig ￃﾥ endre pￃﾥ det</comment>
								<name></name>
								<in>10791</in>
								<out>-1</out>
							</marker>
							<marker>
								<comment>ikke alt som skal opp i skya, noe mￃﾥ du beholde selv</comment>
								<name></name>
								<in>7871</in>
								<out>-1</out>
							</marker>
							<marker>
								<comment>skal vￃﾦre forsikt, kan bli misbnrukt av forsikringsbransjen eller hvem det er</comment>
								<name>data kan bli</name>
								<in>4134</in>
								<out>-1</out>
							</marker>
							<marker>
								<comment>sￃﾥ lenge du har en formening om hvor datene blir lagret, bￃﾸr det vￃﾦre greit</comment>
								<name></name>
								<in>4429</in>
								<out>-1</out>
							</marker>
							<marker>
								<comment>gir du avkall pￃﾥ personver?&#13;ikke smarthus, men pￃﾥ pc og mobil</comment>
								<name></name>
								<in>17066</in>
								<out>-1</out>
							</marker>
							<marker>
								<comment>myndigheten kan bestemme at dataene blir i Norge, eller Eu</comment>
								<name></name>
								<in>8508</in>
								<out>-1</out>
							</marker>
							<marker>
								<comment>de vil ha fysisk informasjon om hva so rￃﾸrer seg runt i livene vￃﾥre</comment>
								<name></name>
								<in>14776</in>
								<out>-1</out>
							</marker>
							<marker>
								<comment>jeg er bekymret for sporing pￃﾥ internett, men nￃﾥ blir det i det virkelige livet</comment>
								<name></name>
								<in>14122</in>
								<out>-1</out>
							</marker>
							<marker>
								<comment>leger kan ville selge data om det, hￃﾸres veldig negativt ut, men hvis det blir anoymisert...</comment>
								<name></name>
								<in>13087</in>
								<out>-1</out>
							</marker>
							<marker>
								<comment>nervￃﾸs for at dataen kan havne pￃﾥ avveie</comment>
								<name></name>
								<in>3846</in>
								<out>-1</out>
							</marker>
							<marker>
								<comment>du mￃﾥ gi fra deg litt frihet for ￃﾥ kunne fￃﾥ tilbake</comment>
								<name></name>
								<in>10309</in>
								<out>-1</out>
							</marker>
							<marker>
								<comment>skulle ￃﾸsnke at alle dataene er dine og ikke sￃﾥnn som nￃﾥ hvor vi deler alt og blir restrikvite</comment>
								<name></name>
								<in>5573</in>
								<out>-1</out>
							</marker>
							<marker>
								<comment>appene er skrekkscenario, du gir masse tilgang og du krysser av pￃﾥ ok, ok</comment>
								<name></name>
								<in>5805</in>
								<out>-1</out>
							</marker>
							<marker>
								<comment>overvￃﾥkingssamfunnet er det lover og regler for</comment>
								<name></name>
								<in>12095</in>
								<out>-1</out>
							</marker>
							<marker>
								<comment>jeg gjￃﾸr sikkert dumme valg jeg og, men det er en tradeoff</comment>
								<name></name>
								<in>6008</in>
								<out>-1</out>
							</marker>
							<marker>
								<comment>det m ￃﾥ vￃﾦre lett ￂﾨsi nￃﾥ vi ljeg ha tilbake mine data</comment>
								<name></name>
								<in>10941</in>
								<out>-1</out>
							</marker>
							<marker>
								<comment>du mￃﾥ velge de leverandￃﾸren som du stoler pￃﾥ, og du mￃﾥ stole pￃﾥ noen pￃﾥ ett eller annet tidspunkt</comment>
								<name></name>
								<in>15618</in>
								<out>-1</out>
							</marker>
							<marker>
								<comment>innen helse og velferd vil det vￃﾦre noen fallgruver&#13;</comment>
								<name></name>
								<in>12440</in>
								<out>-1</out>
							</marker>
							<marker>
								<comment>holde datene litt nￃﾦrme kroppen og ikke del med alt og alle</comment>
								<name></name>
								<in>4990</in>
								<out>-1</out>
							</marker>
							<marker>
								<comment>forsikringen kan se om dￃﾸra var lￃﾥst eller ei etter et innbrudd</comment>
								<name></name>
								<in>6963</in>
								<out>-1</out>
							</marker>
							<marker>
								<comment>ja, det virker litt sￃﾥnn</comment>
								<name>:)</name>
								<in>15327</in>
								<out>-1</out>
							</marker>
							<marker>
								<comment>fￃﾥr se om vi fￃﾥr kontroll pￃﾥ det google vet om oss, og kanskje syns vi det er sￃﾥ kjekt at vi deler</comment>
								<name></name>
								<in>15192</in>
								<out>-1</out>
							</marker>
						<labels>
							<label2>Forest</label2>
						</labels>
					</clipitem>
					<clipitem id="clipitem-513" frameBlend="FALSE">
						<masterclipid>masterclip-59</masterclipid>
						<name>AA314401.MXFMulticam</name>
						<enabled>TRUE</enabled>
						<duration>18437</duration>
						<rate>
							<timebase>25</timebase>
							<ntsc>FALSE</ntsc>
						</rate>
						<start>9370</start>
						<end>9456</end>
						<in>6659</in>
						<out>6745</out>
						<sequence id="sequence-25"/>
							<marker>
								<comment>vil du ofre det i framtida?&#13;ja, hvis det er kjekt nok, er jeg villig til ￃﾥ strekke strikken</comment>
								<name></name>
								<in>18238</in>
								<out>-1</out>
							</marker>
							<marker>
								<comment>da google kjￃﾸpte NEst som har rￃﾸykvarlser og smarte termostater, hva skulle Google med et sￃﾥnt selskap?</comment>
								<name></name>
								<in>14621</in>
								<out>-1</out>
							</marker>
							<marker>
								<comment>hvor smart er klokka di?</comment>
								<name></name>
								<in>1014</in>
								<out>-1</out>
							</marker>
							<marker>
								<comment>faren er at du ikke vet hva du har sagt ja til og det er vanskelig ￃﾥ endre pￃﾥ det</comment>
								<name></name>
								<in>10791</in>
								<out>-1</out>
							</marker>
							<marker>
								<comment>ikke alt som skal opp i skya, noe mￃﾥ du beholde selv</comment>
								<name></name>
								<in>7871</in>
								<out>-1</out>
							</marker>
							<marker>
								<comment>skal vￃﾦre forsikt, kan bli misbnrukt av forsikringsbransjen eller hvem det er</comment>
								<name>data kan bli</name>
								<in>4134</in>
								<out>-1</out>
							</marker>
							<marker>
								<comment>sￃﾥ lenge du har en formening om hvor datene blir lagret, bￃﾸr det vￃﾦre greit</comment>
								<name></name>
								<in>4429</in>
								<out>-1</out>
							</marker>
							<marker>
								<comment>gir du avkall pￃﾥ personver?&#13;ikke smarthus, men pￃﾥ pc og mobil</comment>
								<name></name>
								<in>17066</in>
								<out>-1</out>
							</marker>
							<marker>
								<comment>myndigheten kan bestemme at dataene blir i Norge, eller Eu</comment>
								<name></name>
								<in>8508</in>
								<out>-1</out>
							</marker>
							<marker>
								<comment>de vil ha fysisk informasjon om hva so rￃﾸrer seg runt i livene vￃﾥre</comment>
								<name></name>
								<in>14776</in>
								<out>-1</out>
							</marker>
							<marker>
								<comment>jeg er bekymret for sporing pￃﾥ internett, men nￃﾥ blir det i det virkelige livet</comment>
								<name></name>
								<in>14122</in>
								<out>-1</out>
							</marker>
							<marker>
								<comment>leger kan ville selge data om det, hￃﾸres veldig negativt ut, men hvis det blir anoymisert...</comment>
								<name></name>
								<in>13087</in>
								<out>-1</out>
							</marker>
							<marker>
								<comment>nervￃﾸs for at dataen kan havne pￃﾥ avveie</comment>
								<name></name>
								<in>3846</in>
								<out>-1</out>
							</marker>
							<marker>
								<comment>du mￃﾥ gi fra deg litt frihet for ￃﾥ kunne fￃﾥ tilbake</comment>
								<name></name>
								<in>10309</in>
								<out>-1</out>
							</marker>
							<marker>
								<comment>skulle ￃﾸsnke at alle dataene er dine og ikke sￃﾥnn som nￃﾥ hvor vi deler alt og blir restrikvite</comment>
								<name></name>
								<in>5573</in>
								<out>-1</out>
							</marker>
							<marker>
								<comment>appene er skrekkscenario, du gir masse tilgang og du krysser av pￃﾥ ok, ok</comment>
								<name></name>
								<in>5805</in>
								<out>-1</out>
							</marker>
							<marker>
								<comment>overvￃﾥkingssamfunnet er det lover og regler for</comment>
								<name></name>
								<in>12095</in>
								<out>-1</out>
							</marker>
							<marker>
								<comment>jeg gjￃﾸr sikkert dumme valg jeg og, men det er en tradeoff</comment>
								<name></name>
								<in>6008</in>
								<out>-1</out>
							</marker>
							<marker>
								<comment>det m ￃﾥ vￃﾦre lett ￂﾨsi nￃﾥ vi ljeg ha tilbake mine data</comment>
								<name></name>
								<in>10941</in>
								<out>-1</out>
							</marker>
							<marker>
								<comment>du mￃﾥ velge de leverandￃﾸren som du stoler pￃﾥ, og du mￃﾥ stole pￃﾥ noen pￃﾥ ett eller annet tidspunkt</comment>
								<name></name>
								<in>15618</in>
								<out>-1</out>
							</marker>
							<marker>
								<comment>innen helse og velferd vil det vￃﾦre noen fallgruver&#13;</comment>
								<name></name>
								<in>12440</in>
								<out>-1</out>
							</marker>
							<marker>
								<comment>holde datene litt nￃﾦrme kroppen og ikke del med alt og alle</comment>
								<name></name>
								<in>4990</in>
								<out>-1</out>
							</marker>
							<marker>
								<comment>forsikringen kan se om dￃﾸra var lￃﾥst eller ei etter et innbrudd</comment>
								<name></name>
								<in>6963</in>
								<out>-1</out>
							</marker>
							<marker>
								<comment>ja, det virker litt sￃﾥnn</comment>
								<name>:)</name>
								<in>15327</in>
								<out>-1</out>
							</marker>
							<marker>
								<comment>fￃﾥr se om vi fￃﾥr kontroll pￃﾥ det google vet om oss, og kanskje syns vi det er sￃﾥ kjekt at vi deler</comment>
								<name></name>
								<in>15192</in>
								<out>-1</out>
							</marker>
						<labels>
							<label2>Forest</label2>
						</labels>
					</clipitem>
					<clipitem id="clipitem-514" frameBlend="FALSE">
						<masterclipid>masterclip-59</masterclipid>
						<name>AA314401.MXFMulticam</name>
						<enabled>TRUE</enabled>
						<duration>18437</duration>
						<rate>
							<timebase>25</timebase>
							<ntsc>FALSE</ntsc>
						</rate>
						<start>9456</start>
						<end>10270</end>
						<in>6699</in>
						<out>7513</out>
						<sequence id="sequence-23"/>
							<marker>
								<comment>vil du ofre det i framtida?&#13;ja, hvis det er kjekt nok, er jeg villig til ￃﾥ strekke strikken</comment>
								<name></name>
								<in>18238</in>
								<out>-1</out>
							</marker>
							<marker>
								<comment>da google kjￃﾸpte NEst som har rￃﾸykvarlser og smarte termostater, hva skulle Google med et sￃﾥnt selskap?</comment>
								<name></name>
								<in>14621</in>
								<out>-1</out>
							</marker>
							<marker>
								<comment>hvor smart er klokka di?</comment>
								<name></name>
								<in>1014</in>
								<out>-1</out>
							</marker>
							<marker>
								<comment>faren er at du ikke vet hva du har sagt ja til og det er vanskelig ￃﾥ endre pￃﾥ det</comment>
								<name></name>
								<in>10791</in>
								<out>-1</out>
							</marker>
							<marker>
								<comment>ikke alt som skal opp i skya, noe mￃﾥ du beholde selv</comment>
								<name></name>
								<in>7871</in>
								<out>-1</out>
							</marker>
							<marker>
								<comment>skal vￃﾦre forsikt, kan bli misbnrukt av forsikringsbransjen eller hvem det er</comment>
								<name>data kan bli</name>
								<in>4134</in>
								<out>-1</out>
							</marker>
							<marker>
								<comment>sￃﾥ lenge du har en formening om hvor datene blir lagret, bￃﾸr det vￃﾦre greit</comment>
								<name></name>
								<in>4429</in>
								<out>-1</out>
							</marker>
							<marker>
								<comment>gir du avkall pￃﾥ personver?&#13;ikke smarthus, men pￃﾥ pc og mobil</comment>
								<name></name>
								<in>17066</in>
								<out>-1</out>
							</marker>
							<marker>
								<comment>myndigheten kan bestemme at dataene blir i Norge, eller Eu</comment>
								<name></name>
								<in>8508</in>
								<out>-1</out>
							</marker>
							<marker>
								<comment>de vil ha fysisk informasjon om hva so rￃﾸrer seg runt i livene vￃﾥre</comment>
								<name></name>
								<in>14776</in>
								<out>-1</out>
							</marker>
							<marker>
								<comment>jeg er bekymret for sporing pￃﾥ internett, men nￃﾥ blir det i det virkelige livet</comment>
								<name></name>
								<in>14122</in>
								<out>-1</out>
							</marker>
							<marker>
								<comment>leger kan ville selge data om det, hￃﾸres veldig negativt ut, men hvis det blir anoymisert...</comment>
								<name></name>
								<in>13087</in>
								<out>-1</out>
							</marker>
							<marker>
								<comment>nervￃﾸs for at dataen kan havne pￃﾥ avveie</comment>
								<name></name>
								<in>3846</in>
								<out>-1</out>
							</marker>
							<marker>
								<comment>du mￃﾥ gi fra deg litt frihet for ￃﾥ kunne fￃﾥ tilbake</comment>
								<name></name>
								<in>10309</in>
								<out>-1</out>
							</marker>
							<marker>
								<comment>skulle ￃﾸsnke at alle dataene er dine og ikke sￃﾥnn som nￃﾥ hvor vi deler alt og blir restrikvite</comment>
								<name></name>
								<in>5573</in>
								<out>-1</out>
							</marker>
							<marker>
								<comment>appene er skrekkscenario, du gir masse tilgang og du krysser av pￃﾥ ok, ok</comment>
								<name></name>
								<in>5805</in>
								<out>-1</out>
							</marker>
							<marker>
								<comment>overvￃﾥkingssamfunnet er det lover og regler for</comment>
								<name></name>
								<in>12095</in>
								<out>-1</out>
							</marker>
							<marker>
								<comment>jeg gjￃﾸr sikkert dumme valg jeg og, men det er en tradeoff</comment>
								<name></name>
								<in>6008</in>
								<out>-1</out>
							</marker>
							<marker>
								<comment>det m ￃﾥ vￃﾦre lett ￂﾨsi nￃﾥ vi ljeg ha tilbake mine data</comment>
								<name></name>
								<in>10941</in>
								<out>-1</out>
							</marker>
							<marker>
								<comment>du mￃﾥ velge de leverandￃﾸren som du stoler pￃﾥ, og du mￃﾥ stole pￃﾥ noen pￃﾥ ett eller annet tidspunkt</comment>
								<name></name>
								<in>15618</in>
								<out>-1</out>
							</marker>
							<marker>
								<comment>innen helse og velferd vil det vￃﾦre noen fallgruver&#13;</comment>
								<name></name>
								<in>12440</in>
								<out>-1</out>
							</marker>
							<marker>
								<comment>holde datene litt nￃﾦrme kroppen og ikke del med alt og alle</comment>
								<name></name>
								<in>4990</in>
								<out>-1</out>
							</marker>
							<marker>
								<comment>forsikringen kan se om dￃﾸra var lￃﾥst eller ei etter et innbrudd</comment>
								<name></name>
								<in>6963</in>
								<out>-1</out>
							</marker>
							<marker>
								<comment>ja, det virker litt sￃﾥnn</comment>
								<name>:)</name>
								<in>15327</in>
								<out>-1</out>
							</marker>
							<marker>
								<comment>fￃﾥr se om vi fￃﾥr kontroll pￃﾥ det google vet om oss, og kanskje syns vi det er sￃﾥ kjekt at vi deler</comment>
								<name></name>
								<in>15192</in>
								<out>-1</out>
							</marker>
						<labels>
							<label2>Forest</label2>
						</labels>
					</clipitem>
					<clipitem id="clipitem-515" frameBlend="FALSE">
						<masterclipid>masterclip-67</masterclipid>
						<name>Reaksjon_Smartehus_Gardemoen2.MOV</name>
						<enabled>TRUE</enabled>
						<duration>922</duration>
						<rate>
							<timebase>25</timebase>
							<ntsc>FALSE</ntsc>
						</rate>
						<start>10270</start>
						<end>10397</end>
						<in>18</in>
						<out>145</out>
						<alphatype>black</alphatype>
						<pixelaspectratio>square</pixelaspectratio>
						<anamorphic>FALSE</anamorphic>
						<file id="file-60">
							<name>Reaksjon_Smartehus_Gardemoen2.MOV</name>
							<pathurl>file://localhost/Volumes/Brakka/AdobeLager/Katta/Katta-14xxxx-Smart_eller_overvaaket-Chris/02-Video/Mobilvideo%20Eldrid/Reaksjon_Smartehus_Gardemoen2.MOV</pathurl>
							<rate>
								<timebase>24</timebase>
								<ntsc>FALSE</ntsc>
							</rate>
							<duration>886</duration>
							<timecode>
								<rate>
									<timebase>24</timebase>
									<ntsc>FALSE</ntsc>
								</rate>
								<string>00:00:00:00</string>
								<frame>0</frame>
								<displayformat>NDF</displayformat>
								<reel>
									<name></name>
								</reel>
							</timecode>
							<media>
								<video>
									<duration>18000</duration>
									<samplecharacteristics>
										<rate>
											<timebase>24</timebase>
											<ntsc>FALSE</ntsc>
										</rate>
										<width>1280</width>
										<height>720</height>
										<anamorphic>FALSE</anamorphic>
										<pixelaspectratio>square</pixelaspectratio>
										<fielddominance>none</fielddominance>
									</samplecharacteristics>
								</video>
								<audio>
									<samplecharacteristics>
										<depth>16</depth>
										<samplerate>44100</samplerate>
									</samplecharacteristics>
									<channelcount>1</channelcount>
									<layout>mono</layout>
									<audiochannel>
										<sourcechannel>1</sourcechannel>
										<channellabel>discrete</channellabel>
									</audiochannel>
								</audio>
							</media>
						</file>
							<marker>
								<comment>er bekymret for at det kommer pￃﾥ avveie</comment>
								<name></name>
								<in>608</in>
								<out>-1</out>
							</marker>
						<link>
							<linkclipref>clipitem-515</linkclipref>
							<mediatype>video</mediatype>
							<trackindex>1</trackindex>
							<clipindex>87</clipindex>
						</link>
						<link>
							<linkclipref>clipitem-1060</linkclipref>
							<mediatype>audio</mediatype>
							<trackindex>1</trackindex>
							<clipindex>51</clipindex>
						</link>
						<logginginfo>
							<description></description>
							<scene></scene>
							<shottake></shottake>
							<lognote></lognote>
						</logginginfo>
						<labels>
							<label2>Iris</label2>
						</labels>
					</clipitem>
					<clipitem id="clipitem-516" frameBlend="FALSE">
						<masterclipid>masterclip-68</masterclipid>
						<name>Reaksjon_Smarthus_Gardemoen1.MOV</name>
						<enabled>TRUE</enabled>
						<duration>1131</duration>
						<rate>
							<timebase>25</timebase>
							<ntsc>FALSE</ntsc>
						</rate>
						<start>10397</start>
						<end>10474</end>
						<in>293</in>
						<out>370</out>
						<alphatype>black</alphatype>
						<pixelaspectratio>square</pixelaspectratio>
						<anamorphic>FALSE</anamorphic>
						<file id="file-61">
							<name>Reaksjon_Smarthus_Gardemoen1.MOV</name>
							<pathurl>file://localhost/Volumes/Brakka/AdobeLager/Katta/Katta-14xxxx-Smart_eller_overvaaket-Chris/02-Video/Mobilvideo%20Eldrid/Reaksjon_Smarthus_Gardemoen1.MOV</pathurl>
							<rate>
								<timebase>30</timebase>
								<ntsc>FALSE</ntsc>
							</rate>
							<duration>1358</duration>
							<timecode>
								<rate>
									<timebase>30</timebase>
									<ntsc>FALSE</ntsc>
								</rate>
								<string>00:00:00:00</string>
								<frame>0</frame>
								<displayformat>NDF</displayformat>
								<reel>
									<name></name>
								</reel>
							</timecode>
							<media>
								<video>
									<duration>18000</duration>
									<samplecharacteristics>
										<rate>
											<timebase>30</timebase>
											<ntsc>FALSE</ntsc>
										</rate>
										<width>1280</width>
										<height>720</height>
										<anamorphic>FALSE</anamorphic>
										<pixelaspectratio>square</pixelaspectratio>
										<fielddominance>none</fielddominance>
									</samplecharacteristics>
								</video>
								<audio>
									<samplecharacteristics>
										<depth>16</depth>
										<samplerate>44100</samplerate>
									</samplecharacteristics>
									<channelcount>1</channelcount>
									<layout>mono</layout>
									<audiochannel>
										<sourcechannel>1</sourcechannel>
										<channellabel>discrete</channellabel>
									</audiochannel>
								</audio>
							</media>
						</file>
							<marker>
								<comment>skjￃﾸnner at det er fint, men at det kan komme pￃﾥ avveie</comment>
								<name></name>
								<in>177</in>
								<out>-1</out>
							</marker>
						<link>
							<linkclipref>clipitem-516</linkclipref>
							<mediatype>video</mediatype>
							<trackindex>1</trackindex>
							<clipindex>88</clipindex>
						</link>
						<link>
							<linkclipref>clipitem-1061</linkclipref>
							<mediatype>audio</mediatype>
							<trackindex>1</trackindex>
							<clipindex>52</clipindex>
						</link>
						<logginginfo>
							<description></description>
							<scene></scene>
							<shottake></shottake>
							<lognote></lognote>
						</logginginfo>
						<labels>
							<label2>Iris</label2>
						</labels>
					</clipitem>
					<clipitem id="clipitem-517" frameBlend="FALSE">
						<masterclipid>masterclip-69</masterclipid>
						<name>Reaksjon_Smarthus_Gardemoen3.MOV</name>
						<enabled>TRUE</enabled>
						<duration>1114</duration>
						<rate>
							<timebase>25</timebase>
							<ntsc>FALSE</ntsc>
						</rate>
						<start>10474</start>
						<end>10591</end>
						<in>922</in>
						<out>1039</out>
						<alphatype>black</alphatype>
						<pixelaspectratio>square</pixelaspectratio>
						<anamorphic>FALSE</anamorphic>
						<file id="file-62">
							<name>Reaksjon_Smarthus_Gardemoen3.MOV</name>
							<pathurl>file://localhost/Volumes/Brakka/AdobeLager/Katta/Katta-14xxxx-Smart_eller_overvaaket-Chris/02-Video/Mobilvideo%20Eldrid/Reaksjon_Smarthus_Gardemoen3.MOV</pathurl>
							<rate>
								<timebase>24</timebase>
								<ntsc>FALSE</ntsc>
							</rate>
							<duration>1070</duration>
							<timecode>
								<rate>
									<timebase>24</timebase>
									<ntsc>FALSE</ntsc>
								</rate>
								<string>00:00:00:00</string>
								<frame>0</frame>
								<displayformat>NDF</displayformat>
								<reel>
									<name></name>
								</reel>
							</timecode>
							<media>
								<video>
									<duration>18000</duration>
									<samplecharacteristics>
										<rate>
											<timebase>24</timebase>
											<ntsc>FALSE</ntsc>
										</rate>
										<width>1280</width>
										<height>720</height>
										<anamorphic>FALSE</anamorphic>
										<pixelaspectratio>square</pixelaspectratio>
										<fielddominance>none</fielddominance>
									</samplecharacteristics>
								</video>
								<audio>
									<samplecharacteristics>
										<depth>16</depth>
										<samplerate>44100</samplerate>
									</samplecharacteristics>
									<channelcount>1</channelcount>
									<layout>mono</layout>
									<audiochannel>
										<sourcechannel>1</sourcechannel>
										<channellabel>discrete</channellabel>
									</audiochannel>
								</audio>
							</media>
						</file>
						<link>
							<linkclipref>clipitem-517</linkclipref>
							<mediatype>video</mediatype>
							<trackindex>1</trackindex>
							<clipindex>89</clipindex>
						</link>
						<link>
							<linkclipref>clipitem-1062</linkclipref>
							<mediatype>audio</mediatype>
							<trackindex>1</trackindex>
							<clipindex>53</clipindex>
						</link>
						<logginginfo>
							<description></description>
							<scene></scene>
							<shottake></shottake>
							<lognote></lognote>
						</logginginfo>
						<labels>
							<label2>Iris</label2>
						</labels>
					</clipitem>
					<clipitem id="clipitem-518" frameBlend="FALSE">
						<masterclipid>masterclip-70</masterclipid>
						<name>Mobil 869.MOV</name>
						<enabled>TRUE</enabled>
						<duration>881</duration>
						<rate>
							<timebase>25</timebase>
							<ntsc>FALSE</ntsc>
						</rate>
						<start>10591</start>
						<end>10859</end>
						<in>41</in>
						<out>309</out>
						<alphatype>black</alphatype>
						<pixelaspectratio>square</pixelaspectratio>
						<anamorphic>FALSE</anamorphic>
						<file id="file-63">
							<name>Mobil 869.MOV</name>
							<pathurl>file://localhost/Volumes/Brakka/AdobeLager/Katta/Katta-14xxxx-Smart_eller_overvaaket-Chris/02-Video/Mobil%20Per%20Olav/Mobil%20869.MOV</pathurl>
							<rate>
								<timebase>30</timebase>
								<ntsc>FALSE</ntsc>
							</rate>
							<duration>1058</duration>
							<timecode>
								<rate>
									<timebase>30</timebase>
									<ntsc>FALSE</ntsc>
								</rate>
								<string>00:00:00:00</string>
								<frame>0</frame>
								<displayformat>NDF</displayformat>
								<reel>
									<name></name>
								</reel>
							</timecode>
							<media>
								<video>
									<duration>18000</duration>
									<samplecharacteristics>
										<rate>
											<timebase>30</timebase>
											<ntsc>FALSE</ntsc>
										</rate>
										<width>1280</width>
										<height>720</height>
										<anamorphic>FALSE</anamorphic>
										<pixelaspectratio>square</pixelaspectratio>
										<fielddominance>none</fielddominance>
									</samplecharacteristics>
								</video>
								<audio>
									<samplecharacteristics>
										<depth>16</depth>
										<samplerate>44100</samplerate>
									</samplecharacteristics>
									<channelcount>1</channelcount>
									<layout>mono</layout>
									<audiochannel>
										<sourcechannel>1</sourcechannel>
										<channellabel>discrete</channellabel>
									</audiochannel>
								</audio>
							</media>
						</file>
						<link>
							<linkclipref>clipitem-518</linkclipref>
							<mediatype>video</mediatype>
							<trackindex>1</trackindex>
							<clipindex>90</clipindex>
						</link>
						<link>
							<linkclipref>clipitem-1063</linkclipref>
							<mediatype>audio</mediatype>
							<trackindex>1</trackindex>
							<clipindex>54</clipindex>
						</link>
						<logginginfo>
							<description></description>
							<scene></scene>
							<shottake></shottake>
							<lognote></lognote>
						</logginginfo>
						<labels>
							<label2>Iris</label2>
						</labels>
					</clipitem>
					<clipitem id="clipitem-519" frameBlend="FALSE">
						<masterclipid>masterclip-70</masterclipid>
						<name>Mobil 869.MOV</name>
						<enabled>TRUE</enabled>
						<duration>881</duration>
						<rate>
							<timebase>25</timebase>
							<ntsc>FALSE</ntsc>
						</rate>
						<start>10859</start>
						<end>11173</end>
						<in>413</in>
						<out>727</out>
						<alphatype>black</alphatype>
						<file id="file-63"/>
						<link>
							<linkclipref>clipitem-519</linkclipref>
							<mediatype>video</mediatype>
							<trackindex>1</trackindex>
							<clipindex>91</clipindex>
						</link>
						<link>
							<linkclipref>clipitem-1064</linkclipref>
							<mediatype>audio</mediatype>
							<trackindex>1</trackindex>
							<clipindex>55</clipindex>
						</link>
						<logginginfo>
							<description></description>
							<scene></scene>
							<shottake></shottake>
							<lognote></lognote>
						</logginginfo>
						<labels>
							<label2>Iris</label2>
						</labels>
					</clipitem>
					<clipitem id="clipitem-520" frameBlend="FALSE">
						<masterclipid>masterclip-71</masterclipid>
						<name>smarte ting1G.mov</name>
						<enabled>TRUE</enabled>
						<duration>351</duration>
						<rate>
							<timebase>25</timebase>
							<ntsc>FALSE</ntsc>
						</rate>
						<start>11173</start>
						<end>11523</end>
						<in>0</in>
						<out>350</out>
						<alphatype>none</alphatype>
						<pixelaspectratio>square</pixelaspectratio>
						<anamorphic>FALSE</anamorphic>
						<file id="file-64">
							<name>smarte ting1G.mov</name>
							<pathurl>file://localhost/Volumes/Brakka/AdobeLager/Katta/Katta-14xxxx-Smart_eller_overvaaket-Chris/04-Grafikk/smarte%20ting1G.mov</pathurl>
							<rate>
								<timebase>25</timebase>
								<ntsc>FALSE</ntsc>
							</rate>
							<duration>246</duration>
							<timecode>
								<rate>
									<timebase>25</timebase>
									<ntsc>FALSE</ntsc>
								</rate>
								<string>00:00:00:00</string>
								<frame>0</frame>
								<displayformat>NDF</displayformat>
								<reel>
									<name></name>
								</reel>
							</timecode>
							<media>
								<video>
									<duration>18000</duration>
									<samplecharacteristics>
										<rate>
											<timebase>25</timebase>
											<ntsc>FALSE</ntsc>
										</rate>
										<width>1920</width>
										<height>1080</height>
										<anamorphic>FALSE</anamorphic>
										<pixelaspectratio>square</pixelaspectratio>
										<fielddominance>upper</fielddominance>
									</samplecharacteristics>
								</video>
							</media>
						</file>
							<filter>
								<effect>
									<name>Time Remap</name>
									<effectid>timeremap</effectid>
									<effectcategory>motion</effectcategory>
									<effecttype>motion</effecttype>
									<mediatype>video</mediatype>
									<parameter authoringApp="PremierePro">
										<parameterid>variablespeed</parameterid>
										<name>variablespeed</name>
										<valuemin>0</valuemin>
										<valuemax>1</valuemax>
										<value>0</value>
									</parameter>
									<parameter authoringApp="PremierePro">
										<parameterid>mappedduration</parameterid>
										<name>mappedduration</name>
										<value>
											<timecode>
												<rate>
													<timebase>0</timebase>
												</rate>
												<string>0</string>
												<frame>0</frame>
												<displayformat>NDF</displayformat>
											</timecode>
										</value>
									</parameter>
									<parameter authoringApp="PremierePro">
										<parameterid>speed</parameterid>
										<name>speed</name>
										<valuemin>-100000</valuemin>
										<valuemax>100000</valuemax>
										<value>70</value>
									</parameter>
									<parameter authoringApp="PremierePro">
										<parameterid>reverse</parameterid>
										<name>reverse</name>
										<value>FALSE</value>
									</parameter>
									<parameter authoringApp="PremierePro">
										<parameterid>frameblending</parameterid>
										<name>frameblending</name>
										<value>FALSE</value>
									</parameter>
								</effect>
							</filter>
						<logginginfo>
							<description></description>
							<scene></scene>
							<shottake></shottake>
							<lognote></lognote>
						</logginginfo>
						<labels>
							<label2>Violet</label2>
						</labels>
					</clipitem>
					<clipitem id="clipitem-521" frameBlend="FALSE">
						<masterclipid>masterclip-72</masterclipid>
						<name>MVI_0005.MOVthinfilm multi</name>
						<enabled>TRUE</enabled>
						<duration>15000</duration>
						<rate>
							<timebase>25</timebase>
							<ntsc>FALSE</ntsc>
						</rate>
						<start>11523</start>
						<end>11642</end>
						<in>3648</in>
						<out>3767</out>
						<sequence id="sequence-32">
							<duration>150</duration>
							<rate>
								<timebase>25</timebase>
								<ntsc>FALSE</ntsc>
							</rate>
							<name>MVI_0005.MOVthinfilm multi-2</name>
							<media>
								<video>
									<format>
										<samplecharacteristics>
											<rate>
												<timebase>25</timebase>
												<ntsc>FALSE</ntsc>
											</rate>
											<codec>
												<name>Apple ProRes 422</name>
												<appspecificdata>
													<appname>Final Cut Pro</appname>
													<appmanufacturer>Apple Inc.</appmanufacturer>
													<appversion>7.0</appversion>
													<data>
														<qtcodec>
															<codecname>Apple ProRes 422</codecname>
															<codectypename>Apple ProRes 422</codectypename>
															<codectypecode>apcn</codectypecode>
															<codecvendorcode>appl</codecvendorcode>
															<spatialquality>1024</spatialquality>
															<temporalquality>0</temporalquality>
															<keyframerate>0</keyframerate>
															<datarate>0</datarate>
														</qtcodec>
													</data>
												</appspecificdata>
											</codec>
											<width>1920</width>
											<height>1080</height>
											<anamorphic>FALSE</anamorphic>
											<pixelaspectratio>square</pixelaspectratio>
											<fielddominance>none</fielddominance>
											<colordepth>24</colordepth>
										</samplecharacteristics>
									</format>
									<track TL.SQTrackShy="0" TL.SQTrackExpandedHeight="25" TL.SQTrackExpanded="0" MZ.TrackTargeted="0">
										<clipitem id="clipitem-527" frameBlend="FALSE">
											<masterclipid>masterclip-74</masterclipid>
											<name>AA011601.MXF</name>
											<enabled>TRUE</enabled>
											<duration>15000</duration>
											<rate>
												<timebase>25</timebase>
												<ntsc>FALSE</ntsc>
											</rate>
											<start>0</start>
											<end>15000</end>
											<in>0</in>
											<out>15000</out>
											<alphatype>none</alphatype>
											<file id="file-66"/>
											<logginginfo>
												<description></description>
												<scene></scene>
												<shottake>AA0116</shottake>
												<lognote></lognote>
											</logginginfo>
											<labels>
												<label2>Iris</label2>
											</labels>
										</clipitem>
										<enabled>TRUE</enabled>
										<locked>FALSE</locked>
									</track>
								</video>
								<audio>
									<format>
										<samplecharacteristics>
											<depth>16</depth>
											<samplerate>48000</samplerate>
										</samplecharacteristics>
									</format>
									<outputs>
										<group>
											<index>1</index>
											<numchannels>1</numchannels>
											<downmix>0</downmix>
											<channel>
												<index>1</index>
											</channel>
										</group>
										<group>
											<index>2</index>
											<numchannels>1</numchannels>
											<downmix>0</downmix>
											<channel>
												<index>2</index>
											</channel>
										</group>
										<group>
											<index>3</index>
											<numchannels>1</numchannels>
											<downmix>0</downmix>
											<channel>
												<index>3</index>
											</channel>
										</group>
										<group>
											<index>4</index>
											<numchannels>1</numchannels>
											<downmix>0</downmix>
											<channel>
												<index>4</index>
											</channel>
										</group>
									</outputs>
									<track TL.SQTrackAudioKeyframeStyle="0" TL.SQTrackShy="0" TL.SQTrackExpandedHeight="25" TL.SQTrackExpanded="0" MZ.TrackTargeted="1" PannerCurrentValue="0.5" PannerIsInverted="true" PannerStartKeyframe="-91445760000000000,0.5,0,0,0,0,0,0" PannerName="Balance" currentExplodedTrackIndex="0" totalExplodedTrackCount="2" premiereTrackType="Stereo">
										<clipitem id="clipitem-525" frameBlend="FALSE" PannerCurrentValue="0.5" PannerKeyframes="" PannerStartKeyframe="-91445760000000000,0.5,0,0,0,0,0,0" PannerIsInverted="true" PannerName="Balance">
											<masterclipid>masterclip-74</masterclipid>
											<name>AA011601.MXF</name>
											<enabled>TRUE</enabled>
											<duration>15000</duration>
											<rate>
												<timebase>25</timebase>
												<ntsc>FALSE</ntsc>
											</rate>
											<start>0</start>
											<end>15000</end>
											<in>0</in>
											<out>15000</out>
											<pixelaspectratio>square</pixelaspectratio>
											<anamorphic>FALSE</anamorphic>
											<file id="file-66">
												<name>AA011601.MXF</name>
												<pathurl>file://localhost/Volumes/Brakka/AdobeLager/Katta/Katta-14xxxx-Smart_eller_overvaaket-Chris/02-Video/Thin%20Film%20C300/CONTENTS/CLIPS001/AA0116/AA011601.MXF</pathurl>
												<rate>
													<timebase>25</timebase>
													<ntsc>FALSE</ntsc>
												</rate>
												<duration>15000</duration>
												<timecode>
													<rate>
														<timebase>25</timebase>
														<ntsc>FALSE</ntsc>
													</rate>
													<string>01:36:21:03</string>
													<frame>144528</frame>
													<displayformat>NDF</displayformat>
													<reel>
														<name></name>
													</reel>
												</timecode>
												<media>
													<video>
														<duration>18000</duration>
														<samplecharacteristics>
															<rate>
																<timebase>25</timebase>
																<ntsc>FALSE</ntsc>
															</rate>
															<width>1920</width>
															<height>1080</height>
															<anamorphic>FALSE</anamorphic>
															<pixelaspectratio>square</pixelaspectratio>
															<fielddominance>none</fielddominance>
														</samplecharacteristics>
													</video>
													<audio>
														<samplecharacteristics>
															<depth>16</depth>
															<samplerate>48000</samplerate>
														</samplecharacteristics>
														<channelcount>2</channelcount>
													</audio>
												</media>
											</file>
											<sourcetrack>
												<mediatype>audio</mediatype>
												<trackindex>1</trackindex>
											</sourcetrack>
												<filter>
													<effect>
														<name>Audio Pan</name>
														<effectid>audiopan</effectid>
														<effectcategory>audiopan</effectcategory>
														<effecttype>audiopan</effecttype>
														<mediatype>audio</mediatype>
														<parameter authoringApp="PremierePro">
															<parameterid>pan</parameterid>
															<name>Pan</name>
															<valuemin>-1</valuemin>
															<valuemax>1</valuemax>
															<value>0</value>
														</parameter>
													</effect>
												</filter>
											<logginginfo>
												<description></description>
												<scene></scene>
												<shottake>AA0116</shottake>
												<lognote></lognote>
											</logginginfo>
											<labels>
												<label2>Iris</label2>
											</labels>
										</clipitem>
										<enabled>TRUE</enabled>
										<locked>FALSE</locked>
										<outputchannelindex>3</outputchannelindex>
									</track>
									<track TL.SQTrackAudioKeyframeStyle="0" TL.SQTrackShy="0" TL.SQTrackExpandedHeight="25" TL.SQTrackExpanded="0" MZ.TrackTargeted="1" PannerCurrentValue="0.5" PannerIsInverted="true" PannerStartKeyframe="-91445760000000000,0.5,0,0,0,0,0,0" PannerName="Balance" currentExplodedTrackIndex="1" totalExplodedTrackCount="2" premiereTrackType="Stereo">
										<clipitem id="clipitem-526" frameBlend="FALSE" PannerCurrentValue="0.5" PannerKeyframes="" PannerStartKeyframe="-91445760000000000,0.5,0,0,0,0,0,0" PannerIsInverted="true" PannerName="Balance">
											<masterclipid>masterclip-74</masterclipid>
											<name>AA011601.MXF</name>
											<enabled>TRUE</enabled>
											<duration>15000</duration>
											<rate>
												<timebase>25</timebase>
												<ntsc>FALSE</ntsc>
											</rate>
											<start>0</start>
											<end>15000</end>
											<in>0</in>
											<out>15000</out>
											<file id="file-66"/>
											<sourcetrack>
												<mediatype>audio</mediatype>
												<trackindex>2</trackindex>
											</sourcetrack>
												<filter>
													<effect>
														<name>Audio Pan</name>
														<effectid>audiopan</effectid>
														<effectcategory>audiopan</effectcategory>
														<effecttype>audiopan</effecttype>
														<mediatype>audio</mediatype>
														<parameter authoringApp="PremierePro">
															<parameterid>pan</parameterid>
															<name>Pan</name>
															<valuemin>-1</valuemin>
															<valuemax>1</valuemax>
															<value>0</value>
														</parameter>
													</effect>
												</filter>
											<logginginfo>
												<description></description>
												<scene></scene>
												<shottake>AA0116</shottake>
												<lognote></lognote>
											</logginginfo>
											<labels>
												<label2>Iris</label2>
											</labels>
										</clipitem>
										<enabled>TRUE</enabled>
										<locked>FALSE</locked>
										<outputchannelindex>4</outputchannelindex>
									</track>
								</audio>
							</media>
							<timecode>
								<rate>
									<timebase>25</timebase>
									<ntsc>FALSE</ntsc>
								</rate>
								<string>00:00:00:00</string>
								<frame>0</frame>
								<displayformat>NDF</displayformat>
							</timecode>
						</sequence>
							<marker>
								<comment>de neste ￃﾥrene kommer til ￃﾥ bli en revolusjon</comment>
								<name></name>
								<in>6170</in>
								<out>-1</out>
							</marker>
							<marker>
								<comment>foranderer livene vￃﾥre og forstￃﾥr verden bedre</comment>
								<name></name>
								<in>1514</in>
								<out>-1</out>
							</marker>
							<marker>
								<comment>helse, kan overvￃﾥke tilfredshet og blodnivￃﾥer</comment>
								<name></name>
								<in>5713</in>
								<out>-1</out>
							</marker>
							<marker>
								<comment>noen kaller det internett of things, vi kaller det internett of everything</comment>
								<name></name>
								<in>3782</in>
								<out>-1</out>
							</marker>
							<marker>
								<comment>billiarder ikke milliarder</comment>
								<name></name>
								<in>1263</in>
								<out>-1</out>
							</marker>
							<marker>
								<comment>vi bruker batterier fordi du ikke kan stole pￃﾥ harvesting</comment>
								<name></name>
								<in>8998</in>
								<out>-1</out>
							</marker>
							<marker>
								<comment>klokka eller kjￃﾸleskapet vil samle denne informasjonen&#13;</comment>
								<name></name>
								<in>1863</in>
								<out>-1</out>
							</marker>
							<marker>
								<comment>energy harvesting, sun, motion, sound</comment>
								<name></name>
								<in>8340</in>
								<out>-1</out>
							</marker>
							<marker>
								<comment>neste ￃﾥrene er revolisjom, du gￃﾥr fra 1 sensor er person, til 100 kanskje 1000 sensorer per person</comment>
								<name></name>
								<in>10530</in>
								<out>-1</out>
							</marker>
							<marker>
								<comment>fr smalt med internet of things</comment>
								<name></name>
								<in>619</in>
								<out>-1</out>
							</marker>
							<marker>
								<comment>hvorfor vil vi ha det? fordi du kan se om mat er bra ￃﾥ spise</comment>
								<name></name>
								<in>4773</in>
								<out>-1</out>
							</marker>
						<labels>
							<label2>Forest</label2>
						</labels>
					</clipitem>
					<clipitem id="clipitem-528" frameBlend="FALSE">
						<masterclipid>masterclip-75</masterclipid>
						<name>smarte ting2G.mov</name>
						<enabled>TRUE</enabled>
						<duration>242</duration>
						<rate>
							<timebase>25</timebase>
							<ntsc>FALSE</ntsc>
						</rate>
						<start>11642</start>
						<end>11876</end>
						<in>0</in>
						<out>234</out>
						<alphatype>none</alphatype>
						<pixelaspectratio>square</pixelaspectratio>
						<anamorphic>FALSE</anamorphic>
						<file id="file-67">
							<name>smarte ting2G.mov</name>
							<pathurl>file://localhost/Volumes/Brakka/AdobeLager/Katta/Katta-14xxxx-Smart_eller_overvaaket-Chris/04-Grafikk/smarte%20ting2G.mov</pathurl>
							<rate>
								<timebase>25</timebase>
								<ntsc>FALSE</ntsc>
							</rate>
							<duration>230</duration>
							<timecode>
								<rate>
									<timebase>25</timebase>
									<ntsc>FALSE</ntsc>
								</rate>
								<string>00:00:00:24</string>
								<frame>24</frame>
								<displayformat>NDF</displayformat>
								<reel>
									<name></name>
								</reel>
							</timecode>
							<media>
								<video>
									<duration>18000</duration>
									<samplecharacteristics>
										<rate>
											<timebase>25</timebase>
											<ntsc>FALSE</ntsc>
										</rate>
										<width>1920</width>
										<height>1080</height>
										<anamorphic>FALSE</anamorphic>
										<pixelaspectratio>square</pixelaspectratio>
										<fielddominance>upper</fielddominance>
									</samplecharacteristics>
								</video>
							</media>
						</file>
							<filter>
								<effect>
									<name>Time Remap</name>
									<effectid>timeremap</effectid>
									<effectcategory>motion</effectcategory>
									<effecttype>motion</effecttype>
									<mediatype>video</mediatype>
									<parameter authoringApp="PremierePro">
										<parameterid>variablespeed</parameterid>
										<name>variablespeed</name>
										<valuemin>0</valuemin>
										<valuemax>1</valuemax>
										<value>0</value>
									</parameter>
									<parameter authoringApp="PremierePro">
										<parameterid>mappedduration</parameterid>
										<name>mappedduration</name>
										<value>
											<timecode>
												<rate>
													<timebase>0</timebase>
												</rate>
												<string>0</string>
												<frame>0</frame>
												<displayformat>NDF</displayformat>
											</timecode>
										</value>
									</parameter>
									<parameter authoringApp="PremierePro">
										<parameterid>speed</parameterid>
										<name>speed</name>
										<valuemin>-100000</valuemin>
										<valuemax>100000</valuemax>
										<value>95</value>
									</parameter>
									<parameter authoringApp="PremierePro">
										<parameterid>reverse</parameterid>
										<name>reverse</name>
										<value>FALSE</value>
									</parameter>
									<parameter authoringApp="PremierePro">
										<parameterid>frameblending</parameterid>
										<name>frameblending</name>
										<value>FALSE</value>
									</parameter>
								</effect>
							</filter>
						<logginginfo>
							<description></description>
							<scene></scene>
							<shottake></shottake>
							<lognote></lognote>
						</logginginfo>
						<labels>
							<label2>Violet</label2>
						</labels>
					</clipitem>
					<clipitem id="clipitem-529" frameBlend="FALSE">
						<masterclipid>masterclip-72</masterclipid>
						<name>MVI_0005.MOVthinfilm multi</name>
						<enabled>TRUE</enabled>
						<duration>15000</duration>
						<rate>
							<timebase>25</timebase>
							<ntsc>FALSE</ntsc>
						</rate>
						<start>11876</start>
						<end>12165</end>
						<in>1601</in>
						<out>1890</out>
						<sequence id="sequence-32"/>
							<marker>
								<comment>de neste ￃﾥrene kommer til ￃﾥ bli en revolusjon</comment>
								<name></name>
								<in>6170</in>
								<out>-1</out>
							</marker>
							<marker>
								<comment>foranderer livene vￃﾥre og forstￃﾥr verden bedre</comment>
								<name></name>
								<in>1514</in>
								<out>-1</out>
							</marker>
							<marker>
								<comment>helse, kan overvￃﾥke tilfredshet og blodnivￃﾥer</comment>
								<name></name>
								<in>5713</in>
								<out>-1</out>
							</marker>
							<marker>
								<comment>noen kaller det internett of things, vi kaller det internett of everything</comment>
								<name></name>
								<in>3782</in>
								<out>-1</out>
							</marker>
							<marker>
								<comment>billiarder ikke milliarder</comment>
								<name></name>
								<in>1263</in>
								<out>-1</out>
							</marker>
							<marker>
								<comment>vi bruker batterier fordi du ikke kan stole pￃﾥ harvesting</comment>
								<name></name>
								<in>8998</in>
								<out>-1</out>
							</marker>
							<marker>
								<comment>klokka eller kjￃﾸleskapet vil samle denne informasjonen&#13;</comment>
								<name></name>
								<in>1863</in>
								<out>-1</out>
							</marker>
							<marker>
								<comment>energy harvesting, sun, motion, sound</comment>
								<name></name>
								<in>8340</in>
								<out>-1</out>
							</marker>
							<marker>
								<comment>neste ￃﾥrene er revolisjom, du gￃﾥr fra 1 sensor er person, til 100 kanskje 1000 sensorer per person</comment>
								<name></name>
								<in>10530</in>
								<out>-1</out>
							</marker>
							<marker>
								<comment>fr smalt med internet of things</comment>
								<name></name>
								<in>619</in>
								<out>-1</out>
							</marker>
							<marker>
								<comment>hvorfor vil vi ha det? fordi du kan se om mat er bra ￃﾥ spise</comment>
								<name></name>
								<in>4773</in>
								<out>-1</out>
							</marker>
						<link>
							<linkclipref>clipitem-529</linkclipref>
							<mediatype>video</mediatype>
							<trackindex>1</trackindex>
							<clipindex>95</clipindex>
						</link>
						<link>
							<linkclipref>clipitem-1402</linkclipref>
							<mediatype>audio</mediatype>
							<trackindex>3</trackindex>
							<clipindex>46</clipindex>
						</link>
						<labels>
							<label2>Forest</label2>
						</labels>
					</clipitem>
					<clipitem id="clipitem-530" frameBlend="FALSE">
						<masterclipid>masterclip-76</masterclipid>
						<name>MVI_9984.MOV</name>
						<enabled>TRUE</enabled>
						<duration>921</duration>
						<rate>
							<timebase>25</timebase>
							<ntsc>FALSE</ntsc>
						</rate>
						<start>12165</start>
						<end>12213</end>
						<in>76</in>
						<out>124</out>
						<alphatype>black</alphatype>
						<pixelaspectratio>square</pixelaspectratio>
						<anamorphic>FALSE</anamorphic>
						<file id="file-68">
							<name>MVI_9984.MOV</name>
							<pathurl>file://localhost/Volumes/Brakka/AdobeLager/Katta/Katta-14xxxx-Smart_eller_overvaaket-Chris/02-Video/Thin%20Film%205D/DCIM/100EOS5D/MVI_9984.MOV</pathurl>
							<rate>
								<timebase>25</timebase>
								<ntsc>FALSE</ntsc>
							</rate>
							<duration>921</duration>
							<timecode>
								<rate>
									<timebase>25</timebase>
									<ntsc>FALSE</ntsc>
								</rate>
								<string>00:00:00:00</string>
								<frame>0</frame>
								<displayformat>NDF</displayformat>
								<reel>
									<name></name>
								</reel>
							</timecode>
							<media>
								<video>
									<duration>18000</duration>
									<samplecharacteristics>
										<rate>
											<timebase>25</timebase>
											<ntsc>FALSE</ntsc>
										</rate>
										<width>1920</width>
										<height>1080</height>
										<anamorphic>FALSE</anamorphic>
										<pixelaspectratio>square</pixelaspectratio>
										<fielddominance>none</fielddominance>
									</samplecharacteristics>
								</video>
								<audio>
									<samplecharacteristics>
										<depth>16</depth>
										<samplerate>48000</samplerate>
									</samplecharacteristics>
									<channelcount>2</channelcount>
								</audio>
							</media>
						</file>
						<logginginfo>
							<description></description>
							<scene></scene>
							<shottake></shottake>
							<lognote></lognote>
						</logginginfo>
						<labels>
							<label2>Iris</label2>
						</labels>
					</clipitem>
					<clipitem id="clipitem-531" frameBlend="FALSE">
						<masterclipid>masterclip-76</masterclipid>
						<name>MVI_9984.MOV</name>
						<enabled>TRUE</enabled>
						<duration>921</duration>
						<rate>
							<timebase>25</timebase>
							<ntsc>FALSE</ntsc>
						</rate>
						<start>12213</start>
						<end>12220</end>
						<in>124</in>
						<out>131</out>
						<alphatype>black</alphatype>
						<file id="file-68"/>
						<logginginfo>
							<description></description>
							<scene></scene>
							<shottake></shottake>
							<lognote></lognote>
						</logginginfo>
						<labels>
							<label2>Iris</label2>
						</labels>
					</clipitem>
					<clipitem id="clipitem-532" frameBlend="FALSE">
						<masterclipid>masterclip-77</masterclipid>
						<name>AA008601.MXF</name>
						<enabled>TRUE</enabled>
						<duration>1056</duration>
						<rate>
							<timebase>25</timebase>
							<ntsc>FALSE</ntsc>
						</rate>
						<start>12220</start>
						<end>12254</end>
						<in>398</in>
						<out>432</out>
						<alphatype>none</alphatype>
						<pixelaspectratio>square</pixelaspectratio>
						<anamorphic>FALSE</anamorphic>
						<file id="file-69">
							<name>AA008601.MXF</name>
							<pathurl>file://localhost/Volumes/Brakka/AdobeLager/Katta/Katta-14xxxx-Smart_eller_overvaaket-Chris/02-Video/Thin%20Film%20C300/CONTENTS/CLIPS001/AA0086/AA008601.MXF</pathurl>
							<rate>
								<timebase>25</timebase>
								<ntsc>FALSE</ntsc>
							</rate>
							<duration>1056</duration>
							<timecode>
								<rate>
									<timebase>25</timebase>
									<ntsc>FALSE</ntsc>
								</rate>
								<string>00:45:49:11</string>
								<frame>68736</frame>
								<displayformat>NDF</displayformat>
								<reel>
									<name></name>
								</reel>
							</timecode>
							<media>
								<video>
									<duration>18000</duration>
									<samplecharacteristics>
										<rate>
											<timebase>25</timebase>
											<ntsc>FALSE</ntsc>
										</rate>
										<width>1920</width>
										<height>1080</height>
										<anamorphic>FALSE</anamorphic>
										<pixelaspectratio>square</pixelaspectratio>
										<fielddominance>none</fielddominance>
									</samplecharacteristics>
								</video>
								<audio>
									<samplecharacteristics>
										<depth>16</depth>
										<samplerate>48000</samplerate>
									</samplecharacteristics>
									<channelcount>2</channelcount>
								</audio>
							</media>
						</file>
						<logginginfo>
							<description></description>
							<scene></scene>
							<shottake>AA0086</shottake>
							<lognote></lognote>
						</logginginfo>
						<labels>
							<label2>Iris</label2>
						</labels>
					</clipitem>
					<clipitem id="clipitem-533" frameBlend="FALSE">
						<masterclipid>masterclip-78</masterclipid>
						<name>MVI_9986.MOV</name>
						<enabled>TRUE</enabled>
						<duration>1304</duration>
						<rate>
							<timebase>25</timebase>
							<ntsc>FALSE</ntsc>
						</rate>
						<start>12254</start>
						<end>12293</end>
						<in>417</in>
						<out>456</out>
						<alphatype>black</alphatype>
						<pixelaspectratio>square</pixelaspectratio>
						<anamorphic>FALSE</anamorphic>
						<file id="file-70">
							<name>MVI_9986.MOV</name>
							<pathurl>file://localhost/Volumes/Brakka/AdobeLager/Katta/Katta-14xxxx-Smart_eller_overvaaket-Chris/02-Video/Thin%20Film%205D/DCIM/100EOS5D/MVI_9986.MOV</pathurl>
							<rate>
								<timebase>25</timebase>
								<ntsc>FALSE</ntsc>
							</rate>
							<duration>1304</duration>
							<timecode>
								<rate>
									<timebase>25</timebase>
									<ntsc>FALSE</ntsc>
								</rate>
								<string>00:00:00:00</string>
								<frame>0</frame>
								<displayformat>NDF</displayformat>
								<reel>
									<name></name>
								</reel>
							</timecode>
							<media>
								<video>
									<duration>18000</duration>
									<samplecharacteristics>
										<rate>
											<timebase>25</timebase>
											<ntsc>FALSE</ntsc>
										</rate>
										<width>1920</width>
										<height>1080</height>
										<anamorphic>FALSE</anamorphic>
										<pixelaspectratio>square</pixelaspectratio>
										<fielddominance>none</fielddominance>
									</samplecharacteristics>
								</video>
								<audio>
									<samplecharacteristics>
										<depth>16</depth>
										<samplerate>48000</samplerate>
									</samplecharacteristics>
									<channelcount>2</channelcount>
								</audio>
							</media>
						</file>
						<logginginfo>
							<description></description>
							<scene></scene>
							<shottake></shottake>
							<lognote></lognote>
						</logginginfo>
						<labels>
							<label2>Iris</label2>
						</labels>
					</clipitem>
					<clipitem id="clipitem-534" frameBlend="FALSE">
						<masterclipid>masterclip-79</masterclipid>
						<name>AA008901.MXFthinfilm multi</name>
						<enabled>TRUE</enabled>
						<duration>1392</duration>
						<rate>
							<timebase>25</timebase>
							<ntsc>FALSE</ntsc>
						</rate>
						<start>12293</start>
						<end>12338</end>
						<in>734</in>
						<out>779</out>
						<sequence id="sequence-35">
							<duration>150</duration>
							<rate>
								<timebase>25</timebase>
								<ntsc>FALSE</ntsc>
							</rate>
							<name>AA008901.MXFthinfilm multi-1</name>
							<media>
								<video>
									<format>
										<samplecharacteristics>
											<rate>
												<timebase>25</timebase>
												<ntsc>FALSE</ntsc>
											</rate>
											<codec>
												<name>Apple ProRes 422</name>
												<appspecificdata>
													<appname>Final Cut Pro</appname>
													<appmanufacturer>Apple Inc.</appmanufacturer>
													<appversion>7.0</appversion>
													<data>
														<qtcodec>
															<codecname>Apple ProRes 422</codecname>
															<codectypename>Apple ProRes 422</codectypename>
															<codectypecode>apcn</codectypecode>
															<codecvendorcode>appl</codecvendorcode>
															<spatialquality>1024</spatialquality>
															<temporalquality>0</temporalquality>
															<keyframerate>0</keyframerate>
															<datarate>0</datarate>
														</qtcodec>
													</data>
												</appspecificdata>
											</codec>
											<width>1920</width>
											<height>1080</height>
											<anamorphic>FALSE</anamorphic>
											<pixelaspectratio>square</pixelaspectratio>
											<fielddominance>none</fielddominance>
											<colordepth>24</colordepth>
										</samplecharacteristics>
									</format>
									<track TL.SQTrackShy="0" TL.SQTrackExpandedHeight="25" TL.SQTrackExpanded="0" MZ.TrackTargeted="0">
										<clipitem id="clipitem-537" frameBlend="FALSE">
											<masterclipid>masterclip-80</masterclipid>
											<name>AA008901.MXF</name>
											<enabled>TRUE</enabled>
											<duration>1392</duration>
											<rate>
												<timebase>25</timebase>
												<ntsc>FALSE</ntsc>
											</rate>
											<start>0</start>
											<end>1392</end>
											<in>0</in>
											<out>1392</out>
											<alphatype>none</alphatype>
											<file id="file-71"/>
											<logginginfo>
												<description></description>
												<scene></scene>
												<shottake>AA0089</shottake>
												<lognote></lognote>
											</logginginfo>
											<labels>
												<label2>Iris</label2>
											</labels>
										</clipitem>
										<enabled>TRUE</enabled>
										<locked>FALSE</locked>
									</track>
								</video>
								<audio>
									<format>
										<samplecharacteristics>
											<depth>16</depth>
											<samplerate>48000</samplerate>
										</samplecharacteristics>
									</format>
									<outputs>
										<group>
											<index>1</index>
											<numchannels>1</numchannels>
											<downmix>0</downmix>
											<channel>
												<index>1</index>
											</channel>
										</group>
										<group>
											<index>2</index>
											<numchannels>1</numchannels>
											<downmix>0</downmix>
											<channel>
												<index>2</index>
											</channel>
										</group>
										<group>
											<index>3</index>
											<numchannels>1</numchannels>
											<downmix>0</downmix>
											<channel>
												<index>3</index>
											</channel>
										</group>
										<group>
											<index>4</index>
											<numchannels>1</numchannels>
											<downmix>0</downmix>
											<channel>
												<index>4</index>
											</channel>
										</group>
									</outputs>
									<track TL.SQTrackAudioKeyframeStyle="0" TL.SQTrackShy="0" TL.SQTrackExpandedHeight="25" TL.SQTrackExpanded="0" MZ.TrackTargeted="1" PannerCurrentValue="0.5" PannerIsInverted="true" PannerStartKeyframe="-91445760000000000,0.5,0,0,0,0,0,0" PannerName="Balance" currentExplodedTrackIndex="0" totalExplodedTrackCount="2" premiereTrackType="Stereo">
										<clipitem id="clipitem-535" frameBlend="FALSE" PannerCurrentValue="0.5" PannerKeyframes="" PannerStartKeyframe="-91445760000000000,0.5,0,0,0,0,0,0" PannerIsInverted="true" PannerName="Balance">
											<masterclipid>masterclip-80</masterclipid>
											<name>AA008901.MXF</name>
											<enabled>TRUE</enabled>
											<duration>1392</duration>
											<rate>
												<timebase>25</timebase>
												<ntsc>FALSE</ntsc>
											</rate>
											<start>0</start>
											<end>1392</end>
											<in>0</in>
											<out>1392</out>
											<pixelaspectratio>square</pixelaspectratio>
											<anamorphic>FALSE</anamorphic>
											<file id="file-71">
												<name>AA008901.MXF</name>
												<pathurl>file://localhost/Volumes/Brakka/AdobeLager/Katta/Katta-14xxxx-Smart_eller_overvaaket-Chris/02-Video/Thin%20Film%20C300/CONTENTS/CLIPS001/AA0089/AA008901.MXF</pathurl>
												<rate>
													<timebase>25</timebase>
													<ntsc>FALSE</ntsc>
												</rate>
												<duration>1392</duration>
												<timecode>
													<rate>
														<timebase>25</timebase>
														<ntsc>FALSE</ntsc>
													</rate>
													<string>00:46:40:08</string>
													<frame>70008</frame>
													<displayformat>NDF</displayformat>
													<reel>
														<name></name>
													</reel>
												</timecode>
												<media>
													<video>
														<duration>18000</duration>
														<samplecharacteristics>
															<rate>
																<timebase>25</timebase>
																<ntsc>FALSE</ntsc>
															</rate>
															<width>1920</width>
															<height>1080</height>
															<anamorphic>FALSE</anamorphic>
															<pixelaspectratio>square</pixelaspectratio>
															<fielddominance>none</fielddominance>
														</samplecharacteristics>
													</video>
													<audio>
														<samplecharacteristics>
															<depth>16</depth>
															<samplerate>48000</samplerate>
														</samplecharacteristics>
														<channelcount>2</channelcount>
													</audio>
												</media>
											</file>
											<sourcetrack>
												<mediatype>audio</mediatype>
												<trackindex>1</trackindex>
											</sourcetrack>
												<filter>
													<effect>
														<name>Audio Pan</name>
														<effectid>audiopan</effectid>
														<effectcategory>audiopan</effectcategory>
														<effecttype>audiopan</effecttype>
														<mediatype>audio</mediatype>
														<parameter authoringApp="PremierePro">
															<parameterid>pan</parameterid>
															<name>Pan</name>
															<valuemin>-1</valuemin>
															<valuemax>1</valuemax>
															<value>0</value>
														</parameter>
													</effect>
												</filter>
											<logginginfo>
												<description></description>
												<scene></scene>
												<shottake>AA0089</shottake>
												<lognote></lognote>
											</logginginfo>
											<labels>
												<label2>Iris</label2>
											</labels>
										</clipitem>
										<enabled>TRUE</enabled>
										<locked>FALSE</locked>
										<outputchannelindex>1</outputchannelindex>
									</track>
									<track TL.SQTrackAudioKeyframeStyle="0" TL.SQTrackShy="0" TL.SQTrackExpandedHeight="25" TL.SQTrackExpanded="0" MZ.TrackTargeted="1" PannerCurrentValue="0.5" PannerIsInverted="true" PannerStartKeyframe="-91445760000000000,0.5,0,0,0,0,0,0" PannerName="Balance" currentExplodedTrackIndex="1" totalExplodedTrackCount="2" premiereTrackType="Stereo">
										<clipitem id="clipitem-536" frameBlend="FALSE" PannerCurrentValue="0.5" PannerKeyframes="" PannerStartKeyframe="-91445760000000000,0.5,0,0,0,0,0,0" PannerIsInverted="true" PannerName="Balance">
											<masterclipid>masterclip-80</masterclipid>
											<name>AA008901.MXF</name>
											<enabled>TRUE</enabled>
											<duration>1392</duration>
											<rate>
												<timebase>25</timebase>
												<ntsc>FALSE</ntsc>
											</rate>
											<start>0</start>
											<end>1392</end>
											<in>0</in>
											<out>1392</out>
											<file id="file-71"/>
											<sourcetrack>
												<mediatype>audio</mediatype>
												<trackindex>2</trackindex>
											</sourcetrack>
												<filter>
													<effect>
														<name>Audio Pan</name>
														<effectid>audiopan</effectid>
														<effectcategory>audiopan</effectcategory>
														<effecttype>audiopan</effecttype>
														<mediatype>audio</mediatype>
														<parameter authoringApp="PremierePro">
															<parameterid>pan</parameterid>
															<name>Pan</name>
															<valuemin>-1</valuemin>
															<valuemax>1</valuemax>
															<value>0</value>
														</parameter>
													</effect>
												</filter>
											<logginginfo>
												<description></description>
												<scene></scene>
												<shottake>AA0089</shottake>
												<lognote></lognote>
											</logginginfo>
											<labels>
												<label2>Iris</label2>
											</labels>
										</clipitem>
										<enabled>TRUE</enabled>
										<locked>FALSE</locked>
										<outputchannelindex>2</outputchannelindex>
									</track>
								</audio>
							</media>
							<timecode>
								<rate>
									<timebase>25</timebase>
									<ntsc>FALSE</ntsc>
								</rate>
								<string>00:00:00:00</string>
								<frame>0</frame>
								<displayformat>NDF</displayformat>
							</timecode>
						</sequence>
						<labels>
							<label2>Forest</label2>
						</labels>
					</clipitem>
					<clipitem id="clipitem-541" frameBlend="FALSE">
						<masterclipid>masterclip-82</masterclipid>
						<name>AA113501.MXF</name>
						<enabled>TRUE</enabled>
						<duration>1428</duration>
						<rate>
							<timebase>25</timebase>
							<ntsc>FALSE</ntsc>
						</rate>
						<start>12338</start>
						<end>12369</end>
						<in>1164</in>
						<out>1195</out>
						<alphatype>none</alphatype>
						<pixelaspectratio>square</pixelaspectratio>
						<anamorphic>FALSE</anamorphic>
						<file id="file-73">
							<name>AA113501.MXF</name>
							<pathurl>file://localhost/Volumes/Brakka/AdobeLager/Katta/Katta-14xxxx-Smart_eller_overvaaket-Chris/02-Video/Intro%20Thinfilm/CONTENTS/CLIPS001/AA1135/AA113501.MXF</pathurl>
							<rate>
								<timebase>25</timebase>
								<ntsc>FALSE</ntsc>
							</rate>
							<duration>1428</duration>
							<timecode>
								<rate>
									<timebase>25</timebase>
									<ntsc>FALSE</ntsc>
								</rate>
								<string>21:22:28:21</string>
								<frame>1923721</frame>
								<displayformat>NDF</displayformat>
								<reel>
									<name></name>
								</reel>
							</timecode>
							<media>
								<video>
									<duration>18000</duration>
									<samplecharacteristics>
										<rate>
											<timebase>25</timebase>
											<ntsc>FALSE</ntsc>
										</rate>
										<width>1920</width>
										<height>1080</height>
										<anamorphic>FALSE</anamorphic>
										<pixelaspectratio>square</pixelaspectratio>
										<fielddominance>upper</fielddominance>
									</samplecharacteristics>
								</video>
								<audio>
									<samplecharacteristics>
										<depth>16</depth>
										<samplerate>48000</samplerate>
									</samplecharacteristics>
									<channelcount>1</channelcount>
									<layout>mono</layout>
									<audiochannel>
										<sourcechannel>1</sourcechannel>
										<channellabel>discrete</channellabel>
									</audiochannel>
								</audio>
								<audio>
									<samplecharacteristics>
										<depth>16</depth>
										<samplerate>48000</samplerate>
									</samplecharacteristics>
									<channelcount>1</channelcount>
									<layout>mono</layout>
									<audiochannel>
										<sourcechannel>2</sourcechannel>
										<channellabel>discrete</channellabel>
									</audiochannel>
								</audio>
							</media>
						</file>
						<logginginfo>
							<description></description>
							<scene></scene>
							<shottake>AA1135</shottake>
							<lognote></lognote>
						</logginginfo>
						<labels>
							<label2>Iris</label2>
						</labels>
					</clipitem>
					<clipitem id="clipitem-542" frameBlend="FALSE">
						<masterclipid>masterclip-83</masterclipid>
						<name>mobiltelfon.mov</name>
						<enabled>TRUE</enabled>
						<duration>60</duration>
						<rate>
							<timebase>25</timebase>
							<ntsc>FALSE</ntsc>
						</rate>
						<start>12369</start>
						<end>12428</end>
						<in>0</in>
						<out>59</out>
						<alphatype>none</alphatype>
						<pixelaspectratio>square</pixelaspectratio>
						<anamorphic>FALSE</anamorphic>
						<file id="file-74">
							<name>mobiltelfon.mov</name>
							<pathurl>file://localhost/Volumes/Brakka/AdobeLager/Katta/Katta-14xxxx-Smart_eller_overvaaket-Chris/02-Video/Arkiv/mobiltelfon.mov</pathurl>
							<rate>
								<timebase>25</timebase>
								<ntsc>FALSE</ntsc>
							</rate>
							<duration>60</duration>
							<timecode>
								<rate>
									<timebase>25</timebase>
									<ntsc>FALSE</ntsc>
								</rate>
								<string>00:08:14:19</string>
								<frame>12369</frame>
								<displayformat>NDF</displayformat>
								<reel>
									<name></name>
								</reel>
							</timecode>
							<media>
								<video>
									<duration>18000</duration>
									<samplecharacteristics>
										<rate>
											<timebase>25</timebase>
											<ntsc>FALSE</ntsc>
										</rate>
										<width>1920</width>
										<height>1080</height>
										<anamorphic>FALSE</anamorphic>
										<pixelaspectratio>square</pixelaspectratio>
										<fielddominance>upper</fielddominance>
									</samplecharacteristics>
								</video>
								<audio>
									<samplecharacteristics>
										<depth>16</depth>
										<samplerate>48000</samplerate>
									</samplecharacteristics>
									<channelcount>2</channelcount>
								</audio>
							</media>
						</file>
						<logginginfo>
							<description></description>
							<scene></scene>
							<shottake></shottake>
							<lognote></lognote>
						</logginginfo>
						<labels>
							<label2>Iris</label2>
						</labels>
					</clipitem>
					<clipitem id="clipitem-543" frameBlend="FALSE">
						<masterclipid>masterclip-84</masterclipid>
						<name>Intel_Telematics_Final-rev.mp4</name>
						<enabled>TRUE</enabled>
						<duration>3761</duration>
						<rate>
							<timebase>25</timebase>
							<ntsc>FALSE</ntsc>
						</rate>
						<start>12428</start>
						<end>12549</end>
						<in>1120</in>
						<out>1241</out>
						<alphatype>black</alphatype>
						<pixelaspectratio>square</pixelaspectratio>
						<anamorphic>FALSE</anamorphic>
						<file id="file-75">
							<name>Intel_Telematics_Final-rev.mp4</name>
							<pathurl>file://localhost/Volumes/Brakka/AdobeLager/Katta/Katta-14xxxx-Smart_eller_overvaaket-Chris/02-Video/Arkiv/Intel_Telematics_Final-rev.mp4</pathurl>
							<rate>
								<timebase>30</timebase>
								<ntsc>TRUE</ntsc>
							</rate>
							<duration>4509</duration>
							<timecode>
								<rate>
									<timebase>30</timebase>
									<ntsc>TRUE</ntsc>
								</rate>
								<string>00:00:00:00</string>
								<frame>0</frame>
								<displayformat>NDF</displayformat>
								<reel>
									<name></name>
								</reel>
							</timecode>
							<media>
								<video>
									<duration>18000</duration>
									<samplecharacteristics>
										<rate>
											<timebase>30</timebase>
											<ntsc>TRUE</ntsc>
										</rate>
										<width>1920</width>
										<height>1080</height>
										<anamorphic>FALSE</anamorphic>
										<pixelaspectratio>square</pixelaspectratio>
										<fielddominance>none</fielddominance>
									</samplecharacteristics>
								</video>
								<audio>
									<samplecharacteristics>
										<depth>16</depth>
										<samplerate>48000</samplerate>
									</samplecharacteristics>
									<channelcount>2</channelcount>
								</audio>
							</media>
						</file>
						<logginginfo>
							<description></description>
							<scene></scene>
							<shottake></shottake>
							<lognote></lognote>
						</logginginfo>
						<labels>
							<label2>Iris</label2>
						</labels>
					</clipitem>
					<clipitem id="clipitem-544" frameBlend="FALSE">
						<masterclipid>masterclip-72</masterclipid>
						<name>MVI_0005.MOVthinfilm multi</name>
						<enabled>TRUE</enabled>
						<duration>15000</duration>
						<rate>
							<timebase>25</timebase>
							<ntsc>FALSE</ntsc>
						</rate>
						<start>12549</start>
						<end>12857</end>
						<in>10256</in>
						<out>10564</out>
						<sequence id="sequence-32"/>
							<marker>
								<comment>de neste ￃﾥrene kommer til ￃﾥ bli en revolusjon</comment>
								<name></name>
								<in>6170</in>
								<out>-1</out>
							</marker>
							<marker>
								<comment>foranderer livene vￃﾥre og forstￃﾥr verden bedre</comment>
								<name></name>
								<in>1514</in>
								<out>-1</out>
							</marker>
							<marker>
								<comment>helse, kan overvￃﾥke tilfredshet og blodnivￃﾥer</comment>
								<name></name>
								<in>5713</in>
								<out>-1</out>
							</marker>
							<marker>
								<comment>noen kaller det internett of things, vi kaller det internett of everything</comment>
								<name></name>
								<in>3782</in>
								<out>-1</out>
							</marker>
							<marker>
								<comment>billiarder ikke milliarder</comment>
								<name></name>
								<in>1263</in>
								<out>-1</out>
							</marker>
							<marker>
								<comment>vi bruker batterier fordi du ikke kan stole pￃﾥ harvesting</comment>
								<name></name>
								<in>8998</in>
								<out>-1</out>
							</marker>
							<marker>
								<comment>klokka eller kjￃﾸleskapet vil samle denne informasjonen&#13;</comment>
								<name></name>
								<in>1863</in>
								<out>-1</out>
							</marker>
							<marker>
								<comment>energy harvesting, sun, motion, sound</comment>
								<name></name>
								<in>8340</in>
								<out>-1</out>
							</marker>
							<marker>
								<comment>neste ￃﾥrene er revolisjom, du gￃﾥr fra 1 sensor er person, til 100 kanskje 1000 sensorer per person</comment>
								<name></name>
								<in>10530</in>
								<out>-1</out>
							</marker>
							<marker>
								<comment>fr smalt med internet of things</comment>
								<name></name>
								<in>619</in>
								<out>-1</out>
							</marker>
							<marker>
								<comment>hvorfor vil vi ha det? fordi du kan se om mat er bra ￃﾥ spise</comment>
								<name></name>
								<in>4773</in>
								<out>-1</out>
							</marker>
						<link>
							<linkclipref>clipitem-544</linkclipref>
							<mediatype>video</mediatype>
							<trackindex>1</trackindex>
							<clipindex>104</clipindex>
						</link>
						<link>
							<linkclipref>clipitem-1403</linkclipref>
							<mediatype>audio</mediatype>
							<trackindex>3</trackindex>
							<clipindex>47</clipindex>
						</link>
						<labels>
							<label2>Forest</label2>
						</labels>
					</clipitem>
					<clipitem id="clipitem-545" frameBlend="FALSE">
						<masterclipid>masterclip-85</masterclipid>
						<name>MVI_0090.MOV</name>
						<enabled>TRUE</enabled>
						<duration>1932</duration>
						<rate>
							<timebase>25</timebase>
							<ntsc>FALSE</ntsc>
						</rate>
						<start>12857</start>
						<end>12974</end>
						<in>758</in>
						<out>875</out>
						<alphatype>black</alphatype>
						<pixelaspectratio>square</pixelaspectratio>
						<anamorphic>FALSE</anamorphic>
						<file id="file-76">
							<name>MVI_0090.MOV</name>
							<pathurl>file://localhost/Volumes/Brakka/AdobeLager/Katta/Katta-14xxxx-Smart_eller_overvaaket-Chris/02-Video/COWI%20Varemesse%205D/DCIM/100EOS5D/MVI_0090.MOV</pathurl>
							<rate>
								<timebase>25</timebase>
								<ntsc>FALSE</ntsc>
							</rate>
							<duration>1932</duration>
							<timecode>
								<rate>
									<timebase>25</timebase>
									<ntsc>FALSE</ntsc>
								</rate>
								<string>00:00:00:00</string>
								<frame>0</frame>
								<displayformat>NDF</displayformat>
								<reel>
									<name></name>
								</reel>
							</timecode>
							<media>
								<video>
									<duration>18000</duration>
									<samplecharacteristics>
										<rate>
											<timebase>25</timebase>
											<ntsc>FALSE</ntsc>
										</rate>
										<width>1920</width>
										<height>1080</height>
										<anamorphic>FALSE</anamorphic>
										<pixelaspectratio>square</pixelaspectratio>
										<fielddominance>none</fielddominance>
									</samplecharacteristics>
								</video>
								<audio>
									<samplecharacteristics>
										<depth>16</depth>
										<samplerate>48000</samplerate>
									</samplecharacteristics>
									<channelcount>2</channelcount>
								</audio>
							</media>
						</file>
						<link>
							<linkclipref>clipitem-545</linkclipref>
							<mediatype>video</mediatype>
							<trackindex>1</trackindex>
							<clipindex>105</clipindex>
						</link>
						<link>
							<linkclipref>clipitem-1528</linkclipref>
							<mediatype>audio</mediatype>
							<trackindex>5</trackindex>
							<clipindex>22</clipindex>
						</link>
						<link>
							<linkclipref>clipitem-1601</linkclipref>
							<mediatype>audio</mediatype>
							<trackindex>7</trackindex>
							<clipindex>17</clipindex>
						</link>
						<logginginfo>
							<description></description>
							<scene></scene>
							<shottake></shottake>
							<lognote></lognote>
						</logginginfo>
						<labels>
							<label2>Iris</label2>
						</labels>
					</clipitem>
					<clipitem id="clipitem-546" frameBlend="FALSE">
						<masterclipid>masterclip-85</masterclipid>
						<name>MVI_0090.MOV</name>
						<enabled>TRUE</enabled>
						<duration>1932</duration>
						<rate>
							<timebase>25</timebase>
							<ntsc>FALSE</ntsc>
						</rate>
						<start>12974</start>
						<end>13066</end>
						<in>1760</in>
						<out>1852</out>
						<alphatype>black</alphatype>
						<file id="file-76"/>
						<link>
							<linkclipref>clipitem-546</linkclipref>
							<mediatype>video</mediatype>
							<trackindex>1</trackindex>
							<clipindex>106</clipindex>
						</link>
						<link>
							<linkclipref>clipitem-1529</linkclipref>
							<mediatype>audio</mediatype>
							<trackindex>5</trackindex>
							<clipindex>23</clipindex>
						</link>
						<link>
							<linkclipref>clipitem-1602</linkclipref>
							<mediatype>audio</mediatype>
							<trackindex>7</trackindex>
							<clipindex>18</clipindex>
						</link>
						<logginginfo>
							<description></description>
							<scene></scene>
							<shottake></shottake>
							<lognote></lognote>
						</logginginfo>
						<labels>
							<label2>Iris</label2>
						</labels>
					</clipitem>
					<clipitem id="clipitem-547" frameBlend="FALSE">
						<masterclipid>masterclip-86</masterclipid>
						<name>MVI_0114.MOV</name>
						<enabled>TRUE</enabled>
						<duration>514</duration>
						<rate>
							<timebase>25</timebase>
							<ntsc>FALSE</ntsc>
						</rate>
						<start>13066</start>
						<end>13116</end>
						<in>172</in>
						<out>222</out>
						<alphatype>black</alphatype>
						<pixelaspectratio>square</pixelaspectratio>
						<anamorphic>FALSE</anamorphic>
						<file id="file-77">
							<name>MVI_0114.MOV</name>
							<pathurl>file://localhost/Volumes/Brakka/AdobeLager/Katta/Katta-14xxxx-Smart_eller_overvaaket-Chris/02-Video/COWI%20Varemesse%205D/DCIM/100EOS5D/MVI_0114.MOV</pathurl>
							<rate>
								<timebase>25</timebase>
								<ntsc>FALSE</ntsc>
							</rate>
							<duration>514</duration>
							<timecode>
								<rate>
									<timebase>25</timebase>
									<ntsc>FALSE</ntsc>
								</rate>
								<string>00:00:00:00</string>
								<frame>0</frame>
								<displayformat>NDF</displayformat>
								<reel>
									<name></name>
								</reel>
							</timecode>
							<media>
								<video>
									<duration>18000</duration>
									<samplecharacteristics>
										<rate>
											<timebase>25</timebase>
											<ntsc>FALSE</ntsc>
										</rate>
										<width>1920</width>
										<height>1080</height>
										<anamorphic>FALSE</anamorphic>
										<pixelaspectratio>square</pixelaspectratio>
										<fielddominance>none</fielddominance>
									</samplecharacteristics>
								</video>
								<audio>
									<samplecharacteristics>
										<depth>16</depth>
										<samplerate>48000</samplerate>
									</samplecharacteristics>
									<channelcount>2</channelcount>
								</audio>
							</media>
						</file>
						<logginginfo>
							<description></description>
							<scene></scene>
							<shottake></shottake>
							<lognote></lognote>
						</logginginfo>
						<labels>
							<label2>Iris</label2>
						</labels>
					</clipitem>
					<clipitem id="clipitem-548" frameBlend="FALSE">
						<masterclipid>masterclip-87</masterclipid>
						<name>AA016301.MXFCowi varemesse multi</name>
						<enabled>TRUE</enabled>
						<duration>4692</duration>
						<rate>
							<timebase>25</timebase>
							<ntsc>FALSE</ntsc>
						</rate>
						<start>13116</start>
						<end>13242</end>
						<in>692</in>
						<out>818</out>
						<sequence id="sequence-39">
							<duration>150</duration>
							<rate>
								<timebase>25</timebase>
								<ntsc>FALSE</ntsc>
							</rate>
							<name>AA016301.MXFCowi varemesse multi-1</name>
							<media>
								<video>
									<format>
										<samplecharacteristics>
											<rate>
												<timebase>25</timebase>
												<ntsc>FALSE</ntsc>
											</rate>
											<codec>
												<name>Apple ProRes 422</name>
												<appspecificdata>
													<appname>Final Cut Pro</appname>
													<appmanufacturer>Apple Inc.</appmanufacturer>
													<appversion>7.0</appversion>
													<data>
														<qtcodec>
															<codecname>Apple ProRes 422</codecname>
															<codectypename>Apple ProRes 422</codectypename>
															<codectypecode>apcn</codectypecode>
															<codecvendorcode>appl</codecvendorcode>
															<spatialquality>1024</spatialquality>
															<temporalquality>0</temporalquality>
															<keyframerate>0</keyframerate>
															<datarate>0</datarate>
														</qtcodec>
													</data>
												</appspecificdata>
											</codec>
											<width>1920</width>
											<height>1080</height>
											<anamorphic>FALSE</anamorphic>
											<pixelaspectratio>square</pixelaspectratio>
											<fielddominance>none</fielddominance>
											<colordepth>24</colordepth>
										</samplecharacteristics>
									</format>
									<track TL.SQTrackExpandedHeight="25" TL.SQTrackExpanded="0" MZ.TrackTargeted="0">
										<clipitem id="clipitem-551" frameBlend="FALSE">
											<masterclipid>masterclip-88</masterclipid>
											<name>AA016301.MXF</name>
											<enabled>TRUE</enabled>
											<duration>4692</duration>
											<rate>
												<timebase>25</timebase>
												<ntsc>FALSE</ntsc>
											</rate>
											<start>0</start>
											<end>4692</end>
											<in>0</in>
											<out>4692</out>
											<alphatype>none</alphatype>
											<file id="file-78"/>
											<logginginfo>
												<description></description>
												<scene></scene>
												<shottake>AA0163</shottake>
												<lognote></lognote>
											</logginginfo>
											<labels>
												<label2>Iris</label2>
											</labels>
										</clipitem>
										<enabled>TRUE</enabled>
										<locked>FALSE</locked>
									</track>
								</video>
								<audio>
									<format>
										<samplecharacteristics>
											<depth>16</depth>
											<samplerate>48000</samplerate>
										</samplecharacteristics>
									</format>
									<outputs>
										<group>
											<index>1</index>
											<numchannels>1</numchannels>
											<downmix>0</downmix>
											<channel>
												<index>1</index>
											</channel>
										</group>
										<group>
											<index>2</index>
											<numchannels>1</numchannels>
											<downmix>0</downmix>
											<channel>
												<index>2</index>
											</channel>
										</group>
										<group>
											<index>3</index>
											<numchannels>1</numchannels>
											<downmix>0</downmix>
											<channel>
												<index>3</index>
											</channel>
										</group>
										<group>
											<index>4</index>
											<numchannels>1</numchannels>
											<downmix>0</downmix>
											<channel>
												<index>4</index>
											</channel>
										</group>
									</outputs>
									<track TL.SQTrackExpandedHeight="25" TL.SQTrackExpanded="0" MZ.TrackTargeted="1" PannerCurrentValue="0.5" PannerIsInverted="true" PannerStartKeyframe="-91445760000000000,0.5,0,0,0,0,0,0" PannerName="Balance" currentExplodedTrackIndex="0" totalExplodedTrackCount="2" premiereTrackType="Stereo">
										<clipitem id="clipitem-549" frameBlend="FALSE" PannerCurrentValue="0.5" PannerKeyframes="" PannerStartKeyframe="-91445760000000000,0.5,0,0,0,0,0,0" PannerIsInverted="true" PannerName="Balance">
											<masterclipid>masterclip-88</masterclipid>
											<name>AA016301.MXF</name>
											<enabled>TRUE</enabled>
											<duration>4692</duration>
											<rate>
												<timebase>25</timebase>
												<ntsc>FALSE</ntsc>
											</rate>
											<start>0</start>
											<end>4692</end>
											<in>0</in>
											<out>4692</out>
											<pixelaspectratio>square</pixelaspectratio>
											<anamorphic>FALSE</anamorphic>
											<file id="file-78">
												<name>AA016301.MXF</name>
												<pathurl>file://localhost/Volumes/Brakka/AdobeLager/Katta/Katta-14xxxx-Smart_eller_overvaaket-Chris/02-Video/COWI%20Varemesse%20C300/CONTENTS/CLIPS001/AA0163/AA016301.MXF</pathurl>
												<rate>
													<timebase>25</timebase>
													<ntsc>FALSE</ntsc>
												</rate>
												<duration>4692</duration>
												<timecode>
													<rate>
														<timebase>25</timebase>
														<ntsc>FALSE</ntsc>
													</rate>
													<string>03:09:46:14</string>
													<frame>284664</frame>
													<displayformat>NDF</displayformat>
													<reel>
														<name></name>
													</reel>
												</timecode>
												<media>
													<video>
														<duration>18000</duration>
														<samplecharacteristics>
															<rate>
																<timebase>25</timebase>
																<ntsc>FALSE</ntsc>
															</rate>
															<width>1920</width>
															<height>1080</height>
															<anamorphic>FALSE</anamorphic>
															<pixelaspectratio>square</pixelaspectratio>
															<fielddominance>none</fielddominance>
														</samplecharacteristics>
													</video>
													<audio>
														<samplecharacteristics>
															<depth>16</depth>
															<samplerate>48000</samplerate>
														</samplecharacteristics>
														<channelcount>2</channelcount>
													</audio>
												</media>
											</file>
											<sourcetrack>
												<mediatype>audio</mediatype>
												<trackindex>1</trackindex>
											</sourcetrack>
												<filter>
													<effect>
														<name>Audio Pan</name>
														<effectid>audiopan</effectid>
														<effectcategory>audiopan</effectcategory>
														<effecttype>audiopan</effecttype>
														<mediatype>audio</mediatype>
														<parameter authoringApp="PremierePro">
															<parameterid>pan</parameterid>
															<name>Pan</name>
															<valuemin>-1</valuemin>
															<valuemax>1</valuemax>
															<value>0</value>
														</parameter>
													</effect>
												</filter>
											<logginginfo>
												<description></description>
												<scene></scene>
												<shottake>AA0163</shottake>
												<lognote></lognote>
											</logginginfo>
											<labels>
												<label2>Iris</label2>
											</labels>
										</clipitem>
										<enabled>TRUE</enabled>
										<locked>FALSE</locked>
										<outputchannelindex>1</outputchannelindex>
									</track>
									<track TL.SQTrackExpandedHeight="25" TL.SQTrackExpanded="0" MZ.TrackTargeted="1" PannerCurrentValue="0.5" PannerIsInverted="true" PannerStartKeyframe="-91445760000000000,0.5,0,0,0,0,0,0" PannerName="Balance" currentExplodedTrackIndex="1" totalExplodedTrackCount="2" premiereTrackType="Stereo">
										<clipitem id="clipitem-550" frameBlend="FALSE" PannerCurrentValue="0.5" PannerKeyframes="" PannerStartKeyframe="-91445760000000000,0.5,0,0,0,0,0,0" PannerIsInverted="true" PannerName="Balance">
											<masterclipid>masterclip-88</masterclipid>
											<name>AA016301.MXF</name>
											<enabled>TRUE</enabled>
											<duration>4692</duration>
											<rate>
												<timebase>25</timebase>
												<ntsc>FALSE</ntsc>
											</rate>
											<start>0</start>
											<end>4692</end>
											<in>0</in>
											<out>4692</out>
											<file id="file-78"/>
											<sourcetrack>
												<mediatype>audio</mediatype>
												<trackindex>2</trackindex>
											</sourcetrack>
												<filter>
													<effect>
														<name>Audio Pan</name>
														<effectid>audiopan</effectid>
														<effectcategory>audiopan</effectcategory>
														<effecttype>audiopan</effecttype>
														<mediatype>audio</mediatype>
														<parameter authoringApp="PremierePro">
															<parameterid>pan</parameterid>
															<name>Pan</name>
															<valuemin>-1</valuemin>
															<valuemax>1</valuemax>
															<value>0</value>
														</parameter>
													</effect>
												</filter>
											<logginginfo>
												<description></description>
												<scene></scene>
												<shottake>AA0163</shottake>
												<lognote></lognote>
											</logginginfo>
											<labels>
												<label2>Iris</label2>
											</labels>
										</clipitem>
										<enabled>TRUE</enabled>
										<locked>FALSE</locked>
										<outputchannelindex>2</outputchannelindex>
									</track>
								</audio>
							</media>
							<timecode>
								<rate>
									<timebase>25</timebase>
									<ntsc>FALSE</ntsc>
								</rate>
								<string>00:00:00:00</string>
								<frame>0</frame>
								<displayformat>NDF</displayformat>
							</timecode>
						</sequence>
							<marker>
								<comment>sier ifra ta den er i nￃﾦrheten av et bra tilbud</comment>
								<name></name>
								<in>1326</in>
								<out>-1</out>
							</marker>
						<labels>
							<label2>Forest</label2>
						</labels>
					</clipitem>
					<clipitem id="clipitem-555" frameBlend="FALSE">
						<masterclipid>masterclip-87</masterclipid>
						<name>AA016301.MXFCowi varemesse multi</name>
						<enabled>TRUE</enabled>
						<duration>4692</duration>
						<rate>
							<timebase>25</timebase>
							<ntsc>FALSE</ntsc>
						</rate>
						<start>13242</start>
						<end>13301</end>
						<in>818</in>
						<out>877</out>
						<sequence id="sequence-40">
							<duration>150</duration>
							<rate>
								<timebase>25</timebase>
								<ntsc>FALSE</ntsc>
							</rate>
							<name>AA016301.MXFCowi varemesse multi-2</name>
							<media>
								<video>
									<format>
										<samplecharacteristics>
											<rate>
												<timebase>25</timebase>
												<ntsc>FALSE</ntsc>
											</rate>
											<codec>
												<name>Apple ProRes 422</name>
												<appspecificdata>
													<appname>Final Cut Pro</appname>
													<appmanufacturer>Apple Inc.</appmanufacturer>
													<appversion>7.0</appversion>
													<data>
														<qtcodec>
															<codecname>Apple ProRes 422</codecname>
															<codectypename>Apple ProRes 422</codectypename>
															<codectypecode>apcn</codectypecode>
															<codecvendorcode>appl</codecvendorcode>
															<spatialquality>1024</spatialquality>
															<temporalquality>0</temporalquality>
															<keyframerate>0</keyframerate>
															<datarate>0</datarate>
														</qtcodec>
													</data>
												</appspecificdata>
											</codec>
											<width>1920</width>
											<height>1080</height>
											<anamorphic>FALSE</anamorphic>
											<pixelaspectratio>square</pixelaspectratio>
											<fielddominance>none</fielddominance>
											<colordepth>24</colordepth>
										</samplecharacteristics>
									</format>
									<track>
										<clipitem id="clipitem-554" frameBlend="FALSE">
											<masterclipid>masterclip-89</masterclipid>
											<name>MVI_0095.MOV</name>
											<enabled>TRUE</enabled>
											<duration>3929</duration>
											<rate>
												<timebase>25</timebase>
												<ntsc>FALSE</ntsc>
											</rate>
											<start>534</start>
											<end>4463</end>
											<in>0</in>
											<out>3929</out>
											<alphatype>black</alphatype>
											<file id="file-79"/>
											<logginginfo>
												<description></description>
												<scene></scene>
												<shottake></shottake>
												<lognote></lognote>
											</logginginfo>
											<labels>
												<label2>Iris</label2>
											</labels>
										</clipitem>
										<enabled>TRUE</enabled>
										<locked>FALSE</locked>
									</track>
								</video>
								<audio>
									<format>
										<samplecharacteristics>
											<depth>16</depth>
											<samplerate>48000</samplerate>
										</samplecharacteristics>
									</format>
									<outputs>
										<group>
											<index>1</index>
											<numchannels>1</numchannels>
											<downmix>0</downmix>
											<channel>
												<index>1</index>
											</channel>
										</group>
										<group>
											<index>2</index>
											<numchannels>1</numchannels>
											<downmix>0</downmix>
											<channel>
												<index>2</index>
											</channel>
										</group>
										<group>
											<index>3</index>
											<numchannels>1</numchannels>
											<downmix>0</downmix>
											<channel>
												<index>3</index>
											</channel>
										</group>
										<group>
											<index>4</index>
											<numchannels>1</numchannels>
											<downmix>0</downmix>
											<channel>
												<index>4</index>
											</channel>
										</group>
									</outputs>
									<track TL.SQTrackExpandedHeight="25" TL.SQTrackExpanded="0" MZ.TrackTargeted="1" PannerCurrentValue="0.5" PannerIsInverted="true" PannerStartKeyframe="-91445760000000000,0.5,0,0,0,0,0,0" PannerName="Balance" currentExplodedTrackIndex="0" totalExplodedTrackCount="2" premiereTrackType="Stereo">
										<clipitem id="clipitem-552" frameBlend="FALSE" PannerCurrentValue="0.5" PannerKeyframes="" PannerStartKeyframe="-91445760000000000,0.5,0,0,0,0,0,0" PannerIsInverted="true" PannerName="Balance">
											<masterclipid>masterclip-89</masterclipid>
											<name>MVI_0095.MOV</name>
											<enabled>TRUE</enabled>
											<duration>3929</duration>
											<rate>
												<timebase>25</timebase>
												<ntsc>FALSE</ntsc>
											</rate>
											<start>534</start>
											<end>4463</end>
											<in>0</in>
											<out>3929</out>
											<pixelaspectratio>square</pixelaspectratio>
											<anamorphic>FALSE</anamorphic>
											<file id="file-79">
												<name>MVI_0095.MOV</name>
												<pathurl>file://localhost/Volumes/Brakka/AdobeLager/Katta/Katta-14xxxx-Smart_eller_overvaaket-Chris/02-Video/COWI%20Varemesse%205D/DCIM/100EOS5D/MVI_0095.MOV</pathurl>
												<rate>
													<timebase>25</timebase>
													<ntsc>FALSE</ntsc>
												</rate>
												<duration>3929</duration>
												<timecode>
													<rate>
														<timebase>25</timebase>
														<ntsc>FALSE</ntsc>
													</rate>
													<string>00:00:00:00</string>
													<frame>0</frame>
													<displayformat>NDF</displayformat>
													<reel>
														<name></name>
													</reel>
												</timecode>
												<media>
													<video>
														<duration>18000</duration>
														<samplecharacteristics>
															<rate>
																<timebase>25</timebase>
																<ntsc>FALSE</ntsc>
															</rate>
															<width>1920</width>
															<height>1080</height>
															<anamorphic>FALSE</anamorphic>
															<pixelaspectratio>square</pixelaspectratio>
															<fielddominance>none</fielddominance>
														</samplecharacteristics>
													</video>
													<audio>
														<samplecharacteristics>
															<depth>16</depth>
															<samplerate>48000</samplerate>
														</samplecharacteristics>
														<channelcount>2</channelcount>
													</audio>
												</media>
											</file>
											<sourcetrack>
												<mediatype>audio</mediatype>
												<trackindex>1</trackindex>
											</sourcetrack>
												<filter>
													<effect>
														<name>Audio Pan</name>
														<effectid>audiopan</effectid>
														<effectcategory>audiopan</effectcategory>
														<effecttype>audiopan</effecttype>
														<mediatype>audio</mediatype>
														<parameter authoringApp="PremierePro">
															<parameterid>pan</parameterid>
															<name>Pan</name>
															<valuemin>-1</valuemin>
															<valuemax>1</valuemax>
															<value>0</value>
														</parameter>
													</effect>
												</filter>
											<logginginfo>
												<description></description>
												<scene></scene>
												<shottake></shottake>
												<lognote></lognote>
											</logginginfo>
											<labels>
												<label2>Iris</label2>
											</labels>
										</clipitem>
										<enabled>TRUE</enabled>
										<locked>FALSE</locked>
										<outputchannelindex>3</outputchannelindex>
									</track>
									<track TL.SQTrackExpandedHeight="25" TL.SQTrackExpanded="0" MZ.TrackTargeted="1" PannerCurrentValue="0.5" PannerIsInverted="true" PannerStartKeyframe="-91445760000000000,0.5,0,0,0,0,0,0" PannerName="Balance" currentExplodedTrackIndex="1" totalExplodedTrackCount="2" premiereTrackType="Stereo">
										<clipitem id="clipitem-553" frameBlend="FALSE" PannerCurrentValue="0.5" PannerKeyframes="" PannerStartKeyframe="-91445760000000000,0.5,0,0,0,0,0,0" PannerIsInverted="true" PannerName="Balance">
											<masterclipid>masterclip-89</masterclipid>
											<name>MVI_0095.MOV</name>
											<enabled>TRUE</enabled>
											<duration>3929</duration>
											<rate>
												<timebase>25</timebase>
												<ntsc>FALSE</ntsc>
											</rate>
											<start>534</start>
											<end>4463</end>
											<in>0</in>
											<out>3929</out>
											<file id="file-79"/>
											<sourcetrack>
												<mediatype>audio</mediatype>
												<trackindex>2</trackindex>
											</sourcetrack>
												<filter>
													<effect>
														<name>Audio Pan</name>
														<effectid>audiopan</effectid>
														<effectcategory>audiopan</effectcategory>
														<effecttype>audiopan</effecttype>
														<mediatype>audio</mediatype>
														<parameter authoringApp="PremierePro">
															<parameterid>pan</parameterid>
															<name>Pan</name>
															<valuemin>-1</valuemin>
															<valuemax>1</valuemax>
															<value>0</value>
														</parameter>
													</effect>
												</filter>
											<logginginfo>
												<description></description>
												<scene></scene>
												<shottake></shottake>
												<lognote></lognote>
											</logginginfo>
											<labels>
												<label2>Iris</label2>
											</labels>
										</clipitem>
										<enabled>TRUE</enabled>
										<locked>FALSE</locked>
										<outputchannelindex>4</outputchannelindex>
									</track>
								</audio>
							</media>
							<timecode>
								<rate>
									<timebase>25</timebase>
									<ntsc>FALSE</ntsc>
								</rate>
								<string>00:00:00:00</string>
								<frame>0</frame>
								<displayformat>NDF</displayformat>
							</timecode>
						</sequence>
							<marker>
								<comment>sier ifra ta den er i nￃﾦrheten av et bra tilbud</comment>
								<name></name>
								<in>1326</in>
								<out>-1</out>
							</marker>
						<labels>
							<label2>Forest</label2>
						</labels>
					</clipitem>
					<clipitem id="clipitem-556" frameBlend="FALSE">
						<masterclipid>masterclip-90</masterclipid>
						<name>AA021101.MXF</name>
						<enabled>TRUE</enabled>
						<duration>576</duration>
						<rate>
							<timebase>25</timebase>
							<ntsc>FALSE</ntsc>
						</rate>
						<start>13301</start>
						<end>13373</end>
						<in>291</in>
						<out>363</out>
						<alphatype>none</alphatype>
						<pixelaspectratio>square</pixelaspectratio>
						<anamorphic>FALSE</anamorphic>
						<file id="file-80">
							<name>AA021101.MXF</name>
							<pathurl>file://localhost/Volumes/Brakka/AdobeLager/Katta/Katta-14xxxx-Smart_eller_overvaaket-Chris/02-Video/COWI%20Varemesse%20C300/CONTENTS/CLIPS001/AA0211/AA021101.MXF</pathurl>
							<rate>
								<timebase>25</timebase>
								<ntsc>FALSE</ntsc>
							</rate>
							<duration>576</duration>
							<timecode>
								<rate>
									<timebase>25</timebase>
									<ntsc>FALSE</ntsc>
								</rate>
								<string>04:03:00:12</string>
								<frame>364512</frame>
								<displayformat>NDF</displayformat>
								<reel>
									<name></name>
								</reel>
							</timecode>
							<media>
								<video>
									<duration>18000</duration>
									<samplecharacteristics>
										<rate>
											<timebase>25</timebase>
											<ntsc>FALSE</ntsc>
										</rate>
										<width>1920</width>
										<height>1080</height>
										<anamorphic>FALSE</anamorphic>
										<pixelaspectratio>square</pixelaspectratio>
										<fielddominance>none</fielddominance>
									</samplecharacteristics>
								</video>
								<audio>
									<samplecharacteristics>
										<depth>16</depth>
										<samplerate>48000</samplerate>
									</samplecharacteristics>
									<channelcount>1</channelcount>
									<layout>mono</layout>
									<audiochannel>
										<sourcechannel>1</sourcechannel>
										<channellabel>discrete</channellabel>
									</audiochannel>
								</audio>
								<audio>
									<samplecharacteristics>
										<depth>16</depth>
										<samplerate>48000</samplerate>
									</samplecharacteristics>
									<channelcount>1</channelcount>
									<layout>mono</layout>
									<audiochannel>
										<sourcechannel>2</sourcechannel>
										<channellabel>discrete</channellabel>
									</audiochannel>
								</audio>
							</media>
						</file>
						<logginginfo>
							<description></description>
							<scene></scene>
							<shottake>AA0211</shottake>
							<lognote></lognote>
						</logginginfo>
						<labels>
							<label2>Iris</label2>
						</labels>
					</clipitem>
					<clipitem id="clipitem-557" frameBlend="FALSE">
						<masterclipid>masterclip-91</masterclipid>
						<name>AA016701.MXF</name>
						<enabled>TRUE</enabled>
						<duration>7344</duration>
						<rate>
							<timebase>25</timebase>
							<ntsc>FALSE</ntsc>
						</rate>
						<start>13373</start>
						<end>13457</end>
						<in>1514</in>
						<out>1598</out>
						<alphatype>none</alphatype>
						<pixelaspectratio>square</pixelaspectratio>
						<anamorphic>FALSE</anamorphic>
						<file id="file-81">
							<name>AA016701.MXF</name>
							<pathurl>file://localhost/Volumes/Brakka/AdobeLager/Katta/Katta-14xxxx-Smart_eller_overvaaket-Chris/02-Video/COWI%20Varemesse%20C300/CONTENTS/CLIPS001/AA0167/AA016701.MXF</pathurl>
							<rate>
								<timebase>25</timebase>
								<ntsc>FALSE</ntsc>
							</rate>
							<duration>7344</duration>
							<timecode>
								<rate>
									<timebase>25</timebase>
									<ntsc>FALSE</ntsc>
								</rate>
								<string>03:13:42:06</string>
								<frame>290556</frame>
								<displayformat>NDF</displayformat>
								<reel>
									<name></name>
								</reel>
							</timecode>
							<media>
								<video>
									<duration>18000</duration>
									<samplecharacteristics>
										<rate>
											<timebase>25</timebase>
											<ntsc>FALSE</ntsc>
										</rate>
										<width>1920</width>
										<height>1080</height>
										<anamorphic>FALSE</anamorphic>
										<pixelaspectratio>square</pixelaspectratio>
										<fielddominance>none</fielddominance>
									</samplecharacteristics>
								</video>
								<audio>
									<samplecharacteristics>
										<depth>16</depth>
										<samplerate>48000</samplerate>
									</samplecharacteristics>
									<channelcount>2</channelcount>
								</audio>
							</media>
						</file>
						<link>
							<linkclipref>clipitem-557</linkclipref>
							<mediatype>video</mediatype>
							<trackindex>1</trackindex>
							<clipindex>111</clipindex>
						</link>
						<link>
							<linkclipref>clipitem-1531</linkclipref>
							<mediatype>audio</mediatype>
							<trackindex>5</trackindex>
							<clipindex>26</clipindex>
						</link>
						<link>
							<linkclipref>clipitem-1604</linkclipref>
							<mediatype>audio</mediatype>
							<trackindex>7</trackindex>
							<clipindex>21</clipindex>
						</link>
						<logginginfo>
							<description></description>
							<scene></scene>
							<shottake>AA0167</shottake>
							<lognote></lognote>
						</logginginfo>
						<labels>
							<label2>Iris</label2>
						</labels>
					</clipitem>
					<clipitem id="clipitem-558" frameBlend="FALSE">
						<masterclipid>masterclip-91</masterclipid>
						<name>AA016701.MXF</name>
						<enabled>TRUE</enabled>
						<duration>7344</duration>
						<rate>
							<timebase>25</timebase>
							<ntsc>FALSE</ntsc>
						</rate>
						<start>13457</start>
						<end>13539</end>
						<in>1967</in>
						<out>2049</out>
						<alphatype>none</alphatype>
						<file id="file-81"/>
						<link>
							<linkclipref>clipitem-558</linkclipref>
							<mediatype>video</mediatype>
							<trackindex>1</trackindex>
							<clipindex>112</clipindex>
						</link>
						<link>
							<linkclipref>clipitem-1532</linkclipref>
							<mediatype>audio</mediatype>
							<trackindex>5</trackindex>
							<clipindex>27</clipindex>
						</link>
						<link>
							<linkclipref>clipitem-1605</linkclipref>
							<mediatype>audio</mediatype>
							<trackindex>7</trackindex>
							<clipindex>22</clipindex>
						</link>
						<logginginfo>
							<description></description>
							<scene></scene>
							<shottake>AA0167</shottake>
							<lognote></lognote>
						</logginginfo>
						<labels>
							<label2>Iris</label2>
						</labels>
					</clipitem>
					<clipitem id="clipitem-559" frameBlend="FALSE">
						<masterclipid>masterclip-92</masterclipid>
						<name>AA016701.MXFCowi varemesse multi</name>
						<enabled>TRUE</enabled>
						<duration>8897</duration>
						<rate>
							<timebase>25</timebase>
							<ntsc>FALSE</ntsc>
						</rate>
						<start>13539</start>
						<end>13670</end>
						<in>3060</in>
						<out>3191</out>
						<sequence id="sequence-43">
							<duration>150</duration>
							<rate>
								<timebase>25</timebase>
								<ntsc>FALSE</ntsc>
							</rate>
							<name>AA016701.MXFCowi varemesse multi-1</name>
							<media>
								<video>
									<format>
										<samplecharacteristics>
											<rate>
												<timebase>25</timebase>
												<ntsc>FALSE</ntsc>
											</rate>
											<codec>
												<name>Apple ProRes 422</name>
												<appspecificdata>
													<appname>Final Cut Pro</appname>
													<appmanufacturer>Apple Inc.</appmanufacturer>
													<appversion>7.0</appversion>
													<data>
														<qtcodec>
															<codecname>Apple ProRes 422</codecname>
															<codectypename>Apple ProRes 422</codectypename>
															<codectypecode>apcn</codectypecode>
															<codecvendorcode>appl</codecvendorcode>
															<spatialquality>1024</spatialquality>
															<temporalquality>0</temporalquality>
															<keyframerate>0</keyframerate>
															<datarate>0</datarate>
														</qtcodec>
													</data>
												</appspecificdata>
											</codec>
											<width>1920</width>
											<height>1080</height>
											<anamorphic>FALSE</anamorphic>
											<pixelaspectratio>square</pixelaspectratio>
											<fielddominance>none</fielddominance>
											<colordepth>24</colordepth>
										</samplecharacteristics>
									</format>
									<track TL.SQTrackShy="0" TL.SQTrackExpandedHeight="50" TL.SQTrackExpanded="1" MZ.TrackTargeted="0">
										<clipitem id="clipitem-562" frameBlend="FALSE">
											<masterclipid>masterclip-93</masterclipid>
											<name>AA016701.MXF</name>
											<enabled>TRUE</enabled>
											<duration>7344</duration>
											<rate>
												<timebase>25</timebase>
												<ntsc>FALSE</ntsc>
											</rate>
											<start>0</start>
											<end>7344</end>
											<in>0</in>
											<out>7344</out>
											<alphatype>none</alphatype>
											<file id="file-82"/>
											<logginginfo>
												<description></description>
												<scene></scene>
												<shottake>AA0167</shottake>
												<lognote></lognote>
											</logginginfo>
											<labels>
												<label2>Iris</label2>
											</labels>
										</clipitem>
										<enabled>TRUE</enabled>
										<locked>FALSE</locked>
									</track>
								</video>
								<audio>
									<format>
										<samplecharacteristics>
											<depth>16</depth>
											<samplerate>48000</samplerate>
										</samplecharacteristics>
									</format>
									<outputs>
										<group>
											<index>1</index>
											<numchannels>1</numchannels>
											<downmix>0</downmix>
											<channel>
												<index>1</index>
											</channel>
										</group>
										<group>
											<index>2</index>
											<numchannels>1</numchannels>
											<downmix>0</downmix>
											<channel>
												<index>2</index>
											</channel>
										</group>
										<group>
											<index>3</index>
											<numchannels>1</numchannels>
											<downmix>0</downmix>
											<channel>
												<index>3</index>
											</channel>
										</group>
										<group>
											<index>4</index>
											<numchannels>1</numchannels>
											<downmix>0</downmix>
											<channel>
												<index>4</index>
											</channel>
										</group>
										<group>
											<index>5</index>
											<numchannels>1</numchannels>
											<downmix>0</downmix>
											<channel>
												<index>5</index>
											</channel>
										</group>
										<group>
											<index>6</index>
											<numchannels>1</numchannels>
											<downmix>0</downmix>
											<channel>
												<index>6</index>
											</channel>
										</group>
										<group>
											<index>7</index>
											<numchannels>1</numchannels>
											<downmix>0</downmix>
											<channel>
												<index>7</index>
											</channel>
										</group>
										<group>
											<index>8</index>
											<numchannels>1</numchannels>
											<downmix>0</downmix>
											<channel>
												<index>8</index>
											</channel>
										</group>
										<group>
											<index>9</index>
											<numchannels>1</numchannels>
											<downmix>0</downmix>
											<channel>
												<index>9</index>
											</channel>
										</group>
										<group>
											<index>10</index>
											<numchannels>1</numchannels>
											<downmix>0</downmix>
											<channel>
												<index>10</index>
											</channel>
										</group>
									</outputs>
									<track TL.SQTrackAudioKeyframeStyle="0" TL.SQTrackShy="0" TL.SQTrackExpandedHeight="25" TL.SQTrackExpanded="0" MZ.TrackTargeted="1" PannerCurrentValue="0.5" PannerIsInverted="true" PannerStartKeyframe="-91445760000000000,0.5,0,0,0,0,0,0" PannerName="Balance" currentExplodedTrackIndex="0" totalExplodedTrackCount="2" premiereTrackType="Stereo">
										<clipitem id="clipitem-560" frameBlend="FALSE" PannerCurrentValue="0.5" PannerKeyframes="" PannerStartKeyframe="-91445760000000000,0.5,0,0,0,0,0,0" PannerIsInverted="true" PannerName="Balance">
											<masterclipid>masterclip-93</masterclipid>
											<name>AA016701.MXF</name>
											<enabled>TRUE</enabled>
											<duration>7344</duration>
											<rate>
												<timebase>25</timebase>
												<ntsc>FALSE</ntsc>
											</rate>
											<start>0</start>
											<end>7344</end>
											<in>0</in>
											<out>7344</out>
											<pixelaspectratio>square</pixelaspectratio>
											<anamorphic>FALSE</anamorphic>
											<file id="file-82">
												<name>AA016701.MXF</name>
												<pathurl>file://localhost/Volumes/Brakka/AdobeLager/Katta/Katta-14xxxx-Smart_eller_overvaaket-Chris/02-Video/COWI%20Varemesse%20C300/CONTENTS/CLIPS001/AA0167/AA016701.MXF</pathurl>
												<rate>
													<timebase>25</timebase>
													<ntsc>FALSE</ntsc>
												</rate>
												<duration>7344</duration>
												<timecode>
													<rate>
														<timebase>25</timebase>
														<ntsc>FALSE</ntsc>
													</rate>
													<string>03:13:42:06</string>
													<frame>290556</frame>
													<displayformat>NDF</displayformat>
													<reel>
														<name></name>
													</reel>
												</timecode>
												<media>
													<video>
														<duration>18000</duration>
														<samplecharacteristics>
															<rate>
																<timebase>25</timebase>
																<ntsc>FALSE</ntsc>
															</rate>
															<width>1920</width>
															<height>1080</height>
															<anamorphic>FALSE</anamorphic>
															<pixelaspectratio>square</pixelaspectratio>
															<fielddominance>none</fielddominance>
														</samplecharacteristics>
													</video>
													<audio>
														<samplecharacteristics>
															<depth>16</depth>
															<samplerate>48000</samplerate>
														</samplecharacteristics>
														<channelcount>2</channelcount>
													</audio>
												</media>
											</file>
											<sourcetrack>
												<mediatype>audio</mediatype>
												<trackindex>1</trackindex>
											</sourcetrack>
												<filter>
													<effect>
														<name>Audio Pan</name>
														<effectid>audiopan</effectid>
														<effectcategory>audiopan</effectcategory>
														<effecttype>audiopan</effecttype>
														<mediatype>audio</mediatype>
														<parameter authoringApp="PremierePro">
															<parameterid>pan</parameterid>
															<name>Pan</name>
															<valuemin>-1</valuemin>
															<valuemax>1</valuemax>
															<value>0</value>
														</parameter>
													</effect>
												</filter>
											<logginginfo>
												<description></description>
												<scene></scene>
												<shottake>AA0167</shottake>
												<lognote></lognote>
											</logginginfo>
											<labels>
												<label2>Iris</label2>
											</labels>
										</clipitem>
										<enabled>TRUE</enabled>
										<locked>FALSE</locked>
										<outputchannelindex>1</outputchannelindex>
									</track>
									<track TL.SQTrackAudioKeyframeStyle="0" TL.SQTrackShy="0" TL.SQTrackExpandedHeight="25" TL.SQTrackExpanded="0" MZ.TrackTargeted="1" PannerCurrentValue="0.5" PannerIsInverted="true" PannerStartKeyframe="-91445760000000000,0.5,0,0,0,0,0,0" PannerName="Balance" currentExplodedTrackIndex="1" totalExplodedTrackCount="2" premiereTrackType="Stereo">
										<clipitem id="clipitem-561" frameBlend="FALSE" PannerCurrentValue="0.5" PannerKeyframes="" PannerStartKeyframe="-91445760000000000,0.5,0,0,0,0,0,0" PannerIsInverted="true" PannerName="Balance">
											<masterclipid>masterclip-93</masterclipid>
											<name>AA016701.MXF</name>
											<enabled>TRUE</enabled>
											<duration>7344</duration>
											<rate>
												<timebase>25</timebase>
												<ntsc>FALSE</ntsc>
											</rate>
											<start>0</start>
											<end>7344</end>
											<in>0</in>
											<out>7344</out>
											<file id="file-82"/>
											<sourcetrack>
												<mediatype>audio</mediatype>
												<trackindex>2</trackindex>
											</sourcetrack>
												<filter>
													<effect>
														<name>Audio Pan</name>
														<effectid>audiopan</effectid>
														<effectcategory>audiopan</effectcategory>
														<effecttype>audiopan</effecttype>
														<mediatype>audio</mediatype>
														<parameter authoringApp="PremierePro">
															<parameterid>pan</parameterid>
															<name>Pan</name>
															<valuemin>-1</valuemin>
															<valuemax>1</valuemax>
															<value>0</value>
														</parameter>
													</effect>
												</filter>
											<logginginfo>
												<description></description>
												<scene></scene>
												<shottake>AA0167</shottake>
												<lognote></lognote>
											</logginginfo>
											<labels>
												<label2>Iris</label2>
											</labels>
										</clipitem>
										<enabled>TRUE</enabled>
										<locked>FALSE</locked>
										<outputchannelindex>2</outputchannelindex>
									</track>
								</audio>
							</media>
							<timecode>
								<rate>
									<timebase>25</timebase>
									<ntsc>FALSE</ntsc>
								</rate>
								<string>00:00:00:00</string>
								<frame>0</frame>
								<displayformat>NDF</displayformat>
							</timecode>
						</sequence>
							<marker>
								<comment></comment>
								<name></name>
								<in>2858</in>
								<out>-1</out>
							</marker>
						<link>
							<linkclipref>clipitem-559</linkclipref>
							<mediatype>video</mediatype>
							<trackindex>1</trackindex>
							<clipindex>113</clipindex>
						</link>
						<link>
							<linkclipref>clipitem-1082</linkclipref>
							<mediatype>audio</mediatype>
							<trackindex>1</trackindex>
							<clipindex>62</clipindex>
						</link>
						<link>
							<linkclipref>clipitem-1405</linkclipref>
							<mediatype>audio</mediatype>
							<trackindex>3</trackindex>
							<clipindex>50</clipindex>
						</link>
						<labels>
							<label2>Forest</label2>
						</labels>
					</clipitem>
					<clipitem id="clipitem-572" frameBlend="FALSE">
						<masterclipid>masterclip-92</masterclipid>
						<name>AA016701.MXFCowi varemesse multi</name>
						<enabled>TRUE</enabled>
						<duration>8897</duration>
						<rate>
							<timebase>25</timebase>
							<ntsc>FALSE</ntsc>
						</rate>
						<start>13670</start>
						<end>13751</end>
						<in>2462</in>
						<out>2543</out>
						<sequence id="sequence-46">
							<duration>150</duration>
							<rate>
								<timebase>25</timebase>
								<ntsc>FALSE</ntsc>
							</rate>
							<name>AA016701.MXFCowi varemesse multi-4</name>
							<media>
								<video>
									<format>
										<samplecharacteristics>
											<rate>
												<timebase>25</timebase>
												<ntsc>FALSE</ntsc>
											</rate>
											<codec>
												<name>Apple ProRes 422</name>
												<appspecificdata>
													<appname>Final Cut Pro</appname>
													<appmanufacturer>Apple Inc.</appmanufacturer>
													<appversion>7.0</appversion>
													<data>
														<qtcodec>
															<codecname>Apple ProRes 422</codecname>
															<codectypename>Apple ProRes 422</codectypename>
															<codectypecode>apcn</codectypecode>
															<codecvendorcode>appl</codecvendorcode>
															<spatialquality>1024</spatialquality>
															<temporalquality>0</temporalquality>
															<keyframerate>0</keyframerate>
															<datarate>0</datarate>
														</qtcodec>
													</data>
												</appspecificdata>
											</codec>
											<width>1920</width>
											<height>1080</height>
											<anamorphic>FALSE</anamorphic>
											<pixelaspectratio>square</pixelaspectratio>
											<fielddominance>none</fielddominance>
											<colordepth>24</colordepth>
										</samplecharacteristics>
									</format>
									<track TL.SQTrackShy="0" TL.SQTrackExpandedHeight="25" TL.SQTrackExpanded="0" MZ.TrackTargeted="0">
										<clipitem id="clipitem-571" frameBlend="FALSE">
											<masterclipid>masterclip-96</masterclipid>
											<name>MVI_0098.MOV</name>
											<enabled>TRUE</enabled>
											<duration>8656</duration>
											<rate>
												<timebase>25</timebase>
												<ntsc>FALSE</ntsc>
											</rate>
											<start>6</start>
											<end>8662</end>
											<in>0</in>
											<out>8656</out>
											<alphatype>black</alphatype>
											<file id="file-85"/>
											<logginginfo>
												<description></description>
												<scene></scene>
												<shottake></shottake>
												<lognote></lognote>
											</logginginfo>
											<labels>
												<label2>Iris</label2>
											</labels>
										</clipitem>
										<enabled>TRUE</enabled>
										<locked>FALSE</locked>
									</track>
								</video>
								<audio>
									<format>
										<samplecharacteristics>
											<depth>16</depth>
											<samplerate>48000</samplerate>
										</samplecharacteristics>
									</format>
									<outputs>
										<group>
											<index>1</index>
											<numchannels>1</numchannels>
											<downmix>0</downmix>
											<channel>
												<index>1</index>
											</channel>
										</group>
										<group>
											<index>2</index>
											<numchannels>1</numchannels>
											<downmix>0</downmix>
											<channel>
												<index>2</index>
											</channel>
										</group>
										<group>
											<index>3</index>
											<numchannels>1</numchannels>
											<downmix>0</downmix>
											<channel>
												<index>3</index>
											</channel>
										</group>
										<group>
											<index>4</index>
											<numchannels>1</numchannels>
											<downmix>0</downmix>
											<channel>
												<index>4</index>
											</channel>
										</group>
										<group>
											<index>5</index>
											<numchannels>1</numchannels>
											<downmix>0</downmix>
											<channel>
												<index>5</index>
											</channel>
										</group>
										<group>
											<index>6</index>
											<numchannels>1</numchannels>
											<downmix>0</downmix>
											<channel>
												<index>6</index>
											</channel>
										</group>
										<group>
											<index>7</index>
											<numchannels>1</numchannels>
											<downmix>0</downmix>
											<channel>
												<index>7</index>
											</channel>
										</group>
										<group>
											<index>8</index>
											<numchannels>1</numchannels>
											<downmix>0</downmix>
											<channel>
												<index>8</index>
											</channel>
										</group>
										<group>
											<index>9</index>
											<numchannels>1</numchannels>
											<downmix>0</downmix>
											<channel>
												<index>9</index>
											</channel>
										</group>
										<group>
											<index>10</index>
											<numchannels>1</numchannels>
											<downmix>0</downmix>
											<channel>
												<index>10</index>
											</channel>
										</group>
									</outputs>
									<track TL.SQTrackAudioKeyframeStyle="0" TL.SQTrackShy="0" TL.SQTrackExpandedHeight="25" TL.SQTrackExpanded="0" MZ.TrackTargeted="0" PannerCurrentValue="0.5" PannerIsInverted="true" PannerStartKeyframe="-91445760000000000,0.5,0,0,0,0,0,0" PannerName="Balance" currentExplodedTrackIndex="0" totalExplodedTrackCount="2" premiereTrackType="Stereo">
										<clipitem id="clipitem-569" frameBlend="FALSE" PannerCurrentValue="0.5" PannerKeyframes="" PannerStartKeyframe="-91445760000000000,0.5,0,0,0,0,0,0" PannerIsInverted="true" PannerName="Balance">
											<masterclipid>masterclip-96</masterclipid>
											<name>MVI_0098.MOV</name>
											<enabled>TRUE</enabled>
											<duration>8656</duration>
											<rate>
												<timebase>25</timebase>
												<ntsc>FALSE</ntsc>
											</rate>
											<start>6</start>
											<end>8662</end>
											<in>0</in>
											<out>8656</out>
											<pixelaspectratio>square</pixelaspectratio>
											<anamorphic>FALSE</anamorphic>
											<file id="file-85">
												<name>MVI_0098.MOV</name>
												<pathurl>file://localhost/Volumes/Brakka/AdobeLager/Katta/Katta-14xxxx-Smart_eller_overvaaket-Chris/02-Video/COWI%20Varemesse%205D/DCIM/100EOS5D/MVI_0098.MOV</pathurl>
												<rate>
													<timebase>25</timebase>
													<ntsc>FALSE</ntsc>
												</rate>
												<duration>8656</duration>
												<timecode>
													<rate>
														<timebase>25</timebase>
														<ntsc>FALSE</ntsc>
													</rate>
													<string>00:00:00:00</string>
													<frame>0</frame>
													<displayformat>NDF</displayformat>
													<reel>
														<name></name>
													</reel>
												</timecode>
												<media>
													<video>
														<duration>18000</duration>
														<samplecharacteristics>
															<rate>
																<timebase>25</timebase>
																<ntsc>FALSE</ntsc>
															</rate>
															<width>1920</width>
															<height>1080</height>
															<anamorphic>FALSE</anamorphic>
															<pixelaspectratio>square</pixelaspectratio>
															<fielddominance>none</fielddominance>
														</samplecharacteristics>
													</video>
													<audio>
														<samplecharacteristics>
															<depth>16</depth>
															<samplerate>48000</samplerate>
														</samplecharacteristics>
														<channelcount>2</channelcount>
													</audio>
												</media>
											</file>
											<sourcetrack>
												<mediatype>audio</mediatype>
												<trackindex>1</trackindex>
											</sourcetrack>
												<filter>
													<effect>
														<name>Audio Pan</name>
														<effectid>audiopan</effectid>
														<effectcategory>audiopan</effectcategory>
														<effecttype>audiopan</effecttype>
														<mediatype>audio</mediatype>
														<parameter authoringApp="PremierePro">
															<parameterid>pan</parameterid>
															<name>Pan</name>
															<valuemin>-1</valuemin>
															<valuemax>1</valuemax>
															<value>0</value>
														</parameter>
													</effect>
												</filter>
											<logginginfo>
												<description></description>
												<scene></scene>
												<shottake></shottake>
												<lognote></lognote>
											</logginginfo>
											<labels>
												<label2>Iris</label2>
											</labels>
										</clipitem>
										<enabled>TRUE</enabled>
										<locked>FALSE</locked>
										<outputchannelindex>7</outputchannelindex>
									</track>
									<track TL.SQTrackAudioKeyframeStyle="0" TL.SQTrackShy="0" TL.SQTrackExpandedHeight="25" TL.SQTrackExpanded="0" MZ.TrackTargeted="0" PannerCurrentValue="0.5" PannerIsInverted="true" PannerStartKeyframe="-91445760000000000,0.5,0,0,0,0,0,0" PannerName="Balance" currentExplodedTrackIndex="1" totalExplodedTrackCount="2" premiereTrackType="Stereo">
										<clipitem id="clipitem-570" frameBlend="FALSE" PannerCurrentValue="0.5" PannerKeyframes="" PannerStartKeyframe="-91445760000000000,0.5,0,0,0,0,0,0" PannerIsInverted="true" PannerName="Balance">
											<masterclipid>masterclip-96</masterclipid>
											<name>MVI_0098.MOV</name>
											<enabled>TRUE</enabled>
											<duration>8656</duration>
											<rate>
												<timebase>25</timebase>
												<ntsc>FALSE</ntsc>
											</rate>
											<start>6</start>
											<end>8662</end>
											<in>0</in>
											<out>8656</out>
											<file id="file-85"/>
											<sourcetrack>
												<mediatype>audio</mediatype>
												<trackindex>2</trackindex>
											</sourcetrack>
												<filter>
													<effect>
														<name>Audio Pan</name>
														<effectid>audiopan</effectid>
														<effectcategory>audiopan</effectcategory>
														<effecttype>audiopan</effecttype>
														<mediatype>audio</mediatype>
														<parameter authoringApp="PremierePro">
															<parameterid>pan</parameterid>
															<name>Pan</name>
															<valuemin>-1</valuemin>
															<valuemax>1</valuemax>
															<value>0</value>
														</parameter>
													</effect>
												</filter>
											<logginginfo>
												<description></description>
												<scene></scene>
												<shottake></shottake>
												<lognote></lognote>
											</logginginfo>
											<labels>
												<label2>Iris</label2>
											</labels>
										</clipitem>
										<enabled>TRUE</enabled>
										<locked>FALSE</locked>
										<outputchannelindex>8</outputchannelindex>
									</track>
								</audio>
							</media>
							<timecode>
								<rate>
									<timebase>25</timebase>
									<ntsc>FALSE</ntsc>
								</rate>
								<string>00:00:00:00</string>
								<frame>0</frame>
								<displayformat>NDF</displayformat>
							</timecode>
						</sequence>
							<marker>
								<comment></comment>
								<name></name>
								<in>2858</in>
								<out>-1</out>
							</marker>
						<link>
							<linkclipref>clipitem-572</linkclipref>
							<mediatype>video</mediatype>
							<trackindex>1</trackindex>
							<clipindex>114</clipindex>
						</link>
						<link>
							<linkclipref>clipitem-1098</linkclipref>
							<mediatype>audio</mediatype>
							<trackindex>1</trackindex>
							<clipindex>63</clipindex>
						</link>
						<link>
							<linkclipref>clipitem-1406</linkclipref>
							<mediatype>audio</mediatype>
							<trackindex>3</trackindex>
							<clipindex>51</clipindex>
						</link>
						<labels>
							<label2>Forest</label2>
						</labels>
					</clipitem>
					<clipitem id="clipitem-573" frameBlend="FALSE">
						<masterclipid>masterclip-92</masterclipid>
						<name>AA016701.MXFCowi varemesse multi</name>
						<enabled>TRUE</enabled>
						<duration>8897</duration>
						<rate>
							<timebase>25</timebase>
							<ntsc>FALSE</ntsc>
						</rate>
						<start>13751</start>
						<end>14007</end>
						<in>3242</in>
						<out>3498</out>
						<sequence id="sequence-43"/>
							<marker>
								<comment></comment>
								<name></name>
								<in>2858</in>
								<out>-1</out>
							</marker>
						<link>
							<linkclipref>clipitem-573</linkclipref>
							<mediatype>video</mediatype>
							<trackindex>1</trackindex>
							<clipindex>115</clipindex>
						</link>
						<link>
							<linkclipref>clipitem-1099</linkclipref>
							<mediatype>audio</mediatype>
							<trackindex>1</trackindex>
							<clipindex>64</clipindex>
						</link>
						<link>
							<linkclipref>clipitem-1407</linkclipref>
							<mediatype>audio</mediatype>
							<trackindex>3</trackindex>
							<clipindex>52</clipindex>
						</link>
						<labels>
							<label2>Forest</label2>
						</labels>
					</clipitem>
					<clipitem id="clipitem-574" frameBlend="FALSE">
						<masterclipid>masterclip-97</masterclipid>
						<name>AA017001.MXF</name>
						<enabled>TRUE</enabled>
						<duration>1092</duration>
						<rate>
							<timebase>25</timebase>
							<ntsc>FALSE</ntsc>
						</rate>
						<start>14007</start>
						<end>14079</end>
						<in>600</in>
						<out>672</out>
						<alphatype>none</alphatype>
						<pixelaspectratio>square</pixelaspectratio>
						<anamorphic>FALSE</anamorphic>
						<file id="file-86">
							<name>AA017001.MXF</name>
							<pathurl>file://localhost/Volumes/Brakka/AdobeLager/Katta/Katta-14xxxx-Smart_eller_overvaaket-Chris/02-Video/COWI%20Varemesse%20C300/CONTENTS/CLIPS001/AA0170/AA017001.MXF</pathurl>
							<rate>
								<timebase>25</timebase>
								<ntsc>FALSE</ntsc>
							</rate>
							<duration>1092</duration>
							<timecode>
								<rate>
									<timebase>25</timebase>
									<ntsc>FALSE</ntsc>
								</rate>
								<string>03:20:14:10</string>
								<frame>300360</frame>
								<displayformat>NDF</displayformat>
								<reel>
									<name></name>
								</reel>
							</timecode>
							<media>
								<video>
									<duration>18000</duration>
									<samplecharacteristics>
										<rate>
											<timebase>25</timebase>
											<ntsc>FALSE</ntsc>
										</rate>
										<width>1920</width>
										<height>1080</height>
										<anamorphic>FALSE</anamorphic>
										<pixelaspectratio>square</pixelaspectratio>
										<fielddominance>none</fielddominance>
									</samplecharacteristics>
								</video>
								<audio>
									<samplecharacteristics>
										<depth>16</depth>
										<samplerate>48000</samplerate>
									</samplecharacteristics>
									<channelcount>2</channelcount>
								</audio>
							</media>
						</file>
						<logginginfo>
							<description></description>
							<scene></scene>
							<shottake>AA0170</shottake>
							<lognote></lognote>
						</logginginfo>
						<labels>
							<label2>Iris</label2>
						</labels>
					</clipitem>
					<clipitem id="clipitem-575" frameBlend="FALSE">
						<masterclipid>masterclip-92</masterclipid>
						<name>AA016701.MXFCowi varemesse multi</name>
						<enabled>TRUE</enabled>
						<duration>8897</duration>
						<rate>
							<timebase>25</timebase>
							<ntsc>FALSE</ntsc>
						</rate>
						<start>14079</start>
						<end>14145</end>
						<in>3570</in>
						<out>3636</out>
						<sequence id="sequence-43"/>
							<marker>
								<comment></comment>
								<name></name>
								<in>2858</in>
								<out>-1</out>
							</marker>
						<labels>
							<label2>Forest</label2>
						</labels>
					</clipitem>
					<clipitem id="clipitem-576" frameBlend="FALSE">
						<masterclipid>masterclip-98</masterclipid>
						<name>AA017401.MXF</name>
						<enabled>TRUE</enabled>
						<duration>1344</duration>
						<rate>
							<timebase>25</timebase>
							<ntsc>FALSE</ntsc>
						</rate>
						<start>14145</start>
						<end>14254</end>
						<in>992</in>
						<out>1101</out>
						<alphatype>none</alphatype>
						<pixelaspectratio>square</pixelaspectratio>
						<anamorphic>FALSE</anamorphic>
						<file id="file-87">
							<name>AA017401.MXF</name>
							<pathurl>file://localhost/Volumes/Brakka/AdobeLager/Katta/Katta-14xxxx-Smart_eller_overvaaket-Chris/02-Video/COWI%20Varemesse%20C300/CONTENTS/CLIPS001/AA0174/AA017401.MXF</pathurl>
							<rate>
								<timebase>25</timebase>
								<ntsc>FALSE</ntsc>
							</rate>
							<duration>1344</duration>
							<timecode>
								<rate>
									<timebase>25</timebase>
									<ntsc>FALSE</ntsc>
								</rate>
								<string>03:22:16:08</string>
								<frame>303408</frame>
								<displayformat>NDF</displayformat>
								<reel>
									<name></name>
								</reel>
							</timecode>
							<media>
								<video>
									<duration>18000</duration>
									<samplecharacteristics>
										<rate>
											<timebase>25</timebase>
											<ntsc>FALSE</ntsc>
										</rate>
										<width>1920</width>
										<height>1080</height>
										<anamorphic>FALSE</anamorphic>
										<pixelaspectratio>square</pixelaspectratio>
										<fielddominance>none</fielddominance>
									</samplecharacteristics>
								</video>
								<audio>
									<samplecharacteristics>
										<depth>16</depth>
										<samplerate>48000</samplerate>
									</samplecharacteristics>
									<channelcount>2</channelcount>
								</audio>
							</media>
						</file>
						<logginginfo>
							<description></description>
							<scene></scene>
							<shottake>AA0174</shottake>
							<lognote></lognote>
						</logginginfo>
						<labels>
							<label2>Iris</label2>
						</labels>
					</clipitem>
					<clipitem id="clipitem-577" frameBlend="FALSE">
						<masterclipid>masterclip-92</masterclipid>
						<name>AA016701.MXFCowi varemesse multi</name>
						<enabled>TRUE</enabled>
						<duration>8897</duration>
						<rate>
							<timebase>25</timebase>
							<ntsc>FALSE</ntsc>
						</rate>
						<start>14254</start>
						<end>14274</end>
						<in>4069</in>
						<out>4089</out>
						<sequence id="sequence-46"/>
							<marker>
								<comment></comment>
								<name></name>
								<in>2858</in>
								<out>-1</out>
							</marker>
						<labels>
							<label2>Forest</label2>
						</labels>
					</clipitem>
					<clipitem id="clipitem-578" frameBlend="FALSE">
						<masterclipid>masterclip-99</masterclipid>
						<name>AA016801.MXF</name>
						<enabled>TRUE</enabled>
						<duration>1488</duration>
						<rate>
							<timebase>25</timebase>
							<ntsc>FALSE</ntsc>
						</rate>
						<start>14274</start>
						<end>14286</end>
						<in>829</in>
						<out>841</out>
						<alphatype>none</alphatype>
						<pixelaspectratio>square</pixelaspectratio>
						<anamorphic>FALSE</anamorphic>
						<file id="file-88">
							<name>AA016801.MXF</name>
							<pathurl>file://localhost/Volumes/Brakka/AdobeLager/Katta/Katta-14xxxx-Smart_eller_overvaaket-Chris/02-Video/COWI%20Varemesse%20C300/CONTENTS/CLIPS001/AA0168/AA016801.MXF</pathurl>
							<rate>
								<timebase>25</timebase>
								<ntsc>FALSE</ntsc>
							</rate>
							<duration>1488</duration>
							<timecode>
								<rate>
									<timebase>25</timebase>
									<ntsc>FALSE</ntsc>
								</rate>
								<string>03:18:36:00</string>
								<frame>297900</frame>
								<displayformat>NDF</displayformat>
								<reel>
									<name></name>
								</reel>
							</timecode>
							<media>
								<video>
									<duration>18000</duration>
									<samplecharacteristics>
										<rate>
											<timebase>25</timebase>
											<ntsc>FALSE</ntsc>
										</rate>
										<width>1920</width>
										<height>1080</height>
										<anamorphic>FALSE</anamorphic>
										<pixelaspectratio>square</pixelaspectratio>
										<fielddominance>none</fielddominance>
									</samplecharacteristics>
								</video>
								<audio>
									<samplecharacteristics>
										<depth>16</depth>
										<samplerate>48000</samplerate>
									</samplecharacteristics>
									<channelcount>2</channelcount>
								</audio>
							</media>
						</file>
						<logginginfo>
							<description></description>
							<scene></scene>
							<shottake>AA0168</shottake>
							<lognote></lognote>
						</logginginfo>
						<labels>
							<label2>Iris</label2>
						</labels>
					</clipitem>
					<clipitem id="clipitem-579" frameBlend="FALSE">
						<masterclipid>masterclip-92</masterclipid>
						<name>AA016701.MXFCowi varemesse multi</name>
						<enabled>TRUE</enabled>
						<duration>8897</duration>
						<rate>
							<timebase>25</timebase>
							<ntsc>FALSE</ntsc>
						</rate>
						<start>14286</start>
						<end>14330</end>
						<in>4278</in>
						<out>4322</out>
						<sequence id="sequence-43"/>
							<marker>
								<comment></comment>
								<name></name>
								<in>2858</in>
								<out>-1</out>
							</marker>
						<labels>
							<label2>Forest</label2>
						</labels>
					</clipitem>
					<clipitem id="clipitem-580" frameBlend="FALSE">
						<masterclipid>masterclip-99</masterclipid>
						<name>AA016801.MXF</name>
						<enabled>TRUE</enabled>
						<duration>1488</duration>
						<rate>
							<timebase>25</timebase>
							<ntsc>FALSE</ntsc>
						</rate>
						<start>14330</start>
						<end>14370</end>
						<in>985</in>
						<out>1025</out>
						<alphatype>none</alphatype>
						<file id="file-88"/>
						<logginginfo>
							<description></description>
							<scene></scene>
							<shottake>AA0168</shottake>
							<lognote></lognote>
						</logginginfo>
						<labels>
							<label2>Iris</label2>
						</labels>
					</clipitem>
					<clipitem id="clipitem-581" frameBlend="FALSE">
						<masterclipid>masterclip-92</masterclipid>
						<name>AA016701.MXFCowi varemesse multi</name>
						<enabled>TRUE</enabled>
						<duration>8897</duration>
						<rate>
							<timebase>25</timebase>
							<ntsc>FALSE</ntsc>
						</rate>
						<start>14370</start>
						<end>14433</end>
						<in>4451</in>
						<out>4514</out>
						<sequence id="sequence-43"/>
							<marker>
								<comment></comment>
								<name></name>
								<in>2858</in>
								<out>-1</out>
							</marker>
						<labels>
							<label2>Forest</label2>
						</labels>
					</clipitem>
					<clipitem id="clipitem-582" frameBlend="FALSE">
						<masterclipid>masterclip-12</masterclipid>
						<name>MVI_0119.MOV</name>
						<enabled>TRUE</enabled>
						<duration>214</duration>
						<rate>
							<timebase>25</timebase>
							<ntsc>FALSE</ntsc>
						</rate>
						<start>14433</start>
						<end>14577</end>
						<in>13</in>
						<out>157</out>
						<alphatype>black</alphatype>
						<file id="file-11"/>
						<link>
							<linkclipref>clipitem-582</linkclipref>
							<mediatype>video</mediatype>
							<trackindex>1</trackindex>
							<clipindex>124</clipindex>
						</link>
						<link>
							<linkclipref>clipitem-1606</linkclipref>
							<mediatype>audio</mediatype>
							<trackindex>7</trackindex>
							<clipindex>23</clipindex>
						</link>
						<logginginfo>
							<description></description>
							<scene></scene>
							<shottake></shottake>
							<lognote></lognote>
						</logginginfo>
						<labels>
							<label2>Iris</label2>
						</labels>
					</clipitem>
					<clipitem id="clipitem-583" frameBlend="FALSE">
						<masterclipid>masterclip-13</masterclipid>
						<name>MVI_0130.MOV</name>
						<enabled>TRUE</enabled>
						<duration>1756</duration>
						<rate>
							<timebase>25</timebase>
							<ntsc>FALSE</ntsc>
						</rate>
						<start>14577</start>
						<end>14795</end>
						<in>179</in>
						<out>397</out>
						<alphatype>black</alphatype>
						<file id="file-12"/>
						<link>
							<linkclipref>clipitem-583</linkclipref>
							<mediatype>video</mediatype>
							<trackindex>1</trackindex>
							<clipindex>125</clipindex>
						</link>
						<link>
							<linkclipref>clipitem-1607</linkclipref>
							<mediatype>audio</mediatype>
							<trackindex>7</trackindex>
							<clipindex>24</clipindex>
						</link>
						<logginginfo>
							<description></description>
							<scene></scene>
							<shottake></shottake>
							<lognote></lognote>
						</logginginfo>
						<labels>
							<label2>Iris</label2>
						</labels>
					</clipitem>
					<clipitem id="clipitem-584" frameBlend="FALSE">
						<masterclipid>masterclip-13</masterclipid>
						<name>MVI_0130.MOV</name>
						<enabled>TRUE</enabled>
						<duration>1756</duration>
						<rate>
							<timebase>25</timebase>
							<ntsc>FALSE</ntsc>
						</rate>
						<start>14795</start>
						<end>14835</end>
						<in>397</in>
						<out>437</out>
						<alphatype>black</alphatype>
						<file id="file-12"/>
						<logginginfo>
							<description></description>
							<scene></scene>
							<shottake></shottake>
							<lognote></lognote>
						</logginginfo>
						<labels>
							<label2>Iris</label2>
						</labels>
					</clipitem>
					<clipitem id="clipitem-585" frameBlend="FALSE">
						<masterclipid>masterclip-100</masterclipid>
						<name>MVI_0132.MOV</name>
						<enabled>TRUE</enabled>
						<duration>454</duration>
						<rate>
							<timebase>25</timebase>
							<ntsc>FALSE</ntsc>
						</rate>
						<start>14835</start>
						<end>14880</end>
						<in>96</in>
						<out>141</out>
						<alphatype>black</alphatype>
						<pixelaspectratio>square</pixelaspectratio>
						<anamorphic>FALSE</anamorphic>
						<file id="file-89">
							<name>MVI_0132.MOV</name>
							<pathurl>file://localhost/Volumes/Brakka/AdobeLager/Katta/Katta-14xxxx-Smart_eller_overvaaket-Chris/02-Video/COWI%20Varemesse%205D/DCIM/100EOS5D/MVI_0132.MOV</pathurl>
							<rate>
								<timebase>25</timebase>
								<ntsc>FALSE</ntsc>
							</rate>
							<duration>454</duration>
							<timecode>
								<rate>
									<timebase>25</timebase>
									<ntsc>FALSE</ntsc>
								</rate>
								<string>00:00:00:00</string>
								<frame>0</frame>
								<displayformat>NDF</displayformat>
								<reel>
									<name></name>
								</reel>
							</timecode>
							<media>
								<video>
									<duration>18000</duration>
									<samplecharacteristics>
										<rate>
											<timebase>25</timebase>
											<ntsc>FALSE</ntsc>
										</rate>
										<width>1920</width>
										<height>1080</height>
										<anamorphic>FALSE</anamorphic>
										<pixelaspectratio>square</pixelaspectratio>
										<fielddominance>none</fielddominance>
									</samplecharacteristics>
								</video>
								<audio>
									<samplecharacteristics>
										<depth>16</depth>
										<samplerate>48000</samplerate>
									</samplecharacteristics>
									<channelcount>2</channelcount>
								</audio>
							</media>
						</file>
						<link>
							<linkclipref>clipitem-585</linkclipref>
							<mediatype>video</mediatype>
							<trackindex>1</trackindex>
							<clipindex>127</clipindex>
						</link>
						<link>
							<linkclipref>clipitem-1608</linkclipref>
							<mediatype>audio</mediatype>
							<trackindex>7</trackindex>
							<clipindex>25</clipindex>
						</link>
						<logginginfo>
							<description></description>
							<scene></scene>
							<shottake></shottake>
							<lognote></lognote>
						</logginginfo>
						<labels>
							<label2>Iris</label2>
						</labels>
					</clipitem>
					<clipitem id="clipitem-586" frameBlend="FALSE">
						<masterclipid>masterclip-100</masterclipid>
						<name>MVI_0132.MOV</name>
						<enabled>TRUE</enabled>
						<duration>454</duration>
						<rate>
							<timebase>25</timebase>
							<ntsc>FALSE</ntsc>
						</rate>
						<start>14880</start>
						<end>14930</end>
						<in>141</in>
						<out>191</out>
						<alphatype>black</alphatype>
						<file id="file-89"/>
						<logginginfo>
							<description></description>
							<scene></scene>
							<shottake></shottake>
							<lognote></lognote>
						</logginginfo>
						<labels>
							<label2>Iris</label2>
						</labels>
					</clipitem>
					<clipitem id="clipitem-587" frameBlend="FALSE">
						<masterclipid>masterclip-100</masterclipid>
						<name>MVI_0132.MOV</name>
						<enabled>TRUE</enabled>
						<duration>454</duration>
						<rate>
							<timebase>25</timebase>
							<ntsc>FALSE</ntsc>
						</rate>
						<start>14930</start>
						<end>14998</end>
						<in>191</in>
						<out>259</out>
						<alphatype>black</alphatype>
						<file id="file-89"/>
						<logginginfo>
							<description></description>
							<scene></scene>
							<shottake></shottake>
							<lognote></lognote>
						</logginginfo>
						<labels>
							<label2>Iris</label2>
						</labels>
					</clipitem>
					<clipitem id="clipitem-588" frameBlend="FALSE">
						<masterclipid>masterclip-101</masterclipid>
						<name>AA021401.MXF</name>
						<enabled>TRUE</enabled>
						<duration>444</duration>
						<rate>
							<timebase>25</timebase>
							<ntsc>FALSE</ntsc>
						</rate>
						<start>14998</start>
						<end>15149</end>
						<in>232</in>
						<out>383</out>
						<alphatype>none</alphatype>
						<pixelaspectratio>square</pixelaspectratio>
						<anamorphic>FALSE</anamorphic>
						<file id="file-90">
							<name>AA021401.MXF</name>
							<pathurl>file://localhost/Volumes/Brakka/AdobeLager/Katta/Katta-14xxxx-Smart_eller_overvaaket-Chris/02-Video/COWI%20Varemesse%20C300/CONTENTS/CLIPS001/AA0214/AA021401.MXF</pathurl>
							<rate>
								<timebase>25</timebase>
								<ntsc>FALSE</ntsc>
							</rate>
							<duration>444</duration>
							<timecode>
								<rate>
									<timebase>25</timebase>
									<ntsc>FALSE</ntsc>
								</rate>
								<string>04:04:34:14</string>
								<frame>366864</frame>
								<displayformat>NDF</displayformat>
								<reel>
									<name></name>
								</reel>
							</timecode>
							<media>
								<video>
									<duration>18000</duration>
									<samplecharacteristics>
										<rate>
											<timebase>25</timebase>
											<ntsc>FALSE</ntsc>
										</rate>
										<width>1920</width>
										<height>1080</height>
										<anamorphic>FALSE</anamorphic>
										<pixelaspectratio>square</pixelaspectratio>
										<fielddominance>none</fielddominance>
									</samplecharacteristics>
								</video>
								<audio>
									<samplecharacteristics>
										<depth>16</depth>
										<samplerate>48000</samplerate>
									</samplecharacteristics>
									<channelcount>2</channelcount>
								</audio>
							</media>
						</file>
						<logginginfo>
							<description></description>
							<scene></scene>
							<shottake>AA0214</shottake>
							<lognote></lognote>
						</logginginfo>
						<labels>
							<label2>Iris</label2>
						</labels>
					</clipitem>
					<clipitem id="clipitem-589" frameBlend="FALSE">
						<masterclipid>masterclip-102</masterclipid>
						<name>AA018601.MXFCowi varemesse multi</name>
						<enabled>TRUE</enabled>
						<duration>8100</duration>
						<rate>
							<timebase>25</timebase>
							<ntsc>FALSE</ntsc>
						</rate>
						<start>15149</start>
						<end>15374</end>
						<in>4563</in>
						<out>4788</out>
						<sequence id="sequence-47">
							<duration>150</duration>
							<rate>
								<timebase>25</timebase>
								<ntsc>FALSE</ntsc>
							</rate>
							<name>AA018601.MXFCowi varemesse multi-1</name>
							<media>
								<video>
									<format>
										<samplecharacteristics>
											<rate>
												<timebase>25</timebase>
												<ntsc>FALSE</ntsc>
											</rate>
											<codec>
												<name>Apple ProRes 422</name>
												<appspecificdata>
													<appname>Final Cut Pro</appname>
													<appmanufacturer>Apple Inc.</appmanufacturer>
													<appversion>7.0</appversion>
													<data>
														<qtcodec>
															<codecname>Apple ProRes 422</codecname>
															<codectypename>Apple ProRes 422</codectypename>
															<codectypecode>apcn</codectypecode>
															<codecvendorcode>appl</codecvendorcode>
															<spatialquality>1024</spatialquality>
															<temporalquality>0</temporalquality>
															<keyframerate>0</keyframerate>
															<datarate>0</datarate>
														</qtcodec>
													</data>
												</appspecificdata>
											</codec>
											<width>1920</width>
											<height>1080</height>
											<anamorphic>FALSE</anamorphic>
											<pixelaspectratio>square</pixelaspectratio>
											<fielddominance>none</fielddominance>
											<colordepth>24</colordepth>
										</samplecharacteristics>
									</format>
									<track TL.SQTrackShy="0" TL.SQTrackExpandedHeight="25" TL.SQTrackExpanded="0" MZ.TrackTargeted="0">
										<clipitem id="clipitem-592" frameBlend="FALSE">
											<masterclipid>masterclip-103</masterclipid>
											<name>AA018601.MXF</name>
											<enabled>TRUE</enabled>
											<duration>8100</duration>
											<rate>
												<timebase>25</timebase>
												<ntsc>FALSE</ntsc>
											</rate>
											<start>0</start>
											<end>8100</end>
											<in>0</in>
											<out>8100</out>
											<alphatype>none</alphatype>
											<file id="file-91"/>
											<logginginfo>
												<description></description>
												<scene></scene>
												<shottake>AA0186</shottake>
												<lognote></lognote>
											</logginginfo>
											<labels>
												<label2>Iris</label2>
											</labels>
										</clipitem>
										<enabled>TRUE</enabled>
										<locked>FALSE</locked>
									</track>
								</video>
								<audio>
									<format>
										<samplecharacteristics>
											<depth>16</depth>
											<samplerate>48000</samplerate>
										</samplecharacteristics>
									</format>
									<outputs>
										<group>
											<index>1</index>
											<numchannels>1</numchannels>
											<downmix>0</downmix>
											<channel>
												<index>1</index>
											</channel>
										</group>
										<group>
											<index>2</index>
											<numchannels>1</numchannels>
											<downmix>0</downmix>
											<channel>
												<index>2</index>
											</channel>
										</group>
										<group>
											<index>3</index>
											<numchannels>1</numchannels>
											<downmix>0</downmix>
											<channel>
												<index>3</index>
											</channel>
										</group>
										<group>
											<index>4</index>
											<numchannels>1</numchannels>
											<downmix>0</downmix>
											<channel>
												<index>4</index>
											</channel>
										</group>
									</outputs>
									<track TL.SQTrackAudioKeyframeStyle="0" TL.SQTrackShy="0" TL.SQTrackExpandedHeight="25" TL.SQTrackExpanded="0" MZ.TrackTargeted="1" PannerCurrentValue="0.5" PannerIsInverted="true" PannerStartKeyframe="-91445760000000000,0.5,0,0,0,0,0,0" PannerName="Balance" currentExplodedTrackIndex="0" totalExplodedTrackCount="2" premiereTrackType="Stereo">
										<clipitem id="clipitem-590" frameBlend="FALSE" PannerCurrentValue="0.5" PannerKeyframes="" PannerStartKeyframe="-91445760000000000,0.5,0,0,0,0,0,0" PannerIsInverted="true" PannerName="Balance">
											<masterclipid>masterclip-103</masterclipid>
											<name>AA018601.MXF</name>
											<enabled>TRUE</enabled>
											<duration>8100</duration>
											<rate>
												<timebase>25</timebase>
												<ntsc>FALSE</ntsc>
											</rate>
											<start>0</start>
											<end>8100</end>
											<in>0</in>
											<out>8100</out>
											<pixelaspectratio>square</pixelaspectratio>
											<anamorphic>FALSE</anamorphic>
											<file id="file-91">
												<name>AA018601.MXF</name>
												<pathurl>file://localhost/Volumes/Brakka/AdobeLager/Katta/Katta-14xxxx-Smart_eller_overvaaket-Chris/02-Video/COWI%20Varemesse%20C300/CONTENTS/CLIPS001/AA0186/AA018601.MXF</pathurl>
												<rate>
													<timebase>25</timebase>
													<ntsc>FALSE</ntsc>
												</rate>
												<duration>8100</duration>
												<timecode>
													<rate>
														<timebase>25</timebase>
														<ntsc>FALSE</ntsc>
													</rate>
													<string>03:32:12:00</string>
													<frame>318300</frame>
													<displayformat>NDF</displayformat>
													<reel>
														<name></name>
													</reel>
												</timecode>
												<media>
													<video>
														<duration>18000</duration>
														<samplecharacteristics>
															<rate>
																<timebase>25</timebase>
																<ntsc>FALSE</ntsc>
															</rate>
															<width>1920</width>
															<height>1080</height>
															<anamorphic>FALSE</anamorphic>
															<pixelaspectratio>square</pixelaspectratio>
															<fielddominance>none</fielddominance>
														</samplecharacteristics>
													</video>
													<audio>
														<samplecharacteristics>
															<depth>16</depth>
															<samplerate>48000</samplerate>
														</samplecharacteristics>
														<channelcount>2</channelcount>
													</audio>
												</media>
											</file>
											<sourcetrack>
												<mediatype>audio</mediatype>
												<trackindex>1</trackindex>
											</sourcetrack>
												<filter>
													<effect>
														<name>Audio Pan</name>
														<effectid>audiopan</effectid>
														<effectcategory>audiopan</effectcategory>
														<effecttype>audiopan</effecttype>
														<mediatype>audio</mediatype>
														<parameter authoringApp="PremierePro">
															<parameterid>pan</parameterid>
															<name>Pan</name>
															<valuemin>-1</valuemin>
															<valuemax>1</valuemax>
															<value>0</value>
														</parameter>
													</effect>
												</filter>
											<logginginfo>
												<description></description>
												<scene></scene>
												<shottake>AA0186</shottake>
												<lognote></lognote>
											</logginginfo>
											<labels>
												<label2>Iris</label2>
											</labels>
										</clipitem>
										<enabled>TRUE</enabled>
										<locked>FALSE</locked>
										<outputchannelindex>1</outputchannelindex>
									</track>
									<track TL.SQTrackAudioKeyframeStyle="0" TL.SQTrackShy="0" TL.SQTrackExpandedHeight="25" TL.SQTrackExpanded="0" MZ.TrackTargeted="1" PannerCurrentValue="0.5" PannerIsInverted="true" PannerStartKeyframe="-91445760000000000,0.5,0,0,0,0,0,0" PannerName="Balance" currentExplodedTrackIndex="1" totalExplodedTrackCount="2" premiereTrackType="Stereo">
										<clipitem id="clipitem-591" frameBlend="FALSE" PannerCurrentValue="0.5" PannerKeyframes="" PannerStartKeyframe="-91445760000000000,0.5,0,0,0,0,0,0" PannerIsInverted="true" PannerName="Balance">
											<masterclipid>masterclip-103</masterclipid>
											<name>AA018601.MXF</name>
											<enabled>TRUE</enabled>
											<duration>8100</duration>
											<rate>
												<timebase>25</timebase>
												<ntsc>FALSE</ntsc>
											</rate>
											<start>0</start>
											<end>8100</end>
											<in>0</in>
											<out>8100</out>
											<file id="file-91"/>
											<sourcetrack>
												<mediatype>audio</mediatype>
												<trackindex>2</trackindex>
											</sourcetrack>
												<filter>
													<effect>
														<name>Audio Pan</name>
														<effectid>audiopan</effectid>
														<effectcategory>audiopan</effectcategory>
														<effecttype>audiopan</effecttype>
														<mediatype>audio</mediatype>
														<parameter authoringApp="PremierePro">
															<parameterid>pan</parameterid>
															<name>Pan</name>
															<valuemin>-1</valuemin>
															<valuemax>1</valuemax>
															<value>0</value>
														</parameter>
													</effect>
												</filter>
											<logginginfo>
												<description></description>
												<scene></scene>
												<shottake>AA0186</shottake>
												<lognote></lognote>
											</logginginfo>
											<labels>
												<label2>Iris</label2>
											</labels>
										</clipitem>
										<enabled>TRUE</enabled>
										<locked>FALSE</locked>
										<outputchannelindex>2</outputchannelindex>
									</track>
								</audio>
							</media>
							<timecode>
								<rate>
									<timebase>25</timebase>
									<ntsc>FALSE</ntsc>
								</rate>
								<string>00:00:00:00</string>
								<frame>0</frame>
								<displayformat>NDF</displayformat>
							</timecode>
						</sequence>
							<filter>
								<effect>
									<name>Basic Motion</name>
									<effectid>basic</effectid>
									<effectcategory>motion</effectcategory>
									<effecttype>motion</effecttype>
									<mediatype>video</mediatype>
									<parameter authoringApp="PremierePro">
										<parameterid>scale</parameterid>
										<name>Scale</name>
										<valuemin>0</valuemin>
										<valuemax>1000</valuemax>
										<value>108</value>
									</parameter>
									<parameter authoringApp="PremierePro">
										<parameterid>rotation</parameterid>
										<name>Rotation</name>
										<valuemin>-8640</valuemin>
										<valuemax>8640</valuemax>
										<value>0</value>
									</parameter>
									<parameter authoringApp="PremierePro">
										<parameterid>center</parameterid>
										<name>Center</name>
										<value>
											<horiz>-0.5</horiz>
											<vert>-0.5</vert>
										</value>
									</parameter>
									<parameter authoringApp="PremierePro">
										<parameterid>centerOffset</parameterid>
										<name>Anchor Point</name>
										<value>
											<horiz>0</horiz>
											<vert>0</vert>
										</value>
									</parameter>
								</effect>
							</filter>
						<link>
							<linkclipref>clipitem-589</linkclipref>
							<mediatype>video</mediatype>
							<trackindex>1</trackindex>
							<clipindex>131</clipindex>
						</link>
						<link>
							<linkclipref>clipitem-1110</linkclipref>
							<mediatype>audio</mediatype>
							<trackindex>1</trackindex>
							<clipindex>69</clipindex>
						</link>
						<link>
							<linkclipref>clipitem-1412</linkclipref>
							<mediatype>audio</mediatype>
							<trackindex>3</trackindex>
							<clipindex>57</clipindex>
						</link>
						<labels>
							<label2>Forest</label2>
						</labels>
					</clipitem>
					<clipitem id="clipitem-596" frameBlend="FALSE">
						<masterclipid>masterclip-105</masterclipid>
						<name>AA018801.MXF</name>
						<enabled>TRUE</enabled>
						<duration>5628</duration>
						<rate>
							<timebase>25</timebase>
							<ntsc>FALSE</ntsc>
						</rate>
						<start>15374</start>
						<end>15454</end>
						<in>4890</in>
						<out>4970</out>
						<alphatype>none</alphatype>
						<pixelaspectratio>square</pixelaspectratio>
						<anamorphic>FALSE</anamorphic>
						<file id="file-93">
							<name>AA018801.MXF</name>
							<pathurl>file://localhost/Volumes/Brakka/AdobeLager/Katta/Katta-14xxxx-Smart_eller_overvaaket-Chris/02-Video/COWI%20Varemesse%20C300/CONTENTS/CLIPS001/AA0188/AA018801.MXF</pathurl>
							<rate>
								<timebase>25</timebase>
								<ntsc>FALSE</ntsc>
							</rate>
							<duration>5628</duration>
							<timecode>
								<rate>
									<timebase>25</timebase>
									<ntsc>FALSE</ntsc>
								</rate>
								<string>03:37:38:22</string>
								<frame>326472</frame>
								<displayformat>NDF</displayformat>
								<reel>
									<name></name>
								</reel>
							</timecode>
							<media>
								<video>
									<duration>18000</duration>
									<samplecharacteristics>
										<rate>
											<timebase>25</timebase>
											<ntsc>FALSE</ntsc>
										</rate>
										<width>1920</width>
										<height>1080</height>
										<anamorphic>FALSE</anamorphic>
										<pixelaspectratio>square</pixelaspectratio>
										<fielddominance>none</fielddominance>
									</samplecharacteristics>
								</video>
								<audio>
									<samplecharacteristics>
										<depth>16</depth>
										<samplerate>48000</samplerate>
									</samplecharacteristics>
									<channelcount>1</channelcount>
									<layout>mono</layout>
									<audiochannel>
										<sourcechannel>1</sourcechannel>
										<channellabel>discrete</channellabel>
									</audiochannel>
								</audio>
								<audio>
									<samplecharacteristics>
										<depth>16</depth>
										<samplerate>48000</samplerate>
									</samplecharacteristics>
									<channelcount>1</channelcount>
									<layout>mono</layout>
									<audiochannel>
										<sourcechannel>2</sourcechannel>
										<channellabel>discrete</channellabel>
									</audiochannel>
								</audio>
							</media>
						</file>
						<logginginfo>
							<description></description>
							<scene></scene>
							<shottake>AA0188</shottake>
							<lognote></lognote>
						</logginginfo>
						<labels>
							<label2>Iris</label2>
						</labels>
					</clipitem>
					<clipitem id="clipitem-597" frameBlend="FALSE">
						<masterclipid>masterclip-102</masterclipid>
						<name>AA018601.MXFCowi varemesse multi</name>
						<enabled>TRUE</enabled>
						<duration>8100</duration>
						<rate>
							<timebase>25</timebase>
							<ntsc>FALSE</ntsc>
						</rate>
						<start>15454</start>
						<end>15562</end>
						<in>5168</in>
						<out>5276</out>
						<sequence id="sequence-47"/>
						<link>
							<linkclipref>clipitem-597</linkclipref>
							<mediatype>video</mediatype>
							<trackindex>1</trackindex>
							<clipindex>133</clipindex>
						</link>
						<link>
							<linkclipref>clipitem-1111</linkclipref>
							<mediatype>audio</mediatype>
							<trackindex>1</trackindex>
							<clipindex>70</clipindex>
						</link>
						<link>
							<linkclipref>clipitem-1413</linkclipref>
							<mediatype>audio</mediatype>
							<trackindex>3</trackindex>
							<clipindex>58</clipindex>
						</link>
						<labels>
							<label2>Forest</label2>
						</labels>
					</clipitem>
					<clipitem id="clipitem-598" frameBlend="FALSE">
						<masterclipid>masterclip-106</masterclipid>
						<name>AA022101.MXF</name>
						<enabled>TRUE</enabled>
						<duration>2808</duration>
						<rate>
							<timebase>25</timebase>
							<ntsc>FALSE</ntsc>
						</rate>
						<start>15562</start>
						<end>15669</end>
						<in>2639</in>
						<out>2746</out>
						<alphatype>none</alphatype>
						<pixelaspectratio>square</pixelaspectratio>
						<anamorphic>FALSE</anamorphic>
						<file id="file-94">
							<name>AA022101.MXF</name>
							<pathurl>file://localhost/Volumes/Brakka/AdobeLager/Katta/Katta-14xxxx-Smart_eller_overvaaket-Chris/02-Video/COWI%20Varemesse%20C300/CONTENTS/CLIPS001/AA0221/AA022101.MXF</pathurl>
							<rate>
								<timebase>25</timebase>
								<ntsc>FALSE</ntsc>
							</rate>
							<duration>2808</duration>
							<timecode>
								<rate>
									<timebase>25</timebase>
									<ntsc>FALSE</ntsc>
								</rate>
								<string>04:07:47:01</string>
								<frame>371676</frame>
								<displayformat>NDF</displayformat>
								<reel>
									<name></name>
								</reel>
							</timecode>
							<media>
								<video>
									<duration>18000</duration>
									<samplecharacteristics>
										<rate>
											<timebase>25</timebase>
											<ntsc>FALSE</ntsc>
										</rate>
										<width>1920</width>
										<height>1080</height>
										<anamorphic>FALSE</anamorphic>
										<pixelaspectratio>square</pixelaspectratio>
										<fielddominance>none</fielddominance>
									</samplecharacteristics>
								</video>
								<audio>
									<samplecharacteristics>
										<depth>16</depth>
										<samplerate>48000</samplerate>
									</samplecharacteristics>
									<channelcount>2</channelcount>
								</audio>
							</media>
						</file>
						<logginginfo>
							<description></description>
							<scene></scene>
							<shottake>AA0221</shottake>
							<lognote></lognote>
						</logginginfo>
						<labels>
							<label2>Iris</label2>
						</labels>
					</clipitem>
					<clipitem id="clipitem-599" frameBlend="FALSE">
						<masterclipid>masterclip-105</masterclipid>
						<name>AA018801.MXF</name>
						<enabled>TRUE</enabled>
						<duration>5628</duration>
						<rate>
							<timebase>25</timebase>
							<ntsc>FALSE</ntsc>
						</rate>
						<start>15669</start>
						<end>15784</end>
						<in>2826</in>
						<out>2941</out>
						<alphatype>none</alphatype>
						<file id="file-93"/>
						<link>
							<linkclipref>clipitem-599</linkclipref>
							<mediatype>video</mediatype>
							<trackindex>1</trackindex>
							<clipindex>135</clipindex>
						</link>
						<link>
							<linkclipref>clipitem-1533</linkclipref>
							<mediatype>audio</mediatype>
							<trackindex>5</trackindex>
							<clipindex>28</clipindex>
						</link>
						<link>
							<linkclipref>clipitem-1610</linkclipref>
							<mediatype>audio</mediatype>
							<trackindex>7</trackindex>
							<clipindex>27</clipindex>
						</link>
						<logginginfo>
							<description></description>
							<scene></scene>
							<shottake>AA0188</shottake>
							<lognote></lognote>
						</logginginfo>
						<labels>
							<label2>Iris</label2>
						</labels>
					</clipitem>
					<clipitem id="clipitem-600" frameBlend="FALSE">
						<masterclipid>masterclip-107</masterclipid>
						<name>AA019501.MXF</name>
						<enabled>TRUE</enabled>
						<duration>312</duration>
						<rate>
							<timebase>25</timebase>
							<ntsc>FALSE</ntsc>
						</rate>
						<start>15784</start>
						<end>15891</end>
						<in>146</in>
						<out>253</out>
						<alphatype>none</alphatype>
						<pixelaspectratio>square</pixelaspectratio>
						<anamorphic>FALSE</anamorphic>
						<file id="file-95">
							<name>AA019501.MXF</name>
							<pathurl>file://localhost/Volumes/Brakka/AdobeLager/Katta/Katta-14xxxx-Smart_eller_overvaaket-Chris/02-Video/COWI%20Varemesse%20C300/CONTENTS/CLIPS001/AA0195/AA019501.MXF</pathurl>
							<rate>
								<timebase>25</timebase>
								<ntsc>FALSE</ntsc>
							</rate>
							<duration>312</duration>
							<timecode>
								<rate>
									<timebase>25</timebase>
									<ntsc>FALSE</ntsc>
								</rate>
								<string>03:49:57:03</string>
								<frame>344928</frame>
								<displayformat>NDF</displayformat>
								<reel>
									<name></name>
								</reel>
							</timecode>
							<media>
								<video>
									<duration>18000</duration>
									<samplecharacteristics>
										<rate>
											<timebase>25</timebase>
											<ntsc>FALSE</ntsc>
										</rate>
										<width>1920</width>
										<height>1080</height>
										<anamorphic>FALSE</anamorphic>
										<pixelaspectratio>square</pixelaspectratio>
										<fielddominance>none</fielddominance>
									</samplecharacteristics>
								</video>
								<audio>
									<samplecharacteristics>
										<depth>16</depth>
										<samplerate>48000</samplerate>
									</samplecharacteristics>
									<channelcount>1</channelcount>
									<layout>mono</layout>
									<audiochannel>
										<sourcechannel>1</sourcechannel>
										<channellabel>discrete</channellabel>
									</audiochannel>
								</audio>
								<audio>
									<samplecharacteristics>
										<depth>16</depth>
										<samplerate>48000</samplerate>
									</samplecharacteristics>
									<channelcount>1</channelcount>
									<layout>mono</layout>
									<audiochannel>
										<sourcechannel>2</sourcechannel>
										<channellabel>discrete</channellabel>
									</audiochannel>
								</audio>
							</media>
						</file>
						<logginginfo>
							<description></description>
							<scene></scene>
							<shottake>AA0195</shottake>
							<lognote></lognote>
						</logginginfo>
						<labels>
							<label2>Iris</label2>
						</labels>
					</clipitem>
					<clipitem id="clipitem-601" frameBlend="FALSE">
						<masterclipid>masterclip-108</masterclipid>
						<name>MVI_0398.MOV</name>
						<enabled>TRUE</enabled>
						<duration>926</duration>
						<rate>
							<timebase>25</timebase>
							<ntsc>FALSE</ntsc>
						</rate>
						<start>15891</start>
						<end>15958</end>
						<in>554</in>
						<out>621</out>
						<alphatype>black</alphatype>
						<pixelaspectratio>square</pixelaspectratio>
						<anamorphic>FALSE</anamorphic>
						<file id="file-96">
							<name>MVI_0398.MOV</name>
							<pathurl>file://localhost/Volumes/Brakka/AdobeLager/Katta/Katta-14xxxx-Smart_eller_overvaaket-Chris/02-Video/Datatilsynet%20Case%205D/100EOS5D/MVI_0398.MOV</pathurl>
							<rate>
								<timebase>25</timebase>
								<ntsc>FALSE</ntsc>
							</rate>
							<duration>926</duration>
							<timecode>
								<rate>
									<timebase>25</timebase>
									<ntsc>FALSE</ntsc>
								</rate>
								<string>00:00:00:00</string>
								<frame>0</frame>
								<displayformat>NDF</displayformat>
								<reel>
									<name></name>
								</reel>
							</timecode>
							<media>
								<video>
									<duration>18000</duration>
									<samplecharacteristics>
										<rate>
											<timebase>25</timebase>
											<ntsc>FALSE</ntsc>
										</rate>
										<width>1920</width>
										<height>1080</height>
										<anamorphic>FALSE</anamorphic>
										<pixelaspectratio>square</pixelaspectratio>
										<fielddominance>none</fielddominance>
									</samplecharacteristics>
								</video>
								<audio>
									<samplecharacteristics>
										<depth>16</depth>
										<samplerate>48000</samplerate>
									</samplecharacteristics>
									<channelcount>1</channelcount>
									<layout>mono</layout>
									<audiochannel>
										<sourcechannel>1</sourcechannel>
										<channellabel>discrete</channellabel>
									</audiochannel>
								</audio>
								<audio>
									<samplecharacteristics>
										<depth>16</depth>
										<samplerate>48000</samplerate>
									</samplecharacteristics>
									<channelcount>1</channelcount>
									<layout>mono</layout>
									<audiochannel>
										<sourcechannel>2</sourcechannel>
										<channellabel>discrete</channellabel>
									</audiochannel>
								</audio>
							</media>
						</file>
						<link>
							<linkclipref>clipitem-601</linkclipref>
							<mediatype>video</mediatype>
							<trackindex>1</trackindex>
							<clipindex>137</clipindex>
						</link>
						<link>
							<linkclipref>clipitem-1535</linkclipref>
							<mediatype>audio</mediatype>
							<trackindex>5</trackindex>
							<clipindex>30</clipindex>
						</link>
						<logginginfo>
							<description></description>
							<scene></scene>
							<shottake></shottake>
							<lognote></lognote>
						</logginginfo>
						<labels>
							<label2>Iris</label2>
						</labels>
					</clipitem>
					<clipitem id="clipitem-602" frameBlend="FALSE">
						<masterclipid>masterclip-108</masterclipid>
						<name>MVI_0398.MOV</name>
						<enabled>TRUE</enabled>
						<duration>926</duration>
						<rate>
							<timebase>25</timebase>
							<ntsc>FALSE</ntsc>
						</rate>
						<start>15958</start>
						<end>16035</end>
						<in>833</in>
						<out>910</out>
						<alphatype>black</alphatype>
						<file id="file-96"/>
						<link>
							<linkclipref>clipitem-602</linkclipref>
							<mediatype>video</mediatype>
							<trackindex>1</trackindex>
							<clipindex>138</clipindex>
						</link>
						<link>
							<linkclipref>clipitem-1536</linkclipref>
							<mediatype>audio</mediatype>
							<trackindex>5</trackindex>
							<clipindex>31</clipindex>
						</link>
						<logginginfo>
							<description></description>
							<scene></scene>
							<shottake></shottake>
							<lognote></lognote>
						</logginginfo>
						<labels>
							<label2>Iris</label2>
						</labels>
					</clipitem>
					<clipitem id="clipitem-603" frameBlend="FALSE">
						<masterclipid>masterclip-109</masterclipid>
						<name>MVI_0400.MOV</name>
						<enabled>TRUE</enabled>
						<duration>1914</duration>
						<rate>
							<timebase>25</timebase>
							<ntsc>FALSE</ntsc>
						</rate>
						<start>16035</start>
						<end>16101</end>
						<in>345</in>
						<out>411</out>
						<alphatype>black</alphatype>
						<pixelaspectratio>square</pixelaspectratio>
						<anamorphic>FALSE</anamorphic>
						<file id="file-97">
							<name>MVI_0400.MOV</name>
							<pathurl>file://localhost/Volumes/Brakka/AdobeLager/Katta/Katta-14xxxx-Smart_eller_overvaaket-Chris/02-Video/Datatilsynet%20Case%205D/100EOS5D/MVI_0400.MOV</pathurl>
							<rate>
								<timebase>25</timebase>
								<ntsc>FALSE</ntsc>
							</rate>
							<duration>1914</duration>
							<timecode>
								<rate>
									<timebase>25</timebase>
									<ntsc>FALSE</ntsc>
								</rate>
								<string>00:00:00:00</string>
								<frame>0</frame>
								<displayformat>NDF</displayformat>
								<reel>
									<name></name>
								</reel>
							</timecode>
							<media>
								<video>
									<duration>18000</duration>
									<samplecharacteristics>
										<rate>
											<timebase>25</timebase>
											<ntsc>FALSE</ntsc>
										</rate>
										<width>1920</width>
										<height>1080</height>
										<anamorphic>FALSE</anamorphic>
										<pixelaspectratio>square</pixelaspectratio>
										<fielddominance>none</fielddominance>
									</samplecharacteristics>
								</video>
								<audio>
									<samplecharacteristics>
										<depth>16</depth>
										<samplerate>48000</samplerate>
									</samplecharacteristics>
									<channelcount>1</channelcount>
									<layout>mono</layout>
									<audiochannel>
										<sourcechannel>1</sourcechannel>
										<channellabel>discrete</channellabel>
									</audiochannel>
								</audio>
								<audio>
									<samplecharacteristics>
										<depth>16</depth>
										<samplerate>48000</samplerate>
									</samplecharacteristics>
									<channelcount>1</channelcount>
									<layout>mono</layout>
									<audiochannel>
										<sourcechannel>2</sourcechannel>
										<channellabel>discrete</channellabel>
									</audiochannel>
								</audio>
							</media>
						</file>
						<logginginfo>
							<description></description>
							<scene></scene>
							<shottake></shottake>
							<lognote></lognote>
						</logginginfo>
						<labels>
							<label2>Iris</label2>
						</labels>
					</clipitem>
					<clipitem id="clipitem-604" frameBlend="FALSE">
						<masterclipid>masterclip-110</masterclipid>
						<name>MVI_0399.MOV</name>
						<enabled>TRUE</enabled>
						<duration>844</duration>
						<rate>
							<timebase>25</timebase>
							<ntsc>FALSE</ntsc>
						</rate>
						<start>16101</start>
						<end>16151</end>
						<in>388</in>
						<out>438</out>
						<alphatype>black</alphatype>
						<pixelaspectratio>square</pixelaspectratio>
						<anamorphic>FALSE</anamorphic>
						<file id="file-98">
							<name>MVI_0399.MOV</name>
							<pathurl>file://localhost/Volumes/Brakka/AdobeLager/Katta/Katta-14xxxx-Smart_eller_overvaaket-Chris/02-Video/Datatilsynet%20Case%205D/100EOS5D/MVI_0399.MOV</pathurl>
							<rate>
								<timebase>25</timebase>
								<ntsc>FALSE</ntsc>
							</rate>
							<duration>844</duration>
							<timecode>
								<rate>
									<timebase>25</timebase>
									<ntsc>FALSE</ntsc>
								</rate>
								<string>00:00:00:00</string>
								<frame>0</frame>
								<displayformat>NDF</displayformat>
								<reel>
									<name></name>
								</reel>
							</timecode>
							<media>
								<video>
									<duration>18000</duration>
									<samplecharacteristics>
										<rate>
											<timebase>25</timebase>
											<ntsc>FALSE</ntsc>
										</rate>
										<width>1920</width>
										<height>1080</height>
										<anamorphic>FALSE</anamorphic>
										<pixelaspectratio>square</pixelaspectratio>
										<fielddominance>none</fielddominance>
									</samplecharacteristics>
								</video>
								<audio>
									<samplecharacteristics>
										<depth>16</depth>
										<samplerate>48000</samplerate>
									</samplecharacteristics>
									<channelcount>1</channelcount>
									<layout>mono</layout>
									<audiochannel>
										<sourcechannel>1</sourcechannel>
										<channellabel>discrete</channellabel>
									</audiochannel>
								</audio>
								<audio>
									<samplecharacteristics>
										<depth>16</depth>
										<samplerate>48000</samplerate>
									</samplecharacteristics>
									<channelcount>1</channelcount>
									<layout>mono</layout>
									<audiochannel>
										<sourcechannel>2</sourcechannel>
										<channellabel>discrete</channellabel>
									</audiochannel>
								</audio>
							</media>
						</file>
						<logginginfo>
							<description></description>
							<scene></scene>
							<shottake></shottake>
							<lognote></lognote>
						</logginginfo>
						<labels>
							<label2>Iris</label2>
						</labels>
					</clipitem>
					<clipitem id="clipitem-605" frameBlend="FALSE">
						<masterclipid>masterclip-109</masterclipid>
						<name>MVI_0400.MOV</name>
						<enabled>TRUE</enabled>
						<duration>1914</duration>
						<rate>
							<timebase>25</timebase>
							<ntsc>FALSE</ntsc>
						</rate>
						<start>16151</start>
						<end>16249</end>
						<in>485</in>
						<out>583</out>
						<alphatype>black</alphatype>
						<file id="file-97"/>
						<logginginfo>
							<description></description>
							<scene></scene>
							<shottake></shottake>
							<lognote></lognote>
						</logginginfo>
						<labels>
							<label2>Iris</label2>
						</labels>
					</clipitem>
					<clipitem id="clipitem-606" frameBlend="FALSE">
						<masterclipid>masterclip-111</masterclipid>
						<name>MVI_0458.MOV</name>
						<enabled>TRUE</enabled>
						<duration>10499</duration>
						<rate>
							<timebase>25</timebase>
							<ntsc>FALSE</ntsc>
						</rate>
						<start>16249</start>
						<end>16293</end>
						<in>4730</in>
						<out>4774</out>
						<alphatype>black</alphatype>
						<pixelaspectratio>square</pixelaspectratio>
						<anamorphic>FALSE</anamorphic>
						<file id="file-99">
							<name>MVI_0458.MOV</name>
							<pathurl>file://localhost/Volumes/Brakka/AdobeLager/Katta/Katta-14xxxx-Smart_eller_overvaaket-Chris/02-Video/Datatilsynet%20Case%205D/100EOS5D/MVI_0458.MOV</pathurl>
							<rate>
								<timebase>25</timebase>
								<ntsc>FALSE</ntsc>
							</rate>
							<duration>10499</duration>
							<timecode>
								<rate>
									<timebase>25</timebase>
									<ntsc>FALSE</ntsc>
								</rate>
								<string>00:00:00:00</string>
								<frame>0</frame>
								<displayformat>NDF</displayformat>
								<reel>
									<name></name>
								</reel>
							</timecode>
							<media>
								<video>
									<duration>18000</duration>
									<samplecharacteristics>
										<rate>
											<timebase>25</timebase>
											<ntsc>FALSE</ntsc>
										</rate>
										<width>1920</width>
										<height>1080</height>
										<anamorphic>FALSE</anamorphic>
										<pixelaspectratio>square</pixelaspectratio>
										<fielddominance>none</fielddominance>
									</samplecharacteristics>
								</video>
								<audio>
									<samplecharacteristics>
										<depth>16</depth>
										<samplerate>48000</samplerate>
									</samplecharacteristics>
									<channelcount>1</channelcount>
									<layout>mono</layout>
									<audiochannel>
										<sourcechannel>1</sourcechannel>
										<channellabel>discrete</channellabel>
									</audiochannel>
								</audio>
								<audio>
									<samplecharacteristics>
										<depth>16</depth>
										<samplerate>48000</samplerate>
									</samplecharacteristics>
									<channelcount>1</channelcount>
									<layout>mono</layout>
									<audiochannel>
										<sourcechannel>2</sourcechannel>
										<channellabel>discrete</channellabel>
									</audiochannel>
								</audio>
							</media>
						</file>
						<link>
							<linkclipref>clipitem-606</linkclipref>
							<mediatype>video</mediatype>
							<trackindex>1</trackindex>
							<clipindex>142</clipindex>
						</link>
						<link>
							<linkclipref>clipitem-1116</linkclipref>
							<mediatype>audio</mediatype>
							<trackindex>1</trackindex>
							<clipindex>76</clipindex>
						</link>
						<logginginfo>
							<description></description>
							<scene></scene>
							<shottake></shottake>
							<lognote></lognote>
						</logginginfo>
						<labels>
							<label2>Iris</label2>
						</labels>
					</clipitem>
					<clipitem id="clipitem-607" frameBlend="FALSE">
						<masterclipid>masterclip-112</masterclipid>
						<name>AA037201.MXF</name>
						<enabled>TRUE</enabled>
						<duration>5028</duration>
						<rate>
							<timebase>25</timebase>
							<ntsc>FALSE</ntsc>
						</rate>
						<start>16293</start>
						<end>16519</end>
						<in>600</in>
						<out>826</out>
						<alphatype>none</alphatype>
						<pixelaspectratio>square</pixelaspectratio>
						<anamorphic>FALSE</anamorphic>
						<file id="file-100">
							<name>AA037201.MXF</name>
							<pathurl>file://localhost/Volumes/Brakka/AdobeLager/Katta/Katta-14xxxx-Smart_eller_overvaaket-Chris/02-Video/Datatilsynet%201/CONTENTS/CLIPS001/AA0372/AA037201.MXF</pathurl>
							<rate>
								<timebase>25</timebase>
								<ntsc>FALSE</ntsc>
							</rate>
							<duration>5028</duration>
							<timecode>
								<rate>
									<timebase>25</timebase>
									<ntsc>FALSE</ntsc>
								</rate>
								<string>14:08:53:10</string>
								<frame>1273335</frame>
								<displayformat>NDF</displayformat>
								<reel>
									<name></name>
								</reel>
							</timecode>
							<media>
								<video>
									<duration>18000</duration>
									<samplecharacteristics>
										<rate>
											<timebase>25</timebase>
											<ntsc>FALSE</ntsc>
										</rate>
										<width>1920</width>
										<height>1080</height>
										<anamorphic>FALSE</anamorphic>
										<pixelaspectratio>square</pixelaspectratio>
										<fielddominance>upper</fielddominance>
									</samplecharacteristics>
								</video>
								<audio>
									<samplecharacteristics>
										<depth>16</depth>
										<samplerate>48000</samplerate>
									</samplecharacteristics>
									<channelcount>2</channelcount>
								</audio>
							</media>
						</file>
							<filter>
								<effect>
									<name>Basic Motion</name>
									<effectid>basic</effectid>
									<effectcategory>motion</effectcategory>
									<effecttype>motion</effecttype>
									<mediatype>video</mediatype>
									<parameter authoringApp="PremierePro">
										<parameterid>scale</parameterid>
										<name>Scale</name>
										<valuemin>0</valuemin>
										<valuemax>1000</valuemax>
										<value>206</value>
									</parameter>
									<parameter authoringApp="PremierePro">
										<parameterid>rotation</parameterid>
										<name>Rotation</name>
										<valuemin>-8640</valuemin>
										<valuemax>8640</valuemax>
										<value>0</value>
									</parameter>
									<parameter authoringApp="PremierePro">
										<parameterid>center</parameterid>
										<name>Center</name>
										<value>
											<horiz>-0.203125</horiz>
											<vert>0.357407</vert>
										</value>
									</parameter>
									<parameter authoringApp="PremierePro">
										<parameterid>centerOffset</parameterid>
										<name>Anchor Point</name>
										<value>
											<horiz>0</horiz>
											<vert>0</vert>
										</value>
									</parameter>
								</effect>
							</filter>
							<marker>
								<comment>og d fￃﾥr ikke bilreklamen i gmail, men pￃﾥ avisene du besￃﾸker, GOOGLE ER OVERALT</comment>
								<name></name>
								<in>2802</in>
								<out>-1</out>
							</marker>
							<marker>
								<comment>de vil vite alt om hva du foretar det i lￃﾸpet av dagen bare fordi du er bￃﾦrer av en androidteleofon</comment>
								<name></name>
								<in>653</in>
								<out>-1</out>
							</marker>
							<marker>
								<comment>ja, det er en maskinell lesning sￃﾥ hvis du skriver om en bil, sￃﾥ kan du fￃﾥ bilrreklame</comment>
								<name></name>
								<in>2229</in>
								<out>-1</out>
							</marker>
						<link>
							<linkclipref>clipitem-607</linkclipref>
							<mediatype>video</mediatype>
							<trackindex>1</trackindex>
							<clipindex>143</clipindex>
						</link>
						<link>
							<linkclipref>clipitem-1117</linkclipref>
							<mediatype>audio</mediatype>
							<trackindex>1</trackindex>
							<clipindex>77</clipindex>
						</link>
						<logginginfo>
							<description></description>
							<scene></scene>
							<shottake>AA0372</shottake>
							<lognote></lognote>
						</logginginfo>
						<labels>
							<label2>Iris</label2>
						</labels>
					</clipitem>
					<clipitem id="clipitem-608" frameBlend="FALSE">
						<masterclipid>masterclip-111</masterclipid>
						<name>MVI_0458.MOV</name>
						<enabled>TRUE</enabled>
						<duration>10499</duration>
						<rate>
							<timebase>25</timebase>
							<ntsc>FALSE</ntsc>
						</rate>
						<start>16519</start>
						<end>16559</end>
						<in>7652</in>
						<out>7692</out>
						<alphatype>black</alphatype>
						<file id="file-99"/>
						<logginginfo>
							<description></description>
							<scene></scene>
							<shottake></shottake>
							<lognote></lognote>
						</logginginfo>
						<labels>
							<label2>Iris</label2>
						</labels>
					</clipitem>
					<clipitem id="clipitem-609" frameBlend="FALSE">
						<masterclipid>masterclip-111</masterclipid>
						<name>MVI_0458.MOV</name>
						<enabled>TRUE</enabled>
						<duration>10499</duration>
						<rate>
							<timebase>25</timebase>
							<ntsc>FALSE</ntsc>
						</rate>
						<start>16559</start>
						<end>16674</end>
						<in>8883</in>
						<out>8998</out>
						<alphatype>black</alphatype>
						<file id="file-99"/>
						<logginginfo>
							<description></description>
							<scene></scene>
							<shottake></shottake>
							<lognote></lognote>
						</logginginfo>
						<labels>
							<label2>Iris</label2>
						</labels>
					</clipitem>
					<clipitem id="clipitem-610" frameBlend="FALSE">
						<masterclipid>masterclip-111</masterclipid>
						<name>MVI_0458.MOV</name>
						<enabled>TRUE</enabled>
						<duration>10499</duration>
						<rate>
							<timebase>25</timebase>
							<ntsc>FALSE</ntsc>
						</rate>
						<start>16674</start>
						<end>16706</end>
						<in>9292</in>
						<out>9324</out>
						<alphatype>black</alphatype>
						<file id="file-99"/>
						<link>
							<linkclipref>clipitem-610</linkclipref>
							<mediatype>video</mediatype>
							<trackindex>1</trackindex>
							<clipindex>146</clipindex>
						</link>
						<link>
							<linkclipref>clipitem-1119</linkclipref>
							<mediatype>audio</mediatype>
							<trackindex>1</trackindex>
							<clipindex>79</clipindex>
						</link>
						<logginginfo>
							<description></description>
							<scene></scene>
							<shottake></shottake>
							<lognote></lognote>
						</logginginfo>
						<labels>
							<label2>Iris</label2>
						</labels>
					</clipitem>
					<clipitem id="clipitem-611" frameBlend="FALSE">
						<masterclipid>masterclip-113</masterclipid>
						<name>MVI_0460.MOV</name>
						<enabled>TRUE</enabled>
						<duration>2874</duration>
						<rate>
							<timebase>25</timebase>
							<ntsc>FALSE</ntsc>
						</rate>
						<start>16706</start>
						<end>16796</end>
						<in>332</in>
						<out>422</out>
						<alphatype>black</alphatype>
						<pixelaspectratio>square</pixelaspectratio>
						<anamorphic>FALSE</anamorphic>
						<file id="file-101">
							<name>MVI_0460.MOV</name>
							<pathurl>file://localhost/Volumes/Brakka/AdobeLager/Katta/Katta-14xxxx-Smart_eller_overvaaket-Chris/02-Video/Datatilsynet%20Case%205D/100EOS5D/MVI_0460.MOV</pathurl>
							<rate>
								<timebase>25</timebase>
								<ntsc>FALSE</ntsc>
							</rate>
							<duration>2874</duration>
							<timecode>
								<rate>
									<timebase>25</timebase>
									<ntsc>FALSE</ntsc>
								</rate>
								<string>00:00:00:00</string>
								<frame>0</frame>
								<displayformat>NDF</displayformat>
								<reel>
									<name></name>
								</reel>
							</timecode>
							<media>
								<video>
									<duration>18000</duration>
									<samplecharacteristics>
										<rate>
											<timebase>25</timebase>
											<ntsc>FALSE</ntsc>
										</rate>
										<width>1920</width>
										<height>1080</height>
										<anamorphic>FALSE</anamorphic>
										<pixelaspectratio>square</pixelaspectratio>
										<fielddominance>none</fielddominance>
									</samplecharacteristics>
								</video>
								<audio>
									<samplecharacteristics>
										<depth>16</depth>
										<samplerate>48000</samplerate>
									</samplecharacteristics>
									<channelcount>1</channelcount>
									<layout>mono</layout>
									<audiochannel>
										<sourcechannel>1</sourcechannel>
										<channellabel>discrete</channellabel>
									</audiochannel>
								</audio>
								<audio>
									<samplecharacteristics>
										<depth>16</depth>
										<samplerate>48000</samplerate>
									</samplecharacteristics>
									<channelcount>1</channelcount>
									<layout>mono</layout>
									<audiochannel>
										<sourcechannel>2</sourcechannel>
										<channellabel>discrete</channellabel>
									</audiochannel>
								</audio>
							</media>
						</file>
						<logginginfo>
							<description></description>
							<scene></scene>
							<shottake></shottake>
							<lognote></lognote>
						</logginginfo>
						<labels>
							<label2>Iris</label2>
						</labels>
					</clipitem>
					<clipitem id="clipitem-612" frameBlend="FALSE">
						<masterclipid>masterclip-111</masterclipid>
						<name>MVI_0458.MOV</name>
						<enabled>TRUE</enabled>
						<duration>10499</duration>
						<rate>
							<timebase>25</timebase>
							<ntsc>FALSE</ntsc>
						</rate>
						<start>16796</start>
						<end>16880</end>
						<in>10168</in>
						<out>10252</out>
						<alphatype>black</alphatype>
						<file id="file-99"/>
						<link>
							<linkclipref>clipitem-612</linkclipref>
							<mediatype>video</mediatype>
							<trackindex>1</trackindex>
							<clipindex>148</clipindex>
						</link>
						<link>
							<linkclipref>clipitem-1120</linkclipref>
							<mediatype>audio</mediatype>
							<trackindex>1</trackindex>
							<clipindex>80</clipindex>
						</link>
						<logginginfo>
							<description></description>
							<scene></scene>
							<shottake></shottake>
							<lognote></lognote>
						</logginginfo>
						<labels>
							<label2>Iris</label2>
						</labels>
					</clipitem>
					<clipitem id="clipitem-613" frameBlend="FALSE">
						<masterclipid>masterclip-114</masterclipid>
						<name>N42A6344.MOV</name>
						<enabled>TRUE</enabled>
						<duration>528</duration>
						<rate>
							<timebase>25</timebase>
							<ntsc>FALSE</ntsc>
						</rate>
						<start>16880</start>
						<end>16940</end>
						<in>206</in>
						<out>266</out>
						<alphatype>black</alphatype>
						<pixelaspectratio>square</pixelaspectratio>
						<anamorphic>FALSE</anamorphic>
						<file id="file-102">
							<name>N42A6344.MOV</name>
							<pathurl>file://localhost/Volumes/Brakka/AdobeLager/Katta/Katta-14xxxx-Smart_eller_overvaaket-Chris/02-Video/Googlekart/DCIM/100EOS5D/N42A6344.MOV</pathurl>
							<rate>
								<timebase>25</timebase>
								<ntsc>FALSE</ntsc>
							</rate>
							<duration>528</duration>
							<timecode>
								<rate>
									<timebase>25</timebase>
									<ntsc>FALSE</ntsc>
								</rate>
								<string>11:53:09:24</string>
								<frame>1069749</frame>
								<displayformat>NDF</displayformat>
								<reel>
									<name></name>
								</reel>
							</timecode>
							<media>
								<video>
									<duration>18000</duration>
									<samplecharacteristics>
										<rate>
											<timebase>25</timebase>
											<ntsc>FALSE</ntsc>
										</rate>
										<width>1920</width>
										<height>1080</height>
										<anamorphic>FALSE</anamorphic>
										<pixelaspectratio>square</pixelaspectratio>
										<fielddominance>none</fielddominance>
									</samplecharacteristics>
								</video>
								<audio>
									<samplecharacteristics>
										<depth>16</depth>
										<samplerate>48000</samplerate>
									</samplecharacteristics>
									<channelcount>2</channelcount>
								</audio>
							</media>
						</file>
						<logginginfo>
							<description></description>
							<scene></scene>
							<shottake></shottake>
							<lognote></lognote>
						</logginginfo>
						<labels>
							<label2>Iris</label2>
						</labels>
					</clipitem>
					<clipitem id="clipitem-614" frameBlend="FALSE">
						<masterclipid>masterclip-111</masterclipid>
						<name>MVI_0458.MOV</name>
						<enabled>TRUE</enabled>
						<duration>10499</duration>
						<rate>
							<timebase>25</timebase>
							<ntsc>FALSE</ntsc>
						</rate>
						<start>16940</start>
						<end>17001</end>
						<in>9760</in>
						<out>9821</out>
						<alphatype>black</alphatype>
						<file id="file-99"/>
						<logginginfo>
							<description></description>
							<scene></scene>
							<shottake></shottake>
							<lognote></lognote>
						</logginginfo>
						<labels>
							<label2>Iris</label2>
						</labels>
					</clipitem>
					<clipitem id="clipitem-615" frameBlend="FALSE">
						<masterclipid>masterclip-113</masterclipid>
						<name>MVI_0460.MOV</name>
						<enabled>TRUE</enabled>
						<duration>2874</duration>
						<rate>
							<timebase>25</timebase>
							<ntsc>FALSE</ntsc>
						</rate>
						<start>17001</start>
						<end>17056</end>
						<in>166</in>
						<out>221</out>
						<alphatype>black</alphatype>
						<file id="file-101"/>
						<logginginfo>
							<description></description>
							<scene></scene>
							<shottake></shottake>
							<lognote></lognote>
						</logginginfo>
						<labels>
							<label2>Iris</label2>
						</labels>
					</clipitem>
					<clipitem id="clipitem-616" frameBlend="FALSE">
						<masterclipid>masterclip-111</masterclipid>
						<name>MVI_0458.MOV</name>
						<enabled>TRUE</enabled>
						<duration>10499</duration>
						<rate>
							<timebase>25</timebase>
							<ntsc>FALSE</ntsc>
						</rate>
						<start>17056</start>
						<end>17101</end>
						<in>5345</in>
						<out>5390</out>
						<alphatype>black</alphatype>
						<file id="file-99"/>
						<logginginfo>
							<description></description>
							<scene></scene>
							<shottake></shottake>
							<lognote></lognote>
						</logginginfo>
						<labels>
							<label2>Iris</label2>
						</labels>
					</clipitem>
					<clipitem id="clipitem-617" frameBlend="FALSE">
						<masterclipid>masterclip-115</masterclipid>
						<name>nettbrett.mov</name>
						<enabled>TRUE</enabled>
						<duration>70</duration>
						<rate>
							<timebase>25</timebase>
							<ntsc>FALSE</ntsc>
						</rate>
						<start>17101</start>
						<end>17171</end>
						<in>0</in>
						<out>70</out>
						<alphatype>none</alphatype>
						<pixelaspectratio>square</pixelaspectratio>
						<anamorphic>FALSE</anamorphic>
						<file id="file-103">
							<name>nettbrett.mov</name>
							<pathurl>file://localhost/Volumes/Brakka/AdobeLager/Katta/Katta-14xxxx-Smart_eller_overvaaket-Chris/02-Video/Arkiv/nettbrett.mov</pathurl>
							<rate>
								<timebase>25</timebase>
								<ntsc>FALSE</ntsc>
							</rate>
							<duration>70</duration>
							<timecode>
								<rate>
									<timebase>25</timebase>
									<ntsc>FALSE</ntsc>
								</rate>
								<string>00:11:22:01</string>
								<frame>17051</frame>
								<displayformat>NDF</displayformat>
								<reel>
									<name></name>
								</reel>
							</timecode>
							<media>
								<video>
									<duration>18000</duration>
									<samplecharacteristics>
										<rate>
											<timebase>25</timebase>
											<ntsc>FALSE</ntsc>
										</rate>
										<width>1920</width>
										<height>1080</height>
										<anamorphic>FALSE</anamorphic>
										<pixelaspectratio>square</pixelaspectratio>
										<fielddominance>upper</fielddominance>
									</samplecharacteristics>
								</video>
								<audio>
									<samplecharacteristics>
										<depth>16</depth>
										<samplerate>48000</samplerate>
									</samplecharacteristics>
									<channelcount>2</channelcount>
								</audio>
							</media>
						</file>
						<logginginfo>
							<description></description>
							<scene></scene>
							<shottake></shottake>
							<lognote></lognote>
						</logginginfo>
						<labels>
							<label2>Iris</label2>
						</labels>
					</clipitem>
					<clipitem id="clipitem-618" frameBlend="FALSE">
						<masterclipid>masterclip-111</masterclipid>
						<name>MVI_0458.MOV</name>
						<enabled>TRUE</enabled>
						<duration>10499</duration>
						<rate>
							<timebase>25</timebase>
							<ntsc>FALSE</ntsc>
						</rate>
						<start>17171</start>
						<end>17399</end>
						<in>5460</in>
						<out>5688</out>
						<alphatype>black</alphatype>
						<file id="file-99"/>
						<logginginfo>
							<description></description>
							<scene></scene>
							<shottake></shottake>
							<lognote></lognote>
						</logginginfo>
						<labels>
							<label2>Iris</label2>
						</labels>
					</clipitem>
					<clipitem id="clipitem-619" frameBlend="FALSE">
						<masterclipid>masterclip-112</masterclipid>
						<name>AA037201.MXF</name>
						<enabled>TRUE</enabled>
						<duration>5028</duration>
						<rate>
							<timebase>25</timebase>
							<ntsc>FALSE</ntsc>
						</rate>
						<start>17399</start>
						<end>17663</end>
						<in>2281</in>
						<out>2545</out>
						<alphatype>none</alphatype>
						<file id="file-100"/>
							<marker>
								<comment>og d fￃﾥr ikke bilreklamen i gmail, men pￃﾥ avisene du besￃﾸker, GOOGLE ER OVERALT</comment>
								<name></name>
								<in>2802</in>
								<out>-1</out>
							</marker>
							<marker>
								<comment>de vil vite alt om hva du foretar det i lￃﾸpet av dagen bare fordi du er bￃﾦrer av en androidteleofon</comment>
								<name></name>
								<in>653</in>
								<out>-1</out>
							</marker>
							<marker>
								<comment>ja, det er en maskinell lesning sￃﾥ hvis du skriver om en bil, sￃﾥ kan du fￃﾥ bilrreklame</comment>
								<name></name>
								<in>2229</in>
								<out>-1</out>
							</marker>
						<link>
							<linkclipref>clipitem-619</linkclipref>
							<mediatype>video</mediatype>
							<trackindex>1</trackindex>
							<clipindex>155</clipindex>
						</link>
						<link>
							<linkclipref>clipitem-1124</linkclipref>
							<mediatype>audio</mediatype>
							<trackindex>1</trackindex>
							<clipindex>84</clipindex>
						</link>
						<logginginfo>
							<description></description>
							<scene></scene>
							<shottake>AA0372</shottake>
							<lognote></lognote>
						</logginginfo>
						<labels>
							<label2>Iris</label2>
						</labels>
					</clipitem>
					<clipitem id="clipitem-620" frameBlend="FALSE">
						<masterclipid>masterclip-111</masterclipid>
						<name>MVI_0458.MOV</name>
						<enabled>TRUE</enabled>
						<duration>10499</duration>
						<rate>
							<timebase>25</timebase>
							<ntsc>FALSE</ntsc>
						</rate>
						<start>17663</start>
						<end>17799</end>
						<in>6272</in>
						<out>6408</out>
						<alphatype>black</alphatype>
						<file id="file-99"/>
						<link>
							<linkclipref>clipitem-620</linkclipref>
							<mediatype>video</mediatype>
							<trackindex>1</trackindex>
							<clipindex>156</clipindex>
						</link>
						<link>
							<linkclipref>clipitem-1125</linkclipref>
							<mediatype>audio</mediatype>
							<trackindex>1</trackindex>
							<clipindex>85</clipindex>
						</link>
						<logginginfo>
							<description></description>
							<scene></scene>
							<shottake></shottake>
							<lognote></lognote>
						</logginginfo>
						<labels>
							<label2>Iris</label2>
						</labels>
					</clipitem>
					<clipitem id="clipitem-621" frameBlend="FALSE">
						<masterclipid>masterclip-116</masterclipid>
						<name>PO_kiosk6.MOV</name>
						<enabled>TRUE</enabled>
						<duration>507</duration>
						<rate>
							<timebase>25</timebase>
							<ntsc>FALSE</ntsc>
						</rate>
						<start>17799</start>
						<end>18191</end>
						<in>76</in>
						<out>468</out>
						<alphatype>black</alphatype>
						<pixelaspectratio>square</pixelaspectratio>
						<anamorphic>FALSE</anamorphic>
						<file id="file-104">
							<name>PO_kiosk6.MOV</name>
							<pathurl>file://localhost/Volumes/Brakka/AdobeLager/Katta/Katta-14xxxx-Smart_eller_overvaaket-Chris/02-Video/Mobilvideo%20restopptak%20begge/PO_kiosk6.MOV</pathurl>
							<rate>
								<timebase>30</timebase>
								<ntsc>FALSE</ntsc>
							</rate>
							<duration>609</duration>
							<timecode>
								<rate>
									<timebase>30</timebase>
									<ntsc>FALSE</ntsc>
								</rate>
								<string>00:00:00:00</string>
								<frame>0</frame>
								<displayformat>NDF</displayformat>
								<reel>
									<name></name>
								</reel>
							</timecode>
							<media>
								<video>
									<duration>18000</duration>
									<samplecharacteristics>
										<rate>
											<timebase>30</timebase>
											<ntsc>FALSE</ntsc>
										</rate>
										<width>1280</width>
										<height>720</height>
										<anamorphic>FALSE</anamorphic>
										<pixelaspectratio>square</pixelaspectratio>
										<fielddominance>none</fielddominance>
									</samplecharacteristics>
								</video>
								<audio>
									<samplecharacteristics>
										<depth>16</depth>
										<samplerate>44100</samplerate>
									</samplecharacteristics>
									<channelcount>1</channelcount>
									<layout>mono</layout>
									<audiochannel>
										<sourcechannel>1</sourcechannel>
										<channellabel>discrete</channellabel>
									</audiochannel>
								</audio>
							</media>
						</file>
						<link>
							<linkclipref>clipitem-621</linkclipref>
							<mediatype>video</mediatype>
							<trackindex>1</trackindex>
							<clipindex>157</clipindex>
						</link>
						<link>
							<linkclipref>clipitem-1126</linkclipref>
							<mediatype>audio</mediatype>
							<trackindex>1</trackindex>
							<clipindex>86</clipindex>
						</link>
						<logginginfo>
							<description></description>
							<scene></scene>
							<shottake></shottake>
							<lognote></lognote>
						</logginginfo>
						<labels>
							<label2>Iris</label2>
						</labels>
					</clipitem>
					<clipitem id="clipitem-622" frameBlend="FALSE">
						<masterclipid>masterclip-109</masterclipid>
						<name>MVI_0400.MOV</name>
						<enabled>TRUE</enabled>
						<duration>1914</duration>
						<rate>
							<timebase>25</timebase>
							<ntsc>FALSE</ntsc>
						</rate>
						<start>18191</start>
						<end>18329</end>
						<in>785</in>
						<out>923</out>
						<alphatype>black</alphatype>
						<file id="file-97"/>
						<link>
							<linkclipref>clipitem-622</linkclipref>
							<mediatype>video</mediatype>
							<trackindex>1</trackindex>
							<clipindex>158</clipindex>
						</link>
						<link>
							<linkclipref>clipitem-1542</linkclipref>
							<mediatype>audio</mediatype>
							<trackindex>5</trackindex>
							<clipindex>37</clipindex>
						</link>
						<link>
							<linkclipref>clipitem-1613</linkclipref>
							<mediatype>audio</mediatype>
							<trackindex>7</trackindex>
							<clipindex>30</clipindex>
						</link>
						<logginginfo>
							<description></description>
							<scene></scene>
							<shottake></shottake>
							<lognote></lognote>
						</logginginfo>
						<labels>
							<label2>Iris</label2>
						</labels>
					</clipitem>
					<clipitem id="clipitem-623" frameBlend="FALSE">
						<masterclipid>masterclip-117</masterclipid>
						<name>MVI_0416.MOV</name>
						<enabled>TRUE</enabled>
						<duration>274</duration>
						<rate>
							<timebase>25</timebase>
							<ntsc>FALSE</ntsc>
						</rate>
						<start>18329</start>
						<end>18475</end>
						<in>115</in>
						<out>261</out>
						<alphatype>black</alphatype>
						<pixelaspectratio>square</pixelaspectratio>
						<anamorphic>FALSE</anamorphic>
						<file id="file-105">
							<name>MVI_0416.MOV</name>
							<pathurl>file://localhost/Volumes/Brakka/AdobeLager/Katta/Katta-14xxxx-Smart_eller_overvaaket-Chris/02-Video/Datatilsynet%20Case%205D/100EOS5D/MVI_0416.MOV</pathurl>
							<rate>
								<timebase>25</timebase>
								<ntsc>FALSE</ntsc>
							</rate>
							<duration>274</duration>
							<timecode>
								<rate>
									<timebase>25</timebase>
									<ntsc>FALSE</ntsc>
								</rate>
								<string>00:00:00:00</string>
								<frame>0</frame>
								<displayformat>NDF</displayformat>
								<reel>
									<name></name>
								</reel>
							</timecode>
							<media>
								<video>
									<duration>18000</duration>
									<samplecharacteristics>
										<rate>
											<timebase>25</timebase>
											<ntsc>FALSE</ntsc>
										</rate>
										<width>1920</width>
										<height>1080</height>
										<anamorphic>FALSE</anamorphic>
										<pixelaspectratio>square</pixelaspectratio>
										<fielddominance>none</fielddominance>
									</samplecharacteristics>
								</video>
								<audio>
									<samplecharacteristics>
										<depth>16</depth>
										<samplerate>48000</samplerate>
									</samplecharacteristics>
									<channelcount>1</channelcount>
									<layout>mono</layout>
									<audiochannel>
										<sourcechannel>1</sourcechannel>
										<channellabel>discrete</channellabel>
									</audiochannel>
								</audio>
								<audio>
									<samplecharacteristics>
										<depth>16</depth>
										<samplerate>48000</samplerate>
									</samplecharacteristics>
									<channelcount>1</channelcount>
									<layout>mono</layout>
									<audiochannel>
										<sourcechannel>2</sourcechannel>
										<channellabel>discrete</channellabel>
									</audiochannel>
								</audio>
							</media>
						</file>
						<link>
							<linkclipref>clipitem-623</linkclipref>
							<mediatype>video</mediatype>
							<trackindex>1</trackindex>
							<clipindex>159</clipindex>
						</link>
						<link>
							<linkclipref>clipitem-1543</linkclipref>
							<mediatype>audio</mediatype>
							<trackindex>5</trackindex>
							<clipindex>38</clipindex>
						</link>
						<link>
							<linkclipref>clipitem-1614</linkclipref>
							<mediatype>audio</mediatype>
							<trackindex>7</trackindex>
							<clipindex>31</clipindex>
						</link>
						<logginginfo>
							<description></description>
							<scene></scene>
							<shottake></shottake>
							<lognote></lognote>
						</logginginfo>
						<labels>
							<label2>Iris</label2>
						</labels>
					</clipitem>
					<clipitem id="clipitem-624" frameBlend="FALSE">
						<masterclipid>masterclip-118</masterclipid>
						<name>MVI_0424.MOV</name>
						<enabled>TRUE</enabled>
						<duration>354</duration>
						<rate>
							<timebase>25</timebase>
							<ntsc>FALSE</ntsc>
						</rate>
						<start>18475</start>
						<end>18555</end>
						<in>192</in>
						<out>272</out>
						<alphatype>black</alphatype>
						<pixelaspectratio>square</pixelaspectratio>
						<anamorphic>FALSE</anamorphic>
						<file id="file-106">
							<name>MVI_0424.MOV</name>
							<pathurl>file://localhost/Volumes/Brakka/AdobeLager/Katta/Katta-14xxxx-Smart_eller_overvaaket-Chris/02-Video/Datatilsynet%20Case%205D/100EOS5D/MVI_0424.MOV</pathurl>
							<rate>
								<timebase>25</timebase>
								<ntsc>FALSE</ntsc>
							</rate>
							<duration>354</duration>
							<timecode>
								<rate>
									<timebase>25</timebase>
									<ntsc>FALSE</ntsc>
								</rate>
								<string>00:00:00:00</string>
								<frame>0</frame>
								<displayformat>NDF</displayformat>
								<reel>
									<name></name>
								</reel>
							</timecode>
							<media>
								<video>
									<duration>18000</duration>
									<samplecharacteristics>
										<rate>
											<timebase>25</timebase>
											<ntsc>FALSE</ntsc>
										</rate>
										<width>1920</width>
										<height>1080</height>
										<anamorphic>FALSE</anamorphic>
										<pixelaspectratio>square</pixelaspectratio>
										<fielddominance>none</fielddominance>
									</samplecharacteristics>
								</video>
								<audio>
									<samplecharacteristics>
										<depth>16</depth>
										<samplerate>48000</samplerate>
									</samplecharacteristics>
									<channelcount>1</channelcount>
									<layout>mono</layout>
									<audiochannel>
										<sourcechannel>1</sourcechannel>
										<channellabel>discrete</channellabel>
									</audiochannel>
								</audio>
								<audio>
									<samplecharacteristics>
										<depth>16</depth>
										<samplerate>48000</samplerate>
									</samplecharacteristics>
									<channelcount>1</channelcount>
									<layout>mono</layout>
									<audiochannel>
										<sourcechannel>2</sourcechannel>
										<channellabel>discrete</channellabel>
									</audiochannel>
								</audio>
							</media>
						</file>
						<logginginfo>
							<description></description>
							<scene></scene>
							<shottake></shottake>
							<lognote></lognote>
						</logginginfo>
						<labels>
							<label2>Iris</label2>
						</labels>
					</clipitem>
					<clipitem id="clipitem-625" frameBlend="FALSE">
						<masterclipid>masterclip-119</masterclipid>
						<name>MVI_0423.MOV</name>
						<enabled>TRUE</enabled>
						<duration>851</duration>
						<rate>
							<timebase>25</timebase>
							<ntsc>FALSE</ntsc>
						</rate>
						<start>18555</start>
						<end>18602</end>
						<in>92</in>
						<out>139</out>
						<alphatype>black</alphatype>
						<pixelaspectratio>square</pixelaspectratio>
						<anamorphic>FALSE</anamorphic>
						<file id="file-107">
							<name>MVI_0423.MOV</name>
							<pathurl>file://localhost/Volumes/Brakka/AdobeLager/Katta/Katta-14xxxx-Smart_eller_overvaaket-Chris/02-Video/Datatilsynet%20Case%205D/100EOS5D/MVI_0423.MOV</pathurl>
							<rate>
								<timebase>25</timebase>
								<ntsc>FALSE</ntsc>
							</rate>
							<duration>851</duration>
							<timecode>
								<rate>
									<timebase>25</timebase>
									<ntsc>FALSE</ntsc>
								</rate>
								<string>00:00:00:00</string>
								<frame>0</frame>
								<displayformat>NDF</displayformat>
								<reel>
									<name></name>
								</reel>
							</timecode>
							<media>
								<video>
									<duration>18000</duration>
									<samplecharacteristics>
										<rate>
											<timebase>25</timebase>
											<ntsc>FALSE</ntsc>
										</rate>
										<width>1920</width>
										<height>1080</height>
										<anamorphic>FALSE</anamorphic>
										<pixelaspectratio>square</pixelaspectratio>
										<fielddominance>none</fielddominance>
									</samplecharacteristics>
								</video>
								<audio>
									<samplecharacteristics>
										<depth>16</depth>
										<samplerate>48000</samplerate>
									</samplecharacteristics>
									<channelcount>1</channelcount>
									<layout>mono</layout>
									<audiochannel>
										<sourcechannel>1</sourcechannel>
										<channellabel>discrete</channellabel>
									</audiochannel>
								</audio>
								<audio>
									<samplecharacteristics>
										<depth>16</depth>
										<samplerate>48000</samplerate>
									</samplecharacteristics>
									<channelcount>1</channelcount>
									<layout>mono</layout>
									<audiochannel>
										<sourcechannel>2</sourcechannel>
										<channellabel>discrete</channellabel>
									</audiochannel>
								</audio>
							</media>
						</file>
						<logginginfo>
							<description></description>
							<scene></scene>
							<shottake></shottake>
							<lognote></lognote>
						</logginginfo>
						<labels>
							<label2>Iris</label2>
						</labels>
					</clipitem>
					<clipitem id="clipitem-626" frameBlend="FALSE">
						<masterclipid>masterclip-120</masterclipid>
						<name>MVI_0433.MOV</name>
						<enabled>TRUE</enabled>
						<duration>502</duration>
						<rate>
							<timebase>25</timebase>
							<ntsc>FALSE</ntsc>
						</rate>
						<start>18602</start>
						<end>18744</end>
						<in>223</in>
						<out>365</out>
						<alphatype>black</alphatype>
						<pixelaspectratio>square</pixelaspectratio>
						<anamorphic>FALSE</anamorphic>
						<file id="file-108">
							<name>MVI_0433.MOV</name>
							<pathurl>file://localhost/Volumes/Brakka/AdobeLager/Katta/Katta-14xxxx-Smart_eller_overvaaket-Chris/02-Video/Datatilsynet%20Case%205D/100EOS5D/MVI_0433.MOV</pathurl>
							<rate>
								<timebase>25</timebase>
								<ntsc>FALSE</ntsc>
							</rate>
							<duration>502</duration>
							<timecode>
								<rate>
									<timebase>25</timebase>
									<ntsc>FALSE</ntsc>
								</rate>
								<string>00:00:00:00</string>
								<frame>0</frame>
								<displayformat>NDF</displayformat>
								<reel>
									<name></name>
								</reel>
							</timecode>
							<media>
								<video>
									<duration>18000</duration>
									<samplecharacteristics>
										<rate>
											<timebase>25</timebase>
											<ntsc>FALSE</ntsc>
										</rate>
										<width>1920</width>
										<height>1080</height>
										<anamorphic>FALSE</anamorphic>
										<pixelaspectratio>square</pixelaspectratio>
										<fielddominance>none</fielddominance>
									</samplecharacteristics>
								</video>
								<audio>
									<samplecharacteristics>
										<depth>16</depth>
										<samplerate>48000</samplerate>
									</samplecharacteristics>
									<channelcount>1</channelcount>
									<layout>mono</layout>
									<audiochannel>
										<sourcechannel>1</sourcechannel>
										<channellabel>discrete</channellabel>
									</audiochannel>
								</audio>
								<audio>
									<samplecharacteristics>
										<depth>16</depth>
										<samplerate>48000</samplerate>
									</samplecharacteristics>
									<channelcount>1</channelcount>
									<layout>mono</layout>
									<audiochannel>
										<sourcechannel>2</sourcechannel>
										<channellabel>discrete</channellabel>
									</audiochannel>
								</audio>
							</media>
						</file>
						<link>
							<linkclipref>clipitem-626</linkclipref>
							<mediatype>video</mediatype>
							<trackindex>1</trackindex>
							<clipindex>162</clipindex>
						</link>
						<link>
							<linkclipref>clipitem-1547</linkclipref>
							<mediatype>audio</mediatype>
							<trackindex>5</trackindex>
							<clipindex>42</clipindex>
						</link>
						<link>
							<linkclipref>clipitem-1618</linkclipref>
							<mediatype>audio</mediatype>
							<trackindex>7</trackindex>
							<clipindex>35</clipindex>
						</link>
						<logginginfo>
							<description></description>
							<scene></scene>
							<shottake></shottake>
							<lognote></lognote>
						</logginginfo>
						<labels>
							<label2>Iris</label2>
						</labels>
					</clipitem>
					<clipitem id="clipitem-627" frameBlend="FALSE">
						<masterclipid>masterclip-121</masterclipid>
						<name>MVI_0425.MOV</name>
						<enabled>TRUE</enabled>
						<duration>198</duration>
						<rate>
							<timebase>25</timebase>
							<ntsc>FALSE</ntsc>
						</rate>
						<start>18744</start>
						<end>18811</end>
						<in>28</in>
						<out>95</out>
						<alphatype>black</alphatype>
						<pixelaspectratio>square</pixelaspectratio>
						<anamorphic>FALSE</anamorphic>
						<file id="file-109">
							<name>MVI_0425.MOV</name>
							<pathurl>file://localhost/Volumes/Brakka/AdobeLager/Katta/Katta-14xxxx-Smart_eller_overvaaket-Chris/02-Video/Datatilsynet%20Case%205D/100EOS5D/MVI_0425.MOV</pathurl>
							<rate>
								<timebase>25</timebase>
								<ntsc>FALSE</ntsc>
							</rate>
							<duration>198</duration>
							<timecode>
								<rate>
									<timebase>25</timebase>
									<ntsc>FALSE</ntsc>
								</rate>
								<string>00:00:00:00</string>
								<frame>0</frame>
								<displayformat>NDF</displayformat>
								<reel>
									<name></name>
								</reel>
							</timecode>
							<media>
								<video>
									<duration>18000</duration>
									<samplecharacteristics>
										<rate>
											<timebase>25</timebase>
											<ntsc>FALSE</ntsc>
										</rate>
										<width>1920</width>
										<height>1080</height>
										<anamorphic>FALSE</anamorphic>
										<pixelaspectratio>square</pixelaspectratio>
										<fielddominance>none</fielddominance>
									</samplecharacteristics>
								</video>
								<audio>
									<samplecharacteristics>
										<depth>16</depth>
										<samplerate>48000</samplerate>
									</samplecharacteristics>
									<channelcount>1</channelcount>
									<layout>mono</layout>
									<audiochannel>
										<sourcechannel>1</sourcechannel>
										<channellabel>discrete</channellabel>
									</audiochannel>
								</audio>
								<audio>
									<samplecharacteristics>
										<depth>16</depth>
										<samplerate>48000</samplerate>
									</samplecharacteristics>
									<channelcount>1</channelcount>
									<layout>mono</layout>
									<audiochannel>
										<sourcechannel>2</sourcechannel>
										<channellabel>discrete</channellabel>
									</audiochannel>
								</audio>
							</media>
						</file>
						<link>
							<linkclipref>clipitem-627</linkclipref>
							<mediatype>video</mediatype>
							<trackindex>1</trackindex>
							<clipindex>163</clipindex>
						</link>
						<link>
							<linkclipref>clipitem-1548</linkclipref>
							<mediatype>audio</mediatype>
							<trackindex>5</trackindex>
							<clipindex>43</clipindex>
						</link>
						<link>
							<linkclipref>clipitem-1619</linkclipref>
							<mediatype>audio</mediatype>
							<trackindex>7</trackindex>
							<clipindex>36</clipindex>
						</link>
						<logginginfo>
							<description></description>
							<scene></scene>
							<shottake></shottake>
							<lognote></lognote>
						</logginginfo>
						<labels>
							<label2>Iris</label2>
						</labels>
					</clipitem>
					<clipitem id="clipitem-628" frameBlend="FALSE">
						<masterclipid>masterclip-122</masterclipid>
						<name>MVI_0422.MOV</name>
						<enabled>TRUE</enabled>
						<duration>760</duration>
						<rate>
							<timebase>25</timebase>
							<ntsc>FALSE</ntsc>
						</rate>
						<start>18811</start>
						<end>18850</end>
						<in>200</in>
						<out>239</out>
						<alphatype>black</alphatype>
						<pixelaspectratio>square</pixelaspectratio>
						<anamorphic>FALSE</anamorphic>
						<file id="file-110">
							<name>MVI_0422.MOV</name>
							<pathurl>file://localhost/Volumes/Brakka/AdobeLager/Katta/Katta-14xxxx-Smart_eller_overvaaket-Chris/02-Video/Datatilsynet%20Case%205D/100EOS5D/MVI_0422.MOV</pathurl>
							<rate>
								<timebase>25</timebase>
								<ntsc>FALSE</ntsc>
							</rate>
							<duration>760</duration>
							<timecode>
								<rate>
									<timebase>25</timebase>
									<ntsc>FALSE</ntsc>
								</rate>
								<string>00:00:00:00</string>
								<frame>0</frame>
								<displayformat>NDF</displayformat>
								<reel>
									<name></name>
								</reel>
							</timecode>
							<media>
								<video>
									<duration>18000</duration>
									<samplecharacteristics>
										<rate>
											<timebase>25</timebase>
											<ntsc>FALSE</ntsc>
										</rate>
										<width>1920</width>
										<height>1080</height>
										<anamorphic>FALSE</anamorphic>
										<pixelaspectratio>square</pixelaspectratio>
										<fielddominance>none</fielddominance>
									</samplecharacteristics>
								</video>
								<audio>
									<samplecharacteristics>
										<depth>16</depth>
										<samplerate>48000</samplerate>
									</samplecharacteristics>
									<channelcount>1</channelcount>
									<layout>mono</layout>
									<audiochannel>
										<sourcechannel>1</sourcechannel>
										<channellabel>discrete</channellabel>
									</audiochannel>
								</audio>
								<audio>
									<samplecharacteristics>
										<depth>16</depth>
										<samplerate>48000</samplerate>
									</samplecharacteristics>
									<channelcount>1</channelcount>
									<layout>mono</layout>
									<audiochannel>
										<sourcechannel>2</sourcechannel>
										<channellabel>discrete</channellabel>
									</audiochannel>
								</audio>
							</media>
						</file>
						<logginginfo>
							<description></description>
							<scene></scene>
							<shottake></shottake>
							<lognote></lognote>
						</logginginfo>
						<labels>
							<label2>Iris</label2>
						</labels>
					</clipitem>
					<clipitem id="clipitem-629" frameBlend="FALSE">
						<masterclipid>masterclip-123</masterclipid>
						<name>MVI_0421.MOV</name>
						<enabled>TRUE</enabled>
						<duration>1417</duration>
						<rate>
							<timebase>25</timebase>
							<ntsc>FALSE</ntsc>
						</rate>
						<start>18850</start>
						<end>18877</end>
						<in>1119</in>
						<out>1146</out>
						<alphatype>black</alphatype>
						<pixelaspectratio>square</pixelaspectratio>
						<anamorphic>FALSE</anamorphic>
						<file id="file-111">
							<name>MVI_0421.MOV</name>
							<pathurl>file://localhost/Volumes/Brakka/AdobeLager/Katta/Katta-14xxxx-Smart_eller_overvaaket-Chris/02-Video/Datatilsynet%20Case%205D/100EOS5D/MVI_0421.MOV</pathurl>
							<rate>
								<timebase>25</timebase>
								<ntsc>FALSE</ntsc>
							</rate>
							<duration>1417</duration>
							<timecode>
								<rate>
									<timebase>25</timebase>
									<ntsc>FALSE</ntsc>
								</rate>
								<string>00:00:00:00</string>
								<frame>0</frame>
								<displayformat>NDF</displayformat>
								<reel>
									<name></name>
								</reel>
							</timecode>
							<media>
								<video>
									<duration>18000</duration>
									<samplecharacteristics>
										<rate>
											<timebase>25</timebase>
											<ntsc>FALSE</ntsc>
										</rate>
										<width>1920</width>
										<height>1080</height>
										<anamorphic>FALSE</anamorphic>
										<pixelaspectratio>square</pixelaspectratio>
										<fielddominance>none</fielddominance>
									</samplecharacteristics>
								</video>
								<audio>
									<samplecharacteristics>
										<depth>16</depth>
										<samplerate>48000</samplerate>
									</samplecharacteristics>
									<channelcount>1</channelcount>
									<layout>mono</layout>
									<audiochannel>
										<sourcechannel>1</sourcechannel>
										<channellabel>discrete</channellabel>
									</audiochannel>
								</audio>
								<audio>
									<samplecharacteristics>
										<depth>16</depth>
										<samplerate>48000</samplerate>
									</samplecharacteristics>
									<channelcount>1</channelcount>
									<layout>mono</layout>
									<audiochannel>
										<sourcechannel>2</sourcechannel>
										<channellabel>discrete</channellabel>
									</audiochannel>
								</audio>
							</media>
						</file>
						<logginginfo>
							<description></description>
							<scene></scene>
							<shottake></shottake>
							<lognote></lognote>
						</logginginfo>
						<labels>
							<label2>Iris</label2>
						</labels>
					</clipitem>
					<clipitem id="clipitem-630" frameBlend="FALSE">
						<masterclipid>masterclip-122</masterclipid>
						<name>MVI_0422.MOV</name>
						<enabled>TRUE</enabled>
						<duration>760</duration>
						<rate>
							<timebase>25</timebase>
							<ntsc>FALSE</ntsc>
						</rate>
						<start>18877</start>
						<end>18956</end>
						<in>266</in>
						<out>345</out>
						<alphatype>black</alphatype>
						<file id="file-110"/>
						<logginginfo>
							<description></description>
							<scene></scene>
							<shottake></shottake>
							<lognote></lognote>
						</logginginfo>
						<labels>
							<label2>Iris</label2>
						</labels>
					</clipitem>
					<clipitem id="clipitem-631" frameBlend="FALSE">
						<masterclipid>masterclip-124</masterclipid>
						<name>MVI_0406.MOV</name>
						<enabled>TRUE</enabled>
						<duration>346</duration>
						<rate>
							<timebase>25</timebase>
							<ntsc>FALSE</ntsc>
						</rate>
						<start>18956</start>
						<end>19000</end>
						<in>281</in>
						<out>325</out>
						<alphatype>black</alphatype>
						<pixelaspectratio>square</pixelaspectratio>
						<anamorphic>FALSE</anamorphic>
						<file id="file-112">
							<name>MVI_0406.MOV</name>
							<pathurl>file://localhost/Volumes/Brakka/AdobeLager/Katta/Katta-14xxxx-Smart_eller_overvaaket-Chris/02-Video/Datatilsynet%20Case%205D/100EOS5D/MVI_0406.MOV</pathurl>
							<rate>
								<timebase>25</timebase>
								<ntsc>FALSE</ntsc>
							</rate>
							<duration>346</duration>
							<timecode>
								<rate>
									<timebase>25</timebase>
									<ntsc>FALSE</ntsc>
								</rate>
								<string>00:00:00:00</string>
								<frame>0</frame>
								<displayformat>NDF</displayformat>
								<reel>
									<name></name>
								</reel>
							</timecode>
							<media>
								<video>
									<duration>18000</duration>
									<samplecharacteristics>
										<rate>
											<timebase>25</timebase>
											<ntsc>FALSE</ntsc>
										</rate>
										<width>1920</width>
										<height>1080</height>
										<anamorphic>FALSE</anamorphic>
										<pixelaspectratio>square</pixelaspectratio>
										<fielddominance>none</fielddominance>
									</samplecharacteristics>
								</video>
								<audio>
									<samplecharacteristics>
										<depth>16</depth>
										<samplerate>48000</samplerate>
									</samplecharacteristics>
									<channelcount>1</channelcount>
									<layout>mono</layout>
									<audiochannel>
										<sourcechannel>1</sourcechannel>
										<channellabel>discrete</channellabel>
									</audiochannel>
								</audio>
								<audio>
									<samplecharacteristics>
										<depth>16</depth>
										<samplerate>48000</samplerate>
									</samplecharacteristics>
									<channelcount>1</channelcount>
									<layout>mono</layout>
									<audiochannel>
										<sourcechannel>2</sourcechannel>
										<channellabel>discrete</channellabel>
									</audiochannel>
								</audio>
							</media>
						</file>
						<logginginfo>
							<description></description>
							<scene></scene>
							<shottake></shottake>
							<lognote></lognote>
						</logginginfo>
						<labels>
							<label2>Iris</label2>
						</labels>
					</clipitem>
					<clipitem id="clipitem-632" frameBlend="FALSE">
						<masterclipid>masterclip-125</masterclipid>
						<name>MVI_0411.MOV</name>
						<enabled>TRUE</enabled>
						<duration>8663</duration>
						<rate>
							<timebase>25</timebase>
							<ntsc>FALSE</ntsc>
						</rate>
						<start>19000</start>
						<end>19116</end>
						<in>1887</in>
						<out>2003</out>
						<alphatype>black</alphatype>
						<pixelaspectratio>square</pixelaspectratio>
						<anamorphic>FALSE</anamorphic>
						<file id="file-113">
							<name>MVI_0411.MOV</name>
							<pathurl>file://localhost/Volumes/Brakka/AdobeLager/Katta/Katta-14xxxx-Smart_eller_overvaaket-Chris/02-Video/Datatilsynet%20Case%205D/100EOS5D/MVI_0411.MOV</pathurl>
							<rate>
								<timebase>25</timebase>
								<ntsc>FALSE</ntsc>
							</rate>
							<duration>8663</duration>
							<timecode>
								<rate>
									<timebase>25</timebase>
									<ntsc>FALSE</ntsc>
								</rate>
								<string>00:00:00:00</string>
								<frame>0</frame>
								<displayformat>NDF</displayformat>
								<reel>
									<name></name>
								</reel>
							</timecode>
							<media>
								<video>
									<duration>18000</duration>
									<samplecharacteristics>
										<rate>
											<timebase>25</timebase>
											<ntsc>FALSE</ntsc>
										</rate>
										<width>1920</width>
										<height>1080</height>
										<anamorphic>FALSE</anamorphic>
										<pixelaspectratio>square</pixelaspectratio>
										<fielddominance>none</fielddominance>
									</samplecharacteristics>
								</video>
								<audio>
									<samplecharacteristics>
										<depth>16</depth>
										<samplerate>48000</samplerate>
									</samplecharacteristics>
									<channelcount>1</channelcount>
									<layout>mono</layout>
									<audiochannel>
										<sourcechannel>1</sourcechannel>
										<channellabel>discrete</channellabel>
									</audiochannel>
								</audio>
								<audio>
									<samplecharacteristics>
										<depth>16</depth>
										<samplerate>48000</samplerate>
									</samplecharacteristics>
									<channelcount>1</channelcount>
									<layout>mono</layout>
									<audiochannel>
										<sourcechannel>2</sourcechannel>
										<channellabel>discrete</channellabel>
									</audiochannel>
								</audio>
							</media>
						</file>
						<logginginfo>
							<description></description>
							<scene></scene>
							<shottake></shottake>
							<lognote></lognote>
						</logginginfo>
						<labels>
							<label2>Iris</label2>
						</labels>
					</clipitem>
					<clipitem id="clipitem-633" frameBlend="FALSE">
						<masterclipid>masterclip-125</masterclipid>
						<name>MVI_0411.MOV</name>
						<enabled>TRUE</enabled>
						<duration>8663</duration>
						<rate>
							<timebase>25</timebase>
							<ntsc>FALSE</ntsc>
						</rate>
						<start>19116</start>
						<end>19159</end>
						<in>2406</in>
						<out>2449</out>
						<alphatype>black</alphatype>
						<file id="file-113"/>
						<logginginfo>
							<description></description>
							<scene></scene>
							<shottake></shottake>
							<lognote></lognote>
						</logginginfo>
						<labels>
							<label2>Iris</label2>
						</labels>
					</clipitem>
					<clipitem id="clipitem-634" frameBlend="FALSE">
						<masterclipid>masterclip-125</masterclipid>
						<name>MVI_0411.MOV</name>
						<enabled>TRUE</enabled>
						<duration>8663</duration>
						<rate>
							<timebase>25</timebase>
							<ntsc>FALSE</ntsc>
						</rate>
						<start>19159</start>
						<end>19352</end>
						<in>2594</in>
						<out>2787</out>
						<alphatype>black</alphatype>
						<file id="file-113"/>
						<logginginfo>
							<description></description>
							<scene></scene>
							<shottake></shottake>
							<lognote></lognote>
						</logginginfo>
						<labels>
							<label2>Iris</label2>
						</labels>
					</clipitem>
					<clipitem id="clipitem-635" frameBlend="FALSE">
						<masterclipid>masterclip-126</masterclipid>
						<name>MVI_0412.MOV</name>
						<enabled>TRUE</enabled>
						<duration>535</duration>
						<rate>
							<timebase>25</timebase>
							<ntsc>FALSE</ntsc>
						</rate>
						<start>19352</start>
						<end>19458</end>
						<in>185</in>
						<out>291</out>
						<alphatype>black</alphatype>
						<pixelaspectratio>square</pixelaspectratio>
						<anamorphic>FALSE</anamorphic>
						<file id="file-114">
							<name>MVI_0412.MOV</name>
							<pathurl>file://localhost/Volumes/Brakka/AdobeLager/Katta/Katta-14xxxx-Smart_eller_overvaaket-Chris/02-Video/Datatilsynet%20Case%205D/100EOS5D/MVI_0412.MOV</pathurl>
							<rate>
								<timebase>25</timebase>
								<ntsc>FALSE</ntsc>
							</rate>
							<duration>535</duration>
							<timecode>
								<rate>
									<timebase>25</timebase>
									<ntsc>FALSE</ntsc>
								</rate>
								<string>00:00:00:00</string>
								<frame>0</frame>
								<displayformat>NDF</displayformat>
								<reel>
									<name></name>
								</reel>
							</timecode>
							<media>
								<video>
									<duration>18000</duration>
									<samplecharacteristics>
										<rate>
											<timebase>25</timebase>
											<ntsc>FALSE</ntsc>
										</rate>
										<width>1920</width>
										<height>1080</height>
										<anamorphic>FALSE</anamorphic>
										<pixelaspectratio>square</pixelaspectratio>
										<fielddominance>none</fielddominance>
									</samplecharacteristics>
								</video>
								<audio>
									<samplecharacteristics>
										<depth>16</depth>
										<samplerate>48000</samplerate>
									</samplecharacteristics>
									<channelcount>1</channelcount>
									<layout>mono</layout>
									<audiochannel>
										<sourcechannel>1</sourcechannel>
										<channellabel>discrete</channellabel>
									</audiochannel>
								</audio>
								<audio>
									<samplecharacteristics>
										<depth>16</depth>
										<samplerate>48000</samplerate>
									</samplecharacteristics>
									<channelcount>1</channelcount>
									<layout>mono</layout>
									<audiochannel>
										<sourcechannel>2</sourcechannel>
										<channellabel>discrete</channellabel>
									</audiochannel>
								</audio>
							</media>
						</file>
						<logginginfo>
							<description></description>
							<scene></scene>
							<shottake></shottake>
							<lognote></lognote>
						</logginginfo>
						<labels>
							<label2>Iris</label2>
						</labels>
					</clipitem>
					<clipitem id="clipitem-636" frameBlend="FALSE">
						<masterclipid>masterclip-127</masterclipid>
						<name>MVI_0404.MOV</name>
						<enabled>TRUE</enabled>
						<duration>14801</duration>
						<rate>
							<timebase>25</timebase>
							<ntsc>FALSE</ntsc>
						</rate>
						<start>19458</start>
						<end>19919</end>
						<in>12710</in>
						<out>13171</out>
						<alphatype>black</alphatype>
						<pixelaspectratio>square</pixelaspectratio>
						<anamorphic>FALSE</anamorphic>
						<file id="file-115">
							<name>MVI_0404.MOV</name>
							<pathurl>file://localhost/Volumes/Brakka/AdobeLager/Katta/Katta-14xxxx-Smart_eller_overvaaket-Chris/02-Video/Datatilsynet%20Case%205D/100EOS5D/MVI_0404.MOV</pathurl>
							<rate>
								<timebase>25</timebase>
								<ntsc>FALSE</ntsc>
							</rate>
							<duration>14801</duration>
							<timecode>
								<rate>
									<timebase>25</timebase>
									<ntsc>FALSE</ntsc>
								</rate>
								<string>00:00:00:00</string>
								<frame>0</frame>
								<displayformat>NDF</displayformat>
								<reel>
									<name></name>
								</reel>
							</timecode>
							<media>
								<video>
									<duration>18000</duration>
									<samplecharacteristics>
										<rate>
											<timebase>25</timebase>
											<ntsc>FALSE</ntsc>
										</rate>
										<width>1920</width>
										<height>1080</height>
										<anamorphic>FALSE</anamorphic>
										<pixelaspectratio>square</pixelaspectratio>
										<fielddominance>none</fielddominance>
									</samplecharacteristics>
								</video>
								<audio>
									<samplecharacteristics>
										<depth>16</depth>
										<samplerate>48000</samplerate>
									</samplecharacteristics>
									<channelcount>1</channelcount>
									<layout>mono</layout>
									<audiochannel>
										<sourcechannel>1</sourcechannel>
										<channellabel>discrete</channellabel>
									</audiochannel>
								</audio>
								<audio>
									<samplecharacteristics>
										<depth>16</depth>
										<samplerate>48000</samplerate>
									</samplecharacteristics>
									<channelcount>1</channelcount>
									<layout>mono</layout>
									<audiochannel>
										<sourcechannel>2</sourcechannel>
										<channellabel>discrete</channellabel>
									</audiochannel>
								</audio>
							</media>
						</file>
						<logginginfo>
							<description></description>
							<scene></scene>
							<shottake></shottake>
							<lognote></lognote>
						</logginginfo>
						<labels>
							<label2>Iris</label2>
						</labels>
					</clipitem>
					<clipitem id="clipitem-637" frameBlend="FALSE">
						<masterclipid>masterclip-125</masterclipid>
						<name>MVI_0411.MOV</name>
						<enabled>TRUE</enabled>
						<duration>8663</duration>
						<rate>
							<timebase>25</timebase>
							<ntsc>FALSE</ntsc>
						</rate>
						<start>19919</start>
						<end>19957</end>
						<in>3373</in>
						<out>3411</out>
						<alphatype>black</alphatype>
						<file id="file-113"/>
						<logginginfo>
							<description></description>
							<scene></scene>
							<shottake></shottake>
							<lognote></lognote>
						</logginginfo>
						<labels>
							<label2>Iris</label2>
						</labels>
					</clipitem>
					<clipitem id="clipitem-638" frameBlend="FALSE">
						<masterclipid>masterclip-125</masterclipid>
						<name>MVI_0411.MOV</name>
						<enabled>TRUE</enabled>
						<duration>8663</duration>
						<rate>
							<timebase>25</timebase>
							<ntsc>FALSE</ntsc>
						</rate>
						<start>19957</start>
						<end>20015</end>
						<in>1704</in>
						<out>1762</out>
						<alphatype>black</alphatype>
						<file id="file-113"/>
						<logginginfo>
							<description></description>
							<scene></scene>
							<shottake></shottake>
							<lognote></lognote>
						</logginginfo>
						<labels>
							<label2>Iris</label2>
						</labels>
					</clipitem>
					<clipitem id="clipitem-639" frameBlend="FALSE">
						<masterclipid>masterclip-125</masterclipid>
						<name>MVI_0411.MOV</name>
						<enabled>TRUE</enabled>
						<duration>8663</duration>
						<rate>
							<timebase>25</timebase>
							<ntsc>FALSE</ntsc>
						</rate>
						<start>20015</start>
						<end>20318</end>
						<in>3469</in>
						<out>3772</out>
						<alphatype>black</alphatype>
						<file id="file-113"/>
						<logginginfo>
							<description></description>
							<scene></scene>
							<shottake></shottake>
							<lognote></lognote>
						</logginginfo>
						<labels>
							<label2>Iris</label2>
						</labels>
					</clipitem>
					<clipitem id="clipitem-640" frameBlend="FALSE">
						<masterclipid>masterclip-128</masterclipid>
						<name>MVI_0440.MOV</name>
						<enabled>TRUE</enabled>
						<duration>378</duration>
						<rate>
							<timebase>25</timebase>
							<ntsc>FALSE</ntsc>
						</rate>
						<start>20318</start>
						<end>20350</end>
						<in>126</in>
						<out>158</out>
						<alphatype>black</alphatype>
						<pixelaspectratio>square</pixelaspectratio>
						<anamorphic>FALSE</anamorphic>
						<file id="file-116">
							<name>MVI_0440.MOV</name>
							<pathurl>file://localhost/Volumes/Brakka/AdobeLager/Katta/Katta-14xxxx-Smart_eller_overvaaket-Chris/02-Video/Datatilsynet%20Case%205D/100EOS5D/MVI_0440.MOV</pathurl>
							<rate>
								<timebase>25</timebase>
								<ntsc>FALSE</ntsc>
							</rate>
							<duration>378</duration>
							<timecode>
								<rate>
									<timebase>25</timebase>
									<ntsc>FALSE</ntsc>
								</rate>
								<string>00:00:00:00</string>
								<frame>0</frame>
								<displayformat>NDF</displayformat>
								<reel>
									<name></name>
								</reel>
							</timecode>
							<media>
								<video>
									<duration>18000</duration>
									<samplecharacteristics>
										<rate>
											<timebase>25</timebase>
											<ntsc>FALSE</ntsc>
										</rate>
										<width>1920</width>
										<height>1080</height>
										<anamorphic>FALSE</anamorphic>
										<pixelaspectratio>square</pixelaspectratio>
										<fielddominance>none</fielddominance>
									</samplecharacteristics>
								</video>
								<audio>
									<samplecharacteristics>
										<depth>16</depth>
										<samplerate>48000</samplerate>
									</samplecharacteristics>
									<channelcount>1</channelcount>
									<layout>mono</layout>
									<audiochannel>
										<sourcechannel>1</sourcechannel>
										<channellabel>discrete</channellabel>
									</audiochannel>
								</audio>
								<audio>
									<samplecharacteristics>
										<depth>16</depth>
										<samplerate>48000</samplerate>
									</samplecharacteristics>
									<channelcount>1</channelcount>
									<layout>mono</layout>
									<audiochannel>
										<sourcechannel>2</sourcechannel>
										<channellabel>discrete</channellabel>
									</audiochannel>
								</audio>
							</media>
						</file>
						<logginginfo>
							<description></description>
							<scene></scene>
							<shottake></shottake>
							<lognote></lognote>
						</logginginfo>
						<labels>
							<label2>Iris</label2>
						</labels>
					</clipitem>
					<clipitem id="clipitem-641" frameBlend="FALSE">
						<masterclipid>masterclip-128</masterclipid>
						<name>MVI_0440.MOV</name>
						<enabled>TRUE</enabled>
						<duration>378</duration>
						<rate>
							<timebase>25</timebase>
							<ntsc>FALSE</ntsc>
						</rate>
						<start>20350</start>
						<end>20438</end>
						<in>254</in>
						<out>342</out>
						<alphatype>black</alphatype>
						<file id="file-116"/>
						<logginginfo>
							<description></description>
							<scene></scene>
							<shottake></shottake>
							<lognote></lognote>
						</logginginfo>
						<labels>
							<label2>Iris</label2>
						</labels>
					</clipitem>
					<clipitem id="clipitem-642" frameBlend="FALSE">
						<masterclipid>masterclip-129</masterclipid>
						<name>MVI_0396.MOV</name>
						<enabled>TRUE</enabled>
						<duration>717</duration>
						<rate>
							<timebase>25</timebase>
							<ntsc>FALSE</ntsc>
						</rate>
						<start>20438</start>
						<end>20671</end>
						<in>200</in>
						<out>433</out>
						<alphatype>black</alphatype>
						<pixelaspectratio>square</pixelaspectratio>
						<anamorphic>FALSE</anamorphic>
						<file id="file-117">
							<name>MVI_0396.MOV</name>
							<pathurl>file://localhost/Volumes/Brakka/AdobeLager/Katta/Katta-14xxxx-Smart_eller_overvaaket-Chris/02-Video/Datatilsynet%20Case%205D/100EOS5D/MVI_0396.MOV</pathurl>
							<rate>
								<timebase>25</timebase>
								<ntsc>FALSE</ntsc>
							</rate>
							<duration>717</duration>
							<timecode>
								<rate>
									<timebase>25</timebase>
									<ntsc>FALSE</ntsc>
								</rate>
								<string>00:00:00:00</string>
								<frame>0</frame>
								<displayformat>NDF</displayformat>
								<reel>
									<name></name>
								</reel>
							</timecode>
							<media>
								<video>
									<duration>18000</duration>
									<samplecharacteristics>
										<rate>
											<timebase>25</timebase>
											<ntsc>FALSE</ntsc>
										</rate>
										<width>1920</width>
										<height>1080</height>
										<anamorphic>FALSE</anamorphic>
										<pixelaspectratio>square</pixelaspectratio>
										<fielddominance>none</fielddominance>
									</samplecharacteristics>
								</video>
								<audio>
									<samplecharacteristics>
										<depth>16</depth>
										<samplerate>48000</samplerate>
									</samplecharacteristics>
									<channelcount>1</channelcount>
									<layout>mono</layout>
									<audiochannel>
										<sourcechannel>1</sourcechannel>
										<channellabel>discrete</channellabel>
									</audiochannel>
								</audio>
								<audio>
									<samplecharacteristics>
										<depth>16</depth>
										<samplerate>48000</samplerate>
									</samplecharacteristics>
									<channelcount>1</channelcount>
									<layout>mono</layout>
									<audiochannel>
										<sourcechannel>2</sourcechannel>
										<channellabel>discrete</channellabel>
									</audiochannel>
								</audio>
							</media>
						</file>
						<link>
							<linkclipref>clipitem-642</linkclipref>
							<mediatype>video</mediatype>
							<trackindex>1</trackindex>
							<clipindex>178</clipindex>
						</link>
						<link>
							<linkclipref>clipitem-1549</linkclipref>
							<mediatype>audio</mediatype>
							<trackindex>5</trackindex>
							<clipindex>44</clipindex>
						</link>
						<link>
							<linkclipref>clipitem-1620</linkclipref>
							<mediatype>audio</mediatype>
							<trackindex>7</trackindex>
							<clipindex>37</clipindex>
						</link>
						<logginginfo>
							<description></description>
							<scene></scene>
							<shottake></shottake>
							<lognote></lognote>
						</logginginfo>
						<labels>
							<label2>Iris</label2>
						</labels>
					</clipitem>
					<clipitem id="clipitem-643" frameBlend="FALSE">
						<masterclipid>masterclip-129</masterclipid>
						<name>MVI_0396.MOV</name>
						<enabled>TRUE</enabled>
						<duration>717</duration>
						<rate>
							<timebase>25</timebase>
							<ntsc>FALSE</ntsc>
						</rate>
						<start>20671</start>
						<end>20837</end>
						<in>530</in>
						<out>696</out>
						<alphatype>black</alphatype>
						<file id="file-117"/>
						<link>
							<linkclipref>clipitem-643</linkclipref>
							<mediatype>video</mediatype>
							<trackindex>1</trackindex>
							<clipindex>179</clipindex>
						</link>
						<link>
							<linkclipref>clipitem-1550</linkclipref>
							<mediatype>audio</mediatype>
							<trackindex>5</trackindex>
							<clipindex>45</clipindex>
						</link>
						<link>
							<linkclipref>clipitem-1621</linkclipref>
							<mediatype>audio</mediatype>
							<trackindex>7</trackindex>
							<clipindex>38</clipindex>
						</link>
						<logginginfo>
							<description></description>
							<scene></scene>
							<shottake></shottake>
							<lognote></lognote>
						</logginginfo>
						<labels>
							<label2>Iris</label2>
						</labels>
					</clipitem>
					<clipitem id="clipitem-644" frameBlend="FALSE">
						<masterclipid>masterclip-130</masterclipid>
						<name>AA014901.MXFCowi varemesse multi</name>
						<enabled>TRUE</enabled>
						<duration>2666</duration>
						<rate>
							<timebase>25</timebase>
							<ntsc>FALSE</ntsc>
						</rate>
						<start>20837</start>
						<end>20949</end>
						<in>145</in>
						<out>257</out>
						<sequence id="sequence-53">
							<duration>150</duration>
							<rate>
								<timebase>25</timebase>
								<ntsc>FALSE</ntsc>
							</rate>
							<name>AA014901.MXFCowi varemesse multi-3</name>
							<media>
								<video>
									<format>
										<samplecharacteristics>
											<rate>
												<timebase>25</timebase>
												<ntsc>FALSE</ntsc>
											</rate>
											<codec>
												<name>Apple ProRes 422</name>
												<appspecificdata>
													<appname>Final Cut Pro</appname>
													<appmanufacturer>Apple Inc.</appmanufacturer>
													<appversion>7.0</appversion>
													<data>
														<qtcodec>
															<codecname>Apple ProRes 422</codecname>
															<codectypename>Apple ProRes 422</codectypename>
															<codectypecode>apcn</codectypecode>
															<codecvendorcode>appl</codecvendorcode>
															<spatialquality>1024</spatialquality>
															<temporalquality>0</temporalquality>
															<keyframerate>0</keyframerate>
															<datarate>0</datarate>
														</qtcodec>
													</data>
												</appspecificdata>
											</codec>
											<width>1920</width>
											<height>1080</height>
											<anamorphic>FALSE</anamorphic>
											<pixelaspectratio>square</pixelaspectratio>
											<fielddominance>none</fielddominance>
											<colordepth>24</colordepth>
										</samplecharacteristics>
									</format>
									<track>
										<clipitem id="clipitem-653" frameBlend="FALSE">
											<masterclipid>masterclip-133</masterclipid>
											<name>MVI_0066.MOV</name>
											<enabled>TRUE</enabled>
											<duration>2525</duration>
											<rate>
												<timebase>25</timebase>
												<ntsc>FALSE</ntsc>
											</rate>
											<start>0</start>
											<end>2525</end>
											<in>0</in>
											<out>2525</out>
											<alphatype>black</alphatype>
											<file id="file-120"/>
											<logginginfo>
												<description></description>
												<scene></scene>
												<shottake></shottake>
												<lognote></lognote>
											</logginginfo>
											<labels>
												<label2>Iris</label2>
											</labels>
										</clipitem>
										<enabled>TRUE</enabled>
										<locked>FALSE</locked>
									</track>
								</video>
								<audio>
									<format>
										<samplecharacteristics>
											<depth>16</depth>
											<samplerate>48000</samplerate>
										</samplecharacteristics>
									</format>
									<outputs>
										<group>
											<index>1</index>
											<numchannels>1</numchannels>
											<downmix>0</downmix>
											<channel>
												<index>1</index>
											</channel>
										</group>
										<group>
											<index>2</index>
											<numchannels>1</numchannels>
											<downmix>0</downmix>
											<channel>
												<index>2</index>
											</channel>
										</group>
										<group>
											<index>3</index>
											<numchannels>1</numchannels>
											<downmix>0</downmix>
											<channel>
												<index>3</index>
											</channel>
										</group>
										<group>
											<index>4</index>
											<numchannels>1</numchannels>
											<downmix>0</downmix>
											<channel>
												<index>4</index>
											</channel>
										</group>
										<group>
											<index>5</index>
											<numchannels>1</numchannels>
											<downmix>0</downmix>
											<channel>
												<index>5</index>
											</channel>
										</group>
										<group>
											<index>6</index>
											<numchannels>1</numchannels>
											<downmix>0</downmix>
											<channel>
												<index>6</index>
											</channel>
										</group>
									</outputs>
									<track TL.SQTrackExpandedHeight="25" TL.SQTrackExpanded="0" MZ.TrackTargeted="1" PannerCurrentValue="0.5" PannerIsInverted="true" PannerStartKeyframe="-91445760000000000,0.5,0,0,0,0,0,0" PannerName="Balance" currentExplodedTrackIndex="0" totalExplodedTrackCount="2" premiereTrackType="Stereo">
										<clipitem id="clipitem-651" frameBlend="FALSE" PannerCurrentValue="0.5" PannerKeyframes="" PannerStartKeyframe="-91445760000000000,0.5,0,0,0,0,0,0" PannerIsInverted="true" PannerName="Balance">
											<masterclipid>masterclip-133</masterclipid>
											<name>MVI_0066.MOV</name>
											<enabled>TRUE</enabled>
											<duration>2525</duration>
											<rate>
												<timebase>25</timebase>
												<ntsc>FALSE</ntsc>
											</rate>
											<start>0</start>
											<end>2525</end>
											<in>0</in>
											<out>2525</out>
											<pixelaspectratio>square</pixelaspectratio>
											<anamorphic>FALSE</anamorphic>
											<file id="file-120">
												<name>MVI_0066.MOV</name>
												<pathurl>file://localhost/Volumes/Brakka/AdobeLager/Katta/Katta-14xxxx-Smart_eller_overvaaket-Chris/02-Video/COWI%20Varemesse%205D/DCIM/100EOS5D/MVI_0066.MOV</pathurl>
												<rate>
													<timebase>25</timebase>
													<ntsc>FALSE</ntsc>
												</rate>
												<duration>2525</duration>
												<timecode>
													<rate>
														<timebase>25</timebase>
														<ntsc>FALSE</ntsc>
													</rate>
													<string>00:00:00:00</string>
													<frame>0</frame>
													<displayformat>NDF</displayformat>
													<reel>
														<name></name>
													</reel>
												</timecode>
												<media>
													<video>
														<duration>18000</duration>
														<samplecharacteristics>
															<rate>
																<timebase>25</timebase>
																<ntsc>FALSE</ntsc>
															</rate>
															<width>1920</width>
															<height>1080</height>
															<anamorphic>FALSE</anamorphic>
															<pixelaspectratio>square</pixelaspectratio>
															<fielddominance>none</fielddominance>
														</samplecharacteristics>
													</video>
													<audio>
														<samplecharacteristics>
															<depth>16</depth>
															<samplerate>48000</samplerate>
														</samplecharacteristics>
														<channelcount>2</channelcount>
													</audio>
												</media>
											</file>
											<sourcetrack>
												<mediatype>audio</mediatype>
												<trackindex>1</trackindex>
											</sourcetrack>
												<filter>
													<effect>
														<name>Audio Pan</name>
														<effectid>audiopan</effectid>
														<effectcategory>audiopan</effectcategory>
														<effecttype>audiopan</effecttype>
														<mediatype>audio</mediatype>
														<parameter authoringApp="PremierePro">
															<parameterid>pan</parameterid>
															<name>Pan</name>
															<valuemin>-1</valuemin>
															<valuemax>1</valuemax>
															<value>0</value>
														</parameter>
													</effect>
												</filter>
											<logginginfo>
												<description></description>
												<scene></scene>
												<shottake></shottake>
												<lognote></lognote>
											</logginginfo>
											<labels>
												<label2>Iris</label2>
											</labels>
										</clipitem>
										<enabled>TRUE</enabled>
										<locked>FALSE</locked>
										<outputchannelindex>5</outputchannelindex>
									</track>
									<track TL.SQTrackExpandedHeight="25" TL.SQTrackExpanded="0" MZ.TrackTargeted="1" PannerCurrentValue="0.5" PannerIsInverted="true" PannerStartKeyframe="-91445760000000000,0.5,0,0,0,0,0,0" PannerName="Balance" currentExplodedTrackIndex="1" totalExplodedTrackCount="2" premiereTrackType="Stereo">
										<clipitem id="clipitem-652" frameBlend="FALSE" PannerCurrentValue="0.5" PannerKeyframes="" PannerStartKeyframe="-91445760000000000,0.5,0,0,0,0,0,0" PannerIsInverted="true" PannerName="Balance">
											<masterclipid>masterclip-133</masterclipid>
											<name>MVI_0066.MOV</name>
											<enabled>TRUE</enabled>
											<duration>2525</duration>
											<rate>
												<timebase>25</timebase>
												<ntsc>FALSE</ntsc>
											</rate>
											<start>0</start>
											<end>2525</end>
											<in>0</in>
											<out>2525</out>
											<file id="file-120"/>
											<sourcetrack>
												<mediatype>audio</mediatype>
												<trackindex>2</trackindex>
											</sourcetrack>
												<filter>
													<effect>
														<name>Audio Pan</name>
														<effectid>audiopan</effectid>
														<effectcategory>audiopan</effectcategory>
														<effecttype>audiopan</effecttype>
														<mediatype>audio</mediatype>
														<parameter authoringApp="PremierePro">
															<parameterid>pan</parameterid>
															<name>Pan</name>
															<valuemin>-1</valuemin>
															<valuemax>1</valuemax>
															<value>0</value>
														</parameter>
													</effect>
												</filter>
											<logginginfo>
												<description></description>
												<scene></scene>
												<shottake></shottake>
												<lognote></lognote>
											</logginginfo>
											<labels>
												<label2>Iris</label2>
											</labels>
										</clipitem>
										<enabled>TRUE</enabled>
										<locked>FALSE</locked>
										<outputchannelindex>6</outputchannelindex>
									</track>
								</audio>
							</media>
							<timecode>
								<rate>
									<timebase>25</timebase>
									<ntsc>FALSE</ntsc>
								</rate>
								<string>00:00:00:00</string>
								<frame>0</frame>
								<displayformat>NDF</displayformat>
							</timecode>
						</sequence>
						<link>
							<linkclipref>clipitem-644</linkclipref>
							<mediatype>video</mediatype>
							<trackindex>1</trackindex>
							<clipindex>180</clipindex>
						</link>
						<link>
							<linkclipref>clipitem-1138</linkclipref>
							<mediatype>audio</mediatype>
							<trackindex>1</trackindex>
							<clipindex>89</clipindex>
						</link>
						<link>
							<linkclipref>clipitem-1425</linkclipref>
							<mediatype>audio</mediatype>
							<trackindex>3</trackindex>
							<clipindex>71</clipindex>
						</link>
						<labels>
							<label2>Forest</label2>
						</labels>
					</clipitem>
					<clipitem id="clipitem-654" frameBlend="FALSE">
						<masterclipid>masterclip-130</masterclipid>
						<name>AA014901.MXFCowi varemesse multi</name>
						<enabled>TRUE</enabled>
						<duration>2666</duration>
						<rate>
							<timebase>25</timebase>
							<ntsc>FALSE</ntsc>
						</rate>
						<start>20949</start>
						<end>20992</end>
						<in>1143</in>
						<out>1186</out>
						<sequence id="sequence-51">
							<duration>150</duration>
							<rate>
								<timebase>25</timebase>
								<ntsc>FALSE</ntsc>
							</rate>
							<name>AA014901.MXFCowi varemesse multi-1</name>
							<media>
								<video>
									<format>
										<samplecharacteristics>
											<rate>
												<timebase>25</timebase>
												<ntsc>FALSE</ntsc>
											</rate>
											<codec>
												<name>Apple ProRes 422</name>
												<appspecificdata>
													<appname>Final Cut Pro</appname>
													<appmanufacturer>Apple Inc.</appmanufacturer>
													<appversion>7.0</appversion>
													<data>
														<qtcodec>
															<codecname>Apple ProRes 422</codecname>
															<codectypename>Apple ProRes 422</codectypename>
															<codectypecode>apcn</codectypecode>
															<codecvendorcode>appl</codecvendorcode>
															<spatialquality>1024</spatialquality>
															<temporalquality>0</temporalquality>
															<keyframerate>0</keyframerate>
															<datarate>0</datarate>
														</qtcodec>
													</data>
												</appspecificdata>
											</codec>
											<width>1920</width>
											<height>1080</height>
											<anamorphic>FALSE</anamorphic>
											<pixelaspectratio>square</pixelaspectratio>
											<fielddominance>none</fielddominance>
											<colordepth>24</colordepth>
										</samplecharacteristics>
									</format>
									<track>
										<clipitem id="clipitem-647" frameBlend="FALSE">
											<masterclipid>masterclip-131</masterclipid>
											<name>AA014901.MXF</name>
											<enabled>TRUE</enabled>
											<duration>2244</duration>
											<rate>
												<timebase>25</timebase>
												<ntsc>FALSE</ntsc>
											</rate>
											<start>55</start>
											<end>2299</end>
											<in>0</in>
											<out>2244</out>
											<alphatype>none</alphatype>
											<file id="file-118"/>
											<logginginfo>
												<description></description>
												<scene></scene>
												<shottake>AA0149</shottake>
												<lognote></lognote>
											</logginginfo>
											<labels>
												<label2>Iris</label2>
											</labels>
										</clipitem>
										<enabled>TRUE</enabled>
										<locked>FALSE</locked>
									</track>
								</video>
								<audio>
									<format>
										<samplecharacteristics>
											<depth>16</depth>
											<samplerate>48000</samplerate>
										</samplecharacteristics>
									</format>
									<outputs>
										<group>
											<index>1</index>
											<numchannels>1</numchannels>
											<downmix>0</downmix>
											<channel>
												<index>1</index>
											</channel>
										</group>
										<group>
											<index>2</index>
											<numchannels>1</numchannels>
											<downmix>0</downmix>
											<channel>
												<index>2</index>
											</channel>
										</group>
										<group>
											<index>3</index>
											<numchannels>1</numchannels>
											<downmix>0</downmix>
											<channel>
												<index>3</index>
											</channel>
										</group>
										<group>
											<index>4</index>
											<numchannels>1</numchannels>
											<downmix>0</downmix>
											<channel>
												<index>4</index>
											</channel>
										</group>
										<group>
											<index>5</index>
											<numchannels>1</numchannels>
											<downmix>0</downmix>
											<channel>
												<index>5</index>
											</channel>
										</group>
										<group>
											<index>6</index>
											<numchannels>1</numchannels>
											<downmix>0</downmix>
											<channel>
												<index>6</index>
											</channel>
										</group>
									</outputs>
									<track TL.SQTrackExpandedHeight="25" TL.SQTrackExpanded="0" MZ.TrackTargeted="1" PannerCurrentValue="0.5" PannerIsInverted="true" PannerStartKeyframe="-91445760000000000,0.5,0,0,0,0,0,0" PannerName="Balance" currentExplodedTrackIndex="0" totalExplodedTrackCount="2" premiereTrackType="Stereo">
										<clipitem id="clipitem-645" frameBlend="FALSE" PannerCurrentValue="0.5" PannerKeyframes="" PannerStartKeyframe="-91445760000000000,0.5,0,0,0,0,0,0" PannerIsInverted="true" PannerName="Balance">
											<masterclipid>masterclip-131</masterclipid>
											<name>AA014901.MXF</name>
											<enabled>TRUE</enabled>
											<duration>2244</duration>
											<rate>
												<timebase>25</timebase>
												<ntsc>FALSE</ntsc>
											</rate>
											<start>55</start>
											<end>2299</end>
											<in>0</in>
											<out>2244</out>
											<pixelaspectratio>square</pixelaspectratio>
											<anamorphic>FALSE</anamorphic>
											<file id="file-118">
												<name>AA014901.MXF</name>
												<pathurl>file://localhost/Volumes/Brakka/AdobeLager/Katta/Katta-14xxxx-Smart_eller_overvaaket-Chris/02-Video/COWI%20Varemesse%20C300/CONTENTS/CLIPS001/AA0149/AA014901.MXF</pathurl>
												<rate>
													<timebase>25</timebase>
													<ntsc>FALSE</ntsc>
												</rate>
												<duration>2244</duration>
												<timecode>
													<rate>
														<timebase>25</timebase>
														<ntsc>FALSE</ntsc>
													</rate>
													<string>02:56:10:14</string>
													<frame>264264</frame>
													<displayformat>NDF</displayformat>
													<reel>
														<name></name>
													</reel>
												</timecode>
												<media>
													<video>
														<duration>18000</duration>
														<samplecharacteristics>
															<rate>
																<timebase>25</timebase>
																<ntsc>FALSE</ntsc>
															</rate>
															<width>1920</width>
															<height>1080</height>
															<anamorphic>FALSE</anamorphic>
															<pixelaspectratio>square</pixelaspectratio>
															<fielddominance>none</fielddominance>
														</samplecharacteristics>
													</video>
													<audio>
														<samplecharacteristics>
															<depth>16</depth>
															<samplerate>48000</samplerate>
														</samplecharacteristics>
														<channelcount>2</channelcount>
													</audio>
												</media>
											</file>
											<sourcetrack>
												<mediatype>audio</mediatype>
												<trackindex>1</trackindex>
											</sourcetrack>
												<filter>
													<effect>
														<name>Audio Pan</name>
														<effectid>audiopan</effectid>
														<effectcategory>audiopan</effectcategory>
														<effecttype>audiopan</effecttype>
														<mediatype>audio</mediatype>
														<parameter authoringApp="PremierePro">
															<parameterid>pan</parameterid>
															<name>Pan</name>
															<valuemin>-1</valuemin>
															<valuemax>1</valuemax>
															<value>0</value>
														</parameter>
													</effect>
												</filter>
											<logginginfo>
												<description></description>
												<scene></scene>
												<shottake>AA0149</shottake>
												<lognote></lognote>
											</logginginfo>
											<labels>
												<label2>Iris</label2>
											</labels>
										</clipitem>
										<enabled>TRUE</enabled>
										<locked>FALSE</locked>
										<outputchannelindex>1</outputchannelindex>
									</track>
									<track TL.SQTrackExpandedHeight="25" TL.SQTrackExpanded="0" MZ.TrackTargeted="1" PannerCurrentValue="0.5" PannerIsInverted="true" PannerStartKeyframe="-91445760000000000,0.5,0,0,0,0,0,0" PannerName="Balance" currentExplodedTrackIndex="1" totalExplodedTrackCount="2" premiereTrackType="Stereo">
										<clipitem id="clipitem-646" frameBlend="FALSE" PannerCurrentValue="0.5" PannerKeyframes="" PannerStartKeyframe="-91445760000000000,0.5,0,0,0,0,0,0" PannerIsInverted="true" PannerName="Balance">
											<masterclipid>masterclip-131</masterclipid>
											<name>AA014901.MXF</name>
											<enabled>TRUE</enabled>
											<duration>2244</duration>
											<rate>
												<timebase>25</timebase>
												<ntsc>FALSE</ntsc>
											</rate>
											<start>55</start>
											<end>2299</end>
											<in>0</in>
											<out>2244</out>
											<file id="file-118"/>
											<sourcetrack>
												<mediatype>audio</mediatype>
												<trackindex>2</trackindex>
											</sourcetrack>
												<filter>
													<effect>
														<name>Audio Pan</name>
														<effectid>audiopan</effectid>
														<effectcategory>audiopan</effectcategory>
														<effecttype>audiopan</effecttype>
														<mediatype>audio</mediatype>
														<parameter authoringApp="PremierePro">
															<parameterid>pan</parameterid>
															<name>Pan</name>
															<valuemin>-1</valuemin>
															<valuemax>1</valuemax>
															<value>0</value>
														</parameter>
													</effect>
												</filter>
											<logginginfo>
												<description></description>
												<scene></scene>
												<shottake>AA0149</shottake>
												<lognote></lognote>
											</logginginfo>
											<labels>
												<label2>Iris</label2>
											</labels>
										</clipitem>
										<enabled>TRUE</enabled>
										<locked>FALSE</locked>
										<outputchannelindex>2</outputchannelindex>
									</track>
								</audio>
							</media>
							<timecode>
								<rate>
									<timebase>25</timebase>
									<ntsc>FALSE</ntsc>
								</rate>
								<string>00:00:00:00</string>
								<frame>0</frame>
								<displayformat>NDF</displayformat>
							</timecode>
						</sequence>
						<labels>
							<label2>Forest</label2>
						</labels>
					</clipitem>
					<clipitem id="clipitem-655" frameBlend="FALSE">
						<masterclipid>masterclip-130</masterclipid>
						<name>AA014901.MXFCowi varemesse multi</name>
						<enabled>TRUE</enabled>
						<duration>2666</duration>
						<rate>
							<timebase>25</timebase>
							<ntsc>FALSE</ntsc>
						</rate>
						<start>20992</start>
						<end>21020</end>
						<in>1186</in>
						<out>1214</out>
						<sequence id="sequence-53"/>
						<labels>
							<label2>Forest</label2>
						</labels>
					</clipitem>
					<clipitem id="clipitem-656" frameBlend="FALSE">
						<masterclipid>masterclip-134</masterclipid>
						<name>MVI_0087.MOV</name>
						<enabled>TRUE</enabled>
						<duration>601</duration>
						<rate>
							<timebase>25</timebase>
							<ntsc>FALSE</ntsc>
						</rate>
						<start>21020</start>
						<end>21074</end>
						<in>197</in>
						<out>251</out>
						<alphatype>black</alphatype>
						<pixelaspectratio>square</pixelaspectratio>
						<anamorphic>FALSE</anamorphic>
						<file id="file-121">
							<name>MVI_0087.MOV</name>
							<pathurl>file://localhost/Volumes/Brakka/AdobeLager/Katta/Katta-14xxxx-Smart_eller_overvaaket-Chris/02-Video/COWI%20Varemesse%205D/DCIM/100EOS5D/MVI_0087.MOV</pathurl>
							<rate>
								<timebase>25</timebase>
								<ntsc>FALSE</ntsc>
							</rate>
							<duration>601</duration>
							<timecode>
								<rate>
									<timebase>25</timebase>
									<ntsc>FALSE</ntsc>
								</rate>
								<string>00:00:00:00</string>
								<frame>0</frame>
								<displayformat>NDF</displayformat>
								<reel>
									<name></name>
								</reel>
							</timecode>
							<media>
								<video>
									<duration>18000</duration>
									<samplecharacteristics>
										<rate>
											<timebase>25</timebase>
											<ntsc>FALSE</ntsc>
										</rate>
										<width>1920</width>
										<height>1080</height>
										<anamorphic>FALSE</anamorphic>
										<pixelaspectratio>square</pixelaspectratio>
										<fielddominance>none</fielddominance>
									</samplecharacteristics>
								</video>
								<audio>
									<samplecharacteristics>
										<depth>16</depth>
										<samplerate>48000</samplerate>
									</samplecharacteristics>
									<channelcount>1</channelcount>
									<layout>mono</layout>
									<audiochannel>
										<sourcechannel>1</sourcechannel>
										<channellabel>discrete</channellabel>
									</audiochannel>
								</audio>
								<audio>
									<samplecharacteristics>
										<depth>16</depth>
										<samplerate>48000</samplerate>
									</samplecharacteristics>
									<channelcount>1</channelcount>
									<layout>mono</layout>
									<audiochannel>
										<sourcechannel>2</sourcechannel>
										<channellabel>discrete</channellabel>
									</audiochannel>
								</audio>
							</media>
						</file>
						<logginginfo>
							<description></description>
							<scene></scene>
							<shottake></shottake>
							<lognote></lognote>
						</logginginfo>
						<labels>
							<label2>Iris</label2>
						</labels>
					</clipitem>
					<clipitem id="clipitem-657" frameBlend="FALSE">
						<masterclipid>masterclip-130</masterclipid>
						<name>AA014901.MXFCowi varemesse multi</name>
						<enabled>TRUE</enabled>
						<duration>2666</duration>
						<rate>
							<timebase>25</timebase>
							<ntsc>FALSE</ntsc>
						</rate>
						<start>21074</start>
						<end>21242</end>
						<in>1311</in>
						<out>1479</out>
						<sequence id="sequence-51"/>
						<labels>
							<label2>Forest</label2>
						</labels>
					</clipitem>
					<clipitem id="clipitem-658" frameBlend="FALSE">
						<masterclipid>masterclip-135</masterclipid>
						<name>MVI_0071.MOV</name>
						<enabled>TRUE</enabled>
						<duration>2132</duration>
						<rate>
							<timebase>25</timebase>
							<ntsc>FALSE</ntsc>
						</rate>
						<start>21242</start>
						<end>21329</end>
						<in>1175</in>
						<out>1262</out>
						<alphatype>black</alphatype>
						<pixelaspectratio>square</pixelaspectratio>
						<anamorphic>FALSE</anamorphic>
						<file id="file-122">
							<name>MVI_0071.MOV</name>
							<pathurl>file://localhost/Volumes/Brakka/AdobeLager/Katta/Katta-14xxxx-Smart_eller_overvaaket-Chris/02-Video/COWI%20Varemesse%205D/DCIM/100EOS5D/MVI_0071.MOV</pathurl>
							<rate>
								<timebase>25</timebase>
								<ntsc>FALSE</ntsc>
							</rate>
							<duration>2132</duration>
							<timecode>
								<rate>
									<timebase>25</timebase>
									<ntsc>FALSE</ntsc>
								</rate>
								<string>00:00:00:00</string>
								<frame>0</frame>
								<displayformat>NDF</displayformat>
								<reel>
									<name></name>
								</reel>
							</timecode>
							<media>
								<video>
									<duration>18000</duration>
									<samplecharacteristics>
										<rate>
											<timebase>25</timebase>
											<ntsc>FALSE</ntsc>
										</rate>
										<width>1920</width>
										<height>1080</height>
										<anamorphic>FALSE</anamorphic>
										<pixelaspectratio>square</pixelaspectratio>
										<fielddominance>none</fielddominance>
									</samplecharacteristics>
								</video>
								<audio>
									<samplecharacteristics>
										<depth>16</depth>
										<samplerate>48000</samplerate>
									</samplecharacteristics>
									<channelcount>1</channelcount>
									<layout>mono</layout>
									<audiochannel>
										<sourcechannel>1</sourcechannel>
										<channellabel>discrete</channellabel>
									</audiochannel>
								</audio>
								<audio>
									<samplecharacteristics>
										<depth>16</depth>
										<samplerate>48000</samplerate>
									</samplecharacteristics>
									<channelcount>1</channelcount>
									<layout>mono</layout>
									<audiochannel>
										<sourcechannel>2</sourcechannel>
										<channellabel>discrete</channellabel>
									</audiochannel>
								</audio>
							</media>
						</file>
						<logginginfo>
							<description></description>
							<scene></scene>
							<shottake></shottake>
							<lognote></lognote>
						</logginginfo>
						<labels>
							<label2>Iris</label2>
						</labels>
					</clipitem>
					<clipitem id="clipitem-659" frameBlend="FALSE">
						<masterclipid>masterclip-130</masterclipid>
						<name>AA014901.MXFCowi varemesse multi</name>
						<enabled>TRUE</enabled>
						<duration>2666</duration>
						<rate>
							<timebase>25</timebase>
							<ntsc>FALSE</ntsc>
						</rate>
						<start>21329</start>
						<end>21423</end>
						<in>1628</in>
						<out>1722</out>
						<sequence id="sequence-51"/>
						<link>
							<linkclipref>clipitem-659</linkclipref>
							<mediatype>video</mediatype>
							<trackindex>1</trackindex>
							<clipindex>186</clipindex>
						</link>
						<link>
							<linkclipref>clipitem-1142</linkclipref>
							<mediatype>audio</mediatype>
							<trackindex>1</trackindex>
							<clipindex>94</clipindex>
						</link>
						<link>
							<linkclipref>clipitem-1429</linkclipref>
							<mediatype>audio</mediatype>
							<trackindex>3</trackindex>
							<clipindex>76</clipindex>
						</link>
						<labels>
							<label2>Forest</label2>
						</labels>
					</clipitem>
					<clipitem id="clipitem-660" frameBlend="FALSE">
						<masterclipid>masterclip-136</masterclipid>
						<name>AA015401.MXF</name>
						<enabled>TRUE</enabled>
						<duration>1908</duration>
						<rate>
							<timebase>25</timebase>
							<ntsc>FALSE</ntsc>
						</rate>
						<start>21423</start>
						<end>21577</end>
						<in>677</in>
						<out>831</out>
						<alphatype>none</alphatype>
						<pixelaspectratio>square</pixelaspectratio>
						<anamorphic>FALSE</anamorphic>
						<file id="file-123">
							<name>AA015401.MXF</name>
							<pathurl>file://localhost/Volumes/Brakka/AdobeLager/Katta/Katta-14xxxx-Smart_eller_overvaaket-Chris/02-Video/COWI%20Varemesse%20C300/CONTENTS/CLIPS001/AA0154/AA015401.MXF</pathurl>
							<rate>
								<timebase>25</timebase>
								<ntsc>FALSE</ntsc>
							</rate>
							<duration>1908</duration>
							<timecode>
								<rate>
									<timebase>25</timebase>
									<ntsc>FALSE</ntsc>
								</rate>
								<string>03:03:53:19</string>
								<frame>275844</frame>
								<displayformat>NDF</displayformat>
								<reel>
									<name></name>
								</reel>
							</timecode>
							<media>
								<video>
									<duration>18000</duration>
									<samplecharacteristics>
										<rate>
											<timebase>25</timebase>
											<ntsc>FALSE</ntsc>
										</rate>
										<width>1920</width>
										<height>1080</height>
										<anamorphic>FALSE</anamorphic>
										<pixelaspectratio>square</pixelaspectratio>
										<fielddominance>none</fielddominance>
									</samplecharacteristics>
								</video>
								<audio>
									<samplecharacteristics>
										<depth>16</depth>
										<samplerate>48000</samplerate>
									</samplecharacteristics>
									<channelcount>1</channelcount>
									<layout>mono</layout>
									<audiochannel>
										<sourcechannel>1</sourcechannel>
										<channellabel>discrete</channellabel>
									</audiochannel>
								</audio>
								<audio>
									<samplecharacteristics>
										<depth>16</depth>
										<samplerate>48000</samplerate>
									</samplecharacteristics>
									<channelcount>1</channelcount>
									<layout>mono</layout>
									<audiochannel>
										<sourcechannel>2</sourcechannel>
										<channellabel>discrete</channellabel>
									</audiochannel>
								</audio>
							</media>
						</file>
						<link>
							<linkclipref>clipitem-660</linkclipref>
							<mediatype>video</mediatype>
							<trackindex>1</trackindex>
							<clipindex>187</clipindex>
						</link>
						<link>
							<linkclipref>clipitem-1551</linkclipref>
							<mediatype>audio</mediatype>
							<trackindex>5</trackindex>
							<clipindex>47</clipindex>
						</link>
						<link>
							<linkclipref>clipitem-1622</linkclipref>
							<mediatype>audio</mediatype>
							<trackindex>7</trackindex>
							<clipindex>40</clipindex>
						</link>
						<logginginfo>
							<description></description>
							<scene></scene>
							<shottake>AA0154</shottake>
							<lognote></lognote>
						</logginginfo>
						<labels>
							<label2>Iris</label2>
						</labels>
					</clipitem>
					<clipitem id="clipitem-661" frameBlend="FALSE">
						<masterclipid>masterclip-137</masterclipid>
						<name>MVI_0072.MOV</name>
						<enabled>TRUE</enabled>
						<duration>649</duration>
						<rate>
							<timebase>25</timebase>
							<ntsc>FALSE</ntsc>
						</rate>
						<start>21577</start>
						<end>21735</end>
						<in>132</in>
						<out>290</out>
						<alphatype>black</alphatype>
						<pixelaspectratio>square</pixelaspectratio>
						<anamorphic>FALSE</anamorphic>
						<file id="file-124">
							<name>MVI_0072.MOV</name>
							<pathurl>file://localhost/Volumes/Brakka/AdobeLager/Katta/Katta-14xxxx-Smart_eller_overvaaket-Chris/02-Video/COWI%20Varemesse%205D/DCIM/100EOS5D/MVI_0072.MOV</pathurl>
							<rate>
								<timebase>25</timebase>
								<ntsc>FALSE</ntsc>
							</rate>
							<duration>649</duration>
							<timecode>
								<rate>
									<timebase>25</timebase>
									<ntsc>FALSE</ntsc>
								</rate>
								<string>00:00:00:00</string>
								<frame>0</frame>
								<displayformat>NDF</displayformat>
								<reel>
									<name></name>
								</reel>
							</timecode>
							<media>
								<video>
									<duration>18000</duration>
									<samplecharacteristics>
										<rate>
											<timebase>25</timebase>
											<ntsc>FALSE</ntsc>
										</rate>
										<width>1920</width>
										<height>1080</height>
										<anamorphic>FALSE</anamorphic>
										<pixelaspectratio>square</pixelaspectratio>
										<fielddominance>none</fielddominance>
									</samplecharacteristics>
								</video>
								<audio>
									<samplecharacteristics>
										<depth>16</depth>
										<samplerate>48000</samplerate>
									</samplecharacteristics>
									<channelcount>1</channelcount>
									<layout>mono</layout>
									<audiochannel>
										<sourcechannel>1</sourcechannel>
										<channellabel>discrete</channellabel>
									</audiochannel>
								</audio>
								<audio>
									<samplecharacteristics>
										<depth>16</depth>
										<samplerate>48000</samplerate>
									</samplecharacteristics>
									<channelcount>1</channelcount>
									<layout>mono</layout>
									<audiochannel>
										<sourcechannel>2</sourcechannel>
										<channellabel>discrete</channellabel>
									</audiochannel>
								</audio>
							</media>
						</file>
						<logginginfo>
							<description></description>
							<scene></scene>
							<shottake></shottake>
							<lognote></lognote>
						</logginginfo>
						<labels>
							<label2>Iris</label2>
						</labels>
					</clipitem>
					<clipitem id="clipitem-662" frameBlend="FALSE">
						<masterclipid>masterclip-135</masterclipid>
						<name>MVI_0071.MOV</name>
						<enabled>TRUE</enabled>
						<duration>2132</duration>
						<rate>
							<timebase>25</timebase>
							<ntsc>FALSE</ntsc>
						</rate>
						<start>21735</start>
						<end>21830</end>
						<in>692</in>
						<out>787</out>
						<alphatype>black</alphatype>
						<file id="file-122"/>
						<link>
							<linkclipref>clipitem-662</linkclipref>
							<mediatype>video</mediatype>
							<trackindex>1</trackindex>
							<clipindex>189</clipindex>
						</link>
						<link>
							<linkclipref>clipitem-1553</linkclipref>
							<mediatype>audio</mediatype>
							<trackindex>5</trackindex>
							<clipindex>49</clipindex>
						</link>
						<link>
							<linkclipref>clipitem-1624</linkclipref>
							<mediatype>audio</mediatype>
							<trackindex>7</trackindex>
							<clipindex>42</clipindex>
						</link>
						<logginginfo>
							<description></description>
							<scene></scene>
							<shottake></shottake>
							<lognote></lognote>
						</logginginfo>
						<labels>
							<label2>Iris</label2>
						</labels>
					</clipitem>
					<clipitem id="clipitem-663" frameBlend="FALSE">
						<masterclipid>masterclip-138</masterclipid>
						<name>AA015201.MXFCowi varemesse multi</name>
						<enabled>TRUE</enabled>
						<duration>8314</duration>
						<rate>
							<timebase>25</timebase>
							<ntsc>FALSE</ntsc>
						</rate>
						<start>21830</start>
						<end>22114</end>
						<in>2370</in>
						<out>2654</out>
						<sequence id="sequence-55">
							<duration>150</duration>
							<rate>
								<timebase>25</timebase>
								<ntsc>FALSE</ntsc>
							</rate>
							<name>AA015201.MXFCowi varemesse multi-1</name>
							<media>
								<video>
									<format>
										<samplecharacteristics>
											<rate>
												<timebase>25</timebase>
												<ntsc>FALSE</ntsc>
											</rate>
											<codec>
												<name>Apple ProRes 422</name>
												<appspecificdata>
													<appname>Final Cut Pro</appname>
													<appmanufacturer>Apple Inc.</appmanufacturer>
													<appversion>7.0</appversion>
													<data>
														<qtcodec>
															<codecname>Apple ProRes 422</codecname>
															<codectypename>Apple ProRes 422</codectypename>
															<codectypecode>apcn</codectypecode>
															<codecvendorcode>appl</codecvendorcode>
															<spatialquality>1024</spatialquality>
															<temporalquality>0</temporalquality>
															<keyframerate>0</keyframerate>
															<datarate>0</datarate>
														</qtcodec>
													</data>
												</appspecificdata>
											</codec>
											<width>1920</width>
											<height>1080</height>
											<anamorphic>FALSE</anamorphic>
											<pixelaspectratio>square</pixelaspectratio>
											<fielddominance>none</fielddominance>
											<colordepth>24</colordepth>
										</samplecharacteristics>
									</format>
									<track TL.SQTrackShy="0" TL.SQTrackExpandedHeight="25" TL.SQTrackExpanded="0" MZ.TrackTargeted="0">
										<clipitem id="clipitem-665" frameBlend="FALSE">
											<masterclipid>masterclip-139</masterclipid>
											<name>AA015201.MXF</name>
											<enabled>TRUE</enabled>
											<duration>8268</duration>
											<rate>
												<timebase>25</timebase>
												<ntsc>FALSE</ntsc>
											</rate>
											<start>46</start>
											<end>8314</end>
											<in>0</in>
											<out>8268</out>
											<alphatype>none</alphatype>
											<file id="file-125"/>
											<logginginfo>
												<description></description>
												<scene></scene>
												<shottake>AA0152</shottake>
												<lognote></lognote>
											</logginginfo>
											<labels>
												<label2>Iris</label2>
											</labels>
										</clipitem>
										<enabled>TRUE</enabled>
										<locked>FALSE</locked>
									</track>
								</video>
								<audio>
									<format>
										<samplecharacteristics>
											<depth>16</depth>
											<samplerate>48000</samplerate>
										</samplecharacteristics>
									</format>
									<outputs>
										<group>
											<index>1</index>
											<numchannels>1</numchannels>
											<downmix>0</downmix>
											<channel>
												<index>1</index>
											</channel>
										</group>
										<group>
											<index>2</index>
											<numchannels>1</numchannels>
											<downmix>0</downmix>
											<channel>
												<index>2</index>
											</channel>
										</group>
										<group>
											<index>3</index>
											<numchannels>1</numchannels>
											<downmix>0</downmix>
											<channel>
												<index>3</index>
											</channel>
										</group>
										<group>
											<index>4</index>
											<numchannels>1</numchannels>
											<downmix>0</downmix>
											<channel>
												<index>4</index>
											</channel>
										</group>
									</outputs>
									<track TL.SQTrackAudioKeyframeStyle="0" TL.SQTrackShy="0" TL.SQTrackExpandedHeight="87" TL.SQTrackExpanded="1" MZ.TrackTargeted="1" PannerCurrentValue="0.5" PannerIsInverted="true" PannerStartKeyframe="-91445760000000000,0.5,0,0,0,0,0,0" PannerName="Balance" currentExplodedTrackIndex="0" totalExplodedTrackCount="1" premiereTrackType="Stereo">
										<clipitem id="clipitem-664" frameBlend="FALSE" PannerCurrentValue="0.5" PannerKeyframes="" PannerStartKeyframe="-91445760000000000,0.5,0,0,0,0,0,0" PannerIsInverted="true" PannerName="Balance">
											<masterclipid>masterclip-139</masterclipid>
											<name>AA015201.MXF</name>
											<enabled>TRUE</enabled>
											<duration>8268</duration>
											<rate>
												<timebase>25</timebase>
												<ntsc>FALSE</ntsc>
											</rate>
											<start>46</start>
											<end>8314</end>
											<in>0</in>
											<out>8268</out>
											<pixelaspectratio>square</pixelaspectratio>
											<anamorphic>FALSE</anamorphic>
											<file id="file-125">
												<name>AA015201.MXF</name>
												<pathurl>file://localhost/Volumes/Brakka/AdobeLager/Katta/Katta-14xxxx-Smart_eller_overvaaket-Chris/02-Video/COWI%20Varemesse%20C300/CONTENTS/CLIPS001/AA0152/AA015201.MXF</pathurl>
												<rate>
													<timebase>25</timebase>
													<ntsc>FALSE</ntsc>
												</rate>
												<duration>8268</duration>
												<timecode>
													<rate>
														<timebase>25</timebase>
														<ntsc>FALSE</ntsc>
													</rate>
													<string>02:57:58:14</string>
													<frame>266964</frame>
													<displayformat>NDF</displayformat>
													<reel>
														<name></name>
													</reel>
												</timecode>
												<media>
													<video>
														<duration>18000</duration>
														<samplecharacteristics>
															<rate>
																<timebase>25</timebase>
																<ntsc>FALSE</ntsc>
															</rate>
															<width>1920</width>
															<height>1080</height>
															<anamorphic>FALSE</anamorphic>
															<pixelaspectratio>square</pixelaspectratio>
															<fielddominance>none</fielddominance>
														</samplecharacteristics>
													</video>
													<audio>
														<samplecharacteristics>
															<depth>16</depth>
															<samplerate>48000</samplerate>
														</samplecharacteristics>
														<channelcount>1</channelcount>
														<layout>mono</layout>
														<audiochannel>
															<sourcechannel>1</sourcechannel>
															<channellabel>discrete</channellabel>
														</audiochannel>
													</audio>
													<audio>
														<samplecharacteristics>
															<depth>16</depth>
															<samplerate>48000</samplerate>
														</samplecharacteristics>
														<channelcount>1</channelcount>
														<layout>mono</layout>
														<audiochannel>
															<sourcechannel>2</sourcechannel>
															<channellabel>discrete</channellabel>
														</audiochannel>
													</audio>
												</media>
											</file>
											<sourcetrack>
												<mediatype>audio</mediatype>
												<trackindex>1</trackindex>
											</sourcetrack>
												<filter>
													<effect>
														<name>Audio Pan</name>
														<effectid>audiopan</effectid>
														<effectcategory>audiopan</effectcategory>
														<effecttype>audiopan</effecttype>
														<mediatype>audio</mediatype>
														<parameter authoringApp="PremierePro">
															<parameterid>pan</parameterid>
															<name>Pan</name>
															<valuemin>-1</valuemin>
															<valuemax>1</valuemax>
															<value>0</value>
														</parameter>
													</effect>
												</filter>
											<logginginfo>
												<description></description>
												<scene></scene>
												<shottake>AA0152</shottake>
												<lognote></lognote>
											</logginginfo>
											<labels>
												<label2>Iris</label2>
											</labels>
										</clipitem>
										<enabled>TRUE</enabled>
										<locked>FALSE</locked>
										<outputchannelindex>1</outputchannelindex>
									</track>
								</audio>
							</media>
							<timecode>
								<rate>
									<timebase>25</timebase>
									<ntsc>FALSE</ntsc>
								</rate>
								<string>00:00:00:00</string>
								<frame>0</frame>
								<displayformat>NDF</displayformat>
							</timecode>
						</sequence>
							<marker>
								<comment>Skal de hjem eller skal de pￃﾥ pￃﾸb</comment>
								<name></name>
								<in>2575</in>
								<out>-1</out>
							</marker>
						<labels>
							<label2>Forest</label2>
						</labels>
					</clipitem>
					<clipitem id="clipitem-669" frameBlend="FALSE">
						<masterclipid>masterclip-141</masterclipid>
						<name>AA013501.MXFCowi varemesse multi</name>
						<enabled>TRUE</enabled>
						<duration>7968</duration>
						<rate>
							<timebase>25</timebase>
							<ntsc>FALSE</ntsc>
						</rate>
						<start>22114</start>
						<end>22169</end>
						<in>169</in>
						<out>224</out>
						<sequence id="sequence-59">
							<duration>150</duration>
							<rate>
								<timebase>25</timebase>
								<ntsc>FALSE</ntsc>
							</rate>
							<name>AA013501.MXFCowi varemesse multi-1</name>
							<media>
								<video>
									<format>
										<samplecharacteristics>
											<rate>
												<timebase>25</timebase>
												<ntsc>FALSE</ntsc>
											</rate>
											<codec>
												<name>Apple ProRes 422</name>
												<appspecificdata>
													<appname>Final Cut Pro</appname>
													<appmanufacturer>Apple Inc.</appmanufacturer>
													<appversion>7.0</appversion>
													<data>
														<qtcodec>
															<codecname>Apple ProRes 422</codecname>
															<codectypename>Apple ProRes 422</codectypename>
															<codectypecode>apcn</codectypecode>
															<codecvendorcode>appl</codecvendorcode>
															<spatialquality>1024</spatialquality>
															<temporalquality>0</temporalquality>
															<keyframerate>0</keyframerate>
															<datarate>0</datarate>
														</qtcodec>
													</data>
												</appspecificdata>
											</codec>
											<width>1920</width>
											<height>1080</height>
											<anamorphic>FALSE</anamorphic>
											<pixelaspectratio>square</pixelaspectratio>
											<fielddominance>none</fielddominance>
											<colordepth>24</colordepth>
										</samplecharacteristics>
									</format>
									<track>
										<clipitem id="clipitem-672" frameBlend="FALSE">
											<masterclipid>masterclip-142</masterclipid>
											<name>AA013501.MXF</name>
											<enabled>TRUE</enabled>
											<duration>7968</duration>
											<rate>
												<timebase>25</timebase>
												<ntsc>FALSE</ntsc>
											</rate>
											<start>0</start>
											<end>7968</end>
											<in>0</in>
											<out>7968</out>
											<alphatype>none</alphatype>
											<file id="file-127"/>
											<logginginfo>
												<description></description>
												<scene></scene>
												<shottake>AA0135</shottake>
												<lognote></lognote>
											</logginginfo>
											<labels>
												<label2>Iris</label2>
											</labels>
										</clipitem>
										<enabled>TRUE</enabled>
										<locked>FALSE</locked>
									</track>
								</video>
								<audio>
									<format>
										<samplecharacteristics>
											<depth>16</depth>
											<samplerate>48000</samplerate>
										</samplecharacteristics>
									</format>
									<outputs>
										<group>
											<index>1</index>
											<numchannels>1</numchannels>
											<downmix>0</downmix>
											<channel>
												<index>1</index>
											</channel>
										</group>
										<group>
											<index>2</index>
											<numchannels>1</numchannels>
											<downmix>0</downmix>
											<channel>
												<index>2</index>
											</channel>
										</group>
										<group>
											<index>3</index>
											<numchannels>1</numchannels>
											<downmix>0</downmix>
											<channel>
												<index>3</index>
											</channel>
										</group>
										<group>
											<index>4</index>
											<numchannels>1</numchannels>
											<downmix>0</downmix>
											<channel>
												<index>4</index>
											</channel>
										</group>
										<group>
											<index>5</index>
											<numchannels>1</numchannels>
											<downmix>0</downmix>
											<channel>
												<index>5</index>
											</channel>
										</group>
										<group>
											<index>6</index>
											<numchannels>1</numchannels>
											<downmix>0</downmix>
											<channel>
												<index>6</index>
											</channel>
										</group>
									</outputs>
									<track TL.SQTrackExpandedHeight="25" TL.SQTrackExpanded="0" MZ.TrackTargeted="1" PannerCurrentValue="0.5" PannerIsInverted="true" PannerStartKeyframe="-91445760000000000,0.5,0,0,0,0,0,0" PannerName="Balance" currentExplodedTrackIndex="0" totalExplodedTrackCount="2" premiereTrackType="Stereo">
										<clipitem id="clipitem-670" frameBlend="FALSE" PannerCurrentValue="0.5" PannerKeyframes="" PannerStartKeyframe="-91445760000000000,0.5,0,0,0,0,0,0" PannerIsInverted="true" PannerName="Balance">
											<masterclipid>masterclip-142</masterclipid>
											<name>AA013501.MXF</name>
											<enabled>TRUE</enabled>
											<duration>7968</duration>
											<rate>
												<timebase>25</timebase>
												<ntsc>FALSE</ntsc>
											</rate>
											<start>0</start>
											<end>7968</end>
											<in>0</in>
											<out>7968</out>
											<pixelaspectratio>square</pixelaspectratio>
											<anamorphic>FALSE</anamorphic>
											<file id="file-127">
												<name>AA013501.MXF</name>
												<pathurl>file://localhost/Volumes/Brakka/AdobeLager/Katta/Katta-14xxxx-Smart_eller_overvaaket-Chris/02-Video/COWI%20Varemesse%20C300/CONTENTS/CLIPS001/AA0135/AA013501.MXF</pathurl>
												<rate>
													<timebase>25</timebase>
													<ntsc>FALSE</ntsc>
												</rate>
												<duration>7968</duration>
												<timecode>
													<rate>
														<timebase>25</timebase>
														<ntsc>FALSE</ntsc>
													</rate>
													<string>02:11:26:22</string>
													<frame>197172</frame>
													<displayformat>NDF</displayformat>
													<reel>
														<name></name>
													</reel>
												</timecode>
												<media>
													<video>
														<duration>18000</duration>
														<samplecharacteristics>
															<rate>
																<timebase>25</timebase>
																<ntsc>FALSE</ntsc>
															</rate>
															<width>1920</width>
															<height>1080</height>
															<anamorphic>FALSE</anamorphic>
															<pixelaspectratio>square</pixelaspectratio>
															<fielddominance>none</fielddominance>
														</samplecharacteristics>
													</video>
													<audio>
														<samplecharacteristics>
															<depth>16</depth>
															<samplerate>48000</samplerate>
														</samplecharacteristics>
														<channelcount>1</channelcount>
														<layout>mono</layout>
														<audiochannel>
															<sourcechannel>1</sourcechannel>
															<channellabel>discrete</channellabel>
														</audiochannel>
													</audio>
													<audio>
														<samplecharacteristics>
															<depth>16</depth>
															<samplerate>48000</samplerate>
														</samplecharacteristics>
														<channelcount>1</channelcount>
														<layout>mono</layout>
														<audiochannel>
															<sourcechannel>2</sourcechannel>
															<channellabel>discrete</channellabel>
														</audiochannel>
													</audio>
												</media>
											</file>
											<sourcetrack>
												<mediatype>audio</mediatype>
												<trackindex>1</trackindex>
											</sourcetrack>
												<filter>
													<effect>
														<name>Audio Pan</name>
														<effectid>audiopan</effectid>
														<effectcategory>audiopan</effectcategory>
														<effecttype>audiopan</effecttype>
														<mediatype>audio</mediatype>
														<parameter authoringApp="PremierePro">
															<parameterid>pan</parameterid>
															<name>Pan</name>
															<valuemin>-1</valuemin>
															<valuemax>1</valuemax>
															<value>0</value>
														</parameter>
													</effect>
												</filter>
											<logginginfo>
												<description></description>
												<scene></scene>
												<shottake>AA0135</shottake>
												<lognote></lognote>
											</logginginfo>
											<labels>
												<label2>Iris</label2>
											</labels>
										</clipitem>
										<enabled>TRUE</enabled>
										<locked>FALSE</locked>
										<outputchannelindex>1</outputchannelindex>
									</track>
									<track TL.SQTrackExpandedHeight="25" TL.SQTrackExpanded="0" MZ.TrackTargeted="1" PannerCurrentValue="0.5" PannerIsInverted="true" PannerStartKeyframe="-91445760000000000,0.5,0,0,0,0,0,0" PannerName="Balance" currentExplodedTrackIndex="1" totalExplodedTrackCount="2" premiereTrackType="Stereo">
										<clipitem id="clipitem-671" frameBlend="FALSE" PannerCurrentValue="0.5" PannerKeyframes="" PannerStartKeyframe="-91445760000000000,0.5,0,0,0,0,0,0" PannerIsInverted="true" PannerName="Balance">
											<masterclipid>masterclip-142</masterclipid>
											<name>AA013501.MXF</name>
											<enabled>TRUE</enabled>
											<duration>7968</duration>
											<rate>
												<timebase>25</timebase>
												<ntsc>FALSE</ntsc>
											</rate>
											<start>0</start>
											<end>7968</end>
											<in>0</in>
											<out>7968</out>
											<file id="file-127"/>
											<sourcetrack>
												<mediatype>audio</mediatype>
												<trackindex>2</trackindex>
											</sourcetrack>
												<filter>
													<effect>
														<name>Audio Pan</name>
														<effectid>audiopan</effectid>
														<effectcategory>audiopan</effectcategory>
														<effecttype>audiopan</effecttype>
														<mediatype>audio</mediatype>
														<parameter authoringApp="PremierePro">
															<parameterid>pan</parameterid>
															<name>Pan</name>
															<valuemin>-1</valuemin>
															<valuemax>1</valuemax>
															<value>0</value>
														</parameter>
													</effect>
												</filter>
											<logginginfo>
												<description></description>
												<scene></scene>
												<shottake>AA0135</shottake>
												<lognote></lognote>
											</logginginfo>
											<labels>
												<label2>Iris</label2>
											</labels>
										</clipitem>
										<enabled>TRUE</enabled>
										<locked>FALSE</locked>
										<outputchannelindex>2</outputchannelindex>
									</track>
								</audio>
							</media>
							<timecode>
								<rate>
									<timebase>25</timebase>
									<ntsc>FALSE</ntsc>
								</rate>
								<string>00:00:00:00</string>
								<frame>0</frame>
								<displayformat>NDF</displayformat>
							</timecode>
						</sequence>
							<marker>
								<comment>ￃﾥrhus, her var det mange punkter, tror det er totalt 135 punkter</comment>
								<name>ￃﾥr hus</name>
								<in>415</in>
								<out>-1</out>
							</marker>
							<marker>
								<comment>gir komplett bilde av trafikken ￃﾥrhus</comment>
								<name>gir komplett bilde av t</name>
								<in>697</in>
								<out>-1</out>
							</marker>
							<marker>
								<comment>overvￃﾥking av trafikk hva hjelper? Vi fￃﾥr bilde av hvordan folk reiser</comment>
								<name></name>
								<in>4906</in>
								<out>-1</out>
							</marker>
						<link>
							<linkclipref>clipitem-669</linkclipref>
							<mediatype>video</mediatype>
							<trackindex>1</trackindex>
							<clipindex>191</clipindex>
						</link>
						<link>
							<linkclipref>clipitem-1149</linkclipref>
							<mediatype>audio</mediatype>
							<trackindex>1</trackindex>
							<clipindex>96</clipindex>
						</link>
						<link>
							<linkclipref>clipitem-1432</linkclipref>
							<mediatype>audio</mediatype>
							<trackindex>3</trackindex>
							<clipindex>79</clipindex>
						</link>
						<labels>
							<label2>Forest</label2>
						</labels>
					</clipitem>
					<clipitem id="clipitem-679" frameBlend="FALSE">
						<masterclipid>masterclip-145</masterclipid>
						<name>AA013601.MXFCowi varemesse multi</name>
						<enabled>TRUE</enabled>
						<duration>11976</duration>
						<rate>
							<timebase>25</timebase>
							<ntsc>FALSE</ntsc>
						</rate>
						<start>22169</start>
						<end>22279</end>
						<in>5104</in>
						<out>5214</out>
						<labels>
							<label2>Forest</label2>
						</labels>
					</clipitem>
					<clipitem id="clipitem-692" frameBlend="FALSE">
						<masterclipid>masterclip-141</masterclipid>
						<name>AA013501.MXFCowi varemesse multi</name>
						<enabled>TRUE</enabled>
						<duration>7968</duration>
						<rate>
							<timebase>25</timebase>
							<ntsc>FALSE</ntsc>
						</rate>
						<start>22279</start>
						<end>22301</end>
						<in>258</in>
						<out>280</out>
						<sequence id="sequence-59"/>
							<marker>
								<comment>ￃﾥrhus, her var det mange punkter, tror det er totalt 135 punkter</comment>
								<name>ￃﾥr hus</name>
								<in>415</in>
								<out>-1</out>
							</marker>
							<marker>
								<comment>gir komplett bilde av trafikken ￃﾥrhus</comment>
								<name>gir komplett bilde av t</name>
								<in>697</in>
								<out>-1</out>
							</marker>
							<marker>
								<comment>overvￃﾥking av trafikk hva hjelper? Vi fￃﾥr bilde av hvordan folk reiser</comment>
								<name></name>
								<in>4906</in>
								<out>-1</out>
							</marker>
						<labels>
							<label2>Forest</label2>
						</labels>
					</clipitem>
					<clipitem id="clipitem-693" frameBlend="FALSE">
						<masterclipid>masterclip-141</masterclipid>
						<name>AA013501.MXFCowi varemesse multi</name>
						<enabled>TRUE</enabled>
						<duration>7968</duration>
						<rate>
							<timebase>25</timebase>
							<ntsc>FALSE</ntsc>
						</rate>
						<start>22301</start>
						<end>22419</end>
						<in>280</in>
						<out>398</out>
						<sequence id="sequence-61">
							<duration>150</duration>
							<rate>
								<timebase>25</timebase>
								<ntsc>FALSE</ntsc>
							</rate>
							<name>AA013501.MXFCowi varemesse multi-3</name>
							<media>
								<video>
									<format>
										<samplecharacteristics>
											<rate>
												<timebase>25</timebase>
												<ntsc>FALSE</ntsc>
											</rate>
											<codec>
												<name>Apple ProRes 422</name>
												<appspecificdata>
													<appname>Final Cut Pro</appname>
													<appmanufacturer>Apple Inc.</appmanufacturer>
													<appversion>7.0</appversion>
													<data>
														<qtcodec>
															<codecname>Apple ProRes 422</codecname>
															<codectypename>Apple ProRes 422</codectypename>
															<codectypecode>apcn</codectypecode>
															<codecvendorcode>appl</codecvendorcode>
															<spatialquality>1024</spatialquality>
															<temporalquality>0</temporalquality>
															<keyframerate>0</keyframerate>
															<datarate>0</datarate>
														</qtcodec>
													</data>
												</appspecificdata>
											</codec>
											<width>1920</width>
											<height>1080</height>
											<anamorphic>FALSE</anamorphic>
											<pixelaspectratio>square</pixelaspectratio>
											<fielddominance>none</fielddominance>
											<colordepth>24</colordepth>
										</samplecharacteristics>
									</format>
									<track>
										<clipitem id="clipitem-678" frameBlend="FALSE">
											<masterclipid>masterclip-144</masterclipid>
											<name>MVI_0052.MOV</name>
											<enabled>TRUE</enabled>
											<duration>7779</duration>
											<rate>
												<timebase>25</timebase>
												<ntsc>FALSE</ntsc>
											</rate>
											<start>68</start>
											<end>7847</end>
											<in>0</in>
											<out>7779</out>
											<alphatype>black</alphatype>
											<file id="file-129"/>
											<logginginfo>
												<description></description>
												<scene></scene>
												<shottake></shottake>
												<lognote></lognote>
											</logginginfo>
											<labels>
												<label2>Iris</label2>
											</labels>
										</clipitem>
										<enabled>TRUE</enabled>
										<locked>FALSE</locked>
									</track>
								</video>
								<audio>
									<format>
										<samplecharacteristics>
											<depth>16</depth>
											<samplerate>48000</samplerate>
										</samplecharacteristics>
									</format>
									<outputs>
										<group>
											<index>1</index>
											<numchannels>1</numchannels>
											<downmix>0</downmix>
											<channel>
												<index>1</index>
											</channel>
										</group>
										<group>
											<index>2</index>
											<numchannels>1</numchannels>
											<downmix>0</downmix>
											<channel>
												<index>2</index>
											</channel>
										</group>
										<group>
											<index>3</index>
											<numchannels>1</numchannels>
											<downmix>0</downmix>
											<channel>
												<index>3</index>
											</channel>
										</group>
										<group>
											<index>4</index>
											<numchannels>1</numchannels>
											<downmix>0</downmix>
											<channel>
												<index>4</index>
											</channel>
										</group>
										<group>
											<index>5</index>
											<numchannels>1</numchannels>
											<downmix>0</downmix>
											<channel>
												<index>5</index>
											</channel>
										</group>
										<group>
											<index>6</index>
											<numchannels>1</numchannels>
											<downmix>0</downmix>
											<channel>
												<index>6</index>
											</channel>
										</group>
									</outputs>
									<track TL.SQTrackExpandedHeight="25" TL.SQTrackExpanded="0" MZ.TrackTargeted="1" PannerCurrentValue="0.5" PannerIsInverted="true" PannerStartKeyframe="-91445760000000000,0.5,0,0,0,0,0,0" PannerName="Balance" currentExplodedTrackIndex="0" totalExplodedTrackCount="2" premiereTrackType="Stereo">
										<clipitem id="clipitem-676" frameBlend="FALSE" PannerCurrentValue="0.5" PannerKeyframes="" PannerStartKeyframe="-91445760000000000,0.5,0,0,0,0,0,0" PannerIsInverted="true" PannerName="Balance">
											<masterclipid>masterclip-144</masterclipid>
											<name>MVI_0052.MOV</name>
											<enabled>TRUE</enabled>
											<duration>7779</duration>
											<rate>
												<timebase>25</timebase>
												<ntsc>FALSE</ntsc>
											</rate>
											<start>68</start>
											<end>7847</end>
											<in>0</in>
											<out>7779</out>
											<pixelaspectratio>square</pixelaspectratio>
											<anamorphic>FALSE</anamorphic>
											<file id="file-129">
												<name>MVI_0052.MOV</name>
												<pathurl>file://localhost/Volumes/Brakka/AdobeLager/Katta/Katta-14xxxx-Smart_eller_overvaaket-Chris/02-Video/COWI%20Varemesse%205D/DCIM/100EOS5D/MVI_0052.MOV</pathurl>
												<rate>
													<timebase>25</timebase>
													<ntsc>FALSE</ntsc>
												</rate>
												<duration>7779</duration>
												<timecode>
													<rate>
														<timebase>25</timebase>
														<ntsc>FALSE</ntsc>
													</rate>
													<string>00:00:00:00</string>
													<frame>0</frame>
													<displayformat>NDF</displayformat>
													<reel>
														<name></name>
													</reel>
												</timecode>
												<media>
													<video>
														<duration>18000</duration>
														<samplecharacteristics>
															<rate>
																<timebase>25</timebase>
																<ntsc>FALSE</ntsc>
															</rate>
															<width>1920</width>
															<height>1080</height>
															<anamorphic>FALSE</anamorphic>
															<pixelaspectratio>square</pixelaspectratio>
															<fielddominance>none</fielddominance>
														</samplecharacteristics>
													</video>
													<audio>
														<samplecharacteristics>
															<depth>16</depth>
															<samplerate>48000</samplerate>
														</samplecharacteristics>
														<channelcount>2</channelcount>
													</audio>
												</media>
											</file>
											<sourcetrack>
												<mediatype>audio</mediatype>
												<trackindex>1</trackindex>
											</sourcetrack>
												<filter>
													<effect>
														<name>Audio Pan</name>
														<effectid>audiopan</effectid>
														<effectcategory>audiopan</effectcategory>
														<effecttype>audiopan</effecttype>
														<mediatype>audio</mediatype>
														<parameter authoringApp="PremierePro">
															<parameterid>pan</parameterid>
															<name>Pan</name>
															<valuemin>-1</valuemin>
															<valuemax>1</valuemax>
															<value>0</value>
														</parameter>
													</effect>
												</filter>
											<logginginfo>
												<description></description>
												<scene></scene>
												<shottake></shottake>
												<lognote></lognote>
											</logginginfo>
											<labels>
												<label2>Iris</label2>
											</labels>
										</clipitem>
										<enabled>TRUE</enabled>
										<locked>FALSE</locked>
										<outputchannelindex>5</outputchannelindex>
									</track>
									<track TL.SQTrackExpandedHeight="25" TL.SQTrackExpanded="0" MZ.TrackTargeted="1" PannerCurrentValue="0.5" PannerIsInverted="true" PannerStartKeyframe="-91445760000000000,0.5,0,0,0,0,0,0" PannerName="Balance" currentExplodedTrackIndex="1" totalExplodedTrackCount="2" premiereTrackType="Stereo">
										<clipitem id="clipitem-677" frameBlend="FALSE" PannerCurrentValue="0.5" PannerKeyframes="" PannerStartKeyframe="-91445760000000000,0.5,0,0,0,0,0,0" PannerIsInverted="true" PannerName="Balance">
											<masterclipid>masterclip-144</masterclipid>
											<name>MVI_0052.MOV</name>
											<enabled>TRUE</enabled>
											<duration>7779</duration>
											<rate>
												<timebase>25</timebase>
												<ntsc>FALSE</ntsc>
											</rate>
											<start>68</start>
											<end>7847</end>
											<in>0</in>
											<out>7779</out>
											<file id="file-129"/>
											<sourcetrack>
												<mediatype>audio</mediatype>
												<trackindex>2</trackindex>
											</sourcetrack>
												<filter>
													<effect>
														<name>Audio Pan</name>
														<effectid>audiopan</effectid>
														<effectcategory>audiopan</effectcategory>
														<effecttype>audiopan</effecttype>
														<mediatype>audio</mediatype>
														<parameter authoringApp="PremierePro">
															<parameterid>pan</parameterid>
															<name>Pan</name>
															<valuemin>-1</valuemin>
															<valuemax>1</valuemax>
															<value>0</value>
														</parameter>
													</effect>
												</filter>
											<logginginfo>
												<description></description>
												<scene></scene>
												<shottake></shottake>
												<lognote></lognote>
											</logginginfo>
											<labels>
												<label2>Iris</label2>
											</labels>
										</clipitem>
										<enabled>TRUE</enabled>
										<locked>FALSE</locked>
										<outputchannelindex>6</outputchannelindex>
									</track>
								</audio>
							</media>
							<timecode>
								<rate>
									<timebase>25</timebase>
									<ntsc>FALSE</ntsc>
								</rate>
								<string>00:00:00:00</string>
								<frame>0</frame>
								<displayformat>NDF</displayformat>
							</timecode>
						</sequence>
							<marker>
								<comment>ￃﾥrhus, her var det mange punkter, tror det er totalt 135 punkter</comment>
								<name>ￃﾥr hus</name>
								<in>415</in>
								<out>-1</out>
							</marker>
							<marker>
								<comment>gir komplett bilde av trafikken ￃﾥrhus</comment>
								<name>gir komplett bilde av t</name>
								<in>697</in>
								<out>-1</out>
							</marker>
							<marker>
								<comment>overvￃﾥking av trafikk hva hjelper? Vi fￃﾥr bilde av hvordan folk reiser</comment>
								<name></name>
								<in>4906</in>
								<out>-1</out>
							</marker>
						<labels>
							<label2>Forest</label2>
						</labels>
					</clipitem>
					<clipitem id="clipitem-694" frameBlend="FALSE">
						<masterclipid>masterclip-145</masterclipid>
						<name>AA013601.MXFCowi varemesse multi</name>
						<enabled>TRUE</enabled>
						<duration>11976</duration>
						<rate>
							<timebase>25</timebase>
							<ntsc>FALSE</ntsc>
						</rate>
						<start>22419</start>
						<end>22468</end>
						<in>5293</in>
						<out>5342</out>
						<labels>
							<label2>Forest</label2>
						</labels>
					</clipitem>
					<clipitem id="clipitem-695" frameBlend="FALSE">
						<masterclipid>masterclip-141</masterclipid>
						<name>AA013501.MXFCowi varemesse multi</name>
						<enabled>TRUE</enabled>
						<duration>7968</duration>
						<rate>
							<timebase>25</timebase>
							<ntsc>FALSE</ntsc>
						</rate>
						<start>22468</start>
						<end>22544</end>
						<in>534</in>
						<out>610</out>
						<sequence id="sequence-61"/>
							<marker>
								<comment>ￃﾥrhus, her var det mange punkter, tror det er totalt 135 punkter</comment>
								<name>ￃﾥr hus</name>
								<in>415</in>
								<out>-1</out>
							</marker>
							<marker>
								<comment>gir komplett bilde av trafikken ￃﾥrhus</comment>
								<name>gir komplett bilde av t</name>
								<in>697</in>
								<out>-1</out>
							</marker>
							<marker>
								<comment>overvￃﾥking av trafikk hva hjelper? Vi fￃﾥr bilde av hvordan folk reiser</comment>
								<name></name>
								<in>4906</in>
								<out>-1</out>
							</marker>
						<labels>
							<label2>Forest</label2>
						</labels>
					</clipitem>
					<clipitem id="clipitem-696" frameBlend="FALSE">
						<masterclipid>masterclip-141</masterclipid>
						<name>AA013501.MXFCowi varemesse multi</name>
						<enabled>TRUE</enabled>
						<duration>7968</duration>
						<rate>
							<timebase>25</timebase>
							<ntsc>FALSE</ntsc>
						</rate>
						<start>22544</start>
						<end>22602</end>
						<in>663</in>
						<out>721</out>
						<sequence id="sequence-59"/>
							<marker>
								<comment>ￃﾥrhus, her var det mange punkter, tror det er totalt 135 punkter</comment>
								<name>ￃﾥr hus</name>
								<in>415</in>
								<out>-1</out>
							</marker>
							<marker>
								<comment>gir komplett bilde av trafikken ￃﾥrhus</comment>
								<name>gir komplett bilde av t</name>
								<in>697</in>
								<out>-1</out>
							</marker>
							<marker>
								<comment>overvￃﾥking av trafikk hva hjelper? Vi fￃﾥr bilde av hvordan folk reiser</comment>
								<name></name>
								<in>4906</in>
								<out>-1</out>
							</marker>
						<labels>
							<label2>Forest</label2>
						</labels>
					</clipitem>
					<clipitem id="clipitem-697" frameBlend="FALSE">
						<masterclipid>masterclip-150</masterclipid>
						<name>mac3G.mov</name>
						<enabled>TRUE</enabled>
						<duration>320</duration>
						<rate>
							<timebase>25</timebase>
							<ntsc>FALSE</ntsc>
						</rate>
						<start>22602</start>
						<end>22857</end>
						<in>1</in>
						<out>256</out>
						<alphatype>none</alphatype>
						<pixelaspectratio>square</pixelaspectratio>
						<anamorphic>FALSE</anamorphic>
						<file id="file-134">
							<name>mac3G.mov</name>
							<pathurl>file://localhost/Volumes/Brakka/AdobeLager/Katta/Katta-14xxxx-Smart_eller_overvaaket-Chris/04-Grafikk/mac3G.mov</pathurl>
							<rate>
								<timebase>25</timebase>
								<ntsc>FALSE</ntsc>
							</rate>
							<duration>256</duration>
							<timecode>
								<rate>
									<timebase>25</timebase>
									<ntsc>FALSE</ntsc>
								</rate>
								<string>00:00:00:00</string>
								<frame>0</frame>
								<displayformat>NDF</displayformat>
								<reel>
									<name></name>
								</reel>
							</timecode>
							<media>
								<video>
									<duration>18000</duration>
									<samplecharacteristics>
										<rate>
											<timebase>25</timebase>
											<ntsc>FALSE</ntsc>
										</rate>
										<width>1920</width>
										<height>1080</height>
										<anamorphic>FALSE</anamorphic>
										<pixelaspectratio>square</pixelaspectratio>
										<fielddominance>upper</fielddominance>
									</samplecharacteristics>
								</video>
							</media>
						</file>
							<filter>
								<effect>
									<name>Time Remap</name>
									<effectid>timeremap</effectid>
									<effectcategory>motion</effectcategory>
									<effecttype>motion</effecttype>
									<mediatype>video</mediatype>
									<parameter authoringApp="PremierePro">
										<parameterid>variablespeed</parameterid>
										<name>variablespeed</name>
										<valuemin>0</valuemin>
										<valuemax>1</valuemax>
										<value>0</value>
									</parameter>
									<parameter authoringApp="PremierePro">
										<parameterid>mappedduration</parameterid>
										<name>mappedduration</name>
										<value>
											<timecode>
												<rate>
													<timebase>0</timebase>
												</rate>
												<string>0</string>
												<frame>0</frame>
												<displayformat>NDF</displayformat>
											</timecode>
										</value>
									</parameter>
									<parameter authoringApp="PremierePro">
										<parameterid>speed</parameterid>
										<name>speed</name>
										<valuemin>-100000</valuemin>
										<valuemax>100000</valuemax>
										<value>80</value>
									</parameter>
									<parameter authoringApp="PremierePro">
										<parameterid>reverse</parameterid>
										<name>reverse</name>
										<value>FALSE</value>
									</parameter>
									<parameter authoringApp="PremierePro">
										<parameterid>frameblending</parameterid>
										<name>frameblending</name>
										<value>FALSE</value>
									</parameter>
								</effect>
							</filter>
						<logginginfo>
							<description></description>
							<scene></scene>
							<shottake></shottake>
							<lognote></lognote>
						</logginginfo>
						<labels>
							<label2>Violet</label2>
						</labels>
					</clipitem>
					<clipitem id="clipitem-698" frameBlend="FALSE">
						<masterclipid>masterclip-151</masterclipid>
						<name>AA014101.MXFCowi varemesse multi</name>
						<enabled>TRUE</enabled>
						<duration>7263</duration>
						<rate>
							<timebase>25</timebase>
							<ntsc>FALSE</ntsc>
						</rate>
						<start>22857</start>
						<end>23001</end>
						<in>1228</in>
						<out>1372</out>
						<sequence id="sequence-69">
							<duration>150</duration>
							<rate>
								<timebase>25</timebase>
								<ntsc>FALSE</ntsc>
							</rate>
							<name>AA014101.MXFCowi varemesse multi-3</name>
							<media>
								<video>
									<format>
										<samplecharacteristics>
											<rate>
												<timebase>25</timebase>
												<ntsc>FALSE</ntsc>
											</rate>
											<codec>
												<name>Apple ProRes 422</name>
												<appspecificdata>
													<appname>Final Cut Pro</appname>
													<appmanufacturer>Apple Inc.</appmanufacturer>
													<appversion>7.0</appversion>
													<data>
														<qtcodec>
															<codecname>Apple ProRes 422</codecname>
															<codectypename>Apple ProRes 422</codectypename>
															<codectypecode>apcn</codectypecode>
															<codecvendorcode>appl</codecvendorcode>
															<spatialquality>1024</spatialquality>
															<temporalquality>0</temporalquality>
															<keyframerate>0</keyframerate>
															<datarate>0</datarate>
														</qtcodec>
													</data>
												</appspecificdata>
											</codec>
											<width>1920</width>
											<height>1080</height>
											<anamorphic>FALSE</anamorphic>
											<pixelaspectratio>square</pixelaspectratio>
											<fielddominance>none</fielddominance>
											<colordepth>24</colordepth>
										</samplecharacteristics>
									</format>
									<track TL.SQTrackShy="0" TL.SQTrackExpandedHeight="25" TL.SQTrackExpanded="0" MZ.TrackTargeted="0">
										<clipitem id="clipitem-707" frameBlend="FALSE">
											<masterclipid>masterclip-154</masterclipid>
											<name>MVI_0059.MOV</name>
											<enabled>TRUE</enabled>
											<duration>3721</duration>
											<rate>
												<timebase>25</timebase>
												<ntsc>FALSE</ntsc>
											</rate>
											<start>0</start>
											<end>3721</end>
											<in>0</in>
											<out>3721</out>
											<alphatype>black</alphatype>
											<file id="file-137"/>
											<logginginfo>
												<description></description>
												<scene></scene>
												<shottake></shottake>
												<lognote></lognote>
											</logginginfo>
											<labels>
												<label2>Iris</label2>
											</labels>
										</clipitem>
										<enabled>TRUE</enabled>
										<locked>FALSE</locked>
									</track>
								</video>
								<audio>
									<format>
										<samplecharacteristics>
											<depth>16</depth>
											<samplerate>48000</samplerate>
										</samplecharacteristics>
									</format>
									<outputs>
										<group>
											<index>1</index>
											<numchannels>1</numchannels>
											<downmix>0</downmix>
											<channel>
												<index>1</index>
											</channel>
										</group>
										<group>
											<index>2</index>
											<numchannels>1</numchannels>
											<downmix>0</downmix>
											<channel>
												<index>2</index>
											</channel>
										</group>
										<group>
											<index>3</index>
											<numchannels>1</numchannels>
											<downmix>0</downmix>
											<channel>
												<index>3</index>
											</channel>
										</group>
										<group>
											<index>4</index>
											<numchannels>1</numchannels>
											<downmix>0</downmix>
											<channel>
												<index>4</index>
											</channel>
										</group>
										<group>
											<index>5</index>
											<numchannels>1</numchannels>
											<downmix>0</downmix>
											<channel>
												<index>5</index>
											</channel>
										</group>
										<group>
											<index>6</index>
											<numchannels>1</numchannels>
											<downmix>0</downmix>
											<channel>
												<index>6</index>
											</channel>
										</group>
										<group>
											<index>7</index>
											<numchannels>1</numchannels>
											<downmix>0</downmix>
											<channel>
												<index>7</index>
											</channel>
										</group>
										<group>
											<index>8</index>
											<numchannels>1</numchannels>
											<downmix>0</downmix>
											<channel>
												<index>8</index>
											</channel>
										</group>
										<group>
											<index>9</index>
											<numchannels>1</numchannels>
											<downmix>0</downmix>
											<channel>
												<index>9</index>
											</channel>
										</group>
										<group>
											<index>10</index>
											<numchannels>1</numchannels>
											<downmix>0</downmix>
											<channel>
												<index>10</index>
											</channel>
										</group>
										<group>
											<index>11</index>
											<numchannels>1</numchannels>
											<downmix>0</downmix>
											<channel>
												<index>11</index>
											</channel>
										</group>
										<group>
											<index>12</index>
											<numchannels>1</numchannels>
											<downmix>0</downmix>
											<channel>
												<index>12</index>
											</channel>
										</group>
									</outputs>
									<track TL.SQTrackAudioKeyframeStyle="0" TL.SQTrackShy="0" TL.SQTrackExpandedHeight="25" TL.SQTrackExpanded="0" MZ.TrackTargeted="1" PannerCurrentValue="0.5" PannerIsInverted="true" PannerStartKeyframe="-91445760000000000,0.5,0,0,0,0,0,0" PannerName="Balance" currentExplodedTrackIndex="0" totalExplodedTrackCount="2" premiereTrackType="Stereo">
										<clipitem id="clipitem-705" frameBlend="FALSE" PannerCurrentValue="0.5" PannerKeyframes="" PannerStartKeyframe="-91445760000000000,0.5,0,0,0,0,0,0" PannerIsInverted="true" PannerName="Balance">
											<masterclipid>masterclip-154</masterclipid>
											<name>MVI_0059.MOV</name>
											<enabled>TRUE</enabled>
											<duration>3721</duration>
											<rate>
												<timebase>25</timebase>
												<ntsc>FALSE</ntsc>
											</rate>
											<start>0</start>
											<end>3721</end>
											<in>0</in>
											<out>3721</out>
											<pixelaspectratio>square</pixelaspectratio>
											<anamorphic>FALSE</anamorphic>
											<file id="file-137">
												<name>MVI_0059.MOV</name>
												<pathurl>file://localhost/Volumes/Brakka/AdobeLager/Katta/Katta-14xxxx-Smart_eller_overvaaket-Chris/02-Video/COWI%20Varemesse%205D/DCIM/100EOS5D/MVI_0059.MOV</pathurl>
												<rate>
													<timebase>25</timebase>
													<ntsc>FALSE</ntsc>
												</rate>
												<duration>3721</duration>
												<timecode>
													<rate>
														<timebase>25</timebase>
														<ntsc>FALSE</ntsc>
													</rate>
													<string>00:00:00:00</string>
													<frame>0</frame>
													<displayformat>NDF</displayformat>
													<reel>
														<name></name>
													</reel>
												</timecode>
												<media>
													<video>
														<duration>18000</duration>
														<samplecharacteristics>
															<rate>
																<timebase>25</timebase>
																<ntsc>FALSE</ntsc>
															</rate>
															<width>1920</width>
															<height>1080</height>
															<anamorphic>FALSE</anamorphic>
															<pixelaspectratio>square</pixelaspectratio>
															<fielddominance>none</fielddominance>
														</samplecharacteristics>
													</video>
													<audio>
														<samplecharacteristics>
															<depth>16</depth>
															<samplerate>48000</samplerate>
														</samplecharacteristics>
														<channelcount>2</channelcount>
													</audio>
												</media>
											</file>
											<sourcetrack>
												<mediatype>audio</mediatype>
												<trackindex>1</trackindex>
											</sourcetrack>
												<filter>
													<effect>
														<name>Audio Pan</name>
														<effectid>audiopan</effectid>
														<effectcategory>audiopan</effectcategory>
														<effecttype>audiopan</effecttype>
														<mediatype>audio</mediatype>
														<parameter authoringApp="PremierePro">
															<parameterid>pan</parameterid>
															<name>Pan</name>
															<valuemin>-1</valuemin>
															<valuemax>1</valuemax>
															<value>0</value>
														</parameter>
													</effect>
												</filter>
											<logginginfo>
												<description></description>
												<scene></scene>
												<shottake></shottake>
												<lognote></lognote>
											</logginginfo>
											<labels>
												<label2>Iris</label2>
											</labels>
										</clipitem>
										<enabled>TRUE</enabled>
										<locked>FALSE</locked>
										<outputchannelindex>5</outputchannelindex>
									</track>
									<track TL.SQTrackAudioKeyframeStyle="0" TL.SQTrackShy="0" TL.SQTrackExpandedHeight="25" TL.SQTrackExpanded="0" MZ.TrackTargeted="1" PannerCurrentValue="0.5" PannerIsInverted="true" PannerStartKeyframe="-91445760000000000,0.5,0,0,0,0,0,0" PannerName="Balance" currentExplodedTrackIndex="1" totalExplodedTrackCount="2" premiereTrackType="Stereo">
										<clipitem id="clipitem-706" frameBlend="FALSE" PannerCurrentValue="0.5" PannerKeyframes="" PannerStartKeyframe="-91445760000000000,0.5,0,0,0,0,0,0" PannerIsInverted="true" PannerName="Balance">
											<masterclipid>masterclip-154</masterclipid>
											<name>MVI_0059.MOV</name>
											<enabled>TRUE</enabled>
											<duration>3721</duration>
											<rate>
												<timebase>25</timebase>
												<ntsc>FALSE</ntsc>
											</rate>
											<start>0</start>
											<end>3721</end>
											<in>0</in>
											<out>3721</out>
											<file id="file-137"/>
											<sourcetrack>
												<mediatype>audio</mediatype>
												<trackindex>2</trackindex>
											</sourcetrack>
												<filter>
													<effect>
														<name>Audio Pan</name>
														<effectid>audiopan</effectid>
														<effectcategory>audiopan</effectcategory>
														<effecttype>audiopan</effecttype>
														<mediatype>audio</mediatype>
														<parameter authoringApp="PremierePro">
															<parameterid>pan</parameterid>
															<name>Pan</name>
															<valuemin>-1</valuemin>
															<valuemax>1</valuemax>
															<value>0</value>
														</parameter>
													</effect>
												</filter>
											<logginginfo>
												<description></description>
												<scene></scene>
												<shottake></shottake>
												<lognote></lognote>
											</logginginfo>
											<labels>
												<label2>Iris</label2>
											</labels>
										</clipitem>
										<enabled>TRUE</enabled>
										<locked>FALSE</locked>
										<outputchannelindex>6</outputchannelindex>
									</track>
								</audio>
							</media>
							<timecode>
								<rate>
									<timebase>25</timebase>
									<ntsc>FALSE</ntsc>
								</rate>
								<string>00:00:00:00</string>
								<frame>0</frame>
								<displayformat>NDF</displayformat>
							</timecode>
						</sequence>
						<link>
							<linkclipref>clipitem-698</linkclipref>
							<mediatype>video</mediatype>
							<trackindex>1</trackindex>
							<clipindex>199</clipindex>
						</link>
						<link>
							<linkclipref>clipitem-1164</linkclipref>
							<mediatype>audio</mediatype>
							<trackindex>1</trackindex>
							<clipindex>102</clipindex>
						</link>
						<labels>
							<label2>Forest</label2>
						</labels>
					</clipitem>
					<clipitem id="clipitem-711" frameBlend="FALSE">
						<masterclipid>masterclip-151</masterclipid>
						<name>AA014101.MXFCowi varemesse multi</name>
						<enabled>TRUE</enabled>
						<duration>7263</duration>
						<rate>
							<timebase>25</timebase>
							<ntsc>FALSE</ntsc>
						</rate>
						<start>23001</start>
						<end>23251</end>
						<in>6924</in>
						<out>7174</out>
						<labels>
							<label2>Forest</label2>
						</labels>
					</clipitem>
					<clipitem id="clipitem-712" frameBlend="FALSE">
						<masterclipid>masterclip-151</masterclipid>
						<name>AA014101.MXFCowi varemesse multi</name>
						<enabled>TRUE</enabled>
						<duration>7263</duration>
						<rate>
							<timebase>25</timebase>
							<ntsc>FALSE</ntsc>
						</rate>
						<start>23251</start>
						<end>23338</end>
						<in>6573</in>
						<out>6660</out>
						<sequence id="sequence-68">
							<duration>150</duration>
							<rate>
								<timebase>25</timebase>
								<ntsc>FALSE</ntsc>
							</rate>
							<name>AA014101.MXFCowi varemesse multi-2</name>
							<media>
								<video>
									<format>
										<samplecharacteristics>
											<rate>
												<timebase>25</timebase>
												<ntsc>FALSE</ntsc>
											</rate>
											<codec>
												<name>Apple ProRes 422</name>
												<appspecificdata>
													<appname>Final Cut Pro</appname>
													<appmanufacturer>Apple Inc.</appmanufacturer>
													<appversion>7.0</appversion>
													<data>
														<qtcodec>
															<codecname>Apple ProRes 422</codecname>
															<codectypename>Apple ProRes 422</codectypename>
															<codectypecode>apcn</codectypecode>
															<codecvendorcode>appl</codecvendorcode>
															<spatialquality>1024</spatialquality>
															<temporalquality>0</temporalquality>
															<keyframerate>0</keyframerate>
															<datarate>0</datarate>
														</qtcodec>
													</data>
												</appspecificdata>
											</codec>
											<width>1920</width>
											<height>1080</height>
											<anamorphic>FALSE</anamorphic>
											<pixelaspectratio>square</pixelaspectratio>
											<fielddominance>none</fielddominance>
											<colordepth>24</colordepth>
										</samplecharacteristics>
									</format>
									<track TL.SQTrackShy="0" TL.SQTrackExpandedHeight="25" TL.SQTrackExpanded="0" MZ.TrackTargeted="0">
										<clipitem id="clipitem-704" frameBlend="FALSE">
											<masterclipid>masterclip-153</masterclipid>
											<name>AA014201.MXF</name>
											<enabled>TRUE</enabled>
											<duration>5004</duration>
											<rate>
												<timebase>25</timebase>
												<ntsc>FALSE</ntsc>
											</rate>
											<start>2259</start>
											<end>7263</end>
											<in>0</in>
											<out>5004</out>
											<alphatype>none</alphatype>
											<file id="file-136"/>
											<logginginfo>
												<description></description>
												<scene></scene>
												<shottake>AA0142</shottake>
												<lognote></lognote>
											</logginginfo>
											<labels>
												<label2>Iris</label2>
											</labels>
										</clipitem>
										<enabled>TRUE</enabled>
										<locked>FALSE</locked>
									</track>
								</video>
								<audio>
									<format>
										<samplecharacteristics>
											<depth>16</depth>
											<samplerate>48000</samplerate>
										</samplecharacteristics>
									</format>
									<outputs>
										<group>
											<index>1</index>
											<numchannels>1</numchannels>
											<downmix>0</downmix>
											<channel>
												<index>1</index>
											</channel>
										</group>
										<group>
											<index>2</index>
											<numchannels>1</numchannels>
											<downmix>0</downmix>
											<channel>
												<index>2</index>
											</channel>
										</group>
										<group>
											<index>3</index>
											<numchannels>1</numchannels>
											<downmix>0</downmix>
											<channel>
												<index>3</index>
											</channel>
										</group>
										<group>
											<index>4</index>
											<numchannels>1</numchannels>
											<downmix>0</downmix>
											<channel>
												<index>4</index>
											</channel>
										</group>
										<group>
											<index>5</index>
											<numchannels>1</numchannels>
											<downmix>0</downmix>
											<channel>
												<index>5</index>
											</channel>
										</group>
										<group>
											<index>6</index>
											<numchannels>1</numchannels>
											<downmix>0</downmix>
											<channel>
												<index>6</index>
											</channel>
										</group>
										<group>
											<index>7</index>
											<numchannels>1</numchannels>
											<downmix>0</downmix>
											<channel>
												<index>7</index>
											</channel>
										</group>
										<group>
											<index>8</index>
											<numchannels>1</numchannels>
											<downmix>0</downmix>
											<channel>
												<index>8</index>
											</channel>
										</group>
										<group>
											<index>9</index>
											<numchannels>1</numchannels>
											<downmix>0</downmix>
											<channel>
												<index>9</index>
											</channel>
										</group>
										<group>
											<index>10</index>
											<numchannels>1</numchannels>
											<downmix>0</downmix>
											<channel>
												<index>10</index>
											</channel>
										</group>
										<group>
											<index>11</index>
											<numchannels>1</numchannels>
											<downmix>0</downmix>
											<channel>
												<index>11</index>
											</channel>
										</group>
										<group>
											<index>12</index>
											<numchannels>1</numchannels>
											<downmix>0</downmix>
											<channel>
												<index>12</index>
											</channel>
										</group>
									</outputs>
									<track TL.SQTrackAudioKeyframeStyle="0" TL.SQTrackShy="0" TL.SQTrackExpandedHeight="25" TL.SQTrackExpanded="0" MZ.TrackTargeted="1" PannerCurrentValue="0.5" PannerIsInverted="true" PannerStartKeyframe="-91445760000000000,0.5,0,0,0,0,0,0" PannerName="Balance" currentExplodedTrackIndex="0" totalExplodedTrackCount="2" premiereTrackType="Stereo">
										<clipitem id="clipitem-702" frameBlend="FALSE" PannerCurrentValue="0.5" PannerKeyframes="" PannerStartKeyframe="-91445760000000000,0.5,0,0,0,0,0,0" PannerIsInverted="true" PannerName="Balance">
											<masterclipid>masterclip-153</masterclipid>
											<name>AA014201.MXF</name>
											<enabled>TRUE</enabled>
											<duration>5004</duration>
											<rate>
												<timebase>25</timebase>
												<ntsc>FALSE</ntsc>
											</rate>
											<start>2259</start>
											<end>7263</end>
											<in>0</in>
											<out>5004</out>
											<pixelaspectratio>square</pixelaspectratio>
											<anamorphic>FALSE</anamorphic>
											<file id="file-136">
												<name>AA014201.MXF</name>
												<pathurl>file://localhost/Volumes/Brakka/AdobeLager/Katta/Katta-14xxxx-Smart_eller_overvaaket-Chris/02-Video/COWI%20Varemesse%20C300/CONTENTS/CLIPS001/AA0142/AA014201.MXF</pathurl>
												<rate>
													<timebase>25</timebase>
													<ntsc>FALSE</ntsc>
												</rate>
												<duration>5004</duration>
												<timecode>
													<rate>
														<timebase>25</timebase>
														<ntsc>FALSE</ntsc>
													</rate>
													<string>02:42:19:17</string>
													<frame>243492</frame>
													<displayformat>NDF</displayformat>
													<reel>
														<name></name>
													</reel>
												</timecode>
												<media>
													<video>
														<duration>18000</duration>
														<samplecharacteristics>
															<rate>
																<timebase>25</timebase>
																<ntsc>FALSE</ntsc>
															</rate>
															<width>1920</width>
															<height>1080</height>
															<anamorphic>FALSE</anamorphic>
															<pixelaspectratio>square</pixelaspectratio>
															<fielddominance>none</fielddominance>
														</samplecharacteristics>
													</video>
													<audio>
														<samplecharacteristics>
															<depth>16</depth>
															<samplerate>48000</samplerate>
														</samplecharacteristics>
														<channelcount>1</channelcount>
														<layout>mono</layout>
														<audiochannel>
															<sourcechannel>1</sourcechannel>
															<channellabel>discrete</channellabel>
														</audiochannel>
													</audio>
													<audio>
														<samplecharacteristics>
															<depth>16</depth>
															<samplerate>48000</samplerate>
														</samplecharacteristics>
														<channelcount>1</channelcount>
														<layout>mono</layout>
														<audiochannel>
															<sourcechannel>2</sourcechannel>
															<channellabel>discrete</channellabel>
														</audiochannel>
													</audio>
												</media>
											</file>
											<sourcetrack>
												<mediatype>audio</mediatype>
												<trackindex>1</trackindex>
											</sourcetrack>
												<filter>
													<effect>
														<name>Audio Pan</name>
														<effectid>audiopan</effectid>
														<effectcategory>audiopan</effectcategory>
														<effecttype>audiopan</effecttype>
														<mediatype>audio</mediatype>
														<parameter authoringApp="PremierePro">
															<parameterid>pan</parameterid>
															<name>Pan</name>
															<valuemin>-1</valuemin>
															<valuemax>1</valuemax>
															<value>0</value>
														</parameter>
													</effect>
												</filter>
											<logginginfo>
												<description></description>
												<scene></scene>
												<shottake>AA0142</shottake>
												<lognote></lognote>
											</logginginfo>
											<labels>
												<label2>Iris</label2>
											</labels>
										</clipitem>
										<enabled>TRUE</enabled>
										<locked>FALSE</locked>
										<outputchannelindex>3</outputchannelindex>
									</track>
									<track TL.SQTrackAudioKeyframeStyle="0" TL.SQTrackShy="0" TL.SQTrackExpandedHeight="25" TL.SQTrackExpanded="0" MZ.TrackTargeted="1" PannerCurrentValue="0.5" PannerIsInverted="true" PannerStartKeyframe="-91445760000000000,0.5,0,0,0,0,0,0" PannerName="Balance" currentExplodedTrackIndex="1" totalExplodedTrackCount="2" premiereTrackType="Stereo">
										<clipitem id="clipitem-703" frameBlend="FALSE" PannerCurrentValue="0.5" PannerKeyframes="" PannerStartKeyframe="-91445760000000000,0.5,0,0,0,0,0,0" PannerIsInverted="true" PannerName="Balance">
											<masterclipid>masterclip-153</masterclipid>
											<name>AA014201.MXF</name>
											<enabled>TRUE</enabled>
											<duration>5004</duration>
											<rate>
												<timebase>25</timebase>
												<ntsc>FALSE</ntsc>
											</rate>
											<start>2259</start>
											<end>7263</end>
											<in>0</in>
											<out>5004</out>
											<file id="file-136"/>
											<sourcetrack>
												<mediatype>audio</mediatype>
												<trackindex>2</trackindex>
											</sourcetrack>
												<filter>
													<effect>
														<name>Audio Pan</name>
														<effectid>audiopan</effectid>
														<effectcategory>audiopan</effectcategory>
														<effecttype>audiopan</effecttype>
														<mediatype>audio</mediatype>
														<parameter authoringApp="PremierePro">
															<parameterid>pan</parameterid>
															<name>Pan</name>
															<valuemin>-1</valuemin>
															<valuemax>1</valuemax>
															<value>0</value>
														</parameter>
													</effect>
												</filter>
											<logginginfo>
												<description></description>
												<scene></scene>
												<shottake>AA0142</shottake>
												<lognote></lognote>
											</logginginfo>
											<labels>
												<label2>Iris</label2>
											</labels>
										</clipitem>
										<enabled>TRUE</enabled>
										<locked>FALSE</locked>
										<outputchannelindex>4</outputchannelindex>
									</track>
								</audio>
							</media>
							<timecode>
								<rate>
									<timebase>25</timebase>
									<ntsc>FALSE</ntsc>
								</rate>
								<string>00:00:00:00</string>
								<frame>0</frame>
								<displayformat>NDF</displayformat>
							</timecode>
						</sequence>
						<link>
							<linkclipref>clipitem-712</linkclipref>
							<mediatype>video</mediatype>
							<trackindex>1</trackindex>
							<clipindex>201</clipindex>
						</link>
						<link>
							<linkclipref>clipitem-1185</linkclipref>
							<mediatype>audio</mediatype>
							<trackindex>1</trackindex>
							<clipindex>105</clipindex>
						</link>
						<link>
							<linkclipref>clipitem-1440</linkclipref>
							<mediatype>audio</mediatype>
							<trackindex>3</trackindex>
							<clipindex>87</clipindex>
						</link>
						<labels>
							<label2>Forest</label2>
						</labels>
					</clipitem>
					<clipitem id="clipitem-713" frameBlend="FALSE">
						<masterclipid>masterclip-151</masterclipid>
						<name>AA014101.MXFCowi varemesse multi</name>
						<enabled>TRUE</enabled>
						<duration>7263</duration>
						<rate>
							<timebase>25</timebase>
							<ntsc>FALSE</ntsc>
						</rate>
						<start>23338</start>
						<end>23448</end>
						<in>6667</in>
						<out>6777</out>
						<labels>
							<label2>Forest</label2>
						</labels>
					</clipitem>
					<clipitem id="clipitem-714" frameBlend="FALSE">
						<masterclipid>masterclip-151</masterclipid>
						<name>AA014101.MXFCowi varemesse multi</name>
						<enabled>TRUE</enabled>
						<duration>7263</duration>
						<rate>
							<timebase>25</timebase>
							<ntsc>FALSE</ntsc>
						</rate>
						<start>23448</start>
						<end>23618</end>
						<in>6794</in>
						<out>6964</out>
						<sequence id="sequence-68"/>
						<labels>
							<label2>Forest</label2>
						</labels>
					</clipitem>
					<clipitem id="clipitem-715" frameBlend="FALSE">
						<masterclipid>masterclip-156</masterclipid>
						<name>AA013701.MXFCowi varemesse multi</name>
						<enabled>TRUE</enabled>
						<duration>12814</duration>
						<rate>
							<timebase>25</timebase>
							<ntsc>FALSE</ntsc>
						</rate>
						<start>23618</start>
						<end>23811</end>
						<in>10559</in>
						<out>10752</out>
						<sequence id="sequence-73">
							<duration>150</duration>
							<rate>
								<timebase>25</timebase>
								<ntsc>FALSE</ntsc>
							</rate>
							<name>AA013701.MXFCowi varemesse multi-3</name>
							<media>
								<video>
									<format>
										<samplecharacteristics>
											<rate>
												<timebase>25</timebase>
												<ntsc>FALSE</ntsc>
											</rate>
											<codec>
												<name>Apple ProRes 422</name>
												<appspecificdata>
													<appname>Final Cut Pro</appname>
													<appmanufacturer>Apple Inc.</appmanufacturer>
													<appversion>7.0</appversion>
													<data>
														<qtcodec>
															<codecname>Apple ProRes 422</codecname>
															<codectypename>Apple ProRes 422</codectypename>
															<codectypecode>apcn</codectypecode>
															<codecvendorcode>appl</codecvendorcode>
															<spatialquality>1024</spatialquality>
															<temporalquality>0</temporalquality>
															<keyframerate>0</keyframerate>
															<datarate>0</datarate>
														</qtcodec>
													</data>
												</appspecificdata>
											</codec>
											<width>1920</width>
											<height>1080</height>
											<anamorphic>FALSE</anamorphic>
											<pixelaspectratio>square</pixelaspectratio>
											<fielddominance>none</fielddominance>
											<colordepth>24</colordepth>
										</samplecharacteristics>
									</format>
									<track TL.SQTrackShy="0" TL.SQTrackExpandedHeight="25" TL.SQTrackExpanded="0" MZ.TrackTargeted="0">
										<clipitem id="clipitem-724" frameBlend="FALSE">
											<masterclipid>masterclip-159</masterclipid>
											<name>MVI_0056.MOV</name>
											<enabled>TRUE</enabled>
											<duration>12718</duration>
											<rate>
												<timebase>25</timebase>
												<ntsc>FALSE</ntsc>
											</rate>
											<start>5</start>
											<end>12723</end>
											<in>0</in>
											<out>12718</out>
											<alphatype>black</alphatype>
											<file id="file-141"/>
											<logginginfo>
												<description></description>
												<scene></scene>
												<shottake></shottake>
												<lognote></lognote>
											</logginginfo>
											<labels>
												<label2>Iris</label2>
											</labels>
										</clipitem>
										<enabled>TRUE</enabled>
										<locked>FALSE</locked>
									</track>
								</video>
								<audio>
									<format>
										<samplecharacteristics>
											<depth>16</depth>
											<samplerate>48000</samplerate>
										</samplecharacteristics>
									</format>
									<outputs>
										<group>
											<index>1</index>
											<numchannels>1</numchannels>
											<downmix>0</downmix>
											<channel>
												<index>1</index>
											</channel>
										</group>
										<group>
											<index>2</index>
											<numchannels>1</numchannels>
											<downmix>0</downmix>
											<channel>
												<index>2</index>
											</channel>
										</group>
										<group>
											<index>3</index>
											<numchannels>1</numchannels>
											<downmix>0</downmix>
											<channel>
												<index>3</index>
											</channel>
										</group>
										<group>
											<index>4</index>
											<numchannels>1</numchannels>
											<downmix>0</downmix>
											<channel>
												<index>4</index>
											</channel>
										</group>
										<group>
											<index>5</index>
											<numchannels>1</numchannels>
											<downmix>0</downmix>
											<channel>
												<index>5</index>
											</channel>
										</group>
										<group>
											<index>6</index>
											<numchannels>1</numchannels>
											<downmix>0</downmix>
											<channel>
												<index>6</index>
											</channel>
										</group>
									</outputs>
									<track TL.SQTrackAudioKeyframeStyle="0" TL.SQTrackShy="0" TL.SQTrackExpandedHeight="25" TL.SQTrackExpanded="0" MZ.TrackTargeted="1" PannerCurrentValue="0.5" PannerIsInverted="true" PannerStartKeyframe="-91445760000000000,0.5,0,0,0,0,0,0" PannerName="Balance" currentExplodedTrackIndex="0" totalExplodedTrackCount="2" premiereTrackType="Stereo">
										<clipitem id="clipitem-722" frameBlend="FALSE" PannerCurrentValue="0.5" PannerKeyframes="" PannerStartKeyframe="-91445760000000000,0.5,0,0,0,0,0,0" PannerIsInverted="true" PannerName="Balance">
											<masterclipid>masterclip-159</masterclipid>
											<name>MVI_0056.MOV</name>
											<enabled>TRUE</enabled>
											<duration>12718</duration>
											<rate>
												<timebase>25</timebase>
												<ntsc>FALSE</ntsc>
											</rate>
											<start>5</start>
											<end>12723</end>
											<in>0</in>
											<out>12718</out>
											<pixelaspectratio>square</pixelaspectratio>
											<anamorphic>FALSE</anamorphic>
											<file id="file-141">
												<name>MVI_0056.MOV</name>
												<pathurl>file://localhost/Volumes/Brakka/AdobeLager/Katta/Katta-14xxxx-Smart_eller_overvaaket-Chris/02-Video/COWI%20Varemesse%205D/DCIM/100EOS5D/MVI_0056.MOV</pathurl>
												<rate>
													<timebase>25</timebase>
													<ntsc>FALSE</ntsc>
												</rate>
												<duration>12718</duration>
												<timecode>
													<rate>
														<timebase>25</timebase>
														<ntsc>FALSE</ntsc>
													</rate>
													<string>00:00:00:00</string>
													<frame>0</frame>
													<displayformat>NDF</displayformat>
													<reel>
														<name></name>
													</reel>
												</timecode>
												<media>
													<video>
														<duration>18000</duration>
														<samplecharacteristics>
															<rate>
																<timebase>25</timebase>
																<ntsc>FALSE</ntsc>
															</rate>
															<width>1920</width>
															<height>1080</height>
															<anamorphic>FALSE</anamorphic>
															<pixelaspectratio>square</pixelaspectratio>
															<fielddominance>none</fielddominance>
														</samplecharacteristics>
													</video>
													<audio>
														<samplecharacteristics>
															<depth>16</depth>
															<samplerate>48000</samplerate>
														</samplecharacteristics>
														<channelcount>2</channelcount>
													</audio>
												</media>
											</file>
											<sourcetrack>
												<mediatype>audio</mediatype>
												<trackindex>1</trackindex>
											</sourcetrack>
												<filter>
													<effect>
														<name>Audio Pan</name>
														<effectid>audiopan</effectid>
														<effectcategory>audiopan</effectcategory>
														<effecttype>audiopan</effecttype>
														<mediatype>audio</mediatype>
														<parameter authoringApp="PremierePro">
															<parameterid>pan</parameterid>
															<name>Pan</name>
															<valuemin>-1</valuemin>
															<valuemax>1</valuemax>
															<value>0</value>
														</parameter>
													</effect>
												</filter>
											<logginginfo>
												<description></description>
												<scene></scene>
												<shottake></shottake>
												<lognote></lognote>
											</logginginfo>
											<labels>
												<label2>Iris</label2>
											</labels>
										</clipitem>
										<enabled>TRUE</enabled>
										<locked>FALSE</locked>
										<outputchannelindex>5</outputchannelindex>
									</track>
									<track TL.SQTrackAudioKeyframeStyle="0" TL.SQTrackShy="0" TL.SQTrackExpandedHeight="25" TL.SQTrackExpanded="0" MZ.TrackTargeted="1" PannerCurrentValue="0.5" PannerIsInverted="true" PannerStartKeyframe="-91445760000000000,0.5,0,0,0,0,0,0" PannerName="Balance" currentExplodedTrackIndex="1" totalExplodedTrackCount="2" premiereTrackType="Stereo">
										<clipitem id="clipitem-723" frameBlend="FALSE" PannerCurrentValue="0.5" PannerKeyframes="" PannerStartKeyframe="-91445760000000000,0.5,0,0,0,0,0,0" PannerIsInverted="true" PannerName="Balance">
											<masterclipid>masterclip-159</masterclipid>
											<name>MVI_0056.MOV</name>
											<enabled>TRUE</enabled>
											<duration>12718</duration>
											<rate>
												<timebase>25</timebase>
												<ntsc>FALSE</ntsc>
											</rate>
											<start>5</start>
											<end>12723</end>
											<in>0</in>
											<out>12718</out>
											<file id="file-141"/>
											<sourcetrack>
												<mediatype>audio</mediatype>
												<trackindex>2</trackindex>
											</sourcetrack>
												<filter>
													<effect>
														<name>Audio Pan</name>
														<effectid>audiopan</effectid>
														<effectcategory>audiopan</effectcategory>
														<effecttype>audiopan</effecttype>
														<mediatype>audio</mediatype>
														<parameter authoringApp="PremierePro">
															<parameterid>pan</parameterid>
															<name>Pan</name>
															<valuemin>-1</valuemin>
															<valuemax>1</valuemax>
															<value>0</value>
														</parameter>
													</effect>
												</filter>
											<logginginfo>
												<description></description>
												<scene></scene>
												<shottake></shottake>
												<lognote></lognote>
											</logginginfo>
											<labels>
												<label2>Iris</label2>
											</labels>
										</clipitem>
										<enabled>TRUE</enabled>
										<locked>FALSE</locked>
										<outputchannelindex>6</outputchannelindex>
									</track>
								</audio>
							</media>
							<timecode>
								<rate>
									<timebase>25</timebase>
									<ntsc>FALSE</ntsc>
								</rate>
								<string>00:00:00:00</string>
								<frame>0</frame>
								<displayformat>NDF</displayformat>
							</timecode>
						</sequence>
							<marker>
								<comment>tror det kommer til norge</comment>
								<name>kommer det til norge?</name>
								<in>12671</in>
								<out>-1</out>
							</marker>
							<marker>
								<comment>for bypanlegging, men ogsￃﾥ politiet vil jo ha nytte av det</comment>
								<name>interssant</name>
								<in>10507</in>
								<out>-1</out>
							</marker>
							<marker>
								<comment>simcity</comment>
								<name>det er litt </name>
								<in>6978</in>
								<out>-1</out>
							</marker>
							<marker>
								<comment></comment>
								<name>lager man en gangvei, kanskej de gￃﾥr pￃﾥ en annen mￃﾥte</name>
								<in>6570</in>
								<out>-1</out>
							</marker>
							<marker>
								<comment>kan bse hvor folk gￃﾥr og bvilke deler av handlegata som er mest populￃﾦr</comment>
								<name>m</name>
								<in>1344</in>
								<out>-1</out>
							</marker>
						<link>
							<linkclipref>clipitem-715</linkclipref>
							<mediatype>video</mediatype>
							<trackindex>1</trackindex>
							<clipindex>204</clipindex>
						</link>
						<link>
							<linkclipref>clipitem-1186</linkclipref>
							<mediatype>audio</mediatype>
							<trackindex>1</trackindex>
							<clipindex>106</clipindex>
						</link>
						<link>
							<linkclipref>clipitem-1441</linkclipref>
							<mediatype>audio</mediatype>
							<trackindex>3</trackindex>
							<clipindex>88</clipindex>
						</link>
						<labels>
							<label2>Forest</label2>
						</labels>
					</clipitem>
					<clipitem id="clipitem-725" frameBlend="FALSE">
						<masterclipid>masterclip-156</masterclipid>
						<name>AA013701.MXFCowi varemesse multi</name>
						<enabled>TRUE</enabled>
						<duration>12814</duration>
						<rate>
							<timebase>25</timebase>
							<ntsc>FALSE</ntsc>
						</rate>
						<start>23811</start>
						<end>23836</end>
						<in>10752</in>
						<out>10777</out>
						<sequence id="sequence-72">
							<duration>150</duration>
							<rate>
								<timebase>25</timebase>
								<ntsc>FALSE</ntsc>
							</rate>
							<name>AA013701.MXFCowi varemesse multi-2</name>
							<media>
								<video>
									<format>
										<samplecharacteristics>
											<rate>
												<timebase>25</timebase>
												<ntsc>FALSE</ntsc>
											</rate>
											<codec>
												<name>Apple ProRes 422</name>
												<appspecificdata>
													<appname>Final Cut Pro</appname>
													<appmanufacturer>Apple Inc.</appmanufacturer>
													<appversion>7.0</appversion>
													<data>
														<qtcodec>
															<codecname>Apple ProRes 422</codecname>
															<codectypename>Apple ProRes 422</codectypename>
															<codectypecode>apcn</codectypecode>
															<codecvendorcode>appl</codecvendorcode>
															<spatialquality>1024</spatialquality>
															<temporalquality>0</temporalquality>
															<keyframerate>0</keyframerate>
															<datarate>0</datarate>
														</qtcodec>
													</data>
												</appspecificdata>
											</codec>
											<width>1920</width>
											<height>1080</height>
											<anamorphic>FALSE</anamorphic>
											<pixelaspectratio>square</pixelaspectratio>
											<fielddominance>none</fielddominance>
											<colordepth>24</colordepth>
										</samplecharacteristics>
									</format>
									<track TL.SQTrackShy="0" TL.SQTrackExpandedHeight="25" TL.SQTrackExpanded="0" MZ.TrackTargeted="0">
										<clipitem id="clipitem-721" frameBlend="FALSE">
											<masterclipid>masterclip-158</masterclipid>
											<name>AA013801.MXF</name>
											<enabled>TRUE</enabled>
											<duration>8472</duration>
											<rate>
												<timebase>25</timebase>
												<ntsc>FALSE</ntsc>
											</rate>
											<start>4342</start>
											<end>12814</end>
											<in>0</in>
											<out>8472</out>
											<alphatype>none</alphatype>
											<file id="file-140"/>
											<logginginfo>
												<description></description>
												<scene></scene>
												<shottake>AA0138</shottake>
												<lognote></lognote>
											</logginginfo>
											<labels>
												<label2>Iris</label2>
											</labels>
										</clipitem>
										<enabled>TRUE</enabled>
										<locked>FALSE</locked>
									</track>
								</video>
								<audio>
									<format>
										<samplecharacteristics>
											<depth>16</depth>
											<samplerate>48000</samplerate>
										</samplecharacteristics>
									</format>
									<outputs>
										<group>
											<index>1</index>
											<numchannels>1</numchannels>
											<downmix>0</downmix>
											<channel>
												<index>1</index>
											</channel>
										</group>
										<group>
											<index>2</index>
											<numchannels>1</numchannels>
											<downmix>0</downmix>
											<channel>
												<index>2</index>
											</channel>
										</group>
										<group>
											<index>3</index>
											<numchannels>1</numchannels>
											<downmix>0</downmix>
											<channel>
												<index>3</index>
											</channel>
										</group>
										<group>
											<index>4</index>
											<numchannels>1</numchannels>
											<downmix>0</downmix>
											<channel>
												<index>4</index>
											</channel>
										</group>
										<group>
											<index>5</index>
											<numchannels>1</numchannels>
											<downmix>0</downmix>
											<channel>
												<index>5</index>
											</channel>
										</group>
										<group>
											<index>6</index>
											<numchannels>1</numchannels>
											<downmix>0</downmix>
											<channel>
												<index>6</index>
											</channel>
										</group>
									</outputs>
									<track TL.SQTrackAudioKeyframeStyle="0" TL.SQTrackShy="0" TL.SQTrackExpandedHeight="25" TL.SQTrackExpanded="0" MZ.TrackTargeted="1" PannerCurrentValue="0.5" PannerIsInverted="true" PannerStartKeyframe="-91445760000000000,0.5,0,0,0,0,0,0" PannerName="Balance" currentExplodedTrackIndex="0" totalExplodedTrackCount="2" premiereTrackType="Stereo">
										<clipitem id="clipitem-719" frameBlend="FALSE" PannerCurrentValue="0.5" PannerKeyframes="" PannerStartKeyframe="-91445760000000000,0.5,0,0,0,0,0,0" PannerIsInverted="true" PannerName="Balance">
											<masterclipid>masterclip-158</masterclipid>
											<name>AA013801.MXF</name>
											<enabled>TRUE</enabled>
											<duration>8472</duration>
											<rate>
												<timebase>25</timebase>
												<ntsc>FALSE</ntsc>
											</rate>
											<start>4342</start>
											<end>12814</end>
											<in>0</in>
											<out>8472</out>
											<pixelaspectratio>square</pixelaspectratio>
											<anamorphic>FALSE</anamorphic>
											<file id="file-140">
												<name>AA013801.MXF</name>
												<pathurl>file://localhost/Volumes/Brakka/AdobeLager/Katta/Katta-14xxxx-Smart_eller_overvaaket-Chris/02-Video/COWI%20Varemesse%20C300/CONTENTS/CLIPS001/AA0138/AA013801.MXF</pathurl>
												<rate>
													<timebase>25</timebase>
													<ntsc>FALSE</ntsc>
												</rate>
												<duration>8472</duration>
												<timecode>
													<rate>
														<timebase>25</timebase>
														<ntsc>FALSE</ntsc>
													</rate>
													<string>02:27:08:04</string>
													<frame>220704</frame>
													<displayformat>NDF</displayformat>
													<reel>
														<name></name>
													</reel>
												</timecode>
												<media>
													<video>
														<duration>18000</duration>
														<samplecharacteristics>
															<rate>
																<timebase>25</timebase>
																<ntsc>FALSE</ntsc>
															</rate>
															<width>1920</width>
															<height>1080</height>
															<anamorphic>FALSE</anamorphic>
															<pixelaspectratio>square</pixelaspectratio>
															<fielddominance>none</fielddominance>
														</samplecharacteristics>
													</video>
													<audio>
														<samplecharacteristics>
															<depth>16</depth>
															<samplerate>48000</samplerate>
														</samplecharacteristics>
														<channelcount>2</channelcount>
													</audio>
												</media>
											</file>
											<sourcetrack>
												<mediatype>audio</mediatype>
												<trackindex>1</trackindex>
											</sourcetrack>
												<filter>
													<effect>
														<name>Audio Pan</name>
														<effectid>audiopan</effectid>
														<effectcategory>audiopan</effectcategory>
														<effecttype>audiopan</effecttype>
														<mediatype>audio</mediatype>
														<parameter authoringApp="PremierePro">
															<parameterid>pan</parameterid>
															<name>Pan</name>
															<valuemin>-1</valuemin>
															<valuemax>1</valuemax>
															<value>0</value>
														</parameter>
													</effect>
												</filter>
											<logginginfo>
												<description></description>
												<scene></scene>
												<shottake>AA0138</shottake>
												<lognote></lognote>
											</logginginfo>
											<labels>
												<label2>Iris</label2>
											</labels>
										</clipitem>
										<enabled>TRUE</enabled>
										<locked>FALSE</locked>
										<outputchannelindex>3</outputchannelindex>
									</track>
									<track TL.SQTrackAudioKeyframeStyle="0" TL.SQTrackShy="0" TL.SQTrackExpandedHeight="25" TL.SQTrackExpanded="0" MZ.TrackTargeted="1" PannerCurrentValue="0.5" PannerIsInverted="true" PannerStartKeyframe="-91445760000000000,0.5,0,0,0,0,0,0" PannerName="Balance" currentExplodedTrackIndex="1" totalExplodedTrackCount="2" premiereTrackType="Stereo">
										<clipitem id="clipitem-720" frameBlend="FALSE" PannerCurrentValue="0.5" PannerKeyframes="" PannerStartKeyframe="-91445760000000000,0.5,0,0,0,0,0,0" PannerIsInverted="true" PannerName="Balance">
											<masterclipid>masterclip-158</masterclipid>
											<name>AA013801.MXF</name>
											<enabled>TRUE</enabled>
											<duration>8472</duration>
											<rate>
												<timebase>25</timebase>
												<ntsc>FALSE</ntsc>
											</rate>
											<start>4342</start>
											<end>12814</end>
											<in>0</in>
											<out>8472</out>
											<file id="file-140"/>
											<sourcetrack>
												<mediatype>audio</mediatype>
												<trackindex>2</trackindex>
											</sourcetrack>
												<filter>
													<effect>
														<name>Audio Pan</name>
														<effectid>audiopan</effectid>
														<effectcategory>audiopan</effectcategory>
														<effecttype>audiopan</effecttype>
														<mediatype>audio</mediatype>
														<parameter authoringApp="PremierePro">
															<parameterid>pan</parameterid>
															<name>Pan</name>
															<valuemin>-1</valuemin>
															<valuemax>1</valuemax>
															<value>0</value>
														</parameter>
													</effect>
												</filter>
											<logginginfo>
												<description></description>
												<scene></scene>
												<shottake>AA0138</shottake>
												<lognote></lognote>
											</logginginfo>
											<labels>
												<label2>Iris</label2>
											</labels>
										</clipitem>
										<enabled>TRUE</enabled>
										<locked>FALSE</locked>
										<outputchannelindex>4</outputchannelindex>
									</track>
								</audio>
							</media>
							<timecode>
								<rate>
									<timebase>25</timebase>
									<ntsc>FALSE</ntsc>
								</rate>
								<string>00:00:00:00</string>
								<frame>0</frame>
								<displayformat>NDF</displayformat>
							</timecode>
						</sequence>
							<marker>
								<comment>tror det kommer til norge</comment>
								<name>kommer det til norge?</name>
								<in>12671</in>
								<out>-1</out>
							</marker>
							<marker>
								<comment>for bypanlegging, men ogsￃﾥ politiet vil jo ha nytte av det</comment>
								<name>interssant</name>
								<in>10507</in>
								<out>-1</out>
							</marker>
							<marker>
								<comment>simcity</comment>
								<name>det er litt </name>
								<in>6978</in>
								<out>-1</out>
							</marker>
							<marker>
								<comment></comment>
								<name>lager man en gangvei, kanskej de gￃﾥr pￃﾥ en annen mￃﾥte</name>
								<in>6570</in>
								<out>-1</out>
							</marker>
							<marker>
								<comment>kan bse hvor folk gￃﾥr og bvilke deler av handlegata som er mest populￃﾦr</comment>
								<name>m</name>
								<in>1344</in>
								<out>-1</out>
							</marker>
						<labels>
							<label2>Forest</label2>
						</labels>
					</clipitem>
					<clipitem id="clipitem-726" frameBlend="FALSE">
						<masterclipid>masterclip-156</masterclipid>
						<name>AA013701.MXFCowi varemesse multi</name>
						<enabled>TRUE</enabled>
						<duration>12814</duration>
						<rate>
							<timebase>25</timebase>
							<ntsc>FALSE</ntsc>
						</rate>
						<start>23836</start>
						<end>23864</end>
						<in>7737</in>
						<out>7765</out>
						<sequence id="sequence-72"/>
							<marker>
								<comment>tror det kommer til norge</comment>
								<name>kommer det til norge?</name>
								<in>12671</in>
								<out>-1</out>
							</marker>
							<marker>
								<comment>for bypanlegging, men ogsￃﾥ politiet vil jo ha nytte av det</comment>
								<name>interssant</name>
								<in>10507</in>
								<out>-1</out>
							</marker>
							<marker>
								<comment>simcity</comment>
								<name>det er litt </name>
								<in>6978</in>
								<out>-1</out>
							</marker>
							<marker>
								<comment></comment>
								<name>lager man en gangvei, kanskej de gￃﾥr pￃﾥ en annen mￃﾥte</name>
								<in>6570</in>
								<out>-1</out>
							</marker>
							<marker>
								<comment>kan bse hvor folk gￃﾥr og bvilke deler av handlegata som er mest populￃﾦr</comment>
								<name>m</name>
								<in>1344</in>
								<out>-1</out>
							</marker>
						<labels>
							<label2>Forest</label2>
						</labels>
					</clipitem>
					<clipitem id="clipitem-727" frameBlend="FALSE">
						<masterclipid>masterclip-160</masterclipid>
						<name>AA014301.MXFCowi varemesse multi</name>
						<enabled>TRUE</enabled>
						<duration>13167</duration>
						<rate>
							<timebase>25</timebase>
							<ntsc>FALSE</ntsc>
						</rate>
						<start>23864</start>
						<end>24116</end>
						<in>11856</in>
						<out>12108</out>
						<sequence id="sequence-78">
							<duration>150</duration>
							<rate>
								<timebase>25</timebase>
								<ntsc>FALSE</ntsc>
							</rate>
							<name>AA014301.MXFCowi varemesse multi-4</name>
							<media>
								<video>
									<format>
										<samplecharacteristics>
											<rate>
												<timebase>25</timebase>
												<ntsc>FALSE</ntsc>
											</rate>
											<codec>
												<name>Apple ProRes 422</name>
												<appspecificdata>
													<appname>Final Cut Pro</appname>
													<appmanufacturer>Apple Inc.</appmanufacturer>
													<appversion>7.0</appversion>
													<data>
														<qtcodec>
															<codecname>Apple ProRes 422</codecname>
															<codectypename>Apple ProRes 422</codectypename>
															<codectypecode>apcn</codectypecode>
															<codecvendorcode>appl</codecvendorcode>
															<spatialquality>1024</spatialquality>
															<temporalquality>0</temporalquality>
															<keyframerate>0</keyframerate>
															<datarate>0</datarate>
														</qtcodec>
													</data>
												</appspecificdata>
											</codec>
											<width>1920</width>
											<height>1080</height>
											<anamorphic>FALSE</anamorphic>
											<pixelaspectratio>square</pixelaspectratio>
											<fielddominance>none</fielddominance>
											<colordepth>24</colordepth>
										</samplecharacteristics>
									</format>
									<track>
										<clipitem id="clipitem-739" frameBlend="FALSE">
											<masterclipid>masterclip-164</masterclipid>
											<name>MVI_0063.MOV</name>
											<enabled>TRUE</enabled>
											<duration>9772</duration>
											<rate>
												<timebase>25</timebase>
												<ntsc>FALSE</ntsc>
											</rate>
											<start>3354</start>
											<end>13126</end>
											<in>0</in>
											<out>9772</out>
											<alphatype>black</alphatype>
											<file id="file-145"/>
											<logginginfo>
												<description></description>
												<scene></scene>
												<shottake></shottake>
												<lognote></lognote>
											</logginginfo>
											<labels>
												<label2>Iris</label2>
											</labels>
										</clipitem>
										<enabled>TRUE</enabled>
										<locked>FALSE</locked>
									</track>
								</video>
								<audio>
									<format>
										<samplecharacteristics>
											<depth>16</depth>
											<samplerate>48000</samplerate>
										</samplecharacteristics>
									</format>
									<outputs>
										<group>
											<index>1</index>
											<numchannels>1</numchannels>
											<downmix>0</downmix>
											<channel>
												<index>1</index>
											</channel>
										</group>
										<group>
											<index>2</index>
											<numchannels>1</numchannels>
											<downmix>0</downmix>
											<channel>
												<index>2</index>
											</channel>
										</group>
										<group>
											<index>3</index>
											<numchannels>1</numchannels>
											<downmix>0</downmix>
											<channel>
												<index>3</index>
											</channel>
										</group>
										<group>
											<index>4</index>
											<numchannels>1</numchannels>
											<downmix>0</downmix>
											<channel>
												<index>4</index>
											</channel>
										</group>
										<group>
											<index>5</index>
											<numchannels>1</numchannels>
											<downmix>0</downmix>
											<channel>
												<index>5</index>
											</channel>
										</group>
										<group>
											<index>6</index>
											<numchannels>1</numchannels>
											<downmix>0</downmix>
											<channel>
												<index>6</index>
											</channel>
										</group>
										<group>
											<index>7</index>
											<numchannels>1</numchannels>
											<downmix>0</downmix>
											<channel>
												<index>7</index>
											</channel>
										</group>
										<group>
											<index>8</index>
											<numchannels>1</numchannels>
											<downmix>0</downmix>
											<channel>
												<index>8</index>
											</channel>
										</group>
									</outputs>
									<track PannerCurrentValue="0.5" PannerIsInverted="true" PannerStartKeyframe="-91445760000000000,0.5,0,0,0,0,0,0" PannerName="Balance" currentExplodedTrackIndex="0" totalExplodedTrackCount="2" premiereTrackType="Stereo">
										<clipitem id="clipitem-737" frameBlend="FALSE" PannerCurrentValue="0.5" PannerKeyframes="" PannerStartKeyframe="-91445760000000000,0.5,0,0,0,0,0,0" PannerIsInverted="true" PannerName="Balance">
											<masterclipid>masterclip-164</masterclipid>
											<name>MVI_0063.MOV</name>
											<enabled>TRUE</enabled>
											<duration>9772</duration>
											<rate>
												<timebase>25</timebase>
												<ntsc>FALSE</ntsc>
											</rate>
											<start>3354</start>
											<end>13126</end>
											<in>0</in>
											<out>9772</out>
											<pixelaspectratio>square</pixelaspectratio>
											<anamorphic>FALSE</anamorphic>
											<file id="file-145">
												<name>MVI_0063.MOV</name>
												<pathurl>file://localhost/Volumes/Brakka/AdobeLager/Katta/Katta-14xxxx-Smart_eller_overvaaket-Chris/02-Video/COWI%20Varemesse%205D/DCIM/100EOS5D/MVI_0063.MOV</pathurl>
												<rate>
													<timebase>25</timebase>
													<ntsc>FALSE</ntsc>
												</rate>
												<duration>9772</duration>
												<timecode>
													<rate>
														<timebase>25</timebase>
														<ntsc>FALSE</ntsc>
													</rate>
													<string>00:00:00:00</string>
													<frame>0</frame>
													<displayformat>NDF</displayformat>
													<reel>
														<name></name>
													</reel>
												</timecode>
												<media>
													<video>
														<duration>18000</duration>
														<samplecharacteristics>
															<rate>
																<timebase>25</timebase>
																<ntsc>FALSE</ntsc>
															</rate>
															<width>1920</width>
															<height>1080</height>
															<anamorphic>FALSE</anamorphic>
															<pixelaspectratio>square</pixelaspectratio>
															<fielddominance>none</fielddominance>
														</samplecharacteristics>
													</video>
													<audio>
														<samplecharacteristics>
															<depth>16</depth>
															<samplerate>48000</samplerate>
														</samplecharacteristics>
														<channelcount>2</channelcount>
													</audio>
												</media>
											</file>
											<sourcetrack>
												<mediatype>audio</mediatype>
												<trackindex>1</trackindex>
											</sourcetrack>
												<filter>
													<effect>
														<name>Audio Pan</name>
														<effectid>audiopan</effectid>
														<effectcategory>audiopan</effectcategory>
														<effecttype>audiopan</effecttype>
														<mediatype>audio</mediatype>
														<parameter authoringApp="PremierePro">
															<parameterid>pan</parameterid>
															<name>Pan</name>
															<valuemin>-1</valuemin>
															<valuemax>1</valuemax>
															<value>0</value>
														</parameter>
													</effect>
												</filter>
											<logginginfo>
												<description></description>
												<scene></scene>
												<shottake></shottake>
												<lognote></lognote>
											</logginginfo>
											<labels>
												<label2>Iris</label2>
											</labels>
										</clipitem>
										<enabled>TRUE</enabled>
										<locked>FALSE</locked>
										<outputchannelindex>7</outputchannelindex>
									</track>
									<track PannerCurrentValue="0.5" PannerIsInverted="true" PannerStartKeyframe="-91445760000000000,0.5,0,0,0,0,0,0" PannerName="Balance" currentExplodedTrackIndex="1" totalExplodedTrackCount="2" premiereTrackType="Stereo">
										<clipitem id="clipitem-738" frameBlend="FALSE" PannerCurrentValue="0.5" PannerKeyframes="" PannerStartKeyframe="-91445760000000000,0.5,0,0,0,0,0,0" PannerIsInverted="true" PannerName="Balance">
											<masterclipid>masterclip-164</masterclipid>
											<name>MVI_0063.MOV</name>
											<enabled>TRUE</enabled>
											<duration>9772</duration>
											<rate>
												<timebase>25</timebase>
												<ntsc>FALSE</ntsc>
											</rate>
											<start>3354</start>
											<end>13126</end>
											<in>0</in>
											<out>9772</out>
											<file id="file-145"/>
											<sourcetrack>
												<mediatype>audio</mediatype>
												<trackindex>2</trackindex>
											</sourcetrack>
												<filter>
													<effect>
														<name>Audio Pan</name>
														<effectid>audiopan</effectid>
														<effectcategory>audiopan</effectcategory>
														<effecttype>audiopan</effecttype>
														<mediatype>audio</mediatype>
														<parameter authoringApp="PremierePro">
															<parameterid>pan</parameterid>
															<name>Pan</name>
															<valuemin>-1</valuemin>
															<valuemax>1</valuemax>
															<value>0</value>
														</parameter>
													</effect>
												</filter>
											<logginginfo>
												<description></description>
												<scene></scene>
												<shottake></shottake>
												<lognote></lognote>
											</logginginfo>
											<labels>
												<label2>Iris</label2>
											</labels>
										</clipitem>
										<enabled>TRUE</enabled>
										<locked>FALSE</locked>
										<outputchannelindex>8</outputchannelindex>
									</track>
								</audio>
							</media>
							<timecode>
								<rate>
									<timebase>25</timebase>
									<ntsc>FALSE</ntsc>
								</rate>
								<string>00:00:00:00</string>
								<frame>0</frame>
								<displayformat>NDF</displayformat>
							</timecode>
						</sequence>
							<marker>
								<comment>disse 100 mobiltelefonene oppfￃﾸrer seg</comment>
								<name></name>
								<in>9972</in>
								<out>-1</out>
							</marker>
							<marker>
								<comment>handler om strￃﾸmmer ikke enkeltpersoner</comment>
								<name></name>
								<in>6806</in>
								<out>-1</out>
							</marker>
							<marker>
								<comment>ￃﾸnsker man det, sￃﾥ gￃﾥr det</comment>
								<name></name>
								<in>10306</in>
								<out>-1</out>
							</marker>
							<marker>
								<comment>kan vￃﾦre interessant for andre, det kan godt vￃﾦre</comment>
								<name></name>
								<in>7307</in>
								<out>-1</out>
							</marker>
							<marker>
								<comment>interessant ￃﾥ spore folk</comment>
								<name></name>
								<in>8496</in>
								<out>-1</out>
							</marker>
							<marker>
								<comment>kan overvￃﾥke samme mobil eller gi ny identitet hver gang </comment>
								<name></name>
								<in>4991</in>
								<out>-1</out>
							</marker>
							<marker>
								<comment></comment>
								<name></name>
								<in>8478</in>
								<out>-1</out>
							</marker>
							<marker>
								<comment>du kan fￃﾥ ny id, ser enhetne, men ikek at deter deg</comment>
								<name></name>
								<in>4604</in>
								<out>-1</out>
							</marker>
							<marker>
								<comment></comment>
								<name></name>
								<in>8474</in>
								<out>-1</out>
							</marker>
							<marker>
								<comment>ser enheten, men ikke deg, og det er kryptert</comment>
								<name>man ser </name>
								<in>2161</in>
								<out>-1</out>
							</marker>
							<marker>
								<comment>da er det fￃﾸlelser av overvￃﾥking</comment>
								<name></name>
								<in>10547</in>
								<out>-1</out>
							</marker>
						<labels>
							<label2>Forest</label2>
						</labels>
					</clipitem>
					<clipitem id="clipitem-740" frameBlend="FALSE">
						<masterclipid>masterclip-160</masterclipid>
						<name>AA014301.MXFCowi varemesse multi</name>
						<enabled>TRUE</enabled>
						<duration>13167</duration>
						<rate>
							<timebase>25</timebase>
							<ntsc>FALSE</ntsc>
						</rate>
						<start>24116</start>
						<end>24528</end>
						<in>12108</in>
						<out>12520</out>
						<sequence id="sequence-76">
							<duration>150</duration>
							<rate>
								<timebase>25</timebase>
								<ntsc>FALSE</ntsc>
							</rate>
							<name>AA014301.MXFCowi varemesse multi-2</name>
							<media>
								<video>
									<format>
										<samplecharacteristics>
											<rate>
												<timebase>25</timebase>
												<ntsc>FALSE</ntsc>
											</rate>
											<codec>
												<name>Apple ProRes 422</name>
												<appspecificdata>
													<appname>Final Cut Pro</appname>
													<appmanufacturer>Apple Inc.</appmanufacturer>
													<appversion>7.0</appversion>
													<data>
														<qtcodec>
															<codecname>Apple ProRes 422</codecname>
															<codectypename>Apple ProRes 422</codectypename>
															<codectypecode>apcn</codectypecode>
															<codecvendorcode>appl</codecvendorcode>
															<spatialquality>1024</spatialquality>
															<temporalquality>0</temporalquality>
															<keyframerate>0</keyframerate>
															<datarate>0</datarate>
														</qtcodec>
													</data>
												</appspecificdata>
											</codec>
											<width>1920</width>
											<height>1080</height>
											<anamorphic>FALSE</anamorphic>
											<pixelaspectratio>square</pixelaspectratio>
											<fielddominance>none</fielddominance>
											<colordepth>24</colordepth>
										</samplecharacteristics>
									</format>
									<track>
										<clipitem id="clipitem-733" frameBlend="FALSE">
											<masterclipid>masterclip-162</masterclipid>
											<name>AA014401.MXF</name>
											<enabled>TRUE</enabled>
											<duration>1524</duration>
											<rate>
												<timebase>25</timebase>
												<ntsc>FALSE</ntsc>
											</rate>
											<start>11643</start>
											<end>13167</end>
											<in>0</in>
											<out>1524</out>
											<alphatype>none</alphatype>
											<file id="file-143"/>
											<logginginfo>
												<description></description>
												<scene></scene>
												<shottake>AA0144</shottake>
												<lognote></lognote>
											</logginginfo>
											<labels>
												<label2>Iris</label2>
											</labels>
										</clipitem>
										<enabled>TRUE</enabled>
										<locked>FALSE</locked>
									</track>
								</video>
								<audio>
									<format>
										<samplecharacteristics>
											<depth>16</depth>
											<samplerate>48000</samplerate>
										</samplecharacteristics>
									</format>
									<outputs>
										<group>
											<index>1</index>
											<numchannels>1</numchannels>
											<downmix>0</downmix>
											<channel>
												<index>1</index>
											</channel>
										</group>
										<group>
											<index>2</index>
											<numchannels>1</numchannels>
											<downmix>0</downmix>
											<channel>
												<index>2</index>
											</channel>
										</group>
										<group>
											<index>3</index>
											<numchannels>1</numchannels>
											<downmix>0</downmix>
											<channel>
												<index>3</index>
											</channel>
										</group>
										<group>
											<index>4</index>
											<numchannels>1</numchannels>
											<downmix>0</downmix>
											<channel>
												<index>4</index>
											</channel>
										</group>
										<group>
											<index>5</index>
											<numchannels>1</numchannels>
											<downmix>0</downmix>
											<channel>
												<index>5</index>
											</channel>
										</group>
										<group>
											<index>6</index>
											<numchannels>1</numchannels>
											<downmix>0</downmix>
											<channel>
												<index>6</index>
											</channel>
										</group>
										<group>
											<index>7</index>
											<numchannels>1</numchannels>
											<downmix>0</downmix>
											<channel>
												<index>7</index>
											</channel>
										</group>
										<group>
											<index>8</index>
											<numchannels>1</numchannels>
											<downmix>0</downmix>
											<channel>
												<index>8</index>
											</channel>
										</group>
									</outputs>
									<track TL.SQTrackExpandedHeight="25" TL.SQTrackExpanded="0" MZ.TrackTargeted="1" PannerCurrentValue="0.5" PannerIsInverted="true" PannerStartKeyframe="-91445760000000000,0.5,0,0,0,0,0,0" PannerName="Balance" currentExplodedTrackIndex="0" totalExplodedTrackCount="2" premiereTrackType="Stereo">
										<clipitem id="clipitem-731" frameBlend="FALSE" PannerCurrentValue="0.5" PannerKeyframes="" PannerStartKeyframe="-91445760000000000,0.5,0,0,0,0,0,0" PannerIsInverted="true" PannerName="Balance">
											<masterclipid>masterclip-162</masterclipid>
											<name>AA014401.MXF</name>
											<enabled>TRUE</enabled>
											<duration>1524</duration>
											<rate>
												<timebase>25</timebase>
												<ntsc>FALSE</ntsc>
											</rate>
											<start>11643</start>
											<end>13167</end>
											<in>0</in>
											<out>1524</out>
											<pixelaspectratio>square</pixelaspectratio>
											<anamorphic>FALSE</anamorphic>
											<file id="file-143">
												<name>AA014401.MXF</name>
												<pathurl>file://localhost/Volumes/Brakka/AdobeLager/Katta/Katta-14xxxx-Smart_eller_overvaaket-Chris/02-Video/COWI%20Varemesse%20C300/CONTENTS/CLIPS001/AA0144/AA014401.MXF</pathurl>
												<rate>
													<timebase>25</timebase>
													<ntsc>FALSE</ntsc>
												</rate>
												<duration>1524</duration>
												<timecode>
													<rate>
														<timebase>25</timebase>
														<ntsc>FALSE</ntsc>
													</rate>
													<string>02:53:12:24</string>
													<frame>259824</frame>
													<displayformat>NDF</displayformat>
													<reel>
														<name></name>
													</reel>
												</timecode>
												<media>
													<video>
														<duration>18000</duration>
														<samplecharacteristics>
															<rate>
																<timebase>25</timebase>
																<ntsc>FALSE</ntsc>
															</rate>
															<width>1920</width>
															<height>1080</height>
															<anamorphic>FALSE</anamorphic>
															<pixelaspectratio>square</pixelaspectratio>
															<fielddominance>none</fielddominance>
														</samplecharacteristics>
													</video>
													<audio>
														<samplecharacteristics>
															<depth>16</depth>
															<samplerate>48000</samplerate>
														</samplecharacteristics>
														<channelcount>2</channelcount>
													</audio>
												</media>
											</file>
											<sourcetrack>
												<mediatype>audio</mediatype>
												<trackindex>1</trackindex>
											</sourcetrack>
												<filter>
													<effect>
														<name>Audio Pan</name>
														<effectid>audiopan</effectid>
														<effectcategory>audiopan</effectcategory>
														<effecttype>audiopan</effecttype>
														<mediatype>audio</mediatype>
														<parameter authoringApp="PremierePro">
															<parameterid>pan</parameterid>
															<name>Pan</name>
															<valuemin>-1</valuemin>
															<valuemax>1</valuemax>
															<value>0</value>
														</parameter>
													</effect>
												</filter>
											<logginginfo>
												<description></description>
												<scene></scene>
												<shottake>AA0144</shottake>
												<lognote></lognote>
											</logginginfo>
											<labels>
												<label2>Iris</label2>
											</labels>
										</clipitem>
										<enabled>TRUE</enabled>
										<locked>FALSE</locked>
										<outputchannelindex>3</outputchannelindex>
									</track>
									<track TL.SQTrackExpandedHeight="25" TL.SQTrackExpanded="0" MZ.TrackTargeted="1" PannerCurrentValue="0.5" PannerIsInverted="true" PannerStartKeyframe="-91445760000000000,0.5,0,0,0,0,0,0" PannerName="Balance" currentExplodedTrackIndex="1" totalExplodedTrackCount="2" premiereTrackType="Stereo">
										<clipitem id="clipitem-732" frameBlend="FALSE" PannerCurrentValue="0.5" PannerKeyframes="" PannerStartKeyframe="-91445760000000000,0.5,0,0,0,0,0,0" PannerIsInverted="true" PannerName="Balance">
											<masterclipid>masterclip-162</masterclipid>
											<name>AA014401.MXF</name>
											<enabled>TRUE</enabled>
											<duration>1524</duration>
											<rate>
												<timebase>25</timebase>
												<ntsc>FALSE</ntsc>
											</rate>
											<start>11643</start>
											<end>13167</end>
											<in>0</in>
											<out>1524</out>
											<file id="file-143"/>
											<sourcetrack>
												<mediatype>audio</mediatype>
												<trackindex>2</trackindex>
											</sourcetrack>
												<filter>
													<effect>
														<name>Audio Pan</name>
														<effectid>audiopan</effectid>
														<effectcategory>audiopan</effectcategory>
														<effecttype>audiopan</effecttype>
														<mediatype>audio</mediatype>
														<parameter authoringApp="PremierePro">
															<parameterid>pan</parameterid>
															<name>Pan</name>
															<valuemin>-1</valuemin>
															<valuemax>1</valuemax>
															<value>0</value>
														</parameter>
													</effect>
												</filter>
											<logginginfo>
												<description></description>
												<scene></scene>
												<shottake>AA0144</shottake>
												<lognote></lognote>
											</logginginfo>
											<labels>
												<label2>Iris</label2>
											</labels>
										</clipitem>
										<enabled>TRUE</enabled>
										<locked>FALSE</locked>
										<outputchannelindex>4</outputchannelindex>
									</track>
								</audio>
							</media>
							<timecode>
								<rate>
									<timebase>25</timebase>
									<ntsc>FALSE</ntsc>
								</rate>
								<string>00:00:00:00</string>
								<frame>0</frame>
								<displayformat>NDF</displayformat>
							</timecode>
						</sequence>
							<marker>
								<comment>disse 100 mobiltelefonene oppfￃﾸrer seg</comment>
								<name></name>
								<in>9972</in>
								<out>-1</out>
							</marker>
							<marker>
								<comment>handler om strￃﾸmmer ikke enkeltpersoner</comment>
								<name></name>
								<in>6806</in>
								<out>-1</out>
							</marker>
							<marker>
								<comment>ￃﾸnsker man det, sￃﾥ gￃﾥr det</comment>
								<name></name>
								<in>10306</in>
								<out>-1</out>
							</marker>
							<marker>
								<comment>kan vￃﾦre interessant for andre, det kan godt vￃﾦre</comment>
								<name></name>
								<in>7307</in>
								<out>-1</out>
							</marker>
							<marker>
								<comment>interessant ￃﾥ spore folk</comment>
								<name></name>
								<in>8496</in>
								<out>-1</out>
							</marker>
							<marker>
								<comment>kan overvￃﾥke samme mobil eller gi ny identitet hver gang </comment>
								<name></name>
								<in>4991</in>
								<out>-1</out>
							</marker>
							<marker>
								<comment></comment>
								<name></name>
								<in>8478</in>
								<out>-1</out>
							</marker>
							<marker>
								<comment>du kan fￃﾥ ny id, ser enhetne, men ikek at deter deg</comment>
								<name></name>
								<in>4604</in>
								<out>-1</out>
							</marker>
							<marker>
								<comment></comment>
								<name></name>
								<in>8474</in>
								<out>-1</out>
							</marker>
							<marker>
								<comment>ser enheten, men ikke deg, og det er kryptert</comment>
								<name>man ser </name>
								<in>2161</in>
								<out>-1</out>
							</marker>
							<marker>
								<comment>da er det fￃﾸlelser av overvￃﾥking</comment>
								<name></name>
								<in>10547</in>
								<out>-1</out>
							</marker>
						<labels>
							<label2>Forest</label2>
						</labels>
					</clipitem>
					<clipitem id="clipitem-741" frameBlend="FALSE">
						<masterclipid>masterclip-160</masterclipid>
						<name>AA014301.MXFCowi varemesse multi</name>
						<enabled>TRUE</enabled>
						<duration>13167</duration>
						<rate>
							<timebase>25</timebase>
							<ntsc>FALSE</ntsc>
						</rate>
						<start>24528</start>
						<end>24555</end>
						<in>12520</in>
						<out>12547</out>
						<sequence id="sequence-78"/>
							<marker>
								<comment>disse 100 mobiltelefonene oppfￃﾸrer seg</comment>
								<name></name>
								<in>9972</in>
								<out>-1</out>
							</marker>
							<marker>
								<comment>handler om strￃﾸmmer ikke enkeltpersoner</comment>
								<name></name>
								<in>6806</in>
								<out>-1</out>
							</marker>
							<marker>
								<comment>ￃﾸnsker man det, sￃﾥ gￃﾥr det</comment>
								<name></name>
								<in>10306</in>
								<out>-1</out>
							</marker>
							<marker>
								<comment>kan vￃﾦre interessant for andre, det kan godt vￃﾦre</comment>
								<name></name>
								<in>7307</in>
								<out>-1</out>
							</marker>
							<marker>
								<comment>interessant ￃﾥ spore folk</comment>
								<name></name>
								<in>8496</in>
								<out>-1</out>
							</marker>
							<marker>
								<comment>kan overvￃﾥke samme mobil eller gi ny identitet hver gang </comment>
								<name></name>
								<in>4991</in>
								<out>-1</out>
							</marker>
							<marker>
								<comment></comment>
								<name></name>
								<in>8478</in>
								<out>-1</out>
							</marker>
							<marker>
								<comment>du kan fￃﾥ ny id, ser enhetne, men ikek at deter deg</comment>
								<name></name>
								<in>4604</in>
								<out>-1</out>
							</marker>
							<marker>
								<comment></comment>
								<name></name>
								<in>8474</in>
								<out>-1</out>
							</marker>
							<marker>
								<comment>ser enheten, men ikke deg, og det er kryptert</comment>
								<name>man ser </name>
								<in>2161</in>
								<out>-1</out>
							</marker>
							<marker>
								<comment>da er det fￃﾸlelser av overvￃﾥking</comment>
								<name></name>
								<in>10547</in>
								<out>-1</out>
							</marker>
						<labels>
							<label2>Forest</label2>
						</labels>
					</clipitem>
					<clipitem id="clipitem-742" frameBlend="FALSE">
						<masterclipid>masterclip-160</masterclipid>
						<name>AA014301.MXFCowi varemesse multi</name>
						<enabled>TRUE</enabled>
						<duration>13167</duration>
						<rate>
							<timebase>25</timebase>
							<ntsc>FALSE</ntsc>
						</rate>
						<start>24555</start>
						<end>24651</end>
						<in>6596</in>
						<out>6692</out>
						<sequence id="sequence-78"/>
							<marker>
								<comment>disse 100 mobiltelefonene oppfￃﾸrer seg</comment>
								<name></name>
								<in>9972</in>
								<out>-1</out>
							</marker>
							<marker>
								<comment>handler om strￃﾸmmer ikke enkeltpersoner</comment>
								<name></name>
								<in>6806</in>
								<out>-1</out>
							</marker>
							<marker>
								<comment>ￃﾸnsker man det, sￃﾥ gￃﾥr det</comment>
								<name></name>
								<in>10306</in>
								<out>-1</out>
							</marker>
							<marker>
								<comment>kan vￃﾦre interessant for andre, det kan godt vￃﾦre</comment>
								<name></name>
								<in>7307</in>
								<out>-1</out>
							</marker>
							<marker>
								<comment>interessant ￃﾥ spore folk</comment>
								<name></name>
								<in>8496</in>
								<out>-1</out>
							</marker>
							<marker>
								<comment>kan overvￃﾥke samme mobil eller gi ny identitet hver gang </comment>
								<name></name>
								<in>4991</in>
								<out>-1</out>
							</marker>
							<marker>
								<comment></comment>
								<name></name>
								<in>8478</in>
								<out>-1</out>
							</marker>
							<marker>
								<comment>du kan fￃﾥ ny id, ser enhetne, men ikek at deter deg</comment>
								<name></name>
								<in>4604</in>
								<out>-1</out>
							</marker>
							<marker>
								<comment></comment>
								<name></name>
								<in>8474</in>
								<out>-1</out>
							</marker>
							<marker>
								<comment>ser enheten, men ikke deg, og det er kryptert</comment>
								<name>man ser </name>
								<in>2161</in>
								<out>-1</out>
							</marker>
							<marker>
								<comment>da er det fￃﾸlelser av overvￃﾥking</comment>
								<name></name>
								<in>10547</in>
								<out>-1</out>
							</marker>
						<labels>
							<label2>Forest</label2>
						</labels>
					</clipitem>
					<clipitem id="clipitem-743" frameBlend="FALSE">
						<masterclipid>masterclip-160</masterclipid>
						<name>AA014301.MXFCowi varemesse multi</name>
						<enabled>TRUE</enabled>
						<duration>13167</duration>
						<rate>
							<timebase>25</timebase>
							<ntsc>FALSE</ntsc>
						</rate>
						<start>24651</start>
						<end>24699</end>
						<in>7131</in>
						<out>7179</out>
						<sequence id="sequence-75">
							<duration>150</duration>
							<rate>
								<timebase>25</timebase>
								<ntsc>FALSE</ntsc>
							</rate>
							<name>AA014301.MXFCowi varemesse multi-1</name>
							<media>
								<video>
									<format>
										<samplecharacteristics>
											<rate>
												<timebase>25</timebase>
												<ntsc>FALSE</ntsc>
											</rate>
											<codec>
												<name>Apple ProRes 422</name>
												<appspecificdata>
													<appname>Final Cut Pro</appname>
													<appmanufacturer>Apple Inc.</appmanufacturer>
													<appversion>7.0</appversion>
													<data>
														<qtcodec>
															<codecname>Apple ProRes 422</codecname>
															<codectypename>Apple ProRes 422</codectypename>
															<codectypecode>apcn</codectypecode>
															<codecvendorcode>appl</codecvendorcode>
															<spatialquality>1024</spatialquality>
															<temporalquality>0</temporalquality>
															<keyframerate>0</keyframerate>
															<datarate>0</datarate>
														</qtcodec>
													</data>
												</appspecificdata>
											</codec>
											<width>1920</width>
											<height>1080</height>
											<anamorphic>FALSE</anamorphic>
											<pixelaspectratio>square</pixelaspectratio>
											<fielddominance>none</fielddominance>
											<colordepth>24</colordepth>
										</samplecharacteristics>
									</format>
									<track>
										<clipitem id="clipitem-730" frameBlend="FALSE">
											<masterclipid>masterclip-161</masterclipid>
											<name>AA014301.MXF</name>
											<enabled>TRUE</enabled>
											<duration>11328</duration>
											<rate>
												<timebase>25</timebase>
												<ntsc>FALSE</ntsc>
											</rate>
											<start>0</start>
											<end>11328</end>
											<in>0</in>
											<out>11328</out>
											<alphatype>none</alphatype>
											<file id="file-142"/>
											<logginginfo>
												<description></description>
												<scene></scene>
												<shottake>AA0143</shottake>
												<lognote></lognote>
											</logginginfo>
											<labels>
												<label2>Iris</label2>
											</labels>
										</clipitem>
										<enabled>TRUE</enabled>
										<locked>FALSE</locked>
									</track>
								</video>
								<audio>
									<format>
										<samplecharacteristics>
											<depth>16</depth>
											<samplerate>48000</samplerate>
										</samplecharacteristics>
									</format>
									<outputs>
										<group>
											<index>1</index>
											<numchannels>1</numchannels>
											<downmix>0</downmix>
											<channel>
												<index>1</index>
											</channel>
										</group>
										<group>
											<index>2</index>
											<numchannels>1</numchannels>
											<downmix>0</downmix>
											<channel>
												<index>2</index>
											</channel>
										</group>
										<group>
											<index>3</index>
											<numchannels>1</numchannels>
											<downmix>0</downmix>
											<channel>
												<index>3</index>
											</channel>
										</group>
										<group>
											<index>4</index>
											<numchannels>1</numchannels>
											<downmix>0</downmix>
											<channel>
												<index>4</index>
											</channel>
										</group>
										<group>
											<index>5</index>
											<numchannels>1</numchannels>
											<downmix>0</downmix>
											<channel>
												<index>5</index>
											</channel>
										</group>
										<group>
											<index>6</index>
											<numchannels>1</numchannels>
											<downmix>0</downmix>
											<channel>
												<index>6</index>
											</channel>
										</group>
										<group>
											<index>7</index>
											<numchannels>1</numchannels>
											<downmix>0</downmix>
											<channel>
												<index>7</index>
											</channel>
										</group>
										<group>
											<index>8</index>
											<numchannels>1</numchannels>
											<downmix>0</downmix>
											<channel>
												<index>8</index>
											</channel>
										</group>
									</outputs>
									<track TL.SQTrackExpandedHeight="25" TL.SQTrackExpanded="0" MZ.TrackTargeted="1" PannerCurrentValue="0.5" PannerIsInverted="true" PannerStartKeyframe="-91445760000000000,0.5,0,0,0,0,0,0" PannerName="Balance" currentExplodedTrackIndex="0" totalExplodedTrackCount="2" premiereTrackType="Stereo">
										<clipitem id="clipitem-728" frameBlend="FALSE" PannerCurrentValue="0.5" PannerKeyframes="" PannerStartKeyframe="-91445760000000000,0.5,0,0,0,0,0,0" PannerIsInverted="true" PannerName="Balance">
											<masterclipid>masterclip-161</masterclipid>
											<name>AA014301.MXF</name>
											<enabled>TRUE</enabled>
											<duration>11328</duration>
											<rate>
												<timebase>25</timebase>
												<ntsc>FALSE</ntsc>
											</rate>
											<start>0</start>
											<end>11328</end>
											<in>0</in>
											<out>11328</out>
											<pixelaspectratio>square</pixelaspectratio>
											<anamorphic>FALSE</anamorphic>
											<file id="file-142">
												<name>AA014301.MXF</name>
												<pathurl>file://localhost/Volumes/Brakka/AdobeLager/Katta/Katta-14xxxx-Smart_eller_overvaaket-Chris/02-Video/COWI%20Varemesse%20C300/CONTENTS/CLIPS001/AA0143/AA014301.MXF</pathurl>
												<rate>
													<timebase>25</timebase>
													<ntsc>FALSE</ntsc>
												</rate>
												<duration>11328</duration>
												<timecode>
													<rate>
														<timebase>25</timebase>
														<ntsc>FALSE</ntsc>
													</rate>
													<string>02:45:39:21</string>
													<frame>248496</frame>
													<displayformat>NDF</displayformat>
													<reel>
														<name></name>
													</reel>
												</timecode>
												<media>
													<video>
														<duration>18000</duration>
														<samplecharacteristics>
															<rate>
																<timebase>25</timebase>
																<ntsc>FALSE</ntsc>
															</rate>
															<width>1920</width>
															<height>1080</height>
															<anamorphic>FALSE</anamorphic>
															<pixelaspectratio>square</pixelaspectratio>
															<fielddominance>none</fielddominance>
														</samplecharacteristics>
													</video>
													<audio>
														<samplecharacteristics>
															<depth>16</depth>
															<samplerate>48000</samplerate>
														</samplecharacteristics>
														<channelcount>2</channelcount>
													</audio>
												</media>
											</file>
											<sourcetrack>
												<mediatype>audio</mediatype>
												<trackindex>1</trackindex>
											</sourcetrack>
												<filter>
													<effect>
														<name>Audio Pan</name>
														<effectid>audiopan</effectid>
														<effectcategory>audiopan</effectcategory>
														<effecttype>audiopan</effecttype>
														<mediatype>audio</mediatype>
														<parameter authoringApp="PremierePro">
															<parameterid>pan</parameterid>
															<name>Pan</name>
															<valuemin>-1</valuemin>
															<valuemax>1</valuemax>
															<value>0</value>
														</parameter>
													</effect>
												</filter>
											<logginginfo>
												<description></description>
												<scene></scene>
												<shottake>AA0143</shottake>
												<lognote></lognote>
											</logginginfo>
											<labels>
												<label2>Iris</label2>
											</labels>
										</clipitem>
										<enabled>TRUE</enabled>
										<locked>FALSE</locked>
										<outputchannelindex>1</outputchannelindex>
									</track>
									<track TL.SQTrackExpandedHeight="25" TL.SQTrackExpanded="0" MZ.TrackTargeted="1" PannerCurrentValue="0.5" PannerIsInverted="true" PannerStartKeyframe="-91445760000000000,0.5,0,0,0,0,0,0" PannerName="Balance" currentExplodedTrackIndex="1" totalExplodedTrackCount="2" premiereTrackType="Stereo">
										<clipitem id="clipitem-729" frameBlend="FALSE" PannerCurrentValue="0.5" PannerKeyframes="" PannerStartKeyframe="-91445760000000000,0.5,0,0,0,0,0,0" PannerIsInverted="true" PannerName="Balance">
											<masterclipid>masterclip-161</masterclipid>
											<name>AA014301.MXF</name>
											<enabled>TRUE</enabled>
											<duration>11328</duration>
											<rate>
												<timebase>25</timebase>
												<ntsc>FALSE</ntsc>
											</rate>
											<start>0</start>
											<end>11328</end>
											<in>0</in>
											<out>11328</out>
											<file id="file-142"/>
											<sourcetrack>
												<mediatype>audio</mediatype>
												<trackindex>2</trackindex>
											</sourcetrack>
												<filter>
													<effect>
														<name>Audio Pan</name>
														<effectid>audiopan</effectid>
														<effectcategory>audiopan</effectcategory>
														<effecttype>audiopan</effecttype>
														<mediatype>audio</mediatype>
														<parameter authoringApp="PremierePro">
															<parameterid>pan</parameterid>
															<name>Pan</name>
															<valuemin>-1</valuemin>
															<valuemax>1</valuemax>
															<value>0</value>
														</parameter>
													</effect>
												</filter>
											<logginginfo>
												<description></description>
												<scene></scene>
												<shottake>AA0143</shottake>
												<lognote></lognote>
											</logginginfo>
											<labels>
												<label2>Iris</label2>
											</labels>
										</clipitem>
										<enabled>TRUE</enabled>
										<locked>FALSE</locked>
										<outputchannelindex>2</outputchannelindex>
									</track>
								</audio>
							</media>
							<timecode>
								<rate>
									<timebase>25</timebase>
									<ntsc>FALSE</ntsc>
								</rate>
								<string>00:00:00:00</string>
								<frame>0</frame>
								<displayformat>NDF</displayformat>
							</timecode>
						</sequence>
							<marker>
								<comment>disse 100 mobiltelefonene oppfￃﾸrer seg</comment>
								<name></name>
								<in>9972</in>
								<out>-1</out>
							</marker>
							<marker>
								<comment>handler om strￃﾸmmer ikke enkeltpersoner</comment>
								<name></name>
								<in>6806</in>
								<out>-1</out>
							</marker>
							<marker>
								<comment>ￃﾸnsker man det, sￃﾥ gￃﾥr det</comment>
								<name></name>
								<in>10306</in>
								<out>-1</out>
							</marker>
							<marker>
								<comment>kan vￃﾦre interessant for andre, det kan godt vￃﾦre</comment>
								<name></name>
								<in>7307</in>
								<out>-1</out>
							</marker>
							<marker>
								<comment>interessant ￃﾥ spore folk</comment>
								<name></name>
								<in>8496</in>
								<out>-1</out>
							</marker>
							<marker>
								<comment>kan overvￃﾥke samme mobil eller gi ny identitet hver gang </comment>
								<name></name>
								<in>4991</in>
								<out>-1</out>
							</marker>
							<marker>
								<comment></comment>
								<name></name>
								<in>8478</in>
								<out>-1</out>
							</marker>
							<marker>
								<comment>du kan fￃﾥ ny id, ser enhetne, men ikek at deter deg</comment>
								<name></name>
								<in>4604</in>
								<out>-1</out>
							</marker>
							<marker>
								<comment></comment>
								<name></name>
								<in>8474</in>
								<out>-1</out>
							</marker>
							<marker>
								<comment>ser enheten, men ikke deg, og det er kryptert</comment>
								<name>man ser </name>
								<in>2161</in>
								<out>-1</out>
							</marker>
							<marker>
								<comment>da er det fￃﾸlelser av overvￃﾥking</comment>
								<name></name>
								<in>10547</in>
								<out>-1</out>
							</marker>
						<link>
							<linkclipref>clipitem-743</linkclipref>
							<mediatype>video</mediatype>
							<trackindex>1</trackindex>
							<clipindex>211</clipindex>
						</link>
						<link>
							<linkclipref>clipitem-1210</linkclipref>
							<mediatype>audio</mediatype>
							<trackindex>1</trackindex>
							<clipindex>110</clipindex>
						</link>
						<labels>
							<label2>Forest</label2>
						</labels>
					</clipitem>
					<clipitem id="clipitem-744" frameBlend="FALSE">
						<masterclipid>masterclip-160</masterclipid>
						<name>AA014301.MXFCowi varemesse multi</name>
						<enabled>TRUE</enabled>
						<duration>13167</duration>
						<rate>
							<timebase>25</timebase>
							<ntsc>FALSE</ntsc>
						</rate>
						<start>24699</start>
						<end>24749</end>
						<in>7179</in>
						<out>7229</out>
						<sequence id="sequence-78"/>
							<marker>
								<comment>disse 100 mobiltelefonene oppfￃﾸrer seg</comment>
								<name></name>
								<in>9972</in>
								<out>-1</out>
							</marker>
							<marker>
								<comment>handler om strￃﾸmmer ikke enkeltpersoner</comment>
								<name></name>
								<in>6806</in>
								<out>-1</out>
							</marker>
							<marker>
								<comment>ￃﾸnsker man det, sￃﾥ gￃﾥr det</comment>
								<name></name>
								<in>10306</in>
								<out>-1</out>
							</marker>
							<marker>
								<comment>kan vￃﾦre interessant for andre, det kan godt vￃﾦre</comment>
								<name></name>
								<in>7307</in>
								<out>-1</out>
							</marker>
							<marker>
								<comment>interessant ￃﾥ spore folk</comment>
								<name></name>
								<in>8496</in>
								<out>-1</out>
							</marker>
							<marker>
								<comment>kan overvￃﾥke samme mobil eller gi ny identitet hver gang </comment>
								<name></name>
								<in>4991</in>
								<out>-1</out>
							</marker>
							<marker>
								<comment></comment>
								<name></name>
								<in>8478</in>
								<out>-1</out>
							</marker>
							<marker>
								<comment>du kan fￃﾥ ny id, ser enhetne, men ikek at deter deg</comment>
								<name></name>
								<in>4604</in>
								<out>-1</out>
							</marker>
							<marker>
								<comment></comment>
								<name></name>
								<in>8474</in>
								<out>-1</out>
							</marker>
							<marker>
								<comment>ser enheten, men ikke deg, og det er kryptert</comment>
								<name>man ser </name>
								<in>2161</in>
								<out>-1</out>
							</marker>
							<marker>
								<comment>da er det fￃﾸlelser av overvￃﾥking</comment>
								<name></name>
								<in>10547</in>
								<out>-1</out>
							</marker>
						<labels>
							<label2>Forest</label2>
						</labels>
					</clipitem>
					<clipitem id="clipitem-745" frameBlend="FALSE">
						<masterclipid>masterclip-160</masterclipid>
						<name>AA014301.MXFCowi varemesse multi</name>
						<enabled>TRUE</enabled>
						<duration>13167</duration>
						<rate>
							<timebase>25</timebase>
							<ntsc>FALSE</ntsc>
						</rate>
						<start>24749</start>
						<end>24778</end>
						<in>7229</in>
						<out>7258</out>
						<sequence id="sequence-75"/>
							<marker>
								<comment>disse 100 mobiltelefonene oppfￃﾸrer seg</comment>
								<name></name>
								<in>9972</in>
								<out>-1</out>
							</marker>
							<marker>
								<comment>handler om strￃﾸmmer ikke enkeltpersoner</comment>
								<name></name>
								<in>6806</in>
								<out>-1</out>
							</marker>
							<marker>
								<comment>ￃﾸnsker man det, sￃﾥ gￃﾥr det</comment>
								<name></name>
								<in>10306</in>
								<out>-1</out>
							</marker>
							<marker>
								<comment>kan vￃﾦre interessant for andre, det kan godt vￃﾦre</comment>
								<name></name>
								<in>7307</in>
								<out>-1</out>
							</marker>
							<marker>
								<comment>interessant ￃﾥ spore folk</comment>
								<name></name>
								<in>8496</in>
								<out>-1</out>
							</marker>
							<marker>
								<comment>kan overvￃﾥke samme mobil eller gi ny identitet hver gang </comment>
								<name></name>
								<in>4991</in>
								<out>-1</out>
							</marker>
							<marker>
								<comment></comment>
								<name></name>
								<in>8478</in>
								<out>-1</out>
							</marker>
							<marker>
								<comment>du kan fￃﾥ ny id, ser enhetne, men ikek at deter deg</comment>
								<name></name>
								<in>4604</in>
								<out>-1</out>
							</marker>
							<marker>
								<comment></comment>
								<name></name>
								<in>8474</in>
								<out>-1</out>
							</marker>
							<marker>
								<comment>ser enheten, men ikke deg, og det er kryptert</comment>
								<name>man ser </name>
								<in>2161</in>
								<out>-1</out>
							</marker>
							<marker>
								<comment>da er det fￃﾸlelser av overvￃﾥking</comment>
								<name></name>
								<in>10547</in>
								<out>-1</out>
							</marker>
						<labels>
							<label2>Forest</label2>
						</labels>
					</clipitem>
					<clipitem id="clipitem-746" frameBlend="FALSE">
						<masterclipid>masterclip-165</masterclipid>
						<name>AA049201.MXF</name>
						<enabled>TRUE</enabled>
						<duration>528</duration>
						<rate>
							<timebase>25</timebase>
							<ntsc>FALSE</ntsc>
						</rate>
						<start>24778</start>
						<end>24901</end>
						<in>172</in>
						<out>295</out>
						<alphatype>none</alphatype>
						<pixelaspectratio>square</pixelaspectratio>
						<anamorphic>FALSE</anamorphic>
						<file id="file-146">
							<name>AA049201.MXF</name>
							<pathurl>file://localhost/Volumes/Brakka/AdobeLager/Katta/Katta-14xxxx-Smart_eller_overvaaket-Chris/02-Video/Datatilsynet%20Case%20C300/CONTENTS/CLIPS001/AA0492/AA049201.MXF</pathurl>
							<rate>
								<timebase>25</timebase>
								<ntsc>FALSE</ntsc>
							</rate>
							<duration>528</duration>
							<timecode>
								<rate>
									<timebase>25</timebase>
									<ntsc>FALSE</ntsc>
								</rate>
								<string>10:24:01:11</string>
								<frame>936036</frame>
								<displayformat>NDF</displayformat>
								<reel>
									<name></name>
								</reel>
							</timecode>
							<media>
								<video>
									<duration>18000</duration>
									<samplecharacteristics>
										<rate>
											<timebase>25</timebase>
											<ntsc>FALSE</ntsc>
										</rate>
										<width>1920</width>
										<height>1080</height>
										<anamorphic>FALSE</anamorphic>
										<pixelaspectratio>square</pixelaspectratio>
										<fielddominance>none</fielddominance>
									</samplecharacteristics>
								</video>
								<audio>
									<samplecharacteristics>
										<depth>16</depth>
										<samplerate>48000</samplerate>
									</samplecharacteristics>
									<channelcount>1</channelcount>
									<layout>mono</layout>
									<audiochannel>
										<sourcechannel>1</sourcechannel>
										<channellabel>discrete</channellabel>
									</audiochannel>
								</audio>
								<audio>
									<samplecharacteristics>
										<depth>16</depth>
										<samplerate>48000</samplerate>
									</samplecharacteristics>
									<channelcount>1</channelcount>
									<layout>mono</layout>
									<audiochannel>
										<sourcechannel>2</sourcechannel>
										<channellabel>discrete</channellabel>
									</audiochannel>
								</audio>
							</media>
						</file>
						<link>
							<linkclipref>clipitem-746</linkclipref>
							<mediatype>video</mediatype>
							<trackindex>1</trackindex>
							<clipindex>214</clipindex>
						</link>
						<link>
							<linkclipref>clipitem-1555</linkclipref>
							<mediatype>audio</mediatype>
							<trackindex>5</trackindex>
							<clipindex>51</clipindex>
						</link>
						<link>
							<linkclipref>clipitem-1626</linkclipref>
							<mediatype>audio</mediatype>
							<trackindex>7</trackindex>
							<clipindex>44</clipindex>
						</link>
						<logginginfo>
							<description></description>
							<scene></scene>
							<shottake>AA0492</shottake>
							<lognote></lognote>
						</logginginfo>
						<labels>
							<label2>Iris</label2>
						</labels>
					</clipitem>
					<clipitem id="clipitem-747" frameBlend="FALSE">
						<masterclipid>masterclip-166</masterclipid>
						<name>AA049101.MXF</name>
						<enabled>TRUE</enabled>
						<duration>2568</duration>
						<rate>
							<timebase>25</timebase>
							<ntsc>FALSE</ntsc>
						</rate>
						<start>24901</start>
						<end>25217</end>
						<in>586</in>
						<out>902</out>
						<alphatype>none</alphatype>
						<pixelaspectratio>square</pixelaspectratio>
						<anamorphic>FALSE</anamorphic>
						<file id="file-147">
							<name>AA049101.MXF</name>
							<pathurl>file://localhost/Volumes/Brakka/AdobeLager/Katta/Katta-14xxxx-Smart_eller_overvaaket-Chris/02-Video/Datatilsynet%20Case%20C300/CONTENTS/CLIPS001/AA0491/AA049101.MXF</pathurl>
							<rate>
								<timebase>25</timebase>
								<ntsc>FALSE</ntsc>
							</rate>
							<duration>2568</duration>
							<timecode>
								<rate>
									<timebase>25</timebase>
									<ntsc>FALSE</ntsc>
								</rate>
								<string>10:22:18:18</string>
								<frame>933468</frame>
								<displayformat>NDF</displayformat>
								<reel>
									<name></name>
								</reel>
							</timecode>
							<media>
								<video>
									<duration>18000</duration>
									<samplecharacteristics>
										<rate>
											<timebase>25</timebase>
											<ntsc>FALSE</ntsc>
										</rate>
										<width>1920</width>
										<height>1080</height>
										<anamorphic>FALSE</anamorphic>
										<pixelaspectratio>square</pixelaspectratio>
										<fielddominance>none</fielddominance>
									</samplecharacteristics>
								</video>
								<audio>
									<samplecharacteristics>
										<depth>16</depth>
										<samplerate>48000</samplerate>
									</samplecharacteristics>
									<channelcount>1</channelcount>
									<layout>mono</layout>
									<audiochannel>
										<sourcechannel>1</sourcechannel>
										<channellabel>discrete</channellabel>
									</audiochannel>
								</audio>
								<audio>
									<samplecharacteristics>
										<depth>16</depth>
										<samplerate>48000</samplerate>
									</samplecharacteristics>
									<channelcount>1</channelcount>
									<layout>mono</layout>
									<audiochannel>
										<sourcechannel>2</sourcechannel>
										<channellabel>discrete</channellabel>
									</audiochannel>
								</audio>
							</media>
						</file>
						<link>
							<linkclipref>clipitem-747</linkclipref>
							<mediatype>video</mediatype>
							<trackindex>1</trackindex>
							<clipindex>215</clipindex>
						</link>
						<link>
							<linkclipref>clipitem-1211</linkclipref>
							<mediatype>audio</mediatype>
							<trackindex>1</trackindex>
							<clipindex>111</clipindex>
						</link>
						<logginginfo>
							<description></description>
							<scene></scene>
							<shottake>AA0491</shottake>
							<lognote></lognote>
						</logginginfo>
						<labels>
							<label2>Iris</label2>
						</labels>
					</clipitem>
					<clipitem id="clipitem-748" frameBlend="FALSE">
						<masterclipid>masterclip-167</masterclipid>
						<name>AA050501.MXF</name>
						<enabled>TRUE</enabled>
						<duration>456</duration>
						<rate>
							<timebase>25</timebase>
							<ntsc>FALSE</ntsc>
						</rate>
						<start>25217</start>
						<end>25440</end>
						<in>206</in>
						<out>429</out>
						<alphatype>none</alphatype>
						<pixelaspectratio>square</pixelaspectratio>
						<anamorphic>FALSE</anamorphic>
						<file id="file-148">
							<name>AA050501.MXF</name>
							<pathurl>file://localhost/Volumes/Brakka/AdobeLager/Katta/Katta-14xxxx-Smart_eller_overvaaket-Chris/02-Video/Datatilsynet%20Case%20C300/CONTENTS/CLIPS001/AA0505/AA050501.MXF</pathurl>
							<rate>
								<timebase>25</timebase>
								<ntsc>FALSE</ntsc>
							</rate>
							<duration>456</duration>
							<timecode>
								<rate>
									<timebase>25</timebase>
									<ntsc>FALSE</ntsc>
								</rate>
								<string>10:51:46:02</string>
								<frame>977652</frame>
								<displayformat>NDF</displayformat>
								<reel>
									<name></name>
								</reel>
							</timecode>
							<media>
								<video>
									<duration>18000</duration>
									<samplecharacteristics>
										<rate>
											<timebase>25</timebase>
											<ntsc>FALSE</ntsc>
										</rate>
										<width>1920</width>
										<height>1080</height>
										<anamorphic>FALSE</anamorphic>
										<pixelaspectratio>square</pixelaspectratio>
										<fielddominance>none</fielddominance>
									</samplecharacteristics>
								</video>
								<audio>
									<samplecharacteristics>
										<depth>16</depth>
										<samplerate>48000</samplerate>
									</samplecharacteristics>
									<channelcount>1</channelcount>
									<layout>mono</layout>
									<audiochannel>
										<sourcechannel>1</sourcechannel>
										<channellabel>discrete</channellabel>
									</audiochannel>
								</audio>
								<audio>
									<samplecharacteristics>
										<depth>16</depth>
										<samplerate>48000</samplerate>
									</samplecharacteristics>
									<channelcount>1</channelcount>
									<layout>mono</layout>
									<audiochannel>
										<sourcechannel>2</sourcechannel>
										<channellabel>discrete</channellabel>
									</audiochannel>
								</audio>
							</media>
						</file>
						<logginginfo>
							<description></description>
							<scene></scene>
							<shottake>AA0505</shottake>
							<lognote></lognote>
						</logginginfo>
						<labels>
							<label2>Iris</label2>
						</labels>
					</clipitem>
					<clipitem id="clipitem-749" frameBlend="FALSE">
						<masterclipid>masterclip-168</masterclipid>
						<name>AA049801.MXFMulticam case</name>
						<enabled>TRUE</enabled>
						<duration>20553</duration>
						<rate>
							<timebase>25</timebase>
							<ntsc>FALSE</ntsc>
						</rate>
						<start>25440</start>
						<end>25690</end>
						<in>1458</in>
						<out>1708</out>
						<sequence id="sequence-80">
							<duration>150</duration>
							<rate>
								<timebase>25</timebase>
								<ntsc>FALSE</ntsc>
							</rate>
							<name>AA049801.MXFMulticam case-2</name>
							<media>
								<video>
									<format>
										<samplecharacteristics>
											<rate>
												<timebase>25</timebase>
												<ntsc>FALSE</ntsc>
											</rate>
											<codec>
												<name>Apple ProRes 422</name>
												<appspecificdata>
													<appname>Final Cut Pro</appname>
													<appmanufacturer>Apple Inc.</appmanufacturer>
													<appversion>7.0</appversion>
													<data>
														<qtcodec>
															<codecname>Apple ProRes 422</codecname>
															<codectypename>Apple ProRes 422</codectypename>
															<codectypecode>apcn</codectypecode>
															<codecvendorcode>appl</codecvendorcode>
															<spatialquality>1024</spatialquality>
															<temporalquality>0</temporalquality>
															<keyframerate>0</keyframerate>
															<datarate>0</datarate>
														</qtcodec>
													</data>
												</appspecificdata>
											</codec>
											<width>1920</width>
											<height>1080</height>
											<anamorphic>FALSE</anamorphic>
											<pixelaspectratio>square</pixelaspectratio>
											<fielddominance>none</fielddominance>
											<colordepth>24</colordepth>
										</samplecharacteristics>
									</format>
									<track TL.SQTrackShy="0" TL.SQTrackExpandedHeight="25" TL.SQTrackExpanded="0" MZ.TrackTargeted="0">
										<clipitem id="clipitem-753" frameBlend="FALSE">
											<masterclipid>masterclip-170</masterclipid>
											<name>AA049901.MXF</name>
											<enabled>TRUE</enabled>
											<duration>19944</duration>
											<rate>
												<timebase>25</timebase>
												<ntsc>FALSE</ntsc>
											</rate>
											<start>609</start>
											<end>20553</end>
											<in>0</in>
											<out>19944</out>
											<alphatype>none</alphatype>
											<pixelaspectratio>square</pixelaspectratio>
											<anamorphic>FALSE</anamorphic>
											<file id="file-150">
												<name>AA049901.MXF</name>
												<pathurl>file://localhost/Volumes/Brakka/AdobeLager/Katta/Katta-14xxxx-Smart_eller_overvaaket-Chris/02-Video/Datatilsynet%20Case%20C300/CONTENTS/CLIPS001/AA0499/AA049901.MXF</pathurl>
												<rate>
													<timebase>25</timebase>
													<ntsc>FALSE</ntsc>
												</rate>
												<duration>19944</duration>
												<timecode>
													<rate>
														<timebase>25</timebase>
														<ntsc>FALSE</ntsc>
													</rate>
													<string>10:28:41:07</string>
													<frame>943032</frame>
													<displayformat>NDF</displayformat>
													<reel>
														<name></name>
													</reel>
												</timecode>
												<media>
													<video>
														<duration>18000</duration>
														<samplecharacteristics>
															<rate>
																<timebase>25</timebase>
																<ntsc>FALSE</ntsc>
															</rate>
															<width>1920</width>
															<height>1080</height>
															<anamorphic>FALSE</anamorphic>
															<pixelaspectratio>square</pixelaspectratio>
															<fielddominance>none</fielddominance>
														</samplecharacteristics>
													</video>
													<audio>
														<samplecharacteristics>
															<depth>16</depth>
															<samplerate>48000</samplerate>
														</samplecharacteristics>
														<channelcount>1</channelcount>
														<layout>mono</layout>
														<audiochannel>
															<sourcechannel>1</sourcechannel>
															<channellabel>discrete</channellabel>
														</audiochannel>
													</audio>
													<audio>
														<samplecharacteristics>
															<depth>16</depth>
															<samplerate>48000</samplerate>
														</samplecharacteristics>
														<channelcount>1</channelcount>
														<layout>mono</layout>
														<audiochannel>
															<sourcechannel>2</sourcechannel>
															<channellabel>discrete</channellabel>
														</audiochannel>
													</audio>
												</media>
											</file>
											<logginginfo>
												<description></description>
												<scene></scene>
												<shottake>AA0499</shottake>
												<lognote></lognote>
											</logginginfo>
											<labels>
												<label2>Iris</label2>
											</labels>
										</clipitem>
										<enabled>TRUE</enabled>
										<locked>FALSE</locked>
									</track>
								</video>
								<audio>
									<format>
										<samplecharacteristics>
											<depth>16</depth>
											<samplerate>48000</samplerate>
										</samplecharacteristics>
									</format>
									<outputs>
										<group>
											<index>1</index>
											<numchannels>1</numchannels>
											<downmix>0</downmix>
											<channel>
												<index>1</index>
											</channel>
										</group>
										<group>
											<index>2</index>
											<numchannels>1</numchannels>
											<downmix>0</downmix>
											<channel>
												<index>2</index>
											</channel>
										</group>
										<group>
											<index>3</index>
											<numchannels>1</numchannels>
											<downmix>0</downmix>
											<channel>
												<index>3</index>
											</channel>
										</group>
										<group>
											<index>4</index>
											<numchannels>1</numchannels>
											<downmix>0</downmix>
											<channel>
												<index>4</index>
											</channel>
										</group>
										<group>
											<index>5</index>
											<numchannels>1</numchannels>
											<downmix>0</downmix>
											<channel>
												<index>5</index>
											</channel>
										</group>
										<group>
											<index>6</index>
											<numchannels>1</numchannels>
											<downmix>0</downmix>
											<channel>
												<index>6</index>
											</channel>
										</group>
										<group>
											<index>7</index>
											<numchannels>1</numchannels>
											<downmix>0</downmix>
											<channel>
												<index>7</index>
											</channel>
										</group>
										<group>
											<index>8</index>
											<numchannels>1</numchannels>
											<downmix>0</downmix>
											<channel>
												<index>8</index>
											</channel>
										</group>
										<group>
											<index>9</index>
											<numchannels>1</numchannels>
											<downmix>0</downmix>
											<channel>
												<index>9</index>
											</channel>
										</group>
										<group>
											<index>10</index>
											<numchannels>1</numchannels>
											<downmix>0</downmix>
											<channel>
												<index>10</index>
											</channel>
										</group>
										<group>
											<index>11</index>
											<numchannels>1</numchannels>
											<downmix>0</downmix>
											<channel>
												<index>11</index>
											</channel>
										</group>
										<group>
											<index>12</index>
											<numchannels>1</numchannels>
											<downmix>0</downmix>
											<channel>
												<index>12</index>
											</channel>
										</group>
										<group>
											<index>13</index>
											<numchannels>1</numchannels>
											<downmix>0</downmix>
											<channel>
												<index>13</index>
											</channel>
										</group>
										<group>
											<index>14</index>
											<numchannels>1</numchannels>
											<downmix>0</downmix>
											<channel>
												<index>14</index>
											</channel>
										</group>
										<group>
											<index>15</index>
											<numchannels>1</numchannels>
											<downmix>0</downmix>
											<channel>
												<index>15</index>
											</channel>
										</group>
										<group>
											<index>16</index>
											<numchannels>1</numchannels>
											<downmix>0</downmix>
											<channel>
												<index>16</index>
											</channel>
										</group>
									</outputs>
									<track TL.SQTrackAudioKeyframeStyle="0" TL.SQTrackShy="0" TL.SQTrackExpandedHeight="25" TL.SQTrackExpanded="0" MZ.TrackTargeted="1" PannerCurrentValue="0.5" PannerIsInverted="true" PannerStartKeyframe="-91445760000000000,0.5,0,0,0,0,0,0" PannerName="Balance" currentExplodedTrackIndex="0" totalExplodedTrackCount="1" premiereTrackType="Stereo">
										<clipitem id="clipitem-752" frameBlend="FALSE" PannerCurrentValue="0.5" PannerKeyframes="" PannerStartKeyframe="-91445760000000000,0.5,0,0,0,0,0,0" PannerIsInverted="true" PannerName="Balance">
											<masterclipid>masterclip-169</masterclipid>
											<name>AA049801.MXF</name>
											<enabled>TRUE</enabled>
											<duration>396</duration>
											<rate>
												<timebase>25</timebase>
												<ntsc>FALSE</ntsc>
											</rate>
											<start>142</start>
											<end>538</end>
											<in>0</in>
											<out>396</out>
											<file id="file-149"/>
											<sourcetrack>
												<mediatype>audio</mediatype>
												<trackindex>2</trackindex>
											</sourcetrack>
												<filter>
													<effect>
														<name>Audio Pan</name>
														<effectid>audiopan</effectid>
														<effectcategory>audiopan</effectcategory>
														<effecttype>audiopan</effecttype>
														<mediatype>audio</mediatype>
														<parameter authoringApp="PremierePro">
															<parameterid>pan</parameterid>
															<name>Pan</name>
															<valuemin>-1</valuemin>
															<valuemax>1</valuemax>
															<value>0</value>
														</parameter>
													</effect>
												</filter>
											<logginginfo>
												<description></description>
												<scene></scene>
												<shottake>AA0498</shottake>
												<lognote></lognote>
											</logginginfo>
											<labels>
												<label2>Iris</label2>
											</labels>
										</clipitem>
										<enabled>TRUE</enabled>
										<locked>FALSE</locked>
										<outputchannelindex>3</outputchannelindex>
									</track>
								</audio>
							</media>
							<timecode>
								<rate>
									<timebase>25</timebase>
									<ntsc>FALSE</ntsc>
								</rate>
								<string>00:00:00:00</string>
								<frame>0</frame>
								<displayformat>NDF</displayformat>
							</timecode>
						</sequence>
							<marker>
								<comment></comment>
								<name></name>
								<in>4526</in>
								<out>-1</out>
							</marker>
							<marker>
								<comment>bedre for meg? mer bekvemt</comment>
								<name>det blir jo bedre</name>
								<in>12403</in>
								<out>-1</out>
							</marker>
							<marker>
								<comment></comment>
								<name></name>
								<in>10020</in>
								<out>-1</out>
							</marker>
							<marker>
								<comment></comment>
								<name></name>
								<in>6238</in>
								<out>-1</out>
							</marker>
							<marker>
								<comment></comment>
								<name></name>
								<in>7411</in>
								<out>-1</out>
							</marker>
							<marker>
								<comment></comment>
								<name></name>
								<in>10932</in>
								<out>-1</out>
							</marker>
							<marker>
								<comment></comment>
								<name></name>
								<in>5749</in>
								<out>-1</out>
							</marker>
							<marker>
								<comment></comment>
								<name></name>
								<in>8605</in>
								<out>-1</out>
							</marker>
							<marker>
								<comment>hei, sa du hva var det jeg sa, og det kanskje skjer i NorgE?</comment>
								<name>NSA</name>
								<in>19361</in>
								<out>-1</out>
							</marker>
							<marker>
								<comment></comment>
								<name></name>
								<in>3544</in>
								<out>-1</out>
							</marker>
							<marker>
								<comment></comment>
								<name></name>
								<in>9067</in>
								<out>-1</out>
							</marker>
							<marker>
								<comment></comment>
								<name></name>
								<in>1608</in>
								<out>-1</out>
							</marker>
						<link>
							<linkclipref>clipitem-749</linkclipref>
							<mediatype>video</mediatype>
							<trackindex>1</trackindex>
							<clipindex>217</clipindex>
						</link>
						<link>
							<linkclipref>clipitem-1212</linkclipref>
							<mediatype>audio</mediatype>
							<trackindex>1</trackindex>
							<clipindex>112</clipindex>
						</link>
						<link>
							<linkclipref>clipitem-1444</linkclipref>
							<mediatype>audio</mediatype>
							<trackindex>3</trackindex>
							<clipindex>91</clipindex>
						</link>
						<labels>
							<label2>Forest</label2>
						</labels>
					</clipitem>
					<clipitem id="clipitem-758" frameBlend="FALSE">
						<masterclipid>masterclip-168</masterclipid>
						<name>AA049801.MXFMulticam case</name>
						<enabled>TRUE</enabled>
						<duration>20553</duration>
						<rate>
							<timebase>25</timebase>
							<ntsc>FALSE</ntsc>
						</rate>
						<start>25690</start>
						<end>25763</end>
						<in>1708</in>
						<out>1781</out>
						<sequence id="sequence-81">
							<duration>150</duration>
							<rate>
								<timebase>25</timebase>
								<ntsc>FALSE</ntsc>
							</rate>
							<name>AA049801.MXFMulticam case-3</name>
							<media>
								<video>
									<format>
										<samplecharacteristics>
											<rate>
												<timebase>25</timebase>
												<ntsc>FALSE</ntsc>
											</rate>
											<codec>
												<name>Apple ProRes 422</name>
												<appspecificdata>
													<appname>Final Cut Pro</appname>
													<appmanufacturer>Apple Inc.</appmanufacturer>
													<appversion>7.0</appversion>
													<data>
														<qtcodec>
															<codecname>Apple ProRes 422</codecname>
															<codectypename>Apple ProRes 422</codectypename>
															<codectypecode>apcn</codectypecode>
															<codecvendorcode>appl</codecvendorcode>
															<spatialquality>1024</spatialquality>
															<temporalquality>0</temporalquality>
															<keyframerate>0</keyframerate>
															<datarate>0</datarate>
														</qtcodec>
													</data>
												</appspecificdata>
											</codec>
											<width>1920</width>
											<height>1080</height>
											<anamorphic>FALSE</anamorphic>
											<pixelaspectratio>square</pixelaspectratio>
											<fielddominance>none</fielddominance>
											<colordepth>24</colordepth>
										</samplecharacteristics>
									</format>
									<track TL.SQTrackShy="0" TL.SQTrackExpandedHeight="25" TL.SQTrackExpanded="0" MZ.TrackTargeted="0">
										<clipitem id="clipitem-755" frameBlend="FALSE">
											<masterclipid>masterclip-171</masterclipid>
											<name>MVI_0543.MOV</name>
											<enabled>TRUE</enabled>
											<duration>11525</duration>
											<rate>
												<timebase>25</timebase>
												<ntsc>FALSE</ntsc>
											</rate>
											<start>0</start>
											<end>11525</end>
											<in>0</in>
											<out>11525</out>
											<alphatype>black</alphatype>
											<pixelaspectratio>square</pixelaspectratio>
											<anamorphic>FALSE</anamorphic>
											<file id="file-151">
												<name>MVI_0543.MOV</name>
												<pathurl>file://localhost/Volumes/Brakka/AdobeLager/Katta/Katta-14xxxx-Smart_eller_overvaaket-Chris/02-Video/Datatilsynet%20Case%205D/100EOS5D/MVI_0543.MOV</pathurl>
												<rate>
													<timebase>25</timebase>
													<ntsc>FALSE</ntsc>
												</rate>
												<duration>11525</duration>
												<timecode>
													<rate>
														<timebase>25</timebase>
														<ntsc>FALSE</ntsc>
													</rate>
													<string>00:00:00:00</string>
													<frame>0</frame>
													<displayformat>NDF</displayformat>
													<reel>
														<name></name>
													</reel>
												</timecode>
												<media>
													<video>
														<duration>18000</duration>
														<samplecharacteristics>
															<rate>
																<timebase>25</timebase>
																<ntsc>FALSE</ntsc>
															</rate>
															<width>1920</width>
															<height>1080</height>
															<anamorphic>FALSE</anamorphic>
															<pixelaspectratio>square</pixelaspectratio>
															<fielddominance>none</fielddominance>
														</samplecharacteristics>
													</video>
													<audio>
														<samplecharacteristics>
															<depth>16</depth>
															<samplerate>48000</samplerate>
														</samplecharacteristics>
														<channelcount>1</channelcount>
														<layout>mono</layout>
														<audiochannel>
															<sourcechannel>1</sourcechannel>
															<channellabel>discrete</channellabel>
														</audiochannel>
													</audio>
													<audio>
														<samplecharacteristics>
															<depth>16</depth>
															<samplerate>48000</samplerate>
														</samplecharacteristics>
														<channelcount>1</channelcount>
														<layout>mono</layout>
														<audiochannel>
															<sourcechannel>2</sourcechannel>
															<channellabel>discrete</channellabel>
														</audiochannel>
													</audio>
												</media>
											</file>
											<logginginfo>
												<description></description>
												<scene></scene>
												<shottake></shottake>
												<lognote></lognote>
											</logginginfo>
											<labels>
												<label2>Iris</label2>
											</labels>
										</clipitem>
										<enabled>TRUE</enabled>
										<locked>FALSE</locked>
									</track>
								</video>
								<audio>
									<format>
										<samplecharacteristics>
											<depth>16</depth>
											<samplerate>48000</samplerate>
										</samplecharacteristics>
									</format>
									<outputs>
										<group>
											<index>1</index>
											<numchannels>1</numchannels>
											<downmix>0</downmix>
											<channel>
												<index>1</index>
											</channel>
										</group>
										<group>
											<index>2</index>
											<numchannels>1</numchannels>
											<downmix>0</downmix>
											<channel>
												<index>2</index>
											</channel>
										</group>
										<group>
											<index>3</index>
											<numchannels>1</numchannels>
											<downmix>0</downmix>
											<channel>
												<index>3</index>
											</channel>
										</group>
										<group>
											<index>4</index>
											<numchannels>1</numchannels>
											<downmix>0</downmix>
											<channel>
												<index>4</index>
											</channel>
										</group>
										<group>
											<index>5</index>
											<numchannels>1</numchannels>
											<downmix>0</downmix>
											<channel>
												<index>5</index>
											</channel>
										</group>
										<group>
											<index>6</index>
											<numchannels>1</numchannels>
											<downmix>0</downmix>
											<channel>
												<index>6</index>
											</channel>
										</group>
										<group>
											<index>7</index>
											<numchannels>1</numchannels>
											<downmix>0</downmix>
											<channel>
												<index>7</index>
											</channel>
										</group>
										<group>
											<index>8</index>
											<numchannels>1</numchannels>
											<downmix>0</downmix>
											<channel>
												<index>8</index>
											</channel>
										</group>
										<group>
											<index>9</index>
											<numchannels>1</numchannels>
											<downmix>0</downmix>
											<channel>
												<index>9</index>
											</channel>
										</group>
										<group>
											<index>10</index>
											<numchannels>1</numchannels>
											<downmix>0</downmix>
											<channel>
												<index>10</index>
											</channel>
										</group>
										<group>
											<index>11</index>
											<numchannels>1</numchannels>
											<downmix>0</downmix>
											<channel>
												<index>11</index>
											</channel>
										</group>
										<group>
											<index>12</index>
											<numchannels>1</numchannels>
											<downmix>0</downmix>
											<channel>
												<index>12</index>
											</channel>
										</group>
										<group>
											<index>13</index>
											<numchannels>1</numchannels>
											<downmix>0</downmix>
											<channel>
												<index>13</index>
											</channel>
										</group>
										<group>
											<index>14</index>
											<numchannels>1</numchannels>
											<downmix>0</downmix>
											<channel>
												<index>14</index>
											</channel>
										</group>
										<group>
											<index>15</index>
											<numchannels>1</numchannels>
											<downmix>0</downmix>
											<channel>
												<index>15</index>
											</channel>
										</group>
										<group>
											<index>16</index>
											<numchannels>1</numchannels>
											<downmix>0</downmix>
											<channel>
												<index>16</index>
											</channel>
										</group>
									</outputs>
									<track TL.SQTrackAudioKeyframeStyle="0" TL.SQTrackShy="0" TL.SQTrackExpandedHeight="25" TL.SQTrackExpanded="0" MZ.TrackTargeted="1" PannerCurrentValue="0.5" PannerIsInverted="true" PannerStartKeyframe="-91445760000000000,0.5,0,0,0,0,0,0" PannerName="Balance" currentExplodedTrackIndex="0" totalExplodedTrackCount="1" premiereTrackType="Stereo">
										<clipitem id="clipitem-754" frameBlend="FALSE" PannerCurrentValue="0.5" PannerKeyframes="" PannerStartKeyframe="-91445760000000000,0.5,0,0,0,0,0,0" PannerIsInverted="true" PannerName="Balance">
											<masterclipid>masterclip-170</masterclipid>
											<name>AA049901.MXF</name>
											<enabled>TRUE</enabled>
											<duration>19944</duration>
											<rate>
												<timebase>25</timebase>
												<ntsc>FALSE</ntsc>
											</rate>
											<start>609</start>
											<end>20553</end>
											<in>0</in>
											<out>19944</out>
											<file id="file-150"/>
											<sourcetrack>
												<mediatype>audio</mediatype>
												<trackindex>1</trackindex>
											</sourcetrack>
												<filter>
													<effect>
														<name>Audio Pan</name>
														<effectid>audiopan</effectid>
														<effectcategory>audiopan</effectcategory>
														<effecttype>audiopan</effecttype>
														<mediatype>audio</mediatype>
														<parameter authoringApp="PremierePro">
															<parameterid>pan</parameterid>
															<name>Pan</name>
															<valuemin>-1</valuemin>
															<valuemax>1</valuemax>
															<value>0</value>
														</parameter>
													</effect>
												</filter>
											<logginginfo>
												<description></description>
												<scene></scene>
												<shottake>AA0499</shottake>
												<lognote></lognote>
											</logginginfo>
											<labels>
												<label2>Iris</label2>
											</labels>
										</clipitem>
										<enabled>TRUE</enabled>
										<locked>FALSE</locked>
										<outputchannelindex>5</outputchannelindex>
									</track>
								</audio>
							</media>
							<timecode>
								<rate>
									<timebase>25</timebase>
									<ntsc>FALSE</ntsc>
								</rate>
								<string>00:00:00:00</string>
								<frame>0</frame>
								<displayformat>NDF</displayformat>
							</timecode>
						</sequence>
							<marker>
								<comment></comment>
								<name></name>
								<in>4526</in>
								<out>-1</out>
							</marker>
							<marker>
								<comment>bedre for meg? mer bekvemt</comment>
								<name>det blir jo bedre</name>
								<in>12403</in>
								<out>-1</out>
							</marker>
							<marker>
								<comment></comment>
								<name></name>
								<in>10020</in>
								<out>-1</out>
							</marker>
							<marker>
								<comment></comment>
								<name></name>
								<in>6238</in>
								<out>-1</out>
							</marker>
							<marker>
								<comment></comment>
								<name></name>
								<in>7411</in>
								<out>-1</out>
							</marker>
							<marker>
								<comment></comment>
								<name></name>
								<in>10932</in>
								<out>-1</out>
							</marker>
							<marker>
								<comment></comment>
								<name></name>
								<in>5749</in>
								<out>-1</out>
							</marker>
							<marker>
								<comment></comment>
								<name></name>
								<in>8605</in>
								<out>-1</out>
							</marker>
							<marker>
								<comment>hei, sa du hva var det jeg sa, og det kanskje skjer i NorgE?</comment>
								<name>NSA</name>
								<in>19361</in>
								<out>-1</out>
							</marker>
							<marker>
								<comment></comment>
								<name></name>
								<in>3544</in>
								<out>-1</out>
							</marker>
							<marker>
								<comment></comment>
								<name></name>
								<in>9067</in>
								<out>-1</out>
							</marker>
							<marker>
								<comment></comment>
								<name></name>
								<in>1608</in>
								<out>-1</out>
							</marker>
						<link>
							<linkclipref>clipitem-758</linkclipref>
							<mediatype>video</mediatype>
							<trackindex>1</trackindex>
							<clipindex>218</clipindex>
						</link>
						<link>
							<linkclipref>clipitem-1225</linkclipref>
							<mediatype>audio</mediatype>
							<trackindex>1</trackindex>
							<clipindex>113</clipindex>
						</link>
						<link>
							<linkclipref>clipitem-1445</linkclipref>
							<mediatype>audio</mediatype>
							<trackindex>3</trackindex>
							<clipindex>92</clipindex>
						</link>
						<labels>
							<label2>Forest</label2>
						</labels>
					</clipitem>
					<clipitem id="clipitem-759" frameBlend="FALSE">
						<masterclipid>masterclip-168</masterclipid>
						<name>AA049801.MXFMulticam case</name>
						<enabled>TRUE</enabled>
						<duration>20553</duration>
						<rate>
							<timebase>25</timebase>
							<ntsc>FALSE</ntsc>
						</rate>
						<start>25763</start>
						<end>25912</end>
						<in>8388</in>
						<out>8537</out>
						<sequence id="sequence-80"/>
							<marker>
								<comment></comment>
								<name></name>
								<in>4526</in>
								<out>-1</out>
							</marker>
							<marker>
								<comment>bedre for meg? mer bekvemt</comment>
								<name>det blir jo bedre</name>
								<in>12403</in>
								<out>-1</out>
							</marker>
							<marker>
								<comment></comment>
								<name></name>
								<in>10020</in>
								<out>-1</out>
							</marker>
							<marker>
								<comment></comment>
								<name></name>
								<in>6238</in>
								<out>-1</out>
							</marker>
							<marker>
								<comment></comment>
								<name></name>
								<in>7411</in>
								<out>-1</out>
							</marker>
							<marker>
								<comment></comment>
								<name></name>
								<in>10932</in>
								<out>-1</out>
							</marker>
							<marker>
								<comment></comment>
								<name></name>
								<in>5749</in>
								<out>-1</out>
							</marker>
							<marker>
								<comment></comment>
								<name></name>
								<in>8605</in>
								<out>-1</out>
							</marker>
							<marker>
								<comment>hei, sa du hva var det jeg sa, og det kanskje skjer i NorgE?</comment>
								<name>NSA</name>
								<in>19361</in>
								<out>-1</out>
							</marker>
							<marker>
								<comment></comment>
								<name></name>
								<in>3544</in>
								<out>-1</out>
							</marker>
							<marker>
								<comment></comment>
								<name></name>
								<in>9067</in>
								<out>-1</out>
							</marker>
							<marker>
								<comment></comment>
								<name></name>
								<in>1608</in>
								<out>-1</out>
							</marker>
						<link>
							<linkclipref>clipitem-759</linkclipref>
							<mediatype>video</mediatype>
							<trackindex>1</trackindex>
							<clipindex>219</clipindex>
						</link>
						<link>
							<linkclipref>clipitem-1226</linkclipref>
							<mediatype>audio</mediatype>
							<trackindex>1</trackindex>
							<clipindex>114</clipindex>
						</link>
						<link>
							<linkclipref>clipitem-1446</linkclipref>
							<mediatype>audio</mediatype>
							<trackindex>3</trackindex>
							<clipindex>93</clipindex>
						</link>
						<labels>
							<label2>Forest</label2>
						</labels>
					</clipitem>
					<clipitem id="clipitem-760" frameBlend="FALSE">
						<masterclipid>masterclip-173</masterclipid>
						<name>AA050401.MXF</name>
						<enabled>TRUE</enabled>
						<duration>1488</duration>
						<rate>
							<timebase>25</timebase>
							<ntsc>FALSE</ntsc>
						</rate>
						<start>25912</start>
						<end>25994</end>
						<in>275</in>
						<out>357</out>
						<alphatype>none</alphatype>
						<pixelaspectratio>square</pixelaspectratio>
						<anamorphic>FALSE</anamorphic>
						<file id="file-153">
							<name>AA050401.MXF</name>
							<pathurl>file://localhost/Volumes/Brakka/AdobeLager/Katta/Katta-14xxxx-Smart_eller_overvaaket-Chris/02-Video/Datatilsynet%20Case%20C300/CONTENTS/CLIPS001/AA0504/AA050401.MXF</pathurl>
							<rate>
								<timebase>25</timebase>
								<ntsc>FALSE</ntsc>
							</rate>
							<duration>1116</duration>
							<timecode>
								<rate>
									<timebase>25</timebase>
									<ntsc>FALSE</ntsc>
								</rate>
								<string>10:51:01:11</string>
								<frame>976536</frame>
								<displayformat>NDF</displayformat>
								<reel>
									<name></name>
								</reel>
							</timecode>
							<media>
								<video>
									<duration>18000</duration>
									<samplecharacteristics>
										<rate>
											<timebase>25</timebase>
											<ntsc>FALSE</ntsc>
										</rate>
										<width>1920</width>
										<height>1080</height>
										<anamorphic>FALSE</anamorphic>
										<pixelaspectratio>square</pixelaspectratio>
										<fielddominance>none</fielddominance>
									</samplecharacteristics>
								</video>
								<audio>
									<samplecharacteristics>
										<depth>16</depth>
										<samplerate>48000</samplerate>
									</samplecharacteristics>
									<channelcount>1</channelcount>
									<layout>mono</layout>
									<audiochannel>
										<sourcechannel>1</sourcechannel>
										<channellabel>discrete</channellabel>
									</audiochannel>
								</audio>
								<audio>
									<samplecharacteristics>
										<depth>16</depth>
										<samplerate>48000</samplerate>
									</samplecharacteristics>
									<channelcount>1</channelcount>
									<layout>mono</layout>
									<audiochannel>
										<sourcechannel>2</sourcechannel>
										<channellabel>discrete</channellabel>
									</audiochannel>
								</audio>
							</media>
						</file>
							<filter>
								<effect>
									<name>Time Remap</name>
									<effectid>timeremap</effectid>
									<effectcategory>motion</effectcategory>
									<effecttype>motion</effecttype>
									<mediatype>video</mediatype>
									<parameter authoringApp="PremierePro">
										<parameterid>variablespeed</parameterid>
										<name>variablespeed</name>
										<valuemin>0</valuemin>
										<valuemax>1</valuemax>
										<value>0</value>
									</parameter>
									<parameter authoringApp="PremierePro">
										<parameterid>mappedduration</parameterid>
										<name>mappedduration</name>
										<value>
											<timecode>
												<rate>
													<timebase>0</timebase>
												</rate>
												<string>0</string>
												<frame>0</frame>
												<displayformat>NDF</displayformat>
											</timecode>
										</value>
									</parameter>
									<parameter authoringApp="PremierePro">
										<parameterid>speed</parameterid>
										<name>speed</name>
										<valuemin>-100000</valuemin>
										<valuemax>100000</valuemax>
										<value>75</value>
									</parameter>
									<parameter authoringApp="PremierePro">
										<parameterid>reverse</parameterid>
										<name>reverse</name>
										<value>FALSE</value>
									</parameter>
									<parameter authoringApp="PremierePro">
										<parameterid>frameblending</parameterid>
										<name>frameblending</name>
										<value>FALSE</value>
									</parameter>
								</effect>
							</filter>
						<logginginfo>
							<description></description>
							<scene></scene>
							<shottake>AA0504</shottake>
							<lognote></lognote>
						</logginginfo>
						<labels>
							<label2>Iris</label2>
						</labels>
					</clipitem>
					<clipitem id="clipitem-761" frameBlend="FALSE">
						<masterclipid>masterclip-168</masterclipid>
						<name>AA049801.MXFMulticam case</name>
						<enabled>TRUE</enabled>
						<duration>20553</duration>
						<rate>
							<timebase>25</timebase>
							<ntsc>FALSE</ntsc>
						</rate>
						<start>25994</start>
						<end>26464</end>
						<in>12105</in>
						<out>12575</out>
						<sequence id="sequence-82">
							<duration>150</duration>
							<rate>
								<timebase>25</timebase>
								<ntsc>FALSE</ntsc>
							</rate>
							<name>AA049801.MXFMulticam case-4</name>
							<media>
								<video>
									<format>
										<samplecharacteristics>
											<rate>
												<timebase>25</timebase>
												<ntsc>FALSE</ntsc>
											</rate>
											<codec>
												<name>Apple ProRes 422</name>
												<appspecificdata>
													<appname>Final Cut Pro</appname>
													<appmanufacturer>Apple Inc.</appmanufacturer>
													<appversion>7.0</appversion>
													<data>
														<qtcodec>
															<codecname>Apple ProRes 422</codecname>
															<codectypename>Apple ProRes 422</codectypename>
															<codectypecode>apcn</codectypecode>
															<codecvendorcode>appl</codecvendorcode>
															<spatialquality>1024</spatialquality>
															<temporalquality>0</temporalquality>
															<keyframerate>0</keyframerate>
															<datarate>0</datarate>
														</qtcodec>
													</data>
												</appspecificdata>
											</codec>
											<width>1920</width>
											<height>1080</height>
											<anamorphic>FALSE</anamorphic>
											<pixelaspectratio>square</pixelaspectratio>
											<fielddominance>none</fielddominance>
											<colordepth>24</colordepth>
										</samplecharacteristics>
									</format>
									<track TL.SQTrackShy="0" TL.SQTrackExpandedHeight="25" TL.SQTrackExpanded="0" MZ.TrackTargeted="0">
										<clipitem id="clipitem-757" frameBlend="FALSE">
											<masterclipid>masterclip-172</masterclipid>
											<name>MVI_0544.MOV</name>
											<enabled>TRUE</enabled>
											<duration>6615</duration>
											<rate>
												<timebase>25</timebase>
												<ntsc>FALSE</ntsc>
											</rate>
											<start>11588</start>
											<end>18203</end>
											<in>0</in>
											<out>6615</out>
											<alphatype>black</alphatype>
											<pixelaspectratio>square</pixelaspectratio>
											<anamorphic>FALSE</anamorphic>
											<file id="file-152">
												<name>MVI_0544.MOV</name>
												<pathurl>file://localhost/Volumes/Brakka/AdobeLager/Katta/Katta-14xxxx-Smart_eller_overvaaket-Chris/02-Video/Datatilsynet%20Case%205D/100EOS5D/MVI_0544.MOV</pathurl>
												<rate>
													<timebase>25</timebase>
													<ntsc>FALSE</ntsc>
												</rate>
												<duration>6615</duration>
												<timecode>
													<rate>
														<timebase>25</timebase>
														<ntsc>FALSE</ntsc>
													</rate>
													<string>00:00:00:00</string>
													<frame>0</frame>
													<displayformat>NDF</displayformat>
													<reel>
														<name></name>
													</reel>
												</timecode>
												<media>
													<video>
														<duration>18000</duration>
														<samplecharacteristics>
															<rate>
																<timebase>25</timebase>
																<ntsc>FALSE</ntsc>
															</rate>
															<width>1920</width>
															<height>1080</height>
															<anamorphic>FALSE</anamorphic>
															<pixelaspectratio>square</pixelaspectratio>
															<fielddominance>none</fielddominance>
														</samplecharacteristics>
													</video>
													<audio>
														<samplecharacteristics>
															<depth>16</depth>
															<samplerate>48000</samplerate>
														</samplecharacteristics>
														<channelcount>1</channelcount>
														<layout>mono</layout>
														<audiochannel>
															<sourcechannel>1</sourcechannel>
															<channellabel>discrete</channellabel>
														</audiochannel>
													</audio>
													<audio>
														<samplecharacteristics>
															<depth>16</depth>
															<samplerate>48000</samplerate>
														</samplecharacteristics>
														<channelcount>1</channelcount>
														<layout>mono</layout>
														<audiochannel>
															<sourcechannel>2</sourcechannel>
															<channellabel>discrete</channellabel>
														</audiochannel>
													</audio>
												</media>
											</file>
											<logginginfo>
												<description></description>
												<scene></scene>
												<shottake></shottake>
												<lognote></lognote>
											</logginginfo>
											<labels>
												<label2>Iris</label2>
											</labels>
										</clipitem>
										<enabled>TRUE</enabled>
										<locked>FALSE</locked>
									</track>
								</video>
								<audio>
									<format>
										<samplecharacteristics>
											<depth>16</depth>
											<samplerate>48000</samplerate>
										</samplecharacteristics>
									</format>
									<outputs>
										<group>
											<index>1</index>
											<numchannels>1</numchannels>
											<downmix>0</downmix>
											<channel>
												<index>1</index>
											</channel>
										</group>
										<group>
											<index>2</index>
											<numchannels>1</numchannels>
											<downmix>0</downmix>
											<channel>
												<index>2</index>
											</channel>
										</group>
										<group>
											<index>3</index>
											<numchannels>1</numchannels>
											<downmix>0</downmix>
											<channel>
												<index>3</index>
											</channel>
										</group>
										<group>
											<index>4</index>
											<numchannels>1</numchannels>
											<downmix>0</downmix>
											<channel>
												<index>4</index>
											</channel>
										</group>
										<group>
											<index>5</index>
											<numchannels>1</numchannels>
											<downmix>0</downmix>
											<channel>
												<index>5</index>
											</channel>
										</group>
										<group>
											<index>6</index>
											<numchannels>1</numchannels>
											<downmix>0</downmix>
											<channel>
												<index>6</index>
											</channel>
										</group>
										<group>
											<index>7</index>
											<numchannels>1</numchannels>
											<downmix>0</downmix>
											<channel>
												<index>7</index>
											</channel>
										</group>
										<group>
											<index>8</index>
											<numchannels>1</numchannels>
											<downmix>0</downmix>
											<channel>
												<index>8</index>
											</channel>
										</group>
										<group>
											<index>9</index>
											<numchannels>1</numchannels>
											<downmix>0</downmix>
											<channel>
												<index>9</index>
											</channel>
										</group>
										<group>
											<index>10</index>
											<numchannels>1</numchannels>
											<downmix>0</downmix>
											<channel>
												<index>10</index>
											</channel>
										</group>
										<group>
											<index>11</index>
											<numchannels>1</numchannels>
											<downmix>0</downmix>
											<channel>
												<index>11</index>
											</channel>
										</group>
										<group>
											<index>12</index>
											<numchannels>1</numchannels>
											<downmix>0</downmix>
											<channel>
												<index>12</index>
											</channel>
										</group>
										<group>
											<index>13</index>
											<numchannels>1</numchannels>
											<downmix>0</downmix>
											<channel>
												<index>13</index>
											</channel>
										</group>
										<group>
											<index>14</index>
											<numchannels>1</numchannels>
											<downmix>0</downmix>
											<channel>
												<index>14</index>
											</channel>
										</group>
										<group>
											<index>15</index>
											<numchannels>1</numchannels>
											<downmix>0</downmix>
											<channel>
												<index>15</index>
											</channel>
										</group>
										<group>
											<index>16</index>
											<numchannels>1</numchannels>
											<downmix>0</downmix>
											<channel>
												<index>16</index>
											</channel>
										</group>
									</outputs>
									<track TL.SQTrackAudioKeyframeStyle="0" TL.SQTrackShy="0" TL.SQTrackExpandedHeight="25" TL.SQTrackExpanded="0" MZ.TrackTargeted="0" PannerCurrentValue="0.5" PannerIsInverted="true" PannerStartKeyframe="-91445760000000000,0.5,0,0,0,0,0,0" PannerName="Balance" currentExplodedTrackIndex="0" totalExplodedTrackCount="1" premiereTrackType="Stereo">
										<clipitem id="clipitem-756" frameBlend="FALSE" PannerCurrentValue="0.5" PannerKeyframes="" PannerStartKeyframe="-91445760000000000,0.5,0,0,0,0,0,0" PannerIsInverted="true" PannerName="Balance">
											<masterclipid>masterclip-170</masterclipid>
											<name>AA049901.MXF</name>
											<enabled>TRUE</enabled>
											<duration>19944</duration>
											<rate>
												<timebase>25</timebase>
												<ntsc>FALSE</ntsc>
											</rate>
											<start>609</start>
											<end>20553</end>
											<in>0</in>
											<out>19944</out>
											<file id="file-150"/>
											<sourcetrack>
												<mediatype>audio</mediatype>
												<trackindex>2</trackindex>
											</sourcetrack>
												<filter>
													<effect>
														<name>Audio Pan</name>
														<effectid>audiopan</effectid>
														<effectcategory>audiopan</effectcategory>
														<effecttype>audiopan</effecttype>
														<mediatype>audio</mediatype>
														<parameter authoringApp="PremierePro">
															<parameterid>pan</parameterid>
															<name>Pan</name>
															<valuemin>-1</valuemin>
															<valuemax>1</valuemax>
															<value>0</value>
														</parameter>
													</effect>
												</filter>
											<logginginfo>
												<description></description>
												<scene></scene>
												<shottake>AA0499</shottake>
												<lognote></lognote>
											</logginginfo>
											<labels>
												<label2>Iris</label2>
											</labels>
										</clipitem>
										<enabled>TRUE</enabled>
										<locked>FALSE</locked>
										<outputchannelindex>7</outputchannelindex>
									</track>
								</audio>
							</media>
							<timecode>
								<rate>
									<timebase>25</timebase>
									<ntsc>FALSE</ntsc>
								</rate>
								<string>00:00:00:00</string>
								<frame>0</frame>
								<displayformat>NDF</displayformat>
							</timecode>
						</sequence>
							<marker>
								<comment></comment>
								<name></name>
								<in>4526</in>
								<out>-1</out>
							</marker>
							<marker>
								<comment>bedre for meg? mer bekvemt</comment>
								<name>det blir jo bedre</name>
								<in>12403</in>
								<out>-1</out>
							</marker>
							<marker>
								<comment></comment>
								<name></name>
								<in>10020</in>
								<out>-1</out>
							</marker>
							<marker>
								<comment></comment>
								<name></name>
								<in>6238</in>
								<out>-1</out>
							</marker>
							<marker>
								<comment></comment>
								<name></name>
								<in>7411</in>
								<out>-1</out>
							</marker>
							<marker>
								<comment></comment>
								<name></name>
								<in>10932</in>
								<out>-1</out>
							</marker>
							<marker>
								<comment></comment>
								<name></name>
								<in>5749</in>
								<out>-1</out>
							</marker>
							<marker>
								<comment></comment>
								<name></name>
								<in>8605</in>
								<out>-1</out>
							</marker>
							<marker>
								<comment>hei, sa du hva var det jeg sa, og det kanskje skjer i NorgE?</comment>
								<name>NSA</name>
								<in>19361</in>
								<out>-1</out>
							</marker>
							<marker>
								<comment></comment>
								<name></name>
								<in>3544</in>
								<out>-1</out>
							</marker>
							<marker>
								<comment></comment>
								<name></name>
								<in>9067</in>
								<out>-1</out>
							</marker>
							<marker>
								<comment></comment>
								<name></name>
								<in>1608</in>
								<out>-1</out>
							</marker>
						<labels>
							<label2>Forest</label2>
						</labels>
					</clipitem>
					<clipitem id="clipitem-762" frameBlend="FALSE">
						<masterclipid>masterclip-168</masterclipid>
						<name>AA049801.MXFMulticam case</name>
						<enabled>TRUE</enabled>
						<duration>20553</duration>
						<rate>
							<timebase>25</timebase>
							<ntsc>FALSE</ntsc>
						</rate>
						<start>26464</start>
						<end>26534</end>
						<in>12575</in>
						<out>12645</out>
						<sequence id="sequence-80"/>
							<marker>
								<comment></comment>
								<name></name>
								<in>4526</in>
								<out>-1</out>
							</marker>
							<marker>
								<comment>bedre for meg? mer bekvemt</comment>
								<name>det blir jo bedre</name>
								<in>12403</in>
								<out>-1</out>
							</marker>
							<marker>
								<comment></comment>
								<name></name>
								<in>10020</in>
								<out>-1</out>
							</marker>
							<marker>
								<comment></comment>
								<name></name>
								<in>6238</in>
								<out>-1</out>
							</marker>
							<marker>
								<comment></comment>
								<name></name>
								<in>7411</in>
								<out>-1</out>
							</marker>
							<marker>
								<comment></comment>
								<name></name>
								<in>10932</in>
								<out>-1</out>
							</marker>
							<marker>
								<comment></comment>
								<name></name>
								<in>5749</in>
								<out>-1</out>
							</marker>
							<marker>
								<comment></comment>
								<name></name>
								<in>8605</in>
								<out>-1</out>
							</marker>
							<marker>
								<comment>hei, sa du hva var det jeg sa, og det kanskje skjer i NorgE?</comment>
								<name>NSA</name>
								<in>19361</in>
								<out>-1</out>
							</marker>
							<marker>
								<comment></comment>
								<name></name>
								<in>3544</in>
								<out>-1</out>
							</marker>
							<marker>
								<comment></comment>
								<name></name>
								<in>9067</in>
								<out>-1</out>
							</marker>
							<marker>
								<comment></comment>
								<name></name>
								<in>1608</in>
								<out>-1</out>
							</marker>
						<labels>
							<label2>Forest</label2>
						</labels>
					</clipitem>
					<clipitem id="clipitem-763" frameBlend="FALSE">
						<masterclipid>masterclip-168</masterclipid>
						<name>AA049801.MXFMulticam case</name>
						<enabled>TRUE</enabled>
						<duration>20553</duration>
						<rate>
							<timebase>25</timebase>
							<ntsc>FALSE</ntsc>
						</rate>
						<start>26534</start>
						<end>26619</end>
						<in>12645</in>
						<out>12730</out>
						<sequence id="sequence-82"/>
							<marker>
								<comment></comment>
								<name></name>
								<in>4526</in>
								<out>-1</out>
							</marker>
							<marker>
								<comment>bedre for meg? mer bekvemt</comment>
								<name>det blir jo bedre</name>
								<in>12403</in>
								<out>-1</out>
							</marker>
							<marker>
								<comment></comment>
								<name></name>
								<in>10020</in>
								<out>-1</out>
							</marker>
							<marker>
								<comment></comment>
								<name></name>
								<in>6238</in>
								<out>-1</out>
							</marker>
							<marker>
								<comment></comment>
								<name></name>
								<in>7411</in>
								<out>-1</out>
							</marker>
							<marker>
								<comment></comment>
								<name></name>
								<in>10932</in>
								<out>-1</out>
							</marker>
							<marker>
								<comment></comment>
								<name></name>
								<in>5749</in>
								<out>-1</out>
							</marker>
							<marker>
								<comment></comment>
								<name></name>
								<in>8605</in>
								<out>-1</out>
							</marker>
							<marker>
								<comment>hei, sa du hva var det jeg sa, og det kanskje skjer i NorgE?</comment>
								<name>NSA</name>
								<in>19361</in>
								<out>-1</out>
							</marker>
							<marker>
								<comment></comment>
								<name></name>
								<in>3544</in>
								<out>-1</out>
							</marker>
							<marker>
								<comment></comment>
								<name></name>
								<in>9067</in>
								<out>-1</out>
							</marker>
							<marker>
								<comment></comment>
								<name></name>
								<in>1608</in>
								<out>-1</out>
							</marker>
						<labels>
							<label2>Forest</label2>
						</labels>
					</clipitem>
					<clipitem id="clipitem-764" frameBlend="FALSE">
						<masterclipid>masterclip-168</masterclipid>
						<name>AA049801.MXFMulticam case</name>
						<enabled>TRUE</enabled>
						<duration>20553</duration>
						<rate>
							<timebase>25</timebase>
							<ntsc>FALSE</ntsc>
						</rate>
						<start>26619</start>
						<end>26753</end>
						<in>15152</in>
						<out>15286</out>
						<sequence id="sequence-80"/>
							<marker>
								<comment></comment>
								<name></name>
								<in>4526</in>
								<out>-1</out>
							</marker>
							<marker>
								<comment>bedre for meg? mer bekvemt</comment>
								<name>det blir jo bedre</name>
								<in>12403</in>
								<out>-1</out>
							</marker>
							<marker>
								<comment></comment>
								<name></name>
								<in>10020</in>
								<out>-1</out>
							</marker>
							<marker>
								<comment></comment>
								<name></name>
								<in>6238</in>
								<out>-1</out>
							</marker>
							<marker>
								<comment></comment>
								<name></name>
								<in>7411</in>
								<out>-1</out>
							</marker>
							<marker>
								<comment></comment>
								<name></name>
								<in>10932</in>
								<out>-1</out>
							</marker>
							<marker>
								<comment></comment>
								<name></name>
								<in>5749</in>
								<out>-1</out>
							</marker>
							<marker>
								<comment></comment>
								<name></name>
								<in>8605</in>
								<out>-1</out>
							</marker>
							<marker>
								<comment>hei, sa du hva var det jeg sa, og det kanskje skjer i NorgE?</comment>
								<name>NSA</name>
								<in>19361</in>
								<out>-1</out>
							</marker>
							<marker>
								<comment></comment>
								<name></name>
								<in>3544</in>
								<out>-1</out>
							</marker>
							<marker>
								<comment></comment>
								<name></name>
								<in>9067</in>
								<out>-1</out>
							</marker>
							<marker>
								<comment></comment>
								<name></name>
								<in>1608</in>
								<out>-1</out>
							</marker>
						<link>
							<linkclipref>clipitem-764</linkclipref>
							<mediatype>video</mediatype>
							<trackindex>1</trackindex>
							<clipindex>224</clipindex>
						</link>
						<link>
							<linkclipref>clipitem-1228</linkclipref>
							<mediatype>audio</mediatype>
							<trackindex>1</trackindex>
							<clipindex>117</clipindex>
						</link>
						<link>
							<linkclipref>clipitem-1448</linkclipref>
							<mediatype>audio</mediatype>
							<trackindex>3</trackindex>
							<clipindex>96</clipindex>
						</link>
						<labels>
							<label2>Forest</label2>
						</labels>
					</clipitem>
					<clipitem id="clipitem-765" frameBlend="FALSE">
						<masterclipid>masterclip-168</masterclipid>
						<name>AA049801.MXFMulticam case</name>
						<enabled>TRUE</enabled>
						<duration>20553</duration>
						<rate>
							<timebase>25</timebase>
							<ntsc>FALSE</ntsc>
						</rate>
						<start>26753</start>
						<end>26938</end>
						<in>15286</in>
						<out>15471</out>
						<sequence id="sequence-80"/>
							<marker>
								<comment></comment>
								<name></name>
								<in>4526</in>
								<out>-1</out>
							</marker>
							<marker>
								<comment>bedre for meg? mer bekvemt</comment>
								<name>det blir jo bedre</name>
								<in>12403</in>
								<out>-1</out>
							</marker>
							<marker>
								<comment></comment>
								<name></name>
								<in>10020</in>
								<out>-1</out>
							</marker>
							<marker>
								<comment></comment>
								<name></name>
								<in>6238</in>
								<out>-1</out>
							</marker>
							<marker>
								<comment></comment>
								<name></name>
								<in>7411</in>
								<out>-1</out>
							</marker>
							<marker>
								<comment></comment>
								<name></name>
								<in>10932</in>
								<out>-1</out>
							</marker>
							<marker>
								<comment></comment>
								<name></name>
								<in>5749</in>
								<out>-1</out>
							</marker>
							<marker>
								<comment></comment>
								<name></name>
								<in>8605</in>
								<out>-1</out>
							</marker>
							<marker>
								<comment>hei, sa du hva var det jeg sa, og det kanskje skjer i NorgE?</comment>
								<name>NSA</name>
								<in>19361</in>
								<out>-1</out>
							</marker>
							<marker>
								<comment></comment>
								<name></name>
								<in>3544</in>
								<out>-1</out>
							</marker>
							<marker>
								<comment></comment>
								<name></name>
								<in>9067</in>
								<out>-1</out>
							</marker>
							<marker>
								<comment></comment>
								<name></name>
								<in>1608</in>
								<out>-1</out>
							</marker>
						<labels>
							<label2>Forest</label2>
						</labels>
					</clipitem>
					<clipitem id="clipitem-766" frameBlend="FALSE">
						<masterclipid>masterclip-168</masterclipid>
						<name>AA049801.MXFMulticam case</name>
						<enabled>TRUE</enabled>
						<duration>20553</duration>
						<rate>
							<timebase>25</timebase>
							<ntsc>FALSE</ntsc>
						</rate>
						<start>26938</start>
						<end>27015</end>
						<in>15471</in>
						<out>15548</out>
						<sequence id="sequence-82"/>
							<marker>
								<comment></comment>
								<name></name>
								<in>4526</in>
								<out>-1</out>
							</marker>
							<marker>
								<comment>bedre for meg? mer bekvemt</comment>
								<name>det blir jo bedre</name>
								<in>12403</in>
								<out>-1</out>
							</marker>
							<marker>
								<comment></comment>
								<name></name>
								<in>10020</in>
								<out>-1</out>
							</marker>
							<marker>
								<comment></comment>
								<name></name>
								<in>6238</in>
								<out>-1</out>
							</marker>
							<marker>
								<comment></comment>
								<name></name>
								<in>7411</in>
								<out>-1</out>
							</marker>
							<marker>
								<comment></comment>
								<name></name>
								<in>10932</in>
								<out>-1</out>
							</marker>
							<marker>
								<comment></comment>
								<name></name>
								<in>5749</in>
								<out>-1</out>
							</marker>
							<marker>
								<comment></comment>
								<name></name>
								<in>8605</in>
								<out>-1</out>
							</marker>
							<marker>
								<comment>hei, sa du hva var det jeg sa, og det kanskje skjer i NorgE?</comment>
								<name>NSA</name>
								<in>19361</in>
								<out>-1</out>
							</marker>
							<marker>
								<comment></comment>
								<name></name>
								<in>3544</in>
								<out>-1</out>
							</marker>
							<marker>
								<comment></comment>
								<name></name>
								<in>9067</in>
								<out>-1</out>
							</marker>
							<marker>
								<comment></comment>
								<name></name>
								<in>1608</in>
								<out>-1</out>
							</marker>
						<labels>
							<label2>Forest</label2>
						</labels>
					</clipitem>
					<clipitem id="clipitem-767" frameBlend="FALSE">
						<masterclipid>masterclip-168</masterclipid>
						<name>AA049801.MXFMulticam case</name>
						<enabled>TRUE</enabled>
						<duration>20553</duration>
						<rate>
							<timebase>25</timebase>
							<ntsc>FALSE</ntsc>
						</rate>
						<start>27015</start>
						<end>27253</end>
						<in>15548</in>
						<out>15786</out>
						<sequence id="sequence-80"/>
							<marker>
								<comment></comment>
								<name></name>
								<in>4526</in>
								<out>-1</out>
							</marker>
							<marker>
								<comment>bedre for meg? mer bekvemt</comment>
								<name>det blir jo bedre</name>
								<in>12403</in>
								<out>-1</out>
							</marker>
							<marker>
								<comment></comment>
								<name></name>
								<in>10020</in>
								<out>-1</out>
							</marker>
							<marker>
								<comment></comment>
								<name></name>
								<in>6238</in>
								<out>-1</out>
							</marker>
							<marker>
								<comment></comment>
								<name></name>
								<in>7411</in>
								<out>-1</out>
							</marker>
							<marker>
								<comment></comment>
								<name></name>
								<in>10932</in>
								<out>-1</out>
							</marker>
							<marker>
								<comment></comment>
								<name></name>
								<in>5749</in>
								<out>-1</out>
							</marker>
							<marker>
								<comment></comment>
								<name></name>
								<in>8605</in>
								<out>-1</out>
							</marker>
							<marker>
								<comment>hei, sa du hva var det jeg sa, og det kanskje skjer i NorgE?</comment>
								<name>NSA</name>
								<in>19361</in>
								<out>-1</out>
							</marker>
							<marker>
								<comment></comment>
								<name></name>
								<in>3544</in>
								<out>-1</out>
							</marker>
							<marker>
								<comment></comment>
								<name></name>
								<in>9067</in>
								<out>-1</out>
							</marker>
							<marker>
								<comment></comment>
								<name></name>
								<in>1608</in>
								<out>-1</out>
							</marker>
						<labels>
							<label2>Forest</label2>
						</labels>
					</clipitem>
					<clipitem id="clipitem-768" frameBlend="FALSE">
						<masterclipid>masterclip-174</masterclipid>
						<name>SNOWDEN-ASYL-100613-DR1900.mxf</name>
						<enabled>TRUE</enabled>
						<duration>2947</duration>
						<rate>
							<timebase>25</timebase>
							<ntsc>FALSE</ntsc>
						</rate>
						<start>27253</start>
						<end>27334</end>
						<in>2866</in>
						<out>2947</out>
						<alphatype>none</alphatype>
						<pixelaspectratio>PAL-601</pixelaspectratio>
						<anamorphic>TRUE</anamorphic>
						<file id="file-154">
							<name>SNOWDEN-ASYL-100613-DR1900.mxf</name>
							<pathurl>file://localhost/Volumes/Brakka/AdobeLager/Katta/Katta-14xxxx-Smart_eller_overvaaket-Chris/02-Video/Arkiv/SNOWDEN-ASYL-100613-DR1900.mxf</pathurl>
							<rate>
								<timebase>25</timebase>
								<ntsc>FALSE</ntsc>
							</rate>
							<duration>2947</duration>
							<timecode>
								<rate>
									<timebase>25</timebase>
									<ntsc>FALSE</ntsc>
								</rate>
								<string>00:00:08:03</string>
								<frame>203</frame>
								<displayformat>NDF</displayformat>
								<reel>
									<name></name>
								</reel>
							</timecode>
							<media>
								<video>
									<duration>18000</duration>
									<samplecharacteristics>
										<rate>
											<timebase>25</timebase>
											<ntsc>FALSE</ntsc>
										</rate>
										<width>720</width>
										<height>576</height>
										<anamorphic>TRUE</anamorphic>
										<pixelaspectratio>PAL-601</pixelaspectratio>
										<fielddominance>upper</fielddominance>
									</samplecharacteristics>
								</video>
								<audio>
									<samplecharacteristics>
										<depth>16</depth>
										<samplerate>48000</samplerate>
									</samplecharacteristics>
									<channelcount>1</channelcount>
									<layout>mono</layout>
									<audiochannel>
										<sourcechannel>1</sourcechannel>
										<channellabel>discrete</channellabel>
									</audiochannel>
								</audio>
								<audio>
									<samplecharacteristics>
										<depth>16</depth>
										<samplerate>48000</samplerate>
									</samplecharacteristics>
									<channelcount>1</channelcount>
									<layout>mono</layout>
									<audiochannel>
										<sourcechannel>2</sourcechannel>
										<channellabel>discrete</channellabel>
									</audiochannel>
								</audio>
								<audio>
									<samplecharacteristics>
										<depth>16</depth>
										<samplerate>48000</samplerate>
									</samplecharacteristics>
									<channelcount>1</channelcount>
									<layout>mono</layout>
									<audiochannel>
										<sourcechannel>3</sourcechannel>
										<channellabel>discrete</channellabel>
									</audiochannel>
								</audio>
								<audio>
									<samplecharacteristics>
										<depth>16</depth>
										<samplerate>48000</samplerate>
									</samplecharacteristics>
									<channelcount>1</channelcount>
									<layout>mono</layout>
									<audiochannel>
										<sourcechannel>4</sourcechannel>
										<channellabel>discrete</channellabel>
									</audiochannel>
								</audio>
							</media>
						</file>
							<filter>
								<effect>
									<name>Basic Motion</name>
									<effectid>basic</effectid>
									<effectcategory>motion</effectcategory>
									<effecttype>motion</effecttype>
									<mediatype>video</mediatype>
									<parameter authoringApp="PremierePro">
										<parameterid>scale</parameterid>
										<name>Scale</name>
										<valuemin>0</valuemin>
										<valuemax>1000</valuemax>
										<value>190</value>
									</parameter>
									<parameter authoringApp="PremierePro">
										<parameterid>rotation</parameterid>
										<name>Rotation</name>
										<valuemin>-8640</valuemin>
										<valuemax>8640</valuemax>
										<value>0</value>
									</parameter>
									<parameter authoringApp="PremierePro">
										<parameterid>center</parameterid>
										<name>Center</name>
										<value>
											<horiz>0</horiz>
											<vert>0</vert>
										</value>
									</parameter>
									<parameter authoringApp="PremierePro">
										<parameterid>centerOffset</parameterid>
										<name>Anchor Point</name>
										<value>
											<horiz>0</horiz>
											<vert>0</vert>
										</value>
									</parameter>
								</effect>
							</filter>
							<filter>
								<effect>
									<name>Distort</name>
									<effectid>deformation</effectid>
									<effectcategory>motion</effectcategory>
									<effecttype>motion</effecttype>
									<mediatype>video</mediatype>
									<parameter authoringApp="PremierePro">
										<parameterid>aspect</parameterid>
										<name>Aspect</name>
										<valuemin>-10000</valuemin>
										<valuemax>10000</valuemax>
										<value>-45.8689</value>
									</parameter>
								</effect>
							</filter>
						<link>
							<linkclipref>clipitem-768</linkclipref>
							<mediatype>video</mediatype>
							<trackindex>1</trackindex>
							<clipindex>228</clipindex>
						</link>
						<link>
							<linkclipref>clipitem-1558</linkclipref>
							<mediatype>audio</mediatype>
							<trackindex>5</trackindex>
							<clipindex>58</clipindex>
						</link>
						<link>
							<linkclipref>clipitem-1629</linkclipref>
							<mediatype>audio</mediatype>
							<trackindex>7</trackindex>
							<clipindex>51</clipindex>
						</link>
						<logginginfo>
							<description></description>
							<scene></scene>
							<shottake></shottake>
							<lognote></lognote>
						</logginginfo>
						<labels>
							<label2>Iris</label2>
						</labels>
					</clipitem>
					<clipitem id="clipitem-769" frameBlend="FALSE">
						<masterclipid>masterclip-174</masterclipid>
						<name>SNOWDEN-ASYL-100613-DR1900.mxf</name>
						<enabled>TRUE</enabled>
						<duration>2947</duration>
						<rate>
							<timebase>25</timebase>
							<ntsc>FALSE</ntsc>
						</rate>
						<start>27334</start>
						<end>27420</end>
						<in>120</in>
						<out>206</out>
						<alphatype>none</alphatype>
						<file id="file-154"/>
							<filter>
								<effect>
									<name>Basic Motion</name>
									<effectid>basic</effectid>
									<effectcategory>motion</effectcategory>
									<effecttype>motion</effecttype>
									<mediatype>video</mediatype>
									<parameter authoringApp="PremierePro">
										<parameterid>scale</parameterid>
										<name>Scale</name>
										<valuemin>0</valuemin>
										<valuemax>1000</valuemax>
										<value>190</value>
									</parameter>
									<parameter authoringApp="PremierePro">
										<parameterid>rotation</parameterid>
										<name>Rotation</name>
										<valuemin>-8640</valuemin>
										<valuemax>8640</valuemax>
										<value>0</value>
									</parameter>
									<parameter authoringApp="PremierePro">
										<parameterid>center</parameterid>
										<name>Center</name>
										<value>
											<horiz>0</horiz>
											<vert>0</vert>
										</value>
									</parameter>
									<parameter authoringApp="PremierePro">
										<parameterid>centerOffset</parameterid>
										<name>Anchor Point</name>
										<value>
											<horiz>0</horiz>
											<vert>0</vert>
										</value>
									</parameter>
								</effect>
							</filter>
							<filter>
								<effect>
									<name>Distort</name>
									<effectid>deformation</effectid>
									<effectcategory>motion</effectcategory>
									<effecttype>motion</effecttype>
									<mediatype>video</mediatype>
									<parameter authoringApp="PremierePro">
										<parameterid>aspect</parameterid>
										<name>Aspect</name>
										<valuemin>-10000</valuemin>
										<valuemax>10000</valuemax>
										<value>-45.8689</value>
									</parameter>
								</effect>
							</filter>
						<link>
							<linkclipref>clipitem-769</linkclipref>
							<mediatype>video</mediatype>
							<trackindex>1</trackindex>
							<clipindex>229</clipindex>
						</link>
						<link>
							<linkclipref>clipitem-1559</linkclipref>
							<mediatype>audio</mediatype>
							<trackindex>5</trackindex>
							<clipindex>59</clipindex>
						</link>
						<link>
							<linkclipref>clipitem-1630</linkclipref>
							<mediatype>audio</mediatype>
							<trackindex>7</trackindex>
							<clipindex>52</clipindex>
						</link>
						<logginginfo>
							<description></description>
							<scene></scene>
							<shottake></shottake>
							<lognote></lognote>
						</logginginfo>
						<labels>
							<label2>Iris</label2>
						</labels>
					</clipitem>
					<clipitem id="clipitem-770" frameBlend="FALSE">
						<masterclipid>masterclip-174</masterclipid>
						<name>SNOWDEN-ASYL-100613-DR1900.mxf</name>
						<enabled>TRUE</enabled>
						<duration>2947</duration>
						<rate>
							<timebase>25</timebase>
							<ntsc>FALSE</ntsc>
						</rate>
						<start>27420</start>
						<end>27469</end>
						<in>307</in>
						<out>356</out>
						<alphatype>none</alphatype>
						<file id="file-154"/>
							<filter>
								<effect>
									<name>Basic Motion</name>
									<effectid>basic</effectid>
									<effectcategory>motion</effectcategory>
									<effecttype>motion</effecttype>
									<mediatype>video</mediatype>
									<parameter authoringApp="PremierePro">
										<parameterid>scale</parameterid>
										<name>Scale</name>
										<valuemin>0</valuemin>
										<valuemax>1000</valuemax>
										<value>190</value>
									</parameter>
									<parameter authoringApp="PremierePro">
										<parameterid>rotation</parameterid>
										<name>Rotation</name>
										<valuemin>-8640</valuemin>
										<valuemax>8640</valuemax>
										<value>0</value>
									</parameter>
									<parameter authoringApp="PremierePro">
										<parameterid>center</parameterid>
										<name>Center</name>
										<value>
											<horiz>0</horiz>
											<vert>0</vert>
										</value>
									</parameter>
									<parameter authoringApp="PremierePro">
										<parameterid>centerOffset</parameterid>
										<name>Anchor Point</name>
										<value>
											<horiz>0</horiz>
											<vert>0</vert>
										</value>
									</parameter>
								</effect>
							</filter>
							<filter>
								<effect>
									<name>Distort</name>
									<effectid>deformation</effectid>
									<effectcategory>motion</effectcategory>
									<effecttype>motion</effecttype>
									<mediatype>video</mediatype>
									<parameter authoringApp="PremierePro">
										<parameterid>aspect</parameterid>
										<name>Aspect</name>
										<valuemin>-10000</valuemin>
										<valuemax>10000</valuemax>
										<value>-45.8689</value>
									</parameter>
								</effect>
							</filter>
						<link>
							<linkclipref>clipitem-770</linkclipref>
							<mediatype>video</mediatype>
							<trackindex>1</trackindex>
							<clipindex>230</clipindex>
						</link>
						<link>
							<linkclipref>clipitem-1560</linkclipref>
							<mediatype>audio</mediatype>
							<trackindex>5</trackindex>
							<clipindex>60</clipindex>
						</link>
						<link>
							<linkclipref>clipitem-1631</linkclipref>
							<mediatype>audio</mediatype>
							<trackindex>7</trackindex>
							<clipindex>53</clipindex>
						</link>
						<logginginfo>
							<description></description>
							<scene></scene>
							<shottake></shottake>
							<lognote></lognote>
						</logginginfo>
						<labels>
							<label2>Iris</label2>
						</labels>
					</clipitem>
					<clipitem id="clipitem-771" frameBlend="FALSE">
						<masterclipid>masterclip-174</masterclipid>
						<name>SNOWDEN-ASYL-100613-DR1900.mxf</name>
						<enabled>TRUE</enabled>
						<duration>2947</duration>
						<rate>
							<timebase>25</timebase>
							<ntsc>FALSE</ntsc>
						</rate>
						<start>27469</start>
						<end>27567</end>
						<in>1321</in>
						<out>1419</out>
						<alphatype>none</alphatype>
						<file id="file-154"/>
							<filter>
								<effect>
									<name>Basic Motion</name>
									<effectid>basic</effectid>
									<effectcategory>motion</effectcategory>
									<effecttype>motion</effecttype>
									<mediatype>video</mediatype>
									<parameter authoringApp="PremierePro">
										<parameterid>scale</parameterid>
										<name>Scale</name>
										<valuemin>0</valuemin>
										<valuemax>1000</valuemax>
										<value>190</value>
									</parameter>
									<parameter authoringApp="PremierePro">
										<parameterid>rotation</parameterid>
										<name>Rotation</name>
										<valuemin>-8640</valuemin>
										<valuemax>8640</valuemax>
										<value>0</value>
									</parameter>
									<parameter authoringApp="PremierePro">
										<parameterid>center</parameterid>
										<name>Center</name>
										<value>
											<horiz>0</horiz>
											<vert>0</vert>
										</value>
									</parameter>
									<parameter authoringApp="PremierePro">
										<parameterid>centerOffset</parameterid>
										<name>Anchor Point</name>
										<value>
											<horiz>0</horiz>
											<vert>0</vert>
										</value>
									</parameter>
								</effect>
							</filter>
							<filter>
								<effect>
									<name>Distort</name>
									<effectid>deformation</effectid>
									<effectcategory>motion</effectcategory>
									<effecttype>motion</effecttype>
									<mediatype>video</mediatype>
									<parameter authoringApp="PremierePro">
										<parameterid>aspect</parameterid>
										<name>Aspect</name>
										<valuemin>-10000</valuemin>
										<valuemax>10000</valuemax>
										<value>-45.8689</value>
									</parameter>
								</effect>
							</filter>
						<link>
							<linkclipref>clipitem-771</linkclipref>
							<mediatype>video</mediatype>
							<trackindex>1</trackindex>
							<clipindex>231</clipindex>
						</link>
						<link>
							<linkclipref>clipitem-1561</linkclipref>
							<mediatype>audio</mediatype>
							<trackindex>5</trackindex>
							<clipindex>61</clipindex>
						</link>
						<link>
							<linkclipref>clipitem-1632</linkclipref>
							<mediatype>audio</mediatype>
							<trackindex>7</trackindex>
							<clipindex>54</clipindex>
						</link>
						<logginginfo>
							<description></description>
							<scene></scene>
							<shottake></shottake>
							<lognote></lognote>
						</logginginfo>
						<labels>
							<label2>Iris</label2>
						</labels>
					</clipitem>
					<clipitem id="clipitem-772" frameBlend="FALSE">
						<masterclipid>masterclip-174</masterclipid>
						<name>SNOWDEN-ASYL-100613-DR1900.mxf</name>
						<enabled>TRUE</enabled>
						<duration>2947</duration>
						<rate>
							<timebase>25</timebase>
							<ntsc>FALSE</ntsc>
						</rate>
						<start>27567</start>
						<end>27622</end>
						<in>365</in>
						<out>420</out>
						<alphatype>none</alphatype>
						<file id="file-154"/>
							<filter>
								<effect>
									<name>Basic Motion</name>
									<effectid>basic</effectid>
									<effectcategory>motion</effectcategory>
									<effecttype>motion</effecttype>
									<mediatype>video</mediatype>
									<parameter authoringApp="PremierePro">
										<parameterid>scale</parameterid>
										<name>Scale</name>
										<valuemin>0</valuemin>
										<valuemax>1000</valuemax>
										<value>190</value>
									</parameter>
									<parameter authoringApp="PremierePro">
										<parameterid>rotation</parameterid>
										<name>Rotation</name>
										<valuemin>-8640</valuemin>
										<valuemax>8640</valuemax>
										<value>0</value>
									</parameter>
									<parameter authoringApp="PremierePro">
										<parameterid>center</parameterid>
										<name>Center</name>
										<value>
											<horiz>0</horiz>
											<vert>0</vert>
										</value>
									</parameter>
									<parameter authoringApp="PremierePro">
										<parameterid>centerOffset</parameterid>
										<name>Anchor Point</name>
										<value>
											<horiz>0</horiz>
											<vert>0</vert>
										</value>
									</parameter>
								</effect>
							</filter>
							<filter>
								<effect>
									<name>Distort</name>
									<effectid>deformation</effectid>
									<effectcategory>motion</effectcategory>
									<effecttype>motion</effecttype>
									<mediatype>video</mediatype>
									<parameter authoringApp="PremierePro">
										<parameterid>aspect</parameterid>
										<name>Aspect</name>
										<valuemin>-10000</valuemin>
										<valuemax>10000</valuemax>
										<value>-45.8689</value>
									</parameter>
								</effect>
							</filter>
						<link>
							<linkclipref>clipitem-772</linkclipref>
							<mediatype>video</mediatype>
							<trackindex>1</trackindex>
							<clipindex>232</clipindex>
						</link>
						<link>
							<linkclipref>clipitem-1562</linkclipref>
							<mediatype>audio</mediatype>
							<trackindex>5</trackindex>
							<clipindex>62</clipindex>
						</link>
						<link>
							<linkclipref>clipitem-1633</linkclipref>
							<mediatype>audio</mediatype>
							<trackindex>7</trackindex>
							<clipindex>55</clipindex>
						</link>
						<logginginfo>
							<description></description>
							<scene></scene>
							<shottake></shottake>
							<lognote></lognote>
						</logginginfo>
						<labels>
							<label2>Iris</label2>
						</labels>
					</clipitem>
					<clipitem id="clipitem-773" frameBlend="FALSE">
						<masterclipid>masterclip-175</masterclipid>
						<name>AA050201.MXF</name>
						<enabled>TRUE</enabled>
						<duration>2028</duration>
						<rate>
							<timebase>25</timebase>
							<ntsc>FALSE</ntsc>
						</rate>
						<start>27622</start>
						<end>27743</end>
						<in>866</in>
						<out>987</out>
						<alphatype>none</alphatype>
						<pixelaspectratio>square</pixelaspectratio>
						<anamorphic>FALSE</anamorphic>
						<file id="file-155">
							<name>AA050201.MXF</name>
							<pathurl>file://localhost/Volumes/Brakka/AdobeLager/Katta/Katta-14xxxx-Smart_eller_overvaaket-Chris/02-Video/Datatilsynet%20Case%20C300/CONTENTS/CLIPS001/AA0502/AA050201.MXF</pathurl>
							<rate>
								<timebase>25</timebase>
								<ntsc>FALSE</ntsc>
							</rate>
							<duration>2028</duration>
							<timecode>
								<rate>
									<timebase>25</timebase>
									<ntsc>FALSE</ntsc>
								</rate>
								<string>10:49:14:22</string>
								<frame>973872</frame>
								<displayformat>NDF</displayformat>
								<reel>
									<name></name>
								</reel>
							</timecode>
							<media>
								<video>
									<duration>18000</duration>
									<samplecharacteristics>
										<rate>
											<timebase>25</timebase>
											<ntsc>FALSE</ntsc>
										</rate>
										<width>1920</width>
										<height>1080</height>
										<anamorphic>FALSE</anamorphic>
										<pixelaspectratio>square</pixelaspectratio>
										<fielddominance>none</fielddominance>
									</samplecharacteristics>
								</video>
								<audio>
									<samplecharacteristics>
										<depth>16</depth>
										<samplerate>48000</samplerate>
									</samplecharacteristics>
									<channelcount>1</channelcount>
									<layout>mono</layout>
									<audiochannel>
										<sourcechannel>1</sourcechannel>
										<channellabel>discrete</channellabel>
									</audiochannel>
								</audio>
								<audio>
									<samplecharacteristics>
										<depth>16</depth>
										<samplerate>48000</samplerate>
									</samplecharacteristics>
									<channelcount>1</channelcount>
									<layout>mono</layout>
									<audiochannel>
										<sourcechannel>2</sourcechannel>
										<channellabel>discrete</channellabel>
									</audiochannel>
								</audio>
							</media>
						</file>
						<logginginfo>
							<description></description>
							<scene></scene>
							<shottake>AA0502</shottake>
							<lognote></lognote>
						</logginginfo>
						<labels>
							<label2>Iris</label2>
						</labels>
					</clipitem>
					<clipitem id="clipitem-774" frameBlend="FALSE">
						<masterclipid>masterclip-168</masterclipid>
						<name>AA049801.MXFMulticam case</name>
						<enabled>TRUE</enabled>
						<duration>20553</duration>
						<rate>
							<timebase>25</timebase>
							<ntsc>FALSE</ntsc>
						</rate>
						<start>27743</start>
						<end>28931</end>
						<in>19255</in>
						<out>20443</out>
						<sequence id="sequence-80"/>
							<marker>
								<comment></comment>
								<name></name>
								<in>4526</in>
								<out>-1</out>
							</marker>
							<marker>
								<comment>bedre for meg? mer bekvemt</comment>
								<name>det blir jo bedre</name>
								<in>12403</in>
								<out>-1</out>
							</marker>
							<marker>
								<comment></comment>
								<name></name>
								<in>10020</in>
								<out>-1</out>
							</marker>
							<marker>
								<comment></comment>
								<name></name>
								<in>6238</in>
								<out>-1</out>
							</marker>
							<marker>
								<comment></comment>
								<name></name>
								<in>7411</in>
								<out>-1</out>
							</marker>
							<marker>
								<comment></comment>
								<name></name>
								<in>10932</in>
								<out>-1</out>
							</marker>
							<marker>
								<comment></comment>
								<name></name>
								<in>5749</in>
								<out>-1</out>
							</marker>
							<marker>
								<comment></comment>
								<name></name>
								<in>8605</in>
								<out>-1</out>
							</marker>
							<marker>
								<comment>hei, sa du hva var det jeg sa, og det kanskje skjer i NorgE?</comment>
								<name>NSA</name>
								<in>19361</in>
								<out>-1</out>
							</marker>
							<marker>
								<comment></comment>
								<name></name>
								<in>3544</in>
								<out>-1</out>
							</marker>
							<marker>
								<comment></comment>
								<name></name>
								<in>9067</in>
								<out>-1</out>
							</marker>
							<marker>
								<comment></comment>
								<name></name>
								<in>1608</in>
								<out>-1</out>
							</marker>
						<link>
							<linkclipref>clipitem-774</linkclipref>
							<mediatype>video</mediatype>
							<trackindex>1</trackindex>
							<clipindex>234</clipindex>
						</link>
						<link>
							<linkclipref>clipitem-1229</linkclipref>
							<mediatype>audio</mediatype>
							<trackindex>1</trackindex>
							<clipindex>118</clipindex>
						</link>
						<link>
							<linkclipref>clipitem-1449</linkclipref>
							<mediatype>audio</mediatype>
							<trackindex>3</trackindex>
							<clipindex>97</clipindex>
						</link>
						<labels>
							<label2>Forest</label2>
						</labels>
					</clipitem>
					<clipitem id="clipitem-775" frameBlend="FALSE">
						<masterclipid>masterclip-175</masterclipid>
						<name>AA050201.MXF</name>
						<enabled>TRUE</enabled>
						<duration>2028</duration>
						<rate>
							<timebase>25</timebase>
							<ntsc>FALSE</ntsc>
						</rate>
						<start>28931</start>
						<end>28983</end>
						<in>621</in>
						<out>673</out>
						<alphatype>none</alphatype>
						<file id="file-155"/>
						<logginginfo>
							<description></description>
							<scene></scene>
							<shottake>AA0502</shottake>
							<lognote></lognote>
						</logginginfo>
						<labels>
							<label2>Iris</label2>
						</labels>
					</clipitem>
					<clipitem id="clipitem-776" frameBlend="FALSE">
						<masterclipid>masterclip-14</masterclipid>
						<name>AA050001.MXF</name>
						<enabled>TRUE</enabled>
						<duration>10644</duration>
						<rate>
							<timebase>25</timebase>
							<ntsc>FALSE</ntsc>
						</rate>
						<start>28983</start>
						<end>29067</end>
						<in>7733</in>
						<out>7817</out>
						<alphatype>none</alphatype>
						<file id="file-13"/>
							<marker>
								<comment>vi har valgmuligheter</comment>
								<name>ikke redd</name>
								<in>4502</in>
								<out>-1</out>
							</marker>
							<marker>
								<comment>det er ikke ond vilje, men alle de gode formￃﾥlene vil bli utvidet</comment>
								<name>gode formￃﾥl</name>
								<in>2400</in>
								<out>-1</out>
							</marker>
							<marker>
								<comment>har vi stￃﾸrre krav pￃﾥ ￃﾥ ha vￃﾥrt privatliv i fred</comment>
								<name>hvis vi er lovlydige</name>
								<in>8469</in>
								<out>-1</out>
							</marker>
							<marker>
								<comment></comment>
								<name></name>
								<in>2965</in>
								<out>-1</out>
							</marker>
							<marker>
								<comment>er du redd nￃﾥr mer og mer blir intelligent</comment>
								<name>frykter du </name>
								<in>3267</in>
								<out>-1</out>
							</marker>
							<marker>
								<comment></comment>
								<name></name>
								<in>3906</in>
								<out>-1</out>
							</marker>
							<marker>
								<comment>er ikke en vaksine mot totalitￃﾦre tendenser</comment>
								<name>demokrati</name>
								<in>5809</in>
								<out>-1</out>
							</marker>
							<marker>
								<comment>velger selv hvilken vei vi vil gￃﾥ</comment>
								<name>kan velge vei</name>
								<in>4698</in>
								<out>-1</out>
							</marker>
							<marker>
								<comment>hva blir de faktiske fￃﾸlgen dersom lt vi gjￃﾸr blr registrert</comment>
								<name>ikke tillit</name>
								<in>1338</in>
								<out>-1</out>
							</marker>
							<marker>
								<comment>vil dukke opp nye formￃﾥl og de vil kunne utvides</comment>
								<name>nye formￃﾥl</name>
								<in>9188</in>
								<out>-1</out>
							</marker>
						<logginginfo>
							<description></description>
							<scene></scene>
							<shottake>AA0500</shottake>
							<lognote></lognote>
						</logginginfo>
						<labels>
							<label2>Iris</label2>
						</labels>
					</clipitem>
					<clipitem id="clipitem-777" frameBlend="FALSE">
						<masterclipid>masterclip-176</masterclipid>
						<name>AA050301.MXF</name>
						<enabled>TRUE</enabled>
						<duration>636</duration>
						<rate>
							<timebase>25</timebase>
							<ntsc>FALSE</ntsc>
						</rate>
						<start>29067</start>
						<end>29106</end>
						<in>371</in>
						<out>410</out>
						<alphatype>none</alphatype>
						<pixelaspectratio>square</pixelaspectratio>
						<anamorphic>FALSE</anamorphic>
						<file id="file-156">
							<name>AA050301.MXF</name>
							<pathurl>file://localhost/Volumes/Brakka/AdobeLager/Katta/Katta-14xxxx-Smart_eller_overvaaket-Chris/02-Video/Datatilsynet%20Case%20C300/CONTENTS/CLIPS001/AA0503/AA050301.MXF</pathurl>
							<rate>
								<timebase>25</timebase>
								<ntsc>FALSE</ntsc>
							</rate>
							<duration>636</duration>
							<timecode>
								<rate>
									<timebase>25</timebase>
									<ntsc>FALSE</ntsc>
								</rate>
								<string>10:50:36:00</string>
								<frame>975900</frame>
								<displayformat>NDF</displayformat>
								<reel>
									<name></name>
								</reel>
							</timecode>
							<media>
								<video>
									<duration>18000</duration>
									<samplecharacteristics>
										<rate>
											<timebase>25</timebase>
											<ntsc>FALSE</ntsc>
										</rate>
										<width>1920</width>
										<height>1080</height>
										<anamorphic>FALSE</anamorphic>
										<pixelaspectratio>square</pixelaspectratio>
										<fielddominance>none</fielddominance>
									</samplecharacteristics>
								</video>
								<audio>
									<samplecharacteristics>
										<depth>16</depth>
										<samplerate>48000</samplerate>
									</samplecharacteristics>
									<channelcount>1</channelcount>
									<layout>mono</layout>
									<audiochannel>
										<sourcechannel>1</sourcechannel>
										<channellabel>discrete</channellabel>
									</audiochannel>
								</audio>
								<audio>
									<samplecharacteristics>
										<depth>16</depth>
										<samplerate>48000</samplerate>
									</samplecharacteristics>
									<channelcount>1</channelcount>
									<layout>mono</layout>
									<audiochannel>
										<sourcechannel>2</sourcechannel>
										<channellabel>discrete</channellabel>
									</audiochannel>
								</audio>
							</media>
						</file>
						<logginginfo>
							<description></description>
							<scene></scene>
							<shottake>AA0503</shottake>
							<lognote></lognote>
						</logginginfo>
						<labels>
							<label2>Iris</label2>
						</labels>
					</clipitem>
					<clipitem id="clipitem-778" frameBlend="FALSE">
						<masterclipid>masterclip-14</masterclipid>
						<name>AA050001.MXF</name>
						<enabled>TRUE</enabled>
						<duration>10644</duration>
						<rate>
							<timebase>25</timebase>
							<ntsc>FALSE</ntsc>
						</rate>
						<start>29106</start>
						<end>29145</end>
						<in>7918</in>
						<out>7957</out>
						<alphatype>none</alphatype>
						<file id="file-13"/>
							<marker>
								<comment>vi har valgmuligheter</comment>
								<name>ikke redd</name>
								<in>4502</in>
								<out>-1</out>
							</marker>
							<marker>
								<comment>det er ikke ond vilje, men alle de gode formￃﾥlene vil bli utvidet</comment>
								<name>gode formￃﾥl</name>
								<in>2400</in>
								<out>-1</out>
							</marker>
							<marker>
								<comment>har vi stￃﾸrre krav pￃﾥ ￃﾥ ha vￃﾥrt privatliv i fred</comment>
								<name>hvis vi er lovlydige</name>
								<in>8469</in>
								<out>-1</out>
							</marker>
							<marker>
								<comment></comment>
								<name></name>
								<in>2965</in>
								<out>-1</out>
							</marker>
							<marker>
								<comment>er du redd nￃﾥr mer og mer blir intelligent</comment>
								<name>frykter du </name>
								<in>3267</in>
								<out>-1</out>
							</marker>
							<marker>
								<comment></comment>
								<name></name>
								<in>3906</in>
								<out>-1</out>
							</marker>
							<marker>
								<comment>er ikke en vaksine mot totalitￃﾦre tendenser</comment>
								<name>demokrati</name>
								<in>5809</in>
								<out>-1</out>
							</marker>
							<marker>
								<comment>velger selv hvilken vei vi vil gￃﾥ</comment>
								<name>kan velge vei</name>
								<in>4698</in>
								<out>-1</out>
							</marker>
							<marker>
								<comment>hva blir de faktiske fￃﾸlgen dersom lt vi gjￃﾸr blr registrert</comment>
								<name>ikke tillit</name>
								<in>1338</in>
								<out>-1</out>
							</marker>
							<marker>
								<comment>vil dukke opp nye formￃﾥl og de vil kunne utvides</comment>
								<name>nye formￃﾥl</name>
								<in>9188</in>
								<out>-1</out>
							</marker>
						<logginginfo>
							<description></description>
							<scene></scene>
							<shottake>AA0500</shottake>
							<lognote></lognote>
						</logginginfo>
						<labels>
							<label2>Iris</label2>
						</labels>
					</clipitem>
					<clipitem id="clipitem-779" frameBlend="FALSE">
						<masterclipid>masterclip-177</masterclipid>
						<name>AA023901.MXF</name>
						<enabled>TRUE</enabled>
						<duration>420</duration>
						<rate>
							<timebase>25</timebase>
							<ntsc>FALSE</ntsc>
						</rate>
						<start>29145</start>
						<end>29212</end>
						<in>248</in>
						<out>315</out>
						<alphatype>none</alphatype>
						<pixelaspectratio>square</pixelaspectratio>
						<anamorphic>FALSE</anamorphic>
						<file id="file-157">
							<name>AA023901.MXF</name>
							<pathurl>file://localhost/Volumes/Brakka/AdobeLager/Katta/Katta-14xxxx-Smart_eller_overvaaket-Chris/02-Video/COWI%20Varemesse%20C300/CONTENTS/CLIPS001/AA0239/AA023901.MXF</pathurl>
							<rate>
								<timebase>25</timebase>
								<ntsc>FALSE</ntsc>
							</rate>
							<duration>420</duration>
							<timecode>
								<rate>
									<timebase>25</timebase>
									<ntsc>FALSE</ntsc>
								</rate>
								<string>04:16:59:13</string>
								<frame>385488</frame>
								<displayformat>NDF</displayformat>
								<reel>
									<name></name>
								</reel>
							</timecode>
							<media>
								<video>
									<duration>18000</duration>
									<samplecharacteristics>
										<rate>
											<timebase>25</timebase>
											<ntsc>FALSE</ntsc>
										</rate>
										<width>1920</width>
										<height>1080</height>
										<anamorphic>FALSE</anamorphic>
										<pixelaspectratio>square</pixelaspectratio>
										<fielddominance>none</fielddominance>
									</samplecharacteristics>
								</video>
								<audio>
									<samplecharacteristics>
										<depth>16</depth>
										<samplerate>48000</samplerate>
									</samplecharacteristics>
									<channelcount>2</channelcount>
								</audio>
							</media>
						</file>
						<link>
							<linkclipref>clipitem-779</linkclipref>
							<mediatype>video</mediatype>
							<trackindex>1</trackindex>
							<clipindex>239</clipindex>
						</link>
						<link>
							<linkclipref>clipitem-1232</linkclipref>
							<mediatype>audio</mediatype>
							<trackindex>1</trackindex>
							<clipindex>121</clipindex>
						</link>
						<link>
							<linkclipref>clipitem-1450</linkclipref>
							<mediatype>audio</mediatype>
							<trackindex>3</trackindex>
							<clipindex>98</clipindex>
						</link>
						<logginginfo>
							<description></description>
							<scene></scene>
							<shottake>AA0239</shottake>
							<lognote></lognote>
						</logginginfo>
						<labels>
							<label2>Iris</label2>
						</labels>
					</clipitem>
					<clipitem id="clipitem-780" frameBlend="FALSE">
						<masterclipid>masterclip-178</masterclipid>
						<name>AA022901.MXF</name>
						<enabled>TRUE</enabled>
						<duration>1056</duration>
						<rate>
							<timebase>25</timebase>
							<ntsc>FALSE</ntsc>
						</rate>
						<start>29212</start>
						<end>29292</end>
						<in>264</in>
						<out>344</out>
						<alphatype>none</alphatype>
						<pixelaspectratio>square</pixelaspectratio>
						<anamorphic>FALSE</anamorphic>
						<file id="file-158">
							<name>AA022901.MXF</name>
							<pathurl>file://localhost/Volumes/Brakka/AdobeLager/Katta/Katta-14xxxx-Smart_eller_overvaaket-Chris/02-Video/COWI%20Varemesse%20C300/CONTENTS/CLIPS001/AA0229/AA022901.MXF</pathurl>
							<rate>
								<timebase>25</timebase>
								<ntsc>FALSE</ntsc>
							</rate>
							<duration>1056</duration>
							<timecode>
								<rate>
									<timebase>25</timebase>
									<ntsc>FALSE</ntsc>
								</rate>
								<string>04:13:08:16</string>
								<frame>379716</frame>
								<displayformat>NDF</displayformat>
								<reel>
									<name></name>
								</reel>
							</timecode>
							<media>
								<video>
									<duration>18000</duration>
									<samplecharacteristics>
										<rate>
											<timebase>25</timebase>
											<ntsc>FALSE</ntsc>
										</rate>
										<width>1920</width>
										<height>1080</height>
										<anamorphic>FALSE</anamorphic>
										<pixelaspectratio>square</pixelaspectratio>
										<fielddominance>none</fielddominance>
									</samplecharacteristics>
								</video>
								<audio>
									<samplecharacteristics>
										<depth>16</depth>
										<samplerate>48000</samplerate>
									</samplecharacteristics>
									<channelcount>2</channelcount>
								</audio>
							</media>
						</file>
						<link>
							<linkclipref>clipitem-780</linkclipref>
							<mediatype>video</mediatype>
							<trackindex>1</trackindex>
							<clipindex>240</clipindex>
						</link>
						<link>
							<linkclipref>clipitem-1451</linkclipref>
							<mediatype>audio</mediatype>
							<trackindex>3</trackindex>
							<clipindex>99</clipindex>
						</link>
						<link>
							<linkclipref>clipitem-1490</linkclipref>
							<mediatype>audio</mediatype>
							<trackindex>4</trackindex>
							<clipindex>1</clipindex>
						</link>
						<logginginfo>
							<description></description>
							<scene></scene>
							<shottake>AA0229</shottake>
							<lognote></lognote>
						</logginginfo>
						<labels>
							<label2>Iris</label2>
						</labels>
					</clipitem>
					<clipitem id="clipitem-781" frameBlend="FALSE">
						<masterclipid>masterclip-179</masterclipid>
						<name>MVI_0171.MOV</name>
						<enabled>TRUE</enabled>
						<duration>408</duration>
						<rate>
							<timebase>25</timebase>
							<ntsc>FALSE</ntsc>
						</rate>
						<start>29292</start>
						<end>29399</end>
						<in>24</in>
						<out>131</out>
						<alphatype>black</alphatype>
						<pixelaspectratio>square</pixelaspectratio>
						<anamorphic>FALSE</anamorphic>
						<file id="file-159">
							<name>MVI_0171.MOV</name>
							<pathurl>file://localhost/Volumes/Brakka/AdobeLager/Katta/Katta-14xxxx-Smart_eller_overvaaket-Chris/02-Video/COWI%20Varemesse%205D/DCIM/100EOS5D/MVI_0171.MOV</pathurl>
							<rate>
								<timebase>25</timebase>
								<ntsc>FALSE</ntsc>
							</rate>
							<duration>408</duration>
							<timecode>
								<rate>
									<timebase>25</timebase>
									<ntsc>FALSE</ntsc>
								</rate>
								<string>00:00:00:00</string>
								<frame>0</frame>
								<displayformat>NDF</displayformat>
								<reel>
									<name></name>
								</reel>
							</timecode>
							<media>
								<video>
									<duration>18000</duration>
									<samplecharacteristics>
										<rate>
											<timebase>25</timebase>
											<ntsc>FALSE</ntsc>
										</rate>
										<width>1920</width>
										<height>1080</height>
										<anamorphic>FALSE</anamorphic>
										<pixelaspectratio>square</pixelaspectratio>
										<fielddominance>none</fielddominance>
									</samplecharacteristics>
								</video>
								<audio>
									<samplecharacteristics>
										<depth>16</depth>
										<samplerate>48000</samplerate>
									</samplecharacteristics>
									<channelcount>2</channelcount>
								</audio>
							</media>
						</file>
						<link>
							<linkclipref>clipitem-781</linkclipref>
							<mediatype>video</mediatype>
							<trackindex>1</trackindex>
							<clipindex>241</clipindex>
						</link>
						<link>
							<linkclipref>clipitem-1452</linkclipref>
							<mediatype>audio</mediatype>
							<trackindex>3</trackindex>
							<clipindex>100</clipindex>
						</link>
						<link>
							<linkclipref>clipitem-1491</linkclipref>
							<mediatype>audio</mediatype>
							<trackindex>4</trackindex>
							<clipindex>2</clipindex>
						</link>
						<logginginfo>
							<description></description>
							<scene></scene>
							<shottake></shottake>
							<lognote></lognote>
						</logginginfo>
						<labels>
							<label2>Iris</label2>
						</labels>
					</clipitem>
					<clipitem id="clipitem-782" frameBlend="FALSE">
						<masterclipid>masterclip-180</masterclipid>
						<name>AA024401.MXF</name>
						<enabled>TRUE</enabled>
						<duration>636</duration>
						<rate>
							<timebase>25</timebase>
							<ntsc>FALSE</ntsc>
						</rate>
						<start>29399</start>
						<end>29564</end>
						<in>192</in>
						<out>357</out>
						<alphatype>none</alphatype>
						<pixelaspectratio>square</pixelaspectratio>
						<anamorphic>FALSE</anamorphic>
						<file id="file-160">
							<name>AA024401.MXF</name>
							<pathurl>file://localhost/Volumes/Brakka/AdobeLager/Katta/Katta-14xxxx-Smart_eller_overvaaket-Chris/02-Video/COWI%20Varemesse%20C300/CONTENTS/CLIPS001/AA0244/AA024401.MXF</pathurl>
							<rate>
								<timebase>25</timebase>
								<ntsc>FALSE</ntsc>
							</rate>
							<duration>636</duration>
							<timecode>
								<rate>
									<timebase>25</timebase>
									<ntsc>FALSE</ntsc>
								</rate>
								<string>04:22:55:17</string>
								<frame>394392</frame>
								<displayformat>NDF</displayformat>
								<reel>
									<name></name>
								</reel>
							</timecode>
							<media>
								<video>
									<duration>18000</duration>
									<samplecharacteristics>
										<rate>
											<timebase>25</timebase>
											<ntsc>FALSE</ntsc>
										</rate>
										<width>1920</width>
										<height>1080</height>
										<anamorphic>FALSE</anamorphic>
										<pixelaspectratio>square</pixelaspectratio>
										<fielddominance>none</fielddominance>
									</samplecharacteristics>
								</video>
								<audio>
									<samplecharacteristics>
										<depth>16</depth>
										<samplerate>48000</samplerate>
									</samplecharacteristics>
									<channelcount>2</channelcount>
								</audio>
							</media>
						</file>
						<link>
							<linkclipref>clipitem-782</linkclipref>
							<mediatype>video</mediatype>
							<trackindex>1</trackindex>
							<clipindex>242</clipindex>
						</link>
						<link>
							<linkclipref>clipitem-1233</linkclipref>
							<mediatype>audio</mediatype>
							<trackindex>1</trackindex>
							<clipindex>122</clipindex>
						</link>
						<logginginfo>
							<description></description>
							<scene></scene>
							<shottake>AA0244</shottake>
							<lognote></lognote>
						</logginginfo>
						<labels>
							<label2>Iris</label2>
						</labels>
					</clipitem>
					<clipitem id="clipitem-783" frameBlend="FALSE">
						<masterclipid>masterclip-181</masterclipid>
						<name>AA024501.MXF</name>
						<enabled>TRUE</enabled>
						<duration>816</duration>
						<rate>
							<timebase>25</timebase>
							<ntsc>FALSE</ntsc>
						</rate>
						<start>29564</start>
						<end>29630</end>
						<in>535</in>
						<out>601</out>
						<alphatype>none</alphatype>
						<pixelaspectratio>square</pixelaspectratio>
						<anamorphic>FALSE</anamorphic>
						<file id="file-161">
							<name>AA024501.MXF</name>
							<pathurl>file://localhost/Volumes/Brakka/AdobeLager/Katta/Katta-14xxxx-Smart_eller_overvaaket-Chris/02-Video/COWI%20Varemesse%20C300/CONTENTS/CLIPS001/AA0245/AA024501.MXF</pathurl>
							<rate>
								<timebase>25</timebase>
								<ntsc>FALSE</ntsc>
							</rate>
							<duration>816</duration>
							<timecode>
								<rate>
									<timebase>25</timebase>
									<ntsc>FALSE</ntsc>
								</rate>
								<string>04:23:21:03</string>
								<frame>395028</frame>
								<displayformat>NDF</displayformat>
								<reel>
									<name></name>
								</reel>
							</timecode>
							<media>
								<video>
									<duration>18000</duration>
									<samplecharacteristics>
										<rate>
											<timebase>25</timebase>
											<ntsc>FALSE</ntsc>
										</rate>
										<width>1920</width>
										<height>1080</height>
										<anamorphic>FALSE</anamorphic>
										<pixelaspectratio>square</pixelaspectratio>
										<fielddominance>none</fielddominance>
									</samplecharacteristics>
								</video>
								<audio>
									<samplecharacteristics>
										<depth>16</depth>
										<samplerate>48000</samplerate>
									</samplecharacteristics>
									<channelcount>2</channelcount>
								</audio>
							</media>
						</file>
						<link>
							<linkclipref>clipitem-783</linkclipref>
							<mediatype>video</mediatype>
							<trackindex>1</trackindex>
							<clipindex>243</clipindex>
						</link>
						<link>
							<linkclipref>clipitem-1453</linkclipref>
							<mediatype>audio</mediatype>
							<trackindex>3</trackindex>
							<clipindex>101</clipindex>
						</link>
						<logginginfo>
							<description></description>
							<scene></scene>
							<shottake>AA0245</shottake>
							<lognote></lognote>
						</logginginfo>
						<labels>
							<label2>Iris</label2>
						</labels>
					</clipitem>
					<clipitem id="clipitem-784" frameBlend="FALSE">
						<masterclipid>masterclip-182</masterclipid>
						<name>AA024201.MXFCowi varemesse multi</name>
						<enabled>TRUE</enabled>
						<duration>2889</duration>
						<rate>
							<timebase>25</timebase>
							<ntsc>FALSE</ntsc>
						</rate>
						<start>29630</start>
						<end>29788</end>
						<in>1014</in>
						<out>1172</out>
						<sequence id="sequence-85">
							<duration>150</duration>
							<rate>
								<timebase>25</timebase>
								<ntsc>FALSE</ntsc>
							</rate>
							<name>AA024201.MXFCowi varemesse multi-3</name>
							<media>
								<video>
									<format>
										<samplecharacteristics>
											<rate>
												<timebase>25</timebase>
												<ntsc>FALSE</ntsc>
											</rate>
											<codec>
												<name>Apple ProRes 422</name>
												<appspecificdata>
													<appname>Final Cut Pro</appname>
													<appmanufacturer>Apple Inc.</appmanufacturer>
													<appversion>7.0</appversion>
													<data>
														<qtcodec>
															<codecname>Apple ProRes 422</codecname>
															<codectypename>Apple ProRes 422</codectypename>
															<codectypecode>apcn</codectypecode>
															<codecvendorcode>appl</codecvendorcode>
															<spatialquality>1024</spatialquality>
															<temporalquality>0</temporalquality>
															<keyframerate>0</keyframerate>
															<datarate>0</datarate>
														</qtcodec>
													</data>
												</appspecificdata>
											</codec>
											<width>1920</width>
											<height>1080</height>
											<anamorphic>FALSE</anamorphic>
											<pixelaspectratio>square</pixelaspectratio>
											<fielddominance>none</fielddominance>
											<colordepth>24</colordepth>
										</samplecharacteristics>
									</format>
									<track>
										<clipitem id="clipitem-793" frameBlend="FALSE">
											<masterclipid>masterclip-185</masterclipid>
											<name>MVI_0168.MOV</name>
											<enabled>TRUE</enabled>
											<duration>2755</duration>
											<rate>
												<timebase>25</timebase>
												<ntsc>FALSE</ntsc>
											</rate>
											<start>0</start>
											<end>2755</end>
											<in>0</in>
											<out>2755</out>
											<alphatype>black</alphatype>
											<file id="file-164"/>
											<logginginfo>
												<description></description>
												<scene></scene>
												<shottake></shottake>
												<lognote></lognote>
											</logginginfo>
											<labels>
												<label2>Iris</label2>
											</labels>
										</clipitem>
										<enabled>TRUE</enabled>
										<locked>FALSE</locked>
									</track>
								</video>
								<audio>
									<format>
										<samplecharacteristics>
											<depth>16</depth>
											<samplerate>48000</samplerate>
										</samplecharacteristics>
									</format>
									<outputs>
										<group>
											<index>1</index>
											<numchannels>1</numchannels>
											<downmix>0</downmix>
											<channel>
												<index>1</index>
											</channel>
										</group>
										<group>
											<index>2</index>
											<numchannels>1</numchannels>
											<downmix>0</downmix>
											<channel>
												<index>2</index>
											</channel>
										</group>
										<group>
											<index>3</index>
											<numchannels>1</numchannels>
											<downmix>0</downmix>
											<channel>
												<index>3</index>
											</channel>
										</group>
										<group>
											<index>4</index>
											<numchannels>1</numchannels>
											<downmix>0</downmix>
											<channel>
												<index>4</index>
											</channel>
										</group>
										<group>
											<index>5</index>
											<numchannels>1</numchannels>
											<downmix>0</downmix>
											<channel>
												<index>5</index>
											</channel>
										</group>
										<group>
											<index>6</index>
											<numchannels>1</numchannels>
											<downmix>0</downmix>
											<channel>
												<index>6</index>
											</channel>
										</group>
									</outputs>
									<track TL.SQTrackExpandedHeight="25" TL.SQTrackExpanded="0" MZ.TrackTargeted="1" PannerCurrentValue="0.5" PannerIsInverted="true" PannerStartKeyframe="-91445760000000000,0.5,0,0,0,0,0,0" PannerName="Balance" currentExplodedTrackIndex="0" totalExplodedTrackCount="2" premiereTrackType="Stereo">
										<clipitem id="clipitem-791" frameBlend="FALSE" PannerCurrentValue="0.5" PannerKeyframes="" PannerStartKeyframe="-91445760000000000,0.5,0,0,0,0,0,0" PannerIsInverted="true" PannerName="Balance">
											<masterclipid>masterclip-185</masterclipid>
											<name>MVI_0168.MOV</name>
											<enabled>TRUE</enabled>
											<duration>2755</duration>
											<rate>
												<timebase>25</timebase>
												<ntsc>FALSE</ntsc>
											</rate>
											<start>0</start>
											<end>2755</end>
											<in>0</in>
											<out>2755</out>
											<pixelaspectratio>square</pixelaspectratio>
											<anamorphic>FALSE</anamorphic>
											<file id="file-164">
												<name>MVI_0168.MOV</name>
												<pathurl>file://localhost/Volumes/Brakka/AdobeLager/Katta/Katta-14xxxx-Smart_eller_overvaaket-Chris/02-Video/COWI%20Varemesse%205D/DCIM/100EOS5D/MVI_0168.MOV</pathurl>
												<rate>
													<timebase>25</timebase>
													<ntsc>FALSE</ntsc>
												</rate>
												<duration>2755</duration>
												<timecode>
													<rate>
														<timebase>25</timebase>
														<ntsc>FALSE</ntsc>
													</rate>
													<string>00:00:00:00</string>
													<frame>0</frame>
													<displayformat>NDF</displayformat>
													<reel>
														<name></name>
													</reel>
												</timecode>
												<media>
													<video>
														<duration>18000</duration>
														<samplecharacteristics>
															<rate>
																<timebase>25</timebase>
																<ntsc>FALSE</ntsc>
															</rate>
															<width>1920</width>
															<height>1080</height>
															<anamorphic>FALSE</anamorphic>
															<pixelaspectratio>square</pixelaspectratio>
															<fielddominance>none</fielddominance>
														</samplecharacteristics>
													</video>
													<audio>
														<samplecharacteristics>
															<depth>16</depth>
															<samplerate>48000</samplerate>
														</samplecharacteristics>
														<channelcount>2</channelcount>
													</audio>
												</media>
											</file>
											<sourcetrack>
												<mediatype>audio</mediatype>
												<trackindex>1</trackindex>
											</sourcetrack>
												<filter>
													<effect>
														<name>Audio Pan</name>
														<effectid>audiopan</effectid>
														<effectcategory>audiopan</effectcategory>
														<effecttype>audiopan</effecttype>
														<mediatype>audio</mediatype>
														<parameter authoringApp="PremierePro">
															<parameterid>pan</parameterid>
															<name>Pan</name>
															<valuemin>-1</valuemin>
															<valuemax>1</valuemax>
															<value>0</value>
														</parameter>
													</effect>
												</filter>
											<logginginfo>
												<description></description>
												<scene></scene>
												<shottake></shottake>
												<lognote></lognote>
											</logginginfo>
											<labels>
												<label2>Iris</label2>
											</labels>
										</clipitem>
										<enabled>TRUE</enabled>
										<locked>FALSE</locked>
										<outputchannelindex>5</outputchannelindex>
									</track>
									<track TL.SQTrackExpandedHeight="25" TL.SQTrackExpanded="0" MZ.TrackTargeted="1" PannerCurrentValue="0.5" PannerIsInverted="true" PannerStartKeyframe="-91445760000000000,0.5,0,0,0,0,0,0" PannerName="Balance" currentExplodedTrackIndex="1" totalExplodedTrackCount="2" premiereTrackType="Stereo">
										<clipitem id="clipitem-792" frameBlend="FALSE" PannerCurrentValue="0.5" PannerKeyframes="" PannerStartKeyframe="-91445760000000000,0.5,0,0,0,0,0,0" PannerIsInverted="true" PannerName="Balance">
											<masterclipid>masterclip-185</masterclipid>
											<name>MVI_0168.MOV</name>
											<enabled>TRUE</enabled>
											<duration>2755</duration>
											<rate>
												<timebase>25</timebase>
												<ntsc>FALSE</ntsc>
											</rate>
											<start>0</start>
											<end>2755</end>
											<in>0</in>
											<out>2755</out>
											<file id="file-164"/>
											<sourcetrack>
												<mediatype>audio</mediatype>
												<trackindex>2</trackindex>
											</sourcetrack>
												<filter>
													<effect>
														<name>Audio Pan</name>
														<effectid>audiopan</effectid>
														<effectcategory>audiopan</effectcategory>
														<effecttype>audiopan</effecttype>
														<mediatype>audio</mediatype>
														<parameter authoringApp="PremierePro">
															<parameterid>pan</parameterid>
															<name>Pan</name>
															<valuemin>-1</valuemin>
															<valuemax>1</valuemax>
															<value>0</value>
														</parameter>
													</effect>
												</filter>
											<logginginfo>
												<description></description>
												<scene></scene>
												<shottake></shottake>
												<lognote></lognote>
											</logginginfo>
											<labels>
												<label2>Iris</label2>
											</labels>
										</clipitem>
										<enabled>TRUE</enabled>
										<locked>FALSE</locked>
										<outputchannelindex>6</outputchannelindex>
									</track>
								</audio>
							</media>
							<timecode>
								<rate>
									<timebase>25</timebase>
									<ntsc>FALSE</ntsc>
								</rate>
								<string>00:00:00:00</string>
								<frame>0</frame>
								<displayformat>NDF</displayformat>
							</timecode>
						</sequence>
						<link>
							<linkclipref>clipitem-784</linkclipref>
							<mediatype>video</mediatype>
							<trackindex>1</trackindex>
							<clipindex>244</clipindex>
						</link>
						<link>
							<linkclipref>clipitem-1234</linkclipref>
							<mediatype>audio</mediatype>
							<trackindex>1</trackindex>
							<clipindex>123</clipindex>
						</link>
						<link>
							<linkclipref>clipitem-1454</linkclipref>
							<mediatype>audio</mediatype>
							<trackindex>3</trackindex>
							<clipindex>102</clipindex>
						</link>
						<labels>
							<label2>Forest</label2>
						</labels>
					</clipitem>
					<clipitem id="clipitem-794" frameBlend="FALSE">
						<masterclipid>masterclip-186</masterclipid>
						<name>MVI_0176.MOV</name>
						<enabled>TRUE</enabled>
						<duration>559</duration>
						<rate>
							<timebase>25</timebase>
							<ntsc>FALSE</ntsc>
						</rate>
						<start>29788</start>
						<end>29872</end>
						<in>369</in>
						<out>453</out>
						<alphatype>black</alphatype>
						<pixelaspectratio>square</pixelaspectratio>
						<anamorphic>FALSE</anamorphic>
						<file id="file-165">
							<name>MVI_0176.MOV</name>
							<pathurl>file://localhost/Volumes/Brakka/AdobeLager/Katta/Katta-14xxxx-Smart_eller_overvaaket-Chris/02-Video/COWI%20Varemesse%205D/DCIM/100EOS5D/MVI_0176.MOV</pathurl>
							<rate>
								<timebase>25</timebase>
								<ntsc>FALSE</ntsc>
							</rate>
							<duration>559</duration>
							<timecode>
								<rate>
									<timebase>25</timebase>
									<ntsc>FALSE</ntsc>
								</rate>
								<string>00:00:00:00</string>
								<frame>0</frame>
								<displayformat>NDF</displayformat>
								<reel>
									<name></name>
								</reel>
							</timecode>
							<media>
								<video>
									<duration>18000</duration>
									<samplecharacteristics>
										<rate>
											<timebase>25</timebase>
											<ntsc>FALSE</ntsc>
										</rate>
										<width>1920</width>
										<height>1080</height>
										<anamorphic>FALSE</anamorphic>
										<pixelaspectratio>square</pixelaspectratio>
										<fielddominance>none</fielddominance>
									</samplecharacteristics>
								</video>
								<audio>
									<samplecharacteristics>
										<depth>16</depth>
										<samplerate>48000</samplerate>
									</samplecharacteristics>
									<channelcount>2</channelcount>
								</audio>
							</media>
						</file>
						<link>
							<linkclipref>clipitem-794</linkclipref>
							<mediatype>video</mediatype>
							<trackindex>1</trackindex>
							<clipindex>245</clipindex>
						</link>
						<link>
							<linkclipref>clipitem-1244</linkclipref>
							<mediatype>audio</mediatype>
							<trackindex>1</trackindex>
							<clipindex>124</clipindex>
						</link>
						<link>
							<linkclipref>clipitem-1455</linkclipref>
							<mediatype>audio</mediatype>
							<trackindex>3</trackindex>
							<clipindex>103</clipindex>
						</link>
						<logginginfo>
							<description></description>
							<scene></scene>
							<shottake></shottake>
							<lognote></lognote>
						</logginginfo>
						<labels>
							<label2>Iris</label2>
						</labels>
					</clipitem>
					<clipitem id="clipitem-795" frameBlend="FALSE">
						<masterclipid>masterclip-187</masterclipid>
						<name>AA022501.MXFCowi varemesse multi</name>
						<enabled>TRUE</enabled>
						<duration>1445</duration>
						<rate>
							<timebase>25</timebase>
							<ntsc>FALSE</ntsc>
						</rate>
						<start>29872</start>
						<end>29906</end>
						<in>535</in>
						<out>569</out>
						<sequence id="sequence-88">
							<duration>150</duration>
							<rate>
								<timebase>25</timebase>
								<ntsc>FALSE</ntsc>
							</rate>
							<name>AA022501.MXFCowi varemesse multi-2</name>
							<media>
								<video>
									<format>
										<samplecharacteristics>
											<rate>
												<timebase>25</timebase>
												<ntsc>FALSE</ntsc>
											</rate>
											<codec>
												<name>Apple ProRes 422</name>
												<appspecificdata>
													<appname>Final Cut Pro</appname>
													<appmanufacturer>Apple Inc.</appmanufacturer>
													<appversion>7.0</appversion>
													<data>
														<qtcodec>
															<codecname>Apple ProRes 422</codecname>
															<codectypename>Apple ProRes 422</codectypename>
															<codectypecode>apcn</codectypecode>
															<codecvendorcode>appl</codecvendorcode>
															<spatialquality>1024</spatialquality>
															<temporalquality>0</temporalquality>
															<keyframerate>0</keyframerate>
															<datarate>0</datarate>
														</qtcodec>
													</data>
												</appspecificdata>
											</codec>
											<width>1920</width>
											<height>1080</height>
											<anamorphic>FALSE</anamorphic>
											<pixelaspectratio>square</pixelaspectratio>
											<fielddominance>none</fielddominance>
											<colordepth>24</colordepth>
										</samplecharacteristics>
									</format>
									<track>
										<clipitem id="clipitem-801" frameBlend="FALSE">
											<masterclipid>masterclip-189</masterclipid>
											<name>AA024901.MXF</name>
											<enabled>TRUE</enabled>
											<duration>1404</duration>
											<rate>
												<timebase>25</timebase>
												<ntsc>FALSE</ntsc>
											</rate>
											<start>41</start>
											<end>1445</end>
											<in>0</in>
											<out>1404</out>
											<alphatype>none</alphatype>
											<file id="file-167"/>
											<logginginfo>
												<description></description>
												<scene></scene>
												<shottake>AA0249</shottake>
												<lognote></lognote>
											</logginginfo>
											<labels>
												<label2>Iris</label2>
											</labels>
										</clipitem>
										<enabled>TRUE</enabled>
										<locked>FALSE</locked>
									</track>
								</video>
								<audio>
									<format>
										<samplecharacteristics>
											<depth>16</depth>
											<samplerate>48000</samplerate>
										</samplecharacteristics>
									</format>
									<outputs>
										<group>
											<index>1</index>
											<numchannels>1</numchannels>
											<downmix>0</downmix>
											<channel>
												<index>1</index>
											</channel>
										</group>
										<group>
											<index>2</index>
											<numchannels>1</numchannels>
											<downmix>0</downmix>
											<channel>
												<index>2</index>
											</channel>
										</group>
										<group>
											<index>3</index>
											<numchannels>1</numchannels>
											<downmix>0</downmix>
											<channel>
												<index>3</index>
											</channel>
										</group>
										<group>
											<index>4</index>
											<numchannels>1</numchannels>
											<downmix>0</downmix>
											<channel>
												<index>4</index>
											</channel>
										</group>
										<group>
											<index>5</index>
											<numchannels>1</numchannels>
											<downmix>0</downmix>
											<channel>
												<index>5</index>
											</channel>
										</group>
										<group>
											<index>6</index>
											<numchannels>1</numchannels>
											<downmix>0</downmix>
											<channel>
												<index>6</index>
											</channel>
										</group>
									</outputs>
									<track TL.SQTrackExpandedHeight="25" TL.SQTrackExpanded="0" MZ.TrackTargeted="1" PannerCurrentValue="0.5" PannerIsInverted="true" PannerStartKeyframe="-91445760000000000,0.5,0,0,0,0,0,0" PannerName="Balance" currentExplodedTrackIndex="0" totalExplodedTrackCount="2" premiereTrackType="Stereo">
										<clipitem id="clipitem-799" frameBlend="FALSE" PannerCurrentValue="0.5" PannerKeyframes="" PannerStartKeyframe="-91445760000000000,0.5,0,0,0,0,0,0" PannerIsInverted="true" PannerName="Balance">
											<masterclipid>masterclip-189</masterclipid>
											<name>AA024901.MXF</name>
											<enabled>TRUE</enabled>
											<duration>1404</duration>
											<rate>
												<timebase>25</timebase>
												<ntsc>FALSE</ntsc>
											</rate>
											<start>41</start>
											<end>1445</end>
											<in>0</in>
											<out>1404</out>
											<pixelaspectratio>square</pixelaspectratio>
											<anamorphic>FALSE</anamorphic>
											<file id="file-167">
												<name>AA024901.MXF</name>
												<pathurl>file://localhost/Volumes/Brakka/AdobeLager/Katta/Katta-14xxxx-Smart_eller_overvaaket-Chris/02-Video/COWI%20Varemesse%20C300/CONTENTS/CLIPS001/AA0249/AA024901.MXF</pathurl>
												<rate>
													<timebase>25</timebase>
													<ntsc>FALSE</ntsc>
												</rate>
												<duration>1404</duration>
												<timecode>
													<rate>
														<timebase>25</timebase>
														<ntsc>FALSE</ntsc>
													</rate>
													<string>04:25:33:15</string>
													<frame>398340</frame>
													<displayformat>NDF</displayformat>
													<reel>
														<name></name>
													</reel>
												</timecode>
												<media>
													<video>
														<duration>18000</duration>
														<samplecharacteristics>
															<rate>
																<timebase>25</timebase>
																<ntsc>FALSE</ntsc>
															</rate>
															<width>1920</width>
															<height>1080</height>
															<anamorphic>FALSE</anamorphic>
															<pixelaspectratio>square</pixelaspectratio>
															<fielddominance>none</fielddominance>
														</samplecharacteristics>
													</video>
													<audio>
														<samplecharacteristics>
															<depth>16</depth>
															<samplerate>48000</samplerate>
														</samplecharacteristics>
														<channelcount>2</channelcount>
													</audio>
												</media>
											</file>
											<sourcetrack>
												<mediatype>audio</mediatype>
												<trackindex>1</trackindex>
											</sourcetrack>
												<filter>
													<effect>
														<name>Audio Pan</name>
														<effectid>audiopan</effectid>
														<effectcategory>audiopan</effectcategory>
														<effecttype>audiopan</effecttype>
														<mediatype>audio</mediatype>
														<parameter authoringApp="PremierePro">
															<parameterid>pan</parameterid>
															<name>Pan</name>
															<valuemin>-1</valuemin>
															<valuemax>1</valuemax>
															<value>0</value>
														</parameter>
													</effect>
												</filter>
											<logginginfo>
												<description></description>
												<scene></scene>
												<shottake>AA0249</shottake>
												<lognote></lognote>
											</logginginfo>
											<labels>
												<label2>Iris</label2>
											</labels>
										</clipitem>
										<enabled>TRUE</enabled>
										<locked>FALSE</locked>
										<outputchannelindex>3</outputchannelindex>
									</track>
									<track TL.SQTrackExpandedHeight="25" TL.SQTrackExpanded="0" MZ.TrackTargeted="1" PannerCurrentValue="0.5" PannerIsInverted="true" PannerStartKeyframe="-91445760000000000,0.5,0,0,0,0,0,0" PannerName="Balance" currentExplodedTrackIndex="1" totalExplodedTrackCount="2" premiereTrackType="Stereo">
										<clipitem id="clipitem-800" frameBlend="FALSE" PannerCurrentValue="0.5" PannerKeyframes="" PannerStartKeyframe="-91445760000000000,0.5,0,0,0,0,0,0" PannerIsInverted="true" PannerName="Balance">
											<masterclipid>masterclip-189</masterclipid>
											<name>AA024901.MXF</name>
											<enabled>TRUE</enabled>
											<duration>1404</duration>
											<rate>
												<timebase>25</timebase>
												<ntsc>FALSE</ntsc>
											</rate>
											<start>41</start>
											<end>1445</end>
											<in>0</in>
											<out>1404</out>
											<file id="file-167"/>
											<sourcetrack>
												<mediatype>audio</mediatype>
												<trackindex>2</trackindex>
											</sourcetrack>
												<filter>
													<effect>
														<name>Audio Pan</name>
														<effectid>audiopan</effectid>
														<effectcategory>audiopan</effectcategory>
														<effecttype>audiopan</effecttype>
														<mediatype>audio</mediatype>
														<parameter authoringApp="PremierePro">
															<parameterid>pan</parameterid>
															<name>Pan</name>
															<valuemin>-1</valuemin>
															<valuemax>1</valuemax>
															<value>0</value>
														</parameter>
													</effect>
												</filter>
											<logginginfo>
												<description></description>
												<scene></scene>
												<shottake>AA0249</shottake>
												<lognote></lognote>
											</logginginfo>
											<labels>
												<label2>Iris</label2>
											</labels>
										</clipitem>
										<enabled>TRUE</enabled>
										<locked>FALSE</locked>
										<outputchannelindex>4</outputchannelindex>
									</track>
								</audio>
							</media>
							<timecode>
								<rate>
									<timebase>25</timebase>
									<ntsc>FALSE</ntsc>
								</rate>
								<string>00:00:00:00</string>
								<frame>0</frame>
								<displayformat>NDF</displayformat>
							</timecode>
						</sequence>
						<link>
							<linkclipref>clipitem-795</linkclipref>
							<mediatype>video</mediatype>
							<trackindex>1</trackindex>
							<clipindex>246</clipindex>
						</link>
						<link>
							<linkclipref>clipitem-1245</linkclipref>
							<mediatype>audio</mediatype>
							<trackindex>1</trackindex>
							<clipindex>125</clipindex>
						</link>
						<link>
							<linkclipref>clipitem-1456</linkclipref>
							<mediatype>audio</mediatype>
							<trackindex>3</trackindex>
							<clipindex>104</clipindex>
						</link>
						<labels>
							<label2>Forest</label2>
						</labels>
					</clipitem>
					<clipitem id="clipitem-805" frameBlend="FALSE">
						<masterclipid>masterclip-191</masterclipid>
						<name>AA025001.MXF</name>
						<enabled>TRUE</enabled>
						<duration>2412</duration>
						<rate>
							<timebase>25</timebase>
							<ntsc>FALSE</ntsc>
						</rate>
						<start>29906</start>
						<end>29995</end>
						<in>517</in>
						<out>606</out>
						<alphatype>none</alphatype>
						<pixelaspectratio>square</pixelaspectratio>
						<anamorphic>FALSE</anamorphic>
						<file id="file-169">
							<name>AA025001.MXF</name>
							<pathurl>file://localhost/Volumes/Brakka/AdobeLager/Katta/Katta-14xxxx-Smart_eller_overvaaket-Chris/02-Video/COWI%20Varemesse%20C300/CONTENTS/CLIPS001/AA0250/AA025001.MXF</pathurl>
							<rate>
								<timebase>25</timebase>
								<ntsc>FALSE</ntsc>
							</rate>
							<duration>2412</duration>
							<timecode>
								<rate>
									<timebase>25</timebase>
									<ntsc>FALSE</ntsc>
								</rate>
								<string>04:26:29:19</string>
								<frame>399744</frame>
								<displayformat>NDF</displayformat>
								<reel>
									<name></name>
								</reel>
							</timecode>
							<media>
								<video>
									<duration>18000</duration>
									<samplecharacteristics>
										<rate>
											<timebase>25</timebase>
											<ntsc>FALSE</ntsc>
										</rate>
										<width>1920</width>
										<height>1080</height>
										<anamorphic>FALSE</anamorphic>
										<pixelaspectratio>square</pixelaspectratio>
										<fielddominance>none</fielddominance>
									</samplecharacteristics>
								</video>
								<audio>
									<samplecharacteristics>
										<depth>16</depth>
										<samplerate>48000</samplerate>
									</samplecharacteristics>
									<channelcount>2</channelcount>
								</audio>
							</media>
						</file>
						<link>
							<linkclipref>clipitem-805</linkclipref>
							<mediatype>video</mediatype>
							<trackindex>1</trackindex>
							<clipindex>247</clipindex>
						</link>
						<link>
							<linkclipref>clipitem-1255</linkclipref>
							<mediatype>audio</mediatype>
							<trackindex>1</trackindex>
							<clipindex>126</clipindex>
						</link>
						<link>
							<linkclipref>clipitem-1354</linkclipref>
							<mediatype>audio</mediatype>
							<trackindex>2</trackindex>
							<clipindex>1</clipindex>
						</link>
						<logginginfo>
							<description></description>
							<scene></scene>
							<shottake>AA0250</shottake>
							<lognote></lognote>
						</logginginfo>
						<labels>
							<label2>Iris</label2>
						</labels>
					</clipitem>
					<clipitem id="clipitem-806" frameBlend="FALSE">
						<masterclipid>masterclip-182</masterclipid>
						<name>AA024201.MXFCowi varemesse multi</name>
						<enabled>TRUE</enabled>
						<duration>2889</duration>
						<rate>
							<timebase>25</timebase>
							<ntsc>FALSE</ntsc>
						</rate>
						<start>29995</start>
						<end>30043</end>
						<in>1289</in>
						<out>1337</out>
						<sequence id="sequence-85"/>
						<link>
							<linkclipref>clipitem-806</linkclipref>
							<mediatype>video</mediatype>
							<trackindex>1</trackindex>
							<clipindex>248</clipindex>
						</link>
						<link>
							<linkclipref>clipitem-1256</linkclipref>
							<mediatype>audio</mediatype>
							<trackindex>1</trackindex>
							<clipindex>127</clipindex>
						</link>
						<link>
							<linkclipref>clipitem-1457</linkclipref>
							<mediatype>audio</mediatype>
							<trackindex>3</trackindex>
							<clipindex>105</clipindex>
						</link>
						<labels>
							<label2>Forest</label2>
						</labels>
					</clipitem>
					<clipitem id="clipitem-807" frameBlend="FALSE">
						<masterclipid>masterclip-182</masterclipid>
						<name>AA024201.MXFCowi varemesse multi</name>
						<enabled>TRUE</enabled>
						<duration>2889</duration>
						<rate>
							<timebase>25</timebase>
							<ntsc>FALSE</ntsc>
						</rate>
						<start>30043</start>
						<end>30176</end>
						<in>1337</in>
						<out>1470</out>
						<sequence id="sequence-83">
							<duration>150</duration>
							<rate>
								<timebase>25</timebase>
								<ntsc>FALSE</ntsc>
							</rate>
							<name>AA024201.MXFCowi varemesse multi-1</name>
							<media>
								<video>
									<format>
										<samplecharacteristics>
											<rate>
												<timebase>25</timebase>
												<ntsc>FALSE</ntsc>
											</rate>
											<codec>
												<name>Apple ProRes 422</name>
												<appspecificdata>
													<appname>Final Cut Pro</appname>
													<appmanufacturer>Apple Inc.</appmanufacturer>
													<appversion>7.0</appversion>
													<data>
														<qtcodec>
															<codecname>Apple ProRes 422</codecname>
															<codectypename>Apple ProRes 422</codectypename>
															<codectypecode>apcn</codectypecode>
															<codecvendorcode>appl</codecvendorcode>
															<spatialquality>1024</spatialquality>
															<temporalquality>0</temporalquality>
															<keyframerate>0</keyframerate>
															<datarate>0</datarate>
														</qtcodec>
													</data>
												</appspecificdata>
											</codec>
											<width>1920</width>
											<height>1080</height>
											<anamorphic>FALSE</anamorphic>
											<pixelaspectratio>square</pixelaspectratio>
											<fielddominance>none</fielddominance>
											<colordepth>24</colordepth>
										</samplecharacteristics>
									</format>
									<track>
										<clipitem id="clipitem-787" frameBlend="FALSE">
											<masterclipid>masterclip-183</masterclipid>
											<name>AA024201.MXF</name>
											<enabled>TRUE</enabled>
											<duration>1980</duration>
											<rate>
												<timebase>25</timebase>
												<ntsc>FALSE</ntsc>
											</rate>
											<start>909</start>
											<end>2889</end>
											<in>0</in>
											<out>1980</out>
											<alphatype>none</alphatype>
											<file id="file-162"/>
											<logginginfo>
												<description></description>
												<scene></scene>
												<shottake>AA0242</shottake>
												<lognote></lognote>
											</logginginfo>
											<labels>
												<label2>Iris</label2>
											</labels>
										</clipitem>
										<enabled>TRUE</enabled>
										<locked>FALSE</locked>
									</track>
								</video>
								<audio>
									<format>
										<samplecharacteristics>
											<depth>16</depth>
											<samplerate>48000</samplerate>
										</samplecharacteristics>
									</format>
									<outputs>
										<group>
											<index>1</index>
											<numchannels>1</numchannels>
											<downmix>0</downmix>
											<channel>
												<index>1</index>
											</channel>
										</group>
										<group>
											<index>2</index>
											<numchannels>1</numchannels>
											<downmix>0</downmix>
											<channel>
												<index>2</index>
											</channel>
										</group>
										<group>
											<index>3</index>
											<numchannels>1</numchannels>
											<downmix>0</downmix>
											<channel>
												<index>3</index>
											</channel>
										</group>
										<group>
											<index>4</index>
											<numchannels>1</numchannels>
											<downmix>0</downmix>
											<channel>
												<index>4</index>
											</channel>
										</group>
										<group>
											<index>5</index>
											<numchannels>1</numchannels>
											<downmix>0</downmix>
											<channel>
												<index>5</index>
											</channel>
										</group>
										<group>
											<index>6</index>
											<numchannels>1</numchannels>
											<downmix>0</downmix>
											<channel>
												<index>6</index>
											</channel>
										</group>
									</outputs>
									<track TL.SQTrackExpandedHeight="25" TL.SQTrackExpanded="0" MZ.TrackTargeted="1" PannerCurrentValue="0.5" PannerIsInverted="true" PannerStartKeyframe="-91445760000000000,0.5,0,0,0,0,0,0" PannerName="Balance" currentExplodedTrackIndex="0" totalExplodedTrackCount="2" premiereTrackType="Stereo">
										<clipitem id="clipitem-785" frameBlend="FALSE" PannerCurrentValue="0.5" PannerKeyframes="" PannerStartKeyframe="-91445760000000000,0.5,0,0,0,0,0,0" PannerIsInverted="true" PannerName="Balance">
											<masterclipid>masterclip-183</masterclipid>
											<name>AA024201.MXF</name>
											<enabled>TRUE</enabled>
											<duration>1980</duration>
											<rate>
												<timebase>25</timebase>
												<ntsc>FALSE</ntsc>
											</rate>
											<start>909</start>
											<end>2889</end>
											<in>0</in>
											<out>1980</out>
											<pixelaspectratio>square</pixelaspectratio>
											<anamorphic>FALSE</anamorphic>
											<file id="file-162">
												<name>AA024201.MXF</name>
												<pathurl>file://localhost/Volumes/Brakka/AdobeLager/Katta/Katta-14xxxx-Smart_eller_overvaaket-Chris/02-Video/COWI%20Varemesse%20C300/CONTENTS/CLIPS001/AA0242/AA024201.MXF</pathurl>
												<rate>
													<timebase>25</timebase>
													<ntsc>FALSE</ntsc>
												</rate>
												<duration>1980</duration>
												<timecode>
													<rate>
														<timebase>25</timebase>
														<ntsc>FALSE</ntsc>
													</rate>
													<string>04:21:31:05</string>
													<frame>392280</frame>
													<displayformat>NDF</displayformat>
													<reel>
														<name></name>
													</reel>
												</timecode>
												<media>
													<video>
														<duration>18000</duration>
														<samplecharacteristics>
															<rate>
																<timebase>25</timebase>
																<ntsc>FALSE</ntsc>
															</rate>
															<width>1920</width>
															<height>1080</height>
															<anamorphic>FALSE</anamorphic>
															<pixelaspectratio>square</pixelaspectratio>
															<fielddominance>none</fielddominance>
														</samplecharacteristics>
													</video>
													<audio>
														<samplecharacteristics>
															<depth>16</depth>
															<samplerate>48000</samplerate>
														</samplecharacteristics>
														<channelcount>2</channelcount>
													</audio>
												</media>
											</file>
											<sourcetrack>
												<mediatype>audio</mediatype>
												<trackindex>1</trackindex>
											</sourcetrack>
												<filter>
													<effect>
														<name>Audio Pan</name>
														<effectid>audiopan</effectid>
														<effectcategory>audiopan</effectcategory>
														<effecttype>audiopan</effecttype>
														<mediatype>audio</mediatype>
														<parameter authoringApp="PremierePro">
															<parameterid>pan</parameterid>
															<name>Pan</name>
															<valuemin>-1</valuemin>
															<valuemax>1</valuemax>
															<value>0</value>
														</parameter>
													</effect>
												</filter>
											<logginginfo>
												<description></description>
												<scene></scene>
												<shottake>AA0242</shottake>
												<lognote></lognote>
											</logginginfo>
											<labels>
												<label2>Iris</label2>
											</labels>
										</clipitem>
										<enabled>TRUE</enabled>
										<locked>FALSE</locked>
										<outputchannelindex>1</outputchannelindex>
									</track>
									<track TL.SQTrackExpandedHeight="25" TL.SQTrackExpanded="0" MZ.TrackTargeted="1" PannerCurrentValue="0.5" PannerIsInverted="true" PannerStartKeyframe="-91445760000000000,0.5,0,0,0,0,0,0" PannerName="Balance" currentExplodedTrackIndex="1" totalExplodedTrackCount="2" premiereTrackType="Stereo">
										<clipitem id="clipitem-786" frameBlend="FALSE" PannerCurrentValue="0.5" PannerKeyframes="" PannerStartKeyframe="-91445760000000000,0.5,0,0,0,0,0,0" PannerIsInverted="true" PannerName="Balance">
											<masterclipid>masterclip-183</masterclipid>
											<name>AA024201.MXF</name>
											<enabled>TRUE</enabled>
											<duration>1980</duration>
											<rate>
												<timebase>25</timebase>
												<ntsc>FALSE</ntsc>
											</rate>
											<start>909</start>
											<end>2889</end>
											<in>0</in>
											<out>1980</out>
											<file id="file-162"/>
											<sourcetrack>
												<mediatype>audio</mediatype>
												<trackindex>2</trackindex>
											</sourcetrack>
												<filter>
													<effect>
														<name>Audio Pan</name>
														<effectid>audiopan</effectid>
														<effectcategory>audiopan</effectcategory>
														<effecttype>audiopan</effecttype>
														<mediatype>audio</mediatype>
														<parameter authoringApp="PremierePro">
															<parameterid>pan</parameterid>
															<name>Pan</name>
															<valuemin>-1</valuemin>
															<valuemax>1</valuemax>
															<value>0</value>
														</parameter>
													</effect>
												</filter>
											<logginginfo>
												<description></description>
												<scene></scene>
												<shottake>AA0242</shottake>
												<lognote></lognote>
											</logginginfo>
											<labels>
												<label2>Iris</label2>
											</labels>
										</clipitem>
										<enabled>TRUE</enabled>
										<locked>FALSE</locked>
										<outputchannelindex>2</outputchannelindex>
									</track>
								</audio>
							</media>
							<timecode>
								<rate>
									<timebase>25</timebase>
									<ntsc>FALSE</ntsc>
								</rate>
								<string>00:00:00:00</string>
								<frame>0</frame>
								<displayformat>NDF</displayformat>
							</timecode>
						</sequence>
						<link>
							<linkclipref>clipitem-807</linkclipref>
							<mediatype>video</mediatype>
							<trackindex>1</trackindex>
							<clipindex>249</clipindex>
						</link>
						<link>
							<linkclipref>clipitem-1257</linkclipref>
							<mediatype>audio</mediatype>
							<trackindex>1</trackindex>
							<clipindex>128</clipindex>
						</link>
						<link>
							<linkclipref>clipitem-1458</linkclipref>
							<mediatype>audio</mediatype>
							<trackindex>3</trackindex>
							<clipindex>106</clipindex>
						</link>
						<labels>
							<label2>Forest</label2>
						</labels>
					</clipitem>
					<clipitem id="clipitem-808" frameBlend="FALSE">
						<masterclipid>masterclip-192</masterclipid>
						<name>AA025301.MXFCowi varemesse multi</name>
						<enabled>TRUE</enabled>
						<duration>1755</duration>
						<rate>
							<timebase>25</timebase>
							<ntsc>FALSE</ntsc>
						</rate>
						<start>30176</start>
						<end>30232</end>
						<in>1474</in>
						<out>1530</out>
						<sequence id="sequence-91">
							<duration>150</duration>
							<rate>
								<timebase>25</timebase>
								<ntsc>FALSE</ntsc>
							</rate>
							<name>AA025301.MXFCowi varemesse multi-1</name>
							<media>
								<video>
									<format>
										<samplecharacteristics>
											<rate>
												<timebase>25</timebase>
												<ntsc>FALSE</ntsc>
											</rate>
											<codec>
												<name>Apple ProRes 422</name>
												<appspecificdata>
													<appname>Final Cut Pro</appname>
													<appmanufacturer>Apple Inc.</appmanufacturer>
													<appversion>7.0</appversion>
													<data>
														<qtcodec>
															<codecname>Apple ProRes 422</codecname>
															<codectypename>Apple ProRes 422</codectypename>
															<codectypecode>apcn</codectypecode>
															<codecvendorcode>appl</codecvendorcode>
															<spatialquality>1024</spatialquality>
															<temporalquality>0</temporalquality>
															<keyframerate>0</keyframerate>
															<datarate>0</datarate>
														</qtcodec>
													</data>
												</appspecificdata>
											</codec>
											<width>1920</width>
											<height>1080</height>
											<anamorphic>FALSE</anamorphic>
											<pixelaspectratio>square</pixelaspectratio>
											<fielddominance>none</fielddominance>
											<colordepth>24</colordepth>
										</samplecharacteristics>
									</format>
									<track TL.SQTrackExpandedHeight="25" TL.SQTrackExpanded="0" MZ.TrackTargeted="0">
										<clipitem id="clipitem-811" frameBlend="FALSE">
											<masterclipid>masterclip-193</masterclipid>
											<name>AA025301.MXF</name>
											<enabled>TRUE</enabled>
											<duration>1068</duration>
											<rate>
												<timebase>25</timebase>
												<ntsc>FALSE</ntsc>
											</rate>
											<start>687</start>
											<end>1755</end>
											<in>0</in>
											<out>1068</out>
											<alphatype>none</alphatype>
											<file id="file-170"/>
											<logginginfo>
												<description></description>
												<scene></scene>
												<shottake>AA0253</shottake>
												<lognote></lognote>
											</logginginfo>
											<labels>
												<label2>Iris</label2>
											</labels>
										</clipitem>
										<enabled>TRUE</enabled>
										<locked>FALSE</locked>
									</track>
								</video>
								<audio>
									<format>
										<samplecharacteristics>
											<depth>16</depth>
											<samplerate>48000</samplerate>
										</samplecharacteristics>
									</format>
									<outputs>
										<group>
											<index>1</index>
											<numchannels>1</numchannels>
											<downmix>0</downmix>
											<channel>
												<index>1</index>
											</channel>
										</group>
										<group>
											<index>2</index>
											<numchannels>1</numchannels>
											<downmix>0</downmix>
											<channel>
												<index>2</index>
											</channel>
										</group>
										<group>
											<index>3</index>
											<numchannels>1</numchannels>
											<downmix>0</downmix>
											<channel>
												<index>3</index>
											</channel>
										</group>
										<group>
											<index>4</index>
											<numchannels>1</numchannels>
											<downmix>0</downmix>
											<channel>
												<index>4</index>
											</channel>
										</group>
									</outputs>
									<track TL.SQTrackExpandedHeight="25" TL.SQTrackExpanded="0" MZ.TrackTargeted="1" PannerCurrentValue="0.5" PannerIsInverted="true" PannerStartKeyframe="-91445760000000000,0.5,0,0,0,0,0,0" PannerName="Balance" currentExplodedTrackIndex="0" totalExplodedTrackCount="2" premiereTrackType="Stereo">
										<clipitem id="clipitem-809" frameBlend="FALSE" PannerCurrentValue="0.5" PannerKeyframes="" PannerStartKeyframe="-91445760000000000,0.5,0,0,0,0,0,0" PannerIsInverted="true" PannerName="Balance">
											<masterclipid>masterclip-193</masterclipid>
											<name>AA025301.MXF</name>
											<enabled>TRUE</enabled>
											<duration>1068</duration>
											<rate>
												<timebase>25</timebase>
												<ntsc>FALSE</ntsc>
											</rate>
											<start>687</start>
											<end>1755</end>
											<in>0</in>
											<out>1068</out>
											<pixelaspectratio>square</pixelaspectratio>
											<anamorphic>FALSE</anamorphic>
											<file id="file-170">
												<name>AA025301.MXF</name>
												<pathurl>file://localhost/Volumes/Brakka/AdobeLager/Katta/Katta-14xxxx-Smart_eller_overvaaket-Chris/02-Video/COWI%20Varemesse%20C300/CONTENTS/CLIPS001/AA0253/AA025301.MXF</pathurl>
												<rate>
													<timebase>25</timebase>
													<ntsc>FALSE</ntsc>
												</rate>
												<duration>1068</duration>
												<timecode>
													<rate>
														<timebase>25</timebase>
														<ntsc>FALSE</ntsc>
													</rate>
													<string>04:28:58:02</string>
													<frame>403452</frame>
													<displayformat>NDF</displayformat>
													<reel>
														<name></name>
													</reel>
												</timecode>
												<media>
													<video>
														<duration>18000</duration>
														<samplecharacteristics>
															<rate>
																<timebase>25</timebase>
																<ntsc>FALSE</ntsc>
															</rate>
															<width>1920</width>
															<height>1080</height>
															<anamorphic>FALSE</anamorphic>
															<pixelaspectratio>square</pixelaspectratio>
															<fielddominance>none</fielddominance>
														</samplecharacteristics>
													</video>
													<audio>
														<samplecharacteristics>
															<depth>16</depth>
															<samplerate>48000</samplerate>
														</samplecharacteristics>
														<channelcount>2</channelcount>
													</audio>
												</media>
											</file>
											<sourcetrack>
												<mediatype>audio</mediatype>
												<trackindex>1</trackindex>
											</sourcetrack>
												<filter>
													<effect>
														<name>Audio Pan</name>
														<effectid>audiopan</effectid>
														<effectcategory>audiopan</effectcategory>
														<effecttype>audiopan</effecttype>
														<mediatype>audio</mediatype>
														<parameter authoringApp="PremierePro">
															<parameterid>pan</parameterid>
															<name>Pan</name>
															<valuemin>-1</valuemin>
															<valuemax>1</valuemax>
															<value>0</value>
														</parameter>
													</effect>
												</filter>
											<logginginfo>
												<description></description>
												<scene></scene>
												<shottake>AA0253</shottake>
												<lognote></lognote>
											</logginginfo>
											<labels>
												<label2>Iris</label2>
											</labels>
										</clipitem>
										<enabled>TRUE</enabled>
										<locked>FALSE</locked>
										<outputchannelindex>1</outputchannelindex>
									</track>
									<track TL.SQTrackExpandedHeight="25" TL.SQTrackExpanded="0" MZ.TrackTargeted="1" PannerCurrentValue="0.5" PannerIsInverted="true" PannerStartKeyframe="-91445760000000000,0.5,0,0,0,0,0,0" PannerName="Balance" currentExplodedTrackIndex="1" totalExplodedTrackCount="2" premiereTrackType="Stereo">
										<clipitem id="clipitem-810" frameBlend="FALSE" PannerCurrentValue="0.5" PannerKeyframes="" PannerStartKeyframe="-91445760000000000,0.5,0,0,0,0,0,0" PannerIsInverted="true" PannerName="Balance">
											<masterclipid>masterclip-193</masterclipid>
											<name>AA025301.MXF</name>
											<enabled>TRUE</enabled>
											<duration>1068</duration>
											<rate>
												<timebase>25</timebase>
												<ntsc>FALSE</ntsc>
											</rate>
											<start>687</start>
											<end>1755</end>
											<in>0</in>
											<out>1068</out>
											<file id="file-170"/>
											<sourcetrack>
												<mediatype>audio</mediatype>
												<trackindex>2</trackindex>
											</sourcetrack>
												<filter>
													<effect>
														<name>Audio Pan</name>
														<effectid>audiopan</effectid>
														<effectcategory>audiopan</effectcategory>
														<effecttype>audiopan</effecttype>
														<mediatype>audio</mediatype>
														<parameter authoringApp="PremierePro">
															<parameterid>pan</parameterid>
															<name>Pan</name>
															<valuemin>-1</valuemin>
															<valuemax>1</valuemax>
															<value>0</value>
														</parameter>
													</effect>
												</filter>
											<logginginfo>
												<description></description>
												<scene></scene>
												<shottake>AA0253</shottake>
												<lognote></lognote>
											</logginginfo>
											<labels>
												<label2>Iris</label2>
											</labels>
										</clipitem>
										<enabled>TRUE</enabled>
										<locked>FALSE</locked>
										<outputchannelindex>2</outputchannelindex>
									</track>
								</audio>
							</media>
							<timecode>
								<rate>
									<timebase>25</timebase>
									<ntsc>FALSE</ntsc>
								</rate>
								<string>00:00:00:00</string>
								<frame>0</frame>
								<displayformat>NDF</displayformat>
							</timecode>
						</sequence>
						<link>
							<linkclipref>clipitem-808</linkclipref>
							<mediatype>video</mediatype>
							<trackindex>1</trackindex>
							<clipindex>250</clipindex>
						</link>
						<link>
							<linkclipref>clipitem-1258</linkclipref>
							<mediatype>audio</mediatype>
							<trackindex>1</trackindex>
							<clipindex>129</clipindex>
						</link>
						<link>
							<linkclipref>clipitem-1459</linkclipref>
							<mediatype>audio</mediatype>
							<trackindex>3</trackindex>
							<clipindex>107</clipindex>
						</link>
						<link>
							<linkclipref>clipitem-1563</linkclipref>
							<mediatype>audio</mediatype>
							<trackindex>5</trackindex>
							<clipindex>63</clipindex>
						</link>
						<link>
							<linkclipref>clipitem-1634</linkclipref>
							<mediatype>audio</mediatype>
							<trackindex>7</trackindex>
							<clipindex>56</clipindex>
						</link>
						<labels>
							<label2>Forest</label2>
						</labels>
					</clipitem>
					<clipitem id="clipitem-815" frameBlend="FALSE">
						<masterclipid>masterclip-195</masterclipid>
						<name>AA024701.MXF</name>
						<enabled>TRUE</enabled>
						<duration>1944</duration>
						<rate>
							<timebase>25</timebase>
							<ntsc>FALSE</ntsc>
						</rate>
						<start>30232</start>
						<end>30309</end>
						<in>1676</in>
						<out>1753</out>
						<alphatype>none</alphatype>
						<pixelaspectratio>square</pixelaspectratio>
						<anamorphic>FALSE</anamorphic>
						<file id="file-172">
							<name>AA024701.MXF</name>
							<pathurl>file://localhost/Volumes/Brakka/AdobeLager/Katta/Katta-14xxxx-Smart_eller_overvaaket-Chris/02-Video/COWI%20Varemesse%20C300/CONTENTS/CLIPS001/AA0247/AA024701.MXF</pathurl>
							<rate>
								<timebase>25</timebase>
								<ntsc>FALSE</ntsc>
							</rate>
							<duration>1944</duration>
							<timecode>
								<rate>
									<timebase>25</timebase>
									<ntsc>FALSE</ntsc>
								</rate>
								<string>04:24:07:17</string>
								<frame>396192</frame>
								<displayformat>NDF</displayformat>
								<reel>
									<name></name>
								</reel>
							</timecode>
							<media>
								<video>
									<duration>18000</duration>
									<samplecharacteristics>
										<rate>
											<timebase>25</timebase>
											<ntsc>FALSE</ntsc>
										</rate>
										<width>1920</width>
										<height>1080</height>
										<anamorphic>FALSE</anamorphic>
										<pixelaspectratio>square</pixelaspectratio>
										<fielddominance>none</fielddominance>
									</samplecharacteristics>
								</video>
								<audio>
									<samplecharacteristics>
										<depth>16</depth>
										<samplerate>48000</samplerate>
									</samplecharacteristics>
									<channelcount>2</channelcount>
								</audio>
							</media>
						</file>
						<link>
							<linkclipref>clipitem-815</linkclipref>
							<mediatype>video</mediatype>
							<trackindex>1</trackindex>
							<clipindex>251</clipindex>
						</link>
						<link>
							<linkclipref>clipitem-1266</linkclipref>
							<mediatype>audio</mediatype>
							<trackindex>1</trackindex>
							<clipindex>131</clipindex>
						</link>
						<logginginfo>
							<description></description>
							<scene></scene>
							<shottake>AA0247</shottake>
							<lognote></lognote>
						</logginginfo>
						<labels>
							<label2>Iris</label2>
						</labels>
					</clipitem>
					<clipitem id="clipitem-816" frameBlend="FALSE">
						<masterclipid>masterclip-196</masterclipid>
						<name>AA024001.MXF</name>
						<enabled>TRUE</enabled>
						<duration>3936</duration>
						<rate>
							<timebase>25</timebase>
							<ntsc>FALSE</ntsc>
						</rate>
						<start>30309</start>
						<end>30366</end>
						<in>302</in>
						<out>359</out>
						<alphatype>none</alphatype>
						<pixelaspectratio>square</pixelaspectratio>
						<anamorphic>FALSE</anamorphic>
						<file id="file-173">
							<name>AA024001.MXF</name>
							<pathurl>file://localhost/Volumes/Brakka/AdobeLager/Katta/Katta-14xxxx-Smart_eller_overvaaket-Chris/02-Video/COWI%20Varemesse%20C300/CONTENTS/CLIPS001/AA0240/AA024001.MXF</pathurl>
							<rate>
								<timebase>25</timebase>
								<ntsc>FALSE</ntsc>
							</rate>
							<duration>3936</duration>
							<timecode>
								<rate>
									<timebase>25</timebase>
									<ntsc>FALSE</ntsc>
								</rate>
								<string>04:17:16:08</string>
								<frame>385908</frame>
								<displayformat>NDF</displayformat>
								<reel>
									<name></name>
								</reel>
							</timecode>
							<media>
								<video>
									<duration>18000</duration>
									<samplecharacteristics>
										<rate>
											<timebase>25</timebase>
											<ntsc>FALSE</ntsc>
										</rate>
										<width>1920</width>
										<height>1080</height>
										<anamorphic>FALSE</anamorphic>
										<pixelaspectratio>square</pixelaspectratio>
										<fielddominance>none</fielddominance>
									</samplecharacteristics>
								</video>
								<audio>
									<samplecharacteristics>
										<depth>16</depth>
										<samplerate>48000</samplerate>
									</samplecharacteristics>
									<channelcount>2</channelcount>
								</audio>
							</media>
						</file>
						<logginginfo>
							<description></description>
							<scene></scene>
							<shottake>AA0240</shottake>
							<lognote></lognote>
						</logginginfo>
						<labels>
							<label2>Iris</label2>
						</labels>
					</clipitem>
					<clipitem id="clipitem-817" frameBlend="FALSE">
						<masterclipid>masterclip-197</masterclipid>
						<name>E_tillit_kort1.MOV</name>
						<enabled>TRUE</enabled>
						<duration>355</duration>
						<rate>
							<timebase>25</timebase>
							<ntsc>FALSE</ntsc>
						</rate>
						<start>30366</start>
						<end>30710</end>
						<in>1</in>
						<out>345</out>
						<alphatype>black</alphatype>
						<pixelaspectratio>square</pixelaspectratio>
						<anamorphic>FALSE</anamorphic>
						<file id="file-174">
							<name>E_tillit_kort1.MOV</name>
							<pathurl>file://localhost/Volumes/Brakka/AdobeLager/Katta/Katta-14xxxx-Smart_eller_overvaaket-Chris/02-Video/Mobilvideo%20restopptak%20begge/E_tillit_kort1.MOV</pathurl>
							<rate>
								<timebase>30</timebase>
								<ntsc>FALSE</ntsc>
							</rate>
							<duration>426</duration>
							<timecode>
								<rate>
									<timebase>30</timebase>
									<ntsc>FALSE</ntsc>
								</rate>
								<string>00:00:00:00</string>
								<frame>0</frame>
								<displayformat>NDF</displayformat>
								<reel>
									<name></name>
								</reel>
							</timecode>
							<media>
								<video>
									<duration>18000</duration>
									<samplecharacteristics>
										<rate>
											<timebase>30</timebase>
											<ntsc>FALSE</ntsc>
										</rate>
										<width>1280</width>
										<height>720</height>
										<anamorphic>FALSE</anamorphic>
										<pixelaspectratio>square</pixelaspectratio>
										<fielddominance>none</fielddominance>
									</samplecharacteristics>
								</video>
								<audio>
									<samplecharacteristics>
										<depth>16</depth>
										<samplerate>44100</samplerate>
									</samplecharacteristics>
									<channelcount>1</channelcount>
									<layout>mono</layout>
									<audiochannel>
										<sourcechannel>1</sourcechannel>
										<channellabel>discrete</channellabel>
									</audiochannel>
								</audio>
							</media>
						</file>
							<filter>
								<effect>
									<name>Basic Motion</name>
									<effectid>basic</effectid>
									<effectcategory>motion</effectcategory>
									<effecttype>motion</effecttype>
									<mediatype>video</mediatype>
									<parameter authoringApp="PremierePro">
										<parameterid>scale</parameterid>
										<name>Scale</name>
										<valuemin>0</valuemin>
										<valuemax>1000</valuemax>
										<value>100</value>
									</parameter>
									<parameter authoringApp="PremierePro">
										<parameterid>rotation</parameterid>
										<name>Rotation</name>
										<valuemin>-8640</valuemin>
										<valuemax>8640</valuemax>
										<value>180</value>
									</parameter>
									<parameter authoringApp="PremierePro">
										<parameterid>center</parameterid>
										<name>Center</name>
										<value>
											<horiz>0</horiz>
											<vert>0</vert>
										</value>
									</parameter>
									<parameter authoringApp="PremierePro">
										<parameterid>centerOffset</parameterid>
										<name>Anchor Point</name>
										<value>
											<horiz>0</horiz>
											<vert>0</vert>
										</value>
									</parameter>
								</effect>
							</filter>
						<link>
							<linkclipref>clipitem-817</linkclipref>
							<mediatype>video</mediatype>
							<trackindex>1</trackindex>
							<clipindex>253</clipindex>
						</link>
						<link>
							<linkclipref>clipitem-1268</linkclipref>
							<mediatype>audio</mediatype>
							<trackindex>1</trackindex>
							<clipindex>133</clipindex>
						</link>
						<logginginfo>
							<description></description>
							<scene></scene>
							<shottake></shottake>
							<lognote></lognote>
						</logginginfo>
						<labels>
							<label2>Iris</label2>
						</labels>
					</clipitem>
					<clipitem id="clipitem-818" frameBlend="FALSE">
						<masterclipid>masterclip-198</masterclipid>
						<name>MVI_0133.MOV</name>
						<enabled>TRUE</enabled>
						<duration>12269</duration>
						<rate>
							<timebase>25</timebase>
							<ntsc>FALSE</ntsc>
						</rate>
						<start>30710</start>
						<end>30819</end>
						<in>984</in>
						<out>1093</out>
						<alphatype>black</alphatype>
						<pixelaspectratio>square</pixelaspectratio>
						<anamorphic>FALSE</anamorphic>
						<file id="file-175">
							<name>MVI_0133.MOV</name>
							<pathurl>file://localhost/Volumes/Brakka/AdobeLager/Katta/Katta-14xxxx-Smart_eller_overvaaket-Chris/02-Video/Q-free5D%20Roger/DCIM/100EOS5D/MVI_0133.MOV</pathurl>
							<rate>
								<timebase>25</timebase>
								<ntsc>FALSE</ntsc>
							</rate>
							<duration>12269</duration>
							<timecode>
								<rate>
									<timebase>25</timebase>
									<ntsc>FALSE</ntsc>
								</rate>
								<string>00:00:00:00</string>
								<frame>0</frame>
								<displayformat>NDF</displayformat>
								<reel>
									<name></name>
								</reel>
							</timecode>
							<media>
								<video>
									<duration>18000</duration>
									<samplecharacteristics>
										<rate>
											<timebase>25</timebase>
											<ntsc>FALSE</ntsc>
										</rate>
										<width>1920</width>
										<height>1080</height>
										<anamorphic>FALSE</anamorphic>
										<pixelaspectratio>square</pixelaspectratio>
										<fielddominance>none</fielddominance>
									</samplecharacteristics>
								</video>
								<audio>
									<samplecharacteristics>
										<depth>16</depth>
										<samplerate>48000</samplerate>
									</samplecharacteristics>
									<channelcount>1</channelcount>
									<layout>mono</layout>
									<audiochannel>
										<sourcechannel>1</sourcechannel>
										<channellabel>discrete</channellabel>
									</audiochannel>
								</audio>
								<audio>
									<samplecharacteristics>
										<depth>16</depth>
										<samplerate>48000</samplerate>
									</samplecharacteristics>
									<channelcount>1</channelcount>
									<layout>mono</layout>
									<audiochannel>
										<sourcechannel>2</sourcechannel>
										<channellabel>discrete</channellabel>
									</audiochannel>
								</audio>
							</media>
						</file>
						<logginginfo>
							<description></description>
							<scene></scene>
							<shottake></shottake>
							<lognote></lognote>
						</logginginfo>
						<labels>
							<label2>Iris</label2>
						</labels>
					</clipitem>
					<clipitem id="clipitem-819" frameBlend="FALSE">
						<masterclipid>masterclip-198</masterclipid>
						<name>MVI_0133.MOV</name>
						<enabled>TRUE</enabled>
						<duration>12269</duration>
						<rate>
							<timebase>25</timebase>
							<ntsc>FALSE</ntsc>
						</rate>
						<start>30819</start>
						<end>30897</end>
						<in>5838</in>
						<out>5916</out>
						<alphatype>black</alphatype>
						<file id="file-175"/>
						<link>
							<linkclipref>clipitem-819</linkclipref>
							<mediatype>video</mediatype>
							<trackindex>1</trackindex>
							<clipindex>255</clipindex>
						</link>
						<link>
							<linkclipref>clipitem-1567</linkclipref>
							<mediatype>audio</mediatype>
							<trackindex>5</trackindex>
							<clipindex>67</clipindex>
						</link>
						<link>
							<linkclipref>clipitem-1638</linkclipref>
							<mediatype>audio</mediatype>
							<trackindex>7</trackindex>
							<clipindex>60</clipindex>
						</link>
						<logginginfo>
							<description></description>
							<scene></scene>
							<shottake></shottake>
							<lognote></lognote>
						</logginginfo>
						<labels>
							<label2>Iris</label2>
						</labels>
					</clipitem>
					<clipitem id="clipitem-820" frameBlend="FALSE">
						<masterclipid>masterclip-198</masterclipid>
						<name>MVI_0133.MOV</name>
						<enabled>TRUE</enabled>
						<duration>12269</duration>
						<rate>
							<timebase>25</timebase>
							<ntsc>FALSE</ntsc>
						</rate>
						<start>30897</start>
						<end>30944</end>
						<in>5099</in>
						<out>5146</out>
						<alphatype>black</alphatype>
						<file id="file-175"/>
						<link>
							<linkclipref>clipitem-820</linkclipref>
							<mediatype>video</mediatype>
							<trackindex>1</trackindex>
							<clipindex>256</clipindex>
						</link>
						<link>
							<linkclipref>clipitem-1269</linkclipref>
							<mediatype>audio</mediatype>
							<trackindex>1</trackindex>
							<clipindex>134</clipindex>
						</link>
						<link>
							<linkclipref>clipitem-1460</linkclipref>
							<mediatype>audio</mediatype>
							<trackindex>3</trackindex>
							<clipindex>108</clipindex>
						</link>
						<logginginfo>
							<description></description>
							<scene></scene>
							<shottake></shottake>
							<lognote></lognote>
						</logginginfo>
						<labels>
							<label2>Iris</label2>
						</labels>
					</clipitem>
					<clipitem id="clipitem-821" frameBlend="FALSE">
						<masterclipid>masterclip-198</masterclipid>
						<name>MVI_0133.MOV</name>
						<enabled>TRUE</enabled>
						<duration>12269</duration>
						<rate>
							<timebase>25</timebase>
							<ntsc>FALSE</ntsc>
						</rate>
						<start>30944</start>
						<end>30966</end>
						<in>4359</in>
						<out>4381</out>
						<alphatype>black</alphatype>
						<file id="file-175"/>
						<logginginfo>
							<description></description>
							<scene></scene>
							<shottake></shottake>
							<lognote></lognote>
						</logginginfo>
						<labels>
							<label2>Iris</label2>
						</labels>
					</clipitem>
					<clipitem id="clipitem-822" frameBlend="FALSE">
						<masterclipid>masterclip-198</masterclipid>
						<name>MVI_0133.MOV</name>
						<enabled>TRUE</enabled>
						<duration>12269</duration>
						<rate>
							<timebase>25</timebase>
							<ntsc>FALSE</ntsc>
						</rate>
						<start>30966</start>
						<end>31035</end>
						<in>9452</in>
						<out>9521</out>
						<alphatype>black</alphatype>
						<file id="file-175"/>
						<logginginfo>
							<description></description>
							<scene></scene>
							<shottake></shottake>
							<lognote></lognote>
						</logginginfo>
						<labels>
							<label2>Iris</label2>
						</labels>
					</clipitem>
					<clipitem id="clipitem-823" frameBlend="FALSE">
						<masterclipid>masterclip-199</masterclipid>
						<name>MVI_0135.MOV</name>
						<enabled>TRUE</enabled>
						<duration>927</duration>
						<rate>
							<timebase>25</timebase>
							<ntsc>FALSE</ntsc>
						</rate>
						<start>31035</start>
						<end>31127</end>
						<in>21</in>
						<out>113</out>
						<alphatype>black</alphatype>
						<pixelaspectratio>square</pixelaspectratio>
						<anamorphic>FALSE</anamorphic>
						<file id="file-176">
							<name>MVI_0135.MOV</name>
							<pathurl>file://localhost/Volumes/Brakka/AdobeLager/Katta/Katta-14xxxx-Smart_eller_overvaaket-Chris/02-Video/Q-free5D%20Roger/DCIM/100EOS5D/MVI_0135.MOV</pathurl>
							<rate>
								<timebase>25</timebase>
								<ntsc>FALSE</ntsc>
							</rate>
							<duration>927</duration>
							<timecode>
								<rate>
									<timebase>25</timebase>
									<ntsc>FALSE</ntsc>
								</rate>
								<string>00:00:00:00</string>
								<frame>0</frame>
								<displayformat>NDF</displayformat>
								<reel>
									<name></name>
								</reel>
							</timecode>
							<media>
								<video>
									<duration>18000</duration>
									<samplecharacteristics>
										<rate>
											<timebase>25</timebase>
											<ntsc>FALSE</ntsc>
										</rate>
										<width>1920</width>
										<height>1080</height>
										<anamorphic>FALSE</anamorphic>
										<pixelaspectratio>square</pixelaspectratio>
										<fielddominance>none</fielddominance>
									</samplecharacteristics>
								</video>
								<audio>
									<samplecharacteristics>
										<depth>16</depth>
										<samplerate>48000</samplerate>
									</samplecharacteristics>
									<channelcount>1</channelcount>
									<layout>mono</layout>
									<audiochannel>
										<sourcechannel>1</sourcechannel>
										<channellabel>discrete</channellabel>
									</audiochannel>
								</audio>
								<audio>
									<samplecharacteristics>
										<depth>16</depth>
										<samplerate>48000</samplerate>
									</samplecharacteristics>
									<channelcount>1</channelcount>
									<layout>mono</layout>
									<audiochannel>
										<sourcechannel>2</sourcechannel>
										<channellabel>discrete</channellabel>
									</audiochannel>
								</audio>
							</media>
						</file>
						<logginginfo>
							<description></description>
							<scene></scene>
							<shottake></shottake>
							<lognote></lognote>
						</logginginfo>
					</clipitem>
					<clipitem id="clipitem-824" frameBlend="FALSE">
						<masterclipid>masterclip-200</masterclipid>
						<name>MVI_0136.MOV</name>
						<enabled>TRUE</enabled>
						<duration>641</duration>
						<rate>
							<timebase>25</timebase>
							<ntsc>FALSE</ntsc>
						</rate>
						<start>31127</start>
						<end>31184</end>
						<in>411</in>
						<out>468</out>
						<alphatype>black</alphatype>
						<pixelaspectratio>square</pixelaspectratio>
						<anamorphic>FALSE</anamorphic>
						<file id="file-177">
							<name>MVI_0136.MOV</name>
							<pathurl>file://localhost/Volumes/Brakka/AdobeLager/Katta/Katta-14xxxx-Smart_eller_overvaaket-Chris/02-Video/Q-free5D%20Roger/DCIM/100EOS5D/MVI_0136.MOV</pathurl>
							<rate>
								<timebase>25</timebase>
								<ntsc>FALSE</ntsc>
							</rate>
							<duration>641</duration>
							<timecode>
								<rate>
									<timebase>25</timebase>
									<ntsc>FALSE</ntsc>
								</rate>
								<string>00:00:00:00</string>
								<frame>0</frame>
								<displayformat>NDF</displayformat>
								<reel>
									<name></name>
								</reel>
							</timecode>
							<media>
								<video>
									<duration>18000</duration>
									<samplecharacteristics>
										<rate>
											<timebase>25</timebase>
											<ntsc>FALSE</ntsc>
										</rate>
										<width>1920</width>
										<height>1080</height>
										<anamorphic>FALSE</anamorphic>
										<pixelaspectratio>square</pixelaspectratio>
										<fielddominance>none</fielddominance>
									</samplecharacteristics>
								</video>
								<audio>
									<samplecharacteristics>
										<depth>16</depth>
										<samplerate>48000</samplerate>
									</samplecharacteristics>
									<channelcount>1</channelcount>
									<layout>mono</layout>
									<audiochannel>
										<sourcechannel>1</sourcechannel>
										<channellabel>discrete</channellabel>
									</audiochannel>
								</audio>
								<audio>
									<samplecharacteristics>
										<depth>16</depth>
										<samplerate>48000</samplerate>
									</samplecharacteristics>
									<channelcount>1</channelcount>
									<layout>mono</layout>
									<audiochannel>
										<sourcechannel>2</sourcechannel>
										<channellabel>discrete</channellabel>
									</audiochannel>
								</audio>
							</media>
						</file>
						<logginginfo>
							<description></description>
							<scene></scene>
							<shottake></shottake>
							<lognote></lognote>
						</logginginfo>
					</clipitem>
					<clipitem id="clipitem-825" frameBlend="FALSE">
						<masterclipid>masterclip-201</masterclipid>
						<name>AA004801.MXF</name>
						<enabled>TRUE</enabled>
						<duration>1260</duration>
						<rate>
							<timebase>25</timebase>
							<ntsc>FALSE</ntsc>
						</rate>
						<start>31184</start>
						<end>31222</end>
						<in>412</in>
						<out>450</out>
						<alphatype>none</alphatype>
						<pixelaspectratio>square</pixelaspectratio>
						<anamorphic>FALSE</anamorphic>
						<file id="file-178">
							<name>AA004801.MXF</name>
							<pathurl>file://localhost/Volumes/Brakka/AdobeLager/Katta/Katta-14xxxx-Smart_eller_overvaaket-Chris/02-Video/Q-free300%20Roger/CONTENTS/CLIPS001/AA0048/AA004801.MXF</pathurl>
							<rate>
								<timebase>25</timebase>
								<ntsc>FALSE</ntsc>
							</rate>
							<duration>1260</duration>
							<timecode>
								<rate>
									<timebase>25</timebase>
									<ntsc>FALSE</ntsc>
								</rate>
								<string>11:18:04:16</string>
								<frame>1017116</frame>
								<displayformat>NDF</displayformat>
								<reel>
									<name></name>
								</reel>
							</timecode>
							<media>
								<video>
									<duration>18000</duration>
									<samplecharacteristics>
										<rate>
											<timebase>25</timebase>
											<ntsc>FALSE</ntsc>
										</rate>
										<width>1920</width>
										<height>1080</height>
										<anamorphic>FALSE</anamorphic>
										<pixelaspectratio>square</pixelaspectratio>
										<fielddominance>upper</fielddominance>
									</samplecharacteristics>
								</video>
								<audio>
									<samplecharacteristics>
										<depth>16</depth>
										<samplerate>48000</samplerate>
									</samplecharacteristics>
									<channelcount>1</channelcount>
									<layout>mono</layout>
									<audiochannel>
										<sourcechannel>1</sourcechannel>
										<channellabel>discrete</channellabel>
									</audiochannel>
								</audio>
								<audio>
									<samplecharacteristics>
										<depth>16</depth>
										<samplerate>48000</samplerate>
									</samplecharacteristics>
									<channelcount>1</channelcount>
									<layout>mono</layout>
									<audiochannel>
										<sourcechannel>2</sourcechannel>
										<channellabel>discrete</channellabel>
									</audiochannel>
								</audio>
							</media>
						</file>
						<logginginfo>
							<description></description>
							<scene></scene>
							<shottake>AA0048</shottake>
							<lognote></lognote>
						</logginginfo>
						<labels>
							<label2>Iris</label2>
						</labels>
					</clipitem>
					<clipitem id="clipitem-826" frameBlend="FALSE">
						<masterclipid>masterclip-202</masterclipid>
						<name>AA004901.MXF</name>
						<enabled>TRUE</enabled>
						<duration>1068</duration>
						<rate>
							<timebase>25</timebase>
							<ntsc>FALSE</ntsc>
						</rate>
						<start>31222</start>
						<end>31313</end>
						<in>593</in>
						<out>684</out>
						<alphatype>none</alphatype>
						<pixelaspectratio>square</pixelaspectratio>
						<anamorphic>FALSE</anamorphic>
						<file id="file-179">
							<name>AA004901.MXF</name>
							<pathurl>file://localhost/Volumes/Brakka/AdobeLager/Katta/Katta-14xxxx-Smart_eller_overvaaket-Chris/02-Video/Q-free300%20Roger/CONTENTS/CLIPS001/AA0049/AA004901.MXF</pathurl>
							<rate>
								<timebase>25</timebase>
								<ntsc>FALSE</ntsc>
							</rate>
							<duration>1068</duration>
							<timecode>
								<rate>
									<timebase>25</timebase>
									<ntsc>FALSE</ntsc>
								</rate>
								<string>11:19:36:07</string>
								<frame>1019407</frame>
								<displayformat>NDF</displayformat>
								<reel>
									<name></name>
								</reel>
							</timecode>
							<media>
								<video>
									<duration>18000</duration>
									<samplecharacteristics>
										<rate>
											<timebase>25</timebase>
											<ntsc>FALSE</ntsc>
										</rate>
										<width>1920</width>
										<height>1080</height>
										<anamorphic>FALSE</anamorphic>
										<pixelaspectratio>square</pixelaspectratio>
										<fielddominance>upper</fielddominance>
									</samplecharacteristics>
								</video>
								<audio>
									<samplecharacteristics>
										<depth>16</depth>
										<samplerate>48000</samplerate>
									</samplecharacteristics>
									<channelcount>1</channelcount>
									<layout>mono</layout>
									<audiochannel>
										<sourcechannel>1</sourcechannel>
										<channellabel>discrete</channellabel>
									</audiochannel>
								</audio>
								<audio>
									<samplecharacteristics>
										<depth>16</depth>
										<samplerate>48000</samplerate>
									</samplecharacteristics>
									<channelcount>1</channelcount>
									<layout>mono</layout>
									<audiochannel>
										<sourcechannel>2</sourcechannel>
										<channellabel>discrete</channellabel>
									</audiochannel>
								</audio>
							</media>
						</file>
							<filter>
								<effect>
									<name>Basic Motion</name>
									<effectid>basic</effectid>
									<effectcategory>motion</effectcategory>
									<effecttype>motion</effecttype>
									<mediatype>video</mediatype>
									<parameter authoringApp="PremierePro">
										<parameterid>scale</parameterid>
										<name>Scale</name>
										<valuemin>0</valuemin>
										<valuemax>1000</valuemax>
										<value>105</value>
									</parameter>
									<parameter authoringApp="PremierePro">
										<parameterid>rotation</parameterid>
										<name>Rotation</name>
										<valuemin>-8640</valuemin>
										<valuemax>8640</valuemax>
										<value>0</value>
									</parameter>
									<parameter authoringApp="PremierePro">
										<parameterid>center</parameterid>
										<name>Center</name>
										<value>
											<horiz>0</horiz>
											<vert>0</vert>
										</value>
									</parameter>
									<parameter authoringApp="PremierePro">
										<parameterid>centerOffset</parameterid>
										<name>Anchor Point</name>
										<value>
											<horiz>0</horiz>
											<vert>0</vert>
										</value>
									</parameter>
								</effect>
							</filter>
						<logginginfo>
							<description></description>
							<scene></scene>
							<shottake>AA0049</shottake>
							<lognote></lognote>
						</logginginfo>
						<labels>
							<label2>Iris</label2>
						</labels>
					</clipitem>
					<clipitem id="clipitem-827" frameBlend="FALSE">
						<masterclipid>masterclip-203</masterclipid>
						<name>MVI_0161.MOV</name>
						<enabled>TRUE</enabled>
						<duration>3004</duration>
						<rate>
							<timebase>25</timebase>
							<ntsc>FALSE</ntsc>
						</rate>
						<start>31313</start>
						<end>31482</end>
						<in>344</in>
						<out>513</out>
						<alphatype>black</alphatype>
						<pixelaspectratio>square</pixelaspectratio>
						<anamorphic>FALSE</anamorphic>
						<file id="file-180">
							<name>MVI_0161.MOV</name>
							<pathurl>file://localhost/Volumes/Brakka/AdobeLager/Katta/Katta-14xxxx-Smart_eller_overvaaket-Chris/02-Video/Q-free5D%20Roger/DCIM/100EOS5D/MVI_0161.MOV</pathurl>
							<rate>
								<timebase>25</timebase>
								<ntsc>FALSE</ntsc>
							</rate>
							<duration>3004</duration>
							<timecode>
								<rate>
									<timebase>25</timebase>
									<ntsc>FALSE</ntsc>
								</rate>
								<string>00:00:00:00</string>
								<frame>0</frame>
								<displayformat>NDF</displayformat>
								<reel>
									<name></name>
								</reel>
							</timecode>
							<media>
								<video>
									<duration>18000</duration>
									<samplecharacteristics>
										<rate>
											<timebase>25</timebase>
											<ntsc>FALSE</ntsc>
										</rate>
										<width>1920</width>
										<height>1080</height>
										<anamorphic>FALSE</anamorphic>
										<pixelaspectratio>square</pixelaspectratio>
										<fielddominance>none</fielddominance>
									</samplecharacteristics>
								</video>
								<audio>
									<samplecharacteristics>
										<depth>16</depth>
										<samplerate>48000</samplerate>
									</samplecharacteristics>
									<channelcount>1</channelcount>
									<layout>mono</layout>
									<audiochannel>
										<sourcechannel>1</sourcechannel>
										<channellabel>discrete</channellabel>
									</audiochannel>
								</audio>
								<audio>
									<samplecharacteristics>
										<depth>16</depth>
										<samplerate>48000</samplerate>
									</samplecharacteristics>
									<channelcount>1</channelcount>
									<layout>mono</layout>
									<audiochannel>
										<sourcechannel>2</sourcechannel>
										<channellabel>discrete</channellabel>
									</audiochannel>
								</audio>
							</media>
						</file>
						<link>
							<linkclipref>clipitem-827</linkclipref>
							<mediatype>video</mediatype>
							<trackindex>1</trackindex>
							<clipindex>263</clipindex>
						</link>
						<link>
							<linkclipref>clipitem-1571</linkclipref>
							<mediatype>audio</mediatype>
							<trackindex>5</trackindex>
							<clipindex>71</clipindex>
						</link>
						<link>
							<linkclipref>clipitem-1642</linkclipref>
							<mediatype>audio</mediatype>
							<trackindex>7</trackindex>
							<clipindex>64</clipindex>
						</link>
						<logginginfo>
							<description></description>
							<scene></scene>
							<shottake></shottake>
							<lognote></lognote>
						</logginginfo>
						<labels>
							<label2>Iris</label2>
						</labels>
					</clipitem>
					<clipitem id="clipitem-828" frameBlend="FALSE">
						<masterclipid>masterclip-204</masterclipid>
						<name>AA005201.MXF</name>
						<enabled>TRUE</enabled>
						<duration>8832</duration>
						<rate>
							<timebase>25</timebase>
							<ntsc>FALSE</ntsc>
						</rate>
						<start>31482</start>
						<end>31570</end>
						<in>3920</in>
						<out>4008</out>
						<alphatype>none</alphatype>
						<pixelaspectratio>square</pixelaspectratio>
						<anamorphic>FALSE</anamorphic>
						<file id="file-181">
							<name>AA005201.MXF</name>
							<pathurl>file://localhost/Volumes/Brakka/AdobeLager/Katta/Katta-14xxxx-Smart_eller_overvaaket-Chris/02-Video/Q-free300%20Roger/CONTENTS/CLIPS001/AA0052/AA005201.MXF</pathurl>
							<rate>
								<timebase>25</timebase>
								<ntsc>FALSE</ntsc>
							</rate>
							<duration>8832</duration>
							<timecode>
								<rate>
									<timebase>25</timebase>
									<ntsc>FALSE</ntsc>
								</rate>
								<string>11:21:29:07</string>
								<frame>1022232</frame>
								<displayformat>NDF</displayformat>
								<reel>
									<name></name>
								</reel>
							</timecode>
							<media>
								<video>
									<duration>18000</duration>
									<samplecharacteristics>
										<rate>
											<timebase>25</timebase>
											<ntsc>FALSE</ntsc>
										</rate>
										<width>1920</width>
										<height>1080</height>
										<anamorphic>FALSE</anamorphic>
										<pixelaspectratio>square</pixelaspectratio>
										<fielddominance>upper</fielddominance>
									</samplecharacteristics>
								</video>
								<audio>
									<samplecharacteristics>
										<depth>16</depth>
										<samplerate>48000</samplerate>
									</samplecharacteristics>
									<channelcount>1</channelcount>
									<layout>mono</layout>
									<audiochannel>
										<sourcechannel>1</sourcechannel>
										<channellabel>discrete</channellabel>
									</audiochannel>
								</audio>
								<audio>
									<samplecharacteristics>
										<depth>16</depth>
										<samplerate>48000</samplerate>
									</samplecharacteristics>
									<channelcount>1</channelcount>
									<layout>mono</layout>
									<audiochannel>
										<sourcechannel>2</sourcechannel>
										<channellabel>discrete</channellabel>
									</audiochannel>
								</audio>
							</media>
						</file>
						<link>
							<linkclipref>clipitem-828</linkclipref>
							<mediatype>video</mediatype>
							<trackindex>1</trackindex>
							<clipindex>264</clipindex>
						</link>
						<link>
							<linkclipref>clipitem-1572</linkclipref>
							<mediatype>audio</mediatype>
							<trackindex>5</trackindex>
							<clipindex>72</clipindex>
						</link>
						<link>
							<linkclipref>clipitem-1643</linkclipref>
							<mediatype>audio</mediatype>
							<trackindex>7</trackindex>
							<clipindex>65</clipindex>
						</link>
						<logginginfo>
							<description></description>
							<scene></scene>
							<shottake>AA0052</shottake>
							<lognote></lognote>
						</logginginfo>
						<labels>
							<label2>Iris</label2>
						</labels>
					</clipitem>
					<clipitem id="clipitem-829" frameBlend="FALSE">
						<masterclipid>masterclip-205</masterclipid>
						<name>MVI_0152.MOV</name>
						<enabled>TRUE</enabled>
						<duration>806</duration>
						<rate>
							<timebase>25</timebase>
							<ntsc>FALSE</ntsc>
						</rate>
						<start>31570</start>
						<end>31617</end>
						<in>201</in>
						<out>248</out>
						<alphatype>black</alphatype>
						<pixelaspectratio>square</pixelaspectratio>
						<anamorphic>FALSE</anamorphic>
						<file id="file-182">
							<name>MVI_0152.MOV</name>
							<pathurl>file://localhost/Volumes/Brakka/AdobeLager/Katta/Katta-14xxxx-Smart_eller_overvaaket-Chris/02-Video/Q-free5D%20Roger/DCIM/100EOS5D/MVI_0152.MOV</pathurl>
							<rate>
								<timebase>25</timebase>
								<ntsc>FALSE</ntsc>
							</rate>
							<duration>806</duration>
							<timecode>
								<rate>
									<timebase>25</timebase>
									<ntsc>FALSE</ntsc>
								</rate>
								<string>00:00:00:00</string>
								<frame>0</frame>
								<displayformat>NDF</displayformat>
								<reel>
									<name></name>
								</reel>
							</timecode>
							<media>
								<video>
									<duration>18000</duration>
									<samplecharacteristics>
										<rate>
											<timebase>25</timebase>
											<ntsc>FALSE</ntsc>
										</rate>
										<width>1920</width>
										<height>1080</height>
										<anamorphic>FALSE</anamorphic>
										<pixelaspectratio>square</pixelaspectratio>
										<fielddominance>none</fielddominance>
									</samplecharacteristics>
								</video>
								<audio>
									<samplecharacteristics>
										<depth>16</depth>
										<samplerate>48000</samplerate>
									</samplecharacteristics>
									<channelcount>1</channelcount>
									<layout>mono</layout>
									<audiochannel>
										<sourcechannel>1</sourcechannel>
										<channellabel>discrete</channellabel>
									</audiochannel>
								</audio>
								<audio>
									<samplecharacteristics>
										<depth>16</depth>
										<samplerate>48000</samplerate>
									</samplecharacteristics>
									<channelcount>1</channelcount>
									<layout>mono</layout>
									<audiochannel>
										<sourcechannel>2</sourcechannel>
										<channellabel>discrete</channellabel>
									</audiochannel>
								</audio>
							</media>
						</file>
						<logginginfo>
							<description></description>
							<scene></scene>
							<shottake></shottake>
							<lognote></lognote>
						</logginginfo>
						<labels>
							<label2>Iris</label2>
						</labels>
					</clipitem>
					<clipitem id="clipitem-830" frameBlend="FALSE">
						<masterclipid>masterclip-204</masterclipid>
						<name>AA005201.MXF</name>
						<enabled>TRUE</enabled>
						<duration>8832</duration>
						<rate>
							<timebase>25</timebase>
							<ntsc>FALSE</ntsc>
						</rate>
						<start>31617</start>
						<end>31670</end>
						<in>6510</in>
						<out>6563</out>
						<alphatype>none</alphatype>
						<file id="file-181"/>
						<link>
							<linkclipref>clipitem-830</linkclipref>
							<mediatype>video</mediatype>
							<trackindex>1</trackindex>
							<clipindex>266</clipindex>
						</link>
						<link>
							<linkclipref>clipitem-1272</linkclipref>
							<mediatype>audio</mediatype>
							<trackindex>1</trackindex>
							<clipindex>137</clipindex>
						</link>
						<link>
							<linkclipref>clipitem-1463</linkclipref>
							<mediatype>audio</mediatype>
							<trackindex>3</trackindex>
							<clipindex>111</clipindex>
						</link>
						<logginginfo>
							<description></description>
							<scene></scene>
							<shottake>AA0052</shottake>
							<lognote></lognote>
						</logginginfo>
						<labels>
							<label2>Iris</label2>
						</labels>
					</clipitem>
					<clipitem id="clipitem-831" frameBlend="FALSE">
						<masterclipid>masterclip-205</masterclipid>
						<name>MVI_0152.MOV</name>
						<enabled>TRUE</enabled>
						<duration>806</duration>
						<rate>
							<timebase>25</timebase>
							<ntsc>FALSE</ntsc>
						</rate>
						<start>31670</start>
						<end>31694</end>
						<in>706</in>
						<out>730</out>
						<alphatype>black</alphatype>
						<file id="file-182"/>
						<logginginfo>
							<description></description>
							<scene></scene>
							<shottake></shottake>
							<lognote></lognote>
						</logginginfo>
						<labels>
							<label2>Iris</label2>
						</labels>
					</clipitem>
					<clipitem id="clipitem-832" frameBlend="FALSE">
						<masterclipid>masterclip-204</masterclipid>
						<name>AA005201.MXF</name>
						<enabled>TRUE</enabled>
						<duration>8832</duration>
						<rate>
							<timebase>25</timebase>
							<ntsc>FALSE</ntsc>
						</rate>
						<start>31694</start>
						<end>31786</end>
						<in>7098</in>
						<out>7190</out>
						<alphatype>none</alphatype>
						<file id="file-181"/>
						<logginginfo>
							<description></description>
							<scene></scene>
							<shottake>AA0052</shottake>
							<lognote></lognote>
						</logginginfo>
						<labels>
							<label2>Iris</label2>
						</labels>
					</clipitem>
					<clipitem id="clipitem-833" frameBlend="FALSE">
						<masterclipid>masterclip-204</masterclipid>
						<name>AA005201.MXF</name>
						<enabled>TRUE</enabled>
						<duration>8832</duration>
						<rate>
							<timebase>25</timebase>
							<ntsc>FALSE</ntsc>
						</rate>
						<start>31786</start>
						<end>31897</end>
						<in>7282</in>
						<out>7393</out>
						<alphatype>none</alphatype>
						<file id="file-181"/>
						<logginginfo>
							<description></description>
							<scene></scene>
							<shottake>AA0052</shottake>
							<lognote></lognote>
						</logginginfo>
						<labels>
							<label2>Iris</label2>
						</labels>
					</clipitem>
					<clipitem id="clipitem-834" frameBlend="FALSE">
						<masterclipid>masterclip-204</masterclipid>
						<name>AA005201.MXF</name>
						<enabled>TRUE</enabled>
						<duration>8832</duration>
						<rate>
							<timebase>25</timebase>
							<ntsc>FALSE</ntsc>
						</rate>
						<start>31897</start>
						<end>31945</end>
						<in>8421</in>
						<out>8469</out>
						<alphatype>none</alphatype>
						<file id="file-181"/>
						<logginginfo>
							<description></description>
							<scene></scene>
							<shottake>AA0052</shottake>
							<lognote></lognote>
						</logginginfo>
						<labels>
							<label2>Iris</label2>
						</labels>
					</clipitem>
					<clipitem id="clipitem-835" frameBlend="FALSE">
						<masterclipid>masterclip-206</masterclipid>
						<name>AA005201.MXF</name>
						<enabled>TRUE</enabled>
						<duration>8832</duration>
						<rate>
							<timebase>25</timebase>
							<ntsc>FALSE</ntsc>
						</rate>
						<start>31945</start>
						<end>31974</end>
						<in>8181</in>
						<out>8210</out>
						<alphatype>none</alphatype>
						<pixelaspectratio>square</pixelaspectratio>
						<anamorphic>FALSE</anamorphic>
						<file id="file-183">
							<name>AA005201.MXF</name>
							<pathurl>file://localhost/Volumes/Brakka/AdobeLager/Katta/Katta-14xxxx-Smart_eller_overvaaket-Chris/02-Video/Q-free300%20Roger/CONTENTS/CLIPS001/AA0052/AA005201.MXF</pathurl>
							<rate>
								<timebase>25</timebase>
								<ntsc>FALSE</ntsc>
							</rate>
							<duration>8832</duration>
							<timecode>
								<rate>
									<timebase>25</timebase>
									<ntsc>FALSE</ntsc>
								</rate>
								<string>11:21:29:07</string>
								<frame>1022232</frame>
								<displayformat>NDF</displayformat>
								<reel>
									<name></name>
								</reel>
							</timecode>
							<media>
								<video>
									<duration>18000</duration>
									<samplecharacteristics>
										<rate>
											<timebase>25</timebase>
											<ntsc>FALSE</ntsc>
										</rate>
										<width>1920</width>
										<height>1080</height>
										<anamorphic>FALSE</anamorphic>
										<pixelaspectratio>square</pixelaspectratio>
										<fielddominance>upper</fielddominance>
									</samplecharacteristics>
								</video>
								<audio>
									<samplecharacteristics>
										<depth>16</depth>
										<samplerate>48000</samplerate>
									</samplecharacteristics>
									<channelcount>1</channelcount>
									<layout>mono</layout>
									<audiochannel>
										<sourcechannel>1</sourcechannel>
										<channellabel>discrete</channellabel>
									</audiochannel>
								</audio>
								<audio>
									<samplecharacteristics>
										<depth>16</depth>
										<samplerate>48000</samplerate>
									</samplecharacteristics>
									<channelcount>1</channelcount>
									<layout>mono</layout>
									<audiochannel>
										<sourcechannel>2</sourcechannel>
										<channellabel>discrete</channellabel>
									</audiochannel>
								</audio>
							</media>
						</file>
						<logginginfo>
							<description></description>
							<scene></scene>
							<shottake>AA0052</shottake>
							<lognote></lognote>
						</logginginfo>
						<labels>
							<label2>Iris</label2>
						</labels>
					</clipitem>
					<clipitem id="clipitem-836" frameBlend="FALSE">
						<masterclipid>masterclip-207</masterclipid>
						<name>MVI_0151.MOV</name>
						<enabled>TRUE</enabled>
						<duration>8682</duration>
						<rate>
							<timebase>25</timebase>
							<ntsc>FALSE</ntsc>
						</rate>
						<start>31974</start>
						<end>32023</end>
						<in>7795</in>
						<out>7844</out>
						<alphatype>black</alphatype>
						<pixelaspectratio>square</pixelaspectratio>
						<anamorphic>FALSE</anamorphic>
						<file id="file-184">
							<name>MVI_0151.MOV</name>
							<pathurl>file://localhost/Volumes/Brakka/AdobeLager/Katta/Katta-14xxxx-Smart_eller_overvaaket-Chris/02-Video/Q-free5D%20Roger/DCIM/100EOS5D/MVI_0151.MOV</pathurl>
							<rate>
								<timebase>25</timebase>
								<ntsc>FALSE</ntsc>
							</rate>
							<duration>8682</duration>
							<timecode>
								<rate>
									<timebase>25</timebase>
									<ntsc>FALSE</ntsc>
								</rate>
								<string>00:00:00:00</string>
								<frame>0</frame>
								<displayformat>NDF</displayformat>
								<reel>
									<name></name>
								</reel>
							</timecode>
							<media>
								<video>
									<duration>18000</duration>
									<samplecharacteristics>
										<rate>
											<timebase>25</timebase>
											<ntsc>FALSE</ntsc>
										</rate>
										<width>1920</width>
										<height>1080</height>
										<anamorphic>FALSE</anamorphic>
										<pixelaspectratio>square</pixelaspectratio>
										<fielddominance>none</fielddominance>
									</samplecharacteristics>
								</video>
								<audio>
									<samplecharacteristics>
										<depth>16</depth>
										<samplerate>48000</samplerate>
									</samplecharacteristics>
									<channelcount>1</channelcount>
									<layout>mono</layout>
									<audiochannel>
										<sourcechannel>1</sourcechannel>
										<channellabel>discrete</channellabel>
									</audiochannel>
								</audio>
								<audio>
									<samplecharacteristics>
										<depth>16</depth>
										<samplerate>48000</samplerate>
									</samplecharacteristics>
									<channelcount>1</channelcount>
									<layout>mono</layout>
									<audiochannel>
										<sourcechannel>2</sourcechannel>
										<channellabel>discrete</channellabel>
									</audiochannel>
								</audio>
							</media>
						</file>
						<logginginfo>
							<description></description>
							<scene></scene>
							<shottake></shottake>
							<lognote></lognote>
						</logginginfo>
						<labels>
							<label2>Iris</label2>
						</labels>
					</clipitem>
					<clipitem id="clipitem-837" frameBlend="FALSE">
						<masterclipid>masterclip-208</masterclipid>
						<name>AA005301.MXF</name>
						<enabled>TRUE</enabled>
						<duration>3672</duration>
						<rate>
							<timebase>25</timebase>
							<ntsc>FALSE</ntsc>
						</rate>
						<start>32023</start>
						<end>32172</end>
						<in>1809</in>
						<out>1958</out>
						<alphatype>none</alphatype>
						<pixelaspectratio>square</pixelaspectratio>
						<anamorphic>FALSE</anamorphic>
						<file id="file-185">
							<name>AA005301.MXF</name>
							<pathurl>file://localhost/Volumes/Brakka/AdobeLager/Katta/Katta-14xxxx-Smart_eller_overvaaket-Chris/02-Video/Q-free300%20Roger/CONTENTS/CLIPS001/AA0053/AA005301.MXF</pathurl>
							<rate>
								<timebase>25</timebase>
								<ntsc>FALSE</ntsc>
							</rate>
							<duration>3672</duration>
							<timecode>
								<rate>
									<timebase>25</timebase>
									<ntsc>FALSE</ntsc>
								</rate>
								<string>11:27:24:22</string>
								<frame>1031122</frame>
								<displayformat>NDF</displayformat>
								<reel>
									<name></name>
								</reel>
							</timecode>
							<media>
								<video>
									<duration>18000</duration>
									<samplecharacteristics>
										<rate>
											<timebase>25</timebase>
											<ntsc>FALSE</ntsc>
										</rate>
										<width>1920</width>
										<height>1080</height>
										<anamorphic>FALSE</anamorphic>
										<pixelaspectratio>square</pixelaspectratio>
										<fielddominance>upper</fielddominance>
									</samplecharacteristics>
								</video>
								<audio>
									<samplecharacteristics>
										<depth>16</depth>
										<samplerate>48000</samplerate>
									</samplecharacteristics>
									<channelcount>1</channelcount>
									<layout>mono</layout>
									<audiochannel>
										<sourcechannel>1</sourcechannel>
										<channellabel>discrete</channellabel>
									</audiochannel>
								</audio>
								<audio>
									<samplecharacteristics>
										<depth>16</depth>
										<samplerate>48000</samplerate>
									</samplecharacteristics>
									<channelcount>1</channelcount>
									<layout>mono</layout>
									<audiochannel>
										<sourcechannel>2</sourcechannel>
										<channellabel>discrete</channellabel>
									</audiochannel>
								</audio>
							</media>
						</file>
						<logginginfo>
							<description></description>
							<scene></scene>
							<shottake>AA0053</shottake>
							<lognote></lognote>
						</logginginfo>
						<labels>
							<label2>Iris</label2>
						</labels>
					</clipitem>
					<clipitem id="clipitem-838" frameBlend="FALSE">
						<masterclipid>masterclip-207</masterclipid>
						<name>MVI_0151.MOV</name>
						<enabled>TRUE</enabled>
						<duration>8682</duration>
						<rate>
							<timebase>25</timebase>
							<ntsc>FALSE</ntsc>
						</rate>
						<start>32172</start>
						<end>32209</end>
						<in>7993</in>
						<out>8030</out>
						<alphatype>black</alphatype>
						<file id="file-184"/>
						<logginginfo>
							<description></description>
							<scene></scene>
							<shottake></shottake>
							<lognote></lognote>
						</logginginfo>
						<labels>
							<label2>Iris</label2>
						</labels>
					</clipitem>
					<clipitem id="clipitem-839" frameBlend="FALSE">
						<masterclipid>masterclip-208</masterclipid>
						<name>AA005301.MXF</name>
						<enabled>TRUE</enabled>
						<duration>3672</duration>
						<rate>
							<timebase>25</timebase>
							<ntsc>FALSE</ntsc>
						</rate>
						<start>32209</start>
						<end>32228</end>
						<in>2021</in>
						<out>2040</out>
						<alphatype>none</alphatype>
						<file id="file-185"/>
						<logginginfo>
							<description></description>
							<scene></scene>
							<shottake>AA0053</shottake>
							<lognote></lognote>
						</logginginfo>
						<labels>
							<label2>Iris</label2>
						</labels>
					</clipitem>
					<clipitem id="clipitem-840" frameBlend="FALSE">
						<masterclipid>masterclip-6</masterclipid>
						<name>136297_1_5_volvo.mov</name>
						<enabled>TRUE</enabled>
						<duration>3155</duration>
						<rate>
							<timebase>25</timebase>
							<ntsc>FALSE</ntsc>
						</rate>
						<start>32228</start>
						<end>32427</end>
						<in>1389</in>
						<out>1588</out>
						<alphatype>black</alphatype>
						<file id="file-6"/>
						<logginginfo>
							<description></description>
							<scene></scene>
							<shottake></shottake>
							<lognote></lognote>
						</logginginfo>
						<labels>
							<label2>Iris</label2>
						</labels>
					</clipitem>
					<clipitem id="clipitem-841" frameBlend="FALSE">
						<masterclipid>masterclip-209</masterclipid>
						<name>PF0003133.mov</name>
						<enabled>TRUE</enabled>
						<duration>808</duration>
						<rate>
							<timebase>25</timebase>
							<ntsc>FALSE</ntsc>
						</rate>
						<start>32427</start>
						<end>32491</end>
						<in>482</in>
						<out>546</out>
						<alphatype>black</alphatype>
						<pixelaspectratio>square</pixelaspectratio>
						<anamorphic>FALSE</anamorphic>
						<file id="file-186">
							<name>PF0003133.mov</name>
							<pathurl>file://localhost/Volumes/Brakka/AdobeLager/Katta/Katta-14xxxx-Smart_eller_overvaaket-Chris/02-Video/Arkiv/PF0003133.mov</pathurl>
							<rate>
								<timebase>25</timebase>
								<ntsc>FALSE</ntsc>
							</rate>
							<duration>808</duration>
							<timecode>
								<rate>
									<timebase>25</timebase>
									<ntsc>FALSE</ntsc>
								</rate>
								<string>00:00:00:00</string>
								<frame>0</frame>
								<displayformat>NDF</displayformat>
								<reel>
									<name></name>
								</reel>
							</timecode>
							<media>
								<video>
									<duration>18000</duration>
									<samplecharacteristics>
										<rate>
											<timebase>25</timebase>
											<ntsc>FALSE</ntsc>
										</rate>
										<width>720</width>
										<height>405</height>
										<anamorphic>FALSE</anamorphic>
										<pixelaspectratio>square</pixelaspectratio>
										<fielddominance>none</fielddominance>
									</samplecharacteristics>
								</video>
								<audio>
									<samplecharacteristics>
										<depth>16</depth>
										<samplerate>44100</samplerate>
									</samplecharacteristics>
									<channelcount>2</channelcount>
								</audio>
							</media>
						</file>
						<logginginfo>
							<description></description>
							<scene></scene>
							<shottake></shottake>
							<lognote></lognote>
						</logginginfo>
						<labels>
							<label2>Iris</label2>
						</labels>
					</clipitem>
					<clipitem id="clipitem-842" frameBlend="FALSE">
						<masterclipid>masterclip-209</masterclipid>
						<name>PF0003133.mov</name>
						<enabled>TRUE</enabled>
						<duration>808</duration>
						<rate>
							<timebase>25</timebase>
							<ntsc>FALSE</ntsc>
						</rate>
						<start>32491</start>
						<end>32516</end>
						<in>686</in>
						<out>711</out>
						<alphatype>black</alphatype>
						<file id="file-186"/>
						<logginginfo>
							<description></description>
							<scene></scene>
							<shottake></shottake>
							<lognote></lognote>
						</logginginfo>
						<labels>
							<label2>Iris</label2>
						</labels>
					</clipitem>
					<clipitem id="clipitem-843" frameBlend="FALSE">
						<masterclipid>masterclip-210</masterclipid>
						<name>V2007_4454_Vehicle to Vehicle Communication_0.47_1080p25.mov</name>
						<enabled>TRUE</enabled>
						<duration>1176</duration>
						<rate>
							<timebase>25</timebase>
							<ntsc>FALSE</ntsc>
						</rate>
						<start>32516</start>
						<end>32568</end>
						<in>307</in>
						<out>359</out>
						<alphatype>none</alphatype>
						<pixelaspectratio>square</pixelaspectratio>
						<anamorphic>FALSE</anamorphic>
						<file id="file-187">
							<name>V2007_4454_Vehicle to Vehicle Communication_0.47_1080p25.mov</name>
							<pathurl>file://localhost/Volumes/Brakka/AdobeLager/Katta/Katta-14xxxx-Smart_eller_overvaaket-Chris/02-Video/Arkiv/V2007_4454_Vehicle%20to%20Vehicle%20Communication_0.47_1080p25.mov</pathurl>
							<rate>
								<timebase>25</timebase>
								<ntsc>FALSE</ntsc>
							</rate>
							<duration>1176</duration>
							<timecode>
								<rate>
									<timebase>25</timebase>
									<ntsc>FALSE</ntsc>
								</rate>
								<string>10:02:00:00</string>
								<frame>903000</frame>
								<displayformat>NDF</displayformat>
								<reel>
									<name>time</name>
								</reel>
							</timecode>
							<media>
								<video>
									<duration>18000</duration>
									<samplecharacteristics>
										<rate>
											<timebase>25</timebase>
											<ntsc>FALSE</ntsc>
										</rate>
										<width>1920</width>
										<height>1080</height>
										<anamorphic>FALSE</anamorphic>
										<pixelaspectratio>square</pixelaspectratio>
										<fielddominance>none</fielddominance>
									</samplecharacteristics>
								</video>
								<audio>
									<samplecharacteristics>
										<depth>16</depth>
										<samplerate>48000</samplerate>
									</samplecharacteristics>
									<channelcount>2</channelcount>
								</audio>
							</media>
						</file>
						<logginginfo>
							<description>Untitled 01</description>
							<scene>Scene 01</scene>
							<shottake>01</shottake>
							<lognote></lognote>
						</logginginfo>
						<labels>
							<label2>Iris</label2>
						</labels>
					</clipitem>
					<clipitem id="clipitem-844" frameBlend="FALSE">
						<masterclipid>masterclip-210</masterclipid>
						<name>V2007_4454_Vehicle to Vehicle Communication_0.47_1080p25.mov</name>
						<enabled>TRUE</enabled>
						<duration>1176</duration>
						<rate>
							<timebase>25</timebase>
							<ntsc>FALSE</ntsc>
						</rate>
						<start>32568</start>
						<end>32615</end>
						<in>540</in>
						<out>587</out>
						<alphatype>none</alphatype>
						<file id="file-187"/>
						<logginginfo>
							<description>Untitled 01</description>
							<scene>Scene 01</scene>
							<shottake>01</shottake>
							<lognote></lognote>
						</logginginfo>
						<labels>
							<label2>Iris</label2>
						</labels>
					</clipitem>
					<clipitem id="clipitem-845" frameBlend="FALSE">
						<masterclipid>masterclip-210</masterclipid>
						<name>V2007_4454_Vehicle to Vehicle Communication_0.47_1080p25.mov</name>
						<enabled>TRUE</enabled>
						<duration>1176</duration>
						<rate>
							<timebase>25</timebase>
							<ntsc>FALSE</ntsc>
						</rate>
						<start>32615</start>
						<end>32666</end>
						<in>617</in>
						<out>668</out>
						<alphatype>none</alphatype>
						<file id="file-187"/>
						<logginginfo>
							<description>Untitled 01</description>
							<scene>Scene 01</scene>
							<shottake>01</shottake>
							<lognote></lognote>
						</logginginfo>
						<labels>
							<label2>Iris</label2>
						</labels>
					</clipitem>
					<clipitem id="clipitem-846" frameBlend="FALSE">
						<masterclipid>masterclip-210</masterclipid>
						<name>V2007_4454_Vehicle to Vehicle Communication_0.47_1080p25.mov</name>
						<enabled>TRUE</enabled>
						<duration>1176</duration>
						<rate>
							<timebase>25</timebase>
							<ntsc>FALSE</ntsc>
						</rate>
						<start>32666</start>
						<end>32715</end>
						<in>803</in>
						<out>852</out>
						<alphatype>none</alphatype>
						<file id="file-187"/>
						<logginginfo>
							<description>Untitled 01</description>
							<scene>Scene 01</scene>
							<shottake>01</shottake>
							<lognote></lognote>
						</logginginfo>
						<labels>
							<label2>Iris</label2>
						</labels>
					</clipitem>
					<clipitem id="clipitem-847" frameBlend="FALSE">
						<masterclipid>masterclip-15</masterclipid>
						<name>Intel_Telematics_Final-rev.mp4</name>
						<enabled>TRUE</enabled>
						<duration>3761</duration>
						<rate>
							<timebase>25</timebase>
							<ntsc>FALSE</ntsc>
						</rate>
						<start>32715</start>
						<end>32910</end>
						<in>889</in>
						<out>1084</out>
						<alphatype>black</alphatype>
						<file id="file-14"/>
						<logginginfo>
							<description></description>
							<scene></scene>
							<shottake></shottake>
							<lognote></lognote>
						</logginginfo>
						<labels>
							<label2>Iris</label2>
						</labels>
					</clipitem>
					<clipitem id="clipitem-848" frameBlend="FALSE">
						<masterclipid>masterclip-211</masterclipid>
						<name>AA004301.MXF</name>
						<enabled>TRUE</enabled>
						<duration>2424</duration>
						<rate>
							<timebase>25</timebase>
							<ntsc>FALSE</ntsc>
						</rate>
						<start>32910</start>
						<end>33032</end>
						<in>294</in>
						<out>416</out>
						<alphatype>none</alphatype>
						<pixelaspectratio>square</pixelaspectratio>
						<anamorphic>FALSE</anamorphic>
						<file id="file-188">
							<name>AA004301.MXF</name>
							<pathurl>file://localhost/Volumes/Brakka/AdobeLager/Katta/Katta-14xxxx-Smart_eller_overvaaket-Chris/02-Video/Q-free300%20Roger/CONTENTS/CLIPS001/AA0043/AA004301.MXF</pathurl>
							<rate>
								<timebase>25</timebase>
								<ntsc>FALSE</ntsc>
							</rate>
							<duration>2424</duration>
							<timecode>
								<rate>
									<timebase>25</timebase>
									<ntsc>FALSE</ntsc>
								</rate>
								<string>10:03:50:10</string>
								<frame>905760</frame>
								<displayformat>NDF</displayformat>
								<reel>
									<name></name>
								</reel>
							</timecode>
							<media>
								<video>
									<duration>18000</duration>
									<samplecharacteristics>
										<rate>
											<timebase>25</timebase>
											<ntsc>FALSE</ntsc>
										</rate>
										<width>1920</width>
										<height>1080</height>
										<anamorphic>FALSE</anamorphic>
										<pixelaspectratio>square</pixelaspectratio>
										<fielddominance>upper</fielddominance>
									</samplecharacteristics>
								</video>
								<audio>
									<samplecharacteristics>
										<depth>16</depth>
										<samplerate>48000</samplerate>
									</samplecharacteristics>
									<channelcount>1</channelcount>
									<layout>mono</layout>
									<audiochannel>
										<sourcechannel>1</sourcechannel>
										<channellabel>discrete</channellabel>
									</audiochannel>
								</audio>
								<audio>
									<samplecharacteristics>
										<depth>16</depth>
										<samplerate>48000</samplerate>
									</samplecharacteristics>
									<channelcount>1</channelcount>
									<layout>mono</layout>
									<audiochannel>
										<sourcechannel>2</sourcechannel>
										<channellabel>discrete</channellabel>
									</audiochannel>
								</audio>
							</media>
						</file>
							<marker>
								<comment>her har vi en smart by</comment>
								<name>smarby</name>
								<in>472</in>
								<out>-1</out>
							</marker>
						<logginginfo>
							<description></description>
							<scene></scene>
							<shottake>AA0043</shottake>
							<lognote></lognote>
						</logginginfo>
						<labels>
							<label2>Iris</label2>
						</labels>
					</clipitem>
					<clipitem id="clipitem-849" frameBlend="FALSE">
						<masterclipid>masterclip-212</masterclipid>
						<name>AA004501.MXF</name>
						<enabled>TRUE</enabled>
						<duration>9324</duration>
						<rate>
							<timebase>25</timebase>
							<ntsc>FALSE</ntsc>
						</rate>
						<start>33032</start>
						<end>33128</end>
						<in>1948</in>
						<out>2044</out>
						<alphatype>none</alphatype>
						<pixelaspectratio>square</pixelaspectratio>
						<anamorphic>FALSE</anamorphic>
						<file id="file-189">
							<name>AA004501.MXF</name>
							<pathurl>file://localhost/Volumes/Brakka/AdobeLager/Katta/Katta-14xxxx-Smart_eller_overvaaket-Chris/02-Video/Q-free300%20Roger/CONTENTS/CLIPS001/AA0045/AA004501.MXF</pathurl>
							<rate>
								<timebase>25</timebase>
								<ntsc>FALSE</ntsc>
							</rate>
							<duration>9324</duration>
							<timecode>
								<rate>
									<timebase>25</timebase>
									<ntsc>FALSE</ntsc>
								</rate>
								<string>10:09:33:02</string>
								<frame>914327</frame>
								<displayformat>NDF</displayformat>
								<reel>
									<name></name>
								</reel>
							</timecode>
							<media>
								<video>
									<duration>18000</duration>
									<samplecharacteristics>
										<rate>
											<timebase>25</timebase>
											<ntsc>FALSE</ntsc>
										</rate>
										<width>1920</width>
										<height>1080</height>
										<anamorphic>FALSE</anamorphic>
										<pixelaspectratio>square</pixelaspectratio>
										<fielddominance>upper</fielddominance>
									</samplecharacteristics>
								</video>
								<audio>
									<samplecharacteristics>
										<depth>16</depth>
										<samplerate>48000</samplerate>
									</samplecharacteristics>
									<channelcount>2</channelcount>
								</audio>
							</media>
						</file>
							<marker>
								<comment>har absolutt en identitet, dessverre</comment>
								<name>smartelefoner </name>
								<in>8575</in>
								<out>-1</out>
							</marker>
							<marker>
								<comment>gir ingen identitet fra seg</comment>
								<name>anonymt</name>
								<in>303</in>
								<out>-1</out>
							</marker>
							<marker>
								<comment>overvￃﾥke ruta du kjￃﾸrer</comment>
								<name>blir det press?</name>
								<in>5009</in>
								<out>-1</out>
							</marker>
							<marker>
								<comment>hvis du ikke selv vil</comment>
								<name>kan unngￃﾥ</name>
								<in>6481</in>
								<out>-1</out>
							</marker>
							<marker>
								<comment>med bilde og det hele</comment>
								<name>gￃﾥr melding til polti</name>
								<in>2515</in>
								<out>-1</out>
							</marker>
							<marker>
								<comment>men du vil jo ogsￃﾥ planlegge og lage flyt</comment>
								<name>du vil ha personvern</name>
								<in>7472</in>
								<out>-1</out>
							</marker>
							<marker>
								<comment>gpr ikke ned pￃﾥ indivinivￃﾥ med big data</comment>
								<name>big data ikke pￃﾥ invdivd</name>
								<in>7737</in>
								<out>-1</out>
							</marker>
							<marker>
								<comment>langtidsidentiten din kan bare ￃﾥpnes med en rettsordre</comment>
								<name>rettsordre</name>
								<in>984</in>
								<out>-1</out>
							</marker>
							<marker>
								<comment>bilen blir identifisert</comment>
								<name>kjￃﾸre pￃﾥ rￃﾸdt</name>
								<in>2231</in>
								<out>-1</out>
							</marker>
						<link>
							<linkclipref>clipitem-849</linkclipref>
							<mediatype>video</mediatype>
							<trackindex>1</trackindex>
							<clipindex>285</clipindex>
						</link>
						<link>
							<linkclipref>clipitem-1275</linkclipref>
							<mediatype>audio</mediatype>
							<trackindex>1</trackindex>
							<clipindex>140</clipindex>
						</link>
						<logginginfo>
							<description></description>
							<scene></scene>
							<shottake>AA0045</shottake>
							<lognote></lognote>
						</logginginfo>
						<labels>
							<label2>Iris</label2>
						</labels>
					</clipitem>
					<clipitem id="clipitem-850" frameBlend="FALSE">
						<masterclipid>masterclip-213</masterclipid>
						<name>MVI_0141.MOV</name>
						<enabled>TRUE</enabled>
						<duration>13375</duration>
						<rate>
							<timebase>25</timebase>
							<ntsc>FALSE</ntsc>
						</rate>
						<start>33128</start>
						<end>33163</end>
						<in>6151</in>
						<out>6186</out>
						<alphatype>black</alphatype>
						<pixelaspectratio>square</pixelaspectratio>
						<anamorphic>FALSE</anamorphic>
						<file id="file-190">
							<name>MVI_0141.MOV</name>
							<pathurl>file://localhost/Volumes/Brakka/AdobeLager/Katta/Katta-14xxxx-Smart_eller_overvaaket-Chris/02-Video/Q-free5D%20Roger/DCIM/100EOS5D/MVI_0141.MOV</pathurl>
							<rate>
								<timebase>25</timebase>
								<ntsc>FALSE</ntsc>
							</rate>
							<duration>13375</duration>
							<timecode>
								<rate>
									<timebase>25</timebase>
									<ntsc>FALSE</ntsc>
								</rate>
								<string>00:00:00:00</string>
								<frame>0</frame>
								<displayformat>NDF</displayformat>
								<reel>
									<name></name>
								</reel>
							</timecode>
							<media>
								<video>
									<duration>18000</duration>
									<samplecharacteristics>
										<rate>
											<timebase>25</timebase>
											<ntsc>FALSE</ntsc>
										</rate>
										<width>1920</width>
										<height>1080</height>
										<anamorphic>FALSE</anamorphic>
										<pixelaspectratio>square</pixelaspectratio>
										<fielddominance>none</fielddominance>
									</samplecharacteristics>
								</video>
								<audio>
									<samplecharacteristics>
										<depth>16</depth>
										<samplerate>48000</samplerate>
									</samplecharacteristics>
									<channelcount>2</channelcount>
								</audio>
							</media>
						</file>
						<logginginfo>
							<description></description>
							<scene></scene>
							<shottake></shottake>
							<lognote></lognote>
						</logginginfo>
						<labels>
							<label2>Iris</label2>
						</labels>
					</clipitem>
					<clipitem id="clipitem-851" frameBlend="FALSE">
						<masterclipid>masterclip-212</masterclipid>
						<name>AA004501.MXF</name>
						<enabled>TRUE</enabled>
						<duration>9324</duration>
						<rate>
							<timebase>25</timebase>
							<ntsc>FALSE</ntsc>
						</rate>
						<start>33163</start>
						<end>33244</end>
						<in>4365</in>
						<out>4446</out>
						<alphatype>none</alphatype>
						<file id="file-189"/>
							<marker>
								<comment>har absolutt en identitet, dessverre</comment>
								<name>smartelefoner </name>
								<in>8575</in>
								<out>-1</out>
							</marker>
							<marker>
								<comment>gir ingen identitet fra seg</comment>
								<name>anonymt</name>
								<in>303</in>
								<out>-1</out>
							</marker>
							<marker>
								<comment>overvￃﾥke ruta du kjￃﾸrer</comment>
								<name>blir det press?</name>
								<in>5009</in>
								<out>-1</out>
							</marker>
							<marker>
								<comment>hvis du ikke selv vil</comment>
								<name>kan unngￃﾥ</name>
								<in>6481</in>
								<out>-1</out>
							</marker>
							<marker>
								<comment>med bilde og det hele</comment>
								<name>gￃﾥr melding til polti</name>
								<in>2515</in>
								<out>-1</out>
							</marker>
							<marker>
								<comment>men du vil jo ogsￃﾥ planlegge og lage flyt</comment>
								<name>du vil ha personvern</name>
								<in>7472</in>
								<out>-1</out>
							</marker>
							<marker>
								<comment>gpr ikke ned pￃﾥ indivinivￃﾥ med big data</comment>
								<name>big data ikke pￃﾥ invdivd</name>
								<in>7737</in>
								<out>-1</out>
							</marker>
							<marker>
								<comment>langtidsidentiten din kan bare ￃﾥpnes med en rettsordre</comment>
								<name>rettsordre</name>
								<in>984</in>
								<out>-1</out>
							</marker>
							<marker>
								<comment>bilen blir identifisert</comment>
								<name>kjￃﾸre pￃﾥ rￃﾸdt</name>
								<in>2231</in>
								<out>-1</out>
							</marker>
						<logginginfo>
							<description></description>
							<scene></scene>
							<shottake>AA0045</shottake>
							<lognote></lognote>
						</logginginfo>
						<labels>
							<label2>Iris</label2>
						</labels>
					</clipitem>
					<clipitem id="clipitem-852" frameBlend="FALSE">
						<masterclipid>masterclip-214</masterclipid>
						<name>AA004601.MXF</name>
						<enabled>TRUE</enabled>
						<duration>32868</duration>
						<rate>
							<timebase>25</timebase>
							<ntsc>FALSE</ntsc>
						</rate>
						<start>33244</start>
						<end>33379</end>
						<in>3392</in>
						<out>3527</out>
						<alphatype>none</alphatype>
						<pixelaspectratio>square</pixelaspectratio>
						<anamorphic>FALSE</anamorphic>
						<file id="file-191">
							<name>AA004601.MXF</name>
							<pathurl>file://localhost/Volumes/Brakka/AdobeLager/Katta/Katta-14xxxx-Smart_eller_overvaaket-Chris/02-Video/Q-free300%20Roger/CONTENTS/CLIPS001/AA0046/AA004601.MXF</pathurl>
							<rate>
								<timebase>25</timebase>
								<ntsc>FALSE</ntsc>
							</rate>
							<duration>32868</duration>
							<timecode>
								<rate>
									<timebase>25</timebase>
									<ntsc>FALSE</ntsc>
								</rate>
								<string>10:16:50:15</string>
								<frame>925265</frame>
								<displayformat>NDF</displayformat>
								<reel>
									<name></name>
								</reel>
							</timecode>
							<media>
								<video>
									<duration>18000</duration>
									<samplecharacteristics>
										<rate>
											<timebase>25</timebase>
											<ntsc>FALSE</ntsc>
										</rate>
										<width>1920</width>
										<height>1080</height>
										<anamorphic>FALSE</anamorphic>
										<pixelaspectratio>square</pixelaspectratio>
										<fielddominance>upper</fielddominance>
									</samplecharacteristics>
								</video>
								<audio>
									<samplecharacteristics>
										<depth>16</depth>
										<samplerate>48000</samplerate>
									</samplecharacteristics>
									<channelcount>1</channelcount>
									<layout>mono</layout>
									<audiochannel>
										<sourcechannel>1</sourcechannel>
										<channellabel>discrete</channellabel>
									</audiochannel>
								</audio>
								<audio>
									<samplecharacteristics>
										<depth>16</depth>
										<samplerate>48000</samplerate>
									</samplecharacteristics>
									<channelcount>1</channelcount>
									<layout>mono</layout>
									<audiochannel>
										<sourcechannel>2</sourcechannel>
										<channellabel>discrete</channellabel>
									</audiochannel>
								</audio>
							</media>
						</file>
							<marker>
								<comment>at det p plukke ut fartsovertredelser ikke er ok</comment>
								<name>syns selv </name>
								<in>2063</in>
								<out>-1</out>
							</marker>
							<marker>
								<comment>at du er i ferd med ￃﾥ gjￃﾸre noe dumt</comment>
								<name>din egen bil varsler</name>
								<in>13450</in>
								<out>-1</out>
							</marker>
							<marker>
								<comment></comment>
								<name>krysset advarer biler</name>
								<in>3254</in>
								<out>-1</out>
							</marker>
							<marker>
								<comment>vil sende ut til andre, men ikke politiet</comment>
								<name>bile noppdager fare</name>
								<in>25728</in>
								<out>-1</out>
							</marker>
							<marker>
								<comment>men hva sikkerhetsmyndigheten hjￃﾸr vet ingen</comment>
								<name>systemet tillater ikke</name>
								<in>31411</in>
								<out>-1</out>
							</marker>
							<marker>
								<comment>om ￃﾥ lagre i bilen</comment>
								<name>kan bli lovpￃﾥbud</name>
								<in>27311</in>
								<out>-1</out>
							</marker>
							<marker>
								<comment>men ikke individnivￃﾥ</comment>
								<name>analyser</name>
								<in>12162</in>
								<out>-1</out>
							</marker>
							<marker>
								<comment>bryter ikke personvern</comment>
								<name>data kommersiell verdi</name>
								<in>11384</in>
								<out>-1</out>
							</marker>
							<marker>
								<comment>langtids kan bare ￃﾥpnes ved veldig god grunn</comment>
								<name>ser ikke noe fare</name>
								<in>20254</in>
								<out>-1</out>
							</marker>
							<marker>
								<comment>lagrer aldri noen ting</comment>
								<name>bare synsrekkefￃﾸlge</name>
								<in>27067</in>
								<out>-1</out>
							</marker>
							<marker>
								<comment>enn bilskilt</comment>
								<name>anonymiserer mer</name>
								<in>9955</in>
								<out>-1</out>
							</marker>
							<marker>
								<comment></comment>
								<name>alle lovbrudd lagret?</name>
								<in>26603</in>
								<out>-1</out>
							</marker>
							<marker>
								<comment>10 ganger i sekunder hva du gjￃﾸr </comment>
								<name>anonymisert melding</name>
								<in>25110</in>
								<out>-1</out>
							</marker>
							<marker>
								<comment>i motsetning til bilskilt</comment>
								<name>mￃﾥ ha rettskjennelse</name>
								<in>10515</in>
								<out>-1</out>
							</marker>
							<marker>
								<comment>bare alvorlige lvobruddhￃﾥper jeg</comment>
								<name>hￃﾥper alvorlig</name>
								<in>1274</in>
								<out>-1</out>
							</marker>
							<marker>
								<comment></comment>
								<name>den vi lneppe overstyre deg</name>
								<in>13992</in>
								<out>-1</out>
							</marker>
							<marker>
								<comment></comment>
								<name>ka naldri fￃﾸlge en bil</name>
								<in>18235</in>
								<out>-1</out>
							</marker>
							<marker>
								<comment>allerede i dag</comment>
								<name>bilen er angiver</name>
								<in>9071</in>
								<out>-1</out>
							</marker>
							<marker>
								<comment>kjￃﾸreretning</comment>
								<name>beklager jeg kjￃﾸrer i feil</name>
								<in>26376</in>
								<out>-1</out>
							</marker>
							<marker>
								<comment>vu har brukt veldig mye tid pￃﾥ det</comment>
								<name>unngￃﾥ ￃﾥ fￃﾸlge individer</name>
								<in>23348</in>
								<out>-1</out>
							</marker>
							<marker>
								<comment>hiver pￃﾥ bremser</comment>
								<name> </name>
								<in>14850</in>
								<out>-1</out>
							</marker>
							<marker>
								<comment>ￃﾥ kjￃﾸre feil reting</comment>
								<name>bilen kan hindre </name>
								<in>7719</in>
								<out>-1</out>
							</marker>
							<marker>
								<comment>ￃﾥ hacke seg inn, sett det med NSA</comment>
								<name>teknisk mulig </name>
								<in>30696</in>
								<out>-1</out>
							</marker>
							<marker>
								<comment>fￃﾥr vigte om meg?</comment>
								<name>hvor mye andre biler</name>
								<in>17367</in>
								<out>-1</out>
							</marker>
						<link>
							<linkclipref>clipitem-852</linkclipref>
							<mediatype>video</mediatype>
							<trackindex>1</trackindex>
							<clipindex>288</clipindex>
						</link>
						<link>
							<linkclipref>clipitem-1280</linkclipref>
							<mediatype>audio</mediatype>
							<trackindex>1</trackindex>
							<clipindex>145</clipindex>
						</link>
						<logginginfo>
							<description></description>
							<scene></scene>
							<shottake>AA0046</shottake>
							<lognote></lognote>
						</logginginfo>
						<labels>
							<label2>Iris</label2>
						</labels>
					</clipitem>
					<clipitem id="clipitem-853" frameBlend="FALSE">
						<masterclipid>masterclip-215</masterclipid>
						<name>MVI_0141.MOV</name>
						<enabled>TRUE</enabled>
						<duration>13375</duration>
						<rate>
							<timebase>25</timebase>
							<ntsc>FALSE</ntsc>
						</rate>
						<start>33379</start>
						<end>33489</end>
						<in>3710</in>
						<out>3820</out>
						<alphatype>black</alphatype>
						<pixelaspectratio>square</pixelaspectratio>
						<anamorphic>FALSE</anamorphic>
						<file id="file-192">
							<name>MVI_0141.MOV</name>
							<pathurl>file://localhost/Volumes/Brakka/AdobeLager/Katta/Katta-14xxxx-Smart_eller_overvaaket-Chris/02-Video/Q-free5D%20Roger/DCIM/100EOS5D/MVI_0141.MOV</pathurl>
							<rate>
								<timebase>25</timebase>
								<ntsc>FALSE</ntsc>
							</rate>
							<duration>13375</duration>
							<timecode>
								<rate>
									<timebase>25</timebase>
									<ntsc>FALSE</ntsc>
								</rate>
								<string>00:00:00:00</string>
								<frame>0</frame>
								<displayformat>NDF</displayformat>
								<reel>
									<name></name>
								</reel>
							</timecode>
							<media>
								<video>
									<duration>18000</duration>
									<samplecharacteristics>
										<rate>
											<timebase>25</timebase>
											<ntsc>FALSE</ntsc>
										</rate>
										<width>1920</width>
										<height>1080</height>
										<anamorphic>FALSE</anamorphic>
										<pixelaspectratio>square</pixelaspectratio>
										<fielddominance>none</fielddominance>
									</samplecharacteristics>
								</video>
								<audio>
									<samplecharacteristics>
										<depth>16</depth>
										<samplerate>48000</samplerate>
									</samplecharacteristics>
									<channelcount>1</channelcount>
									<layout>mono</layout>
									<audiochannel>
										<sourcechannel>1</sourcechannel>
										<channellabel>discrete</channellabel>
									</audiochannel>
								</audio>
								<audio>
									<samplecharacteristics>
										<depth>16</depth>
										<samplerate>48000</samplerate>
									</samplecharacteristics>
									<channelcount>1</channelcount>
									<layout>mono</layout>
									<audiochannel>
										<sourcechannel>2</sourcechannel>
										<channellabel>discrete</channellabel>
									</audiochannel>
								</audio>
							</media>
						</file>
						<logginginfo>
							<description></description>
							<scene></scene>
							<shottake></shottake>
							<lognote></lognote>
						</logginginfo>
						<labels>
							<label2>Iris</label2>
						</labels>
					</clipitem>
					<clipitem id="clipitem-854" frameBlend="FALSE">
						<masterclipid>masterclip-212</masterclipid>
						<name>AA004501.MXF</name>
						<enabled>TRUE</enabled>
						<duration>9324</duration>
						<rate>
							<timebase>25</timebase>
							<ntsc>FALSE</ntsc>
						</rate>
						<start>33489</start>
						<end>33529</end>
						<in>2393</in>
						<out>2433</out>
						<alphatype>none</alphatype>
						<file id="file-189"/>
							<marker>
								<comment>har absolutt en identitet, dessverre</comment>
								<name>smartelefoner </name>
								<in>8575</in>
								<out>-1</out>
							</marker>
							<marker>
								<comment>gir ingen identitet fra seg</comment>
								<name>anonymt</name>
								<in>303</in>
								<out>-1</out>
							</marker>
							<marker>
								<comment>overvￃﾥke ruta du kjￃﾸrer</comment>
								<name>blir det press?</name>
								<in>5009</in>
								<out>-1</out>
							</marker>
							<marker>
								<comment>hvis du ikke selv vil</comment>
								<name>kan unngￃﾥ</name>
								<in>6481</in>
								<out>-1</out>
							</marker>
							<marker>
								<comment>med bilde og det hele</comment>
								<name>gￃﾥr melding til polti</name>
								<in>2515</in>
								<out>-1</out>
							</marker>
							<marker>
								<comment>men du vil jo ogsￃﾥ planlegge og lage flyt</comment>
								<name>du vil ha personvern</name>
								<in>7472</in>
								<out>-1</out>
							</marker>
							<marker>
								<comment>gpr ikke ned pￃﾥ indivinivￃﾥ med big data</comment>
								<name>big data ikke pￃﾥ invdivd</name>
								<in>7737</in>
								<out>-1</out>
							</marker>
							<marker>
								<comment>langtidsidentiten din kan bare ￃﾥpnes med en rettsordre</comment>
								<name>rettsordre</name>
								<in>984</in>
								<out>-1</out>
							</marker>
							<marker>
								<comment>bilen blir identifisert</comment>
								<name>kjￃﾸre pￃﾥ rￃﾸdt</name>
								<in>2231</in>
								<out>-1</out>
							</marker>
						<link>
							<linkclipref>clipitem-854</linkclipref>
							<mediatype>video</mediatype>
							<trackindex>1</trackindex>
							<clipindex>290</clipindex>
						</link>
						<link>
							<linkclipref>clipitem-1282</linkclipref>
							<mediatype>audio</mediatype>
							<trackindex>1</trackindex>
							<clipindex>147</clipindex>
						</link>
						<logginginfo>
							<description></description>
							<scene></scene>
							<shottake>AA0045</shottake>
							<lognote></lognote>
						</logginginfo>
						<labels>
							<label2>Iris</label2>
						</labels>
					</clipitem>
					<clipitem id="clipitem-855" frameBlend="FALSE">
						<masterclipid>masterclip-216</masterclipid>
						<name>Qfree.mp4</name>
						<enabled>TRUE</enabled>
						<duration>5566</duration>
						<rate>
							<timebase>25</timebase>
							<ntsc>FALSE</ntsc>
						</rate>
						<start>33529</start>
						<end>33580</end>
						<in>4730</in>
						<out>4781</out>
						<alphatype>black</alphatype>
						<pixelaspectratio>square</pixelaspectratio>
						<anamorphic>FALSE</anamorphic>
						<file id="file-193">
							<name>Qfree.mp4</name>
							<pathurl>file://localhost/Volumes/Brakka/AdobeLager/Katta/Katta-14xxxx-Smart_eller_overvaaket-Chris/02-Video/Arkiv/Qfree.mp4</pathurl>
							<rate>
								<timebase>25</timebase>
								<ntsc>FALSE</ntsc>
							</rate>
							<duration>5566</duration>
							<timecode>
								<rate>
									<timebase>25</timebase>
									<ntsc>FALSE</ntsc>
								</rate>
								<string>00:00:00:00</string>
								<frame>0</frame>
								<displayformat>NDF</displayformat>
								<reel>
									<name></name>
								</reel>
							</timecode>
							<media>
								<video>
									<duration>18000</duration>
									<samplecharacteristics>
										<rate>
											<timebase>25</timebase>
											<ntsc>FALSE</ntsc>
										</rate>
										<width>1920</width>
										<height>874</height>
										<anamorphic>FALSE</anamorphic>
										<pixelaspectratio>square</pixelaspectratio>
										<fielddominance>none</fielddominance>
									</samplecharacteristics>
								</video>
								<audio>
									<samplecharacteristics>
										<depth>16</depth>
										<samplerate>48000</samplerate>
									</samplecharacteristics>
									<channelcount>2</channelcount>
								</audio>
							</media>
						</file>
							<filter>
								<effect>
									<name>Basic Motion</name>
									<effectid>basic</effectid>
									<effectcategory>motion</effectcategory>
									<effecttype>motion</effecttype>
									<mediatype>video</mediatype>
									<parameter authoringApp="PremierePro">
										<parameterid>scale</parameterid>
										<name>Scale</name>
										<valuemin>0</valuemin>
										<valuemax>1000</valuemax>
										<value>127</value>
									</parameter>
									<parameter authoringApp="PremierePro">
										<parameterid>rotation</parameterid>
										<name>Rotation</name>
										<valuemin>-8640</valuemin>
										<valuemax>8640</valuemax>
										<value>0</value>
									</parameter>
									<parameter authoringApp="PremierePro">
										<parameterid>center</parameterid>
										<name>Center</name>
										<value>
											<horiz>0</horiz>
											<vert>0</vert>
										</value>
									</parameter>
									<parameter authoringApp="PremierePro">
										<parameterid>centerOffset</parameterid>
										<name>Anchor Point</name>
										<value>
											<horiz>0</horiz>
											<vert>0</vert>
										</value>
									</parameter>
								</effect>
							</filter>
						<logginginfo>
							<description></description>
							<scene></scene>
							<shottake></shottake>
							<lognote></lognote>
						</logginginfo>
						<labels>
							<label2>Iris</label2>
						</labels>
					</clipitem>
					<clipitem id="clipitem-856" frameBlend="FALSE">
						<masterclipid>masterclip-213</masterclipid>
						<name>MVI_0141.MOV</name>
						<enabled>TRUE</enabled>
						<duration>13375</duration>
						<rate>
							<timebase>25</timebase>
							<ntsc>FALSE</ntsc>
						</rate>
						<start>33580</start>
						<end>33631</end>
						<in>6967</in>
						<out>7018</out>
						<alphatype>black</alphatype>
						<file id="file-190"/>
						<logginginfo>
							<description></description>
							<scene></scene>
							<shottake></shottake>
							<lognote></lognote>
						</logginginfo>
						<labels>
							<label2>Iris</label2>
						</labels>
					</clipitem>
					<clipitem id="clipitem-857" frameBlend="FALSE">
						<masterclipid>masterclip-212</masterclipid>
						<name>AA004501.MXF</name>
						<enabled>TRUE</enabled>
						<duration>9324</duration>
						<rate>
							<timebase>25</timebase>
							<ntsc>FALSE</ntsc>
						</rate>
						<start>33631</start>
						<end>33664</end>
						<in>3035</in>
						<out>3068</out>
						<alphatype>none</alphatype>
						<file id="file-189"/>
							<marker>
								<comment>har absolutt en identitet, dessverre</comment>
								<name>smartelefoner </name>
								<in>8575</in>
								<out>-1</out>
							</marker>
							<marker>
								<comment>gir ingen identitet fra seg</comment>
								<name>anonymt</name>
								<in>303</in>
								<out>-1</out>
							</marker>
							<marker>
								<comment>overvￃﾥke ruta du kjￃﾸrer</comment>
								<name>blir det press?</name>
								<in>5009</in>
								<out>-1</out>
							</marker>
							<marker>
								<comment>hvis du ikke selv vil</comment>
								<name>kan unngￃﾥ</name>
								<in>6481</in>
								<out>-1</out>
							</marker>
							<marker>
								<comment>med bilde og det hele</comment>
								<name>gￃﾥr melding til polti</name>
								<in>2515</in>
								<out>-1</out>
							</marker>
							<marker>
								<comment>men du vil jo ogsￃﾥ planlegge og lage flyt</comment>
								<name>du vil ha personvern</name>
								<in>7472</in>
								<out>-1</out>
							</marker>
							<marker>
								<comment>gpr ikke ned pￃﾥ indivinivￃﾥ med big data</comment>
								<name>big data ikke pￃﾥ invdivd</name>
								<in>7737</in>
								<out>-1</out>
							</marker>
							<marker>
								<comment>langtidsidentiten din kan bare ￃﾥpnes med en rettsordre</comment>
								<name>rettsordre</name>
								<in>984</in>
								<out>-1</out>
							</marker>
							<marker>
								<comment>bilen blir identifisert</comment>
								<name>kjￃﾸre pￃﾥ rￃﾸdt</name>
								<in>2231</in>
								<out>-1</out>
							</marker>
						<link>
							<linkclipref>clipitem-857</linkclipref>
							<mediatype>video</mediatype>
							<trackindex>1</trackindex>
							<clipindex>293</clipindex>
						</link>
						<link>
							<linkclipref>clipitem-1283</linkclipref>
							<mediatype>audio</mediatype>
							<trackindex>1</trackindex>
							<clipindex>148</clipindex>
						</link>
						<logginginfo>
							<description></description>
							<scene></scene>
							<shottake>AA0045</shottake>
							<lognote></lognote>
						</logginginfo>
						<labels>
							<label2>Iris</label2>
						</labels>
					</clipitem>
					<clipitem id="clipitem-858" frameBlend="FALSE">
						<masterclipid>masterclip-216</masterclipid>
						<name>Qfree.mp4</name>
						<enabled>TRUE</enabled>
						<duration>5566</duration>
						<rate>
							<timebase>25</timebase>
							<ntsc>FALSE</ntsc>
						</rate>
						<start>33664</start>
						<end>33680</end>
						<in>4886</in>
						<out>4902</out>
						<alphatype>black</alphatype>
						<file id="file-193"/>
							<filter>
								<effect>
									<name>Basic Motion</name>
									<effectid>basic</effectid>
									<effectcategory>motion</effectcategory>
									<effecttype>motion</effecttype>
									<mediatype>video</mediatype>
									<parameter authoringApp="PremierePro">
										<parameterid>scale</parameterid>
										<name>Scale</name>
										<valuemin>0</valuemin>
										<valuemax>1000</valuemax>
										<value>126</value>
									</parameter>
									<parameter authoringApp="PremierePro">
										<parameterid>rotation</parameterid>
										<name>Rotation</name>
										<valuemin>-8640</valuemin>
										<valuemax>8640</valuemax>
										<value>0</value>
									</parameter>
									<parameter authoringApp="PremierePro">
										<parameterid>center</parameterid>
										<name>Center</name>
										<value>
											<horiz>0</horiz>
											<vert>0</vert>
										</value>
									</parameter>
									<parameter authoringApp="PremierePro">
										<parameterid>centerOffset</parameterid>
										<name>Anchor Point</name>
										<value>
											<horiz>0</horiz>
											<vert>0</vert>
										</value>
									</parameter>
								</effect>
							</filter>
						<logginginfo>
							<description></description>
							<scene></scene>
							<shottake></shottake>
							<lognote></lognote>
						</logginginfo>
						<labels>
							<label2>Iris</label2>
						</labels>
					</clipitem>
					<clipitem id="clipitem-859" frameBlend="FALSE">
						<masterclipid>masterclip-216</masterclipid>
						<name>Qfree.mp4</name>
						<enabled>TRUE</enabled>
						<duration>5566</duration>
						<rate>
							<timebase>25</timebase>
							<ntsc>FALSE</ntsc>
						</rate>
						<start>33680</start>
						<end>33696</end>
						<in>4886</in>
						<out>4902</out>
						<alphatype>black</alphatype>
						<file id="file-193"/>
							<filter>
								<effect>
									<name>Basic Motion</name>
									<effectid>basic</effectid>
									<effectcategory>motion</effectcategory>
									<effecttype>motion</effecttype>
									<mediatype>video</mediatype>
									<parameter authoringApp="PremierePro">
										<parameterid>scale</parameterid>
										<name>Scale</name>
										<valuemin>0</valuemin>
										<valuemax>1000</valuemax>
										<value>126</value>
									</parameter>
									<parameter authoringApp="PremierePro">
										<parameterid>rotation</parameterid>
										<name>Rotation</name>
										<valuemin>-8640</valuemin>
										<valuemax>8640</valuemax>
										<value>0</value>
									</parameter>
									<parameter authoringApp="PremierePro">
										<parameterid>center</parameterid>
										<name>Center</name>
										<value>
											<horiz>0</horiz>
											<vert>0</vert>
										</value>
									</parameter>
									<parameter authoringApp="PremierePro">
										<parameterid>centerOffset</parameterid>
										<name>Anchor Point</name>
										<value>
											<horiz>0</horiz>
											<vert>0</vert>
										</value>
									</parameter>
								</effect>
							</filter>
						<logginginfo>
							<description></description>
							<scene></scene>
							<shottake></shottake>
							<lognote></lognote>
						</logginginfo>
						<labels>
							<label2>Iris</label2>
						</labels>
					</clipitem>
					<clipitem id="clipitem-860" frameBlend="FALSE">
						<masterclipid>masterclip-213</masterclipid>
						<name>MVI_0141.MOV</name>
						<enabled>TRUE</enabled>
						<duration>13375</duration>
						<rate>
							<timebase>25</timebase>
							<ntsc>FALSE</ntsc>
						</rate>
						<start>33696</start>
						<end>33718</end>
						<in>7083</in>
						<out>7105</out>
						<alphatype>black</alphatype>
						<file id="file-190"/>
						<logginginfo>
							<description></description>
							<scene></scene>
							<shottake></shottake>
							<lognote></lognote>
						</logginginfo>
						<labels>
							<label2>Iris</label2>
						</labels>
					</clipitem>
					<clipitem id="clipitem-861" frameBlend="FALSE">
						<masterclipid>masterclip-212</masterclipid>
						<name>AA004501.MXF</name>
						<enabled>TRUE</enabled>
						<duration>9324</duration>
						<rate>
							<timebase>25</timebase>
							<ntsc>FALSE</ntsc>
						</rate>
						<start>33718</start>
						<end>33754</end>
						<in>3178</in>
						<out>3214</out>
						<alphatype>none</alphatype>
						<file id="file-189"/>
							<marker>
								<comment>har absolutt en identitet, dessverre</comment>
								<name>smartelefoner </name>
								<in>8575</in>
								<out>-1</out>
							</marker>
							<marker>
								<comment>gir ingen identitet fra seg</comment>
								<name>anonymt</name>
								<in>303</in>
								<out>-1</out>
							</marker>
							<marker>
								<comment>overvￃﾥke ruta du kjￃﾸrer</comment>
								<name>blir det press?</name>
								<in>5009</in>
								<out>-1</out>
							</marker>
							<marker>
								<comment>hvis du ikke selv vil</comment>
								<name>kan unngￃﾥ</name>
								<in>6481</in>
								<out>-1</out>
							</marker>
							<marker>
								<comment>med bilde og det hele</comment>
								<name>gￃﾥr melding til polti</name>
								<in>2515</in>
								<out>-1</out>
							</marker>
							<marker>
								<comment>men du vil jo ogsￃﾥ planlegge og lage flyt</comment>
								<name>du vil ha personvern</name>
								<in>7472</in>
								<out>-1</out>
							</marker>
							<marker>
								<comment>gpr ikke ned pￃﾥ indivinivￃﾥ med big data</comment>
								<name>big data ikke pￃﾥ invdivd</name>
								<in>7737</in>
								<out>-1</out>
							</marker>
							<marker>
								<comment>langtidsidentiten din kan bare ￃﾥpnes med en rettsordre</comment>
								<name>rettsordre</name>
								<in>984</in>
								<out>-1</out>
							</marker>
							<marker>
								<comment>bilen blir identifisert</comment>
								<name>kjￃﾸre pￃﾥ rￃﾸdt</name>
								<in>2231</in>
								<out>-1</out>
							</marker>
						<link>
							<linkclipref>clipitem-861</linkclipref>
							<mediatype>video</mediatype>
							<trackindex>1</trackindex>
							<clipindex>297</clipindex>
						</link>
						<link>
							<linkclipref>clipitem-1284</linkclipref>
							<mediatype>audio</mediatype>
							<trackindex>1</trackindex>
							<clipindex>149</clipindex>
						</link>
						<logginginfo>
							<description></description>
							<scene></scene>
							<shottake>AA0045</shottake>
							<lognote></lognote>
						</logginginfo>
						<labels>
							<label2>Iris</label2>
						</labels>
					</clipitem>
					<clipitem id="clipitem-862" frameBlend="FALSE">
						<masterclipid>masterclip-213</masterclipid>
						<name>MVI_0141.MOV</name>
						<enabled>TRUE</enabled>
						<duration>13375</duration>
						<rate>
							<timebase>25</timebase>
							<ntsc>FALSE</ntsc>
						</rate>
						<start>33754</start>
						<end>33817</end>
						<in>7197</in>
						<out>7260</out>
						<alphatype>black</alphatype>
						<file id="file-190"/>
						<logginginfo>
							<description></description>
							<scene></scene>
							<shottake></shottake>
							<lognote></lognote>
						</logginginfo>
						<labels>
							<label2>Iris</label2>
						</labels>
					</clipitem>
					<clipitem id="clipitem-863" frameBlend="FALSE">
						<masterclipid>masterclip-217</masterclipid>
						<name>Chris 452162332_h1.mov</name>
						<enabled>TRUE</enabled>
						<duration>263</duration>
						<rate>
							<timebase>25</timebase>
							<ntsc>FALSE</ntsc>
						</rate>
						<start>33817</start>
						<end>33942</end>
						<in>53</in>
						<out>178</out>
						<alphatype>none</alphatype>
						<pixelaspectratio>square</pixelaspectratio>
						<anamorphic>FALSE</anamorphic>
						<file id="file-194">
							<name>Chris 452162332_h1.mov</name>
							<pathurl>file://localhost/Volumes/Brakka/AdobeLager/Katta/Katta-14xxxx-Smart_eller_overvaaket-Chris/02-Video/Arkiv/Chris%20452162332_h1.mov</pathurl>
							<rate>
								<timebase>24</timebase>
								<ntsc>TRUE</ntsc>
							</rate>
							<duration>253</duration>
							<timecode>
								<rate>
									<timebase>24</timebase>
									<ntsc>TRUE</ntsc>
								</rate>
								<string>00:00:00:00</string>
								<frame>0</frame>
								<displayformat>NDF</displayformat>
								<reel>
									<name></name>
								</reel>
							</timecode>
							<media>
								<video>
									<duration>18000</duration>
									<samplecharacteristics>
										<rate>
											<timebase>24</timebase>
											<ntsc>TRUE</ntsc>
										</rate>
										<width>1920</width>
										<height>1080</height>
										<anamorphic>FALSE</anamorphic>
										<pixelaspectratio>square</pixelaspectratio>
										<fielddominance>none</fielddominance>
									</samplecharacteristics>
								</video>
							</media>
						</file>
						<logginginfo>
							<description></description>
							<scene></scene>
							<shottake></shottake>
							<lognote></lognote>
						</logginginfo>
						<labels>
							<label2>Violet</label2>
						</labels>
					</clipitem>
					<clipitem id="clipitem-864" frameBlend="FALSE">
						<masterclipid>masterclip-218</masterclipid>
						<name>MVI_0507.MOV</name>
						<enabled>TRUE</enabled>
						<duration>1384</duration>
						<rate>
							<timebase>25</timebase>
							<ntsc>FALSE</ntsc>
						</rate>
						<start>33942</start>
						<end>34025</end>
						<in>350</in>
						<out>433</out>
						<alphatype>black</alphatype>
						<pixelaspectratio>square</pixelaspectratio>
						<anamorphic>FALSE</anamorphic>
						<file id="file-195">
							<name>MVI_0507.MOV</name>
							<pathurl>file://localhost/Volumes/Brakka/AdobeLager/Katta/Katta-14xxxx-Smart_eller_overvaaket-Chris/02-Video/Datatilsynet%20Case%205D/100EOS5D/MVI_0507.MOV</pathurl>
							<rate>
								<timebase>25</timebase>
								<ntsc>FALSE</ntsc>
							</rate>
							<duration>1384</duration>
							<timecode>
								<rate>
									<timebase>25</timebase>
									<ntsc>FALSE</ntsc>
								</rate>
								<string>00:00:00:00</string>
								<frame>0</frame>
								<displayformat>NDF</displayformat>
								<reel>
									<name></name>
								</reel>
							</timecode>
							<media>
								<video>
									<duration>18000</duration>
									<samplecharacteristics>
										<rate>
											<timebase>25</timebase>
											<ntsc>FALSE</ntsc>
										</rate>
										<width>1920</width>
										<height>1080</height>
										<anamorphic>FALSE</anamorphic>
										<pixelaspectratio>square</pixelaspectratio>
										<fielddominance>none</fielddominance>
									</samplecharacteristics>
								</video>
								<audio>
									<samplecharacteristics>
										<depth>16</depth>
										<samplerate>48000</samplerate>
									</samplecharacteristics>
									<channelcount>1</channelcount>
									<layout>mono</layout>
									<audiochannel>
										<sourcechannel>1</sourcechannel>
										<channellabel>discrete</channellabel>
									</audiochannel>
								</audio>
								<audio>
									<samplecharacteristics>
										<depth>16</depth>
										<samplerate>48000</samplerate>
									</samplecharacteristics>
									<channelcount>1</channelcount>
									<layout>mono</layout>
									<audiochannel>
										<sourcechannel>2</sourcechannel>
										<channellabel>discrete</channellabel>
									</audiochannel>
								</audio>
							</media>
						</file>
						<logginginfo>
							<description></description>
							<scene></scene>
							<shottake></shottake>
							<lognote></lognote>
						</logginginfo>
						<labels>
							<label2>Iris</label2>
						</labels>
					</clipitem>
					<clipitem id="clipitem-865" frameBlend="FALSE">
						<masterclipid>masterclip-219</masterclipid>
						<name>Chris 459185621_h2.mov</name>
						<enabled>TRUE</enabled>
						<duration>300</duration>
						<rate>
							<timebase>25</timebase>
							<ntsc>FALSE</ntsc>
						</rate>
						<start>34025</start>
						<end>34140</end>
						<in>76</in>
						<out>191</out>
						<alphatype>none</alphatype>
						<pixelaspectratio>square</pixelaspectratio>
						<anamorphic>FALSE</anamorphic>
						<file id="file-196">
							<name>Chris 459185621_h2.mov</name>
							<pathurl>file://localhost/Volumes/Brakka/AdobeLager/Katta/Katta-14xxxx-Smart_eller_overvaaket-Chris/02-Video/Arkiv/Chris%20459185621_h2.mov</pathurl>
							<rate>
								<timebase>30</timebase>
								<ntsc>TRUE</ntsc>
							</rate>
							<duration>360</duration>
							<timecode>
								<rate>
									<timebase>30</timebase>
									<ntsc>TRUE</ntsc>
								</rate>
								<string>00:00:00:00</string>
								<frame>0</frame>
								<displayformat>NDF</displayformat>
								<reel>
									<name></name>
								</reel>
							</timecode>
							<media>
								<video>
									<duration>18000</duration>
									<samplecharacteristics>
										<rate>
											<timebase>30</timebase>
											<ntsc>TRUE</ntsc>
										</rate>
										<width>1920</width>
										<height>1080</height>
										<anamorphic>FALSE</anamorphic>
										<pixelaspectratio>square</pixelaspectratio>
										<fielddominance>lower</fielddominance>
									</samplecharacteristics>
								</video>
							</media>
						</file>
						<logginginfo>
							<description></description>
							<scene></scene>
							<shottake></shottake>
							<lognote></lognote>
						</logginginfo>
						<labels>
							<label2>Violet</label2>
						</labels>
					</clipitem>
					<clipitem id="clipitem-866" frameBlend="FALSE">
						<masterclipid>masterclip-6</masterclipid>
						<name>136297_1_5_volvo.mov</name>
						<enabled>TRUE</enabled>
						<duration>3155</duration>
						<rate>
							<timebase>25</timebase>
							<ntsc>FALSE</ntsc>
						</rate>
						<start>34140</start>
						<end>34235</end>
						<in>302</in>
						<out>397</out>
						<alphatype>black</alphatype>
						<file id="file-6"/>
						<logginginfo>
							<description></description>
							<scene></scene>
							<shottake></shottake>
							<lognote></lognote>
						</logginginfo>
						<labels>
							<label2>Iris</label2>
						</labels>
					</clipitem>
					<clipitem id="clipitem-867" frameBlend="FALSE">
						<masterclipid>masterclip-212</masterclipid>
						<name>AA004501.MXF</name>
						<enabled>TRUE</enabled>
						<duration>9324</duration>
						<rate>
							<timebase>25</timebase>
							<ntsc>FALSE</ntsc>
						</rate>
						<start>34235</start>
						<end>34368</end>
						<in>190</in>
						<out>323</out>
						<alphatype>none</alphatype>
						<file id="file-189"/>
							<marker>
								<comment>har absolutt en identitet, dessverre</comment>
								<name>smartelefoner </name>
								<in>8575</in>
								<out>-1</out>
							</marker>
							<marker>
								<comment>gir ingen identitet fra seg</comment>
								<name>anonymt</name>
								<in>303</in>
								<out>-1</out>
							</marker>
							<marker>
								<comment>overvￃﾥke ruta du kjￃﾸrer</comment>
								<name>blir det press?</name>
								<in>5009</in>
								<out>-1</out>
							</marker>
							<marker>
								<comment>hvis du ikke selv vil</comment>
								<name>kan unngￃﾥ</name>
								<in>6481</in>
								<out>-1</out>
							</marker>
							<marker>
								<comment>med bilde og det hele</comment>
								<name>gￃﾥr melding til polti</name>
								<in>2515</in>
								<out>-1</out>
							</marker>
							<marker>
								<comment>men du vil jo ogsￃﾥ planlegge og lage flyt</comment>
								<name>du vil ha personvern</name>
								<in>7472</in>
								<out>-1</out>
							</marker>
							<marker>
								<comment>gpr ikke ned pￃﾥ indivinivￃﾥ med big data</comment>
								<name>big data ikke pￃﾥ invdivd</name>
								<in>7737</in>
								<out>-1</out>
							</marker>
							<marker>
								<comment>langtidsidentiten din kan bare ￃﾥpnes med en rettsordre</comment>
								<name>rettsordre</name>
								<in>984</in>
								<out>-1</out>
							</marker>
							<marker>
								<comment>bilen blir identifisert</comment>
								<name>kjￃﾸre pￃﾥ rￃﾸdt</name>
								<in>2231</in>
								<out>-1</out>
							</marker>
						<link>
							<linkclipref>clipitem-867</linkclipref>
							<mediatype>video</mediatype>
							<trackindex>1</trackindex>
							<clipindex>303</clipindex>
						</link>
						<link>
							<linkclipref>clipitem-1285</linkclipref>
							<mediatype>audio</mediatype>
							<trackindex>1</trackindex>
							<clipindex>150</clipindex>
						</link>
						<logginginfo>
							<description></description>
							<scene></scene>
							<shottake>AA0045</shottake>
							<lognote></lognote>
						</logginginfo>
						<labels>
							<label2>Iris</label2>
						</labels>
					</clipitem>
					<clipitem id="clipitem-868" frameBlend="FALSE">
						<masterclipid>masterclip-214</masterclipid>
						<name>AA004601.MXF</name>
						<enabled>TRUE</enabled>
						<duration>32868</duration>
						<rate>
							<timebase>25</timebase>
							<ntsc>FALSE</ntsc>
						</rate>
						<start>34368</start>
						<end>34499</end>
						<in>27004</in>
						<out>27135</out>
						<alphatype>none</alphatype>
						<file id="file-191"/>
							<marker>
								<comment>at det p plukke ut fartsovertredelser ikke er ok</comment>
								<name>syns selv </name>
								<in>2063</in>
								<out>-1</out>
							</marker>
							<marker>
								<comment>at du er i ferd med ￃﾥ gjￃﾸre noe dumt</comment>
								<name>din egen bil varsler</name>
								<in>13450</in>
								<out>-1</out>
							</marker>
							<marker>
								<comment></comment>
								<name>krysset advarer biler</name>
								<in>3254</in>
								<out>-1</out>
							</marker>
							<marker>
								<comment>vil sende ut til andre, men ikke politiet</comment>
								<name>bile noppdager fare</name>
								<in>25728</in>
								<out>-1</out>
							</marker>
							<marker>
								<comment>men hva sikkerhetsmyndigheten hjￃﾸr vet ingen</comment>
								<name>systemet tillater ikke</name>
								<in>31411</in>
								<out>-1</out>
							</marker>
							<marker>
								<comment>om ￃﾥ lagre i bilen</comment>
								<name>kan bli lovpￃﾥbud</name>
								<in>27311</in>
								<out>-1</out>
							</marker>
							<marker>
								<comment>men ikke individnivￃﾥ</comment>
								<name>analyser</name>
								<in>12162</in>
								<out>-1</out>
							</marker>
							<marker>
								<comment>bryter ikke personvern</comment>
								<name>data kommersiell verdi</name>
								<in>11384</in>
								<out>-1</out>
							</marker>
							<marker>
								<comment>langtids kan bare ￃﾥpnes ved veldig god grunn</comment>
								<name>ser ikke noe fare</name>
								<in>20254</in>
								<out>-1</out>
							</marker>
							<marker>
								<comment>lagrer aldri noen ting</comment>
								<name>bare synsrekkefￃﾸlge</name>
								<in>27067</in>
								<out>-1</out>
							</marker>
							<marker>
								<comment>enn bilskilt</comment>
								<name>anonymiserer mer</name>
								<in>9955</in>
								<out>-1</out>
							</marker>
							<marker>
								<comment></comment>
								<name>alle lovbrudd lagret?</name>
								<in>26603</in>
								<out>-1</out>
							</marker>
							<marker>
								<comment>10 ganger i sekunder hva du gjￃﾸr </comment>
								<name>anonymisert melding</name>
								<in>25110</in>
								<out>-1</out>
							</marker>
							<marker>
								<comment>i motsetning til bilskilt</comment>
								<name>mￃﾥ ha rettskjennelse</name>
								<in>10515</in>
								<out>-1</out>
							</marker>
							<marker>
								<comment>bare alvorlige lvobruddhￃﾥper jeg</comment>
								<name>hￃﾥper alvorlig</name>
								<in>1274</in>
								<out>-1</out>
							</marker>
							<marker>
								<comment></comment>
								<name>den vi lneppe overstyre deg</name>
								<in>13992</in>
								<out>-1</out>
							</marker>
							<marker>
								<comment></comment>
								<name>ka naldri fￃﾸlge en bil</name>
								<in>18235</in>
								<out>-1</out>
							</marker>
							<marker>
								<comment>allerede i dag</comment>
								<name>bilen er angiver</name>
								<in>9071</in>
								<out>-1</out>
							</marker>
							<marker>
								<comment>kjￃﾸreretning</comment>
								<name>beklager jeg kjￃﾸrer i feil</name>
								<in>26376</in>
								<out>-1</out>
							</marker>
							<marker>
								<comment>vu har brukt veldig mye tid pￃﾥ det</comment>
								<name>unngￃﾥ ￃﾥ fￃﾸlge individer</name>
								<in>23348</in>
								<out>-1</out>
							</marker>
							<marker>
								<comment>hiver pￃﾥ bremser</comment>
								<name> </name>
								<in>14850</in>
								<out>-1</out>
							</marker>
							<marker>
								<comment>ￃﾥ kjￃﾸre feil reting</comment>
								<name>bilen kan hindre </name>
								<in>7719</in>
								<out>-1</out>
							</marker>
							<marker>
								<comment>ￃﾥ hacke seg inn, sett det med NSA</comment>
								<name>teknisk mulig </name>
								<in>30696</in>
								<out>-1</out>
							</marker>
							<marker>
								<comment>fￃﾥr vigte om meg?</comment>
								<name>hvor mye andre biler</name>
								<in>17367</in>
								<out>-1</out>
							</marker>
						<link>
							<linkclipref>clipitem-868</linkclipref>
							<mediatype>video</mediatype>
							<trackindex>1</trackindex>
							<clipindex>304</clipindex>
						</link>
						<link>
							<linkclipref>clipitem-1286</linkclipref>
							<mediatype>audio</mediatype>
							<trackindex>1</trackindex>
							<clipindex>151</clipindex>
						</link>
						<logginginfo>
							<description></description>
							<scene></scene>
							<shottake>AA0046</shottake>
							<lognote></lognote>
						</logginginfo>
						<labels>
							<label2>Iris</label2>
						</labels>
					</clipitem>
					<clipitem id="clipitem-869" frameBlend="FALSE">
						<masterclipid>masterclip-212</masterclipid>
						<name>AA004501.MXF</name>
						<enabled>TRUE</enabled>
						<duration>9324</duration>
						<rate>
							<timebase>25</timebase>
							<ntsc>FALSE</ntsc>
						</rate>
						<start>34499</start>
						<end>34531</end>
						<in>841</in>
						<out>873</out>
						<alphatype>none</alphatype>
						<file id="file-189"/>
							<marker>
								<comment>har absolutt en identitet, dessverre</comment>
								<name>smartelefoner </name>
								<in>8575</in>
								<out>-1</out>
							</marker>
							<marker>
								<comment>gir ingen identitet fra seg</comment>
								<name>anonymt</name>
								<in>303</in>
								<out>-1</out>
							</marker>
							<marker>
								<comment>overvￃﾥke ruta du kjￃﾸrer</comment>
								<name>blir det press?</name>
								<in>5009</in>
								<out>-1</out>
							</marker>
							<marker>
								<comment>hvis du ikke selv vil</comment>
								<name>kan unngￃﾥ</name>
								<in>6481</in>
								<out>-1</out>
							</marker>
							<marker>
								<comment>med bilde og det hele</comment>
								<name>gￃﾥr melding til polti</name>
								<in>2515</in>
								<out>-1</out>
							</marker>
							<marker>
								<comment>men du vil jo ogsￃﾥ planlegge og lage flyt</comment>
								<name>du vil ha personvern</name>
								<in>7472</in>
								<out>-1</out>
							</marker>
							<marker>
								<comment>gpr ikke ned pￃﾥ indivinivￃﾥ med big data</comment>
								<name>big data ikke pￃﾥ invdivd</name>
								<in>7737</in>
								<out>-1</out>
							</marker>
							<marker>
								<comment>langtidsidentiten din kan bare ￃﾥpnes med en rettsordre</comment>
								<name>rettsordre</name>
								<in>984</in>
								<out>-1</out>
							</marker>
							<marker>
								<comment>bilen blir identifisert</comment>
								<name>kjￃﾸre pￃﾥ rￃﾸdt</name>
								<in>2231</in>
								<out>-1</out>
							</marker>
						<link>
							<linkclipref>clipitem-869</linkclipref>
							<mediatype>video</mediatype>
							<trackindex>1</trackindex>
							<clipindex>305</clipindex>
						</link>
						<link>
							<linkclipref>clipitem-1287</linkclipref>
							<mediatype>audio</mediatype>
							<trackindex>1</trackindex>
							<clipindex>152</clipindex>
						</link>
						<logginginfo>
							<description></description>
							<scene></scene>
							<shottake>AA0045</shottake>
							<lognote></lognote>
						</logginginfo>
						<labels>
							<label2>Iris</label2>
						</labels>
					</clipitem>
					<clipitem id="clipitem-870" frameBlend="FALSE">
						<masterclipid>masterclip-213</masterclipid>
						<name>MVI_0141.MOV</name>
						<enabled>TRUE</enabled>
						<duration>13375</duration>
						<rate>
							<timebase>25</timebase>
							<ntsc>FALSE</ntsc>
						</rate>
						<start>34531</start>
						<end>34629</end>
						<in>4856</in>
						<out>4954</out>
						<alphatype>black</alphatype>
						<file id="file-190"/>
						<logginginfo>
							<description></description>
							<scene></scene>
							<shottake></shottake>
							<lognote></lognote>
						</logginginfo>
						<labels>
							<label2>Iris</label2>
						</labels>
					</clipitem>
					<clipitem id="clipitem-871" frameBlend="FALSE">
						<masterclipid>masterclip-220</masterclipid>
						<name>Chris 479276291_h2.mov</name>
						<enabled>TRUE</enabled>
						<duration>559</duration>
						<rate>
							<timebase>25</timebase>
							<ntsc>FALSE</ntsc>
						</rate>
						<start>34629</start>
						<end>34703</end>
						<in>253</in>
						<out>327</out>
						<alphatype>none</alphatype>
						<pixelaspectratio>square</pixelaspectratio>
						<anamorphic>FALSE</anamorphic>
						<file id="file-197">
							<name>Chris 479276291_h2.mov</name>
							<pathurl>file://localhost/Volumes/Brakka/AdobeLager/Katta/Katta-14xxxx-Smart_eller_overvaaket-Chris/02-Video/Arkiv/Chris%20479276291_h2.mov</pathurl>
							<rate>
								<timebase>30</timebase>
								<ntsc>TRUE</ntsc>
							</rate>
							<duration>671</duration>
							<timecode>
								<rate>
									<timebase>30</timebase>
									<ntsc>TRUE</ntsc>
								</rate>
								<string>00;00;00;10</string>
								<frame>10</frame>
								<displayformat>DF</displayformat>
								<reel>
									<name></name>
								</reel>
							</timecode>
							<media>
								<video>
									<duration>18000</duration>
									<samplecharacteristics>
										<rate>
											<timebase>30</timebase>
											<ntsc>TRUE</ntsc>
										</rate>
										<width>1920</width>
										<height>1080</height>
										<anamorphic>FALSE</anamorphic>
										<pixelaspectratio>square</pixelaspectratio>
										<fielddominance>none</fielddominance>
									</samplecharacteristics>
								</video>
							</media>
						</file>
						<logginginfo>
							<description></description>
							<scene></scene>
							<shottake></shottake>
							<lognote></lognote>
						</logginginfo>
						<labels>
							<label2>Violet</label2>
						</labels>
					</clipitem>
					<clipitem id="clipitem-872" frameBlend="FALSE">
						<masterclipid>masterclip-221</masterclipid>
						<name>Chris 451764742_h1.mov</name>
						<enabled>TRUE</enabled>
						<duration>275</duration>
						<rate>
							<timebase>25</timebase>
							<ntsc>FALSE</ntsc>
						</rate>
						<start>34703</start>
						<end>34786</end>
						<in>89</in>
						<out>172</out>
						<alphatype>none</alphatype>
						<pixelaspectratio>square</pixelaspectratio>
						<anamorphic>FALSE</anamorphic>
						<file id="file-198">
							<name>Chris 451764742_h1.mov</name>
							<pathurl>file://localhost/Volumes/Brakka/AdobeLager/Katta/Katta-14xxxx-Smart_eller_overvaaket-Chris/02-Video/Arkiv/Chris%20451764742_h1.mov</pathurl>
							<rate>
								<timebase>24</timebase>
								<ntsc>TRUE</ntsc>
							</rate>
							<duration>264</duration>
							<timecode>
								<rate>
									<timebase>24</timebase>
									<ntsc>TRUE</ntsc>
								</rate>
								<string>00:00:00:00</string>
								<frame>0</frame>
								<displayformat>NDF</displayformat>
								<reel>
									<name></name>
								</reel>
							</timecode>
							<media>
								<video>
									<duration>18000</duration>
									<samplecharacteristics>
										<rate>
											<timebase>24</timebase>
											<ntsc>TRUE</ntsc>
										</rate>
										<width>1920</width>
										<height>1080</height>
										<anamorphic>FALSE</anamorphic>
										<pixelaspectratio>square</pixelaspectratio>
										<fielddominance>none</fielddominance>
									</samplecharacteristics>
								</video>
							</media>
						</file>
						<logginginfo>
							<description></description>
							<scene></scene>
							<shottake></shottake>
							<lognote></lognote>
						</logginginfo>
						<labels>
							<label2>Violet</label2>
						</labels>
					</clipitem>
					<clipitem id="clipitem-873" frameBlend="FALSE">
						<masterclipid>masterclip-222</masterclipid>
						<name>49635_1_5_volvo.mov</name>
						<enabled>TRUE</enabled>
						<duration>2296</duration>
						<rate>
							<timebase>25</timebase>
							<ntsc>FALSE</ntsc>
						</rate>
						<start>34786</start>
						<end>34892</end>
						<in>1010</in>
						<out>1116</out>
						<alphatype>black</alphatype>
						<pixelaspectratio>square</pixelaspectratio>
						<anamorphic>FALSE</anamorphic>
						<file id="file-199">
							<name>49635_1_5_volvo.mov</name>
							<pathurl>file://localhost/Volumes/Brakka/AdobeLager/Katta/Katta-14xxxx-Smart_eller_overvaaket-Chris/02-Video/Arkiv/49635_1_5_volvo.mov</pathurl>
							<rate>
								<timebase>25</timebase>
								<ntsc>FALSE</ntsc>
							</rate>
							<duration>2296</duration>
							<timecode>
								<rate>
									<timebase>25</timebase>
									<ntsc>FALSE</ntsc>
								</rate>
								<string>00:00:00:00</string>
								<frame>0</frame>
								<displayformat>NDF</displayformat>
								<reel>
									<name></name>
								</reel>
							</timecode>
							<media>
								<video>
									<duration>18000</duration>
									<samplecharacteristics>
										<rate>
											<timebase>25</timebase>
											<ntsc>FALSE</ntsc>
										</rate>
										<width>1280</width>
										<height>720</height>
										<anamorphic>FALSE</anamorphic>
										<pixelaspectratio>square</pixelaspectratio>
										<fielddominance>none</fielddominance>
									</samplecharacteristics>
								</video>
								<audio>
									<samplecharacteristics>
										<depth>16</depth>
										<samplerate>44100</samplerate>
									</samplecharacteristics>
									<channelcount>2</channelcount>
								</audio>
							</media>
						</file>
						<logginginfo>
							<description></description>
							<scene></scene>
							<shottake></shottake>
							<lognote></lognote>
						</logginginfo>
						<labels>
							<label2>Iris</label2>
						</labels>
					</clipitem>
					<clipitem id="clipitem-874" frameBlend="FALSE">
						<masterclipid>masterclip-223</masterclipid>
						<name>MVI_0178.MOV</name>
						<enabled>TRUE</enabled>
						<duration>761</duration>
						<rate>
							<timebase>25</timebase>
							<ntsc>FALSE</ntsc>
						</rate>
						<start>34892</start>
						<end>35071</end>
						<in>441</in>
						<out>620</out>
						<alphatype>black</alphatype>
						<pixelaspectratio>square</pixelaspectratio>
						<anamorphic>FALSE</anamorphic>
						<file id="file-200">
							<name>MVI_0178.MOV</name>
							<pathurl>file://localhost/Volumes/Brakka/AdobeLager/Katta/Katta-14xxxx-Smart_eller_overvaaket-Chris/02-Video/Q-free5D%20Roger/DCIM/100EOS5D/MVI_0178.MOV</pathurl>
							<rate>
								<timebase>25</timebase>
								<ntsc>FALSE</ntsc>
							</rate>
							<duration>761</duration>
							<timecode>
								<rate>
									<timebase>25</timebase>
									<ntsc>FALSE</ntsc>
								</rate>
								<string>00:00:00:00</string>
								<frame>0</frame>
								<displayformat>NDF</displayformat>
								<reel>
									<name></name>
								</reel>
							</timecode>
							<media>
								<video>
									<duration>18000</duration>
									<samplecharacteristics>
										<rate>
											<timebase>25</timebase>
											<ntsc>FALSE</ntsc>
										</rate>
										<width>1920</width>
										<height>1080</height>
										<anamorphic>FALSE</anamorphic>
										<pixelaspectratio>square</pixelaspectratio>
										<fielddominance>none</fielddominance>
									</samplecharacteristics>
								</video>
								<audio>
									<samplecharacteristics>
										<depth>16</depth>
										<samplerate>48000</samplerate>
									</samplecharacteristics>
									<channelcount>1</channelcount>
									<layout>mono</layout>
									<audiochannel>
										<sourcechannel>1</sourcechannel>
										<channellabel>discrete</channellabel>
									</audiochannel>
								</audio>
								<audio>
									<samplecharacteristics>
										<depth>16</depth>
										<samplerate>48000</samplerate>
									</samplecharacteristics>
									<channelcount>1</channelcount>
									<layout>mono</layout>
									<audiochannel>
										<sourcechannel>2</sourcechannel>
										<channellabel>discrete</channellabel>
									</audiochannel>
								</audio>
							</media>
						</file>
						<link>
							<linkclipref>clipitem-874</linkclipref>
							<mediatype>video</mediatype>
							<trackindex>1</trackindex>
							<clipindex>310</clipindex>
						</link>
						<link>
							<linkclipref>clipitem-1575</linkclipref>
							<mediatype>audio</mediatype>
							<trackindex>5</trackindex>
							<clipindex>77</clipindex>
						</link>
						<link>
							<linkclipref>clipitem-1584</linkclipref>
							<mediatype>audio</mediatype>
							<trackindex>6</trackindex>
							<clipindex>1</clipindex>
						</link>
						<logginginfo>
							<description></description>
							<scene></scene>
							<shottake></shottake>
							<lognote></lognote>
						</logginginfo>
						<labels>
							<label2>Iris</label2>
						</labels>
					</clipitem>
					<clipitem id="clipitem-875" frameBlend="FALSE">
						<masterclipid>masterclip-224</masterclipid>
						<name>AA007701.MXFMulticam</name>
						<enabled>TRUE</enabled>
						<duration>14442</duration>
						<rate>
							<timebase>25</timebase>
							<ntsc>FALSE</ntsc>
						</rate>
						<start>35071</start>
						<end>35126</end>
						<in>2367</in>
						<out>2422</out>
						<sequence id="sequence-95">
							<duration>150</duration>
							<rate>
								<timebase>25</timebase>
								<ntsc>FALSE</ntsc>
							</rate>
							<name>AA007701.MXFMulticam-1</name>
							<media>
								<video>
									<format>
										<samplecharacteristics>
											<rate>
												<timebase>25</timebase>
												<ntsc>FALSE</ntsc>
											</rate>
											<codec>
												<name>Apple ProRes 422</name>
												<appspecificdata>
													<appname>Final Cut Pro</appname>
													<appmanufacturer>Apple Inc.</appmanufacturer>
													<appversion>7.0</appversion>
													<data>
														<qtcodec>
															<codecname>Apple ProRes 422</codecname>
															<codectypename>Apple ProRes 422</codectypename>
															<codectypecode>apcn</codectypecode>
															<codecvendorcode>appl</codecvendorcode>
															<spatialquality>1024</spatialquality>
															<temporalquality>0</temporalquality>
															<keyframerate>0</keyframerate>
															<datarate>0</datarate>
														</qtcodec>
													</data>
												</appspecificdata>
											</codec>
											<width>1920</width>
											<height>1080</height>
											<anamorphic>FALSE</anamorphic>
											<pixelaspectratio>square</pixelaspectratio>
											<fielddominance>upper</fielddominance>
											<colordepth>24</colordepth>
										</samplecharacteristics>
									</format>
									<track TL.SQTrackShy="0" TL.SQTrackExpandedHeight="50" TL.SQTrackExpanded="1" MZ.TrackTargeted="0">
										<clipitem id="clipitem-877" frameBlend="FALSE">
											<masterclipid>masterclip-225</masterclipid>
											<name>AA007701.MXF</name>
											<enabled>TRUE</enabled>
											<duration>10044</duration>
											<rate>
												<timebase>25</timebase>
												<ntsc>FALSE</ntsc>
											</rate>
											<start>770</start>
											<end>10814</end>
											<in>0</in>
											<out>10044</out>
											<alphatype>none</alphatype>
											<file id="file-201"/>
											<logginginfo>
												<description></description>
												<scene></scene>
												<shottake>AA0077</shottake>
												<lognote></lognote>
											</logginginfo>
											<labels>
												<label2>Mango</label2>
											</labels>
										</clipitem>
										<enabled>TRUE</enabled>
										<locked>FALSE</locked>
									</track>
								</video>
								<audio>
									<format>
										<samplecharacteristics>
											<depth>16</depth>
											<samplerate>48000</samplerate>
										</samplecharacteristics>
									</format>
									<outputs>
										<group>
											<index>1</index>
											<numchannels>1</numchannels>
											<downmix>0</downmix>
											<channel>
												<index>1</index>
											</channel>
										</group>
										<group>
											<index>2</index>
											<numchannels>1</numchannels>
											<downmix>0</downmix>
											<channel>
												<index>2</index>
											</channel>
										</group>
										<group>
											<index>3</index>
											<numchannels>1</numchannels>
											<downmix>0</downmix>
											<channel>
												<index>3</index>
											</channel>
										</group>
										<group>
											<index>4</index>
											<numchannels>1</numchannels>
											<downmix>0</downmix>
											<channel>
												<index>4</index>
											</channel>
										</group>
										<group>
											<index>5</index>
											<numchannels>1</numchannels>
											<downmix>0</downmix>
											<channel>
												<index>5</index>
											</channel>
										</group>
										<group>
											<index>6</index>
											<numchannels>1</numchannels>
											<downmix>0</downmix>
											<channel>
												<index>6</index>
											</channel>
										</group>
										<group>
											<index>7</index>
											<numchannels>1</numchannels>
											<downmix>0</downmix>
											<channel>
												<index>7</index>
											</channel>
										</group>
										<group>
											<index>8</index>
											<numchannels>1</numchannels>
											<downmix>0</downmix>
											<channel>
												<index>8</index>
											</channel>
										</group>
									</outputs>
									<track TL.SQTrackAudioKeyframeStyle="0" TL.SQTrackShy="0" TL.SQTrackExpandedHeight="25" TL.SQTrackExpanded="0" MZ.TrackTargeted="1" PannerCurrentValue="0" PannerIsInverted="true" PannerStartKeyframe="-91445760000000000,0.,0,0,0,0,0,0" PannerName="Balance" currentExplodedTrackIndex="0" totalExplodedTrackCount="1" premiereTrackType="Stereo">
										<clipitem id="clipitem-876" frameBlend="FALSE" PannerCurrentValue="0.5" PannerKeyframes="" PannerStartKeyframe="-91445760000000000,0.5,0,0,0,0,0,0" PannerIsInverted="true" PannerName="Pan">
											<masterclipid>masterclip-225</masterclipid>
											<name>AA007701.MXF</name>
											<enabled>TRUE</enabled>
											<duration>10044</duration>
											<rate>
												<timebase>25</timebase>
												<ntsc>FALSE</ntsc>
											</rate>
											<start>770</start>
											<end>10814</end>
											<in>0</in>
											<out>10044</out>
											<pixelaspectratio>square</pixelaspectratio>
											<anamorphic>FALSE</anamorphic>
											<file id="file-201">
												<name>AA007701.MXF</name>
												<pathurl>file://localhost/Volumes/Brakka/AdobeLager/Katta/Katta-14xxxx-Smart_eller_overvaaket-Chris/02-Video/Q-free300%20Roger/CONTENTS/CLIPS001/AA0077/AA007701.MXF</pathurl>
												<rate>
													<timebase>25</timebase>
													<ntsc>FALSE</ntsc>
												</rate>
												<duration>10044</duration>
												<timecode>
													<rate>
														<timebase>25</timebase>
														<ntsc>FALSE</ntsc>
													</rate>
													<string>12:27:32:00</string>
													<frame>1121300</frame>
													<displayformat>NDF</displayformat>
													<reel>
														<name></name>
													</reel>
												</timecode>
												<media>
													<video>
														<duration>18000</duration>
														<samplecharacteristics>
															<rate>
																<timebase>25</timebase>
																<ntsc>FALSE</ntsc>
															</rate>
															<width>1920</width>
															<height>1080</height>
															<anamorphic>FALSE</anamorphic>
															<pixelaspectratio>square</pixelaspectratio>
															<fielddominance>upper</fielddominance>
														</samplecharacteristics>
													</video>
													<audio>
														<samplecharacteristics>
															<depth>16</depth>
															<samplerate>48000</samplerate>
														</samplecharacteristics>
														<channelcount>2</channelcount>
													</audio>
												</media>
											</file>
											<sourcetrack>
												<mediatype>audio</mediatype>
												<trackindex>1</trackindex>
											</sourcetrack>
												<filter>
													<effect>
														<name>Audio Pan</name>
														<effectid>audiopan</effectid>
														<effectcategory>audiopan</effectcategory>
														<effecttype>audiopan</effecttype>
														<mediatype>audio</mediatype>
														<parameter authoringApp="PremierePro">
															<parameterid>pan</parameterid>
															<name>Pan</name>
															<valuemin>-1</valuemin>
															<valuemax>1</valuemax>
															<value>0</value>
														</parameter>
													</effect>
												</filter>
											<logginginfo>
												<description></description>
												<scene></scene>
												<shottake>AA0077</shottake>
												<lognote></lognote>
											</logginginfo>
											<labels>
												<label2>Mango</label2>
											</labels>
										</clipitem>
										<enabled>TRUE</enabled>
										<locked>FALSE</locked>
										<outputchannelindex>1</outputchannelindex>
									</track>
								</audio>
							</media>
							<timecode>
								<rate>
									<timebase>25</timebase>
									<ntsc>FALSE</ntsc>
								</rate>
								<string>00:00:00:00</string>
								<frame>0</frame>
								<displayformat>NDF</displayformat>
							</timecode>
						</sequence>
							<marker>
								<comment>du fￃﾥ rtildelt en parkering i parkeringshuset</comment>
								<name></name>
								<in>12730</in>
								<out>-1</out>
							</marker>
						<link>
							<linkclipref>clipitem-875</linkclipref>
							<mediatype>video</mediatype>
							<trackindex>1</trackindex>
							<clipindex>311</clipindex>
						</link>
						<link>
							<linkclipref>clipitem-1299</linkclipref>
							<mediatype>audio</mediatype>
							<trackindex>1</trackindex>
							<clipindex>154</clipindex>
						</link>
						<labels>
							<label2>Mango</label2>
						</labels>
					</clipitem>
					<clipitem id="clipitem-882" frameBlend="FALSE">
						<masterclipid>masterclip-224</masterclipid>
						<name>AA007701.MXFMulticam</name>
						<enabled>TRUE</enabled>
						<duration>14442</duration>
						<rate>
							<timebase>25</timebase>
							<ntsc>FALSE</ntsc>
						</rate>
						<start>35126</start>
						<end>35191</end>
						<in>2426</in>
						<out>2491</out>
						<sequence id="sequence-97">
							<duration>150</duration>
							<rate>
								<timebase>25</timebase>
								<ntsc>FALSE</ntsc>
							</rate>
							<name>AA007701.MXFMulticam-3</name>
							<media>
								<video>
									<format>
										<samplecharacteristics>
											<rate>
												<timebase>25</timebase>
												<ntsc>FALSE</ntsc>
											</rate>
											<codec>
												<name>Apple ProRes 422</name>
												<appspecificdata>
													<appname>Final Cut Pro</appname>
													<appmanufacturer>Apple Inc.</appmanufacturer>
													<appversion>7.0</appversion>
													<data>
														<qtcodec>
															<codecname>Apple ProRes 422</codecname>
															<codectypename>Apple ProRes 422</codectypename>
															<codectypecode>apcn</codectypecode>
															<codecvendorcode>appl</codecvendorcode>
															<spatialquality>1024</spatialquality>
															<temporalquality>0</temporalquality>
															<keyframerate>0</keyframerate>
															<datarate>0</datarate>
														</qtcodec>
													</data>
												</appspecificdata>
											</codec>
											<width>1920</width>
											<height>1080</height>
											<anamorphic>FALSE</anamorphic>
											<pixelaspectratio>square</pixelaspectratio>
											<fielddominance>upper</fielddominance>
											<colordepth>24</colordepth>
										</samplecharacteristics>
									</format>
									<track TL.SQTrackShy="0" TL.SQTrackExpandedHeight="25" TL.SQTrackExpanded="0" MZ.TrackTargeted="0">
										<clipitem id="clipitem-880" frameBlend="FALSE">
											<masterclipid>masterclip-227</masterclipid>
											<name>MVI_0174.MOV</name>
											<enabled>TRUE</enabled>
											<duration>7642</duration>
											<rate>
												<timebase>25</timebase>
												<ntsc>FALSE</ntsc>
											</rate>
											<start>0</start>
											<end>7642</end>
											<in>0</in>
											<out>7642</out>
											<alphatype>black</alphatype>
											<pixelaspectratio>square</pixelaspectratio>
											<anamorphic>FALSE</anamorphic>
											<file id="file-203">
												<name>MVI_0174.MOV</name>
												<pathurl>file://localhost/Volumes/Brakka/AdobeLager/Katta/Katta-14xxxx-Smart_eller_overvaaket-Chris/02-Video/Q-free5D%20Roger/DCIM/100EOS5D/MVI_0174.MOV</pathurl>
												<rate>
													<timebase>25</timebase>
													<ntsc>FALSE</ntsc>
												</rate>
												<duration>7642</duration>
												<timecode>
													<rate>
														<timebase>25</timebase>
														<ntsc>FALSE</ntsc>
													</rate>
													<string>00:00:00:00</string>
													<frame>0</frame>
													<displayformat>NDF</displayformat>
													<reel>
														<name></name>
													</reel>
												</timecode>
												<media>
													<video>
														<duration>18000</duration>
														<samplecharacteristics>
															<rate>
																<timebase>25</timebase>
																<ntsc>FALSE</ntsc>
															</rate>
															<width>1920</width>
															<height>1080</height>
															<anamorphic>FALSE</anamorphic>
															<pixelaspectratio>square</pixelaspectratio>
															<fielddominance>none</fielddominance>
														</samplecharacteristics>
													</video>
													<audio>
														<samplecharacteristics>
															<depth>16</depth>
															<samplerate>48000</samplerate>
														</samplecharacteristics>
														<channelcount>2</channelcount>
													</audio>
												</media>
											</file>
											<logginginfo>
												<description></description>
												<scene></scene>
												<shottake></shottake>
												<lognote></lognote>
											</logginginfo>
											<labels>
												<label2>Mango</label2>
											</labels>
										</clipitem>
										<enabled>TRUE</enabled>
										<locked>FALSE</locked>
									</track>
								</video>
								<audio>
									<format>
										<samplecharacteristics>
											<depth>16</depth>
											<samplerate>48000</samplerate>
										</samplecharacteristics>
									</format>
									<outputs>
										<group>
											<index>1</index>
											<numchannels>1</numchannels>
											<downmix>0</downmix>
											<channel>
												<index>1</index>
											</channel>
										</group>
										<group>
											<index>2</index>
											<numchannels>1</numchannels>
											<downmix>0</downmix>
											<channel>
												<index>2</index>
											</channel>
										</group>
										<group>
											<index>3</index>
											<numchannels>1</numchannels>
											<downmix>0</downmix>
											<channel>
												<index>3</index>
											</channel>
										</group>
										<group>
											<index>4</index>
											<numchannels>1</numchannels>
											<downmix>0</downmix>
											<channel>
												<index>4</index>
											</channel>
										</group>
										<group>
											<index>5</index>
											<numchannels>1</numchannels>
											<downmix>0</downmix>
											<channel>
												<index>5</index>
											</channel>
										</group>
										<group>
											<index>6</index>
											<numchannels>1</numchannels>
											<downmix>0</downmix>
											<channel>
												<index>6</index>
											</channel>
										</group>
										<group>
											<index>7</index>
											<numchannels>1</numchannels>
											<downmix>0</downmix>
											<channel>
												<index>7</index>
											</channel>
										</group>
										<group>
											<index>8</index>
											<numchannels>1</numchannels>
											<downmix>0</downmix>
											<channel>
												<index>8</index>
											</channel>
										</group>
									</outputs>
									<track TL.SQTrackAudioKeyframeStyle="0" TL.SQTrackShy="0" TL.SQTrackExpandedHeight="25" TL.SQTrackExpanded="0" MZ.TrackTargeted="1" PannerCurrentValue="0" PannerIsInverted="true" PannerStartKeyframe="-91445760000000000,0.,0,0,0,0,0,0" PannerName="Balance" currentExplodedTrackIndex="0" totalExplodedTrackCount="1" premiereTrackType="Stereo">
										<clipitem id="clipitem-879" frameBlend="FALSE" PannerCurrentValue="0.5" PannerKeyframes="" PannerStartKeyframe="-91445760000000000,0.5,0,0,0,0,0,0" PannerIsInverted="true" PannerName="Pan">
											<masterclipid>masterclip-226</masterclipid>
											<name>AA007801.MXF</name>
											<enabled>TRUE</enabled>
											<duration>3360</duration>
											<rate>
												<timebase>25</timebase>
												<ntsc>FALSE</ntsc>
											</rate>
											<start>11082</start>
											<end>14442</end>
											<in>0</in>
											<out>3360</out>
											<file id="file-202"/>
											<sourcetrack>
												<mediatype>audio</mediatype>
												<trackindex>1</trackindex>
											</sourcetrack>
												<filter>
													<effect>
														<name>Audio Pan</name>
														<effectid>audiopan</effectid>
														<effectcategory>audiopan</effectcategory>
														<effecttype>audiopan</effecttype>
														<mediatype>audio</mediatype>
														<parameter authoringApp="PremierePro">
															<parameterid>pan</parameterid>
															<name>Pan</name>
															<valuemin>-1</valuemin>
															<valuemax>1</valuemax>
															<value>0</value>
														</parameter>
													</effect>
												</filter>
											<logginginfo>
												<description></description>
												<scene></scene>
												<shottake>AA0078</shottake>
												<lognote></lognote>
											</logginginfo>
											<labels>
												<label2>Mango</label2>
											</labels>
										</clipitem>
										<enabled>TRUE</enabled>
										<locked>FALSE</locked>
										<outputchannelindex>3</outputchannelindex>
									</track>
								</audio>
							</media>
							<timecode>
								<rate>
									<timebase>25</timebase>
									<ntsc>FALSE</ntsc>
								</rate>
								<string>00:00:00:00</string>
								<frame>0</frame>
								<displayformat>NDF</displayformat>
							</timecode>
						</sequence>
							<marker>
								<comment>du fￃﾥ rtildelt en parkering i parkeringshuset</comment>
								<name></name>
								<in>12730</in>
								<out>-1</out>
							</marker>
						<link>
							<linkclipref>clipitem-882</linkclipref>
							<mediatype>video</mediatype>
							<trackindex>1</trackindex>
							<clipindex>312</clipindex>
						</link>
						<link>
							<linkclipref>clipitem-1300</linkclipref>
							<mediatype>audio</mediatype>
							<trackindex>1</trackindex>
							<clipindex>155</clipindex>
						</link>
						<labels>
							<label2>Mango</label2>
						</labels>
					</clipitem>
					<clipitem id="clipitem-883" frameBlend="FALSE">
						<masterclipid>masterclip-224</masterclipid>
						<name>AA007701.MXFMulticam</name>
						<enabled>TRUE</enabled>
						<duration>14442</duration>
						<rate>
							<timebase>25</timebase>
							<ntsc>FALSE</ntsc>
						</rate>
						<start>35191</start>
						<end>35242</end>
						<in>2491</in>
						<out>2542</out>
						<sequence id="sequence-95"/>
							<marker>
								<comment>du fￃﾥ rtildelt en parkering i parkeringshuset</comment>
								<name></name>
								<in>12730</in>
								<out>-1</out>
							</marker>
						<labels>
							<label2>Mango</label2>
						</labels>
					</clipitem>
					<clipitem id="clipitem-884" frameBlend="FALSE">
						<masterclipid>masterclip-224</masterclipid>
						<name>AA007701.MXFMulticam</name>
						<enabled>TRUE</enabled>
						<duration>14442</duration>
						<rate>
							<timebase>25</timebase>
							<ntsc>FALSE</ntsc>
						</rate>
						<start>35242</start>
						<end>35309</end>
						<in>5509</in>
						<out>5576</out>
						<sequence id="sequence-95"/>
							<marker>
								<comment>du fￃﾥ rtildelt en parkering i parkeringshuset</comment>
								<name></name>
								<in>12730</in>
								<out>-1</out>
							</marker>
						<link>
							<linkclipref>clipitem-884</linkclipref>
							<mediatype>video</mediatype>
							<trackindex>1</trackindex>
							<clipindex>314</clipindex>
						</link>
						<link>
							<linkclipref>clipitem-1301</linkclipref>
							<mediatype>audio</mediatype>
							<trackindex>1</trackindex>
							<clipindex>156</clipindex>
						</link>
						<labels>
							<label2>Mango</label2>
						</labels>
					</clipitem>
					<clipitem id="clipitem-885" frameBlend="FALSE">
						<masterclipid>masterclip-224</masterclipid>
						<name>AA007701.MXFMulticam</name>
						<enabled>TRUE</enabled>
						<duration>14442</duration>
						<rate>
							<timebase>25</timebase>
							<ntsc>FALSE</ntsc>
						</rate>
						<start>35309</start>
						<end>35415</end>
						<in>5576</in>
						<out>5682</out>
						<sequence id="sequence-97"/>
							<marker>
								<comment>du fￃﾥ rtildelt en parkering i parkeringshuset</comment>
								<name></name>
								<in>12730</in>
								<out>-1</out>
							</marker>
						<labels>
							<label2>Mango</label2>
						</labels>
					</clipitem>
					<clipitem id="clipitem-886" frameBlend="FALSE">
						<masterclipid>masterclip-224</masterclipid>
						<name>AA007701.MXFMulticam</name>
						<enabled>TRUE</enabled>
						<duration>14442</duration>
						<rate>
							<timebase>25</timebase>
							<ntsc>FALSE</ntsc>
						</rate>
						<start>35415</start>
						<end>35469</end>
						<in>5683</in>
						<out>5737</out>
						<sequence id="sequence-95"/>
							<marker>
								<comment>du fￃﾥ rtildelt en parkering i parkeringshuset</comment>
								<name></name>
								<in>12730</in>
								<out>-1</out>
							</marker>
						<labels>
							<label2>Mango</label2>
						</labels>
					</clipitem>
					<clipitem id="clipitem-887" frameBlend="FALSE">
						<masterclipid>masterclip-224</masterclipid>
						<name>AA007701.MXFMulticam</name>
						<enabled>TRUE</enabled>
						<duration>14442</duration>
						<rate>
							<timebase>25</timebase>
							<ntsc>FALSE</ntsc>
						</rate>
						<start>35469</start>
						<end>35532</end>
						<in>5799</in>
						<out>5862</out>
						<sequence id="sequence-97"/>
							<marker>
								<comment>du fￃﾥ rtildelt en parkering i parkeringshuset</comment>
								<name></name>
								<in>12730</in>
								<out>-1</out>
							</marker>
						<labels>
							<label2>Mango</label2>
						</labels>
					</clipitem>
					<clipitem id="clipitem-888" frameBlend="FALSE">
						<masterclipid>masterclip-224</masterclipid>
						<name>AA007701.MXFMulticam</name>
						<enabled>TRUE</enabled>
						<duration>14442</duration>
						<rate>
							<timebase>25</timebase>
							<ntsc>FALSE</ntsc>
						</rate>
						<start>35532</start>
						<end>35573</end>
						<in>5862</in>
						<out>5903</out>
						<sequence id="sequence-95"/>
							<marker>
								<comment>du fￃﾥ rtildelt en parkering i parkeringshuset</comment>
								<name></name>
								<in>12730</in>
								<out>-1</out>
							</marker>
						<labels>
							<label2>Mango</label2>
						</labels>
					</clipitem>
					<clipitem id="clipitem-889" frameBlend="FALSE">
						<masterclipid>masterclip-224</masterclipid>
						<name>AA007701.MXFMulticam</name>
						<enabled>TRUE</enabled>
						<duration>14442</duration>
						<rate>
							<timebase>25</timebase>
							<ntsc>FALSE</ntsc>
						</rate>
						<start>35573</start>
						<end>35689</end>
						<in>5903</in>
						<out>6019</out>
						<sequence id="sequence-97"/>
							<marker>
								<comment>du fￃﾥ rtildelt en parkering i parkeringshuset</comment>
								<name></name>
								<in>12730</in>
								<out>-1</out>
							</marker>
						<labels>
							<label2>Mango</label2>
						</labels>
					</clipitem>
					<clipitem id="clipitem-890" frameBlend="FALSE">
						<masterclipid>masterclip-224</masterclipid>
						<name>AA007701.MXFMulticam</name>
						<enabled>TRUE</enabled>
						<duration>14442</duration>
						<rate>
							<timebase>25</timebase>
							<ntsc>FALSE</ntsc>
						</rate>
						<start>35689</start>
						<end>35852</end>
						<in>6039</in>
						<out>6202</out>
						<sequence id="sequence-95"/>
							<marker>
								<comment>du fￃﾥ rtildelt en parkering i parkeringshuset</comment>
								<name></name>
								<in>12730</in>
								<out>-1</out>
							</marker>
						<labels>
							<label2>Mango</label2>
						</labels>
					</clipitem>
					<clipitem id="clipitem-891" frameBlend="FALSE">
						<masterclipid>masterclip-229</masterclipid>
						<name>Reaksjon_Thinfilm.MOV</name>
						<enabled>TRUE</enabled>
						<duration>865</duration>
						<rate>
							<timebase>25</timebase>
							<ntsc>FALSE</ntsc>
						</rate>
						<start>35852</start>
						<end>36508</end>
						<in>41</in>
						<out>697</out>
						<alphatype>black</alphatype>
						<pixelaspectratio>square</pixelaspectratio>
						<anamorphic>FALSE</anamorphic>
						<file id="file-205">
							<name>Reaksjon_Thinfilm.MOV</name>
							<pathurl>file://localhost/Volumes/Brakka/AdobeLager/Katta/Katta-14xxxx-Smart_eller_overvaaket-Chris/02-Video/Mobilvideo%20Eldrid/Reaksjon_Thinfilm.MOV</pathurl>
							<rate>
								<timebase>30</timebase>
								<ntsc>FALSE</ntsc>
							</rate>
							<duration>1039</duration>
							<timecode>
								<rate>
									<timebase>30</timebase>
									<ntsc>FALSE</ntsc>
								</rate>
								<string>00:00:00:00</string>
								<frame>0</frame>
								<displayformat>NDF</displayformat>
								<reel>
									<name></name>
								</reel>
							</timecode>
							<media>
								<video>
									<duration>18000</duration>
									<samplecharacteristics>
										<rate>
											<timebase>30</timebase>
											<ntsc>FALSE</ntsc>
										</rate>
										<width>1280</width>
										<height>720</height>
										<anamorphic>FALSE</anamorphic>
										<pixelaspectratio>square</pixelaspectratio>
										<fielddominance>none</fielddominance>
									</samplecharacteristics>
								</video>
								<audio>
									<samplecharacteristics>
										<depth>16</depth>
										<samplerate>44100</samplerate>
									</samplecharacteristics>
									<channelcount>1</channelcount>
									<layout>mono</layout>
									<audiochannel>
										<sourcechannel>1</sourcechannel>
										<channellabel>discrete</channellabel>
									</audiochannel>
								</audio>
							</media>
						</file>
							<marker>
								<comment>jeg godtar jo spor pￃﾥ internett sￃﾥ kommer sikkert til ￃﾥ godta det i det virkelige livet ogsￃﾥ</comment>
								<name></name>
								<in>425</in>
								<out>-1</out>
							</marker>
						<link>
							<linkclipref>clipitem-891</linkclipref>
							<mediatype>video</mediatype>
							<trackindex>1</trackindex>
							<clipindex>321</clipindex>
						</link>
						<link>
							<linkclipref>clipitem-1304</linkclipref>
							<mediatype>audio</mediatype>
							<trackindex>1</trackindex>
							<clipindex>159</clipindex>
						</link>
						<logginginfo>
							<description></description>
							<scene></scene>
							<shottake></shottake>
							<lognote></lognote>
						</logginginfo>
						<labels>
							<label2>Iris</label2>
						</labels>
					</clipitem>
					<clipitem id="clipitem-892" frameBlend="FALSE">
						<masterclipid>masterclip-230</masterclipid>
						<name>AA038001.MXF</name>
						<enabled>TRUE</enabled>
						<duration>372</duration>
						<rate>
							<timebase>25</timebase>
							<ntsc>FALSE</ntsc>
						</rate>
						<start>36508</start>
						<end>36569</end>
						<in>154</in>
						<out>215</out>
						<alphatype>none</alphatype>
						<pixelaspectratio>square</pixelaspectratio>
						<anamorphic>FALSE</anamorphic>
						<file id="file-206">
							<name>AA038001.MXF</name>
							<pathurl>file://localhost/Volumes/Brakka/AdobeLager/Katta/Katta-14xxxx-Smart_eller_overvaaket-Chris/02-Video/IBM%20C300/CONTENTS/CLIPS001/AA0380/AA038001.MXF</pathurl>
							<rate>
								<timebase>25</timebase>
								<ntsc>FALSE</ntsc>
							</rate>
							<duration>372</duration>
							<timecode>
								<rate>
									<timebase>25</timebase>
									<ntsc>FALSE</ntsc>
								</rate>
								<string>07:30:07:05</string>
								<frame>675180</frame>
								<displayformat>NDF</displayformat>
								<reel>
									<name></name>
								</reel>
							</timecode>
							<media>
								<video>
									<duration>18000</duration>
									<samplecharacteristics>
										<rate>
											<timebase>25</timebase>
											<ntsc>FALSE</ntsc>
										</rate>
										<width>1920</width>
										<height>1080</height>
										<anamorphic>FALSE</anamorphic>
										<pixelaspectratio>square</pixelaspectratio>
										<fielddominance>none</fielddominance>
									</samplecharacteristics>
								</video>
								<audio>
									<samplecharacteristics>
										<depth>16</depth>
										<samplerate>48000</samplerate>
									</samplecharacteristics>
									<channelcount>1</channelcount>
									<layout>mono</layout>
									<audiochannel>
										<sourcechannel>1</sourcechannel>
										<channellabel>discrete</channellabel>
									</audiochannel>
								</audio>
								<audio>
									<samplecharacteristics>
										<depth>16</depth>
										<samplerate>48000</samplerate>
									</samplecharacteristics>
									<channelcount>1</channelcount>
									<layout>mono</layout>
									<audiochannel>
										<sourcechannel>2</sourcechannel>
										<channellabel>discrete</channellabel>
									</audiochannel>
								</audio>
							</media>
						</file>
						<logginginfo>
							<description></description>
							<scene></scene>
							<shottake>AA0380</shottake>
							<lognote></lognote>
						</logginginfo>
						<labels>
							<label2>Iris</label2>
						</labels>
					</clipitem>
					<clipitem id="clipitem-893" frameBlend="FALSE">
						<masterclipid>masterclip-231</masterclipid>
						<name>AA037301.MXF</name>
						<enabled>TRUE</enabled>
						<duration>2796</duration>
						<rate>
							<timebase>25</timebase>
							<ntsc>FALSE</ntsc>
						</rate>
						<start>36569</start>
						<end>36681</end>
						<in>610</in>
						<out>722</out>
						<alphatype>none</alphatype>
						<pixelaspectratio>square</pixelaspectratio>
						<anamorphic>FALSE</anamorphic>
						<file id="file-207">
							<name>AA037301.MXF</name>
							<pathurl>file://localhost/Volumes/Brakka/AdobeLager/Katta/Katta-14xxxx-Smart_eller_overvaaket-Chris/02-Video/IBM%20C300/CONTENTS/CLIPS001/AA0373/AA037301.MXF</pathurl>
							<rate>
								<timebase>25</timebase>
								<ntsc>FALSE</ntsc>
							</rate>
							<duration>2796</duration>
							<timecode>
								<rate>
									<timebase>25</timebase>
									<ntsc>FALSE</ntsc>
								</rate>
								<string>07:26:20:04</string>
								<frame>669504</frame>
								<displayformat>NDF</displayformat>
								<reel>
									<name></name>
								</reel>
							</timecode>
							<media>
								<video>
									<duration>18000</duration>
									<samplecharacteristics>
										<rate>
											<timebase>25</timebase>
											<ntsc>FALSE</ntsc>
										</rate>
										<width>1920</width>
										<height>1080</height>
										<anamorphic>FALSE</anamorphic>
										<pixelaspectratio>square</pixelaspectratio>
										<fielddominance>none</fielddominance>
									</samplecharacteristics>
								</video>
								<audio>
									<samplecharacteristics>
										<depth>16</depth>
										<samplerate>48000</samplerate>
									</samplecharacteristics>
									<channelcount>1</channelcount>
									<layout>mono</layout>
									<audiochannel>
										<sourcechannel>1</sourcechannel>
										<channellabel>discrete</channellabel>
									</audiochannel>
								</audio>
								<audio>
									<samplecharacteristics>
										<depth>16</depth>
										<samplerate>48000</samplerate>
									</samplecharacteristics>
									<channelcount>1</channelcount>
									<layout>mono</layout>
									<audiochannel>
										<sourcechannel>2</sourcechannel>
										<channellabel>discrete</channellabel>
									</audiochannel>
								</audio>
							</media>
						</file>
						<logginginfo>
							<description></description>
							<scene></scene>
							<shottake>AA0373</shottake>
							<lognote></lognote>
						</logginginfo>
						<labels>
							<label2>Iris</label2>
						</labels>
					</clipitem>
					<clipitem id="clipitem-894" frameBlend="FALSE">
						<masterclipid>masterclip-232</masterclipid>
						<name>MVI_0382.MOVIBMulti</name>
						<enabled>TRUE</enabled>
						<duration>13702</duration>
						<rate>
							<timebase>25</timebase>
							<ntsc>FALSE</ntsc>
						</rate>
						<start>36681</start>
						<end>36989</end>
						<in>4769</in>
						<out>5077</out>
						<sequence id="sequence-99">
							<duration>150</duration>
							<rate>
								<timebase>25</timebase>
								<ntsc>FALSE</ntsc>
							</rate>
							<name>MVI_0382.MOVIBMulti-1</name>
							<media>
								<video>
									<format>
										<samplecharacteristics>
											<rate>
												<timebase>25</timebase>
												<ntsc>FALSE</ntsc>
											</rate>
											<codec>
												<name>Apple ProRes 422</name>
												<appspecificdata>
													<appname>Final Cut Pro</appname>
													<appmanufacturer>Apple Inc.</appmanufacturer>
													<appversion>7.0</appversion>
													<data>
														<qtcodec>
															<codecname>Apple ProRes 422</codecname>
															<codectypename>Apple ProRes 422</codectypename>
															<codectypecode>apcn</codectypecode>
															<codecvendorcode>appl</codecvendorcode>
															<spatialquality>1024</spatialquality>
															<temporalquality>0</temporalquality>
															<keyframerate>0</keyframerate>
															<datarate>0</datarate>
														</qtcodec>
													</data>
												</appspecificdata>
											</codec>
											<width>1920</width>
											<height>1080</height>
											<anamorphic>FALSE</anamorphic>
											<pixelaspectratio>square</pixelaspectratio>
											<fielddominance>none</fielddominance>
											<colordepth>24</colordepth>
										</samplecharacteristics>
									</format>
									<track TL.SQTrackShy="0" TL.SQTrackExpandedHeight="50" TL.SQTrackExpanded="1" MZ.TrackTargeted="0">
										<clipitem id="clipitem-896" frameBlend="FALSE">
											<masterclipid>masterclip-233</masterclipid>
											<name>MVI_0382.MOV</name>
											<enabled>TRUE</enabled>
											<duration>13479</duration>
											<rate>
												<timebase>25</timebase>
												<ntsc>FALSE</ntsc>
											</rate>
											<start>0</start>
											<end>13479</end>
											<in>0</in>
											<out>13479</out>
											<alphatype>black</alphatype>
											<file id="file-208"/>
											<logginginfo>
												<description></description>
												<scene></scene>
												<shottake></shottake>
												<lognote></lognote>
											</logginginfo>
											<labels>
												<label2>Iris</label2>
											</labels>
										</clipitem>
										<enabled>TRUE</enabled>
										<locked>FALSE</locked>
									</track>
								</video>
								<audio>
									<format>
										<samplecharacteristics>
											<depth>16</depth>
											<samplerate>48000</samplerate>
										</samplecharacteristics>
									</format>
									<outputs>
										<group>
											<index>1</index>
											<numchannels>1</numchannels>
											<downmix>0</downmix>
											<channel>
												<index>1</index>
											</channel>
										</group>
										<group>
											<index>2</index>
											<numchannels>1</numchannels>
											<downmix>0</downmix>
											<channel>
												<index>2</index>
											</channel>
										</group>
										<group>
											<index>3</index>
											<numchannels>1</numchannels>
											<downmix>0</downmix>
											<channel>
												<index>3</index>
											</channel>
										</group>
										<group>
											<index>4</index>
											<numchannels>1</numchannels>
											<downmix>0</downmix>
											<channel>
												<index>4</index>
											</channel>
										</group>
										<group>
											<index>5</index>
											<numchannels>1</numchannels>
											<downmix>0</downmix>
											<channel>
												<index>5</index>
											</channel>
										</group>
										<group>
											<index>6</index>
											<numchannels>1</numchannels>
											<downmix>0</downmix>
											<channel>
												<index>6</index>
											</channel>
										</group>
									</outputs>
									<track TL.SQTrackAudioKeyframeStyle="0" TL.SQTrackShy="0" TL.SQTrackExpandedHeight="25" TL.SQTrackExpanded="0" MZ.TrackTargeted="1" PannerCurrentValue="0" PannerIsInverted="true" PannerStartKeyframe="-91445760000000000,0.,0,0,0,0,0,0" PannerName="Balance" currentExplodedTrackIndex="0" totalExplodedTrackCount="1" premiereTrackType="Stereo">
										<clipitem id="clipitem-895" frameBlend="FALSE" PannerCurrentValue="0.5" PannerKeyframes="" PannerStartKeyframe="-91445760000000000,0.5,0,0,0,0,0,0" PannerIsInverted="true" PannerName="Pan">
											<masterclipid>masterclip-233</masterclipid>
											<name>MVI_0382.MOV</name>
											<enabled>TRUE</enabled>
											<duration>13479</duration>
											<rate>
												<timebase>25</timebase>
												<ntsc>FALSE</ntsc>
											</rate>
											<start>0</start>
											<end>13479</end>
											<in>0</in>
											<out>13479</out>
											<pixelaspectratio>square</pixelaspectratio>
											<anamorphic>FALSE</anamorphic>
											<file id="file-208">
												<name>MVI_0382.MOV</name>
												<pathurl>file://localhost/Volumes/Brakka/AdobeLager/Katta/Katta-14xxxx-Smart_eller_overvaaket-Chris/02-Video/IBM%205D/DCIM/100EOS5D/MVI_0382.MOV</pathurl>
												<rate>
													<timebase>25</timebase>
													<ntsc>FALSE</ntsc>
												</rate>
												<duration>13479</duration>
												<timecode>
													<rate>
														<timebase>25</timebase>
														<ntsc>FALSE</ntsc>
													</rate>
													<string>00:00:00:00</string>
													<frame>0</frame>
													<displayformat>NDF</displayformat>
													<reel>
														<name></name>
													</reel>
												</timecode>
												<media>
													<video>
														<duration>18000</duration>
														<samplecharacteristics>
															<rate>
																<timebase>25</timebase>
																<ntsc>FALSE</ntsc>
															</rate>
															<width>1920</width>
															<height>1080</height>
															<anamorphic>FALSE</anamorphic>
															<pixelaspectratio>square</pixelaspectratio>
															<fielddominance>none</fielddominance>
														</samplecharacteristics>
													</video>
													<audio>
														<samplecharacteristics>
															<depth>16</depth>
															<samplerate>48000</samplerate>
														</samplecharacteristics>
														<channelcount>1</channelcount>
														<layout>mono</layout>
														<audiochannel>
															<sourcechannel>1</sourcechannel>
															<channellabel>discrete</channellabel>
														</audiochannel>
													</audio>
													<audio>
														<samplecharacteristics>
															<depth>16</depth>
															<samplerate>48000</samplerate>
														</samplecharacteristics>
														<channelcount>1</channelcount>
														<layout>mono</layout>
														<audiochannel>
															<sourcechannel>2</sourcechannel>
															<channellabel>discrete</channellabel>
														</audiochannel>
													</audio>
												</media>
											</file>
											<sourcetrack>
												<mediatype>audio</mediatype>
												<trackindex>1</trackindex>
											</sourcetrack>
												<filter>
													<effect>
														<name>Audio Pan</name>
														<effectid>audiopan</effectid>
														<effectcategory>audiopan</effectcategory>
														<effecttype>audiopan</effecttype>
														<mediatype>audio</mediatype>
														<parameter authoringApp="PremierePro">
															<parameterid>pan</parameterid>
															<name>Pan</name>
															<valuemin>-1</valuemin>
															<valuemax>1</valuemax>
															<value>0</value>
														</parameter>
													</effect>
												</filter>
											<logginginfo>
												<description></description>
												<scene></scene>
												<shottake></shottake>
												<lognote></lognote>
											</logginginfo>
											<labels>
												<label2>Iris</label2>
											</labels>
										</clipitem>
										<enabled>TRUE</enabled>
										<locked>FALSE</locked>
										<outputchannelindex>1</outputchannelindex>
									</track>
								</audio>
							</media>
							<timecode>
								<rate>
									<timebase>25</timebase>
									<ntsc>FALSE</ntsc>
								</rate>
								<string>00:00:00:00</string>
								<frame>0</frame>
								<displayformat>NDF</displayformat>
							</timecode>
						</sequence>
						<labels>
							<label2>Forest</label2>
						</labels>
					</clipitem>
					<clipitem id="clipitem-902" frameBlend="FALSE">
						<masterclipid>masterclip-232</masterclipid>
						<name>MVI_0382.MOVIBMulti</name>
						<enabled>TRUE</enabled>
						<duration>13702</duration>
						<rate>
							<timebase>25</timebase>
							<ntsc>FALSE</ntsc>
						</rate>
						<start>36989</start>
						<end>37054</end>
						<in>6295</in>
						<out>6360</out>
						<sequence id="sequence-99"/>
						<labels>
							<label2>Forest</label2>
						</labels>
					</clipitem>
					<clipitem id="clipitem-903" frameBlend="FALSE">
						<masterclipid>masterclip-232</masterclipid>
						<name>MVI_0382.MOVIBMulti</name>
						<enabled>TRUE</enabled>
						<duration>13702</duration>
						<rate>
							<timebase>25</timebase>
							<ntsc>FALSE</ntsc>
						</rate>
						<start>37054</start>
						<end>37307</end>
						<in>6360</in>
						<out>6613</out>
						<sequence id="sequence-101">
							<duration>150</duration>
							<rate>
								<timebase>25</timebase>
								<ntsc>FALSE</ntsc>
							</rate>
							<name>MVI_0382.MOVIBMulti-3</name>
							<media>
								<video>
									<format>
										<samplecharacteristics>
											<rate>
												<timebase>25</timebase>
												<ntsc>FALSE</ntsc>
											</rate>
											<codec>
												<name>Apple ProRes 422</name>
												<appspecificdata>
													<appname>Final Cut Pro</appname>
													<appmanufacturer>Apple Inc.</appmanufacturer>
													<appversion>7.0</appversion>
													<data>
														<qtcodec>
															<codecname>Apple ProRes 422</codecname>
															<codectypename>Apple ProRes 422</codectypename>
															<codectypecode>apcn</codectypecode>
															<codecvendorcode>appl</codecvendorcode>
															<spatialquality>1024</spatialquality>
															<temporalquality>0</temporalquality>
															<keyframerate>0</keyframerate>
															<datarate>0</datarate>
														</qtcodec>
													</data>
												</appspecificdata>
											</codec>
											<width>1920</width>
											<height>1080</height>
											<anamorphic>FALSE</anamorphic>
											<pixelaspectratio>square</pixelaspectratio>
											<fielddominance>none</fielddominance>
											<colordepth>24</colordepth>
										</samplecharacteristics>
									</format>
									<track TL.SQTrackShy="0" TL.SQTrackExpandedHeight="25" TL.SQTrackExpanded="0" MZ.TrackTargeted="0">
										<clipitem id="clipitem-900" frameBlend="FALSE">
											<masterclipid>masterclip-235</masterclipid>
											<name>AA037201.MXF</name>
											<enabled>TRUE</enabled>
											<duration>9048</duration>
											<rate>
												<timebase>25</timebase>
												<ntsc>FALSE</ntsc>
											</rate>
											<start>4654</start>
											<end>13702</end>
											<in>0</in>
											<out>9048</out>
											<alphatype>none</alphatype>
											<pixelaspectratio>square</pixelaspectratio>
											<anamorphic>FALSE</anamorphic>
											<file id="file-210">
												<name>AA037201.MXF</name>
												<pathurl>file://localhost/Volumes/Brakka/AdobeLager/Katta/Katta-14xxxx-Smart_eller_overvaaket-Chris/02-Video/IBM%20C300/CONTENTS/CLIPS001/AA0372/AA037201.MXF</pathurl>
												<rate>
													<timebase>25</timebase>
													<ntsc>FALSE</ntsc>
												</rate>
												<duration>9048</duration>
												<timecode>
													<rate>
														<timebase>25</timebase>
														<ntsc>FALSE</ntsc>
													</rate>
													<string>07:20:18:06</string>
													<frame>660456</frame>
													<displayformat>NDF</displayformat>
													<reel>
														<name></name>
													</reel>
												</timecode>
												<media>
													<video>
														<duration>18000</duration>
														<samplecharacteristics>
															<rate>
																<timebase>25</timebase>
																<ntsc>FALSE</ntsc>
															</rate>
															<width>1920</width>
															<height>1080</height>
															<anamorphic>FALSE</anamorphic>
															<pixelaspectratio>square</pixelaspectratio>
															<fielddominance>none</fielddominance>
														</samplecharacteristics>
													</video>
													<audio>
														<samplecharacteristics>
															<depth>16</depth>
															<samplerate>48000</samplerate>
														</samplecharacteristics>
														<channelcount>1</channelcount>
														<layout>mono</layout>
														<audiochannel>
															<sourcechannel>1</sourcechannel>
															<channellabel>discrete</channellabel>
														</audiochannel>
													</audio>
													<audio>
														<samplecharacteristics>
															<depth>16</depth>
															<samplerate>48000</samplerate>
														</samplecharacteristics>
														<channelcount>1</channelcount>
														<layout>mono</layout>
														<audiochannel>
															<sourcechannel>2</sourcechannel>
															<channellabel>discrete</channellabel>
														</audiochannel>
													</audio>
												</media>
											</file>
											<logginginfo>
												<description></description>
												<scene></scene>
												<shottake>AA0372</shottake>
												<lognote></lognote>
											</logginginfo>
											<labels>
												<label2>Iris</label2>
											</labels>
										</clipitem>
										<enabled>TRUE</enabled>
										<locked>FALSE</locked>
									</track>
								</video>
								<audio>
									<format>
										<samplecharacteristics>
											<depth>16</depth>
											<samplerate>48000</samplerate>
										</samplecharacteristics>
									</format>
									<outputs>
										<group>
											<index>1</index>
											<numchannels>1</numchannels>
											<downmix>0</downmix>
											<channel>
												<index>1</index>
											</channel>
										</group>
										<group>
											<index>2</index>
											<numchannels>1</numchannels>
											<downmix>0</downmix>
											<channel>
												<index>2</index>
											</channel>
										</group>
										<group>
											<index>3</index>
											<numchannels>1</numchannels>
											<downmix>0</downmix>
											<channel>
												<index>3</index>
											</channel>
										</group>
										<group>
											<index>4</index>
											<numchannels>1</numchannels>
											<downmix>0</downmix>
											<channel>
												<index>4</index>
											</channel>
										</group>
										<group>
											<index>5</index>
											<numchannels>1</numchannels>
											<downmix>0</downmix>
											<channel>
												<index>5</index>
											</channel>
										</group>
										<group>
											<index>6</index>
											<numchannels>1</numchannels>
											<downmix>0</downmix>
											<channel>
												<index>6</index>
											</channel>
										</group>
									</outputs>
									<track TL.SQTrackAudioKeyframeStyle="0" TL.SQTrackShy="0" TL.SQTrackExpandedHeight="57" TL.SQTrackExpanded="1" MZ.TrackTargeted="1" PannerCurrentValue="0" PannerIsInverted="true" PannerStartKeyframe="-91445760000000000,0.,0,0,0,0,0,0" PannerName="Balance" currentExplodedTrackIndex="0" totalExplodedTrackCount="1" premiereTrackType="Stereo">
										<clipitem id="clipitem-899" frameBlend="FALSE" PannerCurrentValue="0.5" PannerKeyframes="" PannerStartKeyframe="-91445760000000000,0.5,0,0,0,0,0,0" PannerIsInverted="true" PannerName="Pan">
											<masterclipid>masterclip-234</masterclipid>
											<name>AA037101.MXF</name>
											<enabled>TRUE</enabled>
											<duration>2676</duration>
											<rate>
												<timebase>25</timebase>
												<ntsc>FALSE</ntsc>
											</rate>
											<start>1715</start>
											<end>4391</end>
											<in>0</in>
											<out>2676</out>
											<file id="file-209"/>
											<sourcetrack>
												<mediatype>audio</mediatype>
												<trackindex>1</trackindex>
											</sourcetrack>
												<filter>
													<effect>
														<name>Audio Pan</name>
														<effectid>audiopan</effectid>
														<effectcategory>audiopan</effectcategory>
														<effecttype>audiopan</effecttype>
														<mediatype>audio</mediatype>
														<parameter authoringApp="PremierePro">
															<parameterid>pan</parameterid>
															<name>Pan</name>
															<valuemin>-1</valuemin>
															<valuemax>1</valuemax>
															<value>0</value>
														</parameter>
													</effect>
												</filter>
											<logginginfo>
												<description></description>
												<scene></scene>
												<shottake>AA0371</shottake>
												<lognote></lognote>
											</logginginfo>
											<labels>
												<label2>Iris</label2>
											</labels>
										</clipitem>
										<enabled>TRUE</enabled>
										<locked>FALSE</locked>
										<outputchannelindex>3</outputchannelindex>
									</track>
								</audio>
							</media>
							<timecode>
								<rate>
									<timebase>25</timebase>
									<ntsc>FALSE</ntsc>
								</rate>
								<string>00:00:00:00</string>
								<frame>0</frame>
								<displayformat>NDF</displayformat>
							</timecode>
						</sequence>
						<labels>
							<label2>Forest</label2>
						</labels>
					</clipitem>
					<clipitem id="clipitem-904" frameBlend="FALSE">
						<masterclipid>masterclip-232</masterclipid>
						<name>MVI_0382.MOVIBMulti</name>
						<enabled>TRUE</enabled>
						<duration>13702</duration>
						<rate>
							<timebase>25</timebase>
							<ntsc>FALSE</ntsc>
						</rate>
						<start>37307</start>
						<end>37426</end>
						<in>6613</in>
						<out>6732</out>
						<sequence id="sequence-99"/>
						<labels>
							<label2>Forest</label2>
						</labels>
					</clipitem>
					<clipitem id="clipitem-905" frameBlend="FALSE">
						<masterclipid>masterclip-232</masterclipid>
						<name>MVI_0382.MOVIBMulti</name>
						<enabled>TRUE</enabled>
						<duration>13702</duration>
						<rate>
							<timebase>25</timebase>
							<ntsc>FALSE</ntsc>
						</rate>
						<start>37426</start>
						<end>37497</end>
						<in>6732</in>
						<out>6803</out>
						<sequence id="sequence-101"/>
						<labels>
							<label2>Forest</label2>
						</labels>
					</clipitem>
					<clipitem id="clipitem-906" frameBlend="FALSE">
						<masterclipid>masterclip-232</masterclipid>
						<name>MVI_0382.MOVIBMulti</name>
						<enabled>TRUE</enabled>
						<duration>13702</duration>
						<rate>
							<timebase>25</timebase>
							<ntsc>FALSE</ntsc>
						</rate>
						<start>37497</start>
						<end>37549</end>
						<in>6803</in>
						<out>6855</out>
						<sequence id="sequence-99"/>
						<labels>
							<label2>Forest</label2>
						</labels>
					</clipitem>
					<clipitem id="clipitem-907" frameBlend="FALSE">
						<masterclipid>masterclip-236</masterclipid>
						<name>MVI_0379.MOVIBMulti</name>
						<enabled>TRUE</enabled>
						<duration>11962</duration>
						<rate>
							<timebase>25</timebase>
							<ntsc>FALSE</ntsc>
						</rate>
						<start>37549</start>
						<end>37592</end>
						<in>876</in>
						<out>919</out>
						<sequence id="sequence-104">
							<duration>150</duration>
							<rate>
								<timebase>25</timebase>
								<ntsc>FALSE</ntsc>
							</rate>
							<name>MVI_0379.MOVIBMulti-2</name>
							<media>
								<video>
									<format>
										<samplecharacteristics>
											<rate>
												<timebase>25</timebase>
												<ntsc>FALSE</ntsc>
											</rate>
											<codec>
												<name>Apple ProRes 422</name>
												<appspecificdata>
													<appname>Final Cut Pro</appname>
													<appmanufacturer>Apple Inc.</appmanufacturer>
													<appversion>7.0</appversion>
													<data>
														<qtcodec>
															<codecname>Apple ProRes 422</codecname>
															<codectypename>Apple ProRes 422</codectypename>
															<codectypecode>apcn</codectypecode>
															<codecvendorcode>appl</codecvendorcode>
															<spatialquality>1024</spatialquality>
															<temporalquality>0</temporalquality>
															<keyframerate>0</keyframerate>
															<datarate>0</datarate>
														</qtcodec>
													</data>
												</appspecificdata>
											</codec>
											<width>1920</width>
											<height>1080</height>
											<anamorphic>FALSE</anamorphic>
											<pixelaspectratio>square</pixelaspectratio>
											<fielddominance>none</fielddominance>
											<colordepth>24</colordepth>
										</samplecharacteristics>
									</format>
									<track TL.SQTrackShy="0" TL.SQTrackExpandedHeight="25" TL.SQTrackExpanded="0" MZ.TrackTargeted="1">
										<clipitem id="clipitem-911" frameBlend="FALSE">
											<masterclipid>masterclip-238</masterclipid>
											<name>AA036701.MXF</name>
											<enabled>TRUE</enabled>
											<duration>4740</duration>
											<rate>
												<timebase>25</timebase>
												<ntsc>FALSE</ntsc>
											</rate>
											<start>0</start>
											<end>4615</end>
											<in>125</in>
											<out>4740</out>
											<alphatype>none</alphatype>
											<pixelaspectratio>square</pixelaspectratio>
											<anamorphic>FALSE</anamorphic>
											<file id="file-212">
												<name>AA036701.MXF</name>
												<pathurl>file://localhost/Volumes/Brakka/AdobeLager/Katta/Katta-14xxxx-Smart_eller_overvaaket-Chris/02-Video/IBM%20C300/CONTENTS/CLIPS001/AA0367/AA036701.MXF</pathurl>
												<rate>
													<timebase>25</timebase>
													<ntsc>FALSE</ntsc>
												</rate>
												<duration>4740</duration>
												<timecode>
													<rate>
														<timebase>25</timebase>
														<ntsc>FALSE</ntsc>
													</rate>
													<string>07:09:51:21</string>
													<frame>644796</frame>
													<displayformat>NDF</displayformat>
													<reel>
														<name></name>
													</reel>
												</timecode>
												<media>
													<video>
														<duration>18000</duration>
														<samplecharacteristics>
															<rate>
																<timebase>25</timebase>
																<ntsc>FALSE</ntsc>
															</rate>
															<width>1920</width>
															<height>1080</height>
															<anamorphic>FALSE</anamorphic>
															<pixelaspectratio>square</pixelaspectratio>
															<fielddominance>none</fielddominance>
														</samplecharacteristics>
													</video>
													<audio>
														<samplecharacteristics>
															<depth>16</depth>
															<samplerate>48000</samplerate>
														</samplecharacteristics>
														<channelcount>1</channelcount>
														<layout>mono</layout>
														<audiochannel>
															<sourcechannel>1</sourcechannel>
															<channellabel>discrete</channellabel>
														</audiochannel>
													</audio>
													<audio>
														<samplecharacteristics>
															<depth>16</depth>
															<samplerate>48000</samplerate>
														</samplecharacteristics>
														<channelcount>1</channelcount>
														<layout>mono</layout>
														<audiochannel>
															<sourcechannel>2</sourcechannel>
															<channellabel>discrete</channellabel>
														</audiochannel>
													</audio>
												</media>
											</file>
											<logginginfo>
												<description></description>
												<scene></scene>
												<shottake>AA0367</shottake>
												<lognote></lognote>
											</logginginfo>
											<labels>
												<label2>Iris</label2>
											</labels>
										</clipitem>
										<enabled>TRUE</enabled>
										<locked>FALSE</locked>
									</track>
								</video>
								<audio>
									<format>
										<samplecharacteristics>
											<depth>16</depth>
											<samplerate>48000</samplerate>
										</samplecharacteristics>
									</format>
									<outputs>
										<group>
											<index>1</index>
											<numchannels>1</numchannels>
											<downmix>0</downmix>
											<channel>
												<index>1</index>
											</channel>
										</group>
										<group>
											<index>2</index>
											<numchannels>1</numchannels>
											<downmix>0</downmix>
											<channel>
												<index>2</index>
											</channel>
										</group>
										<group>
											<index>3</index>
											<numchannels>1</numchannels>
											<downmix>0</downmix>
											<channel>
												<index>3</index>
											</channel>
										</group>
										<group>
											<index>4</index>
											<numchannels>1</numchannels>
											<downmix>0</downmix>
											<channel>
												<index>4</index>
											</channel>
										</group>
										<group>
											<index>5</index>
											<numchannels>1</numchannels>
											<downmix>0</downmix>
											<channel>
												<index>5</index>
											</channel>
										</group>
										<group>
											<index>6</index>
											<numchannels>1</numchannels>
											<downmix>0</downmix>
											<channel>
												<index>6</index>
											</channel>
										</group>
									</outputs>
									<track TL.SQTrackAudioKeyframeStyle="0" TL.SQTrackShy="0" TL.SQTrackExpandedHeight="63" TL.SQTrackExpanded="1" MZ.TrackTargeted="1" PannerCurrentValue="1." PannerIsInverted="true" PannerStartKeyframe="-91445760000000000,1.,0,0,0,0,0,0" PannerName="Balance" currentExplodedTrackIndex="0" totalExplodedTrackCount="1" premiereTrackType="Stereo">
										<clipitem id="clipitem-910" frameBlend="FALSE" PannerCurrentValue="0.5" PannerKeyframes="" PannerStartKeyframe="-91445760000000000,0.5,0,0,0,0,0,0" PannerIsInverted="true" PannerName="Pan">
											<masterclipid>masterclip-237</masterclipid>
											<name>MVI_0379.MOV</name>
											<enabled>TRUE</enabled>
											<duration>11864</duration>
											<rate>
												<timebase>25</timebase>
												<ntsc>FALSE</ntsc>
											</rate>
											<start>0</start>
											<end>11864</end>
											<in>0</in>
											<out>11864</out>
											<file id="file-211"/>
											<sourcetrack>
												<mediatype>audio</mediatype>
												<trackindex>2</trackindex>
											</sourcetrack>
												<filter>
													<effect>
														<name>Audio Pan</name>
														<effectid>audiopan</effectid>
														<effectcategory>audiopan</effectcategory>
														<effecttype>audiopan</effecttype>
														<mediatype>audio</mediatype>
														<parameter authoringApp="PremierePro">
															<parameterid>pan</parameterid>
															<name>Pan</name>
															<valuemin>-1</valuemin>
															<valuemax>1</valuemax>
															<value>0</value>
														</parameter>
													</effect>
												</filter>
											<logginginfo>
												<description></description>
												<scene></scene>
												<shottake></shottake>
												<lognote></lognote>
											</logginginfo>
											<labels>
												<label2>Iris</label2>
											</labels>
										</clipitem>
										<enabled>TRUE</enabled>
										<locked>FALSE</locked>
										<outputchannelindex>1</outputchannelindex>
									</track>
								</audio>
							</media>
							<timecode>
								<rate>
									<timebase>25</timebase>
									<ntsc>FALSE</ntsc>
								</rate>
								<string>00:00:00:00</string>
								<frame>0</frame>
								<displayformat>NDF</displayformat>
							</timecode>
						</sequence>
							<marker>
								<comment>test 3</comment>
								<name></name>
								<in>6992</in>
								<out>-1</out>
							</marker>
						<labels>
							<label2>Forest</label2>
						</labels>
					</clipitem>
					<clipitem id="clipitem-915" frameBlend="FALSE">
						<masterclipid>masterclip-236</masterclipid>
						<name>MVI_0379.MOVIBMulti</name>
						<enabled>TRUE</enabled>
						<duration>11962</duration>
						<rate>
							<timebase>25</timebase>
							<ntsc>FALSE</ntsc>
						</rate>
						<start>37592</start>
						<end>37930</end>
						<in>5428</in>
						<out>5766</out>
						<sequence id="sequence-105">
							<duration>150</duration>
							<rate>
								<timebase>25</timebase>
								<ntsc>FALSE</ntsc>
							</rate>
							<name>MVI_0379.MOVIBMulti-3</name>
							<media>
								<video>
									<format>
										<samplecharacteristics>
											<rate>
												<timebase>25</timebase>
												<ntsc>FALSE</ntsc>
											</rate>
											<codec>
												<name>Apple ProRes 422</name>
												<appspecificdata>
													<appname>Final Cut Pro</appname>
													<appmanufacturer>Apple Inc.</appmanufacturer>
													<appversion>7.0</appversion>
													<data>
														<qtcodec>
															<codecname>Apple ProRes 422</codecname>
															<codectypename>Apple ProRes 422</codectypename>
															<codectypecode>apcn</codectypecode>
															<codecvendorcode>appl</codecvendorcode>
															<spatialquality>1024</spatialquality>
															<temporalquality>0</temporalquality>
															<keyframerate>0</keyframerate>
															<datarate>0</datarate>
														</qtcodec>
													</data>
												</appspecificdata>
											</codec>
											<width>1920</width>
											<height>1080</height>
											<anamorphic>FALSE</anamorphic>
											<pixelaspectratio>square</pixelaspectratio>
											<fielddominance>none</fielddominance>
											<colordepth>24</colordepth>
										</samplecharacteristics>
									</format>
									<track TL.SQTrackShy="0" TL.SQTrackExpandedHeight="25" TL.SQTrackExpanded="0" MZ.TrackTargeted="1">
										<clipitem id="clipitem-913" frameBlend="FALSE">
											<masterclipid>masterclip-239</masterclipid>
											<name>AA036801.MXF</name>
											<enabled>TRUE</enabled>
											<duration>7176</duration>
											<rate>
												<timebase>25</timebase>
												<ntsc>FALSE</ntsc>
											</rate>
											<start>4786</start>
											<end>11962</end>
											<in>0</in>
											<out>7176</out>
											<alphatype>none</alphatype>
											<pixelaspectratio>square</pixelaspectratio>
											<anamorphic>FALSE</anamorphic>
											<file id="file-213">
												<name>AA036801.MXF</name>
												<pathurl>file://localhost/Volumes/Brakka/AdobeLager/Katta/Katta-14xxxx-Smart_eller_overvaaket-Chris/02-Video/IBM%20C300/CONTENTS/CLIPS001/AA0368/AA036801.MXF</pathurl>
												<rate>
													<timebase>25</timebase>
													<ntsc>FALSE</ntsc>
												</rate>
												<duration>7176</duration>
												<timecode>
													<rate>
														<timebase>25</timebase>
														<ntsc>FALSE</ntsc>
													</rate>
													<string>07:13:01:11</string>
													<frame>649536</frame>
													<displayformat>NDF</displayformat>
													<reel>
														<name></name>
													</reel>
												</timecode>
												<media>
													<video>
														<duration>18000</duration>
														<samplecharacteristics>
															<rate>
																<timebase>25</timebase>
																<ntsc>FALSE</ntsc>
															</rate>
															<width>1920</width>
															<height>1080</height>
															<anamorphic>FALSE</anamorphic>
															<pixelaspectratio>square</pixelaspectratio>
															<fielddominance>none</fielddominance>
														</samplecharacteristics>
													</video>
													<audio>
														<samplecharacteristics>
															<depth>16</depth>
															<samplerate>48000</samplerate>
														</samplecharacteristics>
														<channelcount>1</channelcount>
														<layout>mono</layout>
														<audiochannel>
															<sourcechannel>1</sourcechannel>
															<channellabel>discrete</channellabel>
														</audiochannel>
													</audio>
													<audio>
														<samplecharacteristics>
															<depth>16</depth>
															<samplerate>48000</samplerate>
														</samplecharacteristics>
														<channelcount>1</channelcount>
														<layout>mono</layout>
														<audiochannel>
															<sourcechannel>2</sourcechannel>
															<channellabel>discrete</channellabel>
														</audiochannel>
													</audio>
												</media>
											</file>
											<logginginfo>
												<description></description>
												<scene></scene>
												<shottake>AA0368</shottake>
												<lognote></lognote>
											</logginginfo>
											<labels>
												<label2>Iris</label2>
											</labels>
										</clipitem>
										<enabled>TRUE</enabled>
										<locked>FALSE</locked>
									</track>
								</video>
								<audio>
									<format>
										<samplecharacteristics>
											<depth>16</depth>
											<samplerate>48000</samplerate>
										</samplecharacteristics>
									</format>
									<outputs>
										<group>
											<index>1</index>
											<numchannels>1</numchannels>
											<downmix>0</downmix>
											<channel>
												<index>1</index>
											</channel>
										</group>
										<group>
											<index>2</index>
											<numchannels>1</numchannels>
											<downmix>0</downmix>
											<channel>
												<index>2</index>
											</channel>
										</group>
										<group>
											<index>3</index>
											<numchannels>1</numchannels>
											<downmix>0</downmix>
											<channel>
												<index>3</index>
											</channel>
										</group>
										<group>
											<index>4</index>
											<numchannels>1</numchannels>
											<downmix>0</downmix>
											<channel>
												<index>4</index>
											</channel>
										</group>
										<group>
											<index>5</index>
											<numchannels>1</numchannels>
											<downmix>0</downmix>
											<channel>
												<index>5</index>
											</channel>
										</group>
										<group>
											<index>6</index>
											<numchannels>1</numchannels>
											<downmix>0</downmix>
											<channel>
												<index>6</index>
											</channel>
										</group>
									</outputs>
									<track TL.SQTrackAudioKeyframeStyle="0" TL.SQTrackShy="0" TL.SQTrackExpandedHeight="46" TL.SQTrackExpanded="1" MZ.TrackTargeted="1" PannerCurrentValue="0" PannerIsInverted="true" PannerStartKeyframe="-91445760000000000,0.,0,0,0,0,0,0" PannerName="Balance" currentExplodedTrackIndex="0" totalExplodedTrackCount="1" premiereTrackType="Stereo">
										<clipitem id="clipitem-912" frameBlend="FALSE" PannerCurrentValue="0.5" PannerKeyframes="" PannerStartKeyframe="-91445760000000000,0.5,0,0,0,0,0,0" PannerIsInverted="true" PannerName="Pan">
											<masterclipid>masterclip-238</masterclipid>
											<name>AA036701.MXF</name>
											<enabled>TRUE</enabled>
											<duration>4740</duration>
											<rate>
												<timebase>25</timebase>
												<ntsc>FALSE</ntsc>
											</rate>
											<start>0</start>
											<end>4615</end>
											<in>125</in>
											<out>4740</out>
											<file id="file-212"/>
											<sourcetrack>
												<mediatype>audio</mediatype>
												<trackindex>1</trackindex>
											</sourcetrack>
												<filter>
													<effect>
														<name>Audio Pan</name>
														<effectid>audiopan</effectid>
														<effectcategory>audiopan</effectcategory>
														<effecttype>audiopan</effecttype>
														<mediatype>audio</mediatype>
														<parameter authoringApp="PremierePro">
															<parameterid>pan</parameterid>
															<name>Pan</name>
															<valuemin>-1</valuemin>
															<valuemax>1</valuemax>
															<value>0</value>
														</parameter>
													</effect>
												</filter>
											<logginginfo>
												<description></description>
												<scene></scene>
												<shottake>AA0367</shottake>
												<lognote></lognote>
											</logginginfo>
											<labels>
												<label2>Iris</label2>
											</labels>
										</clipitem>
										<enabled>TRUE</enabled>
										<locked>FALSE</locked>
										<outputchannelindex>3</outputchannelindex>
									</track>
								</audio>
							</media>
							<timecode>
								<rate>
									<timebase>25</timebase>
									<ntsc>FALSE</ntsc>
								</rate>
								<string>00:00:00:00</string>
								<frame>0</frame>
								<displayformat>NDF</displayformat>
							</timecode>
						</sequence>
							<marker>
								<comment>test 3</comment>
								<name></name>
								<in>6992</in>
								<out>-1</out>
							</marker>
						<labels>
							<label2>Forest</label2>
						</labels>
					</clipitem>
					<clipitem id="clipitem-916" frameBlend="FALSE">
						<masterclipid>masterclip-236</masterclipid>
						<name>MVI_0379.MOVIBMulti</name>
						<enabled>TRUE</enabled>
						<duration>11962</duration>
						<rate>
							<timebase>25</timebase>
							<ntsc>FALSE</ntsc>
						</rate>
						<start>37930</start>
						<end>38003</end>
						<in>5881</in>
						<out>5954</out>
						<sequence id="sequence-103">
							<duration>150</duration>
							<rate>
								<timebase>25</timebase>
								<ntsc>FALSE</ntsc>
							</rate>
							<name>MVI_0379.MOVIBMulti-1</name>
							<media>
								<video>
									<format>
										<samplecharacteristics>
											<rate>
												<timebase>25</timebase>
												<ntsc>FALSE</ntsc>
											</rate>
											<codec>
												<name>Apple ProRes 422</name>
												<appspecificdata>
													<appname>Final Cut Pro</appname>
													<appmanufacturer>Apple Inc.</appmanufacturer>
													<appversion>7.0</appversion>
													<data>
														<qtcodec>
															<codecname>Apple ProRes 422</codecname>
															<codectypename>Apple ProRes 422</codectypename>
															<codectypecode>apcn</codectypecode>
															<codecvendorcode>appl</codecvendorcode>
															<spatialquality>1024</spatialquality>
															<temporalquality>0</temporalquality>
															<keyframerate>0</keyframerate>
															<datarate>0</datarate>
														</qtcodec>
													</data>
												</appspecificdata>
											</codec>
											<width>1920</width>
											<height>1080</height>
											<anamorphic>FALSE</anamorphic>
											<pixelaspectratio>square</pixelaspectratio>
											<fielddominance>none</fielddominance>
											<colordepth>24</colordepth>
										</samplecharacteristics>
									</format>
									<track TL.SQTrackShy="0" TL.SQTrackExpandedHeight="50" TL.SQTrackExpanded="1" MZ.TrackTargeted="1">
										<clipitem id="clipitem-909" frameBlend="FALSE">
											<masterclipid>masterclip-237</masterclipid>
											<name>MVI_0379.MOV</name>
											<enabled>TRUE</enabled>
											<duration>11864</duration>
											<rate>
												<timebase>25</timebase>
												<ntsc>FALSE</ntsc>
											</rate>
											<start>0</start>
											<end>11864</end>
											<in>0</in>
											<out>11864</out>
											<alphatype>black</alphatype>
											<file id="file-211"/>
											<logginginfo>
												<description></description>
												<scene></scene>
												<shottake></shottake>
												<lognote></lognote>
											</logginginfo>
											<labels>
												<label2>Iris</label2>
											</labels>
										</clipitem>
										<enabled>TRUE</enabled>
										<locked>FALSE</locked>
									</track>
								</video>
								<audio>
									<format>
										<samplecharacteristics>
											<depth>16</depth>
											<samplerate>48000</samplerate>
										</samplecharacteristics>
									</format>
									<outputs>
										<group>
											<index>1</index>
											<numchannels>1</numchannels>
											<downmix>0</downmix>
											<channel>
												<index>1</index>
											</channel>
										</group>
										<group>
											<index>2</index>
											<numchannels>1</numchannels>
											<downmix>0</downmix>
											<channel>
												<index>2</index>
											</channel>
										</group>
										<group>
											<index>3</index>
											<numchannels>1</numchannels>
											<downmix>0</downmix>
											<channel>
												<index>3</index>
											</channel>
										</group>
										<group>
											<index>4</index>
											<numchannels>1</numchannels>
											<downmix>0</downmix>
											<channel>
												<index>4</index>
											</channel>
										</group>
										<group>
											<index>5</index>
											<numchannels>1</numchannels>
											<downmix>0</downmix>
											<channel>
												<index>5</index>
											</channel>
										</group>
										<group>
											<index>6</index>
											<numchannels>1</numchannels>
											<downmix>0</downmix>
											<channel>
												<index>6</index>
											</channel>
										</group>
									</outputs>
									<track TL.SQTrackAudioKeyframeStyle="0" TL.SQTrackShy="0" TL.SQTrackExpandedHeight="67" TL.SQTrackExpanded="1" MZ.TrackTargeted="1" PannerCurrentValue="0" PannerIsInverted="true" PannerStartKeyframe="-91445760000000000,0.,0,0,0,0,0,0" PannerName="Balance" currentExplodedTrackIndex="0" totalExplodedTrackCount="1" premiereTrackType="Stereo">
										<clipitem id="clipitem-908" frameBlend="FALSE" PannerCurrentValue="0.5" PannerKeyframes="" PannerStartKeyframe="-91445760000000000,0.5,0,0,0,0,0,0" PannerIsInverted="true" PannerName="Pan">
											<masterclipid>masterclip-237</masterclipid>
											<name>MVI_0379.MOV</name>
											<enabled>TRUE</enabled>
											<duration>11864</duration>
											<rate>
												<timebase>25</timebase>
												<ntsc>FALSE</ntsc>
											</rate>
											<start>0</start>
											<end>11864</end>
											<in>0</in>
											<out>11864</out>
											<pixelaspectratio>square</pixelaspectratio>
											<anamorphic>FALSE</anamorphic>
											<file id="file-211">
												<name>MVI_0379.MOV</name>
												<pathurl>file://localhost/Volumes/Brakka/AdobeLager/Katta/Katta-14xxxx-Smart_eller_overvaaket-Chris/02-Video/IBM%205D/DCIM/100EOS5D/MVI_0379.MOV</pathurl>
												<rate>
													<timebase>25</timebase>
													<ntsc>FALSE</ntsc>
												</rate>
												<duration>11864</duration>
												<timecode>
													<rate>
														<timebase>25</timebase>
														<ntsc>FALSE</ntsc>
													</rate>
													<string>00:00:00:00</string>
													<frame>0</frame>
													<displayformat>NDF</displayformat>
													<reel>
														<name></name>
													</reel>
												</timecode>
												<media>
													<video>
														<duration>18000</duration>
														<samplecharacteristics>
															<rate>
																<timebase>25</timebase>
																<ntsc>FALSE</ntsc>
															</rate>
															<width>1920</width>
															<height>1080</height>
															<anamorphic>FALSE</anamorphic>
															<pixelaspectratio>square</pixelaspectratio>
															<fielddominance>none</fielddominance>
														</samplecharacteristics>
													</video>
													<audio>
														<samplecharacteristics>
															<depth>16</depth>
															<samplerate>48000</samplerate>
														</samplecharacteristics>
														<channelcount>1</channelcount>
														<layout>mono</layout>
														<audiochannel>
															<sourcechannel>1</sourcechannel>
															<channellabel>discrete</channellabel>
														</audiochannel>
													</audio>
													<audio>
														<samplecharacteristics>
															<depth>16</depth>
															<samplerate>48000</samplerate>
														</samplecharacteristics>
														<channelcount>1</channelcount>
														<layout>mono</layout>
														<audiochannel>
															<sourcechannel>2</sourcechannel>
															<channellabel>discrete</channellabel>
														</audiochannel>
													</audio>
												</media>
											</file>
											<sourcetrack>
												<mediatype>audio</mediatype>
												<trackindex>1</trackindex>
											</sourcetrack>
												<filter>
													<effect>
														<name>Audio Pan</name>
														<effectid>audiopan</effectid>
														<effectcategory>audiopan</effectcategory>
														<effecttype>audiopan</effecttype>
														<mediatype>audio</mediatype>
														<parameter authoringApp="PremierePro">
															<parameterid>pan</parameterid>
															<name>Pan</name>
															<valuemin>-1</valuemin>
															<valuemax>1</valuemax>
															<value>0</value>
														</parameter>
													</effect>
												</filter>
											<logginginfo>
												<description></description>
												<scene></scene>
												<shottake></shottake>
												<lognote></lognote>
											</logginginfo>
											<labels>
												<label2>Iris</label2>
											</labels>
										</clipitem>
										<enabled>TRUE</enabled>
										<locked>FALSE</locked>
										<outputchannelindex>1</outputchannelindex>
									</track>
								</audio>
							</media>
							<timecode>
								<rate>
									<timebase>25</timebase>
									<ntsc>FALSE</ntsc>
								</rate>
								<string>00:00:00:00</string>
								<frame>0</frame>
								<displayformat>NDF</displayformat>
							</timecode>
						</sequence>
							<marker>
								<comment>test 3</comment>
								<name></name>
								<in>6992</in>
								<out>-1</out>
							</marker>
						<labels>
							<label2>Forest</label2>
						</labels>
					</clipitem>
					<clipitem id="clipitem-917" frameBlend="FALSE">
						<masterclipid>masterclip-236</masterclipid>
						<name>MVI_0379.MOVIBMulti</name>
						<enabled>TRUE</enabled>
						<duration>11962</duration>
						<rate>
							<timebase>25</timebase>
							<ntsc>FALSE</ntsc>
						</rate>
						<start>38003</start>
						<end>38079</end>
						<in>6000</in>
						<out>6076</out>
						<sequence id="sequence-105"/>
							<marker>
								<comment>test 3</comment>
								<name></name>
								<in>6992</in>
								<out>-1</out>
							</marker>
						<labels>
							<label2>Forest</label2>
						</labels>
					</clipitem>
					<clipitem id="clipitem-918" frameBlend="FALSE">
						<masterclipid>masterclip-236</masterclipid>
						<name>MVI_0379.MOVIBMulti</name>
						<enabled>TRUE</enabled>
						<duration>11962</duration>
						<rate>
							<timebase>25</timebase>
							<ntsc>FALSE</ntsc>
						</rate>
						<start>38079</start>
						<end>38202</end>
						<in>6076</in>
						<out>6199</out>
						<sequence id="sequence-103"/>
							<marker>
								<comment>test 3</comment>
								<name></name>
								<in>6992</in>
								<out>-1</out>
							</marker>
						<labels>
							<label2>Forest</label2>
						</labels>
					</clipitem>
					<clipitem id="clipitem-919" frameBlend="FALSE">
						<masterclipid>masterclip-240</masterclipid>
						<name>MVI_0359.MOV</name>
						<enabled>TRUE</enabled>
						<duration>7512</duration>
						<rate>
							<timebase>25</timebase>
							<ntsc>FALSE</ntsc>
						</rate>
						<start>38202</start>
						<end>38283</end>
						<in>547</in>
						<out>628</out>
						<alphatype>black</alphatype>
						<pixelaspectratio>square</pixelaspectratio>
						<anamorphic>FALSE</anamorphic>
						<file id="file-214">
							<name>MVI_0359.MOV</name>
							<pathurl>file://localhost/Volumes/Brakka/AdobeLager/Katta/Katta-14xxxx-Smart_eller_overvaaket-Chris/02-Video/IBM%205D/DCIM/100EOS5D/MVI_0359.MOV</pathurl>
							<rate>
								<timebase>25</timebase>
								<ntsc>FALSE</ntsc>
							</rate>
							<duration>7512</duration>
							<timecode>
								<rate>
									<timebase>25</timebase>
									<ntsc>FALSE</ntsc>
								</rate>
								<string>00:00:00:00</string>
								<frame>0</frame>
								<displayformat>NDF</displayformat>
								<reel>
									<name></name>
								</reel>
							</timecode>
							<media>
								<video>
									<duration>18000</duration>
									<samplecharacteristics>
										<rate>
											<timebase>25</timebase>
											<ntsc>FALSE</ntsc>
										</rate>
										<width>1920</width>
										<height>1080</height>
										<anamorphic>FALSE</anamorphic>
										<pixelaspectratio>square</pixelaspectratio>
										<fielddominance>none</fielddominance>
									</samplecharacteristics>
								</video>
								<audio>
									<samplecharacteristics>
										<depth>16</depth>
										<samplerate>48000</samplerate>
									</samplecharacteristics>
									<channelcount>1</channelcount>
									<layout>mono</layout>
									<audiochannel>
										<sourcechannel>1</sourcechannel>
										<channellabel>discrete</channellabel>
									</audiochannel>
								</audio>
								<audio>
									<samplecharacteristics>
										<depth>16</depth>
										<samplerate>48000</samplerate>
									</samplecharacteristics>
									<channelcount>1</channelcount>
									<layout>mono</layout>
									<audiochannel>
										<sourcechannel>2</sourcechannel>
										<channellabel>discrete</channellabel>
									</audiochannel>
								</audio>
							</media>
						</file>
						<logginginfo>
							<description></description>
							<scene></scene>
							<shottake></shottake>
							<lognote></lognote>
						</logginginfo>
						<labels>
							<label2>Iris</label2>
						</labels>
					</clipitem>
					<clipitem id="clipitem-920" frameBlend="FALSE">
						<masterclipid>masterclip-241</masterclipid>
						<name>AA034901.MXF</name>
						<enabled>TRUE</enabled>
						<duration>7584</duration>
						<rate>
							<timebase>25</timebase>
							<ntsc>FALSE</ntsc>
						</rate>
						<start>38283</start>
						<end>38348</end>
						<in>476</in>
						<out>541</out>
						<alphatype>none</alphatype>
						<pixelaspectratio>square</pixelaspectratio>
						<anamorphic>FALSE</anamorphic>
						<file id="file-215">
							<name>AA034901.MXF</name>
							<pathurl>file://localhost/Volumes/Brakka/AdobeLager/Katta/Katta-14xxxx-Smart_eller_overvaaket-Chris/02-Video/IBM%20C300/CONTENTS/CLIPS001/AA0349/AA034901.MXF</pathurl>
							<rate>
								<timebase>25</timebase>
								<ntsc>FALSE</ntsc>
							</rate>
							<duration>7584</duration>
							<timecode>
								<rate>
									<timebase>25</timebase>
									<ntsc>FALSE</ntsc>
								</rate>
								<string>06:16:10:14</string>
								<frame>564264</frame>
								<displayformat>NDF</displayformat>
								<reel>
									<name></name>
								</reel>
							</timecode>
							<media>
								<video>
									<duration>18000</duration>
									<samplecharacteristics>
										<rate>
											<timebase>25</timebase>
											<ntsc>FALSE</ntsc>
										</rate>
										<width>1920</width>
										<height>1080</height>
										<anamorphic>FALSE</anamorphic>
										<pixelaspectratio>square</pixelaspectratio>
										<fielddominance>none</fielddominance>
									</samplecharacteristics>
								</video>
								<audio>
									<samplecharacteristics>
										<depth>16</depth>
										<samplerate>48000</samplerate>
									</samplecharacteristics>
									<channelcount>1</channelcount>
									<layout>mono</layout>
									<audiochannel>
										<sourcechannel>1</sourcechannel>
										<channellabel>discrete</channellabel>
									</audiochannel>
								</audio>
								<audio>
									<samplecharacteristics>
										<depth>16</depth>
										<samplerate>48000</samplerate>
									</samplecharacteristics>
									<channelcount>1</channelcount>
									<layout>mono</layout>
									<audiochannel>
										<sourcechannel>2</sourcechannel>
										<channellabel>discrete</channellabel>
									</audiochannel>
								</audio>
							</media>
						</file>
						<logginginfo>
							<description></description>
							<scene></scene>
							<shottake>AA0349</shottake>
							<lognote></lognote>
						</logginginfo>
						<labels>
							<label2>Iris</label2>
						</labels>
					</clipitem>
					<clipitem id="clipitem-921" frameBlend="FALSE">
						<masterclipid>masterclip-8</masterclipid>
						<name>MVI_0359.MOVIBMulti</name>
						<enabled>TRUE</enabled>
						<duration>7759</duration>
						<rate>
							<timebase>25</timebase>
							<ntsc>FALSE</ntsc>
						</rate>
						<start>38348</start>
						<end>38379</end>
						<in>890</in>
						<out>921</out>
						<sequence id="sequence-3">
							<duration>150</duration>
							<rate>
								<timebase>25</timebase>
								<ntsc>FALSE</ntsc>
							</rate>
							<name>MVI_0359.MOVIBMulti-1</name>
							<media>
								<video>
									<format>
										<samplecharacteristics>
											<rate>
												<timebase>25</timebase>
												<ntsc>FALSE</ntsc>
											</rate>
											<codec>
												<name>Apple ProRes 422</name>
												<appspecificdata>
													<appname>Final Cut Pro</appname>
													<appmanufacturer>Apple Inc.</appmanufacturer>
													<appversion>7.0</appversion>
													<data>
														<qtcodec>
															<codecname>Apple ProRes 422</codecname>
															<codectypename>Apple ProRes 422</codectypename>
															<codectypecode>apcn</codectypecode>
															<codecvendorcode>appl</codecvendorcode>
															<spatialquality>1024</spatialquality>
															<temporalquality>0</temporalquality>
															<keyframerate>0</keyframerate>
															<datarate>0</datarate>
														</qtcodec>
													</data>
												</appspecificdata>
											</codec>
											<width>1920</width>
											<height>1080</height>
											<anamorphic>FALSE</anamorphic>
											<pixelaspectratio>square</pixelaspectratio>
											<fielddominance>none</fielddominance>
											<colordepth>24</colordepth>
										</samplecharacteristics>
									</format>
									<track TL.SQTrackShy="0" TL.SQTrackExpandedHeight="25" TL.SQTrackExpanded="0" MZ.TrackTargeted="0">
										<clipitem id="clipitem-392" frameBlend="FALSE">
											<masterclipid>masterclip-9</masterclipid>
											<name>MVI_0359.MOV</name>
											<enabled>TRUE</enabled>
											<duration>7512</duration>
											<rate>
												<timebase>25</timebase>
												<ntsc>FALSE</ntsc>
											</rate>
											<start>0</start>
											<end>7512</end>
											<in>0</in>
											<out>7512</out>
											<alphatype>black</alphatype>
											<file id="file-8"/>
											<logginginfo>
												<description></description>
												<scene></scene>
												<shottake></shottake>
												<lognote></lognote>
											</logginginfo>
											<labels>
												<label2>Iris</label2>
											</labels>
										</clipitem>
										<enabled>TRUE</enabled>
										<locked>FALSE</locked>
									</track>
								</video>
								<audio>
									<format>
										<samplecharacteristics>
											<depth>16</depth>
											<samplerate>48000</samplerate>
										</samplecharacteristics>
									</format>
									<outputs>
										<group>
											<index>1</index>
											<numchannels>1</numchannels>
											<downmix>0</downmix>
											<channel>
												<index>1</index>
											</channel>
										</group>
										<group>
											<index>2</index>
											<numchannels>1</numchannels>
											<downmix>0</downmix>
											<channel>
												<index>2</index>
											</channel>
										</group>
										<group>
											<index>3</index>
											<numchannels>1</numchannels>
											<downmix>0</downmix>
											<channel>
												<index>3</index>
											</channel>
										</group>
										<group>
											<index>4</index>
											<numchannels>1</numchannels>
											<downmix>0</downmix>
											<channel>
												<index>4</index>
											</channel>
										</group>
									</outputs>
									<track TL.SQTrackAudioKeyframeStyle="0" TL.SQTrackShy="0" TL.SQTrackExpandedHeight="25" TL.SQTrackExpanded="0" MZ.TrackTargeted="1" PannerCurrentValue="0" PannerIsInverted="true" PannerStartKeyframe="-91445760000000000,0.,0,0,0,0,0,0" PannerName="Balance" currentExplodedTrackIndex="0" totalExplodedTrackCount="1" premiereTrackType="Stereo">
										<clipitem id="clipitem-391" frameBlend="FALSE" PannerCurrentValue="0.5" PannerKeyframes="" PannerStartKeyframe="-91445760000000000,0.5,0,0,0,0,0,0" PannerIsInverted="true" PannerName="Pan">
											<masterclipid>masterclip-9</masterclipid>
											<name>MVI_0359.MOV</name>
											<enabled>TRUE</enabled>
											<duration>7512</duration>
											<rate>
												<timebase>25</timebase>
												<ntsc>FALSE</ntsc>
											</rate>
											<start>0</start>
											<end>7512</end>
											<in>0</in>
											<out>7512</out>
											<pixelaspectratio>square</pixelaspectratio>
											<anamorphic>FALSE</anamorphic>
											<file id="file-8">
												<name>MVI_0359.MOV</name>
												<pathurl>file://localhost/Volumes/Brakka/AdobeLager/Katta/Katta-14xxxx-Smart_eller_overvaaket-Chris/02-Video/IBM%205D/DCIM/100EOS5D/MVI_0359.MOV</pathurl>
												<rate>
													<timebase>25</timebase>
													<ntsc>FALSE</ntsc>
												</rate>
												<duration>7512</duration>
												<timecode>
													<rate>
														<timebase>25</timebase>
														<ntsc>FALSE</ntsc>
													</rate>
													<string>00:00:00:00</string>
													<frame>0</frame>
													<displayformat>NDF</displayformat>
													<reel>
														<name></name>
													</reel>
												</timecode>
												<media>
													<video>
														<duration>18000</duration>
														<samplecharacteristics>
															<rate>
																<timebase>25</timebase>
																<ntsc>FALSE</ntsc>
															</rate>
															<width>1920</width>
															<height>1080</height>
															<anamorphic>FALSE</anamorphic>
															<pixelaspectratio>square</pixelaspectratio>
															<fielddominance>none</fielddominance>
														</samplecharacteristics>
													</video>
													<audio>
														<samplecharacteristics>
															<depth>16</depth>
															<samplerate>48000</samplerate>
														</samplecharacteristics>
														<channelcount>1</channelcount>
														<layout>mono</layout>
														<audiochannel>
															<sourcechannel>1</sourcechannel>
															<channellabel>discrete</channellabel>
														</audiochannel>
													</audio>
													<audio>
														<samplecharacteristics>
															<depth>16</depth>
															<samplerate>48000</samplerate>
														</samplecharacteristics>
														<channelcount>1</channelcount>
														<layout>mono</layout>
														<audiochannel>
															<sourcechannel>2</sourcechannel>
															<channellabel>discrete</channellabel>
														</audiochannel>
													</audio>
												</media>
											</file>
											<sourcetrack>
												<mediatype>audio</mediatype>
												<trackindex>1</trackindex>
											</sourcetrack>
												<filter>
													<effect>
														<name>Audio Pan</name>
														<effectid>audiopan</effectid>
														<effectcategory>audiopan</effectcategory>
														<effecttype>audiopan</effecttype>
														<mediatype>audio</mediatype>
														<parameter authoringApp="PremierePro">
															<parameterid>pan</parameterid>
															<name>Pan</name>
															<valuemin>-1</valuemin>
															<valuemax>1</valuemax>
															<value>0</value>
														</parameter>
													</effect>
												</filter>
											<logginginfo>
												<description></description>
												<scene></scene>
												<shottake></shottake>
												<lognote></lognote>
											</logginginfo>
											<labels>
												<label2>Iris</label2>
											</labels>
										</clipitem>
										<enabled>TRUE</enabled>
										<locked>FALSE</locked>
										<outputchannelindex>1</outputchannelindex>
									</track>
								</audio>
							</media>
							<timecode>
								<rate>
									<timebase>25</timebase>
									<ntsc>FALSE</ntsc>
								</rate>
								<string>00:00:00:00</string>
								<frame>0</frame>
								<displayformat>NDF</displayformat>
							</timecode>
						</sequence>
						<labels>
							<label2>Forest</label2>
						</labels>
					</clipitem>
					<clipitem id="clipitem-922" frameBlend="FALSE">
						<masterclipid>masterclip-8</masterclipid>
						<name>MVI_0359.MOVIBMulti</name>
						<enabled>TRUE</enabled>
						<duration>7759</duration>
						<rate>
							<timebase>25</timebase>
							<ntsc>FALSE</ntsc>
						</rate>
						<start>38379</start>
						<end>38518</end>
						<in>921</in>
						<out>1060</out>
						<sequence id="sequence-4"/>
						<labels>
							<label2>Forest</label2>
						</labels>
					</clipitem>
					<clipitem id="clipitem-923" frameBlend="FALSE">
						<masterclipid>masterclip-8</masterclipid>
						<name>MVI_0359.MOVIBMulti</name>
						<enabled>TRUE</enabled>
						<duration>7759</duration>
						<rate>
							<timebase>25</timebase>
							<ntsc>FALSE</ntsc>
						</rate>
						<start>38518</start>
						<end>38578</end>
						<in>1060</in>
						<out>1120</out>
						<sequence id="sequence-3"/>
						<labels>
							<label2>Forest</label2>
						</labels>
					</clipitem>
					<clipitem id="clipitem-924" frameBlend="FALSE">
						<masterclipid>masterclip-242</masterclipid>
						<name>MVI_0367.MOV</name>
						<enabled>TRUE</enabled>
						<duration>1375</duration>
						<rate>
							<timebase>25</timebase>
							<ntsc>FALSE</ntsc>
						</rate>
						<start>38578</start>
						<end>38708</end>
						<in>40</in>
						<out>170</out>
						<alphatype>black</alphatype>
						<pixelaspectratio>square</pixelaspectratio>
						<anamorphic>FALSE</anamorphic>
						<file id="file-216">
							<name>MVI_0367.MOV</name>
							<pathurl>file://localhost/Volumes/Brakka/AdobeLager/Katta/Katta-14xxxx-Smart_eller_overvaaket-Chris/02-Video/IBM%205D/DCIM/100EOS5D/MVI_0367.MOV</pathurl>
							<rate>
								<timebase>25</timebase>
								<ntsc>FALSE</ntsc>
							</rate>
							<duration>1375</duration>
							<timecode>
								<rate>
									<timebase>25</timebase>
									<ntsc>FALSE</ntsc>
								</rate>
								<string>00:00:00:00</string>
								<frame>0</frame>
								<displayformat>NDF</displayformat>
								<reel>
									<name></name>
								</reel>
							</timecode>
							<media>
								<video>
									<duration>18000</duration>
									<samplecharacteristics>
										<rate>
											<timebase>25</timebase>
											<ntsc>FALSE</ntsc>
										</rate>
										<width>1920</width>
										<height>1080</height>
										<anamorphic>FALSE</anamorphic>
										<pixelaspectratio>square</pixelaspectratio>
										<fielddominance>none</fielddominance>
									</samplecharacteristics>
								</video>
								<audio>
									<samplecharacteristics>
										<depth>16</depth>
										<samplerate>48000</samplerate>
									</samplecharacteristics>
									<channelcount>1</channelcount>
									<layout>mono</layout>
									<audiochannel>
										<sourcechannel>1</sourcechannel>
										<channellabel>discrete</channellabel>
									</audiochannel>
								</audio>
								<audio>
									<samplecharacteristics>
										<depth>16</depth>
										<samplerate>48000</samplerate>
									</samplecharacteristics>
									<channelcount>1</channelcount>
									<layout>mono</layout>
									<audiochannel>
										<sourcechannel>2</sourcechannel>
										<channellabel>discrete</channellabel>
									</audiochannel>
								</audio>
							</media>
						</file>
						<logginginfo>
							<description></description>
							<scene></scene>
							<shottake></shottake>
							<lognote></lognote>
						</logginginfo>
						<labels>
							<label2>Iris</label2>
						</labels>
					</clipitem>
					<clipitem id="clipitem-925" frameBlend="FALSE">
						<masterclipid>masterclip-243</masterclipid>
						<name>MVI_0369.MOV</name>
						<enabled>TRUE</enabled>
						<duration>1563</duration>
						<rate>
							<timebase>25</timebase>
							<ntsc>FALSE</ntsc>
						</rate>
						<start>38708</start>
						<end>38746</end>
						<in>526</in>
						<out>564</out>
						<alphatype>black</alphatype>
						<pixelaspectratio>square</pixelaspectratio>
						<anamorphic>FALSE</anamorphic>
						<file id="file-217">
							<name>MVI_0369.MOV</name>
							<pathurl>file://localhost/Volumes/Brakka/AdobeLager/Katta/Katta-14xxxx-Smart_eller_overvaaket-Chris/02-Video/IBM%205D/DCIM/100EOS5D/MVI_0369.MOV</pathurl>
							<rate>
								<timebase>25</timebase>
								<ntsc>FALSE</ntsc>
							</rate>
							<duration>1563</duration>
							<timecode>
								<rate>
									<timebase>25</timebase>
									<ntsc>FALSE</ntsc>
								</rate>
								<string>00:00:00:00</string>
								<frame>0</frame>
								<displayformat>NDF</displayformat>
								<reel>
									<name></name>
								</reel>
							</timecode>
							<media>
								<video>
									<duration>18000</duration>
									<samplecharacteristics>
										<rate>
											<timebase>25</timebase>
											<ntsc>FALSE</ntsc>
										</rate>
										<width>1920</width>
										<height>1080</height>
										<anamorphic>FALSE</anamorphic>
										<pixelaspectratio>square</pixelaspectratio>
										<fielddominance>none</fielddominance>
									</samplecharacteristics>
								</video>
								<audio>
									<samplecharacteristics>
										<depth>16</depth>
										<samplerate>48000</samplerate>
									</samplecharacteristics>
									<channelcount>1</channelcount>
									<layout>mono</layout>
									<audiochannel>
										<sourcechannel>1</sourcechannel>
										<channellabel>discrete</channellabel>
									</audiochannel>
								</audio>
								<audio>
									<samplecharacteristics>
										<depth>16</depth>
										<samplerate>48000</samplerate>
									</samplecharacteristics>
									<channelcount>1</channelcount>
									<layout>mono</layout>
									<audiochannel>
										<sourcechannel>2</sourcechannel>
										<channellabel>discrete</channellabel>
									</audiochannel>
								</audio>
							</media>
						</file>
						<logginginfo>
							<description></description>
							<scene></scene>
							<shottake></shottake>
							<lognote></lognote>
						</logginginfo>
						<labels>
							<label2>Iris</label2>
						</labels>
					</clipitem>
					<clipitem id="clipitem-926" frameBlend="FALSE">
						<masterclipid>masterclip-243</masterclipid>
						<name>MVI_0369.MOV</name>
						<enabled>TRUE</enabled>
						<duration>1563</duration>
						<rate>
							<timebase>25</timebase>
							<ntsc>FALSE</ntsc>
						</rate>
						<start>38746</start>
						<end>38798</end>
						<in>989</in>
						<out>1041</out>
						<alphatype>black</alphatype>
						<file id="file-217"/>
						<logginginfo>
							<description></description>
							<scene></scene>
							<shottake></shottake>
							<lognote></lognote>
						</logginginfo>
						<labels>
							<label2>Iris</label2>
						</labels>
					</clipitem>
					<clipitem id="clipitem-927" frameBlend="FALSE">
						<masterclipid>masterclip-244</masterclipid>
						<name>MVI_0372.MOV</name>
						<enabled>TRUE</enabled>
						<duration>1764</duration>
						<rate>
							<timebase>25</timebase>
							<ntsc>FALSE</ntsc>
						</rate>
						<start>38798</start>
						<end>38860</end>
						<in>1060</in>
						<out>1122</out>
						<alphatype>black</alphatype>
						<pixelaspectratio>square</pixelaspectratio>
						<anamorphic>FALSE</anamorphic>
						<file id="file-218">
							<name>MVI_0372.MOV</name>
							<pathurl>file://localhost/Volumes/Brakka/AdobeLager/Katta/Katta-14xxxx-Smart_eller_overvaaket-Chris/02-Video/IBM%205D/DCIM/100EOS5D/MVI_0372.MOV</pathurl>
							<rate>
								<timebase>25</timebase>
								<ntsc>FALSE</ntsc>
							</rate>
							<duration>1764</duration>
							<timecode>
								<rate>
									<timebase>25</timebase>
									<ntsc>FALSE</ntsc>
								</rate>
								<string>00:00:00:00</string>
								<frame>0</frame>
								<displayformat>NDF</displayformat>
								<reel>
									<name></name>
								</reel>
							</timecode>
							<media>
								<video>
									<duration>18000</duration>
									<samplecharacteristics>
										<rate>
											<timebase>25</timebase>
											<ntsc>FALSE</ntsc>
										</rate>
										<width>1920</width>
										<height>1080</height>
										<anamorphic>FALSE</anamorphic>
										<pixelaspectratio>square</pixelaspectratio>
										<fielddominance>none</fielddominance>
									</samplecharacteristics>
								</video>
								<audio>
									<samplecharacteristics>
										<depth>16</depth>
										<samplerate>48000</samplerate>
									</samplecharacteristics>
									<channelcount>1</channelcount>
									<layout>mono</layout>
									<audiochannel>
										<sourcechannel>1</sourcechannel>
										<channellabel>discrete</channellabel>
									</audiochannel>
								</audio>
								<audio>
									<samplecharacteristics>
										<depth>16</depth>
										<samplerate>48000</samplerate>
									</samplecharacteristics>
									<channelcount>1</channelcount>
									<layout>mono</layout>
									<audiochannel>
										<sourcechannel>2</sourcechannel>
										<channellabel>discrete</channellabel>
									</audiochannel>
								</audio>
							</media>
						</file>
						<logginginfo>
							<description></description>
							<scene></scene>
							<shottake></shottake>
							<lognote></lognote>
						</logginginfo>
						<labels>
							<label2>Iris</label2>
						</labels>
					</clipitem>
					<clipitem id="clipitem-928" frameBlend="FALSE">
						<masterclipid>masterclip-17</masterclipid>
						<name>Rio (IBM).mov</name>
						<enabled>TRUE</enabled>
						<duration>10510</duration>
						<rate>
							<timebase>25</timebase>
							<ntsc>FALSE</ntsc>
						</rate>
						<start>38860</start>
						<end>38918</end>
						<in>6034</in>
						<out>6092</out>
						<alphatype>black</alphatype>
						<file id="file-16"/>
							<filter>
								<effect>
									<name>Basic Motion</name>
									<effectid>basic</effectid>
									<effectcategory>motion</effectcategory>
									<effecttype>motion</effecttype>
									<mediatype>video</mediatype>
									<parameter authoringApp="PremierePro">
										<parameterid>scale</parameterid>
										<name>Scale</name>
										<valuemin>0</valuemin>
										<valuemax>1000</valuemax>
										<value>150</value>
									</parameter>
									<parameter authoringApp="PremierePro">
										<parameterid>rotation</parameterid>
										<name>Rotation</name>
										<valuemin>-8640</valuemin>
										<valuemax>8640</valuemax>
										<value>0</value>
									</parameter>
									<parameter authoringApp="PremierePro">
										<parameterid>center</parameterid>
										<name>Center</name>
										<value>
											<horiz>0</horiz>
											<vert>0</vert>
										</value>
									</parameter>
									<parameter authoringApp="PremierePro">
										<parameterid>centerOffset</parameterid>
										<name>Anchor Point</name>
										<value>
											<horiz>0</horiz>
											<vert>0</vert>
										</value>
									</parameter>
								</effect>
							</filter>
						<logginginfo>
							<description></description>
							<scene></scene>
							<shottake></shottake>
							<lognote></lognote>
						</logginginfo>
						<labels>
							<label2>Iris</label2>
						</labels>
					</clipitem>
					<clipitem id="clipitem-929" frameBlend="FALSE">
						<masterclipid>masterclip-17</masterclipid>
						<name>Rio (IBM).mov</name>
						<enabled>TRUE</enabled>
						<duration>10510</duration>
						<rate>
							<timebase>25</timebase>
							<ntsc>FALSE</ntsc>
						</rate>
						<start>38918</start>
						<end>38954</end>
						<in>6799</in>
						<out>6835</out>
						<alphatype>black</alphatype>
						<file id="file-16"/>
							<filter>
								<effect>
									<name>Basic Motion</name>
									<effectid>basic</effectid>
									<effectcategory>motion</effectcategory>
									<effecttype>motion</effecttype>
									<mediatype>video</mediatype>
									<parameter authoringApp="PremierePro">
										<parameterid>scale</parameterid>
										<name>Scale</name>
										<valuemin>0</valuemin>
										<valuemax>1000</valuemax>
										<value>150</value>
									</parameter>
									<parameter authoringApp="PremierePro">
										<parameterid>rotation</parameterid>
										<name>Rotation</name>
										<valuemin>-8640</valuemin>
										<valuemax>8640</valuemax>
										<value>0</value>
									</parameter>
									<parameter authoringApp="PremierePro">
										<parameterid>center</parameterid>
										<name>Center</name>
										<value>
											<horiz>0</horiz>
											<vert>0</vert>
										</value>
									</parameter>
									<parameter authoringApp="PremierePro">
										<parameterid>centerOffset</parameterid>
										<name>Anchor Point</name>
										<value>
											<horiz>0</horiz>
											<vert>0</vert>
										</value>
									</parameter>
								</effect>
							</filter>
						<link>
							<linkclipref>clipitem-929</linkclipref>
							<mediatype>video</mediatype>
							<trackindex>1</trackindex>
							<clipindex>345</clipindex>
						</link>
						<link>
							<linkclipref>clipitem-1580</linkclipref>
							<mediatype>audio</mediatype>
							<trackindex>5</trackindex>
							<clipindex>82</clipindex>
						</link>
						<link>
							<linkclipref>clipitem-1650</linkclipref>
							<mediatype>audio</mediatype>
							<trackindex>7</trackindex>
							<clipindex>74</clipindex>
						</link>
						<logginginfo>
							<description></description>
							<scene></scene>
							<shottake></shottake>
							<lognote></lognote>
						</logginginfo>
						<labels>
							<label2>Iris</label2>
						</labels>
					</clipitem>
					<clipitem id="clipitem-930" frameBlend="FALSE">
						<masterclipid>masterclip-245</masterclipid>
						<name>Smart by 2 slow.mov</name>
						<enabled>TRUE</enabled>
						<duration>97</duration>
						<rate>
							<timebase>25</timebase>
							<ntsc>FALSE</ntsc>
						</rate>
						<start>38954</start>
						<end>39050</end>
						<in>1</in>
						<out>97</out>
						<alphatype>none</alphatype>
						<pixelaspectratio>square</pixelaspectratio>
						<anamorphic>FALSE</anamorphic>
						<file id="file-219">
							<name>Smart by 2 slow.mov</name>
							<pathurl>file://localhost/Volumes/Brakka/AdobeLager/Katta/Katta-14xxxx-Smart_eller_overvaaket-Chris/04-Grafikk/Smart%20by%202%20slow.mov</pathurl>
							<rate>
								<timebase>25</timebase>
								<ntsc>FALSE</ntsc>
							</rate>
							<duration>97</duration>
							<timecode>
								<rate>
									<timebase>25</timebase>
									<ntsc>FALSE</ntsc>
								</rate>
								<string>00:02:13:10</string>
								<frame>3335</frame>
								<displayformat>NDF</displayformat>
								<reel>
									<name></name>
								</reel>
							</timecode>
							<media>
								<video>
									<duration>18000</duration>
									<samplecharacteristics>
										<rate>
											<timebase>25</timebase>
											<ntsc>FALSE</ntsc>
										</rate>
										<width>1920</width>
										<height>1080</height>
										<anamorphic>FALSE</anamorphic>
										<pixelaspectratio>square</pixelaspectratio>
										<fielddominance>upper</fielddominance>
									</samplecharacteristics>
								</video>
								<audio>
									<samplecharacteristics>
										<depth>16</depth>
										<samplerate>48000</samplerate>
									</samplecharacteristics>
									<channelcount>1</channelcount>
									<layout>mono</layout>
									<audiochannel>
										<sourcechannel>1</sourcechannel>
										<channellabel>discrete</channellabel>
									</audiochannel>
								</audio>
								<audio>
									<samplecharacteristics>
										<depth>16</depth>
										<samplerate>48000</samplerate>
									</samplecharacteristics>
									<channelcount>1</channelcount>
									<layout>mono</layout>
									<audiochannel>
										<sourcechannel>2</sourcechannel>
										<channellabel>discrete</channellabel>
									</audiochannel>
								</audio>
							</media>
						</file>
							<filter>
								<effect>
									<name>Time Remap</name>
									<effectid>timeremap</effectid>
									<effectcategory>motion</effectcategory>
									<effecttype>motion</effecttype>
									<mediatype>video</mediatype>
									<parameter authoringApp="PremierePro">
										<parameterid>variablespeed</parameterid>
										<name>variablespeed</name>
										<valuemin>0</valuemin>
										<valuemax>1</valuemax>
										<value>0</value>
									</parameter>
									<parameter authoringApp="PremierePro">
										<parameterid>mappedduration</parameterid>
										<name>mappedduration</name>
										<value>
											<timecode>
												<rate>
													<timebase>0</timebase>
												</rate>
												<string>0</string>
												<frame>0</frame>
												<displayformat>NDF</displayformat>
											</timecode>
										</value>
									</parameter>
									<parameter authoringApp="PremierePro">
										<parameterid>speed</parameterid>
										<name>speed</name>
										<valuemin>-100000</valuemin>
										<valuemax>100000</valuemax>
										<value>100</value>
									</parameter>
									<parameter authoringApp="PremierePro">
										<parameterid>reverse</parameterid>
										<name>reverse</name>
										<value>TRUE</value>
									</parameter>
									<parameter authoringApp="PremierePro">
										<parameterid>frameblending</parameterid>
										<name>frameblending</name>
										<value>FALSE</value>
									</parameter>
									<parameter authoringApp="PremierePro">
										<parameterid>graphdict</parameterid>
										<name>graphdict</name>
										<valuemin>0</valuemin>
										<valuemax>97</valuemax>
										<value>0</value>
										<keyframe>
											<when>0</when>
											<value>98</value>
											<speedvirtualkf>TRUE</speedvirtualkf>
											<origvalue>97</origvalue>
											<speedkfstart>TRUE</speedkfstart>
										</keyframe>
										<keyframe>
											<when>1</when>
											<value>96</value>
											<speedvirtualkf>TRUE</speedvirtualkf>
											<origvalue>96</origvalue>
											<speedkfin>TRUE</speedkfin>
										</keyframe>
										<keyframe>
											<when>97</when>
											<value>0</value>
											<speedvirtualkf>TRUE</speedvirtualkf>
											<origvalue>0</origvalue>
											<speedkfout>TRUE</speedkfout>
										</keyframe>
										<interpolation>
											<name>FCPCurve</name>
										</interpolation>
									</parameter>
								</effect>
							</filter>
						<logginginfo>
							<description></description>
							<scene></scene>
							<shottake></shottake>
							<lognote></lognote>
						</logginginfo>
						<labels>
							<label2>Iris</label2>
						</labels>
					</clipitem>
					<clipitem id="clipitem-931" frameBlend="FALSE">
						<masterclipid>masterclip-17</masterclipid>
						<name>Rio (IBM).mov</name>
						<enabled>TRUE</enabled>
						<duration>10510</duration>
						<rate>
							<timebase>25</timebase>
							<ntsc>FALSE</ntsc>
						</rate>
						<start>39050</start>
						<end>39300</end>
						<in>8812</in>
						<out>9062</out>
						<alphatype>black</alphatype>
						<file id="file-16"/>
							<filter>
								<effect>
									<name>Basic Motion</name>
									<effectid>basic</effectid>
									<effectcategory>motion</effectcategory>
									<effecttype>motion</effecttype>
									<mediatype>video</mediatype>
									<parameter authoringApp="PremierePro">
										<parameterid>scale</parameterid>
										<name>Scale</name>
										<valuemin>0</valuemin>
										<valuemax>1000</valuemax>
										<value>150</value>
									</parameter>
									<parameter authoringApp="PremierePro">
										<parameterid>rotation</parameterid>
										<name>Rotation</name>
										<valuemin>-8640</valuemin>
										<valuemax>8640</valuemax>
										<value>0</value>
									</parameter>
									<parameter authoringApp="PremierePro">
										<parameterid>center</parameterid>
										<name>Center</name>
										<value>
											<horiz>0</horiz>
											<vert>0</vert>
										</value>
									</parameter>
									<parameter authoringApp="PremierePro">
										<parameterid>centerOffset</parameterid>
										<name>Anchor Point</name>
										<value>
											<horiz>0</horiz>
											<vert>0</vert>
										</value>
									</parameter>
								</effect>
							</filter>
						<link>
							<linkclipref>clipitem-931</linkclipref>
							<mediatype>video</mediatype>
							<trackindex>1</trackindex>
							<clipindex>347</clipindex>
						</link>
						<link>
							<linkclipref>clipitem-1582</linkclipref>
							<mediatype>audio</mediatype>
							<trackindex>5</trackindex>
							<clipindex>84</clipindex>
						</link>
						<link>
							<linkclipref>clipitem-1652</linkclipref>
							<mediatype>audio</mediatype>
							<trackindex>7</trackindex>
							<clipindex>76</clipindex>
						</link>
						<logginginfo>
							<description></description>
							<scene></scene>
							<shottake></shottake>
							<lognote></lognote>
						</logginginfo>
						<labels>
							<label2>Iris</label2>
						</labels>
					</clipitem>
					<clipitem id="clipitem-932" frameBlend="FALSE">
						<masterclipid>masterclip-246</masterclipid>
						<name>MVI_0361.MOVIBMulti</name>
						<enabled>TRUE</enabled>
						<duration>37748</duration>
						<rate>
							<timebase>25</timebase>
							<ntsc>FALSE</ntsc>
						</rate>
						<start>39300</start>
						<end>39345</end>
						<in>4017</in>
						<out>4062</out>
						<sequence id="sequence-110">
							<duration>150</duration>
							<rate>
								<timebase>25</timebase>
								<ntsc>FALSE</ntsc>
							</rate>
							<name>MVI_0361.MOVIBMulti-4</name>
							<media>
								<video>
									<format>
										<samplecharacteristics>
											<rate>
												<timebase>25</timebase>
												<ntsc>FALSE</ntsc>
											</rate>
											<codec>
												<name>Apple ProRes 422</name>
												<appspecificdata>
													<appname>Final Cut Pro</appname>
													<appmanufacturer>Apple Inc.</appmanufacturer>
													<appversion>7.0</appversion>
													<data>
														<qtcodec>
															<codecname>Apple ProRes 422</codecname>
															<codectypename>Apple ProRes 422</codectypename>
															<codectypecode>apcn</codectypecode>
															<codecvendorcode>appl</codecvendorcode>
															<spatialquality>1024</spatialquality>
															<temporalquality>0</temporalquality>
															<keyframerate>0</keyframerate>
															<datarate>0</datarate>
														</qtcodec>
													</data>
												</appspecificdata>
											</codec>
											<width>1920</width>
											<height>1080</height>
											<anamorphic>FALSE</anamorphic>
											<pixelaspectratio>square</pixelaspectratio>
											<fielddominance>none</fielddominance>
											<colordepth>24</colordepth>
										</samplecharacteristics>
									</format>
									<track TL.SQTrackShy="0" TL.SQTrackExpandedHeight="25" TL.SQTrackExpanded="0" MZ.TrackTargeted="0">
										<clipitem id="clipitem-937" frameBlend="FALSE">
											<masterclipid>masterclip-247</masterclipid>
											<name>AA035001.MXF</name>
											<enabled>TRUE</enabled>
											<duration>23184</duration>
											<rate>
												<timebase>25</timebase>
												<ntsc>FALSE</ntsc>
											</rate>
											<start>0</start>
											<end>22301</end>
											<in>883</in>
											<out>23184</out>
											<alphatype>none</alphatype>
											<file id="file-220"/>
											<logginginfo>
												<description></description>
												<scene></scene>
												<shottake>AA0350</shottake>
												<lognote></lognote>
											</logginginfo>
											<labels>
												<label2>Iris</label2>
											</labels>
										</clipitem>
										<enabled>TRUE</enabled>
										<locked>FALSE</locked>
									</track>
								</video>
								<audio>
									<format>
										<samplecharacteristics>
											<depth>16</depth>
											<samplerate>48000</samplerate>
										</samplecharacteristics>
									</format>
									<outputs>
										<group>
											<index>1</index>
											<numchannels>1</numchannels>
											<downmix>0</downmix>
											<channel>
												<index>1</index>
											</channel>
										</group>
										<group>
											<index>2</index>
											<numchannels>1</numchannels>
											<downmix>0</downmix>
											<channel>
												<index>2</index>
											</channel>
										</group>
										<group>
											<index>3</index>
											<numchannels>1</numchannels>
											<downmix>0</downmix>
											<channel>
												<index>3</index>
											</channel>
										</group>
										<group>
											<index>4</index>
											<numchannels>1</numchannels>
											<downmix>0</downmix>
											<channel>
												<index>4</index>
											</channel>
										</group>
										<group>
											<index>5</index>
											<numchannels>1</numchannels>
											<downmix>0</downmix>
											<channel>
												<index>5</index>
											</channel>
										</group>
										<group>
											<index>6</index>
											<numchannels>1</numchannels>
											<downmix>0</downmix>
											<channel>
												<index>6</index>
											</channel>
										</group>
									</outputs>
									<track TL.SQTrackAudioKeyframeStyle="0" TL.SQTrackShy="0" TL.SQTrackExpandedHeight="54" TL.SQTrackExpanded="1" MZ.TrackTargeted="1" PannerCurrentValue="1." PannerIsInverted="true" PannerStartKeyframe="-91445760000000000,1.,0,0,0,0,0,0" PannerName="Balance" currentExplodedTrackIndex="0" totalExplodedTrackCount="2" premiereTrackType="Stereo">
										<enabled>TRUE</enabled>
										<locked>FALSE</locked>
										<outputchannelindex>1</outputchannelindex>
									</track>
									<track TL.SQTrackAudioKeyframeStyle="0" TL.SQTrackShy="0" TL.SQTrackExpandedHeight="54" TL.SQTrackExpanded="1" MZ.TrackTargeted="1" PannerCurrentValue="1." PannerIsInverted="true" PannerStartKeyframe="-91445760000000000,1.,0,0,0,0,0,0" PannerName="Balance" currentExplodedTrackIndex="1" totalExplodedTrackCount="2" premiereTrackType="Stereo">
										<enabled>TRUE</enabled>
										<locked>FALSE</locked>
										<outputchannelindex>2</outputchannelindex>
									</track>
								</audio>
							</media>
							<timecode>
								<rate>
									<timebase>25</timebase>
									<ntsc>FALSE</ntsc>
								</rate>
								<string>00:00:00:00</string>
								<frame>0</frame>
								<displayformat>NDF</displayformat>
							</timecode>
						</sequence>
							<marker>
								<comment></comment>
								<name></name>
								<in>993</in>
								<out>-1</out>
							</marker>
						<link>
							<linkclipref>clipitem-932</linkclipref>
							<mediatype>video</mediatype>
							<trackindex>1</trackindex>
							<clipindex>348</clipindex>
						</link>
						<link>
							<linkclipref>clipitem-1322</linkclipref>
							<mediatype>audio</mediatype>
							<trackindex>1</trackindex>
							<clipindex>169</clipindex>
						</link>
						<link>
							<linkclipref>clipitem-1474</linkclipref>
							<mediatype>audio</mediatype>
							<trackindex>3</trackindex>
							<clipindex>123</clipindex>
						</link>
						<labels>
							<label2>Forest</label2>
						</labels>
					</clipitem>
					<clipitem id="clipitem-938" frameBlend="FALSE">
						<masterclipid>masterclip-246</masterclipid>
						<name>MVI_0361.MOVIBMulti</name>
						<enabled>TRUE</enabled>
						<duration>37748</duration>
						<rate>
							<timebase>25</timebase>
							<ntsc>FALSE</ntsc>
						</rate>
						<start>39345</start>
						<end>39420</end>
						<in>4062</in>
						<out>4137</out>
						<sequence id="sequence-107">
							<duration>150</duration>
							<rate>
								<timebase>25</timebase>
								<ntsc>FALSE</ntsc>
							</rate>
							<name>MVI_0361.MOVIBMulti-1</name>
							<media>
								<video>
									<format>
										<samplecharacteristics>
											<rate>
												<timebase>25</timebase>
												<ntsc>FALSE</ntsc>
											</rate>
											<codec>
												<name>Apple ProRes 422</name>
												<appspecificdata>
													<appname>Final Cut Pro</appname>
													<appmanufacturer>Apple Inc.</appmanufacturer>
													<appversion>7.0</appversion>
													<data>
														<qtcodec>
															<codecname>Apple ProRes 422</codecname>
															<codectypename>Apple ProRes 422</codectypename>
															<codectypecode>apcn</codectypecode>
															<codecvendorcode>appl</codecvendorcode>
															<spatialquality>1024</spatialquality>
															<temporalquality>0</temporalquality>
															<keyframerate>0</keyframerate>
															<datarate>0</datarate>
														</qtcodec>
													</data>
												</appspecificdata>
											</codec>
											<width>1920</width>
											<height>1080</height>
											<anamorphic>FALSE</anamorphic>
											<pixelaspectratio>square</pixelaspectratio>
											<fielddominance>none</fielddominance>
											<colordepth>24</colordepth>
										</samplecharacteristics>
									</format>
									<track TL.SQTrackShy="0" TL.SQTrackExpandedHeight="50" TL.SQTrackExpanded="1" MZ.TrackTargeted="0">
										<clipitem id="clipitem-934" frameBlend="FALSE">
											<masterclipid>masterclip-248</masterclipid>
											<name>MVI_0361.MOV</name>
											<enabled>TRUE</enabled>
											<duration>18697</duration>
											<rate>
												<timebase>25</timebase>
												<ntsc>FALSE</ntsc>
											</rate>
											<start>0</start>
											<end>18697</end>
											<in>0</in>
											<out>18697</out>
											<alphatype>black</alphatype>
											<pixelaspectratio>square</pixelaspectratio>
											<anamorphic>FALSE</anamorphic>
											<file id="file-221">
												<name>MVI_0361.MOV</name>
												<pathurl>file://localhost/Volumes/Brakka/AdobeLager/Katta/Katta-14xxxx-Smart_eller_overvaaket-Chris/02-Video/IBM%205D/DCIM/100EOS5D/MVI_0361.MOV</pathurl>
												<rate>
													<timebase>25</timebase>
													<ntsc>FALSE</ntsc>
												</rate>
												<duration>18697</duration>
												<timecode>
													<rate>
														<timebase>25</timebase>
														<ntsc>FALSE</ntsc>
													</rate>
													<string>00:00:00:00</string>
													<frame>0</frame>
													<displayformat>NDF</displayformat>
													<reel>
														<name></name>
													</reel>
												</timecode>
												<media>
													<video>
														<duration>18000</duration>
														<samplecharacteristics>
															<rate>
																<timebase>25</timebase>
																<ntsc>FALSE</ntsc>
															</rate>
															<width>1920</width>
															<height>1080</height>
															<anamorphic>FALSE</anamorphic>
															<pixelaspectratio>square</pixelaspectratio>
															<fielddominance>none</fielddominance>
														</samplecharacteristics>
													</video>
													<audio>
														<samplecharacteristics>
															<depth>16</depth>
															<samplerate>48000</samplerate>
														</samplecharacteristics>
														<channelcount>1</channelcount>
														<layout>mono</layout>
														<audiochannel>
															<sourcechannel>1</sourcechannel>
															<channellabel>discrete</channellabel>
														</audiochannel>
													</audio>
													<audio>
														<samplecharacteristics>
															<depth>16</depth>
															<samplerate>48000</samplerate>
														</samplecharacteristics>
														<channelcount>1</channelcount>
														<layout>mono</layout>
														<audiochannel>
															<sourcechannel>2</sourcechannel>
															<channellabel>discrete</channellabel>
														</audiochannel>
													</audio>
												</media>
											</file>
											<logginginfo>
												<description></description>
												<scene></scene>
												<shottake></shottake>
												<lognote></lognote>
											</logginginfo>
											<labels>
												<label2>Iris</label2>
											</labels>
										</clipitem>
										<clipitem id="clipitem-935" frameBlend="FALSE">
											<masterclipid>masterclip-249</masterclipid>
											<name>MVI_0362.MOV</name>
											<enabled>TRUE</enabled>
											<duration>2651</duration>
											<rate>
												<timebase>25</timebase>
												<ntsc>FALSE</ntsc>
											</rate>
											<start>19666</start>
											<end>22254</end>
											<in>63</in>
											<out>2651</out>
											<alphatype>black</alphatype>
											<pixelaspectratio>square</pixelaspectratio>
											<anamorphic>FALSE</anamorphic>
											<file id="file-222">
												<name>MVI_0362.MOV</name>
												<pathurl>file://localhost/Volumes/Brakka/AdobeLager/Katta/Katta-14xxxx-Smart_eller_overvaaket-Chris/02-Video/IBM%205D/DCIM/100EOS5D/MVI_0362.MOV</pathurl>
												<rate>
													<timebase>25</timebase>
													<ntsc>FALSE</ntsc>
												</rate>
												<duration>2651</duration>
												<timecode>
													<rate>
														<timebase>25</timebase>
														<ntsc>FALSE</ntsc>
													</rate>
													<string>00:00:00:00</string>
													<frame>0</frame>
													<displayformat>NDF</displayformat>
													<reel>
														<name></name>
													</reel>
												</timecode>
												<media>
													<video>
														<duration>18000</duration>
														<samplecharacteristics>
															<rate>
																<timebase>25</timebase>
																<ntsc>FALSE</ntsc>
															</rate>
															<width>1920</width>
															<height>1080</height>
															<anamorphic>FALSE</anamorphic>
															<pixelaspectratio>square</pixelaspectratio>
															<fielddominance>none</fielddominance>
														</samplecharacteristics>
													</video>
													<audio>
														<samplecharacteristics>
															<depth>16</depth>
															<samplerate>48000</samplerate>
														</samplecharacteristics>
														<channelcount>1</channelcount>
														<layout>mono</layout>
														<audiochannel>
															<sourcechannel>1</sourcechannel>
															<channellabel>discrete</channellabel>
														</audiochannel>
													</audio>
													<audio>
														<samplecharacteristics>
															<depth>16</depth>
															<samplerate>48000</samplerate>
														</samplecharacteristics>
														<channelcount>1</channelcount>
														<layout>mono</layout>
														<audiochannel>
															<sourcechannel>2</sourcechannel>
															<channellabel>discrete</channellabel>
														</audiochannel>
													</audio>
												</media>
											</file>
											<logginginfo>
												<description></description>
												<scene></scene>
												<shottake></shottake>
												<lognote></lognote>
											</logginginfo>
											<labels>
												<label2>Iris</label2>
											</labels>
										</clipitem>
										<enabled>TRUE</enabled>
										<locked>FALSE</locked>
									</track>
								</video>
								<audio>
									<format>
										<samplecharacteristics>
											<depth>16</depth>
											<samplerate>48000</samplerate>
										</samplecharacteristics>
									</format>
									<outputs>
										<group>
											<index>1</index>
											<numchannels>1</numchannels>
											<downmix>0</downmix>
											<channel>
												<index>1</index>
											</channel>
										</group>
										<group>
											<index>2</index>
											<numchannels>1</numchannels>
											<downmix>0</downmix>
											<channel>
												<index>2</index>
											</channel>
										</group>
										<group>
											<index>3</index>
											<numchannels>1</numchannels>
											<downmix>0</downmix>
											<channel>
												<index>3</index>
											</channel>
										</group>
										<group>
											<index>4</index>
											<numchannels>1</numchannels>
											<downmix>0</downmix>
											<channel>
												<index>4</index>
											</channel>
										</group>
										<group>
											<index>5</index>
											<numchannels>1</numchannels>
											<downmix>0</downmix>
											<channel>
												<index>5</index>
											</channel>
										</group>
										<group>
											<index>6</index>
											<numchannels>1</numchannels>
											<downmix>0</downmix>
											<channel>
												<index>6</index>
											</channel>
										</group>
									</outputs>
									<track TL.SQTrackAudioKeyframeStyle="0" TL.SQTrackShy="0" TL.SQTrackExpandedHeight="77" TL.SQTrackExpanded="1" MZ.TrackTargeted="0" PannerCurrentValue="0" PannerIsInverted="true" PannerStartKeyframe="-91445760000000000,0.,0,0,0,0,0,0" PannerName="Balance" currentExplodedTrackIndex="0" totalExplodedTrackCount="1" premiereTrackType="Stereo">
										<clipitem id="clipitem-933" frameBlend="FALSE" PannerCurrentValue="0.5" PannerKeyframes="" PannerStartKeyframe="-91445760000000000,0.5,0,0,0,0,0,0" PannerIsInverted="true" PannerName="Pan">
											<masterclipid>masterclip-247</masterclipid>
											<name>AA035001.MXF</name>
											<enabled>TRUE</enabled>
											<duration>23184</duration>
											<rate>
												<timebase>25</timebase>
												<ntsc>FALSE</ntsc>
											</rate>
											<start>0</start>
											<end>22301</end>
											<in>883</in>
											<out>23184</out>
											<pixelaspectratio>square</pixelaspectratio>
											<anamorphic>FALSE</anamorphic>
											<file id="file-220">
												<name>AA035001.MXF</name>
												<pathurl>file://localhost/Volumes/Brakka/AdobeLager/Katta/Katta-14xxxx-Smart_eller_overvaaket-Chris/02-Video/IBM%20C300/CONTENTS/CLIPS001/AA0350/AA035001.MXF</pathurl>
												<rate>
													<timebase>25</timebase>
													<ntsc>FALSE</ntsc>
												</rate>
												<duration>23184</duration>
												<timecode>
													<rate>
														<timebase>25</timebase>
														<ntsc>FALSE</ntsc>
													</rate>
													<string>06:21:13:23</string>
													<frame>571848</frame>
													<displayformat>NDF</displayformat>
													<reel>
														<name></name>
													</reel>
												</timecode>
												<media>
													<video>
														<duration>18000</duration>
														<samplecharacteristics>
															<rate>
																<timebase>25</timebase>
																<ntsc>FALSE</ntsc>
															</rate>
															<width>1920</width>
															<height>1080</height>
															<anamorphic>FALSE</anamorphic>
															<pixelaspectratio>square</pixelaspectratio>
															<fielddominance>none</fielddominance>
														</samplecharacteristics>
													</video>
													<audio>
														<samplecharacteristics>
															<depth>16</depth>
															<samplerate>48000</samplerate>
														</samplecharacteristics>
														<channelcount>1</channelcount>
														<layout>mono</layout>
														<audiochannel>
															<sourcechannel>1</sourcechannel>
															<channellabel>discrete</channellabel>
														</audiochannel>
													</audio>
													<audio>
														<samplecharacteristics>
															<depth>16</depth>
															<samplerate>48000</samplerate>
														</samplecharacteristics>
														<channelcount>1</channelcount>
														<layout>mono</layout>
														<audiochannel>
															<sourcechannel>2</sourcechannel>
															<channellabel>discrete</channellabel>
														</audiochannel>
													</audio>
												</media>
											</file>
											<sourcetrack>
												<mediatype>audio</mediatype>
												<trackindex>1</trackindex>
											</sourcetrack>
												<filter>
													<effect>
														<name>Audio Pan</name>
														<effectid>audiopan</effectid>
														<effectcategory>audiopan</effectcategory>
														<effecttype>audiopan</effecttype>
														<mediatype>audio</mediatype>
														<parameter authoringApp="PremierePro">
															<parameterid>pan</parameterid>
															<name>Pan</name>
															<valuemin>-1</valuemin>
															<valuemax>1</valuemax>
															<value>0</value>
														</parameter>
													</effect>
												</filter>
											<logginginfo>
												<description></description>
												<scene></scene>
												<shottake>AA0350</shottake>
												<lognote></lognote>
											</logginginfo>
											<labels>
												<label2>Iris</label2>
											</labels>
										</clipitem>
										<enabled>TRUE</enabled>
										<locked>FALSE</locked>
										<outputchannelindex>1</outputchannelindex>
									</track>
								</audio>
							</media>
							<timecode>
								<rate>
									<timebase>25</timebase>
									<ntsc>FALSE</ntsc>
								</rate>
								<string>00:00:00:00</string>
								<frame>0</frame>
								<displayformat>NDF</displayformat>
							</timecode>
						</sequence>
							<marker>
								<comment></comment>
								<name></name>
								<in>993</in>
								<out>-1</out>
							</marker>
						<labels>
							<label2>Forest</label2>
						</labels>
					</clipitem>
					<clipitem id="clipitem-939" frameBlend="FALSE">
						<masterclipid>masterclip-246</masterclipid>
						<name>MVI_0361.MOVIBMulti</name>
						<enabled>TRUE</enabled>
						<duration>37748</duration>
						<rate>
							<timebase>25</timebase>
							<ntsc>FALSE</ntsc>
						</rate>
						<start>39420</start>
						<end>39458</end>
						<in>4185</in>
						<out>4223</out>
						<sequence id="sequence-110"/>
							<marker>
								<comment></comment>
								<name></name>
								<in>993</in>
								<out>-1</out>
							</marker>
						<link>
							<linkclipref>clipitem-939</linkclipref>
							<mediatype>video</mediatype>
							<trackindex>1</trackindex>
							<clipindex>350</clipindex>
						</link>
						<link>
							<linkclipref>clipitem-1328</linkclipref>
							<mediatype>audio</mediatype>
							<trackindex>1</trackindex>
							<clipindex>170</clipindex>
						</link>
						<link>
							<linkclipref>clipitem-1475</linkclipref>
							<mediatype>audio</mediatype>
							<trackindex>3</trackindex>
							<clipindex>124</clipindex>
						</link>
						<labels>
							<label2>Forest</label2>
						</labels>
					</clipitem>
					<clipitem id="clipitem-940" frameBlend="FALSE">
						<masterclipid>masterclip-246</masterclipid>
						<name>MVI_0361.MOVIBMulti</name>
						<enabled>TRUE</enabled>
						<duration>37748</duration>
						<rate>
							<timebase>25</timebase>
							<ntsc>FALSE</ntsc>
						</rate>
						<start>39458</start>
						<end>39570</end>
						<in>4386</in>
						<out>4498</out>
						<sequence id="sequence-107"/>
							<marker>
								<comment></comment>
								<name></name>
								<in>993</in>
								<out>-1</out>
							</marker>
						<labels>
							<label2>Forest</label2>
						</labels>
					</clipitem>
					<clipitem id="clipitem-941" frameBlend="FALSE">
						<masterclipid>masterclip-246</masterclipid>
						<name>MVI_0361.MOVIBMulti</name>
						<enabled>TRUE</enabled>
						<duration>37748</duration>
						<rate>
							<timebase>25</timebase>
							<ntsc>FALSE</ntsc>
						</rate>
						<start>39570</start>
						<end>39587</end>
						<in>5069</in>
						<out>5086</out>
						<sequence id="sequence-110"/>
							<marker>
								<comment></comment>
								<name></name>
								<in>993</in>
								<out>-1</out>
							</marker>
						<labels>
							<label2>Forest</label2>
						</labels>
					</clipitem>
					<clipitem id="clipitem-942" frameBlend="FALSE">
						<masterclipid>masterclip-246</masterclipid>
						<name>MVI_0361.MOVIBMulti</name>
						<enabled>TRUE</enabled>
						<duration>37748</duration>
						<rate>
							<timebase>25</timebase>
							<ntsc>FALSE</ntsc>
						</rate>
						<start>39587</start>
						<end>39723</end>
						<in>4652</in>
						<out>4788</out>
						<sequence id="sequence-107"/>
							<marker>
								<comment></comment>
								<name></name>
								<in>993</in>
								<out>-1</out>
							</marker>
						<labels>
							<label2>Forest</label2>
						</labels>
					</clipitem>
					<clipitem id="clipitem-943" frameBlend="FALSE">
						<masterclipid>masterclip-246</masterclipid>
						<name>MVI_0361.MOVIBMulti</name>
						<enabled>TRUE</enabled>
						<duration>37748</duration>
						<rate>
							<timebase>25</timebase>
							<ntsc>FALSE</ntsc>
						</rate>
						<start>39723</start>
						<end>39791</end>
						<in>4788</in>
						<out>4856</out>
						<sequence id="sequence-110"/>
							<marker>
								<comment></comment>
								<name></name>
								<in>993</in>
								<out>-1</out>
							</marker>
						<labels>
							<label2>Forest</label2>
						</labels>
					</clipitem>
					<clipitem id="clipitem-944" frameBlend="FALSE">
						<masterclipid>masterclip-246</masterclipid>
						<name>MVI_0361.MOVIBMulti</name>
						<enabled>TRUE</enabled>
						<duration>37748</duration>
						<rate>
							<timebase>25</timebase>
							<ntsc>FALSE</ntsc>
						</rate>
						<start>39791</start>
						<end>39825</end>
						<in>4882</in>
						<out>4916</out>
						<sequence id="sequence-107"/>
							<marker>
								<comment></comment>
								<name></name>
								<in>993</in>
								<out>-1</out>
							</marker>
						<labels>
							<label2>Forest</label2>
						</labels>
					</clipitem>
					<clipitem id="clipitem-945" frameBlend="FALSE">
						<masterclipid>masterclip-250</masterclipid>
						<name>Rio Command Center (IBM).mp4</name>
						<enabled>TRUE</enabled>
						<duration>10144</duration>
						<rate>
							<timebase>25</timebase>
							<ntsc>FALSE</ntsc>
						</rate>
						<start>39825</start>
						<end>39996</end>
						<in>2076</in>
						<out>2247</out>
						<alphatype>black</alphatype>
						<pixelaspectratio>square</pixelaspectratio>
						<anamorphic>FALSE</anamorphic>
						<file id="file-223">
							<name>Rio Command Center (IBM).mp4</name>
							<pathurl>file://localhost/Volumes/Brakka/AdobeLager/Katta/Katta-14xxxx-Smart_eller_overvaaket-Chris/02-Video/Arkiv/Rio%20Command%20Center%20(IBM).mp4</pathurl>
							<rate>
								<timebase>30</timebase>
								<ntsc>TRUE</ntsc>
							</rate>
							<duration>12161</duration>
							<timecode>
								<rate>
									<timebase>30</timebase>
									<ntsc>TRUE</ntsc>
								</rate>
								<string>00:00:00:00</string>
								<frame>0</frame>
								<displayformat>NDF</displayformat>
								<reel>
									<name></name>
								</reel>
							</timecode>
							<media>
								<video>
									<duration>18000</duration>
									<samplecharacteristics>
										<rate>
											<timebase>30</timebase>
											<ntsc>TRUE</ntsc>
										</rate>
										<width>1920</width>
										<height>1080</height>
										<anamorphic>FALSE</anamorphic>
										<pixelaspectratio>square</pixelaspectratio>
										<fielddominance>none</fielddominance>
									</samplecharacteristics>
								</video>
								<audio>
									<samplecharacteristics>
										<depth>16</depth>
										<samplerate>48000</samplerate>
									</samplecharacteristics>
									<channelcount>1</channelcount>
									<layout>mono</layout>
									<audiochannel>
										<sourcechannel>1</sourcechannel>
										<channellabel>discrete</channellabel>
									</audiochannel>
								</audio>
								<audio>
									<samplecharacteristics>
										<depth>16</depth>
										<samplerate>48000</samplerate>
									</samplecharacteristics>
									<channelcount>1</channelcount>
									<layout>mono</layout>
									<audiochannel>
										<sourcechannel>2</sourcechannel>
										<channellabel>discrete</channellabel>
									</audiochannel>
								</audio>
							</media>
						</file>
						<logginginfo>
							<description></description>
							<scene></scene>
							<shottake></shottake>
							<lognote></lognote>
						</logginginfo>
						<labels>
							<label2>Iris</label2>
						</labels>
					</clipitem>
					<clipitem id="clipitem-946" frameBlend="FALSE">
						<masterclipid>masterclip-250</masterclipid>
						<name>Rio Command Center (IBM).mp4</name>
						<enabled>TRUE</enabled>
						<duration>10144</duration>
						<rate>
							<timebase>25</timebase>
							<ntsc>FALSE</ntsc>
						</rate>
						<start>39996</start>
						<end>40141</end>
						<in>1926</in>
						<out>2071</out>
						<alphatype>black</alphatype>
						<file id="file-223"/>
						<logginginfo>
							<description></description>
							<scene></scene>
							<shottake></shottake>
							<lognote></lognote>
						</logginginfo>
						<labels>
							<label2>Iris</label2>
						</labels>
					</clipitem>
					<clipitem id="clipitem-947" frameBlend="FALSE">
						<masterclipid>masterclip-246</masterclipid>
						<name>MVI_0361.MOVIBMulti</name>
						<enabled>TRUE</enabled>
						<duration>37748</duration>
						<rate>
							<timebase>25</timebase>
							<ntsc>FALSE</ntsc>
						</rate>
						<start>40141</start>
						<end>40171</end>
						<in>6416</in>
						<out>6446</out>
						<sequence id="sequence-110"/>
							<marker>
								<comment></comment>
								<name></name>
								<in>993</in>
								<out>-1</out>
							</marker>
						<labels>
							<label2>Forest</label2>
						</labels>
					</clipitem>
					<clipitem id="clipitem-948" frameBlend="FALSE">
						<masterclipid>masterclip-246</masterclipid>
						<name>MVI_0361.MOVIBMulti</name>
						<enabled>TRUE</enabled>
						<duration>37748</duration>
						<rate>
							<timebase>25</timebase>
							<ntsc>FALSE</ntsc>
						</rate>
						<start>40171</start>
						<end>40205</end>
						<in>6072</in>
						<out>6106</out>
						<sequence id="sequence-107"/>
							<marker>
								<comment></comment>
								<name></name>
								<in>993</in>
								<out>-1</out>
							</marker>
						<labels>
							<label2>Forest</label2>
						</labels>
					</clipitem>
					<clipitem id="clipitem-949" frameBlend="FALSE">
						<masterclipid>masterclip-246</masterclipid>
						<name>MVI_0361.MOVIBMulti</name>
						<enabled>TRUE</enabled>
						<duration>37748</duration>
						<rate>
							<timebase>25</timebase>
							<ntsc>FALSE</ntsc>
						</rate>
						<start>40205</start>
						<end>40327</end>
						<in>6106</in>
						<out>6228</out>
						<sequence id="sequence-110"/>
							<marker>
								<comment></comment>
								<name></name>
								<in>993</in>
								<out>-1</out>
							</marker>
						<labels>
							<label2>Forest</label2>
						</labels>
					</clipitem>
					<clipitem id="clipitem-950" frameBlend="FALSE">
						<masterclipid>masterclip-246</masterclipid>
						<name>MVI_0361.MOVIBMulti</name>
						<enabled>TRUE</enabled>
						<duration>37748</duration>
						<rate>
							<timebase>25</timebase>
							<ntsc>FALSE</ntsc>
						</rate>
						<start>40327</start>
						<end>40371</end>
						<in>6337</in>
						<out>6381</out>
						<sequence id="sequence-107"/>
							<marker>
								<comment></comment>
								<name></name>
								<in>993</in>
								<out>-1</out>
							</marker>
						<labels>
							<label2>Forest</label2>
						</labels>
					</clipitem>
					<clipitem id="clipitem-951" frameBlend="FALSE">
						<masterclipid>masterclip-250</masterclipid>
						<name>Rio Command Center (IBM).mp4</name>
						<enabled>TRUE</enabled>
						<duration>10144</duration>
						<rate>
							<timebase>25</timebase>
							<ntsc>FALSE</ntsc>
						</rate>
						<start>40371</start>
						<end>40472</end>
						<in>1555</in>
						<out>1656</out>
						<alphatype>black</alphatype>
						<file id="file-223"/>
						<logginginfo>
							<description></description>
							<scene></scene>
							<shottake></shottake>
							<lognote></lognote>
						</logginginfo>
						<labels>
							<label2>Iris</label2>
						</labels>
					</clipitem>
					<clipitem id="clipitem-952" frameBlend="FALSE">
						<masterclipid>masterclip-41</masterclipid>
						<name>MVI_9579.MOV</name>
						<enabled>TRUE</enabled>
						<duration>1983</duration>
						<rate>
							<timebase>25</timebase>
							<ntsc>FALSE</ntsc>
						</rate>
						<start>40472</start>
						<end>40513</end>
						<in>1842</in>
						<out>1883</out>
						<alphatype>black</alphatype>
						<file id="file-38"/>
							<filter>
								<effect>
									<name>Time Remap</name>
									<effectid>timeremap</effectid>
									<effectcategory>motion</effectcategory>
									<effecttype>motion</effecttype>
									<mediatype>video</mediatype>
									<parameter authoringApp="PremierePro">
										<parameterid>variablespeed</parameterid>
										<name>variablespeed</name>
										<valuemin>0</valuemin>
										<valuemax>1</valuemax>
										<value>0</value>
									</parameter>
									<parameter authoringApp="PremierePro">
										<parameterid>mappedduration</parameterid>
										<name>mappedduration</name>
										<value>
											<timecode>
												<rate>
													<timebase>0</timebase>
												</rate>
												<string>0</string>
												<frame>0</frame>
												<displayformat>NDF</displayformat>
											</timecode>
										</value>
									</parameter>
									<parameter authoringApp="PremierePro">
										<parameterid>speed</parameterid>
										<name>speed</name>
										<valuemin>-100000</valuemin>
										<valuemax>100000</valuemax>
										<value>80</value>
									</parameter>
									<parameter authoringApp="PremierePro">
										<parameterid>reverse</parameterid>
										<name>reverse</name>
										<value>FALSE</value>
									</parameter>
									<parameter authoringApp="PremierePro">
										<parameterid>frameblending</parameterid>
										<name>frameblending</name>
										<value>FALSE</value>
									</parameter>
								</effect>
							</filter>
						<logginginfo>
							<description></description>
							<scene></scene>
							<shottake></shottake>
							<lognote></lognote>
						</logginginfo>
						<labels>
							<label2>Iris</label2>
						</labels>
					</clipitem>
					<clipitem id="clipitem-953" frameBlend="FALSE">
						<masterclipid>masterclip-100</masterclipid>
						<name>MVI_0132.MOV</name>
						<enabled>TRUE</enabled>
						<duration>454</duration>
						<rate>
							<timebase>25</timebase>
							<ntsc>FALSE</ntsc>
						</rate>
						<start>40513</start>
						<end>40563</end>
						<in>141</in>
						<out>191</out>
						<alphatype>black</alphatype>
						<file id="file-89"/>
						<logginginfo>
							<description></description>
							<scene></scene>
							<shottake></shottake>
							<lognote></lognote>
						</logginginfo>
						<labels>
							<label2>Iris</label2>
						</labels>
					</clipitem>
					<clipitem id="clipitem-954" frameBlend="FALSE">
						<masterclipid>masterclip-220</masterclipid>
						<name>Chris 479276291_h2.mov</name>
						<enabled>TRUE</enabled>
						<duration>559</duration>
						<rate>
							<timebase>25</timebase>
							<ntsc>FALSE</ntsc>
						</rate>
						<start>40563</start>
						<end>40637</end>
						<in>253</in>
						<out>327</out>
						<alphatype>none</alphatype>
						<file id="file-197"/>
						<logginginfo>
							<description></description>
							<scene></scene>
							<shottake></shottake>
							<lognote></lognote>
						</logginginfo>
						<labels>
							<label2>Violet</label2>
						</labels>
					</clipitem>
					<clipitem id="clipitem-955" frameBlend="FALSE">
						<masterclipid>masterclip-251</masterclipid>
						<name>Chris 475125157_h2.mov</name>
						<enabled>TRUE</enabled>
						<duration>689</duration>
						<rate>
							<timebase>25</timebase>
							<ntsc>FALSE</ntsc>
						</rate>
						<start>40637</start>
						<end>40664</end>
						<in>260</in>
						<out>287</out>
						<alphatype>none</alphatype>
						<pixelaspectratio>square</pixelaspectratio>
						<anamorphic>FALSE</anamorphic>
						<file id="file-224">
							<name>Chris 475125157_h2.mov</name>
							<pathurl>file://localhost/Volumes/Brakka/AdobeLager/Katta/Katta-14xxxx-Smart_eller_overvaaket-Chris/02-Video/Arkiv/Chris%20475125157_h2.mov</pathurl>
							<rate>
								<timebase>30</timebase>
								<ntsc>TRUE</ntsc>
							</rate>
							<duration>827</duration>
							<timecode>
								<rate>
									<timebase>30</timebase>
									<ntsc>TRUE</ntsc>
								</rate>
								<string>00:00:00:00</string>
								<frame>0</frame>
								<displayformat>NDF</displayformat>
								<reel>
									<name></name>
								</reel>
							</timecode>
							<media>
								<video>
									<duration>18000</duration>
									<samplecharacteristics>
										<rate>
											<timebase>30</timebase>
											<ntsc>TRUE</ntsc>
										</rate>
										<width>1920</width>
										<height>1080</height>
										<anamorphic>FALSE</anamorphic>
										<pixelaspectratio>square</pixelaspectratio>
										<fielddominance>none</fielddominance>
									</samplecharacteristics>
								</video>
							</media>
						</file>
						<logginginfo>
							<description></description>
							<scene></scene>
							<shottake></shottake>
							<lognote></lognote>
						</logginginfo>
						<labels>
							<label2>Violet</label2>
						</labels>
					</clipitem>
					<clipitem id="clipitem-956" frameBlend="FALSE">
						<masterclipid>masterclip-252</masterclipid>
						<name>Chris 470719271_h2.mov</name>
						<enabled>TRUE</enabled>
						<duration>735</duration>
						<rate>
							<timebase>25</timebase>
							<ntsc>FALSE</ntsc>
						</rate>
						<start>40664</start>
						<end>40705</end>
						<in>153</in>
						<out>194</out>
						<alphatype>none</alphatype>
						<pixelaspectratio>square</pixelaspectratio>
						<anamorphic>FALSE</anamorphic>
						<file id="file-225">
							<name>Chris 470719271_h2.mov</name>
							<pathurl>file://localhost/Volumes/Brakka/AdobeLager/Katta/Katta-14xxxx-Smart_eller_overvaaket-Chris/02-Video/Arkiv/Chris%20470719271_h2.mov</pathurl>
							<rate>
								<timebase>30</timebase>
								<ntsc>TRUE</ntsc>
							</rate>
							<duration>882</duration>
							<timecode>
								<rate>
									<timebase>30</timebase>
									<ntsc>TRUE</ntsc>
								</rate>
								<string>00:00:00:00</string>
								<frame>0</frame>
								<displayformat>NDF</displayformat>
								<reel>
									<name></name>
								</reel>
							</timecode>
							<media>
								<video>
									<duration>18000</duration>
									<samplecharacteristics>
										<rate>
											<timebase>30</timebase>
											<ntsc>TRUE</ntsc>
										</rate>
										<width>1920</width>
										<height>1080</height>
										<anamorphic>FALSE</anamorphic>
										<pixelaspectratio>square</pixelaspectratio>
										<fielddominance>none</fielddominance>
									</samplecharacteristics>
								</video>
							</media>
						</file>
						<logginginfo>
							<description></description>
							<scene></scene>
							<shottake></shottake>
							<lognote></lognote>
						</logginginfo>
						<labels>
							<label2>Violet</label2>
						</labels>
					</clipitem>
					<clipitem id="clipitem-957" frameBlend="FALSE">
						<masterclipid>masterclip-253</masterclipid>
						<name>Chris 469115669_h2.mov</name>
						<enabled>TRUE</enabled>
						<duration>276</duration>
						<rate>
							<timebase>25</timebase>
							<ntsc>FALSE</ntsc>
						</rate>
						<start>40705</start>
						<end>40734</end>
						<in>139</in>
						<out>168</out>
						<alphatype>none</alphatype>
						<pixelaspectratio>square</pixelaspectratio>
						<anamorphic>FALSE</anamorphic>
						<file id="file-226">
							<name>Chris 469115669_h2.mov</name>
							<pathurl>file://localhost/Volumes/Brakka/AdobeLager/Katta/Katta-14xxxx-Smart_eller_overvaaket-Chris/02-Video/Arkiv/Chris%20469115669_h2.mov</pathurl>
							<rate>
								<timebase>30</timebase>
								<ntsc>TRUE</ntsc>
							</rate>
							<duration>331</duration>
							<timecode>
								<rate>
									<timebase>30</timebase>
									<ntsc>TRUE</ntsc>
								</rate>
								<string>00:00:00:00</string>
								<frame>0</frame>
								<displayformat>NDF</displayformat>
								<reel>
									<name></name>
								</reel>
							</timecode>
							<media>
								<video>
									<duration>18000</duration>
									<samplecharacteristics>
										<rate>
											<timebase>30</timebase>
											<ntsc>TRUE</ntsc>
										</rate>
										<width>1920</width>
										<height>1080</height>
										<anamorphic>FALSE</anamorphic>
										<pixelaspectratio>square</pixelaspectratio>
										<fielddominance>none</fielddominance>
									</samplecharacteristics>
								</video>
							</media>
						</file>
						<logginginfo>
							<description></description>
							<scene></scene>
							<shottake></shottake>
							<lognote></lognote>
						</logginginfo>
						<labels>
							<label2>Violet</label2>
						</labels>
					</clipitem>
					<clipitem id="clipitem-958" frameBlend="FALSE">
						<masterclipid>masterclip-224</masterclipid>
						<name>AA007701.MXFMulticam</name>
						<enabled>TRUE</enabled>
						<duration>18052</duration>
						<rate>
							<timebase>25</timebase>
							<ntsc>FALSE</ntsc>
						</rate>
						<start>40734</start>
						<end>40794</end>
						<in>6935</in>
						<out>6995</out>
						<sequence id="sequence-97"/>
							<filter>
								<effect>
									<name>Time Remap</name>
									<effectid>timeremap</effectid>
									<effectcategory>motion</effectcategory>
									<effecttype>motion</effecttype>
									<mediatype>video</mediatype>
									<parameter authoringApp="PremierePro">
										<parameterid>variablespeed</parameterid>
										<name>variablespeed</name>
										<valuemin>0</valuemin>
										<valuemax>1</valuemax>
										<value>0</value>
									</parameter>
									<parameter authoringApp="PremierePro">
										<parameterid>mappedduration</parameterid>
										<name>mappedduration</name>
										<value>
											<timecode>
												<rate>
													<timebase>0</timebase>
												</rate>
												<string>0</string>
												<frame>0</frame>
												<displayformat>NDF</displayformat>
											</timecode>
										</value>
									</parameter>
									<parameter authoringApp="PremierePro">
										<parameterid>speed</parameterid>
										<name>speed</name>
										<valuemin>-100000</valuemin>
										<valuemax>100000</valuemax>
										<value>80</value>
									</parameter>
									<parameter authoringApp="PremierePro">
										<parameterid>reverse</parameterid>
										<name>reverse</name>
										<value>FALSE</value>
									</parameter>
									<parameter authoringApp="PremierePro">
										<parameterid>frameblending</parameterid>
										<name>frameblending</name>
										<value>FALSE</value>
									</parameter>
								</effect>
							</filter>
							<marker>
								<comment>du fￃﾥ rtildelt en parkering i parkeringshuset</comment>
								<name></name>
								<in>12730</in>
								<out>-1</out>
							</marker>
						<labels>
							<label2>Mango</label2>
						</labels>
					</clipitem>
					<clipitem id="clipitem-959" frameBlend="FALSE">
						<masterclipid>masterclip-254</masterclipid>
						<name>Chris 160186996_h9.mov</name>
						<enabled>TRUE</enabled>
						<duration>550</duration>
						<rate>
							<timebase>25</timebase>
							<ntsc>FALSE</ntsc>
						</rate>
						<start>40794</start>
						<end>41001</end>
						<in>190</in>
						<out>397</out>
						<alphatype>none</alphatype>
						<pixelaspectratio>square</pixelaspectratio>
						<anamorphic>FALSE</anamorphic>
						<file id="file-227">
							<name>Chris 160186996_h9.mov</name>
							<pathurl>file://localhost/Volumes/Brakka/AdobeLager/Katta/Katta-14xxxx-Smart_eller_overvaaket-Chris/02-Video/Arkiv/Chris%20160186996_h9.mov</pathurl>
							<rate>
								<timebase>30</timebase>
								<ntsc>FALSE</ntsc>
							</rate>
							<duration>660</duration>
							<timecode>
								<rate>
									<timebase>30</timebase>
									<ntsc>FALSE</ntsc>
								</rate>
								<string>00:00:00:00</string>
								<frame>0</frame>
								<displayformat>NDF</displayformat>
								<reel>
									<name></name>
								</reel>
							</timecode>
							<media>
								<video>
									<duration>18000</duration>
									<samplecharacteristics>
										<rate>
											<timebase>30</timebase>
											<ntsc>FALSE</ntsc>
										</rate>
										<width>1920</width>
										<height>1080</height>
										<anamorphic>FALSE</anamorphic>
										<pixelaspectratio>square</pixelaspectratio>
										<fielddominance>none</fielddominance>
									</samplecharacteristics>
								</video>
							</media>
						</file>
						<logginginfo>
							<description></description>
							<scene></scene>
							<shottake></shottake>
							<lognote></lognote>
						</logginginfo>
						<labels>
							<label2>Violet</label2>
						</labels>
					</clipitem>
					<clipitem id="clipitem-960" frameBlend="FALSE">
						<masterclipid>masterclip-232</masterclipid>
						<name>MVI_0382.MOVIBMulti</name>
						<enabled>TRUE</enabled>
						<duration>13702</duration>
						<rate>
							<timebase>25</timebase>
							<ntsc>FALSE</ntsc>
						</rate>
						<start>41001</start>
						<end>41180</end>
						<in>6923</in>
						<out>7102</out>
						<sequence id="sequence-99"/>
						<link>
							<linkclipref>clipitem-960</linkclipref>
							<mediatype>video</mediatype>
							<trackindex>1</trackindex>
							<clipindex>371</clipindex>
						</link>
						<link>
							<linkclipref>clipitem-1337</linkclipref>
							<mediatype>audio</mediatype>
							<trackindex>1</trackindex>
							<clipindex>181</clipindex>
						</link>
						<link>
							<linkclipref>clipitem-1484</linkclipref>
							<mediatype>audio</mediatype>
							<trackindex>3</trackindex>
							<clipindex>135</clipindex>
						</link>
						<labels>
							<label2>Forest</label2>
						</labels>
					</clipitem>
					<clipitem id="clipitem-961" frameBlend="FALSE">
						<masterclipid>masterclip-232</masterclipid>
						<name>MVI_0382.MOVIBMulti</name>
						<enabled>TRUE</enabled>
						<duration>13702</duration>
						<rate>
							<timebase>25</timebase>
							<ntsc>FALSE</ntsc>
						</rate>
						<start>41180</start>
						<end>41296</end>
						<in>7609</in>
						<out>7725</out>
						<sequence id="sequence-101"/>
						<link>
							<linkclipref>clipitem-961</linkclipref>
							<mediatype>video</mediatype>
							<trackindex>1</trackindex>
							<clipindex>372</clipindex>
						</link>
						<link>
							<linkclipref>clipitem-1347</linkclipref>
							<mediatype>audio</mediatype>
							<trackindex>1</trackindex>
							<clipindex>182</clipindex>
						</link>
						<link>
							<linkclipref>clipitem-1485</linkclipref>
							<mediatype>audio</mediatype>
							<trackindex>3</trackindex>
							<clipindex>136</clipindex>
						</link>
						<labels>
							<label2>Forest</label2>
						</labels>
					</clipitem>
					<clipitem id="clipitem-962" frameBlend="FALSE">
						<masterclipid>masterclip-232</masterclipid>
						<name>MVI_0382.MOVIBMulti</name>
						<enabled>TRUE</enabled>
						<duration>13702</duration>
						<rate>
							<timebase>25</timebase>
							<ntsc>FALSE</ntsc>
						</rate>
						<start>41296</start>
						<end>41421</end>
						<in>7725</in>
						<out>7850</out>
						<sequence id="sequence-99"/>
						<labels>
							<label2>Forest</label2>
						</labels>
					</clipitem>
					<clipitem id="clipitem-963" frameBlend="FALSE">
						<masterclipid>masterclip-232</masterclipid>
						<name>MVI_0382.MOVIBMulti</name>
						<enabled>TRUE</enabled>
						<duration>13702</duration>
						<rate>
							<timebase>25</timebase>
							<ntsc>FALSE</ntsc>
						</rate>
						<start>41421</start>
						<end>41603</end>
						<in>8017</in>
						<out>8199</out>
						<sequence id="sequence-101"/>
						<labels>
							<label2>Forest</label2>
						</labels>
					</clipitem>
					<clipitem id="clipitem-964" frameBlend="FALSE">
						<masterclipid>masterclip-232</masterclipid>
						<name>MVI_0382.MOVIBMulti</name>
						<enabled>TRUE</enabled>
						<duration>13702</duration>
						<rate>
							<timebase>25</timebase>
							<ntsc>FALSE</ntsc>
						</rate>
						<start>41603</start>
						<end>41681</end>
						<in>11405</in>
						<out>11483</out>
						<sequence id="sequence-99"/>
						<labels>
							<label2>Forest</label2>
						</labels>
					</clipitem>
					<clipitem id="clipitem-965" frameBlend="FALSE">
						<masterclipid>masterclip-232</masterclipid>
						<name>MVI_0382.MOVIBMulti</name>
						<enabled>TRUE</enabled>
						<duration>13702</duration>
						<rate>
							<timebase>25</timebase>
							<ntsc>FALSE</ntsc>
						</rate>
						<start>41681</start>
						<end>41806</end>
						<in>11483</in>
						<out>11608</out>
						<sequence id="sequence-101"/>
						<labels>
							<label2>Forest</label2>
						</labels>
					</clipitem>
					<clipitem id="clipitem-966" frameBlend="FALSE">
						<masterclipid>masterclip-232</masterclipid>
						<name>MVI_0382.MOVIBMulti</name>
						<enabled>TRUE</enabled>
						<duration>13702</duration>
						<rate>
							<timebase>25</timebase>
							<ntsc>FALSE</ntsc>
						</rate>
						<start>41806</start>
						<end>41852</end>
						<in>11608</in>
						<out>11654</out>
						<sequence id="sequence-99"/>
						<labels>
							<label2>Forest</label2>
						</labels>
					</clipitem>
					<clipitem id="clipitem-967" frameBlend="FALSE">
						<masterclipid>masterclip-232</masterclipid>
						<name>MVI_0382.MOVIBMulti</name>
						<enabled>TRUE</enabled>
						<duration>13702</duration>
						<rate>
							<timebase>25</timebase>
							<ntsc>FALSE</ntsc>
						</rate>
						<start>41852</start>
						<end>41900</end>
						<in>11654</in>
						<out>11702</out>
						<sequence id="sequence-101"/>
						<labels>
							<label2>Forest</label2>
						</labels>
					</clipitem>
					<clipitem id="clipitem-968" frameBlend="FALSE">
						<masterclipid>masterclip-232</masterclipid>
						<name>MVI_0382.MOVIBMulti</name>
						<enabled>TRUE</enabled>
						<duration>13702</duration>
						<rate>
							<timebase>25</timebase>
							<ntsc>FALSE</ntsc>
						</rate>
						<start>41900</start>
						<end>41918</end>
						<in>11718</in>
						<out>11736</out>
						<sequence id="sequence-99"/>
						<labels>
							<label2>Forest</label2>
						</labels>
					</clipitem>
					<clipitem id="clipitem-969" frameBlend="FALSE">
						<masterclipid>masterclip-255</masterclipid>
						<name>Felles_Avslutning3.MOV</name>
						<enabled>TRUE</enabled>
						<duration>1250</duration>
						<rate>
							<timebase>25</timebase>
							<ntsc>FALSE</ntsc>
						</rate>
						<start>41918</start>
						<end>43070</end>
						<in>75</in>
						<out>1227</out>
						<alphatype>black</alphatype>
						<pixelaspectratio>square</pixelaspectratio>
						<anamorphic>FALSE</anamorphic>
						<file id="file-228">
							<name>Felles_Avslutning3.MOV</name>
							<pathurl>file://localhost/Volumes/Brakka/AdobeLager/Katta/Katta-14xxxx-Smart_eller_overvaaket-Chris/02-Video/Mobilvideo%20restopptak%20begge/Felles_Avslutning3.MOV</pathurl>
							<rate>
								<timebase>30</timebase>
								<ntsc>FALSE</ntsc>
							</rate>
							<duration>1501</duration>
							<timecode>
								<rate>
									<timebase>30</timebase>
									<ntsc>FALSE</ntsc>
								</rate>
								<string>00:00:00:00</string>
								<frame>0</frame>
								<displayformat>NDF</displayformat>
								<reel>
									<name></name>
								</reel>
							</timecode>
							<media>
								<video>
									<duration>18000</duration>
									<samplecharacteristics>
										<rate>
											<timebase>30</timebase>
											<ntsc>FALSE</ntsc>
										</rate>
										<width>1280</width>
										<height>720</height>
										<anamorphic>FALSE</anamorphic>
										<pixelaspectratio>square</pixelaspectratio>
										<fielddominance>none</fielddominance>
									</samplecharacteristics>
								</video>
								<audio>
									<samplecharacteristics>
										<depth>16</depth>
										<samplerate>44100</samplerate>
									</samplecharacteristics>
									<channelcount>1</channelcount>
									<layout>mono</layout>
									<audiochannel>
										<sourcechannel>1</sourcechannel>
										<channellabel>discrete</channellabel>
									</audiochannel>
								</audio>
							</media>
						</file>
						<link>
							<linkclipref>clipitem-969</linkclipref>
							<mediatype>video</mediatype>
							<trackindex>1</trackindex>
							<clipindex>380</clipindex>
						</link>
						<link>
							<linkclipref>clipitem-1352</linkclipref>
							<mediatype>audio</mediatype>
							<trackindex>1</trackindex>
							<clipindex>187</clipindex>
						</link>
						<logginginfo>
							<description></description>
							<scene></scene>
							<shottake></shottake>
							<lognote></lognote>
						</logginginfo>
						<labels>
							<label2>Iris</label2>
						</labels>
					</clipitem>
					<clipitem id="clipitem-970" frameBlend="FALSE">
						<masterclipid>masterclip-256</masterclipid>
						<name>Rio (IBM).mov</name>
						<enabled>TRUE</enabled>
						<duration>10510</duration>
						<rate>
							<timebase>25</timebase>
							<ntsc>FALSE</ntsc>
						</rate>
						<start>43070</start>
						<end>43247</end>
						<in>7792</in>
						<out>7969</out>
						<alphatype>black</alphatype>
						<pixelaspectratio>square</pixelaspectratio>
						<anamorphic>FALSE</anamorphic>
						<file id="file-229">
							<name>Rio (IBM).mov</name>
							<pathurl>file://localhost/Volumes/Brakka/AdobeLager/Katta/Katta-14xxxx-Smart_eller_overvaaket-Chris/02-Video/Arkiv/Rio%20(IBM).mov</pathurl>
							<rate>
								<timebase>30</timebase>
								<ntsc>TRUE</ntsc>
							</rate>
							<duration>12600</duration>
							<timecode>
								<rate>
									<timebase>30</timebase>
									<ntsc>TRUE</ntsc>
								</rate>
								<string>00:00:00:00</string>
								<frame>0</frame>
								<displayformat>NDF</displayformat>
								<reel>
									<name></name>
								</reel>
							</timecode>
							<media>
								<video>
									<duration>18000</duration>
									<samplecharacteristics>
										<rate>
											<timebase>30</timebase>
											<ntsc>TRUE</ntsc>
										</rate>
										<width>1280</width>
										<height>720</height>
										<anamorphic>FALSE</anamorphic>
										<pixelaspectratio>square</pixelaspectratio>
										<fielddominance>none</fielddominance>
									</samplecharacteristics>
								</video>
								<audio>
									<samplecharacteristics>
										<depth>16</depth>
										<samplerate>48000</samplerate>
									</samplecharacteristics>
									<channelcount>2</channelcount>
								</audio>
							</media>
						</file>
						<link>
							<linkclipref>clipitem-970</linkclipref>
							<mediatype>video</mediatype>
							<trackindex>1</trackindex>
							<clipindex>381</clipindex>
						</link>
						<link>
							<linkclipref>clipitem-1353</linkclipref>
							<mediatype>audio</mediatype>
							<trackindex>1</trackindex>
							<clipindex>188</clipindex>
						</link>
						<link>
							<linkclipref>clipitem-1356</linkclipref>
							<mediatype>audio</mediatype>
							<trackindex>2</trackindex>
							<clipindex>3</clipindex>
						</link>
						<logginginfo>
							<description></description>
							<scene></scene>
							<shottake></shottake>
							<lognote></lognote>
						</logginginfo>
						<labels>
							<label2>Iris</label2>
						</labels>
					</clipitem>
					<clipitem id="clipitem-971" frameBlend="FALSE">
						<masterclipid>masterclip-257</masterclipid>
						<name>NRK_sluttplakat_2014.mov</name>
						<enabled>TRUE</enabled>
						<duration>125</duration>
						<rate>
							<timebase>25</timebase>
							<ntsc>FALSE</ntsc>
						</rate>
						<start>43247</start>
						<end>43342</end>
						<in>0</in>
						<out>95</out>
						<alphatype>none</alphatype>
						<pixelaspectratio>square</pixelaspectratio>
						<anamorphic>FALSE</anamorphic>
						<file id="file-230">
							<name>NRK_sluttplakat_2014.mov</name>
							<pathurl>file://localhost/Volumes/Brakka/Katta/Katta%20Grafikk%20og%20maler/Sluttplakat-2014/NRK_sluttplakat_2014.mov</pathurl>
							<rate>
								<timebase>25</timebase>
								<ntsc>FALSE</ntsc>
							</rate>
							<duration>125</duration>
							<timecode>
								<rate>
									<timebase>25</timebase>
									<ntsc>FALSE</ntsc>
								</rate>
								<string>00:00:00:00</string>
								<frame>0</frame>
								<displayformat>NDF</displayformat>
								<reel>
									<name></name>
								</reel>
							</timecode>
							<media>
								<video>
									<duration>18000</duration>
									<samplecharacteristics>
										<rate>
											<timebase>25</timebase>
											<ntsc>FALSE</ntsc>
										</rate>
										<width>1920</width>
										<height>1080</height>
										<anamorphic>FALSE</anamorphic>
										<pixelaspectratio>square</pixelaspectratio>
										<fielddominance>none</fielddominance>
									</samplecharacteristics>
								</video>
							</media>
						</file>
						<logginginfo>
							<description></description>
							<scene></scene>
							<shottake></shottake>
							<lognote></lognote>
						</logginginfo>
						<labels>
							<label2>Violet</label2>
						</labels>
					</clipitem>
					<enabled>TRUE</enabled>
					<locked>FALSE</locked>
				</track>
				<track TL.SQTrackShy="0" TL.SQTrackExpandedHeight="33" TL.SQTrackExpanded="1" MZ.TrackTargeted="0">
					<enabled>TRUE</enabled>
					<locked>FALSE</locked>
				</track>
				<track TL.SQTrackShy="0" TL.SQTrackExpandedHeight="31" TL.SQTrackExpanded="1" MZ.TrackTargeted="0">
					<clipitem id="clipitem-972" frameBlend="FALSE">
						<masterclipid>masterclip-258</masterclipid>
						<name>iBeaconG3.mov</name>
						<enabled>TRUE</enabled>
						<duration>506</duration>
						<rate>
							<timebase>25</timebase>
							<ntsc>FALSE</ntsc>
						</rate>
						<start>563</start>
						<end>601</end>
						<in>0</in>
						<out>38</out>
						<alphatype>straight</alphatype>
						<pixelaspectratio>square</pixelaspectratio>
						<anamorphic>FALSE</anamorphic>
						<file id="file-231">
							<name>iBeaconG3.mov</name>
							<pathurl>file://localhost/Volumes/Brakka/AdobeLager/Katta/Katta-14xxxx-Smart_eller_overvaaket-Chris/04-Grafikk/iBeaconG3.mov</pathurl>
							<rate>
								<timebase>25</timebase>
								<ntsc>FALSE</ntsc>
							</rate>
							<duration>506</duration>
							<timecode>
								<rate>
									<timebase>25</timebase>
									<ntsc>FALSE</ntsc>
								</rate>
								<string>00:00:00:00</string>
								<frame>0</frame>
								<displayformat>NDF</displayformat>
								<reel>
									<name></name>
								</reel>
							</timecode>
							<media>
								<video>
									<duration>18000</duration>
									<samplecharacteristics>
										<rate>
											<timebase>25</timebase>
											<ntsc>FALSE</ntsc>
										</rate>
										<width>1920</width>
										<height>1080</height>
										<anamorphic>FALSE</anamorphic>
										<pixelaspectratio>square</pixelaspectratio>
										<fielddominance>upper</fielddominance>
									</samplecharacteristics>
								</video>
							</media>
						</file>
						<logginginfo>
							<description></description>
							<scene></scene>
							<shottake></shottake>
							<lognote></lognote>
						</logginginfo>
						<labels>
							<label2>Violet</label2>
						</labels>
					</clipitem>
					<clipitem id="clipitem-973" frameBlend="FALSE">
						<masterclipid>masterclip-258</masterclipid>
						<name>iBeaconG3.mov</name>
						<enabled>TRUE</enabled>
						<duration>506</duration>
						<rate>
							<timebase>25</timebase>
							<ntsc>FALSE</ntsc>
						</rate>
						<start>601</start>
						<end>643</end>
						<in>340</in>
						<out>382</out>
						<alphatype>straight</alphatype>
						<file id="file-231"/>
						<logginginfo>
							<description></description>
							<scene></scene>
							<shottake></shottake>
							<lognote></lognote>
						</logginginfo>
						<labels>
							<label2>Violet</label2>
						</labels>
					</clipitem>
					<clipitem id="clipitem-974" frameBlend="FALSE">
						<masterclipid>masterclip-259</masterclipid>
						<name>nrk_logo_mitten.jpg</name>
						<enabled>TRUE</enabled>
						<duration>1080000</duration>
						<rate>
							<timebase>25</timebase>
							<ntsc>FALSE</ntsc>
						</rate>
						<start>891</start>
						<end>994</end>
						<in>90005</in>
						<out>90108</out>
						<alphatype>none</alphatype>
						<pixelaspectratio>square</pixelaspectratio>
						<anamorphic>FALSE</anamorphic>
						<file id="file-232">
							<name>nrk_logo_plassering.jpg</name>
							<pathurl>file://localhost/Volumes/Brakka/Katta/Katta%20Grafikk%20og%20maler/Orginal%20vignetter/nrk_logo_plassering.jpg</pathurl>
							<rate>
								<timebase>30</timebase>
								<ntsc>TRUE</ntsc>
							</rate>
							<timecode>
								<rate>
									<timebase>30</timebase>
									<ntsc>TRUE</ntsc>
								</rate>
								<string>00;00;00;00</string>
								<frame>0</frame>
								<displayformat>DF</displayformat>
								<reel>
									<name></name>
								</reel>
							</timecode>
							<media>
								<video>
									<duration>18000</duration>
									<samplecharacteristics>
										<rate>
											<timebase>30</timebase>
											<ntsc>TRUE</ntsc>
										</rate>
										<width>1920</width>
										<height>1080</height>
										<anamorphic>FALSE</anamorphic>
										<pixelaspectratio>square</pixelaspectratio>
										<fielddominance>none</fielddominance>
									</samplecharacteristics>
								</video>
							</media>
						</file>
							<filter>
								<effect>
									<name>Crop</name>
									<effectid>crop</effectid>
									<effectcategory>motion</effectcategory>
									<effecttype>motion</effecttype>
									<mediatype>video</mediatype>
									<parameter authoringApp="PremierePro">
										<parameterid>left</parameterid>
										<name>left</name>
										<valuemin>0</valuemin>
										<valuemax>100</valuemax>
										<value>0</value>
									</parameter>
									<parameter authoringApp="PremierePro">
										<parameterid>right</parameterid>
										<name>right</name>
										<valuemin>0</valuemin>
										<valuemax>100</valuemax>
										<value>0</value>
									</parameter>
									<parameter authoringApp="PremierePro">
										<parameterid>top</parameterid>
										<name>top</name>
										<valuemin>0</valuemin>
										<valuemax>100</valuemax>
										<value>63.1579</value>
									</parameter>
									<parameter authoringApp="PremierePro">
										<parameterid>bottom</parameterid>
										<name>bottom</name>
										<valuemin>0</valuemin>
										<valuemax>100</valuemax>
										<value>11.6461</value>
									</parameter>
								</effect>
							</filter>
							<filter>
								<effect>
									<name>Luma Key</name>
									<effectid>Luma Key</effectid>
									<effectcategory>Key</effectcategory>
									<effecttype>filter</effecttype>
									<mediatype>video</mediatype>
									<parameter authoringApp="PremierePro">
										<parameterid>keymode</parameterid>
										<name>Key Mode</name>
										<valuemin>1</valuemin>
										<valuemax>4</valuemax>
										<value>4</value>
									</parameter>
									<parameter authoringApp="PremierePro">
										<parameterid>threshold</parameterid>
										<name>Threshold</name>
										<valuemin>-100</valuemin>
										<valuemax>100</valuemax>
										<value>100</value>
									</parameter>
									<parameter authoringApp="PremierePro">
										<parameterid>tolerance</parameterid>
										<name>Tolerance</name>
										<valuemin>0</valuemin>
										<valuemax>100</valuemax>
										<value>0</value>
									</parameter>
								</effect>
							</filter>
						<logginginfo>
							<description></description>
							<scene></scene>
							<shottake></shottake>
							<lognote></lognote>
						</logginginfo>
						<labels>
							<label2>Lavender</label2>
						</labels>
					</clipitem>
					<clipitem id="clipitem-975" frameBlend="FALSE">
						<masterclipid>masterclip-260</masterclipid>
						<name>ThinfilmG.mov</name>
						<enabled>TRUE</enabled>
						<duration>500</duration>
						<rate>
							<timebase>25</timebase>
							<ntsc>FALSE</ntsc>
						</rate>
						<start>12165</start>
						<end>12220</end>
						<in>0</in>
						<out>55</out>
						<alphatype>straight</alphatype>
						<pixelaspectratio>square</pixelaspectratio>
						<anamorphic>FALSE</anamorphic>
						<file id="file-233">
							<name>ThinfilmG.mov</name>
							<pathurl>file://localhost/Volumes/Brakka/AdobeLager/Katta/Katta-14xxxx-Smart_eller_overvaaket-Chris/04-Grafikk/ThinfilmG.mov</pathurl>
							<rate>
								<timebase>25</timebase>
								<ntsc>FALSE</ntsc>
							</rate>
							<duration>500</duration>
							<timecode>
								<rate>
									<timebase>25</timebase>
									<ntsc>FALSE</ntsc>
								</rate>
								<string>00:00:00:00</string>
								<frame>0</frame>
								<displayformat>NDF</displayformat>
								<reel>
									<name></name>
								</reel>
							</timecode>
							<media>
								<video>
									<duration>18000</duration>
									<samplecharacteristics>
										<rate>
											<timebase>25</timebase>
											<ntsc>FALSE</ntsc>
										</rate>
										<width>1920</width>
										<height>1080</height>
										<anamorphic>FALSE</anamorphic>
										<pixelaspectratio>square</pixelaspectratio>
										<fielddominance>upper</fielddominance>
									</samplecharacteristics>
								</video>
							</media>
						</file>
						<logginginfo>
							<description></description>
							<scene></scene>
							<shottake></shottake>
							<lognote></lognote>
						</logginginfo>
						<labels>
							<label2>Violet</label2>
						</labels>
					</clipitem>
					<clipitem id="clipitem-976" frameBlend="FALSE">
						<masterclipid>masterclip-260</masterclipid>
						<name>ThinfilmG.mov</name>
						<enabled>TRUE</enabled>
						<duration>500</duration>
						<rate>
							<timebase>25</timebase>
							<ntsc>FALSE</ntsc>
						</rate>
						<start>12220</start>
						<end>12254</end>
						<in>118</in>
						<out>152</out>
						<alphatype>straight</alphatype>
						<file id="file-233"/>
						<logginginfo>
							<description></description>
							<scene></scene>
							<shottake></shottake>
							<lognote></lognote>
						</logginginfo>
						<labels>
							<label2>Violet</label2>
						</labels>
					</clipitem>
					<clipitem id="clipitem-977" frameBlend="FALSE">
						<masterclipid>masterclip-260</masterclipid>
						<name>ThinfilmG.mov</name>
						<enabled>TRUE</enabled>
						<duration>500</duration>
						<rate>
							<timebase>25</timebase>
							<ntsc>FALSE</ntsc>
						</rate>
						<start>12254</start>
						<end>12293</end>
						<in>215</in>
						<out>254</out>
						<alphatype>straight</alphatype>
						<file id="file-233"/>
						<logginginfo>
							<description></description>
							<scene></scene>
							<shottake></shottake>
							<lognote></lognote>
						</logginginfo>
						<labels>
							<label2>Violet</label2>
						</labels>
					</clipitem>
					<clipitem id="clipitem-978" frameBlend="FALSE">
						<masterclipid>masterclip-260</masterclipid>
						<name>ThinfilmG.mov</name>
						<enabled>TRUE</enabled>
						<duration>500</duration>
						<rate>
							<timebase>25</timebase>
							<ntsc>FALSE</ntsc>
						</rate>
						<start>12293</start>
						<end>12369</end>
						<in>397</in>
						<out>473</out>
						<alphatype>straight</alphatype>
						<file id="file-233"/>
						<logginginfo>
							<description></description>
							<scene></scene>
							<shottake></shottake>
							<lognote></lognote>
						</logginginfo>
						<labels>
							<label2>Violet</label2>
						</labels>
					</clipitem>
					<clipitem id="clipitem-979" frameBlend="FALSE">
						<masterclipid>masterclip-258</masterclipid>
						<name>iBeaconG3.mov</name>
						<enabled>TRUE</enabled>
						<duration>506</duration>
						<rate>
							<timebase>25</timebase>
							<ntsc>FALSE</ntsc>
						</rate>
						<start>14433</start>
						<end>14577</end>
						<in>0</in>
						<out>144</out>
						<alphatype>straight</alphatype>
						<file id="file-231"/>
						<logginginfo>
							<description></description>
							<scene></scene>
							<shottake></shottake>
							<lognote></lognote>
						</logginginfo>
						<labels>
							<label2>Violet</label2>
						</labels>
					</clipitem>
					<clipitem id="clipitem-980" frameBlend="FALSE">
						<masterclipid>masterclip-258</masterclipid>
						<name>iBeaconG3.mov</name>
						<enabled>TRUE</enabled>
						<duration>506</duration>
						<rate>
							<timebase>25</timebase>
							<ntsc>FALSE</ntsc>
						</rate>
						<start>14577</start>
						<end>14795</end>
						<in>144</in>
						<out>362</out>
						<alphatype>straight</alphatype>
						<file id="file-231"/>
						<logginginfo>
							<description></description>
							<scene></scene>
							<shottake></shottake>
							<lognote></lognote>
						</logginginfo>
						<labels>
							<label2>Violet</label2>
						</labels>
					</clipitem>
					<clipitem id="clipitem-981" frameBlend="FALSE">
						<masterclipid>masterclip-258</masterclipid>
						<name>iBeaconG3.mov</name>
						<enabled>TRUE</enabled>
						<duration>506</duration>
						<rate>
							<timebase>25</timebase>
							<ntsc>FALSE</ntsc>
						</rate>
						<start>14795</start>
						<end>14835</end>
						<in>362</in>
						<out>402</out>
						<alphatype>straight</alphatype>
						<file id="file-231"/>
						<logginginfo>
							<description></description>
							<scene></scene>
							<shottake></shottake>
							<lognote></lognote>
						</logginginfo>
						<labels>
							<label2>Violet</label2>
						</labels>
					</clipitem>
					<clipitem id="clipitem-982" frameBlend="FALSE">
						<masterclipid>masterclip-258</masterclipid>
						<name>iBeaconG3.mov</name>
						<enabled>TRUE</enabled>
						<duration>506</duration>
						<rate>
							<timebase>25</timebase>
							<ntsc>FALSE</ntsc>
						</rate>
						<start>14835</start>
						<end>14880</end>
						<in>402</in>
						<out>447</out>
						<alphatype>straight</alphatype>
						<file id="file-231"/>
						<logginginfo>
							<description></description>
							<scene></scene>
							<shottake></shottake>
							<lognote></lognote>
						</logginginfo>
						<labels>
							<label2>Violet</label2>
						</labels>
					</clipitem>
					<clipitem id="clipitem-983" frameBlend="FALSE">
						<masterclipid>masterclip-258</masterclipid>
						<name>iBeaconG3.mov</name>
						<enabled>TRUE</enabled>
						<duration>506</duration>
						<rate>
							<timebase>25</timebase>
							<ntsc>FALSE</ntsc>
						</rate>
						<start>14880</start>
						<end>14930</end>
						<in>447</in>
						<out>497</out>
						<alphatype>straight</alphatype>
						<file id="file-231"/>
						<logginginfo>
							<description></description>
							<scene></scene>
							<shottake></shottake>
							<lognote></lognote>
						</logginginfo>
						<labels>
							<label2>Violet</label2>
						</labels>
					</clipitem>
					<clipitem id="clipitem-984" frameBlend="FALSE">
						<masterclipid>masterclip-258</masterclipid>
						<name>iBeaconG3.mov</name>
						<enabled>TRUE</enabled>
						<duration>506</duration>
						<rate>
							<timebase>25</timebase>
							<ntsc>FALSE</ntsc>
						</rate>
						<start>14930</start>
						<end>14939</end>
						<in>497</in>
						<out>506</out>
						<alphatype>straight</alphatype>
						<file id="file-231"/>
						<logginginfo>
							<description></description>
							<scene></scene>
							<shottake></shottake>
							<lognote></lognote>
						</logginginfo>
						<labels>
							<label2>Violet</label2>
						</labels>
					</clipitem>
					<clipitem id="clipitem-985" frameBlend="FALSE">
						<masterclipid>masterclip-258</masterclipid>
						<name>iBeaconG3.mov</name>
						<enabled>TRUE</enabled>
						<duration>506</duration>
						<rate>
							<timebase>25</timebase>
							<ntsc>FALSE</ntsc>
						</rate>
						<start>40513</start>
						<end>40563</end>
						<in>447</in>
						<out>497</out>
						<alphatype>straight</alphatype>
						<file id="file-231"/>
						<logginginfo>
							<description></description>
							<scene></scene>
							<shottake></shottake>
							<lognote></lognote>
						</logginginfo>
						<labels>
							<label2>Violet</label2>
						</labels>
					</clipitem>
					<transitionitem>
						<start>42845</start>
						<end>42870</end>
						<alignment>start-black</alignment>
						<cutPoint>0</cutPoint>
						<rate>
							<timebase>25</timebase>
							<ntsc>FALSE</ntsc>
						</rate>
						<effect>
							<name>Cross Dissolve</name>
							<effectid>Cross Dissolve</effectid>
							<effectcategory>Dissolve</effectcategory>
							<effecttype>transition</effecttype>
							<mediatype>video</mediatype>
							<wipecode>0</wipecode>
							<wipeaccuracy>100</wipeaccuracy>
							<startratio>0</startratio>
							<endratio>1</endratio>
							<reverse>FALSE</reverse>
						</effect>
					</transitionitem>
					<clipitem id="clipitem-986" frameBlend="FALSE">
						<masterclipid>masterclip-261</masterclipid>
						<name>rullemal NY Copy 01</name>
						<enabled>TRUE</enabled>
						<duration>1080000</duration>
						<rate>
							<timebase>25</timebase>
							<ntsc>FALSE</ntsc>
						</rate>
						<start>-1</start>
						<end>-1</end>
						<in>90000</in>
						<out>90123</out>
						<alphatype>straight</alphatype>
						<pixelaspectratio>square</pixelaspectratio>
						<anamorphic>FALSE</anamorphic>
						<file id="file-234">
							<name>KATTA rullemal</name>
							<mediaSource>Slug</mediaSource>
							<rate>
								<timebase>25</timebase>
								<ntsc>FALSE</ntsc>
							</rate>
							<duration>1080000</duration>
							<timecode>
								<rate>
									<timebase>25</timebase>
									<ntsc>FALSE</ntsc>
								</rate>
								<string>00:00:00:00</string>
								<frame>0</frame>
								<displayformat>NDF</displayformat>
								<reel>
									<name></name>
								</reel>
							</timecode>
							<media>
								<video>
									<duration>18000</duration>
									<samplecharacteristics>
										<rate>
											<timebase>25</timebase>
											<ntsc>FALSE</ntsc>
										</rate>
										<width>1920</width>
										<height>1080</height>
										<anamorphic>FALSE</anamorphic>
										<pixelaspectratio>square</pixelaspectratio>
										<fielddominance>lower</fielddominance>
									</samplecharacteristics>
								</video>
							</media>
						</file>
						<logginginfo>
							<description></description>
							<scene></scene>
							<shottake></shottake>
							<lognote></lognote>
						</logginginfo>
						<labels>
							<label2>Violet</label2>
						</labels>
					</clipitem>
					<transitionitem>
						<start>42956</start>
						<end>42968</end>
						<alignment>end-black</alignment>
						<cutPoint>12</cutPoint>
						<rate>
							<timebase>25</timebase>
							<ntsc>FALSE</ntsc>
						</rate>
						<effect>
							<name>Cross Dissolve</name>
							<effectid>Cross Dissolve</effectid>
							<effectcategory>Dissolve</effectcategory>
							<effecttype>transition</effecttype>
							<mediatype>video</mediatype>
							<wipecode>0</wipecode>
							<wipeaccuracy>100</wipeaccuracy>
							<startratio>0</startratio>
							<endratio>1</endratio>
							<reverse>FALSE</reverse>
						</effect>
					</transitionitem>
					<transitionitem>
						<start>42968</start>
						<end>42982</end>
						<alignment>start-black</alignment>
						<cutPoint>0</cutPoint>
						<rate>
							<timebase>25</timebase>
							<ntsc>FALSE</ntsc>
						</rate>
						<effect>
							<name>Cross Dissolve</name>
							<effectid>Cross Dissolve</effectid>
							<effectcategory>Dissolve</effectcategory>
							<effecttype>transition</effecttype>
							<mediatype>video</mediatype>
							<wipecode>0</wipecode>
							<wipeaccuracy>100</wipeaccuracy>
							<startratio>0</startratio>
							<endratio>1</endratio>
							<reverse>FALSE</reverse>
						</effect>
					</transitionitem>
					<clipitem id="clipitem-987" frameBlend="FALSE">
						<masterclipid>masterclip-262</masterclipid>
						<name>rullemal</name>
						<enabled>TRUE</enabled>
						<duration>1080000</duration>
						<rate>
							<timebase>25</timebase>
							<ntsc>FALSE</ntsc>
						</rate>
						<start>-1</start>
						<end>43342</end>
						<in>90332</in>
						<out>90706</out>
						<alphatype>straight</alphatype>
						<pixelaspectratio>square</pixelaspectratio>
						<anamorphic>FALSE</anamorphic>
						<file id="file-235">
							<name>KATTA rullemal</name>
							<mediaSource>Slug</mediaSource>
							<rate>
								<timebase>25</timebase>
								<ntsc>FALSE</ntsc>
							</rate>
							<duration>1080000</duration>
							<timecode>
								<rate>
									<timebase>25</timebase>
									<ntsc>FALSE</ntsc>
								</rate>
								<string>00:00:00:00</string>
								<frame>0</frame>
								<displayformat>NDF</displayformat>
								<reel>
									<name></name>
								</reel>
							</timecode>
							<media>
								<video>
									<duration>18000</duration>
									<samplecharacteristics>
										<rate>
											<timebase>25</timebase>
											<ntsc>FALSE</ntsc>
										</rate>
										<width>1920</width>
										<height>1080</height>
										<anamorphic>FALSE</anamorphic>
										<pixelaspectratio>square</pixelaspectratio>
										<fielddominance>lower</fielddominance>
									</samplecharacteristics>
								</video>
							</media>
						</file>
						<logginginfo>
							<description></description>
							<scene></scene>
							<shottake></shottake>
							<lognote></lognote>
						</logginginfo>
						<labels>
							<label2>Violet</label2>
						</labels>
					</clipitem>
					<enabled>TRUE</enabled>
					<locked>FALSE</locked>
				</track>
				<track TL.SQTrackShy="0" TL.SQTrackExpandedHeight="25" TL.SQTrackExpanded="0" MZ.TrackTargeted="0">
					<clipitem id="clipitem-988" frameBlend="FALSE">
						<masterclipid>masterclip-263</masterclipid>
						<name>super dobbel Copy 01</name>
						<enabled>TRUE</enabled>
						<duration>1080000</duration>
						<rate>
							<timebase>25</timebase>
							<ntsc>FALSE</ntsc>
						</rate>
						<start>1247</start>
						<end>-1</end>
						<in>90000</in>
						<out>90125</out>
						<alphatype>straight</alphatype>
						<pixelaspectratio>square</pixelaspectratio>
						<anamorphic>FALSE</anamorphic>
						<file id="file-236">
							<name>KATTA supermal</name>
							<mediaSource>Slug</mediaSource>
							<rate>
								<timebase>30</timebase>
								<ntsc>TRUE</ntsc>
							</rate>
							<timecode>
								<rate>
									<timebase>30</timebase>
									<ntsc>TRUE</ntsc>
								</rate>
								<string>00;00;00;00</string>
								<frame>0</frame>
								<displayformat>DF</displayformat>
								<reel>
									<name></name>
								</reel>
							</timecode>
							<media>
								<video>
									<duration>18000</duration>
									<samplecharacteristics>
										<rate>
											<timebase>30</timebase>
											<ntsc>TRUE</ntsc>
										</rate>
										<width>1920</width>
										<height>1080</height>
										<anamorphic>FALSE</anamorphic>
										<pixelaspectratio>square</pixelaspectratio>
										<fielddominance>none</fielddominance>
									</samplecharacteristics>
								</video>
							</media>
						</file>
						<logginginfo>
							<description></description>
							<scene></scene>
							<shottake></shottake>
							<lognote></lognote>
						</logginginfo>
						<labels>
							<label2>Lavender</label2>
						</labels>
					</clipitem>
					<transitionitem>
						<start>1360</start>
						<end>1372</end>
						<alignment>end-black</alignment>
						<cutPoint>12</cutPoint>
						<rate>
							<timebase>25</timebase>
							<ntsc>FALSE</ntsc>
						</rate>
						<effect>
							<name>Cross Dissolve</name>
							<effectid>Cross Dissolve</effectid>
							<effectcategory>Dissolve</effectcategory>
							<effecttype>transition</effecttype>
							<mediatype>video</mediatype>
							<wipecode>0</wipecode>
							<wipeaccuracy>100</wipeaccuracy>
							<startratio>0</startratio>
							<endratio>1</endratio>
							<reverse>FALSE</reverse>
						</effect>
					</transitionitem>
					<clipitem id="clipitem-989" frameBlend="FALSE">
						<masterclipid>masterclip-264</masterclipid>
						<name>super V nede Copy 05</name>
						<enabled>TRUE</enabled>
						<duration>1080000</duration>
						<rate>
							<timebase>25</timebase>
							<ntsc>FALSE</ntsc>
						</rate>
						<start>2803</start>
						<end>-1</end>
						<in>90000</in>
						<out>90099</out>
						<alphatype>straight</alphatype>
						<pixelaspectratio>square</pixelaspectratio>
						<anamorphic>FALSE</anamorphic>
						<file id="file-237">
							<name>KATTA supermal</name>
							<mediaSource>Slug</mediaSource>
							<rate>
								<timebase>30</timebase>
								<ntsc>TRUE</ntsc>
							</rate>
							<timecode>
								<rate>
									<timebase>30</timebase>
									<ntsc>TRUE</ntsc>
								</rate>
								<string>00;00;00;00</string>
								<frame>0</frame>
								<displayformat>DF</displayformat>
								<reel>
									<name></name>
								</reel>
							</timecode>
							<media>
								<video>
									<duration>18000</duration>
									<samplecharacteristics>
										<rate>
											<timebase>30</timebase>
											<ntsc>TRUE</ntsc>
										</rate>
										<width>1920</width>
										<height>1080</height>
										<anamorphic>FALSE</anamorphic>
										<pixelaspectratio>square</pixelaspectratio>
										<fielddominance>none</fielddominance>
									</samplecharacteristics>
								</video>
							</media>
						</file>
						<logginginfo>
							<description></description>
							<scene></scene>
							<shottake></shottake>
							<lognote></lognote>
						</logginginfo>
						<labels>
							<label2>Lavender</label2>
						</labels>
					</clipitem>
					<transitionitem>
						<start>2877</start>
						<end>2902</end>
						<alignment>end-black</alignment>
						<cutPoint>25</cutPoint>
						<rate>
							<timebase>25</timebase>
							<ntsc>FALSE</ntsc>
						</rate>
						<effect>
							<name>Cross Dissolve</name>
							<effectid>Cross Dissolve</effectid>
							<effectcategory>Dissolve</effectcategory>
							<effecttype>transition</effecttype>
							<mediatype>video</mediatype>
							<wipecode>0</wipecode>
							<wipeaccuracy>100</wipeaccuracy>
							<startratio>0</startratio>
							<endratio>1</endratio>
							<reverse>FALSE</reverse>
						</effect>
					</transitionitem>
					<clipitem id="clipitem-990" frameBlend="FALSE">
						<masterclipid>masterclip-265</masterclipid>
						<name>super V oppe små Copy 01</name>
						<enabled>TRUE</enabled>
						<duration>1080000</duration>
						<rate>
							<timebase>25</timebase>
							<ntsc>FALSE</ntsc>
						</rate>
						<start>11532</start>
						<end>-1</end>
						<in>90000</in>
						<out>90119</out>
						<alphatype>straight</alphatype>
						<pixelaspectratio>square</pixelaspectratio>
						<anamorphic>FALSE</anamorphic>
						<file id="file-238">
							<name>KATTA supermal</name>
							<mediaSource>Slug</mediaSource>
							<rate>
								<timebase>30</timebase>
								<ntsc>TRUE</ntsc>
							</rate>
							<timecode>
								<rate>
									<timebase>30</timebase>
									<ntsc>TRUE</ntsc>
								</rate>
								<string>00;00;00;00</string>
								<frame>0</frame>
								<displayformat>DF</displayformat>
								<reel>
									<name></name>
								</reel>
							</timecode>
							<media>
								<video>
									<duration>18000</duration>
									<samplecharacteristics>
										<rate>
											<timebase>30</timebase>
											<ntsc>TRUE</ntsc>
										</rate>
										<width>1920</width>
										<height>1080</height>
										<anamorphic>FALSE</anamorphic>
										<pixelaspectratio>square</pixelaspectratio>
										<fielddominance>none</fielddominance>
									</samplecharacteristics>
								</video>
							</media>
						</file>
						<logginginfo>
							<description></description>
							<scene></scene>
							<shottake></shottake>
							<lognote></lognote>
						</logginginfo>
						<labels>
							<label2>Lavender</label2>
						</labels>
					</clipitem>
					<transitionitem>
						<start>11626</start>
						<end>11651</end>
						<alignment>end-black</alignment>
						<cutPoint>25</cutPoint>
						<rate>
							<timebase>25</timebase>
							<ntsc>FALSE</ntsc>
						</rate>
						<effect>
							<name>Cross Dissolve</name>
							<effectid>Cross Dissolve</effectid>
							<effectcategory>Dissolve</effectcategory>
							<effecttype>transition</effecttype>
							<mediatype>video</mediatype>
							<wipecode>0</wipecode>
							<wipeaccuracy>100</wipeaccuracy>
							<startratio>0</startratio>
							<endratio>1</endratio>
							<reverse>FALSE</reverse>
						</effect>
					</transitionitem>
					<clipitem id="clipitem-991" frameBlend="FALSE">
						<masterclipid>masterclip-266</masterclipid>
						<name>super H nede Copy 02</name>
						<enabled>TRUE</enabled>
						<duration>1080000</duration>
						<rate>
							<timebase>25</timebase>
							<ntsc>FALSE</ntsc>
						</rate>
						<start>13751</start>
						<end>-1</end>
						<in>90000</in>
						<out>90125</out>
						<alphatype>straight</alphatype>
						<pixelaspectratio>square</pixelaspectratio>
						<anamorphic>FALSE</anamorphic>
						<file id="file-239">
							<name>KATTA supermal</name>
							<mediaSource>Slug</mediaSource>
							<rate>
								<timebase>30</timebase>
								<ntsc>TRUE</ntsc>
							</rate>
							<timecode>
								<rate>
									<timebase>30</timebase>
									<ntsc>TRUE</ntsc>
								</rate>
								<string>00;00;00;00</string>
								<frame>0</frame>
								<displayformat>DF</displayformat>
								<reel>
									<name></name>
								</reel>
							</timecode>
							<media>
								<video>
									<duration>18000</duration>
									<samplecharacteristics>
										<rate>
											<timebase>30</timebase>
											<ntsc>TRUE</ntsc>
										</rate>
										<width>1920</width>
										<height>1080</height>
										<anamorphic>FALSE</anamorphic>
										<pixelaspectratio>square</pixelaspectratio>
										<fielddominance>none</fielddominance>
									</samplecharacteristics>
								</video>
							</media>
						</file>
						<logginginfo>
							<description></description>
							<scene></scene>
							<shottake></shottake>
							<lognote></lognote>
						</logginginfo>
						<labels>
							<label2>Lavender</label2>
						</labels>
					</clipitem>
					<transitionitem>
						<start>13851</start>
						<end>13876</end>
						<alignment>end-black</alignment>
						<cutPoint>25</cutPoint>
						<rate>
							<timebase>25</timebase>
							<ntsc>FALSE</ntsc>
						</rate>
						<effect>
							<name>Cross Dissolve</name>
							<effectid>Cross Dissolve</effectid>
							<effectcategory>Dissolve</effectcategory>
							<effecttype>transition</effecttype>
							<mediatype>video</mediatype>
							<wipecode>0</wipecode>
							<wipeaccuracy>100</wipeaccuracy>
							<startratio>0</startratio>
							<endratio>1</endratio>
							<reverse>FALSE</reverse>
						</effect>
					</transitionitem>
					<clipitem id="clipitem-992" frameBlend="FALSE">
						<masterclipid>masterclip-267</masterclipid>
						<name>super V nede Copy 01</name>
						<enabled>TRUE</enabled>
						<duration>1080000</duration>
						<rate>
							<timebase>25</timebase>
							<ntsc>FALSE</ntsc>
						</rate>
						<start>16293</start>
						<end>-1</end>
						<in>90000</in>
						<out>90125</out>
						<alphatype>straight</alphatype>
						<pixelaspectratio>square</pixelaspectratio>
						<anamorphic>FALSE</anamorphic>
						<file id="file-240">
							<name>KATTA supermal</name>
							<mediaSource>Slug</mediaSource>
							<rate>
								<timebase>30</timebase>
								<ntsc>TRUE</ntsc>
							</rate>
							<timecode>
								<rate>
									<timebase>30</timebase>
									<ntsc>TRUE</ntsc>
								</rate>
								<string>00;00;00;00</string>
								<frame>0</frame>
								<displayformat>DF</displayformat>
								<reel>
									<name></name>
								</reel>
							</timecode>
							<media>
								<video>
									<duration>18000</duration>
									<samplecharacteristics>
										<rate>
											<timebase>30</timebase>
											<ntsc>TRUE</ntsc>
										</rate>
										<width>1920</width>
										<height>1080</height>
										<anamorphic>FALSE</anamorphic>
										<pixelaspectratio>square</pixelaspectratio>
										<fielddominance>none</fielddominance>
									</samplecharacteristics>
								</video>
							</media>
						</file>
						<logginginfo>
							<description></description>
							<scene></scene>
							<shottake></shottake>
							<lognote></lognote>
						</logginginfo>
						<labels>
							<label2>Lavender</label2>
						</labels>
					</clipitem>
					<transitionitem>
						<start>16393</start>
						<end>16418</end>
						<alignment>end-black</alignment>
						<cutPoint>25</cutPoint>
						<rate>
							<timebase>25</timebase>
							<ntsc>FALSE</ntsc>
						</rate>
						<effect>
							<name>Cross Dissolve</name>
							<effectid>Cross Dissolve</effectid>
							<effectcategory>Dissolve</effectcategory>
							<effecttype>transition</effecttype>
							<mediatype>video</mediatype>
							<wipecode>0</wipecode>
							<wipeaccuracy>100</wipeaccuracy>
							<startratio>0</startratio>
							<endratio>1</endratio>
							<reverse>FALSE</reverse>
						</effect>
					</transitionitem>
					<clipitem id="clipitem-993" frameBlend="FALSE">
						<masterclipid>masterclip-268</masterclipid>
						<name>super V nede Copy 02</name>
						<enabled>TRUE</enabled>
						<duration>1080000</duration>
						<rate>
							<timebase>25</timebase>
							<ntsc>FALSE</ntsc>
						</rate>
						<start>18877</start>
						<end>-1</end>
						<in>90000</in>
						<out>90079</out>
						<alphatype>straight</alphatype>
						<pixelaspectratio>square</pixelaspectratio>
						<anamorphic>FALSE</anamorphic>
						<file id="file-241">
							<name>KATTA supermal</name>
							<mediaSource>Slug</mediaSource>
							<rate>
								<timebase>30</timebase>
								<ntsc>TRUE</ntsc>
							</rate>
							<timecode>
								<rate>
									<timebase>30</timebase>
									<ntsc>TRUE</ntsc>
								</rate>
								<string>00;00;00;00</string>
								<frame>0</frame>
								<displayformat>DF</displayformat>
								<reel>
									<name></name>
								</reel>
							</timecode>
							<media>
								<video>
									<duration>18000</duration>
									<samplecharacteristics>
										<rate>
											<timebase>30</timebase>
											<ntsc>TRUE</ntsc>
										</rate>
										<width>1920</width>
										<height>1080</height>
										<anamorphic>FALSE</anamorphic>
										<pixelaspectratio>square</pixelaspectratio>
										<fielddominance>none</fielddominance>
									</samplecharacteristics>
								</video>
							</media>
						</file>
						<logginginfo>
							<description></description>
							<scene></scene>
							<shottake></shottake>
							<lognote></lognote>
						</logginginfo>
						<labels>
							<label2>Lavender</label2>
						</labels>
					</clipitem>
					<transitionitem>
						<start>18931</start>
						<end>18956</end>
						<alignment>end-black</alignment>
						<cutPoint>25</cutPoint>
						<rate>
							<timebase>25</timebase>
							<ntsc>FALSE</ntsc>
						</rate>
						<effect>
							<name>Cross Dissolve</name>
							<effectid>Cross Dissolve</effectid>
							<effectcategory>Dissolve</effectcategory>
							<effecttype>transition</effecttype>
							<mediatype>video</mediatype>
							<wipecode>0</wipecode>
							<wipeaccuracy>100</wipeaccuracy>
							<startratio>0</startratio>
							<endratio>1</endratio>
							<reverse>FALSE</reverse>
						</effect>
					</transitionitem>
					<clipitem id="clipitem-994" frameBlend="FALSE">
						<masterclipid>masterclip-269</masterclipid>
						<name>super H nede Copy 03</name>
						<enabled>TRUE</enabled>
						<duration>1080000</duration>
						<rate>
							<timebase>25</timebase>
							<ntsc>FALSE</ntsc>
						</rate>
						<start>21074</start>
						<end>-1</end>
						<in>90000</in>
						<out>90125</out>
						<alphatype>straight</alphatype>
						<pixelaspectratio>square</pixelaspectratio>
						<anamorphic>FALSE</anamorphic>
						<file id="file-242">
							<name>KATTA supermal</name>
							<mediaSource>Slug</mediaSource>
							<rate>
								<timebase>30</timebase>
								<ntsc>TRUE</ntsc>
							</rate>
							<timecode>
								<rate>
									<timebase>30</timebase>
									<ntsc>TRUE</ntsc>
								</rate>
								<string>00;00;00;00</string>
								<frame>0</frame>
								<displayformat>DF</displayformat>
								<reel>
									<name></name>
								</reel>
							</timecode>
							<media>
								<video>
									<duration>18000</duration>
									<samplecharacteristics>
										<rate>
											<timebase>30</timebase>
											<ntsc>TRUE</ntsc>
										</rate>
										<width>1920</width>
										<height>1080</height>
										<anamorphic>FALSE</anamorphic>
										<pixelaspectratio>square</pixelaspectratio>
										<fielddominance>none</fielddominance>
									</samplecharacteristics>
								</video>
							</media>
						</file>
						<logginginfo>
							<description></description>
							<scene></scene>
							<shottake></shottake>
							<lognote></lognote>
						</logginginfo>
						<labels>
							<label2>Lavender</label2>
						</labels>
					</clipitem>
					<transitionitem>
						<start>21174</start>
						<end>21199</end>
						<alignment>end-black</alignment>
						<cutPoint>25</cutPoint>
						<rate>
							<timebase>25</timebase>
							<ntsc>FALSE</ntsc>
						</rate>
						<effect>
							<name>Cross Dissolve</name>
							<effectid>Cross Dissolve</effectid>
							<effectcategory>Dissolve</effectcategory>
							<effecttype>transition</effecttype>
							<mediatype>video</mediatype>
							<wipecode>0</wipecode>
							<wipeaccuracy>100</wipeaccuracy>
							<startratio>0</startratio>
							<endratio>1</endratio>
							<reverse>FALSE</reverse>
						</effect>
					</transitionitem>
					<clipitem id="clipitem-995" frameBlend="FALSE">
						<masterclipid>masterclip-270</masterclipid>
						<name>super V nede Copy 03</name>
						<enabled>TRUE</enabled>
						<duration>1080000</duration>
						<rate>
							<timebase>25</timebase>
							<ntsc>FALSE</ntsc>
						</rate>
						<start>24901</start>
						<end>-1</end>
						<in>90000</in>
						<out>90125</out>
						<alphatype>straight</alphatype>
						<pixelaspectratio>square</pixelaspectratio>
						<anamorphic>FALSE</anamorphic>
						<file id="file-243">
							<name>KATTA supermal</name>
							<mediaSource>Slug</mediaSource>
							<rate>
								<timebase>30</timebase>
								<ntsc>TRUE</ntsc>
							</rate>
							<timecode>
								<rate>
									<timebase>30</timebase>
									<ntsc>TRUE</ntsc>
								</rate>
								<string>00;00;00;00</string>
								<frame>0</frame>
								<displayformat>DF</displayformat>
								<reel>
									<name></name>
								</reel>
							</timecode>
							<media>
								<video>
									<duration>18000</duration>
									<samplecharacteristics>
										<rate>
											<timebase>30</timebase>
											<ntsc>TRUE</ntsc>
										</rate>
										<width>1920</width>
										<height>1080</height>
										<anamorphic>FALSE</anamorphic>
										<pixelaspectratio>square</pixelaspectratio>
										<fielddominance>none</fielddominance>
									</samplecharacteristics>
								</video>
							</media>
						</file>
						<logginginfo>
							<description></description>
							<scene></scene>
							<shottake></shottake>
							<lognote></lognote>
						</logginginfo>
						<labels>
							<label2>Lavender</label2>
						</labels>
					</clipitem>
					<transitionitem>
						<start>25001</start>
						<end>25026</end>
						<alignment>end-black</alignment>
						<cutPoint>25</cutPoint>
						<rate>
							<timebase>25</timebase>
							<ntsc>FALSE</ntsc>
						</rate>
						<effect>
							<name>Cross Dissolve</name>
							<effectid>Cross Dissolve</effectid>
							<effectcategory>Dissolve</effectcategory>
							<effecttype>transition</effecttype>
							<mediatype>video</mediatype>
							<wipecode>0</wipecode>
							<wipeaccuracy>100</wipeaccuracy>
							<startratio>0</startratio>
							<endratio>1</endratio>
							<reverse>FALSE</reverse>
						</effect>
					</transitionitem>
					<clipitem id="clipitem-996" frameBlend="FALSE">
						<masterclipid>masterclip-271</masterclipid>
						<name>super H nede Copy 04</name>
						<enabled>TRUE</enabled>
						<duration>1080000</duration>
						<rate>
							<timebase>25</timebase>
							<ntsc>FALSE</ntsc>
						</rate>
						<start>32023</start>
						<end>-1</end>
						<in>90029</in>
						<out>90142</out>
						<alphatype>straight</alphatype>
						<pixelaspectratio>square</pixelaspectratio>
						<anamorphic>FALSE</anamorphic>
						<file id="file-244">
							<name>KATTA supermal</name>
							<mediaSource>Slug</mediaSource>
							<rate>
								<timebase>30</timebase>
								<ntsc>TRUE</ntsc>
							</rate>
							<timecode>
								<rate>
									<timebase>30</timebase>
									<ntsc>TRUE</ntsc>
								</rate>
								<string>00;00;00;00</string>
								<frame>0</frame>
								<displayformat>DF</displayformat>
								<reel>
									<name></name>
								</reel>
							</timecode>
							<media>
								<video>
									<duration>18000</duration>
									<samplecharacteristics>
										<rate>
											<timebase>30</timebase>
											<ntsc>TRUE</ntsc>
										</rate>
										<width>1920</width>
										<height>1080</height>
										<anamorphic>FALSE</anamorphic>
										<pixelaspectratio>square</pixelaspectratio>
										<fielddominance>none</fielddominance>
									</samplecharacteristics>
								</video>
							</media>
						</file>
						<logginginfo>
							<description></description>
							<scene></scene>
							<shottake></shottake>
							<lognote></lognote>
						</logginginfo>
						<labels>
							<label2>Lavender</label2>
						</labels>
					</clipitem>
					<transitionitem>
						<start>32124</start>
						<end>32136</end>
						<alignment>end-black</alignment>
						<cutPoint>12</cutPoint>
						<rate>
							<timebase>25</timebase>
							<ntsc>FALSE</ntsc>
						</rate>
						<effect>
							<name>Cross Dissolve</name>
							<effectid>Cross Dissolve</effectid>
							<effectcategory>Dissolve</effectcategory>
							<effecttype>transition</effecttype>
							<mediatype>video</mediatype>
							<wipecode>0</wipecode>
							<wipeaccuracy>100</wipeaccuracy>
							<startratio>0</startratio>
							<endratio>1</endratio>
							<reverse>FALSE</reverse>
						</effect>
					</transitionitem>
					<clipitem id="clipitem-997" frameBlend="FALSE">
						<masterclipid>masterclip-272</masterclipid>
						<name>super V nede Copy 04</name>
						<enabled>TRUE</enabled>
						<duration>1080000</duration>
						<rate>
							<timebase>25</timebase>
							<ntsc>FALSE</ntsc>
						</rate>
						<start>37046</start>
						<end>-1</end>
						<in>89992</in>
						<out>90125</out>
						<alphatype>straight</alphatype>
						<pixelaspectratio>square</pixelaspectratio>
						<anamorphic>FALSE</anamorphic>
						<file id="file-245">
							<name>KATTA supermal</name>
							<mediaSource>Slug</mediaSource>
							<rate>
								<timebase>30</timebase>
								<ntsc>TRUE</ntsc>
							</rate>
							<timecode>
								<rate>
									<timebase>30</timebase>
									<ntsc>TRUE</ntsc>
								</rate>
								<string>00;00;00;00</string>
								<frame>0</frame>
								<displayformat>DF</displayformat>
								<reel>
									<name></name>
								</reel>
							</timecode>
							<media>
								<video>
									<duration>18000</duration>
									<samplecharacteristics>
										<rate>
											<timebase>30</timebase>
											<ntsc>TRUE</ntsc>
										</rate>
										<width>1920</width>
										<height>1080</height>
										<anamorphic>FALSE</anamorphic>
										<pixelaspectratio>square</pixelaspectratio>
										<fielddominance>none</fielddominance>
									</samplecharacteristics>
								</video>
							</media>
						</file>
						<logginginfo>
							<description></description>
							<scene></scene>
							<shottake></shottake>
							<lognote></lognote>
						</logginginfo>
						<labels>
							<label2>Lavender</label2>
						</labels>
					</clipitem>
					<transitionitem>
						<start>37154</start>
						<end>37179</end>
						<alignment>end-black</alignment>
						<cutPoint>25</cutPoint>
						<rate>
							<timebase>25</timebase>
							<ntsc>FALSE</ntsc>
						</rate>
						<effect>
							<name>Cross Dissolve</name>
							<effectid>Cross Dissolve</effectid>
							<effectcategory>Dissolve</effectcategory>
							<effecttype>transition</effecttype>
							<mediatype>video</mediatype>
							<wipecode>0</wipecode>
							<wipeaccuracy>100</wipeaccuracy>
							<startratio>0</startratio>
							<endratio>1</endratio>
							<reverse>FALSE</reverse>
						</effect>
					</transitionitem>
					<enabled>TRUE</enabled>
					<locked>FALSE</locked>
				</track>
			</video>
			<audio>
				<format>
					<samplecharacteristics>
						<depth>16</depth>
						<samplerate>48000</samplerate>
					</samplecharacteristics>
				</format>
				<outputs>
					<group>
						<index>1</index>
						<numchannels>1</numchannels>
						<downmix>0</downmix>
						<channel>
							<index>1</index>
						</channel>
					</group>
					<group>
						<index>2</index>
						<numchannels>1</numchannels>
						<downmix>0</downmix>
						<channel>
							<index>2</index>
						</channel>
					</group>
					<group>
						<index>3</index>
						<numchannels>1</numchannels>
						<downmix>0</downmix>
						<channel>
							<index>3</index>
						</channel>
					</group>
					<group>
						<index>4</index>
						<numchannels>1</numchannels>
						<downmix>0</downmix>
						<channel>
							<index>4</index>
						</channel>
					</group>
				</outputs>
				<track monotrack="TRUE" TL.SQTrackAudioKeyframeStyle="0" TL.SQTrackShy="0" TL.SQTrackExpandedHeight="65" TL.SQTrackExpanded="1" MZ.TrackTargeted="0" MZ.TrackName="sync 1 mono" PannerCurrentValue="0.5" PannerIsInverted="true" PannerStartKeyframe="-91445760000000000,0.5,0,0,0,0,0,0" PannerName="Pan" currentExplodedTrackIndex="0" totalExplodedTrackCount="2" premiereTrackType="Mono">
					<clipitem id="clipitem-998" frameBlend="FALSE">
						<masterclipid>masterclip-4</masterclipid>
						<name>E_Intro_hjemme_AVBRUDD.MOV</name>
						<enabled>TRUE</enabled>
						<duration>382</duration>
						<rate>
							<timebase>25</timebase>
							<ntsc>FALSE</ntsc>
						</rate>
						<start>32</start>
						<end>266</end>
						<in>30</in>
						<out>264</out>
						<file id="file-4"/>
						<sourcetrack>
							<mediatype>audio</mediatype>
							<trackindex>1</trackindex>
						</sourcetrack>
						<link>
							<linkclipref>clipitem-386</linkclipref>
							<mediatype>video</mediatype>
							<trackindex>1</trackindex>
							<clipindex>3</clipindex>
						</link>
						<link>
							<linkclipref>clipitem-998</linkclipref>
							<mediatype>audio</mediatype>
							<trackindex>1</trackindex>
							<clipindex>1</clipindex>
						</link>
						<logginginfo>
							<description></description>
							<scene></scene>
							<shottake></shottake>
							<lognote></lognote>
						</logginginfo>
						<labels>
							<label2>Iris</label2>
						</labels>
					</clipitem>
					<clipitem id="clipitem-999" frameBlend="FALSE">
						<masterclipid>masterclip-10</masterclipid>
						<name>AA034901.MXF</name>
						<enabled>TRUE</enabled>
						<duration>7584</duration>
						<rate>
							<timebase>25</timebase>
							<ntsc>FALSE</ntsc>
						</rate>
						<start>426</start>
						<end>510</end>
						<in>736</in>
						<out>820</out>
						<file id="file-9"/>
						<sourcetrack>
							<mediatype>audio</mediatype>
							<trackindex>1</trackindex>
						</sourcetrack>
							<filter>
								<effect>
									<name>Audio Levels</name>
									<effectid>audiolevels</effectid>
									<effectcategory>audiolevels</effectcategory>
									<effecttype>audiolevels</effecttype>
									<mediatype>audio</mediatype>
									<parameter authoringApp="PremierePro">
										<parameterid>level</parameterid>
										<name>Level</name>
										<valuemin>0</valuemin>
										<valuemax>3.98109</valuemax>
										<value>1.99526</value>
									</parameter>
								</effect>
							</filter>
						<link>
							<linkclipref>clipitem-999</linkclipref>
							<mediatype>audio</mediatype>
							<trackindex>1</trackindex>
							<clipindex>2</clipindex>
						</link>
						<link>
							<linkclipref>clipitem-1357</linkclipref>
							<mediatype>audio</mediatype>
							<trackindex>3</trackindex>
							<clipindex>1</clipindex>
						</link>
						<logginginfo>
							<description></description>
							<scene></scene>
							<shottake>AA0349</shottake>
							<lognote></lognote>
						</logginginfo>
						<labels>
							<label2>Iris</label2>
						</labels>
					</clipitem>
					<clipitem id="clipitem-1000" frameBlend="FALSE">
						<masterclipid>masterclip-18</masterclipid>
						<name>E_Intro_hjemme.MOV</name>
						<enabled>TRUE</enabled>
						<duration>589</duration>
						<rate>
							<timebase>25</timebase>
							<ntsc>FALSE</ntsc>
						</rate>
						<start>766</start>
						<end>891</end>
						<in>391</in>
						<out>516</out>
						<file id="file-17"/>
						<sourcetrack>
							<mediatype>audio</mediatype>
							<trackindex>1</trackindex>
						</sourcetrack>
						<link>
							<linkclipref>clipitem-403</linkclipref>
							<mediatype>video</mediatype>
							<trackindex>1</trackindex>
							<clipindex>15</clipindex>
						</link>
						<link>
							<linkclipref>clipitem-1000</linkclipref>
							<mediatype>audio</mediatype>
							<trackindex>1</trackindex>
							<clipindex>3</clipindex>
						</link>
						<logginginfo>
							<description></description>
							<scene></scene>
							<shottake></shottake>
							<lognote></lognote>
						</logginginfo>
						<labels>
							<label2>Iris</label2>
						</labels>
					</clipitem>
					<clipitem id="clipitem-1001" frameBlend="FALSE">
						<masterclipid>masterclip-20</masterclipid>
						<name>Felles_intro.MOV</name>
						<enabled>TRUE</enabled>
						<duration>1003</duration>
						<rate>
							<timebase>25</timebase>
							<ntsc>FALSE</ntsc>
						</rate>
						<start>1085</start>
						<end>1976</end>
						<in>1</in>
						<out>892</out>
						<file id="file-19"/>
						<sourcetrack>
							<mediatype>audio</mediatype>
							<trackindex>1</trackindex>
						</sourcetrack>
						<link>
							<linkclipref>clipitem-405</linkclipref>
							<mediatype>video</mediatype>
							<trackindex>1</trackindex>
							<clipindex>17</clipindex>
						</link>
						<link>
							<linkclipref>clipitem-1001</linkclipref>
							<mediatype>audio</mediatype>
							<trackindex>1</trackindex>
							<clipindex>4</clipindex>
						</link>
						<logginginfo>
							<description></description>
							<scene></scene>
							<shottake></shottake>
							<lognote></lognote>
						</logginginfo>
						<labels>
							<label2>Iris</label2>
						</labels>
					</clipitem>
					<clipitem id="clipitem-1002" frameBlend="FALSE">
						<masterclipid>masterclip-21</masterclipid>
						<name>Reise10.MOV</name>
						<enabled>TRUE</enabled>
						<duration>237</duration>
						<rate>
							<timebase>25</timebase>
							<ntsc>FALSE</ntsc>
						</rate>
						<start>1976</start>
						<end>2061</end>
						<in>132</in>
						<out>217</out>
						<file id="file-20"/>
						<sourcetrack>
							<mediatype>audio</mediatype>
							<trackindex>1</trackindex>
						</sourcetrack>
						<link>
							<linkclipref>clipitem-406</linkclipref>
							<mediatype>video</mediatype>
							<trackindex>1</trackindex>
							<clipindex>18</clipindex>
						</link>
						<link>
							<linkclipref>clipitem-1002</linkclipref>
							<mediatype>audio</mediatype>
							<trackindex>1</trackindex>
							<clipindex>5</clipindex>
						</link>
						<logginginfo>
							<description></description>
							<scene></scene>
							<shottake></shottake>
							<lognote></lognote>
						</logginginfo>
						<labels>
							<label2>Iris</label2>
						</labels>
					</clipitem>
					<clipitem id="clipitem-1003" frameBlend="FALSE">
						<masterclipid>masterclip-25</masterclipid>
						<name>Lyse_intro2.MOV</name>
						<enabled>TRUE</enabled>
						<duration>338</duration>
						<rate>
							<timebase>25</timebase>
							<ntsc>FALSE</ntsc>
						</rate>
						<start>2360</start>
						<end>2698</end>
						<in>0</in>
						<out>338</out>
						<file id="file-24"/>
						<sourcetrack>
							<mediatype>audio</mediatype>
							<trackindex>1</trackindex>
						</sourcetrack>
							<filter>
								<effect>
									<name>Audio Levels</name>
									<effectid>audiolevels</effectid>
									<effectcategory>audiolevels</effectcategory>
									<effecttype>audiolevels</effecttype>
									<mediatype>audio</mediatype>
									<parameter authoringApp="PremierePro">
										<parameterid>level</parameterid>
										<name>Level</name>
										<valuemin>0</valuemin>
										<valuemax>3.98109</valuemax>
										<value>1.99053</value>
									</parameter>
								</effect>
							</filter>
						<link>
							<linkclipref>clipitem-410</linkclipref>
							<mediatype>video</mediatype>
							<trackindex>1</trackindex>
							<clipindex>22</clipindex>
						</link>
						<link>
							<linkclipref>clipitem-1003</linkclipref>
							<mediatype>audio</mediatype>
							<trackindex>1</trackindex>
							<clipindex>6</clipindex>
						</link>
						<logginginfo>
							<description></description>
							<scene></scene>
							<shottake></shottake>
							<lognote></lognote>
						</logginginfo>
						<labels>
							<label2>Iris</label2>
						</labels>
					</clipitem>
					<clipitem id="clipitem-1004" frameBlend="FALSE">
						<masterclipid>masterclip-26</masterclipid>
						<name>AA310801.MXF</name>
						<enabled>TRUE</enabled>
						<duration>1032</duration>
						<rate>
							<timebase>25</timebase>
							<ntsc>FALSE</ntsc>
						</rate>
						<start>2698</start>
						<end>2913</end>
						<in>248</in>
						<out>463</out>
						<file id="file-25"/>
						<sourcetrack>
							<mediatype>audio</mediatype>
							<trackindex>1</trackindex>
						</sourcetrack>
							<filter>
								<effect>
									<name>Audio Levels</name>
									<effectid>audiolevels</effectid>
									<effectcategory>audiolevels</effectcategory>
									<effecttype>audiolevels</effecttype>
									<mediatype>audio</mediatype>
									<parameter authoringApp="PremierePro">
										<parameterid>level</parameterid>
										<name>Level</name>
										<valuemin>0</valuemin>
										<valuemax>3.98109</valuemax>
										<value>1.99053</value>
									</parameter>
								</effect>
							</filter>
						<logginginfo>
							<description></description>
							<scene></scene>
							<shottake>AA3108</shottake>
							<lognote></lognote>
						</logginginfo>
						<labels>
							<label2>Iris</label2>
						</labels>
					</clipitem>
					<clipitem id="clipitem-1005" frameBlend="FALSE">
						<masterclipid>masterclip-26</masterclipid>
						<name>AA310801.MXF</name>
						<enabled>TRUE</enabled>
						<duration>1032</duration>
						<rate>
							<timebase>25</timebase>
							<ntsc>FALSE</ntsc>
						</rate>
						<start>2913</start>
						<end>2935</end>
						<in>769</in>
						<out>791</out>
						<file id="file-25"/>
						<sourcetrack>
							<mediatype>audio</mediatype>
							<trackindex>1</trackindex>
						</sourcetrack>
						<link>
							<linkclipref>clipitem-412</linkclipref>
							<mediatype>video</mediatype>
							<trackindex>1</trackindex>
							<clipindex>24</clipindex>
						</link>
						<link>
							<linkclipref>clipitem-1005</linkclipref>
							<mediatype>audio</mediatype>
							<trackindex>1</trackindex>
							<clipindex>8</clipindex>
						</link>
						<link>
							<linkclipref>clipitem-1360</linkclipref>
							<mediatype>audio</mediatype>
							<trackindex>3</trackindex>
							<clipindex>4</clipindex>
						</link>
						<logginginfo>
							<description></description>
							<scene></scene>
							<shottake>AA3108</shottake>
							<lognote></lognote>
						</logginginfo>
						<labels>
							<label2>Iris</label2>
						</labels>
					</clipitem>
					<clipitem id="clipitem-1006" frameBlend="FALSE">
						<masterclipid>masterclip-26</masterclipid>
						<name>AA310801.MXF</name>
						<enabled>TRUE</enabled>
						<duration>1032</duration>
						<rate>
							<timebase>25</timebase>
							<ntsc>FALSE</ntsc>
						</rate>
						<start>2935</start>
						<end>2969</end>
						<in>817</in>
						<out>851</out>
						<file id="file-25"/>
						<sourcetrack>
							<mediatype>audio</mediatype>
							<trackindex>1</trackindex>
						</sourcetrack>
						<link>
							<linkclipref>clipitem-413</linkclipref>
							<mediatype>video</mediatype>
							<trackindex>1</trackindex>
							<clipindex>25</clipindex>
						</link>
						<link>
							<linkclipref>clipitem-1006</linkclipref>
							<mediatype>audio</mediatype>
							<trackindex>1</trackindex>
							<clipindex>9</clipindex>
						</link>
						<link>
							<linkclipref>clipitem-1361</linkclipref>
							<mediatype>audio</mediatype>
							<trackindex>3</trackindex>
							<clipindex>5</clipindex>
						</link>
						<logginginfo>
							<description></description>
							<scene></scene>
							<shottake>AA3108</shottake>
							<lognote></lognote>
						</logginginfo>
						<labels>
							<label2>Iris</label2>
						</labels>
					</clipitem>
					<clipitem id="clipitem-1007" frameBlend="FALSE">
						<masterclipid>masterclip-29</masterclipid>
						<name>AA312601.MXF</name>
						<enabled>TRUE</enabled>
						<duration>1236</duration>
						<rate>
							<timebase>25</timebase>
							<ntsc>FALSE</ntsc>
						</rate>
						<start>2969</start>
						<end>3267</end>
						<in>422</in>
						<out>720</out>
						<file id="file-27"/>
						<sourcetrack>
							<mediatype>audio</mediatype>
							<trackindex>1</trackindex>
						</sourcetrack>
							<filter>
								<effect>
									<name>Audio Levels</name>
									<effectid>audiolevels</effectid>
									<effectcategory>audiolevels</effectcategory>
									<effecttype>audiolevels</effecttype>
									<mediatype>audio</mediatype>
									<parameter authoringApp="PremierePro">
										<parameterid>level</parameterid>
										<name>Level</name>
										<valuemin>0</valuemin>
										<valuemax>3.98109</valuemax>
										<value>1.58114</value>
									</parameter>
								</effect>
							</filter>
						<link>
							<linkclipref>clipitem-1007</linkclipref>
							<mediatype>audio</mediatype>
							<trackindex>1</trackindex>
							<clipindex>10</clipindex>
						</link>
						<link>
							<linkclipref>clipitem-1362</linkclipref>
							<mediatype>audio</mediatype>
							<trackindex>3</trackindex>
							<clipindex>6</clipindex>
						</link>
						<logginginfo>
							<description></description>
							<scene></scene>
							<shottake>AA3126</shottake>
							<lognote></lognote>
						</logginginfo>
						<labels>
							<label2>Iris</label2>
						</labels>
					</clipitem>
					<clipitem id="clipitem-1008" frameBlend="FALSE">
						<masterclipid>masterclip-31</masterclipid>
						<name>AA312801.MXF</name>
						<enabled>TRUE</enabled>
						<duration>336</duration>
						<rate>
							<timebase>25</timebase>
							<ntsc>FALSE</ntsc>
						</rate>
						<start>3267</start>
						<end>3464</end>
						<in>42</in>
						<out>239</out>
						<file id="file-29"/>
						<sourcetrack>
							<mediatype>audio</mediatype>
							<trackindex>1</trackindex>
						</sourcetrack>
							<filter>
								<effect>
									<name>Audio Levels</name>
									<effectid>audiolevels</effectid>
									<effectcategory>audiolevels</effectcategory>
									<effecttype>audiolevels</effecttype>
									<mediatype>audio</mediatype>
									<parameter authoringApp="PremierePro">
										<parameterid>level</parameterid>
										<name>Level</name>
										<valuemin>0</valuemin>
										<valuemax>3.98109</valuemax>
										<value>1.11936</value>
									</parameter>
								</effect>
							</filter>
						<link>
							<linkclipref>clipitem-424</linkclipref>
							<mediatype>video</mediatype>
							<trackindex>1</trackindex>
							<clipindex>28</clipindex>
						</link>
						<link>
							<linkclipref>clipitem-1008</linkclipref>
							<mediatype>audio</mediatype>
							<trackindex>1</trackindex>
							<clipindex>11</clipindex>
						</link>
						<link>
							<linkclipref>clipitem-1363</linkclipref>
							<mediatype>audio</mediatype>
							<trackindex>3</trackindex>
							<clipindex>7</clipindex>
						</link>
						<logginginfo>
							<description></description>
							<scene></scene>
							<shottake>AA3128</shottake>
							<lognote></lognote>
						</logginginfo>
						<labels>
							<label2>Iris</label2>
						</labels>
					</clipitem>
					<clipitem id="clipitem-1009" frameBlend="FALSE">
						<masterclipid>masterclip-32</masterclipid>
						<name>MVI_9583.MOV</name>
						<enabled>TRUE</enabled>
						<duration>397</duration>
						<rate>
							<timebase>25</timebase>
							<ntsc>FALSE</ntsc>
						</rate>
						<start>3464</start>
						<end>3543</end>
						<in>243</in>
						<out>322</out>
						<file id="file-30"/>
						<sourcetrack>
							<mediatype>audio</mediatype>
							<trackindex>1</trackindex>
						</sourcetrack>
						<link>
							<linkclipref>clipitem-425</linkclipref>
							<mediatype>video</mediatype>
							<trackindex>1</trackindex>
							<clipindex>29</clipindex>
						</link>
						<link>
							<linkclipref>clipitem-1009</linkclipref>
							<mediatype>audio</mediatype>
							<trackindex>1</trackindex>
							<clipindex>12</clipindex>
						</link>
						<link>
							<linkclipref>clipitem-1364</linkclipref>
							<mediatype>audio</mediatype>
							<trackindex>3</trackindex>
							<clipindex>8</clipindex>
						</link>
						<logginginfo>
							<description></description>
							<scene></scene>
							<shottake></shottake>
							<lognote></lognote>
						</logginginfo>
						<labels>
							<label2>Iris</label2>
						</labels>
					</clipitem>
					<clipitem id="clipitem-1010" frameBlend="FALSE">
						<masterclipid>masterclip-33</masterclipid>
						<name>AA315901.MXF</name>
						<enabled>TRUE</enabled>
						<duration>816</duration>
						<rate>
							<timebase>25</timebase>
							<ntsc>FALSE</ntsc>
						</rate>
						<start>3543</start>
						<end>3619</end>
						<in>604</in>
						<out>680</out>
						<file id="file-31"/>
						<sourcetrack>
							<mediatype>audio</mediatype>
							<trackindex>1</trackindex>
						</sourcetrack>
							<filter>
								<effect>
									<name>Audio Levels</name>
									<effectid>audiolevels</effectid>
									<effectcategory>audiolevels</effectcategory>
									<effecttype>audiolevels</effecttype>
									<mediatype>audio</mediatype>
									<parameter authoringApp="PremierePro">
										<parameterid>level</parameterid>
										<name>Level</name>
										<valuemin>0</valuemin>
										<valuemax>3.98109</valuemax>
										<value>0.889139</value>
									</parameter>
								</effect>
							</filter>
						<link>
							<linkclipref>clipitem-426</linkclipref>
							<mediatype>video</mediatype>
							<trackindex>1</trackindex>
							<clipindex>30</clipindex>
						</link>
						<link>
							<linkclipref>clipitem-1010</linkclipref>
							<mediatype>audio</mediatype>
							<trackindex>1</trackindex>
							<clipindex>13</clipindex>
						</link>
						<link>
							<linkclipref>clipitem-1365</linkclipref>
							<mediatype>audio</mediatype>
							<trackindex>3</trackindex>
							<clipindex>9</clipindex>
						</link>
						<logginginfo>
							<description></description>
							<scene></scene>
							<shottake>AA3159</shottake>
							<lognote></lognote>
						</logginginfo>
						<labels>
							<label2>Iris</label2>
						</labels>
					</clipitem>
					<clipitem id="clipitem-1011" frameBlend="FALSE">
						<masterclipid>masterclip-34</masterclipid>
						<name>MVI_9564.MOV</name>
						<enabled>TRUE</enabled>
						<duration>1090</duration>
						<rate>
							<timebase>25</timebase>
							<ntsc>FALSE</ntsc>
						</rate>
						<start>3619</start>
						<end>3656</end>
						<in>896</in>
						<out>933</out>
						<file id="file-32"/>
						<sourcetrack>
							<mediatype>audio</mediatype>
							<trackindex>1</trackindex>
						</sourcetrack>
						<link>
							<linkclipref>clipitem-427</linkclipref>
							<mediatype>video</mediatype>
							<trackindex>1</trackindex>
							<clipindex>31</clipindex>
						</link>
						<link>
							<linkclipref>clipitem-1011</linkclipref>
							<mediatype>audio</mediatype>
							<trackindex>1</trackindex>
							<clipindex>14</clipindex>
						</link>
						<link>
							<linkclipref>clipitem-1366</linkclipref>
							<mediatype>audio</mediatype>
							<trackindex>3</trackindex>
							<clipindex>10</clipindex>
						</link>
						<logginginfo>
							<description></description>
							<scene></scene>
							<shottake></shottake>
							<lognote></lognote>
						</logginginfo>
						<labels>
							<label2>Iris</label2>
						</labels>
					</clipitem>
					<clipitem id="clipitem-1012" frameBlend="FALSE">
						<masterclipid>masterclip-34</masterclipid>
						<name>MVI_9564.MOV</name>
						<enabled>TRUE</enabled>
						<duration>1090</duration>
						<rate>
							<timebase>25</timebase>
							<ntsc>FALSE</ntsc>
						</rate>
						<start>3656</start>
						<end>3709</end>
						<in>771</in>
						<out>824</out>
						<file id="file-32"/>
						<sourcetrack>
							<mediatype>audio</mediatype>
							<trackindex>1</trackindex>
						</sourcetrack>
						<link>
							<linkclipref>clipitem-1012</linkclipref>
							<mediatype>audio</mediatype>
							<trackindex>1</trackindex>
							<clipindex>15</clipindex>
						</link>
						<link>
							<linkclipref>clipitem-1367</linkclipref>
							<mediatype>audio</mediatype>
							<trackindex>3</trackindex>
							<clipindex>11</clipindex>
						</link>
						<logginginfo>
							<description></description>
							<scene></scene>
							<shottake></shottake>
							<lognote></lognote>
						</logginginfo>
						<labels>
							<label2>Iris</label2>
						</labels>
					</clipitem>
					<clipitem id="clipitem-1013" frameBlend="FALSE">
						<masterclipid>masterclip-35</masterclipid>
						<name>AA313201.MXFMulticam</name>
						<enabled>TRUE</enabled>
						<duration>1788</duration>
						<rate>
							<timebase>25</timebase>
							<ntsc>FALSE</ntsc>
						</rate>
						<start>3709</start>
						<end>3787</end>
						<in>348</in>
						<out>426</out>
						<sequence id="sequence-111" TL.SQAudioVisibleBase="0" TL.SQVideoVisibleBase="0" TL.SQVisibleBaseTime="0" TL.SQAVDividerPosition="0.5" TL.SQHideShyTracks="0" TL.SQHeaderWidth="188" Monitor.ProgramZoomOut="8484134400000" Monitor.ProgramZoomIn="7711925760000" TL.SQTimePerPixel="0.062692498736580379303795496071" AM.TrackVScrollPosition="0" AM.TrackScrollPosition="0" MZ.EditLine="7711925760000" MZ.Sequence.PreviewFrameSizeHeight="1080" MZ.Sequence.PreviewFrameSizeWidth="1920" MZ.Sequence.AudioTimeDisplayFormat="200" MZ.Sequence.PreviewRenderingClassID="1297106761" MZ.Sequence.PreviewRenderingPresetCodec="1297107278" MZ.Sequence.PreviewRenderingPresetPath="EncoderPresets/SequencePreview/795454d9-d3c2-429d-9474-923ab13b7018/I-Frame Only MPEG.epr" MZ.Sequence.PreviewUseMaxRenderQuality="false" MZ.Sequence.PreviewUseMaxBitDepth="false" MZ.Sequence.EditingModeGUID="795454d9-d3c2-429d-9474-923ab13b7018" MZ.Sequence.VideoTimeDisplayFormat="101" MZ.WorkOutPoint="15240960000000" MZ.WorkInPoint="0">
							<duration>1788</duration>
							<rate>
								<timebase>25</timebase>
								<ntsc>FALSE</ntsc>
							</rate>
							<name>AA313201.MXFMulticam</name>
							<media>
								<video>
									<format>
										<samplecharacteristics>
											<rate>
												<timebase>25</timebase>
												<ntsc>FALSE</ntsc>
											</rate>
											<codec>
												<name>Apple ProRes 422</name>
												<appspecificdata>
													<appname>Final Cut Pro</appname>
													<appmanufacturer>Apple Inc.</appmanufacturer>
													<appversion>7.0</appversion>
													<data>
														<qtcodec>
															<codecname>Apple ProRes 422</codecname>
															<codectypename>Apple ProRes 422</codectypename>
															<codectypecode>apcn</codectypecode>
															<codecvendorcode>appl</codecvendorcode>
															<spatialquality>1024</spatialquality>
															<temporalquality>0</temporalquality>
															<keyframerate>0</keyframerate>
															<datarate>0</datarate>
														</qtcodec>
													</data>
												</appspecificdata>
											</codec>
											<width>1920</width>
											<height>1080</height>
											<anamorphic>FALSE</anamorphic>
											<pixelaspectratio>square</pixelaspectratio>
											<fielddominance>upper</fielddominance>
											<colordepth>24</colordepth>
										</samplecharacteristics>
									</format>
									<track TL.SQTrackShy="0" TL.SQTrackExpandedHeight="25" TL.SQTrackExpanded="0" MZ.TrackTargeted="0">
										<clipitem id="clipitem-1014" frameBlend="FALSE">
											<masterclipid>masterclip-36</masterclipid>
											<name>AA313201.MXF</name>
											<enabled>TRUE</enabled>
											<duration>1788</duration>
											<rate>
												<timebase>25</timebase>
												<ntsc>FALSE</ntsc>
											</rate>
											<start>0</start>
											<end>1788</end>
											<in>0</in>
											<out>1788</out>
											<alphatype>none</alphatype>
											<file id="file-33"/>
											<link>
												<linkclipref>clipitem-1014</linkclipref>
												<mediatype>video</mediatype>
												<trackindex>1</trackindex>
												<clipindex>1</clipindex>
											</link>
											<link>
												<linkclipref>clipitem-1016</linkclipref>
												<mediatype>audio</mediatype>
												<trackindex>1</trackindex>
												<clipindex>1</clipindex>
												<groupindex>1</groupindex>
											</link>
											<link>
												<linkclipref>clipitem-1017</linkclipref>
												<mediatype>audio</mediatype>
												<trackindex>2</trackindex>
												<clipindex>1</clipindex>
												<groupindex>1</groupindex>
											</link>
											<logginginfo>
												<description></description>
												<scene></scene>
												<shottake>AA3132</shottake>
												<lognote></lognote>
											</logginginfo>
											<labels>
												<label2>Iris</label2>
											</labels>
										</clipitem>
										<enabled>TRUE</enabled>
										<locked>FALSE</locked>
									</track>
									<track TL.SQTrackShy="0" TL.SQTrackExpandedHeight="25" TL.SQTrackExpanded="0" MZ.TrackTargeted="0">
										<clipitem id="clipitem-1015" frameBlend="FALSE">
											<masterclipid>masterclip-37</masterclipid>
											<name>MVI_9551.MOV</name>
											<enabled>TRUE</enabled>
											<duration>816</duration>
											<rate>
												<timebase>25</timebase>
												<ntsc>FALSE</ntsc>
											</rate>
											<start>316</start>
											<end>1132</end>
											<in>0</in>
											<out>816</out>
											<alphatype>black</alphatype>
											<file id="file-34"/>
											<link>
												<linkclipref>clipitem-1015</linkclipref>
												<mediatype>video</mediatype>
												<trackindex>2</trackindex>
												<clipindex>1</clipindex>
											</link>
											<link>
												<linkclipref>clipitem-1018</linkclipref>
												<mediatype>audio</mediatype>
												<trackindex>3</trackindex>
												<clipindex>1</clipindex>
												<groupindex>1</groupindex>
											</link>
											<link>
												<linkclipref>clipitem-1019</linkclipref>
												<mediatype>audio</mediatype>
												<trackindex>4</trackindex>
												<clipindex>1</clipindex>
												<groupindex>1</groupindex>
											</link>
											<logginginfo>
												<description></description>
												<scene></scene>
												<shottake></shottake>
												<lognote></lognote>
											</logginginfo>
											<labels>
												<label2>Iris</label2>
											</labels>
										</clipitem>
										<enabled>TRUE</enabled>
										<locked>FALSE</locked>
									</track>
								</video>
								<audio>
									<format>
										<samplecharacteristics>
											<depth>16</depth>
											<samplerate>48000</samplerate>
										</samplecharacteristics>
									</format>
									<outputs>
										<group>
											<index>1</index>
											<numchannels>1</numchannels>
											<downmix>0</downmix>
											<channel>
												<index>1</index>
											</channel>
										</group>
										<group>
											<index>2</index>
											<numchannels>1</numchannels>
											<downmix>0</downmix>
											<channel>
												<index>2</index>
											</channel>
										</group>
										<group>
											<index>3</index>
											<numchannels>1</numchannels>
											<downmix>0</downmix>
											<channel>
												<index>3</index>
											</channel>
										</group>
										<group>
											<index>4</index>
											<numchannels>1</numchannels>
											<downmix>0</downmix>
											<channel>
												<index>4</index>
											</channel>
										</group>
									</outputs>
									<track TL.SQTrackAudioKeyframeStyle="0" TL.SQTrackShy="0" TL.SQTrackExpandedHeight="25" TL.SQTrackExpanded="0" MZ.TrackTargeted="1" PannerCurrentValue="0" PannerIsInverted="true" PannerStartKeyframe="-91445760000000000,0.,0,0,0,0,0,0" PannerName="Balance" currentExplodedTrackIndex="0" totalExplodedTrackCount="1" premiereTrackType="Stereo">
										<clipitem id="clipitem-1016" frameBlend="FALSE" PannerCurrentValue="0.5" PannerKeyframes="" PannerStartKeyframe="-91445760000000000,0.5,0,0,0,0,0,0" PannerIsInverted="true" PannerName="Pan">
											<masterclipid>masterclip-36</masterclipid>
											<name>AA313201.MXF</name>
											<enabled>TRUE</enabled>
											<duration>1788</duration>
											<rate>
												<timebase>25</timebase>
												<ntsc>FALSE</ntsc>
											</rate>
											<start>0</start>
											<end>1788</end>
											<in>0</in>
											<out>1788</out>
											<file id="file-33"/>
											<sourcetrack>
												<mediatype>audio</mediatype>
												<trackindex>1</trackindex>
											</sourcetrack>
												<filter>
													<effect>
														<name>Audio Pan</name>
														<effectid>audiopan</effectid>
														<effectcategory>audiopan</effectcategory>
														<effecttype>audiopan</effecttype>
														<mediatype>audio</mediatype>
														<parameter authoringApp="PremierePro">
															<parameterid>pan</parameterid>
															<name>Pan</name>
															<valuemin>-1</valuemin>
															<valuemax>1</valuemax>
															<value>0</value>
														</parameter>
													</effect>
												</filter>
											<link>
												<linkclipref>clipitem-1014</linkclipref>
												<mediatype>video</mediatype>
												<trackindex>1</trackindex>
												<clipindex>1</clipindex>
											</link>
											<link>
												<linkclipref>clipitem-1016</linkclipref>
												<mediatype>audio</mediatype>
												<trackindex>1</trackindex>
												<clipindex>1</clipindex>
												<groupindex>1</groupindex>
											</link>
											<link>
												<linkclipref>clipitem-1017</linkclipref>
												<mediatype>audio</mediatype>
												<trackindex>2</trackindex>
												<clipindex>1</clipindex>
												<groupindex>1</groupindex>
											</link>
											<logginginfo>
												<description></description>
												<scene></scene>
												<shottake>AA3132</shottake>
												<lognote></lognote>
											</logginginfo>
											<labels>
												<label2>Iris</label2>
											</labels>
										</clipitem>
										<enabled>TRUE</enabled>
										<locked>FALSE</locked>
										<outputchannelindex>1</outputchannelindex>
									</track>
									<track TL.SQTrackAudioKeyframeStyle="0" TL.SQTrackShy="0" TL.SQTrackExpandedHeight="25" TL.SQTrackExpanded="0" MZ.TrackTargeted="1" PannerCurrentValue="1." PannerIsInverted="true" PannerStartKeyframe="-91445760000000000,1.,0,0,0,0,0,0" PannerName="Balance" currentExplodedTrackIndex="0" totalExplodedTrackCount="1" premiereTrackType="Stereo">
										<clipitem id="clipitem-1017" frameBlend="FALSE" PannerCurrentValue="0.5" PannerKeyframes="" PannerStartKeyframe="-91445760000000000,0.5,0,0,0,0,0,0" PannerIsInverted="true" PannerName="Pan">
											<masterclipid>masterclip-36</masterclipid>
											<name>AA313201.MXF</name>
											<enabled>TRUE</enabled>
											<duration>1788</duration>
											<rate>
												<timebase>25</timebase>
												<ntsc>FALSE</ntsc>
											</rate>
											<start>0</start>
											<end>1788</end>
											<in>0</in>
											<out>1788</out>
											<file id="file-33"/>
											<sourcetrack>
												<mediatype>audio</mediatype>
												<trackindex>1</trackindex>
											</sourcetrack>
												<filter>
													<effect>
														<name>Audio Pan</name>
														<effectid>audiopan</effectid>
														<effectcategory>audiopan</effectcategory>
														<effecttype>audiopan</effecttype>
														<mediatype>audio</mediatype>
														<parameter authoringApp="PremierePro">
															<parameterid>pan</parameterid>
															<name>Pan</name>
															<valuemin>-1</valuemin>
															<valuemax>1</valuemax>
															<value>0</value>
														</parameter>
													</effect>
												</filter>
											<link>
												<linkclipref>clipitem-1014</linkclipref>
												<mediatype>video</mediatype>
												<trackindex>1</trackindex>
												<clipindex>1</clipindex>
											</link>
											<link>
												<linkclipref>clipitem-1016</linkclipref>
												<mediatype>audio</mediatype>
												<trackindex>1</trackindex>
												<clipindex>1</clipindex>
												<groupindex>1</groupindex>
											</link>
											<link>
												<linkclipref>clipitem-1017</linkclipref>
												<mediatype>audio</mediatype>
												<trackindex>2</trackindex>
												<clipindex>1</clipindex>
												<groupindex>1</groupindex>
											</link>
											<logginginfo>
												<description></description>
												<scene></scene>
												<shottake>AA3132</shottake>
												<lognote></lognote>
											</logginginfo>
											<labels>
												<label2>Iris</label2>
											</labels>
										</clipitem>
										<enabled>TRUE</enabled>
										<locked>FALSE</locked>
										<outputchannelindex>2</outputchannelindex>
									</track>
									<track TL.SQTrackAudioKeyframeStyle="0" TL.SQTrackShy="0" TL.SQTrackExpandedHeight="25" TL.SQTrackExpanded="0" MZ.TrackTargeted="1" PannerCurrentValue="0" PannerIsInverted="true" PannerStartKeyframe="-91445760000000000,0.,0,0,0,0,0,0" PannerName="Balance" currentExplodedTrackIndex="0" totalExplodedTrackCount="1" premiereTrackType="Stereo">
										<clipitem id="clipitem-1018" frameBlend="FALSE" PannerCurrentValue="0.5" PannerKeyframes="" PannerStartKeyframe="-91445760000000000,0.5,0,0,0,0,0,0" PannerIsInverted="true" PannerName="Pan">
											<masterclipid>masterclip-37</masterclipid>
											<name>MVI_9551.MOV</name>
											<enabled>TRUE</enabled>
											<duration>816</duration>
											<rate>
												<timebase>25</timebase>
												<ntsc>FALSE</ntsc>
											</rate>
											<start>316</start>
											<end>1132</end>
											<in>0</in>
											<out>816</out>
											<file id="file-34"/>
											<sourcetrack>
												<mediatype>audio</mediatype>
												<trackindex>1</trackindex>
											</sourcetrack>
												<filter>
													<effect>
														<name>Audio Pan</name>
														<effectid>audiopan</effectid>
														<effectcategory>audiopan</effectcategory>
														<effecttype>audiopan</effecttype>
														<mediatype>audio</mediatype>
														<parameter authoringApp="PremierePro">
															<parameterid>pan</parameterid>
															<name>Pan</name>
															<valuemin>-1</valuemin>
															<valuemax>1</valuemax>
															<value>0</value>
														</parameter>
													</effect>
												</filter>
											<link>
												<linkclipref>clipitem-1015</linkclipref>
												<mediatype>video</mediatype>
												<trackindex>2</trackindex>
												<clipindex>1</clipindex>
											</link>
											<link>
												<linkclipref>clipitem-1018</linkclipref>
												<mediatype>audio</mediatype>
												<trackindex>3</trackindex>
												<clipindex>1</clipindex>
												<groupindex>1</groupindex>
											</link>
											<link>
												<linkclipref>clipitem-1019</linkclipref>
												<mediatype>audio</mediatype>
												<trackindex>4</trackindex>
												<clipindex>1</clipindex>
												<groupindex>1</groupindex>
											</link>
											<logginginfo>
												<description></description>
												<scene></scene>
												<shottake></shottake>
												<lognote></lognote>
											</logginginfo>
											<labels>
												<label2>Iris</label2>
											</labels>
										</clipitem>
										<enabled>TRUE</enabled>
										<locked>FALSE</locked>
										<outputchannelindex>3</outputchannelindex>
									</track>
									<track TL.SQTrackAudioKeyframeStyle="0" TL.SQTrackShy="0" TL.SQTrackExpandedHeight="25" TL.SQTrackExpanded="0" MZ.TrackTargeted="1" PannerCurrentValue="1." PannerIsInverted="true" PannerStartKeyframe="-91445760000000000,1.,0,0,0,0,0,0" PannerName="Balance" currentExplodedTrackIndex="0" totalExplodedTrackCount="1" premiereTrackType="Stereo">
										<clipitem id="clipitem-1019" frameBlend="FALSE" PannerCurrentValue="0.5" PannerKeyframes="" PannerStartKeyframe="-91445760000000000,0.5,0,0,0,0,0,0" PannerIsInverted="true" PannerName="Pan">
											<masterclipid>masterclip-37</masterclipid>
											<name>MVI_9551.MOV</name>
											<enabled>TRUE</enabled>
											<duration>816</duration>
											<rate>
												<timebase>25</timebase>
												<ntsc>FALSE</ntsc>
											</rate>
											<start>316</start>
											<end>1132</end>
											<in>0</in>
											<out>816</out>
											<file id="file-34"/>
											<sourcetrack>
												<mediatype>audio</mediatype>
												<trackindex>2</trackindex>
											</sourcetrack>
												<filter>
													<effect>
														<name>Audio Pan</name>
														<effectid>audiopan</effectid>
														<effectcategory>audiopan</effectcategory>
														<effecttype>audiopan</effecttype>
														<mediatype>audio</mediatype>
														<parameter authoringApp="PremierePro">
															<parameterid>pan</parameterid>
															<name>Pan</name>
															<valuemin>-1</valuemin>
															<valuemax>1</valuemax>
															<value>0</value>
														</parameter>
													</effect>
												</filter>
											<link>
												<linkclipref>clipitem-1015</linkclipref>
												<mediatype>video</mediatype>
												<trackindex>2</trackindex>
												<clipindex>1</clipindex>
											</link>
											<link>
												<linkclipref>clipitem-1018</linkclipref>
												<mediatype>audio</mediatype>
												<trackindex>3</trackindex>
												<clipindex>1</clipindex>
												<groupindex>1</groupindex>
											</link>
											<link>
												<linkclipref>clipitem-1019</linkclipref>
												<mediatype>audio</mediatype>
												<trackindex>4</trackindex>
												<clipindex>1</clipindex>
												<groupindex>1</groupindex>
											</link>
											<logginginfo>
												<description></description>
												<scene></scene>
												<shottake></shottake>
												<lognote></lognote>
											</logginginfo>
											<labels>
												<label2>Iris</label2>
											</labels>
										</clipitem>
										<enabled>TRUE</enabled>
										<locked>FALSE</locked>
										<outputchannelindex>4</outputchannelindex>
									</track>
								</audio>
							</media>
							<timecode>
								<rate>
									<timebase>25</timebase>
									<ntsc>FALSE</ntsc>
								</rate>
								<string>00:00:00:00</string>
								<frame>0</frame>
								<displayformat>NDF</displayformat>
							</timecode>
						</sequence>
						<link>
							<linkclipref>clipitem-428</linkclipref>
							<mediatype>video</mediatype>
							<trackindex>1</trackindex>
							<clipindex>32</clipindex>
						</link>
						<link>
							<linkclipref>clipitem-1013</linkclipref>
							<mediatype>audio</mediatype>
							<trackindex>1</trackindex>
							<clipindex>16</clipindex>
						</link>
						<link>
							<linkclipref>clipitem-1368</linkclipref>
							<mediatype>audio</mediatype>
							<trackindex>3</trackindex>
							<clipindex>12</clipindex>
						</link>
						<labels>
							<label2>Forest</label2>
						</labels>
					</clipitem>
					<clipitem id="clipitem-1020" frameBlend="FALSE">
						<masterclipid>masterclip-35</masterclipid>
						<name>AA313201.MXFMulticam</name>
						<enabled>TRUE</enabled>
						<duration>1788</duration>
						<rate>
							<timebase>25</timebase>
							<ntsc>FALSE</ntsc>
						</rate>
						<start>3787</start>
						<end>3820</end>
						<in>567</in>
						<out>600</out>
						<sequence id="sequence-111"/>
						<link>
							<linkclipref>clipitem-1020</linkclipref>
							<mediatype>audio</mediatype>
							<trackindex>1</trackindex>
							<clipindex>17</clipindex>
						</link>
						<link>
							<linkclipref>clipitem-1369</linkclipref>
							<mediatype>audio</mediatype>
							<trackindex>3</trackindex>
							<clipindex>13</clipindex>
						</link>
						<labels>
							<label2>Forest</label2>
						</labels>
					</clipitem>
					<clipitem id="clipitem-1021" frameBlend="FALSE">
						<masterclipid>masterclip-36</masterclipid>
						<name>AA313201.MXF</name>
						<enabled>TRUE</enabled>
						<duration>1788</duration>
						<rate>
							<timebase>25</timebase>
							<ntsc>FALSE</ntsc>
						</rate>
						<start>3820</start>
						<end>3911</end>
						<in>615</in>
						<out>706</out>
						<file id="file-33"/>
						<sourcetrack>
							<mediatype>audio</mediatype>
							<trackindex>1</trackindex>
						</sourcetrack>
						<link>
							<linkclipref>clipitem-1021</linkclipref>
							<mediatype>audio</mediatype>
							<trackindex>1</trackindex>
							<clipindex>18</clipindex>
						</link>
						<link>
							<linkclipref>clipitem-1370</linkclipref>
							<mediatype>audio</mediatype>
							<trackindex>3</trackindex>
							<clipindex>14</clipindex>
						</link>
						<logginginfo>
							<description></description>
							<scene></scene>
							<shottake>AA3132</shottake>
							<lognote></lognote>
						</logginginfo>
						<labels>
							<label2>Iris</label2>
						</labels>
					</clipitem>
					<clipitem id="clipitem-1022" frameBlend="FALSE">
						<masterclipid>masterclip-35</masterclipid>
						<name>AA313201.MXFMulticam</name>
						<enabled>TRUE</enabled>
						<duration>1788</duration>
						<rate>
							<timebase>25</timebase>
							<ntsc>FALSE</ntsc>
						</rate>
						<start>3911</start>
						<end>4019</end>
						<in>810</in>
						<out>918</out>
						<sequence id="sequence-111"/>
						<link>
							<linkclipref>clipitem-437</linkclipref>
							<mediatype>video</mediatype>
							<trackindex>1</trackindex>
							<clipindex>35</clipindex>
						</link>
						<link>
							<linkclipref>clipitem-1022</linkclipref>
							<mediatype>audio</mediatype>
							<trackindex>1</trackindex>
							<clipindex>19</clipindex>
						</link>
						<link>
							<linkclipref>clipitem-1371</linkclipref>
							<mediatype>audio</mediatype>
							<trackindex>3</trackindex>
							<clipindex>15</clipindex>
						</link>
						<labels>
							<label2>Forest</label2>
						</labels>
					</clipitem>
					<clipitem id="clipitem-1023" frameBlend="FALSE">
						<masterclipid>masterclip-36</masterclipid>
						<name>AA313201.MXF</name>
						<enabled>TRUE</enabled>
						<duration>1788</duration>
						<rate>
							<timebase>25</timebase>
							<ntsc>FALSE</ntsc>
						</rate>
						<start>4019</start>
						<end>4046</end>
						<in>949</in>
						<out>976</out>
						<file id="file-33"/>
						<sourcetrack>
							<mediatype>audio</mediatype>
							<trackindex>1</trackindex>
						</sourcetrack>
							<filter>
								<effect>
									<name>Audio Levels</name>
									<effectid>audiolevels</effectid>
									<effectcategory>audiolevels</effectcategory>
									<effecttype>audiolevels</effecttype>
									<mediatype>audio</mediatype>
									<parameter authoringApp="PremierePro">
										<parameterid>level</parameterid>
										<name>Level</name>
										<valuemin>0</valuemin>
										<valuemax>3.98109</valuemax>
										<value>1.46461</value>
									</parameter>
								</effect>
							</filter>
						<link>
							<linkclipref>clipitem-1023</linkclipref>
							<mediatype>audio</mediatype>
							<trackindex>1</trackindex>
							<clipindex>20</clipindex>
						</link>
						<link>
							<linkclipref>clipitem-1372</linkclipref>
							<mediatype>audio</mediatype>
							<trackindex>3</trackindex>
							<clipindex>16</clipindex>
						</link>
						<logginginfo>
							<description></description>
							<scene></scene>
							<shottake>AA3132</shottake>
							<lognote></lognote>
						</logginginfo>
						<labels>
							<label2>Iris</label2>
						</labels>
					</clipitem>
					<clipitem id="clipitem-1024" frameBlend="FALSE">
						<masterclipid>masterclip-36</masterclipid>
						<name>AA313201.MXF</name>
						<enabled>TRUE</enabled>
						<duration>1788</duration>
						<rate>
							<timebase>25</timebase>
							<ntsc>FALSE</ntsc>
						</rate>
						<start>4046</start>
						<end>4727</end>
						<in>1032</in>
						<out>1713</out>
						<file id="file-33"/>
						<sourcetrack>
							<mediatype>audio</mediatype>
							<trackindex>1</trackindex>
						</sourcetrack>
						<link>
							<linkclipref>clipitem-1024</linkclipref>
							<mediatype>audio</mediatype>
							<trackindex>1</trackindex>
							<clipindex>21</clipindex>
						</link>
						<link>
							<linkclipref>clipitem-1373</linkclipref>
							<mediatype>audio</mediatype>
							<trackindex>3</trackindex>
							<clipindex>17</clipindex>
						</link>
						<logginginfo>
							<description></description>
							<scene></scene>
							<shottake>AA3132</shottake>
							<lognote></lognote>
						</logginginfo>
						<labels>
							<label2>Iris</label2>
						</labels>
					</clipitem>
					<clipitem id="clipitem-1025" frameBlend="FALSE">
						<masterclipid>masterclip-35</masterclipid>
						<name>AA313201.MXFMulticam</name>
						<enabled>TRUE</enabled>
						<duration>1788</duration>
						<rate>
							<timebase>25</timebase>
							<ntsc>FALSE</ntsc>
						</rate>
						<start>4727</start>
						<end>4728</end>
						<in>1713</in>
						<out>1714</out>
						<sequence id="sequence-111"/>
							<filter>
								<effect>
									<name>Audio Levels</name>
									<effectid>audiolevels</effectid>
									<effectcategory>audiolevels</effectcategory>
									<effecttype>audiolevels</effecttype>
									<mediatype>audio</mediatype>
									<parameter authoringApp="PremierePro">
										<parameterid>level</parameterid>
										<name>Level</name>
										<valuemin>0</valuemin>
										<valuemax>3.98109</valuemax>
										<value>1.58114</value>
									</parameter>
								</effect>
							</filter>
						<link>
							<linkclipref>clipitem-1025</linkclipref>
							<mediatype>audio</mediatype>
							<trackindex>1</trackindex>
							<clipindex>22</clipindex>
						</link>
						<link>
							<linkclipref>clipitem-1374</linkclipref>
							<mediatype>audio</mediatype>
							<trackindex>3</trackindex>
							<clipindex>18</clipindex>
						</link>
						<labels>
							<label2>Forest</label2>
						</labels>
					</clipitem>
					<clipitem id="clipitem-1026" frameBlend="FALSE">
						<masterclipid>masterclip-44</masterclipid>
						<name>AA313701.MXFMulticam</name>
						<enabled>TRUE</enabled>
						<duration>14040</duration>
						<rate>
							<timebase>25</timebase>
							<ntsc>FALSE</ntsc>
						</rate>
						<start>4993</start>
						<end>5039</end>
						<in>6952</in>
						<out>6998</out>
						<sequence id="sequence-112" TL.SQAudioVisibleBase="0" TL.SQVideoVisibleBase="0" TL.SQVisibleBaseTime="0" TL.SQAVDividerPosition="0.5" TL.SQHideShyTracks="0" TL.SQHeaderWidth="188" Monitor.ProgramZoomOut="2062609920000" Monitor.ProgramZoomIn="375943680000" TL.SQTimePerPixel="0.20000000000000001110223024625" AM.TrackVScrollPosition="0" AM.TrackScrollPosition="0" MZ.EditLine="1219276800000" MZ.Sequence.PreviewFrameSizeHeight="1080" MZ.Sequence.PreviewFrameSizeWidth="1920" MZ.Sequence.AudioTimeDisplayFormat="200" MZ.Sequence.PreviewRenderingClassID="1297106761" MZ.Sequence.PreviewRenderingPresetCodec="1297107278" MZ.Sequence.PreviewRenderingPresetPath="EncoderPresets/SequencePreview/795454d9-d3c2-429d-9474-923ab13b7018/I-Frame Only MPEG.epr" MZ.Sequence.PreviewUseMaxRenderQuality="false" MZ.Sequence.PreviewUseMaxBitDepth="false" MZ.Sequence.EditingModeGUID="795454d9-d3c2-429d-9474-923ab13b7018" MZ.Sequence.VideoTimeDisplayFormat="101" MZ.WorkOutPoint="15240960000000" MZ.WorkInPoint="0">
							<duration>14040</duration>
							<rate>
								<timebase>25</timebase>
								<ntsc>FALSE</ntsc>
							</rate>
							<name>AA313701.MXFMulticam</name>
							<media>
								<video>
									<format>
										<samplecharacteristics>
											<rate>
												<timebase>25</timebase>
												<ntsc>FALSE</ntsc>
											</rate>
											<codec>
												<name>Apple ProRes 422</name>
												<appspecificdata>
													<appname>Final Cut Pro</appname>
													<appmanufacturer>Apple Inc.</appmanufacturer>
													<appversion>7.0</appversion>
													<data>
														<qtcodec>
															<codecname>Apple ProRes 422</codecname>
															<codectypename>Apple ProRes 422</codectypename>
															<codectypecode>apcn</codectypecode>
															<codecvendorcode>appl</codecvendorcode>
															<spatialquality>1024</spatialquality>
															<temporalquality>0</temporalquality>
															<keyframerate>0</keyframerate>
															<datarate>0</datarate>
														</qtcodec>
													</data>
												</appspecificdata>
											</codec>
											<width>1920</width>
											<height>1080</height>
											<anamorphic>FALSE</anamorphic>
											<pixelaspectratio>square</pixelaspectratio>
											<fielddominance>upper</fielddominance>
											<colordepth>24</colordepth>
										</samplecharacteristics>
									</format>
									<track TL.SQTrackShy="0" TL.SQTrackExpandedHeight="25" TL.SQTrackExpanded="0" MZ.TrackTargeted="0">
										<clipitem id="clipitem-1027" frameBlend="FALSE">
											<masterclipid>masterclip-45</masterclipid>
											<name>AA313701.MXF</name>
											<enabled>TRUE</enabled>
											<duration>14040</duration>
											<rate>
												<timebase>25</timebase>
												<ntsc>FALSE</ntsc>
											</rate>
											<start>0</start>
											<end>14040</end>
											<in>0</in>
											<out>14040</out>
											<alphatype>none</alphatype>
											<file id="file-41"/>
											<link>
												<linkclipref>clipitem-1027</linkclipref>
												<mediatype>video</mediatype>
												<trackindex>1</trackindex>
												<clipindex>1</clipindex>
											</link>
											<link>
												<linkclipref>clipitem-1029</linkclipref>
												<mediatype>audio</mediatype>
												<trackindex>1</trackindex>
												<clipindex>1</clipindex>
												<groupindex>1</groupindex>
											</link>
											<link>
												<linkclipref>clipitem-1030</linkclipref>
												<mediatype>audio</mediatype>
												<trackindex>2</trackindex>
												<clipindex>1</clipindex>
												<groupindex>1</groupindex>
											</link>
											<logginginfo>
												<description></description>
												<scene></scene>
												<shottake>AA3137</shottake>
												<lognote></lognote>
											</logginginfo>
											<labels>
												<label2>Iris</label2>
											</labels>
										</clipitem>
										<enabled>TRUE</enabled>
										<locked>FALSE</locked>
									</track>
									<track TL.SQTrackShy="0" TL.SQTrackExpandedHeight="25" TL.SQTrackExpanded="0" MZ.TrackTargeted="0">
										<clipitem id="clipitem-1028" frameBlend="FALSE">
											<masterclipid>masterclip-46</masterclipid>
											<name>MVI_9556.MOV</name>
											<enabled>TRUE</enabled>
											<duration>11370</duration>
											<rate>
												<timebase>25</timebase>
												<ntsc>FALSE</ntsc>
											</rate>
											<start>58</start>
											<end>11428</end>
											<in>0</in>
											<out>11370</out>
											<alphatype>black</alphatype>
											<file id="file-42"/>
											<link>
												<linkclipref>clipitem-1028</linkclipref>
												<mediatype>video</mediatype>
												<trackindex>2</trackindex>
												<clipindex>1</clipindex>
											</link>
											<link>
												<linkclipref>clipitem-1031</linkclipref>
												<mediatype>audio</mediatype>
												<trackindex>3</trackindex>
												<clipindex>1</clipindex>
												<groupindex>1</groupindex>
											</link>
											<link>
												<linkclipref>clipitem-1032</linkclipref>
												<mediatype>audio</mediatype>
												<trackindex>4</trackindex>
												<clipindex>1</clipindex>
												<groupindex>1</groupindex>
											</link>
											<logginginfo>
												<description></description>
												<scene></scene>
												<shottake></shottake>
												<lognote></lognote>
											</logginginfo>
											<labels>
												<label2>Iris</label2>
											</labels>
										</clipitem>
										<enabled>TRUE</enabled>
										<locked>FALSE</locked>
									</track>
								</video>
								<audio>
									<format>
										<samplecharacteristics>
											<depth>16</depth>
											<samplerate>48000</samplerate>
										</samplecharacteristics>
									</format>
									<outputs>
										<group>
											<index>1</index>
											<numchannels>1</numchannels>
											<downmix>0</downmix>
											<channel>
												<index>1</index>
											</channel>
										</group>
										<group>
											<index>2</index>
											<numchannels>1</numchannels>
											<downmix>0</downmix>
											<channel>
												<index>2</index>
											</channel>
										</group>
										<group>
											<index>3</index>
											<numchannels>1</numchannels>
											<downmix>0</downmix>
											<channel>
												<index>3</index>
											</channel>
										</group>
										<group>
											<index>4</index>
											<numchannels>1</numchannels>
											<downmix>0</downmix>
											<channel>
												<index>4</index>
											</channel>
										</group>
									</outputs>
									<track TL.SQTrackAudioKeyframeStyle="0" TL.SQTrackShy="0" TL.SQTrackExpandedHeight="25" TL.SQTrackExpanded="0" MZ.TrackTargeted="1" PannerCurrentValue="0" PannerIsInverted="true" PannerStartKeyframe="-91445760000000000,0.,0,0,0,0,0,0" PannerName="Balance" currentExplodedTrackIndex="0" totalExplodedTrackCount="1" premiereTrackType="Stereo">
										<clipitem id="clipitem-1029" frameBlend="FALSE" PannerCurrentValue="0.5" PannerKeyframes="" PannerStartKeyframe="-91445760000000000,0.5,0,0,0,0,0,0" PannerIsInverted="true" PannerName="Pan">
											<masterclipid>masterclip-45</masterclipid>
											<name>AA313701.MXF</name>
											<enabled>TRUE</enabled>
											<duration>14040</duration>
											<rate>
												<timebase>25</timebase>
												<ntsc>FALSE</ntsc>
											</rate>
											<start>0</start>
											<end>14040</end>
											<in>0</in>
											<out>14040</out>
											<file id="file-41"/>
											<sourcetrack>
												<mediatype>audio</mediatype>
												<trackindex>1</trackindex>
											</sourcetrack>
												<filter>
													<effect>
														<name>Audio Pan</name>
														<effectid>audiopan</effectid>
														<effectcategory>audiopan</effectcategory>
														<effecttype>audiopan</effecttype>
														<mediatype>audio</mediatype>
														<parameter authoringApp="PremierePro">
															<parameterid>pan</parameterid>
															<name>Pan</name>
															<valuemin>-1</valuemin>
															<valuemax>1</valuemax>
															<value>0</value>
														</parameter>
													</effect>
												</filter>
											<link>
												<linkclipref>clipitem-1027</linkclipref>
												<mediatype>video</mediatype>
												<trackindex>1</trackindex>
												<clipindex>1</clipindex>
											</link>
											<link>
												<linkclipref>clipitem-1029</linkclipref>
												<mediatype>audio</mediatype>
												<trackindex>1</trackindex>
												<clipindex>1</clipindex>
												<groupindex>1</groupindex>
											</link>
											<link>
												<linkclipref>clipitem-1030</linkclipref>
												<mediatype>audio</mediatype>
												<trackindex>2</trackindex>
												<clipindex>1</clipindex>
												<groupindex>1</groupindex>
											</link>
											<logginginfo>
												<description></description>
												<scene></scene>
												<shottake>AA3137</shottake>
												<lognote></lognote>
											</logginginfo>
											<labels>
												<label2>Iris</label2>
											</labels>
										</clipitem>
										<enabled>TRUE</enabled>
										<locked>FALSE</locked>
										<outputchannelindex>1</outputchannelindex>
									</track>
									<track TL.SQTrackAudioKeyframeStyle="0" TL.SQTrackShy="0" TL.SQTrackExpandedHeight="25" TL.SQTrackExpanded="0" MZ.TrackTargeted="1" PannerCurrentValue="1." PannerIsInverted="true" PannerStartKeyframe="-91445760000000000,1.,0,0,0,0,0,0" PannerName="Balance" currentExplodedTrackIndex="0" totalExplodedTrackCount="1" premiereTrackType="Stereo">
										<clipitem id="clipitem-1030" frameBlend="FALSE" PannerCurrentValue="0.5" PannerKeyframes="" PannerStartKeyframe="-91445760000000000,0.5,0,0,0,0,0,0" PannerIsInverted="true" PannerName="Pan">
											<masterclipid>masterclip-45</masterclipid>
											<name>AA313701.MXF</name>
											<enabled>TRUE</enabled>
											<duration>14040</duration>
											<rate>
												<timebase>25</timebase>
												<ntsc>FALSE</ntsc>
											</rate>
											<start>0</start>
											<end>14040</end>
											<in>0</in>
											<out>14040</out>
											<file id="file-41"/>
											<sourcetrack>
												<mediatype>audio</mediatype>
												<trackindex>1</trackindex>
											</sourcetrack>
												<filter>
													<effect>
														<name>Audio Pan</name>
														<effectid>audiopan</effectid>
														<effectcategory>audiopan</effectcategory>
														<effecttype>audiopan</effecttype>
														<mediatype>audio</mediatype>
														<parameter authoringApp="PremierePro">
															<parameterid>pan</parameterid>
															<name>Pan</name>
															<valuemin>-1</valuemin>
															<valuemax>1</valuemax>
															<value>0</value>
														</parameter>
													</effect>
												</filter>
											<link>
												<linkclipref>clipitem-1027</linkclipref>
												<mediatype>video</mediatype>
												<trackindex>1</trackindex>
												<clipindex>1</clipindex>
											</link>
											<link>
												<linkclipref>clipitem-1029</linkclipref>
												<mediatype>audio</mediatype>
												<trackindex>1</trackindex>
												<clipindex>1</clipindex>
												<groupindex>1</groupindex>
											</link>
											<link>
												<linkclipref>clipitem-1030</linkclipref>
												<mediatype>audio</mediatype>
												<trackindex>2</trackindex>
												<clipindex>1</clipindex>
												<groupindex>1</groupindex>
											</link>
											<logginginfo>
												<description></description>
												<scene></scene>
												<shottake>AA3137</shottake>
												<lognote></lognote>
											</logginginfo>
											<labels>
												<label2>Iris</label2>
											</labels>
										</clipitem>
										<enabled>TRUE</enabled>
										<locked>FALSE</locked>
										<outputchannelindex>2</outputchannelindex>
									</track>
									<track TL.SQTrackAudioKeyframeStyle="0" TL.SQTrackShy="0" TL.SQTrackExpandedHeight="25" TL.SQTrackExpanded="0" MZ.TrackTargeted="1" PannerCurrentValue="0" PannerIsInverted="true" PannerStartKeyframe="-91445760000000000,0.,0,0,0,0,0,0" PannerName="Balance" currentExplodedTrackIndex="0" totalExplodedTrackCount="1" premiereTrackType="Stereo">
										<clipitem id="clipitem-1031" frameBlend="FALSE" PannerCurrentValue="0.5" PannerKeyframes="" PannerStartKeyframe="-91445760000000000,0.5,0,0,0,0,0,0" PannerIsInverted="true" PannerName="Pan">
											<masterclipid>masterclip-46</masterclipid>
											<name>MVI_9556.MOV</name>
											<enabled>TRUE</enabled>
											<duration>11370</duration>
											<rate>
												<timebase>25</timebase>
												<ntsc>FALSE</ntsc>
											</rate>
											<start>58</start>
											<end>11428</end>
											<in>0</in>
											<out>11370</out>
											<file id="file-42"/>
											<sourcetrack>
												<mediatype>audio</mediatype>
												<trackindex>1</trackindex>
											</sourcetrack>
												<filter>
													<effect>
														<name>Audio Pan</name>
														<effectid>audiopan</effectid>
														<effectcategory>audiopan</effectcategory>
														<effecttype>audiopan</effecttype>
														<mediatype>audio</mediatype>
														<parameter authoringApp="PremierePro">
															<parameterid>pan</parameterid>
															<name>Pan</name>
															<valuemin>-1</valuemin>
															<valuemax>1</valuemax>
															<value>0</value>
														</parameter>
													</effect>
												</filter>
											<link>
												<linkclipref>clipitem-1028</linkclipref>
												<mediatype>video</mediatype>
												<trackindex>2</trackindex>
												<clipindex>1</clipindex>
											</link>
											<link>
												<linkclipref>clipitem-1031</linkclipref>
												<mediatype>audio</mediatype>
												<trackindex>3</trackindex>
												<clipindex>1</clipindex>
												<groupindex>1</groupindex>
											</link>
											<link>
												<linkclipref>clipitem-1032</linkclipref>
												<mediatype>audio</mediatype>
												<trackindex>4</trackindex>
												<clipindex>1</clipindex>
												<groupindex>1</groupindex>
											</link>
											<logginginfo>
												<description></description>
												<scene></scene>
												<shottake></shottake>
												<lognote></lognote>
											</logginginfo>
											<labels>
												<label2>Iris</label2>
											</labels>
										</clipitem>
										<enabled>TRUE</enabled>
										<locked>FALSE</locked>
										<outputchannelindex>3</outputchannelindex>
									</track>
									<track TL.SQTrackAudioKeyframeStyle="0" TL.SQTrackShy="0" TL.SQTrackExpandedHeight="25" TL.SQTrackExpanded="0" MZ.TrackTargeted="1" PannerCurrentValue="1." PannerIsInverted="true" PannerStartKeyframe="-91445760000000000,1.,0,0,0,0,0,0" PannerName="Balance" currentExplodedTrackIndex="0" totalExplodedTrackCount="1" premiereTrackType="Stereo">
										<clipitem id="clipitem-1032" frameBlend="FALSE" PannerCurrentValue="0.5" PannerKeyframes="" PannerStartKeyframe="-91445760000000000,0.5,0,0,0,0,0,0" PannerIsInverted="true" PannerName="Pan">
											<masterclipid>masterclip-46</masterclipid>
											<name>MVI_9556.MOV</name>
											<enabled>TRUE</enabled>
											<duration>11370</duration>
											<rate>
												<timebase>25</timebase>
												<ntsc>FALSE</ntsc>
											</rate>
											<start>58</start>
											<end>11428</end>
											<in>0</in>
											<out>11370</out>
											<file id="file-42"/>
											<sourcetrack>
												<mediatype>audio</mediatype>
												<trackindex>2</trackindex>
											</sourcetrack>
												<filter>
													<effect>
														<name>Audio Pan</name>
														<effectid>audiopan</effectid>
														<effectcategory>audiopan</effectcategory>
														<effecttype>audiopan</effecttype>
														<mediatype>audio</mediatype>
														<parameter authoringApp="PremierePro">
															<parameterid>pan</parameterid>
															<name>Pan</name>
															<valuemin>-1</valuemin>
															<valuemax>1</valuemax>
															<value>0</value>
														</parameter>
													</effect>
												</filter>
											<link>
												<linkclipref>clipitem-1028</linkclipref>
												<mediatype>video</mediatype>
												<trackindex>2</trackindex>
												<clipindex>1</clipindex>
											</link>
											<link>
												<linkclipref>clipitem-1031</linkclipref>
												<mediatype>audio</mediatype>
												<trackindex>3</trackindex>
												<clipindex>1</clipindex>
												<groupindex>1</groupindex>
											</link>
											<link>
												<linkclipref>clipitem-1032</linkclipref>
												<mediatype>audio</mediatype>
												<trackindex>4</trackindex>
												<clipindex>1</clipindex>
												<groupindex>1</groupindex>
											</link>
											<logginginfo>
												<description></description>
												<scene></scene>
												<shottake></shottake>
												<lognote></lognote>
											</logginginfo>
											<labels>
												<label2>Iris</label2>
											</labels>
										</clipitem>
										<enabled>TRUE</enabled>
										<locked>FALSE</locked>
										<outputchannelindex>4</outputchannelindex>
									</track>
								</audio>
							</media>
							<timecode>
								<rate>
									<timebase>25</timebase>
									<ntsc>FALSE</ntsc>
								</rate>
								<string>00:00:00:00</string>
								<frame>0</frame>
								<displayformat>NDF</displayformat>
							</timecode>
						</sequence>
						<link>
							<linkclipref>clipitem-1026</linkclipref>
							<mediatype>audio</mediatype>
							<trackindex>1</trackindex>
							<clipindex>23</clipindex>
						</link>
						<link>
							<linkclipref>clipitem-1375</linkclipref>
							<mediatype>audio</mediatype>
							<trackindex>3</trackindex>
							<clipindex>19</clipindex>
						</link>
						<labels>
							<label2>Forest</label2>
						</labels>
					</clipitem>
					<clipitem id="clipitem-1033" frameBlend="FALSE">
						<masterclipid>masterclip-44</masterclipid>
						<name>AA313701.MXFMulticam</name>
						<enabled>TRUE</enabled>
						<duration>14040</duration>
						<rate>
							<timebase>25</timebase>
							<ntsc>FALSE</ntsc>
						</rate>
						<start>5039</start>
						<end>5089</end>
						<in>6998</in>
						<out>7048</out>
						<sequence id="sequence-112"/>
						<link>
							<linkclipref>clipitem-453</linkclipref>
							<mediatype>video</mediatype>
							<trackindex>1</trackindex>
							<clipindex>45</clipindex>
						</link>
						<link>
							<linkclipref>clipitem-1033</linkclipref>
							<mediatype>audio</mediatype>
							<trackindex>1</trackindex>
							<clipindex>24</clipindex>
						</link>
						<link>
							<linkclipref>clipitem-1376</linkclipref>
							<mediatype>audio</mediatype>
							<trackindex>3</trackindex>
							<clipindex>20</clipindex>
						</link>
						<labels>
							<label2>Forest</label2>
						</labels>
					</clipitem>
					<clipitem id="clipitem-1034" frameBlend="FALSE">
						<masterclipid>masterclip-44</masterclipid>
						<name>AA313701.MXFMulticam</name>
						<enabled>TRUE</enabled>
						<duration>14040</duration>
						<rate>
							<timebase>25</timebase>
							<ntsc>FALSE</ntsc>
						</rate>
						<start>5089</start>
						<end>5120</end>
						<in>7048</in>
						<out>7079</out>
						<sequence id="sequence-112"/>
						<link>
							<linkclipref>clipitem-454</linkclipref>
							<mediatype>video</mediatype>
							<trackindex>1</trackindex>
							<clipindex>46</clipindex>
						</link>
						<link>
							<linkclipref>clipitem-1034</linkclipref>
							<mediatype>audio</mediatype>
							<trackindex>1</trackindex>
							<clipindex>25</clipindex>
						</link>
						<link>
							<linkclipref>clipitem-1377</linkclipref>
							<mediatype>audio</mediatype>
							<trackindex>3</trackindex>
							<clipindex>21</clipindex>
						</link>
						<labels>
							<label2>Forest</label2>
						</labels>
					</clipitem>
					<clipitem id="clipitem-1035" frameBlend="FALSE">
						<masterclipid>masterclip-44</masterclipid>
						<name>AA313701.MXFMulticam</name>
						<enabled>TRUE</enabled>
						<duration>14040</duration>
						<rate>
							<timebase>25</timebase>
							<ntsc>FALSE</ntsc>
						</rate>
						<start>5120</start>
						<end>5153</end>
						<in>7305</in>
						<out>7338</out>
						<sequence id="sequence-112"/>
						<link>
							<linkclipref>clipitem-455</linkclipref>
							<mediatype>video</mediatype>
							<trackindex>1</trackindex>
							<clipindex>47</clipindex>
						</link>
						<link>
							<linkclipref>clipitem-1035</linkclipref>
							<mediatype>audio</mediatype>
							<trackindex>1</trackindex>
							<clipindex>26</clipindex>
						</link>
						<link>
							<linkclipref>clipitem-1378</linkclipref>
							<mediatype>audio</mediatype>
							<trackindex>3</trackindex>
							<clipindex>22</clipindex>
						</link>
						<labels>
							<label2>Forest</label2>
						</labels>
					</clipitem>
					<clipitem id="clipitem-1036" frameBlend="FALSE">
						<masterclipid>masterclip-44</masterclipid>
						<name>AA313701.MXFMulticam</name>
						<enabled>TRUE</enabled>
						<duration>14040</duration>
						<rate>
							<timebase>25</timebase>
							<ntsc>FALSE</ntsc>
						</rate>
						<start>5153</start>
						<end>5233</end>
						<in>7651</in>
						<out>7731</out>
						<sequence id="sequence-112"/>
							<filter>
								<effect>
									<name>Audio Levels</name>
									<effectid>audiolevels</effectid>
									<effectcategory>audiolevels</effectcategory>
									<effecttype>audiolevels</effecttype>
									<mediatype>audio</mediatype>
									<parameter authoringApp="PremierePro">
										<parameterid>level</parameterid>
										<name>Level</name>
										<valuemin>0</valuemin>
										<valuemax>3.98109</valuemax>
										<value>0.99763</value>
										<keyframe>
											<when>7662</when>
											<value>0.99763</value>
										</keyframe>
									</parameter>
								</effect>
							</filter>
						<link>
							<linkclipref>clipitem-456</linkclipref>
							<mediatype>video</mediatype>
							<trackindex>1</trackindex>
							<clipindex>48</clipindex>
						</link>
						<link>
							<linkclipref>clipitem-1036</linkclipref>
							<mediatype>audio</mediatype>
							<trackindex>1</trackindex>
							<clipindex>27</clipindex>
						</link>
						<link>
							<linkclipref>clipitem-1379</linkclipref>
							<mediatype>audio</mediatype>
							<trackindex>3</trackindex>
							<clipindex>23</clipindex>
						</link>
						<labels>
							<label2>Forest</label2>
						</labels>
					</clipitem>
					<clipitem id="clipitem-1037" frameBlend="FALSE">
						<masterclipid>masterclip-44</masterclipid>
						<name>AA313701.MXFMulticam</name>
						<enabled>TRUE</enabled>
						<duration>14040</duration>
						<rate>
							<timebase>25</timebase>
							<ntsc>FALSE</ntsc>
						</rate>
						<start>5233</start>
						<end>5343</end>
						<in>7731</in>
						<out>7841</out>
						<sequence id="sequence-112"/>
						<link>
							<linkclipref>clipitem-457</linkclipref>
							<mediatype>video</mediatype>
							<trackindex>1</trackindex>
							<clipindex>49</clipindex>
						</link>
						<link>
							<linkclipref>clipitem-1037</linkclipref>
							<mediatype>audio</mediatype>
							<trackindex>1</trackindex>
							<clipindex>28</clipindex>
						</link>
						<link>
							<linkclipref>clipitem-1380</linkclipref>
							<mediatype>audio</mediatype>
							<trackindex>3</trackindex>
							<clipindex>24</clipindex>
						</link>
						<labels>
							<label2>Forest</label2>
						</labels>
					</clipitem>
					<clipitem id="clipitem-1038" frameBlend="FALSE">
						<masterclipid>masterclip-44</masterclipid>
						<name>AA313701.MXFMulticam</name>
						<enabled>TRUE</enabled>
						<duration>14040</duration>
						<rate>
							<timebase>25</timebase>
							<ntsc>FALSE</ntsc>
						</rate>
						<start>5343</start>
						<end>5387</end>
						<in>7841</in>
						<out>7885</out>
						<sequence id="sequence-112"/>
						<link>
							<linkclipref>clipitem-458</linkclipref>
							<mediatype>video</mediatype>
							<trackindex>1</trackindex>
							<clipindex>50</clipindex>
						</link>
						<link>
							<linkclipref>clipitem-1038</linkclipref>
							<mediatype>audio</mediatype>
							<trackindex>1</trackindex>
							<clipindex>29</clipindex>
						</link>
						<link>
							<linkclipref>clipitem-1381</linkclipref>
							<mediatype>audio</mediatype>
							<trackindex>3</trackindex>
							<clipindex>25</clipindex>
						</link>
						<labels>
							<label2>Forest</label2>
						</labels>
					</clipitem>
					<clipitem id="clipitem-1039" frameBlend="FALSE">
						<masterclipid>masterclip-45</masterclipid>
						<name>AA313701.MXF</name>
						<enabled>TRUE</enabled>
						<duration>14040</duration>
						<rate>
							<timebase>25</timebase>
							<ntsc>FALSE</ntsc>
						</rate>
						<start>5519</start>
						<end>5930</end>
						<in>739</in>
						<out>1150</out>
						<file id="file-41"/>
						<sourcetrack>
							<mediatype>audio</mediatype>
							<trackindex>1</trackindex>
						</sourcetrack>
							<filter>
								<effect>
									<name>Audio Levels</name>
									<effectid>audiolevels</effectid>
									<effectcategory>audiolevels</effectcategory>
									<effecttype>audiolevels</effecttype>
									<mediatype>audio</mediatype>
									<parameter authoringApp="PremierePro">
										<parameterid>level</parameterid>
										<name>Level</name>
										<valuemin>0</valuemin>
										<valuemax>3.98109</valuemax>
										<value>1.58114</value>
									</parameter>
								</effect>
							</filter>
						<link>
							<linkclipref>clipitem-1039</linkclipref>
							<mediatype>audio</mediatype>
							<trackindex>1</trackindex>
							<clipindex>30</clipindex>
						</link>
						<link>
							<linkclipref>clipitem-1382</linkclipref>
							<mediatype>audio</mediatype>
							<trackindex>3</trackindex>
							<clipindex>26</clipindex>
						</link>
						<logginginfo>
							<description></description>
							<scene></scene>
							<shottake>AA3137</shottake>
							<lognote></lognote>
						</logginginfo>
						<labels>
							<label2>Iris</label2>
						</labels>
					</clipitem>
					<clipitem id="clipitem-1040" frameBlend="FALSE">
						<masterclipid>masterclip-52</masterclipid>
						<name>AA313601.MXF</name>
						<enabled>TRUE</enabled>
						<duration>1608</duration>
						<rate>
							<timebase>25</timebase>
							<ntsc>FALSE</ntsc>
						</rate>
						<start>5946</start>
						<end>5990</end>
						<in>266</in>
						<out>310</out>
						<file id="file-47"/>
						<sourcetrack>
							<mediatype>audio</mediatype>
							<trackindex>1</trackindex>
						</sourcetrack>
							<filter>
								<effect>
									<name>Audio Levels</name>
									<effectid>audiolevels</effectid>
									<effectcategory>audiolevels</effectcategory>
									<effecttype>audiolevels</effecttype>
									<mediatype>audio</mediatype>
									<parameter authoringApp="PremierePro">
										<parameterid>level</parameterid>
										<name>Level</name>
										<valuemin>0</valuemin>
										<valuemax>3.98109</valuemax>
										<value>1.99526</value>
									</parameter>
								</effect>
							</filter>
						<logginginfo>
							<description></description>
							<scene></scene>
							<shottake>AA3136</shottake>
							<lognote></lognote>
						</logginginfo>
						<labels>
							<label2>Iris</label2>
						</labels>
					</clipitem>
					<clipitem id="clipitem-1041" frameBlend="FALSE">
						<masterclipid>masterclip-45</masterclipid>
						<name>AA313701.MXF</name>
						<enabled>TRUE</enabled>
						<duration>14040</duration>
						<rate>
							<timebase>25</timebase>
							<ntsc>FALSE</ntsc>
						</rate>
						<start>6096</start>
						<end>6228</end>
						<in>2500</in>
						<out>2632</out>
						<file id="file-41"/>
						<sourcetrack>
							<mediatype>audio</mediatype>
							<trackindex>1</trackindex>
						</sourcetrack>
						<link>
							<linkclipref>clipitem-1041</linkclipref>
							<mediatype>audio</mediatype>
							<trackindex>1</trackindex>
							<clipindex>32</clipindex>
						</link>
						<link>
							<linkclipref>clipitem-1383</linkclipref>
							<mediatype>audio</mediatype>
							<trackindex>3</trackindex>
							<clipindex>27</clipindex>
						</link>
						<logginginfo>
							<description></description>
							<scene></scene>
							<shottake>AA3137</shottake>
							<lognote></lognote>
						</logginginfo>
						<labels>
							<label2>Iris</label2>
						</labels>
					</clipitem>
					<clipitem id="clipitem-1042" frameBlend="FALSE">
						<masterclipid>masterclip-45</masterclipid>
						<name>AA313701.MXF</name>
						<enabled>TRUE</enabled>
						<duration>14040</duration>
						<rate>
							<timebase>25</timebase>
							<ntsc>FALSE</ntsc>
						</rate>
						<start>6228</start>
						<end>6295</end>
						<in>4691</in>
						<out>4758</out>
						<file id="file-41"/>
						<sourcetrack>
							<mediatype>audio</mediatype>
							<trackindex>1</trackindex>
						</sourcetrack>
						<link>
							<linkclipref>clipitem-1042</linkclipref>
							<mediatype>audio</mediatype>
							<trackindex>1</trackindex>
							<clipindex>33</clipindex>
						</link>
						<link>
							<linkclipref>clipitem-1384</linkclipref>
							<mediatype>audio</mediatype>
							<trackindex>3</trackindex>
							<clipindex>28</clipindex>
						</link>
						<logginginfo>
							<description></description>
							<scene></scene>
							<shottake>AA3137</shottake>
							<lognote></lognote>
						</logginginfo>
						<labels>
							<label2>Iris</label2>
						</labels>
					</clipitem>
					<clipitem id="clipitem-1043" frameBlend="FALSE">
						<masterclipid>masterclip-45</masterclipid>
						<name>AA313701.MXF</name>
						<enabled>TRUE</enabled>
						<duration>14040</duration>
						<rate>
							<timebase>25</timebase>
							<ntsc>FALSE</ntsc>
						</rate>
						<start>6459</start>
						<end>7095</end>
						<in>1725</in>
						<out>2361</out>
						<file id="file-41"/>
						<sourcetrack>
							<mediatype>audio</mediatype>
							<trackindex>1</trackindex>
						</sourcetrack>
							<filter>
								<effect>
									<name>Audio Levels</name>
									<effectid>audiolevels</effectid>
									<effectcategory>audiolevels</effectcategory>
									<effecttype>audiolevels</effecttype>
									<mediatype>audio</mediatype>
									<parameter authoringApp="PremierePro">
										<parameterid>level</parameterid>
										<name>Level</name>
										<valuemin>0</valuemin>
										<valuemax>3.98109</valuemax>
										<value>1.99053</value>
									</parameter>
								</effect>
							</filter>
						<link>
							<linkclipref>clipitem-1043</linkclipref>
							<mediatype>audio</mediatype>
							<trackindex>1</trackindex>
							<clipindex>34</clipindex>
						</link>
						<link>
							<linkclipref>clipitem-1385</linkclipref>
							<mediatype>audio</mediatype>
							<trackindex>3</trackindex>
							<clipindex>29</clipindex>
						</link>
						<logginginfo>
							<description></description>
							<scene></scene>
							<shottake>AA3137</shottake>
							<lognote></lognote>
						</logginginfo>
						<labels>
							<label2>Iris</label2>
						</labels>
					</clipitem>
					<clipitem id="clipitem-1044" frameBlend="FALSE">
						<masterclipid>masterclip-53</masterclipid>
						<name>MVI_9582.MOV</name>
						<enabled>TRUE</enabled>
						<duration>470</duration>
						<rate>
							<timebase>25</timebase>
							<ntsc>FALSE</ntsc>
						</rate>
						<start>7095</start>
						<end>7187</end>
						<in>362</in>
						<out>454</out>
						<file id="file-48"/>
						<sourcetrack>
							<mediatype>audio</mediatype>
							<trackindex>1</trackindex>
						</sourcetrack>
							<filter>
								<effect>
									<name>Audio Levels</name>
									<effectid>audiolevels</effectid>
									<effectcategory>audiolevels</effectcategory>
									<effecttype>audiolevels</effecttype>
									<mediatype>audio</mediatype>
									<parameter authoringApp="PremierePro">
										<parameterid>level</parameterid>
										<name>Level</name>
										<valuemin>0</valuemin>
										<valuemax>3.98109</valuemax>
										<value>0.223342</value>
									</parameter>
								</effect>
							</filter>
						<link>
							<linkclipref>clipitem-1044</linkclipref>
							<mediatype>audio</mediatype>
							<trackindex>1</trackindex>
							<clipindex>35</clipindex>
						</link>
						<link>
							<linkclipref>clipitem-1386</linkclipref>
							<mediatype>audio</mediatype>
							<trackindex>3</trackindex>
							<clipindex>30</clipindex>
						</link>
						<logginginfo>
							<description></description>
							<scene></scene>
							<shottake></shottake>
							<lognote></lognote>
						</logginginfo>
						<labels>
							<label2>Iris</label2>
						</labels>
					</clipitem>
					<clipitem id="clipitem-1045" frameBlend="FALSE">
						<masterclipid>masterclip-54</masterclipid>
						<name>AA315301.MXF</name>
						<enabled>TRUE</enabled>
						<duration>7692</duration>
						<rate>
							<timebase>25</timebase>
							<ntsc>FALSE</ntsc>
						</rate>
						<start>7187</start>
						<end>7266</end>
						<in>0</in>
						<out>79</out>
						<file id="file-49"/>
						<sourcetrack>
							<mediatype>audio</mediatype>
							<trackindex>1</trackindex>
						</sourcetrack>
							<filter>
								<effect>
									<name>Audio Levels</name>
									<effectid>audiolevels</effectid>
									<effectcategory>audiolevels</effectcategory>
									<effecttype>audiolevels</effecttype>
									<mediatype>audio</mediatype>
									<parameter authoringApp="PremierePro">
										<parameterid>level</parameterid>
										<name>Level</name>
										<valuemin>0</valuemin>
										<valuemax>3.98109</valuemax>
										<value>0.223342</value>
									</parameter>
								</effect>
							</filter>
						<link>
							<linkclipref>clipitem-1045</linkclipref>
							<mediatype>audio</mediatype>
							<trackindex>1</trackindex>
							<clipindex>36</clipindex>
						</link>
						<link>
							<linkclipref>clipitem-1387</linkclipref>
							<mediatype>audio</mediatype>
							<trackindex>3</trackindex>
							<clipindex>31</clipindex>
						</link>
						<logginginfo>
							<description></description>
							<scene></scene>
							<shottake>AA3153</shottake>
							<lognote></lognote>
						</logginginfo>
						<labels>
							<label2>Iris</label2>
						</labels>
					</clipitem>
					<clipitem id="clipitem-1046" frameBlend="FALSE">
						<masterclipid>masterclip-54</masterclipid>
						<name>AA315301.MXF</name>
						<enabled>TRUE</enabled>
						<duration>7692</duration>
						<rate>
							<timebase>25</timebase>
							<ntsc>FALSE</ntsc>
						</rate>
						<start>7266</start>
						<end>7302</end>
						<in>214</in>
						<out>250</out>
						<file id="file-49"/>
						<sourcetrack>
							<mediatype>audio</mediatype>
							<trackindex>1</trackindex>
						</sourcetrack>
						<link>
							<linkclipref>clipitem-1046</linkclipref>
							<mediatype>audio</mediatype>
							<trackindex>1</trackindex>
							<clipindex>37</clipindex>
						</link>
						<link>
							<linkclipref>clipitem-1388</linkclipref>
							<mediatype>audio</mediatype>
							<trackindex>3</trackindex>
							<clipindex>32</clipindex>
						</link>
						<logginginfo>
							<description></description>
							<scene></scene>
							<shottake>AA3153</shottake>
							<lognote></lognote>
						</logginginfo>
						<labels>
							<label2>Iris</label2>
						</labels>
					</clipitem>
					<clipitem id="clipitem-1047" frameBlend="FALSE">
						<masterclipid>masterclip-54</masterclipid>
						<name>AA315301.MXF</name>
						<enabled>TRUE</enabled>
						<duration>7692</duration>
						<rate>
							<timebase>25</timebase>
							<ntsc>FALSE</ntsc>
						</rate>
						<start>7302</start>
						<end>7407</end>
						<in>532</in>
						<out>637</out>
						<file id="file-49"/>
						<sourcetrack>
							<mediatype>audio</mediatype>
							<trackindex>1</trackindex>
						</sourcetrack>
							<filter>
								<effect>
									<name>Audio Levels</name>
									<effectid>audiolevels</effectid>
									<effectcategory>audiolevels</effectcategory>
									<effecttype>audiolevels</effecttype>
									<mediatype>audio</mediatype>
									<parameter authoringApp="PremierePro">
										<parameterid>level</parameterid>
										<name>Level</name>
										<valuemin>0</valuemin>
										<valuemax>3.98109</valuemax>
										<value>1.77406</value>
									</parameter>
								</effect>
							</filter>
						<link>
							<linkclipref>clipitem-1047</linkclipref>
							<mediatype>audio</mediatype>
							<trackindex>1</trackindex>
							<clipindex>38</clipindex>
						</link>
						<link>
							<linkclipref>clipitem-1389</linkclipref>
							<mediatype>audio</mediatype>
							<trackindex>3</trackindex>
							<clipindex>33</clipindex>
						</link>
						<logginginfo>
							<description></description>
							<scene></scene>
							<shottake>AA3153</shottake>
							<lognote></lognote>
						</logginginfo>
						<labels>
							<label2>Iris</label2>
						</labels>
					</clipitem>
					<clipitem id="clipitem-1048" frameBlend="FALSE">
						<masterclipid>masterclip-54</masterclipid>
						<name>AA315301.MXF</name>
						<enabled>TRUE</enabled>
						<duration>7692</duration>
						<rate>
							<timebase>25</timebase>
							<ntsc>FALSE</ntsc>
						</rate>
						<start>7407</start>
						<end>7513</end>
						<in>1015</in>
						<out>1121</out>
						<file id="file-49"/>
						<sourcetrack>
							<mediatype>audio</mediatype>
							<trackindex>1</trackindex>
						</sourcetrack>
							<filter>
								<effect>
									<name>Audio Levels</name>
									<effectid>audiolevels</effectid>
									<effectcategory>audiolevels</effectcategory>
									<effecttype>audiolevels</effecttype>
									<mediatype>audio</mediatype>
									<parameter authoringApp="PremierePro">
										<parameterid>level</parameterid>
										<name>Level</name>
										<valuemin>0</valuemin>
										<valuemax>3.98109</valuemax>
										<value>1.77406</value>
									</parameter>
								</effect>
							</filter>
						<link>
							<linkclipref>clipitem-1048</linkclipref>
							<mediatype>audio</mediatype>
							<trackindex>1</trackindex>
							<clipindex>39</clipindex>
						</link>
						<link>
							<linkclipref>clipitem-1390</linkclipref>
							<mediatype>audio</mediatype>
							<trackindex>3</trackindex>
							<clipindex>34</clipindex>
						</link>
						<logginginfo>
							<description></description>
							<scene></scene>
							<shottake>AA3153</shottake>
							<lognote></lognote>
						</logginginfo>
						<labels>
							<label2>Iris</label2>
						</labels>
					</clipitem>
					<clipitem id="clipitem-1049" frameBlend="FALSE">
						<masterclipid>masterclip-54</masterclipid>
						<name>AA315301.MXF</name>
						<enabled>TRUE</enabled>
						<duration>7692</duration>
						<rate>
							<timebase>25</timebase>
							<ntsc>FALSE</ntsc>
						</rate>
						<start>7513</start>
						<end>7554</end>
						<in>1281</in>
						<out>1322</out>
						<file id="file-49"/>
						<sourcetrack>
							<mediatype>audio</mediatype>
							<trackindex>1</trackindex>
						</sourcetrack>
							<filter>
								<effect>
									<name>Audio Levels</name>
									<effectid>audiolevels</effectid>
									<effectcategory>audiolevels</effectcategory>
									<effecttype>audiolevels</effecttype>
									<mediatype>audio</mediatype>
									<parameter authoringApp="PremierePro">
										<parameterid>level</parameterid>
										<name>Level</name>
										<valuemin>0</valuemin>
										<valuemax>3.98109</valuemax>
										<value>1.77406</value>
									</parameter>
								</effect>
							</filter>
						<link>
							<linkclipref>clipitem-1049</linkclipref>
							<mediatype>audio</mediatype>
							<trackindex>1</trackindex>
							<clipindex>40</clipindex>
						</link>
						<link>
							<linkclipref>clipitem-1391</linkclipref>
							<mediatype>audio</mediatype>
							<trackindex>3</trackindex>
							<clipindex>35</clipindex>
						</link>
						<logginginfo>
							<description></description>
							<scene></scene>
							<shottake>AA3153</shottake>
							<lognote></lognote>
						</logginginfo>
						<labels>
							<label2>Iris</label2>
						</labels>
					</clipitem>
					<clipitem id="clipitem-1050" frameBlend="FALSE">
						<masterclipid>masterclip-54</masterclipid>
						<name>AA315301.MXF</name>
						<enabled>TRUE</enabled>
						<duration>7692</duration>
						<rate>
							<timebase>25</timebase>
							<ntsc>FALSE</ntsc>
						</rate>
						<start>7554</start>
						<end>7694</end>
						<in>1354</in>
						<out>1494</out>
						<file id="file-49"/>
						<sourcetrack>
							<mediatype>audio</mediatype>
							<trackindex>1</trackindex>
						</sourcetrack>
							<filter>
								<effect>
									<name>Audio Levels</name>
									<effectid>audiolevels</effectid>
									<effectcategory>audiolevels</effectcategory>
									<effecttype>audiolevels</effecttype>
									<mediatype>audio</mediatype>
									<parameter authoringApp="PremierePro">
										<parameterid>level</parameterid>
										<name>Level</name>
										<valuemin>0</valuemin>
										<valuemax>3.98109</valuemax>
										<value>1.77406</value>
									</parameter>
								</effect>
							</filter>
						<link>
							<linkclipref>clipitem-1050</linkclipref>
							<mediatype>audio</mediatype>
							<trackindex>1</trackindex>
							<clipindex>41</clipindex>
						</link>
						<link>
							<linkclipref>clipitem-1392</linkclipref>
							<mediatype>audio</mediatype>
							<trackindex>3</trackindex>
							<clipindex>36</clipindex>
						</link>
						<logginginfo>
							<description></description>
							<scene></scene>
							<shottake>AA3153</shottake>
							<lognote></lognote>
						</logginginfo>
						<labels>
							<label2>Iris</label2>
						</labels>
					</clipitem>
					<clipitem id="clipitem-1051" frameBlend="FALSE">
						<masterclipid>masterclip-54</masterclipid>
						<name>AA315301.MXF</name>
						<enabled>TRUE</enabled>
						<duration>7692</duration>
						<rate>
							<timebase>25</timebase>
							<ntsc>FALSE</ntsc>
						</rate>
						<start>7694</start>
						<end>7901</end>
						<in>1888</in>
						<out>2095</out>
						<file id="file-49"/>
						<sourcetrack>
							<mediatype>audio</mediatype>
							<trackindex>1</trackindex>
						</sourcetrack>
							<filter>
								<effect>
									<name>Audio Levels</name>
									<effectid>audiolevels</effectid>
									<effectcategory>audiolevels</effectcategory>
									<effecttype>audiolevels</effecttype>
									<mediatype>audio</mediatype>
									<parameter authoringApp="PremierePro">
										<parameterid>level</parameterid>
										<name>Level</name>
										<valuemin>0</valuemin>
										<valuemax>3.98109</valuemax>
										<value>1.99053</value>
									</parameter>
								</effect>
							</filter>
						<link>
							<linkclipref>clipitem-1051</linkclipref>
							<mediatype>audio</mediatype>
							<trackindex>1</trackindex>
							<clipindex>42</clipindex>
						</link>
						<link>
							<linkclipref>clipitem-1393</linkclipref>
							<mediatype>audio</mediatype>
							<trackindex>3</trackindex>
							<clipindex>37</clipindex>
						</link>
						<logginginfo>
							<description></description>
							<scene></scene>
							<shottake>AA3153</shottake>
							<lognote></lognote>
						</logginginfo>
						<labels>
							<label2>Iris</label2>
						</labels>
					</clipitem>
					<clipitem id="clipitem-1052" frameBlend="FALSE">
						<masterclipid>masterclip-54</masterclipid>
						<name>AA315301.MXF</name>
						<enabled>TRUE</enabled>
						<duration>7692</duration>
						<rate>
							<timebase>25</timebase>
							<ntsc>FALSE</ntsc>
						</rate>
						<start>7901</start>
						<end>8051</end>
						<in>3223</in>
						<out>3373</out>
						<file id="file-49"/>
						<sourcetrack>
							<mediatype>audio</mediatype>
							<trackindex>1</trackindex>
						</sourcetrack>
							<filter>
								<effect>
									<name>Audio Levels</name>
									<effectid>audiolevels</effectid>
									<effectcategory>audiolevels</effectcategory>
									<effecttype>audiolevels</effecttype>
									<mediatype>audio</mediatype>
									<parameter authoringApp="PremierePro">
										<parameterid>level</parameterid>
										<name>Level</name>
										<valuemin>0</valuemin>
										<valuemax>3.98109</valuemax>
										<value>1.58114</value>
									</parameter>
								</effect>
							</filter>
						<link>
							<linkclipref>clipitem-1052</linkclipref>
							<mediatype>audio</mediatype>
							<trackindex>1</trackindex>
							<clipindex>43</clipindex>
						</link>
						<link>
							<linkclipref>clipitem-1394</linkclipref>
							<mediatype>audio</mediatype>
							<trackindex>3</trackindex>
							<clipindex>38</clipindex>
						</link>
						<logginginfo>
							<description></description>
							<scene></scene>
							<shottake>AA3153</shottake>
							<lognote></lognote>
						</logginginfo>
						<labels>
							<label2>Iris</label2>
						</labels>
					</clipitem>
					<clipitem id="clipitem-1053" frameBlend="FALSE">
						<masterclipid>masterclip-54</masterclipid>
						<name>AA315301.MXF</name>
						<enabled>TRUE</enabled>
						<duration>7692</duration>
						<rate>
							<timebase>25</timebase>
							<ntsc>FALSE</ntsc>
						</rate>
						<start>8051</start>
						<end>8287</end>
						<in>5499</in>
						<out>5735</out>
						<file id="file-49"/>
						<sourcetrack>
							<mediatype>audio</mediatype>
							<trackindex>1</trackindex>
						</sourcetrack>
							<filter>
								<effect>
									<name>Audio Levels</name>
									<effectid>audiolevels</effectid>
									<effectcategory>audiolevels</effectcategory>
									<effecttype>audiolevels</effecttype>
									<mediatype>audio</mediatype>
									<parameter authoringApp="PremierePro">
										<parameterid>level</parameterid>
										<name>Level</name>
										<valuemin>0</valuemin>
										<valuemax>3.98109</valuemax>
										<value>1.58114</value>
									</parameter>
								</effect>
							</filter>
						<link>
							<linkclipref>clipitem-1053</linkclipref>
							<mediatype>audio</mediatype>
							<trackindex>1</trackindex>
							<clipindex>44</clipindex>
						</link>
						<link>
							<linkclipref>clipitem-1395</linkclipref>
							<mediatype>audio</mediatype>
							<trackindex>3</trackindex>
							<clipindex>39</clipindex>
						</link>
						<logginginfo>
							<description></description>
							<scene></scene>
							<shottake>AA3153</shottake>
							<lognote></lognote>
						</logginginfo>
						<labels>
							<label2>Iris</label2>
						</labels>
					</clipitem>
					<clipitem id="clipitem-1054" frameBlend="FALSE">
						<masterclipid>masterclip-54</masterclipid>
						<name>AA315301.MXF</name>
						<enabled>TRUE</enabled>
						<duration>7692</duration>
						<rate>
							<timebase>25</timebase>
							<ntsc>FALSE</ntsc>
						</rate>
						<start>8287</start>
						<end>8583</end>
						<in>5984</in>
						<out>6280</out>
						<file id="file-49"/>
						<sourcetrack>
							<mediatype>audio</mediatype>
							<trackindex>1</trackindex>
						</sourcetrack>
							<filter>
								<effect>
									<name>Audio Levels</name>
									<effectid>audiolevels</effectid>
									<effectcategory>audiolevels</effectcategory>
									<effecttype>audiolevels</effecttype>
									<mediatype>audio</mediatype>
									<parameter authoringApp="PremierePro">
										<parameterid>level</parameterid>
										<name>Level</name>
										<valuemin>0</valuemin>
										<valuemax>3.98109</valuemax>
										<value>1.99053</value>
									</parameter>
								</effect>
							</filter>
						<link>
							<linkclipref>clipitem-1054</linkclipref>
							<mediatype>audio</mediatype>
							<trackindex>1</trackindex>
							<clipindex>45</clipindex>
						</link>
						<link>
							<linkclipref>clipitem-1396</linkclipref>
							<mediatype>audio</mediatype>
							<trackindex>3</trackindex>
							<clipindex>40</clipindex>
						</link>
						<logginginfo>
							<description></description>
							<scene></scene>
							<shottake>AA3153</shottake>
							<lognote></lognote>
						</logginginfo>
						<labels>
							<label2>Iris</label2>
						</labels>
					</clipitem>
					<clipitem id="clipitem-1055" frameBlend="FALSE">
						<masterclipid>masterclip-60</masterclipid>
						<name>AA314401.MXF</name>
						<enabled>TRUE</enabled>
						<duration>15768</duration>
						<rate>
							<timebase>25</timebase>
							<ntsc>FALSE</ntsc>
						</rate>
						<start>8591</start>
						<end>8641</end>
						<in>1969</in>
						<out>2019</out>
						<file id="file-54"/>
						<sourcetrack>
							<mediatype>audio</mediatype>
							<trackindex>1</trackindex>
						</sourcetrack>
							<filter>
								<effect>
									<name>Audio Levels</name>
									<effectid>audiolevels</effectid>
									<effectcategory>audiolevels</effectcategory>
									<effecttype>audiolevels</effecttype>
									<mediatype>audio</mediatype>
									<parameter authoringApp="PremierePro">
										<parameterid>level</parameterid>
										<name>Level</name>
										<valuemin>0</valuemin>
										<valuemax>3.98109</valuemax>
										<value>1.99053</value>
									</parameter>
								</effect>
							</filter>
						<link>
							<linkclipref>clipitem-1055</linkclipref>
							<mediatype>audio</mediatype>
							<trackindex>1</trackindex>
							<clipindex>46</clipindex>
						</link>
						<link>
							<linkclipref>clipitem-1397</linkclipref>
							<mediatype>audio</mediatype>
							<trackindex>3</trackindex>
							<clipindex>41</clipindex>
						</link>
						<logginginfo>
							<description></description>
							<scene></scene>
							<shottake>AA3144</shottake>
							<lognote></lognote>
						</logginginfo>
						<labels>
							<label2>Iris</label2>
						</labels>
					</clipitem>
					<clipitem id="clipitem-1056" frameBlend="FALSE">
						<masterclipid>masterclip-60</masterclipid>
						<name>AA314401.MXF</name>
						<enabled>TRUE</enabled>
						<duration>15768</duration>
						<rate>
							<timebase>25</timebase>
							<ntsc>FALSE</ntsc>
						</rate>
						<start>8641</start>
						<end>8775</end>
						<in>2045</in>
						<out>2179</out>
						<file id="file-54"/>
						<sourcetrack>
							<mediatype>audio</mediatype>
							<trackindex>1</trackindex>
						</sourcetrack>
							<filter>
								<effect>
									<name>Audio Levels</name>
									<effectid>audiolevels</effectid>
									<effectcategory>audiolevels</effectcategory>
									<effecttype>audiolevels</effecttype>
									<mediatype>audio</mediatype>
									<parameter authoringApp="PremierePro">
										<parameterid>level</parameterid>
										<name>Level</name>
										<valuemin>0</valuemin>
										<valuemax>3.98109</valuemax>
										<value>1.99053</value>
									</parameter>
								</effect>
							</filter>
						<link>
							<linkclipref>clipitem-1056</linkclipref>
							<mediatype>audio</mediatype>
							<trackindex>1</trackindex>
							<clipindex>47</clipindex>
						</link>
						<link>
							<linkclipref>clipitem-1398</linkclipref>
							<mediatype>audio</mediatype>
							<trackindex>3</trackindex>
							<clipindex>42</clipindex>
						</link>
						<logginginfo>
							<description></description>
							<scene></scene>
							<shottake>AA3144</shottake>
							<lognote></lognote>
						</logginginfo>
						<labels>
							<label2>Iris</label2>
						</labels>
					</clipitem>
					<clipitem id="clipitem-1057" frameBlend="FALSE">
						<masterclipid>masterclip-66</masterclipid>
						<name>MVI_9557.MOV</name>
						<enabled>TRUE</enabled>
						<duration>2542</duration>
						<rate>
							<timebase>25</timebase>
							<ntsc>FALSE</ntsc>
						</rate>
						<start>8820</start>
						<end>9055</end>
						<in>147</in>
						<out>382</out>
						<file id="file-59"/>
						<sourcetrack>
							<mediatype>audio</mediatype>
							<trackindex>1</trackindex>
						</sourcetrack>
							<filter>
								<effect>
									<name>Audio Levels</name>
									<effectid>audiolevels</effectid>
									<effectcategory>audiolevels</effectcategory>
									<effecttype>audiolevels</effecttype>
									<mediatype>audio</mediatype>
									<parameter authoringApp="PremierePro">
										<parameterid>level</parameterid>
										<name>Level</name>
										<valuemin>0</valuemin>
										<valuemax>3.98109</valuemax>
										<value>0.0629462</value>
									</parameter>
								</effect>
							</filter>
						<link>
							<linkclipref>clipitem-510</linkclipref>
							<mediatype>video</mediatype>
							<trackindex>1</trackindex>
							<clipindex>82</clipindex>
						</link>
						<link>
							<linkclipref>clipitem-1057</linkclipref>
							<mediatype>audio</mediatype>
							<trackindex>1</trackindex>
							<clipindex>48</clipindex>
						</link>
						<link>
							<linkclipref>clipitem-1399</linkclipref>
							<mediatype>audio</mediatype>
							<trackindex>3</trackindex>
							<clipindex>43</clipindex>
						</link>
						<logginginfo>
							<description></description>
							<scene></scene>
							<shottake></shottake>
							<lognote></lognote>
						</logginginfo>
						<labels>
							<label2>Iris</label2>
						</labels>
					</clipitem>
					<clipitem id="clipitem-1058" frameBlend="FALSE">
						<masterclipid>masterclip-60</masterclipid>
						<name>AA314401.MXF</name>
						<enabled>TRUE</enabled>
						<duration>15768</duration>
						<rate>
							<timebase>25</timebase>
							<ntsc>FALSE</ntsc>
						</rate>
						<start>9055</start>
						<end>9371</end>
						<in>5479</in>
						<out>5795</out>
						<file id="file-54"/>
						<sourcetrack>
							<mediatype>audio</mediatype>
							<trackindex>1</trackindex>
						</sourcetrack>
							<filter>
								<effect>
									<name>Audio Levels</name>
									<effectid>audiolevels</effectid>
									<effectcategory>audiolevels</effectcategory>
									<effecttype>audiolevels</effecttype>
									<mediatype>audio</mediatype>
									<parameter authoringApp="PremierePro">
										<parameterid>level</parameterid>
										<name>Level</name>
										<valuemin>0</valuemin>
										<valuemax>3.98109</valuemax>
										<value>1.99526</value>
									</parameter>
								</effect>
							</filter>
						<link>
							<linkclipref>clipitem-1058</linkclipref>
							<mediatype>audio</mediatype>
							<trackindex>1</trackindex>
							<clipindex>49</clipindex>
						</link>
						<link>
							<linkclipref>clipitem-1400</linkclipref>
							<mediatype>audio</mediatype>
							<trackindex>3</trackindex>
							<clipindex>44</clipindex>
						</link>
						<logginginfo>
							<description></description>
							<scene></scene>
							<shottake>AA3144</shottake>
							<lognote></lognote>
						</logginginfo>
						<labels>
							<label2>Iris</label2>
						</labels>
					</clipitem>
					<clipitem id="clipitem-1059" frameBlend="FALSE">
						<masterclipid>masterclip-60</masterclipid>
						<name>AA314401.MXF</name>
						<enabled>TRUE</enabled>
						<duration>15768</duration>
						<rate>
							<timebase>25</timebase>
							<ntsc>FALSE</ntsc>
						</rate>
						<start>9371</start>
						<end>10270</end>
						<in>6085</in>
						<out>6984</out>
						<file id="file-54"/>
						<sourcetrack>
							<mediatype>audio</mediatype>
							<trackindex>1</trackindex>
						</sourcetrack>
							<filter>
								<effect>
									<name>Audio Levels</name>
									<effectid>audiolevels</effectid>
									<effectcategory>audiolevels</effectcategory>
									<effecttype>audiolevels</effecttype>
									<mediatype>audio</mediatype>
									<parameter authoringApp="PremierePro">
										<parameterid>level</parameterid>
										<name>Level</name>
										<valuemin>0</valuemin>
										<valuemax>3.98109</valuemax>
										<value>1.99526</value>
									</parameter>
								</effect>
							</filter>
						<link>
							<linkclipref>clipitem-1059</linkclipref>
							<mediatype>audio</mediatype>
							<trackindex>1</trackindex>
							<clipindex>50</clipindex>
						</link>
						<link>
							<linkclipref>clipitem-1401</linkclipref>
							<mediatype>audio</mediatype>
							<trackindex>3</trackindex>
							<clipindex>45</clipindex>
						</link>
						<logginginfo>
							<description></description>
							<scene></scene>
							<shottake>AA3144</shottake>
							<lognote></lognote>
						</logginginfo>
						<labels>
							<label2>Iris</label2>
						</labels>
					</clipitem>
					<clipitem id="clipitem-1060" frameBlend="FALSE">
						<masterclipid>masterclip-67</masterclipid>
						<name>Reaksjon_Smartehus_Gardemoen2.MOV</name>
						<enabled>TRUE</enabled>
						<duration>922</duration>
						<rate>
							<timebase>25</timebase>
							<ntsc>FALSE</ntsc>
						</rate>
						<start>10270</start>
						<end>10397</end>
						<in>18</in>
						<out>145</out>
						<file id="file-60"/>
						<sourcetrack>
							<mediatype>audio</mediatype>
							<trackindex>1</trackindex>
						</sourcetrack>
							<filter>
								<effect>
									<name>Audio Levels</name>
									<effectid>audiolevels</effectid>
									<effectcategory>audiolevels</effectcategory>
									<effecttype>audiolevels</effecttype>
									<mediatype>audio</mediatype>
									<parameter authoringApp="PremierePro">
										<parameterid>level</parameterid>
										<name>Level</name>
										<valuemin>0</valuemin>
										<valuemax>3.98109</valuemax>
										<value>1.58114</value>
									</parameter>
								</effect>
							</filter>
							<marker>
								<comment>er bekymret for at det kommer pￃﾥ avveie</comment>
								<name></name>
								<in>608</in>
								<out>-1</out>
							</marker>
						<link>
							<linkclipref>clipitem-515</linkclipref>
							<mediatype>video</mediatype>
							<trackindex>1</trackindex>
							<clipindex>87</clipindex>
						</link>
						<link>
							<linkclipref>clipitem-1060</linkclipref>
							<mediatype>audio</mediatype>
							<trackindex>1</trackindex>
							<clipindex>51</clipindex>
						</link>
						<logginginfo>
							<description></description>
							<scene></scene>
							<shottake></shottake>
							<lognote></lognote>
						</logginginfo>
						<labels>
							<label2>Iris</label2>
						</labels>
					</clipitem>
					<clipitem id="clipitem-1061" frameBlend="FALSE">
						<masterclipid>masterclip-68</masterclipid>
						<name>Reaksjon_Smarthus_Gardemoen1.MOV</name>
						<enabled>TRUE</enabled>
						<duration>1131</duration>
						<rate>
							<timebase>25</timebase>
							<ntsc>FALSE</ntsc>
						</rate>
						<start>10397</start>
						<end>10474</end>
						<in>293</in>
						<out>370</out>
						<file id="file-61"/>
						<sourcetrack>
							<mediatype>audio</mediatype>
							<trackindex>1</trackindex>
						</sourcetrack>
							<filter>
								<effect>
									<name>Audio Levels</name>
									<effectid>audiolevels</effectid>
									<effectcategory>audiolevels</effectcategory>
									<effecttype>audiolevels</effecttype>
									<mediatype>audio</mediatype>
									<parameter authoringApp="PremierePro">
										<parameterid>level</parameterid>
										<name>Level</name>
										<valuemin>0</valuemin>
										<valuemax>3.98109</valuemax>
										<value>1.58114</value>
									</parameter>
								</effect>
							</filter>
							<marker>
								<comment>skjￃﾸnner at det er fint, men at det kan komme pￃﾥ avveie</comment>
								<name></name>
								<in>177</in>
								<out>-1</out>
							</marker>
						<link>
							<linkclipref>clipitem-516</linkclipref>
							<mediatype>video</mediatype>
							<trackindex>1</trackindex>
							<clipindex>88</clipindex>
						</link>
						<link>
							<linkclipref>clipitem-1061</linkclipref>
							<mediatype>audio</mediatype>
							<trackindex>1</trackindex>
							<clipindex>52</clipindex>
						</link>
						<logginginfo>
							<description></description>
							<scene></scene>
							<shottake></shottake>
							<lognote></lognote>
						</logginginfo>
						<labels>
							<label2>Iris</label2>
						</labels>
					</clipitem>
					<clipitem id="clipitem-1062" frameBlend="FALSE">
						<masterclipid>masterclip-69</masterclipid>
						<name>Reaksjon_Smarthus_Gardemoen3.MOV</name>
						<enabled>TRUE</enabled>
						<duration>1114</duration>
						<rate>
							<timebase>25</timebase>
							<ntsc>FALSE</ntsc>
						</rate>
						<start>10474</start>
						<end>10591</end>
						<in>922</in>
						<out>1039</out>
						<file id="file-62"/>
						<sourcetrack>
							<mediatype>audio</mediatype>
							<trackindex>1</trackindex>
						</sourcetrack>
							<filter>
								<effect>
									<name>Audio Levels</name>
									<effectid>audiolevels</effectid>
									<effectcategory>audiolevels</effectcategory>
									<effecttype>audiolevels</effecttype>
									<mediatype>audio</mediatype>
									<parameter authoringApp="PremierePro">
										<parameterid>level</parameterid>
										<name>Level</name>
										<valuemin>0</valuemin>
										<valuemax>3.98109</valuemax>
										<value>1.58114</value>
									</parameter>
								</effect>
							</filter>
						<link>
							<linkclipref>clipitem-517</linkclipref>
							<mediatype>video</mediatype>
							<trackindex>1</trackindex>
							<clipindex>89</clipindex>
						</link>
						<link>
							<linkclipref>clipitem-1062</linkclipref>
							<mediatype>audio</mediatype>
							<trackindex>1</trackindex>
							<clipindex>53</clipindex>
						</link>
						<logginginfo>
							<description></description>
							<scene></scene>
							<shottake></shottake>
							<lognote></lognote>
						</logginginfo>
						<labels>
							<label2>Iris</label2>
						</labels>
					</clipitem>
					<clipitem id="clipitem-1063" frameBlend="FALSE">
						<masterclipid>masterclip-70</masterclipid>
						<name>Mobil 869.MOV</name>
						<enabled>TRUE</enabled>
						<duration>881</duration>
						<rate>
							<timebase>25</timebase>
							<ntsc>FALSE</ntsc>
						</rate>
						<start>10591</start>
						<end>10859</end>
						<in>41</in>
						<out>309</out>
						<file id="file-63"/>
						<sourcetrack>
							<mediatype>audio</mediatype>
							<trackindex>1</trackindex>
						</sourcetrack>
							<filter>
								<effect>
									<name>Audio Levels</name>
									<effectid>audiolevels</effectid>
									<effectcategory>audiolevels</effectcategory>
									<effecttype>audiolevels</effecttype>
									<mediatype>audio</mediatype>
									<parameter authoringApp="PremierePro">
										<parameterid>level</parameterid>
										<name>Level</name>
										<valuemin>0</valuemin>
										<valuemax>3.98109</valuemax>
										<value>1.99053</value>
									</parameter>
								</effect>
							</filter>
						<link>
							<linkclipref>clipitem-518</linkclipref>
							<mediatype>video</mediatype>
							<trackindex>1</trackindex>
							<clipindex>90</clipindex>
						</link>
						<link>
							<linkclipref>clipitem-1063</linkclipref>
							<mediatype>audio</mediatype>
							<trackindex>1</trackindex>
							<clipindex>54</clipindex>
						</link>
						<logginginfo>
							<description></description>
							<scene></scene>
							<shottake></shottake>
							<lognote></lognote>
						</logginginfo>
						<labels>
							<label2>Iris</label2>
						</labels>
					</clipitem>
					<clipitem id="clipitem-1064" frameBlend="FALSE">
						<masterclipid>masterclip-70</masterclipid>
						<name>Mobil 869.MOV</name>
						<enabled>TRUE</enabled>
						<duration>881</duration>
						<rate>
							<timebase>25</timebase>
							<ntsc>FALSE</ntsc>
						</rate>
						<start>10859</start>
						<end>11173</end>
						<in>413</in>
						<out>727</out>
						<file id="file-63"/>
						<sourcetrack>
							<mediatype>audio</mediatype>
							<trackindex>1</trackindex>
						</sourcetrack>
							<filter>
								<effect>
									<name>Audio Levels</name>
									<effectid>audiolevels</effectid>
									<effectcategory>audiolevels</effectcategory>
									<effecttype>audiolevels</effecttype>
									<mediatype>audio</mediatype>
									<parameter authoringApp="PremierePro">
										<parameterid>level</parameterid>
										<name>Level</name>
										<valuemin>0</valuemin>
										<valuemax>3.98109</valuemax>
										<value>1.99053</value>
									</parameter>
								</effect>
							</filter>
						<link>
							<linkclipref>clipitem-519</linkclipref>
							<mediatype>video</mediatype>
							<trackindex>1</trackindex>
							<clipindex>91</clipindex>
						</link>
						<link>
							<linkclipref>clipitem-1064</linkclipref>
							<mediatype>audio</mediatype>
							<trackindex>1</trackindex>
							<clipindex>55</clipindex>
						</link>
						<logginginfo>
							<description></description>
							<scene></scene>
							<shottake></shottake>
							<lognote></lognote>
						</logginginfo>
						<labels>
							<label2>Iris</label2>
						</labels>
					</clipitem>
					<clipitem id="clipitem-1065" frameBlend="FALSE">
						<masterclipid>masterclip-72</masterclipid>
						<name>MVI_0005.MOVthinfilm multi</name>
						<enabled>TRUE</enabled>
						<duration>15000</duration>
						<rate>
							<timebase>25</timebase>
							<ntsc>FALSE</ntsc>
						</rate>
						<start>11466</start>
						<end>11523</end>
						<in>6111</in>
						<out>6168</out>
						<sequence id="sequence-113" TL.SQAudioVisibleBase="0" TL.SQVideoVisibleBase="0" TL.SQVisibleBaseTime="0" TL.SQAVDividerPosition="0.5" TL.SQHideShyTracks="0" TL.SQHeaderWidth="188" Monitor.ProgramZoomOut="152409600000000" Monitor.ProgramZoomIn="0" TL.SQTimePerPixel="0.20000000000000001110223024625" AM.TrackVScrollPosition="0" AM.TrackScrollPosition="0" MZ.EditLine="0" MZ.Sequence.PreviewFrameSizeHeight="1080" MZ.Sequence.PreviewFrameSizeWidth="1920" MZ.Sequence.AudioTimeDisplayFormat="200" MZ.Sequence.PreviewRenderingClassID="1297106761" MZ.Sequence.PreviewRenderingPresetCodec="1297107278" MZ.Sequence.PreviewRenderingPresetPath="EncoderPresets/SequencePreview/cc7991f5-c236-4db1-957e-2c71f924e81c/I-Frame Only MPEG.epr" MZ.Sequence.PreviewUseMaxRenderQuality="false" MZ.Sequence.PreviewUseMaxBitDepth="false" MZ.Sequence.EditingModeGUID="cc7991f5-c236-4db1-957e-2c71f924e81c" MZ.Sequence.VideoTimeDisplayFormat="101" MZ.WorkOutPoint="15240960000000" MZ.WorkInPoint="0">
							<duration>14913</duration>
							<rate>
								<timebase>25</timebase>
								<ntsc>FALSE</ntsc>
							</rate>
							<name>MVI_0005.MOVthinfilm multi</name>
							<media>
								<video>
									<format>
										<samplecharacteristics>
											<rate>
												<timebase>25</timebase>
												<ntsc>FALSE</ntsc>
											</rate>
											<codec>
												<name>Apple ProRes 422</name>
												<appspecificdata>
													<appname>Final Cut Pro</appname>
													<appmanufacturer>Apple Inc.</appmanufacturer>
													<appversion>7.0</appversion>
													<data>
														<qtcodec>
															<codecname>Apple ProRes 422</codecname>
															<codectypename>Apple ProRes 422</codectypename>
															<codectypecode>apcn</codectypecode>
															<codecvendorcode>appl</codecvendorcode>
															<spatialquality>1024</spatialquality>
															<temporalquality>0</temporalquality>
															<keyframerate>0</keyframerate>
															<datarate>0</datarate>
														</qtcodec>
													</data>
												</appspecificdata>
											</codec>
											<width>1920</width>
											<height>1080</height>
											<anamorphic>FALSE</anamorphic>
											<pixelaspectratio>square</pixelaspectratio>
											<fielddominance>none</fielddominance>
											<colordepth>24</colordepth>
										</samplecharacteristics>
									</format>
									<track TL.SQTrackShy="0" TL.SQTrackExpandedHeight="25" TL.SQTrackExpanded="0" MZ.TrackTargeted="0">
										<clipitem id="clipitem-1066" frameBlend="FALSE">
											<masterclipid>masterclip-73</masterclipid>
											<name>MVI_0005.MOV</name>
											<enabled>TRUE</enabled>
											<duration>14746</duration>
											<rate>
												<timebase>25</timebase>
												<ntsc>FALSE</ntsc>
											</rate>
											<start>167</start>
											<end>14913</end>
											<in>0</in>
											<out>14746</out>
											<alphatype>black</alphatype>
											<file id="file-65"/>
											<link>
												<linkclipref>clipitem-1066</linkclipref>
												<mediatype>video</mediatype>
												<trackindex>1</trackindex>
												<clipindex>1</clipindex>
											</link>
											<link>
												<linkclipref>clipitem-1068</linkclipref>
												<mediatype>audio</mediatype>
												<trackindex>1</trackindex>
												<clipindex>1</clipindex>
												<groupindex>1</groupindex>
											</link>
											<link>
												<linkclipref>clipitem-1069</linkclipref>
												<mediatype>audio</mediatype>
												<trackindex>2</trackindex>
												<clipindex>1</clipindex>
												<groupindex>1</groupindex>
											</link>
											<logginginfo>
												<description></description>
												<scene></scene>
												<shottake></shottake>
												<lognote></lognote>
											</logginginfo>
											<labels>
												<label2>Iris</label2>
											</labels>
										</clipitem>
										<enabled>TRUE</enabled>
										<locked>FALSE</locked>
									</track>
									<track TL.SQTrackShy="0" TL.SQTrackExpandedHeight="25" TL.SQTrackExpanded="0" MZ.TrackTargeted="0">
										<clipitem id="clipitem-1067" frameBlend="FALSE">
											<masterclipid>masterclip-74</masterclipid>
											<name>AA011601.MXF</name>
											<enabled>TRUE</enabled>
											<duration>15000</duration>
											<rate>
												<timebase>25</timebase>
												<ntsc>FALSE</ntsc>
											</rate>
											<start>0</start>
											<end>15000</end>
											<in>0</in>
											<out>15000</out>
											<alphatype>none</alphatype>
											<file id="file-66"/>
											<link>
												<linkclipref>clipitem-1067</linkclipref>
												<mediatype>video</mediatype>
												<trackindex>2</trackindex>
												<clipindex>1</clipindex>
											</link>
											<link>
												<linkclipref>clipitem-1070</linkclipref>
												<mediatype>audio</mediatype>
												<trackindex>3</trackindex>
												<clipindex>1</clipindex>
												<groupindex>1</groupindex>
											</link>
											<link>
												<linkclipref>clipitem-1071</linkclipref>
												<mediatype>audio</mediatype>
												<trackindex>4</trackindex>
												<clipindex>1</clipindex>
												<groupindex>1</groupindex>
											</link>
											<logginginfo>
												<description></description>
												<scene></scene>
												<shottake>AA0116</shottake>
												<lognote></lognote>
											</logginginfo>
											<labels>
												<label2>Iris</label2>
											</labels>
										</clipitem>
										<enabled>TRUE</enabled>
										<locked>FALSE</locked>
									</track>
								</video>
								<audio>
									<format>
										<samplecharacteristics>
											<depth>16</depth>
											<samplerate>48000</samplerate>
										</samplecharacteristics>
									</format>
									<outputs>
										<group>
											<index>1</index>
											<numchannels>1</numchannels>
											<downmix>0</downmix>
											<channel>
												<index>1</index>
											</channel>
										</group>
										<group>
											<index>2</index>
											<numchannels>1</numchannels>
											<downmix>0</downmix>
											<channel>
												<index>2</index>
											</channel>
										</group>
										<group>
											<index>3</index>
											<numchannels>1</numchannels>
											<downmix>0</downmix>
											<channel>
												<index>3</index>
											</channel>
										</group>
										<group>
											<index>4</index>
											<numchannels>1</numchannels>
											<downmix>0</downmix>
											<channel>
												<index>4</index>
											</channel>
										</group>
									</outputs>
									<track TL.SQTrackAudioKeyframeStyle="0" TL.SQTrackShy="0" TL.SQTrackExpandedHeight="25" TL.SQTrackExpanded="0" MZ.TrackTargeted="1" PannerCurrentValue="0.5" PannerIsInverted="true" PannerStartKeyframe="-91445760000000000,0.5,0,0,0,0,0,0" PannerName="Balance" currentExplodedTrackIndex="0" totalExplodedTrackCount="2" premiereTrackType="Stereo">
										<clipitem id="clipitem-1068" frameBlend="FALSE" PannerCurrentValue="0.5" PannerKeyframes="" PannerStartKeyframe="-91445760000000000,0.5,0,0,0,0,0,0" PannerIsInverted="true" PannerName="Balance">
											<masterclipid>masterclip-73</masterclipid>
											<name>MVI_0005.MOV</name>
											<enabled>TRUE</enabled>
											<duration>14746</duration>
											<rate>
												<timebase>25</timebase>
												<ntsc>FALSE</ntsc>
											</rate>
											<start>167</start>
											<end>14913</end>
											<in>0</in>
											<out>14746</out>
											<file id="file-65"/>
											<sourcetrack>
												<mediatype>audio</mediatype>
												<trackindex>1</trackindex>
											</sourcetrack>
												<filter>
													<effect>
														<name>Audio Pan</name>
														<effectid>audiopan</effectid>
														<effectcategory>audiopan</effectcategory>
														<effecttype>audiopan</effecttype>
														<mediatype>audio</mediatype>
														<parameter authoringApp="PremierePro">
															<parameterid>pan</parameterid>
															<name>Pan</name>
															<valuemin>-1</valuemin>
															<valuemax>1</valuemax>
															<value>0</value>
														</parameter>
													</effect>
												</filter>
											<link>
												<linkclipref>clipitem-1066</linkclipref>
												<mediatype>video</mediatype>
												<trackindex>1</trackindex>
												<clipindex>1</clipindex>
											</link>
											<link>
												<linkclipref>clipitem-1068</linkclipref>
												<mediatype>audio</mediatype>
												<trackindex>1</trackindex>
												<clipindex>1</clipindex>
												<groupindex>1</groupindex>
											</link>
											<link>
												<linkclipref>clipitem-1069</linkclipref>
												<mediatype>audio</mediatype>
												<trackindex>2</trackindex>
												<clipindex>1</clipindex>
												<groupindex>1</groupindex>
											</link>
											<logginginfo>
												<description></description>
												<scene></scene>
												<shottake></shottake>
												<lognote></lognote>
											</logginginfo>
											<labels>
												<label2>Iris</label2>
											</labels>
										</clipitem>
										<enabled>TRUE</enabled>
										<locked>FALSE</locked>
										<outputchannelindex>1</outputchannelindex>
									</track>
									<track TL.SQTrackAudioKeyframeStyle="0" TL.SQTrackShy="0" TL.SQTrackExpandedHeight="25" TL.SQTrackExpanded="0" MZ.TrackTargeted="1" PannerCurrentValue="0.5" PannerIsInverted="true" PannerStartKeyframe="-91445760000000000,0.5,0,0,0,0,0,0" PannerName="Balance" currentExplodedTrackIndex="1" totalExplodedTrackCount="2" premiereTrackType="Stereo">
										<clipitem id="clipitem-1069" frameBlend="FALSE" PannerCurrentValue="0.5" PannerKeyframes="" PannerStartKeyframe="-91445760000000000,0.5,0,0,0,0,0,0" PannerIsInverted="true" PannerName="Balance">
											<masterclipid>masterclip-73</masterclipid>
											<name>MVI_0005.MOV</name>
											<enabled>TRUE</enabled>
											<duration>14746</duration>
											<rate>
												<timebase>25</timebase>
												<ntsc>FALSE</ntsc>
											</rate>
											<start>167</start>
											<end>14913</end>
											<in>0</in>
											<out>14746</out>
											<file id="file-65"/>
											<sourcetrack>
												<mediatype>audio</mediatype>
												<trackindex>2</trackindex>
											</sourcetrack>
												<filter>
													<effect>
														<name>Audio Pan</name>
														<effectid>audiopan</effectid>
														<effectcategory>audiopan</effectcategory>
														<effecttype>audiopan</effecttype>
														<mediatype>audio</mediatype>
														<parameter authoringApp="PremierePro">
															<parameterid>pan</parameterid>
															<name>Pan</name>
															<valuemin>-1</valuemin>
															<valuemax>1</valuemax>
															<value>0</value>
														</parameter>
													</effect>
												</filter>
											<link>
												<linkclipref>clipitem-1066</linkclipref>
												<mediatype>video</mediatype>
												<trackindex>1</trackindex>
												<clipindex>1</clipindex>
											</link>
											<link>
												<linkclipref>clipitem-1068</linkclipref>
												<mediatype>audio</mediatype>
												<trackindex>1</trackindex>
												<clipindex>1</clipindex>
												<groupindex>1</groupindex>
											</link>
											<link>
												<linkclipref>clipitem-1069</linkclipref>
												<mediatype>audio</mediatype>
												<trackindex>2</trackindex>
												<clipindex>1</clipindex>
												<groupindex>1</groupindex>
											</link>
											<logginginfo>
												<description></description>
												<scene></scene>
												<shottake></shottake>
												<lognote></lognote>
											</logginginfo>
											<labels>
												<label2>Iris</label2>
											</labels>
										</clipitem>
										<enabled>TRUE</enabled>
										<locked>FALSE</locked>
										<outputchannelindex>2</outputchannelindex>
									</track>
									<track TL.SQTrackAudioKeyframeStyle="0" TL.SQTrackShy="0" TL.SQTrackExpandedHeight="25" TL.SQTrackExpanded="0" MZ.TrackTargeted="1" PannerCurrentValue="0.5" PannerIsInverted="true" PannerStartKeyframe="-91445760000000000,0.5,0,0,0,0,0,0" PannerName="Balance" currentExplodedTrackIndex="0" totalExplodedTrackCount="2" premiereTrackType="Stereo">
										<clipitem id="clipitem-1070" frameBlend="FALSE" PannerCurrentValue="0.5" PannerKeyframes="" PannerStartKeyframe="-91445760000000000,0.5,0,0,0,0,0,0" PannerIsInverted="true" PannerName="Balance">
											<masterclipid>masterclip-74</masterclipid>
											<name>AA011601.MXF</name>
											<enabled>TRUE</enabled>
											<duration>15000</duration>
											<rate>
												<timebase>25</timebase>
												<ntsc>FALSE</ntsc>
											</rate>
											<start>0</start>
											<end>15000</end>
											<in>0</in>
											<out>15000</out>
											<file id="file-66"/>
											<sourcetrack>
												<mediatype>audio</mediatype>
												<trackindex>1</trackindex>
											</sourcetrack>
												<filter>
													<effect>
														<name>Audio Pan</name>
														<effectid>audiopan</effectid>
														<effectcategory>audiopan</effectcategory>
														<effecttype>audiopan</effecttype>
														<mediatype>audio</mediatype>
														<parameter authoringApp="PremierePro">
															<parameterid>pan</parameterid>
															<name>Pan</name>
															<valuemin>-1</valuemin>
															<valuemax>1</valuemax>
															<value>0</value>
														</parameter>
													</effect>
												</filter>
											<link>
												<linkclipref>clipitem-1067</linkclipref>
												<mediatype>video</mediatype>
												<trackindex>2</trackindex>
												<clipindex>1</clipindex>
											</link>
											<link>
												<linkclipref>clipitem-1070</linkclipref>
												<mediatype>audio</mediatype>
												<trackindex>3</trackindex>
												<clipindex>1</clipindex>
												<groupindex>1</groupindex>
											</link>
											<link>
												<linkclipref>clipitem-1071</linkclipref>
												<mediatype>audio</mediatype>
												<trackindex>4</trackindex>
												<clipindex>1</clipindex>
												<groupindex>1</groupindex>
											</link>
											<logginginfo>
												<description></description>
												<scene></scene>
												<shottake>AA0116</shottake>
												<lognote></lognote>
											</logginginfo>
											<labels>
												<label2>Iris</label2>
											</labels>
										</clipitem>
										<enabled>TRUE</enabled>
										<locked>FALSE</locked>
										<outputchannelindex>3</outputchannelindex>
									</track>
									<track TL.SQTrackAudioKeyframeStyle="0" TL.SQTrackShy="0" TL.SQTrackExpandedHeight="25" TL.SQTrackExpanded="0" MZ.TrackTargeted="1" PannerCurrentValue="0.5" PannerIsInverted="true" PannerStartKeyframe="-91445760000000000,0.5,0,0,0,0,0,0" PannerName="Balance" currentExplodedTrackIndex="1" totalExplodedTrackCount="2" premiereTrackType="Stereo">
										<clipitem id="clipitem-1071" frameBlend="FALSE" PannerCurrentValue="0.5" PannerKeyframes="" PannerStartKeyframe="-91445760000000000,0.5,0,0,0,0,0,0" PannerIsInverted="true" PannerName="Balance">
											<masterclipid>masterclip-74</masterclipid>
											<name>AA011601.MXF</name>
											<enabled>TRUE</enabled>
											<duration>15000</duration>
											<rate>
												<timebase>25</timebase>
												<ntsc>FALSE</ntsc>
											</rate>
											<start>0</start>
											<end>15000</end>
											<in>0</in>
											<out>15000</out>
											<file id="file-66"/>
											<sourcetrack>
												<mediatype>audio</mediatype>
												<trackindex>2</trackindex>
											</sourcetrack>
												<filter>
													<effect>
														<name>Audio Pan</name>
														<effectid>audiopan</effectid>
														<effectcategory>audiopan</effectcategory>
														<effecttype>audiopan</effecttype>
														<mediatype>audio</mediatype>
														<parameter authoringApp="PremierePro">
															<parameterid>pan</parameterid>
															<name>Pan</name>
															<valuemin>-1</valuemin>
															<valuemax>1</valuemax>
															<value>0</value>
														</parameter>
													</effect>
												</filter>
											<link>
												<linkclipref>clipitem-1067</linkclipref>
												<mediatype>video</mediatype>
												<trackindex>2</trackindex>
												<clipindex>1</clipindex>
											</link>
											<link>
												<linkclipref>clipitem-1070</linkclipref>
												<mediatype>audio</mediatype>
												<trackindex>3</trackindex>
												<clipindex>1</clipindex>
												<groupindex>1</groupindex>
											</link>
											<link>
												<linkclipref>clipitem-1071</linkclipref>
												<mediatype>audio</mediatype>
												<trackindex>4</trackindex>
												<clipindex>1</clipindex>
												<groupindex>1</groupindex>
											</link>
											<logginginfo>
												<description></description>
												<scene></scene>
												<shottake>AA0116</shottake>
												<lognote></lognote>
											</logginginfo>
											<labels>
												<label2>Iris</label2>
											</labels>
										</clipitem>
										<enabled>TRUE</enabled>
										<locked>FALSE</locked>
										<outputchannelindex>4</outputchannelindex>
									</track>
								</audio>
							</media>
							<timecode>
								<rate>
									<timebase>25</timebase>
									<ntsc>FALSE</ntsc>
								</rate>
								<string>00:00:00:00</string>
								<frame>0</frame>
								<displayformat>NDF</displayformat>
							</timecode>
						</sequence>
						<labels>
							<label2>Forest</label2>
						</labels>
					</clipitem>
					<clipitem id="clipitem-1072" frameBlend="FALSE">
						<masterclipid>masterclip-72</masterclipid>
						<name>MVI_0005.MOVthinfilm multi</name>
						<enabled>TRUE</enabled>
						<duration>15000</duration>
						<rate>
							<timebase>25</timebase>
							<ntsc>FALSE</ntsc>
						</rate>
						<start>11523</start>
						<end>11642</end>
						<in>3648</in>
						<out>3767</out>
						<sequence id="sequence-113"/>
						<labels>
							<label2>Forest</label2>
						</labels>
					</clipitem>
					<clipitem id="clipitem-1073" frameBlend="FALSE">
						<masterclipid>masterclip-77</masterclipid>
						<name>AA008601.MXF</name>
						<enabled>TRUE</enabled>
						<duration>1056</duration>
						<rate>
							<timebase>25</timebase>
							<ntsc>FALSE</ntsc>
						</rate>
						<start>12213</start>
						<end>12220</end>
						<in>611</in>
						<out>618</out>
						<file id="file-69"/>
						<sourcetrack>
							<mediatype>audio</mediatype>
							<trackindex>2</trackindex>
						</sourcetrack>
							<filter>
								<effect>
									<name>Audio Levels</name>
									<effectid>audiolevels</effectid>
									<effectcategory>audiolevels</effectcategory>
									<effecttype>audiolevels</effecttype>
									<mediatype>audio</mediatype>
									<parameter authoringApp="PremierePro">
										<parameterid>level</parameterid>
										<name>Level</name>
										<valuemin>0</valuemin>
										<valuemax>3.98109</valuemax>
										<value>1.67687</value>
									</parameter>
								</effect>
							</filter>
						<logginginfo>
							<description></description>
							<scene></scene>
							<shottake>AA0086</shottake>
							<lognote></lognote>
						</logginginfo>
						<labels>
							<label2>Iris</label2>
						</labels>
					</clipitem>
					<clipitem id="clipitem-1074" frameBlend="FALSE">
						<masterclipid>masterclip-77</masterclipid>
						<name>AA008601.MXF</name>
						<enabled>TRUE</enabled>
						<duration>1056</duration>
						<rate>
							<timebase>25</timebase>
							<ntsc>FALSE</ntsc>
						</rate>
						<start>12220</start>
						<end>12252</end>
						<in>681</in>
						<out>713</out>
						<file id="file-69"/>
						<sourcetrack>
							<mediatype>audio</mediatype>
							<trackindex>2</trackindex>
						</sourcetrack>
							<filter>
								<effect>
									<name>Audio Levels</name>
									<effectid>audiolevels</effectid>
									<effectcategory>audiolevels</effectcategory>
									<effecttype>audiolevels</effecttype>
									<mediatype>audio</mediatype>
									<parameter authoringApp="PremierePro">
										<parameterid>level</parameterid>
										<name>Level</name>
										<valuemin>0</valuemin>
										<valuemax>3.98109</valuemax>
										<value>1.67687</value>
									</parameter>
								</effect>
							</filter>
						<logginginfo>
							<description></description>
							<scene></scene>
							<shottake>AA0086</shottake>
							<lognote></lognote>
						</logginginfo>
						<labels>
							<label2>Iris</label2>
						</labels>
					</clipitem>
					<transitionitem>
						<start>13031</start>
						<end>13071</end>
						<alignment>start-black</alignment>
						<cutPoint>0</cutPoint>
						<rate>
							<timebase>25</timebase>
							<ntsc>FALSE</ntsc>
						</rate>
						<effect>
							<name>Cross Fade (+3dB)</name>
							<effectid>KGAudioTransCrossFade3dB</effectid>
							<effecttype>transition</effecttype>
							<mediatype>audio</mediatype>
							<wipecode>0</wipecode>
							<wipeaccuracy>100</wipeaccuracy>
							<startratio>0</startratio>
							<endratio>1</endratio>
							<reverse>FALSE</reverse>
						</effect>
					</transitionitem>
					<clipitem id="clipitem-1075" frameBlend="FALSE">
						<masterclipid>masterclip-87</masterclipid>
						<name>AA016301.MXFCowi varemesse multi</name>
						<enabled>TRUE</enabled>
						<duration>4692</duration>
						<rate>
							<timebase>25</timebase>
							<ntsc>FALSE</ntsc>
						</rate>
						<start>-1</start>
						<end>13301</end>
						<in>607</in>
						<out>877</out>
						<sequence id="sequence-114" MZ.Sequence.PreviewFrameSizeHeight="1080" MZ.Sequence.PreviewFrameSizeWidth="1920" MZ.Sequence.AudioTimeDisplayFormat="200" MZ.Sequence.PreviewRenderingClassID="1297106761" MZ.Sequence.PreviewRenderingPresetCodec="1297107278" MZ.Sequence.PreviewRenderingPresetPath="EncoderPresets/SequencePreview/795454d9-d3c2-429d-9474-923ab13b7018/I-Frame Only MPEG.epr" MZ.Sequence.PreviewUseMaxRenderQuality="false" MZ.Sequence.PreviewUseMaxBitDepth="false" MZ.Sequence.EditingModeGUID="795454d9-d3c2-429d-9474-923ab13b7018" MZ.Sequence.VideoTimeDisplayFormat="101" MZ.WorkOutPoint="15240960000000" MZ.WorkInPoint="0">
							<duration>4692</duration>
							<rate>
								<timebase>25</timebase>
								<ntsc>FALSE</ntsc>
							</rate>
							<name>AA016301.MXFCowi varemesse multi</name>
							<media>
								<video>
									<format>
										<samplecharacteristics>
											<rate>
												<timebase>25</timebase>
												<ntsc>FALSE</ntsc>
											</rate>
											<codec>
												<name>Apple ProRes 422</name>
												<appspecificdata>
													<appname>Final Cut Pro</appname>
													<appmanufacturer>Apple Inc.</appmanufacturer>
													<appversion>7.0</appversion>
													<data>
														<qtcodec>
															<codecname>Apple ProRes 422</codecname>
															<codectypename>Apple ProRes 422</codectypename>
															<codectypecode>apcn</codectypecode>
															<codecvendorcode>appl</codecvendorcode>
															<spatialquality>1024</spatialquality>
															<temporalquality>0</temporalquality>
															<keyframerate>0</keyframerate>
															<datarate>0</datarate>
														</qtcodec>
													</data>
												</appspecificdata>
											</codec>
											<width>1920</width>
											<height>1080</height>
											<anamorphic>FALSE</anamorphic>
											<pixelaspectratio>square</pixelaspectratio>
											<fielddominance>none</fielddominance>
											<colordepth>24</colordepth>
										</samplecharacteristics>
									</format>
									<track TL.SQTrackExpandedHeight="25" TL.SQTrackExpanded="0" MZ.TrackTargeted="0">
										<clipitem id="clipitem-1076" frameBlend="FALSE">
											<masterclipid>masterclip-88</masterclipid>
											<name>AA016301.MXF</name>
											<enabled>TRUE</enabled>
											<duration>4692</duration>
											<rate>
												<timebase>25</timebase>
												<ntsc>FALSE</ntsc>
											</rate>
											<start>0</start>
											<end>4692</end>
											<in>0</in>
											<out>4692</out>
											<alphatype>none</alphatype>
											<file id="file-78"/>
											<link>
												<linkclipref>clipitem-1076</linkclipref>
												<mediatype>video</mediatype>
												<trackindex>1</trackindex>
												<clipindex>1</clipindex>
											</link>
											<link>
												<linkclipref>clipitem-1078</linkclipref>
												<mediatype>audio</mediatype>
												<trackindex>1</trackindex>
												<clipindex>1</clipindex>
												<groupindex>1</groupindex>
											</link>
											<link>
												<linkclipref>clipitem-1079</linkclipref>
												<mediatype>audio</mediatype>
												<trackindex>2</trackindex>
												<clipindex>1</clipindex>
												<groupindex>1</groupindex>
											</link>
											<logginginfo>
												<description></description>
												<scene></scene>
												<shottake>AA0163</shottake>
												<lognote></lognote>
											</logginginfo>
											<labels>
												<label2>Iris</label2>
											</labels>
										</clipitem>
										<enabled>TRUE</enabled>
										<locked>FALSE</locked>
									</track>
									<track>
										<clipitem id="clipitem-1077" frameBlend="FALSE">
											<masterclipid>masterclip-89</masterclipid>
											<name>MVI_0095.MOV</name>
											<enabled>TRUE</enabled>
											<duration>3929</duration>
											<rate>
												<timebase>25</timebase>
												<ntsc>FALSE</ntsc>
											</rate>
											<start>534</start>
											<end>4463</end>
											<in>0</in>
											<out>3929</out>
											<alphatype>black</alphatype>
											<file id="file-79"/>
											<link>
												<linkclipref>clipitem-1077</linkclipref>
												<mediatype>video</mediatype>
												<trackindex>2</trackindex>
												<clipindex>1</clipindex>
											</link>
											<link>
												<linkclipref>clipitem-1080</linkclipref>
												<mediatype>audio</mediatype>
												<trackindex>3</trackindex>
												<clipindex>1</clipindex>
												<groupindex>1</groupindex>
											</link>
											<link>
												<linkclipref>clipitem-1081</linkclipref>
												<mediatype>audio</mediatype>
												<trackindex>4</trackindex>
												<clipindex>1</clipindex>
												<groupindex>1</groupindex>
											</link>
											<logginginfo>
												<description></description>
												<scene></scene>
												<shottake></shottake>
												<lognote></lognote>
											</logginginfo>
											<labels>
												<label2>Iris</label2>
											</labels>
										</clipitem>
										<enabled>TRUE</enabled>
										<locked>FALSE</locked>
									</track>
								</video>
								<audio>
									<format>
										<samplecharacteristics>
											<depth>16</depth>
											<samplerate>48000</samplerate>
										</samplecharacteristics>
									</format>
									<outputs>
										<group>
											<index>1</index>
											<numchannels>1</numchannels>
											<downmix>0</downmix>
											<channel>
												<index>1</index>
											</channel>
										</group>
										<group>
											<index>2</index>
											<numchannels>1</numchannels>
											<downmix>0</downmix>
											<channel>
												<index>2</index>
											</channel>
										</group>
										<group>
											<index>3</index>
											<numchannels>1</numchannels>
											<downmix>0</downmix>
											<channel>
												<index>3</index>
											</channel>
										</group>
										<group>
											<index>4</index>
											<numchannels>1</numchannels>
											<downmix>0</downmix>
											<channel>
												<index>4</index>
											</channel>
										</group>
									</outputs>
									<track TL.SQTrackExpandedHeight="25" TL.SQTrackExpanded="0" MZ.TrackTargeted="1" PannerCurrentValue="0.5" PannerIsInverted="true" PannerStartKeyframe="-91445760000000000,0.5,0,0,0,0,0,0" PannerName="Balance" currentExplodedTrackIndex="0" totalExplodedTrackCount="2" premiereTrackType="Stereo">
										<clipitem id="clipitem-1078" frameBlend="FALSE" PannerCurrentValue="0.5" PannerKeyframes="" PannerStartKeyframe="-91445760000000000,0.5,0,0,0,0,0,0" PannerIsInverted="true" PannerName="Balance">
											<masterclipid>masterclip-88</masterclipid>
											<name>AA016301.MXF</name>
											<enabled>TRUE</enabled>
											<duration>4692</duration>
											<rate>
												<timebase>25</timebase>
												<ntsc>FALSE</ntsc>
											</rate>
											<start>0</start>
											<end>4692</end>
											<in>0</in>
											<out>4692</out>
											<file id="file-78"/>
											<sourcetrack>
												<mediatype>audio</mediatype>
												<trackindex>1</trackindex>
											</sourcetrack>
												<filter>
													<effect>
														<name>Audio Pan</name>
														<effectid>audiopan</effectid>
														<effectcategory>audiopan</effectcategory>
														<effecttype>audiopan</effecttype>
														<mediatype>audio</mediatype>
														<parameter authoringApp="PremierePro">
															<parameterid>pan</parameterid>
															<name>Pan</name>
															<valuemin>-1</valuemin>
															<valuemax>1</valuemax>
															<value>0</value>
														</parameter>
													</effect>
												</filter>
											<link>
												<linkclipref>clipitem-1076</linkclipref>
												<mediatype>video</mediatype>
												<trackindex>1</trackindex>
												<clipindex>1</clipindex>
											</link>
											<link>
												<linkclipref>clipitem-1078</linkclipref>
												<mediatype>audio</mediatype>
												<trackindex>1</trackindex>
												<clipindex>1</clipindex>
												<groupindex>1</groupindex>
											</link>
											<link>
												<linkclipref>clipitem-1079</linkclipref>
												<mediatype>audio</mediatype>
												<trackindex>2</trackindex>
												<clipindex>1</clipindex>
												<groupindex>1</groupindex>
											</link>
											<logginginfo>
												<description></description>
												<scene></scene>
												<shottake>AA0163</shottake>
												<lognote></lognote>
											</logginginfo>
											<labels>
												<label2>Iris</label2>
											</labels>
										</clipitem>
										<enabled>TRUE</enabled>
										<locked>FALSE</locked>
										<outputchannelindex>1</outputchannelindex>
									</track>
									<track TL.SQTrackExpandedHeight="25" TL.SQTrackExpanded="0" MZ.TrackTargeted="1" PannerCurrentValue="0.5" PannerIsInverted="true" PannerStartKeyframe="-91445760000000000,0.5,0,0,0,0,0,0" PannerName="Balance" currentExplodedTrackIndex="1" totalExplodedTrackCount="2" premiereTrackType="Stereo">
										<clipitem id="clipitem-1079" frameBlend="FALSE" PannerCurrentValue="0.5" PannerKeyframes="" PannerStartKeyframe="-91445760000000000,0.5,0,0,0,0,0,0" PannerIsInverted="true" PannerName="Balance">
											<masterclipid>masterclip-88</masterclipid>
											<name>AA016301.MXF</name>
											<enabled>TRUE</enabled>
											<duration>4692</duration>
											<rate>
												<timebase>25</timebase>
												<ntsc>FALSE</ntsc>
											</rate>
											<start>0</start>
											<end>4692</end>
											<in>0</in>
											<out>4692</out>
											<file id="file-78"/>
											<sourcetrack>
												<mediatype>audio</mediatype>
												<trackindex>2</trackindex>
											</sourcetrack>
												<filter>
													<effect>
														<name>Audio Pan</name>
														<effectid>audiopan</effectid>
														<effectcategory>audiopan</effectcategory>
														<effecttype>audiopan</effecttype>
														<mediatype>audio</mediatype>
														<parameter authoringApp="PremierePro">
															<parameterid>pan</parameterid>
															<name>Pan</name>
															<valuemin>-1</valuemin>
															<valuemax>1</valuemax>
															<value>0</value>
														</parameter>
													</effect>
												</filter>
											<link>
												<linkclipref>clipitem-1076</linkclipref>
												<mediatype>video</mediatype>
												<trackindex>1</trackindex>
												<clipindex>1</clipindex>
											</link>
											<link>
												<linkclipref>clipitem-1078</linkclipref>
												<mediatype>audio</mediatype>
												<trackindex>1</trackindex>
												<clipindex>1</clipindex>
												<groupindex>1</groupindex>
											</link>
											<link>
												<linkclipref>clipitem-1079</linkclipref>
												<mediatype>audio</mediatype>
												<trackindex>2</trackindex>
												<clipindex>1</clipindex>
												<groupindex>1</groupindex>
											</link>
											<logginginfo>
												<description></description>
												<scene></scene>
												<shottake>AA0163</shottake>
												<lognote></lognote>
											</logginginfo>
											<labels>
												<label2>Iris</label2>
											</labels>
										</clipitem>
										<enabled>TRUE</enabled>
										<locked>FALSE</locked>
										<outputchannelindex>2</outputchannelindex>
									</track>
									<track TL.SQTrackExpandedHeight="25" TL.SQTrackExpanded="0" MZ.TrackTargeted="1" PannerCurrentValue="0.5" PannerIsInverted="true" PannerStartKeyframe="-91445760000000000,0.5,0,0,0,0,0,0" PannerName="Balance" currentExplodedTrackIndex="0" totalExplodedTrackCount="2" premiereTrackType="Stereo">
										<clipitem id="clipitem-1080" frameBlend="FALSE" PannerCurrentValue="0.5" PannerKeyframes="" PannerStartKeyframe="-91445760000000000,0.5,0,0,0,0,0,0" PannerIsInverted="true" PannerName="Balance">
											<masterclipid>masterclip-89</masterclipid>
											<name>MVI_0095.MOV</name>
											<enabled>TRUE</enabled>
											<duration>3929</duration>
											<rate>
												<timebase>25</timebase>
												<ntsc>FALSE</ntsc>
											</rate>
											<start>534</start>
											<end>4463</end>
											<in>0</in>
											<out>3929</out>
											<file id="file-79"/>
											<sourcetrack>
												<mediatype>audio</mediatype>
												<trackindex>1</trackindex>
											</sourcetrack>
												<filter>
													<effect>
														<name>Audio Pan</name>
														<effectid>audiopan</effectid>
														<effectcategory>audiopan</effectcategory>
														<effecttype>audiopan</effecttype>
														<mediatype>audio</mediatype>
														<parameter authoringApp="PremierePro">
															<parameterid>pan</parameterid>
															<name>Pan</name>
															<valuemin>-1</valuemin>
															<valuemax>1</valuemax>
															<value>0</value>
														</parameter>
													</effect>
												</filter>
											<link>
												<linkclipref>clipitem-1077</linkclipref>
												<mediatype>video</mediatype>
												<trackindex>2</trackindex>
												<clipindex>1</clipindex>
											</link>
											<link>
												<linkclipref>clipitem-1080</linkclipref>
												<mediatype>audio</mediatype>
												<trackindex>3</trackindex>
												<clipindex>1</clipindex>
												<groupindex>1</groupindex>
											</link>
											<link>
												<linkclipref>clipitem-1081</linkclipref>
												<mediatype>audio</mediatype>
												<trackindex>4</trackindex>
												<clipindex>1</clipindex>
												<groupindex>1</groupindex>
											</link>
											<logginginfo>
												<description></description>
												<scene></scene>
												<shottake></shottake>
												<lognote></lognote>
											</logginginfo>
											<labels>
												<label2>Iris</label2>
											</labels>
										</clipitem>
										<enabled>TRUE</enabled>
										<locked>FALSE</locked>
										<outputchannelindex>3</outputchannelindex>
									</track>
									<track TL.SQTrackExpandedHeight="25" TL.SQTrackExpanded="0" MZ.TrackTargeted="1" PannerCurrentValue="0.5" PannerIsInverted="true" PannerStartKeyframe="-91445760000000000,0.5,0,0,0,0,0,0" PannerName="Balance" currentExplodedTrackIndex="1" totalExplodedTrackCount="2" premiereTrackType="Stereo">
										<clipitem id="clipitem-1081" frameBlend="FALSE" PannerCurrentValue="0.5" PannerKeyframes="" PannerStartKeyframe="-91445760000000000,0.5,0,0,0,0,0,0" PannerIsInverted="true" PannerName="Balance">
											<masterclipid>masterclip-89</masterclipid>
											<name>MVI_0095.MOV</name>
											<enabled>TRUE</enabled>
											<duration>3929</duration>
											<rate>
												<timebase>25</timebase>
												<ntsc>FALSE</ntsc>
											</rate>
											<start>534</start>
											<end>4463</end>
											<in>0</in>
											<out>3929</out>
											<file id="file-79"/>
											<sourcetrack>
												<mediatype>audio</mediatype>
												<trackindex>2</trackindex>
											</sourcetrack>
												<filter>
													<effect>
														<name>Audio Pan</name>
														<effectid>audiopan</effectid>
														<effectcategory>audiopan</effectcategory>
														<effecttype>audiopan</effecttype>
														<mediatype>audio</mediatype>
														<parameter authoringApp="PremierePro">
															<parameterid>pan</parameterid>
															<name>Pan</name>
															<valuemin>-1</valuemin>
															<valuemax>1</valuemax>
															<value>0</value>
														</parameter>
													</effect>
												</filter>
											<link>
												<linkclipref>clipitem-1077</linkclipref>
												<mediatype>video</mediatype>
												<trackindex>2</trackindex>
												<clipindex>1</clipindex>
											</link>
											<link>
												<linkclipref>clipitem-1080</linkclipref>
												<mediatype>audio</mediatype>
												<trackindex>3</trackindex>
												<clipindex>1</clipindex>
												<groupindex>1</groupindex>
											</link>
											<link>
												<linkclipref>clipitem-1081</linkclipref>
												<mediatype>audio</mediatype>
												<trackindex>4</trackindex>
												<clipindex>1</clipindex>
												<groupindex>1</groupindex>
											</link>
											<logginginfo>
												<description></description>
												<scene></scene>
												<shottake></shottake>
												<lognote></lognote>
											</logginginfo>
											<labels>
												<label2>Iris</label2>
											</labels>
										</clipitem>
										<enabled>TRUE</enabled>
										<locked>FALSE</locked>
										<outputchannelindex>4</outputchannelindex>
									</track>
								</audio>
							</media>
							<timecode>
								<rate>
									<timebase>25</timebase>
									<ntsc>FALSE</ntsc>
								</rate>
								<string>00:00:00:00</string>
								<frame>0</frame>
								<displayformat>NDF</displayformat>
							</timecode>
						</sequence>
							<filter>
								<effect>
									<name>Audio Levels</name>
									<effectid>audiolevels</effectid>
									<effectcategory>audiolevels</effectcategory>
									<effecttype>audiolevels</effecttype>
									<mediatype>audio</mediatype>
									<parameter authoringApp="PremierePro">
										<parameterid>level</parameterid>
										<name>Level</name>
										<valuemin>0</valuemin>
										<valuemax>3.98109</valuemax>
										<value>0.445625</value>
									</parameter>
								</effect>
							</filter>
						<labels>
							<label2>Forest</label2>
						</labels>
					</clipitem>
					<clipitem id="clipitem-1082" frameBlend="FALSE">
						<masterclipid>masterclip-92</masterclipid>
						<name>AA016701.MXFCowi varemesse multi</name>
						<enabled>TRUE</enabled>
						<duration>8897</duration>
						<rate>
							<timebase>25</timebase>
							<ntsc>FALSE</ntsc>
						</rate>
						<start>13539</start>
						<end>13670</end>
						<in>3060</in>
						<out>3191</out>
						<sequence id="sequence-115" TL.SQAudioVisibleBase="0" TL.SQVideoVisibleBase="0" TL.SQVisibleBaseTime="0" TL.SQAVDividerPosition="0.5" TL.SQHideShyTracks="0" TL.SQHeaderWidth="188" Monitor.ProgramZoomOut="90399214080000" Monitor.ProgramZoomIn="0" TL.SQTimePerPixel="0.20000000000000001110223024625" AM.TrackVScrollPosition="0" AM.TrackScrollPosition="0" MZ.EditLine="0" MZ.Sequence.PreviewFrameSizeHeight="1080" MZ.Sequence.PreviewFrameSizeWidth="1920" MZ.Sequence.AudioTimeDisplayFormat="200" MZ.Sequence.PreviewRenderingClassID="1297106761" MZ.Sequence.PreviewRenderingPresetCodec="1297107278" MZ.Sequence.PreviewRenderingPresetPath="EncoderPresets/SequencePreview/795454d9-d3c2-429d-9474-923ab13b7018/I-Frame Only MPEG.epr" MZ.Sequence.PreviewUseMaxRenderQuality="false" MZ.Sequence.PreviewUseMaxBitDepth="false" MZ.Sequence.EditingModeGUID="795454d9-d3c2-429d-9474-923ab13b7018" MZ.Sequence.VideoTimeDisplayFormat="101" MZ.WorkOutPoint="15240960000000" MZ.WorkInPoint="0">
							<duration>7344</duration>
							<rate>
								<timebase>25</timebase>
								<ntsc>FALSE</ntsc>
							</rate>
							<name>AA016701.MXFCowi varemesse multi</name>
							<media>
								<video>
									<format>
										<samplecharacteristics>
											<rate>
												<timebase>25</timebase>
												<ntsc>FALSE</ntsc>
											</rate>
											<codec>
												<name>Apple ProRes 422</name>
												<appspecificdata>
													<appname>Final Cut Pro</appname>
													<appmanufacturer>Apple Inc.</appmanufacturer>
													<appversion>7.0</appversion>
													<data>
														<qtcodec>
															<codecname>Apple ProRes 422</codecname>
															<codectypename>Apple ProRes 422</codectypename>
															<codectypecode>apcn</codectypecode>
															<codecvendorcode>appl</codecvendorcode>
															<spatialquality>1024</spatialquality>
															<temporalquality>0</temporalquality>
															<keyframerate>0</keyframerate>
															<datarate>0</datarate>
														</qtcodec>
													</data>
												</appspecificdata>
											</codec>
											<width>1920</width>
											<height>1080</height>
											<anamorphic>FALSE</anamorphic>
											<pixelaspectratio>square</pixelaspectratio>
											<fielddominance>none</fielddominance>
											<colordepth>24</colordepth>
										</samplecharacteristics>
									</format>
									<track TL.SQTrackShy="0" TL.SQTrackExpandedHeight="50" TL.SQTrackExpanded="1" MZ.TrackTargeted="0">
										<clipitem id="clipitem-1083" frameBlend="FALSE">
											<masterclipid>masterclip-93</masterclipid>
											<name>AA016701.MXF</name>
											<enabled>TRUE</enabled>
											<duration>7344</duration>
											<rate>
												<timebase>25</timebase>
												<ntsc>FALSE</ntsc>
											</rate>
											<start>0</start>
											<end>7344</end>
											<in>0</in>
											<out>7344</out>
											<alphatype>none</alphatype>
											<file id="file-82"/>
											<link>
												<linkclipref>clipitem-1083</linkclipref>
												<mediatype>video</mediatype>
												<trackindex>1</trackindex>
												<clipindex>1</clipindex>
											</link>
											<link>
												<linkclipref>clipitem-1088</linkclipref>
												<mediatype>audio</mediatype>
												<trackindex>1</trackindex>
												<clipindex>1</clipindex>
												<groupindex>1</groupindex>
											</link>
											<link>
												<linkclipref>clipitem-1089</linkclipref>
												<mediatype>audio</mediatype>
												<trackindex>2</trackindex>
												<clipindex>1</clipindex>
												<groupindex>1</groupindex>
											</link>
											<logginginfo>
												<description></description>
												<scene></scene>
												<shottake>AA0167</shottake>
												<lognote></lognote>
											</logginginfo>
											<labels>
												<label2>Iris</label2>
											</labels>
										</clipitem>
										<enabled>TRUE</enabled>
										<locked>FALSE</locked>
									</track>
									<track TL.SQTrackShy="0" TL.SQTrackExpandedHeight="25" TL.SQTrackExpanded="0" MZ.TrackTargeted="0">
										<clipitem id="clipitem-1084" frameBlend="FALSE">
											<masterclipid>masterclip-94</masterclipid>
											<name>AA016801.MXF</name>
											<enabled>TRUE</enabled>
											<duration>1488</duration>
											<rate>
												<timebase>25</timebase>
												<ntsc>FALSE</ntsc>
											</rate>
											<start>7409</start>
											<end>8897</end>
											<in>0</in>
											<out>1488</out>
											<alphatype>none</alphatype>
											<file id="file-83"/>
											<link>
												<linkclipref>clipitem-1084</linkclipref>
												<mediatype>video</mediatype>
												<trackindex>2</trackindex>
												<clipindex>1</clipindex>
											</link>
											<link>
												<linkclipref>clipitem-1090</linkclipref>
												<mediatype>audio</mediatype>
												<trackindex>3</trackindex>
												<clipindex>1</clipindex>
												<groupindex>1</groupindex>
											</link>
											<link>
												<linkclipref>clipitem-1091</linkclipref>
												<mediatype>audio</mediatype>
												<trackindex>4</trackindex>
												<clipindex>1</clipindex>
												<groupindex>1</groupindex>
											</link>
											<logginginfo>
												<description></description>
												<scene></scene>
												<shottake>AA0168</shottake>
												<lognote></lognote>
											</logginginfo>
											<labels>
												<label2>Iris</label2>
											</labels>
										</clipitem>
										<enabled>TRUE</enabled>
										<locked>FALSE</locked>
									</track>
									<track TL.SQTrackShy="0" TL.SQTrackExpandedHeight="25" TL.SQTrackExpanded="0" MZ.TrackTargeted="0">
										<clipitem id="clipitem-1085" frameBlend="FALSE">
											<masterclipid>masterclip-95</masterclipid>
											<name>AA019601.MXF</name>
											<enabled>TRUE</enabled>
											<duration>360</duration>
											<rate>
												<timebase>25</timebase>
												<ntsc>FALSE</ntsc>
											</rate>
											<start>3576</start>
											<end>3936</end>
											<in>0</in>
											<out>360</out>
											<alphatype>none</alphatype>
											<file id="file-84"/>
											<link>
												<linkclipref>clipitem-1085</linkclipref>
												<mediatype>video</mediatype>
												<trackindex>3</trackindex>
												<clipindex>1</clipindex>
											</link>
											<link>
												<linkclipref>clipitem-1092</linkclipref>
												<mediatype>audio</mediatype>
												<trackindex>5</trackindex>
												<clipindex>1</clipindex>
												<groupindex>1</groupindex>
											</link>
											<link>
												<linkclipref>clipitem-1093</linkclipref>
												<mediatype>audio</mediatype>
												<trackindex>6</trackindex>
												<clipindex>1</clipindex>
												<groupindex>1</groupindex>
											</link>
											<logginginfo>
												<description></description>
												<scene></scene>
												<shottake>AA0196</shottake>
												<lognote></lognote>
											</logginginfo>
											<labels>
												<label2>Iris</label2>
											</labels>
										</clipitem>
										<enabled>TRUE</enabled>
										<locked>FALSE</locked>
									</track>
									<track TL.SQTrackShy="0" TL.SQTrackExpandedHeight="25" TL.SQTrackExpanded="0" MZ.TrackTargeted="0">
										<clipitem id="clipitem-1086" frameBlend="FALSE">
											<masterclipid>masterclip-96</masterclipid>
											<name>MVI_0098.MOV</name>
											<enabled>TRUE</enabled>
											<duration>8656</duration>
											<rate>
												<timebase>25</timebase>
												<ntsc>FALSE</ntsc>
											</rate>
											<start>6</start>
											<end>8662</end>
											<in>0</in>
											<out>8656</out>
											<alphatype>black</alphatype>
											<file id="file-85"/>
											<link>
												<linkclipref>clipitem-1086</linkclipref>
												<mediatype>video</mediatype>
												<trackindex>4</trackindex>
												<clipindex>1</clipindex>
											</link>
											<link>
												<linkclipref>clipitem-1094</linkclipref>
												<mediatype>audio</mediatype>
												<trackindex>7</trackindex>
												<clipindex>1</clipindex>
												<groupindex>1</groupindex>
											</link>
											<link>
												<linkclipref>clipitem-1095</linkclipref>
												<mediatype>audio</mediatype>
												<trackindex>8</trackindex>
												<clipindex>1</clipindex>
												<groupindex>1</groupindex>
											</link>
											<logginginfo>
												<description></description>
												<scene></scene>
												<shottake></shottake>
												<lognote></lognote>
											</logginginfo>
											<labels>
												<label2>Iris</label2>
											</labels>
										</clipitem>
										<enabled>TRUE</enabled>
										<locked>FALSE</locked>
									</track>
									<track TL.SQTrackShy="0" TL.SQTrackExpandedHeight="25" TL.SQTrackExpanded="0" MZ.TrackTargeted="0">
										<clipitem id="clipitem-1087" frameBlend="FALSE">
											<masterclipid>masterclip-273</masterclipid>
											<name>MVI_0110.MOV</name>
											<enabled>TRUE</enabled>
											<duration>1016</duration>
											<rate>
												<timebase>25</timebase>
												<ntsc>FALSE</ntsc>
											</rate>
											<start>2877</start>
											<end>3893</end>
											<in>0</in>
											<out>1016</out>
											<alphatype>black</alphatype>
											<pixelaspectratio>square</pixelaspectratio>
											<anamorphic>FALSE</anamorphic>
											<file id="file-246">
												<name>MVI_0110.MOV</name>
												<pathurl>file://localhost/Volumes/Brakka/AdobeLager/Katta/Katta-14xxxx-Smart_eller_overvaaket-Chris/02-Video/COWI%20Varemesse%205D/DCIM/100EOS5D/MVI_0110.MOV</pathurl>
												<rate>
													<timebase>25</timebase>
													<ntsc>FALSE</ntsc>
												</rate>
												<duration>1016</duration>
												<timecode>
													<rate>
														<timebase>25</timebase>
														<ntsc>FALSE</ntsc>
													</rate>
													<string>00:00:00:00</string>
													<frame>0</frame>
													<displayformat>NDF</displayformat>
													<reel>
														<name></name>
													</reel>
												</timecode>
												<media>
													<video>
														<duration>18000</duration>
														<samplecharacteristics>
															<rate>
																<timebase>25</timebase>
																<ntsc>FALSE</ntsc>
															</rate>
															<width>1920</width>
															<height>1080</height>
															<anamorphic>FALSE</anamorphic>
															<pixelaspectratio>square</pixelaspectratio>
															<fielddominance>none</fielddominance>
														</samplecharacteristics>
													</video>
													<audio>
														<samplecharacteristics>
															<depth>16</depth>
															<samplerate>48000</samplerate>
														</samplecharacteristics>
														<channelcount>2</channelcount>
													</audio>
												</media>
											</file>
											<link>
												<linkclipref>clipitem-1087</linkclipref>
												<mediatype>video</mediatype>
												<trackindex>5</trackindex>
												<clipindex>1</clipindex>
											</link>
											<link>
												<linkclipref>clipitem-1096</linkclipref>
												<mediatype>audio</mediatype>
												<trackindex>9</trackindex>
												<clipindex>1</clipindex>
												<groupindex>1</groupindex>
											</link>
											<link>
												<linkclipref>clipitem-1097</linkclipref>
												<mediatype>audio</mediatype>
												<trackindex>10</trackindex>
												<clipindex>1</clipindex>
												<groupindex>1</groupindex>
											</link>
											<logginginfo>
												<description></description>
												<scene></scene>
												<shottake></shottake>
												<lognote></lognote>
											</logginginfo>
											<labels>
												<label2>Iris</label2>
											</labels>
										</clipitem>
										<enabled>TRUE</enabled>
										<locked>FALSE</locked>
									</track>
								</video>
								<audio>
									<format>
										<samplecharacteristics>
											<depth>16</depth>
											<samplerate>48000</samplerate>
										</samplecharacteristics>
									</format>
									<outputs>
										<group>
											<index>1</index>
											<numchannels>1</numchannels>
											<downmix>0</downmix>
											<channel>
												<index>1</index>
											</channel>
										</group>
										<group>
											<index>2</index>
											<numchannels>1</numchannels>
											<downmix>0</downmix>
											<channel>
												<index>2</index>
											</channel>
										</group>
										<group>
											<index>3</index>
											<numchannels>1</numchannels>
											<downmix>0</downmix>
											<channel>
												<index>3</index>
											</channel>
										</group>
										<group>
											<index>4</index>
											<numchannels>1</numchannels>
											<downmix>0</downmix>
											<channel>
												<index>4</index>
											</channel>
										</group>
										<group>
											<index>5</index>
											<numchannels>1</numchannels>
											<downmix>0</downmix>
											<channel>
												<index>5</index>
											</channel>
										</group>
										<group>
											<index>6</index>
											<numchannels>1</numchannels>
											<downmix>0</downmix>
											<channel>
												<index>6</index>
											</channel>
										</group>
										<group>
											<index>7</index>
											<numchannels>1</numchannels>
											<downmix>0</downmix>
											<channel>
												<index>7</index>
											</channel>
										</group>
										<group>
											<index>8</index>
											<numchannels>1</numchannels>
											<downmix>0</downmix>
											<channel>
												<index>8</index>
											</channel>
										</group>
										<group>
											<index>9</index>
											<numchannels>1</numchannels>
											<downmix>0</downmix>
											<channel>
												<index>9</index>
											</channel>
										</group>
										<group>
											<index>10</index>
											<numchannels>1</numchannels>
											<downmix>0</downmix>
											<channel>
												<index>10</index>
											</channel>
										</group>
									</outputs>
									<track TL.SQTrackAudioKeyframeStyle="0" TL.SQTrackShy="0" TL.SQTrackExpandedHeight="25" TL.SQTrackExpanded="0" MZ.TrackTargeted="1" PannerCurrentValue="0.5" PannerIsInverted="true" PannerStartKeyframe="-91445760000000000,0.5,0,0,0,0,0,0" PannerName="Balance" currentExplodedTrackIndex="0" totalExplodedTrackCount="2" premiereTrackType="Stereo">
										<clipitem id="clipitem-1088" frameBlend="FALSE" PannerCurrentValue="0.5" PannerKeyframes="" PannerStartKeyframe="-91445760000000000,0.5,0,0,0,0,0,0" PannerIsInverted="true" PannerName="Balance">
											<masterclipid>masterclip-93</masterclipid>
											<name>AA016701.MXF</name>
											<enabled>TRUE</enabled>
											<duration>7344</duration>
											<rate>
												<timebase>25</timebase>
												<ntsc>FALSE</ntsc>
											</rate>
											<start>0</start>
											<end>7344</end>
											<in>0</in>
											<out>7344</out>
											<file id="file-82"/>
											<sourcetrack>
												<mediatype>audio</mediatype>
												<trackindex>1</trackindex>
											</sourcetrack>
												<filter>
													<effect>
														<name>Audio Pan</name>
														<effectid>audiopan</effectid>
														<effectcategory>audiopan</effectcategory>
														<effecttype>audiopan</effecttype>
														<mediatype>audio</mediatype>
														<parameter authoringApp="PremierePro">
															<parameterid>pan</parameterid>
															<name>Pan</name>
															<valuemin>-1</valuemin>
															<valuemax>1</valuemax>
															<value>0</value>
														</parameter>
													</effect>
												</filter>
											<link>
												<linkclipref>clipitem-1083</linkclipref>
												<mediatype>video</mediatype>
												<trackindex>1</trackindex>
												<clipindex>1</clipindex>
											</link>
											<link>
												<linkclipref>clipitem-1088</linkclipref>
												<mediatype>audio</mediatype>
												<trackindex>1</trackindex>
												<clipindex>1</clipindex>
												<groupindex>1</groupindex>
											</link>
											<link>
												<linkclipref>clipitem-1089</linkclipref>
												<mediatype>audio</mediatype>
												<trackindex>2</trackindex>
												<clipindex>1</clipindex>
												<groupindex>1</groupindex>
											</link>
											<logginginfo>
												<description></description>
												<scene></scene>
												<shottake>AA0167</shottake>
												<lognote></lognote>
											</logginginfo>
											<labels>
												<label2>Iris</label2>
											</labels>
										</clipitem>
										<enabled>TRUE</enabled>
										<locked>FALSE</locked>
										<outputchannelindex>1</outputchannelindex>
									</track>
									<track TL.SQTrackAudioKeyframeStyle="0" TL.SQTrackShy="0" TL.SQTrackExpandedHeight="25" TL.SQTrackExpanded="0" MZ.TrackTargeted="1" PannerCurrentValue="0.5" PannerIsInverted="true" PannerStartKeyframe="-91445760000000000,0.5,0,0,0,0,0,0" PannerName="Balance" currentExplodedTrackIndex="1" totalExplodedTrackCount="2" premiereTrackType="Stereo">
										<clipitem id="clipitem-1089" frameBlend="FALSE" PannerCurrentValue="0.5" PannerKeyframes="" PannerStartKeyframe="-91445760000000000,0.5,0,0,0,0,0,0" PannerIsInverted="true" PannerName="Balance">
											<masterclipid>masterclip-93</masterclipid>
											<name>AA016701.MXF</name>
											<enabled>TRUE</enabled>
											<duration>7344</duration>
											<rate>
												<timebase>25</timebase>
												<ntsc>FALSE</ntsc>
											</rate>
											<start>0</start>
											<end>7344</end>
											<in>0</in>
											<out>7344</out>
											<file id="file-82"/>
											<sourcetrack>
												<mediatype>audio</mediatype>
												<trackindex>2</trackindex>
											</sourcetrack>
												<filter>
													<effect>
														<name>Audio Pan</name>
														<effectid>audiopan</effectid>
														<effectcategory>audiopan</effectcategory>
														<effecttype>audiopan</effecttype>
														<mediatype>audio</mediatype>
														<parameter authoringApp="PremierePro">
															<parameterid>pan</parameterid>
															<name>Pan</name>
															<valuemin>-1</valuemin>
															<valuemax>1</valuemax>
															<value>0</value>
														</parameter>
													</effect>
												</filter>
											<link>
												<linkclipref>clipitem-1083</linkclipref>
												<mediatype>video</mediatype>
												<trackindex>1</trackindex>
												<clipindex>1</clipindex>
											</link>
											<link>
												<linkclipref>clipitem-1088</linkclipref>
												<mediatype>audio</mediatype>
												<trackindex>1</trackindex>
												<clipindex>1</clipindex>
												<groupindex>1</groupindex>
											</link>
											<link>
												<linkclipref>clipitem-1089</linkclipref>
												<mediatype>audio</mediatype>
												<trackindex>2</trackindex>
												<clipindex>1</clipindex>
												<groupindex>1</groupindex>
											</link>
											<logginginfo>
												<description></description>
												<scene></scene>
												<shottake>AA0167</shottake>
												<lognote></lognote>
											</logginginfo>
											<labels>
												<label2>Iris</label2>
											</labels>
										</clipitem>
										<enabled>TRUE</enabled>
										<locked>FALSE</locked>
										<outputchannelindex>2</outputchannelindex>
									</track>
									<track TL.SQTrackAudioKeyframeStyle="0" TL.SQTrackShy="0" TL.SQTrackExpandedHeight="25" TL.SQTrackExpanded="0" MZ.TrackTargeted="1" PannerCurrentValue="0.5" PannerIsInverted="true" PannerStartKeyframe="-91445760000000000,0.5,0,0,0,0,0,0" PannerName="Balance" currentExplodedTrackIndex="0" totalExplodedTrackCount="2" premiereTrackType="Stereo">
										<clipitem id="clipitem-1090" frameBlend="FALSE" PannerCurrentValue="0.5" PannerKeyframes="" PannerStartKeyframe="-91445760000000000,0.5,0,0,0,0,0,0" PannerIsInverted="true" PannerName="Balance">
											<masterclipid>masterclip-94</masterclipid>
											<name>AA016801.MXF</name>
											<enabled>TRUE</enabled>
											<duration>1488</duration>
											<rate>
												<timebase>25</timebase>
												<ntsc>FALSE</ntsc>
											</rate>
											<start>7409</start>
											<end>8897</end>
											<in>0</in>
											<out>1488</out>
											<file id="file-83"/>
											<sourcetrack>
												<mediatype>audio</mediatype>
												<trackindex>1</trackindex>
											</sourcetrack>
												<filter>
													<effect>
														<name>Audio Pan</name>
														<effectid>audiopan</effectid>
														<effectcategory>audiopan</effectcategory>
														<effecttype>audiopan</effecttype>
														<mediatype>audio</mediatype>
														<parameter authoringApp="PremierePro">
															<parameterid>pan</parameterid>
															<name>Pan</name>
															<valuemin>-1</valuemin>
															<valuemax>1</valuemax>
															<value>0</value>
														</parameter>
													</effect>
												</filter>
											<link>
												<linkclipref>clipitem-1084</linkclipref>
												<mediatype>video</mediatype>
												<trackindex>2</trackindex>
												<clipindex>1</clipindex>
											</link>
											<link>
												<linkclipref>clipitem-1090</linkclipref>
												<mediatype>audio</mediatype>
												<trackindex>3</trackindex>
												<clipindex>1</clipindex>
												<groupindex>1</groupindex>
											</link>
											<link>
												<linkclipref>clipitem-1091</linkclipref>
												<mediatype>audio</mediatype>
												<trackindex>4</trackindex>
												<clipindex>1</clipindex>
												<groupindex>1</groupindex>
											</link>
											<logginginfo>
												<description></description>
												<scene></scene>
												<shottake>AA0168</shottake>
												<lognote></lognote>
											</logginginfo>
											<labels>
												<label2>Iris</label2>
											</labels>
										</clipitem>
										<enabled>TRUE</enabled>
										<locked>FALSE</locked>
										<outputchannelindex>3</outputchannelindex>
									</track>
									<track TL.SQTrackAudioKeyframeStyle="0" TL.SQTrackShy="0" TL.SQTrackExpandedHeight="25" TL.SQTrackExpanded="0" MZ.TrackTargeted="1" PannerCurrentValue="0.5" PannerIsInverted="true" PannerStartKeyframe="-91445760000000000,0.5,0,0,0,0,0,0" PannerName="Balance" currentExplodedTrackIndex="1" totalExplodedTrackCount="2" premiereTrackType="Stereo">
										<clipitem id="clipitem-1091" frameBlend="FALSE" PannerCurrentValue="0.5" PannerKeyframes="" PannerStartKeyframe="-91445760000000000,0.5,0,0,0,0,0,0" PannerIsInverted="true" PannerName="Balance">
											<masterclipid>masterclip-94</masterclipid>
											<name>AA016801.MXF</name>
											<enabled>TRUE</enabled>
											<duration>1488</duration>
											<rate>
												<timebase>25</timebase>
												<ntsc>FALSE</ntsc>
											</rate>
											<start>7409</start>
											<end>8897</end>
											<in>0</in>
											<out>1488</out>
											<file id="file-83"/>
											<sourcetrack>
												<mediatype>audio</mediatype>
												<trackindex>2</trackindex>
											</sourcetrack>
												<filter>
													<effect>
														<name>Audio Pan</name>
														<effectid>audiopan</effectid>
														<effectcategory>audiopan</effectcategory>
														<effecttype>audiopan</effecttype>
														<mediatype>audio</mediatype>
														<parameter authoringApp="PremierePro">
															<parameterid>pan</parameterid>
															<name>Pan</name>
															<valuemin>-1</valuemin>
															<valuemax>1</valuemax>
															<value>0</value>
														</parameter>
													</effect>
												</filter>
											<link>
												<linkclipref>clipitem-1084</linkclipref>
												<mediatype>video</mediatype>
												<trackindex>2</trackindex>
												<clipindex>1</clipindex>
											</link>
											<link>
												<linkclipref>clipitem-1090</linkclipref>
												<mediatype>audio</mediatype>
												<trackindex>3</trackindex>
												<clipindex>1</clipindex>
												<groupindex>1</groupindex>
											</link>
											<link>
												<linkclipref>clipitem-1091</linkclipref>
												<mediatype>audio</mediatype>
												<trackindex>4</trackindex>
												<clipindex>1</clipindex>
												<groupindex>1</groupindex>
											</link>
											<logginginfo>
												<description></description>
												<scene></scene>
												<shottake>AA0168</shottake>
												<lognote></lognote>
											</logginginfo>
											<labels>
												<label2>Iris</label2>
											</labels>
										</clipitem>
										<enabled>TRUE</enabled>
										<locked>FALSE</locked>
										<outputchannelindex>4</outputchannelindex>
									</track>
									<track TL.SQTrackAudioKeyframeStyle="0" TL.SQTrackShy="0" TL.SQTrackExpandedHeight="25" TL.SQTrackExpanded="0" MZ.TrackTargeted="1" PannerCurrentValue="0.5" PannerIsInverted="true" PannerStartKeyframe="-91445760000000000,0.5,0,0,0,0,0,0" PannerName="Balance" currentExplodedTrackIndex="0" totalExplodedTrackCount="2" premiereTrackType="Stereo">
										<clipitem id="clipitem-1092" frameBlend="FALSE" PannerCurrentValue="0.5" PannerKeyframes="" PannerStartKeyframe="-91445760000000000,0.5,0,0,0,0,0,0" PannerIsInverted="true" PannerName="Balance">
											<masterclipid>masterclip-95</masterclipid>
											<name>AA019601.MXF</name>
											<enabled>TRUE</enabled>
											<duration>360</duration>
											<rate>
												<timebase>25</timebase>
												<ntsc>FALSE</ntsc>
											</rate>
											<start>3576</start>
											<end>3936</end>
											<in>0</in>
											<out>360</out>
											<file id="file-84"/>
											<sourcetrack>
												<mediatype>audio</mediatype>
												<trackindex>1</trackindex>
											</sourcetrack>
												<filter>
													<effect>
														<name>Audio Pan</name>
														<effectid>audiopan</effectid>
														<effectcategory>audiopan</effectcategory>
														<effecttype>audiopan</effecttype>
														<mediatype>audio</mediatype>
														<parameter authoringApp="PremierePro">
															<parameterid>pan</parameterid>
															<name>Pan</name>
															<valuemin>-1</valuemin>
															<valuemax>1</valuemax>
															<value>0</value>
														</parameter>
													</effect>
												</filter>
											<link>
												<linkclipref>clipitem-1085</linkclipref>
												<mediatype>video</mediatype>
												<trackindex>3</trackindex>
												<clipindex>1</clipindex>
											</link>
											<link>
												<linkclipref>clipitem-1092</linkclipref>
												<mediatype>audio</mediatype>
												<trackindex>5</trackindex>
												<clipindex>1</clipindex>
												<groupindex>1</groupindex>
											</link>
											<link>
												<linkclipref>clipitem-1093</linkclipref>
												<mediatype>audio</mediatype>
												<trackindex>6</trackindex>
												<clipindex>1</clipindex>
												<groupindex>1</groupindex>
											</link>
											<logginginfo>
												<description></description>
												<scene></scene>
												<shottake>AA0196</shottake>
												<lognote></lognote>
											</logginginfo>
											<labels>
												<label2>Iris</label2>
											</labels>
										</clipitem>
										<enabled>TRUE</enabled>
										<locked>FALSE</locked>
										<outputchannelindex>5</outputchannelindex>
									</track>
									<track TL.SQTrackAudioKeyframeStyle="0" TL.SQTrackShy="0" TL.SQTrackExpandedHeight="25" TL.SQTrackExpanded="0" MZ.TrackTargeted="1" PannerCurrentValue="0.5" PannerIsInverted="true" PannerStartKeyframe="-91445760000000000,0.5,0,0,0,0,0,0" PannerName="Balance" currentExplodedTrackIndex="1" totalExplodedTrackCount="2" premiereTrackType="Stereo">
										<clipitem id="clipitem-1093" frameBlend="FALSE" PannerCurrentValue="0.5" PannerKeyframes="" PannerStartKeyframe="-91445760000000000,0.5,0,0,0,0,0,0" PannerIsInverted="true" PannerName="Balance">
											<masterclipid>masterclip-95</masterclipid>
											<name>AA019601.MXF</name>
											<enabled>TRUE</enabled>
											<duration>360</duration>
											<rate>
												<timebase>25</timebase>
												<ntsc>FALSE</ntsc>
											</rate>
											<start>3576</start>
											<end>3936</end>
											<in>0</in>
											<out>360</out>
											<file id="file-84"/>
											<sourcetrack>
												<mediatype>audio</mediatype>
												<trackindex>2</trackindex>
											</sourcetrack>
												<filter>
													<effect>
														<name>Audio Pan</name>
														<effectid>audiopan</effectid>
														<effectcategory>audiopan</effectcategory>
														<effecttype>audiopan</effecttype>
														<mediatype>audio</mediatype>
														<parameter authoringApp="PremierePro">
															<parameterid>pan</parameterid>
															<name>Pan</name>
															<valuemin>-1</valuemin>
															<valuemax>1</valuemax>
															<value>0</value>
														</parameter>
													</effect>
												</filter>
											<link>
												<linkclipref>clipitem-1085</linkclipref>
												<mediatype>video</mediatype>
												<trackindex>3</trackindex>
												<clipindex>1</clipindex>
											</link>
											<link>
												<linkclipref>clipitem-1092</linkclipref>
												<mediatype>audio</mediatype>
												<trackindex>5</trackindex>
												<clipindex>1</clipindex>
												<groupindex>1</groupindex>
											</link>
											<link>
												<linkclipref>clipitem-1093</linkclipref>
												<mediatype>audio</mediatype>
												<trackindex>6</trackindex>
												<clipindex>1</clipindex>
												<groupindex>1</groupindex>
											</link>
											<logginginfo>
												<description></description>
												<scene></scene>
												<shottake>AA0196</shottake>
												<lognote></lognote>
											</logginginfo>
											<labels>
												<label2>Iris</label2>
											</labels>
										</clipitem>
										<enabled>TRUE</enabled>
										<locked>FALSE</locked>
										<outputchannelindex>6</outputchannelindex>
									</track>
									<track TL.SQTrackAudioKeyframeStyle="0" TL.SQTrackShy="0" TL.SQTrackExpandedHeight="25" TL.SQTrackExpanded="0" MZ.TrackTargeted="0" PannerCurrentValue="0.5" PannerIsInverted="true" PannerStartKeyframe="-91445760000000000,0.5,0,0,0,0,0,0" PannerName="Balance" currentExplodedTrackIndex="0" totalExplodedTrackCount="2" premiereTrackType="Stereo">
										<clipitem id="clipitem-1094" frameBlend="FALSE" PannerCurrentValue="0.5" PannerKeyframes="" PannerStartKeyframe="-91445760000000000,0.5,0,0,0,0,0,0" PannerIsInverted="true" PannerName="Balance">
											<masterclipid>masterclip-96</masterclipid>
											<name>MVI_0098.MOV</name>
											<enabled>TRUE</enabled>
											<duration>8656</duration>
											<rate>
												<timebase>25</timebase>
												<ntsc>FALSE</ntsc>
											</rate>
											<start>6</start>
											<end>8662</end>
											<in>0</in>
											<out>8656</out>
											<file id="file-85"/>
											<sourcetrack>
												<mediatype>audio</mediatype>
												<trackindex>1</trackindex>
											</sourcetrack>
												<filter>
													<effect>
														<name>Audio Pan</name>
														<effectid>audiopan</effectid>
														<effectcategory>audiopan</effectcategory>
														<effecttype>audiopan</effecttype>
														<mediatype>audio</mediatype>
														<parameter authoringApp="PremierePro">
															<parameterid>pan</parameterid>
															<name>Pan</name>
															<valuemin>-1</valuemin>
															<valuemax>1</valuemax>
															<value>0</value>
														</parameter>
													</effect>
												</filter>
											<link>
												<linkclipref>clipitem-1086</linkclipref>
												<mediatype>video</mediatype>
												<trackindex>4</trackindex>
												<clipindex>1</clipindex>
											</link>
											<link>
												<linkclipref>clipitem-1094</linkclipref>
												<mediatype>audio</mediatype>
												<trackindex>7</trackindex>
												<clipindex>1</clipindex>
												<groupindex>1</groupindex>
											</link>
											<link>
												<linkclipref>clipitem-1095</linkclipref>
												<mediatype>audio</mediatype>
												<trackindex>8</trackindex>
												<clipindex>1</clipindex>
												<groupindex>1</groupindex>
											</link>
											<logginginfo>
												<description></description>
												<scene></scene>
												<shottake></shottake>
												<lognote></lognote>
											</logginginfo>
											<labels>
												<label2>Iris</label2>
											</labels>
										</clipitem>
										<enabled>TRUE</enabled>
										<locked>FALSE</locked>
										<outputchannelindex>7</outputchannelindex>
									</track>
									<track TL.SQTrackAudioKeyframeStyle="0" TL.SQTrackShy="0" TL.SQTrackExpandedHeight="25" TL.SQTrackExpanded="0" MZ.TrackTargeted="0" PannerCurrentValue="0.5" PannerIsInverted="true" PannerStartKeyframe="-91445760000000000,0.5,0,0,0,0,0,0" PannerName="Balance" currentExplodedTrackIndex="1" totalExplodedTrackCount="2" premiereTrackType="Stereo">
										<clipitem id="clipitem-1095" frameBlend="FALSE" PannerCurrentValue="0.5" PannerKeyframes="" PannerStartKeyframe="-91445760000000000,0.5,0,0,0,0,0,0" PannerIsInverted="true" PannerName="Balance">
											<masterclipid>masterclip-96</masterclipid>
											<name>MVI_0098.MOV</name>
											<enabled>TRUE</enabled>
											<duration>8656</duration>
											<rate>
												<timebase>25</timebase>
												<ntsc>FALSE</ntsc>
											</rate>
											<start>6</start>
											<end>8662</end>
											<in>0</in>
											<out>8656</out>
											<file id="file-85"/>
											<sourcetrack>
												<mediatype>audio</mediatype>
												<trackindex>2</trackindex>
											</sourcetrack>
												<filter>
													<effect>
														<name>Audio Pan</name>
														<effectid>audiopan</effectid>
														<effectcategory>audiopan</effectcategory>
														<effecttype>audiopan</effecttype>
														<mediatype>audio</mediatype>
														<parameter authoringApp="PremierePro">
															<parameterid>pan</parameterid>
															<name>Pan</name>
															<valuemin>-1</valuemin>
															<valuemax>1</valuemax>
															<value>0</value>
														</parameter>
													</effect>
												</filter>
											<link>
												<linkclipref>clipitem-1086</linkclipref>
												<mediatype>video</mediatype>
												<trackindex>4</trackindex>
												<clipindex>1</clipindex>
											</link>
											<link>
												<linkclipref>clipitem-1094</linkclipref>
												<mediatype>audio</mediatype>
												<trackindex>7</trackindex>
												<clipindex>1</clipindex>
												<groupindex>1</groupindex>
											</link>
											<link>
												<linkclipref>clipitem-1095</linkclipref>
												<mediatype>audio</mediatype>
												<trackindex>8</trackindex>
												<clipindex>1</clipindex>
												<groupindex>1</groupindex>
											</link>
											<logginginfo>
												<description></description>
												<scene></scene>
												<shottake></shottake>
												<lognote></lognote>
											</logginginfo>
											<labels>
												<label2>Iris</label2>
											</labels>
										</clipitem>
										<enabled>TRUE</enabled>
										<locked>FALSE</locked>
										<outputchannelindex>8</outputchannelindex>
									</track>
									<track TL.SQTrackAudioKeyframeStyle="0" TL.SQTrackShy="0" TL.SQTrackExpandedHeight="25" TL.SQTrackExpanded="0" MZ.TrackTargeted="0" PannerCurrentValue="0.5" PannerIsInverted="true" PannerStartKeyframe="-91445760000000000,0.5,0,0,0,0,0,0" PannerName="Balance" currentExplodedTrackIndex="0" totalExplodedTrackCount="2" premiereTrackType="Stereo">
										<clipitem id="clipitem-1096" frameBlend="FALSE" PannerCurrentValue="0.5" PannerKeyframes="" PannerStartKeyframe="-91445760000000000,0.5,0,0,0,0,0,0" PannerIsInverted="true" PannerName="Balance">
											<masterclipid>masterclip-273</masterclipid>
											<name>MVI_0110.MOV</name>
											<enabled>TRUE</enabled>
											<duration>1016</duration>
											<rate>
												<timebase>25</timebase>
												<ntsc>FALSE</ntsc>
											</rate>
											<start>2877</start>
											<end>3893</end>
											<in>0</in>
											<out>1016</out>
											<file id="file-246"/>
											<sourcetrack>
												<mediatype>audio</mediatype>
												<trackindex>1</trackindex>
											</sourcetrack>
												<filter>
													<effect>
														<name>Audio Pan</name>
														<effectid>audiopan</effectid>
														<effectcategory>audiopan</effectcategory>
														<effecttype>audiopan</effecttype>
														<mediatype>audio</mediatype>
														<parameter authoringApp="PremierePro">
															<parameterid>pan</parameterid>
															<name>Pan</name>
															<valuemin>-1</valuemin>
															<valuemax>1</valuemax>
															<value>0</value>
														</parameter>
													</effect>
												</filter>
											<link>
												<linkclipref>clipitem-1087</linkclipref>
												<mediatype>video</mediatype>
												<trackindex>5</trackindex>
												<clipindex>1</clipindex>
											</link>
											<link>
												<linkclipref>clipitem-1096</linkclipref>
												<mediatype>audio</mediatype>
												<trackindex>9</trackindex>
												<clipindex>1</clipindex>
												<groupindex>1</groupindex>
											</link>
											<link>
												<linkclipref>clipitem-1097</linkclipref>
												<mediatype>audio</mediatype>
												<trackindex>10</trackindex>
												<clipindex>1</clipindex>
												<groupindex>1</groupindex>
											</link>
											<logginginfo>
												<description></description>
												<scene></scene>
												<shottake></shottake>
												<lognote></lognote>
											</logginginfo>
											<labels>
												<label2>Iris</label2>
											</labels>
										</clipitem>
										<enabled>TRUE</enabled>
										<locked>FALSE</locked>
										<outputchannelindex>9</outputchannelindex>
									</track>
									<track TL.SQTrackAudioKeyframeStyle="0" TL.SQTrackShy="0" TL.SQTrackExpandedHeight="25" TL.SQTrackExpanded="0" MZ.TrackTargeted="0" PannerCurrentValue="0.5" PannerIsInverted="true" PannerStartKeyframe="-91445760000000000,0.5,0,0,0,0,0,0" PannerName="Balance" currentExplodedTrackIndex="1" totalExplodedTrackCount="2" premiereTrackType="Stereo">
										<clipitem id="clipitem-1097" frameBlend="FALSE" PannerCurrentValue="0.5" PannerKeyframes="" PannerStartKeyframe="-91445760000000000,0.5,0,0,0,0,0,0" PannerIsInverted="true" PannerName="Balance">
											<masterclipid>masterclip-273</masterclipid>
											<name>MVI_0110.MOV</name>
											<enabled>TRUE</enabled>
											<duration>1016</duration>
											<rate>
												<timebase>25</timebase>
												<ntsc>FALSE</ntsc>
											</rate>
											<start>2877</start>
											<end>3893</end>
											<in>0</in>
											<out>1016</out>
											<file id="file-246"/>
											<sourcetrack>
												<mediatype>audio</mediatype>
												<trackindex>2</trackindex>
											</sourcetrack>
												<filter>
													<effect>
														<name>Audio Pan</name>
														<effectid>audiopan</effectid>
														<effectcategory>audiopan</effectcategory>
														<effecttype>audiopan</effecttype>
														<mediatype>audio</mediatype>
														<parameter authoringApp="PremierePro">
															<parameterid>pan</parameterid>
															<name>Pan</name>
															<valuemin>-1</valuemin>
															<valuemax>1</valuemax>
															<value>0</value>
														</parameter>
													</effect>
												</filter>
											<link>
												<linkclipref>clipitem-1087</linkclipref>
												<mediatype>video</mediatype>
												<trackindex>5</trackindex>
												<clipindex>1</clipindex>
											</link>
											<link>
												<linkclipref>clipitem-1096</linkclipref>
												<mediatype>audio</mediatype>
												<trackindex>9</trackindex>
												<clipindex>1</clipindex>
												<groupindex>1</groupindex>
											</link>
											<link>
												<linkclipref>clipitem-1097</linkclipref>
												<mediatype>audio</mediatype>
												<trackindex>10</trackindex>
												<clipindex>1</clipindex>
												<groupindex>1</groupindex>
											</link>
											<logginginfo>
												<description></description>
												<scene></scene>
												<shottake></shottake>
												<lognote></lognote>
											</logginginfo>
											<labels>
												<label2>Iris</label2>
											</labels>
										</clipitem>
										<enabled>TRUE</enabled>
										<locked>FALSE</locked>
										<outputchannelindex>10</outputchannelindex>
									</track>
								</audio>
							</media>
							<timecode>
								<rate>
									<timebase>25</timebase>
									<ntsc>FALSE</ntsc>
								</rate>
								<string>00:00:00:00</string>
								<frame>0</frame>
								<displayformat>NDF</displayformat>
							</timecode>
						</sequence>
							<filter>
								<effect>
									<name>Audio Levels</name>
									<effectid>audiolevels</effectid>
									<effectcategory>audiolevels</effectcategory>
									<effecttype>audiolevels</effecttype>
									<mediatype>audio</mediatype>
									<parameter authoringApp="PremierePro">
										<parameterid>level</parameterid>
										<name>Level</name>
										<valuemin>0</valuemin>
										<valuemax>3.98109</valuemax>
										<value>1.77828</value>
									</parameter>
								</effect>
							</filter>
						<link>
							<linkclipref>clipitem-559</linkclipref>
							<mediatype>video</mediatype>
							<trackindex>1</trackindex>
							<clipindex>113</clipindex>
						</link>
						<link>
							<linkclipref>clipitem-1082</linkclipref>
							<mediatype>audio</mediatype>
							<trackindex>1</trackindex>
							<clipindex>62</clipindex>
						</link>
						<link>
							<linkclipref>clipitem-1405</linkclipref>
							<mediatype>audio</mediatype>
							<trackindex>3</trackindex>
							<clipindex>50</clipindex>
						</link>
						<labels>
							<label2>Forest</label2>
						</labels>
					</clipitem>
					<clipitem id="clipitem-1098" frameBlend="FALSE">
						<masterclipid>masterclip-92</masterclipid>
						<name>AA016701.MXFCowi varemesse multi</name>
						<enabled>TRUE</enabled>
						<duration>8897</duration>
						<rate>
							<timebase>25</timebase>
							<ntsc>FALSE</ntsc>
						</rate>
						<start>13670</start>
						<end>13751</end>
						<in>2462</in>
						<out>2543</out>
						<sequence id="sequence-115"/>
						<link>
							<linkclipref>clipitem-572</linkclipref>
							<mediatype>video</mediatype>
							<trackindex>1</trackindex>
							<clipindex>114</clipindex>
						</link>
						<link>
							<linkclipref>clipitem-1098</linkclipref>
							<mediatype>audio</mediatype>
							<trackindex>1</trackindex>
							<clipindex>63</clipindex>
						</link>
						<link>
							<linkclipref>clipitem-1406</linkclipref>
							<mediatype>audio</mediatype>
							<trackindex>3</trackindex>
							<clipindex>51</clipindex>
						</link>
						<labels>
							<label2>Forest</label2>
						</labels>
					</clipitem>
					<clipitem id="clipitem-1099" frameBlend="FALSE">
						<masterclipid>masterclip-92</masterclipid>
						<name>AA016701.MXFCowi varemesse multi</name>
						<enabled>TRUE</enabled>
						<duration>8897</duration>
						<rate>
							<timebase>25</timebase>
							<ntsc>FALSE</ntsc>
						</rate>
						<start>13751</start>
						<end>14213</end>
						<in>3242</in>
						<out>3704</out>
						<sequence id="sequence-115"/>
							<filter>
								<effect>
									<name>Audio Levels</name>
									<effectid>audiolevels</effectid>
									<effectcategory>audiolevels</effectcategory>
									<effecttype>audiolevels</effecttype>
									<mediatype>audio</mediatype>
									<parameter authoringApp="PremierePro">
										<parameterid>level</parameterid>
										<name>Level</name>
										<valuemin>0</valuemin>
										<valuemax>3.98109</valuemax>
										<value>1.40919</value>
									</parameter>
								</effect>
							</filter>
						<link>
							<linkclipref>clipitem-573</linkclipref>
							<mediatype>video</mediatype>
							<trackindex>1</trackindex>
							<clipindex>115</clipindex>
						</link>
						<link>
							<linkclipref>clipitem-1099</linkclipref>
							<mediatype>audio</mediatype>
							<trackindex>1</trackindex>
							<clipindex>64</clipindex>
						</link>
						<link>
							<linkclipref>clipitem-1407</linkclipref>
							<mediatype>audio</mediatype>
							<trackindex>3</trackindex>
							<clipindex>52</clipindex>
						</link>
						<labels>
							<label2>Forest</label2>
						</labels>
					</clipitem>
					<clipitem id="clipitem-1100" frameBlend="FALSE">
						<masterclipid>masterclip-92</masterclipid>
						<name>AA016701.MXFCowi varemesse multi</name>
						<enabled>TRUE</enabled>
						<duration>8897</duration>
						<rate>
							<timebase>25</timebase>
							<ntsc>FALSE</ntsc>
						</rate>
						<start>14213</start>
						<end>14280</end>
						<in>4028</in>
						<out>4095</out>
						<sequence id="sequence-115"/>
							<filter>
								<effect>
									<name>Audio Levels</name>
									<effectid>audiolevels</effectid>
									<effectcategory>audiolevels</effectcategory>
									<effecttype>audiolevels</effecttype>
									<mediatype>audio</mediatype>
									<parameter authoringApp="PremierePro">
										<parameterid>level</parameterid>
										<name>Level</name>
										<valuemin>0</valuemin>
										<valuemax>3.98109</valuemax>
										<value>1.40919</value>
									</parameter>
								</effect>
							</filter>
						<link>
							<linkclipref>clipitem-1100</linkclipref>
							<mediatype>audio</mediatype>
							<trackindex>1</trackindex>
							<clipindex>65</clipindex>
						</link>
						<link>
							<linkclipref>clipitem-1408</linkclipref>
							<mediatype>audio</mediatype>
							<trackindex>3</trackindex>
							<clipindex>53</clipindex>
						</link>
						<labels>
							<label2>Forest</label2>
						</labels>
					</clipitem>
					<clipitem id="clipitem-1101" frameBlend="FALSE">
						<masterclipid>masterclip-92</masterclipid>
						<name>AA016701.MXFCowi varemesse multi</name>
						<enabled>TRUE</enabled>
						<duration>8897</duration>
						<rate>
							<timebase>25</timebase>
							<ntsc>FALSE</ntsc>
						</rate>
						<start>14280</start>
						<end>14370</end>
						<in>4272</in>
						<out>4362</out>
						<sequence id="sequence-115"/>
							<filter>
								<effect>
									<name>Audio Levels</name>
									<effectid>audiolevels</effectid>
									<effectcategory>audiolevels</effectcategory>
									<effecttype>audiolevels</effecttype>
									<mediatype>audio</mediatype>
									<parameter authoringApp="PremierePro">
										<parameterid>level</parameterid>
										<name>Level</name>
										<valuemin>0</valuemin>
										<valuemax>3.98109</valuemax>
										<value>1.40919</value>
									</parameter>
								</effect>
							</filter>
						<link>
							<linkclipref>clipitem-1101</linkclipref>
							<mediatype>audio</mediatype>
							<trackindex>1</trackindex>
							<clipindex>66</clipindex>
						</link>
						<link>
							<linkclipref>clipitem-1409</linkclipref>
							<mediatype>audio</mediatype>
							<trackindex>3</trackindex>
							<clipindex>54</clipindex>
						</link>
						<labels>
							<label2>Forest</label2>
						</labels>
					</clipitem>
					<clipitem id="clipitem-1102" frameBlend="FALSE">
						<masterclipid>masterclip-92</masterclipid>
						<name>AA016701.MXFCowi varemesse multi</name>
						<enabled>TRUE</enabled>
						<duration>8897</duration>
						<rate>
							<timebase>25</timebase>
							<ntsc>FALSE</ntsc>
						</rate>
						<start>14370</start>
						<end>14433</end>
						<in>4451</in>
						<out>4514</out>
						<sequence id="sequence-115"/>
							<filter>
								<effect>
									<name>Audio Levels</name>
									<effectid>audiolevels</effectid>
									<effectcategory>audiolevels</effectcategory>
									<effecttype>audiolevels</effecttype>
									<mediatype>audio</mediatype>
									<parameter authoringApp="PremierePro">
										<parameterid>level</parameterid>
										<name>Level</name>
										<valuemin>0</valuemin>
										<valuemax>3.98109</valuemax>
										<value>1.40919</value>
									</parameter>
								</effect>
							</filter>
						<link>
							<linkclipref>clipitem-1102</linkclipref>
							<mediatype>audio</mediatype>
							<trackindex>1</trackindex>
							<clipindex>67</clipindex>
						</link>
						<link>
							<linkclipref>clipitem-1410</linkclipref>
							<mediatype>audio</mediatype>
							<trackindex>3</trackindex>
							<clipindex>55</clipindex>
						</link>
						<labels>
							<label2>Forest</label2>
						</labels>
					</clipitem>
					<clipitem id="clipitem-1103" frameBlend="FALSE">
						<masterclipid>masterclip-102</masterclipid>
						<name>AA018601.MXFCowi varemesse multi</name>
						<enabled>TRUE</enabled>
						<duration>8100</duration>
						<rate>
							<timebase>25</timebase>
							<ntsc>FALSE</ntsc>
						</rate>
						<start>14930</start>
						<end>15149</end>
						<in>3021</in>
						<out>3240</out>
						<sequence id="sequence-116" TL.SQAudioVisibleBase="0" TL.SQVideoVisibleBase="0" TL.SQVisibleBaseTime="0" TL.SQAVDividerPosition="0.5" TL.SQHideShyTracks="0" TL.SQHeaderWidth="188" Monitor.ProgramZoomOut="82301184000000" Monitor.ProgramZoomIn="0" TL.SQTimePerPixel="0.20000000000000001110223024625" AM.TrackVScrollPosition="0" AM.TrackScrollPosition="0" MZ.EditLine="0" MZ.Sequence.PreviewFrameSizeHeight="1080" MZ.Sequence.PreviewFrameSizeWidth="1920" MZ.Sequence.AudioTimeDisplayFormat="200" MZ.Sequence.PreviewRenderingClassID="1297106761" MZ.Sequence.PreviewRenderingPresetCodec="1297107278" MZ.Sequence.PreviewRenderingPresetPath="EncoderPresets/SequencePreview/795454d9-d3c2-429d-9474-923ab13b7018/I-Frame Only MPEG.epr" MZ.Sequence.PreviewUseMaxRenderQuality="false" MZ.Sequence.PreviewUseMaxBitDepth="false" MZ.Sequence.EditingModeGUID="795454d9-d3c2-429d-9474-923ab13b7018" MZ.Sequence.VideoTimeDisplayFormat="101" MZ.WorkOutPoint="15240960000000" MZ.WorkInPoint="0">
							<duration>8100</duration>
							<rate>
								<timebase>25</timebase>
								<ntsc>FALSE</ntsc>
							</rate>
							<name>AA018601.MXFCowi varemesse multi</name>
							<media>
								<video>
									<format>
										<samplecharacteristics>
											<rate>
												<timebase>25</timebase>
												<ntsc>FALSE</ntsc>
											</rate>
											<codec>
												<name>Apple ProRes 422</name>
												<appspecificdata>
													<appname>Final Cut Pro</appname>
													<appmanufacturer>Apple Inc.</appmanufacturer>
													<appversion>7.0</appversion>
													<data>
														<qtcodec>
															<codecname>Apple ProRes 422</codecname>
															<codectypename>Apple ProRes 422</codectypename>
															<codectypecode>apcn</codectypecode>
															<codecvendorcode>appl</codecvendorcode>
															<spatialquality>1024</spatialquality>
															<temporalquality>0</temporalquality>
															<keyframerate>0</keyframerate>
															<datarate>0</datarate>
														</qtcodec>
													</data>
												</appspecificdata>
											</codec>
											<width>1920</width>
											<height>1080</height>
											<anamorphic>FALSE</anamorphic>
											<pixelaspectratio>square</pixelaspectratio>
											<fielddominance>none</fielddominance>
											<colordepth>24</colordepth>
										</samplecharacteristics>
									</format>
									<track TL.SQTrackShy="0" TL.SQTrackExpandedHeight="25" TL.SQTrackExpanded="0" MZ.TrackTargeted="0">
										<clipitem id="clipitem-1104" frameBlend="FALSE">
											<masterclipid>masterclip-103</masterclipid>
											<name>AA018601.MXF</name>
											<enabled>TRUE</enabled>
											<duration>8100</duration>
											<rate>
												<timebase>25</timebase>
												<ntsc>FALSE</ntsc>
											</rate>
											<start>0</start>
											<end>8100</end>
											<in>0</in>
											<out>8100</out>
											<alphatype>none</alphatype>
											<file id="file-91"/>
											<link>
												<linkclipref>clipitem-1104</linkclipref>
												<mediatype>video</mediatype>
												<trackindex>1</trackindex>
												<clipindex>1</clipindex>
											</link>
											<link>
												<linkclipref>clipitem-1106</linkclipref>
												<mediatype>audio</mediatype>
												<trackindex>1</trackindex>
												<clipindex>1</clipindex>
												<groupindex>1</groupindex>
											</link>
											<link>
												<linkclipref>clipitem-1107</linkclipref>
												<mediatype>audio</mediatype>
												<trackindex>2</trackindex>
												<clipindex>1</clipindex>
												<groupindex>1</groupindex>
											</link>
											<logginginfo>
												<description></description>
												<scene></scene>
												<shottake>AA0186</shottake>
												<lognote></lognote>
											</logginginfo>
											<labels>
												<label2>Iris</label2>
											</labels>
										</clipitem>
										<enabled>TRUE</enabled>
										<locked>FALSE</locked>
									</track>
									<track TL.SQTrackShy="0" TL.SQTrackExpandedHeight="25" TL.SQTrackExpanded="0" MZ.TrackTargeted="0">
										<clipitem id="clipitem-1105" frameBlend="FALSE">
											<masterclipid>masterclip-104</masterclipid>
											<name>MVI_0107.MOV</name>
											<enabled>TRUE</enabled>
											<duration>253</duration>
											<rate>
												<timebase>25</timebase>
												<ntsc>FALSE</ntsc>
											</rate>
											<start>7809</start>
											<end>8062</end>
											<in>0</in>
											<out>253</out>
											<alphatype>black</alphatype>
											<file id="file-92"/>
											<link>
												<linkclipref>clipitem-1105</linkclipref>
												<mediatype>video</mediatype>
												<trackindex>2</trackindex>
												<clipindex>1</clipindex>
											</link>
											<link>
												<linkclipref>clipitem-1108</linkclipref>
												<mediatype>audio</mediatype>
												<trackindex>3</trackindex>
												<clipindex>1</clipindex>
												<groupindex>1</groupindex>
											</link>
											<link>
												<linkclipref>clipitem-1109</linkclipref>
												<mediatype>audio</mediatype>
												<trackindex>4</trackindex>
												<clipindex>1</clipindex>
												<groupindex>1</groupindex>
											</link>
											<logginginfo>
												<description></description>
												<scene></scene>
												<shottake></shottake>
												<lognote></lognote>
											</logginginfo>
											<labels>
												<label2>Iris</label2>
											</labels>
										</clipitem>
										<enabled>TRUE</enabled>
										<locked>FALSE</locked>
									</track>
								</video>
								<audio>
									<format>
										<samplecharacteristics>
											<depth>16</depth>
											<samplerate>48000</samplerate>
										</samplecharacteristics>
									</format>
									<outputs>
										<group>
											<index>1</index>
											<numchannels>1</numchannels>
											<downmix>0</downmix>
											<channel>
												<index>1</index>
											</channel>
										</group>
										<group>
											<index>2</index>
											<numchannels>1</numchannels>
											<downmix>0</downmix>
											<channel>
												<index>2</index>
											</channel>
										</group>
										<group>
											<index>3</index>
											<numchannels>1</numchannels>
											<downmix>0</downmix>
											<channel>
												<index>3</index>
											</channel>
										</group>
										<group>
											<index>4</index>
											<numchannels>1</numchannels>
											<downmix>0</downmix>
											<channel>
												<index>4</index>
											</channel>
										</group>
									</outputs>
									<track TL.SQTrackAudioKeyframeStyle="0" TL.SQTrackShy="0" TL.SQTrackExpandedHeight="25" TL.SQTrackExpanded="0" MZ.TrackTargeted="1" PannerCurrentValue="0.5" PannerIsInverted="true" PannerStartKeyframe="-91445760000000000,0.5,0,0,0,0,0,0" PannerName="Balance" currentExplodedTrackIndex="0" totalExplodedTrackCount="2" premiereTrackType="Stereo">
										<clipitem id="clipitem-1106" frameBlend="FALSE" PannerCurrentValue="0.5" PannerKeyframes="" PannerStartKeyframe="-91445760000000000,0.5,0,0,0,0,0,0" PannerIsInverted="true" PannerName="Balance">
											<masterclipid>masterclip-103</masterclipid>
											<name>AA018601.MXF</name>
											<enabled>TRUE</enabled>
											<duration>8100</duration>
											<rate>
												<timebase>25</timebase>
												<ntsc>FALSE</ntsc>
											</rate>
											<start>0</start>
											<end>8100</end>
											<in>0</in>
											<out>8100</out>
											<file id="file-91"/>
											<sourcetrack>
												<mediatype>audio</mediatype>
												<trackindex>1</trackindex>
											</sourcetrack>
												<filter>
													<effect>
														<name>Audio Pan</name>
														<effectid>audiopan</effectid>
														<effectcategory>audiopan</effectcategory>
														<effecttype>audiopan</effecttype>
														<mediatype>audio</mediatype>
														<parameter authoringApp="PremierePro">
															<parameterid>pan</parameterid>
															<name>Pan</name>
															<valuemin>-1</valuemin>
															<valuemax>1</valuemax>
															<value>0</value>
														</parameter>
													</effect>
												</filter>
											<link>
												<linkclipref>clipitem-1104</linkclipref>
												<mediatype>video</mediatype>
												<trackindex>1</trackindex>
												<clipindex>1</clipindex>
											</link>
											<link>
												<linkclipref>clipitem-1106</linkclipref>
												<mediatype>audio</mediatype>
												<trackindex>1</trackindex>
												<clipindex>1</clipindex>
												<groupindex>1</groupindex>
											</link>
											<link>
												<linkclipref>clipitem-1107</linkclipref>
												<mediatype>audio</mediatype>
												<trackindex>2</trackindex>
												<clipindex>1</clipindex>
												<groupindex>1</groupindex>
											</link>
											<logginginfo>
												<description></description>
												<scene></scene>
												<shottake>AA0186</shottake>
												<lognote></lognote>
											</logginginfo>
											<labels>
												<label2>Iris</label2>
											</labels>
										</clipitem>
										<enabled>TRUE</enabled>
										<locked>FALSE</locked>
										<outputchannelindex>1</outputchannelindex>
									</track>
									<track TL.SQTrackAudioKeyframeStyle="0" TL.SQTrackShy="0" TL.SQTrackExpandedHeight="25" TL.SQTrackExpanded="0" MZ.TrackTargeted="1" PannerCurrentValue="0.5" PannerIsInverted="true" PannerStartKeyframe="-91445760000000000,0.5,0,0,0,0,0,0" PannerName="Balance" currentExplodedTrackIndex="1" totalExplodedTrackCount="2" premiereTrackType="Stereo">
										<clipitem id="clipitem-1107" frameBlend="FALSE" PannerCurrentValue="0.5" PannerKeyframes="" PannerStartKeyframe="-91445760000000000,0.5,0,0,0,0,0,0" PannerIsInverted="true" PannerName="Balance">
											<masterclipid>masterclip-103</masterclipid>
											<name>AA018601.MXF</name>
											<enabled>TRUE</enabled>
											<duration>8100</duration>
											<rate>
												<timebase>25</timebase>
												<ntsc>FALSE</ntsc>
											</rate>
											<start>0</start>
											<end>8100</end>
											<in>0</in>
											<out>8100</out>
											<file id="file-91"/>
											<sourcetrack>
												<mediatype>audio</mediatype>
												<trackindex>2</trackindex>
											</sourcetrack>
												<filter>
													<effect>
														<name>Audio Pan</name>
														<effectid>audiopan</effectid>
														<effectcategory>audiopan</effectcategory>
														<effecttype>audiopan</effecttype>
														<mediatype>audio</mediatype>
														<parameter authoringApp="PremierePro">
															<parameterid>pan</parameterid>
															<name>Pan</name>
															<valuemin>-1</valuemin>
															<valuemax>1</valuemax>
															<value>0</value>
														</parameter>
													</effect>
												</filter>
											<link>
												<linkclipref>clipitem-1104</linkclipref>
												<mediatype>video</mediatype>
												<trackindex>1</trackindex>
												<clipindex>1</clipindex>
											</link>
											<link>
												<linkclipref>clipitem-1106</linkclipref>
												<mediatype>audio</mediatype>
												<trackindex>1</trackindex>
												<clipindex>1</clipindex>
												<groupindex>1</groupindex>
											</link>
											<link>
												<linkclipref>clipitem-1107</linkclipref>
												<mediatype>audio</mediatype>
												<trackindex>2</trackindex>
												<clipindex>1</clipindex>
												<groupindex>1</groupindex>
											</link>
											<logginginfo>
												<description></description>
												<scene></scene>
												<shottake>AA0186</shottake>
												<lognote></lognote>
											</logginginfo>
											<labels>
												<label2>Iris</label2>
											</labels>
										</clipitem>
										<enabled>TRUE</enabled>
										<locked>FALSE</locked>
										<outputchannelindex>2</outputchannelindex>
									</track>
									<track TL.SQTrackAudioKeyframeStyle="0" TL.SQTrackShy="0" TL.SQTrackExpandedHeight="25" TL.SQTrackExpanded="0" MZ.TrackTargeted="1" PannerCurrentValue="0.5" PannerIsInverted="true" PannerStartKeyframe="-91445760000000000,0.5,0,0,0,0,0,0" PannerName="Balance" currentExplodedTrackIndex="0" totalExplodedTrackCount="2" premiereTrackType="Stereo">
										<clipitem id="clipitem-1108" frameBlend="FALSE" PannerCurrentValue="0.5" PannerKeyframes="" PannerStartKeyframe="-91445760000000000,0.5,0,0,0,0,0,0" PannerIsInverted="true" PannerName="Balance">
											<masterclipid>masterclip-104</masterclipid>
											<name>MVI_0107.MOV</name>
											<enabled>TRUE</enabled>
											<duration>253</duration>
											<rate>
												<timebase>25</timebase>
												<ntsc>FALSE</ntsc>
											</rate>
											<start>7809</start>
											<end>8062</end>
											<in>0</in>
											<out>253</out>
											<file id="file-92"/>
											<sourcetrack>
												<mediatype>audio</mediatype>
												<trackindex>1</trackindex>
											</sourcetrack>
												<filter>
													<effect>
														<name>Audio Pan</name>
														<effectid>audiopan</effectid>
														<effectcategory>audiopan</effectcategory>
														<effecttype>audiopan</effecttype>
														<mediatype>audio</mediatype>
														<parameter authoringApp="PremierePro">
															<parameterid>pan</parameterid>
															<name>Pan</name>
															<valuemin>-1</valuemin>
															<valuemax>1</valuemax>
															<value>0</value>
														</parameter>
													</effect>
												</filter>
											<link>
												<linkclipref>clipitem-1105</linkclipref>
												<mediatype>video</mediatype>
												<trackindex>2</trackindex>
												<clipindex>1</clipindex>
											</link>
											<link>
												<linkclipref>clipitem-1108</linkclipref>
												<mediatype>audio</mediatype>
												<trackindex>3</trackindex>
												<clipindex>1</clipindex>
												<groupindex>1</groupindex>
											</link>
											<link>
												<linkclipref>clipitem-1109</linkclipref>
												<mediatype>audio</mediatype>
												<trackindex>4</trackindex>
												<clipindex>1</clipindex>
												<groupindex>1</groupindex>
											</link>
											<logginginfo>
												<description></description>
												<scene></scene>
												<shottake></shottake>
												<lognote></lognote>
											</logginginfo>
											<labels>
												<label2>Iris</label2>
											</labels>
										</clipitem>
										<enabled>TRUE</enabled>
										<locked>FALSE</locked>
										<outputchannelindex>3</outputchannelindex>
									</track>
									<track TL.SQTrackAudioKeyframeStyle="0" TL.SQTrackShy="0" TL.SQTrackExpandedHeight="25" TL.SQTrackExpanded="0" MZ.TrackTargeted="1" PannerCurrentValue="0.5" PannerIsInverted="true" PannerStartKeyframe="-91445760000000000,0.5,0,0,0,0,0,0" PannerName="Balance" currentExplodedTrackIndex="1" totalExplodedTrackCount="2" premiereTrackType="Stereo">
										<clipitem id="clipitem-1109" frameBlend="FALSE" PannerCurrentValue="0.5" PannerKeyframes="" PannerStartKeyframe="-91445760000000000,0.5,0,0,0,0,0,0" PannerIsInverted="true" PannerName="Balance">
											<masterclipid>masterclip-104</masterclipid>
											<name>MVI_0107.MOV</name>
											<enabled>TRUE</enabled>
											<duration>253</duration>
											<rate>
												<timebase>25</timebase>
												<ntsc>FALSE</ntsc>
											</rate>
											<start>7809</start>
											<end>8062</end>
											<in>0</in>
											<out>253</out>
											<file id="file-92"/>
											<sourcetrack>
												<mediatype>audio</mediatype>
												<trackindex>2</trackindex>
											</sourcetrack>
												<filter>
													<effect>
														<name>Audio Pan</name>
														<effectid>audiopan</effectid>
														<effectcategory>audiopan</effectcategory>
														<effecttype>audiopan</effecttype>
														<mediatype>audio</mediatype>
														<parameter authoringApp="PremierePro">
															<parameterid>pan</parameterid>
															<name>Pan</name>
															<valuemin>-1</valuemin>
															<valuemax>1</valuemax>
															<value>0</value>
														</parameter>
													</effect>
												</filter>
											<link>
												<linkclipref>clipitem-1105</linkclipref>
												<mediatype>video</mediatype>
												<trackindex>2</trackindex>
												<clipindex>1</clipindex>
											</link>
											<link>
												<linkclipref>clipitem-1108</linkclipref>
												<mediatype>audio</mediatype>
												<trackindex>3</trackindex>
												<clipindex>1</clipindex>
												<groupindex>1</groupindex>
											</link>
											<link>
												<linkclipref>clipitem-1109</linkclipref>
												<mediatype>audio</mediatype>
												<trackindex>4</trackindex>
												<clipindex>1</clipindex>
												<groupindex>1</groupindex>
											</link>
											<logginginfo>
												<description></description>
												<scene></scene>
												<shottake></shottake>
												<lognote></lognote>
											</logginginfo>
											<labels>
												<label2>Iris</label2>
											</labels>
										</clipitem>
										<enabled>TRUE</enabled>
										<locked>FALSE</locked>
										<outputchannelindex>4</outputchannelindex>
									</track>
								</audio>
							</media>
							<timecode>
								<rate>
									<timebase>25</timebase>
									<ntsc>FALSE</ntsc>
								</rate>
								<string>00:00:00:00</string>
								<frame>0</frame>
								<displayformat>NDF</displayformat>
							</timecode>
						</sequence>
							<filter>
								<effect>
									<name>Audio Levels</name>
									<effectid>audiolevels</effectid>
									<effectcategory>audiolevels</effectcategory>
									<effecttype>audiolevels</effecttype>
									<mediatype>audio</mediatype>
									<parameter authoringApp="PremierePro">
										<parameterid>level</parameterid>
										<name>Level</name>
										<valuemin>0</valuemin>
										<valuemax>3.98109</valuemax>
										<value>1.58114</value>
									</parameter>
								</effect>
							</filter>
						<link>
							<linkclipref>clipitem-1103</linkclipref>
							<mediatype>audio</mediatype>
							<trackindex>1</trackindex>
							<clipindex>68</clipindex>
						</link>
						<link>
							<linkclipref>clipitem-1411</linkclipref>
							<mediatype>audio</mediatype>
							<trackindex>3</trackindex>
							<clipindex>56</clipindex>
						</link>
						<labels>
							<label2>Forest</label2>
						</labels>
					</clipitem>
					<clipitem id="clipitem-1110" frameBlend="FALSE">
						<masterclipid>masterclip-102</masterclipid>
						<name>AA018601.MXFCowi varemesse multi</name>
						<enabled>TRUE</enabled>
						<duration>8100</duration>
						<rate>
							<timebase>25</timebase>
							<ntsc>FALSE</ntsc>
						</rate>
						<start>15149</start>
						<end>15439</end>
						<in>4563</in>
						<out>4853</out>
						<sequence id="sequence-116"/>
							<filter>
								<effect>
									<name>Audio Levels</name>
									<effectid>audiolevels</effectid>
									<effectcategory>audiolevels</effectcategory>
									<effecttype>audiolevels</effecttype>
									<mediatype>audio</mediatype>
									<parameter authoringApp="PremierePro">
										<parameterid>level</parameterid>
										<name>Level</name>
										<valuemin>0</valuemin>
										<valuemax>3.98109</valuemax>
										<value>1.58114</value>
									</parameter>
								</effect>
							</filter>
						<link>
							<linkclipref>clipitem-589</linkclipref>
							<mediatype>video</mediatype>
							<trackindex>1</trackindex>
							<clipindex>131</clipindex>
						</link>
						<link>
							<linkclipref>clipitem-1110</linkclipref>
							<mediatype>audio</mediatype>
							<trackindex>1</trackindex>
							<clipindex>69</clipindex>
						</link>
						<link>
							<linkclipref>clipitem-1412</linkclipref>
							<mediatype>audio</mediatype>
							<trackindex>3</trackindex>
							<clipindex>57</clipindex>
						</link>
						<labels>
							<label2>Forest</label2>
						</labels>
					</clipitem>
					<clipitem id="clipitem-1111" frameBlend="FALSE">
						<masterclipid>masterclip-102</masterclipid>
						<name>AA018601.MXFCowi varemesse multi</name>
						<enabled>TRUE</enabled>
						<duration>8100</duration>
						<rate>
							<timebase>25</timebase>
							<ntsc>FALSE</ntsc>
						</rate>
						<start>15439</start>
						<end>15573</end>
						<in>5153</in>
						<out>5287</out>
						<sequence id="sequence-116"/>
							<filter>
								<effect>
									<name>Audio Levels</name>
									<effectid>audiolevels</effectid>
									<effectcategory>audiolevels</effectcategory>
									<effecttype>audiolevels</effecttype>
									<mediatype>audio</mediatype>
									<parameter authoringApp="PremierePro">
										<parameterid>level</parameterid>
										<name>Level</name>
										<valuemin>0</valuemin>
										<valuemax>3.98109</valuemax>
										<value>1.58114</value>
									</parameter>
								</effect>
							</filter>
						<link>
							<linkclipref>clipitem-597</linkclipref>
							<mediatype>video</mediatype>
							<trackindex>1</trackindex>
							<clipindex>133</clipindex>
						</link>
						<link>
							<linkclipref>clipitem-1111</linkclipref>
							<mediatype>audio</mediatype>
							<trackindex>1</trackindex>
							<clipindex>70</clipindex>
						</link>
						<link>
							<linkclipref>clipitem-1413</linkclipref>
							<mediatype>audio</mediatype>
							<trackindex>3</trackindex>
							<clipindex>58</clipindex>
						</link>
						<labels>
							<label2>Forest</label2>
						</labels>
					</clipitem>
					<clipitem id="clipitem-1112" frameBlend="FALSE">
						<masterclipid>masterclip-102</masterclipid>
						<name>AA018601.MXFCowi varemesse multi</name>
						<enabled>TRUE</enabled>
						<duration>8100</duration>
						<rate>
							<timebase>25</timebase>
							<ntsc>FALSE</ntsc>
						</rate>
						<start>15573</start>
						<end>-1</end>
						<in>5541</in>
						<out>5610</out>
						<sequence id="sequence-116"/>
							<filter>
								<effect>
									<name>Audio Levels</name>
									<effectid>audiolevels</effectid>
									<effectcategory>audiolevels</effectcategory>
									<effecttype>audiolevels</effecttype>
									<mediatype>audio</mediatype>
									<parameter authoringApp="PremierePro">
										<parameterid>level</parameterid>
										<name>Level</name>
										<valuemin>0</valuemin>
										<valuemax>3.98109</valuemax>
										<value>1.58114</value>
									</parameter>
								</effect>
							</filter>
						<link>
							<linkclipref>clipitem-1112</linkclipref>
							<mediatype>audio</mediatype>
							<trackindex>1</trackindex>
							<clipindex>71</clipindex>
						</link>
						<link>
							<linkclipref>clipitem-1414</linkclipref>
							<mediatype>audio</mediatype>
							<trackindex>3</trackindex>
							<clipindex>59</clipindex>
						</link>
						<labels>
							<label2>Forest</label2>
						</labels>
					</clipitem>
					<transitionitem>
						<start>15641</start>
						<end>15642</end>
						<alignment>end-black</alignment>
						<cutPoint>1</cutPoint>
						<rate>
							<timebase>25</timebase>
							<ntsc>FALSE</ntsc>
						</rate>
						<effect>
							<name>Cross Fade (+3dB)</name>
							<effectid>KGAudioTransCrossFade3dB</effectid>
							<effecttype>transition</effecttype>
							<mediatype>audio</mediatype>
							<wipecode>0</wipecode>
							<wipeaccuracy>100</wipeaccuracy>
							<startratio>0</startratio>
							<endratio>1</endratio>
							<reverse>FALSE</reverse>
						</effect>
					</transitionitem>
					<clipitem id="clipitem-1113" frameBlend="FALSE">
						<masterclipid>masterclip-109</masterclipid>
						<name>MVI_0400.MOV</name>
						<enabled>TRUE</enabled>
						<duration>1914</duration>
						<rate>
							<timebase>25</timebase>
							<ntsc>FALSE</ntsc>
						</rate>
						<start>16107</start>
						<end>16123</end>
						<in>417</in>
						<out>433</out>
						<file id="file-97"/>
						<sourcetrack>
							<mediatype>audio</mediatype>
							<trackindex>1</trackindex>
						</sourcetrack>
							<filter>
								<effect>
									<name>Audio Levels</name>
									<effectid>audiolevels</effectid>
									<effectcategory>audiolevels</effectcategory>
									<effecttype>audiolevels</effecttype>
									<mediatype>audio</mediatype>
									<parameter authoringApp="PremierePro">
										<parameterid>level</parameterid>
										<name>Level</name>
										<valuemin>0</valuemin>
										<valuemax>3.98109</valuemax>
										<value>1.0132</value>
									</parameter>
								</effect>
							</filter>
						<logginginfo>
							<description></description>
							<scene></scene>
							<shottake></shottake>
							<lognote></lognote>
						</logginginfo>
						<labels>
							<label2>Iris</label2>
						</labels>
					</clipitem>
					<clipitem id="clipitem-1114" frameBlend="FALSE">
						<masterclipid>masterclip-110</masterclipid>
						<name>MVI_0399.MOV</name>
						<enabled>TRUE</enabled>
						<duration>844</duration>
						<rate>
							<timebase>25</timebase>
							<ntsc>FALSE</ntsc>
						</rate>
						<start>16123</start>
						<end>16152</end>
						<in>410</in>
						<out>439</out>
						<file id="file-98"/>
						<sourcetrack>
							<mediatype>audio</mediatype>
							<trackindex>1</trackindex>
						</sourcetrack>
						<logginginfo>
							<description></description>
							<scene></scene>
							<shottake></shottake>
							<lognote></lognote>
						</logginginfo>
						<labels>
							<label2>Iris</label2>
						</labels>
					</clipitem>
					<clipitem id="clipitem-1115" frameBlend="FALSE">
						<masterclipid>masterclip-109</masterclipid>
						<name>MVI_0400.MOV</name>
						<enabled>TRUE</enabled>
						<duration>1914</duration>
						<rate>
							<timebase>25</timebase>
							<ntsc>FALSE</ntsc>
						</rate>
						<start>16152</start>
						<end>16227</end>
						<in>486</in>
						<out>561</out>
						<file id="file-97"/>
						<sourcetrack>
							<mediatype>audio</mediatype>
							<trackindex>1</trackindex>
						</sourcetrack>
						<logginginfo>
							<description></description>
							<scene></scene>
							<shottake></shottake>
							<lognote></lognote>
						</logginginfo>
						<labels>
							<label2>Iris</label2>
						</labels>
					</clipitem>
					<clipitem id="clipitem-1116" frameBlend="FALSE">
						<masterclipid>masterclip-111</masterclipid>
						<name>MVI_0458.MOV</name>
						<enabled>TRUE</enabled>
						<duration>10499</duration>
						<rate>
							<timebase>25</timebase>
							<ntsc>FALSE</ntsc>
						</rate>
						<start>16227</start>
						<end>16293</end>
						<in>4708</in>
						<out>4774</out>
						<file id="file-99"/>
						<sourcetrack>
							<mediatype>audio</mediatype>
							<trackindex>2</trackindex>
						</sourcetrack>
						<link>
							<linkclipref>clipitem-606</linkclipref>
							<mediatype>video</mediatype>
							<trackindex>1</trackindex>
							<clipindex>142</clipindex>
						</link>
						<link>
							<linkclipref>clipitem-1116</linkclipref>
							<mediatype>audio</mediatype>
							<trackindex>1</trackindex>
							<clipindex>76</clipindex>
						</link>
						<logginginfo>
							<description></description>
							<scene></scene>
							<shottake></shottake>
							<lognote></lognote>
						</logginginfo>
						<labels>
							<label2>Iris</label2>
						</labels>
					</clipitem>
					<clipitem id="clipitem-1117" frameBlend="FALSE">
						<masterclipid>masterclip-112</masterclipid>
						<name>AA037201.MXF</name>
						<enabled>TRUE</enabled>
						<duration>5028</duration>
						<rate>
							<timebase>25</timebase>
							<ntsc>FALSE</ntsc>
						</rate>
						<start>16293</start>
						<end>16519</end>
						<in>600</in>
						<out>826</out>
						<file id="file-100"/>
						<sourcetrack>
							<mediatype>audio</mediatype>
							<trackindex>1</trackindex>
						</sourcetrack>
							<filter>
								<effect>
									<name>Audio Levels</name>
									<effectid>audiolevels</effectid>
									<effectcategory>audiolevels</effectcategory>
									<effecttype>audiolevels</effecttype>
									<mediatype>audio</mediatype>
									<parameter authoringApp="PremierePro">
										<parameterid>level</parameterid>
										<name>Level</name>
										<valuemin>0</valuemin>
										<valuemax>3.98109</valuemax>
										<value>1.77828</value>
									</parameter>
								</effect>
							</filter>
							<marker>
								<comment>og d fￃﾥr ikke bilreklamen i gmail, men pￃﾥ avisene du besￃﾸker, GOOGLE ER OVERALT</comment>
								<name></name>
								<in>2802</in>
								<out>-1</out>
							</marker>
							<marker>
								<comment>de vil vite alt om hva du foretar det i lￃﾸpet av dagen bare fordi du er bￃﾦrer av en androidteleofon</comment>
								<name></name>
								<in>653</in>
								<out>-1</out>
							</marker>
							<marker>
								<comment>ja, det er en maskinell lesning sￃﾥ hvis du skriver om en bil, sￃﾥ kan du fￃﾥ bilrreklame</comment>
								<name></name>
								<in>2229</in>
								<out>-1</out>
							</marker>
						<link>
							<linkclipref>clipitem-607</linkclipref>
							<mediatype>video</mediatype>
							<trackindex>1</trackindex>
							<clipindex>143</clipindex>
						</link>
						<link>
							<linkclipref>clipitem-1117</linkclipref>
							<mediatype>audio</mediatype>
							<trackindex>1</trackindex>
							<clipindex>77</clipindex>
						</link>
						<logginginfo>
							<description></description>
							<scene></scene>
							<shottake>AA0372</shottake>
							<lognote></lognote>
						</logginginfo>
						<labels>
							<label2>Iris</label2>
						</labels>
					</clipitem>
					<clipitem id="clipitem-1118" frameBlend="FALSE">
						<masterclipid>masterclip-111</masterclipid>
						<name>MVI_0458.MOV</name>
						<enabled>TRUE</enabled>
						<duration>10499</duration>
						<rate>
							<timebase>25</timebase>
							<ntsc>FALSE</ntsc>
						</rate>
						<start>16519</start>
						<end>16585</end>
						<in>5250</in>
						<out>5316</out>
						<file id="file-99"/>
						<sourcetrack>
							<mediatype>audio</mediatype>
							<trackindex>2</trackindex>
						</sourcetrack>
							<filter>
								<effect>
									<name>Audio Levels</name>
									<effectid>audiolevels</effectid>
									<effectcategory>audiolevels</effectcategory>
									<effecttype>audiolevels</effecttype>
									<mediatype>audio</mediatype>
									<parameter authoringApp="PremierePro">
										<parameterid>level</parameterid>
										<name>Level</name>
										<valuemin>0</valuemin>
										<valuemax>3.98109</valuemax>
										<value>1.58114</value>
									</parameter>
								</effect>
							</filter>
						<logginginfo>
							<description></description>
							<scene></scene>
							<shottake></shottake>
							<lognote></lognote>
						</logginginfo>
						<labels>
							<label2>Iris</label2>
						</labels>
					</clipitem>
					<clipitem id="clipitem-1119" frameBlend="FALSE">
						<masterclipid>masterclip-111</masterclipid>
						<name>MVI_0458.MOV</name>
						<enabled>TRUE</enabled>
						<duration>10499</duration>
						<rate>
							<timebase>25</timebase>
							<ntsc>FALSE</ntsc>
						</rate>
						<start>16585</start>
						<end>16722</end>
						<in>9203</in>
						<out>9340</out>
						<file id="file-99"/>
						<sourcetrack>
							<mediatype>audio</mediatype>
							<trackindex>2</trackindex>
						</sourcetrack>
						<link>
							<linkclipref>clipitem-610</linkclipref>
							<mediatype>video</mediatype>
							<trackindex>1</trackindex>
							<clipindex>146</clipindex>
						</link>
						<link>
							<linkclipref>clipitem-1119</linkclipref>
							<mediatype>audio</mediatype>
							<trackindex>1</trackindex>
							<clipindex>79</clipindex>
						</link>
						<logginginfo>
							<description></description>
							<scene></scene>
							<shottake></shottake>
							<lognote></lognote>
						</logginginfo>
						<labels>
							<label2>Iris</label2>
						</labels>
					</clipitem>
					<clipitem id="clipitem-1120" frameBlend="FALSE">
						<masterclipid>masterclip-111</masterclipid>
						<name>MVI_0458.MOV</name>
						<enabled>TRUE</enabled>
						<duration>10499</duration>
						<rate>
							<timebase>25</timebase>
							<ntsc>FALSE</ntsc>
						</rate>
						<start>16722</start>
						<end>16881</end>
						<in>10094</in>
						<out>10253</out>
						<file id="file-99"/>
						<sourcetrack>
							<mediatype>audio</mediatype>
							<trackindex>1</trackindex>
						</sourcetrack>
						<link>
							<linkclipref>clipitem-612</linkclipref>
							<mediatype>video</mediatype>
							<trackindex>1</trackindex>
							<clipindex>148</clipindex>
						</link>
						<link>
							<linkclipref>clipitem-1120</linkclipref>
							<mediatype>audio</mediatype>
							<trackindex>1</trackindex>
							<clipindex>80</clipindex>
						</link>
						<logginginfo>
							<description></description>
							<scene></scene>
							<shottake></shottake>
							<lognote></lognote>
						</logginginfo>
						<labels>
							<label2>Iris</label2>
						</labels>
					</clipitem>
					<clipitem id="clipitem-1121" frameBlend="FALSE">
						<masterclipid>masterclip-111</masterclipid>
						<name>MVI_0458.MOV</name>
						<enabled>TRUE</enabled>
						<duration>10499</duration>
						<rate>
							<timebase>25</timebase>
							<ntsc>FALSE</ntsc>
						</rate>
						<start>17040</start>
						<end>17326</end>
						<in>5329</in>
						<out>5615</out>
						<file id="file-99"/>
						<sourcetrack>
							<mediatype>audio</mediatype>
							<trackindex>2</trackindex>
						</sourcetrack>
							<filter>
								<effect>
									<name>Audio Levels</name>
									<effectid>audiolevels</effectid>
									<effectcategory>audiolevels</effectcategory>
									<effecttype>audiolevels</effecttype>
									<mediatype>audio</mediatype>
									<parameter authoringApp="PremierePro">
										<parameterid>level</parameterid>
										<name>Level</name>
										<valuemin>0</valuemin>
										<valuemax>3.98109</valuemax>
										<value>1.58114</value>
									</parameter>
								</effect>
							</filter>
						<logginginfo>
							<description></description>
							<scene></scene>
							<shottake></shottake>
							<lognote></lognote>
						</logginginfo>
						<labels>
							<label2>Iris</label2>
						</labels>
					</clipitem>
					<clipitem id="clipitem-1122" frameBlend="FALSE">
						<masterclipid>masterclip-112</masterclipid>
						<name>AA037201.MXF</name>
						<enabled>TRUE</enabled>
						<duration>5028</duration>
						<rate>
							<timebase>25</timebase>
							<ntsc>FALSE</ntsc>
						</rate>
						<start>17326</start>
						<end>17343</end>
						<in>2135</in>
						<out>2152</out>
						<file id="file-100"/>
						<sourcetrack>
							<mediatype>audio</mediatype>
							<trackindex>1</trackindex>
						</sourcetrack>
							<filter>
								<effect>
									<name>Audio Levels</name>
									<effectid>audiolevels</effectid>
									<effectcategory>audiolevels</effectcategory>
									<effecttype>audiolevels</effecttype>
									<mediatype>audio</mediatype>
									<parameter authoringApp="PremierePro">
										<parameterid>level</parameterid>
										<name>Level</name>
										<valuemin>0</valuemin>
										<valuemax>3.98109</valuemax>
										<value>1.77828</value>
									</parameter>
								</effect>
							</filter>
							<marker>
								<comment>og d fￃﾥr ikke bilreklamen i gmail, men pￃﾥ avisene du besￃﾸker, GOOGLE ER OVERALT</comment>
								<name></name>
								<in>2802</in>
								<out>-1</out>
							</marker>
							<marker>
								<comment>de vil vite alt om hva du foretar det i lￃﾸpet av dagen bare fordi du er bￃﾦrer av en androidteleofon</comment>
								<name></name>
								<in>653</in>
								<out>-1</out>
							</marker>
							<marker>
								<comment>ja, det er en maskinell lesning sￃﾥ hvis du skriver om en bil, sￃﾥ kan du fￃﾥ bilrreklame</comment>
								<name></name>
								<in>2229</in>
								<out>-1</out>
							</marker>
						<logginginfo>
							<description></description>
							<scene></scene>
							<shottake>AA0372</shottake>
							<lognote></lognote>
						</logginginfo>
						<labels>
							<label2>Iris</label2>
						</labels>
					</clipitem>
					<clipitem id="clipitem-1123" frameBlend="FALSE">
						<masterclipid>masterclip-112</masterclipid>
						<name>AA037201.MXF</name>
						<enabled>TRUE</enabled>
						<duration>5028</duration>
						<rate>
							<timebase>25</timebase>
							<ntsc>FALSE</ntsc>
						</rate>
						<start>17343</start>
						<end>17399</end>
						<in>2189</in>
						<out>2245</out>
						<file id="file-100"/>
						<sourcetrack>
							<mediatype>audio</mediatype>
							<trackindex>1</trackindex>
						</sourcetrack>
							<filter>
								<effect>
									<name>Audio Levels</name>
									<effectid>audiolevels</effectid>
									<effectcategory>audiolevels</effectcategory>
									<effecttype>audiolevels</effecttype>
									<mediatype>audio</mediatype>
									<parameter authoringApp="PremierePro">
										<parameterid>level</parameterid>
										<name>Level</name>
										<valuemin>0</valuemin>
										<valuemax>3.98109</valuemax>
										<value>1.77828</value>
									</parameter>
								</effect>
							</filter>
							<marker>
								<comment>og d fￃﾥr ikke bilreklamen i gmail, men pￃﾥ avisene du besￃﾸker, GOOGLE ER OVERALT</comment>
								<name></name>
								<in>2802</in>
								<out>-1</out>
							</marker>
							<marker>
								<comment>de vil vite alt om hva du foretar det i lￃﾸpet av dagen bare fordi du er bￃﾦrer av en androidteleofon</comment>
								<name></name>
								<in>653</in>
								<out>-1</out>
							</marker>
							<marker>
								<comment>ja, det er en maskinell lesning sￃﾥ hvis du skriver om en bil, sￃﾥ kan du fￃﾥ bilrreklame</comment>
								<name></name>
								<in>2229</in>
								<out>-1</out>
							</marker>
						<logginginfo>
							<description></description>
							<scene></scene>
							<shottake>AA0372</shottake>
							<lognote></lognote>
						</logginginfo>
						<labels>
							<label2>Iris</label2>
						</labels>
					</clipitem>
					<clipitem id="clipitem-1124" frameBlend="FALSE">
						<masterclipid>masterclip-112</masterclipid>
						<name>AA037201.MXF</name>
						<enabled>TRUE</enabled>
						<duration>5028</duration>
						<rate>
							<timebase>25</timebase>
							<ntsc>FALSE</ntsc>
						</rate>
						<start>17399</start>
						<end>17692</end>
						<in>2281</in>
						<out>2574</out>
						<file id="file-100"/>
						<sourcetrack>
							<mediatype>audio</mediatype>
							<trackindex>1</trackindex>
						</sourcetrack>
							<filter>
								<effect>
									<name>Audio Levels</name>
									<effectid>audiolevels</effectid>
									<effectcategory>audiolevels</effectcategory>
									<effecttype>audiolevels</effecttype>
									<mediatype>audio</mediatype>
									<parameter authoringApp="PremierePro">
										<parameterid>level</parameterid>
										<name>Level</name>
										<valuemin>0</valuemin>
										<valuemax>3.98109</valuemax>
										<value>1.77828</value>
									</parameter>
								</effect>
							</filter>
							<marker>
								<comment>og d fￃﾥr ikke bilreklamen i gmail, men pￃﾥ avisene du besￃﾸker, GOOGLE ER OVERALT</comment>
								<name></name>
								<in>2802</in>
								<out>-1</out>
							</marker>
							<marker>
								<comment>de vil vite alt om hva du foretar det i lￃﾸpet av dagen bare fordi du er bￃﾦrer av en androidteleofon</comment>
								<name></name>
								<in>653</in>
								<out>-1</out>
							</marker>
							<marker>
								<comment>ja, det er en maskinell lesning sￃﾥ hvis du skriver om en bil, sￃﾥ kan du fￃﾥ bilrreklame</comment>
								<name></name>
								<in>2229</in>
								<out>-1</out>
							</marker>
						<link>
							<linkclipref>clipitem-619</linkclipref>
							<mediatype>video</mediatype>
							<trackindex>1</trackindex>
							<clipindex>155</clipindex>
						</link>
						<link>
							<linkclipref>clipitem-1124</linkclipref>
							<mediatype>audio</mediatype>
							<trackindex>1</trackindex>
							<clipindex>84</clipindex>
						</link>
						<logginginfo>
							<description></description>
							<scene></scene>
							<shottake>AA0372</shottake>
							<lognote></lognote>
						</logginginfo>
						<labels>
							<label2>Iris</label2>
						</labels>
					</clipitem>
					<clipitem id="clipitem-1125" frameBlend="FALSE">
						<masterclipid>masterclip-111</masterclipid>
						<name>MVI_0458.MOV</name>
						<enabled>TRUE</enabled>
						<duration>10499</duration>
						<rate>
							<timebase>25</timebase>
							<ntsc>FALSE</ntsc>
						</rate>
						<start>17692</start>
						<end>17799</end>
						<in>6301</in>
						<out>6408</out>
						<file id="file-99"/>
						<sourcetrack>
							<mediatype>audio</mediatype>
							<trackindex>2</trackindex>
						</sourcetrack>
							<filter>
								<effect>
									<name>Audio Levels</name>
									<effectid>audiolevels</effectid>
									<effectcategory>audiolevels</effectcategory>
									<effecttype>audiolevels</effecttype>
									<mediatype>audio</mediatype>
									<parameter authoringApp="PremierePro">
										<parameterid>level</parameterid>
										<name>Level</name>
										<valuemin>0</valuemin>
										<valuemax>3.98109</valuemax>
										<value>1.25594</value>
									</parameter>
								</effect>
							</filter>
						<link>
							<linkclipref>clipitem-620</linkclipref>
							<mediatype>video</mediatype>
							<trackindex>1</trackindex>
							<clipindex>156</clipindex>
						</link>
						<link>
							<linkclipref>clipitem-1125</linkclipref>
							<mediatype>audio</mediatype>
							<trackindex>1</trackindex>
							<clipindex>85</clipindex>
						</link>
						<logginginfo>
							<description></description>
							<scene></scene>
							<shottake></shottake>
							<lognote></lognote>
						</logginginfo>
						<labels>
							<label2>Iris</label2>
						</labels>
					</clipitem>
					<clipitem id="clipitem-1126" frameBlend="FALSE">
						<masterclipid>masterclip-116</masterclipid>
						<name>PO_kiosk6.MOV</name>
						<enabled>TRUE</enabled>
						<duration>507</duration>
						<rate>
							<timebase>25</timebase>
							<ntsc>FALSE</ntsc>
						</rate>
						<start>17799</start>
						<end>18191</end>
						<in>76</in>
						<out>468</out>
						<file id="file-104"/>
						<sourcetrack>
							<mediatype>audio</mediatype>
							<trackindex>1</trackindex>
						</sourcetrack>
						<link>
							<linkclipref>clipitem-621</linkclipref>
							<mediatype>video</mediatype>
							<trackindex>1</trackindex>
							<clipindex>157</clipindex>
						</link>
						<link>
							<linkclipref>clipitem-1126</linkclipref>
							<mediatype>audio</mediatype>
							<trackindex>1</trackindex>
							<clipindex>86</clipindex>
						</link>
						<logginginfo>
							<description></description>
							<scene></scene>
							<shottake></shottake>
							<lognote></lognote>
						</logginginfo>
						<labels>
							<label2>Iris</label2>
						</labels>
					</clipitem>
					<clipitem id="clipitem-1127" frameBlend="FALSE">
						<masterclipid>masterclip-274</masterclipid>
						<name>MVI_0459.MOV</name>
						<enabled>TRUE</enabled>
						<duration>9554</duration>
						<rate>
							<timebase>25</timebase>
							<ntsc>FALSE</ntsc>
						</rate>
						<start>18269</start>
						<end>18270</end>
						<in>5083</in>
						<out>5084</out>
						<pixelaspectratio>square</pixelaspectratio>
						<anamorphic>FALSE</anamorphic>
						<file id="file-247">
							<name>MVI_0459.MOV</name>
							<pathurl>file://localhost/Volumes/Brakka/AdobeLager/Katta/Katta-14xxxx-Smart_eller_overvaaket-Chris/02-Video/Datatilsynet%20Case%205D/100EOS5D/MVI_0459.MOV</pathurl>
							<rate>
								<timebase>25</timebase>
								<ntsc>FALSE</ntsc>
							</rate>
							<duration>9554</duration>
							<timecode>
								<rate>
									<timebase>25</timebase>
									<ntsc>FALSE</ntsc>
								</rate>
								<string>00:00:00:00</string>
								<frame>0</frame>
								<displayformat>NDF</displayformat>
								<reel>
									<name></name>
								</reel>
							</timecode>
							<media>
								<video>
									<duration>18000</duration>
									<samplecharacteristics>
										<rate>
											<timebase>25</timebase>
											<ntsc>FALSE</ntsc>
										</rate>
										<width>1920</width>
										<height>1080</height>
										<anamorphic>FALSE</anamorphic>
										<pixelaspectratio>square</pixelaspectratio>
										<fielddominance>none</fielddominance>
									</samplecharacteristics>
								</video>
								<audio>
									<samplecharacteristics>
										<depth>16</depth>
										<samplerate>48000</samplerate>
									</samplecharacteristics>
									<channelcount>2</channelcount>
								</audio>
							</media>
						</file>
						<sourcetrack>
							<mediatype>audio</mediatype>
							<trackindex>2</trackindex>
						</sourcetrack>
							<filter>
								<effect>
									<name>Audio Levels</name>
									<effectid>audiolevels</effectid>
									<effectcategory>audiolevels</effectcategory>
									<effecttype>audiolevels</effecttype>
									<mediatype>audio</mediatype>
									<parameter authoringApp="PremierePro">
										<parameterid>level</parameterid>
										<name>Level</name>
										<valuemin>0</valuemin>
										<valuemax>3.98109</valuemax>
										<value>1.25594</value>
									</parameter>
								</effect>
							</filter>
						<logginginfo>
							<description></description>
							<scene></scene>
							<shottake></shottake>
							<lognote></lognote>
						</logginginfo>
						<labels>
							<label2>Iris</label2>
						</labels>
					</clipitem>
					<clipitem id="clipitem-1128" frameBlend="FALSE">
						<masterclipid>masterclip-130</masterclipid>
						<name>AA014901.MXFCowi varemesse multi</name>
						<enabled>TRUE</enabled>
						<duration>2666</duration>
						<rate>
							<timebase>25</timebase>
							<ntsc>FALSE</ntsc>
						</rate>
						<start>20822</start>
						<end>20823</end>
						<in>1308</in>
						<out>1309</out>
						<sequence id="sequence-117" MZ.Sequence.PreviewFrameSizeHeight="1080" MZ.Sequence.PreviewFrameSizeWidth="1920" MZ.Sequence.AudioTimeDisplayFormat="200" MZ.Sequence.PreviewRenderingClassID="1297106761" MZ.Sequence.PreviewRenderingPresetCodec="1297107278" MZ.Sequence.PreviewRenderingPresetPath="EncoderPresets/SequencePreview/795454d9-d3c2-429d-9474-923ab13b7018/I-Frame Only MPEG.epr" MZ.Sequence.PreviewUseMaxRenderQuality="false" MZ.Sequence.PreviewUseMaxBitDepth="false" MZ.Sequence.EditingModeGUID="795454d9-d3c2-429d-9474-923ab13b7018" MZ.Sequence.VideoTimeDisplayFormat="101" MZ.WorkOutPoint="15240960000000" MZ.WorkInPoint="0">
							<duration>2299</duration>
							<rate>
								<timebase>25</timebase>
								<ntsc>FALSE</ntsc>
							</rate>
							<name>AA014901.MXFCowi varemesse multi</name>
							<media>
								<video>
									<format>
										<samplecharacteristics>
											<rate>
												<timebase>25</timebase>
												<ntsc>FALSE</ntsc>
											</rate>
											<codec>
												<name>Apple ProRes 422</name>
												<appspecificdata>
													<appname>Final Cut Pro</appname>
													<appmanufacturer>Apple Inc.</appmanufacturer>
													<appversion>7.0</appversion>
													<data>
														<qtcodec>
															<codecname>Apple ProRes 422</codecname>
															<codectypename>Apple ProRes 422</codectypename>
															<codectypecode>apcn</codectypecode>
															<codecvendorcode>appl</codecvendorcode>
															<spatialquality>1024</spatialquality>
															<temporalquality>0</temporalquality>
															<keyframerate>0</keyframerate>
															<datarate>0</datarate>
														</qtcodec>
													</data>
												</appspecificdata>
											</codec>
											<width>1920</width>
											<height>1080</height>
											<anamorphic>FALSE</anamorphic>
											<pixelaspectratio>square</pixelaspectratio>
											<fielddominance>none</fielddominance>
											<colordepth>24</colordepth>
										</samplecharacteristics>
									</format>
									<track>
										<clipitem id="clipitem-1129" frameBlend="FALSE">
											<masterclipid>masterclip-131</masterclipid>
											<name>AA014901.MXF</name>
											<enabled>TRUE</enabled>
											<duration>2244</duration>
											<rate>
												<timebase>25</timebase>
												<ntsc>FALSE</ntsc>
											</rate>
											<start>55</start>
											<end>2299</end>
											<in>0</in>
											<out>2244</out>
											<alphatype>none</alphatype>
											<file id="file-118"/>
											<link>
												<linkclipref>clipitem-1129</linkclipref>
												<mediatype>video</mediatype>
												<trackindex>1</trackindex>
												<clipindex>1</clipindex>
											</link>
											<link>
												<linkclipref>clipitem-1132</linkclipref>
												<mediatype>audio</mediatype>
												<trackindex>1</trackindex>
												<clipindex>1</clipindex>
												<groupindex>1</groupindex>
											</link>
											<link>
												<linkclipref>clipitem-1133</linkclipref>
												<mediatype>audio</mediatype>
												<trackindex>2</trackindex>
												<clipindex>1</clipindex>
												<groupindex>1</groupindex>
											</link>
											<logginginfo>
												<description></description>
												<scene></scene>
												<shottake>AA0149</shottake>
												<lognote></lognote>
											</logginginfo>
											<labels>
												<label2>Iris</label2>
											</labels>
										</clipitem>
										<enabled>TRUE</enabled>
										<locked>FALSE</locked>
									</track>
									<track>
										<clipitem id="clipitem-1130" frameBlend="FALSE">
											<masterclipid>masterclip-132</masterclipid>
											<name>AA015001.MXF</name>
											<enabled>TRUE</enabled>
											<duration>300</duration>
											<rate>
												<timebase>25</timebase>
												<ntsc>FALSE</ntsc>
											</rate>
											<start>2366</start>
											<end>2666</end>
											<in>0</in>
											<out>300</out>
											<alphatype>none</alphatype>
											<file id="file-119"/>
											<link>
												<linkclipref>clipitem-1130</linkclipref>
												<mediatype>video</mediatype>
												<trackindex>2</trackindex>
												<clipindex>1</clipindex>
											</link>
											<link>
												<linkclipref>clipitem-1134</linkclipref>
												<mediatype>audio</mediatype>
												<trackindex>3</trackindex>
												<clipindex>1</clipindex>
												<groupindex>1</groupindex>
											</link>
											<link>
												<linkclipref>clipitem-1135</linkclipref>
												<mediatype>audio</mediatype>
												<trackindex>4</trackindex>
												<clipindex>1</clipindex>
												<groupindex>1</groupindex>
											</link>
											<logginginfo>
												<description></description>
												<scene></scene>
												<shottake>AA0150</shottake>
												<lognote></lognote>
											</logginginfo>
											<labels>
												<label2>Iris</label2>
											</labels>
										</clipitem>
										<enabled>TRUE</enabled>
										<locked>FALSE</locked>
									</track>
									<track>
										<clipitem id="clipitem-1131" frameBlend="FALSE">
											<masterclipid>masterclip-133</masterclipid>
											<name>MVI_0066.MOV</name>
											<enabled>TRUE</enabled>
											<duration>2525</duration>
											<rate>
												<timebase>25</timebase>
												<ntsc>FALSE</ntsc>
											</rate>
											<start>0</start>
											<end>2525</end>
											<in>0</in>
											<out>2525</out>
											<alphatype>black</alphatype>
											<file id="file-120"/>
											<link>
												<linkclipref>clipitem-1131</linkclipref>
												<mediatype>video</mediatype>
												<trackindex>3</trackindex>
												<clipindex>1</clipindex>
											</link>
											<link>
												<linkclipref>clipitem-1136</linkclipref>
												<mediatype>audio</mediatype>
												<trackindex>5</trackindex>
												<clipindex>1</clipindex>
												<groupindex>1</groupindex>
											</link>
											<link>
												<linkclipref>clipitem-1137</linkclipref>
												<mediatype>audio</mediatype>
												<trackindex>6</trackindex>
												<clipindex>1</clipindex>
												<groupindex>1</groupindex>
											</link>
											<logginginfo>
												<description></description>
												<scene></scene>
												<shottake></shottake>
												<lognote></lognote>
											</logginginfo>
											<labels>
												<label2>Iris</label2>
											</labels>
										</clipitem>
										<enabled>TRUE</enabled>
										<locked>FALSE</locked>
									</track>
								</video>
								<audio>
									<format>
										<samplecharacteristics>
											<depth>16</depth>
											<samplerate>48000</samplerate>
										</samplecharacteristics>
									</format>
									<outputs>
										<group>
											<index>1</index>
											<numchannels>1</numchannels>
											<downmix>0</downmix>
											<channel>
												<index>1</index>
											</channel>
										</group>
										<group>
											<index>2</index>
											<numchannels>1</numchannels>
											<downmix>0</downmix>
											<channel>
												<index>2</index>
											</channel>
										</group>
										<group>
											<index>3</index>
											<numchannels>1</numchannels>
											<downmix>0</downmix>
											<channel>
												<index>3</index>
											</channel>
										</group>
										<group>
											<index>4</index>
											<numchannels>1</numchannels>
											<downmix>0</downmix>
											<channel>
												<index>4</index>
											</channel>
										</group>
										<group>
											<index>5</index>
											<numchannels>1</numchannels>
											<downmix>0</downmix>
											<channel>
												<index>5</index>
											</channel>
										</group>
										<group>
											<index>6</index>
											<numchannels>1</numchannels>
											<downmix>0</downmix>
											<channel>
												<index>6</index>
											</channel>
										</group>
									</outputs>
									<track TL.SQTrackExpandedHeight="25" TL.SQTrackExpanded="0" MZ.TrackTargeted="1" PannerCurrentValue="0.5" PannerIsInverted="true" PannerStartKeyframe="-91445760000000000,0.5,0,0,0,0,0,0" PannerName="Balance" currentExplodedTrackIndex="0" totalExplodedTrackCount="2" premiereTrackType="Stereo">
										<clipitem id="clipitem-1132" frameBlend="FALSE" PannerCurrentValue="0.5" PannerKeyframes="" PannerStartKeyframe="-91445760000000000,0.5,0,0,0,0,0,0" PannerIsInverted="true" PannerName="Balance">
											<masterclipid>masterclip-131</masterclipid>
											<name>AA014901.MXF</name>
											<enabled>TRUE</enabled>
											<duration>2244</duration>
											<rate>
												<timebase>25</timebase>
												<ntsc>FALSE</ntsc>
											</rate>
											<start>55</start>
											<end>2299</end>
											<in>0</in>
											<out>2244</out>
											<file id="file-118"/>
											<sourcetrack>
												<mediatype>audio</mediatype>
												<trackindex>1</trackindex>
											</sourcetrack>
												<filter>
													<effect>
														<name>Audio Pan</name>
														<effectid>audiopan</effectid>
														<effectcategory>audiopan</effectcategory>
														<effecttype>audiopan</effecttype>
														<mediatype>audio</mediatype>
														<parameter authoringApp="PremierePro">
															<parameterid>pan</parameterid>
															<name>Pan</name>
															<valuemin>-1</valuemin>
															<valuemax>1</valuemax>
															<value>0</value>
														</parameter>
													</effect>
												</filter>
											<link>
												<linkclipref>clipitem-1129</linkclipref>
												<mediatype>video</mediatype>
												<trackindex>1</trackindex>
												<clipindex>1</clipindex>
											</link>
											<link>
												<linkclipref>clipitem-1132</linkclipref>
												<mediatype>audio</mediatype>
												<trackindex>1</trackindex>
												<clipindex>1</clipindex>
												<groupindex>1</groupindex>
											</link>
											<link>
												<linkclipref>clipitem-1133</linkclipref>
												<mediatype>audio</mediatype>
												<trackindex>2</trackindex>
												<clipindex>1</clipindex>
												<groupindex>1</groupindex>
											</link>
											<logginginfo>
												<description></description>
												<scene></scene>
												<shottake>AA0149</shottake>
												<lognote></lognote>
											</logginginfo>
											<labels>
												<label2>Iris</label2>
											</labels>
										</clipitem>
										<enabled>TRUE</enabled>
										<locked>FALSE</locked>
										<outputchannelindex>1</outputchannelindex>
									</track>
									<track TL.SQTrackExpandedHeight="25" TL.SQTrackExpanded="0" MZ.TrackTargeted="1" PannerCurrentValue="0.5" PannerIsInverted="true" PannerStartKeyframe="-91445760000000000,0.5,0,0,0,0,0,0" PannerName="Balance" currentExplodedTrackIndex="1" totalExplodedTrackCount="2" premiereTrackType="Stereo">
										<clipitem id="clipitem-1133" frameBlend="FALSE" PannerCurrentValue="0.5" PannerKeyframes="" PannerStartKeyframe="-91445760000000000,0.5,0,0,0,0,0,0" PannerIsInverted="true" PannerName="Balance">
											<masterclipid>masterclip-131</masterclipid>
											<name>AA014901.MXF</name>
											<enabled>TRUE</enabled>
											<duration>2244</duration>
											<rate>
												<timebase>25</timebase>
												<ntsc>FALSE</ntsc>
											</rate>
											<start>55</start>
											<end>2299</end>
											<in>0</in>
											<out>2244</out>
											<file id="file-118"/>
											<sourcetrack>
												<mediatype>audio</mediatype>
												<trackindex>2</trackindex>
											</sourcetrack>
												<filter>
													<effect>
														<name>Audio Pan</name>
														<effectid>audiopan</effectid>
														<effectcategory>audiopan</effectcategory>
														<effecttype>audiopan</effecttype>
														<mediatype>audio</mediatype>
														<parameter authoringApp="PremierePro">
															<parameterid>pan</parameterid>
															<name>Pan</name>
															<valuemin>-1</valuemin>
															<valuemax>1</valuemax>
															<value>0</value>
														</parameter>
													</effect>
												</filter>
											<link>
												<linkclipref>clipitem-1129</linkclipref>
												<mediatype>video</mediatype>
												<trackindex>1</trackindex>
												<clipindex>1</clipindex>
											</link>
											<link>
												<linkclipref>clipitem-1132</linkclipref>
												<mediatype>audio</mediatype>
												<trackindex>1</trackindex>
												<clipindex>1</clipindex>
												<groupindex>1</groupindex>
											</link>
											<link>
												<linkclipref>clipitem-1133</linkclipref>
												<mediatype>audio</mediatype>
												<trackindex>2</trackindex>
												<clipindex>1</clipindex>
												<groupindex>1</groupindex>
											</link>
											<logginginfo>
												<description></description>
												<scene></scene>
												<shottake>AA0149</shottake>
												<lognote></lognote>
											</logginginfo>
											<labels>
												<label2>Iris</label2>
											</labels>
										</clipitem>
										<enabled>TRUE</enabled>
										<locked>FALSE</locked>
										<outputchannelindex>2</outputchannelindex>
									</track>
									<track TL.SQTrackExpandedHeight="25" TL.SQTrackExpanded="0" MZ.TrackTargeted="1" PannerCurrentValue="0.5" PannerIsInverted="true" PannerStartKeyframe="-91445760000000000,0.5,0,0,0,0,0,0" PannerName="Balance" currentExplodedTrackIndex="0" totalExplodedTrackCount="2" premiereTrackType="Stereo">
										<clipitem id="clipitem-1134" frameBlend="FALSE" PannerCurrentValue="0.5" PannerKeyframes="" PannerStartKeyframe="-91445760000000000,0.5,0,0,0,0,0,0" PannerIsInverted="true" PannerName="Balance">
											<masterclipid>masterclip-132</masterclipid>
											<name>AA015001.MXF</name>
											<enabled>TRUE</enabled>
											<duration>300</duration>
											<rate>
												<timebase>25</timebase>
												<ntsc>FALSE</ntsc>
											</rate>
											<start>2366</start>
											<end>2666</end>
											<in>0</in>
											<out>300</out>
											<file id="file-119"/>
											<sourcetrack>
												<mediatype>audio</mediatype>
												<trackindex>1</trackindex>
											</sourcetrack>
												<filter>
													<effect>
														<name>Audio Pan</name>
														<effectid>audiopan</effectid>
														<effectcategory>audiopan</effectcategory>
														<effecttype>audiopan</effecttype>
														<mediatype>audio</mediatype>
														<parameter authoringApp="PremierePro">
															<parameterid>pan</parameterid>
															<name>Pan</name>
															<valuemin>-1</valuemin>
															<valuemax>1</valuemax>
															<value>0</value>
														</parameter>
													</effect>
												</filter>
											<link>
												<linkclipref>clipitem-1130</linkclipref>
												<mediatype>video</mediatype>
												<trackindex>2</trackindex>
												<clipindex>1</clipindex>
											</link>
											<link>
												<linkclipref>clipitem-1134</linkclipref>
												<mediatype>audio</mediatype>
												<trackindex>3</trackindex>
												<clipindex>1</clipindex>
												<groupindex>1</groupindex>
											</link>
											<link>
												<linkclipref>clipitem-1135</linkclipref>
												<mediatype>audio</mediatype>
												<trackindex>4</trackindex>
												<clipindex>1</clipindex>
												<groupindex>1</groupindex>
											</link>
											<logginginfo>
												<description></description>
												<scene></scene>
												<shottake>AA0150</shottake>
												<lognote></lognote>
											</logginginfo>
											<labels>
												<label2>Iris</label2>
											</labels>
										</clipitem>
										<enabled>TRUE</enabled>
										<locked>FALSE</locked>
										<outputchannelindex>3</outputchannelindex>
									</track>
									<track TL.SQTrackExpandedHeight="25" TL.SQTrackExpanded="0" MZ.TrackTargeted="1" PannerCurrentValue="0.5" PannerIsInverted="true" PannerStartKeyframe="-91445760000000000,0.5,0,0,0,0,0,0" PannerName="Balance" currentExplodedTrackIndex="1" totalExplodedTrackCount="2" premiereTrackType="Stereo">
										<clipitem id="clipitem-1135" frameBlend="FALSE" PannerCurrentValue="0.5" PannerKeyframes="" PannerStartKeyframe="-91445760000000000,0.5,0,0,0,0,0,0" PannerIsInverted="true" PannerName="Balance">
											<masterclipid>masterclip-132</masterclipid>
											<name>AA015001.MXF</name>
											<enabled>TRUE</enabled>
											<duration>300</duration>
											<rate>
												<timebase>25</timebase>
												<ntsc>FALSE</ntsc>
											</rate>
											<start>2366</start>
											<end>2666</end>
											<in>0</in>
											<out>300</out>
											<file id="file-119"/>
											<sourcetrack>
												<mediatype>audio</mediatype>
												<trackindex>2</trackindex>
											</sourcetrack>
												<filter>
													<effect>
														<name>Audio Pan</name>
														<effectid>audiopan</effectid>
														<effectcategory>audiopan</effectcategory>
														<effecttype>audiopan</effecttype>
														<mediatype>audio</mediatype>
														<parameter authoringApp="PremierePro">
															<parameterid>pan</parameterid>
															<name>Pan</name>
															<valuemin>-1</valuemin>
															<valuemax>1</valuemax>
															<value>0</value>
														</parameter>
													</effect>
												</filter>
											<link>
												<linkclipref>clipitem-1130</linkclipref>
												<mediatype>video</mediatype>
												<trackindex>2</trackindex>
												<clipindex>1</clipindex>
											</link>
											<link>
												<linkclipref>clipitem-1134</linkclipref>
												<mediatype>audio</mediatype>
												<trackindex>3</trackindex>
												<clipindex>1</clipindex>
												<groupindex>1</groupindex>
											</link>
											<link>
												<linkclipref>clipitem-1135</linkclipref>
												<mediatype>audio</mediatype>
												<trackindex>4</trackindex>
												<clipindex>1</clipindex>
												<groupindex>1</groupindex>
											</link>
											<logginginfo>
												<description></description>
												<scene></scene>
												<shottake>AA0150</shottake>
												<lognote></lognote>
											</logginginfo>
											<labels>
												<label2>Iris</label2>
											</labels>
										</clipitem>
										<enabled>TRUE</enabled>
										<locked>FALSE</locked>
										<outputchannelindex>4</outputchannelindex>
									</track>
									<track TL.SQTrackExpandedHeight="25" TL.SQTrackExpanded="0" MZ.TrackTargeted="1" PannerCurrentValue="0.5" PannerIsInverted="true" PannerStartKeyframe="-91445760000000000,0.5,0,0,0,0,0,0" PannerName="Balance" currentExplodedTrackIndex="0" totalExplodedTrackCount="2" premiereTrackType="Stereo">
										<clipitem id="clipitem-1136" frameBlend="FALSE" PannerCurrentValue="0.5" PannerKeyframes="" PannerStartKeyframe="-91445760000000000,0.5,0,0,0,0,0,0" PannerIsInverted="true" PannerName="Balance">
											<masterclipid>masterclip-133</masterclipid>
											<name>MVI_0066.MOV</name>
											<enabled>TRUE</enabled>
											<duration>2525</duration>
											<rate>
												<timebase>25</timebase>
												<ntsc>FALSE</ntsc>
											</rate>
											<start>0</start>
											<end>2525</end>
											<in>0</in>
											<out>2525</out>
											<file id="file-120"/>
											<sourcetrack>
												<mediatype>audio</mediatype>
												<trackindex>1</trackindex>
											</sourcetrack>
												<filter>
													<effect>
														<name>Audio Pan</name>
														<effectid>audiopan</effectid>
														<effectcategory>audiopan</effectcategory>
														<effecttype>audiopan</effecttype>
														<mediatype>audio</mediatype>
														<parameter authoringApp="PremierePro">
															<parameterid>pan</parameterid>
															<name>Pan</name>
															<valuemin>-1</valuemin>
															<valuemax>1</valuemax>
															<value>0</value>
														</parameter>
													</effect>
												</filter>
											<link>
												<linkclipref>clipitem-1131</linkclipref>
												<mediatype>video</mediatype>
												<trackindex>3</trackindex>
												<clipindex>1</clipindex>
											</link>
											<link>
												<linkclipref>clipitem-1136</linkclipref>
												<mediatype>audio</mediatype>
												<trackindex>5</trackindex>
												<clipindex>1</clipindex>
												<groupindex>1</groupindex>
											</link>
											<link>
												<linkclipref>clipitem-1137</linkclipref>
												<mediatype>audio</mediatype>
												<trackindex>6</trackindex>
												<clipindex>1</clipindex>
												<groupindex>1</groupindex>
											</link>
											<logginginfo>
												<description></description>
												<scene></scene>
												<shottake></shottake>
												<lognote></lognote>
											</logginginfo>
											<labels>
												<label2>Iris</label2>
											</labels>
										</clipitem>
										<enabled>TRUE</enabled>
										<locked>FALSE</locked>
										<outputchannelindex>5</outputchannelindex>
									</track>
									<track TL.SQTrackExpandedHeight="25" TL.SQTrackExpanded="0" MZ.TrackTargeted="1" PannerCurrentValue="0.5" PannerIsInverted="true" PannerStartKeyframe="-91445760000000000,0.5,0,0,0,0,0,0" PannerName="Balance" currentExplodedTrackIndex="1" totalExplodedTrackCount="2" premiereTrackType="Stereo">
										<clipitem id="clipitem-1137" frameBlend="FALSE" PannerCurrentValue="0.5" PannerKeyframes="" PannerStartKeyframe="-91445760000000000,0.5,0,0,0,0,0,0" PannerIsInverted="true" PannerName="Balance">
											<masterclipid>masterclip-133</masterclipid>
											<name>MVI_0066.MOV</name>
											<enabled>TRUE</enabled>
											<duration>2525</duration>
											<rate>
												<timebase>25</timebase>
												<ntsc>FALSE</ntsc>
											</rate>
											<start>0</start>
											<end>2525</end>
											<in>0</in>
											<out>2525</out>
											<file id="file-120"/>
											<sourcetrack>
												<mediatype>audio</mediatype>
												<trackindex>2</trackindex>
											</sourcetrack>
												<filter>
													<effect>
														<name>Audio Pan</name>
														<effectid>audiopan</effectid>
														<effectcategory>audiopan</effectcategory>
														<effecttype>audiopan</effecttype>
														<mediatype>audio</mediatype>
														<parameter authoringApp="PremierePro">
															<parameterid>pan</parameterid>
															<name>Pan</name>
															<valuemin>-1</valuemin>
															<valuemax>1</valuemax>
															<value>0</value>
														</parameter>
													</effect>
												</filter>
											<link>
												<linkclipref>clipitem-1131</linkclipref>
												<mediatype>video</mediatype>
												<trackindex>3</trackindex>
												<clipindex>1</clipindex>
											</link>
											<link>
												<linkclipref>clipitem-1136</linkclipref>
												<mediatype>audio</mediatype>
												<trackindex>5</trackindex>
												<clipindex>1</clipindex>
												<groupindex>1</groupindex>
											</link>
											<link>
												<linkclipref>clipitem-1137</linkclipref>
												<mediatype>audio</mediatype>
												<trackindex>6</trackindex>
												<clipindex>1</clipindex>
												<groupindex>1</groupindex>
											</link>
											<logginginfo>
												<description></description>
												<scene></scene>
												<shottake></shottake>
												<lognote></lognote>
											</logginginfo>
											<labels>
												<label2>Iris</label2>
											</labels>
										</clipitem>
										<enabled>TRUE</enabled>
										<locked>FALSE</locked>
										<outputchannelindex>6</outputchannelindex>
									</track>
								</audio>
							</media>
							<timecode>
								<rate>
									<timebase>25</timebase>
									<ntsc>FALSE</ntsc>
								</rate>
								<string>00:00:00:00</string>
								<frame>0</frame>
								<displayformat>NDF</displayformat>
							</timecode>
						</sequence>
							<filter>
								<effect>
									<name>Audio Levels</name>
									<effectid>audiolevels</effectid>
									<effectcategory>audiolevels</effectcategory>
									<effecttype>audiolevels</effecttype>
									<mediatype>audio</mediatype>
									<parameter authoringApp="PremierePro">
										<parameterid>level</parameterid>
										<name>Level</name>
										<valuemin>0</valuemin>
										<valuemax>3.98109</valuemax>
										<value>1.25594</value>
									</parameter>
								</effect>
							</filter>
						<link>
							<linkclipref>clipitem-1128</linkclipref>
							<mediatype>audio</mediatype>
							<trackindex>1</trackindex>
							<clipindex>88</clipindex>
						</link>
						<link>
							<linkclipref>clipitem-1424</linkclipref>
							<mediatype>audio</mediatype>
							<trackindex>3</trackindex>
							<clipindex>70</clipindex>
						</link>
						<labels>
							<label2>Forest</label2>
						</labels>
					</clipitem>
					<clipitem id="clipitem-1138" frameBlend="FALSE">
						<masterclipid>masterclip-130</masterclipid>
						<name>AA014901.MXFCowi varemesse multi</name>
						<enabled>TRUE</enabled>
						<duration>2666</duration>
						<rate>
							<timebase>25</timebase>
							<ntsc>FALSE</ntsc>
						</rate>
						<start>20823</start>
						<end>20949</end>
						<in>131</in>
						<out>257</out>
						<sequence id="sequence-117"/>
							<filter>
								<effect>
									<name>Audio Levels</name>
									<effectid>audiolevels</effectid>
									<effectcategory>audiolevels</effectcategory>
									<effecttype>audiolevels</effecttype>
									<mediatype>audio</mediatype>
									<parameter authoringApp="PremierePro">
										<parameterid>level</parameterid>
										<name>Level</name>
										<valuemin>0</valuemin>
										<valuemax>3.98109</valuemax>
										<value>1.25594</value>
									</parameter>
								</effect>
							</filter>
						<link>
							<linkclipref>clipitem-644</linkclipref>
							<mediatype>video</mediatype>
							<trackindex>1</trackindex>
							<clipindex>180</clipindex>
						</link>
						<link>
							<linkclipref>clipitem-1138</linkclipref>
							<mediatype>audio</mediatype>
							<trackindex>1</trackindex>
							<clipindex>89</clipindex>
						</link>
						<link>
							<linkclipref>clipitem-1425</linkclipref>
							<mediatype>audio</mediatype>
							<trackindex>3</trackindex>
							<clipindex>71</clipindex>
						</link>
						<labels>
							<label2>Forest</label2>
						</labels>
					</clipitem>
					<clipitem id="clipitem-1139" frameBlend="FALSE">
						<masterclipid>masterclip-130</masterclipid>
						<name>AA014901.MXFCowi varemesse multi</name>
						<enabled>TRUE</enabled>
						<duration>2666</duration>
						<rate>
							<timebase>25</timebase>
							<ntsc>FALSE</ntsc>
						</rate>
						<start>20949</start>
						<end>21051</end>
						<in>1144</in>
						<out>1246</out>
						<sequence id="sequence-117"/>
							<filter>
								<effect>
									<name>Audio Levels</name>
									<effectid>audiolevels</effectid>
									<effectcategory>audiolevels</effectcategory>
									<effecttype>audiolevels</effecttype>
									<mediatype>audio</mediatype>
									<parameter authoringApp="PremierePro">
										<parameterid>level</parameterid>
										<name>Level</name>
										<valuemin>0</valuemin>
										<valuemax>3.98109</valuemax>
										<value>0.105014</value>
										<keyframe>
											<when>1259</when>
											<value>0.105014</value>
										</keyframe>
										<keyframe>
											<when>1269</when>
											<value>0.99763</value>
										</keyframe>
									</parameter>
								</effect>
							</filter>
						<link>
							<linkclipref>clipitem-1139</linkclipref>
							<mediatype>audio</mediatype>
							<trackindex>1</trackindex>
							<clipindex>90</clipindex>
						</link>
						<link>
							<linkclipref>clipitem-1426</linkclipref>
							<mediatype>audio</mediatype>
							<trackindex>3</trackindex>
							<clipindex>72</clipindex>
						</link>
						<labels>
							<label2>Forest</label2>
						</labels>
					</clipitem>
					<clipitem id="clipitem-1140" frameBlend="FALSE">
						<masterclipid>masterclip-130</masterclipid>
						<name>AA014901.MXFCowi varemesse multi</name>
						<enabled>TRUE</enabled>
						<duration>2666</duration>
						<rate>
							<timebase>25</timebase>
							<ntsc>FALSE</ntsc>
						</rate>
						<start>21051</start>
						<end>21270</end>
						<in>1289</in>
						<out>1508</out>
						<sequence id="sequence-117"/>
							<filter>
								<effect>
									<name>Audio Levels</name>
									<effectid>audiolevels</effectid>
									<effectcategory>audiolevels</effectcategory>
									<effecttype>audiolevels</effecttype>
									<mediatype>audio</mediatype>
									<parameter authoringApp="PremierePro">
										<parameterid>level</parameterid>
										<name>Level</name>
										<valuemin>0</valuemin>
										<valuemax>3.98109</valuemax>
										<value>0.99763</value>
										<keyframe>
											<when>1259</when>
											<value>0.105014</value>
										</keyframe>
										<keyframe>
											<when>1269</when>
											<value>0.99763</value>
										</keyframe>
										<keyframe>
											<when>1289</when>
											<value>0.111173</value>
										</keyframe>
										<keyframe>
											<when>1312</when>
											<value>0.122516</value>
										</keyframe>
										<keyframe>
											<when>1316</when>
											<value>0.99763</value>
										</keyframe>
									</parameter>
								</effect>
							</filter>
						<link>
							<linkclipref>clipitem-1140</linkclipref>
							<mediatype>audio</mediatype>
							<trackindex>1</trackindex>
							<clipindex>91</clipindex>
						</link>
						<link>
							<linkclipref>clipitem-1427</linkclipref>
							<mediatype>audio</mediatype>
							<trackindex>3</trackindex>
							<clipindex>73</clipindex>
						</link>
						<labels>
							<label2>Forest</label2>
						</labels>
					</clipitem>
					<clipitem id="clipitem-1141" frameBlend="FALSE">
						<masterclipid>masterclip-130</masterclipid>
						<name>AA014901.MXFCowi varemesse multi</name>
						<enabled>TRUE</enabled>
						<duration>2666</duration>
						<rate>
							<timebase>25</timebase>
							<ntsc>FALSE</ntsc>
						</rate>
						<start>21270</start>
						<end>-1</end>
						<in>1507</in>
						<out>1509</out>
						<sequence id="sequence-117"/>
							<filter>
								<effect>
									<name>Audio Levels</name>
									<effectid>audiolevels</effectid>
									<effectcategory>audiolevels</effectcategory>
									<effecttype>audiolevels</effecttype>
									<mediatype>audio</mediatype>
									<parameter authoringApp="PremierePro">
										<parameterid>level</parameterid>
										<name>Level</name>
										<valuemin>0</valuemin>
										<valuemax>3.98109</valuemax>
										<value>1.25594</value>
									</parameter>
								</effect>
							</filter>
						<link>
							<linkclipref>clipitem-1141</linkclipref>
							<mediatype>audio</mediatype>
							<trackindex>1</trackindex>
							<clipindex>92</clipindex>
						</link>
						<link>
							<linkclipref>clipitem-1428</linkclipref>
							<mediatype>audio</mediatype>
							<trackindex>3</trackindex>
							<clipindex>74</clipindex>
						</link>
						<labels>
							<label2>Forest</label2>
						</labels>
					</clipitem>
					<transitionitem>
						<start>21270</start>
						<end>21272</end>
						<alignment>center</alignment>
						<cutPoint>0</cutPoint>
						<rate>
							<timebase>25</timebase>
							<ntsc>FALSE</ntsc>
						</rate>
						<effect>
							<name>Cross Fade (+3dB)</name>
							<effectid>KGAudioTransCrossFade3dB</effectid>
							<effecttype>transition</effecttype>
							<mediatype>audio</mediatype>
							<wipecode>0</wipecode>
							<wipeaccuracy>100</wipeaccuracy>
							<startratio>0</startratio>
							<endratio>1</endratio>
							<reverse>FALSE</reverse>
						</effect>
					</transitionitem>
					<clipitem id="clipitem-1142" frameBlend="FALSE">
						<masterclipid>masterclip-130</masterclipid>
						<name>AA014901.MXFCowi varemesse multi</name>
						<enabled>TRUE</enabled>
						<duration>2666</duration>
						<rate>
							<timebase>25</timebase>
							<ntsc>FALSE</ntsc>
						</rate>
						<start>-1</start>
						<end>21445</end>
						<in>1569</in>
						<out>1744</out>
						<sequence id="sequence-117"/>
							<filter>
								<effect>
									<name>Audio Levels</name>
									<effectid>audiolevels</effectid>
									<effectcategory>audiolevels</effectcategory>
									<effecttype>audiolevels</effecttype>
									<mediatype>audio</mediatype>
									<parameter authoringApp="PremierePro">
										<parameterid>level</parameterid>
										<name>Level</name>
										<valuemin>0</valuemin>
										<valuemax>3.98109</valuemax>
										<value>1.25594</value>
									</parameter>
								</effect>
							</filter>
						<link>
							<linkclipref>clipitem-659</linkclipref>
							<mediatype>video</mediatype>
							<trackindex>1</trackindex>
							<clipindex>186</clipindex>
						</link>
						<link>
							<linkclipref>clipitem-1142</linkclipref>
							<mediatype>audio</mediatype>
							<trackindex>1</trackindex>
							<clipindex>94</clipindex>
						</link>
						<link>
							<linkclipref>clipitem-1429</linkclipref>
							<mediatype>audio</mediatype>
							<trackindex>3</trackindex>
							<clipindex>76</clipindex>
						</link>
						<labels>
							<label2>Forest</label2>
						</labels>
					</clipitem>
					<clipitem id="clipitem-1143" frameBlend="FALSE">
						<masterclipid>masterclip-138</masterclipid>
						<name>AA015201.MXFCowi varemesse multi</name>
						<enabled>TRUE</enabled>
						<duration>8314</duration>
						<rate>
							<timebase>25</timebase>
							<ntsc>FALSE</ntsc>
						</rate>
						<start>21830</start>
						<end>22114</end>
						<in>2370</in>
						<out>2654</out>
						<sequence id="sequence-118" TL.SQAudioVisibleBase="0" TL.SQVideoVisibleBase="0" TL.SQVisibleBaseTime="0" TL.SQAVDividerPosition="0.5" TL.SQHideShyTracks="0" TL.SQHeaderWidth="188" Monitor.ProgramZoomOut="10282567680000" Monitor.ProgramZoomIn="10241925120000" TL.SQTimePerPixel="0.40391162075413311605132093973" AM.TrackVScrollPosition="0" AM.TrackScrollPosition="0" MZ.EditLine="10262246400000" MZ.Sequence.PreviewFrameSizeHeight="1080" MZ.Sequence.PreviewFrameSizeWidth="1920" MZ.Sequence.AudioTimeDisplayFormat="200" MZ.Sequence.PreviewRenderingClassID="1297106761" MZ.Sequence.PreviewRenderingPresetCodec="1297107278" MZ.Sequence.PreviewRenderingPresetPath="EncoderPresets/SequencePreview/795454d9-d3c2-429d-9474-923ab13b7018/I-Frame Only MPEG.epr" MZ.Sequence.PreviewUseMaxRenderQuality="false" MZ.Sequence.PreviewUseMaxBitDepth="false" MZ.Sequence.EditingModeGUID="795454d9-d3c2-429d-9474-923ab13b7018" MZ.Sequence.VideoTimeDisplayFormat="101" MZ.WorkOutPoint="15240960000000" MZ.WorkInPoint="0">
							<duration>8314</duration>
							<rate>
								<timebase>25</timebase>
								<ntsc>FALSE</ntsc>
							</rate>
							<name>AA015201.MXFCowi varemesse multi</name>
							<media>
								<video>
									<format>
										<samplecharacteristics>
											<rate>
												<timebase>25</timebase>
												<ntsc>FALSE</ntsc>
											</rate>
											<codec>
												<name>Apple ProRes 422</name>
												<appspecificdata>
													<appname>Final Cut Pro</appname>
													<appmanufacturer>Apple Inc.</appmanufacturer>
													<appversion>7.0</appversion>
													<data>
														<qtcodec>
															<codecname>Apple ProRes 422</codecname>
															<codectypename>Apple ProRes 422</codectypename>
															<codectypecode>apcn</codectypecode>
															<codecvendorcode>appl</codecvendorcode>
															<spatialquality>1024</spatialquality>
															<temporalquality>0</temporalquality>
															<keyframerate>0</keyframerate>
															<datarate>0</datarate>
														</qtcodec>
													</data>
												</appspecificdata>
											</codec>
											<width>1920</width>
											<height>1080</height>
											<anamorphic>FALSE</anamorphic>
											<pixelaspectratio>square</pixelaspectratio>
											<fielddominance>none</fielddominance>
											<colordepth>24</colordepth>
										</samplecharacteristics>
									</format>
									<track TL.SQTrackShy="0" TL.SQTrackExpandedHeight="25" TL.SQTrackExpanded="0" MZ.TrackTargeted="0">
										<clipitem id="clipitem-1144" frameBlend="FALSE">
											<masterclipid>masterclip-139</masterclipid>
											<name>AA015201.MXF</name>
											<enabled>TRUE</enabled>
											<duration>8268</duration>
											<rate>
												<timebase>25</timebase>
												<ntsc>FALSE</ntsc>
											</rate>
											<start>46</start>
											<end>8314</end>
											<in>0</in>
											<out>8268</out>
											<alphatype>none</alphatype>
											<file id="file-125"/>
											<link>
												<linkclipref>clipitem-1144</linkclipref>
												<mediatype>video</mediatype>
												<trackindex>1</trackindex>
												<clipindex>1</clipindex>
											</link>
											<link>
												<linkclipref>clipitem-1146</linkclipref>
												<mediatype>audio</mediatype>
												<trackindex>1</trackindex>
												<clipindex>1</clipindex>
												<groupindex>1</groupindex>
											</link>
											<logginginfo>
												<description></description>
												<scene></scene>
												<shottake>AA0152</shottake>
												<lognote></lognote>
											</logginginfo>
											<labels>
												<label2>Iris</label2>
											</labels>
										</clipitem>
										<enabled>TRUE</enabled>
										<locked>FALSE</locked>
									</track>
									<track TL.SQTrackShy="0" TL.SQTrackExpandedHeight="25" TL.SQTrackExpanded="0" MZ.TrackTargeted="0">
										<clipitem id="clipitem-1145" frameBlend="FALSE">
											<masterclipid>masterclip-140</masterclipid>
											<name>MVI_0069.MOV</name>
											<enabled>TRUE</enabled>
											<duration>8260</duration>
											<rate>
												<timebase>25</timebase>
												<ntsc>FALSE</ntsc>
											</rate>
											<start>0</start>
											<end>8260</end>
											<in>0</in>
											<out>8260</out>
											<alphatype>black</alphatype>
											<file id="file-126"/>
											<link>
												<linkclipref>clipitem-1145</linkclipref>
												<mediatype>video</mediatype>
												<trackindex>2</trackindex>
												<clipindex>1</clipindex>
											</link>
											<link>
												<linkclipref>clipitem-1147</linkclipref>
												<mediatype>audio</mediatype>
												<trackindex>2</trackindex>
												<clipindex>1</clipindex>
												<groupindex>1</groupindex>
											</link>
											<link>
												<linkclipref>clipitem-1148</linkclipref>
												<mediatype>audio</mediatype>
												<trackindex>3</trackindex>
												<clipindex>1</clipindex>
												<groupindex>1</groupindex>
											</link>
											<logginginfo>
												<description></description>
												<scene></scene>
												<shottake></shottake>
												<lognote></lognote>
											</logginginfo>
											<labels>
												<label2>Iris</label2>
											</labels>
										</clipitem>
										<enabled>TRUE</enabled>
										<locked>FALSE</locked>
									</track>
								</video>
								<audio>
									<format>
										<samplecharacteristics>
											<depth>16</depth>
											<samplerate>48000</samplerate>
										</samplecharacteristics>
									</format>
									<outputs>
										<group>
											<index>1</index>
											<numchannels>1</numchannels>
											<downmix>0</downmix>
											<channel>
												<index>1</index>
											</channel>
										</group>
										<group>
											<index>2</index>
											<numchannels>1</numchannels>
											<downmix>0</downmix>
											<channel>
												<index>2</index>
											</channel>
										</group>
										<group>
											<index>3</index>
											<numchannels>1</numchannels>
											<downmix>0</downmix>
											<channel>
												<index>3</index>
											</channel>
										</group>
										<group>
											<index>4</index>
											<numchannels>1</numchannels>
											<downmix>0</downmix>
											<channel>
												<index>4</index>
											</channel>
										</group>
									</outputs>
									<track TL.SQTrackAudioKeyframeStyle="0" TL.SQTrackShy="0" TL.SQTrackExpandedHeight="87" TL.SQTrackExpanded="1" MZ.TrackTargeted="1" PannerCurrentValue="0.5" PannerIsInverted="true" PannerStartKeyframe="-91445760000000000,0.5,0,0,0,0,0,0" PannerName="Balance" currentExplodedTrackIndex="0" totalExplodedTrackCount="1" premiereTrackType="Stereo">
										<clipitem id="clipitem-1146" frameBlend="FALSE" PannerCurrentValue="0.5" PannerKeyframes="" PannerStartKeyframe="-91445760000000000,0.5,0,0,0,0,0,0" PannerIsInverted="true" PannerName="Balance">
											<masterclipid>masterclip-139</masterclipid>
											<name>AA015201.MXF</name>
											<enabled>TRUE</enabled>
											<duration>8268</duration>
											<rate>
												<timebase>25</timebase>
												<ntsc>FALSE</ntsc>
											</rate>
											<start>46</start>
											<end>8314</end>
											<in>0</in>
											<out>8268</out>
											<file id="file-125"/>
											<sourcetrack>
												<mediatype>audio</mediatype>
												<trackindex>1</trackindex>
											</sourcetrack>
												<filter>
													<effect>
														<name>Audio Pan</name>
														<effectid>audiopan</effectid>
														<effectcategory>audiopan</effectcategory>
														<effecttype>audiopan</effecttype>
														<mediatype>audio</mediatype>
														<parameter authoringApp="PremierePro">
															<parameterid>pan</parameterid>
															<name>Pan</name>
															<valuemin>-1</valuemin>
															<valuemax>1</valuemax>
															<value>0</value>
														</parameter>
													</effect>
												</filter>
											<link>
												<linkclipref>clipitem-1144</linkclipref>
												<mediatype>video</mediatype>
												<trackindex>1</trackindex>
												<clipindex>1</clipindex>
											</link>
											<link>
												<linkclipref>clipitem-1146</linkclipref>
												<mediatype>audio</mediatype>
												<trackindex>1</trackindex>
												<clipindex>1</clipindex>
												<groupindex>1</groupindex>
											</link>
											<logginginfo>
												<description></description>
												<scene></scene>
												<shottake>AA0152</shottake>
												<lognote></lognote>
											</logginginfo>
											<labels>
												<label2>Iris</label2>
											</labels>
										</clipitem>
										<enabled>TRUE</enabled>
										<locked>FALSE</locked>
										<outputchannelindex>1</outputchannelindex>
									</track>
									<track TL.SQTrackAudioKeyframeStyle="0" TL.SQTrackShy="0" TL.SQTrackExpandedHeight="25" TL.SQTrackExpanded="0" MZ.TrackTargeted="1" PannerCurrentValue="0.5" PannerIsInverted="true" PannerStartKeyframe="-91445760000000000,0.5,0,0,0,0,0,0" PannerName="Balance" currentExplodedTrackIndex="0" totalExplodedTrackCount="2" premiereTrackType="Stereo">
										<clipitem id="clipitem-1147" frameBlend="FALSE" PannerCurrentValue="0.5" PannerKeyframes="" PannerStartKeyframe="-91445760000000000,0.5,0,0,0,0,0,0" PannerIsInverted="true" PannerName="Balance">
											<masterclipid>masterclip-140</masterclipid>
											<name>MVI_0069.MOV</name>
											<enabled>TRUE</enabled>
											<duration>8260</duration>
											<rate>
												<timebase>25</timebase>
												<ntsc>FALSE</ntsc>
											</rate>
											<start>0</start>
											<end>8260</end>
											<in>0</in>
											<out>8260</out>
											<file id="file-126"/>
											<sourcetrack>
												<mediatype>audio</mediatype>
												<trackindex>1</trackindex>
											</sourcetrack>
												<filter>
													<effect>
														<name>Audio Pan</name>
														<effectid>audiopan</effectid>
														<effectcategory>audiopan</effectcategory>
														<effecttype>audiopan</effecttype>
														<mediatype>audio</mediatype>
														<parameter authoringApp="PremierePro">
															<parameterid>pan</parameterid>
															<name>Pan</name>
															<valuemin>-1</valuemin>
															<valuemax>1</valuemax>
															<value>0</value>
														</parameter>
													</effect>
												</filter>
											<link>
												<linkclipref>clipitem-1145</linkclipref>
												<mediatype>video</mediatype>
												<trackindex>2</trackindex>
												<clipindex>1</clipindex>
											</link>
											<link>
												<linkclipref>clipitem-1147</linkclipref>
												<mediatype>audio</mediatype>
												<trackindex>2</trackindex>
												<clipindex>1</clipindex>
												<groupindex>1</groupindex>
											</link>
											<link>
												<linkclipref>clipitem-1148</linkclipref>
												<mediatype>audio</mediatype>
												<trackindex>3</trackindex>
												<clipindex>1</clipindex>
												<groupindex>1</groupindex>
											</link>
											<logginginfo>
												<description></description>
												<scene></scene>
												<shottake></shottake>
												<lognote></lognote>
											</logginginfo>
											<labels>
												<label2>Iris</label2>
											</labels>
										</clipitem>
										<enabled>FALSE</enabled>
										<locked>FALSE</locked>
										<outputchannelindex>2</outputchannelindex>
									</track>
									<track TL.SQTrackAudioKeyframeStyle="0" TL.SQTrackShy="0" TL.SQTrackExpandedHeight="25" TL.SQTrackExpanded="0" MZ.TrackTargeted="1" PannerCurrentValue="0.5" PannerIsInverted="true" PannerStartKeyframe="-91445760000000000,0.5,0,0,0,0,0,0" PannerName="Balance" currentExplodedTrackIndex="1" totalExplodedTrackCount="2" premiereTrackType="Stereo">
										<clipitem id="clipitem-1148" frameBlend="FALSE" PannerCurrentValue="0.5" PannerKeyframes="" PannerStartKeyframe="-91445760000000000,0.5,0,0,0,0,0,0" PannerIsInverted="true" PannerName="Balance">
											<masterclipid>masterclip-140</masterclipid>
											<name>MVI_0069.MOV</name>
											<enabled>TRUE</enabled>
											<duration>8260</duration>
											<rate>
												<timebase>25</timebase>
												<ntsc>FALSE</ntsc>
											</rate>
											<start>0</start>
											<end>8260</end>
											<in>0</in>
											<out>8260</out>
											<file id="file-126"/>
											<sourcetrack>
												<mediatype>audio</mediatype>
												<trackindex>2</trackindex>
											</sourcetrack>
												<filter>
													<effect>
														<name>Audio Pan</name>
														<effectid>audiopan</effectid>
														<effectcategory>audiopan</effectcategory>
														<effecttype>audiopan</effecttype>
														<mediatype>audio</mediatype>
														<parameter authoringApp="PremierePro">
															<parameterid>pan</parameterid>
															<name>Pan</name>
															<valuemin>-1</valuemin>
															<valuemax>1</valuemax>
															<value>0</value>
														</parameter>
													</effect>
												</filter>
											<link>
												<linkclipref>clipitem-1145</linkclipref>
												<mediatype>video</mediatype>
												<trackindex>2</trackindex>
												<clipindex>1</clipindex>
											</link>
											<link>
												<linkclipref>clipitem-1147</linkclipref>
												<mediatype>audio</mediatype>
												<trackindex>2</trackindex>
												<clipindex>1</clipindex>
												<groupindex>1</groupindex>
											</link>
											<link>
												<linkclipref>clipitem-1148</linkclipref>
												<mediatype>audio</mediatype>
												<trackindex>3</trackindex>
												<clipindex>1</clipindex>
												<groupindex>1</groupindex>
											</link>
											<logginginfo>
												<description></description>
												<scene></scene>
												<shottake></shottake>
												<lognote></lognote>
											</logginginfo>
											<labels>
												<label2>Iris</label2>
											</labels>
										</clipitem>
										<enabled>FALSE</enabled>
										<locked>FALSE</locked>
										<outputchannelindex>3</outputchannelindex>
									</track>
								</audio>
							</media>
							<timecode>
								<rate>
									<timebase>25</timebase>
									<ntsc>FALSE</ntsc>
								</rate>
								<string>00:00:00:00</string>
								<frame>0</frame>
								<displayformat>NDF</displayformat>
							</timecode>
						</sequence>
							<filter>
								<effect>
									<name>Audio Levels</name>
									<effectid>audiolevels</effectid>
									<effectcategory>audiolevels</effectcategory>
									<effecttype>audiolevels</effecttype>
									<mediatype>audio</mediatype>
									<parameter authoringApp="PremierePro">
										<parameterid>level</parameterid>
										<name>Level</name>
										<valuemin>0</valuemin>
										<valuemax>3.98109</valuemax>
										<value>0.99763</value>
										<keyframe>
											<when>2352</when>
											<value>0</value>
										</keyframe>
										<keyframe>
											<when>2359</when>
											<value>0.99763</value>
										</keyframe>
									</parameter>
								</effect>
							</filter>
							<marker>
								<comment></comment>
								<name></name>
								<in>2575</in>
								<out>-1</out>
							</marker>
						<labels>
							<label2>Forest</label2>
						</labels>
					</clipitem>
					<clipitem id="clipitem-1149" frameBlend="FALSE">
						<masterclipid>masterclip-141</masterclipid>
						<name>AA013501.MXFCowi varemesse multi</name>
						<enabled>TRUE</enabled>
						<duration>7968</duration>
						<rate>
							<timebase>25</timebase>
							<ntsc>FALSE</ntsc>
						</rate>
						<start>22114</start>
						<end>22169</end>
						<in>169</in>
						<out>224</out>
						<sequence id="sequence-119" MZ.Sequence.PreviewFrameSizeHeight="1080" MZ.Sequence.PreviewFrameSizeWidth="1920" MZ.Sequence.AudioTimeDisplayFormat="200" MZ.Sequence.PreviewRenderingClassID="1297106761" MZ.Sequence.PreviewRenderingPresetCodec="1297107278" MZ.Sequence.PreviewRenderingPresetPath="EncoderPresets/SequencePreview/795454d9-d3c2-429d-9474-923ab13b7018/I-Frame Only MPEG.epr" MZ.Sequence.PreviewUseMaxRenderQuality="false" MZ.Sequence.PreviewUseMaxBitDepth="false" MZ.Sequence.EditingModeGUID="795454d9-d3c2-429d-9474-923ab13b7018" MZ.Sequence.VideoTimeDisplayFormat="101" MZ.WorkOutPoint="15240960000000" MZ.WorkInPoint="0">
							<duration>7968</duration>
							<rate>
								<timebase>25</timebase>
								<ntsc>FALSE</ntsc>
							</rate>
							<name>AA013501.MXFCowi varemesse multi</name>
							<media>
								<video>
									<format>
										<samplecharacteristics>
											<rate>
												<timebase>25</timebase>
												<ntsc>FALSE</ntsc>
											</rate>
											<codec>
												<name>Apple ProRes 422</name>
												<appspecificdata>
													<appname>Final Cut Pro</appname>
													<appmanufacturer>Apple Inc.</appmanufacturer>
													<appversion>7.0</appversion>
													<data>
														<qtcodec>
															<codecname>Apple ProRes 422</codecname>
															<codectypename>Apple ProRes 422</codectypename>
															<codectypecode>apcn</codectypecode>
															<codecvendorcode>appl</codecvendorcode>
															<spatialquality>1024</spatialquality>
															<temporalquality>0</temporalquality>
															<keyframerate>0</keyframerate>
															<datarate>0</datarate>
														</qtcodec>
													</data>
												</appspecificdata>
											</codec>
											<width>1920</width>
											<height>1080</height>
											<anamorphic>FALSE</anamorphic>
											<pixelaspectratio>square</pixelaspectratio>
											<fielddominance>none</fielddominance>
											<colordepth>24</colordepth>
										</samplecharacteristics>
									</format>
									<track>
										<clipitem id="clipitem-1150" frameBlend="FALSE">
											<masterclipid>masterclip-142</masterclipid>
											<name>AA013501.MXF</name>
											<enabled>TRUE</enabled>
											<duration>7968</duration>
											<rate>
												<timebase>25</timebase>
												<ntsc>FALSE</ntsc>
											</rate>
											<start>0</start>
											<end>7968</end>
											<in>0</in>
											<out>7968</out>
											<alphatype>none</alphatype>
											<file id="file-127"/>
											<link>
												<linkclipref>clipitem-1150</linkclipref>
												<mediatype>video</mediatype>
												<trackindex>1</trackindex>
												<clipindex>1</clipindex>
											</link>
											<link>
												<linkclipref>clipitem-1153</linkclipref>
												<mediatype>audio</mediatype>
												<trackindex>1</trackindex>
												<clipindex>1</clipindex>
												<groupindex>1</groupindex>
											</link>
											<link>
												<linkclipref>clipitem-1154</linkclipref>
												<mediatype>audio</mediatype>
												<trackindex>2</trackindex>
												<clipindex>1</clipindex>
												<groupindex>1</groupindex>
											</link>
											<logginginfo>
												<description></description>
												<scene></scene>
												<shottake>AA0135</shottake>
												<lognote></lognote>
											</logginginfo>
											<labels>
												<label2>Iris</label2>
											</labels>
										</clipitem>
										<enabled>TRUE</enabled>
										<locked>FALSE</locked>
									</track>
									<track>
										<clipitem id="clipitem-1151" frameBlend="FALSE">
											<masterclipid>masterclip-143</masterclipid>
											<name>AA020201.MXF</name>
											<enabled>TRUE</enabled>
											<duration>408</duration>
											<rate>
												<timebase>25</timebase>
												<ntsc>FALSE</ntsc>
											</rate>
											<start>6234</start>
											<end>6642</end>
											<in>0</in>
											<out>408</out>
											<alphatype>none</alphatype>
											<file id="file-128"/>
											<link>
												<linkclipref>clipitem-1151</linkclipref>
												<mediatype>video</mediatype>
												<trackindex>2</trackindex>
												<clipindex>1</clipindex>
											</link>
											<link>
												<linkclipref>clipitem-1155</linkclipref>
												<mediatype>audio</mediatype>
												<trackindex>3</trackindex>
												<clipindex>1</clipindex>
												<groupindex>1</groupindex>
											</link>
											<link>
												<linkclipref>clipitem-1156</linkclipref>
												<mediatype>audio</mediatype>
												<trackindex>4</trackindex>
												<clipindex>1</clipindex>
												<groupindex>1</groupindex>
											</link>
											<logginginfo>
												<description></description>
												<scene></scene>
												<shottake>AA0202</shottake>
												<lognote></lognote>
											</logginginfo>
											<labels>
												<label2>Iris</label2>
											</labels>
										</clipitem>
										<enabled>TRUE</enabled>
										<locked>FALSE</locked>
									</track>
									<track>
										<clipitem id="clipitem-1152" frameBlend="FALSE">
											<masterclipid>masterclip-144</masterclipid>
											<name>MVI_0052.MOV</name>
											<enabled>TRUE</enabled>
											<duration>7779</duration>
											<rate>
												<timebase>25</timebase>
												<ntsc>FALSE</ntsc>
											</rate>
											<start>68</start>
											<end>7847</end>
											<in>0</in>
											<out>7779</out>
											<alphatype>black</alphatype>
											<file id="file-129"/>
											<link>
												<linkclipref>clipitem-1152</linkclipref>
												<mediatype>video</mediatype>
												<trackindex>3</trackindex>
												<clipindex>1</clipindex>
											</link>
											<link>
												<linkclipref>clipitem-1157</linkclipref>
												<mediatype>audio</mediatype>
												<trackindex>5</trackindex>
												<clipindex>1</clipindex>
												<groupindex>1</groupindex>
											</link>
											<link>
												<linkclipref>clipitem-1158</linkclipref>
												<mediatype>audio</mediatype>
												<trackindex>6</trackindex>
												<clipindex>1</clipindex>
												<groupindex>1</groupindex>
											</link>
											<logginginfo>
												<description></description>
												<scene></scene>
												<shottake></shottake>
												<lognote></lognote>
											</logginginfo>
											<labels>
												<label2>Iris</label2>
											</labels>
										</clipitem>
										<enabled>TRUE</enabled>
										<locked>FALSE</locked>
									</track>
								</video>
								<audio>
									<format>
										<samplecharacteristics>
											<depth>16</depth>
											<samplerate>48000</samplerate>
										</samplecharacteristics>
									</format>
									<outputs>
										<group>
											<index>1</index>
											<numchannels>1</numchannels>
											<downmix>0</downmix>
											<channel>
												<index>1</index>
											</channel>
										</group>
										<group>
											<index>2</index>
											<numchannels>1</numchannels>
											<downmix>0</downmix>
											<channel>
												<index>2</index>
											</channel>
										</group>
										<group>
											<index>3</index>
											<numchannels>1</numchannels>
											<downmix>0</downmix>
											<channel>
												<index>3</index>
											</channel>
										</group>
										<group>
											<index>4</index>
											<numchannels>1</numchannels>
											<downmix>0</downmix>
											<channel>
												<index>4</index>
											</channel>
										</group>
										<group>
											<index>5</index>
											<numchannels>1</numchannels>
											<downmix>0</downmix>
											<channel>
												<index>5</index>
											</channel>
										</group>
										<group>
											<index>6</index>
											<numchannels>1</numchannels>
											<downmix>0</downmix>
											<channel>
												<index>6</index>
											</channel>
										</group>
									</outputs>
									<track TL.SQTrackExpandedHeight="25" TL.SQTrackExpanded="0" MZ.TrackTargeted="1" PannerCurrentValue="0.5" PannerIsInverted="true" PannerStartKeyframe="-91445760000000000,0.5,0,0,0,0,0,0" PannerName="Balance" currentExplodedTrackIndex="0" totalExplodedTrackCount="2" premiereTrackType="Stereo">
										<clipitem id="clipitem-1153" frameBlend="FALSE" PannerCurrentValue="0.5" PannerKeyframes="" PannerStartKeyframe="-91445760000000000,0.5,0,0,0,0,0,0" PannerIsInverted="true" PannerName="Balance">
											<masterclipid>masterclip-142</masterclipid>
											<name>AA013501.MXF</name>
											<enabled>TRUE</enabled>
											<duration>7968</duration>
											<rate>
												<timebase>25</timebase>
												<ntsc>FALSE</ntsc>
											</rate>
											<start>0</start>
											<end>7968</end>
											<in>0</in>
											<out>7968</out>
											<file id="file-127"/>
											<sourcetrack>
												<mediatype>audio</mediatype>
												<trackindex>1</trackindex>
											</sourcetrack>
												<filter>
													<effect>
														<name>Audio Pan</name>
														<effectid>audiopan</effectid>
														<effectcategory>audiopan</effectcategory>
														<effecttype>audiopan</effecttype>
														<mediatype>audio</mediatype>
														<parameter authoringApp="PremierePro">
															<parameterid>pan</parameterid>
															<name>Pan</name>
															<valuemin>-1</valuemin>
															<valuemax>1</valuemax>
															<value>0</value>
														</parameter>
													</effect>
												</filter>
											<link>
												<linkclipref>clipitem-1150</linkclipref>
												<mediatype>video</mediatype>
												<trackindex>1</trackindex>
												<clipindex>1</clipindex>
											</link>
											<link>
												<linkclipref>clipitem-1153</linkclipref>
												<mediatype>audio</mediatype>
												<trackindex>1</trackindex>
												<clipindex>1</clipindex>
												<groupindex>1</groupindex>
											</link>
											<link>
												<linkclipref>clipitem-1154</linkclipref>
												<mediatype>audio</mediatype>
												<trackindex>2</trackindex>
												<clipindex>1</clipindex>
												<groupindex>1</groupindex>
											</link>
											<logginginfo>
												<description></description>
												<scene></scene>
												<shottake>AA0135</shottake>
												<lognote></lognote>
											</logginginfo>
											<labels>
												<label2>Iris</label2>
											</labels>
										</clipitem>
										<enabled>TRUE</enabled>
										<locked>FALSE</locked>
										<outputchannelindex>1</outputchannelindex>
									</track>
									<track TL.SQTrackExpandedHeight="25" TL.SQTrackExpanded="0" MZ.TrackTargeted="1" PannerCurrentValue="0.5" PannerIsInverted="true" PannerStartKeyframe="-91445760000000000,0.5,0,0,0,0,0,0" PannerName="Balance" currentExplodedTrackIndex="1" totalExplodedTrackCount="2" premiereTrackType="Stereo">
										<clipitem id="clipitem-1154" frameBlend="FALSE" PannerCurrentValue="0.5" PannerKeyframes="" PannerStartKeyframe="-91445760000000000,0.5,0,0,0,0,0,0" PannerIsInverted="true" PannerName="Balance">
											<masterclipid>masterclip-142</masterclipid>
											<name>AA013501.MXF</name>
											<enabled>TRUE</enabled>
											<duration>7968</duration>
											<rate>
												<timebase>25</timebase>
												<ntsc>FALSE</ntsc>
											</rate>
											<start>0</start>
											<end>7968</end>
											<in>0</in>
											<out>7968</out>
											<file id="file-127"/>
											<sourcetrack>
												<mediatype>audio</mediatype>
												<trackindex>2</trackindex>
											</sourcetrack>
												<filter>
													<effect>
														<name>Audio Pan</name>
														<effectid>audiopan</effectid>
														<effectcategory>audiopan</effectcategory>
														<effecttype>audiopan</effecttype>
														<mediatype>audio</mediatype>
														<parameter authoringApp="PremierePro">
															<parameterid>pan</parameterid>
															<name>Pan</name>
															<valuemin>-1</valuemin>
															<valuemax>1</valuemax>
															<value>0</value>
														</parameter>
													</effect>
												</filter>
											<link>
												<linkclipref>clipitem-1150</linkclipref>
												<mediatype>video</mediatype>
												<trackindex>1</trackindex>
												<clipindex>1</clipindex>
											</link>
											<link>
												<linkclipref>clipitem-1153</linkclipref>
												<mediatype>audio</mediatype>
												<trackindex>1</trackindex>
												<clipindex>1</clipindex>
												<groupindex>1</groupindex>
											</link>
											<link>
												<linkclipref>clipitem-1154</linkclipref>
												<mediatype>audio</mediatype>
												<trackindex>2</trackindex>
												<clipindex>1</clipindex>
												<groupindex>1</groupindex>
											</link>
											<logginginfo>
												<description></description>
												<scene></scene>
												<shottake>AA0135</shottake>
												<lognote></lognote>
											</logginginfo>
											<labels>
												<label2>Iris</label2>
											</labels>
										</clipitem>
										<enabled>TRUE</enabled>
										<locked>FALSE</locked>
										<outputchannelindex>2</outputchannelindex>
									</track>
									<track TL.SQTrackExpandedHeight="25" TL.SQTrackExpanded="0" MZ.TrackTargeted="1" PannerCurrentValue="0.5" PannerIsInverted="true" PannerStartKeyframe="-91445760000000000,0.5,0,0,0,0,0,0" PannerName="Balance" currentExplodedTrackIndex="0" totalExplodedTrackCount="2" premiereTrackType="Stereo">
										<clipitem id="clipitem-1155" frameBlend="FALSE" PannerCurrentValue="0.5" PannerKeyframes="" PannerStartKeyframe="-91445760000000000,0.5,0,0,0,0,0,0" PannerIsInverted="true" PannerName="Balance">
											<masterclipid>masterclip-143</masterclipid>
											<name>AA020201.MXF</name>
											<enabled>TRUE</enabled>
											<duration>408</duration>
											<rate>
												<timebase>25</timebase>
												<ntsc>FALSE</ntsc>
											</rate>
											<start>6234</start>
											<end>6642</end>
											<in>0</in>
											<out>408</out>
											<file id="file-128"/>
											<sourcetrack>
												<mediatype>audio</mediatype>
												<trackindex>1</trackindex>
											</sourcetrack>
												<filter>
													<effect>
														<name>Audio Pan</name>
														<effectid>audiopan</effectid>
														<effectcategory>audiopan</effectcategory>
														<effecttype>audiopan</effecttype>
														<mediatype>audio</mediatype>
														<parameter authoringApp="PremierePro">
															<parameterid>pan</parameterid>
															<name>Pan</name>
															<valuemin>-1</valuemin>
															<valuemax>1</valuemax>
															<value>0</value>
														</parameter>
													</effect>
												</filter>
											<link>
												<linkclipref>clipitem-1151</linkclipref>
												<mediatype>video</mediatype>
												<trackindex>2</trackindex>
												<clipindex>1</clipindex>
											</link>
											<link>
												<linkclipref>clipitem-1155</linkclipref>
												<mediatype>audio</mediatype>
												<trackindex>3</trackindex>
												<clipindex>1</clipindex>
												<groupindex>1</groupindex>
											</link>
											<link>
												<linkclipref>clipitem-1156</linkclipref>
												<mediatype>audio</mediatype>
												<trackindex>4</trackindex>
												<clipindex>1</clipindex>
												<groupindex>1</groupindex>
											</link>
											<logginginfo>
												<description></description>
												<scene></scene>
												<shottake>AA0202</shottake>
												<lognote></lognote>
											</logginginfo>
											<labels>
												<label2>Iris</label2>
											</labels>
										</clipitem>
										<enabled>TRUE</enabled>
										<locked>FALSE</locked>
										<outputchannelindex>3</outputchannelindex>
									</track>
									<track TL.SQTrackExpandedHeight="25" TL.SQTrackExpanded="0" MZ.TrackTargeted="1" PannerCurrentValue="0.5" PannerIsInverted="true" PannerStartKeyframe="-91445760000000000,0.5,0,0,0,0,0,0" PannerName="Balance" currentExplodedTrackIndex="1" totalExplodedTrackCount="2" premiereTrackType="Stereo">
										<clipitem id="clipitem-1156" frameBlend="FALSE" PannerCurrentValue="0.5" PannerKeyframes="" PannerStartKeyframe="-91445760000000000,0.5,0,0,0,0,0,0" PannerIsInverted="true" PannerName="Balance">
											<masterclipid>masterclip-143</masterclipid>
											<name>AA020201.MXF</name>
											<enabled>TRUE</enabled>
											<duration>408</duration>
											<rate>
												<timebase>25</timebase>
												<ntsc>FALSE</ntsc>
											</rate>
											<start>6234</start>
											<end>6642</end>
											<in>0</in>
											<out>408</out>
											<file id="file-128"/>
											<sourcetrack>
												<mediatype>audio</mediatype>
												<trackindex>2</trackindex>
											</sourcetrack>
												<filter>
													<effect>
														<name>Audio Pan</name>
														<effectid>audiopan</effectid>
														<effectcategory>audiopan</effectcategory>
														<effecttype>audiopan</effecttype>
														<mediatype>audio</mediatype>
														<parameter authoringApp="PremierePro">
															<parameterid>pan</parameterid>
															<name>Pan</name>
															<valuemin>-1</valuemin>
															<valuemax>1</valuemax>
															<value>0</value>
														</parameter>
													</effect>
												</filter>
											<link>
												<linkclipref>clipitem-1151</linkclipref>
												<mediatype>video</mediatype>
												<trackindex>2</trackindex>
												<clipindex>1</clipindex>
											</link>
											<link>
												<linkclipref>clipitem-1155</linkclipref>
												<mediatype>audio</mediatype>
												<trackindex>3</trackindex>
												<clipindex>1</clipindex>
												<groupindex>1</groupindex>
											</link>
											<link>
												<linkclipref>clipitem-1156</linkclipref>
												<mediatype>audio</mediatype>
												<trackindex>4</trackindex>
												<clipindex>1</clipindex>
												<groupindex>1</groupindex>
											</link>
											<logginginfo>
												<description></description>
												<scene></scene>
												<shottake>AA0202</shottake>
												<lognote></lognote>
											</logginginfo>
											<labels>
												<label2>Iris</label2>
											</labels>
										</clipitem>
										<enabled>TRUE</enabled>
										<locked>FALSE</locked>
										<outputchannelindex>4</outputchannelindex>
									</track>
									<track TL.SQTrackExpandedHeight="25" TL.SQTrackExpanded="0" MZ.TrackTargeted="1" PannerCurrentValue="0.5" PannerIsInverted="true" PannerStartKeyframe="-91445760000000000,0.5,0,0,0,0,0,0" PannerName="Balance" currentExplodedTrackIndex="0" totalExplodedTrackCount="2" premiereTrackType="Stereo">
										<clipitem id="clipitem-1157" frameBlend="FALSE" PannerCurrentValue="0.5" PannerKeyframes="" PannerStartKeyframe="-91445760000000000,0.5,0,0,0,0,0,0" PannerIsInverted="true" PannerName="Balance">
											<masterclipid>masterclip-144</masterclipid>
											<name>MVI_0052.MOV</name>
											<enabled>TRUE</enabled>
											<duration>7779</duration>
											<rate>
												<timebase>25</timebase>
												<ntsc>FALSE</ntsc>
											</rate>
											<start>68</start>
											<end>7847</end>
											<in>0</in>
											<out>7779</out>
											<file id="file-129"/>
											<sourcetrack>
												<mediatype>audio</mediatype>
												<trackindex>1</trackindex>
											</sourcetrack>
												<filter>
													<effect>
														<name>Audio Pan</name>
														<effectid>audiopan</effectid>
														<effectcategory>audiopan</effectcategory>
														<effecttype>audiopan</effecttype>
														<mediatype>audio</mediatype>
														<parameter authoringApp="PremierePro">
															<parameterid>pan</parameterid>
															<name>Pan</name>
															<valuemin>-1</valuemin>
															<valuemax>1</valuemax>
															<value>0</value>
														</parameter>
													</effect>
												</filter>
											<link>
												<linkclipref>clipitem-1152</linkclipref>
												<mediatype>video</mediatype>
												<trackindex>3</trackindex>
												<clipindex>1</clipindex>
											</link>
											<link>
												<linkclipref>clipitem-1157</linkclipref>
												<mediatype>audio</mediatype>
												<trackindex>5</trackindex>
												<clipindex>1</clipindex>
												<groupindex>1</groupindex>
											</link>
											<link>
												<linkclipref>clipitem-1158</linkclipref>
												<mediatype>audio</mediatype>
												<trackindex>6</trackindex>
												<clipindex>1</clipindex>
												<groupindex>1</groupindex>
											</link>
											<logginginfo>
												<description></description>
												<scene></scene>
												<shottake></shottake>
												<lognote></lognote>
											</logginginfo>
											<labels>
												<label2>Iris</label2>
											</labels>
										</clipitem>
										<enabled>TRUE</enabled>
										<locked>FALSE</locked>
										<outputchannelindex>5</outputchannelindex>
									</track>
									<track TL.SQTrackExpandedHeight="25" TL.SQTrackExpanded="0" MZ.TrackTargeted="1" PannerCurrentValue="0.5" PannerIsInverted="true" PannerStartKeyframe="-91445760000000000,0.5,0,0,0,0,0,0" PannerName="Balance" currentExplodedTrackIndex="1" totalExplodedTrackCount="2" premiereTrackType="Stereo">
										<clipitem id="clipitem-1158" frameBlend="FALSE" PannerCurrentValue="0.5" PannerKeyframes="" PannerStartKeyframe="-91445760000000000,0.5,0,0,0,0,0,0" PannerIsInverted="true" PannerName="Balance">
											<masterclipid>masterclip-144</masterclipid>
											<name>MVI_0052.MOV</name>
											<enabled>TRUE</enabled>
											<duration>7779</duration>
											<rate>
												<timebase>25</timebase>
												<ntsc>FALSE</ntsc>
											</rate>
											<start>68</start>
											<end>7847</end>
											<in>0</in>
											<out>7779</out>
											<file id="file-129"/>
											<sourcetrack>
												<mediatype>audio</mediatype>
												<trackindex>2</trackindex>
											</sourcetrack>
												<filter>
													<effect>
														<name>Audio Pan</name>
														<effectid>audiopan</effectid>
														<effectcategory>audiopan</effectcategory>
														<effecttype>audiopan</effecttype>
														<mediatype>audio</mediatype>
														<parameter authoringApp="PremierePro">
															<parameterid>pan</parameterid>
															<name>Pan</name>
															<valuemin>-1</valuemin>
															<valuemax>1</valuemax>
															<value>0</value>
														</parameter>
													</effect>
												</filter>
											<link>
												<linkclipref>clipitem-1152</linkclipref>
												<mediatype>video</mediatype>
												<trackindex>3</trackindex>
												<clipindex>1</clipindex>
											</link>
											<link>
												<linkclipref>clipitem-1157</linkclipref>
												<mediatype>audio</mediatype>
												<trackindex>5</trackindex>
												<clipindex>1</clipindex>
												<groupindex>1</groupindex>
											</link>
											<link>
												<linkclipref>clipitem-1158</linkclipref>
												<mediatype>audio</mediatype>
												<trackindex>6</trackindex>
												<clipindex>1</clipindex>
												<groupindex>1</groupindex>
											</link>
											<logginginfo>
												<description></description>
												<scene></scene>
												<shottake></shottake>
												<lognote></lognote>
											</logginginfo>
											<labels>
												<label2>Iris</label2>
											</labels>
										</clipitem>
										<enabled>TRUE</enabled>
										<locked>FALSE</locked>
										<outputchannelindex>6</outputchannelindex>
									</track>
								</audio>
							</media>
							<timecode>
								<rate>
									<timebase>25</timebase>
									<ntsc>FALSE</ntsc>
								</rate>
								<string>00:00:00:00</string>
								<frame>0</frame>
								<displayformat>NDF</displayformat>
							</timecode>
						</sequence>
							<filter>
								<effect>
									<name>Audio Levels</name>
									<effectid>audiolevels</effectid>
									<effectcategory>audiolevels</effectcategory>
									<effecttype>audiolevels</effecttype>
									<mediatype>audio</mediatype>
									<parameter authoringApp="PremierePro">
										<parameterid>level</parameterid>
										<name>Level</name>
										<valuemin>0</valuemin>
										<valuemax>3.98109</valuemax>
										<value>1.25594</value>
									</parameter>
								</effect>
							</filter>
						<link>
							<linkclipref>clipitem-669</linkclipref>
							<mediatype>video</mediatype>
							<trackindex>1</trackindex>
							<clipindex>191</clipindex>
						</link>
						<link>
							<linkclipref>clipitem-1149</linkclipref>
							<mediatype>audio</mediatype>
							<trackindex>1</trackindex>
							<clipindex>96</clipindex>
						</link>
						<link>
							<linkclipref>clipitem-1432</linkclipref>
							<mediatype>audio</mediatype>
							<trackindex>3</trackindex>
							<clipindex>79</clipindex>
						</link>
						<labels>
							<label2>Forest</label2>
						</labels>
					</clipitem>
					<clipitem id="clipitem-1159" frameBlend="FALSE">
						<masterclipid>masterclip-142</masterclipid>
						<name>AA013501.MXF</name>
						<enabled>TRUE</enabled>
						<duration>7968</duration>
						<rate>
							<timebase>25</timebase>
							<ntsc>FALSE</ntsc>
						</rate>
						<start>22279</start>
						<end>22431</end>
						<in>258</in>
						<out>410</out>
						<file id="file-127"/>
						<sourcetrack>
							<mediatype>audio</mediatype>
							<trackindex>1</trackindex>
						</sourcetrack>
						<link>
							<linkclipref>clipitem-1159</linkclipref>
							<mediatype>audio</mediatype>
							<trackindex>1</trackindex>
							<clipindex>97</clipindex>
						</link>
						<link>
							<linkclipref>clipitem-1433</linkclipref>
							<mediatype>audio</mediatype>
							<trackindex>3</trackindex>
							<clipindex>80</clipindex>
						</link>
						<logginginfo>
							<description></description>
							<scene></scene>
							<shottake>AA0135</shottake>
							<lognote></lognote>
						</logginginfo>
						<labels>
							<label2>Iris</label2>
						</labels>
					</clipitem>
					<clipitem id="clipitem-1160" frameBlend="FALSE">
						<masterclipid>masterclip-142</masterclipid>
						<name>AA013501.MXF</name>
						<enabled>TRUE</enabled>
						<duration>7968</duration>
						<rate>
							<timebase>25</timebase>
							<ntsc>FALSE</ntsc>
						</rate>
						<start>22431</start>
						<end>22469</end>
						<in>468</in>
						<out>506</out>
						<file id="file-127"/>
						<sourcetrack>
							<mediatype>audio</mediatype>
							<trackindex>1</trackindex>
						</sourcetrack>
						<link>
							<linkclipref>clipitem-1160</linkclipref>
							<mediatype>audio</mediatype>
							<trackindex>1</trackindex>
							<clipindex>98</clipindex>
						</link>
						<link>
							<linkclipref>clipitem-1434</linkclipref>
							<mediatype>audio</mediatype>
							<trackindex>3</trackindex>
							<clipindex>81</clipindex>
						</link>
						<logginginfo>
							<description></description>
							<scene></scene>
							<shottake>AA0135</shottake>
							<lognote></lognote>
						</logginginfo>
						<labels>
							<label2>Iris</label2>
						</labels>
					</clipitem>
					<clipitem id="clipitem-1161" frameBlend="FALSE">
						<masterclipid>masterclip-142</masterclipid>
						<name>AA013501.MXF</name>
						<enabled>TRUE</enabled>
						<duration>7968</duration>
						<rate>
							<timebase>25</timebase>
							<ntsc>FALSE</ntsc>
						</rate>
						<start>22469</start>
						<end>22539</end>
						<in>535</in>
						<out>605</out>
						<file id="file-127"/>
						<sourcetrack>
							<mediatype>audio</mediatype>
							<trackindex>1</trackindex>
						</sourcetrack>
						<link>
							<linkclipref>clipitem-1161</linkclipref>
							<mediatype>audio</mediatype>
							<trackindex>1</trackindex>
							<clipindex>99</clipindex>
						</link>
						<link>
							<linkclipref>clipitem-1435</linkclipref>
							<mediatype>audio</mediatype>
							<trackindex>3</trackindex>
							<clipindex>82</clipindex>
						</link>
						<logginginfo>
							<description></description>
							<scene></scene>
							<shottake>AA0135</shottake>
							<lognote></lognote>
						</logginginfo>
						<labels>
							<label2>Iris</label2>
						</labels>
					</clipitem>
					<clipitem id="clipitem-1162" frameBlend="FALSE">
						<masterclipid>masterclip-142</masterclipid>
						<name>AA013501.MXF</name>
						<enabled>TRUE</enabled>
						<duration>7968</duration>
						<rate>
							<timebase>25</timebase>
							<ntsc>FALSE</ntsc>
						</rate>
						<start>22539</start>
						<end>22549</end>
						<in>642</in>
						<out>652</out>
						<file id="file-127"/>
						<sourcetrack>
							<mediatype>audio</mediatype>
							<trackindex>1</trackindex>
						</sourcetrack>
						<link>
							<linkclipref>clipitem-1162</linkclipref>
							<mediatype>audio</mediatype>
							<trackindex>1</trackindex>
							<clipindex>100</clipindex>
						</link>
						<link>
							<linkclipref>clipitem-1436</linkclipref>
							<mediatype>audio</mediatype>
							<trackindex>3</trackindex>
							<clipindex>83</clipindex>
						</link>
						<logginginfo>
							<description></description>
							<scene></scene>
							<shottake>AA0135</shottake>
							<lognote></lognote>
						</logginginfo>
						<labels>
							<label2>Iris</label2>
						</labels>
					</clipitem>
					<clipitem id="clipitem-1163" frameBlend="FALSE">
						<masterclipid>masterclip-142</masterclipid>
						<name>AA013501.MXF</name>
						<enabled>TRUE</enabled>
						<duration>7968</duration>
						<rate>
							<timebase>25</timebase>
							<ntsc>FALSE</ntsc>
						</rate>
						<start>22549</start>
						<end>22602</end>
						<in>667</in>
						<out>720</out>
						<file id="file-127"/>
						<sourcetrack>
							<mediatype>audio</mediatype>
							<trackindex>1</trackindex>
						</sourcetrack>
						<link>
							<linkclipref>clipitem-1163</linkclipref>
							<mediatype>audio</mediatype>
							<trackindex>1</trackindex>
							<clipindex>101</clipindex>
						</link>
						<link>
							<linkclipref>clipitem-1437</linkclipref>
							<mediatype>audio</mediatype>
							<trackindex>3</trackindex>
							<clipindex>84</clipindex>
						</link>
						<logginginfo>
							<description></description>
							<scene></scene>
							<shottake>AA0135</shottake>
							<lognote></lognote>
						</logginginfo>
						<labels>
							<label2>Iris</label2>
						</labels>
					</clipitem>
					<clipitem id="clipitem-1164" frameBlend="FALSE">
						<masterclipid>masterclip-151</masterclipid>
						<name>AA014101.MXFCowi varemesse multi</name>
						<enabled>TRUE</enabled>
						<duration>7263</duration>
						<rate>
							<timebase>25</timebase>
							<ntsc>FALSE</ntsc>
						</rate>
						<start>23038</start>
						<end>23103</end>
						<in>1409</in>
						<out>1474</out>
						<sequence id="sequence-120" TL.SQAudioVisibleBase="0" TL.SQVideoVisibleBase="0" TL.SQVisibleBaseTime="0" TL.SQAVDividerPosition="0.5" TL.SQHideShyTracks="0" TL.SQHeaderWidth="188" Monitor.ProgramZoomOut="27769029120000" Monitor.ProgramZoomIn="18146903040000" TL.SQTimePerPixel="0.22283503299702539512949783784" AM.TrackVScrollPosition="0" AM.TrackScrollPosition="0" MZ.EditLine="22952885760000" MZ.Sequence.PreviewFrameSizeHeight="1080" MZ.Sequence.PreviewFrameSizeWidth="1920" MZ.Sequence.AudioTimeDisplayFormat="200" MZ.Sequence.PreviewRenderingClassID="1297106761" MZ.Sequence.PreviewRenderingPresetCodec="1297107278" MZ.Sequence.PreviewRenderingPresetPath="EncoderPresets/SequencePreview/795454d9-d3c2-429d-9474-923ab13b7018/I-Frame Only MPEG.epr" MZ.Sequence.PreviewUseMaxRenderQuality="false" MZ.Sequence.PreviewUseMaxBitDepth="false" MZ.Sequence.EditingModeGUID="795454d9-d3c2-429d-9474-923ab13b7018" MZ.Sequence.VideoTimeDisplayFormat="101" MZ.WorkOutPoint="15240960000000" MZ.WorkInPoint="0">
							<duration>1679</duration>
							<rate>
								<timebase>25</timebase>
								<ntsc>FALSE</ntsc>
							</rate>
							<name>AA014101.MXFCowi varemesse multi</name>
							<media>
								<video>
									<format>
										<samplecharacteristics>
											<rate>
												<timebase>25</timebase>
												<ntsc>FALSE</ntsc>
											</rate>
											<codec>
												<name>Apple ProRes 422</name>
												<appspecificdata>
													<appname>Final Cut Pro</appname>
													<appmanufacturer>Apple Inc.</appmanufacturer>
													<appversion>7.0</appversion>
													<data>
														<qtcodec>
															<codecname>Apple ProRes 422</codecname>
															<codectypename>Apple ProRes 422</codectypename>
															<codectypecode>apcn</codectypecode>
															<codecvendorcode>appl</codecvendorcode>
															<spatialquality>1024</spatialquality>
															<temporalquality>0</temporalquality>
															<keyframerate>0</keyframerate>
															<datarate>0</datarate>
														</qtcodec>
													</data>
												</appspecificdata>
											</codec>
											<width>1920</width>
											<height>1080</height>
											<anamorphic>FALSE</anamorphic>
											<pixelaspectratio>square</pixelaspectratio>
											<fielddominance>none</fielddominance>
											<colordepth>24</colordepth>
										</samplecharacteristics>
									</format>
									<track TL.SQTrackShy="0" TL.SQTrackExpandedHeight="50" TL.SQTrackExpanded="1" MZ.TrackTargeted="0">
										<clipitem id="clipitem-1165" frameBlend="FALSE">
											<masterclipid>masterclip-152</masterclipid>
											<name>AA014101.MXF</name>
											<enabled>TRUE</enabled>
											<duration>1116</duration>
											<rate>
												<timebase>25</timebase>
												<ntsc>FALSE</ntsc>
											</rate>
											<start>563</start>
											<end>1679</end>
											<in>0</in>
											<out>1116</out>
											<alphatype>none</alphatype>
											<file id="file-135"/>
											<link>
												<linkclipref>clipitem-1165</linkclipref>
												<mediatype>video</mediatype>
												<trackindex>1</trackindex>
												<clipindex>1</clipindex>
											</link>
											<link>
												<linkclipref>clipitem-1171</linkclipref>
												<mediatype>audio</mediatype>
												<trackindex>1</trackindex>
												<clipindex>1</clipindex>
												<groupindex>1</groupindex>
											</link>
											<link>
												<linkclipref>clipitem-1172</linkclipref>
												<mediatype>audio</mediatype>
												<trackindex>2</trackindex>
												<clipindex>1</clipindex>
												<groupindex>1</groupindex>
											</link>
											<logginginfo>
												<description></description>
												<scene></scene>
												<shottake>AA0141</shottake>
												<lognote></lognote>
											</logginginfo>
											<labels>
												<label2>Iris</label2>
											</labels>
										</clipitem>
										<enabled>TRUE</enabled>
										<locked>FALSE</locked>
									</track>
									<track TL.SQTrackShy="0" TL.SQTrackExpandedHeight="25" TL.SQTrackExpanded="0" MZ.TrackTargeted="0">
										<clipitem id="clipitem-1166" frameBlend="FALSE">
											<masterclipid>masterclip-153</masterclipid>
											<name>AA014201.MXF</name>
											<enabled>TRUE</enabled>
											<duration>5004</duration>
											<rate>
												<timebase>25</timebase>
												<ntsc>FALSE</ntsc>
											</rate>
											<start>2259</start>
											<end>7263</end>
											<in>0</in>
											<out>5004</out>
											<alphatype>none</alphatype>
											<file id="file-136"/>
											<link>
												<linkclipref>clipitem-1166</linkclipref>
												<mediatype>video</mediatype>
												<trackindex>2</trackindex>
												<clipindex>1</clipindex>
											</link>
											<link>
												<linkclipref>clipitem-1173</linkclipref>
												<mediatype>audio</mediatype>
												<trackindex>3</trackindex>
												<clipindex>1</clipindex>
												<groupindex>1</groupindex>
											</link>
											<link>
												<linkclipref>clipitem-1174</linkclipref>
												<mediatype>audio</mediatype>
												<trackindex>4</trackindex>
												<clipindex>1</clipindex>
												<groupindex>1</groupindex>
											</link>
											<logginginfo>
												<description></description>
												<scene></scene>
												<shottake>AA0142</shottake>
												<lognote></lognote>
											</logginginfo>
											<labels>
												<label2>Iris</label2>
											</labels>
										</clipitem>
										<enabled>TRUE</enabled>
										<locked>FALSE</locked>
									</track>
									<track TL.SQTrackShy="0" TL.SQTrackExpandedHeight="25" TL.SQTrackExpanded="0" MZ.TrackTargeted="0">
										<clipitem id="clipitem-1167" frameBlend="FALSE">
											<masterclipid>masterclip-154</masterclipid>
											<name>MVI_0059.MOV</name>
											<enabled>TRUE</enabled>
											<duration>3721</duration>
											<rate>
												<timebase>25</timebase>
												<ntsc>FALSE</ntsc>
											</rate>
											<start>0</start>
											<end>3721</end>
											<in>0</in>
											<out>3721</out>
											<alphatype>black</alphatype>
											<file id="file-137"/>
											<link>
												<linkclipref>clipitem-1167</linkclipref>
												<mediatype>video</mediatype>
												<trackindex>3</trackindex>
												<clipindex>1</clipindex>
											</link>
											<link>
												<linkclipref>clipitem-1175</linkclipref>
												<mediatype>audio</mediatype>
												<trackindex>5</trackindex>
												<clipindex>1</clipindex>
												<groupindex>1</groupindex>
											</link>
											<link>
												<linkclipref>clipitem-1176</linkclipref>
												<mediatype>audio</mediatype>
												<trackindex>6</trackindex>
												<clipindex>1</clipindex>
												<groupindex>1</groupindex>
											</link>
											<logginginfo>
												<description></description>
												<scene></scene>
												<shottake></shottake>
												<lognote></lognote>
											</logginginfo>
											<labels>
												<label2>Iris</label2>
											</labels>
										</clipitem>
										<enabled>TRUE</enabled>
										<locked>FALSE</locked>
									</track>
									<track TL.SQTrackShy="0" TL.SQTrackExpandedHeight="25" TL.SQTrackExpanded="0" MZ.TrackTargeted="0">
										<clipitem id="clipitem-1168" frameBlend="FALSE">
											<masterclipid>masterclip-155</masterclipid>
											<name>MVI_0060.MOV</name>
											<enabled>TRUE</enabled>
											<duration>833</duration>
											<rate>
												<timebase>25</timebase>
												<ntsc>FALSE</ntsc>
											</rate>
											<start>3982</start>
											<end>4815</end>
											<in>0</in>
											<out>833</out>
											<alphatype>black</alphatype>
											<file id="file-138"/>
											<link>
												<linkclipref>clipitem-1168</linkclipref>
												<mediatype>video</mediatype>
												<trackindex>4</trackindex>
												<clipindex>1</clipindex>
											</link>
											<link>
												<linkclipref>clipitem-1177</linkclipref>
												<mediatype>audio</mediatype>
												<trackindex>7</trackindex>
												<clipindex>1</clipindex>
												<groupindex>1</groupindex>
											</link>
											<link>
												<linkclipref>clipitem-1178</linkclipref>
												<mediatype>audio</mediatype>
												<trackindex>8</trackindex>
												<clipindex>1</clipindex>
												<groupindex>1</groupindex>
											</link>
											<logginginfo>
												<description></description>
												<scene></scene>
												<shottake></shottake>
												<lognote></lognote>
											</logginginfo>
											<labels>
												<label2>Iris</label2>
											</labels>
										</clipitem>
										<enabled>TRUE</enabled>
										<locked>FALSE</locked>
									</track>
									<track TL.SQTrackShy="0" TL.SQTrackExpandedHeight="25" TL.SQTrackExpanded="0" MZ.TrackTargeted="0">
										<clipitem id="clipitem-1169" frameBlend="FALSE">
											<masterclipid>masterclip-275</masterclipid>
											<name>MVI_0061.MOV</name>
											<enabled>TRUE</enabled>
											<duration>1976</duration>
											<rate>
												<timebase>25</timebase>
												<ntsc>FALSE</ntsc>
											</rate>
											<start>5267</start>
											<end>7243</end>
											<in>0</in>
											<out>1976</out>
											<alphatype>black</alphatype>
											<pixelaspectratio>square</pixelaspectratio>
											<anamorphic>FALSE</anamorphic>
											<file id="file-248">
												<name>MVI_0061.MOV</name>
												<pathurl>file://localhost/Volumes/Brakka/AdobeLager/Katta/Katta-14xxxx-Smart_eller_overvaaket-Chris/02-Video/COWI%20Varemesse%205D/DCIM/100EOS5D/MVI_0061.MOV</pathurl>
												<rate>
													<timebase>25</timebase>
													<ntsc>FALSE</ntsc>
												</rate>
												<duration>1976</duration>
												<timecode>
													<rate>
														<timebase>25</timebase>
														<ntsc>FALSE</ntsc>
													</rate>
													<string>00:00:00:00</string>
													<frame>0</frame>
													<displayformat>NDF</displayformat>
													<reel>
														<name></name>
													</reel>
												</timecode>
												<media>
													<video>
														<duration>18000</duration>
														<samplecharacteristics>
															<rate>
																<timebase>25</timebase>
																<ntsc>FALSE</ntsc>
															</rate>
															<width>1920</width>
															<height>1080</height>
															<anamorphic>FALSE</anamorphic>
															<pixelaspectratio>square</pixelaspectratio>
															<fielddominance>none</fielddominance>
														</samplecharacteristics>
													</video>
													<audio>
														<samplecharacteristics>
															<depth>16</depth>
															<samplerate>48000</samplerate>
														</samplecharacteristics>
														<channelcount>1</channelcount>
														<layout>mono</layout>
														<audiochannel>
															<sourcechannel>1</sourcechannel>
															<channellabel>discrete</channellabel>
														</audiochannel>
													</audio>
													<audio>
														<samplecharacteristics>
															<depth>16</depth>
															<samplerate>48000</samplerate>
														</samplecharacteristics>
														<channelcount>1</channelcount>
														<layout>mono</layout>
														<audiochannel>
															<sourcechannel>2</sourcechannel>
															<channellabel>discrete</channellabel>
														</audiochannel>
													</audio>
												</media>
											</file>
											<link>
												<linkclipref>clipitem-1169</linkclipref>
												<mediatype>video</mediatype>
												<trackindex>5</trackindex>
												<clipindex>1</clipindex>
											</link>
											<link>
												<linkclipref>clipitem-1179</linkclipref>
												<mediatype>audio</mediatype>
												<trackindex>9</trackindex>
												<clipindex>1</clipindex>
												<groupindex>1</groupindex>
											</link>
											<link>
												<linkclipref>clipitem-1180</linkclipref>
												<mediatype>audio</mediatype>
												<trackindex>10</trackindex>
												<clipindex>1</clipindex>
												<groupindex>1</groupindex>
											</link>
											<logginginfo>
												<description></description>
												<scene></scene>
												<shottake></shottake>
												<lognote></lognote>
											</logginginfo>
											<labels>
												<label2>Iris</label2>
											</labels>
										</clipitem>
										<enabled>TRUE</enabled>
										<locked>FALSE</locked>
									</track>
									<track TL.SQTrackShy="0" TL.SQTrackExpandedHeight="25" TL.SQTrackExpanded="0" MZ.TrackTargeted="0">
										<clipitem id="clipitem-1170" frameBlend="FALSE">
											<masterclipid>masterclip-276</masterclipid>
											<name>MVI_0170.MOV</name>
											<enabled>TRUE</enabled>
											<duration>461</duration>
											<rate>
												<timebase>25</timebase>
												<ntsc>FALSE</ntsc>
											</rate>
											<start>853</start>
											<end>1314</end>
											<in>0</in>
											<out>461</out>
											<alphatype>black</alphatype>
											<pixelaspectratio>square</pixelaspectratio>
											<anamorphic>FALSE</anamorphic>
											<file id="file-249">
												<name>MVI_0170.MOV</name>
												<pathurl>file://localhost/Volumes/Brakka/AdobeLager/Katta/Katta-14xxxx-Smart_eller_overvaaket-Chris/02-Video/COWI%20Varemesse%205D/DCIM/100EOS5D/MVI_0170.MOV</pathurl>
												<rate>
													<timebase>25</timebase>
													<ntsc>FALSE</ntsc>
												</rate>
												<duration>461</duration>
												<timecode>
													<rate>
														<timebase>25</timebase>
														<ntsc>FALSE</ntsc>
													</rate>
													<string>00:00:00:00</string>
													<frame>0</frame>
													<displayformat>NDF</displayformat>
													<reel>
														<name></name>
													</reel>
												</timecode>
												<media>
													<video>
														<duration>18000</duration>
														<samplecharacteristics>
															<rate>
																<timebase>25</timebase>
																<ntsc>FALSE</ntsc>
															</rate>
															<width>1920</width>
															<height>1080</height>
															<anamorphic>FALSE</anamorphic>
															<pixelaspectratio>square</pixelaspectratio>
															<fielddominance>none</fielddominance>
														</samplecharacteristics>
													</video>
													<audio>
														<samplecharacteristics>
															<depth>16</depth>
															<samplerate>48000</samplerate>
														</samplecharacteristics>
														<channelcount>2</channelcount>
													</audio>
												</media>
											</file>
											<link>
												<linkclipref>clipitem-1170</linkclipref>
												<mediatype>video</mediatype>
												<trackindex>6</trackindex>
												<clipindex>1</clipindex>
											</link>
											<link>
												<linkclipref>clipitem-1181</linkclipref>
												<mediatype>audio</mediatype>
												<trackindex>11</trackindex>
												<clipindex>1</clipindex>
												<groupindex>1</groupindex>
											</link>
											<link>
												<linkclipref>clipitem-1182</linkclipref>
												<mediatype>audio</mediatype>
												<trackindex>12</trackindex>
												<clipindex>1</clipindex>
												<groupindex>1</groupindex>
											</link>
											<logginginfo>
												<description></description>
												<scene></scene>
												<shottake></shottake>
												<lognote></lognote>
											</logginginfo>
											<labels>
												<label2>Iris</label2>
											</labels>
										</clipitem>
										<enabled>TRUE</enabled>
										<locked>FALSE</locked>
									</track>
								</video>
								<audio>
									<format>
										<samplecharacteristics>
											<depth>16</depth>
											<samplerate>48000</samplerate>
										</samplecharacteristics>
									</format>
									<outputs>
										<group>
											<index>1</index>
											<numchannels>1</numchannels>
											<downmix>0</downmix>
											<channel>
												<index>1</index>
											</channel>
										</group>
										<group>
											<index>2</index>
											<numchannels>1</numchannels>
											<downmix>0</downmix>
											<channel>
												<index>2</index>
											</channel>
										</group>
										<group>
											<index>3</index>
											<numchannels>1</numchannels>
											<downmix>0</downmix>
											<channel>
												<index>3</index>
											</channel>
										</group>
										<group>
											<index>4</index>
											<numchannels>1</numchannels>
											<downmix>0</downmix>
											<channel>
												<index>4</index>
											</channel>
										</group>
										<group>
											<index>5</index>
											<numchannels>1</numchannels>
											<downmix>0</downmix>
											<channel>
												<index>5</index>
											</channel>
										</group>
										<group>
											<index>6</index>
											<numchannels>1</numchannels>
											<downmix>0</downmix>
											<channel>
												<index>6</index>
											</channel>
										</group>
										<group>
											<index>7</index>
											<numchannels>1</numchannels>
											<downmix>0</downmix>
											<channel>
												<index>7</index>
											</channel>
										</group>
										<group>
											<index>8</index>
											<numchannels>1</numchannels>
											<downmix>0</downmix>
											<channel>
												<index>8</index>
											</channel>
										</group>
										<group>
											<index>9</index>
											<numchannels>1</numchannels>
											<downmix>0</downmix>
											<channel>
												<index>9</index>
											</channel>
										</group>
										<group>
											<index>10</index>
											<numchannels>1</numchannels>
											<downmix>0</downmix>
											<channel>
												<index>10</index>
											</channel>
										</group>
										<group>
											<index>11</index>
											<numchannels>1</numchannels>
											<downmix>0</downmix>
											<channel>
												<index>11</index>
											</channel>
										</group>
										<group>
											<index>12</index>
											<numchannels>1</numchannels>
											<downmix>0</downmix>
											<channel>
												<index>12</index>
											</channel>
										</group>
									</outputs>
									<track TL.SQTrackAudioKeyframeStyle="0" TL.SQTrackShy="0" TL.SQTrackExpandedHeight="25" TL.SQTrackExpanded="0" MZ.TrackTargeted="1" PannerCurrentValue="0.5" PannerIsInverted="true" PannerStartKeyframe="-91445760000000000,0.5,0,0,0,0,0,0" PannerName="Balance" currentExplodedTrackIndex="0" totalExplodedTrackCount="2" premiereTrackType="Stereo">
										<clipitem id="clipitem-1171" frameBlend="FALSE" PannerCurrentValue="0.5" PannerKeyframes="" PannerStartKeyframe="-91445760000000000,0.5,0,0,0,0,0,0" PannerIsInverted="true" PannerName="Balance">
											<masterclipid>masterclip-152</masterclipid>
											<name>AA014101.MXF</name>
											<enabled>TRUE</enabled>
											<duration>1116</duration>
											<rate>
												<timebase>25</timebase>
												<ntsc>FALSE</ntsc>
											</rate>
											<start>563</start>
											<end>1679</end>
											<in>0</in>
											<out>1116</out>
											<file id="file-135"/>
											<sourcetrack>
												<mediatype>audio</mediatype>
												<trackindex>1</trackindex>
											</sourcetrack>
												<filter>
													<effect>
														<name>Audio Pan</name>
														<effectid>audiopan</effectid>
														<effectcategory>audiopan</effectcategory>
														<effecttype>audiopan</effecttype>
														<mediatype>audio</mediatype>
														<parameter authoringApp="PremierePro">
															<parameterid>pan</parameterid>
															<name>Pan</name>
															<valuemin>-1</valuemin>
															<valuemax>1</valuemax>
															<value>0</value>
														</parameter>
													</effect>
												</filter>
											<link>
												<linkclipref>clipitem-1165</linkclipref>
												<mediatype>video</mediatype>
												<trackindex>1</trackindex>
												<clipindex>1</clipindex>
											</link>
											<link>
												<linkclipref>clipitem-1171</linkclipref>
												<mediatype>audio</mediatype>
												<trackindex>1</trackindex>
												<clipindex>1</clipindex>
												<groupindex>1</groupindex>
											</link>
											<link>
												<linkclipref>clipitem-1172</linkclipref>
												<mediatype>audio</mediatype>
												<trackindex>2</trackindex>
												<clipindex>1</clipindex>
												<groupindex>1</groupindex>
											</link>
											<logginginfo>
												<description></description>
												<scene></scene>
												<shottake>AA0141</shottake>
												<lognote></lognote>
											</logginginfo>
											<labels>
												<label2>Iris</label2>
											</labels>
										</clipitem>
										<enabled>TRUE</enabled>
										<locked>FALSE</locked>
										<outputchannelindex>1</outputchannelindex>
									</track>
									<track TL.SQTrackAudioKeyframeStyle="0" TL.SQTrackShy="0" TL.SQTrackExpandedHeight="25" TL.SQTrackExpanded="0" MZ.TrackTargeted="1" PannerCurrentValue="0.5" PannerIsInverted="true" PannerStartKeyframe="-91445760000000000,0.5,0,0,0,0,0,0" PannerName="Balance" currentExplodedTrackIndex="1" totalExplodedTrackCount="2" premiereTrackType="Stereo">
										<clipitem id="clipitem-1172" frameBlend="FALSE" PannerCurrentValue="0.5" PannerKeyframes="" PannerStartKeyframe="-91445760000000000,0.5,0,0,0,0,0,0" PannerIsInverted="true" PannerName="Balance">
											<masterclipid>masterclip-152</masterclipid>
											<name>AA014101.MXF</name>
											<enabled>TRUE</enabled>
											<duration>1116</duration>
											<rate>
												<timebase>25</timebase>
												<ntsc>FALSE</ntsc>
											</rate>
											<start>563</start>
											<end>1679</end>
											<in>0</in>
											<out>1116</out>
											<file id="file-135"/>
											<sourcetrack>
												<mediatype>audio</mediatype>
												<trackindex>2</trackindex>
											</sourcetrack>
												<filter>
													<effect>
														<name>Audio Pan</name>
														<effectid>audiopan</effectid>
														<effectcategory>audiopan</effectcategory>
														<effecttype>audiopan</effecttype>
														<mediatype>audio</mediatype>
														<parameter authoringApp="PremierePro">
															<parameterid>pan</parameterid>
															<name>Pan</name>
															<valuemin>-1</valuemin>
															<valuemax>1</valuemax>
															<value>0</value>
														</parameter>
													</effect>
												</filter>
											<link>
												<linkclipref>clipitem-1165</linkclipref>
												<mediatype>video</mediatype>
												<trackindex>1</trackindex>
												<clipindex>1</clipindex>
											</link>
											<link>
												<linkclipref>clipitem-1171</linkclipref>
												<mediatype>audio</mediatype>
												<trackindex>1</trackindex>
												<clipindex>1</clipindex>
												<groupindex>1</groupindex>
											</link>
											<link>
												<linkclipref>clipitem-1172</linkclipref>
												<mediatype>audio</mediatype>
												<trackindex>2</trackindex>
												<clipindex>1</clipindex>
												<groupindex>1</groupindex>
											</link>
											<logginginfo>
												<description></description>
												<scene></scene>
												<shottake>AA0141</shottake>
												<lognote></lognote>
											</logginginfo>
											<labels>
												<label2>Iris</label2>
											</labels>
										</clipitem>
										<enabled>TRUE</enabled>
										<locked>FALSE</locked>
										<outputchannelindex>2</outputchannelindex>
									</track>
									<track TL.SQTrackAudioKeyframeStyle="0" TL.SQTrackShy="0" TL.SQTrackExpandedHeight="25" TL.SQTrackExpanded="0" MZ.TrackTargeted="1" PannerCurrentValue="0.5" PannerIsInverted="true" PannerStartKeyframe="-91445760000000000,0.5,0,0,0,0,0,0" PannerName="Balance" currentExplodedTrackIndex="0" totalExplodedTrackCount="2" premiereTrackType="Stereo">
										<clipitem id="clipitem-1173" frameBlend="FALSE" PannerCurrentValue="0.5" PannerKeyframes="" PannerStartKeyframe="-91445760000000000,0.5,0,0,0,0,0,0" PannerIsInverted="true" PannerName="Balance">
											<masterclipid>masterclip-153</masterclipid>
											<name>AA014201.MXF</name>
											<enabled>TRUE</enabled>
											<duration>5004</duration>
											<rate>
												<timebase>25</timebase>
												<ntsc>FALSE</ntsc>
											</rate>
											<start>2259</start>
											<end>7263</end>
											<in>0</in>
											<out>5004</out>
											<file id="file-136"/>
											<sourcetrack>
												<mediatype>audio</mediatype>
												<trackindex>1</trackindex>
											</sourcetrack>
												<filter>
													<effect>
														<name>Audio Pan</name>
														<effectid>audiopan</effectid>
														<effectcategory>audiopan</effectcategory>
														<effecttype>audiopan</effecttype>
														<mediatype>audio</mediatype>
														<parameter authoringApp="PremierePro">
															<parameterid>pan</parameterid>
															<name>Pan</name>
															<valuemin>-1</valuemin>
															<valuemax>1</valuemax>
															<value>0</value>
														</parameter>
													</effect>
												</filter>
											<link>
												<linkclipref>clipitem-1166</linkclipref>
												<mediatype>video</mediatype>
												<trackindex>2</trackindex>
												<clipindex>1</clipindex>
											</link>
											<link>
												<linkclipref>clipitem-1173</linkclipref>
												<mediatype>audio</mediatype>
												<trackindex>3</trackindex>
												<clipindex>1</clipindex>
												<groupindex>1</groupindex>
											</link>
											<link>
												<linkclipref>clipitem-1174</linkclipref>
												<mediatype>audio</mediatype>
												<trackindex>4</trackindex>
												<clipindex>1</clipindex>
												<groupindex>1</groupindex>
											</link>
											<logginginfo>
												<description></description>
												<scene></scene>
												<shottake>AA0142</shottake>
												<lognote></lognote>
											</logginginfo>
											<labels>
												<label2>Iris</label2>
											</labels>
										</clipitem>
										<enabled>TRUE</enabled>
										<locked>FALSE</locked>
										<outputchannelindex>3</outputchannelindex>
									</track>
									<track TL.SQTrackAudioKeyframeStyle="0" TL.SQTrackShy="0" TL.SQTrackExpandedHeight="25" TL.SQTrackExpanded="0" MZ.TrackTargeted="1" PannerCurrentValue="0.5" PannerIsInverted="true" PannerStartKeyframe="-91445760000000000,0.5,0,0,0,0,0,0" PannerName="Balance" currentExplodedTrackIndex="1" totalExplodedTrackCount="2" premiereTrackType="Stereo">
										<clipitem id="clipitem-1174" frameBlend="FALSE" PannerCurrentValue="0.5" PannerKeyframes="" PannerStartKeyframe="-91445760000000000,0.5,0,0,0,0,0,0" PannerIsInverted="true" PannerName="Balance">
											<masterclipid>masterclip-153</masterclipid>
											<name>AA014201.MXF</name>
											<enabled>TRUE</enabled>
											<duration>5004</duration>
											<rate>
												<timebase>25</timebase>
												<ntsc>FALSE</ntsc>
											</rate>
											<start>2259</start>
											<end>7263</end>
											<in>0</in>
											<out>5004</out>
											<file id="file-136"/>
											<sourcetrack>
												<mediatype>audio</mediatype>
												<trackindex>2</trackindex>
											</sourcetrack>
												<filter>
													<effect>
														<name>Audio Pan</name>
														<effectid>audiopan</effectid>
														<effectcategory>audiopan</effectcategory>
														<effecttype>audiopan</effecttype>
														<mediatype>audio</mediatype>
														<parameter authoringApp="PremierePro">
															<parameterid>pan</parameterid>
															<name>Pan</name>
															<valuemin>-1</valuemin>
															<valuemax>1</valuemax>
															<value>0</value>
														</parameter>
													</effect>
												</filter>
											<link>
												<linkclipref>clipitem-1166</linkclipref>
												<mediatype>video</mediatype>
												<trackindex>2</trackindex>
												<clipindex>1</clipindex>
											</link>
											<link>
												<linkclipref>clipitem-1173</linkclipref>
												<mediatype>audio</mediatype>
												<trackindex>3</trackindex>
												<clipindex>1</clipindex>
												<groupindex>1</groupindex>
											</link>
											<link>
												<linkclipref>clipitem-1174</linkclipref>
												<mediatype>audio</mediatype>
												<trackindex>4</trackindex>
												<clipindex>1</clipindex>
												<groupindex>1</groupindex>
											</link>
											<logginginfo>
												<description></description>
												<scene></scene>
												<shottake>AA0142</shottake>
												<lognote></lognote>
											</logginginfo>
											<labels>
												<label2>Iris</label2>
											</labels>
										</clipitem>
										<enabled>TRUE</enabled>
										<locked>FALSE</locked>
										<outputchannelindex>4</outputchannelindex>
									</track>
									<track TL.SQTrackAudioKeyframeStyle="0" TL.SQTrackShy="0" TL.SQTrackExpandedHeight="25" TL.SQTrackExpanded="0" MZ.TrackTargeted="1" PannerCurrentValue="0.5" PannerIsInverted="true" PannerStartKeyframe="-91445760000000000,0.5,0,0,0,0,0,0" PannerName="Balance" currentExplodedTrackIndex="0" totalExplodedTrackCount="2" premiereTrackType="Stereo">
										<clipitem id="clipitem-1175" frameBlend="FALSE" PannerCurrentValue="0.5" PannerKeyframes="" PannerStartKeyframe="-91445760000000000,0.5,0,0,0,0,0,0" PannerIsInverted="true" PannerName="Balance">
											<masterclipid>masterclip-154</masterclipid>
											<name>MVI_0059.MOV</name>
											<enabled>TRUE</enabled>
											<duration>3721</duration>
											<rate>
												<timebase>25</timebase>
												<ntsc>FALSE</ntsc>
											</rate>
											<start>0</start>
											<end>3721</end>
											<in>0</in>
											<out>3721</out>
											<file id="file-137"/>
											<sourcetrack>
												<mediatype>audio</mediatype>
												<trackindex>1</trackindex>
											</sourcetrack>
												<filter>
													<effect>
														<name>Audio Pan</name>
														<effectid>audiopan</effectid>
														<effectcategory>audiopan</effectcategory>
														<effecttype>audiopan</effecttype>
														<mediatype>audio</mediatype>
														<parameter authoringApp="PremierePro">
															<parameterid>pan</parameterid>
															<name>Pan</name>
															<valuemin>-1</valuemin>
															<valuemax>1</valuemax>
															<value>0</value>
														</parameter>
													</effect>
												</filter>
											<link>
												<linkclipref>clipitem-1167</linkclipref>
												<mediatype>video</mediatype>
												<trackindex>3</trackindex>
												<clipindex>1</clipindex>
											</link>
											<link>
												<linkclipref>clipitem-1175</linkclipref>
												<mediatype>audio</mediatype>
												<trackindex>5</trackindex>
												<clipindex>1</clipindex>
												<groupindex>1</groupindex>
											</link>
											<link>
												<linkclipref>clipitem-1176</linkclipref>
												<mediatype>audio</mediatype>
												<trackindex>6</trackindex>
												<clipindex>1</clipindex>
												<groupindex>1</groupindex>
											</link>
											<logginginfo>
												<description></description>
												<scene></scene>
												<shottake></shottake>
												<lognote></lognote>
											</logginginfo>
											<labels>
												<label2>Iris</label2>
											</labels>
										</clipitem>
										<enabled>TRUE</enabled>
										<locked>FALSE</locked>
										<outputchannelindex>5</outputchannelindex>
									</track>
									<track TL.SQTrackAudioKeyframeStyle="0" TL.SQTrackShy="0" TL.SQTrackExpandedHeight="25" TL.SQTrackExpanded="0" MZ.TrackTargeted="1" PannerCurrentValue="0.5" PannerIsInverted="true" PannerStartKeyframe="-91445760000000000,0.5,0,0,0,0,0,0" PannerName="Balance" currentExplodedTrackIndex="1" totalExplodedTrackCount="2" premiereTrackType="Stereo">
										<clipitem id="clipitem-1176" frameBlend="FALSE" PannerCurrentValue="0.5" PannerKeyframes="" PannerStartKeyframe="-91445760000000000,0.5,0,0,0,0,0,0" PannerIsInverted="true" PannerName="Balance">
											<masterclipid>masterclip-154</masterclipid>
											<name>MVI_0059.MOV</name>
											<enabled>TRUE</enabled>
											<duration>3721</duration>
											<rate>
												<timebase>25</timebase>
												<ntsc>FALSE</ntsc>
											</rate>
											<start>0</start>
											<end>3721</end>
											<in>0</in>
											<out>3721</out>
											<file id="file-137"/>
											<sourcetrack>
												<mediatype>audio</mediatype>
												<trackindex>2</trackindex>
											</sourcetrack>
												<filter>
													<effect>
														<name>Audio Pan</name>
														<effectid>audiopan</effectid>
														<effectcategory>audiopan</effectcategory>
														<effecttype>audiopan</effecttype>
														<mediatype>audio</mediatype>
														<parameter authoringApp="PremierePro">
															<parameterid>pan</parameterid>
															<name>Pan</name>
															<valuemin>-1</valuemin>
															<valuemax>1</valuemax>
															<value>0</value>
														</parameter>
													</effect>
												</filter>
											<link>
												<linkclipref>clipitem-1167</linkclipref>
												<mediatype>video</mediatype>
												<trackindex>3</trackindex>
												<clipindex>1</clipindex>
											</link>
											<link>
												<linkclipref>clipitem-1175</linkclipref>
												<mediatype>audio</mediatype>
												<trackindex>5</trackindex>
												<clipindex>1</clipindex>
												<groupindex>1</groupindex>
											</link>
											<link>
												<linkclipref>clipitem-1176</linkclipref>
												<mediatype>audio</mediatype>
												<trackindex>6</trackindex>
												<clipindex>1</clipindex>
												<groupindex>1</groupindex>
											</link>
											<logginginfo>
												<description></description>
												<scene></scene>
												<shottake></shottake>
												<lognote></lognote>
											</logginginfo>
											<labels>
												<label2>Iris</label2>
											</labels>
										</clipitem>
										<enabled>TRUE</enabled>
										<locked>FALSE</locked>
										<outputchannelindex>6</outputchannelindex>
									</track>
									<track TL.SQTrackAudioKeyframeStyle="0" TL.SQTrackShy="0" TL.SQTrackExpandedHeight="25" TL.SQTrackExpanded="0" MZ.TrackTargeted="0" PannerCurrentValue="0.5" PannerIsInverted="true" PannerStartKeyframe="-91445760000000000,0.5,0,0,0,0,0,0" PannerName="Balance" currentExplodedTrackIndex="0" totalExplodedTrackCount="2" premiereTrackType="Stereo">
										<clipitem id="clipitem-1177" frameBlend="FALSE" PannerCurrentValue="0.5" PannerKeyframes="" PannerStartKeyframe="-91445760000000000,0.5,0,0,0,0,0,0" PannerIsInverted="true" PannerName="Balance">
											<masterclipid>masterclip-155</masterclipid>
											<name>MVI_0060.MOV</name>
											<enabled>TRUE</enabled>
											<duration>833</duration>
											<rate>
												<timebase>25</timebase>
												<ntsc>FALSE</ntsc>
											</rate>
											<start>3982</start>
											<end>4815</end>
											<in>0</in>
											<out>833</out>
											<file id="file-138"/>
											<sourcetrack>
												<mediatype>audio</mediatype>
												<trackindex>1</trackindex>
											</sourcetrack>
												<filter>
													<effect>
														<name>Audio Pan</name>
														<effectid>audiopan</effectid>
														<effectcategory>audiopan</effectcategory>
														<effecttype>audiopan</effecttype>
														<mediatype>audio</mediatype>
														<parameter authoringApp="PremierePro">
															<parameterid>pan</parameterid>
															<name>Pan</name>
															<valuemin>-1</valuemin>
															<valuemax>1</valuemax>
															<value>0</value>
														</parameter>
													</effect>
												</filter>
											<link>
												<linkclipref>clipitem-1168</linkclipref>
												<mediatype>video</mediatype>
												<trackindex>4</trackindex>
												<clipindex>1</clipindex>
											</link>
											<link>
												<linkclipref>clipitem-1177</linkclipref>
												<mediatype>audio</mediatype>
												<trackindex>7</trackindex>
												<clipindex>1</clipindex>
												<groupindex>1</groupindex>
											</link>
											<link>
												<linkclipref>clipitem-1178</linkclipref>
												<mediatype>audio</mediatype>
												<trackindex>8</trackindex>
												<clipindex>1</clipindex>
												<groupindex>1</groupindex>
											</link>
											<logginginfo>
												<description></description>
												<scene></scene>
												<shottake></shottake>
												<lognote></lognote>
											</logginginfo>
											<labels>
												<label2>Iris</label2>
											</labels>
										</clipitem>
										<enabled>TRUE</enabled>
										<locked>FALSE</locked>
										<outputchannelindex>7</outputchannelindex>
									</track>
									<track TL.SQTrackAudioKeyframeStyle="0" TL.SQTrackShy="0" TL.SQTrackExpandedHeight="25" TL.SQTrackExpanded="0" MZ.TrackTargeted="0" PannerCurrentValue="0.5" PannerIsInverted="true" PannerStartKeyframe="-91445760000000000,0.5,0,0,0,0,0,0" PannerName="Balance" currentExplodedTrackIndex="1" totalExplodedTrackCount="2" premiereTrackType="Stereo">
										<clipitem id="clipitem-1178" frameBlend="FALSE" PannerCurrentValue="0.5" PannerKeyframes="" PannerStartKeyframe="-91445760000000000,0.5,0,0,0,0,0,0" PannerIsInverted="true" PannerName="Balance">
											<masterclipid>masterclip-155</masterclipid>
											<name>MVI_0060.MOV</name>
											<enabled>TRUE</enabled>
											<duration>833</duration>
											<rate>
												<timebase>25</timebase>
												<ntsc>FALSE</ntsc>
											</rate>
											<start>3982</start>
											<end>4815</end>
											<in>0</in>
											<out>833</out>
											<file id="file-138"/>
											<sourcetrack>
												<mediatype>audio</mediatype>
												<trackindex>2</trackindex>
											</sourcetrack>
												<filter>
													<effect>
														<name>Audio Pan</name>
														<effectid>audiopan</effectid>
														<effectcategory>audiopan</effectcategory>
														<effecttype>audiopan</effecttype>
														<mediatype>audio</mediatype>
														<parameter authoringApp="PremierePro">
															<parameterid>pan</parameterid>
															<name>Pan</name>
															<valuemin>-1</valuemin>
															<valuemax>1</valuemax>
															<value>0</value>
														</parameter>
													</effect>
												</filter>
											<link>
												<linkclipref>clipitem-1168</linkclipref>
												<mediatype>video</mediatype>
												<trackindex>4</trackindex>
												<clipindex>1</clipindex>
											</link>
											<link>
												<linkclipref>clipitem-1177</linkclipref>
												<mediatype>audio</mediatype>
												<trackindex>7</trackindex>
												<clipindex>1</clipindex>
												<groupindex>1</groupindex>
											</link>
											<link>
												<linkclipref>clipitem-1178</linkclipref>
												<mediatype>audio</mediatype>
												<trackindex>8</trackindex>
												<clipindex>1</clipindex>
												<groupindex>1</groupindex>
											</link>
											<logginginfo>
												<description></description>
												<scene></scene>
												<shottake></shottake>
												<lognote></lognote>
											</logginginfo>
											<labels>
												<label2>Iris</label2>
											</labels>
										</clipitem>
										<enabled>TRUE</enabled>
										<locked>FALSE</locked>
										<outputchannelindex>8</outputchannelindex>
									</track>
									<track TL.SQTrackAudioKeyframeStyle="0" TL.SQTrackShy="0" TL.SQTrackExpandedHeight="25" TL.SQTrackExpanded="0" MZ.TrackTargeted="0" PannerCurrentValue="0.5" PannerIsInverted="true" PannerStartKeyframe="-91445760000000000,0.5,0,0,0,0,0,0" PannerName="Balance" currentExplodedTrackIndex="0" totalExplodedTrackCount="2" premiereTrackType="Stereo">
										<clipitem id="clipitem-1179" frameBlend="FALSE" PannerCurrentValue="0.5" PannerKeyframes="" PannerStartKeyframe="-91445760000000000,0.5,0,0,0,0,0,0" PannerIsInverted="true" PannerName="Balance">
											<masterclipid>masterclip-275</masterclipid>
											<name>MVI_0061.MOV</name>
											<enabled>TRUE</enabled>
											<duration>1976</duration>
											<rate>
												<timebase>25</timebase>
												<ntsc>FALSE</ntsc>
											</rate>
											<start>5267</start>
											<end>7243</end>
											<in>0</in>
											<out>1976</out>
											<file id="file-248"/>
											<sourcetrack>
												<mediatype>audio</mediatype>
												<trackindex>1</trackindex>
											</sourcetrack>
												<filter>
													<effect>
														<name>Audio Pan</name>
														<effectid>audiopan</effectid>
														<effectcategory>audiopan</effectcategory>
														<effecttype>audiopan</effecttype>
														<mediatype>audio</mediatype>
														<parameter authoringApp="PremierePro">
															<parameterid>pan</parameterid>
															<name>Pan</name>
															<valuemin>-1</valuemin>
															<valuemax>1</valuemax>
															<value>0</value>
														</parameter>
													</effect>
												</filter>
											<link>
												<linkclipref>clipitem-1169</linkclipref>
												<mediatype>video</mediatype>
												<trackindex>5</trackindex>
												<clipindex>1</clipindex>
											</link>
											<link>
												<linkclipref>clipitem-1179</linkclipref>
												<mediatype>audio</mediatype>
												<trackindex>9</trackindex>
												<clipindex>1</clipindex>
												<groupindex>1</groupindex>
											</link>
											<link>
												<linkclipref>clipitem-1180</linkclipref>
												<mediatype>audio</mediatype>
												<trackindex>10</trackindex>
												<clipindex>1</clipindex>
												<groupindex>1</groupindex>
											</link>
											<logginginfo>
												<description></description>
												<scene></scene>
												<shottake></shottake>
												<lognote></lognote>
											</logginginfo>
											<labels>
												<label2>Iris</label2>
											</labels>
										</clipitem>
										<enabled>TRUE</enabled>
										<locked>FALSE</locked>
										<outputchannelindex>9</outputchannelindex>
									</track>
									<track TL.SQTrackAudioKeyframeStyle="0" TL.SQTrackShy="0" TL.SQTrackExpandedHeight="25" TL.SQTrackExpanded="0" MZ.TrackTargeted="0" PannerCurrentValue="0.5" PannerIsInverted="true" PannerStartKeyframe="-91445760000000000,0.5,0,0,0,0,0,0" PannerName="Balance" currentExplodedTrackIndex="1" totalExplodedTrackCount="2" premiereTrackType="Stereo">
										<clipitem id="clipitem-1180" frameBlend="FALSE" PannerCurrentValue="0.5" PannerKeyframes="" PannerStartKeyframe="-91445760000000000,0.5,0,0,0,0,0,0" PannerIsInverted="true" PannerName="Balance">
											<masterclipid>masterclip-275</masterclipid>
											<name>MVI_0061.MOV</name>
											<enabled>TRUE</enabled>
											<duration>1976</duration>
											<rate>
												<timebase>25</timebase>
												<ntsc>FALSE</ntsc>
											</rate>
											<start>5267</start>
											<end>7243</end>
											<in>0</in>
											<out>1976</out>
											<file id="file-248"/>
											<sourcetrack>
												<mediatype>audio</mediatype>
												<trackindex>2</trackindex>
											</sourcetrack>
												<filter>
													<effect>
														<name>Audio Pan</name>
														<effectid>audiopan</effectid>
														<effectcategory>audiopan</effectcategory>
														<effecttype>audiopan</effecttype>
														<mediatype>audio</mediatype>
														<parameter authoringApp="PremierePro">
															<parameterid>pan</parameterid>
															<name>Pan</name>
															<valuemin>-1</valuemin>
															<valuemax>1</valuemax>
															<value>0</value>
														</parameter>
													</effect>
												</filter>
											<link>
												<linkclipref>clipitem-1169</linkclipref>
												<mediatype>video</mediatype>
												<trackindex>5</trackindex>
												<clipindex>1</clipindex>
											</link>
											<link>
												<linkclipref>clipitem-1179</linkclipref>
												<mediatype>audio</mediatype>
												<trackindex>9</trackindex>
												<clipindex>1</clipindex>
												<groupindex>1</groupindex>
											</link>
											<link>
												<linkclipref>clipitem-1180</linkclipref>
												<mediatype>audio</mediatype>
												<trackindex>10</trackindex>
												<clipindex>1</clipindex>
												<groupindex>1</groupindex>
											</link>
											<logginginfo>
												<description></description>
												<scene></scene>
												<shottake></shottake>
												<lognote></lognote>
											</logginginfo>
											<labels>
												<label2>Iris</label2>
											</labels>
										</clipitem>
										<enabled>TRUE</enabled>
										<locked>FALSE</locked>
										<outputchannelindex>10</outputchannelindex>
									</track>
									<track TL.SQTrackAudioKeyframeStyle="0" TL.SQTrackShy="0" TL.SQTrackExpandedHeight="25" TL.SQTrackExpanded="0" MZ.TrackTargeted="0" PannerCurrentValue="0.5" PannerIsInverted="true" PannerStartKeyframe="-91445760000000000,0.5,0,0,0,0,0,0" PannerName="Balance" currentExplodedTrackIndex="0" totalExplodedTrackCount="2" premiereTrackType="Stereo">
										<clipitem id="clipitem-1181" frameBlend="FALSE" PannerCurrentValue="0.5" PannerKeyframes="" PannerStartKeyframe="-91445760000000000,0.5,0,0,0,0,0,0" PannerIsInverted="true" PannerName="Balance">
											<masterclipid>masterclip-276</masterclipid>
											<name>MVI_0170.MOV</name>
											<enabled>TRUE</enabled>
											<duration>461</duration>
											<rate>
												<timebase>25</timebase>
												<ntsc>FALSE</ntsc>
											</rate>
											<start>853</start>
											<end>1314</end>
											<in>0</in>
											<out>461</out>
											<file id="file-249"/>
											<sourcetrack>
												<mediatype>audio</mediatype>
												<trackindex>1</trackindex>
											</sourcetrack>
												<filter>
													<effect>
														<name>Audio Pan</name>
														<effectid>audiopan</effectid>
														<effectcategory>audiopan</effectcategory>
														<effecttype>audiopan</effecttype>
														<mediatype>audio</mediatype>
														<parameter authoringApp="PremierePro">
															<parameterid>pan</parameterid>
															<name>Pan</name>
															<valuemin>-1</valuemin>
															<valuemax>1</valuemax>
															<value>0</value>
														</parameter>
													</effect>
												</filter>
											<link>
												<linkclipref>clipitem-1170</linkclipref>
												<mediatype>video</mediatype>
												<trackindex>6</trackindex>
												<clipindex>1</clipindex>
											</link>
											<link>
												<linkclipref>clipitem-1181</linkclipref>
												<mediatype>audio</mediatype>
												<trackindex>11</trackindex>
												<clipindex>1</clipindex>
												<groupindex>1</groupindex>
											</link>
											<link>
												<linkclipref>clipitem-1182</linkclipref>
												<mediatype>audio</mediatype>
												<trackindex>12</trackindex>
												<clipindex>1</clipindex>
												<groupindex>1</groupindex>
											</link>
											<logginginfo>
												<description></description>
												<scene></scene>
												<shottake></shottake>
												<lognote></lognote>
											</logginginfo>
											<labels>
												<label2>Iris</label2>
											</labels>
										</clipitem>
										<enabled>TRUE</enabled>
										<locked>FALSE</locked>
										<outputchannelindex>11</outputchannelindex>
									</track>
									<track TL.SQTrackAudioKeyframeStyle="0" TL.SQTrackShy="0" TL.SQTrackExpandedHeight="25" TL.SQTrackExpanded="0" MZ.TrackTargeted="0" PannerCurrentValue="0.5" PannerIsInverted="true" PannerStartKeyframe="-91445760000000000,0.5,0,0,0,0,0,0" PannerName="Balance" currentExplodedTrackIndex="1" totalExplodedTrackCount="2" premiereTrackType="Stereo">
										<clipitem id="clipitem-1182" frameBlend="FALSE" PannerCurrentValue="0.5" PannerKeyframes="" PannerStartKeyframe="-91445760000000000,0.5,0,0,0,0,0,0" PannerIsInverted="true" PannerName="Balance">
											<masterclipid>masterclip-276</masterclipid>
											<name>MVI_0170.MOV</name>
											<enabled>TRUE</enabled>
											<duration>461</duration>
											<rate>
												<timebase>25</timebase>
												<ntsc>FALSE</ntsc>
											</rate>
											<start>853</start>
											<end>1314</end>
											<in>0</in>
											<out>461</out>
											<file id="file-249"/>
											<sourcetrack>
												<mediatype>audio</mediatype>
												<trackindex>2</trackindex>
											</sourcetrack>
												<filter>
													<effect>
														<name>Audio Pan</name>
														<effectid>audiopan</effectid>
														<effectcategory>audiopan</effectcategory>
														<effecttype>audiopan</effecttype>
														<mediatype>audio</mediatype>
														<parameter authoringApp="PremierePro">
															<parameterid>pan</parameterid>
															<name>Pan</name>
															<valuemin>-1</valuemin>
															<valuemax>1</valuemax>
															<value>0</value>
														</parameter>
													</effect>
												</filter>
											<link>
												<linkclipref>clipitem-1170</linkclipref>
												<mediatype>video</mediatype>
												<trackindex>6</trackindex>
												<clipindex>1</clipindex>
											</link>
											<link>
												<linkclipref>clipitem-1181</linkclipref>
												<mediatype>audio</mediatype>
												<trackindex>11</trackindex>
												<clipindex>1</clipindex>
												<groupindex>1</groupindex>
											</link>
											<link>
												<linkclipref>clipitem-1182</linkclipref>
												<mediatype>audio</mediatype>
												<trackindex>12</trackindex>
												<clipindex>1</clipindex>
												<groupindex>1</groupindex>
											</link>
											<logginginfo>
												<description></description>
												<scene></scene>
												<shottake></shottake>
												<lognote></lognote>
											</logginginfo>
											<labels>
												<label2>Iris</label2>
											</labels>
										</clipitem>
										<enabled>TRUE</enabled>
										<locked>FALSE</locked>
										<outputchannelindex>12</outputchannelindex>
									</track>
								</audio>
							</media>
							<timecode>
								<rate>
									<timebase>25</timebase>
									<ntsc>FALSE</ntsc>
								</rate>
								<string>00:00:00:00</string>
								<frame>0</frame>
								<displayformat>NDF</displayformat>
							</timecode>
						</sequence>
							<filter>
								<effect>
									<name>Audio Levels</name>
									<effectid>audiolevels</effectid>
									<effectcategory>audiolevels</effectcategory>
									<effecttype>audiolevels</effecttype>
									<mediatype>audio</mediatype>
									<parameter authoringApp="PremierePro">
										<parameterid>level</parameterid>
										<name>Level</name>
										<valuemin>0</valuemin>
										<valuemax>3.98109</valuemax>
										<value>1.25594</value>
									</parameter>
								</effect>
							</filter>
						<link>
							<linkclipref>clipitem-698</linkclipref>
							<mediatype>video</mediatype>
							<trackindex>1</trackindex>
							<clipindex>199</clipindex>
						</link>
						<link>
							<linkclipref>clipitem-1164</linkclipref>
							<mediatype>audio</mediatype>
							<trackindex>1</trackindex>
							<clipindex>102</clipindex>
						</link>
						<labels>
							<label2>Forest</label2>
						</labels>
					</clipitem>
					<clipitem id="clipitem-1183" frameBlend="FALSE">
						<masterclipid>masterclip-151</masterclipid>
						<name>AA014101.MXFCowi varemesse multi</name>
						<enabled>TRUE</enabled>
						<duration>7263</duration>
						<rate>
							<timebase>25</timebase>
							<ntsc>FALSE</ntsc>
						</rate>
						<start>23103</start>
						<end>23251</end>
						<in>6404</in>
						<out>6552</out>
						<sequence id="sequence-120"/>
							<filter>
								<effect>
									<name>Audio Levels</name>
									<effectid>audiolevels</effectid>
									<effectcategory>audiolevels</effectcategory>
									<effecttype>audiolevels</effecttype>
									<mediatype>audio</mediatype>
									<parameter authoringApp="PremierePro">
										<parameterid>level</parameterid>
										<name>Level</name>
										<valuemin>0</valuemin>
										<valuemax>3.98109</valuemax>
										<value>1.25594</value>
									</parameter>
								</effect>
							</filter>
						<link>
							<linkclipref>clipitem-1183</linkclipref>
							<mediatype>audio</mediatype>
							<trackindex>1</trackindex>
							<clipindex>103</clipindex>
						</link>
						<link>
							<linkclipref>clipitem-1438</linkclipref>
							<mediatype>audio</mediatype>
							<trackindex>3</trackindex>
							<clipindex>85</clipindex>
						</link>
						<labels>
							<label2>Forest</label2>
						</labels>
					</clipitem>
					<clipitem id="clipitem-1184" frameBlend="FALSE">
						<masterclipid>masterclip-151</masterclipid>
						<name>AA014101.MXFCowi varemesse multi</name>
						<enabled>TRUE</enabled>
						<duration>7263</duration>
						<rate>
							<timebase>25</timebase>
							<ntsc>FALSE</ntsc>
						</rate>
						<start>23251</start>
						<end>23405</end>
						<in>6574</in>
						<out>6728</out>
						<sequence id="sequence-120"/>
							<filter>
								<effect>
									<name>Audio Levels</name>
									<effectid>audiolevels</effectid>
									<effectcategory>audiolevels</effectcategory>
									<effecttype>audiolevels</effecttype>
									<mediatype>audio</mediatype>
									<parameter authoringApp="PremierePro">
										<parameterid>level</parameterid>
										<name>Level</name>
										<valuemin>0</valuemin>
										<valuemax>3.98109</valuemax>
										<value>1.25594</value>
									</parameter>
								</effect>
							</filter>
						<link>
							<linkclipref>clipitem-1184</linkclipref>
							<mediatype>audio</mediatype>
							<trackindex>1</trackindex>
							<clipindex>104</clipindex>
						</link>
						<link>
							<linkclipref>clipitem-1439</linkclipref>
							<mediatype>audio</mediatype>
							<trackindex>3</trackindex>
							<clipindex>86</clipindex>
						</link>
						<labels>
							<label2>Forest</label2>
						</labels>
					</clipitem>
					<clipitem id="clipitem-1185" frameBlend="FALSE">
						<masterclipid>masterclip-151</masterclipid>
						<name>AA014101.MXFCowi varemesse multi</name>
						<enabled>TRUE</enabled>
						<duration>7263</duration>
						<rate>
							<timebase>25</timebase>
							<ntsc>FALSE</ntsc>
						</rate>
						<start>23405</start>
						<end>23609</end>
						<in>6751</in>
						<out>6955</out>
						<sequence id="sequence-120"/>
							<filter>
								<effect>
									<name>Audio Levels</name>
									<effectid>audiolevels</effectid>
									<effectcategory>audiolevels</effectcategory>
									<effecttype>audiolevels</effecttype>
									<mediatype>audio</mediatype>
									<parameter authoringApp="PremierePro">
										<parameterid>level</parameterid>
										<name>Level</name>
										<valuemin>0</valuemin>
										<valuemax>3.98109</valuemax>
										<value>1.25594</value>
									</parameter>
								</effect>
							</filter>
						<link>
							<linkclipref>clipitem-712</linkclipref>
							<mediatype>video</mediatype>
							<trackindex>1</trackindex>
							<clipindex>201</clipindex>
						</link>
						<link>
							<linkclipref>clipitem-1185</linkclipref>
							<mediatype>audio</mediatype>
							<trackindex>1</trackindex>
							<clipindex>105</clipindex>
						</link>
						<link>
							<linkclipref>clipitem-1440</linkclipref>
							<mediatype>audio</mediatype>
							<trackindex>3</trackindex>
							<clipindex>87</clipindex>
						</link>
						<labels>
							<label2>Forest</label2>
						</labels>
					</clipitem>
					<clipitem id="clipitem-1186" frameBlend="FALSE">
						<masterclipid>masterclip-156</masterclipid>
						<name>AA013701.MXFCowi varemesse multi</name>
						<enabled>TRUE</enabled>
						<duration>12814</duration>
						<rate>
							<timebase>25</timebase>
							<ntsc>FALSE</ntsc>
						</rate>
						<start>23609</start>
						<end>23836</end>
						<in>10550</in>
						<out>10777</out>
						<sequence id="sequence-121" TL.SQAudioVisibleBase="0" TL.SQVideoVisibleBase="0" TL.SQVisibleBaseTime="0" TL.SQAVDividerPosition="0.5" TL.SQHideShyTracks="0" TL.SQHeaderWidth="188" Monitor.ProgramZoomOut="5700119040000" Monitor.ProgramZoomIn="0" TL.SQTimePerPixel="0.20000000000000001110223024625" AM.TrackVScrollPosition="0" AM.TrackScrollPosition="0" MZ.EditLine="0" MZ.Sequence.PreviewFrameSizeHeight="1080" MZ.Sequence.PreviewFrameSizeWidth="1920" MZ.Sequence.AudioTimeDisplayFormat="200" MZ.Sequence.PreviewRenderingClassID="1297106761" MZ.Sequence.PreviewRenderingPresetCodec="1297107278" MZ.Sequence.PreviewRenderingPresetPath="EncoderPresets/SequencePreview/795454d9-d3c2-429d-9474-923ab13b7018/I-Frame Only MPEG.epr" MZ.Sequence.PreviewUseMaxRenderQuality="false" MZ.Sequence.PreviewUseMaxBitDepth="false" MZ.Sequence.EditingModeGUID="795454d9-d3c2-429d-9474-923ab13b7018" MZ.Sequence.VideoTimeDisplayFormat="101" MZ.WorkOutPoint="15240960000000" MZ.WorkInPoint="0">
							<duration>3588</duration>
							<rate>
								<timebase>25</timebase>
								<ntsc>FALSE</ntsc>
							</rate>
							<name>AA013701.MXFCowi varemesse multi</name>
							<media>
								<video>
									<format>
										<samplecharacteristics>
											<rate>
												<timebase>25</timebase>
												<ntsc>FALSE</ntsc>
											</rate>
											<codec>
												<name>Apple ProRes 422</name>
												<appspecificdata>
													<appname>Final Cut Pro</appname>
													<appmanufacturer>Apple Inc.</appmanufacturer>
													<appversion>7.0</appversion>
													<data>
														<qtcodec>
															<codecname>Apple ProRes 422</codecname>
															<codectypename>Apple ProRes 422</codectypename>
															<codectypecode>apcn</codectypecode>
															<codecvendorcode>appl</codecvendorcode>
															<spatialquality>1024</spatialquality>
															<temporalquality>0</temporalquality>
															<keyframerate>0</keyframerate>
															<datarate>0</datarate>
														</qtcodec>
													</data>
												</appspecificdata>
											</codec>
											<width>1920</width>
											<height>1080</height>
											<anamorphic>FALSE</anamorphic>
											<pixelaspectratio>square</pixelaspectratio>
											<fielddominance>none</fielddominance>
											<colordepth>24</colordepth>
										</samplecharacteristics>
									</format>
									<track TL.SQTrackShy="0" TL.SQTrackExpandedHeight="50" TL.SQTrackExpanded="1" MZ.TrackTargeted="0">
										<clipitem id="clipitem-1187" frameBlend="FALSE">
											<masterclipid>masterclip-157</masterclipid>
											<name>AA013701.MXF</name>
											<enabled>TRUE</enabled>
											<duration>3588</duration>
											<rate>
												<timebase>25</timebase>
												<ntsc>FALSE</ntsc>
											</rate>
											<start>0</start>
											<end>3588</end>
											<in>0</in>
											<out>3588</out>
											<alphatype>none</alphatype>
											<file id="file-139"/>
											<link>
												<linkclipref>clipitem-1187</linkclipref>
												<mediatype>video</mediatype>
												<trackindex>1</trackindex>
												<clipindex>1</clipindex>
											</link>
											<link>
												<linkclipref>clipitem-1190</linkclipref>
												<mediatype>audio</mediatype>
												<trackindex>1</trackindex>
												<clipindex>1</clipindex>
												<groupindex>1</groupindex>
											</link>
											<link>
												<linkclipref>clipitem-1191</linkclipref>
												<mediatype>audio</mediatype>
												<trackindex>2</trackindex>
												<clipindex>1</clipindex>
												<groupindex>1</groupindex>
											</link>
											<logginginfo>
												<description></description>
												<scene></scene>
												<shottake>AA0137</shottake>
												<lognote></lognote>
											</logginginfo>
											<labels>
												<label2>Iris</label2>
											</labels>
										</clipitem>
										<enabled>TRUE</enabled>
										<locked>FALSE</locked>
									</track>
									<track TL.SQTrackShy="0" TL.SQTrackExpandedHeight="25" TL.SQTrackExpanded="0" MZ.TrackTargeted="0">
										<clipitem id="clipitem-1188" frameBlend="FALSE">
											<masterclipid>masterclip-158</masterclipid>
											<name>AA013801.MXF</name>
											<enabled>TRUE</enabled>
											<duration>8472</duration>
											<rate>
												<timebase>25</timebase>
												<ntsc>FALSE</ntsc>
											</rate>
											<start>4342</start>
											<end>12814</end>
											<in>0</in>
											<out>8472</out>
											<alphatype>none</alphatype>
											<file id="file-140"/>
											<link>
												<linkclipref>clipitem-1188</linkclipref>
												<mediatype>video</mediatype>
												<trackindex>2</trackindex>
												<clipindex>1</clipindex>
											</link>
											<link>
												<linkclipref>clipitem-1192</linkclipref>
												<mediatype>audio</mediatype>
												<trackindex>3</trackindex>
												<clipindex>1</clipindex>
												<groupindex>1</groupindex>
											</link>
											<link>
												<linkclipref>clipitem-1193</linkclipref>
												<mediatype>audio</mediatype>
												<trackindex>4</trackindex>
												<clipindex>1</clipindex>
												<groupindex>1</groupindex>
											</link>
											<logginginfo>
												<description></description>
												<scene></scene>
												<shottake>AA0138</shottake>
												<lognote></lognote>
											</logginginfo>
											<labels>
												<label2>Iris</label2>
											</labels>
										</clipitem>
										<enabled>TRUE</enabled>
										<locked>FALSE</locked>
									</track>
									<track TL.SQTrackShy="0" TL.SQTrackExpandedHeight="25" TL.SQTrackExpanded="0" MZ.TrackTargeted="0">
										<clipitem id="clipitem-1189" frameBlend="FALSE">
											<masterclipid>masterclip-159</masterclipid>
											<name>MVI_0056.MOV</name>
											<enabled>TRUE</enabled>
											<duration>12718</duration>
											<rate>
												<timebase>25</timebase>
												<ntsc>FALSE</ntsc>
											</rate>
											<start>5</start>
											<end>12723</end>
											<in>0</in>
											<out>12718</out>
											<alphatype>black</alphatype>
											<file id="file-141"/>
											<link>
												<linkclipref>clipitem-1189</linkclipref>
												<mediatype>video</mediatype>
												<trackindex>3</trackindex>
												<clipindex>1</clipindex>
											</link>
											<link>
												<linkclipref>clipitem-1194</linkclipref>
												<mediatype>audio</mediatype>
												<trackindex>5</trackindex>
												<clipindex>1</clipindex>
												<groupindex>1</groupindex>
											</link>
											<link>
												<linkclipref>clipitem-1195</linkclipref>
												<mediatype>audio</mediatype>
												<trackindex>6</trackindex>
												<clipindex>1</clipindex>
												<groupindex>1</groupindex>
											</link>
											<logginginfo>
												<description></description>
												<scene></scene>
												<shottake></shottake>
												<lognote></lognote>
											</logginginfo>
											<labels>
												<label2>Iris</label2>
											</labels>
										</clipitem>
										<enabled>TRUE</enabled>
										<locked>FALSE</locked>
									</track>
								</video>
								<audio>
									<format>
										<samplecharacteristics>
											<depth>16</depth>
											<samplerate>48000</samplerate>
										</samplecharacteristics>
									</format>
									<outputs>
										<group>
											<index>1</index>
											<numchannels>1</numchannels>
											<downmix>0</downmix>
											<channel>
												<index>1</index>
											</channel>
										</group>
										<group>
											<index>2</index>
											<numchannels>1</numchannels>
											<downmix>0</downmix>
											<channel>
												<index>2</index>
											</channel>
										</group>
										<group>
											<index>3</index>
											<numchannels>1</numchannels>
											<downmix>0</downmix>
											<channel>
												<index>3</index>
											</channel>
										</group>
										<group>
											<index>4</index>
											<numchannels>1</numchannels>
											<downmix>0</downmix>
											<channel>
												<index>4</index>
											</channel>
										</group>
										<group>
											<index>5</index>
											<numchannels>1</numchannels>
											<downmix>0</downmix>
											<channel>
												<index>5</index>
											</channel>
										</group>
										<group>
											<index>6</index>
											<numchannels>1</numchannels>
											<downmix>0</downmix>
											<channel>
												<index>6</index>
											</channel>
										</group>
									</outputs>
									<track TL.SQTrackAudioKeyframeStyle="0" TL.SQTrackShy="0" TL.SQTrackExpandedHeight="25" TL.SQTrackExpanded="0" MZ.TrackTargeted="1" PannerCurrentValue="0.5" PannerIsInverted="true" PannerStartKeyframe="-91445760000000000,0.5,0,0,0,0,0,0" PannerName="Balance" currentExplodedTrackIndex="0" totalExplodedTrackCount="2" premiereTrackType="Stereo">
										<clipitem id="clipitem-1190" frameBlend="FALSE" PannerCurrentValue="0.5" PannerKeyframes="" PannerStartKeyframe="-91445760000000000,0.5,0,0,0,0,0,0" PannerIsInverted="true" PannerName="Balance">
											<masterclipid>masterclip-157</masterclipid>
											<name>AA013701.MXF</name>
											<enabled>TRUE</enabled>
											<duration>3588</duration>
											<rate>
												<timebase>25</timebase>
												<ntsc>FALSE</ntsc>
											</rate>
											<start>0</start>
											<end>3588</end>
											<in>0</in>
											<out>3588</out>
											<file id="file-139"/>
											<sourcetrack>
												<mediatype>audio</mediatype>
												<trackindex>1</trackindex>
											</sourcetrack>
												<filter>
													<effect>
														<name>Audio Pan</name>
														<effectid>audiopan</effectid>
														<effectcategory>audiopan</effectcategory>
														<effecttype>audiopan</effecttype>
														<mediatype>audio</mediatype>
														<parameter authoringApp="PremierePro">
															<parameterid>pan</parameterid>
															<name>Pan</name>
															<valuemin>-1</valuemin>
															<valuemax>1</valuemax>
															<value>0</value>
														</parameter>
													</effect>
												</filter>
											<link>
												<linkclipref>clipitem-1187</linkclipref>
												<mediatype>video</mediatype>
												<trackindex>1</trackindex>
												<clipindex>1</clipindex>
											</link>
											<link>
												<linkclipref>clipitem-1190</linkclipref>
												<mediatype>audio</mediatype>
												<trackindex>1</trackindex>
												<clipindex>1</clipindex>
												<groupindex>1</groupindex>
											</link>
											<link>
												<linkclipref>clipitem-1191</linkclipref>
												<mediatype>audio</mediatype>
												<trackindex>2</trackindex>
												<clipindex>1</clipindex>
												<groupindex>1</groupindex>
											</link>
											<logginginfo>
												<description></description>
												<scene></scene>
												<shottake>AA0137</shottake>
												<lognote></lognote>
											</logginginfo>
											<labels>
												<label2>Iris</label2>
											</labels>
										</clipitem>
										<enabled>TRUE</enabled>
										<locked>FALSE</locked>
										<outputchannelindex>1</outputchannelindex>
									</track>
									<track TL.SQTrackAudioKeyframeStyle="0" TL.SQTrackShy="0" TL.SQTrackExpandedHeight="25" TL.SQTrackExpanded="0" MZ.TrackTargeted="1" PannerCurrentValue="0.5" PannerIsInverted="true" PannerStartKeyframe="-91445760000000000,0.5,0,0,0,0,0,0" PannerName="Balance" currentExplodedTrackIndex="1" totalExplodedTrackCount="2" premiereTrackType="Stereo">
										<clipitem id="clipitem-1191" frameBlend="FALSE" PannerCurrentValue="0.5" PannerKeyframes="" PannerStartKeyframe="-91445760000000000,0.5,0,0,0,0,0,0" PannerIsInverted="true" PannerName="Balance">
											<masterclipid>masterclip-157</masterclipid>
											<name>AA013701.MXF</name>
											<enabled>TRUE</enabled>
											<duration>3588</duration>
											<rate>
												<timebase>25</timebase>
												<ntsc>FALSE</ntsc>
											</rate>
											<start>0</start>
											<end>3588</end>
											<in>0</in>
											<out>3588</out>
											<file id="file-139"/>
											<sourcetrack>
												<mediatype>audio</mediatype>
												<trackindex>2</trackindex>
											</sourcetrack>
												<filter>
													<effect>
														<name>Audio Pan</name>
														<effectid>audiopan</effectid>
														<effectcategory>audiopan</effectcategory>
														<effecttype>audiopan</effecttype>
														<mediatype>audio</mediatype>
														<parameter authoringApp="PremierePro">
															<parameterid>pan</parameterid>
															<name>Pan</name>
															<valuemin>-1</valuemin>
															<valuemax>1</valuemax>
															<value>0</value>
														</parameter>
													</effect>
												</filter>
											<link>
												<linkclipref>clipitem-1187</linkclipref>
												<mediatype>video</mediatype>
												<trackindex>1</trackindex>
												<clipindex>1</clipindex>
											</link>
											<link>
												<linkclipref>clipitem-1190</linkclipref>
												<mediatype>audio</mediatype>
												<trackindex>1</trackindex>
												<clipindex>1</clipindex>
												<groupindex>1</groupindex>
											</link>
											<link>
												<linkclipref>clipitem-1191</linkclipref>
												<mediatype>audio</mediatype>
												<trackindex>2</trackindex>
												<clipindex>1</clipindex>
												<groupindex>1</groupindex>
											</link>
											<logginginfo>
												<description></description>
												<scene></scene>
												<shottake>AA0137</shottake>
												<lognote></lognote>
											</logginginfo>
											<labels>
												<label2>Iris</label2>
											</labels>
										</clipitem>
										<enabled>TRUE</enabled>
										<locked>FALSE</locked>
										<outputchannelindex>2</outputchannelindex>
									</track>
									<track TL.SQTrackAudioKeyframeStyle="0" TL.SQTrackShy="0" TL.SQTrackExpandedHeight="25" TL.SQTrackExpanded="0" MZ.TrackTargeted="1" PannerCurrentValue="0.5" PannerIsInverted="true" PannerStartKeyframe="-91445760000000000,0.5,0,0,0,0,0,0" PannerName="Balance" currentExplodedTrackIndex="0" totalExplodedTrackCount="2" premiereTrackType="Stereo">
										<clipitem id="clipitem-1192" frameBlend="FALSE" PannerCurrentValue="0.5" PannerKeyframes="" PannerStartKeyframe="-91445760000000000,0.5,0,0,0,0,0,0" PannerIsInverted="true" PannerName="Balance">
											<masterclipid>masterclip-158</masterclipid>
											<name>AA013801.MXF</name>
											<enabled>TRUE</enabled>
											<duration>8472</duration>
											<rate>
												<timebase>25</timebase>
												<ntsc>FALSE</ntsc>
											</rate>
											<start>4342</start>
											<end>12814</end>
											<in>0</in>
											<out>8472</out>
											<file id="file-140"/>
											<sourcetrack>
												<mediatype>audio</mediatype>
												<trackindex>1</trackindex>
											</sourcetrack>
												<filter>
													<effect>
														<name>Audio Pan</name>
														<effectid>audiopan</effectid>
														<effectcategory>audiopan</effectcategory>
														<effecttype>audiopan</effecttype>
														<mediatype>audio</mediatype>
														<parameter authoringApp="PremierePro">
															<parameterid>pan</parameterid>
															<name>Pan</name>
															<valuemin>-1</valuemin>
															<valuemax>1</valuemax>
															<value>0</value>
														</parameter>
													</effect>
												</filter>
											<link>
												<linkclipref>clipitem-1188</linkclipref>
												<mediatype>video</mediatype>
												<trackindex>2</trackindex>
												<clipindex>1</clipindex>
											</link>
											<link>
												<linkclipref>clipitem-1192</linkclipref>
												<mediatype>audio</mediatype>
												<trackindex>3</trackindex>
												<clipindex>1</clipindex>
												<groupindex>1</groupindex>
											</link>
											<link>
												<linkclipref>clipitem-1193</linkclipref>
												<mediatype>audio</mediatype>
												<trackindex>4</trackindex>
												<clipindex>1</clipindex>
												<groupindex>1</groupindex>
											</link>
											<logginginfo>
												<description></description>
												<scene></scene>
												<shottake>AA0138</shottake>
												<lognote></lognote>
											</logginginfo>
											<labels>
												<label2>Iris</label2>
											</labels>
										</clipitem>
										<enabled>TRUE</enabled>
										<locked>FALSE</locked>
										<outputchannelindex>3</outputchannelindex>
									</track>
									<track TL.SQTrackAudioKeyframeStyle="0" TL.SQTrackShy="0" TL.SQTrackExpandedHeight="25" TL.SQTrackExpanded="0" MZ.TrackTargeted="1" PannerCurrentValue="0.5" PannerIsInverted="true" PannerStartKeyframe="-91445760000000000,0.5,0,0,0,0,0,0" PannerName="Balance" currentExplodedTrackIndex="1" totalExplodedTrackCount="2" premiereTrackType="Stereo">
										<clipitem id="clipitem-1193" frameBlend="FALSE" PannerCurrentValue="0.5" PannerKeyframes="" PannerStartKeyframe="-91445760000000000,0.5,0,0,0,0,0,0" PannerIsInverted="true" PannerName="Balance">
											<masterclipid>masterclip-158</masterclipid>
											<name>AA013801.MXF</name>
											<enabled>TRUE</enabled>
											<duration>8472</duration>
											<rate>
												<timebase>25</timebase>
												<ntsc>FALSE</ntsc>
											</rate>
											<start>4342</start>
											<end>12814</end>
											<in>0</in>
											<out>8472</out>
											<file id="file-140"/>
											<sourcetrack>
												<mediatype>audio</mediatype>
												<trackindex>2</trackindex>
											</sourcetrack>
												<filter>
													<effect>
														<name>Audio Pan</name>
														<effectid>audiopan</effectid>
														<effectcategory>audiopan</effectcategory>
														<effecttype>audiopan</effecttype>
														<mediatype>audio</mediatype>
														<parameter authoringApp="PremierePro">
															<parameterid>pan</parameterid>
															<name>Pan</name>
															<valuemin>-1</valuemin>
															<valuemax>1</valuemax>
															<value>0</value>
														</parameter>
													</effect>
												</filter>
											<link>
												<linkclipref>clipitem-1188</linkclipref>
												<mediatype>video</mediatype>
												<trackindex>2</trackindex>
												<clipindex>1</clipindex>
											</link>
											<link>
												<linkclipref>clipitem-1192</linkclipref>
												<mediatype>audio</mediatype>
												<trackindex>3</trackindex>
												<clipindex>1</clipindex>
												<groupindex>1</groupindex>
											</link>
											<link>
												<linkclipref>clipitem-1193</linkclipref>
												<mediatype>audio</mediatype>
												<trackindex>4</trackindex>
												<clipindex>1</clipindex>
												<groupindex>1</groupindex>
											</link>
											<logginginfo>
												<description></description>
												<scene></scene>
												<shottake>AA0138</shottake>
												<lognote></lognote>
											</logginginfo>
											<labels>
												<label2>Iris</label2>
											</labels>
										</clipitem>
										<enabled>TRUE</enabled>
										<locked>FALSE</locked>
										<outputchannelindex>4</outputchannelindex>
									</track>
									<track TL.SQTrackAudioKeyframeStyle="0" TL.SQTrackShy="0" TL.SQTrackExpandedHeight="25" TL.SQTrackExpanded="0" MZ.TrackTargeted="1" PannerCurrentValue="0.5" PannerIsInverted="true" PannerStartKeyframe="-91445760000000000,0.5,0,0,0,0,0,0" PannerName="Balance" currentExplodedTrackIndex="0" totalExplodedTrackCount="2" premiereTrackType="Stereo">
										<clipitem id="clipitem-1194" frameBlend="FALSE" PannerCurrentValue="0.5" PannerKeyframes="" PannerStartKeyframe="-91445760000000000,0.5,0,0,0,0,0,0" PannerIsInverted="true" PannerName="Balance">
											<masterclipid>masterclip-159</masterclipid>
											<name>MVI_0056.MOV</name>
											<enabled>TRUE</enabled>
											<duration>12718</duration>
											<rate>
												<timebase>25</timebase>
												<ntsc>FALSE</ntsc>
											</rate>
											<start>5</start>
											<end>12723</end>
											<in>0</in>
											<out>12718</out>
											<file id="file-141"/>
											<sourcetrack>
												<mediatype>audio</mediatype>
												<trackindex>1</trackindex>
											</sourcetrack>
												<filter>
													<effect>
														<name>Audio Pan</name>
														<effectid>audiopan</effectid>
														<effectcategory>audiopan</effectcategory>
														<effecttype>audiopan</effecttype>
														<mediatype>audio</mediatype>
														<parameter authoringApp="PremierePro">
															<parameterid>pan</parameterid>
															<name>Pan</name>
															<valuemin>-1</valuemin>
															<valuemax>1</valuemax>
															<value>0</value>
														</parameter>
													</effect>
												</filter>
											<link>
												<linkclipref>clipitem-1189</linkclipref>
												<mediatype>video</mediatype>
												<trackindex>3</trackindex>
												<clipindex>1</clipindex>
											</link>
											<link>
												<linkclipref>clipitem-1194</linkclipref>
												<mediatype>audio</mediatype>
												<trackindex>5</trackindex>
												<clipindex>1</clipindex>
												<groupindex>1</groupindex>
											</link>
											<link>
												<linkclipref>clipitem-1195</linkclipref>
												<mediatype>audio</mediatype>
												<trackindex>6</trackindex>
												<clipindex>1</clipindex>
												<groupindex>1</groupindex>
											</link>
											<logginginfo>
												<description></description>
												<scene></scene>
												<shottake></shottake>
												<lognote></lognote>
											</logginginfo>
											<labels>
												<label2>Iris</label2>
											</labels>
										</clipitem>
										<enabled>TRUE</enabled>
										<locked>FALSE</locked>
										<outputchannelindex>5</outputchannelindex>
									</track>
									<track TL.SQTrackAudioKeyframeStyle="0" TL.SQTrackShy="0" TL.SQTrackExpandedHeight="25" TL.SQTrackExpanded="0" MZ.TrackTargeted="1" PannerCurrentValue="0.5" PannerIsInverted="true" PannerStartKeyframe="-91445760000000000,0.5,0,0,0,0,0,0" PannerName="Balance" currentExplodedTrackIndex="1" totalExplodedTrackCount="2" premiereTrackType="Stereo">
										<clipitem id="clipitem-1195" frameBlend="FALSE" PannerCurrentValue="0.5" PannerKeyframes="" PannerStartKeyframe="-91445760000000000,0.5,0,0,0,0,0,0" PannerIsInverted="true" PannerName="Balance">
											<masterclipid>masterclip-159</masterclipid>
											<name>MVI_0056.MOV</name>
											<enabled>TRUE</enabled>
											<duration>12718</duration>
											<rate>
												<timebase>25</timebase>
												<ntsc>FALSE</ntsc>
											</rate>
											<start>5</start>
											<end>12723</end>
											<in>0</in>
											<out>12718</out>
											<file id="file-141"/>
											<sourcetrack>
												<mediatype>audio</mediatype>
												<trackindex>2</trackindex>
											</sourcetrack>
												<filter>
													<effect>
														<name>Audio Pan</name>
														<effectid>audiopan</effectid>
														<effectcategory>audiopan</effectcategory>
														<effecttype>audiopan</effecttype>
														<mediatype>audio</mediatype>
														<parameter authoringApp="PremierePro">
															<parameterid>pan</parameterid>
															<name>Pan</name>
															<valuemin>-1</valuemin>
															<valuemax>1</valuemax>
															<value>0</value>
														</parameter>
													</effect>
												</filter>
											<link>
												<linkclipref>clipitem-1189</linkclipref>
												<mediatype>video</mediatype>
												<trackindex>3</trackindex>
												<clipindex>1</clipindex>
											</link>
											<link>
												<linkclipref>clipitem-1194</linkclipref>
												<mediatype>audio</mediatype>
												<trackindex>5</trackindex>
												<clipindex>1</clipindex>
												<groupindex>1</groupindex>
											</link>
											<link>
												<linkclipref>clipitem-1195</linkclipref>
												<mediatype>audio</mediatype>
												<trackindex>6</trackindex>
												<clipindex>1</clipindex>
												<groupindex>1</groupindex>
											</link>
											<logginginfo>
												<description></description>
												<scene></scene>
												<shottake></shottake>
												<lognote></lognote>
											</logginginfo>
											<labels>
												<label2>Iris</label2>
											</labels>
										</clipitem>
										<enabled>TRUE</enabled>
										<locked>FALSE</locked>
										<outputchannelindex>6</outputchannelindex>
									</track>
								</audio>
							</media>
							<timecode>
								<rate>
									<timebase>25</timebase>
									<ntsc>FALSE</ntsc>
								</rate>
								<string>00:00:00:00</string>
								<frame>0</frame>
								<displayformat>NDF</displayformat>
							</timecode>
						</sequence>
							<filter>
								<effect>
									<name>Audio Levels</name>
									<effectid>audiolevels</effectid>
									<effectcategory>audiolevels</effectcategory>
									<effecttype>audiolevels</effecttype>
									<mediatype>audio</mediatype>
									<parameter authoringApp="PremierePro">
										<parameterid>level</parameterid>
										<name>Level</name>
										<valuemin>0</valuemin>
										<valuemax>3.98109</valuemax>
										<value>1.25594</value>
									</parameter>
								</effect>
							</filter>
							<marker>
								<comment></comment>
								<name></name>
								<in>10507</in>
								<out>-1</out>
							</marker>
							<marker>
								<comment></comment>
								<name></name>
								<in>12671</in>
								<out>-1</out>
							</marker>
							<marker>
								<comment></comment>
								<name></name>
								<in>6786</in>
								<out>-1</out>
							</marker>
							<marker>
								<comment></comment>
								<name></name>
								<in>1344</in>
								<out>-1</out>
							</marker>
						<link>
							<linkclipref>clipitem-715</linkclipref>
							<mediatype>video</mediatype>
							<trackindex>1</trackindex>
							<clipindex>204</clipindex>
						</link>
						<link>
							<linkclipref>clipitem-1186</linkclipref>
							<mediatype>audio</mediatype>
							<trackindex>1</trackindex>
							<clipindex>106</clipindex>
						</link>
						<link>
							<linkclipref>clipitem-1441</linkclipref>
							<mediatype>audio</mediatype>
							<trackindex>3</trackindex>
							<clipindex>88</clipindex>
						</link>
						<labels>
							<label2>Forest</label2>
						</labels>
					</clipitem>
					<clipitem id="clipitem-1196" frameBlend="FALSE">
						<masterclipid>masterclip-160</masterclipid>
						<name>AA014301.MXFCowi varemesse multi</name>
						<enabled>TRUE</enabled>
						<duration>13167</duration>
						<rate>
							<timebase>25</timebase>
							<ntsc>FALSE</ntsc>
						</rate>
						<start>23836</start>
						<end>24555</end>
						<in>11828</in>
						<out>12547</out>
						<sequence id="sequence-122" MZ.Sequence.PreviewFrameSizeHeight="1080" MZ.Sequence.PreviewFrameSizeWidth="1920" MZ.Sequence.AudioTimeDisplayFormat="200" MZ.Sequence.PreviewRenderingClassID="1297106761" MZ.Sequence.PreviewRenderingPresetCodec="1297107278" MZ.Sequence.PreviewRenderingPresetPath="EncoderPresets/SequencePreview/795454d9-d3c2-429d-9474-923ab13b7018/I-Frame Only MPEG.epr" MZ.Sequence.PreviewUseMaxRenderQuality="false" MZ.Sequence.PreviewUseMaxBitDepth="false" MZ.Sequence.EditingModeGUID="795454d9-d3c2-429d-9474-923ab13b7018" MZ.Sequence.VideoTimeDisplayFormat="101" MZ.WorkOutPoint="15240960000000" MZ.WorkInPoint="0">
							<duration>11328</duration>
							<rate>
								<timebase>25</timebase>
								<ntsc>FALSE</ntsc>
							</rate>
							<name>AA014301.MXFCowi varemesse multi</name>
							<media>
								<video>
									<format>
										<samplecharacteristics>
											<rate>
												<timebase>25</timebase>
												<ntsc>FALSE</ntsc>
											</rate>
											<codec>
												<name>Apple ProRes 422</name>
												<appspecificdata>
													<appname>Final Cut Pro</appname>
													<appmanufacturer>Apple Inc.</appmanufacturer>
													<appversion>7.0</appversion>
													<data>
														<qtcodec>
															<codecname>Apple ProRes 422</codecname>
															<codectypename>Apple ProRes 422</codectypename>
															<codectypecode>apcn</codectypecode>
															<codecvendorcode>appl</codecvendorcode>
															<spatialquality>1024</spatialquality>
															<temporalquality>0</temporalquality>
															<keyframerate>0</keyframerate>
															<datarate>0</datarate>
														</qtcodec>
													</data>
												</appspecificdata>
											</codec>
											<width>1920</width>
											<height>1080</height>
											<anamorphic>FALSE</anamorphic>
											<pixelaspectratio>square</pixelaspectratio>
											<fielddominance>none</fielddominance>
											<colordepth>24</colordepth>
										</samplecharacteristics>
									</format>
									<track>
										<clipitem id="clipitem-1197" frameBlend="FALSE">
											<masterclipid>masterclip-161</masterclipid>
											<name>AA014301.MXF</name>
											<enabled>TRUE</enabled>
											<duration>11328</duration>
											<rate>
												<timebase>25</timebase>
												<ntsc>FALSE</ntsc>
											</rate>
											<start>0</start>
											<end>11328</end>
											<in>0</in>
											<out>11328</out>
											<alphatype>none</alphatype>
											<file id="file-142"/>
											<link>
												<linkclipref>clipitem-1197</linkclipref>
												<mediatype>video</mediatype>
												<trackindex>1</trackindex>
												<clipindex>1</clipindex>
											</link>
											<link>
												<linkclipref>clipitem-1201</linkclipref>
												<mediatype>audio</mediatype>
												<trackindex>1</trackindex>
												<clipindex>1</clipindex>
												<groupindex>1</groupindex>
											</link>
											<link>
												<linkclipref>clipitem-1202</linkclipref>
												<mediatype>audio</mediatype>
												<trackindex>2</trackindex>
												<clipindex>1</clipindex>
												<groupindex>1</groupindex>
											</link>
											<logginginfo>
												<description></description>
												<scene></scene>
												<shottake>AA0143</shottake>
												<lognote></lognote>
											</logginginfo>
											<labels>
												<label2>Iris</label2>
											</labels>
										</clipitem>
										<enabled>TRUE</enabled>
										<locked>FALSE</locked>
									</track>
									<track>
										<clipitem id="clipitem-1198" frameBlend="FALSE">
											<masterclipid>masterclip-162</masterclipid>
											<name>AA014401.MXF</name>
											<enabled>TRUE</enabled>
											<duration>1524</duration>
											<rate>
												<timebase>25</timebase>
												<ntsc>FALSE</ntsc>
											</rate>
											<start>11643</start>
											<end>13167</end>
											<in>0</in>
											<out>1524</out>
											<alphatype>none</alphatype>
											<file id="file-143"/>
											<link>
												<linkclipref>clipitem-1198</linkclipref>
												<mediatype>video</mediatype>
												<trackindex>2</trackindex>
												<clipindex>1</clipindex>
											</link>
											<link>
												<linkclipref>clipitem-1203</linkclipref>
												<mediatype>audio</mediatype>
												<trackindex>3</trackindex>
												<clipindex>1</clipindex>
												<groupindex>1</groupindex>
											</link>
											<link>
												<linkclipref>clipitem-1204</linkclipref>
												<mediatype>audio</mediatype>
												<trackindex>4</trackindex>
												<clipindex>1</clipindex>
												<groupindex>1</groupindex>
											</link>
											<logginginfo>
												<description></description>
												<scene></scene>
												<shottake>AA0144</shottake>
												<lognote></lognote>
											</logginginfo>
											<labels>
												<label2>Iris</label2>
											</labels>
										</clipitem>
										<enabled>TRUE</enabled>
										<locked>FALSE</locked>
									</track>
									<track>
										<clipitem id="clipitem-1199" frameBlend="FALSE">
											<masterclipid>masterclip-163</masterclipid>
											<name>MVI_0062.MOV</name>
											<enabled>TRUE</enabled>
											<duration>3051</duration>
											<rate>
												<timebase>25</timebase>
												<ntsc>FALSE</ntsc>
											</rate>
											<start>260</start>
											<end>3311</end>
											<in>0</in>
											<out>3051</out>
											<alphatype>black</alphatype>
											<file id="file-144"/>
											<link>
												<linkclipref>clipitem-1199</linkclipref>
												<mediatype>video</mediatype>
												<trackindex>3</trackindex>
												<clipindex>1</clipindex>
											</link>
											<link>
												<linkclipref>clipitem-1205</linkclipref>
												<mediatype>audio</mediatype>
												<trackindex>5</trackindex>
												<clipindex>1</clipindex>
												<groupindex>1</groupindex>
											</link>
											<link>
												<linkclipref>clipitem-1206</linkclipref>
												<mediatype>audio</mediatype>
												<trackindex>6</trackindex>
												<clipindex>1</clipindex>
												<groupindex>1</groupindex>
											</link>
											<logginginfo>
												<description></description>
												<scene></scene>
												<shottake></shottake>
												<lognote></lognote>
											</logginginfo>
											<labels>
												<label2>Iris</label2>
											</labels>
										</clipitem>
										<enabled>TRUE</enabled>
										<locked>FALSE</locked>
									</track>
									<track>
										<clipitem id="clipitem-1200" frameBlend="FALSE">
											<masterclipid>masterclip-164</masterclipid>
											<name>MVI_0063.MOV</name>
											<enabled>TRUE</enabled>
											<duration>9772</duration>
											<rate>
												<timebase>25</timebase>
												<ntsc>FALSE</ntsc>
											</rate>
											<start>3354</start>
											<end>13126</end>
											<in>0</in>
											<out>9772</out>
											<alphatype>black</alphatype>
											<file id="file-145"/>
											<link>
												<linkclipref>clipitem-1200</linkclipref>
												<mediatype>video</mediatype>
												<trackindex>4</trackindex>
												<clipindex>1</clipindex>
											</link>
											<link>
												<linkclipref>clipitem-1207</linkclipref>
												<mediatype>audio</mediatype>
												<trackindex>7</trackindex>
												<clipindex>1</clipindex>
												<groupindex>1</groupindex>
											</link>
											<link>
												<linkclipref>clipitem-1208</linkclipref>
												<mediatype>audio</mediatype>
												<trackindex>8</trackindex>
												<clipindex>1</clipindex>
												<groupindex>1</groupindex>
											</link>
											<logginginfo>
												<description></description>
												<scene></scene>
												<shottake></shottake>
												<lognote></lognote>
											</logginginfo>
											<labels>
												<label2>Iris</label2>
											</labels>
										</clipitem>
										<enabled>TRUE</enabled>
										<locked>FALSE</locked>
									</track>
								</video>
								<audio>
									<format>
										<samplecharacteristics>
											<depth>16</depth>
											<samplerate>48000</samplerate>
										</samplecharacteristics>
									</format>
									<outputs>
										<group>
											<index>1</index>
											<numchannels>1</numchannels>
											<downmix>0</downmix>
											<channel>
												<index>1</index>
											</channel>
										</group>
										<group>
											<index>2</index>
											<numchannels>1</numchannels>
											<downmix>0</downmix>
											<channel>
												<index>2</index>
											</channel>
										</group>
										<group>
											<index>3</index>
											<numchannels>1</numchannels>
											<downmix>0</downmix>
											<channel>
												<index>3</index>
											</channel>
										</group>
										<group>
											<index>4</index>
											<numchannels>1</numchannels>
											<downmix>0</downmix>
											<channel>
												<index>4</index>
											</channel>
										</group>
										<group>
											<index>5</index>
											<numchannels>1</numchannels>
											<downmix>0</downmix>
											<channel>
												<index>5</index>
											</channel>
										</group>
										<group>
											<index>6</index>
											<numchannels>1</numchannels>
											<downmix>0</downmix>
											<channel>
												<index>6</index>
											</channel>
										</group>
										<group>
											<index>7</index>
											<numchannels>1</numchannels>
											<downmix>0</downmix>
											<channel>
												<index>7</index>
											</channel>
										</group>
										<group>
											<index>8</index>
											<numchannels>1</numchannels>
											<downmix>0</downmix>
											<channel>
												<index>8</index>
											</channel>
										</group>
									</outputs>
									<track TL.SQTrackExpandedHeight="25" TL.SQTrackExpanded="0" MZ.TrackTargeted="1" PannerCurrentValue="0.5" PannerIsInverted="true" PannerStartKeyframe="-91445760000000000,0.5,0,0,0,0,0,0" PannerName="Balance" currentExplodedTrackIndex="0" totalExplodedTrackCount="2" premiereTrackType="Stereo">
										<clipitem id="clipitem-1201" frameBlend="FALSE" PannerCurrentValue="0.5" PannerKeyframes="" PannerStartKeyframe="-91445760000000000,0.5,0,0,0,0,0,0" PannerIsInverted="true" PannerName="Balance">
											<masterclipid>masterclip-161</masterclipid>
											<name>AA014301.MXF</name>
											<enabled>TRUE</enabled>
											<duration>11328</duration>
											<rate>
												<timebase>25</timebase>
												<ntsc>FALSE</ntsc>
											</rate>
											<start>0</start>
											<end>11328</end>
											<in>0</in>
											<out>11328</out>
											<file id="file-142"/>
											<sourcetrack>
												<mediatype>audio</mediatype>
												<trackindex>1</trackindex>
											</sourcetrack>
												<filter>
													<effect>
														<name>Audio Pan</name>
														<effectid>audiopan</effectid>
														<effectcategory>audiopan</effectcategory>
														<effecttype>audiopan</effecttype>
														<mediatype>audio</mediatype>
														<parameter authoringApp="PremierePro">
															<parameterid>pan</parameterid>
															<name>Pan</name>
															<valuemin>-1</valuemin>
															<valuemax>1</valuemax>
															<value>0</value>
														</parameter>
													</effect>
												</filter>
											<link>
												<linkclipref>clipitem-1197</linkclipref>
												<mediatype>video</mediatype>
												<trackindex>1</trackindex>
												<clipindex>1</clipindex>
											</link>
											<link>
												<linkclipref>clipitem-1201</linkclipref>
												<mediatype>audio</mediatype>
												<trackindex>1</trackindex>
												<clipindex>1</clipindex>
												<groupindex>1</groupindex>
											</link>
											<link>
												<linkclipref>clipitem-1202</linkclipref>
												<mediatype>audio</mediatype>
												<trackindex>2</trackindex>
												<clipindex>1</clipindex>
												<groupindex>1</groupindex>
											</link>
											<logginginfo>
												<description></description>
												<scene></scene>
												<shottake>AA0143</shottake>
												<lognote></lognote>
											</logginginfo>
											<labels>
												<label2>Iris</label2>
											</labels>
										</clipitem>
										<enabled>TRUE</enabled>
										<locked>FALSE</locked>
										<outputchannelindex>1</outputchannelindex>
									</track>
									<track TL.SQTrackExpandedHeight="25" TL.SQTrackExpanded="0" MZ.TrackTargeted="1" PannerCurrentValue="0.5" PannerIsInverted="true" PannerStartKeyframe="-91445760000000000,0.5,0,0,0,0,0,0" PannerName="Balance" currentExplodedTrackIndex="1" totalExplodedTrackCount="2" premiereTrackType="Stereo">
										<clipitem id="clipitem-1202" frameBlend="FALSE" PannerCurrentValue="0.5" PannerKeyframes="" PannerStartKeyframe="-91445760000000000,0.5,0,0,0,0,0,0" PannerIsInverted="true" PannerName="Balance">
											<masterclipid>masterclip-161</masterclipid>
											<name>AA014301.MXF</name>
											<enabled>TRUE</enabled>
											<duration>11328</duration>
											<rate>
												<timebase>25</timebase>
												<ntsc>FALSE</ntsc>
											</rate>
											<start>0</start>
											<end>11328</end>
											<in>0</in>
											<out>11328</out>
											<file id="file-142"/>
											<sourcetrack>
												<mediatype>audio</mediatype>
												<trackindex>2</trackindex>
											</sourcetrack>
												<filter>
													<effect>
														<name>Audio Pan</name>
														<effectid>audiopan</effectid>
														<effectcategory>audiopan</effectcategory>
														<effecttype>audiopan</effecttype>
														<mediatype>audio</mediatype>
														<parameter authoringApp="PremierePro">
															<parameterid>pan</parameterid>
															<name>Pan</name>
															<valuemin>-1</valuemin>
															<valuemax>1</valuemax>
															<value>0</value>
														</parameter>
													</effect>
												</filter>
											<link>
												<linkclipref>clipitem-1197</linkclipref>
												<mediatype>video</mediatype>
												<trackindex>1</trackindex>
												<clipindex>1</clipindex>
											</link>
											<link>
												<linkclipref>clipitem-1201</linkclipref>
												<mediatype>audio</mediatype>
												<trackindex>1</trackindex>
												<clipindex>1</clipindex>
												<groupindex>1</groupindex>
											</link>
											<link>
												<linkclipref>clipitem-1202</linkclipref>
												<mediatype>audio</mediatype>
												<trackindex>2</trackindex>
												<clipindex>1</clipindex>
												<groupindex>1</groupindex>
											</link>
											<logginginfo>
												<description></description>
												<scene></scene>
												<shottake>AA0143</shottake>
												<lognote></lognote>
											</logginginfo>
											<labels>
												<label2>Iris</label2>
											</labels>
										</clipitem>
										<enabled>TRUE</enabled>
										<locked>FALSE</locked>
										<outputchannelindex>2</outputchannelindex>
									</track>
									<track TL.SQTrackExpandedHeight="25" TL.SQTrackExpanded="0" MZ.TrackTargeted="1" PannerCurrentValue="0.5" PannerIsInverted="true" PannerStartKeyframe="-91445760000000000,0.5,0,0,0,0,0,0" PannerName="Balance" currentExplodedTrackIndex="0" totalExplodedTrackCount="2" premiereTrackType="Stereo">
										<clipitem id="clipitem-1203" frameBlend="FALSE" PannerCurrentValue="0.5" PannerKeyframes="" PannerStartKeyframe="-91445760000000000,0.5,0,0,0,0,0,0" PannerIsInverted="true" PannerName="Balance">
											<masterclipid>masterclip-162</masterclipid>
											<name>AA014401.MXF</name>
											<enabled>TRUE</enabled>
											<duration>1524</duration>
											<rate>
												<timebase>25</timebase>
												<ntsc>FALSE</ntsc>
											</rate>
											<start>11643</start>
											<end>13167</end>
											<in>0</in>
											<out>1524</out>
											<file id="file-143"/>
											<sourcetrack>
												<mediatype>audio</mediatype>
												<trackindex>1</trackindex>
											</sourcetrack>
												<filter>
													<effect>
														<name>Audio Pan</name>
														<effectid>audiopan</effectid>
														<effectcategory>audiopan</effectcategory>
														<effecttype>audiopan</effecttype>
														<mediatype>audio</mediatype>
														<parameter authoringApp="PremierePro">
															<parameterid>pan</parameterid>
															<name>Pan</name>
															<valuemin>-1</valuemin>
															<valuemax>1</valuemax>
															<value>0</value>
														</parameter>
													</effect>
												</filter>
											<link>
												<linkclipref>clipitem-1198</linkclipref>
												<mediatype>video</mediatype>
												<trackindex>2</trackindex>
												<clipindex>1</clipindex>
											</link>
											<link>
												<linkclipref>clipitem-1203</linkclipref>
												<mediatype>audio</mediatype>
												<trackindex>3</trackindex>
												<clipindex>1</clipindex>
												<groupindex>1</groupindex>
											</link>
											<link>
												<linkclipref>clipitem-1204</linkclipref>
												<mediatype>audio</mediatype>
												<trackindex>4</trackindex>
												<clipindex>1</clipindex>
												<groupindex>1</groupindex>
											</link>
											<logginginfo>
												<description></description>
												<scene></scene>
												<shottake>AA0144</shottake>
												<lognote></lognote>
											</logginginfo>
											<labels>
												<label2>Iris</label2>
											</labels>
										</clipitem>
										<enabled>TRUE</enabled>
										<locked>FALSE</locked>
										<outputchannelindex>3</outputchannelindex>
									</track>
									<track TL.SQTrackExpandedHeight="25" TL.SQTrackExpanded="0" MZ.TrackTargeted="1" PannerCurrentValue="0.5" PannerIsInverted="true" PannerStartKeyframe="-91445760000000000,0.5,0,0,0,0,0,0" PannerName="Balance" currentExplodedTrackIndex="1" totalExplodedTrackCount="2" premiereTrackType="Stereo">
										<clipitem id="clipitem-1204" frameBlend="FALSE" PannerCurrentValue="0.5" PannerKeyframes="" PannerStartKeyframe="-91445760000000000,0.5,0,0,0,0,0,0" PannerIsInverted="true" PannerName="Balance">
											<masterclipid>masterclip-162</masterclipid>
											<name>AA014401.MXF</name>
											<enabled>TRUE</enabled>
											<duration>1524</duration>
											<rate>
												<timebase>25</timebase>
												<ntsc>FALSE</ntsc>
											</rate>
											<start>11643</start>
											<end>13167</end>
											<in>0</in>
											<out>1524</out>
											<file id="file-143"/>
											<sourcetrack>
												<mediatype>audio</mediatype>
												<trackindex>2</trackindex>
											</sourcetrack>
												<filter>
													<effect>
														<name>Audio Pan</name>
														<effectid>audiopan</effectid>
														<effectcategory>audiopan</effectcategory>
														<effecttype>audiopan</effecttype>
														<mediatype>audio</mediatype>
														<parameter authoringApp="PremierePro">
															<parameterid>pan</parameterid>
															<name>Pan</name>
															<valuemin>-1</valuemin>
															<valuemax>1</valuemax>
															<value>0</value>
														</parameter>
													</effect>
												</filter>
											<link>
												<linkclipref>clipitem-1198</linkclipref>
												<mediatype>video</mediatype>
												<trackindex>2</trackindex>
												<clipindex>1</clipindex>
											</link>
											<link>
												<linkclipref>clipitem-1203</linkclipref>
												<mediatype>audio</mediatype>
												<trackindex>3</trackindex>
												<clipindex>1</clipindex>
												<groupindex>1</groupindex>
											</link>
											<link>
												<linkclipref>clipitem-1204</linkclipref>
												<mediatype>audio</mediatype>
												<trackindex>4</trackindex>
												<clipindex>1</clipindex>
												<groupindex>1</groupindex>
											</link>
											<logginginfo>
												<description></description>
												<scene></scene>
												<shottake>AA0144</shottake>
												<lognote></lognote>
											</logginginfo>
											<labels>
												<label2>Iris</label2>
											</labels>
										</clipitem>
										<enabled>TRUE</enabled>
										<locked>FALSE</locked>
										<outputchannelindex>4</outputchannelindex>
									</track>
									<track TL.SQTrackExpandedHeight="25" TL.SQTrackExpanded="0" MZ.TrackTargeted="1" PannerCurrentValue="0.5" PannerIsInverted="true" PannerStartKeyframe="-91445760000000000,0.5,0,0,0,0,0,0" PannerName="Balance" currentExplodedTrackIndex="0" totalExplodedTrackCount="2" premiereTrackType="Stereo">
										<clipitem id="clipitem-1205" frameBlend="FALSE" PannerCurrentValue="0.5" PannerKeyframes="" PannerStartKeyframe="-91445760000000000,0.5,0,0,0,0,0,0" PannerIsInverted="true" PannerName="Balance">
											<masterclipid>masterclip-163</masterclipid>
											<name>MVI_0062.MOV</name>
											<enabled>TRUE</enabled>
											<duration>3051</duration>
											<rate>
												<timebase>25</timebase>
												<ntsc>FALSE</ntsc>
											</rate>
											<start>260</start>
											<end>3311</end>
											<in>0</in>
											<out>3051</out>
											<file id="file-144"/>
											<sourcetrack>
												<mediatype>audio</mediatype>
												<trackindex>1</trackindex>
											</sourcetrack>
												<filter>
													<effect>
														<name>Audio Pan</name>
														<effectid>audiopan</effectid>
														<effectcategory>audiopan</effectcategory>
														<effecttype>audiopan</effecttype>
														<mediatype>audio</mediatype>
														<parameter authoringApp="PremierePro">
															<parameterid>pan</parameterid>
															<name>Pan</name>
															<valuemin>-1</valuemin>
															<valuemax>1</valuemax>
															<value>0</value>
														</parameter>
													</effect>
												</filter>
											<link>
												<linkclipref>clipitem-1199</linkclipref>
												<mediatype>video</mediatype>
												<trackindex>3</trackindex>
												<clipindex>1</clipindex>
											</link>
											<link>
												<linkclipref>clipitem-1205</linkclipref>
												<mediatype>audio</mediatype>
												<trackindex>5</trackindex>
												<clipindex>1</clipindex>
												<groupindex>1</groupindex>
											</link>
											<link>
												<linkclipref>clipitem-1206</linkclipref>
												<mediatype>audio</mediatype>
												<trackindex>6</trackindex>
												<clipindex>1</clipindex>
												<groupindex>1</groupindex>
											</link>
											<logginginfo>
												<description></description>
												<scene></scene>
												<shottake></shottake>
												<lognote></lognote>
											</logginginfo>
											<labels>
												<label2>Iris</label2>
											</labels>
										</clipitem>
										<enabled>TRUE</enabled>
										<locked>FALSE</locked>
										<outputchannelindex>5</outputchannelindex>
									</track>
									<track TL.SQTrackExpandedHeight="25" TL.SQTrackExpanded="0" MZ.TrackTargeted="1" PannerCurrentValue="0.5" PannerIsInverted="true" PannerStartKeyframe="-91445760000000000,0.5,0,0,0,0,0,0" PannerName="Balance" currentExplodedTrackIndex="1" totalExplodedTrackCount="2" premiereTrackType="Stereo">
										<clipitem id="clipitem-1206" frameBlend="FALSE" PannerCurrentValue="0.5" PannerKeyframes="" PannerStartKeyframe="-91445760000000000,0.5,0,0,0,0,0,0" PannerIsInverted="true" PannerName="Balance">
											<masterclipid>masterclip-163</masterclipid>
											<name>MVI_0062.MOV</name>
											<enabled>TRUE</enabled>
											<duration>3051</duration>
											<rate>
												<timebase>25</timebase>
												<ntsc>FALSE</ntsc>
											</rate>
											<start>260</start>
											<end>3311</end>
											<in>0</in>
											<out>3051</out>
											<file id="file-144"/>
											<sourcetrack>
												<mediatype>audio</mediatype>
												<trackindex>2</trackindex>
											</sourcetrack>
												<filter>
													<effect>
														<name>Audio Pan</name>
														<effectid>audiopan</effectid>
														<effectcategory>audiopan</effectcategory>
														<effecttype>audiopan</effecttype>
														<mediatype>audio</mediatype>
														<parameter authoringApp="PremierePro">
															<parameterid>pan</parameterid>
															<name>Pan</name>
															<valuemin>-1</valuemin>
															<valuemax>1</valuemax>
															<value>0</value>
														</parameter>
													</effect>
												</filter>
											<link>
												<linkclipref>clipitem-1199</linkclipref>
												<mediatype>video</mediatype>
												<trackindex>3</trackindex>
												<clipindex>1</clipindex>
											</link>
											<link>
												<linkclipref>clipitem-1205</linkclipref>
												<mediatype>audio</mediatype>
												<trackindex>5</trackindex>
												<clipindex>1</clipindex>
												<groupindex>1</groupindex>
											</link>
											<link>
												<linkclipref>clipitem-1206</linkclipref>
												<mediatype>audio</mediatype>
												<trackindex>6</trackindex>
												<clipindex>1</clipindex>
												<groupindex>1</groupindex>
											</link>
											<logginginfo>
												<description></description>
												<scene></scene>
												<shottake></shottake>
												<lognote></lognote>
											</logginginfo>
											<labels>
												<label2>Iris</label2>
											</labels>
										</clipitem>
										<enabled>TRUE</enabled>
										<locked>FALSE</locked>
										<outputchannelindex>6</outputchannelindex>
									</track>
									<track PannerCurrentValue="0.5" PannerIsInverted="true" PannerStartKeyframe="-91445760000000000,0.5,0,0,0,0,0,0" PannerName="Balance" currentExplodedTrackIndex="0" totalExplodedTrackCount="2" premiereTrackType="Stereo">
										<clipitem id="clipitem-1207" frameBlend="FALSE" PannerCurrentValue="0.5" PannerKeyframes="" PannerStartKeyframe="-91445760000000000,0.5,0,0,0,0,0,0" PannerIsInverted="true" PannerName="Balance">
											<masterclipid>masterclip-164</masterclipid>
											<name>MVI_0063.MOV</name>
											<enabled>TRUE</enabled>
											<duration>9772</duration>
											<rate>
												<timebase>25</timebase>
												<ntsc>FALSE</ntsc>
											</rate>
											<start>3354</start>
											<end>13126</end>
											<in>0</in>
											<out>9772</out>
											<file id="file-145"/>
											<sourcetrack>
												<mediatype>audio</mediatype>
												<trackindex>1</trackindex>
											</sourcetrack>
												<filter>
													<effect>
														<name>Audio Pan</name>
														<effectid>audiopan</effectid>
														<effectcategory>audiopan</effectcategory>
														<effecttype>audiopan</effecttype>
														<mediatype>audio</mediatype>
														<parameter authoringApp="PremierePro">
															<parameterid>pan</parameterid>
															<name>Pan</name>
															<valuemin>-1</valuemin>
															<valuemax>1</valuemax>
															<value>0</value>
														</parameter>
													</effect>
												</filter>
											<link>
												<linkclipref>clipitem-1200</linkclipref>
												<mediatype>video</mediatype>
												<trackindex>4</trackindex>
												<clipindex>1</clipindex>
											</link>
											<link>
												<linkclipref>clipitem-1207</linkclipref>
												<mediatype>audio</mediatype>
												<trackindex>7</trackindex>
												<clipindex>1</clipindex>
												<groupindex>1</groupindex>
											</link>
											<link>
												<linkclipref>clipitem-1208</linkclipref>
												<mediatype>audio</mediatype>
												<trackindex>8</trackindex>
												<clipindex>1</clipindex>
												<groupindex>1</groupindex>
											</link>
											<logginginfo>
												<description></description>
												<scene></scene>
												<shottake></shottake>
												<lognote></lognote>
											</logginginfo>
											<labels>
												<label2>Iris</label2>
											</labels>
										</clipitem>
										<enabled>TRUE</enabled>
										<locked>FALSE</locked>
										<outputchannelindex>7</outputchannelindex>
									</track>
									<track PannerCurrentValue="0.5" PannerIsInverted="true" PannerStartKeyframe="-91445760000000000,0.5,0,0,0,0,0,0" PannerName="Balance" currentExplodedTrackIndex="1" totalExplodedTrackCount="2" premiereTrackType="Stereo">
										<clipitem id="clipitem-1208" frameBlend="FALSE" PannerCurrentValue="0.5" PannerKeyframes="" PannerStartKeyframe="-91445760000000000,0.5,0,0,0,0,0,0" PannerIsInverted="true" PannerName="Balance">
											<masterclipid>masterclip-164</masterclipid>
											<name>MVI_0063.MOV</name>
											<enabled>TRUE</enabled>
											<duration>9772</duration>
											<rate>
												<timebase>25</timebase>
												<ntsc>FALSE</ntsc>
											</rate>
											<start>3354</start>
											<end>13126</end>
											<in>0</in>
											<out>9772</out>
											<file id="file-145"/>
											<sourcetrack>
												<mediatype>audio</mediatype>
												<trackindex>2</trackindex>
											</sourcetrack>
												<filter>
													<effect>
														<name>Audio Pan</name>
														<effectid>audiopan</effectid>
														<effectcategory>audiopan</effectcategory>
														<effecttype>audiopan</effecttype>
														<mediatype>audio</mediatype>
														<parameter authoringApp="PremierePro">
															<parameterid>pan</parameterid>
															<name>Pan</name>
															<valuemin>-1</valuemin>
															<valuemax>1</valuemax>
															<value>0</value>
														</parameter>
													</effect>
												</filter>
											<link>
												<linkclipref>clipitem-1200</linkclipref>
												<mediatype>video</mediatype>
												<trackindex>4</trackindex>
												<clipindex>1</clipindex>
											</link>
											<link>
												<linkclipref>clipitem-1207</linkclipref>
												<mediatype>audio</mediatype>
												<trackindex>7</trackindex>
												<clipindex>1</clipindex>
												<groupindex>1</groupindex>
											</link>
											<link>
												<linkclipref>clipitem-1208</linkclipref>
												<mediatype>audio</mediatype>
												<trackindex>8</trackindex>
												<clipindex>1</clipindex>
												<groupindex>1</groupindex>
											</link>
											<logginginfo>
												<description></description>
												<scene></scene>
												<shottake></shottake>
												<lognote></lognote>
											</logginginfo>
											<labels>
												<label2>Iris</label2>
											</labels>
										</clipitem>
										<enabled>TRUE</enabled>
										<locked>FALSE</locked>
										<outputchannelindex>8</outputchannelindex>
									</track>
								</audio>
							</media>
							<timecode>
								<rate>
									<timebase>25</timebase>
									<ntsc>FALSE</ntsc>
								</rate>
								<string>00:00:00:00</string>
								<frame>0</frame>
								<displayformat>NDF</displayformat>
							</timecode>
						</sequence>
							<filter>
								<effect>
									<name>Audio Levels</name>
									<effectid>audiolevels</effectid>
									<effectcategory>audiolevels</effectcategory>
									<effecttype>audiolevels</effecttype>
									<mediatype>audio</mediatype>
									<parameter authoringApp="PremierePro">
										<parameterid>level</parameterid>
										<name>Level</name>
										<valuemin>0</valuemin>
										<valuemax>3.98109</valuemax>
										<value>1.25594</value>
									</parameter>
								</effect>
							</filter>
						<link>
							<linkclipref>clipitem-1196</linkclipref>
							<mediatype>audio</mediatype>
							<trackindex>1</trackindex>
							<clipindex>107</clipindex>
						</link>
						<link>
							<linkclipref>clipitem-1442</linkclipref>
							<mediatype>audio</mediatype>
							<trackindex>3</trackindex>
							<clipindex>89</clipindex>
						</link>
						<labels>
							<label2>Forest</label2>
						</labels>
					</clipitem>
					<clipitem id="clipitem-1209" frameBlend="FALSE">
						<masterclipid>masterclip-160</masterclipid>
						<name>AA014301.MXFCowi varemesse multi</name>
						<enabled>TRUE</enabled>
						<duration>13167</duration>
						<rate>
							<timebase>25</timebase>
							<ntsc>FALSE</ntsc>
						</rate>
						<start>24555</start>
						<end>-1</end>
						<in>6596</in>
						<out>6695</out>
						<sequence id="sequence-122"/>
							<filter>
								<effect>
									<name>Audio Levels</name>
									<effectid>audiolevels</effectid>
									<effectcategory>audiolevels</effectcategory>
									<effecttype>audiolevels</effecttype>
									<mediatype>audio</mediatype>
									<parameter authoringApp="PremierePro">
										<parameterid>level</parameterid>
										<name>Level</name>
										<valuemin>0</valuemin>
										<valuemax>3.98109</valuemax>
										<value>1.25594</value>
									</parameter>
								</effect>
							</filter>
						<link>
							<linkclipref>clipitem-1209</linkclipref>
							<mediatype>audio</mediatype>
							<trackindex>1</trackindex>
							<clipindex>108</clipindex>
						</link>
						<link>
							<linkclipref>clipitem-1443</linkclipref>
							<mediatype>audio</mediatype>
							<trackindex>3</trackindex>
							<clipindex>90</clipindex>
						</link>
						<labels>
							<label2>Forest</label2>
						</labels>
					</clipitem>
					<transitionitem>
						<start>24651</start>
						<end>24654</end>
						<alignment>start</alignment>
						<cutPoint>0</cutPoint>
						<rate>
							<timebase>25</timebase>
							<ntsc>FALSE</ntsc>
						</rate>
						<effect>
							<name>Cross Fade (+3dB)</name>
							<effectid>KGAudioTransCrossFade3dB</effectid>
							<effecttype>transition</effecttype>
							<mediatype>audio</mediatype>
							<wipecode>0</wipecode>
							<wipeaccuracy>100</wipeaccuracy>
							<startratio>0</startratio>
							<endratio>1</endratio>
							<reverse>FALSE</reverse>
						</effect>
					</transitionitem>
					<clipitem id="clipitem-1210" frameBlend="FALSE">
						<masterclipid>masterclip-160</masterclipid>
						<name>AA014301.MXFCowi varemesse multi</name>
						<enabled>TRUE</enabled>
						<duration>13167</duration>
						<rate>
							<timebase>25</timebase>
							<ntsc>FALSE</ntsc>
						</rate>
						<start>-1</start>
						<end>24778</end>
						<in>7131</in>
						<out>7258</out>
						<sequence id="sequence-122"/>
							<filter>
								<effect>
									<name>Audio Levels</name>
									<effectid>audiolevels</effectid>
									<effectcategory>audiolevels</effectcategory>
									<effecttype>audiolevels</effecttype>
									<mediatype>audio</mediatype>
									<parameter authoringApp="PremierePro">
										<parameterid>level</parameterid>
										<name>Level</name>
										<valuemin>0</valuemin>
										<valuemax>3.98109</valuemax>
										<value>1.25594</value>
									</parameter>
								</effect>
							</filter>
						<link>
							<linkclipref>clipitem-743</linkclipref>
							<mediatype>video</mediatype>
							<trackindex>1</trackindex>
							<clipindex>211</clipindex>
						</link>
						<link>
							<linkclipref>clipitem-1210</linkclipref>
							<mediatype>audio</mediatype>
							<trackindex>1</trackindex>
							<clipindex>110</clipindex>
						</link>
						<labels>
							<label2>Forest</label2>
						</labels>
					</clipitem>
					<clipitem id="clipitem-1211" frameBlend="FALSE">
						<masterclipid>masterclip-166</masterclipid>
						<name>AA049101.MXF</name>
						<enabled>TRUE</enabled>
						<duration>2568</duration>
						<rate>
							<timebase>25</timebase>
							<ntsc>FALSE</ntsc>
						</rate>
						<start>24786</start>
						<end>25126</end>
						<in>471</in>
						<out>811</out>
						<file id="file-147"/>
						<sourcetrack>
							<mediatype>audio</mediatype>
							<trackindex>1</trackindex>
						</sourcetrack>
						<link>
							<linkclipref>clipitem-747</linkclipref>
							<mediatype>video</mediatype>
							<trackindex>1</trackindex>
							<clipindex>215</clipindex>
						</link>
						<link>
							<linkclipref>clipitem-1211</linkclipref>
							<mediatype>audio</mediatype>
							<trackindex>1</trackindex>
							<clipindex>111</clipindex>
						</link>
						<logginginfo>
							<description></description>
							<scene></scene>
							<shottake>AA0491</shottake>
							<lognote></lognote>
						</logginginfo>
						<labels>
							<label2>Iris</label2>
						</labels>
					</clipitem>
					<clipitem id="clipitem-1212" frameBlend="FALSE">
						<masterclipid>masterclip-168</masterclipid>
						<name>AA049801.MXFMulticam case</name>
						<enabled>TRUE</enabled>
						<duration>20553</duration>
						<rate>
							<timebase>25</timebase>
							<ntsc>FALSE</ntsc>
						</rate>
						<start>25440</start>
						<end>25690</end>
						<in>1458</in>
						<out>1708</out>
						<sequence id="sequence-123" TL.SQAudioVisibleBase="0" TL.SQVideoVisibleBase="0" TL.SQVisibleBaseTime="0" TL.SQAVDividerPosition="0.5" TL.SQHideShyTracks="0" TL.SQHeaderWidth="188" Monitor.ProgramZoomOut="208831633920000" Monitor.ProgramZoomIn="0" TL.SQTimePerPixel="0.20000000000000001110223024625" AM.TrackVScrollPosition="0" AM.TrackScrollPosition="0" MZ.EditLine="0" MZ.Sequence.PreviewFrameSizeHeight="1080" MZ.Sequence.PreviewFrameSizeWidth="1920" MZ.Sequence.AudioTimeDisplayFormat="200" MZ.Sequence.PreviewRenderingClassID="1297106761" MZ.Sequence.PreviewRenderingPresetCodec="1297107278" MZ.Sequence.PreviewRenderingPresetPath="EncoderPresets/SequencePreview/795454d9-d3c2-429d-9474-923ab13b7018/I-Frame Only MPEG.epr" MZ.Sequence.PreviewUseMaxRenderQuality="false" MZ.Sequence.PreviewUseMaxBitDepth="false" MZ.Sequence.EditingModeGUID="795454d9-d3c2-429d-9474-923ab13b7018" MZ.Sequence.VideoTimeDisplayFormat="101" MZ.WorkOutPoint="15240960000000" MZ.WorkInPoint="0">
							<duration>538</duration>
							<rate>
								<timebase>25</timebase>
								<ntsc>FALSE</ntsc>
							</rate>
							<name>AA049801.MXFMulticam case</name>
							<media>
								<video>
									<format>
										<samplecharacteristics>
											<rate>
												<timebase>25</timebase>
												<ntsc>FALSE</ntsc>
											</rate>
											<codec>
												<name>Apple ProRes 422</name>
												<appspecificdata>
													<appname>Final Cut Pro</appname>
													<appmanufacturer>Apple Inc.</appmanufacturer>
													<appversion>7.0</appversion>
													<data>
														<qtcodec>
															<codecname>Apple ProRes 422</codecname>
															<codectypename>Apple ProRes 422</codectypename>
															<codectypecode>apcn</codectypecode>
															<codecvendorcode>appl</codecvendorcode>
															<spatialquality>1024</spatialquality>
															<temporalquality>0</temporalquality>
															<keyframerate>0</keyframerate>
															<datarate>0</datarate>
														</qtcodec>
													</data>
												</appspecificdata>
											</codec>
											<width>1920</width>
											<height>1080</height>
											<anamorphic>FALSE</anamorphic>
											<pixelaspectratio>square</pixelaspectratio>
											<fielddominance>none</fielddominance>
											<colordepth>24</colordepth>
										</samplecharacteristics>
									</format>
									<track TL.SQTrackShy="0" TL.SQTrackExpandedHeight="50" TL.SQTrackExpanded="1" MZ.TrackTargeted="0">
										<clipitem id="clipitem-1213" frameBlend="FALSE">
											<masterclipid>masterclip-169</masterclipid>
											<name>AA049801.MXF</name>
											<enabled>TRUE</enabled>
											<duration>396</duration>
											<rate>
												<timebase>25</timebase>
												<ntsc>FALSE</ntsc>
											</rate>
											<start>142</start>
											<end>538</end>
											<in>0</in>
											<out>396</out>
											<alphatype>none</alphatype>
											<file id="file-149"/>
											<link>
												<linkclipref>clipitem-1213</linkclipref>
												<mediatype>video</mediatype>
												<trackindex>1</trackindex>
												<clipindex>1</clipindex>
											</link>
											<link>
												<linkclipref>clipitem-1217</linkclipref>
												<mediatype>audio</mediatype>
												<trackindex>1</trackindex>
												<clipindex>1</clipindex>
												<groupindex>1</groupindex>
											</link>
											<link>
												<linkclipref>clipitem-1218</linkclipref>
												<mediatype>audio</mediatype>
												<trackindex>2</trackindex>
												<clipindex>1</clipindex>
												<groupindex>1</groupindex>
											</link>
											<logginginfo>
												<description></description>
												<scene></scene>
												<shottake>AA0498</shottake>
												<lognote></lognote>
											</logginginfo>
											<labels>
												<label2>Iris</label2>
											</labels>
										</clipitem>
										<enabled>TRUE</enabled>
										<locked>FALSE</locked>
									</track>
									<track TL.SQTrackShy="0" TL.SQTrackExpandedHeight="25" TL.SQTrackExpanded="0" MZ.TrackTargeted="0">
										<clipitem id="clipitem-1214" frameBlend="FALSE">
											<masterclipid>masterclip-170</masterclipid>
											<name>AA049901.MXF</name>
											<enabled>TRUE</enabled>
											<duration>19944</duration>
											<rate>
												<timebase>25</timebase>
												<ntsc>FALSE</ntsc>
											</rate>
											<start>609</start>
											<end>20553</end>
											<in>0</in>
											<out>19944</out>
											<alphatype>none</alphatype>
											<file id="file-150"/>
											<link>
												<linkclipref>clipitem-1214</linkclipref>
												<mediatype>video</mediatype>
												<trackindex>2</trackindex>
												<clipindex>1</clipindex>
											</link>
											<link>
												<linkclipref>clipitem-1219</linkclipref>
												<mediatype>audio</mediatype>
												<trackindex>3</trackindex>
												<clipindex>1</clipindex>
												<groupindex>1</groupindex>
											</link>
											<link>
												<linkclipref>clipitem-1220</linkclipref>
												<mediatype>audio</mediatype>
												<trackindex>4</trackindex>
												<clipindex>1</clipindex>
												<groupindex>1</groupindex>
											</link>
											<logginginfo>
												<description></description>
												<scene></scene>
												<shottake>AA0499</shottake>
												<lognote></lognote>
											</logginginfo>
											<labels>
												<label2>Iris</label2>
											</labels>
										</clipitem>
										<enabled>TRUE</enabled>
										<locked>FALSE</locked>
									</track>
									<track TL.SQTrackShy="0" TL.SQTrackExpandedHeight="25" TL.SQTrackExpanded="0" MZ.TrackTargeted="0">
										<clipitem id="clipitem-1215" frameBlend="FALSE">
											<masterclipid>masterclip-171</masterclipid>
											<name>MVI_0543.MOV</name>
											<enabled>TRUE</enabled>
											<duration>11525</duration>
											<rate>
												<timebase>25</timebase>
												<ntsc>FALSE</ntsc>
											</rate>
											<start>0</start>
											<end>11525</end>
											<in>0</in>
											<out>11525</out>
											<alphatype>black</alphatype>
											<file id="file-151"/>
											<link>
												<linkclipref>clipitem-1215</linkclipref>
												<mediatype>video</mediatype>
												<trackindex>3</trackindex>
												<clipindex>1</clipindex>
											</link>
											<link>
												<linkclipref>clipitem-1221</linkclipref>
												<mediatype>audio</mediatype>
												<trackindex>5</trackindex>
												<clipindex>1</clipindex>
												<groupindex>1</groupindex>
											</link>
											<link>
												<linkclipref>clipitem-1222</linkclipref>
												<mediatype>audio</mediatype>
												<trackindex>6</trackindex>
												<clipindex>1</clipindex>
												<groupindex>1</groupindex>
											</link>
											<logginginfo>
												<description></description>
												<scene></scene>
												<shottake></shottake>
												<lognote></lognote>
											</logginginfo>
											<labels>
												<label2>Iris</label2>
											</labels>
										</clipitem>
										<enabled>TRUE</enabled>
										<locked>FALSE</locked>
									</track>
									<track TL.SQTrackShy="0" TL.SQTrackExpandedHeight="25" TL.SQTrackExpanded="0" MZ.TrackTargeted="0">
										<clipitem id="clipitem-1216" frameBlend="FALSE">
											<masterclipid>masterclip-172</masterclipid>
											<name>MVI_0544.MOV</name>
											<enabled>TRUE</enabled>
											<duration>6615</duration>
											<rate>
												<timebase>25</timebase>
												<ntsc>FALSE</ntsc>
											</rate>
											<start>11588</start>
											<end>18203</end>
											<in>0</in>
											<out>6615</out>
											<alphatype>black</alphatype>
											<file id="file-152"/>
											<link>
												<linkclipref>clipitem-1216</linkclipref>
												<mediatype>video</mediatype>
												<trackindex>4</trackindex>
												<clipindex>1</clipindex>
											</link>
											<link>
												<linkclipref>clipitem-1223</linkclipref>
												<mediatype>audio</mediatype>
												<trackindex>7</trackindex>
												<clipindex>1</clipindex>
												<groupindex>1</groupindex>
											</link>
											<link>
												<linkclipref>clipitem-1224</linkclipref>
												<mediatype>audio</mediatype>
												<trackindex>8</trackindex>
												<clipindex>1</clipindex>
												<groupindex>1</groupindex>
											</link>
											<logginginfo>
												<description></description>
												<scene></scene>
												<shottake></shottake>
												<lognote></lognote>
											</logginginfo>
											<labels>
												<label2>Iris</label2>
											</labels>
										</clipitem>
										<enabled>TRUE</enabled>
										<locked>FALSE</locked>
									</track>
								</video>
								<audio>
									<format>
										<samplecharacteristics>
											<depth>16</depth>
											<samplerate>48000</samplerate>
										</samplecharacteristics>
									</format>
									<outputs>
										<group>
											<index>1</index>
											<numchannels>1</numchannels>
											<downmix>0</downmix>
											<channel>
												<index>1</index>
											</channel>
										</group>
										<group>
											<index>2</index>
											<numchannels>1</numchannels>
											<downmix>0</downmix>
											<channel>
												<index>2</index>
											</channel>
										</group>
										<group>
											<index>3</index>
											<numchannels>1</numchannels>
											<downmix>0</downmix>
											<channel>
												<index>3</index>
											</channel>
										</group>
										<group>
											<index>4</index>
											<numchannels>1</numchannels>
											<downmix>0</downmix>
											<channel>
												<index>4</index>
											</channel>
										</group>
										<group>
											<index>5</index>
											<numchannels>1</numchannels>
											<downmix>0</downmix>
											<channel>
												<index>5</index>
											</channel>
										</group>
										<group>
											<index>6</index>
											<numchannels>1</numchannels>
											<downmix>0</downmix>
											<channel>
												<index>6</index>
											</channel>
										</group>
										<group>
											<index>7</index>
											<numchannels>1</numchannels>
											<downmix>0</downmix>
											<channel>
												<index>7</index>
											</channel>
										</group>
										<group>
											<index>8</index>
											<numchannels>1</numchannels>
											<downmix>0</downmix>
											<channel>
												<index>8</index>
											</channel>
										</group>
										<group>
											<index>9</index>
											<numchannels>1</numchannels>
											<downmix>0</downmix>
											<channel>
												<index>9</index>
											</channel>
										</group>
										<group>
											<index>10</index>
											<numchannels>1</numchannels>
											<downmix>0</downmix>
											<channel>
												<index>10</index>
											</channel>
										</group>
										<group>
											<index>11</index>
											<numchannels>1</numchannels>
											<downmix>0</downmix>
											<channel>
												<index>11</index>
											</channel>
										</group>
										<group>
											<index>12</index>
											<numchannels>1</numchannels>
											<downmix>0</downmix>
											<channel>
												<index>12</index>
											</channel>
										</group>
										<group>
											<index>13</index>
											<numchannels>1</numchannels>
											<downmix>0</downmix>
											<channel>
												<index>13</index>
											</channel>
										</group>
										<group>
											<index>14</index>
											<numchannels>1</numchannels>
											<downmix>0</downmix>
											<channel>
												<index>14</index>
											</channel>
										</group>
										<group>
											<index>15</index>
											<numchannels>1</numchannels>
											<downmix>0</downmix>
											<channel>
												<index>15</index>
											</channel>
										</group>
										<group>
											<index>16</index>
											<numchannels>1</numchannels>
											<downmix>0</downmix>
											<channel>
												<index>16</index>
											</channel>
										</group>
									</outputs>
									<track TL.SQTrackAudioKeyframeStyle="0" TL.SQTrackShy="0" TL.SQTrackExpandedHeight="25" TL.SQTrackExpanded="0" MZ.TrackTargeted="1" PannerCurrentValue="0.5" PannerIsInverted="true" PannerStartKeyframe="-91445760000000000,0.5,0,0,0,0,0,0" PannerName="Balance" currentExplodedTrackIndex="0" totalExplodedTrackCount="1" premiereTrackType="Stereo">
										<clipitem id="clipitem-1217" frameBlend="FALSE" PannerCurrentValue="0.5" PannerKeyframes="" PannerStartKeyframe="-91445760000000000,0.5,0,0,0,0,0,0" PannerIsInverted="true" PannerName="Balance">
											<masterclipid>masterclip-169</masterclipid>
											<name>AA049801.MXF</name>
											<enabled>TRUE</enabled>
											<duration>396</duration>
											<rate>
												<timebase>25</timebase>
												<ntsc>FALSE</ntsc>
											</rate>
											<start>142</start>
											<end>538</end>
											<in>0</in>
											<out>396</out>
											<file id="file-149"/>
											<sourcetrack>
												<mediatype>audio</mediatype>
												<trackindex>1</trackindex>
											</sourcetrack>
												<filter>
													<effect>
														<name>Audio Pan</name>
														<effectid>audiopan</effectid>
														<effectcategory>audiopan</effectcategory>
														<effecttype>audiopan</effecttype>
														<mediatype>audio</mediatype>
														<parameter authoringApp="PremierePro">
															<parameterid>pan</parameterid>
															<name>Pan</name>
															<valuemin>-1</valuemin>
															<valuemax>1</valuemax>
															<value>0</value>
														</parameter>
													</effect>
												</filter>
											<link>
												<linkclipref>clipitem-1213</linkclipref>
												<mediatype>video</mediatype>
												<trackindex>1</trackindex>
												<clipindex>1</clipindex>
											</link>
											<link>
												<linkclipref>clipitem-1217</linkclipref>
												<mediatype>audio</mediatype>
												<trackindex>1</trackindex>
												<clipindex>1</clipindex>
												<groupindex>1</groupindex>
											</link>
											<link>
												<linkclipref>clipitem-1218</linkclipref>
												<mediatype>audio</mediatype>
												<trackindex>2</trackindex>
												<clipindex>1</clipindex>
												<groupindex>1</groupindex>
											</link>
											<logginginfo>
												<description></description>
												<scene></scene>
												<shottake>AA0498</shottake>
												<lognote></lognote>
											</logginginfo>
											<labels>
												<label2>Iris</label2>
											</labels>
										</clipitem>
										<enabled>TRUE</enabled>
										<locked>FALSE</locked>
										<outputchannelindex>1</outputchannelindex>
									</track>
									<track TL.SQTrackAudioKeyframeStyle="0" TL.SQTrackShy="0" TL.SQTrackExpandedHeight="25" TL.SQTrackExpanded="0" MZ.TrackTargeted="1" PannerCurrentValue="0.5" PannerIsInverted="true" PannerStartKeyframe="-91445760000000000,0.5,0,0,0,0,0,0" PannerName="Balance" currentExplodedTrackIndex="0" totalExplodedTrackCount="1" premiereTrackType="Stereo">
										<clipitem id="clipitem-1218" frameBlend="FALSE" PannerCurrentValue="0.5" PannerKeyframes="" PannerStartKeyframe="-91445760000000000,0.5,0,0,0,0,0,0" PannerIsInverted="true" PannerName="Balance">
											<masterclipid>masterclip-169</masterclipid>
											<name>AA049801.MXF</name>
											<enabled>TRUE</enabled>
											<duration>396</duration>
											<rate>
												<timebase>25</timebase>
												<ntsc>FALSE</ntsc>
											</rate>
											<start>142</start>
											<end>538</end>
											<in>0</in>
											<out>396</out>
											<file id="file-149"/>
											<sourcetrack>
												<mediatype>audio</mediatype>
												<trackindex>2</trackindex>
											</sourcetrack>
												<filter>
													<effect>
														<name>Audio Pan</name>
														<effectid>audiopan</effectid>
														<effectcategory>audiopan</effectcategory>
														<effecttype>audiopan</effecttype>
														<mediatype>audio</mediatype>
														<parameter authoringApp="PremierePro">
															<parameterid>pan</parameterid>
															<name>Pan</name>
															<valuemin>-1</valuemin>
															<valuemax>1</valuemax>
															<value>0</value>
														</parameter>
													</effect>
												</filter>
											<link>
												<linkclipref>clipitem-1213</linkclipref>
												<mediatype>video</mediatype>
												<trackindex>1</trackindex>
												<clipindex>1</clipindex>
											</link>
											<link>
												<linkclipref>clipitem-1217</linkclipref>
												<mediatype>audio</mediatype>
												<trackindex>1</trackindex>
												<clipindex>1</clipindex>
												<groupindex>1</groupindex>
											</link>
											<link>
												<linkclipref>clipitem-1218</linkclipref>
												<mediatype>audio</mediatype>
												<trackindex>2</trackindex>
												<clipindex>1</clipindex>
												<groupindex>1</groupindex>
											</link>
											<logginginfo>
												<description></description>
												<scene></scene>
												<shottake>AA0498</shottake>
												<lognote></lognote>
											</logginginfo>
											<labels>
												<label2>Iris</label2>
											</labels>
										</clipitem>
										<enabled>TRUE</enabled>
										<locked>FALSE</locked>
										<outputchannelindex>3</outputchannelindex>
									</track>
									<track TL.SQTrackAudioKeyframeStyle="0" TL.SQTrackShy="0" TL.SQTrackExpandedHeight="25" TL.SQTrackExpanded="0" MZ.TrackTargeted="1" PannerCurrentValue="0.5" PannerIsInverted="true" PannerStartKeyframe="-91445760000000000,0.5,0,0,0,0,0,0" PannerName="Balance" currentExplodedTrackIndex="0" totalExplodedTrackCount="1" premiereTrackType="Stereo">
										<clipitem id="clipitem-1219" frameBlend="FALSE" PannerCurrentValue="0.5" PannerKeyframes="" PannerStartKeyframe="-91445760000000000,0.5,0,0,0,0,0,0" PannerIsInverted="true" PannerName="Balance">
											<masterclipid>masterclip-170</masterclipid>
											<name>AA049901.MXF</name>
											<enabled>TRUE</enabled>
											<duration>19944</duration>
											<rate>
												<timebase>25</timebase>
												<ntsc>FALSE</ntsc>
											</rate>
											<start>609</start>
											<end>20553</end>
											<in>0</in>
											<out>19944</out>
											<file id="file-150"/>
											<sourcetrack>
												<mediatype>audio</mediatype>
												<trackindex>1</trackindex>
											</sourcetrack>
												<filter>
													<effect>
														<name>Audio Pan</name>
														<effectid>audiopan</effectid>
														<effectcategory>audiopan</effectcategory>
														<effecttype>audiopan</effecttype>
														<mediatype>audio</mediatype>
														<parameter authoringApp="PremierePro">
															<parameterid>pan</parameterid>
															<name>Pan</name>
															<valuemin>-1</valuemin>
															<valuemax>1</valuemax>
															<value>0</value>
														</parameter>
													</effect>
												</filter>
											<link>
												<linkclipref>clipitem-1214</linkclipref>
												<mediatype>video</mediatype>
												<trackindex>2</trackindex>
												<clipindex>1</clipindex>
											</link>
											<link>
												<linkclipref>clipitem-1219</linkclipref>
												<mediatype>audio</mediatype>
												<trackindex>3</trackindex>
												<clipindex>1</clipindex>
												<groupindex>1</groupindex>
											</link>
											<link>
												<linkclipref>clipitem-1220</linkclipref>
												<mediatype>audio</mediatype>
												<trackindex>4</trackindex>
												<clipindex>1</clipindex>
												<groupindex>1</groupindex>
											</link>
											<logginginfo>
												<description></description>
												<scene></scene>
												<shottake>AA0499</shottake>
												<lognote></lognote>
											</logginginfo>
											<labels>
												<label2>Iris</label2>
											</labels>
										</clipitem>
										<enabled>TRUE</enabled>
										<locked>FALSE</locked>
										<outputchannelindex>5</outputchannelindex>
									</track>
									<track TL.SQTrackAudioKeyframeStyle="0" TL.SQTrackShy="0" TL.SQTrackExpandedHeight="25" TL.SQTrackExpanded="0" MZ.TrackTargeted="0" PannerCurrentValue="0.5" PannerIsInverted="true" PannerStartKeyframe="-91445760000000000,0.5,0,0,0,0,0,0" PannerName="Balance" currentExplodedTrackIndex="0" totalExplodedTrackCount="1" premiereTrackType="Stereo">
										<clipitem id="clipitem-1220" frameBlend="FALSE" PannerCurrentValue="0.5" PannerKeyframes="" PannerStartKeyframe="-91445760000000000,0.5,0,0,0,0,0,0" PannerIsInverted="true" PannerName="Balance">
											<masterclipid>masterclip-170</masterclipid>
											<name>AA049901.MXF</name>
											<enabled>TRUE</enabled>
											<duration>19944</duration>
											<rate>
												<timebase>25</timebase>
												<ntsc>FALSE</ntsc>
											</rate>
											<start>609</start>
											<end>20553</end>
											<in>0</in>
											<out>19944</out>
											<file id="file-150"/>
											<sourcetrack>
												<mediatype>audio</mediatype>
												<trackindex>2</trackindex>
											</sourcetrack>
												<filter>
													<effect>
														<name>Audio Pan</name>
														<effectid>audiopan</effectid>
														<effectcategory>audiopan</effectcategory>
														<effecttype>audiopan</effecttype>
														<mediatype>audio</mediatype>
														<parameter authoringApp="PremierePro">
															<parameterid>pan</parameterid>
															<name>Pan</name>
															<valuemin>-1</valuemin>
															<valuemax>1</valuemax>
															<value>0</value>
														</parameter>
													</effect>
												</filter>
											<link>
												<linkclipref>clipitem-1214</linkclipref>
												<mediatype>video</mediatype>
												<trackindex>2</trackindex>
												<clipindex>1</clipindex>
											</link>
											<link>
												<linkclipref>clipitem-1219</linkclipref>
												<mediatype>audio</mediatype>
												<trackindex>3</trackindex>
												<clipindex>1</clipindex>
												<groupindex>1</groupindex>
											</link>
											<link>
												<linkclipref>clipitem-1220</linkclipref>
												<mediatype>audio</mediatype>
												<trackindex>4</trackindex>
												<clipindex>1</clipindex>
												<groupindex>1</groupindex>
											</link>
											<logginginfo>
												<description></description>
												<scene></scene>
												<shottake>AA0499</shottake>
												<lognote></lognote>
											</logginginfo>
											<labels>
												<label2>Iris</label2>
											</labels>
										</clipitem>
										<enabled>TRUE</enabled>
										<locked>FALSE</locked>
										<outputchannelindex>7</outputchannelindex>
									</track>
									<track TL.SQTrackAudioKeyframeStyle="0" TL.SQTrackShy="0" TL.SQTrackExpandedHeight="25" TL.SQTrackExpanded="0" MZ.TrackTargeted="0" PannerCurrentValue="0.5" PannerIsInverted="true" PannerStartKeyframe="-91445760000000000,0.5,0,0,0,0,0,0" PannerName="Balance" currentExplodedTrackIndex="0" totalExplodedTrackCount="1" premiereTrackType="Stereo">
										<clipitem id="clipitem-1221" frameBlend="FALSE" PannerCurrentValue="0.5" PannerKeyframes="" PannerStartKeyframe="-91445760000000000,0.5,0,0,0,0,0,0" PannerIsInverted="true" PannerName="Balance">
											<masterclipid>masterclip-171</masterclipid>
											<name>MVI_0543.MOV</name>
											<enabled>TRUE</enabled>
											<duration>11525</duration>
											<rate>
												<timebase>25</timebase>
												<ntsc>FALSE</ntsc>
											</rate>
											<start>0</start>
											<end>11525</end>
											<in>0</in>
											<out>11525</out>
											<file id="file-151"/>
											<sourcetrack>
												<mediatype>audio</mediatype>
												<trackindex>1</trackindex>
											</sourcetrack>
												<filter>
													<effect>
														<name>Audio Pan</name>
														<effectid>audiopan</effectid>
														<effectcategory>audiopan</effectcategory>
														<effecttype>audiopan</effecttype>
														<mediatype>audio</mediatype>
														<parameter authoringApp="PremierePro">
															<parameterid>pan</parameterid>
															<name>Pan</name>
															<valuemin>-1</valuemin>
															<valuemax>1</valuemax>
															<value>0</value>
														</parameter>
													</effect>
												</filter>
											<link>
												<linkclipref>clipitem-1215</linkclipref>
												<mediatype>video</mediatype>
												<trackindex>3</trackindex>
												<clipindex>1</clipindex>
											</link>
											<link>
												<linkclipref>clipitem-1221</linkclipref>
												<mediatype>audio</mediatype>
												<trackindex>5</trackindex>
												<clipindex>1</clipindex>
												<groupindex>1</groupindex>
											</link>
											<link>
												<linkclipref>clipitem-1222</linkclipref>
												<mediatype>audio</mediatype>
												<trackindex>6</trackindex>
												<clipindex>1</clipindex>
												<groupindex>1</groupindex>
											</link>
											<logginginfo>
												<description></description>
												<scene></scene>
												<shottake></shottake>
												<lognote></lognote>
											</logginginfo>
											<labels>
												<label2>Iris</label2>
											</labels>
										</clipitem>
										<enabled>TRUE</enabled>
										<locked>FALSE</locked>
										<outputchannelindex>9</outputchannelindex>
									</track>
									<track TL.SQTrackAudioKeyframeStyle="0" TL.SQTrackShy="0" TL.SQTrackExpandedHeight="25" TL.SQTrackExpanded="0" MZ.TrackTargeted="0" PannerCurrentValue="0.5" PannerIsInverted="true" PannerStartKeyframe="-91445760000000000,0.5,0,0,0,0,0,0" PannerName="Balance" currentExplodedTrackIndex="0" totalExplodedTrackCount="1" premiereTrackType="Stereo">
										<clipitem id="clipitem-1222" frameBlend="FALSE" PannerCurrentValue="0.5" PannerKeyframes="" PannerStartKeyframe="-91445760000000000,0.5,0,0,0,0,0,0" PannerIsInverted="true" PannerName="Balance">
											<masterclipid>masterclip-171</masterclipid>
											<name>MVI_0543.MOV</name>
											<enabled>TRUE</enabled>
											<duration>11525</duration>
											<rate>
												<timebase>25</timebase>
												<ntsc>FALSE</ntsc>
											</rate>
											<start>0</start>
											<end>11525</end>
											<in>0</in>
											<out>11525</out>
											<file id="file-151"/>
											<sourcetrack>
												<mediatype>audio</mediatype>
												<trackindex>2</trackindex>
											</sourcetrack>
												<filter>
													<effect>
														<name>Audio Pan</name>
														<effectid>audiopan</effectid>
														<effectcategory>audiopan</effectcategory>
														<effecttype>audiopan</effecttype>
														<mediatype>audio</mediatype>
														<parameter authoringApp="PremierePro">
															<parameterid>pan</parameterid>
															<name>Pan</name>
															<valuemin>-1</valuemin>
															<valuemax>1</valuemax>
															<value>0</value>
														</parameter>
													</effect>
												</filter>
											<link>
												<linkclipref>clipitem-1215</linkclipref>
												<mediatype>video</mediatype>
												<trackindex>3</trackindex>
												<clipindex>1</clipindex>
											</link>
											<link>
												<linkclipref>clipitem-1221</linkclipref>
												<mediatype>audio</mediatype>
												<trackindex>5</trackindex>
												<clipindex>1</clipindex>
												<groupindex>1</groupindex>
											</link>
											<link>
												<linkclipref>clipitem-1222</linkclipref>
												<mediatype>audio</mediatype>
												<trackindex>6</trackindex>
												<clipindex>1</clipindex>
												<groupindex>1</groupindex>
											</link>
											<logginginfo>
												<description></description>
												<scene></scene>
												<shottake></shottake>
												<lognote></lognote>
											</logginginfo>
											<labels>
												<label2>Iris</label2>
											</labels>
										</clipitem>
										<enabled>TRUE</enabled>
										<locked>FALSE</locked>
										<outputchannelindex>11</outputchannelindex>
									</track>
									<track TL.SQTrackAudioKeyframeStyle="0" TL.SQTrackShy="0" TL.SQTrackExpandedHeight="25" TL.SQTrackExpanded="0" MZ.TrackTargeted="0" PannerCurrentValue="0.5" PannerIsInverted="true" PannerStartKeyframe="-91445760000000000,0.5,0,0,0,0,0,0" PannerName="Balance" currentExplodedTrackIndex="0" totalExplodedTrackCount="1" premiereTrackType="Stereo">
										<clipitem id="clipitem-1223" frameBlend="FALSE" PannerCurrentValue="0.5" PannerKeyframes="" PannerStartKeyframe="-91445760000000000,0.5,0,0,0,0,0,0" PannerIsInverted="true" PannerName="Balance">
											<masterclipid>masterclip-172</masterclipid>
											<name>MVI_0544.MOV</name>
											<enabled>TRUE</enabled>
											<duration>6615</duration>
											<rate>
												<timebase>25</timebase>
												<ntsc>FALSE</ntsc>
											</rate>
											<start>11588</start>
											<end>18203</end>
											<in>0</in>
											<out>6615</out>
											<file id="file-152"/>
											<sourcetrack>
												<mediatype>audio</mediatype>
												<trackindex>1</trackindex>
											</sourcetrack>
												<filter>
													<effect>
														<name>Audio Pan</name>
														<effectid>audiopan</effectid>
														<effectcategory>audiopan</effectcategory>
														<effecttype>audiopan</effecttype>
														<mediatype>audio</mediatype>
														<parameter authoringApp="PremierePro">
															<parameterid>pan</parameterid>
															<name>Pan</name>
															<valuemin>-1</valuemin>
															<valuemax>1</valuemax>
															<value>0</value>
														</parameter>
													</effect>
												</filter>
											<link>
												<linkclipref>clipitem-1216</linkclipref>
												<mediatype>video</mediatype>
												<trackindex>4</trackindex>
												<clipindex>1</clipindex>
											</link>
											<link>
												<linkclipref>clipitem-1223</linkclipref>
												<mediatype>audio</mediatype>
												<trackindex>7</trackindex>
												<clipindex>1</clipindex>
												<groupindex>1</groupindex>
											</link>
											<link>
												<linkclipref>clipitem-1224</linkclipref>
												<mediatype>audio</mediatype>
												<trackindex>8</trackindex>
												<clipindex>1</clipindex>
												<groupindex>1</groupindex>
											</link>
											<logginginfo>
												<description></description>
												<scene></scene>
												<shottake></shottake>
												<lognote></lognote>
											</logginginfo>
											<labels>
												<label2>Iris</label2>
											</labels>
										</clipitem>
										<enabled>TRUE</enabled>
										<locked>FALSE</locked>
										<outputchannelindex>13</outputchannelindex>
									</track>
									<track TL.SQTrackAudioKeyframeStyle="0" TL.SQTrackShy="0" TL.SQTrackExpandedHeight="25" TL.SQTrackExpanded="0" MZ.TrackTargeted="0" PannerCurrentValue="0.5" PannerIsInverted="true" PannerStartKeyframe="-91445760000000000,0.5,0,0,0,0,0,0" PannerName="Balance" currentExplodedTrackIndex="0" totalExplodedTrackCount="1" premiereTrackType="Stereo">
										<clipitem id="clipitem-1224" frameBlend="FALSE" PannerCurrentValue="0.5" PannerKeyframes="" PannerStartKeyframe="-91445760000000000,0.5,0,0,0,0,0,0" PannerIsInverted="true" PannerName="Balance">
											<masterclipid>masterclip-172</masterclipid>
											<name>MVI_0544.MOV</name>
											<enabled>TRUE</enabled>
											<duration>6615</duration>
											<rate>
												<timebase>25</timebase>
												<ntsc>FALSE</ntsc>
											</rate>
											<start>11588</start>
											<end>18203</end>
											<in>0</in>
											<out>6615</out>
											<file id="file-152"/>
											<sourcetrack>
												<mediatype>audio</mediatype>
												<trackindex>2</trackindex>
											</sourcetrack>
												<filter>
													<effect>
														<name>Audio Pan</name>
														<effectid>audiopan</effectid>
														<effectcategory>audiopan</effectcategory>
														<effecttype>audiopan</effecttype>
														<mediatype>audio</mediatype>
														<parameter authoringApp="PremierePro">
															<parameterid>pan</parameterid>
															<name>Pan</name>
															<valuemin>-1</valuemin>
															<valuemax>1</valuemax>
															<value>0</value>
														</parameter>
													</effect>
												</filter>
											<link>
												<linkclipref>clipitem-1216</linkclipref>
												<mediatype>video</mediatype>
												<trackindex>4</trackindex>
												<clipindex>1</clipindex>
											</link>
											<link>
												<linkclipref>clipitem-1223</linkclipref>
												<mediatype>audio</mediatype>
												<trackindex>7</trackindex>
												<clipindex>1</clipindex>
												<groupindex>1</groupindex>
											</link>
											<link>
												<linkclipref>clipitem-1224</linkclipref>
												<mediatype>audio</mediatype>
												<trackindex>8</trackindex>
												<clipindex>1</clipindex>
												<groupindex>1</groupindex>
											</link>
											<logginginfo>
												<description></description>
												<scene></scene>
												<shottake></shottake>
												<lognote></lognote>
											</logginginfo>
											<labels>
												<label2>Iris</label2>
											</labels>
										</clipitem>
										<enabled>TRUE</enabled>
										<locked>FALSE</locked>
										<outputchannelindex>15</outputchannelindex>
									</track>
								</audio>
							</media>
							<timecode>
								<rate>
									<timebase>25</timebase>
									<ntsc>FALSE</ntsc>
								</rate>
								<string>00:00:00:00</string>
								<frame>0</frame>
								<displayformat>NDF</displayformat>
							</timecode>
						</sequence>
							<filter>
								<effect>
									<name>Audio Levels</name>
									<effectid>audiolevels</effectid>
									<effectcategory>audiolevels</effectcategory>
									<effecttype>audiolevels</effecttype>
									<mediatype>audio</mediatype>
									<parameter authoringApp="PremierePro">
										<parameterid>level</parameterid>
										<name>Level</name>
										<valuemin>0</valuemin>
										<valuemax>3.98109</valuemax>
										<value>0</value>
									</parameter>
								</effect>
							</filter>
							<marker>
								<comment>har jeg noe ￃﾥ frykrte, hvis du ikke er kriminiell sￃﾥ har du nope ￃﾥￂﾨskjul, privatlivet dittt</comment>
								<name>frykter noe?</name>
								<in>4526</in>
								<out>-1</out>
							</marker>
							<marker>
								<comment>trenger ikke smartsamfunn der alt styres sentralt</comment>
								<name></name>
								<in>10020</in>
								<out>-1</out>
							</marker>
							<marker>
								<comment>blir lettere nￃﾥr alt er koblet sammen</comment>
								<name>mer bevkemt for meg</name>
								<in>12428</in>
								<out>-1</out>
							</marker>
							<marker>
								<comment>gjￃﾸr at du kan overvￃﾥkes og det er for ￃﾥ spare penger</comment>
								<name>folkebedrag</name>
								<in>6238</in>
								<out>-1</out>
							</marker>
							<marker>
								<comment>kan se hva du gjￃﾸr hvilke apparater du bruker</comment>
								<name></name>
								<in>7411</in>
								<out>-1</out>
							</marker>
							<marker>
								<comment>ymndighetene vil stoppe deg pￃﾥ ferden hvis de vil det</comment>
								<name>kan stoppe deg</name>
								<in>10932</in>
								<out>-1</out>
							</marker>
							<marker>
								<comment>hva tenker du om smart framtid?</comment>
								<name></name>
								<in>5749</in>
								<out>-1</out>
							</marker>
							<marker>
								<comment>frither og valgmuligheter</comment>
								<name>taper </name>
								<in>14685</in>
								<out>-1</out>
							</marker>
							<marker>
								<comment>hvis informasjon lagres vil den brukes!</comment>
								<name>BRA</name>
								<in>8605</in>
								<out>-1</out>
							</marker>
							<marker>
								<comment>sￃﾸken etter trygghet kan ikke bli total, men vi taper total frihet</comment>
								<name>sￃﾸken</name>
								<in>15642</in>
								<out>-1</out>
							</marker>
							<marker>
								<comment>hvis noe ikke likes i et samfunn fremover</comment>
								<name>holdning</name>
								<in>3544</in>
								<out>-1</out>
							</marker>
							<marker>
								<comment>kan meninger, sksuelle legniner og organisasjonstilkntning mistenkeliggjￃﾸres</comment>
								<name>selv demokrati</name>
								<in>18716</in>
								<out>-1</out>
							</marker>
							<marker>
								<comment>hvordan skal du klare deg i framtiden nￃﾥr alt snakker med alt?</comment>
								<name>klare du?</name>
								<in>9067</in>
								<out>-1</out>
							</marker>
							<marker>
								<comment>vi mister ferdigheter og bilene er avhengig av gps og sensorer i veibanen</comment>
								<name>bilder slutter ￃﾥ funke</name>
								<in>14093</in>
								<out>-1</out>
							</marker>
							<marker>
								<comment>vi har jo snille politikere, vil de virkelig overvￃﾥke oss</comment>
								<name>snille politikere</name>
								<in>15901</in>
								<out>-1</out>
							</marker>
							<marker>
								<comment>bￃﾥde myndigheter og kriminuelle vil ha interesse av informasjon om oss</comment>
								<name>myndigheter</name>
								<in>17635</in>
								<out>-1</out>
							</marker>
							<marker>
								<comment>intensjonen kan vￃﾦre god, men hva vil det medfￃﾸre</comment>
								<name>politi</name>
								<in>1608</in>
								<out>-1</out>
							</marker>
						<link>
							<linkclipref>clipitem-749</linkclipref>
							<mediatype>video</mediatype>
							<trackindex>1</trackindex>
							<clipindex>217</clipindex>
						</link>
						<link>
							<linkclipref>clipitem-1212</linkclipref>
							<mediatype>audio</mediatype>
							<trackindex>1</trackindex>
							<clipindex>112</clipindex>
						</link>
						<link>
							<linkclipref>clipitem-1444</linkclipref>
							<mediatype>audio</mediatype>
							<trackindex>3</trackindex>
							<clipindex>91</clipindex>
						</link>
						<labels>
							<label2>Forest</label2>
						</labels>
					</clipitem>
					<clipitem id="clipitem-1225" frameBlend="FALSE">
						<masterclipid>masterclip-168</masterclipid>
						<name>AA049801.MXFMulticam case</name>
						<enabled>TRUE</enabled>
						<duration>20553</duration>
						<rate>
							<timebase>25</timebase>
							<ntsc>FALSE</ntsc>
						</rate>
						<start>25690</start>
						<end>25763</end>
						<in>1708</in>
						<out>1781</out>
						<sequence id="sequence-123"/>
							<filter>
								<effect>
									<name>Audio Levels</name>
									<effectid>audiolevels</effectid>
									<effectcategory>audiolevels</effectcategory>
									<effecttype>audiolevels</effecttype>
									<mediatype>audio</mediatype>
									<parameter authoringApp="PremierePro">
										<parameterid>level</parameterid>
										<name>Level</name>
										<valuemin>0</valuemin>
										<valuemax>3.98109</valuemax>
										<value>0.0397164</value>
									</parameter>
								</effect>
							</filter>
							<marker>
								<comment>har jeg noe ￃﾥ frykrte, hvis du ikke er kriminiell sￃﾥ har du nope ￃﾥￂﾨskjul, privatlivet dittt</comment>
								<name>frykter noe?</name>
								<in>4526</in>
								<out>-1</out>
							</marker>
							<marker>
								<comment>trenger ikke smartsamfunn der alt styres sentralt</comment>
								<name></name>
								<in>10020</in>
								<out>-1</out>
							</marker>
							<marker>
								<comment>blir lettere nￃﾥr alt er koblet sammen</comment>
								<name>mer bevkemt for meg</name>
								<in>12428</in>
								<out>-1</out>
							</marker>
							<marker>
								<comment>gjￃﾸr at du kan overvￃﾥkes og det er for ￃﾥ spare penger</comment>
								<name>folkebedrag</name>
								<in>6238</in>
								<out>-1</out>
							</marker>
							<marker>
								<comment>kan se hva du gjￃﾸr hvilke apparater du bruker</comment>
								<name></name>
								<in>7411</in>
								<out>-1</out>
							</marker>
							<marker>
								<comment>ymndighetene vil stoppe deg pￃﾥ ferden hvis de vil det</comment>
								<name>kan stoppe deg</name>
								<in>10932</in>
								<out>-1</out>
							</marker>
							<marker>
								<comment>hva tenker du om smart framtid?</comment>
								<name></name>
								<in>5749</in>
								<out>-1</out>
							</marker>
							<marker>
								<comment>frither og valgmuligheter</comment>
								<name>taper </name>
								<in>14685</in>
								<out>-1</out>
							</marker>
							<marker>
								<comment>hvis informasjon lagres vil den brukes!</comment>
								<name>BRA</name>
								<in>8605</in>
								<out>-1</out>
							</marker>
							<marker>
								<comment>sￃﾸken etter trygghet kan ikke bli total, men vi taper total frihet</comment>
								<name>sￃﾸken</name>
								<in>15642</in>
								<out>-1</out>
							</marker>
							<marker>
								<comment>hvis noe ikke likes i et samfunn fremover</comment>
								<name>holdning</name>
								<in>3544</in>
								<out>-1</out>
							</marker>
							<marker>
								<comment>kan meninger, sksuelle legniner og organisasjonstilkntning mistenkeliggjￃﾸres</comment>
								<name>selv demokrati</name>
								<in>18716</in>
								<out>-1</out>
							</marker>
							<marker>
								<comment>hvordan skal du klare deg i framtiden nￃﾥr alt snakker med alt?</comment>
								<name>klare du?</name>
								<in>9067</in>
								<out>-1</out>
							</marker>
							<marker>
								<comment>vi mister ferdigheter og bilene er avhengig av gps og sensorer i veibanen</comment>
								<name>bilder slutter ￃﾥ funke</name>
								<in>14093</in>
								<out>-1</out>
							</marker>
							<marker>
								<comment>vi har jo snille politikere, vil de virkelig overvￃﾥke oss</comment>
								<name>snille politikere</name>
								<in>15901</in>
								<out>-1</out>
							</marker>
							<marker>
								<comment>bￃﾥde myndigheter og kriminuelle vil ha interesse av informasjon om oss</comment>
								<name>myndigheter</name>
								<in>17635</in>
								<out>-1</out>
							</marker>
							<marker>
								<comment>intensjonen kan vￃﾦre god, men hva vil det medfￃﾸre</comment>
								<name>politi</name>
								<in>1608</in>
								<out>-1</out>
							</marker>
						<link>
							<linkclipref>clipitem-758</linkclipref>
							<mediatype>video</mediatype>
							<trackindex>1</trackindex>
							<clipindex>218</clipindex>
						</link>
						<link>
							<linkclipref>clipitem-1225</linkclipref>
							<mediatype>audio</mediatype>
							<trackindex>1</trackindex>
							<clipindex>113</clipindex>
						</link>
						<link>
							<linkclipref>clipitem-1445</linkclipref>
							<mediatype>audio</mediatype>
							<trackindex>3</trackindex>
							<clipindex>92</clipindex>
						</link>
						<labels>
							<label2>Forest</label2>
						</labels>
					</clipitem>
					<clipitem id="clipitem-1226" frameBlend="FALSE">
						<masterclipid>masterclip-168</masterclipid>
						<name>AA049801.MXFMulticam case</name>
						<enabled>TRUE</enabled>
						<duration>20553</duration>
						<rate>
							<timebase>25</timebase>
							<ntsc>FALSE</ntsc>
						</rate>
						<start>25763</start>
						<end>25954</end>
						<in>8388</in>
						<out>8579</out>
						<sequence id="sequence-123"/>
							<marker>
								<comment>har jeg noe ￃﾥ frykrte, hvis du ikke er kriminiell sￃﾥ har du nope ￃﾥￂﾨskjul, privatlivet dittt</comment>
								<name>frykter noe?</name>
								<in>4526</in>
								<out>-1</out>
							</marker>
							<marker>
								<comment>trenger ikke smartsamfunn der alt styres sentralt</comment>
								<name></name>
								<in>10020</in>
								<out>-1</out>
							</marker>
							<marker>
								<comment>blir lettere nￃﾥr alt er koblet sammen</comment>
								<name>mer bevkemt for meg</name>
								<in>12428</in>
								<out>-1</out>
							</marker>
							<marker>
								<comment>gjￃﾸr at du kan overvￃﾥkes og det er for ￃﾥ spare penger</comment>
								<name>folkebedrag</name>
								<in>6238</in>
								<out>-1</out>
							</marker>
							<marker>
								<comment>kan se hva du gjￃﾸr hvilke apparater du bruker</comment>
								<name></name>
								<in>7411</in>
								<out>-1</out>
							</marker>
							<marker>
								<comment>ymndighetene vil stoppe deg pￃﾥ ferden hvis de vil det</comment>
								<name>kan stoppe deg</name>
								<in>10932</in>
								<out>-1</out>
							</marker>
							<marker>
								<comment>hva tenker du om smart framtid?</comment>
								<name></name>
								<in>5749</in>
								<out>-1</out>
							</marker>
							<marker>
								<comment>frither og valgmuligheter</comment>
								<name>taper </name>
								<in>14685</in>
								<out>-1</out>
							</marker>
							<marker>
								<comment>hvis informasjon lagres vil den brukes!</comment>
								<name>BRA</name>
								<in>8605</in>
								<out>-1</out>
							</marker>
							<marker>
								<comment>sￃﾸken etter trygghet kan ikke bli total, men vi taper total frihet</comment>
								<name>sￃﾸken</name>
								<in>15642</in>
								<out>-1</out>
							</marker>
							<marker>
								<comment>hvis noe ikke likes i et samfunn fremover</comment>
								<name>holdning</name>
								<in>3544</in>
								<out>-1</out>
							</marker>
							<marker>
								<comment>kan meninger, sksuelle legniner og organisasjonstilkntning mistenkeliggjￃﾸres</comment>
								<name>selv demokrati</name>
								<in>18716</in>
								<out>-1</out>
							</marker>
							<marker>
								<comment>hvordan skal du klare deg i framtiden nￃﾥr alt snakker med alt?</comment>
								<name>klare du?</name>
								<in>9067</in>
								<out>-1</out>
							</marker>
							<marker>
								<comment>vi mister ferdigheter og bilene er avhengig av gps og sensorer i veibanen</comment>
								<name>bilder slutter ￃﾥ funke</name>
								<in>14093</in>
								<out>-1</out>
							</marker>
							<marker>
								<comment>vi har jo snille politikere, vil de virkelig overvￃﾥke oss</comment>
								<name>snille politikere</name>
								<in>15901</in>
								<out>-1</out>
							</marker>
							<marker>
								<comment>bￃﾥde myndigheter og kriminuelle vil ha interesse av informasjon om oss</comment>
								<name>myndigheter</name>
								<in>17635</in>
								<out>-1</out>
							</marker>
							<marker>
								<comment>intensjonen kan vￃﾦre god, men hva vil det medfￃﾸre</comment>
								<name>politi</name>
								<in>1608</in>
								<out>-1</out>
							</marker>
						<link>
							<linkclipref>clipitem-759</linkclipref>
							<mediatype>video</mediatype>
							<trackindex>1</trackindex>
							<clipindex>219</clipindex>
						</link>
						<link>
							<linkclipref>clipitem-1226</linkclipref>
							<mediatype>audio</mediatype>
							<trackindex>1</trackindex>
							<clipindex>114</clipindex>
						</link>
						<link>
							<linkclipref>clipitem-1446</linkclipref>
							<mediatype>audio</mediatype>
							<trackindex>3</trackindex>
							<clipindex>93</clipindex>
						</link>
						<labels>
							<label2>Forest</label2>
						</labels>
					</clipitem>
					<transitionitem>
						<start>25980</start>
						<end>25982</end>
						<alignment>start-black</alignment>
						<cutPoint>0</cutPoint>
						<rate>
							<timebase>25</timebase>
							<ntsc>FALSE</ntsc>
						</rate>
						<effect>
							<name>Cross Fade (+3dB)</name>
							<effectid>KGAudioTransCrossFade3dB</effectid>
							<effecttype>transition</effecttype>
							<mediatype>audio</mediatype>
							<wipecode>0</wipecode>
							<wipeaccuracy>100</wipeaccuracy>
							<startratio>0</startratio>
							<endratio>1</endratio>
							<reverse>FALSE</reverse>
						</effect>
					</transitionitem>
					<clipitem id="clipitem-1227" frameBlend="FALSE">
						<masterclipid>masterclip-168</masterclipid>
						<name>AA049801.MXFMulticam case</name>
						<enabled>TRUE</enabled>
						<duration>20553</duration>
						<rate>
							<timebase>25</timebase>
							<ntsc>FALSE</ntsc>
						</rate>
						<start>-1</start>
						<end>26619</end>
						<in>12091</in>
						<out>12730</out>
						<sequence id="sequence-123"/>
							<marker>
								<comment>har jeg noe ￃﾥ frykrte, hvis du ikke er kriminiell sￃﾥ har du nope ￃﾥￂﾨskjul, privatlivet dittt</comment>
								<name>frykter noe?</name>
								<in>4526</in>
								<out>-1</out>
							</marker>
							<marker>
								<comment>trenger ikke smartsamfunn der alt styres sentralt</comment>
								<name></name>
								<in>10020</in>
								<out>-1</out>
							</marker>
							<marker>
								<comment>blir lettere nￃﾥr alt er koblet sammen</comment>
								<name>mer bevkemt for meg</name>
								<in>12428</in>
								<out>-1</out>
							</marker>
							<marker>
								<comment>gjￃﾸr at du kan overvￃﾥkes og det er for ￃﾥ spare penger</comment>
								<name>folkebedrag</name>
								<in>6238</in>
								<out>-1</out>
							</marker>
							<marker>
								<comment>kan se hva du gjￃﾸr hvilke apparater du bruker</comment>
								<name></name>
								<in>7411</in>
								<out>-1</out>
							</marker>
							<marker>
								<comment>ymndighetene vil stoppe deg pￃﾥ ferden hvis de vil det</comment>
								<name>kan stoppe deg</name>
								<in>10932</in>
								<out>-1</out>
							</marker>
							<marker>
								<comment>hva tenker du om smart framtid?</comment>
								<name></name>
								<in>5749</in>
								<out>-1</out>
							</marker>
							<marker>
								<comment>frither og valgmuligheter</comment>
								<name>taper </name>
								<in>14685</in>
								<out>-1</out>
							</marker>
							<marker>
								<comment>hvis informasjon lagres vil den brukes!</comment>
								<name>BRA</name>
								<in>8605</in>
								<out>-1</out>
							</marker>
							<marker>
								<comment>sￃﾸken etter trygghet kan ikke bli total, men vi taper total frihet</comment>
								<name>sￃﾸken</name>
								<in>15642</in>
								<out>-1</out>
							</marker>
							<marker>
								<comment>hvis noe ikke likes i et samfunn fremover</comment>
								<name>holdning</name>
								<in>3544</in>
								<out>-1</out>
							</marker>
							<marker>
								<comment>kan meninger, sksuelle legniner og organisasjonstilkntning mistenkeliggjￃﾸres</comment>
								<name>selv demokrati</name>
								<in>18716</in>
								<out>-1</out>
							</marker>
							<marker>
								<comment>hvordan skal du klare deg i framtiden nￃﾥr alt snakker med alt?</comment>
								<name>klare du?</name>
								<in>9067</in>
								<out>-1</out>
							</marker>
							<marker>
								<comment>vi mister ferdigheter og bilene er avhengig av gps og sensorer i veibanen</comment>
								<name>bilder slutter ￃﾥ funke</name>
								<in>14093</in>
								<out>-1</out>
							</marker>
							<marker>
								<comment>vi har jo snille politikere, vil de virkelig overvￃﾥke oss</comment>
								<name>snille politikere</name>
								<in>15901</in>
								<out>-1</out>
							</marker>
							<marker>
								<comment>bￃﾥde myndigheter og kriminuelle vil ha interesse av informasjon om oss</comment>
								<name>myndigheter</name>
								<in>17635</in>
								<out>-1</out>
							</marker>
							<marker>
								<comment>intensjonen kan vￃﾦre god, men hva vil det medfￃﾸre</comment>
								<name>politi</name>
								<in>1608</in>
								<out>-1</out>
							</marker>
						<labels>
							<label2>Forest</label2>
						</labels>
					</clipitem>
					<clipitem id="clipitem-1228" frameBlend="FALSE">
						<masterclipid>masterclip-168</masterclipid>
						<name>AA049801.MXFMulticam case</name>
						<enabled>TRUE</enabled>
						<duration>20553</duration>
						<rate>
							<timebase>25</timebase>
							<ntsc>FALSE</ntsc>
						</rate>
						<start>26619</start>
						<end>27253</end>
						<in>15152</in>
						<out>15786</out>
						<sequence id="sequence-123"/>
							<marker>
								<comment>har jeg noe ￃﾥ frykrte, hvis du ikke er kriminiell sￃﾥ har du nope ￃﾥￂﾨskjul, privatlivet dittt</comment>
								<name>frykter noe?</name>
								<in>4526</in>
								<out>-1</out>
							</marker>
							<marker>
								<comment>trenger ikke smartsamfunn der alt styres sentralt</comment>
								<name></name>
								<in>10020</in>
								<out>-1</out>
							</marker>
							<marker>
								<comment>blir lettere nￃﾥr alt er koblet sammen</comment>
								<name>mer bevkemt for meg</name>
								<in>12428</in>
								<out>-1</out>
							</marker>
							<marker>
								<comment>gjￃﾸr at du kan overvￃﾥkes og det er for ￃﾥ spare penger</comment>
								<name>folkebedrag</name>
								<in>6238</in>
								<out>-1</out>
							</marker>
							<marker>
								<comment>kan se hva du gjￃﾸr hvilke apparater du bruker</comment>
								<name></name>
								<in>7411</in>
								<out>-1</out>
							</marker>
							<marker>
								<comment>ymndighetene vil stoppe deg pￃﾥ ferden hvis de vil det</comment>
								<name>kan stoppe deg</name>
								<in>10932</in>
								<out>-1</out>
							</marker>
							<marker>
								<comment>hva tenker du om smart framtid?</comment>
								<name></name>
								<in>5749</in>
								<out>-1</out>
							</marker>
							<marker>
								<comment>frither og valgmuligheter</comment>
								<name>taper </name>
								<in>14685</in>
								<out>-1</out>
							</marker>
							<marker>
								<comment>hvis informasjon lagres vil den brukes!</comment>
								<name>BRA</name>
								<in>8605</in>
								<out>-1</out>
							</marker>
							<marker>
								<comment>sￃﾸken etter trygghet kan ikke bli total, men vi taper total frihet</comment>
								<name>sￃﾸken</name>
								<in>15642</in>
								<out>-1</out>
							</marker>
							<marker>
								<comment>hvis noe ikke likes i et samfunn fremover</comment>
								<name>holdning</name>
								<in>3544</in>
								<out>-1</out>
							</marker>
							<marker>
								<comment>kan meninger, sksuelle legniner og organisasjonstilkntning mistenkeliggjￃﾸres</comment>
								<name>selv demokrati</name>
								<in>18716</in>
								<out>-1</out>
							</marker>
							<marker>
								<comment>hvordan skal du klare deg i framtiden nￃﾥr alt snakker med alt?</comment>
								<name>klare du?</name>
								<in>9067</in>
								<out>-1</out>
							</marker>
							<marker>
								<comment>vi mister ferdigheter og bilene er avhengig av gps og sensorer i veibanen</comment>
								<name>bilder slutter ￃﾥ funke</name>
								<in>14093</in>
								<out>-1</out>
							</marker>
							<marker>
								<comment>vi har jo snille politikere, vil de virkelig overvￃﾥke oss</comment>
								<name>snille politikere</name>
								<in>15901</in>
								<out>-1</out>
							</marker>
							<marker>
								<comment>bￃﾥde myndigheter og kriminuelle vil ha interesse av informasjon om oss</comment>
								<name>myndigheter</name>
								<in>17635</in>
								<out>-1</out>
							</marker>
							<marker>
								<comment>intensjonen kan vￃﾦre god, men hva vil det medfￃﾸre</comment>
								<name>politi</name>
								<in>1608</in>
								<out>-1</out>
							</marker>
						<link>
							<linkclipref>clipitem-764</linkclipref>
							<mediatype>video</mediatype>
							<trackindex>1</trackindex>
							<clipindex>224</clipindex>
						</link>
						<link>
							<linkclipref>clipitem-1228</linkclipref>
							<mediatype>audio</mediatype>
							<trackindex>1</trackindex>
							<clipindex>117</clipindex>
						</link>
						<link>
							<linkclipref>clipitem-1448</linkclipref>
							<mediatype>audio</mediatype>
							<trackindex>3</trackindex>
							<clipindex>96</clipindex>
						</link>
						<labels>
							<label2>Forest</label2>
						</labels>
					</clipitem>
					<clipitem id="clipitem-1229" frameBlend="FALSE">
						<masterclipid>masterclip-168</masterclipid>
						<name>AA049801.MXFMulticam case</name>
						<enabled>TRUE</enabled>
						<duration>20553</duration>
						<rate>
							<timebase>25</timebase>
							<ntsc>FALSE</ntsc>
						</rate>
						<start>27667</start>
						<end>28959</end>
						<in>19179</in>
						<out>20471</out>
						<sequence id="sequence-123"/>
							<marker>
								<comment>har jeg noe ￃﾥ frykrte, hvis du ikke er kriminiell sￃﾥ har du nope ￃﾥￂﾨskjul, privatlivet dittt</comment>
								<name>frykter noe?</name>
								<in>4526</in>
								<out>-1</out>
							</marker>
							<marker>
								<comment>trenger ikke smartsamfunn der alt styres sentralt</comment>
								<name></name>
								<in>10020</in>
								<out>-1</out>
							</marker>
							<marker>
								<comment>blir lettere nￃﾥr alt er koblet sammen</comment>
								<name>mer bevkemt for meg</name>
								<in>12428</in>
								<out>-1</out>
							</marker>
							<marker>
								<comment>gjￃﾸr at du kan overvￃﾥkes og det er for ￃﾥ spare penger</comment>
								<name>folkebedrag</name>
								<in>6238</in>
								<out>-1</out>
							</marker>
							<marker>
								<comment>kan se hva du gjￃﾸr hvilke apparater du bruker</comment>
								<name></name>
								<in>7411</in>
								<out>-1</out>
							</marker>
							<marker>
								<comment>ymndighetene vil stoppe deg pￃﾥ ferden hvis de vil det</comment>
								<name>kan stoppe deg</name>
								<in>10932</in>
								<out>-1</out>
							</marker>
							<marker>
								<comment>hva tenker du om smart framtid?</comment>
								<name></name>
								<in>5749</in>
								<out>-1</out>
							</marker>
							<marker>
								<comment>frither og valgmuligheter</comment>
								<name>taper </name>
								<in>14685</in>
								<out>-1</out>
							</marker>
							<marker>
								<comment>hvis informasjon lagres vil den brukes!</comment>
								<name>BRA</name>
								<in>8605</in>
								<out>-1</out>
							</marker>
							<marker>
								<comment>sￃﾸken etter trygghet kan ikke bli total, men vi taper total frihet</comment>
								<name>sￃﾸken</name>
								<in>15642</in>
								<out>-1</out>
							</marker>
							<marker>
								<comment>hvis noe ikke likes i et samfunn fremover</comment>
								<name>holdning</name>
								<in>3544</in>
								<out>-1</out>
							</marker>
							<marker>
								<comment>kan meninger, sksuelle legniner og organisasjonstilkntning mistenkeliggjￃﾸres</comment>
								<name>selv demokrati</name>
								<in>18716</in>
								<out>-1</out>
							</marker>
							<marker>
								<comment>hvordan skal du klare deg i framtiden nￃﾥr alt snakker med alt?</comment>
								<name>klare du?</name>
								<in>9067</in>
								<out>-1</out>
							</marker>
							<marker>
								<comment>vi mister ferdigheter og bilene er avhengig av gps og sensorer i veibanen</comment>
								<name>bilder slutter ￃﾥ funke</name>
								<in>14093</in>
								<out>-1</out>
							</marker>
							<marker>
								<comment>vi har jo snille politikere, vil de virkelig overvￃﾥke oss</comment>
								<name>snille politikere</name>
								<in>15901</in>
								<out>-1</out>
							</marker>
							<marker>
								<comment>bￃﾥde myndigheter og kriminuelle vil ha interesse av informasjon om oss</comment>
								<name>myndigheter</name>
								<in>17635</in>
								<out>-1</out>
							</marker>
							<marker>
								<comment>intensjonen kan vￃﾦre god, men hva vil det medfￃﾸre</comment>
								<name>politi</name>
								<in>1608</in>
								<out>-1</out>
							</marker>
						<link>
							<linkclipref>clipitem-774</linkclipref>
							<mediatype>video</mediatype>
							<trackindex>1</trackindex>
							<clipindex>234</clipindex>
						</link>
						<link>
							<linkclipref>clipitem-1229</linkclipref>
							<mediatype>audio</mediatype>
							<trackindex>1</trackindex>
							<clipindex>118</clipindex>
						</link>
						<link>
							<linkclipref>clipitem-1449</linkclipref>
							<mediatype>audio</mediatype>
							<trackindex>3</trackindex>
							<clipindex>97</clipindex>
						</link>
						<labels>
							<label2>Forest</label2>
						</labels>
					</clipitem>
					<clipitem id="clipitem-1230" frameBlend="FALSE">
						<masterclipid>masterclip-14</masterclipid>
						<name>AA050001.MXF</name>
						<enabled>TRUE</enabled>
						<duration>10644</duration>
						<rate>
							<timebase>25</timebase>
							<ntsc>FALSE</ntsc>
						</rate>
						<start>28959</start>
						<end>29075</end>
						<in>7709</in>
						<out>7825</out>
						<file id="file-13"/>
						<sourcetrack>
							<mediatype>audio</mediatype>
							<trackindex>2</trackindex>
						</sourcetrack>
							<marker>
								<comment>vi har valgmuligheter</comment>
								<name>ikke redd</name>
								<in>4502</in>
								<out>-1</out>
							</marker>
							<marker>
								<comment>det er ikke ond vilje, men alle de gode formￃﾥlene vil bli utvidet</comment>
								<name>gode formￃﾥl</name>
								<in>2400</in>
								<out>-1</out>
							</marker>
							<marker>
								<comment>har vi stￃﾸrre krav pￃﾥ ￃﾥ ha vￃﾥrt privatliv i fred</comment>
								<name>hvis vi er lovlydige</name>
								<in>8469</in>
								<out>-1</out>
							</marker>
							<marker>
								<comment></comment>
								<name></name>
								<in>2965</in>
								<out>-1</out>
							</marker>
							<marker>
								<comment>er du redd nￃﾥr mer og mer blir intelligent</comment>
								<name>frykter du </name>
								<in>3267</in>
								<out>-1</out>
							</marker>
							<marker>
								<comment></comment>
								<name></name>
								<in>3906</in>
								<out>-1</out>
							</marker>
							<marker>
								<comment>er ikke en vaksine mot totalitￃﾦre tendenser</comment>
								<name>demokrati</name>
								<in>5809</in>
								<out>-1</out>
							</marker>
							<marker>
								<comment>velger selv hvilken vei vi vil gￃﾥ</comment>
								<name>kan velge vei</name>
								<in>4698</in>
								<out>-1</out>
							</marker>
							<marker>
								<comment>hva blir de faktiske fￃﾸlgen dersom lt vi gjￃﾸr blr registrert</comment>
								<name>ikke tillit</name>
								<in>1338</in>
								<out>-1</out>
							</marker>
							<marker>
								<comment>vil dukke opp nye formￃﾥl og de vil kunne utvides</comment>
								<name>nye formￃﾥl</name>
								<in>9188</in>
								<out>-1</out>
							</marker>
						<logginginfo>
							<description></description>
							<scene></scene>
							<shottake>AA0500</shottake>
							<lognote></lognote>
						</logginginfo>
						<labels>
							<label2>Iris</label2>
						</labels>
					</clipitem>
					<clipitem id="clipitem-1231" frameBlend="FALSE">
						<masterclipid>masterclip-14</masterclipid>
						<name>AA050001.MXF</name>
						<enabled>TRUE</enabled>
						<duration>10644</duration>
						<rate>
							<timebase>25</timebase>
							<ntsc>FALSE</ntsc>
						</rate>
						<start>29075</start>
						<end>29145</end>
						<in>7887</in>
						<out>7957</out>
						<file id="file-13"/>
						<sourcetrack>
							<mediatype>audio</mediatype>
							<trackindex>2</trackindex>
						</sourcetrack>
							<marker>
								<comment>vi har valgmuligheter</comment>
								<name>ikke redd</name>
								<in>4502</in>
								<out>-1</out>
							</marker>
							<marker>
								<comment>det er ikke ond vilje, men alle de gode formￃﾥlene vil bli utvidet</comment>
								<name>gode formￃﾥl</name>
								<in>2400</in>
								<out>-1</out>
							</marker>
							<marker>
								<comment>har vi stￃﾸrre krav pￃﾥ ￃﾥ ha vￃﾥrt privatliv i fred</comment>
								<name>hvis vi er lovlydige</name>
								<in>8469</in>
								<out>-1</out>
							</marker>
							<marker>
								<comment></comment>
								<name></name>
								<in>2965</in>
								<out>-1</out>
							</marker>
							<marker>
								<comment>er du redd nￃﾥr mer og mer blir intelligent</comment>
								<name>frykter du </name>
								<in>3267</in>
								<out>-1</out>
							</marker>
							<marker>
								<comment></comment>
								<name></name>
								<in>3906</in>
								<out>-1</out>
							</marker>
							<marker>
								<comment>er ikke en vaksine mot totalitￃﾦre tendenser</comment>
								<name>demokrati</name>
								<in>5809</in>
								<out>-1</out>
							</marker>
							<marker>
								<comment>velger selv hvilken vei vi vil gￃﾥ</comment>
								<name>kan velge vei</name>
								<in>4698</in>
								<out>-1</out>
							</marker>
							<marker>
								<comment>hva blir de faktiske fￃﾸlgen dersom lt vi gjￃﾸr blr registrert</comment>
								<name>ikke tillit</name>
								<in>1338</in>
								<out>-1</out>
							</marker>
							<marker>
								<comment>vil dukke opp nye formￃﾥl og de vil kunne utvides</comment>
								<name>nye formￃﾥl</name>
								<in>9188</in>
								<out>-1</out>
							</marker>
						<logginginfo>
							<description></description>
							<scene></scene>
							<shottake>AA0500</shottake>
							<lognote></lognote>
						</logginginfo>
						<labels>
							<label2>Iris</label2>
						</labels>
					</clipitem>
					<clipitem id="clipitem-1232" frameBlend="FALSE">
						<masterclipid>masterclip-177</masterclipid>
						<name>AA023901.MXF</name>
						<enabled>TRUE</enabled>
						<duration>420</duration>
						<rate>
							<timebase>25</timebase>
							<ntsc>FALSE</ntsc>
						</rate>
						<start>29145</start>
						<end>29230</end>
						<in>248</in>
						<out>333</out>
						<file id="file-157"/>
						<sourcetrack>
							<mediatype>audio</mediatype>
							<trackindex>1</trackindex>
						</sourcetrack>
						<link>
							<linkclipref>clipitem-779</linkclipref>
							<mediatype>video</mediatype>
							<trackindex>1</trackindex>
							<clipindex>239</clipindex>
						</link>
						<link>
							<linkclipref>clipitem-1232</linkclipref>
							<mediatype>audio</mediatype>
							<trackindex>1</trackindex>
							<clipindex>121</clipindex>
						</link>
						<link>
							<linkclipref>clipitem-1450</linkclipref>
							<mediatype>audio</mediatype>
							<trackindex>3</trackindex>
							<clipindex>98</clipindex>
						</link>
						<logginginfo>
							<description></description>
							<scene></scene>
							<shottake>AA0239</shottake>
							<lognote></lognote>
						</logginginfo>
						<labels>
							<label2>Iris</label2>
						</labels>
					</clipitem>
					<clipitem id="clipitem-1233" frameBlend="FALSE">
						<masterclipid>masterclip-180</masterclipid>
						<name>AA024401.MXF</name>
						<enabled>TRUE</enabled>
						<duration>636</duration>
						<rate>
							<timebase>25</timebase>
							<ntsc>FALSE</ntsc>
						</rate>
						<start>29353</start>
						<end>29564</end>
						<in>146</in>
						<out>357</out>
						<file id="file-160"/>
						<sourcetrack>
							<mediatype>audio</mediatype>
							<trackindex>1</trackindex>
						</sourcetrack>
						<link>
							<linkclipref>clipitem-782</linkclipref>
							<mediatype>video</mediatype>
							<trackindex>1</trackindex>
							<clipindex>242</clipindex>
						</link>
						<link>
							<linkclipref>clipitem-1233</linkclipref>
							<mediatype>audio</mediatype>
							<trackindex>1</trackindex>
							<clipindex>122</clipindex>
						</link>
						<logginginfo>
							<description></description>
							<scene></scene>
							<shottake>AA0244</shottake>
							<lognote></lognote>
						</logginginfo>
						<labels>
							<label2>Iris</label2>
						</labels>
					</clipitem>
					<clipitem id="clipitem-1234" frameBlend="FALSE">
						<masterclipid>masterclip-182</masterclipid>
						<name>AA024201.MXFCowi varemesse multi</name>
						<enabled>TRUE</enabled>
						<duration>2889</duration>
						<rate>
							<timebase>25</timebase>
							<ntsc>FALSE</ntsc>
						</rate>
						<start>29630</start>
						<end>29788</end>
						<in>1014</in>
						<out>1172</out>
						<sequence id="sequence-124" MZ.Sequence.PreviewFrameSizeHeight="1080" MZ.Sequence.PreviewFrameSizeWidth="1920" MZ.Sequence.AudioTimeDisplayFormat="200" MZ.Sequence.PreviewRenderingClassID="1297106761" MZ.Sequence.PreviewRenderingPresetCodec="1297107278" MZ.Sequence.PreviewRenderingPresetPath="EncoderPresets/SequencePreview/795454d9-d3c2-429d-9474-923ab13b7018/I-Frame Only MPEG.epr" MZ.Sequence.PreviewUseMaxRenderQuality="false" MZ.Sequence.PreviewUseMaxBitDepth="false" MZ.Sequence.EditingModeGUID="795454d9-d3c2-429d-9474-923ab13b7018" MZ.Sequence.VideoTimeDisplayFormat="101" MZ.WorkOutPoint="15240960000000" MZ.WorkInPoint="0">
							<duration>2889</duration>
							<rate>
								<timebase>25</timebase>
								<ntsc>FALSE</ntsc>
							</rate>
							<name>AA024201.MXFCowi varemesse multi</name>
							<media>
								<video>
									<format>
										<samplecharacteristics>
											<rate>
												<timebase>25</timebase>
												<ntsc>FALSE</ntsc>
											</rate>
											<codec>
												<name>Apple ProRes 422</name>
												<appspecificdata>
													<appname>Final Cut Pro</appname>
													<appmanufacturer>Apple Inc.</appmanufacturer>
													<appversion>7.0</appversion>
													<data>
														<qtcodec>
															<codecname>Apple ProRes 422</codecname>
															<codectypename>Apple ProRes 422</codectypename>
															<codectypecode>apcn</codectypecode>
															<codecvendorcode>appl</codecvendorcode>
															<spatialquality>1024</spatialquality>
															<temporalquality>0</temporalquality>
															<keyframerate>0</keyframerate>
															<datarate>0</datarate>
														</qtcodec>
													</data>
												</appspecificdata>
											</codec>
											<width>1920</width>
											<height>1080</height>
											<anamorphic>FALSE</anamorphic>
											<pixelaspectratio>square</pixelaspectratio>
											<fielddominance>none</fielddominance>
											<colordepth>24</colordepth>
										</samplecharacteristics>
									</format>
									<track>
										<clipitem id="clipitem-1235" frameBlend="FALSE">
											<masterclipid>masterclip-183</masterclipid>
											<name>AA024201.MXF</name>
											<enabled>TRUE</enabled>
											<duration>1980</duration>
											<rate>
												<timebase>25</timebase>
												<ntsc>FALSE</ntsc>
											</rate>
											<start>909</start>
											<end>2889</end>
											<in>0</in>
											<out>1980</out>
											<alphatype>none</alphatype>
											<file id="file-162"/>
											<link>
												<linkclipref>clipitem-1235</linkclipref>
												<mediatype>video</mediatype>
												<trackindex>1</trackindex>
												<clipindex>1</clipindex>
											</link>
											<link>
												<linkclipref>clipitem-1238</linkclipref>
												<mediatype>audio</mediatype>
												<trackindex>1</trackindex>
												<clipindex>1</clipindex>
												<groupindex>1</groupindex>
											</link>
											<link>
												<linkclipref>clipitem-1239</linkclipref>
												<mediatype>audio</mediatype>
												<trackindex>2</trackindex>
												<clipindex>1</clipindex>
												<groupindex>1</groupindex>
											</link>
											<logginginfo>
												<description></description>
												<scene></scene>
												<shottake>AA0242</shottake>
												<lognote></lognote>
											</logginginfo>
											<labels>
												<label2>Iris</label2>
											</labels>
										</clipitem>
										<enabled>TRUE</enabled>
										<locked>FALSE</locked>
									</track>
									<track>
										<clipitem id="clipitem-1236" frameBlend="FALSE">
											<masterclipid>masterclip-184</masterclipid>
											<name>MVI_0133.MOV</name>
											<enabled>TRUE</enabled>
											<duration>586</duration>
											<rate>
												<timebase>25</timebase>
												<ntsc>FALSE</ntsc>
											</rate>
											<start>152</start>
											<end>738</end>
											<in>0</in>
											<out>586</out>
											<alphatype>black</alphatype>
											<file id="file-163"/>
											<link>
												<linkclipref>clipitem-1236</linkclipref>
												<mediatype>video</mediatype>
												<trackindex>2</trackindex>
												<clipindex>1</clipindex>
											</link>
											<link>
												<linkclipref>clipitem-1240</linkclipref>
												<mediatype>audio</mediatype>
												<trackindex>3</trackindex>
												<clipindex>1</clipindex>
												<groupindex>1</groupindex>
											</link>
											<link>
												<linkclipref>clipitem-1241</linkclipref>
												<mediatype>audio</mediatype>
												<trackindex>4</trackindex>
												<clipindex>1</clipindex>
												<groupindex>1</groupindex>
											</link>
											<logginginfo>
												<description></description>
												<scene></scene>
												<shottake></shottake>
												<lognote></lognote>
											</logginginfo>
											<labels>
												<label2>Iris</label2>
											</labels>
										</clipitem>
										<enabled>TRUE</enabled>
										<locked>FALSE</locked>
									</track>
									<track>
										<clipitem id="clipitem-1237" frameBlend="FALSE">
											<masterclipid>masterclip-185</masterclipid>
											<name>MVI_0168.MOV</name>
											<enabled>TRUE</enabled>
											<duration>2755</duration>
											<rate>
												<timebase>25</timebase>
												<ntsc>FALSE</ntsc>
											</rate>
											<start>0</start>
											<end>2755</end>
											<in>0</in>
											<out>2755</out>
											<alphatype>black</alphatype>
											<file id="file-164"/>
											<link>
												<linkclipref>clipitem-1237</linkclipref>
												<mediatype>video</mediatype>
												<trackindex>3</trackindex>
												<clipindex>1</clipindex>
											</link>
											<link>
												<linkclipref>clipitem-1242</linkclipref>
												<mediatype>audio</mediatype>
												<trackindex>5</trackindex>
												<clipindex>1</clipindex>
												<groupindex>1</groupindex>
											</link>
											<link>
												<linkclipref>clipitem-1243</linkclipref>
												<mediatype>audio</mediatype>
												<trackindex>6</trackindex>
												<clipindex>1</clipindex>
												<groupindex>1</groupindex>
											</link>
											<logginginfo>
												<description></description>
												<scene></scene>
												<shottake></shottake>
												<lognote></lognote>
											</logginginfo>
											<labels>
												<label2>Iris</label2>
											</labels>
										</clipitem>
										<enabled>TRUE</enabled>
										<locked>FALSE</locked>
									</track>
								</video>
								<audio>
									<format>
										<samplecharacteristics>
											<depth>16</depth>
											<samplerate>48000</samplerate>
										</samplecharacteristics>
									</format>
									<outputs>
										<group>
											<index>1</index>
											<numchannels>1</numchannels>
											<downmix>0</downmix>
											<channel>
												<index>1</index>
											</channel>
										</group>
										<group>
											<index>2</index>
											<numchannels>1</numchannels>
											<downmix>0</downmix>
											<channel>
												<index>2</index>
											</channel>
										</group>
										<group>
											<index>3</index>
											<numchannels>1</numchannels>
											<downmix>0</downmix>
											<channel>
												<index>3</index>
											</channel>
										</group>
										<group>
											<index>4</index>
											<numchannels>1</numchannels>
											<downmix>0</downmix>
											<channel>
												<index>4</index>
											</channel>
										</group>
										<group>
											<index>5</index>
											<numchannels>1</numchannels>
											<downmix>0</downmix>
											<channel>
												<index>5</index>
											</channel>
										</group>
										<group>
											<index>6</index>
											<numchannels>1</numchannels>
											<downmix>0</downmix>
											<channel>
												<index>6</index>
											</channel>
										</group>
									</outputs>
									<track TL.SQTrackExpandedHeight="25" TL.SQTrackExpanded="0" MZ.TrackTargeted="1" PannerCurrentValue="0.5" PannerIsInverted="true" PannerStartKeyframe="-91445760000000000,0.5,0,0,0,0,0,0" PannerName="Balance" currentExplodedTrackIndex="0" totalExplodedTrackCount="2" premiereTrackType="Stereo">
										<clipitem id="clipitem-1238" frameBlend="FALSE" PannerCurrentValue="0.5" PannerKeyframes="" PannerStartKeyframe="-91445760000000000,0.5,0,0,0,0,0,0" PannerIsInverted="true" PannerName="Balance">
											<masterclipid>masterclip-183</masterclipid>
											<name>AA024201.MXF</name>
											<enabled>TRUE</enabled>
											<duration>1980</duration>
											<rate>
												<timebase>25</timebase>
												<ntsc>FALSE</ntsc>
											</rate>
											<start>909</start>
											<end>2889</end>
											<in>0</in>
											<out>1980</out>
											<file id="file-162"/>
											<sourcetrack>
												<mediatype>audio</mediatype>
												<trackindex>1</trackindex>
											</sourcetrack>
												<filter>
													<effect>
														<name>Audio Pan</name>
														<effectid>audiopan</effectid>
														<effectcategory>audiopan</effectcategory>
														<effecttype>audiopan</effecttype>
														<mediatype>audio</mediatype>
														<parameter authoringApp="PremierePro">
															<parameterid>pan</parameterid>
															<name>Pan</name>
															<valuemin>-1</valuemin>
															<valuemax>1</valuemax>
															<value>0</value>
														</parameter>
													</effect>
												</filter>
											<link>
												<linkclipref>clipitem-1235</linkclipref>
												<mediatype>video</mediatype>
												<trackindex>1</trackindex>
												<clipindex>1</clipindex>
											</link>
											<link>
												<linkclipref>clipitem-1238</linkclipref>
												<mediatype>audio</mediatype>
												<trackindex>1</trackindex>
												<clipindex>1</clipindex>
												<groupindex>1</groupindex>
											</link>
											<link>
												<linkclipref>clipitem-1239</linkclipref>
												<mediatype>audio</mediatype>
												<trackindex>2</trackindex>
												<clipindex>1</clipindex>
												<groupindex>1</groupindex>
											</link>
											<logginginfo>
												<description></description>
												<scene></scene>
												<shottake>AA0242</shottake>
												<lognote></lognote>
											</logginginfo>
											<labels>
												<label2>Iris</label2>
											</labels>
										</clipitem>
										<enabled>TRUE</enabled>
										<locked>FALSE</locked>
										<outputchannelindex>1</outputchannelindex>
									</track>
									<track TL.SQTrackExpandedHeight="25" TL.SQTrackExpanded="0" MZ.TrackTargeted="1" PannerCurrentValue="0.5" PannerIsInverted="true" PannerStartKeyframe="-91445760000000000,0.5,0,0,0,0,0,0" PannerName="Balance" currentExplodedTrackIndex="1" totalExplodedTrackCount="2" premiereTrackType="Stereo">
										<clipitem id="clipitem-1239" frameBlend="FALSE" PannerCurrentValue="0.5" PannerKeyframes="" PannerStartKeyframe="-91445760000000000,0.5,0,0,0,0,0,0" PannerIsInverted="true" PannerName="Balance">
											<masterclipid>masterclip-183</masterclipid>
											<name>AA024201.MXF</name>
											<enabled>TRUE</enabled>
											<duration>1980</duration>
											<rate>
												<timebase>25</timebase>
												<ntsc>FALSE</ntsc>
											</rate>
											<start>909</start>
											<end>2889</end>
											<in>0</in>
											<out>1980</out>
											<file id="file-162"/>
											<sourcetrack>
												<mediatype>audio</mediatype>
												<trackindex>2</trackindex>
											</sourcetrack>
												<filter>
													<effect>
														<name>Audio Pan</name>
														<effectid>audiopan</effectid>
														<effectcategory>audiopan</effectcategory>
														<effecttype>audiopan</effecttype>
														<mediatype>audio</mediatype>
														<parameter authoringApp="PremierePro">
															<parameterid>pan</parameterid>
															<name>Pan</name>
															<valuemin>-1</valuemin>
															<valuemax>1</valuemax>
															<value>0</value>
														</parameter>
													</effect>
												</filter>
											<link>
												<linkclipref>clipitem-1235</linkclipref>
												<mediatype>video</mediatype>
												<trackindex>1</trackindex>
												<clipindex>1</clipindex>
											</link>
											<link>
												<linkclipref>clipitem-1238</linkclipref>
												<mediatype>audio</mediatype>
												<trackindex>1</trackindex>
												<clipindex>1</clipindex>
												<groupindex>1</groupindex>
											</link>
											<link>
												<linkclipref>clipitem-1239</linkclipref>
												<mediatype>audio</mediatype>
												<trackindex>2</trackindex>
												<clipindex>1</clipindex>
												<groupindex>1</groupindex>
											</link>
											<logginginfo>
												<description></description>
												<scene></scene>
												<shottake>AA0242</shottake>
												<lognote></lognote>
											</logginginfo>
											<labels>
												<label2>Iris</label2>
											</labels>
										</clipitem>
										<enabled>TRUE</enabled>
										<locked>FALSE</locked>
										<outputchannelindex>2</outputchannelindex>
									</track>
									<track TL.SQTrackExpandedHeight="25" TL.SQTrackExpanded="0" MZ.TrackTargeted="1" PannerCurrentValue="0.5" PannerIsInverted="true" PannerStartKeyframe="-91445760000000000,0.5,0,0,0,0,0,0" PannerName="Balance" currentExplodedTrackIndex="0" totalExplodedTrackCount="2" premiereTrackType="Stereo">
										<clipitem id="clipitem-1240" frameBlend="FALSE" PannerCurrentValue="0.5" PannerKeyframes="" PannerStartKeyframe="-91445760000000000,0.5,0,0,0,0,0,0" PannerIsInverted="true" PannerName="Balance">
											<masterclipid>masterclip-184</masterclipid>
											<name>MVI_0133.MOV</name>
											<enabled>TRUE</enabled>
											<duration>586</duration>
											<rate>
												<timebase>25</timebase>
												<ntsc>FALSE</ntsc>
											</rate>
											<start>152</start>
											<end>738</end>
											<in>0</in>
											<out>586</out>
											<file id="file-163"/>
											<sourcetrack>
												<mediatype>audio</mediatype>
												<trackindex>1</trackindex>
											</sourcetrack>
												<filter>
													<effect>
														<name>Audio Pan</name>
														<effectid>audiopan</effectid>
														<effectcategory>audiopan</effectcategory>
														<effecttype>audiopan</effecttype>
														<mediatype>audio</mediatype>
														<parameter authoringApp="PremierePro">
															<parameterid>pan</parameterid>
															<name>Pan</name>
															<valuemin>-1</valuemin>
															<valuemax>1</valuemax>
															<value>0</value>
														</parameter>
													</effect>
												</filter>
											<link>
												<linkclipref>clipitem-1236</linkclipref>
												<mediatype>video</mediatype>
												<trackindex>2</trackindex>
												<clipindex>1</clipindex>
											</link>
											<link>
												<linkclipref>clipitem-1240</linkclipref>
												<mediatype>audio</mediatype>
												<trackindex>3</trackindex>
												<clipindex>1</clipindex>
												<groupindex>1</groupindex>
											</link>
											<link>
												<linkclipref>clipitem-1241</linkclipref>
												<mediatype>audio</mediatype>
												<trackindex>4</trackindex>
												<clipindex>1</clipindex>
												<groupindex>1</groupindex>
											</link>
											<logginginfo>
												<description></description>
												<scene></scene>
												<shottake></shottake>
												<lognote></lognote>
											</logginginfo>
											<labels>
												<label2>Iris</label2>
											</labels>
										</clipitem>
										<enabled>TRUE</enabled>
										<locked>FALSE</locked>
										<outputchannelindex>3</outputchannelindex>
									</track>
									<track TL.SQTrackExpandedHeight="25" TL.SQTrackExpanded="0" MZ.TrackTargeted="1" PannerCurrentValue="0.5" PannerIsInverted="true" PannerStartKeyframe="-91445760000000000,0.5,0,0,0,0,0,0" PannerName="Balance" currentExplodedTrackIndex="1" totalExplodedTrackCount="2" premiereTrackType="Stereo">
										<clipitem id="clipitem-1241" frameBlend="FALSE" PannerCurrentValue="0.5" PannerKeyframes="" PannerStartKeyframe="-91445760000000000,0.5,0,0,0,0,0,0" PannerIsInverted="true" PannerName="Balance">
											<masterclipid>masterclip-184</masterclipid>
											<name>MVI_0133.MOV</name>
											<enabled>TRUE</enabled>
											<duration>586</duration>
											<rate>
												<timebase>25</timebase>
												<ntsc>FALSE</ntsc>
											</rate>
											<start>152</start>
											<end>738</end>
											<in>0</in>
											<out>586</out>
											<file id="file-163"/>
											<sourcetrack>
												<mediatype>audio</mediatype>
												<trackindex>2</trackindex>
											</sourcetrack>
												<filter>
													<effect>
														<name>Audio Pan</name>
														<effectid>audiopan</effectid>
														<effectcategory>audiopan</effectcategory>
														<effecttype>audiopan</effecttype>
														<mediatype>audio</mediatype>
														<parameter authoringApp="PremierePro">
															<parameterid>pan</parameterid>
															<name>Pan</name>
															<valuemin>-1</valuemin>
															<valuemax>1</valuemax>
															<value>0</value>
														</parameter>
													</effect>
												</filter>
											<link>
												<linkclipref>clipitem-1236</linkclipref>
												<mediatype>video</mediatype>
												<trackindex>2</trackindex>
												<clipindex>1</clipindex>
											</link>
											<link>
												<linkclipref>clipitem-1240</linkclipref>
												<mediatype>audio</mediatype>
												<trackindex>3</trackindex>
												<clipindex>1</clipindex>
												<groupindex>1</groupindex>
											</link>
											<link>
												<linkclipref>clipitem-1241</linkclipref>
												<mediatype>audio</mediatype>
												<trackindex>4</trackindex>
												<clipindex>1</clipindex>
												<groupindex>1</groupindex>
											</link>
											<logginginfo>
												<description></description>
												<scene></scene>
												<shottake></shottake>
												<lognote></lognote>
											</logginginfo>
											<labels>
												<label2>Iris</label2>
											</labels>
										</clipitem>
										<enabled>TRUE</enabled>
										<locked>FALSE</locked>
										<outputchannelindex>4</outputchannelindex>
									</track>
									<track TL.SQTrackExpandedHeight="25" TL.SQTrackExpanded="0" MZ.TrackTargeted="1" PannerCurrentValue="0.5" PannerIsInverted="true" PannerStartKeyframe="-91445760000000000,0.5,0,0,0,0,0,0" PannerName="Balance" currentExplodedTrackIndex="0" totalExplodedTrackCount="2" premiereTrackType="Stereo">
										<clipitem id="clipitem-1242" frameBlend="FALSE" PannerCurrentValue="0.5" PannerKeyframes="" PannerStartKeyframe="-91445760000000000,0.5,0,0,0,0,0,0" PannerIsInverted="true" PannerName="Balance">
											<masterclipid>masterclip-185</masterclipid>
											<name>MVI_0168.MOV</name>
											<enabled>TRUE</enabled>
											<duration>2755</duration>
											<rate>
												<timebase>25</timebase>
												<ntsc>FALSE</ntsc>
											</rate>
											<start>0</start>
											<end>2755</end>
											<in>0</in>
											<out>2755</out>
											<file id="file-164"/>
											<sourcetrack>
												<mediatype>audio</mediatype>
												<trackindex>1</trackindex>
											</sourcetrack>
												<filter>
													<effect>
														<name>Audio Pan</name>
														<effectid>audiopan</effectid>
														<effectcategory>audiopan</effectcategory>
														<effecttype>audiopan</effecttype>
														<mediatype>audio</mediatype>
														<parameter authoringApp="PremierePro">
															<parameterid>pan</parameterid>
															<name>Pan</name>
															<valuemin>-1</valuemin>
															<valuemax>1</valuemax>
															<value>0</value>
														</parameter>
													</effect>
												</filter>
											<link>
												<linkclipref>clipitem-1237</linkclipref>
												<mediatype>video</mediatype>
												<trackindex>3</trackindex>
												<clipindex>1</clipindex>
											</link>
											<link>
												<linkclipref>clipitem-1242</linkclipref>
												<mediatype>audio</mediatype>
												<trackindex>5</trackindex>
												<clipindex>1</clipindex>
												<groupindex>1</groupindex>
											</link>
											<link>
												<linkclipref>clipitem-1243</linkclipref>
												<mediatype>audio</mediatype>
												<trackindex>6</trackindex>
												<clipindex>1</clipindex>
												<groupindex>1</groupindex>
											</link>
											<logginginfo>
												<description></description>
												<scene></scene>
												<shottake></shottake>
												<lognote></lognote>
											</logginginfo>
											<labels>
												<label2>Iris</label2>
											</labels>
										</clipitem>
										<enabled>TRUE</enabled>
										<locked>FALSE</locked>
										<outputchannelindex>5</outputchannelindex>
									</track>
									<track TL.SQTrackExpandedHeight="25" TL.SQTrackExpanded="0" MZ.TrackTargeted="1" PannerCurrentValue="0.5" PannerIsInverted="true" PannerStartKeyframe="-91445760000000000,0.5,0,0,0,0,0,0" PannerName="Balance" currentExplodedTrackIndex="1" totalExplodedTrackCount="2" premiereTrackType="Stereo">
										<clipitem id="clipitem-1243" frameBlend="FALSE" PannerCurrentValue="0.5" PannerKeyframes="" PannerStartKeyframe="-91445760000000000,0.5,0,0,0,0,0,0" PannerIsInverted="true" PannerName="Balance">
											<masterclipid>masterclip-185</masterclipid>
											<name>MVI_0168.MOV</name>
											<enabled>TRUE</enabled>
											<duration>2755</duration>
											<rate>
												<timebase>25</timebase>
												<ntsc>FALSE</ntsc>
											</rate>
											<start>0</start>
											<end>2755</end>
											<in>0</in>
											<out>2755</out>
											<file id="file-164"/>
											<sourcetrack>
												<mediatype>audio</mediatype>
												<trackindex>2</trackindex>
											</sourcetrack>
												<filter>
													<effect>
														<name>Audio Pan</name>
														<effectid>audiopan</effectid>
														<effectcategory>audiopan</effectcategory>
														<effecttype>audiopan</effecttype>
														<mediatype>audio</mediatype>
														<parameter authoringApp="PremierePro">
															<parameterid>pan</parameterid>
															<name>Pan</name>
															<valuemin>-1</valuemin>
															<valuemax>1</valuemax>
															<value>0</value>
														</parameter>
													</effect>
												</filter>
											<link>
												<linkclipref>clipitem-1237</linkclipref>
												<mediatype>video</mediatype>
												<trackindex>3</trackindex>
												<clipindex>1</clipindex>
											</link>
											<link>
												<linkclipref>clipitem-1242</linkclipref>
												<mediatype>audio</mediatype>
												<trackindex>5</trackindex>
												<clipindex>1</clipindex>
												<groupindex>1</groupindex>
											</link>
											<link>
												<linkclipref>clipitem-1243</linkclipref>
												<mediatype>audio</mediatype>
												<trackindex>6</trackindex>
												<clipindex>1</clipindex>
												<groupindex>1</groupindex>
											</link>
											<logginginfo>
												<description></description>
												<scene></scene>
												<shottake></shottake>
												<lognote></lognote>
											</logginginfo>
											<labels>
												<label2>Iris</label2>
											</labels>
										</clipitem>
										<enabled>TRUE</enabled>
										<locked>FALSE</locked>
										<outputchannelindex>6</outputchannelindex>
									</track>
								</audio>
							</media>
							<timecode>
								<rate>
									<timebase>25</timebase>
									<ntsc>FALSE</ntsc>
								</rate>
								<string>00:00:00:00</string>
								<frame>0</frame>
								<displayformat>NDF</displayformat>
							</timecode>
						</sequence>
						<link>
							<linkclipref>clipitem-784</linkclipref>
							<mediatype>video</mediatype>
							<trackindex>1</trackindex>
							<clipindex>244</clipindex>
						</link>
						<link>
							<linkclipref>clipitem-1234</linkclipref>
							<mediatype>audio</mediatype>
							<trackindex>1</trackindex>
							<clipindex>123</clipindex>
						</link>
						<link>
							<linkclipref>clipitem-1454</linkclipref>
							<mediatype>audio</mediatype>
							<trackindex>3</trackindex>
							<clipindex>102</clipindex>
						</link>
						<labels>
							<label2>Forest</label2>
						</labels>
					</clipitem>
					<clipitem id="clipitem-1244" frameBlend="FALSE">
						<masterclipid>masterclip-186</masterclipid>
						<name>MVI_0176.MOV</name>
						<enabled>TRUE</enabled>
						<duration>559</duration>
						<rate>
							<timebase>25</timebase>
							<ntsc>FALSE</ntsc>
						</rate>
						<start>29788</start>
						<end>29872</end>
						<in>369</in>
						<out>453</out>
						<file id="file-165"/>
						<sourcetrack>
							<mediatype>audio</mediatype>
							<trackindex>1</trackindex>
						</sourcetrack>
						<link>
							<linkclipref>clipitem-794</linkclipref>
							<mediatype>video</mediatype>
							<trackindex>1</trackindex>
							<clipindex>245</clipindex>
						</link>
						<link>
							<linkclipref>clipitem-1244</linkclipref>
							<mediatype>audio</mediatype>
							<trackindex>1</trackindex>
							<clipindex>124</clipindex>
						</link>
						<link>
							<linkclipref>clipitem-1455</linkclipref>
							<mediatype>audio</mediatype>
							<trackindex>3</trackindex>
							<clipindex>103</clipindex>
						</link>
						<logginginfo>
							<description></description>
							<scene></scene>
							<shottake></shottake>
							<lognote></lognote>
						</logginginfo>
						<labels>
							<label2>Iris</label2>
						</labels>
					</clipitem>
					<clipitem id="clipitem-1245" frameBlend="FALSE">
						<masterclipid>masterclip-187</masterclipid>
						<name>AA022501.MXFCowi varemesse multi</name>
						<enabled>TRUE</enabled>
						<duration>1445</duration>
						<rate>
							<timebase>25</timebase>
							<ntsc>FALSE</ntsc>
						</rate>
						<start>29872</start>
						<end>29906</end>
						<in>535</in>
						<out>569</out>
						<sequence id="sequence-125" MZ.Sequence.PreviewFrameSizeHeight="1080" MZ.Sequence.PreviewFrameSizeWidth="1920" MZ.Sequence.AudioTimeDisplayFormat="200" MZ.Sequence.PreviewRenderingClassID="1297106761" MZ.Sequence.PreviewRenderingPresetCodec="1297107278" MZ.Sequence.PreviewRenderingPresetPath="EncoderPresets/SequencePreview/795454d9-d3c2-429d-9474-923ab13b7018/I-Frame Only MPEG.epr" MZ.Sequence.PreviewUseMaxRenderQuality="false" MZ.Sequence.PreviewUseMaxBitDepth="false" MZ.Sequence.EditingModeGUID="795454d9-d3c2-429d-9474-923ab13b7018" MZ.Sequence.VideoTimeDisplayFormat="101" MZ.WorkOutPoint="15240960000000" MZ.WorkInPoint="0">
							<duration>708</duration>
							<rate>
								<timebase>25</timebase>
								<ntsc>FALSE</ntsc>
							</rate>
							<name>AA022501.MXFCowi varemesse multi</name>
							<media>
								<video>
									<format>
										<samplecharacteristics>
											<rate>
												<timebase>25</timebase>
												<ntsc>FALSE</ntsc>
											</rate>
											<codec>
												<name>Apple ProRes 422</name>
												<appspecificdata>
													<appname>Final Cut Pro</appname>
													<appmanufacturer>Apple Inc.</appmanufacturer>
													<appversion>7.0</appversion>
													<data>
														<qtcodec>
															<codecname>Apple ProRes 422</codecname>
															<codectypename>Apple ProRes 422</codectypename>
															<codectypecode>apcn</codectypecode>
															<codecvendorcode>appl</codecvendorcode>
															<spatialquality>1024</spatialquality>
															<temporalquality>0</temporalquality>
															<keyframerate>0</keyframerate>
															<datarate>0</datarate>
														</qtcodec>
													</data>
												</appspecificdata>
											</codec>
											<width>1920</width>
											<height>1080</height>
											<anamorphic>FALSE</anamorphic>
											<pixelaspectratio>square</pixelaspectratio>
											<fielddominance>none</fielddominance>
											<colordepth>24</colordepth>
										</samplecharacteristics>
									</format>
									<track>
										<clipitem id="clipitem-1246" frameBlend="FALSE">
											<masterclipid>masterclip-188</masterclipid>
											<name>AA022501.MXF</name>
											<enabled>TRUE</enabled>
											<duration>708</duration>
											<rate>
												<timebase>25</timebase>
												<ntsc>FALSE</ntsc>
											</rate>
											<start>0</start>
											<end>708</end>
											<in>0</in>
											<out>708</out>
											<alphatype>none</alphatype>
											<file id="file-166"/>
											<link>
												<linkclipref>clipitem-1246</linkclipref>
												<mediatype>video</mediatype>
												<trackindex>1</trackindex>
												<clipindex>1</clipindex>
											</link>
											<link>
												<linkclipref>clipitem-1249</linkclipref>
												<mediatype>audio</mediatype>
												<trackindex>1</trackindex>
												<clipindex>1</clipindex>
												<groupindex>1</groupindex>
											</link>
											<link>
												<linkclipref>clipitem-1250</linkclipref>
												<mediatype>audio</mediatype>
												<trackindex>2</trackindex>
												<clipindex>1</clipindex>
												<groupindex>1</groupindex>
											</link>
											<logginginfo>
												<description></description>
												<scene></scene>
												<shottake>AA0225</shottake>
												<lognote></lognote>
											</logginginfo>
											<labels>
												<label2>Iris</label2>
											</labels>
										</clipitem>
										<enabled>TRUE</enabled>
										<locked>FALSE</locked>
									</track>
									<track>
										<clipitem id="clipitem-1247" frameBlend="FALSE">
											<masterclipid>masterclip-189</masterclipid>
											<name>AA024901.MXF</name>
											<enabled>TRUE</enabled>
											<duration>1404</duration>
											<rate>
												<timebase>25</timebase>
												<ntsc>FALSE</ntsc>
											</rate>
											<start>41</start>
											<end>1445</end>
											<in>0</in>
											<out>1404</out>
											<alphatype>none</alphatype>
											<file id="file-167"/>
											<link>
												<linkclipref>clipitem-1247</linkclipref>
												<mediatype>video</mediatype>
												<trackindex>2</trackindex>
												<clipindex>1</clipindex>
											</link>
											<link>
												<linkclipref>clipitem-1251</linkclipref>
												<mediatype>audio</mediatype>
												<trackindex>3</trackindex>
												<clipindex>1</clipindex>
												<groupindex>1</groupindex>
											</link>
											<link>
												<linkclipref>clipitem-1252</linkclipref>
												<mediatype>audio</mediatype>
												<trackindex>4</trackindex>
												<clipindex>1</clipindex>
												<groupindex>1</groupindex>
											</link>
											<logginginfo>
												<description></description>
												<scene></scene>
												<shottake>AA0249</shottake>
												<lognote></lognote>
											</logginginfo>
											<labels>
												<label2>Iris</label2>
											</labels>
										</clipitem>
										<enabled>TRUE</enabled>
										<locked>FALSE</locked>
									</track>
									<track>
										<clipitem id="clipitem-1248" frameBlend="FALSE">
											<masterclipid>masterclip-190</masterclipid>
											<name>MVI_0173.MOV</name>
											<enabled>TRUE</enabled>
											<duration>1202</duration>
											<rate>
												<timebase>25</timebase>
												<ntsc>FALSE</ntsc>
											</rate>
											<start>222</start>
											<end>1424</end>
											<in>0</in>
											<out>1202</out>
											<alphatype>black</alphatype>
											<file id="file-168"/>
											<link>
												<linkclipref>clipitem-1248</linkclipref>
												<mediatype>video</mediatype>
												<trackindex>3</trackindex>
												<clipindex>1</clipindex>
											</link>
											<link>
												<linkclipref>clipitem-1253</linkclipref>
												<mediatype>audio</mediatype>
												<trackindex>5</trackindex>
												<clipindex>1</clipindex>
												<groupindex>1</groupindex>
											</link>
											<link>
												<linkclipref>clipitem-1254</linkclipref>
												<mediatype>audio</mediatype>
												<trackindex>6</trackindex>
												<clipindex>1</clipindex>
												<groupindex>1</groupindex>
											</link>
											<logginginfo>
												<description></description>
												<scene></scene>
												<shottake></shottake>
												<lognote></lognote>
											</logginginfo>
											<labels>
												<label2>Iris</label2>
											</labels>
										</clipitem>
										<enabled>TRUE</enabled>
										<locked>FALSE</locked>
									</track>
								</video>
								<audio>
									<format>
										<samplecharacteristics>
											<depth>16</depth>
											<samplerate>48000</samplerate>
										</samplecharacteristics>
									</format>
									<outputs>
										<group>
											<index>1</index>
											<numchannels>1</numchannels>
											<downmix>0</downmix>
											<channel>
												<index>1</index>
											</channel>
										</group>
										<group>
											<index>2</index>
											<numchannels>1</numchannels>
											<downmix>0</downmix>
											<channel>
												<index>2</index>
											</channel>
										</group>
										<group>
											<index>3</index>
											<numchannels>1</numchannels>
											<downmix>0</downmix>
											<channel>
												<index>3</index>
											</channel>
										</group>
										<group>
											<index>4</index>
											<numchannels>1</numchannels>
											<downmix>0</downmix>
											<channel>
												<index>4</index>
											</channel>
										</group>
										<group>
											<index>5</index>
											<numchannels>1</numchannels>
											<downmix>0</downmix>
											<channel>
												<index>5</index>
											</channel>
										</group>
										<group>
											<index>6</index>
											<numchannels>1</numchannels>
											<downmix>0</downmix>
											<channel>
												<index>6</index>
											</channel>
										</group>
									</outputs>
									<track TL.SQTrackExpandedHeight="25" TL.SQTrackExpanded="0" MZ.TrackTargeted="1" PannerCurrentValue="0.5" PannerIsInverted="true" PannerStartKeyframe="-91445760000000000,0.5,0,0,0,0,0,0" PannerName="Balance" currentExplodedTrackIndex="0" totalExplodedTrackCount="2" premiereTrackType="Stereo">
										<clipitem id="clipitem-1249" frameBlend="FALSE" PannerCurrentValue="0.5" PannerKeyframes="" PannerStartKeyframe="-91445760000000000,0.5,0,0,0,0,0,0" PannerIsInverted="true" PannerName="Balance">
											<masterclipid>masterclip-188</masterclipid>
											<name>AA022501.MXF</name>
											<enabled>TRUE</enabled>
											<duration>708</duration>
											<rate>
												<timebase>25</timebase>
												<ntsc>FALSE</ntsc>
											</rate>
											<start>0</start>
											<end>708</end>
											<in>0</in>
											<out>708</out>
											<file id="file-166"/>
											<sourcetrack>
												<mediatype>audio</mediatype>
												<trackindex>1</trackindex>
											</sourcetrack>
												<filter>
													<effect>
														<name>Audio Pan</name>
														<effectid>audiopan</effectid>
														<effectcategory>audiopan</effectcategory>
														<effecttype>audiopan</effecttype>
														<mediatype>audio</mediatype>
														<parameter authoringApp="PremierePro">
															<parameterid>pan</parameterid>
															<name>Pan</name>
															<valuemin>-1</valuemin>
															<valuemax>1</valuemax>
															<value>0</value>
														</parameter>
													</effect>
												</filter>
											<link>
												<linkclipref>clipitem-1246</linkclipref>
												<mediatype>video</mediatype>
												<trackindex>1</trackindex>
												<clipindex>1</clipindex>
											</link>
											<link>
												<linkclipref>clipitem-1249</linkclipref>
												<mediatype>audio</mediatype>
												<trackindex>1</trackindex>
												<clipindex>1</clipindex>
												<groupindex>1</groupindex>
											</link>
											<link>
												<linkclipref>clipitem-1250</linkclipref>
												<mediatype>audio</mediatype>
												<trackindex>2</trackindex>
												<clipindex>1</clipindex>
												<groupindex>1</groupindex>
											</link>
											<logginginfo>
												<description></description>
												<scene></scene>
												<shottake>AA0225</shottake>
												<lognote></lognote>
											</logginginfo>
											<labels>
												<label2>Iris</label2>
											</labels>
										</clipitem>
										<enabled>TRUE</enabled>
										<locked>FALSE</locked>
										<outputchannelindex>1</outputchannelindex>
									</track>
									<track TL.SQTrackExpandedHeight="25" TL.SQTrackExpanded="0" MZ.TrackTargeted="1" PannerCurrentValue="0.5" PannerIsInverted="true" PannerStartKeyframe="-91445760000000000,0.5,0,0,0,0,0,0" PannerName="Balance" currentExplodedTrackIndex="1" totalExplodedTrackCount="2" premiereTrackType="Stereo">
										<clipitem id="clipitem-1250" frameBlend="FALSE" PannerCurrentValue="0.5" PannerKeyframes="" PannerStartKeyframe="-91445760000000000,0.5,0,0,0,0,0,0" PannerIsInverted="true" PannerName="Balance">
											<masterclipid>masterclip-188</masterclipid>
											<name>AA022501.MXF</name>
											<enabled>TRUE</enabled>
											<duration>708</duration>
											<rate>
												<timebase>25</timebase>
												<ntsc>FALSE</ntsc>
											</rate>
											<start>0</start>
											<end>708</end>
											<in>0</in>
											<out>708</out>
											<file id="file-166"/>
											<sourcetrack>
												<mediatype>audio</mediatype>
												<trackindex>2</trackindex>
											</sourcetrack>
												<filter>
													<effect>
														<name>Audio Pan</name>
														<effectid>audiopan</effectid>
														<effectcategory>audiopan</effectcategory>
														<effecttype>audiopan</effecttype>
														<mediatype>audio</mediatype>
														<parameter authoringApp="PremierePro">
															<parameterid>pan</parameterid>
															<name>Pan</name>
															<valuemin>-1</valuemin>
															<valuemax>1</valuemax>
															<value>0</value>
														</parameter>
													</effect>
												</filter>
											<link>
												<linkclipref>clipitem-1246</linkclipref>
												<mediatype>video</mediatype>
												<trackindex>1</trackindex>
												<clipindex>1</clipindex>
											</link>
											<link>
												<linkclipref>clipitem-1249</linkclipref>
												<mediatype>audio</mediatype>
												<trackindex>1</trackindex>
												<clipindex>1</clipindex>
												<groupindex>1</groupindex>
											</link>
											<link>
												<linkclipref>clipitem-1250</linkclipref>
												<mediatype>audio</mediatype>
												<trackindex>2</trackindex>
												<clipindex>1</clipindex>
												<groupindex>1</groupindex>
											</link>
											<logginginfo>
												<description></description>
												<scene></scene>
												<shottake>AA0225</shottake>
												<lognote></lognote>
											</logginginfo>
											<labels>
												<label2>Iris</label2>
											</labels>
										</clipitem>
										<enabled>TRUE</enabled>
										<locked>FALSE</locked>
										<outputchannelindex>2</outputchannelindex>
									</track>
									<track TL.SQTrackExpandedHeight="25" TL.SQTrackExpanded="0" MZ.TrackTargeted="1" PannerCurrentValue="0.5" PannerIsInverted="true" PannerStartKeyframe="-91445760000000000,0.5,0,0,0,0,0,0" PannerName="Balance" currentExplodedTrackIndex="0" totalExplodedTrackCount="2" premiereTrackType="Stereo">
										<clipitem id="clipitem-1251" frameBlend="FALSE" PannerCurrentValue="0.5" PannerKeyframes="" PannerStartKeyframe="-91445760000000000,0.5,0,0,0,0,0,0" PannerIsInverted="true" PannerName="Balance">
											<masterclipid>masterclip-189</masterclipid>
											<name>AA024901.MXF</name>
											<enabled>TRUE</enabled>
											<duration>1404</duration>
											<rate>
												<timebase>25</timebase>
												<ntsc>FALSE</ntsc>
											</rate>
											<start>41</start>
											<end>1445</end>
											<in>0</in>
											<out>1404</out>
											<file id="file-167"/>
											<sourcetrack>
												<mediatype>audio</mediatype>
												<trackindex>1</trackindex>
											</sourcetrack>
												<filter>
													<effect>
														<name>Audio Pan</name>
														<effectid>audiopan</effectid>
														<effectcategory>audiopan</effectcategory>
														<effecttype>audiopan</effecttype>
														<mediatype>audio</mediatype>
														<parameter authoringApp="PremierePro">
															<parameterid>pan</parameterid>
															<name>Pan</name>
															<valuemin>-1</valuemin>
															<valuemax>1</valuemax>
															<value>0</value>
														</parameter>
													</effect>
												</filter>
											<link>
												<linkclipref>clipitem-1247</linkclipref>
												<mediatype>video</mediatype>
												<trackindex>2</trackindex>
												<clipindex>1</clipindex>
											</link>
											<link>
												<linkclipref>clipitem-1251</linkclipref>
												<mediatype>audio</mediatype>
												<trackindex>3</trackindex>
												<clipindex>1</clipindex>
												<groupindex>1</groupindex>
											</link>
											<link>
												<linkclipref>clipitem-1252</linkclipref>
												<mediatype>audio</mediatype>
												<trackindex>4</trackindex>
												<clipindex>1</clipindex>
												<groupindex>1</groupindex>
											</link>
											<logginginfo>
												<description></description>
												<scene></scene>
												<shottake>AA0249</shottake>
												<lognote></lognote>
											</logginginfo>
											<labels>
												<label2>Iris</label2>
											</labels>
										</clipitem>
										<enabled>TRUE</enabled>
										<locked>FALSE</locked>
										<outputchannelindex>3</outputchannelindex>
									</track>
									<track TL.SQTrackExpandedHeight="25" TL.SQTrackExpanded="0" MZ.TrackTargeted="1" PannerCurrentValue="0.5" PannerIsInverted="true" PannerStartKeyframe="-91445760000000000,0.5,0,0,0,0,0,0" PannerName="Balance" currentExplodedTrackIndex="1" totalExplodedTrackCount="2" premiereTrackType="Stereo">
										<clipitem id="clipitem-1252" frameBlend="FALSE" PannerCurrentValue="0.5" PannerKeyframes="" PannerStartKeyframe="-91445760000000000,0.5,0,0,0,0,0,0" PannerIsInverted="true" PannerName="Balance">
											<masterclipid>masterclip-189</masterclipid>
											<name>AA024901.MXF</name>
											<enabled>TRUE</enabled>
											<duration>1404</duration>
											<rate>
												<timebase>25</timebase>
												<ntsc>FALSE</ntsc>
											</rate>
											<start>41</start>
											<end>1445</end>
											<in>0</in>
											<out>1404</out>
											<file id="file-167"/>
											<sourcetrack>
												<mediatype>audio</mediatype>
												<trackindex>2</trackindex>
											</sourcetrack>
												<filter>
													<effect>
														<name>Audio Pan</name>
														<effectid>audiopan</effectid>
														<effectcategory>audiopan</effectcategory>
														<effecttype>audiopan</effecttype>
														<mediatype>audio</mediatype>
														<parameter authoringApp="PremierePro">
															<parameterid>pan</parameterid>
															<name>Pan</name>
															<valuemin>-1</valuemin>
															<valuemax>1</valuemax>
															<value>0</value>
														</parameter>
													</effect>
												</filter>
											<link>
												<linkclipref>clipitem-1247</linkclipref>
												<mediatype>video</mediatype>
												<trackindex>2</trackindex>
												<clipindex>1</clipindex>
											</link>
											<link>
												<linkclipref>clipitem-1251</linkclipref>
												<mediatype>audio</mediatype>
												<trackindex>3</trackindex>
												<clipindex>1</clipindex>
												<groupindex>1</groupindex>
											</link>
											<link>
												<linkclipref>clipitem-1252</linkclipref>
												<mediatype>audio</mediatype>
												<trackindex>4</trackindex>
												<clipindex>1</clipindex>
												<groupindex>1</groupindex>
											</link>
											<logginginfo>
												<description></description>
												<scene></scene>
												<shottake>AA0249</shottake>
												<lognote></lognote>
											</logginginfo>
											<labels>
												<label2>Iris</label2>
											</labels>
										</clipitem>
										<enabled>TRUE</enabled>
										<locked>FALSE</locked>
										<outputchannelindex>4</outputchannelindex>
									</track>
									<track TL.SQTrackExpandedHeight="25" TL.SQTrackExpanded="0" MZ.TrackTargeted="1" PannerCurrentValue="0.5" PannerIsInverted="true" PannerStartKeyframe="-91445760000000000,0.5,0,0,0,0,0,0" PannerName="Balance" currentExplodedTrackIndex="0" totalExplodedTrackCount="2" premiereTrackType="Stereo">
										<clipitem id="clipitem-1253" frameBlend="FALSE" PannerCurrentValue="0.5" PannerKeyframes="" PannerStartKeyframe="-91445760000000000,0.5,0,0,0,0,0,0" PannerIsInverted="true" PannerName="Balance">
											<masterclipid>masterclip-190</masterclipid>
											<name>MVI_0173.MOV</name>
											<enabled>TRUE</enabled>
											<duration>1202</duration>
											<rate>
												<timebase>25</timebase>
												<ntsc>FALSE</ntsc>
											</rate>
											<start>222</start>
											<end>1424</end>
											<in>0</in>
											<out>1202</out>
											<file id="file-168"/>
											<sourcetrack>
												<mediatype>audio</mediatype>
												<trackindex>1</trackindex>
											</sourcetrack>
												<filter>
													<effect>
														<name>Audio Pan</name>
														<effectid>audiopan</effectid>
														<effectcategory>audiopan</effectcategory>
														<effecttype>audiopan</effecttype>
														<mediatype>audio</mediatype>
														<parameter authoringApp="PremierePro">
															<parameterid>pan</parameterid>
															<name>Pan</name>
															<valuemin>-1</valuemin>
															<valuemax>1</valuemax>
															<value>0</value>
														</parameter>
													</effect>
												</filter>
											<link>
												<linkclipref>clipitem-1248</linkclipref>
												<mediatype>video</mediatype>
												<trackindex>3</trackindex>
												<clipindex>1</clipindex>
											</link>
											<link>
												<linkclipref>clipitem-1253</linkclipref>
												<mediatype>audio</mediatype>
												<trackindex>5</trackindex>
												<clipindex>1</clipindex>
												<groupindex>1</groupindex>
											</link>
											<link>
												<linkclipref>clipitem-1254</linkclipref>
												<mediatype>audio</mediatype>
												<trackindex>6</trackindex>
												<clipindex>1</clipindex>
												<groupindex>1</groupindex>
											</link>
											<logginginfo>
												<description></description>
												<scene></scene>
												<shottake></shottake>
												<lognote></lognote>
											</logginginfo>
											<labels>
												<label2>Iris</label2>
											</labels>
										</clipitem>
										<enabled>TRUE</enabled>
										<locked>FALSE</locked>
										<outputchannelindex>5</outputchannelindex>
									</track>
									<track TL.SQTrackExpandedHeight="25" TL.SQTrackExpanded="0" MZ.TrackTargeted="1" PannerCurrentValue="0.5" PannerIsInverted="true" PannerStartKeyframe="-91445760000000000,0.5,0,0,0,0,0,0" PannerName="Balance" currentExplodedTrackIndex="1" totalExplodedTrackCount="2" premiereTrackType="Stereo">
										<clipitem id="clipitem-1254" frameBlend="FALSE" PannerCurrentValue="0.5" PannerKeyframes="" PannerStartKeyframe="-91445760000000000,0.5,0,0,0,0,0,0" PannerIsInverted="true" PannerName="Balance">
											<masterclipid>masterclip-190</masterclipid>
											<name>MVI_0173.MOV</name>
											<enabled>TRUE</enabled>
											<duration>1202</duration>
											<rate>
												<timebase>25</timebase>
												<ntsc>FALSE</ntsc>
											</rate>
											<start>222</start>
											<end>1424</end>
											<in>0</in>
											<out>1202</out>
											<file id="file-168"/>
											<sourcetrack>
												<mediatype>audio</mediatype>
												<trackindex>2</trackindex>
											</sourcetrack>
												<filter>
													<effect>
														<name>Audio Pan</name>
														<effectid>audiopan</effectid>
														<effectcategory>audiopan</effectcategory>
														<effecttype>audiopan</effecttype>
														<mediatype>audio</mediatype>
														<parameter authoringApp="PremierePro">
															<parameterid>pan</parameterid>
															<name>Pan</name>
															<valuemin>-1</valuemin>
															<valuemax>1</valuemax>
															<value>0</value>
														</parameter>
													</effect>
												</filter>
											<link>
												<linkclipref>clipitem-1248</linkclipref>
												<mediatype>video</mediatype>
												<trackindex>3</trackindex>
												<clipindex>1</clipindex>
											</link>
											<link>
												<linkclipref>clipitem-1253</linkclipref>
												<mediatype>audio</mediatype>
												<trackindex>5</trackindex>
												<clipindex>1</clipindex>
												<groupindex>1</groupindex>
											</link>
											<link>
												<linkclipref>clipitem-1254</linkclipref>
												<mediatype>audio</mediatype>
												<trackindex>6</trackindex>
												<clipindex>1</clipindex>
												<groupindex>1</groupindex>
											</link>
											<logginginfo>
												<description></description>
												<scene></scene>
												<shottake></shottake>
												<lognote></lognote>
											</logginginfo>
											<labels>
												<label2>Iris</label2>
											</labels>
										</clipitem>
										<enabled>TRUE</enabled>
										<locked>FALSE</locked>
										<outputchannelindex>6</outputchannelindex>
									</track>
								</audio>
							</media>
							<timecode>
								<rate>
									<timebase>25</timebase>
									<ntsc>FALSE</ntsc>
								</rate>
								<string>00:00:00:00</string>
								<frame>0</frame>
								<displayformat>NDF</displayformat>
							</timecode>
						</sequence>
						<link>
							<linkclipref>clipitem-795</linkclipref>
							<mediatype>video</mediatype>
							<trackindex>1</trackindex>
							<clipindex>246</clipindex>
						</link>
						<link>
							<linkclipref>clipitem-1245</linkclipref>
							<mediatype>audio</mediatype>
							<trackindex>1</trackindex>
							<clipindex>125</clipindex>
						</link>
						<link>
							<linkclipref>clipitem-1456</linkclipref>
							<mediatype>audio</mediatype>
							<trackindex>3</trackindex>
							<clipindex>104</clipindex>
						</link>
						<labels>
							<label2>Forest</label2>
						</labels>
					</clipitem>
					<clipitem id="clipitem-1255" frameBlend="FALSE">
						<masterclipid>masterclip-191</masterclipid>
						<name>AA025001.MXF</name>
						<enabled>TRUE</enabled>
						<duration>2412</duration>
						<rate>
							<timebase>25</timebase>
							<ntsc>FALSE</ntsc>
						</rate>
						<start>29906</start>
						<end>29995</end>
						<in>517</in>
						<out>606</out>
						<file id="file-169"/>
						<sourcetrack>
							<mediatype>audio</mediatype>
							<trackindex>1</trackindex>
						</sourcetrack>
						<link>
							<linkclipref>clipitem-805</linkclipref>
							<mediatype>video</mediatype>
							<trackindex>1</trackindex>
							<clipindex>247</clipindex>
						</link>
						<link>
							<linkclipref>clipitem-1255</linkclipref>
							<mediatype>audio</mediatype>
							<trackindex>1</trackindex>
							<clipindex>126</clipindex>
						</link>
						<link>
							<linkclipref>clipitem-1354</linkclipref>
							<mediatype>audio</mediatype>
							<trackindex>2</trackindex>
							<clipindex>1</clipindex>
						</link>
						<logginginfo>
							<description></description>
							<scene></scene>
							<shottake>AA0250</shottake>
							<lognote></lognote>
						</logginginfo>
						<labels>
							<label2>Iris</label2>
						</labels>
					</clipitem>
					<clipitem id="clipitem-1256" frameBlend="FALSE">
						<masterclipid>masterclip-182</masterclipid>
						<name>AA024201.MXFCowi varemesse multi</name>
						<enabled>TRUE</enabled>
						<duration>2889</duration>
						<rate>
							<timebase>25</timebase>
							<ntsc>FALSE</ntsc>
						</rate>
						<start>29995</start>
						<end>30043</end>
						<in>1289</in>
						<out>1337</out>
						<sequence id="sequence-124"/>
						<link>
							<linkclipref>clipitem-806</linkclipref>
							<mediatype>video</mediatype>
							<trackindex>1</trackindex>
							<clipindex>248</clipindex>
						</link>
						<link>
							<linkclipref>clipitem-1256</linkclipref>
							<mediatype>audio</mediatype>
							<trackindex>1</trackindex>
							<clipindex>127</clipindex>
						</link>
						<link>
							<linkclipref>clipitem-1457</linkclipref>
							<mediatype>audio</mediatype>
							<trackindex>3</trackindex>
							<clipindex>105</clipindex>
						</link>
						<labels>
							<label2>Forest</label2>
						</labels>
					</clipitem>
					<clipitem id="clipitem-1257" frameBlend="FALSE">
						<masterclipid>masterclip-182</masterclipid>
						<name>AA024201.MXFCowi varemesse multi</name>
						<enabled>TRUE</enabled>
						<duration>2889</duration>
						<rate>
							<timebase>25</timebase>
							<ntsc>FALSE</ntsc>
						</rate>
						<start>30043</start>
						<end>30176</end>
						<in>1337</in>
						<out>1470</out>
						<sequence id="sequence-124"/>
						<link>
							<linkclipref>clipitem-807</linkclipref>
							<mediatype>video</mediatype>
							<trackindex>1</trackindex>
							<clipindex>249</clipindex>
						</link>
						<link>
							<linkclipref>clipitem-1257</linkclipref>
							<mediatype>audio</mediatype>
							<trackindex>1</trackindex>
							<clipindex>128</clipindex>
						</link>
						<link>
							<linkclipref>clipitem-1458</linkclipref>
							<mediatype>audio</mediatype>
							<trackindex>3</trackindex>
							<clipindex>106</clipindex>
						</link>
						<labels>
							<label2>Forest</label2>
						</labels>
					</clipitem>
					<clipitem id="clipitem-1258" frameBlend="FALSE">
						<masterclipid>masterclip-192</masterclipid>
						<name>AA025301.MXFCowi varemesse multi</name>
						<enabled>TRUE</enabled>
						<duration>1755</duration>
						<rate>
							<timebase>25</timebase>
							<ntsc>FALSE</ntsc>
						</rate>
						<start>30176</start>
						<end>30232</end>
						<in>1474</in>
						<out>1530</out>
						<sequence id="sequence-126" MZ.Sequence.PreviewFrameSizeHeight="1080" MZ.Sequence.PreviewFrameSizeWidth="1920" MZ.Sequence.AudioTimeDisplayFormat="200" MZ.Sequence.PreviewRenderingClassID="1297106761" MZ.Sequence.PreviewRenderingPresetCodec="1297107278" MZ.Sequence.PreviewRenderingPresetPath="EncoderPresets/SequencePreview/795454d9-d3c2-429d-9474-923ab13b7018/I-Frame Only MPEG.epr" MZ.Sequence.PreviewUseMaxRenderQuality="false" MZ.Sequence.PreviewUseMaxBitDepth="false" MZ.Sequence.EditingModeGUID="795454d9-d3c2-429d-9474-923ab13b7018" MZ.Sequence.VideoTimeDisplayFormat="101" MZ.WorkOutPoint="15240960000000" MZ.WorkInPoint="0">
							<duration>1755</duration>
							<rate>
								<timebase>25</timebase>
								<ntsc>FALSE</ntsc>
							</rate>
							<name>AA025301.MXFCowi varemesse multi</name>
							<media>
								<video>
									<format>
										<samplecharacteristics>
											<rate>
												<timebase>25</timebase>
												<ntsc>FALSE</ntsc>
											</rate>
											<codec>
												<name>Apple ProRes 422</name>
												<appspecificdata>
													<appname>Final Cut Pro</appname>
													<appmanufacturer>Apple Inc.</appmanufacturer>
													<appversion>7.0</appversion>
													<data>
														<qtcodec>
															<codecname>Apple ProRes 422</codecname>
															<codectypename>Apple ProRes 422</codectypename>
															<codectypecode>apcn</codectypecode>
															<codecvendorcode>appl</codecvendorcode>
															<spatialquality>1024</spatialquality>
															<temporalquality>0</temporalquality>
															<keyframerate>0</keyframerate>
															<datarate>0</datarate>
														</qtcodec>
													</data>
												</appspecificdata>
											</codec>
											<width>1920</width>
											<height>1080</height>
											<anamorphic>FALSE</anamorphic>
											<pixelaspectratio>square</pixelaspectratio>
											<fielddominance>none</fielddominance>
											<colordepth>24</colordepth>
										</samplecharacteristics>
									</format>
									<track TL.SQTrackExpandedHeight="25" TL.SQTrackExpanded="0" MZ.TrackTargeted="0">
										<clipitem id="clipitem-1259" frameBlend="FALSE">
											<masterclipid>masterclip-193</masterclipid>
											<name>AA025301.MXF</name>
											<enabled>TRUE</enabled>
											<duration>1068</duration>
											<rate>
												<timebase>25</timebase>
												<ntsc>FALSE</ntsc>
											</rate>
											<start>687</start>
											<end>1755</end>
											<in>0</in>
											<out>1068</out>
											<alphatype>none</alphatype>
											<file id="file-170"/>
											<link>
												<linkclipref>clipitem-1259</linkclipref>
												<mediatype>video</mediatype>
												<trackindex>1</trackindex>
												<clipindex>1</clipindex>
											</link>
											<link>
												<linkclipref>clipitem-1261</linkclipref>
												<mediatype>audio</mediatype>
												<trackindex>1</trackindex>
												<clipindex>1</clipindex>
												<groupindex>1</groupindex>
											</link>
											<link>
												<linkclipref>clipitem-1262</linkclipref>
												<mediatype>audio</mediatype>
												<trackindex>2</trackindex>
												<clipindex>1</clipindex>
												<groupindex>1</groupindex>
											</link>
											<logginginfo>
												<description></description>
												<scene></scene>
												<shottake>AA0253</shottake>
												<lognote></lognote>
											</logginginfo>
											<labels>
												<label2>Iris</label2>
											</labels>
										</clipitem>
										<enabled>TRUE</enabled>
										<locked>FALSE</locked>
									</track>
									<track>
										<clipitem id="clipitem-1260" frameBlend="FALSE">
											<masterclipid>masterclip-194</masterclipid>
											<name>MVI_0177.MOV</name>
											<enabled>TRUE</enabled>
											<duration>1733</duration>
											<rate>
												<timebase>25</timebase>
												<ntsc>FALSE</ntsc>
											</rate>
											<start>0</start>
											<end>1733</end>
											<in>0</in>
											<out>1733</out>
											<alphatype>black</alphatype>
											<file id="file-171"/>
											<link>
												<linkclipref>clipitem-1260</linkclipref>
												<mediatype>video</mediatype>
												<trackindex>2</trackindex>
												<clipindex>1</clipindex>
											</link>
											<link>
												<linkclipref>clipitem-1263</linkclipref>
												<mediatype>audio</mediatype>
												<trackindex>3</trackindex>
												<clipindex>1</clipindex>
												<groupindex>1</groupindex>
											</link>
											<link>
												<linkclipref>clipitem-1264</linkclipref>
												<mediatype>audio</mediatype>
												<trackindex>4</trackindex>
												<clipindex>1</clipindex>
												<groupindex>1</groupindex>
											</link>
											<logginginfo>
												<description></description>
												<scene></scene>
												<shottake></shottake>
												<lognote></lognote>
											</logginginfo>
											<labels>
												<label2>Iris</label2>
											</labels>
										</clipitem>
										<enabled>TRUE</enabled>
										<locked>FALSE</locked>
									</track>
								</video>
								<audio>
									<format>
										<samplecharacteristics>
											<depth>16</depth>
											<samplerate>48000</samplerate>
										</samplecharacteristics>
									</format>
									<outputs>
										<group>
											<index>1</index>
											<numchannels>1</numchannels>
											<downmix>0</downmix>
											<channel>
												<index>1</index>
											</channel>
										</group>
										<group>
											<index>2</index>
											<numchannels>1</numchannels>
											<downmix>0</downmix>
											<channel>
												<index>2</index>
											</channel>
										</group>
										<group>
											<index>3</index>
											<numchannels>1</numchannels>
											<downmix>0</downmix>
											<channel>
												<index>3</index>
											</channel>
										</group>
										<group>
											<index>4</index>
											<numchannels>1</numchannels>
											<downmix>0</downmix>
											<channel>
												<index>4</index>
											</channel>
										</group>
									</outputs>
									<track TL.SQTrackExpandedHeight="25" TL.SQTrackExpanded="0" MZ.TrackTargeted="1" PannerCurrentValue="0.5" PannerIsInverted="true" PannerStartKeyframe="-91445760000000000,0.5,0,0,0,0,0,0" PannerName="Balance" currentExplodedTrackIndex="0" totalExplodedTrackCount="2" premiereTrackType="Stereo">
										<clipitem id="clipitem-1261" frameBlend="FALSE" PannerCurrentValue="0.5" PannerKeyframes="" PannerStartKeyframe="-91445760000000000,0.5,0,0,0,0,0,0" PannerIsInverted="true" PannerName="Balance">
											<masterclipid>masterclip-193</masterclipid>
											<name>AA025301.MXF</name>
											<enabled>TRUE</enabled>
											<duration>1068</duration>
											<rate>
												<timebase>25</timebase>
												<ntsc>FALSE</ntsc>
											</rate>
											<start>687</start>
											<end>1755</end>
											<in>0</in>
											<out>1068</out>
											<file id="file-170"/>
											<sourcetrack>
												<mediatype>audio</mediatype>
												<trackindex>1</trackindex>
											</sourcetrack>
												<filter>
													<effect>
														<name>Audio Pan</name>
														<effectid>audiopan</effectid>
														<effectcategory>audiopan</effectcategory>
														<effecttype>audiopan</effecttype>
														<mediatype>audio</mediatype>
														<parameter authoringApp="PremierePro">
															<parameterid>pan</parameterid>
															<name>Pan</name>
															<valuemin>-1</valuemin>
															<valuemax>1</valuemax>
															<value>0</value>
														</parameter>
													</effect>
												</filter>
											<link>
												<linkclipref>clipitem-1259</linkclipref>
												<mediatype>video</mediatype>
												<trackindex>1</trackindex>
												<clipindex>1</clipindex>
											</link>
											<link>
												<linkclipref>clipitem-1261</linkclipref>
												<mediatype>audio</mediatype>
												<trackindex>1</trackindex>
												<clipindex>1</clipindex>
												<groupindex>1</groupindex>
											</link>
											<link>
												<linkclipref>clipitem-1262</linkclipref>
												<mediatype>audio</mediatype>
												<trackindex>2</trackindex>
												<clipindex>1</clipindex>
												<groupindex>1</groupindex>
											</link>
											<logginginfo>
												<description></description>
												<scene></scene>
												<shottake>AA0253</shottake>
												<lognote></lognote>
											</logginginfo>
											<labels>
												<label2>Iris</label2>
											</labels>
										</clipitem>
										<enabled>TRUE</enabled>
										<locked>FALSE</locked>
										<outputchannelindex>1</outputchannelindex>
									</track>
									<track TL.SQTrackExpandedHeight="25" TL.SQTrackExpanded="0" MZ.TrackTargeted="1" PannerCurrentValue="0.5" PannerIsInverted="true" PannerStartKeyframe="-91445760000000000,0.5,0,0,0,0,0,0" PannerName="Balance" currentExplodedTrackIndex="1" totalExplodedTrackCount="2" premiereTrackType="Stereo">
										<clipitem id="clipitem-1262" frameBlend="FALSE" PannerCurrentValue="0.5" PannerKeyframes="" PannerStartKeyframe="-91445760000000000,0.5,0,0,0,0,0,0" PannerIsInverted="true" PannerName="Balance">
											<masterclipid>masterclip-193</masterclipid>
											<name>AA025301.MXF</name>
											<enabled>TRUE</enabled>
											<duration>1068</duration>
											<rate>
												<timebase>25</timebase>
												<ntsc>FALSE</ntsc>
											</rate>
											<start>687</start>
											<end>1755</end>
											<in>0</in>
											<out>1068</out>
											<file id="file-170"/>
											<sourcetrack>
												<mediatype>audio</mediatype>
												<trackindex>2</trackindex>
											</sourcetrack>
												<filter>
													<effect>
														<name>Audio Pan</name>
														<effectid>audiopan</effectid>
														<effectcategory>audiopan</effectcategory>
														<effecttype>audiopan</effecttype>
														<mediatype>audio</mediatype>
														<parameter authoringApp="PremierePro">
															<parameterid>pan</parameterid>
															<name>Pan</name>
															<valuemin>-1</valuemin>
															<valuemax>1</valuemax>
															<value>0</value>
														</parameter>
													</effect>
												</filter>
											<link>
												<linkclipref>clipitem-1259</linkclipref>
												<mediatype>video</mediatype>
												<trackindex>1</trackindex>
												<clipindex>1</clipindex>
											</link>
											<link>
												<linkclipref>clipitem-1261</linkclipref>
												<mediatype>audio</mediatype>
												<trackindex>1</trackindex>
												<clipindex>1</clipindex>
												<groupindex>1</groupindex>
											</link>
											<link>
												<linkclipref>clipitem-1262</linkclipref>
												<mediatype>audio</mediatype>
												<trackindex>2</trackindex>
												<clipindex>1</clipindex>
												<groupindex>1</groupindex>
											</link>
											<logginginfo>
												<description></description>
												<scene></scene>
												<shottake>AA0253</shottake>
												<lognote></lognote>
											</logginginfo>
											<labels>
												<label2>Iris</label2>
											</labels>
										</clipitem>
										<enabled>TRUE</enabled>
										<locked>FALSE</locked>
										<outputchannelindex>2</outputchannelindex>
									</track>
									<track TL.SQTrackExpandedHeight="25" TL.SQTrackExpanded="0" MZ.TrackTargeted="1" PannerCurrentValue="0.5" PannerIsInverted="true" PannerStartKeyframe="-91445760000000000,0.5,0,0,0,0,0,0" PannerName="Balance" currentExplodedTrackIndex="0" totalExplodedTrackCount="2" premiereTrackType="Stereo">
										<clipitem id="clipitem-1263" frameBlend="FALSE" PannerCurrentValue="0.5" PannerKeyframes="" PannerStartKeyframe="-91445760000000000,0.5,0,0,0,0,0,0" PannerIsInverted="true" PannerName="Balance">
											<masterclipid>masterclip-194</masterclipid>
											<name>MVI_0177.MOV</name>
											<enabled>TRUE</enabled>
											<duration>1733</duration>
											<rate>
												<timebase>25</timebase>
												<ntsc>FALSE</ntsc>
											</rate>
											<start>0</start>
											<end>1733</end>
											<in>0</in>
											<out>1733</out>
											<file id="file-171"/>
											<sourcetrack>
												<mediatype>audio</mediatype>
												<trackindex>1</trackindex>
											</sourcetrack>
												<filter>
													<effect>
														<name>Audio Pan</name>
														<effectid>audiopan</effectid>
														<effectcategory>audiopan</effectcategory>
														<effecttype>audiopan</effecttype>
														<mediatype>audio</mediatype>
														<parameter authoringApp="PremierePro">
															<parameterid>pan</parameterid>
															<name>Pan</name>
															<valuemin>-1</valuemin>
															<valuemax>1</valuemax>
															<value>0</value>
														</parameter>
													</effect>
												</filter>
											<link>
												<linkclipref>clipitem-1260</linkclipref>
												<mediatype>video</mediatype>
												<trackindex>2</trackindex>
												<clipindex>1</clipindex>
											</link>
											<link>
												<linkclipref>clipitem-1263</linkclipref>
												<mediatype>audio</mediatype>
												<trackindex>3</trackindex>
												<clipindex>1</clipindex>
												<groupindex>1</groupindex>
											</link>
											<link>
												<linkclipref>clipitem-1264</linkclipref>
												<mediatype>audio</mediatype>
												<trackindex>4</trackindex>
												<clipindex>1</clipindex>
												<groupindex>1</groupindex>
											</link>
											<logginginfo>
												<description></description>
												<scene></scene>
												<shottake></shottake>
												<lognote></lognote>
											</logginginfo>
											<labels>
												<label2>Iris</label2>
											</labels>
										</clipitem>
										<enabled>TRUE</enabled>
										<locked>FALSE</locked>
										<outputchannelindex>3</outputchannelindex>
									</track>
									<track TL.SQTrackExpandedHeight="25" TL.SQTrackExpanded="0" MZ.TrackTargeted="1" PannerCurrentValue="0.5" PannerIsInverted="true" PannerStartKeyframe="-91445760000000000,0.5,0,0,0,0,0,0" PannerName="Balance" currentExplodedTrackIndex="1" totalExplodedTrackCount="2" premiereTrackType="Stereo">
										<clipitem id="clipitem-1264" frameBlend="FALSE" PannerCurrentValue="0.5" PannerKeyframes="" PannerStartKeyframe="-91445760000000000,0.5,0,0,0,0,0,0" PannerIsInverted="true" PannerName="Balance">
											<masterclipid>masterclip-194</masterclipid>
											<name>MVI_0177.MOV</name>
											<enabled>TRUE</enabled>
											<duration>1733</duration>
											<rate>
												<timebase>25</timebase>
												<ntsc>FALSE</ntsc>
											</rate>
											<start>0</start>
											<end>1733</end>
											<in>0</in>
											<out>1733</out>
											<file id="file-171"/>
											<sourcetrack>
												<mediatype>audio</mediatype>
												<trackindex>2</trackindex>
											</sourcetrack>
												<filter>
													<effect>
														<name>Audio Pan</name>
														<effectid>audiopan</effectid>
														<effectcategory>audiopan</effectcategory>
														<effecttype>audiopan</effecttype>
														<mediatype>audio</mediatype>
														<parameter authoringApp="PremierePro">
															<parameterid>pan</parameterid>
															<name>Pan</name>
															<valuemin>-1</valuemin>
															<valuemax>1</valuemax>
															<value>0</value>
														</parameter>
													</effect>
												</filter>
											<link>
												<linkclipref>clipitem-1260</linkclipref>
												<mediatype>video</mediatype>
												<trackindex>2</trackindex>
												<clipindex>1</clipindex>
											</link>
											<link>
												<linkclipref>clipitem-1263</linkclipref>
												<mediatype>audio</mediatype>
												<trackindex>3</trackindex>
												<clipindex>1</clipindex>
												<groupindex>1</groupindex>
											</link>
											<link>
												<linkclipref>clipitem-1264</linkclipref>
												<mediatype>audio</mediatype>
												<trackindex>4</trackindex>
												<clipindex>1</clipindex>
												<groupindex>1</groupindex>
											</link>
											<logginginfo>
												<description></description>
												<scene></scene>
												<shottake></shottake>
												<lognote></lognote>
											</logginginfo>
											<labels>
												<label2>Iris</label2>
											</labels>
										</clipitem>
										<enabled>TRUE</enabled>
										<locked>FALSE</locked>
										<outputchannelindex>4</outputchannelindex>
									</track>
								</audio>
							</media>
							<timecode>
								<rate>
									<timebase>25</timebase>
									<ntsc>FALSE</ntsc>
								</rate>
								<string>00:00:00:00</string>
								<frame>0</frame>
								<displayformat>NDF</displayformat>
							</timecode>
						</sequence>
						<link>
							<linkclipref>clipitem-808</linkclipref>
							<mediatype>video</mediatype>
							<trackindex>1</trackindex>
							<clipindex>250</clipindex>
						</link>
						<link>
							<linkclipref>clipitem-1258</linkclipref>
							<mediatype>audio</mediatype>
							<trackindex>1</trackindex>
							<clipindex>129</clipindex>
						</link>
						<link>
							<linkclipref>clipitem-1459</linkclipref>
							<mediatype>audio</mediatype>
							<trackindex>3</trackindex>
							<clipindex>107</clipindex>
						</link>
						<link>
							<linkclipref>clipitem-1563</linkclipref>
							<mediatype>audio</mediatype>
							<trackindex>5</trackindex>
							<clipindex>63</clipindex>
						</link>
						<link>
							<linkclipref>clipitem-1634</linkclipref>
							<mediatype>audio</mediatype>
							<trackindex>7</trackindex>
							<clipindex>56</clipindex>
						</link>
						<labels>
							<label2>Forest</label2>
						</labels>
					</clipitem>
					<clipitem id="clipitem-1265" frameBlend="FALSE">
						<masterclipid>masterclip-196</masterclipid>
						<name>AA024001.MXF</name>
						<enabled>TRUE</enabled>
						<duration>3936</duration>
						<rate>
							<timebase>25</timebase>
							<ntsc>FALSE</ntsc>
						</rate>
						<start>30232</start>
						<end>30262</end>
						<in>3421</in>
						<out>3451</out>
						<file id="file-173"/>
						<sourcetrack>
							<mediatype>audio</mediatype>
							<trackindex>1</trackindex>
						</sourcetrack>
						<logginginfo>
							<description></description>
							<scene></scene>
							<shottake>AA0240</shottake>
							<lognote></lognote>
						</logginginfo>
						<labels>
							<label2>Iris</label2>
						</labels>
					</clipitem>
					<clipitem id="clipitem-1266" frameBlend="FALSE">
						<masterclipid>masterclip-195</masterclipid>
						<name>AA024701.MXF</name>
						<enabled>TRUE</enabled>
						<duration>1944</duration>
						<rate>
							<timebase>25</timebase>
							<ntsc>FALSE</ntsc>
						</rate>
						<start>30262</start>
						<end>30268</end>
						<in>1706</in>
						<out>1712</out>
						<file id="file-172"/>
						<sourcetrack>
							<mediatype>audio</mediatype>
							<trackindex>1</trackindex>
						</sourcetrack>
						<link>
							<linkclipref>clipitem-815</linkclipref>
							<mediatype>video</mediatype>
							<trackindex>1</trackindex>
							<clipindex>251</clipindex>
						</link>
						<link>
							<linkclipref>clipitem-1266</linkclipref>
							<mediatype>audio</mediatype>
							<trackindex>1</trackindex>
							<clipindex>131</clipindex>
						</link>
						<logginginfo>
							<description></description>
							<scene></scene>
							<shottake>AA0247</shottake>
							<lognote></lognote>
						</logginginfo>
						<labels>
							<label2>Iris</label2>
						</labels>
					</clipitem>
					<clipitem id="clipitem-1267" frameBlend="FALSE">
						<masterclipid>masterclip-195</masterclipid>
						<name>AA024701.MXF</name>
						<enabled>TRUE</enabled>
						<duration>1944</duration>
						<rate>
							<timebase>25</timebase>
							<ntsc>FALSE</ntsc>
						</rate>
						<start>30268</start>
						<end>30366</end>
						<in>1720</in>
						<out>1818</out>
						<file id="file-172"/>
						<sourcetrack>
							<mediatype>audio</mediatype>
							<trackindex>1</trackindex>
						</sourcetrack>
						<logginginfo>
							<description></description>
							<scene></scene>
							<shottake>AA0247</shottake>
							<lognote></lognote>
						</logginginfo>
						<labels>
							<label2>Iris</label2>
						</labels>
					</clipitem>
					<clipitem id="clipitem-1268" frameBlend="FALSE">
						<masterclipid>masterclip-197</masterclipid>
						<name>E_tillit_kort1.MOV</name>
						<enabled>TRUE</enabled>
						<duration>355</duration>
						<rate>
							<timebase>25</timebase>
							<ntsc>FALSE</ntsc>
						</rate>
						<start>30366</start>
						<end>30710</end>
						<in>1</in>
						<out>345</out>
						<file id="file-174"/>
						<sourcetrack>
							<mediatype>audio</mediatype>
							<trackindex>1</trackindex>
						</sourcetrack>
							<filter>
								<effect>
									<name>Audio Levels</name>
									<effectid>audiolevels</effectid>
									<effectcategory>audiolevels</effectcategory>
									<effecttype>audiolevels</effecttype>
									<mediatype>audio</mediatype>
									<parameter authoringApp="PremierePro">
										<parameterid>level</parameterid>
										<name>Level</name>
										<valuemin>0</valuemin>
										<valuemax>3.98109</valuemax>
										<value>1.99053</value>
									</parameter>
								</effect>
							</filter>
						<link>
							<linkclipref>clipitem-817</linkclipref>
							<mediatype>video</mediatype>
							<trackindex>1</trackindex>
							<clipindex>253</clipindex>
						</link>
						<link>
							<linkclipref>clipitem-1268</linkclipref>
							<mediatype>audio</mediatype>
							<trackindex>1</trackindex>
							<clipindex>133</clipindex>
						</link>
						<logginginfo>
							<description></description>
							<scene></scene>
							<shottake></shottake>
							<lognote></lognote>
						</logginginfo>
						<labels>
							<label2>Iris</label2>
						</labels>
					</clipitem>
					<clipitem id="clipitem-1269" frameBlend="FALSE">
						<masterclipid>masterclip-198</masterclipid>
						<name>MVI_0133.MOV</name>
						<enabled>TRUE</enabled>
						<duration>12269</duration>
						<rate>
							<timebase>25</timebase>
							<ntsc>FALSE</ntsc>
						</rate>
						<start>30887</start>
						<end>30944</end>
						<in>5089</in>
						<out>5146</out>
						<file id="file-175"/>
						<sourcetrack>
							<mediatype>audio</mediatype>
							<trackindex>1</trackindex>
						</sourcetrack>
							<filter>
								<effect>
									<name>Audio Levels</name>
									<effectid>audiolevels</effectid>
									<effectcategory>audiolevels</effectcategory>
									<effecttype>audiolevels</effecttype>
									<mediatype>audio</mediatype>
									<parameter authoringApp="PremierePro">
										<parameterid>level</parameterid>
										<name>Level</name>
										<valuemin>0</valuemin>
										<valuemax>3.98109</valuemax>
										<value>1.77828</value>
									</parameter>
								</effect>
							</filter>
						<link>
							<linkclipref>clipitem-820</linkclipref>
							<mediatype>video</mediatype>
							<trackindex>1</trackindex>
							<clipindex>256</clipindex>
						</link>
						<link>
							<linkclipref>clipitem-1269</linkclipref>
							<mediatype>audio</mediatype>
							<trackindex>1</trackindex>
							<clipindex>134</clipindex>
						</link>
						<link>
							<linkclipref>clipitem-1460</linkclipref>
							<mediatype>audio</mediatype>
							<trackindex>3</trackindex>
							<clipindex>108</clipindex>
						</link>
						<logginginfo>
							<description></description>
							<scene></scene>
							<shottake></shottake>
							<lognote></lognote>
						</logginginfo>
						<labels>
							<label2>Iris</label2>
						</labels>
					</clipitem>
					<clipitem id="clipitem-1270" frameBlend="FALSE">
						<masterclipid>masterclip-200</masterclipid>
						<name>MVI_0136.MOV</name>
						<enabled>TRUE</enabled>
						<duration>641</duration>
						<rate>
							<timebase>25</timebase>
							<ntsc>FALSE</ntsc>
						</rate>
						<start>31148</start>
						<end>31182</end>
						<in>432</in>
						<out>466</out>
						<file id="file-177"/>
						<sourcetrack>
							<mediatype>audio</mediatype>
							<trackindex>1</trackindex>
						</sourcetrack>
						<link>
							<linkclipref>clipitem-1270</linkclipref>
							<mediatype>audio</mediatype>
							<trackindex>1</trackindex>
							<clipindex>135</clipindex>
						</link>
						<link>
							<linkclipref>clipitem-1461</linkclipref>
							<mediatype>audio</mediatype>
							<trackindex>3</trackindex>
							<clipindex>109</clipindex>
						</link>
						<logginginfo>
							<description></description>
							<scene></scene>
							<shottake></shottake>
							<lognote></lognote>
						</logginginfo>
						<labels>
							<label2>Iris</label2>
						</labels>
					</clipitem>
					<clipitem id="clipitem-1271" frameBlend="FALSE">
						<masterclipid>masterclip-202</masterclipid>
						<name>AA004901.MXF</name>
						<enabled>TRUE</enabled>
						<duration>1068</duration>
						<rate>
							<timebase>25</timebase>
							<ntsc>FALSE</ntsc>
						</rate>
						<start>31195</start>
						<end>31313</end>
						<in>566</in>
						<out>684</out>
						<file id="file-179"/>
						<sourcetrack>
							<mediatype>audio</mediatype>
							<trackindex>1</trackindex>
						</sourcetrack>
							<filter>
								<effect>
									<name>Audio Levels</name>
									<effectid>audiolevels</effectid>
									<effectcategory>audiolevels</effectcategory>
									<effecttype>audiolevels</effecttype>
									<mediatype>audio</mediatype>
									<parameter authoringApp="PremierePro">
										<parameterid>level</parameterid>
										<name>Level</name>
										<valuemin>0</valuemin>
										<valuemax>3.98109</valuemax>
										<value>1.10264</value>
									</parameter>
								</effect>
							</filter>
						<link>
							<linkclipref>clipitem-1271</linkclipref>
							<mediatype>audio</mediatype>
							<trackindex>1</trackindex>
							<clipindex>136</clipindex>
						</link>
						<link>
							<linkclipref>clipitem-1462</linkclipref>
							<mediatype>audio</mediatype>
							<trackindex>3</trackindex>
							<clipindex>110</clipindex>
						</link>
						<logginginfo>
							<description></description>
							<scene></scene>
							<shottake>AA0049</shottake>
							<lognote></lognote>
						</logginginfo>
						<labels>
							<label2>Iris</label2>
						</labels>
					</clipitem>
					<clipitem id="clipitem-1272" frameBlend="FALSE">
						<masterclipid>masterclip-204</masterclipid>
						<name>AA005201.MXF</name>
						<enabled>TRUE</enabled>
						<duration>8832</duration>
						<rate>
							<timebase>25</timebase>
							<ntsc>FALSE</ntsc>
						</rate>
						<start>31570</start>
						<end>31841</end>
						<in>6463</in>
						<out>6734</out>
						<file id="file-181"/>
						<sourcetrack>
							<mediatype>audio</mediatype>
							<trackindex>1</trackindex>
						</sourcetrack>
							<filter>
								<effect>
									<name>Audio Levels</name>
									<effectid>audiolevels</effectid>
									<effectcategory>audiolevels</effectcategory>
									<effecttype>audiolevels</effecttype>
									<mediatype>audio</mediatype>
									<parameter authoringApp="PremierePro">
										<parameterid>level</parameterid>
										<name>Level</name>
										<valuemin>0</valuemin>
										<valuemax>3.98109</valuemax>
										<value>1.12202</value>
									</parameter>
								</effect>
							</filter>
						<link>
							<linkclipref>clipitem-830</linkclipref>
							<mediatype>video</mediatype>
							<trackindex>1</trackindex>
							<clipindex>266</clipindex>
						</link>
						<link>
							<linkclipref>clipitem-1272</linkclipref>
							<mediatype>audio</mediatype>
							<trackindex>1</trackindex>
							<clipindex>137</clipindex>
						</link>
						<link>
							<linkclipref>clipitem-1463</linkclipref>
							<mediatype>audio</mediatype>
							<trackindex>3</trackindex>
							<clipindex>111</clipindex>
						</link>
						<logginginfo>
							<description></description>
							<scene></scene>
							<shottake>AA0052</shottake>
							<lognote></lognote>
						</logginginfo>
						<labels>
							<label2>Iris</label2>
						</labels>
					</clipitem>
					<clipitem id="clipitem-1273" frameBlend="FALSE">
						<masterclipid>masterclip-208</masterclipid>
						<name>AA005301.MXF</name>
						<enabled>TRUE</enabled>
						<duration>3672</duration>
						<rate>
							<timebase>25</timebase>
							<ntsc>FALSE</ntsc>
						</rate>
						<start>31974</start>
						<end>32209</end>
						<in>1760</in>
						<out>1995</out>
						<file id="file-185"/>
						<sourcetrack>
							<mediatype>audio</mediatype>
							<trackindex>1</trackindex>
						</sourcetrack>
						<link>
							<linkclipref>clipitem-1273</linkclipref>
							<mediatype>audio</mediatype>
							<trackindex>1</trackindex>
							<clipindex>138</clipindex>
						</link>
						<link>
							<linkclipref>clipitem-1464</linkclipref>
							<mediatype>audio</mediatype>
							<trackindex>3</trackindex>
							<clipindex>112</clipindex>
						</link>
						<logginginfo>
							<description></description>
							<scene></scene>
							<shottake>AA0053</shottake>
							<lognote></lognote>
						</logginginfo>
						<labels>
							<label2>Iris</label2>
						</labels>
					</clipitem>
					<clipitem id="clipitem-1274" frameBlend="FALSE">
						<masterclipid>masterclip-208</masterclipid>
						<name>AA005301.MXF</name>
						<enabled>TRUE</enabled>
						<duration>3672</duration>
						<rate>
							<timebase>25</timebase>
							<ntsc>FALSE</ntsc>
						</rate>
						<start>32209</start>
						<end>32228</end>
						<in>2021</in>
						<out>2040</out>
						<file id="file-185"/>
						<sourcetrack>
							<mediatype>audio</mediatype>
							<trackindex>1</trackindex>
						</sourcetrack>
						<link>
							<linkclipref>clipitem-1274</linkclipref>
							<mediatype>audio</mediatype>
							<trackindex>1</trackindex>
							<clipindex>139</clipindex>
						</link>
						<link>
							<linkclipref>clipitem-1465</linkclipref>
							<mediatype>audio</mediatype>
							<trackindex>3</trackindex>
							<clipindex>113</clipindex>
						</link>
						<logginginfo>
							<description></description>
							<scene></scene>
							<shottake>AA0053</shottake>
							<lognote></lognote>
						</logginginfo>
						<labels>
							<label2>Iris</label2>
						</labels>
					</clipitem>
					<clipitem id="clipitem-1275" frameBlend="FALSE">
						<masterclipid>masterclip-212</masterclipid>
						<name>AA004501.MXF</name>
						<enabled>TRUE</enabled>
						<duration>9324</duration>
						<rate>
							<timebase>25</timebase>
							<ntsc>FALSE</ntsc>
						</rate>
						<start>32910</start>
						<end>33119</end>
						<in>1826</in>
						<out>2035</out>
						<file id="file-189"/>
						<sourcetrack>
							<mediatype>audio</mediatype>
							<trackindex>1</trackindex>
						</sourcetrack>
							<filter>
								<effect>
									<name>Audio Levels</name>
									<effectid>audiolevels</effectid>
									<effectcategory>audiolevels</effectcategory>
									<effecttype>audiolevels</effecttype>
									<mediatype>audio</mediatype>
									<parameter authoringApp="PremierePro">
										<parameterid>level</parameterid>
										<name>Level</name>
										<valuemin>0</valuemin>
										<valuemax>3.98109</valuemax>
										<value>1.77828</value>
									</parameter>
								</effect>
							</filter>
							<marker>
								<comment>har absolutt en identitet, dessverre</comment>
								<name>smartelefoner </name>
								<in>8575</in>
								<out>-1</out>
							</marker>
							<marker>
								<comment>gir ingen identitet fra seg</comment>
								<name>anonymt</name>
								<in>303</in>
								<out>-1</out>
							</marker>
							<marker>
								<comment>overvￃﾥke ruta du kjￃﾸrer</comment>
								<name>blir det press?</name>
								<in>5009</in>
								<out>-1</out>
							</marker>
							<marker>
								<comment>hvis du ikke selv vil</comment>
								<name>kan unngￃﾥ</name>
								<in>6481</in>
								<out>-1</out>
							</marker>
							<marker>
								<comment>med bilde og det hele</comment>
								<name>gￃﾥr melding til polti</name>
								<in>2515</in>
								<out>-1</out>
							</marker>
							<marker>
								<comment>men du vil jo ogsￃﾥ planlegge og lage flyt</comment>
								<name>du vil ha personvern</name>
								<in>7472</in>
								<out>-1</out>
							</marker>
							<marker>
								<comment>gpr ikke ned pￃﾥ indivinivￃﾥ med big data</comment>
								<name>big data ikke pￃﾥ invdivd</name>
								<in>7737</in>
								<out>-1</out>
							</marker>
							<marker>
								<comment>langtidsidentiten din kan bare ￃﾥpnes med en rettsordre</comment>
								<name>rettsordre</name>
								<in>984</in>
								<out>-1</out>
							</marker>
							<marker>
								<comment>bilen blir identifisert</comment>
								<name>kjￃﾸre pￃﾥ rￃﾸdt</name>
								<in>2231</in>
								<out>-1</out>
							</marker>
						<link>
							<linkclipref>clipitem-849</linkclipref>
							<mediatype>video</mediatype>
							<trackindex>1</trackindex>
							<clipindex>285</clipindex>
						</link>
						<link>
							<linkclipref>clipitem-1275</linkclipref>
							<mediatype>audio</mediatype>
							<trackindex>1</trackindex>
							<clipindex>140</clipindex>
						</link>
						<logginginfo>
							<description></description>
							<scene></scene>
							<shottake>AA0045</shottake>
							<lognote></lognote>
						</logginginfo>
						<labels>
							<label2>Iris</label2>
						</labels>
					</clipitem>
					<clipitem id="clipitem-1276" frameBlend="FALSE">
						<masterclipid>masterclip-212</masterclipid>
						<name>AA004501.MXF</name>
						<enabled>TRUE</enabled>
						<duration>9324</duration>
						<rate>
							<timebase>25</timebase>
							<ntsc>FALSE</ntsc>
						</rate>
						<start>33119</start>
						<end>33161</end>
						<in>2159</in>
						<out>2201</out>
						<file id="file-189"/>
						<sourcetrack>
							<mediatype>audio</mediatype>
							<trackindex>1</trackindex>
						</sourcetrack>
							<filter>
								<effect>
									<name>Audio Levels</name>
									<effectid>audiolevels</effectid>
									<effectcategory>audiolevels</effectcategory>
									<effecttype>audiolevels</effecttype>
									<mediatype>audio</mediatype>
									<parameter authoringApp="PremierePro">
										<parameterid>level</parameterid>
										<name>Level</name>
										<valuemin>0</valuemin>
										<valuemax>3.98109</valuemax>
										<value>1.58114</value>
									</parameter>
								</effect>
							</filter>
							<marker>
								<comment>har absolutt en identitet, dessverre</comment>
								<name>smartelefoner </name>
								<in>8575</in>
								<out>-1</out>
							</marker>
							<marker>
								<comment>gir ingen identitet fra seg</comment>
								<name>anonymt</name>
								<in>303</in>
								<out>-1</out>
							</marker>
							<marker>
								<comment>overvￃﾥke ruta du kjￃﾸrer</comment>
								<name>blir det press?</name>
								<in>5009</in>
								<out>-1</out>
							</marker>
							<marker>
								<comment>hvis du ikke selv vil</comment>
								<name>kan unngￃﾥ</name>
								<in>6481</in>
								<out>-1</out>
							</marker>
							<marker>
								<comment>med bilde og det hele</comment>
								<name>gￃﾥr melding til polti</name>
								<in>2515</in>
								<out>-1</out>
							</marker>
							<marker>
								<comment>men du vil jo ogsￃﾥ planlegge og lage flyt</comment>
								<name>du vil ha personvern</name>
								<in>7472</in>
								<out>-1</out>
							</marker>
							<marker>
								<comment>gpr ikke ned pￃﾥ indivinivￃﾥ med big data</comment>
								<name>big data ikke pￃﾥ invdivd</name>
								<in>7737</in>
								<out>-1</out>
							</marker>
							<marker>
								<comment>langtidsidentiten din kan bare ￃﾥpnes med en rettsordre</comment>
								<name>rettsordre</name>
								<in>984</in>
								<out>-1</out>
							</marker>
							<marker>
								<comment>bilen blir identifisert</comment>
								<name>kjￃﾸre pￃﾥ rￃﾸdt</name>
								<in>2231</in>
								<out>-1</out>
							</marker>
						<logginginfo>
							<description></description>
							<scene></scene>
							<shottake>AA0045</shottake>
							<lognote></lognote>
						</logginginfo>
						<labels>
							<label2>Iris</label2>
						</labels>
					</clipitem>
					<clipitem id="clipitem-1277" frameBlend="FALSE">
						<masterclipid>masterclip-214</masterclipid>
						<name>AA004601.MXF</name>
						<enabled>TRUE</enabled>
						<duration>32868</duration>
						<rate>
							<timebase>25</timebase>
							<ntsc>FALSE</ntsc>
						</rate>
						<start>33161</start>
						<end>33163</end>
						<in>3083</in>
						<out>3085</out>
						<file id="file-191"/>
						<sourcetrack>
							<mediatype>audio</mediatype>
							<trackindex>1</trackindex>
						</sourcetrack>
							<filter>
								<effect>
									<name>Audio Levels</name>
									<effectid>audiolevels</effectid>
									<effectcategory>audiolevels</effectcategory>
									<effecttype>audiolevels</effecttype>
									<mediatype>audio</mediatype>
									<parameter authoringApp="PremierePro">
										<parameterid>level</parameterid>
										<name>Level</name>
										<valuemin>0</valuemin>
										<valuemax>3.98109</valuemax>
										<value>1.58114</value>
									</parameter>
								</effect>
							</filter>
							<marker>
								<comment>at det p plukke ut fartsovertredelser ikke er ok</comment>
								<name>syns selv </name>
								<in>2063</in>
								<out>-1</out>
							</marker>
							<marker>
								<comment>at du er i ferd med ￃﾥ gjￃﾸre noe dumt</comment>
								<name>din egen bil varsler</name>
								<in>13450</in>
								<out>-1</out>
							</marker>
							<marker>
								<comment></comment>
								<name>krysset advarer biler</name>
								<in>3254</in>
								<out>-1</out>
							</marker>
							<marker>
								<comment>vil sende ut til andre, men ikke politiet</comment>
								<name>bile noppdager fare</name>
								<in>25728</in>
								<out>-1</out>
							</marker>
							<marker>
								<comment>men hva sikkerhetsmyndigheten hjￃﾸr vet ingen</comment>
								<name>systemet tillater ikke</name>
								<in>31411</in>
								<out>-1</out>
							</marker>
							<marker>
								<comment>om ￃﾥ lagre i bilen</comment>
								<name>kan bli lovpￃﾥbud</name>
								<in>27311</in>
								<out>-1</out>
							</marker>
							<marker>
								<comment>men ikke individnivￃﾥ</comment>
								<name>analyser</name>
								<in>12162</in>
								<out>-1</out>
							</marker>
							<marker>
								<comment>bryter ikke personvern</comment>
								<name>data kommersiell verdi</name>
								<in>11384</in>
								<out>-1</out>
							</marker>
							<marker>
								<comment>langtids kan bare ￃﾥpnes ved veldig god grunn</comment>
								<name>ser ikke noe fare</name>
								<in>20254</in>
								<out>-1</out>
							</marker>
							<marker>
								<comment>lagrer aldri noen ting</comment>
								<name>bare synsrekkefￃﾸlge</name>
								<in>27067</in>
								<out>-1</out>
							</marker>
							<marker>
								<comment>enn bilskilt</comment>
								<name>anonymiserer mer</name>
								<in>9955</in>
								<out>-1</out>
							</marker>
							<marker>
								<comment></comment>
								<name>alle lovbrudd lagret?</name>
								<in>26603</in>
								<out>-1</out>
							</marker>
							<marker>
								<comment>10 ganger i sekunder hva du gjￃﾸr </comment>
								<name>anonymisert melding</name>
								<in>25110</in>
								<out>-1</out>
							</marker>
							<marker>
								<comment>i motsetning til bilskilt</comment>
								<name>mￃﾥ ha rettskjennelse</name>
								<in>10515</in>
								<out>-1</out>
							</marker>
							<marker>
								<comment>bare alvorlige lvobruddhￃﾥper jeg</comment>
								<name>hￃﾥper alvorlig</name>
								<in>1274</in>
								<out>-1</out>
							</marker>
							<marker>
								<comment></comment>
								<name>den vi lneppe overstyre deg</name>
								<in>13992</in>
								<out>-1</out>
							</marker>
							<marker>
								<comment></comment>
								<name>ka naldri fￃﾸlge en bil</name>
								<in>18235</in>
								<out>-1</out>
							</marker>
							<marker>
								<comment>allerede i dag</comment>
								<name>bilen er angiver</name>
								<in>9071</in>
								<out>-1</out>
							</marker>
							<marker>
								<comment>kjￃﾸreretning</comment>
								<name>beklager jeg kjￃﾸrer i feil</name>
								<in>26376</in>
								<out>-1</out>
							</marker>
							<marker>
								<comment>vu har brukt veldig mye tid pￃﾥ det</comment>
								<name>unngￃﾥ ￃﾥ fￃﾸlge individer</name>
								<in>23348</in>
								<out>-1</out>
							</marker>
							<marker>
								<comment>hiver pￃﾥ bremser</comment>
								<name> </name>
								<in>14850</in>
								<out>-1</out>
							</marker>
							<marker>
								<comment>ￃﾥ kjￃﾸre feil reting</comment>
								<name>bilen kan hindre </name>
								<in>7719</in>
								<out>-1</out>
							</marker>
							<marker>
								<comment>ￃﾥ hacke seg inn, sett det med NSA</comment>
								<name>teknisk mulig </name>
								<in>30696</in>
								<out>-1</out>
							</marker>
							<marker>
								<comment>fￃﾥr vigte om meg?</comment>
								<name>hvor mye andre biler</name>
								<in>17367</in>
								<out>-1</out>
							</marker>
						<logginginfo>
							<description></description>
							<scene></scene>
							<shottake>AA0046</shottake>
							<lognote></lognote>
						</logginginfo>
						<labels>
							<label2>Iris</label2>
						</labels>
					</clipitem>
					<clipitem id="clipitem-1278" frameBlend="FALSE">
						<masterclipid>masterclip-214</masterclipid>
						<name>AA004601.MXF</name>
						<enabled>TRUE</enabled>
						<duration>32868</duration>
						<rate>
							<timebase>25</timebase>
							<ntsc>FALSE</ntsc>
						</rate>
						<start>33163</start>
						<end>33176</end>
						<in>3092</in>
						<out>3105</out>
						<file id="file-191"/>
						<sourcetrack>
							<mediatype>audio</mediatype>
							<trackindex>1</trackindex>
						</sourcetrack>
							<filter>
								<effect>
									<name>Audio Levels</name>
									<effectid>audiolevels</effectid>
									<effectcategory>audiolevels</effectcategory>
									<effecttype>audiolevels</effecttype>
									<mediatype>audio</mediatype>
									<parameter authoringApp="PremierePro">
										<parameterid>level</parameterid>
										<name>Level</name>
										<valuemin>0</valuemin>
										<valuemax>3.98109</valuemax>
										<value>1.58114</value>
									</parameter>
								</effect>
							</filter>
							<marker>
								<comment>at det p plukke ut fartsovertredelser ikke er ok</comment>
								<name>syns selv </name>
								<in>2063</in>
								<out>-1</out>
							</marker>
							<marker>
								<comment>at du er i ferd med ￃﾥ gjￃﾸre noe dumt</comment>
								<name>din egen bil varsler</name>
								<in>13450</in>
								<out>-1</out>
							</marker>
							<marker>
								<comment></comment>
								<name>krysset advarer biler</name>
								<in>3254</in>
								<out>-1</out>
							</marker>
							<marker>
								<comment>vil sende ut til andre, men ikke politiet</comment>
								<name>bile noppdager fare</name>
								<in>25728</in>
								<out>-1</out>
							</marker>
							<marker>
								<comment>men hva sikkerhetsmyndigheten hjￃﾸr vet ingen</comment>
								<name>systemet tillater ikke</name>
								<in>31411</in>
								<out>-1</out>
							</marker>
							<marker>
								<comment>om ￃﾥ lagre i bilen</comment>
								<name>kan bli lovpￃﾥbud</name>
								<in>27311</in>
								<out>-1</out>
							</marker>
							<marker>
								<comment>men ikke individnivￃﾥ</comment>
								<name>analyser</name>
								<in>12162</in>
								<out>-1</out>
							</marker>
							<marker>
								<comment>bryter ikke personvern</comment>
								<name>data kommersiell verdi</name>
								<in>11384</in>
								<out>-1</out>
							</marker>
							<marker>
								<comment>langtids kan bare ￃﾥpnes ved veldig god grunn</comment>
								<name>ser ikke noe fare</name>
								<in>20254</in>
								<out>-1</out>
							</marker>
							<marker>
								<comment>lagrer aldri noen ting</comment>
								<name>bare synsrekkefￃﾸlge</name>
								<in>27067</in>
								<out>-1</out>
							</marker>
							<marker>
								<comment>enn bilskilt</comment>
								<name>anonymiserer mer</name>
								<in>9955</in>
								<out>-1</out>
							</marker>
							<marker>
								<comment></comment>
								<name>alle lovbrudd lagret?</name>
								<in>26603</in>
								<out>-1</out>
							</marker>
							<marker>
								<comment>10 ganger i sekunder hva du gjￃﾸr </comment>
								<name>anonymisert melding</name>
								<in>25110</in>
								<out>-1</out>
							</marker>
							<marker>
								<comment>i motsetning til bilskilt</comment>
								<name>mￃﾥ ha rettskjennelse</name>
								<in>10515</in>
								<out>-1</out>
							</marker>
							<marker>
								<comment>bare alvorlige lvobruddhￃﾥper jeg</comment>
								<name>hￃﾥper alvorlig</name>
								<in>1274</in>
								<out>-1</out>
							</marker>
							<marker>
								<comment></comment>
								<name>den vi lneppe overstyre deg</name>
								<in>13992</in>
								<out>-1</out>
							</marker>
							<marker>
								<comment></comment>
								<name>ka naldri fￃﾸlge en bil</name>
								<in>18235</in>
								<out>-1</out>
							</marker>
							<marker>
								<comment>allerede i dag</comment>
								<name>bilen er angiver</name>
								<in>9071</in>
								<out>-1</out>
							</marker>
							<marker>
								<comment>kjￃﾸreretning</comment>
								<name>beklager jeg kjￃﾸrer i feil</name>
								<in>26376</in>
								<out>-1</out>
							</marker>
							<marker>
								<comment>vu har brukt veldig mye tid pￃﾥ det</comment>
								<name>unngￃﾥ ￃﾥ fￃﾸlge individer</name>
								<in>23348</in>
								<out>-1</out>
							</marker>
							<marker>
								<comment>hiver pￃﾥ bremser</comment>
								<name> </name>
								<in>14850</in>
								<out>-1</out>
							</marker>
							<marker>
								<comment>ￃﾥ kjￃﾸre feil reting</comment>
								<name>bilen kan hindre </name>
								<in>7719</in>
								<out>-1</out>
							</marker>
							<marker>
								<comment>ￃﾥ hacke seg inn, sett det med NSA</comment>
								<name>teknisk mulig </name>
								<in>30696</in>
								<out>-1</out>
							</marker>
							<marker>
								<comment>fￃﾥr vigte om meg?</comment>
								<name>hvor mye andre biler</name>
								<in>17367</in>
								<out>-1</out>
							</marker>
						<logginginfo>
							<description></description>
							<scene></scene>
							<shottake>AA0046</shottake>
							<lognote></lognote>
						</logginginfo>
						<labels>
							<label2>Iris</label2>
						</labels>
					</clipitem>
					<clipitem id="clipitem-1279" frameBlend="FALSE">
						<masterclipid>masterclip-214</masterclipid>
						<name>AA004601.MXF</name>
						<enabled>TRUE</enabled>
						<duration>32868</duration>
						<rate>
							<timebase>25</timebase>
							<ntsc>FALSE</ntsc>
						</rate>
						<start>33176</start>
						<end>33240</end>
						<in>3196</in>
						<out>3260</out>
						<file id="file-191"/>
						<sourcetrack>
							<mediatype>audio</mediatype>
							<trackindex>1</trackindex>
						</sourcetrack>
							<filter>
								<effect>
									<name>Audio Levels</name>
									<effectid>audiolevels</effectid>
									<effectcategory>audiolevels</effectcategory>
									<effecttype>audiolevels</effecttype>
									<mediatype>audio</mediatype>
									<parameter authoringApp="PremierePro">
										<parameterid>level</parameterid>
										<name>Level</name>
										<valuemin>0</valuemin>
										<valuemax>3.98109</valuemax>
										<value>1.77828</value>
									</parameter>
								</effect>
							</filter>
							<marker>
								<comment>at det p plukke ut fartsovertredelser ikke er ok</comment>
								<name>syns selv </name>
								<in>2063</in>
								<out>-1</out>
							</marker>
							<marker>
								<comment>at du er i ferd med ￃﾥ gjￃﾸre noe dumt</comment>
								<name>din egen bil varsler</name>
								<in>13450</in>
								<out>-1</out>
							</marker>
							<marker>
								<comment></comment>
								<name>krysset advarer biler</name>
								<in>3254</in>
								<out>-1</out>
							</marker>
							<marker>
								<comment>vil sende ut til andre, men ikke politiet</comment>
								<name>bile noppdager fare</name>
								<in>25728</in>
								<out>-1</out>
							</marker>
							<marker>
								<comment>men hva sikkerhetsmyndigheten hjￃﾸr vet ingen</comment>
								<name>systemet tillater ikke</name>
								<in>31411</in>
								<out>-1</out>
							</marker>
							<marker>
								<comment>om ￃﾥ lagre i bilen</comment>
								<name>kan bli lovpￃﾥbud</name>
								<in>27311</in>
								<out>-1</out>
							</marker>
							<marker>
								<comment>men ikke individnivￃﾥ</comment>
								<name>analyser</name>
								<in>12162</in>
								<out>-1</out>
							</marker>
							<marker>
								<comment>bryter ikke personvern</comment>
								<name>data kommersiell verdi</name>
								<in>11384</in>
								<out>-1</out>
							</marker>
							<marker>
								<comment>langtids kan bare ￃﾥpnes ved veldig god grunn</comment>
								<name>ser ikke noe fare</name>
								<in>20254</in>
								<out>-1</out>
							</marker>
							<marker>
								<comment>lagrer aldri noen ting</comment>
								<name>bare synsrekkefￃﾸlge</name>
								<in>27067</in>
								<out>-1</out>
							</marker>
							<marker>
								<comment>enn bilskilt</comment>
								<name>anonymiserer mer</name>
								<in>9955</in>
								<out>-1</out>
							</marker>
							<marker>
								<comment></comment>
								<name>alle lovbrudd lagret?</name>
								<in>26603</in>
								<out>-1</out>
							</marker>
							<marker>
								<comment>10 ganger i sekunder hva du gjￃﾸr </comment>
								<name>anonymisert melding</name>
								<in>25110</in>
								<out>-1</out>
							</marker>
							<marker>
								<comment>i motsetning til bilskilt</comment>
								<name>mￃﾥ ha rettskjennelse</name>
								<in>10515</in>
								<out>-1</out>
							</marker>
							<marker>
								<comment>bare alvorlige lvobruddhￃﾥper jeg</comment>
								<name>hￃﾥper alvorlig</name>
								<in>1274</in>
								<out>-1</out>
							</marker>
							<marker>
								<comment></comment>
								<name>den vi lneppe overstyre deg</name>
								<in>13992</in>
								<out>-1</out>
							</marker>
							<marker>
								<comment></comment>
								<name>ka naldri fￃﾸlge en bil</name>
								<in>18235</in>
								<out>-1</out>
							</marker>
							<marker>
								<comment>allerede i dag</comment>
								<name>bilen er angiver</name>
								<in>9071</in>
								<out>-1</out>
							</marker>
							<marker>
								<comment>kjￃﾸreretning</comment>
								<name>beklager jeg kjￃﾸrer i feil</name>
								<in>26376</in>
								<out>-1</out>
							</marker>
							<marker>
								<comment>vu har brukt veldig mye tid pￃﾥ det</comment>
								<name>unngￃﾥ ￃﾥ fￃﾸlge individer</name>
								<in>23348</in>
								<out>-1</out>
							</marker>
							<marker>
								<comment>hiver pￃﾥ bremser</comment>
								<name> </name>
								<in>14850</in>
								<out>-1</out>
							</marker>
							<marker>
								<comment>ￃﾥ kjￃﾸre feil reting</comment>
								<name>bilen kan hindre </name>
								<in>7719</in>
								<out>-1</out>
							</marker>
							<marker>
								<comment>ￃﾥ hacke seg inn, sett det med NSA</comment>
								<name>teknisk mulig </name>
								<in>30696</in>
								<out>-1</out>
							</marker>
							<marker>
								<comment>fￃﾥr vigte om meg?</comment>
								<name>hvor mye andre biler</name>
								<in>17367</in>
								<out>-1</out>
							</marker>
						<logginginfo>
							<description></description>
							<scene></scene>
							<shottake>AA0046</shottake>
							<lognote></lognote>
						</logginginfo>
						<labels>
							<label2>Iris</label2>
						</labels>
					</clipitem>
					<clipitem id="clipitem-1280" frameBlend="FALSE">
						<masterclipid>masterclip-214</masterclipid>
						<name>AA004601.MXF</name>
						<enabled>TRUE</enabled>
						<duration>32868</duration>
						<rate>
							<timebase>25</timebase>
							<ntsc>FALSE</ntsc>
						</rate>
						<start>33240</start>
						<end>33379</end>
						<in>3388</in>
						<out>3527</out>
						<file id="file-191"/>
						<sourcetrack>
							<mediatype>audio</mediatype>
							<trackindex>1</trackindex>
						</sourcetrack>
							<filter>
								<effect>
									<name>Audio Levels</name>
									<effectid>audiolevels</effectid>
									<effectcategory>audiolevels</effectcategory>
									<effecttype>audiolevels</effecttype>
									<mediatype>audio</mediatype>
									<parameter authoringApp="PremierePro">
										<parameterid>level</parameterid>
										<name>Level</name>
										<valuemin>0</valuemin>
										<valuemax>3.98109</valuemax>
										<value>1.77828</value>
									</parameter>
								</effect>
							</filter>
							<marker>
								<comment>at det p plukke ut fartsovertredelser ikke er ok</comment>
								<name>syns selv </name>
								<in>2063</in>
								<out>-1</out>
							</marker>
							<marker>
								<comment>at du er i ferd med ￃﾥ gjￃﾸre noe dumt</comment>
								<name>din egen bil varsler</name>
								<in>13450</in>
								<out>-1</out>
							</marker>
							<marker>
								<comment></comment>
								<name>krysset advarer biler</name>
								<in>3254</in>
								<out>-1</out>
							</marker>
							<marker>
								<comment>vil sende ut til andre, men ikke politiet</comment>
								<name>bile noppdager fare</name>
								<in>25728</in>
								<out>-1</out>
							</marker>
							<marker>
								<comment>men hva sikkerhetsmyndigheten hjￃﾸr vet ingen</comment>
								<name>systemet tillater ikke</name>
								<in>31411</in>
								<out>-1</out>
							</marker>
							<marker>
								<comment>om ￃﾥ lagre i bilen</comment>
								<name>kan bli lovpￃﾥbud</name>
								<in>27311</in>
								<out>-1</out>
							</marker>
							<marker>
								<comment>men ikke individnivￃﾥ</comment>
								<name>analyser</name>
								<in>12162</in>
								<out>-1</out>
							</marker>
							<marker>
								<comment>bryter ikke personvern</comment>
								<name>data kommersiell verdi</name>
								<in>11384</in>
								<out>-1</out>
							</marker>
							<marker>
								<comment>langtids kan bare ￃﾥpnes ved veldig god grunn</comment>
								<name>ser ikke noe fare</name>
								<in>20254</in>
								<out>-1</out>
							</marker>
							<marker>
								<comment>lagrer aldri noen ting</comment>
								<name>bare synsrekkefￃﾸlge</name>
								<in>27067</in>
								<out>-1</out>
							</marker>
							<marker>
								<comment>enn bilskilt</comment>
								<name>anonymiserer mer</name>
								<in>9955</in>
								<out>-1</out>
							</marker>
							<marker>
								<comment></comment>
								<name>alle lovbrudd lagret?</name>
								<in>26603</in>
								<out>-1</out>
							</marker>
							<marker>
								<comment>10 ganger i sekunder hva du gjￃﾸr </comment>
								<name>anonymisert melding</name>
								<in>25110</in>
								<out>-1</out>
							</marker>
							<marker>
								<comment>i motsetning til bilskilt</comment>
								<name>mￃﾥ ha rettskjennelse</name>
								<in>10515</in>
								<out>-1</out>
							</marker>
							<marker>
								<comment>bare alvorlige lvobruddhￃﾥper jeg</comment>
								<name>hￃﾥper alvorlig</name>
								<in>1274</in>
								<out>-1</out>
							</marker>
							<marker>
								<comment></comment>
								<name>den vi lneppe overstyre deg</name>
								<in>13992</in>
								<out>-1</out>
							</marker>
							<marker>
								<comment></comment>
								<name>ka naldri fￃﾸlge en bil</name>
								<in>18235</in>
								<out>-1</out>
							</marker>
							<marker>
								<comment>allerede i dag</comment>
								<name>bilen er angiver</name>
								<in>9071</in>
								<out>-1</out>
							</marker>
							<marker>
								<comment>kjￃﾸreretning</comment>
								<name>beklager jeg kjￃﾸrer i feil</name>
								<in>26376</in>
								<out>-1</out>
							</marker>
							<marker>
								<comment>vu har brukt veldig mye tid pￃﾥ det</comment>
								<name>unngￃﾥ ￃﾥ fￃﾸlge individer</name>
								<in>23348</in>
								<out>-1</out>
							</marker>
							<marker>
								<comment>hiver pￃﾥ bremser</comment>
								<name> </name>
								<in>14850</in>
								<out>-1</out>
							</marker>
							<marker>
								<comment>ￃﾥ kjￃﾸre feil reting</comment>
								<name>bilen kan hindre </name>
								<in>7719</in>
								<out>-1</out>
							</marker>
							<marker>
								<comment>ￃﾥ hacke seg inn, sett det med NSA</comment>
								<name>teknisk mulig </name>
								<in>30696</in>
								<out>-1</out>
							</marker>
							<marker>
								<comment>fￃﾥr vigte om meg?</comment>
								<name>hvor mye andre biler</name>
								<in>17367</in>
								<out>-1</out>
							</marker>
						<link>
							<linkclipref>clipitem-852</linkclipref>
							<mediatype>video</mediatype>
							<trackindex>1</trackindex>
							<clipindex>288</clipindex>
						</link>
						<link>
							<linkclipref>clipitem-1280</linkclipref>
							<mediatype>audio</mediatype>
							<trackindex>1</trackindex>
							<clipindex>145</clipindex>
						</link>
						<logginginfo>
							<description></description>
							<scene></scene>
							<shottake>AA0046</shottake>
							<lognote></lognote>
						</logginginfo>
						<labels>
							<label2>Iris</label2>
						</labels>
					</clipitem>
					<clipitem id="clipitem-1281" frameBlend="FALSE">
						<masterclipid>masterclip-212</masterclipid>
						<name>AA004501.MXF</name>
						<enabled>TRUE</enabled>
						<duration>9324</duration>
						<rate>
							<timebase>25</timebase>
							<ntsc>FALSE</ntsc>
						</rate>
						<start>33379</start>
						<end>33477</end>
						<in>2248</in>
						<out>2346</out>
						<file id="file-189"/>
						<sourcetrack>
							<mediatype>audio</mediatype>
							<trackindex>1</trackindex>
						</sourcetrack>
							<marker>
								<comment>har absolutt en identitet, dessverre</comment>
								<name>smartelefoner </name>
								<in>8575</in>
								<out>-1</out>
							</marker>
							<marker>
								<comment>gir ingen identitet fra seg</comment>
								<name>anonymt</name>
								<in>303</in>
								<out>-1</out>
							</marker>
							<marker>
								<comment>overvￃﾥke ruta du kjￃﾸrer</comment>
								<name>blir det press?</name>
								<in>5009</in>
								<out>-1</out>
							</marker>
							<marker>
								<comment>hvis du ikke selv vil</comment>
								<name>kan unngￃﾥ</name>
								<in>6481</in>
								<out>-1</out>
							</marker>
							<marker>
								<comment>med bilde og det hele</comment>
								<name>gￃﾥr melding til polti</name>
								<in>2515</in>
								<out>-1</out>
							</marker>
							<marker>
								<comment>men du vil jo ogsￃﾥ planlegge og lage flyt</comment>
								<name>du vil ha personvern</name>
								<in>7472</in>
								<out>-1</out>
							</marker>
							<marker>
								<comment>gpr ikke ned pￃﾥ indivinivￃﾥ med big data</comment>
								<name>big data ikke pￃﾥ invdivd</name>
								<in>7737</in>
								<out>-1</out>
							</marker>
							<marker>
								<comment>langtidsidentiten din kan bare ￃﾥpnes med en rettsordre</comment>
								<name>rettsordre</name>
								<in>984</in>
								<out>-1</out>
							</marker>
							<marker>
								<comment>bilen blir identifisert</comment>
								<name>kjￃﾸre pￃﾥ rￃﾸdt</name>
								<in>2231</in>
								<out>-1</out>
							</marker>
						<logginginfo>
							<description></description>
							<scene></scene>
							<shottake>AA0045</shottake>
							<lognote></lognote>
						</logginginfo>
						<labels>
							<label2>Iris</label2>
						</labels>
					</clipitem>
					<clipitem id="clipitem-1282" frameBlend="FALSE">
						<masterclipid>masterclip-212</masterclipid>
						<name>AA004501.MXF</name>
						<enabled>TRUE</enabled>
						<duration>9324</duration>
						<rate>
							<timebase>25</timebase>
							<ntsc>FALSE</ntsc>
						</rate>
						<start>33477</start>
						<end>33580</end>
						<in>2381</in>
						<out>2484</out>
						<file id="file-189"/>
						<sourcetrack>
							<mediatype>audio</mediatype>
							<trackindex>1</trackindex>
						</sourcetrack>
							<marker>
								<comment>har absolutt en identitet, dessverre</comment>
								<name>smartelefoner </name>
								<in>8575</in>
								<out>-1</out>
							</marker>
							<marker>
								<comment>gir ingen identitet fra seg</comment>
								<name>anonymt</name>
								<in>303</in>
								<out>-1</out>
							</marker>
							<marker>
								<comment>overvￃﾥke ruta du kjￃﾸrer</comment>
								<name>blir det press?</name>
								<in>5009</in>
								<out>-1</out>
							</marker>
							<marker>
								<comment>hvis du ikke selv vil</comment>
								<name>kan unngￃﾥ</name>
								<in>6481</in>
								<out>-1</out>
							</marker>
							<marker>
								<comment>med bilde og det hele</comment>
								<name>gￃﾥr melding til polti</name>
								<in>2515</in>
								<out>-1</out>
							</marker>
							<marker>
								<comment>men du vil jo ogsￃﾥ planlegge og lage flyt</comment>
								<name>du vil ha personvern</name>
								<in>7472</in>
								<out>-1</out>
							</marker>
							<marker>
								<comment>gpr ikke ned pￃﾥ indivinivￃﾥ med big data</comment>
								<name>big data ikke pￃﾥ invdivd</name>
								<in>7737</in>
								<out>-1</out>
							</marker>
							<marker>
								<comment>langtidsidentiten din kan bare ￃﾥpnes med en rettsordre</comment>
								<name>rettsordre</name>
								<in>984</in>
								<out>-1</out>
							</marker>
							<marker>
								<comment>bilen blir identifisert</comment>
								<name>kjￃﾸre pￃﾥ rￃﾸdt</name>
								<in>2231</in>
								<out>-1</out>
							</marker>
						<link>
							<linkclipref>clipitem-854</linkclipref>
							<mediatype>video</mediatype>
							<trackindex>1</trackindex>
							<clipindex>290</clipindex>
						</link>
						<link>
							<linkclipref>clipitem-1282</linkclipref>
							<mediatype>audio</mediatype>
							<trackindex>1</trackindex>
							<clipindex>147</clipindex>
						</link>
						<logginginfo>
							<description></description>
							<scene></scene>
							<shottake>AA0045</shottake>
							<lognote></lognote>
						</logginginfo>
						<labels>
							<label2>Iris</label2>
						</labels>
					</clipitem>
					<clipitem id="clipitem-1283" frameBlend="FALSE">
						<masterclipid>masterclip-212</masterclipid>
						<name>AA004501.MXF</name>
						<enabled>TRUE</enabled>
						<duration>9324</duration>
						<rate>
							<timebase>25</timebase>
							<ntsc>FALSE</ntsc>
						</rate>
						<start>33580</start>
						<end>33718</end>
						<in>2984</in>
						<out>3122</out>
						<file id="file-189"/>
						<sourcetrack>
							<mediatype>audio</mediatype>
							<trackindex>1</trackindex>
						</sourcetrack>
							<marker>
								<comment>har absolutt en identitet, dessverre</comment>
								<name>smartelefoner </name>
								<in>8575</in>
								<out>-1</out>
							</marker>
							<marker>
								<comment>gir ingen identitet fra seg</comment>
								<name>anonymt</name>
								<in>303</in>
								<out>-1</out>
							</marker>
							<marker>
								<comment>overvￃﾥke ruta du kjￃﾸrer</comment>
								<name>blir det press?</name>
								<in>5009</in>
								<out>-1</out>
							</marker>
							<marker>
								<comment>hvis du ikke selv vil</comment>
								<name>kan unngￃﾥ</name>
								<in>6481</in>
								<out>-1</out>
							</marker>
							<marker>
								<comment>med bilde og det hele</comment>
								<name>gￃﾥr melding til polti</name>
								<in>2515</in>
								<out>-1</out>
							</marker>
							<marker>
								<comment>men du vil jo ogsￃﾥ planlegge og lage flyt</comment>
								<name>du vil ha personvern</name>
								<in>7472</in>
								<out>-1</out>
							</marker>
							<marker>
								<comment>gpr ikke ned pￃﾥ indivinivￃﾥ med big data</comment>
								<name>big data ikke pￃﾥ invdivd</name>
								<in>7737</in>
								<out>-1</out>
							</marker>
							<marker>
								<comment>langtidsidentiten din kan bare ￃﾥpnes med en rettsordre</comment>
								<name>rettsordre</name>
								<in>984</in>
								<out>-1</out>
							</marker>
							<marker>
								<comment>bilen blir identifisert</comment>
								<name>kjￃﾸre pￃﾥ rￃﾸdt</name>
								<in>2231</in>
								<out>-1</out>
							</marker>
						<link>
							<linkclipref>clipitem-857</linkclipref>
							<mediatype>video</mediatype>
							<trackindex>1</trackindex>
							<clipindex>293</clipindex>
						</link>
						<link>
							<linkclipref>clipitem-1283</linkclipref>
							<mediatype>audio</mediatype>
							<trackindex>1</trackindex>
							<clipindex>148</clipindex>
						</link>
						<logginginfo>
							<description></description>
							<scene></scene>
							<shottake>AA0045</shottake>
							<lognote></lognote>
						</logginginfo>
						<labels>
							<label2>Iris</label2>
						</labels>
					</clipitem>
					<clipitem id="clipitem-1284" frameBlend="FALSE">
						<masterclipid>masterclip-212</masterclipid>
						<name>AA004501.MXF</name>
						<enabled>TRUE</enabled>
						<duration>9324</duration>
						<rate>
							<timebase>25</timebase>
							<ntsc>FALSE</ntsc>
						</rate>
						<start>33718</start>
						<end>33817</end>
						<in>3178</in>
						<out>3277</out>
						<file id="file-189"/>
						<sourcetrack>
							<mediatype>audio</mediatype>
							<trackindex>1</trackindex>
						</sourcetrack>
							<filter>
								<effect>
									<name>Audio Levels</name>
									<effectid>audiolevels</effectid>
									<effectcategory>audiolevels</effectcategory>
									<effecttype>audiolevels</effecttype>
									<mediatype>audio</mediatype>
									<parameter authoringApp="PremierePro">
										<parameterid>level</parameterid>
										<name>Level</name>
										<valuemin>0</valuemin>
										<valuemax>3.98109</valuemax>
										<value>1.11936</value>
									</parameter>
								</effect>
							</filter>
							<marker>
								<comment>har absolutt en identitet, dessverre</comment>
								<name>smartelefoner </name>
								<in>8575</in>
								<out>-1</out>
							</marker>
							<marker>
								<comment>gir ingen identitet fra seg</comment>
								<name>anonymt</name>
								<in>303</in>
								<out>-1</out>
							</marker>
							<marker>
								<comment>overvￃﾥke ruta du kjￃﾸrer</comment>
								<name>blir det press?</name>
								<in>5009</in>
								<out>-1</out>
							</marker>
							<marker>
								<comment>hvis du ikke selv vil</comment>
								<name>kan unngￃﾥ</name>
								<in>6481</in>
								<out>-1</out>
							</marker>
							<marker>
								<comment>med bilde og det hele</comment>
								<name>gￃﾥr melding til polti</name>
								<in>2515</in>
								<out>-1</out>
							</marker>
							<marker>
								<comment>men du vil jo ogsￃﾥ planlegge og lage flyt</comment>
								<name>du vil ha personvern</name>
								<in>7472</in>
								<out>-1</out>
							</marker>
							<marker>
								<comment>gpr ikke ned pￃﾥ indivinivￃﾥ med big data</comment>
								<name>big data ikke pￃﾥ invdivd</name>
								<in>7737</in>
								<out>-1</out>
							</marker>
							<marker>
								<comment>langtidsidentiten din kan bare ￃﾥpnes med en rettsordre</comment>
								<name>rettsordre</name>
								<in>984</in>
								<out>-1</out>
							</marker>
							<marker>
								<comment>bilen blir identifisert</comment>
								<name>kjￃﾸre pￃﾥ rￃﾸdt</name>
								<in>2231</in>
								<out>-1</out>
							</marker>
						<link>
							<linkclipref>clipitem-861</linkclipref>
							<mediatype>video</mediatype>
							<trackindex>1</trackindex>
							<clipindex>297</clipindex>
						</link>
						<link>
							<linkclipref>clipitem-1284</linkclipref>
							<mediatype>audio</mediatype>
							<trackindex>1</trackindex>
							<clipindex>149</clipindex>
						</link>
						<logginginfo>
							<description></description>
							<scene></scene>
							<shottake>AA0045</shottake>
							<lognote></lognote>
						</logginginfo>
						<labels>
							<label2>Iris</label2>
						</labels>
					</clipitem>
					<clipitem id="clipitem-1285" frameBlend="FALSE">
						<masterclipid>masterclip-212</masterclipid>
						<name>AA004501.MXF</name>
						<enabled>TRUE</enabled>
						<duration>9324</duration>
						<rate>
							<timebase>25</timebase>
							<ntsc>FALSE</ntsc>
						</rate>
						<start>34275</start>
						<end>34348</end>
						<in>230</in>
						<out>303</out>
						<file id="file-189"/>
						<sourcetrack>
							<mediatype>audio</mediatype>
							<trackindex>1</trackindex>
						</sourcetrack>
							<marker>
								<comment>har absolutt en identitet, dessverre</comment>
								<name>smartelefoner </name>
								<in>8575</in>
								<out>-1</out>
							</marker>
							<marker>
								<comment>gir ingen identitet fra seg</comment>
								<name>anonymt</name>
								<in>303</in>
								<out>-1</out>
							</marker>
							<marker>
								<comment>overvￃﾥke ruta du kjￃﾸrer</comment>
								<name>blir det press?</name>
								<in>5009</in>
								<out>-1</out>
							</marker>
							<marker>
								<comment>hvis du ikke selv vil</comment>
								<name>kan unngￃﾥ</name>
								<in>6481</in>
								<out>-1</out>
							</marker>
							<marker>
								<comment>med bilde og det hele</comment>
								<name>gￃﾥr melding til polti</name>
								<in>2515</in>
								<out>-1</out>
							</marker>
							<marker>
								<comment>men du vil jo ogsￃﾥ planlegge og lage flyt</comment>
								<name>du vil ha personvern</name>
								<in>7472</in>
								<out>-1</out>
							</marker>
							<marker>
								<comment>gpr ikke ned pￃﾥ indivinivￃﾥ med big data</comment>
								<name>big data ikke pￃﾥ invdivd</name>
								<in>7737</in>
								<out>-1</out>
							</marker>
							<marker>
								<comment>langtidsidentiten din kan bare ￃﾥpnes med en rettsordre</comment>
								<name>rettsordre</name>
								<in>984</in>
								<out>-1</out>
							</marker>
							<marker>
								<comment>bilen blir identifisert</comment>
								<name>kjￃﾸre pￃﾥ rￃﾸdt</name>
								<in>2231</in>
								<out>-1</out>
							</marker>
						<link>
							<linkclipref>clipitem-867</linkclipref>
							<mediatype>video</mediatype>
							<trackindex>1</trackindex>
							<clipindex>303</clipindex>
						</link>
						<link>
							<linkclipref>clipitem-1285</linkclipref>
							<mediatype>audio</mediatype>
							<trackindex>1</trackindex>
							<clipindex>150</clipindex>
						</link>
						<logginginfo>
							<description></description>
							<scene></scene>
							<shottake>AA0045</shottake>
							<lognote></lognote>
						</logginginfo>
						<labels>
							<label2>Iris</label2>
						</labels>
					</clipitem>
					<clipitem id="clipitem-1286" frameBlend="FALSE">
						<masterclipid>masterclip-214</masterclipid>
						<name>AA004601.MXF</name>
						<enabled>TRUE</enabled>
						<duration>32868</duration>
						<rate>
							<timebase>25</timebase>
							<ntsc>FALSE</ntsc>
						</rate>
						<start>34348</start>
						<end>34499</end>
						<in>26984</in>
						<out>27135</out>
						<file id="file-191"/>
						<sourcetrack>
							<mediatype>audio</mediatype>
							<trackindex>1</trackindex>
						</sourcetrack>
							<marker>
								<comment>at det p plukke ut fartsovertredelser ikke er ok</comment>
								<name>syns selv </name>
								<in>2063</in>
								<out>-1</out>
							</marker>
							<marker>
								<comment>at du er i ferd med ￃﾥ gjￃﾸre noe dumt</comment>
								<name>din egen bil varsler</name>
								<in>13450</in>
								<out>-1</out>
							</marker>
							<marker>
								<comment></comment>
								<name>krysset advarer biler</name>
								<in>3254</in>
								<out>-1</out>
							</marker>
							<marker>
								<comment>vil sende ut til andre, men ikke politiet</comment>
								<name>bile noppdager fare</name>
								<in>25728</in>
								<out>-1</out>
							</marker>
							<marker>
								<comment>men hva sikkerhetsmyndigheten hjￃﾸr vet ingen</comment>
								<name>systemet tillater ikke</name>
								<in>31411</in>
								<out>-1</out>
							</marker>
							<marker>
								<comment>om ￃﾥ lagre i bilen</comment>
								<name>kan bli lovpￃﾥbud</name>
								<in>27311</in>
								<out>-1</out>
							</marker>
							<marker>
								<comment>men ikke individnivￃﾥ</comment>
								<name>analyser</name>
								<in>12162</in>
								<out>-1</out>
							</marker>
							<marker>
								<comment>bryter ikke personvern</comment>
								<name>data kommersiell verdi</name>
								<in>11384</in>
								<out>-1</out>
							</marker>
							<marker>
								<comment>langtids kan bare ￃﾥpnes ved veldig god grunn</comment>
								<name>ser ikke noe fare</name>
								<in>20254</in>
								<out>-1</out>
							</marker>
							<marker>
								<comment>lagrer aldri noen ting</comment>
								<name>bare synsrekkefￃﾸlge</name>
								<in>27067</in>
								<out>-1</out>
							</marker>
							<marker>
								<comment>enn bilskilt</comment>
								<name>anonymiserer mer</name>
								<in>9955</in>
								<out>-1</out>
							</marker>
							<marker>
								<comment></comment>
								<name>alle lovbrudd lagret?</name>
								<in>26603</in>
								<out>-1</out>
							</marker>
							<marker>
								<comment>10 ganger i sekunder hva du gjￃﾸr </comment>
								<name>anonymisert melding</name>
								<in>25110</in>
								<out>-1</out>
							</marker>
							<marker>
								<comment>i motsetning til bilskilt</comment>
								<name>mￃﾥ ha rettskjennelse</name>
								<in>10515</in>
								<out>-1</out>
							</marker>
							<marker>
								<comment>bare alvorlige lvobruddhￃﾥper jeg</comment>
								<name>hￃﾥper alvorlig</name>
								<in>1274</in>
								<out>-1</out>
							</marker>
							<marker>
								<comment></comment>
								<name>den vi lneppe overstyre deg</name>
								<in>13992</in>
								<out>-1</out>
							</marker>
							<marker>
								<comment></comment>
								<name>ka naldri fￃﾸlge en bil</name>
								<in>18235</in>
								<out>-1</out>
							</marker>
							<marker>
								<comment>allerede i dag</comment>
								<name>bilen er angiver</name>
								<in>9071</in>
								<out>-1</out>
							</marker>
							<marker>
								<comment>kjￃﾸreretning</comment>
								<name>beklager jeg kjￃﾸrer i feil</name>
								<in>26376</in>
								<out>-1</out>
							</marker>
							<marker>
								<comment>vu har brukt veldig mye tid pￃﾥ det</comment>
								<name>unngￃﾥ ￃﾥ fￃﾸlge individer</name>
								<in>23348</in>
								<out>-1</out>
							</marker>
							<marker>
								<comment>hiver pￃﾥ bremser</comment>
								<name> </name>
								<in>14850</in>
								<out>-1</out>
							</marker>
							<marker>
								<comment>ￃﾥ kjￃﾸre feil reting</comment>
								<name>bilen kan hindre </name>
								<in>7719</in>
								<out>-1</out>
							</marker>
							<marker>
								<comment>ￃﾥ hacke seg inn, sett det med NSA</comment>
								<name>teknisk mulig </name>
								<in>30696</in>
								<out>-1</out>
							</marker>
							<marker>
								<comment>fￃﾥr vigte om meg?</comment>
								<name>hvor mye andre biler</name>
								<in>17367</in>
								<out>-1</out>
							</marker>
						<link>
							<linkclipref>clipitem-868</linkclipref>
							<mediatype>video</mediatype>
							<trackindex>1</trackindex>
							<clipindex>304</clipindex>
						</link>
						<link>
							<linkclipref>clipitem-1286</linkclipref>
							<mediatype>audio</mediatype>
							<trackindex>1</trackindex>
							<clipindex>151</clipindex>
						</link>
						<logginginfo>
							<description></description>
							<scene></scene>
							<shottake>AA0046</shottake>
							<lognote></lognote>
						</logginginfo>
						<labels>
							<label2>Iris</label2>
						</labels>
					</clipitem>
					<clipitem id="clipitem-1287" frameBlend="FALSE">
						<masterclipid>masterclip-212</masterclipid>
						<name>AA004501.MXF</name>
						<enabled>TRUE</enabled>
						<duration>9324</duration>
						<rate>
							<timebase>25</timebase>
							<ntsc>FALSE</ntsc>
						</rate>
						<start>34499</start>
						<end>34629</end>
						<in>841</in>
						<out>971</out>
						<file id="file-189"/>
						<sourcetrack>
							<mediatype>audio</mediatype>
							<trackindex>1</trackindex>
						</sourcetrack>
							<marker>
								<comment>har absolutt en identitet, dessverre</comment>
								<name>smartelefoner </name>
								<in>8575</in>
								<out>-1</out>
							</marker>
							<marker>
								<comment>gir ingen identitet fra seg</comment>
								<name>anonymt</name>
								<in>303</in>
								<out>-1</out>
							</marker>
							<marker>
								<comment>overvￃﾥke ruta du kjￃﾸrer</comment>
								<name>blir det press?</name>
								<in>5009</in>
								<out>-1</out>
							</marker>
							<marker>
								<comment>hvis du ikke selv vil</comment>
								<name>kan unngￃﾥ</name>
								<in>6481</in>
								<out>-1</out>
							</marker>
							<marker>
								<comment>med bilde og det hele</comment>
								<name>gￃﾥr melding til polti</name>
								<in>2515</in>
								<out>-1</out>
							</marker>
							<marker>
								<comment>men du vil jo ogsￃﾥ planlegge og lage flyt</comment>
								<name>du vil ha personvern</name>
								<in>7472</in>
								<out>-1</out>
							</marker>
							<marker>
								<comment>gpr ikke ned pￃﾥ indivinivￃﾥ med big data</comment>
								<name>big data ikke pￃﾥ invdivd</name>
								<in>7737</in>
								<out>-1</out>
							</marker>
							<marker>
								<comment>langtidsidentiten din kan bare ￃﾥpnes med en rettsordre</comment>
								<name>rettsordre</name>
								<in>984</in>
								<out>-1</out>
							</marker>
							<marker>
								<comment>bilen blir identifisert</comment>
								<name>kjￃﾸre pￃﾥ rￃﾸdt</name>
								<in>2231</in>
								<out>-1</out>
							</marker>
						<link>
							<linkclipref>clipitem-869</linkclipref>
							<mediatype>video</mediatype>
							<trackindex>1</trackindex>
							<clipindex>305</clipindex>
						</link>
						<link>
							<linkclipref>clipitem-1287</linkclipref>
							<mediatype>audio</mediatype>
							<trackindex>1</trackindex>
							<clipindex>152</clipindex>
						</link>
						<logginginfo>
							<description></description>
							<scene></scene>
							<shottake>AA0045</shottake>
							<lognote></lognote>
						</logginginfo>
						<labels>
							<label2>Iris</label2>
						</labels>
					</clipitem>
					<clipitem id="clipitem-1288" frameBlend="FALSE">
						<masterclipid>masterclip-224</masterclipid>
						<name>AA007701.MXFMulticam</name>
						<enabled>TRUE</enabled>
						<duration>14442</duration>
						<rate>
							<timebase>25</timebase>
							<ntsc>FALSE</ntsc>
						</rate>
						<start>34939</start>
						<end>35071</end>
						<in>13079</in>
						<out>13211</out>
						<sequence id="sequence-127" TL.SQAudioVisibleBase="0" TL.SQVideoVisibleBase="0" TL.SQVisibleBaseTime="0" TL.SQAVDividerPosition="0.5" TL.SQHideShyTracks="0" TL.SQHeaderWidth="188" Monitor.ProgramZoomOut="25401600000000" Monitor.ProgramZoomIn="0" TL.SQTimePerPixel="0.20000000000000001110223024625" AM.TrackVScrollPosition="0" AM.TrackScrollPosition="0" MZ.EditLine="254016000000" MZ.Sequence.PreviewFrameSizeHeight="1080" MZ.Sequence.PreviewFrameSizeWidth="1920" MZ.Sequence.AudioTimeDisplayFormat="200" MZ.Sequence.PreviewRenderingClassID="1297106761" MZ.Sequence.PreviewRenderingPresetCodec="1297107278" MZ.Sequence.PreviewRenderingPresetPath="EncoderPresets/SequencePreview/795454d9-d3c2-429d-9474-923ab13b7018/I-Frame Only MPEG.epr" MZ.Sequence.PreviewUseMaxRenderQuality="false" MZ.Sequence.PreviewUseMaxBitDepth="false" MZ.Sequence.EditingModeGUID="795454d9-d3c2-429d-9474-923ab13b7018" MZ.Sequence.VideoTimeDisplayFormat="101" MZ.WorkOutPoint="15240960000000" MZ.WorkInPoint="0">
							<duration>10814</duration>
							<rate>
								<timebase>25</timebase>
								<ntsc>FALSE</ntsc>
							</rate>
							<name>AA007701.MXFMulticam</name>
							<media>
								<video>
									<format>
										<samplecharacteristics>
											<rate>
												<timebase>25</timebase>
												<ntsc>FALSE</ntsc>
											</rate>
											<codec>
												<name>Apple ProRes 422</name>
												<appspecificdata>
													<appname>Final Cut Pro</appname>
													<appmanufacturer>Apple Inc.</appmanufacturer>
													<appversion>7.0</appversion>
													<data>
														<qtcodec>
															<codecname>Apple ProRes 422</codecname>
															<codectypename>Apple ProRes 422</codectypename>
															<codectypecode>apcn</codectypecode>
															<codecvendorcode>appl</codecvendorcode>
															<spatialquality>1024</spatialquality>
															<temporalquality>0</temporalquality>
															<keyframerate>0</keyframerate>
															<datarate>0</datarate>
														</qtcodec>
													</data>
												</appspecificdata>
											</codec>
											<width>1920</width>
											<height>1080</height>
											<anamorphic>FALSE</anamorphic>
											<pixelaspectratio>square</pixelaspectratio>
											<fielddominance>upper</fielddominance>
											<colordepth>24</colordepth>
										</samplecharacteristics>
									</format>
									<track TL.SQTrackShy="0" TL.SQTrackExpandedHeight="50" TL.SQTrackExpanded="1" MZ.TrackTargeted="0">
										<clipitem id="clipitem-1289" frameBlend="FALSE">
											<masterclipid>masterclip-225</masterclipid>
											<name>AA007701.MXF</name>
											<enabled>TRUE</enabled>
											<duration>10044</duration>
											<rate>
												<timebase>25</timebase>
												<ntsc>FALSE</ntsc>
											</rate>
											<start>770</start>
											<end>10814</end>
											<in>0</in>
											<out>10044</out>
											<alphatype>none</alphatype>
											<file id="file-201"/>
											<link>
												<linkclipref>clipitem-1289</linkclipref>
												<mediatype>video</mediatype>
												<trackindex>1</trackindex>
												<clipindex>1</clipindex>
											</link>
											<link>
												<linkclipref>clipitem-1293</linkclipref>
												<mediatype>audio</mediatype>
												<trackindex>1</trackindex>
												<clipindex>1</clipindex>
												<groupindex>1</groupindex>
											</link>
											<logginginfo>
												<description></description>
												<scene></scene>
												<shottake>AA0077</shottake>
												<lognote></lognote>
											</logginginfo>
											<labels>
												<label2>Mango</label2>
											</labels>
										</clipitem>
										<enabled>TRUE</enabled>
										<locked>FALSE</locked>
									</track>
									<track TL.SQTrackShy="0" TL.SQTrackExpandedHeight="25" TL.SQTrackExpanded="0" MZ.TrackTargeted="0">
										<clipitem id="clipitem-1290" frameBlend="FALSE">
											<masterclipid>masterclip-226</masterclipid>
											<name>AA007801.MXF</name>
											<enabled>TRUE</enabled>
											<duration>3360</duration>
											<rate>
												<timebase>25</timebase>
												<ntsc>FALSE</ntsc>
											</rate>
											<start>11082</start>
											<end>14442</end>
											<in>0</in>
											<out>3360</out>
											<alphatype>none</alphatype>
											<file id="file-202"/>
											<link>
												<linkclipref>clipitem-1290</linkclipref>
												<mediatype>video</mediatype>
												<trackindex>2</trackindex>
												<clipindex>1</clipindex>
											</link>
											<link>
												<linkclipref>clipitem-1294</linkclipref>
												<mediatype>audio</mediatype>
												<trackindex>4</trackindex>
												<clipindex>1</clipindex>
												<groupindex>1</groupindex>
											</link>
											<logginginfo>
												<description></description>
												<scene></scene>
												<shottake>AA0078</shottake>
												<lognote></lognote>
											</logginginfo>
											<labels>
												<label2>Mango</label2>
											</labels>
										</clipitem>
										<enabled>TRUE</enabled>
										<locked>FALSE</locked>
									</track>
									<track TL.SQTrackShy="0" TL.SQTrackExpandedHeight="25" TL.SQTrackExpanded="0" MZ.TrackTargeted="0">
										<clipitem id="clipitem-1291" frameBlend="FALSE">
											<masterclipid>masterclip-227</masterclipid>
											<name>MVI_0174.MOV</name>
											<enabled>TRUE</enabled>
											<duration>7642</duration>
											<rate>
												<timebase>25</timebase>
												<ntsc>FALSE</ntsc>
											</rate>
											<start>0</start>
											<end>7642</end>
											<in>0</in>
											<out>7642</out>
											<alphatype>black</alphatype>
											<file id="file-203"/>
											<link>
												<linkclipref>clipitem-1291</linkclipref>
												<mediatype>video</mediatype>
												<trackindex>3</trackindex>
												<clipindex>1</clipindex>
											</link>
											<link>
												<linkclipref>clipitem-1295</linkclipref>
												<mediatype>audio</mediatype>
												<trackindex>7</trackindex>
												<clipindex>1</clipindex>
												<groupindex>1</groupindex>
											</link>
											<link>
												<linkclipref>clipitem-1296</linkclipref>
												<mediatype>audio</mediatype>
												<trackindex>8</trackindex>
												<clipindex>1</clipindex>
												<groupindex>1</groupindex>
											</link>
											<logginginfo>
												<description></description>
												<scene></scene>
												<shottake></shottake>
												<lognote></lognote>
											</logginginfo>
											<labels>
												<label2>Mango</label2>
											</labels>
										</clipitem>
										<enabled>TRUE</enabled>
										<locked>FALSE</locked>
									</track>
									<track TL.SQTrackShy="0" TL.SQTrackExpandedHeight="25" TL.SQTrackExpanded="0" MZ.TrackTargeted="0">
										<clipitem id="clipitem-1292" frameBlend="FALSE">
											<masterclipid>masterclip-228</masterclipid>
											<name>MVI_0176.MOV</name>
											<enabled>TRUE</enabled>
											<duration>6273</duration>
											<rate>
												<timebase>25</timebase>
												<ntsc>FALSE</ntsc>
											</rate>
											<start>8216</start>
											<end>14162</end>
											<in>67</in>
											<out>6013</out>
											<alphatype>black</alphatype>
											<file id="file-204"/>
											<link>
												<linkclipref>clipitem-1292</linkclipref>
												<mediatype>video</mediatype>
												<trackindex>4</trackindex>
												<clipindex>1</clipindex>
											</link>
											<link>
												<linkclipref>clipitem-1297</linkclipref>
												<mediatype>audio</mediatype>
												<trackindex>9</trackindex>
												<clipindex>1</clipindex>
												<groupindex>1</groupindex>
											</link>
											<link>
												<linkclipref>clipitem-1298</linkclipref>
												<mediatype>audio</mediatype>
												<trackindex>10</trackindex>
												<clipindex>1</clipindex>
												<groupindex>1</groupindex>
											</link>
											<logginginfo>
												<description></description>
												<scene></scene>
												<shottake></shottake>
												<lognote></lognote>
											</logginginfo>
											<labels>
												<label2>Mango</label2>
											</labels>
										</clipitem>
										<enabled>TRUE</enabled>
										<locked>FALSE</locked>
									</track>
								</video>
								<audio>
									<format>
										<samplecharacteristics>
											<depth>16</depth>
											<samplerate>48000</samplerate>
										</samplecharacteristics>
									</format>
									<outputs>
										<group>
											<index>1</index>
											<numchannels>1</numchannels>
											<downmix>0</downmix>
											<channel>
												<index>1</index>
											</channel>
										</group>
										<group>
											<index>2</index>
											<numchannels>1</numchannels>
											<downmix>0</downmix>
											<channel>
												<index>2</index>
											</channel>
										</group>
										<group>
											<index>3</index>
											<numchannels>1</numchannels>
											<downmix>0</downmix>
											<channel>
												<index>3</index>
											</channel>
										</group>
										<group>
											<index>4</index>
											<numchannels>1</numchannels>
											<downmix>0</downmix>
											<channel>
												<index>4</index>
											</channel>
										</group>
										<group>
											<index>5</index>
											<numchannels>1</numchannels>
											<downmix>0</downmix>
											<channel>
												<index>5</index>
											</channel>
										</group>
										<group>
											<index>6</index>
											<numchannels>1</numchannels>
											<downmix>0</downmix>
											<channel>
												<index>6</index>
											</channel>
										</group>
										<group>
											<index>7</index>
											<numchannels>1</numchannels>
											<downmix>0</downmix>
											<channel>
												<index>7</index>
											</channel>
										</group>
										<group>
											<index>8</index>
											<numchannels>1</numchannels>
											<downmix>0</downmix>
											<channel>
												<index>8</index>
											</channel>
										</group>
									</outputs>
									<track TL.SQTrackAudioKeyframeStyle="0" TL.SQTrackShy="0" TL.SQTrackExpandedHeight="25" TL.SQTrackExpanded="0" MZ.TrackTargeted="1" PannerCurrentValue="0" PannerIsInverted="true" PannerStartKeyframe="-91445760000000000,0.,0,0,0,0,0,0" PannerName="Balance" currentExplodedTrackIndex="0" totalExplodedTrackCount="1" premiereTrackType="Stereo">
										<clipitem id="clipitem-1293" frameBlend="FALSE" PannerCurrentValue="0.5" PannerKeyframes="" PannerStartKeyframe="-91445760000000000,0.5,0,0,0,0,0,0" PannerIsInverted="true" PannerName="Pan">
											<masterclipid>masterclip-225</masterclipid>
											<name>AA007701.MXF</name>
											<enabled>TRUE</enabled>
											<duration>10044</duration>
											<rate>
												<timebase>25</timebase>
												<ntsc>FALSE</ntsc>
											</rate>
											<start>770</start>
											<end>10814</end>
											<in>0</in>
											<out>10044</out>
											<file id="file-201"/>
											<sourcetrack>
												<mediatype>audio</mediatype>
												<trackindex>1</trackindex>
											</sourcetrack>
												<filter>
													<effect>
														<name>Audio Pan</name>
														<effectid>audiopan</effectid>
														<effectcategory>audiopan</effectcategory>
														<effecttype>audiopan</effecttype>
														<mediatype>audio</mediatype>
														<parameter authoringApp="PremierePro">
															<parameterid>pan</parameterid>
															<name>Pan</name>
															<valuemin>-1</valuemin>
															<valuemax>1</valuemax>
															<value>0</value>
														</parameter>
													</effect>
												</filter>
											<link>
												<linkclipref>clipitem-1289</linkclipref>
												<mediatype>video</mediatype>
												<trackindex>1</trackindex>
												<clipindex>1</clipindex>
											</link>
											<link>
												<linkclipref>clipitem-1293</linkclipref>
												<mediatype>audio</mediatype>
												<trackindex>1</trackindex>
												<clipindex>1</clipindex>
												<groupindex>1</groupindex>
											</link>
											<logginginfo>
												<description></description>
												<scene></scene>
												<shottake>AA0077</shottake>
												<lognote></lognote>
											</logginginfo>
											<labels>
												<label2>Mango</label2>
											</labels>
										</clipitem>
										<enabled>TRUE</enabled>
										<locked>FALSE</locked>
										<outputchannelindex>1</outputchannelindex>
									</track>
									<track TL.SQTrackAudioKeyframeStyle="0" TL.SQTrackShy="0" TL.SQTrackExpandedHeight="25" TL.SQTrackExpanded="0" MZ.TrackTargeted="1" PannerCurrentValue="1." PannerIsInverted="true" PannerStartKeyframe="-91445760000000000,1.,0,0,0,0,0,0" PannerName="Balance" currentExplodedTrackIndex="0" totalExplodedTrackCount="2" premiereTrackType="Stereo">
										<enabled>TRUE</enabled>
										<locked>FALSE</locked>
										<outputchannelindex>2</outputchannelindex>
									</track>
									<track TL.SQTrackAudioKeyframeStyle="0" TL.SQTrackShy="0" TL.SQTrackExpandedHeight="25" TL.SQTrackExpanded="0" MZ.TrackTargeted="1" PannerCurrentValue="1." PannerIsInverted="true" PannerStartKeyframe="-91445760000000000,1.,0,0,0,0,0,0" PannerName="Balance" currentExplodedTrackIndex="1" totalExplodedTrackCount="2" premiereTrackType="Stereo">
										<enabled>TRUE</enabled>
										<locked>FALSE</locked>
										<outputchannelindex>2</outputchannelindex>
									</track>
									<track TL.SQTrackAudioKeyframeStyle="0" TL.SQTrackShy="0" TL.SQTrackExpandedHeight="25" TL.SQTrackExpanded="0" MZ.TrackTargeted="1" PannerCurrentValue="0" PannerIsInverted="true" PannerStartKeyframe="-91445760000000000,0.,0,0,0,0,0,0" PannerName="Balance" currentExplodedTrackIndex="0" totalExplodedTrackCount="1" premiereTrackType="Stereo">
										<clipitem id="clipitem-1294" frameBlend="FALSE" PannerCurrentValue="0.5" PannerKeyframes="" PannerStartKeyframe="-91445760000000000,0.5,0,0,0,0,0,0" PannerIsInverted="true" PannerName="Pan">
											<masterclipid>masterclip-226</masterclipid>
											<name>AA007801.MXF</name>
											<enabled>TRUE</enabled>
											<duration>3360</duration>
											<rate>
												<timebase>25</timebase>
												<ntsc>FALSE</ntsc>
											</rate>
											<start>11082</start>
											<end>14442</end>
											<in>0</in>
											<out>3360</out>
											<file id="file-202"/>
											<sourcetrack>
												<mediatype>audio</mediatype>
												<trackindex>1</trackindex>
											</sourcetrack>
												<filter>
													<effect>
														<name>Audio Pan</name>
														<effectid>audiopan</effectid>
														<effectcategory>audiopan</effectcategory>
														<effecttype>audiopan</effecttype>
														<mediatype>audio</mediatype>
														<parameter authoringApp="PremierePro">
															<parameterid>pan</parameterid>
															<name>Pan</name>
															<valuemin>-1</valuemin>
															<valuemax>1</valuemax>
															<value>0</value>
														</parameter>
													</effect>
												</filter>
											<link>
												<linkclipref>clipitem-1290</linkclipref>
												<mediatype>video</mediatype>
												<trackindex>2</trackindex>
												<clipindex>1</clipindex>
											</link>
											<link>
												<linkclipref>clipitem-1294</linkclipref>
												<mediatype>audio</mediatype>
												<trackindex>4</trackindex>
												<clipindex>1</clipindex>
												<groupindex>1</groupindex>
											</link>
											<logginginfo>
												<description></description>
												<scene></scene>
												<shottake>AA0078</shottake>
												<lognote></lognote>
											</logginginfo>
											<labels>
												<label2>Mango</label2>
											</labels>
										</clipitem>
										<enabled>TRUE</enabled>
										<locked>FALSE</locked>
										<outputchannelindex>3</outputchannelindex>
									</track>
									<track TL.SQTrackAudioKeyframeStyle="0" TL.SQTrackShy="0" TL.SQTrackExpandedHeight="25" TL.SQTrackExpanded="0" MZ.TrackTargeted="1" PannerCurrentValue="1." PannerIsInverted="true" PannerStartKeyframe="-91445760000000000,1.,0,0,0,0,0,0" PannerName="Balance" currentExplodedTrackIndex="0" totalExplodedTrackCount="2" premiereTrackType="Stereo">
										<enabled>TRUE</enabled>
										<locked>FALSE</locked>
										<outputchannelindex>3</outputchannelindex>
									</track>
									<track TL.SQTrackAudioKeyframeStyle="0" TL.SQTrackShy="0" TL.SQTrackExpandedHeight="25" TL.SQTrackExpanded="0" MZ.TrackTargeted="1" PannerCurrentValue="1." PannerIsInverted="true" PannerStartKeyframe="-91445760000000000,1.,0,0,0,0,0,0" PannerName="Balance" currentExplodedTrackIndex="1" totalExplodedTrackCount="2" premiereTrackType="Stereo">
										<enabled>TRUE</enabled>
										<locked>FALSE</locked>
										<outputchannelindex>4</outputchannelindex>
									</track>
									<track TL.SQTrackAudioKeyframeStyle="0" TL.SQTrackShy="0" TL.SQTrackExpandedHeight="25" TL.SQTrackExpanded="0" MZ.TrackTargeted="0" PannerCurrentValue="0" PannerIsInverted="true" PannerStartKeyframe="-91445760000000000,0.,0,0,0,0,0,0" PannerName="Balance" currentExplodedTrackIndex="0" totalExplodedTrackCount="1" premiereTrackType="Stereo">
										<clipitem id="clipitem-1295" frameBlend="FALSE" PannerCurrentValue="0.5" PannerKeyframes="" PannerStartKeyframe="-91445760000000000,0.5,0,0,0,0,0,0" PannerIsInverted="true" PannerName="Pan">
											<masterclipid>masterclip-227</masterclipid>
											<name>MVI_0174.MOV</name>
											<enabled>TRUE</enabled>
											<duration>7642</duration>
											<rate>
												<timebase>25</timebase>
												<ntsc>FALSE</ntsc>
											</rate>
											<start>0</start>
											<end>7642</end>
											<in>0</in>
											<out>7642</out>
											<file id="file-203"/>
											<sourcetrack>
												<mediatype>audio</mediatype>
												<trackindex>1</trackindex>
											</sourcetrack>
												<filter>
													<effect>
														<name>Audio Pan</name>
														<effectid>audiopan</effectid>
														<effectcategory>audiopan</effectcategory>
														<effecttype>audiopan</effecttype>
														<mediatype>audio</mediatype>
														<parameter authoringApp="PremierePro">
															<parameterid>pan</parameterid>
															<name>Pan</name>
															<valuemin>-1</valuemin>
															<valuemax>1</valuemax>
															<value>0</value>
														</parameter>
													</effect>
												</filter>
											<link>
												<linkclipref>clipitem-1291</linkclipref>
												<mediatype>video</mediatype>
												<trackindex>3</trackindex>
												<clipindex>1</clipindex>
											</link>
											<link>
												<linkclipref>clipitem-1295</linkclipref>
												<mediatype>audio</mediatype>
												<trackindex>7</trackindex>
												<clipindex>1</clipindex>
												<groupindex>1</groupindex>
											</link>
											<link>
												<linkclipref>clipitem-1296</linkclipref>
												<mediatype>audio</mediatype>
												<trackindex>8</trackindex>
												<clipindex>1</clipindex>
												<groupindex>1</groupindex>
											</link>
											<logginginfo>
												<description></description>
												<scene></scene>
												<shottake></shottake>
												<lognote></lognote>
											</logginginfo>
											<labels>
												<label2>Mango</label2>
											</labels>
										</clipitem>
										<enabled>TRUE</enabled>
										<locked>FALSE</locked>
										<outputchannelindex>5</outputchannelindex>
									</track>
									<track TL.SQTrackAudioKeyframeStyle="0" TL.SQTrackShy="0" TL.SQTrackExpandedHeight="25" TL.SQTrackExpanded="0" MZ.TrackTargeted="0" PannerCurrentValue="1." PannerIsInverted="true" PannerStartKeyframe="-91445760000000000,1.,0,0,0,0,0,0" PannerName="Balance" currentExplodedTrackIndex="0" totalExplodedTrackCount="1" premiereTrackType="Stereo">
										<clipitem id="clipitem-1296" frameBlend="FALSE" PannerCurrentValue="0.5" PannerKeyframes="" PannerStartKeyframe="-91445760000000000,0.5,0,0,0,0,0,0" PannerIsInverted="true" PannerName="Pan">
											<masterclipid>masterclip-227</masterclipid>
											<name>MVI_0174.MOV</name>
											<enabled>TRUE</enabled>
											<duration>7642</duration>
											<rate>
												<timebase>25</timebase>
												<ntsc>FALSE</ntsc>
											</rate>
											<start>0</start>
											<end>7642</end>
											<in>0</in>
											<out>7642</out>
											<file id="file-203"/>
											<sourcetrack>
												<mediatype>audio</mediatype>
												<trackindex>2</trackindex>
											</sourcetrack>
												<filter>
													<effect>
														<name>Audio Pan</name>
														<effectid>audiopan</effectid>
														<effectcategory>audiopan</effectcategory>
														<effecttype>audiopan</effecttype>
														<mediatype>audio</mediatype>
														<parameter authoringApp="PremierePro">
															<parameterid>pan</parameterid>
															<name>Pan</name>
															<valuemin>-1</valuemin>
															<valuemax>1</valuemax>
															<value>0</value>
														</parameter>
													</effect>
												</filter>
											<link>
												<linkclipref>clipitem-1291</linkclipref>
												<mediatype>video</mediatype>
												<trackindex>3</trackindex>
												<clipindex>1</clipindex>
											</link>
											<link>
												<linkclipref>clipitem-1295</linkclipref>
												<mediatype>audio</mediatype>
												<trackindex>7</trackindex>
												<clipindex>1</clipindex>
												<groupindex>1</groupindex>
											</link>
											<link>
												<linkclipref>clipitem-1296</linkclipref>
												<mediatype>audio</mediatype>
												<trackindex>8</trackindex>
												<clipindex>1</clipindex>
												<groupindex>1</groupindex>
											</link>
											<logginginfo>
												<description></description>
												<scene></scene>
												<shottake></shottake>
												<lognote></lognote>
											</logginginfo>
											<labels>
												<label2>Mango</label2>
											</labels>
										</clipitem>
										<enabled>TRUE</enabled>
										<locked>FALSE</locked>
										<outputchannelindex>6</outputchannelindex>
									</track>
									<track TL.SQTrackAudioKeyframeStyle="0" TL.SQTrackShy="0" TL.SQTrackExpandedHeight="25" TL.SQTrackExpanded="0" MZ.TrackTargeted="0" PannerCurrentValue="0" PannerIsInverted="true" PannerStartKeyframe="-91445760000000000,0.,0,0,0,0,0,0" PannerName="Balance" currentExplodedTrackIndex="0" totalExplodedTrackCount="1" premiereTrackType="Stereo">
										<clipitem id="clipitem-1297" frameBlend="FALSE" PannerCurrentValue="0.5" PannerKeyframes="" PannerStartKeyframe="-91445760000000000,0.5,0,0,0,0,0,0" PannerIsInverted="true" PannerName="Pan">
											<masterclipid>masterclip-228</masterclipid>
											<name>MVI_0176.MOV</name>
											<enabled>TRUE</enabled>
											<duration>6273</duration>
											<rate>
												<timebase>25</timebase>
												<ntsc>FALSE</ntsc>
											</rate>
											<start>8216</start>
											<end>14162</end>
											<in>67</in>
											<out>6013</out>
											<file id="file-204"/>
											<sourcetrack>
												<mediatype>audio</mediatype>
												<trackindex>1</trackindex>
											</sourcetrack>
												<filter>
													<effect>
														<name>Audio Pan</name>
														<effectid>audiopan</effectid>
														<effectcategory>audiopan</effectcategory>
														<effecttype>audiopan</effecttype>
														<mediatype>audio</mediatype>
														<parameter authoringApp="PremierePro">
															<parameterid>pan</parameterid>
															<name>Pan</name>
															<valuemin>-1</valuemin>
															<valuemax>1</valuemax>
															<value>0</value>
														</parameter>
													</effect>
												</filter>
											<link>
												<linkclipref>clipitem-1292</linkclipref>
												<mediatype>video</mediatype>
												<trackindex>4</trackindex>
												<clipindex>1</clipindex>
											</link>
											<link>
												<linkclipref>clipitem-1297</linkclipref>
												<mediatype>audio</mediatype>
												<trackindex>9</trackindex>
												<clipindex>1</clipindex>
												<groupindex>1</groupindex>
											</link>
											<link>
												<linkclipref>clipitem-1298</linkclipref>
												<mediatype>audio</mediatype>
												<trackindex>10</trackindex>
												<clipindex>1</clipindex>
												<groupindex>1</groupindex>
											</link>
											<logginginfo>
												<description></description>
												<scene></scene>
												<shottake></shottake>
												<lognote></lognote>
											</logginginfo>
											<labels>
												<label2>Mango</label2>
											</labels>
										</clipitem>
										<enabled>TRUE</enabled>
										<locked>FALSE</locked>
										<outputchannelindex>7</outputchannelindex>
									</track>
									<track TL.SQTrackAudioKeyframeStyle="0" TL.SQTrackShy="0" TL.SQTrackExpandedHeight="25" TL.SQTrackExpanded="0" MZ.TrackTargeted="0" PannerCurrentValue="1." PannerIsInverted="true" PannerStartKeyframe="-91445760000000000,1.,0,0,0,0,0,0" PannerName="Balance" currentExplodedTrackIndex="0" totalExplodedTrackCount="1" premiereTrackType="Stereo">
										<clipitem id="clipitem-1298" frameBlend="FALSE" PannerCurrentValue="0.5" PannerKeyframes="" PannerStartKeyframe="-91445760000000000,0.5,0,0,0,0,0,0" PannerIsInverted="true" PannerName="Pan">
											<masterclipid>masterclip-228</masterclipid>
											<name>MVI_0176.MOV</name>
											<enabled>TRUE</enabled>
											<duration>6273</duration>
											<rate>
												<timebase>25</timebase>
												<ntsc>FALSE</ntsc>
											</rate>
											<start>8216</start>
											<end>14162</end>
											<in>67</in>
											<out>6013</out>
											<file id="file-204"/>
											<sourcetrack>
												<mediatype>audio</mediatype>
												<trackindex>2</trackindex>
											</sourcetrack>
												<filter>
													<effect>
														<name>Audio Pan</name>
														<effectid>audiopan</effectid>
														<effectcategory>audiopan</effectcategory>
														<effecttype>audiopan</effecttype>
														<mediatype>audio</mediatype>
														<parameter authoringApp="PremierePro">
															<parameterid>pan</parameterid>
															<name>Pan</name>
															<valuemin>-1</valuemin>
															<valuemax>1</valuemax>
															<value>0</value>
														</parameter>
													</effect>
												</filter>
											<link>
												<linkclipref>clipitem-1292</linkclipref>
												<mediatype>video</mediatype>
												<trackindex>4</trackindex>
												<clipindex>1</clipindex>
											</link>
											<link>
												<linkclipref>clipitem-1297</linkclipref>
												<mediatype>audio</mediatype>
												<trackindex>9</trackindex>
												<clipindex>1</clipindex>
												<groupindex>1</groupindex>
											</link>
											<link>
												<linkclipref>clipitem-1298</linkclipref>
												<mediatype>audio</mediatype>
												<trackindex>10</trackindex>
												<clipindex>1</clipindex>
												<groupindex>1</groupindex>
											</link>
											<logginginfo>
												<description></description>
												<scene></scene>
												<shottake></shottake>
												<lognote></lognote>
											</logginginfo>
											<labels>
												<label2>Mango</label2>
											</labels>
										</clipitem>
										<enabled>TRUE</enabled>
										<locked>FALSE</locked>
										<outputchannelindex>8</outputchannelindex>
									</track>
								</audio>
							</media>
							<timecode>
								<rate>
									<timebase>25</timebase>
									<ntsc>FALSE</ntsc>
								</rate>
								<string>00:00:00:00</string>
								<frame>0</frame>
								<displayformat>NDF</displayformat>
							</timecode>
						</sequence>
							<filter>
								<effect>
									<name>Audio Levels</name>
									<effectid>audiolevels</effectid>
									<effectcategory>audiolevels</effectcategory>
									<effecttype>audiolevels</effecttype>
									<mediatype>audio</mediatype>
									<parameter authoringApp="PremierePro">
										<parameterid>level</parameterid>
										<name>Level</name>
										<valuemin>0</valuemin>
										<valuemax>3.98109</valuemax>
										<value>1.77406</value>
									</parameter>
								</effect>
							</filter>
							<marker>
								<comment>2-3 ￃﾥr</comment>
								<name></name>
								<in>8844</in>
								<out>-1</out>
							</marker>
							<marker>
								<comment></comment>
								<name></name>
								<in>12730</in>
								<out>-1</out>
							</marker>
						<labels>
							<label2>Mango</label2>
						</labels>
					</clipitem>
					<clipitem id="clipitem-1299" frameBlend="FALSE">
						<masterclipid>masterclip-224</masterclipid>
						<name>AA007701.MXFMulticam</name>
						<enabled>TRUE</enabled>
						<duration>14442</duration>
						<rate>
							<timebase>25</timebase>
							<ntsc>FALSE</ntsc>
						</rate>
						<start>35071</start>
						<end>35126</end>
						<in>2367</in>
						<out>2422</out>
						<sequence id="sequence-127"/>
							<marker>
								<comment>2-3 ￃﾥr</comment>
								<name></name>
								<in>8844</in>
								<out>-1</out>
							</marker>
							<marker>
								<comment></comment>
								<name></name>
								<in>12730</in>
								<out>-1</out>
							</marker>
						<link>
							<linkclipref>clipitem-875</linkclipref>
							<mediatype>video</mediatype>
							<trackindex>1</trackindex>
							<clipindex>311</clipindex>
						</link>
						<link>
							<linkclipref>clipitem-1299</linkclipref>
							<mediatype>audio</mediatype>
							<trackindex>1</trackindex>
							<clipindex>154</clipindex>
						</link>
						<labels>
							<label2>Mango</label2>
						</labels>
					</clipitem>
					<clipitem id="clipitem-1300" frameBlend="FALSE">
						<masterclipid>masterclip-224</masterclipid>
						<name>AA007701.MXFMulticam</name>
						<enabled>TRUE</enabled>
						<duration>14442</duration>
						<rate>
							<timebase>25</timebase>
							<ntsc>FALSE</ntsc>
						</rate>
						<start>35126</start>
						<end>35242</end>
						<in>2426</in>
						<out>2542</out>
						<sequence id="sequence-127"/>
							<marker>
								<comment>2-3 ￃﾥr</comment>
								<name></name>
								<in>8844</in>
								<out>-1</out>
							</marker>
							<marker>
								<comment></comment>
								<name></name>
								<in>12730</in>
								<out>-1</out>
							</marker>
						<link>
							<linkclipref>clipitem-882</linkclipref>
							<mediatype>video</mediatype>
							<trackindex>1</trackindex>
							<clipindex>312</clipindex>
						</link>
						<link>
							<linkclipref>clipitem-1300</linkclipref>
							<mediatype>audio</mediatype>
							<trackindex>1</trackindex>
							<clipindex>155</clipindex>
						</link>
						<labels>
							<label2>Mango</label2>
						</labels>
					</clipitem>
					<clipitem id="clipitem-1301" frameBlend="FALSE">
						<masterclipid>masterclip-224</masterclipid>
						<name>AA007701.MXFMulticam</name>
						<enabled>TRUE</enabled>
						<duration>14442</duration>
						<rate>
							<timebase>25</timebase>
							<ntsc>FALSE</ntsc>
						</rate>
						<start>35242</start>
						<end>35469</end>
						<in>5509</in>
						<out>5736</out>
						<sequence id="sequence-127"/>
							<marker>
								<comment>2-3 ￃﾥr</comment>
								<name></name>
								<in>8844</in>
								<out>-1</out>
							</marker>
							<marker>
								<comment></comment>
								<name></name>
								<in>12730</in>
								<out>-1</out>
							</marker>
						<link>
							<linkclipref>clipitem-884</linkclipref>
							<mediatype>video</mediatype>
							<trackindex>1</trackindex>
							<clipindex>314</clipindex>
						</link>
						<link>
							<linkclipref>clipitem-1301</linkclipref>
							<mediatype>audio</mediatype>
							<trackindex>1</trackindex>
							<clipindex>156</clipindex>
						</link>
						<labels>
							<label2>Mango</label2>
						</labels>
					</clipitem>
					<clipitem id="clipitem-1302" frameBlend="FALSE">
						<masterclipid>masterclip-224</masterclipid>
						<name>AA007701.MXFMulticam</name>
						<enabled>TRUE</enabled>
						<duration>14442</duration>
						<rate>
							<timebase>25</timebase>
							<ntsc>FALSE</ntsc>
						</rate>
						<start>35469</start>
						<end>35689</end>
						<in>5799</in>
						<out>6019</out>
						<sequence id="sequence-127"/>
							<marker>
								<comment>2-3 ￃﾥr</comment>
								<name></name>
								<in>8844</in>
								<out>-1</out>
							</marker>
							<marker>
								<comment></comment>
								<name></name>
								<in>12730</in>
								<out>-1</out>
							</marker>
						<labels>
							<label2>Mango</label2>
						</labels>
					</clipitem>
					<clipitem id="clipitem-1303" frameBlend="FALSE">
						<masterclipid>masterclip-224</masterclipid>
						<name>AA007701.MXFMulticam</name>
						<enabled>TRUE</enabled>
						<duration>14442</duration>
						<rate>
							<timebase>25</timebase>
							<ntsc>FALSE</ntsc>
						</rate>
						<start>35689</start>
						<end>35852</end>
						<in>6039</in>
						<out>6202</out>
						<sequence id="sequence-127"/>
							<marker>
								<comment>2-3 ￃﾥr</comment>
								<name></name>
								<in>8844</in>
								<out>-1</out>
							</marker>
							<marker>
								<comment></comment>
								<name></name>
								<in>12730</in>
								<out>-1</out>
							</marker>
						<labels>
							<label2>Mango</label2>
						</labels>
					</clipitem>
					<clipitem id="clipitem-1304" frameBlend="FALSE">
						<masterclipid>masterclip-229</masterclipid>
						<name>Reaksjon_Thinfilm.MOV</name>
						<enabled>TRUE</enabled>
						<duration>865</duration>
						<rate>
							<timebase>25</timebase>
							<ntsc>FALSE</ntsc>
						</rate>
						<start>35852</start>
						<end>36472</end>
						<in>41</in>
						<out>661</out>
						<file id="file-205"/>
						<sourcetrack>
							<mediatype>audio</mediatype>
							<trackindex>1</trackindex>
						</sourcetrack>
							<marker>
								<comment>jeg godtar jo spor pￃﾥ internett sￃﾥ kommer sikkert til ￃﾥ godta det i det virkelige livet ogsￃﾥ</comment>
								<name></name>
								<in>425</in>
								<out>-1</out>
							</marker>
						<link>
							<linkclipref>clipitem-891</linkclipref>
							<mediatype>video</mediatype>
							<trackindex>1</trackindex>
							<clipindex>321</clipindex>
						</link>
						<link>
							<linkclipref>clipitem-1304</linkclipref>
							<mediatype>audio</mediatype>
							<trackindex>1</trackindex>
							<clipindex>159</clipindex>
						</link>
						<logginginfo>
							<description></description>
							<scene></scene>
							<shottake></shottake>
							<lognote></lognote>
						</logginginfo>
						<labels>
							<label2>Iris</label2>
						</labels>
					</clipitem>
					<clipitem id="clipitem-1305" frameBlend="FALSE">
						<masterclipid>masterclip-235</masterclipid>
						<name>AA037201.MXF</name>
						<enabled>TRUE</enabled>
						<duration>9048</duration>
						<rate>
							<timebase>25</timebase>
							<ntsc>FALSE</ntsc>
						</rate>
						<start>36627</start>
						<end>36989</end>
						<in>61</in>
						<out>423</out>
						<file id="file-210"/>
						<sourcetrack>
							<mediatype>audio</mediatype>
							<trackindex>1</trackindex>
						</sourcetrack>
							<filter>
								<effect>
									<name>Audio Levels</name>
									<effectid>audiolevels</effectid>
									<effectcategory>audiolevels</effectcategory>
									<effecttype>audiolevels</effecttype>
									<mediatype>audio</mediatype>
									<parameter authoringApp="PremierePro">
										<parameterid>level</parameterid>
										<name>Level</name>
										<valuemin>0</valuemin>
										<valuemax>3.98109</valuemax>
										<value>1.25594</value>
									</parameter>
								</effect>
							</filter>
						<link>
							<linkclipref>clipitem-1305</linkclipref>
							<mediatype>audio</mediatype>
							<trackindex>1</trackindex>
							<clipindex>160</clipindex>
						</link>
						<link>
							<linkclipref>clipitem-1466</linkclipref>
							<mediatype>audio</mediatype>
							<trackindex>3</trackindex>
							<clipindex>114</clipindex>
						</link>
						<logginginfo>
							<description></description>
							<scene></scene>
							<shottake>AA0372</shottake>
							<lognote></lognote>
						</logginginfo>
						<labels>
							<label2>Iris</label2>
						</labels>
					</clipitem>
					<clipitem id="clipitem-1306" frameBlend="FALSE">
						<masterclipid>masterclip-235</masterclipid>
						<name>AA037201.MXF</name>
						<enabled>TRUE</enabled>
						<duration>9048</duration>
						<rate>
							<timebase>25</timebase>
							<ntsc>FALSE</ntsc>
						</rate>
						<start>36989</start>
						<end>37549</end>
						<in>1641</in>
						<out>2201</out>
						<file id="file-210"/>
						<sourcetrack>
							<mediatype>audio</mediatype>
							<trackindex>1</trackindex>
						</sourcetrack>
						<link>
							<linkclipref>clipitem-1306</linkclipref>
							<mediatype>audio</mediatype>
							<trackindex>1</trackindex>
							<clipindex>161</clipindex>
						</link>
						<link>
							<linkclipref>clipitem-1467</linkclipref>
							<mediatype>audio</mediatype>
							<trackindex>3</trackindex>
							<clipindex>115</clipindex>
						</link>
						<logginginfo>
							<description></description>
							<scene></scene>
							<shottake>AA0372</shottake>
							<lognote></lognote>
						</logginginfo>
						<labels>
							<label2>Iris</label2>
						</labels>
					</clipitem>
					<clipitem id="clipitem-1307" frameBlend="FALSE">
						<masterclipid>masterclip-236</masterclipid>
						<name>MVI_0379.MOVIBMulti</name>
						<enabled>TRUE</enabled>
						<duration>11962</duration>
						<rate>
							<timebase>25</timebase>
							<ntsc>FALSE</ntsc>
						</rate>
						<start>37549</start>
						<end>37584</end>
						<in>876</in>
						<out>911</out>
						<sequence id="sequence-128" TL.SQAudioVisibleBase="67" TL.SQVideoVisibleBase="0" TL.SQVisibleBaseTime="0" TL.SQAVDividerPosition="0.5" TL.SQHideShyTracks="0" TL.SQHeaderWidth="188" Monitor.ProgramZoomOut="121541575680000" Monitor.ProgramZoomIn="0" TL.SQTimePerPixel="0.4311138415926109024312040674" AM.TrackVScrollPosition="0" AM.TrackScrollPosition="0" MZ.EditLine="49522959360000" MZ.Sequence.PreviewFrameSizeHeight="1080" MZ.Sequence.PreviewFrameSizeWidth="1920" MZ.Sequence.AudioTimeDisplayFormat="200" MZ.Sequence.PreviewRenderingClassID="1297630752" MZ.Sequence.PreviewRenderingPresetCodec="7" MZ.Sequence.PreviewRenderingPresetPath="EncoderPresets/SequencePreview/b39d0224-c728-4ee7-9886-ccf837b5247f/DNX 120 1080p 25.epr" MZ.Sequence.PreviewUseMaxRenderQuality="false" MZ.Sequence.PreviewUseMaxBitDepth="false" MZ.Sequence.EditingModeGUID="b39d0224-c728-4ee7-9886-ccf837b5247f" MZ.Sequence.VideoTimeDisplayFormat="101" MZ.WorkOutPoint="15240960000000" MZ.WorkInPoint="0">
							<duration>11864</duration>
							<rate>
								<timebase>25</timebase>
								<ntsc>FALSE</ntsc>
							</rate>
							<name>MVI_0379.MOVIBMulti</name>
							<media>
								<video>
									<format>
										<samplecharacteristics>
											<rate>
												<timebase>25</timebase>
												<ntsc>FALSE</ntsc>
											</rate>
											<codec>
												<name>Apple ProRes 422</name>
												<appspecificdata>
													<appname>Final Cut Pro</appname>
													<appmanufacturer>Apple Inc.</appmanufacturer>
													<appversion>7.0</appversion>
													<data>
														<qtcodec>
															<codecname>Apple ProRes 422</codecname>
															<codectypename>Apple ProRes 422</codectypename>
															<codectypecode>apcn</codectypecode>
															<codecvendorcode>appl</codecvendorcode>
															<spatialquality>1024</spatialquality>
															<temporalquality>0</temporalquality>
															<keyframerate>0</keyframerate>
															<datarate>0</datarate>
														</qtcodec>
													</data>
												</appspecificdata>
											</codec>
											<width>1920</width>
											<height>1080</height>
											<anamorphic>FALSE</anamorphic>
											<pixelaspectratio>square</pixelaspectratio>
											<fielddominance>none</fielddominance>
											<colordepth>24</colordepth>
										</samplecharacteristics>
									</format>
									<track TL.SQTrackShy="0" TL.SQTrackExpandedHeight="50" TL.SQTrackExpanded="1" MZ.TrackTargeted="1">
										<clipitem id="clipitem-1308" frameBlend="FALSE">
											<masterclipid>masterclip-237</masterclipid>
											<name>MVI_0379.MOV</name>
											<enabled>TRUE</enabled>
											<duration>11864</duration>
											<rate>
												<timebase>25</timebase>
												<ntsc>FALSE</ntsc>
											</rate>
											<start>0</start>
											<end>11864</end>
											<in>0</in>
											<out>11864</out>
											<alphatype>black</alphatype>
											<file id="file-211"/>
											<logginginfo>
												<description></description>
												<scene></scene>
												<shottake></shottake>
												<lognote></lognote>
											</logginginfo>
											<labels>
												<label2>Iris</label2>
											</labels>
										</clipitem>
										<enabled>TRUE</enabled>
										<locked>FALSE</locked>
									</track>
									<track TL.SQTrackShy="0" TL.SQTrackExpandedHeight="25" TL.SQTrackExpanded="0" MZ.TrackTargeted="1">
										<clipitem id="clipitem-1309" frameBlend="FALSE">
											<masterclipid>masterclip-238</masterclipid>
											<name>AA036701.MXF</name>
											<enabled>TRUE</enabled>
											<duration>4740</duration>
											<rate>
												<timebase>25</timebase>
												<ntsc>FALSE</ntsc>
											</rate>
											<start>0</start>
											<end>4615</end>
											<in>125</in>
											<out>4740</out>
											<alphatype>none</alphatype>
											<file id="file-212"/>
											<logginginfo>
												<description></description>
												<scene></scene>
												<shottake>AA0367</shottake>
												<lognote></lognote>
											</logginginfo>
											<labels>
												<label2>Iris</label2>
											</labels>
										</clipitem>
										<enabled>TRUE</enabled>
										<locked>FALSE</locked>
									</track>
									<track TL.SQTrackShy="0" TL.SQTrackExpandedHeight="25" TL.SQTrackExpanded="0" MZ.TrackTargeted="1">
										<clipitem id="clipitem-1310" frameBlend="FALSE">
											<masterclipid>masterclip-239</masterclipid>
											<name>AA036801.MXF</name>
											<enabled>TRUE</enabled>
											<duration>7176</duration>
											<rate>
												<timebase>25</timebase>
												<ntsc>FALSE</ntsc>
											</rate>
											<start>4786</start>
											<end>11962</end>
											<in>0</in>
											<out>7176</out>
											<alphatype>none</alphatype>
											<file id="file-213"/>
											<logginginfo>
												<description></description>
												<scene></scene>
												<shottake>AA0368</shottake>
												<lognote></lognote>
											</logginginfo>
											<labels>
												<label2>Iris</label2>
											</labels>
										</clipitem>
										<enabled>TRUE</enabled>
										<locked>FALSE</locked>
									</track>
								</video>
								<audio>
									<format>
										<samplecharacteristics>
											<depth>16</depth>
											<samplerate>48000</samplerate>
										</samplecharacteristics>
									</format>
									<outputs>
										<group>
											<index>1</index>
											<numchannels>1</numchannels>
											<downmix>0</downmix>
											<channel>
												<index>1</index>
											</channel>
										</group>
										<group>
											<index>2</index>
											<numchannels>1</numchannels>
											<downmix>0</downmix>
											<channel>
												<index>2</index>
											</channel>
										</group>
										<group>
											<index>3</index>
											<numchannels>1</numchannels>
											<downmix>0</downmix>
											<channel>
												<index>3</index>
											</channel>
										</group>
										<group>
											<index>4</index>
											<numchannels>1</numchannels>
											<downmix>0</downmix>
											<channel>
												<index>4</index>
											</channel>
										</group>
										<group>
											<index>5</index>
											<numchannels>1</numchannels>
											<downmix>0</downmix>
											<channel>
												<index>5</index>
											</channel>
										</group>
										<group>
											<index>6</index>
											<numchannels>1</numchannels>
											<downmix>0</downmix>
											<channel>
												<index>6</index>
											</channel>
										</group>
									</outputs>
									<track TL.SQTrackAudioKeyframeStyle="0" TL.SQTrackShy="0" TL.SQTrackExpandedHeight="67" TL.SQTrackExpanded="1" MZ.TrackTargeted="1" PannerCurrentValue="0" PannerIsInverted="true" PannerStartKeyframe="-91445760000000000,0.,0,0,0,0,0,0" PannerName="Balance" currentExplodedTrackIndex="0" totalExplodedTrackCount="1" premiereTrackType="Stereo">
										<clipitem id="clipitem-1311" frameBlend="FALSE" PannerCurrentValue="0.5" PannerKeyframes="" PannerStartKeyframe="-91445760000000000,0.5,0,0,0,0,0,0" PannerIsInverted="true" PannerName="Pan">
											<masterclipid>masterclip-237</masterclipid>
											<name>MVI_0379.MOV</name>
											<enabled>TRUE</enabled>
											<duration>11864</duration>
											<rate>
												<timebase>25</timebase>
												<ntsc>FALSE</ntsc>
											</rate>
											<start>0</start>
											<end>11864</end>
											<in>0</in>
											<out>11864</out>
											<file id="file-211"/>
											<sourcetrack>
												<mediatype>audio</mediatype>
												<trackindex>1</trackindex>
											</sourcetrack>
												<filter>
													<effect>
														<name>Audio Pan</name>
														<effectid>audiopan</effectid>
														<effectcategory>audiopan</effectcategory>
														<effecttype>audiopan</effecttype>
														<mediatype>audio</mediatype>
														<parameter authoringApp="PremierePro">
															<parameterid>pan</parameterid>
															<name>Pan</name>
															<valuemin>-1</valuemin>
															<valuemax>1</valuemax>
															<value>0</value>
														</parameter>
													</effect>
												</filter>
											<link>
												<linkclipref>clipitem-1311</linkclipref>
												<mediatype>audio</mediatype>
												<trackindex>1</trackindex>
												<clipindex>1</clipindex>
												<groupindex>1</groupindex>
											</link>
											<link>
												<linkclipref>clipitem-1312</linkclipref>
												<mediatype>audio</mediatype>
												<trackindex>2</trackindex>
												<clipindex>1</clipindex>
												<groupindex>1</groupindex>
											</link>
											<logginginfo>
												<description></description>
												<scene></scene>
												<shottake></shottake>
												<lognote></lognote>
											</logginginfo>
											<labels>
												<label2>Iris</label2>
											</labels>
										</clipitem>
										<enabled>TRUE</enabled>
										<locked>FALSE</locked>
										<outputchannelindex>1</outputchannelindex>
									</track>
									<track TL.SQTrackAudioKeyframeStyle="0" TL.SQTrackShy="0" TL.SQTrackExpandedHeight="63" TL.SQTrackExpanded="1" MZ.TrackTargeted="1" PannerCurrentValue="1." PannerIsInverted="true" PannerStartKeyframe="-91445760000000000,1.,0,0,0,0,0,0" PannerName="Balance" currentExplodedTrackIndex="0" totalExplodedTrackCount="1" premiereTrackType="Stereo">
										<clipitem id="clipitem-1312" frameBlend="FALSE" PannerCurrentValue="0.5" PannerKeyframes="" PannerStartKeyframe="-91445760000000000,0.5,0,0,0,0,0,0" PannerIsInverted="true" PannerName="Pan">
											<masterclipid>masterclip-237</masterclipid>
											<name>MVI_0379.MOV</name>
											<enabled>TRUE</enabled>
											<duration>11864</duration>
											<rate>
												<timebase>25</timebase>
												<ntsc>FALSE</ntsc>
											</rate>
											<start>0</start>
											<end>11864</end>
											<in>0</in>
											<out>11864</out>
											<file id="file-211"/>
											<sourcetrack>
												<mediatype>audio</mediatype>
												<trackindex>2</trackindex>
											</sourcetrack>
												<filter>
													<effect>
														<name>Audio Pan</name>
														<effectid>audiopan</effectid>
														<effectcategory>audiopan</effectcategory>
														<effecttype>audiopan</effecttype>
														<mediatype>audio</mediatype>
														<parameter authoringApp="PremierePro">
															<parameterid>pan</parameterid>
															<name>Pan</name>
															<valuemin>-1</valuemin>
															<valuemax>1</valuemax>
															<value>0</value>
														</parameter>
													</effect>
												</filter>
											<link>
												<linkclipref>clipitem-1311</linkclipref>
												<mediatype>audio</mediatype>
												<trackindex>1</trackindex>
												<clipindex>1</clipindex>
												<groupindex>1</groupindex>
											</link>
											<link>
												<linkclipref>clipitem-1312</linkclipref>
												<mediatype>audio</mediatype>
												<trackindex>2</trackindex>
												<clipindex>1</clipindex>
												<groupindex>1</groupindex>
											</link>
											<logginginfo>
												<description></description>
												<scene></scene>
												<shottake></shottake>
												<lognote></lognote>
											</logginginfo>
											<labels>
												<label2>Iris</label2>
											</labels>
										</clipitem>
										<enabled>TRUE</enabled>
										<locked>FALSE</locked>
										<outputchannelindex>2</outputchannelindex>
									</track>
									<track TL.SQTrackAudioKeyframeStyle="0" TL.SQTrackShy="0" TL.SQTrackExpandedHeight="46" TL.SQTrackExpanded="1" MZ.TrackTargeted="1" PannerCurrentValue="0" PannerIsInverted="true" PannerStartKeyframe="-91445760000000000,0.,0,0,0,0,0,0" PannerName="Balance" currentExplodedTrackIndex="0" totalExplodedTrackCount="1" premiereTrackType="Stereo">
										<clipitem id="clipitem-1313" frameBlend="FALSE" PannerCurrentValue="0.5" PannerKeyframes="" PannerStartKeyframe="-91445760000000000,0.5,0,0,0,0,0,0" PannerIsInverted="true" PannerName="Pan">
											<masterclipid>masterclip-238</masterclipid>
											<name>AA036701.MXF</name>
											<enabled>TRUE</enabled>
											<duration>4740</duration>
											<rate>
												<timebase>25</timebase>
												<ntsc>FALSE</ntsc>
											</rate>
											<start>0</start>
											<end>4615</end>
											<in>125</in>
											<out>4740</out>
											<file id="file-212"/>
											<sourcetrack>
												<mediatype>audio</mediatype>
												<trackindex>1</trackindex>
											</sourcetrack>
												<filter>
													<effect>
														<name>Audio Pan</name>
														<effectid>audiopan</effectid>
														<effectcategory>audiopan</effectcategory>
														<effecttype>audiopan</effecttype>
														<mediatype>audio</mediatype>
														<parameter authoringApp="PremierePro">
															<parameterid>pan</parameterid>
															<name>Pan</name>
															<valuemin>-1</valuemin>
															<valuemax>1</valuemax>
															<value>0</value>
														</parameter>
													</effect>
												</filter>
											<link>
												<linkclipref>clipitem-1313</linkclipref>
												<mediatype>audio</mediatype>
												<trackindex>3</trackindex>
												<clipindex>1</clipindex>
												<groupindex>1</groupindex>
											</link>
											<link>
												<linkclipref>clipitem-1314</linkclipref>
												<mediatype>audio</mediatype>
												<trackindex>4</trackindex>
												<clipindex>1</clipindex>
												<groupindex>1</groupindex>
											</link>
											<logginginfo>
												<description></description>
												<scene></scene>
												<shottake>AA0367</shottake>
												<lognote></lognote>
											</logginginfo>
											<labels>
												<label2>Iris</label2>
											</labels>
										</clipitem>
										<enabled>TRUE</enabled>
										<locked>FALSE</locked>
										<outputchannelindex>3</outputchannelindex>
									</track>
									<track TL.SQTrackAudioKeyframeStyle="0" TL.SQTrackShy="0" TL.SQTrackExpandedHeight="49" TL.SQTrackExpanded="1" MZ.TrackTargeted="1" PannerCurrentValue="1." PannerIsInverted="true" PannerStartKeyframe="-91445760000000000,1.,0,0,0,0,0,0" PannerName="Balance" currentExplodedTrackIndex="0" totalExplodedTrackCount="1" premiereTrackType="Stereo">
										<clipitem id="clipitem-1314" frameBlend="FALSE" PannerCurrentValue="0.5" PannerKeyframes="" PannerStartKeyframe="-91445760000000000,0.5,0,0,0,0,0,0" PannerIsInverted="true" PannerName="Pan">
											<masterclipid>masterclip-238</masterclipid>
											<name>AA036701.MXF</name>
											<enabled>TRUE</enabled>
											<duration>4740</duration>
											<rate>
												<timebase>25</timebase>
												<ntsc>FALSE</ntsc>
											</rate>
											<start>0</start>
											<end>4615</end>
											<in>125</in>
											<out>4740</out>
											<file id="file-212"/>
											<sourcetrack>
												<mediatype>audio</mediatype>
												<trackindex>2</trackindex>
											</sourcetrack>
												<filter>
													<effect>
														<name>Audio Pan</name>
														<effectid>audiopan</effectid>
														<effectcategory>audiopan</effectcategory>
														<effecttype>audiopan</effecttype>
														<mediatype>audio</mediatype>
														<parameter authoringApp="PremierePro">
															<parameterid>pan</parameterid>
															<name>Pan</name>
															<valuemin>-1</valuemin>
															<valuemax>1</valuemax>
															<value>0</value>
														</parameter>
													</effect>
												</filter>
											<link>
												<linkclipref>clipitem-1313</linkclipref>
												<mediatype>audio</mediatype>
												<trackindex>3</trackindex>
												<clipindex>1</clipindex>
												<groupindex>1</groupindex>
											</link>
											<link>
												<linkclipref>clipitem-1314</linkclipref>
												<mediatype>audio</mediatype>
												<trackindex>4</trackindex>
												<clipindex>1</clipindex>
												<groupindex>1</groupindex>
											</link>
											<logginginfo>
												<description></description>
												<scene></scene>
												<shottake>AA0367</shottake>
												<lognote></lognote>
											</logginginfo>
											<labels>
												<label2>Iris</label2>
											</labels>
										</clipitem>
										<enabled>TRUE</enabled>
										<locked>FALSE</locked>
										<outputchannelindex>4</outputchannelindex>
									</track>
									<track TL.SQTrackAudioKeyframeStyle="0" TL.SQTrackShy="0" TL.SQTrackExpandedHeight="42" TL.SQTrackExpanded="1" MZ.TrackTargeted="0" PannerCurrentValue="0" PannerIsInverted="true" PannerStartKeyframe="-91445760000000000,0.,0,0,0,0,0,0" PannerName="Balance" currentExplodedTrackIndex="0" totalExplodedTrackCount="1" premiereTrackType="Stereo">
										<clipitem id="clipitem-1315" frameBlend="FALSE" PannerCurrentValue="0.5" PannerKeyframes="" PannerStartKeyframe="-91445760000000000,0.5,0,0,0,0,0,0" PannerIsInverted="true" PannerName="Pan">
											<masterclipid>masterclip-239</masterclipid>
											<name>AA036801.MXF</name>
											<enabled>TRUE</enabled>
											<duration>7176</duration>
											<rate>
												<timebase>25</timebase>
												<ntsc>FALSE</ntsc>
											</rate>
											<start>4786</start>
											<end>11962</end>
											<in>0</in>
											<out>7176</out>
											<file id="file-213"/>
											<sourcetrack>
												<mediatype>audio</mediatype>
												<trackindex>1</trackindex>
											</sourcetrack>
												<filter>
													<effect>
														<name>Audio Pan</name>
														<effectid>audiopan</effectid>
														<effectcategory>audiopan</effectcategory>
														<effecttype>audiopan</effecttype>
														<mediatype>audio</mediatype>
														<parameter authoringApp="PremierePro">
															<parameterid>pan</parameterid>
															<name>Pan</name>
															<valuemin>-1</valuemin>
															<valuemax>1</valuemax>
															<value>0</value>
														</parameter>
													</effect>
												</filter>
											<link>
												<linkclipref>clipitem-1315</linkclipref>
												<mediatype>audio</mediatype>
												<trackindex>5</trackindex>
												<clipindex>1</clipindex>
												<groupindex>1</groupindex>
											</link>
											<link>
												<linkclipref>clipitem-1316</linkclipref>
												<mediatype>audio</mediatype>
												<trackindex>6</trackindex>
												<clipindex>1</clipindex>
												<groupindex>1</groupindex>
											</link>
											<logginginfo>
												<description></description>
												<scene></scene>
												<shottake>AA0368</shottake>
												<lognote></lognote>
											</logginginfo>
											<labels>
												<label2>Iris</label2>
											</labels>
										</clipitem>
										<enabled>TRUE</enabled>
										<locked>FALSE</locked>
										<outputchannelindex>5</outputchannelindex>
									</track>
									<track TL.SQTrackAudioKeyframeStyle="0" TL.SQTrackShy="0" TL.SQTrackExpandedHeight="53" TL.SQTrackExpanded="1" MZ.TrackTargeted="0" PannerCurrentValue="1." PannerIsInverted="true" PannerStartKeyframe="-91445760000000000,1.,0,0,0,0,0,0" PannerName="Balance" currentExplodedTrackIndex="0" totalExplodedTrackCount="1" premiereTrackType="Stereo">
										<clipitem id="clipitem-1316" frameBlend="FALSE" PannerCurrentValue="0.5" PannerKeyframes="" PannerStartKeyframe="-91445760000000000,0.5,0,0,0,0,0,0" PannerIsInverted="true" PannerName="Pan">
											<masterclipid>masterclip-239</masterclipid>
											<name>AA036801.MXF</name>
											<enabled>TRUE</enabled>
											<duration>7176</duration>
											<rate>
												<timebase>25</timebase>
												<ntsc>FALSE</ntsc>
											</rate>
											<start>4786</start>
											<end>11962</end>
											<in>0</in>
											<out>7176</out>
											<file id="file-213"/>
											<sourcetrack>
												<mediatype>audio</mediatype>
												<trackindex>2</trackindex>
											</sourcetrack>
												<filter>
													<effect>
														<name>Audio Pan</name>
														<effectid>audiopan</effectid>
														<effectcategory>audiopan</effectcategory>
														<effecttype>audiopan</effecttype>
														<mediatype>audio</mediatype>
														<parameter authoringApp="PremierePro">
															<parameterid>pan</parameterid>
															<name>Pan</name>
															<valuemin>-1</valuemin>
															<valuemax>1</valuemax>
															<value>0</value>
														</parameter>
													</effect>
												</filter>
											<link>
												<linkclipref>clipitem-1315</linkclipref>
												<mediatype>audio</mediatype>
												<trackindex>5</trackindex>
												<clipindex>1</clipindex>
												<groupindex>1</groupindex>
											</link>
											<link>
												<linkclipref>clipitem-1316</linkclipref>
												<mediatype>audio</mediatype>
												<trackindex>6</trackindex>
												<clipindex>1</clipindex>
												<groupindex>1</groupindex>
											</link>
											<logginginfo>
												<description></description>
												<scene></scene>
												<shottake>AA0368</shottake>
												<lognote></lognote>
											</logginginfo>
											<labels>
												<label2>Iris</label2>
											</labels>
										</clipitem>
										<enabled>TRUE</enabled>
										<locked>FALSE</locked>
										<outputchannelindex>6</outputchannelindex>
									</track>
								</audio>
							</media>
							<timecode>
								<rate>
									<timebase>25</timebase>
									<ntsc>FALSE</ntsc>
								</rate>
								<string>00:00:00:00</string>
								<frame>0</frame>
								<displayformat>NDF</displayformat>
							</timecode>
						</sequence>
							<filter>
								<effect>
									<name>Audio Levels</name>
									<effectid>audiolevels</effectid>
									<effectcategory>audiolevels</effectcategory>
									<effecttype>audiolevels</effecttype>
									<mediatype>audio</mediatype>
									<parameter authoringApp="PremierePro">
										<parameterid>level</parameterid>
										<name>Level</name>
										<valuemin>0</valuemin>
										<valuemax>3.98109</valuemax>
										<value>0.889139</value>
									</parameter>
								</effect>
							</filter>
						<link>
							<linkclipref>clipitem-1307</linkclipref>
							<mediatype>audio</mediatype>
							<trackindex>1</trackindex>
							<clipindex>162</clipindex>
						</link>
						<link>
							<linkclipref>clipitem-1468</linkclipref>
							<mediatype>audio</mediatype>
							<trackindex>3</trackindex>
							<clipindex>116</clipindex>
						</link>
						<labels>
							<label2>Forest</label2>
						</labels>
					</clipitem>
					<clipitem id="clipitem-1317" frameBlend="FALSE">
						<masterclipid>masterclip-236</masterclipid>
						<name>MVI_0379.MOVIBMulti</name>
						<enabled>TRUE</enabled>
						<duration>11962</duration>
						<rate>
							<timebase>25</timebase>
							<ntsc>FALSE</ntsc>
						</rate>
						<start>37584</start>
						<end>37964</end>
						<in>5420</in>
						<out>5800</out>
						<sequence id="sequence-128"/>
							<filter>
								<effect>
									<name>Audio Levels</name>
									<effectid>audiolevels</effectid>
									<effectcategory>audiolevels</effectcategory>
									<effecttype>audiolevels</effecttype>
									<mediatype>audio</mediatype>
									<parameter authoringApp="PremierePro">
										<parameterid>level</parameterid>
										<name>Level</name>
										<valuemin>0</valuemin>
										<valuemax>3.98109</valuemax>
										<value>0.889139</value>
									</parameter>
								</effect>
							</filter>
						<link>
							<linkclipref>clipitem-1317</linkclipref>
							<mediatype>audio</mediatype>
							<trackindex>1</trackindex>
							<clipindex>163</clipindex>
						</link>
						<link>
							<linkclipref>clipitem-1469</linkclipref>
							<mediatype>audio</mediatype>
							<trackindex>3</trackindex>
							<clipindex>117</clipindex>
						</link>
						<labels>
							<label2>Forest</label2>
						</labels>
					</clipitem>
					<clipitem id="clipitem-1318" frameBlend="FALSE">
						<masterclipid>masterclip-236</masterclipid>
						<name>MVI_0379.MOVIBMulti</name>
						<enabled>TRUE</enabled>
						<duration>11962</duration>
						<rate>
							<timebase>25</timebase>
							<ntsc>FALSE</ntsc>
						</rate>
						<start>37964</start>
						<end>-1</end>
						<in>5915</in>
						<out>5946</out>
						<sequence id="sequence-128"/>
						<link>
							<linkclipref>clipitem-1318</linkclipref>
							<mediatype>audio</mediatype>
							<trackindex>1</trackindex>
							<clipindex>164</clipindex>
						</link>
						<link>
							<linkclipref>clipitem-1470</linkclipref>
							<mediatype>audio</mediatype>
							<trackindex>3</trackindex>
							<clipindex>118</clipindex>
						</link>
						<labels>
							<label2>Forest</label2>
						</labels>
					</clipitem>
					<transitionitem>
						<start>37993</start>
						<end>37995</end>
						<alignment>center</alignment>
						<cutPoint>0</cutPoint>
						<rate>
							<timebase>25</timebase>
							<ntsc>FALSE</ntsc>
						</rate>
						<effect>
							<name>Cross Fade (+3dB)</name>
							<effectid>KGAudioTransCrossFade3dB</effectid>
							<effecttype>transition</effecttype>
							<mediatype>audio</mediatype>
							<wipecode>0</wipecode>
							<wipeaccuracy>100</wipeaccuracy>
							<startratio>0</startratio>
							<endratio>1</endratio>
							<reverse>FALSE</reverse>
						</effect>
					</transitionitem>
					<clipitem id="clipitem-1319" frameBlend="FALSE">
						<masterclipid>masterclip-236</masterclipid>
						<name>MVI_0379.MOVIBMulti</name>
						<enabled>TRUE</enabled>
						<duration>11962</duration>
						<rate>
							<timebase>25</timebase>
							<ntsc>FALSE</ntsc>
						</rate>
						<start>-1</start>
						<end>38187</end>
						<in>5988</in>
						<out>6182</out>
						<sequence id="sequence-128"/>
						<link>
							<linkclipref>clipitem-1319</linkclipref>
							<mediatype>audio</mediatype>
							<trackindex>1</trackindex>
							<clipindex>166</clipindex>
						</link>
						<link>
							<linkclipref>clipitem-1471</linkclipref>
							<mediatype>audio</mediatype>
							<trackindex>3</trackindex>
							<clipindex>120</clipindex>
						</link>
						<labels>
							<label2>Forest</label2>
						</labels>
					</clipitem>
					<clipitem id="clipitem-1320" frameBlend="FALSE">
						<masterclipid>masterclip-236</masterclipid>
						<name>MVI_0379.MOVIBMulti</name>
						<enabled>TRUE</enabled>
						<duration>11962</duration>
						<rate>
							<timebase>25</timebase>
							<ntsc>FALSE</ntsc>
						</rate>
						<start>38187</start>
						<end>38203</end>
						<in>6186</in>
						<out>6202</out>
						<sequence id="sequence-128"/>
						<link>
							<linkclipref>clipitem-1320</linkclipref>
							<mediatype>audio</mediatype>
							<trackindex>1</trackindex>
							<clipindex>167</clipindex>
						</link>
						<link>
							<linkclipref>clipitem-1472</linkclipref>
							<mediatype>audio</mediatype>
							<trackindex>3</trackindex>
							<clipindex>121</clipindex>
						</link>
						<labels>
							<label2>Forest</label2>
						</labels>
					</clipitem>
					<clipitem id="clipitem-1321" frameBlend="FALSE">
						<masterclipid>masterclip-277</masterclipid>
						<name>AA035601.MXF</name>
						<enabled>TRUE</enabled>
						<duration>3924</duration>
						<rate>
							<timebase>25</timebase>
							<ntsc>FALSE</ntsc>
						</rate>
						<start>38599</start>
						<end>38858</end>
						<in>3179</in>
						<out>3438</out>
						<pixelaspectratio>square</pixelaspectratio>
						<anamorphic>FALSE</anamorphic>
						<file id="file-250">
							<name>AA035601.MXF</name>
							<pathurl>file://localhost/Volumes/Brakka/AdobeLager/Katta/Katta-14xxxx-Smart_eller_overvaaket-Chris/02-Video/IBM%20C300/CONTENTS/CLIPS001/AA0356/AA035601.MXF</pathurl>
							<rate>
								<timebase>25</timebase>
								<ntsc>FALSE</ntsc>
							</rate>
							<duration>3924</duration>
							<timecode>
								<rate>
									<timebase>25</timebase>
									<ntsc>FALSE</ntsc>
								</rate>
								<string>06:46:44:04</string>
								<frame>610104</frame>
								<displayformat>NDF</displayformat>
								<reel>
									<name></name>
								</reel>
							</timecode>
							<media>
								<video>
									<duration>18000</duration>
									<samplecharacteristics>
										<rate>
											<timebase>25</timebase>
											<ntsc>FALSE</ntsc>
										</rate>
										<width>1920</width>
										<height>1080</height>
										<anamorphic>FALSE</anamorphic>
										<pixelaspectratio>square</pixelaspectratio>
										<fielddominance>none</fielddominance>
									</samplecharacteristics>
								</video>
								<audio>
									<samplecharacteristics>
										<depth>16</depth>
										<samplerate>48000</samplerate>
									</samplecharacteristics>
									<channelcount>1</channelcount>
									<layout>mono</layout>
									<audiochannel>
										<sourcechannel>1</sourcechannel>
										<channellabel>discrete</channellabel>
									</audiochannel>
								</audio>
								<audio>
									<samplecharacteristics>
										<depth>16</depth>
										<samplerate>48000</samplerate>
									</samplecharacteristics>
									<channelcount>1</channelcount>
									<layout>mono</layout>
									<audiochannel>
										<sourcechannel>2</sourcechannel>
										<channellabel>discrete</channellabel>
									</audiochannel>
								</audio>
							</media>
						</file>
						<sourcetrack>
							<mediatype>audio</mediatype>
							<trackindex>1</trackindex>
						</sourcetrack>
							<filter>
								<effect>
									<name>Audio Levels</name>
									<effectid>audiolevels</effectid>
									<effectcategory>audiolevels</effectcategory>
									<effecttype>audiolevels</effecttype>
									<mediatype>audio</mediatype>
									<parameter authoringApp="PremierePro">
										<parameterid>level</parameterid>
										<name>Level</name>
										<valuemin>0</valuemin>
										<valuemax>3.98109</valuemax>
										<value>0.315478</value>
									</parameter>
								</effect>
							</filter>
						<link>
							<linkclipref>clipitem-1321</linkclipref>
							<mediatype>audio</mediatype>
							<trackindex>1</trackindex>
							<clipindex>168</clipindex>
						</link>
						<link>
							<linkclipref>clipitem-1473</linkclipref>
							<mediatype>audio</mediatype>
							<trackindex>3</trackindex>
							<clipindex>122</clipindex>
						</link>
						<logginginfo>
							<description></description>
							<scene></scene>
							<shottake>AA0356</shottake>
							<lognote></lognote>
						</logginginfo>
						<labels>
							<label2>Iris</label2>
						</labels>
					</clipitem>
					<clipitem id="clipitem-1322" frameBlend="FALSE">
						<masterclipid>masterclip-246</masterclipid>
						<name>MVI_0361.MOVIBMulti</name>
						<enabled>TRUE</enabled>
						<duration>37748</duration>
						<rate>
							<timebase>25</timebase>
							<ntsc>FALSE</ntsc>
						</rate>
						<start>39200</start>
						<end>39418</end>
						<in>3917</in>
						<out>4135</out>
						<sequence id="sequence-129" TL.SQAudioVisibleBase="0" TL.SQVideoVisibleBase="0" TL.SQVisibleBaseTime="0" TL.SQAVDividerPosition="0.5" TL.SQHideShyTracks="0" TL.SQHeaderWidth="188" Monitor.ProgramZoomOut="172730880000" Monitor.ProgramZoomIn="0" TL.SQTimePerPixel="0.94853146853146852457427939953" AM.TrackVScrollPosition="0" AM.TrackScrollPosition="0" MZ.EditLine="0" MZ.Sequence.PreviewFrameSizeHeight="1080" MZ.Sequence.PreviewFrameSizeWidth="1920" MZ.Sequence.AudioTimeDisplayFormat="200" MZ.Sequence.PreviewRenderingClassID="1297630752" MZ.Sequence.PreviewRenderingPresetCodec="7" MZ.Sequence.PreviewRenderingPresetPath="EncoderPresets/SequencePreview/b39d0224-c728-4ee7-9886-ccf837b5247f/DNX 120 1080p 25.epr" MZ.Sequence.PreviewUseMaxRenderQuality="false" MZ.Sequence.PreviewUseMaxBitDepth="false" MZ.Sequence.EditingModeGUID="b39d0224-c728-4ee7-9886-ccf837b5247f" MZ.Sequence.VideoTimeDisplayFormat="101" MZ.WorkOutPoint="226592432640000" MZ.WorkInPoint="0">
							<duration>22301</duration>
							<rate>
								<timebase>25</timebase>
								<ntsc>FALSE</ntsc>
							</rate>
							<name>MVI_0361.MOVIBMulti</name>
							<media>
								<video>
									<format>
										<samplecharacteristics>
											<rate>
												<timebase>25</timebase>
												<ntsc>FALSE</ntsc>
											</rate>
											<codec>
												<name>Apple ProRes 422</name>
												<appspecificdata>
													<appname>Final Cut Pro</appname>
													<appmanufacturer>Apple Inc.</appmanufacturer>
													<appversion>7.0</appversion>
													<data>
														<qtcodec>
															<codecname>Apple ProRes 422</codecname>
															<codectypename>Apple ProRes 422</codectypename>
															<codectypecode>apcn</codectypecode>
															<codecvendorcode>appl</codecvendorcode>
															<spatialquality>1024</spatialquality>
															<temporalquality>0</temporalquality>
															<keyframerate>0</keyframerate>
															<datarate>0</datarate>
														</qtcodec>
													</data>
												</appspecificdata>
											</codec>
											<width>1920</width>
											<height>1080</height>
											<anamorphic>FALSE</anamorphic>
											<pixelaspectratio>square</pixelaspectratio>
											<fielddominance>none</fielddominance>
											<colordepth>24</colordepth>
										</samplecharacteristics>
									</format>
									<track TL.SQTrackShy="0" TL.SQTrackExpandedHeight="50" TL.SQTrackExpanded="1" MZ.TrackTargeted="0">
										<clipitem id="clipitem-1323" frameBlend="FALSE">
											<masterclipid>masterclip-248</masterclipid>
											<name>MVI_0361.MOV</name>
											<enabled>TRUE</enabled>
											<duration>18697</duration>
											<rate>
												<timebase>25</timebase>
												<ntsc>FALSE</ntsc>
											</rate>
											<start>0</start>
											<end>18697</end>
											<in>0</in>
											<out>18697</out>
											<alphatype>black</alphatype>
											<file id="file-221"/>
											<logginginfo>
												<description></description>
												<scene></scene>
												<shottake></shottake>
												<lognote></lognote>
											</logginginfo>
											<labels>
												<label2>Iris</label2>
											</labels>
										</clipitem>
										<clipitem id="clipitem-1324" frameBlend="FALSE">
											<masterclipid>masterclip-249</masterclipid>
											<name>MVI_0362.MOV</name>
											<enabled>TRUE</enabled>
											<duration>2651</duration>
											<rate>
												<timebase>25</timebase>
												<ntsc>FALSE</ntsc>
											</rate>
											<start>19666</start>
											<end>22254</end>
											<in>63</in>
											<out>2651</out>
											<alphatype>black</alphatype>
											<file id="file-222"/>
											<logginginfo>
												<description></description>
												<scene></scene>
												<shottake></shottake>
												<lognote></lognote>
											</logginginfo>
											<labels>
												<label2>Iris</label2>
											</labels>
										</clipitem>
										<enabled>TRUE</enabled>
										<locked>FALSE</locked>
									</track>
									<track TL.SQTrackShy="0" TL.SQTrackExpandedHeight="25" TL.SQTrackExpanded="0" MZ.TrackTargeted="0">
										<enabled>TRUE</enabled>
										<locked>FALSE</locked>
									</track>
									<track TL.SQTrackShy="0" TL.SQTrackExpandedHeight="25" TL.SQTrackExpanded="0" MZ.TrackTargeted="0">
										<enabled>TRUE</enabled>
										<locked>FALSE</locked>
									</track>
									<track TL.SQTrackShy="0" TL.SQTrackExpandedHeight="25" TL.SQTrackExpanded="0" MZ.TrackTargeted="0">
										<clipitem id="clipitem-1325" frameBlend="FALSE">
											<masterclipid>masterclip-247</masterclipid>
											<name>AA035001.MXF</name>
											<enabled>TRUE</enabled>
											<duration>23184</duration>
											<rate>
												<timebase>25</timebase>
												<ntsc>FALSE</ntsc>
											</rate>
											<start>0</start>
											<end>22301</end>
											<in>883</in>
											<out>23184</out>
											<alphatype>none</alphatype>
											<file id="file-220"/>
											<logginginfo>
												<description></description>
												<scene></scene>
												<shottake>AA0350</shottake>
												<lognote></lognote>
											</logginginfo>
											<labels>
												<label2>Iris</label2>
											</labels>
										</clipitem>
										<enabled>TRUE</enabled>
										<locked>FALSE</locked>
									</track>
								</video>
								<audio>
									<format>
										<samplecharacteristics>
											<depth>16</depth>
											<samplerate>48000</samplerate>
										</samplecharacteristics>
									</format>
									<outputs>
										<group>
											<index>1</index>
											<numchannels>1</numchannels>
											<downmix>0</downmix>
											<channel>
												<index>1</index>
											</channel>
										</group>
										<group>
											<index>2</index>
											<numchannels>1</numchannels>
											<downmix>0</downmix>
											<channel>
												<index>2</index>
											</channel>
										</group>
										<group>
											<index>3</index>
											<numchannels>1</numchannels>
											<downmix>0</downmix>
											<channel>
												<index>3</index>
											</channel>
										</group>
										<group>
											<index>4</index>
											<numchannels>1</numchannels>
											<downmix>0</downmix>
											<channel>
												<index>4</index>
											</channel>
										</group>
										<group>
											<index>5</index>
											<numchannels>1</numchannels>
											<downmix>0</downmix>
											<channel>
												<index>5</index>
											</channel>
										</group>
										<group>
											<index>6</index>
											<numchannels>1</numchannels>
											<downmix>0</downmix>
											<channel>
												<index>6</index>
											</channel>
										</group>
									</outputs>
									<track TL.SQTrackAudioKeyframeStyle="0" TL.SQTrackShy="0" TL.SQTrackExpandedHeight="77" TL.SQTrackExpanded="1" MZ.TrackTargeted="0" PannerCurrentValue="0" PannerIsInverted="true" PannerStartKeyframe="-91445760000000000,0.,0,0,0,0,0,0" PannerName="Balance" currentExplodedTrackIndex="0" totalExplodedTrackCount="1" premiereTrackType="Stereo">
										<clipitem id="clipitem-1326" frameBlend="FALSE" PannerCurrentValue="0.5" PannerKeyframes="" PannerStartKeyframe="-91445760000000000,0.5,0,0,0,0,0,0" PannerIsInverted="true" PannerName="Pan">
											<masterclipid>masterclip-247</masterclipid>
											<name>AA035001.MXF</name>
											<enabled>TRUE</enabled>
											<duration>23184</duration>
											<rate>
												<timebase>25</timebase>
												<ntsc>FALSE</ntsc>
											</rate>
											<start>0</start>
											<end>22301</end>
											<in>883</in>
											<out>23184</out>
											<file id="file-220"/>
											<sourcetrack>
												<mediatype>audio</mediatype>
												<trackindex>1</trackindex>
											</sourcetrack>
												<filter>
													<effect>
														<name>Audio Pan</name>
														<effectid>audiopan</effectid>
														<effectcategory>audiopan</effectcategory>
														<effecttype>audiopan</effecttype>
														<mediatype>audio</mediatype>
														<parameter authoringApp="PremierePro">
															<parameterid>pan</parameterid>
															<name>Pan</name>
															<valuemin>-1</valuemin>
															<valuemax>1</valuemax>
															<value>0</value>
														</parameter>
													</effect>
												</filter>
											<link>
												<linkclipref>clipitem-1326</linkclipref>
												<mediatype>audio</mediatype>
												<trackindex>1</trackindex>
												<clipindex>1</clipindex>
												<groupindex>1</groupindex>
											</link>
											<link>
												<linkclipref>clipitem-1327</linkclipref>
												<mediatype>audio</mediatype>
												<trackindex>2</trackindex>
												<clipindex>1</clipindex>
												<groupindex>1</groupindex>
											</link>
											<logginginfo>
												<description></description>
												<scene></scene>
												<shottake>AA0350</shottake>
												<lognote></lognote>
											</logginginfo>
											<labels>
												<label2>Iris</label2>
											</labels>
										</clipitem>
										<enabled>TRUE</enabled>
										<locked>FALSE</locked>
										<outputchannelindex>1</outputchannelindex>
									</track>
									<track TL.SQTrackAudioKeyframeStyle="0" TL.SQTrackShy="0" TL.SQTrackExpandedHeight="59" TL.SQTrackExpanded="1" MZ.TrackTargeted="0" PannerCurrentValue="1." PannerIsInverted="true" PannerStartKeyframe="-91445760000000000,1.,0,0,0,0,0,0" PannerName="Balance" currentExplodedTrackIndex="0" totalExplodedTrackCount="1" premiereTrackType="Stereo">
										<clipitem id="clipitem-1327" frameBlend="FALSE" PannerCurrentValue="0.5" PannerKeyframes="" PannerStartKeyframe="-91445760000000000,0.5,0,0,0,0,0,0" PannerIsInverted="true" PannerName="Pan">
											<masterclipid>masterclip-247</masterclipid>
											<name>AA035001.MXF</name>
											<enabled>TRUE</enabled>
											<duration>23184</duration>
											<rate>
												<timebase>25</timebase>
												<ntsc>FALSE</ntsc>
											</rate>
											<start>0</start>
											<end>22301</end>
											<in>883</in>
											<out>23184</out>
											<file id="file-220"/>
											<sourcetrack>
												<mediatype>audio</mediatype>
												<trackindex>2</trackindex>
											</sourcetrack>
												<filter>
													<effect>
														<name>Audio Pan</name>
														<effectid>audiopan</effectid>
														<effectcategory>audiopan</effectcategory>
														<effecttype>audiopan</effecttype>
														<mediatype>audio</mediatype>
														<parameter authoringApp="PremierePro">
															<parameterid>pan</parameterid>
															<name>Pan</name>
															<valuemin>-1</valuemin>
															<valuemax>1</valuemax>
															<value>0</value>
														</parameter>
													</effect>
												</filter>
											<link>
												<linkclipref>clipitem-1326</linkclipref>
												<mediatype>audio</mediatype>
												<trackindex>1</trackindex>
												<clipindex>1</clipindex>
												<groupindex>1</groupindex>
											</link>
											<link>
												<linkclipref>clipitem-1327</linkclipref>
												<mediatype>audio</mediatype>
												<trackindex>2</trackindex>
												<clipindex>1</clipindex>
												<groupindex>1</groupindex>
											</link>
											<logginginfo>
												<description></description>
												<scene></scene>
												<shottake>AA0350</shottake>
												<lognote></lognote>
											</logginginfo>
											<labels>
												<label2>Iris</label2>
											</labels>
										</clipitem>
										<enabled>TRUE</enabled>
										<locked>FALSE</locked>
										<outputchannelindex>2</outputchannelindex>
									</track>
									<track TL.SQTrackAudioKeyframeStyle="0" TL.SQTrackShy="0" TL.SQTrackExpandedHeight="54" TL.SQTrackExpanded="1" MZ.TrackTargeted="1" PannerCurrentValue="0" PannerIsInverted="true" PannerStartKeyframe="-91445760000000000,0.,0,0,0,0,0,0" PannerName="Balance" currentExplodedTrackIndex="0" totalExplodedTrackCount="2" premiereTrackType="Stereo">
										<enabled>TRUE</enabled>
										<locked>FALSE</locked>
										<outputchannelindex>1</outputchannelindex>
									</track>
									<track TL.SQTrackAudioKeyframeStyle="0" TL.SQTrackShy="0" TL.SQTrackExpandedHeight="54" TL.SQTrackExpanded="1" MZ.TrackTargeted="1" PannerCurrentValue="0" PannerIsInverted="true" PannerStartKeyframe="-91445760000000000,0.,0,0,0,0,0,0" PannerName="Balance" currentExplodedTrackIndex="1" totalExplodedTrackCount="2" premiereTrackType="Stereo">
										<enabled>TRUE</enabled>
										<locked>FALSE</locked>
										<outputchannelindex>2</outputchannelindex>
									</track>
									<track TL.SQTrackAudioKeyframeStyle="0" TL.SQTrackShy="0" TL.SQTrackExpandedHeight="54" TL.SQTrackExpanded="1" MZ.TrackTargeted="1" PannerCurrentValue="1." PannerIsInverted="true" PannerStartKeyframe="-91445760000000000,1.,0,0,0,0,0,0" PannerName="Balance" currentExplodedTrackIndex="0" totalExplodedTrackCount="2" premiereTrackType="Stereo">
										<enabled>TRUE</enabled>
										<locked>FALSE</locked>
										<outputchannelindex>1</outputchannelindex>
									</track>
									<track TL.SQTrackAudioKeyframeStyle="0" TL.SQTrackShy="0" TL.SQTrackExpandedHeight="54" TL.SQTrackExpanded="1" MZ.TrackTargeted="1" PannerCurrentValue="1." PannerIsInverted="true" PannerStartKeyframe="-91445760000000000,1.,0,0,0,0,0,0" PannerName="Balance" currentExplodedTrackIndex="1" totalExplodedTrackCount="2" premiereTrackType="Stereo">
										<enabled>TRUE</enabled>
										<locked>FALSE</locked>
										<outputchannelindex>2</outputchannelindex>
									</track>
									<track TL.SQTrackAudioKeyframeStyle="0" TL.SQTrackShy="0" TL.SQTrackExpandedHeight="46" TL.SQTrackExpanded="1" MZ.TrackTargeted="0" PannerCurrentValue="0" PannerIsInverted="true" PannerStartKeyframe="-91445760000000000,0.,0,0,0,0,0,0" PannerName="Balance" currentExplodedTrackIndex="0" totalExplodedTrackCount="2" premiereTrackType="Stereo">
										<enabled>TRUE</enabled>
										<locked>FALSE</locked>
										<outputchannelindex>1</outputchannelindex>
									</track>
									<track TL.SQTrackAudioKeyframeStyle="0" TL.SQTrackShy="0" TL.SQTrackExpandedHeight="46" TL.SQTrackExpanded="1" MZ.TrackTargeted="0" PannerCurrentValue="0" PannerIsInverted="true" PannerStartKeyframe="-91445760000000000,0.,0,0,0,0,0,0" PannerName="Balance" currentExplodedTrackIndex="1" totalExplodedTrackCount="2" premiereTrackType="Stereo">
										<enabled>TRUE</enabled>
										<locked>FALSE</locked>
										<outputchannelindex>5</outputchannelindex>
									</track>
									<track TL.SQTrackAudioKeyframeStyle="0" TL.SQTrackShy="0" TL.SQTrackExpandedHeight="61" TL.SQTrackExpanded="1" MZ.TrackTargeted="0" PannerCurrentValue="1." PannerIsInverted="true" PannerStartKeyframe="-91445760000000000,1.,0,0,0,0,0,0" PannerName="Balance" currentExplodedTrackIndex="0" totalExplodedTrackCount="2" premiereTrackType="Stereo">
										<enabled>TRUE</enabled>
										<locked>FALSE</locked>
										<outputchannelindex>5</outputchannelindex>
									</track>
									<track TL.SQTrackAudioKeyframeStyle="0" TL.SQTrackShy="0" TL.SQTrackExpandedHeight="61" TL.SQTrackExpanded="1" MZ.TrackTargeted="0" PannerCurrentValue="1." PannerIsInverted="true" PannerStartKeyframe="-91445760000000000,1.,0,0,0,0,0,0" PannerName="Balance" currentExplodedTrackIndex="1" totalExplodedTrackCount="2" premiereTrackType="Stereo">
										<enabled>TRUE</enabled>
										<locked>FALSE</locked>
										<outputchannelindex>6</outputchannelindex>
									</track>
								</audio>
							</media>
							<timecode>
								<rate>
									<timebase>25</timebase>
									<ntsc>FALSE</ntsc>
								</rate>
								<string>00:00:00:00</string>
								<frame>0</frame>
								<displayformat>NDF</displayformat>
							</timecode>
						</sequence>
						<link>
							<linkclipref>clipitem-932</linkclipref>
							<mediatype>video</mediatype>
							<trackindex>1</trackindex>
							<clipindex>348</clipindex>
						</link>
						<link>
							<linkclipref>clipitem-1322</linkclipref>
							<mediatype>audio</mediatype>
							<trackindex>1</trackindex>
							<clipindex>169</clipindex>
						</link>
						<link>
							<linkclipref>clipitem-1474</linkclipref>
							<mediatype>audio</mediatype>
							<trackindex>3</trackindex>
							<clipindex>123</clipindex>
						</link>
						<labels>
							<label2>Forest</label2>
						</labels>
					</clipitem>
					<clipitem id="clipitem-1328" frameBlend="FALSE">
						<masterclipid>masterclip-246</masterclipid>
						<name>MVI_0361.MOVIBMulti</name>
						<enabled>TRUE</enabled>
						<duration>37748</duration>
						<rate>
							<timebase>25</timebase>
							<ntsc>FALSE</ntsc>
						</rate>
						<start>39418</start>
						<end>-1</end>
						<in>4183</in>
						<out>4229</out>
						<sequence id="sequence-129"/>
						<link>
							<linkclipref>clipitem-939</linkclipref>
							<mediatype>video</mediatype>
							<trackindex>1</trackindex>
							<clipindex>350</clipindex>
						</link>
						<link>
							<linkclipref>clipitem-1328</linkclipref>
							<mediatype>audio</mediatype>
							<trackindex>1</trackindex>
							<clipindex>170</clipindex>
						</link>
						<link>
							<linkclipref>clipitem-1475</linkclipref>
							<mediatype>audio</mediatype>
							<trackindex>3</trackindex>
							<clipindex>124</clipindex>
						</link>
						<labels>
							<label2>Forest</label2>
						</labels>
					</clipitem>
					<transitionitem>
						<start>39462</start>
						<end>39464</end>
						<alignment>center</alignment>
						<cutPoint>0</cutPoint>
						<rate>
							<timebase>25</timebase>
							<ntsc>FALSE</ntsc>
						</rate>
						<effect>
							<name>Cross Fade (+3dB)</name>
							<effectid>KGAudioTransCrossFade3dB</effectid>
							<effecttype>transition</effecttype>
							<mediatype>audio</mediatype>
							<wipecode>0</wipecode>
							<wipeaccuracy>100</wipeaccuracy>
							<startratio>0</startratio>
							<endratio>1</endratio>
							<reverse>FALSE</reverse>
						</effect>
					</transitionitem>
					<clipitem id="clipitem-1329" frameBlend="FALSE">
						<masterclipid>masterclip-246</masterclipid>
						<name>MVI_0361.MOVIBMulti</name>
						<enabled>TRUE</enabled>
						<duration>37748</duration>
						<rate>
							<timebase>25</timebase>
							<ntsc>FALSE</ntsc>
						</rate>
						<start>-1</start>
						<end>39548</end>
						<in>4390</in>
						<out>4476</out>
						<sequence id="sequence-129"/>
							<filter>
								<effect>
									<name>Audio Levels</name>
									<effectid>audiolevels</effectid>
									<effectcategory>audiolevels</effectcategory>
									<effecttype>audiolevels</effecttype>
									<mediatype>audio</mediatype>
									<parameter authoringApp="PremierePro">
										<parameterid>level</parameterid>
										<name>Level</name>
										<valuemin>0</valuemin>
										<valuemax>3.98109</valuemax>
										<value>1.41254</value>
									</parameter>
								</effect>
							</filter>
						<link>
							<linkclipref>clipitem-1329</linkclipref>
							<mediatype>audio</mediatype>
							<trackindex>1</trackindex>
							<clipindex>172</clipindex>
						</link>
						<link>
							<linkclipref>clipitem-1476</linkclipref>
							<mediatype>audio</mediatype>
							<trackindex>3</trackindex>
							<clipindex>126</clipindex>
						</link>
						<labels>
							<label2>Forest</label2>
						</labels>
					</clipitem>
					<clipitem id="clipitem-1330" frameBlend="FALSE">
						<masterclipid>masterclip-246</masterclipid>
						<name>MVI_0361.MOVIBMulti</name>
						<enabled>TRUE</enabled>
						<duration>37748</duration>
						<rate>
							<timebase>25</timebase>
							<ntsc>FALSE</ntsc>
						</rate>
						<start>39548</start>
						<end>39570</end>
						<in>4630</in>
						<out>4652</out>
						<sequence id="sequence-129"/>
							<filter>
								<effect>
									<name>Audio Levels</name>
									<effectid>audiolevels</effectid>
									<effectcategory>audiolevels</effectcategory>
									<effecttype>audiolevels</effecttype>
									<mediatype>audio</mediatype>
									<parameter authoringApp="PremierePro">
										<parameterid>level</parameterid>
										<name>Level</name>
										<valuemin>0</valuemin>
										<valuemax>3.98109</valuemax>
										<value>1.41254</value>
									</parameter>
								</effect>
							</filter>
						<link>
							<linkclipref>clipitem-1330</linkclipref>
							<mediatype>audio</mediatype>
							<trackindex>1</trackindex>
							<clipindex>173</clipindex>
						</link>
						<link>
							<linkclipref>clipitem-1477</linkclipref>
							<mediatype>audio</mediatype>
							<trackindex>3</trackindex>
							<clipindex>127</clipindex>
						</link>
						<labels>
							<label2>Forest</label2>
						</labels>
					</clipitem>
					<clipitem id="clipitem-1331" frameBlend="FALSE">
						<masterclipid>masterclip-246</masterclipid>
						<name>MVI_0361.MOVIBMulti</name>
						<enabled>TRUE</enabled>
						<duration>37748</duration>
						<rate>
							<timebase>25</timebase>
							<ntsc>FALSE</ntsc>
						</rate>
						<start>39570</start>
						<end>39587</end>
						<in>5069</in>
						<out>5086</out>
						<sequence id="sequence-129"/>
							<filter>
								<effect>
									<name>Audio Levels</name>
									<effectid>audiolevels</effectid>
									<effectcategory>audiolevels</effectcategory>
									<effecttype>audiolevels</effecttype>
									<mediatype>audio</mediatype>
									<parameter authoringApp="PremierePro">
										<parameterid>level</parameterid>
										<name>Level</name>
										<valuemin>0</valuemin>
										<valuemax>3.98109</valuemax>
										<value>1.41254</value>
									</parameter>
								</effect>
							</filter>
						<link>
							<linkclipref>clipitem-1331</linkclipref>
							<mediatype>audio</mediatype>
							<trackindex>1</trackindex>
							<clipindex>174</clipindex>
						</link>
						<link>
							<linkclipref>clipitem-1478</linkclipref>
							<mediatype>audio</mediatype>
							<trackindex>3</trackindex>
							<clipindex>128</clipindex>
						</link>
						<labels>
							<label2>Forest</label2>
						</labels>
					</clipitem>
					<clipitem id="clipitem-1332" frameBlend="FALSE">
						<masterclipid>masterclip-246</masterclipid>
						<name>MVI_0361.MOVIBMulti</name>
						<enabled>TRUE</enabled>
						<duration>37748</duration>
						<rate>
							<timebase>25</timebase>
							<ntsc>FALSE</ntsc>
						</rate>
						<start>39587</start>
						<end>-1</end>
						<in>4652</in>
						<out>4872</out>
						<sequence id="sequence-129"/>
							<filter>
								<effect>
									<name>Audio Levels</name>
									<effectid>audiolevels</effectid>
									<effectcategory>audiolevels</effectcategory>
									<effecttype>audiolevels</effecttype>
									<mediatype>audio</mediatype>
									<parameter authoringApp="PremierePro">
										<parameterid>level</parameterid>
										<name>Level</name>
										<valuemin>0</valuemin>
										<valuemax>3.98109</valuemax>
										<value>0.889139</value>
									</parameter>
								</effect>
							</filter>
						<link>
							<linkclipref>clipitem-1332</linkclipref>
							<mediatype>audio</mediatype>
							<trackindex>1</trackindex>
							<clipindex>175</clipindex>
						</link>
						<link>
							<linkclipref>clipitem-1479</linkclipref>
							<mediatype>audio</mediatype>
							<trackindex>3</trackindex>
							<clipindex>129</clipindex>
						</link>
						<labels>
							<label2>Forest</label2>
						</labels>
					</clipitem>
					<transitionitem>
						<start>39805</start>
						<end>39807</end>
						<alignment>center</alignment>
						<cutPoint>0</cutPoint>
						<rate>
							<timebase>25</timebase>
							<ntsc>FALSE</ntsc>
						</rate>
						<effect>
							<name>Cross Fade (+3dB)</name>
							<effectid>KGAudioTransCrossFade3dB</effectid>
							<effecttype>transition</effecttype>
							<mediatype>audio</mediatype>
							<wipecode>0</wipecode>
							<wipeaccuracy>100</wipeaccuracy>
							<startratio>0</startratio>
							<endratio>1</endratio>
							<reverse>FALSE</reverse>
						</effect>
					</transitionitem>
					<clipitem id="clipitem-1333" frameBlend="FALSE">
						<masterclipid>masterclip-246</masterclipid>
						<name>MVI_0361.MOVIBMulti</name>
						<enabled>TRUE</enabled>
						<duration>37748</duration>
						<rate>
							<timebase>25</timebase>
							<ntsc>FALSE</ntsc>
						</rate>
						<start>-1</start>
						<end>39825</end>
						<in>4896</in>
						<out>4916</out>
						<sequence id="sequence-129"/>
							<filter>
								<effect>
									<name>Audio Levels</name>
									<effectid>audiolevels</effectid>
									<effectcategory>audiolevels</effectcategory>
									<effecttype>audiolevels</effecttype>
									<mediatype>audio</mediatype>
									<parameter authoringApp="PremierePro">
										<parameterid>level</parameterid>
										<name>Level</name>
										<valuemin>0</valuemin>
										<valuemax>3.98109</valuemax>
										<value>0.889139</value>
									</parameter>
								</effect>
							</filter>
						<link>
							<linkclipref>clipitem-1333</linkclipref>
							<mediatype>audio</mediatype>
							<trackindex>1</trackindex>
							<clipindex>177</clipindex>
						</link>
						<link>
							<linkclipref>clipitem-1480</linkclipref>
							<mediatype>audio</mediatype>
							<trackindex>3</trackindex>
							<clipindex>131</clipindex>
						</link>
						<labels>
							<label2>Forest</label2>
						</labels>
					</clipitem>
					<clipitem id="clipitem-1334" frameBlend="FALSE">
						<masterclipid>masterclip-246</masterclipid>
						<name>MVI_0361.MOVIBMulti</name>
						<enabled>TRUE</enabled>
						<duration>37748</duration>
						<rate>
							<timebase>25</timebase>
							<ntsc>FALSE</ntsc>
						</rate>
						<start>40141</start>
						<end>40171</end>
						<in>6416</in>
						<out>6446</out>
						<sequence id="sequence-129"/>
						<link>
							<linkclipref>clipitem-1334</linkclipref>
							<mediatype>audio</mediatype>
							<trackindex>1</trackindex>
							<clipindex>178</clipindex>
						</link>
						<link>
							<linkclipref>clipitem-1481</linkclipref>
							<mediatype>audio</mediatype>
							<trackindex>3</trackindex>
							<clipindex>132</clipindex>
						</link>
						<labels>
							<label2>Forest</label2>
						</labels>
					</clipitem>
					<clipitem id="clipitem-1335" frameBlend="FALSE">
						<masterclipid>masterclip-246</masterclipid>
						<name>MVI_0361.MOVIBMulti</name>
						<enabled>TRUE</enabled>
						<duration>37748</duration>
						<rate>
							<timebase>25</timebase>
							<ntsc>FALSE</ntsc>
						</rate>
						<start>40171</start>
						<end>40327</end>
						<in>6072</in>
						<out>6228</out>
						<sequence id="sequence-129"/>
							<filter>
								<effect>
									<name>Audio Levels</name>
									<effectid>audiolevels</effectid>
									<effectcategory>audiolevels</effectcategory>
									<effecttype>audiolevels</effecttype>
									<mediatype>audio</mediatype>
									<parameter authoringApp="PremierePro">
										<parameterid>level</parameterid>
										<name>Level</name>
										<valuemin>0</valuemin>
										<valuemax>3.98109</valuemax>
										<value>0.889139</value>
									</parameter>
								</effect>
							</filter>
						<link>
							<linkclipref>clipitem-1335</linkclipref>
							<mediatype>audio</mediatype>
							<trackindex>1</trackindex>
							<clipindex>179</clipindex>
						</link>
						<link>
							<linkclipref>clipitem-1482</linkclipref>
							<mediatype>audio</mediatype>
							<trackindex>3</trackindex>
							<clipindex>133</clipindex>
						</link>
						<labels>
							<label2>Forest</label2>
						</labels>
					</clipitem>
					<clipitem id="clipitem-1336" frameBlend="FALSE">
						<masterclipid>masterclip-246</masterclipid>
						<name>MVI_0361.MOVIBMulti</name>
						<enabled>TRUE</enabled>
						<duration>37748</duration>
						<rate>
							<timebase>25</timebase>
							<ntsc>FALSE</ntsc>
						</rate>
						<start>40327</start>
						<end>40406</end>
						<in>6296</in>
						<out>6375</out>
						<sequence id="sequence-129"/>
							<filter>
								<effect>
									<name>Audio Levels</name>
									<effectid>audiolevels</effectid>
									<effectcategory>audiolevels</effectcategory>
									<effecttype>audiolevels</effecttype>
									<mediatype>audio</mediatype>
									<parameter authoringApp="PremierePro">
										<parameterid>level</parameterid>
										<name>Level</name>
										<valuemin>0</valuemin>
										<valuemax>3.98109</valuemax>
										<value>0.889139</value>
									</parameter>
								</effect>
							</filter>
						<link>
							<linkclipref>clipitem-1336</linkclipref>
							<mediatype>audio</mediatype>
							<trackindex>1</trackindex>
							<clipindex>180</clipindex>
						</link>
						<link>
							<linkclipref>clipitem-1483</linkclipref>
							<mediatype>audio</mediatype>
							<trackindex>3</trackindex>
							<clipindex>134</clipindex>
						</link>
						<labels>
							<label2>Forest</label2>
						</labels>
					</clipitem>
					<clipitem id="clipitem-1337" frameBlend="FALSE">
						<masterclipid>masterclip-232</masterclipid>
						<name>MVI_0382.MOVIBMulti</name>
						<enabled>TRUE</enabled>
						<duration>13702</duration>
						<rate>
							<timebase>25</timebase>
							<ntsc>FALSE</ntsc>
						</rate>
						<start>40966</start>
						<end>41180</end>
						<in>6888</in>
						<out>7102</out>
						<sequence id="sequence-130" TL.SQAudioVisibleBase="0" TL.SQVideoVisibleBase="0" TL.SQVisibleBaseTime="0" TL.SQAVDividerPosition="0.5" TL.SQHideShyTracks="0" TL.SQHeaderWidth="188" Monitor.ProgramZoomOut="139221089280000" Monitor.ProgramZoomIn="0" TL.SQTimePerPixel="0.41640655612280186304019480303" AM.TrackVScrollPosition="0" AM.TrackScrollPosition="0" MZ.EditLine="17425497600000" MZ.Sequence.PreviewFrameSizeHeight="1080" MZ.Sequence.PreviewFrameSizeWidth="1920" MZ.Sequence.AudioTimeDisplayFormat="200" MZ.Sequence.PreviewRenderingClassID="1297630752" MZ.Sequence.PreviewRenderingPresetCodec="7" MZ.Sequence.PreviewRenderingPresetPath="EncoderPresets/SequencePreview/b39d0224-c728-4ee7-9886-ccf837b5247f/DNX 120 1080p 25.epr" MZ.Sequence.PreviewUseMaxRenderQuality="false" MZ.Sequence.PreviewUseMaxBitDepth="false" MZ.Sequence.EditingModeGUID="b39d0224-c728-4ee7-9886-ccf837b5247f" MZ.Sequence.VideoTimeDisplayFormat="101" MZ.WorkOutPoint="15240960000000" MZ.WorkInPoint="0">
							<duration>13479</duration>
							<rate>
								<timebase>25</timebase>
								<ntsc>FALSE</ntsc>
							</rate>
							<name>MVI_0382.MOVIBMulti</name>
							<media>
								<video>
									<format>
										<samplecharacteristics>
											<rate>
												<timebase>25</timebase>
												<ntsc>FALSE</ntsc>
											</rate>
											<codec>
												<name>Apple ProRes 422</name>
												<appspecificdata>
													<appname>Final Cut Pro</appname>
													<appmanufacturer>Apple Inc.</appmanufacturer>
													<appversion>7.0</appversion>
													<data>
														<qtcodec>
															<codecname>Apple ProRes 422</codecname>
															<codectypename>Apple ProRes 422</codectypename>
															<codectypecode>apcn</codectypecode>
															<codecvendorcode>appl</codecvendorcode>
															<spatialquality>1024</spatialquality>
															<temporalquality>0</temporalquality>
															<keyframerate>0</keyframerate>
															<datarate>0</datarate>
														</qtcodec>
													</data>
												</appspecificdata>
											</codec>
											<width>1920</width>
											<height>1080</height>
											<anamorphic>FALSE</anamorphic>
											<pixelaspectratio>square</pixelaspectratio>
											<fielddominance>none</fielddominance>
											<colordepth>24</colordepth>
										</samplecharacteristics>
									</format>
									<track TL.SQTrackShy="0" TL.SQTrackExpandedHeight="50" TL.SQTrackExpanded="1" MZ.TrackTargeted="0">
										<clipitem id="clipitem-1338" frameBlend="FALSE">
											<masterclipid>masterclip-233</masterclipid>
											<name>MVI_0382.MOV</name>
											<enabled>TRUE</enabled>
											<duration>13479</duration>
											<rate>
												<timebase>25</timebase>
												<ntsc>FALSE</ntsc>
											</rate>
											<start>0</start>
											<end>13479</end>
											<in>0</in>
											<out>13479</out>
											<alphatype>black</alphatype>
											<file id="file-208"/>
											<link>
												<linkclipref>clipitem-1338</linkclipref>
												<mediatype>video</mediatype>
												<trackindex>1</trackindex>
												<clipindex>1</clipindex>
											</link>
											<link>
												<linkclipref>clipitem-1341</linkclipref>
												<mediatype>audio</mediatype>
												<trackindex>1</trackindex>
												<clipindex>1</clipindex>
												<groupindex>1</groupindex>
											</link>
											<link>
												<linkclipref>clipitem-1342</linkclipref>
												<mediatype>audio</mediatype>
												<trackindex>2</trackindex>
												<clipindex>1</clipindex>
												<groupindex>1</groupindex>
											</link>
											<logginginfo>
												<description></description>
												<scene></scene>
												<shottake></shottake>
												<lognote></lognote>
											</logginginfo>
											<labels>
												<label2>Iris</label2>
											</labels>
										</clipitem>
										<enabled>TRUE</enabled>
										<locked>FALSE</locked>
									</track>
									<track TL.SQTrackShy="0" TL.SQTrackExpandedHeight="25" TL.SQTrackExpanded="0" MZ.TrackTargeted="0">
										<clipitem id="clipitem-1339" frameBlend="FALSE">
											<masterclipid>masterclip-234</masterclipid>
											<name>AA037101.MXF</name>
											<enabled>TRUE</enabled>
											<duration>2676</duration>
											<rate>
												<timebase>25</timebase>
												<ntsc>FALSE</ntsc>
											</rate>
											<start>1715</start>
											<end>4391</end>
											<in>0</in>
											<out>2676</out>
											<alphatype>none</alphatype>
											<file id="file-209"/>
											<logginginfo>
												<description></description>
												<scene></scene>
												<shottake>AA0371</shottake>
												<lognote></lognote>
											</logginginfo>
											<labels>
												<label2>Iris</label2>
											</labels>
										</clipitem>
										<enabled>TRUE</enabled>
										<locked>FALSE</locked>
									</track>
									<track TL.SQTrackShy="0" TL.SQTrackExpandedHeight="25" TL.SQTrackExpanded="0" MZ.TrackTargeted="0">
										<clipitem id="clipitem-1340" frameBlend="FALSE">
											<masterclipid>masterclip-235</masterclipid>
											<name>AA037201.MXF</name>
											<enabled>TRUE</enabled>
											<duration>9048</duration>
											<rate>
												<timebase>25</timebase>
												<ntsc>FALSE</ntsc>
											</rate>
											<start>4654</start>
											<end>13702</end>
											<in>0</in>
											<out>9048</out>
											<alphatype>none</alphatype>
											<file id="file-210"/>
											<logginginfo>
												<description></description>
												<scene></scene>
												<shottake>AA0372</shottake>
												<lognote></lognote>
											</logginginfo>
											<labels>
												<label2>Iris</label2>
											</labels>
										</clipitem>
										<enabled>TRUE</enabled>
										<locked>FALSE</locked>
									</track>
								</video>
								<audio>
									<format>
										<samplecharacteristics>
											<depth>16</depth>
											<samplerate>48000</samplerate>
										</samplecharacteristics>
									</format>
									<outputs>
										<group>
											<index>1</index>
											<numchannels>1</numchannels>
											<downmix>0</downmix>
											<channel>
												<index>1</index>
											</channel>
										</group>
										<group>
											<index>2</index>
											<numchannels>1</numchannels>
											<downmix>0</downmix>
											<channel>
												<index>2</index>
											</channel>
										</group>
										<group>
											<index>3</index>
											<numchannels>1</numchannels>
											<downmix>0</downmix>
											<channel>
												<index>3</index>
											</channel>
										</group>
										<group>
											<index>4</index>
											<numchannels>1</numchannels>
											<downmix>0</downmix>
											<channel>
												<index>4</index>
											</channel>
										</group>
										<group>
											<index>5</index>
											<numchannels>1</numchannels>
											<downmix>0</downmix>
											<channel>
												<index>5</index>
											</channel>
										</group>
										<group>
											<index>6</index>
											<numchannels>1</numchannels>
											<downmix>0</downmix>
											<channel>
												<index>6</index>
											</channel>
										</group>
									</outputs>
									<track TL.SQTrackAudioKeyframeStyle="0" TL.SQTrackShy="0" TL.SQTrackExpandedHeight="25" TL.SQTrackExpanded="0" MZ.TrackTargeted="1" PannerCurrentValue="0" PannerIsInverted="true" PannerStartKeyframe="-91445760000000000,0.,0,0,0,0,0,0" PannerName="Balance" currentExplodedTrackIndex="0" totalExplodedTrackCount="1" premiereTrackType="Stereo">
										<clipitem id="clipitem-1341" frameBlend="FALSE" PannerCurrentValue="0.5" PannerKeyframes="" PannerStartKeyframe="-91445760000000000,0.5,0,0,0,0,0,0" PannerIsInverted="true" PannerName="Pan">
											<masterclipid>masterclip-233</masterclipid>
											<name>MVI_0382.MOV</name>
											<enabled>TRUE</enabled>
											<duration>13479</duration>
											<rate>
												<timebase>25</timebase>
												<ntsc>FALSE</ntsc>
											</rate>
											<start>0</start>
											<end>13479</end>
											<in>0</in>
											<out>13479</out>
											<file id="file-208"/>
											<sourcetrack>
												<mediatype>audio</mediatype>
												<trackindex>1</trackindex>
											</sourcetrack>
												<filter>
													<effect>
														<name>Audio Pan</name>
														<effectid>audiopan</effectid>
														<effectcategory>audiopan</effectcategory>
														<effecttype>audiopan</effecttype>
														<mediatype>audio</mediatype>
														<parameter authoringApp="PremierePro">
															<parameterid>pan</parameterid>
															<name>Pan</name>
															<valuemin>-1</valuemin>
															<valuemax>1</valuemax>
															<value>0</value>
														</parameter>
													</effect>
												</filter>
											<link>
												<linkclipref>clipitem-1338</linkclipref>
												<mediatype>video</mediatype>
												<trackindex>1</trackindex>
												<clipindex>1</clipindex>
											</link>
											<link>
												<linkclipref>clipitem-1341</linkclipref>
												<mediatype>audio</mediatype>
												<trackindex>1</trackindex>
												<clipindex>1</clipindex>
												<groupindex>1</groupindex>
											</link>
											<link>
												<linkclipref>clipitem-1342</linkclipref>
												<mediatype>audio</mediatype>
												<trackindex>2</trackindex>
												<clipindex>1</clipindex>
												<groupindex>1</groupindex>
											</link>
											<logginginfo>
												<description></description>
												<scene></scene>
												<shottake></shottake>
												<lognote></lognote>
											</logginginfo>
											<labels>
												<label2>Iris</label2>
											</labels>
										</clipitem>
										<enabled>TRUE</enabled>
										<locked>FALSE</locked>
										<outputchannelindex>1</outputchannelindex>
									</track>
									<track TL.SQTrackAudioKeyframeStyle="0" TL.SQTrackShy="0" TL.SQTrackExpandedHeight="25" TL.SQTrackExpanded="0" MZ.TrackTargeted="1" PannerCurrentValue="1." PannerIsInverted="true" PannerStartKeyframe="-91445760000000000,1.,0,0,0,0,0,0" PannerName="Balance" currentExplodedTrackIndex="0" totalExplodedTrackCount="1" premiereTrackType="Stereo">
										<clipitem id="clipitem-1342" frameBlend="FALSE" PannerCurrentValue="0.5" PannerKeyframes="" PannerStartKeyframe="-91445760000000000,0.5,0,0,0,0,0,0" PannerIsInverted="true" PannerName="Pan">
											<masterclipid>masterclip-233</masterclipid>
											<name>MVI_0382.MOV</name>
											<enabled>TRUE</enabled>
											<duration>13479</duration>
											<rate>
												<timebase>25</timebase>
												<ntsc>FALSE</ntsc>
											</rate>
											<start>0</start>
											<end>13479</end>
											<in>0</in>
											<out>13479</out>
											<file id="file-208"/>
											<sourcetrack>
												<mediatype>audio</mediatype>
												<trackindex>2</trackindex>
											</sourcetrack>
												<filter>
													<effect>
														<name>Audio Pan</name>
														<effectid>audiopan</effectid>
														<effectcategory>audiopan</effectcategory>
														<effecttype>audiopan</effecttype>
														<mediatype>audio</mediatype>
														<parameter authoringApp="PremierePro">
															<parameterid>pan</parameterid>
															<name>Pan</name>
															<valuemin>-1</valuemin>
															<valuemax>1</valuemax>
															<value>0</value>
														</parameter>
													</effect>
												</filter>
											<link>
												<linkclipref>clipitem-1338</linkclipref>
												<mediatype>video</mediatype>
												<trackindex>1</trackindex>
												<clipindex>1</clipindex>
											</link>
											<link>
												<linkclipref>clipitem-1341</linkclipref>
												<mediatype>audio</mediatype>
												<trackindex>1</trackindex>
												<clipindex>1</clipindex>
												<groupindex>1</groupindex>
											</link>
											<link>
												<linkclipref>clipitem-1342</linkclipref>
												<mediatype>audio</mediatype>
												<trackindex>2</trackindex>
												<clipindex>1</clipindex>
												<groupindex>1</groupindex>
											</link>
											<logginginfo>
												<description></description>
												<scene></scene>
												<shottake></shottake>
												<lognote></lognote>
											</logginginfo>
											<labels>
												<label2>Iris</label2>
											</labels>
										</clipitem>
										<enabled>TRUE</enabled>
										<locked>FALSE</locked>
										<outputchannelindex>2</outputchannelindex>
									</track>
									<track TL.SQTrackAudioKeyframeStyle="0" TL.SQTrackShy="0" TL.SQTrackExpandedHeight="57" TL.SQTrackExpanded="1" MZ.TrackTargeted="1" PannerCurrentValue="0" PannerIsInverted="true" PannerStartKeyframe="-91445760000000000,0.,0,0,0,0,0,0" PannerName="Balance" currentExplodedTrackIndex="0" totalExplodedTrackCount="1" premiereTrackType="Stereo">
										<clipitem id="clipitem-1343" frameBlend="FALSE" PannerCurrentValue="0.5" PannerKeyframes="" PannerStartKeyframe="-91445760000000000,0.5,0,0,0,0,0,0" PannerIsInverted="true" PannerName="Pan">
											<masterclipid>masterclip-234</masterclipid>
											<name>AA037101.MXF</name>
											<enabled>TRUE</enabled>
											<duration>2676</duration>
											<rate>
												<timebase>25</timebase>
												<ntsc>FALSE</ntsc>
											</rate>
											<start>1715</start>
											<end>4391</end>
											<in>0</in>
											<out>2676</out>
											<file id="file-209"/>
											<sourcetrack>
												<mediatype>audio</mediatype>
												<trackindex>1</trackindex>
											</sourcetrack>
												<filter>
													<effect>
														<name>Audio Pan</name>
														<effectid>audiopan</effectid>
														<effectcategory>audiopan</effectcategory>
														<effecttype>audiopan</effecttype>
														<mediatype>audio</mediatype>
														<parameter authoringApp="PremierePro">
															<parameterid>pan</parameterid>
															<name>Pan</name>
															<valuemin>-1</valuemin>
															<valuemax>1</valuemax>
															<value>0</value>
														</parameter>
													</effect>
												</filter>
											<link>
												<linkclipref>clipitem-1343</linkclipref>
												<mediatype>audio</mediatype>
												<trackindex>3</trackindex>
												<clipindex>1</clipindex>
												<groupindex>1</groupindex>
											</link>
											<link>
												<linkclipref>clipitem-1344</linkclipref>
												<mediatype>audio</mediatype>
												<trackindex>4</trackindex>
												<clipindex>1</clipindex>
												<groupindex>1</groupindex>
											</link>
											<logginginfo>
												<description></description>
												<scene></scene>
												<shottake>AA0371</shottake>
												<lognote></lognote>
											</logginginfo>
											<labels>
												<label2>Iris</label2>
											</labels>
										</clipitem>
										<enabled>TRUE</enabled>
										<locked>FALSE</locked>
										<outputchannelindex>3</outputchannelindex>
									</track>
									<track TL.SQTrackAudioKeyframeStyle="0" TL.SQTrackShy="0" TL.SQTrackExpandedHeight="46" TL.SQTrackExpanded="1" MZ.TrackTargeted="1" PannerCurrentValue="1." PannerIsInverted="true" PannerStartKeyframe="-91445760000000000,1.,0,0,0,0,0,0" PannerName="Balance" currentExplodedTrackIndex="0" totalExplodedTrackCount="1" premiereTrackType="Stereo">
										<clipitem id="clipitem-1344" frameBlend="FALSE" PannerCurrentValue="0.5" PannerKeyframes="" PannerStartKeyframe="-91445760000000000,0.5,0,0,0,0,0,0" PannerIsInverted="true" PannerName="Pan">
											<masterclipid>masterclip-234</masterclipid>
											<name>AA037101.MXF</name>
											<enabled>TRUE</enabled>
											<duration>2676</duration>
											<rate>
												<timebase>25</timebase>
												<ntsc>FALSE</ntsc>
											</rate>
											<start>1715</start>
											<end>4391</end>
											<in>0</in>
											<out>2676</out>
											<file id="file-209"/>
											<sourcetrack>
												<mediatype>audio</mediatype>
												<trackindex>2</trackindex>
											</sourcetrack>
												<filter>
													<effect>
														<name>Audio Pan</name>
														<effectid>audiopan</effectid>
														<effectcategory>audiopan</effectcategory>
														<effecttype>audiopan</effecttype>
														<mediatype>audio</mediatype>
														<parameter authoringApp="PremierePro">
															<parameterid>pan</parameterid>
															<name>Pan</name>
															<valuemin>-1</valuemin>
															<valuemax>1</valuemax>
															<value>0</value>
														</parameter>
													</effect>
												</filter>
											<link>
												<linkclipref>clipitem-1343</linkclipref>
												<mediatype>audio</mediatype>
												<trackindex>3</trackindex>
												<clipindex>1</clipindex>
												<groupindex>1</groupindex>
											</link>
											<link>
												<linkclipref>clipitem-1344</linkclipref>
												<mediatype>audio</mediatype>
												<trackindex>4</trackindex>
												<clipindex>1</clipindex>
												<groupindex>1</groupindex>
											</link>
											<logginginfo>
												<description></description>
												<scene></scene>
												<shottake>AA0371</shottake>
												<lognote></lognote>
											</logginginfo>
											<labels>
												<label2>Iris</label2>
											</labels>
										</clipitem>
										<enabled>TRUE</enabled>
										<locked>FALSE</locked>
										<outputchannelindex>4</outputchannelindex>
									</track>
									<track TL.SQTrackAudioKeyframeStyle="0" TL.SQTrackShy="0" TL.SQTrackExpandedHeight="39" TL.SQTrackExpanded="1" MZ.TrackTargeted="1" PannerCurrentValue="0" PannerIsInverted="true" PannerStartKeyframe="-91445760000000000,0.,0,0,0,0,0,0" PannerName="Balance" currentExplodedTrackIndex="0" totalExplodedTrackCount="1" premiereTrackType="Stereo">
										<clipitem id="clipitem-1345" frameBlend="FALSE" PannerCurrentValue="0.5" PannerKeyframes="" PannerStartKeyframe="-91445760000000000,0.5,0,0,0,0,0,0" PannerIsInverted="true" PannerName="Pan">
											<masterclipid>masterclip-235</masterclipid>
											<name>AA037201.MXF</name>
											<enabled>TRUE</enabled>
											<duration>9048</duration>
											<rate>
												<timebase>25</timebase>
												<ntsc>FALSE</ntsc>
											</rate>
											<start>4654</start>
											<end>13702</end>
											<in>0</in>
											<out>9048</out>
											<file id="file-210"/>
											<sourcetrack>
												<mediatype>audio</mediatype>
												<trackindex>1</trackindex>
											</sourcetrack>
												<filter>
													<effect>
														<name>Audio Levels</name>
														<effectid>audiolevels</effectid>
														<effectcategory>audiolevels</effectcategory>
														<effecttype>audiolevels</effecttype>
														<mediatype>audio</mediatype>
														<parameter authoringApp="PremierePro">
															<parameterid>level</parameterid>
															<name>Level</name>
															<valuemin>0</valuemin>
															<valuemax>3.98109</valuemax>
															<value>1.99526</value>
														</parameter>
													</effect>
												</filter>
												<filter>
													<effect>
														<name>Audio Pan</name>
														<effectid>audiopan</effectid>
														<effectcategory>audiopan</effectcategory>
														<effecttype>audiopan</effecttype>
														<mediatype>audio</mediatype>
														<parameter authoringApp="PremierePro">
															<parameterid>pan</parameterid>
															<name>Pan</name>
															<valuemin>-1</valuemin>
															<valuemax>1</valuemax>
															<value>0</value>
														</parameter>
													</effect>
												</filter>
											<link>
												<linkclipref>clipitem-1345</linkclipref>
												<mediatype>audio</mediatype>
												<trackindex>5</trackindex>
												<clipindex>1</clipindex>
												<groupindex>1</groupindex>
											</link>
											<link>
												<linkclipref>clipitem-1346</linkclipref>
												<mediatype>audio</mediatype>
												<trackindex>6</trackindex>
												<clipindex>1</clipindex>
												<groupindex>1</groupindex>
											</link>
											<logginginfo>
												<description></description>
												<scene></scene>
												<shottake>AA0372</shottake>
												<lognote></lognote>
											</logginginfo>
											<labels>
												<label2>Iris</label2>
											</labels>
										</clipitem>
										<enabled>TRUE</enabled>
										<locked>FALSE</locked>
										<outputchannelindex>5</outputchannelindex>
									</track>
									<track TL.SQTrackAudioKeyframeStyle="0" TL.SQTrackShy="0" TL.SQTrackExpandedHeight="51" TL.SQTrackExpanded="1" MZ.TrackTargeted="1" PannerCurrentValue="1." PannerIsInverted="true" PannerStartKeyframe="-91445760000000000,1.,0,0,0,0,0,0" PannerName="Balance" currentExplodedTrackIndex="0" totalExplodedTrackCount="1" premiereTrackType="Stereo">
										<clipitem id="clipitem-1346" frameBlend="FALSE" PannerCurrentValue="0.5" PannerKeyframes="" PannerStartKeyframe="-91445760000000000,0.5,0,0,0,0,0,0" PannerIsInverted="true" PannerName="Pan">
											<masterclipid>masterclip-235</masterclipid>
											<name>AA037201.MXF</name>
											<enabled>TRUE</enabled>
											<duration>9048</duration>
											<rate>
												<timebase>25</timebase>
												<ntsc>FALSE</ntsc>
											</rate>
											<start>4654</start>
											<end>13702</end>
											<in>0</in>
											<out>9048</out>
											<file id="file-210"/>
											<sourcetrack>
												<mediatype>audio</mediatype>
												<trackindex>2</trackindex>
											</sourcetrack>
												<filter>
													<effect>
														<name>Audio Pan</name>
														<effectid>audiopan</effectid>
														<effectcategory>audiopan</effectcategory>
														<effecttype>audiopan</effecttype>
														<mediatype>audio</mediatype>
														<parameter authoringApp="PremierePro">
															<parameterid>pan</parameterid>
															<name>Pan</name>
															<valuemin>-1</valuemin>
															<valuemax>1</valuemax>
															<value>0</value>
														</parameter>
													</effect>
												</filter>
											<link>
												<linkclipref>clipitem-1345</linkclipref>
												<mediatype>audio</mediatype>
												<trackindex>5</trackindex>
												<clipindex>1</clipindex>
												<groupindex>1</groupindex>
											</link>
											<link>
												<linkclipref>clipitem-1346</linkclipref>
												<mediatype>audio</mediatype>
												<trackindex>6</trackindex>
												<clipindex>1</clipindex>
												<groupindex>1</groupindex>
											</link>
											<logginginfo>
												<description></description>
												<scene></scene>
												<shottake>AA0372</shottake>
												<lognote></lognote>
											</logginginfo>
											<labels>
												<label2>Iris</label2>
											</labels>
										</clipitem>
										<enabled>TRUE</enabled>
										<locked>FALSE</locked>
										<outputchannelindex>6</outputchannelindex>
									</track>
								</audio>
							</media>
							<timecode>
								<rate>
									<timebase>25</timebase>
									<ntsc>FALSE</ntsc>
								</rate>
								<string>00:00:00:00</string>
								<frame>0</frame>
								<displayformat>NDF</displayformat>
							</timecode>
						</sequence>
							<filter>
								<effect>
									<name>Audio Levels</name>
									<effectid>audiolevels</effectid>
									<effectcategory>audiolevels</effectcategory>
									<effecttype>audiolevels</effecttype>
									<mediatype>audio</mediatype>
									<parameter authoringApp="PremierePro">
										<parameterid>level</parameterid>
										<name>Level</name>
										<valuemin>0</valuemin>
										<valuemax>3.98109</valuemax>
										<value>1.13765</value>
									</parameter>
								</effect>
							</filter>
						<link>
							<linkclipref>clipitem-960</linkclipref>
							<mediatype>video</mediatype>
							<trackindex>1</trackindex>
							<clipindex>371</clipindex>
						</link>
						<link>
							<linkclipref>clipitem-1337</linkclipref>
							<mediatype>audio</mediatype>
							<trackindex>1</trackindex>
							<clipindex>181</clipindex>
						</link>
						<link>
							<linkclipref>clipitem-1484</linkclipref>
							<mediatype>audio</mediatype>
							<trackindex>3</trackindex>
							<clipindex>135</clipindex>
						</link>
						<labels>
							<label2>Forest</label2>
						</labels>
					</clipitem>
					<clipitem id="clipitem-1347" frameBlend="FALSE">
						<masterclipid>masterclip-232</masterclipid>
						<name>MVI_0382.MOVIBMulti</name>
						<enabled>TRUE</enabled>
						<duration>13702</duration>
						<rate>
							<timebase>25</timebase>
							<ntsc>FALSE</ntsc>
						</rate>
						<start>41180</start>
						<end>41304</end>
						<in>7609</in>
						<out>7733</out>
						<sequence id="sequence-130"/>
						<link>
							<linkclipref>clipitem-961</linkclipref>
							<mediatype>video</mediatype>
							<trackindex>1</trackindex>
							<clipindex>372</clipindex>
						</link>
						<link>
							<linkclipref>clipitem-1347</linkclipref>
							<mediatype>audio</mediatype>
							<trackindex>1</trackindex>
							<clipindex>182</clipindex>
						</link>
						<link>
							<linkclipref>clipitem-1485</linkclipref>
							<mediatype>audio</mediatype>
							<trackindex>3</trackindex>
							<clipindex>136</clipindex>
						</link>
						<labels>
							<label2>Forest</label2>
						</labels>
					</clipitem>
					<clipitem id="clipitem-1348" frameBlend="FALSE">
						<masterclipid>masterclip-232</masterclipid>
						<name>MVI_0382.MOVIBMulti</name>
						<enabled>TRUE</enabled>
						<duration>13702</duration>
						<rate>
							<timebase>25</timebase>
							<ntsc>FALSE</ntsc>
						</rate>
						<start>41304</start>
						<end>41354</end>
						<in>7753</in>
						<out>7803</out>
						<sequence id="sequence-130"/>
						<link>
							<linkclipref>clipitem-1348</linkclipref>
							<mediatype>audio</mediatype>
							<trackindex>1</trackindex>
							<clipindex>183</clipindex>
						</link>
						<link>
							<linkclipref>clipitem-1486</linkclipref>
							<mediatype>audio</mediatype>
							<trackindex>3</trackindex>
							<clipindex>137</clipindex>
						</link>
						<labels>
							<label2>Forest</label2>
						</labels>
					</clipitem>
					<clipitem id="clipitem-1349" frameBlend="FALSE">
						<masterclipid>masterclip-232</masterclipid>
						<name>MVI_0382.MOVIBMulti</name>
						<enabled>TRUE</enabled>
						<duration>13702</duration>
						<rate>
							<timebase>25</timebase>
							<ntsc>FALSE</ntsc>
						</rate>
						<start>41354</start>
						<end>41391</end>
						<in>7835</in>
						<out>7872</out>
						<sequence id="sequence-130"/>
						<link>
							<linkclipref>clipitem-1349</linkclipref>
							<mediatype>audio</mediatype>
							<trackindex>1</trackindex>
							<clipindex>184</clipindex>
						</link>
						<link>
							<linkclipref>clipitem-1487</linkclipref>
							<mediatype>audio</mediatype>
							<trackindex>3</trackindex>
							<clipindex>138</clipindex>
						</link>
						<labels>
							<label2>Forest</label2>
						</labels>
					</clipitem>
					<clipitem id="clipitem-1350" frameBlend="FALSE">
						<masterclipid>masterclip-232</masterclipid>
						<name>MVI_0382.MOVIBMulti</name>
						<enabled>TRUE</enabled>
						<duration>13702</duration>
						<rate>
							<timebase>25</timebase>
							<ntsc>FALSE</ntsc>
						</rate>
						<start>41391</start>
						<end>41655</end>
						<in>7987</in>
						<out>8251</out>
						<sequence id="sequence-130"/>
						<link>
							<linkclipref>clipitem-1350</linkclipref>
							<mediatype>audio</mediatype>
							<trackindex>1</trackindex>
							<clipindex>185</clipindex>
						</link>
						<link>
							<linkclipref>clipitem-1488</linkclipref>
							<mediatype>audio</mediatype>
							<trackindex>3</trackindex>
							<clipindex>139</clipindex>
						</link>
						<labels>
							<label2>Forest</label2>
						</labels>
					</clipitem>
					<clipitem id="clipitem-1351" frameBlend="FALSE">
						<masterclipid>masterclip-232</masterclipid>
						<name>MVI_0382.MOVIBMulti</name>
						<enabled>TRUE</enabled>
						<duration>13702</duration>
						<rate>
							<timebase>25</timebase>
							<ntsc>FALSE</ntsc>
						</rate>
						<start>41655</start>
						<end>41900</end>
						<in>11457</in>
						<out>11702</out>
						<sequence id="sequence-130"/>
						<labels>
							<label2>Forest</label2>
						</labels>
					</clipitem>
					<clipitem id="clipitem-1352" frameBlend="FALSE">
						<masterclipid>masterclip-255</masterclipid>
						<name>Felles_Avslutning3.MOV</name>
						<enabled>TRUE</enabled>
						<duration>1250</duration>
						<rate>
							<timebase>25</timebase>
							<ntsc>FALSE</ntsc>
						</rate>
						<start>41900</start>
						<end>43070</end>
						<in>57</in>
						<out>1227</out>
						<file id="file-228"/>
						<sourcetrack>
							<mediatype>audio</mediatype>
							<trackindex>1</trackindex>
						</sourcetrack>
						<link>
							<linkclipref>clipitem-969</linkclipref>
							<mediatype>video</mediatype>
							<trackindex>1</trackindex>
							<clipindex>380</clipindex>
						</link>
						<link>
							<linkclipref>clipitem-1352</linkclipref>
							<mediatype>audio</mediatype>
							<trackindex>1</trackindex>
							<clipindex>187</clipindex>
						</link>
						<logginginfo>
							<description></description>
							<scene></scene>
							<shottake></shottake>
							<lognote></lognote>
						</logginginfo>
						<labels>
							<label2>Iris</label2>
						</labels>
					</clipitem>
					<clipitem id="clipitem-1353" frameBlend="FALSE">
						<masterclipid>masterclip-256</masterclipid>
						<name>Rio (IBM).mov</name>
						<enabled>TRUE</enabled>
						<duration>10510</duration>
						<rate>
							<timebase>25</timebase>
							<ntsc>FALSE</ntsc>
						</rate>
						<start>43070</start>
						<end>43247</end>
						<in>7792</in>
						<out>7969</out>
						<file id="file-229"/>
						<sourcetrack>
							<mediatype>audio</mediatype>
							<trackindex>1</trackindex>
						</sourcetrack>
							<filter>
								<effect>
									<name>Audio Levels</name>
									<effectid>audiolevels</effectid>
									<effectcategory>audiolevels</effectcategory>
									<effecttype>audiolevels</effecttype>
									<mediatype>audio</mediatype>
									<parameter authoringApp="PremierePro">
										<parameterid>level</parameterid>
										<name>Level</name>
										<valuemin>0</valuemin>
										<valuemax>3.98109</valuemax>
										<value>0.0445625</value>
									</parameter>
								</effect>
							</filter>
						<link>
							<linkclipref>clipitem-970</linkclipref>
							<mediatype>video</mediatype>
							<trackindex>1</trackindex>
							<clipindex>381</clipindex>
						</link>
						<link>
							<linkclipref>clipitem-1353</linkclipref>
							<mediatype>audio</mediatype>
							<trackindex>1</trackindex>
							<clipindex>188</clipindex>
						</link>
						<link>
							<linkclipref>clipitem-1356</linkclipref>
							<mediatype>audio</mediatype>
							<trackindex>2</trackindex>
							<clipindex>3</clipindex>
						</link>
						<logginginfo>
							<description></description>
							<scene></scene>
							<shottake></shottake>
							<lognote></lognote>
						</logginginfo>
						<labels>
							<label2>Iris</label2>
						</labels>
					</clipitem>
					<enabled>TRUE</enabled>
					<locked>FALSE</locked>
					<outputchannelindex>1</outputchannelindex>
				</track>
				<track monotrack="TRUE" TL.SQTrackAudioKeyframeStyle="0" TL.SQTrackShy="0" TL.SQTrackExpandedHeight="65" TL.SQTrackExpanded="1" MZ.TrackTargeted="0" MZ.TrackName="sync 1 mono" PannerCurrentValue="0.5" PannerIsInverted="true" PannerStartKeyframe="-91445760000000000,0.5,0,0,0,0,0,0" PannerName="Pan" currentExplodedTrackIndex="1" totalExplodedTrackCount="2" premiereTrackType="Mono">
					<clipitem id="clipitem-1354" frameBlend="FALSE">
						<masterclipid>masterclip-191</masterclipid>
						<name>AA025001.MXF</name>
						<enabled>TRUE</enabled>
						<duration>2412</duration>
						<rate>
							<timebase>25</timebase>
							<ntsc>FALSE</ntsc>
						</rate>
						<start>29906</start>
						<end>29995</end>
						<in>517</in>
						<out>606</out>
						<file id="file-169"/>
						<sourcetrack>
							<mediatype>audio</mediatype>
							<trackindex>2</trackindex>
						</sourcetrack>
						<link>
							<linkclipref>clipitem-805</linkclipref>
							<mediatype>video</mediatype>
							<trackindex>1</trackindex>
							<clipindex>247</clipindex>
						</link>
						<link>
							<linkclipref>clipitem-1255</linkclipref>
							<mediatype>audio</mediatype>
							<trackindex>1</trackindex>
							<clipindex>126</clipindex>
						</link>
						<link>
							<linkclipref>clipitem-1354</linkclipref>
							<mediatype>audio</mediatype>
							<trackindex>2</trackindex>
							<clipindex>1</clipindex>
						</link>
						<logginginfo>
							<description></description>
							<scene></scene>
							<shottake>AA0250</shottake>
							<lognote></lognote>
						</logginginfo>
						<labels>
							<label2>Iris</label2>
						</labels>
					</clipitem>
					<clipitem id="clipitem-1355" frameBlend="FALSE">
						<masterclipid>masterclip-196</masterclipid>
						<name>AA024001.MXF</name>
						<enabled>TRUE</enabled>
						<duration>3936</duration>
						<rate>
							<timebase>25</timebase>
							<ntsc>FALSE</ntsc>
						</rate>
						<start>30232</start>
						<end>30262</end>
						<in>3421</in>
						<out>3451</out>
						<file id="file-173"/>
						<sourcetrack>
							<mediatype>audio</mediatype>
							<trackindex>2</trackindex>
						</sourcetrack>
						<logginginfo>
							<description></description>
							<scene></scene>
							<shottake>AA0240</shottake>
							<lognote></lognote>
						</logginginfo>
						<labels>
							<label2>Iris</label2>
						</labels>
					</clipitem>
					<clipitem id="clipitem-1356" frameBlend="FALSE">
						<masterclipid>masterclip-256</masterclipid>
						<name>Rio (IBM).mov</name>
						<enabled>TRUE</enabled>
						<duration>10510</duration>
						<rate>
							<timebase>25</timebase>
							<ntsc>FALSE</ntsc>
						</rate>
						<start>43070</start>
						<end>43247</end>
						<in>7792</in>
						<out>7969</out>
						<file id="file-229"/>
						<sourcetrack>
							<mediatype>audio</mediatype>
							<trackindex>2</trackindex>
						</sourcetrack>
							<filter>
								<effect>
									<name>Audio Levels</name>
									<effectid>audiolevels</effectid>
									<effectcategory>audiolevels</effectcategory>
									<effecttype>audiolevels</effecttype>
									<mediatype>audio</mediatype>
									<parameter authoringApp="PremierePro">
										<parameterid>level</parameterid>
										<name>Level</name>
										<valuemin>0</valuemin>
										<valuemax>3.98109</valuemax>
										<value>0.0445625</value>
									</parameter>
								</effect>
							</filter>
						<link>
							<linkclipref>clipitem-970</linkclipref>
							<mediatype>video</mediatype>
							<trackindex>1</trackindex>
							<clipindex>381</clipindex>
						</link>
						<link>
							<linkclipref>clipitem-1353</linkclipref>
							<mediatype>audio</mediatype>
							<trackindex>1</trackindex>
							<clipindex>188</clipindex>
						</link>
						<link>
							<linkclipref>clipitem-1356</linkclipref>
							<mediatype>audio</mediatype>
							<trackindex>2</trackindex>
							<clipindex>3</clipindex>
						</link>
						<logginginfo>
							<description></description>
							<scene></scene>
							<shottake></shottake>
							<lognote></lognote>
						</logginginfo>
						<labels>
							<label2>Iris</label2>
						</labels>
					</clipitem>
					<enabled>TRUE</enabled>
					<locked>FALSE</locked>
					<outputchannelindex>2</outputchannelindex>
				</track>
				<track monotrack="TRUE" TL.SQTrackAudioKeyframeStyle="0" TL.SQTrackShy="0" TL.SQTrackExpandedHeight="51" TL.SQTrackExpanded="1" MZ.TrackTargeted="0" MZ.TrackName="sync 2 mono" PannerCurrentValue="0.5" PannerIsInverted="true" PannerStartKeyframe="-91445760000000000,0.5,0,0,0,0,0,0" PannerName="Pan" currentExplodedTrackIndex="0" totalExplodedTrackCount="2" premiereTrackType="Mono">
					<clipitem id="clipitem-1357" frameBlend="FALSE">
						<masterclipid>masterclip-10</masterclipid>
						<name>AA034901.MXF</name>
						<enabled>TRUE</enabled>
						<duration>7584</duration>
						<rate>
							<timebase>25</timebase>
							<ntsc>FALSE</ntsc>
						</rate>
						<start>426</start>
						<end>510</end>
						<in>736</in>
						<out>820</out>
						<file id="file-9"/>
						<sourcetrack>
							<mediatype>audio</mediatype>
							<trackindex>2</trackindex>
						</sourcetrack>
							<filter>
								<effect>
									<name>Audio Levels</name>
									<effectid>audiolevels</effectid>
									<effectcategory>audiolevels</effectcategory>
									<effecttype>audiolevels</effecttype>
									<mediatype>audio</mediatype>
									<parameter authoringApp="PremierePro">
										<parameterid>level</parameterid>
										<name>Level</name>
										<valuemin>0</valuemin>
										<valuemax>3.98109</valuemax>
										<value>1.18867</value>
									</parameter>
								</effect>
							</filter>
						<link>
							<linkclipref>clipitem-999</linkclipref>
							<mediatype>audio</mediatype>
							<trackindex>1</trackindex>
							<clipindex>2</clipindex>
						</link>
						<link>
							<linkclipref>clipitem-1357</linkclipref>
							<mediatype>audio</mediatype>
							<trackindex>3</trackindex>
							<clipindex>1</clipindex>
						</link>
						<logginginfo>
							<description></description>
							<scene></scene>
							<shottake>AA0349</shottake>
							<lognote></lognote>
						</logginginfo>
						<labels>
							<label2>Iris</label2>
						</labels>
					</clipitem>
					<clipitem id="clipitem-1358" frameBlend="FALSE">
						<masterclipid>masterclip-14</masterclipid>
						<name>AA050001.MXF</name>
						<enabled>TRUE</enabled>
						<duration>10644</duration>
						<rate>
							<timebase>25</timebase>
							<ntsc>FALSE</ntsc>
						</rate>
						<start>601</start>
						<end>716</end>
						<in>7710</in>
						<out>7825</out>
						<file id="file-13"/>
						<sourcetrack>
							<mediatype>audio</mediatype>
							<trackindex>2</trackindex>
						</sourcetrack>
							<filter>
								<effect>
									<name>Audio Levels</name>
									<effectid>audiolevels</effectid>
									<effectcategory>audiolevels</effectcategory>
									<effecttype>audiolevels</effecttype>
									<mediatype>audio</mediatype>
									<parameter authoringApp="PremierePro">
										<parameterid>level</parameterid>
										<name>Level</name>
										<valuemin>0</valuemin>
										<valuemax>3.98109</valuemax>
										<value>0.792446</value>
									</parameter>
								</effect>
							</filter>
							<marker>
								<comment>vi har valgmuligheter</comment>
								<name>ikke redd</name>
								<in>4502</in>
								<out>-1</out>
							</marker>
							<marker>
								<comment>det er ikke ond vilje, men alle de gode formￃﾥlene vil bli utvidet</comment>
								<name>gode formￃﾥl</name>
								<in>2400</in>
								<out>-1</out>
							</marker>
							<marker>
								<comment>har vi stￃﾸrre krav pￃﾥ ￃﾥ ha vￃﾥrt privatliv i fred</comment>
								<name>hvis vi er lovlydige</name>
								<in>8469</in>
								<out>-1</out>
							</marker>
							<marker>
								<comment></comment>
								<name></name>
								<in>2965</in>
								<out>-1</out>
							</marker>
							<marker>
								<comment>er du redd nￃﾥr mer og mer blir intelligent</comment>
								<name>frykter du </name>
								<in>3267</in>
								<out>-1</out>
							</marker>
							<marker>
								<comment></comment>
								<name></name>
								<in>3906</in>
								<out>-1</out>
							</marker>
							<marker>
								<comment>er ikke en vaksine mot totalitￃﾦre tendenser</comment>
								<name>demokrati</name>
								<in>5809</in>
								<out>-1</out>
							</marker>
							<marker>
								<comment>velger selv hvilken vei vi vil gￃﾥ</comment>
								<name>kan velge vei</name>
								<in>4698</in>
								<out>-1</out>
							</marker>
							<marker>
								<comment>hva blir de faktiske fￃﾸlgen dersom lt vi gjￃﾸr blr registrert</comment>
								<name>ikke tillit</name>
								<in>1338</in>
								<out>-1</out>
							</marker>
							<marker>
								<comment>vil dukke opp nye formￃﾥl og de vil kunne utvides</comment>
								<name>nye formￃﾥl</name>
								<in>9188</in>
								<out>-1</out>
							</marker>
						<logginginfo>
							<description></description>
							<scene></scene>
							<shottake>AA0500</shottake>
							<lognote></lognote>
						</logginginfo>
						<labels>
							<label2>Iris</label2>
						</labels>
					</clipitem>
					<clipitem id="clipitem-1359" frameBlend="FALSE">
						<masterclipid>masterclip-26</masterclipid>
						<name>AA310801.MXF</name>
						<enabled>TRUE</enabled>
						<duration>1032</duration>
						<rate>
							<timebase>25</timebase>
							<ntsc>FALSE</ntsc>
						</rate>
						<start>2698</start>
						<end>2913</end>
						<in>248</in>
						<out>463</out>
						<file id="file-25"/>
						<sourcetrack>
							<mediatype>audio</mediatype>
							<trackindex>1</trackindex>
						</sourcetrack>
							<filter>
								<effect>
									<name>Audio Levels</name>
									<effectid>audiolevels</effectid>
									<effectcategory>audiolevels</effectcategory>
									<effecttype>audiolevels</effecttype>
									<mediatype>audio</mediatype>
									<parameter authoringApp="PremierePro">
										<parameterid>level</parameterid>
										<name>Level</name>
										<valuemin>0</valuemin>
										<valuemax>3.98109</valuemax>
										<value>1.99053</value>
									</parameter>
								</effect>
							</filter>
						<logginginfo>
							<description></description>
							<scene></scene>
							<shottake>AA3108</shottake>
							<lognote></lognote>
						</logginginfo>
						<labels>
							<label2>Iris</label2>
						</labels>
					</clipitem>
					<clipitem id="clipitem-1360" frameBlend="FALSE">
						<masterclipid>masterclip-26</masterclipid>
						<name>AA310801.MXF</name>
						<enabled>TRUE</enabled>
						<duration>1032</duration>
						<rate>
							<timebase>25</timebase>
							<ntsc>FALSE</ntsc>
						</rate>
						<start>2913</start>
						<end>2935</end>
						<in>769</in>
						<out>791</out>
						<file id="file-25"/>
						<sourcetrack>
							<mediatype>audio</mediatype>
							<trackindex>1</trackindex>
						</sourcetrack>
						<link>
							<linkclipref>clipitem-412</linkclipref>
							<mediatype>video</mediatype>
							<trackindex>1</trackindex>
							<clipindex>24</clipindex>
						</link>
						<link>
							<linkclipref>clipitem-1005</linkclipref>
							<mediatype>audio</mediatype>
							<trackindex>1</trackindex>
							<clipindex>8</clipindex>
						</link>
						<link>
							<linkclipref>clipitem-1360</linkclipref>
							<mediatype>audio</mediatype>
							<trackindex>3</trackindex>
							<clipindex>4</clipindex>
						</link>
						<logginginfo>
							<description></description>
							<scene></scene>
							<shottake>AA3108</shottake>
							<lognote></lognote>
						</logginginfo>
						<labels>
							<label2>Iris</label2>
						</labels>
					</clipitem>
					<clipitem id="clipitem-1361" frameBlend="FALSE">
						<masterclipid>masterclip-26</masterclipid>
						<name>AA310801.MXF</name>
						<enabled>TRUE</enabled>
						<duration>1032</duration>
						<rate>
							<timebase>25</timebase>
							<ntsc>FALSE</ntsc>
						</rate>
						<start>2935</start>
						<end>2969</end>
						<in>817</in>
						<out>851</out>
						<file id="file-25"/>
						<sourcetrack>
							<mediatype>audio</mediatype>
							<trackindex>1</trackindex>
						</sourcetrack>
						<link>
							<linkclipref>clipitem-413</linkclipref>
							<mediatype>video</mediatype>
							<trackindex>1</trackindex>
							<clipindex>25</clipindex>
						</link>
						<link>
							<linkclipref>clipitem-1006</linkclipref>
							<mediatype>audio</mediatype>
							<trackindex>1</trackindex>
							<clipindex>9</clipindex>
						</link>
						<link>
							<linkclipref>clipitem-1361</linkclipref>
							<mediatype>audio</mediatype>
							<trackindex>3</trackindex>
							<clipindex>5</clipindex>
						</link>
						<logginginfo>
							<description></description>
							<scene></scene>
							<shottake>AA3108</shottake>
							<lognote></lognote>
						</logginginfo>
						<labels>
							<label2>Iris</label2>
						</labels>
					</clipitem>
					<clipitem id="clipitem-1362" frameBlend="FALSE">
						<masterclipid>masterclip-29</masterclipid>
						<name>AA312601.MXF</name>
						<enabled>TRUE</enabled>
						<duration>1236</duration>
						<rate>
							<timebase>25</timebase>
							<ntsc>FALSE</ntsc>
						</rate>
						<start>2969</start>
						<end>3267</end>
						<in>422</in>
						<out>720</out>
						<file id="file-27"/>
						<sourcetrack>
							<mediatype>audio</mediatype>
							<trackindex>2</trackindex>
						</sourcetrack>
							<filter>
								<effect>
									<name>Audio Levels</name>
									<effectid>audiolevels</effectid>
									<effectcategory>audiolevels</effectcategory>
									<effecttype>audiolevels</effecttype>
									<mediatype>audio</mediatype>
									<parameter authoringApp="PremierePro">
										<parameterid>level</parameterid>
										<name>Level</name>
										<valuemin>0</valuemin>
										<valuemax>3.98109</valuemax>
										<value>1.58114</value>
									</parameter>
								</effect>
							</filter>
						<link>
							<linkclipref>clipitem-1007</linkclipref>
							<mediatype>audio</mediatype>
							<trackindex>1</trackindex>
							<clipindex>10</clipindex>
						</link>
						<link>
							<linkclipref>clipitem-1362</linkclipref>
							<mediatype>audio</mediatype>
							<trackindex>3</trackindex>
							<clipindex>6</clipindex>
						</link>
						<logginginfo>
							<description></description>
							<scene></scene>
							<shottake>AA3126</shottake>
							<lognote></lognote>
						</logginginfo>
						<labels>
							<label2>Iris</label2>
						</labels>
					</clipitem>
					<clipitem id="clipitem-1363" frameBlend="FALSE">
						<masterclipid>masterclip-31</masterclipid>
						<name>AA312801.MXF</name>
						<enabled>TRUE</enabled>
						<duration>336</duration>
						<rate>
							<timebase>25</timebase>
							<ntsc>FALSE</ntsc>
						</rate>
						<start>3267</start>
						<end>3464</end>
						<in>42</in>
						<out>239</out>
						<file id="file-29"/>
						<sourcetrack>
							<mediatype>audio</mediatype>
							<trackindex>1</trackindex>
						</sourcetrack>
							<filter>
								<effect>
									<name>Audio Levels</name>
									<effectid>audiolevels</effectid>
									<effectcategory>audiolevels</effectcategory>
									<effecttype>audiolevels</effecttype>
									<mediatype>audio</mediatype>
									<parameter authoringApp="PremierePro">
										<parameterid>level</parameterid>
										<name>Level</name>
										<valuemin>0</valuemin>
										<valuemax>3.98109</valuemax>
										<value>1.11936</value>
									</parameter>
								</effect>
							</filter>
						<link>
							<linkclipref>clipitem-424</linkclipref>
							<mediatype>video</mediatype>
							<trackindex>1</trackindex>
							<clipindex>28</clipindex>
						</link>
						<link>
							<linkclipref>clipitem-1008</linkclipref>
							<mediatype>audio</mediatype>
							<trackindex>1</trackindex>
							<clipindex>11</clipindex>
						</link>
						<link>
							<linkclipref>clipitem-1363</linkclipref>
							<mediatype>audio</mediatype>
							<trackindex>3</trackindex>
							<clipindex>7</clipindex>
						</link>
						<logginginfo>
							<description></description>
							<scene></scene>
							<shottake>AA3128</shottake>
							<lognote></lognote>
						</logginginfo>
						<labels>
							<label2>Iris</label2>
						</labels>
					</clipitem>
					<clipitem id="clipitem-1364" frameBlend="FALSE">
						<masterclipid>masterclip-32</masterclipid>
						<name>MVI_9583.MOV</name>
						<enabled>TRUE</enabled>
						<duration>397</duration>
						<rate>
							<timebase>25</timebase>
							<ntsc>FALSE</ntsc>
						</rate>
						<start>3464</start>
						<end>3543</end>
						<in>243</in>
						<out>322</out>
						<file id="file-30"/>
						<sourcetrack>
							<mediatype>audio</mediatype>
							<trackindex>2</trackindex>
						</sourcetrack>
						<link>
							<linkclipref>clipitem-425</linkclipref>
							<mediatype>video</mediatype>
							<trackindex>1</trackindex>
							<clipindex>29</clipindex>
						</link>
						<link>
							<linkclipref>clipitem-1009</linkclipref>
							<mediatype>audio</mediatype>
							<trackindex>1</trackindex>
							<clipindex>12</clipindex>
						</link>
						<link>
							<linkclipref>clipitem-1364</linkclipref>
							<mediatype>audio</mediatype>
							<trackindex>3</trackindex>
							<clipindex>8</clipindex>
						</link>
						<logginginfo>
							<description></description>
							<scene></scene>
							<shottake></shottake>
							<lognote></lognote>
						</logginginfo>
						<labels>
							<label2>Iris</label2>
						</labels>
					</clipitem>
					<clipitem id="clipitem-1365" frameBlend="FALSE">
						<masterclipid>masterclip-33</masterclipid>
						<name>AA315901.MXF</name>
						<enabled>TRUE</enabled>
						<duration>816</duration>
						<rate>
							<timebase>25</timebase>
							<ntsc>FALSE</ntsc>
						</rate>
						<start>3543</start>
						<end>3619</end>
						<in>604</in>
						<out>680</out>
						<file id="file-31"/>
						<sourcetrack>
							<mediatype>audio</mediatype>
							<trackindex>2</trackindex>
						</sourcetrack>
							<filter>
								<effect>
									<name>Audio Levels</name>
									<effectid>audiolevels</effectid>
									<effectcategory>audiolevels</effectcategory>
									<effecttype>audiolevels</effecttype>
									<mediatype>audio</mediatype>
									<parameter authoringApp="PremierePro">
										<parameterid>level</parameterid>
										<name>Level</name>
										<valuemin>0</valuemin>
										<valuemax>3.98109</valuemax>
										<value>0.889139</value>
									</parameter>
								</effect>
							</filter>
						<link>
							<linkclipref>clipitem-426</linkclipref>
							<mediatype>video</mediatype>
							<trackindex>1</trackindex>
							<clipindex>30</clipindex>
						</link>
						<link>
							<linkclipref>clipitem-1010</linkclipref>
							<mediatype>audio</mediatype>
							<trackindex>1</trackindex>
							<clipindex>13</clipindex>
						</link>
						<link>
							<linkclipref>clipitem-1365</linkclipref>
							<mediatype>audio</mediatype>
							<trackindex>3</trackindex>
							<clipindex>9</clipindex>
						</link>
						<logginginfo>
							<description></description>
							<scene></scene>
							<shottake>AA3159</shottake>
							<lognote></lognote>
						</logginginfo>
						<labels>
							<label2>Iris</label2>
						</labels>
					</clipitem>
					<clipitem id="clipitem-1366" frameBlend="FALSE">
						<masterclipid>masterclip-34</masterclipid>
						<name>MVI_9564.MOV</name>
						<enabled>TRUE</enabled>
						<duration>1090</duration>
						<rate>
							<timebase>25</timebase>
							<ntsc>FALSE</ntsc>
						</rate>
						<start>3619</start>
						<end>3656</end>
						<in>896</in>
						<out>933</out>
						<file id="file-32"/>
						<sourcetrack>
							<mediatype>audio</mediatype>
							<trackindex>2</trackindex>
						</sourcetrack>
						<link>
							<linkclipref>clipitem-427</linkclipref>
							<mediatype>video</mediatype>
							<trackindex>1</trackindex>
							<clipindex>31</clipindex>
						</link>
						<link>
							<linkclipref>clipitem-1011</linkclipref>
							<mediatype>audio</mediatype>
							<trackindex>1</trackindex>
							<clipindex>14</clipindex>
						</link>
						<link>
							<linkclipref>clipitem-1366</linkclipref>
							<mediatype>audio</mediatype>
							<trackindex>3</trackindex>
							<clipindex>10</clipindex>
						</link>
						<logginginfo>
							<description></description>
							<scene></scene>
							<shottake></shottake>
							<lognote></lognote>
						</logginginfo>
						<labels>
							<label2>Iris</label2>
						</labels>
					</clipitem>
					<clipitem id="clipitem-1367" frameBlend="FALSE">
						<masterclipid>masterclip-34</masterclipid>
						<name>MVI_9564.MOV</name>
						<enabled>TRUE</enabled>
						<duration>1090</duration>
						<rate>
							<timebase>25</timebase>
							<ntsc>FALSE</ntsc>
						</rate>
						<start>3656</start>
						<end>3709</end>
						<in>771</in>
						<out>824</out>
						<file id="file-32"/>
						<sourcetrack>
							<mediatype>audio</mediatype>
							<trackindex>2</trackindex>
						</sourcetrack>
						<link>
							<linkclipref>clipitem-1012</linkclipref>
							<mediatype>audio</mediatype>
							<trackindex>1</trackindex>
							<clipindex>15</clipindex>
						</link>
						<link>
							<linkclipref>clipitem-1367</linkclipref>
							<mediatype>audio</mediatype>
							<trackindex>3</trackindex>
							<clipindex>11</clipindex>
						</link>
						<logginginfo>
							<description></description>
							<scene></scene>
							<shottake></shottake>
							<lognote></lognote>
						</logginginfo>
						<labels>
							<label2>Iris</label2>
						</labels>
					</clipitem>
					<clipitem id="clipitem-1368" frameBlend="FALSE">
						<masterclipid>masterclip-35</masterclipid>
						<name>AA313201.MXFMulticam</name>
						<enabled>TRUE</enabled>
						<duration>1788</duration>
						<rate>
							<timebase>25</timebase>
							<ntsc>FALSE</ntsc>
						</rate>
						<start>3709</start>
						<end>3787</end>
						<in>348</in>
						<out>426</out>
						<sequence id="sequence-111"/>
						<link>
							<linkclipref>clipitem-428</linkclipref>
							<mediatype>video</mediatype>
							<trackindex>1</trackindex>
							<clipindex>32</clipindex>
						</link>
						<link>
							<linkclipref>clipitem-1013</linkclipref>
							<mediatype>audio</mediatype>
							<trackindex>1</trackindex>
							<clipindex>16</clipindex>
						</link>
						<link>
							<linkclipref>clipitem-1368</linkclipref>
							<mediatype>audio</mediatype>
							<trackindex>3</trackindex>
							<clipindex>12</clipindex>
						</link>
						<labels>
							<label2>Forest</label2>
						</labels>
					</clipitem>
					<clipitem id="clipitem-1369" frameBlend="FALSE">
						<masterclipid>masterclip-35</masterclipid>
						<name>AA313201.MXFMulticam</name>
						<enabled>TRUE</enabled>
						<duration>1788</duration>
						<rate>
							<timebase>25</timebase>
							<ntsc>FALSE</ntsc>
						</rate>
						<start>3787</start>
						<end>3820</end>
						<in>567</in>
						<out>600</out>
						<sequence id="sequence-111"/>
						<link>
							<linkclipref>clipitem-1020</linkclipref>
							<mediatype>audio</mediatype>
							<trackindex>1</trackindex>
							<clipindex>17</clipindex>
						</link>
						<link>
							<linkclipref>clipitem-1369</linkclipref>
							<mediatype>audio</mediatype>
							<trackindex>3</trackindex>
							<clipindex>13</clipindex>
						</link>
						<labels>
							<label2>Forest</label2>
						</labels>
					</clipitem>
					<clipitem id="clipitem-1370" frameBlend="FALSE">
						<masterclipid>masterclip-36</masterclipid>
						<name>AA313201.MXF</name>
						<enabled>TRUE</enabled>
						<duration>1788</duration>
						<rate>
							<timebase>25</timebase>
							<ntsc>FALSE</ntsc>
						</rate>
						<start>3820</start>
						<end>3911</end>
						<in>615</in>
						<out>706</out>
						<file id="file-33"/>
						<sourcetrack>
							<mediatype>audio</mediatype>
							<trackindex>2</trackindex>
						</sourcetrack>
						<link>
							<linkclipref>clipitem-1021</linkclipref>
							<mediatype>audio</mediatype>
							<trackindex>1</trackindex>
							<clipindex>18</clipindex>
						</link>
						<link>
							<linkclipref>clipitem-1370</linkclipref>
							<mediatype>audio</mediatype>
							<trackindex>3</trackindex>
							<clipindex>14</clipindex>
						</link>
						<logginginfo>
							<description></description>
							<scene></scene>
							<shottake>AA3132</shottake>
							<lognote></lognote>
						</logginginfo>
						<labels>
							<label2>Iris</label2>
						</labels>
					</clipitem>
					<clipitem id="clipitem-1371" frameBlend="FALSE">
						<masterclipid>masterclip-35</masterclipid>
						<name>AA313201.MXFMulticam</name>
						<enabled>TRUE</enabled>
						<duration>1788</duration>
						<rate>
							<timebase>25</timebase>
							<ntsc>FALSE</ntsc>
						</rate>
						<start>3911</start>
						<end>4019</end>
						<in>810</in>
						<out>918</out>
						<sequence id="sequence-111"/>
						<link>
							<linkclipref>clipitem-437</linkclipref>
							<mediatype>video</mediatype>
							<trackindex>1</trackindex>
							<clipindex>35</clipindex>
						</link>
						<link>
							<linkclipref>clipitem-1022</linkclipref>
							<mediatype>audio</mediatype>
							<trackindex>1</trackindex>
							<clipindex>19</clipindex>
						</link>
						<link>
							<linkclipref>clipitem-1371</linkclipref>
							<mediatype>audio</mediatype>
							<trackindex>3</trackindex>
							<clipindex>15</clipindex>
						</link>
						<labels>
							<label2>Forest</label2>
						</labels>
					</clipitem>
					<clipitem id="clipitem-1372" frameBlend="FALSE">
						<masterclipid>masterclip-36</masterclipid>
						<name>AA313201.MXF</name>
						<enabled>TRUE</enabled>
						<duration>1788</duration>
						<rate>
							<timebase>25</timebase>
							<ntsc>FALSE</ntsc>
						</rate>
						<start>4019</start>
						<end>4046</end>
						<in>949</in>
						<out>976</out>
						<file id="file-33"/>
						<sourcetrack>
							<mediatype>audio</mediatype>
							<trackindex>2</trackindex>
						</sourcetrack>
						<link>
							<linkclipref>clipitem-1023</linkclipref>
							<mediatype>audio</mediatype>
							<trackindex>1</trackindex>
							<clipindex>20</clipindex>
						</link>
						<link>
							<linkclipref>clipitem-1372</linkclipref>
							<mediatype>audio</mediatype>
							<trackindex>3</trackindex>
							<clipindex>16</clipindex>
						</link>
						<logginginfo>
							<description></description>
							<scene></scene>
							<shottake>AA3132</shottake>
							<lognote></lognote>
						</logginginfo>
						<labels>
							<label2>Iris</label2>
						</labels>
					</clipitem>
					<clipitem id="clipitem-1373" frameBlend="FALSE">
						<masterclipid>masterclip-36</masterclipid>
						<name>AA313201.MXF</name>
						<enabled>TRUE</enabled>
						<duration>1788</duration>
						<rate>
							<timebase>25</timebase>
							<ntsc>FALSE</ntsc>
						</rate>
						<start>4046</start>
						<end>4727</end>
						<in>1032</in>
						<out>1713</out>
						<file id="file-33"/>
						<sourcetrack>
							<mediatype>audio</mediatype>
							<trackindex>2</trackindex>
						</sourcetrack>
						<link>
							<linkclipref>clipitem-1024</linkclipref>
							<mediatype>audio</mediatype>
							<trackindex>1</trackindex>
							<clipindex>21</clipindex>
						</link>
						<link>
							<linkclipref>clipitem-1373</linkclipref>
							<mediatype>audio</mediatype>
							<trackindex>3</trackindex>
							<clipindex>17</clipindex>
						</link>
						<logginginfo>
							<description></description>
							<scene></scene>
							<shottake>AA3132</shottake>
							<lognote></lognote>
						</logginginfo>
						<labels>
							<label2>Iris</label2>
						</labels>
					</clipitem>
					<clipitem id="clipitem-1374" frameBlend="FALSE">
						<masterclipid>masterclip-35</masterclipid>
						<name>AA313201.MXFMulticam</name>
						<enabled>TRUE</enabled>
						<duration>1788</duration>
						<rate>
							<timebase>25</timebase>
							<ntsc>FALSE</ntsc>
						</rate>
						<start>4727</start>
						<end>4728</end>
						<in>1713</in>
						<out>1714</out>
						<sequence id="sequence-111"/>
							<filter>
								<effect>
									<name>Audio Levels</name>
									<effectid>audiolevels</effectid>
									<effectcategory>audiolevels</effectcategory>
									<effecttype>audiolevels</effecttype>
									<mediatype>audio</mediatype>
									<parameter authoringApp="PremierePro">
										<parameterid>level</parameterid>
										<name>Level</name>
										<valuemin>0</valuemin>
										<valuemax>3.98109</valuemax>
										<value>1.58114</value>
									</parameter>
								</effect>
							</filter>
						<link>
							<linkclipref>clipitem-1025</linkclipref>
							<mediatype>audio</mediatype>
							<trackindex>1</trackindex>
							<clipindex>22</clipindex>
						</link>
						<link>
							<linkclipref>clipitem-1374</linkclipref>
							<mediatype>audio</mediatype>
							<trackindex>3</trackindex>
							<clipindex>18</clipindex>
						</link>
						<labels>
							<label2>Forest</label2>
						</labels>
					</clipitem>
					<clipitem id="clipitem-1375" frameBlend="FALSE">
						<masterclipid>masterclip-44</masterclipid>
						<name>AA313701.MXFMulticam</name>
						<enabled>TRUE</enabled>
						<duration>14040</duration>
						<rate>
							<timebase>25</timebase>
							<ntsc>FALSE</ntsc>
						</rate>
						<start>4993</start>
						<end>5039</end>
						<in>6952</in>
						<out>6998</out>
						<sequence id="sequence-112"/>
						<link>
							<linkclipref>clipitem-1026</linkclipref>
							<mediatype>audio</mediatype>
							<trackindex>1</trackindex>
							<clipindex>23</clipindex>
						</link>
						<link>
							<linkclipref>clipitem-1375</linkclipref>
							<mediatype>audio</mediatype>
							<trackindex>3</trackindex>
							<clipindex>19</clipindex>
						</link>
						<labels>
							<label2>Forest</label2>
						</labels>
					</clipitem>
					<clipitem id="clipitem-1376" frameBlend="FALSE">
						<masterclipid>masterclip-44</masterclipid>
						<name>AA313701.MXFMulticam</name>
						<enabled>TRUE</enabled>
						<duration>14040</duration>
						<rate>
							<timebase>25</timebase>
							<ntsc>FALSE</ntsc>
						</rate>
						<start>5039</start>
						<end>5089</end>
						<in>6998</in>
						<out>7048</out>
						<sequence id="sequence-112"/>
						<link>
							<linkclipref>clipitem-453</linkclipref>
							<mediatype>video</mediatype>
							<trackindex>1</trackindex>
							<clipindex>45</clipindex>
						</link>
						<link>
							<linkclipref>clipitem-1033</linkclipref>
							<mediatype>audio</mediatype>
							<trackindex>1</trackindex>
							<clipindex>24</clipindex>
						</link>
						<link>
							<linkclipref>clipitem-1376</linkclipref>
							<mediatype>audio</mediatype>
							<trackindex>3</trackindex>
							<clipindex>20</clipindex>
						</link>
						<labels>
							<label2>Forest</label2>
						</labels>
					</clipitem>
					<clipitem id="clipitem-1377" frameBlend="FALSE">
						<masterclipid>masterclip-44</masterclipid>
						<name>AA313701.MXFMulticam</name>
						<enabled>TRUE</enabled>
						<duration>14040</duration>
						<rate>
							<timebase>25</timebase>
							<ntsc>FALSE</ntsc>
						</rate>
						<start>5089</start>
						<end>5120</end>
						<in>7048</in>
						<out>7079</out>
						<sequence id="sequence-112"/>
						<link>
							<linkclipref>clipitem-454</linkclipref>
							<mediatype>video</mediatype>
							<trackindex>1</trackindex>
							<clipindex>46</clipindex>
						</link>
						<link>
							<linkclipref>clipitem-1034</linkclipref>
							<mediatype>audio</mediatype>
							<trackindex>1</trackindex>
							<clipindex>25</clipindex>
						</link>
						<link>
							<linkclipref>clipitem-1377</linkclipref>
							<mediatype>audio</mediatype>
							<trackindex>3</trackindex>
							<clipindex>21</clipindex>
						</link>
						<labels>
							<label2>Forest</label2>
						</labels>
					</clipitem>
					<clipitem id="clipitem-1378" frameBlend="FALSE">
						<masterclipid>masterclip-44</masterclipid>
						<name>AA313701.MXFMulticam</name>
						<enabled>TRUE</enabled>
						<duration>14040</duration>
						<rate>
							<timebase>25</timebase>
							<ntsc>FALSE</ntsc>
						</rate>
						<start>5120</start>
						<end>5153</end>
						<in>7305</in>
						<out>7338</out>
						<sequence id="sequence-112"/>
						<link>
							<linkclipref>clipitem-455</linkclipref>
							<mediatype>video</mediatype>
							<trackindex>1</trackindex>
							<clipindex>47</clipindex>
						</link>
						<link>
							<linkclipref>clipitem-1035</linkclipref>
							<mediatype>audio</mediatype>
							<trackindex>1</trackindex>
							<clipindex>26</clipindex>
						</link>
						<link>
							<linkclipref>clipitem-1378</linkclipref>
							<mediatype>audio</mediatype>
							<trackindex>3</trackindex>
							<clipindex>22</clipindex>
						</link>
						<labels>
							<label2>Forest</label2>
						</labels>
					</clipitem>
					<clipitem id="clipitem-1379" frameBlend="FALSE">
						<masterclipid>masterclip-44</masterclipid>
						<name>AA313701.MXFMulticam</name>
						<enabled>TRUE</enabled>
						<duration>14040</duration>
						<rate>
							<timebase>25</timebase>
							<ntsc>FALSE</ntsc>
						</rate>
						<start>5153</start>
						<end>5233</end>
						<in>7651</in>
						<out>7731</out>
						<sequence id="sequence-112"/>
						<link>
							<linkclipref>clipitem-456</linkclipref>
							<mediatype>video</mediatype>
							<trackindex>1</trackindex>
							<clipindex>48</clipindex>
						</link>
						<link>
							<linkclipref>clipitem-1036</linkclipref>
							<mediatype>audio</mediatype>
							<trackindex>1</trackindex>
							<clipindex>27</clipindex>
						</link>
						<link>
							<linkclipref>clipitem-1379</linkclipref>
							<mediatype>audio</mediatype>
							<trackindex>3</trackindex>
							<clipindex>23</clipindex>
						</link>
						<labels>
							<label2>Forest</label2>
						</labels>
					</clipitem>
					<clipitem id="clipitem-1380" frameBlend="FALSE">
						<masterclipid>masterclip-44</masterclipid>
						<name>AA313701.MXFMulticam</name>
						<enabled>TRUE</enabled>
						<duration>14040</duration>
						<rate>
							<timebase>25</timebase>
							<ntsc>FALSE</ntsc>
						</rate>
						<start>5233</start>
						<end>5343</end>
						<in>7731</in>
						<out>7841</out>
						<sequence id="sequence-112"/>
						<link>
							<linkclipref>clipitem-457</linkclipref>
							<mediatype>video</mediatype>
							<trackindex>1</trackindex>
							<clipindex>49</clipindex>
						</link>
						<link>
							<linkclipref>clipitem-1037</linkclipref>
							<mediatype>audio</mediatype>
							<trackindex>1</trackindex>
							<clipindex>28</clipindex>
						</link>
						<link>
							<linkclipref>clipitem-1380</linkclipref>
							<mediatype>audio</mediatype>
							<trackindex>3</trackindex>
							<clipindex>24</clipindex>
						</link>
						<labels>
							<label2>Forest</label2>
						</labels>
					</clipitem>
					<clipitem id="clipitem-1381" frameBlend="FALSE">
						<masterclipid>masterclip-44</masterclipid>
						<name>AA313701.MXFMulticam</name>
						<enabled>TRUE</enabled>
						<duration>14040</duration>
						<rate>
							<timebase>25</timebase>
							<ntsc>FALSE</ntsc>
						</rate>
						<start>5343</start>
						<end>5387</end>
						<in>7841</in>
						<out>7885</out>
						<sequence id="sequence-112"/>
						<link>
							<linkclipref>clipitem-458</linkclipref>
							<mediatype>video</mediatype>
							<trackindex>1</trackindex>
							<clipindex>50</clipindex>
						</link>
						<link>
							<linkclipref>clipitem-1038</linkclipref>
							<mediatype>audio</mediatype>
							<trackindex>1</trackindex>
							<clipindex>29</clipindex>
						</link>
						<link>
							<linkclipref>clipitem-1381</linkclipref>
							<mediatype>audio</mediatype>
							<trackindex>3</trackindex>
							<clipindex>25</clipindex>
						</link>
						<labels>
							<label2>Forest</label2>
						</labels>
					</clipitem>
					<clipitem id="clipitem-1382" frameBlend="FALSE">
						<masterclipid>masterclip-45</masterclipid>
						<name>AA313701.MXF</name>
						<enabled>TRUE</enabled>
						<duration>14040</duration>
						<rate>
							<timebase>25</timebase>
							<ntsc>FALSE</ntsc>
						</rate>
						<start>5519</start>
						<end>5930</end>
						<in>739</in>
						<out>1150</out>
						<file id="file-41"/>
						<sourcetrack>
							<mediatype>audio</mediatype>
							<trackindex>2</trackindex>
						</sourcetrack>
							<filter>
								<effect>
									<name>Audio Levels</name>
									<effectid>audiolevels</effectid>
									<effectcategory>audiolevels</effectcategory>
									<effecttype>audiolevels</effecttype>
									<mediatype>audio</mediatype>
									<parameter authoringApp="PremierePro">
										<parameterid>level</parameterid>
										<name>Level</name>
										<valuemin>0</valuemin>
										<valuemax>3.98109</valuemax>
										<value>1.58114</value>
									</parameter>
								</effect>
							</filter>
						<link>
							<linkclipref>clipitem-1039</linkclipref>
							<mediatype>audio</mediatype>
							<trackindex>1</trackindex>
							<clipindex>30</clipindex>
						</link>
						<link>
							<linkclipref>clipitem-1382</linkclipref>
							<mediatype>audio</mediatype>
							<trackindex>3</trackindex>
							<clipindex>26</clipindex>
						</link>
						<logginginfo>
							<description></description>
							<scene></scene>
							<shottake>AA3137</shottake>
							<lognote></lognote>
						</logginginfo>
						<labels>
							<label2>Iris</label2>
						</labels>
					</clipitem>
					<clipitem id="clipitem-1383" frameBlend="FALSE">
						<masterclipid>masterclip-45</masterclipid>
						<name>AA313701.MXF</name>
						<enabled>TRUE</enabled>
						<duration>14040</duration>
						<rate>
							<timebase>25</timebase>
							<ntsc>FALSE</ntsc>
						</rate>
						<start>6096</start>
						<end>6228</end>
						<in>2500</in>
						<out>2632</out>
						<file id="file-41"/>
						<sourcetrack>
							<mediatype>audio</mediatype>
							<trackindex>2</trackindex>
						</sourcetrack>
						<link>
							<linkclipref>clipitem-1041</linkclipref>
							<mediatype>audio</mediatype>
							<trackindex>1</trackindex>
							<clipindex>32</clipindex>
						</link>
						<link>
							<linkclipref>clipitem-1383</linkclipref>
							<mediatype>audio</mediatype>
							<trackindex>3</trackindex>
							<clipindex>27</clipindex>
						</link>
						<logginginfo>
							<description></description>
							<scene></scene>
							<shottake>AA3137</shottake>
							<lognote></lognote>
						</logginginfo>
						<labels>
							<label2>Iris</label2>
						</labels>
					</clipitem>
					<clipitem id="clipitem-1384" frameBlend="FALSE">
						<masterclipid>masterclip-45</masterclipid>
						<name>AA313701.MXF</name>
						<enabled>TRUE</enabled>
						<duration>14040</duration>
						<rate>
							<timebase>25</timebase>
							<ntsc>FALSE</ntsc>
						</rate>
						<start>6228</start>
						<end>6295</end>
						<in>4691</in>
						<out>4758</out>
						<file id="file-41"/>
						<sourcetrack>
							<mediatype>audio</mediatype>
							<trackindex>2</trackindex>
						</sourcetrack>
						<link>
							<linkclipref>clipitem-1042</linkclipref>
							<mediatype>audio</mediatype>
							<trackindex>1</trackindex>
							<clipindex>33</clipindex>
						</link>
						<link>
							<linkclipref>clipitem-1384</linkclipref>
							<mediatype>audio</mediatype>
							<trackindex>3</trackindex>
							<clipindex>28</clipindex>
						</link>
						<logginginfo>
							<description></description>
							<scene></scene>
							<shottake>AA3137</shottake>
							<lognote></lognote>
						</logginginfo>
						<labels>
							<label2>Iris</label2>
						</labels>
					</clipitem>
					<clipitem id="clipitem-1385" frameBlend="FALSE">
						<masterclipid>masterclip-45</masterclipid>
						<name>AA313701.MXF</name>
						<enabled>TRUE</enabled>
						<duration>14040</duration>
						<rate>
							<timebase>25</timebase>
							<ntsc>FALSE</ntsc>
						</rate>
						<start>6459</start>
						<end>7095</end>
						<in>1725</in>
						<out>2361</out>
						<file id="file-41"/>
						<sourcetrack>
							<mediatype>audio</mediatype>
							<trackindex>2</trackindex>
						</sourcetrack>
							<filter>
								<effect>
									<name>Audio Levels</name>
									<effectid>audiolevels</effectid>
									<effectcategory>audiolevels</effectcategory>
									<effecttype>audiolevels</effecttype>
									<mediatype>audio</mediatype>
									<parameter authoringApp="PremierePro">
										<parameterid>level</parameterid>
										<name>Level</name>
										<valuemin>0</valuemin>
										<valuemax>3.98109</valuemax>
										<value>1.99053</value>
									</parameter>
								</effect>
							</filter>
						<link>
							<linkclipref>clipitem-1043</linkclipref>
							<mediatype>audio</mediatype>
							<trackindex>1</trackindex>
							<clipindex>34</clipindex>
						</link>
						<link>
							<linkclipref>clipitem-1385</linkclipref>
							<mediatype>audio</mediatype>
							<trackindex>3</trackindex>
							<clipindex>29</clipindex>
						</link>
						<logginginfo>
							<description></description>
							<scene></scene>
							<shottake>AA3137</shottake>
							<lognote></lognote>
						</logginginfo>
						<labels>
							<label2>Iris</label2>
						</labels>
					</clipitem>
					<clipitem id="clipitem-1386" frameBlend="FALSE">
						<masterclipid>masterclip-53</masterclipid>
						<name>MVI_9582.MOV</name>
						<enabled>TRUE</enabled>
						<duration>470</duration>
						<rate>
							<timebase>25</timebase>
							<ntsc>FALSE</ntsc>
						</rate>
						<start>7095</start>
						<end>7187</end>
						<in>362</in>
						<out>454</out>
						<file id="file-48"/>
						<sourcetrack>
							<mediatype>audio</mediatype>
							<trackindex>2</trackindex>
						</sourcetrack>
							<filter>
								<effect>
									<name>Audio Levels</name>
									<effectid>audiolevels</effectid>
									<effectcategory>audiolevels</effectcategory>
									<effecttype>audiolevels</effecttype>
									<mediatype>audio</mediatype>
									<parameter authoringApp="PremierePro">
										<parameterid>level</parameterid>
										<name>Level</name>
										<valuemin>0</valuemin>
										<valuemax>3.98109</valuemax>
										<value>0.223342</value>
									</parameter>
								</effect>
							</filter>
						<link>
							<linkclipref>clipitem-1044</linkclipref>
							<mediatype>audio</mediatype>
							<trackindex>1</trackindex>
							<clipindex>35</clipindex>
						</link>
						<link>
							<linkclipref>clipitem-1386</linkclipref>
							<mediatype>audio</mediatype>
							<trackindex>3</trackindex>
							<clipindex>30</clipindex>
						</link>
						<logginginfo>
							<description></description>
							<scene></scene>
							<shottake></shottake>
							<lognote></lognote>
						</logginginfo>
						<labels>
							<label2>Iris</label2>
						</labels>
					</clipitem>
					<clipitem id="clipitem-1387" frameBlend="FALSE">
						<masterclipid>masterclip-54</masterclipid>
						<name>AA315301.MXF</name>
						<enabled>TRUE</enabled>
						<duration>7692</duration>
						<rate>
							<timebase>25</timebase>
							<ntsc>FALSE</ntsc>
						</rate>
						<start>7187</start>
						<end>7266</end>
						<in>0</in>
						<out>79</out>
						<file id="file-49"/>
						<sourcetrack>
							<mediatype>audio</mediatype>
							<trackindex>1</trackindex>
						</sourcetrack>
							<filter>
								<effect>
									<name>Audio Levels</name>
									<effectid>audiolevels</effectid>
									<effectcategory>audiolevels</effectcategory>
									<effecttype>audiolevels</effecttype>
									<mediatype>audio</mediatype>
									<parameter authoringApp="PremierePro">
										<parameterid>level</parameterid>
										<name>Level</name>
										<valuemin>0</valuemin>
										<valuemax>3.98109</valuemax>
										<value>0.223342</value>
									</parameter>
								</effect>
							</filter>
						<link>
							<linkclipref>clipitem-1045</linkclipref>
							<mediatype>audio</mediatype>
							<trackindex>1</trackindex>
							<clipindex>36</clipindex>
						</link>
						<link>
							<linkclipref>clipitem-1387</linkclipref>
							<mediatype>audio</mediatype>
							<trackindex>3</trackindex>
							<clipindex>31</clipindex>
						</link>
						<logginginfo>
							<description></description>
							<scene></scene>
							<shottake>AA3153</shottake>
							<lognote></lognote>
						</logginginfo>
						<labels>
							<label2>Iris</label2>
						</labels>
					</clipitem>
					<clipitem id="clipitem-1388" frameBlend="FALSE">
						<masterclipid>masterclip-54</masterclipid>
						<name>AA315301.MXF</name>
						<enabled>TRUE</enabled>
						<duration>7692</duration>
						<rate>
							<timebase>25</timebase>
							<ntsc>FALSE</ntsc>
						</rate>
						<start>7266</start>
						<end>7302</end>
						<in>214</in>
						<out>250</out>
						<file id="file-49"/>
						<sourcetrack>
							<mediatype>audio</mediatype>
							<trackindex>2</trackindex>
						</sourcetrack>
						<link>
							<linkclipref>clipitem-1046</linkclipref>
							<mediatype>audio</mediatype>
							<trackindex>1</trackindex>
							<clipindex>37</clipindex>
						</link>
						<link>
							<linkclipref>clipitem-1388</linkclipref>
							<mediatype>audio</mediatype>
							<trackindex>3</trackindex>
							<clipindex>32</clipindex>
						</link>
						<logginginfo>
							<description></description>
							<scene></scene>
							<shottake>AA3153</shottake>
							<lognote></lognote>
						</logginginfo>
						<labels>
							<label2>Iris</label2>
						</labels>
					</clipitem>
					<clipitem id="clipitem-1389" frameBlend="FALSE">
						<masterclipid>masterclip-54</masterclipid>
						<name>AA315301.MXF</name>
						<enabled>TRUE</enabled>
						<duration>7692</duration>
						<rate>
							<timebase>25</timebase>
							<ntsc>FALSE</ntsc>
						</rate>
						<start>7302</start>
						<end>7407</end>
						<in>532</in>
						<out>637</out>
						<file id="file-49"/>
						<sourcetrack>
							<mediatype>audio</mediatype>
							<trackindex>2</trackindex>
						</sourcetrack>
							<filter>
								<effect>
									<name>Audio Levels</name>
									<effectid>audiolevels</effectid>
									<effectcategory>audiolevels</effectcategory>
									<effecttype>audiolevels</effecttype>
									<mediatype>audio</mediatype>
									<parameter authoringApp="PremierePro">
										<parameterid>level</parameterid>
										<name>Level</name>
										<valuemin>0</valuemin>
										<valuemax>3.98109</valuemax>
										<value>1.77406</value>
									</parameter>
								</effect>
							</filter>
						<link>
							<linkclipref>clipitem-1047</linkclipref>
							<mediatype>audio</mediatype>
							<trackindex>1</trackindex>
							<clipindex>38</clipindex>
						</link>
						<link>
							<linkclipref>clipitem-1389</linkclipref>
							<mediatype>audio</mediatype>
							<trackindex>3</trackindex>
							<clipindex>33</clipindex>
						</link>
						<logginginfo>
							<description></description>
							<scene></scene>
							<shottake>AA3153</shottake>
							<lognote></lognote>
						</logginginfo>
						<labels>
							<label2>Iris</label2>
						</labels>
					</clipitem>
					<clipitem id="clipitem-1390" frameBlend="FALSE">
						<masterclipid>masterclip-54</masterclipid>
						<name>AA315301.MXF</name>
						<enabled>TRUE</enabled>
						<duration>7692</duration>
						<rate>
							<timebase>25</timebase>
							<ntsc>FALSE</ntsc>
						</rate>
						<start>7407</start>
						<end>7513</end>
						<in>1015</in>
						<out>1121</out>
						<file id="file-49"/>
						<sourcetrack>
							<mediatype>audio</mediatype>
							<trackindex>2</trackindex>
						</sourcetrack>
							<filter>
								<effect>
									<name>Audio Levels</name>
									<effectid>audiolevels</effectid>
									<effectcategory>audiolevels</effectcategory>
									<effecttype>audiolevels</effecttype>
									<mediatype>audio</mediatype>
									<parameter authoringApp="PremierePro">
										<parameterid>level</parameterid>
										<name>Level</name>
										<valuemin>0</valuemin>
										<valuemax>3.98109</valuemax>
										<value>1.77406</value>
									</parameter>
								</effect>
							</filter>
						<link>
							<linkclipref>clipitem-1048</linkclipref>
							<mediatype>audio</mediatype>
							<trackindex>1</trackindex>
							<clipindex>39</clipindex>
						</link>
						<link>
							<linkclipref>clipitem-1390</linkclipref>
							<mediatype>audio</mediatype>
							<trackindex>3</trackindex>
							<clipindex>34</clipindex>
						</link>
						<logginginfo>
							<description></description>
							<scene></scene>
							<shottake>AA3153</shottake>
							<lognote></lognote>
						</logginginfo>
						<labels>
							<label2>Iris</label2>
						</labels>
					</clipitem>
					<clipitem id="clipitem-1391" frameBlend="FALSE">
						<masterclipid>masterclip-54</masterclipid>
						<name>AA315301.MXF</name>
						<enabled>TRUE</enabled>
						<duration>7692</duration>
						<rate>
							<timebase>25</timebase>
							<ntsc>FALSE</ntsc>
						</rate>
						<start>7513</start>
						<end>7554</end>
						<in>1281</in>
						<out>1322</out>
						<file id="file-49"/>
						<sourcetrack>
							<mediatype>audio</mediatype>
							<trackindex>2</trackindex>
						</sourcetrack>
							<filter>
								<effect>
									<name>Audio Levels</name>
									<effectid>audiolevels</effectid>
									<effectcategory>audiolevels</effectcategory>
									<effecttype>audiolevels</effecttype>
									<mediatype>audio</mediatype>
									<parameter authoringApp="PremierePro">
										<parameterid>level</parameterid>
										<name>Level</name>
										<valuemin>0</valuemin>
										<valuemax>3.98109</valuemax>
										<value>1.77406</value>
									</parameter>
								</effect>
							</filter>
						<link>
							<linkclipref>clipitem-1049</linkclipref>
							<mediatype>audio</mediatype>
							<trackindex>1</trackindex>
							<clipindex>40</clipindex>
						</link>
						<link>
							<linkclipref>clipitem-1391</linkclipref>
							<mediatype>audio</mediatype>
							<trackindex>3</trackindex>
							<clipindex>35</clipindex>
						</link>
						<logginginfo>
							<description></description>
							<scene></scene>
							<shottake>AA3153</shottake>
							<lognote></lognote>
						</logginginfo>
						<labels>
							<label2>Iris</label2>
						</labels>
					</clipitem>
					<clipitem id="clipitem-1392" frameBlend="FALSE">
						<masterclipid>masterclip-54</masterclipid>
						<name>AA315301.MXF</name>
						<enabled>TRUE</enabled>
						<duration>7692</duration>
						<rate>
							<timebase>25</timebase>
							<ntsc>FALSE</ntsc>
						</rate>
						<start>7554</start>
						<end>7694</end>
						<in>1354</in>
						<out>1494</out>
						<file id="file-49"/>
						<sourcetrack>
							<mediatype>audio</mediatype>
							<trackindex>2</trackindex>
						</sourcetrack>
							<filter>
								<effect>
									<name>Audio Levels</name>
									<effectid>audiolevels</effectid>
									<effectcategory>audiolevels</effectcategory>
									<effecttype>audiolevels</effecttype>
									<mediatype>audio</mediatype>
									<parameter authoringApp="PremierePro">
										<parameterid>level</parameterid>
										<name>Level</name>
										<valuemin>0</valuemin>
										<valuemax>3.98109</valuemax>
										<value>1.77406</value>
									</parameter>
								</effect>
							</filter>
						<link>
							<linkclipref>clipitem-1050</linkclipref>
							<mediatype>audio</mediatype>
							<trackindex>1</trackindex>
							<clipindex>41</clipindex>
						</link>
						<link>
							<linkclipref>clipitem-1392</linkclipref>
							<mediatype>audio</mediatype>
							<trackindex>3</trackindex>
							<clipindex>36</clipindex>
						</link>
						<logginginfo>
							<description></description>
							<scene></scene>
							<shottake>AA3153</shottake>
							<lognote></lognote>
						</logginginfo>
						<labels>
							<label2>Iris</label2>
						</labels>
					</clipitem>
					<clipitem id="clipitem-1393" frameBlend="FALSE">
						<masterclipid>masterclip-54</masterclipid>
						<name>AA315301.MXF</name>
						<enabled>TRUE</enabled>
						<duration>7692</duration>
						<rate>
							<timebase>25</timebase>
							<ntsc>FALSE</ntsc>
						</rate>
						<start>7694</start>
						<end>7901</end>
						<in>1888</in>
						<out>2095</out>
						<file id="file-49"/>
						<sourcetrack>
							<mediatype>audio</mediatype>
							<trackindex>2</trackindex>
						</sourcetrack>
							<filter>
								<effect>
									<name>Audio Levels</name>
									<effectid>audiolevels</effectid>
									<effectcategory>audiolevels</effectcategory>
									<effecttype>audiolevels</effecttype>
									<mediatype>audio</mediatype>
									<parameter authoringApp="PremierePro">
										<parameterid>level</parameterid>
										<name>Level</name>
										<valuemin>0</valuemin>
										<valuemax>3.98109</valuemax>
										<value>1.99053</value>
									</parameter>
								</effect>
							</filter>
						<link>
							<linkclipref>clipitem-1051</linkclipref>
							<mediatype>audio</mediatype>
							<trackindex>1</trackindex>
							<clipindex>42</clipindex>
						</link>
						<link>
							<linkclipref>clipitem-1393</linkclipref>
							<mediatype>audio</mediatype>
							<trackindex>3</trackindex>
							<clipindex>37</clipindex>
						</link>
						<logginginfo>
							<description></description>
							<scene></scene>
							<shottake>AA3153</shottake>
							<lognote></lognote>
						</logginginfo>
						<labels>
							<label2>Iris</label2>
						</labels>
					</clipitem>
					<clipitem id="clipitem-1394" frameBlend="FALSE">
						<masterclipid>masterclip-54</masterclipid>
						<name>AA315301.MXF</name>
						<enabled>TRUE</enabled>
						<duration>7692</duration>
						<rate>
							<timebase>25</timebase>
							<ntsc>FALSE</ntsc>
						</rate>
						<start>7901</start>
						<end>8051</end>
						<in>3223</in>
						<out>3373</out>
						<file id="file-49"/>
						<sourcetrack>
							<mediatype>audio</mediatype>
							<trackindex>2</trackindex>
						</sourcetrack>
							<filter>
								<effect>
									<name>Audio Levels</name>
									<effectid>audiolevels</effectid>
									<effectcategory>audiolevels</effectcategory>
									<effecttype>audiolevels</effecttype>
									<mediatype>audio</mediatype>
									<parameter authoringApp="PremierePro">
										<parameterid>level</parameterid>
										<name>Level</name>
										<valuemin>0</valuemin>
										<valuemax>3.98109</valuemax>
										<value>1.58114</value>
									</parameter>
								</effect>
							</filter>
						<link>
							<linkclipref>clipitem-1052</linkclipref>
							<mediatype>audio</mediatype>
							<trackindex>1</trackindex>
							<clipindex>43</clipindex>
						</link>
						<link>
							<linkclipref>clipitem-1394</linkclipref>
							<mediatype>audio</mediatype>
							<trackindex>3</trackindex>
							<clipindex>38</clipindex>
						</link>
						<logginginfo>
							<description></description>
							<scene></scene>
							<shottake>AA3153</shottake>
							<lognote></lognote>
						</logginginfo>
						<labels>
							<label2>Iris</label2>
						</labels>
					</clipitem>
					<clipitem id="clipitem-1395" frameBlend="FALSE">
						<masterclipid>masterclip-54</masterclipid>
						<name>AA315301.MXF</name>
						<enabled>TRUE</enabled>
						<duration>7692</duration>
						<rate>
							<timebase>25</timebase>
							<ntsc>FALSE</ntsc>
						</rate>
						<start>8051</start>
						<end>8287</end>
						<in>5499</in>
						<out>5735</out>
						<file id="file-49"/>
						<sourcetrack>
							<mediatype>audio</mediatype>
							<trackindex>2</trackindex>
						</sourcetrack>
							<filter>
								<effect>
									<name>Audio Levels</name>
									<effectid>audiolevels</effectid>
									<effectcategory>audiolevels</effectcategory>
									<effecttype>audiolevels</effecttype>
									<mediatype>audio</mediatype>
									<parameter authoringApp="PremierePro">
										<parameterid>level</parameterid>
										<name>Level</name>
										<valuemin>0</valuemin>
										<valuemax>3.98109</valuemax>
										<value>1.58114</value>
									</parameter>
								</effect>
							</filter>
						<link>
							<linkclipref>clipitem-1053</linkclipref>
							<mediatype>audio</mediatype>
							<trackindex>1</trackindex>
							<clipindex>44</clipindex>
						</link>
						<link>
							<linkclipref>clipitem-1395</linkclipref>
							<mediatype>audio</mediatype>
							<trackindex>3</trackindex>
							<clipindex>39</clipindex>
						</link>
						<logginginfo>
							<description></description>
							<scene></scene>
							<shottake>AA3153</shottake>
							<lognote></lognote>
						</logginginfo>
						<labels>
							<label2>Iris</label2>
						</labels>
					</clipitem>
					<clipitem id="clipitem-1396" frameBlend="FALSE">
						<masterclipid>masterclip-54</masterclipid>
						<name>AA315301.MXF</name>
						<enabled>TRUE</enabled>
						<duration>7692</duration>
						<rate>
							<timebase>25</timebase>
							<ntsc>FALSE</ntsc>
						</rate>
						<start>8287</start>
						<end>8583</end>
						<in>5984</in>
						<out>6280</out>
						<file id="file-49"/>
						<sourcetrack>
							<mediatype>audio</mediatype>
							<trackindex>2</trackindex>
						</sourcetrack>
							<filter>
								<effect>
									<name>Audio Levels</name>
									<effectid>audiolevels</effectid>
									<effectcategory>audiolevels</effectcategory>
									<effecttype>audiolevels</effecttype>
									<mediatype>audio</mediatype>
									<parameter authoringApp="PremierePro">
										<parameterid>level</parameterid>
										<name>Level</name>
										<valuemin>0</valuemin>
										<valuemax>3.98109</valuemax>
										<value>1.99053</value>
									</parameter>
								</effect>
							</filter>
						<link>
							<linkclipref>clipitem-1054</linkclipref>
							<mediatype>audio</mediatype>
							<trackindex>1</trackindex>
							<clipindex>45</clipindex>
						</link>
						<link>
							<linkclipref>clipitem-1396</linkclipref>
							<mediatype>audio</mediatype>
							<trackindex>3</trackindex>
							<clipindex>40</clipindex>
						</link>
						<logginginfo>
							<description></description>
							<scene></scene>
							<shottake>AA3153</shottake>
							<lognote></lognote>
						</logginginfo>
						<labels>
							<label2>Iris</label2>
						</labels>
					</clipitem>
					<clipitem id="clipitem-1397" frameBlend="FALSE">
						<masterclipid>masterclip-60</masterclipid>
						<name>AA314401.MXF</name>
						<enabled>TRUE</enabled>
						<duration>15768</duration>
						<rate>
							<timebase>25</timebase>
							<ntsc>FALSE</ntsc>
						</rate>
						<start>8591</start>
						<end>8641</end>
						<in>1969</in>
						<out>2019</out>
						<file id="file-54"/>
						<sourcetrack>
							<mediatype>audio</mediatype>
							<trackindex>2</trackindex>
						</sourcetrack>
							<filter>
								<effect>
									<name>Audio Levels</name>
									<effectid>audiolevels</effectid>
									<effectcategory>audiolevels</effectcategory>
									<effecttype>audiolevels</effecttype>
									<mediatype>audio</mediatype>
									<parameter authoringApp="PremierePro">
										<parameterid>level</parameterid>
										<name>Level</name>
										<valuemin>0</valuemin>
										<valuemax>3.98109</valuemax>
										<value>1.99053</value>
									</parameter>
								</effect>
							</filter>
						<link>
							<linkclipref>clipitem-1055</linkclipref>
							<mediatype>audio</mediatype>
							<trackindex>1</trackindex>
							<clipindex>46</clipindex>
						</link>
						<link>
							<linkclipref>clipitem-1397</linkclipref>
							<mediatype>audio</mediatype>
							<trackindex>3</trackindex>
							<clipindex>41</clipindex>
						</link>
						<logginginfo>
							<description></description>
							<scene></scene>
							<shottake>AA3144</shottake>
							<lognote></lognote>
						</logginginfo>
						<labels>
							<label2>Iris</label2>
						</labels>
					</clipitem>
					<clipitem id="clipitem-1398" frameBlend="FALSE">
						<masterclipid>masterclip-60</masterclipid>
						<name>AA314401.MXF</name>
						<enabled>TRUE</enabled>
						<duration>15768</duration>
						<rate>
							<timebase>25</timebase>
							<ntsc>FALSE</ntsc>
						</rate>
						<start>8641</start>
						<end>8775</end>
						<in>2045</in>
						<out>2179</out>
						<file id="file-54"/>
						<sourcetrack>
							<mediatype>audio</mediatype>
							<trackindex>2</trackindex>
						</sourcetrack>
							<filter>
								<effect>
									<name>Audio Levels</name>
									<effectid>audiolevels</effectid>
									<effectcategory>audiolevels</effectcategory>
									<effecttype>audiolevels</effecttype>
									<mediatype>audio</mediatype>
									<parameter authoringApp="PremierePro">
										<parameterid>level</parameterid>
										<name>Level</name>
										<valuemin>0</valuemin>
										<valuemax>3.98109</valuemax>
										<value>1.99053</value>
									</parameter>
								</effect>
							</filter>
						<link>
							<linkclipref>clipitem-1056</linkclipref>
							<mediatype>audio</mediatype>
							<trackindex>1</trackindex>
							<clipindex>47</clipindex>
						</link>
						<link>
							<linkclipref>clipitem-1398</linkclipref>
							<mediatype>audio</mediatype>
							<trackindex>3</trackindex>
							<clipindex>42</clipindex>
						</link>
						<logginginfo>
							<description></description>
							<scene></scene>
							<shottake>AA3144</shottake>
							<lognote></lognote>
						</logginginfo>
						<labels>
							<label2>Iris</label2>
						</labels>
					</clipitem>
					<clipitem id="clipitem-1399" frameBlend="FALSE">
						<masterclipid>masterclip-66</masterclipid>
						<name>MVI_9557.MOV</name>
						<enabled>TRUE</enabled>
						<duration>2542</duration>
						<rate>
							<timebase>25</timebase>
							<ntsc>FALSE</ntsc>
						</rate>
						<start>8820</start>
						<end>9055</end>
						<in>147</in>
						<out>382</out>
						<file id="file-59"/>
						<sourcetrack>
							<mediatype>audio</mediatype>
							<trackindex>2</trackindex>
						</sourcetrack>
							<filter>
								<effect>
									<name>Audio Levels</name>
									<effectid>audiolevels</effectid>
									<effectcategory>audiolevels</effectcategory>
									<effecttype>audiolevels</effecttype>
									<mediatype>audio</mediatype>
									<parameter authoringApp="PremierePro">
										<parameterid>level</parameterid>
										<name>Level</name>
										<valuemin>0</valuemin>
										<valuemax>3.98109</valuemax>
										<value>0.0629462</value>
									</parameter>
								</effect>
							</filter>
						<link>
							<linkclipref>clipitem-510</linkclipref>
							<mediatype>video</mediatype>
							<trackindex>1</trackindex>
							<clipindex>82</clipindex>
						</link>
						<link>
							<linkclipref>clipitem-1057</linkclipref>
							<mediatype>audio</mediatype>
							<trackindex>1</trackindex>
							<clipindex>48</clipindex>
						</link>
						<link>
							<linkclipref>clipitem-1399</linkclipref>
							<mediatype>audio</mediatype>
							<trackindex>3</trackindex>
							<clipindex>43</clipindex>
						</link>
						<logginginfo>
							<description></description>
							<scene></scene>
							<shottake></shottake>
							<lognote></lognote>
						</logginginfo>
						<labels>
							<label2>Iris</label2>
						</labels>
					</clipitem>
					<clipitem id="clipitem-1400" frameBlend="FALSE">
						<masterclipid>masterclip-60</masterclipid>
						<name>AA314401.MXF</name>
						<enabled>TRUE</enabled>
						<duration>15768</duration>
						<rate>
							<timebase>25</timebase>
							<ntsc>FALSE</ntsc>
						</rate>
						<start>9055</start>
						<end>9371</end>
						<in>5479</in>
						<out>5795</out>
						<file id="file-54"/>
						<sourcetrack>
							<mediatype>audio</mediatype>
							<trackindex>2</trackindex>
						</sourcetrack>
							<filter>
								<effect>
									<name>Audio Levels</name>
									<effectid>audiolevels</effectid>
									<effectcategory>audiolevels</effectcategory>
									<effecttype>audiolevels</effecttype>
									<mediatype>audio</mediatype>
									<parameter authoringApp="PremierePro">
										<parameterid>level</parameterid>
										<name>Level</name>
										<valuemin>0</valuemin>
										<valuemax>3.98109</valuemax>
										<value>1.99526</value>
									</parameter>
								</effect>
							</filter>
						<link>
							<linkclipref>clipitem-1058</linkclipref>
							<mediatype>audio</mediatype>
							<trackindex>1</trackindex>
							<clipindex>49</clipindex>
						</link>
						<link>
							<linkclipref>clipitem-1400</linkclipref>
							<mediatype>audio</mediatype>
							<trackindex>3</trackindex>
							<clipindex>44</clipindex>
						</link>
						<logginginfo>
							<description></description>
							<scene></scene>
							<shottake>AA3144</shottake>
							<lognote></lognote>
						</logginginfo>
						<labels>
							<label2>Iris</label2>
						</labels>
					</clipitem>
					<clipitem id="clipitem-1401" frameBlend="FALSE">
						<masterclipid>masterclip-60</masterclipid>
						<name>AA314401.MXF</name>
						<enabled>TRUE</enabled>
						<duration>15768</duration>
						<rate>
							<timebase>25</timebase>
							<ntsc>FALSE</ntsc>
						</rate>
						<start>9371</start>
						<end>10270</end>
						<in>6085</in>
						<out>6984</out>
						<file id="file-54"/>
						<sourcetrack>
							<mediatype>audio</mediatype>
							<trackindex>2</trackindex>
						</sourcetrack>
							<filter>
								<effect>
									<name>Audio Levels</name>
									<effectid>audiolevels</effectid>
									<effectcategory>audiolevels</effectcategory>
									<effecttype>audiolevels</effecttype>
									<mediatype>audio</mediatype>
									<parameter authoringApp="PremierePro">
										<parameterid>level</parameterid>
										<name>Level</name>
										<valuemin>0</valuemin>
										<valuemax>3.98109</valuemax>
										<value>1.99526</value>
									</parameter>
								</effect>
							</filter>
						<link>
							<linkclipref>clipitem-1059</linkclipref>
							<mediatype>audio</mediatype>
							<trackindex>1</trackindex>
							<clipindex>50</clipindex>
						</link>
						<link>
							<linkclipref>clipitem-1401</linkclipref>
							<mediatype>audio</mediatype>
							<trackindex>3</trackindex>
							<clipindex>45</clipindex>
						</link>
						<logginginfo>
							<description></description>
							<scene></scene>
							<shottake>AA3144</shottake>
							<lognote></lognote>
						</logginginfo>
						<labels>
							<label2>Iris</label2>
						</labels>
					</clipitem>
					<clipitem id="clipitem-1402" frameBlend="FALSE">
						<masterclipid>masterclip-72</masterclipid>
						<name>MVI_0005.MOVthinfilm multi</name>
						<enabled>TRUE</enabled>
						<duration>15000</duration>
						<rate>
							<timebase>25</timebase>
							<ntsc>FALSE</ntsc>
						</rate>
						<start>11876</start>
						<end>12166</end>
						<in>1601</in>
						<out>1891</out>
						<sequence id="sequence-113"/>
							<filter>
								<effect>
									<name>Audio Levels</name>
									<effectid>audiolevels</effectid>
									<effectcategory>audiolevels</effectcategory>
									<effecttype>audiolevels</effecttype>
									<mediatype>audio</mediatype>
									<parameter authoringApp="PremierePro">
										<parameterid>level</parameterid>
										<name>Level</name>
										<valuemin>0</valuemin>
										<valuemax>3.98109</valuemax>
										<value>1.11936</value>
									</parameter>
								</effect>
							</filter>
						<link>
							<linkclipref>clipitem-529</linkclipref>
							<mediatype>video</mediatype>
							<trackindex>1</trackindex>
							<clipindex>95</clipindex>
						</link>
						<link>
							<linkclipref>clipitem-1402</linkclipref>
							<mediatype>audio</mediatype>
							<trackindex>3</trackindex>
							<clipindex>46</clipindex>
						</link>
						<labels>
							<label2>Forest</label2>
						</labels>
					</clipitem>
					<clipitem id="clipitem-1403" frameBlend="FALSE">
						<masterclipid>masterclip-72</masterclipid>
						<name>MVI_0005.MOVthinfilm multi</name>
						<enabled>TRUE</enabled>
						<duration>15000</duration>
						<rate>
							<timebase>25</timebase>
							<ntsc>FALSE</ntsc>
						</rate>
						<start>12473</start>
						<end>12857</end>
						<in>10180</in>
						<out>10564</out>
						<sequence id="sequence-113"/>
							<filter>
								<effect>
									<name>Audio Levels</name>
									<effectid>audiolevels</effectid>
									<effectcategory>audiolevels</effectcategory>
									<effecttype>audiolevels</effecttype>
									<mediatype>audio</mediatype>
									<parameter authoringApp="PremierePro">
										<parameterid>level</parameterid>
										<name>Level</name>
										<valuemin>0</valuemin>
										<valuemax>3.98109</valuemax>
										<value>1.58114</value>
									</parameter>
								</effect>
							</filter>
						<link>
							<linkclipref>clipitem-544</linkclipref>
							<mediatype>video</mediatype>
							<trackindex>1</trackindex>
							<clipindex>104</clipindex>
						</link>
						<link>
							<linkclipref>clipitem-1403</linkclipref>
							<mediatype>audio</mediatype>
							<trackindex>3</trackindex>
							<clipindex>47</clipindex>
						</link>
						<labels>
							<label2>Forest</label2>
						</labels>
					</clipitem>
					<transitionitem>
						<start>13031</start>
						<end>13071</end>
						<alignment>start-black</alignment>
						<cutPoint>0</cutPoint>
						<rate>
							<timebase>25</timebase>
							<ntsc>FALSE</ntsc>
						</rate>
						<effect>
							<name>Cross Fade (+3dB)</name>
							<effectid>KGAudioTransCrossFade3dB</effectid>
							<effecttype>transition</effecttype>
							<mediatype>audio</mediatype>
							<wipecode>0</wipecode>
							<wipeaccuracy>100</wipeaccuracy>
							<startratio>0</startratio>
							<endratio>1</endratio>
							<reverse>FALSE</reverse>
						</effect>
					</transitionitem>
					<clipitem id="clipitem-1404" frameBlend="FALSE">
						<masterclipid>masterclip-87</masterclipid>
						<name>AA016301.MXFCowi varemesse multi</name>
						<enabled>TRUE</enabled>
						<duration>4692</duration>
						<rate>
							<timebase>25</timebase>
							<ntsc>FALSE</ntsc>
						</rate>
						<start>-1</start>
						<end>13301</end>
						<in>607</in>
						<out>877</out>
						<sequence id="sequence-114"/>
							<filter>
								<effect>
									<name>Audio Levels</name>
									<effectid>audiolevels</effectid>
									<effectcategory>audiolevels</effectcategory>
									<effecttype>audiolevels</effecttype>
									<mediatype>audio</mediatype>
									<parameter authoringApp="PremierePro">
										<parameterid>level</parameterid>
										<name>Level</name>
										<valuemin>0</valuemin>
										<valuemax>3.98109</valuemax>
										<value>0.445625</value>
									</parameter>
								</effect>
							</filter>
						<labels>
							<label2>Forest</label2>
						</labels>
					</clipitem>
					<clipitem id="clipitem-1405" frameBlend="FALSE">
						<masterclipid>masterclip-92</masterclipid>
						<name>AA016701.MXFCowi varemesse multi</name>
						<enabled>TRUE</enabled>
						<duration>8897</duration>
						<rate>
							<timebase>25</timebase>
							<ntsc>FALSE</ntsc>
						</rate>
						<start>13539</start>
						<end>13670</end>
						<in>3060</in>
						<out>3191</out>
						<sequence id="sequence-115"/>
							<filter>
								<effect>
									<name>Audio Levels</name>
									<effectid>audiolevels</effectid>
									<effectcategory>audiolevels</effectcategory>
									<effecttype>audiolevels</effecttype>
									<mediatype>audio</mediatype>
									<parameter authoringApp="PremierePro">
										<parameterid>level</parameterid>
										<name>Level</name>
										<valuemin>0</valuemin>
										<valuemax>3.98109</valuemax>
										<value>1.77828</value>
									</parameter>
								</effect>
							</filter>
						<link>
							<linkclipref>clipitem-559</linkclipref>
							<mediatype>video</mediatype>
							<trackindex>1</trackindex>
							<clipindex>113</clipindex>
						</link>
						<link>
							<linkclipref>clipitem-1082</linkclipref>
							<mediatype>audio</mediatype>
							<trackindex>1</trackindex>
							<clipindex>62</clipindex>
						</link>
						<link>
							<linkclipref>clipitem-1405</linkclipref>
							<mediatype>audio</mediatype>
							<trackindex>3</trackindex>
							<clipindex>50</clipindex>
						</link>
						<labels>
							<label2>Forest</label2>
						</labels>
					</clipitem>
					<clipitem id="clipitem-1406" frameBlend="FALSE">
						<masterclipid>masterclip-92</masterclipid>
						<name>AA016701.MXFCowi varemesse multi</name>
						<enabled>TRUE</enabled>
						<duration>8897</duration>
						<rate>
							<timebase>25</timebase>
							<ntsc>FALSE</ntsc>
						</rate>
						<start>13670</start>
						<end>13751</end>
						<in>2462</in>
						<out>2543</out>
						<sequence id="sequence-115"/>
						<link>
							<linkclipref>clipitem-572</linkclipref>
							<mediatype>video</mediatype>
							<trackindex>1</trackindex>
							<clipindex>114</clipindex>
						</link>
						<link>
							<linkclipref>clipitem-1098</linkclipref>
							<mediatype>audio</mediatype>
							<trackindex>1</trackindex>
							<clipindex>63</clipindex>
						</link>
						<link>
							<linkclipref>clipitem-1406</linkclipref>
							<mediatype>audio</mediatype>
							<trackindex>3</trackindex>
							<clipindex>51</clipindex>
						</link>
						<labels>
							<label2>Forest</label2>
						</labels>
					</clipitem>
					<clipitem id="clipitem-1407" frameBlend="FALSE">
						<masterclipid>masterclip-92</masterclipid>
						<name>AA016701.MXFCowi varemesse multi</name>
						<enabled>TRUE</enabled>
						<duration>8897</duration>
						<rate>
							<timebase>25</timebase>
							<ntsc>FALSE</ntsc>
						</rate>
						<start>13751</start>
						<end>14213</end>
						<in>3242</in>
						<out>3704</out>
						<sequence id="sequence-115"/>
							<filter>
								<effect>
									<name>Audio Levels</name>
									<effectid>audiolevels</effectid>
									<effectcategory>audiolevels</effectcategory>
									<effecttype>audiolevels</effecttype>
									<mediatype>audio</mediatype>
									<parameter authoringApp="PremierePro">
										<parameterid>level</parameterid>
										<name>Level</name>
										<valuemin>0</valuemin>
										<valuemax>3.98109</valuemax>
										<value>1.40919</value>
									</parameter>
								</effect>
							</filter>
						<link>
							<linkclipref>clipitem-573</linkclipref>
							<mediatype>video</mediatype>
							<trackindex>1</trackindex>
							<clipindex>115</clipindex>
						</link>
						<link>
							<linkclipref>clipitem-1099</linkclipref>
							<mediatype>audio</mediatype>
							<trackindex>1</trackindex>
							<clipindex>64</clipindex>
						</link>
						<link>
							<linkclipref>clipitem-1407</linkclipref>
							<mediatype>audio</mediatype>
							<trackindex>3</trackindex>
							<clipindex>52</clipindex>
						</link>
						<labels>
							<label2>Forest</label2>
						</labels>
					</clipitem>
					<clipitem id="clipitem-1408" frameBlend="FALSE">
						<masterclipid>masterclip-92</masterclipid>
						<name>AA016701.MXFCowi varemesse multi</name>
						<enabled>TRUE</enabled>
						<duration>8897</duration>
						<rate>
							<timebase>25</timebase>
							<ntsc>FALSE</ntsc>
						</rate>
						<start>14213</start>
						<end>14280</end>
						<in>4028</in>
						<out>4095</out>
						<sequence id="sequence-115"/>
							<filter>
								<effect>
									<name>Audio Levels</name>
									<effectid>audiolevels</effectid>
									<effectcategory>audiolevels</effectcategory>
									<effecttype>audiolevels</effecttype>
									<mediatype>audio</mediatype>
									<parameter authoringApp="PremierePro">
										<parameterid>level</parameterid>
										<name>Level</name>
										<valuemin>0</valuemin>
										<valuemax>3.98109</valuemax>
										<value>1.40919</value>
									</parameter>
								</effect>
							</filter>
						<link>
							<linkclipref>clipitem-1100</linkclipref>
							<mediatype>audio</mediatype>
							<trackindex>1</trackindex>
							<clipindex>65</clipindex>
						</link>
						<link>
							<linkclipref>clipitem-1408</linkclipref>
							<mediatype>audio</mediatype>
							<trackindex>3</trackindex>
							<clipindex>53</clipindex>
						</link>
						<labels>
							<label2>Forest</label2>
						</labels>
					</clipitem>
					<clipitem id="clipitem-1409" frameBlend="FALSE">
						<masterclipid>masterclip-92</masterclipid>
						<name>AA016701.MXFCowi varemesse multi</name>
						<enabled>TRUE</enabled>
						<duration>8897</duration>
						<rate>
							<timebase>25</timebase>
							<ntsc>FALSE</ntsc>
						</rate>
						<start>14280</start>
						<end>14370</end>
						<in>4272</in>
						<out>4362</out>
						<sequence id="sequence-115"/>
							<filter>
								<effect>
									<name>Audio Levels</name>
									<effectid>audiolevels</effectid>
									<effectcategory>audiolevels</effectcategory>
									<effecttype>audiolevels</effecttype>
									<mediatype>audio</mediatype>
									<parameter authoringApp="PremierePro">
										<parameterid>level</parameterid>
										<name>Level</name>
										<valuemin>0</valuemin>
										<valuemax>3.98109</valuemax>
										<value>1.40919</value>
									</parameter>
								</effect>
							</filter>
						<link>
							<linkclipref>clipitem-1101</linkclipref>
							<mediatype>audio</mediatype>
							<trackindex>1</trackindex>
							<clipindex>66</clipindex>
						</link>
						<link>
							<linkclipref>clipitem-1409</linkclipref>
							<mediatype>audio</mediatype>
							<trackindex>3</trackindex>
							<clipindex>54</clipindex>
						</link>
						<labels>
							<label2>Forest</label2>
						</labels>
					</clipitem>
					<clipitem id="clipitem-1410" frameBlend="FALSE">
						<masterclipid>masterclip-92</masterclipid>
						<name>AA016701.MXFCowi varemesse multi</name>
						<enabled>TRUE</enabled>
						<duration>8897</duration>
						<rate>
							<timebase>25</timebase>
							<ntsc>FALSE</ntsc>
						</rate>
						<start>14370</start>
						<end>14433</end>
						<in>4451</in>
						<out>4514</out>
						<sequence id="sequence-115"/>
							<filter>
								<effect>
									<name>Audio Levels</name>
									<effectid>audiolevels</effectid>
									<effectcategory>audiolevels</effectcategory>
									<effecttype>audiolevels</effecttype>
									<mediatype>audio</mediatype>
									<parameter authoringApp="PremierePro">
										<parameterid>level</parameterid>
										<name>Level</name>
										<valuemin>0</valuemin>
										<valuemax>3.98109</valuemax>
										<value>1.40919</value>
									</parameter>
								</effect>
							</filter>
						<link>
							<linkclipref>clipitem-1102</linkclipref>
							<mediatype>audio</mediatype>
							<trackindex>1</trackindex>
							<clipindex>67</clipindex>
						</link>
						<link>
							<linkclipref>clipitem-1410</linkclipref>
							<mediatype>audio</mediatype>
							<trackindex>3</trackindex>
							<clipindex>55</clipindex>
						</link>
						<labels>
							<label2>Forest</label2>
						</labels>
					</clipitem>
					<clipitem id="clipitem-1411" frameBlend="FALSE">
						<masterclipid>masterclip-102</masterclipid>
						<name>AA018601.MXFCowi varemesse multi</name>
						<enabled>TRUE</enabled>
						<duration>8100</duration>
						<rate>
							<timebase>25</timebase>
							<ntsc>FALSE</ntsc>
						</rate>
						<start>14930</start>
						<end>15149</end>
						<in>3021</in>
						<out>3240</out>
						<sequence id="sequence-116"/>
							<filter>
								<effect>
									<name>Audio Levels</name>
									<effectid>audiolevels</effectid>
									<effectcategory>audiolevels</effectcategory>
									<effecttype>audiolevels</effecttype>
									<mediatype>audio</mediatype>
									<parameter authoringApp="PremierePro">
										<parameterid>level</parameterid>
										<name>Level</name>
										<valuemin>0</valuemin>
										<valuemax>3.98109</valuemax>
										<value>1.58114</value>
									</parameter>
								</effect>
							</filter>
						<link>
							<linkclipref>clipitem-1103</linkclipref>
							<mediatype>audio</mediatype>
							<trackindex>1</trackindex>
							<clipindex>68</clipindex>
						</link>
						<link>
							<linkclipref>clipitem-1411</linkclipref>
							<mediatype>audio</mediatype>
							<trackindex>3</trackindex>
							<clipindex>56</clipindex>
						</link>
						<labels>
							<label2>Forest</label2>
						</labels>
					</clipitem>
					<clipitem id="clipitem-1412" frameBlend="FALSE">
						<masterclipid>masterclip-102</masterclipid>
						<name>AA018601.MXFCowi varemesse multi</name>
						<enabled>TRUE</enabled>
						<duration>8100</duration>
						<rate>
							<timebase>25</timebase>
							<ntsc>FALSE</ntsc>
						</rate>
						<start>15149</start>
						<end>15439</end>
						<in>4563</in>
						<out>4853</out>
						<sequence id="sequence-116"/>
							<filter>
								<effect>
									<name>Audio Levels</name>
									<effectid>audiolevels</effectid>
									<effectcategory>audiolevels</effectcategory>
									<effecttype>audiolevels</effecttype>
									<mediatype>audio</mediatype>
									<parameter authoringApp="PremierePro">
										<parameterid>level</parameterid>
										<name>Level</name>
										<valuemin>0</valuemin>
										<valuemax>3.98109</valuemax>
										<value>1.58114</value>
									</parameter>
								</effect>
							</filter>
						<link>
							<linkclipref>clipitem-589</linkclipref>
							<mediatype>video</mediatype>
							<trackindex>1</trackindex>
							<clipindex>131</clipindex>
						</link>
						<link>
							<linkclipref>clipitem-1110</linkclipref>
							<mediatype>audio</mediatype>
							<trackindex>1</trackindex>
							<clipindex>69</clipindex>
						</link>
						<link>
							<linkclipref>clipitem-1412</linkclipref>
							<mediatype>audio</mediatype>
							<trackindex>3</trackindex>
							<clipindex>57</clipindex>
						</link>
						<labels>
							<label2>Forest</label2>
						</labels>
					</clipitem>
					<clipitem id="clipitem-1413" frameBlend="FALSE">
						<masterclipid>masterclip-102</masterclipid>
						<name>AA018601.MXFCowi varemesse multi</name>
						<enabled>TRUE</enabled>
						<duration>8100</duration>
						<rate>
							<timebase>25</timebase>
							<ntsc>FALSE</ntsc>
						</rate>
						<start>15439</start>
						<end>15573</end>
						<in>5153</in>
						<out>5287</out>
						<sequence id="sequence-116"/>
							<filter>
								<effect>
									<name>Audio Levels</name>
									<effectid>audiolevels</effectid>
									<effectcategory>audiolevels</effectcategory>
									<effecttype>audiolevels</effecttype>
									<mediatype>audio</mediatype>
									<parameter authoringApp="PremierePro">
										<parameterid>level</parameterid>
										<name>Level</name>
										<valuemin>0</valuemin>
										<valuemax>3.98109</valuemax>
										<value>1.58114</value>
									</parameter>
								</effect>
							</filter>
						<link>
							<linkclipref>clipitem-597</linkclipref>
							<mediatype>video</mediatype>
							<trackindex>1</trackindex>
							<clipindex>133</clipindex>
						</link>
						<link>
							<linkclipref>clipitem-1111</linkclipref>
							<mediatype>audio</mediatype>
							<trackindex>1</trackindex>
							<clipindex>70</clipindex>
						</link>
						<link>
							<linkclipref>clipitem-1413</linkclipref>
							<mediatype>audio</mediatype>
							<trackindex>3</trackindex>
							<clipindex>58</clipindex>
						</link>
						<labels>
							<label2>Forest</label2>
						</labels>
					</clipitem>
					<clipitem id="clipitem-1414" frameBlend="FALSE">
						<masterclipid>masterclip-102</masterclipid>
						<name>AA018601.MXFCowi varemesse multi</name>
						<enabled>TRUE</enabled>
						<duration>8100</duration>
						<rate>
							<timebase>25</timebase>
							<ntsc>FALSE</ntsc>
						</rate>
						<start>15573</start>
						<end>-1</end>
						<in>5541</in>
						<out>5610</out>
						<sequence id="sequence-116"/>
							<filter>
								<effect>
									<name>Audio Levels</name>
									<effectid>audiolevels</effectid>
									<effectcategory>audiolevels</effectcategory>
									<effecttype>audiolevels</effecttype>
									<mediatype>audio</mediatype>
									<parameter authoringApp="PremierePro">
										<parameterid>level</parameterid>
										<name>Level</name>
										<valuemin>0</valuemin>
										<valuemax>3.98109</valuemax>
										<value>1.58114</value>
									</parameter>
								</effect>
							</filter>
						<link>
							<linkclipref>clipitem-1112</linkclipref>
							<mediatype>audio</mediatype>
							<trackindex>1</trackindex>
							<clipindex>71</clipindex>
						</link>
						<link>
							<linkclipref>clipitem-1414</linkclipref>
							<mediatype>audio</mediatype>
							<trackindex>3</trackindex>
							<clipindex>59</clipindex>
						</link>
						<labels>
							<label2>Forest</label2>
						</labels>
					</clipitem>
					<transitionitem>
						<start>15641</start>
						<end>15642</end>
						<alignment>end-black</alignment>
						<cutPoint>1</cutPoint>
						<rate>
							<timebase>25</timebase>
							<ntsc>FALSE</ntsc>
						</rate>
						<effect>
							<name>Cross Fade (+3dB)</name>
							<effectid>KGAudioTransCrossFade3dB</effectid>
							<effecttype>transition</effecttype>
							<mediatype>audio</mediatype>
							<wipecode>0</wipecode>
							<wipeaccuracy>100</wipeaccuracy>
							<startratio>0</startratio>
							<endratio>1</endratio>
							<reverse>FALSE</reverse>
						</effect>
					</transitionitem>
					<clipitem id="clipitem-1415" frameBlend="FALSE">
						<masterclipid>masterclip-129</masterclipid>
						<name>MVI_0396.MOV</name>
						<enabled>TRUE</enabled>
						<duration>717</duration>
						<rate>
							<timebase>25</timebase>
							<ntsc>FALSE</ntsc>
						</rate>
						<start>17799</start>
						<end>18191</end>
						<in>200</in>
						<out>592</out>
						<file id="file-117"/>
						<sourcetrack>
							<mediatype>audio</mediatype>
							<trackindex>1</trackindex>
						</sourcetrack>
							<filter>
								<effect>
									<name>Audio Levels</name>
									<effectid>audiolevels</effectid>
									<effectcategory>audiolevels</effectcategory>
									<effecttype>audiolevels</effecttype>
									<mediatype>audio</mediatype>
									<parameter authoringApp="PremierePro">
										<parameterid>level</parameterid>
										<name>Level</name>
										<valuemin>0</valuemin>
										<valuemax>3.98109</valuemax>
										<value>0.0792446</value>
									</parameter>
								</effect>
							</filter>
						<logginginfo>
							<description></description>
							<scene></scene>
							<shottake></shottake>
							<lognote></lognote>
						</logginginfo>
						<labels>
							<label2>Iris</label2>
						</labels>
					</clipitem>
					<clipitem id="clipitem-1416" frameBlend="FALSE">
						<masterclipid>masterclip-122</masterclipid>
						<name>MVI_0422.MOV</name>
						<enabled>TRUE</enabled>
						<duration>760</duration>
						<rate>
							<timebase>25</timebase>
							<ntsc>FALSE</ntsc>
						</rate>
						<start>18811</start>
						<end>19000</end>
						<in>200</in>
						<out>389</out>
						<file id="file-110"/>
						<sourcetrack>
							<mediatype>audio</mediatype>
							<trackindex>2</trackindex>
						</sourcetrack>
						<logginginfo>
							<description></description>
							<scene></scene>
							<shottake></shottake>
							<lognote></lognote>
						</logginginfo>
						<labels>
							<label2>Iris</label2>
						</labels>
					</clipitem>
					<clipitem id="clipitem-1417" frameBlend="FALSE">
						<masterclipid>masterclip-125</masterclipid>
						<name>MVI_0411.MOV</name>
						<enabled>TRUE</enabled>
						<duration>8663</duration>
						<rate>
							<timebase>25</timebase>
							<ntsc>FALSE</ntsc>
						</rate>
						<start>19000</start>
						<end>19116</end>
						<in>1887</in>
						<out>2003</out>
						<file id="file-113"/>
						<sourcetrack>
							<mediatype>audio</mediatype>
							<trackindex>2</trackindex>
						</sourcetrack>
						<logginginfo>
							<description></description>
							<scene></scene>
							<shottake></shottake>
							<lognote></lognote>
						</logginginfo>
						<labels>
							<label2>Iris</label2>
						</labels>
					</clipitem>
					<clipitem id="clipitem-1418" frameBlend="FALSE">
						<masterclipid>masterclip-125</masterclipid>
						<name>MVI_0411.MOV</name>
						<enabled>TRUE</enabled>
						<duration>8663</duration>
						<rate>
							<timebase>25</timebase>
							<ntsc>FALSE</ntsc>
						</rate>
						<start>19116</start>
						<end>19159</end>
						<in>2406</in>
						<out>2449</out>
						<file id="file-113"/>
						<sourcetrack>
							<mediatype>audio</mediatype>
							<trackindex>2</trackindex>
						</sourcetrack>
						<logginginfo>
							<description></description>
							<scene></scene>
							<shottake></shottake>
							<lognote></lognote>
						</logginginfo>
						<labels>
							<label2>Iris</label2>
						</labels>
					</clipitem>
					<clipitem id="clipitem-1419" frameBlend="FALSE">
						<masterclipid>masterclip-125</masterclipid>
						<name>MVI_0411.MOV</name>
						<enabled>TRUE</enabled>
						<duration>8663</duration>
						<rate>
							<timebase>25</timebase>
							<ntsc>FALSE</ntsc>
						</rate>
						<start>19159</start>
						<end>19352</end>
						<in>2594</in>
						<out>2787</out>
						<file id="file-113"/>
						<sourcetrack>
							<mediatype>audio</mediatype>
							<trackindex>2</trackindex>
						</sourcetrack>
						<logginginfo>
							<description></description>
							<scene></scene>
							<shottake></shottake>
							<lognote></lognote>
						</logginginfo>
						<labels>
							<label2>Iris</label2>
						</labels>
					</clipitem>
					<clipitem id="clipitem-1420" frameBlend="FALSE">
						<masterclipid>masterclip-127</masterclipid>
						<name>MVI_0404.MOV</name>
						<enabled>TRUE</enabled>
						<duration>14801</duration>
						<rate>
							<timebase>25</timebase>
							<ntsc>FALSE</ntsc>
						</rate>
						<start>19352</start>
						<end>19432</end>
						<in>12019</in>
						<out>12099</out>
						<file id="file-115"/>
						<sourcetrack>
							<mediatype>audio</mediatype>
							<trackindex>2</trackindex>
						</sourcetrack>
						<logginginfo>
							<description></description>
							<scene></scene>
							<shottake></shottake>
							<lognote></lognote>
						</logginginfo>
						<labels>
							<label2>Iris</label2>
						</labels>
					</clipitem>
					<clipitem id="clipitem-1421" frameBlend="FALSE">
						<masterclipid>masterclip-127</masterclipid>
						<name>MVI_0404.MOV</name>
						<enabled>TRUE</enabled>
						<duration>14801</duration>
						<rate>
							<timebase>25</timebase>
							<ntsc>FALSE</ntsc>
						</rate>
						<start>19432</start>
						<end>19919</end>
						<in>12684</in>
						<out>13171</out>
						<file id="file-115"/>
						<sourcetrack>
							<mediatype>audio</mediatype>
							<trackindex>2</trackindex>
						</sourcetrack>
						<logginginfo>
							<description></description>
							<scene></scene>
							<shottake></shottake>
							<lognote></lognote>
						</logginginfo>
						<labels>
							<label2>Iris</label2>
						</labels>
					</clipitem>
					<clipitem id="clipitem-1422" frameBlend="FALSE">
						<masterclipid>masterclip-125</masterclipid>
						<name>MVI_0411.MOV</name>
						<enabled>TRUE</enabled>
						<duration>8663</duration>
						<rate>
							<timebase>25</timebase>
							<ntsc>FALSE</ntsc>
						</rate>
						<start>19919</start>
						<end>20324</end>
						<in>3373</in>
						<out>3778</out>
						<file id="file-113"/>
						<sourcetrack>
							<mediatype>audio</mediatype>
							<trackindex>2</trackindex>
						</sourcetrack>
						<logginginfo>
							<description></description>
							<scene></scene>
							<shottake></shottake>
							<lognote></lognote>
						</logginginfo>
						<labels>
							<label2>Iris</label2>
						</labels>
					</clipitem>
					<clipitem id="clipitem-1423" frameBlend="FALSE">
						<masterclipid>masterclip-125</masterclipid>
						<name>MVI_0411.MOV</name>
						<enabled>TRUE</enabled>
						<duration>8663</duration>
						<rate>
							<timebase>25</timebase>
							<ntsc>FALSE</ntsc>
						</rate>
						<start>20324</start>
						<end>20437</end>
						<in>4290</in>
						<out>4403</out>
						<file id="file-113"/>
						<sourcetrack>
							<mediatype>audio</mediatype>
							<trackindex>2</trackindex>
						</sourcetrack>
						<logginginfo>
							<description></description>
							<scene></scene>
							<shottake></shottake>
							<lognote></lognote>
						</logginginfo>
						<labels>
							<label2>Iris</label2>
						</labels>
					</clipitem>
					<clipitem id="clipitem-1424" frameBlend="FALSE">
						<masterclipid>masterclip-130</masterclipid>
						<name>AA014901.MXFCowi varemesse multi</name>
						<enabled>TRUE</enabled>
						<duration>2666</duration>
						<rate>
							<timebase>25</timebase>
							<ntsc>FALSE</ntsc>
						</rate>
						<start>20822</start>
						<end>20823</end>
						<in>1308</in>
						<out>1309</out>
						<sequence id="sequence-117"/>
							<filter>
								<effect>
									<name>Audio Levels</name>
									<effectid>audiolevels</effectid>
									<effectcategory>audiolevels</effectcategory>
									<effecttype>audiolevels</effecttype>
									<mediatype>audio</mediatype>
									<parameter authoringApp="PremierePro">
										<parameterid>level</parameterid>
										<name>Level</name>
										<valuemin>0</valuemin>
										<valuemax>3.98109</valuemax>
										<value>1.25594</value>
									</parameter>
								</effect>
							</filter>
						<link>
							<linkclipref>clipitem-1128</linkclipref>
							<mediatype>audio</mediatype>
							<trackindex>1</trackindex>
							<clipindex>88</clipindex>
						</link>
						<link>
							<linkclipref>clipitem-1424</linkclipref>
							<mediatype>audio</mediatype>
							<trackindex>3</trackindex>
							<clipindex>70</clipindex>
						</link>
						<labels>
							<label2>Forest</label2>
						</labels>
					</clipitem>
					<clipitem id="clipitem-1425" frameBlend="FALSE">
						<masterclipid>masterclip-130</masterclipid>
						<name>AA014901.MXFCowi varemesse multi</name>
						<enabled>TRUE</enabled>
						<duration>2666</duration>
						<rate>
							<timebase>25</timebase>
							<ntsc>FALSE</ntsc>
						</rate>
						<start>20823</start>
						<end>20949</end>
						<in>131</in>
						<out>257</out>
						<sequence id="sequence-117"/>
							<filter>
								<effect>
									<name>Audio Levels</name>
									<effectid>audiolevels</effectid>
									<effectcategory>audiolevels</effectcategory>
									<effecttype>audiolevels</effecttype>
									<mediatype>audio</mediatype>
									<parameter authoringApp="PremierePro">
										<parameterid>level</parameterid>
										<name>Level</name>
										<valuemin>0</valuemin>
										<valuemax>3.98109</valuemax>
										<value>1.25594</value>
									</parameter>
								</effect>
							</filter>
						<link>
							<linkclipref>clipitem-644</linkclipref>
							<mediatype>video</mediatype>
							<trackindex>1</trackindex>
							<clipindex>180</clipindex>
						</link>
						<link>
							<linkclipref>clipitem-1138</linkclipref>
							<mediatype>audio</mediatype>
							<trackindex>1</trackindex>
							<clipindex>89</clipindex>
						</link>
						<link>
							<linkclipref>clipitem-1425</linkclipref>
							<mediatype>audio</mediatype>
							<trackindex>3</trackindex>
							<clipindex>71</clipindex>
						</link>
						<labels>
							<label2>Forest</label2>
						</labels>
					</clipitem>
					<clipitem id="clipitem-1426" frameBlend="FALSE">
						<masterclipid>masterclip-130</masterclipid>
						<name>AA014901.MXFCowi varemesse multi</name>
						<enabled>TRUE</enabled>
						<duration>2666</duration>
						<rate>
							<timebase>25</timebase>
							<ntsc>FALSE</ntsc>
						</rate>
						<start>20949</start>
						<end>21051</end>
						<in>1144</in>
						<out>1246</out>
						<sequence id="sequence-117"/>
							<filter>
								<effect>
									<name>Audio Levels</name>
									<effectid>audiolevels</effectid>
									<effectcategory>audiolevels</effectcategory>
									<effecttype>audiolevels</effecttype>
									<mediatype>audio</mediatype>
									<parameter authoringApp="PremierePro">
										<parameterid>level</parameterid>
										<name>Level</name>
										<valuemin>0</valuemin>
										<valuemax>3.98109</valuemax>
										<value>1.25594</value>
									</parameter>
								</effect>
							</filter>
						<link>
							<linkclipref>clipitem-1139</linkclipref>
							<mediatype>audio</mediatype>
							<trackindex>1</trackindex>
							<clipindex>90</clipindex>
						</link>
						<link>
							<linkclipref>clipitem-1426</linkclipref>
							<mediatype>audio</mediatype>
							<trackindex>3</trackindex>
							<clipindex>72</clipindex>
						</link>
						<labels>
							<label2>Forest</label2>
						</labels>
					</clipitem>
					<clipitem id="clipitem-1427" frameBlend="FALSE">
						<masterclipid>masterclip-130</masterclipid>
						<name>AA014901.MXFCowi varemesse multi</name>
						<enabled>TRUE</enabled>
						<duration>2666</duration>
						<rate>
							<timebase>25</timebase>
							<ntsc>FALSE</ntsc>
						</rate>
						<start>21051</start>
						<end>21270</end>
						<in>1289</in>
						<out>1508</out>
						<sequence id="sequence-117"/>
							<filter>
								<effect>
									<name>Audio Levels</name>
									<effectid>audiolevels</effectid>
									<effectcategory>audiolevels</effectcategory>
									<effecttype>audiolevels</effecttype>
									<mediatype>audio</mediatype>
									<parameter authoringApp="PremierePro">
										<parameterid>level</parameterid>
										<name>Level</name>
										<valuemin>0</valuemin>
										<valuemax>3.98109</valuemax>
										<value>1.25594</value>
									</parameter>
								</effect>
							</filter>
						<link>
							<linkclipref>clipitem-1140</linkclipref>
							<mediatype>audio</mediatype>
							<trackindex>1</trackindex>
							<clipindex>91</clipindex>
						</link>
						<link>
							<linkclipref>clipitem-1427</linkclipref>
							<mediatype>audio</mediatype>
							<trackindex>3</trackindex>
							<clipindex>73</clipindex>
						</link>
						<labels>
							<label2>Forest</label2>
						</labels>
					</clipitem>
					<clipitem id="clipitem-1428" frameBlend="FALSE">
						<masterclipid>masterclip-130</masterclipid>
						<name>AA014901.MXFCowi varemesse multi</name>
						<enabled>TRUE</enabled>
						<duration>2666</duration>
						<rate>
							<timebase>25</timebase>
							<ntsc>FALSE</ntsc>
						</rate>
						<start>21270</start>
						<end>-1</end>
						<in>1507</in>
						<out>1509</out>
						<sequence id="sequence-117"/>
							<filter>
								<effect>
									<name>Audio Levels</name>
									<effectid>audiolevels</effectid>
									<effectcategory>audiolevels</effectcategory>
									<effecttype>audiolevels</effecttype>
									<mediatype>audio</mediatype>
									<parameter authoringApp="PremierePro">
										<parameterid>level</parameterid>
										<name>Level</name>
										<valuemin>0</valuemin>
										<valuemax>3.98109</valuemax>
										<value>1.25594</value>
									</parameter>
								</effect>
							</filter>
						<link>
							<linkclipref>clipitem-1141</linkclipref>
							<mediatype>audio</mediatype>
							<trackindex>1</trackindex>
							<clipindex>92</clipindex>
						</link>
						<link>
							<linkclipref>clipitem-1428</linkclipref>
							<mediatype>audio</mediatype>
							<trackindex>3</trackindex>
							<clipindex>74</clipindex>
						</link>
						<labels>
							<label2>Forest</label2>
						</labels>
					</clipitem>
					<transitionitem>
						<start>21270</start>
						<end>21272</end>
						<alignment>center</alignment>
						<cutPoint>0</cutPoint>
						<rate>
							<timebase>25</timebase>
							<ntsc>FALSE</ntsc>
						</rate>
						<effect>
							<name>Cross Fade (+3dB)</name>
							<effectid>KGAudioTransCrossFade3dB</effectid>
							<effecttype>transition</effecttype>
							<mediatype>audio</mediatype>
							<wipecode>0</wipecode>
							<wipeaccuracy>100</wipeaccuracy>
							<startratio>0</startratio>
							<endratio>1</endratio>
							<reverse>FALSE</reverse>
						</effect>
					</transitionitem>
					<clipitem id="clipitem-1429" frameBlend="FALSE">
						<masterclipid>masterclip-130</masterclipid>
						<name>AA014901.MXFCowi varemesse multi</name>
						<enabled>TRUE</enabled>
						<duration>2666</duration>
						<rate>
							<timebase>25</timebase>
							<ntsc>FALSE</ntsc>
						</rate>
						<start>-1</start>
						<end>21445</end>
						<in>1569</in>
						<out>1744</out>
						<sequence id="sequence-117"/>
							<filter>
								<effect>
									<name>Audio Levels</name>
									<effectid>audiolevels</effectid>
									<effectcategory>audiolevels</effectcategory>
									<effecttype>audiolevels</effecttype>
									<mediatype>audio</mediatype>
									<parameter authoringApp="PremierePro">
										<parameterid>level</parameterid>
										<name>Level</name>
										<valuemin>0</valuemin>
										<valuemax>3.98109</valuemax>
										<value>1.25594</value>
									</parameter>
								</effect>
							</filter>
						<link>
							<linkclipref>clipitem-659</linkclipref>
							<mediatype>video</mediatype>
							<trackindex>1</trackindex>
							<clipindex>186</clipindex>
						</link>
						<link>
							<linkclipref>clipitem-1142</linkclipref>
							<mediatype>audio</mediatype>
							<trackindex>1</trackindex>
							<clipindex>94</clipindex>
						</link>
						<link>
							<linkclipref>clipitem-1429</linkclipref>
							<mediatype>audio</mediatype>
							<trackindex>3</trackindex>
							<clipindex>76</clipindex>
						</link>
						<labels>
							<label2>Forest</label2>
						</labels>
					</clipitem>
					<clipitem id="clipitem-1430" frameBlend="FALSE">
						<masterclipid>masterclip-139</masterclipid>
						<name>AA015201.MXF</name>
						<enabled>TRUE</enabled>
						<duration>8268</duration>
						<rate>
							<timebase>25</timebase>
							<ntsc>FALSE</ntsc>
						</rate>
						<start>21830</start>
						<end>21958</end>
						<in>2324</in>
						<out>2452</out>
						<file id="file-125"/>
						<sourcetrack>
							<mediatype>audio</mediatype>
							<trackindex>1</trackindex>
						</sourcetrack>
							<filter>
								<effect>
									<name>Audio Levels</name>
									<effectid>audiolevels</effectid>
									<effectcategory>audiolevels</effectcategory>
									<effecttype>audiolevels</effecttype>
									<mediatype>audio</mediatype>
									<parameter authoringApp="PremierePro">
										<parameterid>level</parameterid>
										<name>Level</name>
										<valuemin>0</valuemin>
										<valuemax>3.98109</valuemax>
										<value>1.25594</value>
									</parameter>
								</effect>
							</filter>
						<logginginfo>
							<description></description>
							<scene></scene>
							<shottake>AA0152</shottake>
							<lognote></lognote>
						</logginginfo>
					</clipitem>
					<clipitem id="clipitem-1431" frameBlend="FALSE">
						<masterclipid>masterclip-138</masterclipid>
						<name>AA015201.MXFCowi varemesse multi</name>
						<enabled>TRUE</enabled>
						<duration>8314</duration>
						<rate>
							<timebase>25</timebase>
							<ntsc>FALSE</ntsc>
						</rate>
						<start>21958</start>
						<end>22114</end>
						<in>2498</in>
						<out>2654</out>
						<sequence id="sequence-118"/>
							<filter>
								<effect>
									<name>Audio Levels</name>
									<effectid>audiolevels</effectid>
									<effectcategory>audiolevels</effectcategory>
									<effecttype>audiolevels</effecttype>
									<mediatype>audio</mediatype>
									<parameter authoringApp="PremierePro">
										<parameterid>level</parameterid>
										<name>Level</name>
										<valuemin>0</valuemin>
										<valuemax>3.98109</valuemax>
										<value>1.25594</value>
									</parameter>
								</effect>
							</filter>
							<marker>
								<comment></comment>
								<name></name>
								<in>2575</in>
								<out>-1</out>
							</marker>
						<labels>
							<label2>Forest</label2>
						</labels>
					</clipitem>
					<clipitem id="clipitem-1432" frameBlend="FALSE">
						<masterclipid>masterclip-141</masterclipid>
						<name>AA013501.MXFCowi varemesse multi</name>
						<enabled>TRUE</enabled>
						<duration>7968</duration>
						<rate>
							<timebase>25</timebase>
							<ntsc>FALSE</ntsc>
						</rate>
						<start>22114</start>
						<end>22169</end>
						<in>169</in>
						<out>224</out>
						<sequence id="sequence-119"/>
							<filter>
								<effect>
									<name>Audio Levels</name>
									<effectid>audiolevels</effectid>
									<effectcategory>audiolevels</effectcategory>
									<effecttype>audiolevels</effecttype>
									<mediatype>audio</mediatype>
									<parameter authoringApp="PremierePro">
										<parameterid>level</parameterid>
										<name>Level</name>
										<valuemin>0</valuemin>
										<valuemax>3.98109</valuemax>
										<value>1.25594</value>
									</parameter>
								</effect>
							</filter>
						<link>
							<linkclipref>clipitem-669</linkclipref>
							<mediatype>video</mediatype>
							<trackindex>1</trackindex>
							<clipindex>191</clipindex>
						</link>
						<link>
							<linkclipref>clipitem-1149</linkclipref>
							<mediatype>audio</mediatype>
							<trackindex>1</trackindex>
							<clipindex>96</clipindex>
						</link>
						<link>
							<linkclipref>clipitem-1432</linkclipref>
							<mediatype>audio</mediatype>
							<trackindex>3</trackindex>
							<clipindex>79</clipindex>
						</link>
						<labels>
							<label2>Forest</label2>
						</labels>
					</clipitem>
					<clipitem id="clipitem-1433" frameBlend="FALSE">
						<masterclipid>masterclip-142</masterclipid>
						<name>AA013501.MXF</name>
						<enabled>TRUE</enabled>
						<duration>7968</duration>
						<rate>
							<timebase>25</timebase>
							<ntsc>FALSE</ntsc>
						</rate>
						<start>22279</start>
						<end>22431</end>
						<in>258</in>
						<out>410</out>
						<file id="file-127"/>
						<sourcetrack>
							<mediatype>audio</mediatype>
							<trackindex>2</trackindex>
						</sourcetrack>
						<link>
							<linkclipref>clipitem-1159</linkclipref>
							<mediatype>audio</mediatype>
							<trackindex>1</trackindex>
							<clipindex>97</clipindex>
						</link>
						<link>
							<linkclipref>clipitem-1433</linkclipref>
							<mediatype>audio</mediatype>
							<trackindex>3</trackindex>
							<clipindex>80</clipindex>
						</link>
						<logginginfo>
							<description></description>
							<scene></scene>
							<shottake>AA0135</shottake>
							<lognote></lognote>
						</logginginfo>
						<labels>
							<label2>Iris</label2>
						</labels>
					</clipitem>
					<clipitem id="clipitem-1434" frameBlend="FALSE">
						<masterclipid>masterclip-142</masterclipid>
						<name>AA013501.MXF</name>
						<enabled>TRUE</enabled>
						<duration>7968</duration>
						<rate>
							<timebase>25</timebase>
							<ntsc>FALSE</ntsc>
						</rate>
						<start>22431</start>
						<end>22469</end>
						<in>468</in>
						<out>506</out>
						<file id="file-127"/>
						<sourcetrack>
							<mediatype>audio</mediatype>
							<trackindex>2</trackindex>
						</sourcetrack>
						<link>
							<linkclipref>clipitem-1160</linkclipref>
							<mediatype>audio</mediatype>
							<trackindex>1</trackindex>
							<clipindex>98</clipindex>
						</link>
						<link>
							<linkclipref>clipitem-1434</linkclipref>
							<mediatype>audio</mediatype>
							<trackindex>3</trackindex>
							<clipindex>81</clipindex>
						</link>
						<logginginfo>
							<description></description>
							<scene></scene>
							<shottake>AA0135</shottake>
							<lognote></lognote>
						</logginginfo>
						<labels>
							<label2>Iris</label2>
						</labels>
					</clipitem>
					<clipitem id="clipitem-1435" frameBlend="FALSE">
						<masterclipid>masterclip-142</masterclipid>
						<name>AA013501.MXF</name>
						<enabled>TRUE</enabled>
						<duration>7968</duration>
						<rate>
							<timebase>25</timebase>
							<ntsc>FALSE</ntsc>
						</rate>
						<start>22469</start>
						<end>22539</end>
						<in>535</in>
						<out>605</out>
						<file id="file-127"/>
						<sourcetrack>
							<mediatype>audio</mediatype>
							<trackindex>2</trackindex>
						</sourcetrack>
						<link>
							<linkclipref>clipitem-1161</linkclipref>
							<mediatype>audio</mediatype>
							<trackindex>1</trackindex>
							<clipindex>99</clipindex>
						</link>
						<link>
							<linkclipref>clipitem-1435</linkclipref>
							<mediatype>audio</mediatype>
							<trackindex>3</trackindex>
							<clipindex>82</clipindex>
						</link>
						<logginginfo>
							<description></description>
							<scene></scene>
							<shottake>AA0135</shottake>
							<lognote></lognote>
						</logginginfo>
						<labels>
							<label2>Iris</label2>
						</labels>
					</clipitem>
					<clipitem id="clipitem-1436" frameBlend="FALSE">
						<masterclipid>masterclip-142</masterclipid>
						<name>AA013501.MXF</name>
						<enabled>TRUE</enabled>
						<duration>7968</duration>
						<rate>
							<timebase>25</timebase>
							<ntsc>FALSE</ntsc>
						</rate>
						<start>22539</start>
						<end>22549</end>
						<in>642</in>
						<out>652</out>
						<file id="file-127"/>
						<sourcetrack>
							<mediatype>audio</mediatype>
							<trackindex>2</trackindex>
						</sourcetrack>
						<link>
							<linkclipref>clipitem-1162</linkclipref>
							<mediatype>audio</mediatype>
							<trackindex>1</trackindex>
							<clipindex>100</clipindex>
						</link>
						<link>
							<linkclipref>clipitem-1436</linkclipref>
							<mediatype>audio</mediatype>
							<trackindex>3</trackindex>
							<clipindex>83</clipindex>
						</link>
						<logginginfo>
							<description></description>
							<scene></scene>
							<shottake>AA0135</shottake>
							<lognote></lognote>
						</logginginfo>
						<labels>
							<label2>Iris</label2>
						</labels>
					</clipitem>
					<clipitem id="clipitem-1437" frameBlend="FALSE">
						<masterclipid>masterclip-142</masterclipid>
						<name>AA013501.MXF</name>
						<enabled>TRUE</enabled>
						<duration>7968</duration>
						<rate>
							<timebase>25</timebase>
							<ntsc>FALSE</ntsc>
						</rate>
						<start>22549</start>
						<end>22602</end>
						<in>667</in>
						<out>720</out>
						<file id="file-127"/>
						<sourcetrack>
							<mediatype>audio</mediatype>
							<trackindex>2</trackindex>
						</sourcetrack>
						<link>
							<linkclipref>clipitem-1163</linkclipref>
							<mediatype>audio</mediatype>
							<trackindex>1</trackindex>
							<clipindex>101</clipindex>
						</link>
						<link>
							<linkclipref>clipitem-1437</linkclipref>
							<mediatype>audio</mediatype>
							<trackindex>3</trackindex>
							<clipindex>84</clipindex>
						</link>
						<logginginfo>
							<description></description>
							<scene></scene>
							<shottake>AA0135</shottake>
							<lognote></lognote>
						</logginginfo>
						<labels>
							<label2>Iris</label2>
						</labels>
					</clipitem>
					<clipitem id="clipitem-1438" frameBlend="FALSE">
						<masterclipid>masterclip-151</masterclipid>
						<name>AA014101.MXFCowi varemesse multi</name>
						<enabled>TRUE</enabled>
						<duration>7263</duration>
						<rate>
							<timebase>25</timebase>
							<ntsc>FALSE</ntsc>
						</rate>
						<start>23103</start>
						<end>23251</end>
						<in>6404</in>
						<out>6552</out>
						<sequence id="sequence-120"/>
							<filter>
								<effect>
									<name>Audio Levels</name>
									<effectid>audiolevels</effectid>
									<effectcategory>audiolevels</effectcategory>
									<effecttype>audiolevels</effecttype>
									<mediatype>audio</mediatype>
									<parameter authoringApp="PremierePro">
										<parameterid>level</parameterid>
										<name>Level</name>
										<valuemin>0</valuemin>
										<valuemax>3.98109</valuemax>
										<value>1.25594</value>
									</parameter>
								</effect>
							</filter>
						<link>
							<linkclipref>clipitem-1183</linkclipref>
							<mediatype>audio</mediatype>
							<trackindex>1</trackindex>
							<clipindex>103</clipindex>
						</link>
						<link>
							<linkclipref>clipitem-1438</linkclipref>
							<mediatype>audio</mediatype>
							<trackindex>3</trackindex>
							<clipindex>85</clipindex>
						</link>
						<labels>
							<label2>Forest</label2>
						</labels>
					</clipitem>
					<clipitem id="clipitem-1439" frameBlend="FALSE">
						<masterclipid>masterclip-151</masterclipid>
						<name>AA014101.MXFCowi varemesse multi</name>
						<enabled>TRUE</enabled>
						<duration>7263</duration>
						<rate>
							<timebase>25</timebase>
							<ntsc>FALSE</ntsc>
						</rate>
						<start>23251</start>
						<end>23405</end>
						<in>6574</in>
						<out>6728</out>
						<sequence id="sequence-120"/>
							<filter>
								<effect>
									<name>Audio Levels</name>
									<effectid>audiolevels</effectid>
									<effectcategory>audiolevels</effectcategory>
									<effecttype>audiolevels</effecttype>
									<mediatype>audio</mediatype>
									<parameter authoringApp="PremierePro">
										<parameterid>level</parameterid>
										<name>Level</name>
										<valuemin>0</valuemin>
										<valuemax>3.98109</valuemax>
										<value>1.25594</value>
									</parameter>
								</effect>
							</filter>
						<link>
							<linkclipref>clipitem-1184</linkclipref>
							<mediatype>audio</mediatype>
							<trackindex>1</trackindex>
							<clipindex>104</clipindex>
						</link>
						<link>
							<linkclipref>clipitem-1439</linkclipref>
							<mediatype>audio</mediatype>
							<trackindex>3</trackindex>
							<clipindex>86</clipindex>
						</link>
						<labels>
							<label2>Forest</label2>
						</labels>
					</clipitem>
					<clipitem id="clipitem-1440" frameBlend="FALSE">
						<masterclipid>masterclip-151</masterclipid>
						<name>AA014101.MXFCowi varemesse multi</name>
						<enabled>TRUE</enabled>
						<duration>7263</duration>
						<rate>
							<timebase>25</timebase>
							<ntsc>FALSE</ntsc>
						</rate>
						<start>23405</start>
						<end>23609</end>
						<in>6751</in>
						<out>6955</out>
						<sequence id="sequence-120"/>
							<filter>
								<effect>
									<name>Audio Levels</name>
									<effectid>audiolevels</effectid>
									<effectcategory>audiolevels</effectcategory>
									<effecttype>audiolevels</effecttype>
									<mediatype>audio</mediatype>
									<parameter authoringApp="PremierePro">
										<parameterid>level</parameterid>
										<name>Level</name>
										<valuemin>0</valuemin>
										<valuemax>3.98109</valuemax>
										<value>1.25594</value>
									</parameter>
								</effect>
							</filter>
						<link>
							<linkclipref>clipitem-712</linkclipref>
							<mediatype>video</mediatype>
							<trackindex>1</trackindex>
							<clipindex>201</clipindex>
						</link>
						<link>
							<linkclipref>clipitem-1185</linkclipref>
							<mediatype>audio</mediatype>
							<trackindex>1</trackindex>
							<clipindex>105</clipindex>
						</link>
						<link>
							<linkclipref>clipitem-1440</linkclipref>
							<mediatype>audio</mediatype>
							<trackindex>3</trackindex>
							<clipindex>87</clipindex>
						</link>
						<labels>
							<label2>Forest</label2>
						</labels>
					</clipitem>
					<clipitem id="clipitem-1441" frameBlend="FALSE">
						<masterclipid>masterclip-156</masterclipid>
						<name>AA013701.MXFCowi varemesse multi</name>
						<enabled>TRUE</enabled>
						<duration>12814</duration>
						<rate>
							<timebase>25</timebase>
							<ntsc>FALSE</ntsc>
						</rate>
						<start>23609</start>
						<end>23836</end>
						<in>10550</in>
						<out>10777</out>
						<sequence id="sequence-121"/>
							<filter>
								<effect>
									<name>Audio Levels</name>
									<effectid>audiolevels</effectid>
									<effectcategory>audiolevels</effectcategory>
									<effecttype>audiolevels</effecttype>
									<mediatype>audio</mediatype>
									<parameter authoringApp="PremierePro">
										<parameterid>level</parameterid>
										<name>Level</name>
										<valuemin>0</valuemin>
										<valuemax>3.98109</valuemax>
										<value>1.25594</value>
									</parameter>
								</effect>
							</filter>
							<marker>
								<comment></comment>
								<name></name>
								<in>10507</in>
								<out>-1</out>
							</marker>
							<marker>
								<comment></comment>
								<name></name>
								<in>12671</in>
								<out>-1</out>
							</marker>
							<marker>
								<comment></comment>
								<name></name>
								<in>6786</in>
								<out>-1</out>
							</marker>
							<marker>
								<comment></comment>
								<name></name>
								<in>1344</in>
								<out>-1</out>
							</marker>
						<link>
							<linkclipref>clipitem-715</linkclipref>
							<mediatype>video</mediatype>
							<trackindex>1</trackindex>
							<clipindex>204</clipindex>
						</link>
						<link>
							<linkclipref>clipitem-1186</linkclipref>
							<mediatype>audio</mediatype>
							<trackindex>1</trackindex>
							<clipindex>106</clipindex>
						</link>
						<link>
							<linkclipref>clipitem-1441</linkclipref>
							<mediatype>audio</mediatype>
							<trackindex>3</trackindex>
							<clipindex>88</clipindex>
						</link>
						<labels>
							<label2>Forest</label2>
						</labels>
					</clipitem>
					<clipitem id="clipitem-1442" frameBlend="FALSE">
						<masterclipid>masterclip-160</masterclipid>
						<name>AA014301.MXFCowi varemesse multi</name>
						<enabled>TRUE</enabled>
						<duration>13167</duration>
						<rate>
							<timebase>25</timebase>
							<ntsc>FALSE</ntsc>
						</rate>
						<start>23836</start>
						<end>24555</end>
						<in>11828</in>
						<out>12547</out>
						<sequence id="sequence-122"/>
							<filter>
								<effect>
									<name>Audio Levels</name>
									<effectid>audiolevels</effectid>
									<effectcategory>audiolevels</effectcategory>
									<effecttype>audiolevels</effecttype>
									<mediatype>audio</mediatype>
									<parameter authoringApp="PremierePro">
										<parameterid>level</parameterid>
										<name>Level</name>
										<valuemin>0</valuemin>
										<valuemax>3.98109</valuemax>
										<value>1.25594</value>
									</parameter>
								</effect>
							</filter>
						<link>
							<linkclipref>clipitem-1196</linkclipref>
							<mediatype>audio</mediatype>
							<trackindex>1</trackindex>
							<clipindex>107</clipindex>
						</link>
						<link>
							<linkclipref>clipitem-1442</linkclipref>
							<mediatype>audio</mediatype>
							<trackindex>3</trackindex>
							<clipindex>89</clipindex>
						</link>
						<labels>
							<label2>Forest</label2>
						</labels>
					</clipitem>
					<clipitem id="clipitem-1443" frameBlend="FALSE">
						<masterclipid>masterclip-160</masterclipid>
						<name>AA014301.MXFCowi varemesse multi</name>
						<enabled>TRUE</enabled>
						<duration>13167</duration>
						<rate>
							<timebase>25</timebase>
							<ntsc>FALSE</ntsc>
						</rate>
						<start>24651</start>
						<end>24778</end>
						<in>7131</in>
						<out>7258</out>
						<sequence id="sequence-122"/>
							<filter>
								<effect>
									<name>Audio Levels</name>
									<effectid>audiolevels</effectid>
									<effectcategory>audiolevels</effectcategory>
									<effecttype>audiolevels</effecttype>
									<mediatype>audio</mediatype>
									<parameter authoringApp="PremierePro">
										<parameterid>level</parameterid>
										<name>Level</name>
										<valuemin>0</valuemin>
										<valuemax>3.98109</valuemax>
										<value>1.25594</value>
									</parameter>
								</effect>
							</filter>
						<link>
							<linkclipref>clipitem-1209</linkclipref>
							<mediatype>audio</mediatype>
							<trackindex>1</trackindex>
							<clipindex>108</clipindex>
						</link>
						<link>
							<linkclipref>clipitem-1443</linkclipref>
							<mediatype>audio</mediatype>
							<trackindex>3</trackindex>
							<clipindex>90</clipindex>
						</link>
						<labels>
							<label2>Forest</label2>
						</labels>
					</clipitem>
					<clipitem id="clipitem-1444" frameBlend="FALSE">
						<masterclipid>masterclip-168</masterclipid>
						<name>AA049801.MXFMulticam case</name>
						<enabled>TRUE</enabled>
						<duration>20553</duration>
						<rate>
							<timebase>25</timebase>
							<ntsc>FALSE</ntsc>
						</rate>
						<start>25440</start>
						<end>25690</end>
						<in>1458</in>
						<out>1708</out>
						<sequence id="sequence-123"/>
							<filter>
								<effect>
									<name>Audio Levels</name>
									<effectid>audiolevels</effectid>
									<effectcategory>audiolevels</effectcategory>
									<effecttype>audiolevels</effecttype>
									<mediatype>audio</mediatype>
									<parameter authoringApp="PremierePro">
										<parameterid>level</parameterid>
										<name>Level</name>
										<valuemin>0</valuemin>
										<valuemax>3.98109</valuemax>
										<value>0.542571</value>
									</parameter>
								</effect>
							</filter>
							<marker>
								<comment>har jeg noe ￃﾥ frykrte, hvis du ikke er kriminiell sￃﾥ har du nope ￃﾥￂﾨskjul, privatlivet dittt</comment>
								<name>frykter noe?</name>
								<in>4526</in>
								<out>-1</out>
							</marker>
							<marker>
								<comment>trenger ikke smartsamfunn der alt styres sentralt</comment>
								<name></name>
								<in>10020</in>
								<out>-1</out>
							</marker>
							<marker>
								<comment>blir lettere nￃﾥr alt er koblet sammen</comment>
								<name>mer bevkemt for meg</name>
								<in>12428</in>
								<out>-1</out>
							</marker>
							<marker>
								<comment>gjￃﾸr at du kan overvￃﾥkes og det er for ￃﾥ spare penger</comment>
								<name>folkebedrag</name>
								<in>6238</in>
								<out>-1</out>
							</marker>
							<marker>
								<comment>kan se hva du gjￃﾸr hvilke apparater du bruker</comment>
								<name></name>
								<in>7411</in>
								<out>-1</out>
							</marker>
							<marker>
								<comment>ymndighetene vil stoppe deg pￃﾥ ferden hvis de vil det</comment>
								<name>kan stoppe deg</name>
								<in>10932</in>
								<out>-1</out>
							</marker>
							<marker>
								<comment>hva tenker du om smart framtid?</comment>
								<name></name>
								<in>5749</in>
								<out>-1</out>
							</marker>
							<marker>
								<comment>frither og valgmuligheter</comment>
								<name>taper </name>
								<in>14685</in>
								<out>-1</out>
							</marker>
							<marker>
								<comment>hvis informasjon lagres vil den brukes!</comment>
								<name>BRA</name>
								<in>8605</in>
								<out>-1</out>
							</marker>
							<marker>
								<comment>sￃﾸken etter trygghet kan ikke bli total, men vi taper total frihet</comment>
								<name>sￃﾸken</name>
								<in>15642</in>
								<out>-1</out>
							</marker>
							<marker>
								<comment>hvis noe ikke likes i et samfunn fremover</comment>
								<name>holdning</name>
								<in>3544</in>
								<out>-1</out>
							</marker>
							<marker>
								<comment>kan meninger, sksuelle legniner og organisasjonstilkntning mistenkeliggjￃﾸres</comment>
								<name>selv demokrati</name>
								<in>18716</in>
								<out>-1</out>
							</marker>
							<marker>
								<comment>hvordan skal du klare deg i framtiden nￃﾥr alt snakker med alt?</comment>
								<name>klare du?</name>
								<in>9067</in>
								<out>-1</out>
							</marker>
							<marker>
								<comment>vi mister ferdigheter og bilene er avhengig av gps og sensorer i veibanen</comment>
								<name>bilder slutter ￃﾥ funke</name>
								<in>14093</in>
								<out>-1</out>
							</marker>
							<marker>
								<comment>vi har jo snille politikere, vil de virkelig overvￃﾥke oss</comment>
								<name>snille politikere</name>
								<in>15901</in>
								<out>-1</out>
							</marker>
							<marker>
								<comment>bￃﾥde myndigheter og kriminuelle vil ha interesse av informasjon om oss</comment>
								<name>myndigheter</name>
								<in>17635</in>
								<out>-1</out>
							</marker>
							<marker>
								<comment>intensjonen kan vￃﾦre god, men hva vil det medfￃﾸre</comment>
								<name>politi</name>
								<in>1608</in>
								<out>-1</out>
							</marker>
						<link>
							<linkclipref>clipitem-749</linkclipref>
							<mediatype>video</mediatype>
							<trackindex>1</trackindex>
							<clipindex>217</clipindex>
						</link>
						<link>
							<linkclipref>clipitem-1212</linkclipref>
							<mediatype>audio</mediatype>
							<trackindex>1</trackindex>
							<clipindex>112</clipindex>
						</link>
						<link>
							<linkclipref>clipitem-1444</linkclipref>
							<mediatype>audio</mediatype>
							<trackindex>3</trackindex>
							<clipindex>91</clipindex>
						</link>
						<labels>
							<label2>Forest</label2>
						</labels>
					</clipitem>
					<clipitem id="clipitem-1445" frameBlend="FALSE">
						<masterclipid>masterclip-168</masterclipid>
						<name>AA049801.MXFMulticam case</name>
						<enabled>TRUE</enabled>
						<duration>20553</duration>
						<rate>
							<timebase>25</timebase>
							<ntsc>FALSE</ntsc>
						</rate>
						<start>25690</start>
						<end>25763</end>
						<in>1708</in>
						<out>1781</out>
						<sequence id="sequence-123"/>
							<filter>
								<effect>
									<name>Audio Levels</name>
									<effectid>audiolevels</effectid>
									<effectcategory>audiolevels</effectcategory>
									<effecttype>audiolevels</effecttype>
									<mediatype>audio</mediatype>
									<parameter authoringApp="PremierePro">
										<parameterid>level</parameterid>
										<name>Level</name>
										<valuemin>0</valuemin>
										<valuemax>3.98109</valuemax>
										<value>0.577575</value>
									</parameter>
								</effect>
							</filter>
							<marker>
								<comment>har jeg noe ￃﾥ frykrte, hvis du ikke er kriminiell sￃﾥ har du nope ￃﾥￂﾨskjul, privatlivet dittt</comment>
								<name>frykter noe?</name>
								<in>4526</in>
								<out>-1</out>
							</marker>
							<marker>
								<comment>trenger ikke smartsamfunn der alt styres sentralt</comment>
								<name></name>
								<in>10020</in>
								<out>-1</out>
							</marker>
							<marker>
								<comment>blir lettere nￃﾥr alt er koblet sammen</comment>
								<name>mer bevkemt for meg</name>
								<in>12428</in>
								<out>-1</out>
							</marker>
							<marker>
								<comment>gjￃﾸr at du kan overvￃﾥkes og det er for ￃﾥ spare penger</comment>
								<name>folkebedrag</name>
								<in>6238</in>
								<out>-1</out>
							</marker>
							<marker>
								<comment>kan se hva du gjￃﾸr hvilke apparater du bruker</comment>
								<name></name>
								<in>7411</in>
								<out>-1</out>
							</marker>
							<marker>
								<comment>ymndighetene vil stoppe deg pￃﾥ ferden hvis de vil det</comment>
								<name>kan stoppe deg</name>
								<in>10932</in>
								<out>-1</out>
							</marker>
							<marker>
								<comment>hva tenker du om smart framtid?</comment>
								<name></name>
								<in>5749</in>
								<out>-1</out>
							</marker>
							<marker>
								<comment>frither og valgmuligheter</comment>
								<name>taper </name>
								<in>14685</in>
								<out>-1</out>
							</marker>
							<marker>
								<comment>hvis informasjon lagres vil den brukes!</comment>
								<name>BRA</name>
								<in>8605</in>
								<out>-1</out>
							</marker>
							<marker>
								<comment>sￃﾸken etter trygghet kan ikke bli total, men vi taper total frihet</comment>
								<name>sￃﾸken</name>
								<in>15642</in>
								<out>-1</out>
							</marker>
							<marker>
								<comment>hvis noe ikke likes i et samfunn fremover</comment>
								<name>holdning</name>
								<in>3544</in>
								<out>-1</out>
							</marker>
							<marker>
								<comment>kan meninger, sksuelle legniner og organisasjonstilkntning mistenkeliggjￃﾸres</comment>
								<name>selv demokrati</name>
								<in>18716</in>
								<out>-1</out>
							</marker>
							<marker>
								<comment>hvordan skal du klare deg i framtiden nￃﾥr alt snakker med alt?</comment>
								<name>klare du?</name>
								<in>9067</in>
								<out>-1</out>
							</marker>
							<marker>
								<comment>vi mister ferdigheter og bilene er avhengig av gps og sensorer i veibanen</comment>
								<name>bilder slutter ￃﾥ funke</name>
								<in>14093</in>
								<out>-1</out>
							</marker>
							<marker>
								<comment>vi har jo snille politikere, vil de virkelig overvￃﾥke oss</comment>
								<name>snille politikere</name>
								<in>15901</in>
								<out>-1</out>
							</marker>
							<marker>
								<comment>bￃﾥde myndigheter og kriminuelle vil ha interesse av informasjon om oss</comment>
								<name>myndigheter</name>
								<in>17635</in>
								<out>-1</out>
							</marker>
							<marker>
								<comment>intensjonen kan vￃﾦre god, men hva vil det medfￃﾸre</comment>
								<name>politi</name>
								<in>1608</in>
								<out>-1</out>
							</marker>
						<link>
							<linkclipref>clipitem-758</linkclipref>
							<mediatype>video</mediatype>
							<trackindex>1</trackindex>
							<clipindex>218</clipindex>
						</link>
						<link>
							<linkclipref>clipitem-1225</linkclipref>
							<mediatype>audio</mediatype>
							<trackindex>1</trackindex>
							<clipindex>113</clipindex>
						</link>
						<link>
							<linkclipref>clipitem-1445</linkclipref>
							<mediatype>audio</mediatype>
							<trackindex>3</trackindex>
							<clipindex>92</clipindex>
						</link>
						<labels>
							<label2>Forest</label2>
						</labels>
					</clipitem>
					<clipitem id="clipitem-1446" frameBlend="FALSE">
						<masterclipid>masterclip-168</masterclipid>
						<name>AA049801.MXFMulticam case</name>
						<enabled>TRUE</enabled>
						<duration>20553</duration>
						<rate>
							<timebase>25</timebase>
							<ntsc>FALSE</ntsc>
						</rate>
						<start>25763</start>
						<end>25954</end>
						<in>8388</in>
						<out>8579</out>
						<sequence id="sequence-123"/>
							<marker>
								<comment>har jeg noe ￃﾥ frykrte, hvis du ikke er kriminiell sￃﾥ har du nope ￃﾥￂﾨskjul, privatlivet dittt</comment>
								<name>frykter noe?</name>
								<in>4526</in>
								<out>-1</out>
							</marker>
							<marker>
								<comment>trenger ikke smartsamfunn der alt styres sentralt</comment>
								<name></name>
								<in>10020</in>
								<out>-1</out>
							</marker>
							<marker>
								<comment>blir lettere nￃﾥr alt er koblet sammen</comment>
								<name>mer bevkemt for meg</name>
								<in>12428</in>
								<out>-1</out>
							</marker>
							<marker>
								<comment>gjￃﾸr at du kan overvￃﾥkes og det er for ￃﾥ spare penger</comment>
								<name>folkebedrag</name>
								<in>6238</in>
								<out>-1</out>
							</marker>
							<marker>
								<comment>kan se hva du gjￃﾸr hvilke apparater du bruker</comment>
								<name></name>
								<in>7411</in>
								<out>-1</out>
							</marker>
							<marker>
								<comment>ymndighetene vil stoppe deg pￃﾥ ferden hvis de vil det</comment>
								<name>kan stoppe deg</name>
								<in>10932</in>
								<out>-1</out>
							</marker>
							<marker>
								<comment>hva tenker du om smart framtid?</comment>
								<name></name>
								<in>5749</in>
								<out>-1</out>
							</marker>
							<marker>
								<comment>frither og valgmuligheter</comment>
								<name>taper </name>
								<in>14685</in>
								<out>-1</out>
							</marker>
							<marker>
								<comment>hvis informasjon lagres vil den brukes!</comment>
								<name>BRA</name>
								<in>8605</in>
								<out>-1</out>
							</marker>
							<marker>
								<comment>sￃﾸken etter trygghet kan ikke bli total, men vi taper total frihet</comment>
								<name>sￃﾸken</name>
								<in>15642</in>
								<out>-1</out>
							</marker>
							<marker>
								<comment>hvis noe ikke likes i et samfunn fremover</comment>
								<name>holdning</name>
								<in>3544</in>
								<out>-1</out>
							</marker>
							<marker>
								<comment>kan meninger, sksuelle legniner og organisasjonstilkntning mistenkeliggjￃﾸres</comment>
								<name>selv demokrati</name>
								<in>18716</in>
								<out>-1</out>
							</marker>
							<marker>
								<comment>hvordan skal du klare deg i framtiden nￃﾥr alt snakker med alt?</comment>
								<name>klare du?</name>
								<in>9067</in>
								<out>-1</out>
							</marker>
							<marker>
								<comment>vi mister ferdigheter og bilene er avhengig av gps og sensorer i veibanen</comment>
								<name>bilder slutter ￃﾥ funke</name>
								<in>14093</in>
								<out>-1</out>
							</marker>
							<marker>
								<comment>vi har jo snille politikere, vil de virkelig overvￃﾥke oss</comment>
								<name>snille politikere</name>
								<in>15901</in>
								<out>-1</out>
							</marker>
							<marker>
								<comment>bￃﾥde myndigheter og kriminuelle vil ha interesse av informasjon om oss</comment>
								<name>myndigheter</name>
								<in>17635</in>
								<out>-1</out>
							</marker>
							<marker>
								<comment>intensjonen kan vￃﾦre god, men hva vil det medfￃﾸre</comment>
								<name>politi</name>
								<in>1608</in>
								<out>-1</out>
							</marker>
						<link>
							<linkclipref>clipitem-759</linkclipref>
							<mediatype>video</mediatype>
							<trackindex>1</trackindex>
							<clipindex>219</clipindex>
						</link>
						<link>
							<linkclipref>clipitem-1226</linkclipref>
							<mediatype>audio</mediatype>
							<trackindex>1</trackindex>
							<clipindex>114</clipindex>
						</link>
						<link>
							<linkclipref>clipitem-1446</linkclipref>
							<mediatype>audio</mediatype>
							<trackindex>3</trackindex>
							<clipindex>93</clipindex>
						</link>
						<labels>
							<label2>Forest</label2>
						</labels>
					</clipitem>
					<transitionitem>
						<start>25980</start>
						<end>25982</end>
						<alignment>start-black</alignment>
						<cutPoint>0</cutPoint>
						<rate>
							<timebase>25</timebase>
							<ntsc>FALSE</ntsc>
						</rate>
						<effect>
							<name>Cross Fade (+3dB)</name>
							<effectid>KGAudioTransCrossFade3dB</effectid>
							<effecttype>transition</effecttype>
							<mediatype>audio</mediatype>
							<wipecode>0</wipecode>
							<wipeaccuracy>100</wipeaccuracy>
							<startratio>0</startratio>
							<endratio>1</endratio>
							<reverse>FALSE</reverse>
						</effect>
					</transitionitem>
					<clipitem id="clipitem-1447" frameBlend="FALSE">
						<masterclipid>masterclip-168</masterclipid>
						<name>AA049801.MXFMulticam case</name>
						<enabled>TRUE</enabled>
						<duration>20553</duration>
						<rate>
							<timebase>25</timebase>
							<ntsc>FALSE</ntsc>
						</rate>
						<start>-1</start>
						<end>26619</end>
						<in>12091</in>
						<out>12730</out>
						<sequence id="sequence-123"/>
							<marker>
								<comment>har jeg noe ￃﾥ frykrte, hvis du ikke er kriminiell sￃﾥ har du nope ￃﾥￂﾨskjul, privatlivet dittt</comment>
								<name>frykter noe?</name>
								<in>4526</in>
								<out>-1</out>
							</marker>
							<marker>
								<comment>trenger ikke smartsamfunn der alt styres sentralt</comment>
								<name></name>
								<in>10020</in>
								<out>-1</out>
							</marker>
							<marker>
								<comment>blir lettere nￃﾥr alt er koblet sammen</comment>
								<name>mer bevkemt for meg</name>
								<in>12428</in>
								<out>-1</out>
							</marker>
							<marker>
								<comment>gjￃﾸr at du kan overvￃﾥkes og det er for ￃﾥ spare penger</comment>
								<name>folkebedrag</name>
								<in>6238</in>
								<out>-1</out>
							</marker>
							<marker>
								<comment>kan se hva du gjￃﾸr hvilke apparater du bruker</comment>
								<name></name>
								<in>7411</in>
								<out>-1</out>
							</marker>
							<marker>
								<comment>ymndighetene vil stoppe deg pￃﾥ ferden hvis de vil det</comment>
								<name>kan stoppe deg</name>
								<in>10932</in>
								<out>-1</out>
							</marker>
							<marker>
								<comment>hva tenker du om smart framtid?</comment>
								<name></name>
								<in>5749</in>
								<out>-1</out>
							</marker>
							<marker>
								<comment>frither og valgmuligheter</comment>
								<name>taper </name>
								<in>14685</in>
								<out>-1</out>
							</marker>
							<marker>
								<comment>hvis informasjon lagres vil den brukes!</comment>
								<name>BRA</name>
								<in>8605</in>
								<out>-1</out>
							</marker>
							<marker>
								<comment>sￃﾸken etter trygghet kan ikke bli total, men vi taper total frihet</comment>
								<name>sￃﾸken</name>
								<in>15642</in>
								<out>-1</out>
							</marker>
							<marker>
								<comment>hvis noe ikke likes i et samfunn fremover</comment>
								<name>holdning</name>
								<in>3544</in>
								<out>-1</out>
							</marker>
							<marker>
								<comment>kan meninger, sksuelle legniner og organisasjonstilkntning mistenkeliggjￃﾸres</comment>
								<name>selv demokrati</name>
								<in>18716</in>
								<out>-1</out>
							</marker>
							<marker>
								<comment>hvordan skal du klare deg i framtiden nￃﾥr alt snakker med alt?</comment>
								<name>klare du?</name>
								<in>9067</in>
								<out>-1</out>
							</marker>
							<marker>
								<comment>vi mister ferdigheter og bilene er avhengig av gps og sensorer i veibanen</comment>
								<name>bilder slutter ￃﾥ funke</name>
								<in>14093</in>
								<out>-1</out>
							</marker>
							<marker>
								<comment>vi har jo snille politikere, vil de virkelig overvￃﾥke oss</comment>
								<name>snille politikere</name>
								<in>15901</in>
								<out>-1</out>
							</marker>
							<marker>
								<comment>bￃﾥde myndigheter og kriminuelle vil ha interesse av informasjon om oss</comment>
								<name>myndigheter</name>
								<in>17635</in>
								<out>-1</out>
							</marker>
							<marker>
								<comment>intensjonen kan vￃﾦre god, men hva vil det medfￃﾸre</comment>
								<name>politi</name>
								<in>1608</in>
								<out>-1</out>
							</marker>
						<labels>
							<label2>Forest</label2>
						</labels>
					</clipitem>
					<clipitem id="clipitem-1448" frameBlend="FALSE">
						<masterclipid>masterclip-168</masterclipid>
						<name>AA049801.MXFMulticam case</name>
						<enabled>TRUE</enabled>
						<duration>20553</duration>
						<rate>
							<timebase>25</timebase>
							<ntsc>FALSE</ntsc>
						</rate>
						<start>26619</start>
						<end>27253</end>
						<in>15152</in>
						<out>15786</out>
						<sequence id="sequence-123"/>
							<marker>
								<comment>har jeg noe ￃﾥ frykrte, hvis du ikke er kriminiell sￃﾥ har du nope ￃﾥￂﾨskjul, privatlivet dittt</comment>
								<name>frykter noe?</name>
								<in>4526</in>
								<out>-1</out>
							</marker>
							<marker>
								<comment>trenger ikke smartsamfunn der alt styres sentralt</comment>
								<name></name>
								<in>10020</in>
								<out>-1</out>
							</marker>
							<marker>
								<comment>blir lettere nￃﾥr alt er koblet sammen</comment>
								<name>mer bevkemt for meg</name>
								<in>12428</in>
								<out>-1</out>
							</marker>
							<marker>
								<comment>gjￃﾸr at du kan overvￃﾥkes og det er for ￃﾥ spare penger</comment>
								<name>folkebedrag</name>
								<in>6238</in>
								<out>-1</out>
							</marker>
							<marker>
								<comment>kan se hva du gjￃﾸr hvilke apparater du bruker</comment>
								<name></name>
								<in>7411</in>
								<out>-1</out>
							</marker>
							<marker>
								<comment>ymndighetene vil stoppe deg pￃﾥ ferden hvis de vil det</comment>
								<name>kan stoppe deg</name>
								<in>10932</in>
								<out>-1</out>
							</marker>
							<marker>
								<comment>hva tenker du om smart framtid?</comment>
								<name></name>
								<in>5749</in>
								<out>-1</out>
							</marker>
							<marker>
								<comment>frither og valgmuligheter</comment>
								<name>taper </name>
								<in>14685</in>
								<out>-1</out>
							</marker>
							<marker>
								<comment>hvis informasjon lagres vil den brukes!</comment>
								<name>BRA</name>
								<in>8605</in>
								<out>-1</out>
							</marker>
							<marker>
								<comment>sￃﾸken etter trygghet kan ikke bli total, men vi taper total frihet</comment>
								<name>sￃﾸken</name>
								<in>15642</in>
								<out>-1</out>
							</marker>
							<marker>
								<comment>hvis noe ikke likes i et samfunn fremover</comment>
								<name>holdning</name>
								<in>3544</in>
								<out>-1</out>
							</marker>
							<marker>
								<comment>kan meninger, sksuelle legniner og organisasjonstilkntning mistenkeliggjￃﾸres</comment>
								<name>selv demokrati</name>
								<in>18716</in>
								<out>-1</out>
							</marker>
							<marker>
								<comment>hvordan skal du klare deg i framtiden nￃﾥr alt snakker med alt?</comment>
								<name>klare du?</name>
								<in>9067</in>
								<out>-1</out>
							</marker>
							<marker>
								<comment>vi mister ferdigheter og bilene er avhengig av gps og sensorer i veibanen</comment>
								<name>bilder slutter ￃﾥ funke</name>
								<in>14093</in>
								<out>-1</out>
							</marker>
							<marker>
								<comment>vi har jo snille politikere, vil de virkelig overvￃﾥke oss</comment>
								<name>snille politikere</name>
								<in>15901</in>
								<out>-1</out>
							</marker>
							<marker>
								<comment>bￃﾥde myndigheter og kriminuelle vil ha interesse av informasjon om oss</comment>
								<name>myndigheter</name>
								<in>17635</in>
								<out>-1</out>
							</marker>
							<marker>
								<comment>intensjonen kan vￃﾦre god, men hva vil det medfￃﾸre</comment>
								<name>politi</name>
								<in>1608</in>
								<out>-1</out>
							</marker>
						<link>
							<linkclipref>clipitem-764</linkclipref>
							<mediatype>video</mediatype>
							<trackindex>1</trackindex>
							<clipindex>224</clipindex>
						</link>
						<link>
							<linkclipref>clipitem-1228</linkclipref>
							<mediatype>audio</mediatype>
							<trackindex>1</trackindex>
							<clipindex>117</clipindex>
						</link>
						<link>
							<linkclipref>clipitem-1448</linkclipref>
							<mediatype>audio</mediatype>
							<trackindex>3</trackindex>
							<clipindex>96</clipindex>
						</link>
						<labels>
							<label2>Forest</label2>
						</labels>
					</clipitem>
					<clipitem id="clipitem-1449" frameBlend="FALSE">
						<masterclipid>masterclip-168</masterclipid>
						<name>AA049801.MXFMulticam case</name>
						<enabled>TRUE</enabled>
						<duration>20553</duration>
						<rate>
							<timebase>25</timebase>
							<ntsc>FALSE</ntsc>
						</rate>
						<start>27667</start>
						<end>28959</end>
						<in>19179</in>
						<out>20471</out>
						<sequence id="sequence-123"/>
							<marker>
								<comment>har jeg noe ￃﾥ frykrte, hvis du ikke er kriminiell sￃﾥ har du nope ￃﾥￂﾨskjul, privatlivet dittt</comment>
								<name>frykter noe?</name>
								<in>4526</in>
								<out>-1</out>
							</marker>
							<marker>
								<comment>trenger ikke smartsamfunn der alt styres sentralt</comment>
								<name></name>
								<in>10020</in>
								<out>-1</out>
							</marker>
							<marker>
								<comment>blir lettere nￃﾥr alt er koblet sammen</comment>
								<name>mer bevkemt for meg</name>
								<in>12428</in>
								<out>-1</out>
							</marker>
							<marker>
								<comment>gjￃﾸr at du kan overvￃﾥkes og det er for ￃﾥ spare penger</comment>
								<name>folkebedrag</name>
								<in>6238</in>
								<out>-1</out>
							</marker>
							<marker>
								<comment>kan se hva du gjￃﾸr hvilke apparater du bruker</comment>
								<name></name>
								<in>7411</in>
								<out>-1</out>
							</marker>
							<marker>
								<comment>ymndighetene vil stoppe deg pￃﾥ ferden hvis de vil det</comment>
								<name>kan stoppe deg</name>
								<in>10932</in>
								<out>-1</out>
							</marker>
							<marker>
								<comment>hva tenker du om smart framtid?</comment>
								<name></name>
								<in>5749</in>
								<out>-1</out>
							</marker>
							<marker>
								<comment>frither og valgmuligheter</comment>
								<name>taper </name>
								<in>14685</in>
								<out>-1</out>
							</marker>
							<marker>
								<comment>hvis informasjon lagres vil den brukes!</comment>
								<name>BRA</name>
								<in>8605</in>
								<out>-1</out>
							</marker>
							<marker>
								<comment>sￃﾸken etter trygghet kan ikke bli total, men vi taper total frihet</comment>
								<name>sￃﾸken</name>
								<in>15642</in>
								<out>-1</out>
							</marker>
							<marker>
								<comment>hvis noe ikke likes i et samfunn fremover</comment>
								<name>holdning</name>
								<in>3544</in>
								<out>-1</out>
							</marker>
							<marker>
								<comment>kan meninger, sksuelle legniner og organisasjonstilkntning mistenkeliggjￃﾸres</comment>
								<name>selv demokrati</name>
								<in>18716</in>
								<out>-1</out>
							</marker>
							<marker>
								<comment>hvordan skal du klare deg i framtiden nￃﾥr alt snakker med alt?</comment>
								<name>klare du?</name>
								<in>9067</in>
								<out>-1</out>
							</marker>
							<marker>
								<comment>vi mister ferdigheter og bilene er avhengig av gps og sensorer i veibanen</comment>
								<name>bilder slutter ￃﾥ funke</name>
								<in>14093</in>
								<out>-1</out>
							</marker>
							<marker>
								<comment>vi har jo snille politikere, vil de virkelig overvￃﾥke oss</comment>
								<name>snille politikere</name>
								<in>15901</in>
								<out>-1</out>
							</marker>
							<marker>
								<comment>bￃﾥde myndigheter og kriminuelle vil ha interesse av informasjon om oss</comment>
								<name>myndigheter</name>
								<in>17635</in>
								<out>-1</out>
							</marker>
							<marker>
								<comment>intensjonen kan vￃﾦre god, men hva vil det medfￃﾸre</comment>
								<name>politi</name>
								<in>1608</in>
								<out>-1</out>
							</marker>
						<link>
							<linkclipref>clipitem-774</linkclipref>
							<mediatype>video</mediatype>
							<trackindex>1</trackindex>
							<clipindex>234</clipindex>
						</link>
						<link>
							<linkclipref>clipitem-1229</linkclipref>
							<mediatype>audio</mediatype>
							<trackindex>1</trackindex>
							<clipindex>118</clipindex>
						</link>
						<link>
							<linkclipref>clipitem-1449</linkclipref>
							<mediatype>audio</mediatype>
							<trackindex>3</trackindex>
							<clipindex>97</clipindex>
						</link>
						<labels>
							<label2>Forest</label2>
						</labels>
					</clipitem>
					<clipitem id="clipitem-1450" frameBlend="FALSE">
						<masterclipid>masterclip-177</masterclipid>
						<name>AA023901.MXF</name>
						<enabled>TRUE</enabled>
						<duration>420</duration>
						<rate>
							<timebase>25</timebase>
							<ntsc>FALSE</ntsc>
						</rate>
						<start>29145</start>
						<end>29212</end>
						<in>248</in>
						<out>315</out>
						<file id="file-157"/>
						<sourcetrack>
							<mediatype>audio</mediatype>
							<trackindex>2</trackindex>
						</sourcetrack>
						<link>
							<linkclipref>clipitem-779</linkclipref>
							<mediatype>video</mediatype>
							<trackindex>1</trackindex>
							<clipindex>239</clipindex>
						</link>
						<link>
							<linkclipref>clipitem-1232</linkclipref>
							<mediatype>audio</mediatype>
							<trackindex>1</trackindex>
							<clipindex>121</clipindex>
						</link>
						<link>
							<linkclipref>clipitem-1450</linkclipref>
							<mediatype>audio</mediatype>
							<trackindex>3</trackindex>
							<clipindex>98</clipindex>
						</link>
						<logginginfo>
							<description></description>
							<scene></scene>
							<shottake>AA0239</shottake>
							<lognote></lognote>
						</logginginfo>
						<labels>
							<label2>Iris</label2>
						</labels>
					</clipitem>
					<clipitem id="clipitem-1451" frameBlend="FALSE">
						<masterclipid>masterclip-178</masterclipid>
						<name>AA022901.MXF</name>
						<enabled>TRUE</enabled>
						<duration>1056</duration>
						<rate>
							<timebase>25</timebase>
							<ntsc>FALSE</ntsc>
						</rate>
						<start>29230</start>
						<end>29292</end>
						<in>282</in>
						<out>344</out>
						<file id="file-158"/>
						<sourcetrack>
							<mediatype>audio</mediatype>
							<trackindex>1</trackindex>
						</sourcetrack>
						<link>
							<linkclipref>clipitem-780</linkclipref>
							<mediatype>video</mediatype>
							<trackindex>1</trackindex>
							<clipindex>240</clipindex>
						</link>
						<link>
							<linkclipref>clipitem-1451</linkclipref>
							<mediatype>audio</mediatype>
							<trackindex>3</trackindex>
							<clipindex>99</clipindex>
						</link>
						<link>
							<linkclipref>clipitem-1490</linkclipref>
							<mediatype>audio</mediatype>
							<trackindex>4</trackindex>
							<clipindex>1</clipindex>
						</link>
						<logginginfo>
							<description></description>
							<scene></scene>
							<shottake>AA0229</shottake>
							<lognote></lognote>
						</logginginfo>
						<labels>
							<label2>Iris</label2>
						</labels>
					</clipitem>
					<clipitem id="clipitem-1452" frameBlend="FALSE">
						<masterclipid>masterclip-179</masterclipid>
						<name>MVI_0171.MOV</name>
						<enabled>TRUE</enabled>
						<duration>408</duration>
						<rate>
							<timebase>25</timebase>
							<ntsc>FALSE</ntsc>
						</rate>
						<start>29292</start>
						<end>29373</end>
						<in>24</in>
						<out>105</out>
						<file id="file-159"/>
						<sourcetrack>
							<mediatype>audio</mediatype>
							<trackindex>1</trackindex>
						</sourcetrack>
						<link>
							<linkclipref>clipitem-781</linkclipref>
							<mediatype>video</mediatype>
							<trackindex>1</trackindex>
							<clipindex>241</clipindex>
						</link>
						<link>
							<linkclipref>clipitem-1452</linkclipref>
							<mediatype>audio</mediatype>
							<trackindex>3</trackindex>
							<clipindex>100</clipindex>
						</link>
						<link>
							<linkclipref>clipitem-1491</linkclipref>
							<mediatype>audio</mediatype>
							<trackindex>4</trackindex>
							<clipindex>2</clipindex>
						</link>
						<logginginfo>
							<description></description>
							<scene></scene>
							<shottake></shottake>
							<lognote></lognote>
						</logginginfo>
						<labels>
							<label2>Iris</label2>
						</labels>
					</clipitem>
					<clipitem id="clipitem-1453" frameBlend="FALSE">
						<masterclipid>masterclip-181</masterclipid>
						<name>AA024501.MXF</name>
						<enabled>TRUE</enabled>
						<duration>816</duration>
						<rate>
							<timebase>25</timebase>
							<ntsc>FALSE</ntsc>
						</rate>
						<start>29564</start>
						<end>29630</end>
						<in>535</in>
						<out>601</out>
						<file id="file-161"/>
						<sourcetrack>
							<mediatype>audio</mediatype>
							<trackindex>2</trackindex>
						</sourcetrack>
						<link>
							<linkclipref>clipitem-783</linkclipref>
							<mediatype>video</mediatype>
							<trackindex>1</trackindex>
							<clipindex>243</clipindex>
						</link>
						<link>
							<linkclipref>clipitem-1453</linkclipref>
							<mediatype>audio</mediatype>
							<trackindex>3</trackindex>
							<clipindex>101</clipindex>
						</link>
						<logginginfo>
							<description></description>
							<scene></scene>
							<shottake>AA0245</shottake>
							<lognote></lognote>
						</logginginfo>
						<labels>
							<label2>Iris</label2>
						</labels>
					</clipitem>
					<clipitem id="clipitem-1454" frameBlend="FALSE">
						<masterclipid>masterclip-182</masterclipid>
						<name>AA024201.MXFCowi varemesse multi</name>
						<enabled>TRUE</enabled>
						<duration>2889</duration>
						<rate>
							<timebase>25</timebase>
							<ntsc>FALSE</ntsc>
						</rate>
						<start>29630</start>
						<end>29788</end>
						<in>1014</in>
						<out>1172</out>
						<sequence id="sequence-124"/>
						<link>
							<linkclipref>clipitem-784</linkclipref>
							<mediatype>video</mediatype>
							<trackindex>1</trackindex>
							<clipindex>244</clipindex>
						</link>
						<link>
							<linkclipref>clipitem-1234</linkclipref>
							<mediatype>audio</mediatype>
							<trackindex>1</trackindex>
							<clipindex>123</clipindex>
						</link>
						<link>
							<linkclipref>clipitem-1454</linkclipref>
							<mediatype>audio</mediatype>
							<trackindex>3</trackindex>
							<clipindex>102</clipindex>
						</link>
						<labels>
							<label2>Forest</label2>
						</labels>
					</clipitem>
					<clipitem id="clipitem-1455" frameBlend="FALSE">
						<masterclipid>masterclip-186</masterclipid>
						<name>MVI_0176.MOV</name>
						<enabled>TRUE</enabled>
						<duration>559</duration>
						<rate>
							<timebase>25</timebase>
							<ntsc>FALSE</ntsc>
						</rate>
						<start>29788</start>
						<end>29872</end>
						<in>369</in>
						<out>453</out>
						<file id="file-165"/>
						<sourcetrack>
							<mediatype>audio</mediatype>
							<trackindex>2</trackindex>
						</sourcetrack>
						<link>
							<linkclipref>clipitem-794</linkclipref>
							<mediatype>video</mediatype>
							<trackindex>1</trackindex>
							<clipindex>245</clipindex>
						</link>
						<link>
							<linkclipref>clipitem-1244</linkclipref>
							<mediatype>audio</mediatype>
							<trackindex>1</trackindex>
							<clipindex>124</clipindex>
						</link>
						<link>
							<linkclipref>clipitem-1455</linkclipref>
							<mediatype>audio</mediatype>
							<trackindex>3</trackindex>
							<clipindex>103</clipindex>
						</link>
						<logginginfo>
							<description></description>
							<scene></scene>
							<shottake></shottake>
							<lognote></lognote>
						</logginginfo>
						<labels>
							<label2>Iris</label2>
						</labels>
					</clipitem>
					<clipitem id="clipitem-1456" frameBlend="FALSE">
						<masterclipid>masterclip-187</masterclipid>
						<name>AA022501.MXFCowi varemesse multi</name>
						<enabled>TRUE</enabled>
						<duration>1445</duration>
						<rate>
							<timebase>25</timebase>
							<ntsc>FALSE</ntsc>
						</rate>
						<start>29872</start>
						<end>29914</end>
						<in>535</in>
						<out>577</out>
						<sequence id="sequence-125"/>
						<link>
							<linkclipref>clipitem-795</linkclipref>
							<mediatype>video</mediatype>
							<trackindex>1</trackindex>
							<clipindex>246</clipindex>
						</link>
						<link>
							<linkclipref>clipitem-1245</linkclipref>
							<mediatype>audio</mediatype>
							<trackindex>1</trackindex>
							<clipindex>125</clipindex>
						</link>
						<link>
							<linkclipref>clipitem-1456</linkclipref>
							<mediatype>audio</mediatype>
							<trackindex>3</trackindex>
							<clipindex>104</clipindex>
						</link>
						<labels>
							<label2>Forest</label2>
						</labels>
					</clipitem>
					<clipitem id="clipitem-1457" frameBlend="FALSE">
						<masterclipid>masterclip-182</masterclipid>
						<name>AA024201.MXFCowi varemesse multi</name>
						<enabled>TRUE</enabled>
						<duration>2889</duration>
						<rate>
							<timebase>25</timebase>
							<ntsc>FALSE</ntsc>
						</rate>
						<start>29995</start>
						<end>30043</end>
						<in>1289</in>
						<out>1337</out>
						<sequence id="sequence-124"/>
						<link>
							<linkclipref>clipitem-806</linkclipref>
							<mediatype>video</mediatype>
							<trackindex>1</trackindex>
							<clipindex>248</clipindex>
						</link>
						<link>
							<linkclipref>clipitem-1256</linkclipref>
							<mediatype>audio</mediatype>
							<trackindex>1</trackindex>
							<clipindex>127</clipindex>
						</link>
						<link>
							<linkclipref>clipitem-1457</linkclipref>
							<mediatype>audio</mediatype>
							<trackindex>3</trackindex>
							<clipindex>105</clipindex>
						</link>
						<labels>
							<label2>Forest</label2>
						</labels>
					</clipitem>
					<clipitem id="clipitem-1458" frameBlend="FALSE">
						<masterclipid>masterclip-182</masterclipid>
						<name>AA024201.MXFCowi varemesse multi</name>
						<enabled>TRUE</enabled>
						<duration>2889</duration>
						<rate>
							<timebase>25</timebase>
							<ntsc>FALSE</ntsc>
						</rate>
						<start>30043</start>
						<end>30176</end>
						<in>1337</in>
						<out>1470</out>
						<sequence id="sequence-124"/>
						<link>
							<linkclipref>clipitem-807</linkclipref>
							<mediatype>video</mediatype>
							<trackindex>1</trackindex>
							<clipindex>249</clipindex>
						</link>
						<link>
							<linkclipref>clipitem-1257</linkclipref>
							<mediatype>audio</mediatype>
							<trackindex>1</trackindex>
							<clipindex>128</clipindex>
						</link>
						<link>
							<linkclipref>clipitem-1458</linkclipref>
							<mediatype>audio</mediatype>
							<trackindex>3</trackindex>
							<clipindex>106</clipindex>
						</link>
						<labels>
							<label2>Forest</label2>
						</labels>
					</clipitem>
					<clipitem id="clipitem-1459" frameBlend="FALSE">
						<masterclipid>masterclip-192</masterclipid>
						<name>AA025301.MXFCowi varemesse multi</name>
						<enabled>TRUE</enabled>
						<duration>1755</duration>
						<rate>
							<timebase>25</timebase>
							<ntsc>FALSE</ntsc>
						</rate>
						<start>30176</start>
						<end>30232</end>
						<in>1474</in>
						<out>1530</out>
						<sequence id="sequence-126"/>
						<link>
							<linkclipref>clipitem-808</linkclipref>
							<mediatype>video</mediatype>
							<trackindex>1</trackindex>
							<clipindex>250</clipindex>
						</link>
						<link>
							<linkclipref>clipitem-1258</linkclipref>
							<mediatype>audio</mediatype>
							<trackindex>1</trackindex>
							<clipindex>129</clipindex>
						</link>
						<link>
							<linkclipref>clipitem-1459</linkclipref>
							<mediatype>audio</mediatype>
							<trackindex>3</trackindex>
							<clipindex>107</clipindex>
						</link>
						<link>
							<linkclipref>clipitem-1563</linkclipref>
							<mediatype>audio</mediatype>
							<trackindex>5</trackindex>
							<clipindex>63</clipindex>
						</link>
						<link>
							<linkclipref>clipitem-1634</linkclipref>
							<mediatype>audio</mediatype>
							<trackindex>7</trackindex>
							<clipindex>56</clipindex>
						</link>
						<labels>
							<label2>Forest</label2>
						</labels>
					</clipitem>
					<clipitem id="clipitem-1460" frameBlend="FALSE">
						<masterclipid>masterclip-198</masterclipid>
						<name>MVI_0133.MOV</name>
						<enabled>TRUE</enabled>
						<duration>12269</duration>
						<rate>
							<timebase>25</timebase>
							<ntsc>FALSE</ntsc>
						</rate>
						<start>30887</start>
						<end>30944</end>
						<in>5089</in>
						<out>5146</out>
						<file id="file-175"/>
						<sourcetrack>
							<mediatype>audio</mediatype>
							<trackindex>2</trackindex>
						</sourcetrack>
							<filter>
								<effect>
									<name>Audio Levels</name>
									<effectid>audiolevels</effectid>
									<effectcategory>audiolevels</effectcategory>
									<effecttype>audiolevels</effecttype>
									<mediatype>audio</mediatype>
									<parameter authoringApp="PremierePro">
										<parameterid>level</parameterid>
										<name>Level</name>
										<valuemin>0</valuemin>
										<valuemax>3.98109</valuemax>
										<value>1.77828</value>
									</parameter>
								</effect>
							</filter>
						<link>
							<linkclipref>clipitem-820</linkclipref>
							<mediatype>video</mediatype>
							<trackindex>1</trackindex>
							<clipindex>256</clipindex>
						</link>
						<link>
							<linkclipref>clipitem-1269</linkclipref>
							<mediatype>audio</mediatype>
							<trackindex>1</trackindex>
							<clipindex>134</clipindex>
						</link>
						<link>
							<linkclipref>clipitem-1460</linkclipref>
							<mediatype>audio</mediatype>
							<trackindex>3</trackindex>
							<clipindex>108</clipindex>
						</link>
						<logginginfo>
							<description></description>
							<scene></scene>
							<shottake></shottake>
							<lognote></lognote>
						</logginginfo>
						<labels>
							<label2>Iris</label2>
						</labels>
					</clipitem>
					<clipitem id="clipitem-1461" frameBlend="FALSE">
						<masterclipid>masterclip-200</masterclipid>
						<name>MVI_0136.MOV</name>
						<enabled>TRUE</enabled>
						<duration>641</duration>
						<rate>
							<timebase>25</timebase>
							<ntsc>FALSE</ntsc>
						</rate>
						<start>31148</start>
						<end>31182</end>
						<in>432</in>
						<out>466</out>
						<file id="file-177"/>
						<sourcetrack>
							<mediatype>audio</mediatype>
							<trackindex>2</trackindex>
						</sourcetrack>
						<link>
							<linkclipref>clipitem-1270</linkclipref>
							<mediatype>audio</mediatype>
							<trackindex>1</trackindex>
							<clipindex>135</clipindex>
						</link>
						<link>
							<linkclipref>clipitem-1461</linkclipref>
							<mediatype>audio</mediatype>
							<trackindex>3</trackindex>
							<clipindex>109</clipindex>
						</link>
						<logginginfo>
							<description></description>
							<scene></scene>
							<shottake></shottake>
							<lognote></lognote>
						</logginginfo>
						<labels>
							<label2>Iris</label2>
						</labels>
					</clipitem>
					<clipitem id="clipitem-1462" frameBlend="FALSE">
						<masterclipid>masterclip-202</masterclipid>
						<name>AA004901.MXF</name>
						<enabled>TRUE</enabled>
						<duration>1068</duration>
						<rate>
							<timebase>25</timebase>
							<ntsc>FALSE</ntsc>
						</rate>
						<start>31195</start>
						<end>31313</end>
						<in>566</in>
						<out>684</out>
						<file id="file-179"/>
						<sourcetrack>
							<mediatype>audio</mediatype>
							<trackindex>2</trackindex>
						</sourcetrack>
						<link>
							<linkclipref>clipitem-1271</linkclipref>
							<mediatype>audio</mediatype>
							<trackindex>1</trackindex>
							<clipindex>136</clipindex>
						</link>
						<link>
							<linkclipref>clipitem-1462</linkclipref>
							<mediatype>audio</mediatype>
							<trackindex>3</trackindex>
							<clipindex>110</clipindex>
						</link>
						<logginginfo>
							<description></description>
							<scene></scene>
							<shottake>AA0049</shottake>
							<lognote></lognote>
						</logginginfo>
						<labels>
							<label2>Iris</label2>
						</labels>
					</clipitem>
					<clipitem id="clipitem-1463" frameBlend="FALSE">
						<masterclipid>masterclip-204</masterclipid>
						<name>AA005201.MXF</name>
						<enabled>TRUE</enabled>
						<duration>8832</duration>
						<rate>
							<timebase>25</timebase>
							<ntsc>FALSE</ntsc>
						</rate>
						<start>31570</start>
						<end>31841</end>
						<in>6463</in>
						<out>6734</out>
						<file id="file-181"/>
						<sourcetrack>
							<mediatype>audio</mediatype>
							<trackindex>2</trackindex>
						</sourcetrack>
							<filter>
								<effect>
									<name>Audio Levels</name>
									<effectid>audiolevels</effectid>
									<effectcategory>audiolevels</effectcategory>
									<effecttype>audiolevels</effecttype>
									<mediatype>audio</mediatype>
									<parameter authoringApp="PremierePro">
										<parameterid>level</parameterid>
										<name>Level</name>
										<valuemin>0</valuemin>
										<valuemax>3.98109</valuemax>
										<value>1.12202</value>
									</parameter>
								</effect>
							</filter>
						<link>
							<linkclipref>clipitem-830</linkclipref>
							<mediatype>video</mediatype>
							<trackindex>1</trackindex>
							<clipindex>266</clipindex>
						</link>
						<link>
							<linkclipref>clipitem-1272</linkclipref>
							<mediatype>audio</mediatype>
							<trackindex>1</trackindex>
							<clipindex>137</clipindex>
						</link>
						<link>
							<linkclipref>clipitem-1463</linkclipref>
							<mediatype>audio</mediatype>
							<trackindex>3</trackindex>
							<clipindex>111</clipindex>
						</link>
						<logginginfo>
							<description></description>
							<scene></scene>
							<shottake>AA0052</shottake>
							<lognote></lognote>
						</logginginfo>
						<labels>
							<label2>Iris</label2>
						</labels>
					</clipitem>
					<clipitem id="clipitem-1464" frameBlend="FALSE">
						<masterclipid>masterclip-208</masterclipid>
						<name>AA005301.MXF</name>
						<enabled>TRUE</enabled>
						<duration>3672</duration>
						<rate>
							<timebase>25</timebase>
							<ntsc>FALSE</ntsc>
						</rate>
						<start>31974</start>
						<end>32209</end>
						<in>1760</in>
						<out>1995</out>
						<file id="file-185"/>
						<sourcetrack>
							<mediatype>audio</mediatype>
							<trackindex>2</trackindex>
						</sourcetrack>
						<link>
							<linkclipref>clipitem-1273</linkclipref>
							<mediatype>audio</mediatype>
							<trackindex>1</trackindex>
							<clipindex>138</clipindex>
						</link>
						<link>
							<linkclipref>clipitem-1464</linkclipref>
							<mediatype>audio</mediatype>
							<trackindex>3</trackindex>
							<clipindex>112</clipindex>
						</link>
						<logginginfo>
							<description></description>
							<scene></scene>
							<shottake>AA0053</shottake>
							<lognote></lognote>
						</logginginfo>
						<labels>
							<label2>Iris</label2>
						</labels>
					</clipitem>
					<clipitem id="clipitem-1465" frameBlend="FALSE">
						<masterclipid>masterclip-208</masterclipid>
						<name>AA005301.MXF</name>
						<enabled>TRUE</enabled>
						<duration>3672</duration>
						<rate>
							<timebase>25</timebase>
							<ntsc>FALSE</ntsc>
						</rate>
						<start>32209</start>
						<end>32228</end>
						<in>2021</in>
						<out>2040</out>
						<file id="file-185"/>
						<sourcetrack>
							<mediatype>audio</mediatype>
							<trackindex>2</trackindex>
						</sourcetrack>
						<link>
							<linkclipref>clipitem-1274</linkclipref>
							<mediatype>audio</mediatype>
							<trackindex>1</trackindex>
							<clipindex>139</clipindex>
						</link>
						<link>
							<linkclipref>clipitem-1465</linkclipref>
							<mediatype>audio</mediatype>
							<trackindex>3</trackindex>
							<clipindex>113</clipindex>
						</link>
						<logginginfo>
							<description></description>
							<scene></scene>
							<shottake>AA0053</shottake>
							<lognote></lognote>
						</logginginfo>
						<labels>
							<label2>Iris</label2>
						</labels>
					</clipitem>
					<clipitem id="clipitem-1466" frameBlend="FALSE">
						<masterclipid>masterclip-235</masterclipid>
						<name>AA037201.MXF</name>
						<enabled>TRUE</enabled>
						<duration>9048</duration>
						<rate>
							<timebase>25</timebase>
							<ntsc>FALSE</ntsc>
						</rate>
						<start>36627</start>
						<end>36989</end>
						<in>61</in>
						<out>423</out>
						<file id="file-210"/>
						<sourcetrack>
							<mediatype>audio</mediatype>
							<trackindex>2</trackindex>
						</sourcetrack>
							<filter>
								<effect>
									<name>Audio Levels</name>
									<effectid>audiolevels</effectid>
									<effectcategory>audiolevels</effectcategory>
									<effecttype>audiolevels</effecttype>
									<mediatype>audio</mediatype>
									<parameter authoringApp="PremierePro">
										<parameterid>level</parameterid>
										<name>Level</name>
										<valuemin>0</valuemin>
										<valuemax>3.98109</valuemax>
										<value>1.25594</value>
									</parameter>
								</effect>
							</filter>
						<link>
							<linkclipref>clipitem-1305</linkclipref>
							<mediatype>audio</mediatype>
							<trackindex>1</trackindex>
							<clipindex>160</clipindex>
						</link>
						<link>
							<linkclipref>clipitem-1466</linkclipref>
							<mediatype>audio</mediatype>
							<trackindex>3</trackindex>
							<clipindex>114</clipindex>
						</link>
						<logginginfo>
							<description></description>
							<scene></scene>
							<shottake>AA0372</shottake>
							<lognote></lognote>
						</logginginfo>
						<labels>
							<label2>Iris</label2>
						</labels>
					</clipitem>
					<clipitem id="clipitem-1467" frameBlend="FALSE">
						<masterclipid>masterclip-235</masterclipid>
						<name>AA037201.MXF</name>
						<enabled>TRUE</enabled>
						<duration>9048</duration>
						<rate>
							<timebase>25</timebase>
							<ntsc>FALSE</ntsc>
						</rate>
						<start>36989</start>
						<end>37549</end>
						<in>1641</in>
						<out>2201</out>
						<file id="file-210"/>
						<sourcetrack>
							<mediatype>audio</mediatype>
							<trackindex>2</trackindex>
						</sourcetrack>
						<link>
							<linkclipref>clipitem-1306</linkclipref>
							<mediatype>audio</mediatype>
							<trackindex>1</trackindex>
							<clipindex>161</clipindex>
						</link>
						<link>
							<linkclipref>clipitem-1467</linkclipref>
							<mediatype>audio</mediatype>
							<trackindex>3</trackindex>
							<clipindex>115</clipindex>
						</link>
						<logginginfo>
							<description></description>
							<scene></scene>
							<shottake>AA0372</shottake>
							<lognote></lognote>
						</logginginfo>
						<labels>
							<label2>Iris</label2>
						</labels>
					</clipitem>
					<clipitem id="clipitem-1468" frameBlend="FALSE">
						<masterclipid>masterclip-236</masterclipid>
						<name>MVI_0379.MOVIBMulti</name>
						<enabled>TRUE</enabled>
						<duration>11962</duration>
						<rate>
							<timebase>25</timebase>
							<ntsc>FALSE</ntsc>
						</rate>
						<start>37549</start>
						<end>37584</end>
						<in>876</in>
						<out>911</out>
						<sequence id="sequence-128"/>
						<link>
							<linkclipref>clipitem-1307</linkclipref>
							<mediatype>audio</mediatype>
							<trackindex>1</trackindex>
							<clipindex>162</clipindex>
						</link>
						<link>
							<linkclipref>clipitem-1468</linkclipref>
							<mediatype>audio</mediatype>
							<trackindex>3</trackindex>
							<clipindex>116</clipindex>
						</link>
						<labels>
							<label2>Forest</label2>
						</labels>
					</clipitem>
					<clipitem id="clipitem-1469" frameBlend="FALSE">
						<masterclipid>masterclip-236</masterclipid>
						<name>MVI_0379.MOVIBMulti</name>
						<enabled>TRUE</enabled>
						<duration>11962</duration>
						<rate>
							<timebase>25</timebase>
							<ntsc>FALSE</ntsc>
						</rate>
						<start>37584</start>
						<end>37964</end>
						<in>5420</in>
						<out>5800</out>
						<sequence id="sequence-128"/>
							<filter>
								<effect>
									<name>Audio Levels</name>
									<effectid>audiolevels</effectid>
									<effectcategory>audiolevels</effectcategory>
									<effecttype>audiolevels</effecttype>
									<mediatype>audio</mediatype>
									<parameter authoringApp="PremierePro">
										<parameterid>level</parameterid>
										<name>Level</name>
										<valuemin>0</valuemin>
										<valuemax>3.98109</valuemax>
										<value>0.889139</value>
									</parameter>
								</effect>
							</filter>
						<link>
							<linkclipref>clipitem-1317</linkclipref>
							<mediatype>audio</mediatype>
							<trackindex>1</trackindex>
							<clipindex>163</clipindex>
						</link>
						<link>
							<linkclipref>clipitem-1469</linkclipref>
							<mediatype>audio</mediatype>
							<trackindex>3</trackindex>
							<clipindex>117</clipindex>
						</link>
						<labels>
							<label2>Forest</label2>
						</labels>
					</clipitem>
					<clipitem id="clipitem-1470" frameBlend="FALSE">
						<masterclipid>masterclip-236</masterclipid>
						<name>MVI_0379.MOVIBMulti</name>
						<enabled>TRUE</enabled>
						<duration>11962</duration>
						<rate>
							<timebase>25</timebase>
							<ntsc>FALSE</ntsc>
						</rate>
						<start>37964</start>
						<end>-1</end>
						<in>5915</in>
						<out>5946</out>
						<sequence id="sequence-128"/>
						<link>
							<linkclipref>clipitem-1318</linkclipref>
							<mediatype>audio</mediatype>
							<trackindex>1</trackindex>
							<clipindex>164</clipindex>
						</link>
						<link>
							<linkclipref>clipitem-1470</linkclipref>
							<mediatype>audio</mediatype>
							<trackindex>3</trackindex>
							<clipindex>118</clipindex>
						</link>
						<labels>
							<label2>Forest</label2>
						</labels>
					</clipitem>
					<transitionitem>
						<start>37993</start>
						<end>37995</end>
						<alignment>center</alignment>
						<cutPoint>0</cutPoint>
						<rate>
							<timebase>25</timebase>
							<ntsc>FALSE</ntsc>
						</rate>
						<effect>
							<name>Cross Fade (+3dB)</name>
							<effectid>KGAudioTransCrossFade3dB</effectid>
							<effecttype>transition</effecttype>
							<mediatype>audio</mediatype>
							<wipecode>0</wipecode>
							<wipeaccuracy>100</wipeaccuracy>
							<startratio>0</startratio>
							<endratio>1</endratio>
							<reverse>FALSE</reverse>
						</effect>
					</transitionitem>
					<clipitem id="clipitem-1471" frameBlend="FALSE">
						<masterclipid>masterclip-236</masterclipid>
						<name>MVI_0379.MOVIBMulti</name>
						<enabled>TRUE</enabled>
						<duration>11962</duration>
						<rate>
							<timebase>25</timebase>
							<ntsc>FALSE</ntsc>
						</rate>
						<start>-1</start>
						<end>38187</end>
						<in>5988</in>
						<out>6182</out>
						<sequence id="sequence-128"/>
						<link>
							<linkclipref>clipitem-1319</linkclipref>
							<mediatype>audio</mediatype>
							<trackindex>1</trackindex>
							<clipindex>166</clipindex>
						</link>
						<link>
							<linkclipref>clipitem-1471</linkclipref>
							<mediatype>audio</mediatype>
							<trackindex>3</trackindex>
							<clipindex>120</clipindex>
						</link>
						<labels>
							<label2>Forest</label2>
						</labels>
					</clipitem>
					<clipitem id="clipitem-1472" frameBlend="FALSE">
						<masterclipid>masterclip-236</masterclipid>
						<name>MVI_0379.MOVIBMulti</name>
						<enabled>TRUE</enabled>
						<duration>11962</duration>
						<rate>
							<timebase>25</timebase>
							<ntsc>FALSE</ntsc>
						</rate>
						<start>38187</start>
						<end>38203</end>
						<in>6186</in>
						<out>6202</out>
						<sequence id="sequence-128"/>
						<link>
							<linkclipref>clipitem-1320</linkclipref>
							<mediatype>audio</mediatype>
							<trackindex>1</trackindex>
							<clipindex>167</clipindex>
						</link>
						<link>
							<linkclipref>clipitem-1472</linkclipref>
							<mediatype>audio</mediatype>
							<trackindex>3</trackindex>
							<clipindex>121</clipindex>
						</link>
						<labels>
							<label2>Forest</label2>
						</labels>
					</clipitem>
					<clipitem id="clipitem-1473" frameBlend="FALSE">
						<masterclipid>masterclip-277</masterclipid>
						<name>AA035601.MXF</name>
						<enabled>TRUE</enabled>
						<duration>3924</duration>
						<rate>
							<timebase>25</timebase>
							<ntsc>FALSE</ntsc>
						</rate>
						<start>38599</start>
						<end>38858</end>
						<in>3179</in>
						<out>3438</out>
						<file id="file-250"/>
						<sourcetrack>
							<mediatype>audio</mediatype>
							<trackindex>2</trackindex>
						</sourcetrack>
							<filter>
								<effect>
									<name>Audio Levels</name>
									<effectid>audiolevels</effectid>
									<effectcategory>audiolevels</effectcategory>
									<effecttype>audiolevels</effecttype>
									<mediatype>audio</mediatype>
									<parameter authoringApp="PremierePro">
										<parameterid>level</parameterid>
										<name>Level</name>
										<valuemin>0</valuemin>
										<valuemax>3.98109</valuemax>
										<value>0.315478</value>
									</parameter>
								</effect>
							</filter>
						<link>
							<linkclipref>clipitem-1321</linkclipref>
							<mediatype>audio</mediatype>
							<trackindex>1</trackindex>
							<clipindex>168</clipindex>
						</link>
						<link>
							<linkclipref>clipitem-1473</linkclipref>
							<mediatype>audio</mediatype>
							<trackindex>3</trackindex>
							<clipindex>122</clipindex>
						</link>
						<logginginfo>
							<description></description>
							<scene></scene>
							<shottake>AA0356</shottake>
							<lognote></lognote>
						</logginginfo>
						<labels>
							<label2>Iris</label2>
						</labels>
					</clipitem>
					<clipitem id="clipitem-1474" frameBlend="FALSE">
						<masterclipid>masterclip-246</masterclipid>
						<name>MVI_0361.MOVIBMulti</name>
						<enabled>TRUE</enabled>
						<duration>37748</duration>
						<rate>
							<timebase>25</timebase>
							<ntsc>FALSE</ntsc>
						</rate>
						<start>39200</start>
						<end>39418</end>
						<in>3917</in>
						<out>4135</out>
						<sequence id="sequence-129"/>
						<link>
							<linkclipref>clipitem-932</linkclipref>
							<mediatype>video</mediatype>
							<trackindex>1</trackindex>
							<clipindex>348</clipindex>
						</link>
						<link>
							<linkclipref>clipitem-1322</linkclipref>
							<mediatype>audio</mediatype>
							<trackindex>1</trackindex>
							<clipindex>169</clipindex>
						</link>
						<link>
							<linkclipref>clipitem-1474</linkclipref>
							<mediatype>audio</mediatype>
							<trackindex>3</trackindex>
							<clipindex>123</clipindex>
						</link>
						<labels>
							<label2>Forest</label2>
						</labels>
					</clipitem>
					<clipitem id="clipitem-1475" frameBlend="FALSE">
						<masterclipid>masterclip-246</masterclipid>
						<name>MVI_0361.MOVIBMulti</name>
						<enabled>TRUE</enabled>
						<duration>37748</duration>
						<rate>
							<timebase>25</timebase>
							<ntsc>FALSE</ntsc>
						</rate>
						<start>39418</start>
						<end>-1</end>
						<in>4183</in>
						<out>4229</out>
						<sequence id="sequence-129"/>
						<link>
							<linkclipref>clipitem-939</linkclipref>
							<mediatype>video</mediatype>
							<trackindex>1</trackindex>
							<clipindex>350</clipindex>
						</link>
						<link>
							<linkclipref>clipitem-1328</linkclipref>
							<mediatype>audio</mediatype>
							<trackindex>1</trackindex>
							<clipindex>170</clipindex>
						</link>
						<link>
							<linkclipref>clipitem-1475</linkclipref>
							<mediatype>audio</mediatype>
							<trackindex>3</trackindex>
							<clipindex>124</clipindex>
						</link>
						<labels>
							<label2>Forest</label2>
						</labels>
					</clipitem>
					<transitionitem>
						<start>39462</start>
						<end>39464</end>
						<alignment>center</alignment>
						<cutPoint>0</cutPoint>
						<rate>
							<timebase>25</timebase>
							<ntsc>FALSE</ntsc>
						</rate>
						<effect>
							<name>Cross Fade (+3dB)</name>
							<effectid>KGAudioTransCrossFade3dB</effectid>
							<effecttype>transition</effecttype>
							<mediatype>audio</mediatype>
							<wipecode>0</wipecode>
							<wipeaccuracy>100</wipeaccuracy>
							<startratio>0</startratio>
							<endratio>1</endratio>
							<reverse>FALSE</reverse>
						</effect>
					</transitionitem>
					<clipitem id="clipitem-1476" frameBlend="FALSE">
						<masterclipid>masterclip-246</masterclipid>
						<name>MVI_0361.MOVIBMulti</name>
						<enabled>TRUE</enabled>
						<duration>37748</duration>
						<rate>
							<timebase>25</timebase>
							<ntsc>FALSE</ntsc>
						</rate>
						<start>-1</start>
						<end>39548</end>
						<in>4390</in>
						<out>4476</out>
						<sequence id="sequence-129"/>
							<filter>
								<effect>
									<name>Audio Levels</name>
									<effectid>audiolevels</effectid>
									<effectcategory>audiolevels</effectcategory>
									<effecttype>audiolevels</effecttype>
									<mediatype>audio</mediatype>
									<parameter authoringApp="PremierePro">
										<parameterid>level</parameterid>
										<name>Level</name>
										<valuemin>0</valuemin>
										<valuemax>3.98109</valuemax>
										<value>1.41254</value>
									</parameter>
								</effect>
							</filter>
						<link>
							<linkclipref>clipitem-1329</linkclipref>
							<mediatype>audio</mediatype>
							<trackindex>1</trackindex>
							<clipindex>172</clipindex>
						</link>
						<link>
							<linkclipref>clipitem-1476</linkclipref>
							<mediatype>audio</mediatype>
							<trackindex>3</trackindex>
							<clipindex>126</clipindex>
						</link>
						<labels>
							<label2>Forest</label2>
						</labels>
					</clipitem>
					<clipitem id="clipitem-1477" frameBlend="FALSE">
						<masterclipid>masterclip-246</masterclipid>
						<name>MVI_0361.MOVIBMulti</name>
						<enabled>TRUE</enabled>
						<duration>37748</duration>
						<rate>
							<timebase>25</timebase>
							<ntsc>FALSE</ntsc>
						</rate>
						<start>39548</start>
						<end>39570</end>
						<in>4630</in>
						<out>4652</out>
						<sequence id="sequence-129"/>
							<filter>
								<effect>
									<name>Audio Levels</name>
									<effectid>audiolevels</effectid>
									<effectcategory>audiolevels</effectcategory>
									<effecttype>audiolevels</effecttype>
									<mediatype>audio</mediatype>
									<parameter authoringApp="PremierePro">
										<parameterid>level</parameterid>
										<name>Level</name>
										<valuemin>0</valuemin>
										<valuemax>3.98109</valuemax>
										<value>1.41254</value>
									</parameter>
								</effect>
							</filter>
						<link>
							<linkclipref>clipitem-1330</linkclipref>
							<mediatype>audio</mediatype>
							<trackindex>1</trackindex>
							<clipindex>173</clipindex>
						</link>
						<link>
							<linkclipref>clipitem-1477</linkclipref>
							<mediatype>audio</mediatype>
							<trackindex>3</trackindex>
							<clipindex>127</clipindex>
						</link>
						<labels>
							<label2>Forest</label2>
						</labels>
					</clipitem>
					<clipitem id="clipitem-1478" frameBlend="FALSE">
						<masterclipid>masterclip-246</masterclipid>
						<name>MVI_0361.MOVIBMulti</name>
						<enabled>TRUE</enabled>
						<duration>37748</duration>
						<rate>
							<timebase>25</timebase>
							<ntsc>FALSE</ntsc>
						</rate>
						<start>39570</start>
						<end>39587</end>
						<in>5069</in>
						<out>5086</out>
						<sequence id="sequence-129"/>
							<filter>
								<effect>
									<name>Audio Levels</name>
									<effectid>audiolevels</effectid>
									<effectcategory>audiolevels</effectcategory>
									<effecttype>audiolevels</effecttype>
									<mediatype>audio</mediatype>
									<parameter authoringApp="PremierePro">
										<parameterid>level</parameterid>
										<name>Level</name>
										<valuemin>0</valuemin>
										<valuemax>3.98109</valuemax>
										<value>1.41254</value>
									</parameter>
								</effect>
							</filter>
						<link>
							<linkclipref>clipitem-1331</linkclipref>
							<mediatype>audio</mediatype>
							<trackindex>1</trackindex>
							<clipindex>174</clipindex>
						</link>
						<link>
							<linkclipref>clipitem-1478</linkclipref>
							<mediatype>audio</mediatype>
							<trackindex>3</trackindex>
							<clipindex>128</clipindex>
						</link>
						<labels>
							<label2>Forest</label2>
						</labels>
					</clipitem>
					<clipitem id="clipitem-1479" frameBlend="FALSE">
						<masterclipid>masterclip-246</masterclipid>
						<name>MVI_0361.MOVIBMulti</name>
						<enabled>TRUE</enabled>
						<duration>37748</duration>
						<rate>
							<timebase>25</timebase>
							<ntsc>FALSE</ntsc>
						</rate>
						<start>39587</start>
						<end>-1</end>
						<in>4652</in>
						<out>4872</out>
						<sequence id="sequence-129"/>
							<filter>
								<effect>
									<name>Audio Levels</name>
									<effectid>audiolevels</effectid>
									<effectcategory>audiolevels</effectcategory>
									<effecttype>audiolevels</effecttype>
									<mediatype>audio</mediatype>
									<parameter authoringApp="PremierePro">
										<parameterid>level</parameterid>
										<name>Level</name>
										<valuemin>0</valuemin>
										<valuemax>3.98109</valuemax>
										<value>0.93554</value>
									</parameter>
								</effect>
							</filter>
						<link>
							<linkclipref>clipitem-1332</linkclipref>
							<mediatype>audio</mediatype>
							<trackindex>1</trackindex>
							<clipindex>175</clipindex>
						</link>
						<link>
							<linkclipref>clipitem-1479</linkclipref>
							<mediatype>audio</mediatype>
							<trackindex>3</trackindex>
							<clipindex>129</clipindex>
						</link>
						<labels>
							<label2>Forest</label2>
						</labels>
					</clipitem>
					<transitionitem>
						<start>39805</start>
						<end>39807</end>
						<alignment>center</alignment>
						<cutPoint>0</cutPoint>
						<rate>
							<timebase>25</timebase>
							<ntsc>FALSE</ntsc>
						</rate>
						<effect>
							<name>Cross Fade (+3dB)</name>
							<effectid>KGAudioTransCrossFade3dB</effectid>
							<effecttype>transition</effecttype>
							<mediatype>audio</mediatype>
							<wipecode>0</wipecode>
							<wipeaccuracy>100</wipeaccuracy>
							<startratio>0</startratio>
							<endratio>1</endratio>
							<reverse>FALSE</reverse>
						</effect>
					</transitionitem>
					<clipitem id="clipitem-1480" frameBlend="FALSE">
						<masterclipid>masterclip-246</masterclipid>
						<name>MVI_0361.MOVIBMulti</name>
						<enabled>TRUE</enabled>
						<duration>37748</duration>
						<rate>
							<timebase>25</timebase>
							<ntsc>FALSE</ntsc>
						</rate>
						<start>-1</start>
						<end>39825</end>
						<in>4896</in>
						<out>4916</out>
						<sequence id="sequence-129"/>
							<filter>
								<effect>
									<name>Audio Levels</name>
									<effectid>audiolevels</effectid>
									<effectcategory>audiolevels</effectcategory>
									<effecttype>audiolevels</effecttype>
									<mediatype>audio</mediatype>
									<parameter authoringApp="PremierePro">
										<parameterid>level</parameterid>
										<name>Level</name>
										<valuemin>0</valuemin>
										<valuemax>3.98109</valuemax>
										<value>0.93554</value>
									</parameter>
								</effect>
							</filter>
						<link>
							<linkclipref>clipitem-1333</linkclipref>
							<mediatype>audio</mediatype>
							<trackindex>1</trackindex>
							<clipindex>177</clipindex>
						</link>
						<link>
							<linkclipref>clipitem-1480</linkclipref>
							<mediatype>audio</mediatype>
							<trackindex>3</trackindex>
							<clipindex>131</clipindex>
						</link>
						<labels>
							<label2>Forest</label2>
						</labels>
					</clipitem>
					<clipitem id="clipitem-1481" frameBlend="FALSE">
						<masterclipid>masterclip-246</masterclipid>
						<name>MVI_0361.MOVIBMulti</name>
						<enabled>TRUE</enabled>
						<duration>37748</duration>
						<rate>
							<timebase>25</timebase>
							<ntsc>FALSE</ntsc>
						</rate>
						<start>40141</start>
						<end>40171</end>
						<in>6416</in>
						<out>6446</out>
						<sequence id="sequence-129"/>
						<link>
							<linkclipref>clipitem-1334</linkclipref>
							<mediatype>audio</mediatype>
							<trackindex>1</trackindex>
							<clipindex>178</clipindex>
						</link>
						<link>
							<linkclipref>clipitem-1481</linkclipref>
							<mediatype>audio</mediatype>
							<trackindex>3</trackindex>
							<clipindex>132</clipindex>
						</link>
						<labels>
							<label2>Forest</label2>
						</labels>
					</clipitem>
					<clipitem id="clipitem-1482" frameBlend="FALSE">
						<masterclipid>masterclip-246</masterclipid>
						<name>MVI_0361.MOVIBMulti</name>
						<enabled>TRUE</enabled>
						<duration>37748</duration>
						<rate>
							<timebase>25</timebase>
							<ntsc>FALSE</ntsc>
						</rate>
						<start>40171</start>
						<end>40327</end>
						<in>6072</in>
						<out>6228</out>
						<sequence id="sequence-129"/>
							<filter>
								<effect>
									<name>Audio Levels</name>
									<effectid>audiolevels</effectid>
									<effectcategory>audiolevels</effectcategory>
									<effecttype>audiolevels</effecttype>
									<mediatype>audio</mediatype>
									<parameter authoringApp="PremierePro">
										<parameterid>level</parameterid>
										<name>Level</name>
										<valuemin>0</valuemin>
										<valuemax>3.98109</valuemax>
										<value>0.889139</value>
									</parameter>
								</effect>
							</filter>
						<link>
							<linkclipref>clipitem-1335</linkclipref>
							<mediatype>audio</mediatype>
							<trackindex>1</trackindex>
							<clipindex>179</clipindex>
						</link>
						<link>
							<linkclipref>clipitem-1482</linkclipref>
							<mediatype>audio</mediatype>
							<trackindex>3</trackindex>
							<clipindex>133</clipindex>
						</link>
						<labels>
							<label2>Forest</label2>
						</labels>
					</clipitem>
					<clipitem id="clipitem-1483" frameBlend="FALSE">
						<masterclipid>masterclip-246</masterclipid>
						<name>MVI_0361.MOVIBMulti</name>
						<enabled>TRUE</enabled>
						<duration>37748</duration>
						<rate>
							<timebase>25</timebase>
							<ntsc>FALSE</ntsc>
						</rate>
						<start>40327</start>
						<end>40406</end>
						<in>6296</in>
						<out>6375</out>
						<sequence id="sequence-129"/>
							<filter>
								<effect>
									<name>Audio Levels</name>
									<effectid>audiolevels</effectid>
									<effectcategory>audiolevels</effectcategory>
									<effecttype>audiolevels</effecttype>
									<mediatype>audio</mediatype>
									<parameter authoringApp="PremierePro">
										<parameterid>level</parameterid>
										<name>Level</name>
										<valuemin>0</valuemin>
										<valuemax>3.98109</valuemax>
										<value>0.889139</value>
									</parameter>
								</effect>
							</filter>
						<link>
							<linkclipref>clipitem-1336</linkclipref>
							<mediatype>audio</mediatype>
							<trackindex>1</trackindex>
							<clipindex>180</clipindex>
						</link>
						<link>
							<linkclipref>clipitem-1483</linkclipref>
							<mediatype>audio</mediatype>
							<trackindex>3</trackindex>
							<clipindex>134</clipindex>
						</link>
						<labels>
							<label2>Forest</label2>
						</labels>
					</clipitem>
					<clipitem id="clipitem-1484" frameBlend="FALSE">
						<masterclipid>masterclip-232</masterclipid>
						<name>MVI_0382.MOVIBMulti</name>
						<enabled>TRUE</enabled>
						<duration>13702</duration>
						<rate>
							<timebase>25</timebase>
							<ntsc>FALSE</ntsc>
						</rate>
						<start>40966</start>
						<end>41180</end>
						<in>6888</in>
						<out>7102</out>
						<sequence id="sequence-130"/>
						<link>
							<linkclipref>clipitem-960</linkclipref>
							<mediatype>video</mediatype>
							<trackindex>1</trackindex>
							<clipindex>371</clipindex>
						</link>
						<link>
							<linkclipref>clipitem-1337</linkclipref>
							<mediatype>audio</mediatype>
							<trackindex>1</trackindex>
							<clipindex>181</clipindex>
						</link>
						<link>
							<linkclipref>clipitem-1484</linkclipref>
							<mediatype>audio</mediatype>
							<trackindex>3</trackindex>
							<clipindex>135</clipindex>
						</link>
						<labels>
							<label2>Forest</label2>
						</labels>
					</clipitem>
					<clipitem id="clipitem-1485" frameBlend="FALSE">
						<masterclipid>masterclip-232</masterclipid>
						<name>MVI_0382.MOVIBMulti</name>
						<enabled>TRUE</enabled>
						<duration>13702</duration>
						<rate>
							<timebase>25</timebase>
							<ntsc>FALSE</ntsc>
						</rate>
						<start>41180</start>
						<end>41304</end>
						<in>7609</in>
						<out>7733</out>
						<sequence id="sequence-130"/>
						<link>
							<linkclipref>clipitem-961</linkclipref>
							<mediatype>video</mediatype>
							<trackindex>1</trackindex>
							<clipindex>372</clipindex>
						</link>
						<link>
							<linkclipref>clipitem-1347</linkclipref>
							<mediatype>audio</mediatype>
							<trackindex>1</trackindex>
							<clipindex>182</clipindex>
						</link>
						<link>
							<linkclipref>clipitem-1485</linkclipref>
							<mediatype>audio</mediatype>
							<trackindex>3</trackindex>
							<clipindex>136</clipindex>
						</link>
						<labels>
							<label2>Forest</label2>
						</labels>
					</clipitem>
					<clipitem id="clipitem-1486" frameBlend="FALSE">
						<masterclipid>masterclip-232</masterclipid>
						<name>MVI_0382.MOVIBMulti</name>
						<enabled>TRUE</enabled>
						<duration>13702</duration>
						<rate>
							<timebase>25</timebase>
							<ntsc>FALSE</ntsc>
						</rate>
						<start>41304</start>
						<end>41354</end>
						<in>7753</in>
						<out>7803</out>
						<sequence id="sequence-130"/>
						<link>
							<linkclipref>clipitem-1348</linkclipref>
							<mediatype>audio</mediatype>
							<trackindex>1</trackindex>
							<clipindex>183</clipindex>
						</link>
						<link>
							<linkclipref>clipitem-1486</linkclipref>
							<mediatype>audio</mediatype>
							<trackindex>3</trackindex>
							<clipindex>137</clipindex>
						</link>
						<labels>
							<label2>Forest</label2>
						</labels>
					</clipitem>
					<clipitem id="clipitem-1487" frameBlend="FALSE">
						<masterclipid>masterclip-232</masterclipid>
						<name>MVI_0382.MOVIBMulti</name>
						<enabled>TRUE</enabled>
						<duration>13702</duration>
						<rate>
							<timebase>25</timebase>
							<ntsc>FALSE</ntsc>
						</rate>
						<start>41354</start>
						<end>41391</end>
						<in>7835</in>
						<out>7872</out>
						<sequence id="sequence-130"/>
						<link>
							<linkclipref>clipitem-1349</linkclipref>
							<mediatype>audio</mediatype>
							<trackindex>1</trackindex>
							<clipindex>184</clipindex>
						</link>
						<link>
							<linkclipref>clipitem-1487</linkclipref>
							<mediatype>audio</mediatype>
							<trackindex>3</trackindex>
							<clipindex>138</clipindex>
						</link>
						<labels>
							<label2>Forest</label2>
						</labels>
					</clipitem>
					<clipitem id="clipitem-1488" frameBlend="FALSE">
						<masterclipid>masterclip-232</masterclipid>
						<name>MVI_0382.MOVIBMulti</name>
						<enabled>TRUE</enabled>
						<duration>13702</duration>
						<rate>
							<timebase>25</timebase>
							<ntsc>FALSE</ntsc>
						</rate>
						<start>41391</start>
						<end>41655</end>
						<in>7987</in>
						<out>8251</out>
						<sequence id="sequence-130"/>
						<link>
							<linkclipref>clipitem-1350</linkclipref>
							<mediatype>audio</mediatype>
							<trackindex>1</trackindex>
							<clipindex>185</clipindex>
						</link>
						<link>
							<linkclipref>clipitem-1488</linkclipref>
							<mediatype>audio</mediatype>
							<trackindex>3</trackindex>
							<clipindex>139</clipindex>
						</link>
						<labels>
							<label2>Forest</label2>
						</labels>
					</clipitem>
					<clipitem id="clipitem-1489" frameBlend="FALSE">
						<masterclipid>masterclip-232</masterclipid>
						<name>MVI_0382.MOVIBMulti</name>
						<enabled>TRUE</enabled>
						<duration>13702</duration>
						<rate>
							<timebase>25</timebase>
							<ntsc>FALSE</ntsc>
						</rate>
						<start>41655</start>
						<end>41900</end>
						<in>11457</in>
						<out>11702</out>
						<sequence id="sequence-130"/>
						<labels>
							<label2>Forest</label2>
						</labels>
					</clipitem>
					<enabled>TRUE</enabled>
					<locked>FALSE</locked>
					<outputchannelindex>1</outputchannelindex>
				</track>
				<track monotrack="TRUE" TL.SQTrackAudioKeyframeStyle="0" TL.SQTrackShy="0" TL.SQTrackExpandedHeight="51" TL.SQTrackExpanded="1" MZ.TrackTargeted="0" MZ.TrackName="sync 2 mono" PannerCurrentValue="0.5" PannerIsInverted="true" PannerStartKeyframe="-91445760000000000,0.5,0,0,0,0,0,0" PannerName="Pan" currentExplodedTrackIndex="1" totalExplodedTrackCount="2" premiereTrackType="Mono">
					<clipitem id="clipitem-1490" frameBlend="FALSE">
						<masterclipid>masterclip-178</masterclipid>
						<name>AA022901.MXF</name>
						<enabled>TRUE</enabled>
						<duration>1056</duration>
						<rate>
							<timebase>25</timebase>
							<ntsc>FALSE</ntsc>
						</rate>
						<start>29230</start>
						<end>29292</end>
						<in>282</in>
						<out>344</out>
						<file id="file-158"/>
						<sourcetrack>
							<mediatype>audio</mediatype>
							<trackindex>2</trackindex>
						</sourcetrack>
						<link>
							<linkclipref>clipitem-780</linkclipref>
							<mediatype>video</mediatype>
							<trackindex>1</trackindex>
							<clipindex>240</clipindex>
						</link>
						<link>
							<linkclipref>clipitem-1451</linkclipref>
							<mediatype>audio</mediatype>
							<trackindex>3</trackindex>
							<clipindex>99</clipindex>
						</link>
						<link>
							<linkclipref>clipitem-1490</linkclipref>
							<mediatype>audio</mediatype>
							<trackindex>4</trackindex>
							<clipindex>1</clipindex>
						</link>
						<logginginfo>
							<description></description>
							<scene></scene>
							<shottake>AA0229</shottake>
							<lognote></lognote>
						</logginginfo>
						<labels>
							<label2>Iris</label2>
						</labels>
					</clipitem>
					<clipitem id="clipitem-1491" frameBlend="FALSE">
						<masterclipid>masterclip-179</masterclipid>
						<name>MVI_0171.MOV</name>
						<enabled>TRUE</enabled>
						<duration>408</duration>
						<rate>
							<timebase>25</timebase>
							<ntsc>FALSE</ntsc>
						</rate>
						<start>29292</start>
						<end>29373</end>
						<in>24</in>
						<out>105</out>
						<file id="file-159"/>
						<sourcetrack>
							<mediatype>audio</mediatype>
							<trackindex>2</trackindex>
						</sourcetrack>
						<link>
							<linkclipref>clipitem-781</linkclipref>
							<mediatype>video</mediatype>
							<trackindex>1</trackindex>
							<clipindex>241</clipindex>
						</link>
						<link>
							<linkclipref>clipitem-1452</linkclipref>
							<mediatype>audio</mediatype>
							<trackindex>3</trackindex>
							<clipindex>100</clipindex>
						</link>
						<link>
							<linkclipref>clipitem-1491</linkclipref>
							<mediatype>audio</mediatype>
							<trackindex>4</trackindex>
							<clipindex>2</clipindex>
						</link>
						<logginginfo>
							<description></description>
							<scene></scene>
							<shottake></shottake>
							<lognote></lognote>
						</logginginfo>
						<labels>
							<label2>Iris</label2>
						</labels>
					</clipitem>
					<enabled>TRUE</enabled>
					<locked>FALSE</locked>
					<outputchannelindex>4</outputchannelindex>
				</track>
				<track monotrack="TRUE" TL.SQTrackAudioKeyframeStyle="0" TL.SQTrackShy="0" TL.SQTrackExpandedHeight="32" TL.SQTrackExpanded="1" MZ.TrackTargeted="0" MZ.TrackName="sync 3 mono" PannerCurrentValue="0.5" PannerIsInverted="true" PannerStartKeyframe="-91445760000000000,0.5,0,0,0,0,0,0" PannerName="Pan" currentExplodedTrackIndex="0" totalExplodedTrackCount="2" premiereTrackType="Mono">
					<clipitem id="clipitem-1492" frameBlend="FALSE">
						<masterclipid>masterclip-2</masterclipid>
						<name>E_Intro_hjemme_tastatur.MOV</name>
						<enabled>TRUE</enabled>
						<duration>430</duration>
						<rate>
							<timebase>25</timebase>
							<ntsc>FALSE</ntsc>
						</rate>
						<start>0</start>
						<end>123</end>
						<in>172</in>
						<out>295</out>
						<file id="file-2"/>
						<sourcetrack>
							<mediatype>audio</mediatype>
							<trackindex>1</trackindex>
						</sourcetrack>
						<logginginfo>
							<description></description>
							<scene></scene>
							<shottake></shottake>
							<lognote></lognote>
						</logginginfo>
						<labels>
							<label2>Iris</label2>
						</labels>
					</clipitem>
					<clipitem id="clipitem-1493" frameBlend="FALSE">
						<masterclipid>masterclip-22</masterclipid>
						<name>MVI_9527.MOV</name>
						<enabled>TRUE</enabled>
						<duration>1695</duration>
						<rate>
							<timebase>25</timebase>
							<ntsc>FALSE</ntsc>
						</rate>
						<start>2061</start>
						<end>2128</end>
						<in>791</in>
						<out>858</out>
						<file id="file-21"/>
						<sourcetrack>
							<mediatype>audio</mediatype>
							<trackindex>1</trackindex>
						</sourcetrack>
							<filter>
								<effect>
									<name>Audio Levels</name>
									<effectid>audiolevels</effectid>
									<effectcategory>audiolevels</effectcategory>
									<effecttype>audiolevels</effecttype>
									<mediatype>audio</mediatype>
									<parameter authoringApp="PremierePro">
										<parameterid>level</parameterid>
										<name>Level</name>
										<valuemin>0</valuemin>
										<valuemax>3.98109</valuemax>
										<value>0.191909</value>
									</parameter>
								</effect>
							</filter>
						<link>
							<linkclipref>clipitem-407</linkclipref>
							<mediatype>video</mediatype>
							<trackindex>1</trackindex>
							<clipindex>19</clipindex>
						</link>
						<link>
							<linkclipref>clipitem-1493</linkclipref>
							<mediatype>audio</mediatype>
							<trackindex>5</trackindex>
							<clipindex>2</clipindex>
						</link>
						<link>
							<linkclipref>clipitem-1585</linkclipref>
							<mediatype>audio</mediatype>
							<trackindex>7</trackindex>
							<clipindex>1</clipindex>
						</link>
						<logginginfo>
							<description></description>
							<scene></scene>
							<shottake></shottake>
							<lognote></lognote>
						</logginginfo>
						<labels>
							<label2>Iris</label2>
						</labels>
					</clipitem>
					<clipitem id="clipitem-1494" frameBlend="FALSE">
						<masterclipid>masterclip-23</masterclipid>
						<name>MVI_9530.MOV</name>
						<enabled>TRUE</enabled>
						<duration>595</duration>
						<rate>
							<timebase>25</timebase>
							<ntsc>FALSE</ntsc>
						</rate>
						<start>2128</start>
						<end>2199</end>
						<in>72</in>
						<out>143</out>
						<file id="file-22"/>
						<sourcetrack>
							<mediatype>audio</mediatype>
							<trackindex>1</trackindex>
						</sourcetrack>
							<filter>
								<effect>
									<name>Audio Levels</name>
									<effectid>audiolevels</effectid>
									<effectcategory>audiolevels</effectcategory>
									<effecttype>audiolevels</effecttype>
									<mediatype>audio</mediatype>
									<parameter authoringApp="PremierePro">
										<parameterid>level</parameterid>
										<name>Level</name>
										<valuemin>0</valuemin>
										<valuemax>3.98109</valuemax>
										<value>0.250593</value>
									</parameter>
								</effect>
							</filter>
						<link>
							<linkclipref>clipitem-408</linkclipref>
							<mediatype>video</mediatype>
							<trackindex>1</trackindex>
							<clipindex>20</clipindex>
						</link>
						<link>
							<linkclipref>clipitem-1494</linkclipref>
							<mediatype>audio</mediatype>
							<trackindex>5</trackindex>
							<clipindex>3</clipindex>
						</link>
						<link>
							<linkclipref>clipitem-1586</linkclipref>
							<mediatype>audio</mediatype>
							<trackindex>7</trackindex>
							<clipindex>2</clipindex>
						</link>
						<logginginfo>
							<description></description>
							<scene></scene>
							<shottake></shottake>
							<lognote></lognote>
						</logginginfo>
						<labels>
							<label2>Iris</label2>
						</labels>
					</clipitem>
					<clipitem id="clipitem-1495" frameBlend="FALSE">
						<masterclipid>masterclip-24</masterclipid>
						<name>MVI_9528.MOV</name>
						<enabled>TRUE</enabled>
						<duration>308</duration>
						<rate>
							<timebase>25</timebase>
							<ntsc>FALSE</ntsc>
						</rate>
						<start>2199</start>
						<end>2360</end>
						<in>97</in>
						<out>258</out>
						<file id="file-23"/>
						<sourcetrack>
							<mediatype>audio</mediatype>
							<trackindex>1</trackindex>
						</sourcetrack>
							<filter>
								<effect>
									<name>Audio Levels</name>
									<effectid>audiolevels</effectid>
									<effectcategory>audiolevels</effectcategory>
									<effecttype>audiolevels</effecttype>
									<mediatype>audio</mediatype>
									<parameter authoringApp="PremierePro">
										<parameterid>level</parameterid>
										<name>Level</name>
										<valuemin>0</valuemin>
										<valuemax>3.98109</valuemax>
										<value>0.0499999</value>
									</parameter>
								</effect>
							</filter>
						<link>
							<linkclipref>clipitem-409</linkclipref>
							<mediatype>video</mediatype>
							<trackindex>1</trackindex>
							<clipindex>21</clipindex>
						</link>
						<link>
							<linkclipref>clipitem-1495</linkclipref>
							<mediatype>audio</mediatype>
							<trackindex>5</trackindex>
							<clipindex>4</clipindex>
						</link>
						<link>
							<linkclipref>clipitem-1587</linkclipref>
							<mediatype>audio</mediatype>
							<trackindex>7</trackindex>
							<clipindex>3</clipindex>
						</link>
						<logginginfo>
							<description></description>
							<scene></scene>
							<shottake></shottake>
							<lognote></lognote>
						</logginginfo>
						<labels>
							<label2>Iris</label2>
						</labels>
					</clipitem>
					<clipitem id="clipitem-1496" frameBlend="FALSE">
						<masterclipid>masterclip-38</masterclipid>
						<name>AA313301.MXF</name>
						<enabled>TRUE</enabled>
						<duration>360</duration>
						<rate>
							<timebase>25</timebase>
							<ntsc>FALSE</ntsc>
						</rate>
						<start>3787</start>
						<end>3820</end>
						<in>280</in>
						<out>313</out>
						<file id="file-35"/>
						<sourcetrack>
							<mediatype>audio</mediatype>
							<trackindex>1</trackindex>
						</sourcetrack>
						<link>
							<linkclipref>clipitem-435</linkclipref>
							<mediatype>video</mediatype>
							<trackindex>1</trackindex>
							<clipindex>33</clipindex>
						</link>
						<link>
							<linkclipref>clipitem-1496</linkclipref>
							<mediatype>audio</mediatype>
							<trackindex>5</trackindex>
							<clipindex>5</clipindex>
						</link>
						<link>
							<linkclipref>clipitem-1588</linkclipref>
							<mediatype>audio</mediatype>
							<trackindex>7</trackindex>
							<clipindex>4</clipindex>
						</link>
						<logginginfo>
							<description></description>
							<scene></scene>
							<shottake>AA3133</shottake>
							<lognote></lognote>
						</logginginfo>
						<labels>
							<label2>Iris</label2>
						</labels>
					</clipitem>
					<clipitem id="clipitem-1497" frameBlend="FALSE">
						<masterclipid>masterclip-41</masterclipid>
						<name>MVI_9579.MOV</name>
						<enabled>TRUE</enabled>
						<duration>1587</duration>
						<rate>
							<timebase>25</timebase>
							<ntsc>FALSE</ntsc>
						</rate>
						<start>4728</start>
						<end>4811</end>
						<in>760</in>
						<out>843</out>
						<file id="file-38"/>
						<sourcetrack>
							<mediatype>audio</mediatype>
							<trackindex>1</trackindex>
						</sourcetrack>
							<filter>
								<effect>
									<name>Audio Levels</name>
									<effectid>audiolevels</effectid>
									<effectcategory>audiolevels</effectcategory>
									<effecttype>audiolevels</effecttype>
									<mediatype>audio</mediatype>
									<parameter authoringApp="PremierePro">
										<parameterid>level</parameterid>
										<name>Level</name>
										<valuemin>0</valuemin>
										<valuemax>3.98109</valuemax>
										<value>0.111936</value>
									</parameter>
								</effect>
							</filter>
						<link>
							<linkclipref>clipitem-443</linkclipref>
							<mediatype>video</mediatype>
							<trackindex>1</trackindex>
							<clipindex>41</clipindex>
						</link>
						<link>
							<linkclipref>clipitem-1497</linkclipref>
							<mediatype>audio</mediatype>
							<trackindex>5</trackindex>
							<clipindex>6</clipindex>
						</link>
						<link>
							<linkclipref>clipitem-1589</linkclipref>
							<mediatype>audio</mediatype>
							<trackindex>7</trackindex>
							<clipindex>5</clipindex>
						</link>
						<logginginfo>
							<description></description>
							<scene></scene>
							<shottake></shottake>
							<lognote></lognote>
						</logginginfo>
						<labels>
							<label2>Iris</label2>
						</labels>
					</clipitem>
					<clipitem id="clipitem-1498" frameBlend="FALSE">
						<masterclipid>masterclip-42</masterclipid>
						<name>AA314901.MXF</name>
						<enabled>TRUE</enabled>
						<duration>4956</duration>
						<rate>
							<timebase>25</timebase>
							<ntsc>FALSE</ntsc>
						</rate>
						<start>4811</start>
						<end>4924</end>
						<in>4636</in>
						<out>4749</out>
						<file id="file-39"/>
						<sourcetrack>
							<mediatype>audio</mediatype>
							<trackindex>1</trackindex>
						</sourcetrack>
						<link>
							<linkclipref>clipitem-444</linkclipref>
							<mediatype>video</mediatype>
							<trackindex>1</trackindex>
							<clipindex>42</clipindex>
						</link>
						<link>
							<linkclipref>clipitem-1498</linkclipref>
							<mediatype>audio</mediatype>
							<trackindex>5</trackindex>
							<clipindex>7</clipindex>
						</link>
						<link>
							<linkclipref>clipitem-1590</linkclipref>
							<mediatype>audio</mediatype>
							<trackindex>7</trackindex>
							<clipindex>6</clipindex>
						</link>
						<logginginfo>
							<description></description>
							<scene></scene>
							<shottake>AA3149</shottake>
							<lognote></lognote>
						</logginginfo>
						<labels>
							<label2>Iris</label2>
						</labels>
					</clipitem>
					<clipitem id="clipitem-1499" frameBlend="FALSE">
						<masterclipid>masterclip-43</masterclipid>
						<name>MVI_9570.MOV</name>
						<enabled>TRUE</enabled>
						<duration>617</duration>
						<rate>
							<timebase>25</timebase>
							<ntsc>FALSE</ntsc>
						</rate>
						<start>4924</start>
						<end>4985</end>
						<in>456</in>
						<out>517</out>
						<file id="file-40"/>
						<sourcetrack>
							<mediatype>audio</mediatype>
							<trackindex>1</trackindex>
						</sourcetrack>
							<filter>
								<effect>
									<name>Audio Levels</name>
									<effectid>audiolevels</effectid>
									<effectcategory>audiolevels</effectcategory>
									<effecttype>audiolevels</effecttype>
									<mediatype>audio</mediatype>
									<parameter authoringApp="PremierePro">
										<parameterid>level</parameterid>
										<name>Level</name>
										<valuemin>0</valuemin>
										<valuemax>3.98109</valuemax>
										<value>0.223342</value>
									</parameter>
								</effect>
							</filter>
						<logginginfo>
							<description></description>
							<scene></scene>
							<shottake></shottake>
							<lognote></lognote>
						</logginginfo>
						<labels>
							<label2>Iris</label2>
						</labels>
					</clipitem>
					<clipitem id="clipitem-1500" frameBlend="FALSE">
						<masterclipid>masterclip-44</masterclipid>
						<name>AA313701.MXFMulticam</name>
						<enabled>TRUE</enabled>
						<duration>14040</duration>
						<rate>
							<timebase>25</timebase>
							<ntsc>FALSE</ntsc>
						</rate>
						<start>5387</start>
						<end>5419</end>
						<in>6999</in>
						<out>7031</out>
						<sequence id="sequence-112"/>
						<link>
							<linkclipref>clipitem-1500</linkclipref>
							<mediatype>audio</mediatype>
							<trackindex>5</trackindex>
							<clipindex>9</clipindex>
						</link>
						<link>
							<linkclipref>clipitem-1593</linkclipref>
							<mediatype>audio</mediatype>
							<trackindex>7</trackindex>
							<clipindex>9</clipindex>
						</link>
						<labels>
							<label2>Forest</label2>
						</labels>
					</clipitem>
					<clipitem id="clipitem-1501" frameBlend="FALSE">
						<masterclipid>masterclip-50</masterclipid>
						<name>MVI_9573.MOV</name>
						<enabled>TRUE</enabled>
						<duration>273</duration>
						<rate>
							<timebase>25</timebase>
							<ntsc>FALSE</ntsc>
						</rate>
						<start>5419</start>
						<end>5447</end>
						<in>125</in>
						<out>153</out>
						<file id="file-45"/>
						<sourcetrack>
							<mediatype>audio</mediatype>
							<trackindex>1</trackindex>
						</sourcetrack>
							<filter>
								<effect>
									<name>Audio Levels</name>
									<effectid>audiolevels</effectid>
									<effectcategory>audiolevels</effectcategory>
									<effecttype>audiolevels</effecttype>
									<mediatype>audio</mediatype>
									<parameter authoringApp="PremierePro">
										<parameterid>level</parameterid>
										<name>Level</name>
										<valuemin>0</valuemin>
										<valuemax>3.98109</valuemax>
										<value>0.099763</value>
									</parameter>
								</effect>
							</filter>
						<link>
							<linkclipref>clipitem-466</linkclipref>
							<mediatype>video</mediatype>
							<trackindex>1</trackindex>
							<clipindex>52</clipindex>
						</link>
						<link>
							<linkclipref>clipitem-1501</linkclipref>
							<mediatype>audio</mediatype>
							<trackindex>5</trackindex>
							<clipindex>10</clipindex>
						</link>
						<link>
							<linkclipref>clipitem-1594</linkclipref>
							<mediatype>audio</mediatype>
							<trackindex>7</trackindex>
							<clipindex>10</clipindex>
						</link>
						<logginginfo>
							<description></description>
							<scene></scene>
							<shottake></shottake>
							<lognote></lognote>
						</logginginfo>
						<labels>
							<label2>Iris</label2>
						</labels>
					</clipitem>
					<clipitem id="clipitem-1502" frameBlend="FALSE">
						<masterclipid>masterclip-51</masterclipid>
						<name>MVI_9574.MOV</name>
						<enabled>TRUE</enabled>
						<duration>6058</duration>
						<rate>
							<timebase>25</timebase>
							<ntsc>FALSE</ntsc>
						</rate>
						<start>5447</start>
						<end>5519</end>
						<in>4024</in>
						<out>4096</out>
						<file id="file-46"/>
						<sourcetrack>
							<mediatype>audio</mediatype>
							<trackindex>1</trackindex>
						</sourcetrack>
							<filter>
								<effect>
									<name>Audio Levels</name>
									<effectid>audiolevels</effectid>
									<effectcategory>audiolevels</effectcategory>
									<effecttype>audiolevels</effecttype>
									<mediatype>audio</mediatype>
									<parameter authoringApp="PremierePro">
										<parameterid>level</parameterid>
										<name>Level</name>
										<valuemin>0</valuemin>
										<valuemax>3.98109</valuemax>
										<value>0.099763</value>
									</parameter>
								</effect>
							</filter>
						<link>
							<linkclipref>clipitem-467</linkclipref>
							<mediatype>video</mediatype>
							<trackindex>1</trackindex>
							<clipindex>53</clipindex>
						</link>
						<link>
							<linkclipref>clipitem-1502</linkclipref>
							<mediatype>audio</mediatype>
							<trackindex>5</trackindex>
							<clipindex>11</clipindex>
						</link>
						<link>
							<linkclipref>clipitem-1595</linkclipref>
							<mediatype>audio</mediatype>
							<trackindex>7</trackindex>
							<clipindex>11</clipindex>
						</link>
						<logginginfo>
							<description></description>
							<scene></scene>
							<shottake></shottake>
							<lognote></lognote>
						</logginginfo>
						<labels>
							<label2>Iris</label2>
						</labels>
					</clipitem>
					<clipitem id="clipitem-1503" frameBlend="FALSE">
						<masterclipid>masterclip-278</masterclipid>
						<name>AA313501.MXF</name>
						<enabled>TRUE</enabled>
						<duration>6156</duration>
						<rate>
							<timebase>25</timebase>
							<ntsc>FALSE</ntsc>
						</rate>
						<start>5930</start>
						<end>5963</end>
						<in>2961</in>
						<out>2994</out>
						<pixelaspectratio>square</pixelaspectratio>
						<anamorphic>FALSE</anamorphic>
						<file id="file-251">
							<name>AA313501.MXF</name>
							<pathurl>file://localhost/Volumes/Brakka/AdobeLager/Katta/Katta-14xxxx-Smart_eller_overvaaket-Chris/02-Video/Smartly300%201/CONTENTS/CLIPS001/AA3135/AA313501.MXF</pathurl>
							<rate>
								<timebase>25</timebase>
								<ntsc>FALSE</ntsc>
							</rate>
							<duration>6156</duration>
							<timecode>
								<rate>
									<timebase>25</timebase>
									<ntsc>FALSE</ntsc>
								</rate>
								<string>04:42:36:04</string>
								<frame>423904</frame>
								<displayformat>NDF</displayformat>
								<reel>
									<name></name>
								</reel>
							</timecode>
							<media>
								<video>
									<duration>18000</duration>
									<samplecharacteristics>
										<rate>
											<timebase>25</timebase>
											<ntsc>FALSE</ntsc>
										</rate>
										<width>1920</width>
										<height>1080</height>
										<anamorphic>FALSE</anamorphic>
										<pixelaspectratio>square</pixelaspectratio>
										<fielddominance>upper</fielddominance>
									</samplecharacteristics>
								</video>
								<audio>
									<samplecharacteristics>
										<depth>16</depth>
										<samplerate>48000</samplerate>
									</samplecharacteristics>
									<channelcount>1</channelcount>
									<layout>mono</layout>
									<audiochannel>
										<sourcechannel>1</sourcechannel>
										<channellabel>discrete</channellabel>
									</audiochannel>
								</audio>
								<audio>
									<samplecharacteristics>
										<depth>16</depth>
										<samplerate>48000</samplerate>
									</samplecharacteristics>
									<channelcount>1</channelcount>
									<layout>mono</layout>
									<audiochannel>
										<sourcechannel>2</sourcechannel>
										<channellabel>discrete</channellabel>
									</audiochannel>
								</audio>
							</media>
						</file>
						<sourcetrack>
							<mediatype>audio</mediatype>
							<trackindex>1</trackindex>
						</sourcetrack>
						<link>
							<linkclipref>clipitem-1503</linkclipref>
							<mediatype>audio</mediatype>
							<trackindex>5</trackindex>
							<clipindex>12</clipindex>
						</link>
						<link>
							<linkclipref>clipitem-1596</linkclipref>
							<mediatype>audio</mediatype>
							<trackindex>7</trackindex>
							<clipindex>12</clipindex>
						</link>
						<logginginfo>
							<description></description>
							<scene></scene>
							<shottake>AA3135</shottake>
							<lognote></lognote>
						</logginginfo>
						<labels>
							<label2>Iris</label2>
						</labels>
					</clipitem>
					<clipitem id="clipitem-1504" frameBlend="FALSE">
						<masterclipid>masterclip-45</masterclipid>
						<name>AA313701.MXF</name>
						<enabled>TRUE</enabled>
						<duration>14040</duration>
						<rate>
							<timebase>25</timebase>
							<ntsc>FALSE</ntsc>
						</rate>
						<start>6295</start>
						<end>6366</end>
						<in>4758</in>
						<out>4829</out>
						<file id="file-41"/>
						<sourcetrack>
							<mediatype>audio</mediatype>
							<trackindex>1</trackindex>
						</sourcetrack>
							<filter>
								<effect>
									<name>Audio Levels</name>
									<effectid>audiolevels</effectid>
									<effectcategory>audiolevels</effectcategory>
									<effecttype>audiolevels</effecttype>
									<mediatype>audio</mediatype>
									<parameter authoringApp="PremierePro">
										<parameterid>level</parameterid>
										<name>Level</name>
										<valuemin>0</valuemin>
										<valuemax>3.98109</valuemax>
										<value>0.223342</value>
									</parameter>
								</effect>
							</filter>
						<logginginfo>
							<description></description>
							<scene></scene>
							<shottake>AA3137</shottake>
							<lognote></lognote>
						</logginginfo>
						<labels>
							<label2>Iris</label2>
						</labels>
					</clipitem>
					<clipitem id="clipitem-1505" frameBlend="FALSE">
						<masterclipid>masterclip-44</masterclipid>
						<name>AA313701.MXFMulticam</name>
						<enabled>TRUE</enabled>
						<duration>14040</duration>
						<rate>
							<timebase>25</timebase>
							<ntsc>FALSE</ntsc>
						</rate>
						<start>6366</start>
						<end>6459</end>
						<in>4889</in>
						<out>4982</out>
						<sequence id="sequence-112"/>
							<filter>
								<effect>
									<name>Audio Levels</name>
									<effectid>audiolevels</effectid>
									<effectcategory>audiolevels</effectcategory>
									<effecttype>audiolevels</effecttype>
									<mediatype>audio</mediatype>
									<parameter authoringApp="PremierePro">
										<parameterid>level</parameterid>
										<name>Level</name>
										<valuemin>0</valuemin>
										<valuemax>3.98109</valuemax>
										<value>0.268946</value>
									</parameter>
								</effect>
							</filter>
						<link>
							<linkclipref>clipitem-1505</linkclipref>
							<mediatype>audio</mediatype>
							<trackindex>5</trackindex>
							<clipindex>14</clipindex>
						</link>
						<link>
							<linkclipref>clipitem-1598</linkclipref>
							<mediatype>audio</mediatype>
							<trackindex>7</trackindex>
							<clipindex>14</clipindex>
						</link>
						<labels>
							<label2>Forest</label2>
						</labels>
					</clipitem>
					<clipitem id="clipitem-1506" frameBlend="FALSE">
						<masterclipid>masterclip-54</masterclipid>
						<name>AA315301.MXF</name>
						<enabled>TRUE</enabled>
						<duration>7692</duration>
						<rate>
							<timebase>25</timebase>
							<ntsc>FALSE</ntsc>
						</rate>
						<start>8583</start>
						<end>8608</end>
						<in>6280</in>
						<out>6305</out>
						<file id="file-49"/>
						<sourcetrack>
							<mediatype>audio</mediatype>
							<trackindex>1</trackindex>
						</sourcetrack>
						<link>
							<linkclipref>clipitem-1506</linkclipref>
							<mediatype>audio</mediatype>
							<trackindex>5</trackindex>
							<clipindex>15</clipindex>
						</link>
						<link>
							<linkclipref>clipitem-1599</linkclipref>
							<mediatype>audio</mediatype>
							<trackindex>7</trackindex>
							<clipindex>15</clipindex>
						</link>
						<logginginfo>
							<description></description>
							<scene></scene>
							<shottake>AA3153</shottake>
							<lognote></lognote>
						</logginginfo>
						<labels>
							<label2>Iris</label2>
						</labels>
					</clipitem>
					<clipitem id="clipitem-1507" frameBlend="FALSE">
						<masterclipid>masterclip-63</masterclipid>
						<name>AA314001.MXFMulticam</name>
						<enabled>TRUE</enabled>
						<duration>3568</duration>
						<rate>
							<timebase>25</timebase>
							<ntsc>FALSE</ntsc>
						</rate>
						<start>8775</start>
						<end>8828</end>
						<in>263</in>
						<out>316</out>
						<sequence id="sequence-131" MZ.Sequence.PreviewFrameSizeHeight="1080" MZ.Sequence.PreviewFrameSizeWidth="1920" MZ.Sequence.AudioTimeDisplayFormat="200" MZ.Sequence.PreviewRenderingClassID="1297106761" MZ.Sequence.PreviewRenderingPresetCodec="1297107278" MZ.Sequence.PreviewRenderingPresetPath="EncoderPresets/SequencePreview/795454d9-d3c2-429d-9474-923ab13b7018/I-Frame Only MPEG.epr" MZ.Sequence.PreviewUseMaxRenderQuality="false" MZ.Sequence.PreviewUseMaxBitDepth="false" MZ.Sequence.EditingModeGUID="795454d9-d3c2-429d-9474-923ab13b7018" MZ.Sequence.VideoTimeDisplayFormat="101" MZ.WorkOutPoint="15240960000000" MZ.WorkInPoint="0">
							<duration>3309</duration>
							<rate>
								<timebase>25</timebase>
								<ntsc>FALSE</ntsc>
							</rate>
							<name>AA314001.MXFMulticam</name>
							<media>
								<video>
									<format>
										<samplecharacteristics>
											<rate>
												<timebase>25</timebase>
												<ntsc>FALSE</ntsc>
											</rate>
											<codec>
												<name>Apple ProRes 422</name>
												<appspecificdata>
													<appname>Final Cut Pro</appname>
													<appmanufacturer>Apple Inc.</appmanufacturer>
													<appversion>7.0</appversion>
													<data>
														<qtcodec>
															<codecname>Apple ProRes 422</codecname>
															<codectypename>Apple ProRes 422</codectypename>
															<codectypecode>apcn</codectypecode>
															<codecvendorcode>appl</codecvendorcode>
															<spatialquality>1024</spatialquality>
															<temporalquality>0</temporalquality>
															<keyframerate>0</keyframerate>
															<datarate>0</datarate>
														</qtcodec>
													</data>
												</appspecificdata>
											</codec>
											<width>1920</width>
											<height>1080</height>
											<anamorphic>FALSE</anamorphic>
											<pixelaspectratio>square</pixelaspectratio>
											<fielddominance>upper</fielddominance>
											<colordepth>24</colordepth>
										</samplecharacteristics>
									</format>
									<track>
										<clipitem id="clipitem-1508" frameBlend="FALSE">
											<masterclipid>masterclip-64</masterclipid>
											<name>AA314001.MXF</name>
											<enabled>TRUE</enabled>
											<duration>3300</duration>
											<rate>
												<timebase>25</timebase>
												<ntsc>FALSE</ntsc>
											</rate>
											<start>9</start>
											<end>3309</end>
											<in>0</in>
											<out>3300</out>
											<alphatype>none</alphatype>
											<file id="file-57"/>
											<link>
												<linkclipref>clipitem-1508</linkclipref>
												<mediatype>video</mediatype>
												<trackindex>1</trackindex>
												<clipindex>1</clipindex>
											</link>
											<link>
												<linkclipref>clipitem-1511</linkclipref>
												<mediatype>audio</mediatype>
												<trackindex>1</trackindex>
												<clipindex>1</clipindex>
												<groupindex>1</groupindex>
											</link>
											<link>
												<linkclipref>clipitem-1512</linkclipref>
												<mediatype>audio</mediatype>
												<trackindex>2</trackindex>
												<clipindex>1</clipindex>
												<groupindex>1</groupindex>
											</link>
											<logginginfo>
												<description></description>
												<scene></scene>
												<shottake>AA3140</shottake>
												<lognote></lognote>
											</logginginfo>
											<labels>
												<label2>Iris</label2>
											</labels>
										</clipitem>
										<enabled>TRUE</enabled>
										<locked>FALSE</locked>
									</track>
									<track>
										<clipitem id="clipitem-1509" frameBlend="FALSE">
											<masterclipid>masterclip-56</masterclipid>
											<name>AA315601.MXF</name>
											<enabled>TRUE</enabled>
											<duration>420</duration>
											<rate>
												<timebase>25</timebase>
												<ntsc>FALSE</ntsc>
											</rate>
											<start>2223</start>
											<end>2643</end>
											<in>0</in>
											<out>420</out>
											<alphatype>none</alphatype>
											<file id="file-51"/>
											<link>
												<linkclipref>clipitem-1509</linkclipref>
												<mediatype>video</mediatype>
												<trackindex>2</trackindex>
												<clipindex>1</clipindex>
											</link>
											<link>
												<linkclipref>clipitem-1513</linkclipref>
												<mediatype>audio</mediatype>
												<trackindex>3</trackindex>
												<clipindex>1</clipindex>
												<groupindex>1</groupindex>
											</link>
											<link>
												<linkclipref>clipitem-1514</linkclipref>
												<mediatype>audio</mediatype>
												<trackindex>4</trackindex>
												<clipindex>1</clipindex>
												<groupindex>1</groupindex>
											</link>
											<logginginfo>
												<description></description>
												<scene></scene>
												<shottake>AA3156</shottake>
												<lognote></lognote>
											</logginginfo>
											<labels>
												<label2>Iris</label2>
											</labels>
										</clipitem>
										<enabled>TRUE</enabled>
										<locked>FALSE</locked>
									</track>
									<track>
										<clipitem id="clipitem-1510" frameBlend="FALSE">
											<masterclipid>masterclip-65</masterclipid>
											<name>MVI_9559.MOV</name>
											<enabled>TRUE</enabled>
											<duration>3568</duration>
											<rate>
												<timebase>25</timebase>
												<ntsc>FALSE</ntsc>
											</rate>
											<start>0</start>
											<end>3568</end>
											<in>0</in>
											<out>3568</out>
											<alphatype>black</alphatype>
											<file id="file-58"/>
											<link>
												<linkclipref>clipitem-1510</linkclipref>
												<mediatype>video</mediatype>
												<trackindex>3</trackindex>
												<clipindex>1</clipindex>
											</link>
											<link>
												<linkclipref>clipitem-1515</linkclipref>
												<mediatype>audio</mediatype>
												<trackindex>5</trackindex>
												<clipindex>1</clipindex>
												<groupindex>1</groupindex>
											</link>
											<link>
												<linkclipref>clipitem-1516</linkclipref>
												<mediatype>audio</mediatype>
												<trackindex>6</trackindex>
												<clipindex>1</clipindex>
												<groupindex>1</groupindex>
											</link>
											<logginginfo>
												<description></description>
												<scene></scene>
												<shottake></shottake>
												<lognote></lognote>
											</logginginfo>
											<labels>
												<label2>Iris</label2>
											</labels>
										</clipitem>
										<enabled>TRUE</enabled>
										<locked>FALSE</locked>
									</track>
								</video>
								<audio>
									<format>
										<samplecharacteristics>
											<depth>16</depth>
											<samplerate>48000</samplerate>
										</samplecharacteristics>
									</format>
									<outputs>
										<group>
											<index>1</index>
											<numchannels>1</numchannels>
											<downmix>0</downmix>
											<channel>
												<index>1</index>
											</channel>
										</group>
										<group>
											<index>2</index>
											<numchannels>1</numchannels>
											<downmix>0</downmix>
											<channel>
												<index>2</index>
											</channel>
										</group>
										<group>
											<index>3</index>
											<numchannels>1</numchannels>
											<downmix>0</downmix>
											<channel>
												<index>3</index>
											</channel>
										</group>
										<group>
											<index>4</index>
											<numchannels>1</numchannels>
											<downmix>0</downmix>
											<channel>
												<index>4</index>
											</channel>
										</group>
										<group>
											<index>5</index>
											<numchannels>1</numchannels>
											<downmix>0</downmix>
											<channel>
												<index>5</index>
											</channel>
										</group>
										<group>
											<index>6</index>
											<numchannels>1</numchannels>
											<downmix>0</downmix>
											<channel>
												<index>6</index>
											</channel>
										</group>
									</outputs>
									<track TL.SQTrackExpandedHeight="25" TL.SQTrackExpanded="0" MZ.TrackTargeted="1" PannerCurrentValue="0" PannerIsInverted="true" PannerStartKeyframe="-91445760000000000,0.,0,0,0,0,0,0" PannerName="Balance" currentExplodedTrackIndex="0" totalExplodedTrackCount="1" premiereTrackType="Stereo">
										<clipitem id="clipitem-1511" frameBlend="FALSE" PannerCurrentValue="0.5" PannerKeyframes="" PannerStartKeyframe="-91445760000000000,0.5,0,0,0,0,0,0" PannerIsInverted="true" PannerName="Pan">
											<masterclipid>masterclip-64</masterclipid>
											<name>AA314001.MXF</name>
											<enabled>TRUE</enabled>
											<duration>3300</duration>
											<rate>
												<timebase>25</timebase>
												<ntsc>FALSE</ntsc>
											</rate>
											<start>9</start>
											<end>3309</end>
											<in>0</in>
											<out>3300</out>
											<file id="file-57"/>
											<sourcetrack>
												<mediatype>audio</mediatype>
												<trackindex>1</trackindex>
											</sourcetrack>
												<filter>
													<effect>
														<name>Audio Pan</name>
														<effectid>audiopan</effectid>
														<effectcategory>audiopan</effectcategory>
														<effecttype>audiopan</effecttype>
														<mediatype>audio</mediatype>
														<parameter authoringApp="PremierePro">
															<parameterid>pan</parameterid>
															<name>Pan</name>
															<valuemin>-1</valuemin>
															<valuemax>1</valuemax>
															<value>0</value>
														</parameter>
													</effect>
												</filter>
											<link>
												<linkclipref>clipitem-1508</linkclipref>
												<mediatype>video</mediatype>
												<trackindex>1</trackindex>
												<clipindex>1</clipindex>
											</link>
											<link>
												<linkclipref>clipitem-1511</linkclipref>
												<mediatype>audio</mediatype>
												<trackindex>1</trackindex>
												<clipindex>1</clipindex>
												<groupindex>1</groupindex>
											</link>
											<link>
												<linkclipref>clipitem-1512</linkclipref>
												<mediatype>audio</mediatype>
												<trackindex>2</trackindex>
												<clipindex>1</clipindex>
												<groupindex>1</groupindex>
											</link>
											<logginginfo>
												<description></description>
												<scene></scene>
												<shottake>AA3140</shottake>
												<lognote></lognote>
											</logginginfo>
											<labels>
												<label2>Iris</label2>
											</labels>
										</clipitem>
										<enabled>TRUE</enabled>
										<locked>FALSE</locked>
										<outputchannelindex>1</outputchannelindex>
									</track>
									<track TL.SQTrackExpandedHeight="25" TL.SQTrackExpanded="0" MZ.TrackTargeted="1" PannerCurrentValue="1." PannerIsInverted="true" PannerStartKeyframe="-91445760000000000,1.,0,0,0,0,0,0" PannerName="Balance" currentExplodedTrackIndex="0" totalExplodedTrackCount="1" premiereTrackType="Stereo">
										<clipitem id="clipitem-1512" frameBlend="FALSE" PannerCurrentValue="0.5" PannerKeyframes="" PannerStartKeyframe="-91445760000000000,0.5,0,0,0,0,0,0" PannerIsInverted="true" PannerName="Pan">
											<masterclipid>masterclip-64</masterclipid>
											<name>AA314001.MXF</name>
											<enabled>TRUE</enabled>
											<duration>3300</duration>
											<rate>
												<timebase>25</timebase>
												<ntsc>FALSE</ntsc>
											</rate>
											<start>9</start>
											<end>3309</end>
											<in>0</in>
											<out>3300</out>
											<file id="file-57"/>
											<sourcetrack>
												<mediatype>audio</mediatype>
												<trackindex>1</trackindex>
											</sourcetrack>
												<filter>
													<effect>
														<name>Audio Pan</name>
														<effectid>audiopan</effectid>
														<effectcategory>audiopan</effectcategory>
														<effecttype>audiopan</effecttype>
														<mediatype>audio</mediatype>
														<parameter authoringApp="PremierePro">
															<parameterid>pan</parameterid>
															<name>Pan</name>
															<valuemin>-1</valuemin>
															<valuemax>1</valuemax>
															<value>0</value>
														</parameter>
													</effect>
												</filter>
											<link>
												<linkclipref>clipitem-1508</linkclipref>
												<mediatype>video</mediatype>
												<trackindex>1</trackindex>
												<clipindex>1</clipindex>
											</link>
											<link>
												<linkclipref>clipitem-1511</linkclipref>
												<mediatype>audio</mediatype>
												<trackindex>1</trackindex>
												<clipindex>1</clipindex>
												<groupindex>1</groupindex>
											</link>
											<link>
												<linkclipref>clipitem-1512</linkclipref>
												<mediatype>audio</mediatype>
												<trackindex>2</trackindex>
												<clipindex>1</clipindex>
												<groupindex>1</groupindex>
											</link>
											<logginginfo>
												<description></description>
												<scene></scene>
												<shottake>AA3140</shottake>
												<lognote></lognote>
											</logginginfo>
											<labels>
												<label2>Iris</label2>
											</labels>
										</clipitem>
										<enabled>TRUE</enabled>
										<locked>FALSE</locked>
										<outputchannelindex>2</outputchannelindex>
									</track>
									<track TL.SQTrackExpandedHeight="25" TL.SQTrackExpanded="0" MZ.TrackTargeted="1" PannerCurrentValue="0" PannerIsInverted="true" PannerStartKeyframe="-91445760000000000,0.,0,0,0,0,0,0" PannerName="Balance" currentExplodedTrackIndex="0" totalExplodedTrackCount="1" premiereTrackType="Stereo">
										<clipitem id="clipitem-1513" frameBlend="FALSE" PannerCurrentValue="0.5" PannerKeyframes="" PannerStartKeyframe="-91445760000000000,0.5,0,0,0,0,0,0" PannerIsInverted="true" PannerName="Pan">
											<masterclipid>masterclip-56</masterclipid>
											<name>AA315601.MXF</name>
											<enabled>TRUE</enabled>
											<duration>420</duration>
											<rate>
												<timebase>25</timebase>
												<ntsc>FALSE</ntsc>
											</rate>
											<start>2223</start>
											<end>2643</end>
											<in>0</in>
											<out>420</out>
											<file id="file-51"/>
											<sourcetrack>
												<mediatype>audio</mediatype>
												<trackindex>1</trackindex>
											</sourcetrack>
												<filter>
													<effect>
														<name>Audio Pan</name>
														<effectid>audiopan</effectid>
														<effectcategory>audiopan</effectcategory>
														<effecttype>audiopan</effecttype>
														<mediatype>audio</mediatype>
														<parameter authoringApp="PremierePro">
															<parameterid>pan</parameterid>
															<name>Pan</name>
															<valuemin>-1</valuemin>
															<valuemax>1</valuemax>
															<value>0</value>
														</parameter>
													</effect>
												</filter>
											<link>
												<linkclipref>clipitem-1509</linkclipref>
												<mediatype>video</mediatype>
												<trackindex>2</trackindex>
												<clipindex>1</clipindex>
											</link>
											<link>
												<linkclipref>clipitem-1513</linkclipref>
												<mediatype>audio</mediatype>
												<trackindex>3</trackindex>
												<clipindex>1</clipindex>
												<groupindex>1</groupindex>
											</link>
											<link>
												<linkclipref>clipitem-1514</linkclipref>
												<mediatype>audio</mediatype>
												<trackindex>4</trackindex>
												<clipindex>1</clipindex>
												<groupindex>1</groupindex>
											</link>
											<logginginfo>
												<description></description>
												<scene></scene>
												<shottake>AA3156</shottake>
												<lognote></lognote>
											</logginginfo>
											<labels>
												<label2>Iris</label2>
											</labels>
										</clipitem>
										<enabled>TRUE</enabled>
										<locked>FALSE</locked>
										<outputchannelindex>3</outputchannelindex>
									</track>
									<track TL.SQTrackExpandedHeight="25" TL.SQTrackExpanded="0" MZ.TrackTargeted="1" PannerCurrentValue="1." PannerIsInverted="true" PannerStartKeyframe="-91445760000000000,1.,0,0,0,0,0,0" PannerName="Balance" currentExplodedTrackIndex="0" totalExplodedTrackCount="1" premiereTrackType="Stereo">
										<clipitem id="clipitem-1514" frameBlend="FALSE" PannerCurrentValue="0.5" PannerKeyframes="" PannerStartKeyframe="-91445760000000000,0.5,0,0,0,0,0,0" PannerIsInverted="true" PannerName="Pan">
											<masterclipid>masterclip-56</masterclipid>
											<name>AA315601.MXF</name>
											<enabled>TRUE</enabled>
											<duration>420</duration>
											<rate>
												<timebase>25</timebase>
												<ntsc>FALSE</ntsc>
											</rate>
											<start>2223</start>
											<end>2643</end>
											<in>0</in>
											<out>420</out>
											<file id="file-51"/>
											<sourcetrack>
												<mediatype>audio</mediatype>
												<trackindex>1</trackindex>
											</sourcetrack>
												<filter>
													<effect>
														<name>Audio Pan</name>
														<effectid>audiopan</effectid>
														<effectcategory>audiopan</effectcategory>
														<effecttype>audiopan</effecttype>
														<mediatype>audio</mediatype>
														<parameter authoringApp="PremierePro">
															<parameterid>pan</parameterid>
															<name>Pan</name>
															<valuemin>-1</valuemin>
															<valuemax>1</valuemax>
															<value>0</value>
														</parameter>
													</effect>
												</filter>
											<link>
												<linkclipref>clipitem-1509</linkclipref>
												<mediatype>video</mediatype>
												<trackindex>2</trackindex>
												<clipindex>1</clipindex>
											</link>
											<link>
												<linkclipref>clipitem-1513</linkclipref>
												<mediatype>audio</mediatype>
												<trackindex>3</trackindex>
												<clipindex>1</clipindex>
												<groupindex>1</groupindex>
											</link>
											<link>
												<linkclipref>clipitem-1514</linkclipref>
												<mediatype>audio</mediatype>
												<trackindex>4</trackindex>
												<clipindex>1</clipindex>
												<groupindex>1</groupindex>
											</link>
											<logginginfo>
												<description></description>
												<scene></scene>
												<shottake>AA3156</shottake>
												<lognote></lognote>
											</logginginfo>
											<labels>
												<label2>Iris</label2>
											</labels>
										</clipitem>
										<enabled>TRUE</enabled>
										<locked>FALSE</locked>
										<outputchannelindex>4</outputchannelindex>
									</track>
									<track PannerCurrentValue="0" PannerIsInverted="true" PannerStartKeyframe="-91445760000000000,0.,0,0,0,0,0,0" PannerName="Balance" currentExplodedTrackIndex="0" totalExplodedTrackCount="1" premiereTrackType="Stereo">
										<clipitem id="clipitem-1515" frameBlend="FALSE" PannerCurrentValue="0.5" PannerKeyframes="" PannerStartKeyframe="-91445760000000000,0.5,0,0,0,0,0,0" PannerIsInverted="true" PannerName="Pan">
											<masterclipid>masterclip-65</masterclipid>
											<name>MVI_9559.MOV</name>
											<enabled>TRUE</enabled>
											<duration>3568</duration>
											<rate>
												<timebase>25</timebase>
												<ntsc>FALSE</ntsc>
											</rate>
											<start>0</start>
											<end>3568</end>
											<in>0</in>
											<out>3568</out>
											<file id="file-58"/>
											<sourcetrack>
												<mediatype>audio</mediatype>
												<trackindex>1</trackindex>
											</sourcetrack>
												<filter>
													<effect>
														<name>Audio Pan</name>
														<effectid>audiopan</effectid>
														<effectcategory>audiopan</effectcategory>
														<effecttype>audiopan</effecttype>
														<mediatype>audio</mediatype>
														<parameter authoringApp="PremierePro">
															<parameterid>pan</parameterid>
															<name>Pan</name>
															<valuemin>-1</valuemin>
															<valuemax>1</valuemax>
															<value>0</value>
														</parameter>
													</effect>
												</filter>
											<link>
												<linkclipref>clipitem-1510</linkclipref>
												<mediatype>video</mediatype>
												<trackindex>3</trackindex>
												<clipindex>1</clipindex>
											</link>
											<link>
												<linkclipref>clipitem-1515</linkclipref>
												<mediatype>audio</mediatype>
												<trackindex>5</trackindex>
												<clipindex>1</clipindex>
												<groupindex>1</groupindex>
											</link>
											<link>
												<linkclipref>clipitem-1516</linkclipref>
												<mediatype>audio</mediatype>
												<trackindex>6</trackindex>
												<clipindex>1</clipindex>
												<groupindex>1</groupindex>
											</link>
											<logginginfo>
												<description></description>
												<scene></scene>
												<shottake></shottake>
												<lognote></lognote>
											</logginginfo>
											<labels>
												<label2>Iris</label2>
											</labels>
										</clipitem>
										<enabled>TRUE</enabled>
										<locked>FALSE</locked>
										<outputchannelindex>5</outputchannelindex>
									</track>
									<track PannerCurrentValue="1." PannerIsInverted="true" PannerStartKeyframe="-91445760000000000,1.,0,0,0,0,0,0" PannerName="Balance" currentExplodedTrackIndex="0" totalExplodedTrackCount="1" premiereTrackType="Stereo">
										<clipitem id="clipitem-1516" frameBlend="FALSE" PannerCurrentValue="0.5" PannerKeyframes="" PannerStartKeyframe="-91445760000000000,0.5,0,0,0,0,0,0" PannerIsInverted="true" PannerName="Pan">
											<masterclipid>masterclip-65</masterclipid>
											<name>MVI_9559.MOV</name>
											<enabled>TRUE</enabled>
											<duration>3568</duration>
											<rate>
												<timebase>25</timebase>
												<ntsc>FALSE</ntsc>
											</rate>
											<start>0</start>
											<end>3568</end>
											<in>0</in>
											<out>3568</out>
											<file id="file-58"/>
											<sourcetrack>
												<mediatype>audio</mediatype>
												<trackindex>2</trackindex>
											</sourcetrack>
												<filter>
													<effect>
														<name>Audio Pan</name>
														<effectid>audiopan</effectid>
														<effectcategory>audiopan</effectcategory>
														<effecttype>audiopan</effecttype>
														<mediatype>audio</mediatype>
														<parameter authoringApp="PremierePro">
															<parameterid>pan</parameterid>
															<name>Pan</name>
															<valuemin>-1</valuemin>
															<valuemax>1</valuemax>
															<value>0</value>
														</parameter>
													</effect>
												</filter>
											<link>
												<linkclipref>clipitem-1510</linkclipref>
												<mediatype>video</mediatype>
												<trackindex>3</trackindex>
												<clipindex>1</clipindex>
											</link>
											<link>
												<linkclipref>clipitem-1515</linkclipref>
												<mediatype>audio</mediatype>
												<trackindex>5</trackindex>
												<clipindex>1</clipindex>
												<groupindex>1</groupindex>
											</link>
											<link>
												<linkclipref>clipitem-1516</linkclipref>
												<mediatype>audio</mediatype>
												<trackindex>6</trackindex>
												<clipindex>1</clipindex>
												<groupindex>1</groupindex>
											</link>
											<logginginfo>
												<description></description>
												<scene></scene>
												<shottake></shottake>
												<lognote></lognote>
											</logginginfo>
											<labels>
												<label2>Iris</label2>
											</labels>
										</clipitem>
										<enabled>TRUE</enabled>
										<locked>FALSE</locked>
										<outputchannelindex>6</outputchannelindex>
									</track>
								</audio>
							</media>
							<timecode>
								<rate>
									<timebase>25</timebase>
									<ntsc>FALSE</ntsc>
								</rate>
								<string>00:00:00:00</string>
								<frame>0</frame>
								<displayformat>NDF</displayformat>
							</timecode>
						</sequence>
						<link>
							<linkclipref>clipitem-501</linkclipref>
							<mediatype>video</mediatype>
							<trackindex>1</trackindex>
							<clipindex>80</clipindex>
						</link>
						<link>
							<linkclipref>clipitem-1507</linkclipref>
							<mediatype>audio</mediatype>
							<trackindex>5</trackindex>
							<clipindex>16</clipindex>
						</link>
						<link>
							<linkclipref>clipitem-1600</linkclipref>
							<mediatype>audio</mediatype>
							<trackindex>7</trackindex>
							<clipindex>16</clipindex>
						</link>
						<labels>
							<label2>Forest</label2>
						</labels>
					</clipitem>
					<clipitem id="clipitem-1517" frameBlend="FALSE">
						<masterclipid>masterclip-76</masterclipid>
						<name>MVI_9984.MOV</name>
						<enabled>TRUE</enabled>
						<duration>921</duration>
						<rate>
							<timebase>25</timebase>
							<ntsc>FALSE</ntsc>
						</rate>
						<start>12165</start>
						<end>12220</end>
						<in>81</in>
						<out>136</out>
						<file id="file-68"/>
						<sourcetrack>
							<mediatype>audio</mediatype>
							<trackindex>2</trackindex>
						</sourcetrack>
							<filter>
								<effect>
									<name>Audio Levels</name>
									<effectid>audiolevels</effectid>
									<effectcategory>audiolevels</effectcategory>
									<effecttype>audiolevels</effecttype>
									<mediatype>audio</mediatype>
									<parameter authoringApp="PremierePro">
										<parameterid>level</parameterid>
										<name>Level</name>
										<valuemin>0</valuemin>
										<valuemax>3.98109</valuemax>
										<value>0.332543</value>
									</parameter>
								</effect>
							</filter>
						<logginginfo>
							<description></description>
							<scene></scene>
							<shottake></shottake>
							<lognote></lognote>
						</logginginfo>
						<labels>
							<label2>Iris</label2>
						</labels>
					</clipitem>
					<clipitem id="clipitem-1518" frameBlend="FALSE">
						<masterclipid>masterclip-79</masterclipid>
						<name>AA008901.MXFthinfilm multi</name>
						<enabled>TRUE</enabled>
						<duration>1392</duration>
						<rate>
							<timebase>25</timebase>
							<ntsc>FALSE</ntsc>
						</rate>
						<start>12247</start>
						<end>12252</end>
						<in>92</in>
						<out>97</out>
						<sequence id="sequence-132" TL.SQAudioVisibleBase="0" TL.SQVideoVisibleBase="0" TL.SQVisibleBaseTime="0" TL.SQAVDividerPosition="0.5" TL.SQHideShyTracks="0" TL.SQHeaderWidth="188" Monitor.ProgramZoomOut="14143610880000" Monitor.ProgramZoomIn="0" TL.SQTimePerPixel="0.20000000000000001110223024625" AM.TrackVScrollPosition="0" AM.TrackScrollPosition="0" MZ.EditLine="8494295040000" MZ.Sequence.PreviewFrameSizeHeight="1080" MZ.Sequence.PreviewFrameSizeWidth="1920" MZ.Sequence.AudioTimeDisplayFormat="200" MZ.Sequence.PreviewRenderingClassID="1297106761" MZ.Sequence.PreviewRenderingPresetCodec="1297107278" MZ.Sequence.PreviewRenderingPresetPath="EncoderPresets/SequencePreview/795454d9-d3c2-429d-9474-923ab13b7018/I-Frame Only MPEG.epr" MZ.Sequence.PreviewUseMaxRenderQuality="false" MZ.Sequence.PreviewUseMaxBitDepth="false" MZ.Sequence.EditingModeGUID="795454d9-d3c2-429d-9474-923ab13b7018" MZ.Sequence.VideoTimeDisplayFormat="101" MZ.WorkOutPoint="15240960000000" MZ.WorkInPoint="0">
							<duration>1392</duration>
							<rate>
								<timebase>25</timebase>
								<ntsc>FALSE</ntsc>
							</rate>
							<name>AA008901.MXFthinfilm multi</name>
							<media>
								<video>
									<format>
										<samplecharacteristics>
											<rate>
												<timebase>25</timebase>
												<ntsc>FALSE</ntsc>
											</rate>
											<codec>
												<name>Apple ProRes 422</name>
												<appspecificdata>
													<appname>Final Cut Pro</appname>
													<appmanufacturer>Apple Inc.</appmanufacturer>
													<appversion>7.0</appversion>
													<data>
														<qtcodec>
															<codecname>Apple ProRes 422</codecname>
															<codectypename>Apple ProRes 422</codectypename>
															<codectypecode>apcn</codectypecode>
															<codecvendorcode>appl</codecvendorcode>
															<spatialquality>1024</spatialquality>
															<temporalquality>0</temporalquality>
															<keyframerate>0</keyframerate>
															<datarate>0</datarate>
														</qtcodec>
													</data>
												</appspecificdata>
											</codec>
											<width>1920</width>
											<height>1080</height>
											<anamorphic>FALSE</anamorphic>
											<pixelaspectratio>square</pixelaspectratio>
											<fielddominance>none</fielddominance>
											<colordepth>24</colordepth>
										</samplecharacteristics>
									</format>
									<track TL.SQTrackShy="0" TL.SQTrackExpandedHeight="25" TL.SQTrackExpanded="0" MZ.TrackTargeted="0">
										<clipitem id="clipitem-1519" frameBlend="FALSE">
											<masterclipid>masterclip-80</masterclipid>
											<name>AA008901.MXF</name>
											<enabled>TRUE</enabled>
											<duration>1392</duration>
											<rate>
												<timebase>25</timebase>
												<ntsc>FALSE</ntsc>
											</rate>
											<start>0</start>
											<end>1392</end>
											<in>0</in>
											<out>1392</out>
											<alphatype>none</alphatype>
											<file id="file-71"/>
											<link>
												<linkclipref>clipitem-1519</linkclipref>
												<mediatype>video</mediatype>
												<trackindex>1</trackindex>
												<clipindex>1</clipindex>
											</link>
											<link>
												<linkclipref>clipitem-1521</linkclipref>
												<mediatype>audio</mediatype>
												<trackindex>1</trackindex>
												<clipindex>1</clipindex>
												<groupindex>1</groupindex>
											</link>
											<link>
												<linkclipref>clipitem-1522</linkclipref>
												<mediatype>audio</mediatype>
												<trackindex>2</trackindex>
												<clipindex>1</clipindex>
												<groupindex>1</groupindex>
											</link>
											<logginginfo>
												<description></description>
												<scene></scene>
												<shottake>AA0089</shottake>
												<lognote></lognote>
											</logginginfo>
											<labels>
												<label2>Iris</label2>
											</labels>
										</clipitem>
										<enabled>TRUE</enabled>
										<locked>FALSE</locked>
									</track>
									<track TL.SQTrackShy="0" TL.SQTrackExpandedHeight="25" TL.SQTrackExpanded="0" MZ.TrackTargeted="0">
										<clipitem id="clipitem-1520" frameBlend="FALSE">
											<masterclipid>masterclip-81</masterclipid>
											<name>AA010501.MXF</name>
											<enabled>TRUE</enabled>
											<duration>492</duration>
											<rate>
												<timebase>25</timebase>
												<ntsc>FALSE</ntsc>
											</rate>
											<start>889</start>
											<end>1381</end>
											<in>0</in>
											<out>492</out>
											<alphatype>none</alphatype>
											<file id="file-72"/>
											<link>
												<linkclipref>clipitem-1520</linkclipref>
												<mediatype>video</mediatype>
												<trackindex>2</trackindex>
												<clipindex>1</clipindex>
											</link>
											<link>
												<linkclipref>clipitem-1523</linkclipref>
												<mediatype>audio</mediatype>
												<trackindex>3</trackindex>
												<clipindex>1</clipindex>
												<groupindex>1</groupindex>
											</link>
											<link>
												<linkclipref>clipitem-1524</linkclipref>
												<mediatype>audio</mediatype>
												<trackindex>4</trackindex>
												<clipindex>1</clipindex>
												<groupindex>1</groupindex>
											</link>
											<logginginfo>
												<description></description>
												<scene></scene>
												<shottake>AA0105</shottake>
												<lognote></lognote>
											</logginginfo>
											<labels>
												<label2>Iris</label2>
											</labels>
										</clipitem>
										<enabled>TRUE</enabled>
										<locked>FALSE</locked>
									</track>
								</video>
								<audio>
									<format>
										<samplecharacteristics>
											<depth>16</depth>
											<samplerate>48000</samplerate>
										</samplecharacteristics>
									</format>
									<outputs>
										<group>
											<index>1</index>
											<numchannels>1</numchannels>
											<downmix>0</downmix>
											<channel>
												<index>1</index>
											</channel>
										</group>
										<group>
											<index>2</index>
											<numchannels>1</numchannels>
											<downmix>0</downmix>
											<channel>
												<index>2</index>
											</channel>
										</group>
										<group>
											<index>3</index>
											<numchannels>1</numchannels>
											<downmix>0</downmix>
											<channel>
												<index>3</index>
											</channel>
										</group>
										<group>
											<index>4</index>
											<numchannels>1</numchannels>
											<downmix>0</downmix>
											<channel>
												<index>4</index>
											</channel>
										</group>
									</outputs>
									<track TL.SQTrackAudioKeyframeStyle="0" TL.SQTrackShy="0" TL.SQTrackExpandedHeight="25" TL.SQTrackExpanded="0" MZ.TrackTargeted="1" PannerCurrentValue="0.5" PannerIsInverted="true" PannerStartKeyframe="-91445760000000000,0.5,0,0,0,0,0,0" PannerName="Balance" currentExplodedTrackIndex="0" totalExplodedTrackCount="2" premiereTrackType="Stereo">
										<clipitem id="clipitem-1521" frameBlend="FALSE" PannerCurrentValue="0.5" PannerKeyframes="" PannerStartKeyframe="-91445760000000000,0.5,0,0,0,0,0,0" PannerIsInverted="true" PannerName="Balance">
											<masterclipid>masterclip-80</masterclipid>
											<name>AA008901.MXF</name>
											<enabled>TRUE</enabled>
											<duration>1392</duration>
											<rate>
												<timebase>25</timebase>
												<ntsc>FALSE</ntsc>
											</rate>
											<start>0</start>
											<end>1392</end>
											<in>0</in>
											<out>1392</out>
											<file id="file-71"/>
											<sourcetrack>
												<mediatype>audio</mediatype>
												<trackindex>1</trackindex>
											</sourcetrack>
												<filter>
													<effect>
														<name>Audio Pan</name>
														<effectid>audiopan</effectid>
														<effectcategory>audiopan</effectcategory>
														<effecttype>audiopan</effecttype>
														<mediatype>audio</mediatype>
														<parameter authoringApp="PremierePro">
															<parameterid>pan</parameterid>
															<name>Pan</name>
															<valuemin>-1</valuemin>
															<valuemax>1</valuemax>
															<value>0</value>
														</parameter>
													</effect>
												</filter>
											<link>
												<linkclipref>clipitem-1519</linkclipref>
												<mediatype>video</mediatype>
												<trackindex>1</trackindex>
												<clipindex>1</clipindex>
											</link>
											<link>
												<linkclipref>clipitem-1521</linkclipref>
												<mediatype>audio</mediatype>
												<trackindex>1</trackindex>
												<clipindex>1</clipindex>
												<groupindex>1</groupindex>
											</link>
											<link>
												<linkclipref>clipitem-1522</linkclipref>
												<mediatype>audio</mediatype>
												<trackindex>2</trackindex>
												<clipindex>1</clipindex>
												<groupindex>1</groupindex>
											</link>
											<logginginfo>
												<description></description>
												<scene></scene>
												<shottake>AA0089</shottake>
												<lognote></lognote>
											</logginginfo>
											<labels>
												<label2>Iris</label2>
											</labels>
										</clipitem>
										<enabled>TRUE</enabled>
										<locked>FALSE</locked>
										<outputchannelindex>1</outputchannelindex>
									</track>
									<track TL.SQTrackAudioKeyframeStyle="0" TL.SQTrackShy="0" TL.SQTrackExpandedHeight="25" TL.SQTrackExpanded="0" MZ.TrackTargeted="1" PannerCurrentValue="0.5" PannerIsInverted="true" PannerStartKeyframe="-91445760000000000,0.5,0,0,0,0,0,0" PannerName="Balance" currentExplodedTrackIndex="1" totalExplodedTrackCount="2" premiereTrackType="Stereo">
										<clipitem id="clipitem-1522" frameBlend="FALSE" PannerCurrentValue="0.5" PannerKeyframes="" PannerStartKeyframe="-91445760000000000,0.5,0,0,0,0,0,0" PannerIsInverted="true" PannerName="Balance">
											<masterclipid>masterclip-80</masterclipid>
											<name>AA008901.MXF</name>
											<enabled>TRUE</enabled>
											<duration>1392</duration>
											<rate>
												<timebase>25</timebase>
												<ntsc>FALSE</ntsc>
											</rate>
											<start>0</start>
											<end>1392</end>
											<in>0</in>
											<out>1392</out>
											<file id="file-71"/>
											<sourcetrack>
												<mediatype>audio</mediatype>
												<trackindex>2</trackindex>
											</sourcetrack>
												<filter>
													<effect>
														<name>Audio Pan</name>
														<effectid>audiopan</effectid>
														<effectcategory>audiopan</effectcategory>
														<effecttype>audiopan</effecttype>
														<mediatype>audio</mediatype>
														<parameter authoringApp="PremierePro">
															<parameterid>pan</parameterid>
															<name>Pan</name>
															<valuemin>-1</valuemin>
															<valuemax>1</valuemax>
															<value>0</value>
														</parameter>
													</effect>
												</filter>
											<link>
												<linkclipref>clipitem-1519</linkclipref>
												<mediatype>video</mediatype>
												<trackindex>1</trackindex>
												<clipindex>1</clipindex>
											</link>
											<link>
												<linkclipref>clipitem-1521</linkclipref>
												<mediatype>audio</mediatype>
												<trackindex>1</trackindex>
												<clipindex>1</clipindex>
												<groupindex>1</groupindex>
											</link>
											<link>
												<linkclipref>clipitem-1522</linkclipref>
												<mediatype>audio</mediatype>
												<trackindex>2</trackindex>
												<clipindex>1</clipindex>
												<groupindex>1</groupindex>
											</link>
											<logginginfo>
												<description></description>
												<scene></scene>
												<shottake>AA0089</shottake>
												<lognote></lognote>
											</logginginfo>
											<labels>
												<label2>Iris</label2>
											</labels>
										</clipitem>
										<enabled>TRUE</enabled>
										<locked>FALSE</locked>
										<outputchannelindex>2</outputchannelindex>
									</track>
									<track TL.SQTrackAudioKeyframeStyle="0" TL.SQTrackShy="0" TL.SQTrackExpandedHeight="25" TL.SQTrackExpanded="0" MZ.TrackTargeted="1" PannerCurrentValue="0.5" PannerIsInverted="true" PannerStartKeyframe="-91445760000000000,0.5,0,0,0,0,0,0" PannerName="Balance" currentExplodedTrackIndex="0" totalExplodedTrackCount="2" premiereTrackType="Stereo">
										<clipitem id="clipitem-1523" frameBlend="FALSE" PannerCurrentValue="0.5" PannerKeyframes="" PannerStartKeyframe="-91445760000000000,0.5,0,0,0,0,0,0" PannerIsInverted="true" PannerName="Balance">
											<masterclipid>masterclip-81</masterclipid>
											<name>AA010501.MXF</name>
											<enabled>TRUE</enabled>
											<duration>492</duration>
											<rate>
												<timebase>25</timebase>
												<ntsc>FALSE</ntsc>
											</rate>
											<start>889</start>
											<end>1381</end>
											<in>0</in>
											<out>492</out>
											<file id="file-72"/>
											<sourcetrack>
												<mediatype>audio</mediatype>
												<trackindex>1</trackindex>
											</sourcetrack>
												<filter>
													<effect>
														<name>Audio Pan</name>
														<effectid>audiopan</effectid>
														<effectcategory>audiopan</effectcategory>
														<effecttype>audiopan</effecttype>
														<mediatype>audio</mediatype>
														<parameter authoringApp="PremierePro">
															<parameterid>pan</parameterid>
															<name>Pan</name>
															<valuemin>-1</valuemin>
															<valuemax>1</valuemax>
															<value>0</value>
														</parameter>
													</effect>
												</filter>
											<link>
												<linkclipref>clipitem-1520</linkclipref>
												<mediatype>video</mediatype>
												<trackindex>2</trackindex>
												<clipindex>1</clipindex>
											</link>
											<link>
												<linkclipref>clipitem-1523</linkclipref>
												<mediatype>audio</mediatype>
												<trackindex>3</trackindex>
												<clipindex>1</clipindex>
												<groupindex>1</groupindex>
											</link>
											<link>
												<linkclipref>clipitem-1524</linkclipref>
												<mediatype>audio</mediatype>
												<trackindex>4</trackindex>
												<clipindex>1</clipindex>
												<groupindex>1</groupindex>
											</link>
											<logginginfo>
												<description></description>
												<scene></scene>
												<shottake>AA0105</shottake>
												<lognote></lognote>
											</logginginfo>
											<labels>
												<label2>Iris</label2>
											</labels>
										</clipitem>
										<enabled>TRUE</enabled>
										<locked>FALSE</locked>
										<outputchannelindex>3</outputchannelindex>
									</track>
									<track TL.SQTrackAudioKeyframeStyle="0" TL.SQTrackShy="0" TL.SQTrackExpandedHeight="25" TL.SQTrackExpanded="0" MZ.TrackTargeted="1" PannerCurrentValue="0.5" PannerIsInverted="true" PannerStartKeyframe="-91445760000000000,0.5,0,0,0,0,0,0" PannerName="Balance" currentExplodedTrackIndex="1" totalExplodedTrackCount="2" premiereTrackType="Stereo">
										<clipitem id="clipitem-1524" frameBlend="FALSE" PannerCurrentValue="0.5" PannerKeyframes="" PannerStartKeyframe="-91445760000000000,0.5,0,0,0,0,0,0" PannerIsInverted="true" PannerName="Balance">
											<masterclipid>masterclip-81</masterclipid>
											<name>AA010501.MXF</name>
											<enabled>TRUE</enabled>
											<duration>492</duration>
											<rate>
												<timebase>25</timebase>
												<ntsc>FALSE</ntsc>
											</rate>
											<start>889</start>
											<end>1381</end>
											<in>0</in>
											<out>492</out>
											<file id="file-72"/>
											<sourcetrack>
												<mediatype>audio</mediatype>
												<trackindex>2</trackindex>
											</sourcetrack>
												<filter>
													<effect>
														<name>Audio Pan</name>
														<effectid>audiopan</effectid>
														<effectcategory>audiopan</effectcategory>
														<effecttype>audiopan</effecttype>
														<mediatype>audio</mediatype>
														<parameter authoringApp="PremierePro">
															<parameterid>pan</parameterid>
															<name>Pan</name>
															<valuemin>-1</valuemin>
															<valuemax>1</valuemax>
															<value>0</value>
														</parameter>
													</effect>
												</filter>
											<link>
												<linkclipref>clipitem-1520</linkclipref>
												<mediatype>video</mediatype>
												<trackindex>2</trackindex>
												<clipindex>1</clipindex>
											</link>
											<link>
												<linkclipref>clipitem-1523</linkclipref>
												<mediatype>audio</mediatype>
												<trackindex>3</trackindex>
												<clipindex>1</clipindex>
												<groupindex>1</groupindex>
											</link>
											<link>
												<linkclipref>clipitem-1524</linkclipref>
												<mediatype>audio</mediatype>
												<trackindex>4</trackindex>
												<clipindex>1</clipindex>
												<groupindex>1</groupindex>
											</link>
											<logginginfo>
												<description></description>
												<scene></scene>
												<shottake>AA0105</shottake>
												<lognote></lognote>
											</logginginfo>
											<labels>
												<label2>Iris</label2>
											</labels>
										</clipitem>
										<enabled>TRUE</enabled>
										<locked>FALSE</locked>
										<outputchannelindex>4</outputchannelindex>
									</track>
								</audio>
							</media>
							<timecode>
								<rate>
									<timebase>25</timebase>
									<ntsc>FALSE</ntsc>
								</rate>
								<string>00:00:00:00</string>
								<frame>0</frame>
								<displayformat>NDF</displayformat>
							</timecode>
						</sequence>
							<filter>
								<effect>
									<name>Audio Levels</name>
									<effectid>audiolevels</effectid>
									<effectcategory>audiolevels</effectcategory>
									<effecttype>audiolevels</effecttype>
									<mediatype>audio</mediatype>
									<parameter authoringApp="PremierePro">
										<parameterid>level</parameterid>
										<name>Level</name>
										<valuemin>0</valuemin>
										<valuemax>3.98109</valuemax>
										<value>1.99526</value>
									</parameter>
								</effect>
							</filter>
						<labels>
							<label2>Forest</label2>
						</labels>
					</clipitem>
					<clipitem id="clipitem-1525" frameBlend="FALSE">
						<masterclipid>masterclip-79</masterclipid>
						<name>AA008901.MXFthinfilm multi</name>
						<enabled>TRUE</enabled>
						<duration>1392</duration>
						<rate>
							<timebase>25</timebase>
							<ntsc>FALSE</ntsc>
						</rate>
						<start>12252</start>
						<end>12254</end>
						<in>97</in>
						<out>99</out>
						<sequence id="sequence-132"/>
							<filter>
								<effect>
									<name>Audio Levels</name>
									<effectid>audiolevels</effectid>
									<effectcategory>audiolevels</effectcategory>
									<effecttype>audiolevels</effecttype>
									<mediatype>audio</mediatype>
									<parameter authoringApp="PremierePro">
										<parameterid>level</parameterid>
										<name>Level</name>
										<valuemin>0</valuemin>
										<valuemax>3.98109</valuemax>
										<value>1.99526</value>
									</parameter>
								</effect>
							</filter>
						<labels>
							<label2>Forest</label2>
						</labels>
					</clipitem>
					<clipitem id="clipitem-1526" frameBlend="FALSE">
						<masterclipid>masterclip-79</masterclipid>
						<name>AA008901.MXFthinfilm multi</name>
						<enabled>TRUE</enabled>
						<duration>1392</duration>
						<rate>
							<timebase>25</timebase>
							<ntsc>FALSE</ntsc>
						</rate>
						<start>12254</start>
						<end>12293</end>
						<in>162</in>
						<out>201</out>
						<sequence id="sequence-132"/>
							<filter>
								<effect>
									<name>Audio Levels</name>
									<effectid>audiolevels</effectid>
									<effectcategory>audiolevels</effectcategory>
									<effecttype>audiolevels</effecttype>
									<mediatype>audio</mediatype>
									<parameter authoringApp="PremierePro">
										<parameterid>level</parameterid>
										<name>Level</name>
										<valuemin>0</valuemin>
										<valuemax>3.98109</valuemax>
										<value>1.99526</value>
									</parameter>
								</effect>
							</filter>
						<labels>
							<label2>Forest</label2>
						</labels>
					</clipitem>
					<clipitem id="clipitem-1527" frameBlend="FALSE">
						<masterclipid>masterclip-79</masterclipid>
						<name>AA008901.MXFthinfilm multi</name>
						<enabled>TRUE</enabled>
						<duration>1392</duration>
						<rate>
							<timebase>25</timebase>
							<ntsc>FALSE</ntsc>
						</rate>
						<start>12293</start>
						<end>12375</end>
						<in>739</in>
						<out>821</out>
						<sequence id="sequence-132"/>
							<filter>
								<effect>
									<name>Audio Levels</name>
									<effectid>audiolevels</effectid>
									<effectcategory>audiolevels</effectcategory>
									<effecttype>audiolevels</effecttype>
									<mediatype>audio</mediatype>
									<parameter authoringApp="PremierePro">
										<parameterid>level</parameterid>
										<name>Level</name>
										<valuemin>0</valuemin>
										<valuemax>3.98109</valuemax>
										<value>1.99526</value>
									</parameter>
								</effect>
							</filter>
						<labels>
							<label2>Forest</label2>
						</labels>
					</clipitem>
					<clipitem id="clipitem-1528" frameBlend="FALSE">
						<masterclipid>masterclip-85</masterclipid>
						<name>MVI_0090.MOV</name>
						<enabled>TRUE</enabled>
						<duration>1932</duration>
						<rate>
							<timebase>25</timebase>
							<ntsc>FALSE</ntsc>
						</rate>
						<start>12857</start>
						<end>12974</end>
						<in>758</in>
						<out>875</out>
						<file id="file-76"/>
						<sourcetrack>
							<mediatype>audio</mediatype>
							<trackindex>1</trackindex>
						</sourcetrack>
							<filter>
								<effect>
									<name>Audio Levels</name>
									<effectid>audiolevels</effectid>
									<effectcategory>audiolevels</effectcategory>
									<effecttype>audiolevels</effecttype>
									<mediatype>audio</mediatype>
									<parameter authoringApp="PremierePro">
										<parameterid>level</parameterid>
										<name>Level</name>
										<valuemin>0</valuemin>
										<valuemax>3.98109</valuemax>
										<value>0.177406</value>
									</parameter>
								</effect>
							</filter>
						<link>
							<linkclipref>clipitem-545</linkclipref>
							<mediatype>video</mediatype>
							<trackindex>1</trackindex>
							<clipindex>105</clipindex>
						</link>
						<link>
							<linkclipref>clipitem-1528</linkclipref>
							<mediatype>audio</mediatype>
							<trackindex>5</trackindex>
							<clipindex>22</clipindex>
						</link>
						<link>
							<linkclipref>clipitem-1601</linkclipref>
							<mediatype>audio</mediatype>
							<trackindex>7</trackindex>
							<clipindex>17</clipindex>
						</link>
						<logginginfo>
							<description></description>
							<scene></scene>
							<shottake></shottake>
							<lognote></lognote>
						</logginginfo>
						<labels>
							<label2>Iris</label2>
						</labels>
					</clipitem>
					<clipitem id="clipitem-1529" frameBlend="FALSE">
						<masterclipid>masterclip-85</masterclipid>
						<name>MVI_0090.MOV</name>
						<enabled>TRUE</enabled>
						<duration>1932</duration>
						<rate>
							<timebase>25</timebase>
							<ntsc>FALSE</ntsc>
						</rate>
						<start>12974</start>
						<end>-1</end>
						<in>1760</in>
						<out>1852</out>
						<file id="file-76"/>
						<sourcetrack>
							<mediatype>audio</mediatype>
							<trackindex>1</trackindex>
						</sourcetrack>
							<filter>
								<effect>
									<name>Audio Levels</name>
									<effectid>audiolevels</effectid>
									<effectcategory>audiolevels</effectcategory>
									<effecttype>audiolevels</effecttype>
									<mediatype>audio</mediatype>
									<parameter authoringApp="PremierePro">
										<parameterid>level</parameterid>
										<name>Level</name>
										<valuemin>0</valuemin>
										<valuemax>3.98109</valuemax>
										<value>0.125594</value>
									</parameter>
								</effect>
							</filter>
						<link>
							<linkclipref>clipitem-546</linkclipref>
							<mediatype>video</mediatype>
							<trackindex>1</trackindex>
							<clipindex>106</clipindex>
						</link>
						<link>
							<linkclipref>clipitem-1529</linkclipref>
							<mediatype>audio</mediatype>
							<trackindex>5</trackindex>
							<clipindex>23</clipindex>
						</link>
						<link>
							<linkclipref>clipitem-1602</linkclipref>
							<mediatype>audio</mediatype>
							<trackindex>7</trackindex>
							<clipindex>18</clipindex>
						</link>
						<logginginfo>
							<description></description>
							<scene></scene>
							<shottake></shottake>
							<lognote></lognote>
						</logginginfo>
						<labels>
							<label2>Iris</label2>
						</labels>
					</clipitem>
					<transitionitem>
						<start>13030</start>
						<end>13066</end>
						<alignment>end-black</alignment>
						<cutPoint>36</cutPoint>
						<rate>
							<timebase>25</timebase>
							<ntsc>FALSE</ntsc>
						</rate>
						<effect>
							<name>Cross Fade (+3dB)</name>
							<effectid>KGAudioTransCrossFade3dB</effectid>
							<effecttype>transition</effecttype>
							<mediatype>audio</mediatype>
							<wipecode>0</wipecode>
							<wipeaccuracy>100</wipeaccuracy>
							<startratio>0</startratio>
							<endratio>1</endratio>
							<reverse>FALSE</reverse>
						</effect>
					</transitionitem>
					<clipitem id="clipitem-1530" frameBlend="FALSE">
						<masterclipid>masterclip-90</masterclipid>
						<name>AA021101.MXF</name>
						<enabled>TRUE</enabled>
						<duration>576</duration>
						<rate>
							<timebase>25</timebase>
							<ntsc>FALSE</ntsc>
						</rate>
						<start>13301</start>
						<end>13373</end>
						<in>291</in>
						<out>363</out>
						<file id="file-80"/>
						<sourcetrack>
							<mediatype>audio</mediatype>
							<trackindex>1</trackindex>
						</sourcetrack>
							<filter>
								<effect>
									<name>Audio Levels</name>
									<effectid>audiolevels</effectid>
									<effectcategory>audiolevels</effectcategory>
									<effecttype>audiolevels</effecttype>
									<mediatype>audio</mediatype>
									<parameter authoringApp="PremierePro">
										<parameterid>level</parameterid>
										<name>Level</name>
										<valuemin>0</valuemin>
										<valuemax>3.98109</valuemax>
										<value>0.353972</value>
									</parameter>
								</effect>
							</filter>
						<logginginfo>
							<description></description>
							<scene></scene>
							<shottake>AA0211</shottake>
							<lognote></lognote>
						</logginginfo>
						<labels>
							<label2>Iris</label2>
						</labels>
					</clipitem>
					<clipitem id="clipitem-1531" frameBlend="FALSE">
						<masterclipid>masterclip-91</masterclipid>
						<name>AA016701.MXF</name>
						<enabled>TRUE</enabled>
						<duration>7344</duration>
						<rate>
							<timebase>25</timebase>
							<ntsc>FALSE</ntsc>
						</rate>
						<start>13373</start>
						<end>13457</end>
						<in>1514</in>
						<out>1598</out>
						<file id="file-81"/>
						<sourcetrack>
							<mediatype>audio</mediatype>
							<trackindex>1</trackindex>
						</sourcetrack>
							<filter>
								<effect>
									<name>Audio Levels</name>
									<effectid>audiolevels</effectid>
									<effectcategory>audiolevels</effectcategory>
									<effecttype>audiolevels</effecttype>
									<mediatype>audio</mediatype>
									<parameter authoringApp="PremierePro">
										<parameterid>level</parameterid>
										<name>Level</name>
										<valuemin>0</valuemin>
										<valuemax>3.98109</valuemax>
										<value>0.353972</value>
									</parameter>
								</effect>
							</filter>
						<link>
							<linkclipref>clipitem-557</linkclipref>
							<mediatype>video</mediatype>
							<trackindex>1</trackindex>
							<clipindex>111</clipindex>
						</link>
						<link>
							<linkclipref>clipitem-1531</linkclipref>
							<mediatype>audio</mediatype>
							<trackindex>5</trackindex>
							<clipindex>26</clipindex>
						</link>
						<link>
							<linkclipref>clipitem-1604</linkclipref>
							<mediatype>audio</mediatype>
							<trackindex>7</trackindex>
							<clipindex>21</clipindex>
						</link>
						<logginginfo>
							<description></description>
							<scene></scene>
							<shottake>AA0167</shottake>
							<lognote></lognote>
						</logginginfo>
						<labels>
							<label2>Iris</label2>
						</labels>
					</clipitem>
					<clipitem id="clipitem-1532" frameBlend="FALSE">
						<masterclipid>masterclip-91</masterclipid>
						<name>AA016701.MXF</name>
						<enabled>TRUE</enabled>
						<duration>7344</duration>
						<rate>
							<timebase>25</timebase>
							<ntsc>FALSE</ntsc>
						</rate>
						<start>13457</start>
						<end>13579</end>
						<in>1967</in>
						<out>2089</out>
						<file id="file-81"/>
						<sourcetrack>
							<mediatype>audio</mediatype>
							<trackindex>1</trackindex>
						</sourcetrack>
							<filter>
								<effect>
									<name>Audio Levels</name>
									<effectid>audiolevels</effectid>
									<effectcategory>audiolevels</effectcategory>
									<effecttype>audiolevels</effecttype>
									<mediatype>audio</mediatype>
									<parameter authoringApp="PremierePro">
										<parameterid>level</parameterid>
										<name>Level</name>
										<valuemin>0</valuemin>
										<valuemax>3.98109</valuemax>
										<value>0.445625</value>
									</parameter>
								</effect>
							</filter>
						<link>
							<linkclipref>clipitem-558</linkclipref>
							<mediatype>video</mediatype>
							<trackindex>1</trackindex>
							<clipindex>112</clipindex>
						</link>
						<link>
							<linkclipref>clipitem-1532</linkclipref>
							<mediatype>audio</mediatype>
							<trackindex>5</trackindex>
							<clipindex>27</clipindex>
						</link>
						<link>
							<linkclipref>clipitem-1605</linkclipref>
							<mediatype>audio</mediatype>
							<trackindex>7</trackindex>
							<clipindex>22</clipindex>
						</link>
						<logginginfo>
							<description></description>
							<scene></scene>
							<shottake>AA0167</shottake>
							<lognote></lognote>
						</logginginfo>
						<labels>
							<label2>Iris</label2>
						</labels>
					</clipitem>
					<clipitem id="clipitem-1533" frameBlend="FALSE">
						<masterclipid>masterclip-105</masterclipid>
						<name>AA018801.MXF</name>
						<enabled>TRUE</enabled>
						<duration>5628</duration>
						<rate>
							<timebase>25</timebase>
							<ntsc>FALSE</ntsc>
						</rate>
						<start>15642</start>
						<end>15784</end>
						<in>2799</in>
						<out>2941</out>
						<file id="file-93"/>
						<sourcetrack>
							<mediatype>audio</mediatype>
							<trackindex>1</trackindex>
						</sourcetrack>
							<filter>
								<effect>
									<name>Audio Levels</name>
									<effectid>audiolevels</effectid>
									<effectcategory>audiolevels</effectcategory>
									<effecttype>audiolevels</effecttype>
									<mediatype>audio</mediatype>
									<parameter authoringApp="PremierePro">
										<parameterid>level</parameterid>
										<name>Level</name>
										<valuemin>0</valuemin>
										<valuemax>3.98109</valuemax>
										<value>0.0792446</value>
									</parameter>
								</effect>
							</filter>
						<link>
							<linkclipref>clipitem-599</linkclipref>
							<mediatype>video</mediatype>
							<trackindex>1</trackindex>
							<clipindex>135</clipindex>
						</link>
						<link>
							<linkclipref>clipitem-1533</linkclipref>
							<mediatype>audio</mediatype>
							<trackindex>5</trackindex>
							<clipindex>28</clipindex>
						</link>
						<link>
							<linkclipref>clipitem-1610</linkclipref>
							<mediatype>audio</mediatype>
							<trackindex>7</trackindex>
							<clipindex>27</clipindex>
						</link>
						<logginginfo>
							<description></description>
							<scene></scene>
							<shottake>AA0188</shottake>
							<lognote></lognote>
						</logginginfo>
						<labels>
							<label2>Iris</label2>
						</labels>
					</clipitem>
					<clipitem id="clipitem-1534" frameBlend="FALSE">
						<masterclipid>masterclip-107</masterclipid>
						<name>AA019501.MXF</name>
						<enabled>TRUE</enabled>
						<duration>312</duration>
						<rate>
							<timebase>25</timebase>
							<ntsc>FALSE</ntsc>
						</rate>
						<start>15784</start>
						<end>15891</end>
						<in>146</in>
						<out>253</out>
						<file id="file-95"/>
						<sourcetrack>
							<mediatype>audio</mediatype>
							<trackindex>1</trackindex>
						</sourcetrack>
							<filter>
								<effect>
									<name>Audio Levels</name>
									<effectid>audiolevels</effectid>
									<effectcategory>audiolevels</effectcategory>
									<effecttype>audiolevels</effecttype>
									<mediatype>audio</mediatype>
									<parameter authoringApp="PremierePro">
										<parameterid>level</parameterid>
										<name>Level</name>
										<valuemin>0</valuemin>
										<valuemax>3.98109</valuemax>
										<value>0.0792446</value>
									</parameter>
								</effect>
							</filter>
						<link>
							<linkclipref>clipitem-1534</linkclipref>
							<mediatype>audio</mediatype>
							<trackindex>5</trackindex>
							<clipindex>29</clipindex>
						</link>
						<link>
							<linkclipref>clipitem-1611</linkclipref>
							<mediatype>audio</mediatype>
							<trackindex>7</trackindex>
							<clipindex>28</clipindex>
						</link>
						<logginginfo>
							<description></description>
							<scene></scene>
							<shottake>AA0195</shottake>
							<lognote></lognote>
						</logginginfo>
						<labels>
							<label2>Iris</label2>
						</labels>
					</clipitem>
					<clipitem id="clipitem-1535" frameBlend="FALSE">
						<masterclipid>masterclip-108</masterclipid>
						<name>MVI_0398.MOV</name>
						<enabled>TRUE</enabled>
						<duration>926</duration>
						<rate>
							<timebase>25</timebase>
							<ntsc>FALSE</ntsc>
						</rate>
						<start>15891</start>
						<end>15958</end>
						<in>554</in>
						<out>621</out>
						<file id="file-96"/>
						<sourcetrack>
							<mediatype>audio</mediatype>
							<trackindex>1</trackindex>
						</sourcetrack>
							<filter>
								<effect>
									<name>Audio Levels</name>
									<effectid>audiolevels</effectid>
									<effectcategory>audiolevels</effectcategory>
									<effecttype>audiolevels</effecttype>
									<mediatype>audio</mediatype>
									<parameter authoringApp="PremierePro">
										<parameterid>level</parameterid>
										<name>Level</name>
										<valuemin>0</valuemin>
										<valuemax>3.98109</valuemax>
										<value>0.0223342</value>
									</parameter>
								</effect>
							</filter>
						<link>
							<linkclipref>clipitem-601</linkclipref>
							<mediatype>video</mediatype>
							<trackindex>1</trackindex>
							<clipindex>137</clipindex>
						</link>
						<link>
							<linkclipref>clipitem-1535</linkclipref>
							<mediatype>audio</mediatype>
							<trackindex>5</trackindex>
							<clipindex>30</clipindex>
						</link>
						<logginginfo>
							<description></description>
							<scene></scene>
							<shottake></shottake>
							<lognote></lognote>
						</logginginfo>
						<labels>
							<label2>Iris</label2>
						</labels>
					</clipitem>
					<clipitem id="clipitem-1536" frameBlend="FALSE">
						<masterclipid>masterclip-108</masterclipid>
						<name>MVI_0398.MOV</name>
						<enabled>TRUE</enabled>
						<duration>926</duration>
						<rate>
							<timebase>25</timebase>
							<ntsc>FALSE</ntsc>
						</rate>
						<start>15958</start>
						<end>16035</end>
						<in>833</in>
						<out>910</out>
						<file id="file-96"/>
						<sourcetrack>
							<mediatype>audio</mediatype>
							<trackindex>1</trackindex>
						</sourcetrack>
							<filter>
								<effect>
									<name>Audio Levels</name>
									<effectid>audiolevels</effectid>
									<effectcategory>audiolevels</effectcategory>
									<effecttype>audiolevels</effecttype>
									<mediatype>audio</mediatype>
									<parameter authoringApp="PremierePro">
										<parameterid>level</parameterid>
										<name>Level</name>
										<valuemin>0</valuemin>
										<valuemax>3.98109</valuemax>
										<value>0.028117</value>
									</parameter>
								</effect>
							</filter>
						<link>
							<linkclipref>clipitem-602</linkclipref>
							<mediatype>video</mediatype>
							<trackindex>1</trackindex>
							<clipindex>138</clipindex>
						</link>
						<link>
							<linkclipref>clipitem-1536</linkclipref>
							<mediatype>audio</mediatype>
							<trackindex>5</trackindex>
							<clipindex>31</clipindex>
						</link>
						<logginginfo>
							<description></description>
							<scene></scene>
							<shottake></shottake>
							<lognote></lognote>
						</logginginfo>
						<labels>
							<label2>Iris</label2>
						</labels>
					</clipitem>
					<clipitem id="clipitem-1537" frameBlend="FALSE">
						<masterclipid>masterclip-109</masterclipid>
						<name>MVI_0400.MOV</name>
						<enabled>TRUE</enabled>
						<duration>1914</duration>
						<rate>
							<timebase>25</timebase>
							<ntsc>FALSE</ntsc>
						</rate>
						<start>16035</start>
						<end>16107</end>
						<in>345</in>
						<out>417</out>
						<file id="file-97"/>
						<sourcetrack>
							<mediatype>audio</mediatype>
							<trackindex>1</trackindex>
						</sourcetrack>
							<filter>
								<effect>
									<name>Audio Levels</name>
									<effectid>audiolevels</effectid>
									<effectcategory>audiolevels</effectcategory>
									<effecttype>audiolevels</effecttype>
									<mediatype>audio</mediatype>
									<parameter authoringApp="PremierePro">
										<parameterid>level</parameterid>
										<name>Level</name>
										<valuemin>0</valuemin>
										<valuemax>3.98109</valuemax>
										<value>0.0792446</value>
									</parameter>
								</effect>
							</filter>
						<logginginfo>
							<description></description>
							<scene></scene>
							<shottake></shottake>
							<lognote></lognote>
						</logginginfo>
						<labels>
							<label2>Iris</label2>
						</labels>
					</clipitem>
					<clipitem id="clipitem-1538" frameBlend="FALSE">
						<masterclipid>masterclip-111</masterclipid>
						<name>MVI_0458.MOV</name>
						<enabled>TRUE</enabled>
						<duration>10499</duration>
						<rate>
							<timebase>25</timebase>
							<ntsc>FALSE</ntsc>
						</rate>
						<start>16293</start>
						<end>16519</end>
						<in>1718</in>
						<out>1944</out>
						<file id="file-99"/>
						<sourcetrack>
							<mediatype>audio</mediatype>
							<trackindex>2</trackindex>
						</sourcetrack>
							<filter>
								<effect>
									<name>Audio Levels</name>
									<effectid>audiolevels</effectid>
									<effectcategory>audiolevels</effectcategory>
									<effecttype>audiolevels</effecttype>
									<mediatype>audio</mediatype>
									<parameter authoringApp="PremierePro">
										<parameterid>level</parameterid>
										<name>Level</name>
										<valuemin>0</valuemin>
										<valuemax>3.98109</valuemax>
										<value>0.628903</value>
									</parameter>
								</effect>
							</filter>
						<logginginfo>
							<description></description>
							<scene></scene>
							<shottake></shottake>
							<lognote></lognote>
						</logginginfo>
						<labels>
							<label2>Iris</label2>
						</labels>
					</clipitem>
					<clipitem id="clipitem-1539" frameBlend="FALSE">
						<masterclipid>masterclip-111</masterclipid>
						<name>MVI_0458.MOV</name>
						<enabled>TRUE</enabled>
						<duration>10499</duration>
						<rate>
							<timebase>25</timebase>
							<ntsc>FALSE</ntsc>
						</rate>
						<start>16978</start>
						<end>17059</end>
						<in>9770</in>
						<out>9851</out>
						<file id="file-99"/>
						<sourcetrack>
							<mediatype>audio</mediatype>
							<trackindex>2</trackindex>
						</sourcetrack>
						<logginginfo>
							<description></description>
							<scene></scene>
							<shottake></shottake>
							<lognote></lognote>
						</logginginfo>
						<labels>
							<label2>Iris</label2>
						</labels>
					</clipitem>
					<clipitem id="clipitem-1540" frameBlend="FALSE">
						<masterclipid>masterclip-111</masterclipid>
						<name>MVI_0458.MOV</name>
						<enabled>TRUE</enabled>
						<duration>10499</duration>
						<rate>
							<timebase>25</timebase>
							<ntsc>FALSE</ntsc>
						</rate>
						<start>17326</start>
						<end>17552</end>
						<in>1718</in>
						<out>1944</out>
						<file id="file-99"/>
						<sourcetrack>
							<mediatype>audio</mediatype>
							<trackindex>2</trackindex>
						</sourcetrack>
							<filter>
								<effect>
									<name>Audio Levels</name>
									<effectid>audiolevels</effectid>
									<effectcategory>audiolevels</effectcategory>
									<effecttype>audiolevels</effecttype>
									<mediatype>audio</mediatype>
									<parameter authoringApp="PremierePro">
										<parameterid>level</parameterid>
										<name>Level</name>
										<valuemin>0</valuemin>
										<valuemax>3.98109</valuemax>
										<value>0.888349</value>
									</parameter>
								</effect>
							</filter>
						<logginginfo>
							<description></description>
							<scene></scene>
							<shottake></shottake>
							<lognote></lognote>
						</logginginfo>
						<labels>
							<label2>Iris</label2>
						</labels>
					</clipitem>
					<clipitem id="clipitem-1541" frameBlend="FALSE">
						<masterclipid>masterclip-111</masterclipid>
						<name>MVI_0458.MOV</name>
						<enabled>TRUE</enabled>
						<duration>10499</duration>
						<rate>
							<timebase>25</timebase>
							<ntsc>FALSE</ntsc>
						</rate>
						<start>17552</start>
						<end>17692</end>
						<in>1718</in>
						<out>1858</out>
						<file id="file-99"/>
						<sourcetrack>
							<mediatype>audio</mediatype>
							<trackindex>2</trackindex>
						</sourcetrack>
							<filter>
								<effect>
									<name>Audio Levels</name>
									<effectid>audiolevels</effectid>
									<effectcategory>audiolevels</effectcategory>
									<effecttype>audiolevels</effecttype>
									<mediatype>audio</mediatype>
									<parameter authoringApp="PremierePro">
										<parameterid>level</parameterid>
										<name>Level</name>
										<valuemin>0</valuemin>
										<valuemax>3.98109</valuemax>
										<value>0.996744</value>
									</parameter>
								</effect>
							</filter>
						<logginginfo>
							<description></description>
							<scene></scene>
							<shottake></shottake>
							<lognote></lognote>
						</logginginfo>
						<labels>
							<label2>Iris</label2>
						</labels>
					</clipitem>
					<clipitem id="clipitem-1542" frameBlend="FALSE">
						<masterclipid>masterclip-109</masterclipid>
						<name>MVI_0400.MOV</name>
						<enabled>TRUE</enabled>
						<duration>1914</duration>
						<rate>
							<timebase>25</timebase>
							<ntsc>FALSE</ntsc>
						</rate>
						<start>18191</start>
						<end>18329</end>
						<in>785</in>
						<out>923</out>
						<file id="file-97"/>
						<sourcetrack>
							<mediatype>audio</mediatype>
							<trackindex>1</trackindex>
						</sourcetrack>
							<filter>
								<effect>
									<name>Audio Levels</name>
									<effectid>audiolevels</effectid>
									<effectcategory>audiolevels</effectcategory>
									<effecttype>audiolevels</effecttype>
									<mediatype>audio</mediatype>
									<parameter authoringApp="PremierePro">
										<parameterid>level</parameterid>
										<name>Level</name>
										<valuemin>0</valuemin>
										<valuemax>3.98109</valuemax>
										<value>0.258064</value>
									</parameter>
								</effect>
							</filter>
						<link>
							<linkclipref>clipitem-622</linkclipref>
							<mediatype>video</mediatype>
							<trackindex>1</trackindex>
							<clipindex>158</clipindex>
						</link>
						<link>
							<linkclipref>clipitem-1542</linkclipref>
							<mediatype>audio</mediatype>
							<trackindex>5</trackindex>
							<clipindex>37</clipindex>
						</link>
						<link>
							<linkclipref>clipitem-1613</linkclipref>
							<mediatype>audio</mediatype>
							<trackindex>7</trackindex>
							<clipindex>30</clipindex>
						</link>
						<logginginfo>
							<description></description>
							<scene></scene>
							<shottake></shottake>
							<lognote></lognote>
						</logginginfo>
						<labels>
							<label2>Iris</label2>
						</labels>
					</clipitem>
					<clipitem id="clipitem-1543" frameBlend="FALSE">
						<masterclipid>masterclip-117</masterclipid>
						<name>MVI_0416.MOV</name>
						<enabled>TRUE</enabled>
						<duration>274</duration>
						<rate>
							<timebase>25</timebase>
							<ntsc>FALSE</ntsc>
						</rate>
						<start>18329</start>
						<end>18475</end>
						<in>115</in>
						<out>261</out>
						<file id="file-105"/>
						<sourcetrack>
							<mediatype>audio</mediatype>
							<trackindex>1</trackindex>
						</sourcetrack>
							<filter>
								<effect>
									<name>Audio Levels</name>
									<effectid>audiolevels</effectid>
									<effectcategory>audiolevels</effectcategory>
									<effecttype>audiolevels</effecttype>
									<mediatype>audio</mediatype>
									<parameter authoringApp="PremierePro">
										<parameterid>level</parameterid>
										<name>Level</name>
										<valuemin>0</valuemin>
										<valuemax>3.98109</valuemax>
										<value>0.315478</value>
									</parameter>
								</effect>
							</filter>
						<link>
							<linkclipref>clipitem-623</linkclipref>
							<mediatype>video</mediatype>
							<trackindex>1</trackindex>
							<clipindex>159</clipindex>
						</link>
						<link>
							<linkclipref>clipitem-1543</linkclipref>
							<mediatype>audio</mediatype>
							<trackindex>5</trackindex>
							<clipindex>38</clipindex>
						</link>
						<link>
							<linkclipref>clipitem-1614</linkclipref>
							<mediatype>audio</mediatype>
							<trackindex>7</trackindex>
							<clipindex>31</clipindex>
						</link>
						<logginginfo>
							<description></description>
							<scene></scene>
							<shottake></shottake>
							<lognote></lognote>
						</logginginfo>
						<labels>
							<label2>Iris</label2>
						</labels>
					</clipitem>
					<clipitem id="clipitem-1544" frameBlend="FALSE">
						<masterclipid>masterclip-118</masterclipid>
						<name>MVI_0424.MOV</name>
						<enabled>TRUE</enabled>
						<duration>354</duration>
						<rate>
							<timebase>25</timebase>
							<ntsc>FALSE</ntsc>
						</rate>
						<start>18475</start>
						<end>18555</end>
						<in>192</in>
						<out>272</out>
						<file id="file-106"/>
						<sourcetrack>
							<mediatype>audio</mediatype>
							<trackindex>1</trackindex>
						</sourcetrack>
							<filter>
								<effect>
									<name>Audio Levels</name>
									<effectid>audiolevels</effectid>
									<effectcategory>audiolevels</effectcategory>
									<effecttype>audiolevels</effecttype>
									<mediatype>audio</mediatype>
									<parameter authoringApp="PremierePro">
										<parameterid>level</parameterid>
										<name>Level</name>
										<valuemin>0</valuemin>
										<valuemax>3.98109</valuemax>
										<value>0.140919</value>
									</parameter>
								</effect>
							</filter>
						<logginginfo>
							<description></description>
							<scene></scene>
							<shottake></shottake>
							<lognote></lognote>
						</logginginfo>
						<labels>
							<label2>Iris</label2>
						</labels>
					</clipitem>
					<clipitem id="clipitem-1545" frameBlend="FALSE">
						<masterclipid>masterclip-119</masterclipid>
						<name>MVI_0423.MOV</name>
						<enabled>TRUE</enabled>
						<duration>851</duration>
						<rate>
							<timebase>25</timebase>
							<ntsc>FALSE</ntsc>
						</rate>
						<start>18555</start>
						<end>18616</end>
						<in>92</in>
						<out>153</out>
						<file id="file-107"/>
						<sourcetrack>
							<mediatype>audio</mediatype>
							<trackindex>1</trackindex>
						</sourcetrack>
							<filter>
								<effect>
									<name>Audio Levels</name>
									<effectid>audiolevels</effectid>
									<effectcategory>audiolevels</effectcategory>
									<effecttype>audiolevels</effecttype>
									<mediatype>audio</mediatype>
									<parameter authoringApp="PremierePro">
										<parameterid>level</parameterid>
										<name>Level</name>
										<valuemin>0</valuemin>
										<valuemax>3.98109</valuemax>
										<value>0.140919</value>
									</parameter>
								</effect>
							</filter>
						<link>
							<linkclipref>clipitem-1545</linkclipref>
							<mediatype>audio</mediatype>
							<trackindex>5</trackindex>
							<clipindex>40</clipindex>
						</link>
						<link>
							<linkclipref>clipitem-1616</linkclipref>
							<mediatype>audio</mediatype>
							<trackindex>7</trackindex>
							<clipindex>33</clipindex>
						</link>
						<logginginfo>
							<description></description>
							<scene></scene>
							<shottake></shottake>
							<lognote></lognote>
						</logginginfo>
						<labels>
							<label2>Iris</label2>
						</labels>
					</clipitem>
					<clipitem id="clipitem-1546" frameBlend="FALSE">
						<masterclipid>masterclip-120</masterclipid>
						<name>MVI_0433.MOV</name>
						<enabled>TRUE</enabled>
						<duration>502</duration>
						<rate>
							<timebase>25</timebase>
							<ntsc>FALSE</ntsc>
						</rate>
						<start>18616</start>
						<end>18645</end>
						<in>205</in>
						<out>234</out>
						<file id="file-108"/>
						<sourcetrack>
							<mediatype>audio</mediatype>
							<trackindex>1</trackindex>
						</sourcetrack>
							<filter>
								<effect>
									<name>Audio Levels</name>
									<effectid>audiolevels</effectid>
									<effectcategory>audiolevels</effectcategory>
									<effecttype>audiolevels</effecttype>
									<mediatype>audio</mediatype>
									<parameter authoringApp="PremierePro">
										<parameterid>level</parameterid>
										<name>Level</name>
										<valuemin>0</valuemin>
										<valuemax>3.98109</valuemax>
										<value>0.140919</value>
									</parameter>
								</effect>
							</filter>
						<link>
							<linkclipref>clipitem-1546</linkclipref>
							<mediatype>audio</mediatype>
							<trackindex>5</trackindex>
							<clipindex>41</clipindex>
						</link>
						<link>
							<linkclipref>clipitem-1617</linkclipref>
							<mediatype>audio</mediatype>
							<trackindex>7</trackindex>
							<clipindex>34</clipindex>
						</link>
						<logginginfo>
							<description></description>
							<scene></scene>
							<shottake></shottake>
							<lognote></lognote>
						</logginginfo>
						<labels>
							<label2>Iris</label2>
						</labels>
					</clipitem>
					<clipitem id="clipitem-1547" frameBlend="FALSE">
						<masterclipid>masterclip-120</masterclipid>
						<name>MVI_0433.MOV</name>
						<enabled>TRUE</enabled>
						<duration>502</duration>
						<rate>
							<timebase>25</timebase>
							<ntsc>FALSE</ntsc>
						</rate>
						<start>18645</start>
						<end>18744</end>
						<in>266</in>
						<out>365</out>
						<file id="file-108"/>
						<sourcetrack>
							<mediatype>audio</mediatype>
							<trackindex>1</trackindex>
						</sourcetrack>
							<filter>
								<effect>
									<name>Audio Levels</name>
									<effectid>audiolevels</effectid>
									<effectcategory>audiolevels</effectcategory>
									<effecttype>audiolevels</effecttype>
									<mediatype>audio</mediatype>
									<parameter authoringApp="PremierePro">
										<parameterid>level</parameterid>
										<name>Level</name>
										<valuemin>0</valuemin>
										<valuemax>3.98109</valuemax>
										<value>0.140919</value>
									</parameter>
								</effect>
							</filter>
						<link>
							<linkclipref>clipitem-626</linkclipref>
							<mediatype>video</mediatype>
							<trackindex>1</trackindex>
							<clipindex>162</clipindex>
						</link>
						<link>
							<linkclipref>clipitem-1547</linkclipref>
							<mediatype>audio</mediatype>
							<trackindex>5</trackindex>
							<clipindex>42</clipindex>
						</link>
						<link>
							<linkclipref>clipitem-1618</linkclipref>
							<mediatype>audio</mediatype>
							<trackindex>7</trackindex>
							<clipindex>35</clipindex>
						</link>
						<logginginfo>
							<description></description>
							<scene></scene>
							<shottake></shottake>
							<lognote></lognote>
						</logginginfo>
						<labels>
							<label2>Iris</label2>
						</labels>
					</clipitem>
					<clipitem id="clipitem-1548" frameBlend="FALSE">
						<masterclipid>masterclip-121</masterclipid>
						<name>MVI_0425.MOV</name>
						<enabled>TRUE</enabled>
						<duration>198</duration>
						<rate>
							<timebase>25</timebase>
							<ntsc>FALSE</ntsc>
						</rate>
						<start>18744</start>
						<end>18811</end>
						<in>28</in>
						<out>95</out>
						<file id="file-109"/>
						<sourcetrack>
							<mediatype>audio</mediatype>
							<trackindex>1</trackindex>
						</sourcetrack>
							<filter>
								<effect>
									<name>Audio Levels</name>
									<effectid>audiolevels</effectid>
									<effectcategory>audiolevels</effectcategory>
									<effecttype>audiolevels</effecttype>
									<mediatype>audio</mediatype>
									<parameter authoringApp="PremierePro">
										<parameterid>level</parameterid>
										<name>Level</name>
										<valuemin>0</valuemin>
										<valuemax>3.98109</valuemax>
										<value>0.125594</value>
									</parameter>
								</effect>
							</filter>
						<link>
							<linkclipref>clipitem-627</linkclipref>
							<mediatype>video</mediatype>
							<trackindex>1</trackindex>
							<clipindex>163</clipindex>
						</link>
						<link>
							<linkclipref>clipitem-1548</linkclipref>
							<mediatype>audio</mediatype>
							<trackindex>5</trackindex>
							<clipindex>43</clipindex>
						</link>
						<link>
							<linkclipref>clipitem-1619</linkclipref>
							<mediatype>audio</mediatype>
							<trackindex>7</trackindex>
							<clipindex>36</clipindex>
						</link>
						<logginginfo>
							<description></description>
							<scene></scene>
							<shottake></shottake>
							<lognote></lognote>
						</logginginfo>
						<labels>
							<label2>Iris</label2>
						</labels>
					</clipitem>
					<clipitem id="clipitem-1549" frameBlend="FALSE">
						<masterclipid>masterclip-129</masterclipid>
						<name>MVI_0396.MOV</name>
						<enabled>TRUE</enabled>
						<duration>717</duration>
						<rate>
							<timebase>25</timebase>
							<ntsc>FALSE</ntsc>
						</rate>
						<start>20438</start>
						<end>20671</end>
						<in>200</in>
						<out>433</out>
						<file id="file-117"/>
						<sourcetrack>
							<mediatype>audio</mediatype>
							<trackindex>1</trackindex>
						</sourcetrack>
							<filter>
								<effect>
									<name>Audio Levels</name>
									<effectid>audiolevels</effectid>
									<effectcategory>audiolevels</effectcategory>
									<effecttype>audiolevels</effecttype>
									<mediatype>audio</mediatype>
									<parameter authoringApp="PremierePro">
										<parameterid>level</parameterid>
										<name>Level</name>
										<valuemin>0</valuemin>
										<valuemax>3.98109</valuemax>
										<value>0.0792446</value>
									</parameter>
								</effect>
							</filter>
						<link>
							<linkclipref>clipitem-642</linkclipref>
							<mediatype>video</mediatype>
							<trackindex>1</trackindex>
							<clipindex>178</clipindex>
						</link>
						<link>
							<linkclipref>clipitem-1549</linkclipref>
							<mediatype>audio</mediatype>
							<trackindex>5</trackindex>
							<clipindex>44</clipindex>
						</link>
						<link>
							<linkclipref>clipitem-1620</linkclipref>
							<mediatype>audio</mediatype>
							<trackindex>7</trackindex>
							<clipindex>37</clipindex>
						</link>
						<logginginfo>
							<description></description>
							<scene></scene>
							<shottake></shottake>
							<lognote></lognote>
						</logginginfo>
						<labels>
							<label2>Iris</label2>
						</labels>
					</clipitem>
					<clipitem id="clipitem-1550" frameBlend="FALSE">
						<masterclipid>masterclip-129</masterclipid>
						<name>MVI_0396.MOV</name>
						<enabled>TRUE</enabled>
						<duration>717</duration>
						<rate>
							<timebase>25</timebase>
							<ntsc>FALSE</ntsc>
						</rate>
						<start>20671</start>
						<end>-1</end>
						<in>530</in>
						<out>675</out>
						<file id="file-117"/>
						<sourcetrack>
							<mediatype>audio</mediatype>
							<trackindex>1</trackindex>
						</sourcetrack>
							<filter>
								<effect>
									<name>Audio Levels</name>
									<effectid>audiolevels</effectid>
									<effectcategory>audiolevels</effectcategory>
									<effecttype>audiolevels</effecttype>
									<mediatype>audio</mediatype>
									<parameter authoringApp="PremierePro">
										<parameterid>level</parameterid>
										<name>Level</name>
										<valuemin>0</valuemin>
										<valuemax>3.98109</valuemax>
										<value>0.0660168</value>
									</parameter>
								</effect>
							</filter>
						<link>
							<linkclipref>clipitem-643</linkclipref>
							<mediatype>video</mediatype>
							<trackindex>1</trackindex>
							<clipindex>179</clipindex>
						</link>
						<link>
							<linkclipref>clipitem-1550</linkclipref>
							<mediatype>audio</mediatype>
							<trackindex>5</trackindex>
							<clipindex>45</clipindex>
						</link>
						<link>
							<linkclipref>clipitem-1621</linkclipref>
							<mediatype>audio</mediatype>
							<trackindex>7</trackindex>
							<clipindex>38</clipindex>
						</link>
						<logginginfo>
							<description></description>
							<scene></scene>
							<shottake></shottake>
							<lognote></lognote>
						</logginginfo>
						<labels>
							<label2>Iris</label2>
						</labels>
					</clipitem>
					<transitionitem>
						<start>20803</start>
						<end>20816</end>
						<alignment>end-black</alignment>
						<cutPoint>13</cutPoint>
						<rate>
							<timebase>25</timebase>
							<ntsc>FALSE</ntsc>
						</rate>
						<effect>
							<name>Cross Fade (+3dB)</name>
							<effectid>KGAudioTransCrossFade3dB</effectid>
							<effecttype>transition</effecttype>
							<mediatype>audio</mediatype>
							<wipecode>0</wipecode>
							<wipeaccuracy>100</wipeaccuracy>
							<startratio>0</startratio>
							<endratio>1</endratio>
							<reverse>FALSE</reverse>
						</effect>
					</transitionitem>
					<clipitem id="clipitem-1551" frameBlend="FALSE">
						<masterclipid>masterclip-136</masterclipid>
						<name>AA015401.MXF</name>
						<enabled>TRUE</enabled>
						<duration>1908</duration>
						<rate>
							<timebase>25</timebase>
							<ntsc>FALSE</ntsc>
						</rate>
						<start>21445</start>
						<end>21577</end>
						<in>699</in>
						<out>831</out>
						<file id="file-123"/>
						<sourcetrack>
							<mediatype>audio</mediatype>
							<trackindex>1</trackindex>
						</sourcetrack>
							<filter>
								<effect>
									<name>Audio Levels</name>
									<effectid>audiolevels</effectid>
									<effectcategory>audiolevels</effectcategory>
									<effecttype>audiolevels</effecttype>
									<mediatype>audio</mediatype>
									<parameter authoringApp="PremierePro">
										<parameterid>level</parameterid>
										<name>Level</name>
										<valuemin>0</valuemin>
										<valuemax>3.98109</valuemax>
										<value>0.706268</value>
									</parameter>
								</effect>
							</filter>
						<link>
							<linkclipref>clipitem-660</linkclipref>
							<mediatype>video</mediatype>
							<trackindex>1</trackindex>
							<clipindex>187</clipindex>
						</link>
						<link>
							<linkclipref>clipitem-1551</linkclipref>
							<mediatype>audio</mediatype>
							<trackindex>5</trackindex>
							<clipindex>47</clipindex>
						</link>
						<link>
							<linkclipref>clipitem-1622</linkclipref>
							<mediatype>audio</mediatype>
							<trackindex>7</trackindex>
							<clipindex>40</clipindex>
						</link>
						<logginginfo>
							<description></description>
							<scene></scene>
							<shottake>AA0154</shottake>
							<lognote></lognote>
						</logginginfo>
						<labels>
							<label2>Iris</label2>
						</labels>
					</clipitem>
					<clipitem id="clipitem-1552" frameBlend="FALSE">
						<masterclipid>masterclip-136</masterclipid>
						<name>AA015401.MXF</name>
						<enabled>TRUE</enabled>
						<duration>1908</duration>
						<rate>
							<timebase>25</timebase>
							<ntsc>FALSE</ntsc>
						</rate>
						<start>21577</start>
						<end>21708</end>
						<in>699</in>
						<out>830</out>
						<file id="file-123"/>
						<sourcetrack>
							<mediatype>audio</mediatype>
							<trackindex>1</trackindex>
						</sourcetrack>
							<filter>
								<effect>
									<name>Audio Levels</name>
									<effectid>audiolevels</effectid>
									<effectcategory>audiolevels</effectcategory>
									<effecttype>audiolevels</effecttype>
									<mediatype>audio</mediatype>
									<parameter authoringApp="PremierePro">
										<parameterid>level</parameterid>
										<name>Level</name>
										<valuemin>0</valuemin>
										<valuemax>3.98109</valuemax>
										<value>0.499999</value>
									</parameter>
								</effect>
							</filter>
						<link>
							<linkclipref>clipitem-1552</linkclipref>
							<mediatype>audio</mediatype>
							<trackindex>5</trackindex>
							<clipindex>48</clipindex>
						</link>
						<link>
							<linkclipref>clipitem-1623</linkclipref>
							<mediatype>audio</mediatype>
							<trackindex>7</trackindex>
							<clipindex>41</clipindex>
						</link>
						<logginginfo>
							<description></description>
							<scene></scene>
							<shottake>AA0154</shottake>
							<lognote></lognote>
						</logginginfo>
						<labels>
							<label2>Iris</label2>
						</labels>
					</clipitem>
					<clipitem id="clipitem-1553" frameBlend="FALSE">
						<masterclipid>masterclip-135</masterclipid>
						<name>MVI_0071.MOV</name>
						<enabled>TRUE</enabled>
						<duration>2132</duration>
						<rate>
							<timebase>25</timebase>
							<ntsc>FALSE</ntsc>
						</rate>
						<start>21708</start>
						<end>21830</end>
						<in>665</in>
						<out>787</out>
						<file id="file-122"/>
						<sourcetrack>
							<mediatype>audio</mediatype>
							<trackindex>1</trackindex>
						</sourcetrack>
							<filter>
								<effect>
									<name>Audio Levels</name>
									<effectid>audiolevels</effectid>
									<effectcategory>audiolevels</effectcategory>
									<effecttype>audiolevels</effecttype>
									<mediatype>audio</mediatype>
									<parameter authoringApp="PremierePro">
										<parameterid>level</parameterid>
										<name>Level</name>
										<valuemin>0</valuemin>
										<valuemax>3.98109</valuemax>
										<value>0.0555998</value>
									</parameter>
								</effect>
							</filter>
						<link>
							<linkclipref>clipitem-662</linkclipref>
							<mediatype>video</mediatype>
							<trackindex>1</trackindex>
							<clipindex>189</clipindex>
						</link>
						<link>
							<linkclipref>clipitem-1553</linkclipref>
							<mediatype>audio</mediatype>
							<trackindex>5</trackindex>
							<clipindex>49</clipindex>
						</link>
						<link>
							<linkclipref>clipitem-1624</linkclipref>
							<mediatype>audio</mediatype>
							<trackindex>7</trackindex>
							<clipindex>42</clipindex>
						</link>
						<logginginfo>
							<description></description>
							<scene></scene>
							<shottake></shottake>
							<lognote></lognote>
						</logginginfo>
						<labels>
							<label2>Iris</label2>
						</labels>
					</clipitem>
					<clipitem id="clipitem-1554" frameBlend="FALSE">
						<masterclipid>masterclip-136</masterclipid>
						<name>AA015401.MXF</name>
						<enabled>TRUE</enabled>
						<duration>1908</duration>
						<rate>
							<timebase>25</timebase>
							<ntsc>FALSE</ntsc>
						</rate>
						<start>22161</start>
						<end>22292</end>
						<in>699</in>
						<out>830</out>
						<file id="file-123"/>
						<sourcetrack>
							<mediatype>audio</mediatype>
							<trackindex>1</trackindex>
						</sourcetrack>
							<filter>
								<effect>
									<name>Audio Levels</name>
									<effectid>audiolevels</effectid>
									<effectcategory>audiolevels</effectcategory>
									<effecttype>audiolevels</effecttype>
									<mediatype>audio</mediatype>
									<parameter authoringApp="PremierePro">
										<parameterid>level</parameterid>
										<name>Level</name>
										<valuemin>0</valuemin>
										<valuemax>3.98109</valuemax>
										<value>0.499999</value>
									</parameter>
								</effect>
							</filter>
						<link>
							<linkclipref>clipitem-1554</linkclipref>
							<mediatype>audio</mediatype>
							<trackindex>5</trackindex>
							<clipindex>50</clipindex>
						</link>
						<link>
							<linkclipref>clipitem-1625</linkclipref>
							<mediatype>audio</mediatype>
							<trackindex>7</trackindex>
							<clipindex>43</clipindex>
						</link>
						<logginginfo>
							<description></description>
							<scene></scene>
							<shottake>AA0154</shottake>
							<lognote></lognote>
						</logginginfo>
						<labels>
							<label2>Iris</label2>
						</labels>
					</clipitem>
					<clipitem id="clipitem-1555" frameBlend="FALSE">
						<masterclipid>masterclip-165</masterclipid>
						<name>AA049201.MXF</name>
						<enabled>TRUE</enabled>
						<duration>528</duration>
						<rate>
							<timebase>25</timebase>
							<ntsc>FALSE</ntsc>
						</rate>
						<start>24778</start>
						<end>24935</end>
						<in>172</in>
						<out>329</out>
						<file id="file-146"/>
						<sourcetrack>
							<mediatype>audio</mediatype>
							<trackindex>1</trackindex>
						</sourcetrack>
							<filter>
								<effect>
									<name>Audio Levels</name>
									<effectid>audiolevels</effectid>
									<effectcategory>audiolevels</effectcategory>
									<effecttype>audiolevels</effecttype>
									<mediatype>audio</mediatype>
									<parameter authoringApp="PremierePro">
										<parameterid>level</parameterid>
										<name>Level</name>
										<valuemin>0</valuemin>
										<valuemax>3.98109</valuemax>
										<value>0.499999</value>
									</parameter>
								</effect>
							</filter>
						<link>
							<linkclipref>clipitem-746</linkclipref>
							<mediatype>video</mediatype>
							<trackindex>1</trackindex>
							<clipindex>214</clipindex>
						</link>
						<link>
							<linkclipref>clipitem-1555</linkclipref>
							<mediatype>audio</mediatype>
							<trackindex>5</trackindex>
							<clipindex>51</clipindex>
						</link>
						<link>
							<linkclipref>clipitem-1626</linkclipref>
							<mediatype>audio</mediatype>
							<trackindex>7</trackindex>
							<clipindex>44</clipindex>
						</link>
						<logginginfo>
							<description></description>
							<scene></scene>
							<shottake>AA0492</shottake>
							<lognote></lognote>
						</logginginfo>
						<labels>
							<label2>Iris</label2>
						</labels>
					</clipitem>
					<transitionitem>
						<start>25079</start>
						<end>25148</end>
						<alignment>start-black</alignment>
						<cutPoint>0</cutPoint>
						<rate>
							<timebase>25</timebase>
							<ntsc>FALSE</ntsc>
						</rate>
						<effect>
							<name>Cross Fade (+3dB)</name>
							<effectid>KGAudioTransCrossFade3dB</effectid>
							<effecttype>transition</effecttype>
							<mediatype>audio</mediatype>
							<wipecode>0</wipecode>
							<wipeaccuracy>100</wipeaccuracy>
							<startratio>0</startratio>
							<endratio>1</endratio>
							<reverse>FALSE</reverse>
						</effect>
					</transitionitem>
					<clipitem id="clipitem-1556" frameBlend="FALSE">
						<masterclipid>masterclip-279</masterclipid>
						<name>AA048601.MXF</name>
						<enabled>TRUE</enabled>
						<duration>744</duration>
						<rate>
							<timebase>25</timebase>
							<ntsc>FALSE</ntsc>
						</rate>
						<start>-1</start>
						<end>-1</end>
						<in>0</in>
						<out>425</out>
						<pixelaspectratio>square</pixelaspectratio>
						<anamorphic>FALSE</anamorphic>
						<file id="file-252">
							<name>AA048601.MXF</name>
							<pathurl>file://localhost/Volumes/Brakka/AdobeLager/Katta/Katta-14xxxx-Smart_eller_overvaaket-Chris/02-Video/Datatilsynet%20Case%20C300/CONTENTS/CLIPS001/AA0486/AA048601.MXF</pathurl>
							<rate>
								<timebase>25</timebase>
								<ntsc>FALSE</ntsc>
							</rate>
							<duration>744</duration>
							<timecode>
								<rate>
									<timebase>25</timebase>
									<ntsc>FALSE</ntsc>
								</rate>
								<string>10:20:46:02</string>
								<frame>931152</frame>
								<displayformat>NDF</displayformat>
								<reel>
									<name></name>
								</reel>
							</timecode>
							<media>
								<video>
									<duration>18000</duration>
									<samplecharacteristics>
										<rate>
											<timebase>25</timebase>
											<ntsc>FALSE</ntsc>
										</rate>
										<width>1920</width>
										<height>1080</height>
										<anamorphic>FALSE</anamorphic>
										<pixelaspectratio>square</pixelaspectratio>
										<fielddominance>none</fielddominance>
									</samplecharacteristics>
								</video>
								<audio>
									<samplecharacteristics>
										<depth>16</depth>
										<samplerate>48000</samplerate>
									</samplecharacteristics>
									<channelcount>1</channelcount>
									<layout>mono</layout>
									<audiochannel>
										<sourcechannel>1</sourcechannel>
										<channellabel>discrete</channellabel>
									</audiochannel>
								</audio>
								<audio>
									<samplecharacteristics>
										<depth>16</depth>
										<samplerate>48000</samplerate>
									</samplecharacteristics>
									<channelcount>1</channelcount>
									<layout>mono</layout>
									<audiochannel>
										<sourcechannel>2</sourcechannel>
										<channellabel>discrete</channellabel>
									</audiochannel>
								</audio>
							</media>
						</file>
						<sourcetrack>
							<mediatype>audio</mediatype>
							<trackindex>1</trackindex>
						</sourcetrack>
							<filter>
								<effect>
									<name>Audio Levels</name>
									<effectid>audiolevels</effectid>
									<effectcategory>audiolevels</effectcategory>
									<effecttype>audiolevels</effecttype>
									<mediatype>audio</mediatype>
									<parameter authoringApp="PremierePro">
										<parameterid>level</parameterid>
										<name>Level</name>
										<valuemin>0</valuemin>
										<valuemax>3.98109</valuemax>
										<value>1.25594</value>
									</parameter>
								</effect>
							</filter>
						<link>
							<linkclipref>clipitem-1556</linkclipref>
							<mediatype>audio</mediatype>
							<trackindex>5</trackindex>
							<clipindex>53</clipindex>
						</link>
						<link>
							<linkclipref>clipitem-1627</linkclipref>
							<mediatype>audio</mediatype>
							<trackindex>7</trackindex>
							<clipindex>46</clipindex>
						</link>
						<logginginfo>
							<description></description>
							<scene></scene>
							<shottake>AA0486</shottake>
							<lognote></lognote>
						</logginginfo>
						<labels>
							<label2>Iris</label2>
						</labels>
					</clipitem>
					<transitionitem>
						<start>25449</start>
						<end>25504</end>
						<alignment>end-black</alignment>
						<cutPoint>55</cutPoint>
						<rate>
							<timebase>25</timebase>
							<ntsc>FALSE</ntsc>
						</rate>
						<effect>
							<name>Cross Fade (+3dB)</name>
							<effectid>KGAudioTransCrossFade3dB</effectid>
							<effecttype>transition</effecttype>
							<mediatype>audio</mediatype>
							<wipecode>0</wipecode>
							<wipeaccuracy>100</wipeaccuracy>
							<startratio>0</startratio>
							<endratio>1</endratio>
							<reverse>FALSE</reverse>
						</effect>
					</transitionitem>
					<transitionitem>
						<start>25912</start>
						<end>25933</end>
						<alignment>start-black</alignment>
						<cutPoint>0</cutPoint>
						<rate>
							<timebase>25</timebase>
							<ntsc>FALSE</ntsc>
						</rate>
						<effect>
							<name>Cross Fade (+3dB)</name>
							<effectid>KGAudioTransCrossFade3dB</effectid>
							<effecttype>transition</effecttype>
							<mediatype>audio</mediatype>
							<wipecode>0</wipecode>
							<wipeaccuracy>100</wipeaccuracy>
							<startratio>0</startratio>
							<endratio>1</endratio>
							<reverse>FALSE</reverse>
						</effect>
					</transitionitem>
					<clipitem id="clipitem-1557" frameBlend="FALSE">
						<masterclipid>masterclip-279</masterclipid>
						<name>AA048601.MXF</name>
						<enabled>TRUE</enabled>
						<duration>744</duration>
						<rate>
							<timebase>25</timebase>
							<ntsc>FALSE</ntsc>
						</rate>
						<start>-1</start>
						<end>-1</end>
						<in>28</in>
						<out>117</out>
						<file id="file-252"/>
						<sourcetrack>
							<mediatype>audio</mediatype>
							<trackindex>1</trackindex>
						</sourcetrack>
							<filter>
								<effect>
									<name>Audio Levels</name>
									<effectid>audiolevels</effectid>
									<effectcategory>audiolevels</effectcategory>
									<effecttype>audiolevels</effecttype>
									<mediatype>audio</mediatype>
									<parameter authoringApp="PremierePro">
										<parameterid>level</parameterid>
										<name>Level</name>
										<valuemin>0</valuemin>
										<valuemax>3.98109</valuemax>
										<value>1.25594</value>
									</parameter>
								</effect>
							</filter>
						<link>
							<linkclipref>clipitem-1557</linkclipref>
							<mediatype>audio</mediatype>
							<trackindex>5</trackindex>
							<clipindex>56</clipindex>
						</link>
						<link>
							<linkclipref>clipitem-1628</linkclipref>
							<mediatype>audio</mediatype>
							<trackindex>7</trackindex>
							<clipindex>49</clipindex>
						</link>
						<logginginfo>
							<description></description>
							<scene></scene>
							<shottake>AA0486</shottake>
							<lognote></lognote>
						</logginginfo>
						<labels>
							<label2>Iris</label2>
						</labels>
					</clipitem>
					<transitionitem>
						<start>25981</start>
						<end>26001</end>
						<alignment>end-black</alignment>
						<cutPoint>20</cutPoint>
						<rate>
							<timebase>25</timebase>
							<ntsc>FALSE</ntsc>
						</rate>
						<effect>
							<name>Cross Fade (+3dB)</name>
							<effectid>KGAudioTransCrossFade3dB</effectid>
							<effecttype>transition</effecttype>
							<mediatype>audio</mediatype>
							<wipecode>0</wipecode>
							<wipeaccuracy>100</wipeaccuracy>
							<startratio>0</startratio>
							<endratio>1</endratio>
							<reverse>FALSE</reverse>
						</effect>
					</transitionitem>
					<clipitem id="clipitem-1558" frameBlend="FALSE">
						<masterclipid>masterclip-174</masterclipid>
						<name>SNOWDEN-ASYL-100613-DR1900.mxf</name>
						<enabled>TRUE</enabled>
						<duration>2947</duration>
						<rate>
							<timebase>25</timebase>
							<ntsc>FALSE</ntsc>
						</rate>
						<start>27253</start>
						<end>27334</end>
						<in>2866</in>
						<out>2947</out>
						<file id="file-154"/>
						<sourcetrack>
							<mediatype>audio</mediatype>
							<trackindex>3</trackindex>
						</sourcetrack>
						<link>
							<linkclipref>clipitem-768</linkclipref>
							<mediatype>video</mediatype>
							<trackindex>1</trackindex>
							<clipindex>228</clipindex>
						</link>
						<link>
							<linkclipref>clipitem-1558</linkclipref>
							<mediatype>audio</mediatype>
							<trackindex>5</trackindex>
							<clipindex>58</clipindex>
						</link>
						<link>
							<linkclipref>clipitem-1629</linkclipref>
							<mediatype>audio</mediatype>
							<trackindex>7</trackindex>
							<clipindex>51</clipindex>
						</link>
						<logginginfo>
							<description></description>
							<scene></scene>
							<shottake></shottake>
							<lognote></lognote>
						</logginginfo>
						<labels>
							<label2>Iris</label2>
						</labels>
					</clipitem>
					<clipitem id="clipitem-1559" frameBlend="FALSE">
						<masterclipid>masterclip-174</masterclipid>
						<name>SNOWDEN-ASYL-100613-DR1900.mxf</name>
						<enabled>TRUE</enabled>
						<duration>2947</duration>
						<rate>
							<timebase>25</timebase>
							<ntsc>FALSE</ntsc>
						</rate>
						<start>27334</start>
						<end>27420</end>
						<in>120</in>
						<out>206</out>
						<file id="file-154"/>
						<sourcetrack>
							<mediatype>audio</mediatype>
							<trackindex>3</trackindex>
						</sourcetrack>
						<link>
							<linkclipref>clipitem-769</linkclipref>
							<mediatype>video</mediatype>
							<trackindex>1</trackindex>
							<clipindex>229</clipindex>
						</link>
						<link>
							<linkclipref>clipitem-1559</linkclipref>
							<mediatype>audio</mediatype>
							<trackindex>5</trackindex>
							<clipindex>59</clipindex>
						</link>
						<link>
							<linkclipref>clipitem-1630</linkclipref>
							<mediatype>audio</mediatype>
							<trackindex>7</trackindex>
							<clipindex>52</clipindex>
						</link>
						<logginginfo>
							<description></description>
							<scene></scene>
							<shottake></shottake>
							<lognote></lognote>
						</logginginfo>
						<labels>
							<label2>Iris</label2>
						</labels>
					</clipitem>
					<clipitem id="clipitem-1560" frameBlend="FALSE">
						<masterclipid>masterclip-174</masterclipid>
						<name>SNOWDEN-ASYL-100613-DR1900.mxf</name>
						<enabled>TRUE</enabled>
						<duration>2947</duration>
						<rate>
							<timebase>25</timebase>
							<ntsc>FALSE</ntsc>
						</rate>
						<start>27420</start>
						<end>27517</end>
						<in>307</in>
						<out>404</out>
						<file id="file-154"/>
						<sourcetrack>
							<mediatype>audio</mediatype>
							<trackindex>3</trackindex>
						</sourcetrack>
						<link>
							<linkclipref>clipitem-770</linkclipref>
							<mediatype>video</mediatype>
							<trackindex>1</trackindex>
							<clipindex>230</clipindex>
						</link>
						<link>
							<linkclipref>clipitem-1560</linkclipref>
							<mediatype>audio</mediatype>
							<trackindex>5</trackindex>
							<clipindex>60</clipindex>
						</link>
						<link>
							<linkclipref>clipitem-1631</linkclipref>
							<mediatype>audio</mediatype>
							<trackindex>7</trackindex>
							<clipindex>53</clipindex>
						</link>
						<logginginfo>
							<description></description>
							<scene></scene>
							<shottake></shottake>
							<lognote></lognote>
						</logginginfo>
						<labels>
							<label2>Iris</label2>
						</labels>
					</clipitem>
					<clipitem id="clipitem-1561" frameBlend="FALSE">
						<masterclipid>masterclip-174</masterclipid>
						<name>SNOWDEN-ASYL-100613-DR1900.mxf</name>
						<enabled>TRUE</enabled>
						<duration>2947</duration>
						<rate>
							<timebase>25</timebase>
							<ntsc>FALSE</ntsc>
						</rate>
						<start>27517</start>
						<end>27567</end>
						<in>1321</in>
						<out>1371</out>
						<file id="file-154"/>
						<sourcetrack>
							<mediatype>audio</mediatype>
							<trackindex>3</trackindex>
						</sourcetrack>
						<link>
							<linkclipref>clipitem-771</linkclipref>
							<mediatype>video</mediatype>
							<trackindex>1</trackindex>
							<clipindex>231</clipindex>
						</link>
						<link>
							<linkclipref>clipitem-1561</linkclipref>
							<mediatype>audio</mediatype>
							<trackindex>5</trackindex>
							<clipindex>61</clipindex>
						</link>
						<link>
							<linkclipref>clipitem-1632</linkclipref>
							<mediatype>audio</mediatype>
							<trackindex>7</trackindex>
							<clipindex>54</clipindex>
						</link>
						<logginginfo>
							<description></description>
							<scene></scene>
							<shottake></shottake>
							<lognote></lognote>
						</logginginfo>
						<labels>
							<label2>Iris</label2>
						</labels>
					</clipitem>
					<clipitem id="clipitem-1562" frameBlend="FALSE">
						<masterclipid>masterclip-174</masterclipid>
						<name>SNOWDEN-ASYL-100613-DR1900.mxf</name>
						<enabled>TRUE</enabled>
						<duration>2947</duration>
						<rate>
							<timebase>25</timebase>
							<ntsc>FALSE</ntsc>
						</rate>
						<start>27567</start>
						<end>27655</end>
						<in>365</in>
						<out>453</out>
						<file id="file-154"/>
						<sourcetrack>
							<mediatype>audio</mediatype>
							<trackindex>3</trackindex>
						</sourcetrack>
							<filter>
								<effect>
									<name>Audio Levels</name>
									<effectid>audiolevels</effectid>
									<effectcategory>audiolevels</effectcategory>
									<effecttype>audiolevels</effecttype>
									<mediatype>audio</mediatype>
									<parameter authoringApp="PremierePro">
										<parameterid>level</parameterid>
										<name>Level</name>
										<valuemin>0</valuemin>
										<valuemax>3.98109</valuemax>
										<value>1.23237</value>
									</parameter>
								</effect>
							</filter>
						<link>
							<linkclipref>clipitem-772</linkclipref>
							<mediatype>video</mediatype>
							<trackindex>1</trackindex>
							<clipindex>232</clipindex>
						</link>
						<link>
							<linkclipref>clipitem-1562</linkclipref>
							<mediatype>audio</mediatype>
							<trackindex>5</trackindex>
							<clipindex>62</clipindex>
						</link>
						<link>
							<linkclipref>clipitem-1633</linkclipref>
							<mediatype>audio</mediatype>
							<trackindex>7</trackindex>
							<clipindex>55</clipindex>
						</link>
						<logginginfo>
							<description></description>
							<scene></scene>
							<shottake></shottake>
							<lognote></lognote>
						</logginginfo>
						<labels>
							<label2>Iris</label2>
						</labels>
					</clipitem>
					<clipitem id="clipitem-1563" frameBlend="FALSE">
						<masterclipid>masterclip-192</masterclipid>
						<name>AA025301.MXFCowi varemesse multi</name>
						<enabled>TRUE</enabled>
						<duration>1755</duration>
						<rate>
							<timebase>25</timebase>
							<ntsc>FALSE</ntsc>
						</rate>
						<start>30176</start>
						<end>30232</end>
						<in>1474</in>
						<out>1530</out>
						<sequence id="sequence-126"/>
						<link>
							<linkclipref>clipitem-808</linkclipref>
							<mediatype>video</mediatype>
							<trackindex>1</trackindex>
							<clipindex>250</clipindex>
						</link>
						<link>
							<linkclipref>clipitem-1258</linkclipref>
							<mediatype>audio</mediatype>
							<trackindex>1</trackindex>
							<clipindex>129</clipindex>
						</link>
						<link>
							<linkclipref>clipitem-1459</linkclipref>
							<mediatype>audio</mediatype>
							<trackindex>3</trackindex>
							<clipindex>107</clipindex>
						</link>
						<link>
							<linkclipref>clipitem-1563</linkclipref>
							<mediatype>audio</mediatype>
							<trackindex>5</trackindex>
							<clipindex>63</clipindex>
						</link>
						<link>
							<linkclipref>clipitem-1634</linkclipref>
							<mediatype>audio</mediatype>
							<trackindex>7</trackindex>
							<clipindex>56</clipindex>
						</link>
						<labels>
							<label2>Forest</label2>
						</labels>
					</clipitem>
					<clipitem id="clipitem-1564" frameBlend="FALSE">
						<masterclipid>masterclip-198</masterclipid>
						<name>MVI_0133.MOV</name>
						<enabled>TRUE</enabled>
						<duration>12269</duration>
						<rate>
							<timebase>25</timebase>
							<ntsc>FALSE</ntsc>
						</rate>
						<start>30710</start>
						<end>30802</end>
						<in>2000</in>
						<out>2092</out>
						<file id="file-175"/>
						<sourcetrack>
							<mediatype>audio</mediatype>
							<trackindex>1</trackindex>
						</sourcetrack>
							<filter>
								<effect>
									<name>Audio Levels</name>
									<effectid>audiolevels</effectid>
									<effectcategory>audiolevels</effectcategory>
									<effecttype>audiolevels</effecttype>
									<mediatype>audio</mediatype>
									<parameter authoringApp="PremierePro">
										<parameterid>level</parameterid>
										<name>Level</name>
										<valuemin>0</valuemin>
										<valuemax>3.98109</valuemax>
										<value>0.397164</value>
									</parameter>
								</effect>
							</filter>
						<link>
							<linkclipref>clipitem-1564</linkclipref>
							<mediatype>audio</mediatype>
							<trackindex>5</trackindex>
							<clipindex>64</clipindex>
						</link>
						<link>
							<linkclipref>clipitem-1635</linkclipref>
							<mediatype>audio</mediatype>
							<trackindex>7</trackindex>
							<clipindex>57</clipindex>
						</link>
						<logginginfo>
							<description></description>
							<scene></scene>
							<shottake></shottake>
							<lognote></lognote>
						</logginginfo>
						<labels>
							<label2>Iris</label2>
						</labels>
					</clipitem>
					<clipitem id="clipitem-1565" frameBlend="FALSE">
						<masterclipid>masterclip-198</masterclipid>
						<name>MVI_0133.MOV</name>
						<enabled>TRUE</enabled>
						<duration>12269</duration>
						<rate>
							<timebase>25</timebase>
							<ntsc>FALSE</ntsc>
						</rate>
						<start>30802</start>
						<end>30887</end>
						<in>1723</in>
						<out>1808</out>
						<file id="file-175"/>
						<sourcetrack>
							<mediatype>audio</mediatype>
							<trackindex>1</trackindex>
						</sourcetrack>
							<filter>
								<effect>
									<name>Audio Levels</name>
									<effectid>audiolevels</effectid>
									<effectcategory>audiolevels</effectcategory>
									<effecttype>audiolevels</effecttype>
									<mediatype>audio</mediatype>
									<parameter authoringApp="PremierePro">
										<parameterid>level</parameterid>
										<name>Level</name>
										<valuemin>0</valuemin>
										<valuemax>3.98109</valuemax>
										<value>0.28117</value>
									</parameter>
								</effect>
							</filter>
						<link>
							<linkclipref>clipitem-1565</linkclipref>
							<mediatype>audio</mediatype>
							<trackindex>5</trackindex>
							<clipindex>65</clipindex>
						</link>
						<link>
							<linkclipref>clipitem-1636</linkclipref>
							<mediatype>audio</mediatype>
							<trackindex>7</trackindex>
							<clipindex>58</clipindex>
						</link>
						<logginginfo>
							<description></description>
							<scene></scene>
							<shottake></shottake>
							<lognote></lognote>
						</logginginfo>
						<labels>
							<label2>Iris</label2>
						</labels>
					</clipitem>
					<clipitem id="clipitem-1566" frameBlend="FALSE">
						<masterclipid>masterclip-198</masterclipid>
						<name>MVI_0133.MOV</name>
						<enabled>TRUE</enabled>
						<duration>12269</duration>
						<rate>
							<timebase>25</timebase>
							<ntsc>FALSE</ntsc>
						</rate>
						<start>30887</start>
						<end>30944</end>
						<in>2000</in>
						<out>2057</out>
						<file id="file-175"/>
						<sourcetrack>
							<mediatype>audio</mediatype>
							<trackindex>1</trackindex>
						</sourcetrack>
							<filter>
								<effect>
									<name>Audio Levels</name>
									<effectid>audiolevels</effectid>
									<effectcategory>audiolevels</effectcategory>
									<effecttype>audiolevels</effecttype>
									<mediatype>audio</mediatype>
									<parameter authoringApp="PremierePro">
										<parameterid>level</parameterid>
										<name>Level</name>
										<valuemin>0</valuemin>
										<valuemax>3.98109</valuemax>
										<value>0.397164</value>
									</parameter>
								</effect>
							</filter>
						<link>
							<linkclipref>clipitem-1566</linkclipref>
							<mediatype>audio</mediatype>
							<trackindex>5</trackindex>
							<clipindex>66</clipindex>
						</link>
						<link>
							<linkclipref>clipitem-1637</linkclipref>
							<mediatype>audio</mediatype>
							<trackindex>7</trackindex>
							<clipindex>59</clipindex>
						</link>
						<logginginfo>
							<description></description>
							<scene></scene>
							<shottake></shottake>
							<lognote></lognote>
						</logginginfo>
						<labels>
							<label2>Iris</label2>
						</labels>
					</clipitem>
					<clipitem id="clipitem-1567" frameBlend="FALSE">
						<masterclipid>masterclip-198</masterclipid>
						<name>MVI_0133.MOV</name>
						<enabled>TRUE</enabled>
						<duration>12269</duration>
						<rate>
							<timebase>25</timebase>
							<ntsc>FALSE</ntsc>
						</rate>
						<start>30944</start>
						<end>30953</end>
						<in>5924</in>
						<out>5933</out>
						<file id="file-175"/>
						<sourcetrack>
							<mediatype>audio</mediatype>
							<trackindex>1</trackindex>
						</sourcetrack>
							<filter>
								<effect>
									<name>Audio Levels</name>
									<effectid>audiolevels</effectid>
									<effectcategory>audiolevels</effectcategory>
									<effecttype>audiolevels</effecttype>
									<mediatype>audio</mediatype>
									<parameter authoringApp="PremierePro">
										<parameterid>level</parameterid>
										<name>Level</name>
										<valuemin>0</valuemin>
										<valuemax>3.98109</valuemax>
										<value>0.707945</value>
									</parameter>
								</effect>
							</filter>
						<link>
							<linkclipref>clipitem-819</linkclipref>
							<mediatype>video</mediatype>
							<trackindex>1</trackindex>
							<clipindex>255</clipindex>
						</link>
						<link>
							<linkclipref>clipitem-1567</linkclipref>
							<mediatype>audio</mediatype>
							<trackindex>5</trackindex>
							<clipindex>67</clipindex>
						</link>
						<link>
							<linkclipref>clipitem-1638</linkclipref>
							<mediatype>audio</mediatype>
							<trackindex>7</trackindex>
							<clipindex>60</clipindex>
						</link>
						<logginginfo>
							<description></description>
							<scene></scene>
							<shottake></shottake>
							<lognote></lognote>
						</logginginfo>
						<labels>
							<label2>Iris</label2>
						</labels>
					</clipitem>
					<clipitem id="clipitem-1568" frameBlend="FALSE">
						<masterclipid>masterclip-198</masterclipid>
						<name>MVI_0133.MOV</name>
						<enabled>TRUE</enabled>
						<duration>12269</duration>
						<rate>
							<timebase>25</timebase>
							<ntsc>FALSE</ntsc>
						</rate>
						<start>30953</start>
						<end>31035</end>
						<in>9447</in>
						<out>9529</out>
						<file id="file-175"/>
						<sourcetrack>
							<mediatype>audio</mediatype>
							<trackindex>1</trackindex>
						</sourcetrack>
							<filter>
								<effect>
									<name>Audio Levels</name>
									<effectid>audiolevels</effectid>
									<effectcategory>audiolevels</effectcategory>
									<effecttype>audiolevels</effecttype>
									<mediatype>audio</mediatype>
									<parameter authoringApp="PremierePro">
										<parameterid>level</parameterid>
										<name>Level</name>
										<valuemin>0</valuemin>
										<valuemax>3.98109</valuemax>
										<value>0.140919</value>
									</parameter>
								</effect>
							</filter>
						<link>
							<linkclipref>clipitem-1568</linkclipref>
							<mediatype>audio</mediatype>
							<trackindex>5</trackindex>
							<clipindex>68</clipindex>
						</link>
						<link>
							<linkclipref>clipitem-1639</linkclipref>
							<mediatype>audio</mediatype>
							<trackindex>7</trackindex>
							<clipindex>61</clipindex>
						</link>
						<logginginfo>
							<description></description>
							<scene></scene>
							<shottake></shottake>
							<lognote></lognote>
						</logginginfo>
						<labels>
							<label2>Iris</label2>
						</labels>
					</clipitem>
					<clipitem id="clipitem-1569" frameBlend="FALSE">
						<masterclipid>masterclip-199</masterclipid>
						<name>MVI_0135.MOV</name>
						<enabled>TRUE</enabled>
						<duration>927</duration>
						<rate>
							<timebase>25</timebase>
							<ntsc>FALSE</ntsc>
						</rate>
						<start>31035</start>
						<end>31128</end>
						<in>21</in>
						<out>114</out>
						<file id="file-176"/>
						<sourcetrack>
							<mediatype>audio</mediatype>
							<trackindex>1</trackindex>
						</sourcetrack>
							<filter>
								<effect>
									<name>Audio Levels</name>
									<effectid>audiolevels</effectid>
									<effectcategory>audiolevels</effectcategory>
									<effecttype>audiolevels</effecttype>
									<mediatype>audio</mediatype>
									<parameter authoringApp="PremierePro">
										<parameterid>level</parameterid>
										<name>Level</name>
										<valuemin>0</valuemin>
										<valuemax>3.98109</valuemax>
										<value>0.199053</value>
									</parameter>
								</effect>
							</filter>
						<link>
							<linkclipref>clipitem-1569</linkclipref>
							<mediatype>audio</mediatype>
							<trackindex>5</trackindex>
							<clipindex>69</clipindex>
						</link>
						<link>
							<linkclipref>clipitem-1640</linkclipref>
							<mediatype>audio</mediatype>
							<trackindex>7</trackindex>
							<clipindex>62</clipindex>
						</link>
						<logginginfo>
							<description></description>
							<scene></scene>
							<shottake></shottake>
							<lognote></lognote>
						</logginginfo>
						<labels>
							<label2>Iris</label2>
						</labels>
					</clipitem>
					<clipitem id="clipitem-1570" frameBlend="FALSE">
						<masterclipid>masterclip-280</masterclipid>
						<name>AA004901.MXF</name>
						<enabled>TRUE</enabled>
						<duration>1068</duration>
						<rate>
							<timebase>25</timebase>
							<ntsc>FALSE</ntsc>
						</rate>
						<start>31184</start>
						<end>31222</end>
						<in>373</in>
						<out>411</out>
						<pixelaspectratio>square</pixelaspectratio>
						<anamorphic>FALSE</anamorphic>
						<file id="file-253">
							<name>AA004901.MXF</name>
							<pathurl>file://localhost/Volumes/Brakka/AdobeLager/Katta/Katta-14xxxx-Smart_eller_overvaaket-Chris/02-Video/Q-free300%20Roger/CONTENTS/CLIPS001/AA0049/AA004901.MXF</pathurl>
							<rate>
								<timebase>25</timebase>
								<ntsc>FALSE</ntsc>
							</rate>
							<duration>1068</duration>
							<timecode>
								<rate>
									<timebase>25</timebase>
									<ntsc>FALSE</ntsc>
								</rate>
								<string>11:19:36:07</string>
								<frame>1019407</frame>
								<displayformat>NDF</displayformat>
								<reel>
									<name></name>
								</reel>
							</timecode>
							<media>
								<video>
									<duration>18000</duration>
									<samplecharacteristics>
										<rate>
											<timebase>25</timebase>
											<ntsc>FALSE</ntsc>
										</rate>
										<width>1920</width>
										<height>1080</height>
										<anamorphic>FALSE</anamorphic>
										<pixelaspectratio>square</pixelaspectratio>
										<fielddominance>upper</fielddominance>
									</samplecharacteristics>
								</video>
								<audio>
									<samplecharacteristics>
										<depth>16</depth>
										<samplerate>48000</samplerate>
									</samplecharacteristics>
									<channelcount>1</channelcount>
									<layout>mono</layout>
									<audiochannel>
										<sourcechannel>1</sourcechannel>
										<channellabel>discrete</channellabel>
									</audiochannel>
								</audio>
								<audio>
									<samplecharacteristics>
										<depth>16</depth>
										<samplerate>48000</samplerate>
									</samplecharacteristics>
									<channelcount>1</channelcount>
									<layout>mono</layout>
									<audiochannel>
										<sourcechannel>2</sourcechannel>
										<channellabel>discrete</channellabel>
									</audiochannel>
								</audio>
							</media>
						</file>
						<sourcetrack>
							<mediatype>audio</mediatype>
							<trackindex>1</trackindex>
						</sourcetrack>
						<link>
							<linkclipref>clipitem-1570</linkclipref>
							<mediatype>audio</mediatype>
							<trackindex>5</trackindex>
							<clipindex>70</clipindex>
						</link>
						<link>
							<linkclipref>clipitem-1641</linkclipref>
							<mediatype>audio</mediatype>
							<trackindex>7</trackindex>
							<clipindex>63</clipindex>
						</link>
						<logginginfo>
							<description></description>
							<scene></scene>
							<shottake>AA0049</shottake>
							<lognote></lognote>
						</logginginfo>
						<labels>
							<label2>Iris</label2>
						</labels>
					</clipitem>
					<clipitem id="clipitem-1571" frameBlend="FALSE">
						<masterclipid>masterclip-203</masterclipid>
						<name>MVI_0161.MOV</name>
						<enabled>TRUE</enabled>
						<duration>3004</duration>
						<rate>
							<timebase>25</timebase>
							<ntsc>FALSE</ntsc>
						</rate>
						<start>31313</start>
						<end>31482</end>
						<in>344</in>
						<out>513</out>
						<file id="file-180"/>
						<sourcetrack>
							<mediatype>audio</mediatype>
							<trackindex>1</trackindex>
						</sourcetrack>
							<filter>
								<effect>
									<name>Audio Levels</name>
									<effectid>audiolevels</effectid>
									<effectcategory>audiolevels</effectcategory>
									<effecttype>audiolevels</effecttype>
									<mediatype>audio</mediatype>
									<parameter authoringApp="PremierePro">
										<parameterid>level</parameterid>
										<name>Level</name>
										<valuemin>0</valuemin>
										<valuemax>3.98109</valuemax>
										<value>0.353972</value>
									</parameter>
								</effect>
							</filter>
						<link>
							<linkclipref>clipitem-827</linkclipref>
							<mediatype>video</mediatype>
							<trackindex>1</trackindex>
							<clipindex>263</clipindex>
						</link>
						<link>
							<linkclipref>clipitem-1571</linkclipref>
							<mediatype>audio</mediatype>
							<trackindex>5</trackindex>
							<clipindex>71</clipindex>
						</link>
						<link>
							<linkclipref>clipitem-1642</linkclipref>
							<mediatype>audio</mediatype>
							<trackindex>7</trackindex>
							<clipindex>64</clipindex>
						</link>
						<logginginfo>
							<description></description>
							<scene></scene>
							<shottake></shottake>
							<lognote></lognote>
						</logginginfo>
						<labels>
							<label2>Iris</label2>
						</labels>
					</clipitem>
					<clipitem id="clipitem-1572" frameBlend="FALSE">
						<masterclipid>masterclip-204</masterclipid>
						<name>AA005201.MXF</name>
						<enabled>TRUE</enabled>
						<duration>8832</duration>
						<rate>
							<timebase>25</timebase>
							<ntsc>FALSE</ntsc>
						</rate>
						<start>31482</start>
						<end>31570</end>
						<in>3920</in>
						<out>4008</out>
						<file id="file-181"/>
						<sourcetrack>
							<mediatype>audio</mediatype>
							<trackindex>1</trackindex>
						</sourcetrack>
							<filter>
								<effect>
									<name>Audio Levels</name>
									<effectid>audiolevels</effectid>
									<effectcategory>audiolevels</effectcategory>
									<effecttype>audiolevels</effecttype>
									<mediatype>audio</mediatype>
									<parameter authoringApp="PremierePro">
										<parameterid>level</parameterid>
										<name>Level</name>
										<valuemin>0</valuemin>
										<valuemax>3.98109</valuemax>
										<value>0.267657</value>
									</parameter>
								</effect>
							</filter>
						<link>
							<linkclipref>clipitem-828</linkclipref>
							<mediatype>video</mediatype>
							<trackindex>1</trackindex>
							<clipindex>264</clipindex>
						</link>
						<link>
							<linkclipref>clipitem-1572</linkclipref>
							<mediatype>audio</mediatype>
							<trackindex>5</trackindex>
							<clipindex>72</clipindex>
						</link>
						<link>
							<linkclipref>clipitem-1643</linkclipref>
							<mediatype>audio</mediatype>
							<trackindex>7</trackindex>
							<clipindex>65</clipindex>
						</link>
						<logginginfo>
							<description></description>
							<scene></scene>
							<shottake>AA0052</shottake>
							<lognote></lognote>
						</logginginfo>
						<labels>
							<label2>Iris</label2>
						</labels>
					</clipitem>
					<clipitem id="clipitem-1573" frameBlend="FALSE">
						<masterclipid>masterclip-204</masterclipid>
						<name>AA005201.MXF</name>
						<enabled>TRUE</enabled>
						<duration>8832</duration>
						<rate>
							<timebase>25</timebase>
							<ntsc>FALSE</ntsc>
						</rate>
						<start>31841</start>
						<end>31950</end>
						<in>6734</in>
						<out>6843</out>
						<file id="file-181"/>
						<sourcetrack>
							<mediatype>audio</mediatype>
							<trackindex>1</trackindex>
						</sourcetrack>
							<filter>
								<effect>
									<name>Audio Levels</name>
									<effectid>audiolevels</effectid>
									<effectcategory>audiolevels</effectcategory>
									<effecttype>audiolevels</effecttype>
									<mediatype>audio</mediatype>
									<parameter authoringApp="PremierePro">
										<parameterid>level</parameterid>
										<name>Level</name>
										<valuemin>0</valuemin>
										<valuemax>3.98109</valuemax>
										<value>0.353972</value>
									</parameter>
								</effect>
							</filter>
						<logginginfo>
							<description></description>
							<scene></scene>
							<shottake>AA0052</shottake>
							<lognote></lognote>
						</logginginfo>
						<labels>
							<label2>Iris</label2>
						</labels>
					</clipitem>
					<transitionitem>
						<start>33922</start>
						<end>33947</end>
						<alignment>start-black</alignment>
						<cutPoint>0</cutPoint>
						<rate>
							<timebase>25</timebase>
							<ntsc>FALSE</ntsc>
						</rate>
						<effect>
							<name>Cross Fade (+3dB)</name>
							<effectid>KGAudioTransCrossFade3dB</effectid>
							<effecttype>transition</effecttype>
							<mediatype>audio</mediatype>
							<wipecode>0</wipecode>
							<wipeaccuracy>100</wipeaccuracy>
							<startratio>0</startratio>
							<endratio>1</endratio>
							<reverse>FALSE</reverse>
						</effect>
					</transitionitem>
					<clipitem id="clipitem-1574" frameBlend="FALSE">
						<masterclipid>masterclip-218</masterclipid>
						<name>MVI_0507.MOV</name>
						<enabled>TRUE</enabled>
						<duration>1384</duration>
						<rate>
							<timebase>25</timebase>
							<ntsc>FALSE</ntsc>
						</rate>
						<start>-1</start>
						<end>-1</end>
						<in>330</in>
						<out>465</out>
						<file id="file-195"/>
						<sourcetrack>
							<mediatype>audio</mediatype>
							<trackindex>1</trackindex>
						</sourcetrack>
							<filter>
								<effect>
									<name>Audio Levels</name>
									<effectid>audiolevels</effectid>
									<effectcategory>audiolevels</effectcategory>
									<effecttype>audiolevels</effecttype>
									<mediatype>audio</mediatype>
									<parameter authoringApp="PremierePro">
										<parameterid>level</parameterid>
										<name>Level</name>
										<valuemin>0</valuemin>
										<valuemax>3.98109</valuemax>
										<value>0.125594</value>
									</parameter>
								</effect>
							</filter>
						<logginginfo>
							<description></description>
							<scene></scene>
							<shottake></shottake>
							<lognote></lognote>
						</logginginfo>
						<labels>
							<label2>Iris</label2>
						</labels>
					</clipitem>
					<transitionitem>
						<start>34032</start>
						<end>34057</end>
						<alignment>end-black</alignment>
						<cutPoint>25</cutPoint>
						<rate>
							<timebase>25</timebase>
							<ntsc>FALSE</ntsc>
						</rate>
						<effect>
							<name>Cross Fade (+3dB)</name>
							<effectid>KGAudioTransCrossFade3dB</effectid>
							<effecttype>transition</effecttype>
							<mediatype>audio</mediatype>
							<wipecode>0</wipecode>
							<wipeaccuracy>100</wipeaccuracy>
							<startratio>0</startratio>
							<endratio>1</endratio>
							<reverse>FALSE</reverse>
						</effect>
					</transitionitem>
					<clipitem id="clipitem-1575" frameBlend="FALSE">
						<masterclipid>masterclip-223</masterclipid>
						<name>MVI_0178.MOV</name>
						<enabled>TRUE</enabled>
						<duration>761</duration>
						<rate>
							<timebase>25</timebase>
							<ntsc>FALSE</ntsc>
						</rate>
						<start>34874</start>
						<end>35102</end>
						<in>423</in>
						<out>651</out>
						<file id="file-200"/>
						<sourcetrack>
							<mediatype>audio</mediatype>
							<trackindex>1</trackindex>
						</sourcetrack>
							<filter>
								<effect>
									<name>Audio Levels</name>
									<effectid>audiolevels</effectid>
									<effectcategory>audiolevels</effectcategory>
									<effecttype>audiolevels</effecttype>
									<mediatype>audio</mediatype>
									<parameter authoringApp="PremierePro">
										<parameterid>level</parameterid>
										<name>Level</name>
										<valuemin>0</valuemin>
										<valuemax>3.98109</valuemax>
										<value>0.0199053</value>
									</parameter>
								</effect>
							</filter>
						<link>
							<linkclipref>clipitem-874</linkclipref>
							<mediatype>video</mediatype>
							<trackindex>1</trackindex>
							<clipindex>310</clipindex>
						</link>
						<link>
							<linkclipref>clipitem-1575</linkclipref>
							<mediatype>audio</mediatype>
							<trackindex>5</trackindex>
							<clipindex>77</clipindex>
						</link>
						<link>
							<linkclipref>clipitem-1584</linkclipref>
							<mediatype>audio</mediatype>
							<trackindex>6</trackindex>
							<clipindex>1</clipindex>
						</link>
						<logginginfo>
							<description></description>
							<scene></scene>
							<shottake></shottake>
							<lognote></lognote>
						</logginginfo>
						<labels>
							<label2>Iris</label2>
						</labels>
					</clipitem>
					<clipitem id="clipitem-1576" frameBlend="FALSE">
						<masterclipid>masterclip-241</masterclipid>
						<name>AA034901.MXF</name>
						<enabled>TRUE</enabled>
						<duration>7584</duration>
						<rate>
							<timebase>25</timebase>
							<ntsc>FALSE</ntsc>
						</rate>
						<start>38201</start>
						<end>38300</end>
						<in>367</in>
						<out>466</out>
						<file id="file-215"/>
						<sourcetrack>
							<mediatype>audio</mediatype>
							<trackindex>1</trackindex>
						</sourcetrack>
							<filter>
								<effect>
									<name>Audio Levels</name>
									<effectid>audiolevels</effectid>
									<effectcategory>audiolevels</effectcategory>
									<effecttype>audiolevels</effecttype>
									<mediatype>audio</mediatype>
									<parameter authoringApp="PremierePro">
										<parameterid>level</parameterid>
										<name>Level</name>
										<valuemin>0</valuemin>
										<valuemax>3.98109</valuemax>
										<value>1.09496</value>
									</parameter>
								</effect>
							</filter>
						<link>
							<linkclipref>clipitem-1576</linkclipref>
							<mediatype>audio</mediatype>
							<trackindex>5</trackindex>
							<clipindex>78</clipindex>
						</link>
						<link>
							<linkclipref>clipitem-1646</linkclipref>
							<mediatype>audio</mediatype>
							<trackindex>7</trackindex>
							<clipindex>70</clipindex>
						</link>
						<logginginfo>
							<description></description>
							<scene></scene>
							<shottake>AA0349</shottake>
							<lognote></lognote>
						</logginginfo>
						<labels>
							<label2>Iris</label2>
						</labels>
					</clipitem>
					<clipitem id="clipitem-1577" frameBlend="FALSE">
						<masterclipid>masterclip-241</masterclipid>
						<name>AA034901.MXF</name>
						<enabled>TRUE</enabled>
						<duration>7584</duration>
						<rate>
							<timebase>25</timebase>
							<ntsc>FALSE</ntsc>
						</rate>
						<start>38300</start>
						<end>38319</end>
						<in>493</in>
						<out>512</out>
						<file id="file-215"/>
						<sourcetrack>
							<mediatype>audio</mediatype>
							<trackindex>1</trackindex>
						</sourcetrack>
							<filter>
								<effect>
									<name>Audio Levels</name>
									<effectid>audiolevels</effectid>
									<effectcategory>audiolevels</effectcategory>
									<effecttype>audiolevels</effecttype>
									<mediatype>audio</mediatype>
									<parameter authoringApp="PremierePro">
										<parameterid>level</parameterid>
										<name>Level</name>
										<valuemin>0</valuemin>
										<valuemax>3.98109</valuemax>
										<value>1.09496</value>
									</parameter>
								</effect>
							</filter>
						<link>
							<linkclipref>clipitem-1577</linkclipref>
							<mediatype>audio</mediatype>
							<trackindex>5</trackindex>
							<clipindex>79</clipindex>
						</link>
						<link>
							<linkclipref>clipitem-1647</linkclipref>
							<mediatype>audio</mediatype>
							<trackindex>7</trackindex>
							<clipindex>71</clipindex>
						</link>
						<logginginfo>
							<description></description>
							<scene></scene>
							<shottake>AA0349</shottake>
							<lognote></lognote>
						</logginginfo>
						<labels>
							<label2>Iris</label2>
						</labels>
					</clipitem>
					<clipitem id="clipitem-1578" frameBlend="FALSE">
						<masterclipid>masterclip-10</masterclipid>
						<name>AA034901.MXF</name>
						<enabled>TRUE</enabled>
						<duration>7584</duration>
						<rate>
							<timebase>25</timebase>
							<ntsc>FALSE</ntsc>
						</rate>
						<start>38319</start>
						<end>38599</end>
						<in>686</in>
						<out>966</out>
						<file id="file-9"/>
						<sourcetrack>
							<mediatype>audio</mediatype>
							<trackindex>1</trackindex>
						</sourcetrack>
						<link>
							<linkclipref>clipitem-1578</linkclipref>
							<mediatype>audio</mediatype>
							<trackindex>5</trackindex>
							<clipindex>80</clipindex>
						</link>
						<link>
							<linkclipref>clipitem-1648</linkclipref>
							<mediatype>audio</mediatype>
							<trackindex>7</trackindex>
							<clipindex>72</clipindex>
						</link>
						<logginginfo>
							<description></description>
							<scene></scene>
							<shottake>AA0349</shottake>
							<lognote></lognote>
						</logginginfo>
						<labels>
							<label2>Iris</label2>
						</labels>
					</clipitem>
					<clipitem id="clipitem-1579" frameBlend="FALSE">
						<masterclipid>masterclip-17</masterclipid>
						<name>Rio (IBM).mov</name>
						<enabled>TRUE</enabled>
						<duration>10510</duration>
						<rate>
							<timebase>25</timebase>
							<ntsc>FALSE</ntsc>
						</rate>
						<start>38860</start>
						<end>38918</end>
						<in>6460</in>
						<out>6518</out>
						<file id="file-16"/>
						<sourcetrack>
							<mediatype>audio</mediatype>
							<trackindex>1</trackindex>
						</sourcetrack>
							<filter>
								<effect>
									<name>Audio Levels</name>
									<effectid>audiolevels</effectid>
									<effectcategory>audiolevels</effectcategory>
									<effecttype>audiolevels</effecttype>
									<mediatype>audio</mediatype>
									<parameter authoringApp="PremierePro">
										<parameterid>level</parameterid>
										<name>Level</name>
										<valuemin>0</valuemin>
										<valuemax>3.98109</valuemax>
										<value>0.125594</value>
									</parameter>
								</effect>
							</filter>
						<link>
							<linkclipref>clipitem-1579</linkclipref>
							<mediatype>audio</mediatype>
							<trackindex>5</trackindex>
							<clipindex>81</clipindex>
						</link>
						<link>
							<linkclipref>clipitem-1649</linkclipref>
							<mediatype>audio</mediatype>
							<trackindex>7</trackindex>
							<clipindex>73</clipindex>
						</link>
						<logginginfo>
							<description></description>
							<scene></scene>
							<shottake></shottake>
							<lognote></lognote>
						</logginginfo>
						<labels>
							<label2>Iris</label2>
						</labels>
					</clipitem>
					<clipitem id="clipitem-1580" frameBlend="FALSE">
						<masterclipid>masterclip-17</masterclipid>
						<name>Rio (IBM).mov</name>
						<enabled>TRUE</enabled>
						<duration>10510</duration>
						<rate>
							<timebase>25</timebase>
							<ntsc>FALSE</ntsc>
						</rate>
						<start>38918</start>
						<end>38955</end>
						<in>6799</in>
						<out>6836</out>
						<file id="file-16"/>
						<sourcetrack>
							<mediatype>audio</mediatype>
							<trackindex>1</trackindex>
						</sourcetrack>
							<filter>
								<effect>
									<name>Audio Levels</name>
									<effectid>audiolevels</effectid>
									<effectcategory>audiolevels</effectcategory>
									<effecttype>audiolevels</effecttype>
									<mediatype>audio</mediatype>
									<parameter authoringApp="PremierePro">
										<parameterid>level</parameterid>
										<name>Level</name>
										<valuemin>0</valuemin>
										<valuemax>3.98109</valuemax>
										<value>0.0706268</value>
									</parameter>
								</effect>
							</filter>
						<link>
							<linkclipref>clipitem-929</linkclipref>
							<mediatype>video</mediatype>
							<trackindex>1</trackindex>
							<clipindex>345</clipindex>
						</link>
						<link>
							<linkclipref>clipitem-1580</linkclipref>
							<mediatype>audio</mediatype>
							<trackindex>5</trackindex>
							<clipindex>82</clipindex>
						</link>
						<link>
							<linkclipref>clipitem-1650</linkclipref>
							<mediatype>audio</mediatype>
							<trackindex>7</trackindex>
							<clipindex>74</clipindex>
						</link>
						<logginginfo>
							<description></description>
							<scene></scene>
							<shottake></shottake>
							<lognote></lognote>
						</logginginfo>
						<labels>
							<label2>Iris</label2>
						</labels>
					</clipitem>
					<clipitem id="clipitem-1581" frameBlend="FALSE">
						<masterclipid>masterclip-17</masterclipid>
						<name>Rio (IBM).mov</name>
						<enabled>TRUE</enabled>
						<duration>10510</duration>
						<rate>
							<timebase>25</timebase>
							<ntsc>FALSE</ntsc>
						</rate>
						<start>38955</start>
						<end>39050</end>
						<in>9781</in>
						<out>9876</out>
						<file id="file-16"/>
						<sourcetrack>
							<mediatype>audio</mediatype>
							<trackindex>1</trackindex>
						</sourcetrack>
							<filter>
								<effect>
									<name>Audio Levels</name>
									<effectid>audiolevels</effectid>
									<effectcategory>audiolevels</effectcategory>
									<effecttype>audiolevels</effecttype>
									<mediatype>audio</mediatype>
									<parameter authoringApp="PremierePro">
										<parameterid>level</parameterid>
										<name>Level</name>
										<valuemin>0</valuemin>
										<valuemax>3.98109</valuemax>
										<value>0.0223342</value>
									</parameter>
								</effect>
							</filter>
							<filter>
								<effect>
									<name>Time Remap</name>
									<effectid>timeremap</effectid>
									<effectcategory>motion</effectcategory>
									<effecttype>motion</effecttype>
									<mediatype>audio</mediatype>
									<parameter authoringApp="PremierePro">
										<parameterid>variablespeed</parameterid>
										<name>variablespeed</name>
										<valuemin>0</valuemin>
										<valuemax>1</valuemax>
										<value>0</value>
									</parameter>
									<parameter authoringApp="PremierePro">
										<parameterid>mappedduration</parameterid>
										<name>mappedduration</name>
										<value>
											<timecode>
												<rate>
													<timebase>0</timebase>
												</rate>
												<string>0</string>
												<frame>0</frame>
												<displayformat>NDF</displayformat>
											</timecode>
										</value>
									</parameter>
									<parameter authoringApp="PremierePro">
										<parameterid>speed</parameterid>
										<name>speed</name>
										<valuemin>-100000</valuemin>
										<valuemax>100000</valuemax>
										<value>100</value>
									</parameter>
									<parameter authoringApp="PremierePro">
										<parameterid>reverse</parameterid>
										<name>reverse</name>
										<value>TRUE</value>
									</parameter>
									<parameter authoringApp="PremierePro">
										<parameterid>frameblending</parameterid>
										<name>frameblending</name>
										<value>FALSE</value>
									</parameter>
									<parameter authoringApp="PremierePro">
										<parameterid>graphdict</parameterid>
										<name>graphdict</name>
										<valuemin>0</valuemin>
										<valuemax>10510</valuemax>
										<value>0</value>
										<keyframe>
											<when>0</when>
											<value>10511</value>
											<speedvirtualkf>TRUE</speedvirtualkf>
											<origvalue>10510</origvalue>
											<speedkfstart>TRUE</speedkfstart>
										</keyframe>
										<keyframe>
											<when>9781</when>
											<value>729</value>
											<speedvirtualkf>TRUE</speedvirtualkf>
											<origvalue>729</origvalue>
											<speedkfin>TRUE</speedkfin>
										</keyframe>
										<keyframe>
											<when>9876</when>
											<value>634</value>
											<speedvirtualkf>TRUE</speedvirtualkf>
											<origvalue>634</origvalue>
											<speedkfout>TRUE</speedkfout>
										</keyframe>
										<keyframe>
											<when>10510</when>
											<value>0</value>
											<speedvirtualkf>TRUE</speedvirtualkf>
											<origvalue>0</origvalue>
											<speedkfend>TRUE</speedkfend>
										</keyframe>
										<interpolation>
											<name>FCPCurve</name>
										</interpolation>
									</parameter>
								</effect>
							</filter>
						<link>
							<linkclipref>clipitem-1581</linkclipref>
							<mediatype>audio</mediatype>
							<trackindex>5</trackindex>
							<clipindex>83</clipindex>
						</link>
						<link>
							<linkclipref>clipitem-1651</linkclipref>
							<mediatype>audio</mediatype>
							<trackindex>7</trackindex>
							<clipindex>75</clipindex>
						</link>
						<logginginfo>
							<description></description>
							<scene></scene>
							<shottake></shottake>
							<lognote></lognote>
						</logginginfo>
						<labels>
							<label2>Iris</label2>
						</labels>
					</clipitem>
					<clipitem id="clipitem-1582" frameBlend="FALSE">
						<masterclipid>masterclip-17</masterclipid>
						<name>Rio (IBM).mov</name>
						<enabled>TRUE</enabled>
						<duration>10510</duration>
						<rate>
							<timebase>25</timebase>
							<ntsc>FALSE</ntsc>
						</rate>
						<start>39050</start>
						<end>39165</end>
						<in>8812</in>
						<out>8927</out>
						<file id="file-16"/>
						<sourcetrack>
							<mediatype>audio</mediatype>
							<trackindex>1</trackindex>
						</sourcetrack>
							<filter>
								<effect>
									<name>Audio Levels</name>
									<effectid>audiolevels</effectid>
									<effectcategory>audiolevels</effectcategory>
									<effecttype>audiolevels</effecttype>
									<mediatype>audio</mediatype>
									<parameter authoringApp="PremierePro">
										<parameterid>level</parameterid>
										<name>Level</name>
										<valuemin>0</valuemin>
										<valuemax>3.98109</valuemax>
										<value>0.0706268</value>
									</parameter>
								</effect>
							</filter>
						<link>
							<linkclipref>clipitem-931</linkclipref>
							<mediatype>video</mediatype>
							<trackindex>1</trackindex>
							<clipindex>347</clipindex>
						</link>
						<link>
							<linkclipref>clipitem-1582</linkclipref>
							<mediatype>audio</mediatype>
							<trackindex>5</trackindex>
							<clipindex>84</clipindex>
						</link>
						<link>
							<linkclipref>clipitem-1652</linkclipref>
							<mediatype>audio</mediatype>
							<trackindex>7</trackindex>
							<clipindex>76</clipindex>
						</link>
						<logginginfo>
							<description></description>
							<scene></scene>
							<shottake></shottake>
							<lognote></lognote>
						</logginginfo>
						<labels>
							<label2>Iris</label2>
						</labels>
					</clipitem>
					<clipitem id="clipitem-1583" frameBlend="FALSE">
						<masterclipid>masterclip-17</masterclipid>
						<name>Rio (IBM).mov</name>
						<enabled>TRUE</enabled>
						<duration>10510</duration>
						<rate>
							<timebase>25</timebase>
							<ntsc>FALSE</ntsc>
						</rate>
						<start>39165</start>
						<end>39229</end>
						<in>7992</in>
						<out>8056</out>
						<file id="file-16"/>
						<sourcetrack>
							<mediatype>audio</mediatype>
							<trackindex>1</trackindex>
						</sourcetrack>
							<filter>
								<effect>
									<name>Audio Levels</name>
									<effectid>audiolevels</effectid>
									<effectcategory>audiolevels</effectcategory>
									<effecttype>audiolevels</effecttype>
									<mediatype>audio</mediatype>
									<parameter authoringApp="PremierePro">
										<parameterid>level</parameterid>
										<name>Level</name>
										<valuemin>0</valuemin>
										<valuemax>3.98109</valuemax>
										<value>0.111936</value>
									</parameter>
								</effect>
							</filter>
						<link>
							<linkclipref>clipitem-1583</linkclipref>
							<mediatype>audio</mediatype>
							<trackindex>5</trackindex>
							<clipindex>85</clipindex>
						</link>
						<link>
							<linkclipref>clipitem-1653</linkclipref>
							<mediatype>audio</mediatype>
							<trackindex>7</trackindex>
							<clipindex>77</clipindex>
						</link>
						<logginginfo>
							<description></description>
							<scene></scene>
							<shottake></shottake>
							<lognote></lognote>
						</logginginfo>
						<labels>
							<label2>Iris</label2>
						</labels>
					</clipitem>
					<enabled>TRUE</enabled>
					<locked>FALSE</locked>
					<outputchannelindex>1</outputchannelindex>
				</track>
				<track monotrack="TRUE" TL.SQTrackAudioKeyframeStyle="0" TL.SQTrackShy="0" TL.SQTrackExpandedHeight="32" TL.SQTrackExpanded="1" MZ.TrackTargeted="0" MZ.TrackName="sync 3 mono" PannerCurrentValue="0.5" PannerIsInverted="true" PannerStartKeyframe="-91445760000000000,0.5,0,0,0,0,0,0" PannerName="Pan" currentExplodedTrackIndex="1" totalExplodedTrackCount="2" premiereTrackType="Mono">
					<clipitem id="clipitem-1584" frameBlend="FALSE">
						<masterclipid>masterclip-223</masterclipid>
						<name>MVI_0178.MOV</name>
						<enabled>TRUE</enabled>
						<duration>761</duration>
						<rate>
							<timebase>25</timebase>
							<ntsc>FALSE</ntsc>
						</rate>
						<start>34874</start>
						<end>35102</end>
						<in>423</in>
						<out>651</out>
						<file id="file-200"/>
						<sourcetrack>
							<mediatype>audio</mediatype>
							<trackindex>2</trackindex>
						</sourcetrack>
							<filter>
								<effect>
									<name>Audio Levels</name>
									<effectid>audiolevels</effectid>
									<effectcategory>audiolevels</effectcategory>
									<effecttype>audiolevels</effecttype>
									<mediatype>audio</mediatype>
									<parameter authoringApp="PremierePro">
										<parameterid>level</parameterid>
										<name>Level</name>
										<valuemin>0</valuemin>
										<valuemax>3.98109</valuemax>
										<value>0.0199053</value>
									</parameter>
								</effect>
							</filter>
						<link>
							<linkclipref>clipitem-874</linkclipref>
							<mediatype>video</mediatype>
							<trackindex>1</trackindex>
							<clipindex>310</clipindex>
						</link>
						<link>
							<linkclipref>clipitem-1575</linkclipref>
							<mediatype>audio</mediatype>
							<trackindex>5</trackindex>
							<clipindex>77</clipindex>
						</link>
						<link>
							<linkclipref>clipitem-1584</linkclipref>
							<mediatype>audio</mediatype>
							<trackindex>6</trackindex>
							<clipindex>1</clipindex>
						</link>
						<logginginfo>
							<description></description>
							<scene></scene>
							<shottake></shottake>
							<lognote></lognote>
						</logginginfo>
						<labels>
							<label2>Iris</label2>
						</labels>
					</clipitem>
					<enabled>TRUE</enabled>
					<locked>FALSE</locked>
					<outputchannelindex>6</outputchannelindex>
				</track>
				<track monotrack="TRUE" TL.SQTrackAudioKeyframeStyle="0" TL.SQTrackShy="0" TL.SQTrackExpandedHeight="65" TL.SQTrackExpanded="0" MZ.TrackTargeted="0" MZ.TrackName="sync 4 mono" PannerCurrentValue="0.5" PannerIsInverted="true" PannerStartKeyframe="-91445760000000000,0.5,0,0,0,0,0,0" PannerName="Pan" currentExplodedTrackIndex="0" totalExplodedTrackCount="1" premiereTrackType="Mono">
					<clipitem id="clipitem-1585" frameBlend="FALSE">
						<masterclipid>masterclip-22</masterclipid>
						<name>MVI_9527.MOV</name>
						<enabled>TRUE</enabled>
						<duration>1695</duration>
						<rate>
							<timebase>25</timebase>
							<ntsc>FALSE</ntsc>
						</rate>
						<start>2061</start>
						<end>2128</end>
						<in>791</in>
						<out>858</out>
						<file id="file-21"/>
						<sourcetrack>
							<mediatype>audio</mediatype>
							<trackindex>2</trackindex>
						</sourcetrack>
							<filter>
								<effect>
									<name>Audio Levels</name>
									<effectid>audiolevels</effectid>
									<effectcategory>audiolevels</effectcategory>
									<effecttype>audiolevels</effecttype>
									<mediatype>audio</mediatype>
									<parameter authoringApp="PremierePro">
										<parameterid>level</parameterid>
										<name>Level</name>
										<valuemin>0</valuemin>
										<valuemax>3.98109</valuemax>
										<value>0.250593</value>
									</parameter>
								</effect>
							</filter>
						<link>
							<linkclipref>clipitem-407</linkclipref>
							<mediatype>video</mediatype>
							<trackindex>1</trackindex>
							<clipindex>19</clipindex>
						</link>
						<link>
							<linkclipref>clipitem-1493</linkclipref>
							<mediatype>audio</mediatype>
							<trackindex>5</trackindex>
							<clipindex>2</clipindex>
						</link>
						<link>
							<linkclipref>clipitem-1585</linkclipref>
							<mediatype>audio</mediatype>
							<trackindex>7</trackindex>
							<clipindex>1</clipindex>
						</link>
						<logginginfo>
							<description></description>
							<scene></scene>
							<shottake></shottake>
							<lognote></lognote>
						</logginginfo>
						<labels>
							<label2>Iris</label2>
						</labels>
					</clipitem>
					<clipitem id="clipitem-1586" frameBlend="FALSE">
						<masterclipid>masterclip-23</masterclipid>
						<name>MVI_9530.MOV</name>
						<enabled>TRUE</enabled>
						<duration>595</duration>
						<rate>
							<timebase>25</timebase>
							<ntsc>FALSE</ntsc>
						</rate>
						<start>2128</start>
						<end>2199</end>
						<in>72</in>
						<out>143</out>
						<file id="file-22"/>
						<sourcetrack>
							<mediatype>audio</mediatype>
							<trackindex>2</trackindex>
						</sourcetrack>
							<filter>
								<effect>
									<name>Audio Levels</name>
									<effectid>audiolevels</effectid>
									<effectcategory>audiolevels</effectcategory>
									<effecttype>audiolevels</effecttype>
									<mediatype>audio</mediatype>
									<parameter authoringApp="PremierePro">
										<parameterid>level</parameterid>
										<name>Level</name>
										<valuemin>0</valuemin>
										<valuemax>3.98109</valuemax>
										<value>0.250593</value>
									</parameter>
								</effect>
							</filter>
						<link>
							<linkclipref>clipitem-408</linkclipref>
							<mediatype>video</mediatype>
							<trackindex>1</trackindex>
							<clipindex>20</clipindex>
						</link>
						<link>
							<linkclipref>clipitem-1494</linkclipref>
							<mediatype>audio</mediatype>
							<trackindex>5</trackindex>
							<clipindex>3</clipindex>
						</link>
						<link>
							<linkclipref>clipitem-1586</linkclipref>
							<mediatype>audio</mediatype>
							<trackindex>7</trackindex>
							<clipindex>2</clipindex>
						</link>
						<logginginfo>
							<description></description>
							<scene></scene>
							<shottake></shottake>
							<lognote></lognote>
						</logginginfo>
						<labels>
							<label2>Iris</label2>
						</labels>
					</clipitem>
					<clipitem id="clipitem-1587" frameBlend="FALSE">
						<masterclipid>masterclip-24</masterclipid>
						<name>MVI_9528.MOV</name>
						<enabled>TRUE</enabled>
						<duration>308</duration>
						<rate>
							<timebase>25</timebase>
							<ntsc>FALSE</ntsc>
						</rate>
						<start>2199</start>
						<end>2360</end>
						<in>97</in>
						<out>258</out>
						<file id="file-23"/>
						<sourcetrack>
							<mediatype>audio</mediatype>
							<trackindex>2</trackindex>
						</sourcetrack>
							<filter>
								<effect>
									<name>Audio Levels</name>
									<effectid>audiolevels</effectid>
									<effectcategory>audiolevels</effectcategory>
									<effecttype>audiolevels</effecttype>
									<mediatype>audio</mediatype>
									<parameter authoringApp="PremierePro">
										<parameterid>level</parameterid>
										<name>Level</name>
										<valuemin>0</valuemin>
										<valuemax>3.98109</valuemax>
										<value>0.0499999</value>
									</parameter>
								</effect>
							</filter>
						<link>
							<linkclipref>clipitem-409</linkclipref>
							<mediatype>video</mediatype>
							<trackindex>1</trackindex>
							<clipindex>21</clipindex>
						</link>
						<link>
							<linkclipref>clipitem-1495</linkclipref>
							<mediatype>audio</mediatype>
							<trackindex>5</trackindex>
							<clipindex>4</clipindex>
						</link>
						<link>
							<linkclipref>clipitem-1587</linkclipref>
							<mediatype>audio</mediatype>
							<trackindex>7</trackindex>
							<clipindex>3</clipindex>
						</link>
						<logginginfo>
							<description></description>
							<scene></scene>
							<shottake></shottake>
							<lognote></lognote>
						</logginginfo>
						<labels>
							<label2>Iris</label2>
						</labels>
					</clipitem>
					<clipitem id="clipitem-1588" frameBlend="FALSE">
						<masterclipid>masterclip-38</masterclipid>
						<name>AA313301.MXF</name>
						<enabled>TRUE</enabled>
						<duration>360</duration>
						<rate>
							<timebase>25</timebase>
							<ntsc>FALSE</ntsc>
						</rate>
						<start>3787</start>
						<end>3820</end>
						<in>280</in>
						<out>313</out>
						<file id="file-35"/>
						<sourcetrack>
							<mediatype>audio</mediatype>
							<trackindex>1</trackindex>
						</sourcetrack>
						<link>
							<linkclipref>clipitem-435</linkclipref>
							<mediatype>video</mediatype>
							<trackindex>1</trackindex>
							<clipindex>33</clipindex>
						</link>
						<link>
							<linkclipref>clipitem-1496</linkclipref>
							<mediatype>audio</mediatype>
							<trackindex>5</trackindex>
							<clipindex>5</clipindex>
						</link>
						<link>
							<linkclipref>clipitem-1588</linkclipref>
							<mediatype>audio</mediatype>
							<trackindex>7</trackindex>
							<clipindex>4</clipindex>
						</link>
						<logginginfo>
							<description></description>
							<scene></scene>
							<shottake>AA3133</shottake>
							<lognote></lognote>
						</logginginfo>
						<labels>
							<label2>Iris</label2>
						</labels>
					</clipitem>
					<clipitem id="clipitem-1589" frameBlend="FALSE">
						<masterclipid>masterclip-41</masterclipid>
						<name>MVI_9579.MOV</name>
						<enabled>TRUE</enabled>
						<duration>1587</duration>
						<rate>
							<timebase>25</timebase>
							<ntsc>FALSE</ntsc>
						</rate>
						<start>4728</start>
						<end>4811</end>
						<in>760</in>
						<out>843</out>
						<file id="file-38"/>
						<sourcetrack>
							<mediatype>audio</mediatype>
							<trackindex>2</trackindex>
						</sourcetrack>
							<filter>
								<effect>
									<name>Audio Levels</name>
									<effectid>audiolevels</effectid>
									<effectcategory>audiolevels</effectcategory>
									<effecttype>audiolevels</effecttype>
									<mediatype>audio</mediatype>
									<parameter authoringApp="PremierePro">
										<parameterid>level</parameterid>
										<name>Level</name>
										<valuemin>0</valuemin>
										<valuemax>3.98109</valuemax>
										<value>0.111936</value>
									</parameter>
								</effect>
							</filter>
						<link>
							<linkclipref>clipitem-443</linkclipref>
							<mediatype>video</mediatype>
							<trackindex>1</trackindex>
							<clipindex>41</clipindex>
						</link>
						<link>
							<linkclipref>clipitem-1497</linkclipref>
							<mediatype>audio</mediatype>
							<trackindex>5</trackindex>
							<clipindex>6</clipindex>
						</link>
						<link>
							<linkclipref>clipitem-1589</linkclipref>
							<mediatype>audio</mediatype>
							<trackindex>7</trackindex>
							<clipindex>5</clipindex>
						</link>
						<logginginfo>
							<description></description>
							<scene></scene>
							<shottake></shottake>
							<lognote></lognote>
						</logginginfo>
						<labels>
							<label2>Iris</label2>
						</labels>
					</clipitem>
					<clipitem id="clipitem-1590" frameBlend="FALSE">
						<masterclipid>masterclip-42</masterclipid>
						<name>AA314901.MXF</name>
						<enabled>TRUE</enabled>
						<duration>4956</duration>
						<rate>
							<timebase>25</timebase>
							<ntsc>FALSE</ntsc>
						</rate>
						<start>4811</start>
						<end>4924</end>
						<in>4636</in>
						<out>4749</out>
						<file id="file-39"/>
						<sourcetrack>
							<mediatype>audio</mediatype>
							<trackindex>1</trackindex>
						</sourcetrack>
						<link>
							<linkclipref>clipitem-444</linkclipref>
							<mediatype>video</mediatype>
							<trackindex>1</trackindex>
							<clipindex>42</clipindex>
						</link>
						<link>
							<linkclipref>clipitem-1498</linkclipref>
							<mediatype>audio</mediatype>
							<trackindex>5</trackindex>
							<clipindex>7</clipindex>
						</link>
						<link>
							<linkclipref>clipitem-1590</linkclipref>
							<mediatype>audio</mediatype>
							<trackindex>7</trackindex>
							<clipindex>6</clipindex>
						</link>
						<logginginfo>
							<description></description>
							<scene></scene>
							<shottake>AA3149</shottake>
							<lognote></lognote>
						</logginginfo>
						<labels>
							<label2>Iris</label2>
						</labels>
					</clipitem>
					<clipitem id="clipitem-1591" frameBlend="FALSE">
						<masterclipid>masterclip-43</masterclipid>
						<name>MVI_9570.MOV</name>
						<enabled>TRUE</enabled>
						<duration>617</duration>
						<rate>
							<timebase>25</timebase>
							<ntsc>FALSE</ntsc>
						</rate>
						<start>4924</start>
						<end>4971</end>
						<in>456</in>
						<out>503</out>
						<file id="file-40"/>
						<sourcetrack>
							<mediatype>audio</mediatype>
							<trackindex>2</trackindex>
						</sourcetrack>
							<filter>
								<effect>
									<name>Audio Levels</name>
									<effectid>audiolevels</effectid>
									<effectcategory>audiolevels</effectcategory>
									<effecttype>audiolevels</effecttype>
									<mediatype>audio</mediatype>
									<parameter authoringApp="PremierePro">
										<parameterid>level</parameterid>
										<name>Level</name>
										<valuemin>0</valuemin>
										<valuemax>3.98109</valuemax>
										<value>0.223342</value>
									</parameter>
								</effect>
							</filter>
						<logginginfo>
							<description></description>
							<scene></scene>
							<shottake></shottake>
							<lognote></lognote>
						</logginginfo>
						<labels>
							<label2>Iris</label2>
						</labels>
					</clipitem>
					<clipitem id="clipitem-1592" frameBlend="FALSE">
						<masterclipid>masterclip-43</masterclipid>
						<name>MVI_9570.MOV</name>
						<enabled>TRUE</enabled>
						<duration>617</duration>
						<rate>
							<timebase>25</timebase>
							<ntsc>FALSE</ntsc>
						</rate>
						<start>4985</start>
						<end>4991</end>
						<in>547</in>
						<out>553</out>
						<file id="file-40"/>
						<sourcetrack>
							<mediatype>audio</mediatype>
							<trackindex>2</trackindex>
						</sourcetrack>
							<filter>
								<effect>
									<name>Audio Levels</name>
									<effectid>audiolevels</effectid>
									<effectcategory>audiolevels</effectcategory>
									<effecttype>audiolevels</effecttype>
									<mediatype>audio</mediatype>
									<parameter authoringApp="PremierePro">
										<parameterid>level</parameterid>
										<name>Level</name>
										<valuemin>0</valuemin>
										<valuemax>3.98109</valuemax>
										<value>0.223342</value>
									</parameter>
								</effect>
							</filter>
						<logginginfo>
							<description></description>
							<scene></scene>
							<shottake></shottake>
							<lognote></lognote>
						</logginginfo>
						<labels>
							<label2>Iris</label2>
						</labels>
					</clipitem>
					<clipitem id="clipitem-1593" frameBlend="FALSE">
						<masterclipid>masterclip-44</masterclipid>
						<name>AA313701.MXFMulticam</name>
						<enabled>TRUE</enabled>
						<duration>14040</duration>
						<rate>
							<timebase>25</timebase>
							<ntsc>FALSE</ntsc>
						</rate>
						<start>5387</start>
						<end>5419</end>
						<in>6999</in>
						<out>7031</out>
						<sequence id="sequence-112"/>
						<link>
							<linkclipref>clipitem-1500</linkclipref>
							<mediatype>audio</mediatype>
							<trackindex>5</trackindex>
							<clipindex>9</clipindex>
						</link>
						<link>
							<linkclipref>clipitem-1593</linkclipref>
							<mediatype>audio</mediatype>
							<trackindex>7</trackindex>
							<clipindex>9</clipindex>
						</link>
						<labels>
							<label2>Forest</label2>
						</labels>
					</clipitem>
					<clipitem id="clipitem-1594" frameBlend="FALSE">
						<masterclipid>masterclip-50</masterclipid>
						<name>MVI_9573.MOV</name>
						<enabled>TRUE</enabled>
						<duration>273</duration>
						<rate>
							<timebase>25</timebase>
							<ntsc>FALSE</ntsc>
						</rate>
						<start>5419</start>
						<end>5447</end>
						<in>125</in>
						<out>153</out>
						<file id="file-45"/>
						<sourcetrack>
							<mediatype>audio</mediatype>
							<trackindex>2</trackindex>
						</sourcetrack>
							<filter>
								<effect>
									<name>Audio Levels</name>
									<effectid>audiolevels</effectid>
									<effectcategory>audiolevels</effectcategory>
									<effecttype>audiolevels</effecttype>
									<mediatype>audio</mediatype>
									<parameter authoringApp="PremierePro">
										<parameterid>level</parameterid>
										<name>Level</name>
										<valuemin>0</valuemin>
										<valuemax>3.98109</valuemax>
										<value>0.099763</value>
									</parameter>
								</effect>
							</filter>
						<link>
							<linkclipref>clipitem-466</linkclipref>
							<mediatype>video</mediatype>
							<trackindex>1</trackindex>
							<clipindex>52</clipindex>
						</link>
						<link>
							<linkclipref>clipitem-1501</linkclipref>
							<mediatype>audio</mediatype>
							<trackindex>5</trackindex>
							<clipindex>10</clipindex>
						</link>
						<link>
							<linkclipref>clipitem-1594</linkclipref>
							<mediatype>audio</mediatype>
							<trackindex>7</trackindex>
							<clipindex>10</clipindex>
						</link>
						<logginginfo>
							<description></description>
							<scene></scene>
							<shottake></shottake>
							<lognote></lognote>
						</logginginfo>
						<labels>
							<label2>Iris</label2>
						</labels>
					</clipitem>
					<clipitem id="clipitem-1595" frameBlend="FALSE">
						<masterclipid>masterclip-51</masterclipid>
						<name>MVI_9574.MOV</name>
						<enabled>TRUE</enabled>
						<duration>6058</duration>
						<rate>
							<timebase>25</timebase>
							<ntsc>FALSE</ntsc>
						</rate>
						<start>5447</start>
						<end>5519</end>
						<in>4024</in>
						<out>4096</out>
						<file id="file-46"/>
						<sourcetrack>
							<mediatype>audio</mediatype>
							<trackindex>2</trackindex>
						</sourcetrack>
							<filter>
								<effect>
									<name>Audio Levels</name>
									<effectid>audiolevels</effectid>
									<effectcategory>audiolevels</effectcategory>
									<effecttype>audiolevels</effecttype>
									<mediatype>audio</mediatype>
									<parameter authoringApp="PremierePro">
										<parameterid>level</parameterid>
										<name>Level</name>
										<valuemin>0</valuemin>
										<valuemax>3.98109</valuemax>
										<value>0.099763</value>
									</parameter>
								</effect>
							</filter>
						<link>
							<linkclipref>clipitem-467</linkclipref>
							<mediatype>video</mediatype>
							<trackindex>1</trackindex>
							<clipindex>53</clipindex>
						</link>
						<link>
							<linkclipref>clipitem-1502</linkclipref>
							<mediatype>audio</mediatype>
							<trackindex>5</trackindex>
							<clipindex>11</clipindex>
						</link>
						<link>
							<linkclipref>clipitem-1595</linkclipref>
							<mediatype>audio</mediatype>
							<trackindex>7</trackindex>
							<clipindex>11</clipindex>
						</link>
						<logginginfo>
							<description></description>
							<scene></scene>
							<shottake></shottake>
							<lognote></lognote>
						</logginginfo>
						<labels>
							<label2>Iris</label2>
						</labels>
					</clipitem>
					<clipitem id="clipitem-1596" frameBlend="FALSE">
						<masterclipid>masterclip-278</masterclipid>
						<name>AA313501.MXF</name>
						<enabled>TRUE</enabled>
						<duration>6156</duration>
						<rate>
							<timebase>25</timebase>
							<ntsc>FALSE</ntsc>
						</rate>
						<start>5930</start>
						<end>5963</end>
						<in>2961</in>
						<out>2994</out>
						<file id="file-251"/>
						<sourcetrack>
							<mediatype>audio</mediatype>
							<trackindex>2</trackindex>
						</sourcetrack>
						<link>
							<linkclipref>clipitem-1503</linkclipref>
							<mediatype>audio</mediatype>
							<trackindex>5</trackindex>
							<clipindex>12</clipindex>
						</link>
						<link>
							<linkclipref>clipitem-1596</linkclipref>
							<mediatype>audio</mediatype>
							<trackindex>7</trackindex>
							<clipindex>12</clipindex>
						</link>
						<logginginfo>
							<description></description>
							<scene></scene>
							<shottake>AA3135</shottake>
							<lognote></lognote>
						</logginginfo>
						<labels>
							<label2>Iris</label2>
						</labels>
					</clipitem>
					<clipitem id="clipitem-1597" frameBlend="FALSE">
						<masterclipid>masterclip-45</masterclipid>
						<name>AA313701.MXF</name>
						<enabled>TRUE</enabled>
						<duration>14040</duration>
						<rate>
							<timebase>25</timebase>
							<ntsc>FALSE</ntsc>
						</rate>
						<start>6295</start>
						<end>6366</end>
						<in>4758</in>
						<out>4829</out>
						<file id="file-41"/>
						<sourcetrack>
							<mediatype>audio</mediatype>
							<trackindex>2</trackindex>
						</sourcetrack>
							<filter>
								<effect>
									<name>Audio Levels</name>
									<effectid>audiolevels</effectid>
									<effectcategory>audiolevels</effectcategory>
									<effecttype>audiolevels</effecttype>
									<mediatype>audio</mediatype>
									<parameter authoringApp="PremierePro">
										<parameterid>level</parameterid>
										<name>Level</name>
										<valuemin>0</valuemin>
										<valuemax>3.98109</valuemax>
										<value>0.223342</value>
									</parameter>
								</effect>
							</filter>
						<logginginfo>
							<description></description>
							<scene></scene>
							<shottake>AA3137</shottake>
							<lognote></lognote>
						</logginginfo>
						<labels>
							<label2>Iris</label2>
						</labels>
					</clipitem>
					<clipitem id="clipitem-1598" frameBlend="FALSE">
						<masterclipid>masterclip-44</masterclipid>
						<name>AA313701.MXFMulticam</name>
						<enabled>TRUE</enabled>
						<duration>14040</duration>
						<rate>
							<timebase>25</timebase>
							<ntsc>FALSE</ntsc>
						</rate>
						<start>6366</start>
						<end>6459</end>
						<in>4889</in>
						<out>4982</out>
						<sequence id="sequence-112"/>
							<filter>
								<effect>
									<name>Audio Levels</name>
									<effectid>audiolevels</effectid>
									<effectcategory>audiolevels</effectcategory>
									<effecttype>audiolevels</effecttype>
									<mediatype>audio</mediatype>
									<parameter authoringApp="PremierePro">
										<parameterid>level</parameterid>
										<name>Level</name>
										<valuemin>0</valuemin>
										<valuemax>3.98109</valuemax>
										<value>0.250593</value>
									</parameter>
								</effect>
							</filter>
						<link>
							<linkclipref>clipitem-1505</linkclipref>
							<mediatype>audio</mediatype>
							<trackindex>5</trackindex>
							<clipindex>14</clipindex>
						</link>
						<link>
							<linkclipref>clipitem-1598</linkclipref>
							<mediatype>audio</mediatype>
							<trackindex>7</trackindex>
							<clipindex>14</clipindex>
						</link>
						<labels>
							<label2>Forest</label2>
						</labels>
					</clipitem>
					<clipitem id="clipitem-1599" frameBlend="FALSE">
						<masterclipid>masterclip-54</masterclipid>
						<name>AA315301.MXF</name>
						<enabled>TRUE</enabled>
						<duration>7692</duration>
						<rate>
							<timebase>25</timebase>
							<ntsc>FALSE</ntsc>
						</rate>
						<start>8583</start>
						<end>8608</end>
						<in>6280</in>
						<out>6305</out>
						<file id="file-49"/>
						<sourcetrack>
							<mediatype>audio</mediatype>
							<trackindex>1</trackindex>
						</sourcetrack>
						<link>
							<linkclipref>clipitem-1506</linkclipref>
							<mediatype>audio</mediatype>
							<trackindex>5</trackindex>
							<clipindex>15</clipindex>
						</link>
						<link>
							<linkclipref>clipitem-1599</linkclipref>
							<mediatype>audio</mediatype>
							<trackindex>7</trackindex>
							<clipindex>15</clipindex>
						</link>
						<logginginfo>
							<description></description>
							<scene></scene>
							<shottake>AA3153</shottake>
							<lognote></lognote>
						</logginginfo>
						<labels>
							<label2>Iris</label2>
						</labels>
					</clipitem>
					<clipitem id="clipitem-1600" frameBlend="FALSE">
						<masterclipid>masterclip-63</masterclipid>
						<name>AA314001.MXFMulticam</name>
						<enabled>TRUE</enabled>
						<duration>3568</duration>
						<rate>
							<timebase>25</timebase>
							<ntsc>FALSE</ntsc>
						</rate>
						<start>8775</start>
						<end>8841</end>
						<in>263</in>
						<out>329</out>
						<sequence id="sequence-131"/>
						<link>
							<linkclipref>clipitem-501</linkclipref>
							<mediatype>video</mediatype>
							<trackindex>1</trackindex>
							<clipindex>80</clipindex>
						</link>
						<link>
							<linkclipref>clipitem-1507</linkclipref>
							<mediatype>audio</mediatype>
							<trackindex>5</trackindex>
							<clipindex>16</clipindex>
						</link>
						<link>
							<linkclipref>clipitem-1600</linkclipref>
							<mediatype>audio</mediatype>
							<trackindex>7</trackindex>
							<clipindex>16</clipindex>
						</link>
						<labels>
							<label2>Forest</label2>
						</labels>
					</clipitem>
					<clipitem id="clipitem-1601" frameBlend="FALSE">
						<masterclipid>masterclip-85</masterclipid>
						<name>MVI_0090.MOV</name>
						<enabled>TRUE</enabled>
						<duration>1932</duration>
						<rate>
							<timebase>25</timebase>
							<ntsc>FALSE</ntsc>
						</rate>
						<start>12857</start>
						<end>12974</end>
						<in>758</in>
						<out>875</out>
						<file id="file-76"/>
						<sourcetrack>
							<mediatype>audio</mediatype>
							<trackindex>2</trackindex>
						</sourcetrack>
							<filter>
								<effect>
									<name>Audio Levels</name>
									<effectid>audiolevels</effectid>
									<effectcategory>audiolevels</effectcategory>
									<effecttype>audiolevels</effecttype>
									<mediatype>audio</mediatype>
									<parameter authoringApp="PremierePro">
										<parameterid>level</parameterid>
										<name>Level</name>
										<valuemin>0</valuemin>
										<valuemax>3.98109</valuemax>
										<value>0.177406</value>
									</parameter>
								</effect>
							</filter>
						<link>
							<linkclipref>clipitem-545</linkclipref>
							<mediatype>video</mediatype>
							<trackindex>1</trackindex>
							<clipindex>105</clipindex>
						</link>
						<link>
							<linkclipref>clipitem-1528</linkclipref>
							<mediatype>audio</mediatype>
							<trackindex>5</trackindex>
							<clipindex>22</clipindex>
						</link>
						<link>
							<linkclipref>clipitem-1601</linkclipref>
							<mediatype>audio</mediatype>
							<trackindex>7</trackindex>
							<clipindex>17</clipindex>
						</link>
						<logginginfo>
							<description></description>
							<scene></scene>
							<shottake></shottake>
							<lognote></lognote>
						</logginginfo>
						<labels>
							<label2>Iris</label2>
						</labels>
					</clipitem>
					<clipitem id="clipitem-1602" frameBlend="FALSE">
						<masterclipid>masterclip-85</masterclipid>
						<name>MVI_0090.MOV</name>
						<enabled>TRUE</enabled>
						<duration>1932</duration>
						<rate>
							<timebase>25</timebase>
							<ntsc>FALSE</ntsc>
						</rate>
						<start>12974</start>
						<end>-1</end>
						<in>1760</in>
						<out>1852</out>
						<file id="file-76"/>
						<sourcetrack>
							<mediatype>audio</mediatype>
							<trackindex>2</trackindex>
						</sourcetrack>
							<filter>
								<effect>
									<name>Audio Levels</name>
									<effectid>audiolevels</effectid>
									<effectcategory>audiolevels</effectcategory>
									<effecttype>audiolevels</effecttype>
									<mediatype>audio</mediatype>
									<parameter authoringApp="PremierePro">
										<parameterid>level</parameterid>
										<name>Level</name>
										<valuemin>0</valuemin>
										<valuemax>3.98109</valuemax>
										<value>0.125594</value>
									</parameter>
								</effect>
							</filter>
						<link>
							<linkclipref>clipitem-546</linkclipref>
							<mediatype>video</mediatype>
							<trackindex>1</trackindex>
							<clipindex>106</clipindex>
						</link>
						<link>
							<linkclipref>clipitem-1529</linkclipref>
							<mediatype>audio</mediatype>
							<trackindex>5</trackindex>
							<clipindex>23</clipindex>
						</link>
						<link>
							<linkclipref>clipitem-1602</linkclipref>
							<mediatype>audio</mediatype>
							<trackindex>7</trackindex>
							<clipindex>18</clipindex>
						</link>
						<logginginfo>
							<description></description>
							<scene></scene>
							<shottake></shottake>
							<lognote></lognote>
						</logginginfo>
						<labels>
							<label2>Iris</label2>
						</labels>
					</clipitem>
					<transitionitem>
						<start>13031</start>
						<end>13066</end>
						<alignment>end-black</alignment>
						<cutPoint>35</cutPoint>
						<rate>
							<timebase>25</timebase>
							<ntsc>FALSE</ntsc>
						</rate>
						<effect>
							<name>Cross Fade (+3dB)</name>
							<effectid>KGAudioTransCrossFade3dB</effectid>
							<effecttype>transition</effecttype>
							<mediatype>audio</mediatype>
							<wipecode>0</wipecode>
							<wipeaccuracy>100</wipeaccuracy>
							<startratio>0</startratio>
							<endratio>1</endratio>
							<reverse>FALSE</reverse>
						</effect>
					</transitionitem>
					<clipitem id="clipitem-1603" frameBlend="FALSE">
						<masterclipid>masterclip-90</masterclipid>
						<name>AA021101.MXF</name>
						<enabled>TRUE</enabled>
						<duration>576</duration>
						<rate>
							<timebase>25</timebase>
							<ntsc>FALSE</ntsc>
						</rate>
						<start>13301</start>
						<end>13373</end>
						<in>291</in>
						<out>363</out>
						<file id="file-80"/>
						<sourcetrack>
							<mediatype>audio</mediatype>
							<trackindex>2</trackindex>
						</sourcetrack>
							<filter>
								<effect>
									<name>Audio Levels</name>
									<effectid>audiolevels</effectid>
									<effectcategory>audiolevels</effectcategory>
									<effecttype>audiolevels</effecttype>
									<mediatype>audio</mediatype>
									<parameter authoringApp="PremierePro">
										<parameterid>level</parameterid>
										<name>Level</name>
										<valuemin>0</valuemin>
										<valuemax>3.98109</valuemax>
										<value>0.353972</value>
									</parameter>
								</effect>
							</filter>
						<logginginfo>
							<description></description>
							<scene></scene>
							<shottake>AA0211</shottake>
							<lognote></lognote>
						</logginginfo>
						<labels>
							<label2>Iris</label2>
						</labels>
					</clipitem>
					<clipitem id="clipitem-1604" frameBlend="FALSE">
						<masterclipid>masterclip-91</masterclipid>
						<name>AA016701.MXF</name>
						<enabled>TRUE</enabled>
						<duration>7344</duration>
						<rate>
							<timebase>25</timebase>
							<ntsc>FALSE</ntsc>
						</rate>
						<start>13373</start>
						<end>13457</end>
						<in>1514</in>
						<out>1598</out>
						<file id="file-81"/>
						<sourcetrack>
							<mediatype>audio</mediatype>
							<trackindex>2</trackindex>
						</sourcetrack>
							<filter>
								<effect>
									<name>Audio Levels</name>
									<effectid>audiolevels</effectid>
									<effectcategory>audiolevels</effectcategory>
									<effecttype>audiolevels</effecttype>
									<mediatype>audio</mediatype>
									<parameter authoringApp="PremierePro">
										<parameterid>level</parameterid>
										<name>Level</name>
										<valuemin>0</valuemin>
										<valuemax>3.98109</valuemax>
										<value>0.353972</value>
									</parameter>
								</effect>
							</filter>
						<link>
							<linkclipref>clipitem-557</linkclipref>
							<mediatype>video</mediatype>
							<trackindex>1</trackindex>
							<clipindex>111</clipindex>
						</link>
						<link>
							<linkclipref>clipitem-1531</linkclipref>
							<mediatype>audio</mediatype>
							<trackindex>5</trackindex>
							<clipindex>26</clipindex>
						</link>
						<link>
							<linkclipref>clipitem-1604</linkclipref>
							<mediatype>audio</mediatype>
							<trackindex>7</trackindex>
							<clipindex>21</clipindex>
						</link>
						<logginginfo>
							<description></description>
							<scene></scene>
							<shottake>AA0167</shottake>
							<lognote></lognote>
						</logginginfo>
						<labels>
							<label2>Iris</label2>
						</labels>
					</clipitem>
					<clipitem id="clipitem-1605" frameBlend="FALSE">
						<masterclipid>masterclip-91</masterclipid>
						<name>AA016701.MXF</name>
						<enabled>TRUE</enabled>
						<duration>7344</duration>
						<rate>
							<timebase>25</timebase>
							<ntsc>FALSE</ntsc>
						</rate>
						<start>13457</start>
						<end>13579</end>
						<in>1967</in>
						<out>2089</out>
						<file id="file-81"/>
						<sourcetrack>
							<mediatype>audio</mediatype>
							<trackindex>2</trackindex>
						</sourcetrack>
							<filter>
								<effect>
									<name>Audio Levels</name>
									<effectid>audiolevels</effectid>
									<effectcategory>audiolevels</effectcategory>
									<effecttype>audiolevels</effecttype>
									<mediatype>audio</mediatype>
									<parameter authoringApp="PremierePro">
										<parameterid>level</parameterid>
										<name>Level</name>
										<valuemin>0</valuemin>
										<valuemax>3.98109</valuemax>
										<value>0.445625</value>
									</parameter>
								</effect>
							</filter>
						<link>
							<linkclipref>clipitem-558</linkclipref>
							<mediatype>video</mediatype>
							<trackindex>1</trackindex>
							<clipindex>112</clipindex>
						</link>
						<link>
							<linkclipref>clipitem-1532</linkclipref>
							<mediatype>audio</mediatype>
							<trackindex>5</trackindex>
							<clipindex>27</clipindex>
						</link>
						<link>
							<linkclipref>clipitem-1605</linkclipref>
							<mediatype>audio</mediatype>
							<trackindex>7</trackindex>
							<clipindex>22</clipindex>
						</link>
						<logginginfo>
							<description></description>
							<scene></scene>
							<shottake>AA0167</shottake>
							<lognote></lognote>
						</logginginfo>
						<labels>
							<label2>Iris</label2>
						</labels>
					</clipitem>
					<clipitem id="clipitem-1606" frameBlend="FALSE">
						<masterclipid>masterclip-12</masterclipid>
						<name>MVI_0119.MOV</name>
						<enabled>TRUE</enabled>
						<duration>214</duration>
						<rate>
							<timebase>25</timebase>
							<ntsc>FALSE</ntsc>
						</rate>
						<start>14433</start>
						<end>14551</end>
						<in>0</in>
						<out>118</out>
						<file id="file-11"/>
						<sourcetrack>
							<mediatype>audio</mediatype>
							<trackindex>1</trackindex>
						</sourcetrack>
							<filter>
								<effect>
									<name>Audio Levels</name>
									<effectid>audiolevels</effectid>
									<effectcategory>audiolevels</effectcategory>
									<effecttype>audiolevels</effecttype>
									<mediatype>audio</mediatype>
									<parameter authoringApp="PremierePro">
										<parameterid>level</parameterid>
										<name>Level</name>
										<valuemin>0</valuemin>
										<valuemax>3.98109</valuemax>
										<value>0.123441</value>
									</parameter>
								</effect>
							</filter>
						<link>
							<linkclipref>clipitem-582</linkclipref>
							<mediatype>video</mediatype>
							<trackindex>1</trackindex>
							<clipindex>124</clipindex>
						</link>
						<link>
							<linkclipref>clipitem-1606</linkclipref>
							<mediatype>audio</mediatype>
							<trackindex>7</trackindex>
							<clipindex>23</clipindex>
						</link>
						<logginginfo>
							<description></description>
							<scene></scene>
							<shottake></shottake>
							<lognote></lognote>
						</logginginfo>
						<labels>
							<label2>Iris</label2>
						</labels>
					</clipitem>
					<clipitem id="clipitem-1607" frameBlend="FALSE">
						<masterclipid>masterclip-13</masterclipid>
						<name>MVI_0130.MOV</name>
						<enabled>TRUE</enabled>
						<duration>1756</duration>
						<rate>
							<timebase>25</timebase>
							<ntsc>FALSE</ntsc>
						</rate>
						<start>14551</start>
						<end>14797</end>
						<in>180</in>
						<out>426</out>
						<file id="file-12"/>
						<sourcetrack>
							<mediatype>audio</mediatype>
							<trackindex>1</trackindex>
						</sourcetrack>
							<filter>
								<effect>
									<name>Audio Levels</name>
									<effectid>audiolevels</effectid>
									<effectcategory>audiolevels</effectcategory>
									<effecttype>audiolevels</effecttype>
									<mediatype>audio</mediatype>
									<parameter authoringApp="PremierePro">
										<parameterid>level</parameterid>
										<name>Level</name>
										<valuemin>0</valuemin>
										<valuemax>3.98109</valuemax>
										<value>0.112903</value>
									</parameter>
								</effect>
							</filter>
						<link>
							<linkclipref>clipitem-583</linkclipref>
							<mediatype>video</mediatype>
							<trackindex>1</trackindex>
							<clipindex>125</clipindex>
						</link>
						<link>
							<linkclipref>clipitem-1607</linkclipref>
							<mediatype>audio</mediatype>
							<trackindex>7</trackindex>
							<clipindex>24</clipindex>
						</link>
						<logginginfo>
							<description></description>
							<scene></scene>
							<shottake></shottake>
							<lognote></lognote>
						</logginginfo>
						<labels>
							<label2>Iris</label2>
						</labels>
					</clipitem>
					<clipitem id="clipitem-1608" frameBlend="FALSE">
						<masterclipid>masterclip-100</masterclipid>
						<name>MVI_0132.MOV</name>
						<enabled>TRUE</enabled>
						<duration>454</duration>
						<rate>
							<timebase>25</timebase>
							<ntsc>FALSE</ntsc>
						</rate>
						<start>14797</start>
						<end>14835</end>
						<in>58</in>
						<out>96</out>
						<file id="file-89"/>
						<sourcetrack>
							<mediatype>audio</mediatype>
							<trackindex>1</trackindex>
						</sourcetrack>
							<filter>
								<effect>
									<name>Audio Levels</name>
									<effectid>audiolevels</effectid>
									<effectcategory>audiolevels</effectcategory>
									<effecttype>audiolevels</effecttype>
									<mediatype>audio</mediatype>
									<parameter authoringApp="PremierePro">
										<parameterid>level</parameterid>
										<name>Level</name>
										<valuemin>0</valuemin>
										<valuemax>3.98109</valuemax>
										<value>0.0908667</value>
									</parameter>
								</effect>
							</filter>
						<link>
							<linkclipref>clipitem-585</linkclipref>
							<mediatype>video</mediatype>
							<trackindex>1</trackindex>
							<clipindex>127</clipindex>
						</link>
						<link>
							<linkclipref>clipitem-1608</linkclipref>
							<mediatype>audio</mediatype>
							<trackindex>7</trackindex>
							<clipindex>25</clipindex>
						</link>
						<logginginfo>
							<description></description>
							<scene></scene>
							<shottake></shottake>
							<lognote></lognote>
						</logginginfo>
						<labels>
							<label2>Iris</label2>
						</labels>
					</clipitem>
					<clipitem id="clipitem-1609" frameBlend="FALSE">
						<masterclipid>masterclip-100</masterclipid>
						<name>MVI_0132.MOV</name>
						<enabled>TRUE</enabled>
						<duration>454</duration>
						<rate>
							<timebase>25</timebase>
							<ntsc>FALSE</ntsc>
						</rate>
						<start>14835</start>
						<end>14939</end>
						<in>96</in>
						<out>200</out>
						<file id="file-89"/>
						<sourcetrack>
							<mediatype>audio</mediatype>
							<trackindex>1</trackindex>
						</sourcetrack>
							<filter>
								<effect>
									<name>Audio Levels</name>
									<effectid>audiolevels</effectid>
									<effectcategory>audiolevels</effectcategory>
									<effecttype>audiolevels</effecttype>
									<mediatype>audio</mediatype>
									<parameter authoringApp="PremierePro">
										<parameterid>level</parameterid>
										<name>Level</name>
										<valuemin>0</valuemin>
										<valuemax>3.98109</valuemax>
										<value>0.0908667</value>
									</parameter>
								</effect>
							</filter>
						<logginginfo>
							<description></description>
							<scene></scene>
							<shottake></shottake>
							<lognote></lognote>
						</logginginfo>
						<labels>
							<label2>Iris</label2>
						</labels>
					</clipitem>
					<clipitem id="clipitem-1610" frameBlend="FALSE">
						<masterclipid>masterclip-105</masterclipid>
						<name>AA018801.MXF</name>
						<enabled>TRUE</enabled>
						<duration>5628</duration>
						<rate>
							<timebase>25</timebase>
							<ntsc>FALSE</ntsc>
						</rate>
						<start>15642</start>
						<end>15784</end>
						<in>2799</in>
						<out>2941</out>
						<file id="file-93"/>
						<sourcetrack>
							<mediatype>audio</mediatype>
							<trackindex>2</trackindex>
						</sourcetrack>
							<filter>
								<effect>
									<name>Audio Levels</name>
									<effectid>audiolevels</effectid>
									<effectcategory>audiolevels</effectcategory>
									<effecttype>audiolevels</effecttype>
									<mediatype>audio</mediatype>
									<parameter authoringApp="PremierePro">
										<parameterid>level</parameterid>
										<name>Level</name>
										<valuemin>0</valuemin>
										<valuemax>3.98109</valuemax>
										<value>0.0792446</value>
									</parameter>
								</effect>
							</filter>
						<link>
							<linkclipref>clipitem-599</linkclipref>
							<mediatype>video</mediatype>
							<trackindex>1</trackindex>
							<clipindex>135</clipindex>
						</link>
						<link>
							<linkclipref>clipitem-1533</linkclipref>
							<mediatype>audio</mediatype>
							<trackindex>5</trackindex>
							<clipindex>28</clipindex>
						</link>
						<link>
							<linkclipref>clipitem-1610</linkclipref>
							<mediatype>audio</mediatype>
							<trackindex>7</trackindex>
							<clipindex>27</clipindex>
						</link>
						<logginginfo>
							<description></description>
							<scene></scene>
							<shottake>AA0188</shottake>
							<lognote></lognote>
						</logginginfo>
						<labels>
							<label2>Iris</label2>
						</labels>
					</clipitem>
					<clipitem id="clipitem-1611" frameBlend="FALSE">
						<masterclipid>masterclip-107</masterclipid>
						<name>AA019501.MXF</name>
						<enabled>TRUE</enabled>
						<duration>312</duration>
						<rate>
							<timebase>25</timebase>
							<ntsc>FALSE</ntsc>
						</rate>
						<start>15784</start>
						<end>15891</end>
						<in>146</in>
						<out>253</out>
						<file id="file-95"/>
						<sourcetrack>
							<mediatype>audio</mediatype>
							<trackindex>2</trackindex>
						</sourcetrack>
							<filter>
								<effect>
									<name>Audio Levels</name>
									<effectid>audiolevels</effectid>
									<effectcategory>audiolevels</effectcategory>
									<effecttype>audiolevels</effecttype>
									<mediatype>audio</mediatype>
									<parameter authoringApp="PremierePro">
										<parameterid>level</parameterid>
										<name>Level</name>
										<valuemin>0</valuemin>
										<valuemax>3.98109</valuemax>
										<value>0.0792446</value>
									</parameter>
								</effect>
							</filter>
						<link>
							<linkclipref>clipitem-1534</linkclipref>
							<mediatype>audio</mediatype>
							<trackindex>5</trackindex>
							<clipindex>29</clipindex>
						</link>
						<link>
							<linkclipref>clipitem-1611</linkclipref>
							<mediatype>audio</mediatype>
							<trackindex>7</trackindex>
							<clipindex>28</clipindex>
						</link>
						<logginginfo>
							<description></description>
							<scene></scene>
							<shottake>AA0195</shottake>
							<lognote></lognote>
						</logginginfo>
						<labels>
							<label2>Iris</label2>
						</labels>
					</clipitem>
					<clipitem id="clipitem-1612" frameBlend="FALSE">
						<masterclipid>masterclip-111</masterclipid>
						<name>MVI_0458.MOV</name>
						<enabled>TRUE</enabled>
						<duration>10499</duration>
						<rate>
							<timebase>25</timebase>
							<ntsc>FALSE</ntsc>
						</rate>
						<start>16880</start>
						<end>16978</end>
						<in>9753</in>
						<out>9851</out>
						<file id="file-99"/>
						<sourcetrack>
							<mediatype>audio</mediatype>
							<trackindex>2</trackindex>
						</sourcetrack>
						<logginginfo>
							<description></description>
							<scene></scene>
							<shottake></shottake>
							<lognote></lognote>
						</logginginfo>
						<labels>
							<label2>Iris</label2>
						</labels>
					</clipitem>
					<clipitem id="clipitem-1613" frameBlend="FALSE">
						<masterclipid>masterclip-109</masterclipid>
						<name>MVI_0400.MOV</name>
						<enabled>TRUE</enabled>
						<duration>1914</duration>
						<rate>
							<timebase>25</timebase>
							<ntsc>FALSE</ntsc>
						</rate>
						<start>18191</start>
						<end>18329</end>
						<in>785</in>
						<out>923</out>
						<file id="file-97"/>
						<sourcetrack>
							<mediatype>audio</mediatype>
							<trackindex>2</trackindex>
						</sourcetrack>
							<filter>
								<effect>
									<name>Audio Levels</name>
									<effectid>audiolevels</effectid>
									<effectcategory>audiolevels</effectcategory>
									<effecttype>audiolevels</effecttype>
									<mediatype>audio</mediatype>
									<parameter authoringApp="PremierePro">
										<parameterid>level</parameterid>
										<name>Level</name>
										<valuemin>0</valuemin>
										<valuemax>3.98109</valuemax>
										<value>0.185185</value>
									</parameter>
								</effect>
							</filter>
						<link>
							<linkclipref>clipitem-622</linkclipref>
							<mediatype>video</mediatype>
							<trackindex>1</trackindex>
							<clipindex>158</clipindex>
						</link>
						<link>
							<linkclipref>clipitem-1542</linkclipref>
							<mediatype>audio</mediatype>
							<trackindex>5</trackindex>
							<clipindex>37</clipindex>
						</link>
						<link>
							<linkclipref>clipitem-1613</linkclipref>
							<mediatype>audio</mediatype>
							<trackindex>7</trackindex>
							<clipindex>30</clipindex>
						</link>
						<logginginfo>
							<description></description>
							<scene></scene>
							<shottake></shottake>
							<lognote></lognote>
						</logginginfo>
						<labels>
							<label2>Iris</label2>
						</labels>
					</clipitem>
					<clipitem id="clipitem-1614" frameBlend="FALSE">
						<masterclipid>masterclip-117</masterclipid>
						<name>MVI_0416.MOV</name>
						<enabled>TRUE</enabled>
						<duration>274</duration>
						<rate>
							<timebase>25</timebase>
							<ntsc>FALSE</ntsc>
						</rate>
						<start>18329</start>
						<end>18475</end>
						<in>115</in>
						<out>261</out>
						<file id="file-105"/>
						<sourcetrack>
							<mediatype>audio</mediatype>
							<trackindex>2</trackindex>
						</sourcetrack>
							<filter>
								<effect>
									<name>Audio Levels</name>
									<effectid>audiolevels</effectid>
									<effectcategory>audiolevels</effectcategory>
									<effecttype>audiolevels</effecttype>
									<mediatype>audio</mediatype>
									<parameter authoringApp="PremierePro">
										<parameterid>level</parameterid>
										<name>Level</name>
										<valuemin>0</valuemin>
										<valuemax>3.98109</valuemax>
										<value>0.315478</value>
									</parameter>
								</effect>
							</filter>
						<link>
							<linkclipref>clipitem-623</linkclipref>
							<mediatype>video</mediatype>
							<trackindex>1</trackindex>
							<clipindex>159</clipindex>
						</link>
						<link>
							<linkclipref>clipitem-1543</linkclipref>
							<mediatype>audio</mediatype>
							<trackindex>5</trackindex>
							<clipindex>38</clipindex>
						</link>
						<link>
							<linkclipref>clipitem-1614</linkclipref>
							<mediatype>audio</mediatype>
							<trackindex>7</trackindex>
							<clipindex>31</clipindex>
						</link>
						<logginginfo>
							<description></description>
							<scene></scene>
							<shottake></shottake>
							<lognote></lognote>
						</logginginfo>
						<labels>
							<label2>Iris</label2>
						</labels>
					</clipitem>
					<clipitem id="clipitem-1615" frameBlend="FALSE">
						<masterclipid>masterclip-118</masterclipid>
						<name>MVI_0424.MOV</name>
						<enabled>TRUE</enabled>
						<duration>354</duration>
						<rate>
							<timebase>25</timebase>
							<ntsc>FALSE</ntsc>
						</rate>
						<start>18475</start>
						<end>18555</end>
						<in>192</in>
						<out>272</out>
						<file id="file-106"/>
						<sourcetrack>
							<mediatype>audio</mediatype>
							<trackindex>2</trackindex>
						</sourcetrack>
							<filter>
								<effect>
									<name>Audio Levels</name>
									<effectid>audiolevels</effectid>
									<effectcategory>audiolevels</effectcategory>
									<effecttype>audiolevels</effecttype>
									<mediatype>audio</mediatype>
									<parameter authoringApp="PremierePro">
										<parameterid>level</parameterid>
										<name>Level</name>
										<valuemin>0</valuemin>
										<valuemax>3.98109</valuemax>
										<value>0.140919</value>
									</parameter>
								</effect>
							</filter>
						<logginginfo>
							<description></description>
							<scene></scene>
							<shottake></shottake>
							<lognote></lognote>
						</logginginfo>
						<labels>
							<label2>Iris</label2>
						</labels>
					</clipitem>
					<clipitem id="clipitem-1616" frameBlend="FALSE">
						<masterclipid>masterclip-119</masterclipid>
						<name>MVI_0423.MOV</name>
						<enabled>TRUE</enabled>
						<duration>851</duration>
						<rate>
							<timebase>25</timebase>
							<ntsc>FALSE</ntsc>
						</rate>
						<start>18555</start>
						<end>18616</end>
						<in>92</in>
						<out>153</out>
						<file id="file-107"/>
						<sourcetrack>
							<mediatype>audio</mediatype>
							<trackindex>2</trackindex>
						</sourcetrack>
							<filter>
								<effect>
									<name>Audio Levels</name>
									<effectid>audiolevels</effectid>
									<effectcategory>audiolevels</effectcategory>
									<effecttype>audiolevels</effecttype>
									<mediatype>audio</mediatype>
									<parameter authoringApp="PremierePro">
										<parameterid>level</parameterid>
										<name>Level</name>
										<valuemin>0</valuemin>
										<valuemax>3.98109</valuemax>
										<value>0.140919</value>
									</parameter>
								</effect>
							</filter>
						<link>
							<linkclipref>clipitem-1545</linkclipref>
							<mediatype>audio</mediatype>
							<trackindex>5</trackindex>
							<clipindex>40</clipindex>
						</link>
						<link>
							<linkclipref>clipitem-1616</linkclipref>
							<mediatype>audio</mediatype>
							<trackindex>7</trackindex>
							<clipindex>33</clipindex>
						</link>
						<logginginfo>
							<description></description>
							<scene></scene>
							<shottake></shottake>
							<lognote></lognote>
						</logginginfo>
						<labels>
							<label2>Iris</label2>
						</labels>
					</clipitem>
					<clipitem id="clipitem-1617" frameBlend="FALSE">
						<masterclipid>masterclip-120</masterclipid>
						<name>MVI_0433.MOV</name>
						<enabled>TRUE</enabled>
						<duration>502</duration>
						<rate>
							<timebase>25</timebase>
							<ntsc>FALSE</ntsc>
						</rate>
						<start>18616</start>
						<end>18645</end>
						<in>205</in>
						<out>234</out>
						<file id="file-108"/>
						<sourcetrack>
							<mediatype>audio</mediatype>
							<trackindex>2</trackindex>
						</sourcetrack>
							<filter>
								<effect>
									<name>Audio Levels</name>
									<effectid>audiolevels</effectid>
									<effectcategory>audiolevels</effectcategory>
									<effecttype>audiolevels</effecttype>
									<mediatype>audio</mediatype>
									<parameter authoringApp="PremierePro">
										<parameterid>level</parameterid>
										<name>Level</name>
										<valuemin>0</valuemin>
										<valuemax>3.98109</valuemax>
										<value>0.140919</value>
									</parameter>
								</effect>
							</filter>
						<link>
							<linkclipref>clipitem-1546</linkclipref>
							<mediatype>audio</mediatype>
							<trackindex>5</trackindex>
							<clipindex>41</clipindex>
						</link>
						<link>
							<linkclipref>clipitem-1617</linkclipref>
							<mediatype>audio</mediatype>
							<trackindex>7</trackindex>
							<clipindex>34</clipindex>
						</link>
						<logginginfo>
							<description></description>
							<scene></scene>
							<shottake></shottake>
							<lognote></lognote>
						</logginginfo>
						<labels>
							<label2>Iris</label2>
						</labels>
					</clipitem>
					<clipitem id="clipitem-1618" frameBlend="FALSE">
						<masterclipid>masterclip-120</masterclipid>
						<name>MVI_0433.MOV</name>
						<enabled>TRUE</enabled>
						<duration>502</duration>
						<rate>
							<timebase>25</timebase>
							<ntsc>FALSE</ntsc>
						</rate>
						<start>18645</start>
						<end>18744</end>
						<in>266</in>
						<out>365</out>
						<file id="file-108"/>
						<sourcetrack>
							<mediatype>audio</mediatype>
							<trackindex>2</trackindex>
						</sourcetrack>
							<filter>
								<effect>
									<name>Audio Levels</name>
									<effectid>audiolevels</effectid>
									<effectcategory>audiolevels</effectcategory>
									<effecttype>audiolevels</effecttype>
									<mediatype>audio</mediatype>
									<parameter authoringApp="PremierePro">
										<parameterid>level</parameterid>
										<name>Level</name>
										<valuemin>0</valuemin>
										<valuemax>3.98109</valuemax>
										<value>0.140919</value>
									</parameter>
								</effect>
							</filter>
						<link>
							<linkclipref>clipitem-626</linkclipref>
							<mediatype>video</mediatype>
							<trackindex>1</trackindex>
							<clipindex>162</clipindex>
						</link>
						<link>
							<linkclipref>clipitem-1547</linkclipref>
							<mediatype>audio</mediatype>
							<trackindex>5</trackindex>
							<clipindex>42</clipindex>
						</link>
						<link>
							<linkclipref>clipitem-1618</linkclipref>
							<mediatype>audio</mediatype>
							<trackindex>7</trackindex>
							<clipindex>35</clipindex>
						</link>
						<logginginfo>
							<description></description>
							<scene></scene>
							<shottake></shottake>
							<lognote></lognote>
						</logginginfo>
						<labels>
							<label2>Iris</label2>
						</labels>
					</clipitem>
					<clipitem id="clipitem-1619" frameBlend="FALSE">
						<masterclipid>masterclip-121</masterclipid>
						<name>MVI_0425.MOV</name>
						<enabled>TRUE</enabled>
						<duration>198</duration>
						<rate>
							<timebase>25</timebase>
							<ntsc>FALSE</ntsc>
						</rate>
						<start>18744</start>
						<end>18811</end>
						<in>28</in>
						<out>95</out>
						<file id="file-109"/>
						<sourcetrack>
							<mediatype>audio</mediatype>
							<trackindex>2</trackindex>
						</sourcetrack>
							<filter>
								<effect>
									<name>Audio Levels</name>
									<effectid>audiolevels</effectid>
									<effectcategory>audiolevels</effectcategory>
									<effecttype>audiolevels</effecttype>
									<mediatype>audio</mediatype>
									<parameter authoringApp="PremierePro">
										<parameterid>level</parameterid>
										<name>Level</name>
										<valuemin>0</valuemin>
										<valuemax>3.98109</valuemax>
										<value>0.125594</value>
									</parameter>
								</effect>
							</filter>
						<link>
							<linkclipref>clipitem-627</linkclipref>
							<mediatype>video</mediatype>
							<trackindex>1</trackindex>
							<clipindex>163</clipindex>
						</link>
						<link>
							<linkclipref>clipitem-1548</linkclipref>
							<mediatype>audio</mediatype>
							<trackindex>5</trackindex>
							<clipindex>43</clipindex>
						</link>
						<link>
							<linkclipref>clipitem-1619</linkclipref>
							<mediatype>audio</mediatype>
							<trackindex>7</trackindex>
							<clipindex>36</clipindex>
						</link>
						<logginginfo>
							<description></description>
							<scene></scene>
							<shottake></shottake>
							<lognote></lognote>
						</logginginfo>
						<labels>
							<label2>Iris</label2>
						</labels>
					</clipitem>
					<clipitem id="clipitem-1620" frameBlend="FALSE">
						<masterclipid>masterclip-129</masterclipid>
						<name>MVI_0396.MOV</name>
						<enabled>TRUE</enabled>
						<duration>717</duration>
						<rate>
							<timebase>25</timebase>
							<ntsc>FALSE</ntsc>
						</rate>
						<start>20438</start>
						<end>20671</end>
						<in>200</in>
						<out>433</out>
						<file id="file-117"/>
						<sourcetrack>
							<mediatype>audio</mediatype>
							<trackindex>2</trackindex>
						</sourcetrack>
							<filter>
								<effect>
									<name>Audio Levels</name>
									<effectid>audiolevels</effectid>
									<effectcategory>audiolevels</effectcategory>
									<effecttype>audiolevels</effecttype>
									<mediatype>audio</mediatype>
									<parameter authoringApp="PremierePro">
										<parameterid>level</parameterid>
										<name>Level</name>
										<valuemin>0</valuemin>
										<valuemax>3.98109</valuemax>
										<value>0.0792446</value>
									</parameter>
								</effect>
							</filter>
						<link>
							<linkclipref>clipitem-642</linkclipref>
							<mediatype>video</mediatype>
							<trackindex>1</trackindex>
							<clipindex>178</clipindex>
						</link>
						<link>
							<linkclipref>clipitem-1549</linkclipref>
							<mediatype>audio</mediatype>
							<trackindex>5</trackindex>
							<clipindex>44</clipindex>
						</link>
						<link>
							<linkclipref>clipitem-1620</linkclipref>
							<mediatype>audio</mediatype>
							<trackindex>7</trackindex>
							<clipindex>37</clipindex>
						</link>
						<logginginfo>
							<description></description>
							<scene></scene>
							<shottake></shottake>
							<lognote></lognote>
						</logginginfo>
						<labels>
							<label2>Iris</label2>
						</labels>
					</clipitem>
					<clipitem id="clipitem-1621" frameBlend="FALSE">
						<masterclipid>masterclip-129</masterclipid>
						<name>MVI_0396.MOV</name>
						<enabled>TRUE</enabled>
						<duration>717</duration>
						<rate>
							<timebase>25</timebase>
							<ntsc>FALSE</ntsc>
						</rate>
						<start>20671</start>
						<end>-1</end>
						<in>530</in>
						<out>675</out>
						<file id="file-117"/>
						<sourcetrack>
							<mediatype>audio</mediatype>
							<trackindex>2</trackindex>
						</sourcetrack>
							<filter>
								<effect>
									<name>Audio Levels</name>
									<effectid>audiolevels</effectid>
									<effectcategory>audiolevels</effectcategory>
									<effecttype>audiolevels</effecttype>
									<mediatype>audio</mediatype>
									<parameter authoringApp="PremierePro">
										<parameterid>level</parameterid>
										<name>Level</name>
										<valuemin>0</valuemin>
										<valuemax>3.98109</valuemax>
										<value>0.177406</value>
									</parameter>
								</effect>
							</filter>
						<link>
							<linkclipref>clipitem-643</linkclipref>
							<mediatype>video</mediatype>
							<trackindex>1</trackindex>
							<clipindex>179</clipindex>
						</link>
						<link>
							<linkclipref>clipitem-1550</linkclipref>
							<mediatype>audio</mediatype>
							<trackindex>5</trackindex>
							<clipindex>45</clipindex>
						</link>
						<link>
							<linkclipref>clipitem-1621</linkclipref>
							<mediatype>audio</mediatype>
							<trackindex>7</trackindex>
							<clipindex>38</clipindex>
						</link>
						<logginginfo>
							<description></description>
							<scene></scene>
							<shottake></shottake>
							<lognote></lognote>
						</logginginfo>
						<labels>
							<label2>Iris</label2>
						</labels>
					</clipitem>
					<transitionitem>
						<start>20803</start>
						<end>20816</end>
						<alignment>end-black</alignment>
						<cutPoint>13</cutPoint>
						<rate>
							<timebase>25</timebase>
							<ntsc>FALSE</ntsc>
						</rate>
						<effect>
							<name>Cross Fade (+3dB)</name>
							<effectid>KGAudioTransCrossFade3dB</effectid>
							<effecttype>transition</effecttype>
							<mediatype>audio</mediatype>
							<wipecode>0</wipecode>
							<wipeaccuracy>100</wipeaccuracy>
							<startratio>0</startratio>
							<endratio>1</endratio>
							<reverse>FALSE</reverse>
						</effect>
					</transitionitem>
					<clipitem id="clipitem-1622" frameBlend="FALSE">
						<masterclipid>masterclip-136</masterclipid>
						<name>AA015401.MXF</name>
						<enabled>TRUE</enabled>
						<duration>1908</duration>
						<rate>
							<timebase>25</timebase>
							<ntsc>FALSE</ntsc>
						</rate>
						<start>21445</start>
						<end>21577</end>
						<in>699</in>
						<out>831</out>
						<file id="file-123"/>
						<sourcetrack>
							<mediatype>audio</mediatype>
							<trackindex>2</trackindex>
						</sourcetrack>
							<filter>
								<effect>
									<name>Audio Levels</name>
									<effectid>audiolevels</effectid>
									<effectcategory>audiolevels</effectcategory>
									<effecttype>audiolevels</effecttype>
									<mediatype>audio</mediatype>
									<parameter authoringApp="PremierePro">
										<parameterid>level</parameterid>
										<name>Level</name>
										<valuemin>0</valuemin>
										<valuemax>3.98109</valuemax>
										<value>0.706268</value>
									</parameter>
								</effect>
							</filter>
						<link>
							<linkclipref>clipitem-660</linkclipref>
							<mediatype>video</mediatype>
							<trackindex>1</trackindex>
							<clipindex>187</clipindex>
						</link>
						<link>
							<linkclipref>clipitem-1551</linkclipref>
							<mediatype>audio</mediatype>
							<trackindex>5</trackindex>
							<clipindex>47</clipindex>
						</link>
						<link>
							<linkclipref>clipitem-1622</linkclipref>
							<mediatype>audio</mediatype>
							<trackindex>7</trackindex>
							<clipindex>40</clipindex>
						</link>
						<logginginfo>
							<description></description>
							<scene></scene>
							<shottake>AA0154</shottake>
							<lognote></lognote>
						</logginginfo>
						<labels>
							<label2>Iris</label2>
						</labels>
					</clipitem>
					<clipitem id="clipitem-1623" frameBlend="FALSE">
						<masterclipid>masterclip-136</masterclipid>
						<name>AA015401.MXF</name>
						<enabled>TRUE</enabled>
						<duration>1908</duration>
						<rate>
							<timebase>25</timebase>
							<ntsc>FALSE</ntsc>
						</rate>
						<start>21577</start>
						<end>21708</end>
						<in>699</in>
						<out>830</out>
						<file id="file-123"/>
						<sourcetrack>
							<mediatype>audio</mediatype>
							<trackindex>2</trackindex>
						</sourcetrack>
							<filter>
								<effect>
									<name>Audio Levels</name>
									<effectid>audiolevels</effectid>
									<effectcategory>audiolevels</effectcategory>
									<effecttype>audiolevels</effecttype>
									<mediatype>audio</mediatype>
									<parameter authoringApp="PremierePro">
										<parameterid>level</parameterid>
										<name>Level</name>
										<valuemin>0</valuemin>
										<valuemax>3.98109</valuemax>
										<value>0.499999</value>
									</parameter>
								</effect>
							</filter>
						<link>
							<linkclipref>clipitem-1552</linkclipref>
							<mediatype>audio</mediatype>
							<trackindex>5</trackindex>
							<clipindex>48</clipindex>
						</link>
						<link>
							<linkclipref>clipitem-1623</linkclipref>
							<mediatype>audio</mediatype>
							<trackindex>7</trackindex>
							<clipindex>41</clipindex>
						</link>
						<logginginfo>
							<description></description>
							<scene></scene>
							<shottake>AA0154</shottake>
							<lognote></lognote>
						</logginginfo>
						<labels>
							<label2>Iris</label2>
						</labels>
					</clipitem>
					<clipitem id="clipitem-1624" frameBlend="FALSE">
						<masterclipid>masterclip-135</masterclipid>
						<name>MVI_0071.MOV</name>
						<enabled>TRUE</enabled>
						<duration>2132</duration>
						<rate>
							<timebase>25</timebase>
							<ntsc>FALSE</ntsc>
						</rate>
						<start>21708</start>
						<end>21830</end>
						<in>665</in>
						<out>787</out>
						<file id="file-122"/>
						<sourcetrack>
							<mediatype>audio</mediatype>
							<trackindex>2</trackindex>
						</sourcetrack>
							<filter>
								<effect>
									<name>Audio Levels</name>
									<effectid>audiolevels</effectid>
									<effectcategory>audiolevels</effectcategory>
									<effecttype>audiolevels</effecttype>
									<mediatype>audio</mediatype>
									<parameter authoringApp="PremierePro">
										<parameterid>level</parameterid>
										<name>Level</name>
										<valuemin>0</valuemin>
										<valuemax>3.98109</valuemax>
										<value>0.0706268</value>
									</parameter>
								</effect>
							</filter>
						<link>
							<linkclipref>clipitem-662</linkclipref>
							<mediatype>video</mediatype>
							<trackindex>1</trackindex>
							<clipindex>189</clipindex>
						</link>
						<link>
							<linkclipref>clipitem-1553</linkclipref>
							<mediatype>audio</mediatype>
							<trackindex>5</trackindex>
							<clipindex>49</clipindex>
						</link>
						<link>
							<linkclipref>clipitem-1624</linkclipref>
							<mediatype>audio</mediatype>
							<trackindex>7</trackindex>
							<clipindex>42</clipindex>
						</link>
						<logginginfo>
							<description></description>
							<scene></scene>
							<shottake></shottake>
							<lognote></lognote>
						</logginginfo>
						<labels>
							<label2>Iris</label2>
						</labels>
					</clipitem>
					<clipitem id="clipitem-1625" frameBlend="FALSE">
						<masterclipid>masterclip-136</masterclipid>
						<name>AA015401.MXF</name>
						<enabled>TRUE</enabled>
						<duration>1908</duration>
						<rate>
							<timebase>25</timebase>
							<ntsc>FALSE</ntsc>
						</rate>
						<start>22161</start>
						<end>22292</end>
						<in>699</in>
						<out>830</out>
						<file id="file-123"/>
						<sourcetrack>
							<mediatype>audio</mediatype>
							<trackindex>2</trackindex>
						</sourcetrack>
							<filter>
								<effect>
									<name>Audio Levels</name>
									<effectid>audiolevels</effectid>
									<effectcategory>audiolevels</effectcategory>
									<effecttype>audiolevels</effecttype>
									<mediatype>audio</mediatype>
									<parameter authoringApp="PremierePro">
										<parameterid>level</parameterid>
										<name>Level</name>
										<valuemin>0</valuemin>
										<valuemax>3.98109</valuemax>
										<value>0.499999</value>
									</parameter>
								</effect>
							</filter>
						<link>
							<linkclipref>clipitem-1554</linkclipref>
							<mediatype>audio</mediatype>
							<trackindex>5</trackindex>
							<clipindex>50</clipindex>
						</link>
						<link>
							<linkclipref>clipitem-1625</linkclipref>
							<mediatype>audio</mediatype>
							<trackindex>7</trackindex>
							<clipindex>43</clipindex>
						</link>
						<logginginfo>
							<description></description>
							<scene></scene>
							<shottake>AA0154</shottake>
							<lognote></lognote>
						</logginginfo>
						<labels>
							<label2>Iris</label2>
						</labels>
					</clipitem>
					<clipitem id="clipitem-1626" frameBlend="FALSE">
						<masterclipid>masterclip-165</masterclipid>
						<name>AA049201.MXF</name>
						<enabled>TRUE</enabled>
						<duration>528</duration>
						<rate>
							<timebase>25</timebase>
							<ntsc>FALSE</ntsc>
						</rate>
						<start>24778</start>
						<end>24935</end>
						<in>172</in>
						<out>329</out>
						<file id="file-146"/>
						<sourcetrack>
							<mediatype>audio</mediatype>
							<trackindex>2</trackindex>
						</sourcetrack>
							<filter>
								<effect>
									<name>Audio Levels</name>
									<effectid>audiolevels</effectid>
									<effectcategory>audiolevels</effectcategory>
									<effecttype>audiolevels</effecttype>
									<mediatype>audio</mediatype>
									<parameter authoringApp="PremierePro">
										<parameterid>level</parameterid>
										<name>Level</name>
										<valuemin>0</valuemin>
										<valuemax>3.98109</valuemax>
										<value>0.499999</value>
									</parameter>
								</effect>
							</filter>
						<link>
							<linkclipref>clipitem-746</linkclipref>
							<mediatype>video</mediatype>
							<trackindex>1</trackindex>
							<clipindex>214</clipindex>
						</link>
						<link>
							<linkclipref>clipitem-1555</linkclipref>
							<mediatype>audio</mediatype>
							<trackindex>5</trackindex>
							<clipindex>51</clipindex>
						</link>
						<link>
							<linkclipref>clipitem-1626</linkclipref>
							<mediatype>audio</mediatype>
							<trackindex>7</trackindex>
							<clipindex>44</clipindex>
						</link>
						<logginginfo>
							<description></description>
							<scene></scene>
							<shottake>AA0492</shottake>
							<lognote></lognote>
						</logginginfo>
						<labels>
							<label2>Iris</label2>
						</labels>
					</clipitem>
					<transitionitem>
						<start>25079</start>
						<end>25150</end>
						<alignment>start-black</alignment>
						<cutPoint>0</cutPoint>
						<rate>
							<timebase>25</timebase>
							<ntsc>FALSE</ntsc>
						</rate>
						<effect>
							<name>Cross Fade (+3dB)</name>
							<effectid>KGAudioTransCrossFade3dB</effectid>
							<effecttype>transition</effecttype>
							<mediatype>audio</mediatype>
							<wipecode>0</wipecode>
							<wipeaccuracy>100</wipeaccuracy>
							<startratio>0</startratio>
							<endratio>1</endratio>
							<reverse>FALSE</reverse>
						</effect>
					</transitionitem>
					<clipitem id="clipitem-1627" frameBlend="FALSE">
						<masterclipid>masterclip-279</masterclipid>
						<name>AA048601.MXF</name>
						<enabled>TRUE</enabled>
						<duration>744</duration>
						<rate>
							<timebase>25</timebase>
							<ntsc>FALSE</ntsc>
						</rate>
						<start>-1</start>
						<end>-1</end>
						<in>0</in>
						<out>425</out>
						<file id="file-252"/>
						<sourcetrack>
							<mediatype>audio</mediatype>
							<trackindex>2</trackindex>
						</sourcetrack>
							<filter>
								<effect>
									<name>Audio Levels</name>
									<effectid>audiolevels</effectid>
									<effectcategory>audiolevels</effectcategory>
									<effecttype>audiolevels</effecttype>
									<mediatype>audio</mediatype>
									<parameter authoringApp="PremierePro">
										<parameterid>level</parameterid>
										<name>Level</name>
										<valuemin>0</valuemin>
										<valuemax>3.98109</valuemax>
										<value>1.25594</value>
									</parameter>
								</effect>
							</filter>
						<link>
							<linkclipref>clipitem-1556</linkclipref>
							<mediatype>audio</mediatype>
							<trackindex>5</trackindex>
							<clipindex>53</clipindex>
						</link>
						<link>
							<linkclipref>clipitem-1627</linkclipref>
							<mediatype>audio</mediatype>
							<trackindex>7</trackindex>
							<clipindex>46</clipindex>
						</link>
						<logginginfo>
							<description></description>
							<scene></scene>
							<shottake>AA0486</shottake>
							<lognote></lognote>
						</logginginfo>
						<labels>
							<label2>Iris</label2>
						</labels>
					</clipitem>
					<transitionitem>
						<start>25449</start>
						<end>25504</end>
						<alignment>end-black</alignment>
						<cutPoint>55</cutPoint>
						<rate>
							<timebase>25</timebase>
							<ntsc>FALSE</ntsc>
						</rate>
						<effect>
							<name>Cross Fade (+3dB)</name>
							<effectid>KGAudioTransCrossFade3dB</effectid>
							<effecttype>transition</effecttype>
							<mediatype>audio</mediatype>
							<wipecode>0</wipecode>
							<wipeaccuracy>100</wipeaccuracy>
							<startratio>0</startratio>
							<endratio>1</endratio>
							<reverse>FALSE</reverse>
						</effect>
					</transitionitem>
					<transitionitem>
						<start>25912</start>
						<end>25933</end>
						<alignment>start-black</alignment>
						<cutPoint>0</cutPoint>
						<rate>
							<timebase>25</timebase>
							<ntsc>FALSE</ntsc>
						</rate>
						<effect>
							<name>Cross Fade (+3dB)</name>
							<effectid>KGAudioTransCrossFade3dB</effectid>
							<effecttype>transition</effecttype>
							<mediatype>audio</mediatype>
							<wipecode>0</wipecode>
							<wipeaccuracy>100</wipeaccuracy>
							<startratio>0</startratio>
							<endratio>1</endratio>
							<reverse>FALSE</reverse>
						</effect>
					</transitionitem>
					<clipitem id="clipitem-1628" frameBlend="FALSE">
						<masterclipid>masterclip-279</masterclipid>
						<name>AA048601.MXF</name>
						<enabled>TRUE</enabled>
						<duration>744</duration>
						<rate>
							<timebase>25</timebase>
							<ntsc>FALSE</ntsc>
						</rate>
						<start>-1</start>
						<end>-1</end>
						<in>28</in>
						<out>117</out>
						<file id="file-252"/>
						<sourcetrack>
							<mediatype>audio</mediatype>
							<trackindex>2</trackindex>
						</sourcetrack>
							<filter>
								<effect>
									<name>Audio Levels</name>
									<effectid>audiolevels</effectid>
									<effectcategory>audiolevels</effectcategory>
									<effecttype>audiolevels</effecttype>
									<mediatype>audio</mediatype>
									<parameter authoringApp="PremierePro">
										<parameterid>level</parameterid>
										<name>Level</name>
										<valuemin>0</valuemin>
										<valuemax>3.98109</valuemax>
										<value>0.966307</value>
									</parameter>
								</effect>
							</filter>
						<link>
							<linkclipref>clipitem-1557</linkclipref>
							<mediatype>audio</mediatype>
							<trackindex>5</trackindex>
							<clipindex>56</clipindex>
						</link>
						<link>
							<linkclipref>clipitem-1628</linkclipref>
							<mediatype>audio</mediatype>
							<trackindex>7</trackindex>
							<clipindex>49</clipindex>
						</link>
						<logginginfo>
							<description></description>
							<scene></scene>
							<shottake>AA0486</shottake>
							<lognote></lognote>
						</logginginfo>
						<labels>
							<label2>Iris</label2>
						</labels>
					</clipitem>
					<transitionitem>
						<start>25980</start>
						<end>26001</end>
						<alignment>end-black</alignment>
						<cutPoint>21</cutPoint>
						<rate>
							<timebase>25</timebase>
							<ntsc>FALSE</ntsc>
						</rate>
						<effect>
							<name>Cross Fade (+3dB)</name>
							<effectid>KGAudioTransCrossFade3dB</effectid>
							<effecttype>transition</effecttype>
							<mediatype>audio</mediatype>
							<wipecode>0</wipecode>
							<wipeaccuracy>100</wipeaccuracy>
							<startratio>0</startratio>
							<endratio>1</endratio>
							<reverse>FALSE</reverse>
						</effect>
					</transitionitem>
					<clipitem id="clipitem-1629" frameBlend="FALSE">
						<masterclipid>masterclip-174</masterclipid>
						<name>SNOWDEN-ASYL-100613-DR1900.mxf</name>
						<enabled>TRUE</enabled>
						<duration>2947</duration>
						<rate>
							<timebase>25</timebase>
							<ntsc>FALSE</ntsc>
						</rate>
						<start>27253</start>
						<end>27334</end>
						<in>2866</in>
						<out>2947</out>
						<file id="file-154"/>
						<sourcetrack>
							<mediatype>audio</mediatype>
							<trackindex>4</trackindex>
						</sourcetrack>
						<link>
							<linkclipref>clipitem-768</linkclipref>
							<mediatype>video</mediatype>
							<trackindex>1</trackindex>
							<clipindex>228</clipindex>
						</link>
						<link>
							<linkclipref>clipitem-1558</linkclipref>
							<mediatype>audio</mediatype>
							<trackindex>5</trackindex>
							<clipindex>58</clipindex>
						</link>
						<link>
							<linkclipref>clipitem-1629</linkclipref>
							<mediatype>audio</mediatype>
							<trackindex>7</trackindex>
							<clipindex>51</clipindex>
						</link>
						<logginginfo>
							<description></description>
							<scene></scene>
							<shottake></shottake>
							<lognote></lognote>
						</logginginfo>
						<labels>
							<label2>Iris</label2>
						</labels>
					</clipitem>
					<clipitem id="clipitem-1630" frameBlend="FALSE">
						<masterclipid>masterclip-174</masterclipid>
						<name>SNOWDEN-ASYL-100613-DR1900.mxf</name>
						<enabled>TRUE</enabled>
						<duration>2947</duration>
						<rate>
							<timebase>25</timebase>
							<ntsc>FALSE</ntsc>
						</rate>
						<start>27334</start>
						<end>27420</end>
						<in>120</in>
						<out>206</out>
						<file id="file-154"/>
						<sourcetrack>
							<mediatype>audio</mediatype>
							<trackindex>4</trackindex>
						</sourcetrack>
						<link>
							<linkclipref>clipitem-769</linkclipref>
							<mediatype>video</mediatype>
							<trackindex>1</trackindex>
							<clipindex>229</clipindex>
						</link>
						<link>
							<linkclipref>clipitem-1559</linkclipref>
							<mediatype>audio</mediatype>
							<trackindex>5</trackindex>
							<clipindex>59</clipindex>
						</link>
						<link>
							<linkclipref>clipitem-1630</linkclipref>
							<mediatype>audio</mediatype>
							<trackindex>7</trackindex>
							<clipindex>52</clipindex>
						</link>
						<logginginfo>
							<description></description>
							<scene></scene>
							<shottake></shottake>
							<lognote></lognote>
						</logginginfo>
						<labels>
							<label2>Iris</label2>
						</labels>
					</clipitem>
					<clipitem id="clipitem-1631" frameBlend="FALSE">
						<masterclipid>masterclip-174</masterclipid>
						<name>SNOWDEN-ASYL-100613-DR1900.mxf</name>
						<enabled>TRUE</enabled>
						<duration>2947</duration>
						<rate>
							<timebase>25</timebase>
							<ntsc>FALSE</ntsc>
						</rate>
						<start>27420</start>
						<end>27517</end>
						<in>307</in>
						<out>404</out>
						<file id="file-154"/>
						<sourcetrack>
							<mediatype>audio</mediatype>
							<trackindex>4</trackindex>
						</sourcetrack>
						<link>
							<linkclipref>clipitem-770</linkclipref>
							<mediatype>video</mediatype>
							<trackindex>1</trackindex>
							<clipindex>230</clipindex>
						</link>
						<link>
							<linkclipref>clipitem-1560</linkclipref>
							<mediatype>audio</mediatype>
							<trackindex>5</trackindex>
							<clipindex>60</clipindex>
						</link>
						<link>
							<linkclipref>clipitem-1631</linkclipref>
							<mediatype>audio</mediatype>
							<trackindex>7</trackindex>
							<clipindex>53</clipindex>
						</link>
						<logginginfo>
							<description></description>
							<scene></scene>
							<shottake></shottake>
							<lognote></lognote>
						</logginginfo>
						<labels>
							<label2>Iris</label2>
						</labels>
					</clipitem>
					<clipitem id="clipitem-1632" frameBlend="FALSE">
						<masterclipid>masterclip-174</masterclipid>
						<name>SNOWDEN-ASYL-100613-DR1900.mxf</name>
						<enabled>TRUE</enabled>
						<duration>2947</duration>
						<rate>
							<timebase>25</timebase>
							<ntsc>FALSE</ntsc>
						</rate>
						<start>27517</start>
						<end>27567</end>
						<in>1321</in>
						<out>1371</out>
						<file id="file-154"/>
						<sourcetrack>
							<mediatype>audio</mediatype>
							<trackindex>4</trackindex>
						</sourcetrack>
						<link>
							<linkclipref>clipitem-771</linkclipref>
							<mediatype>video</mediatype>
							<trackindex>1</trackindex>
							<clipindex>231</clipindex>
						</link>
						<link>
							<linkclipref>clipitem-1561</linkclipref>
							<mediatype>audio</mediatype>
							<trackindex>5</trackindex>
							<clipindex>61</clipindex>
						</link>
						<link>
							<linkclipref>clipitem-1632</linkclipref>
							<mediatype>audio</mediatype>
							<trackindex>7</trackindex>
							<clipindex>54</clipindex>
						</link>
						<logginginfo>
							<description></description>
							<scene></scene>
							<shottake></shottake>
							<lognote></lognote>
						</logginginfo>
						<labels>
							<label2>Iris</label2>
						</labels>
					</clipitem>
					<clipitem id="clipitem-1633" frameBlend="FALSE">
						<masterclipid>masterclip-174</masterclipid>
						<name>SNOWDEN-ASYL-100613-DR1900.mxf</name>
						<enabled>TRUE</enabled>
						<duration>2947</duration>
						<rate>
							<timebase>25</timebase>
							<ntsc>FALSE</ntsc>
						</rate>
						<start>27567</start>
						<end>27655</end>
						<in>365</in>
						<out>453</out>
						<file id="file-154"/>
						<sourcetrack>
							<mediatype>audio</mediatype>
							<trackindex>4</trackindex>
						</sourcetrack>
						<link>
							<linkclipref>clipitem-772</linkclipref>
							<mediatype>video</mediatype>
							<trackindex>1</trackindex>
							<clipindex>232</clipindex>
						</link>
						<link>
							<linkclipref>clipitem-1562</linkclipref>
							<mediatype>audio</mediatype>
							<trackindex>5</trackindex>
							<clipindex>62</clipindex>
						</link>
						<link>
							<linkclipref>clipitem-1633</linkclipref>
							<mediatype>audio</mediatype>
							<trackindex>7</trackindex>
							<clipindex>55</clipindex>
						</link>
						<logginginfo>
							<description></description>
							<scene></scene>
							<shottake></shottake>
							<lognote></lognote>
						</logginginfo>
						<labels>
							<label2>Iris</label2>
						</labels>
					</clipitem>
					<clipitem id="clipitem-1634" frameBlend="FALSE">
						<masterclipid>masterclip-192</masterclipid>
						<name>AA025301.MXFCowi varemesse multi</name>
						<enabled>TRUE</enabled>
						<duration>1755</duration>
						<rate>
							<timebase>25</timebase>
							<ntsc>FALSE</ntsc>
						</rate>
						<start>30176</start>
						<end>30232</end>
						<in>1474</in>
						<out>1530</out>
						<sequence id="sequence-126"/>
						<link>
							<linkclipref>clipitem-808</linkclipref>
							<mediatype>video</mediatype>
							<trackindex>1</trackindex>
							<clipindex>250</clipindex>
						</link>
						<link>
							<linkclipref>clipitem-1258</linkclipref>
							<mediatype>audio</mediatype>
							<trackindex>1</trackindex>
							<clipindex>129</clipindex>
						</link>
						<link>
							<linkclipref>clipitem-1459</linkclipref>
							<mediatype>audio</mediatype>
							<trackindex>3</trackindex>
							<clipindex>107</clipindex>
						</link>
						<link>
							<linkclipref>clipitem-1563</linkclipref>
							<mediatype>audio</mediatype>
							<trackindex>5</trackindex>
							<clipindex>63</clipindex>
						</link>
						<link>
							<linkclipref>clipitem-1634</linkclipref>
							<mediatype>audio</mediatype>
							<trackindex>7</trackindex>
							<clipindex>56</clipindex>
						</link>
						<labels>
							<label2>Forest</label2>
						</labels>
					</clipitem>
					<clipitem id="clipitem-1635" frameBlend="FALSE">
						<masterclipid>masterclip-198</masterclipid>
						<name>MVI_0133.MOV</name>
						<enabled>TRUE</enabled>
						<duration>12269</duration>
						<rate>
							<timebase>25</timebase>
							<ntsc>FALSE</ntsc>
						</rate>
						<start>30710</start>
						<end>30802</end>
						<in>2000</in>
						<out>2092</out>
						<file id="file-175"/>
						<sourcetrack>
							<mediatype>audio</mediatype>
							<trackindex>2</trackindex>
						</sourcetrack>
							<filter>
								<effect>
									<name>Audio Levels</name>
									<effectid>audiolevels</effectid>
									<effectcategory>audiolevels</effectcategory>
									<effecttype>audiolevels</effecttype>
									<mediatype>audio</mediatype>
									<parameter authoringApp="PremierePro">
										<parameterid>level</parameterid>
										<name>Level</name>
										<valuemin>0</valuemin>
										<valuemax>3.98109</valuemax>
										<value>0.397164</value>
									</parameter>
								</effect>
							</filter>
						<link>
							<linkclipref>clipitem-1564</linkclipref>
							<mediatype>audio</mediatype>
							<trackindex>5</trackindex>
							<clipindex>64</clipindex>
						</link>
						<link>
							<linkclipref>clipitem-1635</linkclipref>
							<mediatype>audio</mediatype>
							<trackindex>7</trackindex>
							<clipindex>57</clipindex>
						</link>
						<logginginfo>
							<description></description>
							<scene></scene>
							<shottake></shottake>
							<lognote></lognote>
						</logginginfo>
						<labels>
							<label2>Iris</label2>
						</labels>
					</clipitem>
					<clipitem id="clipitem-1636" frameBlend="FALSE">
						<masterclipid>masterclip-198</masterclipid>
						<name>MVI_0133.MOV</name>
						<enabled>TRUE</enabled>
						<duration>12269</duration>
						<rate>
							<timebase>25</timebase>
							<ntsc>FALSE</ntsc>
						</rate>
						<start>30802</start>
						<end>30887</end>
						<in>1723</in>
						<out>1808</out>
						<file id="file-175"/>
						<sourcetrack>
							<mediatype>audio</mediatype>
							<trackindex>2</trackindex>
						</sourcetrack>
							<filter>
								<effect>
									<name>Audio Levels</name>
									<effectid>audiolevels</effectid>
									<effectcategory>audiolevels</effectcategory>
									<effecttype>audiolevels</effecttype>
									<mediatype>audio</mediatype>
									<parameter authoringApp="PremierePro">
										<parameterid>level</parameterid>
										<name>Level</name>
										<valuemin>0</valuemin>
										<valuemax>3.98109</valuemax>
										<value>0.28117</value>
									</parameter>
								</effect>
							</filter>
						<link>
							<linkclipref>clipitem-1565</linkclipref>
							<mediatype>audio</mediatype>
							<trackindex>5</trackindex>
							<clipindex>65</clipindex>
						</link>
						<link>
							<linkclipref>clipitem-1636</linkclipref>
							<mediatype>audio</mediatype>
							<trackindex>7</trackindex>
							<clipindex>58</clipindex>
						</link>
						<logginginfo>
							<description></description>
							<scene></scene>
							<shottake></shottake>
							<lognote></lognote>
						</logginginfo>
						<labels>
							<label2>Iris</label2>
						</labels>
					</clipitem>
					<clipitem id="clipitem-1637" frameBlend="FALSE">
						<masterclipid>masterclip-198</masterclipid>
						<name>MVI_0133.MOV</name>
						<enabled>TRUE</enabled>
						<duration>12269</duration>
						<rate>
							<timebase>25</timebase>
							<ntsc>FALSE</ntsc>
						</rate>
						<start>30887</start>
						<end>30944</end>
						<in>2000</in>
						<out>2057</out>
						<file id="file-175"/>
						<sourcetrack>
							<mediatype>audio</mediatype>
							<trackindex>2</trackindex>
						</sourcetrack>
							<filter>
								<effect>
									<name>Audio Levels</name>
									<effectid>audiolevels</effectid>
									<effectcategory>audiolevels</effectcategory>
									<effecttype>audiolevels</effecttype>
									<mediatype>audio</mediatype>
									<parameter authoringApp="PremierePro">
										<parameterid>level</parameterid>
										<name>Level</name>
										<valuemin>0</valuemin>
										<valuemax>3.98109</valuemax>
										<value>0.397164</value>
									</parameter>
								</effect>
							</filter>
						<link>
							<linkclipref>clipitem-1566</linkclipref>
							<mediatype>audio</mediatype>
							<trackindex>5</trackindex>
							<clipindex>66</clipindex>
						</link>
						<link>
							<linkclipref>clipitem-1637</linkclipref>
							<mediatype>audio</mediatype>
							<trackindex>7</trackindex>
							<clipindex>59</clipindex>
						</link>
						<logginginfo>
							<description></description>
							<scene></scene>
							<shottake></shottake>
							<lognote></lognote>
						</logginginfo>
						<labels>
							<label2>Iris</label2>
						</labels>
					</clipitem>
					<clipitem id="clipitem-1638" frameBlend="FALSE">
						<masterclipid>masterclip-198</masterclipid>
						<name>MVI_0133.MOV</name>
						<enabled>TRUE</enabled>
						<duration>12269</duration>
						<rate>
							<timebase>25</timebase>
							<ntsc>FALSE</ntsc>
						</rate>
						<start>30944</start>
						<end>30953</end>
						<in>5924</in>
						<out>5933</out>
						<file id="file-175"/>
						<sourcetrack>
							<mediatype>audio</mediatype>
							<trackindex>2</trackindex>
						</sourcetrack>
							<filter>
								<effect>
									<name>Audio Levels</name>
									<effectid>audiolevels</effectid>
									<effectcategory>audiolevels</effectcategory>
									<effecttype>audiolevels</effecttype>
									<mediatype>audio</mediatype>
									<parameter authoringApp="PremierePro">
										<parameterid>level</parameterid>
										<name>Level</name>
										<valuemin>0</valuemin>
										<valuemax>3.98109</valuemax>
										<value>0.707945</value>
									</parameter>
								</effect>
							</filter>
						<link>
							<linkclipref>clipitem-819</linkclipref>
							<mediatype>video</mediatype>
							<trackindex>1</trackindex>
							<clipindex>255</clipindex>
						</link>
						<link>
							<linkclipref>clipitem-1567</linkclipref>
							<mediatype>audio</mediatype>
							<trackindex>5</trackindex>
							<clipindex>67</clipindex>
						</link>
						<link>
							<linkclipref>clipitem-1638</linkclipref>
							<mediatype>audio</mediatype>
							<trackindex>7</trackindex>
							<clipindex>60</clipindex>
						</link>
						<logginginfo>
							<description></description>
							<scene></scene>
							<shottake></shottake>
							<lognote></lognote>
						</logginginfo>
						<labels>
							<label2>Iris</label2>
						</labels>
					</clipitem>
					<clipitem id="clipitem-1639" frameBlend="FALSE">
						<masterclipid>masterclip-198</masterclipid>
						<name>MVI_0133.MOV</name>
						<enabled>TRUE</enabled>
						<duration>12269</duration>
						<rate>
							<timebase>25</timebase>
							<ntsc>FALSE</ntsc>
						</rate>
						<start>30953</start>
						<end>31035</end>
						<in>9447</in>
						<out>9529</out>
						<file id="file-175"/>
						<sourcetrack>
							<mediatype>audio</mediatype>
							<trackindex>2</trackindex>
						</sourcetrack>
							<filter>
								<effect>
									<name>Audio Levels</name>
									<effectid>audiolevels</effectid>
									<effectcategory>audiolevels</effectcategory>
									<effecttype>audiolevels</effecttype>
									<mediatype>audio</mediatype>
									<parameter authoringApp="PremierePro">
										<parameterid>level</parameterid>
										<name>Level</name>
										<valuemin>0</valuemin>
										<valuemax>3.98109</valuemax>
										<value>0.140919</value>
									</parameter>
								</effect>
							</filter>
						<link>
							<linkclipref>clipitem-1568</linkclipref>
							<mediatype>audio</mediatype>
							<trackindex>5</trackindex>
							<clipindex>68</clipindex>
						</link>
						<link>
							<linkclipref>clipitem-1639</linkclipref>
							<mediatype>audio</mediatype>
							<trackindex>7</trackindex>
							<clipindex>61</clipindex>
						</link>
						<logginginfo>
							<description></description>
							<scene></scene>
							<shottake></shottake>
							<lognote></lognote>
						</logginginfo>
						<labels>
							<label2>Iris</label2>
						</labels>
					</clipitem>
					<clipitem id="clipitem-1640" frameBlend="FALSE">
						<masterclipid>masterclip-199</masterclipid>
						<name>MVI_0135.MOV</name>
						<enabled>TRUE</enabled>
						<duration>927</duration>
						<rate>
							<timebase>25</timebase>
							<ntsc>FALSE</ntsc>
						</rate>
						<start>31035</start>
						<end>31127</end>
						<in>21</in>
						<out>113</out>
						<file id="file-176"/>
						<sourcetrack>
							<mediatype>audio</mediatype>
							<trackindex>2</trackindex>
						</sourcetrack>
							<filter>
								<effect>
									<name>Audio Levels</name>
									<effectid>audiolevels</effectid>
									<effectcategory>audiolevels</effectcategory>
									<effecttype>audiolevels</effecttype>
									<mediatype>audio</mediatype>
									<parameter authoringApp="PremierePro">
										<parameterid>level</parameterid>
										<name>Level</name>
										<valuemin>0</valuemin>
										<valuemax>3.98109</valuemax>
										<value>0.199053</value>
									</parameter>
								</effect>
							</filter>
						<link>
							<linkclipref>clipitem-1569</linkclipref>
							<mediatype>audio</mediatype>
							<trackindex>5</trackindex>
							<clipindex>69</clipindex>
						</link>
						<link>
							<linkclipref>clipitem-1640</linkclipref>
							<mediatype>audio</mediatype>
							<trackindex>7</trackindex>
							<clipindex>62</clipindex>
						</link>
						<logginginfo>
							<description></description>
							<scene></scene>
							<shottake></shottake>
							<lognote></lognote>
						</logginginfo>
						<labels>
							<label2>Iris</label2>
						</labels>
					</clipitem>
					<clipitem id="clipitem-1641" frameBlend="FALSE">
						<masterclipid>masterclip-280</masterclipid>
						<name>AA004901.MXF</name>
						<enabled>TRUE</enabled>
						<duration>1068</duration>
						<rate>
							<timebase>25</timebase>
							<ntsc>FALSE</ntsc>
						</rate>
						<start>31184</start>
						<end>31222</end>
						<in>373</in>
						<out>411</out>
						<file id="file-253"/>
						<sourcetrack>
							<mediatype>audio</mediatype>
							<trackindex>2</trackindex>
						</sourcetrack>
						<link>
							<linkclipref>clipitem-1570</linkclipref>
							<mediatype>audio</mediatype>
							<trackindex>5</trackindex>
							<clipindex>70</clipindex>
						</link>
						<link>
							<linkclipref>clipitem-1641</linkclipref>
							<mediatype>audio</mediatype>
							<trackindex>7</trackindex>
							<clipindex>63</clipindex>
						</link>
						<logginginfo>
							<description></description>
							<scene></scene>
							<shottake>AA0049</shottake>
							<lognote></lognote>
						</logginginfo>
						<labels>
							<label2>Iris</label2>
						</labels>
					</clipitem>
					<clipitem id="clipitem-1642" frameBlend="FALSE">
						<masterclipid>masterclip-203</masterclipid>
						<name>MVI_0161.MOV</name>
						<enabled>TRUE</enabled>
						<duration>3004</duration>
						<rate>
							<timebase>25</timebase>
							<ntsc>FALSE</ntsc>
						</rate>
						<start>31313</start>
						<end>31482</end>
						<in>344</in>
						<out>513</out>
						<file id="file-180"/>
						<sourcetrack>
							<mediatype>audio</mediatype>
							<trackindex>2</trackindex>
						</sourcetrack>
							<filter>
								<effect>
									<name>Audio Levels</name>
									<effectid>audiolevels</effectid>
									<effectcategory>audiolevels</effectcategory>
									<effecttype>audiolevels</effecttype>
									<mediatype>audio</mediatype>
									<parameter authoringApp="PremierePro">
										<parameterid>level</parameterid>
										<name>Level</name>
										<valuemin>0</valuemin>
										<valuemax>3.98109</valuemax>
										<value>0.353972</value>
									</parameter>
								</effect>
							</filter>
						<link>
							<linkclipref>clipitem-827</linkclipref>
							<mediatype>video</mediatype>
							<trackindex>1</trackindex>
							<clipindex>263</clipindex>
						</link>
						<link>
							<linkclipref>clipitem-1571</linkclipref>
							<mediatype>audio</mediatype>
							<trackindex>5</trackindex>
							<clipindex>71</clipindex>
						</link>
						<link>
							<linkclipref>clipitem-1642</linkclipref>
							<mediatype>audio</mediatype>
							<trackindex>7</trackindex>
							<clipindex>64</clipindex>
						</link>
						<logginginfo>
							<description></description>
							<scene></scene>
							<shottake></shottake>
							<lognote></lognote>
						</logginginfo>
						<labels>
							<label2>Iris</label2>
						</labels>
					</clipitem>
					<clipitem id="clipitem-1643" frameBlend="FALSE">
						<masterclipid>masterclip-204</masterclipid>
						<name>AA005201.MXF</name>
						<enabled>TRUE</enabled>
						<duration>8832</duration>
						<rate>
							<timebase>25</timebase>
							<ntsc>FALSE</ntsc>
						</rate>
						<start>31482</start>
						<end>31570</end>
						<in>3920</in>
						<out>4008</out>
						<file id="file-181"/>
						<sourcetrack>
							<mediatype>audio</mediatype>
							<trackindex>2</trackindex>
						</sourcetrack>
							<filter>
								<effect>
									<name>Audio Levels</name>
									<effectid>audiolevels</effectid>
									<effectcategory>audiolevels</effectcategory>
									<effecttype>audiolevels</effecttype>
									<mediatype>audio</mediatype>
									<parameter authoringApp="PremierePro">
										<parameterid>level</parameterid>
										<name>Level</name>
										<valuemin>0</valuemin>
										<valuemax>3.98109</valuemax>
										<value>0.740177</value>
									</parameter>
								</effect>
							</filter>
						<link>
							<linkclipref>clipitem-828</linkclipref>
							<mediatype>video</mediatype>
							<trackindex>1</trackindex>
							<clipindex>264</clipindex>
						</link>
						<link>
							<linkclipref>clipitem-1572</linkclipref>
							<mediatype>audio</mediatype>
							<trackindex>5</trackindex>
							<clipindex>72</clipindex>
						</link>
						<link>
							<linkclipref>clipitem-1643</linkclipref>
							<mediatype>audio</mediatype>
							<trackindex>7</trackindex>
							<clipindex>65</clipindex>
						</link>
						<logginginfo>
							<description></description>
							<scene></scene>
							<shottake>AA0052</shottake>
							<lognote></lognote>
						</logginginfo>
						<labels>
							<label2>Iris</label2>
						</labels>
					</clipitem>
					<clipitem id="clipitem-1644" frameBlend="FALSE">
						<masterclipid>masterclip-204</masterclipid>
						<name>AA005201.MXF</name>
						<enabled>TRUE</enabled>
						<duration>8832</duration>
						<rate>
							<timebase>25</timebase>
							<ntsc>FALSE</ntsc>
						</rate>
						<start>31841</start>
						<end>31950</end>
						<in>6734</in>
						<out>6843</out>
						<file id="file-181"/>
						<sourcetrack>
							<mediatype>audio</mediatype>
							<trackindex>2</trackindex>
						</sourcetrack>
							<filter>
								<effect>
									<name>Audio Levels</name>
									<effectid>audiolevels</effectid>
									<effectcategory>audiolevels</effectcategory>
									<effecttype>audiolevels</effecttype>
									<mediatype>audio</mediatype>
									<parameter authoringApp="PremierePro">
										<parameterid>level</parameterid>
										<name>Level</name>
										<valuemin>0</valuemin>
										<valuemax>3.98109</valuemax>
										<value>0.353972</value>
									</parameter>
								</effect>
							</filter>
						<logginginfo>
							<description></description>
							<scene></scene>
							<shottake>AA0052</shottake>
							<lognote></lognote>
						</logginginfo>
						<labels>
							<label2>Iris</label2>
						</labels>
					</clipitem>
					<transitionitem>
						<start>33922</start>
						<end>33947</end>
						<alignment>start-black</alignment>
						<cutPoint>0</cutPoint>
						<rate>
							<timebase>25</timebase>
							<ntsc>FALSE</ntsc>
						</rate>
						<effect>
							<name>Cross Fade (+3dB)</name>
							<effectid>KGAudioTransCrossFade3dB</effectid>
							<effecttype>transition</effecttype>
							<mediatype>audio</mediatype>
							<wipecode>0</wipecode>
							<wipeaccuracy>100</wipeaccuracy>
							<startratio>0</startratio>
							<endratio>1</endratio>
							<reverse>FALSE</reverse>
						</effect>
					</transitionitem>
					<clipitem id="clipitem-1645" frameBlend="FALSE">
						<masterclipid>masterclip-218</masterclipid>
						<name>MVI_0507.MOV</name>
						<enabled>TRUE</enabled>
						<duration>1384</duration>
						<rate>
							<timebase>25</timebase>
							<ntsc>FALSE</ntsc>
						</rate>
						<start>-1</start>
						<end>-1</end>
						<in>330</in>
						<out>465</out>
						<file id="file-195"/>
						<sourcetrack>
							<mediatype>audio</mediatype>
							<trackindex>2</trackindex>
						</sourcetrack>
							<filter>
								<effect>
									<name>Audio Levels</name>
									<effectid>audiolevels</effectid>
									<effectcategory>audiolevels</effectcategory>
									<effecttype>audiolevels</effecttype>
									<mediatype>audio</mediatype>
									<parameter authoringApp="PremierePro">
										<parameterid>level</parameterid>
										<name>Level</name>
										<valuemin>0</valuemin>
										<valuemax>3.98109</valuemax>
										<value>0.125594</value>
									</parameter>
								</effect>
							</filter>
						<logginginfo>
							<description></description>
							<scene></scene>
							<shottake></shottake>
							<lognote></lognote>
						</logginginfo>
						<labels>
							<label2>Iris</label2>
						</labels>
					</clipitem>
					<transitionitem>
						<start>34032</start>
						<end>34057</end>
						<alignment>end-black</alignment>
						<cutPoint>25</cutPoint>
						<rate>
							<timebase>25</timebase>
							<ntsc>FALSE</ntsc>
						</rate>
						<effect>
							<name>Cross Fade (+3dB)</name>
							<effectid>KGAudioTransCrossFade3dB</effectid>
							<effecttype>transition</effecttype>
							<mediatype>audio</mediatype>
							<wipecode>0</wipecode>
							<wipeaccuracy>100</wipeaccuracy>
							<startratio>0</startratio>
							<endratio>1</endratio>
							<reverse>FALSE</reverse>
						</effect>
					</transitionitem>
					<clipitem id="clipitem-1646" frameBlend="FALSE">
						<masterclipid>masterclip-241</masterclipid>
						<name>AA034901.MXF</name>
						<enabled>TRUE</enabled>
						<duration>7584</duration>
						<rate>
							<timebase>25</timebase>
							<ntsc>FALSE</ntsc>
						</rate>
						<start>38201</start>
						<end>38300</end>
						<in>367</in>
						<out>466</out>
						<file id="file-215"/>
						<sourcetrack>
							<mediatype>audio</mediatype>
							<trackindex>2</trackindex>
						</sourcetrack>
						<link>
							<linkclipref>clipitem-1576</linkclipref>
							<mediatype>audio</mediatype>
							<trackindex>5</trackindex>
							<clipindex>78</clipindex>
						</link>
						<link>
							<linkclipref>clipitem-1646</linkclipref>
							<mediatype>audio</mediatype>
							<trackindex>7</trackindex>
							<clipindex>70</clipindex>
						</link>
						<logginginfo>
							<description></description>
							<scene></scene>
							<shottake>AA0349</shottake>
							<lognote></lognote>
						</logginginfo>
						<labels>
							<label2>Iris</label2>
						</labels>
					</clipitem>
					<clipitem id="clipitem-1647" frameBlend="FALSE">
						<masterclipid>masterclip-241</masterclipid>
						<name>AA034901.MXF</name>
						<enabled>TRUE</enabled>
						<duration>7584</duration>
						<rate>
							<timebase>25</timebase>
							<ntsc>FALSE</ntsc>
						</rate>
						<start>38300</start>
						<end>38319</end>
						<in>493</in>
						<out>512</out>
						<file id="file-215"/>
						<sourcetrack>
							<mediatype>audio</mediatype>
							<trackindex>2</trackindex>
						</sourcetrack>
						<link>
							<linkclipref>clipitem-1577</linkclipref>
							<mediatype>audio</mediatype>
							<trackindex>5</trackindex>
							<clipindex>79</clipindex>
						</link>
						<link>
							<linkclipref>clipitem-1647</linkclipref>
							<mediatype>audio</mediatype>
							<trackindex>7</trackindex>
							<clipindex>71</clipindex>
						</link>
						<logginginfo>
							<description></description>
							<scene></scene>
							<shottake>AA0349</shottake>
							<lognote></lognote>
						</logginginfo>
						<labels>
							<label2>Iris</label2>
						</labels>
					</clipitem>
					<clipitem id="clipitem-1648" frameBlend="FALSE">
						<masterclipid>masterclip-10</masterclipid>
						<name>AA034901.MXF</name>
						<enabled>TRUE</enabled>
						<duration>7584</duration>
						<rate>
							<timebase>25</timebase>
							<ntsc>FALSE</ntsc>
						</rate>
						<start>38319</start>
						<end>38599</end>
						<in>686</in>
						<out>966</out>
						<file id="file-9"/>
						<sourcetrack>
							<mediatype>audio</mediatype>
							<trackindex>2</trackindex>
						</sourcetrack>
						<link>
							<linkclipref>clipitem-1578</linkclipref>
							<mediatype>audio</mediatype>
							<trackindex>5</trackindex>
							<clipindex>80</clipindex>
						</link>
						<link>
							<linkclipref>clipitem-1648</linkclipref>
							<mediatype>audio</mediatype>
							<trackindex>7</trackindex>
							<clipindex>72</clipindex>
						</link>
						<logginginfo>
							<description></description>
							<scene></scene>
							<shottake>AA0349</shottake>
							<lognote></lognote>
						</logginginfo>
						<labels>
							<label2>Iris</label2>
						</labels>
					</clipitem>
					<clipitem id="clipitem-1649" frameBlend="FALSE">
						<masterclipid>masterclip-17</masterclipid>
						<name>Rio (IBM).mov</name>
						<enabled>TRUE</enabled>
						<duration>10510</duration>
						<rate>
							<timebase>25</timebase>
							<ntsc>FALSE</ntsc>
						</rate>
						<start>38860</start>
						<end>38918</end>
						<in>6460</in>
						<out>6518</out>
						<file id="file-16"/>
						<sourcetrack>
							<mediatype>audio</mediatype>
							<trackindex>2</trackindex>
						</sourcetrack>
							<filter>
								<effect>
									<name>Audio Levels</name>
									<effectid>audiolevels</effectid>
									<effectcategory>audiolevels</effectcategory>
									<effecttype>audiolevels</effecttype>
									<mediatype>audio</mediatype>
									<parameter authoringApp="PremierePro">
										<parameterid>level</parameterid>
										<name>Level</name>
										<valuemin>0</valuemin>
										<valuemax>3.98109</valuemax>
										<value>0.125594</value>
									</parameter>
								</effect>
							</filter>
						<link>
							<linkclipref>clipitem-1579</linkclipref>
							<mediatype>audio</mediatype>
							<trackindex>5</trackindex>
							<clipindex>81</clipindex>
						</link>
						<link>
							<linkclipref>clipitem-1649</linkclipref>
							<mediatype>audio</mediatype>
							<trackindex>7</trackindex>
							<clipindex>73</clipindex>
						</link>
						<logginginfo>
							<description></description>
							<scene></scene>
							<shottake></shottake>
							<lognote></lognote>
						</logginginfo>
						<labels>
							<label2>Iris</label2>
						</labels>
					</clipitem>
					<clipitem id="clipitem-1650" frameBlend="FALSE">
						<masterclipid>masterclip-17</masterclipid>
						<name>Rio (IBM).mov</name>
						<enabled>TRUE</enabled>
						<duration>10510</duration>
						<rate>
							<timebase>25</timebase>
							<ntsc>FALSE</ntsc>
						</rate>
						<start>38918</start>
						<end>38955</end>
						<in>6799</in>
						<out>6836</out>
						<file id="file-16"/>
						<sourcetrack>
							<mediatype>audio</mediatype>
							<trackindex>2</trackindex>
						</sourcetrack>
							<filter>
								<effect>
									<name>Audio Levels</name>
									<effectid>audiolevels</effectid>
									<effectcategory>audiolevels</effectcategory>
									<effecttype>audiolevels</effecttype>
									<mediatype>audio</mediatype>
									<parameter authoringApp="PremierePro">
										<parameterid>level</parameterid>
										<name>Level</name>
										<valuemin>0</valuemin>
										<valuemax>3.98109</valuemax>
										<value>0.0706268</value>
									</parameter>
								</effect>
							</filter>
						<link>
							<linkclipref>clipitem-929</linkclipref>
							<mediatype>video</mediatype>
							<trackindex>1</trackindex>
							<clipindex>345</clipindex>
						</link>
						<link>
							<linkclipref>clipitem-1580</linkclipref>
							<mediatype>audio</mediatype>
							<trackindex>5</trackindex>
							<clipindex>82</clipindex>
						</link>
						<link>
							<linkclipref>clipitem-1650</linkclipref>
							<mediatype>audio</mediatype>
							<trackindex>7</trackindex>
							<clipindex>74</clipindex>
						</link>
						<logginginfo>
							<description></description>
							<scene></scene>
							<shottake></shottake>
							<lognote></lognote>
						</logginginfo>
						<labels>
							<label2>Iris</label2>
						</labels>
					</clipitem>
					<clipitem id="clipitem-1651" frameBlend="FALSE">
						<masterclipid>masterclip-17</masterclipid>
						<name>Rio (IBM).mov</name>
						<enabled>TRUE</enabled>
						<duration>10510</duration>
						<rate>
							<timebase>25</timebase>
							<ntsc>FALSE</ntsc>
						</rate>
						<start>38955</start>
						<end>39050</end>
						<in>9781</in>
						<out>9876</out>
						<file id="file-16"/>
						<sourcetrack>
							<mediatype>audio</mediatype>
							<trackindex>2</trackindex>
						</sourcetrack>
							<filter>
								<effect>
									<name>Audio Levels</name>
									<effectid>audiolevels</effectid>
									<effectcategory>audiolevels</effectcategory>
									<effecttype>audiolevels</effecttype>
									<mediatype>audio</mediatype>
									<parameter authoringApp="PremierePro">
										<parameterid>level</parameterid>
										<name>Level</name>
										<valuemin>0</valuemin>
										<valuemax>3.98109</valuemax>
										<value>0.0223342</value>
									</parameter>
								</effect>
							</filter>
							<filter>
								<effect>
									<name>Time Remap</name>
									<effectid>timeremap</effectid>
									<effectcategory>motion</effectcategory>
									<effecttype>motion</effecttype>
									<mediatype>audio</mediatype>
									<parameter authoringApp="PremierePro">
										<parameterid>variablespeed</parameterid>
										<name>variablespeed</name>
										<valuemin>0</valuemin>
										<valuemax>1</valuemax>
										<value>0</value>
									</parameter>
									<parameter authoringApp="PremierePro">
										<parameterid>mappedduration</parameterid>
										<name>mappedduration</name>
										<value>
											<timecode>
												<rate>
													<timebase>0</timebase>
												</rate>
												<string>0</string>
												<frame>0</frame>
												<displayformat>NDF</displayformat>
											</timecode>
										</value>
									</parameter>
									<parameter authoringApp="PremierePro">
										<parameterid>speed</parameterid>
										<name>speed</name>
										<valuemin>-100000</valuemin>
										<valuemax>100000</valuemax>
										<value>100</value>
									</parameter>
									<parameter authoringApp="PremierePro">
										<parameterid>reverse</parameterid>
										<name>reverse</name>
										<value>TRUE</value>
									</parameter>
									<parameter authoringApp="PremierePro">
										<parameterid>frameblending</parameterid>
										<name>frameblending</name>
										<value>FALSE</value>
									</parameter>
									<parameter authoringApp="PremierePro">
										<parameterid>graphdict</parameterid>
										<name>graphdict</name>
										<valuemin>0</valuemin>
										<valuemax>10510</valuemax>
										<value>0</value>
										<keyframe>
											<when>0</when>
											<value>10511</value>
											<speedvirtualkf>TRUE</speedvirtualkf>
											<origvalue>10510</origvalue>
											<speedkfstart>TRUE</speedkfstart>
										</keyframe>
										<keyframe>
											<when>9781</when>
											<value>729</value>
											<speedvirtualkf>TRUE</speedvirtualkf>
											<origvalue>729</origvalue>
											<speedkfin>TRUE</speedkfin>
										</keyframe>
										<keyframe>
											<when>9876</when>
											<value>634</value>
											<speedvirtualkf>TRUE</speedvirtualkf>
											<origvalue>634</origvalue>
											<speedkfout>TRUE</speedkfout>
										</keyframe>
										<keyframe>
											<when>10510</when>
											<value>0</value>
											<speedvirtualkf>TRUE</speedvirtualkf>
											<origvalue>0</origvalue>
											<speedkfend>TRUE</speedkfend>
										</keyframe>
										<interpolation>
											<name>FCPCurve</name>
										</interpolation>
									</parameter>
								</effect>
							</filter>
						<link>
							<linkclipref>clipitem-1581</linkclipref>
							<mediatype>audio</mediatype>
							<trackindex>5</trackindex>
							<clipindex>83</clipindex>
						</link>
						<link>
							<linkclipref>clipitem-1651</linkclipref>
							<mediatype>audio</mediatype>
							<trackindex>7</trackindex>
							<clipindex>75</clipindex>
						</link>
						<logginginfo>
							<description></description>
							<scene></scene>
							<shottake></shottake>
							<lognote></lognote>
						</logginginfo>
						<labels>
							<label2>Iris</label2>
						</labels>
					</clipitem>
					<clipitem id="clipitem-1652" frameBlend="FALSE">
						<masterclipid>masterclip-17</masterclipid>
						<name>Rio (IBM).mov</name>
						<enabled>TRUE</enabled>
						<duration>10510</duration>
						<rate>
							<timebase>25</timebase>
							<ntsc>FALSE</ntsc>
						</rate>
						<start>39050</start>
						<end>39165</end>
						<in>8812</in>
						<out>8927</out>
						<file id="file-16"/>
						<sourcetrack>
							<mediatype>audio</mediatype>
							<trackindex>2</trackindex>
						</sourcetrack>
							<filter>
								<effect>
									<name>Audio Levels</name>
									<effectid>audiolevels</effectid>
									<effectcategory>audiolevels</effectcategory>
									<effecttype>audiolevels</effecttype>
									<mediatype>audio</mediatype>
									<parameter authoringApp="PremierePro">
										<parameterid>level</parameterid>
										<name>Level</name>
										<valuemin>0</valuemin>
										<valuemax>3.98109</valuemax>
										<value>0.0706268</value>
									</parameter>
								</effect>
							</filter>
						<link>
							<linkclipref>clipitem-931</linkclipref>
							<mediatype>video</mediatype>
							<trackindex>1</trackindex>
							<clipindex>347</clipindex>
						</link>
						<link>
							<linkclipref>clipitem-1582</linkclipref>
							<mediatype>audio</mediatype>
							<trackindex>5</trackindex>
							<clipindex>84</clipindex>
						</link>
						<link>
							<linkclipref>clipitem-1652</linkclipref>
							<mediatype>audio</mediatype>
							<trackindex>7</trackindex>
							<clipindex>76</clipindex>
						</link>
						<logginginfo>
							<description></description>
							<scene></scene>
							<shottake></shottake>
							<lognote></lognote>
						</logginginfo>
						<labels>
							<label2>Iris</label2>
						</labels>
					</clipitem>
					<clipitem id="clipitem-1653" frameBlend="FALSE">
						<masterclipid>masterclip-17</masterclipid>
						<name>Rio (IBM).mov</name>
						<enabled>TRUE</enabled>
						<duration>10510</duration>
						<rate>
							<timebase>25</timebase>
							<ntsc>FALSE</ntsc>
						</rate>
						<start>39165</start>
						<end>39229</end>
						<in>7992</in>
						<out>8056</out>
						<file id="file-16"/>
						<sourcetrack>
							<mediatype>audio</mediatype>
							<trackindex>2</trackindex>
						</sourcetrack>
							<filter>
								<effect>
									<name>Audio Levels</name>
									<effectid>audiolevels</effectid>
									<effectcategory>audiolevels</effectcategory>
									<effecttype>audiolevels</effecttype>
									<mediatype>audio</mediatype>
									<parameter authoringApp="PremierePro">
										<parameterid>level</parameterid>
										<name>Level</name>
										<valuemin>0</valuemin>
										<valuemax>3.98109</valuemax>
										<value>0.111936</value>
									</parameter>
								</effect>
							</filter>
						<link>
							<linkclipref>clipitem-1583</linkclipref>
							<mediatype>audio</mediatype>
							<trackindex>5</trackindex>
							<clipindex>85</clipindex>
						</link>
						<link>
							<linkclipref>clipitem-1653</linkclipref>
							<mediatype>audio</mediatype>
							<trackindex>7</trackindex>
							<clipindex>77</clipindex>
						</link>
						<logginginfo>
							<description></description>
							<scene></scene>
							<shottake></shottake>
							<lognote></lognote>
						</logginginfo>
						<labels>
							<label2>Iris</label2>
						</labels>
					</clipitem>
					<enabled>TRUE</enabled>
					<locked>FALSE</locked>
					<outputchannelindex>1</outputchannelindex>
				</track>
				<track TL.SQTrackAudioKeyframeStyle="0" TL.SQTrackShy="0" TL.SQTrackExpandedHeight="65" TL.SQTrackExpanded="0" MZ.TrackTargeted="0" MZ.TrackName="Kontentum stereo" PannerCurrentValue="0.5" PannerIsInverted="true" PannerStartKeyframe="-91445760000000000,0.5,0,0,0,0,0,0" PannerName="Balance" currentExplodedTrackIndex="0" totalExplodedTrackCount="2" premiereTrackType="Stereo">
					<clipitem id="clipitem-1654" frameBlend="FALSE" PannerCurrentValue="0.5" PannerKeyframes="" PannerStartKeyframe="-91445760000000000,0.5,0,0,0,0,0,0" PannerIsInverted="true" PannerName="Pan">
						<masterclipid>masterclip-200</masterclipid>
						<name>MVI_0136.MOV</name>
						<enabled>TRUE</enabled>
						<duration>641</duration>
						<rate>
							<timebase>25</timebase>
							<ntsc>FALSE</ntsc>
						</rate>
						<start>31114</start>
						<end>31134</end>
						<in>364</in>
						<out>384</out>
						<file id="file-177"/>
						<sourcetrack>
							<mediatype>audio</mediatype>
							<trackindex>1</trackindex>
						</sourcetrack>
							<filter>
								<effect>
									<name>Audio Levels</name>
									<effectid>audiolevels</effectid>
									<effectcategory>audiolevels</effectcategory>
									<effecttype>audiolevels</effecttype>
									<mediatype>audio</mediatype>
									<parameter authoringApp="PremierePro">
										<parameterid>level</parameterid>
										<name>Level</name>
										<valuemin>0</valuemin>
										<valuemax>3.98109</valuemax>
										<value>0.199053</value>
									</parameter>
								</effect>
							</filter>
							<filter>
								<effect>
									<name>Audio Pan</name>
									<effectid>audiopan</effectid>
									<effectcategory>audiopan</effectcategory>
									<effecttype>audiopan</effecttype>
									<mediatype>audio</mediatype>
									<parameter authoringApp="PremierePro">
										<parameterid>pan</parameterid>
										<name>Pan</name>
										<valuemin>-1</valuemin>
										<valuemax>1</valuemax>
										<value>0</value>
									</parameter>
								</effect>
							</filter>
						<link>
							<linkclipref>clipitem-1654</linkclipref>
							<mediatype>audio</mediatype>
							<trackindex>8</trackindex>
							<clipindex>1</clipindex>
							<groupindex>1</groupindex>
						</link>
						<link>
							<linkclipref>clipitem-1671</linkclipref>
							<mediatype>audio</mediatype>
							<trackindex>10</trackindex>
							<clipindex>20</clipindex>
							<groupindex>1</groupindex>
						</link>
						<logginginfo>
							<description></description>
							<scene></scene>
							<shottake></shottake>
							<lognote></lognote>
						</logginginfo>
						<labels>
							<label2>Iris</label2>
						</labels>
					</clipitem>
					<clipitem id="clipitem-1655" frameBlend="FALSE" PannerCurrentValue="0.5" PannerKeyframes="" PannerStartKeyframe="-91445760000000000,0.5,0,0,0,0,0,0" PannerIsInverted="true" PannerName="Balance">
						<masterclipid>masterclip-281</masterclipid>
						<name>Ras steinras.WAV</name>
						<enabled>TRUE</enabled>
						<duration>1207</duration>
						<rate>
							<timebase>25</timebase>
							<ntsc>FALSE</ntsc>
						</rate>
						<start>32516</start>
						<end>-1</end>
						<in>1069</in>
						<out>1102</out>
						<file id="file-254">
							<name>Ras steinras.WAV</name>
							<pathurl>file://localhost/Volumes/Brakka/AdobeLager/Katta/Katta-14xxxx-Smart_eller_overvaaket-Chris/03-Lyd/Ras%20steinras.WAV</pathurl>
							<rate>
								<timebase>30</timebase>
								<ntsc>TRUE</ntsc>
							</rate>
							<duration>1447</duration>
							<timecode>
								<rate>
									<timebase>30</timebase>
									<ntsc>TRUE</ntsc>
								</rate>
								<string>00;00;00;00</string>
								<frame>0</frame>
								<displayformat>DF</displayformat>
								<reel>
									<name></name>
								</reel>
							</timecode>
							<media>
								<audio>
									<samplecharacteristics>
										<depth>16</depth>
										<samplerate>44100</samplerate>
									</samplecharacteristics>
									<channelcount>2</channelcount>
								</audio>
							</media>
						</file>
						<sourcetrack>
							<mediatype>audio</mediatype>
							<trackindex>1</trackindex>
						</sourcetrack>
							<filter>
								<effect>
									<name>Audio Levels</name>
									<effectid>audiolevels</effectid>
									<effectcategory>audiolevels</effectcategory>
									<effecttype>audiolevels</effecttype>
									<mediatype>audio</mediatype>
									<parameter authoringApp="PremierePro">
										<parameterid>level</parameterid>
										<name>Level</name>
										<valuemin>0</valuemin>
										<valuemax>3.98109</valuemax>
										<value>0.397164</value>
									</parameter>
								</effect>
							</filter>
							<filter>
								<effect>
									<name>Audio Pan</name>
									<effectid>audiopan</effectid>
									<effectcategory>audiopan</effectcategory>
									<effecttype>audiopan</effecttype>
									<mediatype>audio</mediatype>
									<parameter authoringApp="PremierePro">
										<parameterid>pan</parameterid>
										<name>Pan</name>
										<valuemin>-1</valuemin>
										<valuemax>1</valuemax>
										<value>0</value>
									</parameter>
								</effect>
							</filter>
						<link>
							<linkclipref>clipitem-1655</linkclipref>
							<mediatype>audio</mediatype>
							<trackindex>8</trackindex>
							<clipindex>2</clipindex>
							<groupindex>1</groupindex>
						</link>
						<link>
							<linkclipref>clipitem-1658</linkclipref>
							<mediatype>audio</mediatype>
							<trackindex>9</trackindex>
							<clipindex>1</clipindex>
							<groupindex>1</groupindex>
						</link>
						<logginginfo>
							<description></description>
							<scene></scene>
							<shottake></shottake>
							<lognote></lognote>
						</logginginfo>
						<labels>
							<label2>Caribbean</label2>
						</labels>
					</clipitem>
					<transitionitem>
						<start>32536</start>
						<end>32549</end>
						<alignment>center</alignment>
						<cutPoint>6</cutPoint>
						<rate>
							<timebase>25</timebase>
							<ntsc>FALSE</ntsc>
						</rate>
						<effect>
							<name>Cross Fade (+3dB)</name>
							<effectid>KGAudioTransCrossFade3dB</effectid>
							<effecttype>transition</effecttype>
							<mediatype>audio</mediatype>
							<wipecode>0</wipecode>
							<wipeaccuracy>100</wipeaccuracy>
							<startratio>0</startratio>
							<endratio>1</endratio>
							<reverse>FALSE</reverse>
						</effect>
					</transitionitem>
					<clipitem id="clipitem-1656" frameBlend="FALSE" PannerCurrentValue="0.5" PannerKeyframes="" PannerStartKeyframe="-91445760000000000,0.5,0,0,0,0,0,0" PannerIsInverted="true" PannerName="Balance">
						<masterclipid>masterclip-281</masterclipid>
						<name>Ras steinras.WAV</name>
						<enabled>TRUE</enabled>
						<duration>1207</duration>
						<rate>
							<timebase>25</timebase>
							<ntsc>FALSE</ntsc>
						</rate>
						<start>-1</start>
						<end>32568</end>
						<in>1151</in>
						<out>1183</out>
						<file id="file-254"/>
						<sourcetrack>
							<mediatype>audio</mediatype>
							<trackindex>1</trackindex>
						</sourcetrack>
							<filter>
								<effect>
									<name>Audio Levels</name>
									<effectid>audiolevels</effectid>
									<effectcategory>audiolevels</effectcategory>
									<effecttype>audiolevels</effecttype>
									<mediatype>audio</mediatype>
									<parameter authoringApp="PremierePro">
										<parameterid>level</parameterid>
										<name>Level</name>
										<valuemin>0</valuemin>
										<valuemax>3.98109</valuemax>
										<value>0.414064</value>
									</parameter>
								</effect>
							</filter>
							<filter>
								<effect>
									<name>Audio Pan</name>
									<effectid>audiopan</effectid>
									<effectcategory>audiopan</effectcategory>
									<effecttype>audiopan</effecttype>
									<mediatype>audio</mediatype>
									<parameter authoringApp="PremierePro">
										<parameterid>pan</parameterid>
										<name>Pan</name>
										<valuemin>-1</valuemin>
										<valuemax>1</valuemax>
										<value>0</value>
									</parameter>
								</effect>
							</filter>
						<link>
							<linkclipref>clipitem-1656</linkclipref>
							<mediatype>audio</mediatype>
							<trackindex>8</trackindex>
							<clipindex>4</clipindex>
							<groupindex>1</groupindex>
						</link>
						<link>
							<linkclipref>clipitem-1659</linkclipref>
							<mediatype>audio</mediatype>
							<trackindex>9</trackindex>
							<clipindex>3</clipindex>
							<groupindex>1</groupindex>
						</link>
						<logginginfo>
							<description></description>
							<scene></scene>
							<shottake></shottake>
							<lognote></lognote>
						</logginginfo>
						<labels>
							<label2>Caribbean</label2>
						</labels>
					</clipitem>
					<transitionitem>
						<start>32615</start>
						<end>32620</end>
						<alignment>start-black</alignment>
						<cutPoint>0</cutPoint>
						<rate>
							<timebase>25</timebase>
							<ntsc>FALSE</ntsc>
						</rate>
						<effect>
							<name>Cross Fade (+3dB)</name>
							<effectid>KGAudioTransCrossFade3dB</effectid>
							<effecttype>transition</effecttype>
							<mediatype>audio</mediatype>
							<wipecode>0</wipecode>
							<wipeaccuracy>100</wipeaccuracy>
							<startratio>0</startratio>
							<endratio>1</endratio>
							<reverse>FALSE</reverse>
						</effect>
					</transitionitem>
					<clipitem id="clipitem-1657" frameBlend="FALSE" PannerCurrentValue="0.5" PannerKeyframes="" PannerStartKeyframe="-91445760000000000,0.5,0,0,0,0,0,0" PannerIsInverted="true" PannerName="Balance">
						<masterclipid>masterclip-282</masterclipid>
						<name>ELECTRIC TOOL          DRILL VAR SPEEDS,  TORQUE,  SPEED UPDOWN,  OFF.WAV</name>
						<enabled>TRUE</enabled>
						<duration>2756</duration>
						<rate>
							<timebase>25</timebase>
							<ntsc>FALSE</ntsc>
						</rate>
						<start>-1</start>
						<end>-1</end>
						<in>508</in>
						<out>627</out>
						<file id="file-255">
							<name>ELECTRIC TOOL          DRILL VAR SPEEDS,  TORQUE,  SPEED UPDOWN,  OFF.WAV</name>
							<pathurl>file://localhost/Volumes/Brakka/AdobeLager/Katta/Katta-14xxxx-Smart_eller_overvaaket-Chris/03-Lyd/ELECTRIC%20TOOL%20%20%20%20%20%20%20%20%20%20DRILL%20VAR%20SPEEDS,%20%20TORQUE,%20%20SPEED%20UPDOWN,%20%20OFF.WAV</pathurl>
							<rate>
								<timebase>30</timebase>
								<ntsc>TRUE</ntsc>
							</rate>
							<duration>3304</duration>
							<timecode>
								<rate>
									<timebase>30</timebase>
									<ntsc>TRUE</ntsc>
								</rate>
								<string>00;00;00;00</string>
								<frame>0</frame>
								<displayformat>DF</displayformat>
								<reel>
									<name></name>
								</reel>
							</timecode>
							<media>
								<audio>
									<samplecharacteristics>
										<depth>16</depth>
										<samplerate>44100</samplerate>
									</samplecharacteristics>
									<channelcount>2</channelcount>
								</audio>
							</media>
						</file>
						<sourcetrack>
							<mediatype>audio</mediatype>
							<trackindex>1</trackindex>
						</sourcetrack>
							<filter>
								<effect>
									<name>Audio Levels</name>
									<effectid>audiolevels</effectid>
									<effectcategory>audiolevels</effectcategory>
									<effecttype>audiolevels</effecttype>
									<mediatype>audio</mediatype>
									<parameter authoringApp="PremierePro">
										<parameterid>level</parameterid>
										<name>Level</name>
										<valuemin>0</valuemin>
										<valuemax>3.98109</valuemax>
										<value>0.790176</value>
									</parameter>
								</effect>
							</filter>
							<filter>
								<effect>
									<name>Audio Pan</name>
									<effectid>audiopan</effectid>
									<effectcategory>audiopan</effectcategory>
									<effecttype>audiopan</effecttype>
									<mediatype>audio</mediatype>
									<parameter authoringApp="PremierePro">
										<parameterid>pan</parameterid>
										<name>Pan</name>
										<valuemin>-1</valuemin>
										<valuemax>1</valuemax>
										<value>0</value>
									</parameter>
								</effect>
							</filter>
						<link>
							<linkclipref>clipitem-1657</linkclipref>
							<mediatype>audio</mediatype>
							<trackindex>8</trackindex>
							<clipindex>6</clipindex>
							<groupindex>1</groupindex>
						</link>
						<link>
							<linkclipref>clipitem-1660</linkclipref>
							<mediatype>audio</mediatype>
							<trackindex>9</trackindex>
							<clipindex>5</clipindex>
							<groupindex>1</groupindex>
						</link>
						<logginginfo>
							<description></description>
							<scene></scene>
							<shottake></shottake>
							<lognote></lognote>
						</logginginfo>
						<labels>
							<label2>Caribbean</label2>
						</labels>
					</clipitem>
					<transitionitem>
						<start>32680</start>
						<end>32734</end>
						<alignment>end-black</alignment>
						<cutPoint>54</cutPoint>
						<rate>
							<timebase>25</timebase>
							<ntsc>FALSE</ntsc>
						</rate>
						<effect>
							<name>Cross Fade (+3dB)</name>
							<effectid>KGAudioTransCrossFade3dB</effectid>
							<effecttype>transition</effecttype>
							<mediatype>audio</mediatype>
							<wipecode>0</wipecode>
							<wipeaccuracy>100</wipeaccuracy>
							<startratio>0</startratio>
							<endratio>1</endratio>
							<reverse>FALSE</reverse>
						</effect>
					</transitionitem>
					<enabled>TRUE</enabled>
					<locked>FALSE</locked>
					<outputchannelindex>2</outputchannelindex>
				</track>
				<track TL.SQTrackAudioKeyframeStyle="0" TL.SQTrackShy="0" TL.SQTrackExpandedHeight="65" TL.SQTrackExpanded="0" MZ.TrackTargeted="0" MZ.TrackName="Kontentum stereo" PannerCurrentValue="0.5" PannerIsInverted="true" PannerStartKeyframe="-91445760000000000,0.5,0,0,0,0,0,0" PannerName="Balance" currentExplodedTrackIndex="1" totalExplodedTrackCount="2" premiereTrackType="Stereo">
					<clipitem id="clipitem-1658" frameBlend="FALSE" PannerCurrentValue="0.5" PannerKeyframes="" PannerStartKeyframe="-91445760000000000,0.5,0,0,0,0,0,0" PannerIsInverted="true" PannerName="Balance">
						<masterclipid>masterclip-281</masterclipid>
						<name>Ras steinras.WAV</name>
						<enabled>TRUE</enabled>
						<duration>1207</duration>
						<rate>
							<timebase>25</timebase>
							<ntsc>FALSE</ntsc>
						</rate>
						<start>32516</start>
						<end>-1</end>
						<in>1069</in>
						<out>1102</out>
						<file id="file-254"/>
						<sourcetrack>
							<mediatype>audio</mediatype>
							<trackindex>2</trackindex>
						</sourcetrack>
							<filter>
								<effect>
									<name>Audio Levels</name>
									<effectid>audiolevels</effectid>
									<effectcategory>audiolevels</effectcategory>
									<effecttype>audiolevels</effecttype>
									<mediatype>audio</mediatype>
									<parameter authoringApp="PremierePro">
										<parameterid>level</parameterid>
										<name>Level</name>
										<valuemin>0</valuemin>
										<valuemax>3.98109</valuemax>
										<value>0.397164</value>
									</parameter>
								</effect>
							</filter>
							<filter>
								<effect>
									<name>Audio Pan</name>
									<effectid>audiopan</effectid>
									<effectcategory>audiopan</effectcategory>
									<effecttype>audiopan</effecttype>
									<mediatype>audio</mediatype>
									<parameter authoringApp="PremierePro">
										<parameterid>pan</parameterid>
										<name>Pan</name>
										<valuemin>-1</valuemin>
										<valuemax>1</valuemax>
										<value>0</value>
									</parameter>
								</effect>
							</filter>
						<link>
							<linkclipref>clipitem-1655</linkclipref>
							<mediatype>audio</mediatype>
							<trackindex>8</trackindex>
							<clipindex>2</clipindex>
							<groupindex>1</groupindex>
						</link>
						<link>
							<linkclipref>clipitem-1658</linkclipref>
							<mediatype>audio</mediatype>
							<trackindex>9</trackindex>
							<clipindex>1</clipindex>
							<groupindex>1</groupindex>
						</link>
						<logginginfo>
							<description></description>
							<scene></scene>
							<shottake></shottake>
							<lognote></lognote>
						</logginginfo>
						<labels>
							<label2>Caribbean</label2>
						</labels>
					</clipitem>
					<transitionitem>
						<start>32536</start>
						<end>32549</end>
						<alignment>center</alignment>
						<cutPoint>6</cutPoint>
						<rate>
							<timebase>25</timebase>
							<ntsc>FALSE</ntsc>
						</rate>
						<effect>
							<name>Cross Fade (+3dB)</name>
							<effectid>KGAudioTransCrossFade3dB</effectid>
							<effecttype>transition</effecttype>
							<mediatype>audio</mediatype>
							<wipecode>0</wipecode>
							<wipeaccuracy>100</wipeaccuracy>
							<startratio>0</startratio>
							<endratio>1</endratio>
							<reverse>FALSE</reverse>
						</effect>
					</transitionitem>
					<clipitem id="clipitem-1659" frameBlend="FALSE" PannerCurrentValue="0.5" PannerKeyframes="" PannerStartKeyframe="-91445760000000000,0.5,0,0,0,0,0,0" PannerIsInverted="true" PannerName="Balance">
						<masterclipid>masterclip-281</masterclipid>
						<name>Ras steinras.WAV</name>
						<enabled>TRUE</enabled>
						<duration>1207</duration>
						<rate>
							<timebase>25</timebase>
							<ntsc>FALSE</ntsc>
						</rate>
						<start>-1</start>
						<end>32568</end>
						<in>1151</in>
						<out>1183</out>
						<file id="file-254"/>
						<sourcetrack>
							<mediatype>audio</mediatype>
							<trackindex>2</trackindex>
						</sourcetrack>
							<filter>
								<effect>
									<name>Audio Levels</name>
									<effectid>audiolevels</effectid>
									<effectcategory>audiolevels</effectcategory>
									<effecttype>audiolevels</effecttype>
									<mediatype>audio</mediatype>
									<parameter authoringApp="PremierePro">
										<parameterid>level</parameterid>
										<name>Level</name>
										<valuemin>0</valuemin>
										<valuemax>3.98109</valuemax>
										<value>0.414064</value>
									</parameter>
								</effect>
							</filter>
							<filter>
								<effect>
									<name>Audio Pan</name>
									<effectid>audiopan</effectid>
									<effectcategory>audiopan</effectcategory>
									<effecttype>audiopan</effecttype>
									<mediatype>audio</mediatype>
									<parameter authoringApp="PremierePro">
										<parameterid>pan</parameterid>
										<name>Pan</name>
										<valuemin>-1</valuemin>
										<valuemax>1</valuemax>
										<value>0</value>
									</parameter>
								</effect>
							</filter>
						<link>
							<linkclipref>clipitem-1656</linkclipref>
							<mediatype>audio</mediatype>
							<trackindex>8</trackindex>
							<clipindex>4</clipindex>
							<groupindex>1</groupindex>
						</link>
						<link>
							<linkclipref>clipitem-1659</linkclipref>
							<mediatype>audio</mediatype>
							<trackindex>9</trackindex>
							<clipindex>3</clipindex>
							<groupindex>1</groupindex>
						</link>
						<logginginfo>
							<description></description>
							<scene></scene>
							<shottake></shottake>
							<lognote></lognote>
						</logginginfo>
						<labels>
							<label2>Caribbean</label2>
						</labels>
					</clipitem>
					<transitionitem>
						<start>32615</start>
						<end>32620</end>
						<alignment>start-black</alignment>
						<cutPoint>0</cutPoint>
						<rate>
							<timebase>25</timebase>
							<ntsc>FALSE</ntsc>
						</rate>
						<effect>
							<name>Cross Fade (+3dB)</name>
							<effectid>KGAudioTransCrossFade3dB</effectid>
							<effecttype>transition</effecttype>
							<mediatype>audio</mediatype>
							<wipecode>0</wipecode>
							<wipeaccuracy>100</wipeaccuracy>
							<startratio>0</startratio>
							<endratio>1</endratio>
							<reverse>FALSE</reverse>
						</effect>
					</transitionitem>
					<clipitem id="clipitem-1660" frameBlend="FALSE" PannerCurrentValue="0.5" PannerKeyframes="" PannerStartKeyframe="-91445760000000000,0.5,0,0,0,0,0,0" PannerIsInverted="true" PannerName="Balance">
						<masterclipid>masterclip-282</masterclipid>
						<name>ELECTRIC TOOL          DRILL VAR SPEEDS,  TORQUE,  SPEED UPDOWN,  OFF.WAV</name>
						<enabled>TRUE</enabled>
						<duration>2756</duration>
						<rate>
							<timebase>25</timebase>
							<ntsc>FALSE</ntsc>
						</rate>
						<start>-1</start>
						<end>-1</end>
						<in>508</in>
						<out>627</out>
						<file id="file-255"/>
						<sourcetrack>
							<mediatype>audio</mediatype>
							<trackindex>2</trackindex>
						</sourcetrack>
							<filter>
								<effect>
									<name>Audio Levels</name>
									<effectid>audiolevels</effectid>
									<effectcategory>audiolevels</effectcategory>
									<effecttype>audiolevels</effecttype>
									<mediatype>audio</mediatype>
									<parameter authoringApp="PremierePro">
										<parameterid>level</parameterid>
										<name>Level</name>
										<valuemin>0</valuemin>
										<valuemax>3.98109</valuemax>
										<value>0.790176</value>
									</parameter>
								</effect>
							</filter>
							<filter>
								<effect>
									<name>Audio Pan</name>
									<effectid>audiopan</effectid>
									<effectcategory>audiopan</effectcategory>
									<effecttype>audiopan</effecttype>
									<mediatype>audio</mediatype>
									<parameter authoringApp="PremierePro">
										<parameterid>pan</parameterid>
										<name>Pan</name>
										<valuemin>-1</valuemin>
										<valuemax>1</valuemax>
										<value>0</value>
									</parameter>
								</effect>
							</filter>
						<link>
							<linkclipref>clipitem-1657</linkclipref>
							<mediatype>audio</mediatype>
							<trackindex>8</trackindex>
							<clipindex>6</clipindex>
							<groupindex>1</groupindex>
						</link>
						<link>
							<linkclipref>clipitem-1660</linkclipref>
							<mediatype>audio</mediatype>
							<trackindex>9</trackindex>
							<clipindex>5</clipindex>
							<groupindex>1</groupindex>
						</link>
						<logginginfo>
							<description></description>
							<scene></scene>
							<shottake></shottake>
							<lognote></lognote>
						</logginginfo>
						<labels>
							<label2>Caribbean</label2>
						</labels>
					</clipitem>
					<transitionitem>
						<start>32680</start>
						<end>32734</end>
						<alignment>end-black</alignment>
						<cutPoint>54</cutPoint>
						<rate>
							<timebase>25</timebase>
							<ntsc>FALSE</ntsc>
						</rate>
						<effect>
							<name>Cross Fade (+3dB)</name>
							<effectid>KGAudioTransCrossFade3dB</effectid>
							<effecttype>transition</effecttype>
							<mediatype>audio</mediatype>
							<wipecode>0</wipecode>
							<wipeaccuracy>100</wipeaccuracy>
							<startratio>0</startratio>
							<endratio>1</endratio>
							<reverse>FALSE</reverse>
						</effect>
					</transitionitem>
					<enabled>TRUE</enabled>
					<locked>FALSE</locked>
					<outputchannelindex>2</outputchannelindex>
				</track>
				<track TL.SQTrackAudioKeyframeStyle="0" TL.SQTrackShy="0" TL.SQTrackExpandedHeight="60" TL.SQTrackExpanded="1" MZ.TrackTargeted="0" MZ.TrackName="Musikk 1 stereo" PannerCurrentValue="0.5" PannerIsInverted="true" PannerStartKeyframe="-91445760000000000,0.5,0,0,0,0,0,0" PannerName="Balance" currentExplodedTrackIndex="0" totalExplodedTrackCount="2" premiereTrackType="Stereo">
					<clipitem id="clipitem-1661" frameBlend="FALSE" PannerCurrentValue="0.5" PannerKeyframes="" PannerStartKeyframe="-91445760000000000,0.5,0,0,0,0,0,0" PannerIsInverted="true" PannerName="Balance">
						<masterclipid>masterclip-283</masterclipid>
						<name>AUXMP_SCDV029017_EVIL_TO_COME.wav</name>
						<enabled>TRUE</enabled>
						<duration>4385</duration>
						<rate>
							<timebase>25</timebase>
							<ntsc>FALSE</ntsc>
						</rate>
						<start>204</start>
						<end>891</end>
						<in>0</in>
						<out>687</out>
						<file id="file-256">
							<name>AUXMP_SCDV029017_EVIL_TO_COME.wav</name>
							<pathurl>file://localhost/Volumes/Brakka/Katta/Musikk/Smart%20eller%20overva%cc%8aket%20-%20krim/AUXMP_SCDV029017_EVIL_TO_COME.wav</pathurl>
							<rate>
								<timebase>30</timebase>
								<ntsc>TRUE</ntsc>
							</rate>
							<duration>5257</duration>
							<timecode>
								<rate>
									<timebase>30</timebase>
									<ntsc>TRUE</ntsc>
								</rate>
								<string>00;41;21;06</string>
								<frame>74362</frame>
								<displayformat>DF</displayformat>
								<reel>
									<name></name>
								</reel>
							</timecode>
							<media>
								<audio>
									<samplecharacteristics>
										<depth>16</depth>
										<samplerate>48000</samplerate>
									</samplecharacteristics>
									<channelcount>2</channelcount>
								</audio>
							</media>
						</file>
						<sourcetrack>
							<mediatype>audio</mediatype>
							<trackindex>1</trackindex>
						</sourcetrack>
							<filter>
								<effect>
									<name>Audio Levels</name>
									<effectid>audiolevels</effectid>
									<effectcategory>audiolevels</effectcategory>
									<effecttype>audiolevels</effecttype>
									<mediatype>audio</mediatype>
									<parameter authoringApp="PremierePro">
										<parameterid>level</parameterid>
										<name>Level</name>
										<valuemin>0</valuemin>
										<valuemax>3.98109</valuemax>
										<value>0.186158</value>
									</parameter>
								</effect>
							</filter>
							<filter>
								<effect>
									<name>Audio Pan</name>
									<effectid>audiopan</effectid>
									<effectcategory>audiopan</effectcategory>
									<effecttype>audiopan</effecttype>
									<mediatype>audio</mediatype>
									<parameter authoringApp="PremierePro">
										<parameterid>pan</parameterid>
										<name>Pan</name>
										<valuemin>-1</valuemin>
										<valuemax>1</valuemax>
										<value>0</value>
									</parameter>
								</effect>
							</filter>
						<link>
							<linkclipref>clipitem-1661</linkclipref>
							<mediatype>audio</mediatype>
							<trackindex>10</trackindex>
							<clipindex>1</clipindex>
							<groupindex>1</groupindex>
						</link>
						<link>
							<linkclipref>clipitem-1678</linkclipref>
							<mediatype>audio</mediatype>
							<trackindex>11</trackindex>
							<clipindex>1</clipindex>
							<groupindex>1</groupindex>
						</link>
						<logginginfo>
							<description></description>
							<scene></scene>
							<shottake></shottake>
							<lognote></lognote>
						</logginginfo>
						<labels>
							<label2>Caribbean</label2>
						</labels>
					</clipitem>
					<transitionitem>
						<start>1945</start>
						<end>1978</end>
						<alignment>start-black</alignment>
						<cutPoint>0</cutPoint>
						<rate>
							<timebase>25</timebase>
							<ntsc>FALSE</ntsc>
						</rate>
						<effect>
							<name>Cross Fade (+3dB)</name>
							<effectid>KGAudioTransCrossFade3dB</effectid>
							<effecttype>transition</effecttype>
							<mediatype>audio</mediatype>
							<wipecode>0</wipecode>
							<wipeaccuracy>100</wipeaccuracy>
							<startratio>0</startratio>
							<endratio>1</endratio>
							<reverse>FALSE</reverse>
						</effect>
					</transitionitem>
					<clipitem id="clipitem-1662" frameBlend="FALSE" PannerCurrentValue="0.5" PannerKeyframes="" PannerStartKeyframe="-91445760000000000,0.5,0,0,0,0,0,0" PannerIsInverted="true" PannerName="Balance">
						<masterclipid>masterclip-284</masterclipid>
						<name>Apollo_LLA_130_24__Death_In_The_City_(No_Guitars_Mix)__Alan_Lazar.mp3</name>
						<enabled>TRUE</enabled>
						<duration>2576</duration>
						<rate>
							<timebase>25</timebase>
							<ntsc>FALSE</ntsc>
						</rate>
						<start>-1</start>
						<end>-1</end>
						<in>634</in>
						<out>1464</out>
						<file id="file-257">
							<name>Apollo_LLA_130_24__Death_In_The_City_(No_Guitars_Mix)__Alan_Lazar.mp3</name>
							<pathurl>file://localhost/Volumes/Brakka/Katta/Musikk/Smart%20eller%20overva%cc%8aket%20-%20krim/Apollo_LLA_130_24__Death_In_The_City_(No_Guitars_Mix)__Alan_Lazar.mp3</pathurl>
							<rate>
								<timebase>30</timebase>
								<ntsc>TRUE</ntsc>
							</rate>
							<duration>3088</duration>
							<timecode>
								<rate>
									<timebase>30</timebase>
									<ntsc>TRUE</ntsc>
								</rate>
								<string>00;00;00;00</string>
								<frame>0</frame>
								<displayformat>DF</displayformat>
								<reel>
									<name></name>
								</reel>
							</timecode>
							<media>
								<audio>
									<samplecharacteristics>
										<depth>16</depth>
										<samplerate>48000</samplerate>
									</samplecharacteristics>
									<channelcount>2</channelcount>
								</audio>
							</media>
						</file>
						<sourcetrack>
							<mediatype>audio</mediatype>
							<trackindex>1</trackindex>
						</sourcetrack>
							<filter>
								<effect>
									<name>Audio Levels</name>
									<effectid>audiolevels</effectid>
									<effectcategory>audiolevels</effectcategory>
									<effecttype>audiolevels</effecttype>
									<mediatype>audio</mediatype>
									<parameter authoringApp="PremierePro">
										<parameterid>level</parameterid>
										<name>Level</name>
										<valuemin>0</valuemin>
										<valuemax>3.98109</valuemax>
										<value>0.28117</value>
									</parameter>
								</effect>
							</filter>
							<filter>
								<effect>
									<name>Audio Pan</name>
									<effectid>audiopan</effectid>
									<effectcategory>audiopan</effectcategory>
									<effecttype>audiopan</effecttype>
									<mediatype>audio</mediatype>
									<parameter authoringApp="PremierePro">
										<parameterid>pan</parameterid>
										<name>Pan</name>
										<valuemin>-1</valuemin>
										<valuemax>1</valuemax>
										<value>0</value>
									</parameter>
								</effect>
							</filter>
						<link>
							<linkclipref>clipitem-1662</linkclipref>
							<mediatype>audio</mediatype>
							<trackindex>10</trackindex>
							<clipindex>3</clipindex>
							<groupindex>1</groupindex>
						</link>
						<link>
							<linkclipref>clipitem-1679</linkclipref>
							<mediatype>audio</mediatype>
							<trackindex>11</trackindex>
							<clipindex>3</clipindex>
							<groupindex>1</groupindex>
						</link>
						<logginginfo>
							<description></description>
							<scene></scene>
							<shottake></shottake>
							<lognote>LLA130 Death In The City [No Guitars Mix] by Alan Lazar BMI_SAMRO 100% Lalela Music www.lalela.com</lognote>
						</logginginfo>
					</clipitem>
					<transitionitem>
						<start>2716</start>
						<end>2775</end>
						<alignment>end-black</alignment>
						<cutPoint>59</cutPoint>
						<rate>
							<timebase>25</timebase>
							<ntsc>FALSE</ntsc>
						</rate>
						<effect>
							<name>Cross Fade (+3dB)</name>
							<effectid>KGAudioTransCrossFade3dB</effectid>
							<effecttype>transition</effecttype>
							<mediatype>audio</mediatype>
							<wipecode>0</wipecode>
							<wipeaccuracy>100</wipeaccuracy>
							<startratio>0</startratio>
							<endratio>1</endratio>
							<reverse>FALSE</reverse>
						</effect>
					</transitionitem>
					<transitionitem>
						<start>4713</start>
						<end>4726</end>
						<alignment>start-black</alignment>
						<cutPoint>0</cutPoint>
						<rate>
							<timebase>25</timebase>
							<ntsc>FALSE</ntsc>
						</rate>
						<effect>
							<name>Cross Fade (+3dB)</name>
							<effectid>KGAudioTransCrossFade3dB</effectid>
							<effecttype>transition</effecttype>
							<mediatype>audio</mediatype>
							<wipecode>0</wipecode>
							<wipeaccuracy>100</wipeaccuracy>
							<startratio>0</startratio>
							<endratio>1</endratio>
							<reverse>FALSE</reverse>
						</effect>
					</transitionitem>
					<clipitem id="clipitem-1663" frameBlend="FALSE" PannerCurrentValue="0.5" PannerKeyframes="" PannerStartKeyframe="-91445760000000000,0.5,0,0,0,0,0,0" PannerIsInverted="true" PannerName="Balance">
						<masterclipid>masterclip-285</masterclipid>
						<name>AUXMP_SCD074301_INVISIBLE_EVIDENCE-1.wav</name>
						<enabled>TRUE</enabled>
						<duration>2017</duration>
						<rate>
							<timebase>25</timebase>
							<ntsc>FALSE</ntsc>
						</rate>
						<start>-1</start>
						<end>-1</end>
						<in>499</in>
						<out>1385</out>
						<file id="file-258">
							<name>AUXMP_SCD074301_INVISIBLE_EVIDENCE-1.wav</name>
							<pathurl>file://localhost/Volumes/Brakka/Katta/Musikk/Smart%20eller%20overva%cc%8aket%20-%20krim/AUXMP_SCD074301_INVISIBLE_EVIDENCE-1.wav</pathurl>
							<rate>
								<timebase>30</timebase>
								<ntsc>TRUE</ntsc>
							</rate>
							<duration>2418</duration>
							<timecode>
								<rate>
									<timebase>30</timebase>
									<ntsc>TRUE</ntsc>
								</rate>
								<string>00;00;00;00</string>
								<frame>0</frame>
								<displayformat>DF</displayformat>
								<reel>
									<name></name>
								</reel>
							</timecode>
							<media>
								<audio>
									<samplecharacteristics>
										<depth>16</depth>
										<samplerate>48000</samplerate>
									</samplecharacteristics>
									<channelcount>2</channelcount>
								</audio>
							</media>
						</file>
						<sourcetrack>
							<mediatype>audio</mediatype>
							<trackindex>1</trackindex>
						</sourcetrack>
							<filter>
								<effect>
									<name>Audio Levels</name>
									<effectid>audiolevels</effectid>
									<effectcategory>audiolevels</effectcategory>
									<effecttype>audiolevels</effecttype>
									<mediatype>audio</mediatype>
									<parameter authoringApp="PremierePro">
										<parameterid>level</parameterid>
										<name>Level</name>
										<valuemin>0</valuemin>
										<valuemax>3.98109</valuemax>
										<value>0.0445625</value>
									</parameter>
								</effect>
							</filter>
							<filter>
								<effect>
									<name>Audio Pan</name>
									<effectid>audiopan</effectid>
									<effectcategory>audiopan</effectcategory>
									<effecttype>audiopan</effecttype>
									<mediatype>audio</mediatype>
									<parameter authoringApp="PremierePro">
										<parameterid>pan</parameterid>
										<name>Pan</name>
										<valuemin>-1</valuemin>
										<valuemax>1</valuemax>
										<value>0</value>
									</parameter>
								</effect>
							</filter>
						<link>
							<linkclipref>clipitem-1663</linkclipref>
							<mediatype>audio</mediatype>
							<trackindex>10</trackindex>
							<clipindex>6</clipindex>
							<groupindex>1</groupindex>
						</link>
						<link>
							<linkclipref>clipitem-1680</linkclipref>
							<mediatype>audio</mediatype>
							<trackindex>11</trackindex>
							<clipindex>6</clipindex>
							<groupindex>1</groupindex>
						</link>
						<logginginfo>
							<description></description>
							<scene></scene>
							<shottake></shottake>
							<lognote></lognote>
						</logginginfo>
						<labels>
							<label2>Mango</label2>
						</labels>
					</clipitem>
					<transitionitem>
						<start>5586</start>
						<end>5599</end>
						<alignment>end-black</alignment>
						<cutPoint>13</cutPoint>
						<rate>
							<timebase>25</timebase>
							<ntsc>FALSE</ntsc>
						</rate>
						<effect>
							<name>Cross Fade (+3dB)</name>
							<effectid>KGAudioTransCrossFade3dB</effectid>
							<effecttype>transition</effecttype>
							<mediatype>audio</mediatype>
							<wipecode>0</wipecode>
							<wipeaccuracy>100</wipeaccuracy>
							<startratio>0</startratio>
							<endratio>1</endratio>
							<reverse>FALSE</reverse>
						</effect>
					</transitionitem>
					<clipitem id="clipitem-1664" frameBlend="FALSE" PannerCurrentValue="0.5" PannerKeyframes="" PannerStartKeyframe="-91445760000000000,0.5,0,0,0,0,0,0" PannerIsInverted="true" PannerName="Balance">
						<masterclipid>masterclip-286</masterclipid>
						<name>AUXMP_SCD074317_SMART_GUYS.wav</name>
						<enabled>TRUE</enabled>
						<duration>1602</duration>
						<rate>
							<timebase>25</timebase>
							<ntsc>FALSE</ntsc>
						</rate>
						<start>15642</start>
						<end>16141</end>
						<in>5</in>
						<out>504</out>
						<file id="file-259">
							<name>AUXMP_SCD074317_SMART_GUYS.wav</name>
							<pathurl>file://localhost/Volumes/Brakka/Katta/Musikk/Smart%20eller%20overva%cc%8aket%20-%20krim/AUXMP_SCD074317_SMART_GUYS.wav</pathurl>
							<rate>
								<timebase>30</timebase>
								<ntsc>TRUE</ntsc>
							</rate>
							<duration>1920</duration>
							<timecode>
								<rate>
									<timebase>30</timebase>
									<ntsc>TRUE</ntsc>
								</rate>
								<string>00;00;00;00</string>
								<frame>0</frame>
								<displayformat>DF</displayformat>
								<reel>
									<name></name>
								</reel>
							</timecode>
							<media>
								<audio>
									<samplecharacteristics>
										<depth>16</depth>
										<samplerate>48000</samplerate>
									</samplecharacteristics>
									<channelcount>2</channelcount>
								</audio>
							</media>
						</file>
						<sourcetrack>
							<mediatype>audio</mediatype>
							<trackindex>1</trackindex>
						</sourcetrack>
							<filter>
								<effect>
									<name>Audio Levels</name>
									<effectid>audiolevels</effectid>
									<effectcategory>audiolevels</effectcategory>
									<effecttype>audiolevels</effecttype>
									<mediatype>audio</mediatype>
									<parameter authoringApp="PremierePro">
										<parameterid>level</parameterid>
										<name>Level</name>
										<valuemin>0</valuemin>
										<valuemax>3.98109</valuemax>
										<value>0.0792446</value>
										<keyframe>
											<when>24</when>
											<value>0.554306</value>
										</keyframe>
										<keyframe>
											<when>29</when>
											<value>0.0792446</value>
										</keyframe>
									</parameter>
								</effect>
							</filter>
							<filter>
								<effect>
									<name>Audio Pan</name>
									<effectid>audiopan</effectid>
									<effectcategory>audiopan</effectcategory>
									<effecttype>audiopan</effecttype>
									<mediatype>audio</mediatype>
									<parameter authoringApp="PremierePro">
										<parameterid>pan</parameterid>
										<name>Pan</name>
										<valuemin>-1</valuemin>
										<valuemax>1</valuemax>
										<value>0</value>
									</parameter>
								</effect>
							</filter>
						<link>
							<linkclipref>clipitem-1664</linkclipref>
							<mediatype>audio</mediatype>
							<trackindex>10</trackindex>
							<clipindex>8</clipindex>
							<groupindex>1</groupindex>
						</link>
						<link>
							<linkclipref>clipitem-1681</linkclipref>
							<mediatype>audio</mediatype>
							<trackindex>11</trackindex>
							<clipindex>8</clipindex>
							<groupindex>1</groupindex>
						</link>
						<logginginfo>
							<description></description>
							<scene></scene>
							<shottake></shottake>
							<lognote></lognote>
						</logginginfo>
						<labels>
							<label2>Mango</label2>
						</labels>
					</clipitem>
					<clipitem id="clipitem-1665" frameBlend="FALSE" PannerCurrentValue="0.5" PannerKeyframes="" PannerStartKeyframe="-91445760000000000,0.5,0,0,0,0,0,0" PannerIsInverted="true" PannerName="Balance">
						<masterclipid>masterclip-285</masterclipid>
						<name>AUXMP_SCD074301_INVISIBLE_EVIDENCE-1.wav</name>
						<enabled>TRUE</enabled>
						<duration>2017</duration>
						<rate>
							<timebase>25</timebase>
							<ntsc>FALSE</ntsc>
						</rate>
						<start>18158</start>
						<end>-1</end>
						<in>2</in>
						<out>510</out>
						<file id="file-258"/>
						<sourcetrack>
							<mediatype>audio</mediatype>
							<trackindex>1</trackindex>
						</sourcetrack>
							<filter>
								<effect>
									<name>Audio Levels</name>
									<effectid>audiolevels</effectid>
									<effectcategory>audiolevels</effectcategory>
									<effecttype>audiolevels</effecttype>
									<mediatype>audio</mediatype>
									<parameter authoringApp="PremierePro">
										<parameterid>level</parameterid>
										<name>Level</name>
										<valuemin>0</valuemin>
										<valuemax>3.98109</valuemax>
										<value>0.223342</value>
									</parameter>
								</effect>
							</filter>
							<filter>
								<effect>
									<name>Audio Pan</name>
									<effectid>audiopan</effectid>
									<effectcategory>audiopan</effectcategory>
									<effecttype>audiopan</effecttype>
									<mediatype>audio</mediatype>
									<parameter authoringApp="PremierePro">
										<parameterid>pan</parameterid>
										<name>Pan</name>
										<valuemin>-1</valuemin>
										<valuemax>1</valuemax>
										<value>0</value>
									</parameter>
								</effect>
							</filter>
						<link>
							<linkclipref>clipitem-1665</linkclipref>
							<mediatype>audio</mediatype>
							<trackindex>10</trackindex>
							<clipindex>9</clipindex>
							<groupindex>1</groupindex>
						</link>
						<link>
							<linkclipref>clipitem-1682</linkclipref>
							<mediatype>audio</mediatype>
							<trackindex>11</trackindex>
							<clipindex>9</clipindex>
							<groupindex>1</groupindex>
						</link>
						<logginginfo>
							<description></description>
							<scene></scene>
							<shottake></shottake>
							<lognote></lognote>
						</logginginfo>
						<labels>
							<label2>Mango</label2>
						</labels>
					</clipitem>
					<transitionitem>
						<start>18587</start>
						<end>18666</end>
						<alignment>end-black</alignment>
						<cutPoint>79</cutPoint>
						<rate>
							<timebase>25</timebase>
							<ntsc>FALSE</ntsc>
						</rate>
						<effect>
							<name>Cross Fade (+3dB)</name>
							<effectid>KGAudioTransCrossFade3dB</effectid>
							<effecttype>transition</effecttype>
							<mediatype>audio</mediatype>
							<wipecode>0</wipecode>
							<wipeaccuracy>100</wipeaccuracy>
							<startratio>0</startratio>
							<endratio>1</endratio>
							<reverse>FALSE</reverse>
						</effect>
					</transitionitem>
					<clipitem id="clipitem-1666" frameBlend="FALSE" PannerCurrentValue="0.5" PannerKeyframes="" PannerStartKeyframe="-91445760000000000,0.5,0,0,0,0,0,0" PannerIsInverted="true" PannerName="Balance">
						<masterclipid>masterclip-287</masterclipid>
						<name>AUXMP_SCDV037624_RAISING_HOPE_B.wav</name>
						<enabled>TRUE</enabled>
						<duration>4980</duration>
						<rate>
							<timebase>25</timebase>
							<ntsc>FALSE</ntsc>
						</rate>
						<start>20423</start>
						<end>-1</end>
						<in>0</in>
						<out>651</out>
						<file id="file-260">
							<name>AUXMP_SCDV037624_RAISING_HOPE_B.wav</name>
							<pathurl>file://localhost/Volumes/Brakka/Katta/Musikk/Sensor%20for%20mat%20-%20magi,%20skummelt,%20ha%cc%8ap/AUXMP_SCDV037624_RAISING_HOPE_B.wav</pathurl>
							<rate>
								<timebase>30</timebase>
								<ntsc>TRUE</ntsc>
							</rate>
							<duration>5970</duration>
							<timecode>
								<rate>
									<timebase>30</timebase>
									<ntsc>TRUE</ntsc>
								</rate>
								<string>00;52;56;27</string>
								<frame>95213</frame>
								<displayformat>DF</displayformat>
								<reel>
									<name></name>
								</reel>
							</timecode>
							<media>
								<audio>
									<samplecharacteristics>
										<depth>16</depth>
										<samplerate>48000</samplerate>
									</samplecharacteristics>
									<channelcount>2</channelcount>
								</audio>
							</media>
						</file>
						<sourcetrack>
							<mediatype>audio</mediatype>
							<trackindex>1</trackindex>
						</sourcetrack>
							<filter>
								<effect>
									<name>Audio Levels</name>
									<effectid>audiolevels</effectid>
									<effectcategory>audiolevels</effectcategory>
									<effecttype>audiolevels</effecttype>
									<mediatype>audio</mediatype>
									<parameter authoringApp="PremierePro">
										<parameterid>level</parameterid>
										<name>Level</name>
										<valuemin>0</valuemin>
										<valuemax>3.98109</valuemax>
										<value>0.125594</value>
									</parameter>
								</effect>
							</filter>
							<filter>
								<effect>
									<name>Audio Pan</name>
									<effectid>audiopan</effectid>
									<effectcategory>audiopan</effectcategory>
									<effecttype>audiopan</effecttype>
									<mediatype>audio</mediatype>
									<parameter authoringApp="PremierePro">
										<parameterid>pan</parameterid>
										<name>Pan</name>
										<valuemin>-1</valuemin>
										<valuemax>1</valuemax>
										<value>0</value>
									</parameter>
								</effect>
							</filter>
						<link>
							<linkclipref>clipitem-1666</linkclipref>
							<mediatype>audio</mediatype>
							<trackindex>10</trackindex>
							<clipindex>11</clipindex>
							<groupindex>1</groupindex>
						</link>
						<link>
							<linkclipref>clipitem-1683</linkclipref>
							<mediatype>audio</mediatype>
							<trackindex>11</trackindex>
							<clipindex>11</clipindex>
							<groupindex>1</groupindex>
						</link>
						<logginginfo>
							<description></description>
							<scene></scene>
							<shottake></shottake>
							<lognote></lognote>
						</logginginfo>
						<labels>
							<label2>Forest</label2>
						</labels>
					</clipitem>
					<transitionitem>
						<start>21028</start>
						<end>21074</end>
						<alignment>end-black</alignment>
						<cutPoint>46</cutPoint>
						<rate>
							<timebase>25</timebase>
							<ntsc>FALSE</ntsc>
						</rate>
						<effect>
							<name>Cross Fade (+3dB)</name>
							<effectid>KGAudioTransCrossFade3dB</effectid>
							<effecttype>transition</effecttype>
							<mediatype>audio</mediatype>
							<wipecode>0</wipecode>
							<wipeaccuracy>100</wipeaccuracy>
							<startratio>0</startratio>
							<endratio>1</endratio>
							<reverse>FALSE</reverse>
						</effect>
					</transitionitem>
					<clipitem id="clipitem-1667" frameBlend="FALSE" PannerCurrentValue="0.5" PannerKeyframes="" PannerStartKeyframe="-91445760000000000,0.5,0,0,0,0,0,0" PannerIsInverted="true" PannerName="Balance">
						<masterclipid>masterclip-288</masterclipid>
						<name>AUXMP_SCD074316_DIFFICULT_CASE.wav</name>
						<enabled>TRUE</enabled>
						<duration>2243</duration>
						<rate>
							<timebase>25</timebase>
							<ntsc>FALSE</ntsc>
						</rate>
						<start>22602</start>
						<end>-1</end>
						<in>1074</in>
						<out>1549</out>
						<file id="file-261">
							<name>AUXMP_SCD074316_DIFFICULT_CASE.wav</name>
							<pathurl>file://localhost/Volumes/Brakka/Katta/Musikk/Smart%20eller%20overva%cc%8aket%20-%20krim/AUXMP_SCD074316_DIFFICULT_CASE.wav</pathurl>
							<rate>
								<timebase>30</timebase>
								<ntsc>TRUE</ntsc>
							</rate>
							<duration>2689</duration>
							<timecode>
								<rate>
									<timebase>30</timebase>
									<ntsc>TRUE</ntsc>
								</rate>
								<string>00;00;00;00</string>
								<frame>0</frame>
								<displayformat>DF</displayformat>
								<reel>
									<name></name>
								</reel>
							</timecode>
							<media>
								<audio>
									<samplecharacteristics>
										<depth>16</depth>
										<samplerate>48000</samplerate>
									</samplecharacteristics>
									<channelcount>2</channelcount>
								</audio>
							</media>
						</file>
						<sourcetrack>
							<mediatype>audio</mediatype>
							<trackindex>1</trackindex>
						</sourcetrack>
							<filter>
								<effect>
									<name>Audio Levels</name>
									<effectid>audiolevels</effectid>
									<effectcategory>audiolevels</effectcategory>
									<effecttype>audiolevels</effecttype>
									<mediatype>audio</mediatype>
									<parameter authoringApp="PremierePro">
										<parameterid>level</parameterid>
										<name>Level</name>
										<valuemin>0</valuemin>
										<valuemax>3.98109</valuemax>
										<value>0.223342</value>
									</parameter>
								</effect>
							</filter>
							<filter>
								<effect>
									<name>Audio Pan</name>
									<effectid>audiopan</effectid>
									<effectcategory>audiopan</effectcategory>
									<effecttype>audiopan</effecttype>
									<mediatype>audio</mediatype>
									<parameter authoringApp="PremierePro">
										<parameterid>pan</parameterid>
										<name>Pan</name>
										<valuemin>-1</valuemin>
										<valuemax>1</valuemax>
										<value>0</value>
									</parameter>
								</effect>
							</filter>
						<link>
							<linkclipref>clipitem-1667</linkclipref>
							<mediatype>audio</mediatype>
							<trackindex>10</trackindex>
							<clipindex>13</clipindex>
							<groupindex>1</groupindex>
						</link>
						<link>
							<linkclipref>clipitem-1684</linkclipref>
							<mediatype>audio</mediatype>
							<trackindex>11</trackindex>
							<clipindex>13</clipindex>
							<groupindex>1</groupindex>
						</link>
						<logginginfo>
							<description></description>
							<scene></scene>
							<shottake></shottake>
							<lognote></lognote>
						</logginginfo>
						<labels>
							<label2>Lavender</label2>
						</labels>
					</clipitem>
					<transitionitem>
						<start>22977</start>
						<end>23077</end>
						<alignment>end-black</alignment>
						<cutPoint>100</cutPoint>
						<rate>
							<timebase>25</timebase>
							<ntsc>FALSE</ntsc>
						</rate>
						<effect>
							<name>Cross Fade (+3dB)</name>
							<effectid>KGAudioTransCrossFade3dB</effectid>
							<effecttype>transition</effecttype>
							<mediatype>audio</mediatype>
							<wipecode>0</wipecode>
							<wipeaccuracy>100</wipeaccuracy>
							<startratio>0</startratio>
							<endratio>1</endratio>
							<reverse>FALSE</reverse>
						</effect>
					</transitionitem>
					<clipitem id="clipitem-1668" frameBlend="FALSE" PannerCurrentValue="0.5" PannerKeyframes="" PannerStartKeyframe="-91445760000000000,0.5,0,0,0,0,0,0" PannerIsInverted="true" PannerName="Balance">
						<masterclipid>masterclip-289</masterclipid>
						<name>AUXMP_SCD084304_POLLUTION_DRONE__A.wav</name>
						<enabled>TRUE</enabled>
						<duration>4566</duration>
						<rate>
							<timebase>25</timebase>
							<ntsc>FALSE</ntsc>
						</rate>
						<start>24778</start>
						<end>-1</end>
						<in>3186</in>
						<out>3241</out>
						<file id="file-262">
							<name>AUXMP_SCD084304_POLLUTION_DRONE__A.wav</name>
							<pathurl>file://localhost/Volumes/Brakka/Katta/Musikk/Sensor%20for%20mat%20-%20magi,%20skummelt,%20ha%cc%8ap/AUXMP_SCD084304_POLLUTION_DRONE__A.wav</pathurl>
							<rate>
								<timebase>30</timebase>
								<ntsc>TRUE</ntsc>
							</rate>
							<duration>5474</duration>
							<timecode>
								<rate>
									<timebase>30</timebase>
									<ntsc>TRUE</ntsc>
								</rate>
								<string>00;06;33;13</string>
								<frame>11791</frame>
								<displayformat>DF</displayformat>
								<reel>
									<name></name>
								</reel>
							</timecode>
							<media>
								<audio>
									<samplecharacteristics>
										<depth>16</depth>
										<samplerate>48000</samplerate>
									</samplecharacteristics>
									<channelcount>2</channelcount>
								</audio>
							</media>
						</file>
						<sourcetrack>
							<mediatype>audio</mediatype>
							<trackindex>1</trackindex>
						</sourcetrack>
							<filter>
								<effect>
									<name>Audio Levels</name>
									<effectid>audiolevels</effectid>
									<effectcategory>audiolevels</effectcategory>
									<effecttype>audiolevels</effecttype>
									<mediatype>audio</mediatype>
									<parameter authoringApp="PremierePro">
										<parameterid>level</parameterid>
										<name>Level</name>
										<valuemin>0</valuemin>
										<valuemax>3.98109</valuemax>
										<value>0.61758</value>
									</parameter>
								</effect>
							</filter>
							<filter>
								<effect>
									<name>Audio Pan</name>
									<effectid>audiopan</effectid>
									<effectcategory>audiopan</effectcategory>
									<effecttype>audiopan</effecttype>
									<mediatype>audio</mediatype>
									<parameter authoringApp="PremierePro">
										<parameterid>pan</parameterid>
										<name>Pan</name>
										<valuemin>-1</valuemin>
										<valuemax>1</valuemax>
										<value>0</value>
									</parameter>
								</effect>
							</filter>
						<link>
							<linkclipref>clipitem-1668</linkclipref>
							<mediatype>audio</mediatype>
							<trackindex>10</trackindex>
							<clipindex>15</clipindex>
							<groupindex>1</groupindex>
						</link>
						<link>
							<linkclipref>clipitem-1685</linkclipref>
							<mediatype>audio</mediatype>
							<trackindex>11</trackindex>
							<clipindex>15</clipindex>
							<groupindex>1</groupindex>
						</link>
						<logginginfo>
							<description></description>
							<scene></scene>
							<shottake></shottake>
							<lognote></lognote>
						</logginginfo>
						<labels>
							<label2>Rose</label2>
						</labels>
					</clipitem>
					<transitionitem>
						<start>24815</start>
						<end>24833</end>
						<alignment>end-black</alignment>
						<cutPoint>18</cutPoint>
						<rate>
							<timebase>25</timebase>
							<ntsc>FALSE</ntsc>
						</rate>
						<effect>
							<name>Cross Fade (+3dB)</name>
							<effectid>KGAudioTransCrossFade3dB</effectid>
							<effecttype>transition</effecttype>
							<mediatype>audio</mediatype>
							<wipecode>0</wipecode>
							<wipeaccuracy>100</wipeaccuracy>
							<startratio>0</startratio>
							<endratio>1</endratio>
							<reverse>FALSE</reverse>
						</effect>
					</transitionitem>
					<clipitem id="clipitem-1669" frameBlend="FALSE" PannerCurrentValue="0.5" PannerKeyframes="" PannerStartKeyframe="-91445760000000000,0.5,0,0,0,0,0,0" PannerIsInverted="true" PannerName="Balance">
						<masterclipid>masterclip-290</masterclipid>
						<name>AUXMP_BBX012407_CLUELESS_CRIME.wav</name>
						<enabled>TRUE</enabled>
						<duration>2763</duration>
						<rate>
							<timebase>25</timebase>
							<ntsc>FALSE</ntsc>
						</rate>
						<start>29145</start>
						<end>-1</end>
						<in>1</in>
						<out>1120</out>
						<file id="file-263">
							<name>AUXMP_BBX012407_CLUELESS_CRIME.wav</name>
							<pathurl>file://localhost/Volumes/Brakka/Katta/Musikk/Smart%20eller%20overva%cc%8aket%20-%20krim/AUXMP_BBX012407_CLUELESS_CRIME.wav</pathurl>
							<rate>
								<timebase>30</timebase>
								<ntsc>TRUE</ntsc>
							</rate>
							<duration>3312</duration>
							<timecode>
								<rate>
									<timebase>30</timebase>
									<ntsc>TRUE</ntsc>
								</rate>
								<string>00;00;00;00</string>
								<frame>0</frame>
								<displayformat>DF</displayformat>
								<reel>
									<name></name>
								</reel>
							</timecode>
							<media>
								<audio>
									<samplecharacteristics>
										<depth>16</depth>
										<samplerate>48000</samplerate>
									</samplecharacteristics>
									<channelcount>2</channelcount>
								</audio>
							</media>
						</file>
						<sourcetrack>
							<mediatype>audio</mediatype>
							<trackindex>1</trackindex>
						</sourcetrack>
							<filter>
								<effect>
									<name>Audio Levels</name>
									<effectid>audiolevels</effectid>
									<effectcategory>audiolevels</effectcategory>
									<effecttype>audiolevels</effecttype>
									<mediatype>audio</mediatype>
									<parameter authoringApp="PremierePro">
										<parameterid>level</parameterid>
										<name>Level</name>
										<valuemin>0</valuemin>
										<valuemax>3.98109</valuemax>
										<value>0.223342</value>
									</parameter>
								</effect>
							</filter>
							<filter>
								<effect>
									<name>Audio Pan</name>
									<effectid>audiopan</effectid>
									<effectcategory>audiopan</effectcategory>
									<effecttype>audiopan</effecttype>
									<mediatype>audio</mediatype>
									<parameter authoringApp="PremierePro">
										<parameterid>pan</parameterid>
										<name>Pan</name>
										<valuemin>-1</valuemin>
										<valuemax>1</valuemax>
										<value>0</value>
									</parameter>
								</effect>
							</filter>
						<link>
							<linkclipref>clipitem-1669</linkclipref>
							<mediatype>audio</mediatype>
							<trackindex>10</trackindex>
							<clipindex>17</clipindex>
							<groupindex>1</groupindex>
						</link>
						<link>
							<linkclipref>clipitem-1686</linkclipref>
							<mediatype>audio</mediatype>
							<trackindex>11</trackindex>
							<clipindex>17</clipindex>
							<groupindex>1</groupindex>
						</link>
						<logginginfo>
							<description></description>
							<scene></scene>
							<shottake></shottake>
							<lognote></lognote>
						</logginginfo>
						<labels>
							<label2>Caribbean</label2>
						</labels>
					</clipitem>
					<transitionitem>
						<start>30251</start>
						<end>30264</end>
						<alignment>center</alignment>
						<cutPoint>6</cutPoint>
						<rate>
							<timebase>25</timebase>
							<ntsc>FALSE</ntsc>
						</rate>
						<effect>
							<name>Cross Fade (+3dB)</name>
							<effectid>KGAudioTransCrossFade3dB</effectid>
							<effecttype>transition</effecttype>
							<mediatype>audio</mediatype>
							<wipecode>0</wipecode>
							<wipeaccuracy>100</wipeaccuracy>
							<startratio>0</startratio>
							<endratio>1</endratio>
							<reverse>FALSE</reverse>
						</effect>
					</transitionitem>
					<clipitem id="clipitem-1670" frameBlend="FALSE" PannerCurrentValue="0.5" PannerKeyframes="" PannerStartKeyframe="-91445760000000000,0.5,0,0,0,0,0,0" PannerIsInverted="true" PannerName="Balance">
						<masterclipid>masterclip-290</masterclipid>
						<name>AUXMP_BBX012407_CLUELESS_CRIME.wav</name>
						<enabled>TRUE</enabled>
						<duration>2763</duration>
						<rate>
							<timebase>25</timebase>
							<ntsc>FALSE</ntsc>
						</rate>
						<start>-1</start>
						<end>30488</end>
						<in>2396</in>
						<out>2633</out>
						<file id="file-263"/>
						<sourcetrack>
							<mediatype>audio</mediatype>
							<trackindex>1</trackindex>
						</sourcetrack>
							<filter>
								<effect>
									<name>Audio Levels</name>
									<effectid>audiolevels</effectid>
									<effectcategory>audiolevels</effectcategory>
									<effecttype>audiolevels</effecttype>
									<mediatype>audio</mediatype>
									<parameter authoringApp="PremierePro">
										<parameterid>level</parameterid>
										<name>Level</name>
										<valuemin>0</valuemin>
										<valuemax>3.98109</valuemax>
										<value>0.250593</value>
									</parameter>
								</effect>
							</filter>
							<filter>
								<effect>
									<name>Audio Pan</name>
									<effectid>audiopan</effectid>
									<effectcategory>audiopan</effectcategory>
									<effecttype>audiopan</effecttype>
									<mediatype>audio</mediatype>
									<parameter authoringApp="PremierePro">
										<parameterid>pan</parameterid>
										<name>Pan</name>
										<valuemin>-1</valuemin>
										<valuemax>1</valuemax>
										<value>0</value>
									</parameter>
								</effect>
							</filter>
						<link>
							<linkclipref>clipitem-1670</linkclipref>
							<mediatype>audio</mediatype>
							<trackindex>10</trackindex>
							<clipindex>19</clipindex>
							<groupindex>1</groupindex>
						</link>
						<link>
							<linkclipref>clipitem-1687</linkclipref>
							<mediatype>audio</mediatype>
							<trackindex>11</trackindex>
							<clipindex>19</clipindex>
							<groupindex>1</groupindex>
						</link>
						<logginginfo>
							<description></description>
							<scene></scene>
							<shottake></shottake>
							<lognote></lognote>
						</logginginfo>
						<labels>
							<label2>Caribbean</label2>
						</labels>
					</clipitem>
					<clipitem id="clipitem-1671" frameBlend="FALSE" PannerCurrentValue="0.5" PannerKeyframes="" PannerStartKeyframe="-91445760000000000,0.5,0,0,0,0,0,0" PannerIsInverted="true" PannerName="Pan">
						<masterclipid>masterclip-200</masterclipid>
						<name>MVI_0136.MOV</name>
						<enabled>TRUE</enabled>
						<duration>641</duration>
						<rate>
							<timebase>25</timebase>
							<ntsc>FALSE</ntsc>
						</rate>
						<start>31114</start>
						<end>31134</end>
						<in>364</in>
						<out>384</out>
						<file id="file-177"/>
						<sourcetrack>
							<mediatype>audio</mediatype>
							<trackindex>2</trackindex>
						</sourcetrack>
							<filter>
								<effect>
									<name>Audio Levels</name>
									<effectid>audiolevels</effectid>
									<effectcategory>audiolevels</effectcategory>
									<effecttype>audiolevels</effecttype>
									<mediatype>audio</mediatype>
									<parameter authoringApp="PremierePro">
										<parameterid>level</parameterid>
										<name>Level</name>
										<valuemin>0</valuemin>
										<valuemax>3.98109</valuemax>
										<value>0.199053</value>
									</parameter>
								</effect>
							</filter>
							<filter>
								<effect>
									<name>Audio Pan</name>
									<effectid>audiopan</effectid>
									<effectcategory>audiopan</effectcategory>
									<effecttype>audiopan</effecttype>
									<mediatype>audio</mediatype>
									<parameter authoringApp="PremierePro">
										<parameterid>pan</parameterid>
										<name>Pan</name>
										<valuemin>-1</valuemin>
										<valuemax>1</valuemax>
										<value>0</value>
									</parameter>
								</effect>
							</filter>
						<link>
							<linkclipref>clipitem-1654</linkclipref>
							<mediatype>audio</mediatype>
							<trackindex>8</trackindex>
							<clipindex>1</clipindex>
							<groupindex>1</groupindex>
						</link>
						<link>
							<linkclipref>clipitem-1671</linkclipref>
							<mediatype>audio</mediatype>
							<trackindex>10</trackindex>
							<clipindex>20</clipindex>
							<groupindex>1</groupindex>
						</link>
						<logginginfo>
							<description></description>
							<scene></scene>
							<shottake></shottake>
							<lognote></lognote>
						</logginginfo>
						<labels>
							<label2>Iris</label2>
						</labels>
					</clipitem>
					<clipitem id="clipitem-1672" frameBlend="FALSE" PannerCurrentValue="0.5" PannerKeyframes="" PannerStartKeyframe="-91445760000000000,0.5,0,0,0,0,0,0" PannerIsInverted="true" PannerName="Balance">
						<masterclipid>masterclip-291</masterclipid>
						<name>AUXMP_SCD087106_DIGITAL_BITSTREAM_B.wav</name>
						<enabled>TRUE</enabled>
						<duration>3166</duration>
						<rate>
							<timebase>25</timebase>
							<ntsc>FALSE</ntsc>
						</rate>
						<start>32196</start>
						<end>33018</end>
						<in>213</in>
						<out>1035</out>
						<file id="file-264">
							<name>AUXMP_SCD087106_DIGITAL_BITSTREAM_B.wav</name>
							<pathurl>file://localhost/Volumes/Brakka/Katta/Musikk/Sensor%20for%20mat%20-%20magi,%20skummelt,%20ha%cc%8ap/AUXMP_SCD087106_DIGITAL_BITSTREAM_B.wav</pathurl>
							<rate>
								<timebase>30</timebase>
								<ntsc>TRUE</ntsc>
							</rate>
							<duration>3796</duration>
							<timecode>
								<rate>
									<timebase>30</timebase>
									<ntsc>TRUE</ntsc>
								</rate>
								<string>00;11;22;01</string>
								<frame>20441</frame>
								<displayformat>DF</displayformat>
								<reel>
									<name></name>
								</reel>
							</timecode>
							<media>
								<audio>
									<samplecharacteristics>
										<depth>16</depth>
										<samplerate>48000</samplerate>
									</samplecharacteristics>
									<channelcount>2</channelcount>
								</audio>
							</media>
						</file>
						<sourcetrack>
							<mediatype>audio</mediatype>
							<trackindex>1</trackindex>
						</sourcetrack>
							<filter>
								<effect>
									<name>Audio Levels</name>
									<effectid>audiolevels</effectid>
									<effectcategory>audiolevels</effectcategory>
									<effecttype>audiolevels</effecttype>
									<mediatype>audio</mediatype>
									<parameter authoringApp="PremierePro">
										<parameterid>level</parameterid>
										<name>Level</name>
										<valuemin>0</valuemin>
										<valuemax>3.98109</valuemax>
										<value>0.185414</value>
									</parameter>
								</effect>
							</filter>
							<filter>
								<effect>
									<name>Audio Pan</name>
									<effectid>audiopan</effectid>
									<effectcategory>audiopan</effectcategory>
									<effecttype>audiopan</effecttype>
									<mediatype>audio</mediatype>
									<parameter authoringApp="PremierePro">
										<parameterid>pan</parameterid>
										<name>Pan</name>
										<valuemin>-1</valuemin>
										<valuemax>1</valuemax>
										<value>0</value>
									</parameter>
								</effect>
							</filter>
						<link>
							<linkclipref>clipitem-1672</linkclipref>
							<mediatype>audio</mediatype>
							<trackindex>10</trackindex>
							<clipindex>21</clipindex>
							<groupindex>1</groupindex>
						</link>
						<link>
							<linkclipref>clipitem-1688</linkclipref>
							<mediatype>audio</mediatype>
							<trackindex>11</trackindex>
							<clipindex>20</clipindex>
							<groupindex>1</groupindex>
						</link>
						<logginginfo>
							<description></description>
							<scene></scene>
							<shottake></shottake>
							<lognote></lognote>
						</logginginfo>
						<labels>
							<label2>Caribbean</label2>
						</labels>
					</clipitem>
					<clipitem id="clipitem-1673" frameBlend="FALSE" PannerCurrentValue="0.5" PannerKeyframes="" PannerStartKeyframe="-91445760000000000,0.5,0,0,0,0,0,0" PannerIsInverted="true" PannerName="Balance">
						<masterclipid>masterclip-289</masterclipid>
						<name>AUXMP_SCD084304_POLLUTION_DRONE__A.wav</name>
						<enabled>TRUE</enabled>
						<duration>4566</duration>
						<rate>
							<timebase>25</timebase>
							<ntsc>FALSE</ntsc>
						</rate>
						<start>33814</start>
						<end>34305</end>
						<in>0</in>
						<out>491</out>
						<file id="file-262"/>
						<sourcetrack>
							<mediatype>audio</mediatype>
							<trackindex>1</trackindex>
						</sourcetrack>
							<filter>
								<effect>
									<name>Audio Levels</name>
									<effectid>audiolevels</effectid>
									<effectcategory>audiolevels</effectcategory>
									<effecttype>audiolevels</effecttype>
									<mediatype>audio</mediatype>
									<parameter authoringApp="PremierePro">
										<parameterid>level</parameterid>
										<name>Level</name>
										<valuemin>0</valuemin>
										<valuemax>3.98109</valuemax>
										<value>0.353972</value>
									</parameter>
								</effect>
							</filter>
							<filter>
								<effect>
									<name>Audio Pan</name>
									<effectid>audiopan</effectid>
									<effectcategory>audiopan</effectcategory>
									<effecttype>audiopan</effecttype>
									<mediatype>audio</mediatype>
									<parameter authoringApp="PremierePro">
										<parameterid>pan</parameterid>
										<name>Pan</name>
										<valuemin>-1</valuemin>
										<valuemax>1</valuemax>
										<value>0</value>
									</parameter>
								</effect>
							</filter>
						<link>
							<linkclipref>clipitem-1673</linkclipref>
							<mediatype>audio</mediatype>
							<trackindex>10</trackindex>
							<clipindex>22</clipindex>
							<groupindex>1</groupindex>
						</link>
						<link>
							<linkclipref>clipitem-1689</linkclipref>
							<mediatype>audio</mediatype>
							<trackindex>11</trackindex>
							<clipindex>21</clipindex>
							<groupindex>1</groupindex>
						</link>
						<logginginfo>
							<description></description>
							<scene></scene>
							<shottake></shottake>
							<lognote></lognote>
						</logginginfo>
						<labels>
							<label2>Rose</label2>
						</labels>
					</clipitem>
					<clipitem id="clipitem-1674" frameBlend="FALSE" PannerCurrentValue="0.5" PannerKeyframes="" PannerStartKeyframe="-91445760000000000,0.5,0,0,0,0,0,0" PannerIsInverted="true" PannerName="Balance">
						<masterclipid>masterclip-287</masterclipid>
						<name>AUXMP_SCDV037624_RAISING_HOPE_B.wav</name>
						<enabled>TRUE</enabled>
						<duration>4980</duration>
						<rate>
							<timebase>25</timebase>
							<ntsc>FALSE</ntsc>
						</rate>
						<start>34629</start>
						<end>-1</end>
						<in>3547</in>
						<out>3928</out>
						<file id="file-260"/>
						<sourcetrack>
							<mediatype>audio</mediatype>
							<trackindex>1</trackindex>
						</sourcetrack>
							<filter>
								<effect>
									<name>Audio Levels</name>
									<effectid>audiolevels</effectid>
									<effectcategory>audiolevels</effectcategory>
									<effecttype>audiolevels</effecttype>
									<mediatype>audio</mediatype>
									<parameter authoringApp="PremierePro">
										<parameterid>level</parameterid>
										<name>Level</name>
										<valuemin>0</valuemin>
										<valuemax>3.98109</valuemax>
										<value>0.110848</value>
									</parameter>
								</effect>
							</filter>
							<filter>
								<effect>
									<name>Audio Pan</name>
									<effectid>audiopan</effectid>
									<effectcategory>audiopan</effectcategory>
									<effecttype>audiopan</effecttype>
									<mediatype>audio</mediatype>
									<parameter authoringApp="PremierePro">
										<parameterid>pan</parameterid>
										<name>Pan</name>
										<valuemin>-1</valuemin>
										<valuemax>1</valuemax>
										<value>0</value>
									</parameter>
								</effect>
							</filter>
						<link>
							<linkclipref>clipitem-1674</linkclipref>
							<mediatype>audio</mediatype>
							<trackindex>10</trackindex>
							<clipindex>23</clipindex>
							<groupindex>1</groupindex>
						</link>
						<link>
							<linkclipref>clipitem-1690</linkclipref>
							<mediatype>audio</mediatype>
							<trackindex>11</trackindex>
							<clipindex>22</clipindex>
							<groupindex>1</groupindex>
						</link>
						<logginginfo>
							<description></description>
							<scene></scene>
							<shottake></shottake>
							<lognote></lognote>
						</logginginfo>
						<labels>
							<label2>Forest</label2>
						</labels>
					</clipitem>
					<transitionitem>
						<start>34894</start>
						<end>35010</end>
						<alignment>end-black</alignment>
						<cutPoint>116</cutPoint>
						<rate>
							<timebase>25</timebase>
							<ntsc>FALSE</ntsc>
						</rate>
						<effect>
							<name>Cross Fade (+3dB)</name>
							<effectid>KGAudioTransCrossFade3dB</effectid>
							<effecttype>transition</effecttype>
							<mediatype>audio</mediatype>
							<wipecode>0</wipecode>
							<wipeaccuracy>100</wipeaccuracy>
							<startratio>0</startratio>
							<endratio>1</endratio>
							<reverse>FALSE</reverse>
						</effect>
					</transitionitem>
					<clipitem id="clipitem-1675" frameBlend="FALSE" PannerCurrentValue="0.5" PannerKeyframes="" PannerStartKeyframe="-91445760000000000,0.5,0,0,0,0,0,0" PannerIsInverted="true" PannerName="Balance">
						<masterclipid>masterclip-287</masterclipid>
						<name>AUXMP_SCDV037624_RAISING_HOPE_B.wav</name>
						<enabled>TRUE</enabled>
						<duration>4980</duration>
						<rate>
							<timebase>25</timebase>
							<ntsc>FALSE</ntsc>
						</rate>
						<start>36464</start>
						<end>-1</end>
						<in>0</in>
						<out>273</out>
						<file id="file-260"/>
						<sourcetrack>
							<mediatype>audio</mediatype>
							<trackindex>1</trackindex>
						</sourcetrack>
							<filter>
								<effect>
									<name>Audio Levels</name>
									<effectid>audiolevels</effectid>
									<effectcategory>audiolevels</effectcategory>
									<effecttype>audiolevels</effecttype>
									<mediatype>audio</mediatype>
									<parameter authoringApp="PremierePro">
										<parameterid>level</parameterid>
										<name>Level</name>
										<valuemin>0</valuemin>
										<valuemax>3.98109</valuemax>
										<value>0.158114</value>
									</parameter>
								</effect>
							</filter>
							<filter>
								<effect>
									<name>Audio Pan</name>
									<effectid>audiopan</effectid>
									<effectcategory>audiopan</effectcategory>
									<effecttype>audiopan</effecttype>
									<mediatype>audio</mediatype>
									<parameter authoringApp="PremierePro">
										<parameterid>pan</parameterid>
										<name>Pan</name>
										<valuemin>-1</valuemin>
										<valuemax>1</valuemax>
										<value>0</value>
									</parameter>
								</effect>
							</filter>
						<link>
							<linkclipref>clipitem-1675</linkclipref>
							<mediatype>audio</mediatype>
							<trackindex>10</trackindex>
							<clipindex>25</clipindex>
							<groupindex>1</groupindex>
						</link>
						<link>
							<linkclipref>clipitem-1691</linkclipref>
							<mediatype>audio</mediatype>
							<trackindex>11</trackindex>
							<clipindex>24</clipindex>
							<groupindex>1</groupindex>
						</link>
						<logginginfo>
							<description></description>
							<scene></scene>
							<shottake></shottake>
							<lognote></lognote>
						</logginginfo>
						<labels>
							<label2>Forest</label2>
						</labels>
					</clipitem>
					<transitionitem>
						<start>36608</start>
						<end>36737</end>
						<alignment>end-black</alignment>
						<cutPoint>129</cutPoint>
						<rate>
							<timebase>25</timebase>
							<ntsc>FALSE</ntsc>
						</rate>
						<effect>
							<name>Cross Fade (+3dB)</name>
							<effectid>KGAudioTransCrossFade3dB</effectid>
							<effecttype>transition</effecttype>
							<mediatype>audio</mediatype>
							<wipecode>0</wipecode>
							<wipeaccuracy>100</wipeaccuracy>
							<startratio>0</startratio>
							<endratio>1</endratio>
							<reverse>FALSE</reverse>
						</effect>
					</transitionitem>
					<clipitem id="clipitem-1676" frameBlend="FALSE" PannerCurrentValue="0.5" PannerKeyframes="" PannerStartKeyframe="-91445760000000000,0.5,0,0,0,0,0,0" PannerIsInverted="true" PannerName="Balance">
						<masterclipid>masterclip-292</masterclipid>
						<name>AUXMP_CAND814320_BRAZIL_CHILL.wav</name>
						<enabled>TRUE</enabled>
						<duration>3073</duration>
						<rate>
							<timebase>25</timebase>
							<ntsc>FALSE</ntsc>
						</rate>
						<start>38845</start>
						<end>38987</end>
						<in>813</in>
						<out>955</out>
						<file id="file-265">
							<name>AUXMP_CAND814320_BRAZIL_CHILL.wav</name>
							<pathurl>file://localhost/Volumes/Brakka/Katta/Musikk/Smart%20eller%20overva%cc%8aket%20-%20krim/AUXMP_CAND814320_BRAZIL_CHILL.wav</pathurl>
							<rate>
								<timebase>30</timebase>
								<ntsc>TRUE</ntsc>
							</rate>
							<duration>3684</duration>
							<timecode>
								<rate>
									<timebase>30</timebase>
									<ntsc>TRUE</ntsc>
								</rate>
								<string>00;00;00;00</string>
								<frame>0</frame>
								<displayformat>DF</displayformat>
								<reel>
									<name></name>
								</reel>
							</timecode>
							<media>
								<audio>
									<samplecharacteristics>
										<depth>16</depth>
										<samplerate>48000</samplerate>
									</samplecharacteristics>
									<channelcount>2</channelcount>
								</audio>
							</media>
						</file>
						<sourcetrack>
							<mediatype>audio</mediatype>
							<trackindex>1</trackindex>
						</sourcetrack>
							<filter>
								<effect>
									<name>Audio Levels</name>
									<effectid>audiolevels</effectid>
									<effectcategory>audiolevels</effectcategory>
									<effecttype>audiolevels</effecttype>
									<mediatype>audio</mediatype>
									<parameter authoringApp="PremierePro">
										<parameterid>level</parameterid>
										<name>Level</name>
										<valuemin>0</valuemin>
										<valuemax>3.98109</valuemax>
										<value>0.0475062</value>
									</parameter>
								</effect>
							</filter>
							<filter>
								<effect>
									<name>Audio Pan</name>
									<effectid>audiopan</effectid>
									<effectcategory>audiopan</effectcategory>
									<effecttype>audiopan</effecttype>
									<mediatype>audio</mediatype>
									<parameter authoringApp="PremierePro">
										<parameterid>pan</parameterid>
										<name>Pan</name>
										<valuemin>-1</valuemin>
										<valuemax>1</valuemax>
										<value>0</value>
									</parameter>
								</effect>
							</filter>
						<link>
							<linkclipref>clipitem-1676</linkclipref>
							<mediatype>audio</mediatype>
							<trackindex>10</trackindex>
							<clipindex>27</clipindex>
							<groupindex>1</groupindex>
						</link>
						<link>
							<linkclipref>clipitem-1692</linkclipref>
							<mediatype>audio</mediatype>
							<trackindex>11</trackindex>
							<clipindex>26</clipindex>
							<groupindex>1</groupindex>
						</link>
						<logginginfo>
							<description></description>
							<scene></scene>
							<shottake></shottake>
							<lognote></lognote>
						</logginginfo>
						<labels>
							<label2>Caribbean</label2>
						</labels>
					</clipitem>
					<clipitem id="clipitem-1677" frameBlend="FALSE" PannerCurrentValue="0.5" PannerKeyframes="" PannerStartKeyframe="-91445760000000000,0.5,0,0,0,0,0,0" PannerIsInverted="true" PannerName="Balance">
						<masterclipid>masterclip-293</masterclipid>
						<name>AUXMP_SCD074379_TENDER_BRIDGE.wav</name>
						<enabled>TRUE</enabled>
						<duration>605</duration>
						<rate>
							<timebase>25</timebase>
							<ntsc>FALSE</ntsc>
						</rate>
						<start>39825</start>
						<end>40065</end>
						<in>0</in>
						<out>240</out>
						<file id="file-266">
							<name>AUXMP_SCD074379_TENDER_BRIDGE.wav</name>
							<pathurl>file://localhost/Volumes/Brakka/Katta/Musikk/Smart%20eller%20overva%cc%8aket%20-%20krim/AUXMP_SCD074379_TENDER_BRIDGE.wav</pathurl>
							<rate>
								<timebase>30</timebase>
								<ntsc>TRUE</ntsc>
							</rate>
							<duration>725</duration>
							<timecode>
								<rate>
									<timebase>30</timebase>
									<ntsc>TRUE</ntsc>
								</rate>
								<string>00;00;00;00</string>
								<frame>0</frame>
								<displayformat>DF</displayformat>
								<reel>
									<name></name>
								</reel>
							</timecode>
							<media>
								<audio>
									<samplecharacteristics>
										<depth>16</depth>
										<samplerate>48000</samplerate>
									</samplecharacteristics>
									<channelcount>2</channelcount>
								</audio>
							</media>
						</file>
						<sourcetrack>
							<mediatype>audio</mediatype>
							<trackindex>1</trackindex>
						</sourcetrack>
							<filter>
								<effect>
									<name>Audio Levels</name>
									<effectid>audiolevels</effectid>
									<effectcategory>audiolevels</effectcategory>
									<effecttype>audiolevels</effecttype>
									<mediatype>audio</mediatype>
									<parameter authoringApp="PremierePro">
										<parameterid>level</parameterid>
										<name>Level</name>
										<valuemin>0</valuemin>
										<valuemax>3.98109</valuemax>
										<value>0.125594</value>
									</parameter>
								</effect>
							</filter>
							<filter>
								<effect>
									<name>Audio Pan</name>
									<effectid>audiopan</effectid>
									<effectcategory>audiopan</effectcategory>
									<effecttype>audiopan</effecttype>
									<mediatype>audio</mediatype>
									<parameter authoringApp="PremierePro">
										<parameterid>pan</parameterid>
										<name>Pan</name>
										<valuemin>-1</valuemin>
										<valuemax>1</valuemax>
										<value>0</value>
									</parameter>
								</effect>
							</filter>
						<link>
							<linkclipref>clipitem-1677</linkclipref>
							<mediatype>audio</mediatype>
							<trackindex>10</trackindex>
							<clipindex>28</clipindex>
							<groupindex>1</groupindex>
						</link>
						<link>
							<linkclipref>clipitem-1693</linkclipref>
							<mediatype>audio</mediatype>
							<trackindex>11</trackindex>
							<clipindex>27</clipindex>
							<groupindex>1</groupindex>
						</link>
						<logginginfo>
							<description></description>
							<scene></scene>
							<shottake></shottake>
							<lognote></lognote>
						</logginginfo>
						<labels>
							<label2>Caribbean</label2>
						</labels>
					</clipitem>
					<enabled>TRUE</enabled>
					<locked>FALSE</locked>
					<outputchannelindex>1</outputchannelindex>
				</track>
				<track TL.SQTrackAudioKeyframeStyle="0" TL.SQTrackShy="0" TL.SQTrackExpandedHeight="60" TL.SQTrackExpanded="1" MZ.TrackTargeted="0" MZ.TrackName="Musikk 1 stereo" PannerCurrentValue="0.5" PannerIsInverted="true" PannerStartKeyframe="-91445760000000000,0.5,0,0,0,0,0,0" PannerName="Balance" currentExplodedTrackIndex="1" totalExplodedTrackCount="2" premiereTrackType="Stereo">
					<clipitem id="clipitem-1678" frameBlend="FALSE" PannerCurrentValue="0.5" PannerKeyframes="" PannerStartKeyframe="-91445760000000000,0.5,0,0,0,0,0,0" PannerIsInverted="true" PannerName="Balance">
						<masterclipid>masterclip-283</masterclipid>
						<name>AUXMP_SCDV029017_EVIL_TO_COME.wav</name>
						<enabled>TRUE</enabled>
						<duration>4385</duration>
						<rate>
							<timebase>25</timebase>
							<ntsc>FALSE</ntsc>
						</rate>
						<start>204</start>
						<end>891</end>
						<in>0</in>
						<out>687</out>
						<file id="file-256"/>
						<sourcetrack>
							<mediatype>audio</mediatype>
							<trackindex>2</trackindex>
						</sourcetrack>
							<filter>
								<effect>
									<name>Audio Levels</name>
									<effectid>audiolevels</effectid>
									<effectcategory>audiolevels</effectcategory>
									<effecttype>audiolevels</effecttype>
									<mediatype>audio</mediatype>
									<parameter authoringApp="PremierePro">
										<parameterid>level</parameterid>
										<name>Level</name>
										<valuemin>0</valuemin>
										<valuemax>3.98109</valuemax>
										<value>0.186158</value>
									</parameter>
								</effect>
							</filter>
							<filter>
								<effect>
									<name>Audio Pan</name>
									<effectid>audiopan</effectid>
									<effectcategory>audiopan</effectcategory>
									<effecttype>audiopan</effecttype>
									<mediatype>audio</mediatype>
									<parameter authoringApp="PremierePro">
										<parameterid>pan</parameterid>
										<name>Pan</name>
										<valuemin>-1</valuemin>
										<valuemax>1</valuemax>
										<value>0</value>
									</parameter>
								</effect>
							</filter>
						<link>
							<linkclipref>clipitem-1661</linkclipref>
							<mediatype>audio</mediatype>
							<trackindex>10</trackindex>
							<clipindex>1</clipindex>
							<groupindex>1</groupindex>
						</link>
						<link>
							<linkclipref>clipitem-1678</linkclipref>
							<mediatype>audio</mediatype>
							<trackindex>11</trackindex>
							<clipindex>1</clipindex>
							<groupindex>1</groupindex>
						</link>
						<logginginfo>
							<description></description>
							<scene></scene>
							<shottake></shottake>
							<lognote></lognote>
						</logginginfo>
						<labels>
							<label2>Caribbean</label2>
						</labels>
					</clipitem>
					<transitionitem>
						<start>1945</start>
						<end>1978</end>
						<alignment>start-black</alignment>
						<cutPoint>0</cutPoint>
						<rate>
							<timebase>25</timebase>
							<ntsc>FALSE</ntsc>
						</rate>
						<effect>
							<name>Cross Fade (+3dB)</name>
							<effectid>KGAudioTransCrossFade3dB</effectid>
							<effecttype>transition</effecttype>
							<mediatype>audio</mediatype>
							<wipecode>0</wipecode>
							<wipeaccuracy>100</wipeaccuracy>
							<startratio>0</startratio>
							<endratio>1</endratio>
							<reverse>FALSE</reverse>
						</effect>
					</transitionitem>
					<clipitem id="clipitem-1679" frameBlend="FALSE" PannerCurrentValue="0.5" PannerKeyframes="" PannerStartKeyframe="-91445760000000000,0.5,0,0,0,0,0,0" PannerIsInverted="true" PannerName="Balance">
						<masterclipid>masterclip-284</masterclipid>
						<name>Apollo_LLA_130_24__Death_In_The_City_(No_Guitars_Mix)__Alan_Lazar.mp3</name>
						<enabled>TRUE</enabled>
						<duration>2576</duration>
						<rate>
							<timebase>25</timebase>
							<ntsc>FALSE</ntsc>
						</rate>
						<start>-1</start>
						<end>-1</end>
						<in>634</in>
						<out>1464</out>
						<file id="file-257"/>
						<sourcetrack>
							<mediatype>audio</mediatype>
							<trackindex>2</trackindex>
						</sourcetrack>
							<filter>
								<effect>
									<name>Audio Levels</name>
									<effectid>audiolevels</effectid>
									<effectcategory>audiolevels</effectcategory>
									<effecttype>audiolevels</effecttype>
									<mediatype>audio</mediatype>
									<parameter authoringApp="PremierePro">
										<parameterid>level</parameterid>
										<name>Level</name>
										<valuemin>0</valuemin>
										<valuemax>3.98109</valuemax>
										<value>0.28117</value>
									</parameter>
								</effect>
							</filter>
							<filter>
								<effect>
									<name>Audio Pan</name>
									<effectid>audiopan</effectid>
									<effectcategory>audiopan</effectcategory>
									<effecttype>audiopan</effecttype>
									<mediatype>audio</mediatype>
									<parameter authoringApp="PremierePro">
										<parameterid>pan</parameterid>
										<name>Pan</name>
										<valuemin>-1</valuemin>
										<valuemax>1</valuemax>
										<value>0</value>
									</parameter>
								</effect>
							</filter>
						<link>
							<linkclipref>clipitem-1662</linkclipref>
							<mediatype>audio</mediatype>
							<trackindex>10</trackindex>
							<clipindex>3</clipindex>
							<groupindex>1</groupindex>
						</link>
						<link>
							<linkclipref>clipitem-1679</linkclipref>
							<mediatype>audio</mediatype>
							<trackindex>11</trackindex>
							<clipindex>3</clipindex>
							<groupindex>1</groupindex>
						</link>
						<logginginfo>
							<description></description>
							<scene></scene>
							<shottake></shottake>
							<lognote>LLA130 Death In The City [No Guitars Mix] by Alan Lazar BMI_SAMRO 100% Lalela Music www.lalela.com</lognote>
						</logginginfo>
					</clipitem>
					<transitionitem>
						<start>2716</start>
						<end>2775</end>
						<alignment>end-black</alignment>
						<cutPoint>59</cutPoint>
						<rate>
							<timebase>25</timebase>
							<ntsc>FALSE</ntsc>
						</rate>
						<effect>
							<name>Cross Fade (+3dB)</name>
							<effectid>KGAudioTransCrossFade3dB</effectid>
							<effecttype>transition</effecttype>
							<mediatype>audio</mediatype>
							<wipecode>0</wipecode>
							<wipeaccuracy>100</wipeaccuracy>
							<startratio>0</startratio>
							<endratio>1</endratio>
							<reverse>FALSE</reverse>
						</effect>
					</transitionitem>
					<transitionitem>
						<start>4713</start>
						<end>4726</end>
						<alignment>start-black</alignment>
						<cutPoint>0</cutPoint>
						<rate>
							<timebase>25</timebase>
							<ntsc>FALSE</ntsc>
						</rate>
						<effect>
							<name>Cross Fade (+3dB)</name>
							<effectid>KGAudioTransCrossFade3dB</effectid>
							<effecttype>transition</effecttype>
							<mediatype>audio</mediatype>
							<wipecode>0</wipecode>
							<wipeaccuracy>100</wipeaccuracy>
							<startratio>0</startratio>
							<endratio>1</endratio>
							<reverse>FALSE</reverse>
						</effect>
					</transitionitem>
					<clipitem id="clipitem-1680" frameBlend="FALSE" PannerCurrentValue="0.5" PannerKeyframes="" PannerStartKeyframe="-91445760000000000,0.5,0,0,0,0,0,0" PannerIsInverted="true" PannerName="Balance">
						<masterclipid>masterclip-285</masterclipid>
						<name>AUXMP_SCD074301_INVISIBLE_EVIDENCE-1.wav</name>
						<enabled>TRUE</enabled>
						<duration>2017</duration>
						<rate>
							<timebase>25</timebase>
							<ntsc>FALSE</ntsc>
						</rate>
						<start>-1</start>
						<end>-1</end>
						<in>499</in>
						<out>1385</out>
						<file id="file-258"/>
						<sourcetrack>
							<mediatype>audio</mediatype>
							<trackindex>2</trackindex>
						</sourcetrack>
							<filter>
								<effect>
									<name>Audio Levels</name>
									<effectid>audiolevels</effectid>
									<effectcategory>audiolevels</effectcategory>
									<effecttype>audiolevels</effecttype>
									<mediatype>audio</mediatype>
									<parameter authoringApp="PremierePro">
										<parameterid>level</parameterid>
										<name>Level</name>
										<valuemin>0</valuemin>
										<valuemax>3.98109</valuemax>
										<value>0.0445625</value>
									</parameter>
								</effect>
							</filter>
							<filter>
								<effect>
									<name>Audio Pan</name>
									<effectid>audiopan</effectid>
									<effectcategory>audiopan</effectcategory>
									<effecttype>audiopan</effecttype>
									<mediatype>audio</mediatype>
									<parameter authoringApp="PremierePro">
										<parameterid>pan</parameterid>
										<name>Pan</name>
										<valuemin>-1</valuemin>
										<valuemax>1</valuemax>
										<value>0</value>
									</parameter>
								</effect>
							</filter>
						<link>
							<linkclipref>clipitem-1663</linkclipref>
							<mediatype>audio</mediatype>
							<trackindex>10</trackindex>
							<clipindex>6</clipindex>
							<groupindex>1</groupindex>
						</link>
						<link>
							<linkclipref>clipitem-1680</linkclipref>
							<mediatype>audio</mediatype>
							<trackindex>11</trackindex>
							<clipindex>6</clipindex>
							<groupindex>1</groupindex>
						</link>
						<logginginfo>
							<description></description>
							<scene></scene>
							<shottake></shottake>
							<lognote></lognote>
						</logginginfo>
						<labels>
							<label2>Mango</label2>
						</labels>
					</clipitem>
					<transitionitem>
						<start>5586</start>
						<end>5599</end>
						<alignment>end-black</alignment>
						<cutPoint>13</cutPoint>
						<rate>
							<timebase>25</timebase>
							<ntsc>FALSE</ntsc>
						</rate>
						<effect>
							<name>Cross Fade (+3dB)</name>
							<effectid>KGAudioTransCrossFade3dB</effectid>
							<effecttype>transition</effecttype>
							<mediatype>audio</mediatype>
							<wipecode>0</wipecode>
							<wipeaccuracy>100</wipeaccuracy>
							<startratio>0</startratio>
							<endratio>1</endratio>
							<reverse>FALSE</reverse>
						</effect>
					</transitionitem>
					<clipitem id="clipitem-1681" frameBlend="FALSE" PannerCurrentValue="0.5" PannerKeyframes="" PannerStartKeyframe="-91445760000000000,0.5,0,0,0,0,0,0" PannerIsInverted="true" PannerName="Balance">
						<masterclipid>masterclip-286</masterclipid>
						<name>AUXMP_SCD074317_SMART_GUYS.wav</name>
						<enabled>TRUE</enabled>
						<duration>1602</duration>
						<rate>
							<timebase>25</timebase>
							<ntsc>FALSE</ntsc>
						</rate>
						<start>15642</start>
						<end>16141</end>
						<in>5</in>
						<out>504</out>
						<file id="file-259"/>
						<sourcetrack>
							<mediatype>audio</mediatype>
							<trackindex>2</trackindex>
						</sourcetrack>
							<filter>
								<effect>
									<name>Audio Levels</name>
									<effectid>audiolevels</effectid>
									<effectcategory>audiolevels</effectcategory>
									<effecttype>audiolevels</effecttype>
									<mediatype>audio</mediatype>
									<parameter authoringApp="PremierePro">
										<parameterid>level</parameterid>
										<name>Level</name>
										<valuemin>0</valuemin>
										<valuemax>3.98109</valuemax>
										<value>0.0792446</value>
										<keyframe>
											<when>24</when>
											<value>0.554306</value>
										</keyframe>
										<keyframe>
											<when>29</when>
											<value>0.0792446</value>
										</keyframe>
									</parameter>
								</effect>
							</filter>
							<filter>
								<effect>
									<name>Audio Pan</name>
									<effectid>audiopan</effectid>
									<effectcategory>audiopan</effectcategory>
									<effecttype>audiopan</effecttype>
									<mediatype>audio</mediatype>
									<parameter authoringApp="PremierePro">
										<parameterid>pan</parameterid>
										<name>Pan</name>
										<valuemin>-1</valuemin>
										<valuemax>1</valuemax>
										<value>0</value>
									</parameter>
								</effect>
							</filter>
						<link>
							<linkclipref>clipitem-1664</linkclipref>
							<mediatype>audio</mediatype>
							<trackindex>10</trackindex>
							<clipindex>8</clipindex>
							<groupindex>1</groupindex>
						</link>
						<link>
							<linkclipref>clipitem-1681</linkclipref>
							<mediatype>audio</mediatype>
							<trackindex>11</trackindex>
							<clipindex>8</clipindex>
							<groupindex>1</groupindex>
						</link>
						<logginginfo>
							<description></description>
							<scene></scene>
							<shottake></shottake>
							<lognote></lognote>
						</logginginfo>
						<labels>
							<label2>Mango</label2>
						</labels>
					</clipitem>
					<clipitem id="clipitem-1682" frameBlend="FALSE" PannerCurrentValue="0.5" PannerKeyframes="" PannerStartKeyframe="-91445760000000000,0.5,0,0,0,0,0,0" PannerIsInverted="true" PannerName="Balance">
						<masterclipid>masterclip-285</masterclipid>
						<name>AUXMP_SCD074301_INVISIBLE_EVIDENCE-1.wav</name>
						<enabled>TRUE</enabled>
						<duration>2017</duration>
						<rate>
							<timebase>25</timebase>
							<ntsc>FALSE</ntsc>
						</rate>
						<start>18158</start>
						<end>-1</end>
						<in>2</in>
						<out>510</out>
						<file id="file-258"/>
						<sourcetrack>
							<mediatype>audio</mediatype>
							<trackindex>2</trackindex>
						</sourcetrack>
							<filter>
								<effect>
									<name>Audio Levels</name>
									<effectid>audiolevels</effectid>
									<effectcategory>audiolevels</effectcategory>
									<effecttype>audiolevels</effecttype>
									<mediatype>audio</mediatype>
									<parameter authoringApp="PremierePro">
										<parameterid>level</parameterid>
										<name>Level</name>
										<valuemin>0</valuemin>
										<valuemax>3.98109</valuemax>
										<value>0.223342</value>
									</parameter>
								</effect>
							</filter>
							<filter>
								<effect>
									<name>Audio Pan</name>
									<effectid>audiopan</effectid>
									<effectcategory>audiopan</effectcategory>
									<effecttype>audiopan</effecttype>
									<mediatype>audio</mediatype>
									<parameter authoringApp="PremierePro">
										<parameterid>pan</parameterid>
										<name>Pan</name>
										<valuemin>-1</valuemin>
										<valuemax>1</valuemax>
										<value>0</value>
									</parameter>
								</effect>
							</filter>
						<link>
							<linkclipref>clipitem-1665</linkclipref>
							<mediatype>audio</mediatype>
							<trackindex>10</trackindex>
							<clipindex>9</clipindex>
							<groupindex>1</groupindex>
						</link>
						<link>
							<linkclipref>clipitem-1682</linkclipref>
							<mediatype>audio</mediatype>
							<trackindex>11</trackindex>
							<clipindex>9</clipindex>
							<groupindex>1</groupindex>
						</link>
						<logginginfo>
							<description></description>
							<scene></scene>
							<shottake></shottake>
							<lognote></lognote>
						</logginginfo>
						<labels>
							<label2>Mango</label2>
						</labels>
					</clipitem>
					<transitionitem>
						<start>18587</start>
						<end>18666</end>
						<alignment>end-black</alignment>
						<cutPoint>79</cutPoint>
						<rate>
							<timebase>25</timebase>
							<ntsc>FALSE</ntsc>
						</rate>
						<effect>
							<name>Cross Fade (+3dB)</name>
							<effectid>KGAudioTransCrossFade3dB</effectid>
							<effecttype>transition</effecttype>
							<mediatype>audio</mediatype>
							<wipecode>0</wipecode>
							<wipeaccuracy>100</wipeaccuracy>
							<startratio>0</startratio>
							<endratio>1</endratio>
							<reverse>FALSE</reverse>
						</effect>
					</transitionitem>
					<clipitem id="clipitem-1683" frameBlend="FALSE" PannerCurrentValue="0.5" PannerKeyframes="" PannerStartKeyframe="-91445760000000000,0.5,0,0,0,0,0,0" PannerIsInverted="true" PannerName="Balance">
						<masterclipid>masterclip-287</masterclipid>
						<name>AUXMP_SCDV037624_RAISING_HOPE_B.wav</name>
						<enabled>TRUE</enabled>
						<duration>4980</duration>
						<rate>
							<timebase>25</timebase>
							<ntsc>FALSE</ntsc>
						</rate>
						<start>20423</start>
						<end>-1</end>
						<in>0</in>
						<out>651</out>
						<file id="file-260"/>
						<sourcetrack>
							<mediatype>audio</mediatype>
							<trackindex>2</trackindex>
						</sourcetrack>
							<filter>
								<effect>
									<name>Audio Levels</name>
									<effectid>audiolevels</effectid>
									<effectcategory>audiolevels</effectcategory>
									<effecttype>audiolevels</effecttype>
									<mediatype>audio</mediatype>
									<parameter authoringApp="PremierePro">
										<parameterid>level</parameterid>
										<name>Level</name>
										<valuemin>0</valuemin>
										<valuemax>3.98109</valuemax>
										<value>0.125594</value>
									</parameter>
								</effect>
							</filter>
							<filter>
								<effect>
									<name>Audio Pan</name>
									<effectid>audiopan</effectid>
									<effectcategory>audiopan</effectcategory>
									<effecttype>audiopan</effecttype>
									<mediatype>audio</mediatype>
									<parameter authoringApp="PremierePro">
										<parameterid>pan</parameterid>
										<name>Pan</name>
										<valuemin>-1</valuemin>
										<valuemax>1</valuemax>
										<value>0</value>
									</parameter>
								</effect>
							</filter>
						<link>
							<linkclipref>clipitem-1666</linkclipref>
							<mediatype>audio</mediatype>
							<trackindex>10</trackindex>
							<clipindex>11</clipindex>
							<groupindex>1</groupindex>
						</link>
						<link>
							<linkclipref>clipitem-1683</linkclipref>
							<mediatype>audio</mediatype>
							<trackindex>11</trackindex>
							<clipindex>11</clipindex>
							<groupindex>1</groupindex>
						</link>
						<logginginfo>
							<description></description>
							<scene></scene>
							<shottake></shottake>
							<lognote></lognote>
						</logginginfo>
						<labels>
							<label2>Forest</label2>
						</labels>
					</clipitem>
					<transitionitem>
						<start>21028</start>
						<end>21074</end>
						<alignment>end-black</alignment>
						<cutPoint>46</cutPoint>
						<rate>
							<timebase>25</timebase>
							<ntsc>FALSE</ntsc>
						</rate>
						<effect>
							<name>Cross Fade (+3dB)</name>
							<effectid>KGAudioTransCrossFade3dB</effectid>
							<effecttype>transition</effecttype>
							<mediatype>audio</mediatype>
							<wipecode>0</wipecode>
							<wipeaccuracy>100</wipeaccuracy>
							<startratio>0</startratio>
							<endratio>1</endratio>
							<reverse>FALSE</reverse>
						</effect>
					</transitionitem>
					<clipitem id="clipitem-1684" frameBlend="FALSE" PannerCurrentValue="0.5" PannerKeyframes="" PannerStartKeyframe="-91445760000000000,0.5,0,0,0,0,0,0" PannerIsInverted="true" PannerName="Balance">
						<masterclipid>masterclip-288</masterclipid>
						<name>AUXMP_SCD074316_DIFFICULT_CASE.wav</name>
						<enabled>TRUE</enabled>
						<duration>2243</duration>
						<rate>
							<timebase>25</timebase>
							<ntsc>FALSE</ntsc>
						</rate>
						<start>22602</start>
						<end>-1</end>
						<in>1074</in>
						<out>1549</out>
						<file id="file-261"/>
						<sourcetrack>
							<mediatype>audio</mediatype>
							<trackindex>2</trackindex>
						</sourcetrack>
							<filter>
								<effect>
									<name>Audio Levels</name>
									<effectid>audiolevels</effectid>
									<effectcategory>audiolevels</effectcategory>
									<effecttype>audiolevels</effecttype>
									<mediatype>audio</mediatype>
									<parameter authoringApp="PremierePro">
										<parameterid>level</parameterid>
										<name>Level</name>
										<valuemin>0</valuemin>
										<valuemax>3.98109</valuemax>
										<value>0.223342</value>
									</parameter>
								</effect>
							</filter>
							<filter>
								<effect>
									<name>Audio Pan</name>
									<effectid>audiopan</effectid>
									<effectcategory>audiopan</effectcategory>
									<effecttype>audiopan</effecttype>
									<mediatype>audio</mediatype>
									<parameter authoringApp="PremierePro">
										<parameterid>pan</parameterid>
										<name>Pan</name>
										<valuemin>-1</valuemin>
										<valuemax>1</valuemax>
										<value>0</value>
									</parameter>
								</effect>
							</filter>
						<link>
							<linkclipref>clipitem-1667</linkclipref>
							<mediatype>audio</mediatype>
							<trackindex>10</trackindex>
							<clipindex>13</clipindex>
							<groupindex>1</groupindex>
						</link>
						<link>
							<linkclipref>clipitem-1684</linkclipref>
							<mediatype>audio</mediatype>
							<trackindex>11</trackindex>
							<clipindex>13</clipindex>
							<groupindex>1</groupindex>
						</link>
						<logginginfo>
							<description></description>
							<scene></scene>
							<shottake></shottake>
							<lognote></lognote>
						</logginginfo>
						<labels>
							<label2>Lavender</label2>
						</labels>
					</clipitem>
					<transitionitem>
						<start>22977</start>
						<end>23077</end>
						<alignment>end-black</alignment>
						<cutPoint>100</cutPoint>
						<rate>
							<timebase>25</timebase>
							<ntsc>FALSE</ntsc>
						</rate>
						<effect>
							<name>Cross Fade (+3dB)</name>
							<effectid>KGAudioTransCrossFade3dB</effectid>
							<effecttype>transition</effecttype>
							<mediatype>audio</mediatype>
							<wipecode>0</wipecode>
							<wipeaccuracy>100</wipeaccuracy>
							<startratio>0</startratio>
							<endratio>1</endratio>
							<reverse>FALSE</reverse>
						</effect>
					</transitionitem>
					<clipitem id="clipitem-1685" frameBlend="FALSE" PannerCurrentValue="0.5" PannerKeyframes="" PannerStartKeyframe="-91445760000000000,0.5,0,0,0,0,0,0" PannerIsInverted="true" PannerName="Balance">
						<masterclipid>masterclip-289</masterclipid>
						<name>AUXMP_SCD084304_POLLUTION_DRONE__A.wav</name>
						<enabled>TRUE</enabled>
						<duration>4566</duration>
						<rate>
							<timebase>25</timebase>
							<ntsc>FALSE</ntsc>
						</rate>
						<start>24778</start>
						<end>-1</end>
						<in>3186</in>
						<out>3241</out>
						<file id="file-262"/>
						<sourcetrack>
							<mediatype>audio</mediatype>
							<trackindex>2</trackindex>
						</sourcetrack>
							<filter>
								<effect>
									<name>Audio Levels</name>
									<effectid>audiolevels</effectid>
									<effectcategory>audiolevels</effectcategory>
									<effecttype>audiolevels</effecttype>
									<mediatype>audio</mediatype>
									<parameter authoringApp="PremierePro">
										<parameterid>level</parameterid>
										<name>Level</name>
										<valuemin>0</valuemin>
										<valuemax>3.98109</valuemax>
										<value>0.61758</value>
									</parameter>
								</effect>
							</filter>
							<filter>
								<effect>
									<name>Audio Pan</name>
									<effectid>audiopan</effectid>
									<effectcategory>audiopan</effectcategory>
									<effecttype>audiopan</effecttype>
									<mediatype>audio</mediatype>
									<parameter authoringApp="PremierePro">
										<parameterid>pan</parameterid>
										<name>Pan</name>
										<valuemin>-1</valuemin>
										<valuemax>1</valuemax>
										<value>0</value>
									</parameter>
								</effect>
							</filter>
						<link>
							<linkclipref>clipitem-1668</linkclipref>
							<mediatype>audio</mediatype>
							<trackindex>10</trackindex>
							<clipindex>15</clipindex>
							<groupindex>1</groupindex>
						</link>
						<link>
							<linkclipref>clipitem-1685</linkclipref>
							<mediatype>audio</mediatype>
							<trackindex>11</trackindex>
							<clipindex>15</clipindex>
							<groupindex>1</groupindex>
						</link>
						<logginginfo>
							<description></description>
							<scene></scene>
							<shottake></shottake>
							<lognote></lognote>
						</logginginfo>
						<labels>
							<label2>Rose</label2>
						</labels>
					</clipitem>
					<transitionitem>
						<start>24815</start>
						<end>24833</end>
						<alignment>end-black</alignment>
						<cutPoint>18</cutPoint>
						<rate>
							<timebase>25</timebase>
							<ntsc>FALSE</ntsc>
						</rate>
						<effect>
							<name>Cross Fade (+3dB)</name>
							<effectid>KGAudioTransCrossFade3dB</effectid>
							<effecttype>transition</effecttype>
							<mediatype>audio</mediatype>
							<wipecode>0</wipecode>
							<wipeaccuracy>100</wipeaccuracy>
							<startratio>0</startratio>
							<endratio>1</endratio>
							<reverse>FALSE</reverse>
						</effect>
					</transitionitem>
					<clipitem id="clipitem-1686" frameBlend="FALSE" PannerCurrentValue="0.5" PannerKeyframes="" PannerStartKeyframe="-91445760000000000,0.5,0,0,0,0,0,0" PannerIsInverted="true" PannerName="Balance">
						<masterclipid>masterclip-290</masterclipid>
						<name>AUXMP_BBX012407_CLUELESS_CRIME.wav</name>
						<enabled>TRUE</enabled>
						<duration>2763</duration>
						<rate>
							<timebase>25</timebase>
							<ntsc>FALSE</ntsc>
						</rate>
						<start>29145</start>
						<end>-1</end>
						<in>1</in>
						<out>1120</out>
						<file id="file-263"/>
						<sourcetrack>
							<mediatype>audio</mediatype>
							<trackindex>2</trackindex>
						</sourcetrack>
							<filter>
								<effect>
									<name>Audio Levels</name>
									<effectid>audiolevels</effectid>
									<effectcategory>audiolevels</effectcategory>
									<effecttype>audiolevels</effecttype>
									<mediatype>audio</mediatype>
									<parameter authoringApp="PremierePro">
										<parameterid>level</parameterid>
										<name>Level</name>
										<valuemin>0</valuemin>
										<valuemax>3.98109</valuemax>
										<value>0.223342</value>
									</parameter>
								</effect>
							</filter>
							<filter>
								<effect>
									<name>Audio Pan</name>
									<effectid>audiopan</effectid>
									<effectcategory>audiopan</effectcategory>
									<effecttype>audiopan</effecttype>
									<mediatype>audio</mediatype>
									<parameter authoringApp="PremierePro">
										<parameterid>pan</parameterid>
										<name>Pan</name>
										<valuemin>-1</valuemin>
										<valuemax>1</valuemax>
										<value>0</value>
									</parameter>
								</effect>
							</filter>
						<link>
							<linkclipref>clipitem-1669</linkclipref>
							<mediatype>audio</mediatype>
							<trackindex>10</trackindex>
							<clipindex>17</clipindex>
							<groupindex>1</groupindex>
						</link>
						<link>
							<linkclipref>clipitem-1686</linkclipref>
							<mediatype>audio</mediatype>
							<trackindex>11</trackindex>
							<clipindex>17</clipindex>
							<groupindex>1</groupindex>
						</link>
						<logginginfo>
							<description></description>
							<scene></scene>
							<shottake></shottake>
							<lognote></lognote>
						</logginginfo>
						<labels>
							<label2>Caribbean</label2>
						</labels>
					</clipitem>
					<transitionitem>
						<start>30251</start>
						<end>30264</end>
						<alignment>center</alignment>
						<cutPoint>6</cutPoint>
						<rate>
							<timebase>25</timebase>
							<ntsc>FALSE</ntsc>
						</rate>
						<effect>
							<name>Cross Fade (+3dB)</name>
							<effectid>KGAudioTransCrossFade3dB</effectid>
							<effecttype>transition</effecttype>
							<mediatype>audio</mediatype>
							<wipecode>0</wipecode>
							<wipeaccuracy>100</wipeaccuracy>
							<startratio>0</startratio>
							<endratio>1</endratio>
							<reverse>FALSE</reverse>
						</effect>
					</transitionitem>
					<clipitem id="clipitem-1687" frameBlend="FALSE" PannerCurrentValue="0.5" PannerKeyframes="" PannerStartKeyframe="-91445760000000000,0.5,0,0,0,0,0,0" PannerIsInverted="true" PannerName="Balance">
						<masterclipid>masterclip-290</masterclipid>
						<name>AUXMP_BBX012407_CLUELESS_CRIME.wav</name>
						<enabled>TRUE</enabled>
						<duration>2763</duration>
						<rate>
							<timebase>25</timebase>
							<ntsc>FALSE</ntsc>
						</rate>
						<start>-1</start>
						<end>30488</end>
						<in>2396</in>
						<out>2633</out>
						<file id="file-263"/>
						<sourcetrack>
							<mediatype>audio</mediatype>
							<trackindex>2</trackindex>
						</sourcetrack>
							<filter>
								<effect>
									<name>Audio Levels</name>
									<effectid>audiolevels</effectid>
									<effectcategory>audiolevels</effectcategory>
									<effecttype>audiolevels</effecttype>
									<mediatype>audio</mediatype>
									<parameter authoringApp="PremierePro">
										<parameterid>level</parameterid>
										<name>Level</name>
										<valuemin>0</valuemin>
										<valuemax>3.98109</valuemax>
										<value>0.250593</value>
									</parameter>
								</effect>
							</filter>
							<filter>
								<effect>
									<name>Audio Pan</name>
									<effectid>audiopan</effectid>
									<effectcategory>audiopan</effectcategory>
									<effecttype>audiopan</effecttype>
									<mediatype>audio</mediatype>
									<parameter authoringApp="PremierePro">
										<parameterid>pan</parameterid>
										<name>Pan</name>
										<valuemin>-1</valuemin>
										<valuemax>1</valuemax>
										<value>0</value>
									</parameter>
								</effect>
							</filter>
						<link>
							<linkclipref>clipitem-1670</linkclipref>
							<mediatype>audio</mediatype>
							<trackindex>10</trackindex>
							<clipindex>19</clipindex>
							<groupindex>1</groupindex>
						</link>
						<link>
							<linkclipref>clipitem-1687</linkclipref>
							<mediatype>audio</mediatype>
							<trackindex>11</trackindex>
							<clipindex>19</clipindex>
							<groupindex>1</groupindex>
						</link>
						<logginginfo>
							<description></description>
							<scene></scene>
							<shottake></shottake>
							<lognote></lognote>
						</logginginfo>
						<labels>
							<label2>Caribbean</label2>
						</labels>
					</clipitem>
					<clipitem id="clipitem-1688" frameBlend="FALSE" PannerCurrentValue="0.5" PannerKeyframes="" PannerStartKeyframe="-91445760000000000,0.5,0,0,0,0,0,0" PannerIsInverted="true" PannerName="Balance">
						<masterclipid>masterclip-291</masterclipid>
						<name>AUXMP_SCD087106_DIGITAL_BITSTREAM_B.wav</name>
						<enabled>TRUE</enabled>
						<duration>3166</duration>
						<rate>
							<timebase>25</timebase>
							<ntsc>FALSE</ntsc>
						</rate>
						<start>32196</start>
						<end>33018</end>
						<in>213</in>
						<out>1035</out>
						<file id="file-264"/>
						<sourcetrack>
							<mediatype>audio</mediatype>
							<trackindex>2</trackindex>
						</sourcetrack>
							<filter>
								<effect>
									<name>Audio Levels</name>
									<effectid>audiolevels</effectid>
									<effectcategory>audiolevels</effectcategory>
									<effecttype>audiolevels</effecttype>
									<mediatype>audio</mediatype>
									<parameter authoringApp="PremierePro">
										<parameterid>level</parameterid>
										<name>Level</name>
										<valuemin>0</valuemin>
										<valuemax>3.98109</valuemax>
										<value>0.185414</value>
									</parameter>
								</effect>
							</filter>
							<filter>
								<effect>
									<name>Audio Pan</name>
									<effectid>audiopan</effectid>
									<effectcategory>audiopan</effectcategory>
									<effecttype>audiopan</effecttype>
									<mediatype>audio</mediatype>
									<parameter authoringApp="PremierePro">
										<parameterid>pan</parameterid>
										<name>Pan</name>
										<valuemin>-1</valuemin>
										<valuemax>1</valuemax>
										<value>0</value>
									</parameter>
								</effect>
							</filter>
						<link>
							<linkclipref>clipitem-1672</linkclipref>
							<mediatype>audio</mediatype>
							<trackindex>10</trackindex>
							<clipindex>21</clipindex>
							<groupindex>1</groupindex>
						</link>
						<link>
							<linkclipref>clipitem-1688</linkclipref>
							<mediatype>audio</mediatype>
							<trackindex>11</trackindex>
							<clipindex>20</clipindex>
							<groupindex>1</groupindex>
						</link>
						<logginginfo>
							<description></description>
							<scene></scene>
							<shottake></shottake>
							<lognote></lognote>
						</logginginfo>
						<labels>
							<label2>Caribbean</label2>
						</labels>
					</clipitem>
					<clipitem id="clipitem-1689" frameBlend="FALSE" PannerCurrentValue="0.5" PannerKeyframes="" PannerStartKeyframe="-91445760000000000,0.5,0,0,0,0,0,0" PannerIsInverted="true" PannerName="Balance">
						<masterclipid>masterclip-289</masterclipid>
						<name>AUXMP_SCD084304_POLLUTION_DRONE__A.wav</name>
						<enabled>TRUE</enabled>
						<duration>4566</duration>
						<rate>
							<timebase>25</timebase>
							<ntsc>FALSE</ntsc>
						</rate>
						<start>33814</start>
						<end>34305</end>
						<in>0</in>
						<out>491</out>
						<file id="file-262"/>
						<sourcetrack>
							<mediatype>audio</mediatype>
							<trackindex>2</trackindex>
						</sourcetrack>
							<filter>
								<effect>
									<name>Audio Levels</name>
									<effectid>audiolevels</effectid>
									<effectcategory>audiolevels</effectcategory>
									<effecttype>audiolevels</effecttype>
									<mediatype>audio</mediatype>
									<parameter authoringApp="PremierePro">
										<parameterid>level</parameterid>
										<name>Level</name>
										<valuemin>0</valuemin>
										<valuemax>3.98109</valuemax>
										<value>0.353972</value>
									</parameter>
								</effect>
							</filter>
							<filter>
								<effect>
									<name>Audio Pan</name>
									<effectid>audiopan</effectid>
									<effectcategory>audiopan</effectcategory>
									<effecttype>audiopan</effecttype>
									<mediatype>audio</mediatype>
									<parameter authoringApp="PremierePro">
										<parameterid>pan</parameterid>
										<name>Pan</name>
										<valuemin>-1</valuemin>
										<valuemax>1</valuemax>
										<value>0</value>
									</parameter>
								</effect>
							</filter>
						<link>
							<linkclipref>clipitem-1673</linkclipref>
							<mediatype>audio</mediatype>
							<trackindex>10</trackindex>
							<clipindex>22</clipindex>
							<groupindex>1</groupindex>
						</link>
						<link>
							<linkclipref>clipitem-1689</linkclipref>
							<mediatype>audio</mediatype>
							<trackindex>11</trackindex>
							<clipindex>21</clipindex>
							<groupindex>1</groupindex>
						</link>
						<logginginfo>
							<description></description>
							<scene></scene>
							<shottake></shottake>
							<lognote></lognote>
						</logginginfo>
						<labels>
							<label2>Rose</label2>
						</labels>
					</clipitem>
					<clipitem id="clipitem-1690" frameBlend="FALSE" PannerCurrentValue="0.5" PannerKeyframes="" PannerStartKeyframe="-91445760000000000,0.5,0,0,0,0,0,0" PannerIsInverted="true" PannerName="Balance">
						<masterclipid>masterclip-287</masterclipid>
						<name>AUXMP_SCDV037624_RAISING_HOPE_B.wav</name>
						<enabled>TRUE</enabled>
						<duration>4980</duration>
						<rate>
							<timebase>25</timebase>
							<ntsc>FALSE</ntsc>
						</rate>
						<start>34629</start>
						<end>-1</end>
						<in>3547</in>
						<out>3928</out>
						<file id="file-260"/>
						<sourcetrack>
							<mediatype>audio</mediatype>
							<trackindex>2</trackindex>
						</sourcetrack>
							<filter>
								<effect>
									<name>Audio Levels</name>
									<effectid>audiolevels</effectid>
									<effectcategory>audiolevels</effectcategory>
									<effecttype>audiolevels</effecttype>
									<mediatype>audio</mediatype>
									<parameter authoringApp="PremierePro">
										<parameterid>level</parameterid>
										<name>Level</name>
										<valuemin>0</valuemin>
										<valuemax>3.98109</valuemax>
										<value>0.110848</value>
									</parameter>
								</effect>
							</filter>
							<filter>
								<effect>
									<name>Audio Pan</name>
									<effectid>audiopan</effectid>
									<effectcategory>audiopan</effectcategory>
									<effecttype>audiopan</effecttype>
									<mediatype>audio</mediatype>
									<parameter authoringApp="PremierePro">
										<parameterid>pan</parameterid>
										<name>Pan</name>
										<valuemin>-1</valuemin>
										<valuemax>1</valuemax>
										<value>0</value>
									</parameter>
								</effect>
							</filter>
						<link>
							<linkclipref>clipitem-1674</linkclipref>
							<mediatype>audio</mediatype>
							<trackindex>10</trackindex>
							<clipindex>23</clipindex>
							<groupindex>1</groupindex>
						</link>
						<link>
							<linkclipref>clipitem-1690</linkclipref>
							<mediatype>audio</mediatype>
							<trackindex>11</trackindex>
							<clipindex>22</clipindex>
							<groupindex>1</groupindex>
						</link>
						<logginginfo>
							<description></description>
							<scene></scene>
							<shottake></shottake>
							<lognote></lognote>
						</logginginfo>
						<labels>
							<label2>Forest</label2>
						</labels>
					</clipitem>
					<transitionitem>
						<start>34894</start>
						<end>35010</end>
						<alignment>end-black</alignment>
						<cutPoint>116</cutPoint>
						<rate>
							<timebase>25</timebase>
							<ntsc>FALSE</ntsc>
						</rate>
						<effect>
							<name>Cross Fade (+3dB)</name>
							<effectid>KGAudioTransCrossFade3dB</effectid>
							<effecttype>transition</effecttype>
							<mediatype>audio</mediatype>
							<wipecode>0</wipecode>
							<wipeaccuracy>100</wipeaccuracy>
							<startratio>0</startratio>
							<endratio>1</endratio>
							<reverse>FALSE</reverse>
						</effect>
					</transitionitem>
					<clipitem id="clipitem-1691" frameBlend="FALSE" PannerCurrentValue="0.5" PannerKeyframes="" PannerStartKeyframe="-91445760000000000,0.5,0,0,0,0,0,0" PannerIsInverted="true" PannerName="Balance">
						<masterclipid>masterclip-287</masterclipid>
						<name>AUXMP_SCDV037624_RAISING_HOPE_B.wav</name>
						<enabled>TRUE</enabled>
						<duration>4980</duration>
						<rate>
							<timebase>25</timebase>
							<ntsc>FALSE</ntsc>
						</rate>
						<start>36464</start>
						<end>-1</end>
						<in>0</in>
						<out>273</out>
						<file id="file-260"/>
						<sourcetrack>
							<mediatype>audio</mediatype>
							<trackindex>2</trackindex>
						</sourcetrack>
							<filter>
								<effect>
									<name>Audio Levels</name>
									<effectid>audiolevels</effectid>
									<effectcategory>audiolevels</effectcategory>
									<effecttype>audiolevels</effecttype>
									<mediatype>audio</mediatype>
									<parameter authoringApp="PremierePro">
										<parameterid>level</parameterid>
										<name>Level</name>
										<valuemin>0</valuemin>
										<valuemax>3.98109</valuemax>
										<value>0.158114</value>
									</parameter>
								</effect>
							</filter>
							<filter>
								<effect>
									<name>Audio Pan</name>
									<effectid>audiopan</effectid>
									<effectcategory>audiopan</effectcategory>
									<effecttype>audiopan</effecttype>
									<mediatype>audio</mediatype>
									<parameter authoringApp="PremierePro">
										<parameterid>pan</parameterid>
										<name>Pan</name>
										<valuemin>-1</valuemin>
										<valuemax>1</valuemax>
										<value>0</value>
									</parameter>
								</effect>
							</filter>
						<link>
							<linkclipref>clipitem-1675</linkclipref>
							<mediatype>audio</mediatype>
							<trackindex>10</trackindex>
							<clipindex>25</clipindex>
							<groupindex>1</groupindex>
						</link>
						<link>
							<linkclipref>clipitem-1691</linkclipref>
							<mediatype>audio</mediatype>
							<trackindex>11</trackindex>
							<clipindex>24</clipindex>
							<groupindex>1</groupindex>
						</link>
						<logginginfo>
							<description></description>
							<scene></scene>
							<shottake></shottake>
							<lognote></lognote>
						</logginginfo>
						<labels>
							<label2>Forest</label2>
						</labels>
					</clipitem>
					<transitionitem>
						<start>36608</start>
						<end>36737</end>
						<alignment>end-black</alignment>
						<cutPoint>129</cutPoint>
						<rate>
							<timebase>25</timebase>
							<ntsc>FALSE</ntsc>
						</rate>
						<effect>
							<name>Cross Fade (+3dB)</name>
							<effectid>KGAudioTransCrossFade3dB</effectid>
							<effecttype>transition</effecttype>
							<mediatype>audio</mediatype>
							<wipecode>0</wipecode>
							<wipeaccuracy>100</wipeaccuracy>
							<startratio>0</startratio>
							<endratio>1</endratio>
							<reverse>FALSE</reverse>
						</effect>
					</transitionitem>
					<clipitem id="clipitem-1692" frameBlend="FALSE" PannerCurrentValue="0.5" PannerKeyframes="" PannerStartKeyframe="-91445760000000000,0.5,0,0,0,0,0,0" PannerIsInverted="true" PannerName="Balance">
						<masterclipid>masterclip-292</masterclipid>
						<name>AUXMP_CAND814320_BRAZIL_CHILL.wav</name>
						<enabled>TRUE</enabled>
						<duration>3073</duration>
						<rate>
							<timebase>25</timebase>
							<ntsc>FALSE</ntsc>
						</rate>
						<start>38845</start>
						<end>38987</end>
						<in>813</in>
						<out>955</out>
						<file id="file-265"/>
						<sourcetrack>
							<mediatype>audio</mediatype>
							<trackindex>2</trackindex>
						</sourcetrack>
							<filter>
								<effect>
									<name>Audio Levels</name>
									<effectid>audiolevels</effectid>
									<effectcategory>audiolevels</effectcategory>
									<effecttype>audiolevels</effecttype>
									<mediatype>audio</mediatype>
									<parameter authoringApp="PremierePro">
										<parameterid>level</parameterid>
										<name>Level</name>
										<valuemin>0</valuemin>
										<valuemax>3.98109</valuemax>
										<value>0.0475062</value>
									</parameter>
								</effect>
							</filter>
							<filter>
								<effect>
									<name>Audio Pan</name>
									<effectid>audiopan</effectid>
									<effectcategory>audiopan</effectcategory>
									<effecttype>audiopan</effecttype>
									<mediatype>audio</mediatype>
									<parameter authoringApp="PremierePro">
										<parameterid>pan</parameterid>
										<name>Pan</name>
										<valuemin>-1</valuemin>
										<valuemax>1</valuemax>
										<value>0</value>
									</parameter>
								</effect>
							</filter>
						<link>
							<linkclipref>clipitem-1676</linkclipref>
							<mediatype>audio</mediatype>
							<trackindex>10</trackindex>
							<clipindex>27</clipindex>
							<groupindex>1</groupindex>
						</link>
						<link>
							<linkclipref>clipitem-1692</linkclipref>
							<mediatype>audio</mediatype>
							<trackindex>11</trackindex>
							<clipindex>26</clipindex>
							<groupindex>1</groupindex>
						</link>
						<logginginfo>
							<description></description>
							<scene></scene>
							<shottake></shottake>
							<lognote></lognote>
						</logginginfo>
						<labels>
							<label2>Caribbean</label2>
						</labels>
					</clipitem>
					<clipitem id="clipitem-1693" frameBlend="FALSE" PannerCurrentValue="0.5" PannerKeyframes="" PannerStartKeyframe="-91445760000000000,0.5,0,0,0,0,0,0" PannerIsInverted="true" PannerName="Balance">
						<masterclipid>masterclip-293</masterclipid>
						<name>AUXMP_SCD074379_TENDER_BRIDGE.wav</name>
						<enabled>TRUE</enabled>
						<duration>605</duration>
						<rate>
							<timebase>25</timebase>
							<ntsc>FALSE</ntsc>
						</rate>
						<start>39825</start>
						<end>40065</end>
						<in>0</in>
						<out>240</out>
						<file id="file-266"/>
						<sourcetrack>
							<mediatype>audio</mediatype>
							<trackindex>2</trackindex>
						</sourcetrack>
							<filter>
								<effect>
									<name>Audio Levels</name>
									<effectid>audiolevels</effectid>
									<effectcategory>audiolevels</effectcategory>
									<effecttype>audiolevels</effecttype>
									<mediatype>audio</mediatype>
									<parameter authoringApp="PremierePro">
										<parameterid>level</parameterid>
										<name>Level</name>
										<valuemin>0</valuemin>
										<valuemax>3.98109</valuemax>
										<value>0.125594</value>
									</parameter>
								</effect>
							</filter>
							<filter>
								<effect>
									<name>Audio Pan</name>
									<effectid>audiopan</effectid>
									<effectcategory>audiopan</effectcategory>
									<effecttype>audiopan</effecttype>
									<mediatype>audio</mediatype>
									<parameter authoringApp="PremierePro">
										<parameterid>pan</parameterid>
										<name>Pan</name>
										<valuemin>-1</valuemin>
										<valuemax>1</valuemax>
										<value>0</value>
									</parameter>
								</effect>
							</filter>
						<link>
							<linkclipref>clipitem-1677</linkclipref>
							<mediatype>audio</mediatype>
							<trackindex>10</trackindex>
							<clipindex>28</clipindex>
							<groupindex>1</groupindex>
						</link>
						<link>
							<linkclipref>clipitem-1693</linkclipref>
							<mediatype>audio</mediatype>
							<trackindex>11</trackindex>
							<clipindex>27</clipindex>
							<groupindex>1</groupindex>
						</link>
						<logginginfo>
							<description></description>
							<scene></scene>
							<shottake></shottake>
							<lognote></lognote>
						</logginginfo>
						<labels>
							<label2>Caribbean</label2>
						</labels>
					</clipitem>
					<enabled>TRUE</enabled>
					<locked>FALSE</locked>
					<outputchannelindex>2</outputchannelindex>
				</track>
				<track TL.SQTrackAudioKeyframeStyle="0" TL.SQTrackShy="0" TL.SQTrackExpandedHeight="82" TL.SQTrackExpanded="1" MZ.TrackTargeted="0" MZ.TrackName="Musikk 2 stereo" PannerCurrentValue="0.5" PannerIsInverted="true" PannerStartKeyframe="-91445760000000000,0.5,0,0,0,0,0,0" PannerName="Balance" currentExplodedTrackIndex="0" totalExplodedTrackCount="2" premiereTrackType="Stereo">
					<clipitem id="clipitem-1694" frameBlend="FALSE" PannerCurrentValue="0.5" PannerKeyframes="" PannerStartKeyframe="-91445760000000000,0.5,0,0,0,0,0,0" PannerIsInverted="true" PannerName="Balance">
						<masterclipid>masterclip-294</masterclipid>
						<name>AUXMP_SCDV040104_I_FEEL_SO_GOOD_D.wav</name>
						<enabled>TRUE</enabled>
						<duration>3260</duration>
						<rate>
							<timebase>25</timebase>
							<ntsc>FALSE</ntsc>
						</rate>
						<start>11173</start>
						<end>12857</end>
						<in>0</in>
						<out>1684</out>
						<file id="file-267">
							<name>AUXMP_SCDV040104_I_FEEL_SO_GOOD_D.wav</name>
							<pathurl>file://localhost/Volumes/Brakka/Katta/Musikk/Sensor%20for%20mat%20-%20magi,%20skummelt,%20ha%cc%8ap/AUXMP_SCDV040104_I_FEEL_SO_GOOD_D.wav</pathurl>
							<rate>
								<timebase>30</timebase>
								<ntsc>TRUE</ntsc>
							</rate>
							<duration>3908</duration>
							<timecode>
								<rate>
									<timebase>30</timebase>
									<ntsc>TRUE</ntsc>
								</rate>
								<string>00;06;18;17</string>
								<frame>11345</frame>
								<displayformat>DF</displayformat>
								<reel>
									<name></name>
								</reel>
							</timecode>
							<media>
								<audio>
									<samplecharacteristics>
										<depth>16</depth>
										<samplerate>48000</samplerate>
									</samplecharacteristics>
									<channelcount>2</channelcount>
								</audio>
							</media>
						</file>
						<sourcetrack>
							<mediatype>audio</mediatype>
							<trackindex>1</trackindex>
						</sourcetrack>
							<filter>
								<effect>
									<name>Audio Levels</name>
									<effectid>audiolevels</effectid>
									<effectcategory>audiolevels</effectcategory>
									<effecttype>audiolevels</effecttype>
									<mediatype>audio</mediatype>
									<parameter authoringApp="PremierePro">
										<parameterid>level</parameterid>
										<name>Level</name>
										<valuemin>0</valuemin>
										<valuemax>3.98109</valuemax>
										<value>0.138928</value>
										<keyframe>
											<when>268</when>
											<value>0.529991</value>
										</keyframe>
										<keyframe>
											<when>279</when>
											<value>0.138928</value>
										</keyframe>
									</parameter>
								</effect>
							</filter>
							<filter>
								<effect>
									<name>Audio Pan</name>
									<effectid>audiopan</effectid>
									<effectcategory>audiopan</effectcategory>
									<effecttype>audiopan</effecttype>
									<mediatype>audio</mediatype>
									<parameter authoringApp="PremierePro">
										<parameterid>pan</parameterid>
										<name>Pan</name>
										<valuemin>-1</valuemin>
										<valuemax>1</valuemax>
										<value>0</value>
									</parameter>
								</effect>
							</filter>
						<link>
							<linkclipref>clipitem-1694</linkclipref>
							<mediatype>audio</mediatype>
							<trackindex>12</trackindex>
							<clipindex>1</clipindex>
							<groupindex>1</groupindex>
						</link>
						<link>
							<linkclipref>clipitem-1699</linkclipref>
							<mediatype>audio</mediatype>
							<trackindex>13</trackindex>
							<clipindex>1</clipindex>
							<groupindex>1</groupindex>
						</link>
						<logginginfo>
							<description></description>
							<scene></scene>
							<shottake></shottake>
							<lognote></lognote>
						</logginginfo>
						<labels>
							<label2>Caribbean</label2>
						</labels>
					</clipitem>
					<clipitem id="clipitem-1695" frameBlend="FALSE" PannerCurrentValue="0.5" PannerKeyframes="" PannerStartKeyframe="-91445760000000000,0.5,0,0,0,0,0,0" PannerIsInverted="true" PannerName="Balance">
						<masterclipid>masterclip-294</masterclipid>
						<name>AUXMP_SCDV040104_I_FEEL_SO_GOOD_D.wav</name>
						<enabled>TRUE</enabled>
						<duration>3260</duration>
						<rate>
							<timebase>25</timebase>
							<ntsc>FALSE</ntsc>
						</rate>
						<start>12857</start>
						<end>13013</end>
						<in>3063</in>
						<out>3219</out>
						<file id="file-267"/>
						<sourcetrack>
							<mediatype>audio</mediatype>
							<trackindex>1</trackindex>
						</sourcetrack>
							<filter>
								<effect>
									<name>Audio Levels</name>
									<effectid>audiolevels</effectid>
									<effectcategory>audiolevels</effectcategory>
									<effecttype>audiolevels</effecttype>
									<mediatype>audio</mediatype>
									<parameter authoringApp="PremierePro">
										<parameterid>level</parameterid>
										<name>Level</name>
										<valuemin>0</valuemin>
										<valuemax>3.98109</valuemax>
										<value>0.225054</value>
									</parameter>
								</effect>
							</filter>
							<filter>
								<effect>
									<name>Audio Pan</name>
									<effectid>audiopan</effectid>
									<effectcategory>audiopan</effectcategory>
									<effecttype>audiopan</effecttype>
									<mediatype>audio</mediatype>
									<parameter authoringApp="PremierePro">
										<parameterid>pan</parameterid>
										<name>Pan</name>
										<valuemin>-1</valuemin>
										<valuemax>1</valuemax>
										<value>0</value>
									</parameter>
								</effect>
							</filter>
						<link>
							<linkclipref>clipitem-1695</linkclipref>
							<mediatype>audio</mediatype>
							<trackindex>12</trackindex>
							<clipindex>2</clipindex>
							<groupindex>1</groupindex>
						</link>
						<link>
							<linkclipref>clipitem-1700</linkclipref>
							<mediatype>audio</mediatype>
							<trackindex>13</trackindex>
							<clipindex>2</clipindex>
							<groupindex>1</groupindex>
						</link>
						<logginginfo>
							<description></description>
							<scene></scene>
							<shottake></shottake>
							<lognote></lognote>
						</logginginfo>
						<labels>
							<label2>Caribbean</label2>
						</labels>
					</clipitem>
					<transitionitem>
						<start>24786</start>
						<end>24799</end>
						<alignment>start-black</alignment>
						<cutPoint>0</cutPoint>
						<rate>
							<timebase>25</timebase>
							<ntsc>FALSE</ntsc>
						</rate>
						<effect>
							<name>Cross Fade (+3dB)</name>
							<effectid>KGAudioTransCrossFade3dB</effectid>
							<effecttype>transition</effecttype>
							<mediatype>audio</mediatype>
							<wipecode>0</wipecode>
							<wipeaccuracy>100</wipeaccuracy>
							<startratio>0</startratio>
							<endratio>1</endratio>
							<reverse>FALSE</reverse>
						</effect>
					</transitionitem>
					<clipitem id="clipitem-1696" frameBlend="FALSE" PannerCurrentValue="0.5" PannerKeyframes="" PannerStartKeyframe="-91445760000000000,0.5,0,0,0,0,0,0" PannerIsInverted="true" PannerName="Balance">
						<masterclipid>masterclip-289</masterclipid>
						<name>AUXMP_SCD084304_POLLUTION_DRONE__A.wav</name>
						<enabled>TRUE</enabled>
						<duration>4566</duration>
						<rate>
							<timebase>25</timebase>
							<ntsc>FALSE</ntsc>
						</rate>
						<start>-1</start>
						<end>-1</end>
						<in>127</in>
						<out>996</out>
						<file id="file-262"/>
						<sourcetrack>
							<mediatype>audio</mediatype>
							<trackindex>1</trackindex>
						</sourcetrack>
							<filter>
								<effect>
									<name>Audio Levels</name>
									<effectid>audiolevels</effectid>
									<effectcategory>audiolevels</effectcategory>
									<effecttype>audiolevels</effecttype>
									<mediatype>audio</mediatype>
									<parameter authoringApp="PremierePro">
										<parameterid>level</parameterid>
										<name>Level</name>
										<valuemin>0</valuemin>
										<valuemax>3.98109</valuemax>
										<value>0.13161</value>
									</parameter>
								</effect>
							</filter>
							<filter>
								<effect>
									<name>Audio Pan</name>
									<effectid>audiopan</effectid>
									<effectcategory>audiopan</effectcategory>
									<effecttype>audiopan</effecttype>
									<mediatype>audio</mediatype>
									<parameter authoringApp="PremierePro">
										<parameterid>pan</parameterid>
										<name>Pan</name>
										<valuemin>-1</valuemin>
										<valuemax>1</valuemax>
										<value>0</value>
									</parameter>
								</effect>
							</filter>
						<link>
							<linkclipref>clipitem-1696</linkclipref>
							<mediatype>audio</mediatype>
							<trackindex>12</trackindex>
							<clipindex>4</clipindex>
							<groupindex>1</groupindex>
						</link>
						<link>
							<linkclipref>clipitem-1701</linkclipref>
							<mediatype>audio</mediatype>
							<trackindex>13</trackindex>
							<clipindex>4</clipindex>
							<groupindex>1</groupindex>
						</link>
						<logginginfo>
							<description></description>
							<scene></scene>
							<shottake></shottake>
							<lognote></lognote>
						</logginginfo>
						<labels>
							<label2>Rose</label2>
						</labels>
					</clipitem>
					<transitionitem>
						<start>25419</start>
						<end>25655</end>
						<alignment>end-black</alignment>
						<cutPoint>236</cutPoint>
						<rate>
							<timebase>25</timebase>
							<ntsc>FALSE</ntsc>
						</rate>
						<effect>
							<name>Cross Fade (+3dB)</name>
							<effectid>KGAudioTransCrossFade3dB</effectid>
							<effecttype>transition</effecttype>
							<mediatype>audio</mediatype>
							<wipecode>0</wipecode>
							<wipeaccuracy>100</wipeaccuracy>
							<startratio>0</startratio>
							<endratio>1</endratio>
							<reverse>FALSE</reverse>
						</effect>
					</transitionitem>
					<clipitem id="clipitem-1697" frameBlend="FALSE" PannerCurrentValue="0.5" PannerKeyframes="" PannerStartKeyframe="-91445760000000000,0.5,0,0,0,0,0,0" PannerIsInverted="true" PannerName="Balance">
						<masterclipid>masterclip-295</masterclipid>
						<name>AUXMP_AFRO002937_DUST_OF_STARS-_THE.wav</name>
						<enabled>TRUE</enabled>
						<duration>6400</duration>
						<rate>
							<timebase>25</timebase>
							<ntsc>FALSE</ntsc>
						</rate>
						<start>30677</start>
						<end>-1</end>
						<in>1293</in>
						<out>2210</out>
						<file id="file-268">
							<name>AUXMP_AFRO002937_DUST_OF_STARS-_THE.wav</name>
							<pathurl>file://localhost/Volumes/Brakka/Katta/Musikk/Sensor%20for%20mat%20-%20magi,%20skummelt,%20ha%cc%8ap/AUXMP_AFRO002937_DUST_OF_STARS-_THE.wav</pathurl>
							<rate>
								<timebase>30</timebase>
								<ntsc>TRUE</ntsc>
							</rate>
							<duration>7672</duration>
							<timecode>
								<rate>
									<timebase>30</timebase>
									<ntsc>TRUE</ntsc>
								</rate>
								<string>00;00;00;00</string>
								<frame>0</frame>
								<displayformat>DF</displayformat>
								<reel>
									<name></name>
								</reel>
							</timecode>
							<media>
								<audio>
									<samplecharacteristics>
										<depth>16</depth>
										<samplerate>44100</samplerate>
									</samplecharacteristics>
									<channelcount>2</channelcount>
								</audio>
							</media>
						</file>
						<sourcetrack>
							<mediatype>audio</mediatype>
							<trackindex>1</trackindex>
						</sourcetrack>
							<filter>
								<effect>
									<name>Audio Levels</name>
									<effectid>audiolevels</effectid>
									<effectcategory>audiolevels</effectcategory>
									<effecttype>audiolevels</effecttype>
									<mediatype>audio</mediatype>
									<parameter authoringApp="PremierePro">
										<parameterid>level</parameterid>
										<name>Level</name>
										<valuemin>0</valuemin>
										<valuemax>3.98109</valuemax>
										<value>0.104137</value>
									</parameter>
								</effect>
							</filter>
							<filter>
								<effect>
									<name>Audio Pan</name>
									<effectid>audiopan</effectid>
									<effectcategory>audiopan</effectcategory>
									<effecttype>audiopan</effecttype>
									<mediatype>audio</mediatype>
									<parameter authoringApp="PremierePro">
										<parameterid>pan</parameterid>
										<name>Pan</name>
										<valuemin>-1</valuemin>
										<valuemax>1</valuemax>
										<value>0</value>
									</parameter>
								</effect>
							</filter>
						<link>
							<linkclipref>clipitem-1697</linkclipref>
							<mediatype>audio</mediatype>
							<trackindex>12</trackindex>
							<clipindex>6</clipindex>
							<groupindex>1</groupindex>
						</link>
						<link>
							<linkclipref>clipitem-1702</linkclipref>
							<mediatype>audio</mediatype>
							<trackindex>13</trackindex>
							<clipindex>6</clipindex>
							<groupindex>1</groupindex>
						</link>
						<logginginfo>
							<description></description>
							<scene></scene>
							<shottake></shottake>
							<lognote></lognote>
						</logginginfo>
						<labels>
							<label2>Mango</label2>
						</labels>
					</clipitem>
					<transitionitem>
						<start>31528</start>
						<end>31594</end>
						<alignment>end-black</alignment>
						<cutPoint>66</cutPoint>
						<rate>
							<timebase>25</timebase>
							<ntsc>FALSE</ntsc>
						</rate>
						<effect>
							<name>Cross Fade (+3dB)</name>
							<effectid>KGAudioTransCrossFade3dB</effectid>
							<effecttype>transition</effecttype>
							<mediatype>audio</mediatype>
							<wipecode>0</wipecode>
							<wipeaccuracy>100</wipeaccuracy>
							<startratio>0</startratio>
							<endratio>1</endratio>
							<reverse>FALSE</reverse>
						</effect>
					</transitionitem>
					<clipitem id="clipitem-1698" frameBlend="FALSE" PannerCurrentValue="0.5" PannerKeyframes="" PannerStartKeyframe="-91445760000000000,0.5,0,0,0,0,0,0" PannerIsInverted="true" PannerName="Balance">
						<masterclipid>masterclip-287</masterclipid>
						<name>AUXMP_SCDV037624_RAISING_HOPE_B.wav</name>
						<enabled>TRUE</enabled>
						<duration>4980</duration>
						<rate>
							<timebase>25</timebase>
							<ntsc>FALSE</ntsc>
						</rate>
						<start>40379</start>
						<end>-1</end>
						<in>3539</in>
						<out>4340</out>
						<file id="file-260"/>
						<sourcetrack>
							<mediatype>audio</mediatype>
							<trackindex>1</trackindex>
						</sourcetrack>
							<filter>
								<effect>
									<name>Audio Levels</name>
									<effectid>audiolevels</effectid>
									<effectcategory>audiolevels</effectcategory>
									<effecttype>audiolevels</effecttype>
									<mediatype>audio</mediatype>
									<parameter authoringApp="PremierePro">
										<parameterid>level</parameterid>
										<name>Level</name>
										<valuemin>0</valuemin>
										<valuemax>3.98109</valuemax>
										<value>0.0555555</value>
									</parameter>
								</effect>
							</filter>
							<filter>
								<effect>
									<name>Audio Pan</name>
									<effectid>audiopan</effectid>
									<effectcategory>audiopan</effectcategory>
									<effecttype>audiopan</effecttype>
									<mediatype>audio</mediatype>
									<parameter authoringApp="PremierePro">
										<parameterid>pan</parameterid>
										<name>Pan</name>
										<valuemin>-1</valuemin>
										<valuemax>1</valuemax>
										<value>0</value>
									</parameter>
								</effect>
							</filter>
						<link>
							<linkclipref>clipitem-1698</linkclipref>
							<mediatype>audio</mediatype>
							<trackindex>12</trackindex>
							<clipindex>8</clipindex>
							<groupindex>1</groupindex>
						</link>
						<link>
							<linkclipref>clipitem-1703</linkclipref>
							<mediatype>audio</mediatype>
							<trackindex>13</trackindex>
							<clipindex>8</clipindex>
							<groupindex>1</groupindex>
						</link>
						<logginginfo>
							<description></description>
							<scene></scene>
							<shottake></shottake>
							<lognote></lognote>
						</logginginfo>
						<labels>
							<label2>Forest</label2>
						</labels>
					</clipitem>
					<transitionitem>
						<start>41066</start>
						<end>41180</end>
						<alignment>end-black</alignment>
						<cutPoint>114</cutPoint>
						<rate>
							<timebase>25</timebase>
							<ntsc>FALSE</ntsc>
						</rate>
						<effect>
							<name>Cross Fade (+3dB)</name>
							<effectid>KGAudioTransCrossFade3dB</effectid>
							<effecttype>transition</effecttype>
							<mediatype>audio</mediatype>
							<wipecode>0</wipecode>
							<wipeaccuracy>100</wipeaccuracy>
							<startratio>0</startratio>
							<endratio>1</endratio>
							<reverse>FALSE</reverse>
						</effect>
					</transitionitem>
					<enabled>TRUE</enabled>
					<locked>FALSE</locked>
					<outputchannelindex>1</outputchannelindex>
				</track>
				<track TL.SQTrackAudioKeyframeStyle="0" TL.SQTrackShy="0" TL.SQTrackExpandedHeight="82" TL.SQTrackExpanded="1" MZ.TrackTargeted="0" MZ.TrackName="Musikk 2 stereo" PannerCurrentValue="0.5" PannerIsInverted="true" PannerStartKeyframe="-91445760000000000,0.5,0,0,0,0,0,0" PannerName="Balance" currentExplodedTrackIndex="1" totalExplodedTrackCount="2" premiereTrackType="Stereo">
					<clipitem id="clipitem-1699" frameBlend="FALSE" PannerCurrentValue="0.5" PannerKeyframes="" PannerStartKeyframe="-91445760000000000,0.5,0,0,0,0,0,0" PannerIsInverted="true" PannerName="Balance">
						<masterclipid>masterclip-294</masterclipid>
						<name>AUXMP_SCDV040104_I_FEEL_SO_GOOD_D.wav</name>
						<enabled>TRUE</enabled>
						<duration>3260</duration>
						<rate>
							<timebase>25</timebase>
							<ntsc>FALSE</ntsc>
						</rate>
						<start>11173</start>
						<end>12857</end>
						<in>0</in>
						<out>1684</out>
						<file id="file-267"/>
						<sourcetrack>
							<mediatype>audio</mediatype>
							<trackindex>2</trackindex>
						</sourcetrack>
							<filter>
								<effect>
									<name>Audio Levels</name>
									<effectid>audiolevels</effectid>
									<effectcategory>audiolevels</effectcategory>
									<effecttype>audiolevels</effecttype>
									<mediatype>audio</mediatype>
									<parameter authoringApp="PremierePro">
										<parameterid>level</parameterid>
										<name>Level</name>
										<valuemin>0</valuemin>
										<valuemax>3.98109</valuemax>
										<value>0.138928</value>
										<keyframe>
											<when>268</when>
											<value>0.529991</value>
										</keyframe>
										<keyframe>
											<when>279</when>
											<value>0.138928</value>
										</keyframe>
									</parameter>
								</effect>
							</filter>
							<filter>
								<effect>
									<name>Audio Pan</name>
									<effectid>audiopan</effectid>
									<effectcategory>audiopan</effectcategory>
									<effecttype>audiopan</effecttype>
									<mediatype>audio</mediatype>
									<parameter authoringApp="PremierePro">
										<parameterid>pan</parameterid>
										<name>Pan</name>
										<valuemin>-1</valuemin>
										<valuemax>1</valuemax>
										<value>0</value>
									</parameter>
								</effect>
							</filter>
						<link>
							<linkclipref>clipitem-1694</linkclipref>
							<mediatype>audio</mediatype>
							<trackindex>12</trackindex>
							<clipindex>1</clipindex>
							<groupindex>1</groupindex>
						</link>
						<link>
							<linkclipref>clipitem-1699</linkclipref>
							<mediatype>audio</mediatype>
							<trackindex>13</trackindex>
							<clipindex>1</clipindex>
							<groupindex>1</groupindex>
						</link>
						<logginginfo>
							<description></description>
							<scene></scene>
							<shottake></shottake>
							<lognote></lognote>
						</logginginfo>
						<labels>
							<label2>Caribbean</label2>
						</labels>
					</clipitem>
					<clipitem id="clipitem-1700" frameBlend="FALSE" PannerCurrentValue="0.5" PannerKeyframes="" PannerStartKeyframe="-91445760000000000,0.5,0,0,0,0,0,0" PannerIsInverted="true" PannerName="Balance">
						<masterclipid>masterclip-294</masterclipid>
						<name>AUXMP_SCDV040104_I_FEEL_SO_GOOD_D.wav</name>
						<enabled>TRUE</enabled>
						<duration>3260</duration>
						<rate>
							<timebase>25</timebase>
							<ntsc>FALSE</ntsc>
						</rate>
						<start>12857</start>
						<end>13013</end>
						<in>3063</in>
						<out>3219</out>
						<file id="file-267"/>
						<sourcetrack>
							<mediatype>audio</mediatype>
							<trackindex>2</trackindex>
						</sourcetrack>
							<filter>
								<effect>
									<name>Audio Levels</name>
									<effectid>audiolevels</effectid>
									<effectcategory>audiolevels</effectcategory>
									<effecttype>audiolevels</effecttype>
									<mediatype>audio</mediatype>
									<parameter authoringApp="PremierePro">
										<parameterid>level</parameterid>
										<name>Level</name>
										<valuemin>0</valuemin>
										<valuemax>3.98109</valuemax>
										<value>0.225054</value>
									</parameter>
								</effect>
							</filter>
							<filter>
								<effect>
									<name>Audio Pan</name>
									<effectid>audiopan</effectid>
									<effectcategory>audiopan</effectcategory>
									<effecttype>audiopan</effecttype>
									<mediatype>audio</mediatype>
									<parameter authoringApp="PremierePro">
										<parameterid>pan</parameterid>
										<name>Pan</name>
										<valuemin>-1</valuemin>
										<valuemax>1</valuemax>
										<value>0</value>
									</parameter>
								</effect>
							</filter>
						<link>
							<linkclipref>clipitem-1695</linkclipref>
							<mediatype>audio</mediatype>
							<trackindex>12</trackindex>
							<clipindex>2</clipindex>
							<groupindex>1</groupindex>
						</link>
						<link>
							<linkclipref>clipitem-1700</linkclipref>
							<mediatype>audio</mediatype>
							<trackindex>13</trackindex>
							<clipindex>2</clipindex>
							<groupindex>1</groupindex>
						</link>
						<logginginfo>
							<description></description>
							<scene></scene>
							<shottake></shottake>
							<lognote></lognote>
						</logginginfo>
						<labels>
							<label2>Caribbean</label2>
						</labels>
					</clipitem>
					<transitionitem>
						<start>24786</start>
						<end>24799</end>
						<alignment>start-black</alignment>
						<cutPoint>0</cutPoint>
						<rate>
							<timebase>25</timebase>
							<ntsc>FALSE</ntsc>
						</rate>
						<effect>
							<name>Cross Fade (+3dB)</name>
							<effectid>KGAudioTransCrossFade3dB</effectid>
							<effecttype>transition</effecttype>
							<mediatype>audio</mediatype>
							<wipecode>0</wipecode>
							<wipeaccuracy>100</wipeaccuracy>
							<startratio>0</startratio>
							<endratio>1</endratio>
							<reverse>FALSE</reverse>
						</effect>
					</transitionitem>
					<clipitem id="clipitem-1701" frameBlend="FALSE" PannerCurrentValue="0.5" PannerKeyframes="" PannerStartKeyframe="-91445760000000000,0.5,0,0,0,0,0,0" PannerIsInverted="true" PannerName="Balance">
						<masterclipid>masterclip-289</masterclipid>
						<name>AUXMP_SCD084304_POLLUTION_DRONE__A.wav</name>
						<enabled>TRUE</enabled>
						<duration>4566</duration>
						<rate>
							<timebase>25</timebase>
							<ntsc>FALSE</ntsc>
						</rate>
						<start>-1</start>
						<end>-1</end>
						<in>127</in>
						<out>996</out>
						<file id="file-262"/>
						<sourcetrack>
							<mediatype>audio</mediatype>
							<trackindex>2</trackindex>
						</sourcetrack>
							<filter>
								<effect>
									<name>Audio Levels</name>
									<effectid>audiolevels</effectid>
									<effectcategory>audiolevels</effectcategory>
									<effecttype>audiolevels</effecttype>
									<mediatype>audio</mediatype>
									<parameter authoringApp="PremierePro">
										<parameterid>level</parameterid>
										<name>Level</name>
										<valuemin>0</valuemin>
										<valuemax>3.98109</valuemax>
										<value>0.13161</value>
									</parameter>
								</effect>
							</filter>
							<filter>
								<effect>
									<name>Audio Pan</name>
									<effectid>audiopan</effectid>
									<effectcategory>audiopan</effectcategory>
									<effecttype>audiopan</effecttype>
									<mediatype>audio</mediatype>
									<parameter authoringApp="PremierePro">
										<parameterid>pan</parameterid>
										<name>Pan</name>
										<valuemin>-1</valuemin>
										<valuemax>1</valuemax>
										<value>0</value>
									</parameter>
								</effect>
							</filter>
						<link>
							<linkclipref>clipitem-1696</linkclipref>
							<mediatype>audio</mediatype>
							<trackindex>12</trackindex>
							<clipindex>4</clipindex>
							<groupindex>1</groupindex>
						</link>
						<link>
							<linkclipref>clipitem-1701</linkclipref>
							<mediatype>audio</mediatype>
							<trackindex>13</trackindex>
							<clipindex>4</clipindex>
							<groupindex>1</groupindex>
						</link>
						<logginginfo>
							<description></description>
							<scene></scene>
							<shottake></shottake>
							<lognote></lognote>
						</logginginfo>
						<labels>
							<label2>Rose</label2>
						</labels>
					</clipitem>
					<transitionitem>
						<start>25419</start>
						<end>25655</end>
						<alignment>end-black</alignment>
						<cutPoint>236</cutPoint>
						<rate>
							<timebase>25</timebase>
							<ntsc>FALSE</ntsc>
						</rate>
						<effect>
							<name>Cross Fade (+3dB)</name>
							<effectid>KGAudioTransCrossFade3dB</effectid>
							<effecttype>transition</effecttype>
							<mediatype>audio</mediatype>
							<wipecode>0</wipecode>
							<wipeaccuracy>100</wipeaccuracy>
							<startratio>0</startratio>
							<endratio>1</endratio>
							<reverse>FALSE</reverse>
						</effect>
					</transitionitem>
					<clipitem id="clipitem-1702" frameBlend="FALSE" PannerCurrentValue="0.5" PannerKeyframes="" PannerStartKeyframe="-91445760000000000,0.5,0,0,0,0,0,0" PannerIsInverted="true" PannerName="Balance">
						<masterclipid>masterclip-295</masterclipid>
						<name>AUXMP_AFRO002937_DUST_OF_STARS-_THE.wav</name>
						<enabled>TRUE</enabled>
						<duration>6400</duration>
						<rate>
							<timebase>25</timebase>
							<ntsc>FALSE</ntsc>
						</rate>
						<start>30677</start>
						<end>-1</end>
						<in>1293</in>
						<out>2210</out>
						<file id="file-268"/>
						<sourcetrack>
							<mediatype>audio</mediatype>
							<trackindex>2</trackindex>
						</sourcetrack>
							<filter>
								<effect>
									<name>Audio Levels</name>
									<effectid>audiolevels</effectid>
									<effectcategory>audiolevels</effectcategory>
									<effecttype>audiolevels</effecttype>
									<mediatype>audio</mediatype>
									<parameter authoringApp="PremierePro">
										<parameterid>level</parameterid>
										<name>Level</name>
										<valuemin>0</valuemin>
										<valuemax>3.98109</valuemax>
										<value>0.104137</value>
									</parameter>
								</effect>
							</filter>
							<filter>
								<effect>
									<name>Audio Pan</name>
									<effectid>audiopan</effectid>
									<effectcategory>audiopan</effectcategory>
									<effecttype>audiopan</effecttype>
									<mediatype>audio</mediatype>
									<parameter authoringApp="PremierePro">
										<parameterid>pan</parameterid>
										<name>Pan</name>
										<valuemin>-1</valuemin>
										<valuemax>1</valuemax>
										<value>0</value>
									</parameter>
								</effect>
							</filter>
						<link>
							<linkclipref>clipitem-1697</linkclipref>
							<mediatype>audio</mediatype>
							<trackindex>12</trackindex>
							<clipindex>6</clipindex>
							<groupindex>1</groupindex>
						</link>
						<link>
							<linkclipref>clipitem-1702</linkclipref>
							<mediatype>audio</mediatype>
							<trackindex>13</trackindex>
							<clipindex>6</clipindex>
							<groupindex>1</groupindex>
						</link>
						<logginginfo>
							<description></description>
							<scene></scene>
							<shottake></shottake>
							<lognote></lognote>
						</logginginfo>
						<labels>
							<label2>Mango</label2>
						</labels>
					</clipitem>
					<transitionitem>
						<start>31528</start>
						<end>31594</end>
						<alignment>end-black</alignment>
						<cutPoint>66</cutPoint>
						<rate>
							<timebase>25</timebase>
							<ntsc>FALSE</ntsc>
						</rate>
						<effect>
							<name>Cross Fade (+3dB)</name>
							<effectid>KGAudioTransCrossFade3dB</effectid>
							<effecttype>transition</effecttype>
							<mediatype>audio</mediatype>
							<wipecode>0</wipecode>
							<wipeaccuracy>100</wipeaccuracy>
							<startratio>0</startratio>
							<endratio>1</endratio>
							<reverse>FALSE</reverse>
						</effect>
					</transitionitem>
					<clipitem id="clipitem-1703" frameBlend="FALSE" PannerCurrentValue="0.5" PannerKeyframes="" PannerStartKeyframe="-91445760000000000,0.5,0,0,0,0,0,0" PannerIsInverted="true" PannerName="Balance">
						<masterclipid>masterclip-287</masterclipid>
						<name>AUXMP_SCDV037624_RAISING_HOPE_B.wav</name>
						<enabled>TRUE</enabled>
						<duration>4980</duration>
						<rate>
							<timebase>25</timebase>
							<ntsc>FALSE</ntsc>
						</rate>
						<start>40379</start>
						<end>-1</end>
						<in>3539</in>
						<out>4340</out>
						<file id="file-260"/>
						<sourcetrack>
							<mediatype>audio</mediatype>
							<trackindex>2</trackindex>
						</sourcetrack>
							<filter>
								<effect>
									<name>Audio Levels</name>
									<effectid>audiolevels</effectid>
									<effectcategory>audiolevels</effectcategory>
									<effecttype>audiolevels</effecttype>
									<mediatype>audio</mediatype>
									<parameter authoringApp="PremierePro">
										<parameterid>level</parameterid>
										<name>Level</name>
										<valuemin>0</valuemin>
										<valuemax>3.98109</valuemax>
										<value>0.0555555</value>
									</parameter>
								</effect>
							</filter>
							<filter>
								<effect>
									<name>Audio Pan</name>
									<effectid>audiopan</effectid>
									<effectcategory>audiopan</effectcategory>
									<effecttype>audiopan</effecttype>
									<mediatype>audio</mediatype>
									<parameter authoringApp="PremierePro">
										<parameterid>pan</parameterid>
										<name>Pan</name>
										<valuemin>-1</valuemin>
										<valuemax>1</valuemax>
										<value>0</value>
									</parameter>
								</effect>
							</filter>
						<link>
							<linkclipref>clipitem-1698</linkclipref>
							<mediatype>audio</mediatype>
							<trackindex>12</trackindex>
							<clipindex>8</clipindex>
							<groupindex>1</groupindex>
						</link>
						<link>
							<linkclipref>clipitem-1703</linkclipref>
							<mediatype>audio</mediatype>
							<trackindex>13</trackindex>
							<clipindex>8</clipindex>
							<groupindex>1</groupindex>
						</link>
						<logginginfo>
							<description></description>
							<scene></scene>
							<shottake></shottake>
							<lognote></lognote>
						</logginginfo>
						<labels>
							<label2>Forest</label2>
						</labels>
					</clipitem>
					<transitionitem>
						<start>41066</start>
						<end>41180</end>
						<alignment>end-black</alignment>
						<cutPoint>114</cutPoint>
						<rate>
							<timebase>25</timebase>
							<ntsc>FALSE</ntsc>
						</rate>
						<effect>
							<name>Cross Fade (+3dB)</name>
							<effectid>KGAudioTransCrossFade3dB</effectid>
							<effecttype>transition</effecttype>
							<mediatype>audio</mediatype>
							<wipecode>0</wipecode>
							<wipeaccuracy>100</wipeaccuracy>
							<startratio>0</startratio>
							<endratio>1</endratio>
							<reverse>FALSE</reverse>
						</effect>
					</transitionitem>
					<enabled>TRUE</enabled>
					<locked>FALSE</locked>
					<outputchannelindex>2</outputchannelindex>
				</track>
				<track TL.SQTrackAudioKeyframeStyle="0" TL.SQTrackShy="0" TL.SQTrackExpandedHeight="65" TL.SQTrackExpanded="0" MZ.TrackTargeted="0" MZ.TrackName="Vignett stereo" PannerCurrentValue="0.5" PannerIsInverted="true" PannerStartKeyframe="-91445760000000000,0.5,0,0,0,0,0,0" PannerName="Balance" currentExplodedTrackIndex="0" totalExplodedTrackCount="2" premiereTrackType="Stereo">
					<clipitem id="clipitem-1704" frameBlend="FALSE" PannerCurrentValue="0.5" PannerKeyframes="" PannerStartKeyframe="-91445760000000000,0.5,0,0,0,0,0,0" PannerIsInverted="true" PannerName="Balance">
						<masterclipid>masterclip-19</masterclipid>
						<name>Vignett katta 14 v1.mov</name>
						<enabled>TRUE</enabled>
						<duration>402</duration>
						<rate>
							<timebase>25</timebase>
							<ntsc>FALSE</ntsc>
						</rate>
						<start>875</start>
						<end>-1</end>
						<in>0</in>
						<out>79</out>
						<file id="file-18"/>
						<sourcetrack>
							<mediatype>audio</mediatype>
							<trackindex>1</trackindex>
						</sourcetrack>
							<filter>
								<effect>
									<name>Audio Pan</name>
									<effectid>audiopan</effectid>
									<effectcategory>audiopan</effectcategory>
									<effecttype>audiopan</effecttype>
									<mediatype>audio</mediatype>
									<parameter authoringApp="PremierePro">
										<parameterid>pan</parameterid>
										<name>Pan</name>
										<valuemin>-1</valuemin>
										<valuemax>1</valuemax>
										<value>0</value>
									</parameter>
								</effect>
							</filter>
						<link>
							<linkclipref>clipitem-404</linkclipref>
							<mediatype>video</mediatype>
							<trackindex>1</trackindex>
							<clipindex>16</clipindex>
						</link>
						<link>
							<linkclipref>clipitem-1704</linkclipref>
							<mediatype>audio</mediatype>
							<trackindex>14</trackindex>
							<clipindex>1</clipindex>
							<groupindex>1</groupindex>
						</link>
						<link>
							<linkclipref>clipitem-1710</linkclipref>
							<mediatype>audio</mediatype>
							<trackindex>15</trackindex>
							<clipindex>1</clipindex>
							<groupindex>1</groupindex>
						</link>
						<logginginfo>
							<description></description>
							<scene></scene>
							<shottake></shottake>
							<lognote></lognote>
						</logginginfo>
						<labels>
							<label2>Iris</label2>
						</labels>
					</clipitem>
					<transitionitem>
						<start>941</start>
						<end>954</end>
						<alignment>start</alignment>
						<cutPoint>1</cutPoint>
						<rate>
							<timebase>25</timebase>
							<ntsc>FALSE</ntsc>
						</rate>
						<effect>
							<name>Cross Fade (+3dB)</name>
							<effectid>KGAudioTransCrossFade3dB</effectid>
							<effecttype>transition</effecttype>
							<mediatype>audio</mediatype>
							<wipecode>0</wipecode>
							<wipeaccuracy>100</wipeaccuracy>
							<startratio>0</startratio>
							<endratio>1</endratio>
							<reverse>FALSE</reverse>
						</effect>
					</transitionitem>
					<clipitem id="clipitem-1705" frameBlend="FALSE" PannerCurrentValue="0.5" PannerKeyframes="" PannerStartKeyframe="-91445760000000000,0.5,0,0,0,0,0,0" PannerIsInverted="true" PannerName="Balance">
						<masterclipid>masterclip-19</masterclipid>
						<name>Vignett katta 14 v1.mov</name>
						<enabled>TRUE</enabled>
						<duration>402</duration>
						<rate>
							<timebase>25</timebase>
							<ntsc>FALSE</ntsc>
						</rate>
						<start>-1</start>
						<end>1164</end>
						<in>119</in>
						<out>342</out>
						<file id="file-18"/>
						<sourcetrack>
							<mediatype>audio</mediatype>
							<trackindex>1</trackindex>
						</sourcetrack>
							<filter>
								<effect>
									<name>Audio Pan</name>
									<effectid>audiopan</effectid>
									<effectcategory>audiopan</effectcategory>
									<effecttype>audiopan</effecttype>
									<mediatype>audio</mediatype>
									<parameter authoringApp="PremierePro">
										<parameterid>pan</parameterid>
										<name>Pan</name>
										<valuemin>-1</valuemin>
										<valuemax>1</valuemax>
										<value>0</value>
									</parameter>
								</effect>
							</filter>
						<link>
							<linkclipref>clipitem-1705</linkclipref>
							<mediatype>audio</mediatype>
							<trackindex>14</trackindex>
							<clipindex>3</clipindex>
							<groupindex>1</groupindex>
						</link>
						<link>
							<linkclipref>clipitem-1711</linkclipref>
							<mediatype>audio</mediatype>
							<trackindex>15</trackindex>
							<clipindex>3</clipindex>
							<groupindex>1</groupindex>
						</link>
						<logginginfo>
							<description></description>
							<scene></scene>
							<shottake></shottake>
							<lognote></lognote>
						</logginginfo>
						<labels>
							<label2>Iris</label2>
						</labels>
					</clipitem>
					<clipitem id="clipitem-1706" frameBlend="FALSE" PannerCurrentValue="0.5" PannerKeyframes="" PannerStartKeyframe="-91445760000000000,0.5,0,0,0,0,0,0" PannerIsInverted="true" PannerName="Balance">
						<masterclipid>masterclip-296</masterclipid>
						<name>Vignett stereo.wav</name>
						<enabled>TRUE</enabled>
						<duration>49</duration>
						<rate>
							<timebase>25</timebase>
							<ntsc>FALSE</ntsc>
						</rate>
						<start>39786</start>
						<end>39827</end>
						<in>8</in>
						<out>49</out>
						<file id="file-269">
							<name>Vignett stereo.wav</name>
							<pathurl>file://localhost/Volumes/Brakka/AdobeLager/Vignett%20stereo.wav</pathurl>
							<rate>
								<timebase>30</timebase>
								<ntsc>TRUE</ntsc>
							</rate>
							<duration>58</duration>
							<timecode>
								<rate>
									<timebase>30</timebase>
									<ntsc>TRUE</ntsc>
								</rate>
								<string>00;00;00;00</string>
								<frame>0</frame>
								<displayformat>DF</displayformat>
								<reel>
									<name></name>
								</reel>
							</timecode>
							<media>
								<audio>
									<samplecharacteristics>
										<depth>16</depth>
										<samplerate>48000</samplerate>
									</samplecharacteristics>
									<channelcount>2</channelcount>
								</audio>
							</media>
						</file>
						<sourcetrack>
							<mediatype>audio</mediatype>
							<trackindex>1</trackindex>
						</sourcetrack>
							<filter>
								<effect>
									<name>Audio Pan</name>
									<effectid>audiopan</effectid>
									<effectcategory>audiopan</effectcategory>
									<effecttype>audiopan</effecttype>
									<mediatype>audio</mediatype>
									<parameter authoringApp="PremierePro">
										<parameterid>pan</parameterid>
										<name>Pan</name>
										<valuemin>-1</valuemin>
										<valuemax>1</valuemax>
										<value>0</value>
									</parameter>
								</effect>
							</filter>
						<link>
							<linkclipref>clipitem-1706</linkclipref>
							<mediatype>audio</mediatype>
							<trackindex>14</trackindex>
							<clipindex>4</clipindex>
							<groupindex>1</groupindex>
						</link>
						<link>
							<linkclipref>clipitem-1712</linkclipref>
							<mediatype>audio</mediatype>
							<trackindex>15</trackindex>
							<clipindex>4</clipindex>
							<groupindex>1</groupindex>
						</link>
						<logginginfo>
							<description></description>
							<scene></scene>
							<shottake></shottake>
							<lognote></lognote>
						</logginginfo>
						<labels>
							<label2>Caribbean</label2>
						</labels>
					</clipitem>
					<clipitem id="clipitem-1707" frameBlend="FALSE" PannerCurrentValue="0.5" PannerKeyframes="" PannerStartKeyframe="-91445760000000000,0.5,0,0,0,0,0,0" PannerIsInverted="true" PannerName="Balance">
						<masterclipid>masterclip-297</masterclipid>
						<name>Sch_ktt_avslutning4.wav</name>
						<enabled>TRUE</enabled>
						<duration>1543</duration>
						<rate>
							<timebase>25</timebase>
							<ntsc>FALSE</ntsc>
						</rate>
						<start>42935</start>
						<end>43070</end>
						<in>732</in>
						<out>867</out>
						<file id="file-270">
							<name>Sch_ktt_avslutning4.wav</name>
							<pathurl>file://localhost/Volumes/Brakka/Katta/Katta%20Grafikk%20og%20maler/Orginal%20musikk%20jingler/Sch_ktt_avslutning4.wav</pathurl>
							<rate>
								<timebase>30</timebase>
								<ntsc>TRUE</ntsc>
							</rate>
							<duration>1850</duration>
							<timecode>
								<rate>
									<timebase>30</timebase>
									<ntsc>TRUE</ntsc>
								</rate>
								<string>00;00;00;00</string>
								<frame>0</frame>
								<displayformat>DF</displayformat>
								<reel>
									<name></name>
								</reel>
							</timecode>
							<media>
								<audio>
									<samplecharacteristics>
										<depth>16</depth>
										<samplerate>48000</samplerate>
									</samplecharacteristics>
									<channelcount>2</channelcount>
								</audio>
							</media>
						</file>
						<sourcetrack>
							<mediatype>audio</mediatype>
							<trackindex>1</trackindex>
						</sourcetrack>
							<filter>
								<effect>
									<name>Audio Levels</name>
									<effectid>audiolevels</effectid>
									<effectcategory>audiolevels</effectcategory>
									<effecttype>audiolevels</effecttype>
									<mediatype>audio</mediatype>
									<parameter authoringApp="PremierePro">
										<parameterid>level</parameterid>
										<name>Level</name>
										<valuemin>0</valuemin>
										<valuemax>3.98109</valuemax>
										<value>0.461324</value>
									</parameter>
								</effect>
							</filter>
							<filter>
								<effect>
									<name>Audio Pan</name>
									<effectid>audiopan</effectid>
									<effectcategory>audiopan</effectcategory>
									<effecttype>audiopan</effecttype>
									<mediatype>audio</mediatype>
									<parameter authoringApp="PremierePro">
										<parameterid>pan</parameterid>
										<name>Pan</name>
										<valuemin>-1</valuemin>
										<valuemax>1</valuemax>
										<value>0</value>
									</parameter>
								</effect>
							</filter>
						<link>
							<linkclipref>clipitem-1707</linkclipref>
							<mediatype>audio</mediatype>
							<trackindex>14</trackindex>
							<clipindex>5</clipindex>
							<groupindex>1</groupindex>
						</link>
						<link>
							<linkclipref>clipitem-1713</linkclipref>
							<mediatype>audio</mediatype>
							<trackindex>15</trackindex>
							<clipindex>5</clipindex>
							<groupindex>1</groupindex>
						</link>
						<logginginfo>
							<description></description>
							<scene></scene>
							<shottake></shottake>
							<lognote>r8brain PRO NormGain: -1.45 dB</lognote>
						</logginginfo>
						<labels>
							<label2>Caribbean</label2>
						</labels>
					</clipitem>
					<clipitem id="clipitem-1708" frameBlend="FALSE" PannerCurrentValue="0.5" PannerKeyframes="" PannerStartKeyframe="-91445760000000000,0.5,0,0,0,0,0,0" PannerIsInverted="true" PannerName="Balance">
						<masterclipid>masterclip-297</masterclipid>
						<name>Sch_ktt_avslutning4.wav</name>
						<enabled>TRUE</enabled>
						<duration>1543</duration>
						<rate>
							<timebase>25</timebase>
							<ntsc>FALSE</ntsc>
						</rate>
						<start>43070</start>
						<end>43159</end>
						<in>867</in>
						<out>956</out>
						<file id="file-270"/>
						<sourcetrack>
							<mediatype>audio</mediatype>
							<trackindex>1</trackindex>
						</sourcetrack>
							<filter>
								<effect>
									<name>Audio Levels</name>
									<effectid>audiolevels</effectid>
									<effectcategory>audiolevels</effectcategory>
									<effecttype>audiolevels</effecttype>
									<mediatype>audio</mediatype>
									<parameter authoringApp="PremierePro">
										<parameterid>level</parameterid>
										<name>Level</name>
										<valuemin>0</valuemin>
										<valuemax>3.98109</valuemax>
										<value>0.461324</value>
									</parameter>
								</effect>
							</filter>
							<filter>
								<effect>
									<name>Audio Pan</name>
									<effectid>audiopan</effectid>
									<effectcategory>audiopan</effectcategory>
									<effecttype>audiopan</effecttype>
									<mediatype>audio</mediatype>
									<parameter authoringApp="PremierePro">
										<parameterid>pan</parameterid>
										<name>Pan</name>
										<valuemin>-1</valuemin>
										<valuemax>1</valuemax>
										<value>0</value>
									</parameter>
								</effect>
							</filter>
						<link>
							<linkclipref>clipitem-1708</linkclipref>
							<mediatype>audio</mediatype>
							<trackindex>14</trackindex>
							<clipindex>6</clipindex>
							<groupindex>1</groupindex>
						</link>
						<link>
							<linkclipref>clipitem-1714</linkclipref>
							<mediatype>audio</mediatype>
							<trackindex>15</trackindex>
							<clipindex>6</clipindex>
							<groupindex>1</groupindex>
						</link>
						<logginginfo>
							<description></description>
							<scene></scene>
							<shottake></shottake>
							<lognote>r8brain PRO NormGain: -1.45 dB</lognote>
						</logginginfo>
						<labels>
							<label2>Caribbean</label2>
						</labels>
					</clipitem>
					<clipitem id="clipitem-1709" frameBlend="FALSE" PannerCurrentValue="0.5" PannerKeyframes="" PannerStartKeyframe="-91445760000000000,0.5,0,0,0,0,0,0" PannerIsInverted="true" PannerName="Balance">
						<masterclipid>masterclip-297</masterclipid>
						<name>Sch_ktt_avslutning4.wav</name>
						<enabled>TRUE</enabled>
						<duration>1543</duration>
						<rate>
							<timebase>25</timebase>
							<ntsc>FALSE</ntsc>
						</rate>
						<start>43159</start>
						<end>43342</end>
						<in>1168</in>
						<out>1351</out>
						<file id="file-270"/>
						<sourcetrack>
							<mediatype>audio</mediatype>
							<trackindex>1</trackindex>
						</sourcetrack>
							<filter>
								<effect>
									<name>Audio Levels</name>
									<effectid>audiolevels</effectid>
									<effectcategory>audiolevels</effectcategory>
									<effecttype>audiolevels</effecttype>
									<mediatype>audio</mediatype>
									<parameter authoringApp="PremierePro">
										<parameterid>level</parameterid>
										<name>Level</name>
										<valuemin>0</valuemin>
										<valuemax>3.98109</valuemax>
										<value>0.461324</value>
									</parameter>
								</effect>
							</filter>
							<filter>
								<effect>
									<name>Audio Pan</name>
									<effectid>audiopan</effectid>
									<effectcategory>audiopan</effectcategory>
									<effecttype>audiopan</effecttype>
									<mediatype>audio</mediatype>
									<parameter authoringApp="PremierePro">
										<parameterid>pan</parameterid>
										<name>Pan</name>
										<valuemin>-1</valuemin>
										<valuemax>1</valuemax>
										<value>0</value>
									</parameter>
								</effect>
							</filter>
						<link>
							<linkclipref>clipitem-1709</linkclipref>
							<mediatype>audio</mediatype>
							<trackindex>14</trackindex>
							<clipindex>7</clipindex>
							<groupindex>1</groupindex>
						</link>
						<link>
							<linkclipref>clipitem-1715</linkclipref>
							<mediatype>audio</mediatype>
							<trackindex>15</trackindex>
							<clipindex>7</clipindex>
							<groupindex>1</groupindex>
						</link>
						<logginginfo>
							<description></description>
							<scene></scene>
							<shottake></shottake>
							<lognote>r8brain PRO NormGain: -1.45 dB</lognote>
						</logginginfo>
						<labels>
							<label2>Caribbean</label2>
						</labels>
					</clipitem>
					<enabled>TRUE</enabled>
					<locked>FALSE</locked>
					<outputchannelindex>1</outputchannelindex>
				</track>
				<track TL.SQTrackAudioKeyframeStyle="0" TL.SQTrackShy="0" TL.SQTrackExpandedHeight="65" TL.SQTrackExpanded="0" MZ.TrackTargeted="0" MZ.TrackName="Vignett stereo" PannerCurrentValue="0.5" PannerIsInverted="true" PannerStartKeyframe="-91445760000000000,0.5,0,0,0,0,0,0" PannerName="Balance" currentExplodedTrackIndex="1" totalExplodedTrackCount="2" premiereTrackType="Stereo">
					<clipitem id="clipitem-1710" frameBlend="FALSE" PannerCurrentValue="0.5" PannerKeyframes="" PannerStartKeyframe="-91445760000000000,0.5,0,0,0,0,0,0" PannerIsInverted="true" PannerName="Balance">
						<masterclipid>masterclip-19</masterclipid>
						<name>Vignett katta 14 v1.mov</name>
						<enabled>TRUE</enabled>
						<duration>402</duration>
						<rate>
							<timebase>25</timebase>
							<ntsc>FALSE</ntsc>
						</rate>
						<start>875</start>
						<end>-1</end>
						<in>0</in>
						<out>79</out>
						<file id="file-18"/>
						<sourcetrack>
							<mediatype>audio</mediatype>
							<trackindex>2</trackindex>
						</sourcetrack>
							<filter>
								<effect>
									<name>Audio Pan</name>
									<effectid>audiopan</effectid>
									<effectcategory>audiopan</effectcategory>
									<effecttype>audiopan</effecttype>
									<mediatype>audio</mediatype>
									<parameter authoringApp="PremierePro">
										<parameterid>pan</parameterid>
										<name>Pan</name>
										<valuemin>-1</valuemin>
										<valuemax>1</valuemax>
										<value>0</value>
									</parameter>
								</effect>
							</filter>
						<link>
							<linkclipref>clipitem-404</linkclipref>
							<mediatype>video</mediatype>
							<trackindex>1</trackindex>
							<clipindex>16</clipindex>
						</link>
						<link>
							<linkclipref>clipitem-1704</linkclipref>
							<mediatype>audio</mediatype>
							<trackindex>14</trackindex>
							<clipindex>1</clipindex>
							<groupindex>1</groupindex>
						</link>
						<link>
							<linkclipref>clipitem-1710</linkclipref>
							<mediatype>audio</mediatype>
							<trackindex>15</trackindex>
							<clipindex>1</clipindex>
							<groupindex>1</groupindex>
						</link>
						<logginginfo>
							<description></description>
							<scene></scene>
							<shottake></shottake>
							<lognote></lognote>
						</logginginfo>
						<labels>
							<label2>Iris</label2>
						</labels>
					</clipitem>
					<transitionitem>
						<start>941</start>
						<end>954</end>
						<alignment>start</alignment>
						<cutPoint>1</cutPoint>
						<rate>
							<timebase>25</timebase>
							<ntsc>FALSE</ntsc>
						</rate>
						<effect>
							<name>Cross Fade (+3dB)</name>
							<effectid>KGAudioTransCrossFade3dB</effectid>
							<effecttype>transition</effecttype>
							<mediatype>audio</mediatype>
							<wipecode>0</wipecode>
							<wipeaccuracy>100</wipeaccuracy>
							<startratio>0</startratio>
							<endratio>1</endratio>
							<reverse>FALSE</reverse>
						</effect>
					</transitionitem>
					<clipitem id="clipitem-1711" frameBlend="FALSE" PannerCurrentValue="0.5" PannerKeyframes="" PannerStartKeyframe="-91445760000000000,0.5,0,0,0,0,0,0" PannerIsInverted="true" PannerName="Balance">
						<masterclipid>masterclip-19</masterclipid>
						<name>Vignett katta 14 v1.mov</name>
						<enabled>TRUE</enabled>
						<duration>402</duration>
						<rate>
							<timebase>25</timebase>
							<ntsc>FALSE</ntsc>
						</rate>
						<start>-1</start>
						<end>1164</end>
						<in>119</in>
						<out>342</out>
						<file id="file-18"/>
						<sourcetrack>
							<mediatype>audio</mediatype>
							<trackindex>2</trackindex>
						</sourcetrack>
							<filter>
								<effect>
									<name>Audio Pan</name>
									<effectid>audiopan</effectid>
									<effectcategory>audiopan</effectcategory>
									<effecttype>audiopan</effecttype>
									<mediatype>audio</mediatype>
									<parameter authoringApp="PremierePro">
										<parameterid>pan</parameterid>
										<name>Pan</name>
										<valuemin>-1</valuemin>
										<valuemax>1</valuemax>
										<value>0</value>
									</parameter>
								</effect>
							</filter>
						<link>
							<linkclipref>clipitem-1705</linkclipref>
							<mediatype>audio</mediatype>
							<trackindex>14</trackindex>
							<clipindex>3</clipindex>
							<groupindex>1</groupindex>
						</link>
						<link>
							<linkclipref>clipitem-1711</linkclipref>
							<mediatype>audio</mediatype>
							<trackindex>15</trackindex>
							<clipindex>3</clipindex>
							<groupindex>1</groupindex>
						</link>
						<logginginfo>
							<description></description>
							<scene></scene>
							<shottake></shottake>
							<lognote></lognote>
						</logginginfo>
						<labels>
							<label2>Iris</label2>
						</labels>
					</clipitem>
					<clipitem id="clipitem-1712" frameBlend="FALSE" PannerCurrentValue="0.5" PannerKeyframes="" PannerStartKeyframe="-91445760000000000,0.5,0,0,0,0,0,0" PannerIsInverted="true" PannerName="Balance">
						<masterclipid>masterclip-296</masterclipid>
						<name>Vignett stereo.wav</name>
						<enabled>TRUE</enabled>
						<duration>49</duration>
						<rate>
							<timebase>25</timebase>
							<ntsc>FALSE</ntsc>
						</rate>
						<start>39786</start>
						<end>39827</end>
						<in>8</in>
						<out>49</out>
						<file id="file-269"/>
						<sourcetrack>
							<mediatype>audio</mediatype>
							<trackindex>2</trackindex>
						</sourcetrack>
							<filter>
								<effect>
									<name>Audio Pan</name>
									<effectid>audiopan</effectid>
									<effectcategory>audiopan</effectcategory>
									<effecttype>audiopan</effecttype>
									<mediatype>audio</mediatype>
									<parameter authoringApp="PremierePro">
										<parameterid>pan</parameterid>
										<name>Pan</name>
										<valuemin>-1</valuemin>
										<valuemax>1</valuemax>
										<value>0</value>
									</parameter>
								</effect>
							</filter>
						<link>
							<linkclipref>clipitem-1706</linkclipref>
							<mediatype>audio</mediatype>
							<trackindex>14</trackindex>
							<clipindex>4</clipindex>
							<groupindex>1</groupindex>
						</link>
						<link>
							<linkclipref>clipitem-1712</linkclipref>
							<mediatype>audio</mediatype>
							<trackindex>15</trackindex>
							<clipindex>4</clipindex>
							<groupindex>1</groupindex>
						</link>
						<logginginfo>
							<description></description>
							<scene></scene>
							<shottake></shottake>
							<lognote></lognote>
						</logginginfo>
						<labels>
							<label2>Caribbean</label2>
						</labels>
					</clipitem>
					<clipitem id="clipitem-1713" frameBlend="FALSE" PannerCurrentValue="0.5" PannerKeyframes="" PannerStartKeyframe="-91445760000000000,0.5,0,0,0,0,0,0" PannerIsInverted="true" PannerName="Balance">
						<masterclipid>masterclip-297</masterclipid>
						<name>Sch_ktt_avslutning4.wav</name>
						<enabled>TRUE</enabled>
						<duration>1543</duration>
						<rate>
							<timebase>25</timebase>
							<ntsc>FALSE</ntsc>
						</rate>
						<start>42935</start>
						<end>43070</end>
						<in>732</in>
						<out>867</out>
						<file id="file-270"/>
						<sourcetrack>
							<mediatype>audio</mediatype>
							<trackindex>2</trackindex>
						</sourcetrack>
							<filter>
								<effect>
									<name>Audio Levels</name>
									<effectid>audiolevels</effectid>
									<effectcategory>audiolevels</effectcategory>
									<effecttype>audiolevels</effecttype>
									<mediatype>audio</mediatype>
									<parameter authoringApp="PremierePro">
										<parameterid>level</parameterid>
										<name>Level</name>
										<valuemin>0</valuemin>
										<valuemax>3.98109</valuemax>
										<value>0.461324</value>
									</parameter>
								</effect>
							</filter>
							<filter>
								<effect>
									<name>Audio Pan</name>
									<effectid>audiopan</effectid>
									<effectcategory>audiopan</effectcategory>
									<effecttype>audiopan</effecttype>
									<mediatype>audio</mediatype>
									<parameter authoringApp="PremierePro">
										<parameterid>pan</parameterid>
										<name>Pan</name>
										<valuemin>-1</valuemin>
										<valuemax>1</valuemax>
										<value>0</value>
									</parameter>
								</effect>
							</filter>
						<link>
							<linkclipref>clipitem-1707</linkclipref>
							<mediatype>audio</mediatype>
							<trackindex>14</trackindex>
							<clipindex>5</clipindex>
							<groupindex>1</groupindex>
						</link>
						<link>
							<linkclipref>clipitem-1713</linkclipref>
							<mediatype>audio</mediatype>
							<trackindex>15</trackindex>
							<clipindex>5</clipindex>
							<groupindex>1</groupindex>
						</link>
						<logginginfo>
							<description></description>
							<scene></scene>
							<shottake></shottake>
							<lognote>r8brain PRO NormGain: -1.45 dB</lognote>
						</logginginfo>
						<labels>
							<label2>Caribbean</label2>
						</labels>
					</clipitem>
					<clipitem id="clipitem-1714" frameBlend="FALSE" PannerCurrentValue="0.5" PannerKeyframes="" PannerStartKeyframe="-91445760000000000,0.5,0,0,0,0,0,0" PannerIsInverted="true" PannerName="Balance">
						<masterclipid>masterclip-297</masterclipid>
						<name>Sch_ktt_avslutning4.wav</name>
						<enabled>TRUE</enabled>
						<duration>1543</duration>
						<rate>
							<timebase>25</timebase>
							<ntsc>FALSE</ntsc>
						</rate>
						<start>43070</start>
						<end>43159</end>
						<in>867</in>
						<out>956</out>
						<file id="file-270"/>
						<sourcetrack>
							<mediatype>audio</mediatype>
							<trackindex>2</trackindex>
						</sourcetrack>
							<filter>
								<effect>
									<name>Audio Levels</name>
									<effectid>audiolevels</effectid>
									<effectcategory>audiolevels</effectcategory>
									<effecttype>audiolevels</effecttype>
									<mediatype>audio</mediatype>
									<parameter authoringApp="PremierePro">
										<parameterid>level</parameterid>
										<name>Level</name>
										<valuemin>0</valuemin>
										<valuemax>3.98109</valuemax>
										<value>0.461324</value>
									</parameter>
								</effect>
							</filter>
							<filter>
								<effect>
									<name>Audio Pan</name>
									<effectid>audiopan</effectid>
									<effectcategory>audiopan</effectcategory>
									<effecttype>audiopan</effecttype>
									<mediatype>audio</mediatype>
									<parameter authoringApp="PremierePro">
										<parameterid>pan</parameterid>
										<name>Pan</name>
										<valuemin>-1</valuemin>
										<valuemax>1</valuemax>
										<value>0</value>
									</parameter>
								</effect>
							</filter>
						<link>
							<linkclipref>clipitem-1708</linkclipref>
							<mediatype>audio</mediatype>
							<trackindex>14</trackindex>
							<clipindex>6</clipindex>
							<groupindex>1</groupindex>
						</link>
						<link>
							<linkclipref>clipitem-1714</linkclipref>
							<mediatype>audio</mediatype>
							<trackindex>15</trackindex>
							<clipindex>6</clipindex>
							<groupindex>1</groupindex>
						</link>
						<logginginfo>
							<description></description>
							<scene></scene>
							<shottake></shottake>
							<lognote>r8brain PRO NormGain: -1.45 dB</lognote>
						</logginginfo>
						<labels>
							<label2>Caribbean</label2>
						</labels>
					</clipitem>
					<clipitem id="clipitem-1715" frameBlend="FALSE" PannerCurrentValue="0.5" PannerKeyframes="" PannerStartKeyframe="-91445760000000000,0.5,0,0,0,0,0,0" PannerIsInverted="true" PannerName="Balance">
						<masterclipid>masterclip-297</masterclipid>
						<name>Sch_ktt_avslutning4.wav</name>
						<enabled>TRUE</enabled>
						<duration>1543</duration>
						<rate>
							<timebase>25</timebase>
							<ntsc>FALSE</ntsc>
						</rate>
						<start>43159</start>
						<end>43342</end>
						<in>1168</in>
						<out>1351</out>
						<file id="file-270"/>
						<sourcetrack>
							<mediatype>audio</mediatype>
							<trackindex>2</trackindex>
						</sourcetrack>
							<filter>
								<effect>
									<name>Audio Levels</name>
									<effectid>audiolevels</effectid>
									<effectcategory>audiolevels</effectcategory>
									<effecttype>audiolevels</effecttype>
									<mediatype>audio</mediatype>
									<parameter authoringApp="PremierePro">
										<parameterid>level</parameterid>
										<name>Level</name>
										<valuemin>0</valuemin>
										<valuemax>3.98109</valuemax>
										<value>0.461324</value>
									</parameter>
								</effect>
							</filter>
							<filter>
								<effect>
									<name>Audio Pan</name>
									<effectid>audiopan</effectid>
									<effectcategory>audiopan</effectcategory>
									<effecttype>audiopan</effecttype>
									<mediatype>audio</mediatype>
									<parameter authoringApp="PremierePro">
										<parameterid>pan</parameterid>
										<name>Pan</name>
										<valuemin>-1</valuemin>
										<valuemax>1</valuemax>
										<value>0</value>
									</parameter>
								</effect>
							</filter>
						<link>
							<linkclipref>clipitem-1709</linkclipref>
							<mediatype>audio</mediatype>
							<trackindex>14</trackindex>
							<clipindex>7</clipindex>
							<groupindex>1</groupindex>
						</link>
						<link>
							<linkclipref>clipitem-1715</linkclipref>
							<mediatype>audio</mediatype>
							<trackindex>15</trackindex>
							<clipindex>7</clipindex>
							<groupindex>1</groupindex>
						</link>
						<logginginfo>
							<description></description>
							<scene></scene>
							<shottake></shottake>
							<lognote>r8brain PRO NormGain: -1.45 dB</lognote>
						</logginginfo>
						<labels>
							<label2>Caribbean</label2>
						</labels>
					</clipitem>
					<enabled>TRUE</enabled>
					<locked>FALSE</locked>
					<outputchannelindex>2</outputchannelindex>
				</track>
				<track monotrack="TRUE" TL.SQTrackAudioKeyframeStyle="0" TL.SQTrackShy="0" TL.SQTrackExpandedHeight="65" TL.SQTrackExpanded="1" MZ.TrackTargeted="0" MZ.TrackName="Kom mono" PannerCurrentValue="0.5" PannerIsInverted="true" PannerStartKeyframe="-91445760000000000,0.5,0,0,0,0,0,0" PannerName="Pan" currentExplodedTrackIndex="0" totalExplodedTrackCount="2" premiereTrackType="Mono">
					<clipitem id="clipitem-1716" frameBlend="FALSE">
						<masterclipid>masterclip-298</masterclipid>
						<name>Kommentar_7.wav</name>
						<enabled>TRUE</enabled>
						<duration>4596</duration>
						<rate>
							<timebase>25</timebase>
							<ntsc>FALSE</ntsc>
						</rate>
						<start>2079</start>
						<end>2360</end>
						<in>71</in>
						<out>352</out>
						<file id="file-271">
							<name>Kommentar_7.wav</name>
							<pathurl>file://localhost/Volumes/Brakka/AdobeLager/Katta/Katta-14xxxx-Smart_eller_overvaaket-Chris/03-Lyd/VO/Kommentar_7.wav</pathurl>
							<rate>
								<timebase>30</timebase>
								<ntsc>TRUE</ntsc>
							</rate>
							<duration>5509</duration>
							<timecode>
								<rate>
									<timebase>30</timebase>
									<ntsc>TRUE</ntsc>
								</rate>
								<string>00;00;00;00</string>
								<frame>0</frame>
								<displayformat>DF</displayformat>
								<reel>
									<name></name>
								</reel>
							</timecode>
							<media>
								<audio>
									<samplecharacteristics>
										<depth>16</depth>
										<samplerate>48000</samplerate>
									</samplecharacteristics>
									<channelcount>2</channelcount>
								</audio>
							</media>
						</file>
						<sourcetrack>
							<mediatype>audio</mediatype>
							<trackindex>1</trackindex>
						</sourcetrack>
							<filter>
								<effect>
									<name>Audio Levels</name>
									<effectid>audiolevels</effectid>
									<effectcategory>audiolevels</effectcategory>
									<effecttype>audiolevels</effecttype>
									<mediatype>audio</mediatype>
									<parameter authoringApp="PremierePro">
										<parameterid>level</parameterid>
										<name>Level</name>
										<valuemin>0</valuemin>
										<valuemax>3.98109</valuemax>
										<value>1.11936</value>
									</parameter>
								</effect>
							</filter>
						<logginginfo>
							<description></description>
							<scene></scene>
							<shottake></shottake>
							<lognote></lognote>
						</logginginfo>
						<labels>
							<label2>Caribbean</label2>
						</labels>
					</clipitem>
					<clipitem id="clipitem-1717" frameBlend="FALSE">
						<masterclipid>masterclip-298</masterclipid>
						<name>Kommentar_7.wav</name>
						<enabled>TRUE</enabled>
						<duration>4596</duration>
						<rate>
							<timebase>25</timebase>
							<ntsc>FALSE</ntsc>
						</rate>
						<start>3438</start>
						<end>3787</end>
						<in>1472</in>
						<out>1821</out>
						<file id="file-271"/>
						<sourcetrack>
							<mediatype>audio</mediatype>
							<trackindex>1</trackindex>
						</sourcetrack>
							<filter>
								<effect>
									<name>Audio Levels</name>
									<effectid>audiolevels</effectid>
									<effectcategory>audiolevels</effectcategory>
									<effecttype>audiolevels</effecttype>
									<mediatype>audio</mediatype>
									<parameter authoringApp="PremierePro">
										<parameterid>level</parameterid>
										<name>Level</name>
										<valuemin>0</valuemin>
										<valuemax>3.98109</valuemax>
										<value>1.11936</value>
									</parameter>
								</effect>
							</filter>
						<logginginfo>
							<description></description>
							<scene></scene>
							<shottake></shottake>
							<lognote></lognote>
						</logginginfo>
						<labels>
							<label2>Caribbean</label2>
						</labels>
					</clipitem>
					<clipitem id="clipitem-1718" frameBlend="FALSE">
						<masterclipid>masterclip-298</masterclipid>
						<name>Kommentar_7.wav</name>
						<enabled>TRUE</enabled>
						<duration>4596</duration>
						<rate>
							<timebase>25</timebase>
							<ntsc>FALSE</ntsc>
						</rate>
						<start>5294</start>
						<end>5540</end>
						<in>3431</in>
						<out>3677</out>
						<file id="file-271"/>
						<sourcetrack>
							<mediatype>audio</mediatype>
							<trackindex>1</trackindex>
						</sourcetrack>
							<filter>
								<effect>
									<name>Audio Levels</name>
									<effectid>audiolevels</effectid>
									<effectcategory>audiolevels</effectcategory>
									<effecttype>audiolevels</effecttype>
									<mediatype>audio</mediatype>
									<parameter authoringApp="PremierePro">
										<parameterid>level</parameterid>
										<name>Level</name>
										<valuemin>0</valuemin>
										<valuemax>3.98109</valuemax>
										<value>1.11936</value>
									</parameter>
								</effect>
							</filter>
						<logginginfo>
							<description></description>
							<scene></scene>
							<shottake></shottake>
							<lognote></lognote>
						</logginginfo>
						<labels>
							<label2>Caribbean</label2>
						</labels>
					</clipitem>
					<clipitem id="clipitem-1719" frameBlend="FALSE">
						<masterclipid>masterclip-299</masterclipid>
						<name>Kommentar_8.wav</name>
						<enabled>TRUE</enabled>
						<duration>3174</duration>
						<rate>
							<timebase>25</timebase>
							<ntsc>FALSE</ntsc>
						</rate>
						<start>5876</start>
						<end>6096</end>
						<in>8</in>
						<out>228</out>
						<file id="file-272">
							<name>Kommentar_8.wav</name>
							<pathurl>file://localhost/Volumes/Brakka/AdobeLager/Katta/Katta-14xxxx-Smart_eller_overvaaket-Chris/03-Lyd/VO/Kommentar_8.wav</pathurl>
							<rate>
								<timebase>30</timebase>
								<ntsc>TRUE</ntsc>
							</rate>
							<duration>3804</duration>
							<timecode>
								<rate>
									<timebase>30</timebase>
									<ntsc>TRUE</ntsc>
								</rate>
								<string>00;00;00;00</string>
								<frame>0</frame>
								<displayformat>DF</displayformat>
								<reel>
									<name></name>
								</reel>
							</timecode>
							<media>
								<audio>
									<samplecharacteristics>
										<depth>16</depth>
										<samplerate>48000</samplerate>
									</samplecharacteristics>
									<channelcount>2</channelcount>
								</audio>
							</media>
						</file>
						<sourcetrack>
							<mediatype>audio</mediatype>
							<trackindex>1</trackindex>
						</sourcetrack>
						<logginginfo>
							<description></description>
							<scene></scene>
							<shottake></shottake>
							<lognote></lognote>
						</logginginfo>
						<labels>
							<label2>Caribbean</label2>
						</labels>
					</clipitem>
					<clipitem id="clipitem-1720" frameBlend="FALSE">
						<masterclipid>masterclip-299</masterclipid>
						<name>Kommentar_8.wav</name>
						<enabled>TRUE</enabled>
						<duration>3174</duration>
						<rate>
							<timebase>25</timebase>
							<ntsc>FALSE</ntsc>
						</rate>
						<start>7055</start>
						<end>7065</end>
						<in>1206</in>
						<out>1216</out>
						<file id="file-272"/>
						<sourcetrack>
							<mediatype>audio</mediatype>
							<trackindex>1</trackindex>
						</sourcetrack>
							<filter>
								<effect>
									<name>Audio Levels</name>
									<effectid>audiolevels</effectid>
									<effectcategory>audiolevels</effectcategory>
									<effecttype>audiolevels</effecttype>
									<mediatype>audio</mediatype>
									<parameter authoringApp="PremierePro">
										<parameterid>level</parameterid>
										<name>Level</name>
										<valuemin>0</valuemin>
										<valuemax>3.98109</valuemax>
										<value>0.870273</value>
									</parameter>
								</effect>
							</filter>
						<logginginfo>
							<description></description>
							<scene></scene>
							<shottake></shottake>
							<lognote></lognote>
						</logginginfo>
						<labels>
							<label2>Caribbean</label2>
						</labels>
					</clipitem>
					<clipitem id="clipitem-1721" frameBlend="FALSE">
						<masterclipid>masterclip-299</masterclipid>
						<name>Kommentar_8.wav</name>
						<enabled>TRUE</enabled>
						<duration>3174</duration>
						<rate>
							<timebase>25</timebase>
							<ntsc>FALSE</ntsc>
						</rate>
						<start>7065</start>
						<end>7219</end>
						<in>1218</in>
						<out>1372</out>
						<file id="file-272"/>
						<sourcetrack>
							<mediatype>audio</mediatype>
							<trackindex>1</trackindex>
						</sourcetrack>
							<filter>
								<effect>
									<name>Audio Levels</name>
									<effectid>audiolevels</effectid>
									<effectcategory>audiolevels</effectcategory>
									<effecttype>audiolevels</effecttype>
									<mediatype>audio</mediatype>
									<parameter authoringApp="PremierePro">
										<parameterid>level</parameterid>
										<name>Level</name>
										<valuemin>0</valuemin>
										<valuemax>3.98109</valuemax>
										<value>0.870273</value>
									</parameter>
								</effect>
							</filter>
						<logginginfo>
							<description></description>
							<scene></scene>
							<shottake></shottake>
							<lognote></lognote>
						</logginginfo>
						<labels>
							<label2>Caribbean</label2>
						</labels>
					</clipitem>
					<clipitem id="clipitem-1722" frameBlend="FALSE">
						<masterclipid>masterclip-300</masterclipid>
						<name>Kommentar_9.wav</name>
						<enabled>TRUE</enabled>
						<duration>773</duration>
						<rate>
							<timebase>25</timebase>
							<ntsc>FALSE</ntsc>
						</rate>
						<start>8631</start>
						<end>8972</end>
						<in>8</in>
						<out>349</out>
						<file id="file-273">
							<name>Kommentar_9.wav</name>
							<pathurl>file://localhost/Volumes/Brakka/AdobeLager/Katta/Katta-14xxxx-Smart_eller_overvaaket-Chris/03-Lyd/VO/Kommentar_9.wav</pathurl>
							<rate>
								<timebase>30</timebase>
								<ntsc>TRUE</ntsc>
							</rate>
							<duration>926</duration>
							<timecode>
								<rate>
									<timebase>30</timebase>
									<ntsc>TRUE</ntsc>
								</rate>
								<string>00;00;00;00</string>
								<frame>0</frame>
								<displayformat>DF</displayformat>
								<reel>
									<name></name>
								</reel>
							</timecode>
							<media>
								<audio>
									<samplecharacteristics>
										<depth>16</depth>
										<samplerate>48000</samplerate>
									</samplecharacteristics>
									<channelcount>2</channelcount>
								</audio>
							</media>
						</file>
						<sourcetrack>
							<mediatype>audio</mediatype>
							<trackindex>1</trackindex>
						</sourcetrack>
						<logginginfo>
							<description></description>
							<scene></scene>
							<shottake></shottake>
							<lognote></lognote>
						</logginginfo>
						<labels>
							<label2>Caribbean</label2>
						</labels>
					</clipitem>
					<clipitem id="clipitem-1723" frameBlend="FALSE">
						<masterclipid>masterclip-301</masterclipid>
						<name>Kommentar_3.wav</name>
						<enabled>TRUE</enabled>
						<duration>720</duration>
						<rate>
							<timebase>25</timebase>
							<ntsc>FALSE</ntsc>
						</rate>
						<start>11213</start>
						<end>11887</end>
						<in>25</in>
						<out>699</out>
						<file id="file-274">
							<name>Kommentar_3.wav</name>
							<pathurl>file://localhost/Volumes/Brakka/AdobeLager/Katta/Katta-14xxxx-Smart_eller_overvaaket-Chris/03-Lyd/VO/Kommentar_3.wav</pathurl>
							<rate>
								<timebase>30</timebase>
								<ntsc>TRUE</ntsc>
							</rate>
							<duration>863</duration>
							<timecode>
								<rate>
									<timebase>30</timebase>
									<ntsc>TRUE</ntsc>
								</rate>
								<string>00;00;00;00</string>
								<frame>0</frame>
								<displayformat>DF</displayformat>
								<reel>
									<name></name>
								</reel>
							</timecode>
							<media>
								<audio>
									<samplecharacteristics>
										<depth>16</depth>
										<samplerate>48000</samplerate>
									</samplecharacteristics>
									<channelcount>2</channelcount>
								</audio>
							</media>
						</file>
						<sourcetrack>
							<mediatype>audio</mediatype>
							<trackindex>1</trackindex>
						</sourcetrack>
						<logginginfo>
							<description></description>
							<scene></scene>
							<shottake></shottake>
							<lognote></lognote>
						</logginginfo>
						<labels>
							<label2>Caribbean</label2>
						</labels>
					</clipitem>
					<clipitem id="clipitem-1724" frameBlend="FALSE">
						<masterclipid>masterclip-302</masterclipid>
						<name>Kommentar_4.wav</name>
						<enabled>TRUE</enabled>
						<duration>588</duration>
						<rate>
							<timebase>25</timebase>
							<ntsc>FALSE</ntsc>
						</rate>
						<start>12094</start>
						<end>12488</end>
						<in>8</in>
						<out>402</out>
						<file id="file-275">
							<name>Kommentar_4.wav</name>
							<pathurl>file://localhost/Volumes/Brakka/AdobeLager/Katta/Katta-14xxxx-Smart_eller_overvaaket-Chris/03-Lyd/VO/Kommentar_4.wav</pathurl>
							<rate>
								<timebase>30</timebase>
								<ntsc>TRUE</ntsc>
							</rate>
							<duration>704</duration>
							<timecode>
								<rate>
									<timebase>30</timebase>
									<ntsc>TRUE</ntsc>
								</rate>
								<string>00;00;00;00</string>
								<frame>0</frame>
								<displayformat>DF</displayformat>
								<reel>
									<name></name>
								</reel>
							</timecode>
							<media>
								<audio>
									<samplecharacteristics>
										<depth>16</depth>
										<samplerate>48000</samplerate>
									</samplecharacteristics>
									<channelcount>2</channelcount>
								</audio>
							</media>
						</file>
						<sourcetrack>
							<mediatype>audio</mediatype>
							<trackindex>1</trackindex>
						</sourcetrack>
							<filter>
								<effect>
									<name>Audio Levels</name>
									<effectid>audiolevels</effectid>
									<effectcategory>audiolevels</effectcategory>
									<effecttype>audiolevels</effecttype>
									<mediatype>audio</mediatype>
									<parameter authoringApp="PremierePro">
										<parameterid>level</parameterid>
										<name>Level</name>
										<valuemin>0</valuemin>
										<valuemax>3.98109</valuemax>
										<value>1.11936</value>
									</parameter>
								</effect>
							</filter>
						<logginginfo>
							<description></description>
							<scene></scene>
							<shottake></shottake>
							<lognote></lognote>
						</logginginfo>
						<labels>
							<label2>Caribbean</label2>
						</labels>
					</clipitem>
					<clipitem id="clipitem-1725" frameBlend="FALSE">
						<masterclipid>masterclip-303</masterclipid>
						<name>Kommentar_12.wav</name>
						<enabled>TRUE</enabled>
						<duration>1869</duration>
						<rate>
							<timebase>25</timebase>
							<ntsc>FALSE</ntsc>
						</rate>
						<start>12847</start>
						<end>13373</end>
						<in>8</in>
						<out>534</out>
						<file id="file-276">
							<name>Kommentar_12.wav</name>
							<pathurl>file://localhost/Volumes/Brakka/AdobeLager/Katta/Katta-14xxxx-Smart_eller_overvaaket-Chris/03-Lyd/VO/Kommentar_12.wav</pathurl>
							<rate>
								<timebase>30</timebase>
								<ntsc>TRUE</ntsc>
							</rate>
							<duration>2240</duration>
							<timecode>
								<rate>
									<timebase>30</timebase>
									<ntsc>TRUE</ntsc>
								</rate>
								<string>00;00;00;00</string>
								<frame>0</frame>
								<displayformat>DF</displayformat>
								<reel>
									<name></name>
								</reel>
							</timecode>
							<media>
								<audio>
									<samplecharacteristics>
										<depth>16</depth>
										<samplerate>48000</samplerate>
									</samplecharacteristics>
									<channelcount>2</channelcount>
								</audio>
							</media>
						</file>
						<sourcetrack>
							<mediatype>audio</mediatype>
							<trackindex>1</trackindex>
						</sourcetrack>
						<logginginfo>
							<description></description>
							<scene></scene>
							<shottake></shottake>
							<lognote></lognote>
						</logginginfo>
						<labels>
							<label2>Caribbean</label2>
						</labels>
					</clipitem>
					<clipitem id="clipitem-1726" frameBlend="FALSE">
						<masterclipid>masterclip-304</masterclipid>
						<name>Kommentar_14.wav</name>
						<enabled>TRUE</enabled>
						<duration>2729</duration>
						<rate>
							<timebase>25</timebase>
							<ntsc>FALSE</ntsc>
						</rate>
						<start>14370</start>
						<end>14641</end>
						<in>8</in>
						<out>279</out>
						<file id="file-277">
							<name>Kommentar_14.wav</name>
							<pathurl>file://localhost/Volumes/Brakka/AdobeLager/Katta/Katta-14xxxx-Smart_eller_overvaaket-Chris/03-Lyd/VO/Kommentar_14.wav</pathurl>
							<rate>
								<timebase>30</timebase>
								<ntsc>TRUE</ntsc>
							</rate>
							<duration>3271</duration>
							<timecode>
								<rate>
									<timebase>30</timebase>
									<ntsc>TRUE</ntsc>
								</rate>
								<string>00;00;00;00</string>
								<frame>0</frame>
								<displayformat>DF</displayformat>
								<reel>
									<name></name>
								</reel>
							</timecode>
							<media>
								<audio>
									<samplecharacteristics>
										<depth>16</depth>
										<samplerate>48000</samplerate>
									</samplecharacteristics>
									<channelcount>2</channelcount>
								</audio>
							</media>
						</file>
						<sourcetrack>
							<mediatype>audio</mediatype>
							<trackindex>1</trackindex>
						</sourcetrack>
							<filter>
								<effect>
									<name>Audio Levels</name>
									<effectid>audiolevels</effectid>
									<effectcategory>audiolevels</effectcategory>
									<effecttype>audiolevels</effecttype>
									<mediatype>audio</mediatype>
									<parameter authoringApp="PremierePro">
										<parameterid>level</parameterid>
										<name>Level</name>
										<valuemin>0</valuemin>
										<valuemax>3.98109</valuemax>
										<value>1.11936</value>
									</parameter>
								</effect>
							</filter>
						<logginginfo>
							<description></description>
							<scene></scene>
							<shottake></shottake>
							<lognote></lognote>
						</logginginfo>
						<labels>
							<label2>Caribbean</label2>
						</labels>
					</clipitem>
					<clipitem id="clipitem-1727" frameBlend="FALSE">
						<masterclipid>masterclip-304</masterclipid>
						<name>Kommentar_14.wav</name>
						<enabled>TRUE</enabled>
						<duration>2729</duration>
						<rate>
							<timebase>25</timebase>
							<ntsc>FALSE</ntsc>
						</rate>
						<start>15935</start>
						<end>16133</end>
						<in>1598</in>
						<out>1796</out>
						<file id="file-277"/>
						<sourcetrack>
							<mediatype>audio</mediatype>
							<trackindex>1</trackindex>
						</sourcetrack>
							<filter>
								<effect>
									<name>Audio Levels</name>
									<effectid>audiolevels</effectid>
									<effectcategory>audiolevels</effectcategory>
									<effecttype>audiolevels</effecttype>
									<mediatype>audio</mediatype>
									<parameter authoringApp="PremierePro">
										<parameterid>level</parameterid>
										<name>Level</name>
										<valuemin>0</valuemin>
										<valuemax>3.98109</valuemax>
										<value>1.25234</value>
									</parameter>
								</effect>
							</filter>
						<logginginfo>
							<description></description>
							<scene></scene>
							<shottake></shottake>
							<lognote></lognote>
						</logginginfo>
						<labels>
							<label2>Caribbean</label2>
						</labels>
					</clipitem>
					<clipitem id="clipitem-1728" frameBlend="FALSE">
						<masterclipid>masterclip-305</masterclipid>
						<name>Kommentar_17.wav</name>
						<enabled>TRUE</enabled>
						<duration>429</duration>
						<rate>
							<timebase>25</timebase>
							<ntsc>FALSE</ntsc>
						</rate>
						<start>16770</start>
						<end>17065</end>
						<in>8</in>
						<out>303</out>
						<file id="file-278">
							<name>Kommentar_17.wav</name>
							<pathurl>file://localhost/Volumes/Brakka/AdobeLager/Katta/Katta-14xxxx-Smart_eller_overvaaket-Chris/03-Lyd/VO/Kommentar_17.wav</pathurl>
							<rate>
								<timebase>30</timebase>
								<ntsc>TRUE</ntsc>
							</rate>
							<duration>514</duration>
							<timecode>
								<rate>
									<timebase>30</timebase>
									<ntsc>TRUE</ntsc>
								</rate>
								<string>00;00;00;00</string>
								<frame>0</frame>
								<displayformat>DF</displayformat>
								<reel>
									<name></name>
								</reel>
							</timecode>
							<media>
								<audio>
									<samplecharacteristics>
										<depth>16</depth>
										<samplerate>48000</samplerate>
									</samplecharacteristics>
									<channelcount>2</channelcount>
								</audio>
							</media>
						</file>
						<sourcetrack>
							<mediatype>audio</mediatype>
							<trackindex>1</trackindex>
						</sourcetrack>
						<logginginfo>
							<description></description>
							<scene></scene>
							<shottake></shottake>
							<lognote></lognote>
						</logginginfo>
						<labels>
							<label2>Caribbean</label2>
						</labels>
					</clipitem>
					<clipitem id="clipitem-1729" frameBlend="FALSE">
						<masterclipid>masterclip-306</masterclipid>
						<name>Kommentar_19.wav</name>
						<enabled>TRUE</enabled>
						<duration>1321</duration>
						<rate>
							<timebase>25</timebase>
							<ntsc>FALSE</ntsc>
						</rate>
						<start>18246</start>
						<end>18485</end>
						<in>217</in>
						<out>456</out>
						<file id="file-279">
							<name>Kommentar_19.wav</name>
							<pathurl>file://localhost/Volumes/Brakka/AdobeLager/Katta/Katta-14xxxx-Smart_eller_overvaaket-Chris/03-Lyd/VO/Kommentar_19.wav</pathurl>
							<rate>
								<timebase>30</timebase>
								<ntsc>TRUE</ntsc>
							</rate>
							<duration>1583</duration>
							<timecode>
								<rate>
									<timebase>30</timebase>
									<ntsc>TRUE</ntsc>
								</rate>
								<string>00;00;00;00</string>
								<frame>0</frame>
								<displayformat>DF</displayformat>
								<reel>
									<name></name>
								</reel>
							</timecode>
							<media>
								<audio>
									<samplecharacteristics>
										<depth>16</depth>
										<samplerate>48000</samplerate>
									</samplecharacteristics>
									<channelcount>2</channelcount>
								</audio>
							</media>
						</file>
						<sourcetrack>
							<mediatype>audio</mediatype>
							<trackindex>1</trackindex>
						</sourcetrack>
						<logginginfo>
							<description></description>
							<scene></scene>
							<shottake></shottake>
							<lognote></lognote>
						</logginginfo>
						<labels>
							<label2>Caribbean</label2>
						</labels>
					</clipitem>
					<clipitem id="clipitem-1730" frameBlend="FALSE">
						<masterclipid>masterclip-306</masterclipid>
						<name>Kommentar_19.wav</name>
						<enabled>TRUE</enabled>
						<duration>1321</duration>
						<rate>
							<timebase>25</timebase>
							<ntsc>FALSE</ntsc>
						</rate>
						<start>18608</start>
						<end>18645</end>
						<in>671</in>
						<out>708</out>
						<file id="file-279"/>
						<sourcetrack>
							<mediatype>audio</mediatype>
							<trackindex>1</trackindex>
						</sourcetrack>
						<logginginfo>
							<description></description>
							<scene></scene>
							<shottake></shottake>
							<lognote></lognote>
						</logginginfo>
						<labels>
							<label2>Caribbean</label2>
						</labels>
					</clipitem>
					<clipitem id="clipitem-1731" frameBlend="FALSE">
						<masterclipid>masterclip-306</masterclipid>
						<name>Kommentar_19.wav</name>
						<enabled>TRUE</enabled>
						<duration>1321</duration>
						<rate>
							<timebase>25</timebase>
							<ntsc>FALSE</ntsc>
						</rate>
						<start>18645</start>
						<end>18811</end>
						<in>726</in>
						<out>892</out>
						<file id="file-279"/>
						<sourcetrack>
							<mediatype>audio</mediatype>
							<trackindex>1</trackindex>
						</sourcetrack>
						<logginginfo>
							<description></description>
							<scene></scene>
							<shottake></shottake>
							<lognote></lognote>
						</logginginfo>
						<labels>
							<label2>Caribbean</label2>
						</labels>
					</clipitem>
					<clipitem id="clipitem-1732" frameBlend="FALSE">
						<masterclipid>masterclip-306</masterclipid>
						<name>Kommentar_19.wav</name>
						<enabled>TRUE</enabled>
						<duration>1321</duration>
						<rate>
							<timebase>25</timebase>
							<ntsc>FALSE</ntsc>
						</rate>
						<start>18834</start>
						<end>19223</end>
						<in>932</in>
						<out>1321</out>
						<file id="file-279"/>
						<sourcetrack>
							<mediatype>audio</mediatype>
							<trackindex>1</trackindex>
						</sourcetrack>
						<logginginfo>
							<description></description>
							<scene></scene>
							<shottake></shottake>
							<lognote></lognote>
						</logginginfo>
						<labels>
							<label2>Caribbean</label2>
						</labels>
					</clipitem>
					<clipitem id="clipitem-1733" frameBlend="FALSE">
						<masterclipid>masterclip-307</masterclipid>
						<name>Kommentar_20.wav</name>
						<enabled>TRUE</enabled>
						<duration>1961</duration>
						<rate>
							<timebase>25</timebase>
							<ntsc>FALSE</ntsc>
						</rate>
						<start>21423</start>
						<end>21632</end>
						<in>472</in>
						<out>681</out>
						<file id="file-280">
							<name>Kommentar_20.wav</name>
							<pathurl>file://localhost/Volumes/Brakka/AdobeLager/Katta/Katta-14xxxx-Smart_eller_overvaaket-Chris/03-Lyd/VO/Kommentar_20.wav</pathurl>
							<rate>
								<timebase>30</timebase>
								<ntsc>TRUE</ntsc>
							</rate>
							<duration>2350</duration>
							<timecode>
								<rate>
									<timebase>30</timebase>
									<ntsc>TRUE</ntsc>
								</rate>
								<string>00;00;00;00</string>
								<frame>0</frame>
								<displayformat>DF</displayformat>
								<reel>
									<name></name>
								</reel>
							</timecode>
							<media>
								<audio>
									<samplecharacteristics>
										<depth>16</depth>
										<samplerate>48000</samplerate>
									</samplecharacteristics>
									<channelcount>2</channelcount>
								</audio>
							</media>
						</file>
						<sourcetrack>
							<mediatype>audio</mediatype>
							<trackindex>1</trackindex>
						</sourcetrack>
						<logginginfo>
							<description></description>
							<scene></scene>
							<shottake></shottake>
							<lognote></lognote>
						</logginginfo>
						<labels>
							<label2>Caribbean</label2>
						</labels>
					</clipitem>
					<clipitem id="clipitem-1734" frameBlend="FALSE">
						<masterclipid>masterclip-308</masterclipid>
						<name>Kommentar_21.wav</name>
						<enabled>TRUE</enabled>
						<duration>2519</duration>
						<rate>
							<timebase>25</timebase>
							<ntsc>FALSE</ntsc>
						</rate>
						<start>22602</start>
						<end>22865</end>
						<in>128</in>
						<out>391</out>
						<file id="file-281">
							<name>Kommentar_21.wav</name>
							<pathurl>file://localhost/Volumes/Brakka/AdobeLager/Katta/Katta-14xxxx-Smart_eller_overvaaket-Chris/03-Lyd/VO/Kommentar_21.wav</pathurl>
							<rate>
								<timebase>30</timebase>
								<ntsc>TRUE</ntsc>
							</rate>
							<duration>3019</duration>
							<timecode>
								<rate>
									<timebase>30</timebase>
									<ntsc>TRUE</ntsc>
								</rate>
								<string>00;00;00;00</string>
								<frame>0</frame>
								<displayformat>DF</displayformat>
								<reel>
									<name></name>
								</reel>
							</timecode>
							<media>
								<audio>
									<samplecharacteristics>
										<depth>16</depth>
										<samplerate>48000</samplerate>
									</samplecharacteristics>
									<channelcount>2</channelcount>
								</audio>
							</media>
						</file>
						<sourcetrack>
							<mediatype>audio</mediatype>
							<trackindex>1</trackindex>
						</sourcetrack>
							<filter>
								<effect>
									<name>Audio Levels</name>
									<effectid>audiolevels</effectid>
									<effectcategory>audiolevels</effectcategory>
									<effecttype>audiolevels</effecttype>
									<mediatype>audio</mediatype>
									<parameter authoringApp="PremierePro">
										<parameterid>level</parameterid>
										<name>Level</name>
										<valuemin>0</valuemin>
										<valuemax>3.98109</valuemax>
										<value>0.945805</value>
									</parameter>
								</effect>
							</filter>
						<logginginfo>
							<description></description>
							<scene></scene>
							<shottake></shottake>
							<lognote></lognote>
						</logginginfo>
						<labels>
							<label2>Caribbean</label2>
						</labels>
					</clipitem>
					<clipitem id="clipitem-1735" frameBlend="FALSE">
						<masterclipid>masterclip-309</masterclipid>
						<name>Kommentar_23.wav</name>
						<enabled>TRUE</enabled>
						<duration>2287</duration>
						<rate>
							<timebase>25</timebase>
							<ntsc>FALSE</ntsc>
						</rate>
						<start>29194</start>
						<end>29564</end>
						<in>94</in>
						<out>464</out>
						<file id="file-282">
							<name>Kommentar_23.wav</name>
							<pathurl>file://localhost/Volumes/Brakka/AdobeLager/Katta/Katta-14xxxx-Smart_eller_overvaaket-Chris/03-Lyd/VO/Kommentar_23.wav</pathurl>
							<rate>
								<timebase>30</timebase>
								<ntsc>TRUE</ntsc>
							</rate>
							<duration>2741</duration>
							<timecode>
								<rate>
									<timebase>30</timebase>
									<ntsc>TRUE</ntsc>
								</rate>
								<string>00;00;00;00</string>
								<frame>0</frame>
								<displayformat>DF</displayformat>
								<reel>
									<name></name>
								</reel>
							</timecode>
							<media>
								<audio>
									<samplecharacteristics>
										<depth>16</depth>
										<samplerate>48000</samplerate>
									</samplecharacteristics>
									<channelcount>2</channelcount>
								</audio>
							</media>
						</file>
						<sourcetrack>
							<mediatype>audio</mediatype>
							<trackindex>1</trackindex>
						</sourcetrack>
							<filter>
								<effect>
									<name>Audio Levels</name>
									<effectid>audiolevels</effectid>
									<effectcategory>audiolevels</effectcategory>
									<effecttype>audiolevels</effecttype>
									<mediatype>audio</mediatype>
									<parameter authoringApp="PremierePro">
										<parameterid>level</parameterid>
										<name>Level</name>
										<valuemin>0</valuemin>
										<valuemax>3.98109</valuemax>
										<value>0.955178</value>
									</parameter>
								</effect>
							</filter>
						<logginginfo>
							<description></description>
							<scene></scene>
							<shottake></shottake>
							<lognote></lognote>
						</logginginfo>
						<labels>
							<label2>Caribbean</label2>
						</labels>
					</clipitem>
					<clipitem id="clipitem-1736" frameBlend="FALSE">
						<masterclipid>masterclip-309</masterclipid>
						<name>Kommentar_23.wav</name>
						<enabled>TRUE</enabled>
						<duration>2287</duration>
						<rate>
							<timebase>25</timebase>
							<ntsc>FALSE</ntsc>
						</rate>
						<start>29564</start>
						<end>29630</end>
						<in>519</in>
						<out>585</out>
						<file id="file-282"/>
						<sourcetrack>
							<mediatype>audio</mediatype>
							<trackindex>1</trackindex>
						</sourcetrack>
						<logginginfo>
							<description></description>
							<scene></scene>
							<shottake></shottake>
							<lognote></lognote>
						</logginginfo>
						<labels>
							<label2>Caribbean</label2>
						</labels>
					</clipitem>
					<clipitem id="clipitem-1737" frameBlend="FALSE">
						<masterclipid>masterclip-309</masterclipid>
						<name>Kommentar_23.wav</name>
						<enabled>TRUE</enabled>
						<duration>2287</duration>
						<rate>
							<timebase>25</timebase>
							<ntsc>FALSE</ntsc>
						</rate>
						<start>29630</start>
						<end>29872</end>
						<in>682</in>
						<out>924</out>
						<file id="file-282"/>
						<sourcetrack>
							<mediatype>audio</mediatype>
							<trackindex>1</trackindex>
						</sourcetrack>
						<logginginfo>
							<description></description>
							<scene></scene>
							<shottake></shottake>
							<lognote></lognote>
						</logginginfo>
						<labels>
							<label2>Caribbean</label2>
						</labels>
					</clipitem>
					<clipitem id="clipitem-1738" frameBlend="FALSE">
						<masterclipid>masterclip-309</masterclipid>
						<name>Kommentar_23.wav</name>
						<enabled>TRUE</enabled>
						<duration>2287</duration>
						<rate>
							<timebase>25</timebase>
							<ntsc>FALSE</ntsc>
						</rate>
						<start>29872</start>
						<end>30232</end>
						<in>956</in>
						<out>1316</out>
						<file id="file-282"/>
						<sourcetrack>
							<mediatype>audio</mediatype>
							<trackindex>1</trackindex>
						</sourcetrack>
						<logginginfo>
							<description></description>
							<scene></scene>
							<shottake></shottake>
							<lognote></lognote>
						</logginginfo>
						<labels>
							<label2>Caribbean</label2>
						</labels>
					</clipitem>
					<clipitem id="clipitem-1739" frameBlend="FALSE">
						<masterclipid>masterclip-309</masterclipid>
						<name>Kommentar_23.wav</name>
						<enabled>TRUE</enabled>
						<duration>2287</duration>
						<rate>
							<timebase>25</timebase>
							<ntsc>FALSE</ntsc>
						</rate>
						<start>30232</start>
						<end>30366</end>
						<in>1361</in>
						<out>1495</out>
						<file id="file-282"/>
						<sourcetrack>
							<mediatype>audio</mediatype>
							<trackindex>1</trackindex>
						</sourcetrack>
						<logginginfo>
							<description></description>
							<scene></scene>
							<shottake></shottake>
							<lognote></lognote>
						</logginginfo>
						<labels>
							<label2>Caribbean</label2>
						</labels>
					</clipitem>
					<clipitem id="clipitem-1740" frameBlend="FALSE">
						<masterclipid>masterclip-310</masterclipid>
						<name>Kommentar_25.wav</name>
						<enabled>TRUE</enabled>
						<duration>945</duration>
						<rate>
							<timebase>25</timebase>
							<ntsc>FALSE</ntsc>
						</rate>
						<start>31258</start>
						<end>31579</end>
						<in>51</in>
						<out>372</out>
						<file id="file-283">
							<name>Kommentar_25.wav</name>
							<pathurl>file://localhost/Volumes/Brakka/AdobeLager/Katta/Katta-14xxxx-Smart_eller_overvaaket-Chris/03-Lyd/VO/Kommentar_25.wav</pathurl>
							<rate>
								<timebase>30</timebase>
								<ntsc>TRUE</ntsc>
							</rate>
							<duration>1132</duration>
							<timecode>
								<rate>
									<timebase>30</timebase>
									<ntsc>TRUE</ntsc>
								</rate>
								<string>00;00;00;00</string>
								<frame>0</frame>
								<displayformat>DF</displayformat>
								<reel>
									<name></name>
								</reel>
							</timecode>
							<media>
								<audio>
									<samplecharacteristics>
										<depth>16</depth>
										<samplerate>48000</samplerate>
									</samplecharacteristics>
									<channelcount>2</channelcount>
								</audio>
							</media>
						</file>
						<sourcetrack>
							<mediatype>audio</mediatype>
							<trackindex>1</trackindex>
						</sourcetrack>
						<logginginfo>
							<description></description>
							<scene></scene>
							<shottake></shottake>
							<lognote></lognote>
						</logginginfo>
						<labels>
							<label2>Caribbean</label2>
						</labels>
					</clipitem>
					<clipitem id="clipitem-1741" frameBlend="FALSE">
						<masterclipid>masterclip-311</masterclipid>
						<name>Kommentar_31.wav</name>
						<enabled>TRUE</enabled>
						<duration>1731</duration>
						<rate>
							<timebase>25</timebase>
							<ntsc>FALSE</ntsc>
						</rate>
						<start>33828</start>
						<end>34153</end>
						<in>8</in>
						<out>333</out>
						<file id="file-284">
							<name>Kommentar_31.wav</name>
							<pathurl>file://localhost/Volumes/Brakka/AdobeLager/Katta/Katta-14xxxx-Smart_eller_overvaaket-Chris/03-Lyd/VO/Kommentar_31.wav</pathurl>
							<rate>
								<timebase>30</timebase>
								<ntsc>TRUE</ntsc>
							</rate>
							<duration>2075</duration>
							<timecode>
								<rate>
									<timebase>30</timebase>
									<ntsc>TRUE</ntsc>
								</rate>
								<string>00;00;00;00</string>
								<frame>0</frame>
								<displayformat>DF</displayformat>
								<reel>
									<name></name>
								</reel>
							</timecode>
							<media>
								<audio>
									<samplecharacteristics>
										<depth>16</depth>
										<samplerate>48000</samplerate>
									</samplecharacteristics>
									<channelcount>2</channelcount>
								</audio>
							</media>
						</file>
						<sourcetrack>
							<mediatype>audio</mediatype>
							<trackindex>1</trackindex>
						</sourcetrack>
							<filter>
								<effect>
									<name>Audio Levels</name>
									<effectid>audiolevels</effectid>
									<effectcategory>audiolevels</effectcategory>
									<effecttype>audiolevels</effecttype>
									<mediatype>audio</mediatype>
									<parameter authoringApp="PremierePro">
										<parameterid>level</parameterid>
										<name>Level</name>
										<valuemin>0</valuemin>
										<valuemax>3.98109</valuemax>
										<value>1.25594</value>
									</parameter>
								</effect>
							</filter>
						<logginginfo>
							<description></description>
							<scene></scene>
							<shottake></shottake>
							<lognote></lognote>
						</logginginfo>
						<labels>
							<label2>Caribbean</label2>
						</labels>
					</clipitem>
					<clipitem id="clipitem-1742" frameBlend="FALSE">
						<masterclipid>masterclip-312</masterclipid>
						<name>Kommentar_32.wav</name>
						<enabled>TRUE</enabled>
						<duration>1171</duration>
						<rate>
							<timebase>25</timebase>
							<ntsc>FALSE</ntsc>
						</rate>
						<start>34786</start>
						<end>35774</end>
						<in>0</in>
						<out>988</out>
						<file id="file-285">
							<name>Kommentar_32.wav</name>
							<pathurl>file://localhost/Volumes/Brakka/AdobeLager/Katta/Katta-14xxxx-Smart_eller_overvaaket-Chris/03-Lyd/VO/Kommentar_32.wav</pathurl>
							<rate>
								<timebase>30</timebase>
								<ntsc>TRUE</ntsc>
							</rate>
							<duration>1403</duration>
							<timecode>
								<rate>
									<timebase>30</timebase>
									<ntsc>TRUE</ntsc>
								</rate>
								<string>00;00;00;00</string>
								<frame>0</frame>
								<displayformat>DF</displayformat>
								<reel>
									<name></name>
								</reel>
							</timecode>
							<media>
								<audio>
									<samplecharacteristics>
										<depth>16</depth>
										<samplerate>48000</samplerate>
									</samplecharacteristics>
									<channelcount>2</channelcount>
								</audio>
							</media>
						</file>
						<sourcetrack>
							<mediatype>audio</mediatype>
							<trackindex>1</trackindex>
						</sourcetrack>
						<logginginfo>
							<description></description>
							<scene></scene>
							<shottake></shottake>
							<lognote></lognote>
						</logginginfo>
						<labels>
							<label2>Caribbean</label2>
						</labels>
					</clipitem>
					<clipitem id="clipitem-1743" frameBlend="FALSE">
						<masterclipid>masterclip-313</masterclipid>
						<name>Kommentar_33.wav</name>
						<enabled>TRUE</enabled>
						<duration>3513</duration>
						<rate>
							<timebase>25</timebase>
							<ntsc>FALSE</ntsc>
						</rate>
						<start>38860</start>
						<end>39229</end>
						<in>2559</in>
						<out>2928</out>
						<file id="file-286">
							<name>Kommentar_33.wav</name>
							<pathurl>file://localhost/Volumes/Brakka/AdobeLager/Katta/Katta-14xxxx-Smart_eller_overvaaket-Chris/03-Lyd/VO/Kommentar_33.wav</pathurl>
							<rate>
								<timebase>30</timebase>
								<ntsc>TRUE</ntsc>
							</rate>
							<duration>4211</duration>
							<timecode>
								<rate>
									<timebase>30</timebase>
									<ntsc>TRUE</ntsc>
								</rate>
								<string>00;00;00;00</string>
								<frame>0</frame>
								<displayformat>DF</displayformat>
								<reel>
									<name></name>
								</reel>
							</timecode>
							<media>
								<audio>
									<samplecharacteristics>
										<depth>16</depth>
										<samplerate>48000</samplerate>
									</samplecharacteristics>
									<channelcount>2</channelcount>
								</audio>
							</media>
						</file>
						<sourcetrack>
							<mediatype>audio</mediatype>
							<trackindex>1</trackindex>
						</sourcetrack>
						<logginginfo>
							<description></description>
							<scene></scene>
							<shottake></shottake>
							<lognote></lognote>
						</logginginfo>
						<labels>
							<label2>Caribbean</label2>
						</labels>
					</clipitem>
					<enabled>TRUE</enabled>
					<locked>FALSE</locked>
					<outputchannelindex>1</outputchannelindex>
				</track>
				<track monotrack="TRUE" TL.SQTrackAudioKeyframeStyle="0" TL.SQTrackShy="0" TL.SQTrackExpandedHeight="65" TL.SQTrackExpanded="1" MZ.TrackTargeted="0" MZ.TrackName="Kom mono" PannerCurrentValue="0.5" PannerIsInverted="true" PannerStartKeyframe="-91445760000000000,0.5,0,0,0,0,0,0" PannerName="Pan" currentExplodedTrackIndex="1" totalExplodedTrackCount="2" premiereTrackType="Mono">
					<clipitem id="clipitem-1744" frameBlend="FALSE">
						<masterclipid>masterclip-298</masterclipid>
						<name>Kommentar_7.wav</name>
						<enabled>TRUE</enabled>
						<duration>4596</duration>
						<rate>
							<timebase>25</timebase>
							<ntsc>FALSE</ntsc>
						</rate>
						<start>2079</start>
						<end>2360</end>
						<in>71</in>
						<out>352</out>
						<file id="file-271"/>
						<sourcetrack>
							<mediatype>audio</mediatype>
							<trackindex>2</trackindex>
						</sourcetrack>
							<filter>
								<effect>
									<name>Audio Levels</name>
									<effectid>audiolevels</effectid>
									<effectcategory>audiolevels</effectcategory>
									<effecttype>audiolevels</effecttype>
									<mediatype>audio</mediatype>
									<parameter authoringApp="PremierePro">
										<parameterid>level</parameterid>
										<name>Level</name>
										<valuemin>0</valuemin>
										<valuemax>3.98109</valuemax>
										<value>1.11936</value>
									</parameter>
								</effect>
							</filter>
						<logginginfo>
							<description></description>
							<scene></scene>
							<shottake></shottake>
							<lognote></lognote>
						</logginginfo>
						<labels>
							<label2>Caribbean</label2>
						</labels>
					</clipitem>
					<clipitem id="clipitem-1745" frameBlend="FALSE">
						<masterclipid>masterclip-298</masterclipid>
						<name>Kommentar_7.wav</name>
						<enabled>TRUE</enabled>
						<duration>4596</duration>
						<rate>
							<timebase>25</timebase>
							<ntsc>FALSE</ntsc>
						</rate>
						<start>3438</start>
						<end>3787</end>
						<in>1472</in>
						<out>1821</out>
						<file id="file-271"/>
						<sourcetrack>
							<mediatype>audio</mediatype>
							<trackindex>2</trackindex>
						</sourcetrack>
							<filter>
								<effect>
									<name>Audio Levels</name>
									<effectid>audiolevels</effectid>
									<effectcategory>audiolevels</effectcategory>
									<effecttype>audiolevels</effecttype>
									<mediatype>audio</mediatype>
									<parameter authoringApp="PremierePro">
										<parameterid>level</parameterid>
										<name>Level</name>
										<valuemin>0</valuemin>
										<valuemax>3.98109</valuemax>
										<value>1.11936</value>
									</parameter>
								</effect>
							</filter>
						<logginginfo>
							<description></description>
							<scene></scene>
							<shottake></shottake>
							<lognote></lognote>
						</logginginfo>
						<labels>
							<label2>Caribbean</label2>
						</labels>
					</clipitem>
					<clipitem id="clipitem-1746" frameBlend="FALSE">
						<masterclipid>masterclip-298</masterclipid>
						<name>Kommentar_7.wav</name>
						<enabled>TRUE</enabled>
						<duration>4596</duration>
						<rate>
							<timebase>25</timebase>
							<ntsc>FALSE</ntsc>
						</rate>
						<start>5294</start>
						<end>5540</end>
						<in>3431</in>
						<out>3677</out>
						<file id="file-271"/>
						<sourcetrack>
							<mediatype>audio</mediatype>
							<trackindex>2</trackindex>
						</sourcetrack>
							<filter>
								<effect>
									<name>Audio Levels</name>
									<effectid>audiolevels</effectid>
									<effectcategory>audiolevels</effectcategory>
									<effecttype>audiolevels</effecttype>
									<mediatype>audio</mediatype>
									<parameter authoringApp="PremierePro">
										<parameterid>level</parameterid>
										<name>Level</name>
										<valuemin>0</valuemin>
										<valuemax>3.98109</valuemax>
										<value>1.11936</value>
									</parameter>
								</effect>
							</filter>
						<logginginfo>
							<description></description>
							<scene></scene>
							<shottake></shottake>
							<lognote></lognote>
						</logginginfo>
						<labels>
							<label2>Caribbean</label2>
						</labels>
					</clipitem>
					<clipitem id="clipitem-1747" frameBlend="FALSE">
						<masterclipid>masterclip-299</masterclipid>
						<name>Kommentar_8.wav</name>
						<enabled>TRUE</enabled>
						<duration>3174</duration>
						<rate>
							<timebase>25</timebase>
							<ntsc>FALSE</ntsc>
						</rate>
						<start>5876</start>
						<end>6096</end>
						<in>8</in>
						<out>228</out>
						<file id="file-272"/>
						<sourcetrack>
							<mediatype>audio</mediatype>
							<trackindex>2</trackindex>
						</sourcetrack>
						<logginginfo>
							<description></description>
							<scene></scene>
							<shottake></shottake>
							<lognote></lognote>
						</logginginfo>
						<labels>
							<label2>Caribbean</label2>
						</labels>
					</clipitem>
					<clipitem id="clipitem-1748" frameBlend="FALSE">
						<masterclipid>masterclip-299</masterclipid>
						<name>Kommentar_8.wav</name>
						<enabled>TRUE</enabled>
						<duration>3174</duration>
						<rate>
							<timebase>25</timebase>
							<ntsc>FALSE</ntsc>
						</rate>
						<start>7055</start>
						<end>7065</end>
						<in>1206</in>
						<out>1216</out>
						<file id="file-272"/>
						<sourcetrack>
							<mediatype>audio</mediatype>
							<trackindex>2</trackindex>
						</sourcetrack>
							<filter>
								<effect>
									<name>Audio Levels</name>
									<effectid>audiolevels</effectid>
									<effectcategory>audiolevels</effectcategory>
									<effecttype>audiolevels</effecttype>
									<mediatype>audio</mediatype>
									<parameter authoringApp="PremierePro">
										<parameterid>level</parameterid>
										<name>Level</name>
										<valuemin>0</valuemin>
										<valuemax>3.98109</valuemax>
										<value>0.870273</value>
									</parameter>
								</effect>
							</filter>
						<logginginfo>
							<description></description>
							<scene></scene>
							<shottake></shottake>
							<lognote></lognote>
						</logginginfo>
						<labels>
							<label2>Caribbean</label2>
						</labels>
					</clipitem>
					<clipitem id="clipitem-1749" frameBlend="FALSE">
						<masterclipid>masterclip-299</masterclipid>
						<name>Kommentar_8.wav</name>
						<enabled>TRUE</enabled>
						<duration>3174</duration>
						<rate>
							<timebase>25</timebase>
							<ntsc>FALSE</ntsc>
						</rate>
						<start>7065</start>
						<end>7219</end>
						<in>1218</in>
						<out>1372</out>
						<file id="file-272"/>
						<sourcetrack>
							<mediatype>audio</mediatype>
							<trackindex>2</trackindex>
						</sourcetrack>
							<filter>
								<effect>
									<name>Audio Levels</name>
									<effectid>audiolevels</effectid>
									<effectcategory>audiolevels</effectcategory>
									<effecttype>audiolevels</effecttype>
									<mediatype>audio</mediatype>
									<parameter authoringApp="PremierePro">
										<parameterid>level</parameterid>
										<name>Level</name>
										<valuemin>0</valuemin>
										<valuemax>3.98109</valuemax>
										<value>0.870273</value>
									</parameter>
								</effect>
							</filter>
						<logginginfo>
							<description></description>
							<scene></scene>
							<shottake></shottake>
							<lognote></lognote>
						</logginginfo>
						<labels>
							<label2>Caribbean</label2>
						</labels>
					</clipitem>
					<clipitem id="clipitem-1750" frameBlend="FALSE">
						<masterclipid>masterclip-300</masterclipid>
						<name>Kommentar_9.wav</name>
						<enabled>TRUE</enabled>
						<duration>773</duration>
						<rate>
							<timebase>25</timebase>
							<ntsc>FALSE</ntsc>
						</rate>
						<start>8631</start>
						<end>8972</end>
						<in>8</in>
						<out>349</out>
						<file id="file-273"/>
						<sourcetrack>
							<mediatype>audio</mediatype>
							<trackindex>2</trackindex>
						</sourcetrack>
						<logginginfo>
							<description></description>
							<scene></scene>
							<shottake></shottake>
							<lognote></lognote>
						</logginginfo>
						<labels>
							<label2>Caribbean</label2>
						</labels>
					</clipitem>
					<clipitem id="clipitem-1751" frameBlend="FALSE">
						<masterclipid>masterclip-301</masterclipid>
						<name>Kommentar_3.wav</name>
						<enabled>TRUE</enabled>
						<duration>720</duration>
						<rate>
							<timebase>25</timebase>
							<ntsc>FALSE</ntsc>
						</rate>
						<start>11213</start>
						<end>11887</end>
						<in>25</in>
						<out>699</out>
						<file id="file-274"/>
						<sourcetrack>
							<mediatype>audio</mediatype>
							<trackindex>2</trackindex>
						</sourcetrack>
						<logginginfo>
							<description></description>
							<scene></scene>
							<shottake></shottake>
							<lognote></lognote>
						</logginginfo>
						<labels>
							<label2>Caribbean</label2>
						</labels>
					</clipitem>
					<clipitem id="clipitem-1752" frameBlend="FALSE">
						<masterclipid>masterclip-302</masterclipid>
						<name>Kommentar_4.wav</name>
						<enabled>TRUE</enabled>
						<duration>588</duration>
						<rate>
							<timebase>25</timebase>
							<ntsc>FALSE</ntsc>
						</rate>
						<start>12094</start>
						<end>12488</end>
						<in>8</in>
						<out>402</out>
						<file id="file-275"/>
						<sourcetrack>
							<mediatype>audio</mediatype>
							<trackindex>2</trackindex>
						</sourcetrack>
							<filter>
								<effect>
									<name>Audio Levels</name>
									<effectid>audiolevels</effectid>
									<effectcategory>audiolevels</effectcategory>
									<effecttype>audiolevels</effecttype>
									<mediatype>audio</mediatype>
									<parameter authoringApp="PremierePro">
										<parameterid>level</parameterid>
										<name>Level</name>
										<valuemin>0</valuemin>
										<valuemax>3.98109</valuemax>
										<value>1.11936</value>
									</parameter>
								</effect>
							</filter>
						<logginginfo>
							<description></description>
							<scene></scene>
							<shottake></shottake>
							<lognote></lognote>
						</logginginfo>
						<labels>
							<label2>Caribbean</label2>
						</labels>
					</clipitem>
					<clipitem id="clipitem-1753" frameBlend="FALSE">
						<masterclipid>masterclip-303</masterclipid>
						<name>Kommentar_12.wav</name>
						<enabled>TRUE</enabled>
						<duration>1869</duration>
						<rate>
							<timebase>25</timebase>
							<ntsc>FALSE</ntsc>
						</rate>
						<start>12847</start>
						<end>13373</end>
						<in>8</in>
						<out>534</out>
						<file id="file-276"/>
						<sourcetrack>
							<mediatype>audio</mediatype>
							<trackindex>2</trackindex>
						</sourcetrack>
						<logginginfo>
							<description></description>
							<scene></scene>
							<shottake></shottake>
							<lognote></lognote>
						</logginginfo>
						<labels>
							<label2>Caribbean</label2>
						</labels>
					</clipitem>
					<clipitem id="clipitem-1754" frameBlend="FALSE">
						<masterclipid>masterclip-304</masterclipid>
						<name>Kommentar_14.wav</name>
						<enabled>TRUE</enabled>
						<duration>2729</duration>
						<rate>
							<timebase>25</timebase>
							<ntsc>FALSE</ntsc>
						</rate>
						<start>14370</start>
						<end>14641</end>
						<in>8</in>
						<out>279</out>
						<file id="file-277"/>
						<sourcetrack>
							<mediatype>audio</mediatype>
							<trackindex>2</trackindex>
						</sourcetrack>
							<filter>
								<effect>
									<name>Audio Levels</name>
									<effectid>audiolevels</effectid>
									<effectcategory>audiolevels</effectcategory>
									<effecttype>audiolevels</effecttype>
									<mediatype>audio</mediatype>
									<parameter authoringApp="PremierePro">
										<parameterid>level</parameterid>
										<name>Level</name>
										<valuemin>0</valuemin>
										<valuemax>3.98109</valuemax>
										<value>1.11936</value>
									</parameter>
								</effect>
							</filter>
						<logginginfo>
							<description></description>
							<scene></scene>
							<shottake></shottake>
							<lognote></lognote>
						</logginginfo>
						<labels>
							<label2>Caribbean</label2>
						</labels>
					</clipitem>
					<clipitem id="clipitem-1755" frameBlend="FALSE">
						<masterclipid>masterclip-304</masterclipid>
						<name>Kommentar_14.wav</name>
						<enabled>TRUE</enabled>
						<duration>2729</duration>
						<rate>
							<timebase>25</timebase>
							<ntsc>FALSE</ntsc>
						</rate>
						<start>15935</start>
						<end>16133</end>
						<in>1598</in>
						<out>1796</out>
						<file id="file-277"/>
						<sourcetrack>
							<mediatype>audio</mediatype>
							<trackindex>2</trackindex>
						</sourcetrack>
							<filter>
								<effect>
									<name>Audio Levels</name>
									<effectid>audiolevels</effectid>
									<effectcategory>audiolevels</effectcategory>
									<effecttype>audiolevels</effecttype>
									<mediatype>audio</mediatype>
									<parameter authoringApp="PremierePro">
										<parameterid>level</parameterid>
										<name>Level</name>
										<valuemin>0</valuemin>
										<valuemax>3.98109</valuemax>
										<value>1.25234</value>
									</parameter>
								</effect>
							</filter>
						<logginginfo>
							<description></description>
							<scene></scene>
							<shottake></shottake>
							<lognote></lognote>
						</logginginfo>
						<labels>
							<label2>Caribbean</label2>
						</labels>
					</clipitem>
					<clipitem id="clipitem-1756" frameBlend="FALSE">
						<masterclipid>masterclip-305</masterclipid>
						<name>Kommentar_17.wav</name>
						<enabled>TRUE</enabled>
						<duration>429</duration>
						<rate>
							<timebase>25</timebase>
							<ntsc>FALSE</ntsc>
						</rate>
						<start>16770</start>
						<end>17065</end>
						<in>8</in>
						<out>303</out>
						<file id="file-278"/>
						<sourcetrack>
							<mediatype>audio</mediatype>
							<trackindex>2</trackindex>
						</sourcetrack>
						<logginginfo>
							<description></description>
							<scene></scene>
							<shottake></shottake>
							<lognote></lognote>
						</logginginfo>
						<labels>
							<label2>Caribbean</label2>
						</labels>
					</clipitem>
					<clipitem id="clipitem-1757" frameBlend="FALSE">
						<masterclipid>masterclip-306</masterclipid>
						<name>Kommentar_19.wav</name>
						<enabled>TRUE</enabled>
						<duration>1321</duration>
						<rate>
							<timebase>25</timebase>
							<ntsc>FALSE</ntsc>
						</rate>
						<start>18246</start>
						<end>18485</end>
						<in>217</in>
						<out>456</out>
						<file id="file-279"/>
						<sourcetrack>
							<mediatype>audio</mediatype>
							<trackindex>2</trackindex>
						</sourcetrack>
						<logginginfo>
							<description></description>
							<scene></scene>
							<shottake></shottake>
							<lognote></lognote>
						</logginginfo>
						<labels>
							<label2>Caribbean</label2>
						</labels>
					</clipitem>
					<clipitem id="clipitem-1758" frameBlend="FALSE">
						<masterclipid>masterclip-306</masterclipid>
						<name>Kommentar_19.wav</name>
						<enabled>TRUE</enabled>
						<duration>1321</duration>
						<rate>
							<timebase>25</timebase>
							<ntsc>FALSE</ntsc>
						</rate>
						<start>18608</start>
						<end>18645</end>
						<in>671</in>
						<out>708</out>
						<file id="file-279"/>
						<sourcetrack>
							<mediatype>audio</mediatype>
							<trackindex>2</trackindex>
						</sourcetrack>
						<logginginfo>
							<description></description>
							<scene></scene>
							<shottake></shottake>
							<lognote></lognote>
						</logginginfo>
						<labels>
							<label2>Caribbean</label2>
						</labels>
					</clipitem>
					<clipitem id="clipitem-1759" frameBlend="FALSE">
						<masterclipid>masterclip-306</masterclipid>
						<name>Kommentar_19.wav</name>
						<enabled>TRUE</enabled>
						<duration>1321</duration>
						<rate>
							<timebase>25</timebase>
							<ntsc>FALSE</ntsc>
						</rate>
						<start>18645</start>
						<end>18811</end>
						<in>726</in>
						<out>892</out>
						<file id="file-279"/>
						<sourcetrack>
							<mediatype>audio</mediatype>
							<trackindex>2</trackindex>
						</sourcetrack>
						<logginginfo>
							<description></description>
							<scene></scene>
							<shottake></shottake>
							<lognote></lognote>
						</logginginfo>
						<labels>
							<label2>Caribbean</label2>
						</labels>
					</clipitem>
					<clipitem id="clipitem-1760" frameBlend="FALSE">
						<masterclipid>masterclip-306</masterclipid>
						<name>Kommentar_19.wav</name>
						<enabled>TRUE</enabled>
						<duration>1321</duration>
						<rate>
							<timebase>25</timebase>
							<ntsc>FALSE</ntsc>
						</rate>
						<start>18834</start>
						<end>19223</end>
						<in>932</in>
						<out>1321</out>
						<file id="file-279"/>
						<sourcetrack>
							<mediatype>audio</mediatype>
							<trackindex>2</trackindex>
						</sourcetrack>
						<logginginfo>
							<description></description>
							<scene></scene>
							<shottake></shottake>
							<lognote></lognote>
						</logginginfo>
						<labels>
							<label2>Caribbean</label2>
						</labels>
					</clipitem>
					<clipitem id="clipitem-1761" frameBlend="FALSE">
						<masterclipid>masterclip-307</masterclipid>
						<name>Kommentar_20.wav</name>
						<enabled>TRUE</enabled>
						<duration>1961</duration>
						<rate>
							<timebase>25</timebase>
							<ntsc>FALSE</ntsc>
						</rate>
						<start>21423</start>
						<end>21632</end>
						<in>472</in>
						<out>681</out>
						<file id="file-280"/>
						<sourcetrack>
							<mediatype>audio</mediatype>
							<trackindex>2</trackindex>
						</sourcetrack>
						<logginginfo>
							<description></description>
							<scene></scene>
							<shottake></shottake>
							<lognote></lognote>
						</logginginfo>
						<labels>
							<label2>Caribbean</label2>
						</labels>
					</clipitem>
					<clipitem id="clipitem-1762" frameBlend="FALSE">
						<masterclipid>masterclip-308</masterclipid>
						<name>Kommentar_21.wav</name>
						<enabled>TRUE</enabled>
						<duration>2519</duration>
						<rate>
							<timebase>25</timebase>
							<ntsc>FALSE</ntsc>
						</rate>
						<start>22602</start>
						<end>22865</end>
						<in>128</in>
						<out>391</out>
						<file id="file-281"/>
						<sourcetrack>
							<mediatype>audio</mediatype>
							<trackindex>2</trackindex>
						</sourcetrack>
							<filter>
								<effect>
									<name>Audio Levels</name>
									<effectid>audiolevels</effectid>
									<effectcategory>audiolevels</effectcategory>
									<effecttype>audiolevels</effecttype>
									<mediatype>audio</mediatype>
									<parameter authoringApp="PremierePro">
										<parameterid>level</parameterid>
										<name>Level</name>
										<valuemin>0</valuemin>
										<valuemax>3.98109</valuemax>
										<value>0.945805</value>
									</parameter>
								</effect>
							</filter>
						<logginginfo>
							<description></description>
							<scene></scene>
							<shottake></shottake>
							<lognote></lognote>
						</logginginfo>
						<labels>
							<label2>Caribbean</label2>
						</labels>
					</clipitem>
					<clipitem id="clipitem-1763" frameBlend="FALSE">
						<masterclipid>masterclip-309</masterclipid>
						<name>Kommentar_23.wav</name>
						<enabled>TRUE</enabled>
						<duration>2287</duration>
						<rate>
							<timebase>25</timebase>
							<ntsc>FALSE</ntsc>
						</rate>
						<start>29194</start>
						<end>29564</end>
						<in>94</in>
						<out>464</out>
						<file id="file-282"/>
						<sourcetrack>
							<mediatype>audio</mediatype>
							<trackindex>2</trackindex>
						</sourcetrack>
							<filter>
								<effect>
									<name>Audio Levels</name>
									<effectid>audiolevels</effectid>
									<effectcategory>audiolevels</effectcategory>
									<effecttype>audiolevels</effecttype>
									<mediatype>audio</mediatype>
									<parameter authoringApp="PremierePro">
										<parameterid>level</parameterid>
										<name>Level</name>
										<valuemin>0</valuemin>
										<valuemax>3.98109</valuemax>
										<value>0.955178</value>
									</parameter>
								</effect>
							</filter>
						<logginginfo>
							<description></description>
							<scene></scene>
							<shottake></shottake>
							<lognote></lognote>
						</logginginfo>
						<labels>
							<label2>Caribbean</label2>
						</labels>
					</clipitem>
					<clipitem id="clipitem-1764" frameBlend="FALSE">
						<masterclipid>masterclip-309</masterclipid>
						<name>Kommentar_23.wav</name>
						<enabled>TRUE</enabled>
						<duration>2287</duration>
						<rate>
							<timebase>25</timebase>
							<ntsc>FALSE</ntsc>
						</rate>
						<start>29564</start>
						<end>29630</end>
						<in>519</in>
						<out>585</out>
						<file id="file-282"/>
						<sourcetrack>
							<mediatype>audio</mediatype>
							<trackindex>2</trackindex>
						</sourcetrack>
						<logginginfo>
							<description></description>
							<scene></scene>
							<shottake></shottake>
							<lognote></lognote>
						</logginginfo>
						<labels>
							<label2>Caribbean</label2>
						</labels>
					</clipitem>
					<clipitem id="clipitem-1765" frameBlend="FALSE">
						<masterclipid>masterclip-309</masterclipid>
						<name>Kommentar_23.wav</name>
						<enabled>TRUE</enabled>
						<duration>2287</duration>
						<rate>
							<timebase>25</timebase>
							<ntsc>FALSE</ntsc>
						</rate>
						<start>29630</start>
						<end>29872</end>
						<in>682</in>
						<out>924</out>
						<file id="file-282"/>
						<sourcetrack>
							<mediatype>audio</mediatype>
							<trackindex>2</trackindex>
						</sourcetrack>
						<logginginfo>
							<description></description>
							<scene></scene>
							<shottake></shottake>
							<lognote></lognote>
						</logginginfo>
						<labels>
							<label2>Caribbean</label2>
						</labels>
					</clipitem>
					<clipitem id="clipitem-1766" frameBlend="FALSE">
						<masterclipid>masterclip-309</masterclipid>
						<name>Kommentar_23.wav</name>
						<enabled>TRUE</enabled>
						<duration>2287</duration>
						<rate>
							<timebase>25</timebase>
							<ntsc>FALSE</ntsc>
						</rate>
						<start>29872</start>
						<end>30232</end>
						<in>956</in>
						<out>1316</out>
						<file id="file-282"/>
						<sourcetrack>
							<mediatype>audio</mediatype>
							<trackindex>2</trackindex>
						</sourcetrack>
						<logginginfo>
							<description></description>
							<scene></scene>
							<shottake></shottake>
							<lognote></lognote>
						</logginginfo>
						<labels>
							<label2>Caribbean</label2>
						</labels>
					</clipitem>
					<clipitem id="clipitem-1767" frameBlend="FALSE">
						<masterclipid>masterclip-309</masterclipid>
						<name>Kommentar_23.wav</name>
						<enabled>TRUE</enabled>
						<duration>2287</duration>
						<rate>
							<timebase>25</timebase>
							<ntsc>FALSE</ntsc>
						</rate>
						<start>30232</start>
						<end>30366</end>
						<in>1361</in>
						<out>1495</out>
						<file id="file-282"/>
						<sourcetrack>
							<mediatype>audio</mediatype>
							<trackindex>2</trackindex>
						</sourcetrack>
						<logginginfo>
							<description></description>
							<scene></scene>
							<shottake></shottake>
							<lognote></lognote>
						</logginginfo>
						<labels>
							<label2>Caribbean</label2>
						</labels>
					</clipitem>
					<clipitem id="clipitem-1768" frameBlend="FALSE">
						<masterclipid>masterclip-310</masterclipid>
						<name>Kommentar_25.wav</name>
						<enabled>TRUE</enabled>
						<duration>945</duration>
						<rate>
							<timebase>25</timebase>
							<ntsc>FALSE</ntsc>
						</rate>
						<start>31258</start>
						<end>31579</end>
						<in>51</in>
						<out>372</out>
						<file id="file-283"/>
						<sourcetrack>
							<mediatype>audio</mediatype>
							<trackindex>2</trackindex>
						</sourcetrack>
						<logginginfo>
							<description></description>
							<scene></scene>
							<shottake></shottake>
							<lognote></lognote>
						</logginginfo>
						<labels>
							<label2>Caribbean</label2>
						</labels>
					</clipitem>
					<clipitem id="clipitem-1769" frameBlend="FALSE">
						<masterclipid>masterclip-311</masterclipid>
						<name>Kommentar_31.wav</name>
						<enabled>TRUE</enabled>
						<duration>1731</duration>
						<rate>
							<timebase>25</timebase>
							<ntsc>FALSE</ntsc>
						</rate>
						<start>33828</start>
						<end>34153</end>
						<in>8</in>
						<out>333</out>
						<file id="file-284"/>
						<sourcetrack>
							<mediatype>audio</mediatype>
							<trackindex>2</trackindex>
						</sourcetrack>
							<filter>
								<effect>
									<name>Audio Levels</name>
									<effectid>audiolevels</effectid>
									<effectcategory>audiolevels</effectcategory>
									<effecttype>audiolevels</effecttype>
									<mediatype>audio</mediatype>
									<parameter authoringApp="PremierePro">
										<parameterid>level</parameterid>
										<name>Level</name>
										<valuemin>0</valuemin>
										<valuemax>3.98109</valuemax>
										<value>1.25594</value>
									</parameter>
								</effect>
							</filter>
						<logginginfo>
							<description></description>
							<scene></scene>
							<shottake></shottake>
							<lognote></lognote>
						</logginginfo>
						<labels>
							<label2>Caribbean</label2>
						</labels>
					</clipitem>
					<clipitem id="clipitem-1770" frameBlend="FALSE">
						<masterclipid>masterclip-312</masterclipid>
						<name>Kommentar_32.wav</name>
						<enabled>TRUE</enabled>
						<duration>1171</duration>
						<rate>
							<timebase>25</timebase>
							<ntsc>FALSE</ntsc>
						</rate>
						<start>34786</start>
						<end>35774</end>
						<in>0</in>
						<out>988</out>
						<file id="file-285"/>
						<sourcetrack>
							<mediatype>audio</mediatype>
							<trackindex>2</trackindex>
						</sourcetrack>
						<logginginfo>
							<description></description>
							<scene></scene>
							<shottake></shottake>
							<lognote></lognote>
						</logginginfo>
						<labels>
							<label2>Caribbean</label2>
						</labels>
					</clipitem>
					<clipitem id="clipitem-1771" frameBlend="FALSE">
						<masterclipid>masterclip-313</masterclipid>
						<name>Kommentar_33.wav</name>
						<enabled>TRUE</enabled>
						<duration>3513</duration>
						<rate>
							<timebase>25</timebase>
							<ntsc>FALSE</ntsc>
						</rate>
						<start>38860</start>
						<end>39229</end>
						<in>2559</in>
						<out>2928</out>
						<file id="file-286"/>
						<sourcetrack>
							<mediatype>audio</mediatype>
							<trackindex>2</trackindex>
						</sourcetrack>
						<logginginfo>
							<description></description>
							<scene></scene>
							<shottake></shottake>
							<lognote></lognote>
						</logginginfo>
						<labels>
							<label2>Caribbean</label2>
						</labels>
					</clipitem>
					<enabled>TRUE</enabled>
					<locked>FALSE</locked>
					<outputchannelindex>17</outputchannelindex>
				</track>
				<track TL.SQTrackAudioKeyframeStyle="0" TL.SQTrackShy="0" TL.SQTrackExpandedHeight="102" TL.SQTrackExpanded="1" MZ.TrackTargeted="0" MZ.TrackName="Komm 2" PannerCurrentValue="0.5" PannerIsInverted="true" PannerStartKeyframe="-91445760000000000,0.5,0,0,0,0,0,0" PannerName="Balance" currentExplodedTrackIndex="0" totalExplodedTrackCount="2" premiereTrackType="Stereo">
					<clipitem id="clipitem-1772" frameBlend="FALSE" PannerCurrentValue="0.5" PannerKeyframes="" PannerStartKeyframe="-91445760000000000,0.5,0,0,0,0,0,0" PannerIsInverted="true" PannerName="Balance">
						<masterclipid>masterclip-314</masterclipid>
						<name>Komm 2.wav</name>
						<enabled>TRUE</enabled>
						<duration>383</duration>
						<rate>
							<timebase>25</timebase>
							<ntsc>FALSE</ntsc>
						</rate>
						<start>223</start>
						<end>452</end>
						<in>152</in>
						<out>381</out>
						<file id="file-287">
							<name>Komm 2.wav</name>
							<pathurl>file://localhost/Volumes/Brakka/AdobeLager/Komm%202.wav</pathurl>
							<rate>
								<timebase>30</timebase>
								<ntsc>TRUE</ntsc>
							</rate>
							<duration>459</duration>
							<timecode>
								<rate>
									<timebase>30</timebase>
									<ntsc>TRUE</ntsc>
								</rate>
								<string>00;00;00;00</string>
								<frame>0</frame>
								<displayformat>DF</displayformat>
								<reel>
									<name></name>
								</reel>
							</timecode>
							<media>
								<audio>
									<samplecharacteristics>
										<depth>16</depth>
										<samplerate>48000</samplerate>
									</samplecharacteristics>
									<channelcount>2</channelcount>
								</audio>
							</media>
						</file>
						<sourcetrack>
							<mediatype>audio</mediatype>
							<trackindex>1</trackindex>
						</sourcetrack>
							<filter>
								<effect>
									<name>Audio Pan</name>
									<effectid>audiopan</effectid>
									<effectcategory>audiopan</effectcategory>
									<effecttype>audiopan</effecttype>
									<mediatype>audio</mediatype>
									<parameter authoringApp="PremierePro">
										<parameterid>pan</parameterid>
										<name>Pan</name>
										<valuemin>-1</valuemin>
										<valuemax>1</valuemax>
										<value>0</value>
									</parameter>
								</effect>
							</filter>
						<link>
							<linkclipref>clipitem-1772</linkclipref>
							<mediatype>audio</mediatype>
							<trackindex>18</trackindex>
							<clipindex>1</clipindex>
							<groupindex>1</groupindex>
						</link>
						<link>
							<linkclipref>clipitem-1817</linkclipref>
							<mediatype>audio</mediatype>
							<trackindex>19</trackindex>
							<clipindex>1</clipindex>
							<groupindex>1</groupindex>
						</link>
						<logginginfo>
							<description></description>
							<scene></scene>
							<shottake></shottake>
							<lognote></lognote>
						</logginginfo>
						<labels>
							<label2>Caribbean</label2>
						</labels>
					</clipitem>
					<clipitem id="clipitem-1773" frameBlend="FALSE" PannerCurrentValue="0.5" PannerKeyframes="" PannerStartKeyframe="-91445760000000000,0.5,0,0,0,0,0,0" PannerIsInverted="true" PannerName="Balance">
						<masterclipid>masterclip-315</masterclipid>
						<name>Komm 2_2.wav</name>
						<enabled>TRUE</enabled>
						<duration>214</duration>
						<rate>
							<timebase>25</timebase>
							<ntsc>FALSE</ntsc>
						</rate>
						<start>504</start>
						<end>621</end>
						<in>97</in>
						<out>214</out>
						<file id="file-288">
							<name>Komm 2_2.wav</name>
							<pathurl>file://localhost/Volumes/Brakka/AdobeLager/Komm%202_2.wav</pathurl>
							<rate>
								<timebase>30</timebase>
								<ntsc>TRUE</ntsc>
							</rate>
							<duration>256</duration>
							<timecode>
								<rate>
									<timebase>30</timebase>
									<ntsc>TRUE</ntsc>
								</rate>
								<string>00;00;00;00</string>
								<frame>0</frame>
								<displayformat>DF</displayformat>
								<reel>
									<name></name>
								</reel>
							</timecode>
							<media>
								<audio>
									<samplecharacteristics>
										<depth>16</depth>
										<samplerate>48000</samplerate>
									</samplecharacteristics>
									<channelcount>2</channelcount>
								</audio>
							</media>
						</file>
						<sourcetrack>
							<mediatype>audio</mediatype>
							<trackindex>1</trackindex>
						</sourcetrack>
							<filter>
								<effect>
									<name>Audio Pan</name>
									<effectid>audiopan</effectid>
									<effectcategory>audiopan</effectcategory>
									<effecttype>audiopan</effecttype>
									<mediatype>audio</mediatype>
									<parameter authoringApp="PremierePro">
										<parameterid>pan</parameterid>
										<name>Pan</name>
										<valuemin>-1</valuemin>
										<valuemax>1</valuemax>
										<value>0</value>
									</parameter>
								</effect>
							</filter>
						<link>
							<linkclipref>clipitem-1773</linkclipref>
							<mediatype>audio</mediatype>
							<trackindex>18</trackindex>
							<clipindex>2</clipindex>
							<groupindex>1</groupindex>
						</link>
						<link>
							<linkclipref>clipitem-1818</linkclipref>
							<mediatype>audio</mediatype>
							<trackindex>19</trackindex>
							<clipindex>2</clipindex>
							<groupindex>1</groupindex>
						</link>
						<logginginfo>
							<description></description>
							<scene></scene>
							<shottake></shottake>
							<lognote></lognote>
						</logginginfo>
						<labels>
							<label2>Caribbean</label2>
						</labels>
					</clipitem>
					<clipitem id="clipitem-1774" frameBlend="FALSE" PannerCurrentValue="0.5" PannerKeyframes="" PannerStartKeyframe="-91445760000000000,0.5,0,0,0,0,0,0" PannerIsInverted="true" PannerName="Balance">
						<masterclipid>masterclip-316</masterclipid>
						<name>Kommentar 2_2.wav</name>
						<enabled>TRUE</enabled>
						<duration>355</duration>
						<rate>
							<timebase>25</timebase>
							<ntsc>FALSE</ntsc>
						</rate>
						<start>4611</start>
						<end>4958</end>
						<in>8</in>
						<out>355</out>
						<file id="file-289">
							<name>Kommentar 2_2.wav</name>
							<pathurl>file://localhost/Volumes/Brakka/AdobeLager/Katta/Katta-14xxxx-Smart_eller_overvaaket-Chris/03-Lyd/VO/Kommentar%202_2.wav</pathurl>
							<rate>
								<timebase>30</timebase>
								<ntsc>TRUE</ntsc>
							</rate>
							<duration>425</duration>
							<timecode>
								<rate>
									<timebase>30</timebase>
									<ntsc>TRUE</ntsc>
								</rate>
								<string>00;00;00;00</string>
								<frame>0</frame>
								<displayformat>DF</displayformat>
								<reel>
									<name></name>
								</reel>
							</timecode>
							<media>
								<audio>
									<samplecharacteristics>
										<depth>16</depth>
										<samplerate>48000</samplerate>
									</samplecharacteristics>
									<channelcount>2</channelcount>
								</audio>
							</media>
						</file>
						<sourcetrack>
							<mediatype>audio</mediatype>
							<trackindex>1</trackindex>
						</sourcetrack>
							<filter>
								<effect>
									<name>Audio Pan</name>
									<effectid>audiopan</effectid>
									<effectcategory>audiopan</effectcategory>
									<effecttype>audiopan</effecttype>
									<mediatype>audio</mediatype>
									<parameter authoringApp="PremierePro">
										<parameterid>pan</parameterid>
										<name>Pan</name>
										<valuemin>-1</valuemin>
										<valuemax>1</valuemax>
										<value>0</value>
									</parameter>
								</effect>
							</filter>
						<link>
							<linkclipref>clipitem-1774</linkclipref>
							<mediatype>audio</mediatype>
							<trackindex>18</trackindex>
							<clipindex>3</clipindex>
							<groupindex>1</groupindex>
						</link>
						<link>
							<linkclipref>clipitem-1819</linkclipref>
							<mediatype>audio</mediatype>
							<trackindex>19</trackindex>
							<clipindex>3</clipindex>
							<groupindex>1</groupindex>
						</link>
						<logginginfo>
							<description></description>
							<scene></scene>
							<shottake></shottake>
							<lognote></lognote>
						</logginginfo>
						<labels>
							<label2>Caribbean</label2>
						</labels>
					</clipitem>
					<clipitem id="clipitem-1775" frameBlend="FALSE" PannerCurrentValue="0.5" PannerKeyframes="" PannerStartKeyframe="-91445760000000000,0.5,0,0,0,0,0,0" PannerIsInverted="true" PannerName="Balance">
						<masterclipid>masterclip-317</masterclipid>
						<name>Kommentar 2_5.wav</name>
						<enabled>TRUE</enabled>
						<duration>473</duration>
						<rate>
							<timebase>25</timebase>
							<ntsc>FALSE</ntsc>
						</rate>
						<start>6299</start>
						<end>6525</end>
						<in>247</in>
						<out>473</out>
						<file id="file-290">
							<name>Kommentar 2_5.wav</name>
							<pathurl>file://localhost/Volumes/Brakka/AdobeLager/Katta/Katta-14xxxx-Smart_eller_overvaaket-Chris/03-Lyd/VO/Kommentar%202_5.wav</pathurl>
							<rate>
								<timebase>30</timebase>
								<ntsc>TRUE</ntsc>
							</rate>
							<duration>567</duration>
							<timecode>
								<rate>
									<timebase>30</timebase>
									<ntsc>TRUE</ntsc>
								</rate>
								<string>00;00;00;00</string>
								<frame>0</frame>
								<displayformat>DF</displayformat>
								<reel>
									<name></name>
								</reel>
							</timecode>
							<media>
								<audio>
									<samplecharacteristics>
										<depth>16</depth>
										<samplerate>48000</samplerate>
									</samplecharacteristics>
									<channelcount>2</channelcount>
								</audio>
							</media>
						</file>
						<sourcetrack>
							<mediatype>audio</mediatype>
							<trackindex>1</trackindex>
						</sourcetrack>
							<filter>
								<effect>
									<name>Audio Pan</name>
									<effectid>audiopan</effectid>
									<effectcategory>audiopan</effectcategory>
									<effecttype>audiopan</effecttype>
									<mediatype>audio</mediatype>
									<parameter authoringApp="PremierePro">
										<parameterid>pan</parameterid>
										<name>Pan</name>
										<valuemin>-1</valuemin>
										<valuemax>1</valuemax>
										<value>0</value>
									</parameter>
								</effect>
							</filter>
						<link>
							<linkclipref>clipitem-1775</linkclipref>
							<mediatype>audio</mediatype>
							<trackindex>18</trackindex>
							<clipindex>4</clipindex>
							<groupindex>1</groupindex>
						</link>
						<link>
							<linkclipref>clipitem-1820</linkclipref>
							<mediatype>audio</mediatype>
							<trackindex>19</trackindex>
							<clipindex>4</clipindex>
							<groupindex>1</groupindex>
						</link>
						<logginginfo>
							<description></description>
							<scene></scene>
							<shottake></shottake>
							<lognote></lognote>
						</logginginfo>
						<labels>
							<label2>Caribbean</label2>
						</labels>
					</clipitem>
					<clipitem id="clipitem-1776" frameBlend="FALSE" PannerCurrentValue="0.5" PannerKeyframes="" PannerStartKeyframe="-91445760000000000,0.5,0,0,0,0,0,0" PannerIsInverted="true" PannerName="Balance">
						<masterclipid>masterclip-318</masterclipid>
						<name>Kommentar 2_6.wav</name>
						<enabled>TRUE</enabled>
						<duration>2214</duration>
						<rate>
							<timebase>25</timebase>
							<ntsc>FALSE</ntsc>
						</rate>
						<start>6979</start>
						<end>7095</end>
						<in>8</in>
						<out>124</out>
						<file id="file-291">
							<name>Kommentar 2_6.wav</name>
							<pathurl>file://localhost/Volumes/Brakka/AdobeLager/Katta/Katta-14xxxx-Smart_eller_overvaaket-Chris/03-Lyd/VO/Kommentar%202_6.wav</pathurl>
							<rate>
								<timebase>30</timebase>
								<ntsc>TRUE</ntsc>
							</rate>
							<duration>2654</duration>
							<timecode>
								<rate>
									<timebase>30</timebase>
									<ntsc>TRUE</ntsc>
								</rate>
								<string>00;00;00;00</string>
								<frame>0</frame>
								<displayformat>DF</displayformat>
								<reel>
									<name></name>
								</reel>
							</timecode>
							<media>
								<audio>
									<samplecharacteristics>
										<depth>16</depth>
										<samplerate>48000</samplerate>
									</samplecharacteristics>
									<channelcount>2</channelcount>
								</audio>
							</media>
						</file>
						<sourcetrack>
							<mediatype>audio</mediatype>
							<trackindex>1</trackindex>
						</sourcetrack>
							<filter>
								<effect>
									<name>Audio Levels</name>
									<effectid>audiolevels</effectid>
									<effectcategory>audiolevels</effectcategory>
									<effecttype>audiolevels</effecttype>
									<mediatype>audio</mediatype>
									<parameter authoringApp="PremierePro">
										<parameterid>level</parameterid>
										<name>Level</name>
										<valuemin>0</valuemin>
										<valuemax>3.98109</valuemax>
										<value>0.99763</value>
									</parameter>
								</effect>
							</filter>
							<filter>
								<effect>
									<name>Audio Pan</name>
									<effectid>audiopan</effectid>
									<effectcategory>audiopan</effectcategory>
									<effecttype>audiopan</effecttype>
									<mediatype>audio</mediatype>
									<parameter authoringApp="PremierePro">
										<parameterid>pan</parameterid>
										<name>Pan</name>
										<valuemin>-1</valuemin>
										<valuemax>1</valuemax>
										<value>0</value>
									</parameter>
								</effect>
							</filter>
						<link>
							<linkclipref>clipitem-1776</linkclipref>
							<mediatype>audio</mediatype>
							<trackindex>18</trackindex>
							<clipindex>5</clipindex>
							<groupindex>1</groupindex>
						</link>
						<link>
							<linkclipref>clipitem-1821</linkclipref>
							<mediatype>audio</mediatype>
							<trackindex>19</trackindex>
							<clipindex>5</clipindex>
							<groupindex>1</groupindex>
						</link>
						<logginginfo>
							<description></description>
							<scene></scene>
							<shottake></shottake>
							<lognote></lognote>
						</logginginfo>
						<labels>
							<label2>Caribbean</label2>
						</labels>
					</clipitem>
					<clipitem id="clipitem-1777" frameBlend="FALSE" PannerCurrentValue="0.5" PannerKeyframes="" PannerStartKeyframe="-91445760000000000,0.5,0,0,0,0,0,0" PannerIsInverted="true" PannerName="Balance">
						<masterclipid>masterclip-318</masterclipid>
						<name>Kommentar 2_6.wav</name>
						<enabled>TRUE</enabled>
						<duration>2214</duration>
						<rate>
							<timebase>25</timebase>
							<ntsc>FALSE</ntsc>
						</rate>
						<start>7125</start>
						<end>7278</end>
						<in>158</in>
						<out>311</out>
						<file id="file-291"/>
						<sourcetrack>
							<mediatype>audio</mediatype>
							<trackindex>1</trackindex>
						</sourcetrack>
							<filter>
								<effect>
									<name>Audio Levels</name>
									<effectid>audiolevels</effectid>
									<effectcategory>audiolevels</effectcategory>
									<effecttype>audiolevels</effecttype>
									<mediatype>audio</mediatype>
									<parameter authoringApp="PremierePro">
										<parameterid>level</parameterid>
										<name>Level</name>
										<valuemin>0</valuemin>
										<valuemax>3.98109</valuemax>
										<value>0.99763</value>
									</parameter>
								</effect>
							</filter>
							<filter>
								<effect>
									<name>Audio Pan</name>
									<effectid>audiopan</effectid>
									<effectcategory>audiopan</effectcategory>
									<effecttype>audiopan</effecttype>
									<mediatype>audio</mediatype>
									<parameter authoringApp="PremierePro">
										<parameterid>pan</parameterid>
										<name>Pan</name>
										<valuemin>-1</valuemin>
										<valuemax>1</valuemax>
										<value>0</value>
									</parameter>
								</effect>
							</filter>
						<link>
							<linkclipref>clipitem-1777</linkclipref>
							<mediatype>audio</mediatype>
							<trackindex>18</trackindex>
							<clipindex>6</clipindex>
							<groupindex>1</groupindex>
						</link>
						<link>
							<linkclipref>clipitem-1822</linkclipref>
							<mediatype>audio</mediatype>
							<trackindex>19</trackindex>
							<clipindex>6</clipindex>
							<groupindex>1</groupindex>
						</link>
						<logginginfo>
							<description></description>
							<scene></scene>
							<shottake></shottake>
							<lognote></lognote>
						</logginginfo>
						<labels>
							<label2>Caribbean</label2>
						</labels>
					</clipitem>
					<clipitem id="clipitem-1778" frameBlend="FALSE" PannerCurrentValue="0.5" PannerKeyframes="" PannerStartKeyframe="-91445760000000000,0.5,0,0,0,0,0,0" PannerIsInverted="true" PannerName="Balance">
						<masterclipid>masterclip-319</masterclipid>
						<name>Kommentar 2_7.wav</name>
						<enabled>TRUE</enabled>
						<duration>392</duration>
						<rate>
							<timebase>25</timebase>
							<ntsc>FALSE</ntsc>
						</rate>
						<start>8738</start>
						<end>9055</end>
						<in>8</in>
						<out>325</out>
						<file id="file-292">
							<name>Kommentar 2_7.wav</name>
							<pathurl>file://localhost/Volumes/Brakka/AdobeLager/Katta/Katta-14xxxx-Smart_eller_overvaaket-Chris/03-Lyd/VO/Kommentar%202_7.wav</pathurl>
							<rate>
								<timebase>30</timebase>
								<ntsc>TRUE</ntsc>
							</rate>
							<duration>469</duration>
							<timecode>
								<rate>
									<timebase>30</timebase>
									<ntsc>TRUE</ntsc>
								</rate>
								<string>00;00;00;00</string>
								<frame>0</frame>
								<displayformat>DF</displayformat>
								<reel>
									<name></name>
								</reel>
							</timecode>
							<media>
								<audio>
									<samplecharacteristics>
										<depth>16</depth>
										<samplerate>48000</samplerate>
									</samplecharacteristics>
									<channelcount>2</channelcount>
								</audio>
							</media>
						</file>
						<sourcetrack>
							<mediatype>audio</mediatype>
							<trackindex>1</trackindex>
						</sourcetrack>
							<filter>
								<effect>
									<name>Audio Levels</name>
									<effectid>audiolevels</effectid>
									<effectcategory>audiolevels</effectcategory>
									<effecttype>audiolevels</effecttype>
									<mediatype>audio</mediatype>
									<parameter authoringApp="PremierePro">
										<parameterid>level</parameterid>
										<name>Level</name>
										<valuemin>0</valuemin>
										<valuemax>3.98109</valuemax>
										<value>0.889139</value>
									</parameter>
								</effect>
							</filter>
							<filter>
								<effect>
									<name>Audio Pan</name>
									<effectid>audiopan</effectid>
									<effectcategory>audiopan</effectcategory>
									<effecttype>audiopan</effecttype>
									<mediatype>audio</mediatype>
									<parameter authoringApp="PremierePro">
										<parameterid>pan</parameterid>
										<name>Pan</name>
										<valuemin>-1</valuemin>
										<valuemax>1</valuemax>
										<value>0</value>
									</parameter>
								</effect>
							</filter>
						<link>
							<linkclipref>clipitem-1778</linkclipref>
							<mediatype>audio</mediatype>
							<trackindex>18</trackindex>
							<clipindex>7</clipindex>
							<groupindex>1</groupindex>
						</link>
						<link>
							<linkclipref>clipitem-1823</linkclipref>
							<mediatype>audio</mediatype>
							<trackindex>19</trackindex>
							<clipindex>7</clipindex>
							<groupindex>1</groupindex>
						</link>
						<logginginfo>
							<description></description>
							<scene></scene>
							<shottake></shottake>
							<lognote></lognote>
						</logginginfo>
						<labels>
							<label2>Caribbean</label2>
						</labels>
					</clipitem>
					<clipitem id="clipitem-1779" frameBlend="FALSE" PannerCurrentValue="0.5" PannerKeyframes="" PannerStartKeyframe="-91445760000000000,0.5,0,0,0,0,0,0" PannerIsInverted="true" PannerName="Balance">
						<masterclipid>masterclip-320</masterclipid>
						<name>Kommentar 2_8.wav</name>
						<enabled>TRUE</enabled>
						<duration>816</duration>
						<rate>
							<timebase>25</timebase>
							<ntsc>FALSE</ntsc>
						</rate>
						<start>13116</start>
						<end>13373</end>
						<in>318</in>
						<out>575</out>
						<file id="file-293">
							<name>Kommentar 2_8.wav</name>
							<pathurl>file://localhost/Volumes/Brakka/AdobeLager/Katta/Katta-14xxxx-Smart_eller_overvaaket-Chris/03-Lyd/VO/Kommentar%202_8.wav</pathurl>
							<rate>
								<timebase>30</timebase>
								<ntsc>TRUE</ntsc>
							</rate>
							<duration>978</duration>
							<timecode>
								<rate>
									<timebase>30</timebase>
									<ntsc>TRUE</ntsc>
								</rate>
								<string>00;00;00;00</string>
								<frame>0</frame>
								<displayformat>DF</displayformat>
								<reel>
									<name></name>
								</reel>
							</timecode>
							<media>
								<audio>
									<samplecharacteristics>
										<depth>16</depth>
										<samplerate>48000</samplerate>
									</samplecharacteristics>
									<channelcount>2</channelcount>
								</audio>
							</media>
						</file>
						<sourcetrack>
							<mediatype>audio</mediatype>
							<trackindex>1</trackindex>
						</sourcetrack>
							<filter>
								<effect>
									<name>Audio Levels</name>
									<effectid>audiolevels</effectid>
									<effectcategory>audiolevels</effectcategory>
									<effecttype>audiolevels</effecttype>
									<mediatype>audio</mediatype>
									<parameter authoringApp="PremierePro">
										<parameterid>level</parameterid>
										<name>Level</name>
										<valuemin>0</valuemin>
										<valuemax>3.98109</valuemax>
										<value>1.12431</value>
									</parameter>
								</effect>
							</filter>
							<filter>
								<effect>
									<name>Audio Pan</name>
									<effectid>audiopan</effectid>
									<effectcategory>audiopan</effectcategory>
									<effecttype>audiopan</effecttype>
									<mediatype>audio</mediatype>
									<parameter authoringApp="PremierePro">
										<parameterid>pan</parameterid>
										<name>Pan</name>
										<valuemin>-1</valuemin>
										<valuemax>1</valuemax>
										<value>0</value>
									</parameter>
								</effect>
							</filter>
						<link>
							<linkclipref>clipitem-1779</linkclipref>
							<mediatype>audio</mediatype>
							<trackindex>18</trackindex>
							<clipindex>8</clipindex>
							<groupindex>1</groupindex>
						</link>
						<link>
							<linkclipref>clipitem-1824</linkclipref>
							<mediatype>audio</mediatype>
							<trackindex>19</trackindex>
							<clipindex>8</clipindex>
							<groupindex>1</groupindex>
						</link>
						<logginginfo>
							<description></description>
							<scene></scene>
							<shottake></shottake>
							<lognote></lognote>
						</logginginfo>
						<labels>
							<label2>Caribbean</label2>
						</labels>
					</clipitem>
					<clipitem id="clipitem-1780" frameBlend="FALSE" PannerCurrentValue="0.5" PannerKeyframes="" PannerStartKeyframe="-91445760000000000,0.5,0,0,0,0,0,0" PannerIsInverted="true" PannerName="Balance">
						<masterclipid>masterclip-321</masterclipid>
						<name>Kommentar 2_15.wav</name>
						<enabled>TRUE</enabled>
						<duration>712</duration>
						<rate>
							<timebase>25</timebase>
							<ntsc>FALSE</ntsc>
						</rate>
						<start>13373</start>
						<end>13732</end>
						<in>353</in>
						<out>712</out>
						<file id="file-294">
							<name>Kommentar 2_15.wav</name>
							<pathurl>file://localhost/Volumes/Brakka/AdobeLager/Katta/Katta-14xxxx-Smart_eller_overvaaket-Chris/03-Lyd/VO/Kommentar%202_15.wav</pathurl>
							<rate>
								<timebase>30</timebase>
								<ntsc>TRUE</ntsc>
							</rate>
							<duration>853</duration>
							<timecode>
								<rate>
									<timebase>30</timebase>
									<ntsc>TRUE</ntsc>
								</rate>
								<string>00;00;00;00</string>
								<frame>0</frame>
								<displayformat>DF</displayformat>
								<reel>
									<name></name>
								</reel>
							</timecode>
							<media>
								<audio>
									<samplecharacteristics>
										<depth>16</depth>
										<samplerate>48000</samplerate>
									</samplecharacteristics>
									<channelcount>2</channelcount>
								</audio>
							</media>
						</file>
						<sourcetrack>
							<mediatype>audio</mediatype>
							<trackindex>1</trackindex>
						</sourcetrack>
							<filter>
								<effect>
									<name>Audio Pan</name>
									<effectid>audiopan</effectid>
									<effectcategory>audiopan</effectcategory>
									<effecttype>audiopan</effecttype>
									<mediatype>audio</mediatype>
									<parameter authoringApp="PremierePro">
										<parameterid>pan</parameterid>
										<name>Pan</name>
										<valuemin>-1</valuemin>
										<valuemax>1</valuemax>
										<value>0</value>
									</parameter>
								</effect>
							</filter>
						<link>
							<linkclipref>clipitem-1780</linkclipref>
							<mediatype>audio</mediatype>
							<trackindex>18</trackindex>
							<clipindex>9</clipindex>
							<groupindex>1</groupindex>
						</link>
						<link>
							<linkclipref>clipitem-1825</linkclipref>
							<mediatype>audio</mediatype>
							<trackindex>19</trackindex>
							<clipindex>9</clipindex>
							<groupindex>1</groupindex>
						</link>
						<logginginfo>
							<description></description>
							<scene></scene>
							<shottake></shottake>
							<lognote></lognote>
						</logginginfo>
						<labels>
							<label2>Caribbean</label2>
						</labels>
					</clipitem>
					<clipitem id="clipitem-1781" frameBlend="FALSE" PannerCurrentValue="0.5" PannerKeyframes="" PannerStartKeyframe="-91445760000000000,0.5,0,0,0,0,0,0" PannerIsInverted="true" PannerName="Balance">
						<masterclipid>masterclip-322</masterclipid>
						<name>Kommentar 2_18.wav</name>
						<enabled>TRUE</enabled>
						<duration>561</duration>
						<rate>
							<timebase>25</timebase>
							<ntsc>FALSE</ntsc>
						</rate>
						<start>14462</start>
						<end>14835</end>
						<in>8</in>
						<out>381</out>
						<file id="file-295">
							<name>Kommentar 2_18.wav</name>
							<pathurl>file://localhost/Volumes/Brakka/AdobeLager/Katta/Katta-14xxxx-Smart_eller_overvaaket-Chris/03-Lyd/VO/Kommentar%202_18.wav</pathurl>
							<rate>
								<timebase>30</timebase>
								<ntsc>TRUE</ntsc>
							</rate>
							<duration>672</duration>
							<timecode>
								<rate>
									<timebase>30</timebase>
									<ntsc>TRUE</ntsc>
								</rate>
								<string>00;00;00;00</string>
								<frame>0</frame>
								<displayformat>DF</displayformat>
								<reel>
									<name></name>
								</reel>
							</timecode>
							<media>
								<audio>
									<samplecharacteristics>
										<depth>16</depth>
										<samplerate>48000</samplerate>
									</samplecharacteristics>
									<channelcount>2</channelcount>
								</audio>
							</media>
						</file>
						<sourcetrack>
							<mediatype>audio</mediatype>
							<trackindex>1</trackindex>
						</sourcetrack>
							<filter>
								<effect>
									<name>Audio Pan</name>
									<effectid>audiopan</effectid>
									<effectcategory>audiopan</effectcategory>
									<effecttype>audiopan</effecttype>
									<mediatype>audio</mediatype>
									<parameter authoringApp="PremierePro">
										<parameterid>pan</parameterid>
										<name>Pan</name>
										<valuemin>-1</valuemin>
										<valuemax>1</valuemax>
										<value>0</value>
									</parameter>
								</effect>
							</filter>
						<link>
							<linkclipref>clipitem-1781</linkclipref>
							<mediatype>audio</mediatype>
							<trackindex>18</trackindex>
							<clipindex>10</clipindex>
							<groupindex>1</groupindex>
						</link>
						<link>
							<linkclipref>clipitem-1826</linkclipref>
							<mediatype>audio</mediatype>
							<trackindex>19</trackindex>
							<clipindex>10</clipindex>
							<groupindex>1</groupindex>
						</link>
						<logginginfo>
							<description></description>
							<scene></scene>
							<shottake></shottake>
							<lognote></lognote>
						</logginginfo>
						<labels>
							<label2>Caribbean</label2>
						</labels>
					</clipitem>
					<clipitem id="clipitem-1782" frameBlend="FALSE" PannerCurrentValue="0.5" PannerKeyframes="" PannerStartKeyframe="-91445760000000000,0.5,0,0,0,0,0,0" PannerIsInverted="true" PannerName="Balance">
						<masterclipid>masterclip-322</masterclipid>
						<name>Kommentar 2_18.wav</name>
						<enabled>TRUE</enabled>
						<duration>561</duration>
						<rate>
							<timebase>25</timebase>
							<ntsc>FALSE</ntsc>
						</rate>
						<start>14835</start>
						<end>15015</end>
						<in>381</in>
						<out>561</out>
						<file id="file-295"/>
						<sourcetrack>
							<mediatype>audio</mediatype>
							<trackindex>1</trackindex>
						</sourcetrack>
							<filter>
								<effect>
									<name>Audio Pan</name>
									<effectid>audiopan</effectid>
									<effectcategory>audiopan</effectcategory>
									<effecttype>audiopan</effecttype>
									<mediatype>audio</mediatype>
									<parameter authoringApp="PremierePro">
										<parameterid>pan</parameterid>
										<name>Pan</name>
										<valuemin>-1</valuemin>
										<valuemax>1</valuemax>
										<value>0</value>
									</parameter>
								</effect>
							</filter>
						<link>
							<linkclipref>clipitem-1782</linkclipref>
							<mediatype>audio</mediatype>
							<trackindex>18</trackindex>
							<clipindex>11</clipindex>
							<groupindex>1</groupindex>
						</link>
						<link>
							<linkclipref>clipitem-1827</linkclipref>
							<mediatype>audio</mediatype>
							<trackindex>19</trackindex>
							<clipindex>11</clipindex>
							<groupindex>1</groupindex>
						</link>
						<logginginfo>
							<description></description>
							<scene></scene>
							<shottake></shottake>
							<lognote></lognote>
						</logginginfo>
						<labels>
							<label2>Caribbean</label2>
						</labels>
					</clipitem>
					<clipitem id="clipitem-1783" frameBlend="FALSE" PannerCurrentValue="0.5" PannerKeyframes="" PannerStartKeyframe="-91445760000000000,0.5,0,0,0,0,0,0" PannerIsInverted="true" PannerName="Balance">
						<masterclipid>masterclip-323</masterclipid>
						<name>Kommentar 2_19.wav</name>
						<enabled>TRUE</enabled>
						<duration>427</duration>
						<rate>
							<timebase>25</timebase>
							<ntsc>FALSE</ntsc>
						</rate>
						<start>15575</start>
						<end>15815</end>
						<in>8</in>
						<out>248</out>
						<file id="file-296">
							<name>Kommentar 2_19.wav</name>
							<pathurl>file://localhost/Volumes/Brakka/AdobeLager/Katta/Katta-14xxxx-Smart_eller_overvaaket-Chris/03-Lyd/VO/Kommentar%202_19.wav</pathurl>
							<rate>
								<timebase>30</timebase>
								<ntsc>TRUE</ntsc>
							</rate>
							<duration>511</duration>
							<timecode>
								<rate>
									<timebase>30</timebase>
									<ntsc>TRUE</ntsc>
								</rate>
								<string>00;00;00;00</string>
								<frame>0</frame>
								<displayformat>DF</displayformat>
								<reel>
									<name></name>
								</reel>
							</timecode>
							<media>
								<audio>
									<samplecharacteristics>
										<depth>16</depth>
										<samplerate>48000</samplerate>
									</samplecharacteristics>
									<channelcount>2</channelcount>
								</audio>
							</media>
						</file>
						<sourcetrack>
							<mediatype>audio</mediatype>
							<trackindex>1</trackindex>
						</sourcetrack>
							<filter>
								<effect>
									<name>Audio Levels</name>
									<effectid>audiolevels</effectid>
									<effectcategory>audiolevels</effectcategory>
									<effecttype>audiolevels</effecttype>
									<mediatype>audio</mediatype>
									<parameter authoringApp="PremierePro">
										<parameterid>level</parameterid>
										<name>Level</name>
										<valuemin>0</valuemin>
										<valuemax>3.98109</valuemax>
										<value>1.11936</value>
									</parameter>
								</effect>
							</filter>
							<filter>
								<effect>
									<name>Audio Pan</name>
									<effectid>audiopan</effectid>
									<effectcategory>audiopan</effectcategory>
									<effecttype>audiopan</effecttype>
									<mediatype>audio</mediatype>
									<parameter authoringApp="PremierePro">
										<parameterid>pan</parameterid>
										<name>Pan</name>
										<valuemin>-1</valuemin>
										<valuemax>1</valuemax>
										<value>0</value>
									</parameter>
								</effect>
							</filter>
						<link>
							<linkclipref>clipitem-1783</linkclipref>
							<mediatype>audio</mediatype>
							<trackindex>18</trackindex>
							<clipindex>12</clipindex>
							<groupindex>1</groupindex>
						</link>
						<link>
							<linkclipref>clipitem-1828</linkclipref>
							<mediatype>audio</mediatype>
							<trackindex>19</trackindex>
							<clipindex>12</clipindex>
							<groupindex>1</groupindex>
						</link>
						<logginginfo>
							<description></description>
							<scene></scene>
							<shottake></shottake>
							<lognote></lognote>
						</logginginfo>
						<labels>
							<label2>Caribbean</label2>
						</labels>
					</clipitem>
					<clipitem id="clipitem-1784" frameBlend="FALSE" PannerCurrentValue="0.5" PannerKeyframes="" PannerStartKeyframe="-91445760000000000,0.5,0,0,0,0,0,0" PannerIsInverted="true" PannerName="Balance">
						<masterclipid>masterclip-324</masterclipid>
						<name>Kommentar 2_20.wav</name>
						<enabled>TRUE</enabled>
						<duration>326</duration>
						<rate>
							<timebase>25</timebase>
							<ntsc>FALSE</ntsc>
						</rate>
						<start>15815</start>
						<end>15891</end>
						<in>189</in>
						<out>265</out>
						<file id="file-297">
							<name>Kommentar 2_20.wav</name>
							<pathurl>file://localhost/Volumes/Brakka/AdobeLager/Katta/Katta-14xxxx-Smart_eller_overvaaket-Chris/03-Lyd/VO/Kommentar%202_20.wav</pathurl>
							<rate>
								<timebase>30</timebase>
								<ntsc>TRUE</ntsc>
							</rate>
							<duration>390</duration>
							<timecode>
								<rate>
									<timebase>30</timebase>
									<ntsc>TRUE</ntsc>
								</rate>
								<string>00;00;00;00</string>
								<frame>0</frame>
								<displayformat>DF</displayformat>
								<reel>
									<name></name>
								</reel>
							</timecode>
							<media>
								<audio>
									<samplecharacteristics>
										<depth>16</depth>
										<samplerate>48000</samplerate>
									</samplecharacteristics>
									<channelcount>2</channelcount>
								</audio>
							</media>
						</file>
						<sourcetrack>
							<mediatype>audio</mediatype>
							<trackindex>1</trackindex>
						</sourcetrack>
							<filter>
								<effect>
									<name>Audio Pan</name>
									<effectid>audiopan</effectid>
									<effectcategory>audiopan</effectcategory>
									<effecttype>audiopan</effecttype>
									<mediatype>audio</mediatype>
									<parameter authoringApp="PremierePro">
										<parameterid>pan</parameterid>
										<name>Pan</name>
										<valuemin>-1</valuemin>
										<valuemax>1</valuemax>
										<value>0</value>
									</parameter>
								</effect>
							</filter>
						<link>
							<linkclipref>clipitem-1784</linkclipref>
							<mediatype>audio</mediatype>
							<trackindex>18</trackindex>
							<clipindex>13</clipindex>
							<groupindex>1</groupindex>
						</link>
						<link>
							<linkclipref>clipitem-1829</linkclipref>
							<mediatype>audio</mediatype>
							<trackindex>19</trackindex>
							<clipindex>13</clipindex>
							<groupindex>1</groupindex>
						</link>
						<logginginfo>
							<description></description>
							<scene></scene>
							<shottake></shottake>
							<lognote></lognote>
						</logginginfo>
						<labels>
							<label2>Caribbean</label2>
						</labels>
					</clipitem>
					<clipitem id="clipitem-1785" frameBlend="FALSE" PannerCurrentValue="0.5" PannerKeyframes="" PannerStartKeyframe="-91445760000000000,0.5,0,0,0,0,0,0" PannerIsInverted="true" PannerName="Balance">
						<masterclipid>masterclip-324</masterclipid>
						<name>Kommentar 2_20.wav</name>
						<enabled>TRUE</enabled>
						<duration>326</duration>
						<rate>
							<timebase>25</timebase>
							<ntsc>FALSE</ntsc>
						</rate>
						<start>15891</start>
						<end>15896</end>
						<in>321</in>
						<out>326</out>
						<file id="file-297"/>
						<sourcetrack>
							<mediatype>audio</mediatype>
							<trackindex>1</trackindex>
						</sourcetrack>
							<filter>
								<effect>
									<name>Audio Pan</name>
									<effectid>audiopan</effectid>
									<effectcategory>audiopan</effectcategory>
									<effecttype>audiopan</effecttype>
									<mediatype>audio</mediatype>
									<parameter authoringApp="PremierePro">
										<parameterid>pan</parameterid>
										<name>Pan</name>
										<valuemin>-1</valuemin>
										<valuemax>1</valuemax>
										<value>0</value>
									</parameter>
								</effect>
							</filter>
						<link>
							<linkclipref>clipitem-1785</linkclipref>
							<mediatype>audio</mediatype>
							<trackindex>18</trackindex>
							<clipindex>14</clipindex>
							<groupindex>1</groupindex>
						</link>
						<link>
							<linkclipref>clipitem-1830</linkclipref>
							<mediatype>audio</mediatype>
							<trackindex>19</trackindex>
							<clipindex>14</clipindex>
							<groupindex>1</groupindex>
						</link>
						<logginginfo>
							<description></description>
							<scene></scene>
							<shottake></shottake>
							<lognote></lognote>
						</logginginfo>
						<labels>
							<label2>Caribbean</label2>
						</labels>
					</clipitem>
					<clipitem id="clipitem-1786" frameBlend="FALSE" PannerCurrentValue="0.5" PannerKeyframes="" PannerStartKeyframe="-91445760000000000,0.5,0,0,0,0,0,0" PannerIsInverted="true" PannerName="Balance">
						<masterclipid>masterclip-325</masterclipid>
						<name>Kommentar 2_22.wav</name>
						<enabled>TRUE</enabled>
						<duration>271</duration>
						<rate>
							<timebase>25</timebase>
							<ntsc>FALSE</ntsc>
						</rate>
						<start>16858</start>
						<end>17121</end>
						<in>8</in>
						<out>271</out>
						<file id="file-298">
							<name>Kommentar 2_22.wav</name>
							<pathurl>file://localhost/Volumes/Brakka/AdobeLager/Katta/Katta-14xxxx-Smart_eller_overvaaket-Chris/03-Lyd/VO/Kommentar%202_22.wav</pathurl>
							<rate>
								<timebase>30</timebase>
								<ntsc>TRUE</ntsc>
							</rate>
							<duration>324</duration>
							<timecode>
								<rate>
									<timebase>30</timebase>
									<ntsc>TRUE</ntsc>
								</rate>
								<string>00;00;00;00</string>
								<frame>0</frame>
								<displayformat>DF</displayformat>
								<reel>
									<name></name>
								</reel>
							</timecode>
							<media>
								<audio>
									<samplecharacteristics>
										<depth>16</depth>
										<samplerate>48000</samplerate>
									</samplecharacteristics>
									<channelcount>2</channelcount>
								</audio>
							</media>
						</file>
						<sourcetrack>
							<mediatype>audio</mediatype>
							<trackindex>1</trackindex>
						</sourcetrack>
							<filter>
								<effect>
									<name>Audio Pan</name>
									<effectid>audiopan</effectid>
									<effectcategory>audiopan</effectcategory>
									<effecttype>audiopan</effecttype>
									<mediatype>audio</mediatype>
									<parameter authoringApp="PremierePro">
										<parameterid>pan</parameterid>
										<name>Pan</name>
										<valuemin>-1</valuemin>
										<valuemax>1</valuemax>
										<value>0</value>
									</parameter>
								</effect>
							</filter>
						<link>
							<linkclipref>clipitem-1786</linkclipref>
							<mediatype>audio</mediatype>
							<trackindex>18</trackindex>
							<clipindex>15</clipindex>
							<groupindex>1</groupindex>
						</link>
						<link>
							<linkclipref>clipitem-1831</linkclipref>
							<mediatype>audio</mediatype>
							<trackindex>19</trackindex>
							<clipindex>15</clipindex>
							<groupindex>1</groupindex>
						</link>
						<logginginfo>
							<description></description>
							<scene></scene>
							<shottake></shottake>
							<lognote></lognote>
						</logginginfo>
						<labels>
							<label2>Caribbean</label2>
						</labels>
					</clipitem>
					<clipitem id="clipitem-1787" frameBlend="FALSE" PannerCurrentValue="0.5" PannerKeyframes="" PannerStartKeyframe="-91445760000000000,0.5,0,0,0,0,0,0" PannerIsInverted="true" PannerName="Balance">
						<masterclipid>masterclip-326</masterclipid>
						<name>Kommentar 2_23.wav</name>
						<enabled>TRUE</enabled>
						<duration>952</duration>
						<rate>
							<timebase>25</timebase>
							<ntsc>FALSE</ntsc>
						</rate>
						<start>18438</start>
						<end>18643</end>
						<in>212</in>
						<out>417</out>
						<file id="file-299">
							<name>Kommentar 2_23.wav</name>
							<pathurl>file://localhost/Volumes/Brakka/AdobeLager/Katta/Katta-14xxxx-Smart_eller_overvaaket-Chris/03-Lyd/VO/Kommentar%202_23.wav</pathurl>
							<rate>
								<timebase>30</timebase>
								<ntsc>TRUE</ntsc>
							</rate>
							<duration>1141</duration>
							<timecode>
								<rate>
									<timebase>30</timebase>
									<ntsc>TRUE</ntsc>
								</rate>
								<string>00;00;00;00</string>
								<frame>0</frame>
								<displayformat>DF</displayformat>
								<reel>
									<name></name>
								</reel>
							</timecode>
							<media>
								<audio>
									<samplecharacteristics>
										<depth>16</depth>
										<samplerate>48000</samplerate>
									</samplecharacteristics>
									<channelcount>2</channelcount>
								</audio>
							</media>
						</file>
						<sourcetrack>
							<mediatype>audio</mediatype>
							<trackindex>1</trackindex>
						</sourcetrack>
							<filter>
								<effect>
									<name>Audio Pan</name>
									<effectid>audiopan</effectid>
									<effectcategory>audiopan</effectcategory>
									<effecttype>audiopan</effecttype>
									<mediatype>audio</mediatype>
									<parameter authoringApp="PremierePro">
										<parameterid>pan</parameterid>
										<name>Pan</name>
										<valuemin>-1</valuemin>
										<valuemax>1</valuemax>
										<value>0</value>
									</parameter>
								</effect>
							</filter>
						<link>
							<linkclipref>clipitem-1787</linkclipref>
							<mediatype>audio</mediatype>
							<trackindex>18</trackindex>
							<clipindex>16</clipindex>
							<groupindex>1</groupindex>
						</link>
						<link>
							<linkclipref>clipitem-1832</linkclipref>
							<mediatype>audio</mediatype>
							<trackindex>19</trackindex>
							<clipindex>16</clipindex>
							<groupindex>1</groupindex>
						</link>
						<logginginfo>
							<description></description>
							<scene></scene>
							<shottake></shottake>
							<lognote></lognote>
						</logginginfo>
						<labels>
							<label2>Caribbean</label2>
						</labels>
					</clipitem>
					<clipitem id="clipitem-1788" frameBlend="FALSE" PannerCurrentValue="0.5" PannerKeyframes="" PannerStartKeyframe="-91445760000000000,0.5,0,0,0,0,0,0" PannerIsInverted="true" PannerName="Balance">
						<masterclipid>masterclip-327</masterclipid>
						<name>Kommentar 2_24.wav</name>
						<enabled>TRUE</enabled>
						<duration>534</duration>
						<rate>
							<timebase>25</timebase>
							<ntsc>FALSE</ntsc>
						</rate>
						<start>20413</start>
						<end>20797</end>
						<in>78</in>
						<out>462</out>
						<file id="file-300">
							<name>Kommentar 2_24.wav</name>
							<pathurl>file://localhost/Volumes/Brakka/AdobeLager/Katta/Katta-14xxxx-Smart_eller_overvaaket-Chris/03-Lyd/VO/Kommentar%202_24.wav</pathurl>
							<rate>
								<timebase>30</timebase>
								<ntsc>TRUE</ntsc>
							</rate>
							<duration>640</duration>
							<timecode>
								<rate>
									<timebase>30</timebase>
									<ntsc>TRUE</ntsc>
								</rate>
								<string>00;00;00;00</string>
								<frame>0</frame>
								<displayformat>DF</displayformat>
								<reel>
									<name></name>
								</reel>
							</timecode>
							<media>
								<audio>
									<samplecharacteristics>
										<depth>16</depth>
										<samplerate>48000</samplerate>
									</samplecharacteristics>
									<channelcount>2</channelcount>
								</audio>
							</media>
						</file>
						<sourcetrack>
							<mediatype>audio</mediatype>
							<trackindex>1</trackindex>
						</sourcetrack>
							<filter>
								<effect>
									<name>Audio Levels</name>
									<effectid>audiolevels</effectid>
									<effectcategory>audiolevels</effectcategory>
									<effecttype>audiolevels</effecttype>
									<mediatype>audio</mediatype>
									<parameter authoringApp="PremierePro">
										<parameterid>level</parameterid>
										<name>Level</name>
										<valuemin>0</valuemin>
										<valuemax>3.98109</valuemax>
										<value>1.77406</value>
									</parameter>
								</effect>
							</filter>
							<filter>
								<effect>
									<name>Audio Pan</name>
									<effectid>audiopan</effectid>
									<effectcategory>audiopan</effectcategory>
									<effecttype>audiopan</effecttype>
									<mediatype>audio</mediatype>
									<parameter authoringApp="PremierePro">
										<parameterid>pan</parameterid>
										<name>Pan</name>
										<valuemin>-1</valuemin>
										<valuemax>1</valuemax>
										<value>0</value>
									</parameter>
								</effect>
							</filter>
						<link>
							<linkclipref>clipitem-1788</linkclipref>
							<mediatype>audio</mediatype>
							<trackindex>18</trackindex>
							<clipindex>17</clipindex>
							<groupindex>1</groupindex>
						</link>
						<link>
							<linkclipref>clipitem-1833</linkclipref>
							<mediatype>audio</mediatype>
							<trackindex>19</trackindex>
							<clipindex>17</clipindex>
							<groupindex>1</groupindex>
						</link>
						<logginginfo>
							<description></description>
							<scene></scene>
							<shottake></shottake>
							<lognote></lognote>
						</logginginfo>
						<labels>
							<label2>Caribbean</label2>
						</labels>
					</clipitem>
					<clipitem id="clipitem-1789" frameBlend="FALSE" PannerCurrentValue="0.5" PannerKeyframes="" PannerStartKeyframe="-91445760000000000,0.5,0,0,0,0,0,0" PannerIsInverted="true" PannerName="Balance">
						<masterclipid>masterclip-328</masterclipid>
						<name>Kommentar 2_26.wav</name>
						<enabled>TRUE</enabled>
						<duration>349</duration>
						<rate>
							<timebase>25</timebase>
							<ntsc>FALSE</ntsc>
						</rate>
						<start>21529</start>
						<end>21830</end>
						<in>8</in>
						<out>309</out>
						<file id="file-301">
							<name>Kommentar 2_26.wav</name>
							<pathurl>file://localhost/Volumes/Brakka/AdobeLager/Katta/Katta-14xxxx-Smart_eller_overvaaket-Chris/03-Lyd/VO/Kommentar%202_26.wav</pathurl>
							<rate>
								<timebase>30</timebase>
								<ntsc>TRUE</ntsc>
							</rate>
							<duration>418</duration>
							<timecode>
								<rate>
									<timebase>30</timebase>
									<ntsc>TRUE</ntsc>
								</rate>
								<string>00;00;00;00</string>
								<frame>0</frame>
								<displayformat>DF</displayformat>
								<reel>
									<name></name>
								</reel>
							</timecode>
							<media>
								<audio>
									<samplecharacteristics>
										<depth>16</depth>
										<samplerate>48000</samplerate>
									</samplecharacteristics>
									<channelcount>2</channelcount>
								</audio>
							</media>
						</file>
						<sourcetrack>
							<mediatype>audio</mediatype>
							<trackindex>1</trackindex>
						</sourcetrack>
							<filter>
								<effect>
									<name>Audio Pan</name>
									<effectid>audiopan</effectid>
									<effectcategory>audiopan</effectcategory>
									<effecttype>audiopan</effecttype>
									<mediatype>audio</mediatype>
									<parameter authoringApp="PremierePro">
										<parameterid>pan</parameterid>
										<name>Pan</name>
										<valuemin>-1</valuemin>
										<valuemax>1</valuemax>
										<value>0</value>
									</parameter>
								</effect>
							</filter>
						<link>
							<linkclipref>clipitem-1789</linkclipref>
							<mediatype>audio</mediatype>
							<trackindex>18</trackindex>
							<clipindex>18</clipindex>
							<groupindex>1</groupindex>
						</link>
						<link>
							<linkclipref>clipitem-1834</linkclipref>
							<mediatype>audio</mediatype>
							<trackindex>19</trackindex>
							<clipindex>18</clipindex>
							<groupindex>1</groupindex>
						</link>
						<logginginfo>
							<description></description>
							<scene></scene>
							<shottake></shottake>
							<lognote></lognote>
						</logginginfo>
						<labels>
							<label2>Caribbean</label2>
						</labels>
					</clipitem>
					<clipitem id="clipitem-1790" frameBlend="FALSE" PannerCurrentValue="0.5" PannerKeyframes="" PannerStartKeyframe="-91445760000000000,0.5,0,0,0,0,0,0" PannerIsInverted="true" PannerName="Balance">
						<masterclipid>masterclip-328</masterclipid>
						<name>Kommentar 2_26.wav</name>
						<enabled>TRUE</enabled>
						<duration>349</duration>
						<rate>
							<timebase>25</timebase>
							<ntsc>FALSE</ntsc>
						</rate>
						<start>21830</start>
						<end>21836</end>
						<in>343</in>
						<out>349</out>
						<file id="file-301"/>
						<sourcetrack>
							<mediatype>audio</mediatype>
							<trackindex>1</trackindex>
						</sourcetrack>
							<filter>
								<effect>
									<name>Audio Pan</name>
									<effectid>audiopan</effectid>
									<effectcategory>audiopan</effectcategory>
									<effecttype>audiopan</effecttype>
									<mediatype>audio</mediatype>
									<parameter authoringApp="PremierePro">
										<parameterid>pan</parameterid>
										<name>Pan</name>
										<valuemin>-1</valuemin>
										<valuemax>1</valuemax>
										<value>0</value>
									</parameter>
								</effect>
							</filter>
						<link>
							<linkclipref>clipitem-1790</linkclipref>
							<mediatype>audio</mediatype>
							<trackindex>18</trackindex>
							<clipindex>19</clipindex>
							<groupindex>1</groupindex>
						</link>
						<link>
							<linkclipref>clipitem-1835</linkclipref>
							<mediatype>audio</mediatype>
							<trackindex>19</trackindex>
							<clipindex>19</clipindex>
							<groupindex>1</groupindex>
						</link>
						<logginginfo>
							<description></description>
							<scene></scene>
							<shottake></shottake>
							<lognote></lognote>
						</logginginfo>
						<labels>
							<label2>Caribbean</label2>
						</labels>
					</clipitem>
					<clipitem id="clipitem-1791" frameBlend="FALSE" PannerCurrentValue="0.5" PannerKeyframes="" PannerStartKeyframe="-91445760000000000,0.5,0,0,0,0,0,0" PannerIsInverted="true" PannerName="Balance">
						<masterclipid>masterclip-329</masterclipid>
						<name>Kommentar 2_27.wav</name>
						<enabled>TRUE</enabled>
						<duration>919</duration>
						<rate>
							<timebase>25</timebase>
							<ntsc>FALSE</ntsc>
						</rate>
						<start>22151</start>
						<end>22301</end>
						<in>226</in>
						<out>376</out>
						<file id="file-302">
							<name>Kommentar 2_27.wav</name>
							<pathurl>file://localhost/Volumes/Brakka/AdobeLager/Katta/Katta-14xxxx-Smart_eller_overvaaket-Chris/03-Lyd/VO/Kommentar%202_27.wav</pathurl>
							<rate>
								<timebase>30</timebase>
								<ntsc>TRUE</ntsc>
							</rate>
							<duration>1101</duration>
							<timecode>
								<rate>
									<timebase>30</timebase>
									<ntsc>TRUE</ntsc>
								</rate>
								<string>00;00;00;00</string>
								<frame>0</frame>
								<displayformat>DF</displayformat>
								<reel>
									<name></name>
								</reel>
							</timecode>
							<media>
								<audio>
									<samplecharacteristics>
										<depth>16</depth>
										<samplerate>48000</samplerate>
									</samplecharacteristics>
									<channelcount>2</channelcount>
								</audio>
							</media>
						</file>
						<sourcetrack>
							<mediatype>audio</mediatype>
							<trackindex>1</trackindex>
						</sourcetrack>
							<filter>
								<effect>
									<name>Audio Pan</name>
									<effectid>audiopan</effectid>
									<effectcategory>audiopan</effectcategory>
									<effecttype>audiopan</effecttype>
									<mediatype>audio</mediatype>
									<parameter authoringApp="PremierePro">
										<parameterid>pan</parameterid>
										<name>Pan</name>
										<valuemin>-1</valuemin>
										<valuemax>1</valuemax>
										<value>0</value>
									</parameter>
								</effect>
							</filter>
						<link>
							<linkclipref>clipitem-1791</linkclipref>
							<mediatype>audio</mediatype>
							<trackindex>18</trackindex>
							<clipindex>20</clipindex>
							<groupindex>1</groupindex>
						</link>
						<link>
							<linkclipref>clipitem-1836</linkclipref>
							<mediatype>audio</mediatype>
							<trackindex>19</trackindex>
							<clipindex>20</clipindex>
							<groupindex>1</groupindex>
						</link>
						<logginginfo>
							<description></description>
							<scene></scene>
							<shottake></shottake>
							<lognote></lognote>
						</logginginfo>
						<labels>
							<label2>Caribbean</label2>
						</labels>
					</clipitem>
					<clipitem id="clipitem-1792" frameBlend="FALSE" PannerCurrentValue="0.5" PannerKeyframes="" PannerStartKeyframe="-91445760000000000,0.5,0,0,0,0,0,0" PannerIsInverted="true" PannerName="Balance">
						<masterclipid>masterclip-330</masterclipid>
						<name>Kommentar 2_36.wav</name>
						<enabled>TRUE</enabled>
						<duration>618</duration>
						<rate>
							<timebase>25</timebase>
							<ntsc>FALSE</ntsc>
						</rate>
						<start>22585</start>
						<end>23103</end>
						<in>76</in>
						<out>594</out>
						<file id="file-303">
							<name>Kommentar 2_36.wav</name>
							<pathurl>file://localhost/Volumes/Brakka/AdobeLager/Katta/Katta-14xxxx-Smart_eller_overvaaket-Chris/03-Lyd/VO/Kommentar%202_36.wav</pathurl>
							<rate>
								<timebase>30</timebase>
								<ntsc>TRUE</ntsc>
							</rate>
							<duration>740</duration>
							<timecode>
								<rate>
									<timebase>30</timebase>
									<ntsc>TRUE</ntsc>
								</rate>
								<string>00;00;00;00</string>
								<frame>0</frame>
								<displayformat>DF</displayformat>
								<reel>
									<name></name>
								</reel>
							</timecode>
							<media>
								<audio>
									<samplecharacteristics>
										<depth>16</depth>
										<samplerate>48000</samplerate>
									</samplecharacteristics>
									<channelcount>2</channelcount>
								</audio>
							</media>
						</file>
						<sourcetrack>
							<mediatype>audio</mediatype>
							<trackindex>1</trackindex>
						</sourcetrack>
							<filter>
								<effect>
									<name>Audio Pan</name>
									<effectid>audiopan</effectid>
									<effectcategory>audiopan</effectcategory>
									<effecttype>audiopan</effecttype>
									<mediatype>audio</mediatype>
									<parameter authoringApp="PremierePro">
										<parameterid>pan</parameterid>
										<name>Pan</name>
										<valuemin>-1</valuemin>
										<valuemax>1</valuemax>
										<value>0</value>
									</parameter>
								</effect>
							</filter>
						<link>
							<linkclipref>clipitem-1792</linkclipref>
							<mediatype>audio</mediatype>
							<trackindex>18</trackindex>
							<clipindex>21</clipindex>
							<groupindex>1</groupindex>
						</link>
						<link>
							<linkclipref>clipitem-1837</linkclipref>
							<mediatype>audio</mediatype>
							<trackindex>19</trackindex>
							<clipindex>21</clipindex>
							<groupindex>1</groupindex>
						</link>
						<logginginfo>
							<description></description>
							<scene></scene>
							<shottake></shottake>
							<lognote></lognote>
						</logginginfo>
						<labels>
							<label2>Caribbean</label2>
						</labels>
					</clipitem>
					<clipitem id="clipitem-1793" frameBlend="FALSE" PannerCurrentValue="0.5" PannerKeyframes="" PannerStartKeyframe="-91445760000000000,0.5,0,0,0,0,0,0" PannerIsInverted="true" PannerName="Balance">
						<masterclipid>masterclip-331</masterclipid>
						<name>Kommentar 2_37.wav</name>
						<enabled>TRUE</enabled>
						<duration>555</duration>
						<rate>
							<timebase>25</timebase>
							<ntsc>FALSE</ntsc>
						</rate>
						<start>24935</start>
						<end>25482</end>
						<in>8</in>
						<out>555</out>
						<file id="file-304">
							<name>Kommentar 2_37.wav</name>
							<pathurl>file://localhost/Volumes/Brakka/AdobeLager/Katta/Katta-14xxxx-Smart_eller_overvaaket-Chris/03-Lyd/VO/Kommentar%202_37.wav</pathurl>
							<rate>
								<timebase>30</timebase>
								<ntsc>TRUE</ntsc>
							</rate>
							<duration>665</duration>
							<timecode>
								<rate>
									<timebase>30</timebase>
									<ntsc>TRUE</ntsc>
								</rate>
								<string>00;00;00;00</string>
								<frame>0</frame>
								<displayformat>DF</displayformat>
								<reel>
									<name></name>
								</reel>
							</timecode>
							<media>
								<audio>
									<samplecharacteristics>
										<depth>16</depth>
										<samplerate>48000</samplerate>
									</samplecharacteristics>
									<channelcount>2</channelcount>
								</audio>
							</media>
						</file>
						<sourcetrack>
							<mediatype>audio</mediatype>
							<trackindex>1</trackindex>
						</sourcetrack>
							<filter>
								<effect>
									<name>Audio Pan</name>
									<effectid>audiopan</effectid>
									<effectcategory>audiopan</effectcategory>
									<effecttype>audiopan</effecttype>
									<mediatype>audio</mediatype>
									<parameter authoringApp="PremierePro">
										<parameterid>pan</parameterid>
										<name>Pan</name>
										<valuemin>-1</valuemin>
										<valuemax>1</valuemax>
										<value>0</value>
									</parameter>
								</effect>
							</filter>
						<link>
							<linkclipref>clipitem-1793</linkclipref>
							<mediatype>audio</mediatype>
							<trackindex>18</trackindex>
							<clipindex>22</clipindex>
							<groupindex>1</groupindex>
						</link>
						<link>
							<linkclipref>clipitem-1838</linkclipref>
							<mediatype>audio</mediatype>
							<trackindex>19</trackindex>
							<clipindex>22</clipindex>
							<groupindex>1</groupindex>
						</link>
						<logginginfo>
							<description></description>
							<scene></scene>
							<shottake></shottake>
							<lognote></lognote>
						</logginginfo>
						<labels>
							<label2>Caribbean</label2>
						</labels>
					</clipitem>
					<clipitem id="clipitem-1794" frameBlend="FALSE" PannerCurrentValue="0.5" PannerKeyframes="" PannerStartKeyframe="-91445760000000000,0.5,0,0,0,0,0,0" PannerIsInverted="true" PannerName="Balance">
						<masterclipid>masterclip-332</masterclipid>
						<name>Kommentar 2_39.wav</name>
						<enabled>TRUE</enabled>
						<duration>624</duration>
						<rate>
							<timebase>25</timebase>
							<ntsc>FALSE</ntsc>
						</rate>
						<start>27253</start>
						<end>27378</end>
						<in>99</in>
						<out>224</out>
						<file id="file-305">
							<name>Kommentar 2_39.wav</name>
							<pathurl>file://localhost/Volumes/Brakka/AdobeLager/Katta/Katta-14xxxx-Smart_eller_overvaaket-Chris/03-Lyd/VO/Kommentar%202_39.wav</pathurl>
							<rate>
								<timebase>30</timebase>
								<ntsc>TRUE</ntsc>
							</rate>
							<duration>748</duration>
							<timecode>
								<rate>
									<timebase>30</timebase>
									<ntsc>TRUE</ntsc>
								</rate>
								<string>00;00;00;00</string>
								<frame>0</frame>
								<displayformat>DF</displayformat>
								<reel>
									<name></name>
								</reel>
							</timecode>
							<media>
								<audio>
									<samplecharacteristics>
										<depth>16</depth>
										<samplerate>48000</samplerate>
									</samplecharacteristics>
									<channelcount>2</channelcount>
								</audio>
							</media>
						</file>
						<sourcetrack>
							<mediatype>audio</mediatype>
							<trackindex>1</trackindex>
						</sourcetrack>
							<filter>
								<effect>
									<name>Audio Pan</name>
									<effectid>audiopan</effectid>
									<effectcategory>audiopan</effectcategory>
									<effecttype>audiopan</effecttype>
									<mediatype>audio</mediatype>
									<parameter authoringApp="PremierePro">
										<parameterid>pan</parameterid>
										<name>Pan</name>
										<valuemin>-1</valuemin>
										<valuemax>1</valuemax>
										<value>0</value>
									</parameter>
								</effect>
							</filter>
						<link>
							<linkclipref>clipitem-1794</linkclipref>
							<mediatype>audio</mediatype>
							<trackindex>18</trackindex>
							<clipindex>23</clipindex>
							<groupindex>1</groupindex>
						</link>
						<link>
							<linkclipref>clipitem-1839</linkclipref>
							<mediatype>audio</mediatype>
							<trackindex>19</trackindex>
							<clipindex>23</clipindex>
							<groupindex>1</groupindex>
						</link>
						<logginginfo>
							<description></description>
							<scene></scene>
							<shottake></shottake>
							<lognote></lognote>
						</logginginfo>
						<labels>
							<label2>Caribbean</label2>
						</labels>
					</clipitem>
					<clipitem id="clipitem-1795" frameBlend="FALSE" PannerCurrentValue="0.5" PannerKeyframes="" PannerStartKeyframe="-91445760000000000,0.5,0,0,0,0,0,0" PannerIsInverted="true" PannerName="Balance">
						<masterclipid>masterclip-332</masterclipid>
						<name>Kommentar 2_39.wav</name>
						<enabled>TRUE</enabled>
						<duration>624</duration>
						<rate>
							<timebase>25</timebase>
							<ntsc>FALSE</ntsc>
						</rate>
						<start>27378</start>
						<end>27490</end>
						<in>233</in>
						<out>345</out>
						<file id="file-305"/>
						<sourcetrack>
							<mediatype>audio</mediatype>
							<trackindex>1</trackindex>
						</sourcetrack>
							<filter>
								<effect>
									<name>Audio Pan</name>
									<effectid>audiopan</effectid>
									<effectcategory>audiopan</effectcategory>
									<effecttype>audiopan</effecttype>
									<mediatype>audio</mediatype>
									<parameter authoringApp="PremierePro">
										<parameterid>pan</parameterid>
										<name>Pan</name>
										<valuemin>-1</valuemin>
										<valuemax>1</valuemax>
										<value>0</value>
									</parameter>
								</effect>
							</filter>
						<link>
							<linkclipref>clipitem-1795</linkclipref>
							<mediatype>audio</mediatype>
							<trackindex>18</trackindex>
							<clipindex>24</clipindex>
							<groupindex>1</groupindex>
						</link>
						<link>
							<linkclipref>clipitem-1840</linkclipref>
							<mediatype>audio</mediatype>
							<trackindex>19</trackindex>
							<clipindex>24</clipindex>
							<groupindex>1</groupindex>
						</link>
						<logginginfo>
							<description></description>
							<scene></scene>
							<shottake></shottake>
							<lognote></lognote>
						</logginginfo>
						<labels>
							<label2>Caribbean</label2>
						</labels>
					</clipitem>
					<clipitem id="clipitem-1796" frameBlend="FALSE" PannerCurrentValue="0.5" PannerKeyframes="" PannerStartKeyframe="-91445760000000000,0.5,0,0,0,0,0,0" PannerIsInverted="true" PannerName="Balance">
						<masterclipid>masterclip-333</masterclipid>
						<name>Kommentar 2_41.wav</name>
						<enabled>TRUE</enabled>
						<duration>370</duration>
						<rate>
							<timebase>25</timebase>
							<ntsc>FALSE</ntsc>
						</rate>
						<start>27490</start>
						<end>27678</end>
						<in>161</in>
						<out>349</out>
						<file id="file-306">
							<name>Kommentar 2_41.wav</name>
							<pathurl>file://localhost/Volumes/Brakka/AdobeLager/Katta/Katta-14xxxx-Smart_eller_overvaaket-Chris/03-Lyd/VO/Kommentar%202_41.wav</pathurl>
							<rate>
								<timebase>30</timebase>
								<ntsc>TRUE</ntsc>
							</rate>
							<duration>443</duration>
							<timecode>
								<rate>
									<timebase>30</timebase>
									<ntsc>TRUE</ntsc>
								</rate>
								<string>00;00;00;00</string>
								<frame>0</frame>
								<displayformat>DF</displayformat>
								<reel>
									<name></name>
								</reel>
							</timecode>
							<media>
								<audio>
									<samplecharacteristics>
										<depth>16</depth>
										<samplerate>48000</samplerate>
									</samplecharacteristics>
									<channelcount>2</channelcount>
								</audio>
							</media>
						</file>
						<sourcetrack>
							<mediatype>audio</mediatype>
							<trackindex>1</trackindex>
						</sourcetrack>
							<filter>
								<effect>
									<name>Audio Pan</name>
									<effectid>audiopan</effectid>
									<effectcategory>audiopan</effectcategory>
									<effecttype>audiopan</effecttype>
									<mediatype>audio</mediatype>
									<parameter authoringApp="PremierePro">
										<parameterid>pan</parameterid>
										<name>Pan</name>
										<valuemin>-1</valuemin>
										<valuemax>1</valuemax>
										<value>0</value>
									</parameter>
								</effect>
							</filter>
						<link>
							<linkclipref>clipitem-1796</linkclipref>
							<mediatype>audio</mediatype>
							<trackindex>18</trackindex>
							<clipindex>25</clipindex>
							<groupindex>1</groupindex>
						</link>
						<link>
							<linkclipref>clipitem-1841</linkclipref>
							<mediatype>audio</mediatype>
							<trackindex>19</trackindex>
							<clipindex>25</clipindex>
							<groupindex>1</groupindex>
						</link>
						<logginginfo>
							<description></description>
							<scene></scene>
							<shottake></shottake>
							<lognote></lognote>
						</logginginfo>
						<labels>
							<label2>Caribbean</label2>
						</labels>
					</clipitem>
					<clipitem id="clipitem-1797" frameBlend="FALSE" PannerCurrentValue="0.5" PannerKeyframes="" PannerStartKeyframe="-91445760000000000,0.5,0,0,0,0,0,0" PannerIsInverted="true" PannerName="Balance">
						<masterclipid>masterclip-334</masterclipid>
						<name>Kommentar 2_42.wav</name>
						<enabled>TRUE</enabled>
						<duration>577</duration>
						<rate>
							<timebase>25</timebase>
							<ntsc>FALSE</ntsc>
						</rate>
						<start>29137</start>
						<end>29256</end>
						<in>94</in>
						<out>213</out>
						<file id="file-307">
							<name>Kommentar 2_42.wav</name>
							<pathurl>file://localhost/Volumes/Brakka/AdobeLager/Katta/Katta-14xxxx-Smart_eller_overvaaket-Chris/03-Lyd/VO/Kommentar%202_42.wav</pathurl>
							<rate>
								<timebase>30</timebase>
								<ntsc>TRUE</ntsc>
							</rate>
							<duration>691</duration>
							<timecode>
								<rate>
									<timebase>30</timebase>
									<ntsc>TRUE</ntsc>
								</rate>
								<string>00;00;00;00</string>
								<frame>0</frame>
								<displayformat>DF</displayformat>
								<reel>
									<name></name>
								</reel>
							</timecode>
							<media>
								<audio>
									<samplecharacteristics>
										<depth>16</depth>
										<samplerate>48000</samplerate>
									</samplecharacteristics>
									<channelcount>2</channelcount>
								</audio>
							</media>
						</file>
						<sourcetrack>
							<mediatype>audio</mediatype>
							<trackindex>1</trackindex>
						</sourcetrack>
							<filter>
								<effect>
									<name>Audio Pan</name>
									<effectid>audiopan</effectid>
									<effectcategory>audiopan</effectcategory>
									<effecttype>audiopan</effecttype>
									<mediatype>audio</mediatype>
									<parameter authoringApp="PremierePro">
										<parameterid>pan</parameterid>
										<name>Pan</name>
										<valuemin>-1</valuemin>
										<valuemax>1</valuemax>
										<value>0</value>
									</parameter>
								</effect>
							</filter>
						<link>
							<linkclipref>clipitem-1797</linkclipref>
							<mediatype>audio</mediatype>
							<trackindex>18</trackindex>
							<clipindex>26</clipindex>
							<groupindex>1</groupindex>
						</link>
						<link>
							<linkclipref>clipitem-1842</linkclipref>
							<mediatype>audio</mediatype>
							<trackindex>19</trackindex>
							<clipindex>26</clipindex>
							<groupindex>1</groupindex>
						</link>
						<logginginfo>
							<description></description>
							<scene></scene>
							<shottake></shottake>
							<lognote></lognote>
						</logginginfo>
						<labels>
							<label2>Caribbean</label2>
						</labels>
					</clipitem>
					<clipitem id="clipitem-1798" frameBlend="FALSE" PannerCurrentValue="0.5" PannerKeyframes="" PannerStartKeyframe="-91445760000000000,0.5,0,0,0,0,0,0" PannerIsInverted="true" PannerName="Balance">
						<masterclipid>masterclip-335</masterclipid>
						<name>Kommentar 2_43.wav</name>
						<enabled>TRUE</enabled>
						<duration>1487</duration>
						<rate>
							<timebase>25</timebase>
							<ntsc>FALSE</ntsc>
						</rate>
						<start>29479</start>
						<end>29552</end>
						<in>232</in>
						<out>305</out>
						<file id="file-308">
							<name>Kommentar 2_43.wav</name>
							<pathurl>file://localhost/Volumes/Brakka/AdobeLager/Katta/Katta-14xxxx-Smart_eller_overvaaket-Chris/03-Lyd/VO/Kommentar%202_43.wav</pathurl>
							<rate>
								<timebase>30</timebase>
								<ntsc>TRUE</ntsc>
							</rate>
							<duration>1782</duration>
							<timecode>
								<rate>
									<timebase>30</timebase>
									<ntsc>TRUE</ntsc>
								</rate>
								<string>00;00;00;00</string>
								<frame>0</frame>
								<displayformat>DF</displayformat>
								<reel>
									<name></name>
								</reel>
							</timecode>
							<media>
								<audio>
									<samplecharacteristics>
										<depth>16</depth>
										<samplerate>48000</samplerate>
									</samplecharacteristics>
									<channelcount>2</channelcount>
								</audio>
							</media>
						</file>
						<sourcetrack>
							<mediatype>audio</mediatype>
							<trackindex>1</trackindex>
						</sourcetrack>
							<filter>
								<effect>
									<name>Audio Pan</name>
									<effectid>audiopan</effectid>
									<effectcategory>audiopan</effectcategory>
									<effecttype>audiopan</effecttype>
									<mediatype>audio</mediatype>
									<parameter authoringApp="PremierePro">
										<parameterid>pan</parameterid>
										<name>Pan</name>
										<valuemin>-1</valuemin>
										<valuemax>1</valuemax>
										<value>0</value>
									</parameter>
								</effect>
							</filter>
						<link>
							<linkclipref>clipitem-1798</linkclipref>
							<mediatype>audio</mediatype>
							<trackindex>18</trackindex>
							<clipindex>27</clipindex>
							<groupindex>1</groupindex>
						</link>
						<link>
							<linkclipref>clipitem-1843</linkclipref>
							<mediatype>audio</mediatype>
							<trackindex>19</trackindex>
							<clipindex>27</clipindex>
							<groupindex>1</groupindex>
						</link>
						<logginginfo>
							<description></description>
							<scene></scene>
							<shottake></shottake>
							<lognote></lognote>
						</logginginfo>
						<labels>
							<label2>Caribbean</label2>
						</labels>
					</clipitem>
					<clipitem id="clipitem-1799" frameBlend="FALSE" PannerCurrentValue="0.5" PannerKeyframes="" PannerStartKeyframe="-91445760000000000,0.5,0,0,0,0,0,0" PannerIsInverted="true" PannerName="Balance">
						<masterclipid>masterclip-336</masterclipid>
						<name>Komm 2_3.wav</name>
						<enabled>TRUE</enabled>
						<duration>289</duration>
						<rate>
							<timebase>25</timebase>
							<ntsc>FALSE</ntsc>
						</rate>
						<start>30646</start>
						<end>30927</end>
						<in>8</in>
						<out>289</out>
						<file id="file-309">
							<name>Komm 2_3.wav</name>
							<pathurl>file://localhost/Volumes/Brakka/AdobeLager/Komm%202_3.wav</pathurl>
							<rate>
								<timebase>30</timebase>
								<ntsc>TRUE</ntsc>
							</rate>
							<duration>346</duration>
							<timecode>
								<rate>
									<timebase>30</timebase>
									<ntsc>TRUE</ntsc>
								</rate>
								<string>00;00;00;00</string>
								<frame>0</frame>
								<displayformat>DF</displayformat>
								<reel>
									<name></name>
								</reel>
							</timecode>
							<media>
								<audio>
									<samplecharacteristics>
										<depth>16</depth>
										<samplerate>48000</samplerate>
									</samplecharacteristics>
									<channelcount>2</channelcount>
								</audio>
							</media>
						</file>
						<sourcetrack>
							<mediatype>audio</mediatype>
							<trackindex>1</trackindex>
						</sourcetrack>
							<filter>
								<effect>
									<name>Audio Pan</name>
									<effectid>audiopan</effectid>
									<effectcategory>audiopan</effectcategory>
									<effecttype>audiopan</effecttype>
									<mediatype>audio</mediatype>
									<parameter authoringApp="PremierePro">
										<parameterid>pan</parameterid>
										<name>Pan</name>
										<valuemin>-1</valuemin>
										<valuemax>1</valuemax>
										<value>0</value>
									</parameter>
								</effect>
							</filter>
						<link>
							<linkclipref>clipitem-1799</linkclipref>
							<mediatype>audio</mediatype>
							<trackindex>18</trackindex>
							<clipindex>28</clipindex>
							<groupindex>1</groupindex>
						</link>
						<link>
							<linkclipref>clipitem-1844</linkclipref>
							<mediatype>audio</mediatype>
							<trackindex>19</trackindex>
							<clipindex>28</clipindex>
							<groupindex>1</groupindex>
						</link>
						<logginginfo>
							<description></description>
							<scene></scene>
							<shottake></shottake>
							<lognote></lognote>
						</logginginfo>
						<labels>
							<label2>Caribbean</label2>
						</labels>
					</clipitem>
					<clipitem id="clipitem-1800" frameBlend="FALSE" PannerCurrentValue="0.5" PannerKeyframes="" PannerStartKeyframe="-91445760000000000,0.5,0,0,0,0,0,0" PannerIsInverted="true" PannerName="Balance">
						<masterclipid>masterclip-337</masterclipid>
						<name>Komm 2_4.wav</name>
						<enabled>TRUE</enabled>
						<duration>393</duration>
						<rate>
							<timebase>25</timebase>
							<ntsc>FALSE</ntsc>
						</rate>
						<start>30927</start>
						<end>30944</end>
						<in>8</in>
						<out>25</out>
						<file id="file-310">
							<name>Komm 2_4.wav</name>
							<pathurl>file://localhost/Volumes/Brakka/AdobeLager/Komm%202_4.wav</pathurl>
							<rate>
								<timebase>30</timebase>
								<ntsc>TRUE</ntsc>
							</rate>
							<duration>471</duration>
							<timecode>
								<rate>
									<timebase>30</timebase>
									<ntsc>TRUE</ntsc>
								</rate>
								<string>00;00;00;00</string>
								<frame>0</frame>
								<displayformat>DF</displayformat>
								<reel>
									<name></name>
								</reel>
							</timecode>
							<media>
								<audio>
									<samplecharacteristics>
										<depth>16</depth>
										<samplerate>48000</samplerate>
									</samplecharacteristics>
									<channelcount>2</channelcount>
								</audio>
							</media>
						</file>
						<sourcetrack>
							<mediatype>audio</mediatype>
							<trackindex>1</trackindex>
						</sourcetrack>
							<filter>
								<effect>
									<name>Audio Pan</name>
									<effectid>audiopan</effectid>
									<effectcategory>audiopan</effectcategory>
									<effecttype>audiopan</effecttype>
									<mediatype>audio</mediatype>
									<parameter authoringApp="PremierePro">
										<parameterid>pan</parameterid>
										<name>Pan</name>
										<valuemin>-1</valuemin>
										<valuemax>1</valuemax>
										<value>0</value>
									</parameter>
								</effect>
							</filter>
						<link>
							<linkclipref>clipitem-1800</linkclipref>
							<mediatype>audio</mediatype>
							<trackindex>18</trackindex>
							<clipindex>29</clipindex>
							<groupindex>1</groupindex>
						</link>
						<link>
							<linkclipref>clipitem-1845</linkclipref>
							<mediatype>audio</mediatype>
							<trackindex>19</trackindex>
							<clipindex>29</clipindex>
							<groupindex>1</groupindex>
						</link>
						<logginginfo>
							<description></description>
							<scene></scene>
							<shottake></shottake>
							<lognote></lognote>
						</logginginfo>
						<labels>
							<label2>Caribbean</label2>
						</labels>
					</clipitem>
					<clipitem id="clipitem-1801" frameBlend="FALSE" PannerCurrentValue="0.5" PannerKeyframes="" PannerStartKeyframe="-91445760000000000,0.5,0,0,0,0,0,0" PannerIsInverted="true" PannerName="Balance">
						<masterclipid>masterclip-337</masterclipid>
						<name>Komm 2_4.wav</name>
						<enabled>TRUE</enabled>
						<duration>393</duration>
						<rate>
							<timebase>25</timebase>
							<ntsc>FALSE</ntsc>
						</rate>
						<start>30944</start>
						<end>31216</end>
						<in>121</in>
						<out>393</out>
						<file id="file-310"/>
						<sourcetrack>
							<mediatype>audio</mediatype>
							<trackindex>1</trackindex>
						</sourcetrack>
							<filter>
								<effect>
									<name>Audio Pan</name>
									<effectid>audiopan</effectid>
									<effectcategory>audiopan</effectcategory>
									<effecttype>audiopan</effecttype>
									<mediatype>audio</mediatype>
									<parameter authoringApp="PremierePro">
										<parameterid>pan</parameterid>
										<name>Pan</name>
										<valuemin>-1</valuemin>
										<valuemax>1</valuemax>
										<value>0</value>
									</parameter>
								</effect>
							</filter>
						<link>
							<linkclipref>clipitem-1801</linkclipref>
							<mediatype>audio</mediatype>
							<trackindex>18</trackindex>
							<clipindex>30</clipindex>
							<groupindex>1</groupindex>
						</link>
						<link>
							<linkclipref>clipitem-1846</linkclipref>
							<mediatype>audio</mediatype>
							<trackindex>19</trackindex>
							<clipindex>30</clipindex>
							<groupindex>1</groupindex>
						</link>
						<logginginfo>
							<description></description>
							<scene></scene>
							<shottake></shottake>
							<lognote></lognote>
						</logginginfo>
						<labels>
							<label2>Caribbean</label2>
						</labels>
					</clipitem>
					<clipitem id="clipitem-1802" frameBlend="FALSE" PannerCurrentValue="0.5" PannerKeyframes="" PannerStartKeyframe="-91445760000000000,0.5,0,0,0,0,0,0" PannerIsInverted="true" PannerName="Balance">
						<masterclipid>masterclip-338</masterclipid>
						<name>Kommentar 2_52.wav</name>
						<enabled>TRUE</enabled>
						<duration>1217</duration>
						<rate>
							<timebase>25</timebase>
							<ntsc>FALSE</ntsc>
						</rate>
						<start>31675</start>
						<end>31998</end>
						<in>8</in>
						<out>331</out>
						<file id="file-311">
							<name>Kommentar 2_52.wav</name>
							<pathurl>file://localhost/Volumes/Brakka/AdobeLager/Katta/Katta-14xxxx-Smart_eller_overvaaket-Chris/03-Lyd/VO/Kommentar%202_52.wav</pathurl>
							<rate>
								<timebase>30</timebase>
								<ntsc>TRUE</ntsc>
							</rate>
							<duration>1458</duration>
							<timecode>
								<rate>
									<timebase>30</timebase>
									<ntsc>TRUE</ntsc>
								</rate>
								<string>00;00;00;00</string>
								<frame>0</frame>
								<displayformat>DF</displayformat>
								<reel>
									<name></name>
								</reel>
							</timecode>
							<media>
								<audio>
									<samplecharacteristics>
										<depth>16</depth>
										<samplerate>48000</samplerate>
									</samplecharacteristics>
									<channelcount>2</channelcount>
								</audio>
							</media>
						</file>
						<sourcetrack>
							<mediatype>audio</mediatype>
							<trackindex>1</trackindex>
						</sourcetrack>
							<filter>
								<effect>
									<name>Audio Pan</name>
									<effectid>audiopan</effectid>
									<effectcategory>audiopan</effectcategory>
									<effecttype>audiopan</effecttype>
									<mediatype>audio</mediatype>
									<parameter authoringApp="PremierePro">
										<parameterid>pan</parameterid>
										<name>Pan</name>
										<valuemin>-1</valuemin>
										<valuemax>1</valuemax>
										<value>0</value>
									</parameter>
								</effect>
							</filter>
						<link>
							<linkclipref>clipitem-1802</linkclipref>
							<mediatype>audio</mediatype>
							<trackindex>18</trackindex>
							<clipindex>31</clipindex>
							<groupindex>1</groupindex>
						</link>
						<link>
							<linkclipref>clipitem-1847</linkclipref>
							<mediatype>audio</mediatype>
							<trackindex>19</trackindex>
							<clipindex>31</clipindex>
							<groupindex>1</groupindex>
						</link>
						<logginginfo>
							<description></description>
							<scene></scene>
							<shottake></shottake>
							<lognote></lognote>
						</logginginfo>
						<labels>
							<label2>Caribbean</label2>
						</labels>
					</clipitem>
					<clipitem id="clipitem-1803" frameBlend="FALSE" PannerCurrentValue="0.5" PannerKeyframes="" PannerStartKeyframe="-91445760000000000,0.5,0,0,0,0,0,0" PannerIsInverted="true" PannerName="Balance">
						<masterclipid>masterclip-339</masterclipid>
						<name>Kommentar 2_53.wav</name>
						<enabled>TRUE</enabled>
						<duration>804</duration>
						<rate>
							<timebase>25</timebase>
							<ntsc>FALSE</ntsc>
						</rate>
						<start>32132</start>
						<end>32228</end>
						<in>8</in>
						<out>104</out>
						<file id="file-312">
							<name>Kommentar 2_53.wav</name>
							<pathurl>file://localhost/Volumes/Brakka/AdobeLager/Katta/Katta-14xxxx-Smart_eller_overvaaket-Chris/03-Lyd/VO/Kommentar%202_53.wav</pathurl>
							<rate>
								<timebase>30</timebase>
								<ntsc>TRUE</ntsc>
							</rate>
							<duration>963</duration>
							<timecode>
								<rate>
									<timebase>30</timebase>
									<ntsc>TRUE</ntsc>
								</rate>
								<string>00;00;00;00</string>
								<frame>0</frame>
								<displayformat>DF</displayformat>
								<reel>
									<name></name>
								</reel>
							</timecode>
							<media>
								<audio>
									<samplecharacteristics>
										<depth>16</depth>
										<samplerate>48000</samplerate>
									</samplecharacteristics>
									<channelcount>2</channelcount>
								</audio>
							</media>
						</file>
						<sourcetrack>
							<mediatype>audio</mediatype>
							<trackindex>1</trackindex>
						</sourcetrack>
							<filter>
								<effect>
									<name>Audio Pan</name>
									<effectid>audiopan</effectid>
									<effectcategory>audiopan</effectcategory>
									<effecttype>audiopan</effecttype>
									<mediatype>audio</mediatype>
									<parameter authoringApp="PremierePro">
										<parameterid>pan</parameterid>
										<name>Pan</name>
										<valuemin>-1</valuemin>
										<valuemax>1</valuemax>
										<value>0</value>
									</parameter>
								</effect>
							</filter>
						<link>
							<linkclipref>clipitem-1803</linkclipref>
							<mediatype>audio</mediatype>
							<trackindex>18</trackindex>
							<clipindex>32</clipindex>
							<groupindex>1</groupindex>
						</link>
						<link>
							<linkclipref>clipitem-1848</linkclipref>
							<mediatype>audio</mediatype>
							<trackindex>19</trackindex>
							<clipindex>32</clipindex>
							<groupindex>1</groupindex>
						</link>
						<logginginfo>
							<description></description>
							<scene></scene>
							<shottake></shottake>
							<lognote></lognote>
						</logginginfo>
						<labels>
							<label2>Caribbean</label2>
						</labels>
					</clipitem>
					<clipitem id="clipitem-1804" frameBlend="FALSE" PannerCurrentValue="0.5" PannerKeyframes="" PannerStartKeyframe="-91445760000000000,0.5,0,0,0,0,0,0" PannerIsInverted="true" PannerName="Balance">
						<masterclipid>masterclip-339</masterclipid>
						<name>Kommentar 2_53.wav</name>
						<enabled>TRUE</enabled>
						<duration>804</duration>
						<rate>
							<timebase>25</timebase>
							<ntsc>FALSE</ntsc>
						</rate>
						<start>32228</start>
						<end>32427</end>
						<in>130</in>
						<out>329</out>
						<file id="file-312"/>
						<sourcetrack>
							<mediatype>audio</mediatype>
							<trackindex>1</trackindex>
						</sourcetrack>
							<filter>
								<effect>
									<name>Audio Pan</name>
									<effectid>audiopan</effectid>
									<effectcategory>audiopan</effectcategory>
									<effecttype>audiopan</effecttype>
									<mediatype>audio</mediatype>
									<parameter authoringApp="PremierePro">
										<parameterid>pan</parameterid>
										<name>Pan</name>
										<valuemin>-1</valuemin>
										<valuemax>1</valuemax>
										<value>0</value>
									</parameter>
								</effect>
							</filter>
						<link>
							<linkclipref>clipitem-1804</linkclipref>
							<mediatype>audio</mediatype>
							<trackindex>18</trackindex>
							<clipindex>33</clipindex>
							<groupindex>1</groupindex>
						</link>
						<link>
							<linkclipref>clipitem-1849</linkclipref>
							<mediatype>audio</mediatype>
							<trackindex>19</trackindex>
							<clipindex>33</clipindex>
							<groupindex>1</groupindex>
						</link>
						<logginginfo>
							<description></description>
							<scene></scene>
							<shottake></shottake>
							<lognote></lognote>
						</logginginfo>
						<labels>
							<label2>Caribbean</label2>
						</labels>
					</clipitem>
					<clipitem id="clipitem-1805" frameBlend="FALSE" PannerCurrentValue="0.5" PannerKeyframes="" PannerStartKeyframe="-91445760000000000,0.5,0,0,0,0,0,0" PannerIsInverted="true" PannerName="Balance">
						<masterclipid>masterclip-339</masterclipid>
						<name>Kommentar 2_53.wav</name>
						<enabled>TRUE</enabled>
						<duration>804</duration>
						<rate>
							<timebase>25</timebase>
							<ntsc>FALSE</ntsc>
						</rate>
						<start>32427</start>
						<end>32516</end>
						<in>349</in>
						<out>438</out>
						<file id="file-312"/>
						<sourcetrack>
							<mediatype>audio</mediatype>
							<trackindex>1</trackindex>
						</sourcetrack>
							<filter>
								<effect>
									<name>Audio Pan</name>
									<effectid>audiopan</effectid>
									<effectcategory>audiopan</effectcategory>
									<effecttype>audiopan</effecttype>
									<mediatype>audio</mediatype>
									<parameter authoringApp="PremierePro">
										<parameterid>pan</parameterid>
										<name>Pan</name>
										<valuemin>-1</valuemin>
										<valuemax>1</valuemax>
										<value>0</value>
									</parameter>
								</effect>
							</filter>
						<link>
							<linkclipref>clipitem-1805</linkclipref>
							<mediatype>audio</mediatype>
							<trackindex>18</trackindex>
							<clipindex>34</clipindex>
							<groupindex>1</groupindex>
						</link>
						<link>
							<linkclipref>clipitem-1850</linkclipref>
							<mediatype>audio</mediatype>
							<trackindex>19</trackindex>
							<clipindex>34</clipindex>
							<groupindex>1</groupindex>
						</link>
						<logginginfo>
							<description></description>
							<scene></scene>
							<shottake></shottake>
							<lognote></lognote>
						</logginginfo>
						<labels>
							<label2>Caribbean</label2>
						</labels>
					</clipitem>
					<clipitem id="clipitem-1806" frameBlend="FALSE" PannerCurrentValue="0.5" PannerKeyframes="" PannerStartKeyframe="-91445760000000000,0.5,0,0,0,0,0,0" PannerIsInverted="true" PannerName="Balance">
						<masterclipid>masterclip-340</masterclipid>
						<name>Komm 2_5.wav</name>
						<enabled>TRUE</enabled>
						<duration>314</duration>
						<rate>
							<timebase>25</timebase>
							<ntsc>FALSE</ntsc>
						</rate>
						<start>32516</start>
						<end>32686</end>
						<in>49</in>
						<out>219</out>
						<file id="file-313">
							<name>Komm 2_5.wav</name>
							<pathurl>file://localhost/Volumes/Brakka/AdobeLager/Komm%202_5.wav</pathurl>
							<rate>
								<timebase>30</timebase>
								<ntsc>TRUE</ntsc>
							</rate>
							<duration>376</duration>
							<timecode>
								<rate>
									<timebase>30</timebase>
									<ntsc>TRUE</ntsc>
								</rate>
								<string>00;00;00;00</string>
								<frame>0</frame>
								<displayformat>DF</displayformat>
								<reel>
									<name></name>
								</reel>
							</timecode>
							<media>
								<audio>
									<samplecharacteristics>
										<depth>16</depth>
										<samplerate>48000</samplerate>
									</samplecharacteristics>
									<channelcount>2</channelcount>
								</audio>
							</media>
						</file>
						<sourcetrack>
							<mediatype>audio</mediatype>
							<trackindex>1</trackindex>
						</sourcetrack>
							<filter>
								<effect>
									<name>Audio Pan</name>
									<effectid>audiopan</effectid>
									<effectcategory>audiopan</effectcategory>
									<effecttype>audiopan</effecttype>
									<mediatype>audio</mediatype>
									<parameter authoringApp="PremierePro">
										<parameterid>pan</parameterid>
										<name>Pan</name>
										<valuemin>-1</valuemin>
										<valuemax>1</valuemax>
										<value>0</value>
									</parameter>
								</effect>
							</filter>
						<link>
							<linkclipref>clipitem-1806</linkclipref>
							<mediatype>audio</mediatype>
							<trackindex>18</trackindex>
							<clipindex>35</clipindex>
							<groupindex>1</groupindex>
						</link>
						<link>
							<linkclipref>clipitem-1851</linkclipref>
							<mediatype>audio</mediatype>
							<trackindex>19</trackindex>
							<clipindex>35</clipindex>
							<groupindex>1</groupindex>
						</link>
						<logginginfo>
							<description></description>
							<scene></scene>
							<shottake></shottake>
							<lognote></lognote>
						</logginginfo>
						<labels>
							<label2>Caribbean</label2>
						</labels>
					</clipitem>
					<clipitem id="clipitem-1807" frameBlend="FALSE" PannerCurrentValue="0.5" PannerKeyframes="" PannerStartKeyframe="-91445760000000000,0.5,0,0,0,0,0,0" PannerIsInverted="true" PannerName="Balance">
						<masterclipid>masterclip-341</masterclipid>
						<name>Komm 2_6.wav</name>
						<enabled>TRUE</enabled>
						<duration>327</duration>
						<rate>
							<timebase>25</timebase>
							<ntsc>FALSE</ntsc>
						</rate>
						<start>32750</start>
						<end>32969</end>
						<in>92</in>
						<out>311</out>
						<file id="file-314">
							<name>Komm 2_6.wav</name>
							<pathurl>file://localhost/Volumes/Brakka/AdobeLager/Komm%202_6.wav</pathurl>
							<rate>
								<timebase>30</timebase>
								<ntsc>TRUE</ntsc>
							</rate>
							<duration>392</duration>
							<timecode>
								<rate>
									<timebase>30</timebase>
									<ntsc>TRUE</ntsc>
								</rate>
								<string>00;00;00;00</string>
								<frame>0</frame>
								<displayformat>DF</displayformat>
								<reel>
									<name></name>
								</reel>
							</timecode>
							<media>
								<audio>
									<samplecharacteristics>
										<depth>16</depth>
										<samplerate>48000</samplerate>
									</samplecharacteristics>
									<channelcount>2</channelcount>
								</audio>
							</media>
						</file>
						<sourcetrack>
							<mediatype>audio</mediatype>
							<trackindex>1</trackindex>
						</sourcetrack>
							<filter>
								<effect>
									<name>Audio Pan</name>
									<effectid>audiopan</effectid>
									<effectcategory>audiopan</effectcategory>
									<effecttype>audiopan</effecttype>
									<mediatype>audio</mediatype>
									<parameter authoringApp="PremierePro">
										<parameterid>pan</parameterid>
										<name>Pan</name>
										<valuemin>-1</valuemin>
										<valuemax>1</valuemax>
										<value>0</value>
									</parameter>
								</effect>
							</filter>
						<link>
							<linkclipref>clipitem-1807</linkclipref>
							<mediatype>audio</mediatype>
							<trackindex>18</trackindex>
							<clipindex>36</clipindex>
							<groupindex>1</groupindex>
						</link>
						<link>
							<linkclipref>clipitem-1852</linkclipref>
							<mediatype>audio</mediatype>
							<trackindex>19</trackindex>
							<clipindex>36</clipindex>
							<groupindex>1</groupindex>
						</link>
						<logginginfo>
							<description></description>
							<scene></scene>
							<shottake></shottake>
							<lognote></lognote>
						</logginginfo>
						<labels>
							<label2>Caribbean</label2>
						</labels>
					</clipitem>
					<clipitem id="clipitem-1808" frameBlend="FALSE" PannerCurrentValue="0.5" PannerKeyframes="" PannerStartKeyframe="-91445760000000000,0.5,0,0,0,0,0,0" PannerIsInverted="true" PannerName="Balance">
						<masterclipid>masterclip-342</masterclipid>
						<name>Kommentar 2_56.wav</name>
						<enabled>TRUE</enabled>
						<duration>352</duration>
						<rate>
							<timebase>25</timebase>
							<ntsc>FALSE</ntsc>
						</rate>
						<start>33980</start>
						<end>34324</end>
						<in>8</in>
						<out>352</out>
						<file id="file-315">
							<name>Kommentar 2_56.wav</name>
							<pathurl>file://localhost/Volumes/Brakka/AdobeLager/Katta/Katta-14xxxx-Smart_eller_overvaaket-Chris/03-Lyd/VO/Kommentar%202_56.wav</pathurl>
							<rate>
								<timebase>30</timebase>
								<ntsc>TRUE</ntsc>
							</rate>
							<duration>421</duration>
							<timecode>
								<rate>
									<timebase>30</timebase>
									<ntsc>TRUE</ntsc>
								</rate>
								<string>00;00;00;00</string>
								<frame>0</frame>
								<displayformat>DF</displayformat>
								<reel>
									<name></name>
								</reel>
							</timecode>
							<media>
								<audio>
									<samplecharacteristics>
										<depth>16</depth>
										<samplerate>48000</samplerate>
									</samplecharacteristics>
									<channelcount>2</channelcount>
								</audio>
							</media>
						</file>
						<sourcetrack>
							<mediatype>audio</mediatype>
							<trackindex>1</trackindex>
						</sourcetrack>
							<filter>
								<effect>
									<name>Audio Levels</name>
									<effectid>audiolevels</effectid>
									<effectcategory>audiolevels</effectcategory>
									<effecttype>audiolevels</effecttype>
									<mediatype>audio</mediatype>
									<parameter authoringApp="PremierePro">
										<parameterid>level</parameterid>
										<name>Level</name>
										<valuemin>0</valuemin>
										<valuemax>3.98109</valuemax>
										<value>1.58114</value>
									</parameter>
								</effect>
							</filter>
							<filter>
								<effect>
									<name>Audio Pan</name>
									<effectid>audiopan</effectid>
									<effectcategory>audiopan</effectcategory>
									<effecttype>audiopan</effecttype>
									<mediatype>audio</mediatype>
									<parameter authoringApp="PremierePro">
										<parameterid>pan</parameterid>
										<name>Pan</name>
										<valuemin>-1</valuemin>
										<valuemax>1</valuemax>
										<value>0</value>
									</parameter>
								</effect>
							</filter>
						<link>
							<linkclipref>clipitem-1808</linkclipref>
							<mediatype>audio</mediatype>
							<trackindex>18</trackindex>
							<clipindex>37</clipindex>
							<groupindex>1</groupindex>
						</link>
						<link>
							<linkclipref>clipitem-1853</linkclipref>
							<mediatype>audio</mediatype>
							<trackindex>19</trackindex>
							<clipindex>37</clipindex>
							<groupindex>1</groupindex>
						</link>
						<logginginfo>
							<description></description>
							<scene></scene>
							<shottake></shottake>
							<lognote></lognote>
						</logginginfo>
						<labels>
							<label2>Caribbean</label2>
						</labels>
					</clipitem>
					<clipitem id="clipitem-1809" frameBlend="FALSE" PannerCurrentValue="0.5" PannerKeyframes="" PannerStartKeyframe="-91445760000000000,0.5,0,0,0,0,0,0" PannerIsInverted="true" PannerName="Balance">
						<masterclipid>masterclip-343</masterclipid>
						<name>Kommentar 2_58.wav</name>
						<enabled>TRUE</enabled>
						<duration>574</duration>
						<rate>
							<timebase>25</timebase>
							<ntsc>FALSE</ntsc>
						</rate>
						<start>34641</start>
						<end>34759</end>
						<in>8</in>
						<out>126</out>
						<file id="file-316">
							<name>Kommentar 2_58.wav</name>
							<pathurl>file://localhost/Volumes/Brakka/AdobeLager/Katta/Katta-14xxxx-Smart_eller_overvaaket-Chris/03-Lyd/VO/Kommentar%202_58.wav</pathurl>
							<rate>
								<timebase>30</timebase>
								<ntsc>TRUE</ntsc>
							</rate>
							<duration>688</duration>
							<timecode>
								<rate>
									<timebase>30</timebase>
									<ntsc>TRUE</ntsc>
								</rate>
								<string>00;00;00;00</string>
								<frame>0</frame>
								<displayformat>DF</displayformat>
								<reel>
									<name></name>
								</reel>
							</timecode>
							<media>
								<audio>
									<samplecharacteristics>
										<depth>16</depth>
										<samplerate>48000</samplerate>
									</samplecharacteristics>
									<channelcount>2</channelcount>
								</audio>
							</media>
						</file>
						<sourcetrack>
							<mediatype>audio</mediatype>
							<trackindex>1</trackindex>
						</sourcetrack>
							<filter>
								<effect>
									<name>Audio Pan</name>
									<effectid>audiopan</effectid>
									<effectcategory>audiopan</effectcategory>
									<effecttype>audiopan</effecttype>
									<mediatype>audio</mediatype>
									<parameter authoringApp="PremierePro">
										<parameterid>pan</parameterid>
										<name>Pan</name>
										<valuemin>-1</valuemin>
										<valuemax>1</valuemax>
										<value>0</value>
									</parameter>
								</effect>
							</filter>
						<link>
							<linkclipref>clipitem-1809</linkclipref>
							<mediatype>audio</mediatype>
							<trackindex>18</trackindex>
							<clipindex>38</clipindex>
							<groupindex>1</groupindex>
						</link>
						<link>
							<linkclipref>clipitem-1854</linkclipref>
							<mediatype>audio</mediatype>
							<trackindex>19</trackindex>
							<clipindex>38</clipindex>
							<groupindex>1</groupindex>
						</link>
						<logginginfo>
							<description></description>
							<scene></scene>
							<shottake></shottake>
							<lognote></lognote>
						</logginginfo>
						<labels>
							<label2>Caribbean</label2>
						</labels>
					</clipitem>
					<clipitem id="clipitem-1810" frameBlend="FALSE" PannerCurrentValue="0.5" PannerKeyframes="" PannerStartKeyframe="-91445760000000000,0.5,0,0,0,0,0,0" PannerIsInverted="true" PannerName="Balance">
						<masterclipid>masterclip-343</masterclipid>
						<name>Kommentar 2_58.wav</name>
						<enabled>TRUE</enabled>
						<duration>574</duration>
						<rate>
							<timebase>25</timebase>
							<ntsc>FALSE</ntsc>
						</rate>
						<start>34759</start>
						<end>35160</end>
						<in>173</in>
						<out>574</out>
						<file id="file-316"/>
						<sourcetrack>
							<mediatype>audio</mediatype>
							<trackindex>1</trackindex>
						</sourcetrack>
							<filter>
								<effect>
									<name>Audio Pan</name>
									<effectid>audiopan</effectid>
									<effectcategory>audiopan</effectcategory>
									<effecttype>audiopan</effecttype>
									<mediatype>audio</mediatype>
									<parameter authoringApp="PremierePro">
										<parameterid>pan</parameterid>
										<name>Pan</name>
										<valuemin>-1</valuemin>
										<valuemax>1</valuemax>
										<value>0</value>
									</parameter>
								</effect>
							</filter>
						<link>
							<linkclipref>clipitem-1810</linkclipref>
							<mediatype>audio</mediatype>
							<trackindex>18</trackindex>
							<clipindex>39</clipindex>
							<groupindex>1</groupindex>
						</link>
						<link>
							<linkclipref>clipitem-1855</linkclipref>
							<mediatype>audio</mediatype>
							<trackindex>19</trackindex>
							<clipindex>39</clipindex>
							<groupindex>1</groupindex>
						</link>
						<logginginfo>
							<description></description>
							<scene></scene>
							<shottake></shottake>
							<lognote></lognote>
						</logginginfo>
						<labels>
							<label2>Caribbean</label2>
						</labels>
					</clipitem>
					<clipitem id="clipitem-1811" frameBlend="FALSE" PannerCurrentValue="0.5" PannerKeyframes="" PannerStartKeyframe="-91445760000000000,0.5,0,0,0,0,0,0" PannerIsInverted="true" PannerName="Balance">
						<masterclipid>masterclip-344</masterclipid>
						<name>Komm 2_8.wav</name>
						<enabled>TRUE</enabled>
						<duration>294</duration>
						<rate>
							<timebase>25</timebase>
							<ntsc>FALSE</ntsc>
						</rate>
						<start>38207</start>
						<end>38305</end>
						<in>104</in>
						<out>202</out>
						<file id="file-317">
							<name>Komm 2_8.wav</name>
							<pathurl>file://localhost/Volumes/Brakka/AdobeLager/Komm%202_8.wav</pathurl>
							<rate>
								<timebase>30</timebase>
								<ntsc>TRUE</ntsc>
							</rate>
							<duration>352</duration>
							<timecode>
								<rate>
									<timebase>30</timebase>
									<ntsc>TRUE</ntsc>
								</rate>
								<string>00;00;00;00</string>
								<frame>0</frame>
								<displayformat>DF</displayformat>
								<reel>
									<name></name>
								</reel>
							</timecode>
							<media>
								<audio>
									<samplecharacteristics>
										<depth>16</depth>
										<samplerate>48000</samplerate>
									</samplecharacteristics>
									<channelcount>2</channelcount>
								</audio>
							</media>
						</file>
						<sourcetrack>
							<mediatype>audio</mediatype>
							<trackindex>1</trackindex>
						</sourcetrack>
							<filter>
								<effect>
									<name>Audio Pan</name>
									<effectid>audiopan</effectid>
									<effectcategory>audiopan</effectcategory>
									<effecttype>audiopan</effecttype>
									<mediatype>audio</mediatype>
									<parameter authoringApp="PremierePro">
										<parameterid>pan</parameterid>
										<name>Pan</name>
										<valuemin>-1</valuemin>
										<valuemax>1</valuemax>
										<value>0</value>
									</parameter>
								</effect>
							</filter>
						<link>
							<linkclipref>clipitem-1811</linkclipref>
							<mediatype>audio</mediatype>
							<trackindex>18</trackindex>
							<clipindex>40</clipindex>
							<groupindex>1</groupindex>
						</link>
						<link>
							<linkclipref>clipitem-1856</linkclipref>
							<mediatype>audio</mediatype>
							<trackindex>19</trackindex>
							<clipindex>40</clipindex>
							<groupindex>1</groupindex>
						</link>
						<logginginfo>
							<description></description>
							<scene></scene>
							<shottake></shottake>
							<lognote></lognote>
						</logginginfo>
						<labels>
							<label2>Caribbean</label2>
						</labels>
					</clipitem>
					<clipitem id="clipitem-1812" frameBlend="FALSE" PannerCurrentValue="0.5" PannerKeyframes="" PannerStartKeyframe="-91445760000000000,0.5,0,0,0,0,0,0" PannerIsInverted="true" PannerName="Balance">
						<masterclipid>masterclip-344</masterclipid>
						<name>Komm 2_8.wav</name>
						<enabled>TRUE</enabled>
						<duration>294</duration>
						<rate>
							<timebase>25</timebase>
							<ntsc>FALSE</ntsc>
						</rate>
						<start>38305</start>
						<end>38319</end>
						<in>226</in>
						<out>240</out>
						<file id="file-317"/>
						<sourcetrack>
							<mediatype>audio</mediatype>
							<trackindex>1</trackindex>
						</sourcetrack>
							<filter>
								<effect>
									<name>Audio Pan</name>
									<effectid>audiopan</effectid>
									<effectcategory>audiopan</effectcategory>
									<effecttype>audiopan</effecttype>
									<mediatype>audio</mediatype>
									<parameter authoringApp="PremierePro">
										<parameterid>pan</parameterid>
										<name>Pan</name>
										<valuemin>-1</valuemin>
										<valuemax>1</valuemax>
										<value>0</value>
									</parameter>
								</effect>
							</filter>
						<link>
							<linkclipref>clipitem-1812</linkclipref>
							<mediatype>audio</mediatype>
							<trackindex>18</trackindex>
							<clipindex>41</clipindex>
							<groupindex>1</groupindex>
						</link>
						<link>
							<linkclipref>clipitem-1857</linkclipref>
							<mediatype>audio</mediatype>
							<trackindex>19</trackindex>
							<clipindex>41</clipindex>
							<groupindex>1</groupindex>
						</link>
						<logginginfo>
							<description></description>
							<scene></scene>
							<shottake></shottake>
							<lognote></lognote>
						</logginginfo>
						<labels>
							<label2>Caribbean</label2>
						</labels>
					</clipitem>
					<clipitem id="clipitem-1813" frameBlend="FALSE" PannerCurrentValue="0.5" PannerKeyframes="" PannerStartKeyframe="-91445760000000000,0.5,0,0,0,0,0,0" PannerIsInverted="true" PannerName="Balance">
						<masterclipid>masterclip-344</masterclipid>
						<name>Komm 2_8.wav</name>
						<enabled>TRUE</enabled>
						<duration>294</duration>
						<rate>
							<timebase>25</timebase>
							<ntsc>FALSE</ntsc>
						</rate>
						<start>38319</start>
						<end>38324</end>
						<in>289</in>
						<out>294</out>
						<file id="file-317"/>
						<sourcetrack>
							<mediatype>audio</mediatype>
							<trackindex>1</trackindex>
						</sourcetrack>
							<filter>
								<effect>
									<name>Audio Pan</name>
									<effectid>audiopan</effectid>
									<effectcategory>audiopan</effectcategory>
									<effecttype>audiopan</effecttype>
									<mediatype>audio</mediatype>
									<parameter authoringApp="PremierePro">
										<parameterid>pan</parameterid>
										<name>Pan</name>
										<valuemin>-1</valuemin>
										<valuemax>1</valuemax>
										<value>0</value>
									</parameter>
								</effect>
							</filter>
						<link>
							<linkclipref>clipitem-1813</linkclipref>
							<mediatype>audio</mediatype>
							<trackindex>18</trackindex>
							<clipindex>42</clipindex>
							<groupindex>1</groupindex>
						</link>
						<link>
							<linkclipref>clipitem-1858</linkclipref>
							<mediatype>audio</mediatype>
							<trackindex>19</trackindex>
							<clipindex>42</clipindex>
							<groupindex>1</groupindex>
						</link>
						<logginginfo>
							<description></description>
							<scene></scene>
							<shottake></shottake>
							<lognote></lognote>
						</logginginfo>
						<labels>
							<label2>Caribbean</label2>
						</labels>
					</clipitem>
					<clipitem id="clipitem-1814" frameBlend="FALSE" PannerCurrentValue="0.5" PannerKeyframes="" PannerStartKeyframe="-91445760000000000,0.5,0,0,0,0,0,0" PannerIsInverted="true" PannerName="Balance">
						<masterclipid>masterclip-345</masterclipid>
						<name>Kommentar 2_61.wav</name>
						<enabled>TRUE</enabled>
						<duration>1457</duration>
						<rate>
							<timebase>25</timebase>
							<ntsc>FALSE</ntsc>
						</rate>
						<start>38610</start>
						<end>38860</end>
						<in>451</in>
						<out>701</out>
						<file id="file-318">
							<name>Kommentar 2_61.wav</name>
							<pathurl>file://localhost/Volumes/Brakka/AdobeLager/Katta/Katta-14xxxx-Smart_eller_overvaaket-Chris/03-Lyd/VO/Kommentar%202_61.wav</pathurl>
							<rate>
								<timebase>30</timebase>
								<ntsc>TRUE</ntsc>
							</rate>
							<duration>1746</duration>
							<timecode>
								<rate>
									<timebase>30</timebase>
									<ntsc>TRUE</ntsc>
								</rate>
								<string>00;00;00;00</string>
								<frame>0</frame>
								<displayformat>DF</displayformat>
								<reel>
									<name></name>
								</reel>
							</timecode>
							<media>
								<audio>
									<samplecharacteristics>
										<depth>16</depth>
										<samplerate>48000</samplerate>
									</samplecharacteristics>
									<channelcount>2</channelcount>
								</audio>
							</media>
						</file>
						<sourcetrack>
							<mediatype>audio</mediatype>
							<trackindex>1</trackindex>
						</sourcetrack>
							<filter>
								<effect>
									<name>Audio Pan</name>
									<effectid>audiopan</effectid>
									<effectcategory>audiopan</effectcategory>
									<effecttype>audiopan</effecttype>
									<mediatype>audio</mediatype>
									<parameter authoringApp="PremierePro">
										<parameterid>pan</parameterid>
										<name>Pan</name>
										<valuemin>-1</valuemin>
										<valuemax>1</valuemax>
										<value>0</value>
									</parameter>
								</effect>
							</filter>
						<link>
							<linkclipref>clipitem-1814</linkclipref>
							<mediatype>audio</mediatype>
							<trackindex>18</trackindex>
							<clipindex>43</clipindex>
							<groupindex>1</groupindex>
						</link>
						<link>
							<linkclipref>clipitem-1859</linkclipref>
							<mediatype>audio</mediatype>
							<trackindex>19</trackindex>
							<clipindex>43</clipindex>
							<groupindex>1</groupindex>
						</link>
						<logginginfo>
							<description></description>
							<scene></scene>
							<shottake></shottake>
							<lognote></lognote>
						</logginginfo>
						<labels>
							<label2>Caribbean</label2>
						</labels>
					</clipitem>
					<clipitem id="clipitem-1815" frameBlend="FALSE" PannerCurrentValue="0.5" PannerKeyframes="" PannerStartKeyframe="-91445760000000000,0.5,0,0,0,0,0,0" PannerIsInverted="true" PannerName="Balance">
						<masterclipid>masterclip-346</masterclipid>
						<name>Kommentar 2_62.wav</name>
						<enabled>TRUE</enabled>
						<duration>822</duration>
						<rate>
							<timebase>25</timebase>
							<ntsc>FALSE</ntsc>
						</rate>
						<start>39684</start>
						<end>40157</end>
						<in>251</in>
						<out>724</out>
						<file id="file-319">
							<name>Kommentar 2_62.wav</name>
							<pathurl>file://localhost/Volumes/Brakka/AdobeLager/Katta/Katta-14xxxx-Smart_eller_overvaaket-Chris/03-Lyd/VO/Kommentar%202_62.wav</pathurl>
							<rate>
								<timebase>30</timebase>
								<ntsc>TRUE</ntsc>
							</rate>
							<duration>985</duration>
							<timecode>
								<rate>
									<timebase>30</timebase>
									<ntsc>TRUE</ntsc>
								</rate>
								<string>00;00;00;00</string>
								<frame>0</frame>
								<displayformat>DF</displayformat>
								<reel>
									<name></name>
								</reel>
							</timecode>
							<media>
								<audio>
									<samplecharacteristics>
										<depth>16</depth>
										<samplerate>48000</samplerate>
									</samplecharacteristics>
									<channelcount>2</channelcount>
								</audio>
							</media>
						</file>
						<sourcetrack>
							<mediatype>audio</mediatype>
							<trackindex>1</trackindex>
						</sourcetrack>
							<filter>
								<effect>
									<name>Audio Pan</name>
									<effectid>audiopan</effectid>
									<effectcategory>audiopan</effectcategory>
									<effecttype>audiopan</effecttype>
									<mediatype>audio</mediatype>
									<parameter authoringApp="PremierePro">
										<parameterid>pan</parameterid>
										<name>Pan</name>
										<valuemin>-1</valuemin>
										<valuemax>1</valuemax>
										<value>0</value>
									</parameter>
								</effect>
							</filter>
						<link>
							<linkclipref>clipitem-1815</linkclipref>
							<mediatype>audio</mediatype>
							<trackindex>18</trackindex>
							<clipindex>44</clipindex>
							<groupindex>1</groupindex>
						</link>
						<link>
							<linkclipref>clipitem-1860</linkclipref>
							<mediatype>audio</mediatype>
							<trackindex>19</trackindex>
							<clipindex>44</clipindex>
							<groupindex>1</groupindex>
						</link>
						<logginginfo>
							<description></description>
							<scene></scene>
							<shottake></shottake>
							<lognote></lognote>
						</logginginfo>
						<labels>
							<label2>Caribbean</label2>
						</labels>
					</clipitem>
					<clipitem id="clipitem-1816" frameBlend="FALSE" PannerCurrentValue="0.5" PannerKeyframes="" PannerStartKeyframe="-91445760000000000,0.5,0,0,0,0,0,0" PannerIsInverted="true" PannerName="Balance">
						<masterclipid>masterclip-347</masterclipid>
						<name>Kommentar 2_68.wav</name>
						<enabled>TRUE</enabled>
						<duration>832</duration>
						<rate>
							<timebase>25</timebase>
							<ntsc>FALSE</ntsc>
						</rate>
						<start>40417</start>
						<end>41006</end>
						<in>243</in>
						<out>832</out>
						<file id="file-320">
							<name>Kommentar 2_68.wav</name>
							<pathurl>file://localhost/Volumes/Brakka/AdobeLager/Katta/Katta-14xxxx-Smart_eller_overvaaket-Chris/03-Lyd/VO/Kommentar%202_68.wav</pathurl>
							<rate>
								<timebase>30</timebase>
								<ntsc>TRUE</ntsc>
							</rate>
							<duration>997</duration>
							<timecode>
								<rate>
									<timebase>30</timebase>
									<ntsc>TRUE</ntsc>
								</rate>
								<string>00;00;00;00</string>
								<frame>0</frame>
								<displayformat>DF</displayformat>
								<reel>
									<name></name>
								</reel>
							</timecode>
							<media>
								<audio>
									<samplecharacteristics>
										<depth>16</depth>
										<samplerate>48000</samplerate>
									</samplecharacteristics>
									<channelcount>2</channelcount>
								</audio>
							</media>
						</file>
						<sourcetrack>
							<mediatype>audio</mediatype>
							<trackindex>1</trackindex>
						</sourcetrack>
							<filter>
								<effect>
									<name>Audio Pan</name>
									<effectid>audiopan</effectid>
									<effectcategory>audiopan</effectcategory>
									<effecttype>audiopan</effecttype>
									<mediatype>audio</mediatype>
									<parameter authoringApp="PremierePro">
										<parameterid>pan</parameterid>
										<name>Pan</name>
										<valuemin>-1</valuemin>
										<valuemax>1</valuemax>
										<value>0</value>
									</parameter>
								</effect>
							</filter>
						<link>
							<linkclipref>clipitem-1816</linkclipref>
							<mediatype>audio</mediatype>
							<trackindex>18</trackindex>
							<clipindex>45</clipindex>
							<groupindex>1</groupindex>
						</link>
						<link>
							<linkclipref>clipitem-1861</linkclipref>
							<mediatype>audio</mediatype>
							<trackindex>19</trackindex>
							<clipindex>45</clipindex>
							<groupindex>1</groupindex>
						</link>
						<logginginfo>
							<description></description>
							<scene></scene>
							<shottake></shottake>
							<lognote></lognote>
						</logginginfo>
						<labels>
							<label2>Caribbean</label2>
						</labels>
					</clipitem>
					<enabled>TRUE</enabled>
					<locked>FALSE</locked>
					<outputchannelindex>1</outputchannelindex>
				</track>
				<track TL.SQTrackAudioKeyframeStyle="0" TL.SQTrackShy="0" TL.SQTrackExpandedHeight="102" TL.SQTrackExpanded="1" MZ.TrackTargeted="0" MZ.TrackName="Komm 2" PannerCurrentValue="0.5" PannerIsInverted="true" PannerStartKeyframe="-91445760000000000,0.5,0,0,0,0,0,0" PannerName="Balance" currentExplodedTrackIndex="1" totalExplodedTrackCount="2" premiereTrackType="Stereo">
					<clipitem id="clipitem-1817" frameBlend="FALSE" PannerCurrentValue="0.5" PannerKeyframes="" PannerStartKeyframe="-91445760000000000,0.5,0,0,0,0,0,0" PannerIsInverted="true" PannerName="Balance">
						<masterclipid>masterclip-314</masterclipid>
						<name>Komm 2.wav</name>
						<enabled>TRUE</enabled>
						<duration>383</duration>
						<rate>
							<timebase>25</timebase>
							<ntsc>FALSE</ntsc>
						</rate>
						<start>223</start>
						<end>452</end>
						<in>152</in>
						<out>381</out>
						<file id="file-287"/>
						<sourcetrack>
							<mediatype>audio</mediatype>
							<trackindex>2</trackindex>
						</sourcetrack>
							<filter>
								<effect>
									<name>Audio Pan</name>
									<effectid>audiopan</effectid>
									<effectcategory>audiopan</effectcategory>
									<effecttype>audiopan</effecttype>
									<mediatype>audio</mediatype>
									<parameter authoringApp="PremierePro">
										<parameterid>pan</parameterid>
										<name>Pan</name>
										<valuemin>-1</valuemin>
										<valuemax>1</valuemax>
										<value>0</value>
									</parameter>
								</effect>
							</filter>
						<link>
							<linkclipref>clipitem-1772</linkclipref>
							<mediatype>audio</mediatype>
							<trackindex>18</trackindex>
							<clipindex>1</clipindex>
							<groupindex>1</groupindex>
						</link>
						<link>
							<linkclipref>clipitem-1817</linkclipref>
							<mediatype>audio</mediatype>
							<trackindex>19</trackindex>
							<clipindex>1</clipindex>
							<groupindex>1</groupindex>
						</link>
						<logginginfo>
							<description></description>
							<scene></scene>
							<shottake></shottake>
							<lognote></lognote>
						</logginginfo>
						<labels>
							<label2>Caribbean</label2>
						</labels>
					</clipitem>
					<clipitem id="clipitem-1818" frameBlend="FALSE" PannerCurrentValue="0.5" PannerKeyframes="" PannerStartKeyframe="-91445760000000000,0.5,0,0,0,0,0,0" PannerIsInverted="true" PannerName="Balance">
						<masterclipid>masterclip-315</masterclipid>
						<name>Komm 2_2.wav</name>
						<enabled>TRUE</enabled>
						<duration>214</duration>
						<rate>
							<timebase>25</timebase>
							<ntsc>FALSE</ntsc>
						</rate>
						<start>504</start>
						<end>621</end>
						<in>97</in>
						<out>214</out>
						<file id="file-288"/>
						<sourcetrack>
							<mediatype>audio</mediatype>
							<trackindex>2</trackindex>
						</sourcetrack>
							<filter>
								<effect>
									<name>Audio Pan</name>
									<effectid>audiopan</effectid>
									<effectcategory>audiopan</effectcategory>
									<effecttype>audiopan</effecttype>
									<mediatype>audio</mediatype>
									<parameter authoringApp="PremierePro">
										<parameterid>pan</parameterid>
										<name>Pan</name>
										<valuemin>-1</valuemin>
										<valuemax>1</valuemax>
										<value>0</value>
									</parameter>
								</effect>
							</filter>
						<link>
							<linkclipref>clipitem-1773</linkclipref>
							<mediatype>audio</mediatype>
							<trackindex>18</trackindex>
							<clipindex>2</clipindex>
							<groupindex>1</groupindex>
						</link>
						<link>
							<linkclipref>clipitem-1818</linkclipref>
							<mediatype>audio</mediatype>
							<trackindex>19</trackindex>
							<clipindex>2</clipindex>
							<groupindex>1</groupindex>
						</link>
						<logginginfo>
							<description></description>
							<scene></scene>
							<shottake></shottake>
							<lognote></lognote>
						</logginginfo>
						<labels>
							<label2>Caribbean</label2>
						</labels>
					</clipitem>
					<clipitem id="clipitem-1819" frameBlend="FALSE" PannerCurrentValue="0.5" PannerKeyframes="" PannerStartKeyframe="-91445760000000000,0.5,0,0,0,0,0,0" PannerIsInverted="true" PannerName="Balance">
						<masterclipid>masterclip-316</masterclipid>
						<name>Kommentar 2_2.wav</name>
						<enabled>TRUE</enabled>
						<duration>355</duration>
						<rate>
							<timebase>25</timebase>
							<ntsc>FALSE</ntsc>
						</rate>
						<start>4611</start>
						<end>4958</end>
						<in>8</in>
						<out>355</out>
						<file id="file-289"/>
						<sourcetrack>
							<mediatype>audio</mediatype>
							<trackindex>2</trackindex>
						</sourcetrack>
							<filter>
								<effect>
									<name>Audio Pan</name>
									<effectid>audiopan</effectid>
									<effectcategory>audiopan</effectcategory>
									<effecttype>audiopan</effecttype>
									<mediatype>audio</mediatype>
									<parameter authoringApp="PremierePro">
										<parameterid>pan</parameterid>
										<name>Pan</name>
										<valuemin>-1</valuemin>
										<valuemax>1</valuemax>
										<value>0</value>
									</parameter>
								</effect>
							</filter>
						<link>
							<linkclipref>clipitem-1774</linkclipref>
							<mediatype>audio</mediatype>
							<trackindex>18</trackindex>
							<clipindex>3</clipindex>
							<groupindex>1</groupindex>
						</link>
						<link>
							<linkclipref>clipitem-1819</linkclipref>
							<mediatype>audio</mediatype>
							<trackindex>19</trackindex>
							<clipindex>3</clipindex>
							<groupindex>1</groupindex>
						</link>
						<logginginfo>
							<description></description>
							<scene></scene>
							<shottake></shottake>
							<lognote></lognote>
						</logginginfo>
						<labels>
							<label2>Caribbean</label2>
						</labels>
					</clipitem>
					<clipitem id="clipitem-1820" frameBlend="FALSE" PannerCurrentValue="0.5" PannerKeyframes="" PannerStartKeyframe="-91445760000000000,0.5,0,0,0,0,0,0" PannerIsInverted="true" PannerName="Balance">
						<masterclipid>masterclip-317</masterclipid>
						<name>Kommentar 2_5.wav</name>
						<enabled>TRUE</enabled>
						<duration>473</duration>
						<rate>
							<timebase>25</timebase>
							<ntsc>FALSE</ntsc>
						</rate>
						<start>6299</start>
						<end>6525</end>
						<in>247</in>
						<out>473</out>
						<file id="file-290"/>
						<sourcetrack>
							<mediatype>audio</mediatype>
							<trackindex>2</trackindex>
						</sourcetrack>
							<filter>
								<effect>
									<name>Audio Pan</name>
									<effectid>audiopan</effectid>
									<effectcategory>audiopan</effectcategory>
									<effecttype>audiopan</effecttype>
									<mediatype>audio</mediatype>
									<parameter authoringApp="PremierePro">
										<parameterid>pan</parameterid>
										<name>Pan</name>
										<valuemin>-1</valuemin>
										<valuemax>1</valuemax>
										<value>0</value>
									</parameter>
								</effect>
							</filter>
						<link>
							<linkclipref>clipitem-1775</linkclipref>
							<mediatype>audio</mediatype>
							<trackindex>18</trackindex>
							<clipindex>4</clipindex>
							<groupindex>1</groupindex>
						</link>
						<link>
							<linkclipref>clipitem-1820</linkclipref>
							<mediatype>audio</mediatype>
							<trackindex>19</trackindex>
							<clipindex>4</clipindex>
							<groupindex>1</groupindex>
						</link>
						<logginginfo>
							<description></description>
							<scene></scene>
							<shottake></shottake>
							<lognote></lognote>
						</logginginfo>
						<labels>
							<label2>Caribbean</label2>
						</labels>
					</clipitem>
					<clipitem id="clipitem-1821" frameBlend="FALSE" PannerCurrentValue="0.5" PannerKeyframes="" PannerStartKeyframe="-91445760000000000,0.5,0,0,0,0,0,0" PannerIsInverted="true" PannerName="Balance">
						<masterclipid>masterclip-318</masterclipid>
						<name>Kommentar 2_6.wav</name>
						<enabled>TRUE</enabled>
						<duration>2214</duration>
						<rate>
							<timebase>25</timebase>
							<ntsc>FALSE</ntsc>
						</rate>
						<start>6979</start>
						<end>7095</end>
						<in>8</in>
						<out>124</out>
						<file id="file-291"/>
						<sourcetrack>
							<mediatype>audio</mediatype>
							<trackindex>2</trackindex>
						</sourcetrack>
							<filter>
								<effect>
									<name>Audio Levels</name>
									<effectid>audiolevels</effectid>
									<effectcategory>audiolevels</effectcategory>
									<effecttype>audiolevels</effecttype>
									<mediatype>audio</mediatype>
									<parameter authoringApp="PremierePro">
										<parameterid>level</parameterid>
										<name>Level</name>
										<valuemin>0</valuemin>
										<valuemax>3.98109</valuemax>
										<value>0.99763</value>
									</parameter>
								</effect>
							</filter>
							<filter>
								<effect>
									<name>Audio Pan</name>
									<effectid>audiopan</effectid>
									<effectcategory>audiopan</effectcategory>
									<effecttype>audiopan</effecttype>
									<mediatype>audio</mediatype>
									<parameter authoringApp="PremierePro">
										<parameterid>pan</parameterid>
										<name>Pan</name>
										<valuemin>-1</valuemin>
										<valuemax>1</valuemax>
										<value>0</value>
									</parameter>
								</effect>
							</filter>
						<link>
							<linkclipref>clipitem-1776</linkclipref>
							<mediatype>audio</mediatype>
							<trackindex>18</trackindex>
							<clipindex>5</clipindex>
							<groupindex>1</groupindex>
						</link>
						<link>
							<linkclipref>clipitem-1821</linkclipref>
							<mediatype>audio</mediatype>
							<trackindex>19</trackindex>
							<clipindex>5</clipindex>
							<groupindex>1</groupindex>
						</link>
						<logginginfo>
							<description></description>
							<scene></scene>
							<shottake></shottake>
							<lognote></lognote>
						</logginginfo>
						<labels>
							<label2>Caribbean</label2>
						</labels>
					</clipitem>
					<clipitem id="clipitem-1822" frameBlend="FALSE" PannerCurrentValue="0.5" PannerKeyframes="" PannerStartKeyframe="-91445760000000000,0.5,0,0,0,0,0,0" PannerIsInverted="true" PannerName="Balance">
						<masterclipid>masterclip-318</masterclipid>
						<name>Kommentar 2_6.wav</name>
						<enabled>TRUE</enabled>
						<duration>2214</duration>
						<rate>
							<timebase>25</timebase>
							<ntsc>FALSE</ntsc>
						</rate>
						<start>7125</start>
						<end>7278</end>
						<in>158</in>
						<out>311</out>
						<file id="file-291"/>
						<sourcetrack>
							<mediatype>audio</mediatype>
							<trackindex>2</trackindex>
						</sourcetrack>
							<filter>
								<effect>
									<name>Audio Levels</name>
									<effectid>audiolevels</effectid>
									<effectcategory>audiolevels</effectcategory>
									<effecttype>audiolevels</effecttype>
									<mediatype>audio</mediatype>
									<parameter authoringApp="PremierePro">
										<parameterid>level</parameterid>
										<name>Level</name>
										<valuemin>0</valuemin>
										<valuemax>3.98109</valuemax>
										<value>0.99763</value>
									</parameter>
								</effect>
							</filter>
							<filter>
								<effect>
									<name>Audio Pan</name>
									<effectid>audiopan</effectid>
									<effectcategory>audiopan</effectcategory>
									<effecttype>audiopan</effecttype>
									<mediatype>audio</mediatype>
									<parameter authoringApp="PremierePro">
										<parameterid>pan</parameterid>
										<name>Pan</name>
										<valuemin>-1</valuemin>
										<valuemax>1</valuemax>
										<value>0</value>
									</parameter>
								</effect>
							</filter>
						<link>
							<linkclipref>clipitem-1777</linkclipref>
							<mediatype>audio</mediatype>
							<trackindex>18</trackindex>
							<clipindex>6</clipindex>
							<groupindex>1</groupindex>
						</link>
						<link>
							<linkclipref>clipitem-1822</linkclipref>
							<mediatype>audio</mediatype>
							<trackindex>19</trackindex>
							<clipindex>6</clipindex>
							<groupindex>1</groupindex>
						</link>
						<logginginfo>
							<description></description>
							<scene></scene>
							<shottake></shottake>
							<lognote></lognote>
						</logginginfo>
						<labels>
							<label2>Caribbean</label2>
						</labels>
					</clipitem>
					<clipitem id="clipitem-1823" frameBlend="FALSE" PannerCurrentValue="0.5" PannerKeyframes="" PannerStartKeyframe="-91445760000000000,0.5,0,0,0,0,0,0" PannerIsInverted="true" PannerName="Balance">
						<masterclipid>masterclip-319</masterclipid>
						<name>Kommentar 2_7.wav</name>
						<enabled>TRUE</enabled>
						<duration>392</duration>
						<rate>
							<timebase>25</timebase>
							<ntsc>FALSE</ntsc>
						</rate>
						<start>8738</start>
						<end>9055</end>
						<in>8</in>
						<out>325</out>
						<file id="file-292"/>
						<sourcetrack>
							<mediatype>audio</mediatype>
							<trackindex>2</trackindex>
						</sourcetrack>
							<filter>
								<effect>
									<name>Audio Levels</name>
									<effectid>audiolevels</effectid>
									<effectcategory>audiolevels</effectcategory>
									<effecttype>audiolevels</effecttype>
									<mediatype>audio</mediatype>
									<parameter authoringApp="PremierePro">
										<parameterid>level</parameterid>
										<name>Level</name>
										<valuemin>0</valuemin>
										<valuemax>3.98109</valuemax>
										<value>0.889139</value>
									</parameter>
								</effect>
							</filter>
							<filter>
								<effect>
									<name>Audio Pan</name>
									<effectid>audiopan</effectid>
									<effectcategory>audiopan</effectcategory>
									<effecttype>audiopan</effecttype>
									<mediatype>audio</mediatype>
									<parameter authoringApp="PremierePro">
										<parameterid>pan</parameterid>
										<name>Pan</name>
										<valuemin>-1</valuemin>
										<valuemax>1</valuemax>
										<value>0</value>
									</parameter>
								</effect>
							</filter>
						<link>
							<linkclipref>clipitem-1778</linkclipref>
							<mediatype>audio</mediatype>
							<trackindex>18</trackindex>
							<clipindex>7</clipindex>
							<groupindex>1</groupindex>
						</link>
						<link>
							<linkclipref>clipitem-1823</linkclipref>
							<mediatype>audio</mediatype>
							<trackindex>19</trackindex>
							<clipindex>7</clipindex>
							<groupindex>1</groupindex>
						</link>
						<logginginfo>
							<description></description>
							<scene></scene>
							<shottake></shottake>
							<lognote></lognote>
						</logginginfo>
						<labels>
							<label2>Caribbean</label2>
						</labels>
					</clipitem>
					<clipitem id="clipitem-1824" frameBlend="FALSE" PannerCurrentValue="0.5" PannerKeyframes="" PannerStartKeyframe="-91445760000000000,0.5,0,0,0,0,0,0" PannerIsInverted="true" PannerName="Balance">
						<masterclipid>masterclip-320</masterclipid>
						<name>Kommentar 2_8.wav</name>
						<enabled>TRUE</enabled>
						<duration>816</duration>
						<rate>
							<timebase>25</timebase>
							<ntsc>FALSE</ntsc>
						</rate>
						<start>13116</start>
						<end>13373</end>
						<in>318</in>
						<out>575</out>
						<file id="file-293"/>
						<sourcetrack>
							<mediatype>audio</mediatype>
							<trackindex>2</trackindex>
						</sourcetrack>
							<filter>
								<effect>
									<name>Audio Levels</name>
									<effectid>audiolevels</effectid>
									<effectcategory>audiolevels</effectcategory>
									<effecttype>audiolevels</effecttype>
									<mediatype>audio</mediatype>
									<parameter authoringApp="PremierePro">
										<parameterid>level</parameterid>
										<name>Level</name>
										<valuemin>0</valuemin>
										<valuemax>3.98109</valuemax>
										<value>1.12431</value>
									</parameter>
								</effect>
							</filter>
							<filter>
								<effect>
									<name>Audio Pan</name>
									<effectid>audiopan</effectid>
									<effectcategory>audiopan</effectcategory>
									<effecttype>audiopan</effecttype>
									<mediatype>audio</mediatype>
									<parameter authoringApp="PremierePro">
										<parameterid>pan</parameterid>
										<name>Pan</name>
										<valuemin>-1</valuemin>
										<valuemax>1</valuemax>
										<value>0</value>
									</parameter>
								</effect>
							</filter>
						<link>
							<linkclipref>clipitem-1779</linkclipref>
							<mediatype>audio</mediatype>
							<trackindex>18</trackindex>
							<clipindex>8</clipindex>
							<groupindex>1</groupindex>
						</link>
						<link>
							<linkclipref>clipitem-1824</linkclipref>
							<mediatype>audio</mediatype>
							<trackindex>19</trackindex>
							<clipindex>8</clipindex>
							<groupindex>1</groupindex>
						</link>
						<logginginfo>
							<description></description>
							<scene></scene>
							<shottake></shottake>
							<lognote></lognote>
						</logginginfo>
						<labels>
							<label2>Caribbean</label2>
						</labels>
					</clipitem>
					<clipitem id="clipitem-1825" frameBlend="FALSE" PannerCurrentValue="0.5" PannerKeyframes="" PannerStartKeyframe="-91445760000000000,0.5,0,0,0,0,0,0" PannerIsInverted="true" PannerName="Balance">
						<masterclipid>masterclip-321</masterclipid>
						<name>Kommentar 2_15.wav</name>
						<enabled>TRUE</enabled>
						<duration>712</duration>
						<rate>
							<timebase>25</timebase>
							<ntsc>FALSE</ntsc>
						</rate>
						<start>13373</start>
						<end>13732</end>
						<in>353</in>
						<out>712</out>
						<file id="file-294"/>
						<sourcetrack>
							<mediatype>audio</mediatype>
							<trackindex>2</trackindex>
						</sourcetrack>
							<filter>
								<effect>
									<name>Audio Pan</name>
									<effectid>audiopan</effectid>
									<effectcategory>audiopan</effectcategory>
									<effecttype>audiopan</effecttype>
									<mediatype>audio</mediatype>
									<parameter authoringApp="PremierePro">
										<parameterid>pan</parameterid>
										<name>Pan</name>
										<valuemin>-1</valuemin>
										<valuemax>1</valuemax>
										<value>0</value>
									</parameter>
								</effect>
							</filter>
						<link>
							<linkclipref>clipitem-1780</linkclipref>
							<mediatype>audio</mediatype>
							<trackindex>18</trackindex>
							<clipindex>9</clipindex>
							<groupindex>1</groupindex>
						</link>
						<link>
							<linkclipref>clipitem-1825</linkclipref>
							<mediatype>audio</mediatype>
							<trackindex>19</trackindex>
							<clipindex>9</clipindex>
							<groupindex>1</groupindex>
						</link>
						<logginginfo>
							<description></description>
							<scene></scene>
							<shottake></shottake>
							<lognote></lognote>
						</logginginfo>
						<labels>
							<label2>Caribbean</label2>
						</labels>
					</clipitem>
					<clipitem id="clipitem-1826" frameBlend="FALSE" PannerCurrentValue="0.5" PannerKeyframes="" PannerStartKeyframe="-91445760000000000,0.5,0,0,0,0,0,0" PannerIsInverted="true" PannerName="Balance">
						<masterclipid>masterclip-322</masterclipid>
						<name>Kommentar 2_18.wav</name>
						<enabled>TRUE</enabled>
						<duration>561</duration>
						<rate>
							<timebase>25</timebase>
							<ntsc>FALSE</ntsc>
						</rate>
						<start>14462</start>
						<end>14835</end>
						<in>8</in>
						<out>381</out>
						<file id="file-295"/>
						<sourcetrack>
							<mediatype>audio</mediatype>
							<trackindex>2</trackindex>
						</sourcetrack>
							<filter>
								<effect>
									<name>Audio Pan</name>
									<effectid>audiopan</effectid>
									<effectcategory>audiopan</effectcategory>
									<effecttype>audiopan</effecttype>
									<mediatype>audio</mediatype>
									<parameter authoringApp="PremierePro">
										<parameterid>pan</parameterid>
										<name>Pan</name>
										<valuemin>-1</valuemin>
										<valuemax>1</valuemax>
										<value>0</value>
									</parameter>
								</effect>
							</filter>
						<link>
							<linkclipref>clipitem-1781</linkclipref>
							<mediatype>audio</mediatype>
							<trackindex>18</trackindex>
							<clipindex>10</clipindex>
							<groupindex>1</groupindex>
						</link>
						<link>
							<linkclipref>clipitem-1826</linkclipref>
							<mediatype>audio</mediatype>
							<trackindex>19</trackindex>
							<clipindex>10</clipindex>
							<groupindex>1</groupindex>
						</link>
						<logginginfo>
							<description></description>
							<scene></scene>
							<shottake></shottake>
							<lognote></lognote>
						</logginginfo>
						<labels>
							<label2>Caribbean</label2>
						</labels>
					</clipitem>
					<clipitem id="clipitem-1827" frameBlend="FALSE" PannerCurrentValue="0.5" PannerKeyframes="" PannerStartKeyframe="-91445760000000000,0.5,0,0,0,0,0,0" PannerIsInverted="true" PannerName="Balance">
						<masterclipid>masterclip-322</masterclipid>
						<name>Kommentar 2_18.wav</name>
						<enabled>TRUE</enabled>
						<duration>561</duration>
						<rate>
							<timebase>25</timebase>
							<ntsc>FALSE</ntsc>
						</rate>
						<start>14835</start>
						<end>15015</end>
						<in>381</in>
						<out>561</out>
						<file id="file-295"/>
						<sourcetrack>
							<mediatype>audio</mediatype>
							<trackindex>2</trackindex>
						</sourcetrack>
							<filter>
								<effect>
									<name>Audio Pan</name>
									<effectid>audiopan</effectid>
									<effectcategory>audiopan</effectcategory>
									<effecttype>audiopan</effecttype>
									<mediatype>audio</mediatype>
									<parameter authoringApp="PremierePro">
										<parameterid>pan</parameterid>
										<name>Pan</name>
										<valuemin>-1</valuemin>
										<valuemax>1</valuemax>
										<value>0</value>
									</parameter>
								</effect>
							</filter>
						<link>
							<linkclipref>clipitem-1782</linkclipref>
							<mediatype>audio</mediatype>
							<trackindex>18</trackindex>
							<clipindex>11</clipindex>
							<groupindex>1</groupindex>
						</link>
						<link>
							<linkclipref>clipitem-1827</linkclipref>
							<mediatype>audio</mediatype>
							<trackindex>19</trackindex>
							<clipindex>11</clipindex>
							<groupindex>1</groupindex>
						</link>
						<logginginfo>
							<description></description>
							<scene></scene>
							<shottake></shottake>
							<lognote></lognote>
						</logginginfo>
						<labels>
							<label2>Caribbean</label2>
						</labels>
					</clipitem>
					<clipitem id="clipitem-1828" frameBlend="FALSE" PannerCurrentValue="0.5" PannerKeyframes="" PannerStartKeyframe="-91445760000000000,0.5,0,0,0,0,0,0" PannerIsInverted="true" PannerName="Balance">
						<masterclipid>masterclip-323</masterclipid>
						<name>Kommentar 2_19.wav</name>
						<enabled>TRUE</enabled>
						<duration>427</duration>
						<rate>
							<timebase>25</timebase>
							<ntsc>FALSE</ntsc>
						</rate>
						<start>15575</start>
						<end>15815</end>
						<in>8</in>
						<out>248</out>
						<file id="file-296"/>
						<sourcetrack>
							<mediatype>audio</mediatype>
							<trackindex>2</trackindex>
						</sourcetrack>
							<filter>
								<effect>
									<name>Audio Levels</name>
									<effectid>audiolevels</effectid>
									<effectcategory>audiolevels</effectcategory>
									<effecttype>audiolevels</effecttype>
									<mediatype>audio</mediatype>
									<parameter authoringApp="PremierePro">
										<parameterid>level</parameterid>
										<name>Level</name>
										<valuemin>0</valuemin>
										<valuemax>3.98109</valuemax>
										<value>1.11936</value>
									</parameter>
								</effect>
							</filter>
							<filter>
								<effect>
									<name>Audio Pan</name>
									<effectid>audiopan</effectid>
									<effectcategory>audiopan</effectcategory>
									<effecttype>audiopan</effecttype>
									<mediatype>audio</mediatype>
									<parameter authoringApp="PremierePro">
										<parameterid>pan</parameterid>
										<name>Pan</name>
										<valuemin>-1</valuemin>
										<valuemax>1</valuemax>
										<value>0</value>
									</parameter>
								</effect>
							</filter>
						<link>
							<linkclipref>clipitem-1783</linkclipref>
							<mediatype>audio</mediatype>
							<trackindex>18</trackindex>
							<clipindex>12</clipindex>
							<groupindex>1</groupindex>
						</link>
						<link>
							<linkclipref>clipitem-1828</linkclipref>
							<mediatype>audio</mediatype>
							<trackindex>19</trackindex>
							<clipindex>12</clipindex>
							<groupindex>1</groupindex>
						</link>
						<logginginfo>
							<description></description>
							<scene></scene>
							<shottake></shottake>
							<lognote></lognote>
						</logginginfo>
						<labels>
							<label2>Caribbean</label2>
						</labels>
					</clipitem>
					<clipitem id="clipitem-1829" frameBlend="FALSE" PannerCurrentValue="0.5" PannerKeyframes="" PannerStartKeyframe="-91445760000000000,0.5,0,0,0,0,0,0" PannerIsInverted="true" PannerName="Balance">
						<masterclipid>masterclip-324</masterclipid>
						<name>Kommentar 2_20.wav</name>
						<enabled>TRUE</enabled>
						<duration>326</duration>
						<rate>
							<timebase>25</timebase>
							<ntsc>FALSE</ntsc>
						</rate>
						<start>15815</start>
						<end>15891</end>
						<in>189</in>
						<out>265</out>
						<file id="file-297"/>
						<sourcetrack>
							<mediatype>audio</mediatype>
							<trackindex>2</trackindex>
						</sourcetrack>
							<filter>
								<effect>
									<name>Audio Pan</name>
									<effectid>audiopan</effectid>
									<effectcategory>audiopan</effectcategory>
									<effecttype>audiopan</effecttype>
									<mediatype>audio</mediatype>
									<parameter authoringApp="PremierePro">
										<parameterid>pan</parameterid>
										<name>Pan</name>
										<valuemin>-1</valuemin>
										<valuemax>1</valuemax>
										<value>0</value>
									</parameter>
								</effect>
							</filter>
						<link>
							<linkclipref>clipitem-1784</linkclipref>
							<mediatype>audio</mediatype>
							<trackindex>18</trackindex>
							<clipindex>13</clipindex>
							<groupindex>1</groupindex>
						</link>
						<link>
							<linkclipref>clipitem-1829</linkclipref>
							<mediatype>audio</mediatype>
							<trackindex>19</trackindex>
							<clipindex>13</clipindex>
							<groupindex>1</groupindex>
						</link>
						<logginginfo>
							<description></description>
							<scene></scene>
							<shottake></shottake>
							<lognote></lognote>
						</logginginfo>
						<labels>
							<label2>Caribbean</label2>
						</labels>
					</clipitem>
					<clipitem id="clipitem-1830" frameBlend="FALSE" PannerCurrentValue="0.5" PannerKeyframes="" PannerStartKeyframe="-91445760000000000,0.5,0,0,0,0,0,0" PannerIsInverted="true" PannerName="Balance">
						<masterclipid>masterclip-324</masterclipid>
						<name>Kommentar 2_20.wav</name>
						<enabled>TRUE</enabled>
						<duration>326</duration>
						<rate>
							<timebase>25</timebase>
							<ntsc>FALSE</ntsc>
						</rate>
						<start>15891</start>
						<end>15896</end>
						<in>321</in>
						<out>326</out>
						<file id="file-297"/>
						<sourcetrack>
							<mediatype>audio</mediatype>
							<trackindex>2</trackindex>
						</sourcetrack>
							<filter>
								<effect>
									<name>Audio Pan</name>
									<effectid>audiopan</effectid>
									<effectcategory>audiopan</effectcategory>
									<effecttype>audiopan</effecttype>
									<mediatype>audio</mediatype>
									<parameter authoringApp="PremierePro">
										<parameterid>pan</parameterid>
										<name>Pan</name>
										<valuemin>-1</valuemin>
										<valuemax>1</valuemax>
										<value>0</value>
									</parameter>
								</effect>
							</filter>
						<link>
							<linkclipref>clipitem-1785</linkclipref>
							<mediatype>audio</mediatype>
							<trackindex>18</trackindex>
							<clipindex>14</clipindex>
							<groupindex>1</groupindex>
						</link>
						<link>
							<linkclipref>clipitem-1830</linkclipref>
							<mediatype>audio</mediatype>
							<trackindex>19</trackindex>
							<clipindex>14</clipindex>
							<groupindex>1</groupindex>
						</link>
						<logginginfo>
							<description></description>
							<scene></scene>
							<shottake></shottake>
							<lognote></lognote>
						</logginginfo>
						<labels>
							<label2>Caribbean</label2>
						</labels>
					</clipitem>
					<clipitem id="clipitem-1831" frameBlend="FALSE" PannerCurrentValue="0.5" PannerKeyframes="" PannerStartKeyframe="-91445760000000000,0.5,0,0,0,0,0,0" PannerIsInverted="true" PannerName="Balance">
						<masterclipid>masterclip-325</masterclipid>
						<name>Kommentar 2_22.wav</name>
						<enabled>TRUE</enabled>
						<duration>271</duration>
						<rate>
							<timebase>25</timebase>
							<ntsc>FALSE</ntsc>
						</rate>
						<start>16858</start>
						<end>17121</end>
						<in>8</in>
						<out>271</out>
						<file id="file-298"/>
						<sourcetrack>
							<mediatype>audio</mediatype>
							<trackindex>2</trackindex>
						</sourcetrack>
							<filter>
								<effect>
									<name>Audio Pan</name>
									<effectid>audiopan</effectid>
									<effectcategory>audiopan</effectcategory>
									<effecttype>audiopan</effecttype>
									<mediatype>audio</mediatype>
									<parameter authoringApp="PremierePro">
										<parameterid>pan</parameterid>
										<name>Pan</name>
										<valuemin>-1</valuemin>
										<valuemax>1</valuemax>
										<value>0</value>
									</parameter>
								</effect>
							</filter>
						<link>
							<linkclipref>clipitem-1786</linkclipref>
							<mediatype>audio</mediatype>
							<trackindex>18</trackindex>
							<clipindex>15</clipindex>
							<groupindex>1</groupindex>
						</link>
						<link>
							<linkclipref>clipitem-1831</linkclipref>
							<mediatype>audio</mediatype>
							<trackindex>19</trackindex>
							<clipindex>15</clipindex>
							<groupindex>1</groupindex>
						</link>
						<logginginfo>
							<description></description>
							<scene></scene>
							<shottake></shottake>
							<lognote></lognote>
						</logginginfo>
						<labels>
							<label2>Caribbean</label2>
						</labels>
					</clipitem>
					<clipitem id="clipitem-1832" frameBlend="FALSE" PannerCurrentValue="0.5" PannerKeyframes="" PannerStartKeyframe="-91445760000000000,0.5,0,0,0,0,0,0" PannerIsInverted="true" PannerName="Balance">
						<masterclipid>masterclip-326</masterclipid>
						<name>Kommentar 2_23.wav</name>
						<enabled>TRUE</enabled>
						<duration>952</duration>
						<rate>
							<timebase>25</timebase>
							<ntsc>FALSE</ntsc>
						</rate>
						<start>18438</start>
						<end>18643</end>
						<in>212</in>
						<out>417</out>
						<file id="file-299"/>
						<sourcetrack>
							<mediatype>audio</mediatype>
							<trackindex>2</trackindex>
						</sourcetrack>
							<filter>
								<effect>
									<name>Audio Pan</name>
									<effectid>audiopan</effectid>
									<effectcategory>audiopan</effectcategory>
									<effecttype>audiopan</effecttype>
									<mediatype>audio</mediatype>
									<parameter authoringApp="PremierePro">
										<parameterid>pan</parameterid>
										<name>Pan</name>
										<valuemin>-1</valuemin>
										<valuemax>1</valuemax>
										<value>0</value>
									</parameter>
								</effect>
							</filter>
						<link>
							<linkclipref>clipitem-1787</linkclipref>
							<mediatype>audio</mediatype>
							<trackindex>18</trackindex>
							<clipindex>16</clipindex>
							<groupindex>1</groupindex>
						</link>
						<link>
							<linkclipref>clipitem-1832</linkclipref>
							<mediatype>audio</mediatype>
							<trackindex>19</trackindex>
							<clipindex>16</clipindex>
							<groupindex>1</groupindex>
						</link>
						<logginginfo>
							<description></description>
							<scene></scene>
							<shottake></shottake>
							<lognote></lognote>
						</logginginfo>
						<labels>
							<label2>Caribbean</label2>
						</labels>
					</clipitem>
					<clipitem id="clipitem-1833" frameBlend="FALSE" PannerCurrentValue="0.5" PannerKeyframes="" PannerStartKeyframe="-91445760000000000,0.5,0,0,0,0,0,0" PannerIsInverted="true" PannerName="Balance">
						<masterclipid>masterclip-327</masterclipid>
						<name>Kommentar 2_24.wav</name>
						<enabled>TRUE</enabled>
						<duration>534</duration>
						<rate>
							<timebase>25</timebase>
							<ntsc>FALSE</ntsc>
						</rate>
						<start>20413</start>
						<end>20797</end>
						<in>78</in>
						<out>462</out>
						<file id="file-300"/>
						<sourcetrack>
							<mediatype>audio</mediatype>
							<trackindex>2</trackindex>
						</sourcetrack>
							<filter>
								<effect>
									<name>Audio Levels</name>
									<effectid>audiolevels</effectid>
									<effectcategory>audiolevels</effectcategory>
									<effecttype>audiolevels</effecttype>
									<mediatype>audio</mediatype>
									<parameter authoringApp="PremierePro">
										<parameterid>level</parameterid>
										<name>Level</name>
										<valuemin>0</valuemin>
										<valuemax>3.98109</valuemax>
										<value>1.77406</value>
									</parameter>
								</effect>
							</filter>
							<filter>
								<effect>
									<name>Audio Pan</name>
									<effectid>audiopan</effectid>
									<effectcategory>audiopan</effectcategory>
									<effecttype>audiopan</effecttype>
									<mediatype>audio</mediatype>
									<parameter authoringApp="PremierePro">
										<parameterid>pan</parameterid>
										<name>Pan</name>
										<valuemin>-1</valuemin>
										<valuemax>1</valuemax>
										<value>0</value>
									</parameter>
								</effect>
							</filter>
						<link>
							<linkclipref>clipitem-1788</linkclipref>
							<mediatype>audio</mediatype>
							<trackindex>18</trackindex>
							<clipindex>17</clipindex>
							<groupindex>1</groupindex>
						</link>
						<link>
							<linkclipref>clipitem-1833</linkclipref>
							<mediatype>audio</mediatype>
							<trackindex>19</trackindex>
							<clipindex>17</clipindex>
							<groupindex>1</groupindex>
						</link>
						<logginginfo>
							<description></description>
							<scene></scene>
							<shottake></shottake>
							<lognote></lognote>
						</logginginfo>
						<labels>
							<label2>Caribbean</label2>
						</labels>
					</clipitem>
					<clipitem id="clipitem-1834" frameBlend="FALSE" PannerCurrentValue="0.5" PannerKeyframes="" PannerStartKeyframe="-91445760000000000,0.5,0,0,0,0,0,0" PannerIsInverted="true" PannerName="Balance">
						<masterclipid>masterclip-328</masterclipid>
						<name>Kommentar 2_26.wav</name>
						<enabled>TRUE</enabled>
						<duration>349</duration>
						<rate>
							<timebase>25</timebase>
							<ntsc>FALSE</ntsc>
						</rate>
						<start>21529</start>
						<end>21830</end>
						<in>8</in>
						<out>309</out>
						<file id="file-301"/>
						<sourcetrack>
							<mediatype>audio</mediatype>
							<trackindex>2</trackindex>
						</sourcetrack>
							<filter>
								<effect>
									<name>Audio Pan</name>
									<effectid>audiopan</effectid>
									<effectcategory>audiopan</effectcategory>
									<effecttype>audiopan</effecttype>
									<mediatype>audio</mediatype>
									<parameter authoringApp="PremierePro">
										<parameterid>pan</parameterid>
										<name>Pan</name>
										<valuemin>-1</valuemin>
										<valuemax>1</valuemax>
										<value>0</value>
									</parameter>
								</effect>
							</filter>
						<link>
							<linkclipref>clipitem-1789</linkclipref>
							<mediatype>audio</mediatype>
							<trackindex>18</trackindex>
							<clipindex>18</clipindex>
							<groupindex>1</groupindex>
						</link>
						<link>
							<linkclipref>clipitem-1834</linkclipref>
							<mediatype>audio</mediatype>
							<trackindex>19</trackindex>
							<clipindex>18</clipindex>
							<groupindex>1</groupindex>
						</link>
						<logginginfo>
							<description></description>
							<scene></scene>
							<shottake></shottake>
							<lognote></lognote>
						</logginginfo>
						<labels>
							<label2>Caribbean</label2>
						</labels>
					</clipitem>
					<clipitem id="clipitem-1835" frameBlend="FALSE" PannerCurrentValue="0.5" PannerKeyframes="" PannerStartKeyframe="-91445760000000000,0.5,0,0,0,0,0,0" PannerIsInverted="true" PannerName="Balance">
						<masterclipid>masterclip-328</masterclipid>
						<name>Kommentar 2_26.wav</name>
						<enabled>TRUE</enabled>
						<duration>349</duration>
						<rate>
							<timebase>25</timebase>
							<ntsc>FALSE</ntsc>
						</rate>
						<start>21830</start>
						<end>21836</end>
						<in>343</in>
						<out>349</out>
						<file id="file-301"/>
						<sourcetrack>
							<mediatype>audio</mediatype>
							<trackindex>2</trackindex>
						</sourcetrack>
							<filter>
								<effect>
									<name>Audio Pan</name>
									<effectid>audiopan</effectid>
									<effectcategory>audiopan</effectcategory>
									<effecttype>audiopan</effecttype>
									<mediatype>audio</mediatype>
									<parameter authoringApp="PremierePro">
										<parameterid>pan</parameterid>
										<name>Pan</name>
										<valuemin>-1</valuemin>
										<valuemax>1</valuemax>
										<value>0</value>
									</parameter>
								</effect>
							</filter>
						<link>
							<linkclipref>clipitem-1790</linkclipref>
							<mediatype>audio</mediatype>
							<trackindex>18</trackindex>
							<clipindex>19</clipindex>
							<groupindex>1</groupindex>
						</link>
						<link>
							<linkclipref>clipitem-1835</linkclipref>
							<mediatype>audio</mediatype>
							<trackindex>19</trackindex>
							<clipindex>19</clipindex>
							<groupindex>1</groupindex>
						</link>
						<logginginfo>
							<description></description>
							<scene></scene>
							<shottake></shottake>
							<lognote></lognote>
						</logginginfo>
						<labels>
							<label2>Caribbean</label2>
						</labels>
					</clipitem>
					<clipitem id="clipitem-1836" frameBlend="FALSE" PannerCurrentValue="0.5" PannerKeyframes="" PannerStartKeyframe="-91445760000000000,0.5,0,0,0,0,0,0" PannerIsInverted="true" PannerName="Balance">
						<masterclipid>masterclip-329</masterclipid>
						<name>Kommentar 2_27.wav</name>
						<enabled>TRUE</enabled>
						<duration>919</duration>
						<rate>
							<timebase>25</timebase>
							<ntsc>FALSE</ntsc>
						</rate>
						<start>22151</start>
						<end>22301</end>
						<in>226</in>
						<out>376</out>
						<file id="file-302"/>
						<sourcetrack>
							<mediatype>audio</mediatype>
							<trackindex>2</trackindex>
						</sourcetrack>
							<filter>
								<effect>
									<name>Audio Pan</name>
									<effectid>audiopan</effectid>
									<effectcategory>audiopan</effectcategory>
									<effecttype>audiopan</effecttype>
									<mediatype>audio</mediatype>
									<parameter authoringApp="PremierePro">
										<parameterid>pan</parameterid>
										<name>Pan</name>
										<valuemin>-1</valuemin>
										<valuemax>1</valuemax>
										<value>0</value>
									</parameter>
								</effect>
							</filter>
						<link>
							<linkclipref>clipitem-1791</linkclipref>
							<mediatype>audio</mediatype>
							<trackindex>18</trackindex>
							<clipindex>20</clipindex>
							<groupindex>1</groupindex>
						</link>
						<link>
							<linkclipref>clipitem-1836</linkclipref>
							<mediatype>audio</mediatype>
							<trackindex>19</trackindex>
							<clipindex>20</clipindex>
							<groupindex>1</groupindex>
						</link>
						<logginginfo>
							<description></description>
							<scene></scene>
							<shottake></shottake>
							<lognote></lognote>
						</logginginfo>
						<labels>
							<label2>Caribbean</label2>
						</labels>
					</clipitem>
					<clipitem id="clipitem-1837" frameBlend="FALSE" PannerCurrentValue="0.5" PannerKeyframes="" PannerStartKeyframe="-91445760000000000,0.5,0,0,0,0,0,0" PannerIsInverted="true" PannerName="Balance">
						<masterclipid>masterclip-330</masterclipid>
						<name>Kommentar 2_36.wav</name>
						<enabled>TRUE</enabled>
						<duration>618</duration>
						<rate>
							<timebase>25</timebase>
							<ntsc>FALSE</ntsc>
						</rate>
						<start>22585</start>
						<end>23103</end>
						<in>76</in>
						<out>594</out>
						<file id="file-303"/>
						<sourcetrack>
							<mediatype>audio</mediatype>
							<trackindex>2</trackindex>
						</sourcetrack>
							<filter>
								<effect>
									<name>Audio Pan</name>
									<effectid>audiopan</effectid>
									<effectcategory>audiopan</effectcategory>
									<effecttype>audiopan</effecttype>
									<mediatype>audio</mediatype>
									<parameter authoringApp="PremierePro">
										<parameterid>pan</parameterid>
										<name>Pan</name>
										<valuemin>-1</valuemin>
										<valuemax>1</valuemax>
										<value>0</value>
									</parameter>
								</effect>
							</filter>
						<link>
							<linkclipref>clipitem-1792</linkclipref>
							<mediatype>audio</mediatype>
							<trackindex>18</trackindex>
							<clipindex>21</clipindex>
							<groupindex>1</groupindex>
						</link>
						<link>
							<linkclipref>clipitem-1837</linkclipref>
							<mediatype>audio</mediatype>
							<trackindex>19</trackindex>
							<clipindex>21</clipindex>
							<groupindex>1</groupindex>
						</link>
						<logginginfo>
							<description></description>
							<scene></scene>
							<shottake></shottake>
							<lognote></lognote>
						</logginginfo>
						<labels>
							<label2>Caribbean</label2>
						</labels>
					</clipitem>
					<clipitem id="clipitem-1838" frameBlend="FALSE" PannerCurrentValue="0.5" PannerKeyframes="" PannerStartKeyframe="-91445760000000000,0.5,0,0,0,0,0,0" PannerIsInverted="true" PannerName="Balance">
						<masterclipid>masterclip-331</masterclipid>
						<name>Kommentar 2_37.wav</name>
						<enabled>TRUE</enabled>
						<duration>555</duration>
						<rate>
							<timebase>25</timebase>
							<ntsc>FALSE</ntsc>
						</rate>
						<start>24935</start>
						<end>25482</end>
						<in>8</in>
						<out>555</out>
						<file id="file-304"/>
						<sourcetrack>
							<mediatype>audio</mediatype>
							<trackindex>2</trackindex>
						</sourcetrack>
							<filter>
								<effect>
									<name>Audio Pan</name>
									<effectid>audiopan</effectid>
									<effectcategory>audiopan</effectcategory>
									<effecttype>audiopan</effecttype>
									<mediatype>audio</mediatype>
									<parameter authoringApp="PremierePro">
										<parameterid>pan</parameterid>
										<name>Pan</name>
										<valuemin>-1</valuemin>
										<valuemax>1</valuemax>
										<value>0</value>
									</parameter>
								</effect>
							</filter>
						<link>
							<linkclipref>clipitem-1793</linkclipref>
							<mediatype>audio</mediatype>
							<trackindex>18</trackindex>
							<clipindex>22</clipindex>
							<groupindex>1</groupindex>
						</link>
						<link>
							<linkclipref>clipitem-1838</linkclipref>
							<mediatype>audio</mediatype>
							<trackindex>19</trackindex>
							<clipindex>22</clipindex>
							<groupindex>1</groupindex>
						</link>
						<logginginfo>
							<description></description>
							<scene></scene>
							<shottake></shottake>
							<lognote></lognote>
						</logginginfo>
						<labels>
							<label2>Caribbean</label2>
						</labels>
					</clipitem>
					<clipitem id="clipitem-1839" frameBlend="FALSE" PannerCurrentValue="0.5" PannerKeyframes="" PannerStartKeyframe="-91445760000000000,0.5,0,0,0,0,0,0" PannerIsInverted="true" PannerName="Balance">
						<masterclipid>masterclip-332</masterclipid>
						<name>Kommentar 2_39.wav</name>
						<enabled>TRUE</enabled>
						<duration>624</duration>
						<rate>
							<timebase>25</timebase>
							<ntsc>FALSE</ntsc>
						</rate>
						<start>27253</start>
						<end>27378</end>
						<in>99</in>
						<out>224</out>
						<file id="file-305"/>
						<sourcetrack>
							<mediatype>audio</mediatype>
							<trackindex>2</trackindex>
						</sourcetrack>
							<filter>
								<effect>
									<name>Audio Pan</name>
									<effectid>audiopan</effectid>
									<effectcategory>audiopan</effectcategory>
									<effecttype>audiopan</effecttype>
									<mediatype>audio</mediatype>
									<parameter authoringApp="PremierePro">
										<parameterid>pan</parameterid>
										<name>Pan</name>
										<valuemin>-1</valuemin>
										<valuemax>1</valuemax>
										<value>0</value>
									</parameter>
								</effect>
							</filter>
						<link>
							<linkclipref>clipitem-1794</linkclipref>
							<mediatype>audio</mediatype>
							<trackindex>18</trackindex>
							<clipindex>23</clipindex>
							<groupindex>1</groupindex>
						</link>
						<link>
							<linkclipref>clipitem-1839</linkclipref>
							<mediatype>audio</mediatype>
							<trackindex>19</trackindex>
							<clipindex>23</clipindex>
							<groupindex>1</groupindex>
						</link>
						<logginginfo>
							<description></description>
							<scene></scene>
							<shottake></shottake>
							<lognote></lognote>
						</logginginfo>
						<labels>
							<label2>Caribbean</label2>
						</labels>
					</clipitem>
					<clipitem id="clipitem-1840" frameBlend="FALSE" PannerCurrentValue="0.5" PannerKeyframes="" PannerStartKeyframe="-91445760000000000,0.5,0,0,0,0,0,0" PannerIsInverted="true" PannerName="Balance">
						<masterclipid>masterclip-332</masterclipid>
						<name>Kommentar 2_39.wav</name>
						<enabled>TRUE</enabled>
						<duration>624</duration>
						<rate>
							<timebase>25</timebase>
							<ntsc>FALSE</ntsc>
						</rate>
						<start>27378</start>
						<end>27490</end>
						<in>233</in>
						<out>345</out>
						<file id="file-305"/>
						<sourcetrack>
							<mediatype>audio</mediatype>
							<trackindex>2</trackindex>
						</sourcetrack>
							<filter>
								<effect>
									<name>Audio Pan</name>
									<effectid>audiopan</effectid>
									<effectcategory>audiopan</effectcategory>
									<effecttype>audiopan</effecttype>
									<mediatype>audio</mediatype>
									<parameter authoringApp="PremierePro">
										<parameterid>pan</parameterid>
										<name>Pan</name>
										<valuemin>-1</valuemin>
										<valuemax>1</valuemax>
										<value>0</value>
									</parameter>
								</effect>
							</filter>
						<link>
							<linkclipref>clipitem-1795</linkclipref>
							<mediatype>audio</mediatype>
							<trackindex>18</trackindex>
							<clipindex>24</clipindex>
							<groupindex>1</groupindex>
						</link>
						<link>
							<linkclipref>clipitem-1840</linkclipref>
							<mediatype>audio</mediatype>
							<trackindex>19</trackindex>
							<clipindex>24</clipindex>
							<groupindex>1</groupindex>
						</link>
						<logginginfo>
							<description></description>
							<scene></scene>
							<shottake></shottake>
							<lognote></lognote>
						</logginginfo>
						<labels>
							<label2>Caribbean</label2>
						</labels>
					</clipitem>
					<clipitem id="clipitem-1841" frameBlend="FALSE" PannerCurrentValue="0.5" PannerKeyframes="" PannerStartKeyframe="-91445760000000000,0.5,0,0,0,0,0,0" PannerIsInverted="true" PannerName="Balance">
						<masterclipid>masterclip-333</masterclipid>
						<name>Kommentar 2_41.wav</name>
						<enabled>TRUE</enabled>
						<duration>370</duration>
						<rate>
							<timebase>25</timebase>
							<ntsc>FALSE</ntsc>
						</rate>
						<start>27490</start>
						<end>27678</end>
						<in>161</in>
						<out>349</out>
						<file id="file-306"/>
						<sourcetrack>
							<mediatype>audio</mediatype>
							<trackindex>2</trackindex>
						</sourcetrack>
							<filter>
								<effect>
									<name>Audio Pan</name>
									<effectid>audiopan</effectid>
									<effectcategory>audiopan</effectcategory>
									<effecttype>audiopan</effecttype>
									<mediatype>audio</mediatype>
									<parameter authoringApp="PremierePro">
										<parameterid>pan</parameterid>
										<name>Pan</name>
										<valuemin>-1</valuemin>
										<valuemax>1</valuemax>
										<value>0</value>
									</parameter>
								</effect>
							</filter>
						<link>
							<linkclipref>clipitem-1796</linkclipref>
							<mediatype>audio</mediatype>
							<trackindex>18</trackindex>
							<clipindex>25</clipindex>
							<groupindex>1</groupindex>
						</link>
						<link>
							<linkclipref>clipitem-1841</linkclipref>
							<mediatype>audio</mediatype>
							<trackindex>19</trackindex>
							<clipindex>25</clipindex>
							<groupindex>1</groupindex>
						</link>
						<logginginfo>
							<description></description>
							<scene></scene>
							<shottake></shottake>
							<lognote></lognote>
						</logginginfo>
						<labels>
							<label2>Caribbean</label2>
						</labels>
					</clipitem>
					<clipitem id="clipitem-1842" frameBlend="FALSE" PannerCurrentValue="0.5" PannerKeyframes="" PannerStartKeyframe="-91445760000000000,0.5,0,0,0,0,0,0" PannerIsInverted="true" PannerName="Balance">
						<masterclipid>masterclip-334</masterclipid>
						<name>Kommentar 2_42.wav</name>
						<enabled>TRUE</enabled>
						<duration>577</duration>
						<rate>
							<timebase>25</timebase>
							<ntsc>FALSE</ntsc>
						</rate>
						<start>29137</start>
						<end>29256</end>
						<in>94</in>
						<out>213</out>
						<file id="file-307"/>
						<sourcetrack>
							<mediatype>audio</mediatype>
							<trackindex>2</trackindex>
						</sourcetrack>
							<filter>
								<effect>
									<name>Audio Pan</name>
									<effectid>audiopan</effectid>
									<effectcategory>audiopan</effectcategory>
									<effecttype>audiopan</effecttype>
									<mediatype>audio</mediatype>
									<parameter authoringApp="PremierePro">
										<parameterid>pan</parameterid>
										<name>Pan</name>
										<valuemin>-1</valuemin>
										<valuemax>1</valuemax>
										<value>0</value>
									</parameter>
								</effect>
							</filter>
						<link>
							<linkclipref>clipitem-1797</linkclipref>
							<mediatype>audio</mediatype>
							<trackindex>18</trackindex>
							<clipindex>26</clipindex>
							<groupindex>1</groupindex>
						</link>
						<link>
							<linkclipref>clipitem-1842</linkclipref>
							<mediatype>audio</mediatype>
							<trackindex>19</trackindex>
							<clipindex>26</clipindex>
							<groupindex>1</groupindex>
						</link>
						<logginginfo>
							<description></description>
							<scene></scene>
							<shottake></shottake>
							<lognote></lognote>
						</logginginfo>
						<labels>
							<label2>Caribbean</label2>
						</labels>
					</clipitem>
					<clipitem id="clipitem-1843" frameBlend="FALSE" PannerCurrentValue="0.5" PannerKeyframes="" PannerStartKeyframe="-91445760000000000,0.5,0,0,0,0,0,0" PannerIsInverted="true" PannerName="Balance">
						<masterclipid>masterclip-335</masterclipid>
						<name>Kommentar 2_43.wav</name>
						<enabled>TRUE</enabled>
						<duration>1487</duration>
						<rate>
							<timebase>25</timebase>
							<ntsc>FALSE</ntsc>
						</rate>
						<start>29479</start>
						<end>29552</end>
						<in>232</in>
						<out>305</out>
						<file id="file-308"/>
						<sourcetrack>
							<mediatype>audio</mediatype>
							<trackindex>2</trackindex>
						</sourcetrack>
							<filter>
								<effect>
									<name>Audio Pan</name>
									<effectid>audiopan</effectid>
									<effectcategory>audiopan</effectcategory>
									<effecttype>audiopan</effecttype>
									<mediatype>audio</mediatype>
									<parameter authoringApp="PremierePro">
										<parameterid>pan</parameterid>
										<name>Pan</name>
										<valuemin>-1</valuemin>
										<valuemax>1</valuemax>
										<value>0</value>
									</parameter>
								</effect>
							</filter>
						<link>
							<linkclipref>clipitem-1798</linkclipref>
							<mediatype>audio</mediatype>
							<trackindex>18</trackindex>
							<clipindex>27</clipindex>
							<groupindex>1</groupindex>
						</link>
						<link>
							<linkclipref>clipitem-1843</linkclipref>
							<mediatype>audio</mediatype>
							<trackindex>19</trackindex>
							<clipindex>27</clipindex>
							<groupindex>1</groupindex>
						</link>
						<logginginfo>
							<description></description>
							<scene></scene>
							<shottake></shottake>
							<lognote></lognote>
						</logginginfo>
						<labels>
							<label2>Caribbean</label2>
						</labels>
					</clipitem>
					<clipitem id="clipitem-1844" frameBlend="FALSE" PannerCurrentValue="0.5" PannerKeyframes="" PannerStartKeyframe="-91445760000000000,0.5,0,0,0,0,0,0" PannerIsInverted="true" PannerName="Balance">
						<masterclipid>masterclip-336</masterclipid>
						<name>Komm 2_3.wav</name>
						<enabled>TRUE</enabled>
						<duration>289</duration>
						<rate>
							<timebase>25</timebase>
							<ntsc>FALSE</ntsc>
						</rate>
						<start>30646</start>
						<end>30927</end>
						<in>8</in>
						<out>289</out>
						<file id="file-309"/>
						<sourcetrack>
							<mediatype>audio</mediatype>
							<trackindex>2</trackindex>
						</sourcetrack>
							<filter>
								<effect>
									<name>Audio Pan</name>
									<effectid>audiopan</effectid>
									<effectcategory>audiopan</effectcategory>
									<effecttype>audiopan</effecttype>
									<mediatype>audio</mediatype>
									<parameter authoringApp="PremierePro">
										<parameterid>pan</parameterid>
										<name>Pan</name>
										<valuemin>-1</valuemin>
										<valuemax>1</valuemax>
										<value>0</value>
									</parameter>
								</effect>
							</filter>
						<link>
							<linkclipref>clipitem-1799</linkclipref>
							<mediatype>audio</mediatype>
							<trackindex>18</trackindex>
							<clipindex>28</clipindex>
							<groupindex>1</groupindex>
						</link>
						<link>
							<linkclipref>clipitem-1844</linkclipref>
							<mediatype>audio</mediatype>
							<trackindex>19</trackindex>
							<clipindex>28</clipindex>
							<groupindex>1</groupindex>
						</link>
						<logginginfo>
							<description></description>
							<scene></scene>
							<shottake></shottake>
							<lognote></lognote>
						</logginginfo>
						<labels>
							<label2>Caribbean</label2>
						</labels>
					</clipitem>
					<clipitem id="clipitem-1845" frameBlend="FALSE" PannerCurrentValue="0.5" PannerKeyframes="" PannerStartKeyframe="-91445760000000000,0.5,0,0,0,0,0,0" PannerIsInverted="true" PannerName="Balance">
						<masterclipid>masterclip-337</masterclipid>
						<name>Komm 2_4.wav</name>
						<enabled>TRUE</enabled>
						<duration>393</duration>
						<rate>
							<timebase>25</timebase>
							<ntsc>FALSE</ntsc>
						</rate>
						<start>30927</start>
						<end>30944</end>
						<in>8</in>
						<out>25</out>
						<file id="file-310"/>
						<sourcetrack>
							<mediatype>audio</mediatype>
							<trackindex>2</trackindex>
						</sourcetrack>
							<filter>
								<effect>
									<name>Audio Pan</name>
									<effectid>audiopan</effectid>
									<effectcategory>audiopan</effectcategory>
									<effecttype>audiopan</effecttype>
									<mediatype>audio</mediatype>
									<parameter authoringApp="PremierePro">
										<parameterid>pan</parameterid>
										<name>Pan</name>
										<valuemin>-1</valuemin>
										<valuemax>1</valuemax>
										<value>0</value>
									</parameter>
								</effect>
							</filter>
						<link>
							<linkclipref>clipitem-1800</linkclipref>
							<mediatype>audio</mediatype>
							<trackindex>18</trackindex>
							<clipindex>29</clipindex>
							<groupindex>1</groupindex>
						</link>
						<link>
							<linkclipref>clipitem-1845</linkclipref>
							<mediatype>audio</mediatype>
							<trackindex>19</trackindex>
							<clipindex>29</clipindex>
							<groupindex>1</groupindex>
						</link>
						<logginginfo>
							<description></description>
							<scene></scene>
							<shottake></shottake>
							<lognote></lognote>
						</logginginfo>
						<labels>
							<label2>Caribbean</label2>
						</labels>
					</clipitem>
					<clipitem id="clipitem-1846" frameBlend="FALSE" PannerCurrentValue="0.5" PannerKeyframes="" PannerStartKeyframe="-91445760000000000,0.5,0,0,0,0,0,0" PannerIsInverted="true" PannerName="Balance">
						<masterclipid>masterclip-337</masterclipid>
						<name>Komm 2_4.wav</name>
						<enabled>TRUE</enabled>
						<duration>393</duration>
						<rate>
							<timebase>25</timebase>
							<ntsc>FALSE</ntsc>
						</rate>
						<start>30944</start>
						<end>31216</end>
						<in>121</in>
						<out>393</out>
						<file id="file-310"/>
						<sourcetrack>
							<mediatype>audio</mediatype>
							<trackindex>2</trackindex>
						</sourcetrack>
							<filter>
								<effect>
									<name>Audio Pan</name>
									<effectid>audiopan</effectid>
									<effectcategory>audiopan</effectcategory>
									<effecttype>audiopan</effecttype>
									<mediatype>audio</mediatype>
									<parameter authoringApp="PremierePro">
										<parameterid>pan</parameterid>
										<name>Pan</name>
										<valuemin>-1</valuemin>
										<valuemax>1</valuemax>
										<value>0</value>
									</parameter>
								</effect>
							</filter>
						<link>
							<linkclipref>clipitem-1801</linkclipref>
							<mediatype>audio</mediatype>
							<trackindex>18</trackindex>
							<clipindex>30</clipindex>
							<groupindex>1</groupindex>
						</link>
						<link>
							<linkclipref>clipitem-1846</linkclipref>
							<mediatype>audio</mediatype>
							<trackindex>19</trackindex>
							<clipindex>30</clipindex>
							<groupindex>1</groupindex>
						</link>
						<logginginfo>
							<description></description>
							<scene></scene>
							<shottake></shottake>
							<lognote></lognote>
						</logginginfo>
						<labels>
							<label2>Caribbean</label2>
						</labels>
					</clipitem>
					<clipitem id="clipitem-1847" frameBlend="FALSE" PannerCurrentValue="0.5" PannerKeyframes="" PannerStartKeyframe="-91445760000000000,0.5,0,0,0,0,0,0" PannerIsInverted="true" PannerName="Balance">
						<masterclipid>masterclip-338</masterclipid>
						<name>Kommentar 2_52.wav</name>
						<enabled>TRUE</enabled>
						<duration>1217</duration>
						<rate>
							<timebase>25</timebase>
							<ntsc>FALSE</ntsc>
						</rate>
						<start>31675</start>
						<end>31998</end>
						<in>8</in>
						<out>331</out>
						<file id="file-311"/>
						<sourcetrack>
							<mediatype>audio</mediatype>
							<trackindex>2</trackindex>
						</sourcetrack>
							<filter>
								<effect>
									<name>Audio Pan</name>
									<effectid>audiopan</effectid>
									<effectcategory>audiopan</effectcategory>
									<effecttype>audiopan</effecttype>
									<mediatype>audio</mediatype>
									<parameter authoringApp="PremierePro">
										<parameterid>pan</parameterid>
										<name>Pan</name>
										<valuemin>-1</valuemin>
										<valuemax>1</valuemax>
										<value>0</value>
									</parameter>
								</effect>
							</filter>
						<link>
							<linkclipref>clipitem-1802</linkclipref>
							<mediatype>audio</mediatype>
							<trackindex>18</trackindex>
							<clipindex>31</clipindex>
							<groupindex>1</groupindex>
						</link>
						<link>
							<linkclipref>clipitem-1847</linkclipref>
							<mediatype>audio</mediatype>
							<trackindex>19</trackindex>
							<clipindex>31</clipindex>
							<groupindex>1</groupindex>
						</link>
						<logginginfo>
							<description></description>
							<scene></scene>
							<shottake></shottake>
							<lognote></lognote>
						</logginginfo>
						<labels>
							<label2>Caribbean</label2>
						</labels>
					</clipitem>
					<clipitem id="clipitem-1848" frameBlend="FALSE" PannerCurrentValue="0.5" PannerKeyframes="" PannerStartKeyframe="-91445760000000000,0.5,0,0,0,0,0,0" PannerIsInverted="true" PannerName="Balance">
						<masterclipid>masterclip-339</masterclipid>
						<name>Kommentar 2_53.wav</name>
						<enabled>TRUE</enabled>
						<duration>804</duration>
						<rate>
							<timebase>25</timebase>
							<ntsc>FALSE</ntsc>
						</rate>
						<start>32132</start>
						<end>32228</end>
						<in>8</in>
						<out>104</out>
						<file id="file-312"/>
						<sourcetrack>
							<mediatype>audio</mediatype>
							<trackindex>2</trackindex>
						</sourcetrack>
							<filter>
								<effect>
									<name>Audio Pan</name>
									<effectid>audiopan</effectid>
									<effectcategory>audiopan</effectcategory>
									<effecttype>audiopan</effecttype>
									<mediatype>audio</mediatype>
									<parameter authoringApp="PremierePro">
										<parameterid>pan</parameterid>
										<name>Pan</name>
										<valuemin>-1</valuemin>
										<valuemax>1</valuemax>
										<value>0</value>
									</parameter>
								</effect>
							</filter>
						<link>
							<linkclipref>clipitem-1803</linkclipref>
							<mediatype>audio</mediatype>
							<trackindex>18</trackindex>
							<clipindex>32</clipindex>
							<groupindex>1</groupindex>
						</link>
						<link>
							<linkclipref>clipitem-1848</linkclipref>
							<mediatype>audio</mediatype>
							<trackindex>19</trackindex>
							<clipindex>32</clipindex>
							<groupindex>1</groupindex>
						</link>
						<logginginfo>
							<description></description>
							<scene></scene>
							<shottake></shottake>
							<lognote></lognote>
						</logginginfo>
						<labels>
							<label2>Caribbean</label2>
						</labels>
					</clipitem>
					<clipitem id="clipitem-1849" frameBlend="FALSE" PannerCurrentValue="0.5" PannerKeyframes="" PannerStartKeyframe="-91445760000000000,0.5,0,0,0,0,0,0" PannerIsInverted="true" PannerName="Balance">
						<masterclipid>masterclip-339</masterclipid>
						<name>Kommentar 2_53.wav</name>
						<enabled>TRUE</enabled>
						<duration>804</duration>
						<rate>
							<timebase>25</timebase>
							<ntsc>FALSE</ntsc>
						</rate>
						<start>32228</start>
						<end>32427</end>
						<in>130</in>
						<out>329</out>
						<file id="file-312"/>
						<sourcetrack>
							<mediatype>audio</mediatype>
							<trackindex>2</trackindex>
						</sourcetrack>
							<filter>
								<effect>
									<name>Audio Pan</name>
									<effectid>audiopan</effectid>
									<effectcategory>audiopan</effectcategory>
									<effecttype>audiopan</effecttype>
									<mediatype>audio</mediatype>
									<parameter authoringApp="PremierePro">
										<parameterid>pan</parameterid>
										<name>Pan</name>
										<valuemin>-1</valuemin>
										<valuemax>1</valuemax>
										<value>0</value>
									</parameter>
								</effect>
							</filter>
						<link>
							<linkclipref>clipitem-1804</linkclipref>
							<mediatype>audio</mediatype>
							<trackindex>18</trackindex>
							<clipindex>33</clipindex>
							<groupindex>1</groupindex>
						</link>
						<link>
							<linkclipref>clipitem-1849</linkclipref>
							<mediatype>audio</mediatype>
							<trackindex>19</trackindex>
							<clipindex>33</clipindex>
							<groupindex>1</groupindex>
						</link>
						<logginginfo>
							<description></description>
							<scene></scene>
							<shottake></shottake>
							<lognote></lognote>
						</logginginfo>
						<labels>
							<label2>Caribbean</label2>
						</labels>
					</clipitem>
					<clipitem id="clipitem-1850" frameBlend="FALSE" PannerCurrentValue="0.5" PannerKeyframes="" PannerStartKeyframe="-91445760000000000,0.5,0,0,0,0,0,0" PannerIsInverted="true" PannerName="Balance">
						<masterclipid>masterclip-339</masterclipid>
						<name>Kommentar 2_53.wav</name>
						<enabled>TRUE</enabled>
						<duration>804</duration>
						<rate>
							<timebase>25</timebase>
							<ntsc>FALSE</ntsc>
						</rate>
						<start>32427</start>
						<end>32516</end>
						<in>349</in>
						<out>438</out>
						<file id="file-312"/>
						<sourcetrack>
							<mediatype>audio</mediatype>
							<trackindex>2</trackindex>
						</sourcetrack>
							<filter>
								<effect>
									<name>Audio Pan</name>
									<effectid>audiopan</effectid>
									<effectcategory>audiopan</effectcategory>
									<effecttype>audiopan</effecttype>
									<mediatype>audio</mediatype>
									<parameter authoringApp="PremierePro">
										<parameterid>pan</parameterid>
										<name>Pan</name>
										<valuemin>-1</valuemin>
										<valuemax>1</valuemax>
										<value>0</value>
									</parameter>
								</effect>
							</filter>
						<link>
							<linkclipref>clipitem-1805</linkclipref>
							<mediatype>audio</mediatype>
							<trackindex>18</trackindex>
							<clipindex>34</clipindex>
							<groupindex>1</groupindex>
						</link>
						<link>
							<linkclipref>clipitem-1850</linkclipref>
							<mediatype>audio</mediatype>
							<trackindex>19</trackindex>
							<clipindex>34</clipindex>
							<groupindex>1</groupindex>
						</link>
						<logginginfo>
							<description></description>
							<scene></scene>
							<shottake></shottake>
							<lognote></lognote>
						</logginginfo>
						<labels>
							<label2>Caribbean</label2>
						</labels>
					</clipitem>
					<clipitem id="clipitem-1851" frameBlend="FALSE" PannerCurrentValue="0.5" PannerKeyframes="" PannerStartKeyframe="-91445760000000000,0.5,0,0,0,0,0,0" PannerIsInverted="true" PannerName="Balance">
						<masterclipid>masterclip-340</masterclipid>
						<name>Komm 2_5.wav</name>
						<enabled>TRUE</enabled>
						<duration>314</duration>
						<rate>
							<timebase>25</timebase>
							<ntsc>FALSE</ntsc>
						</rate>
						<start>32516</start>
						<end>32686</end>
						<in>49</in>
						<out>219</out>
						<file id="file-313"/>
						<sourcetrack>
							<mediatype>audio</mediatype>
							<trackindex>2</trackindex>
						</sourcetrack>
							<filter>
								<effect>
									<name>Audio Pan</name>
									<effectid>audiopan</effectid>
									<effectcategory>audiopan</effectcategory>
									<effecttype>audiopan</effecttype>
									<mediatype>audio</mediatype>
									<parameter authoringApp="PremierePro">
										<parameterid>pan</parameterid>
										<name>Pan</name>
										<valuemin>-1</valuemin>
										<valuemax>1</valuemax>
										<value>0</value>
									</parameter>
								</effect>
							</filter>
						<link>
							<linkclipref>clipitem-1806</linkclipref>
							<mediatype>audio</mediatype>
							<trackindex>18</trackindex>
							<clipindex>35</clipindex>
							<groupindex>1</groupindex>
						</link>
						<link>
							<linkclipref>clipitem-1851</linkclipref>
							<mediatype>audio</mediatype>
							<trackindex>19</trackindex>
							<clipindex>35</clipindex>
							<groupindex>1</groupindex>
						</link>
						<logginginfo>
							<description></description>
							<scene></scene>
							<shottake></shottake>
							<lognote></lognote>
						</logginginfo>
						<labels>
							<label2>Caribbean</label2>
						</labels>
					</clipitem>
					<clipitem id="clipitem-1852" frameBlend="FALSE" PannerCurrentValue="0.5" PannerKeyframes="" PannerStartKeyframe="-91445760000000000,0.5,0,0,0,0,0,0" PannerIsInverted="true" PannerName="Balance">
						<masterclipid>masterclip-341</masterclipid>
						<name>Komm 2_6.wav</name>
						<enabled>TRUE</enabled>
						<duration>327</duration>
						<rate>
							<timebase>25</timebase>
							<ntsc>FALSE</ntsc>
						</rate>
						<start>32750</start>
						<end>32969</end>
						<in>92</in>
						<out>311</out>
						<file id="file-314"/>
						<sourcetrack>
							<mediatype>audio</mediatype>
							<trackindex>2</trackindex>
						</sourcetrack>
							<filter>
								<effect>
									<name>Audio Pan</name>
									<effectid>audiopan</effectid>
									<effectcategory>audiopan</effectcategory>
									<effecttype>audiopan</effecttype>
									<mediatype>audio</mediatype>
									<parameter authoringApp="PremierePro">
										<parameterid>pan</parameterid>
										<name>Pan</name>
										<valuemin>-1</valuemin>
										<valuemax>1</valuemax>
										<value>0</value>
									</parameter>
								</effect>
							</filter>
						<link>
							<linkclipref>clipitem-1807</linkclipref>
							<mediatype>audio</mediatype>
							<trackindex>18</trackindex>
							<clipindex>36</clipindex>
							<groupindex>1</groupindex>
						</link>
						<link>
							<linkclipref>clipitem-1852</linkclipref>
							<mediatype>audio</mediatype>
							<trackindex>19</trackindex>
							<clipindex>36</clipindex>
							<groupindex>1</groupindex>
						</link>
						<logginginfo>
							<description></description>
							<scene></scene>
							<shottake></shottake>
							<lognote></lognote>
						</logginginfo>
						<labels>
							<label2>Caribbean</label2>
						</labels>
					</clipitem>
					<clipitem id="clipitem-1853" frameBlend="FALSE" PannerCurrentValue="0.5" PannerKeyframes="" PannerStartKeyframe="-91445760000000000,0.5,0,0,0,0,0,0" PannerIsInverted="true" PannerName="Balance">
						<masterclipid>masterclip-342</masterclipid>
						<name>Kommentar 2_56.wav</name>
						<enabled>TRUE</enabled>
						<duration>352</duration>
						<rate>
							<timebase>25</timebase>
							<ntsc>FALSE</ntsc>
						</rate>
						<start>33980</start>
						<end>34324</end>
						<in>8</in>
						<out>352</out>
						<file id="file-315"/>
						<sourcetrack>
							<mediatype>audio</mediatype>
							<trackindex>2</trackindex>
						</sourcetrack>
							<filter>
								<effect>
									<name>Audio Levels</name>
									<effectid>audiolevels</effectid>
									<effectcategory>audiolevels</effectcategory>
									<effecttype>audiolevels</effecttype>
									<mediatype>audio</mediatype>
									<parameter authoringApp="PremierePro">
										<parameterid>level</parameterid>
										<name>Level</name>
										<valuemin>0</valuemin>
										<valuemax>3.98109</valuemax>
										<value>1.58114</value>
									</parameter>
								</effect>
							</filter>
							<filter>
								<effect>
									<name>Audio Pan</name>
									<effectid>audiopan</effectid>
									<effectcategory>audiopan</effectcategory>
									<effecttype>audiopan</effecttype>
									<mediatype>audio</mediatype>
									<parameter authoringApp="PremierePro">
										<parameterid>pan</parameterid>
										<name>Pan</name>
										<valuemin>-1</valuemin>
										<valuemax>1</valuemax>
										<value>0</value>
									</parameter>
								</effect>
							</filter>
						<link>
							<linkclipref>clipitem-1808</linkclipref>
							<mediatype>audio</mediatype>
							<trackindex>18</trackindex>
							<clipindex>37</clipindex>
							<groupindex>1</groupindex>
						</link>
						<link>
							<linkclipref>clipitem-1853</linkclipref>
							<mediatype>audio</mediatype>
							<trackindex>19</trackindex>
							<clipindex>37</clipindex>
							<groupindex>1</groupindex>
						</link>
						<logginginfo>
							<description></description>
							<scene></scene>
							<shottake></shottake>
							<lognote></lognote>
						</logginginfo>
						<labels>
							<label2>Caribbean</label2>
						</labels>
					</clipitem>
					<clipitem id="clipitem-1854" frameBlend="FALSE" PannerCurrentValue="0.5" PannerKeyframes="" PannerStartKeyframe="-91445760000000000,0.5,0,0,0,0,0,0" PannerIsInverted="true" PannerName="Balance">
						<masterclipid>masterclip-343</masterclipid>
						<name>Kommentar 2_58.wav</name>
						<enabled>TRUE</enabled>
						<duration>574</duration>
						<rate>
							<timebase>25</timebase>
							<ntsc>FALSE</ntsc>
						</rate>
						<start>34641</start>
						<end>34759</end>
						<in>8</in>
						<out>126</out>
						<file id="file-316"/>
						<sourcetrack>
							<mediatype>audio</mediatype>
							<trackindex>2</trackindex>
						</sourcetrack>
							<filter>
								<effect>
									<name>Audio Pan</name>
									<effectid>audiopan</effectid>
									<effectcategory>audiopan</effectcategory>
									<effecttype>audiopan</effecttype>
									<mediatype>audio</mediatype>
									<parameter authoringApp="PremierePro">
										<parameterid>pan</parameterid>
										<name>Pan</name>
										<valuemin>-1</valuemin>
										<valuemax>1</valuemax>
										<value>0</value>
									</parameter>
								</effect>
							</filter>
						<link>
							<linkclipref>clipitem-1809</linkclipref>
							<mediatype>audio</mediatype>
							<trackindex>18</trackindex>
							<clipindex>38</clipindex>
							<groupindex>1</groupindex>
						</link>
						<link>
							<linkclipref>clipitem-1854</linkclipref>
							<mediatype>audio</mediatype>
							<trackindex>19</trackindex>
							<clipindex>38</clipindex>
							<groupindex>1</groupindex>
						</link>
						<logginginfo>
							<description></description>
							<scene></scene>
							<shottake></shottake>
							<lognote></lognote>
						</logginginfo>
						<labels>
							<label2>Caribbean</label2>
						</labels>
					</clipitem>
					<clipitem id="clipitem-1855" frameBlend="FALSE" PannerCurrentValue="0.5" PannerKeyframes="" PannerStartKeyframe="-91445760000000000,0.5,0,0,0,0,0,0" PannerIsInverted="true" PannerName="Balance">
						<masterclipid>masterclip-343</masterclipid>
						<name>Kommentar 2_58.wav</name>
						<enabled>TRUE</enabled>
						<duration>574</duration>
						<rate>
							<timebase>25</timebase>
							<ntsc>FALSE</ntsc>
						</rate>
						<start>34759</start>
						<end>35160</end>
						<in>173</in>
						<out>574</out>
						<file id="file-316"/>
						<sourcetrack>
							<mediatype>audio</mediatype>
							<trackindex>2</trackindex>
						</sourcetrack>
							<filter>
								<effect>
									<name>Audio Pan</name>
									<effectid>audiopan</effectid>
									<effectcategory>audiopan</effectcategory>
									<effecttype>audiopan</effecttype>
									<mediatype>audio</mediatype>
									<parameter authoringApp="PremierePro">
										<parameterid>pan</parameterid>
										<name>Pan</name>
										<valuemin>-1</valuemin>
										<valuemax>1</valuemax>
										<value>0</value>
									</parameter>
								</effect>
							</filter>
						<link>
							<linkclipref>clipitem-1810</linkclipref>
							<mediatype>audio</mediatype>
							<trackindex>18</trackindex>
							<clipindex>39</clipindex>
							<groupindex>1</groupindex>
						</link>
						<link>
							<linkclipref>clipitem-1855</linkclipref>
							<mediatype>audio</mediatype>
							<trackindex>19</trackindex>
							<clipindex>39</clipindex>
							<groupindex>1</groupindex>
						</link>
						<logginginfo>
							<description></description>
							<scene></scene>
							<shottake></shottake>
							<lognote></lognote>
						</logginginfo>
						<labels>
							<label2>Caribbean</label2>
						</labels>
					</clipitem>
					<clipitem id="clipitem-1856" frameBlend="FALSE" PannerCurrentValue="0.5" PannerKeyframes="" PannerStartKeyframe="-91445760000000000,0.5,0,0,0,0,0,0" PannerIsInverted="true" PannerName="Balance">
						<masterclipid>masterclip-344</masterclipid>
						<name>Komm 2_8.wav</name>
						<enabled>TRUE</enabled>
						<duration>294</duration>
						<rate>
							<timebase>25</timebase>
							<ntsc>FALSE</ntsc>
						</rate>
						<start>38207</start>
						<end>38305</end>
						<in>104</in>
						<out>202</out>
						<file id="file-317"/>
						<sourcetrack>
							<mediatype>audio</mediatype>
							<trackindex>2</trackindex>
						</sourcetrack>
							<filter>
								<effect>
									<name>Audio Pan</name>
									<effectid>audiopan</effectid>
									<effectcategory>audiopan</effectcategory>
									<effecttype>audiopan</effecttype>
									<mediatype>audio</mediatype>
									<parameter authoringApp="PremierePro">
										<parameterid>pan</parameterid>
										<name>Pan</name>
										<valuemin>-1</valuemin>
										<valuemax>1</valuemax>
										<value>0</value>
									</parameter>
								</effect>
							</filter>
						<link>
							<linkclipref>clipitem-1811</linkclipref>
							<mediatype>audio</mediatype>
							<trackindex>18</trackindex>
							<clipindex>40</clipindex>
							<groupindex>1</groupindex>
						</link>
						<link>
							<linkclipref>clipitem-1856</linkclipref>
							<mediatype>audio</mediatype>
							<trackindex>19</trackindex>
							<clipindex>40</clipindex>
							<groupindex>1</groupindex>
						</link>
						<logginginfo>
							<description></description>
							<scene></scene>
							<shottake></shottake>
							<lognote></lognote>
						</logginginfo>
						<labels>
							<label2>Caribbean</label2>
						</labels>
					</clipitem>
					<clipitem id="clipitem-1857" frameBlend="FALSE" PannerCurrentValue="0.5" PannerKeyframes="" PannerStartKeyframe="-91445760000000000,0.5,0,0,0,0,0,0" PannerIsInverted="true" PannerName="Balance">
						<masterclipid>masterclip-344</masterclipid>
						<name>Komm 2_8.wav</name>
						<enabled>TRUE</enabled>
						<duration>294</duration>
						<rate>
							<timebase>25</timebase>
							<ntsc>FALSE</ntsc>
						</rate>
						<start>38305</start>
						<end>38319</end>
						<in>226</in>
						<out>240</out>
						<file id="file-317"/>
						<sourcetrack>
							<mediatype>audio</mediatype>
							<trackindex>2</trackindex>
						</sourcetrack>
							<filter>
								<effect>
									<name>Audio Pan</name>
									<effectid>audiopan</effectid>
									<effectcategory>audiopan</effectcategory>
									<effecttype>audiopan</effecttype>
									<mediatype>audio</mediatype>
									<parameter authoringApp="PremierePro">
										<parameterid>pan</parameterid>
										<name>Pan</name>
										<valuemin>-1</valuemin>
										<valuemax>1</valuemax>
										<value>0</value>
									</parameter>
								</effect>
							</filter>
						<link>
							<linkclipref>clipitem-1812</linkclipref>
							<mediatype>audio</mediatype>
							<trackindex>18</trackindex>
							<clipindex>41</clipindex>
							<groupindex>1</groupindex>
						</link>
						<link>
							<linkclipref>clipitem-1857</linkclipref>
							<mediatype>audio</mediatype>
							<trackindex>19</trackindex>
							<clipindex>41</clipindex>
							<groupindex>1</groupindex>
						</link>
						<logginginfo>
							<description></description>
							<scene></scene>
							<shottake></shottake>
							<lognote></lognote>
						</logginginfo>
						<labels>
							<label2>Caribbean</label2>
						</labels>
					</clipitem>
					<clipitem id="clipitem-1858" frameBlend="FALSE" PannerCurrentValue="0.5" PannerKeyframes="" PannerStartKeyframe="-91445760000000000,0.5,0,0,0,0,0,0" PannerIsInverted="true" PannerName="Balance">
						<masterclipid>masterclip-344</masterclipid>
						<name>Komm 2_8.wav</name>
						<enabled>TRUE</enabled>
						<duration>294</duration>
						<rate>
							<timebase>25</timebase>
							<ntsc>FALSE</ntsc>
						</rate>
						<start>38319</start>
						<end>38324</end>
						<in>289</in>
						<out>294</out>
						<file id="file-317"/>
						<sourcetrack>
							<mediatype>audio</mediatype>
							<trackindex>2</trackindex>
						</sourcetrack>
							<filter>
								<effect>
									<name>Audio Pan</name>
									<effectid>audiopan</effectid>
									<effectcategory>audiopan</effectcategory>
									<effecttype>audiopan</effecttype>
									<mediatype>audio</mediatype>
									<parameter authoringApp="PremierePro">
										<parameterid>pan</parameterid>
										<name>Pan</name>
										<valuemin>-1</valuemin>
										<valuemax>1</valuemax>
										<value>0</value>
									</parameter>
								</effect>
							</filter>
						<link>
							<linkclipref>clipitem-1813</linkclipref>
							<mediatype>audio</mediatype>
							<trackindex>18</trackindex>
							<clipindex>42</clipindex>
							<groupindex>1</groupindex>
						</link>
						<link>
							<linkclipref>clipitem-1858</linkclipref>
							<mediatype>audio</mediatype>
							<trackindex>19</trackindex>
							<clipindex>42</clipindex>
							<groupindex>1</groupindex>
						</link>
						<logginginfo>
							<description></description>
							<scene></scene>
							<shottake></shottake>
							<lognote></lognote>
						</logginginfo>
						<labels>
							<label2>Caribbean</label2>
						</labels>
					</clipitem>
					<clipitem id="clipitem-1859" frameBlend="FALSE" PannerCurrentValue="0.5" PannerKeyframes="" PannerStartKeyframe="-91445760000000000,0.5,0,0,0,0,0,0" PannerIsInverted="true" PannerName="Balance">
						<masterclipid>masterclip-345</masterclipid>
						<name>Kommentar 2_61.wav</name>
						<enabled>TRUE</enabled>
						<duration>1457</duration>
						<rate>
							<timebase>25</timebase>
							<ntsc>FALSE</ntsc>
						</rate>
						<start>38610</start>
						<end>38860</end>
						<in>451</in>
						<out>701</out>
						<file id="file-318"/>
						<sourcetrack>
							<mediatype>audio</mediatype>
							<trackindex>2</trackindex>
						</sourcetrack>
							<filter>
								<effect>
									<name>Audio Pan</name>
									<effectid>audiopan</effectid>
									<effectcategory>audiopan</effectcategory>
									<effecttype>audiopan</effecttype>
									<mediatype>audio</mediatype>
									<parameter authoringApp="PremierePro">
										<parameterid>pan</parameterid>
										<name>Pan</name>
										<valuemin>-1</valuemin>
										<valuemax>1</valuemax>
										<value>0</value>
									</parameter>
								</effect>
							</filter>
						<link>
							<linkclipref>clipitem-1814</linkclipref>
							<mediatype>audio</mediatype>
							<trackindex>18</trackindex>
							<clipindex>43</clipindex>
							<groupindex>1</groupindex>
						</link>
						<link>
							<linkclipref>clipitem-1859</linkclipref>
							<mediatype>audio</mediatype>
							<trackindex>19</trackindex>
							<clipindex>43</clipindex>
							<groupindex>1</groupindex>
						</link>
						<logginginfo>
							<description></description>
							<scene></scene>
							<shottake></shottake>
							<lognote></lognote>
						</logginginfo>
						<labels>
							<label2>Caribbean</label2>
						</labels>
					</clipitem>
					<clipitem id="clipitem-1860" frameBlend="FALSE" PannerCurrentValue="0.5" PannerKeyframes="" PannerStartKeyframe="-91445760000000000,0.5,0,0,0,0,0,0" PannerIsInverted="true" PannerName="Balance">
						<masterclipid>masterclip-346</masterclipid>
						<name>Kommentar 2_62.wav</name>
						<enabled>TRUE</enabled>
						<duration>822</duration>
						<rate>
							<timebase>25</timebase>
							<ntsc>FALSE</ntsc>
						</rate>
						<start>39684</start>
						<end>40157</end>
						<in>251</in>
						<out>724</out>
						<file id="file-319"/>
						<sourcetrack>
							<mediatype>audio</mediatype>
							<trackindex>2</trackindex>
						</sourcetrack>
							<filter>
								<effect>
									<name>Audio Pan</name>
									<effectid>audiopan</effectid>
									<effectcategory>audiopan</effectcategory>
									<effecttype>audiopan</effecttype>
									<mediatype>audio</mediatype>
									<parameter authoringApp="PremierePro">
										<parameterid>pan</parameterid>
										<name>Pan</name>
										<valuemin>-1</valuemin>
										<valuemax>1</valuemax>
										<value>0</value>
									</parameter>
								</effect>
							</filter>
						<link>
							<linkclipref>clipitem-1815</linkclipref>
							<mediatype>audio</mediatype>
							<trackindex>18</trackindex>
							<clipindex>44</clipindex>
							<groupindex>1</groupindex>
						</link>
						<link>
							<linkclipref>clipitem-1860</linkclipref>
							<mediatype>audio</mediatype>
							<trackindex>19</trackindex>
							<clipindex>44</clipindex>
							<groupindex>1</groupindex>
						</link>
						<logginginfo>
							<description></description>
							<scene></scene>
							<shottake></shottake>
							<lognote></lognote>
						</logginginfo>
						<labels>
							<label2>Caribbean</label2>
						</labels>
					</clipitem>
					<clipitem id="clipitem-1861" frameBlend="FALSE" PannerCurrentValue="0.5" PannerKeyframes="" PannerStartKeyframe="-91445760000000000,0.5,0,0,0,0,0,0" PannerIsInverted="true" PannerName="Balance">
						<masterclipid>masterclip-347</masterclipid>
						<name>Kommentar 2_68.wav</name>
						<enabled>TRUE</enabled>
						<duration>832</duration>
						<rate>
							<timebase>25</timebase>
							<ntsc>FALSE</ntsc>
						</rate>
						<start>40417</start>
						<end>41006</end>
						<in>243</in>
						<out>832</out>
						<file id="file-320"/>
						<sourcetrack>
							<mediatype>audio</mediatype>
							<trackindex>2</trackindex>
						</sourcetrack>
							<filter>
								<effect>
									<name>Audio Pan</name>
									<effectid>audiopan</effectid>
									<effectcategory>audiopan</effectcategory>
									<effecttype>audiopan</effecttype>
									<mediatype>audio</mediatype>
									<parameter authoringApp="PremierePro">
										<parameterid>pan</parameterid>
										<name>Pan</name>
										<valuemin>-1</valuemin>
										<valuemax>1</valuemax>
										<value>0</value>
									</parameter>
								</effect>
							</filter>
						<link>
							<linkclipref>clipitem-1816</linkclipref>
							<mediatype>audio</mediatype>
							<trackindex>18</trackindex>
							<clipindex>45</clipindex>
							<groupindex>1</groupindex>
						</link>
						<link>
							<linkclipref>clipitem-1861</linkclipref>
							<mediatype>audio</mediatype>
							<trackindex>19</trackindex>
							<clipindex>45</clipindex>
							<groupindex>1</groupindex>
						</link>
						<logginginfo>
							<description></description>
							<scene></scene>
							<shottake></shottake>
							<lognote></lognote>
						</logginginfo>
						<labels>
							<label2>Caribbean</label2>
						</labels>
					</clipitem>
					<enabled>TRUE</enabled>
					<locked>FALSE</locked>
					<outputchannelindex>2</outputchannelindex>
				</track>
			</audio>
		</media>
		<timecode>
			<rate>
				<timebase>25</timebase>
				<ntsc>FALSE</ntsc>
			</rate>
			<string>00:00:00:00</string>
			<frame>0</frame>
			<displayformat>NDF</displayformat>
		</timecode>
			<marker>
				<comment></comment>
				<name></name>
				<in>983</in>
				<out>-1</out>
			</marker>
		<labels>
			<label2>Forest</label2>
		</labels>
	</sequence>
</xmeml>
