<?xml version="1.0" encoding="UTF-8"?>
<!DOCTYPE xmeml>
<xmeml version="1">
<sequence id="Fin fredag ep1 MASTER til HK">
	<name>Fin fredag ep1 MASTER til HK</name>
	<duration>43500</duration>
	<rate>
		<ntsc>FALSE</ntsc>
		<timebase>25</timebase>
	</rate>
	<timecode>
		<rate>
			<ntsc>FALSE</ntsc>
			<timebase>25</timebase>
		</rate>
		<string>00:00:00:00</string>
		<frame>0</frame>
		<source>source</source>
		<displayformat>NDF</displayformat>
	</timecode>
	<in>0</in>
	<out>43501</out>
	<media>
		<video>
			<format>
				<samplecharacteristics>
					<width>1920</width>
					<height>1080</height>
					<anamorphic>FALSE</anamorphic>
					<pixelaspectratio>Square</pixelaspectratio>
					<fielddominance>upper</fielddominance>
					<rate>
						<ntsc>FALSE</ntsc>
						<timebase>25</timebase>
					</rate>
					<colordepth>24</colordepth>
					<codec>
						<name>Apple XDCAM 422 1080i50 (50 Mb/s CBR)</name>
						<appspecificdata>
							<appname>Final Cut Pro</appname>
							<appmanufacturer>Apple Inc.</appmanufacturer>
							<appversion>7.0</appversion>
							<data>
								<qtcodec>
									<codecname>Apple XDCAM 422 1080i50 (50 Mb/s CBR)</codecname>
									<codectypename>XDCAM 422 1080i50 (50 Mb/s CBR)</codectypename>
									<codectypecode>xd5c</codectypecode>
									<codecvendorcode>appl</codecvendorcode>
									<spatialquality>1023</spatialquality>
									<temporalquality>0</temporalquality>
									<keyframerate>0</keyframerate>
									<datarate>0</datarate>
								</qtcodec>
							</data>
						</appspecificdata>
					</codec>
				</samplecharacteristics>
				<appspecificdata>
					<appname>Final Cut Pro</appname>
					<appmanufacturer>Apple Inc.</appmanufacturer>
					<appversion>7.0</appversion>
					<data>
						<fcpimageprocessing>
							<useyuv>TRUE</useyuv>
							<usesuperwhite>FALSE</usesuperwhite>
							<rendermode>YUV8BPP</rendermode>
						</fcpimageprocessing>
					</data>
				</appspecificdata>
			</format>
			<track>
				<clipitem id="FinFredag_prg01_00000000 ">
					<name>FinFredag_prg01_00000000</name>
					<duration>43500</duration>
					<rate>
						<ntsc>FALSE</ntsc>
						<timebase>25</timebase>
					</rate>
					<in>0</in>
					<out>41638</out>
					<start>0</start>
					<end>41638</end>
					<pixelaspectratio>Square</pixelaspectratio>
					<enabled>TRUE</enabled>
					<anamorphic>FALSE</anamorphic>
					<alphatype>none</alphatype>
					<masterclipid>FinFredag_prg01_00000000 1</masterclipid>
					<logginginfo>
						<scene/>
						<shottake/>
						<lognote/>
						<good>FALSE</good>
					</logginginfo>
					<labels>
						<label2/>
					</labels>
					<comments>
						<mastercomment1/>
						<mastercomment2/>
						<mastercomment3/>
						<mastercomment4/>
					</comments>
					<file id="FinFredag_prg01_00000000 2">
						<name>FinFredag_prg01_00000000.mov</name>
						<pathurl>file://localhost/Volumes/SuperSAN1/Prosjekter/MSUB20000012%20FIN%20FREDAG/FCP-prosjekter/program%201/fargekorrigering/FinFredag_prg01_00000000.mov</pathurl>
						<rate>
							<timebase>25</timebase>
						</rate>
						<duration>43500</duration>
						<timecode>
							<rate>
								<timebase>25</timebase>
							</rate>
							<string>00:00:00:00</string>
							<frame>0</frame>
							<displayformat>NDF</displayformat>
							<source>source</source>
						</timecode>
						<media>
							<video>
								<duration>43500</duration>
								<samplecharacteristics>
									<width>1920</width>
									<height>1080</height>
								</samplecharacteristics>
							</video>
						</media>
					</file>
					<sourcetrack>
						<mediatype>video</mediatype>
					</sourcetrack>
					<fielddominance>none</fielddominance>
				</clipitem>
				<clipitem id="BG TanteTaco">
					<name>BG TanteTaco</name>
					<duration>750</duration>
					<rate>
						<ntsc>FALSE</ntsc>
						<timebase>25</timebase>
					</rate>
					<in>0</in>
					<out>495</out>
					<start>41638</start>
					<end>42133</end>
					<pixelaspectratio>Square</pixelaspectratio>
					<anamorphic>FALSE</anamorphic>
					<alphatype>none</alphatype>
					<masterclipid>BG TanteTaco1</masterclipid>
					<logginginfo>
						<scene/>
						<shottake/>
						<lognote/>
						<good>FALSE</good>
					</logginginfo>
					<labels>
						<label2/>
					</labels>
					<comments>
						<mastercomment1/>
						<mastercomment2/>
						<mastercomment3/>
						<mastercomment4/>
					</comments>
					<file id="BG TanteTaco2">
						<name>BG TanteTaco.mov</name>
						<pathurl>file://localhost/Volumes/SuperSAN1/Prosjekter/MSUB20000012%20FIN%20FREDAG/Profil-grafikk/01_MASTER/Bakgrunenr/BG%20TanteTaco.mov</pathurl>
						<rate>
							<timebase>25</timebase>
						</rate>
						<duration>750</duration>
						<timecode>
							<rate>
								<timebase>25</timebase>
							</rate>
							<string>00:00:00:01</string>
							<frame>1</frame>
							<displayformat>NDF</displayformat>
							<source>source</source>
						</timecode>
						<media>
							<video>
								<duration>750</duration>
								<samplecharacteristics>
									<width>1920</width>
									<height>1080</height>
								</samplecharacteristics>
							</video>
						</media>
					</file>
					<sourcetrack>
						<mediatype>video</mediatype>
					</sourcetrack>
					<fielddominance>upper</fielddominance>
				</clipitem>
				<clipitem id="FinFredag_prg01_00000000 3">
					<name>FinFredag_prg01_00000000</name>
					<duration>43500</duration>
					<rate>
						<ntsc>FALSE</ntsc>
						<timebase>25</timebase>
					</rate>
					<in>42133</in>
					<out>43062</out>
					<start>42133</start>
					<end>43062</end>
					<pixelaspectratio>Square</pixelaspectratio>
					<enabled>TRUE</enabled>
					<anamorphic>FALSE</anamorphic>
					<alphatype>none</alphatype>
					<masterclipid>FinFredag_prg01_00000000 1</masterclipid>
					<logginginfo>
						<scene/>
						<shottake/>
						<lognote/>
						<good>FALSE</good>
					</logginginfo>
					<labels>
						<label2/>
					</labels>
					<comments>
						<mastercomment1/>
						<mastercomment2/>
						<mastercomment3/>
						<mastercomment4/>
					</comments>
					<file id="FinFredag_prg01_00000000 2"/>
					<sourcetrack>
						<mediatype>video</mediatype>
					</sourcetrack>
					<fielddominance>none</fielddominance>
				</clipitem>
				<enabled>TRUE</enabled>
				<locked>FALSE</locked>
			</track>
			<track>
				<clipitem id="Finfredag-Ep1-Tooji-master fargekorrigert 00:00:39:24 ">
					<name>Finfredag-Ep1-Tooji-master fargekorrigert 00:00:39:24</name>
					<duration>3000</duration>
					<rate>
						<ntsc>FALSE</ntsc>
						<timebase>25</timebase>
					</rate>
					<in>1488</in>
					<out>1517</out>
					<start>999</start>
					<end>1028</end>
					<labels>
						<label>Best Take</label>
					</labels>
					<sequence id="Finfredag-Ep1-Tooji-master fargekorrigert 00:00:39:24 1">
						<name>Finfredag-Ep1-Tooji-master fargekorrigert 00:00:39:24</name>
						<duration>3000</duration>
						<rate>
							<ntsc>FALSE</ntsc>
							<timebase>25</timebase>
						</rate>
						<in>0</in>
						<out>3000</out>
						<media>
							<video>
								<format>
									<samplecharacteristics>
										<width>1920</width>
										<height>1080</height>
										<anamorphic>FALSE</anamorphic>
										<pixelaspectratio>Square</pixelaspectratio>
										<fielddominance>upper</fielddominance>
										<rate>
											<ntsc>FALSE</ntsc>
											<timebase>25</timebase>
										</rate>
										<colordepth>24</colordepth>
										<codec>
											<name>Apple XDCAM 422 1080i50 (50 Mb/s CBR)</name>
											<appspecificdata>
												<appname>Final Cut Pro</appname>
												<appmanufacturer>Apple Inc.</appmanufacturer>
												<appversion>7.0</appversion>
												<data>
													<qtcodec>
														<codecname>Apple XDCAM 422 1080i50 (50 Mb/s CBR)</codecname>
														<codectypename>XDCAM 422 1080i50 (50 Mb/s CBR)</codectypename>
														<codectypecode>xd5c</codectypecode>
														<codecvendorcode>appl</codecvendorcode>
														<spatialquality>1023</spatialquality>
														<temporalquality>0</temporalquality>
														<keyframerate>0</keyframerate>
														<datarate>0</datarate>
													</qtcodec>
												</data>
											</appspecificdata>
										</codec>
									</samplecharacteristics>
									<appspecificdata>
										<appname>Final Cut Pro</appname>
										<appmanufacturer>Apple Inc.</appmanufacturer>
										<appversion>7.0</appversion>
										<data>
											<fcpimageprocessing>
												<useyuv>TRUE</useyuv>
												<usesuperwhite>FALSE</usesuperwhite>
												<rendermode>YUV8BPP</rendermode>
											</fcpimageprocessing>
										</data>
									</appspecificdata>
								</format>
								<track>
									<clipitem id="Finfredag-Ep1-Tooji-master fargekorrigert 00:00:39:24 2">
										<name>Finfredag-Ep1-Tooji-master fargekorrigert 00:00:39:24</name>
										<duration>3000</duration>
										<rate>
											<ntsc>FALSE</ntsc>
											<timebase>25</timebase>
										</rate>
										<in>0</in>
										<out>3000</out>
										<start>0</start>
										<end>3000</end>
										<stillframeoffset>999</stillframeoffset>
										<pixelaspectratio>Square</pixelaspectratio>
										<anamorphic>FALSE</anamorphic>
										<alphatype>none</alphatype>
										<alphareverse>FALSE</alphareverse>
										<logginginfo>
											<scene/>
											<shottake/>
											<lognote/>
											<good>FALSE</good>
										</logginginfo>
										<labels>
											<label2/>
										</labels>
										<comments>
											<mastercomment1/>
											<mastercomment2/>
											<mastercomment3/>
											<mastercomment4/>
										</comments>
										<file id="FinFredag_prg01_00000000 2"/>
										<sourcetrack>
											<mediatype>video</mediatype>
										</sourcetrack>
										<fielddominance>none</fielddominance>
									</clipitem>
									<enabled>TRUE</enabled>
									<locked>FALSE</locked>
								</track>
								<track>
									<clipitem id="Finfredag-Ep1-Tooji-master fargekorrigert 00:00:39:24 3">
										<name>Finfredag-Ep1-Tooji-master fargekorrigert 00:00:39:24</name>
										<duration>3000</duration>
										<rate>
											<ntsc>FALSE</ntsc>
											<timebase>25</timebase>
										</rate>
										<in>0</in>
										<out>3000</out>
										<start>0</start>
										<end>3000</end>
										<stillframeoffset>28</stillframeoffset>
										<pixelaspectratio>Square</pixelaspectratio>
										<enabled>FALSE</enabled>
										<anamorphic>FALSE</anamorphic>
										<alphatype>straight</alphatype>
										<alphareverse>FALSE</alphareverse>
										<logginginfo>
											<scene/>
											<shottake/>
											<lognote/>
											<good>FALSE</good>
										</logginginfo>
										<labels>
											<label2/>
										</labels>
										<comments>
											<mastercomment1/>
											<mastercomment2/>
											<mastercomment3/>
											<mastercomment4/>
										</comments>
										<file id="STJERNE_wipe">
											<name>STJERNE_wipe.mov</name>
											<pathurl>file://localhost/Volumes/SuperSAN1/Prosjekter/MSUB20000012%20FIN%20FREDAG/Profil-grafikk/Wipes/STJERNE_wipe.mov</pathurl>
											<rate>
												<timebase>25</timebase>
											</rate>
											<duration>55</duration>
											<timecode>
												<rate>
													<timebase>25</timebase>
												</rate>
												<string>00:00:00:00</string>
												<frame>0</frame>
												<displayformat>NDF</displayformat>
												<source>source</source>
											</timecode>
											<media>
												<video>
													<duration>55</duration>
													<samplecharacteristics>
														<width>1920</width>
														<height>1080</height>
													</samplecharacteristics>
												</video>
											</media>
										</file>
										<sourcetrack>
											<mediatype>video</mediatype>
										</sourcetrack>
										<fielddominance>upper</fielddominance>
										<filter>
											<effect>
												<name>Time Remap</name>
												<effectid>timeremap</effectid>
												<effectcategory>motion</effectcategory>
												<effecttype>motion</effecttype>
												<mediatype>video</mediatype>
												<parameter>
													<parameterid>variablespeed</parameterid>
													<name>variablespeed</name>
													<valuemin>0</valuemin>
													<valuemax>1</valuemax>
													<value>0</value>
												</parameter>
												<parameter>
													<parameterid>mappedduration</parameterid>
													<name>mappedduration</name>
													<value>
														<timecode>
															<rate>
																<timebase>0</timebase>
															</rate>
															<string>0</string>
															<frame>0</frame>
															<displayformat>NDF</displayformat>
														</timecode>
													</value>
												</parameter>
												<parameter>
													<parameterid>speed</parameterid>
													<name>speed</name>
													<valuemin>-10000</valuemin>
													<valuemax>10000</valuemax>
													<value>100</value>
												</parameter>
												<parameter>
													<parameterid>reverse</parameterid>
													<name>reverse</name>
													<value>TRUE</value>
												</parameter>
												<parameter>
													<parameterid>frameblending</parameterid>
													<name>frameblending</name>
													<value>TRUE</value>
												</parameter>
												<parameter>
													<parameterid>graphdict</parameterid>
													<name>graphdict</name>
													<valuemin>0</valuemin>
													<valuemax>54</valuemax>
													<keyframe>
														<when>0</when>
														<value>56</value>
														<speedkfin>TRUE</speedkfin>
													</keyframe>
													<keyframe>
														<when>55</when>
														<value>1</value>
													</keyframe>
													<keyframe>
														<when>3000</when>
														<value>-2944</value>
														<speedkfout>TRUE</speedkfout>
														<speedvirtualkf>TRUE</speedvirtualkf>
													</keyframe>
													<interpolation>
														<name>FCPCurve</name>
													</interpolation>
													<value>54</value>
												</parameter>
											</effect>
										</filter>
									</clipitem>
									<enabled>TRUE</enabled>
									<locked>FALSE</locked>
								</track>
							</video>
						</media>
					</sequence>
					<sourcetrack>
						<mediatype>video</mediatype>
					</sourcetrack>
					<ismasterclip>FALSE</ismasterclip>
				</clipitem>
				<clipitem id="Logo Bumper_m.lydhale">
					<name>Logo Bumper_m.lydhale</name>
					<duration>102</duration>
					<rate>
						<ntsc>FALSE</ntsc>
						<timebase>25</timebase>
					</rate>
					<in>3</in>
					<out>52</out>
					<start>13891</start>
					<end>13940</end>
					<pixelaspectratio>Square</pixelaspectratio>
					<enabled>FALSE</enabled>
					<anamorphic>FALSE</anamorphic>
					<alphatype>straight</alphatype>
					<masterclipid>Logo Bumper_m.lydhale1</masterclipid>
					<logginginfo>
						<scene/>
						<shottake/>
						<lognote/>
						<good>FALSE</good>
					</logginginfo>
					<labels>
						<label2/>
					</labels>
					<comments>
						<mastercomment1/>
						<mastercomment2/>
						<mastercomment3/>
						<mastercomment4/>
					</comments>
					<file id="Logo Bumper_m.lydhale2">
						<name>Logo Bumper_m.lydhale.mov</name>
						<pathurl>file://localhost/Volumes/SuperSAN1/Prosjekter/MSUB20000012%20FIN%20FREDAG/Profil-grafikk/Bumpere/Logo%20Bumper_m.lydhale.mov</pathurl>
						<rate>
							<timebase>25</timebase>
						</rate>
						<duration>102</duration>
						<timecode>
							<rate>
								<timebase>25</timebase>
							</rate>
							<string>00:00:00:00</string>
							<frame>0</frame>
							<displayformat>NDF</displayformat>
							<source>source</source>
						</timecode>
						<media>
							<video>
								<duration>102</duration>
								<samplecharacteristics>
									<width>1920</width>
									<height>1080</height>
								</samplecharacteristics>
							</video>
							<audio>
								<rate>
									<timebase>48000</timebase>
								</rate>
								<trackcount>2</trackcount>
								<samplecharacteristics>
									<depth>16</depth>
								</samplecharacteristics>
							</audio>
						</media>
					</file>
					<sourcetrack>
						<mediatype>video</mediatype>
					</sourcetrack>
					<fielddominance>upper</fielddominance>
				</clipitem>
				<clipitem id="msub200012-1708k1d2042 ">
					<name>msub200012-1708k1d2042</name>
					<duration>350</duration>
					<rate>
						<ntsc>FALSE</ntsc>
						<timebase>25</timebase>
					</rate>
					<in>182</in>
					<out>273</out>
					<start>41000</start>
					<end>41091</end>
					<pixelaspectratio>Square</pixelaspectratio>
					<enabled>TRUE</enabled>
					<anamorphic>FALSE</anamorphic>
					<alphatype>none</alphatype>
					<masterclipid>msub200012-1708k1d2042 1</masterclipid>
					<logginginfo>
						<description>msub200012-1708k1d2042</description>
						<scene/>
						<shottake/>
						<lognote/>
						<good>FALSE</good>
					</logginginfo>
					<labels>
						<label2/>
					</labels>
					<comments>
						<mastercomment1>RÅSTOFF. BR_FINFREDAG_MSUA_OPRO</mastercomment1>
						<mastercomment2/>
						<mastercomment3/>
						<mastercomment4/>
					</comments>
					<file id="msub200012-1708k1d2042 2">
						<name>msub200012-1708k1d2042.mxf</name>
						<pathurl>file://localhost/Volumes/omfs/clip.dir/MXF/1080i/msub200012-1708k1d2042.mxf</pathurl>
						<rate>
							<timebase>25</timebase>
						</rate>
						<duration>350</duration>
						<timecode>
							<rate>
								<timebase>25</timebase>
							</rate>
							<string>01:55:29:18</string>
							<frame>173243</frame>
							<displayformat>NDF</displayformat>
							<source>source</source>
						</timecode>
						<media>
							<video>
								<duration>350</duration>
								<samplecharacteristics>
									<width>1920</width>
									<height>1080</height>
								</samplecharacteristics>
							</video>
							<audio>
								<rate>
									<timebase>48000</timebase>
								</rate>
								<trackcount>1</trackcount>
								<samplecharacteristics>
									<depth>24</depth>
								</samplecharacteristics>
							</audio>
						</media>
					</file>
					<sourcetrack>
						<mediatype>video</mediatype>
					</sourcetrack>
					<fielddominance>upper</fielddominance>
				</clipitem>
				<clipitem id="IMG_1047.JPG">
					<name>IMG_1047.JPG</name>
					<duration>3026</duration>
					<rate>
						<ntsc>FALSE</ntsc>
						<timebase>25</timebase>
					</rate>
					<in>1500</in>
					<out>1561</out>
					<start>41638</start>
					<end>41699</end>
					<pixelaspectratio>Square</pixelaspectratio>
					<stillframe>TRUE</stillframe>
					<enabled>TRUE</enabled>
					<anamorphic>FALSE</anamorphic>
					<alphatype>none</alphatype>
					<masterclipid>IMG_1047.JPG1</masterclipid>
					<logginginfo>
						<scene/>
						<shottake/>
						<lognote/>
						<good>FALSE</good>
					</logginginfo>
					<labels>
						<label2/>
					</labels>
					<comments>
						<mastercomment1/>
						<mastercomment2/>
						<mastercomment3/>
						<mastercomment4/>
					</comments>
					<file id="IMG_1047 ">
						<name>IMG_1047.JPG</name>
						<pathurl>file://localhost/Volumes/SuperSAN1/Prosjekter/MSUB20000012%20FIN%20FREDAG/stills/tantetaco/IMG_1047.JPG</pathurl>
						<rate>
							<timebase>25</timebase>
						</rate>
						<duration>2</duration>
						<width>2592</width>
						<height>1936</height>
						<media>
							<video>
								<duration>2</duration>
								<stillframe>TRUE</stillframe>
								<samplecharacteristics>
									<width>2592</width>
									<height>1936</height>
								</samplecharacteristics>
							</video>
						</media>
					</file>
					<filter>
						<effect>
							<name>Basic Motion</name>
							<effectid>basic</effectid>
							<effectcategory>motion</effectcategory>
							<effecttype>motion</effecttype>
							<mediatype>video</mediatype>
							<parameter>
								<parameterid>scale</parameterid>
								<name>Scale</name>
								<value>55.7851</value>
							</parameter>
						</effect>
					</filter>
					<sourcetrack>
						<mediatype>video</mediatype>
					</sourcetrack>
					<fielddominance>none</fielddominance>
				</clipitem>
				<clipitem id="IMG_1050.JPG">
					<name>IMG_1050.JPG</name>
					<duration>3026</duration>
					<rate>
						<ntsc>FALSE</ntsc>
						<timebase>25</timebase>
					</rate>
					<in>1500</in>
					<out>1562</out>
					<start>41699</start>
					<end>41761</end>
					<pixelaspectratio>Square</pixelaspectratio>
					<stillframe>TRUE</stillframe>
					<enabled>TRUE</enabled>
					<anamorphic>FALSE</anamorphic>
					<alphatype>none</alphatype>
					<masterclipid>IMG_1050.JPG1</masterclipid>
					<logginginfo>
						<scene/>
						<shottake/>
						<lognote/>
						<good>FALSE</good>
					</logginginfo>
					<labels>
						<label2/>
					</labels>
					<comments>
						<mastercomment1/>
						<mastercomment2/>
						<mastercomment3/>
						<mastercomment4/>
					</comments>
					<file id="IMG_1050 ">
						<name>IMG_1050.JPG</name>
						<pathurl>file://localhost/Volumes/SuperSAN1/Prosjekter/MSUB20000012%20FIN%20FREDAG/stills/tantetaco/IMG_1050.JPG</pathurl>
						<rate>
							<timebase>25</timebase>
						</rate>
						<duration>2</duration>
						<width>2592</width>
						<height>1936</height>
						<media>
							<video>
								<duration>2</duration>
								<stillframe>TRUE</stillframe>
								<samplecharacteristics>
									<width>2592</width>
									<height>1936</height>
								</samplecharacteristics>
							</video>
						</media>
					</file>
					<filter>
						<effect>
							<name>Basic Motion</name>
							<effectid>basic</effectid>
							<effectcategory>motion</effectcategory>
							<effecttype>motion</effecttype>
							<mediatype>video</mediatype>
							<parameter>
								<parameterid>scale</parameterid>
								<name>Scale</name>
								<value>55.7851</value>
							</parameter>
						</effect>
					</filter>
					<sourcetrack>
						<mediatype>video</mediatype>
					</sourcetrack>
					<fielddominance>none</fielddominance>
				</clipitem>
				<clipitem id="IMG_1052.JPG">
					<name>IMG_1052.JPG</name>
					<duration>3026</duration>
					<rate>
						<ntsc>FALSE</ntsc>
						<timebase>25</timebase>
					</rate>
					<in>1500</in>
					<out>1562</out>
					<start>41761</start>
					<end>41823</end>
					<pixelaspectratio>Square</pixelaspectratio>
					<stillframe>TRUE</stillframe>
					<enabled>TRUE</enabled>
					<anamorphic>FALSE</anamorphic>
					<alphatype>none</alphatype>
					<masterclipid>IMG_1052.JPG1</masterclipid>
					<logginginfo>
						<scene/>
						<shottake/>
						<lognote/>
						<good>FALSE</good>
					</logginginfo>
					<labels>
						<label2/>
					</labels>
					<comments>
						<mastercomment1/>
						<mastercomment2/>
						<mastercomment3/>
						<mastercomment4/>
					</comments>
					<file id="IMG_1052 ">
						<name>IMG_1052.JPG</name>
						<pathurl>file://localhost/Volumes/SuperSAN1/Prosjekter/MSUB20000012%20FIN%20FREDAG/stills/tantetaco/IMG_1052.JPG</pathurl>
						<rate>
							<timebase>25</timebase>
						</rate>
						<duration>2</duration>
						<width>2592</width>
						<height>1936</height>
						<media>
							<video>
								<duration>2</duration>
								<stillframe>TRUE</stillframe>
								<samplecharacteristics>
									<width>2592</width>
									<height>1936</height>
								</samplecharacteristics>
							</video>
						</media>
					</file>
					<filter>
						<effect>
							<name>Basic Motion</name>
							<effectid>basic</effectid>
							<effectcategory>motion</effectcategory>
							<effecttype>motion</effecttype>
							<mediatype>video</mediatype>
							<parameter>
								<parameterid>scale</parameterid>
								<name>Scale</name>
								<value>55.7851</value>
							</parameter>
						</effect>
					</filter>
					<sourcetrack>
						<mediatype>video</mediatype>
					</sourcetrack>
					<fielddominance>none</fielddominance>
				</clipitem>
				<clipitem id="IMG_1055.JPG">
					<name>IMG_1055.JPG</name>
					<duration>3026</duration>
					<rate>
						<ntsc>FALSE</ntsc>
						<timebase>25</timebase>
					</rate>
					<in>1500</in>
					<out>1562</out>
					<start>41823</start>
					<end>41885</end>
					<pixelaspectratio>Square</pixelaspectratio>
					<stillframe>TRUE</stillframe>
					<enabled>TRUE</enabled>
					<anamorphic>FALSE</anamorphic>
					<alphatype>none</alphatype>
					<masterclipid>IMG_1055.JPG1</masterclipid>
					<logginginfo>
						<scene/>
						<shottake/>
						<lognote/>
						<good>FALSE</good>
					</logginginfo>
					<labels>
						<label2/>
					</labels>
					<comments>
						<mastercomment1/>
						<mastercomment2/>
						<mastercomment3/>
						<mastercomment4/>
					</comments>
					<file id="IMG_1055 ">
						<name>IMG_1055.JPG</name>
						<pathurl>file://localhost/Volumes/SuperSAN1/Prosjekter/MSUB20000012%20FIN%20FREDAG/stills/tantetaco/IMG_1055.JPG</pathurl>
						<rate>
							<timebase>25</timebase>
						</rate>
						<duration>2</duration>
						<width>2592</width>
						<height>1936</height>
						<media>
							<video>
								<duration>2</duration>
								<stillframe>TRUE</stillframe>
								<samplecharacteristics>
									<width>2592</width>
									<height>1936</height>
								</samplecharacteristics>
							</video>
						</media>
					</file>
					<filter>
						<effect>
							<name>Basic Motion</name>
							<effectid>basic</effectid>
							<effectcategory>motion</effectcategory>
							<effecttype>motion</effecttype>
							<mediatype>video</mediatype>
							<parameter>
								<parameterid>scale</parameterid>
								<name>Scale</name>
								<value>55.7851</value>
							</parameter>
						</effect>
					</filter>
					<sourcetrack>
						<mediatype>video</mediatype>
					</sourcetrack>
					<fielddominance>none</fielddominance>
				</clipitem>
				<clipitem id="IMG_1057.JPG">
					<name>IMG_1057.JPG</name>
					<duration>3026</duration>
					<rate>
						<ntsc>FALSE</ntsc>
						<timebase>25</timebase>
					</rate>
					<in>1500</in>
					<out>1562</out>
					<start>41885</start>
					<end>41947</end>
					<pixelaspectratio>Square</pixelaspectratio>
					<stillframe>TRUE</stillframe>
					<enabled>TRUE</enabled>
					<anamorphic>FALSE</anamorphic>
					<alphatype>none</alphatype>
					<masterclipid>IMG_1057.JPG1</masterclipid>
					<logginginfo>
						<scene/>
						<shottake/>
						<lognote/>
						<good>FALSE</good>
					</logginginfo>
					<labels>
						<label2/>
					</labels>
					<comments>
						<mastercomment1/>
						<mastercomment2/>
						<mastercomment3/>
						<mastercomment4/>
					</comments>
					<file id="IMG_1057 ">
						<name>IMG_1057.JPG</name>
						<pathurl>file://localhost/Volumes/SuperSAN1/Prosjekter/MSUB20000012%20FIN%20FREDAG/stills/tantetaco/IMG_1057.JPG</pathurl>
						<rate>
							<timebase>25</timebase>
						</rate>
						<duration>2</duration>
						<width>2592</width>
						<height>1936</height>
						<media>
							<video>
								<duration>2</duration>
								<stillframe>TRUE</stillframe>
								<samplecharacteristics>
									<width>2592</width>
									<height>1936</height>
								</samplecharacteristics>
							</video>
						</media>
					</file>
					<filter>
						<effect>
							<name>Basic Motion</name>
							<effectid>basic</effectid>
							<effectcategory>motion</effectcategory>
							<effecttype>motion</effecttype>
							<mediatype>video</mediatype>
							<parameter>
								<parameterid>scale</parameterid>
								<name>Scale</name>
								<value>55.7851</value>
							</parameter>
						</effect>
					</filter>
					<sourcetrack>
						<mediatype>video</mediatype>
					</sourcetrack>
					<fielddominance>none</fielddominance>
				</clipitem>
				<clipitem id="IMG_1059.JPG">
					<name>IMG_1059.JPG</name>
					<duration>3026</duration>
					<rate>
						<ntsc>FALSE</ntsc>
						<timebase>25</timebase>
					</rate>
					<in>1500</in>
					<out>1562</out>
					<start>41947</start>
					<end>42009</end>
					<pixelaspectratio>Square</pixelaspectratio>
					<stillframe>TRUE</stillframe>
					<enabled>TRUE</enabled>
					<anamorphic>FALSE</anamorphic>
					<alphatype>none</alphatype>
					<masterclipid>IMG_1059.JPG1</masterclipid>
					<logginginfo>
						<scene/>
						<shottake/>
						<lognote/>
						<good>FALSE</good>
					</logginginfo>
					<labels>
						<label2/>
					</labels>
					<comments>
						<mastercomment1/>
						<mastercomment2/>
						<mastercomment3/>
						<mastercomment4/>
					</comments>
					<file id="IMG_1059 ">
						<name>IMG_1059.JPG</name>
						<pathurl>file://localhost/Volumes/SuperSAN1/Prosjekter/MSUB20000012%20FIN%20FREDAG/stills/tantetaco/IMG_1059.JPG</pathurl>
						<rate>
							<timebase>25</timebase>
						</rate>
						<duration>2</duration>
						<width>2592</width>
						<height>1936</height>
						<media>
							<video>
								<duration>2</duration>
								<stillframe>TRUE</stillframe>
								<samplecharacteristics>
									<width>2592</width>
									<height>1936</height>
								</samplecharacteristics>
							</video>
						</media>
					</file>
					<filter>
						<effect>
							<name>Basic Motion</name>
							<effectid>basic</effectid>
							<effectcategory>motion</effectcategory>
							<effecttype>motion</effecttype>
							<mediatype>video</mediatype>
							<parameter>
								<parameterid>scale</parameterid>
								<name>Scale</name>
								<value>55.7851</value>
							</parameter>
						</effect>
					</filter>
					<sourcetrack>
						<mediatype>video</mediatype>
					</sourcetrack>
					<fielddominance>none</fielddominance>
				</clipitem>
				<clipitem id="IMG_1061.JPG">
					<name>IMG_1061.JPG</name>
					<duration>3026</duration>
					<rate>
						<ntsc>FALSE</ntsc>
						<timebase>25</timebase>
					</rate>
					<in>1500</in>
					<out>1562</out>
					<start>42009</start>
					<end>42071</end>
					<pixelaspectratio>Square</pixelaspectratio>
					<stillframe>TRUE</stillframe>
					<enabled>TRUE</enabled>
					<anamorphic>FALSE</anamorphic>
					<alphatype>none</alphatype>
					<masterclipid>IMG_1061.JPG1</masterclipid>
					<logginginfo>
						<scene/>
						<shottake/>
						<lognote/>
						<good>FALSE</good>
					</logginginfo>
					<labels>
						<label2/>
					</labels>
					<comments>
						<mastercomment1/>
						<mastercomment2/>
						<mastercomment3/>
						<mastercomment4/>
					</comments>
					<file id="IMG_1061 ">
						<name>IMG_1061.JPG</name>
						<pathurl>file://localhost/Volumes/SuperSAN1/Prosjekter/MSUB20000012%20FIN%20FREDAG/stills/tantetaco/IMG_1061.JPG</pathurl>
						<rate>
							<timebase>25</timebase>
						</rate>
						<duration>2</duration>
						<width>2592</width>
						<height>1936</height>
						<media>
							<video>
								<duration>2</duration>
								<stillframe>TRUE</stillframe>
								<samplecharacteristics>
									<width>2592</width>
									<height>1936</height>
								</samplecharacteristics>
							</video>
						</media>
					</file>
					<filter>
						<effect>
							<name>Basic Motion</name>
							<effectid>basic</effectid>
							<effectcategory>motion</effectcategory>
							<effecttype>motion</effecttype>
							<mediatype>video</mediatype>
							<parameter>
								<parameterid>scale</parameterid>
								<name>Scale</name>
								<value>55.7851</value>
							</parameter>
						</effect>
					</filter>
					<sourcetrack>
						<mediatype>video</mediatype>
					</sourcetrack>
					<fielddominance>none</fielddominance>
				</clipitem>
				<clipitem id="IMG_1066.JPG">
					<name>IMG_1066.JPG</name>
					<duration>3026</duration>
					<rate>
						<ntsc>FALSE</ntsc>
						<timebase>25</timebase>
					</rate>
					<in>1500</in>
					<out>1562</out>
					<start>42071</start>
					<end>42133</end>
					<pixelaspectratio>Square</pixelaspectratio>
					<stillframe>TRUE</stillframe>
					<enabled>TRUE</enabled>
					<anamorphic>FALSE</anamorphic>
					<alphatype>none</alphatype>
					<masterclipid>IMG_1066.JPG1</masterclipid>
					<logginginfo>
						<scene/>
						<shottake/>
						<lognote/>
						<good>FALSE</good>
					</logginginfo>
					<labels>
						<label2/>
					</labels>
					<comments>
						<mastercomment1/>
						<mastercomment2/>
						<mastercomment3/>
						<mastercomment4/>
					</comments>
					<file id="IMG_1066 ">
						<name>IMG_1066.JPG</name>
						<pathurl>file://localhost/Volumes/SuperSAN1/Prosjekter/MSUB20000012%20FIN%20FREDAG/stills/tantetaco/IMG_1066.JPG</pathurl>
						<rate>
							<timebase>25</timebase>
						</rate>
						<duration>2</duration>
						<width>2592</width>
						<height>1936</height>
						<media>
							<video>
								<duration>2</duration>
								<stillframe>TRUE</stillframe>
								<samplecharacteristics>
									<width>2592</width>
									<height>1936</height>
								</samplecharacteristics>
							</video>
						</media>
					</file>
					<filter>
						<effect>
							<name>Basic Motion</name>
							<effectid>basic</effectid>
							<effectcategory>motion</effectcategory>
							<effecttype>motion</effecttype>
							<mediatype>video</mediatype>
							<parameter>
								<parameterid>scale</parameterid>
								<name>Scale</name>
								<value>55.7851</value>
							</parameter>
						</effect>
					</filter>
					<sourcetrack>
						<mediatype>video</mediatype>
					</sourcetrack>
					<fielddominance>none</fielddominance>
				</clipitem>
				<clipitem id="Plakater_Progr.1 ">
					<name>Plakater_Progr.1</name>
					<duration>500</duration>
					<rate>
						<ntsc>FALSE</ntsc>
						<timebase>25</timebase>
					</rate>
					<in>0</in>
					<out>372</out>
					<start>43062</start>
					<end>43434</end>
					<pixelaspectratio>Square</pixelaspectratio>
					<anamorphic>FALSE</anamorphic>
					<alphatype>none</alphatype>
					<masterclipid>Plakater_Progr.1 1</masterclipid>
					<logginginfo>
						<scene/>
						<shottake/>
						<lognote/>
						<good>FALSE</good>
					</logginginfo>
					<labels>
						<label2/>
					</labels>
					<comments>
						<mastercomment1/>
						<mastercomment2/>
						<mastercomment3/>
						<mastercomment4/>
					</comments>
					<file id="Plakater_Progr.1 2">
						<name>Plakater_Progr.1.mov</name>
						<pathurl>file://localhost/Volumes/SuperSAN1/Prosjekter/MSUB20000012%20FIN%20FREDAG/Profil-grafikk/01_MASTER/Rulletekst%20prog_1/Plakater_Progr.1.mov</pathurl>
						<rate>
							<timebase>25</timebase>
						</rate>
						<duration>500</duration>
						<timecode>
							<rate>
								<timebase>25</timebase>
							</rate>
							<string>00:00:00:00</string>
							<frame>0</frame>
							<displayformat>NDF</displayformat>
							<source>source</source>
						</timecode>
						<media>
							<video>
								<duration>500</duration>
								<samplecharacteristics>
									<width>1920</width>
									<height>1080</height>
								</samplecharacteristics>
							</video>
						</media>
					</file>
					<sourcetrack>
						<mediatype>video</mediatype>
					</sourcetrack>
					<fielddominance>upper</fielddominance>
				</clipitem>
				<clipitem id="sluttplak_2012_1920x1080_HD">
					<name>sluttplak_2012_1920x1080_HD</name>
					<duration>3026</duration>
					<rate>
						<ntsc>FALSE</ntsc>
						<timebase>25</timebase>
					</rate>
					<in>1500</in>
					<out>1566</out>
					<start>43434</start>
					<end>43500</end>
					<pixelaspectratio>Square</pixelaspectratio>
					<stillframe>TRUE</stillframe>
					<anamorphic>FALSE</anamorphic>
					<alphatype>none</alphatype>
					<masterclipid>sluttplak_2012_1920x1080_HD1</masterclipid>
					<logginginfo>
						<scene/>
						<shottake/>
						<lognote/>
						<good>FALSE</good>
					</logginginfo>
					<labels>
						<label2/>
					</labels>
					<comments>
						<mastercomment1/>
						<mastercomment2/>
						<mastercomment3/>
						<mastercomment4/>
					</comments>
					<file id="sluttplak_2012_1920x1080_HD2">
						<name>sluttplak_2012_1920x1080_HD.mov</name>
						<pathurl>file://localhost/Volumes/SuperSAN1/Prosjekter/MSUB20000012%20FIN%20FREDAG/Profil-grafikk/sluttplak_2012_1920x1080_HD.mov</pathurl>
						<rate>
							<timebase>25</timebase>
						</rate>
						<duration>2</duration>
						<width>1920</width>
						<height>1080</height>
						<media>
							<video>
								<duration>2</duration>
								<stillframe>TRUE</stillframe>
								<samplecharacteristics>
									<width>1920</width>
									<height>1080</height>
								</samplecharacteristics>
							</video>
						</media>
					</file>
					<sourcetrack>
						<mediatype>video</mediatype>
					</sourcetrack>
					<fielddominance>none</fielddominance>
				</clipitem>
				<enabled>TRUE</enabled>
				<locked>FALSE</locked>
			</track>
			<track>
				<clipitem id="SUPER_stjernen">
					<name>SUPER_stjernen</name>
					<duration>42</duration>
					<rate>
						<ntsc>FALSE</ntsc>
						<timebase>25</timebase>
					</rate>
					<in>0</in>
					<out>30</out>
					<start>36347</start>
					<end>36377</end>
					<pixelaspectratio>Square</pixelaspectratio>
					<enabled>TRUE</enabled>
					<anamorphic>FALSE</anamorphic>
					<alphatype>straight</alphatype>
					<masterclipid>SUPER_stjernen1</masterclipid>
					<logginginfo>
						<scene/>
						<shottake/>
						<lognote/>
						<good>FALSE</good>
					</logginginfo>
					<labels>
						<label2/>
					</labels>
					<comments>
						<mastercomment1/>
						<mastercomment2/>
						<mastercomment3/>
						<mastercomment4/>
					</comments>
					<file id="SUPER_stjernen2">
						<name>SUPER_stjernen.mov</name>
						<pathurl>file://localhost/Volumes/SuperSAN1/Prosjekter/MSUB20000012%20FIN%20FREDAG/Profil-grafikk/SUPER_stjernen.mov</pathurl>
						<rate>
							<timebase>25</timebase>
						</rate>
						<duration>42</duration>
						<timecode>
							<rate>
								<timebase>25</timebase>
							</rate>
							<string>01:01:00:18</string>
							<frame>91518</frame>
							<displayformat>NDF</displayformat>
							<source>source</source>
						</timecode>
						<media>
							<video>
								<duration>42</duration>
								<samplecharacteristics>
									<width>800</width>
									<height>600</height>
								</samplecharacteristics>
							</video>
						</media>
					</file>
					<filter>
						<effect>
							<name>Basic Motion</name>
							<effectid>basic</effectid>
							<effectcategory>motion</effectcategory>
							<effecttype>motion</effecttype>
							<mediatype>video</mediatype>
							<parameter>
								<parameterid>scale</parameterid>
								<name>Scale</name>
								<valuemin>0</valuemin>
								<valuemax>1000</valuemax>
								<value>120</value>
							</parameter>
							<parameter>
								<parameterid>rotation</parameterid>
								<name>Rotation</name>
								<valuemin>-8640</valuemin>
								<valuemax>8640</valuemax>
								<value>0</value>
							</parameter>
							<parameter>
								<parameterid>center</parameterid>
								<name>Center</name>
								<value>
									<horiz>-0.569832</horiz>
									<vert>-0.406716</vert>
								</value>
							</parameter>
							<parameter>
								<parameterid>centerOffset</parameterid>
								<name>Anchor Point</name>
								<value>
									<horiz>0</horiz>
									<vert>0</vert>
								</value>
							</parameter>
						</effect>
					</filter>
					<filter>
						<enabled>FALSE</enabled>
						<effect>
							<name>Drop Shadow</name>
							<effectid>dropshadow</effectid>
							<effectcategory>motion</effectcategory>
							<effecttype>motion</effecttype>
							<mediatype>video</mediatype>
							<parameter>
								<parameterid>offset</parameterid>
								<name>offset</name>
								<valuemin>-100</valuemin>
								<valuemax>100</valuemax>
								<value>2</value>
							</parameter>
							<parameter>
								<parameterid>angle</parameterid>
								<name>angle</name>
								<valuemin>-720</valuemin>
								<valuemax>720</valuemax>
								<value>135</value>
							</parameter>
							<parameter>
								<parameterid>color</parameterid>
								<name>color</name>
								<value>
									<alpha>0</alpha>
									<red>0</red>
									<green>0</green>
									<blue>0</blue>
								</value>
							</parameter>
							<parameter>
								<parameterid>softness</parameterid>
								<name>softness</name>
								<valuemin>0</valuemin>
								<valuemax>100</valuemax>
								<value>10</value>
							</parameter>
							<parameter>
								<parameterid>opacity</parameterid>
								<name>opacity</name>
								<valuemin>0</valuemin>
								<valuemax>100</valuemax>
								<value>50</value>
							</parameter>
						</effect>
					</filter>
					<filter>
						<enabled>FALSE</enabled>
						<effect>
							<name>Motion Blur</name>
							<effectid>motionblur</effectid>
							<effectcategory>motion</effectcategory>
							<effecttype>motion</effecttype>
							<mediatype>video</mediatype>
							<parameter>
								<parameterid>duration</parameterid>
								<name>% Blur</name>
								<valuemin>0</valuemin>
								<valuemax>1000</valuemax>
								<value>500</value>
							</parameter>
							<parameter>
								<parameterid>samples</parameterid>
								<name>Samples</name>
								<valuemin>1</valuemin>
								<valuemax>16</valuemax>
								<value>4</value>
							</parameter>
						</effect>
					</filter>
					<filter>
						<effect>
							<name>Crop</name>
							<effectid>crop</effectid>
							<effectcategory>motion</effectcategory>
							<effecttype>motion</effecttype>
							<mediatype>video</mediatype>
							<parameter>
								<parameterid>left</parameterid>
								<name>left</name>
								<valuemin>0</valuemin>
								<valuemax>100</valuemax>
								<value>0</value>
							</parameter>
							<parameter>
								<parameterid>right</parameterid>
								<name>right</name>
								<valuemin>0</valuemin>
								<valuemax>100</valuemax>
								<value>0</value>
							</parameter>
							<parameter>
								<parameterid>top</parameterid>
								<name>top</name>
								<valuemin>0</valuemin>
								<valuemax>100</valuemax>
								<value>0</value>
							</parameter>
							<parameter>
								<parameterid>bottom</parameterid>
								<name>bottom</name>
								<valuemin>0</valuemin>
								<valuemax>100</valuemax>
								<value>0</value>
							</parameter>
							<parameter>
								<parameterid>edgefeather</parameterid>
								<name>edgefeather</name>
								<valuemin>0</valuemin>
								<valuemax>100</valuemax>
								<value>0</value>
							</parameter>
						</effect>
					</filter>
					<filter>
						<effect>
							<name>Distort</name>
							<effectid>deformation</effectid>
							<effectcategory>motion</effectcategory>
							<effecttype>motion</effecttype>
							<mediatype>video</mediatype>
							<parameter>
								<parameterid>ulcorner</parameterid>
								<name>Upper Left</name>
								<value>
									<horiz>-0.5</horiz>
									<vert>-0.5</vert>
								</value>
							</parameter>
							<parameter>
								<parameterid>urcorner</parameterid>
								<name>Upper Right</name>
								<value>
									<horiz>0.5</horiz>
									<vert>-0.5</vert>
								</value>
							</parameter>
							<parameter>
								<parameterid>lrcorner</parameterid>
								<name>Lower Right</name>
								<value>
									<horiz>0.5</horiz>
									<vert>0.5</vert>
								</value>
							</parameter>
							<parameter>
								<parameterid>llcorner</parameterid>
								<name>Lower Left</name>
								<value>
									<horiz>-0.5</horiz>
									<vert>0.5</vert>
								</value>
							</parameter>
							<parameter>
								<parameterid>aspect</parameterid>
								<name>Aspect</name>
								<valuemin>-10000</valuemin>
								<valuemax>10000</valuemax>
								<value>0</value>
							</parameter>
						</effect>
					</filter>
					<filter>
						<effect>
							<name>Opacity</name>
							<effectid>opacity</effectid>
							<effectcategory>motion</effectcategory>
							<effecttype>motion</effecttype>
							<mediatype>video</mediatype>
							<parameter>
								<parameterid>opacity</parameterid>
								<name>opacity</name>
								<valuemin>0</valuemin>
								<valuemax>100</valuemax>
								<value>100</value>
							</parameter>
						</effect>
					</filter>
					<sourcetrack>
						<mediatype>video</mediatype>
					</sourcetrack>
					<fielddominance>none</fielddominance>
				</clipitem>
				<enabled>TRUE</enabled>
				<locked>FALSE</locked>
			</track>
			<track>
				<clipitem id="FinFredag_2012 ">
					<name>FinFredag_2012</name>
					<duration>650</duration>
					<rate>
						<ntsc>FALSE</ntsc>
						<timebase>25</timebase>
					</rate>
					<in>0</in>
					<out>520</out>
					<start>235</start>
					<end>755</end>
					<pixelaspectratio>Square</pixelaspectratio>
					<enabled>TRUE</enabled>
					<anamorphic>FALSE</anamorphic>
					<alphatype>none</alphatype>
					<masterclipid>FinFredag_2012 1</masterclipid>
					<logginginfo>
						<scene/>
						<shottake/>
						<lognote/>
						<good>FALSE</good>
					</logginginfo>
					<labels>
						<label2/>
					</labels>
					<comments>
						<mastercomment1/>
						<mastercomment2/>
						<mastercomment3/>
						<mastercomment4/>
					</comments>
					<file id="FinFredag_2012 2">
						<name>FinFredag_2012.mov</name>
						<pathurl>file://localhost/Volumes/SuperSAN1/Prosjekter/MSUB20000012%20FIN%20FREDAG/Profil-grafikk/01_MASTER/Vignett/FinFredag_2012.mov</pathurl>
						<rate>
							<timebase>25</timebase>
						</rate>
						<duration>650</duration>
						<timecode>
							<rate>
								<timebase>25</timebase>
							</rate>
							<string>00:00:00:00</string>
							<frame>0</frame>
							<displayformat>NDF</displayformat>
							<source>source</source>
						</timecode>
						<media>
							<video>
								<duration>650</duration>
								<samplecharacteristics>
									<width>1920</width>
									<height>1080</height>
								</samplecharacteristics>
							</video>
							<audio>
								<rate>
									<timebase>48000</timebase>
								</rate>
								<trackcount>2</trackcount>
								<samplecharacteristics>
									<depth>16</depth>
								</samplecharacteristics>
							</audio>
						</media>
					</file>
					<sourcetrack>
						<mediatype>video</mediatype>
					</sourcetrack>
					<link>
						<linkclipref>FinFredag_2012 </linkclipref>
						<mediatype>video</mediatype>
						<trackindex>4</trackindex>
						<clipindex>1</clipindex>
					</link>
					<link>
						<linkclipref>FinFredag_2012 3</linkclipref>
						<mediatype>audio</mediatype>
						<trackindex>7</trackindex>
						<clipindex>1</clipindex>
					</link>
					<link>
						<linkclipref>FinFredag_2012 4</linkclipref>
						<mediatype>audio</mediatype>
						<trackindex>8</trackindex>
						<clipindex>1</clipindex>
					</link>
					<fielddominance>upper</fielddominance>
				</clipitem>
				<clipitem id="SUPER_stjernen3">
					<name>SUPER_stjernen</name>
					<duration>42</duration>
					<rate>
						<ntsc>FALSE</ntsc>
						<timebase>25</timebase>
					</rate>
					<in>0</in>
					<out>29</out>
					<start>1051</start>
					<end>1080</end>
					<pixelaspectratio>Square</pixelaspectratio>
					<enabled>TRUE</enabled>
					<anamorphic>FALSE</anamorphic>
					<alphatype>straight</alphatype>
					<masterclipid>SUPER_stjernen1</masterclipid>
					<logginginfo>
						<scene/>
						<shottake/>
						<lognote/>
						<good>FALSE</good>
					</logginginfo>
					<labels>
						<label2/>
					</labels>
					<comments>
						<mastercomment1/>
						<mastercomment2/>
						<mastercomment3/>
						<mastercomment4/>
					</comments>
					<file id="SUPER_stjernen2"/>
					<filter>
						<effect>
							<name>Basic Motion</name>
							<effectid>basic</effectid>
							<effectcategory>motion</effectcategory>
							<effecttype>motion</effecttype>
							<mediatype>video</mediatype>
							<parameter>
								<parameterid>scale</parameterid>
								<name>Scale</name>
								<valuemin>0</valuemin>
								<valuemax>1000</valuemax>
								<value>180</value>
							</parameter>
							<parameter>
								<parameterid>rotation</parameterid>
								<name>Rotation</name>
								<valuemin>-8640</valuemin>
								<valuemax>8640</valuemax>
								<value>0</value>
							</parameter>
							<parameter>
								<parameterid>center</parameterid>
								<name>Center</name>
								<value>
									<horiz>-0.687151</horiz>
									<vert>-0.447761</vert>
								</value>
							</parameter>
							<parameter>
								<parameterid>centerOffset</parameterid>
								<name>Anchor Point</name>
								<value>
									<horiz>0</horiz>
									<vert>0</vert>
								</value>
							</parameter>
						</effect>
					</filter>
					<filter>
						<enabled>FALSE</enabled>
						<effect>
							<name>Drop Shadow</name>
							<effectid>dropshadow</effectid>
							<effectcategory>motion</effectcategory>
							<effecttype>motion</effecttype>
							<mediatype>video</mediatype>
							<parameter>
								<parameterid>offset</parameterid>
								<name>offset</name>
								<valuemin>-100</valuemin>
								<valuemax>100</valuemax>
								<value>2</value>
							</parameter>
							<parameter>
								<parameterid>angle</parameterid>
								<name>angle</name>
								<valuemin>-720</valuemin>
								<valuemax>720</valuemax>
								<value>135</value>
							</parameter>
							<parameter>
								<parameterid>color</parameterid>
								<name>color</name>
								<value>
									<alpha>0</alpha>
									<red>0</red>
									<green>0</green>
									<blue>0</blue>
								</value>
							</parameter>
							<parameter>
								<parameterid>softness</parameterid>
								<name>softness</name>
								<valuemin>0</valuemin>
								<valuemax>100</valuemax>
								<value>10</value>
							</parameter>
							<parameter>
								<parameterid>opacity</parameterid>
								<name>opacity</name>
								<valuemin>0</valuemin>
								<valuemax>100</valuemax>
								<value>50</value>
							</parameter>
						</effect>
					</filter>
					<filter>
						<enabled>FALSE</enabled>
						<effect>
							<name>Motion Blur</name>
							<effectid>motionblur</effectid>
							<effectcategory>motion</effectcategory>
							<effecttype>motion</effecttype>
							<mediatype>video</mediatype>
							<parameter>
								<parameterid>duration</parameterid>
								<name>% Blur</name>
								<valuemin>0</valuemin>
								<valuemax>1000</valuemax>
								<value>500</value>
							</parameter>
							<parameter>
								<parameterid>samples</parameterid>
								<name>Samples</name>
								<valuemin>1</valuemin>
								<valuemax>16</valuemax>
								<value>4</value>
							</parameter>
						</effect>
					</filter>
					<filter>
						<effect>
							<name>Crop</name>
							<effectid>crop</effectid>
							<effectcategory>motion</effectcategory>
							<effecttype>motion</effecttype>
							<mediatype>video</mediatype>
							<parameter>
								<parameterid>left</parameterid>
								<name>left</name>
								<valuemin>0</valuemin>
								<valuemax>100</valuemax>
								<value>0</value>
							</parameter>
							<parameter>
								<parameterid>right</parameterid>
								<name>right</name>
								<valuemin>0</valuemin>
								<valuemax>100</valuemax>
								<value>0</value>
							</parameter>
							<parameter>
								<parameterid>top</parameterid>
								<name>top</name>
								<valuemin>0</valuemin>
								<valuemax>100</valuemax>
								<value>0</value>
							</parameter>
							<parameter>
								<parameterid>bottom</parameterid>
								<name>bottom</name>
								<valuemin>0</valuemin>
								<valuemax>100</valuemax>
								<value>0</value>
							</parameter>
							<parameter>
								<parameterid>edgefeather</parameterid>
								<name>edgefeather</name>
								<valuemin>0</valuemin>
								<valuemax>100</valuemax>
								<value>0</value>
							</parameter>
						</effect>
					</filter>
					<filter>
						<effect>
							<name>Distort</name>
							<effectid>deformation</effectid>
							<effectcategory>motion</effectcategory>
							<effecttype>motion</effecttype>
							<mediatype>video</mediatype>
							<parameter>
								<parameterid>ulcorner</parameterid>
								<name>Upper Left</name>
								<value>
									<horiz>-0.5</horiz>
									<vert>-0.5</vert>
								</value>
							</parameter>
							<parameter>
								<parameterid>urcorner</parameterid>
								<name>Upper Right</name>
								<value>
									<horiz>0.5</horiz>
									<vert>-0.5</vert>
								</value>
							</parameter>
							<parameter>
								<parameterid>lrcorner</parameterid>
								<name>Lower Right</name>
								<value>
									<horiz>0.5</horiz>
									<vert>0.5</vert>
								</value>
							</parameter>
							<parameter>
								<parameterid>llcorner</parameterid>
								<name>Lower Left</name>
								<value>
									<horiz>-0.5</horiz>
									<vert>0.5</vert>
								</value>
							</parameter>
							<parameter>
								<parameterid>aspect</parameterid>
								<name>Aspect</name>
								<valuemin>-10000</valuemin>
								<valuemax>10000</valuemax>
								<value>0</value>
							</parameter>
						</effect>
					</filter>
					<filter>
						<effect>
							<name>Opacity</name>
							<effectid>opacity</effectid>
							<effectcategory>motion</effectcategory>
							<effecttype>motion</effecttype>
							<mediatype>video</mediatype>
							<parameter>
								<parameterid>opacity</parameterid>
								<name>opacity</name>
								<valuemin>0</valuemin>
								<valuemax>100</valuemax>
								<value>100</value>
							</parameter>
						</effect>
					</filter>
					<sourcetrack>
						<mediatype>video</mediatype>
					</sourcetrack>
					<fielddominance>none</fielddominance>
				</clipitem>
				<clipitem id="SUPER_stjernen4">
					<name>SUPER_stjernen</name>
					<duration>42</duration>
					<rate>
						<ntsc>FALSE</ntsc>
						<timebase>25</timebase>
					</rate>
					<in>0</in>
					<out>29</out>
					<start>1814</start>
					<end>1843</end>
					<pixelaspectratio>Square</pixelaspectratio>
					<enabled>TRUE</enabled>
					<anamorphic>FALSE</anamorphic>
					<alphatype>straight</alphatype>
					<masterclipid>SUPER_stjernen1</masterclipid>
					<logginginfo>
						<scene/>
						<shottake/>
						<lognote/>
						<good>FALSE</good>
					</logginginfo>
					<labels>
						<label2/>
					</labels>
					<comments>
						<mastercomment1/>
						<mastercomment2/>
						<mastercomment3/>
						<mastercomment4/>
					</comments>
					<file id="SUPER_stjernen2"/>
					<filter>
						<effect>
							<name>Basic Motion</name>
							<effectid>basic</effectid>
							<effectcategory>motion</effectcategory>
							<effecttype>motion</effecttype>
							<mediatype>video</mediatype>
							<parameter>
								<parameterid>scale</parameterid>
								<name>Scale</name>
								<valuemin>0</valuemin>
								<valuemax>1000</valuemax>
								<value>180</value>
							</parameter>
							<parameter>
								<parameterid>rotation</parameterid>
								<name>Rotation</name>
								<valuemin>-8640</valuemin>
								<valuemax>8640</valuemax>
								<value>0</value>
							</parameter>
							<parameter>
								<parameterid>center</parameterid>
								<name>Center</name>
								<value>
									<horiz>-0.756983</horiz>
									<vert>0.209441</vert>
								</value>
							</parameter>
							<parameter>
								<parameterid>centerOffset</parameterid>
								<name>Anchor Point</name>
								<value>
									<horiz>0</horiz>
									<vert>0</vert>
								</value>
							</parameter>
						</effect>
					</filter>
					<filter>
						<enabled>FALSE</enabled>
						<effect>
							<name>Drop Shadow</name>
							<effectid>dropshadow</effectid>
							<effectcategory>motion</effectcategory>
							<effecttype>motion</effecttype>
							<mediatype>video</mediatype>
							<parameter>
								<parameterid>offset</parameterid>
								<name>offset</name>
								<valuemin>-100</valuemin>
								<valuemax>100</valuemax>
								<value>2</value>
							</parameter>
							<parameter>
								<parameterid>angle</parameterid>
								<name>angle</name>
								<valuemin>-720</valuemin>
								<valuemax>720</valuemax>
								<value>135</value>
							</parameter>
							<parameter>
								<parameterid>color</parameterid>
								<name>color</name>
								<value>
									<alpha>0</alpha>
									<red>0</red>
									<green>0</green>
									<blue>0</blue>
								</value>
							</parameter>
							<parameter>
								<parameterid>softness</parameterid>
								<name>softness</name>
								<valuemin>0</valuemin>
								<valuemax>100</valuemax>
								<value>10</value>
							</parameter>
							<parameter>
								<parameterid>opacity</parameterid>
								<name>opacity</name>
								<valuemin>0</valuemin>
								<valuemax>100</valuemax>
								<value>50</value>
							</parameter>
						</effect>
					</filter>
					<filter>
						<enabled>FALSE</enabled>
						<effect>
							<name>Motion Blur</name>
							<effectid>motionblur</effectid>
							<effectcategory>motion</effectcategory>
							<effecttype>motion</effecttype>
							<mediatype>video</mediatype>
							<parameter>
								<parameterid>duration</parameterid>
								<name>% Blur</name>
								<valuemin>0</valuemin>
								<valuemax>1000</valuemax>
								<value>500</value>
							</parameter>
							<parameter>
								<parameterid>samples</parameterid>
								<name>Samples</name>
								<valuemin>1</valuemin>
								<valuemax>16</valuemax>
								<value>4</value>
							</parameter>
						</effect>
					</filter>
					<filter>
						<effect>
							<name>Crop</name>
							<effectid>crop</effectid>
							<effectcategory>motion</effectcategory>
							<effecttype>motion</effecttype>
							<mediatype>video</mediatype>
							<parameter>
								<parameterid>left</parameterid>
								<name>left</name>
								<valuemin>0</valuemin>
								<valuemax>100</valuemax>
								<value>0</value>
							</parameter>
							<parameter>
								<parameterid>right</parameterid>
								<name>right</name>
								<valuemin>0</valuemin>
								<valuemax>100</valuemax>
								<value>0</value>
							</parameter>
							<parameter>
								<parameterid>top</parameterid>
								<name>top</name>
								<valuemin>0</valuemin>
								<valuemax>100</valuemax>
								<value>0</value>
							</parameter>
							<parameter>
								<parameterid>bottom</parameterid>
								<name>bottom</name>
								<valuemin>0</valuemin>
								<valuemax>100</valuemax>
								<value>0</value>
							</parameter>
							<parameter>
								<parameterid>edgefeather</parameterid>
								<name>edgefeather</name>
								<valuemin>0</valuemin>
								<valuemax>100</valuemax>
								<value>0</value>
							</parameter>
						</effect>
					</filter>
					<filter>
						<effect>
							<name>Distort</name>
							<effectid>deformation</effectid>
							<effectcategory>motion</effectcategory>
							<effecttype>motion</effecttype>
							<mediatype>video</mediatype>
							<parameter>
								<parameterid>ulcorner</parameterid>
								<name>Upper Left</name>
								<value>
									<horiz>-0.5</horiz>
									<vert>-0.5</vert>
								</value>
							</parameter>
							<parameter>
								<parameterid>urcorner</parameterid>
								<name>Upper Right</name>
								<value>
									<horiz>0.5</horiz>
									<vert>-0.5</vert>
								</value>
							</parameter>
							<parameter>
								<parameterid>lrcorner</parameterid>
								<name>Lower Right</name>
								<value>
									<horiz>0.5</horiz>
									<vert>0.5</vert>
								</value>
							</parameter>
							<parameter>
								<parameterid>llcorner</parameterid>
								<name>Lower Left</name>
								<value>
									<horiz>-0.5</horiz>
									<vert>0.5</vert>
								</value>
							</parameter>
							<parameter>
								<parameterid>aspect</parameterid>
								<name>Aspect</name>
								<valuemin>-10000</valuemin>
								<valuemax>10000</valuemax>
								<value>0</value>
							</parameter>
						</effect>
					</filter>
					<filter>
						<effect>
							<name>Opacity</name>
							<effectid>opacity</effectid>
							<effectcategory>motion</effectcategory>
							<effecttype>motion</effecttype>
							<mediatype>video</mediatype>
							<parameter>
								<parameterid>opacity</parameterid>
								<name>opacity</name>
								<valuemin>0</valuemin>
								<valuemax>100</valuemax>
								<value>100</value>
							</parameter>
						</effect>
					</filter>
					<sourcetrack>
						<mediatype>video</mediatype>
					</sourcetrack>
					<fielddominance>none</fielddominance>
				</clipitem>
				<clipitem id="Eyeworks-Dinamo.png">
					<name>Eyeworks-Dinamo.png</name>
					<duration>3026</duration>
					<rate>
						<ntsc>FALSE</ntsc>
						<timebase>25</timebase>
					</rate>
					<in>1500</in>
					<out>1575</out>
					<start>7396</start>
					<end>7471</end>
					<pixelaspectratio>Square</pixelaspectratio>
					<stillframe>TRUE</stillframe>
					<enabled>TRUE</enabled>
					<anamorphic>FALSE</anamorphic>
					<alphatype>straight</alphatype>
					<masterclipid>Eyeworks-Dinamo.png1</masterclipid>
					<logginginfo>
						<scene/>
						<shottake/>
						<lognote/>
						<good>FALSE</good>
					</logginginfo>
					<labels>
						<label2/>
					</labels>
					<comments>
						<mastercomment1/>
						<mastercomment2/>
						<mastercomment3/>
						<mastercomment4/>
					</comments>
					<file id="Eyeworks-Dinamo">
						<name>Eyeworks-Dinamo.png</name>
						<pathurl>file://localhost/Volumes/SuperSAN1/Prosjekter/MSUB20000012%20FIN%20FREDAG/FCP-prosjekter/program%201/Supere%20program%201/Eyeworks-Dinamo.png</pathurl>
						<rate>
							<timebase>25</timebase>
						</rate>
						<duration>2</duration>
						<width>1707</width>
						<height>393</height>
						<media>
							<video>
								<duration>2</duration>
								<stillframe>TRUE</stillframe>
								<samplecharacteristics>
									<width>1707</width>
									<height>393</height>
								</samplecharacteristics>
							</video>
						</media>
					</file>
					<filter>
						<effect>
							<name>Basic Motion</name>
							<effectid>basic</effectid>
							<effectcategory>motion</effectcategory>
							<effecttype>motion</effecttype>
							<mediatype>video</mediatype>
							<parameter>
								<parameterid>scale</parameterid>
								<name>Scale</name>
								<valuemin>0</valuemin>
								<valuemax>1000</valuemax>
								<value>35</value>
							</parameter>
							<parameter>
								<parameterid>rotation</parameterid>
								<name>Rotation</name>
								<valuemin>-8640</valuemin>
								<valuemax>8640</valuemax>
								<value>0</value>
							</parameter>
							<parameter>
								<parameterid>center</parameterid>
								<name>Center</name>
								<value>
									<horiz>-0.318063</horiz>
									<vert>-0.806818</vert>
								</value>
							</parameter>
							<parameter>
								<parameterid>centerOffset</parameterid>
								<name>Anchor Point</name>
								<value>
									<horiz>0</horiz>
									<vert>0</vert>
								</value>
							</parameter>
						</effect>
					</filter>
					<filter>
						<enabled>FALSE</enabled>
						<effect>
							<name>Drop Shadow</name>
							<effectid>dropshadow</effectid>
							<effectcategory>motion</effectcategory>
							<effecttype>motion</effecttype>
							<mediatype>video</mediatype>
							<parameter>
								<parameterid>offset</parameterid>
								<name>offset</name>
								<valuemin>-100</valuemin>
								<valuemax>100</valuemax>
								<value>2</value>
							</parameter>
							<parameter>
								<parameterid>angle</parameterid>
								<name>angle</name>
								<valuemin>-720</valuemin>
								<valuemax>720</valuemax>
								<value>135</value>
							</parameter>
							<parameter>
								<parameterid>color</parameterid>
								<name>color</name>
								<value>
									<alpha>0</alpha>
									<red>0</red>
									<green>0</green>
									<blue>0</blue>
								</value>
							</parameter>
							<parameter>
								<parameterid>softness</parameterid>
								<name>softness</name>
								<valuemin>0</valuemin>
								<valuemax>100</valuemax>
								<value>10</value>
							</parameter>
							<parameter>
								<parameterid>opacity</parameterid>
								<name>opacity</name>
								<valuemin>0</valuemin>
								<valuemax>100</valuemax>
								<value>50</value>
							</parameter>
						</effect>
					</filter>
					<filter>
						<enabled>FALSE</enabled>
						<effect>
							<name>Motion Blur</name>
							<effectid>motionblur</effectid>
							<effectcategory>motion</effectcategory>
							<effecttype>motion</effecttype>
							<mediatype>video</mediatype>
							<parameter>
								<parameterid>duration</parameterid>
								<name>% Blur</name>
								<valuemin>0</valuemin>
								<valuemax>1000</valuemax>
								<value>500</value>
							</parameter>
							<parameter>
								<parameterid>samples</parameterid>
								<name>Samples</name>
								<valuemin>1</valuemin>
								<valuemax>16</valuemax>
								<value>4</value>
							</parameter>
						</effect>
					</filter>
					<filter>
						<effect>
							<name>Crop</name>
							<effectid>crop</effectid>
							<effectcategory>motion</effectcategory>
							<effecttype>motion</effecttype>
							<mediatype>video</mediatype>
							<parameter>
								<parameterid>left</parameterid>
								<name>left</name>
								<valuemin>0</valuemin>
								<valuemax>100</valuemax>
								<value>0</value>
							</parameter>
							<parameter>
								<parameterid>right</parameterid>
								<name>right</name>
								<valuemin>0</valuemin>
								<valuemax>100</valuemax>
								<value>0</value>
							</parameter>
							<parameter>
								<parameterid>top</parameterid>
								<name>top</name>
								<valuemin>0</valuemin>
								<valuemax>100</valuemax>
								<value>0</value>
							</parameter>
							<parameter>
								<parameterid>bottom</parameterid>
								<name>bottom</name>
								<valuemin>0</valuemin>
								<valuemax>100</valuemax>
								<value>0</value>
							</parameter>
							<parameter>
								<parameterid>edgefeather</parameterid>
								<name>edgefeather</name>
								<valuemin>0</valuemin>
								<valuemax>100</valuemax>
								<value>0</value>
							</parameter>
						</effect>
					</filter>
					<filter>
						<effect>
							<name>Distort</name>
							<effectid>deformation</effectid>
							<effectcategory>motion</effectcategory>
							<effecttype>motion</effecttype>
							<mediatype>video</mediatype>
							<parameter>
								<parameterid>ulcorner</parameterid>
								<name>Upper Left</name>
								<value>
									<horiz>-0.5</horiz>
									<vert>-0.5</vert>
								</value>
							</parameter>
							<parameter>
								<parameterid>urcorner</parameterid>
								<name>Upper Right</name>
								<value>
									<horiz>0.5</horiz>
									<vert>-0.5</vert>
								</value>
							</parameter>
							<parameter>
								<parameterid>lrcorner</parameterid>
								<name>Lower Right</name>
								<value>
									<horiz>0.5</horiz>
									<vert>0.5</vert>
								</value>
							</parameter>
							<parameter>
								<parameterid>llcorner</parameterid>
								<name>Lower Left</name>
								<value>
									<horiz>-0.5</horiz>
									<vert>0.5</vert>
								</value>
							</parameter>
							<parameter>
								<parameterid>aspect</parameterid>
								<name>Aspect</name>
								<valuemin>-10000</valuemin>
								<valuemax>10000</valuemax>
								<value>0</value>
							</parameter>
						</effect>
					</filter>
					<filter>
						<effect>
							<name>Opacity</name>
							<effectid>opacity</effectid>
							<effectcategory>motion</effectcategory>
							<effecttype>motion</effecttype>
							<mediatype>video</mediatype>
							<parameter>
								<parameterid>opacity</parameterid>
								<name>opacity</name>
								<valuemin>0</valuemin>
								<valuemax>100</valuemax>
								<value>100</value>
							</parameter>
						</effect>
					</filter>
					<sourcetrack>
						<mediatype>video</mediatype>
					</sourcetrack>
					<fielddominance>none</fielddominance>
				</clipitem>
				<clipitem id="SUPER_stjernen5">
					<name>SUPER_stjernen</name>
					<duration>42</duration>
					<rate>
						<ntsc>FALSE</ntsc>
						<timebase>25</timebase>
					</rate>
					<in>0</in>
					<out>29</out>
					<start>9250</start>
					<end>9279</end>
					<pixelaspectratio>Square</pixelaspectratio>
					<enabled>TRUE</enabled>
					<anamorphic>FALSE</anamorphic>
					<alphatype>straight</alphatype>
					<masterclipid>SUPER_stjernen1</masterclipid>
					<logginginfo>
						<scene/>
						<shottake/>
						<lognote/>
						<good>FALSE</good>
					</logginginfo>
					<labels>
						<label2/>
					</labels>
					<comments>
						<mastercomment1/>
						<mastercomment2/>
						<mastercomment3/>
						<mastercomment4/>
					</comments>
					<file id="SUPER_stjernen2"/>
					<filter>
						<effect>
							<name>Basic Motion</name>
							<effectid>basic</effectid>
							<effectcategory>motion</effectcategory>
							<effecttype>motion</effecttype>
							<mediatype>video</mediatype>
							<parameter>
								<parameterid>scale</parameterid>
								<name>Scale</name>
								<valuemin>0</valuemin>
								<valuemax>1000</valuemax>
								<value>180</value>
							</parameter>
							<parameter>
								<parameterid>rotation</parameterid>
								<name>Rotation</name>
								<valuemin>-8640</valuemin>
								<valuemax>8640</valuemax>
								<value>0</value>
							</parameter>
							<parameter>
								<parameterid>center</parameterid>
								<name>Center</name>
								<value>
									<horiz>-0.812849</horiz>
									<vert>0.201493</vert>
								</value>
							</parameter>
							<parameter>
								<parameterid>centerOffset</parameterid>
								<name>Anchor Point</name>
								<value>
									<horiz>0</horiz>
									<vert>0</vert>
								</value>
							</parameter>
						</effect>
					</filter>
					<filter>
						<enabled>FALSE</enabled>
						<effect>
							<name>Drop Shadow</name>
							<effectid>dropshadow</effectid>
							<effectcategory>motion</effectcategory>
							<effecttype>motion</effecttype>
							<mediatype>video</mediatype>
							<parameter>
								<parameterid>offset</parameterid>
								<name>offset</name>
								<valuemin>-100</valuemin>
								<valuemax>100</valuemax>
								<value>2</value>
							</parameter>
							<parameter>
								<parameterid>angle</parameterid>
								<name>angle</name>
								<valuemin>-720</valuemin>
								<valuemax>720</valuemax>
								<value>135</value>
							</parameter>
							<parameter>
								<parameterid>color</parameterid>
								<name>color</name>
								<value>
									<alpha>0</alpha>
									<red>0</red>
									<green>0</green>
									<blue>0</blue>
								</value>
							</parameter>
							<parameter>
								<parameterid>softness</parameterid>
								<name>softness</name>
								<valuemin>0</valuemin>
								<valuemax>100</valuemax>
								<value>10</value>
							</parameter>
							<parameter>
								<parameterid>opacity</parameterid>
								<name>opacity</name>
								<valuemin>0</valuemin>
								<valuemax>100</valuemax>
								<value>50</value>
							</parameter>
						</effect>
					</filter>
					<filter>
						<enabled>FALSE</enabled>
						<effect>
							<name>Motion Blur</name>
							<effectid>motionblur</effectid>
							<effectcategory>motion</effectcategory>
							<effecttype>motion</effecttype>
							<mediatype>video</mediatype>
							<parameter>
								<parameterid>duration</parameterid>
								<name>% Blur</name>
								<valuemin>0</valuemin>
								<valuemax>1000</valuemax>
								<value>500</value>
							</parameter>
							<parameter>
								<parameterid>samples</parameterid>
								<name>Samples</name>
								<valuemin>1</valuemin>
								<valuemax>16</valuemax>
								<value>4</value>
							</parameter>
						</effect>
					</filter>
					<filter>
						<effect>
							<name>Crop</name>
							<effectid>crop</effectid>
							<effectcategory>motion</effectcategory>
							<effecttype>motion</effecttype>
							<mediatype>video</mediatype>
							<parameter>
								<parameterid>left</parameterid>
								<name>left</name>
								<valuemin>0</valuemin>
								<valuemax>100</valuemax>
								<value>0</value>
							</parameter>
							<parameter>
								<parameterid>right</parameterid>
								<name>right</name>
								<valuemin>0</valuemin>
								<valuemax>100</valuemax>
								<value>0</value>
							</parameter>
							<parameter>
								<parameterid>top</parameterid>
								<name>top</name>
								<valuemin>0</valuemin>
								<valuemax>100</valuemax>
								<value>0</value>
							</parameter>
							<parameter>
								<parameterid>bottom</parameterid>
								<name>bottom</name>
								<valuemin>0</valuemin>
								<valuemax>100</valuemax>
								<value>0</value>
							</parameter>
							<parameter>
								<parameterid>edgefeather</parameterid>
								<name>edgefeather</name>
								<valuemin>0</valuemin>
								<valuemax>100</valuemax>
								<value>0</value>
							</parameter>
						</effect>
					</filter>
					<filter>
						<effect>
							<name>Distort</name>
							<effectid>deformation</effectid>
							<effectcategory>motion</effectcategory>
							<effecttype>motion</effecttype>
							<mediatype>video</mediatype>
							<parameter>
								<parameterid>ulcorner</parameterid>
								<name>Upper Left</name>
								<value>
									<horiz>-0.5</horiz>
									<vert>-0.5</vert>
								</value>
							</parameter>
							<parameter>
								<parameterid>urcorner</parameterid>
								<name>Upper Right</name>
								<value>
									<horiz>0.5</horiz>
									<vert>-0.5</vert>
								</value>
							</parameter>
							<parameter>
								<parameterid>lrcorner</parameterid>
								<name>Lower Right</name>
								<value>
									<horiz>0.5</horiz>
									<vert>0.5</vert>
								</value>
							</parameter>
							<parameter>
								<parameterid>llcorner</parameterid>
								<name>Lower Left</name>
								<value>
									<horiz>-0.5</horiz>
									<vert>0.5</vert>
								</value>
							</parameter>
							<parameter>
								<parameterid>aspect</parameterid>
								<name>Aspect</name>
								<valuemin>-10000</valuemin>
								<valuemax>10000</valuemax>
								<value>0</value>
							</parameter>
						</effect>
					</filter>
					<filter>
						<effect>
							<name>Opacity</name>
							<effectid>opacity</effectid>
							<effectcategory>motion</effectcategory>
							<effecttype>motion</effecttype>
							<mediatype>video</mediatype>
							<parameter>
								<parameterid>opacity</parameterid>
								<name>opacity</name>
								<valuemin>0</valuemin>
								<valuemax>100</valuemax>
								<value>100</value>
							</parameter>
						</effect>
					</filter>
					<sourcetrack>
						<mediatype>video</mediatype>
					</sourcetrack>
					<fielddominance>none</fielddominance>
				</clipitem>
				<clipitem id="Maracas.png">
					<name>Maracas.png</name>
					<duration>3026</duration>
					<rate>
						<ntsc>FALSE</ntsc>
						<timebase>25</timebase>
					</rate>
					<in>1500</in>
					<out>1508</out>
					<start>25844</start>
					<end>25852</end>
					<pixelaspectratio>Square</pixelaspectratio>
					<stillframe>TRUE</stillframe>
					<enabled>TRUE</enabled>
					<anamorphic>FALSE</anamorphic>
					<alphatype>black</alphatype>
					<masterclipid>Maracas.png1</masterclipid>
					<logginginfo>
						<scene/>
						<shottake/>
						<lognote/>
						<good>FALSE</good>
					</logginginfo>
					<labels>
						<label2/>
					</labels>
					<comments>
						<mastercomment1/>
						<mastercomment2/>
						<mastercomment3/>
						<mastercomment4/>
					</comments>
					<file id="Maracas">
						<name>Maracas.png</name>
						<pathurl>file://localhost/Volumes/SuperSAN1/Prosjekter/MSUB20000012%20FIN%20FREDAG/Profil-grafikk/Maracas.png</pathurl>
						<rate>
							<timebase>25</timebase>
						</rate>
						<duration>2</duration>
						<width>1920</width>
						<height>1080</height>
						<media>
							<video>
								<duration>2</duration>
								<stillframe>TRUE</stillframe>
								<samplecharacteristics>
									<width>1920</width>
									<height>1080</height>
								</samplecharacteristics>
							</video>
						</media>
					</file>
					<filter>
						<effect>
							<name>Basic Motion</name>
							<effectid>basic</effectid>
							<effectcategory>motion</effectcategory>
							<effecttype>motion</effecttype>
							<mediatype>video</mediatype>
							<parameter>
								<parameterid>scale</parameterid>
								<name>Scale</name>
								<valuemin>0</valuemin>
								<valuemax>1000</valuemax>
								<value>40</value>
							</parameter>
							<parameter>
								<parameterid>rotation</parameterid>
								<name>Rotation</name>
								<valuemin>-8640</valuemin>
								<valuemax>8640</valuemax>
								<value>0</value>
							</parameter>
							<parameter>
								<parameterid>center</parameterid>
								<name>Center</name>
								<value>
									<horiz>-0.0476744</horiz>
									<vert>0.357438</vert>
								</value>
							</parameter>
							<parameter>
								<parameterid>centerOffset</parameterid>
								<name>Anchor Point</name>
								<value>
									<horiz>0</horiz>
									<vert>0</vert>
								</value>
							</parameter>
						</effect>
					</filter>
					<filter>
						<enabled>FALSE</enabled>
						<effect>
							<name>Drop Shadow</name>
							<effectid>dropshadow</effectid>
							<effectcategory>motion</effectcategory>
							<effecttype>motion</effecttype>
							<mediatype>video</mediatype>
							<parameter>
								<parameterid>offset</parameterid>
								<name>offset</name>
								<valuemin>-100</valuemin>
								<valuemax>100</valuemax>
								<value>2</value>
							</parameter>
							<parameter>
								<parameterid>angle</parameterid>
								<name>angle</name>
								<valuemin>-720</valuemin>
								<valuemax>720</valuemax>
								<value>135</value>
							</parameter>
							<parameter>
								<parameterid>color</parameterid>
								<name>color</name>
								<value>
									<alpha>0</alpha>
									<red>0</red>
									<green>0</green>
									<blue>0</blue>
								</value>
							</parameter>
							<parameter>
								<parameterid>softness</parameterid>
								<name>softness</name>
								<valuemin>0</valuemin>
								<valuemax>100</valuemax>
								<value>10</value>
							</parameter>
							<parameter>
								<parameterid>opacity</parameterid>
								<name>opacity</name>
								<valuemin>0</valuemin>
								<valuemax>100</valuemax>
								<value>50</value>
							</parameter>
						</effect>
					</filter>
					<filter>
						<enabled>FALSE</enabled>
						<effect>
							<name>Motion Blur</name>
							<effectid>motionblur</effectid>
							<effectcategory>motion</effectcategory>
							<effecttype>motion</effecttype>
							<mediatype>video</mediatype>
							<parameter>
								<parameterid>duration</parameterid>
								<name>% Blur</name>
								<valuemin>0</valuemin>
								<valuemax>1000</valuemax>
								<value>500</value>
							</parameter>
							<parameter>
								<parameterid>samples</parameterid>
								<name>Samples</name>
								<valuemin>1</valuemin>
								<valuemax>16</valuemax>
								<value>4</value>
							</parameter>
						</effect>
					</filter>
					<filter>
						<effect>
							<name>Crop</name>
							<effectid>crop</effectid>
							<effectcategory>motion</effectcategory>
							<effecttype>motion</effecttype>
							<mediatype>video</mediatype>
							<parameter>
								<parameterid>left</parameterid>
								<name>left</name>
								<valuemin>0</valuemin>
								<valuemax>100</valuemax>
								<value>0</value>
							</parameter>
							<parameter>
								<parameterid>right</parameterid>
								<name>right</name>
								<valuemin>0</valuemin>
								<valuemax>100</valuemax>
								<value>0</value>
							</parameter>
							<parameter>
								<parameterid>top</parameterid>
								<name>top</name>
								<valuemin>0</valuemin>
								<valuemax>100</valuemax>
								<value>0</value>
							</parameter>
							<parameter>
								<parameterid>bottom</parameterid>
								<name>bottom</name>
								<valuemin>0</valuemin>
								<valuemax>100</valuemax>
								<value>0</value>
							</parameter>
							<parameter>
								<parameterid>edgefeather</parameterid>
								<name>edgefeather</name>
								<valuemin>0</valuemin>
								<valuemax>100</valuemax>
								<value>0</value>
							</parameter>
						</effect>
					</filter>
					<filter>
						<effect>
							<name>Distort</name>
							<effectid>deformation</effectid>
							<effectcategory>motion</effectcategory>
							<effecttype>motion</effecttype>
							<mediatype>video</mediatype>
							<parameter>
								<parameterid>ulcorner</parameterid>
								<name>Upper Left</name>
								<value>
									<horiz>-0.5</horiz>
									<vert>-0.5</vert>
								</value>
							</parameter>
							<parameter>
								<parameterid>urcorner</parameterid>
								<name>Upper Right</name>
								<value>
									<horiz>0.5</horiz>
									<vert>-0.5</vert>
								</value>
							</parameter>
							<parameter>
								<parameterid>lrcorner</parameterid>
								<name>Lower Right</name>
								<value>
									<horiz>0.5</horiz>
									<vert>0.5</vert>
								</value>
							</parameter>
							<parameter>
								<parameterid>llcorner</parameterid>
								<name>Lower Left</name>
								<value>
									<horiz>-0.5</horiz>
									<vert>0.5</vert>
								</value>
							</parameter>
							<parameter>
								<parameterid>aspect</parameterid>
								<name>Aspect</name>
								<valuemin>-10000</valuemin>
								<valuemax>10000</valuemax>
								<value>0</value>
							</parameter>
						</effect>
					</filter>
					<filter>
						<effect>
							<name>Opacity</name>
							<effectid>opacity</effectid>
							<effectcategory>motion</effectcategory>
							<effecttype>motion</effecttype>
							<mediatype>video</mediatype>
							<parameter>
								<parameterid>opacity</parameterid>
								<name>opacity</name>
								<valuemin>0</valuemin>
								<valuemax>100</valuemax>
								<value>100</value>
							</parameter>
						</effect>
					</filter>
					<sourcetrack>
						<mediatype>video</mediatype>
					</sourcetrack>
					<fielddominance>none</fielddominance>
				</clipitem>
				<clipitem id="Maracas.png2">
					<name>Maracas.png</name>
					<duration>3026</duration>
					<rate>
						<ntsc>FALSE</ntsc>
						<timebase>25</timebase>
					</rate>
					<in>1500</in>
					<out>1508</out>
					<start>25855</start>
					<end>25863</end>
					<pixelaspectratio>Square</pixelaspectratio>
					<stillframe>TRUE</stillframe>
					<enabled>TRUE</enabled>
					<anamorphic>FALSE</anamorphic>
					<alphatype>black</alphatype>
					<masterclipid>Maracas.png1</masterclipid>
					<logginginfo>
						<scene/>
						<shottake/>
						<lognote/>
						<good>FALSE</good>
					</logginginfo>
					<labels>
						<label2/>
					</labels>
					<comments>
						<mastercomment1/>
						<mastercomment2/>
						<mastercomment3/>
						<mastercomment4/>
					</comments>
					<file id="Maracas"/>
					<filter>
						<effect>
							<name>Basic Motion</name>
							<effectid>basic</effectid>
							<effectcategory>motion</effectcategory>
							<effecttype>motion</effecttype>
							<mediatype>video</mediatype>
							<parameter>
								<parameterid>scale</parameterid>
								<name>Scale</name>
								<valuemin>0</valuemin>
								<valuemax>1000</valuemax>
								<value>25</value>
							</parameter>
							<parameter>
								<parameterid>rotation</parameterid>
								<name>Rotation</name>
								<valuemin>-8640</valuemin>
								<valuemax>8640</valuemax>
								<value>33</value>
							</parameter>
							<parameter>
								<parameterid>center</parameterid>
								<name>Center</name>
								<value>
									<horiz>-0.231395</horiz>
									<vert>0.268595</vert>
								</value>
							</parameter>
							<parameter>
								<parameterid>centerOffset</parameterid>
								<name>Anchor Point</name>
								<value>
									<horiz>0</horiz>
									<vert>0</vert>
								</value>
							</parameter>
						</effect>
					</filter>
					<filter>
						<enabled>FALSE</enabled>
						<effect>
							<name>Drop Shadow</name>
							<effectid>dropshadow</effectid>
							<effectcategory>motion</effectcategory>
							<effecttype>motion</effecttype>
							<mediatype>video</mediatype>
							<parameter>
								<parameterid>offset</parameterid>
								<name>offset</name>
								<valuemin>-100</valuemin>
								<valuemax>100</valuemax>
								<value>2</value>
							</parameter>
							<parameter>
								<parameterid>angle</parameterid>
								<name>angle</name>
								<valuemin>-720</valuemin>
								<valuemax>720</valuemax>
								<value>135</value>
							</parameter>
							<parameter>
								<parameterid>color</parameterid>
								<name>color</name>
								<value>
									<alpha>0</alpha>
									<red>0</red>
									<green>0</green>
									<blue>0</blue>
								</value>
							</parameter>
							<parameter>
								<parameterid>softness</parameterid>
								<name>softness</name>
								<valuemin>0</valuemin>
								<valuemax>100</valuemax>
								<value>10</value>
							</parameter>
							<parameter>
								<parameterid>opacity</parameterid>
								<name>opacity</name>
								<valuemin>0</valuemin>
								<valuemax>100</valuemax>
								<value>50</value>
							</parameter>
						</effect>
					</filter>
					<filter>
						<enabled>FALSE</enabled>
						<effect>
							<name>Motion Blur</name>
							<effectid>motionblur</effectid>
							<effectcategory>motion</effectcategory>
							<effecttype>motion</effecttype>
							<mediatype>video</mediatype>
							<parameter>
								<parameterid>duration</parameterid>
								<name>% Blur</name>
								<valuemin>0</valuemin>
								<valuemax>1000</valuemax>
								<value>500</value>
							</parameter>
							<parameter>
								<parameterid>samples</parameterid>
								<name>Samples</name>
								<valuemin>1</valuemin>
								<valuemax>16</valuemax>
								<value>4</value>
							</parameter>
						</effect>
					</filter>
					<filter>
						<effect>
							<name>Crop</name>
							<effectid>crop</effectid>
							<effectcategory>motion</effectcategory>
							<effecttype>motion</effecttype>
							<mediatype>video</mediatype>
							<parameter>
								<parameterid>left</parameterid>
								<name>left</name>
								<valuemin>0</valuemin>
								<valuemax>100</valuemax>
								<value>0</value>
							</parameter>
							<parameter>
								<parameterid>right</parameterid>
								<name>right</name>
								<valuemin>0</valuemin>
								<valuemax>100</valuemax>
								<value>0</value>
							</parameter>
							<parameter>
								<parameterid>top</parameterid>
								<name>top</name>
								<valuemin>0</valuemin>
								<valuemax>100</valuemax>
								<value>0</value>
							</parameter>
							<parameter>
								<parameterid>bottom</parameterid>
								<name>bottom</name>
								<valuemin>0</valuemin>
								<valuemax>100</valuemax>
								<value>0</value>
							</parameter>
							<parameter>
								<parameterid>edgefeather</parameterid>
								<name>edgefeather</name>
								<valuemin>0</valuemin>
								<valuemax>100</valuemax>
								<value>0</value>
							</parameter>
						</effect>
					</filter>
					<filter>
						<effect>
							<name>Distort</name>
							<effectid>deformation</effectid>
							<effectcategory>motion</effectcategory>
							<effecttype>motion</effecttype>
							<mediatype>video</mediatype>
							<parameter>
								<parameterid>ulcorner</parameterid>
								<name>Upper Left</name>
								<value>
									<horiz>-0.5</horiz>
									<vert>-0.5</vert>
								</value>
							</parameter>
							<parameter>
								<parameterid>urcorner</parameterid>
								<name>Upper Right</name>
								<value>
									<horiz>0.5</horiz>
									<vert>-0.5</vert>
								</value>
							</parameter>
							<parameter>
								<parameterid>lrcorner</parameterid>
								<name>Lower Right</name>
								<value>
									<horiz>0.5</horiz>
									<vert>0.5</vert>
								</value>
							</parameter>
							<parameter>
								<parameterid>llcorner</parameterid>
								<name>Lower Left</name>
								<value>
									<horiz>-0.5</horiz>
									<vert>0.5</vert>
								</value>
							</parameter>
							<parameter>
								<parameterid>aspect</parameterid>
								<name>Aspect</name>
								<valuemin>-10000</valuemin>
								<valuemax>10000</valuemax>
								<value>0</value>
							</parameter>
						</effect>
					</filter>
					<filter>
						<effect>
							<name>Opacity</name>
							<effectid>opacity</effectid>
							<effectcategory>motion</effectcategory>
							<effecttype>motion</effecttype>
							<mediatype>video</mediatype>
							<parameter>
								<parameterid>opacity</parameterid>
								<name>opacity</name>
								<valuemin>0</valuemin>
								<valuemax>100</valuemax>
								<value>100</value>
							</parameter>
						</effect>
					</filter>
					<sourcetrack>
						<mediatype>video</mediatype>
					</sourcetrack>
					<fielddominance>none</fielddominance>
				</clipitem>
				<clipitem id="Bumper-Finfredag-m_lyd">
					<name>Bumper-Finfredag-m_lyd</name>
					<duration>104</duration>
					<rate>
						<ntsc>FALSE</ntsc>
						<timebase>25</timebase>
					</rate>
					<in>12</in>
					<out>69</out>
					<start>29082</start>
					<end>29139</end>
					<pixelaspectratio>Square</pixelaspectratio>
					<enabled>TRUE</enabled>
					<anamorphic>FALSE</anamorphic>
					<alphatype>none</alphatype>
					<masterclipid>Bumper-Finfredag-m_lyd1</masterclipid>
					<logginginfo>
						<scene/>
						<shottake/>
						<lognote/>
						<good>FALSE</good>
					</logginginfo>
					<labels>
						<label2/>
					</labels>
					<comments>
						<mastercomment1/>
						<mastercomment2/>
						<mastercomment3/>
						<mastercomment4/>
					</comments>
					<file id="Bumper-Finfredag-m_lyd2">
						<name>Bumper-Finfredag-m_lyd.mov</name>
						<pathurl>file://localhost/Volumes/SuperSAN1/Prosjekter/MSUB20000012%20FIN%20FREDAG/Profil-grafikk/Bumpere/Bumper-Finfredag-m_lyd.mov</pathurl>
						<rate>
							<timebase>25</timebase>
						</rate>
						<duration>104</duration>
						<timecode>
							<rate>
								<timebase>25</timebase>
							</rate>
							<string>00:00:02:18</string>
							<frame>68</frame>
							<displayformat>NDF</displayformat>
							<source>source</source>
						</timecode>
						<media>
							<video>
								<duration>104</duration>
								<samplecharacteristics>
									<width>1920</width>
									<height>1080</height>
								</samplecharacteristics>
							</video>
							<audio>
								<rate>
									<timebase>48000</timebase>
								</rate>
								<trackcount>2</trackcount>
								<samplecharacteristics>
									<depth>24</depth>
								</samplecharacteristics>
							</audio>
						</media>
					</file>
					<sourcetrack>
						<mediatype>video</mediatype>
					</sourcetrack>
					<link>
						<linkclipref>Bumper-Finfredag-m_lyd</linkclipref>
						<mediatype>video</mediatype>
						<trackindex>4</trackindex>
						<clipindex>8</clipindex>
					</link>
					<link>
						<linkclipref>Bumper-Finfredag-m_lyd3</linkclipref>
						<mediatype>audio</mediatype>
						<trackindex>11</trackindex>
						<clipindex>1</clipindex>
					</link>
					<link>
						<linkclipref>Bumper-Finfredag-m_lyd4</linkclipref>
						<mediatype>audio</mediatype>
						<trackindex>12</trackindex>
						<clipindex>1</clipindex>
					</link>
					<fielddominance>upper</fielddominance>
				</clipitem>
				<clipitem id="tooj-bostrom-bosrom.png">
					<name>tooj-bostrom-bosrom.png</name>
					<duration>3026</duration>
					<rate>
						<ntsc>FALSE</ntsc>
						<timebase>25</timebase>
					</rate>
					<in>1500</in>
					<out>1581</out>
					<start>29717</start>
					<end>29798</end>
					<pixelaspectratio>Square</pixelaspectratio>
					<stillframe>TRUE</stillframe>
					<enabled>TRUE</enabled>
					<anamorphic>FALSE</anamorphic>
					<alphatype>straight</alphatype>
					<masterclipid>tooj-bostrom-bosrom.png1</masterclipid>
					<logginginfo>
						<scene/>
						<shottake/>
						<lognote/>
						<good>FALSE</good>
					</logginginfo>
					<labels>
						<label2/>
					</labels>
					<comments>
						<mastercomment1/>
						<mastercomment2/>
						<mastercomment3/>
						<mastercomment4/>
					</comments>
					<file id="tooj-bostrom-bosrom">
						<name>tooj-bostrom-bosrom.png</name>
						<pathurl>file://localhost/Volumes/SuperSAN1/Prosjekter/MSUB20000012%20FIN%20FREDAG/FCP-prosjekter/program%201/Supere%20program%201/tooj-bostrom-bosrom.png</pathurl>
						<rate>
							<timebase>25</timebase>
						</rate>
						<duration>2</duration>
						<width>1757</width>
						<height>393</height>
						<media>
							<video>
								<duration>2</duration>
								<stillframe>TRUE</stillframe>
								<samplecharacteristics>
									<width>1757</width>
									<height>393</height>
								</samplecharacteristics>
							</video>
						</media>
					</file>
					<filter>
						<effect>
							<name>Basic Motion</name>
							<effectid>basic</effectid>
							<effectcategory>motion</effectcategory>
							<effecttype>motion</effecttype>
							<mediatype>video</mediatype>
							<parameter>
								<parameterid>scale</parameterid>
								<name>Scale</name>
								<valuemin>0</valuemin>
								<valuemax>1000</valuemax>
								<value>30</value>
							</parameter>
							<parameter>
								<parameterid>rotation</parameterid>
								<name>Rotation</name>
								<valuemin>-8640</valuemin>
								<valuemax>8640</valuemax>
								<value>0</value>
							</parameter>
							<parameter>
								<parameterid>center</parameterid>
								<name>Center</name>
								<value>
									<horiz>-0.29352</horiz>
									<vert>1.08523</vert>
								</value>
							</parameter>
							<parameter>
								<parameterid>centerOffset</parameterid>
								<name>Anchor Point</name>
								<value>
									<horiz>0</horiz>
									<vert>0</vert>
								</value>
							</parameter>
						</effect>
					</filter>
					<filter>
						<enabled>FALSE</enabled>
						<effect>
							<name>Drop Shadow</name>
							<effectid>dropshadow</effectid>
							<effectcategory>motion</effectcategory>
							<effecttype>motion</effecttype>
							<mediatype>video</mediatype>
							<parameter>
								<parameterid>offset</parameterid>
								<name>offset</name>
								<valuemin>-100</valuemin>
								<valuemax>100</valuemax>
								<value>2</value>
							</parameter>
							<parameter>
								<parameterid>angle</parameterid>
								<name>angle</name>
								<valuemin>-720</valuemin>
								<valuemax>720</valuemax>
								<value>135</value>
							</parameter>
							<parameter>
								<parameterid>color</parameterid>
								<name>color</name>
								<value>
									<alpha>0</alpha>
									<red>0</red>
									<green>0</green>
									<blue>0</blue>
								</value>
							</parameter>
							<parameter>
								<parameterid>softness</parameterid>
								<name>softness</name>
								<valuemin>0</valuemin>
								<valuemax>100</valuemax>
								<value>10</value>
							</parameter>
							<parameter>
								<parameterid>opacity</parameterid>
								<name>opacity</name>
								<valuemin>0</valuemin>
								<valuemax>100</valuemax>
								<value>50</value>
							</parameter>
						</effect>
					</filter>
					<filter>
						<enabled>FALSE</enabled>
						<effect>
							<name>Motion Blur</name>
							<effectid>motionblur</effectid>
							<effectcategory>motion</effectcategory>
							<effecttype>motion</effecttype>
							<mediatype>video</mediatype>
							<parameter>
								<parameterid>duration</parameterid>
								<name>% Blur</name>
								<valuemin>0</valuemin>
								<valuemax>1000</valuemax>
								<value>500</value>
							</parameter>
							<parameter>
								<parameterid>samples</parameterid>
								<name>Samples</name>
								<valuemin>1</valuemin>
								<valuemax>16</valuemax>
								<value>4</value>
							</parameter>
						</effect>
					</filter>
					<filter>
						<effect>
							<name>Crop</name>
							<effectid>crop</effectid>
							<effectcategory>motion</effectcategory>
							<effecttype>motion</effecttype>
							<mediatype>video</mediatype>
							<parameter>
								<parameterid>left</parameterid>
								<name>left</name>
								<valuemin>0</valuemin>
								<valuemax>100</valuemax>
								<value>0</value>
							</parameter>
							<parameter>
								<parameterid>right</parameterid>
								<name>right</name>
								<valuemin>0</valuemin>
								<valuemax>100</valuemax>
								<value>0</value>
							</parameter>
							<parameter>
								<parameterid>top</parameterid>
								<name>top</name>
								<valuemin>0</valuemin>
								<valuemax>100</valuemax>
								<value>0</value>
							</parameter>
							<parameter>
								<parameterid>bottom</parameterid>
								<name>bottom</name>
								<valuemin>0</valuemin>
								<valuemax>100</valuemax>
								<value>0</value>
							</parameter>
							<parameter>
								<parameterid>edgefeather</parameterid>
								<name>edgefeather</name>
								<valuemin>0</valuemin>
								<valuemax>100</valuemax>
								<value>0</value>
							</parameter>
						</effect>
					</filter>
					<filter>
						<effect>
							<name>Distort</name>
							<effectid>deformation</effectid>
							<effectcategory>motion</effectcategory>
							<effecttype>motion</effecttype>
							<mediatype>video</mediatype>
							<parameter>
								<parameterid>ulcorner</parameterid>
								<name>Upper Left</name>
								<value>
									<horiz>-0.5</horiz>
									<vert>-0.5</vert>
								</value>
							</parameter>
							<parameter>
								<parameterid>urcorner</parameterid>
								<name>Upper Right</name>
								<value>
									<horiz>0.5</horiz>
									<vert>-0.5</vert>
								</value>
							</parameter>
							<parameter>
								<parameterid>lrcorner</parameterid>
								<name>Lower Right</name>
								<value>
									<horiz>0.5</horiz>
									<vert>0.5</vert>
								</value>
							</parameter>
							<parameter>
								<parameterid>llcorner</parameterid>
								<name>Lower Left</name>
								<value>
									<horiz>-0.5</horiz>
									<vert>0.5</vert>
								</value>
							</parameter>
							<parameter>
								<parameterid>aspect</parameterid>
								<name>Aspect</name>
								<valuemin>-10000</valuemin>
								<valuemax>10000</valuemax>
								<value>0</value>
							</parameter>
						</effect>
					</filter>
					<filter>
						<effect>
							<name>Opacity</name>
							<effectid>opacity</effectid>
							<effectcategory>motion</effectcategory>
							<effecttype>motion</effecttype>
							<mediatype>video</mediatype>
							<parameter>
								<parameterid>opacity</parameterid>
								<name>opacity</name>
								<valuemin>0</valuemin>
								<valuemax>100</valuemax>
								<value>100</value>
							</parameter>
						</effect>
					</filter>
					<sourcetrack>
						<mediatype>video</mediatype>
					</sourcetrack>
					<fielddominance>none</fielddominance>
				</clipitem>
				<clipitem id="victoria.png">
					<name>victoria.png</name>
					<duration>3026</duration>
					<rate>
						<ntsc>FALSE</ntsc>
						<timebase>25</timebase>
					</rate>
					<in>1500</in>
					<out>1573</out>
					<start>36371</start>
					<end>36444</end>
					<pixelaspectratio>Square</pixelaspectratio>
					<stillframe>TRUE</stillframe>
					<enabled>TRUE</enabled>
					<anamorphic>FALSE</anamorphic>
					<alphatype>straight</alphatype>
					<masterclipid>victoria.png1</masterclipid>
					<logginginfo>
						<scene/>
						<shottake/>
						<lognote/>
						<good>FALSE</good>
					</logginginfo>
					<labels>
						<label2/>
					</labels>
					<comments>
						<mastercomment1/>
						<mastercomment2/>
						<mastercomment3/>
						<mastercomment4/>
					</comments>
					<file id="victoria">
						<name>victoria.png</name>
						<pathurl>file://localhost/Volumes/SuperSAN1/Prosjekter/MSUB20000012%20FIN%20FREDAG/FCP-prosjekter/program%201/Supere%20program%201/victoria.png</pathurl>
						<rate>
							<timebase>25</timebase>
						</rate>
						<duration>2</duration>
						<width>1613</width>
						<height>393</height>
						<media>
							<video>
								<duration>2</duration>
								<stillframe>TRUE</stillframe>
								<samplecharacteristics>
									<width>1613</width>
									<height>393</height>
								</samplecharacteristics>
							</video>
						</media>
					</file>
					<filter>
						<effect>
							<name>Basic Motion</name>
							<effectid>basic</effectid>
							<effectcategory>motion</effectcategory>
							<effecttype>motion</effecttype>
							<mediatype>video</mediatype>
							<parameter>
								<parameterid>scale</parameterid>
								<name>Scale</name>
								<valuemin>0</valuemin>
								<valuemax>1000</valuemax>
								<value>100</value>
							</parameter>
							<parameter>
								<parameterid>rotation</parameterid>
								<name>Rotation</name>
								<valuemin>-8640</valuemin>
								<valuemax>8640</valuemax>
								<value>-9</value>
							</parameter>
							<parameter>
								<parameterid>center</parameterid>
								<name>Center</name>
								<value>
									<horiz>-0.186981</horiz>
									<vert>-0.943182</vert>
								</value>
							</parameter>
							<parameter>
								<parameterid>centerOffset</parameterid>
								<name>Anchor Point</name>
								<value>
									<horiz>0</horiz>
									<vert>0</vert>
								</value>
							</parameter>
						</effect>
					</filter>
					<filter>
						<enabled>FALSE</enabled>
						<effect>
							<name>Drop Shadow</name>
							<effectid>dropshadow</effectid>
							<effectcategory>motion</effectcategory>
							<effecttype>motion</effecttype>
							<mediatype>video</mediatype>
							<parameter>
								<parameterid>offset</parameterid>
								<name>offset</name>
								<valuemin>-100</valuemin>
								<valuemax>100</valuemax>
								<value>2</value>
							</parameter>
							<parameter>
								<parameterid>angle</parameterid>
								<name>angle</name>
								<valuemin>-720</valuemin>
								<valuemax>720</valuemax>
								<value>135</value>
							</parameter>
							<parameter>
								<parameterid>color</parameterid>
								<name>color</name>
								<value>
									<alpha>0</alpha>
									<red>0</red>
									<green>0</green>
									<blue>0</blue>
								</value>
							</parameter>
							<parameter>
								<parameterid>softness</parameterid>
								<name>softness</name>
								<valuemin>0</valuemin>
								<valuemax>100</valuemax>
								<value>10</value>
							</parameter>
							<parameter>
								<parameterid>opacity</parameterid>
								<name>opacity</name>
								<valuemin>0</valuemin>
								<valuemax>100</valuemax>
								<value>50</value>
							</parameter>
						</effect>
					</filter>
					<filter>
						<enabled>FALSE</enabled>
						<effect>
							<name>Motion Blur</name>
							<effectid>motionblur</effectid>
							<effectcategory>motion</effectcategory>
							<effecttype>motion</effecttype>
							<mediatype>video</mediatype>
							<parameter>
								<parameterid>duration</parameterid>
								<name>% Blur</name>
								<valuemin>0</valuemin>
								<valuemax>1000</valuemax>
								<value>500</value>
							</parameter>
							<parameter>
								<parameterid>samples</parameterid>
								<name>Samples</name>
								<valuemin>1</valuemin>
								<valuemax>16</valuemax>
								<value>4</value>
							</parameter>
						</effect>
					</filter>
					<filter>
						<effect>
							<name>Crop</name>
							<effectid>crop</effectid>
							<effectcategory>motion</effectcategory>
							<effecttype>motion</effecttype>
							<mediatype>video</mediatype>
							<parameter>
								<parameterid>left</parameterid>
								<name>left</name>
								<valuemin>0</valuemin>
								<valuemax>100</valuemax>
								<value>0</value>
							</parameter>
							<parameter>
								<parameterid>right</parameterid>
								<name>right</name>
								<valuemin>0</valuemin>
								<valuemax>100</valuemax>
								<value>0</value>
							</parameter>
							<parameter>
								<parameterid>top</parameterid>
								<name>top</name>
								<valuemin>0</valuemin>
								<valuemax>100</valuemax>
								<value>0</value>
							</parameter>
							<parameter>
								<parameterid>bottom</parameterid>
								<name>bottom</name>
								<valuemin>0</valuemin>
								<valuemax>100</valuemax>
								<value>0</value>
							</parameter>
							<parameter>
								<parameterid>edgefeather</parameterid>
								<name>edgefeather</name>
								<valuemin>0</valuemin>
								<valuemax>100</valuemax>
								<value>0</value>
							</parameter>
						</effect>
					</filter>
					<filter>
						<effect>
							<name>Distort</name>
							<effectid>deformation</effectid>
							<effectcategory>motion</effectcategory>
							<effecttype>motion</effecttype>
							<mediatype>video</mediatype>
							<parameter>
								<parameterid>ulcorner</parameterid>
								<name>Upper Left</name>
								<value>
									<horiz>-0.5</horiz>
									<vert>-0.5</vert>
								</value>
							</parameter>
							<parameter>
								<parameterid>urcorner</parameterid>
								<name>Upper Right</name>
								<value>
									<horiz>0.5</horiz>
									<vert>-0.5</vert>
								</value>
							</parameter>
							<parameter>
								<parameterid>lrcorner</parameterid>
								<name>Lower Right</name>
								<value>
									<horiz>0.5</horiz>
									<vert>0.5</vert>
								</value>
							</parameter>
							<parameter>
								<parameterid>llcorner</parameterid>
								<name>Lower Left</name>
								<value>
									<horiz>-0.5</horiz>
									<vert>0.5</vert>
								</value>
							</parameter>
							<parameter>
								<parameterid>aspect</parameterid>
								<name>Aspect</name>
								<valuemin>-10000</valuemin>
								<valuemax>10000</valuemax>
								<value>0</value>
							</parameter>
						</effect>
					</filter>
					<filter>
						<effect>
							<name>Opacity</name>
							<effectid>opacity</effectid>
							<effectcategory>motion</effectcategory>
							<effecttype>motion</effecttype>
							<mediatype>video</mediatype>
							<parameter>
								<parameterid>opacity</parameterid>
								<name>opacity</name>
								<valuemin>0</valuemin>
								<valuemax>100</valuemax>
								<value>100</value>
							</parameter>
						</effect>
					</filter>
					<sourcetrack>
						<mediatype>video</mediatype>
					</sourcetrack>
					<fielddominance>none</fielddominance>
				</clipitem>
				<clipitem id="SUPER_stjernen6">
					<name>SUPER_stjernen</name>
					<duration>42</duration>
					<rate>
						<ntsc>FALSE</ntsc>
						<timebase>25</timebase>
					</rate>
					<in>0</in>
					<out>30</out>
					<start>40294</start>
					<end>40324</end>
					<pixelaspectratio>Square</pixelaspectratio>
					<enabled>TRUE</enabled>
					<anamorphic>FALSE</anamorphic>
					<alphatype>straight</alphatype>
					<masterclipid>SUPER_stjernen1</masterclipid>
					<logginginfo>
						<scene/>
						<shottake/>
						<lognote/>
						<good>FALSE</good>
					</logginginfo>
					<labels>
						<label2/>
					</labels>
					<comments>
						<mastercomment1/>
						<mastercomment2/>
						<mastercomment3/>
						<mastercomment4/>
					</comments>
					<file id="SUPER_stjernen2"/>
					<filter>
						<effect>
							<name>Basic Motion</name>
							<effectid>basic</effectid>
							<effectcategory>motion</effectcategory>
							<effecttype>motion</effecttype>
							<mediatype>video</mediatype>
							<parameter>
								<parameterid>scale</parameterid>
								<name>Scale</name>
								<valuemin>0</valuemin>
								<valuemax>1000</valuemax>
								<value>180</value>
							</parameter>
							<parameter>
								<parameterid>rotation</parameterid>
								<name>Rotation</name>
								<valuemin>-8640</valuemin>
								<valuemax>8640</valuemax>
								<value>0</value>
							</parameter>
							<parameter>
								<parameterid>center</parameterid>
								<name>Center</name>
								<value>
									<horiz>-0.530726</horiz>
									<vert>-0.473881</vert>
								</value>
							</parameter>
							<parameter>
								<parameterid>centerOffset</parameterid>
								<name>Anchor Point</name>
								<value>
									<horiz>0</horiz>
									<vert>0</vert>
								</value>
							</parameter>
						</effect>
					</filter>
					<filter>
						<enabled>FALSE</enabled>
						<effect>
							<name>Drop Shadow</name>
							<effectid>dropshadow</effectid>
							<effectcategory>motion</effectcategory>
							<effecttype>motion</effecttype>
							<mediatype>video</mediatype>
							<parameter>
								<parameterid>offset</parameterid>
								<name>offset</name>
								<valuemin>-100</valuemin>
								<valuemax>100</valuemax>
								<value>2</value>
							</parameter>
							<parameter>
								<parameterid>angle</parameterid>
								<name>angle</name>
								<valuemin>-720</valuemin>
								<valuemax>720</valuemax>
								<value>135</value>
							</parameter>
							<parameter>
								<parameterid>color</parameterid>
								<name>color</name>
								<value>
									<alpha>0</alpha>
									<red>0</red>
									<green>0</green>
									<blue>0</blue>
								</value>
							</parameter>
							<parameter>
								<parameterid>softness</parameterid>
								<name>softness</name>
								<valuemin>0</valuemin>
								<valuemax>100</valuemax>
								<value>10</value>
							</parameter>
							<parameter>
								<parameterid>opacity</parameterid>
								<name>opacity</name>
								<valuemin>0</valuemin>
								<valuemax>100</valuemax>
								<value>50</value>
							</parameter>
						</effect>
					</filter>
					<filter>
						<enabled>FALSE</enabled>
						<effect>
							<name>Motion Blur</name>
							<effectid>motionblur</effectid>
							<effectcategory>motion</effectcategory>
							<effecttype>motion</effecttype>
							<mediatype>video</mediatype>
							<parameter>
								<parameterid>duration</parameterid>
								<name>% Blur</name>
								<valuemin>0</valuemin>
								<valuemax>1000</valuemax>
								<value>500</value>
							</parameter>
							<parameter>
								<parameterid>samples</parameterid>
								<name>Samples</name>
								<valuemin>1</valuemin>
								<valuemax>16</valuemax>
								<value>4</value>
							</parameter>
						</effect>
					</filter>
					<filter>
						<effect>
							<name>Crop</name>
							<effectid>crop</effectid>
							<effectcategory>motion</effectcategory>
							<effecttype>motion</effecttype>
							<mediatype>video</mediatype>
							<parameter>
								<parameterid>left</parameterid>
								<name>left</name>
								<valuemin>0</valuemin>
								<valuemax>100</valuemax>
								<value>0</value>
							</parameter>
							<parameter>
								<parameterid>right</parameterid>
								<name>right</name>
								<valuemin>0</valuemin>
								<valuemax>100</valuemax>
								<value>0</value>
							</parameter>
							<parameter>
								<parameterid>top</parameterid>
								<name>top</name>
								<valuemin>0</valuemin>
								<valuemax>100</valuemax>
								<value>0</value>
							</parameter>
							<parameter>
								<parameterid>bottom</parameterid>
								<name>bottom</name>
								<valuemin>0</valuemin>
								<valuemax>100</valuemax>
								<value>0</value>
							</parameter>
							<parameter>
								<parameterid>edgefeather</parameterid>
								<name>edgefeather</name>
								<valuemin>0</valuemin>
								<valuemax>100</valuemax>
								<value>0</value>
							</parameter>
						</effect>
					</filter>
					<filter>
						<effect>
							<name>Distort</name>
							<effectid>deformation</effectid>
							<effectcategory>motion</effectcategory>
							<effecttype>motion</effecttype>
							<mediatype>video</mediatype>
							<parameter>
								<parameterid>ulcorner</parameterid>
								<name>Upper Left</name>
								<value>
									<horiz>-0.5</horiz>
									<vert>-0.5</vert>
								</value>
							</parameter>
							<parameter>
								<parameterid>urcorner</parameterid>
								<name>Upper Right</name>
								<value>
									<horiz>0.5</horiz>
									<vert>-0.5</vert>
								</value>
							</parameter>
							<parameter>
								<parameterid>lrcorner</parameterid>
								<name>Lower Right</name>
								<value>
									<horiz>0.5</horiz>
									<vert>0.5</vert>
								</value>
							</parameter>
							<parameter>
								<parameterid>llcorner</parameterid>
								<name>Lower Left</name>
								<value>
									<horiz>-0.5</horiz>
									<vert>0.5</vert>
								</value>
							</parameter>
							<parameter>
								<parameterid>aspect</parameterid>
								<name>Aspect</name>
								<valuemin>-10000</valuemin>
								<valuemax>10000</valuemax>
								<value>0</value>
							</parameter>
						</effect>
					</filter>
					<filter>
						<effect>
							<name>Opacity</name>
							<effectid>opacity</effectid>
							<effectcategory>motion</effectcategory>
							<effecttype>motion</effecttype>
							<mediatype>video</mediatype>
							<parameter>
								<parameterid>opacity</parameterid>
								<name>opacity</name>
								<valuemin>0</valuemin>
								<valuemax>100</valuemax>
								<value>100</value>
							</parameter>
						</effect>
					</filter>
					<sourcetrack>
						<mediatype>video</mediatype>
					</sourcetrack>
					<fielddominance>none</fielddominance>
				</clipitem>
				<generatoritem id="NRK Text">
					<name>NRK Text</name>
					<duration>3000</duration>
					<rate>
						<ntsc>FALSE</ntsc>
						<timebase>25</timebase>
					</rate>
					<in>1438</in>
					<out>1476</out>
					<start>40967</start>
					<end>41005</end>
					<enabled>TRUE</enabled>
					<anamorphic>FALSE</anamorphic>
					<alphatype>black</alphatype>
					<effect>
						<name>NRK Text</name>
						<effectid>NRK Text</effectid>
						<effectcategory>Text</effectcategory>
						<effecttype>generator</effecttype>
						<mediatype>video</mediatype>
						<parameter>
							<parameterid>part1</parameterid>
							<name>Text Settings</name>
							<value/>
						</parameter>
						<parameter>
							<parameterid>str</parameterid>
							<name>Text</name>
							<value>Følg med nå!&#13; </value>
						</parameter>
						<parameter>
							<parameterid>font</parameterid>
							<name>Font</name>
							<value>Changing</value>
						</parameter>
						<parameter>
							<parameterid>style</parameterid>
							<name>Style</name>
							<valuemin>1</valuemin>
							<valuemax>4</valuemax>
							<valuelist>
								<valueentry>
									<name>Plain</name>
									<value>1</value>
								</valueentry>
								<valueentry>
									<name>Bold</name>
									<value>2</value>
								</valueentry>
								<valueentry>
									<name>Italic</name>
									<value>3</value>
								</valueentry>
								<valueentry>
									<name>Bold/Italic</name>
									<value>4</value>
								</valueentry>
							</valuelist>
							<value>1</value>
						</parameter>
						<parameter>
							<parameterid>align</parameterid>
							<name>Alignment</name>
							<valuemin>1</valuemin>
							<valuemax>3</valuemax>
							<valuelist>
								<valueentry>
									<name>Left</name>
									<value>1</value>
								</valueentry>
								<valueentry>
									<name>Center</name>
									<value>2</value>
								</valueentry>
								<valueentry>
									<name>Right</name>
									<value>3</value>
								</valueentry>
							</valuelist>
							<value>2</value>
						</parameter>
						<parameter>
							<parameterid>size</parameterid>
							<name>Size</name>
							<valuemin>0</valuemin>
							<valuemax>200</valuemax>
							<value>64</value>
						</parameter>
						<parameter>
							<parameterid>track</parameterid>
							<name>Tracking</name>
							<valuemin>0</valuemin>
							<valuemax>100</valuemax>
							<value>1</value>
						</parameter>
						<parameter>
							<parameterid>lead</parameterid>
							<name>Leading</name>
							<valuemin>-100</valuemin>
							<valuemax>100</valuemax>
							<value>0</value>
						</parameter>
						<parameter>
							<parameterid>aspect</parameterid>
							<name>Aspect</name>
							<valuemin>0</valuemin>
							<valuemax>4</valuemax>
							<value>1</value>
						</parameter>
						<parameter>
							<parameterid>linewidth</parameterid>
							<name>Line Width</name>
							<valuemin>0</valuemin>
							<valuemax>200</valuemax>
							<value>0</value>
						</parameter>
						<parameter>
							<parameterid>linesoft</parameterid>
							<name>Line Softness</name>
							<valuemin>0</valuemin>
							<valuemax>100</valuemax>
							<value>4</value>
						</parameter>
						<parameter>
							<parameterid>textopacity</parameterid>
							<name>Text Opacity</name>
							<valuemin>0</valuemin>
							<valuemax>100</valuemax>
							<value>100</value>
						</parameter>
						<parameter>
							<parameterid>center</parameterid>
							<name>Center</name>
							<value>
								<horiz>0</horiz>
								<vert>0</vert>
							</value>
						</parameter>
						<parameter>
							<parameterid>textcolor</parameterid>
							<name>Text Color</name>
							<value>
								<alpha>255</alpha>
								<red>255</red>
								<green>255</green>
								<blue>255</blue>
							</value>
						</parameter>
						<parameter>
							<parameterid>supertext</parameterid>
							<name>Text Graphic</name>
						</parameter>
						<parameter>
							<parameterid>linecolor</parameterid>
							<name>Line Color</name>
							<value>
								<alpha>255</alpha>
								<red>0</red>
								<green>0</green>
								<blue>0</blue>
							</value>
						</parameter>
						<parameter>
							<parameterid>part2</parameterid>
							<name>Background Settings</name>
							<value/>
						</parameter>
						<parameter>
							<parameterid>xscale</parameterid>
							<name>Horizontal Size</name>
							<valuemin>0</valuemin>
							<valuemax>200</valuemax>
							<value>0</value>
						</parameter>
						<parameter>
							<parameterid>yscale</parameterid>
							<name>Vertical Size</name>
							<valuemin>0</valuemin>
							<valuemax>200</valuemax>
							<value>0</value>
						</parameter>
						<parameter>
							<parameterid>xoffset</parameterid>
							<name>Horizontal Offset</name>
							<valuemin>-100</valuemin>
							<valuemax>100</valuemax>
							<value>0</value>
						</parameter>
						<parameter>
							<parameterid>yoffset</parameterid>
							<name>Vertical Offset</name>
							<valuemin>-100</valuemin>
							<valuemax>100</valuemax>
							<value>0</value>
						</parameter>
						<parameter>
							<parameterid>backsoft</parameterid>
							<name>Back Soft</name>
							<valuemin>0</valuemin>
							<valuemax>100</valuemax>
							<value>0</value>
						</parameter>
						<parameter>
							<parameterid>backopacity</parameterid>
							<name>Back Opacity</name>
							<valuemin>0</valuemin>
							<valuemax>100</valuemax>
							<value>50</value>
						</parameter>
						<parameter>
							<parameterid>backcolor</parameterid>
							<name>Back Color</name>
							<value>
								<alpha>255</alpha>
								<red>255</red>
								<green>255</green>
								<blue>255</blue>
							</value>
						</parameter>
						<parameter>
							<parameterid>crop</parameterid>
							<name>Crop</name>
							<value>FALSE</value>
						</parameter>
						<parameter>
							<parameterid>autokern</parameterid>
							<name>Auto Kerning</name>
							<value>TRUE</value>
						</parameter>
					</effect>
					<filter>
						<effect>
							<name>Basic Motion</name>
							<effectid>basic</effectid>
							<effectcategory>motion</effectcategory>
							<effecttype>motion</effecttype>
							<mediatype>video</mediatype>
							<parameter>
								<parameterid>scale</parameterid>
								<name>Scale</name>
								<valuemin>0</valuemin>
								<valuemax>1000</valuemax>
								<value>100</value>
							</parameter>
							<parameter>
								<parameterid>rotation</parameterid>
								<name>Rotation</name>
								<valuemin>-8640</valuemin>
								<valuemax>8640</valuemax>
								<value>0</value>
							</parameter>
							<parameter>
								<parameterid>center</parameterid>
								<name>Center</name>
								<value>
									<horiz>0</horiz>
									<vert>0.0925926</vert>
								</value>
							</parameter>
							<parameter>
								<parameterid>centerOffset</parameterid>
								<name>Anchor Point</name>
								<value>
									<horiz>0</horiz>
									<vert>0</vert>
								</value>
							</parameter>
						</effect>
					</filter>
					<filter>
						<enabled>TRUE</enabled>
						<effect>
							<name>Drop Shadow</name>
							<effectid>dropshadow</effectid>
							<effectcategory>motion</effectcategory>
							<effecttype>motion</effecttype>
							<mediatype>video</mediatype>
							<parameter>
								<parameterid>offset</parameterid>
								<name>offset</name>
								<valuemin>-100</valuemin>
								<valuemax>100</valuemax>
								<value>2</value>
							</parameter>
							<parameter>
								<parameterid>angle</parameterid>
								<name>angle</name>
								<valuemin>-720</valuemin>
								<valuemax>720</valuemax>
								<value>135</value>
							</parameter>
							<parameter>
								<parameterid>color</parameterid>
								<name>color</name>
								<value>
									<alpha>0</alpha>
									<red>0</red>
									<green>0</green>
									<blue>0</blue>
								</value>
							</parameter>
							<parameter>
								<parameterid>softness</parameterid>
								<name>softness</name>
								<valuemin>0</valuemin>
								<valuemax>100</valuemax>
								<value>10</value>
							</parameter>
							<parameter>
								<parameterid>opacity</parameterid>
								<name>opacity</name>
								<valuemin>0</valuemin>
								<valuemax>100</valuemax>
								<value>100</value>
							</parameter>
						</effect>
					</filter>
					<filter>
						<enabled>FALSE</enabled>
						<effect>
							<name>Motion Blur</name>
							<effectid>motionblur</effectid>
							<effectcategory>motion</effectcategory>
							<effecttype>motion</effecttype>
							<mediatype>video</mediatype>
							<parameter>
								<parameterid>duration</parameterid>
								<name>% Blur</name>
								<valuemin>0</valuemin>
								<valuemax>1000</valuemax>
								<value>500</value>
							</parameter>
							<parameter>
								<parameterid>samples</parameterid>
								<name>Samples</name>
								<valuemin>1</valuemin>
								<valuemax>16</valuemax>
								<value>4</value>
							</parameter>
						</effect>
					</filter>
					<filter>
						<effect>
							<name>Crop</name>
							<effectid>crop</effectid>
							<effectcategory>motion</effectcategory>
							<effecttype>motion</effecttype>
							<mediatype>video</mediatype>
							<parameter>
								<parameterid>left</parameterid>
								<name>left</name>
								<valuemin>0</valuemin>
								<valuemax>100</valuemax>
								<value>0</value>
							</parameter>
							<parameter>
								<parameterid>right</parameterid>
								<name>right</name>
								<valuemin>0</valuemin>
								<valuemax>100</valuemax>
								<value>0</value>
							</parameter>
							<parameter>
								<parameterid>top</parameterid>
								<name>top</name>
								<valuemin>0</valuemin>
								<valuemax>100</valuemax>
								<value>0</value>
							</parameter>
							<parameter>
								<parameterid>bottom</parameterid>
								<name>bottom</name>
								<valuemin>0</valuemin>
								<valuemax>100</valuemax>
								<value>0</value>
							</parameter>
							<parameter>
								<parameterid>edgefeather</parameterid>
								<name>edgefeather</name>
								<valuemin>0</valuemin>
								<valuemax>100</valuemax>
								<value>0</value>
							</parameter>
						</effect>
					</filter>
					<filter>
						<effect>
							<name>Distort</name>
							<effectid>deformation</effectid>
							<effectcategory>motion</effectcategory>
							<effecttype>motion</effecttype>
							<mediatype>video</mediatype>
							<parameter>
								<parameterid>ulcorner</parameterid>
								<name>Upper Left</name>
								<value>
									<horiz>-0.5</horiz>
									<vert>-0.5</vert>
								</value>
							</parameter>
							<parameter>
								<parameterid>urcorner</parameterid>
								<name>Upper Right</name>
								<value>
									<horiz>0.5</horiz>
									<vert>-0.5</vert>
								</value>
							</parameter>
							<parameter>
								<parameterid>lrcorner</parameterid>
								<name>Lower Right</name>
								<value>
									<horiz>0.5</horiz>
									<vert>0.5</vert>
								</value>
							</parameter>
							<parameter>
								<parameterid>llcorner</parameterid>
								<name>Lower Left</name>
								<value>
									<horiz>-0.5</horiz>
									<vert>0.5</vert>
								</value>
							</parameter>
							<parameter>
								<parameterid>aspect</parameterid>
								<name>Aspect</name>
								<valuemin>-10000</valuemin>
								<valuemax>10000</valuemax>
								<value>0</value>
							</parameter>
						</effect>
					</filter>
					<filter>
						<effect>
							<name>Opacity</name>
							<effectid>opacity</effectid>
							<effectcategory>motion</effectcategory>
							<effecttype>motion</effecttype>
							<mediatype>video</mediatype>
							<parameter>
								<parameterid>opacity</parameterid>
								<name>opacity</name>
								<valuemin>0</valuemin>
								<valuemax>100</valuemax>
								<value>100</value>
							</parameter>
						</effect>
					</filter>
					<sourcetrack>
						<mediatype>video</mediatype>
					</sourcetrack>
				</generatoritem>
				<enabled>TRUE</enabled>
				<locked>FALSE</locked>
			</track>
			<track>
				<clipitem id="STJERNE_wipe1">
					<name>STJERNE_wipe</name>
					<duration>55</duration>
					<rate>
						<ntsc>FALSE</ntsc>
						<timebase>25</timebase>
					</rate>
					<in>0</in>
					<out>55</out>
					<start>985</start>
					<end>1040</end>
					<pixelaspectratio>Square</pixelaspectratio>
					<enabled>TRUE</enabled>
					<anamorphic>FALSE</anamorphic>
					<alphatype>straight</alphatype>
					<masterclipid>STJERNE_wipe2</masterclipid>
					<logginginfo>
						<scene/>
						<shottake/>
						<lognote/>
						<good>FALSE</good>
					</logginginfo>
					<labels>
						<label2/>
					</labels>
					<comments>
						<mastercomment1/>
						<mastercomment2/>
						<mastercomment3/>
						<mastercomment4/>
					</comments>
					<file id="STJERNE_wipe"/>
					<sourcetrack>
						<mediatype>video</mediatype>
					</sourcetrack>
					<fielddominance>upper</fielddominance>
					<filter>
						<effect>
							<name>Time Remap</name>
							<effectid>timeremap</effectid>
							<effectcategory>motion</effectcategory>
							<effecttype>motion</effecttype>
							<mediatype>video</mediatype>
							<parameter>
								<parameterid>variablespeed</parameterid>
								<name>variablespeed</name>
								<valuemin>0</valuemin>
								<valuemax>1</valuemax>
								<value>0</value>
							</parameter>
							<parameter>
								<parameterid>mappedduration</parameterid>
								<name>mappedduration</name>
								<value>
									<timecode>
										<rate>
											<timebase>0</timebase>
										</rate>
										<string>0</string>
										<frame>0</frame>
										<displayformat>NDF</displayformat>
									</timecode>
								</value>
							</parameter>
							<parameter>
								<parameterid>speed</parameterid>
								<name>speed</name>
								<valuemin>-10000</valuemin>
								<valuemax>10000</valuemax>
								<value>100</value>
							</parameter>
							<parameter>
								<parameterid>reverse</parameterid>
								<name>reverse</name>
								<value>TRUE</value>
							</parameter>
							<parameter>
								<parameterid>frameblending</parameterid>
								<name>frameblending</name>
								<value>TRUE</value>
							</parameter>
							<parameter>
								<parameterid>graphdict</parameterid>
								<name>graphdict</name>
								<valuemin>0</valuemin>
								<valuemax>54</valuemax>
								<keyframe>
									<when>0</when>
									<value>56</value>
									<speedkfin>TRUE</speedkfin>
								</keyframe>
								<keyframe>
									<when>55</when>
									<value>1</value>
									<speedkfout>TRUE</speedkfout>
									<speedvirtualkf>TRUE</speedvirtualkf>
								</keyframe>
								<interpolation>
									<name>FCPCurve</name>
								</interpolation>
								<value>54</value>
							</parameter>
						</effect>
					</filter>
				</clipitem>
				<clipitem id="Kristine-test-1809-2222.png">
					<name>Kristine-test-1809-2222.png</name>
					<duration>3026</duration>
					<rate>
						<ntsc>FALSE</ntsc>
						<timebase>25</timebase>
					</rate>
					<in>1500</in>
					<out>1575</out>
					<start>1079</start>
					<end>1154</end>
					<pixelaspectratio>Square</pixelaspectratio>
					<stillframe>TRUE</stillframe>
					<enabled>TRUE</enabled>
					<anamorphic>FALSE</anamorphic>
					<alphatype>straight</alphatype>
					<masterclipid>Kristine-test-1809-2222.png1</masterclipid>
					<logginginfo>
						<scene/>
						<shottake/>
						<lognote/>
						<good>FALSE</good>
					</logginginfo>
					<labels>
						<label2/>
					</labels>
					<comments>
						<mastercomment1/>
						<mastercomment2/>
						<mastercomment3/>
						<mastercomment4/>
					</comments>
					<file id="Kristine-test-1809-2222 ">
						<name>Kristine-test-1809-2222.png</name>
						<pathurl>file://localhost/Users/n20056/Desktop/Grafikk-super/Kristine-test-1809-2222.png</pathurl>
						<rate>
							<timebase>25</timebase>
						</rate>
						<duration>2</duration>
						<width>776</width>
						<height>393</height>
						<media>
							<video>
								<duration>2</duration>
								<stillframe>TRUE</stillframe>
								<samplecharacteristics>
									<width>776</width>
									<height>393</height>
								</samplecharacteristics>
							</video>
						</media>
					</file>
					<filter>
						<effect>
							<name>Basic Motion</name>
							<effectid>basic</effectid>
							<effectcategory>motion</effectcategory>
							<effecttype>motion</effecttype>
							<mediatype>video</mediatype>
							<parameter>
								<parameterid>scale</parameterid>
								<name>Scale</name>
								<valuemin>0</valuemin>
								<valuemax>1000</valuemax>
								<value>100</value>
							</parameter>
							<parameter>
								<parameterid>rotation</parameterid>
								<name>Rotation</name>
								<valuemin>-8640</valuemin>
								<valuemax>8640</valuemax>
								<value>-9</value>
							</parameter>
							<parameter>
								<parameterid>center</parameterid>
								<name>Center</name>
								<value>
									<horiz>-0.599424</horiz>
									<vert>-0.545455</vert>
								</value>
							</parameter>
							<parameter>
								<parameterid>centerOffset</parameterid>
								<name>Anchor Point</name>
								<value>
									<horiz>0</horiz>
									<vert>0</vert>
								</value>
							</parameter>
						</effect>
					</filter>
					<filter>
						<enabled>FALSE</enabled>
						<effect>
							<name>Drop Shadow</name>
							<effectid>dropshadow</effectid>
							<effectcategory>motion</effectcategory>
							<effecttype>motion</effecttype>
							<mediatype>video</mediatype>
							<parameter>
								<parameterid>offset</parameterid>
								<name>offset</name>
								<valuemin>-100</valuemin>
								<valuemax>100</valuemax>
								<value>2</value>
							</parameter>
							<parameter>
								<parameterid>angle</parameterid>
								<name>angle</name>
								<valuemin>-720</valuemin>
								<valuemax>720</valuemax>
								<value>135</value>
							</parameter>
							<parameter>
								<parameterid>color</parameterid>
								<name>color</name>
								<value>
									<alpha>0</alpha>
									<red>0</red>
									<green>0</green>
									<blue>0</blue>
								</value>
							</parameter>
							<parameter>
								<parameterid>softness</parameterid>
								<name>softness</name>
								<valuemin>0</valuemin>
								<valuemax>100</valuemax>
								<value>10</value>
							</parameter>
							<parameter>
								<parameterid>opacity</parameterid>
								<name>opacity</name>
								<valuemin>0</valuemin>
								<valuemax>100</valuemax>
								<value>50</value>
							</parameter>
						</effect>
					</filter>
					<filter>
						<enabled>FALSE</enabled>
						<effect>
							<name>Motion Blur</name>
							<effectid>motionblur</effectid>
							<effectcategory>motion</effectcategory>
							<effecttype>motion</effecttype>
							<mediatype>video</mediatype>
							<parameter>
								<parameterid>duration</parameterid>
								<name>% Blur</name>
								<valuemin>0</valuemin>
								<valuemax>1000</valuemax>
								<value>500</value>
							</parameter>
							<parameter>
								<parameterid>samples</parameterid>
								<name>Samples</name>
								<valuemin>1</valuemin>
								<valuemax>16</valuemax>
								<value>4</value>
							</parameter>
						</effect>
					</filter>
					<filter>
						<effect>
							<name>Crop</name>
							<effectid>crop</effectid>
							<effectcategory>motion</effectcategory>
							<effecttype>motion</effecttype>
							<mediatype>video</mediatype>
							<parameter>
								<parameterid>left</parameterid>
								<name>left</name>
								<valuemin>0</valuemin>
								<valuemax>100</valuemax>
								<value>0</value>
							</parameter>
							<parameter>
								<parameterid>right</parameterid>
								<name>right</name>
								<valuemin>0</valuemin>
								<valuemax>100</valuemax>
								<value>0</value>
							</parameter>
							<parameter>
								<parameterid>top</parameterid>
								<name>top</name>
								<valuemin>0</valuemin>
								<valuemax>100</valuemax>
								<value>0</value>
							</parameter>
							<parameter>
								<parameterid>bottom</parameterid>
								<name>bottom</name>
								<valuemin>0</valuemin>
								<valuemax>100</valuemax>
								<value>0</value>
							</parameter>
							<parameter>
								<parameterid>edgefeather</parameterid>
								<name>edgefeather</name>
								<valuemin>0</valuemin>
								<valuemax>100</valuemax>
								<value>0</value>
							</parameter>
						</effect>
					</filter>
					<filter>
						<effect>
							<name>Distort</name>
							<effectid>deformation</effectid>
							<effectcategory>motion</effectcategory>
							<effecttype>motion</effecttype>
							<mediatype>video</mediatype>
							<parameter>
								<parameterid>ulcorner</parameterid>
								<name>Upper Left</name>
								<value>
									<horiz>-0.5</horiz>
									<vert>-0.5</vert>
								</value>
							</parameter>
							<parameter>
								<parameterid>urcorner</parameterid>
								<name>Upper Right</name>
								<value>
									<horiz>0.5</horiz>
									<vert>-0.5</vert>
								</value>
							</parameter>
							<parameter>
								<parameterid>lrcorner</parameterid>
								<name>Lower Right</name>
								<value>
									<horiz>0.5</horiz>
									<vert>0.5</vert>
								</value>
							</parameter>
							<parameter>
								<parameterid>llcorner</parameterid>
								<name>Lower Left</name>
								<value>
									<horiz>-0.5</horiz>
									<vert>0.5</vert>
								</value>
							</parameter>
							<parameter>
								<parameterid>aspect</parameterid>
								<name>Aspect</name>
								<valuemin>-10000</valuemin>
								<valuemax>10000</valuemax>
								<value>0</value>
							</parameter>
						</effect>
					</filter>
					<filter>
						<effect>
							<name>Opacity</name>
							<effectid>opacity</effectid>
							<effectcategory>motion</effectcategory>
							<effecttype>motion</effecttype>
							<mediatype>video</mediatype>
							<parameter>
								<parameterid>opacity</parameterid>
								<name>opacity</name>
								<valuemin>0</valuemin>
								<valuemax>100</valuemax>
								<value>100</value>
							</parameter>
						</effect>
					</filter>
					<sourcetrack>
						<mediatype>video</mediatype>
					</sourcetrack>
					<fielddominance>none</fielddominance>
				</clipitem>
				<clipitem id="Tooji-test-1809.png">
					<name>Tooji-test-1809.png</name>
					<duration>3026</duration>
					<rate>
						<ntsc>FALSE</ntsc>
						<timebase>25</timebase>
					</rate>
					<in>1500</in>
					<out>1573</out>
					<start>1842</start>
					<end>1915</end>
					<pixelaspectratio>Square</pixelaspectratio>
					<stillframe>TRUE</stillframe>
					<enabled>TRUE</enabled>
					<anamorphic>FALSE</anamorphic>
					<alphatype>straight</alphatype>
					<masterclipid>Tooji-test-1809.png1</masterclipid>
					<logginginfo>
						<scene/>
						<shottake/>
						<lognote/>
						<good>FALSE</good>
					</logginginfo>
					<labels>
						<label2/>
					</labels>
					<comments>
						<mastercomment1/>
						<mastercomment2/>
						<mastercomment3/>
						<mastercomment4/>
					</comments>
					<file id="Tooji-test-1809 ">
						<name>Tooji-test-1809.png</name>
						<pathurl>file://localhost/Users/n20056/Desktop/Grafikk-super/Tooji-test-1809.png</pathurl>
						<rate>
							<timebase>25</timebase>
						</rate>
						<duration>2</duration>
						<width>776</width>
						<height>393</height>
						<media>
							<video>
								<duration>2</duration>
								<stillframe>TRUE</stillframe>
								<samplecharacteristics>
									<width>776</width>
									<height>393</height>
								</samplecharacteristics>
							</video>
						</media>
					</file>
					<filter>
						<effect>
							<name>Basic Motion</name>
							<effectid>basic</effectid>
							<effectcategory>motion</effectcategory>
							<effecttype>motion</effecttype>
							<mediatype>video</mediatype>
							<parameter>
								<parameterid>scale</parameterid>
								<name>Scale</name>
								<valuemin>0</valuemin>
								<valuemax>1000</valuemax>
								<value>100</value>
							</parameter>
							<parameter>
								<parameterid>rotation</parameterid>
								<name>Rotation</name>
								<valuemin>-8640</valuemin>
								<valuemax>8640</valuemax>
								<value>-9</value>
							</parameter>
							<parameter>
								<parameterid>center</parameterid>
								<name>Center</name>
								<value>
									<horiz>-0.610951</horiz>
									<vert>0.323864</vert>
								</value>
							</parameter>
							<parameter>
								<parameterid>centerOffset</parameterid>
								<name>Anchor Point</name>
								<value>
									<horiz>0</horiz>
									<vert>0</vert>
								</value>
							</parameter>
						</effect>
					</filter>
					<filter>
						<enabled>FALSE</enabled>
						<effect>
							<name>Drop Shadow</name>
							<effectid>dropshadow</effectid>
							<effectcategory>motion</effectcategory>
							<effecttype>motion</effecttype>
							<mediatype>video</mediatype>
							<parameter>
								<parameterid>offset</parameterid>
								<name>offset</name>
								<valuemin>-100</valuemin>
								<valuemax>100</valuemax>
								<value>2</value>
							</parameter>
							<parameter>
								<parameterid>angle</parameterid>
								<name>angle</name>
								<valuemin>-720</valuemin>
								<valuemax>720</valuemax>
								<value>135</value>
							</parameter>
							<parameter>
								<parameterid>color</parameterid>
								<name>color</name>
								<value>
									<alpha>0</alpha>
									<red>0</red>
									<green>0</green>
									<blue>0</blue>
								</value>
							</parameter>
							<parameter>
								<parameterid>softness</parameterid>
								<name>softness</name>
								<valuemin>0</valuemin>
								<valuemax>100</valuemax>
								<value>10</value>
							</parameter>
							<parameter>
								<parameterid>opacity</parameterid>
								<name>opacity</name>
								<valuemin>0</valuemin>
								<valuemax>100</valuemax>
								<value>50</value>
							</parameter>
						</effect>
					</filter>
					<filter>
						<enabled>FALSE</enabled>
						<effect>
							<name>Motion Blur</name>
							<effectid>motionblur</effectid>
							<effectcategory>motion</effectcategory>
							<effecttype>motion</effecttype>
							<mediatype>video</mediatype>
							<parameter>
								<parameterid>duration</parameterid>
								<name>% Blur</name>
								<valuemin>0</valuemin>
								<valuemax>1000</valuemax>
								<value>500</value>
							</parameter>
							<parameter>
								<parameterid>samples</parameterid>
								<name>Samples</name>
								<valuemin>1</valuemin>
								<valuemax>16</valuemax>
								<value>4</value>
							</parameter>
						</effect>
					</filter>
					<filter>
						<effect>
							<name>Crop</name>
							<effectid>crop</effectid>
							<effectcategory>motion</effectcategory>
							<effecttype>motion</effecttype>
							<mediatype>video</mediatype>
							<parameter>
								<parameterid>left</parameterid>
								<name>left</name>
								<valuemin>0</valuemin>
								<valuemax>100</valuemax>
								<value>0</value>
							</parameter>
							<parameter>
								<parameterid>right</parameterid>
								<name>right</name>
								<valuemin>0</valuemin>
								<valuemax>100</valuemax>
								<value>0</value>
							</parameter>
							<parameter>
								<parameterid>top</parameterid>
								<name>top</name>
								<valuemin>0</valuemin>
								<valuemax>100</valuemax>
								<value>0</value>
							</parameter>
							<parameter>
								<parameterid>bottom</parameterid>
								<name>bottom</name>
								<valuemin>0</valuemin>
								<valuemax>100</valuemax>
								<value>0</value>
							</parameter>
							<parameter>
								<parameterid>edgefeather</parameterid>
								<name>edgefeather</name>
								<valuemin>0</valuemin>
								<valuemax>100</valuemax>
								<value>0</value>
							</parameter>
						</effect>
					</filter>
					<filter>
						<effect>
							<name>Distort</name>
							<effectid>deformation</effectid>
							<effectcategory>motion</effectcategory>
							<effecttype>motion</effecttype>
							<mediatype>video</mediatype>
							<parameter>
								<parameterid>ulcorner</parameterid>
								<name>Upper Left</name>
								<value>
									<horiz>-0.5</horiz>
									<vert>-0.5</vert>
								</value>
							</parameter>
							<parameter>
								<parameterid>urcorner</parameterid>
								<name>Upper Right</name>
								<value>
									<horiz>0.5</horiz>
									<vert>-0.5</vert>
								</value>
							</parameter>
							<parameter>
								<parameterid>lrcorner</parameterid>
								<name>Lower Right</name>
								<value>
									<horiz>0.5</horiz>
									<vert>0.5</vert>
								</value>
							</parameter>
							<parameter>
								<parameterid>llcorner</parameterid>
								<name>Lower Left</name>
								<value>
									<horiz>-0.5</horiz>
									<vert>0.5</vert>
								</value>
							</parameter>
							<parameter>
								<parameterid>aspect</parameterid>
								<name>Aspect</name>
								<valuemin>-10000</valuemin>
								<valuemax>10000</valuemax>
								<value>0</value>
							</parameter>
						</effect>
					</filter>
					<filter>
						<effect>
							<name>Opacity</name>
							<effectid>opacity</effectid>
							<effectcategory>motion</effectcategory>
							<effecttype>motion</effecttype>
							<mediatype>video</mediatype>
							<parameter>
								<parameterid>opacity</parameterid>
								<name>opacity</name>
								<valuemin>0</valuemin>
								<valuemax>100</valuemax>
								<value>100</value>
							</parameter>
						</effect>
					</filter>
					<sourcetrack>
						<mediatype>video</mediatype>
					</sourcetrack>
					<fielddominance>none</fielddominance>
				</clipitem>
				<clipitem id="Boble Bumper">
					<name>Boble Bumper</name>
					<duration>51</duration>
					<rate>
						<ntsc>FALSE</ntsc>
						<timebase>25</timebase>
					</rate>
					<in>0</in>
					<out>51</out>
					<start>4010</start>
					<end>4061</end>
					<pixelaspectratio>Square</pixelaspectratio>
					<enabled>TRUE</enabled>
					<anamorphic>FALSE</anamorphic>
					<alphatype>straight</alphatype>
					<masterclipid>Boble Bumper1</masterclipid>
					<logginginfo>
						<scene/>
						<shottake/>
						<lognote/>
						<good>FALSE</good>
					</logginginfo>
					<labels>
						<label2/>
					</labels>
					<comments>
						<mastercomment1/>
						<mastercomment2/>
						<mastercomment3/>
						<mastercomment4/>
					</comments>
					<file id="Boble Bumper2">
						<name>Boble Bumper.mov</name>
						<pathurl>file://localhost/Volumes/SuperSAN1/Prosjekter/MSUB20000012%20FIN%20FREDAG/Profil-grafikk/Bumpere/Boble%20Bumper.mov</pathurl>
						<rate>
							<timebase>25</timebase>
						</rate>
						<duration>51</duration>
						<timecode>
							<rate>
								<timebase>25</timebase>
							</rate>
							<string>00:00:00:00</string>
							<frame>0</frame>
							<displayformat>NDF</displayformat>
							<source>source</source>
						</timecode>
						<media>
							<video>
								<duration>51</duration>
								<samplecharacteristics>
									<width>1920</width>
									<height>1080</height>
								</samplecharacteristics>
							</video>
							<audio>
								<rate>
									<timebase>48000</timebase>
								</rate>
								<trackcount>2</trackcount>
								<samplecharacteristics>
									<depth>16</depth>
								</samplecharacteristics>
							</audio>
						</media>
					</file>
					<sourcetrack>
						<mediatype>video</mediatype>
					</sourcetrack>
					<fielddominance>upper</fielddominance>
				</clipitem>
				<generatoritem id="Crawl">
					<name>Crawl</name>
					<duration>3000</duration>
					<rate>
						<ntsc>FALSE</ntsc>
						<timebase>25</timebase>
					</rate>
					<in>1384</in>
					<out>1606</out>
					<start>6615</start>
					<end>6837</end>
					<enabled>TRUE</enabled>
					<anamorphic>FALSE</anamorphic>
					<alphatype>black</alphatype>
					<logginginfo>
						<scene/>
						<shottake/>
						<lognote/>
						<good>FALSE</good>
					</logginginfo>
					<labels>
						<label2/>
					</labels>
					<comments>
						<mastercomment1/>
						<mastercomment2/>
						<mastercomment3/>
						<mastercomment4/>
					</comments>
					<effect>
						<name>Crawl</name>
						<effectid>Crawl</effectid>
						<effectcategory>Text</effectcategory>
						<effecttype>generator</effecttype>
						<mediatype>video</mediatype>
						<parameter>
							<parameterid>s</parameterid>
							<name>Text</name>
							<value>Les mer om eurytmi på &#13;nrksuper.no/finfredag</value>
						</parameter>
						<parameter>
							<parameterid>font</parameterid>
							<name>Font</name>
							<value>Changing</value>
						</parameter>
						<parameter>
							<parameterid>size</parameterid>
							<name>Size</name>
							<valuemin>4</valuemin>
							<valuemax>200</valuemax>
							<value>36</value>
						</parameter>
						<parameter>
							<parameterid>style</parameterid>
							<name>Style</name>
							<valuemin>1</valuemin>
							<valuemax>4</valuemax>
							<valuelist>
								<valueentry>
									<name>Plain</name>
									<value>1</value>
								</valueentry>
								<valueentry>
									<name>Bold</name>
									<value>2</value>
								</valueentry>
								<valueentry>
									<name>Italic</name>
									<value>3</value>
								</valueentry>
								<valueentry>
									<name>Bold/Italic</name>
									<value>4</value>
								</valueentry>
							</valuelist>
							<value>1</value>
						</parameter>
						<parameter>
							<parameterid>col</parameterid>
							<name>Color</name>
							<value>
								<alpha>255</alpha>
								<red>255</red>
								<green>255</green>
								<blue>255</blue>
							</value>
						</parameter>
						<parameter>
							<parameterid>spacing</parameterid>
							<name>Spacing</name>
							<valuemin>-5</valuemin>
							<valuemax>20</valuemax>
							<value>2</value>
						</parameter>
						<parameter>
							<parameterid>v</parameterid>
							<name>Location</name>
							<valuemin>0</valuemin>
							<valuemax>100</valuemax>
							<value>86</value>
						</parameter>
						<parameter>
							<parameterid>direction</parameterid>
							<name>Direction</name>
							<valuemin>1</valuemin>
							<valuemax>2</valuemax>
							<valuelist>
								<valueentry>
									<name>Left</name>
									<value>1</value>
								</valueentry>
								<valueentry>
									<name>Right</name>
									<value>2</value>
								</valueentry>
							</valuelist>
							<value>1</value>
						</parameter>
						<parameter>
							<parameterid>autokern</parameterid>
							<name>Auto Kerning</name>
							<value>TRUE</value>
						</parameter>
					</effect>
					<filter>
						<effect>
							<name>Basic Motion</name>
							<effectid>basic</effectid>
							<effectcategory>motion</effectcategory>
							<effecttype>motion</effecttype>
							<mediatype>video</mediatype>
							<parameter>
								<parameterid>scale</parameterid>
								<name>Scale</name>
								<valuemin>0</valuemin>
								<valuemax>1000</valuemax>
								<value>100</value>
							</parameter>
							<parameter>
								<parameterid>rotation</parameterid>
								<name>Rotation</name>
								<valuemin>-8640</valuemin>
								<valuemax>8640</valuemax>
								<value>0</value>
							</parameter>
							<parameter>
								<parameterid>center</parameterid>
								<name>Center</name>
								<value>
									<horiz>0</horiz>
									<vert>0</vert>
								</value>
							</parameter>
							<parameter>
								<parameterid>centerOffset</parameterid>
								<name>Anchor Point</name>
								<value>
									<horiz>0</horiz>
									<vert>0</vert>
								</value>
							</parameter>
						</effect>
					</filter>
					<filter>
						<enabled>TRUE</enabled>
						<effect>
							<name>Drop Shadow</name>
							<effectid>dropshadow</effectid>
							<effectcategory>motion</effectcategory>
							<effecttype>motion</effecttype>
							<mediatype>video</mediatype>
							<parameter>
								<parameterid>offset</parameterid>
								<name>offset</name>
								<valuemin>-100</valuemin>
								<valuemax>100</valuemax>
								<value>2</value>
							</parameter>
							<parameter>
								<parameterid>angle</parameterid>
								<name>angle</name>
								<valuemin>-720</valuemin>
								<valuemax>720</valuemax>
								<value>135</value>
							</parameter>
							<parameter>
								<parameterid>color</parameterid>
								<name>color</name>
								<value>
									<alpha>0</alpha>
									<red>0</red>
									<green>0</green>
									<blue>0</blue>
								</value>
							</parameter>
							<parameter>
								<parameterid>softness</parameterid>
								<name>softness</name>
								<valuemin>0</valuemin>
								<valuemax>100</valuemax>
								<value>10</value>
							</parameter>
							<parameter>
								<parameterid>opacity</parameterid>
								<name>opacity</name>
								<valuemin>0</valuemin>
								<valuemax>100</valuemax>
								<value>50</value>
							</parameter>
						</effect>
					</filter>
					<filter>
						<enabled>FALSE</enabled>
						<effect>
							<name>Motion Blur</name>
							<effectid>motionblur</effectid>
							<effectcategory>motion</effectcategory>
							<effecttype>motion</effecttype>
							<mediatype>video</mediatype>
							<parameter>
								<parameterid>duration</parameterid>
								<name>% Blur</name>
								<valuemin>0</valuemin>
								<valuemax>1000</valuemax>
								<value>500</value>
							</parameter>
							<parameter>
								<parameterid>samples</parameterid>
								<name>Samples</name>
								<valuemin>1</valuemin>
								<valuemax>16</valuemax>
								<value>4</value>
							</parameter>
						</effect>
					</filter>
					<filter>
						<effect>
							<name>Crop</name>
							<effectid>crop</effectid>
							<effectcategory>motion</effectcategory>
							<effecttype>motion</effecttype>
							<mediatype>video</mediatype>
							<parameter>
								<parameterid>left</parameterid>
								<name>left</name>
								<valuemin>0</valuemin>
								<valuemax>100</valuemax>
								<value>0</value>
							</parameter>
							<parameter>
								<parameterid>right</parameterid>
								<name>right</name>
								<valuemin>0</valuemin>
								<valuemax>100</valuemax>
								<value>0</value>
							</parameter>
							<parameter>
								<parameterid>top</parameterid>
								<name>top</name>
								<valuemin>0</valuemin>
								<valuemax>100</valuemax>
								<value>0</value>
							</parameter>
							<parameter>
								<parameterid>bottom</parameterid>
								<name>bottom</name>
								<valuemin>0</valuemin>
								<valuemax>100</valuemax>
								<value>0</value>
							</parameter>
							<parameter>
								<parameterid>edgefeather</parameterid>
								<name>edgefeather</name>
								<valuemin>0</valuemin>
								<valuemax>100</valuemax>
								<value>0</value>
							</parameter>
						</effect>
					</filter>
					<filter>
						<effect>
							<name>Distort</name>
							<effectid>deformation</effectid>
							<effectcategory>motion</effectcategory>
							<effecttype>motion</effecttype>
							<mediatype>video</mediatype>
							<parameter>
								<parameterid>ulcorner</parameterid>
								<name>Upper Left</name>
								<value>
									<horiz>-0.5</horiz>
									<vert>-0.5</vert>
								</value>
							</parameter>
							<parameter>
								<parameterid>urcorner</parameterid>
								<name>Upper Right</name>
								<value>
									<horiz>0.5</horiz>
									<vert>-0.5</vert>
								</value>
							</parameter>
							<parameter>
								<parameterid>lrcorner</parameterid>
								<name>Lower Right</name>
								<value>
									<horiz>0.5</horiz>
									<vert>0.5</vert>
								</value>
							</parameter>
							<parameter>
								<parameterid>llcorner</parameterid>
								<name>Lower Left</name>
								<value>
									<horiz>-0.5</horiz>
									<vert>0.5</vert>
								</value>
							</parameter>
							<parameter>
								<parameterid>aspect</parameterid>
								<name>Aspect</name>
								<valuemin>-10000</valuemin>
								<valuemax>10000</valuemax>
								<value>0</value>
							</parameter>
						</effect>
					</filter>
					<filter>
						<effect>
							<name>Opacity</name>
							<effectid>opacity</effectid>
							<effectcategory>motion</effectcategory>
							<effecttype>motion</effecttype>
							<mediatype>video</mediatype>
							<parameter>
								<parameterid>opacity</parameterid>
								<name>opacity</name>
								<valuemin>0</valuemin>
								<valuemax>100</valuemax>
								<value>100</value>
							</parameter>
						</effect>
					</filter>
					<sourcetrack>
						<mediatype>video</mediatype>
					</sourcetrack>
				</generatoritem>
				<clipitem id="Justin_Bieber-LiveiOslo.png">
					<name>Justin_Bieber-LiveiOslo.png</name>
					<duration>3026</duration>
					<rate>
						<ntsc>FALSE</ntsc>
						<timebase>25</timebase>
					</rate>
					<in>1500</in>
					<out>1575</out>
					<start>7396</start>
					<end>7471</end>
					<pixelaspectratio>Square</pixelaspectratio>
					<stillframe>TRUE</stillframe>
					<enabled>TRUE</enabled>
					<anamorphic>FALSE</anamorphic>
					<alphatype>straight</alphatype>
					<masterclipid>Justin_Bieber-LiveiOslo.png1</masterclipid>
					<logginginfo>
						<scene/>
						<shottake/>
						<lognote/>
						<good>FALSE</good>
					</logginginfo>
					<labels>
						<label2/>
					</labels>
					<comments>
						<mastercomment1/>
						<mastercomment2/>
						<mastercomment3/>
						<mastercomment4/>
					</comments>
					<file id="Justin_Bieber-LiveiOslo">
						<name>Justin_Bieber-LiveiOslo.png</name>
						<pathurl>file://localhost/Volumes/SuperSAN1/Prosjekter/MSUB20000012%20FIN%20FREDAG/FCP-prosjekter/program%201/Supere%20program%201/Justin_Bieber-LiveiOslo.png</pathurl>
						<rate>
							<timebase>25</timebase>
						</rate>
						<duration>2</duration>
						<width>1707</width>
						<height>393</height>
						<media>
							<video>
								<duration>2</duration>
								<stillframe>TRUE</stillframe>
								<samplecharacteristics>
									<width>1707</width>
									<height>393</height>
								</samplecharacteristics>
							</video>
						</media>
					</file>
					<filter>
						<effect>
							<name>Basic Motion</name>
							<effectid>basic</effectid>
							<effectcategory>motion</effectcategory>
							<effecttype>motion</effecttype>
							<mediatype>video</mediatype>
							<parameter>
								<parameterid>scale</parameterid>
								<name>Scale</name>
								<valuemin>0</valuemin>
								<valuemax>1000</valuemax>
								<value>45</value>
							</parameter>
							<parameter>
								<parameterid>rotation</parameterid>
								<name>Rotation</name>
								<valuemin>-8640</valuemin>
								<valuemax>8640</valuemax>
								<value>0</value>
							</parameter>
							<parameter>
								<parameterid>center</parameterid>
								<name>Center</name>
								<value>
									<horiz>-0.23822</horiz>
									<vert>-1.00568</vert>
								</value>
							</parameter>
							<parameter>
								<parameterid>centerOffset</parameterid>
								<name>Anchor Point</name>
								<value>
									<horiz>0</horiz>
									<vert>0</vert>
								</value>
							</parameter>
						</effect>
					</filter>
					<filter>
						<enabled>FALSE</enabled>
						<effect>
							<name>Drop Shadow</name>
							<effectid>dropshadow</effectid>
							<effectcategory>motion</effectcategory>
							<effecttype>motion</effecttype>
							<mediatype>video</mediatype>
							<parameter>
								<parameterid>offset</parameterid>
								<name>offset</name>
								<valuemin>-100</valuemin>
								<valuemax>100</valuemax>
								<value>2</value>
							</parameter>
							<parameter>
								<parameterid>angle</parameterid>
								<name>angle</name>
								<valuemin>-720</valuemin>
								<valuemax>720</valuemax>
								<value>135</value>
							</parameter>
							<parameter>
								<parameterid>color</parameterid>
								<name>color</name>
								<value>
									<alpha>0</alpha>
									<red>0</red>
									<green>0</green>
									<blue>0</blue>
								</value>
							</parameter>
							<parameter>
								<parameterid>softness</parameterid>
								<name>softness</name>
								<valuemin>0</valuemin>
								<valuemax>100</valuemax>
								<value>10</value>
							</parameter>
							<parameter>
								<parameterid>opacity</parameterid>
								<name>opacity</name>
								<valuemin>0</valuemin>
								<valuemax>100</valuemax>
								<value>50</value>
							</parameter>
						</effect>
					</filter>
					<filter>
						<enabled>FALSE</enabled>
						<effect>
							<name>Motion Blur</name>
							<effectid>motionblur</effectid>
							<effectcategory>motion</effectcategory>
							<effecttype>motion</effecttype>
							<mediatype>video</mediatype>
							<parameter>
								<parameterid>duration</parameterid>
								<name>% Blur</name>
								<valuemin>0</valuemin>
								<valuemax>1000</valuemax>
								<value>500</value>
							</parameter>
							<parameter>
								<parameterid>samples</parameterid>
								<name>Samples</name>
								<valuemin>1</valuemin>
								<valuemax>16</valuemax>
								<value>4</value>
							</parameter>
						</effect>
					</filter>
					<filter>
						<effect>
							<name>Crop</name>
							<effectid>crop</effectid>
							<effectcategory>motion</effectcategory>
							<effecttype>motion</effecttype>
							<mediatype>video</mediatype>
							<parameter>
								<parameterid>left</parameterid>
								<name>left</name>
								<valuemin>0</valuemin>
								<valuemax>100</valuemax>
								<value>0</value>
							</parameter>
							<parameter>
								<parameterid>right</parameterid>
								<name>right</name>
								<valuemin>0</valuemin>
								<valuemax>100</valuemax>
								<value>0</value>
							</parameter>
							<parameter>
								<parameterid>top</parameterid>
								<name>top</name>
								<valuemin>0</valuemin>
								<valuemax>100</valuemax>
								<value>0</value>
							</parameter>
							<parameter>
								<parameterid>bottom</parameterid>
								<name>bottom</name>
								<valuemin>0</valuemin>
								<valuemax>100</valuemax>
								<value>0</value>
							</parameter>
							<parameter>
								<parameterid>edgefeather</parameterid>
								<name>edgefeather</name>
								<valuemin>0</valuemin>
								<valuemax>100</valuemax>
								<value>0</value>
							</parameter>
						</effect>
					</filter>
					<filter>
						<effect>
							<name>Distort</name>
							<effectid>deformation</effectid>
							<effectcategory>motion</effectcategory>
							<effecttype>motion</effecttype>
							<mediatype>video</mediatype>
							<parameter>
								<parameterid>ulcorner</parameterid>
								<name>Upper Left</name>
								<value>
									<horiz>-0.5</horiz>
									<vert>-0.5</vert>
								</value>
							</parameter>
							<parameter>
								<parameterid>urcorner</parameterid>
								<name>Upper Right</name>
								<value>
									<horiz>0.5</horiz>
									<vert>-0.5</vert>
								</value>
							</parameter>
							<parameter>
								<parameterid>lrcorner</parameterid>
								<name>Lower Right</name>
								<value>
									<horiz>0.5</horiz>
									<vert>0.5</vert>
								</value>
							</parameter>
							<parameter>
								<parameterid>llcorner</parameterid>
								<name>Lower Left</name>
								<value>
									<horiz>-0.5</horiz>
									<vert>0.5</vert>
								</value>
							</parameter>
							<parameter>
								<parameterid>aspect</parameterid>
								<name>Aspect</name>
								<valuemin>-10000</valuemin>
								<valuemax>10000</valuemax>
								<value>0</value>
							</parameter>
						</effect>
					</filter>
					<filter>
						<effect>
							<name>Opacity</name>
							<effectid>opacity</effectid>
							<effectcategory>motion</effectcategory>
							<effecttype>motion</effecttype>
							<mediatype>video</mediatype>
							<parameter>
								<parameterid>opacity</parameterid>
								<name>opacity</name>
								<valuemin>0</valuemin>
								<valuemax>100</valuemax>
								<value>100</value>
							</parameter>
						</effect>
					</filter>
					<sourcetrack>
						<mediatype>video</mediatype>
					</sourcetrack>
					<fielddominance>none</fielddominance>
				</clipitem>
				<clipitem id="Claude-test-1809.png">
					<name>Claude-test-1809.png</name>
					<duration>3026</duration>
					<rate>
						<ntsc>FALSE</ntsc>
						<timebase>25</timebase>
					</rate>
					<in>1500</in>
					<out>1575</out>
					<start>9276</start>
					<end>9351</end>
					<pixelaspectratio>Square</pixelaspectratio>
					<stillframe>TRUE</stillframe>
					<enabled>TRUE</enabled>
					<anamorphic>FALSE</anamorphic>
					<alphatype>straight</alphatype>
					<masterclipid>Claude-test-1809.png1</masterclipid>
					<logginginfo>
						<scene/>
						<shottake/>
						<lognote/>
						<good>FALSE</good>
					</logginginfo>
					<labels>
						<label2/>
					</labels>
					<comments>
						<mastercomment1/>
						<mastercomment2/>
						<mastercomment3/>
						<mastercomment4/>
					</comments>
					<file id="Claude-test-1809 ">
						<name>Claude-test-1809.png</name>
						<pathurl>file://localhost/Users/n20056/Desktop/Grafikk-super/Claude-test-1809.png</pathurl>
						<rate>
							<timebase>25</timebase>
						</rate>
						<duration>2</duration>
						<width>776</width>
						<height>393</height>
						<media>
							<video>
								<duration>2</duration>
								<stillframe>TRUE</stillframe>
								<samplecharacteristics>
									<width>776</width>
									<height>393</height>
								</samplecharacteristics>
							</video>
						</media>
					</file>
					<filter>
						<effect>
							<name>Basic Motion</name>
							<effectid>basic</effectid>
							<effectcategory>motion</effectcategory>
							<effecttype>motion</effecttype>
							<mediatype>video</mediatype>
							<parameter>
								<parameterid>scale</parameterid>
								<name>Scale</name>
								<valuemin>0</valuemin>
								<valuemax>1000</valuemax>
								<value>100</value>
							</parameter>
							<parameter>
								<parameterid>rotation</parameterid>
								<name>Rotation</name>
								<valuemin>-8640</valuemin>
								<valuemax>8640</valuemax>
								<value>-9</value>
							</parameter>
							<parameter>
								<parameterid>center</parameterid>
								<name>Center</name>
								<value>
									<horiz>-0.685879</horiz>
									<vert>0.255682</vert>
								</value>
							</parameter>
							<parameter>
								<parameterid>centerOffset</parameterid>
								<name>Anchor Point</name>
								<value>
									<horiz>0</horiz>
									<vert>0</vert>
								</value>
							</parameter>
						</effect>
					</filter>
					<filter>
						<enabled>FALSE</enabled>
						<effect>
							<name>Drop Shadow</name>
							<effectid>dropshadow</effectid>
							<effectcategory>motion</effectcategory>
							<effecttype>motion</effecttype>
							<mediatype>video</mediatype>
							<parameter>
								<parameterid>offset</parameterid>
								<name>offset</name>
								<valuemin>-100</valuemin>
								<valuemax>100</valuemax>
								<value>2</value>
							</parameter>
							<parameter>
								<parameterid>angle</parameterid>
								<name>angle</name>
								<valuemin>-720</valuemin>
								<valuemax>720</valuemax>
								<value>135</value>
							</parameter>
							<parameter>
								<parameterid>color</parameterid>
								<name>color</name>
								<value>
									<alpha>0</alpha>
									<red>0</red>
									<green>0</green>
									<blue>0</blue>
								</value>
							</parameter>
							<parameter>
								<parameterid>softness</parameterid>
								<name>softness</name>
								<valuemin>0</valuemin>
								<valuemax>100</valuemax>
								<value>10</value>
							</parameter>
							<parameter>
								<parameterid>opacity</parameterid>
								<name>opacity</name>
								<valuemin>0</valuemin>
								<valuemax>100</valuemax>
								<value>50</value>
							</parameter>
						</effect>
					</filter>
					<filter>
						<enabled>FALSE</enabled>
						<effect>
							<name>Motion Blur</name>
							<effectid>motionblur</effectid>
							<effectcategory>motion</effectcategory>
							<effecttype>motion</effecttype>
							<mediatype>video</mediatype>
							<parameter>
								<parameterid>duration</parameterid>
								<name>% Blur</name>
								<valuemin>0</valuemin>
								<valuemax>1000</valuemax>
								<value>500</value>
							</parameter>
							<parameter>
								<parameterid>samples</parameterid>
								<name>Samples</name>
								<valuemin>1</valuemin>
								<valuemax>16</valuemax>
								<value>4</value>
							</parameter>
						</effect>
					</filter>
					<filter>
						<effect>
							<name>Crop</name>
							<effectid>crop</effectid>
							<effectcategory>motion</effectcategory>
							<effecttype>motion</effecttype>
							<mediatype>video</mediatype>
							<parameter>
								<parameterid>left</parameterid>
								<name>left</name>
								<valuemin>0</valuemin>
								<valuemax>100</valuemax>
								<value>0</value>
							</parameter>
							<parameter>
								<parameterid>right</parameterid>
								<name>right</name>
								<valuemin>0</valuemin>
								<valuemax>100</valuemax>
								<value>0</value>
							</parameter>
							<parameter>
								<parameterid>top</parameterid>
								<name>top</name>
								<valuemin>0</valuemin>
								<valuemax>100</valuemax>
								<value>0</value>
							</parameter>
							<parameter>
								<parameterid>bottom</parameterid>
								<name>bottom</name>
								<valuemin>0</valuemin>
								<valuemax>100</valuemax>
								<value>0</value>
							</parameter>
							<parameter>
								<parameterid>edgefeather</parameterid>
								<name>edgefeather</name>
								<valuemin>0</valuemin>
								<valuemax>100</valuemax>
								<value>0</value>
							</parameter>
						</effect>
					</filter>
					<filter>
						<effect>
							<name>Distort</name>
							<effectid>deformation</effectid>
							<effectcategory>motion</effectcategory>
							<effecttype>motion</effecttype>
							<mediatype>video</mediatype>
							<parameter>
								<parameterid>ulcorner</parameterid>
								<name>Upper Left</name>
								<value>
									<horiz>-0.5</horiz>
									<vert>-0.5</vert>
								</value>
							</parameter>
							<parameter>
								<parameterid>urcorner</parameterid>
								<name>Upper Right</name>
								<value>
									<horiz>0.5</horiz>
									<vert>-0.5</vert>
								</value>
							</parameter>
							<parameter>
								<parameterid>lrcorner</parameterid>
								<name>Lower Right</name>
								<value>
									<horiz>0.5</horiz>
									<vert>0.5</vert>
								</value>
							</parameter>
							<parameter>
								<parameterid>llcorner</parameterid>
								<name>Lower Left</name>
								<value>
									<horiz>-0.5</horiz>
									<vert>0.5</vert>
								</value>
							</parameter>
							<parameter>
								<parameterid>aspect</parameterid>
								<name>Aspect</name>
								<valuemin>-10000</valuemin>
								<valuemax>10000</valuemax>
								<value>0</value>
							</parameter>
						</effect>
					</filter>
					<filter>
						<effect>
							<name>Opacity</name>
							<effectid>opacity</effectid>
							<effectcategory>motion</effectcategory>
							<effecttype>motion</effecttype>
							<mediatype>video</mediatype>
							<parameter>
								<parameterid>opacity</parameterid>
								<name>opacity</name>
								<valuemin>0</valuemin>
								<valuemax>100</valuemax>
								<value>100</value>
							</parameter>
						</effect>
					</filter>
					<sourcetrack>
						<mediatype>video</mediatype>
					</sourcetrack>
					<fielddominance>none</fielddominance>
				</clipitem>
				<clipitem id="Pop-corn wipe">
					<name>Pop-corn wipe</name>
					<duration>105</duration>
					<rate>
						<ntsc>FALSE</ntsc>
						<timebase>25</timebase>
					</rate>
					<in>0</in>
					<out>105</out>
					<start>13879</start>
					<end>13984</end>
					<pixelaspectratio>Square</pixelaspectratio>
					<anamorphic>FALSE</anamorphic>
					<alphatype>straight</alphatype>
					<masterclipid>Pop-corn wipe1</masterclipid>
					<logginginfo>
						<scene/>
						<shottake/>
						<lognote/>
						<good>FALSE</good>
					</logginginfo>
					<labels>
						<label2/>
					</labels>
					<comments>
						<mastercomment1/>
						<mastercomment2/>
						<mastercomment3/>
						<mastercomment4/>
					</comments>
					<file id="Pop-corn wipe2">
						<name>Pop-corn wipe.mov</name>
						<pathurl>file://localhost/Volumes/SuperSAN1/Prosjekter/MSUB20000012%20FIN%20FREDAG/Profil-grafikk/Wipes/Pop-corn%20wipe.mov</pathurl>
						<rate>
							<timebase>25</timebase>
						</rate>
						<duration>105</duration>
						<timecode>
							<rate>
								<timebase>25</timebase>
							</rate>
							<string>00:00:00:00</string>
							<frame>0</frame>
							<displayformat>NDF</displayformat>
							<source>source</source>
						</timecode>
						<media>
							<video>
								<duration>105</duration>
								<samplecharacteristics>
									<width>1920</width>
									<height>1080</height>
								</samplecharacteristics>
							</video>
							<audio>
								<rate>
									<timebase>48000</timebase>
								</rate>
								<trackcount>2</trackcount>
								<samplecharacteristics>
									<depth>16</depth>
								</samplecharacteristics>
							</audio>
						</media>
					</file>
					<sourcetrack>
						<mediatype>video</mediatype>
					</sourcetrack>
					<link>
						<linkclipref>Pop-corn wipe</linkclipref>
						<mediatype>video</mediatype>
						<trackindex>5</trackindex>
						<clipindex>8</clipindex>
					</link>
					<link>
						<linkclipref>Pop-corn wipe3</linkclipref>
						<mediatype>audio</mediatype>
						<trackindex>9</trackindex>
						<clipindex>7</clipindex>
					</link>
					<link>
						<linkclipref>Pop-corn wipe4</linkclipref>
						<mediatype>audio</mediatype>
						<trackindex>10</trackindex>
						<clipindex>7</clipindex>
					</link>
					<fielddominance>upper</fielddominance>
				</clipitem>
				<clipitem id="msub200012-labyrintvig2 ">
					<name>msub200012-labyrintvig2</name>
					<duration>1610</duration>
					<rate>
						<ntsc>FALSE</ntsc>
						<timebase>25</timebase>
					</rate>
					<in>0</in>
					<out>32</out>
					<start>23048</start>
					<end>23080</end>
					<pixelaspectratio>Square</pixelaspectratio>
					<enabled>TRUE</enabled>
					<anamorphic>FALSE</anamorphic>
					<alphatype>none</alphatype>
					<masterclipid>msub200012-labyrintvig2 1</masterclipid>
					<logginginfo>
						<description>msub200012-labyrintvig2</description>
						<scene/>
						<shottake/>
						<lognote/>
						<good>FALSE</good>
					</logginginfo>
					<labels>
						<label2/>
					</labels>
					<comments>
						<mastercomment1>BARN OG UNGDOM. BR_FINFREDAG_MSUA_OPRO</mastercomment1>
						<mastercomment2/>
						<mastercomment3/>
						<mastercomment4/>
					</comments>
					<file id="msub200012-labyrintvig2 2">
						<name>msub200012-labyrintvig2.mxf</name>
						<pathurl>file://localhost/Volumes/omfs/clip.dir/MXF/1080i/msub200012-labyrintvig2.mxf</pathurl>
						<rate>
							<timebase>25</timebase>
						</rate>
						<duration>1610</duration>
						<timecode>
							<rate>
								<timebase>25</timebase>
							</rate>
							<string>00:00:00:00</string>
							<frame>0</frame>
							<displayformat>NDF</displayformat>
							<source>source</source>
						</timecode>
						<media>
							<video>
								<duration>1610</duration>
								<samplecharacteristics>
									<width>1920</width>
									<height>1080</height>
								</samplecharacteristics>
							</video>
							<audio>
								<rate>
									<timebase>48000</timebase>
								</rate>
								<trackcount>1</trackcount>
								<samplecharacteristics>
									<depth>24</depth>
								</samplecharacteristics>
							</audio>
						</media>
					</file>
					<filter>
						<enabled>TRUE</enabled>
						<start>-1</start>
						<end>-1</end>
						<effect>
							<name>Luma Key</name>
							<effectid>Luma Key</effectid>
							<effectcategory>Key</effectcategory>
							<effecttype>filter</effecttype>
							<mediatype>video</mediatype>
							<parameter>
								<parameterid>view</parameterid>
								<name>View</name>
								<valuemin>1</valuemin>
								<valuemax>4</valuemax>
								<valuelist>
									<valueentry>
										<name>Source</name>
										<value>1</value>
									</valueentry>
									<valueentry>
										<name>Matte</name>
										<value>2</value>
									</valueentry>
									<valueentry>
										<name>Final</name>
										<value>3</value>
									</valueentry>
									<valueentry>
										<name>Source, Matte, Final</name>
										<value>4</value>
									</valueentry>
								</valuelist>
								<value>3</value>
							</parameter>
							<parameter>
								<parameterid>keymode</parameterid>
								<name>Key Mode</name>
								<valuemin>1</valuemin>
								<valuemax>4</valuemax>
								<valuelist>
									<valueentry>
										<name>Key Out Brighter</name>
										<value>1</value>
									</valueentry>
									<valueentry>
										<name>Key Out Darker</name>
										<value>2</value>
									</valueentry>
									<valueentry>
										<name>Key Out Similar</name>
										<value>3</value>
									</valueentry>
									<valueentry>
										<name>Key Out Dissimilar</name>
										<value>4</value>
									</valueentry>
								</valuelist>
								<value>2</value>
							</parameter>
							<parameter>
								<parameterid>matteto</parameterid>
								<name>Matte</name>
								<valuemin>1</valuemin>
								<valuemax>2</valuemax>
								<valuelist>
									<valueentry>
										<name>Copy to Alpha</name>
										<value>1</value>
									</valueentry>
									<valueentry>
										<name>Copy to RGB</name>
										<value>2</value>
									</valueentry>
								</valuelist>
								<value>1</value>
							</parameter>
							<parameter>
								<parameterid>threshold</parameterid>
								<name>Threshold</name>
								<valuemin>-100</valuemin>
								<valuemax>100</valuemax>
								<value>-37</value>
							</parameter>
							<parameter>
								<parameterid>tolerance</parameterid>
								<name>Tolerance</name>
								<valuemin>0</valuemin>
								<valuemax>100</valuemax>
								<value>49</value>
							</parameter>
						</effect>
					</filter>
					<filter>
						<effect>
							<name>Basic Motion</name>
							<effectid>basic</effectid>
							<effectcategory>motion</effectcategory>
							<effecttype>motion</effecttype>
							<mediatype>video</mediatype>
							<parameter>
								<parameterid>scale</parameterid>
								<name>Scale</name>
								<valuemin>0</valuemin>
								<valuemax>1000</valuemax>
								<value>100</value>
							</parameter>
							<parameter>
								<parameterid>rotation</parameterid>
								<name>Rotation</name>
								<valuemin>-8640</valuemin>
								<valuemax>8640</valuemax>
								<value>0</value>
							</parameter>
							<parameter>
								<parameterid>center</parameterid>
								<name>Center</name>
								<value>
									<horiz>0</horiz>
									<vert>0</vert>
								</value>
							</parameter>
							<parameter>
								<parameterid>centerOffset</parameterid>
								<name>Anchor Point</name>
								<value>
									<horiz>0</horiz>
									<vert>0</vert>
								</value>
							</parameter>
						</effect>
					</filter>
					<filter>
						<enabled>FALSE</enabled>
						<effect>
							<name>Drop Shadow</name>
							<effectid>dropshadow</effectid>
							<effectcategory>motion</effectcategory>
							<effecttype>motion</effecttype>
							<mediatype>video</mediatype>
							<parameter>
								<parameterid>offset</parameterid>
								<name>offset</name>
								<valuemin>-100</valuemin>
								<valuemax>100</valuemax>
								<value>2</value>
							</parameter>
							<parameter>
								<parameterid>angle</parameterid>
								<name>angle</name>
								<valuemin>-720</valuemin>
								<valuemax>720</valuemax>
								<value>135</value>
							</parameter>
							<parameter>
								<parameterid>color</parameterid>
								<name>color</name>
								<value>
									<alpha>0</alpha>
									<red>0</red>
									<green>0</green>
									<blue>0</blue>
								</value>
							</parameter>
							<parameter>
								<parameterid>softness</parameterid>
								<name>softness</name>
								<valuemin>0</valuemin>
								<valuemax>100</valuemax>
								<value>10</value>
							</parameter>
							<parameter>
								<parameterid>opacity</parameterid>
								<name>opacity</name>
								<valuemin>0</valuemin>
								<valuemax>100</valuemax>
								<value>50</value>
							</parameter>
						</effect>
					</filter>
					<filter>
						<enabled>FALSE</enabled>
						<effect>
							<name>Motion Blur</name>
							<effectid>motionblur</effectid>
							<effectcategory>motion</effectcategory>
							<effecttype>motion</effecttype>
							<mediatype>video</mediatype>
							<parameter>
								<parameterid>duration</parameterid>
								<name>% Blur</name>
								<valuemin>0</valuemin>
								<valuemax>1000</valuemax>
								<value>500</value>
							</parameter>
							<parameter>
								<parameterid>samples</parameterid>
								<name>Samples</name>
								<valuemin>1</valuemin>
								<valuemax>16</valuemax>
								<value>4</value>
							</parameter>
						</effect>
					</filter>
					<filter>
						<effect>
							<name>Crop</name>
							<effectid>crop</effectid>
							<effectcategory>motion</effectcategory>
							<effecttype>motion</effecttype>
							<mediatype>video</mediatype>
							<parameter>
								<parameterid>left</parameterid>
								<name>left</name>
								<valuemin>0</valuemin>
								<valuemax>100</valuemax>
								<value>0</value>
							</parameter>
							<parameter>
								<parameterid>right</parameterid>
								<name>right</name>
								<valuemin>0</valuemin>
								<valuemax>100</valuemax>
								<value>0</value>
							</parameter>
							<parameter>
								<parameterid>top</parameterid>
								<name>top</name>
								<valuemin>0</valuemin>
								<valuemax>100</valuemax>
								<value>0</value>
							</parameter>
							<parameter>
								<parameterid>bottom</parameterid>
								<name>bottom</name>
								<valuemin>0</valuemin>
								<valuemax>100</valuemax>
								<value>0</value>
							</parameter>
							<parameter>
								<parameterid>edgefeather</parameterid>
								<name>edgefeather</name>
								<valuemin>0</valuemin>
								<valuemax>100</valuemax>
								<value>0</value>
							</parameter>
						</effect>
					</filter>
					<filter>
						<effect>
							<name>Distort</name>
							<effectid>deformation</effectid>
							<effectcategory>motion</effectcategory>
							<effecttype>motion</effecttype>
							<mediatype>video</mediatype>
							<parameter>
								<parameterid>ulcorner</parameterid>
								<name>Upper Left</name>
								<value>
									<horiz>-0.5</horiz>
									<vert>-0.5</vert>
								</value>
							</parameter>
							<parameter>
								<parameterid>urcorner</parameterid>
								<name>Upper Right</name>
								<value>
									<horiz>0.5</horiz>
									<vert>-0.5</vert>
								</value>
							</parameter>
							<parameter>
								<parameterid>lrcorner</parameterid>
								<name>Lower Right</name>
								<value>
									<horiz>0.5</horiz>
									<vert>0.5</vert>
								</value>
							</parameter>
							<parameter>
								<parameterid>llcorner</parameterid>
								<name>Lower Left</name>
								<value>
									<horiz>-0.5</horiz>
									<vert>0.5</vert>
								</value>
							</parameter>
							<parameter>
								<parameterid>aspect</parameterid>
								<name>Aspect</name>
								<valuemin>-10000</valuemin>
								<valuemax>10000</valuemax>
								<value>0</value>
							</parameter>
						</effect>
					</filter>
					<filter>
						<effect>
							<name>Opacity</name>
							<effectid>opacity</effectid>
							<effectcategory>motion</effectcategory>
							<effecttype>motion</effecttype>
							<mediatype>video</mediatype>
							<parameter>
								<parameterid>opacity</parameterid>
								<name>opacity</name>
								<valuemin>0</valuemin>
								<valuemax>100</valuemax>
								<value>100</value>
							</parameter>
						</effect>
					</filter>
					<sourcetrack>
						<mediatype>video</mediatype>
					</sourcetrack>
					<fielddominance>upper</fielddominance>
				</clipitem>
				<clipitem id="msub200012-labyrintvig2 3">
					<name>msub200012-labyrintvig2</name>
					<duration>1610</duration>
					<rate>
						<ntsc>FALSE</ntsc>
						<timebase>25</timebase>
					</rate>
					<in>32</in>
					<out>1591</out>
					<start>23080</start>
					<end>24639</end>
					<pixelaspectratio>Square</pixelaspectratio>
					<enabled>TRUE</enabled>
					<anamorphic>FALSE</anamorphic>
					<alphatype>none</alphatype>
					<masterclipid>msub200012-labyrintvig2 1</masterclipid>
					<logginginfo>
						<description>msub200012-labyrintvig2</description>
						<scene/>
						<shottake/>
						<lognote/>
						<good>FALSE</good>
					</logginginfo>
					<labels>
						<label2/>
					</labels>
					<comments>
						<mastercomment1>BARN OG UNGDOM. BR_FINFREDAG_MSUA_OPRO</mastercomment1>
						<mastercomment2/>
						<mastercomment3/>
						<mastercomment4/>
					</comments>
					<file id="msub200012-labyrintvig2 2"/>
					<sourcetrack>
						<mediatype>video</mediatype>
					</sourcetrack>
					<fielddominance>upper</fielddominance>
				</clipitem>
				<clipitem id="Maracas.png3">
					<name>Maracas.png</name>
					<duration>3026</duration>
					<rate>
						<ntsc>FALSE</ntsc>
						<timebase>25</timebase>
					</rate>
					<in>1500</in>
					<out>1511</out>
					<start>24785</start>
					<end>24796</end>
					<pixelaspectratio>Square</pixelaspectratio>
					<stillframe>TRUE</stillframe>
					<enabled>TRUE</enabled>
					<anamorphic>FALSE</anamorphic>
					<alphatype>black</alphatype>
					<masterclipid>Maracas.png1</masterclipid>
					<logginginfo>
						<scene/>
						<shottake/>
						<lognote/>
						<good>FALSE</good>
					</logginginfo>
					<labels>
						<label2/>
					</labels>
					<comments>
						<mastercomment1/>
						<mastercomment2/>
						<mastercomment3/>
						<mastercomment4/>
					</comments>
					<file id="Maracas"/>
					<filter>
						<effect>
							<name>Basic Motion</name>
							<effectid>basic</effectid>
							<effectcategory>motion</effectcategory>
							<effecttype>motion</effecttype>
							<mediatype>video</mediatype>
							<parameter>
								<parameterid>scale</parameterid>
								<name>Scale</name>
								<valuemin>0</valuemin>
								<valuemax>1000</valuemax>
								<value>90</value>
							</parameter>
							<parameter>
								<parameterid>rotation</parameterid>
								<name>Rotation</name>
								<valuemin>-8640</valuemin>
								<valuemax>8640</valuemax>
								<value>0</value>
							</parameter>
							<parameter>
								<parameterid>center</parameterid>
								<name>Center</name>
								<value>
									<horiz>0</horiz>
									<vert>0</vert>
								</value>
							</parameter>
							<parameter>
								<parameterid>centerOffset</parameterid>
								<name>Anchor Point</name>
								<value>
									<horiz>0</horiz>
									<vert>0</vert>
								</value>
							</parameter>
						</effect>
					</filter>
					<filter>
						<enabled>FALSE</enabled>
						<effect>
							<name>Drop Shadow</name>
							<effectid>dropshadow</effectid>
							<effectcategory>motion</effectcategory>
							<effecttype>motion</effecttype>
							<mediatype>video</mediatype>
							<parameter>
								<parameterid>offset</parameterid>
								<name>offset</name>
								<valuemin>-100</valuemin>
								<valuemax>100</valuemax>
								<value>2</value>
							</parameter>
							<parameter>
								<parameterid>angle</parameterid>
								<name>angle</name>
								<valuemin>-720</valuemin>
								<valuemax>720</valuemax>
								<value>135</value>
							</parameter>
							<parameter>
								<parameterid>color</parameterid>
								<name>color</name>
								<value>
									<alpha>0</alpha>
									<red>0</red>
									<green>0</green>
									<blue>0</blue>
								</value>
							</parameter>
							<parameter>
								<parameterid>softness</parameterid>
								<name>softness</name>
								<valuemin>0</valuemin>
								<valuemax>100</valuemax>
								<value>10</value>
							</parameter>
							<parameter>
								<parameterid>opacity</parameterid>
								<name>opacity</name>
								<valuemin>0</valuemin>
								<valuemax>100</valuemax>
								<value>50</value>
							</parameter>
						</effect>
					</filter>
					<filter>
						<enabled>FALSE</enabled>
						<effect>
							<name>Motion Blur</name>
							<effectid>motionblur</effectid>
							<effectcategory>motion</effectcategory>
							<effecttype>motion</effecttype>
							<mediatype>video</mediatype>
							<parameter>
								<parameterid>duration</parameterid>
								<name>% Blur</name>
								<valuemin>0</valuemin>
								<valuemax>1000</valuemax>
								<value>500</value>
							</parameter>
							<parameter>
								<parameterid>samples</parameterid>
								<name>Samples</name>
								<valuemin>1</valuemin>
								<valuemax>16</valuemax>
								<value>4</value>
							</parameter>
						</effect>
					</filter>
					<filter>
						<effect>
							<name>Crop</name>
							<effectid>crop</effectid>
							<effectcategory>motion</effectcategory>
							<effecttype>motion</effecttype>
							<mediatype>video</mediatype>
							<parameter>
								<parameterid>left</parameterid>
								<name>left</name>
								<valuemin>0</valuemin>
								<valuemax>100</valuemax>
								<value>0</value>
							</parameter>
							<parameter>
								<parameterid>right</parameterid>
								<name>right</name>
								<valuemin>0</valuemin>
								<valuemax>100</valuemax>
								<value>0</value>
							</parameter>
							<parameter>
								<parameterid>top</parameterid>
								<name>top</name>
								<valuemin>0</valuemin>
								<valuemax>100</valuemax>
								<value>0</value>
							</parameter>
							<parameter>
								<parameterid>bottom</parameterid>
								<name>bottom</name>
								<valuemin>0</valuemin>
								<valuemax>100</valuemax>
								<value>0</value>
							</parameter>
							<parameter>
								<parameterid>edgefeather</parameterid>
								<name>edgefeather</name>
								<valuemin>0</valuemin>
								<valuemax>100</valuemax>
								<value>0</value>
							</parameter>
						</effect>
					</filter>
					<filter>
						<effect>
							<name>Distort</name>
							<effectid>deformation</effectid>
							<effectcategory>motion</effectcategory>
							<effecttype>motion</effecttype>
							<mediatype>video</mediatype>
							<parameter>
								<parameterid>ulcorner</parameterid>
								<name>Upper Left</name>
								<value>
									<horiz>-0.5</horiz>
									<vert>-0.5</vert>
								</value>
							</parameter>
							<parameter>
								<parameterid>urcorner</parameterid>
								<name>Upper Right</name>
								<value>
									<horiz>0.5</horiz>
									<vert>-0.5</vert>
								</value>
							</parameter>
							<parameter>
								<parameterid>lrcorner</parameterid>
								<name>Lower Right</name>
								<value>
									<horiz>0.5</horiz>
									<vert>0.5</vert>
								</value>
							</parameter>
							<parameter>
								<parameterid>llcorner</parameterid>
								<name>Lower Left</name>
								<value>
									<horiz>-0.5</horiz>
									<vert>0.5</vert>
								</value>
							</parameter>
							<parameter>
								<parameterid>aspect</parameterid>
								<name>Aspect</name>
								<valuemin>-10000</valuemin>
								<valuemax>10000</valuemax>
								<value>0</value>
							</parameter>
						</effect>
					</filter>
					<filter>
						<effect>
							<name>Opacity</name>
							<effectid>opacity</effectid>
							<effectcategory>motion</effectcategory>
							<effecttype>motion</effecttype>
							<mediatype>video</mediatype>
							<parameter>
								<parameterid>opacity</parameterid>
								<name>opacity</name>
								<valuemin>0</valuemin>
								<valuemax>100</valuemax>
								<value>100</value>
							</parameter>
						</effect>
					</filter>
					<sourcetrack>
						<mediatype>video</mediatype>
					</sourcetrack>
					<fielddominance>none</fielddominance>
				</clipitem>
				<clipitem id="Maracas.png4">
					<name>Maracas.png</name>
					<duration>3026</duration>
					<rate>
						<ntsc>FALSE</ntsc>
						<timebase>25</timebase>
					</rate>
					<in>1500</in>
					<out>1508</out>
					<start>25839</start>
					<end>25847</end>
					<pixelaspectratio>Square</pixelaspectratio>
					<stillframe>TRUE</stillframe>
					<enabled>TRUE</enabled>
					<anamorphic>FALSE</anamorphic>
					<alphatype>black</alphatype>
					<masterclipid>Maracas.png1</masterclipid>
					<logginginfo>
						<scene/>
						<shottake/>
						<lognote/>
						<good>FALSE</good>
					</logginginfo>
					<labels>
						<label2/>
					</labels>
					<comments>
						<mastercomment1/>
						<mastercomment2/>
						<mastercomment3/>
						<mastercomment4/>
					</comments>
					<file id="Maracas"/>
					<filter>
						<effect>
							<name>Basic Motion</name>
							<effectid>basic</effectid>
							<effectcategory>motion</effectcategory>
							<effecttype>motion</effecttype>
							<mediatype>video</mediatype>
							<parameter>
								<parameterid>scale</parameterid>
								<name>Scale</name>
								<valuemin>0</valuemin>
								<valuemax>1000</valuemax>
								<value>25</value>
							</parameter>
							<parameter>
								<parameterid>rotation</parameterid>
								<name>Rotation</name>
								<valuemin>-8640</valuemin>
								<valuemax>8640</valuemax>
								<value>-50</value>
							</parameter>
							<parameter>
								<parameterid>center</parameterid>
								<name>Center</name>
								<value>
									<horiz>-0.251163</horiz>
									<vert>0.233471</vert>
								</value>
							</parameter>
							<parameter>
								<parameterid>centerOffset</parameterid>
								<name>Anchor Point</name>
								<value>
									<horiz>0</horiz>
									<vert>0</vert>
								</value>
							</parameter>
						</effect>
					</filter>
					<filter>
						<enabled>FALSE</enabled>
						<effect>
							<name>Drop Shadow</name>
							<effectid>dropshadow</effectid>
							<effectcategory>motion</effectcategory>
							<effecttype>motion</effecttype>
							<mediatype>video</mediatype>
							<parameter>
								<parameterid>offset</parameterid>
								<name>offset</name>
								<valuemin>-100</valuemin>
								<valuemax>100</valuemax>
								<value>2</value>
							</parameter>
							<parameter>
								<parameterid>angle</parameterid>
								<name>angle</name>
								<valuemin>-720</valuemin>
								<valuemax>720</valuemax>
								<value>135</value>
							</parameter>
							<parameter>
								<parameterid>color</parameterid>
								<name>color</name>
								<value>
									<alpha>0</alpha>
									<red>0</red>
									<green>0</green>
									<blue>0</blue>
								</value>
							</parameter>
							<parameter>
								<parameterid>softness</parameterid>
								<name>softness</name>
								<valuemin>0</valuemin>
								<valuemax>100</valuemax>
								<value>10</value>
							</parameter>
							<parameter>
								<parameterid>opacity</parameterid>
								<name>opacity</name>
								<valuemin>0</valuemin>
								<valuemax>100</valuemax>
								<value>50</value>
							</parameter>
						</effect>
					</filter>
					<filter>
						<enabled>FALSE</enabled>
						<effect>
							<name>Motion Blur</name>
							<effectid>motionblur</effectid>
							<effectcategory>motion</effectcategory>
							<effecttype>motion</effecttype>
							<mediatype>video</mediatype>
							<parameter>
								<parameterid>duration</parameterid>
								<name>% Blur</name>
								<valuemin>0</valuemin>
								<valuemax>1000</valuemax>
								<value>500</value>
							</parameter>
							<parameter>
								<parameterid>samples</parameterid>
								<name>Samples</name>
								<valuemin>1</valuemin>
								<valuemax>16</valuemax>
								<value>4</value>
							</parameter>
						</effect>
					</filter>
					<filter>
						<effect>
							<name>Crop</name>
							<effectid>crop</effectid>
							<effectcategory>motion</effectcategory>
							<effecttype>motion</effecttype>
							<mediatype>video</mediatype>
							<parameter>
								<parameterid>left</parameterid>
								<name>left</name>
								<valuemin>0</valuemin>
								<valuemax>100</valuemax>
								<value>0</value>
							</parameter>
							<parameter>
								<parameterid>right</parameterid>
								<name>right</name>
								<valuemin>0</valuemin>
								<valuemax>100</valuemax>
								<value>0</value>
							</parameter>
							<parameter>
								<parameterid>top</parameterid>
								<name>top</name>
								<valuemin>0</valuemin>
								<valuemax>100</valuemax>
								<value>0</value>
							</parameter>
							<parameter>
								<parameterid>bottom</parameterid>
								<name>bottom</name>
								<valuemin>0</valuemin>
								<valuemax>100</valuemax>
								<value>0</value>
							</parameter>
							<parameter>
								<parameterid>edgefeather</parameterid>
								<name>edgefeather</name>
								<valuemin>0</valuemin>
								<valuemax>100</valuemax>
								<value>0</value>
							</parameter>
						</effect>
					</filter>
					<filter>
						<effect>
							<name>Distort</name>
							<effectid>deformation</effectid>
							<effectcategory>motion</effectcategory>
							<effecttype>motion</effecttype>
							<mediatype>video</mediatype>
							<parameter>
								<parameterid>ulcorner</parameterid>
								<name>Upper Left</name>
								<value>
									<horiz>-0.5</horiz>
									<vert>-0.5</vert>
								</value>
							</parameter>
							<parameter>
								<parameterid>urcorner</parameterid>
								<name>Upper Right</name>
								<value>
									<horiz>0.5</horiz>
									<vert>-0.5</vert>
								</value>
							</parameter>
							<parameter>
								<parameterid>lrcorner</parameterid>
								<name>Lower Right</name>
								<value>
									<horiz>0.5</horiz>
									<vert>0.5</vert>
								</value>
							</parameter>
							<parameter>
								<parameterid>llcorner</parameterid>
								<name>Lower Left</name>
								<value>
									<horiz>-0.5</horiz>
									<vert>0.5</vert>
								</value>
							</parameter>
							<parameter>
								<parameterid>aspect</parameterid>
								<name>Aspect</name>
								<valuemin>-10000</valuemin>
								<valuemax>10000</valuemax>
								<value>0</value>
							</parameter>
						</effect>
					</filter>
					<filter>
						<effect>
							<name>Opacity</name>
							<effectid>opacity</effectid>
							<effectcategory>motion</effectcategory>
							<effecttype>motion</effecttype>
							<mediatype>video</mediatype>
							<parameter>
								<parameterid>opacity</parameterid>
								<name>opacity</name>
								<valuemin>0</valuemin>
								<valuemax>100</valuemax>
								<value>100</value>
							</parameter>
						</effect>
					</filter>
					<sourcetrack>
						<mediatype>video</mediatype>
					</sourcetrack>
					<fielddominance>none</fielddominance>
				</clipitem>
				<clipitem id="Maracas.png5">
					<name>Maracas.png</name>
					<duration>3026</duration>
					<rate>
						<ntsc>FALSE</ntsc>
						<timebase>25</timebase>
					</rate>
					<in>1500</in>
					<out>1508</out>
					<start>25850</start>
					<end>25858</end>
					<pixelaspectratio>Square</pixelaspectratio>
					<stillframe>TRUE</stillframe>
					<enabled>TRUE</enabled>
					<anamorphic>FALSE</anamorphic>
					<alphatype>black</alphatype>
					<masterclipid>Maracas.png1</masterclipid>
					<logginginfo>
						<scene/>
						<shottake/>
						<lognote/>
						<good>FALSE</good>
					</logginginfo>
					<labels>
						<label2/>
					</labels>
					<comments>
						<mastercomment1/>
						<mastercomment2/>
						<mastercomment3/>
						<mastercomment4/>
					</comments>
					<file id="Maracas"/>
					<filter>
						<effect>
							<name>Basic Motion</name>
							<effectid>basic</effectid>
							<effectcategory>motion</effectcategory>
							<effecttype>motion</effecttype>
							<mediatype>video</mediatype>
							<parameter>
								<parameterid>scale</parameterid>
								<name>Scale</name>
								<valuemin>0</valuemin>
								<valuemax>1000</valuemax>
								<value>20</value>
							</parameter>
							<parameter>
								<parameterid>rotation</parameterid>
								<name>Rotation</name>
								<valuemin>-8640</valuemin>
								<valuemax>8640</valuemax>
								<value>-68</value>
							</parameter>
							<parameter>
								<parameterid>center</parameterid>
								<name>Center</name>
								<value>
									<horiz>-0.245349</horiz>
									<vert>0.0433884</vert>
								</value>
							</parameter>
							<parameter>
								<parameterid>centerOffset</parameterid>
								<name>Anchor Point</name>
								<value>
									<horiz>0</horiz>
									<vert>0</vert>
								</value>
							</parameter>
						</effect>
					</filter>
					<filter>
						<enabled>FALSE</enabled>
						<effect>
							<name>Drop Shadow</name>
							<effectid>dropshadow</effectid>
							<effectcategory>motion</effectcategory>
							<effecttype>motion</effecttype>
							<mediatype>video</mediatype>
							<parameter>
								<parameterid>offset</parameterid>
								<name>offset</name>
								<valuemin>-100</valuemin>
								<valuemax>100</valuemax>
								<value>2</value>
							</parameter>
							<parameter>
								<parameterid>angle</parameterid>
								<name>angle</name>
								<valuemin>-720</valuemin>
								<valuemax>720</valuemax>
								<value>135</value>
							</parameter>
							<parameter>
								<parameterid>color</parameterid>
								<name>color</name>
								<value>
									<alpha>0</alpha>
									<red>0</red>
									<green>0</green>
									<blue>0</blue>
								</value>
							</parameter>
							<parameter>
								<parameterid>softness</parameterid>
								<name>softness</name>
								<valuemin>0</valuemin>
								<valuemax>100</valuemax>
								<value>10</value>
							</parameter>
							<parameter>
								<parameterid>opacity</parameterid>
								<name>opacity</name>
								<valuemin>0</valuemin>
								<valuemax>100</valuemax>
								<value>50</value>
							</parameter>
						</effect>
					</filter>
					<filter>
						<enabled>FALSE</enabled>
						<effect>
							<name>Motion Blur</name>
							<effectid>motionblur</effectid>
							<effectcategory>motion</effectcategory>
							<effecttype>motion</effecttype>
							<mediatype>video</mediatype>
							<parameter>
								<parameterid>duration</parameterid>
								<name>% Blur</name>
								<valuemin>0</valuemin>
								<valuemax>1000</valuemax>
								<value>500</value>
							</parameter>
							<parameter>
								<parameterid>samples</parameterid>
								<name>Samples</name>
								<valuemin>1</valuemin>
								<valuemax>16</valuemax>
								<value>4</value>
							</parameter>
						</effect>
					</filter>
					<filter>
						<effect>
							<name>Crop</name>
							<effectid>crop</effectid>
							<effectcategory>motion</effectcategory>
							<effecttype>motion</effecttype>
							<mediatype>video</mediatype>
							<parameter>
								<parameterid>left</parameterid>
								<name>left</name>
								<valuemin>0</valuemin>
								<valuemax>100</valuemax>
								<value>0</value>
							</parameter>
							<parameter>
								<parameterid>right</parameterid>
								<name>right</name>
								<valuemin>0</valuemin>
								<valuemax>100</valuemax>
								<value>0</value>
							</parameter>
							<parameter>
								<parameterid>top</parameterid>
								<name>top</name>
								<valuemin>0</valuemin>
								<valuemax>100</valuemax>
								<value>0</value>
							</parameter>
							<parameter>
								<parameterid>bottom</parameterid>
								<name>bottom</name>
								<valuemin>0</valuemin>
								<valuemax>100</valuemax>
								<value>0</value>
							</parameter>
							<parameter>
								<parameterid>edgefeather</parameterid>
								<name>edgefeather</name>
								<valuemin>0</valuemin>
								<valuemax>100</valuemax>
								<value>0</value>
							</parameter>
						</effect>
					</filter>
					<filter>
						<effect>
							<name>Distort</name>
							<effectid>deformation</effectid>
							<effectcategory>motion</effectcategory>
							<effecttype>motion</effecttype>
							<mediatype>video</mediatype>
							<parameter>
								<parameterid>ulcorner</parameterid>
								<name>Upper Left</name>
								<value>
									<horiz>-0.5</horiz>
									<vert>-0.5</vert>
								</value>
							</parameter>
							<parameter>
								<parameterid>urcorner</parameterid>
								<name>Upper Right</name>
								<value>
									<horiz>0.5</horiz>
									<vert>-0.5</vert>
								</value>
							</parameter>
							<parameter>
								<parameterid>lrcorner</parameterid>
								<name>Lower Right</name>
								<value>
									<horiz>0.5</horiz>
									<vert>0.5</vert>
								</value>
							</parameter>
							<parameter>
								<parameterid>llcorner</parameterid>
								<name>Lower Left</name>
								<value>
									<horiz>-0.5</horiz>
									<vert>0.5</vert>
								</value>
							</parameter>
							<parameter>
								<parameterid>aspect</parameterid>
								<name>Aspect</name>
								<valuemin>-10000</valuemin>
								<valuemax>10000</valuemax>
								<value>0</value>
							</parameter>
						</effect>
					</filter>
					<filter>
						<effect>
							<name>Opacity</name>
							<effectid>opacity</effectid>
							<effectcategory>motion</effectcategory>
							<effecttype>motion</effecttype>
							<mediatype>video</mediatype>
							<parameter>
								<parameterid>opacity</parameterid>
								<name>opacity</name>
								<valuemin>0</valuemin>
								<valuemax>100</valuemax>
								<value>100</value>
							</parameter>
						</effect>
					</filter>
					<sourcetrack>
						<mediatype>video</mediatype>
					</sourcetrack>
					<fielddominance>none</fielddominance>
				</clipitem>
				<clipitem id="Stay.png">
					<name>Stay.png</name>
					<duration>3026</duration>
					<rate>
						<ntsc>FALSE</ntsc>
						<timebase>25</timebase>
					</rate>
					<in>1458</in>
					<out>1539</out>
					<start>29717</start>
					<end>29798</end>
					<pixelaspectratio>Square</pixelaspectratio>
					<stillframe>TRUE</stillframe>
					<enabled>TRUE</enabled>
					<anamorphic>FALSE</anamorphic>
					<alphatype>straight</alphatype>
					<masterclipid>Stay.png1</masterclipid>
					<logginginfo>
						<scene/>
						<shottake/>
						<lognote/>
						<good>FALSE</good>
					</logginginfo>
					<labels>
						<label2/>
					</labels>
					<comments>
						<mastercomment1/>
						<mastercomment2/>
						<mastercomment3/>
						<mastercomment4/>
					</comments>
					<file id="Stay">
						<name>Stay.png</name>
						<pathurl>file://localhost/Volumes/SuperSAN1/Prosjekter/MSUB20000012%20FIN%20FREDAG/FCP-prosjekter/program%201/Supere%20program%201/Stay.png</pathurl>
						<rate>
							<timebase>25</timebase>
						</rate>
						<duration>2</duration>
						<width>1707</width>
						<height>393</height>
						<media>
							<video>
								<duration>2</duration>
								<stillframe>TRUE</stillframe>
								<samplecharacteristics>
									<width>1707</width>
									<height>393</height>
								</samplecharacteristics>
							</video>
						</media>
					</file>
					<filter>
						<effect>
							<name>Basic Motion</name>
							<effectid>basic</effectid>
							<effectcategory>motion</effectcategory>
							<effecttype>motion</effecttype>
							<mediatype>video</mediatype>
							<parameter>
								<parameterid>scale</parameterid>
								<name>Scale</name>
								<valuemin>0</valuemin>
								<valuemax>1000</valuemax>
								<value>70</value>
							</parameter>
							<parameter>
								<parameterid>rotation</parameterid>
								<name>Rotation</name>
								<valuemin>-8640</valuemin>
								<valuemax>8640</valuemax>
								<value>0</value>
							</parameter>
							<parameter>
								<parameterid>center</parameterid>
								<name>Center</name>
								<value>
									<horiz>-0.216993</horiz>
									<vert>0.772727</vert>
								</value>
							</parameter>
							<parameter>
								<parameterid>centerOffset</parameterid>
								<name>Anchor Point</name>
								<value>
									<horiz>0</horiz>
									<vert>0</vert>
								</value>
							</parameter>
						</effect>
					</filter>
					<filter>
						<enabled>FALSE</enabled>
						<effect>
							<name>Drop Shadow</name>
							<effectid>dropshadow</effectid>
							<effectcategory>motion</effectcategory>
							<effecttype>motion</effecttype>
							<mediatype>video</mediatype>
							<parameter>
								<parameterid>offset</parameterid>
								<name>offset</name>
								<valuemin>-100</valuemin>
								<valuemax>100</valuemax>
								<value>2</value>
							</parameter>
							<parameter>
								<parameterid>angle</parameterid>
								<name>angle</name>
								<valuemin>-720</valuemin>
								<valuemax>720</valuemax>
								<value>135</value>
							</parameter>
							<parameter>
								<parameterid>color</parameterid>
								<name>color</name>
								<value>
									<alpha>0</alpha>
									<red>0</red>
									<green>0</green>
									<blue>0</blue>
								</value>
							</parameter>
							<parameter>
								<parameterid>softness</parameterid>
								<name>softness</name>
								<valuemin>0</valuemin>
								<valuemax>100</valuemax>
								<value>10</value>
							</parameter>
							<parameter>
								<parameterid>opacity</parameterid>
								<name>opacity</name>
								<valuemin>0</valuemin>
								<valuemax>100</valuemax>
								<value>50</value>
							</parameter>
						</effect>
					</filter>
					<filter>
						<enabled>FALSE</enabled>
						<effect>
							<name>Motion Blur</name>
							<effectid>motionblur</effectid>
							<effectcategory>motion</effectcategory>
							<effecttype>motion</effecttype>
							<mediatype>video</mediatype>
							<parameter>
								<parameterid>duration</parameterid>
								<name>% Blur</name>
								<valuemin>0</valuemin>
								<valuemax>1000</valuemax>
								<value>500</value>
							</parameter>
							<parameter>
								<parameterid>samples</parameterid>
								<name>Samples</name>
								<valuemin>1</valuemin>
								<valuemax>16</valuemax>
								<value>4</value>
							</parameter>
						</effect>
					</filter>
					<filter>
						<effect>
							<name>Crop</name>
							<effectid>crop</effectid>
							<effectcategory>motion</effectcategory>
							<effecttype>motion</effecttype>
							<mediatype>video</mediatype>
							<parameter>
								<parameterid>left</parameterid>
								<name>left</name>
								<valuemin>0</valuemin>
								<valuemax>100</valuemax>
								<value>0</value>
							</parameter>
							<parameter>
								<parameterid>right</parameterid>
								<name>right</name>
								<valuemin>0</valuemin>
								<valuemax>100</valuemax>
								<value>0</value>
							</parameter>
							<parameter>
								<parameterid>top</parameterid>
								<name>top</name>
								<valuemin>0</valuemin>
								<valuemax>100</valuemax>
								<value>0</value>
							</parameter>
							<parameter>
								<parameterid>bottom</parameterid>
								<name>bottom</name>
								<valuemin>0</valuemin>
								<valuemax>100</valuemax>
								<value>0</value>
							</parameter>
							<parameter>
								<parameterid>edgefeather</parameterid>
								<name>edgefeather</name>
								<valuemin>0</valuemin>
								<valuemax>100</valuemax>
								<value>0</value>
							</parameter>
						</effect>
					</filter>
					<filter>
						<effect>
							<name>Distort</name>
							<effectid>deformation</effectid>
							<effectcategory>motion</effectcategory>
							<effecttype>motion</effecttype>
							<mediatype>video</mediatype>
							<parameter>
								<parameterid>ulcorner</parameterid>
								<name>Upper Left</name>
								<value>
									<horiz>-0.5</horiz>
									<vert>-0.5</vert>
								</value>
							</parameter>
							<parameter>
								<parameterid>urcorner</parameterid>
								<name>Upper Right</name>
								<value>
									<horiz>0.5</horiz>
									<vert>-0.5</vert>
								</value>
							</parameter>
							<parameter>
								<parameterid>lrcorner</parameterid>
								<name>Lower Right</name>
								<value>
									<horiz>0.5</horiz>
									<vert>0.5</vert>
								</value>
							</parameter>
							<parameter>
								<parameterid>llcorner</parameterid>
								<name>Lower Left</name>
								<value>
									<horiz>-0.5</horiz>
									<vert>0.5</vert>
								</value>
							</parameter>
							<parameter>
								<parameterid>aspect</parameterid>
								<name>Aspect</name>
								<valuemin>-10000</valuemin>
								<valuemax>10000</valuemax>
								<value>0</value>
							</parameter>
						</effect>
					</filter>
					<filter>
						<effect>
							<name>Opacity</name>
							<effectid>opacity</effectid>
							<effectcategory>motion</effectcategory>
							<effecttype>motion</effecttype>
							<mediatype>video</mediatype>
							<parameter>
								<parameterid>opacity</parameterid>
								<name>opacity</name>
								<valuemin>0</valuemin>
								<valuemax>100</valuemax>
								<value>100</value>
							</parameter>
						</effect>
					</filter>
					<sourcetrack>
						<mediatype>video</mediatype>
					</sourcetrack>
					<fielddominance>none</fielddominance>
				</clipitem>
				<clipitem id="Tooji Hjelpen2 ">
					<name>Tooji Hjelpen2</name>
					<duration>119</duration>
					<rate>
						<ntsc>FALSE</ntsc>
						<timebase>25</timebase>
					</rate>
					<in>0</in>
					<out>116</out>
					<start>36123</start>
					<end>36239</end>
					<pixelaspectratio>Square</pixelaspectratio>
					<anamorphic>FALSE</anamorphic>
					<alphatype>straight</alphatype>
					<masterclipid>Tooji Hjelpen2 1</masterclipid>
					<logginginfo>
						<scene/>
						<shottake/>
						<lognote/>
						<good>FALSE</good>
					</logginginfo>
					<labels>
						<label2/>
					</labels>
					<comments>
						<mastercomment1/>
						<mastercomment2/>
						<mastercomment3/>
						<mastercomment4/>
					</comments>
					<file id="Tooji Hjelpen2 2">
						<name>Tooji Hjelpen2.mov</name>
						<pathurl>file://localhost/Volumes/SuperSAN1/Prosjekter/MSUB20000012%20FIN%20FREDAG/Profil-grafikk/Bumpere/Tooji%20Hjelpen2.mov</pathurl>
						<rate>
							<timebase>25</timebase>
						</rate>
						<duration>119</duration>
						<timecode>
							<rate>
								<timebase>25</timebase>
							</rate>
							<string>00:00:00:00</string>
							<frame>0</frame>
							<displayformat>NDF</displayformat>
							<source>source</source>
						</timecode>
						<media>
							<video>
								<duration>119</duration>
								<samplecharacteristics>
									<width>1920</width>
									<height>1080</height>
								</samplecharacteristics>
							</video>
							<audio>
								<rate>
									<timebase>48000</timebase>
								</rate>
								<trackcount>2</trackcount>
								<samplecharacteristics>
									<depth>16</depth>
								</samplecharacteristics>
							</audio>
						</media>
					</file>
					<sourcetrack>
						<mediatype>video</mediatype>
					</sourcetrack>
					<fielddominance>upper</fielddominance>
				</clipitem>
				<clipitem id="Pil-victoria.png">
					<name>Pil-victoria.png</name>
					<duration>3026</duration>
					<rate>
						<ntsc>FALSE</ntsc>
						<timebase>25</timebase>
					</rate>
					<in>1499</in>
					<out>1500</out>
					<start>36372</start>
					<end>36373</end>
					<pixelaspectratio>Square</pixelaspectratio>
					<stillframe>TRUE</stillframe>
					<enabled>TRUE</enabled>
					<anamorphic>FALSE</anamorphic>
					<alphatype>straight</alphatype>
					<masterclipid>Pil-victoria.png1</masterclipid>
					<logginginfo>
						<scene/>
						<shottake/>
						<lognote/>
						<good>FALSE</good>
					</logginginfo>
					<labels>
						<label2/>
					</labels>
					<comments>
						<mastercomment1/>
						<mastercomment2/>
						<mastercomment3/>
						<mastercomment4/>
					</comments>
					<file id="Pil-victoria">
						<name>Pil-victoria.png</name>
						<pathurl>file://localhost/Volumes/SuperSAN1/Prosjekter/MSUB20000012%20FIN%20FREDAG/FCP-prosjekter/program%201/Supere%20program%201/Pil-victoria.png</pathurl>
						<rate>
							<timebase>25</timebase>
						</rate>
						<duration>2</duration>
						<width>600</width>
						<height>600</height>
						<media>
							<video>
								<duration>2</duration>
								<stillframe>TRUE</stillframe>
								<samplecharacteristics>
									<width>600</width>
									<height>600</height>
								</samplecharacteristics>
							</video>
						</media>
					</file>
					<filter>
						<effect>
							<name>Basic Motion</name>
							<effectid>basic</effectid>
							<effectcategory>motion</effectcategory>
							<effecttype>motion</effecttype>
							<mediatype>video</mediatype>
							<parameter>
								<parameterid>scale</parameterid>
								<name>Scale</name>
								<valuemin>0</valuemin>
								<valuemax>1000</valuemax>
								<value>60</value>
							</parameter>
							<parameter>
								<parameterid>rotation</parameterid>
								<name>Rotation</name>
								<valuemin>-8640</valuemin>
								<valuemax>8640</valuemax>
								<value>-9</value>
							</parameter>
							<parameter>
								<parameterid>center</parameterid>
								<name>Center</name>
								<value>
									<horiz>-0.791045</horiz>
									<vert>-0.0634328</vert>
								</value>
							</parameter>
							<parameter>
								<parameterid>centerOffset</parameterid>
								<name>Anchor Point</name>
								<value>
									<horiz>0</horiz>
									<vert>0</vert>
								</value>
							</parameter>
						</effect>
					</filter>
					<filter>
						<enabled>FALSE</enabled>
						<effect>
							<name>Drop Shadow</name>
							<effectid>dropshadow</effectid>
							<effectcategory>motion</effectcategory>
							<effecttype>motion</effecttype>
							<mediatype>video</mediatype>
							<parameter>
								<parameterid>offset</parameterid>
								<name>offset</name>
								<valuemin>-100</valuemin>
								<valuemax>100</valuemax>
								<value>2</value>
							</parameter>
							<parameter>
								<parameterid>angle</parameterid>
								<name>angle</name>
								<valuemin>-720</valuemin>
								<valuemax>720</valuemax>
								<value>135</value>
							</parameter>
							<parameter>
								<parameterid>color</parameterid>
								<name>color</name>
								<value>
									<alpha>0</alpha>
									<red>0</red>
									<green>0</green>
									<blue>0</blue>
								</value>
							</parameter>
							<parameter>
								<parameterid>softness</parameterid>
								<name>softness</name>
								<valuemin>0</valuemin>
								<valuemax>100</valuemax>
								<value>10</value>
							</parameter>
							<parameter>
								<parameterid>opacity</parameterid>
								<name>opacity</name>
								<valuemin>0</valuemin>
								<valuemax>100</valuemax>
								<value>50</value>
							</parameter>
						</effect>
					</filter>
					<filter>
						<enabled>FALSE</enabled>
						<effect>
							<name>Motion Blur</name>
							<effectid>motionblur</effectid>
							<effectcategory>motion</effectcategory>
							<effecttype>motion</effecttype>
							<mediatype>video</mediatype>
							<parameter>
								<parameterid>duration</parameterid>
								<name>% Blur</name>
								<valuemin>0</valuemin>
								<valuemax>1000</valuemax>
								<value>500</value>
							</parameter>
							<parameter>
								<parameterid>samples</parameterid>
								<name>Samples</name>
								<valuemin>1</valuemin>
								<valuemax>16</valuemax>
								<value>4</value>
							</parameter>
						</effect>
					</filter>
					<filter>
						<effect>
							<name>Crop</name>
							<effectid>crop</effectid>
							<effectcategory>motion</effectcategory>
							<effecttype>motion</effecttype>
							<mediatype>video</mediatype>
							<parameter>
								<parameterid>left</parameterid>
								<name>left</name>
								<valuemin>0</valuemin>
								<valuemax>100</valuemax>
								<value>0</value>
							</parameter>
							<parameter>
								<parameterid>right</parameterid>
								<name>right</name>
								<valuemin>0</valuemin>
								<valuemax>100</valuemax>
								<value>0</value>
							</parameter>
							<parameter>
								<parameterid>top</parameterid>
								<name>top</name>
								<valuemin>0</valuemin>
								<valuemax>100</valuemax>
								<value>0</value>
							</parameter>
							<parameter>
								<parameterid>bottom</parameterid>
								<name>bottom</name>
								<valuemin>0</valuemin>
								<valuemax>100</valuemax>
								<value>0</value>
							</parameter>
							<parameter>
								<parameterid>edgefeather</parameterid>
								<name>edgefeather</name>
								<valuemin>0</valuemin>
								<valuemax>100</valuemax>
								<value>0</value>
							</parameter>
						</effect>
					</filter>
					<filter>
						<effect>
							<name>Distort</name>
							<effectid>deformation</effectid>
							<effectcategory>motion</effectcategory>
							<effecttype>motion</effecttype>
							<mediatype>video</mediatype>
							<parameter>
								<parameterid>ulcorner</parameterid>
								<name>Upper Left</name>
								<value>
									<horiz>-0.5</horiz>
									<vert>-0.5</vert>
								</value>
							</parameter>
							<parameter>
								<parameterid>urcorner</parameterid>
								<name>Upper Right</name>
								<value>
									<horiz>0.5</horiz>
									<vert>-0.5</vert>
								</value>
							</parameter>
							<parameter>
								<parameterid>lrcorner</parameterid>
								<name>Lower Right</name>
								<value>
									<horiz>0.5</horiz>
									<vert>0.5</vert>
								</value>
							</parameter>
							<parameter>
								<parameterid>llcorner</parameterid>
								<name>Lower Left</name>
								<value>
									<horiz>-0.5</horiz>
									<vert>0.5</vert>
								</value>
							</parameter>
							<parameter>
								<parameterid>aspect</parameterid>
								<name>Aspect</name>
								<valuemin>-10000</valuemin>
								<valuemax>10000</valuemax>
								<value>0</value>
							</parameter>
						</effect>
					</filter>
					<filter>
						<effect>
							<name>Opacity</name>
							<effectid>opacity</effectid>
							<effectcategory>motion</effectcategory>
							<effecttype>motion</effecttype>
							<mediatype>video</mediatype>
							<parameter>
								<parameterid>opacity</parameterid>
								<name>opacity</name>
								<valuemin>0</valuemin>
								<valuemax>100</valuemax>
								<value>100</value>
							</parameter>
						</effect>
					</filter>
					<sourcetrack>
						<mediatype>video</mediatype>
					</sourcetrack>
					<fielddominance>none</fielddominance>
				</clipitem>
				<clipitem id="Pil-victoria.png2">
					<name>Pil-victoria.png</name>
					<duration>3026</duration>
					<rate>
						<ntsc>FALSE</ntsc>
						<timebase>25</timebase>
					</rate>
					<in>1501</in>
					<out>1502</out>
					<start>36375</start>
					<end>36376</end>
					<pixelaspectratio>Square</pixelaspectratio>
					<stillframe>TRUE</stillframe>
					<enabled>TRUE</enabled>
					<anamorphic>FALSE</anamorphic>
					<alphatype>straight</alphatype>
					<masterclipid>Pil-victoria.png1</masterclipid>
					<logginginfo>
						<scene/>
						<shottake/>
						<lognote/>
						<good>FALSE</good>
					</logginginfo>
					<labels>
						<label2/>
					</labels>
					<comments>
						<mastercomment1/>
						<mastercomment2/>
						<mastercomment3/>
						<mastercomment4/>
					</comments>
					<file id="Pil-victoria"/>
					<filter>
						<effect>
							<name>Basic Motion</name>
							<effectid>basic</effectid>
							<effectcategory>motion</effectcategory>
							<effecttype>motion</effecttype>
							<mediatype>video</mediatype>
							<parameter>
								<parameterid>scale</parameterid>
								<name>Scale</name>
								<valuemin>0</valuemin>
								<valuemax>1000</valuemax>
								<value>60</value>
							</parameter>
							<parameter>
								<parameterid>rotation</parameterid>
								<name>Rotation</name>
								<valuemin>-8640</valuemin>
								<valuemax>8640</valuemax>
								<value>-9</value>
							</parameter>
							<parameter>
								<parameterid>center</parameterid>
								<name>Center</name>
								<value>
									<horiz>-0.791045</horiz>
									<vert>-0.0634328</vert>
								</value>
							</parameter>
							<parameter>
								<parameterid>centerOffset</parameterid>
								<name>Anchor Point</name>
								<value>
									<horiz>0</horiz>
									<vert>0</vert>
								</value>
							</parameter>
						</effect>
					</filter>
					<filter>
						<enabled>FALSE</enabled>
						<effect>
							<name>Drop Shadow</name>
							<effectid>dropshadow</effectid>
							<effectcategory>motion</effectcategory>
							<effecttype>motion</effecttype>
							<mediatype>video</mediatype>
							<parameter>
								<parameterid>offset</parameterid>
								<name>offset</name>
								<valuemin>-100</valuemin>
								<valuemax>100</valuemax>
								<value>2</value>
							</parameter>
							<parameter>
								<parameterid>angle</parameterid>
								<name>angle</name>
								<valuemin>-720</valuemin>
								<valuemax>720</valuemax>
								<value>135</value>
							</parameter>
							<parameter>
								<parameterid>color</parameterid>
								<name>color</name>
								<value>
									<alpha>0</alpha>
									<red>0</red>
									<green>0</green>
									<blue>0</blue>
								</value>
							</parameter>
							<parameter>
								<parameterid>softness</parameterid>
								<name>softness</name>
								<valuemin>0</valuemin>
								<valuemax>100</valuemax>
								<value>10</value>
							</parameter>
							<parameter>
								<parameterid>opacity</parameterid>
								<name>opacity</name>
								<valuemin>0</valuemin>
								<valuemax>100</valuemax>
								<value>50</value>
							</parameter>
						</effect>
					</filter>
					<filter>
						<enabled>FALSE</enabled>
						<effect>
							<name>Motion Blur</name>
							<effectid>motionblur</effectid>
							<effectcategory>motion</effectcategory>
							<effecttype>motion</effecttype>
							<mediatype>video</mediatype>
							<parameter>
								<parameterid>duration</parameterid>
								<name>% Blur</name>
								<valuemin>0</valuemin>
								<valuemax>1000</valuemax>
								<value>500</value>
							</parameter>
							<parameter>
								<parameterid>samples</parameterid>
								<name>Samples</name>
								<valuemin>1</valuemin>
								<valuemax>16</valuemax>
								<value>4</value>
							</parameter>
						</effect>
					</filter>
					<filter>
						<effect>
							<name>Crop</name>
							<effectid>crop</effectid>
							<effectcategory>motion</effectcategory>
							<effecttype>motion</effecttype>
							<mediatype>video</mediatype>
							<parameter>
								<parameterid>left</parameterid>
								<name>left</name>
								<valuemin>0</valuemin>
								<valuemax>100</valuemax>
								<value>0</value>
							</parameter>
							<parameter>
								<parameterid>right</parameterid>
								<name>right</name>
								<valuemin>0</valuemin>
								<valuemax>100</valuemax>
								<value>0</value>
							</parameter>
							<parameter>
								<parameterid>top</parameterid>
								<name>top</name>
								<valuemin>0</valuemin>
								<valuemax>100</valuemax>
								<value>0</value>
							</parameter>
							<parameter>
								<parameterid>bottom</parameterid>
								<name>bottom</name>
								<valuemin>0</valuemin>
								<valuemax>100</valuemax>
								<value>0</value>
							</parameter>
							<parameter>
								<parameterid>edgefeather</parameterid>
								<name>edgefeather</name>
								<valuemin>0</valuemin>
								<valuemax>100</valuemax>
								<value>0</value>
							</parameter>
						</effect>
					</filter>
					<filter>
						<effect>
							<name>Distort</name>
							<effectid>deformation</effectid>
							<effectcategory>motion</effectcategory>
							<effecttype>motion</effecttype>
							<mediatype>video</mediatype>
							<parameter>
								<parameterid>ulcorner</parameterid>
								<name>Upper Left</name>
								<value>
									<horiz>-0.5</horiz>
									<vert>-0.5</vert>
								</value>
							</parameter>
							<parameter>
								<parameterid>urcorner</parameterid>
								<name>Upper Right</name>
								<value>
									<horiz>0.5</horiz>
									<vert>-0.5</vert>
								</value>
							</parameter>
							<parameter>
								<parameterid>lrcorner</parameterid>
								<name>Lower Right</name>
								<value>
									<horiz>0.5</horiz>
									<vert>0.5</vert>
								</value>
							</parameter>
							<parameter>
								<parameterid>llcorner</parameterid>
								<name>Lower Left</name>
								<value>
									<horiz>-0.5</horiz>
									<vert>0.5</vert>
								</value>
							</parameter>
							<parameter>
								<parameterid>aspect</parameterid>
								<name>Aspect</name>
								<valuemin>-10000</valuemin>
								<valuemax>10000</valuemax>
								<value>0</value>
							</parameter>
						</effect>
					</filter>
					<filter>
						<effect>
							<name>Opacity</name>
							<effectid>opacity</effectid>
							<effectcategory>motion</effectcategory>
							<effecttype>motion</effecttype>
							<mediatype>video</mediatype>
							<parameter>
								<parameterid>opacity</parameterid>
								<name>opacity</name>
								<valuemin>0</valuemin>
								<valuemax>100</valuemax>
								<value>100</value>
							</parameter>
						</effect>
					</filter>
					<sourcetrack>
						<mediatype>video</mediatype>
					</sourcetrack>
					<fielddominance>none</fielddominance>
				</clipitem>
				<clipitem id="Pil-victoria.png3">
					<name>Pil-victoria.png</name>
					<duration>3026</duration>
					<rate>
						<ntsc>FALSE</ntsc>
						<timebase>25</timebase>
					</rate>
					<in>1504</in>
					<out>1571</out>
					<start>36377</start>
					<end>36444</end>
					<pixelaspectratio>Square</pixelaspectratio>
					<stillframe>TRUE</stillframe>
					<enabled>TRUE</enabled>
					<anamorphic>FALSE</anamorphic>
					<alphatype>straight</alphatype>
					<masterclipid>Pil-victoria.png1</masterclipid>
					<logginginfo>
						<scene/>
						<shottake/>
						<lognote/>
						<good>FALSE</good>
					</logginginfo>
					<labels>
						<label2/>
					</labels>
					<comments>
						<mastercomment1/>
						<mastercomment2/>
						<mastercomment3/>
						<mastercomment4/>
					</comments>
					<file id="Pil-victoria"/>
					<filter>
						<effect>
							<name>Basic Motion</name>
							<effectid>basic</effectid>
							<effectcategory>motion</effectcategory>
							<effecttype>motion</effecttype>
							<mediatype>video</mediatype>
							<parameter>
								<parameterid>scale</parameterid>
								<name>Scale</name>
								<valuemin>0</valuemin>
								<valuemax>1000</valuemax>
								<value>60</value>
							</parameter>
							<parameter>
								<parameterid>rotation</parameterid>
								<name>Rotation</name>
								<valuemin>-8640</valuemin>
								<valuemax>8640</valuemax>
								<value>-9</value>
							</parameter>
							<parameter>
								<parameterid>center</parameterid>
								<name>Center</name>
								<value>
									<horiz>-0.791045</horiz>
									<vert>-0.0634328</vert>
								</value>
							</parameter>
							<parameter>
								<parameterid>centerOffset</parameterid>
								<name>Anchor Point</name>
								<value>
									<horiz>0</horiz>
									<vert>0</vert>
								</value>
							</parameter>
						</effect>
					</filter>
					<filter>
						<enabled>FALSE</enabled>
						<effect>
							<name>Drop Shadow</name>
							<effectid>dropshadow</effectid>
							<effectcategory>motion</effectcategory>
							<effecttype>motion</effecttype>
							<mediatype>video</mediatype>
							<parameter>
								<parameterid>offset</parameterid>
								<name>offset</name>
								<valuemin>-100</valuemin>
								<valuemax>100</valuemax>
								<value>2</value>
							</parameter>
							<parameter>
								<parameterid>angle</parameterid>
								<name>angle</name>
								<valuemin>-720</valuemin>
								<valuemax>720</valuemax>
								<value>135</value>
							</parameter>
							<parameter>
								<parameterid>color</parameterid>
								<name>color</name>
								<value>
									<alpha>0</alpha>
									<red>0</red>
									<green>0</green>
									<blue>0</blue>
								</value>
							</parameter>
							<parameter>
								<parameterid>softness</parameterid>
								<name>softness</name>
								<valuemin>0</valuemin>
								<valuemax>100</valuemax>
								<value>10</value>
							</parameter>
							<parameter>
								<parameterid>opacity</parameterid>
								<name>opacity</name>
								<valuemin>0</valuemin>
								<valuemax>100</valuemax>
								<value>50</value>
							</parameter>
						</effect>
					</filter>
					<filter>
						<enabled>FALSE</enabled>
						<effect>
							<name>Motion Blur</name>
							<effectid>motionblur</effectid>
							<effectcategory>motion</effectcategory>
							<effecttype>motion</effecttype>
							<mediatype>video</mediatype>
							<parameter>
								<parameterid>duration</parameterid>
								<name>% Blur</name>
								<valuemin>0</valuemin>
								<valuemax>1000</valuemax>
								<value>500</value>
							</parameter>
							<parameter>
								<parameterid>samples</parameterid>
								<name>Samples</name>
								<valuemin>1</valuemin>
								<valuemax>16</valuemax>
								<value>4</value>
							</parameter>
						</effect>
					</filter>
					<filter>
						<effect>
							<name>Crop</name>
							<effectid>crop</effectid>
							<effectcategory>motion</effectcategory>
							<effecttype>motion</effecttype>
							<mediatype>video</mediatype>
							<parameter>
								<parameterid>left</parameterid>
								<name>left</name>
								<valuemin>0</valuemin>
								<valuemax>100</valuemax>
								<value>0</value>
							</parameter>
							<parameter>
								<parameterid>right</parameterid>
								<name>right</name>
								<valuemin>0</valuemin>
								<valuemax>100</valuemax>
								<value>0</value>
							</parameter>
							<parameter>
								<parameterid>top</parameterid>
								<name>top</name>
								<valuemin>0</valuemin>
								<valuemax>100</valuemax>
								<value>0</value>
							</parameter>
							<parameter>
								<parameterid>bottom</parameterid>
								<name>bottom</name>
								<valuemin>0</valuemin>
								<valuemax>100</valuemax>
								<value>0</value>
							</parameter>
							<parameter>
								<parameterid>edgefeather</parameterid>
								<name>edgefeather</name>
								<valuemin>0</valuemin>
								<valuemax>100</valuemax>
								<value>0</value>
							</parameter>
						</effect>
					</filter>
					<filter>
						<effect>
							<name>Distort</name>
							<effectid>deformation</effectid>
							<effectcategory>motion</effectcategory>
							<effecttype>motion</effecttype>
							<mediatype>video</mediatype>
							<parameter>
								<parameterid>ulcorner</parameterid>
								<name>Upper Left</name>
								<value>
									<horiz>-0.5</horiz>
									<vert>-0.5</vert>
								</value>
							</parameter>
							<parameter>
								<parameterid>urcorner</parameterid>
								<name>Upper Right</name>
								<value>
									<horiz>0.5</horiz>
									<vert>-0.5</vert>
								</value>
							</parameter>
							<parameter>
								<parameterid>lrcorner</parameterid>
								<name>Lower Right</name>
								<value>
									<horiz>0.5</horiz>
									<vert>0.5</vert>
								</value>
							</parameter>
							<parameter>
								<parameterid>llcorner</parameterid>
								<name>Lower Left</name>
								<value>
									<horiz>-0.5</horiz>
									<vert>0.5</vert>
								</value>
							</parameter>
							<parameter>
								<parameterid>aspect</parameterid>
								<name>Aspect</name>
								<valuemin>-10000</valuemin>
								<valuemax>10000</valuemax>
								<value>0</value>
							</parameter>
						</effect>
					</filter>
					<filter>
						<effect>
							<name>Opacity</name>
							<effectid>opacity</effectid>
							<effectcategory>motion</effectcategory>
							<effecttype>motion</effecttype>
							<mediatype>video</mediatype>
							<parameter>
								<parameterid>opacity</parameterid>
								<name>opacity</name>
								<valuemin>0</valuemin>
								<valuemax>100</valuemax>
								<value>100</value>
							</parameter>
						</effect>
					</filter>
					<sourcetrack>
						<mediatype>video</mediatype>
					</sourcetrack>
					<fielddominance>none</fielddominance>
				</clipitem>
				<clipitem id="ToojiHjelpen-ut">
					<name>ToojiHjelpen-ut</name>
					<duration>88</duration>
					<rate>
						<ntsc>FALSE</ntsc>
						<timebase>25</timebase>
					</rate>
					<in>17</in>
					<out>45</out>
					<start>39424</start>
					<end>39452</end>
					<pixelaspectratio>Square</pixelaspectratio>
					<enabled>TRUE</enabled>
					<anamorphic>FALSE</anamorphic>
					<alphatype>none</alphatype>
					<masterclipid>ToojiHjelpen-ut1</masterclipid>
					<logginginfo>
						<scene/>
						<shottake/>
						<lognote/>
						<good>FALSE</good>
					</logginginfo>
					<labels>
						<label2/>
					</labels>
					<comments>
						<mastercomment1/>
						<mastercomment2/>
						<mastercomment3/>
						<mastercomment4/>
					</comments>
					<file id="ToojiHjelpen-ut2">
						<name>ToojiHjelpen-ut.mov</name>
						<pathurl>file://localhost/Volumes/SuperSAN1/Prosjekter/MSUB20000012%20FIN%20FREDAG/Profil-grafikk/Bumpere/ToojiHjelpen-ut.mov</pathurl>
						<rate>
							<timebase>25</timebase>
						</rate>
						<duration>88</duration>
						<timecode>
							<rate>
								<timebase>25</timebase>
							</rate>
							<string>00:00:26:18</string>
							<frame>668</frame>
							<displayformat>NDF</displayformat>
							<source>source</source>
						</timecode>
						<media>
							<video>
								<duration>88</duration>
								<samplecharacteristics>
									<width>1920</width>
									<height>1080</height>
								</samplecharacteristics>
							</video>
							<audio>
								<rate>
									<timebase>48000</timebase>
								</rate>
								<trackcount>2</trackcount>
								<samplecharacteristics>
									<depth>24</depth>
								</samplecharacteristics>
							</audio>
						</media>
					</file>
					<sourcetrack>
						<mediatype>video</mediatype>
					</sourcetrack>
					<link>
						<linkclipref>ToojiHjelpen-ut</linkclipref>
						<mediatype>video</mediatype>
						<trackindex>5</trackindex>
						<clipindex>19</clipindex>
					</link>
					<link>
						<linkclipref>ToojiHjelpen-ut3</linkclipref>
						<mediatype>audio</mediatype>
						<trackindex>5</trackindex>
						<clipindex>32</clipindex>
					</link>
					<link>
						<linkclipref>ToojiHjelpen-ut4</linkclipref>
						<mediatype>audio</mediatype>
						<trackindex>6</trackindex>
						<clipindex>28</clipindex>
					</link>
					<fielddominance>upper</fielddominance>
				</clipitem>
				<clipitem id="STJERNE_wipe3">
					<name>STJERNE_wipe</name>
					<duration>55</duration>
					<rate>
						<ntsc>FALSE</ntsc>
						<timebase>25</timebase>
					</rate>
					<in>0</in>
					<out>55</out>
					<start>40094</start>
					<end>40149</end>
					<pixelaspectratio>Square</pixelaspectratio>
					<anamorphic>FALSE</anamorphic>
					<alphatype>straight</alphatype>
					<masterclipid>STJERNE_wipe2</masterclipid>
					<logginginfo>
						<scene/>
						<shottake/>
						<lognote/>
						<good>FALSE</good>
					</logginginfo>
					<labels>
						<label2/>
					</labels>
					<comments>
						<mastercomment1/>
						<mastercomment2/>
						<mastercomment3/>
						<mastercomment4/>
					</comments>
					<file id="STJERNE_wipe"/>
					<sourcetrack>
						<mediatype>video</mediatype>
					</sourcetrack>
					<fielddominance>upper</fielddominance>
				</clipitem>
				<clipitem id="tante-taco.png">
					<name>tante-taco.png</name>
					<duration>3026</duration>
					<rate>
						<ntsc>FALSE</ntsc>
						<timebase>25</timebase>
					</rate>
					<in>1500</in>
					<out>1556</out>
					<start>40321</start>
					<end>40377</end>
					<pixelaspectratio>Square</pixelaspectratio>
					<stillframe>TRUE</stillframe>
					<enabled>TRUE</enabled>
					<anamorphic>FALSE</anamorphic>
					<alphatype>straight</alphatype>
					<masterclipid>tante-taco.png1</masterclipid>
					<logginginfo>
						<scene/>
						<shottake/>
						<lognote/>
						<good>FALSE</good>
					</logginginfo>
					<labels>
						<label2/>
					</labels>
					<comments>
						<mastercomment1/>
						<mastercomment2/>
						<mastercomment3/>
						<mastercomment4/>
					</comments>
					<file id="tante-taco">
						<name>tante-taco.png</name>
						<pathurl>file://localhost/Volumes/SuperSAN1/Prosjekter/MSUB20000012%20FIN%20FREDAG/FCP-prosjekter/program%201/Supere%20program%201/tante-taco.png</pathurl>
						<rate>
							<timebase>25</timebase>
						</rate>
						<duration>2</duration>
						<width>1243</width>
						<height>393</height>
						<media>
							<video>
								<duration>2</duration>
								<stillframe>TRUE</stillframe>
								<samplecharacteristics>
									<width>1243</width>
									<height>393</height>
								</samplecharacteristics>
							</video>
						</media>
					</file>
					<filter>
						<effect>
							<name>Basic Motion</name>
							<effectid>basic</effectid>
							<effectcategory>motion</effectcategory>
							<effecttype>motion</effecttype>
							<mediatype>video</mediatype>
							<parameter>
								<parameterid>scale</parameterid>
								<name>Scale</name>
								<valuemin>0</valuemin>
								<valuemax>1000</valuemax>
								<value>103</value>
							</parameter>
							<parameter>
								<parameterid>rotation</parameterid>
								<name>Rotation</name>
								<valuemin>-8640</valuemin>
								<valuemax>8640</valuemax>
								<value>-9</value>
							</parameter>
							<parameter>
								<parameterid>center</parameterid>
								<name>Center</name>
								<value>
									<horiz>-0.249551</horiz>
									<vert>-0.789773</vert>
								</value>
							</parameter>
							<parameter>
								<parameterid>centerOffset</parameterid>
								<name>Anchor Point</name>
								<value>
									<horiz>0</horiz>
									<vert>0</vert>
								</value>
							</parameter>
						</effect>
					</filter>
					<filter>
						<enabled>FALSE</enabled>
						<effect>
							<name>Drop Shadow</name>
							<effectid>dropshadow</effectid>
							<effectcategory>motion</effectcategory>
							<effecttype>motion</effecttype>
							<mediatype>video</mediatype>
							<parameter>
								<parameterid>offset</parameterid>
								<name>offset</name>
								<valuemin>-100</valuemin>
								<valuemax>100</valuemax>
								<value>2</value>
							</parameter>
							<parameter>
								<parameterid>angle</parameterid>
								<name>angle</name>
								<valuemin>-720</valuemin>
								<valuemax>720</valuemax>
								<value>135</value>
							</parameter>
							<parameter>
								<parameterid>color</parameterid>
								<name>color</name>
								<value>
									<alpha>0</alpha>
									<red>0</red>
									<green>0</green>
									<blue>0</blue>
								</value>
							</parameter>
							<parameter>
								<parameterid>softness</parameterid>
								<name>softness</name>
								<valuemin>0</valuemin>
								<valuemax>100</valuemax>
								<value>10</value>
							</parameter>
							<parameter>
								<parameterid>opacity</parameterid>
								<name>opacity</name>
								<valuemin>0</valuemin>
								<valuemax>100</valuemax>
								<value>50</value>
							</parameter>
						</effect>
					</filter>
					<filter>
						<enabled>FALSE</enabled>
						<effect>
							<name>Motion Blur</name>
							<effectid>motionblur</effectid>
							<effectcategory>motion</effectcategory>
							<effecttype>motion</effecttype>
							<mediatype>video</mediatype>
							<parameter>
								<parameterid>duration</parameterid>
								<name>% Blur</name>
								<valuemin>0</valuemin>
								<valuemax>1000</valuemax>
								<value>500</value>
							</parameter>
							<parameter>
								<parameterid>samples</parameterid>
								<name>Samples</name>
								<valuemin>1</valuemin>
								<valuemax>16</valuemax>
								<value>4</value>
							</parameter>
						</effect>
					</filter>
					<filter>
						<effect>
							<name>Crop</name>
							<effectid>crop</effectid>
							<effectcategory>motion</effectcategory>
							<effecttype>motion</effecttype>
							<mediatype>video</mediatype>
							<parameter>
								<parameterid>left</parameterid>
								<name>left</name>
								<valuemin>0</valuemin>
								<valuemax>100</valuemax>
								<value>0</value>
							</parameter>
							<parameter>
								<parameterid>right</parameterid>
								<name>right</name>
								<valuemin>0</valuemin>
								<valuemax>100</valuemax>
								<value>0</value>
							</parameter>
							<parameter>
								<parameterid>top</parameterid>
								<name>top</name>
								<valuemin>0</valuemin>
								<valuemax>100</valuemax>
								<value>0</value>
							</parameter>
							<parameter>
								<parameterid>bottom</parameterid>
								<name>bottom</name>
								<valuemin>0</valuemin>
								<valuemax>100</valuemax>
								<value>0</value>
							</parameter>
							<parameter>
								<parameterid>edgefeather</parameterid>
								<name>edgefeather</name>
								<valuemin>0</valuemin>
								<valuemax>100</valuemax>
								<value>0</value>
							</parameter>
						</effect>
					</filter>
					<filter>
						<effect>
							<name>Distort</name>
							<effectid>deformation</effectid>
							<effectcategory>motion</effectcategory>
							<effecttype>motion</effecttype>
							<mediatype>video</mediatype>
							<parameter>
								<parameterid>ulcorner</parameterid>
								<name>Upper Left</name>
								<value>
									<horiz>-0.5</horiz>
									<vert>-0.5</vert>
								</value>
							</parameter>
							<parameter>
								<parameterid>urcorner</parameterid>
								<name>Upper Right</name>
								<value>
									<horiz>0.5</horiz>
									<vert>-0.5</vert>
								</value>
							</parameter>
							<parameter>
								<parameterid>lrcorner</parameterid>
								<name>Lower Right</name>
								<value>
									<horiz>0.5</horiz>
									<vert>0.5</vert>
								</value>
							</parameter>
							<parameter>
								<parameterid>llcorner</parameterid>
								<name>Lower Left</name>
								<value>
									<horiz>-0.5</horiz>
									<vert>0.5</vert>
								</value>
							</parameter>
							<parameter>
								<parameterid>aspect</parameterid>
								<name>Aspect</name>
								<valuemin>-10000</valuemin>
								<valuemax>10000</valuemax>
								<value>0</value>
							</parameter>
						</effect>
					</filter>
					<filter>
						<effect>
							<name>Opacity</name>
							<effectid>opacity</effectid>
							<effectcategory>motion</effectcategory>
							<effecttype>motion</effecttype>
							<mediatype>video</mediatype>
							<parameter>
								<parameterid>opacity</parameterid>
								<name>opacity</name>
								<valuemin>0</valuemin>
								<valuemax>100</valuemax>
								<value>100</value>
							</parameter>
						</effect>
					</filter>
					<sourcetrack>
						<mediatype>video</mediatype>
					</sourcetrack>
					<fielddominance>none</fielddominance>
				</clipitem>
				<generatoritem id="NRK Text1">
					<name>NRK Text</name>
					<duration>3000</duration>
					<rate>
						<ntsc>FALSE</ntsc>
						<timebase>25</timebase>
					</rate>
					<in>1375</in>
					<out>1461</out>
					<start>40919</start>
					<end>41005</end>
					<enabled>TRUE</enabled>
					<anamorphic>FALSE</anamorphic>
					<alphatype>black</alphatype>
					<effect>
						<name>NRK Text</name>
						<effectid>NRK Text</effectid>
						<effectcategory>Text</effectcategory>
						<effecttype>generator</effecttype>
						<mediatype>video</mediatype>
						<parameter>
							<parameterid>part1</parameterid>
							<name>Text Settings</name>
							<value/>
						</parameter>
						<parameter>
							<parameterid>str</parameterid>
							<name>Text</name>
							<value>Vil DU komme på TV?&#13;</value>
						</parameter>
						<parameter>
							<parameterid>font</parameterid>
							<name>Font</name>
							<value>Changing</value>
						</parameter>
						<parameter>
							<parameterid>style</parameterid>
							<name>Style</name>
							<valuemin>1</valuemin>
							<valuemax>4</valuemax>
							<valuelist>
								<valueentry>
									<name>Plain</name>
									<value>1</value>
								</valueentry>
								<valueentry>
									<name>Bold</name>
									<value>2</value>
								</valueentry>
								<valueentry>
									<name>Italic</name>
									<value>3</value>
								</valueentry>
								<valueentry>
									<name>Bold/Italic</name>
									<value>4</value>
								</valueentry>
							</valuelist>
							<value>1</value>
						</parameter>
						<parameter>
							<parameterid>align</parameterid>
							<name>Alignment</name>
							<valuemin>1</valuemin>
							<valuemax>3</valuemax>
							<valuelist>
								<valueentry>
									<name>Left</name>
									<value>1</value>
								</valueentry>
								<valueentry>
									<name>Center</name>
									<value>2</value>
								</valueentry>
								<valueentry>
									<name>Right</name>
									<value>3</value>
								</valueentry>
							</valuelist>
							<value>2</value>
						</parameter>
						<parameter>
							<parameterid>size</parameterid>
							<name>Size</name>
							<valuemin>0</valuemin>
							<valuemax>200</valuemax>
							<value>64</value>
						</parameter>
						<parameter>
							<parameterid>track</parameterid>
							<name>Tracking</name>
							<valuemin>0</valuemin>
							<valuemax>100</valuemax>
							<value>1</value>
						</parameter>
						<parameter>
							<parameterid>lead</parameterid>
							<name>Leading</name>
							<valuemin>-100</valuemin>
							<valuemax>100</valuemax>
							<value>0</value>
						</parameter>
						<parameter>
							<parameterid>aspect</parameterid>
							<name>Aspect</name>
							<valuemin>0</valuemin>
							<valuemax>4</valuemax>
							<value>1</value>
						</parameter>
						<parameter>
							<parameterid>linewidth</parameterid>
							<name>Line Width</name>
							<valuemin>0</valuemin>
							<valuemax>200</valuemax>
							<value>0</value>
						</parameter>
						<parameter>
							<parameterid>linesoft</parameterid>
							<name>Line Softness</name>
							<valuemin>0</valuemin>
							<valuemax>100</valuemax>
							<value>4</value>
						</parameter>
						<parameter>
							<parameterid>textopacity</parameterid>
							<name>Text Opacity</name>
							<valuemin>0</valuemin>
							<valuemax>100</valuemax>
							<value>100</value>
						</parameter>
						<parameter>
							<parameterid>center</parameterid>
							<name>Center</name>
							<value>
								<horiz>0</horiz>
								<vert>0</vert>
							</value>
						</parameter>
						<parameter>
							<parameterid>textcolor</parameterid>
							<name>Text Color</name>
							<value>
								<alpha>255</alpha>
								<red>255</red>
								<green>255</green>
								<blue>255</blue>
							</value>
						</parameter>
						<parameter>
							<parameterid>supertext</parameterid>
							<name>Text Graphic</name>
						</parameter>
						<parameter>
							<parameterid>linecolor</parameterid>
							<name>Line Color</name>
							<value>
								<alpha>255</alpha>
								<red>0</red>
								<green>0</green>
								<blue>0</blue>
							</value>
						</parameter>
						<parameter>
							<parameterid>part2</parameterid>
							<name>Background Settings</name>
							<value/>
						</parameter>
						<parameter>
							<parameterid>xscale</parameterid>
							<name>Horizontal Size</name>
							<valuemin>0</valuemin>
							<valuemax>200</valuemax>
							<value>0</value>
						</parameter>
						<parameter>
							<parameterid>yscale</parameterid>
							<name>Vertical Size</name>
							<valuemin>0</valuemin>
							<valuemax>200</valuemax>
							<value>0</value>
						</parameter>
						<parameter>
							<parameterid>xoffset</parameterid>
							<name>Horizontal Offset</name>
							<valuemin>-100</valuemin>
							<valuemax>100</valuemax>
							<value>0</value>
						</parameter>
						<parameter>
							<parameterid>yoffset</parameterid>
							<name>Vertical Offset</name>
							<valuemin>-100</valuemin>
							<valuemax>100</valuemax>
							<value>0</value>
						</parameter>
						<parameter>
							<parameterid>backsoft</parameterid>
							<name>Back Soft</name>
							<valuemin>0</valuemin>
							<valuemax>100</valuemax>
							<value>0</value>
						</parameter>
						<parameter>
							<parameterid>backopacity</parameterid>
							<name>Back Opacity</name>
							<valuemin>0</valuemin>
							<valuemax>100</valuemax>
							<value>50</value>
						</parameter>
						<parameter>
							<parameterid>backcolor</parameterid>
							<name>Back Color</name>
							<value>
								<alpha>255</alpha>
								<red>255</red>
								<green>255</green>
								<blue>255</blue>
							</value>
						</parameter>
						<parameter>
							<parameterid>crop</parameterid>
							<name>Crop</name>
							<value>FALSE</value>
						</parameter>
						<parameter>
							<parameterid>autokern</parameterid>
							<name>Auto Kerning</name>
							<value>TRUE</value>
						</parameter>
					</effect>
					<filter>
						<effect>
							<name>Basic Motion</name>
							<effectid>basic</effectid>
							<effectcategory>motion</effectcategory>
							<effecttype>motion</effecttype>
							<mediatype>video</mediatype>
							<parameter>
								<parameterid>scale</parameterid>
								<name>Scale</name>
								<valuemin>0</valuemin>
								<valuemax>1000</valuemax>
								<value>100</value>
							</parameter>
							<parameter>
								<parameterid>rotation</parameterid>
								<name>Rotation</name>
								<valuemin>-8640</valuemin>
								<valuemax>8640</valuemax>
								<value>0</value>
							</parameter>
							<parameter>
								<parameterid>center</parameterid>
								<name>Center</name>
								<value>
									<horiz>0</horiz>
									<vert>-0.144628</vert>
								</value>
							</parameter>
							<parameter>
								<parameterid>centerOffset</parameterid>
								<name>Anchor Point</name>
								<value>
									<horiz>0</horiz>
									<vert>0</vert>
								</value>
							</parameter>
						</effect>
					</filter>
					<filter>
						<enabled>TRUE</enabled>
						<effect>
							<name>Drop Shadow</name>
							<effectid>dropshadow</effectid>
							<effectcategory>motion</effectcategory>
							<effecttype>motion</effecttype>
							<mediatype>video</mediatype>
							<parameter>
								<parameterid>offset</parameterid>
								<name>offset</name>
								<valuemin>-100</valuemin>
								<valuemax>100</valuemax>
								<value>2</value>
							</parameter>
							<parameter>
								<parameterid>angle</parameterid>
								<name>angle</name>
								<valuemin>-720</valuemin>
								<valuemax>720</valuemax>
								<value>135</value>
							</parameter>
							<parameter>
								<parameterid>color</parameterid>
								<name>color</name>
								<value>
									<alpha>0</alpha>
									<red>0</red>
									<green>0</green>
									<blue>0</blue>
								</value>
							</parameter>
							<parameter>
								<parameterid>softness</parameterid>
								<name>softness</name>
								<valuemin>0</valuemin>
								<valuemax>100</valuemax>
								<value>10</value>
							</parameter>
							<parameter>
								<parameterid>opacity</parameterid>
								<name>opacity</name>
								<valuemin>0</valuemin>
								<valuemax>100</valuemax>
								<value>100</value>
							</parameter>
						</effect>
					</filter>
					<filter>
						<enabled>FALSE</enabled>
						<effect>
							<name>Motion Blur</name>
							<effectid>motionblur</effectid>
							<effectcategory>motion</effectcategory>
							<effecttype>motion</effecttype>
							<mediatype>video</mediatype>
							<parameter>
								<parameterid>duration</parameterid>
								<name>% Blur</name>
								<valuemin>0</valuemin>
								<valuemax>1000</valuemax>
								<value>500</value>
							</parameter>
							<parameter>
								<parameterid>samples</parameterid>
								<name>Samples</name>
								<valuemin>1</valuemin>
								<valuemax>16</valuemax>
								<value>4</value>
							</parameter>
						</effect>
					</filter>
					<filter>
						<effect>
							<name>Crop</name>
							<effectid>crop</effectid>
							<effectcategory>motion</effectcategory>
							<effecttype>motion</effecttype>
							<mediatype>video</mediatype>
							<parameter>
								<parameterid>left</parameterid>
								<name>left</name>
								<valuemin>0</valuemin>
								<valuemax>100</valuemax>
								<value>0</value>
							</parameter>
							<parameter>
								<parameterid>right</parameterid>
								<name>right</name>
								<valuemin>0</valuemin>
								<valuemax>100</valuemax>
								<value>0</value>
							</parameter>
							<parameter>
								<parameterid>top</parameterid>
								<name>top</name>
								<valuemin>0</valuemin>
								<valuemax>100</valuemax>
								<value>0</value>
							</parameter>
							<parameter>
								<parameterid>bottom</parameterid>
								<name>bottom</name>
								<valuemin>0</valuemin>
								<valuemax>100</valuemax>
								<value>0</value>
							</parameter>
							<parameter>
								<parameterid>edgefeather</parameterid>
								<name>edgefeather</name>
								<valuemin>0</valuemin>
								<valuemax>100</valuemax>
								<value>0</value>
							</parameter>
						</effect>
					</filter>
					<filter>
						<effect>
							<name>Distort</name>
							<effectid>deformation</effectid>
							<effectcategory>motion</effectcategory>
							<effecttype>motion</effecttype>
							<mediatype>video</mediatype>
							<parameter>
								<parameterid>ulcorner</parameterid>
								<name>Upper Left</name>
								<value>
									<horiz>-0.5</horiz>
									<vert>-0.5</vert>
								</value>
							</parameter>
							<parameter>
								<parameterid>urcorner</parameterid>
								<name>Upper Right</name>
								<value>
									<horiz>0.5</horiz>
									<vert>-0.5</vert>
								</value>
							</parameter>
							<parameter>
								<parameterid>lrcorner</parameterid>
								<name>Lower Right</name>
								<value>
									<horiz>0.5</horiz>
									<vert>0.5</vert>
								</value>
							</parameter>
							<parameter>
								<parameterid>llcorner</parameterid>
								<name>Lower Left</name>
								<value>
									<horiz>-0.5</horiz>
									<vert>0.5</vert>
								</value>
							</parameter>
							<parameter>
								<parameterid>aspect</parameterid>
								<name>Aspect</name>
								<valuemin>-10000</valuemin>
								<valuemax>10000</valuemax>
								<value>0</value>
							</parameter>
						</effect>
					</filter>
					<filter>
						<effect>
							<name>Opacity</name>
							<effectid>opacity</effectid>
							<effectcategory>motion</effectcategory>
							<effecttype>motion</effecttype>
							<mediatype>video</mediatype>
							<parameter>
								<parameterid>opacity</parameterid>
								<name>opacity</name>
								<valuemin>0</valuemin>
								<valuemax>100</valuemax>
								<value>100</value>
							</parameter>
						</effect>
					</filter>
					<sourcetrack>
						<mediatype>video</mediatype>
					</sourcetrack>
				</generatoritem>
				<clipitem id="mms-ff-1987.png">
					<name>mms-ff-1987.png</name>
					<duration>3026</duration>
					<rate>
						<ntsc>FALSE</ntsc>
						<timebase>25</timebase>
					</rate>
					<in>1500</in>
					<out>1590</out>
					<start>41603</start>
					<end>41693</end>
					<pixelaspectratio>Square</pixelaspectratio>
					<stillframe>TRUE</stillframe>
					<enabled>TRUE</enabled>
					<anamorphic>FALSE</anamorphic>
					<alphatype>straight</alphatype>
					<masterclipid>mms-ff-1987.png1</masterclipid>
					<logginginfo>
						<scene/>
						<shottake/>
						<lognote/>
						<good>FALSE</good>
					</logginginfo>
					<labels>
						<label2/>
					</labels>
					<comments>
						<mastercomment1/>
						<mastercomment2/>
						<mastercomment3/>
						<mastercomment4/>
					</comments>
					<file id="mms-ff-1987 ">
						<name>mms-ff-1987.png</name>
						<pathurl>file://localhost/Volumes/SuperSAN1/Prosjekter/MSUB20000012%20FIN%20FREDAG/FCP-prosjekter/program%201/Supere%20program%201/mms-ff-1987.png</pathurl>
						<rate>
							<timebase>25</timebase>
						</rate>
						<duration>2</duration>
						<width>1243</width>
						<height>393</height>
						<media>
							<video>
								<duration>2</duration>
								<stillframe>TRUE</stillframe>
								<samplecharacteristics>
									<width>1243</width>
									<height>393</height>
								</samplecharacteristics>
							</video>
						</media>
					</file>
					<filter>
						<effect>
							<name>Basic Motion</name>
							<effectid>basic</effectid>
							<effectcategory>motion</effectcategory>
							<effecttype>motion</effecttype>
							<mediatype>video</mediatype>
							<parameter>
								<parameterid>scale</parameterid>
								<name>Scale</name>
								<valuemin>0</valuemin>
								<valuemax>1000</valuemax>
								<value>70</value>
							</parameter>
							<parameter>
								<parameterid>rotation</parameterid>
								<name>Rotation</name>
								<valuemin>-8640</valuemin>
								<valuemax>8640</valuemax>
								<value>-5</value>
							</parameter>
							<parameter>
								<parameterid>center</parameterid>
								<name>Center</name>
								<value>
									<horiz>-0.247756</horiz>
									<vert>-1.02273</vert>
								</value>
							</parameter>
							<parameter>
								<parameterid>centerOffset</parameterid>
								<name>Anchor Point</name>
								<value>
									<horiz>0</horiz>
									<vert>0</vert>
								</value>
							</parameter>
						</effect>
					</filter>
					<filter>
						<enabled>FALSE</enabled>
						<effect>
							<name>Drop Shadow</name>
							<effectid>dropshadow</effectid>
							<effectcategory>motion</effectcategory>
							<effecttype>motion</effecttype>
							<mediatype>video</mediatype>
							<parameter>
								<parameterid>offset</parameterid>
								<name>offset</name>
								<valuemin>-100</valuemin>
								<valuemax>100</valuemax>
								<value>2</value>
							</parameter>
							<parameter>
								<parameterid>angle</parameterid>
								<name>angle</name>
								<valuemin>-720</valuemin>
								<valuemax>720</valuemax>
								<value>135</value>
							</parameter>
							<parameter>
								<parameterid>color</parameterid>
								<name>color</name>
								<value>
									<alpha>0</alpha>
									<red>0</red>
									<green>0</green>
									<blue>0</blue>
								</value>
							</parameter>
							<parameter>
								<parameterid>softness</parameterid>
								<name>softness</name>
								<valuemin>0</valuemin>
								<valuemax>100</valuemax>
								<value>10</value>
							</parameter>
							<parameter>
								<parameterid>opacity</parameterid>
								<name>opacity</name>
								<valuemin>0</valuemin>
								<valuemax>100</valuemax>
								<value>50</value>
							</parameter>
						</effect>
					</filter>
					<filter>
						<enabled>FALSE</enabled>
						<effect>
							<name>Motion Blur</name>
							<effectid>motionblur</effectid>
							<effectcategory>motion</effectcategory>
							<effecttype>motion</effecttype>
							<mediatype>video</mediatype>
							<parameter>
								<parameterid>duration</parameterid>
								<name>% Blur</name>
								<valuemin>0</valuemin>
								<valuemax>1000</valuemax>
								<value>500</value>
							</parameter>
							<parameter>
								<parameterid>samples</parameterid>
								<name>Samples</name>
								<valuemin>1</valuemin>
								<valuemax>16</valuemax>
								<value>4</value>
							</parameter>
						</effect>
					</filter>
					<filter>
						<effect>
							<name>Crop</name>
							<effectid>crop</effectid>
							<effectcategory>motion</effectcategory>
							<effecttype>motion</effecttype>
							<mediatype>video</mediatype>
							<parameter>
								<parameterid>left</parameterid>
								<name>left</name>
								<valuemin>0</valuemin>
								<valuemax>100</valuemax>
								<value>0</value>
							</parameter>
							<parameter>
								<parameterid>right</parameterid>
								<name>right</name>
								<valuemin>0</valuemin>
								<valuemax>100</valuemax>
								<value>0</value>
							</parameter>
							<parameter>
								<parameterid>top</parameterid>
								<name>top</name>
								<valuemin>0</valuemin>
								<valuemax>100</valuemax>
								<value>0</value>
							</parameter>
							<parameter>
								<parameterid>bottom</parameterid>
								<name>bottom</name>
								<valuemin>0</valuemin>
								<valuemax>100</valuemax>
								<value>0</value>
							</parameter>
							<parameter>
								<parameterid>edgefeather</parameterid>
								<name>edgefeather</name>
								<valuemin>0</valuemin>
								<valuemax>100</valuemax>
								<value>0</value>
							</parameter>
						</effect>
					</filter>
					<filter>
						<effect>
							<name>Distort</name>
							<effectid>deformation</effectid>
							<effectcategory>motion</effectcategory>
							<effecttype>motion</effecttype>
							<mediatype>video</mediatype>
							<parameter>
								<parameterid>ulcorner</parameterid>
								<name>Upper Left</name>
								<value>
									<horiz>-0.5</horiz>
									<vert>-0.5</vert>
								</value>
							</parameter>
							<parameter>
								<parameterid>urcorner</parameterid>
								<name>Upper Right</name>
								<value>
									<horiz>0.5</horiz>
									<vert>-0.5</vert>
								</value>
							</parameter>
							<parameter>
								<parameterid>lrcorner</parameterid>
								<name>Lower Right</name>
								<value>
									<horiz>0.5</horiz>
									<vert>0.5</vert>
								</value>
							</parameter>
							<parameter>
								<parameterid>llcorner</parameterid>
								<name>Lower Left</name>
								<value>
									<horiz>-0.5</horiz>
									<vert>0.5</vert>
								</value>
							</parameter>
							<parameter>
								<parameterid>aspect</parameterid>
								<name>Aspect</name>
								<valuemin>-10000</valuemin>
								<valuemax>10000</valuemax>
								<value>0</value>
							</parameter>
						</effect>
					</filter>
					<filter>
						<effect>
							<name>Opacity</name>
							<effectid>opacity</effectid>
							<effectcategory>motion</effectcategory>
							<effecttype>motion</effecttype>
							<mediatype>video</mediatype>
							<parameter>
								<parameterid>opacity</parameterid>
								<name>opacity</name>
								<valuemin>0</valuemin>
								<valuemax>100</valuemax>
								<value>100</value>
							</parameter>
						</effect>
					</filter>
					<sourcetrack>
						<mediatype>video</mediatype>
					</sourcetrack>
					<fielddominance>none</fielddominance>
				</clipitem>
				<clipitem id="nrksuper-no-finfiredag.png">
					<name>nrksuper-no-finfiredag.png</name>
					<duration>3026</duration>
					<rate>
						<ntsc>FALSE</ntsc>
						<timebase>25</timebase>
					</rate>
					<in>1485</in>
					<out>1612</out>
					<start>41704</start>
					<end>41831</end>
					<pixelaspectratio>Square</pixelaspectratio>
					<stillframe>TRUE</stillframe>
					<enabled>TRUE</enabled>
					<anamorphic>FALSE</anamorphic>
					<alphatype>straight</alphatype>
					<masterclipid>nrksuper-no-finfiredag.png1</masterclipid>
					<logginginfo>
						<scene/>
						<shottake/>
						<lognote/>
						<good>FALSE</good>
					</logginginfo>
					<labels>
						<label2/>
					</labels>
					<comments>
						<mastercomment1/>
						<mastercomment2/>
						<mastercomment3/>
						<mastercomment4/>
					</comments>
					<file id="nrksuper-no-finfiredag">
						<name>nrksuper-no-finfiredag.png</name>
						<pathurl>file://localhost/Volumes/SuperSAN1/Prosjekter/MSUB20000012%20FIN%20FREDAG/FCP-prosjekter/program%201/Supere%20program%201/nrksuper-no-finfiredag.png</pathurl>
						<rate>
							<timebase>25</timebase>
						</rate>
						<duration>2</duration>
						<width>1613</width>
						<height>393</height>
						<media>
							<video>
								<duration>2</duration>
								<stillframe>TRUE</stillframe>
								<samplecharacteristics>
									<width>1613</width>
									<height>393</height>
								</samplecharacteristics>
							</video>
						</media>
					</file>
					<filter>
						<effect>
							<name>Basic Motion</name>
							<effectid>basic</effectid>
							<effectcategory>motion</effectcategory>
							<effecttype>motion</effecttype>
							<mediatype>video</mediatype>
							<parameter>
								<parameterid>scale</parameterid>
								<name>Scale</name>
								<valuemin>0</valuemin>
								<valuemax>1000</valuemax>
								<value>65</value>
							</parameter>
							<parameter>
								<parameterid>rotation</parameterid>
								<name>Rotation</name>
								<valuemin>-8640</valuemin>
								<valuemax>8640</valuemax>
								<value>7</value>
							</parameter>
							<parameter>
								<parameterid>center</parameterid>
								<name>Center</name>
								<value>
									<horiz>-0.253463</horiz>
									<vert>0.534091</vert>
								</value>
							</parameter>
							<parameter>
								<parameterid>centerOffset</parameterid>
								<name>Anchor Point</name>
								<value>
									<horiz>0</horiz>
									<vert>0</vert>
								</value>
							</parameter>
						</effect>
					</filter>
					<filter>
						<enabled>FALSE</enabled>
						<effect>
							<name>Drop Shadow</name>
							<effectid>dropshadow</effectid>
							<effectcategory>motion</effectcategory>
							<effecttype>motion</effecttype>
							<mediatype>video</mediatype>
							<parameter>
								<parameterid>offset</parameterid>
								<name>offset</name>
								<valuemin>-100</valuemin>
								<valuemax>100</valuemax>
								<value>2</value>
							</parameter>
							<parameter>
								<parameterid>angle</parameterid>
								<name>angle</name>
								<valuemin>-720</valuemin>
								<valuemax>720</valuemax>
								<value>135</value>
							</parameter>
							<parameter>
								<parameterid>color</parameterid>
								<name>color</name>
								<value>
									<alpha>0</alpha>
									<red>0</red>
									<green>0</green>
									<blue>0</blue>
								</value>
							</parameter>
							<parameter>
								<parameterid>softness</parameterid>
								<name>softness</name>
								<valuemin>0</valuemin>
								<valuemax>100</valuemax>
								<value>10</value>
							</parameter>
							<parameter>
								<parameterid>opacity</parameterid>
								<name>opacity</name>
								<valuemin>0</valuemin>
								<valuemax>100</valuemax>
								<value>50</value>
							</parameter>
						</effect>
					</filter>
					<filter>
						<enabled>FALSE</enabled>
						<effect>
							<name>Motion Blur</name>
							<effectid>motionblur</effectid>
							<effectcategory>motion</effectcategory>
							<effecttype>motion</effecttype>
							<mediatype>video</mediatype>
							<parameter>
								<parameterid>duration</parameterid>
								<name>% Blur</name>
								<valuemin>0</valuemin>
								<valuemax>1000</valuemax>
								<value>500</value>
							</parameter>
							<parameter>
								<parameterid>samples</parameterid>
								<name>Samples</name>
								<valuemin>1</valuemin>
								<valuemax>16</valuemax>
								<value>4</value>
							</parameter>
						</effect>
					</filter>
					<filter>
						<effect>
							<name>Crop</name>
							<effectid>crop</effectid>
							<effectcategory>motion</effectcategory>
							<effecttype>motion</effecttype>
							<mediatype>video</mediatype>
							<parameter>
								<parameterid>left</parameterid>
								<name>left</name>
								<valuemin>0</valuemin>
								<valuemax>100</valuemax>
								<value>0</value>
							</parameter>
							<parameter>
								<parameterid>right</parameterid>
								<name>right</name>
								<valuemin>0</valuemin>
								<valuemax>100</valuemax>
								<value>0</value>
							</parameter>
							<parameter>
								<parameterid>top</parameterid>
								<name>top</name>
								<valuemin>0</valuemin>
								<valuemax>100</valuemax>
								<value>0</value>
							</parameter>
							<parameter>
								<parameterid>bottom</parameterid>
								<name>bottom</name>
								<valuemin>0</valuemin>
								<valuemax>100</valuemax>
								<value>0</value>
							</parameter>
							<parameter>
								<parameterid>edgefeather</parameterid>
								<name>edgefeather</name>
								<valuemin>0</valuemin>
								<valuemax>100</valuemax>
								<value>0</value>
							</parameter>
						</effect>
					</filter>
					<filter>
						<effect>
							<name>Distort</name>
							<effectid>deformation</effectid>
							<effectcategory>motion</effectcategory>
							<effecttype>motion</effecttype>
							<mediatype>video</mediatype>
							<parameter>
								<parameterid>ulcorner</parameterid>
								<name>Upper Left</name>
								<value>
									<horiz>-0.5</horiz>
									<vert>-0.5</vert>
								</value>
							</parameter>
							<parameter>
								<parameterid>urcorner</parameterid>
								<name>Upper Right</name>
								<value>
									<horiz>0.5</horiz>
									<vert>-0.5</vert>
								</value>
							</parameter>
							<parameter>
								<parameterid>lrcorner</parameterid>
								<name>Lower Right</name>
								<value>
									<horiz>0.5</horiz>
									<vert>0.5</vert>
								</value>
							</parameter>
							<parameter>
								<parameterid>llcorner</parameterid>
								<name>Lower Left</name>
								<value>
									<horiz>-0.5</horiz>
									<vert>0.5</vert>
								</value>
							</parameter>
							<parameter>
								<parameterid>aspect</parameterid>
								<name>Aspect</name>
								<valuemin>-10000</valuemin>
								<valuemax>10000</valuemax>
								<value>0</value>
							</parameter>
						</effect>
					</filter>
					<filter>
						<effect>
							<name>Opacity</name>
							<effectid>opacity</effectid>
							<effectcategory>motion</effectcategory>
							<effecttype>motion</effecttype>
							<mediatype>video</mediatype>
							<parameter>
								<parameterid>opacity</parameterid>
								<name>opacity</name>
								<valuemin>0</valuemin>
								<valuemax>100</valuemax>
								<value>100</value>
							</parameter>
						</effect>
					</filter>
					<sourcetrack>
						<mediatype>video</mediatype>
					</sourcetrack>
					<fielddominance>none</fielddominance>
				</clipitem>
				<enabled>TRUE</enabled>
				<locked>FALSE</locked>
			</track>
		</video>
		<audio>
			<format>
				<samplecharacteristics>
					<depth>24</depth>
					<samplerate>48000</samplerate>
				</samplecharacteristics>
			</format>
			<outputs>
				<group>
					<index>1</index>
					<numchannels>2</numchannels>
					<downmix>0</downmix>
					<channel>
						<index>1</index>
					</channel>
					<channel>
						<index>2</index>
					</channel>
				</group>
			</outputs>
			<in>0</in>
			<out>43501</out>
			<track>
				<transitionitem id="956414500 ">
					<rate>
						<ntsc>FALSE</ntsc>
						<timebase>25</timebase>
					</rate>
					<start>1735</start>
					<end>1747</end>
					<alignment>center</alignment>
					<effect>
						<name>Cross Fade (+3dB) Copy</name>
						<effecttype>transition</effecttype>
						<mediatype>audio</mediatype>
					</effect>
				</transitionitem>
				<clipitem id="msub200012-0409d1k1006 ">
					<name>msub200012-0409d1k1006</name>
					<duration>4202</duration>
					<rate>
						<ntsc>FALSE</ntsc>
						<timebase>25</timebase>
					</rate>
					<in>1513</in>
					<out>1580</out>
					<start>-1</start>
					<end>-1</end>
					<subframeoffset>0</subframeoffset>
					<masterclipid>msub200012-0409d1k1006 1</masterclipid>
					<logginginfo>
						<description>msub200012-0409d1k1006</description>
						<scene/>
						<shottake/>
						<lognote/>
						<good>FALSE</good>
					</logginginfo>
					<labels>
						<label>Good Take</label>
						<label2/>
					</labels>
					<comments>
						<mastercomment1>RÅSTOFF. BR_FINFREDAG_MSUA_OPRO</mastercomment1>
						<mastercomment2/>
						<mastercomment3/>
						<mastercomment4/>
					</comments>
					<file id="msub200012-0409d1k1006 2">
						<name>msub200012-0409d1k1006.mxf</name>
						<pathurl>file://localhost/Volumes/omfs/clip.dir/MXF/1080i/msub200012-0409d1k1006.mxf</pathurl>
						<rate>
							<timebase>25</timebase>
						</rate>
						<duration>4202</duration>
						<timecode>
							<rate>
								<timebase>25</timebase>
							</rate>
							<string>10:01:45:06</string>
							<frame>902631</frame>
							<displayformat>NDF</displayformat>
							<source>source</source>
						</timecode>
						<media>
							<video>
								<duration>4202</duration>
								<samplecharacteristics>
									<width>1920</width>
									<height>1080</height>
								</samplecharacteristics>
							</video>
							<audio>
								<rate>
									<timebase>48000</timebase>
								</rate>
								<trackcount>1</trackcount>
								<samplecharacteristics>
									<depth>24</depth>
								</samplecharacteristics>
							</audio>
						</media>
					</file>
					<filter>
						<effect>
							<name>Audio Levels</name>
							<effectid>audiolevels</effectid>
							<effectcategory>audiolevels</effectcategory>
							<effecttype>audiolevels</effecttype>
							<mediatype>audio</mediatype>
							<parameter>
								<name>Level</name>
								<parameterid>level</parameterid>
								<valuemin>0</valuemin>
								<valuemax>3.98109</valuemax>
								<keyframe>
									<when>1520.31</when>
									<value>0.251189</value>
								</keyframe>
								<keyframe>
									<when>1533.12</when>
									<value>3.98107</value>
								</keyframe>
								<keyframe>
									<when>1564.38</when>
									<value>3.98107</value>
								</keyframe>
								<keyframe>
									<when>1571.25</when>
									<value>0.0501187</value>
								</keyframe>
								<interpolation>
									<name>FCPCurve</name>
								</interpolation>
								<value>1</value>
							</parameter>
						</effect>
					</filter>
					<filter>
						<effect>
							<name>Audio Pan</name>
							<effectid>audiopan</effectid>
							<effectcategory>audiopan</effectcategory>
							<effecttype>audiopan</effecttype>
							<mediatype>audio</mediatype>
							<parameter>
								<name>Pan</name>
								<parameterid>pan</parameterid>
								<valuemin>-1</valuemin>
								<valuemax>1</valuemax>
								<value>0</value>
							</parameter>
						</effect>
					</filter>
					<sourcetrack>
						<mediatype>audio</mediatype>
						<trackindex>1</trackindex>
					</sourcetrack>
				</clipitem>
				<transitionitem id="956403076 ">
					<rate>
						<ntsc>FALSE</ntsc>
						<timebase>25</timebase>
					</rate>
					<start>1790</start>
					<end>1802</end>
					<alignment>end-black</alignment>
					<effect>
						<name>Cross Fade (+3dB) Copy</name>
						<effecttype>transition</effecttype>
						<mediatype>audio</mediatype>
					</effect>
				</transitionitem>
				<transitionitem id="956402940 ">
					<rate>
						<ntsc>FALSE</ntsc>
						<timebase>25</timebase>
					</rate>
					<start>3392</start>
					<end>3394</end>
					<alignment>start-black</alignment>
					<effect>
						<name>Cross Fade (+3dB) Copy</name>
						<effecttype>transition</effecttype>
						<mediatype>audio</mediatype>
					</effect>
				</transitionitem>
				<clipitem id="msub200012-0409d1k1009 ">
					<name>msub200012-0409d1k1009</name>
					<duration>6330</duration>
					<rate>
						<ntsc>FALSE</ntsc>
						<timebase>25</timebase>
					</rate>
					<in>4300</in>
					<out>4927</out>
					<start>-1</start>
					<end>-1</end>
					<subframeoffset>0</subframeoffset>
					<enabled>TRUE</enabled>
					<masterclipid>msub200012-0409d1k1009 1</masterclipid>
					<syncoffset>0</syncoffset>
					<logginginfo>
						<description>msub200012-0409d1k1009</description>
						<scene/>
						<shottake/>
						<lognote/>
						<good>FALSE</good>
					</logginginfo>
					<labels>
						<label>Interviews</label>
						<label2/>
					</labels>
					<comments>
						<mastercomment1>RÅSTOFF. BR_FINFREDAG_MSUA_OPRO</mastercomment1>
						<mastercomment2/>
						<mastercomment3/>
						<mastercomment4/>
					</comments>
					<file id="msub200012-0409d1k1009 2">
						<name>msub200012-0409d1k1009.mxf</name>
						<pathurl>file://localhost/Volumes/omfs/clip.dir/MXF/1080i/msub200012-0409d1k1009.mxf</pathurl>
						<rate>
							<timebase>25</timebase>
						</rate>
						<duration>6314</duration>
						<timecode>
							<rate>
								<timebase>25</timebase>
							</rate>
							<string>10:06:30:22</string>
							<frame>909772</frame>
							<displayformat>NDF</displayformat>
							<source>source</source>
						</timecode>
						<media>
							<video>
								<duration>6314</duration>
								<samplecharacteristics>
									<width>1920</width>
									<height>1080</height>
								</samplecharacteristics>
							</video>
							<audio>
								<rate>
									<timebase>48000</timebase>
								</rate>
								<trackcount>1</trackcount>
								<samplecharacteristics>
									<depth>24</depth>
								</samplecharacteristics>
							</audio>
						</media>
					</file>
					<filter>
						<enabled>TRUE</enabled>
						<start>-1</start>
						<end>-1</end>
						<effect>
							<name>3 Band Equalizer - Mann</name>
							<effecttype>filter</effecttype>
							<mediatype>audio</mediatype>
							<parameter>
								<parameterid>Low Frequency</parameterid>
								<name>Low Frequency</name>
								<valuemin>80</valuemin>
								<valuemax>2000</valuemax>
								<value>100</value>
							</parameter>
							<parameter>
								<parameterid>Low Gain(dB)</parameterid>
								<name>Low Gain(dB)</name>
								<valuemin>-20</valuemin>
								<valuemax>20</valuemax>
								<value>-4</value>
							</parameter>
							<parameter>
								<parameterid>Mid Frequency</parameterid>
								<name>Mid Frequency</name>
								<valuemin>400</valuemin>
								<valuemax>8000</valuemax>
								<value>3602</value>
							</parameter>
							<parameter>
								<parameterid>Mid Gain(dB)</parameterid>
								<name>Mid Gain(dB)</name>
								<valuemin>-20</valuemin>
								<valuemax>20</valuemax>
								<value>3</value>
							</parameter>
							<parameter>
								<parameterid>High Frequency</parameterid>
								<name>High Frequency</name>
								<valuemin>5000</valuemin>
								<valuemax>20000</valuemax>
								<value>10354</value>
							</parameter>
							<parameter>
								<parameterid>High Gain(dB)</parameterid>
								<name>High Gain(dB)</name>
								<valuemin>-20</valuemin>
								<valuemax>20</valuemax>
								<value>0</value>
							</parameter>
						</effect>
					</filter>
					<filter>
						<effect>
							<name>Audio Levels</name>
							<effectid>audiolevels</effectid>
							<effectcategory>audiolevels</effectcategory>
							<effecttype>audiolevels</effecttype>
							<mediatype>audio</mediatype>
							<parameter>
								<name>Level</name>
								<parameterid>level</parameterid>
								<valuemin>0</valuemin>
								<valuemax>3.98109</valuemax>
								<keyframe>
									<when>4923.5</when>
									<value>1.25893</value>
								</keyframe>
								<keyframe>
									<when>4928</when>
									<value>0.000398107</value>
								</keyframe>
								<interpolation>
									<name>FCPCurve</name>
								</interpolation>
								<value>1.25893</value>
							</parameter>
						</effect>
					</filter>
					<filter>
						<effect>
							<name>Audio Pan</name>
							<effectid>audiopan</effectid>
							<effectcategory>audiopan</effectcategory>
							<effecttype>audiopan</effecttype>
							<mediatype>audio</mediatype>
							<parameter>
								<name>Pan</name>
								<parameterid>pan</parameterid>
								<valuemin>-1</valuemin>
								<valuemax>1</valuemax>
								<value>0</value>
							</parameter>
						</effect>
					</filter>
					<sourcetrack>
						<mediatype>audio</mediatype>
						<trackindex>2</trackindex>
					</sourcetrack>
				</clipitem>
				<transitionitem id="956413276 ">
					<rate>
						<ntsc>FALSE</ntsc>
						<timebase>25</timebase>
					</rate>
					<start>4017</start>
					<end>4019</end>
					<alignment>end-black</alignment>
					<effect>
						<name>Cross Fade (+3dB) Copy</name>
						<effecttype>transition</effecttype>
						<mediatype>audio</mediatype>
					</effect>
				</transitionitem>
				<transitionitem id="956412936 ">
					<rate>
						<ntsc>FALSE</ntsc>
						<timebase>25</timebase>
					</rate>
					<start>4056</start>
					<end>4062</end>
					<alignment>start-black</alignment>
					<effect>
						<name>Cross Fade (+3dB) Copy</name>
						<effecttype>transition</effecttype>
						<mediatype>audio</mediatype>
					</effect>
				</transitionitem>
				<clipitem id="msub200012-0409d2k1002 ">
					<name>msub200012-0409d2k1002</name>
					<duration>10180</duration>
					<rate>
						<ntsc>FALSE</ntsc>
						<timebase>25</timebase>
					</rate>
					<in>536</in>
					<out>721</out>
					<start>-1</start>
					<end>-1</end>
					<subframeoffset>0</subframeoffset>
					<enabled>TRUE</enabled>
					<masterclipid>msub200012-0409d2k1002 1</masterclipid>
					<syncoffset>0</syncoffset>
					<logginginfo>
						<description>msub200012-0409d2k1002</description>
						<scene/>
						<shottake/>
						<lognote/>
						<good>FALSE</good>
					</logginginfo>
					<labels>
						<label>Best Take</label>
						<label2/>
					</labels>
					<comments>
						<mastercomment1>RÅSTOFF. BR_FINFREDAG_MSUA_OPRO</mastercomment1>
						<mastercomment2/>
						<mastercomment3/>
						<mastercomment4/>
					</comments>
					<file id="msub200012-0409d2k1002 2">
						<name>msub200012-0409d2k1002.mxf</name>
						<pathurl>file://localhost/Volumes/omfs/clip.dir/MXF/1080i/msub200012-0409d2k1002.mxf</pathurl>
						<rate>
							<timebase>25</timebase>
						</rate>
						<duration>9873</duration>
						<timecode>
							<rate>
								<timebase>25</timebase>
							</rate>
							<string>10:39:22:14</string>
							<frame>959064</frame>
							<displayformat>NDF</displayformat>
							<source>source</source>
						</timecode>
						<media>
							<video>
								<duration>9873</duration>
								<samplecharacteristics>
									<width>1920</width>
									<height>1080</height>
								</samplecharacteristics>
							</video>
							<audio>
								<rate>
									<timebase>48000</timebase>
								</rate>
								<trackcount>1</trackcount>
								<samplecharacteristics>
									<depth>24</depth>
								</samplecharacteristics>
							</audio>
						</media>
					</file>
					<filter>
						<enabled>TRUE</enabled>
						<start>-1</start>
						<end>-1</end>
						<effect>
							<name>3 Band Equalizer - Kristine</name>
							<effecttype>filter</effecttype>
							<mediatype>audio</mediatype>
							<parameter>
								<parameterid>Low Frequency</parameterid>
								<name>Low Frequency</name>
								<valuemin>80</valuemin>
								<valuemax>2000</valuemax>
								<value>80</value>
							</parameter>
							<parameter>
								<parameterid>Low Gain(dB)</parameterid>
								<name>Low Gain(dB)</name>
								<valuemin>-20</valuemin>
								<valuemax>20</valuemax>
								<value>-4</value>
							</parameter>
							<parameter>
								<parameterid>Mid Frequency</parameterid>
								<name>Mid Frequency</name>
								<valuemin>400</valuemin>
								<valuemax>8000</valuemax>
								<value>3602</value>
							</parameter>
							<parameter>
								<parameterid>Mid Gain(dB)</parameterid>
								<name>Mid Gain(dB)</name>
								<valuemin>-20</valuemin>
								<valuemax>20</valuemax>
								<value>3</value>
							</parameter>
							<parameter>
								<parameterid>High Frequency</parameterid>
								<name>High Frequency</name>
								<valuemin>5000</valuemin>
								<valuemax>20000</valuemax>
								<value>10354</value>
							</parameter>
							<parameter>
								<parameterid>High Gain(dB)</parameterid>
								<name>High Gain(dB)</name>
								<valuemin>-20</valuemin>
								<valuemax>20</valuemax>
								<value>0</value>
							</parameter>
						</effect>
					</filter>
					<filter>
						<effect>
							<name>Audio Levels</name>
							<effectid>audiolevels</effectid>
							<effectcategory>audiolevels</effectcategory>
							<effecttype>audiolevels</effecttype>
							<mediatype>audio</mediatype>
							<parameter>
								<name>Level</name>
								<parameterid>level</parameterid>
								<valuemin>0</valuemin>
								<valuemax>3.98109</valuemax>
								<keyframe>
									<when>655.286</when>
									<value>1</value>
								</keyframe>
								<keyframe>
									<when>682.704</when>
									<value>0.112202</value>
								</keyframe>
								<keyframe>
									<when>682.714</when>
									<value>0.112202</value>
								</keyframe>
								<interpolation>
									<name>FCPCurve</name>
								</interpolation>
								<value>1</value>
							</parameter>
						</effect>
					</filter>
					<filter>
						<effect>
							<name>Audio Pan</name>
							<effectid>audiopan</effectid>
							<effectcategory>audiopan</effectcategory>
							<effecttype>audiopan</effecttype>
							<mediatype>audio</mediatype>
							<parameter>
								<name>Pan</name>
								<parameterid>pan</parameterid>
								<valuemin>-1</valuemin>
								<valuemax>1</valuemax>
								<value>0</value>
							</parameter>
						</effect>
					</filter>
					<sourcetrack>
						<mediatype>audio</mediatype>
						<trackindex>1</trackindex>
					</sourcetrack>
				</clipitem>
				<transitionitem id="957527496 ">
					<rate>
						<ntsc>FALSE</ntsc>
						<timebase>25</timebase>
					</rate>
					<start>4239</start>
					<end>4241</end>
					<alignment>center</alignment>
					<effect>
						<name>Cross Fade (+3dB) Copy</name>
						<effecttype>transition</effecttype>
						<mediatype>audio</mediatype>
					</effect>
				</transitionitem>
				<clipitem id="msub200012-0409d2k1002 3">
					<name>msub200012-0409d2k1002</name>
					<duration>10180</duration>
					<rate>
						<ntsc>FALSE</ntsc>
						<timebase>25</timebase>
					</rate>
					<in>872</in>
					<out>1272</out>
					<start>-1</start>
					<end>-1</end>
					<subframeoffset>0</subframeoffset>
					<enabled>TRUE</enabled>
					<masterclipid>msub200012-0409d2k1002 1</masterclipid>
					<syncoffset>0</syncoffset>
					<logginginfo>
						<description>msub200012-0409d2k1002</description>
						<scene/>
						<shottake/>
						<lognote/>
						<good>FALSE</good>
					</logginginfo>
					<labels>
						<label>Best Take</label>
						<label2/>
					</labels>
					<comments>
						<mastercomment1>RÅSTOFF. BR_FINFREDAG_MSUA_OPRO</mastercomment1>
						<mastercomment2/>
						<mastercomment3/>
						<mastercomment4/>
					</comments>
					<file id="msub200012-0409d2k1002 2"/>
					<filter>
						<enabled>TRUE</enabled>
						<start>-1</start>
						<end>-1</end>
						<effect>
							<name>3 Band Equalizer - Kristine</name>
							<effecttype>filter</effecttype>
							<mediatype>audio</mediatype>
							<parameter>
								<parameterid>Low Frequency</parameterid>
								<name>Low Frequency</name>
								<valuemin>80</valuemin>
								<valuemax>2000</valuemax>
								<value>80</value>
							</parameter>
							<parameter>
								<parameterid>Low Gain(dB)</parameterid>
								<name>Low Gain(dB)</name>
								<valuemin>-20</valuemin>
								<valuemax>20</valuemax>
								<value>-4</value>
							</parameter>
							<parameter>
								<parameterid>Mid Frequency</parameterid>
								<name>Mid Frequency</name>
								<valuemin>400</valuemin>
								<valuemax>8000</valuemax>
								<value>3602</value>
							</parameter>
							<parameter>
								<parameterid>Mid Gain(dB)</parameterid>
								<name>Mid Gain(dB)</name>
								<valuemin>-20</valuemin>
								<valuemax>20</valuemax>
								<value>3</value>
							</parameter>
							<parameter>
								<parameterid>High Frequency</parameterid>
								<name>High Frequency</name>
								<valuemin>5000</valuemin>
								<valuemax>20000</valuemax>
								<value>10354</value>
							</parameter>
							<parameter>
								<parameterid>High Gain(dB)</parameterid>
								<name>High Gain(dB)</name>
								<valuemin>-20</valuemin>
								<valuemax>20</valuemax>
								<value>0</value>
							</parameter>
						</effect>
					</filter>
					<filter>
						<effect>
							<name>Audio Levels</name>
							<effectid>audiolevels</effectid>
							<effectcategory>audiolevels</effectcategory>
							<effecttype>audiolevels</effecttype>
							<mediatype>audio</mediatype>
							<parameter>
								<name>Level</name>
								<parameterid>level</parameterid>
								<valuemin>0</valuemin>
								<valuemax>3.98109</valuemax>
								<keyframe>
									<when>1195.71</when>
									<value>0.0891251</value>
								</keyframe>
								<keyframe>
									<when>1201.43</when>
									<value>1</value>
								</keyframe>
								<keyframe>
									<when>1230.57</when>
									<value>1</value>
								</keyframe>
								<keyframe>
									<when>1234.57</when>
									<value>0.0177828</value>
								</keyframe>
								<keyframe>
									<when>1252.29</when>
									<value>0.0177828</value>
								</keyframe>
								<keyframe>
									<when>1257.43</when>
									<value>0.398107</value>
								</keyframe>
								<interpolation>
									<name>FCPCurve</name>
								</interpolation>
								<value>0.0891251</value>
							</parameter>
						</effect>
					</filter>
					<filter>
						<effect>
							<name>Audio Pan</name>
							<effectid>audiopan</effectid>
							<effectcategory>audiopan</effectcategory>
							<effecttype>audiopan</effecttype>
							<mediatype>audio</mediatype>
							<parameter>
								<name>Pan</name>
								<parameterid>pan</parameterid>
								<valuemin>-1</valuemin>
								<valuemax>1</valuemax>
								<value>0</value>
							</parameter>
						</effect>
					</filter>
					<sourcetrack>
						<mediatype>audio</mediatype>
						<trackindex>1</trackindex>
					</sourcetrack>
					<link>
						<linkclipref>msub200012-0409d2k1002 3</linkclipref>
						<mediatype>audio</mediatype>
						<trackindex>1</trackindex>
						<clipindex>10</clipindex>
					</link>
					<link>
						<linkclipref>msub200012-0409d2k1002 4</linkclipref>
						<mediatype>audio</mediatype>
						<trackindex>2</trackindex>
						<clipindex>22</clipindex>
					</link>
				</clipitem>
				<transitionitem id="957545380 ">
					<rate>
						<ntsc>FALSE</ntsc>
						<timebase>25</timebase>
					</rate>
					<start>4627</start>
					<end>4639</end>
					<alignment>center</alignment>
					<effect>
						<name>Cross Fade (+3dB) Copy</name>
						<effecttype>transition</effecttype>
						<mediatype>audio</mediatype>
					</effect>
				</transitionitem>
				<clipitem id="msub200012-0409d2k1002 5">
					<name>msub200012-0409d2k1002</name>
					<duration>10180</duration>
					<rate>
						<ntsc>FALSE</ntsc>
						<timebase>25</timebase>
					</rate>
					<in>3595</in>
					<out>3663</out>
					<start>5239</start>
					<end>-1</end>
					<subframeoffset>0</subframeoffset>
					<masterclipid>msub200012-0409d2k1002 1</masterclipid>
					<syncoffset>0</syncoffset>
					<logginginfo>
						<description>msub200012-0409d2k1002</description>
						<scene/>
						<shottake/>
						<lognote/>
						<good>FALSE</good>
					</logginginfo>
					<labels>
						<label>Best Take</label>
						<label2/>
					</labels>
					<comments>
						<mastercomment1>RÅSTOFF. BR_FINFREDAG_MSUA_OPRO</mastercomment1>
						<mastercomment2/>
						<mastercomment3/>
						<mastercomment4/>
					</comments>
					<file id="msub200012-0409d2k1002 2"/>
					<filter>
						<effect>
							<name>Audio Levels</name>
							<effectid>audiolevels</effectid>
							<effectcategory>audiolevels</effectcategory>
							<effecttype>audiolevels</effecttype>
							<mediatype>audio</mediatype>
							<parameter>
								<name>Level</name>
								<parameterid>level</parameterid>
								<valuemin>0</valuemin>
								<valuemax>3.98109</valuemax>
								<value>0.0891251</value>
							</parameter>
						</effect>
					</filter>
					<filter>
						<effect>
							<name>Audio Pan</name>
							<effectid>audiopan</effectid>
							<effectcategory>audiopan</effectcategory>
							<effecttype>audiopan</effecttype>
							<mediatype>audio</mediatype>
							<parameter>
								<name>Pan</name>
								<parameterid>pan</parameterid>
								<valuemin>-1</valuemin>
								<valuemax>1</valuemax>
								<value>0</value>
							</parameter>
						</effect>
					</filter>
					<sourcetrack>
						<mediatype>audio</mediatype>
						<trackindex>1</trackindex>
					</sourcetrack>
					<link>
						<linkclipref>msub200012-0409d2k1002 5</linkclipref>
						<mediatype>audio</mediatype>
						<trackindex>1</trackindex>
						<clipindex>12</clipindex>
					</link>
					<link>
						<linkclipref>msub200012-0409d2k1002 6</linkclipref>
						<mediatype>audio</mediatype>
						<trackindex>2</trackindex>
						<clipindex>34</clipindex>
					</link>
				</clipitem>
				<transitionitem id="957544700 ">
					<rate>
						<ntsc>FALSE</ntsc>
						<timebase>25</timebase>
					</rate>
					<start>5305</start>
					<end>5307</end>
					<alignment>center</alignment>
					<effect>
						<name>Cross Fade (+3dB) Copy</name>
						<effecttype>transition</effecttype>
						<mediatype>audio</mediatype>
					</effect>
				</transitionitem>
				<clipitem id="msub200012-0409d2k1002 7">
					<name>msub200012-0409d2k1002</name>
					<duration>10180</duration>
					<rate>
						<ntsc>FALSE</ntsc>
						<timebase>25</timebase>
					</rate>
					<in>3690</in>
					<out>3905</out>
					<start>-1</start>
					<end>-1</end>
					<subframeoffset>0</subframeoffset>
					<masterclipid>msub200012-0409d2k1002 1</masterclipid>
					<syncoffset>0</syncoffset>
					<logginginfo>
						<description>msub200012-0409d2k1002</description>
						<scene/>
						<shottake/>
						<lognote/>
						<good>FALSE</good>
					</logginginfo>
					<labels>
						<label>Best Take</label>
						<label2/>
					</labels>
					<comments>
						<mastercomment1>RÅSTOFF. BR_FINFREDAG_MSUA_OPRO</mastercomment1>
						<mastercomment2/>
						<mastercomment3/>
						<mastercomment4/>
					</comments>
					<file id="msub200012-0409d2k1002 2"/>
					<filter>
						<effect>
							<name>Audio Levels</name>
							<effectid>audiolevels</effectid>
							<effectcategory>audiolevels</effectcategory>
							<effecttype>audiolevels</effecttype>
							<mediatype>audio</mediatype>
							<parameter>
								<name>Level</name>
								<parameterid>level</parameterid>
								<valuemin>0</valuemin>
								<valuemax>3.98109</valuemax>
								<keyframe>
									<when>3870.86</when>
									<value>0.0630957</value>
								</keyframe>
								<keyframe>
									<when>3878.86</when>
									<value>0.794328</value>
								</keyframe>
								<interpolation>
									<name>FCPCurve</name>
								</interpolation>
								<value>0.0630957</value>
							</parameter>
						</effect>
					</filter>
					<filter>
						<effect>
							<name>Audio Pan</name>
							<effectid>audiopan</effectid>
							<effectcategory>audiopan</effectcategory>
							<effecttype>audiopan</effecttype>
							<mediatype>audio</mediatype>
							<parameter>
								<name>Pan</name>
								<parameterid>pan</parameterid>
								<valuemin>-1</valuemin>
								<valuemax>1</valuemax>
								<value>0</value>
							</parameter>
						</effect>
					</filter>
					<sourcetrack>
						<mediatype>audio</mediatype>
						<trackindex>1</trackindex>
					</sourcetrack>
					<link>
						<linkclipref>msub200012-0409d2k1002 7</linkclipref>
						<mediatype>audio</mediatype>
						<trackindex>1</trackindex>
						<clipindex>14</clipindex>
					</link>
					<link>
						<linkclipref>msub200012-0409d2k1002 8</linkclipref>
						<mediatype>audio</mediatype>
						<trackindex>2</trackindex>
						<clipindex>36</clipindex>
					</link>
				</clipitem>
				<transitionitem id="957539532 ">
					<rate>
						<ntsc>FALSE</ntsc>
						<timebase>25</timebase>
					</rate>
					<start>5516</start>
					<end>5520</end>
					<alignment>center</alignment>
					<effect>
						<name>Cross Fade (+3dB) Copy</name>
						<effecttype>transition</effecttype>
						<mediatype>audio</mediatype>
					</effect>
				</transitionitem>
				<clipitem id="msub200012-0409d2k1002 9">
					<name>msub200012-0409d2k1002</name>
					<duration>10180</duration>
					<rate>
						<ntsc>FALSE</ntsc>
						<timebase>25</timebase>
					</rate>
					<in>3930</in>
					<out>4066</out>
					<start>-1</start>
					<end>-1</end>
					<subframeoffset>0</subframeoffset>
					<masterclipid>msub200012-0409d2k1002 1</masterclipid>
					<syncoffset>0</syncoffset>
					<logginginfo>
						<description>msub200012-0409d2k1002</description>
						<scene/>
						<shottake/>
						<lognote/>
						<good>FALSE</good>
					</logginginfo>
					<labels>
						<label>Best Take</label>
						<label2/>
					</labels>
					<comments>
						<mastercomment1>RÅSTOFF. BR_FINFREDAG_MSUA_OPRO</mastercomment1>
						<mastercomment2/>
						<mastercomment3/>
						<mastercomment4/>
					</comments>
					<file id="msub200012-0409d2k1002 2"/>
					<filter>
						<effect>
							<name>Audio Levels</name>
							<effectid>audiolevels</effectid>
							<effectcategory>audiolevels</effectcategory>
							<effecttype>audiolevels</effecttype>
							<mediatype>audio</mediatype>
							<parameter>
								<name>Level</name>
								<parameterid>level</parameterid>
								<valuemin>0</valuemin>
								<valuemax>3.98109</valuemax>
								<keyframe>
									<when>3948.29</when>
									<value>0.630957</value>
								</keyframe>
								<keyframe>
									<when>3955.57</when>
									<value>0.141254</value>
								</keyframe>
								<interpolation>
									<name>FCPCurve</name>
								</interpolation>
								<value>1</value>
							</parameter>
						</effect>
					</filter>
					<filter>
						<effect>
							<name>Audio Pan</name>
							<effectid>audiopan</effectid>
							<effectcategory>audiopan</effectcategory>
							<effecttype>audiopan</effecttype>
							<mediatype>audio</mediatype>
							<parameter>
								<name>Pan</name>
								<parameterid>pan</parameterid>
								<valuemin>-1</valuemin>
								<valuemax>1</valuemax>
								<value>0</value>
							</parameter>
						</effect>
					</filter>
					<sourcetrack>
						<mediatype>audio</mediatype>
						<trackindex>1</trackindex>
					</sourcetrack>
					<link>
						<linkclipref>msub200012-0409d2k1002 9</linkclipref>
						<mediatype>audio</mediatype>
						<trackindex>1</trackindex>
						<clipindex>16</clipindex>
					</link>
					<link>
						<linkclipref>msub200012-0409d2k1002 10</linkclipref>
						<mediatype>audio</mediatype>
						<trackindex>2</trackindex>
						<clipindex>38</clipindex>
					</link>
				</clipitem>
				<transitionitem id="957538920 ">
					<rate>
						<ntsc>FALSE</ntsc>
						<timebase>25</timebase>
					</rate>
					<start>5648</start>
					<end>5652</end>
					<alignment>center</alignment>
					<effect>
						<name>Cross Fade (+3dB) Copy</name>
						<effecttype>transition</effecttype>
						<mediatype>audio</mediatype>
					</effect>
				</transitionitem>
				<clipitem id="msub200012-0409d2k1002 11">
					<name>msub200012-0409d2k1002</name>
					<duration>10180</duration>
					<rate>
						<ntsc>FALSE</ntsc>
						<timebase>25</timebase>
					</rate>
					<in>4693</in>
					<out>4875</out>
					<start>-1</start>
					<end>-1</end>
					<subframeoffset>0</subframeoffset>
					<enabled>TRUE</enabled>
					<masterclipid>msub200012-0409d2k1002 1</masterclipid>
					<syncoffset>0</syncoffset>
					<logginginfo>
						<description>msub200012-0409d2k1002</description>
						<scene/>
						<shottake/>
						<lognote/>
						<good>FALSE</good>
					</logginginfo>
					<labels>
						<label>Best Take</label>
						<label2/>
					</labels>
					<comments>
						<mastercomment1>RÅSTOFF. BR_FINFREDAG_MSUA_OPRO</mastercomment1>
						<mastercomment2/>
						<mastercomment3/>
						<mastercomment4/>
					</comments>
					<file id="msub200012-0409d2k1002 2"/>
					<filter>
						<effect>
							<name>Audio Levels</name>
							<effectid>audiolevels</effectid>
							<effectcategory>audiolevels</effectcategory>
							<effecttype>audiolevels</effecttype>
							<mediatype>audio</mediatype>
							<parameter>
								<name>Level</name>
								<parameterid>level</parameterid>
								<valuemin>0</valuemin>
								<valuemax>3.98109</valuemax>
								<keyframe>
									<when>4774</when>
									<value>1</value>
								</keyframe>
								<keyframe>
									<when>4780.29</when>
									<value>0.281838</value>
								</keyframe>
								<keyframe>
									<when>4788.29</when>
									<value>0.281838</value>
								</keyframe>
								<keyframe>
									<when>4793.14</when>
									<value>1</value>
								</keyframe>
								<keyframe>
									<when>4816.86</when>
									<value>1</value>
								</keyframe>
								<keyframe>
									<when>4827.71</when>
									<value>0.141254</value>
								</keyframe>
								<interpolation>
									<name>FCPCurve</name>
								</interpolation>
								<value>0.141254</value>
							</parameter>
						</effect>
					</filter>
					<filter>
						<effect>
							<name>Audio Pan</name>
							<effectid>audiopan</effectid>
							<effectcategory>audiopan</effectcategory>
							<effecttype>audiopan</effecttype>
							<mediatype>audio</mediatype>
							<parameter>
								<name>Pan</name>
								<parameterid>pan</parameterid>
								<valuemin>-1</valuemin>
								<valuemax>1</valuemax>
								<value>0</value>
							</parameter>
						</effect>
					</filter>
					<sourcetrack>
						<mediatype>audio</mediatype>
						<trackindex>1</trackindex>
					</sourcetrack>
					<link>
						<linkclipref>msub200012-0409d2k1002 11</linkclipref>
						<mediatype>audio</mediatype>
						<trackindex>1</trackindex>
						<clipindex>18</clipindex>
					</link>
					<link>
						<linkclipref>msub200012-0409d2k1002 12</linkclipref>
						<mediatype>audio</mediatype>
						<trackindex>2</trackindex>
						<clipindex>40</clipindex>
					</link>
				</clipitem>
				<transitionitem id="956396140 ">
					<rate>
						<ntsc>FALSE</ntsc>
						<timebase>25</timebase>
					</rate>
					<start>5826</start>
					<end>5830</end>
					<alignment>center</alignment>
					<effect>
						<name>Cross Fade (+3dB) Copy</name>
						<effecttype>transition</effecttype>
						<mediatype>audio</mediatype>
					</effect>
				</transitionitem>
				<clipitem id="msub200012-0409d2k1002 13">
					<name>msub200012-0409d2k1002</name>
					<duration>10180</duration>
					<rate>
						<ntsc>FALSE</ntsc>
						<timebase>25</timebase>
					</rate>
					<in>4948</in>
					<out>5965</out>
					<start>-1</start>
					<end>-1</end>
					<subframeoffset>0</subframeoffset>
					<masterclipid>msub200012-0409d2k1002 1</masterclipid>
					<syncoffset>0</syncoffset>
					<logginginfo>
						<description>msub200012-0409d2k1002</description>
						<scene/>
						<shottake/>
						<lognote/>
						<good>FALSE</good>
					</logginginfo>
					<labels>
						<label>Best Take</label>
						<label2/>
					</labels>
					<comments>
						<mastercomment1>RÅSTOFF. BR_FINFREDAG_MSUA_OPRO</mastercomment1>
						<mastercomment2/>
						<mastercomment3/>
						<mastercomment4/>
					</comments>
					<file id="msub200012-0409d2k1002 2"/>
					<filter>
						<effect>
							<name>Audio Levels</name>
							<effectid>audiolevels</effectid>
							<effectcategory>audiolevels</effectcategory>
							<effecttype>audiolevels</effecttype>
							<mediatype>audio</mediatype>
							<parameter>
								<name>Level</name>
								<parameterid>level</parameterid>
								<valuemin>0</valuemin>
								<valuemax>3.98109</valuemax>
								<keyframe>
									<when>4992.86</when>
									<value>1</value>
								</keyframe>
								<keyframe>
									<when>4997.71</when>
									<value>0.446684</value>
								</keyframe>
								<keyframe>
									<when>5008.71</when>
									<value>0.446684</value>
								</keyframe>
								<keyframe>
									<when>5013.14</when>
									<value>1.25893</value>
								</keyframe>
								<keyframe>
									<when>5102.43</when>
									<value>1.25893</value>
								</keyframe>
								<keyframe>
									<when>5120.14</when>
									<value>1.41254</value>
								</keyframe>
								<keyframe>
									<when>5288.71</when>
									<value>1.41254</value>
								</keyframe>
								<keyframe>
									<when>5294.71</when>
									<value>2.29782</value>
								</keyframe>
								<keyframe>
									<when>5325.86</when>
									<value>2.55442</value>
								</keyframe>
								<keyframe>
									<when>5336.14</when>
									<value>0.501187</value>
								</keyframe>
								<keyframe>
									<when>5366.43</when>
									<value>0.501187</value>
								</keyframe>
								<keyframe>
									<when>5375.57</when>
									<value>1.25893</value>
								</keyframe>
								<keyframe>
									<when>5408.71</when>
									<value>2.51189</value>
								</keyframe>
								<keyframe>
									<when>5512.14</when>
									<value>2.81838</value>
								</keyframe>
								<keyframe>
									<when>5641.29</when>
									<value>2.51189</value>
								</keyframe>
								<interpolation>
									<name>FCPCurve</name>
								</interpolation>
								<value>1</value>
							</parameter>
						</effect>
					</filter>
					<filter>
						<effect>
							<name>Audio Pan</name>
							<effectid>audiopan</effectid>
							<effectcategory>audiopan</effectcategory>
							<effecttype>audiopan</effecttype>
							<mediatype>audio</mediatype>
							<parameter>
								<name>Pan</name>
								<parameterid>pan</parameterid>
								<valuemin>-1</valuemin>
								<valuemax>1</valuemax>
								<value>0</value>
							</parameter>
						</effect>
					</filter>
					<sourcetrack>
						<mediatype>audio</mediatype>
						<trackindex>1</trackindex>
					</sourcetrack>
				</clipitem>
				<transitionitem id="957092084 ">
					<rate>
						<ntsc>FALSE</ntsc>
						<timebase>25</timebase>
					</rate>
					<start>6831</start>
					<end>6843</end>
					<alignment>center</alignment>
					<effect>
						<name>Cross Fade (+3dB) Copy</name>
						<effecttype>transition</effecttype>
						<mediatype>audio</mediatype>
					</effect>
				</transitionitem>
				<transitionitem id="957091812 ">
					<rate>
						<ntsc>FALSE</ntsc>
						<timebase>25</timebase>
					</rate>
					<start>6988</start>
					<end>6990</end>
					<alignment>start-black</alignment>
					<effect>
						<name>Cross Fade (+3dB) Copy</name>
						<effecttype>transition</effecttype>
						<mediatype>audio</mediatype>
					</effect>
				</transitionitem>
				<clipitem id="msub200012-0409d2k1002 14">
					<name>msub200012-0409d2k1002</name>
					<duration>10180</duration>
					<rate>
						<ntsc>FALSE</ntsc>
						<timebase>25</timebase>
					</rate>
					<in>9156</in>
					<out>9321</out>
					<start>-1</start>
					<end>-1</end>
					<subframeoffset>0</subframeoffset>
					<enabled>TRUE</enabled>
					<masterclipid>msub200012-0409d2k1002 1</masterclipid>
					<syncoffset>0</syncoffset>
					<logginginfo>
						<description>msub200012-0409d2k1002</description>
						<scene/>
						<shottake/>
						<lognote/>
						<good>FALSE</good>
					</logginginfo>
					<labels>
						<label>Best Take</label>
						<label2/>
					</labels>
					<comments>
						<mastercomment1>RÅSTOFF. BR_FINFREDAG_MSUA_OPRO</mastercomment1>
						<mastercomment2/>
						<mastercomment3/>
						<mastercomment4/>
					</comments>
					<file id="msub200012-0409d2k1002 2"/>
					<filter>
						<effect>
							<name>Audio Levels</name>
							<effectid>audiolevels</effectid>
							<effectcategory>audiolevels</effectcategory>
							<effecttype>audiolevels</effecttype>
							<mediatype>audio</mediatype>
							<parameter>
								<name>Level</name>
								<parameterid>level</parameterid>
								<valuemin>0</valuemin>
								<valuemax>3.98109</valuemax>
								<keyframe>
									<when>9176</when>
									<value>0.794328</value>
								</keyframe>
								<keyframe>
									<when>9183.57</when>
									<value>1.41254</value>
								</keyframe>
								<keyframe>
									<when>9227.71</when>
									<value>1.41254</value>
								</keyframe>
								<keyframe>
									<when>9235.43</when>
									<value>0.794328</value>
								</keyframe>
								<keyframe>
									<when>9254.29</when>
									<value>0.794328</value>
								</keyframe>
								<keyframe>
									<when>9260</when>
									<value>1.77828</value>
								</keyframe>
								<keyframe>
									<when>9278.86</when>
									<value>1.77828</value>
								</keyframe>
								<keyframe>
									<when>9283.29</when>
									<value>1.77828</value>
								</keyframe>
								<interpolation>
									<name>FCPCurve</name>
								</interpolation>
								<value>1.77828</value>
							</parameter>
						</effect>
					</filter>
					<filter>
						<effect>
							<name>Audio Pan</name>
							<effectid>audiopan</effectid>
							<effectcategory>audiopan</effectcategory>
							<effecttype>audiopan</effecttype>
							<mediatype>audio</mediatype>
							<parameter>
								<name>Pan</name>
								<parameterid>pan</parameterid>
								<valuemin>-1</valuemin>
								<valuemax>1</valuemax>
								<value>0</value>
							</parameter>
						</effect>
					</filter>
					<sourcetrack>
						<mediatype>audio</mediatype>
						<trackindex>1</trackindex>
					</sourcetrack>
				</clipitem>
				<transitionitem id="957075560 ">
					<rate>
						<ntsc>FALSE</ntsc>
						<timebase>25</timebase>
					</rate>
					<start>7141</start>
					<end>7153</end>
					<alignment>end-black</alignment>
					<effect>
						<name>Cross Fade (+3dB) Copy</name>
						<effecttype>transition</effecttype>
						<mediatype>audio</mediatype>
					</effect>
				</transitionitem>
				<transitionitem id="957075288 ">
					<rate>
						<ntsc>FALSE</ntsc>
						<timebase>25</timebase>
					</rate>
					<start>7296</start>
					<end>7308</end>
					<alignment>center</alignment>
					<effect>
						<name>Cross Fade (+3dB) Copy</name>
						<effecttype>transition</effecttype>
						<mediatype>audio</mediatype>
					</effect>
				</transitionitem>
				<clipitem id="KMTE60004512AA">
					<name>KMTE60004512AA</name>
					<duration>88320</duration>
					<rate>
						<ntsc>FALSE</ntsc>
						<timebase>25</timebase>
					</rate>
					<in>66242</in>
					<out>66563</out>
					<start>-1</start>
					<end>-1</end>
					<subframeoffset>0</subframeoffset>
					<masterclipid>KMTE60004512AA1</masterclipid>
					<logginginfo>
						<description>Justin Bieber live i Oslo</description>
						<scene/>
						<shottake/>
						<lognote/>
						<good>FALSE</good>
					</logginginfo>
					<labels>
						<label2/>
					</labels>
					<comments>
						<mastercomment1>PROGRAM. BR_MEGAFON_MSUA_OPRO. BR_FINFREDAG_MSUA_OPRO</mastercomment1>
						<mastercomment2>. </mastercomment2>
						<mastercomment3>Sendt: 2012-06-20. Universal Music, Norway; Norge.</mastercomment3>
						<mastercomment4/>
						<clipcommentb>1:F-mix venstre 2:F-mix høyre 3:I-lyd venstre 4:I-lyd høyre</clipcommentb>
					</comments>
					<file id="KMTE60004512AA2">
						<name>KMTE60004512AA.mxf</name>
						<pathurl>file://localhost/Volumes/omfs/clip.dir/MXF/1080i/KMTE60004512AA.mxf</pathurl>
						<rate>
							<timebase>25</timebase>
						</rate>
						<duration>88320</duration>
						<timecode>
							<rate>
								<timebase>25</timebase>
							</rate>
							<string>00:00:00:00</string>
							<frame>0</frame>
							<displayformat>NDF</displayformat>
							<source>source</source>
						</timecode>
						<media>
							<video>
								<duration>88320</duration>
								<samplecharacteristics>
									<width>1920</width>
									<height>1080</height>
								</samplecharacteristics>
							</video>
							<audio>
								<rate>
									<timebase>48000</timebase>
								</rate>
								<trackcount>1</trackcount>
								<samplecharacteristics>
									<depth>24</depth>
								</samplecharacteristics>
							</audio>
						</media>
					</file>
					<marker>
						<name>Justin Bieber møter fans</name>
						<comment/>
						<in>1275</in>
						<out>2025</out>
					</marker>
					<marker>
						<name>Arrangørene er bekymret for sikkerheten</name>
						<comment/>
						<in>7566</in>
						<out>8316</out>
					</marker>
					<marker>
						<name>Folk trenger seg inn på operataket</name>
						<comment/>
						<in>9128</in>
						<out>9878</out>
					</marker>
					<marker>
						<name>Politiet vurderer å avlyse konserten</name>
						<comment/>
						<in>10891</in>
						<out>11641</out>
					</marker>
					<marker>
						<name>Justin Bieber ankommer scenen</name>
						<comment/>
						<in>13795</in>
						<out>14545</out>
					</marker>
					<marker>
						<name>Justin Bieber møter Fredrik Skavlan på Nationalteatret</name>
						<comment/>
						<in>27699</in>
						<out>28449</out>
					</marker>
					<marker>
						<name>Justin snakker om kjæresten og om å være i et forhold</name>
						<comment/>
						<in>29221</in>
						<out>29971</out>
					</marker>
					<marker>
						<name>Justin skakker om at han ikke er en barnestjerne lenger</name>
						<comment/>
						<in>30447</in>
						<out>31197</out>
					</marker>
					<marker>
						<name>Justin om å vokse opp i rampelyset</name>
						<comment/>
						<in>32492</in>
						<out>33242</out>
					</marker>
					<marker>
						<name>Justin om barndommen</name>
						<comment/>
						<in>35024</in>
						<out>35774</out>
					</marker>
					<filter>
						<effect>
							<name>Audio Levels</name>
							<effectid>audiolevels</effectid>
							<effectcategory>audiolevels</effectcategory>
							<effecttype>audiolevels</effecttype>
							<mediatype>audio</mediatype>
							<parameter>
								<name>Level</name>
								<parameterid>level</parameterid>
								<valuemin>0</valuemin>
								<valuemax>3.98109</valuemax>
								<keyframe>
									<when>66514.3</when>
									<value>0.597675</value>
								</keyframe>
								<keyframe>
									<when>66542</when>
									<value>0.112202</value>
								</keyframe>
								<interpolation>
									<name>FCPCurve</name>
								</interpolation>
								<value>0.597675</value>
							</parameter>
						</effect>
					</filter>
					<filter>
						<effect>
							<name>Audio Pan</name>
							<effectid>audiopan</effectid>
							<effectcategory>audiopan</effectcategory>
							<effecttype>audiopan</effecttype>
							<mediatype>audio</mediatype>
							<parameter>
								<name>Pan</name>
								<parameterid>pan</parameterid>
								<valuemin>-1</valuemin>
								<valuemax>1</valuemax>
								<value>-1</value>
							</parameter>
						</effect>
					</filter>
					<sourcetrack>
						<mediatype>audio</mediatype>
						<trackindex>1</trackindex>
					</sourcetrack>
				</clipitem>
				<transitionitem id="957063796 ">
					<rate>
						<ntsc>FALSE</ntsc>
						<timebase>25</timebase>
					</rate>
					<start>7605</start>
					<end>7617</end>
					<alignment>end-black</alignment>
					<effect>
						<name>Cross Fade (+3dB) Copy</name>
						<effecttype>transition</effecttype>
						<mediatype>audio</mediatype>
					</effect>
				</transitionitem>
				<transitionitem id="957066448 ">
					<rate>
						<ntsc>FALSE</ntsc>
						<timebase>25</timebase>
					</rate>
					<start>7626</start>
					<end>7638</end>
					<alignment>center</alignment>
					<effect>
						<name>Cross Fade (+3dB) Copy</name>
						<effecttype>transition</effecttype>
						<mediatype>audio</mediatype>
					</effect>
				</transitionitem>
				<clipitem id="msub200012-2108kid2002 ">
					<name>msub200012-2108kid2002</name>
					<duration>1059</duration>
					<rate>
						<ntsc>FALSE</ntsc>
						<timebase>25</timebase>
					</rate>
					<in>233</in>
					<out>513</out>
					<start>-1</start>
					<end>-1</end>
					<subframeoffset>0</subframeoffset>
					<enabled>TRUE</enabled>
					<masterclipid>msub200012-2108kid2002 1</masterclipid>
					<logginginfo>
						<description>msub200012-2108kid2002</description>
						<scene/>
						<shottake/>
						<lognote/>
						<good>FALSE</good>
					</logginginfo>
					<labels>
						<label2/>
					</labels>
					<comments>
						<mastercomment1>RÅSTOFF. BR_FINFREDAG_MSUA_OPRO</mastercomment1>
						<mastercomment2/>
						<mastercomment3/>
						<mastercomment4/>
					</comments>
					<file id="msub200012-2108kid2002 2">
						<name>msub200012-2108kid2002.mxf</name>
						<pathurl>file://localhost/Volumes/omfs/clip.dir/MXF/1080i/msub200012-2108kid2002.mxf</pathurl>
						<rate>
							<timebase>25</timebase>
						</rate>
						<duration>1059</duration>
						<timecode>
							<rate>
								<timebase>25</timebase>
							</rate>
							<string>02:35:25:05</string>
							<frame>233130</frame>
							<displayformat>NDF</displayformat>
							<source>source</source>
						</timecode>
						<media>
							<video>
								<duration>1059</duration>
								<samplecharacteristics>
									<width>1920</width>
									<height>1080</height>
								</samplecharacteristics>
							</video>
							<audio>
								<rate>
									<timebase>48000</timebase>
								</rate>
								<trackcount>1</trackcount>
								<samplecharacteristics>
									<depth>24</depth>
								</samplecharacteristics>
							</audio>
						</media>
					</file>
					<filter>
						<enabled>TRUE</enabled>
						<start>-1</start>
						<end>-1</end>
						<effect>
							<name>3 Band Equalizer</name>
							<effecttype>filter</effecttype>
							<mediatype>audio</mediatype>
							<parameter>
								<parameterid>Low Frequency</parameterid>
								<name>Low Frequency</name>
								<valuemin>80</valuemin>
								<valuemax>2000</valuemax>
								<value>80</value>
							</parameter>
							<parameter>
								<parameterid>Low Gain(dB)</parameterid>
								<name>Low Gain(dB)</name>
								<valuemin>-20</valuemin>
								<valuemax>20</valuemax>
								<value>-4</value>
							</parameter>
							<parameter>
								<parameterid>Mid Frequency</parameterid>
								<name>Mid Frequency</name>
								<valuemin>400</valuemin>
								<valuemax>8000</valuemax>
								<value>3602</value>
							</parameter>
							<parameter>
								<parameterid>Mid Gain(dB)</parameterid>
								<name>Mid Gain(dB)</name>
								<valuemin>-20</valuemin>
								<valuemax>20</valuemax>
								<value>3</value>
							</parameter>
							<parameter>
								<parameterid>High Frequency</parameterid>
								<name>High Frequency</name>
								<valuemin>5000</valuemin>
								<valuemax>20000</valuemax>
								<value>10354</value>
							</parameter>
							<parameter>
								<parameterid>High Gain(dB)</parameterid>
								<name>High Gain(dB)</name>
								<valuemin>-20</valuemin>
								<valuemax>20</valuemax>
								<value>0</value>
							</parameter>
						</effect>
					</filter>
					<filter>
						<effect>
							<name>Audio Levels</name>
							<effectid>audiolevels</effectid>
							<effectcategory>audiolevels</effectcategory>
							<effecttype>audiolevels</effecttype>
							<mediatype>audio</mediatype>
							<parameter>
								<name>Level</name>
								<parameterid>level</parameterid>
								<valuemin>0</valuemin>
								<valuemax>3.98109</valuemax>
								<keyframe>
									<when>315.286</when>
									<value>0.891251</value>
								</keyframe>
								<keyframe>
									<when>319.786</when>
									<value>0.891251</value>
								</keyframe>
								<interpolation>
									<name>FCPCurve</name>
								</interpolation>
								<value>1</value>
							</parameter>
						</effect>
					</filter>
					<filter>
						<effect>
							<name>Audio Pan</name>
							<effectid>audiopan</effectid>
							<effectcategory>audiopan</effectcategory>
							<effecttype>audiopan</effecttype>
							<mediatype>audio</mediatype>
							<parameter>
								<name>Pan</name>
								<parameterid>pan</parameterid>
								<valuemin>-1</valuemin>
								<valuemax>1</valuemax>
								<value>0</value>
							</parameter>
						</effect>
					</filter>
					<sourcetrack>
						<mediatype>audio</mediatype>
						<trackindex>3</trackindex>
					</sourcetrack>
				</clipitem>
				<transitionitem id="957095960 ">
					<rate>
						<ntsc>FALSE</ntsc>
						<timebase>25</timebase>
					</rate>
					<start>7902</start>
					<end>7906</end>
					<alignment>center</alignment>
					<effect>
						<name>Cross Fade (+3dB) Copy</name>
						<effecttype>transition</effecttype>
						<mediatype>audio</mediatype>
					</effect>
				</transitionitem>
				<clipitem id="msub200012-2108kid2003 ">
					<name>msub200012-2108kid2003</name>
					<duration>1126</duration>
					<rate>
						<ntsc>FALSE</ntsc>
						<timebase>25</timebase>
					</rate>
					<in>355</in>
					<out>803</out>
					<start>-1</start>
					<end>-1</end>
					<subframeoffset>0</subframeoffset>
					<enabled>TRUE</enabled>
					<masterclipid>msub200012-2108kid2003 1</masterclipid>
					<logginginfo>
						<description>msub200012-2108kid2003</description>
						<scene/>
						<shottake/>
						<lognote/>
						<good>FALSE</good>
					</logginginfo>
					<labels>
						<label2/>
					</labels>
					<comments>
						<mastercomment1>RÅSTOFF. BR_FINFREDAG_MSUA_OPRO</mastercomment1>
						<mastercomment2/>
						<mastercomment3/>
						<mastercomment4/>
					</comments>
					<file id="msub200012-2108kid2003 2">
						<name>msub200012-2108kid2003.mxf</name>
						<pathurl>file://localhost/Volumes/omfs/clip.dir/MXF/1080i/msub200012-2108kid2003.mxf</pathurl>
						<rate>
							<timebase>25</timebase>
						</rate>
						<duration>1126</duration>
						<timecode>
							<rate>
								<timebase>25</timebase>
							</rate>
							<string>02:36:07:14</string>
							<frame>234189</frame>
							<displayformat>NDF</displayformat>
							<source>source</source>
						</timecode>
						<media>
							<video>
								<duration>1126</duration>
								<samplecharacteristics>
									<width>1920</width>
									<height>1080</height>
								</samplecharacteristics>
							</video>
							<audio>
								<rate>
									<timebase>48000</timebase>
								</rate>
								<trackcount>1</trackcount>
								<samplecharacteristics>
									<depth>24</depth>
								</samplecharacteristics>
							</audio>
						</media>
					</file>
					<filter>
						<enabled>TRUE</enabled>
						<start>-1</start>
						<end>-1</end>
						<effect>
							<name>3 Band Equalizer</name>
							<effecttype>filter</effecttype>
							<mediatype>audio</mediatype>
							<parameter>
								<parameterid>Low Frequency</parameterid>
								<name>Low Frequency</name>
								<valuemin>80</valuemin>
								<valuemax>2000</valuemax>
								<value>80</value>
							</parameter>
							<parameter>
								<parameterid>Low Gain(dB)</parameterid>
								<name>Low Gain(dB)</name>
								<valuemin>-20</valuemin>
								<valuemax>20</valuemax>
								<value>-4</value>
							</parameter>
							<parameter>
								<parameterid>Mid Frequency</parameterid>
								<name>Mid Frequency</name>
								<valuemin>400</valuemin>
								<valuemax>8000</valuemax>
								<value>3602</value>
							</parameter>
							<parameter>
								<parameterid>Mid Gain(dB)</parameterid>
								<name>Mid Gain(dB)</name>
								<valuemin>-20</valuemin>
								<valuemax>20</valuemax>
								<value>3</value>
							</parameter>
							<parameter>
								<parameterid>High Frequency</parameterid>
								<name>High Frequency</name>
								<valuemin>5000</valuemin>
								<valuemax>20000</valuemax>
								<value>10354</value>
							</parameter>
							<parameter>
								<parameterid>High Gain(dB)</parameterid>
								<name>High Gain(dB)</name>
								<valuemin>-20</valuemin>
								<valuemax>20</valuemax>
								<value>0</value>
							</parameter>
						</effect>
					</filter>
					<filter>
						<effect>
							<name>Audio Levels</name>
							<effectid>audiolevels</effectid>
							<effectcategory>audiolevels</effectcategory>
							<effecttype>audiolevels</effecttype>
							<mediatype>audio</mediatype>
							<parameter>
								<name>Level</name>
								<parameterid>level</parameterid>
								<valuemin>0</valuemin>
								<valuemax>3.98109</valuemax>
								<keyframe>
									<when>376.571</when>
									<value>1.41254</value>
								</keyframe>
								<keyframe>
									<when>379.143</when>
									<value>1.12202</value>
								</keyframe>
								<keyframe>
									<when>443.571</when>
									<value>1.12202</value>
								</keyframe>
								<keyframe>
									<when>459.571</when>
									<value>1</value>
								</keyframe>
								<keyframe>
									<when>641.5</when>
									<value>1</value>
								</keyframe>
								<keyframe>
									<when>649.857</when>
									<value>1.99526</value>
								</keyframe>
								<keyframe>
									<when>743.143</when>
									<value>1.99526</value>
								</keyframe>
								<keyframe>
									<when>745.714</when>
									<value>1.41254</value>
								</keyframe>
								<keyframe>
									<when>750.857</when>
									<value>1.41254</value>
								</keyframe>
								<keyframe>
									<when>753.714</when>
									<value>1.99526</value>
								</keyframe>
								<interpolation>
									<name>FCPCurve</name>
								</interpolation>
								<value>1.77828</value>
							</parameter>
						</effect>
					</filter>
					<filter>
						<effect>
							<name>Audio Pan</name>
							<effectid>audiopan</effectid>
							<effectcategory>audiopan</effectcategory>
							<effecttype>audiopan</effecttype>
							<mediatype>audio</mediatype>
							<parameter>
								<name>Pan</name>
								<parameterid>pan</parameterid>
								<valuemin>-1</valuemin>
								<valuemax>1</valuemax>
								<value>0</value>
							</parameter>
						</effect>
					</filter>
					<sourcetrack>
						<mediatype>audio</mediatype>
						<trackindex>1</trackindex>
					</sourcetrack>
				</clipitem>
				<transitionitem id="957081952 ">
					<rate>
						<ntsc>FALSE</ntsc>
						<timebase>25</timebase>
					</rate>
					<start>8344</start>
					<end>8350</end>
					<alignment>center</alignment>
					<effect>
						<name>Cross Fade (+3dB) Copy</name>
						<effecttype>transition</effecttype>
						<mediatype>audio</mediatype>
					</effect>
				</transitionitem>
				<clipitem id="msub200012-2108kid2003 3">
					<name>msub200012-2108kid2003</name>
					<duration>744</duration>
					<rate>
						<ntsc>FALSE</ntsc>
						<timebase>25</timebase>
					</rate>
					<in>536</in>
					<out>571</out>
					<start>-1</start>
					<end>8379</end>
					<subframeoffset>0</subframeoffset>
					<enabled>TRUE</enabled>
					<masterclipid>msub200012-2108kid2003 1</masterclipid>
					<logginginfo>
						<description>msub200012-2108kid2003</description>
						<scene/>
						<shottake/>
						<lognote/>
						<good>FALSE</good>
					</logginginfo>
					<labels>
						<label2/>
					</labels>
					<comments>
						<mastercomment1>RÅSTOFF. BR_FINFREDAG_MSUA_OPRO</mastercomment1>
						<mastercomment2/>
						<mastercomment3/>
						<mastercomment4/>
					</comments>
					<file id="msub200012-2108kid2003 2"/>
					<filter>
						<effect>
							<name>Audio Levels</name>
							<effectid>audiolevels</effectid>
							<effectcategory>audiolevels</effectcategory>
							<effecttype>audiolevels</effecttype>
							<mediatype>audio</mediatype>
							<parameter>
								<name>Level</name>
								<parameterid>level</parameterid>
								<valuemin>0</valuemin>
								<valuemax>3.98109</valuemax>
								<value>1</value>
							</parameter>
						</effect>
					</filter>
					<filter>
						<effect>
							<name>Audio Pan</name>
							<effectid>audiopan</effectid>
							<effectcategory>audiopan</effectcategory>
							<effecttype>audiopan</effecttype>
							<mediatype>audio</mediatype>
							<parameter>
								<name>Pan</name>
								<parameterid>pan</parameterid>
								<valuemin>-1</valuemin>
								<valuemax>1</valuemax>
								<value>0</value>
							</parameter>
						</effect>
					</filter>
					<sourcetrack>
						<mediatype>audio</mediatype>
						<trackindex>1</trackindex>
					</sourcetrack>
					<filter>
						<effect>
							<name>Time Remap</name>
							<effectid>timeremap</effectid>
							<effectcategory>motion</effectcategory>
							<effecttype>motion</effecttype>
							<mediatype>audio</mediatype>
							<parameter>
								<parameterid>variablespeed</parameterid>
								<name>variablespeed</name>
								<valuemin>0</valuemin>
								<valuemax>1</valuemax>
								<value>0</value>
							</parameter>
							<parameter>
								<parameterid>mappedduration</parameterid>
								<name>mappedduration</name>
								<value>
									<timecode>
										<rate>
											<timebase>0</timebase>
										</rate>
										<string>0</string>
										<frame>0</frame>
										<displayformat>NDF</displayformat>
									</timecode>
								</value>
							</parameter>
							<parameter>
								<parameterid>speed</parameterid>
								<name>speed</name>
								<valuemin>-10000</valuemin>
								<valuemax>10000</valuemax>
								<value>151</value>
							</parameter>
							<parameter>
								<parameterid>reverse</parameterid>
								<name>reverse</name>
								<value>FALSE</value>
							</parameter>
							<parameter>
								<parameterid>frameblending</parameterid>
								<name>frameblending</name>
								<value>TRUE</value>
							</parameter>
							<parameter>
								<parameterid>graphdict</parameterid>
								<name>graphdict</name>
								<valuemin>0</valuemin>
								<valuemax>1125</valuemax>
								<keyframe>
									<when>0</when>
									<value>0.8829</value>
									<speedkfstart>TRUE</speedkfstart>
									<speedvirtualkf>TRUE</speedvirtualkf>
								</keyframe>
								<keyframe>
									<when>536</when>
									<value>812.458</value>
									<speedkfin>TRUE</speedkfin>
									<speedvirtualkf>TRUE</speedvirtualkf>
								</keyframe>
								<keyframe>
									<when>571</when>
									<value>865.452</value>
									<speedkfout>TRUE</speedkfout>
									<speedvirtualkf>TRUE</speedvirtualkf>
								</keyframe>
								<keyframe>
									<when>744</when>
									<value>1126.88</value>
									<speedkfend>TRUE</speedkfend>
									<speedvirtualkf>TRUE</speedvirtualkf>
								</keyframe>
								<interpolation>
									<name>FCPCurve</name>
								</interpolation>
								<value>812.458</value>
							</parameter>
						</effect>
					</filter>
				</clipitem>
				<transitionitem id="957070664 ">
					<rate>
						<ntsc>FALSE</ntsc>
						<timebase>25</timebase>
					</rate>
					<start>8487</start>
					<end>8499</end>
					<alignment>center</alignment>
					<effect>
						<name>Cross Fade (+3dB) Copy</name>
						<effecttype>transition</effecttype>
						<mediatype>audio</mediatype>
					</effect>
				</transitionitem>
				<clipitem id="msub200012-2108kid1-003 ">
					<name>msub200012-2108kid1-003</name>
					<duration>899</duration>
					<rate>
						<ntsc>FALSE</ntsc>
						<timebase>25</timebase>
					</rate>
					<in>78</in>
					<out>726</out>
					<start>-1</start>
					<end>-1</end>
					<subframeoffset>0</subframeoffset>
					<masterclipid>msub200012-2108kid1-003 1</masterclipid>
					<logginginfo>
						<description>msub200012-2108kid1-003</description>
						<scene/>
						<shottake/>
						<lognote/>
						<good>FALSE</good>
					</logginginfo>
					<labels>
						<label2/>
					</labels>
					<comments>
						<mastercomment1>RÅSTOFF. BR_FINFREDAG_MSUA_OPRO</mastercomment1>
						<mastercomment2/>
						<mastercomment3/>
						<mastercomment4/>
					</comments>
					<file id="msub200012-2108kid1-003 2">
						<name>msub200012-2108kid1-003.mxf</name>
						<pathurl>file://localhost/Volumes/omfs/clip.dir/MXF/1080i/msub200012-2108kid1-003.mxf</pathurl>
						<rate>
							<timebase>25</timebase>
						</rate>
						<duration>899</duration>
						<timecode>
							<rate>
								<timebase>25</timebase>
							</rate>
							<string>02:01:25:00</string>
							<frame>182125</frame>
							<displayformat>NDF</displayformat>
							<source>source</source>
						</timecode>
						<media>
							<video>
								<duration>899</duration>
								<samplecharacteristics>
									<width>1920</width>
									<height>1080</height>
								</samplecharacteristics>
							</video>
							<audio>
								<rate>
									<timebase>48000</timebase>
								</rate>
								<trackcount>1</trackcount>
								<samplecharacteristics>
									<depth>24</depth>
								</samplecharacteristics>
							</audio>
						</media>
					</file>
					<filter>
						<start>-1</start>
						<end>-1</end>
						<effect>
							<name>3 Band Equalizer</name>
							<effecttype>filter</effecttype>
							<mediatype>audio</mediatype>
							<parameter>
								<parameterid>Low Frequency</parameterid>
								<name>Low Frequency</name>
								<valuemin>80</valuemin>
								<valuemax>2000</valuemax>
								<value>80</value>
							</parameter>
							<parameter>
								<parameterid>Low Gain(dB)</parameterid>
								<name>Low Gain(dB)</name>
								<valuemin>-20</valuemin>
								<valuemax>20</valuemax>
								<value>-4</value>
							</parameter>
							<parameter>
								<parameterid>Mid Frequency</parameterid>
								<name>Mid Frequency</name>
								<valuemin>400</valuemin>
								<valuemax>8000</valuemax>
								<value>3602</value>
							</parameter>
							<parameter>
								<parameterid>Mid Gain(dB)</parameterid>
								<name>Mid Gain(dB)</name>
								<valuemin>-20</valuemin>
								<valuemax>20</valuemax>
								<value>3</value>
							</parameter>
							<parameter>
								<parameterid>High Frequency</parameterid>
								<name>High Frequency</name>
								<valuemin>5000</valuemin>
								<valuemax>20000</valuemax>
								<value>10354</value>
							</parameter>
							<parameter>
								<parameterid>High Gain(dB)</parameterid>
								<name>High Gain(dB)</name>
								<valuemin>-20</valuemin>
								<valuemax>20</valuemax>
								<value>0</value>
							</parameter>
						</effect>
					</filter>
					<filter>
						<effect>
							<name>Audio Levels</name>
							<effectid>audiolevels</effectid>
							<effectcategory>audiolevels</effectcategory>
							<effecttype>audiolevels</effecttype>
							<mediatype>audio</mediatype>
							<parameter>
								<name>Level</name>
								<parameterid>level</parameterid>
								<valuemin>0</valuemin>
								<valuemax>3.98109</valuemax>
								<keyframe>
									<when>374.786</when>
									<value>0.891251</value>
								</keyframe>
								<keyframe>
									<when>429</when>
									<value>1.77828</value>
								</keyframe>
								<keyframe>
									<when>524.643</when>
									<value>1.77828</value>
								</keyframe>
								<keyframe>
									<when>529.143</when>
									<value>1</value>
								</keyframe>
								<keyframe>
									<when>542.143</when>
									<value>1</value>
								</keyframe>
								<keyframe>
									<when>555.857</when>
									<value>2.23872</value>
								</keyframe>
								<interpolation>
									<name>FCPCurve</name>
								</interpolation>
								<value>1</value>
							</parameter>
						</effect>
					</filter>
					<filter>
						<effect>
							<name>Audio Pan</name>
							<effectid>audiopan</effectid>
							<effectcategory>audiopan</effectcategory>
							<effecttype>audiopan</effecttype>
							<mediatype>audio</mediatype>
							<parameter>
								<name>Pan</name>
								<parameterid>pan</parameterid>
								<valuemin>-1</valuemin>
								<valuemax>1</valuemax>
								<value>0</value>
							</parameter>
						</effect>
					</filter>
					<sourcetrack>
						<mediatype>audio</mediatype>
						<trackindex>1</trackindex>
					</sourcetrack>
				</clipitem>
				<transitionitem id="957376628 ">
					<rate>
						<ntsc>FALSE</ntsc>
						<timebase>25</timebase>
					</rate>
					<start>9123</start>
					<end>9135</end>
					<alignment>center</alignment>
					<effect>
						<name>Cross Fade (+3dB) Copy</name>
						<effecttype>transition</effecttype>
						<mediatype>audio</mediatype>
					</effect>
				</transitionitem>
				<clipitem id="msub200012-2108kid1-005 ">
					<name>msub200012-2108kid1-005</name>
					<duration>674</duration>
					<rate>
						<ntsc>FALSE</ntsc>
						<timebase>25</timebase>
					</rate>
					<in>205</in>
					<out>573</out>
					<start>-1</start>
					<end>-1</end>
					<subframeoffset>0</subframeoffset>
					<enabled>TRUE</enabled>
					<masterclipid>msub200012-2108kid1-005 1</masterclipid>
					<logginginfo>
						<description>msub200012-2108kid1-005</description>
						<scene/>
						<shottake/>
						<lognote/>
						<good>FALSE</good>
					</logginginfo>
					<labels>
						<label2/>
					</labels>
					<comments>
						<mastercomment1>RÅSTOFF. BR_FINFREDAG_MSUA_OPRO</mastercomment1>
						<mastercomment2/>
						<mastercomment3/>
						<mastercomment4/>
					</comments>
					<file id="msub200012-2108kid1-005 2">
						<name>msub200012-2108kid1-005.mxf</name>
						<pathurl>file://localhost/Volumes/omfs/clip.dir/MXF/1080i/msub200012-2108kid1-005.mxf</pathurl>
						<rate>
							<timebase>25</timebase>
						</rate>
						<duration>674</duration>
						<timecode>
							<rate>
								<timebase>25</timebase>
							</rate>
							<string>02:02:18:19</string>
							<frame>183469</frame>
							<displayformat>NDF</displayformat>
							<source>source</source>
						</timecode>
						<media>
							<video>
								<duration>674</duration>
								<samplecharacteristics>
									<width>1920</width>
									<height>1080</height>
								</samplecharacteristics>
							</video>
							<audio>
								<rate>
									<timebase>48000</timebase>
								</rate>
								<trackcount>1</trackcount>
								<samplecharacteristics>
									<depth>24</depth>
								</samplecharacteristics>
							</audio>
						</media>
					</file>
					<filter>
						<enabled>TRUE</enabled>
						<start>-1</start>
						<end>-1</end>
						<effect>
							<name>3 Band Equalizer</name>
							<effecttype>filter</effecttype>
							<mediatype>audio</mediatype>
							<parameter>
								<parameterid>Low Frequency</parameterid>
								<name>Low Frequency</name>
								<valuemin>80</valuemin>
								<valuemax>2000</valuemax>
								<value>80</value>
							</parameter>
							<parameter>
								<parameterid>Low Gain(dB)</parameterid>
								<name>Low Gain(dB)</name>
								<valuemin>-20</valuemin>
								<valuemax>20</valuemax>
								<value>-4</value>
							</parameter>
							<parameter>
								<parameterid>Mid Frequency</parameterid>
								<name>Mid Frequency</name>
								<valuemin>400</valuemin>
								<valuemax>8000</valuemax>
								<value>3602</value>
							</parameter>
							<parameter>
								<parameterid>Mid Gain(dB)</parameterid>
								<name>Mid Gain(dB)</name>
								<valuemin>-20</valuemin>
								<valuemax>20</valuemax>
								<value>3</value>
							</parameter>
							<parameter>
								<parameterid>High Frequency</parameterid>
								<name>High Frequency</name>
								<valuemin>5000</valuemin>
								<valuemax>20000</valuemax>
								<value>10354</value>
							</parameter>
							<parameter>
								<parameterid>High Gain(dB)</parameterid>
								<name>High Gain(dB)</name>
								<valuemin>-20</valuemin>
								<valuemax>20</valuemax>
								<value>0</value>
							</parameter>
						</effect>
					</filter>
					<filter>
						<effect>
							<name>Audio Levels</name>
							<effectid>audiolevels</effectid>
							<effectcategory>audiolevels</effectcategory>
							<effecttype>audiolevels</effecttype>
							<mediatype>audio</mediatype>
							<parameter>
								<name>Level</name>
								<parameterid>level</parameterid>
								<valuemin>0</valuemin>
								<valuemax>3.98109</valuemax>
								<keyframe>
									<when>316.571</when>
									<value>1</value>
								</keyframe>
								<keyframe>
									<when>324</when>
									<value>0.891251</value>
								</keyframe>
								<keyframe>
									<when>376.571</when>
									<value>0.891251</value>
								</keyframe>
								<keyframe>
									<when>385.143</when>
									<value>0.891251</value>
								</keyframe>
								<keyframe>
									<when>457.357</when>
									<value>0.891251</value>
								</keyframe>
								<keyframe>
									<when>459.929</when>
									<value>0.158489</value>
								</keyframe>
								<keyframe>
									<when>468.286</when>
									<value>0.158489</value>
								</keyframe>
								<keyframe>
									<when>472.143</when>
									<value>0.891251</value>
								</keyframe>
								<interpolation>
									<name>FCPCurve</name>
								</interpolation>
								<value>1.25893</value>
							</parameter>
						</effect>
					</filter>
					<filter>
						<effect>
							<name>Audio Pan</name>
							<effectid>audiopan</effectid>
							<effectcategory>audiopan</effectcategory>
							<effecttype>audiopan</effecttype>
							<mediatype>audio</mediatype>
							<parameter>
								<name>Pan</name>
								<parameterid>pan</parameterid>
								<valuemin>-1</valuemin>
								<valuemax>1</valuemax>
								<value>0</value>
							</parameter>
						</effect>
					</filter>
					<sourcetrack>
						<mediatype>audio</mediatype>
						<trackindex>3</trackindex>
					</sourcetrack>
				</clipitem>
				<transitionitem id="957373908 ">
					<rate>
						<ntsc>FALSE</ntsc>
						<timebase>25</timebase>
					</rate>
					<start>9479</start>
					<end>9491</end>
					<alignment>end-black</alignment>
					<effect>
						<name>Cross Fade (+3dB) Copy</name>
						<effecttype>transition</effecttype>
						<mediatype>audio</mediatype>
					</effect>
				</transitionitem>
				<clipitem id="msub200012-2108kid1-026 ">
					<name>msub200012-2108kid1-026</name>
					<duration>2145</duration>
					<rate>
						<ntsc>FALSE</ntsc>
						<timebase>25</timebase>
					</rate>
					<in>165</in>
					<out>488</out>
					<start>9794</start>
					<end>-1</end>
					<subframeoffset>0</subframeoffset>
					<enabled>TRUE</enabled>
					<masterclipid>msub200012-2108kid1-026 1</masterclipid>
					<logginginfo>
						<description>msub200012-2108kid1-026</description>
						<scene/>
						<shottake/>
						<lognote/>
						<good>FALSE</good>
					</logginginfo>
					<labels>
						<label2/>
					</labels>
					<comments>
						<mastercomment1>RÅSTOFF. BR_FINFREDAG_MSUA_OPRO</mastercomment1>
						<mastercomment2/>
						<mastercomment3/>
						<mastercomment4/>
					</comments>
					<file id="msub200012-2108kid1-026 2">
						<name>msub200012-2108kid1-026.mxf</name>
						<pathurl>file://localhost/Volumes/omfs/clip.dir/MXF/1080i/msub200012-2108kid1-026.mxf</pathurl>
						<rate>
							<timebase>25</timebase>
						</rate>
						<duration>2145</duration>
						<timecode>
							<rate>
								<timebase>25</timebase>
							</rate>
							<string>02:21:09:01</string>
							<frame>211726</frame>
							<displayformat>NDF</displayformat>
							<source>source</source>
						</timecode>
						<media>
							<video>
								<duration>2145</duration>
								<samplecharacteristics>
									<width>1920</width>
									<height>1080</height>
								</samplecharacteristics>
							</video>
							<audio>
								<rate>
									<timebase>48000</timebase>
								</rate>
								<trackcount>1</trackcount>
								<samplecharacteristics>
									<depth>24</depth>
								</samplecharacteristics>
							</audio>
						</media>
					</file>
					<filter>
						<enabled>TRUE</enabled>
						<start>-1</start>
						<end>-1</end>
						<effect>
							<name>3 Band Equalizer - Kristine</name>
							<effecttype>filter</effecttype>
							<mediatype>audio</mediatype>
							<parameter>
								<parameterid>Low Frequency</parameterid>
								<name>Low Frequency</name>
								<valuemin>80</valuemin>
								<valuemax>2000</valuemax>
								<value>80</value>
							</parameter>
							<parameter>
								<parameterid>Low Gain(dB)</parameterid>
								<name>Low Gain(dB)</name>
								<valuemin>-20</valuemin>
								<valuemax>20</valuemax>
								<value>-4</value>
							</parameter>
							<parameter>
								<parameterid>Mid Frequency</parameterid>
								<name>Mid Frequency</name>
								<valuemin>400</valuemin>
								<valuemax>8000</valuemax>
								<value>3602</value>
							</parameter>
							<parameter>
								<parameterid>Mid Gain(dB)</parameterid>
								<name>Mid Gain(dB)</name>
								<valuemin>-20</valuemin>
								<valuemax>20</valuemax>
								<value>3</value>
							</parameter>
							<parameter>
								<parameterid>High Frequency</parameterid>
								<name>High Frequency</name>
								<valuemin>5000</valuemin>
								<valuemax>20000</valuemax>
								<value>10354</value>
							</parameter>
							<parameter>
								<parameterid>High Gain(dB)</parameterid>
								<name>High Gain(dB)</name>
								<valuemin>-20</valuemin>
								<valuemax>20</valuemax>
								<value>0</value>
							</parameter>
						</effect>
					</filter>
					<filter>
						<effect>
							<name>Audio Levels</name>
							<effectid>audiolevels</effectid>
							<effectcategory>audiolevels</effectcategory>
							<effecttype>audiolevels</effecttype>
							<mediatype>audio</mediatype>
							<parameter>
								<name>Level</name>
								<parameterid>level</parameterid>
								<valuemin>0</valuemin>
								<valuemax>3.98109</valuemax>
								<keyframe>
									<when>265.857</when>
									<value>0.891251</value>
								</keyframe>
								<keyframe>
									<when>271.286</when>
									<value>0.446684</value>
								</keyframe>
								<keyframe>
									<when>282.679</when>
									<value>0.446684</value>
								</keyframe>
								<keyframe>
									<when>291.679</when>
									<value>1</value>
								</keyframe>
								<keyframe>
									<when>310.143</when>
									<value>1</value>
								</keyframe>
								<keyframe>
									<when>315.857</when>
									<value>0.354813</value>
								</keyframe>
								<keyframe>
									<when>333</when>
									<value>0.354813</value>
								</keyframe>
								<keyframe>
									<when>336.714</when>
									<value>1</value>
								</keyframe>
								<interpolation>
									<name>FCPCurve</name>
								</interpolation>
								<value>0.354813</value>
							</parameter>
						</effect>
					</filter>
					<filter>
						<effect>
							<name>Audio Pan</name>
							<effectid>audiopan</effectid>
							<effectcategory>audiopan</effectcategory>
							<effecttype>audiopan</effecttype>
							<mediatype>audio</mediatype>
							<parameter>
								<name>Pan</name>
								<parameterid>pan</parameterid>
								<valuemin>-1</valuemin>
								<valuemax>1</valuemax>
								<value>0</value>
							</parameter>
						</effect>
					</filter>
					<sourcetrack>
						<mediatype>audio</mediatype>
						<trackindex>3</trackindex>
					</sourcetrack>
				</clipitem>
				<transitionitem id="957361124 ">
					<rate>
						<ntsc>FALSE</ntsc>
						<timebase>25</timebase>
					</rate>
					<start>10105</start>
					<end>10117</end>
					<alignment>end-black</alignment>
					<effect>
						<name>Cross Fade (+3dB) Copy</name>
						<effecttype>transition</effecttype>
						<mediatype>audio</mediatype>
					</effect>
				</transitionitem>
				<transitionitem id="957359764 ">
					<rate>
						<ntsc>FALSE</ntsc>
						<timebase>25</timebase>
					</rate>
					<start>10285</start>
					<end>10297</end>
					<alignment>center</alignment>
					<effect>
						<name>Cross Fade (+3dB) Copy</name>
						<effecttype>transition</effecttype>
						<mediatype>audio</mediatype>
					</effect>
				</transitionitem>
				<clipitem id="msub200012-2108kid1-032 ">
					<name>msub200012-2108kid1-032</name>
					<duration>3429</duration>
					<rate>
						<ntsc>FALSE</ntsc>
						<timebase>25</timebase>
					</rate>
					<in>2657</in>
					<out>2748</out>
					<start>-1</start>
					<end>-1</end>
					<subframeoffset>0</subframeoffset>
					<enabled>TRUE</enabled>
					<masterclipid>msub200012-2108kid1-032 1</masterclipid>
					<logginginfo>
						<description>msub200012-2108kid1-032</description>
						<scene/>
						<shottake/>
						<lognote/>
						<good>FALSE</good>
					</logginginfo>
					<labels>
						<label2/>
					</labels>
					<comments>
						<mastercomment1>RÅSTOFF. BR_FINFREDAG_MSUA_OPRO</mastercomment1>
						<mastercomment2/>
						<mastercomment3/>
						<mastercomment4/>
					</comments>
					<file id="msub200012-2108kid1-032 2">
						<name>msub200012-2108kid1-032.mxf</name>
						<pathurl>file://localhost/Volumes/omfs/clip.dir/MXF/1080i/msub200012-2108kid1-032.mxf</pathurl>
						<rate>
							<timebase>25</timebase>
						</rate>
						<duration>3429</duration>
						<timecode>
							<rate>
								<timebase>25</timebase>
							</rate>
							<string>02:25:29:01</string>
							<frame>218226</frame>
							<displayformat>NDF</displayformat>
							<source>source</source>
						</timecode>
						<media>
							<video>
								<duration>3429</duration>
								<samplecharacteristics>
									<width>1920</width>
									<height>1080</height>
								</samplecharacteristics>
							</video>
							<audio>
								<rate>
									<timebase>48000</timebase>
								</rate>
								<trackcount>1</trackcount>
								<samplecharacteristics>
									<depth>24</depth>
								</samplecharacteristics>
							</audio>
						</media>
					</file>
					<filter>
						<enabled>TRUE</enabled>
						<start>-1</start>
						<end>-1</end>
						<effect>
							<name>3 Band Equalizer - Kristine - 2</name>
							<effecttype>filter</effecttype>
							<mediatype>audio</mediatype>
							<parameter>
								<parameterid>Low Frequency</parameterid>
								<name>Low Frequency</name>
								<valuemin>80</valuemin>
								<valuemax>2000</valuemax>
								<value>80</value>
							</parameter>
							<parameter>
								<parameterid>Low Gain(dB)</parameterid>
								<name>Low Gain(dB)</name>
								<valuemin>-20</valuemin>
								<valuemax>20</valuemax>
								<value>-3</value>
							</parameter>
							<parameter>
								<parameterid>Mid Frequency</parameterid>
								<name>Mid Frequency</name>
								<valuemin>400</valuemin>
								<valuemax>8000</valuemax>
								<value>3602</value>
							</parameter>
							<parameter>
								<parameterid>Mid Gain(dB)</parameterid>
								<name>Mid Gain(dB)</name>
								<valuemin>-20</valuemin>
								<valuemax>20</valuemax>
								<value>3</value>
							</parameter>
							<parameter>
								<parameterid>High Frequency</parameterid>
								<name>High Frequency</name>
								<valuemin>5000</valuemin>
								<valuemax>20000</valuemax>
								<value>10354</value>
							</parameter>
							<parameter>
								<parameterid>High Gain(dB)</parameterid>
								<name>High Gain(dB)</name>
								<valuemin>-20</valuemin>
								<valuemax>20</valuemax>
								<value>0</value>
							</parameter>
						</effect>
					</filter>
					<filter>
						<effect>
							<name>Audio Levels</name>
							<effectid>audiolevels</effectid>
							<effectcategory>audiolevels</effectcategory>
							<effecttype>audiolevels</effecttype>
							<mediatype>audio</mediatype>
							<parameter>
								<name>Level</name>
								<parameterid>level</parameterid>
								<valuemin>0</valuemin>
								<valuemax>3.98109</valuemax>
								<value>1.77828</value>
							</parameter>
						</effect>
					</filter>
					<filter>
						<effect>
							<name>Audio Pan</name>
							<effectid>audiopan</effectid>
							<effectcategory>audiopan</effectcategory>
							<effecttype>audiopan</effecttype>
							<mediatype>audio</mediatype>
							<parameter>
								<name>Pan</name>
								<parameterid>pan</parameterid>
								<valuemin>-1</valuemin>
								<valuemax>1</valuemax>
								<value>0</value>
							</parameter>
						</effect>
					</filter>
					<sourcetrack>
						<mediatype>audio</mediatype>
						<trackindex>1</trackindex>
					</sourcetrack>
				</clipitem>
				<transitionitem id="957355344 ">
					<rate>
						<ntsc>FALSE</ntsc>
						<timebase>25</timebase>
					</rate>
					<start>10364</start>
					<end>10376</end>
					<alignment>center</alignment>
					<effect>
						<name>Cross Fade (+3dB) Copy</name>
						<effecttype>transition</effecttype>
						<mediatype>audio</mediatype>
					</effect>
				</transitionitem>
				<clipitem id="msub200012-2108kid1-032 3">
					<name>msub200012-2108kid1-032</name>
					<duration>3429</duration>
					<rate>
						<ntsc>FALSE</ntsc>
						<timebase>25</timebase>
					</rate>
					<in>2736</in>
					<out>2933</out>
					<start>-1</start>
					<end>-1</end>
					<subframeoffset>0</subframeoffset>
					<enabled>TRUE</enabled>
					<masterclipid>msub200012-2108kid1-032 1</masterclipid>
					<logginginfo>
						<description>msub200012-2108kid1-032</description>
						<scene/>
						<shottake/>
						<lognote/>
						<good>FALSE</good>
					</logginginfo>
					<labels>
						<label2/>
					</labels>
					<comments>
						<mastercomment1>RÅSTOFF. BR_FINFREDAG_MSUA_OPRO</mastercomment1>
						<mastercomment2/>
						<mastercomment3/>
						<mastercomment4/>
					</comments>
					<file id="msub200012-2108kid1-032 2"/>
					<filter>
						<enabled>TRUE</enabled>
						<start>-1</start>
						<end>-1</end>
						<effect>
							<name>3 Band Equalizer - Kristine</name>
							<effecttype>filter</effecttype>
							<mediatype>audio</mediatype>
							<parameter>
								<parameterid>Low Frequency</parameterid>
								<name>Low Frequency</name>
								<valuemin>80</valuemin>
								<valuemax>2000</valuemax>
								<value>80</value>
							</parameter>
							<parameter>
								<parameterid>Low Gain(dB)</parameterid>
								<name>Low Gain(dB)</name>
								<valuemin>-20</valuemin>
								<valuemax>20</valuemax>
								<value>-4</value>
							</parameter>
							<parameter>
								<parameterid>Mid Frequency</parameterid>
								<name>Mid Frequency</name>
								<valuemin>400</valuemin>
								<valuemax>8000</valuemax>
								<value>3602</value>
							</parameter>
							<parameter>
								<parameterid>Mid Gain(dB)</parameterid>
								<name>Mid Gain(dB)</name>
								<valuemin>-20</valuemin>
								<valuemax>20</valuemax>
								<value>3</value>
							</parameter>
							<parameter>
								<parameterid>High Frequency</parameterid>
								<name>High Frequency</name>
								<valuemin>5000</valuemin>
								<valuemax>20000</valuemax>
								<value>10354</value>
							</parameter>
							<parameter>
								<parameterid>High Gain(dB)</parameterid>
								<name>High Gain(dB)</name>
								<valuemin>-20</valuemin>
								<valuemax>20</valuemax>
								<value>0</value>
							</parameter>
						</effect>
					</filter>
					<filter>
						<effect>
							<name>Audio Levels</name>
							<effectid>audiolevels</effectid>
							<effectcategory>audiolevels</effectcategory>
							<effecttype>audiolevels</effecttype>
							<mediatype>audio</mediatype>
							<parameter>
								<name>Level</name>
								<parameterid>level</parameterid>
								<valuemin>0</valuemin>
								<valuemax>3.98109</valuemax>
								<keyframe>
									<when>2916.57</when>
									<value>0.158489</value>
								</keyframe>
								<keyframe>
									<when>2921.14</when>
									<value>0.0177828</value>
								</keyframe>
								<interpolation>
									<name>FCPCurve</name>
								</interpolation>
								<value>0.158489</value>
							</parameter>
						</effect>
					</filter>
					<filter>
						<effect>
							<name>Audio Pan</name>
							<effectid>audiopan</effectid>
							<effectcategory>audiopan</effectcategory>
							<effecttype>audiopan</effecttype>
							<mediatype>audio</mediatype>
							<parameter>
								<name>Pan</name>
								<parameterid>pan</parameterid>
								<valuemin>-1</valuemin>
								<valuemax>1</valuemax>
								<value>0</value>
							</parameter>
						</effect>
					</filter>
					<sourcetrack>
						<mediatype>audio</mediatype>
						<trackindex>1</trackindex>
					</sourcetrack>
				</clipitem>
				<transitionitem id="957349088 ">
					<rate>
						<ntsc>FALSE</ntsc>
						<timebase>25</timebase>
					</rate>
					<start>10560</start>
					<end>10561</end>
					<alignment>end-black</alignment>
					<effect>
						<name>Cross Fade (+3dB) Copy</name>
						<effecttype>transition</effecttype>
						<mediatype>audio</mediatype>
					</effect>
				</transitionitem>
				<transitionitem id="957380572 ">
					<rate>
						<ntsc>FALSE</ntsc>
						<timebase>25</timebase>
					</rate>
					<start>10758</start>
					<end>10770</end>
					<alignment>start-black</alignment>
					<effect>
						<name>Cross Fade (+3dB) Copy</name>
						<effecttype>transition</effecttype>
						<mediatype>audio</mediatype>
					</effect>
				</transitionitem>
				<clipitem id="msub200012-2108kid1-018 ">
					<name>msub200012-2108kid1-018</name>
					<duration>1665</duration>
					<rate>
						<ntsc>FALSE</ntsc>
						<timebase>25</timebase>
					</rate>
					<in>98</in>
					<out>294</out>
					<start>-1</start>
					<end>-1</end>
					<subframeoffset>0</subframeoffset>
					<masterclipid>msub200012-2108kid1-018 1</masterclipid>
					<logginginfo>
						<description>msub200012-2108kid1-018</description>
						<scene/>
						<shottake/>
						<lognote/>
						<good>FALSE</good>
					</logginginfo>
					<labels>
						<label2/>
					</labels>
					<comments>
						<mastercomment1>RÅSTOFF. BR_FINFREDAG_MSUA_OPRO</mastercomment1>
						<mastercomment2/>
						<mastercomment3/>
						<mastercomment4/>
					</comments>
					<file id="msub200012-2108kid1-018 2">
						<name>msub200012-2108kid1-018.mxf</name>
						<pathurl>file://localhost/Volumes/omfs/clip.dir/MXF/1080i/msub200012-2108kid1-018.mxf</pathurl>
						<rate>
							<timebase>25</timebase>
						</rate>
						<duration>1665</duration>
						<timecode>
							<rate>
								<timebase>25</timebase>
							</rate>
							<string>02:10:02:15</string>
							<frame>195065</frame>
							<displayformat>NDF</displayformat>
							<source>source</source>
						</timecode>
						<media>
							<video>
								<duration>1665</duration>
								<samplecharacteristics>
									<width>1920</width>
									<height>1080</height>
								</samplecharacteristics>
							</video>
							<audio>
								<rate>
									<timebase>48000</timebase>
								</rate>
								<trackcount>1</trackcount>
								<samplecharacteristics>
									<depth>24</depth>
								</samplecharacteristics>
							</audio>
						</media>
					</file>
					<filter>
						<start>-1</start>
						<end>-1</end>
						<effect>
							<name>3 Band Equalizer - Kristine</name>
							<effecttype>filter</effecttype>
							<mediatype>audio</mediatype>
							<parameter>
								<parameterid>Low Frequency</parameterid>
								<name>Low Frequency</name>
								<valuemin>80</valuemin>
								<valuemax>2000</valuemax>
								<value>80</value>
							</parameter>
							<parameter>
								<parameterid>Low Gain(dB)</parameterid>
								<name>Low Gain(dB)</name>
								<valuemin>-20</valuemin>
								<valuemax>20</valuemax>
								<value>-4</value>
							</parameter>
							<parameter>
								<parameterid>Mid Frequency</parameterid>
								<name>Mid Frequency</name>
								<valuemin>400</valuemin>
								<valuemax>8000</valuemax>
								<value>3602</value>
							</parameter>
							<parameter>
								<parameterid>Mid Gain(dB)</parameterid>
								<name>Mid Gain(dB)</name>
								<valuemin>-20</valuemin>
								<valuemax>20</valuemax>
								<value>3</value>
							</parameter>
							<parameter>
								<parameterid>High Frequency</parameterid>
								<name>High Frequency</name>
								<valuemin>5000</valuemin>
								<valuemax>20000</valuemax>
								<value>10354</value>
							</parameter>
							<parameter>
								<parameterid>High Gain(dB)</parameterid>
								<name>High Gain(dB)</name>
								<valuemin>-20</valuemin>
								<valuemax>20</valuemax>
								<value>0</value>
							</parameter>
						</effect>
					</filter>
					<filter>
						<effect>
							<name>Audio Levels</name>
							<effectid>audiolevels</effectid>
							<effectcategory>audiolevels</effectcategory>
							<effecttype>audiolevels</effecttype>
							<mediatype>audio</mediatype>
							<parameter>
								<name>Level</name>
								<parameterid>level</parameterid>
								<valuemin>0</valuemin>
								<valuemax>3.98109</valuemax>
								<value>1</value>
							</parameter>
						</effect>
					</filter>
					<filter>
						<effect>
							<name>Audio Pan</name>
							<effectid>audiopan</effectid>
							<effectcategory>audiopan</effectcategory>
							<effecttype>audiopan</effecttype>
							<mediatype>audio</mediatype>
							<parameter>
								<name>Pan</name>
								<parameterid>pan</parameterid>
								<valuemin>-1</valuemin>
								<valuemax>1</valuemax>
								<value>0</value>
							</parameter>
						</effect>
					</filter>
					<sourcetrack>
						<mediatype>audio</mediatype>
						<trackindex>3</trackindex>
					</sourcetrack>
				</clipitem>
				<transitionitem id="957370576 ">
					<rate>
						<ntsc>FALSE</ntsc>
						<timebase>25</timebase>
					</rate>
					<start>10942</start>
					<end>10954</end>
					<alignment>start</alignment>
					<effect>
						<name>Cross Fade (+3dB) Copy</name>
						<effecttype>transition</effecttype>
						<mediatype>audio</mediatype>
					</effect>
				</transitionitem>
				<clipitem id="msub200012-2108kid1-017 ">
					<name>msub200012-2108kid1-017</name>
					<duration>2619</duration>
					<rate>
						<ntsc>FALSE</ntsc>
						<timebase>25</timebase>
					</rate>
					<in>1618</in>
					<out>1864</out>
					<start>-1</start>
					<end>-1</end>
					<subframeoffset>0</subframeoffset>
					<enabled>TRUE</enabled>
					<masterclipid>msub200012-2108kid1-017 1</masterclipid>
					<logginginfo>
						<description>msub200012-2108kid1-017</description>
						<scene/>
						<shottake/>
						<lognote/>
						<good>FALSE</good>
					</logginginfo>
					<labels>
						<label2/>
					</labels>
					<comments>
						<mastercomment1>RÅSTOFF. BR_FINFREDAG_MSUA_OPRO</mastercomment1>
						<mastercomment2/>
						<mastercomment3/>
						<mastercomment4/>
					</comments>
					<file id="msub200012-2108kid1-017 2">
						<name>msub200012-2108kid1-017.mxf</name>
						<pathurl>file://localhost/Volumes/omfs/clip.dir/MXF/1080i/msub200012-2108kid1-017.mxf</pathurl>
						<rate>
							<timebase>25</timebase>
						</rate>
						<duration>2619</duration>
						<timecode>
							<rate>
								<timebase>25</timebase>
							</rate>
							<string>02:08:17:21</string>
							<frame>192446</frame>
							<displayformat>NDF</displayformat>
							<source>source</source>
						</timecode>
						<media>
							<video>
								<duration>2619</duration>
								<samplecharacteristics>
									<width>1920</width>
									<height>1080</height>
								</samplecharacteristics>
							</video>
							<audio>
								<rate>
									<timebase>48000</timebase>
								</rate>
								<trackcount>1</trackcount>
								<samplecharacteristics>
									<depth>24</depth>
								</samplecharacteristics>
							</audio>
						</media>
					</file>
					<filter>
						<enabled>TRUE</enabled>
						<start>-1</start>
						<end>-1</end>
						<effect>
							<name>3 Band Equalizer - Kristine</name>
							<effecttype>filter</effecttype>
							<mediatype>audio</mediatype>
							<parameter>
								<parameterid>Low Frequency</parameterid>
								<name>Low Frequency</name>
								<valuemin>80</valuemin>
								<valuemax>2000</valuemax>
								<value>80</value>
							</parameter>
							<parameter>
								<parameterid>Low Gain(dB)</parameterid>
								<name>Low Gain(dB)</name>
								<valuemin>-20</valuemin>
								<valuemax>20</valuemax>
								<value>-4</value>
							</parameter>
							<parameter>
								<parameterid>Mid Frequency</parameterid>
								<name>Mid Frequency</name>
								<valuemin>400</valuemin>
								<valuemax>8000</valuemax>
								<value>3602</value>
							</parameter>
							<parameter>
								<parameterid>Mid Gain(dB)</parameterid>
								<name>Mid Gain(dB)</name>
								<valuemin>-20</valuemin>
								<valuemax>20</valuemax>
								<value>3</value>
							</parameter>
							<parameter>
								<parameterid>High Frequency</parameterid>
								<name>High Frequency</name>
								<valuemin>5000</valuemin>
								<valuemax>20000</valuemax>
								<value>10354</value>
							</parameter>
							<parameter>
								<parameterid>High Gain(dB)</parameterid>
								<name>High Gain(dB)</name>
								<valuemin>-20</valuemin>
								<valuemax>20</valuemax>
								<value>0</value>
							</parameter>
						</effect>
					</filter>
					<filter>
						<effect>
							<name>Audio Levels</name>
							<effectid>audiolevels</effectid>
							<effectcategory>audiolevels</effectcategory>
							<effecttype>audiolevels</effecttype>
							<mediatype>audio</mediatype>
							<parameter>
								<name>Level</name>
								<parameterid>level</parameterid>
								<valuemin>0</valuemin>
								<valuemax>3.98109</valuemax>
								<keyframe>
									<when>1699</when>
									<value>1.99526</value>
								</keyframe>
								<keyframe>
									<when>1701.14</when>
									<value>0</value>
								</keyframe>
								<keyframe>
									<when>1709.43</when>
									<value>0</value>
								</keyframe>
								<keyframe>
									<when>1712.14</when>
									<value>3.16228</value>
								</keyframe>
								<interpolation>
									<name>FCPCurve</name>
								</interpolation>
								<value>3.16228</value>
							</parameter>
						</effect>
					</filter>
					<filter>
						<effect>
							<name>Audio Pan</name>
							<effectid>audiopan</effectid>
							<effectcategory>audiopan</effectcategory>
							<effecttype>audiopan</effecttype>
							<mediatype>audio</mediatype>
							<parameter>
								<name>Pan</name>
								<parameterid>pan</parameterid>
								<valuemin>-1</valuemin>
								<valuemax>1</valuemax>
								<value>0</value>
							</parameter>
						</effect>
					</filter>
					<sourcetrack>
						<mediatype>audio</mediatype>
						<trackindex>1</trackindex>
					</sourcetrack>
				</clipitem>
				<transitionitem id="957365000 ">
					<rate>
						<ntsc>FALSE</ntsc>
						<timebase>25</timebase>
					</rate>
					<start>11176</start>
					<end>11188</end>
					<alignment>center</alignment>
					<effect>
						<name>Cross Fade (+3dB) Copy</name>
						<effecttype>transition</effecttype>
						<mediatype>audio</mediatype>
					</effect>
				</transitionitem>
				<clipitem id="msub200012-2108kid1-019 ">
					<name>msub200012-2108kid1-019</name>
					<duration>2884</duration>
					<rate>
						<ntsc>FALSE</ntsc>
						<timebase>25</timebase>
					</rate>
					<in>1073</in>
					<out>1247</out>
					<start>-1</start>
					<end>-1</end>
					<subframeoffset>0</subframeoffset>
					<masterclipid>msub200012-2108kid1-019 1</masterclipid>
					<logginginfo>
						<description>msub200012-2108kid1-019</description>
						<scene/>
						<shottake/>
						<lognote/>
						<good>FALSE</good>
					</logginginfo>
					<labels>
						<label2/>
					</labels>
					<comments>
						<mastercomment1>RÅSTOFF. BR_FINFREDAG_MSUA_OPRO</mastercomment1>
						<mastercomment2/>
						<mastercomment3/>
						<mastercomment4/>
					</comments>
					<file id="msub200012-2108kid1-019 2">
						<name>msub200012-2108kid1-019.mxf</name>
						<pathurl>file://localhost/Volumes/omfs/clip.dir/MXF/1080i/msub200012-2108kid1-019.mxf</pathurl>
						<rate>
							<timebase>25</timebase>
						</rate>
						<duration>2884</duration>
						<timecode>
							<rate>
								<timebase>25</timebase>
							</rate>
							<string>02:11:09:05</string>
							<frame>196730</frame>
							<displayformat>NDF</displayformat>
							<source>source</source>
						</timecode>
						<media>
							<video>
								<duration>2884</duration>
								<samplecharacteristics>
									<width>1920</width>
									<height>1080</height>
								</samplecharacteristics>
							</video>
							<audio>
								<rate>
									<timebase>48000</timebase>
								</rate>
								<trackcount>1</trackcount>
								<samplecharacteristics>
									<depth>24</depth>
								</samplecharacteristics>
							</audio>
						</media>
					</file>
					<filter>
						<start>-1</start>
						<end>-1</end>
						<effect>
							<name>3 Band Equalizer - Kristine</name>
							<effecttype>filter</effecttype>
							<mediatype>audio</mediatype>
							<parameter>
								<parameterid>Low Frequency</parameterid>
								<name>Low Frequency</name>
								<valuemin>80</valuemin>
								<valuemax>2000</valuemax>
								<value>80</value>
							</parameter>
							<parameter>
								<parameterid>Low Gain(dB)</parameterid>
								<name>Low Gain(dB)</name>
								<valuemin>-20</valuemin>
								<valuemax>20</valuemax>
								<value>-4</value>
							</parameter>
							<parameter>
								<parameterid>Mid Frequency</parameterid>
								<name>Mid Frequency</name>
								<valuemin>400</valuemin>
								<valuemax>8000</valuemax>
								<value>3602</value>
							</parameter>
							<parameter>
								<parameterid>Mid Gain(dB)</parameterid>
								<name>Mid Gain(dB)</name>
								<valuemin>-20</valuemin>
								<valuemax>20</valuemax>
								<value>3</value>
							</parameter>
							<parameter>
								<parameterid>High Frequency</parameterid>
								<name>High Frequency</name>
								<valuemin>5000</valuemin>
								<valuemax>20000</valuemax>
								<value>10354</value>
							</parameter>
							<parameter>
								<parameterid>High Gain(dB)</parameterid>
								<name>High Gain(dB)</name>
								<valuemin>-20</valuemin>
								<valuemax>20</valuemax>
								<value>0</value>
							</parameter>
						</effect>
					</filter>
					<filter>
						<effect>
							<name>Audio Levels</name>
							<effectid>audiolevels</effectid>
							<effectcategory>audiolevels</effectcategory>
							<effecttype>audiolevels</effecttype>
							<mediatype>audio</mediatype>
							<parameter>
								<name>Level</name>
								<parameterid>level</parameterid>
								<valuemin>0</valuemin>
								<valuemax>3.98109</valuemax>
								<keyframe>
									<when>1136.14</when>
									<value>0.891251</value>
								</keyframe>
								<keyframe>
									<when>1149.43</when>
									<value>1</value>
								</keyframe>
								<keyframe>
									<when>1160.14</when>
									<value>1</value>
								</keyframe>
								<keyframe>
									<when>1167.57</when>
									<value>0.281838</value>
								</keyframe>
								<keyframe>
									<when>1198.43</when>
									<value>0.281838</value>
								</keyframe>
								<keyframe>
									<when>1207.57</when>
									<value>0.0891251</value>
								</keyframe>
								<keyframe>
									<when>1223</when>
									<value>0.0891251</value>
								</keyframe>
								<keyframe>
									<when>1227.57</when>
									<value>0.794328</value>
								</keyframe>
								<keyframe>
									<when>1236</when>
									<value>1.25893</value>
								</keyframe>
								<interpolation>
									<name>FCPCurve</name>
								</interpolation>
								<value>1.25893</value>
							</parameter>
						</effect>
					</filter>
					<filter>
						<effect>
							<name>Audio Pan</name>
							<effectid>audiopan</effectid>
							<effectcategory>audiopan</effectcategory>
							<effecttype>audiopan</effecttype>
							<mediatype>audio</mediatype>
							<parameter>
								<name>Pan</name>
								<parameterid>pan</parameterid>
								<valuemin>-1</valuemin>
								<valuemax>1</valuemax>
								<value>0</value>
							</parameter>
						</effect>
					</filter>
					<sourcetrack>
						<mediatype>audio</mediatype>
						<trackindex>3</trackindex>
					</sourcetrack>
				</clipitem>
				<transitionitem id="959132944 ">
					<rate>
						<ntsc>FALSE</ntsc>
						<timebase>25</timebase>
					</rate>
					<start>11346</start>
					<end>11350</end>
					<alignment>start</alignment>
					<effect>
						<name>Cross Fade (+3dB) Copy</name>
						<effecttype>transition</effecttype>
						<mediatype>audio</mediatype>
					</effect>
				</transitionitem>
				<clipitem id="msub200012-2108kid1-019 3">
					<name>msub200012-2108kid1-019</name>
					<duration>2884</duration>
					<rate>
						<ntsc>FALSE</ntsc>
						<timebase>25</timebase>
					</rate>
					<in>1295</in>
					<out>1550</out>
					<start>-1</start>
					<end>-1</end>
					<subframeoffset>0</subframeoffset>
					<masterclipid>msub200012-2108kid1-019 1</masterclipid>
					<logginginfo>
						<description>msub200012-2108kid1-019</description>
						<scene/>
						<shottake/>
						<lognote/>
						<good>FALSE</good>
					</logginginfo>
					<labels>
						<label2/>
					</labels>
					<comments>
						<mastercomment1>RÅSTOFF. BR_FINFREDAG_MSUA_OPRO</mastercomment1>
						<mastercomment2/>
						<mastercomment3/>
						<mastercomment4/>
					</comments>
					<file id="msub200012-2108kid1-019 2"/>
					<filter>
						<start>-1</start>
						<end>-1</end>
						<effect>
							<name>3 Band Equalizer - Kristine</name>
							<effecttype>filter</effecttype>
							<mediatype>audio</mediatype>
							<parameter>
								<parameterid>Low Frequency</parameterid>
								<name>Low Frequency</name>
								<valuemin>80</valuemin>
								<valuemax>2000</valuemax>
								<value>80</value>
							</parameter>
							<parameter>
								<parameterid>Low Gain(dB)</parameterid>
								<name>Low Gain(dB)</name>
								<valuemin>-20</valuemin>
								<valuemax>20</valuemax>
								<value>-4</value>
							</parameter>
							<parameter>
								<parameterid>Mid Frequency</parameterid>
								<name>Mid Frequency</name>
								<valuemin>400</valuemin>
								<valuemax>8000</valuemax>
								<value>3602</value>
							</parameter>
							<parameter>
								<parameterid>Mid Gain(dB)</parameterid>
								<name>Mid Gain(dB)</name>
								<valuemin>-20</valuemin>
								<valuemax>20</valuemax>
								<value>3</value>
							</parameter>
							<parameter>
								<parameterid>High Frequency</parameterid>
								<name>High Frequency</name>
								<valuemin>5000</valuemin>
								<valuemax>20000</valuemax>
								<value>10354</value>
							</parameter>
							<parameter>
								<parameterid>High Gain(dB)</parameterid>
								<name>High Gain(dB)</name>
								<valuemin>-20</valuemin>
								<valuemax>20</valuemax>
								<value>0</value>
							</parameter>
						</effect>
					</filter>
					<filter>
						<effect>
							<name>Audio Levels</name>
							<effectid>audiolevels</effectid>
							<effectcategory>audiolevels</effectcategory>
							<effecttype>audiolevels</effecttype>
							<mediatype>audio</mediatype>
							<parameter>
								<name>Level</name>
								<parameterid>level</parameterid>
								<valuemin>0</valuemin>
								<valuemax>3.98109</valuemax>
								<keyframe>
									<when>1309.57</when>
									<value>2.51189</value>
								</keyframe>
								<keyframe>
									<when>1327</when>
									<value>0.354813</value>
								</keyframe>
								<keyframe>
									<when>1447.25</when>
									<value>0.354813</value>
								</keyframe>
								<keyframe>
									<when>1457.21</when>
									<value>1.41254</value>
								</keyframe>
								<keyframe>
									<when>1532.75</when>
									<value>1.41254</value>
								</keyframe>
								<keyframe>
									<when>1541</when>
									<value>1.99526</value>
								</keyframe>
								<interpolation>
									<name>FCPCurve</name>
								</interpolation>
								<value>1</value>
							</parameter>
						</effect>
					</filter>
					<filter>
						<effect>
							<name>Audio Pan</name>
							<effectid>audiopan</effectid>
							<effectcategory>audiopan</effectcategory>
							<effecttype>audiopan</effecttype>
							<mediatype>audio</mediatype>
							<parameter>
								<name>Pan</name>
								<parameterid>pan</parameterid>
								<valuemin>-1</valuemin>
								<valuemax>1</valuemax>
								<value>0</value>
							</parameter>
						</effect>
					</filter>
					<sourcetrack>
						<mediatype>audio</mediatype>
						<trackindex>3</trackindex>
					</sourcetrack>
				</clipitem>
				<transitionitem id="959134032 ">
					<rate>
						<ntsc>FALSE</ntsc>
						<timebase>25</timebase>
					</rate>
					<start>11597</start>
					<end>11601</end>
					<alignment>center</alignment>
					<effect>
						<name>Cross Fade (+3dB) Copy</name>
						<effecttype>transition</effecttype>
						<mediatype>audio</mediatype>
					</effect>
				</transitionitem>
				<clipitem id="msub200012-2108kid1-019 4">
					<name>msub200012-2108kid1-019</name>
					<duration>2884</duration>
					<rate>
						<ntsc>FALSE</ntsc>
						<timebase>25</timebase>
					</rate>
					<in>1657</in>
					<out>1670</out>
					<start>11627</start>
					<end>-1</end>
					<subframeoffset>0</subframeoffset>
					<masterclipid>msub200012-2108kid1-019 1</masterclipid>
					<logginginfo>
						<description>msub200012-2108kid1-019</description>
						<scene/>
						<shottake/>
						<lognote/>
						<good>FALSE</good>
					</logginginfo>
					<labels>
						<label2/>
					</labels>
					<comments>
						<mastercomment1>RÅSTOFF. BR_FINFREDAG_MSUA_OPRO</mastercomment1>
						<mastercomment2/>
						<mastercomment3/>
						<mastercomment4/>
					</comments>
					<file id="msub200012-2108kid1-019 2"/>
					<filter>
						<effect>
							<name>Audio Levels</name>
							<effectid>audiolevels</effectid>
							<effectcategory>audiolevels</effectcategory>
							<effecttype>audiolevels</effecttype>
							<mediatype>audio</mediatype>
							<parameter>
								<name>Level</name>
								<parameterid>level</parameterid>
								<valuemin>0</valuemin>
								<valuemax>3.98109</valuemax>
								<value>1.77828</value>
							</parameter>
						</effect>
					</filter>
					<filter>
						<effect>
							<name>Audio Pan</name>
							<effectid>audiopan</effectid>
							<effectcategory>audiopan</effectcategory>
							<effecttype>audiopan</effecttype>
							<mediatype>audio</mediatype>
							<parameter>
								<name>Pan</name>
								<parameterid>pan</parameterid>
								<valuemin>-1</valuemin>
								<valuemax>1</valuemax>
								<value>0</value>
							</parameter>
						</effect>
					</filter>
					<sourcetrack>
						<mediatype>audio</mediatype>
						<trackindex>1</trackindex>
					</sourcetrack>
				</clipitem>
				<transitionitem id="959130904 ">
					<rate>
						<ntsc>FALSE</ntsc>
						<timebase>25</timebase>
					</rate>
					<start>11634</start>
					<end>11640</end>
					<alignment>center</alignment>
					<effect>
						<name>Cross Fade (+3dB) Copy</name>
						<effecttype>transition</effecttype>
						<mediatype>audio</mediatype>
					</effect>
				</transitionitem>
				<clipitem id="msub200012-2108kid1-019 5">
					<name>msub200012-2108kid1-019</name>
					<duration>2884</duration>
					<rate>
						<ntsc>FALSE</ntsc>
						<timebase>25</timebase>
					</rate>
					<in>1910</in>
					<out>1974</out>
					<start>-1</start>
					<end>-1</end>
					<subframeoffset>0</subframeoffset>
					<enabled>TRUE</enabled>
					<masterclipid>msub200012-2108kid1-019 1</masterclipid>
					<logginginfo>
						<description>msub200012-2108kid1-019</description>
						<scene/>
						<shottake/>
						<lognote/>
						<good>FALSE</good>
					</logginginfo>
					<labels>
						<label2/>
					</labels>
					<comments>
						<mastercomment1>RÅSTOFF. BR_FINFREDAG_MSUA_OPRO</mastercomment1>
						<mastercomment2/>
						<mastercomment3/>
						<mastercomment4/>
					</comments>
					<file id="msub200012-2108kid1-019 2"/>
					<filter>
						<start>-1</start>
						<end>-1</end>
						<effect>
							<name>3 Band Equalizer - Kristine</name>
							<effecttype>filter</effecttype>
							<mediatype>audio</mediatype>
							<parameter>
								<parameterid>Low Frequency</parameterid>
								<name>Low Frequency</name>
								<valuemin>80</valuemin>
								<valuemax>2000</valuemax>
								<value>80</value>
							</parameter>
							<parameter>
								<parameterid>Low Gain(dB)</parameterid>
								<name>Low Gain(dB)</name>
								<valuemin>-20</valuemin>
								<valuemax>20</valuemax>
								<value>-4</value>
							</parameter>
							<parameter>
								<parameterid>Mid Frequency</parameterid>
								<name>Mid Frequency</name>
								<valuemin>400</valuemin>
								<valuemax>8000</valuemax>
								<value>3602</value>
							</parameter>
							<parameter>
								<parameterid>Mid Gain(dB)</parameterid>
								<name>Mid Gain(dB)</name>
								<valuemin>-20</valuemin>
								<valuemax>20</valuemax>
								<value>3</value>
							</parameter>
							<parameter>
								<parameterid>High Frequency</parameterid>
								<name>High Frequency</name>
								<valuemin>5000</valuemin>
								<valuemax>20000</valuemax>
								<value>10354</value>
							</parameter>
							<parameter>
								<parameterid>High Gain(dB)</parameterid>
								<name>High Gain(dB)</name>
								<valuemin>-20</valuemin>
								<valuemax>20</valuemax>
								<value>0</value>
							</parameter>
						</effect>
					</filter>
					<filter>
						<effect>
							<name>Audio Levels</name>
							<effectid>audiolevels</effectid>
							<effectcategory>audiolevels</effectcategory>
							<effecttype>audiolevels</effecttype>
							<mediatype>audio</mediatype>
							<parameter>
								<name>Level</name>
								<parameterid>level</parameterid>
								<valuemin>0</valuemin>
								<valuemax>3.98109</valuemax>
								<value>1.12202</value>
							</parameter>
						</effect>
					</filter>
					<filter>
						<effect>
							<name>Audio Pan</name>
							<effectid>audiopan</effectid>
							<effectcategory>audiopan</effectcategory>
							<effecttype>audiopan</effecttype>
							<mediatype>audio</mediatype>
							<parameter>
								<name>Pan</name>
								<parameterid>pan</parameterid>
								<valuemin>-1</valuemin>
								<valuemax>1</valuemax>
								<value>0</value>
							</parameter>
						</effect>
					</filter>
					<sourcetrack>
						<mediatype>audio</mediatype>
						<trackindex>1</trackindex>
					</sourcetrack>
				</clipitem>
				<transitionitem id="959132196 ">
					<rate>
						<ntsc>FALSE</ntsc>
						<timebase>25</timebase>
					</rate>
					<start>11696</start>
					<end>11698</end>
					<alignment>center</alignment>
					<effect>
						<name>Cross Fade (+3dB) Copy</name>
						<effecttype>transition</effecttype>
						<mediatype>audio</mediatype>
					</effect>
				</transitionitem>
				<clipitem id="msub200012-2108kid1-023 ">
					<name>msub200012-2108kid1-023</name>
					<duration>3689</duration>
					<rate>
						<ntsc>FALSE</ntsc>
						<timebase>25</timebase>
					</rate>
					<in>194</in>
					<out>244</out>
					<start>-1</start>
					<end>-1</end>
					<subframeoffset>0</subframeoffset>
					<masterclipid>msub200012-2108kid1-023 1</masterclipid>
					<logginginfo>
						<description>msub200012-2108kid1-023</description>
						<scene/>
						<shottake/>
						<lognote/>
						<good>FALSE</good>
					</logginginfo>
					<labels>
						<label2/>
					</labels>
					<comments>
						<mastercomment1>RÅSTOFF. BR_FINFREDAG_MSUA_OPRO</mastercomment1>
						<mastercomment2/>
						<mastercomment3/>
						<mastercomment4/>
					</comments>
					<file id="msub200012-2108kid1-023 2">
						<name>msub200012-2108kid1-023.mxf</name>
						<pathurl>file://localhost/Volumes/omfs/clip.dir/MXF/1080i/msub200012-2108kid1-023.mxf</pathurl>
						<rate>
							<timebase>25</timebase>
						</rate>
						<duration>3689</duration>
						<timecode>
							<rate>
								<timebase>25</timebase>
							</rate>
							<string>02:16:35:03</string>
							<frame>204878</frame>
							<displayformat>NDF</displayformat>
							<source>source</source>
						</timecode>
						<media>
							<video>
								<duration>3689</duration>
								<samplecharacteristics>
									<width>1920</width>
									<height>1080</height>
								</samplecharacteristics>
							</video>
							<audio>
								<rate>
									<timebase>48000</timebase>
								</rate>
								<trackcount>1</trackcount>
								<samplecharacteristics>
									<depth>24</depth>
								</samplecharacteristics>
							</audio>
						</media>
					</file>
					<filter>
						<effect>
							<name>Audio Levels</name>
							<effectid>audiolevels</effectid>
							<effectcategory>audiolevels</effectcategory>
							<effecttype>audiolevels</effecttype>
							<mediatype>audio</mediatype>
							<parameter>
								<name>Level</name>
								<parameterid>level</parameterid>
								<valuemin>0</valuemin>
								<valuemax>3.98109</valuemax>
								<keyframe>
									<when>220.571</when>
									<value>1</value>
								</keyframe>
								<keyframe>
									<when>223.571</when>
									<value>0.354813</value>
								</keyframe>
								<keyframe>
									<when>227</when>
									<value>0.354813</value>
								</keyframe>
								<keyframe>
									<when>230</when>
									<value>1</value>
								</keyframe>
								<keyframe>
									<when>235.75</when>
									<value>1</value>
								</keyframe>
								<keyframe>
									<when>237.321</when>
									<value>0.630957</value>
								</keyframe>
								<interpolation>
									<name>FCPCurve</name>
								</interpolation>
								<value>1</value>
							</parameter>
						</effect>
					</filter>
					<filter>
						<effect>
							<name>Audio Pan</name>
							<effectid>audiopan</effectid>
							<effectcategory>audiopan</effectcategory>
							<effecttype>audiopan</effecttype>
							<mediatype>audio</mediatype>
							<parameter>
								<name>Pan</name>
								<parameterid>pan</parameterid>
								<valuemin>-1</valuemin>
								<valuemax>1</valuemax>
								<value>0</value>
							</parameter>
						</effect>
					</filter>
					<sourcetrack>
						<mediatype>audio</mediatype>
						<trackindex>1</trackindex>
					</sourcetrack>
				</clipitem>
				<transitionitem id="959128388 ">
					<rate>
						<ntsc>FALSE</ntsc>
						<timebase>25</timebase>
					</rate>
					<start>11742</start>
					<end>11746</end>
					<alignment>center</alignment>
					<effect>
						<name>Cross Fade (+3dB) Copy</name>
						<effecttype>transition</effecttype>
						<mediatype>audio</mediatype>
					</effect>
				</transitionitem>
				<clipitem id="msub200012-2108kid1-021 ">
					<name>msub200012-2108kid1-021</name>
					<duration>4310</duration>
					<rate>
						<ntsc>FALSE</ntsc>
						<timebase>25</timebase>
					</rate>
					<in>101</in>
					<out>155</out>
					<start>-1</start>
					<end>11796</end>
					<subframeoffset>0</subframeoffset>
					<masterclipid>msub200012-2108kid1-021 1</masterclipid>
					<logginginfo>
						<description>msub200012-2108kid1-021</description>
						<scene/>
						<shottake/>
						<lognote/>
						<good>FALSE</good>
					</logginginfo>
					<labels>
						<label2/>
					</labels>
					<comments>
						<mastercomment1>RÅSTOFF. BR_FINFREDAG_MSUA_OPRO</mastercomment1>
						<mastercomment2/>
						<mastercomment3/>
						<mastercomment4/>
					</comments>
					<file id="msub200012-2108kid1-021 2">
						<name>msub200012-2108kid1-021.mxf</name>
						<pathurl>file://localhost/Volumes/omfs/clip.dir/MXF/1080i/msub200012-2108kid1-021.mxf</pathurl>
						<rate>
							<timebase>25</timebase>
						</rate>
						<duration>4310</duration>
						<timecode>
							<rate>
								<timebase>25</timebase>
							</rate>
							<string>02:13:32:10</string>
							<frame>200310</frame>
							<displayformat>NDF</displayformat>
							<source>source</source>
						</timecode>
						<media>
							<video>
								<duration>4310</duration>
								<samplecharacteristics>
									<width>1920</width>
									<height>1080</height>
								</samplecharacteristics>
							</video>
							<audio>
								<rate>
									<timebase>48000</timebase>
								</rate>
								<trackcount>1</trackcount>
								<samplecharacteristics>
									<depth>24</depth>
								</samplecharacteristics>
							</audio>
						</media>
					</file>
					<filter>
						<start>-1</start>
						<end>-1</end>
						<effect>
							<name>3 Band Equalizer - Mann</name>
							<effecttype>filter</effecttype>
							<mediatype>audio</mediatype>
							<parameter>
								<parameterid>Low Frequency</parameterid>
								<name>Low Frequency</name>
								<valuemin>80</valuemin>
								<valuemax>2000</valuemax>
								<value>100</value>
							</parameter>
							<parameter>
								<parameterid>Low Gain(dB)</parameterid>
								<name>Low Gain(dB)</name>
								<valuemin>-20</valuemin>
								<valuemax>20</valuemax>
								<value>-4</value>
							</parameter>
							<parameter>
								<parameterid>Mid Frequency</parameterid>
								<name>Mid Frequency</name>
								<valuemin>400</valuemin>
								<valuemax>8000</valuemax>
								<value>3602</value>
							</parameter>
							<parameter>
								<parameterid>Mid Gain(dB)</parameterid>
								<name>Mid Gain(dB)</name>
								<valuemin>-20</valuemin>
								<valuemax>20</valuemax>
								<value>3</value>
							</parameter>
							<parameter>
								<parameterid>High Frequency</parameterid>
								<name>High Frequency</name>
								<valuemin>5000</valuemin>
								<valuemax>20000</valuemax>
								<value>10354</value>
							</parameter>
							<parameter>
								<parameterid>High Gain(dB)</parameterid>
								<name>High Gain(dB)</name>
								<valuemin>-20</valuemin>
								<valuemax>20</valuemax>
								<value>0</value>
							</parameter>
						</effect>
					</filter>
					<filter>
						<effect>
							<name>Audio Levels</name>
							<effectid>audiolevels</effectid>
							<effectcategory>audiolevels</effectcategory>
							<effecttype>audiolevels</effecttype>
							<mediatype>audio</mediatype>
							<parameter>
								<name>Level</name>
								<parameterid>level</parameterid>
								<valuemin>0</valuemin>
								<valuemax>3.98109</valuemax>
								<keyframe>
									<when>116.196</when>
									<value>0.707946</value>
								</keyframe>
								<keyframe>
									<when>118.946</when>
									<value>0.248687</value>
								</keyframe>
								<keyframe>
									<when>123.857</when>
									<value>0.273651</value>
								</keyframe>
								<keyframe>
									<when>125.821</when>
									<value>0.501187</value>
								</keyframe>
								<keyframe>
									<when>131.714</when>
									<value>0.501187</value>
								</keyframe>
								<keyframe>
									<when>133.286</when>
									<value>0.141254</value>
								</keyframe>
								<keyframe>
									<when>147.232</when>
									<value>0.707946</value>
								</keyframe>
								<interpolation>
									<name>FCPCurve</name>
								</interpolation>
								<value>0.630957</value>
							</parameter>
						</effect>
					</filter>
					<filter>
						<effect>
							<name>Audio Pan</name>
							<effectid>audiopan</effectid>
							<effectcategory>audiopan</effectcategory>
							<effecttype>audiopan</effecttype>
							<mediatype>audio</mediatype>
							<parameter>
								<name>Pan</name>
								<parameterid>pan</parameterid>
								<valuemin>-1</valuemin>
								<valuemax>1</valuemax>
								<value>0</value>
							</parameter>
						</effect>
					</filter>
					<sourcetrack>
						<mediatype>audio</mediatype>
						<trackindex>1</trackindex>
					</sourcetrack>
				</clipitem>
				<clipitem id="msub200012-2108kid1-023 3">
					<name>msub200012-2108kid1-023</name>
					<duration>3689</duration>
					<rate>
						<ntsc>FALSE</ntsc>
						<timebase>25</timebase>
					</rate>
					<in>958</in>
					<out>1002</out>
					<start>11907</start>
					<end>-1</end>
					<subframeoffset>0</subframeoffset>
					<masterclipid>msub200012-2108kid1-023 1</masterclipid>
					<logginginfo>
						<description>msub200012-2108kid1-023</description>
						<scene/>
						<shottake/>
						<lognote/>
						<good>FALSE</good>
					</logginginfo>
					<labels>
						<label2/>
					</labels>
					<comments>
						<mastercomment1>RÅSTOFF. BR_FINFREDAG_MSUA_OPRO</mastercomment1>
						<mastercomment2/>
						<mastercomment3/>
						<mastercomment4/>
					</comments>
					<file id="msub200012-2108kid1-023 2"/>
					<filter>
						<effect>
							<name>Audio Levels</name>
							<effectid>audiolevels</effectid>
							<effectcategory>audiolevels</effectcategory>
							<effecttype>audiolevels</effecttype>
							<mediatype>audio</mediatype>
							<parameter>
								<name>Level</name>
								<parameterid>level</parameterid>
								<valuemin>0</valuemin>
								<valuemax>3.98109</valuemax>
								<value>3.98107</value>
							</parameter>
						</effect>
					</filter>
					<filter>
						<effect>
							<name>Audio Pan</name>
							<effectid>audiopan</effectid>
							<effectcategory>audiopan</effectcategory>
							<effecttype>audiopan</effecttype>
							<mediatype>audio</mediatype>
							<parameter>
								<name>Pan</name>
								<parameterid>pan</parameterid>
								<valuemin>-1</valuemin>
								<valuemax>1</valuemax>
								<value>0</value>
							</parameter>
						</effect>
					</filter>
					<sourcetrack>
						<mediatype>audio</mediatype>
						<trackindex>2</trackindex>
					</sourcetrack>
				</clipitem>
				<transitionitem id="959122404 ">
					<rate>
						<ntsc>FALSE</ntsc>
						<timebase>25</timebase>
					</rate>
					<start>11949</start>
					<end>11951</end>
					<alignment>center</alignment>
					<effect>
						<name>Cross Fade (+3dB) Copy</name>
						<effecttype>transition</effecttype>
						<mediatype>audio</mediatype>
					</effect>
				</transitionitem>
				<clipitem id="msub200012-2108kid1-021 3">
					<name>msub200012-2108kid1-021</name>
					<duration>4310</duration>
					<rate>
						<ntsc>FALSE</ntsc>
						<timebase>25</timebase>
					</rate>
					<in>1253</in>
					<out>1305</out>
					<start>-1</start>
					<end>-1</end>
					<subframeoffset>0</subframeoffset>
					<masterclipid>msub200012-2108kid1-021 1</masterclipid>
					<logginginfo>
						<description>msub200012-2108kid1-021</description>
						<scene/>
						<shottake/>
						<lognote/>
						<good>FALSE</good>
					</logginginfo>
					<labels>
						<label2/>
					</labels>
					<comments>
						<mastercomment1>RÅSTOFF. BR_FINFREDAG_MSUA_OPRO</mastercomment1>
						<mastercomment2/>
						<mastercomment3/>
						<mastercomment4/>
					</comments>
					<file id="msub200012-2108kid1-021 2"/>
					<filter>
						<start>-1</start>
						<end>-1</end>
						<effect>
							<name>3 Band Equalizer - Kristine</name>
							<effecttype>filter</effecttype>
							<mediatype>audio</mediatype>
							<parameter>
								<parameterid>Low Frequency</parameterid>
								<name>Low Frequency</name>
								<valuemin>80</valuemin>
								<valuemax>2000</valuemax>
								<value>80</value>
							</parameter>
							<parameter>
								<parameterid>Low Gain(dB)</parameterid>
								<name>Low Gain(dB)</name>
								<valuemin>-20</valuemin>
								<valuemax>20</valuemax>
								<value>-4</value>
							</parameter>
							<parameter>
								<parameterid>Mid Frequency</parameterid>
								<name>Mid Frequency</name>
								<valuemin>400</valuemin>
								<valuemax>8000</valuemax>
								<value>3602</value>
							</parameter>
							<parameter>
								<parameterid>Mid Gain(dB)</parameterid>
								<name>Mid Gain(dB)</name>
								<valuemin>-20</valuemin>
								<valuemax>20</valuemax>
								<value>3</value>
							</parameter>
							<parameter>
								<parameterid>High Frequency</parameterid>
								<name>High Frequency</name>
								<valuemin>5000</valuemin>
								<valuemax>20000</valuemax>
								<value>10354</value>
							</parameter>
							<parameter>
								<parameterid>High Gain(dB)</parameterid>
								<name>High Gain(dB)</name>
								<valuemin>-20</valuemin>
								<valuemax>20</valuemax>
								<value>0</value>
							</parameter>
						</effect>
					</filter>
					<filter>
						<effect>
							<name>Audio Levels</name>
							<effectid>audiolevels</effectid>
							<effectcategory>audiolevels</effectcategory>
							<effecttype>audiolevels</effecttype>
							<mediatype>audio</mediatype>
							<parameter>
								<name>Level</name>
								<parameterid>level</parameterid>
								<valuemin>0</valuemin>
								<valuemax>3.98109</valuemax>
								<value>1</value>
							</parameter>
						</effect>
					</filter>
					<filter>
						<effect>
							<name>Audio Pan</name>
							<effectid>audiopan</effectid>
							<effectcategory>audiopan</effectcategory>
							<effecttype>audiopan</effecttype>
							<mediatype>audio</mediatype>
							<parameter>
								<name>Pan</name>
								<parameterid>pan</parameterid>
								<valuemin>-1</valuemin>
								<valuemax>1</valuemax>
								<value>0</value>
							</parameter>
						</effect>
					</filter>
					<sourcetrack>
						<mediatype>audio</mediatype>
						<trackindex>1</trackindex>
					</sourcetrack>
				</clipitem>
				<transitionitem id="959120228 ">
					<rate>
						<ntsc>FALSE</ntsc>
						<timebase>25</timebase>
					</rate>
					<start>11997</start>
					<end>12001</end>
					<alignment>center</alignment>
					<effect>
						<name>Cross Fade (+3dB) Copy</name>
						<effecttype>transition</effecttype>
						<mediatype>audio</mediatype>
					</effect>
				</transitionitem>
				<clipitem id="msub200012-2108kid1-021 4">
					<name>msub200012-2108kid1-021</name>
					<duration>4310</duration>
					<rate>
						<ntsc>FALSE</ntsc>
						<timebase>25</timebase>
					</rate>
					<in>1396</in>
					<out>1546</out>
					<start>-1</start>
					<end>-1</end>
					<subframeoffset>0</subframeoffset>
					<masterclipid>msub200012-2108kid1-021 1</masterclipid>
					<logginginfo>
						<description>msub200012-2108kid1-021</description>
						<scene/>
						<shottake/>
						<lognote/>
						<good>FALSE</good>
					</logginginfo>
					<labels>
						<label2/>
					</labels>
					<comments>
						<mastercomment1>RÅSTOFF. BR_FINFREDAG_MSUA_OPRO</mastercomment1>
						<mastercomment2/>
						<mastercomment3/>
						<mastercomment4/>
					</comments>
					<file id="msub200012-2108kid1-021 2"/>
					<filter>
						<start>-1</start>
						<end>-1</end>
						<effect>
							<name>3 Band Equalizer - Kristine</name>
							<effecttype>filter</effecttype>
							<mediatype>audio</mediatype>
							<parameter>
								<parameterid>Low Frequency</parameterid>
								<name>Low Frequency</name>
								<valuemin>80</valuemin>
								<valuemax>2000</valuemax>
								<value>80</value>
							</parameter>
							<parameter>
								<parameterid>Low Gain(dB)</parameterid>
								<name>Low Gain(dB)</name>
								<valuemin>-20</valuemin>
								<valuemax>20</valuemax>
								<value>-4</value>
							</parameter>
							<parameter>
								<parameterid>Mid Frequency</parameterid>
								<name>Mid Frequency</name>
								<valuemin>400</valuemin>
								<valuemax>8000</valuemax>
								<value>3602</value>
							</parameter>
							<parameter>
								<parameterid>Mid Gain(dB)</parameterid>
								<name>Mid Gain(dB)</name>
								<valuemin>-20</valuemin>
								<valuemax>20</valuemax>
								<value>3</value>
							</parameter>
							<parameter>
								<parameterid>High Frequency</parameterid>
								<name>High Frequency</name>
								<valuemin>5000</valuemin>
								<valuemax>20000</valuemax>
								<value>10354</value>
							</parameter>
							<parameter>
								<parameterid>High Gain(dB)</parameterid>
								<name>High Gain(dB)</name>
								<valuemin>-20</valuemin>
								<valuemax>20</valuemax>
								<value>0</value>
							</parameter>
						</effect>
					</filter>
					<filter>
						<effect>
							<name>Audio Levels</name>
							<effectid>audiolevels</effectid>
							<effectcategory>audiolevels</effectcategory>
							<effecttype>audiolevels</effecttype>
							<mediatype>audio</mediatype>
							<parameter>
								<name>Level</name>
								<parameterid>level</parameterid>
								<valuemin>0</valuemin>
								<valuemax>3.98109</valuemax>
								<value>1.25893</value>
							</parameter>
						</effect>
					</filter>
					<filter>
						<effect>
							<name>Audio Pan</name>
							<effectid>audiopan</effectid>
							<effectcategory>audiopan</effectcategory>
							<effecttype>audiopan</effecttype>
							<mediatype>audio</mediatype>
							<parameter>
								<name>Pan</name>
								<parameterid>pan</parameterid>
								<valuemin>-1</valuemin>
								<valuemax>1</valuemax>
								<value>0</value>
							</parameter>
						</effect>
					</filter>
					<sourcetrack>
						<mediatype>audio</mediatype>
						<trackindex>1</trackindex>
					</sourcetrack>
				</clipitem>
				<transitionitem id="959120976 ">
					<rate>
						<ntsc>FALSE</ntsc>
						<timebase>25</timebase>
					</rate>
					<start>12143</start>
					<end>12147</end>
					<alignment>end-black</alignment>
					<effect>
						<name>Cross Fade (+3dB) Copy</name>
						<effecttype>transition</effecttype>
						<mediatype>audio</mediatype>
					</effect>
				</transitionitem>
				<transitionitem id="959113904 ">
					<rate>
						<ntsc>FALSE</ntsc>
						<timebase>25</timebase>
					</rate>
					<start>12178</start>
					<end>12188</end>
					<alignment>start-black</alignment>
					<effect>
						<name>Cross Fade ( 0dB)</name>
						<effecttype>transition</effecttype>
						<mediatype>audio</mediatype>
					</effect>
				</transitionitem>
				<clipitem id="msub200012-2108kid1-021 5">
					<name>msub200012-2108kid1-021</name>
					<duration>4310</duration>
					<rate>
						<ntsc>FALSE</ntsc>
						<timebase>25</timebase>
					</rate>
					<in>2392</in>
					<out>2469</out>
					<start>-1</start>
					<end>-1</end>
					<subframeoffset>0</subframeoffset>
					<masterclipid>msub200012-2108kid1-021 1</masterclipid>
					<logginginfo>
						<description>msub200012-2108kid1-021</description>
						<scene/>
						<shottake/>
						<lognote/>
						<good>FALSE</good>
					</logginginfo>
					<labels>
						<label2/>
					</labels>
					<comments>
						<mastercomment1>RÅSTOFF. BR_FINFREDAG_MSUA_OPRO</mastercomment1>
						<mastercomment2/>
						<mastercomment3/>
						<mastercomment4/>
					</comments>
					<file id="msub200012-2108kid1-021 2"/>
					<filter>
						<start>-1</start>
						<end>-1</end>
						<effect>
							<name>3 Band Equalizer - Kristine</name>
							<effecttype>filter</effecttype>
							<mediatype>audio</mediatype>
							<parameter>
								<parameterid>Low Frequency</parameterid>
								<name>Low Frequency</name>
								<valuemin>80</valuemin>
								<valuemax>2000</valuemax>
								<value>80</value>
							</parameter>
							<parameter>
								<parameterid>Low Gain(dB)</parameterid>
								<name>Low Gain(dB)</name>
								<valuemin>-20</valuemin>
								<valuemax>20</valuemax>
								<value>-4</value>
							</parameter>
							<parameter>
								<parameterid>Mid Frequency</parameterid>
								<name>Mid Frequency</name>
								<valuemin>400</valuemin>
								<valuemax>8000</valuemax>
								<value>3602</value>
							</parameter>
							<parameter>
								<parameterid>Mid Gain(dB)</parameterid>
								<name>Mid Gain(dB)</name>
								<valuemin>-20</valuemin>
								<valuemax>20</valuemax>
								<value>3</value>
							</parameter>
							<parameter>
								<parameterid>High Frequency</parameterid>
								<name>High Frequency</name>
								<valuemin>5000</valuemin>
								<valuemax>20000</valuemax>
								<value>10354</value>
							</parameter>
							<parameter>
								<parameterid>High Gain(dB)</parameterid>
								<name>High Gain(dB)</name>
								<valuemin>-20</valuemin>
								<valuemax>20</valuemax>
								<value>0</value>
							</parameter>
						</effect>
					</filter>
					<filter>
						<effect>
							<name>Audio Levels</name>
							<effectid>audiolevels</effectid>
							<effectcategory>audiolevels</effectcategory>
							<effecttype>audiolevels</effecttype>
							<mediatype>audio</mediatype>
							<parameter>
								<name>Level</name>
								<parameterid>level</parameterid>
								<valuemin>0</valuemin>
								<valuemax>3.98109</valuemax>
								<value>0.199526</value>
							</parameter>
						</effect>
					</filter>
					<filter>
						<effect>
							<name>Audio Pan</name>
							<effectid>audiopan</effectid>
							<effectcategory>audiopan</effectcategory>
							<effecttype>audiopan</effecttype>
							<mediatype>audio</mediatype>
							<parameter>
								<name>Pan</name>
								<parameterid>pan</parameterid>
								<valuemin>-1</valuemin>
								<valuemax>1</valuemax>
								<value>0</value>
							</parameter>
						</effect>
					</filter>
					<sourcetrack>
						<mediatype>audio</mediatype>
						<trackindex>1</trackindex>
					</sourcetrack>
				</clipitem>
				<transitionitem id="959113972 ">
					<rate>
						<ntsc>FALSE</ntsc>
						<timebase>25</timebase>
					</rate>
					<start>12251</start>
					<end>12255</end>
					<alignment>center</alignment>
					<effect>
						<name>Cross Fade (+3dB) Copy</name>
						<effecttype>transition</effecttype>
						<mediatype>audio</mediatype>
					</effect>
				</transitionitem>
				<clipitem id="msub200012-2108kid1-021 6">
					<name>msub200012-2108kid1-021</name>
					<duration>4310</duration>
					<rate>
						<ntsc>FALSE</ntsc>
						<timebase>25</timebase>
					</rate>
					<in>2465</in>
					<out>2509</out>
					<start>-1</start>
					<end>-1</end>
					<subframeoffset>0</subframeoffset>
					<masterclipid>msub200012-2108kid1-021 1</masterclipid>
					<logginginfo>
						<description>msub200012-2108kid1-021</description>
						<scene/>
						<shottake/>
						<lognote/>
						<good>FALSE</good>
					</logginginfo>
					<labels>
						<label2/>
					</labels>
					<comments>
						<mastercomment1>RÅSTOFF. BR_FINFREDAG_MSUA_OPRO</mastercomment1>
						<mastercomment2/>
						<mastercomment3/>
						<mastercomment4/>
					</comments>
					<file id="msub200012-2108kid1-021 2"/>
					<filter>
						<start>-1</start>
						<end>-1</end>
						<effect>
							<name>3 Band Equalizer - Kristine</name>
							<effecttype>filter</effecttype>
							<mediatype>audio</mediatype>
							<parameter>
								<parameterid>Low Frequency</parameterid>
								<name>Low Frequency</name>
								<valuemin>80</valuemin>
								<valuemax>2000</valuemax>
								<value>80</value>
							</parameter>
							<parameter>
								<parameterid>Low Gain(dB)</parameterid>
								<name>Low Gain(dB)</name>
								<valuemin>-20</valuemin>
								<valuemax>20</valuemax>
								<value>-4</value>
							</parameter>
							<parameter>
								<parameterid>Mid Frequency</parameterid>
								<name>Mid Frequency</name>
								<valuemin>400</valuemin>
								<valuemax>8000</valuemax>
								<value>3602</value>
							</parameter>
							<parameter>
								<parameterid>Mid Gain(dB)</parameterid>
								<name>Mid Gain(dB)</name>
								<valuemin>-20</valuemin>
								<valuemax>20</valuemax>
								<value>3</value>
							</parameter>
							<parameter>
								<parameterid>High Frequency</parameterid>
								<name>High Frequency</name>
								<valuemin>5000</valuemin>
								<valuemax>20000</valuemax>
								<value>10354</value>
							</parameter>
							<parameter>
								<parameterid>High Gain(dB)</parameterid>
								<name>High Gain(dB)</name>
								<valuemin>-20</valuemin>
								<valuemax>20</valuemax>
								<value>0</value>
							</parameter>
						</effect>
					</filter>
					<filter>
						<effect>
							<name>Audio Levels</name>
							<effectid>audiolevels</effectid>
							<effectcategory>audiolevels</effectcategory>
							<effecttype>audiolevels</effecttype>
							<mediatype>audio</mediatype>
							<parameter>
								<name>Level</name>
								<parameterid>level</parameterid>
								<valuemin>0</valuemin>
								<valuemax>3.98109</valuemax>
								<value>1.41254</value>
							</parameter>
						</effect>
					</filter>
					<filter>
						<effect>
							<name>Audio Pan</name>
							<effectid>audiopan</effectid>
							<effectcategory>audiopan</effectcategory>
							<effecttype>audiopan</effecttype>
							<mediatype>audio</mediatype>
							<parameter>
								<name>Pan</name>
								<parameterid>pan</parameterid>
								<valuemin>-1</valuemin>
								<valuemax>1</valuemax>
								<value>0</value>
							</parameter>
						</effect>
					</filter>
					<sourcetrack>
						<mediatype>audio</mediatype>
						<trackindex>1</trackindex>
					</sourcetrack>
					<link>
						<linkclipref>msub200012-2108kid1-021 6</linkclipref>
						<mediatype>audio</mediatype>
						<trackindex>1</trackindex>
						<clipindex>71</clipindex>
					</link>
					<link>
						<linkclipref>msub200012-2108kid1-021 7</linkclipref>
						<mediatype>audio</mediatype>
						<trackindex>2</trackindex>
						<clipindex>83</clipindex>
					</link>
				</clipitem>
				<transitionitem id="959110844 ">
					<rate>
						<ntsc>FALSE</ntsc>
						<timebase>25</timebase>
					</rate>
					<start>12291</start>
					<end>12295</end>
					<alignment>center</alignment>
					<effect>
						<name>Cross Fade (+3dB) Copy</name>
						<effecttype>transition</effecttype>
						<mediatype>audio</mediatype>
					</effect>
				</transitionitem>
				<clipitem id="msub200012-2108kid1-021 8">
					<name>msub200012-2108kid1-021</name>
					<duration>4310</duration>
					<rate>
						<ntsc>FALSE</ntsc>
						<timebase>25</timebase>
					</rate>
					<in>2505</in>
					<out>2527</out>
					<start>-1</start>
					<end>-1</end>
					<subframeoffset>0</subframeoffset>
					<masterclipid>msub200012-2108kid1-021 1</masterclipid>
					<logginginfo>
						<description>msub200012-2108kid1-021</description>
						<scene/>
						<shottake/>
						<lognote/>
						<good>FALSE</good>
					</logginginfo>
					<labels>
						<label2/>
					</labels>
					<comments>
						<mastercomment1>RÅSTOFF. BR_FINFREDAG_MSUA_OPRO</mastercomment1>
						<mastercomment2/>
						<mastercomment3/>
						<mastercomment4/>
					</comments>
					<file id="msub200012-2108kid1-021 2"/>
					<filter>
						<start>-1</start>
						<end>-1</end>
						<effect>
							<name>3 Band Equalizer - Kristine</name>
							<effecttype>filter</effecttype>
							<mediatype>audio</mediatype>
							<parameter>
								<parameterid>Low Frequency</parameterid>
								<name>Low Frequency</name>
								<valuemin>80</valuemin>
								<valuemax>2000</valuemax>
								<value>80</value>
							</parameter>
							<parameter>
								<parameterid>Low Gain(dB)</parameterid>
								<name>Low Gain(dB)</name>
								<valuemin>-20</valuemin>
								<valuemax>20</valuemax>
								<value>-4</value>
							</parameter>
							<parameter>
								<parameterid>Mid Frequency</parameterid>
								<name>Mid Frequency</name>
								<valuemin>400</valuemin>
								<valuemax>8000</valuemax>
								<value>3602</value>
							</parameter>
							<parameter>
								<parameterid>Mid Gain(dB)</parameterid>
								<name>Mid Gain(dB)</name>
								<valuemin>-20</valuemin>
								<valuemax>20</valuemax>
								<value>3</value>
							</parameter>
							<parameter>
								<parameterid>High Frequency</parameterid>
								<name>High Frequency</name>
								<valuemin>5000</valuemin>
								<valuemax>20000</valuemax>
								<value>10354</value>
							</parameter>
							<parameter>
								<parameterid>High Gain(dB)</parameterid>
								<name>High Gain(dB)</name>
								<valuemin>-20</valuemin>
								<valuemax>20</valuemax>
								<value>0</value>
							</parameter>
						</effect>
					</filter>
					<filter>
						<effect>
							<name>Audio Levels</name>
							<effectid>audiolevels</effectid>
							<effectcategory>audiolevels</effectcategory>
							<effecttype>audiolevels</effecttype>
							<mediatype>audio</mediatype>
							<parameter>
								<name>Level</name>
								<parameterid>level</parameterid>
								<valuemin>0</valuemin>
								<valuemax>3.98109</valuemax>
								<value>0.630957</value>
							</parameter>
						</effect>
					</filter>
					<filter>
						<effect>
							<name>Audio Pan</name>
							<effectid>audiopan</effectid>
							<effectcategory>audiopan</effectcategory>
							<effecttype>audiopan</effecttype>
							<mediatype>audio</mediatype>
							<parameter>
								<name>Pan</name>
								<parameterid>pan</parameterid>
								<valuemin>-1</valuemin>
								<valuemax>1</valuemax>
								<value>0</value>
							</parameter>
						</effect>
					</filter>
					<sourcetrack>
						<mediatype>audio</mediatype>
						<trackindex>1</trackindex>
					</sourcetrack>
				</clipitem>
				<transitionitem id="959110436 ">
					<rate>
						<ntsc>FALSE</ntsc>
						<timebase>25</timebase>
					</rate>
					<start>12309</start>
					<end>12313</end>
					<alignment>center</alignment>
					<effect>
						<name>Cross Fade (+3dB) Copy</name>
						<effecttype>transition</effecttype>
						<mediatype>audio</mediatype>
					</effect>
				</transitionitem>
				<clipitem id="msub200012-2108kid1-021 9">
					<name>msub200012-2108kid1-021</name>
					<duration>4310</duration>
					<rate>
						<ntsc>FALSE</ntsc>
						<timebase>25</timebase>
					</rate>
					<in>2523</in>
					<out>2603</out>
					<start>-1</start>
					<end>-1</end>
					<subframeoffset>0</subframeoffset>
					<masterclipid>msub200012-2108kid1-021 1</masterclipid>
					<logginginfo>
						<description>msub200012-2108kid1-021</description>
						<scene/>
						<shottake/>
						<lognote/>
						<good>FALSE</good>
					</logginginfo>
					<labels>
						<label2/>
					</labels>
					<comments>
						<mastercomment1>RÅSTOFF. BR_FINFREDAG_MSUA_OPRO</mastercomment1>
						<mastercomment2/>
						<mastercomment3/>
						<mastercomment4/>
					</comments>
					<file id="msub200012-2108kid1-021 2"/>
					<filter>
						<start>-1</start>
						<end>-1</end>
						<effect>
							<name>3 Band Equalizer - Kristine</name>
							<effecttype>filter</effecttype>
							<mediatype>audio</mediatype>
							<parameter>
								<parameterid>Low Frequency</parameterid>
								<name>Low Frequency</name>
								<valuemin>80</valuemin>
								<valuemax>2000</valuemax>
								<value>80</value>
							</parameter>
							<parameter>
								<parameterid>Low Gain(dB)</parameterid>
								<name>Low Gain(dB)</name>
								<valuemin>-20</valuemin>
								<valuemax>20</valuemax>
								<value>-4</value>
							</parameter>
							<parameter>
								<parameterid>Mid Frequency</parameterid>
								<name>Mid Frequency</name>
								<valuemin>400</valuemin>
								<valuemax>8000</valuemax>
								<value>3602</value>
							</parameter>
							<parameter>
								<parameterid>Mid Gain(dB)</parameterid>
								<name>Mid Gain(dB)</name>
								<valuemin>-20</valuemin>
								<valuemax>20</valuemax>
								<value>3</value>
							</parameter>
							<parameter>
								<parameterid>High Frequency</parameterid>
								<name>High Frequency</name>
								<valuemin>5000</valuemin>
								<valuemax>20000</valuemax>
								<value>10354</value>
							</parameter>
							<parameter>
								<parameterid>High Gain(dB)</parameterid>
								<name>High Gain(dB)</name>
								<valuemin>-20</valuemin>
								<valuemax>20</valuemax>
								<value>0</value>
							</parameter>
						</effect>
					</filter>
					<filter>
						<effect>
							<name>Audio Levels</name>
							<effectid>audiolevels</effectid>
							<effectcategory>audiolevels</effectcategory>
							<effecttype>audiolevels</effecttype>
							<mediatype>audio</mediatype>
							<parameter>
								<name>Level</name>
								<parameterid>level</parameterid>
								<valuemin>0</valuemin>
								<valuemax>3.98109</valuemax>
								<value>2.81838</value>
							</parameter>
						</effect>
					</filter>
					<filter>
						<effect>
							<name>Audio Pan</name>
							<effectid>audiopan</effectid>
							<effectcategory>audiopan</effectcategory>
							<effecttype>audiopan</effecttype>
							<mediatype>audio</mediatype>
							<parameter>
								<name>Pan</name>
								<parameterid>pan</parameterid>
								<valuemin>-1</valuemin>
								<valuemax>1</valuemax>
								<value>0</value>
							</parameter>
						</effect>
					</filter>
					<sourcetrack>
						<mediatype>audio</mediatype>
						<trackindex>1</trackindex>
					</sourcetrack>
				</clipitem>
				<transitionitem id="959108464 ">
					<rate>
						<ntsc>FALSE</ntsc>
						<timebase>25</timebase>
					</rate>
					<start>12377</start>
					<end>12389</end>
					<alignment>end-black</alignment>
					<effect>
						<name>Cross Fade (+3dB) Copy</name>
						<effecttype>transition</effecttype>
						<mediatype>audio</mediatype>
					</effect>
				</transitionitem>
				<transitionitem id="959107852 ">
					<rate>
						<ntsc>FALSE</ntsc>
						<timebase>25</timebase>
					</rate>
					<start>12559</start>
					<end>12571</end>
					<alignment>start-black</alignment>
					<effect>
						<name>Cross Fade (+3dB) Copy</name>
						<effecttype>transition</effecttype>
						<mediatype>audio</mediatype>
					</effect>
				</transitionitem>
				<clipitem id="msub200012-2108kid1-023 4">
					<name>msub200012-2108kid1-023</name>
					<duration>3689</duration>
					<rate>
						<ntsc>FALSE</ntsc>
						<timebase>25</timebase>
					</rate>
					<in>2504</in>
					<out>2873</out>
					<start>-1</start>
					<end>-1</end>
					<subframeoffset>0</subframeoffset>
					<masterclipid>msub200012-2108kid1-023 1</masterclipid>
					<logginginfo>
						<description>msub200012-2108kid1-023</description>
						<scene/>
						<shottake/>
						<lognote/>
						<good>FALSE</good>
					</logginginfo>
					<labels>
						<label2/>
					</labels>
					<comments>
						<mastercomment1>RÅSTOFF. BR_FINFREDAG_MSUA_OPRO</mastercomment1>
						<mastercomment2/>
						<mastercomment3/>
						<mastercomment4/>
					</comments>
					<file id="msub200012-2108kid1-023 2"/>
					<filter>
						<start>-1</start>
						<end>-1</end>
						<effect>
							<name>3 Band Equalizer - Kristine</name>
							<effecttype>filter</effecttype>
							<mediatype>audio</mediatype>
							<parameter>
								<parameterid>Low Frequency</parameterid>
								<name>Low Frequency</name>
								<valuemin>80</valuemin>
								<valuemax>2000</valuemax>
								<value>80</value>
							</parameter>
							<parameter>
								<parameterid>Low Gain(dB)</parameterid>
								<name>Low Gain(dB)</name>
								<valuemin>-20</valuemin>
								<valuemax>20</valuemax>
								<value>-4</value>
							</parameter>
							<parameter>
								<parameterid>Mid Frequency</parameterid>
								<name>Mid Frequency</name>
								<valuemin>400</valuemin>
								<valuemax>8000</valuemax>
								<value>3602</value>
							</parameter>
							<parameter>
								<parameterid>Mid Gain(dB)</parameterid>
								<name>Mid Gain(dB)</name>
								<valuemin>-20</valuemin>
								<valuemax>20</valuemax>
								<value>3</value>
							</parameter>
							<parameter>
								<parameterid>High Frequency</parameterid>
								<name>High Frequency</name>
								<valuemin>5000</valuemin>
								<valuemax>20000</valuemax>
								<value>10354</value>
							</parameter>
							<parameter>
								<parameterid>High Gain(dB)</parameterid>
								<name>High Gain(dB)</name>
								<valuemin>-20</valuemin>
								<valuemax>20</valuemax>
								<value>0</value>
							</parameter>
						</effect>
					</filter>
					<filter>
						<effect>
							<name>Audio Levels</name>
							<effectid>audiolevels</effectid>
							<effectcategory>audiolevels</effectcategory>
							<effecttype>audiolevels</effecttype>
							<mediatype>audio</mediatype>
							<parameter>
								<name>Level</name>
								<parameterid>level</parameterid>
								<valuemin>0</valuemin>
								<valuemax>3.98109</valuemax>
								<keyframe>
									<when>2619.57</when>
									<value>1.25893</value>
								</keyframe>
								<keyframe>
									<when>2626.43</when>
									<value>1.99526</value>
								</keyframe>
								<keyframe>
									<when>2748.29</when>
									<value>1.99526</value>
								</keyframe>
								<keyframe>
									<when>2755.14</when>
									<value>1.25893</value>
								</keyframe>
								<interpolation>
									<name>FCPCurve</name>
								</interpolation>
								<value>1.41254</value>
							</parameter>
						</effect>
					</filter>
					<filter>
						<effect>
							<name>Audio Pan</name>
							<effectid>audiopan</effectid>
							<effectcategory>audiopan</effectcategory>
							<effecttype>audiopan</effecttype>
							<mediatype>audio</mediatype>
							<parameter>
								<name>Pan</name>
								<parameterid>pan</parameterid>
								<valuemin>-1</valuemin>
								<valuemax>1</valuemax>
								<value>0</value>
							</parameter>
						</effect>
					</filter>
					<sourcetrack>
						<mediatype>audio</mediatype>
						<trackindex>3</trackindex>
					</sourcetrack>
				</clipitem>
				<transitionitem id="959108328 ">
					<rate>
						<ntsc>FALSE</ntsc>
						<timebase>25</timebase>
					</rate>
					<start>12916</start>
					<end>12928</end>
					<alignment>end</alignment>
					<effect>
						<name>Cross Fade (+3dB) Copy</name>
						<effecttype>transition</effecttype>
						<mediatype>audio</mediatype>
					</effect>
				</transitionitem>
				<clipitem id="msub200012-2108kid1-023 5">
					<name>msub200012-2108kid1-023</name>
					<duration>3689</duration>
					<rate>
						<ntsc>FALSE</ntsc>
						<timebase>25</timebase>
					</rate>
					<in>3057</in>
					<out>3152</out>
					<start>-1</start>
					<end>-1</end>
					<subframeoffset>0</subframeoffset>
					<masterclipid>msub200012-2108kid1-023 1</masterclipid>
					<logginginfo>
						<description>msub200012-2108kid1-023</description>
						<scene/>
						<shottake/>
						<lognote/>
						<good>FALSE</good>
					</logginginfo>
					<labels>
						<label2/>
					</labels>
					<comments>
						<mastercomment1>RÅSTOFF. BR_FINFREDAG_MSUA_OPRO</mastercomment1>
						<mastercomment2/>
						<mastercomment3/>
						<mastercomment4/>
					</comments>
					<file id="msub200012-2108kid1-023 2"/>
					<filter>
						<start>-1</start>
						<end>-1</end>
						<effect>
							<name>3 Band Equalizer - Kristine</name>
							<effecttype>filter</effecttype>
							<mediatype>audio</mediatype>
							<parameter>
								<parameterid>Low Frequency</parameterid>
								<name>Low Frequency</name>
								<valuemin>80</valuemin>
								<valuemax>2000</valuemax>
								<value>80</value>
							</parameter>
							<parameter>
								<parameterid>Low Gain(dB)</parameterid>
								<name>Low Gain(dB)</name>
								<valuemin>-20</valuemin>
								<valuemax>20</valuemax>
								<value>-4</value>
							</parameter>
							<parameter>
								<parameterid>Mid Frequency</parameterid>
								<name>Mid Frequency</name>
								<valuemin>400</valuemin>
								<valuemax>8000</valuemax>
								<value>3602</value>
							</parameter>
							<parameter>
								<parameterid>Mid Gain(dB)</parameterid>
								<name>Mid Gain(dB)</name>
								<valuemin>-20</valuemin>
								<valuemax>20</valuemax>
								<value>3</value>
							</parameter>
							<parameter>
								<parameterid>High Frequency</parameterid>
								<name>High Frequency</name>
								<valuemin>5000</valuemin>
								<valuemax>20000</valuemax>
								<value>10354</value>
							</parameter>
							<parameter>
								<parameterid>High Gain(dB)</parameterid>
								<name>High Gain(dB)</name>
								<valuemin>-20</valuemin>
								<valuemax>20</valuemax>
								<value>0</value>
							</parameter>
						</effect>
					</filter>
					<filter>
						<effect>
							<name>Audio Levels</name>
							<effectid>audiolevels</effectid>
							<effectcategory>audiolevels</effectcategory>
							<effecttype>audiolevels</effecttype>
							<mediatype>audio</mediatype>
							<parameter>
								<name>Level</name>
								<parameterid>level</parameterid>
								<valuemin>0</valuemin>
								<valuemax>3.98109</valuemax>
								<value>1</value>
							</parameter>
						</effect>
					</filter>
					<filter>
						<effect>
							<name>Audio Pan</name>
							<effectid>audiopan</effectid>
							<effectcategory>audiopan</effectcategory>
							<effecttype>audiopan</effecttype>
							<mediatype>audio</mediatype>
							<parameter>
								<name>Pan</name>
								<parameterid>pan</parameterid>
								<valuemin>-1</valuemin>
								<valuemax>1</valuemax>
								<value>0</value>
							</parameter>
						</effect>
					</filter>
					<sourcetrack>
						<mediatype>audio</mediatype>
						<trackindex>1</trackindex>
					</sourcetrack>
				</clipitem>
				<transitionitem id="959103500 ">
					<rate>
						<ntsc>FALSE</ntsc>
						<timebase>25</timebase>
					</rate>
					<start>12999</start>
					<end>13011</end>
					<alignment>end</alignment>
					<effect>
						<name>Cross Fade (+3dB) Copy</name>
						<effecttype>transition</effecttype>
						<mediatype>audio</mediatype>
					</effect>
				</transitionitem>
				<clipitem id="msub200012-2108kid1-023 6">
					<name>msub200012-2108kid1-023</name>
					<duration>3689</duration>
					<rate>
						<ntsc>FALSE</ntsc>
						<timebase>25</timebase>
					</rate>
					<in>3170</in>
					<out>3465</out>
					<start>-1</start>
					<end>-1</end>
					<subframeoffset>0</subframeoffset>
					<masterclipid>msub200012-2108kid1-023 1</masterclipid>
					<logginginfo>
						<description>msub200012-2108kid1-023</description>
						<scene/>
						<shottake/>
						<lognote/>
						<good>FALSE</good>
					</logginginfo>
					<labels>
						<label2/>
					</labels>
					<comments>
						<mastercomment1>RÅSTOFF. BR_FINFREDAG_MSUA_OPRO</mastercomment1>
						<mastercomment2/>
						<mastercomment3/>
						<mastercomment4/>
					</comments>
					<file id="msub200012-2108kid1-023 2"/>
					<filter>
						<start>-1</start>
						<end>-1</end>
						<effect>
							<name>3 Band Equalizer - Kristine</name>
							<effecttype>filter</effecttype>
							<mediatype>audio</mediatype>
							<parameter>
								<parameterid>Low Frequency</parameterid>
								<name>Low Frequency</name>
								<valuemin>80</valuemin>
								<valuemax>2000</valuemax>
								<value>80</value>
							</parameter>
							<parameter>
								<parameterid>Low Gain(dB)</parameterid>
								<name>Low Gain(dB)</name>
								<valuemin>-20</valuemin>
								<valuemax>20</valuemax>
								<value>-4</value>
							</parameter>
							<parameter>
								<parameterid>Mid Frequency</parameterid>
								<name>Mid Frequency</name>
								<valuemin>400</valuemin>
								<valuemax>8000</valuemax>
								<value>3602</value>
							</parameter>
							<parameter>
								<parameterid>Mid Gain(dB)</parameterid>
								<name>Mid Gain(dB)</name>
								<valuemin>-20</valuemin>
								<valuemax>20</valuemax>
								<value>3</value>
							</parameter>
							<parameter>
								<parameterid>High Frequency</parameterid>
								<name>High Frequency</name>
								<valuemin>5000</valuemin>
								<valuemax>20000</valuemax>
								<value>10354</value>
							</parameter>
							<parameter>
								<parameterid>High Gain(dB)</parameterid>
								<name>High Gain(dB)</name>
								<valuemin>-20</valuemin>
								<valuemax>20</valuemax>
								<value>0</value>
							</parameter>
						</effect>
					</filter>
					<filter>
						<effect>
							<name>Audio Levels</name>
							<effectid>audiolevels</effectid>
							<effectcategory>audiolevels</effectcategory>
							<effecttype>audiolevels</effecttype>
							<mediatype>audio</mediatype>
							<parameter>
								<name>Level</name>
								<parameterid>level</parameterid>
								<valuemin>0</valuemin>
								<valuemax>3.98109</valuemax>
								<keyframe>
									<when>3270.71</when>
									<value>1</value>
								</keyframe>
								<keyframe>
									<when>3282.14</when>
									<value>1.99526</value>
								</keyframe>
								<keyframe>
									<when>3354.14</when>
									<value>1.99526</value>
								</keyframe>
								<keyframe>
									<when>3358.14</when>
									<value>1.12202</value>
								</keyframe>
								<interpolation>
									<name>FCPCurve</name>
								</interpolation>
								<value>1</value>
							</parameter>
						</effect>
					</filter>
					<filter>
						<effect>
							<name>Audio Pan</name>
							<effectid>audiopan</effectid>
							<effectcategory>audiopan</effectcategory>
							<effecttype>audiopan</effecttype>
							<mediatype>audio</mediatype>
							<parameter>
								<name>Pan</name>
								<parameterid>pan</parameterid>
								<valuemin>-1</valuemin>
								<valuemax>1</valuemax>
								<value>0</value>
							</parameter>
						</effect>
					</filter>
					<sourcetrack>
						<mediatype>audio</mediatype>
						<trackindex>3</trackindex>
					</sourcetrack>
				</clipitem>
				<transitionitem id="959105472 ">
					<rate>
						<ntsc>FALSE</ntsc>
						<timebase>25</timebase>
					</rate>
					<start>13282</start>
					<end>13294</end>
					<alignment>center</alignment>
					<effect>
						<name>Cross Fade (+3dB) Copy</name>
						<effecttype>transition</effecttype>
						<mediatype>audio</mediatype>
					</effect>
				</transitionitem>
				<clipitem id="msub200012-2108kid1-024 ">
					<name>msub200012-2108kid1-024</name>
					<duration>638</duration>
					<rate>
						<ntsc>FALSE</ntsc>
						<timebase>25</timebase>
					</rate>
					<in>110</in>
					<out>301</out>
					<start>-1</start>
					<end>-1</end>
					<subframeoffset>0</subframeoffset>
					<masterclipid>msub200012-2108kid1-024 1</masterclipid>
					<logginginfo>
						<description>msub200012-2108kid1-024</description>
						<scene/>
						<shottake/>
						<lognote/>
						<good>FALSE</good>
					</logginginfo>
					<labels>
						<label2/>
					</labels>
					<comments>
						<mastercomment1>RÅSTOFF. BR_FINFREDAG_MSUA_OPRO</mastercomment1>
						<mastercomment2/>
						<mastercomment3/>
						<mastercomment4/>
					</comments>
					<file id="msub200012-2108kid1-024 2">
						<name>msub200012-2108kid1-024.mxf</name>
						<pathurl>file://localhost/Volumes/omfs/clip.dir/MXF/1080i/msub200012-2108kid1-024.mxf</pathurl>
						<rate>
							<timebase>25</timebase>
						</rate>
						<duration>638</duration>
						<timecode>
							<rate>
								<timebase>25</timebase>
							</rate>
							<string>02:19:02:17</string>
							<frame>208567</frame>
							<displayformat>NDF</displayformat>
							<source>source</source>
						</timecode>
						<media>
							<video>
								<duration>638</duration>
								<samplecharacteristics>
									<width>1920</width>
									<height>1080</height>
								</samplecharacteristics>
							</video>
							<audio>
								<rate>
									<timebase>48000</timebase>
								</rate>
								<trackcount>1</trackcount>
								<samplecharacteristics>
									<depth>24</depth>
								</samplecharacteristics>
							</audio>
						</media>
					</file>
					<filter>
						<effect>
							<name>Audio Levels</name>
							<effectid>audiolevels</effectid>
							<effectcategory>audiolevels</effectcategory>
							<effecttype>audiolevels</effecttype>
							<mediatype>audio</mediatype>
							<parameter>
								<name>Level</name>
								<parameterid>level</parameterid>
								<valuemin>0</valuemin>
								<valuemax>3.98109</valuemax>
								<value>2.81838</value>
							</parameter>
						</effect>
					</filter>
					<filter>
						<effect>
							<name>Audio Pan</name>
							<effectid>audiopan</effectid>
							<effectcategory>audiopan</effectcategory>
							<effecttype>audiopan</effecttype>
							<mediatype>audio</mediatype>
							<parameter>
								<name>Pan</name>
								<parameterid>pan</parameterid>
								<valuemin>-1</valuemin>
								<valuemax>1</valuemax>
								<value>0</value>
							</parameter>
						</effect>
					</filter>
					<sourcetrack>
						<mediatype>audio</mediatype>
						<trackindex>1</trackindex>
					</sourcetrack>
				</clipitem>
				<transitionitem id="66270816 ">
					<rate>
						<ntsc>FALSE</ntsc>
						<timebase>25</timebase>
					</rate>
					<start>13471</start>
					<end>13473</end>
					<alignment>end</alignment>
					<effect>
						<name>Cross Fade (+3dB) Copy</name>
						<effecttype>transition</effecttype>
						<mediatype>audio</mediatype>
					</effect>
				</transitionitem>
				<clipitem id="msub200012-2108kid1-033 ">
					<name>msub200012-2108kid1-033</name>
					<duration>1888</duration>
					<rate>
						<ntsc>FALSE</ntsc>
						<timebase>25</timebase>
					</rate>
					<in>393</in>
					<out>494</out>
					<start>-1</start>
					<end>-1</end>
					<subframeoffset>0</subframeoffset>
					<masterclipid>msub200012-2108kid1-033 1</masterclipid>
					<logginginfo>
						<description>msub200012-2108kid1-033</description>
						<scene/>
						<shottake/>
						<lognote/>
						<good>FALSE</good>
					</logginginfo>
					<labels>
						<label2/>
					</labels>
					<comments>
						<mastercomment1>RÅSTOFF. BR_FINFREDAG_MSUA_OPRO</mastercomment1>
						<mastercomment2/>
						<mastercomment3/>
						<mastercomment4/>
					</comments>
					<file id="msub200012-2108kid1-033 2">
						<name>msub200012-2108kid1-033.mxf</name>
						<pathurl>file://localhost/Volumes/omfs/clip.dir/MXF/1080i/msub200012-2108kid1-033.mxf</pathurl>
						<rate>
							<timebase>25</timebase>
						</rate>
						<duration>1888</duration>
						<timecode>
							<rate>
								<timebase>25</timebase>
							</rate>
							<string>02:27:46:05</string>
							<frame>221655</frame>
							<displayformat>NDF</displayformat>
							<source>source</source>
						</timecode>
						<media>
							<video>
								<duration>1888</duration>
								<samplecharacteristics>
									<width>1920</width>
									<height>1080</height>
								</samplecharacteristics>
							</video>
							<audio>
								<rate>
									<timebase>48000</timebase>
								</rate>
								<trackcount>1</trackcount>
								<samplecharacteristics>
									<depth>24</depth>
								</samplecharacteristics>
							</audio>
						</media>
					</file>
					<filter>
						<effect>
							<name>Audio Levels</name>
							<effectid>audiolevels</effectid>
							<effectcategory>audiolevels</effectcategory>
							<effecttype>audiolevels</effecttype>
							<mediatype>audio</mediatype>
							<parameter>
								<name>Level</name>
								<parameterid>level</parameterid>
								<valuemin>0</valuemin>
								<valuemax>3.98109</valuemax>
								<value>2.81838</value>
							</parameter>
						</effect>
					</filter>
					<filter>
						<effect>
							<name>Audio Pan</name>
							<effectid>audiopan</effectid>
							<effectcategory>audiopan</effectcategory>
							<effecttype>audiopan</effecttype>
							<mediatype>audio</mediatype>
							<parameter>
								<name>Pan</name>
								<parameterid>pan</parameterid>
								<valuemin>-1</valuemin>
								<valuemax>1</valuemax>
								<value>0</value>
							</parameter>
						</effect>
					</filter>
					<sourcetrack>
						<mediatype>audio</mediatype>
						<trackindex>1</trackindex>
					</sourcetrack>
				</clipitem>
				<transitionitem id="66269320 ">
					<rate>
						<ntsc>FALSE</ntsc>
						<timebase>25</timebase>
					</rate>
					<start>13570</start>
					<end>13572</end>
					<alignment>end-black</alignment>
					<effect>
						<name>Cross Fade (+3dB) Copy</name>
						<effecttype>transition</effecttype>
						<mediatype>audio</mediatype>
					</effect>
				</transitionitem>
				<transitionitem id="66267960 ">
					<rate>
						<ntsc>FALSE</ntsc>
						<timebase>25</timebase>
					</rate>
					<start>13689</start>
					<end>13701</end>
					<alignment>center</alignment>
					<effect>
						<name>Cross Fade (+3dB) Copy</name>
						<effecttype>transition</effecttype>
						<mediatype>audio</mediatype>
					</effect>
				</transitionitem>
				<clipitem id="msub200012-2108kid1-043 ">
					<name>msub200012-2108kid1-043</name>
					<duration>2259</duration>
					<rate>
						<ntsc>FALSE</ntsc>
						<timebase>25</timebase>
					</rate>
					<in>787</in>
					<out>963</out>
					<start>-1</start>
					<end>-1</end>
					<subframeoffset>0</subframeoffset>
					<masterclipid>msub200012-2108kid1-043 1</masterclipid>
					<logginginfo>
						<description>msub200012-2108kid1-043</description>
						<scene/>
						<shottake/>
						<lognote/>
						<good>FALSE</good>
					</logginginfo>
					<labels>
						<label2/>
					</labels>
					<comments>
						<mastercomment1>RÅSTOFF. BR_FINFREDAG_MSUA_OPRO</mastercomment1>
						<mastercomment2/>
						<mastercomment3/>
						<mastercomment4/>
					</comments>
					<file id="msub200012-2108kid1-043 2">
						<name>msub200012-2108kid1-043.mxf</name>
						<pathurl>file://localhost/Volumes/omfs/clip.dir/MXF/1080i/msub200012-2108kid1-043.mxf</pathurl>
						<rate>
							<timebase>25</timebase>
						</rate>
						<duration>2259</duration>
						<timecode>
							<rate>
								<timebase>25</timebase>
							</rate>
							<string>02:32:21:24</string>
							<frame>228549</frame>
							<displayformat>NDF</displayformat>
							<source>source</source>
						</timecode>
						<media>
							<video>
								<duration>2259</duration>
								<samplecharacteristics>
									<width>1920</width>
									<height>1080</height>
								</samplecharacteristics>
							</video>
							<audio>
								<rate>
									<timebase>48000</timebase>
								</rate>
								<trackcount>1</trackcount>
								<samplecharacteristics>
									<depth>24</depth>
								</samplecharacteristics>
							</audio>
						</media>
					</file>
					<filter>
						<start>-1</start>
						<end>-1</end>
						<effect>
							<name>3 Band Equalizer - Kristine</name>
							<effecttype>filter</effecttype>
							<mediatype>audio</mediatype>
							<parameter>
								<parameterid>Low Frequency</parameterid>
								<name>Low Frequency</name>
								<valuemin>80</valuemin>
								<valuemax>2000</valuemax>
								<value>80</value>
							</parameter>
							<parameter>
								<parameterid>Low Gain(dB)</parameterid>
								<name>Low Gain(dB)</name>
								<valuemin>-20</valuemin>
								<valuemax>20</valuemax>
								<value>-4</value>
							</parameter>
							<parameter>
								<parameterid>Mid Frequency</parameterid>
								<name>Mid Frequency</name>
								<valuemin>400</valuemin>
								<valuemax>8000</valuemax>
								<value>3602</value>
							</parameter>
							<parameter>
								<parameterid>Mid Gain(dB)</parameterid>
								<name>Mid Gain(dB)</name>
								<valuemin>-20</valuemin>
								<valuemax>20</valuemax>
								<value>3</value>
							</parameter>
							<parameter>
								<parameterid>High Frequency</parameterid>
								<name>High Frequency</name>
								<valuemin>5000</valuemin>
								<valuemax>20000</valuemax>
								<value>10354</value>
							</parameter>
							<parameter>
								<parameterid>High Gain(dB)</parameterid>
								<name>High Gain(dB)</name>
								<valuemin>-20</valuemin>
								<valuemax>20</valuemax>
								<value>0</value>
							</parameter>
						</effect>
					</filter>
					<filter>
						<effect>
							<name>Audio Levels</name>
							<effectid>audiolevels</effectid>
							<effectcategory>audiolevels</effectcategory>
							<effecttype>audiolevels</effecttype>
							<mediatype>audio</mediatype>
							<parameter>
								<name>Level</name>
								<parameterid>level</parameterid>
								<valuemin>0</valuemin>
								<valuemax>3.98109</valuemax>
								<value>0.707946</value>
							</parameter>
						</effect>
					</filter>
					<filter>
						<effect>
							<name>Audio Pan</name>
							<effectid>audiopan</effectid>
							<effectcategory>audiopan</effectcategory>
							<effecttype>audiopan</effecttype>
							<mediatype>audio</mediatype>
							<parameter>
								<name>Pan</name>
								<parameterid>pan</parameterid>
								<valuemin>-1</valuemin>
								<valuemax>1</valuemax>
								<value>0</value>
							</parameter>
						</effect>
					</filter>
					<sourcetrack>
						<mediatype>audio</mediatype>
						<trackindex>3</trackindex>
					</sourcetrack>
				</clipitem>
				<transitionitem id="66264084 ">
					<rate>
						<ntsc>FALSE</ntsc>
						<timebase>25</timebase>
					</rate>
					<start>13853</start>
					<end>13865</end>
					<alignment>center</alignment>
					<effect>
						<name>Cross Fade (+3dB) Copy</name>
						<effecttype>transition</effecttype>
						<mediatype>audio</mediatype>
					</effect>
				</transitionitem>
				<transitionitem id="">
					<rate>
						<ntsc>FALSE</ntsc>
						<timebase>25</timebase>
					</rate>
					<start>16092</start>
					<end>16094</end>
					<alignment>center</alignment>
					<effect>
						<name>Cross Fade (+3dB) Copy</name>
						<effecttype>transition</effecttype>
						<mediatype>audio</mediatype>
					</effect>
				</transitionitem>
				<clipitem id="msub200012-0409d1k1011 ">
					<name>msub200012-0409d1k1011</name>
					<duration>24527</duration>
					<rate>
						<ntsc>FALSE</ntsc>
						<timebase>25</timebase>
					</rate>
					<in>6919</in>
					<out>7941</out>
					<start>-1</start>
					<end>-1</end>
					<subframeoffset>0</subframeoffset>
					<enabled>TRUE</enabled>
					<masterclipid>msub200012-0409d1k1011 1</masterclipid>
					<syncoffset>0</syncoffset>
					<logginginfo>
						<description>msub200012-0409d1k1011</description>
						<scene/>
						<shottake/>
						<lognote/>
						<good>FALSE</good>
					</logginginfo>
					<labels>
						<label>B Roll</label>
						<label2/>
					</labels>
					<comments>
						<mastercomment1>RÅSTOFF. BR_FINFREDAG_MSUA_OPRO</mastercomment1>
						<mastercomment2/>
						<mastercomment3/>
						<mastercomment4/>
					</comments>
					<file id="msub200012-0409d1k1011 2">
						<name>msub200012-0409d1k1011.mxf</name>
						<pathurl>file://localhost/Volumes/omfs/clip.dir/MXF/1080i/msub200012-0409d1k1011.mxf</pathurl>
						<rate>
							<timebase>25</timebase>
						</rate>
						<duration>24527</duration>
						<timecode>
							<rate>
								<timebase>25</timebase>
							</rate>
							<string>10:12:03:17</string>
							<frame>918092</frame>
							<displayformat>NDF</displayformat>
							<source>source</source>
						</timecode>
						<media>
							<video>
								<duration>24527</duration>
								<samplecharacteristics>
									<width>1920</width>
									<height>1080</height>
								</samplecharacteristics>
							</video>
							<audio>
								<rate>
									<timebase>48000</timebase>
								</rate>
								<trackcount>1</trackcount>
								<samplecharacteristics>
									<depth>24</depth>
								</samplecharacteristics>
							</audio>
						</media>
					</file>
					<filter>
						<start>-1</start>
						<end>-1</end>
						<effect>
							<name>3 Band Equalizer - Kristine</name>
							<effecttype>filter</effecttype>
							<mediatype>audio</mediatype>
							<parameter>
								<parameterid>Low Frequency</parameterid>
								<name>Low Frequency</name>
								<valuemin>80</valuemin>
								<valuemax>2000</valuemax>
								<value>80</value>
							</parameter>
							<parameter>
								<parameterid>Low Gain(dB)</parameterid>
								<name>Low Gain(dB)</name>
								<valuemin>-20</valuemin>
								<valuemax>20</valuemax>
								<value>-4</value>
							</parameter>
							<parameter>
								<parameterid>Mid Frequency</parameterid>
								<name>Mid Frequency</name>
								<valuemin>400</valuemin>
								<valuemax>8000</valuemax>
								<value>3602</value>
							</parameter>
							<parameter>
								<parameterid>Mid Gain(dB)</parameterid>
								<name>Mid Gain(dB)</name>
								<valuemin>-20</valuemin>
								<valuemax>20</valuemax>
								<value>3</value>
							</parameter>
							<parameter>
								<parameterid>High Frequency</parameterid>
								<name>High Frequency</name>
								<valuemin>5000</valuemin>
								<valuemax>20000</valuemax>
								<value>10354</value>
							</parameter>
							<parameter>
								<parameterid>High Gain(dB)</parameterid>
								<name>High Gain(dB)</name>
								<valuemin>-20</valuemin>
								<valuemax>20</valuemax>
								<value>0</value>
							</parameter>
						</effect>
					</filter>
					<filter>
						<effect>
							<name>Audio Levels</name>
							<effectid>audiolevels</effectid>
							<effectcategory>audiolevels</effectcategory>
							<effecttype>audiolevels</effecttype>
							<mediatype>audio</mediatype>
							<parameter>
								<name>Level</name>
								<parameterid>level</parameterid>
								<valuemin>0</valuemin>
								<valuemax>3.98109</valuemax>
								<keyframe>
									<when>7576.71</when>
									<value>1.58489</value>
								</keyframe>
								<keyframe>
									<when>7584.71</when>
									<value>1.77828</value>
								</keyframe>
								<interpolation>
									<name>FCPCurve</name>
								</interpolation>
								<value>1.58489</value>
							</parameter>
						</effect>
					</filter>
					<filter>
						<effect>
							<name>Audio Pan</name>
							<effectid>audiopan</effectid>
							<effectcategory>audiopan</effectcategory>
							<effecttype>audiopan</effecttype>
							<mediatype>audio</mediatype>
							<parameter>
								<name>Pan</name>
								<parameterid>pan</parameterid>
								<valuemin>-1</valuemin>
								<valuemax>1</valuemax>
								<value>0</value>
							</parameter>
						</effect>
					</filter>
					<sourcetrack>
						<mediatype>audio</mediatype>
						<trackindex>2</trackindex>
					</sourcetrack>
				</clipitem>
				<transitionitem id="1">
					<rate>
						<ntsc>FALSE</ntsc>
						<timebase>25</timebase>
					</rate>
					<start>17108</start>
					<end>17114</end>
					<alignment>center</alignment>
					<effect>
						<name>Cross Fade (+3dB) Copy</name>
						<effecttype>transition</effecttype>
						<mediatype>audio</mediatype>
					</effect>
				</transitionitem>
				<transitionitem id="66248512 ">
					<rate>
						<ntsc>FALSE</ntsc>
						<timebase>25</timebase>
					</rate>
					<start>22937</start>
					<end>22939</end>
					<alignment>center</alignment>
					<effect>
						<name>Cross Fade (+3dB) Copy</name>
						<effecttype>transition</effecttype>
						<mediatype>audio</mediatype>
					</effect>
				</transitionitem>
				<clipitem id="msub200012-0409d1k1014 ">
					<name>msub200012-0409d1k1014</name>
					<duration>172</duration>
					<rate>
						<ntsc>FALSE</ntsc>
						<timebase>25</timebase>
					</rate>
					<in>23</in>
					<out>166</out>
					<start>-1</start>
					<end>-1</end>
					<subframeoffset>0</subframeoffset>
					<enabled>TRUE</enabled>
					<masterclipid>msub200012-0409d1k1014 1</masterclipid>
					<logginginfo>
						<description>msub200012-0409d1k1014</description>
						<scene/>
						<shottake/>
						<lognote/>
						<good>FALSE</good>
					</logginginfo>
					<labels>
						<label2/>
					</labels>
					<comments>
						<mastercomment1>RÅSTOFF. BR_FINFREDAG_MSUA_OPRO</mastercomment1>
						<mastercomment2/>
						<mastercomment3/>
						<mastercomment4/>
					</comments>
					<file id="msub200012-0409d1k1014 2">
						<name>msub200012-0409d1k1014.mxf</name>
						<pathurl>file://localhost/Volumes/omfs/clip.dir/MXF/1080i/msub200012-0409d1k1014.mxf</pathurl>
						<rate>
							<timebase>25</timebase>
						</rate>
						<duration>1710</duration>
						<timecode>
							<rate>
								<timebase>25</timebase>
							</rate>
							<string>10:38:10:03</string>
							<frame>957253</frame>
							<displayformat>NDF</displayformat>
							<source>source</source>
						</timecode>
						<media>
							<video>
								<duration>1710</duration>
								<samplecharacteristics>
									<width>1920</width>
									<height>1080</height>
								</samplecharacteristics>
							</video>
							<audio>
								<rate>
									<timebase>48000</timebase>
								</rate>
								<trackcount>1</trackcount>
								<samplecharacteristics>
									<depth>24</depth>
								</samplecharacteristics>
							</audio>
						</media>
					</file>
					<filter>
						<effect>
							<name>Audio Levels</name>
							<effectid>audiolevels</effectid>
							<effectcategory>audiolevels</effectcategory>
							<effecttype>audiolevels</effecttype>
							<mediatype>audio</mediatype>
							<parameter>
								<name>Level</name>
								<parameterid>level</parameterid>
								<valuemin>0</valuemin>
								<valuemax>3.98109</valuemax>
								<value>1</value>
							</parameter>
						</effect>
					</filter>
					<filter>
						<effect>
							<name>Audio Pan</name>
							<effectid>audiopan</effectid>
							<effectcategory>audiopan</effectcategory>
							<effecttype>audiopan</effecttype>
							<mediatype>audio</mediatype>
							<parameter>
								<name>Pan</name>
								<parameterid>pan</parameterid>
								<valuemin>-1</valuemin>
								<valuemax>1</valuemax>
								<value>0</value>
							</parameter>
						</effect>
					</filter>
					<sourcetrack>
						<mediatype>audio</mediatype>
						<trackindex>1</trackindex>
					</sourcetrack>
					<filter>
						<effect>
							<name>Time Remap</name>
							<effectid>timeremap</effectid>
							<effectcategory>motion</effectcategory>
							<effecttype>motion</effecttype>
							<mediatype>audio</mediatype>
							<parameter>
								<parameterid>variablespeed</parameterid>
								<name>variablespeed</name>
								<valuemin>0</valuemin>
								<valuemax>1</valuemax>
								<value>0</value>
							</parameter>
							<parameter>
								<parameterid>mappedduration</parameterid>
								<name>mappedduration</name>
								<value>
									<timecode>
										<rate>
											<timebase>0</timebase>
										</rate>
										<string>0</string>
										<frame>0</frame>
										<displayformat>NDF</displayformat>
									</timecode>
								</value>
							</parameter>
							<parameter>
								<parameterid>speed</parameterid>
								<name>speed</name>
								<valuemin>-10000</valuemin>
								<valuemax>10000</valuemax>
								<value>999</value>
							</parameter>
							<parameter>
								<parameterid>reverse</parameterid>
								<name>reverse</name>
								<value>FALSE</value>
							</parameter>
							<parameter>
								<parameterid>frameblending</parameterid>
								<name>frameblending</name>
								<value>TRUE</value>
							</parameter>
							<parameter>
								<parameterid>graphdict</parameterid>
								<name>graphdict</name>
								<valuemin>0</valuemin>
								<valuemax>1709</valuemax>
								<keyframe>
									<when>0</when>
									<value>3.1402</value>
									<speedkfstart>TRUE</speedkfstart>
									<speedvirtualkf>TRUE</speedvirtualkf>
								</keyframe>
								<keyframe>
									<when>23</when>
									<value>233.006</value>
									<speedkfin>TRUE</speedkfin>
									<speedvirtualkf>TRUE</speedvirtualkf>
								</keyframe>
								<keyframe>
									<when>166</when>
									<value>1662.17</value>
									<speedkfout>TRUE</speedkfout>
									<speedvirtualkf>TRUE</speedvirtualkf>
								</keyframe>
								<keyframe>
									<when>172</when>
									<value>1713.14</value>
									<speedkfend>TRUE</speedkfend>
									<speedvirtualkf>TRUE</speedvirtualkf>
								</keyframe>
								<interpolation>
									<name>FCPCurve</name>
								</interpolation>
								<value>233.006</value>
							</parameter>
						</effect>
					</filter>
				</clipitem>
				<transitionitem id="66244840 ">
					<rate>
						<ntsc>FALSE</ntsc>
						<timebase>25</timebase>
					</rate>
					<start>23055</start>
					<end>23080</end>
					<alignment>end-black</alignment>
					<effect>
						<name>Cross Fade (+3dB) Copy</name>
						<effecttype>transition</effecttype>
						<mediatype>audio</mediatype>
					</effect>
				</transitionitem>
				<clipitem id="msub200012-0409d3k1004 ">
					<name>msub200012-0409d3k1004</name>
					<duration>6856</duration>
					<rate>
						<ntsc>FALSE</ntsc>
						<timebase>25</timebase>
					</rate>
					<in>4217</in>
					<out>4314</out>
					<start>25790</start>
					<end>25887</end>
					<subframeoffset>0</subframeoffset>
					<masterclipid>msub200012-0409d3k1004 1</masterclipid>
					<syncoffset>0</syncoffset>
					<logginginfo>
						<description>msub200012-0409d3k1004</description>
						<scene/>
						<shottake/>
						<lognote/>
						<good>FALSE</good>
					</logginginfo>
					<labels>
						<label>Good Take</label>
						<label2/>
					</labels>
					<comments>
						<mastercomment1>RÅSTOFF. BR_FINFREDAG_MSUA_OPRO</mastercomment1>
						<mastercomment2/>
						<mastercomment3/>
						<mastercomment4/>
					</comments>
					<file id="msub200012-0409d3k1004 2">
						<name>msub200012-0409d3k1004.mxf</name>
						<pathurl>file://localhost/Volumes/omfs/clip.dir/MXF/1080i/msub200012-0409d3k1004.mxf</pathurl>
						<rate>
							<timebase>25</timebase>
						</rate>
						<duration>6802</duration>
						<timecode>
							<rate>
								<timebase>25</timebase>
							</rate>
							<string>11:09:56:12</string>
							<frame>1004912</frame>
							<displayformat>NDF</displayformat>
							<source>source</source>
						</timecode>
						<media>
							<video>
								<duration>6802</duration>
								<samplecharacteristics>
									<width>1920</width>
									<height>1080</height>
								</samplecharacteristics>
							</video>
							<audio>
								<rate>
									<timebase>48000</timebase>
								</rate>
								<trackcount>1</trackcount>
								<samplecharacteristics>
									<depth>24</depth>
								</samplecharacteristics>
							</audio>
						</media>
					</file>
					<filter>
						<start>-1</start>
						<end>-1</end>
						<effect>
							<name>3 Band Equalizer - Kristine</name>
							<effecttype>filter</effecttype>
							<mediatype>audio</mediatype>
							<parameter>
								<parameterid>Low Frequency</parameterid>
								<name>Low Frequency</name>
								<valuemin>80</valuemin>
								<valuemax>2000</valuemax>
								<value>80</value>
							</parameter>
							<parameter>
								<parameterid>Low Gain(dB)</parameterid>
								<name>Low Gain(dB)</name>
								<valuemin>-20</valuemin>
								<valuemax>20</valuemax>
								<value>-4</value>
							</parameter>
							<parameter>
								<parameterid>Mid Frequency</parameterid>
								<name>Mid Frequency</name>
								<valuemin>400</valuemin>
								<valuemax>8000</valuemax>
								<value>3602</value>
							</parameter>
							<parameter>
								<parameterid>Mid Gain(dB)</parameterid>
								<name>Mid Gain(dB)</name>
								<valuemin>-20</valuemin>
								<valuemax>20</valuemax>
								<value>3</value>
							</parameter>
							<parameter>
								<parameterid>High Frequency</parameterid>
								<name>High Frequency</name>
								<valuemin>5000</valuemin>
								<valuemax>20000</valuemax>
								<value>10354</value>
							</parameter>
							<parameter>
								<parameterid>High Gain(dB)</parameterid>
								<name>High Gain(dB)</name>
								<valuemin>-20</valuemin>
								<valuemax>20</valuemax>
								<value>0</value>
							</parameter>
						</effect>
					</filter>
					<filter>
						<effect>
							<name>Audio Levels</name>
							<effectid>audiolevels</effectid>
							<effectcategory>audiolevels</effectcategory>
							<effecttype>audiolevels</effecttype>
							<mediatype>audio</mediatype>
							<parameter>
								<name>Level</name>
								<parameterid>level</parameterid>
								<valuemin>0</valuemin>
								<valuemax>3.98109</valuemax>
								<keyframe>
									<when>4298.86</when>
									<value>0.281838</value>
								</keyframe>
								<keyframe>
									<when>4304</when>
									<value>0.0354813</value>
								</keyframe>
								<keyframe>
									<when>4454.86</when>
									<value>0.0354813</value>
								</keyframe>
								<keyframe>
									<when>4514.86</when>
									<value>3.98107</value>
								</keyframe>
								<keyframe>
									<when>4563.43</when>
									<value>3.98107</value>
								</keyframe>
								<keyframe>
									<when>4589.71</when>
									<value>0.0354813</value>
								</keyframe>
								<keyframe>
									<when>4822.86</when>
									<value>0.0354813</value>
								</keyframe>
								<keyframe>
									<when>4830.86</when>
									<value>2.51189</value>
								</keyframe>
								<keyframe>
									<when>4868.57</when>
									<value>2.51189</value>
								</keyframe>
								<keyframe>
									<when>4876</when>
									<value>0.0354813</value>
								</keyframe>
								<keyframe>
									<when>5031.43</when>
									<value>0.0354813</value>
								</keyframe>
								<keyframe>
									<when>5034.86</when>
									<value>1.12202</value>
								</keyframe>
								<keyframe>
									<when>5039.43</when>
									<value>1.12202</value>
								</keyframe>
								<keyframe>
									<when>5042.43</when>
									<value>0.0354813</value>
								</keyframe>
								<keyframe>
									<when>5123.43</when>
									<value>0.0354813</value>
								</keyframe>
								<keyframe>
									<when>5128</when>
									<value>0.446684</value>
								</keyframe>
								<keyframe>
									<when>5450.86</when>
									<value>0.446684</value>
								</keyframe>
								<keyframe>
									<when>5461.71</when>
									<value>0.0354813</value>
								</keyframe>
								<interpolation>
									<name>FCPCurve</name>
								</interpolation>
								<value>0.141254</value>
							</parameter>
						</effect>
					</filter>
					<filter>
						<effect>
							<name>Audio Pan</name>
							<effectid>audiopan</effectid>
							<effectcategory>audiopan</effectcategory>
							<effecttype>audiopan</effecttype>
							<mediatype>audio</mediatype>
							<parameter>
								<name>Pan</name>
								<parameterid>pan</parameterid>
								<valuemin>-1</valuemin>
								<valuemax>1</valuemax>
								<value>0</value>
							</parameter>
						</effect>
					</filter>
					<sourcetrack>
						<mediatype>audio</mediatype>
						<trackindex>1</trackindex>
					</sourcetrack>
					<link>
						<linkclipref>msub200012-0409d3k1004 </linkclipref>
						<mediatype>audio</mediatype>
						<trackindex>1</trackindex>
						<clipindex>97</clipindex>
					</link>
					<link>
						<linkclipref>msub200012-0409d3k1004 3</linkclipref>
						<mediatype>audio</mediatype>
						<trackindex>2</trackindex>
						<clipindex>155</clipindex>
					</link>
				</clipitem>
				<clipitem id="msub200012-0409d3k1004 4">
					<name>msub200012-0409d3k1004</name>
					<duration>6856</duration>
					<rate>
						<ntsc>FALSE</ntsc>
						<timebase>25</timebase>
					</rate>
					<in>4314</in>
					<out>5865</out>
					<start>25887</start>
					<end>-1</end>
					<subframeoffset>0</subframeoffset>
					<masterclipid>msub200012-0409d3k1004 1</masterclipid>
					<syncoffset>0</syncoffset>
					<logginginfo>
						<description>msub200012-0409d3k1004</description>
						<scene/>
						<shottake/>
						<lognote/>
						<good>FALSE</good>
					</logginginfo>
					<labels>
						<label>Good Take</label>
						<label2/>
					</labels>
					<comments>
						<mastercomment1>RÅSTOFF. BR_FINFREDAG_MSUA_OPRO</mastercomment1>
						<mastercomment2/>
						<mastercomment3/>
						<mastercomment4/>
					</comments>
					<file id="msub200012-0409d3k1004 2"/>
					<filter>
						<start>-1</start>
						<end>-1</end>
						<effect>
							<name>3 Band Equalizer - Kristine</name>
							<effecttype>filter</effecttype>
							<mediatype>audio</mediatype>
							<parameter>
								<parameterid>Low Frequency</parameterid>
								<name>Low Frequency</name>
								<valuemin>80</valuemin>
								<valuemax>2000</valuemax>
								<value>80</value>
							</parameter>
							<parameter>
								<parameterid>Low Gain(dB)</parameterid>
								<name>Low Gain(dB)</name>
								<valuemin>-20</valuemin>
								<valuemax>20</valuemax>
								<value>-4</value>
							</parameter>
							<parameter>
								<parameterid>Mid Frequency</parameterid>
								<name>Mid Frequency</name>
								<valuemin>400</valuemin>
								<valuemax>8000</valuemax>
								<value>3602</value>
							</parameter>
							<parameter>
								<parameterid>Mid Gain(dB)</parameterid>
								<name>Mid Gain(dB)</name>
								<valuemin>-20</valuemin>
								<valuemax>20</valuemax>
								<value>3</value>
							</parameter>
							<parameter>
								<parameterid>High Frequency</parameterid>
								<name>High Frequency</name>
								<valuemin>5000</valuemin>
								<valuemax>20000</valuemax>
								<value>10354</value>
							</parameter>
							<parameter>
								<parameterid>High Gain(dB)</parameterid>
								<name>High Gain(dB)</name>
								<valuemin>-20</valuemin>
								<valuemax>20</valuemax>
								<value>0</value>
							</parameter>
						</effect>
					</filter>
					<filter>
						<effect>
							<name>Audio Levels</name>
							<effectid>audiolevels</effectid>
							<effectcategory>audiolevels</effectcategory>
							<effecttype>audiolevels</effecttype>
							<mediatype>audio</mediatype>
							<parameter>
								<name>Level</name>
								<parameterid>level</parameterid>
								<valuemin>0</valuemin>
								<valuemax>3.98109</valuemax>
								<keyframe>
									<when>4298.86</when>
									<value>0.281838</value>
								</keyframe>
								<keyframe>
									<when>4304</when>
									<value>0.0354813</value>
								</keyframe>
								<keyframe>
									<when>4454.86</when>
									<value>0.0354813</value>
								</keyframe>
								<keyframe>
									<when>4514.86</when>
									<value>3.98107</value>
								</keyframe>
								<keyframe>
									<when>4563.43</when>
									<value>3.98107</value>
								</keyframe>
								<keyframe>
									<when>4589.71</when>
									<value>0.0354813</value>
								</keyframe>
								<keyframe>
									<when>4822.86</when>
									<value>0.0354813</value>
								</keyframe>
								<keyframe>
									<when>4830.86</when>
									<value>2.51189</value>
								</keyframe>
								<keyframe>
									<when>4868.57</when>
									<value>2.51189</value>
								</keyframe>
								<keyframe>
									<when>4876</when>
									<value>0.0354813</value>
								</keyframe>
								<keyframe>
									<when>5031.43</when>
									<value>0.0354813</value>
								</keyframe>
								<keyframe>
									<when>5034.86</when>
									<value>1.12202</value>
								</keyframe>
								<keyframe>
									<when>5039.43</when>
									<value>1.12202</value>
								</keyframe>
								<keyframe>
									<when>5042.43</when>
									<value>0.0354813</value>
								</keyframe>
								<keyframe>
									<when>5123.43</when>
									<value>0.0354813</value>
								</keyframe>
								<keyframe>
									<when>5128</when>
									<value>0.446684</value>
								</keyframe>
								<keyframe>
									<when>5450.86</when>
									<value>0.446684</value>
								</keyframe>
								<keyframe>
									<when>5461.71</when>
									<value>0.0354813</value>
								</keyframe>
								<interpolation>
									<name>FCPCurve</name>
								</interpolation>
								<value>0.141254</value>
							</parameter>
						</effect>
					</filter>
					<filter>
						<effect>
							<name>Audio Pan</name>
							<effectid>audiopan</effectid>
							<effectcategory>audiopan</effectcategory>
							<effecttype>audiopan</effecttype>
							<mediatype>audio</mediatype>
							<parameter>
								<name>Pan</name>
								<parameterid>pan</parameterid>
								<valuemin>-1</valuemin>
								<valuemax>1</valuemax>
								<value>0</value>
							</parameter>
						</effect>
					</filter>
					<sourcetrack>
						<mediatype>audio</mediatype>
						<trackindex>1</trackindex>
					</sourcetrack>
					<link>
						<linkclipref>msub200012-0409d3k1004 4</linkclipref>
						<mediatype>audio</mediatype>
						<trackindex>1</trackindex>
						<clipindex>98</clipindex>
					</link>
					<link>
						<linkclipref>msub200012-0409d3k1004 5</linkclipref>
						<mediatype>audio</mediatype>
						<trackindex>2</trackindex>
						<clipindex>156</clipindex>
					</link>
				</clipitem>
				<transitionitem id="958153336 ">
					<rate>
						<ntsc>FALSE</ntsc>
						<timebase>25</timebase>
					</rate>
					<start>27432</start>
					<end>27438</end>
					<alignment>end-black</alignment>
					<effect>
						<name>Cross Fade (+3dB) Copy</name>
						<effecttype>transition</effecttype>
						<mediatype>audio</mediatype>
					</effect>
				</transitionitem>
				<transitionitem id="958153064 ">
					<rate>
						<ntsc>FALSE</ntsc>
						<timebase>25</timebase>
					</rate>
					<start>29098</start>
					<end>29104</end>
					<alignment>start-black</alignment>
					<effect>
						<name>Cross Fade (+3dB) Copy</name>
						<effecttype>transition</effecttype>
						<mediatype>audio</mediatype>
					</effect>
				</transitionitem>
				<clipitem id="msub200012-0409d2k2004 ">
					<name>msub200012-0409d2k2004</name>
					<duration>16802</duration>
					<rate>
						<ntsc>FALSE</ntsc>
						<timebase>25</timebase>
					</rate>
					<in>1642</in>
					<out>1896</out>
					<start>-1</start>
					<end>29352</end>
					<subframeoffset>0</subframeoffset>
					<enabled>TRUE</enabled>
					<masterclipid>msub200012-0409d2k2004 1</masterclipid>
					<logginginfo>
						<description>msub200012-0409d2k2004</description>
						<scene/>
						<shottake/>
						<lognote/>
						<good>FALSE</good>
					</logginginfo>
					<labels>
						<label>Alternate Shots</label>
						<label2/>
					</labels>
					<comments>
						<mastercomment1>RÅSTOFF. BR_FINFREDAG_MSUA_OPRO</mastercomment1>
						<mastercomment2/>
						<mastercomment3/>
						<mastercomment4/>
					</comments>
					<file id="msub200012-0409d2k2004 2">
						<name>msub200012-0409d2k2004.mxf</name>
						<pathurl>file://localhost/Volumes/omfs/clip.dir/MXF/1080i/msub200012-0409d2k2004.mxf</pathurl>
						<rate>
							<timebase>25</timebase>
						</rate>
						<duration>16802</duration>
						<timecode>
							<rate>
								<timebase>25</timebase>
							</rate>
							<string>20:45:51:10</string>
							<frame>1868785</frame>
							<displayformat>NDF</displayformat>
							<source>source</source>
						</timecode>
						<media>
							<video>
								<duration>16802</duration>
								<samplecharacteristics>
									<width>1920</width>
									<height>1080</height>
								</samplecharacteristics>
							</video>
							<audio>
								<rate>
									<timebase>48000</timebase>
								</rate>
								<trackcount>1</trackcount>
								<samplecharacteristics>
									<depth>24</depth>
								</samplecharacteristics>
							</audio>
						</media>
					</file>
					<filter>
						<effect>
							<name>Audio Levels</name>
							<effectid>audiolevels</effectid>
							<effectcategory>audiolevels</effectcategory>
							<effecttype>audiolevels</effecttype>
							<mediatype>audio</mediatype>
							<parameter>
								<name>Level</name>
								<parameterid>level</parameterid>
								<valuemin>0</valuemin>
								<valuemax>3.98109</valuemax>
								<keyframe>
									<when>1663.35</when>
									<value>0.0891251</value>
								</keyframe>
								<keyframe>
									<when>1666.24</when>
									<value>1.58489</value>
								</keyframe>
								<keyframe>
									<when>1805.5</when>
									<value>1.58489</value>
								</keyframe>
								<keyframe>
									<when>1814.5</when>
									<value>0.354813</value>
								</keyframe>
								<keyframe>
									<when>1894</when>
									<value>0.354813</value>
								</keyframe>
								<keyframe>
									<when>1902.25</when>
									<value>1.77828</value>
								</keyframe>
								<keyframe>
									<when>2032</when>
									<value>1.77828</value>
								</keyframe>
								<keyframe>
									<when>2044</when>
									<value>2.51189</value>
								</keyframe>
								<interpolation>
									<name>FCPCurve</name>
								</interpolation>
								<value>2.51189</value>
							</parameter>
						</effect>
					</filter>
					<filter>
						<effect>
							<name>Audio Pan</name>
							<effectid>audiopan</effectid>
							<effectcategory>audiopan</effectcategory>
							<effecttype>audiopan</effecttype>
							<mediatype>audio</mediatype>
							<parameter>
								<name>Pan</name>
								<parameterid>pan</parameterid>
								<valuemin>-1</valuemin>
								<valuemax>1</valuemax>
								<value>0</value>
							</parameter>
						</effect>
					</filter>
					<sourcetrack>
						<mediatype>audio</mediatype>
						<trackindex>2</trackindex>
					</sourcetrack>
				</clipitem>
				<transitionitem id="958144292 ">
					<rate>
						<ntsc>FALSE</ntsc>
						<timebase>25</timebase>
					</rate>
					<start>34979</start>
					<end>34981</end>
					<alignment>start-black</alignment>
					<effect>
						<name>Cross Fade (+3dB) Copy</name>
						<effecttype>transition</effecttype>
						<mediatype>audio</mediatype>
					</effect>
				</transitionitem>
				<clipitem id="msub200012-0409d2k2004 3">
					<name>msub200012-0409d2k2004</name>
					<duration>16802</duration>
					<rate>
						<ntsc>FALSE</ntsc>
						<timebase>25</timebase>
					</rate>
					<in>15364</in>
					<out>16531</out>
					<start>-1</start>
					<end>-1</end>
					<subframeoffset>0</subframeoffset>
					<masterclipid>msub200012-0409d2k2004 1</masterclipid>
					<logginginfo>
						<description>msub200012-0409d2k2004</description>
						<scene/>
						<shottake/>
						<lognote/>
						<good>FALSE</good>
					</logginginfo>
					<labels>
						<label>Alternate Shots</label>
						<label2/>
					</labels>
					<comments>
						<mastercomment1>RÅSTOFF. BR_FINFREDAG_MSUA_OPRO</mastercomment1>
						<mastercomment2/>
						<mastercomment3/>
						<mastercomment4/>
					</comments>
					<file id="msub200012-0409d2k2004 2"/>
					<filter>
						<start>-1</start>
						<end>-1</end>
						<effect>
							<name>3 Band Equalizer - Kristine</name>
							<effecttype>filter</effecttype>
							<mediatype>audio</mediatype>
							<parameter>
								<parameterid>Low Frequency</parameterid>
								<name>Low Frequency</name>
								<valuemin>80</valuemin>
								<valuemax>2000</valuemax>
								<value>80</value>
							</parameter>
							<parameter>
								<parameterid>Low Gain(dB)</parameterid>
								<name>Low Gain(dB)</name>
								<valuemin>-20</valuemin>
								<valuemax>20</valuemax>
								<value>-4</value>
							</parameter>
							<parameter>
								<parameterid>Mid Frequency</parameterid>
								<name>Mid Frequency</name>
								<valuemin>400</valuemin>
								<valuemax>8000</valuemax>
								<value>3602</value>
							</parameter>
							<parameter>
								<parameterid>Mid Gain(dB)</parameterid>
								<name>Mid Gain(dB)</name>
								<valuemin>-20</valuemin>
								<valuemax>20</valuemax>
								<value>3</value>
							</parameter>
							<parameter>
								<parameterid>High Frequency</parameterid>
								<name>High Frequency</name>
								<valuemin>5000</valuemin>
								<valuemax>20000</valuemax>
								<value>10354</value>
							</parameter>
							<parameter>
								<parameterid>High Gain(dB)</parameterid>
								<name>High Gain(dB)</name>
								<valuemin>-20</valuemin>
								<valuemax>20</valuemax>
								<value>0</value>
							</parameter>
						</effect>
					</filter>
					<filter>
						<effect>
							<name>Audio Levels</name>
							<effectid>audiolevels</effectid>
							<effectcategory>audiolevels</effectcategory>
							<effecttype>audiolevels</effecttype>
							<mediatype>audio</mediatype>
							<parameter>
								<name>Level</name>
								<parameterid>level</parameterid>
								<valuemin>0</valuemin>
								<valuemax>3.98109</valuemax>
								<keyframe>
									<when>15632.9</when>
									<value>1.41254</value>
								</keyframe>
								<keyframe>
									<when>15713.9</when>
									<value>1.99526</value>
								</keyframe>
								<keyframe>
									<when>15795.8</when>
									<value>1.99526</value>
								</keyframe>
								<keyframe>
									<when>15825</when>
									<value>2.51189</value>
								</keyframe>
								<keyframe>
									<when>16017.8</when>
									<value>2.23872</value>
								</keyframe>
								<keyframe>
									<when>16265.2</when>
									<value>2.23872</value>
								</keyframe>
								<keyframe>
									<when>16280.3</when>
									<value>3.16228</value>
								</keyframe>
								<keyframe>
									<when>16358.2</when>
									<value>3.16228</value>
								</keyframe>
								<keyframe>
									<when>16365</when>
									<value>2.51189</value>
								</keyframe>
								<keyframe>
									<when>16451.2</when>
									<value>2.23872</value>
								</keyframe>
								<keyframe>
									<when>16461</when>
									<value>1.99526</value>
								</keyframe>
								<interpolation>
									<name>FCPCurve</name>
								</interpolation>
								<value>1.99526</value>
							</parameter>
						</effect>
					</filter>
					<filter>
						<effect>
							<name>Audio Pan</name>
							<effectid>audiopan</effectid>
							<effectcategory>audiopan</effectcategory>
							<effecttype>audiopan</effecttype>
							<mediatype>audio</mediatype>
							<parameter>
								<name>Pan</name>
								<parameterid>pan</parameterid>
								<valuemin>-1</valuemin>
								<valuemax>1</valuemax>
								<value>0</value>
							</parameter>
						</effect>
					</filter>
					<sourcetrack>
						<mediatype>audio</mediatype>
						<trackindex>2</trackindex>
					</sourcetrack>
				</clipitem>
				<transitionitem id="958173736 ">
					<rate>
						<ntsc>FALSE</ntsc>
						<timebase>25</timebase>
					</rate>
					<start>36136</start>
					<end>36146</end>
					<alignment>end-black</alignment>
					<effect>
						<name>Cross Fade (+3dB) Copy</name>
						<effecttype>transition</effecttype>
						<mediatype>audio</mediatype>
					</effect>
				</transitionitem>
				<transitionitem id="958173260 ">
					<rate>
						<ntsc>FALSE</ntsc>
						<timebase>25</timebase>
					</rate>
					<start>36194</start>
					<end>36200</end>
					<alignment>start-black</alignment>
					<effect>
						<name>Cross Fade (+3dB) Copy</name>
						<effecttype>transition</effecttype>
						<mediatype>audio</mediatype>
					</effect>
				</transitionitem>
				<clipitem id="msub200012-0509d1-001 ">
					<name>msub200012-0509d1-001</name>
					<duration>9348</duration>
					<rate>
						<ntsc>FALSE</ntsc>
						<timebase>25</timebase>
					</rate>
					<in>443</in>
					<out>462</out>
					<start>-1</start>
					<end>36213</end>
					<subframeoffset>0</subframeoffset>
					<enabled>TRUE</enabled>
					<masterclipid>msub200012-0509d1-001 1</masterclipid>
					<logginginfo>
						<description>msub200012-0509d1-001</description>
						<scene/>
						<shottake/>
						<lognote/>
						<good>FALSE</good>
					</logginginfo>
					<labels>
						<label2/>
					</labels>
					<comments>
						<mastercomment1>BARN OG UNGDOM. BR_FINFREDAG_MSUA_OPRO</mastercomment1>
						<mastercomment2/>
						<mastercomment3/>
						<mastercomment4/>
					</comments>
					<file id="msub200012-0509d1-001 2">
						<name>msub200012-0509d1-001.MXF</name>
						<pathurl>file://localhost/Volumes/omfs/clip.dir/MXF/1080i/msub200012-0509d1-001.MXF</pathurl>
						<rate>
							<timebase>25</timebase>
						</rate>
						<duration>9348</duration>
						<timecode>
							<rate>
								<timebase>25</timebase>
							</rate>
							<string>01:10:37:11</string>
							<frame>105936</frame>
							<displayformat>NDF</displayformat>
							<source>source</source>
						</timecode>
						<media>
							<video>
								<duration>9348</duration>
								<samplecharacteristics>
									<width>1920</width>
									<height>1080</height>
								</samplecharacteristics>
							</video>
							<audio>
								<rate>
									<timebase>48000</timebase>
								</rate>
								<trackcount>1</trackcount>
								<samplecharacteristics>
									<depth>24</depth>
								</samplecharacteristics>
							</audio>
						</media>
					</file>
					<filter>
						<enabled>TRUE</enabled>
						<start>-1</start>
						<end>-1</end>
						<effect>
							<name>3 Band Equalizer - Mann - 2</name>
							<effecttype>filter</effecttype>
							<mediatype>audio</mediatype>
							<parameter>
								<parameterid>Low Frequency</parameterid>
								<name>Low Frequency</name>
								<valuemin>80</valuemin>
								<valuemax>2000</valuemax>
								<value>131</value>
							</parameter>
							<parameter>
								<parameterid>Low Gain(dB)</parameterid>
								<name>Low Gain(dB)</name>
								<valuemin>-20</valuemin>
								<valuemax>20</valuemax>
								<value>-7</value>
							</parameter>
							<parameter>
								<parameterid>Mid Frequency</parameterid>
								<name>Mid Frequency</name>
								<valuemin>400</valuemin>
								<valuemax>8000</valuemax>
								<value>3602</value>
							</parameter>
							<parameter>
								<parameterid>Mid Gain(dB)</parameterid>
								<name>Mid Gain(dB)</name>
								<valuemin>-20</valuemin>
								<valuemax>20</valuemax>
								<value>3</value>
							</parameter>
							<parameter>
								<parameterid>High Frequency</parameterid>
								<name>High Frequency</name>
								<valuemin>5000</valuemin>
								<valuemax>20000</valuemax>
								<value>10354</value>
							</parameter>
							<parameter>
								<parameterid>High Gain(dB)</parameterid>
								<name>High Gain(dB)</name>
								<valuemin>-20</valuemin>
								<valuemax>20</valuemax>
								<value>0</value>
							</parameter>
						</effect>
					</filter>
					<filter>
						<effect>
							<name>Audio Levels</name>
							<effectid>audiolevels</effectid>
							<effectcategory>audiolevels</effectcategory>
							<effecttype>audiolevels</effecttype>
							<mediatype>audio</mediatype>
							<parameter>
								<name>Level</name>
								<parameterid>level</parameterid>
								<valuemin>0</valuemin>
								<valuemax>3.98109</valuemax>
								<keyframe>
									<when>458.536</when>
									<value>0.891251</value>
								</keyframe>
								<keyframe>
									<when>461.429</when>
									<value>0.251189</value>
								</keyframe>
								<keyframe>
									<when>507.714</when>
									<value>0.251189</value>
								</keyframe>
								<keyframe>
									<when>510.429</when>
									<value>0.891251</value>
								</keyframe>
								<interpolation>
									<name>FCPCurve</name>
								</interpolation>
								<value>0.891251</value>
							</parameter>
						</effect>
					</filter>
					<filter>
						<effect>
							<name>Audio Pan</name>
							<effectid>audiopan</effectid>
							<effectcategory>audiopan</effectcategory>
							<effecttype>audiopan</effecttype>
							<mediatype>audio</mediatype>
							<parameter>
								<name>Pan</name>
								<parameterid>pan</parameterid>
								<valuemin>-1</valuemin>
								<valuemax>1</valuemax>
								<value>0</value>
							</parameter>
						</effect>
					</filter>
					<sourcetrack>
						<mediatype>audio</mediatype>
						<trackindex>1</trackindex>
					</sourcetrack>
				</clipitem>
				<clipitem id="msub200012-0509d1-001 3">
					<name>msub200012-0509d1-001</name>
					<duration>9348</duration>
					<rate>
						<ntsc>FALSE</ntsc>
						<timebase>25</timebase>
					</rate>
					<in>462</in>
					<out>476</out>
					<start>36213</start>
					<end>36227</end>
					<subframeoffset>0</subframeoffset>
					<enabled>TRUE</enabled>
					<masterclipid>msub200012-0509d1-001 1</masterclipid>
					<logginginfo>
						<description>msub200012-0509d1-001</description>
						<scene/>
						<shottake/>
						<lognote/>
						<good>FALSE</good>
					</logginginfo>
					<labels>
						<label2/>
					</labels>
					<comments>
						<mastercomment1>BARN OG UNGDOM. BR_FINFREDAG_MSUA_OPRO</mastercomment1>
						<mastercomment2/>
						<mastercomment3/>
						<mastercomment4/>
					</comments>
					<file id="msub200012-0509d1-001 2"/>
					<filter>
						<enabled>TRUE</enabled>
						<start>-1</start>
						<end>-1</end>
						<effect>
							<name>3 Band Equalizer - Mann - 2</name>
							<effecttype>filter</effecttype>
							<mediatype>audio</mediatype>
							<parameter>
								<parameterid>Low Frequency</parameterid>
								<name>Low Frequency</name>
								<valuemin>80</valuemin>
								<valuemax>2000</valuemax>
								<value>131</value>
							</parameter>
							<parameter>
								<parameterid>Low Gain(dB)</parameterid>
								<name>Low Gain(dB)</name>
								<valuemin>-20</valuemin>
								<valuemax>20</valuemax>
								<value>-7</value>
							</parameter>
							<parameter>
								<parameterid>Mid Frequency</parameterid>
								<name>Mid Frequency</name>
								<valuemin>400</valuemin>
								<valuemax>8000</valuemax>
								<value>3602</value>
							</parameter>
							<parameter>
								<parameterid>Mid Gain(dB)</parameterid>
								<name>Mid Gain(dB)</name>
								<valuemin>-20</valuemin>
								<valuemax>20</valuemax>
								<value>3</value>
							</parameter>
							<parameter>
								<parameterid>High Frequency</parameterid>
								<name>High Frequency</name>
								<valuemin>5000</valuemin>
								<valuemax>20000</valuemax>
								<value>10354</value>
							</parameter>
							<parameter>
								<parameterid>High Gain(dB)</parameterid>
								<name>High Gain(dB)</name>
								<valuemin>-20</valuemin>
								<valuemax>20</valuemax>
								<value>0</value>
							</parameter>
						</effect>
					</filter>
					<filter>
						<effect>
							<name>Audio Levels</name>
							<effectid>audiolevels</effectid>
							<effectcategory>audiolevels</effectcategory>
							<effecttype>audiolevels</effecttype>
							<mediatype>audio</mediatype>
							<parameter>
								<name>Level</name>
								<parameterid>level</parameterid>
								<valuemin>0</valuemin>
								<valuemax>3.98109</valuemax>
								<keyframe>
									<when>458.536</when>
									<value>0.891251</value>
								</keyframe>
								<keyframe>
									<when>461.429</when>
									<value>0.251189</value>
								</keyframe>
								<keyframe>
									<when>507.714</when>
									<value>0.251189</value>
								</keyframe>
								<keyframe>
									<when>510.429</when>
									<value>0.891251</value>
								</keyframe>
								<interpolation>
									<name>FCPCurve</name>
								</interpolation>
								<value>0.891251</value>
							</parameter>
						</effect>
					</filter>
					<filter>
						<effect>
							<name>Audio Pan</name>
							<effectid>audiopan</effectid>
							<effectcategory>audiopan</effectcategory>
							<effecttype>audiopan</effecttype>
							<mediatype>audio</mediatype>
							<parameter>
								<name>Pan</name>
								<parameterid>pan</parameterid>
								<valuemin>-1</valuemin>
								<valuemax>1</valuemax>
								<value>0</value>
							</parameter>
						</effect>
					</filter>
					<sourcetrack>
						<mediatype>audio</mediatype>
						<trackindex>1</trackindex>
					</sourcetrack>
				</clipitem>
				<clipitem id="msub200012-0509d1-001 4">
					<name>msub200012-0509d1-001</name>
					<duration>9348</duration>
					<rate>
						<ntsc>FALSE</ntsc>
						<timebase>25</timebase>
					</rate>
					<in>476</in>
					<out>563</out>
					<start>36227</start>
					<end>-1</end>
					<subframeoffset>0</subframeoffset>
					<enabled>TRUE</enabled>
					<masterclipid>msub200012-0509d1-001 1</masterclipid>
					<logginginfo>
						<description>msub200012-0509d1-001</description>
						<scene/>
						<shottake/>
						<lognote/>
						<good>FALSE</good>
					</logginginfo>
					<labels>
						<label2/>
					</labels>
					<comments>
						<mastercomment1>BARN OG UNGDOM. BR_FINFREDAG_MSUA_OPRO</mastercomment1>
						<mastercomment2/>
						<mastercomment3/>
						<mastercomment4/>
					</comments>
					<file id="msub200012-0509d1-001 2"/>
					<filter>
						<enabled>TRUE</enabled>
						<start>-1</start>
						<end>-1</end>
						<effect>
							<name>3 Band Equalizer - Mann - 2</name>
							<effecttype>filter</effecttype>
							<mediatype>audio</mediatype>
							<parameter>
								<parameterid>Low Frequency</parameterid>
								<name>Low Frequency</name>
								<valuemin>80</valuemin>
								<valuemax>2000</valuemax>
								<value>131</value>
							</parameter>
							<parameter>
								<parameterid>Low Gain(dB)</parameterid>
								<name>Low Gain(dB)</name>
								<valuemin>-20</valuemin>
								<valuemax>20</valuemax>
								<value>-7</value>
							</parameter>
							<parameter>
								<parameterid>Mid Frequency</parameterid>
								<name>Mid Frequency</name>
								<valuemin>400</valuemin>
								<valuemax>8000</valuemax>
								<value>3602</value>
							</parameter>
							<parameter>
								<parameterid>Mid Gain(dB)</parameterid>
								<name>Mid Gain(dB)</name>
								<valuemin>-20</valuemin>
								<valuemax>20</valuemax>
								<value>3</value>
							</parameter>
							<parameter>
								<parameterid>High Frequency</parameterid>
								<name>High Frequency</name>
								<valuemin>5000</valuemin>
								<valuemax>20000</valuemax>
								<value>10354</value>
							</parameter>
							<parameter>
								<parameterid>High Gain(dB)</parameterid>
								<name>High Gain(dB)</name>
								<valuemin>-20</valuemin>
								<valuemax>20</valuemax>
								<value>0</value>
							</parameter>
						</effect>
					</filter>
					<filter>
						<effect>
							<name>Audio Levels</name>
							<effectid>audiolevels</effectid>
							<effectcategory>audiolevels</effectcategory>
							<effecttype>audiolevels</effecttype>
							<mediatype>audio</mediatype>
							<parameter>
								<name>Level</name>
								<parameterid>level</parameterid>
								<valuemin>0</valuemin>
								<valuemax>3.98109</valuemax>
								<keyframe>
									<when>458.536</when>
									<value>0.891251</value>
								</keyframe>
								<keyframe>
									<when>461.429</when>
									<value>0.251189</value>
								</keyframe>
								<keyframe>
									<when>507.714</when>
									<value>0.251189</value>
								</keyframe>
								<keyframe>
									<when>510.429</when>
									<value>0.891251</value>
								</keyframe>
								<interpolation>
									<name>FCPCurve</name>
								</interpolation>
								<value>0.891251</value>
							</parameter>
						</effect>
					</filter>
					<filter>
						<effect>
							<name>Audio Pan</name>
							<effectid>audiopan</effectid>
							<effectcategory>audiopan</effectcategory>
							<effecttype>audiopan</effecttype>
							<mediatype>audio</mediatype>
							<parameter>
								<name>Pan</name>
								<parameterid>pan</parameterid>
								<valuemin>-1</valuemin>
								<valuemax>1</valuemax>
								<value>0</value>
							</parameter>
						</effect>
					</filter>
					<sourcetrack>
						<mediatype>audio</mediatype>
						<trackindex>1</trackindex>
					</sourcetrack>
				</clipitem>
				<transitionitem id="958147012 ">
					<rate>
						<ntsc>FALSE</ntsc>
						<timebase>25</timebase>
					</rate>
					<start>36308</start>
					<end>36314</end>
					<alignment>center</alignment>
					<effect>
						<name>Cross Fade (+3dB) Copy</name>
						<effecttype>transition</effecttype>
						<mediatype>audio</mediatype>
					</effect>
				</transitionitem>
				<clipitem id="msub200012-0509d1-001 5">
					<name>msub200012-0509d1-001</name>
					<duration>9348</duration>
					<rate>
						<ntsc>FALSE</ntsc>
						<timebase>25</timebase>
					</rate>
					<in>611</in>
					<out>764</out>
					<start>-1</start>
					<end>36461</end>
					<subframeoffset>0</subframeoffset>
					<enabled>TRUE</enabled>
					<masterclipid>msub200012-0509d1-001 1</masterclipid>
					<logginginfo>
						<description>msub200012-0509d1-001</description>
						<scene/>
						<shottake/>
						<lognote/>
						<good>FALSE</good>
					</logginginfo>
					<labels>
						<label2/>
					</labels>
					<comments>
						<mastercomment1>BARN OG UNGDOM. BR_FINFREDAG_MSUA_OPRO</mastercomment1>
						<mastercomment2/>
						<mastercomment3/>
						<mastercomment4/>
					</comments>
					<file id="msub200012-0509d1-001 2"/>
					<filter>
						<enabled>TRUE</enabled>
						<start>-1</start>
						<end>-1</end>
						<effect>
							<name>3 Band Equalizer - Mann</name>
							<effecttype>filter</effecttype>
							<mediatype>audio</mediatype>
							<parameter>
								<parameterid>Low Frequency</parameterid>
								<name>Low Frequency</name>
								<valuemin>80</valuemin>
								<valuemax>2000</valuemax>
								<value>131</value>
							</parameter>
							<parameter>
								<parameterid>Low Gain(dB)</parameterid>
								<name>Low Gain(dB)</name>
								<valuemin>-20</valuemin>
								<valuemax>20</valuemax>
								<value>-7</value>
							</parameter>
							<parameter>
								<parameterid>Mid Frequency</parameterid>
								<name>Mid Frequency</name>
								<valuemin>400</valuemin>
								<valuemax>8000</valuemax>
								<value>3602</value>
							</parameter>
							<parameter>
								<parameterid>Mid Gain(dB)</parameterid>
								<name>Mid Gain(dB)</name>
								<valuemin>-20</valuemin>
								<valuemax>20</valuemax>
								<value>3</value>
							</parameter>
							<parameter>
								<parameterid>High Frequency</parameterid>
								<name>High Frequency</name>
								<valuemin>5000</valuemin>
								<valuemax>20000</valuemax>
								<value>10354</value>
							</parameter>
							<parameter>
								<parameterid>High Gain(dB)</parameterid>
								<name>High Gain(dB)</name>
								<valuemin>-20</valuemin>
								<valuemax>20</valuemax>
								<value>0</value>
							</parameter>
						</effect>
					</filter>
					<filter>
						<effect>
							<name>Audio Levels</name>
							<effectid>audiolevels</effectid>
							<effectcategory>audiolevels</effectcategory>
							<effecttype>audiolevels</effecttype>
							<mediatype>audio</mediatype>
							<parameter>
								<name>Level</name>
								<parameterid>level</parameterid>
								<valuemin>0</valuemin>
								<valuemax>3.98109</valuemax>
								<keyframe>
									<when>662.652</when>
									<value>0.158489</value>
								</keyframe>
								<keyframe>
									<when>665.196</when>
									<value>0.707946</value>
								</keyframe>
								<keyframe>
									<when>710.536</when>
									<value>0.891251</value>
								</keyframe>
								<keyframe>
									<when>710.546</when>
									<value>0.251189</value>
								</keyframe>
								<keyframe>
									<when>727.964</when>
									<value>0.398107</value>
								</keyframe>
								<keyframe>
									<when>761.893</when>
									<value>0.398107</value>
								</keyframe>
								<keyframe>
									<when>788.696</when>
									<value>1</value>
								</keyframe>
								<keyframe>
									<when>791.071</when>
									<value>0</value>
								</keyframe>
								<keyframe>
									<when>804.982</when>
									<value>0</value>
								</keyframe>
								<keyframe>
									<when>807.357</when>
									<value>1</value>
								</keyframe>
								<keyframe>
									<when>829.071</when>
									<value>1</value>
								</keyframe>
								<keyframe>
									<when>830.768</when>
									<value>0.0112202</value>
								</keyframe>
								<keyframe>
									<when>884.714</when>
									<value>0.0251189</value>
								</keyframe>
								<keyframe>
									<when>885.393</when>
									<value>1</value>
								</keyframe>
								<interpolation>
									<name>FCPCurve</name>
								</interpolation>
								<value>0.422968</value>
							</parameter>
						</effect>
					</filter>
					<filter>
						<effect>
							<name>Audio Pan</name>
							<effectid>audiopan</effectid>
							<effectcategory>audiopan</effectcategory>
							<effecttype>audiopan</effecttype>
							<mediatype>audio</mediatype>
							<parameter>
								<name>Pan</name>
								<parameterid>pan</parameterid>
								<valuemin>-1</valuemin>
								<valuemax>1</valuemax>
								<value>0</value>
							</parameter>
						</effect>
					</filter>
					<sourcetrack>
						<mediatype>audio</mediatype>
						<trackindex>1</trackindex>
					</sourcetrack>
				</clipitem>
				<clipitem id="msub200012-0509d1-001 6">
					<name>msub200012-0509d1-001</name>
					<duration>9348</duration>
					<rate>
						<ntsc>FALSE</ntsc>
						<timebase>25</timebase>
					</rate>
					<in>764</in>
					<out>937</out>
					<start>36461</start>
					<end>-1</end>
					<subframeoffset>0</subframeoffset>
					<enabled>TRUE</enabled>
					<masterclipid>msub200012-0509d1-001 1</masterclipid>
					<logginginfo>
						<description>msub200012-0509d1-001</description>
						<scene/>
						<shottake/>
						<lognote/>
						<good>FALSE</good>
					</logginginfo>
					<labels>
						<label2/>
					</labels>
					<comments>
						<mastercomment1>BARN OG UNGDOM. BR_FINFREDAG_MSUA_OPRO</mastercomment1>
						<mastercomment2/>
						<mastercomment3/>
						<mastercomment4/>
					</comments>
					<file id="msub200012-0509d1-001 2"/>
					<filter>
						<enabled>TRUE</enabled>
						<start>-1</start>
						<end>-1</end>
						<effect>
							<name>3 Band Equalizer - Mann</name>
							<effecttype>filter</effecttype>
							<mediatype>audio</mediatype>
							<parameter>
								<parameterid>Low Frequency</parameterid>
								<name>Low Frequency</name>
								<valuemin>80</valuemin>
								<valuemax>2000</valuemax>
								<value>131</value>
							</parameter>
							<parameter>
								<parameterid>Low Gain(dB)</parameterid>
								<name>Low Gain(dB)</name>
								<valuemin>-20</valuemin>
								<valuemax>20</valuemax>
								<value>-7</value>
							</parameter>
							<parameter>
								<parameterid>Mid Frequency</parameterid>
								<name>Mid Frequency</name>
								<valuemin>400</valuemin>
								<valuemax>8000</valuemax>
								<value>3602</value>
							</parameter>
							<parameter>
								<parameterid>Mid Gain(dB)</parameterid>
								<name>Mid Gain(dB)</name>
								<valuemin>-20</valuemin>
								<valuemax>20</valuemax>
								<value>3</value>
							</parameter>
							<parameter>
								<parameterid>High Frequency</parameterid>
								<name>High Frequency</name>
								<valuemin>5000</valuemin>
								<valuemax>20000</valuemax>
								<value>10354</value>
							</parameter>
							<parameter>
								<parameterid>High Gain(dB)</parameterid>
								<name>High Gain(dB)</name>
								<valuemin>-20</valuemin>
								<valuemax>20</valuemax>
								<value>0</value>
							</parameter>
						</effect>
					</filter>
					<filter>
						<effect>
							<name>Audio Levels</name>
							<effectid>audiolevels</effectid>
							<effectcategory>audiolevels</effectcategory>
							<effecttype>audiolevels</effecttype>
							<mediatype>audio</mediatype>
							<parameter>
								<name>Level</name>
								<parameterid>level</parameterid>
								<valuemin>0</valuemin>
								<valuemax>3.98109</valuemax>
								<keyframe>
									<when>725.589</when>
									<value>1</value>
								</keyframe>
								<keyframe>
									<when>727.964</when>
									<value>1</value>
								</keyframe>
								<keyframe>
									<when>761.893</when>
									<value>1</value>
								</keyframe>
								<keyframe>
									<when>763.589</when>
									<value>1</value>
								</keyframe>
								<keyframe>
									<when>788.696</when>
									<value>1</value>
								</keyframe>
								<keyframe>
									<when>790.411</when>
									<value>0.501187</value>
								</keyframe>
								<keyframe>
									<when>805.357</when>
									<value>0.501187</value>
								</keyframe>
								<keyframe>
									<when>807.357</when>
									<value>0.707946</value>
								</keyframe>
								<keyframe>
									<when>829.071</when>
									<value>0.707946</value>
								</keyframe>
								<keyframe>
									<when>834.607</when>
									<value>0.10786</value>
								</keyframe>
								<keyframe>
									<when>884.714</when>
									<value>0.161885</value>
								</keyframe>
								<keyframe>
									<when>885.393</when>
									<value>0.630957</value>
								</keyframe>
								<interpolation>
									<name>FCPCurve</name>
								</interpolation>
								<value>0.567648</value>
							</parameter>
						</effect>
					</filter>
					<filter>
						<effect>
							<name>Audio Pan</name>
							<effectid>audiopan</effectid>
							<effectcategory>audiopan</effectcategory>
							<effecttype>audiopan</effecttype>
							<mediatype>audio</mediatype>
							<parameter>
								<name>Pan</name>
								<parameterid>pan</parameterid>
								<valuemin>-1</valuemin>
								<valuemax>1</valuemax>
								<value>0</value>
							</parameter>
						</effect>
					</filter>
					<sourcetrack>
						<mediatype>audio</mediatype>
						<trackindex>1</trackindex>
					</sourcetrack>
				</clipitem>
				<transitionitem id="958865284 ">
					<rate>
						<ntsc>FALSE</ntsc>
						<timebase>25</timebase>
					</rate>
					<start>36629</start>
					<end>36634</end>
					<alignment>end-black</alignment>
					<effect>
						<name>Cross Fade (+3dB)</name>
						<effecttype>transition</effecttype>
						<mediatype>audio</mediatype>
					</effect>
				</transitionitem>
				<clipitem id="msub200012-0509d1-001 7">
					<name>msub200012-0509d1-001</name>
					<duration>9348</duration>
					<rate>
						<ntsc>FALSE</ntsc>
						<timebase>25</timebase>
					</rate>
					<in>1096</in>
					<out>1159</out>
					<start>36634</start>
					<end>36697</end>
					<subframeoffset>0</subframeoffset>
					<masterclipid>msub200012-0509d1-001 1</masterclipid>
					<logginginfo>
						<description>msub200012-0509d1-001</description>
						<scene/>
						<shottake/>
						<lognote/>
						<good>FALSE</good>
					</logginginfo>
					<labels>
						<label2/>
					</labels>
					<comments>
						<mastercomment1>BARN OG UNGDOM. BR_FINFREDAG_MSUA_OPRO</mastercomment1>
						<mastercomment2/>
						<mastercomment3/>
						<mastercomment4/>
					</comments>
					<file id="msub200012-0509d1-001 2"/>
					<filter>
						<effect>
							<name>Audio Levels</name>
							<effectid>audiolevels</effectid>
							<effectcategory>audiolevels</effectcategory>
							<effecttype>audiolevels</effecttype>
							<mediatype>audio</mediatype>
							<parameter>
								<name>Level</name>
								<parameterid>level</parameterid>
								<valuemin>0</valuemin>
								<valuemax>3.98109</valuemax>
								<value>1</value>
							</parameter>
						</effect>
					</filter>
					<filter>
						<effect>
							<name>Audio Pan</name>
							<effectid>audiopan</effectid>
							<effectcategory>audiopan</effectcategory>
							<effecttype>audiopan</effecttype>
							<mediatype>audio</mediatype>
							<parameter>
								<name>Pan</name>
								<parameterid>pan</parameterid>
								<valuemin>-1</valuemin>
								<valuemax>1</valuemax>
								<value>0</value>
							</parameter>
						</effect>
					</filter>
					<sourcetrack>
						<mediatype>audio</mediatype>
						<trackindex>1</trackindex>
					</sourcetrack>
				</clipitem>
				<clipitem id="msub200012-0509d1-001 8">
					<name>msub200012-0509d1-001</name>
					<duration>9348</duration>
					<rate>
						<ntsc>FALSE</ntsc>
						<timebase>25</timebase>
					</rate>
					<in>1221</in>
					<out>1400</out>
					<start>36705</start>
					<end>-1</end>
					<subframeoffset>0</subframeoffset>
					<enabled>TRUE</enabled>
					<masterclipid>msub200012-0509d1-001 1</masterclipid>
					<logginginfo>
						<description>msub200012-0509d1-001</description>
						<scene/>
						<shottake/>
						<lognote/>
						<good>FALSE</good>
					</logginginfo>
					<labels>
						<label2/>
					</labels>
					<comments>
						<mastercomment1>BARN OG UNGDOM. BR_FINFREDAG_MSUA_OPRO</mastercomment1>
						<mastercomment2/>
						<mastercomment3/>
						<mastercomment4/>
					</comments>
					<file id="msub200012-0509d1-001 2"/>
					<filter>
						<enabled>TRUE</enabled>
						<start>-1</start>
						<end>-1</end>
						<effect>
							<name>3 Band Equalizer - Mann</name>
							<effecttype>filter</effecttype>
							<mediatype>audio</mediatype>
							<parameter>
								<parameterid>Low Frequency</parameterid>
								<name>Low Frequency</name>
								<valuemin>80</valuemin>
								<valuemax>2000</valuemax>
								<value>131</value>
							</parameter>
							<parameter>
								<parameterid>Low Gain(dB)</parameterid>
								<name>Low Gain(dB)</name>
								<valuemin>-20</valuemin>
								<valuemax>20</valuemax>
								<value>-7</value>
							</parameter>
							<parameter>
								<parameterid>Mid Frequency</parameterid>
								<name>Mid Frequency</name>
								<valuemin>400</valuemin>
								<valuemax>8000</valuemax>
								<value>3602</value>
							</parameter>
							<parameter>
								<parameterid>Mid Gain(dB)</parameterid>
								<name>Mid Gain(dB)</name>
								<valuemin>-20</valuemin>
								<valuemax>20</valuemax>
								<value>3</value>
							</parameter>
							<parameter>
								<parameterid>High Frequency</parameterid>
								<name>High Frequency</name>
								<valuemin>5000</valuemin>
								<valuemax>20000</valuemax>
								<value>10354</value>
							</parameter>
							<parameter>
								<parameterid>High Gain(dB)</parameterid>
								<name>High Gain(dB)</name>
								<valuemin>-20</valuemin>
								<valuemax>20</valuemax>
								<value>0</value>
							</parameter>
						</effect>
					</filter>
					<filter>
						<effect>
							<name>Audio Levels</name>
							<effectid>audiolevels</effectid>
							<effectcategory>audiolevels</effectcategory>
							<effecttype>audiolevels</effecttype>
							<mediatype>audio</mediatype>
							<parameter>
								<name>Level</name>
								<parameterid>level</parameterid>
								<valuemin>0</valuemin>
								<valuemax>3.98109</valuemax>
								<keyframe>
									<when>1312.79</when>
									<value>1</value>
								</keyframe>
								<keyframe>
									<when>1316</when>
									<value>0.141254</value>
								</keyframe>
								<keyframe>
									<when>1333.68</when>
									<value>0.141254</value>
								</keyframe>
								<keyframe>
									<when>1339.14</when>
									<value>0.891251</value>
								</keyframe>
								<interpolation>
									<name>FCPCurve</name>
								</interpolation>
								<value>1</value>
							</parameter>
						</effect>
					</filter>
					<filter>
						<effect>
							<name>Audio Pan</name>
							<effectid>audiopan</effectid>
							<effectcategory>audiopan</effectcategory>
							<effecttype>audiopan</effecttype>
							<mediatype>audio</mediatype>
							<parameter>
								<name>Pan</name>
								<parameterid>pan</parameterid>
								<valuemin>-1</valuemin>
								<valuemax>1</valuemax>
								<value>0</value>
							</parameter>
						</effect>
					</filter>
					<sourcetrack>
						<mediatype>audio</mediatype>
						<trackindex>1</trackindex>
					</sourcetrack>
				</clipitem>
				<transitionitem id="958862020 ">
					<rate>
						<ntsc>FALSE</ntsc>
						<timebase>25</timebase>
					</rate>
					<start>36880</start>
					<end>36884</end>
					<alignment>center</alignment>
					<effect>
						<name>Cross Fade (+3dB) Copy</name>
						<effecttype>transition</effecttype>
						<mediatype>audio</mediatype>
					</effect>
				</transitionitem>
				<clipitem id="msub200012-0509d1-001 9">
					<name>msub200012-0509d1-001</name>
					<duration>9348</duration>
					<rate>
						<ntsc>FALSE</ntsc>
						<timebase>25</timebase>
					</rate>
					<in>1461</in>
					<out>1549</out>
					<start>-1</start>
					<end>-1</end>
					<subframeoffset>0</subframeoffset>
					<masterclipid>msub200012-0509d1-001 1</masterclipid>
					<logginginfo>
						<description>msub200012-0509d1-001</description>
						<scene/>
						<shottake/>
						<lognote/>
						<good>FALSE</good>
					</logginginfo>
					<labels>
						<label2/>
					</labels>
					<comments>
						<mastercomment1>BARN OG UNGDOM. BR_FINFREDAG_MSUA_OPRO</mastercomment1>
						<mastercomment2/>
						<mastercomment3/>
						<mastercomment4/>
					</comments>
					<file id="msub200012-0509d1-001 2"/>
					<filter>
						<start>-1</start>
						<end>-1</end>
						<effect>
							<name>3 Band Equalizer - Mann</name>
							<effecttype>filter</effecttype>
							<mediatype>audio</mediatype>
							<parameter>
								<parameterid>Low Frequency</parameterid>
								<name>Low Frequency</name>
								<valuemin>80</valuemin>
								<valuemax>2000</valuemax>
								<value>131</value>
							</parameter>
							<parameter>
								<parameterid>Low Gain(dB)</parameterid>
								<name>Low Gain(dB)</name>
								<valuemin>-20</valuemin>
								<valuemax>20</valuemax>
								<value>-7</value>
							</parameter>
							<parameter>
								<parameterid>Mid Frequency</parameterid>
								<name>Mid Frequency</name>
								<valuemin>400</valuemin>
								<valuemax>8000</valuemax>
								<value>3602</value>
							</parameter>
							<parameter>
								<parameterid>Mid Gain(dB)</parameterid>
								<name>Mid Gain(dB)</name>
								<valuemin>-20</valuemin>
								<valuemax>20</valuemax>
								<value>3</value>
							</parameter>
							<parameter>
								<parameterid>High Frequency</parameterid>
								<name>High Frequency</name>
								<valuemin>5000</valuemin>
								<valuemax>20000</valuemax>
								<value>10354</value>
							</parameter>
							<parameter>
								<parameterid>High Gain(dB)</parameterid>
								<name>High Gain(dB)</name>
								<valuemin>-20</valuemin>
								<valuemax>20</valuemax>
								<value>0</value>
							</parameter>
						</effect>
					</filter>
					<filter>
						<effect>
							<name>Audio Levels</name>
							<effectid>audiolevels</effectid>
							<effectcategory>audiolevels</effectcategory>
							<effecttype>audiolevels</effecttype>
							<mediatype>audio</mediatype>
							<parameter>
								<name>Level</name>
								<parameterid>level</parameterid>
								<valuemin>0</valuemin>
								<valuemax>3.98109</valuemax>
								<value>0.891251</value>
							</parameter>
						</effect>
					</filter>
					<filter>
						<effect>
							<name>Audio Pan</name>
							<effectid>audiopan</effectid>
							<effectcategory>audiopan</effectcategory>
							<effecttype>audiopan</effecttype>
							<mediatype>audio</mediatype>
							<parameter>
								<name>Pan</name>
								<parameterid>pan</parameterid>
								<valuemin>-1</valuemin>
								<valuemax>1</valuemax>
								<value>0</value>
							</parameter>
						</effect>
					</filter>
					<sourcetrack>
						<mediatype>audio</mediatype>
						<trackindex>1</trackindex>
					</sourcetrack>
				</clipitem>
				<transitionitem id="958859640 ">
					<rate>
						<ntsc>FALSE</ntsc>
						<timebase>25</timebase>
					</rate>
					<start>36966</start>
					<end>36968</end>
					<alignment>center</alignment>
					<effect>
						<name>Cross Fade (+3dB) Copy</name>
						<effecttype>transition</effecttype>
						<mediatype>audio</mediatype>
					</effect>
				</transitionitem>
				<clipitem id="msub200012-0509d1-001 10">
					<name>msub200012-0509d1-001</name>
					<duration>9348</duration>
					<rate>
						<ntsc>FALSE</ntsc>
						<timebase>25</timebase>
					</rate>
					<in>1699</in>
					<out>2394</out>
					<start>-1</start>
					<end>37661</end>
					<subframeoffset>0</subframeoffset>
					<enabled>TRUE</enabled>
					<masterclipid>msub200012-0509d1-001 1</masterclipid>
					<logginginfo>
						<description>msub200012-0509d1-001</description>
						<scene/>
						<shottake/>
						<lognote/>
						<good>FALSE</good>
					</logginginfo>
					<labels>
						<label2/>
					</labels>
					<comments>
						<mastercomment1>BARN OG UNGDOM. BR_FINFREDAG_MSUA_OPRO</mastercomment1>
						<mastercomment2/>
						<mastercomment3/>
						<mastercomment4/>
					</comments>
					<file id="msub200012-0509d1-001 2"/>
					<filter>
						<enabled>TRUE</enabled>
						<start>-1</start>
						<end>-1</end>
						<effect>
							<name>3 Band Equalizer - Mann</name>
							<effecttype>filter</effecttype>
							<mediatype>audio</mediatype>
							<parameter>
								<parameterid>Low Frequency</parameterid>
								<name>Low Frequency</name>
								<valuemin>80</valuemin>
								<valuemax>2000</valuemax>
								<value>131</value>
							</parameter>
							<parameter>
								<parameterid>Low Gain(dB)</parameterid>
								<name>Low Gain(dB)</name>
								<valuemin>-20</valuemin>
								<valuemax>20</valuemax>
								<value>-7</value>
							</parameter>
							<parameter>
								<parameterid>Mid Frequency</parameterid>
								<name>Mid Frequency</name>
								<valuemin>400</valuemin>
								<valuemax>8000</valuemax>
								<value>3602</value>
							</parameter>
							<parameter>
								<parameterid>Mid Gain(dB)</parameterid>
								<name>Mid Gain(dB)</name>
								<valuemin>-20</valuemin>
								<valuemax>20</valuemax>
								<value>3</value>
							</parameter>
							<parameter>
								<parameterid>High Frequency</parameterid>
								<name>High Frequency</name>
								<valuemin>5000</valuemin>
								<valuemax>20000</valuemax>
								<value>10354</value>
							</parameter>
							<parameter>
								<parameterid>High Gain(dB)</parameterid>
								<name>High Gain(dB)</name>
								<valuemin>-20</valuemin>
								<valuemax>20</valuemax>
								<value>0</value>
							</parameter>
						</effect>
					</filter>
					<filter>
						<effect>
							<name>Audio Levels</name>
							<effectid>audiolevels</effectid>
							<effectcategory>audiolevels</effectcategory>
							<effecttype>audiolevels</effecttype>
							<mediatype>audio</mediatype>
							<parameter>
								<name>Level</name>
								<parameterid>level</parameterid>
								<valuemin>0</valuemin>
								<valuemax>3.98109</valuemax>
								<keyframe>
									<when>2008.71</when>
									<value>0.794328</value>
								</keyframe>
								<keyframe>
									<when>2010.64</when>
									<value>1</value>
								</keyframe>
								<keyframe>
									<when>2136.64</when>
									<value>1</value>
								</keyframe>
								<keyframe>
									<when>2139.21</when>
									<value>0.354813</value>
								</keyframe>
								<keyframe>
									<when>2151.75</when>
									<value>0.354813</value>
								</keyframe>
								<keyframe>
									<when>2154.32</when>
									<value>1</value>
								</keyframe>
								<keyframe>
									<when>2165.89</when>
									<value>1.25893</value>
								</keyframe>
								<keyframe>
									<when>2169.11</when>
									<value>0.199526</value>
								</keyframe>
								<keyframe>
									<when>2214.75</when>
									<value>0.199526</value>
								</keyframe>
								<keyframe>
									<when>2218.93</when>
									<value>1</value>
								</keyframe>
								<keyframe>
									<when>2270.36</when>
									<value>1</value>
								</keyframe>
								<keyframe>
									<when>2274.54</when>
									<value>0.251189</value>
								</keyframe>
								<keyframe>
									<when>2296.39</when>
									<value>0.251189</value>
								</keyframe>
								<keyframe>
									<when>2299.29</when>
									<value>1</value>
								</keyframe>
								<keyframe>
									<when>2359.07</when>
									<value>1</value>
								</keyframe>
								<keyframe>
									<when>2362.29</when>
									<value>0.446684</value>
								</keyframe>
								<interpolation>
									<name>FCPCurve</name>
								</interpolation>
								<value>0.446684</value>
							</parameter>
						</effect>
					</filter>
					<filter>
						<effect>
							<name>Audio Pan</name>
							<effectid>audiopan</effectid>
							<effectcategory>audiopan</effectcategory>
							<effecttype>audiopan</effecttype>
							<mediatype>audio</mediatype>
							<parameter>
								<name>Pan</name>
								<parameterid>pan</parameterid>
								<valuemin>-1</valuemin>
								<valuemax>1</valuemax>
								<value>0</value>
							</parameter>
						</effect>
					</filter>
					<sourcetrack>
						<mediatype>audio</mediatype>
						<trackindex>1</trackindex>
					</sourcetrack>
				</clipitem>
				<clipitem id="msub200012-0509d1-001 11">
					<name>msub200012-0509d1-001</name>
					<duration>9348</duration>
					<rate>
						<ntsc>FALSE</ntsc>
						<timebase>25</timebase>
					</rate>
					<in>2757</in>
					<out>3002</out>
					<start>37661</start>
					<end>-1</end>
					<subframeoffset>0</subframeoffset>
					<enabled>TRUE</enabled>
					<masterclipid>msub200012-0509d1-001 1</masterclipid>
					<logginginfo>
						<description>msub200012-0509d1-001</description>
						<scene/>
						<shottake/>
						<lognote/>
						<good>FALSE</good>
					</logginginfo>
					<labels>
						<label2/>
					</labels>
					<comments>
						<mastercomment1>BARN OG UNGDOM. BR_FINFREDAG_MSUA_OPRO</mastercomment1>
						<mastercomment2/>
						<mastercomment3/>
						<mastercomment4/>
					</comments>
					<file id="msub200012-0509d1-001 2"/>
					<filter>
						<enabled>TRUE</enabled>
						<start>-1</start>
						<end>-1</end>
						<effect>
							<name>3 Band Equalizer - Mann</name>
							<effecttype>filter</effecttype>
							<mediatype>audio</mediatype>
							<parameter>
								<parameterid>Low Frequency</parameterid>
								<name>Low Frequency</name>
								<valuemin>80</valuemin>
								<valuemax>2000</valuemax>
								<value>131</value>
							</parameter>
							<parameter>
								<parameterid>Low Gain(dB)</parameterid>
								<name>Low Gain(dB)</name>
								<valuemin>-20</valuemin>
								<valuemax>20</valuemax>
								<value>-7</value>
							</parameter>
							<parameter>
								<parameterid>Mid Frequency</parameterid>
								<name>Mid Frequency</name>
								<valuemin>400</valuemin>
								<valuemax>8000</valuemax>
								<value>3602</value>
							</parameter>
							<parameter>
								<parameterid>Mid Gain(dB)</parameterid>
								<name>Mid Gain(dB)</name>
								<valuemin>-20</valuemin>
								<valuemax>20</valuemax>
								<value>3</value>
							</parameter>
							<parameter>
								<parameterid>High Frequency</parameterid>
								<name>High Frequency</name>
								<valuemin>5000</valuemin>
								<valuemax>20000</valuemax>
								<value>10354</value>
							</parameter>
							<parameter>
								<parameterid>High Gain(dB)</parameterid>
								<name>High Gain(dB)</name>
								<valuemin>-20</valuemin>
								<valuemax>20</valuemax>
								<value>0</value>
							</parameter>
						</effect>
					</filter>
					<filter>
						<effect>
							<name>Audio Levels</name>
							<effectid>audiolevels</effectid>
							<effectcategory>audiolevels</effectcategory>
							<effecttype>audiolevels</effecttype>
							<mediatype>audio</mediatype>
							<parameter>
								<name>Level</name>
								<parameterid>level</parameterid>
								<valuemin>0</valuemin>
								<valuemax>3.98109</valuemax>
								<keyframe>
									<when>2782.5</when>
									<value>0.501187</value>
								</keyframe>
								<keyframe>
									<when>2785.07</when>
									<value>0.630957</value>
								</keyframe>
								<keyframe>
									<when>2788.93</when>
									<value>0.797297</value>
								</keyframe>
								<keyframe>
									<when>2829.27</when>
									<value>0.713837</value>
								</keyframe>
								<keyframe>
									<when>2830.88</when>
									<value>0.354813</value>
								</keyframe>
								<keyframe>
									<when>2879.57</when>
									<value>0.354813</value>
								</keyframe>
								<keyframe>
									<when>2881.66</when>
									<value>0.707946</value>
								</keyframe>
								<keyframe>
									<when>2974.71</when>
									<value>0.707946</value>
								</keyframe>
								<keyframe>
									<when>2976.64</when>
									<value>0.398107</value>
								</keyframe>
								<interpolation>
									<name>FCPCurve</name>
								</interpolation>
								<value>0.707946</value>
							</parameter>
						</effect>
					</filter>
					<filter>
						<effect>
							<name>Audio Pan</name>
							<effectid>audiopan</effectid>
							<effectcategory>audiopan</effectcategory>
							<effecttype>audiopan</effecttype>
							<mediatype>audio</mediatype>
							<parameter>
								<name>Pan</name>
								<parameterid>pan</parameterid>
								<valuemin>-1</valuemin>
								<valuemax>1</valuemax>
								<value>0</value>
							</parameter>
						</effect>
					</filter>
					<sourcetrack>
						<mediatype>audio</mediatype>
						<trackindex>1</trackindex>
					</sourcetrack>
				</clipitem>
				<transitionitem id="958852432 ">
					<rate>
						<ntsc>FALSE</ntsc>
						<timebase>25</timebase>
					</rate>
					<start>37902</start>
					<end>37906</end>
					<alignment>center</alignment>
					<effect>
						<name>Cross Fade (+3dB) Copy</name>
						<effecttype>transition</effecttype>
						<mediatype>audio</mediatype>
					</effect>
				</transitionitem>
				<clipitem id="msub200012-0509d1-001 12">
					<name>msub200012-0509d1-001</name>
					<duration>9348</duration>
					<rate>
						<ntsc>FALSE</ntsc>
						<timebase>25</timebase>
					</rate>
					<in>3071</in>
					<out>3204</out>
					<start>-1</start>
					<end>-1</end>
					<subframeoffset>0</subframeoffset>
					<masterclipid>msub200012-0509d1-001 1</masterclipid>
					<logginginfo>
						<description>msub200012-0509d1-001</description>
						<scene/>
						<shottake/>
						<lognote/>
						<good>FALSE</good>
					</logginginfo>
					<labels>
						<label2/>
					</labels>
					<comments>
						<mastercomment1>BARN OG UNGDOM. BR_FINFREDAG_MSUA_OPRO</mastercomment1>
						<mastercomment2/>
						<mastercomment3/>
						<mastercomment4/>
					</comments>
					<file id="msub200012-0509d1-001 2"/>
					<filter>
						<start>-1</start>
						<end>-1</end>
						<effect>
							<name>3 Band Equalizer - Mann</name>
							<effecttype>filter</effecttype>
							<mediatype>audio</mediatype>
							<parameter>
								<parameterid>Low Frequency</parameterid>
								<name>Low Frequency</name>
								<valuemin>80</valuemin>
								<valuemax>2000</valuemax>
								<value>131</value>
							</parameter>
							<parameter>
								<parameterid>Low Gain(dB)</parameterid>
								<name>Low Gain(dB)</name>
								<valuemin>-20</valuemin>
								<valuemax>20</valuemax>
								<value>-7</value>
							</parameter>
							<parameter>
								<parameterid>Mid Frequency</parameterid>
								<name>Mid Frequency</name>
								<valuemin>400</valuemin>
								<valuemax>8000</valuemax>
								<value>3602</value>
							</parameter>
							<parameter>
								<parameterid>Mid Gain(dB)</parameterid>
								<name>Mid Gain(dB)</name>
								<valuemin>-20</valuemin>
								<valuemax>20</valuemax>
								<value>3</value>
							</parameter>
							<parameter>
								<parameterid>High Frequency</parameterid>
								<name>High Frequency</name>
								<valuemin>5000</valuemin>
								<valuemax>20000</valuemax>
								<value>10354</value>
							</parameter>
							<parameter>
								<parameterid>High Gain(dB)</parameterid>
								<name>High Gain(dB)</name>
								<valuemin>-20</valuemin>
								<valuemax>20</valuemax>
								<value>0</value>
							</parameter>
						</effect>
					</filter>
					<filter>
						<effect>
							<name>Audio Levels</name>
							<effectid>audiolevels</effectid>
							<effectcategory>audiolevels</effectcategory>
							<effecttype>audiolevels</effecttype>
							<mediatype>audio</mediatype>
							<parameter>
								<name>Level</name>
								<parameterid>level</parameterid>
								<valuemin>0</valuemin>
								<valuemax>3.98109</valuemax>
								<value>0.794328</value>
							</parameter>
						</effect>
					</filter>
					<filter>
						<effect>
							<name>Audio Pan</name>
							<effectid>audiopan</effectid>
							<effectcategory>audiopan</effectcategory>
							<effecttype>audiopan</effecttype>
							<mediatype>audio</mediatype>
							<parameter>
								<name>Pan</name>
								<parameterid>pan</parameterid>
								<valuemin>-1</valuemin>
								<valuemax>1</valuemax>
								<value>0</value>
							</parameter>
						</effect>
					</filter>
					<sourcetrack>
						<mediatype>audio</mediatype>
						<trackindex>1</trackindex>
					</sourcetrack>
				</clipitem>
				<transitionitem id="958850664 ">
					<rate>
						<ntsc>FALSE</ntsc>
						<timebase>25</timebase>
					</rate>
					<start>38031</start>
					<end>38035</end>
					<alignment>center</alignment>
					<effect>
						<name>Cross Fade (+3dB) Copy</name>
						<effecttype>transition</effecttype>
						<mediatype>audio</mediatype>
					</effect>
				</transitionitem>
				<clipitem id="msub200012-0509d1-001 13">
					<name>msub200012-0509d1-001</name>
					<duration>9348</duration>
					<rate>
						<ntsc>FALSE</ntsc>
						<timebase>25</timebase>
					</rate>
					<in>3433</in>
					<out>3609</out>
					<start>-1</start>
					<end>-1</end>
					<subframeoffset>0</subframeoffset>
					<masterclipid>msub200012-0509d1-001 1</masterclipid>
					<logginginfo>
						<description>msub200012-0509d1-001</description>
						<scene/>
						<shottake/>
						<lognote/>
						<good>FALSE</good>
					</logginginfo>
					<labels>
						<label2/>
					</labels>
					<comments>
						<mastercomment1>BARN OG UNGDOM. BR_FINFREDAG_MSUA_OPRO</mastercomment1>
						<mastercomment2/>
						<mastercomment3/>
						<mastercomment4/>
					</comments>
					<file id="msub200012-0509d1-001 2"/>
					<filter>
						<start>-1</start>
						<end>-1</end>
						<effect>
							<name>3 Band Equalizer - Mann</name>
							<effecttype>filter</effecttype>
							<mediatype>audio</mediatype>
							<parameter>
								<parameterid>Low Frequency</parameterid>
								<name>Low Frequency</name>
								<valuemin>80</valuemin>
								<valuemax>2000</valuemax>
								<value>131</value>
							</parameter>
							<parameter>
								<parameterid>Low Gain(dB)</parameterid>
								<name>Low Gain(dB)</name>
								<valuemin>-20</valuemin>
								<valuemax>20</valuemax>
								<value>-7</value>
							</parameter>
							<parameter>
								<parameterid>Mid Frequency</parameterid>
								<name>Mid Frequency</name>
								<valuemin>400</valuemin>
								<valuemax>8000</valuemax>
								<value>3602</value>
							</parameter>
							<parameter>
								<parameterid>Mid Gain(dB)</parameterid>
								<name>Mid Gain(dB)</name>
								<valuemin>-20</valuemin>
								<valuemax>20</valuemax>
								<value>3</value>
							</parameter>
							<parameter>
								<parameterid>High Frequency</parameterid>
								<name>High Frequency</name>
								<valuemin>5000</valuemin>
								<valuemax>20000</valuemax>
								<value>10354</value>
							</parameter>
							<parameter>
								<parameterid>High Gain(dB)</parameterid>
								<name>High Gain(dB)</name>
								<valuemin>-20</valuemin>
								<valuemax>20</valuemax>
								<value>0</value>
							</parameter>
						</effect>
					</filter>
					<filter>
						<effect>
							<name>Audio Levels</name>
							<effectid>audiolevels</effectid>
							<effectcategory>audiolevels</effectcategory>
							<effecttype>audiolevels</effecttype>
							<mediatype>audio</mediatype>
							<parameter>
								<name>Level</name>
								<parameterid>level</parameterid>
								<valuemin>0</valuemin>
								<valuemax>3.98109</valuemax>
								<keyframe>
									<when>3510.86</when>
									<value>1</value>
								</keyframe>
								<keyframe>
									<when>3516.96</when>
									<value>0.501187</value>
								</keyframe>
								<keyframe>
									<when>3534</when>
									<value>0.501187</value>
								</keyframe>
								<keyframe>
									<when>3542.36</when>
									<value>1</value>
								</keyframe>
								<interpolation>
									<name>FCPCurve</name>
								</interpolation>
								<value>1</value>
							</parameter>
						</effect>
					</filter>
					<filter>
						<effect>
							<name>Audio Pan</name>
							<effectid>audiopan</effectid>
							<effectcategory>audiopan</effectcategory>
							<effecttype>audiopan</effecttype>
							<mediatype>audio</mediatype>
							<parameter>
								<name>Pan</name>
								<parameterid>pan</parameterid>
								<valuemin>-1</valuemin>
								<valuemax>1</valuemax>
								<value>0</value>
							</parameter>
						</effect>
					</filter>
					<sourcetrack>
						<mediatype>audio</mediatype>
						<trackindex>1</trackindex>
					</sourcetrack>
				</clipitem>
				<transitionitem id="958847196 ">
					<rate>
						<ntsc>FALSE</ntsc>
						<timebase>25</timebase>
					</rate>
					<start>38195</start>
					<end>38207</end>
					<alignment>center</alignment>
					<effect>
						<name>Cross Fade (+3dB) Copy</name>
						<effecttype>transition</effecttype>
						<mediatype>audio</mediatype>
					</effect>
				</transitionitem>
				<clipitem id="msub200012-0509d1-001 14">
					<name>msub200012-0509d1-001</name>
					<duration>9348</duration>
					<rate>
						<ntsc>FALSE</ntsc>
						<timebase>25</timebase>
					</rate>
					<in>3656</in>
					<out>4002</out>
					<start>-1</start>
					<end>-1</end>
					<subframeoffset>0</subframeoffset>
					<masterclipid>msub200012-0509d1-001 1</masterclipid>
					<logginginfo>
						<description>msub200012-0509d1-001</description>
						<scene/>
						<shottake/>
						<lognote/>
						<good>FALSE</good>
					</logginginfo>
					<labels>
						<label2/>
					</labels>
					<comments>
						<mastercomment1>BARN OG UNGDOM. BR_FINFREDAG_MSUA_OPRO</mastercomment1>
						<mastercomment2/>
						<mastercomment3/>
						<mastercomment4/>
					</comments>
					<file id="msub200012-0509d1-001 2"/>
					<filter>
						<start>-1</start>
						<end>-1</end>
						<effect>
							<name>3 Band Equalizer - Mann</name>
							<effecttype>filter</effecttype>
							<mediatype>audio</mediatype>
							<parameter>
								<parameterid>Low Frequency</parameterid>
								<name>Low Frequency</name>
								<valuemin>80</valuemin>
								<valuemax>2000</valuemax>
								<value>131</value>
							</parameter>
							<parameter>
								<parameterid>Low Gain(dB)</parameterid>
								<name>Low Gain(dB)</name>
								<valuemin>-20</valuemin>
								<valuemax>20</valuemax>
								<value>-7</value>
							</parameter>
							<parameter>
								<parameterid>Mid Frequency</parameterid>
								<name>Mid Frequency</name>
								<valuemin>400</valuemin>
								<valuemax>8000</valuemax>
								<value>3602</value>
							</parameter>
							<parameter>
								<parameterid>Mid Gain(dB)</parameterid>
								<name>Mid Gain(dB)</name>
								<valuemin>-20</valuemin>
								<valuemax>20</valuemax>
								<value>3</value>
							</parameter>
							<parameter>
								<parameterid>High Frequency</parameterid>
								<name>High Frequency</name>
								<valuemin>5000</valuemin>
								<valuemax>20000</valuemax>
								<value>10354</value>
							</parameter>
							<parameter>
								<parameterid>High Gain(dB)</parameterid>
								<name>High Gain(dB)</name>
								<valuemin>-20</valuemin>
								<valuemax>20</valuemax>
								<value>0</value>
							</parameter>
						</effect>
					</filter>
					<filter>
						<effect>
							<name>Audio Levels</name>
							<effectid>audiolevels</effectid>
							<effectcategory>audiolevels</effectcategory>
							<effecttype>audiolevels</effecttype>
							<mediatype>audio</mediatype>
							<parameter>
								<name>Level</name>
								<parameterid>level</parameterid>
								<valuemin>0</valuemin>
								<valuemax>3.98109</valuemax>
								<keyframe>
									<when>3783.12</when>
									<value>0.398107</value>
								</keyframe>
								<keyframe>
									<when>3792.93</when>
									<value>1</value>
								</keyframe>
								<keyframe>
									<when>3813.82</when>
									<value>1</value>
								</keyframe>
								<keyframe>
									<when>3818.64</when>
									<value>0.354813</value>
								</keyframe>
								<keyframe>
									<when>3835.36</when>
									<value>0.354813</value>
								</keyframe>
								<keyframe>
									<when>3838.73</when>
									<value>0.794328</value>
								</keyframe>
								<keyframe>
									<when>3970.36</when>
									<value>0.794328</value>
								</keyframe>
								<keyframe>
									<when>3974.54</when>
									<value>0.281838</value>
								</keyframe>
								<interpolation>
									<name>FCPCurve</name>
								</interpolation>
								<value>1</value>
							</parameter>
						</effect>
					</filter>
					<filter>
						<effect>
							<name>Audio Pan</name>
							<effectid>audiopan</effectid>
							<effectcategory>audiopan</effectcategory>
							<effecttype>audiopan</effecttype>
							<mediatype>audio</mediatype>
							<parameter>
								<name>Pan</name>
								<parameterid>pan</parameterid>
								<valuemin>-1</valuemin>
								<valuemax>1</valuemax>
								<value>0</value>
							</parameter>
						</effect>
					</filter>
					<sourcetrack>
						<mediatype>audio</mediatype>
						<trackindex>1</trackindex>
					</sourcetrack>
				</clipitem>
				<transitionitem id="958879632 ">
					<rate>
						<ntsc>FALSE</ntsc>
						<timebase>25</timebase>
					</rate>
					<start>38539</start>
					<end>38541</end>
					<alignment>center</alignment>
					<effect>
						<name>Cross Fade (+3dB) Copy</name>
						<effecttype>transition</effecttype>
						<mediatype>audio</mediatype>
					</effect>
				</transitionitem>
				<clipitem id="msub200012-0509d1-001 15">
					<name>msub200012-0509d1-001</name>
					<duration>9348</duration>
					<rate>
						<ntsc>FALSE</ntsc>
						<timebase>25</timebase>
					</rate>
					<in>4177</in>
					<out>4336</out>
					<start>-1</start>
					<end>-1</end>
					<subframeoffset>0</subframeoffset>
					<masterclipid>msub200012-0509d1-001 1</masterclipid>
					<logginginfo>
						<description>msub200012-0509d1-001</description>
						<scene/>
						<shottake/>
						<lognote/>
						<good>FALSE</good>
					</logginginfo>
					<labels>
						<label2/>
					</labels>
					<comments>
						<mastercomment1>BARN OG UNGDOM. BR_FINFREDAG_MSUA_OPRO</mastercomment1>
						<mastercomment2/>
						<mastercomment3/>
						<mastercomment4/>
					</comments>
					<file id="msub200012-0509d1-001 2"/>
					<filter>
						<start>-1</start>
						<end>-1</end>
						<effect>
							<name>3 Band Equalizer - Mann</name>
							<effecttype>filter</effecttype>
							<mediatype>audio</mediatype>
							<parameter>
								<parameterid>Low Frequency</parameterid>
								<name>Low Frequency</name>
								<valuemin>80</valuemin>
								<valuemax>2000</valuemax>
								<value>131</value>
							</parameter>
							<parameter>
								<parameterid>Low Gain(dB)</parameterid>
								<name>Low Gain(dB)</name>
								<valuemin>-20</valuemin>
								<valuemax>20</valuemax>
								<value>-7</value>
							</parameter>
							<parameter>
								<parameterid>Mid Frequency</parameterid>
								<name>Mid Frequency</name>
								<valuemin>400</valuemin>
								<valuemax>8000</valuemax>
								<value>3602</value>
							</parameter>
							<parameter>
								<parameterid>Mid Gain(dB)</parameterid>
								<name>Mid Gain(dB)</name>
								<valuemin>-20</valuemin>
								<valuemax>20</valuemax>
								<value>3</value>
							</parameter>
							<parameter>
								<parameterid>High Frequency</parameterid>
								<name>High Frequency</name>
								<valuemin>5000</valuemin>
								<valuemax>20000</valuemax>
								<value>10354</value>
							</parameter>
							<parameter>
								<parameterid>High Gain(dB)</parameterid>
								<name>High Gain(dB)</name>
								<valuemin>-20</valuemin>
								<valuemax>20</valuemax>
								<value>0</value>
							</parameter>
						</effect>
					</filter>
					<filter>
						<effect>
							<name>Audio Levels</name>
							<effectid>audiolevels</effectid>
							<effectcategory>audiolevels</effectcategory>
							<effecttype>audiolevels</effecttype>
							<mediatype>audio</mediatype>
							<parameter>
								<name>Level</name>
								<parameterid>level</parameterid>
								<valuemin>0</valuemin>
								<valuemax>3.98109</valuemax>
								<keyframe>
									<when>4278.5</when>
									<value>1</value>
								</keyframe>
								<keyframe>
									<when>4283.48</when>
									<value>0.251189</value>
								</keyframe>
								<keyframe>
									<when>4306.46</when>
									<value>0.251189</value>
								</keyframe>
								<keyframe>
									<when>4309.04</when>
									<value>1</value>
								</keyframe>
								<interpolation>
									<name>FCPCurve</name>
								</interpolation>
								<value>1</value>
							</parameter>
						</effect>
					</filter>
					<filter>
						<effect>
							<name>Audio Pan</name>
							<effectid>audiopan</effectid>
							<effectcategory>audiopan</effectcategory>
							<effecttype>audiopan</effecttype>
							<mediatype>audio</mediatype>
							<parameter>
								<name>Pan</name>
								<parameterid>pan</parameterid>
								<valuemin>-1</valuemin>
								<valuemax>1</valuemax>
								<value>0</value>
							</parameter>
						</effect>
					</filter>
					<sourcetrack>
						<mediatype>audio</mediatype>
						<trackindex>1</trackindex>
					</sourcetrack>
				</clipitem>
				<transitionitem id="958875756 ">
					<rate>
						<ntsc>FALSE</ntsc>
						<timebase>25</timebase>
					</rate>
					<start>38696</start>
					<end>38698</end>
					<alignment>center</alignment>
					<effect>
						<name>Cross Fade (+3dB) Copy</name>
						<effecttype>transition</effecttype>
						<mediatype>audio</mediatype>
					</effect>
				</transitionitem>
				<clipitem id="msub200012-0509d1-001 16">
					<name>msub200012-0509d1-001</name>
					<duration>9348</duration>
					<rate>
						<ntsc>FALSE</ntsc>
						<timebase>25</timebase>
					</rate>
					<in>4657</in>
					<out>4735</out>
					<start>-1</start>
					<end>-1</end>
					<subframeoffset>0</subframeoffset>
					<masterclipid>msub200012-0509d1-001 1</masterclipid>
					<logginginfo>
						<description>msub200012-0509d1-001</description>
						<scene/>
						<shottake/>
						<lognote/>
						<good>FALSE</good>
					</logginginfo>
					<labels>
						<label2/>
					</labels>
					<comments>
						<mastercomment1>BARN OG UNGDOM. BR_FINFREDAG_MSUA_OPRO</mastercomment1>
						<mastercomment2/>
						<mastercomment3/>
						<mastercomment4/>
					</comments>
					<file id="msub200012-0509d1-001 2"/>
					<filter>
						<start>-1</start>
						<end>-1</end>
						<effect>
							<name>3 Band Equalizer - Mann</name>
							<effecttype>filter</effecttype>
							<mediatype>audio</mediatype>
							<parameter>
								<parameterid>Low Frequency</parameterid>
								<name>Low Frequency</name>
								<valuemin>80</valuemin>
								<valuemax>2000</valuemax>
								<value>131</value>
							</parameter>
							<parameter>
								<parameterid>Low Gain(dB)</parameterid>
								<name>Low Gain(dB)</name>
								<valuemin>-20</valuemin>
								<valuemax>20</valuemax>
								<value>-7</value>
							</parameter>
							<parameter>
								<parameterid>Mid Frequency</parameterid>
								<name>Mid Frequency</name>
								<valuemin>400</valuemin>
								<valuemax>8000</valuemax>
								<value>3602</value>
							</parameter>
							<parameter>
								<parameterid>Mid Gain(dB)</parameterid>
								<name>Mid Gain(dB)</name>
								<valuemin>-20</valuemin>
								<valuemax>20</valuemax>
								<value>3</value>
							</parameter>
							<parameter>
								<parameterid>High Frequency</parameterid>
								<name>High Frequency</name>
								<valuemin>5000</valuemin>
								<valuemax>20000</valuemax>
								<value>10354</value>
							</parameter>
							<parameter>
								<parameterid>High Gain(dB)</parameterid>
								<name>High Gain(dB)</name>
								<valuemin>-20</valuemin>
								<valuemax>20</valuemax>
								<value>0</value>
							</parameter>
						</effect>
					</filter>
					<filter>
						<effect>
							<name>Audio Levels</name>
							<effectid>audiolevels</effectid>
							<effectcategory>audiolevels</effectcategory>
							<effecttype>audiolevels</effecttype>
							<mediatype>audio</mediatype>
							<parameter>
								<name>Level</name>
								<parameterid>level</parameterid>
								<valuemin>0</valuemin>
								<valuemax>3.98109</valuemax>
								<value>1.41254</value>
							</parameter>
						</effect>
					</filter>
					<filter>
						<effect>
							<name>Audio Pan</name>
							<effectid>audiopan</effectid>
							<effectcategory>audiopan</effectcategory>
							<effecttype>audiopan</effecttype>
							<mediatype>audio</mediatype>
							<parameter>
								<name>Pan</name>
								<parameterid>pan</parameterid>
								<valuemin>-1</valuemin>
								<valuemax>1</valuemax>
								<value>0</value>
							</parameter>
						</effect>
					</filter>
					<sourcetrack>
						<mediatype>audio</mediatype>
						<trackindex>1</trackindex>
					</sourcetrack>
				</clipitem>
				<transitionitem id="958877252 ">
					<rate>
						<ntsc>FALSE</ntsc>
						<timebase>25</timebase>
					</rate>
					<start>38772</start>
					<end>38774</end>
					<alignment>center</alignment>
					<effect>
						<name>Cross Fade (+3dB) Copy</name>
						<effecttype>transition</effecttype>
						<mediatype>audio</mediatype>
					</effect>
				</transitionitem>
				<clipitem id="msub200012-0509d1-001 17">
					<name>msub200012-0509d1-001</name>
					<duration>9348</duration>
					<rate>
						<ntsc>FALSE</ntsc>
						<timebase>25</timebase>
					</rate>
					<in>4772</in>
					<out>4879</out>
					<start>-1</start>
					<end>38879</end>
					<subframeoffset>0</subframeoffset>
					<enabled>TRUE</enabled>
					<masterclipid>msub200012-0509d1-001 1</masterclipid>
					<logginginfo>
						<description>msub200012-0509d1-001</description>
						<scene/>
						<shottake/>
						<lognote/>
						<good>FALSE</good>
					</logginginfo>
					<labels>
						<label2/>
					</labels>
					<comments>
						<mastercomment1>BARN OG UNGDOM. BR_FINFREDAG_MSUA_OPRO</mastercomment1>
						<mastercomment2/>
						<mastercomment3/>
						<mastercomment4/>
					</comments>
					<file id="msub200012-0509d1-001 2"/>
					<filter>
						<enabled>TRUE</enabled>
						<start>-1</start>
						<end>-1</end>
						<effect>
							<name>3 Band Equalizer - Mann</name>
							<effecttype>filter</effecttype>
							<mediatype>audio</mediatype>
							<parameter>
								<parameterid>Low Frequency</parameterid>
								<name>Low Frequency</name>
								<valuemin>80</valuemin>
								<valuemax>2000</valuemax>
								<value>131</value>
							</parameter>
							<parameter>
								<parameterid>Low Gain(dB)</parameterid>
								<name>Low Gain(dB)</name>
								<valuemin>-20</valuemin>
								<valuemax>20</valuemax>
								<value>-7</value>
							</parameter>
							<parameter>
								<parameterid>Mid Frequency</parameterid>
								<name>Mid Frequency</name>
								<valuemin>400</valuemin>
								<valuemax>8000</valuemax>
								<value>3602</value>
							</parameter>
							<parameter>
								<parameterid>Mid Gain(dB)</parameterid>
								<name>Mid Gain(dB)</name>
								<valuemin>-20</valuemin>
								<valuemax>20</valuemax>
								<value>3</value>
							</parameter>
							<parameter>
								<parameterid>High Frequency</parameterid>
								<name>High Frequency</name>
								<valuemin>5000</valuemin>
								<valuemax>20000</valuemax>
								<value>10354</value>
							</parameter>
							<parameter>
								<parameterid>High Gain(dB)</parameterid>
								<name>High Gain(dB)</name>
								<valuemin>-20</valuemin>
								<valuemax>20</valuemax>
								<value>0</value>
							</parameter>
						</effect>
					</filter>
					<filter>
						<effect>
							<name>Audio Levels</name>
							<effectid>audiolevels</effectid>
							<effectcategory>audiolevels</effectcategory>
							<effecttype>audiolevels</effecttype>
							<mediatype>audio</mediatype>
							<parameter>
								<name>Level</name>
								<parameterid>level</parameterid>
								<valuemin>0</valuemin>
								<valuemax>3.98109</valuemax>
								<keyframe>
									<when>4833.52</when>
									<value>1.25893</value>
								</keyframe>
								<keyframe>
									<when>4838.5</when>
									<value>0.794328</value>
								</keyframe>
								<keyframe>
									<when>4847.66</when>
									<value>0.794328</value>
								</keyframe>
								<keyframe>
									<when>4850.23</when>
									<value>1.41254</value>
								</keyframe>
								<keyframe>
									<when>4989.25</when>
									<value>1.41254</value>
								</keyframe>
								<keyframe>
									<when>4994.39</when>
									<value>0.794328</value>
								</keyframe>
								<keyframe>
									<when>5031.04</when>
									<value>0.794328</value>
								</keyframe>
								<keyframe>
									<when>5035.86</when>
									<value>1.41254</value>
								</keyframe>
								<interpolation>
									<name>FCPCurve</name>
								</interpolation>
								<value>1.41254</value>
							</parameter>
						</effect>
					</filter>
					<filter>
						<effect>
							<name>Audio Pan</name>
							<effectid>audiopan</effectid>
							<effectcategory>audiopan</effectcategory>
							<effecttype>audiopan</effecttype>
							<mediatype>audio</mediatype>
							<parameter>
								<name>Pan</name>
								<parameterid>pan</parameterid>
								<valuemin>-1</valuemin>
								<valuemax>1</valuemax>
								<value>0</value>
							</parameter>
						</effect>
					</filter>
					<sourcetrack>
						<mediatype>audio</mediatype>
						<trackindex>1</trackindex>
					</sourcetrack>
				</clipitem>
				<clipitem id="msub200012-0509d1-001 18">
					<name>msub200012-0509d1-001</name>
					<duration>9348</duration>
					<rate>
						<ntsc>FALSE</ntsc>
						<timebase>25</timebase>
					</rate>
					<in>4879</in>
					<out>4986</out>
					<start>38879</start>
					<end>38986</end>
					<subframeoffset>0</subframeoffset>
					<enabled>TRUE</enabled>
					<masterclipid>msub200012-0509d1-001 1</masterclipid>
					<logginginfo>
						<description>msub200012-0509d1-001</description>
						<scene/>
						<shottake/>
						<lognote/>
						<good>FALSE</good>
					</logginginfo>
					<labels>
						<label2/>
					</labels>
					<comments>
						<mastercomment1>BARN OG UNGDOM. BR_FINFREDAG_MSUA_OPRO</mastercomment1>
						<mastercomment2/>
						<mastercomment3/>
						<mastercomment4/>
					</comments>
					<file id="msub200012-0509d1-001 2"/>
					<filter>
						<enabled>TRUE</enabled>
						<start>-1</start>
						<end>-1</end>
						<effect>
							<name>3 Band Equalizer - Mann</name>
							<effecttype>filter</effecttype>
							<mediatype>audio</mediatype>
							<parameter>
								<parameterid>Low Frequency</parameterid>
								<name>Low Frequency</name>
								<valuemin>80</valuemin>
								<valuemax>2000</valuemax>
								<value>131</value>
							</parameter>
							<parameter>
								<parameterid>Low Gain(dB)</parameterid>
								<name>Low Gain(dB)</name>
								<valuemin>-20</valuemin>
								<valuemax>20</valuemax>
								<value>-7</value>
							</parameter>
							<parameter>
								<parameterid>Mid Frequency</parameterid>
								<name>Mid Frequency</name>
								<valuemin>400</valuemin>
								<valuemax>8000</valuemax>
								<value>3602</value>
							</parameter>
							<parameter>
								<parameterid>Mid Gain(dB)</parameterid>
								<name>Mid Gain(dB)</name>
								<valuemin>-20</valuemin>
								<valuemax>20</valuemax>
								<value>3</value>
							</parameter>
							<parameter>
								<parameterid>High Frequency</parameterid>
								<name>High Frequency</name>
								<valuemin>5000</valuemin>
								<valuemax>20000</valuemax>
								<value>10354</value>
							</parameter>
							<parameter>
								<parameterid>High Gain(dB)</parameterid>
								<name>High Gain(dB)</name>
								<valuemin>-20</valuemin>
								<valuemax>20</valuemax>
								<value>0</value>
							</parameter>
						</effect>
					</filter>
					<filter>
						<effect>
							<name>Audio Levels</name>
							<effectid>audiolevels</effectid>
							<effectcategory>audiolevels</effectcategory>
							<effecttype>audiolevels</effecttype>
							<mediatype>audio</mediatype>
							<parameter>
								<name>Level</name>
								<parameterid>level</parameterid>
								<valuemin>0</valuemin>
								<valuemax>3.98109</valuemax>
								<keyframe>
									<when>4833.52</when>
									<value>1.25893</value>
								</keyframe>
								<keyframe>
									<when>4838.5</when>
									<value>0.794328</value>
								</keyframe>
								<keyframe>
									<when>4847.66</when>
									<value>0.794328</value>
								</keyframe>
								<keyframe>
									<when>4850.23</when>
									<value>1.41254</value>
								</keyframe>
								<keyframe>
									<when>4989.25</when>
									<value>1.41254</value>
								</keyframe>
								<keyframe>
									<when>4994.39</when>
									<value>0.794328</value>
								</keyframe>
								<keyframe>
									<when>5031.04</when>
									<value>0.794328</value>
								</keyframe>
								<keyframe>
									<when>5035.86</when>
									<value>1.41254</value>
								</keyframe>
								<interpolation>
									<name>FCPCurve</name>
								</interpolation>
								<value>1.41254</value>
							</parameter>
						</effect>
					</filter>
					<filter>
						<effect>
							<name>Audio Pan</name>
							<effectid>audiopan</effectid>
							<effectcategory>audiopan</effectcategory>
							<effecttype>audiopan</effecttype>
							<mediatype>audio</mediatype>
							<parameter>
								<name>Pan</name>
								<parameterid>pan</parameterid>
								<valuemin>-1</valuemin>
								<valuemax>1</valuemax>
								<value>0</value>
							</parameter>
						</effect>
					</filter>
					<sourcetrack>
						<mediatype>audio</mediatype>
						<trackindex>1</trackindex>
					</sourcetrack>
				</clipitem>
				<clipitem id="msub200012-0509d1-001 19">
					<name>msub200012-0509d1-001</name>
					<duration>9348</duration>
					<rate>
						<ntsc>FALSE</ntsc>
						<timebase>25</timebase>
					</rate>
					<in>4986</in>
					<out>5058</out>
					<start>38986</start>
					<end>-1</end>
					<subframeoffset>0</subframeoffset>
					<enabled>TRUE</enabled>
					<masterclipid>msub200012-0509d1-001 1</masterclipid>
					<logginginfo>
						<description>msub200012-0509d1-001</description>
						<scene/>
						<shottake/>
						<lognote/>
						<good>FALSE</good>
					</logginginfo>
					<labels>
						<label2/>
					</labels>
					<comments>
						<mastercomment1>BARN OG UNGDOM. BR_FINFREDAG_MSUA_OPRO</mastercomment1>
						<mastercomment2/>
						<mastercomment3/>
						<mastercomment4/>
					</comments>
					<file id="msub200012-0509d1-001 2"/>
					<filter>
						<enabled>TRUE</enabled>
						<start>-1</start>
						<end>-1</end>
						<effect>
							<name>3 Band Equalizer - Mann</name>
							<effecttype>filter</effecttype>
							<mediatype>audio</mediatype>
							<parameter>
								<parameterid>Low Frequency</parameterid>
								<name>Low Frequency</name>
								<valuemin>80</valuemin>
								<valuemax>2000</valuemax>
								<value>131</value>
							</parameter>
							<parameter>
								<parameterid>Low Gain(dB)</parameterid>
								<name>Low Gain(dB)</name>
								<valuemin>-20</valuemin>
								<valuemax>20</valuemax>
								<value>-7</value>
							</parameter>
							<parameter>
								<parameterid>Mid Frequency</parameterid>
								<name>Mid Frequency</name>
								<valuemin>400</valuemin>
								<valuemax>8000</valuemax>
								<value>3602</value>
							</parameter>
							<parameter>
								<parameterid>Mid Gain(dB)</parameterid>
								<name>Mid Gain(dB)</name>
								<valuemin>-20</valuemin>
								<valuemax>20</valuemax>
								<value>3</value>
							</parameter>
							<parameter>
								<parameterid>High Frequency</parameterid>
								<name>High Frequency</name>
								<valuemin>5000</valuemin>
								<valuemax>20000</valuemax>
								<value>10354</value>
							</parameter>
							<parameter>
								<parameterid>High Gain(dB)</parameterid>
								<name>High Gain(dB)</name>
								<valuemin>-20</valuemin>
								<valuemax>20</valuemax>
								<value>0</value>
							</parameter>
						</effect>
					</filter>
					<filter>
						<effect>
							<name>Audio Levels</name>
							<effectid>audiolevels</effectid>
							<effectcategory>audiolevels</effectcategory>
							<effecttype>audiolevels</effecttype>
							<mediatype>audio</mediatype>
							<parameter>
								<name>Level</name>
								<parameterid>level</parameterid>
								<valuemin>0</valuemin>
								<valuemax>3.98109</valuemax>
								<keyframe>
									<when>4833.52</when>
									<value>1.25893</value>
								</keyframe>
								<keyframe>
									<when>4838.5</when>
									<value>0.794328</value>
								</keyframe>
								<keyframe>
									<when>4847.66</when>
									<value>0.794328</value>
								</keyframe>
								<keyframe>
									<when>4850.23</when>
									<value>1.41254</value>
								</keyframe>
								<keyframe>
									<when>4989.25</when>
									<value>1.41254</value>
								</keyframe>
								<keyframe>
									<when>4994.39</when>
									<value>0.794328</value>
								</keyframe>
								<keyframe>
									<when>5031.04</when>
									<value>0.794328</value>
								</keyframe>
								<keyframe>
									<when>5035.86</when>
									<value>1.41254</value>
								</keyframe>
								<interpolation>
									<name>FCPCurve</name>
								</interpolation>
								<value>1.41254</value>
							</parameter>
						</effect>
					</filter>
					<filter>
						<effect>
							<name>Audio Pan</name>
							<effectid>audiopan</effectid>
							<effectcategory>audiopan</effectcategory>
							<effecttype>audiopan</effecttype>
							<mediatype>audio</mediatype>
							<parameter>
								<name>Pan</name>
								<parameterid>pan</parameterid>
								<valuemin>-1</valuemin>
								<valuemax>1</valuemax>
								<value>0</value>
							</parameter>
						</effect>
					</filter>
					<sourcetrack>
						<mediatype>audio</mediatype>
						<trackindex>1</trackindex>
					</sourcetrack>
				</clipitem>
				<transitionitem id="959457176 ">
					<rate>
						<ntsc>FALSE</ntsc>
						<timebase>25</timebase>
					</rate>
					<start>39056</start>
					<end>39058</end>
					<alignment>center</alignment>
					<effect>
						<name>Cross Fade (+3dB) Copy</name>
						<effecttype>transition</effecttype>
						<mediatype>audio</mediatype>
					</effect>
				</transitionitem>
				<clipitem id="msub200012-0509d1-001 20">
					<name>msub200012-0509d1-001</name>
					<duration>9348</duration>
					<rate>
						<ntsc>FALSE</ntsc>
						<timebase>25</timebase>
					</rate>
					<in>5087</in>
					<out>5198</out>
					<start>-1</start>
					<end>39167</end>
					<subframeoffset>0</subframeoffset>
					<masterclipid>msub200012-0509d1-001 1</masterclipid>
					<logginginfo>
						<description>msub200012-0509d1-001</description>
						<scene/>
						<shottake/>
						<lognote/>
						<good>FALSE</good>
					</logginginfo>
					<labels>
						<label2/>
					</labels>
					<comments>
						<mastercomment1>BARN OG UNGDOM. BR_FINFREDAG_MSUA_OPRO</mastercomment1>
						<mastercomment2/>
						<mastercomment3/>
						<mastercomment4/>
					</comments>
					<file id="msub200012-0509d1-001 2"/>
					<filter>
						<start>-1</start>
						<end>-1</end>
						<effect>
							<name>3 Band Equalizer - Mann</name>
							<effecttype>filter</effecttype>
							<mediatype>audio</mediatype>
							<parameter>
								<parameterid>Low Frequency</parameterid>
								<name>Low Frequency</name>
								<valuemin>80</valuemin>
								<valuemax>2000</valuemax>
								<value>131</value>
							</parameter>
							<parameter>
								<parameterid>Low Gain(dB)</parameterid>
								<name>Low Gain(dB)</name>
								<valuemin>-20</valuemin>
								<valuemax>20</valuemax>
								<value>-7</value>
							</parameter>
							<parameter>
								<parameterid>Mid Frequency</parameterid>
								<name>Mid Frequency</name>
								<valuemin>400</valuemin>
								<valuemax>8000</valuemax>
								<value>3602</value>
							</parameter>
							<parameter>
								<parameterid>Mid Gain(dB)</parameterid>
								<name>Mid Gain(dB)</name>
								<valuemin>-20</valuemin>
								<valuemax>20</valuemax>
								<value>3</value>
							</parameter>
							<parameter>
								<parameterid>High Frequency</parameterid>
								<name>High Frequency</name>
								<valuemin>5000</valuemin>
								<valuemax>20000</valuemax>
								<value>10354</value>
							</parameter>
							<parameter>
								<parameterid>High Gain(dB)</parameterid>
								<name>High Gain(dB)</name>
								<valuemin>-20</valuemin>
								<valuemax>20</valuemax>
								<value>0</value>
							</parameter>
						</effect>
					</filter>
					<filter>
						<effect>
							<name>Audio Levels</name>
							<effectid>audiolevels</effectid>
							<effectcategory>audiolevels</effectcategory>
							<effecttype>audiolevels</effecttype>
							<mediatype>audio</mediatype>
							<parameter>
								<name>Level</name>
								<parameterid>level</parameterid>
								<valuemin>0</valuemin>
								<valuemax>3.98109</valuemax>
								<keyframe>
									<when>5171.96</when>
									<value>1.41254</value>
								</keyframe>
								<keyframe>
									<when>5178.07</when>
									<value>0.891251</value>
								</keyframe>
								<keyframe>
									<when>5200.25</when>
									<value>0.891251</value>
								</keyframe>
								<interpolation>
									<name>FCPCurve</name>
								</interpolation>
								<value>1.41254</value>
							</parameter>
						</effect>
					</filter>
					<filter>
						<effect>
							<name>Audio Pan</name>
							<effectid>audiopan</effectid>
							<effectcategory>audiopan</effectcategory>
							<effecttype>audiopan</effecttype>
							<mediatype>audio</mediatype>
							<parameter>
								<name>Pan</name>
								<parameterid>pan</parameterid>
								<valuemin>-1</valuemin>
								<valuemax>1</valuemax>
								<value>0</value>
							</parameter>
						</effect>
					</filter>
					<sourcetrack>
						<mediatype>audio</mediatype>
						<trackindex>1</trackindex>
					</sourcetrack>
				</clipitem>
				<clipitem id="msub200012-0509d1-001 21">
					<name>msub200012-0509d1-001</name>
					<duration>9348</duration>
					<rate>
						<ntsc>FALSE</ntsc>
						<timebase>25</timebase>
					</rate>
					<in>5198</in>
					<out>5247</out>
					<start>39167</start>
					<end>-1</end>
					<subframeoffset>0</subframeoffset>
					<masterclipid>msub200012-0509d1-001 1</masterclipid>
					<logginginfo>
						<description>msub200012-0509d1-001</description>
						<scene/>
						<shottake/>
						<lognote/>
						<good>FALSE</good>
					</logginginfo>
					<labels>
						<label2/>
					</labels>
					<comments>
						<mastercomment1>BARN OG UNGDOM. BR_FINFREDAG_MSUA_OPRO</mastercomment1>
						<mastercomment2/>
						<mastercomment3/>
						<mastercomment4/>
					</comments>
					<file id="msub200012-0509d1-001 2"/>
					<filter>
						<start>-1</start>
						<end>-1</end>
						<effect>
							<name>3 Band Equalizer - Mann</name>
							<effecttype>filter</effecttype>
							<mediatype>audio</mediatype>
							<parameter>
								<parameterid>Low Frequency</parameterid>
								<name>Low Frequency</name>
								<valuemin>80</valuemin>
								<valuemax>2000</valuemax>
								<value>131</value>
							</parameter>
							<parameter>
								<parameterid>Low Gain(dB)</parameterid>
								<name>Low Gain(dB)</name>
								<valuemin>-20</valuemin>
								<valuemax>20</valuemax>
								<value>-7</value>
							</parameter>
							<parameter>
								<parameterid>Mid Frequency</parameterid>
								<name>Mid Frequency</name>
								<valuemin>400</valuemin>
								<valuemax>8000</valuemax>
								<value>3602</value>
							</parameter>
							<parameter>
								<parameterid>Mid Gain(dB)</parameterid>
								<name>Mid Gain(dB)</name>
								<valuemin>-20</valuemin>
								<valuemax>20</valuemax>
								<value>3</value>
							</parameter>
							<parameter>
								<parameterid>High Frequency</parameterid>
								<name>High Frequency</name>
								<valuemin>5000</valuemin>
								<valuemax>20000</valuemax>
								<value>10354</value>
							</parameter>
							<parameter>
								<parameterid>High Gain(dB)</parameterid>
								<name>High Gain(dB)</name>
								<valuemin>-20</valuemin>
								<valuemax>20</valuemax>
								<value>0</value>
							</parameter>
						</effect>
					</filter>
					<filter>
						<effect>
							<name>Audio Levels</name>
							<effectid>audiolevels</effectid>
							<effectcategory>audiolevels</effectcategory>
							<effecttype>audiolevels</effecttype>
							<mediatype>audio</mediatype>
							<parameter>
								<name>Level</name>
								<parameterid>level</parameterid>
								<valuemin>0</valuemin>
								<valuemax>3.98109</valuemax>
								<keyframe>
									<when>5171.96</when>
									<value>1.41254</value>
								</keyframe>
								<keyframe>
									<when>5178.07</when>
									<value>0.891251</value>
								</keyframe>
								<keyframe>
									<when>5200.25</when>
									<value>0.891251</value>
								</keyframe>
								<interpolation>
									<name>FCPCurve</name>
								</interpolation>
								<value>1.41254</value>
							</parameter>
						</effect>
					</filter>
					<filter>
						<effect>
							<name>Audio Pan</name>
							<effectid>audiopan</effectid>
							<effectcategory>audiopan</effectcategory>
							<effecttype>audiopan</effecttype>
							<mediatype>audio</mediatype>
							<parameter>
								<name>Pan</name>
								<parameterid>pan</parameterid>
								<valuemin>-1</valuemin>
								<valuemax>1</valuemax>
								<value>0</value>
							</parameter>
						</effect>
					</filter>
					<sourcetrack>
						<mediatype>audio</mediatype>
						<trackindex>1</trackindex>
					</sourcetrack>
				</clipitem>
				<transitionitem id="959455068 ">
					<rate>
						<ntsc>FALSE</ntsc>
						<timebase>25</timebase>
					</rate>
					<start>39214</start>
					<end>39216</end>
					<alignment>center</alignment>
					<effect>
						<name>Cross Fade (+3dB) Copy</name>
						<effecttype>transition</effecttype>
						<mediatype>audio</mediatype>
					</effect>
				</transitionitem>
				<clipitem id="msub200012-0509d1-001 22">
					<name>msub200012-0509d1-001</name>
					<duration>9348</duration>
					<rate>
						<ntsc>FALSE</ntsc>
						<timebase>25</timebase>
					</rate>
					<in>9052</in>
					<out>9102</out>
					<start>-1</start>
					<end>39264</end>
					<subframeoffset>0</subframeoffset>
					<masterclipid>msub200012-0509d1-001 1</masterclipid>
					<logginginfo>
						<description>msub200012-0509d1-001</description>
						<scene/>
						<shottake/>
						<lognote/>
						<good>FALSE</good>
					</logginginfo>
					<labels>
						<label2/>
					</labels>
					<comments>
						<mastercomment1>BARN OG UNGDOM. BR_FINFREDAG_MSUA_OPRO</mastercomment1>
						<mastercomment2/>
						<mastercomment3/>
						<mastercomment4/>
					</comments>
					<file id="msub200012-0509d1-001 2"/>
					<filter>
						<start>-1</start>
						<end>-1</end>
						<effect>
							<name>3 Band Equalizer - Mann</name>
							<effecttype>filter</effecttype>
							<mediatype>audio</mediatype>
							<parameter>
								<parameterid>Low Frequency</parameterid>
								<name>Low Frequency</name>
								<valuemin>80</valuemin>
								<valuemax>2000</valuemax>
								<value>131</value>
							</parameter>
							<parameter>
								<parameterid>Low Gain(dB)</parameterid>
								<name>Low Gain(dB)</name>
								<valuemin>-20</valuemin>
								<valuemax>20</valuemax>
								<value>-7</value>
							</parameter>
							<parameter>
								<parameterid>Mid Frequency</parameterid>
								<name>Mid Frequency</name>
								<valuemin>400</valuemin>
								<valuemax>8000</valuemax>
								<value>3602</value>
							</parameter>
							<parameter>
								<parameterid>Mid Gain(dB)</parameterid>
								<name>Mid Gain(dB)</name>
								<valuemin>-20</valuemin>
								<valuemax>20</valuemax>
								<value>3</value>
							</parameter>
							<parameter>
								<parameterid>High Frequency</parameterid>
								<name>High Frequency</name>
								<valuemin>5000</valuemin>
								<valuemax>20000</valuemax>
								<value>10354</value>
							</parameter>
							<parameter>
								<parameterid>High Gain(dB)</parameterid>
								<name>High Gain(dB)</name>
								<valuemin>-20</valuemin>
								<valuemax>20</valuemax>
								<value>0</value>
							</parameter>
						</effect>
					</filter>
					<filter>
						<effect>
							<name>Audio Levels</name>
							<effectid>audiolevels</effectid>
							<effectcategory>audiolevels</effectcategory>
							<effecttype>audiolevels</effecttype>
							<mediatype>audio</mediatype>
							<parameter>
								<name>Level</name>
								<parameterid>level</parameterid>
								<valuemin>0</valuemin>
								<valuemax>3.98109</valuemax>
								<keyframe>
									<when>9093.71</when>
									<value>1</value>
								</keyframe>
								<keyframe>
									<when>9095.96</when>
									<value>0.446684</value>
								</keyframe>
								<keyframe>
									<when>9104</when>
									<value>0.446684</value>
								</keyframe>
								<keyframe>
									<when>9105.61</when>
									<value>1</value>
								</keyframe>
								<keyframe>
									<when>9153.18</when>
									<value>1</value>
								</keyframe>
								<keyframe>
									<when>9155.91</when>
									<value>0.354813</value>
								</keyframe>
								<keyframe>
									<when>9196.25</when>
									<value>0.354813</value>
								</keyframe>
								<keyframe>
									<when>9198.98</when>
									<value>1</value>
								</keyframe>
								<interpolation>
									<name>FCPCurve</name>
								</interpolation>
								<value>1</value>
							</parameter>
						</effect>
					</filter>
					<filter>
						<effect>
							<name>Audio Pan</name>
							<effectid>audiopan</effectid>
							<effectcategory>audiopan</effectcategory>
							<effecttype>audiopan</effecttype>
							<mediatype>audio</mediatype>
							<parameter>
								<name>Pan</name>
								<parameterid>pan</parameterid>
								<valuemin>-1</valuemin>
								<valuemax>1</valuemax>
								<value>0</value>
							</parameter>
						</effect>
					</filter>
					<sourcetrack>
						<mediatype>audio</mediatype>
						<trackindex>1</trackindex>
					</sourcetrack>
				</clipitem>
				<clipitem id="msub200012-0509d1-001 23">
					<name>msub200012-0509d1-001</name>
					<duration>9348</duration>
					<rate>
						<ntsc>FALSE</ntsc>
						<timebase>25</timebase>
					</rate>
					<in>9102</in>
					<out>9206</out>
					<start>39264</start>
					<end>39368</end>
					<subframeoffset>0</subframeoffset>
					<masterclipid>msub200012-0509d1-001 1</masterclipid>
					<logginginfo>
						<description>msub200012-0509d1-001</description>
						<scene/>
						<shottake/>
						<lognote/>
						<good>FALSE</good>
					</logginginfo>
					<labels>
						<label2/>
					</labels>
					<comments>
						<mastercomment1>BARN OG UNGDOM. BR_FINFREDAG_MSUA_OPRO</mastercomment1>
						<mastercomment2/>
						<mastercomment3/>
						<mastercomment4/>
					</comments>
					<file id="msub200012-0509d1-001 2"/>
					<filter>
						<start>-1</start>
						<end>-1</end>
						<effect>
							<name>3 Band Equalizer - Mann</name>
							<effecttype>filter</effecttype>
							<mediatype>audio</mediatype>
							<parameter>
								<parameterid>Low Frequency</parameterid>
								<name>Low Frequency</name>
								<valuemin>80</valuemin>
								<valuemax>2000</valuemax>
								<value>131</value>
							</parameter>
							<parameter>
								<parameterid>Low Gain(dB)</parameterid>
								<name>Low Gain(dB)</name>
								<valuemin>-20</valuemin>
								<valuemax>20</valuemax>
								<value>-7</value>
							</parameter>
							<parameter>
								<parameterid>Mid Frequency</parameterid>
								<name>Mid Frequency</name>
								<valuemin>400</valuemin>
								<valuemax>8000</valuemax>
								<value>3602</value>
							</parameter>
							<parameter>
								<parameterid>Mid Gain(dB)</parameterid>
								<name>Mid Gain(dB)</name>
								<valuemin>-20</valuemin>
								<valuemax>20</valuemax>
								<value>3</value>
							</parameter>
							<parameter>
								<parameterid>High Frequency</parameterid>
								<name>High Frequency</name>
								<valuemin>5000</valuemin>
								<valuemax>20000</valuemax>
								<value>10354</value>
							</parameter>
							<parameter>
								<parameterid>High Gain(dB)</parameterid>
								<name>High Gain(dB)</name>
								<valuemin>-20</valuemin>
								<valuemax>20</valuemax>
								<value>0</value>
							</parameter>
						</effect>
					</filter>
					<filter>
						<effect>
							<name>Audio Levels</name>
							<effectid>audiolevels</effectid>
							<effectcategory>audiolevels</effectcategory>
							<effecttype>audiolevels</effecttype>
							<mediatype>audio</mediatype>
							<parameter>
								<name>Level</name>
								<parameterid>level</parameterid>
								<valuemin>0</valuemin>
								<valuemax>3.98109</valuemax>
								<keyframe>
									<when>9093.71</when>
									<value>1</value>
								</keyframe>
								<keyframe>
									<when>9095.96</when>
									<value>0.446684</value>
								</keyframe>
								<keyframe>
									<when>9104</when>
									<value>0.446684</value>
								</keyframe>
								<keyframe>
									<when>9105.61</when>
									<value>1</value>
								</keyframe>
								<keyframe>
									<when>9153.18</when>
									<value>1</value>
								</keyframe>
								<keyframe>
									<when>9155.91</when>
									<value>0.354813</value>
								</keyframe>
								<keyframe>
									<when>9196.25</when>
									<value>0.354813</value>
								</keyframe>
								<keyframe>
									<when>9198.98</when>
									<value>1</value>
								</keyframe>
								<interpolation>
									<name>FCPCurve</name>
								</interpolation>
								<value>1</value>
							</parameter>
						</effect>
					</filter>
					<filter>
						<effect>
							<name>Audio Pan</name>
							<effectid>audiopan</effectid>
							<effectcategory>audiopan</effectcategory>
							<effecttype>audiopan</effecttype>
							<mediatype>audio</mediatype>
							<parameter>
								<name>Pan</name>
								<parameterid>pan</parameterid>
								<valuemin>-1</valuemin>
								<valuemax>1</valuemax>
								<value>0</value>
							</parameter>
						</effect>
					</filter>
					<sourcetrack>
						<mediatype>audio</mediatype>
						<trackindex>1</trackindex>
					</sourcetrack>
				</clipitem>
				<clipitem id="msub200012-0509d1-001 24">
					<name>msub200012-0509d1-001</name>
					<duration>9348</duration>
					<rate>
						<ntsc>FALSE</ntsc>
						<timebase>25</timebase>
					</rate>
					<in>9206</in>
					<out>9275</out>
					<start>39368</start>
					<end>-1</end>
					<subframeoffset>0</subframeoffset>
					<masterclipid>msub200012-0509d1-001 1</masterclipid>
					<logginginfo>
						<description>msub200012-0509d1-001</description>
						<scene/>
						<shottake/>
						<lognote/>
						<good>FALSE</good>
					</logginginfo>
					<labels>
						<label2/>
					</labels>
					<comments>
						<mastercomment1>BARN OG UNGDOM. BR_FINFREDAG_MSUA_OPRO</mastercomment1>
						<mastercomment2/>
						<mastercomment3/>
						<mastercomment4/>
					</comments>
					<file id="msub200012-0509d1-001 2"/>
					<filter>
						<start>-1</start>
						<end>-1</end>
						<effect>
							<name>3 Band Equalizer - Mann</name>
							<effecttype>filter</effecttype>
							<mediatype>audio</mediatype>
							<parameter>
								<parameterid>Low Frequency</parameterid>
								<name>Low Frequency</name>
								<valuemin>80</valuemin>
								<valuemax>2000</valuemax>
								<value>131</value>
							</parameter>
							<parameter>
								<parameterid>Low Gain(dB)</parameterid>
								<name>Low Gain(dB)</name>
								<valuemin>-20</valuemin>
								<valuemax>20</valuemax>
								<value>-7</value>
							</parameter>
							<parameter>
								<parameterid>Mid Frequency</parameterid>
								<name>Mid Frequency</name>
								<valuemin>400</valuemin>
								<valuemax>8000</valuemax>
								<value>3602</value>
							</parameter>
							<parameter>
								<parameterid>Mid Gain(dB)</parameterid>
								<name>Mid Gain(dB)</name>
								<valuemin>-20</valuemin>
								<valuemax>20</valuemax>
								<value>3</value>
							</parameter>
							<parameter>
								<parameterid>High Frequency</parameterid>
								<name>High Frequency</name>
								<valuemin>5000</valuemin>
								<valuemax>20000</valuemax>
								<value>10354</value>
							</parameter>
							<parameter>
								<parameterid>High Gain(dB)</parameterid>
								<name>High Gain(dB)</name>
								<valuemin>-20</valuemin>
								<valuemax>20</valuemax>
								<value>0</value>
							</parameter>
						</effect>
					</filter>
					<filter>
						<effect>
							<name>Audio Levels</name>
							<effectid>audiolevels</effectid>
							<effectcategory>audiolevels</effectcategory>
							<effecttype>audiolevels</effecttype>
							<mediatype>audio</mediatype>
							<parameter>
								<name>Level</name>
								<parameterid>level</parameterid>
								<valuemin>0</valuemin>
								<valuemax>3.98109</valuemax>
								<keyframe>
									<when>9093.71</when>
									<value>1</value>
								</keyframe>
								<keyframe>
									<when>9095.96</when>
									<value>0.446684</value>
								</keyframe>
								<keyframe>
									<when>9104</when>
									<value>0.446684</value>
								</keyframe>
								<keyframe>
									<when>9105.61</when>
									<value>1</value>
								</keyframe>
								<keyframe>
									<when>9153.18</when>
									<value>1</value>
								</keyframe>
								<keyframe>
									<when>9155.91</when>
									<value>0.354813</value>
								</keyframe>
								<keyframe>
									<when>9196.25</when>
									<value>0.354813</value>
								</keyframe>
								<keyframe>
									<when>9198.98</when>
									<value>1</value>
								</keyframe>
								<interpolation>
									<name>FCPCurve</name>
								</interpolation>
								<value>1</value>
							</parameter>
						</effect>
					</filter>
					<filter>
						<effect>
							<name>Audio Pan</name>
							<effectid>audiopan</effectid>
							<effectcategory>audiopan</effectcategory>
							<effecttype>audiopan</effecttype>
							<mediatype>audio</mediatype>
							<parameter>
								<name>Pan</name>
								<parameterid>pan</parameterid>
								<valuemin>-1</valuemin>
								<valuemax>1</valuemax>
								<value>0</value>
							</parameter>
						</effect>
					</filter>
					<sourcetrack>
						<mediatype>audio</mediatype>
						<trackindex>1</trackindex>
					</sourcetrack>
				</clipitem>
				<transitionitem id="959450580 ">
					<rate>
						<ntsc>FALSE</ntsc>
						<timebase>25</timebase>
					</rate>
					<start>39431</start>
					<end>39437</end>
					<alignment>end-black</alignment>
					<effect>
						<name>Cross Fade (+3dB) Copy</name>
						<effecttype>transition</effecttype>
						<mediatype>audio</mediatype>
					</effect>
				</transitionitem>
				<transitionitem id="959445752 ">
					<rate>
						<ntsc>FALSE</ntsc>
						<timebase>25</timebase>
					</rate>
					<start>39833</start>
					<end>39839</end>
					<alignment>start-black</alignment>
					<effect>
						<name>Cross Fade (+3dB) Copy</name>
						<effecttype>transition</effecttype>
						<mediatype>audio</mediatype>
					</effect>
				</transitionitem>
				<clipitem id="msub200012-0409d2k1006 ">
					<name>msub200012-0409d2k1006</name>
					<duration>1289</duration>
					<rate>
						<ntsc>FALSE</ntsc>
						<timebase>25</timebase>
					</rate>
					<in>724</in>
					<out>1009</out>
					<start>-1</start>
					<end>-1</end>
					<subframeoffset>0</subframeoffset>
					<enabled>TRUE</enabled>
					<masterclipid>msub200012-0409d2k1006 1</masterclipid>
					<syncoffset>0</syncoffset>
					<logginginfo>
						<description>msub200012-0409d2k1006</description>
						<scene/>
						<shottake/>
						<lognote/>
						<good>FALSE</good>
					</logginginfo>
					<labels>
						<label>Good Take</label>
						<label2/>
					</labels>
					<comments>
						<mastercomment1>RÅSTOFF. BR_FINFREDAG_MSUA_OPRO</mastercomment1>
						<mastercomment2/>
						<mastercomment3/>
						<mastercomment4/>
					</comments>
					<file id="msub200012-0409d2k1006 2">
						<name>msub200012-0409d2k1006.mxf</name>
						<pathurl>file://localhost/Volumes/omfs/clip.dir/MXF/1080i/msub200012-0409d2k1006.mxf</pathurl>
						<rate>
							<timebase>25</timebase>
						</rate>
						<duration>1212</duration>
						<timecode>
							<rate>
								<timebase>25</timebase>
							</rate>
							<string>11:03:42:23</string>
							<frame>995573</frame>
							<displayformat>NDF</displayformat>
							<source>source</source>
						</timecode>
						<media>
							<video>
								<duration>1212</duration>
								<samplecharacteristics>
									<width>1920</width>
									<height>1080</height>
								</samplecharacteristics>
							</video>
							<audio>
								<rate>
									<timebase>48000</timebase>
								</rate>
								<trackcount>1</trackcount>
								<samplecharacteristics>
									<depth>24</depth>
								</samplecharacteristics>
							</audio>
						</media>
					</file>
					<filter>
						<effect>
							<name>Audio Levels</name>
							<effectid>audiolevels</effectid>
							<effectcategory>audiolevels</effectcategory>
							<effecttype>audiolevels</effecttype>
							<mediatype>audio</mediatype>
							<parameter>
								<name>Level</name>
								<parameterid>level</parameterid>
								<valuemin>0</valuemin>
								<valuemax>3.98109</valuemax>
								<keyframe>
									<when>866.25</when>
									<value>0.398107</value>
								</keyframe>
								<keyframe>
									<when>902</when>
									<value>0.891251</value>
								</keyframe>
								<keyframe>
									<when>940.5</when>
									<value>0.891251</value>
								</keyframe>
								<keyframe>
									<when>955.625</when>
									<value>0.707946</value>
								</keyframe>
								<interpolation>
									<name>FCPCurve</name>
								</interpolation>
								<value>1</value>
							</parameter>
						</effect>
					</filter>
					<filter>
						<effect>
							<name>Audio Pan</name>
							<effectid>audiopan</effectid>
							<effectcategory>audiopan</effectcategory>
							<effecttype>audiopan</effecttype>
							<mediatype>audio</mediatype>
							<parameter>
								<name>Pan</name>
								<parameterid>pan</parameterid>
								<valuemin>-1</valuemin>
								<valuemax>1</valuemax>
								<value>0</value>
							</parameter>
						</effect>
					</filter>
					<sourcetrack>
						<mediatype>audio</mediatype>
						<trackindex>1</trackindex>
					</sourcetrack>
					<link>
						<linkclipref>msub200012-0409d2k1006 </linkclipref>
						<mediatype>audio</mediatype>
						<trackindex>1</trackindex>
						<clipindex>143</clipindex>
					</link>
					<link>
						<linkclipref>msub200012-0409d2k1006 3</linkclipref>
						<mediatype>audio</mediatype>
						<trackindex>2</trackindex>
						<clipindex>172</clipindex>
					</link>
					<link>
						<linkclipref>msub200012-0409d2k1006 4</linkclipref>
						<mediatype>audio</mediatype>
						<trackindex>3</trackindex>
						<clipindex>73</clipindex>
					</link>
				</clipitem>
				<transitionitem id="2">
					<rate>
						<ntsc>FALSE</ntsc>
						<timebase>25</timebase>
					</rate>
					<start>40102</start>
					<end>40118</end>
					<alignment>center</alignment>
					<effect>
						<name>Cross Fade (+3dB) Copy</name>
						<effecttype>transition</effecttype>
						<mediatype>audio</mediatype>
					</effect>
				</transitionitem>
				<transitionitem id="959429568 ">
					<rate>
						<ntsc>FALSE</ntsc>
						<timebase>25</timebase>
					</rate>
					<start>40278</start>
					<end>40303</end>
					<alignment>start-black</alignment>
					<effect>
						<name>Cross Fade (+3dB)</name>
						<effecttype>transition</effecttype>
						<mediatype>audio</mediatype>
					</effect>
				</transitionitem>
				<clipitem id="msub200012-1708k1d2034 ">
					<name>msub200012-1708k1d2034</name>
					<duration>905</duration>
					<rate>
						<ntsc>FALSE</ntsc>
						<timebase>25</timebase>
					</rate>
					<in>548</in>
					<out>609</out>
					<start>-1</start>
					<end>-1</end>
					<subframeoffset>0</subframeoffset>
					<enabled>TRUE</enabled>
					<masterclipid>msub200012-1708k1d2034 1</masterclipid>
					<logginginfo>
						<description>msub200012-1708k1d2034</description>
						<scene/>
						<shottake/>
						<lognote/>
						<good>FALSE</good>
					</logginginfo>
					<labels>
						<label2/>
					</labels>
					<comments>
						<mastercomment1>RÅSTOFF. BR_FINFREDAG_MSUA_OPRO</mastercomment1>
						<mastercomment2/>
						<mastercomment3/>
						<mastercomment4/>
					</comments>
					<file id="msub200012-1708k1d2034 2">
						<name>msub200012-1708k1d2034.mxf</name>
						<pathurl>file://localhost/Volumes/omfs/clip.dir/MXF/1080i/msub200012-1708k1d2034.mxf</pathurl>
						<rate>
							<timebase>25</timebase>
						</rate>
						<duration>905</duration>
						<timecode>
							<rate>
								<timebase>25</timebase>
							</rate>
							<string>01:52:50:18</string>
							<frame>169268</frame>
							<displayformat>NDF</displayformat>
							<source>source</source>
						</timecode>
						<media>
							<video>
								<duration>905</duration>
								<samplecharacteristics>
									<width>1920</width>
									<height>1080</height>
								</samplecharacteristics>
							</video>
							<audio>
								<rate>
									<timebase>48000</timebase>
								</rate>
								<trackcount>1</trackcount>
								<samplecharacteristics>
									<depth>24</depth>
								</samplecharacteristics>
							</audio>
						</media>
					</file>
					<filter>
						<effect>
							<name>Audio Levels</name>
							<effectid>audiolevels</effectid>
							<effectcategory>audiolevels</effectcategory>
							<effecttype>audiolevels</effecttype>
							<mediatype>audio</mediatype>
							<parameter>
								<name>Level</name>
								<parameterid>level</parameterid>
								<valuemin>0</valuemin>
								<valuemax>3.98109</valuemax>
								<value>0.70795</value>
							</parameter>
						</effect>
					</filter>
					<filter>
						<effect>
							<name>Audio Pan</name>
							<effectid>audiopan</effectid>
							<effectcategory>audiopan</effectcategory>
							<effecttype>audiopan</effecttype>
							<mediatype>audio</mediatype>
							<parameter>
								<name>Pan</name>
								<parameterid>pan</parameterid>
								<valuemin>-1</valuemin>
								<valuemax>1</valuemax>
								<value>0</value>
							</parameter>
						</effect>
					</filter>
					<sourcetrack>
						<mediatype>audio</mediatype>
						<trackindex>4</trackindex>
					</sourcetrack>
				</clipitem>
				<transitionitem id="959426168 ">
					<rate>
						<ntsc>FALSE</ntsc>
						<timebase>25</timebase>
					</rate>
					<start>40314</start>
					<end>40339</end>
					<alignment>end</alignment>
					<effect>
						<name>Cross Fade (+3dB)</name>
						<effecttype>transition</effecttype>
						<mediatype>audio</mediatype>
					</effect>
				</transitionitem>
				<clipitem id="msub200012-1708k1d2034 3">
					<name>msub200012-1708k1d2034</name>
					<duration>186</duration>
					<rate>
						<ntsc>FALSE</ntsc>
						<timebase>25</timebase>
					</rate>
					<in>99</in>
					<out>139</out>
					<start>-1</start>
					<end>-1</end>
					<subframeoffset>0</subframeoffset>
					<masterclipid>msub200012-1708k1d2034 1</masterclipid>
					<logginginfo>
						<description>msub200012-1708k1d2034</description>
						<scene/>
						<shottake/>
						<lognote/>
						<good>FALSE</good>
					</logginginfo>
					<labels>
						<label2/>
					</labels>
					<comments>
						<mastercomment1>RÅSTOFF. BR_FINFREDAG_MSUA_OPRO</mastercomment1>
						<mastercomment2/>
						<mastercomment3/>
						<mastercomment4/>
					</comments>
					<file id="msub200012-1708k1d2034 2"/>
					<filter>
						<effect>
							<name>Audio Levels</name>
							<effectid>audiolevels</effectid>
							<effectcategory>audiolevels</effectcategory>
							<effecttype>audiolevels</effecttype>
							<mediatype>audio</mediatype>
							<parameter>
								<name>Level</name>
								<parameterid>level</parameterid>
								<valuemin>0</valuemin>
								<valuemax>3.98109</valuemax>
								<value>0.70795</value>
							</parameter>
						</effect>
					</filter>
					<filter>
						<effect>
							<name>Audio Pan</name>
							<effectid>audiopan</effectid>
							<effectcategory>audiopan</effectcategory>
							<effecttype>audiopan</effecttype>
							<mediatype>audio</mediatype>
							<parameter>
								<name>Pan</name>
								<parameterid>pan</parameterid>
								<valuemin>-1</valuemin>
								<valuemax>1</valuemax>
								<value>0</value>
							</parameter>
						</effect>
					</filter>
					<sourcetrack>
						<mediatype>audio</mediatype>
						<trackindex>4</trackindex>
					</sourcetrack>
					<filter>
						<effect>
							<name>Time Remap</name>
							<effectid>timeremap</effectid>
							<effectcategory>motion</effectcategory>
							<effecttype>motion</effecttype>
							<mediatype>audio</mediatype>
							<parameter>
								<parameterid>variablespeed</parameterid>
								<name>variablespeed</name>
								<valuemin>0</valuemin>
								<valuemax>1</valuemax>
								<value>0</value>
							</parameter>
							<parameter>
								<parameterid>mappedduration</parameterid>
								<name>mappedduration</name>
								<value>
									<timecode>
										<rate>
											<timebase>0</timebase>
										</rate>
										<string>0</string>
										<frame>0</frame>
										<displayformat>NDF</displayformat>
									</timecode>
								</value>
							</parameter>
							<parameter>
								<parameterid>speed</parameterid>
								<name>speed</name>
								<valuemin>-10000</valuemin>
								<valuemax>10000</valuemax>
								<value>488</value>
							</parameter>
							<parameter>
								<parameterid>reverse</parameterid>
								<name>reverse</name>
								<value>FALSE</value>
							</parameter>
							<parameter>
								<parameterid>frameblending</parameterid>
								<name>frameblending</name>
								<value>TRUE</value>
							</parameter>
							<parameter>
								<parameterid>graphdict</parameterid>
								<name>graphdict</name>
								<valuemin>0</valuemin>
								<valuemax>904</valuemax>
								<keyframe>
									<when>0</when>
									<value>3.0756</value>
									<speedkfstart>TRUE</speedkfstart>
									<speedvirtualkf>TRUE</speedvirtualkf>
								</keyframe>
								<keyframe>
									<when>99</when>
									<value>486.838</value>
									<speedkfin>TRUE</speedkfin>
									<speedvirtualkf>TRUE</speedvirtualkf>
								</keyframe>
								<keyframe>
									<when>139</when>
									<value>682.297</value>
									<speedkfout>TRUE</speedkfout>
									<speedvirtualkf>TRUE</speedvirtualkf>
								</keyframe>
								<keyframe>
									<when>186</when>
									<value>908.076</value>
									<speedkfend>TRUE</speedkfend>
									<speedvirtualkf>TRUE</speedvirtualkf>
								</keyframe>
								<interpolation>
									<name>FCPCurve</name>
								</interpolation>
								<value>486.838</value>
							</parameter>
						</effect>
					</filter>
				</clipitem>
				<transitionitem id="959426848 ">
					<rate>
						<ntsc>FALSE</ntsc>
						<timebase>25</timebase>
					</rate>
					<start>40342</start>
					<end>40354</end>
					<alignment>center</alignment>
					<effect>
						<name>Cross Fade (+3dB)</name>
						<effecttype>transition</effecttype>
						<mediatype>audio</mediatype>
					</effect>
				</transitionitem>
				<clipitem id="msub200012-1708k1d2034 4">
					<name>msub200012-1708k1d2034</name>
					<duration>905</duration>
					<rate>
						<ntsc>FALSE</ntsc>
						<timebase>25</timebase>
					</rate>
					<in>643</in>
					<out>691</out>
					<start>-1</start>
					<end>-1</end>
					<subframeoffset>0</subframeoffset>
					<masterclipid>msub200012-1708k1d2034 1</masterclipid>
					<logginginfo>
						<description>msub200012-1708k1d2034</description>
						<scene/>
						<shottake/>
						<lognote/>
						<good>FALSE</good>
					</logginginfo>
					<labels>
						<label2/>
					</labels>
					<comments>
						<mastercomment1>RÅSTOFF. BR_FINFREDAG_MSUA_OPRO</mastercomment1>
						<mastercomment2/>
						<mastercomment3/>
						<mastercomment4/>
					</comments>
					<file id="msub200012-1708k1d2034 2"/>
					<filter>
						<effect>
							<name>Audio Levels</name>
							<effectid>audiolevels</effectid>
							<effectcategory>audiolevels</effectcategory>
							<effecttype>audiolevels</effecttype>
							<mediatype>audio</mediatype>
							<parameter>
								<name>Level</name>
								<parameterid>level</parameterid>
								<valuemin>0</valuemin>
								<valuemax>3.98109</valuemax>
								<keyframe>
									<when>663.357</when>
									<value>0.794328</value>
								</keyframe>
								<keyframe>
									<when>664.857</when>
									<value>1</value>
								</keyframe>
								<interpolation>
									<name>FCPCurve</name>
								</interpolation>
								<value>0.70795</value>
							</parameter>
						</effect>
					</filter>
					<filter>
						<effect>
							<name>Audio Pan</name>
							<effectid>audiopan</effectid>
							<effectcategory>audiopan</effectcategory>
							<effecttype>audiopan</effecttype>
							<mediatype>audio</mediatype>
							<parameter>
								<name>Pan</name>
								<parameterid>pan</parameterid>
								<valuemin>-1</valuemin>
								<valuemax>1</valuemax>
								<value>0</value>
							</parameter>
						</effect>
					</filter>
					<sourcetrack>
						<mediatype>audio</mediatype>
						<trackindex>4</trackindex>
					</sourcetrack>
				</clipitem>
				<transitionitem id="959437592 ">
					<rate>
						<ntsc>FALSE</ntsc>
						<timebase>25</timebase>
					</rate>
					<start>40365</start>
					<end>40390</end>
					<alignment>center</alignment>
					<effect>
						<name>Cross Fade (+3dB)</name>
						<effecttype>transition</effecttype>
						<mediatype>audio</mediatype>
					</effect>
				</transitionitem>
				<transitionitem id="3">
					<rate>
						<ntsc>FALSE</ntsc>
						<timebase>25</timebase>
					</rate>
					<start>40841</start>
					<end>40843</end>
					<alignment>start-black</alignment>
					<effect>
						<name>Cross Fade (+3dB) Copy</name>
						<effecttype>transition</effecttype>
						<mediatype>audio</mediatype>
					</effect>
				</transitionitem>
				<clipitem id="msub200012-1708k1d2042 3">
					<name>msub200012-1708k1d2042</name>
					<duration>350</duration>
					<rate>
						<ntsc>FALSE</ntsc>
						<timebase>25</timebase>
					</rate>
					<in>120</in>
					<out>217</out>
					<start>-1</start>
					<end>-1</end>
					<subframeoffset>0</subframeoffset>
					<masterclipid>msub200012-1708k1d2042 1</masterclipid>
					<logginginfo>
						<description>msub200012-1708k1d2042</description>
						<scene/>
						<shottake/>
						<lognote/>
						<good>FALSE</good>
					</logginginfo>
					<labels>
						<label2/>
					</labels>
					<comments>
						<mastercomment1>RÅSTOFF. BR_FINFREDAG_MSUA_OPRO</mastercomment1>
						<mastercomment2/>
						<mastercomment3/>
						<mastercomment4/>
					</comments>
					<file id="msub200012-1708k1d2042 2"/>
					<filter>
						<effect>
							<name>Audio Levels</name>
							<effectid>audiolevels</effectid>
							<effectcategory>audiolevels</effectcategory>
							<effecttype>audiolevels</effecttype>
							<mediatype>audio</mediatype>
							<parameter>
								<name>Level</name>
								<parameterid>level</parameterid>
								<valuemin>0</valuemin>
								<valuemax>3.98109</valuemax>
								<value>1</value>
							</parameter>
						</effect>
					</filter>
					<filter>
						<effect>
							<name>Audio Pan</name>
							<effectid>audiopan</effectid>
							<effectcategory>audiopan</effectcategory>
							<effecttype>audiopan</effecttype>
							<mediatype>audio</mediatype>
							<parameter>
								<name>Pan</name>
								<parameterid>pan</parameterid>
								<valuemin>-1</valuemin>
								<valuemax>1</valuemax>
								<value>0</value>
							</parameter>
						</effect>
					</filter>
					<sourcetrack>
						<mediatype>audio</mediatype>
						<trackindex>1</trackindex>
					</sourcetrack>
				</clipitem>
				<transitionitem id="4">
					<rate>
						<ntsc>FALSE</ntsc>
						<timebase>25</timebase>
					</rate>
					<start>40936</start>
					<end>40938</end>
					<alignment>end-black</alignment>
					<effect>
						<name>Cross Fade (+3dB) Copy</name>
						<effecttype>transition</effecttype>
						<mediatype>audio</mediatype>
					</effect>
				</transitionitem>
				<transitionitem id="5">
					<rate>
						<ntsc>FALSE</ntsc>
						<timebase>25</timebase>
					</rate>
					<start>41311</start>
					<end>41323</end>
					<alignment>center</alignment>
					<effect>
						<name>Cross Fade (+3dB) Copy</name>
						<effecttype>transition</effecttype>
						<mediatype>audio</mediatype>
					</effect>
				</transitionitem>
				<clipitem id="msub200012-1708k1d2006 ">
					<name>msub200012-1708k1d2006</name>
					<duration>2506</duration>
					<rate>
						<ntsc>FALSE</ntsc>
						<timebase>25</timebase>
					</rate>
					<in>1072</in>
					<out>1176</out>
					<start>-1</start>
					<end>-1</end>
					<subframeoffset>0</subframeoffset>
					<enabled>TRUE</enabled>
					<masterclipid>msub200012-1708k1d2006 1</masterclipid>
					<logginginfo>
						<description>msub200012-1708k1d2006</description>
						<scene/>
						<shottake/>
						<lognote/>
						<good>FALSE</good>
					</logginginfo>
					<labels>
						<label2/>
					</labels>
					<comments>
						<mastercomment1>RÅSTOFF. BR_FINFREDAG_MSUA_OPRO</mastercomment1>
						<mastercomment2/>
						<mastercomment3/>
						<mastercomment4/>
					</comments>
					<file id="msub200012-1708k1d2006 2">
						<name>msub200012-1708k1d2006.mxf</name>
						<pathurl>file://localhost/Volumes/omfs/clip.dir/MXF/1080i/msub200012-1708k1d2006.mxf</pathurl>
						<rate>
							<timebase>25</timebase>
						</rate>
						<duration>2506</duration>
						<timecode>
							<rate>
								<timebase>25</timebase>
							</rate>
							<string>01:37:44:13</string>
							<frame>146613</frame>
							<displayformat>NDF</displayformat>
							<source>source</source>
						</timecode>
						<media>
							<video>
								<duration>2506</duration>
								<samplecharacteristics>
									<width>1920</width>
									<height>1080</height>
								</samplecharacteristics>
							</video>
							<audio>
								<rate>
									<timebase>48000</timebase>
								</rate>
								<trackcount>1</trackcount>
								<samplecharacteristics>
									<depth>24</depth>
								</samplecharacteristics>
							</audio>
						</media>
					</file>
					<filter>
						<enabled>TRUE</enabled>
						<start>-1</start>
						<end>-1</end>
						<effect>
							<name>3 Band Equalizer - Kristine</name>
							<effecttype>filter</effecttype>
							<mediatype>audio</mediatype>
							<parameter>
								<parameterid>Low Frequency</parameterid>
								<name>Low Frequency</name>
								<valuemin>80</valuemin>
								<valuemax>2000</valuemax>
								<value>80</value>
							</parameter>
							<parameter>
								<parameterid>Low Gain(dB)</parameterid>
								<name>Low Gain(dB)</name>
								<valuemin>-20</valuemin>
								<valuemax>20</valuemax>
								<value>-4</value>
							</parameter>
							<parameter>
								<parameterid>Mid Frequency</parameterid>
								<name>Mid Frequency</name>
								<valuemin>400</valuemin>
								<valuemax>8000</valuemax>
								<value>3602</value>
							</parameter>
							<parameter>
								<parameterid>Mid Gain(dB)</parameterid>
								<name>Mid Gain(dB)</name>
								<valuemin>-20</valuemin>
								<valuemax>20</valuemax>
								<value>3</value>
							</parameter>
							<parameter>
								<parameterid>High Frequency</parameterid>
								<name>High Frequency</name>
								<valuemin>5000</valuemin>
								<valuemax>20000</valuemax>
								<value>10354</value>
							</parameter>
							<parameter>
								<parameterid>High Gain(dB)</parameterid>
								<name>High Gain(dB)</name>
								<valuemin>-20</valuemin>
								<valuemax>20</valuemax>
								<value>0</value>
							</parameter>
						</effect>
					</filter>
					<filter>
						<effect>
							<name>Audio Levels</name>
							<effectid>audiolevels</effectid>
							<effectcategory>audiolevels</effectcategory>
							<effecttype>audiolevels</effecttype>
							<mediatype>audio</mediatype>
							<parameter>
								<name>Level</name>
								<parameterid>level</parameterid>
								<valuemin>0</valuemin>
								<valuemax>3.98109</valuemax>
								<keyframe>
									<when>423.429</when>
									<value>3.98107</value>
								</keyframe>
								<keyframe>
									<when>438.286</when>
									<value>1.99526</value>
								</keyframe>
								<keyframe>
									<when>465.857</when>
									<value>1.99526</value>
								</keyframe>
								<keyframe>
									<when>493.286</when>
									<value>2.23872</value>
								</keyframe>
								<keyframe>
									<when>510.429</when>
									<value>1.41254</value>
								</keyframe>
								<keyframe>
									<when>576.429</when>
									<value>0.794328</value>
								</keyframe>
								<keyframe>
									<when>615.571</when>
									<value>0.794328</value>
								</keyframe>
								<keyframe>
									<when>633.857</when>
									<value>1</value>
								</keyframe>
								<keyframe>
									<when>676.571</when>
									<value>1</value>
								</keyframe>
								<keyframe>
									<when>684</when>
									<value>0.707946</value>
								</keyframe>
								<keyframe>
									<when>725</when>
									<value>0.707946</value>
								</keyframe>
								<keyframe>
									<when>745.571</when>
									<value>3.98107</value>
								</keyframe>
								<keyframe>
									<when>848.429</when>
									<value>3.98107</value>
								</keyframe>
								<keyframe>
									<when>872.714</when>
									<value>1.30237</value>
								</keyframe>
								<keyframe>
									<when>908.714</when>
									<value>1.58489</value>
								</keyframe>
								<keyframe>
									<when>940.714</when>
									<value>1.99526</value>
								</keyframe>
								<keyframe>
									<when>1008.57</when>
									<value>1.25893</value>
								</keyframe>
								<keyframe>
									<when>1081.57</when>
									<value>0.891251</value>
								</keyframe>
								<keyframe>
									<when>1097.57</when>
									<value>0.501187</value>
								</keyframe>
								<interpolation>
									<name>FCPCurve</name>
								</interpolation>
								<value>1.22922</value>
							</parameter>
						</effect>
					</filter>
					<filter>
						<effect>
							<name>Audio Pan</name>
							<effectid>audiopan</effectid>
							<effectcategory>audiopan</effectcategory>
							<effecttype>audiopan</effecttype>
							<mediatype>audio</mediatype>
							<parameter>
								<name>Pan</name>
								<parameterid>pan</parameterid>
								<valuemin>-1</valuemin>
								<valuemax>1</valuemax>
								<value>0</value>
							</parameter>
						</effect>
					</filter>
					<sourcetrack>
						<mediatype>audio</mediatype>
						<trackindex>1</trackindex>
					</sourcetrack>
				</clipitem>
				<transitionitem id="958345272 ">
					<rate>
						<ntsc>FALSE</ntsc>
						<timebase>25</timebase>
					</rate>
					<start>41409</start>
					<end>41415</end>
					<alignment>center</alignment>
					<effect>
						<name>Cross Fade (+3dB) Copy</name>
						<effecttype>transition</effecttype>
						<mediatype>audio</mediatype>
					</effect>
				</transitionitem>
				<clipitem id="msub200012-1708k1d2006 3">
					<name>msub200012-1708k1d2006</name>
					<duration>2506</duration>
					<rate>
						<ntsc>FALSE</ntsc>
						<timebase>25</timebase>
					</rate>
					<in>1311</in>
					<out>1435</out>
					<start>-1</start>
					<end>-1</end>
					<subframeoffset>0</subframeoffset>
					<enabled>TRUE</enabled>
					<masterclipid>msub200012-1708k1d2006 1</masterclipid>
					<logginginfo>
						<description>msub200012-1708k1d2006</description>
						<scene/>
						<shottake/>
						<lognote/>
						<good>FALSE</good>
					</logginginfo>
					<labels>
						<label2/>
					</labels>
					<comments>
						<mastercomment1>RÅSTOFF. BR_FINFREDAG_MSUA_OPRO</mastercomment1>
						<mastercomment2/>
						<mastercomment3/>
						<mastercomment4/>
					</comments>
					<file id="msub200012-1708k1d2006 2"/>
					<filter>
						<start>-1</start>
						<end>-1</end>
						<effect>
							<name>3 Band Equalizer - Kristine</name>
							<effecttype>filter</effecttype>
							<mediatype>audio</mediatype>
							<parameter>
								<parameterid>Low Frequency</parameterid>
								<name>Low Frequency</name>
								<valuemin>80</valuemin>
								<valuemax>2000</valuemax>
								<value>80</value>
							</parameter>
							<parameter>
								<parameterid>Low Gain(dB)</parameterid>
								<name>Low Gain(dB)</name>
								<valuemin>-20</valuemin>
								<valuemax>20</valuemax>
								<value>-4</value>
							</parameter>
							<parameter>
								<parameterid>Mid Frequency</parameterid>
								<name>Mid Frequency</name>
								<valuemin>400</valuemin>
								<valuemax>8000</valuemax>
								<value>3602</value>
							</parameter>
							<parameter>
								<parameterid>Mid Gain(dB)</parameterid>
								<name>Mid Gain(dB)</name>
								<valuemin>-20</valuemin>
								<valuemax>20</valuemax>
								<value>3</value>
							</parameter>
							<parameter>
								<parameterid>High Frequency</parameterid>
								<name>High Frequency</name>
								<valuemin>5000</valuemin>
								<valuemax>20000</valuemax>
								<value>10354</value>
							</parameter>
							<parameter>
								<parameterid>High Gain(dB)</parameterid>
								<name>High Gain(dB)</name>
								<valuemin>-20</valuemin>
								<valuemax>20</valuemax>
								<value>0</value>
							</parameter>
						</effect>
					</filter>
					<filter>
						<effect>
							<name>Audio Levels</name>
							<effectid>audiolevels</effectid>
							<effectcategory>audiolevels</effectcategory>
							<effecttype>audiolevels</effecttype>
							<mediatype>audio</mediatype>
							<parameter>
								<name>Level</name>
								<parameterid>level</parameterid>
								<valuemin>0</valuemin>
								<valuemax>3.98109</valuemax>
								<keyframe>
									<when>423.429</when>
									<value>3.98107</value>
								</keyframe>
								<keyframe>
									<when>555.857</when>
									<value>1.99526</value>
								</keyframe>
								<keyframe>
									<when>576.429</when>
									<value>1</value>
								</keyframe>
								<keyframe>
									<when>725</when>
									<value>1</value>
								</keyframe>
								<keyframe>
									<when>745.571</when>
									<value>3.98107</value>
								</keyframe>
								<keyframe>
									<when>848.429</when>
									<value>3.98107</value>
								</keyframe>
								<keyframe>
									<when>862.143</when>
									<value>1.7285</value>
								</keyframe>
								<keyframe>
									<when>1081.57</when>
									<value>1.52431</value>
								</keyframe>
								<keyframe>
									<when>1097.57</when>
									<value>0.281838</value>
								</keyframe>
								<keyframe>
									<when>1329.21</when>
									<value>0.281838</value>
								</keyframe>
								<keyframe>
									<when>1332.44</when>
									<value>0.281838</value>
								</keyframe>
								<keyframe>
									<when>1342.96</when>
									<value>0.281838</value>
								</keyframe>
								<keyframe>
									<when>1353.98</when>
									<value>1.12202</value>
								</keyframe>
								<keyframe>
									<when>1372.13</when>
									<value>1.12202</value>
								</keyframe>
								<keyframe>
									<when>1374.17</when>
									<value>0.501187</value>
								</keyframe>
								<interpolation>
									<name>FCPCurve</name>
								</interpolation>
								<value>2.81838</value>
							</parameter>
						</effect>
					</filter>
					<filter>
						<effect>
							<name>Audio Pan</name>
							<effectid>audiopan</effectid>
							<effectcategory>audiopan</effectcategory>
							<effecttype>audiopan</effecttype>
							<mediatype>audio</mediatype>
							<parameter>
								<name>Pan</name>
								<parameterid>pan</parameterid>
								<valuemin>-1</valuemin>
								<valuemax>1</valuemax>
								<value>0</value>
							</parameter>
						</effect>
					</filter>
					<sourcetrack>
						<mediatype>audio</mediatype>
						<trackindex>1</trackindex>
					</sourcetrack>
				</clipitem>
				<transitionitem id="958335820 ">
					<rate>
						<ntsc>FALSE</ntsc>
						<timebase>25</timebase>
					</rate>
					<start>41508</start>
					<end>41533</end>
					<alignment>center</alignment>
					<effect>
						<name>Cross Fade (+3dB)</name>
						<effecttype>transition</effecttype>
						<mediatype>audio</mediatype>
					</effect>
				</transitionitem>
				<enabled>TRUE</enabled>
				<locked>FALSE</locked>
				<outputchannelindex>1</outputchannelindex>
			</track>
			<track>
				<clipitem id="msub200012-0409d1k1004 ">
					<name>msub200012-0409d1k1004</name>
					<duration>836</duration>
					<rate>
						<ntsc>FALSE</ntsc>
						<timebase>25</timebase>
					</rate>
					<in>441</in>
					<out>691</out>
					<start>0</start>
					<end>-1</end>
					<subframeoffset>0</subframeoffset>
					<enabled>TRUE</enabled>
					<masterclipid>msub200012-0409d1k1004 1</masterclipid>
					<logginginfo>
						<description>msub200012-0409d1k1004</description>
						<scene/>
						<shottake/>
						<lognote/>
						<good>FALSE</good>
					</logginginfo>
					<labels>
						<label2/>
					</labels>
					<comments>
						<mastercomment1>RÅSTOFF. BR_FINFREDAG_MSUA_OPRO</mastercomment1>
						<mastercomment2/>
						<mastercomment3/>
						<mastercomment4/>
					</comments>
					<file id="msub200012-0409d1k1004 2">
						<name>msub200012-0409d1k1004.mxf</name>
						<pathurl>file://localhost/Volumes/omfs/clip.dir/MXF/1080i/msub200012-0409d1k1004.mxf</pathurl>
						<rate>
							<timebase>25</timebase>
						</rate>
						<duration>836</duration>
						<timecode>
							<rate>
								<timebase>25</timebase>
							</rate>
							<string>10:00:45:02</string>
							<frame>901127</frame>
							<displayformat>NDF</displayformat>
							<source>source</source>
						</timecode>
						<media>
							<video>
								<duration>836</duration>
								<samplecharacteristics>
									<width>1920</width>
									<height>1080</height>
								</samplecharacteristics>
							</video>
							<audio>
								<rate>
									<timebase>48000</timebase>
								</rate>
								<trackcount>1</trackcount>
								<samplecharacteristics>
									<depth>24</depth>
								</samplecharacteristics>
							</audio>
						</media>
					</file>
					<filter>
						<enabled>TRUE</enabled>
						<start>-1</start>
						<end>-1</end>
						<effect>
							<name>3 Band Equalizer - Kristine</name>
							<effecttype>filter</effecttype>
							<mediatype>audio</mediatype>
							<parameter>
								<parameterid>Low Frequency</parameterid>
								<name>Low Frequency</name>
								<valuemin>80</valuemin>
								<valuemax>2000</valuemax>
								<value>80</value>
							</parameter>
							<parameter>
								<parameterid>Low Gain(dB)</parameterid>
								<name>Low Gain(dB)</name>
								<valuemin>-20</valuemin>
								<valuemax>20</valuemax>
								<value>-4</value>
							</parameter>
							<parameter>
								<parameterid>Mid Frequency</parameterid>
								<name>Mid Frequency</name>
								<valuemin>400</valuemin>
								<valuemax>8000</valuemax>
								<value>3602</value>
							</parameter>
							<parameter>
								<parameterid>Mid Gain(dB)</parameterid>
								<name>Mid Gain(dB)</name>
								<valuemin>-20</valuemin>
								<valuemax>20</valuemax>
								<value>3</value>
							</parameter>
							<parameter>
								<parameterid>High Frequency</parameterid>
								<name>High Frequency</name>
								<valuemin>5000</valuemin>
								<valuemax>20000</valuemax>
								<value>10354</value>
							</parameter>
							<parameter>
								<parameterid>High Gain(dB)</parameterid>
								<name>High Gain(dB)</name>
								<valuemin>-20</valuemin>
								<valuemax>20</valuemax>
								<value>0</value>
							</parameter>
						</effect>
					</filter>
					<filter>
						<effect>
							<name>Audio Levels</name>
							<effectid>audiolevels</effectid>
							<effectcategory>audiolevels</effectcategory>
							<effecttype>audiolevels</effecttype>
							<mediatype>audio</mediatype>
							<parameter>
								<name>Level</name>
								<parameterid>level</parameterid>
								<valuemin>0</valuemin>
								<valuemax>3.98109</valuemax>
								<value>1.41254</value>
							</parameter>
						</effect>
					</filter>
					<filter>
						<effect>
							<name>Audio Pan</name>
							<effectid>audiopan</effectid>
							<effectcategory>audiopan</effectcategory>
							<effecttype>audiopan</effecttype>
							<mediatype>audio</mediatype>
							<parameter>
								<name>Pan</name>
								<parameterid>pan</parameterid>
								<valuemin>-1</valuemin>
								<valuemax>1</valuemax>
								<value>0</value>
							</parameter>
						</effect>
					</filter>
					<sourcetrack>
						<mediatype>audio</mediatype>
						<trackindex>2</trackindex>
					</sourcetrack>
				</clipitem>
				<transitionitem id="958326028 ">
					<rate>
						<ntsc>FALSE</ntsc>
						<timebase>25</timebase>
					</rate>
					<start>238</start>
					<end>250</end>
					<alignment>center</alignment>
					<effect>
						<name>Cross Fade (+3dB) Copy</name>
						<effecttype>transition</effecttype>
						<mediatype>audio</mediatype>
					</effect>
				</transitionitem>
				<transitionitem id="958330516 ">
					<rate>
						<ntsc>FALSE</ntsc>
						<timebase>25</timebase>
					</rate>
					<start>1028</start>
					<end>1030</end>
					<alignment>start-black</alignment>
					<effect>
						<name>Cross Fade (+3dB) Copy</name>
						<effecttype>transition</effecttype>
						<mediatype>audio</mediatype>
					</effect>
				</transitionitem>
				<clipitem id="msub200012-0409d1k1006 3">
					<name>msub200012-0409d1k1006</name>
					<duration>4463</duration>
					<rate>
						<ntsc>FALSE</ntsc>
						<timebase>25</timebase>
					</rate>
					<in>1035</in>
					<out>1949</out>
					<start>-1</start>
					<end>-1</end>
					<subframeoffset>0</subframeoffset>
					<enabled>TRUE</enabled>
					<masterclipid>msub200012-0409d1k1006 1</masterclipid>
					<syncoffset>0</syncoffset>
					<logginginfo>
						<description>msub200012-0409d1k1006</description>
						<scene/>
						<shottake/>
						<lognote/>
						<good>FALSE</good>
					</logginginfo>
					<labels>
						<label>Good Take</label>
						<label2/>
					</labels>
					<comments>
						<mastercomment1>RÅSTOFF. BR_FINFREDAG_MSUA_OPRO</mastercomment1>
						<mastercomment2/>
						<mastercomment3/>
						<mastercomment4/>
					</comments>
					<file id="msub200012-0409d1k1006 2"/>
					<filter>
						<enabled>TRUE</enabled>
						<start>-1</start>
						<end>-1</end>
						<effect>
							<name>3 Band Equalizer - Kristine</name>
							<effecttype>filter</effecttype>
							<mediatype>audio</mediatype>
							<parameter>
								<parameterid>Low Frequency</parameterid>
								<name>Low Frequency</name>
								<valuemin>80</valuemin>
								<valuemax>2000</valuemax>
								<value>80</value>
							</parameter>
							<parameter>
								<parameterid>Low Gain(dB)</parameterid>
								<name>Low Gain(dB)</name>
								<valuemin>-20</valuemin>
								<valuemax>20</valuemax>
								<value>-4</value>
							</parameter>
							<parameter>
								<parameterid>Mid Frequency</parameterid>
								<name>Mid Frequency</name>
								<valuemin>400</valuemin>
								<valuemax>8000</valuemax>
								<value>3602</value>
							</parameter>
							<parameter>
								<parameterid>Mid Gain(dB)</parameterid>
								<name>Mid Gain(dB)</name>
								<valuemin>-20</valuemin>
								<valuemax>20</valuemax>
								<value>3</value>
							</parameter>
							<parameter>
								<parameterid>High Frequency</parameterid>
								<name>High Frequency</name>
								<valuemin>5000</valuemin>
								<valuemax>20000</valuemax>
								<value>10354</value>
							</parameter>
							<parameter>
								<parameterid>High Gain(dB)</parameterid>
								<name>High Gain(dB)</name>
								<valuemin>-20</valuemin>
								<valuemax>20</valuemax>
								<value>0</value>
							</parameter>
						</effect>
					</filter>
					<filter>
						<effect>
							<name>Audio Levels</name>
							<effectid>audiolevels</effectid>
							<effectcategory>audiolevels</effectcategory>
							<effecttype>audiolevels</effecttype>
							<mediatype>audio</mediatype>
							<parameter>
								<name>Level</name>
								<parameterid>level</parameterid>
								<valuemin>0</valuemin>
								<valuemax>3.98109</valuemax>
								<keyframe>
									<when>1072.14</when>
									<value>1.41254</value>
								</keyframe>
								<keyframe>
									<when>1079.86</when>
									<value>1.77828</value>
								</keyframe>
								<keyframe>
									<when>1265.29</when>
									<value>1.77828</value>
								</keyframe>
								<keyframe>
									<when>1273.29</when>
									<value>1.99526</value>
								</keyframe>
								<keyframe>
									<when>1335</when>
									<value>1.99526</value>
								</keyframe>
								<keyframe>
									<when>1346.43</when>
									<value>1.77828</value>
								</keyframe>
								<keyframe>
									<when>1750.56</when>
									<value>1.77828</value>
								</keyframe>
								<keyframe>
									<when>1760.88</when>
									<value>0.0501187</value>
								</keyframe>
								<keyframe>
									<when>1791.57</when>
									<value>0.0501187</value>
								</keyframe>
								<keyframe>
									<when>1801.81</when>
									<value>1.25893</value>
								</keyframe>
								<interpolation>
									<name>FCPCurve</name>
								</interpolation>
								<value>1.77828</value>
							</parameter>
						</effect>
					</filter>
					<filter>
						<effect>
							<name>Audio Pan</name>
							<effectid>audiopan</effectid>
							<effectcategory>audiopan</effectcategory>
							<effecttype>audiopan</effecttype>
							<mediatype>audio</mediatype>
							<parameter>
								<name>Pan</name>
								<parameterid>pan</parameterid>
								<valuemin>-1</valuemin>
								<valuemax>1</valuemax>
								<value>0</value>
							</parameter>
						</effect>
					</filter>
					<sourcetrack>
						<mediatype>audio</mediatype>
						<trackindex>2</trackindex>
					</sourcetrack>
				</clipitem>
				<transitionitem id="958329632 ">
					<rate>
						<ntsc>FALSE</ntsc>
						<timebase>25</timebase>
					</rate>
					<start>1941</start>
					<end>1942</end>
					<alignment>end-black</alignment>
					<effect>
						<name>Cross Fade ( 0dB)</name>
						<effecttype>transition</effecttype>
						<mediatype>audio</mediatype>
					</effect>
				</transitionitem>
				<transitionitem id="958331060 ">
					<rate>
						<ntsc>FALSE</ntsc>
						<timebase>25</timebase>
					</rate>
					<start>2365</start>
					<end>2369</end>
					<alignment>start-black</alignment>
					<effect>
						<name>Cross Fade (+3dB) Copy</name>
						<effecttype>transition</effecttype>
						<mediatype>audio</mediatype>
					</effect>
				</transitionitem>
				<clipitem id="msub200012-0409d1k1006 4">
					<name>msub200012-0409d1k1006</name>
					<duration>4463</duration>
					<rate>
						<ntsc>FALSE</ntsc>
						<timebase>25</timebase>
					</rate>
					<in>4101</in>
					<out>4321</out>
					<start>-1</start>
					<end>-1</end>
					<subframeoffset>0</subframeoffset>
					<enabled>TRUE</enabled>
					<masterclipid>msub200012-0409d1k1006 1</masterclipid>
					<syncoffset>0</syncoffset>
					<logginginfo>
						<description>msub200012-0409d1k1006</description>
						<scene/>
						<shottake/>
						<lognote/>
						<good>FALSE</good>
					</logginginfo>
					<labels>
						<label>Good Take</label>
						<label2/>
					</labels>
					<comments>
						<mastercomment1>RÅSTOFF. BR_FINFREDAG_MSUA_OPRO</mastercomment1>
						<mastercomment2/>
						<mastercomment3/>
						<mastercomment4/>
					</comments>
					<file id="msub200012-0409d1k1006 2"/>
					<filter>
						<enabled>TRUE</enabled>
						<start>-1</start>
						<end>-1</end>
						<effect>
							<name>3 Band Equalizer - Kristine</name>
							<effecttype>filter</effecttype>
							<mediatype>audio</mediatype>
							<parameter>
								<parameterid>Low Frequency</parameterid>
								<name>Low Frequency</name>
								<valuemin>80</valuemin>
								<valuemax>2000</valuemax>
								<value>100</value>
							</parameter>
							<parameter>
								<parameterid>Low Gain(dB)</parameterid>
								<name>Low Gain(dB)</name>
								<valuemin>-20</valuemin>
								<valuemax>20</valuemax>
								<value>-4</value>
							</parameter>
							<parameter>
								<parameterid>Mid Frequency</parameterid>
								<name>Mid Frequency</name>
								<valuemin>400</valuemin>
								<valuemax>8000</valuemax>
								<value>3602</value>
							</parameter>
							<parameter>
								<parameterid>Mid Gain(dB)</parameterid>
								<name>Mid Gain(dB)</name>
								<valuemin>-20</valuemin>
								<valuemax>20</valuemax>
								<value>3</value>
							</parameter>
							<parameter>
								<parameterid>High Frequency</parameterid>
								<name>High Frequency</name>
								<valuemin>5000</valuemin>
								<valuemax>20000</valuemax>
								<value>10354</value>
							</parameter>
							<parameter>
								<parameterid>High Gain(dB)</parameterid>
								<name>High Gain(dB)</name>
								<valuemin>-20</valuemin>
								<valuemax>20</valuemax>
								<value>0</value>
							</parameter>
						</effect>
					</filter>
					<filter>
						<effect>
							<name>Audio Levels</name>
							<effectid>audiolevels</effectid>
							<effectcategory>audiolevels</effectcategory>
							<effecttype>audiolevels</effecttype>
							<mediatype>audio</mediatype>
							<parameter>
								<name>Level</name>
								<parameterid>level</parameterid>
								<valuemin>0</valuemin>
								<valuemax>3.98109</valuemax>
								<value>1.41254</value>
							</parameter>
						</effect>
					</filter>
					<filter>
						<effect>
							<name>Audio Pan</name>
							<effectid>audiopan</effectid>
							<effectcategory>audiopan</effectcategory>
							<effecttype>audiopan</effecttype>
							<mediatype>audio</mediatype>
							<parameter>
								<name>Pan</name>
								<parameterid>pan</parameterid>
								<valuemin>-1</valuemin>
								<valuemax>1</valuemax>
								<value>0</value>
							</parameter>
						</effect>
					</filter>
					<sourcetrack>
						<mediatype>audio</mediatype>
						<trackindex>2</trackindex>
					</sourcetrack>
					<link>
						<linkclipref>msub200012-0409d1k1006 4</linkclipref>
						<mediatype>audio</mediatype>
						<trackindex>2</trackindex>
						<clipindex>7</clipindex>
					</link>
				</clipitem>
				<transitionitem id="959531580 ">
					<rate>
						<ntsc>FALSE</ntsc>
						<timebase>25</timebase>
					</rate>
					<start>2583</start>
					<end>2585</end>
					<alignment>center</alignment>
					<effect>
						<name>Cross Fade (+3dB) Copy</name>
						<effecttype>transition</effecttype>
						<mediatype>audio</mediatype>
					</effect>
				</transitionitem>
				<clipitem id="msub200012-0409d1k1009 3">
					<name>msub200012-0409d1k1009</name>
					<duration>6330</duration>
					<rate>
						<ntsc>FALSE</ntsc>
						<timebase>25</timebase>
					</rate>
					<in>1816</in>
					<out>1915</out>
					<start>-1</start>
					<end>-1</end>
					<subframeoffset>0</subframeoffset>
					<enabled>TRUE</enabled>
					<masterclipid>msub200012-0409d1k1009 1</masterclipid>
					<syncoffset>0</syncoffset>
					<logginginfo>
						<description>msub200012-0409d1k1009</description>
						<scene/>
						<shottake/>
						<lognote/>
						<good>FALSE</good>
					</logginginfo>
					<labels>
						<label>Interviews</label>
						<label2/>
					</labels>
					<comments>
						<mastercomment1>RÅSTOFF. BR_FINFREDAG_MSUA_OPRO</mastercomment1>
						<mastercomment2/>
						<mastercomment3/>
						<mastercomment4/>
					</comments>
					<file id="msub200012-0409d1k1009 2"/>
					<filter>
						<enabled>TRUE</enabled>
						<start>-1</start>
						<end>-1</end>
						<effect>
							<name>3 Band Equalizer - Kristine</name>
							<effecttype>filter</effecttype>
							<mediatype>audio</mediatype>
							<parameter>
								<parameterid>Low Frequency</parameterid>
								<name>Low Frequency</name>
								<valuemin>80</valuemin>
								<valuemax>2000</valuemax>
								<value>80</value>
							</parameter>
							<parameter>
								<parameterid>Low Gain(dB)</parameterid>
								<name>Low Gain(dB)</name>
								<valuemin>-20</valuemin>
								<valuemax>20</valuemax>
								<value>-4</value>
							</parameter>
							<parameter>
								<parameterid>Mid Frequency</parameterid>
								<name>Mid Frequency</name>
								<valuemin>400</valuemin>
								<valuemax>8000</valuemax>
								<value>3602</value>
							</parameter>
							<parameter>
								<parameterid>Mid Gain(dB)</parameterid>
								<name>Mid Gain(dB)</name>
								<valuemin>-20</valuemin>
								<valuemax>20</valuemax>
								<value>3</value>
							</parameter>
							<parameter>
								<parameterid>High Frequency</parameterid>
								<name>High Frequency</name>
								<valuemin>5000</valuemin>
								<valuemax>20000</valuemax>
								<value>10354</value>
							</parameter>
							<parameter>
								<parameterid>High Gain(dB)</parameterid>
								<name>High Gain(dB)</name>
								<valuemin>-20</valuemin>
								<valuemax>20</valuemax>
								<value>0</value>
							</parameter>
						</effect>
					</filter>
					<filter>
						<effect>
							<name>Audio Levels</name>
							<effectid>audiolevels</effectid>
							<effectcategory>audiolevels</effectcategory>
							<effecttype>audiolevels</effecttype>
							<mediatype>audio</mediatype>
							<parameter>
								<name>Level</name>
								<parameterid>level</parameterid>
								<valuemin>0</valuemin>
								<valuemax>3.98109</valuemax>
								<value>1.41254</value>
							</parameter>
						</effect>
					</filter>
					<filter>
						<effect>
							<name>Audio Pan</name>
							<effectid>audiopan</effectid>
							<effectcategory>audiopan</effectcategory>
							<effecttype>audiopan</effecttype>
							<mediatype>audio</mediatype>
							<parameter>
								<name>Pan</name>
								<parameterid>pan</parameterid>
								<valuemin>-1</valuemin>
								<valuemax>1</valuemax>
								<value>0</value>
							</parameter>
						</effect>
					</filter>
					<sourcetrack>
						<mediatype>audio</mediatype>
						<trackindex>2</trackindex>
					</sourcetrack>
				</clipitem>
				<transitionitem id="959521312 ">
					<rate>
						<ntsc>FALSE</ntsc>
						<timebase>25</timebase>
					</rate>
					<start>2680</start>
					<end>2682</end>
					<alignment>center</alignment>
					<effect>
						<name>Cross Fade (+3dB) Copy</name>
						<effecttype>transition</effecttype>
						<mediatype>audio</mediatype>
					</effect>
				</transitionitem>
				<clipitem id="msub200012-0409d1k1009 4">
					<name>msub200012-0409d1k1009</name>
					<duration>6330</duration>
					<rate>
						<ntsc>FALSE</ntsc>
						<timebase>25</timebase>
					</rate>
					<in>1937</in>
					<out>2277</out>
					<start>-1</start>
					<end>-1</end>
					<subframeoffset>0</subframeoffset>
					<enabled>TRUE</enabled>
					<masterclipid>msub200012-0409d1k1009 1</masterclipid>
					<syncoffset>0</syncoffset>
					<logginginfo>
						<description>msub200012-0409d1k1009</description>
						<scene/>
						<shottake/>
						<lognote/>
						<good>FALSE</good>
					</logginginfo>
					<labels>
						<label>Interviews</label>
						<label2/>
					</labels>
					<comments>
						<mastercomment1>RÅSTOFF. BR_FINFREDAG_MSUA_OPRO</mastercomment1>
						<mastercomment2/>
						<mastercomment3/>
						<mastercomment4/>
					</comments>
					<file id="msub200012-0409d1k1009 2"/>
					<filter>
						<enabled>TRUE</enabled>
						<start>-1</start>
						<end>-1</end>
						<effect>
							<name>3 Band Equalizer - Mann</name>
							<effecttype>filter</effecttype>
							<mediatype>audio</mediatype>
							<parameter>
								<parameterid>Low Frequency</parameterid>
								<name>Low Frequency</name>
								<valuemin>80</valuemin>
								<valuemax>2000</valuemax>
								<value>100</value>
							</parameter>
							<parameter>
								<parameterid>Low Gain(dB)</parameterid>
								<name>Low Gain(dB)</name>
								<valuemin>-20</valuemin>
								<valuemax>20</valuemax>
								<value>-4</value>
							</parameter>
							<parameter>
								<parameterid>Mid Frequency</parameterid>
								<name>Mid Frequency</name>
								<valuemin>400</valuemin>
								<valuemax>8000</valuemax>
								<value>3602</value>
							</parameter>
							<parameter>
								<parameterid>Mid Gain(dB)</parameterid>
								<name>Mid Gain(dB)</name>
								<valuemin>-20</valuemin>
								<valuemax>20</valuemax>
								<value>3</value>
							</parameter>
							<parameter>
								<parameterid>High Frequency</parameterid>
								<name>High Frequency</name>
								<valuemin>5000</valuemin>
								<valuemax>20000</valuemax>
								<value>10354</value>
							</parameter>
							<parameter>
								<parameterid>High Gain(dB)</parameterid>
								<name>High Gain(dB)</name>
								<valuemin>-20</valuemin>
								<valuemax>20</valuemax>
								<value>0</value>
							</parameter>
						</effect>
					</filter>
					<filter>
						<effect>
							<name>Audio Levels</name>
							<effectid>audiolevels</effectid>
							<effectcategory>audiolevels</effectcategory>
							<effecttype>audiolevels</effecttype>
							<mediatype>audio</mediatype>
							<parameter>
								<name>Level</name>
								<parameterid>level</parameterid>
								<valuemin>0</valuemin>
								<valuemax>3.98109</valuemax>
								<value>1.41254</value>
							</parameter>
						</effect>
					</filter>
					<filter>
						<effect>
							<name>Audio Pan</name>
							<effectid>audiopan</effectid>
							<effectcategory>audiopan</effectcategory>
							<effecttype>audiopan</effecttype>
							<mediatype>audio</mediatype>
							<parameter>
								<name>Pan</name>
								<parameterid>pan</parameterid>
								<valuemin>-1</valuemin>
								<valuemax>1</valuemax>
								<value>0</value>
							</parameter>
						</effect>
					</filter>
					<sourcetrack>
						<mediatype>audio</mediatype>
						<trackindex>2</trackindex>
					</sourcetrack>
				</clipitem>
				<transitionitem id="959516552 ">
					<rate>
						<ntsc>FALSE</ntsc>
						<timebase>25</timebase>
					</rate>
					<start>3019</start>
					<end>3020</end>
					<alignment>center</alignment>
					<effect>
						<name>Cross Fade ( 0dB)</name>
						<effecttype>transition</effecttype>
						<mediatype>audio</mediatype>
					</effect>
				</transitionitem>
				<clipitem id="msub200012-0409d1k1009 5">
					<name>msub200012-0409d1k1009</name>
					<duration>6330</duration>
					<rate>
						<ntsc>FALSE</ntsc>
						<timebase>25</timebase>
					</rate>
					<in>2462</in>
					<out>2588</out>
					<start>-1</start>
					<end>-1</end>
					<subframeoffset>0</subframeoffset>
					<masterclipid>msub200012-0409d1k1009 1</masterclipid>
					<syncoffset>0</syncoffset>
					<logginginfo>
						<description>msub200012-0409d1k1009</description>
						<scene/>
						<shottake/>
						<lognote/>
						<good>FALSE</good>
					</logginginfo>
					<labels>
						<label>Interviews</label>
						<label2/>
					</labels>
					<comments>
						<mastercomment1>RÅSTOFF. BR_FINFREDAG_MSUA_OPRO</mastercomment1>
						<mastercomment2/>
						<mastercomment3/>
						<mastercomment4/>
					</comments>
					<file id="msub200012-0409d1k1009 2"/>
					<filter>
						<start>-1</start>
						<end>-1</end>
						<effect>
							<name>3 Band Equalizer - Mann</name>
							<effecttype>filter</effecttype>
							<mediatype>audio</mediatype>
							<parameter>
								<parameterid>Low Frequency</parameterid>
								<name>Low Frequency</name>
								<valuemin>80</valuemin>
								<valuemax>2000</valuemax>
								<value>100</value>
							</parameter>
							<parameter>
								<parameterid>Low Gain(dB)</parameterid>
								<name>Low Gain(dB)</name>
								<valuemin>-20</valuemin>
								<valuemax>20</valuemax>
								<value>-4</value>
							</parameter>
							<parameter>
								<parameterid>Mid Frequency</parameterid>
								<name>Mid Frequency</name>
								<valuemin>400</valuemin>
								<valuemax>8000</valuemax>
								<value>3602</value>
							</parameter>
							<parameter>
								<parameterid>Mid Gain(dB)</parameterid>
								<name>Mid Gain(dB)</name>
								<valuemin>-20</valuemin>
								<valuemax>20</valuemax>
								<value>3</value>
							</parameter>
							<parameter>
								<parameterid>High Frequency</parameterid>
								<name>High Frequency</name>
								<valuemin>5000</valuemin>
								<valuemax>20000</valuemax>
								<value>10354</value>
							</parameter>
							<parameter>
								<parameterid>High Gain(dB)</parameterid>
								<name>High Gain(dB)</name>
								<valuemin>-20</valuemin>
								<valuemax>20</valuemax>
								<value>0</value>
							</parameter>
						</effect>
					</filter>
					<filter>
						<effect>
							<name>Audio Levels</name>
							<effectid>audiolevels</effectid>
							<effectcategory>audiolevels</effectcategory>
							<effecttype>audiolevels</effecttype>
							<mediatype>audio</mediatype>
							<parameter>
								<name>Level</name>
								<parameterid>level</parameterid>
								<valuemin>0</valuemin>
								<valuemax>3.98109</valuemax>
								<keyframe>
									<when>2521.64</when>
									<value>1.41254</value>
								</keyframe>
								<keyframe>
									<when>2535</when>
									<value>1.58489</value>
								</keyframe>
								<interpolation>
									<name>FCPCurve</name>
								</interpolation>
								<value>1.41254</value>
							</parameter>
						</effect>
					</filter>
					<filter>
						<effect>
							<name>Audio Pan</name>
							<effectid>audiopan</effectid>
							<effectcategory>audiopan</effectcategory>
							<effecttype>audiopan</effecttype>
							<mediatype>audio</mediatype>
							<parameter>
								<name>Pan</name>
								<parameterid>pan</parameterid>
								<valuemin>-1</valuemin>
								<valuemax>1</valuemax>
								<value>0</value>
							</parameter>
						</effect>
					</filter>
					<sourcetrack>
						<mediatype>audio</mediatype>
						<trackindex>2</trackindex>
					</sourcetrack>
				</clipitem>
				<transitionitem id="66614372 ">
					<rate>
						<ntsc>FALSE</ntsc>
						<timebase>25</timebase>
					</rate>
					<start>3143</start>
					<end>3145</end>
					<alignment>center</alignment>
					<effect>
						<name>Cross Fade (+3dB) Copy</name>
						<effecttype>transition</effecttype>
						<mediatype>audio</mediatype>
					</effect>
				</transitionitem>
				<clipitem id="msub200012-0409d1k1009 6">
					<name>msub200012-0409d1k1009</name>
					<duration>6330</duration>
					<rate>
						<ntsc>FALSE</ntsc>
						<timebase>25</timebase>
					</rate>
					<in>3817</in>
					<out>4064</out>
					<start>-1</start>
					<end>-1</end>
					<subframeoffset>0</subframeoffset>
					<masterclipid>msub200012-0409d1k1009 1</masterclipid>
					<syncoffset>0</syncoffset>
					<logginginfo>
						<description>msub200012-0409d1k1009</description>
						<scene/>
						<shottake/>
						<lognote/>
						<good>FALSE</good>
					</logginginfo>
					<labels>
						<label>Interviews</label>
						<label2/>
					</labels>
					<comments>
						<mastercomment1>RÅSTOFF. BR_FINFREDAG_MSUA_OPRO</mastercomment1>
						<mastercomment2/>
						<mastercomment3/>
						<mastercomment4/>
					</comments>
					<file id="msub200012-0409d1k1009 2"/>
					<filter>
						<start>-1</start>
						<end>-1</end>
						<effect>
							<name>3 Band Equalizer - Mann</name>
							<effecttype>filter</effecttype>
							<mediatype>audio</mediatype>
							<parameter>
								<parameterid>Low Frequency</parameterid>
								<name>Low Frequency</name>
								<valuemin>80</valuemin>
								<valuemax>2000</valuemax>
								<value>100</value>
							</parameter>
							<parameter>
								<parameterid>Low Gain(dB)</parameterid>
								<name>Low Gain(dB)</name>
								<valuemin>-20</valuemin>
								<valuemax>20</valuemax>
								<value>-4</value>
							</parameter>
							<parameter>
								<parameterid>Mid Frequency</parameterid>
								<name>Mid Frequency</name>
								<valuemin>400</valuemin>
								<valuemax>8000</valuemax>
								<value>3602</value>
							</parameter>
							<parameter>
								<parameterid>Mid Gain(dB)</parameterid>
								<name>Mid Gain(dB)</name>
								<valuemin>-20</valuemin>
								<valuemax>20</valuemax>
								<value>3</value>
							</parameter>
							<parameter>
								<parameterid>High Frequency</parameterid>
								<name>High Frequency</name>
								<valuemin>5000</valuemin>
								<valuemax>20000</valuemax>
								<value>10354</value>
							</parameter>
							<parameter>
								<parameterid>High Gain(dB)</parameterid>
								<name>High Gain(dB)</name>
								<valuemin>-20</valuemin>
								<valuemax>20</valuemax>
								<value>0</value>
							</parameter>
						</effect>
					</filter>
					<filter>
						<effect>
							<name>Audio Levels</name>
							<effectid>audiolevels</effectid>
							<effectcategory>audiolevels</effectcategory>
							<effecttype>audiolevels</effecttype>
							<mediatype>audio</mediatype>
							<parameter>
								<name>Level</name>
								<parameterid>level</parameterid>
								<valuemin>0</valuemin>
								<valuemax>3.98109</valuemax>
								<keyframe>
									<when>4061.18</when>
									<value>1.25893</value>
								</keyframe>
								<keyframe>
									<when>4061.75</when>
									<value>1</value>
								</keyframe>
								<interpolation>
									<name>FCPCurve</name>
								</interpolation>
								<value>1.25893</value>
							</parameter>
						</effect>
					</filter>
					<filter>
						<effect>
							<name>Audio Pan</name>
							<effectid>audiopan</effectid>
							<effectcategory>audiopan</effectcategory>
							<effecttype>audiopan</effecttype>
							<mediatype>audio</mediatype>
							<parameter>
								<name>Pan</name>
								<parameterid>pan</parameterid>
								<valuemin>-1</valuemin>
								<valuemax>1</valuemax>
								<value>0</value>
							</parameter>
						</effect>
					</filter>
					<sourcetrack>
						<mediatype>audio</mediatype>
						<trackindex>2</trackindex>
					</sourcetrack>
				</clipitem>
				<transitionitem id="66601520 ">
					<rate>
						<ntsc>FALSE</ntsc>
						<timebase>25</timebase>
					</rate>
					<start>3388</start>
					<end>3390</end>
					<alignment>center</alignment>
					<effect>
						<name>Cross Fade (+3dB) Copy</name>
						<effecttype>transition</effecttype>
						<mediatype>audio</mediatype>
					</effect>
				</transitionitem>
				<clipitem id="msub200012-0409d1k1009 7">
					<name>msub200012-0409d1k1009</name>
					<duration>6314</duration>
					<rate>
						<ntsc>FALSE</ntsc>
						<timebase>25</timebase>
					</rate>
					<in>4104</in>
					<out>4109</out>
					<start>-1</start>
					<end>-1</end>
					<subframeoffset>0</subframeoffset>
					<masterclipid>msub200012-0409d1k1009 1</masterclipid>
					<logginginfo>
						<description>msub200012-0409d1k1009</description>
						<scene/>
						<shottake/>
						<lognote/>
						<good>FALSE</good>
					</logginginfo>
					<labels>
						<label>Interviews</label>
						<label2/>
					</labels>
					<comments>
						<mastercomment1>RÅSTOFF. BR_FINFREDAG_MSUA_OPRO</mastercomment1>
						<mastercomment2/>
						<mastercomment3/>
						<mastercomment4/>
					</comments>
					<file id="msub200012-0409d1k1009 2"/>
					<filter>
						<effect>
							<name>Audio Levels</name>
							<effectid>audiolevels</effectid>
							<effectcategory>audiolevels</effectcategory>
							<effecttype>audiolevels</effecttype>
							<mediatype>audio</mediatype>
							<parameter>
								<name>Level</name>
								<parameterid>level</parameterid>
								<valuemin>0</valuemin>
								<valuemax>3.98109</valuemax>
								<value>1.25893</value>
							</parameter>
						</effect>
					</filter>
					<filter>
						<effect>
							<name>Audio Pan</name>
							<effectid>audiopan</effectid>
							<effectcategory>audiopan</effectcategory>
							<effecttype>audiopan</effecttype>
							<mediatype>audio</mediatype>
							<parameter>
								<name>Pan</name>
								<parameterid>pan</parameterid>
								<valuemin>-1</valuemin>
								<valuemax>1</valuemax>
								<value>0</value>
							</parameter>
						</effect>
					</filter>
					<sourcetrack>
						<mediatype>audio</mediatype>
						<trackindex>2</trackindex>
					</sourcetrack>
				</clipitem>
				<transitionitem id="66599276 ">
					<rate>
						<ntsc>FALSE</ntsc>
						<timebase>25</timebase>
					</rate>
					<start>3391</start>
					<end>3393</end>
					<alignment>end-black</alignment>
					<effect>
						<name>Cross Fade (+3dB) Copy</name>
						<effecttype>transition</effecttype>
						<mediatype>audio</mediatype>
					</effect>
				</transitionitem>
				<transitionitem id="66599004 ">
					<rate>
						<ntsc>FALSE</ntsc>
						<timebase>25</timebase>
					</rate>
					<start>4056</start>
					<end>4062</end>
					<alignment>start-black</alignment>
					<effect>
						<name>Cross Fade (+3dB) Copy</name>
						<effecttype>transition</effecttype>
						<mediatype>audio</mediatype>
					</effect>
				</transitionitem>
				<clipitem id="msub200012-0409d2k1002 15">
					<name>msub200012-0409d2k1002</name>
					<duration>10180</duration>
					<rate>
						<ntsc>FALSE</ntsc>
						<timebase>25</timebase>
					</rate>
					<in>536</in>
					<out>721</out>
					<start>-1</start>
					<end>-1</end>
					<subframeoffset>0</subframeoffset>
					<enabled>TRUE</enabled>
					<masterclipid>msub200012-0409d2k1002 1</masterclipid>
					<syncoffset>0</syncoffset>
					<logginginfo>
						<description>msub200012-0409d2k1002</description>
						<scene/>
						<shottake/>
						<lognote/>
						<good>FALSE</good>
					</logginginfo>
					<labels>
						<label>Best Take</label>
						<label2/>
					</labels>
					<comments>
						<mastercomment1>RÅSTOFF. BR_FINFREDAG_MSUA_OPRO</mastercomment1>
						<mastercomment2/>
						<mastercomment3/>
						<mastercomment4/>
					</comments>
					<file id="msub200012-0409d2k1002 2"/>
					<filter>
						<enabled>TRUE</enabled>
						<start>-1</start>
						<end>-1</end>
						<effect>
							<name>3 Band Equalizer - Kristine</name>
							<effecttype>filter</effecttype>
							<mediatype>audio</mediatype>
							<parameter>
								<parameterid>Low Frequency</parameterid>
								<name>Low Frequency</name>
								<valuemin>80</valuemin>
								<valuemax>2000</valuemax>
								<value>80</value>
							</parameter>
							<parameter>
								<parameterid>Low Gain(dB)</parameterid>
								<name>Low Gain(dB)</name>
								<valuemin>-20</valuemin>
								<valuemax>20</valuemax>
								<value>-4</value>
							</parameter>
							<parameter>
								<parameterid>Mid Frequency</parameterid>
								<name>Mid Frequency</name>
								<valuemin>400</valuemin>
								<valuemax>8000</valuemax>
								<value>3602</value>
							</parameter>
							<parameter>
								<parameterid>Mid Gain(dB)</parameterid>
								<name>Mid Gain(dB)</name>
								<valuemin>-20</valuemin>
								<valuemax>20</valuemax>
								<value>3</value>
							</parameter>
							<parameter>
								<parameterid>High Frequency</parameterid>
								<name>High Frequency</name>
								<valuemin>5000</valuemin>
								<valuemax>20000</valuemax>
								<value>10354</value>
							</parameter>
							<parameter>
								<parameterid>High Gain(dB)</parameterid>
								<name>High Gain(dB)</name>
								<valuemin>-20</valuemin>
								<valuemax>20</valuemax>
								<value>0</value>
							</parameter>
						</effect>
					</filter>
					<filter>
						<effect>
							<name>Audio Levels</name>
							<effectid>audiolevels</effectid>
							<effectcategory>audiolevels</effectcategory>
							<effecttype>audiolevels</effecttype>
							<mediatype>audio</mediatype>
							<parameter>
								<name>Level</name>
								<parameterid>level</parameterid>
								<valuemin>0</valuemin>
								<valuemax>3.98109</valuemax>
								<keyframe>
									<when>636.429</when>
									<value>0.281838</value>
								</keyframe>
								<keyframe>
									<when>677.571</when>
									<value>1.41254</value>
								</keyframe>
								<interpolation>
									<name>FCPCurve</name>
								</interpolation>
								<value>0.281838</value>
							</parameter>
						</effect>
					</filter>
					<filter>
						<effect>
							<name>Audio Pan</name>
							<effectid>audiopan</effectid>
							<effectcategory>audiopan</effectcategory>
							<effecttype>audiopan</effecttype>
							<mediatype>audio</mediatype>
							<parameter>
								<name>Pan</name>
								<parameterid>pan</parameterid>
								<valuemin>-1</valuemin>
								<valuemax>1</valuemax>
								<value>0</value>
							</parameter>
						</effect>
					</filter>
					<sourcetrack>
						<mediatype>audio</mediatype>
						<trackindex>2</trackindex>
					</sourcetrack>
				</clipitem>
				<transitionitem id="66596760 ">
					<rate>
						<ntsc>FALSE</ntsc>
						<timebase>25</timebase>
					</rate>
					<start>4239</start>
					<end>4241</end>
					<alignment>center</alignment>
					<effect>
						<name>Cross Fade (+3dB) Copy</name>
						<effecttype>transition</effecttype>
						<mediatype>audio</mediatype>
					</effect>
				</transitionitem>
				<clipitem id="msub200012-0409d2k1002 4">
					<name>msub200012-0409d2k1002</name>
					<duration>10180</duration>
					<rate>
						<ntsc>FALSE</ntsc>
						<timebase>25</timebase>
					</rate>
					<in>872</in>
					<out>1272</out>
					<start>-1</start>
					<end>-1</end>
					<subframeoffset>0</subframeoffset>
					<enabled>TRUE</enabled>
					<masterclipid>msub200012-0409d2k1002 1</masterclipid>
					<syncoffset>0</syncoffset>
					<logginginfo>
						<description>msub200012-0409d2k1002</description>
						<scene/>
						<shottake/>
						<lognote/>
						<good>FALSE</good>
					</logginginfo>
					<labels>
						<label>Best Take</label>
						<label2/>
					</labels>
					<comments>
						<mastercomment1>RÅSTOFF. BR_FINFREDAG_MSUA_OPRO</mastercomment1>
						<mastercomment2/>
						<mastercomment3/>
						<mastercomment4/>
					</comments>
					<file id="msub200012-0409d2k1002 2"/>
					<filter>
						<enabled>TRUE</enabled>
						<start>-1</start>
						<end>-1</end>
						<effect>
							<name>3 Band Equalizer - Kristine</name>
							<effecttype>filter</effecttype>
							<mediatype>audio</mediatype>
							<parameter>
								<parameterid>Low Frequency</parameterid>
								<name>Low Frequency</name>
								<valuemin>80</valuemin>
								<valuemax>2000</valuemax>
								<value>80</value>
							</parameter>
							<parameter>
								<parameterid>Low Gain(dB)</parameterid>
								<name>Low Gain(dB)</name>
								<valuemin>-20</valuemin>
								<valuemax>20</valuemax>
								<value>-4</value>
							</parameter>
							<parameter>
								<parameterid>Mid Frequency</parameterid>
								<name>Mid Frequency</name>
								<valuemin>400</valuemin>
								<valuemax>8000</valuemax>
								<value>3602</value>
							</parameter>
							<parameter>
								<parameterid>Mid Gain(dB)</parameterid>
								<name>Mid Gain(dB)</name>
								<valuemin>-20</valuemin>
								<valuemax>20</valuemax>
								<value>3</value>
							</parameter>
							<parameter>
								<parameterid>High Frequency</parameterid>
								<name>High Frequency</name>
								<valuemin>5000</valuemin>
								<valuemax>20000</valuemax>
								<value>10354</value>
							</parameter>
							<parameter>
								<parameterid>High Gain(dB)</parameterid>
								<name>High Gain(dB)</name>
								<valuemin>-20</valuemin>
								<valuemax>20</valuemax>
								<value>0</value>
							</parameter>
						</effect>
					</filter>
					<filter>
						<effect>
							<name>Audio Levels</name>
							<effectid>audiolevels</effectid>
							<effectcategory>audiolevels</effectcategory>
							<effecttype>audiolevels</effecttype>
							<mediatype>audio</mediatype>
							<parameter>
								<name>Level</name>
								<parameterid>level</parameterid>
								<valuemin>0</valuemin>
								<valuemax>3.98109</valuemax>
								<keyframe>
									<when>1028.29</when>
									<value>1.41254</value>
								</keyframe>
								<keyframe>
									<when>1043.71</when>
									<value>1.99526</value>
								</keyframe>
								<interpolation>
									<name>FCPCurve</name>
								</interpolation>
								<value>1.41254</value>
							</parameter>
						</effect>
					</filter>
					<filter>
						<effect>
							<name>Audio Pan</name>
							<effectid>audiopan</effectid>
							<effectcategory>audiopan</effectcategory>
							<effecttype>audiopan</effecttype>
							<mediatype>audio</mediatype>
							<parameter>
								<name>Pan</name>
								<parameterid>pan</parameterid>
								<valuemin>-1</valuemin>
								<valuemax>1</valuemax>
								<value>0</value>
							</parameter>
						</effect>
					</filter>
					<sourcetrack>
						<mediatype>audio</mediatype>
						<trackindex>2</trackindex>
					</sourcetrack>
					<link>
						<linkclipref>msub200012-0409d2k1002 3</linkclipref>
						<mediatype>audio</mediatype>
						<trackindex>1</trackindex>
						<clipindex>10</clipindex>
					</link>
					<link>
						<linkclipref>msub200012-0409d2k1002 4</linkclipref>
						<mediatype>audio</mediatype>
						<trackindex>2</trackindex>
						<clipindex>22</clipindex>
					</link>
				</clipitem>
				<transitionitem id="66594856 ">
					<rate>
						<ntsc>FALSE</ntsc>
						<timebase>25</timebase>
					</rate>
					<start>4627</start>
					<end>4639</end>
					<alignment>center</alignment>
					<effect>
						<name>Cross Fade (+3dB) Copy</name>
						<effecttype>transition</effecttype>
						<mediatype>audio</mediatype>
					</effect>
				</transitionitem>
				<clipitem id="msub200012-0409d2k1002 16">
					<name>msub200012-0409d2k1002</name>
					<duration>10180</duration>
					<rate>
						<ntsc>FALSE</ntsc>
						<timebase>25</timebase>
					</rate>
					<in>1358</in>
					<out>1443</out>
					<start>-1</start>
					<end>-1</end>
					<subframeoffset>0</subframeoffset>
					<masterclipid>msub200012-0409d2k1002 1</masterclipid>
					<syncoffset>0</syncoffset>
					<logginginfo>
						<description>msub200012-0409d2k1002</description>
						<scene/>
						<shottake/>
						<lognote/>
						<good>FALSE</good>
					</logginginfo>
					<labels>
						<label>Best Take</label>
						<label2/>
					</labels>
					<comments>
						<mastercomment1>RÅSTOFF. BR_FINFREDAG_MSUA_OPRO</mastercomment1>
						<mastercomment2/>
						<mastercomment3/>
						<mastercomment4/>
					</comments>
					<file id="msub200012-0409d2k1002 2"/>
					<filter>
						<start>-1</start>
						<end>-1</end>
						<effect>
							<name>3 Band Equalizer - Kristine</name>
							<effecttype>filter</effecttype>
							<mediatype>audio</mediatype>
							<parameter>
								<parameterid>Low Frequency</parameterid>
								<name>Low Frequency</name>
								<valuemin>80</valuemin>
								<valuemax>2000</valuemax>
								<value>80</value>
							</parameter>
							<parameter>
								<parameterid>Low Gain(dB)</parameterid>
								<name>Low Gain(dB)</name>
								<valuemin>-20</valuemin>
								<valuemax>20</valuemax>
								<value>-4</value>
							</parameter>
							<parameter>
								<parameterid>Mid Frequency</parameterid>
								<name>Mid Frequency</name>
								<valuemin>400</valuemin>
								<valuemax>8000</valuemax>
								<value>3602</value>
							</parameter>
							<parameter>
								<parameterid>Mid Gain(dB)</parameterid>
								<name>Mid Gain(dB)</name>
								<valuemin>-20</valuemin>
								<valuemax>20</valuemax>
								<value>3</value>
							</parameter>
							<parameter>
								<parameterid>High Frequency</parameterid>
								<name>High Frequency</name>
								<valuemin>5000</valuemin>
								<valuemax>20000</valuemax>
								<value>10354</value>
							</parameter>
							<parameter>
								<parameterid>High Gain(dB)</parameterid>
								<name>High Gain(dB)</name>
								<valuemin>-20</valuemin>
								<valuemax>20</valuemax>
								<value>0</value>
							</parameter>
						</effect>
					</filter>
					<filter>
						<effect>
							<name>Audio Levels</name>
							<effectid>audiolevels</effectid>
							<effectcategory>audiolevels</effectcategory>
							<effecttype>audiolevels</effecttype>
							<mediatype>audio</mediatype>
							<parameter>
								<name>Level</name>
								<parameterid>level</parameterid>
								<valuemin>0</valuemin>
								<valuemax>3.98109</valuemax>
								<keyframe>
									<when>1397.43</when>
									<value>2.51189</value>
								</keyframe>
								<keyframe>
									<when>1414.86</when>
									<value>1.99526</value>
								</keyframe>
								<interpolation>
									<name>FCPCurve</name>
								</interpolation>
								<value>1</value>
							</parameter>
						</effect>
					</filter>
					<filter>
						<effect>
							<name>Audio Pan</name>
							<effectid>audiopan</effectid>
							<effectcategory>audiopan</effectcategory>
							<effecttype>audiopan</effecttype>
							<mediatype>audio</mediatype>
							<parameter>
								<name>Pan</name>
								<parameterid>pan</parameterid>
								<valuemin>-1</valuemin>
								<valuemax>1</valuemax>
								<value>0</value>
							</parameter>
						</effect>
					</filter>
					<sourcetrack>
						<mediatype>audio</mediatype>
						<trackindex>2</trackindex>
					</sourcetrack>
					<link>
						<linkclipref>msub200012-0409d2k1002 16</linkclipref>
						<mediatype>audio</mediatype>
						<trackindex>2</trackindex>
						<clipindex>24</clipindex>
					</link>
				</clipitem>
				<transitionitem id="959573296 ">
					<rate>
						<ntsc>FALSE</ntsc>
						<timebase>25</timebase>
					</rate>
					<start>4706</start>
					<end>4712</end>
					<alignment>end-black</alignment>
					<effect>
						<name>Cross Fade (+3dB) Copy</name>
						<effecttype>transition</effecttype>
						<mediatype>audio</mediatype>
					</effect>
				</transitionitem>
				<transitionitem id="959573976 ">
					<rate>
						<ntsc>FALSE</ntsc>
						<timebase>25</timebase>
					</rate>
					<start>4769</start>
					<end>4773</end>
					<alignment>start-black</alignment>
					<effect>
						<name>Cross Fade (+3dB) Copy</name>
						<effecttype>transition</effecttype>
						<mediatype>audio</mediatype>
					</effect>
				</transitionitem>
				<clipitem id="msub200012-0409d2k1002 17">
					<name>msub200012-0409d2k1002</name>
					<duration>10180</duration>
					<rate>
						<ntsc>FALSE</ntsc>
						<timebase>25</timebase>
					</rate>
					<in>2742</in>
					<out>2810</out>
					<start>-1</start>
					<end>4837</end>
					<subframeoffset>0</subframeoffset>
					<masterclipid>msub200012-0409d2k1002 1</masterclipid>
					<syncoffset>0</syncoffset>
					<logginginfo>
						<description>msub200012-0409d2k1002</description>
						<scene/>
						<shottake/>
						<lognote/>
						<good>FALSE</good>
					</logginginfo>
					<labels>
						<label>Best Take</label>
						<label2/>
					</labels>
					<comments>
						<mastercomment1>RÅSTOFF. BR_FINFREDAG_MSUA_OPRO</mastercomment1>
						<mastercomment2/>
						<mastercomment3/>
						<mastercomment4/>
					</comments>
					<file id="msub200012-0409d2k1002 2"/>
					<filter>
						<start>-1</start>
						<end>-1</end>
						<effect>
							<name>3 Band Equalizer - Kristine</name>
							<effecttype>filter</effecttype>
							<mediatype>audio</mediatype>
							<parameter>
								<parameterid>Low Frequency</parameterid>
								<name>Low Frequency</name>
								<valuemin>80</valuemin>
								<valuemax>2000</valuemax>
								<value>80</value>
							</parameter>
							<parameter>
								<parameterid>Low Gain(dB)</parameterid>
								<name>Low Gain(dB)</name>
								<valuemin>-20</valuemin>
								<valuemax>20</valuemax>
								<value>-4</value>
							</parameter>
							<parameter>
								<parameterid>Mid Frequency</parameterid>
								<name>Mid Frequency</name>
								<valuemin>400</valuemin>
								<valuemax>8000</valuemax>
								<value>3602</value>
							</parameter>
							<parameter>
								<parameterid>Mid Gain(dB)</parameterid>
								<name>Mid Gain(dB)</name>
								<valuemin>-20</valuemin>
								<valuemax>20</valuemax>
								<value>3</value>
							</parameter>
							<parameter>
								<parameterid>High Frequency</parameterid>
								<name>High Frequency</name>
								<valuemin>5000</valuemin>
								<valuemax>20000</valuemax>
								<value>10354</value>
							</parameter>
							<parameter>
								<parameterid>High Gain(dB)</parameterid>
								<name>High Gain(dB)</name>
								<valuemin>-20</valuemin>
								<valuemax>20</valuemax>
								<value>0</value>
							</parameter>
						</effect>
					</filter>
					<filter>
						<effect>
							<name>Audio Levels</name>
							<effectid>audiolevels</effectid>
							<effectcategory>audiolevels</effectcategory>
							<effecttype>audiolevels</effecttype>
							<mediatype>audio</mediatype>
							<parameter>
								<name>Level</name>
								<parameterid>level</parameterid>
								<valuemin>0</valuemin>
								<valuemax>3.98109</valuemax>
								<value>1.99526</value>
							</parameter>
						</effect>
					</filter>
					<filter>
						<effect>
							<name>Audio Pan</name>
							<effectid>audiopan</effectid>
							<effectcategory>audiopan</effectcategory>
							<effecttype>audiopan</effecttype>
							<mediatype>audio</mediatype>
							<parameter>
								<name>Pan</name>
								<parameterid>pan</parameterid>
								<valuemin>-1</valuemin>
								<valuemax>1</valuemax>
								<value>0</value>
							</parameter>
						</effect>
					</filter>
					<sourcetrack>
						<mediatype>audio</mediatype>
						<trackindex>2</trackindex>
					</sourcetrack>
					<link>
						<linkclipref>msub200012-0409d2k1002 17</linkclipref>
						<mediatype>audio</mediatype>
						<trackindex>2</trackindex>
						<clipindex>27</clipindex>
					</link>
				</clipitem>
				<clipitem id="msub200012-0409d2k1002 18">
					<name>msub200012-0409d2k1002</name>
					<duration>10180</duration>
					<rate>
						<ntsc>FALSE</ntsc>
						<timebase>25</timebase>
					</rate>
					<in>3145</in>
					<out>3282</out>
					<start>4837</start>
					<end>4974</end>
					<subframeoffset>0</subframeoffset>
					<masterclipid>msub200012-0409d2k1002 1</masterclipid>
					<syncoffset>0</syncoffset>
					<logginginfo>
						<description>msub200012-0409d2k1002</description>
						<scene/>
						<shottake/>
						<lognote/>
						<good>FALSE</good>
					</logginginfo>
					<labels>
						<label>Best Take</label>
						<label2/>
					</labels>
					<comments>
						<mastercomment1>RÅSTOFF. BR_FINFREDAG_MSUA_OPRO</mastercomment1>
						<mastercomment2/>
						<mastercomment3/>
						<mastercomment4/>
					</comments>
					<file id="msub200012-0409d2k1002 2"/>
					<filter>
						<start>-1</start>
						<end>-1</end>
						<effect>
							<name>3 Band Equalizer - Kristine</name>
							<effecttype>filter</effecttype>
							<mediatype>audio</mediatype>
							<parameter>
								<parameterid>Low Frequency</parameterid>
								<name>Low Frequency</name>
								<valuemin>80</valuemin>
								<valuemax>2000</valuemax>
								<value>80</value>
							</parameter>
							<parameter>
								<parameterid>Low Gain(dB)</parameterid>
								<name>Low Gain(dB)</name>
								<valuemin>-20</valuemin>
								<valuemax>20</valuemax>
								<value>-4</value>
							</parameter>
							<parameter>
								<parameterid>Mid Frequency</parameterid>
								<name>Mid Frequency</name>
								<valuemin>400</valuemin>
								<valuemax>8000</valuemax>
								<value>3602</value>
							</parameter>
							<parameter>
								<parameterid>Mid Gain(dB)</parameterid>
								<name>Mid Gain(dB)</name>
								<valuemin>-20</valuemin>
								<valuemax>20</valuemax>
								<value>3</value>
							</parameter>
							<parameter>
								<parameterid>High Frequency</parameterid>
								<name>High Frequency</name>
								<valuemin>5000</valuemin>
								<valuemax>20000</valuemax>
								<value>10354</value>
							</parameter>
							<parameter>
								<parameterid>High Gain(dB)</parameterid>
								<name>High Gain(dB)</name>
								<valuemin>-20</valuemin>
								<valuemax>20</valuemax>
								<value>0</value>
							</parameter>
						</effect>
					</filter>
					<filter>
						<effect>
							<name>Audio Levels</name>
							<effectid>audiolevels</effectid>
							<effectcategory>audiolevels</effectcategory>
							<effecttype>audiolevels</effecttype>
							<mediatype>audio</mediatype>
							<parameter>
								<name>Level</name>
								<parameterid>level</parameterid>
								<valuemin>0</valuemin>
								<valuemax>3.98109</valuemax>
								<value>1.77828</value>
							</parameter>
						</effect>
					</filter>
					<filter>
						<effect>
							<name>Audio Pan</name>
							<effectid>audiopan</effectid>
							<effectcategory>audiopan</effectcategory>
							<effecttype>audiopan</effecttype>
							<mediatype>audio</mediatype>
							<parameter>
								<name>Pan</name>
								<parameterid>pan</parameterid>
								<valuemin>-1</valuemin>
								<valuemax>1</valuemax>
								<value>0</value>
							</parameter>
						</effect>
					</filter>
					<sourcetrack>
						<mediatype>audio</mediatype>
						<trackindex>2</trackindex>
					</sourcetrack>
				</clipitem>
				<transitionitem id="959552420 ">
					<rate>
						<ntsc>FALSE</ntsc>
						<timebase>25</timebase>
					</rate>
					<start>4989</start>
					<end>4995</end>
					<alignment>center</alignment>
					<effect>
						<name>Cross Fade (+3dB) Copy</name>
						<effecttype>transition</effecttype>
						<mediatype>audio</mediatype>
					</effect>
				</transitionitem>
				<clipitem id="msub200012-0409d2k1002 19">
					<name>msub200012-0409d2k1002</name>
					<duration>10180</duration>
					<rate>
						<ntsc>FALSE</ntsc>
						<timebase>25</timebase>
					</rate>
					<in>2381</in>
					<out>2408</out>
					<start>-1</start>
					<end>5016</end>
					<subframeoffset>0</subframeoffset>
					<masterclipid>msub200012-0409d2k1002 1</masterclipid>
					<syncoffset>0</syncoffset>
					<logginginfo>
						<description>msub200012-0409d2k1002</description>
						<scene/>
						<shottake/>
						<lognote/>
						<good>FALSE</good>
					</logginginfo>
					<labels>
						<label>Best Take</label>
						<label2/>
					</labels>
					<comments>
						<mastercomment1>RÅSTOFF. BR_FINFREDAG_MSUA_OPRO</mastercomment1>
						<mastercomment2/>
						<mastercomment3/>
						<mastercomment4/>
					</comments>
					<file id="msub200012-0409d2k1002 2"/>
					<filter>
						<start>-1</start>
						<end>-1</end>
						<effect>
							<name>3 Band Equalizer - Kristine</name>
							<effecttype>filter</effecttype>
							<mediatype>audio</mediatype>
							<parameter>
								<parameterid>Low Frequency</parameterid>
								<name>Low Frequency</name>
								<valuemin>80</valuemin>
								<valuemax>2000</valuemax>
								<value>80</value>
							</parameter>
							<parameter>
								<parameterid>Low Gain(dB)</parameterid>
								<name>Low Gain(dB)</name>
								<valuemin>-20</valuemin>
								<valuemax>20</valuemax>
								<value>-4</value>
							</parameter>
							<parameter>
								<parameterid>Mid Frequency</parameterid>
								<name>Mid Frequency</name>
								<valuemin>400</valuemin>
								<valuemax>8000</valuemax>
								<value>3602</value>
							</parameter>
							<parameter>
								<parameterid>Mid Gain(dB)</parameterid>
								<name>Mid Gain(dB)</name>
								<valuemin>-20</valuemin>
								<valuemax>20</valuemax>
								<value>3</value>
							</parameter>
							<parameter>
								<parameterid>High Frequency</parameterid>
								<name>High Frequency</name>
								<valuemin>5000</valuemin>
								<valuemax>20000</valuemax>
								<value>10354</value>
							</parameter>
							<parameter>
								<parameterid>High Gain(dB)</parameterid>
								<name>High Gain(dB)</name>
								<valuemin>-20</valuemin>
								<valuemax>20</valuemax>
								<value>0</value>
							</parameter>
						</effect>
					</filter>
					<filter>
						<effect>
							<name>Audio Levels</name>
							<effectid>audiolevels</effectid>
							<effectcategory>audiolevels</effectcategory>
							<effecttype>audiolevels</effecttype>
							<mediatype>audio</mediatype>
							<parameter>
								<name>Level</name>
								<parameterid>level</parameterid>
								<valuemin>0</valuemin>
								<valuemax>3.98109</valuemax>
								<value>1.77828</value>
							</parameter>
						</effect>
					</filter>
					<filter>
						<effect>
							<name>Audio Pan</name>
							<effectid>audiopan</effectid>
							<effectcategory>audiopan</effectcategory>
							<effecttype>audiopan</effecttype>
							<mediatype>audio</mediatype>
							<parameter>
								<name>Pan</name>
								<parameterid>pan</parameterid>
								<valuemin>-1</valuemin>
								<valuemax>1</valuemax>
								<value>0</value>
							</parameter>
						</effect>
					</filter>
					<sourcetrack>
						<mediatype>audio</mediatype>
						<trackindex>2</trackindex>
					</sourcetrack>
					<link>
						<linkclipref>msub200012-0409d2k1002 19</linkclipref>
						<mediatype>audio</mediatype>
						<trackindex>2</trackindex>
						<clipindex>30</clipindex>
					</link>
					<link>
						<linkclipref>msub200012-0409d2k1002 20</linkclipref>
						<mediatype>audio</mediatype>
						<trackindex>3</trackindex>
						<clipindex>10</clipindex>
					</link>
				</clipitem>
				<transitionitem id="957221404 ">
					<rate>
						<ntsc>FALSE</ntsc>
						<timebase>25</timebase>
					</rate>
					<start>5172</start>
					<end>5184</end>
					<alignment>start-black</alignment>
					<effect>
						<name>Cross Fade (+3dB) Copy</name>
						<effecttype>transition</effecttype>
						<mediatype>audio</mediatype>
					</effect>
				</transitionitem>
				<clipitem id="msub200012-0409d2k1002 21">
					<name>msub200012-0409d2k1002</name>
					<duration>10180</duration>
					<rate>
						<ntsc>FALSE</ntsc>
						<timebase>25</timebase>
					</rate>
					<in>3201</in>
					<out>3274</out>
					<start>-1</start>
					<end>-1</end>
					<subframeoffset>0</subframeoffset>
					<masterclipid>msub200012-0409d2k1002 1</masterclipid>
					<syncoffset>0</syncoffset>
					<logginginfo>
						<description>msub200012-0409d2k1002</description>
						<scene/>
						<shottake/>
						<lognote/>
						<good>FALSE</good>
					</logginginfo>
					<labels>
						<label>Best Take</label>
						<label2/>
					</labels>
					<comments>
						<mastercomment1>RÅSTOFF. BR_FINFREDAG_MSUA_OPRO</mastercomment1>
						<mastercomment2/>
						<mastercomment3/>
						<mastercomment4/>
					</comments>
					<file id="msub200012-0409d2k1002 2"/>
					<filter>
						<effect>
							<name>Audio Levels</name>
							<effectid>audiolevels</effectid>
							<effectcategory>audiolevels</effectcategory>
							<effecttype>audiolevels</effecttype>
							<mediatype>audio</mediatype>
							<parameter>
								<name>Level</name>
								<parameterid>level</parameterid>
								<valuemin>0</valuemin>
								<valuemax>3.98109</valuemax>
								<value>2.51189</value>
							</parameter>
						</effect>
					</filter>
					<filter>
						<effect>
							<name>Audio Pan</name>
							<effectid>audiopan</effectid>
							<effectcategory>audiopan</effectcategory>
							<effecttype>audiopan</effecttype>
							<mediatype>audio</mediatype>
							<parameter>
								<name>Pan</name>
								<parameterid>pan</parameterid>
								<valuemin>-1</valuemin>
								<valuemax>1</valuemax>
								<value>0</value>
							</parameter>
						</effect>
					</filter>
					<sourcetrack>
						<mediatype>audio</mediatype>
						<trackindex>2</trackindex>
					</sourcetrack>
				</clipitem>
				<transitionitem id="957206172 ">
					<rate>
						<ntsc>FALSE</ntsc>
						<timebase>25</timebase>
					</rate>
					<start>5233</start>
					<end>5245</end>
					<alignment>center</alignment>
					<effect>
						<name>Cross Fade (+3dB) Copy</name>
						<effecttype>transition</effecttype>
						<mediatype>audio</mediatype>
					</effect>
				</transitionitem>
				<clipitem id="msub200012-0409d2k1002 6">
					<name>msub200012-0409d2k1002</name>
					<duration>10180</duration>
					<rate>
						<ntsc>FALSE</ntsc>
						<timebase>25</timebase>
					</rate>
					<in>3589</in>
					<out>3663</out>
					<start>-1</start>
					<end>-1</end>
					<subframeoffset>0</subframeoffset>
					<masterclipid>msub200012-0409d2k1002 1</masterclipid>
					<syncoffset>0</syncoffset>
					<logginginfo>
						<description>msub200012-0409d2k1002</description>
						<scene/>
						<shottake/>
						<lognote/>
						<good>FALSE</good>
					</logginginfo>
					<labels>
						<label>Best Take</label>
						<label2/>
					</labels>
					<comments>
						<mastercomment1>RÅSTOFF. BR_FINFREDAG_MSUA_OPRO</mastercomment1>
						<mastercomment2/>
						<mastercomment3/>
						<mastercomment4/>
					</comments>
					<file id="msub200012-0409d2k1002 2"/>
					<filter>
						<start>-1</start>
						<end>-1</end>
						<effect>
							<name>3 Band Equalizer - Kristine</name>
							<effecttype>filter</effecttype>
							<mediatype>audio</mediatype>
							<parameter>
								<parameterid>Low Frequency</parameterid>
								<name>Low Frequency</name>
								<valuemin>80</valuemin>
								<valuemax>2000</valuemax>
								<value>80</value>
							</parameter>
							<parameter>
								<parameterid>Low Gain(dB)</parameterid>
								<name>Low Gain(dB)</name>
								<valuemin>-20</valuemin>
								<valuemax>20</valuemax>
								<value>-4</value>
							</parameter>
							<parameter>
								<parameterid>Mid Frequency</parameterid>
								<name>Mid Frequency</name>
								<valuemin>400</valuemin>
								<valuemax>8000</valuemax>
								<value>3602</value>
							</parameter>
							<parameter>
								<parameterid>Mid Gain(dB)</parameterid>
								<name>Mid Gain(dB)</name>
								<valuemin>-20</valuemin>
								<valuemax>20</valuemax>
								<value>3</value>
							</parameter>
							<parameter>
								<parameterid>High Frequency</parameterid>
								<name>High Frequency</name>
								<valuemin>5000</valuemin>
								<valuemax>20000</valuemax>
								<value>10354</value>
							</parameter>
							<parameter>
								<parameterid>High Gain(dB)</parameterid>
								<name>High Gain(dB)</name>
								<valuemin>-20</valuemin>
								<valuemax>20</valuemax>
								<value>0</value>
							</parameter>
						</effect>
					</filter>
					<filter>
						<effect>
							<name>Audio Levels</name>
							<effectid>audiolevels</effectid>
							<effectcategory>audiolevels</effectcategory>
							<effecttype>audiolevels</effecttype>
							<mediatype>audio</mediatype>
							<parameter>
								<name>Level</name>
								<parameterid>level</parameterid>
								<valuemin>0</valuemin>
								<valuemax>3.98109</valuemax>
								<value>2.51189</value>
							</parameter>
						</effect>
					</filter>
					<filter>
						<effect>
							<name>Audio Pan</name>
							<effectid>audiopan</effectid>
							<effectcategory>audiopan</effectcategory>
							<effecttype>audiopan</effecttype>
							<mediatype>audio</mediatype>
							<parameter>
								<name>Pan</name>
								<parameterid>pan</parameterid>
								<valuemin>-1</valuemin>
								<valuemax>1</valuemax>
								<value>0</value>
							</parameter>
						</effect>
					</filter>
					<sourcetrack>
						<mediatype>audio</mediatype>
						<trackindex>2</trackindex>
					</sourcetrack>
					<link>
						<linkclipref>msub200012-0409d2k1002 5</linkclipref>
						<mediatype>audio</mediatype>
						<trackindex>1</trackindex>
						<clipindex>12</clipindex>
					</link>
					<link>
						<linkclipref>msub200012-0409d2k1002 6</linkclipref>
						<mediatype>audio</mediatype>
						<trackindex>2</trackindex>
						<clipindex>34</clipindex>
					</link>
				</clipitem>
				<transitionitem id="957203792 ">
					<rate>
						<ntsc>FALSE</ntsc>
						<timebase>25</timebase>
					</rate>
					<start>5305</start>
					<end>5307</end>
					<alignment>center</alignment>
					<effect>
						<name>Cross Fade (+3dB) Copy</name>
						<effecttype>transition</effecttype>
						<mediatype>audio</mediatype>
					</effect>
				</transitionitem>
				<clipitem id="msub200012-0409d2k1002 8">
					<name>msub200012-0409d2k1002</name>
					<duration>10180</duration>
					<rate>
						<ntsc>FALSE</ntsc>
						<timebase>25</timebase>
					</rate>
					<in>3690</in>
					<out>3905</out>
					<start>-1</start>
					<end>-1</end>
					<subframeoffset>0</subframeoffset>
					<enabled>TRUE</enabled>
					<masterclipid>msub200012-0409d2k1002 1</masterclipid>
					<syncoffset>0</syncoffset>
					<logginginfo>
						<description>msub200012-0409d2k1002</description>
						<scene/>
						<shottake/>
						<lognote/>
						<good>FALSE</good>
					</logginginfo>
					<labels>
						<label>Best Take</label>
						<label2/>
					</labels>
					<comments>
						<mastercomment1>RÅSTOFF. BR_FINFREDAG_MSUA_OPRO</mastercomment1>
						<mastercomment2/>
						<mastercomment3/>
						<mastercomment4/>
					</comments>
					<file id="msub200012-0409d2k1002 2"/>
					<filter>
						<enabled>TRUE</enabled>
						<start>-1</start>
						<end>-1</end>
						<effect>
							<name>3 Band Equalizer - Kristine</name>
							<effecttype>filter</effecttype>
							<mediatype>audio</mediatype>
							<parameter>
								<parameterid>Low Frequency</parameterid>
								<name>Low Frequency</name>
								<valuemin>80</valuemin>
								<valuemax>2000</valuemax>
								<value>80</value>
							</parameter>
							<parameter>
								<parameterid>Low Gain(dB)</parameterid>
								<name>Low Gain(dB)</name>
								<valuemin>-20</valuemin>
								<valuemax>20</valuemax>
								<value>-4</value>
							</parameter>
							<parameter>
								<parameterid>Mid Frequency</parameterid>
								<name>Mid Frequency</name>
								<valuemin>400</valuemin>
								<valuemax>8000</valuemax>
								<value>3602</value>
							</parameter>
							<parameter>
								<parameterid>Mid Gain(dB)</parameterid>
								<name>Mid Gain(dB)</name>
								<valuemin>-20</valuemin>
								<valuemax>20</valuemax>
								<value>3</value>
							</parameter>
							<parameter>
								<parameterid>High Frequency</parameterid>
								<name>High Frequency</name>
								<valuemin>5000</valuemin>
								<valuemax>20000</valuemax>
								<value>10354</value>
							</parameter>
							<parameter>
								<parameterid>High Gain(dB)</parameterid>
								<name>High Gain(dB)</name>
								<valuemin>-20</valuemin>
								<valuemax>20</valuemax>
								<value>0</value>
							</parameter>
						</effect>
					</filter>
					<filter>
						<effect>
							<name>Audio Levels</name>
							<effectid>audiolevels</effectid>
							<effectcategory>audiolevels</effectcategory>
							<effecttype>audiolevels</effecttype>
							<mediatype>audio</mediatype>
							<parameter>
								<name>Level</name>
								<parameterid>level</parameterid>
								<valuemin>0</valuemin>
								<valuemax>3.98109</valuemax>
								<keyframe>
									<when>3822.21</when>
									<value>3.54813</value>
								</keyframe>
								<keyframe>
									<when>3840.86</when>
									<value>3.98107</value>
								</keyframe>
								<interpolation>
									<name>FCPCurve</name>
								</interpolation>
								<value>3.54813</value>
							</parameter>
						</effect>
					</filter>
					<filter>
						<effect>
							<name>Audio Pan</name>
							<effectid>audiopan</effectid>
							<effectcategory>audiopan</effectcategory>
							<effecttype>audiopan</effecttype>
							<mediatype>audio</mediatype>
							<parameter>
								<name>Pan</name>
								<parameterid>pan</parameterid>
								<valuemin>-1</valuemin>
								<valuemax>1</valuemax>
								<value>0</value>
							</parameter>
						</effect>
					</filter>
					<sourcetrack>
						<mediatype>audio</mediatype>
						<trackindex>2</trackindex>
					</sourcetrack>
					<link>
						<linkclipref>msub200012-0409d2k1002 7</linkclipref>
						<mediatype>audio</mediatype>
						<trackindex>1</trackindex>
						<clipindex>14</clipindex>
					</link>
					<link>
						<linkclipref>msub200012-0409d2k1002 8</linkclipref>
						<mediatype>audio</mediatype>
						<trackindex>2</trackindex>
						<clipindex>36</clipindex>
					</link>
				</clipitem>
				<transitionitem id="957196924 ">
					<rate>
						<ntsc>FALSE</ntsc>
						<timebase>25</timebase>
					</rate>
					<start>5516</start>
					<end>5520</end>
					<alignment>center</alignment>
					<effect>
						<name>Cross Fade (+3dB) Copy</name>
						<effecttype>transition</effecttype>
						<mediatype>audio</mediatype>
					</effect>
				</transitionitem>
				<clipitem id="msub200012-0409d2k1002 10">
					<name>msub200012-0409d2k1002</name>
					<duration>10180</duration>
					<rate>
						<ntsc>FALSE</ntsc>
						<timebase>25</timebase>
					</rate>
					<in>3930</in>
					<out>4066</out>
					<start>-1</start>
					<end>-1</end>
					<subframeoffset>0</subframeoffset>
					<masterclipid>msub200012-0409d2k1002 1</masterclipid>
					<syncoffset>0</syncoffset>
					<logginginfo>
						<description>msub200012-0409d2k1002</description>
						<scene/>
						<shottake/>
						<lognote/>
						<good>FALSE</good>
					</logginginfo>
					<labels>
						<label>Best Take</label>
						<label2/>
					</labels>
					<comments>
						<mastercomment1>RÅSTOFF. BR_FINFREDAG_MSUA_OPRO</mastercomment1>
						<mastercomment2/>
						<mastercomment3/>
						<mastercomment4/>
					</comments>
					<file id="msub200012-0409d2k1002 2"/>
					<filter>
						<start>-1</start>
						<end>-1</end>
						<effect>
							<name>3 Band Equalizer - Kristine</name>
							<effecttype>filter</effecttype>
							<mediatype>audio</mediatype>
							<parameter>
								<parameterid>Low Frequency</parameterid>
								<name>Low Frequency</name>
								<valuemin>80</valuemin>
								<valuemax>2000</valuemax>
								<value>80</value>
							</parameter>
							<parameter>
								<parameterid>Low Gain(dB)</parameterid>
								<name>Low Gain(dB)</name>
								<valuemin>-20</valuemin>
								<valuemax>20</valuemax>
								<value>-4</value>
							</parameter>
							<parameter>
								<parameterid>Mid Frequency</parameterid>
								<name>Mid Frequency</name>
								<valuemin>400</valuemin>
								<valuemax>8000</valuemax>
								<value>3602</value>
							</parameter>
							<parameter>
								<parameterid>Mid Gain(dB)</parameterid>
								<name>Mid Gain(dB)</name>
								<valuemin>-20</valuemin>
								<valuemax>20</valuemax>
								<value>3</value>
							</parameter>
							<parameter>
								<parameterid>High Frequency</parameterid>
								<name>High Frequency</name>
								<valuemin>5000</valuemin>
								<valuemax>20000</valuemax>
								<value>10354</value>
							</parameter>
							<parameter>
								<parameterid>High Gain(dB)</parameterid>
								<name>High Gain(dB)</name>
								<valuemin>-20</valuemin>
								<valuemax>20</valuemax>
								<value>0</value>
							</parameter>
						</effect>
					</filter>
					<filter>
						<effect>
							<name>Audio Levels</name>
							<effectid>audiolevels</effectid>
							<effectcategory>audiolevels</effectcategory>
							<effecttype>audiolevels</effecttype>
							<mediatype>audio</mediatype>
							<parameter>
								<name>Level</name>
								<parameterid>level</parameterid>
								<valuemin>0</valuemin>
								<valuemax>3.98109</valuemax>
								<value>3.98107</value>
							</parameter>
						</effect>
					</filter>
					<filter>
						<effect>
							<name>Audio Pan</name>
							<effectid>audiopan</effectid>
							<effectcategory>audiopan</effectcategory>
							<effecttype>audiopan</effecttype>
							<mediatype>audio</mediatype>
							<parameter>
								<name>Pan</name>
								<parameterid>pan</parameterid>
								<valuemin>-1</valuemin>
								<valuemax>1</valuemax>
								<value>0</value>
							</parameter>
						</effect>
					</filter>
					<sourcetrack>
						<mediatype>audio</mediatype>
						<trackindex>2</trackindex>
					</sourcetrack>
					<link>
						<linkclipref>msub200012-0409d2k1002 9</linkclipref>
						<mediatype>audio</mediatype>
						<trackindex>1</trackindex>
						<clipindex>16</clipindex>
					</link>
					<link>
						<linkclipref>msub200012-0409d2k1002 10</linkclipref>
						<mediatype>audio</mediatype>
						<trackindex>2</trackindex>
						<clipindex>38</clipindex>
					</link>
				</clipitem>
				<transitionitem id="957195156 ">
					<rate>
						<ntsc>FALSE</ntsc>
						<timebase>25</timebase>
					</rate>
					<start>5648</start>
					<end>5652</end>
					<alignment>center</alignment>
					<effect>
						<name>Cross Fade (+3dB) Copy</name>
						<effecttype>transition</effecttype>
						<mediatype>audio</mediatype>
					</effect>
				</transitionitem>
				<clipitem id="msub200012-0409d2k1002 12">
					<name>msub200012-0409d2k1002</name>
					<duration>10180</duration>
					<rate>
						<ntsc>FALSE</ntsc>
						<timebase>25</timebase>
					</rate>
					<in>4693</in>
					<out>4875</out>
					<start>-1</start>
					<end>-1</end>
					<subframeoffset>0</subframeoffset>
					<enabled>TRUE</enabled>
					<masterclipid>msub200012-0409d2k1002 1</masterclipid>
					<syncoffset>0</syncoffset>
					<logginginfo>
						<description>msub200012-0409d2k1002</description>
						<scene/>
						<shottake/>
						<lognote/>
						<good>FALSE</good>
					</logginginfo>
					<labels>
						<label>Best Take</label>
						<label2/>
					</labels>
					<comments>
						<mastercomment1>RÅSTOFF. BR_FINFREDAG_MSUA_OPRO</mastercomment1>
						<mastercomment2/>
						<mastercomment3/>
						<mastercomment4/>
					</comments>
					<file id="msub200012-0409d2k1002 2"/>
					<filter>
						<enabled>TRUE</enabled>
						<start>-1</start>
						<end>-1</end>
						<effect>
							<name>3 Band Equalizer - Kristine</name>
							<effecttype>filter</effecttype>
							<mediatype>audio</mediatype>
							<parameter>
								<parameterid>Low Frequency</parameterid>
								<name>Low Frequency</name>
								<valuemin>80</valuemin>
								<valuemax>2000</valuemax>
								<value>80</value>
							</parameter>
							<parameter>
								<parameterid>Low Gain(dB)</parameterid>
								<name>Low Gain(dB)</name>
								<valuemin>-20</valuemin>
								<valuemax>20</valuemax>
								<value>-4</value>
							</parameter>
							<parameter>
								<parameterid>Mid Frequency</parameterid>
								<name>Mid Frequency</name>
								<valuemin>400</valuemin>
								<valuemax>8000</valuemax>
								<value>3602</value>
							</parameter>
							<parameter>
								<parameterid>Mid Gain(dB)</parameterid>
								<name>Mid Gain(dB)</name>
								<valuemin>-20</valuemin>
								<valuemax>20</valuemax>
								<value>3</value>
							</parameter>
							<parameter>
								<parameterid>High Frequency</parameterid>
								<name>High Frequency</name>
								<valuemin>5000</valuemin>
								<valuemax>20000</valuemax>
								<value>10354</value>
							</parameter>
							<parameter>
								<parameterid>High Gain(dB)</parameterid>
								<name>High Gain(dB)</name>
								<valuemin>-20</valuemin>
								<valuemax>20</valuemax>
								<value>0</value>
							</parameter>
						</effect>
					</filter>
					<filter>
						<effect>
							<name>Audio Levels</name>
							<effectid>audiolevels</effectid>
							<effectcategory>audiolevels</effectcategory>
							<effecttype>audiolevels</effecttype>
							<mediatype>audio</mediatype>
							<parameter>
								<name>Level</name>
								<parameterid>level</parameterid>
								<valuemin>0</valuemin>
								<valuemax>3.98109</valuemax>
								<keyframe>
									<when>4772.57</when>
									<value>0.0891251</value>
								</keyframe>
								<keyframe>
									<when>4778</when>
									<value>1.25893</value>
								</keyframe>
								<keyframe>
									<when>4797.43</when>
									<value>1.25893</value>
								</keyframe>
								<keyframe>
									<when>4805.71</when>
									<value>0.199526</value>
								</keyframe>
								<keyframe>
									<when>4816</when>
									<value>0.199526</value>
								</keyframe>
								<keyframe>
									<when>4820.86</when>
									<value>2.23872</value>
								</keyframe>
								<interpolation>
									<name>FCPCurve</name>
								</interpolation>
								<value>1.58489</value>
							</parameter>
						</effect>
					</filter>
					<filter>
						<effect>
							<name>Audio Pan</name>
							<effectid>audiopan</effectid>
							<effectcategory>audiopan</effectcategory>
							<effecttype>audiopan</effecttype>
							<mediatype>audio</mediatype>
							<parameter>
								<name>Pan</name>
								<parameterid>pan</parameterid>
								<valuemin>-1</valuemin>
								<valuemax>1</valuemax>
								<value>0</value>
							</parameter>
						</effect>
					</filter>
					<sourcetrack>
						<mediatype>audio</mediatype>
						<trackindex>2</trackindex>
					</sourcetrack>
					<link>
						<linkclipref>msub200012-0409d2k1002 11</linkclipref>
						<mediatype>audio</mediatype>
						<trackindex>1</trackindex>
						<clipindex>18</clipindex>
					</link>
					<link>
						<linkclipref>msub200012-0409d2k1002 12</linkclipref>
						<mediatype>audio</mediatype>
						<trackindex>2</trackindex>
						<clipindex>40</clipindex>
					</link>
				</clipitem>
				<transitionitem id="957192232 ">
					<rate>
						<ntsc>FALSE</ntsc>
						<timebase>25</timebase>
					</rate>
					<start>5826</start>
					<end>5830</end>
					<alignment>center</alignment>
					<effect>
						<name>Cross Fade (+3dB) Copy</name>
						<effecttype>transition</effecttype>
						<mediatype>audio</mediatype>
					</effect>
				</transitionitem>
				<clipitem id="msub200012-0409d2k1002 22">
					<name>msub200012-0409d2k1002</name>
					<duration>10180</duration>
					<rate>
						<ntsc>FALSE</ntsc>
						<timebase>25</timebase>
					</rate>
					<in>4948</in>
					<out>5959</out>
					<start>-1</start>
					<end>-1</end>
					<subframeoffset>0</subframeoffset>
					<masterclipid>msub200012-0409d2k1002 1</masterclipid>
					<syncoffset>0</syncoffset>
					<logginginfo>
						<description>msub200012-0409d2k1002</description>
						<scene/>
						<shottake/>
						<lognote/>
						<good>FALSE</good>
					</logginginfo>
					<labels>
						<label>Best Take</label>
						<label2/>
					</labels>
					<comments>
						<mastercomment1>RÅSTOFF. BR_FINFREDAG_MSUA_OPRO</mastercomment1>
						<mastercomment2/>
						<mastercomment3/>
						<mastercomment4/>
					</comments>
					<file id="msub200012-0409d2k1002 2"/>
					<filter>
						<effect>
							<name>Audio Levels</name>
							<effectid>audiolevels</effectid>
							<effectcategory>audiolevels</effectcategory>
							<effecttype>audiolevels</effecttype>
							<mediatype>audio</mediatype>
							<parameter>
								<name>Level</name>
								<parameterid>level</parameterid>
								<valuemin>0</valuemin>
								<valuemax>3.98109</valuemax>
								<keyframe>
									<when>4993</when>
									<value>0.251189</value>
								</keyframe>
								<keyframe>
									<when>4996.29</when>
									<value>2.23872</value>
								</keyframe>
								<keyframe>
									<when>5009</when>
									<value>2.23872</value>
								</keyframe>
								<keyframe>
									<when>5013.71</when>
									<value>0.199526</value>
								</keyframe>
								<keyframe>
									<when>5321.86</when>
									<value>0.199526</value>
								</keyframe>
								<keyframe>
									<when>5335</when>
									<value>2.51189</value>
								</keyframe>
								<keyframe>
									<when>5368.71</when>
									<value>2.51189</value>
								</keyframe>
								<keyframe>
									<when>5381.86</when>
									<value>0.199526</value>
								</keyframe>
								<interpolation>
									<name>FCPCurve</name>
								</interpolation>
								<value>1</value>
							</parameter>
						</effect>
					</filter>
					<filter>
						<effect>
							<name>Audio Pan</name>
							<effectid>audiopan</effectid>
							<effectcategory>audiopan</effectcategory>
							<effecttype>audiopan</effecttype>
							<mediatype>audio</mediatype>
							<parameter>
								<name>Pan</name>
								<parameterid>pan</parameterid>
								<valuemin>-1</valuemin>
								<valuemax>1</valuemax>
								<value>0</value>
							</parameter>
						</effect>
					</filter>
					<sourcetrack>
						<mediatype>audio</mediatype>
						<trackindex>2</trackindex>
					</sourcetrack>
				</clipitem>
				<transitionitem id="957190532 ">
					<rate>
						<ntsc>FALSE</ntsc>
						<timebase>25</timebase>
					</rate>
					<start>6825</start>
					<end>6837</end>
					<alignment>end-black</alignment>
					<effect>
						<name>Cross Fade (+3dB) Copy</name>
						<effecttype>transition</effecttype>
						<mediatype>audio</mediatype>
					</effect>
				</transitionitem>
				<transitionitem id="957212088 ">
					<rate>
						<ntsc>FALSE</ntsc>
						<timebase>25</timebase>
					</rate>
					<start>6918</start>
					<end>6920</end>
					<alignment>start-black</alignment>
					<effect>
						<name>Cross Fade (+3dB) Copy</name>
						<effecttype>transition</effecttype>
						<mediatype>audio</mediatype>
					</effect>
				</transitionitem>
				<clipitem id="msub200012-0409d2k1002 23">
					<name>msub200012-0409d2k1002</name>
					<duration>10180</duration>
					<rate>
						<ntsc>FALSE</ntsc>
						<timebase>25</timebase>
					</rate>
					<in>9051</in>
					<out>9122</out>
					<start>-1</start>
					<end>-1</end>
					<subframeoffset>0</subframeoffset>
					<masterclipid>msub200012-0409d2k1002 1</masterclipid>
					<syncoffset>0</syncoffset>
					<logginginfo>
						<description>msub200012-0409d2k1002</description>
						<scene/>
						<shottake/>
						<lognote/>
						<good>FALSE</good>
					</logginginfo>
					<labels>
						<label>Best Take</label>
						<label2/>
					</labels>
					<comments>
						<mastercomment1>RÅSTOFF. BR_FINFREDAG_MSUA_OPRO</mastercomment1>
						<mastercomment2/>
						<mastercomment3/>
						<mastercomment4/>
					</comments>
					<file id="msub200012-0409d2k1002 2"/>
					<filter>
						<start>-1</start>
						<end>-1</end>
						<effect>
							<name>3 Band Equalizer - Kristine</name>
							<effecttype>filter</effecttype>
							<mediatype>audio</mediatype>
							<parameter>
								<parameterid>Low Frequency</parameterid>
								<name>Low Frequency</name>
								<valuemin>80</valuemin>
								<valuemax>2000</valuemax>
								<value>80</value>
							</parameter>
							<parameter>
								<parameterid>Low Gain(dB)</parameterid>
								<name>Low Gain(dB)</name>
								<valuemin>-20</valuemin>
								<valuemax>20</valuemax>
								<value>-4</value>
							</parameter>
							<parameter>
								<parameterid>Mid Frequency</parameterid>
								<name>Mid Frequency</name>
								<valuemin>400</valuemin>
								<valuemax>8000</valuemax>
								<value>3602</value>
							</parameter>
							<parameter>
								<parameterid>Mid Gain(dB)</parameterid>
								<name>Mid Gain(dB)</name>
								<valuemin>-20</valuemin>
								<valuemax>20</valuemax>
								<value>3</value>
							</parameter>
							<parameter>
								<parameterid>High Frequency</parameterid>
								<name>High Frequency</name>
								<valuemin>5000</valuemin>
								<valuemax>20000</valuemax>
								<value>10354</value>
							</parameter>
							<parameter>
								<parameterid>High Gain(dB)</parameterid>
								<name>High Gain(dB)</name>
								<valuemin>-20</valuemin>
								<valuemax>20</valuemax>
								<value>0</value>
							</parameter>
						</effect>
					</filter>
					<filter>
						<effect>
							<name>Audio Levels</name>
							<effectid>audiolevels</effectid>
							<effectcategory>audiolevels</effectcategory>
							<effecttype>audiolevels</effecttype>
							<mediatype>audio</mediatype>
							<parameter>
								<name>Level</name>
								<parameterid>level</parameterid>
								<valuemin>0</valuemin>
								<valuemax>3.98109</valuemax>
								<value>2.23872</value>
							</parameter>
						</effect>
					</filter>
					<filter>
						<effect>
							<name>Audio Pan</name>
							<effectid>audiopan</effectid>
							<effectcategory>audiopan</effectcategory>
							<effecttype>audiopan</effecttype>
							<mediatype>audio</mediatype>
							<parameter>
								<name>Pan</name>
								<parameterid>pan</parameterid>
								<valuemin>-1</valuemin>
								<valuemax>1</valuemax>
								<value>0</value>
							</parameter>
						</effect>
					</filter>
					<sourcetrack>
						<mediatype>audio</mediatype>
						<trackindex>2</trackindex>
					</sourcetrack>
				</clipitem>
				<transitionitem id="956641240 ">
					<rate>
						<ntsc>FALSE</ntsc>
						<timebase>25</timebase>
					</rate>
					<start>6987</start>
					<end>6989</end>
					<alignment>center</alignment>
					<effect>
						<name>Cross Fade (+3dB) Copy</name>
						<effecttype>transition</effecttype>
						<mediatype>audio</mediatype>
					</effect>
				</transitionitem>
				<clipitem id="msub200012-0409d2k1002 24">
					<name>msub200012-0409d2k1002</name>
					<duration>10180</duration>
					<rate>
						<ntsc>FALSE</ntsc>
						<timebase>25</timebase>
					</rate>
					<in>9155</in>
					<out>9322</out>
					<start>-1</start>
					<end>-1</end>
					<subframeoffset>0</subframeoffset>
					<enabled>TRUE</enabled>
					<masterclipid>msub200012-0409d2k1002 1</masterclipid>
					<syncoffset>0</syncoffset>
					<logginginfo>
						<description>msub200012-0409d2k1002</description>
						<scene/>
						<shottake/>
						<lognote/>
						<good>FALSE</good>
					</logginginfo>
					<labels>
						<label>Best Take</label>
						<label2/>
					</labels>
					<comments>
						<mastercomment1>RÅSTOFF. BR_FINFREDAG_MSUA_OPRO</mastercomment1>
						<mastercomment2/>
						<mastercomment3/>
						<mastercomment4/>
					</comments>
					<file id="msub200012-0409d2k1002 2"/>
					<filter>
						<enabled>TRUE</enabled>
						<start>-1</start>
						<end>-1</end>
						<effect>
							<name>3 Band Equalizer - Kristine</name>
							<effecttype>filter</effecttype>
							<mediatype>audio</mediatype>
							<parameter>
								<parameterid>Low Frequency</parameterid>
								<name>Low Frequency</name>
								<valuemin>80</valuemin>
								<valuemax>2000</valuemax>
								<value>80</value>
							</parameter>
							<parameter>
								<parameterid>Low Gain(dB)</parameterid>
								<name>Low Gain(dB)</name>
								<valuemin>-20</valuemin>
								<valuemax>20</valuemax>
								<value>-4</value>
							</parameter>
							<parameter>
								<parameterid>Mid Frequency</parameterid>
								<name>Mid Frequency</name>
								<valuemin>400</valuemin>
								<valuemax>8000</valuemax>
								<value>3602</value>
							</parameter>
							<parameter>
								<parameterid>Mid Gain(dB)</parameterid>
								<name>Mid Gain(dB)</name>
								<valuemin>-20</valuemin>
								<valuemax>20</valuemax>
								<value>3</value>
							</parameter>
							<parameter>
								<parameterid>High Frequency</parameterid>
								<name>High Frequency</name>
								<valuemin>5000</valuemin>
								<valuemax>20000</valuemax>
								<value>10354</value>
							</parameter>
							<parameter>
								<parameterid>High Gain(dB)</parameterid>
								<name>High Gain(dB)</name>
								<valuemin>-20</valuemin>
								<valuemax>20</valuemax>
								<value>0</value>
							</parameter>
						</effect>
					</filter>
					<filter>
						<effect>
							<name>Audio Levels</name>
							<effectid>audiolevels</effectid>
							<effectcategory>audiolevels</effectcategory>
							<effecttype>audiolevels</effecttype>
							<mediatype>audio</mediatype>
							<parameter>
								<name>Level</name>
								<parameterid>level</parameterid>
								<valuemin>0</valuemin>
								<valuemax>3.98109</valuemax>
								<keyframe>
									<when>9227</when>
									<value>2.23872</value>
								</keyframe>
								<keyframe>
									<when>9234.14</when>
									<value>3.54813</value>
								</keyframe>
								<keyframe>
									<when>9251.86</when>
									<value>3.54813</value>
								</keyframe>
								<keyframe>
									<when>9259.86</when>
									<value>2.23872</value>
								</keyframe>
								<interpolation>
									<name>FCPCurve</name>
								</interpolation>
								<value>2.23872</value>
							</parameter>
						</effect>
					</filter>
					<filter>
						<effect>
							<name>Audio Pan</name>
							<effectid>audiopan</effectid>
							<effectcategory>audiopan</effectcategory>
							<effecttype>audiopan</effecttype>
							<mediatype>audio</mediatype>
							<parameter>
								<name>Pan</name>
								<parameterid>pan</parameterid>
								<valuemin>-1</valuemin>
								<valuemax>1</valuemax>
								<value>0</value>
							</parameter>
						</effect>
					</filter>
					<sourcetrack>
						<mediatype>audio</mediatype>
						<trackindex>2</trackindex>
					</sourcetrack>
				</clipitem>
				<transitionitem id="956633896 ">
					<rate>
						<ntsc>FALSE</ntsc>
						<timebase>25</timebase>
					</rate>
					<start>7152</start>
					<end>7154</end>
					<alignment>center</alignment>
					<effect>
						<name>Cross Fade (+3dB) Copy</name>
						<effecttype>transition</effecttype>
						<mediatype>audio</mediatype>
					</effect>
				</transitionitem>
				<clipitem id="msub200012-0409d2k1002 25">
					<name>msub200012-0409d2k1002</name>
					<duration>10180</duration>
					<rate>
						<ntsc>FALSE</ntsc>
						<timebase>25</timebase>
					</rate>
					<in>9333</in>
					<out>9460</out>
					<start>-1</start>
					<end>-1</end>
					<subframeoffset>0</subframeoffset>
					<masterclipid>msub200012-0409d2k1002 1</masterclipid>
					<syncoffset>0</syncoffset>
					<logginginfo>
						<description>msub200012-0409d2k1002</description>
						<scene/>
						<shottake/>
						<lognote/>
						<good>FALSE</good>
					</logginginfo>
					<labels>
						<label>Best Take</label>
						<label2/>
					</labels>
					<comments>
						<mastercomment1>RÅSTOFF. BR_FINFREDAG_MSUA_OPRO</mastercomment1>
						<mastercomment2/>
						<mastercomment3/>
						<mastercomment4/>
					</comments>
					<file id="msub200012-0409d2k1002 2"/>
					<filter>
						<start>-1</start>
						<end>-1</end>
						<effect>
							<name>3 Band Equalizer - Kristine</name>
							<effecttype>filter</effecttype>
							<mediatype>audio</mediatype>
							<parameter>
								<parameterid>Low Frequency</parameterid>
								<name>Low Frequency</name>
								<valuemin>80</valuemin>
								<valuemax>2000</valuemax>
								<value>80</value>
							</parameter>
							<parameter>
								<parameterid>Low Gain(dB)</parameterid>
								<name>Low Gain(dB)</name>
								<valuemin>-20</valuemin>
								<valuemax>20</valuemax>
								<value>-4</value>
							</parameter>
							<parameter>
								<parameterid>Mid Frequency</parameterid>
								<name>Mid Frequency</name>
								<valuemin>400</valuemin>
								<valuemax>8000</valuemax>
								<value>3602</value>
							</parameter>
							<parameter>
								<parameterid>Mid Gain(dB)</parameterid>
								<name>Mid Gain(dB)</name>
								<valuemin>-20</valuemin>
								<valuemax>20</valuemax>
								<value>3</value>
							</parameter>
							<parameter>
								<parameterid>High Frequency</parameterid>
								<name>High Frequency</name>
								<valuemin>5000</valuemin>
								<valuemax>20000</valuemax>
								<value>10354</value>
							</parameter>
							<parameter>
								<parameterid>High Gain(dB)</parameterid>
								<name>High Gain(dB)</name>
								<valuemin>-20</valuemin>
								<valuemax>20</valuemax>
								<value>0</value>
							</parameter>
						</effect>
					</filter>
					<filter>
						<effect>
							<name>Audio Levels</name>
							<effectid>audiolevels</effectid>
							<effectcategory>audiolevels</effectcategory>
							<effecttype>audiolevels</effecttype>
							<mediatype>audio</mediatype>
							<parameter>
								<name>Level</name>
								<parameterid>level</parameterid>
								<valuemin>0</valuemin>
								<valuemax>3.98109</valuemax>
								<value>1.58489</value>
							</parameter>
						</effect>
					</filter>
					<filter>
						<effect>
							<name>Audio Pan</name>
							<effectid>audiopan</effectid>
							<effectcategory>audiopan</effectcategory>
							<effecttype>audiopan</effecttype>
							<mediatype>audio</mediatype>
							<parameter>
								<name>Pan</name>
								<parameterid>pan</parameterid>
								<valuemin>-1</valuemin>
								<valuemax>1</valuemax>
								<value>0</value>
							</parameter>
						</effect>
					</filter>
					<sourcetrack>
						<mediatype>audio</mediatype>
						<trackindex>2</trackindex>
					</sourcetrack>
				</clipitem>
				<transitionitem id="956616896 ">
					<rate>
						<ntsc>FALSE</ntsc>
						<timebase>25</timebase>
					</rate>
					<start>7277</start>
					<end>7279</end>
					<alignment>end-black</alignment>
					<effect>
						<name>Cross Fade (+3dB) Copy</name>
						<effecttype>transition</effecttype>
						<mediatype>audio</mediatype>
					</effect>
				</transitionitem>
				<transitionitem id="956616556 ">
					<rate>
						<ntsc>FALSE</ntsc>
						<timebase>25</timebase>
					</rate>
					<start>7296</start>
					<end>7308</end>
					<alignment>center</alignment>
					<effect>
						<name>Cross Fade (+3dB) Copy</name>
						<effecttype>transition</effecttype>
						<mediatype>audio</mediatype>
					</effect>
				</transitionitem>
				<clipitem id="KMTE60004512AA3">
					<name>KMTE60004512AA</name>
					<duration>88320</duration>
					<rate>
						<ntsc>FALSE</ntsc>
						<timebase>25</timebase>
					</rate>
					<in>66242</in>
					<out>66563</out>
					<start>-1</start>
					<end>-1</end>
					<subframeoffset>0</subframeoffset>
					<masterclipid>KMTE60004512AA1</masterclipid>
					<logginginfo>
						<description>Justin Bieber live i Oslo</description>
						<scene/>
						<shottake/>
						<lognote/>
						<good>FALSE</good>
					</logginginfo>
					<labels>
						<label2/>
					</labels>
					<comments>
						<mastercomment1>PROGRAM. BR_MEGAFON_MSUA_OPRO. BR_FINFREDAG_MSUA_OPRO</mastercomment1>
						<mastercomment2>. </mastercomment2>
						<mastercomment3>Sendt: 2012-06-20. Universal Music, Norway; Norge.</mastercomment3>
						<mastercomment4/>
						<clipcommentb>1:F-mix venstre 2:F-mix høyre 3:I-lyd venstre 4:I-lyd høyre</clipcommentb>
					</comments>
					<file id="KMTE60004512AA2"/>
					<marker>
						<name>Justin Bieber møter fans</name>
						<comment/>
						<in>1275</in>
						<out>2025</out>
					</marker>
					<marker>
						<name>Arrangørene er bekymret for sikkerheten</name>
						<comment/>
						<in>7566</in>
						<out>8316</out>
					</marker>
					<marker>
						<name>Folk trenger seg inn på operataket</name>
						<comment/>
						<in>9128</in>
						<out>9878</out>
					</marker>
					<marker>
						<name>Politiet vurderer å avlyse konserten</name>
						<comment/>
						<in>10891</in>
						<out>11641</out>
					</marker>
					<marker>
						<name>Justin Bieber ankommer scenen</name>
						<comment/>
						<in>13795</in>
						<out>14545</out>
					</marker>
					<marker>
						<name>Justin Bieber møter Fredrik Skavlan på Nationalteatret</name>
						<comment/>
						<in>27699</in>
						<out>28449</out>
					</marker>
					<marker>
						<name>Justin snakker om kjæresten og om å være i et forhold</name>
						<comment/>
						<in>29221</in>
						<out>29971</out>
					</marker>
					<marker>
						<name>Justin skakker om at han ikke er en barnestjerne lenger</name>
						<comment/>
						<in>30447</in>
						<out>31197</out>
					</marker>
					<marker>
						<name>Justin om å vokse opp i rampelyset</name>
						<comment/>
						<in>32492</in>
						<out>33242</out>
					</marker>
					<marker>
						<name>Justin om barndommen</name>
						<comment/>
						<in>35024</in>
						<out>35774</out>
					</marker>
					<filter>
						<effect>
							<name>Audio Levels</name>
							<effectid>audiolevels</effectid>
							<effectcategory>audiolevels</effectcategory>
							<effecttype>audiolevels</effecttype>
							<mediatype>audio</mediatype>
							<parameter>
								<name>Level</name>
								<parameterid>level</parameterid>
								<valuemin>0</valuemin>
								<valuemax>3.98109</valuemax>
								<keyframe>
									<when>66516.3</when>
									<value>0.597675</value>
								</keyframe>
								<keyframe>
									<when>66549.1</when>
									<value>0.0891251</value>
								</keyframe>
								<interpolation>
									<name>FCPCurve</name>
								</interpolation>
								<value>0.597675</value>
							</parameter>
						</effect>
					</filter>
					<filter>
						<effect>
							<name>Audio Pan</name>
							<effectid>audiopan</effectid>
							<effectcategory>audiopan</effectcategory>
							<effecttype>audiopan</effecttype>
							<mediatype>audio</mediatype>
							<parameter>
								<name>Pan</name>
								<parameterid>pan</parameterid>
								<valuemin>-1</valuemin>
								<valuemax>1</valuemax>
								<value>1</value>
							</parameter>
						</effect>
					</filter>
					<sourcetrack>
						<mediatype>audio</mediatype>
						<trackindex>2</trackindex>
					</sourcetrack>
				</clipitem>
				<transitionitem id="956615128 ">
					<rate>
						<ntsc>FALSE</ntsc>
						<timebase>25</timebase>
					</rate>
					<start>7605</start>
					<end>7617</end>
					<alignment>end-black</alignment>
					<effect>
						<name>Cross Fade (+3dB) Copy</name>
						<effecttype>transition</effecttype>
						<mediatype>audio</mediatype>
					</effect>
				</transitionitem>
				<transitionitem id="956614040 ">
					<rate>
						<ntsc>FALSE</ntsc>
						<timebase>25</timebase>
					</rate>
					<start>9123</start>
					<end>9135</end>
					<alignment>center</alignment>
					<effect>
						<name>Cross Fade (+3dB) Copy</name>
						<effecttype>transition</effecttype>
						<mediatype>audio</mediatype>
					</effect>
				</transitionitem>
				<clipitem id="msub200012-2108kid1-005 3">
					<name>msub200012-2108kid1-005</name>
					<duration>674</duration>
					<rate>
						<ntsc>FALSE</ntsc>
						<timebase>25</timebase>
					</rate>
					<in>205</in>
					<out>573</out>
					<start>-1</start>
					<end>-1</end>
					<subframeoffset>0</subframeoffset>
					<enabled>TRUE</enabled>
					<masterclipid>msub200012-2108kid1-005 1</masterclipid>
					<logginginfo>
						<description>msub200012-2108kid1-005</description>
						<scene/>
						<shottake/>
						<lognote/>
						<good>FALSE</good>
					</logginginfo>
					<labels>
						<label2/>
					</labels>
					<comments>
						<mastercomment1>RÅSTOFF. BR_FINFREDAG_MSUA_OPRO</mastercomment1>
						<mastercomment2/>
						<mastercomment3/>
						<mastercomment4/>
					</comments>
					<file id="msub200012-2108kid1-005 2"/>
					<filter>
						<enabled>TRUE</enabled>
						<start>-1</start>
						<end>-1</end>
						<effect>
							<name>3 Band Equalizer</name>
							<effecttype>filter</effecttype>
							<mediatype>audio</mediatype>
							<parameter>
								<parameterid>Low Frequency</parameterid>
								<name>Low Frequency</name>
								<valuemin>80</valuemin>
								<valuemax>2000</valuemax>
								<value>100</value>
							</parameter>
							<parameter>
								<parameterid>Low Gain(dB)</parameterid>
								<name>Low Gain(dB)</name>
								<valuemin>-20</valuemin>
								<valuemax>20</valuemax>
								<value>-4</value>
							</parameter>
							<parameter>
								<parameterid>Mid Frequency</parameterid>
								<name>Mid Frequency</name>
								<valuemin>400</valuemin>
								<valuemax>8000</valuemax>
								<value>3602</value>
							</parameter>
							<parameter>
								<parameterid>Mid Gain(dB)</parameterid>
								<name>Mid Gain(dB)</name>
								<valuemin>-20</valuemin>
								<valuemax>20</valuemax>
								<value>3</value>
							</parameter>
							<parameter>
								<parameterid>High Frequency</parameterid>
								<name>High Frequency</name>
								<valuemin>5000</valuemin>
								<valuemax>20000</valuemax>
								<value>10354</value>
							</parameter>
							<parameter>
								<parameterid>High Gain(dB)</parameterid>
								<name>High Gain(dB)</name>
								<valuemin>-20</valuemin>
								<valuemax>20</valuemax>
								<value>0</value>
							</parameter>
						</effect>
					</filter>
					<filter>
						<effect>
							<name>Audio Levels</name>
							<effectid>audiolevels</effectid>
							<effectcategory>audiolevels</effectcategory>
							<effecttype>audiolevels</effecttype>
							<mediatype>audio</mediatype>
							<parameter>
								<name>Level</name>
								<parameterid>level</parameterid>
								<valuemin>0</valuemin>
								<valuemax>3.98109</valuemax>
								<keyframe>
									<when>320</when>
									<value>0.891251</value>
								</keyframe>
								<keyframe>
									<when>330.571</when>
									<value>0.446684</value>
								</keyframe>
								<keyframe>
									<when>373.321</when>
									<value>0.398107</value>
								</keyframe>
								<keyframe>
									<when>381.679</when>
									<value>0.794328</value>
								</keyframe>
								<keyframe>
									<when>387.464</when>
									<value>0.794328</value>
								</keyframe>
								<keyframe>
									<when>391.429</when>
									<value>0.794328</value>
								</keyframe>
								<keyframe>
									<when>400.643</when>
									<value>0.547459</value>
								</keyframe>
								<keyframe>
									<when>455.714</when>
									<value>0.446684</value>
								</keyframe>
								<keyframe>
									<when>461.393</when>
									<value>1</value>
								</keyframe>
								<keyframe>
									<when>468.143</when>
									<value>1</value>
								</keyframe>
								<keyframe>
									<when>473.929</when>
									<value>0.398107</value>
								</keyframe>
								<keyframe>
									<when>491.607</when>
									<value>0.398107</value>
								</keyframe>
								<keyframe>
									<when>496.107</when>
									<value>0.891251</value>
								</keyframe>
								<keyframe>
									<when>509.929</when>
									<value>0.891251</value>
								</keyframe>
								<keyframe>
									<when>512.179</when>
									<value>1</value>
								</keyframe>
								<interpolation>
									<name>FCPCurve</name>
								</interpolation>
								<value>1.12202</value>
							</parameter>
						</effect>
					</filter>
					<filter>
						<effect>
							<name>Audio Pan</name>
							<effectid>audiopan</effectid>
							<effectcategory>audiopan</effectcategory>
							<effecttype>audiopan</effecttype>
							<mediatype>audio</mediatype>
							<parameter>
								<name>Pan</name>
								<parameterid>pan</parameterid>
								<valuemin>-1</valuemin>
								<valuemax>1</valuemax>
								<value>0</value>
							</parameter>
						</effect>
					</filter>
					<sourcetrack>
						<mediatype>audio</mediatype>
						<trackindex>2</trackindex>
					</sourcetrack>
				</clipitem>
				<transitionitem id="956637432 ">
					<rate>
						<ntsc>FALSE</ntsc>
						<timebase>25</timebase>
					</rate>
					<start>9479</start>
					<end>9491</end>
					<alignment>end-black</alignment>
					<effect>
						<name>Cross Fade (+3dB) Copy</name>
						<effecttype>transition</effecttype>
						<mediatype>audio</mediatype>
					</effect>
				</transitionitem>
				<clipitem id="msub200012-2108kid1-026 3">
					<name>msub200012-2108kid1-026</name>
					<duration>2145</duration>
					<rate>
						<ntsc>FALSE</ntsc>
						<timebase>25</timebase>
					</rate>
					<in>165</in>
					<out>488</out>
					<start>9794</start>
					<end>-1</end>
					<subframeoffset>0</subframeoffset>
					<enabled>TRUE</enabled>
					<masterclipid>msub200012-2108kid1-026 1</masterclipid>
					<logginginfo>
						<description>msub200012-2108kid1-026</description>
						<scene/>
						<shottake/>
						<lognote/>
						<good>FALSE</good>
					</logginginfo>
					<labels>
						<label2/>
					</labels>
					<comments>
						<mastercomment1>RÅSTOFF. BR_FINFREDAG_MSUA_OPRO</mastercomment1>
						<mastercomment2/>
						<mastercomment3/>
						<mastercomment4/>
					</comments>
					<file id="msub200012-2108kid1-026 2"/>
					<filter>
						<enabled>TRUE</enabled>
						<start>-1</start>
						<end>-1</end>
						<effect>
							<name>3 Band Equalizer</name>
							<effecttype>filter</effecttype>
							<mediatype>audio</mediatype>
							<parameter>
								<parameterid>Low Frequency</parameterid>
								<name>Low Frequency</name>
								<valuemin>80</valuemin>
								<valuemax>2000</valuemax>
								<value>100</value>
							</parameter>
							<parameter>
								<parameterid>Low Gain(dB)</parameterid>
								<name>Low Gain(dB)</name>
								<valuemin>-20</valuemin>
								<valuemax>20</valuemax>
								<value>-4</value>
							</parameter>
							<parameter>
								<parameterid>Mid Frequency</parameterid>
								<name>Mid Frequency</name>
								<valuemin>400</valuemin>
								<valuemax>8000</valuemax>
								<value>3602</value>
							</parameter>
							<parameter>
								<parameterid>Mid Gain(dB)</parameterid>
								<name>Mid Gain(dB)</name>
								<valuemin>-20</valuemin>
								<valuemax>20</valuemax>
								<value>3</value>
							</parameter>
							<parameter>
								<parameterid>High Frequency</parameterid>
								<name>High Frequency</name>
								<valuemin>5000</valuemin>
								<valuemax>20000</valuemax>
								<value>10354</value>
							</parameter>
							<parameter>
								<parameterid>High Gain(dB)</parameterid>
								<name>High Gain(dB)</name>
								<valuemin>-20</valuemin>
								<valuemax>20</valuemax>
								<value>0</value>
							</parameter>
						</effect>
					</filter>
					<filter>
						<effect>
							<name>Audio Levels</name>
							<effectid>audiolevels</effectid>
							<effectcategory>audiolevels</effectcategory>
							<effecttype>audiolevels</effecttype>
							<mediatype>audio</mediatype>
							<parameter>
								<name>Level</name>
								<parameterid>level</parameterid>
								<valuemin>0</valuemin>
								<valuemax>3.98109</valuemax>
								<keyframe>
									<when>261.786</when>
									<value>0.354813</value>
								</keyframe>
								<keyframe>
									<when>268.857</when>
									<value>0.891251</value>
								</keyframe>
								<keyframe>
									<when>281.393</when>
									<value>0.891251</value>
								</keyframe>
								<keyframe>
									<when>287.857</when>
									<value>0.354813</value>
								</keyframe>
								<keyframe>
									<when>311.286</when>
									<value>0.354813</value>
								</keyframe>
								<keyframe>
									<when>314.143</when>
									<value>1.25893</value>
								</keyframe>
								<keyframe>
									<when>332.714</when>
									<value>1.25893</value>
								</keyframe>
								<keyframe>
									<when>337.286</when>
									<value>0.0891251</value>
								</keyframe>
								<keyframe>
									<when>383</when>
									<value>0.0891251</value>
								</keyframe>
								<keyframe>
									<when>389.571</when>
									<value>1</value>
								</keyframe>
								<keyframe>
									<when>403</when>
									<value>1</value>
								</keyframe>
								<keyframe>
									<when>405</when>
									<value>0.707946</value>
								</keyframe>
								<keyframe>
									<when>420.714</when>
									<value>0.707946</value>
								</keyframe>
								<keyframe>
									<when>424.143</when>
									<value>1.25893</value>
								</keyframe>
								<keyframe>
									<when>437.571</when>
									<value>1.25893</value>
								</keyframe>
								<keyframe>
									<when>443</when>
									<value>0.707946</value>
								</keyframe>
								<interpolation>
									<name>FCPCurve</name>
								</interpolation>
								<value>1.41254</value>
							</parameter>
						</effect>
					</filter>
					<filter>
						<effect>
							<name>Audio Pan</name>
							<effectid>audiopan</effectid>
							<effectcategory>audiopan</effectcategory>
							<effecttype>audiopan</effecttype>
							<mediatype>audio</mediatype>
							<parameter>
								<name>Pan</name>
								<parameterid>pan</parameterid>
								<valuemin>-1</valuemin>
								<valuemax>1</valuemax>
								<value>0</value>
							</parameter>
						</effect>
					</filter>
					<sourcetrack>
						<mediatype>audio</mediatype>
						<trackindex>2</trackindex>
					</sourcetrack>
				</clipitem>
				<transitionitem id="956625124 ">
					<rate>
						<ntsc>FALSE</ntsc>
						<timebase>25</timebase>
					</rate>
					<start>10105</start>
					<end>10117</end>
					<alignment>end-black</alignment>
					<effect>
						<name>Cross Fade (+3dB) Copy</name>
						<effecttype>transition</effecttype>
						<mediatype>audio</mediatype>
					</effect>
				</transitionitem>
				<transitionitem id="956625260 ">
					<rate>
						<ntsc>FALSE</ntsc>
						<timebase>25</timebase>
					</rate>
					<start>10285</start>
					<end>10297</end>
					<alignment>center</alignment>
					<effect>
						<name>Cross Fade (+3dB) Copy</name>
						<effecttype>transition</effecttype>
						<mediatype>audio</mediatype>
					</effect>
				</transitionitem>
				<clipitem id="msub200012-2108kid1-032 4">
					<name>msub200012-2108kid1-032</name>
					<duration>3429</duration>
					<rate>
						<ntsc>FALSE</ntsc>
						<timebase>25</timebase>
					</rate>
					<in>2657</in>
					<out>2748</out>
					<start>-1</start>
					<end>-1</end>
					<subframeoffset>0</subframeoffset>
					<enabled>TRUE</enabled>
					<masterclipid>msub200012-2108kid1-032 1</masterclipid>
					<logginginfo>
						<description>msub200012-2108kid1-032</description>
						<scene/>
						<shottake/>
						<lognote/>
						<good>FALSE</good>
					</logginginfo>
					<labels>
						<label2/>
					</labels>
					<comments>
						<mastercomment1>RÅSTOFF. BR_FINFREDAG_MSUA_OPRO</mastercomment1>
						<mastercomment2/>
						<mastercomment3/>
						<mastercomment4/>
					</comments>
					<file id="msub200012-2108kid1-032 2"/>
					<filter>
						<enabled>TRUE</enabled>
						<start>-1</start>
						<end>-1</end>
						<effect>
							<name>3 Band Equalizer</name>
							<effecttype>filter</effecttype>
							<mediatype>audio</mediatype>
							<parameter>
								<parameterid>Low Frequency</parameterid>
								<name>Low Frequency</name>
								<valuemin>80</valuemin>
								<valuemax>2000</valuemax>
								<value>100</value>
							</parameter>
							<parameter>
								<parameterid>Low Gain(dB)</parameterid>
								<name>Low Gain(dB)</name>
								<valuemin>-20</valuemin>
								<valuemax>20</valuemax>
								<value>-15</value>
							</parameter>
							<parameter>
								<parameterid>Mid Frequency</parameterid>
								<name>Mid Frequency</name>
								<valuemin>400</valuemin>
								<valuemax>8000</valuemax>
								<value>3602</value>
							</parameter>
							<parameter>
								<parameterid>Mid Gain(dB)</parameterid>
								<name>Mid Gain(dB)</name>
								<valuemin>-20</valuemin>
								<valuemax>20</valuemax>
								<value>3</value>
							</parameter>
							<parameter>
								<parameterid>High Frequency</parameterid>
								<name>High Frequency</name>
								<valuemin>5000</valuemin>
								<valuemax>20000</valuemax>
								<value>10354</value>
							</parameter>
							<parameter>
								<parameterid>High Gain(dB)</parameterid>
								<name>High Gain(dB)</name>
								<valuemin>-20</valuemin>
								<valuemax>20</valuemax>
								<value>0</value>
							</parameter>
						</effect>
					</filter>
					<filter>
						<effect>
							<name>Audio Levels</name>
							<effectid>audiolevels</effectid>
							<effectcategory>audiolevels</effectcategory>
							<effecttype>audiolevels</effecttype>
							<mediatype>audio</mediatype>
							<parameter>
								<name>Level</name>
								<parameterid>level</parameterid>
								<valuemin>0</valuemin>
								<valuemax>3.98109</valuemax>
								<value>0.199526</value>
							</parameter>
						</effect>
					</filter>
					<filter>
						<effect>
							<name>Audio Pan</name>
							<effectid>audiopan</effectid>
							<effectcategory>audiopan</effectcategory>
							<effecttype>audiopan</effecttype>
							<mediatype>audio</mediatype>
							<parameter>
								<name>Pan</name>
								<parameterid>pan</parameterid>
								<valuemin>-1</valuemin>
								<valuemax>1</valuemax>
								<value>0</value>
							</parameter>
						</effect>
					</filter>
					<sourcetrack>
						<mediatype>audio</mediatype>
						<trackindex>2</trackindex>
					</sourcetrack>
				</clipitem>
				<transitionitem id="956626008 ">
					<rate>
						<ntsc>FALSE</ntsc>
						<timebase>25</timebase>
					</rate>
					<start>10364</start>
					<end>10376</end>
					<alignment>center</alignment>
					<effect>
						<name>Cross Fade (+3dB) Copy</name>
						<effecttype>transition</effecttype>
						<mediatype>audio</mediatype>
					</effect>
				</transitionitem>
				<clipitem id="msub200012-2108kid1-032 5">
					<name>msub200012-2108kid1-032</name>
					<duration>3429</duration>
					<rate>
						<ntsc>FALSE</ntsc>
						<timebase>25</timebase>
					</rate>
					<in>2736</in>
					<out>2933</out>
					<start>-1</start>
					<end>-1</end>
					<subframeoffset>0</subframeoffset>
					<enabled>TRUE</enabled>
					<masterclipid>msub200012-2108kid1-032 1</masterclipid>
					<logginginfo>
						<description>msub200012-2108kid1-032</description>
						<scene/>
						<shottake/>
						<lognote/>
						<good>FALSE</good>
					</logginginfo>
					<labels>
						<label2/>
					</labels>
					<comments>
						<mastercomment1>RÅSTOFF. BR_FINFREDAG_MSUA_OPRO</mastercomment1>
						<mastercomment2/>
						<mastercomment3/>
						<mastercomment4/>
					</comments>
					<file id="msub200012-2108kid1-032 2"/>
					<filter>
						<enabled>TRUE</enabled>
						<start>-1</start>
						<end>-1</end>
						<effect>
							<name>3 Band Equalizer - Mann</name>
							<effecttype>filter</effecttype>
							<mediatype>audio</mediatype>
							<parameter>
								<parameterid>Low Frequency</parameterid>
								<name>Low Frequency</name>
								<valuemin>80</valuemin>
								<valuemax>2000</valuemax>
								<value>100</value>
							</parameter>
							<parameter>
								<parameterid>Low Gain(dB)</parameterid>
								<name>Low Gain(dB)</name>
								<valuemin>-20</valuemin>
								<valuemax>20</valuemax>
								<value>-4</value>
							</parameter>
							<parameter>
								<parameterid>Mid Frequency</parameterid>
								<name>Mid Frequency</name>
								<valuemin>400</valuemin>
								<valuemax>8000</valuemax>
								<value>3602</value>
							</parameter>
							<parameter>
								<parameterid>Mid Gain(dB)</parameterid>
								<name>Mid Gain(dB)</name>
								<valuemin>-20</valuemin>
								<valuemax>20</valuemax>
								<value>3</value>
							</parameter>
							<parameter>
								<parameterid>High Frequency</parameterid>
								<name>High Frequency</name>
								<valuemin>5000</valuemin>
								<valuemax>20000</valuemax>
								<value>10354</value>
							</parameter>
							<parameter>
								<parameterid>High Gain(dB)</parameterid>
								<name>High Gain(dB)</name>
								<valuemin>-20</valuemin>
								<valuemax>20</valuemax>
								<value>0</value>
							</parameter>
						</effect>
					</filter>
					<filter>
						<effect>
							<name>Audio Levels</name>
							<effectid>audiolevels</effectid>
							<effectcategory>audiolevels</effectcategory>
							<effecttype>audiolevels</effecttype>
							<mediatype>audio</mediatype>
							<parameter>
								<name>Level</name>
								<parameterid>level</parameterid>
								<valuemin>0</valuemin>
								<valuemax>3.98109</valuemax>
								<keyframe>
									<when>2918</when>
									<value>1.12202</value>
								</keyframe>
								<keyframe>
									<when>2922.86</when>
									<value>0.354813</value>
								</keyframe>
								<interpolation>
									<name>FCPCurve</name>
								</interpolation>
								<value>1.25893</value>
							</parameter>
						</effect>
					</filter>
					<filter>
						<effect>
							<name>Audio Pan</name>
							<effectid>audiopan</effectid>
							<effectcategory>audiopan</effectcategory>
							<effecttype>audiopan</effecttype>
							<mediatype>audio</mediatype>
							<parameter>
								<name>Pan</name>
								<parameterid>pan</parameterid>
								<valuemin>-1</valuemin>
								<valuemax>1</valuemax>
								<value>0</value>
							</parameter>
						</effect>
					</filter>
					<sourcetrack>
						<mediatype>audio</mediatype>
						<trackindex>2</trackindex>
					</sourcetrack>
				</clipitem>
				<transitionitem id="956610232 ">
					<rate>
						<ntsc>FALSE</ntsc>
						<timebase>25</timebase>
					</rate>
					<start>10560</start>
					<end>10561</end>
					<alignment>end-black</alignment>
					<effect>
						<name>Cross Fade (+3dB) Copy</name>
						<effecttype>transition</effecttype>
						<mediatype>audio</mediatype>
					</effect>
				</transitionitem>
				<transitionitem id="956610096 ">
					<rate>
						<ntsc>FALSE</ntsc>
						<timebase>25</timebase>
					</rate>
					<start>11019</start>
					<end>11025</end>
					<alignment>start-black</alignment>
					<effect>
						<name>Cross Fade (+3dB) Copy</name>
						<effecttype>transition</effecttype>
						<mediatype>audio</mediatype>
					</effect>
				</transitionitem>
				<clipitem id="msub200012-2108kid1-017 3">
					<name>msub200012-2108kid1-017</name>
					<duration>2619</duration>
					<rate>
						<ntsc>FALSE</ntsc>
						<timebase>25</timebase>
					</rate>
					<in>1591</in>
					<out>1612</out>
					<start>-1</start>
					<end>-1</end>
					<subframeoffset>0</subframeoffset>
					<masterclipid>msub200012-2108kid1-017 1</masterclipid>
					<logginginfo>
						<description>msub200012-2108kid1-017</description>
						<scene/>
						<shottake/>
						<lognote/>
						<good>FALSE</good>
					</logginginfo>
					<labels>
						<label2/>
					</labels>
					<comments>
						<mastercomment1>RÅSTOFF. BR_FINFREDAG_MSUA_OPRO</mastercomment1>
						<mastercomment2/>
						<mastercomment3/>
						<mastercomment4/>
					</comments>
					<file id="msub200012-2108kid1-017 2"/>
					<filter>
						<start>-1</start>
						<end>-1</end>
						<effect>
							<name>3 Band Equalizer - Mann</name>
							<effecttype>filter</effecttype>
							<mediatype>audio</mediatype>
							<parameter>
								<parameterid>Low Frequency</parameterid>
								<name>Low Frequency</name>
								<valuemin>80</valuemin>
								<valuemax>2000</valuemax>
								<value>100</value>
							</parameter>
							<parameter>
								<parameterid>Low Gain(dB)</parameterid>
								<name>Low Gain(dB)</name>
								<valuemin>-20</valuemin>
								<valuemax>20</valuemax>
								<value>-4</value>
							</parameter>
							<parameter>
								<parameterid>Mid Frequency</parameterid>
								<name>Mid Frequency</name>
								<valuemin>400</valuemin>
								<valuemax>8000</valuemax>
								<value>3602</value>
							</parameter>
							<parameter>
								<parameterid>Mid Gain(dB)</parameterid>
								<name>Mid Gain(dB)</name>
								<valuemin>-20</valuemin>
								<valuemax>20</valuemax>
								<value>3</value>
							</parameter>
							<parameter>
								<parameterid>High Frequency</parameterid>
								<name>High Frequency</name>
								<valuemin>5000</valuemin>
								<valuemax>20000</valuemax>
								<value>10354</value>
							</parameter>
							<parameter>
								<parameterid>High Gain(dB)</parameterid>
								<name>High Gain(dB)</name>
								<valuemin>-20</valuemin>
								<valuemax>20</valuemax>
								<value>0</value>
							</parameter>
						</effect>
					</filter>
					<filter>
						<effect>
							<name>Audio Levels</name>
							<effectid>audiolevels</effectid>
							<effectcategory>audiolevels</effectcategory>
							<effecttype>audiolevels</effecttype>
							<mediatype>audio</mediatype>
							<parameter>
								<name>Level</name>
								<parameterid>level</parameterid>
								<valuemin>0</valuemin>
								<valuemax>3.98109</valuemax>
								<value>3.16228</value>
							</parameter>
						</effect>
					</filter>
					<filter>
						<effect>
							<name>Audio Pan</name>
							<effectid>audiopan</effectid>
							<effectcategory>audiopan</effectcategory>
							<effecttype>audiopan</effecttype>
							<mediatype>audio</mediatype>
							<parameter>
								<name>Pan</name>
								<parameterid>pan</parameterid>
								<valuemin>-1</valuemin>
								<valuemax>1</valuemax>
								<value>0</value>
							</parameter>
						</effect>
					</filter>
					<sourcetrack>
						<mediatype>audio</mediatype>
						<trackindex>3</trackindex>
					</sourcetrack>
				</clipitem>
				<transitionitem id="956613496 ">
					<rate>
						<ntsc>FALSE</ntsc>
						<timebase>25</timebase>
					</rate>
					<start>11034</start>
					<end>11040</end>
					<alignment>end-black</alignment>
					<effect>
						<name>Cross Fade (+3dB) Copy</name>
						<effecttype>transition</effecttype>
						<mediatype>audio</mediatype>
					</effect>
				</transitionitem>
				<transitionitem id="37455588 ">
					<rate>
						<ntsc>FALSE</ntsc>
						<timebase>25</timebase>
					</rate>
					<start>11172</start>
					<end>11184</end>
					<alignment>start-black</alignment>
					<effect>
						<name>Cross Fade (+3dB) Copy</name>
						<effecttype>transition</effecttype>
						<mediatype>audio</mediatype>
					</effect>
				</transitionitem>
				<clipitem id="msub200012-2108kid1-019 6">
					<name>msub200012-2108kid1-019</name>
					<duration>2884</duration>
					<rate>
						<ntsc>FALSE</ntsc>
						<timebase>25</timebase>
					</rate>
					<in>1069</in>
					<out>1246</out>
					<start>-1</start>
					<end>-1</end>
					<subframeoffset>0</subframeoffset>
					<masterclipid>msub200012-2108kid1-019 1</masterclipid>
					<logginginfo>
						<description>msub200012-2108kid1-019</description>
						<scene/>
						<shottake/>
						<lognote/>
						<good>FALSE</good>
					</logginginfo>
					<labels>
						<label2/>
					</labels>
					<comments>
						<mastercomment1>RÅSTOFF. BR_FINFREDAG_MSUA_OPRO</mastercomment1>
						<mastercomment2/>
						<mastercomment3/>
						<mastercomment4/>
					</comments>
					<file id="msub200012-2108kid1-019 2"/>
					<filter>
						<start>-1</start>
						<end>-1</end>
						<effect>
							<name>3 Band Equalizer - Mann</name>
							<effecttype>filter</effecttype>
							<mediatype>audio</mediatype>
							<parameter>
								<parameterid>Low Frequency</parameterid>
								<name>Low Frequency</name>
								<valuemin>80</valuemin>
								<valuemax>2000</valuemax>
								<value>100</value>
							</parameter>
							<parameter>
								<parameterid>Low Gain(dB)</parameterid>
								<name>Low Gain(dB)</name>
								<valuemin>-20</valuemin>
								<valuemax>20</valuemax>
								<value>-4</value>
							</parameter>
							<parameter>
								<parameterid>Mid Frequency</parameterid>
								<name>Mid Frequency</name>
								<valuemin>400</valuemin>
								<valuemax>8000</valuemax>
								<value>3602</value>
							</parameter>
							<parameter>
								<parameterid>Mid Gain(dB)</parameterid>
								<name>Mid Gain(dB)</name>
								<valuemin>-20</valuemin>
								<valuemax>20</valuemax>
								<value>3</value>
							</parameter>
							<parameter>
								<parameterid>High Frequency</parameterid>
								<name>High Frequency</name>
								<valuemin>5000</valuemin>
								<valuemax>20000</valuemax>
								<value>10354</value>
							</parameter>
							<parameter>
								<parameterid>High Gain(dB)</parameterid>
								<name>High Gain(dB)</name>
								<valuemin>-20</valuemin>
								<valuemax>20</valuemax>
								<value>0</value>
							</parameter>
						</effect>
					</filter>
					<filter>
						<effect>
							<name>Audio Levels</name>
							<effectid>audiolevels</effectid>
							<effectcategory>audiolevels</effectcategory>
							<effecttype>audiolevels</effecttype>
							<mediatype>audio</mediatype>
							<parameter>
								<name>Level</name>
								<parameterid>level</parameterid>
								<valuemin>0</valuemin>
								<valuemax>3.98109</valuemax>
								<keyframe>
									<when>1111</when>
									<value>1</value>
								</keyframe>
								<keyframe>
									<when>1123</when>
									<value>1.41254</value>
								</keyframe>
								<keyframe>
									<when>1143.57</when>
									<value>1.41254</value>
								</keyframe>
								<keyframe>
									<when>1148.43</when>
									<value>1.25893</value>
								</keyframe>
								<keyframe>
									<when>1159.57</when>
									<value>1.25893</value>
								</keyframe>
								<keyframe>
									<when>1164.14</when>
									<value>1.58489</value>
								</keyframe>
								<keyframe>
									<when>1197.29</when>
									<value>1.58489</value>
								</keyframe>
								<keyframe>
									<when>1204.14</when>
									<value>1</value>
								</keyframe>
								<keyframe>
									<when>1232.43</when>
									<value>1</value>
								</keyframe>
								<keyframe>
									<when>1236.43</when>
									<value>0.398107</value>
								</keyframe>
								<interpolation>
									<name>FCPCurve</name>
								</interpolation>
								<value>1</value>
							</parameter>
						</effect>
					</filter>
					<filter>
						<effect>
							<name>Audio Pan</name>
							<effectid>audiopan</effectid>
							<effectcategory>audiopan</effectcategory>
							<effecttype>audiopan</effecttype>
							<mediatype>audio</mediatype>
							<parameter>
								<name>Pan</name>
								<parameterid>pan</parameterid>
								<valuemin>-1</valuemin>
								<valuemax>1</valuemax>
								<value>0</value>
							</parameter>
						</effect>
					</filter>
					<sourcetrack>
						<mediatype>audio</mediatype>
						<trackindex>2</trackindex>
					</sourcetrack>
				</clipitem>
				<transitionitem id="37449808 ">
					<rate>
						<ntsc>FALSE</ntsc>
						<timebase>25</timebase>
					</rate>
					<start>11343</start>
					<end>11349</end>
					<alignment>center</alignment>
					<effect>
						<name>Cross Fade (+3dB) Copy</name>
						<effecttype>transition</effecttype>
						<mediatype>audio</mediatype>
					</effect>
				</transitionitem>
				<clipitem id="msub200012-2108kid1-019 7">
					<name>msub200012-2108kid1-019</name>
					<duration>2884</duration>
					<rate>
						<ntsc>FALSE</ntsc>
						<timebase>25</timebase>
					</rate>
					<in>1292</in>
					<out>1461</out>
					<start>-1</start>
					<end>-1</end>
					<subframeoffset>0</subframeoffset>
					<masterclipid>msub200012-2108kid1-019 1</masterclipid>
					<logginginfo>
						<description>msub200012-2108kid1-019</description>
						<scene/>
						<shottake/>
						<lognote/>
						<good>FALSE</good>
					</logginginfo>
					<labels>
						<label2/>
					</labels>
					<comments>
						<mastercomment1>RÅSTOFF. BR_FINFREDAG_MSUA_OPRO</mastercomment1>
						<mastercomment2/>
						<mastercomment3/>
						<mastercomment4/>
					</comments>
					<file id="msub200012-2108kid1-019 2"/>
					<filter>
						<start>-1</start>
						<end>-1</end>
						<effect>
							<name>3 Band Equalizer - Mann</name>
							<effecttype>filter</effecttype>
							<mediatype>audio</mediatype>
							<parameter>
								<parameterid>Low Frequency</parameterid>
								<name>Low Frequency</name>
								<valuemin>80</valuemin>
								<valuemax>2000</valuemax>
								<value>100</value>
							</parameter>
							<parameter>
								<parameterid>Low Gain(dB)</parameterid>
								<name>Low Gain(dB)</name>
								<valuemin>-20</valuemin>
								<valuemax>20</valuemax>
								<value>-4</value>
							</parameter>
							<parameter>
								<parameterid>Mid Frequency</parameterid>
								<name>Mid Frequency</name>
								<valuemin>400</valuemin>
								<valuemax>8000</valuemax>
								<value>3602</value>
							</parameter>
							<parameter>
								<parameterid>Mid Gain(dB)</parameterid>
								<name>Mid Gain(dB)</name>
								<valuemin>-20</valuemin>
								<valuemax>20</valuemax>
								<value>3</value>
							</parameter>
							<parameter>
								<parameterid>High Frequency</parameterid>
								<name>High Frequency</name>
								<valuemin>5000</valuemin>
								<valuemax>20000</valuemax>
								<value>10354</value>
							</parameter>
							<parameter>
								<parameterid>High Gain(dB)</parameterid>
								<name>High Gain(dB)</name>
								<valuemin>-20</valuemin>
								<valuemax>20</valuemax>
								<value>0</value>
							</parameter>
						</effect>
					</filter>
					<filter>
						<effect>
							<name>Audio Levels</name>
							<effectid>audiolevels</effectid>
							<effectcategory>audiolevels</effectcategory>
							<effecttype>audiolevels</effecttype>
							<mediatype>audio</mediatype>
							<parameter>
								<name>Level</name>
								<parameterid>level</parameterid>
								<valuemin>0</valuemin>
								<valuemax>3.98109</valuemax>
								<keyframe>
									<when>1325.14</when>
									<value>0.354813</value>
								</keyframe>
								<keyframe>
									<when>1329.43</when>
									<value>0.891251</value>
								</keyframe>
								<keyframe>
									<when>1440.04</when>
									<value>0.891251</value>
								</keyframe>
								<keyframe>
									<when>1445.93</when>
									<value>0.707946</value>
								</keyframe>
								<interpolation>
									<name>FCPCurve</name>
								</interpolation>
								<value>1</value>
							</parameter>
						</effect>
					</filter>
					<filter>
						<effect>
							<name>Audio Pan</name>
							<effectid>audiopan</effectid>
							<effectcategory>audiopan</effectcategory>
							<effecttype>audiopan</effecttype>
							<mediatype>audio</mediatype>
							<parameter>
								<name>Pan</name>
								<parameterid>pan</parameterid>
								<valuemin>-1</valuemin>
								<valuemax>1</valuemax>
								<value>0</value>
							</parameter>
						</effect>
					</filter>
					<sourcetrack>
						<mediatype>audio</mediatype>
						<trackindex>2</trackindex>
					</sourcetrack>
				</clipitem>
				<transitionitem id="37447020 ">
					<rate>
						<ntsc>FALSE</ntsc>
						<timebase>25</timebase>
					</rate>
					<start>11500</start>
					<end>11512</end>
					<alignment>end-black</alignment>
					<effect>
						<name>Cross Fade (+3dB) Copy</name>
						<effecttype>transition</effecttype>
						<mediatype>audio</mediatype>
					</effect>
				</transitionitem>
				<transitionitem id="37446680 ">
					<rate>
						<ntsc>FALSE</ntsc>
						<timebase>25</timebase>
					</rate>
					<start>11594</start>
					<end>11598</end>
					<alignment>start-black</alignment>
					<effect>
						<name>Cross Fade (+3dB) Copy</name>
						<effecttype>transition</effecttype>
						<mediatype>audio</mediatype>
					</effect>
				</transitionitem>
				<clipitem id="msub200012-2108kid1-019 8">
					<name>msub200012-2108kid1-019</name>
					<duration>2884</duration>
					<rate>
						<ntsc>FALSE</ntsc>
						<timebase>25</timebase>
					</rate>
					<in>1638</in>
					<out>1655</out>
					<start>-1</start>
					<end>11611</end>
					<subframeoffset>0</subframeoffset>
					<masterclipid>msub200012-2108kid1-019 1</masterclipid>
					<logginginfo>
						<description>msub200012-2108kid1-019</description>
						<scene/>
						<shottake/>
						<lognote/>
						<good>FALSE</good>
					</logginginfo>
					<labels>
						<label2/>
					</labels>
					<comments>
						<mastercomment1>RÅSTOFF. BR_FINFREDAG_MSUA_OPRO</mastercomment1>
						<mastercomment2/>
						<mastercomment3/>
						<mastercomment4/>
					</comments>
					<file id="msub200012-2108kid1-019 2"/>
					<filter>
						<effect>
							<name>Audio Levels</name>
							<effectid>audiolevels</effectid>
							<effectcategory>audiolevels</effectcategory>
							<effecttype>audiolevels</effecttype>
							<mediatype>audio</mediatype>
							<parameter>
								<name>Level</name>
								<parameterid>level</parameterid>
								<valuemin>0</valuemin>
								<valuemax>3.98109</valuemax>
								<value>1.77828</value>
							</parameter>
						</effect>
					</filter>
					<filter>
						<effect>
							<name>Audio Pan</name>
							<effectid>audiopan</effectid>
							<effectcategory>audiopan</effectcategory>
							<effecttype>audiopan</effecttype>
							<mediatype>audio</mediatype>
							<parameter>
								<name>Pan</name>
								<parameterid>pan</parameterid>
								<valuemin>-1</valuemin>
								<valuemax>1</valuemax>
								<value>0</value>
							</parameter>
						</effect>
					</filter>
					<sourcetrack>
						<mediatype>audio</mediatype>
						<trackindex>1</trackindex>
					</sourcetrack>
				</clipitem>
				<clipitem id="msub200012-2108kid1-019 9">
					<name>msub200012-2108kid1-019</name>
					<duration>2884</duration>
					<rate>
						<ntsc>FALSE</ntsc>
						<timebase>25</timebase>
					</rate>
					<in>1655</in>
					<out>1671</out>
					<start>11611</start>
					<end>11627</end>
					<subframeoffset>0</subframeoffset>
					<masterclipid>msub200012-2108kid1-019 1</masterclipid>
					<logginginfo>
						<description>msub200012-2108kid1-019</description>
						<scene/>
						<shottake/>
						<lognote/>
						<good>FALSE</good>
					</logginginfo>
					<labels>
						<label2/>
					</labels>
					<comments>
						<mastercomment1>RÅSTOFF. BR_FINFREDAG_MSUA_OPRO</mastercomment1>
						<mastercomment2/>
						<mastercomment3/>
						<mastercomment4/>
					</comments>
					<file id="msub200012-2108kid1-019 2"/>
					<filter>
						<effect>
							<name>Audio Levels</name>
							<effectid>audiolevels</effectid>
							<effectcategory>audiolevels</effectcategory>
							<effecttype>audiolevels</effecttype>
							<mediatype>audio</mediatype>
							<parameter>
								<name>Level</name>
								<parameterid>level</parameterid>
								<valuemin>0</valuemin>
								<valuemax>3.98109</valuemax>
								<value>1.77828</value>
							</parameter>
						</effect>
					</filter>
					<filter>
						<effect>
							<name>Audio Pan</name>
							<effectid>audiopan</effectid>
							<effectcategory>audiopan</effectcategory>
							<effecttype>audiopan</effecttype>
							<mediatype>audio</mediatype>
							<parameter>
								<name>Pan</name>
								<parameterid>pan</parameterid>
								<valuemin>-1</valuemin>
								<valuemax>1</valuemax>
								<value>0</value>
							</parameter>
						</effect>
					</filter>
					<sourcetrack>
						<mediatype>audio</mediatype>
						<trackindex>1</trackindex>
					</sourcetrack>
				</clipitem>
				<transitionitem id="37445592 ">
					<rate>
						<ntsc>FALSE</ntsc>
						<timebase>25</timebase>
					</rate>
					<start>11950</start>
					<end>11952</end>
					<alignment>start-black</alignment>
					<effect>
						<name>Cross Fade (+3dB) Copy</name>
						<effecttype>transition</effecttype>
						<mediatype>audio</mediatype>
					</effect>
				</transitionitem>
				<clipitem id="msub200012-2108kid1-021 10">
					<name>msub200012-2108kid1-021</name>
					<duration>4310</duration>
					<rate>
						<ntsc>FALSE</ntsc>
						<timebase>25</timebase>
					</rate>
					<in>1254</in>
					<out>1305</out>
					<start>-1</start>
					<end>-1</end>
					<subframeoffset>0</subframeoffset>
					<masterclipid>msub200012-2108kid1-021 1</masterclipid>
					<logginginfo>
						<description>msub200012-2108kid1-021</description>
						<scene/>
						<shottake/>
						<lognote/>
						<good>FALSE</good>
					</logginginfo>
					<labels>
						<label2/>
					</labels>
					<comments>
						<mastercomment1>RÅSTOFF. BR_FINFREDAG_MSUA_OPRO</mastercomment1>
						<mastercomment2/>
						<mastercomment3/>
						<mastercomment4/>
					</comments>
					<file id="msub200012-2108kid1-021 2"/>
					<filter>
						<start>-1</start>
						<end>-1</end>
						<effect>
							<name>3 Band Equalizer - Mann</name>
							<effecttype>filter</effecttype>
							<mediatype>audio</mediatype>
							<parameter>
								<parameterid>Low Frequency</parameterid>
								<name>Low Frequency</name>
								<valuemin>80</valuemin>
								<valuemax>2000</valuemax>
								<value>100</value>
							</parameter>
							<parameter>
								<parameterid>Low Gain(dB)</parameterid>
								<name>Low Gain(dB)</name>
								<valuemin>-20</valuemin>
								<valuemax>20</valuemax>
								<value>-4</value>
							</parameter>
							<parameter>
								<parameterid>Mid Frequency</parameterid>
								<name>Mid Frequency</name>
								<valuemin>400</valuemin>
								<valuemax>8000</valuemax>
								<value>3602</value>
							</parameter>
							<parameter>
								<parameterid>Mid Gain(dB)</parameterid>
								<name>Mid Gain(dB)</name>
								<valuemin>-20</valuemin>
								<valuemax>20</valuemax>
								<value>3</value>
							</parameter>
							<parameter>
								<parameterid>High Frequency</parameterid>
								<name>High Frequency</name>
								<valuemin>5000</valuemin>
								<valuemax>20000</valuemax>
								<value>10354</value>
							</parameter>
							<parameter>
								<parameterid>High Gain(dB)</parameterid>
								<name>High Gain(dB)</name>
								<valuemin>-20</valuemin>
								<valuemax>20</valuemax>
								<value>0</value>
							</parameter>
						</effect>
					</filter>
					<filter>
						<effect>
							<name>Audio Levels</name>
							<effectid>audiolevels</effectid>
							<effectcategory>audiolevels</effectcategory>
							<effecttype>audiolevels</effecttype>
							<mediatype>audio</mediatype>
							<parameter>
								<name>Level</name>
								<parameterid>level</parameterid>
								<valuemin>0</valuemin>
								<valuemax>3.98109</valuemax>
								<value>0.354813</value>
							</parameter>
						</effect>
					</filter>
					<filter>
						<effect>
							<name>Audio Pan</name>
							<effectid>audiopan</effectid>
							<effectcategory>audiopan</effectcategory>
							<effecttype>audiopan</effecttype>
							<mediatype>audio</mediatype>
							<parameter>
								<name>Pan</name>
								<parameterid>pan</parameterid>
								<valuemin>-1</valuemin>
								<valuemax>1</valuemax>
								<value>0</value>
							</parameter>
						</effect>
					</filter>
					<sourcetrack>
						<mediatype>audio</mediatype>
						<trackindex>2</trackindex>
					</sourcetrack>
				</clipitem>
				<transitionitem id="37440356 ">
					<rate>
						<ntsc>FALSE</ntsc>
						<timebase>25</timebase>
					</rate>
					<start>11997</start>
					<end>12001</end>
					<alignment>center</alignment>
					<effect>
						<name>Cross Fade (+3dB) Copy</name>
						<effecttype>transition</effecttype>
						<mediatype>audio</mediatype>
					</effect>
				</transitionitem>
				<clipitem id="msub200012-2108kid1-021 11">
					<name>msub200012-2108kid1-021</name>
					<duration>4310</duration>
					<rate>
						<ntsc>FALSE</ntsc>
						<timebase>25</timebase>
					</rate>
					<in>1396</in>
					<out>1546</out>
					<start>-1</start>
					<end>-1</end>
					<subframeoffset>0</subframeoffset>
					<masterclipid>msub200012-2108kid1-021 1</masterclipid>
					<logginginfo>
						<description>msub200012-2108kid1-021</description>
						<scene/>
						<shottake/>
						<lognote/>
						<good>FALSE</good>
					</logginginfo>
					<labels>
						<label2/>
					</labels>
					<comments>
						<mastercomment1>RÅSTOFF. BR_FINFREDAG_MSUA_OPRO</mastercomment1>
						<mastercomment2/>
						<mastercomment3/>
						<mastercomment4/>
					</comments>
					<file id="msub200012-2108kid1-021 2"/>
					<filter>
						<start>-1</start>
						<end>-1</end>
						<effect>
							<name>3 Band Equalizer - Mann</name>
							<effecttype>filter</effecttype>
							<mediatype>audio</mediatype>
							<parameter>
								<parameterid>Low Frequency</parameterid>
								<name>Low Frequency</name>
								<valuemin>80</valuemin>
								<valuemax>2000</valuemax>
								<value>100</value>
							</parameter>
							<parameter>
								<parameterid>Low Gain(dB)</parameterid>
								<name>Low Gain(dB)</name>
								<valuemin>-20</valuemin>
								<valuemax>20</valuemax>
								<value>-4</value>
							</parameter>
							<parameter>
								<parameterid>Mid Frequency</parameterid>
								<name>Mid Frequency</name>
								<valuemin>400</valuemin>
								<valuemax>8000</valuemax>
								<value>3602</value>
							</parameter>
							<parameter>
								<parameterid>Mid Gain(dB)</parameterid>
								<name>Mid Gain(dB)</name>
								<valuemin>-20</valuemin>
								<valuemax>20</valuemax>
								<value>3</value>
							</parameter>
							<parameter>
								<parameterid>High Frequency</parameterid>
								<name>High Frequency</name>
								<valuemin>5000</valuemin>
								<valuemax>20000</valuemax>
								<value>10354</value>
							</parameter>
							<parameter>
								<parameterid>High Gain(dB)</parameterid>
								<name>High Gain(dB)</name>
								<valuemin>-20</valuemin>
								<valuemax>20</valuemax>
								<value>0</value>
							</parameter>
						</effect>
					</filter>
					<filter>
						<effect>
							<name>Audio Levels</name>
							<effectid>audiolevels</effectid>
							<effectcategory>audiolevels</effectcategory>
							<effecttype>audiolevels</effecttype>
							<mediatype>audio</mediatype>
							<parameter>
								<name>Level</name>
								<parameterid>level</parameterid>
								<valuemin>0</valuemin>
								<valuemax>3.98109</valuemax>
								<keyframe>
									<when>1435.14</when>
									<value>0.501187</value>
								</keyframe>
								<keyframe>
									<when>1448</when>
									<value>1.25893</value>
								</keyframe>
								<interpolation>
									<name>FCPCurve</name>
								</interpolation>
								<value>1.25893</value>
							</parameter>
						</effect>
					</filter>
					<filter>
						<effect>
							<name>Audio Pan</name>
							<effectid>audiopan</effectid>
							<effectcategory>audiopan</effectcategory>
							<effecttype>audiopan</effecttype>
							<mediatype>audio</mediatype>
							<parameter>
								<name>Pan</name>
								<parameterid>pan</parameterid>
								<valuemin>-1</valuemin>
								<valuemax>1</valuemax>
								<value>0</value>
							</parameter>
						</effect>
					</filter>
					<sourcetrack>
						<mediatype>audio</mediatype>
						<trackindex>2</trackindex>
					</sourcetrack>
				</clipitem>
				<transitionitem id="37436956 ">
					<rate>
						<ntsc>FALSE</ntsc>
						<timebase>25</timebase>
					</rate>
					<start>12143</start>
					<end>12147</end>
					<alignment>end-black</alignment>
					<effect>
						<name>Cross Fade (+3dB) Copy</name>
						<effecttype>transition</effecttype>
						<mediatype>audio</mediatype>
					</effect>
				</transitionitem>
				<transitionitem id="37436752 ">
					<rate>
						<ntsc>FALSE</ntsc>
						<timebase>25</timebase>
					</rate>
					<start>12178</start>
					<end>12188</end>
					<alignment>start-black</alignment>
					<effect>
						<name>Cross Fade ( 0dB)</name>
						<effecttype>transition</effecttype>
						<mediatype>audio</mediatype>
					</effect>
				</transitionitem>
				<clipitem id="msub200012-2108kid1-021 12">
					<name>msub200012-2108kid1-021</name>
					<duration>4310</duration>
					<rate>
						<ntsc>FALSE</ntsc>
						<timebase>25</timebase>
					</rate>
					<in>2392</in>
					<out>2469</out>
					<start>-1</start>
					<end>-1</end>
					<subframeoffset>0</subframeoffset>
					<masterclipid>msub200012-2108kid1-021 1</masterclipid>
					<logginginfo>
						<description>msub200012-2108kid1-021</description>
						<scene/>
						<shottake/>
						<lognote/>
						<good>FALSE</good>
					</logginginfo>
					<labels>
						<label2/>
					</labels>
					<comments>
						<mastercomment1>RÅSTOFF. BR_FINFREDAG_MSUA_OPRO</mastercomment1>
						<mastercomment2/>
						<mastercomment3/>
						<mastercomment4/>
					</comments>
					<file id="msub200012-2108kid1-021 2"/>
					<filter>
						<start>-1</start>
						<end>-1</end>
						<effect>
							<name>3 Band Equalizer - Mann</name>
							<effecttype>filter</effecttype>
							<mediatype>audio</mediatype>
							<parameter>
								<parameterid>Low Frequency</parameterid>
								<name>Low Frequency</name>
								<valuemin>80</valuemin>
								<valuemax>2000</valuemax>
								<value>100</value>
							</parameter>
							<parameter>
								<parameterid>Low Gain(dB)</parameterid>
								<name>Low Gain(dB)</name>
								<valuemin>-20</valuemin>
								<valuemax>20</valuemax>
								<value>-4</value>
							</parameter>
							<parameter>
								<parameterid>Mid Frequency</parameterid>
								<name>Mid Frequency</name>
								<valuemin>400</valuemin>
								<valuemax>8000</valuemax>
								<value>3602</value>
							</parameter>
							<parameter>
								<parameterid>Mid Gain(dB)</parameterid>
								<name>Mid Gain(dB)</name>
								<valuemin>-20</valuemin>
								<valuemax>20</valuemax>
								<value>3</value>
							</parameter>
							<parameter>
								<parameterid>High Frequency</parameterid>
								<name>High Frequency</name>
								<valuemin>5000</valuemin>
								<valuemax>20000</valuemax>
								<value>10354</value>
							</parameter>
							<parameter>
								<parameterid>High Gain(dB)</parameterid>
								<name>High Gain(dB)</name>
								<valuemin>-20</valuemin>
								<valuemax>20</valuemax>
								<value>0</value>
							</parameter>
						</effect>
					</filter>
					<filter>
						<effect>
							<name>Audio Levels</name>
							<effectid>audiolevels</effectid>
							<effectcategory>audiolevels</effectcategory>
							<effecttype>audiolevels</effecttype>
							<mediatype>audio</mediatype>
							<parameter>
								<name>Level</name>
								<parameterid>level</parameterid>
								<valuemin>0</valuemin>
								<valuemax>3.98109</valuemax>
								<keyframe>
									<when>2432.14</when>
									<value>1.41254</value>
								</keyframe>
								<keyframe>
									<when>2464.43</when>
									<value>2.51189</value>
								</keyframe>
								<interpolation>
									<name>FCPCurve</name>
								</interpolation>
								<value>1.41254</value>
							</parameter>
						</effect>
					</filter>
					<filter>
						<effect>
							<name>Audio Pan</name>
							<effectid>audiopan</effectid>
							<effectcategory>audiopan</effectcategory>
							<effecttype>audiopan</effecttype>
							<mediatype>audio</mediatype>
							<parameter>
								<name>Pan</name>
								<parameterid>pan</parameterid>
								<valuemin>-1</valuemin>
								<valuemax>1</valuemax>
								<value>0</value>
							</parameter>
						</effect>
					</filter>
					<sourcetrack>
						<mediatype>audio</mediatype>
						<trackindex>2</trackindex>
					</sourcetrack>
				</clipitem>
				<transitionitem id="37434236 ">
					<rate>
						<ntsc>FALSE</ntsc>
						<timebase>25</timebase>
					</rate>
					<start>12251</start>
					<end>12255</end>
					<alignment>center</alignment>
					<effect>
						<name>Cross Fade (+3dB) Copy</name>
						<effecttype>transition</effecttype>
						<mediatype>audio</mediatype>
					</effect>
				</transitionitem>
				<clipitem id="msub200012-2108kid1-021 7">
					<name>msub200012-2108kid1-021</name>
					<duration>4310</duration>
					<rate>
						<ntsc>FALSE</ntsc>
						<timebase>25</timebase>
					</rate>
					<in>2465</in>
					<out>2509</out>
					<start>-1</start>
					<end>-1</end>
					<subframeoffset>0</subframeoffset>
					<masterclipid>msub200012-2108kid1-021 1</masterclipid>
					<logginginfo>
						<description>msub200012-2108kid1-021</description>
						<scene/>
						<shottake/>
						<lognote/>
						<good>FALSE</good>
					</logginginfo>
					<labels>
						<label2/>
					</labels>
					<comments>
						<mastercomment1>RÅSTOFF. BR_FINFREDAG_MSUA_OPRO</mastercomment1>
						<mastercomment2/>
						<mastercomment3/>
						<mastercomment4/>
					</comments>
					<file id="msub200012-2108kid1-021 2"/>
					<filter>
						<start>-1</start>
						<end>-1</end>
						<effect>
							<name>3 Band Equalizer - Mann</name>
							<effecttype>filter</effecttype>
							<mediatype>audio</mediatype>
							<parameter>
								<parameterid>Low Frequency</parameterid>
								<name>Low Frequency</name>
								<valuemin>80</valuemin>
								<valuemax>2000</valuemax>
								<value>100</value>
							</parameter>
							<parameter>
								<parameterid>Low Gain(dB)</parameterid>
								<name>Low Gain(dB)</name>
								<valuemin>-20</valuemin>
								<valuemax>20</valuemax>
								<value>-4</value>
							</parameter>
							<parameter>
								<parameterid>Mid Frequency</parameterid>
								<name>Mid Frequency</name>
								<valuemin>400</valuemin>
								<valuemax>8000</valuemax>
								<value>3602</value>
							</parameter>
							<parameter>
								<parameterid>Mid Gain(dB)</parameterid>
								<name>Mid Gain(dB)</name>
								<valuemin>-20</valuemin>
								<valuemax>20</valuemax>
								<value>3</value>
							</parameter>
							<parameter>
								<parameterid>High Frequency</parameterid>
								<name>High Frequency</name>
								<valuemin>5000</valuemin>
								<valuemax>20000</valuemax>
								<value>10354</value>
							</parameter>
							<parameter>
								<parameterid>High Gain(dB)</parameterid>
								<name>High Gain(dB)</name>
								<valuemin>-20</valuemin>
								<valuemax>20</valuemax>
								<value>0</value>
							</parameter>
						</effect>
					</filter>
					<filter>
						<effect>
							<name>Audio Levels</name>
							<effectid>audiolevels</effectid>
							<effectcategory>audiolevels</effectcategory>
							<effecttype>audiolevels</effecttype>
							<mediatype>audio</mediatype>
							<parameter>
								<name>Level</name>
								<parameterid>level</parameterid>
								<valuemin>0</valuemin>
								<valuemax>3.98109</valuemax>
								<value>0.398107</value>
							</parameter>
						</effect>
					</filter>
					<filter>
						<effect>
							<name>Audio Pan</name>
							<effectid>audiopan</effectid>
							<effectcategory>audiopan</effectcategory>
							<effecttype>audiopan</effecttype>
							<mediatype>audio</mediatype>
							<parameter>
								<name>Pan</name>
								<parameterid>pan</parameterid>
								<valuemin>-1</valuemin>
								<valuemax>1</valuemax>
								<value>0</value>
							</parameter>
						</effect>
					</filter>
					<sourcetrack>
						<mediatype>audio</mediatype>
						<trackindex>2</trackindex>
					</sourcetrack>
					<link>
						<linkclipref>msub200012-2108kid1-021 6</linkclipref>
						<mediatype>audio</mediatype>
						<trackindex>1</trackindex>
						<clipindex>71</clipindex>
					</link>
					<link>
						<linkclipref>msub200012-2108kid1-021 7</linkclipref>
						<mediatype>audio</mediatype>
						<trackindex>2</trackindex>
						<clipindex>83</clipindex>
					</link>
				</clipitem>
				<transitionitem id="37425736 ">
					<rate>
						<ntsc>FALSE</ntsc>
						<timebase>25</timebase>
					</rate>
					<start>12291</start>
					<end>12295</end>
					<alignment>center</alignment>
					<effect>
						<name>Cross Fade (+3dB) Copy</name>
						<effecttype>transition</effecttype>
						<mediatype>audio</mediatype>
					</effect>
				</transitionitem>
				<clipitem id="msub200012-2108kid1-021 13">
					<name>msub200012-2108kid1-021</name>
					<duration>4310</duration>
					<rate>
						<ntsc>FALSE</ntsc>
						<timebase>25</timebase>
					</rate>
					<in>2505</in>
					<out>2528</out>
					<start>-1</start>
					<end>-1</end>
					<subframeoffset>0</subframeoffset>
					<masterclipid>msub200012-2108kid1-021 1</masterclipid>
					<logginginfo>
						<description>msub200012-2108kid1-021</description>
						<scene/>
						<shottake/>
						<lognote/>
						<good>FALSE</good>
					</logginginfo>
					<labels>
						<label2/>
					</labels>
					<comments>
						<mastercomment1>RÅSTOFF. BR_FINFREDAG_MSUA_OPRO</mastercomment1>
						<mastercomment2/>
						<mastercomment3/>
						<mastercomment4/>
					</comments>
					<file id="msub200012-2108kid1-021 2"/>
					<filter>
						<start>-1</start>
						<end>-1</end>
						<effect>
							<name>3 Band Equalizer - Mann</name>
							<effecttype>filter</effecttype>
							<mediatype>audio</mediatype>
							<parameter>
								<parameterid>Low Frequency</parameterid>
								<name>Low Frequency</name>
								<valuemin>80</valuemin>
								<valuemax>2000</valuemax>
								<value>100</value>
							</parameter>
							<parameter>
								<parameterid>Low Gain(dB)</parameterid>
								<name>Low Gain(dB)</name>
								<valuemin>-20</valuemin>
								<valuemax>20</valuemax>
								<value>-4</value>
							</parameter>
							<parameter>
								<parameterid>Mid Frequency</parameterid>
								<name>Mid Frequency</name>
								<valuemin>400</valuemin>
								<valuemax>8000</valuemax>
								<value>3602</value>
							</parameter>
							<parameter>
								<parameterid>Mid Gain(dB)</parameterid>
								<name>Mid Gain(dB)</name>
								<valuemin>-20</valuemin>
								<valuemax>20</valuemax>
								<value>3</value>
							</parameter>
							<parameter>
								<parameterid>High Frequency</parameterid>
								<name>High Frequency</name>
								<valuemin>5000</valuemin>
								<valuemax>20000</valuemax>
								<value>10354</value>
							</parameter>
							<parameter>
								<parameterid>High Gain(dB)</parameterid>
								<name>High Gain(dB)</name>
								<valuemin>-20</valuemin>
								<valuemax>20</valuemax>
								<value>0</value>
							</parameter>
						</effect>
					</filter>
					<filter>
						<effect>
							<name>Audio Levels</name>
							<effectid>audiolevels</effectid>
							<effectcategory>audiolevels</effectcategory>
							<effecttype>audiolevels</effecttype>
							<mediatype>audio</mediatype>
							<parameter>
								<name>Level</name>
								<parameterid>level</parameterid>
								<valuemin>0</valuemin>
								<valuemax>3.98109</valuemax>
								<value>1.41254</value>
							</parameter>
						</effect>
					</filter>
					<filter>
						<effect>
							<name>Audio Pan</name>
							<effectid>audiopan</effectid>
							<effectcategory>audiopan</effectcategory>
							<effecttype>audiopan</effecttype>
							<mediatype>audio</mediatype>
							<parameter>
								<name>Pan</name>
								<parameterid>pan</parameterid>
								<valuemin>-1</valuemin>
								<valuemax>1</valuemax>
								<value>0</value>
							</parameter>
						</effect>
					</filter>
					<sourcetrack>
						<mediatype>audio</mediatype>
						<trackindex>2</trackindex>
					</sourcetrack>
				</clipitem>
				<transitionitem id="37423356 ">
					<rate>
						<ntsc>FALSE</ntsc>
						<timebase>25</timebase>
					</rate>
					<start>12308</start>
					<end>12314</end>
					<alignment>center</alignment>
					<effect>
						<name>Cross Fade (+3dB) Copy</name>
						<effecttype>transition</effecttype>
						<mediatype>audio</mediatype>
					</effect>
				</transitionitem>
				<clipitem id="msub200012-2108kid1-021 14">
					<name>msub200012-2108kid1-021</name>
					<duration>4310</duration>
					<rate>
						<ntsc>FALSE</ntsc>
						<timebase>25</timebase>
					</rate>
					<in>2522</in>
					<out>2603</out>
					<start>-1</start>
					<end>-1</end>
					<subframeoffset>0</subframeoffset>
					<masterclipid>msub200012-2108kid1-021 1</masterclipid>
					<logginginfo>
						<description>msub200012-2108kid1-021</description>
						<scene/>
						<shottake/>
						<lognote/>
						<good>FALSE</good>
					</logginginfo>
					<labels>
						<label2/>
					</labels>
					<comments>
						<mastercomment1>RÅSTOFF. BR_FINFREDAG_MSUA_OPRO</mastercomment1>
						<mastercomment2/>
						<mastercomment3/>
						<mastercomment4/>
					</comments>
					<file id="msub200012-2108kid1-021 2"/>
					<filter>
						<start>-1</start>
						<end>-1</end>
						<effect>
							<name>3 Band Equalizer - Mann</name>
							<effecttype>filter</effecttype>
							<mediatype>audio</mediatype>
							<parameter>
								<parameterid>Low Frequency</parameterid>
								<name>Low Frequency</name>
								<valuemin>80</valuemin>
								<valuemax>2000</valuemax>
								<value>100</value>
							</parameter>
							<parameter>
								<parameterid>Low Gain(dB)</parameterid>
								<name>Low Gain(dB)</name>
								<valuemin>-20</valuemin>
								<valuemax>20</valuemax>
								<value>-4</value>
							</parameter>
							<parameter>
								<parameterid>Mid Frequency</parameterid>
								<name>Mid Frequency</name>
								<valuemin>400</valuemin>
								<valuemax>8000</valuemax>
								<value>3602</value>
							</parameter>
							<parameter>
								<parameterid>Mid Gain(dB)</parameterid>
								<name>Mid Gain(dB)</name>
								<valuemin>-20</valuemin>
								<valuemax>20</valuemax>
								<value>3</value>
							</parameter>
							<parameter>
								<parameterid>High Frequency</parameterid>
								<name>High Frequency</name>
								<valuemin>5000</valuemin>
								<valuemax>20000</valuemax>
								<value>10354</value>
							</parameter>
							<parameter>
								<parameterid>High Gain(dB)</parameterid>
								<name>High Gain(dB)</name>
								<valuemin>-20</valuemin>
								<valuemax>20</valuemax>
								<value>0</value>
							</parameter>
						</effect>
					</filter>
					<filter>
						<effect>
							<name>Audio Levels</name>
							<effectid>audiolevels</effectid>
							<effectcategory>audiolevels</effectcategory>
							<effecttype>audiolevels</effecttype>
							<mediatype>audio</mediatype>
							<parameter>
								<name>Level</name>
								<parameterid>level</parameterid>
								<valuemin>0</valuemin>
								<valuemax>3.98109</valuemax>
								<value>1.12202</value>
							</parameter>
						</effect>
					</filter>
					<filter>
						<effect>
							<name>Audio Pan</name>
							<effectid>audiopan</effectid>
							<effectcategory>audiopan</effectcategory>
							<effecttype>audiopan</effecttype>
							<mediatype>audio</mediatype>
							<parameter>
								<name>Pan</name>
								<parameterid>pan</parameterid>
								<valuemin>-1</valuemin>
								<valuemax>1</valuemax>
								<value>0</value>
							</parameter>
						</effect>
					</filter>
					<sourcetrack>
						<mediatype>audio</mediatype>
						<trackindex>2</trackindex>
					</sourcetrack>
				</clipitem>
				<transitionitem id="37454296 ">
					<rate>
						<ntsc>FALSE</ntsc>
						<timebase>25</timebase>
					</rate>
					<start>12377</start>
					<end>12389</end>
					<alignment>end-black</alignment>
					<effect>
						<name>Cross Fade (+3dB) Copy</name>
						<effecttype>transition</effecttype>
						<mediatype>audio</mediatype>
					</effect>
				</transitionitem>
				<transitionitem id="37453276 ">
					<rate>
						<ntsc>FALSE</ntsc>
						<timebase>25</timebase>
					</rate>
					<start>13673</start>
					<end>13710</end>
					<alignment>center</alignment>
					<effect>
						<name>Cross Fade (+3dB) Copy</name>
						<effecttype>transition</effecttype>
						<mediatype>audio</mediatype>
					</effect>
				</transitionitem>
				<clipitem id="msub200012-2108kid1-043 3">
					<name>msub200012-2108kid1-043</name>
					<duration>2259</duration>
					<rate>
						<ntsc>FALSE</ntsc>
						<timebase>25</timebase>
					</rate>
					<in>771</in>
					<out>1008</out>
					<start>-1</start>
					<end>-1</end>
					<subframeoffset>0</subframeoffset>
					<masterclipid>msub200012-2108kid1-043 1</masterclipid>
					<logginginfo>
						<description>msub200012-2108kid1-043</description>
						<scene/>
						<shottake/>
						<lognote/>
						<good>FALSE</good>
					</logginginfo>
					<labels>
						<label2/>
					</labels>
					<comments>
						<mastercomment1>RÅSTOFF. BR_FINFREDAG_MSUA_OPRO</mastercomment1>
						<mastercomment2/>
						<mastercomment3/>
						<mastercomment4/>
					</comments>
					<file id="msub200012-2108kid1-043 2"/>
					<filter>
						<effect>
							<name>Audio Levels</name>
							<effectid>audiolevels</effectid>
							<effectcategory>audiolevels</effectcategory>
							<effecttype>audiolevels</effecttype>
							<mediatype>audio</mediatype>
							<parameter>
								<name>Level</name>
								<parameterid>level</parameterid>
								<valuemin>0</valuemin>
								<valuemax>3.98109</valuemax>
								<keyframe>
									<when>794.536</when>
									<value>0.354813</value>
								</keyframe>
								<keyframe>
									<when>821.25</when>
									<value>0.199526</value>
								</keyframe>
								<keyframe>
									<when>941.857</when>
									<value>0.199526</value>
								</keyframe>
								<keyframe>
									<when>960.321</when>
									<value>0.446684</value>
								</keyframe>
								<interpolation>
									<name>FCPCurve</name>
								</interpolation>
								<value>0.158489</value>
							</parameter>
						</effect>
					</filter>
					<filter>
						<effect>
							<name>Audio Pan</name>
							<effectid>audiopan</effectid>
							<effectcategory>audiopan</effectcategory>
							<effecttype>audiopan</effecttype>
							<mediatype>audio</mediatype>
							<parameter>
								<name>Pan</name>
								<parameterid>pan</parameterid>
								<valuemin>-1</valuemin>
								<valuemax>1</valuemax>
								<value>0</value>
							</parameter>
						</effect>
					</filter>
					<sourcetrack>
						<mediatype>audio</mediatype>
						<trackindex>4</trackindex>
					</sourcetrack>
				</clipitem>
				<transitionitem id="37443552 ">
					<rate>
						<ntsc>FALSE</ntsc>
						<timebase>25</timebase>
					</rate>
					<start>13898</start>
					<end>13910</end>
					<alignment>end-black</alignment>
					<effect>
						<name>Cross Fade (+3dB) Copy</name>
						<effecttype>transition</effecttype>
						<mediatype>audio</mediatype>
					</effect>
				</transitionitem>
				<transitionitem id="37442260 ">
					<rate>
						<ntsc>FALSE</ntsc>
						<timebase>25</timebase>
					</rate>
					<start>13958</start>
					<end>13964</end>
					<alignment>start-black</alignment>
					<effect>
						<name>Cross Fade (+3dB) Copy</name>
						<effecttype>transition</effecttype>
						<mediatype>audio</mediatype>
					</effect>
				</transitionitem>
				<clipitem id="msub200012-0409d1k1011 3">
					<name>msub200012-0409d1k1011</name>
					<duration>24627</duration>
					<rate>
						<ntsc>FALSE</ntsc>
						<timebase>25</timebase>
					</rate>
					<in>1068</in>
					<out>1597</out>
					<start>-1</start>
					<end>-1</end>
					<subframeoffset>0</subframeoffset>
					<enabled>TRUE</enabled>
					<masterclipid>msub200012-0409d1k1011 1</masterclipid>
					<syncoffset>0</syncoffset>
					<logginginfo>
						<description>msub200012-0409d1k1011</description>
						<scene/>
						<shottake/>
						<lognote/>
						<good>FALSE</good>
					</logginginfo>
					<labels>
						<label>B Roll</label>
						<label2/>
					</labels>
					<comments>
						<mastercomment1>RÅSTOFF. BR_FINFREDAG_MSUA_OPRO</mastercomment1>
						<mastercomment2/>
						<mastercomment3/>
						<mastercomment4/>
					</comments>
					<file id="msub200012-0409d1k1011 2"/>
					<filter>
						<enabled>TRUE</enabled>
						<start>-1</start>
						<end>-1</end>
						<effect>
							<name>3 Band Equalizer - Kristine</name>
							<effecttype>filter</effecttype>
							<mediatype>audio</mediatype>
							<parameter>
								<parameterid>Low Frequency</parameterid>
								<name>Low Frequency</name>
								<valuemin>80</valuemin>
								<valuemax>2000</valuemax>
								<value>80</value>
							</parameter>
							<parameter>
								<parameterid>Low Gain(dB)</parameterid>
								<name>Low Gain(dB)</name>
								<valuemin>-20</valuemin>
								<valuemax>20</valuemax>
								<value>-4</value>
							</parameter>
							<parameter>
								<parameterid>Mid Frequency</parameterid>
								<name>Mid Frequency</name>
								<valuemin>400</valuemin>
								<valuemax>8000</valuemax>
								<value>3602</value>
							</parameter>
							<parameter>
								<parameterid>Mid Gain(dB)</parameterid>
								<name>Mid Gain(dB)</name>
								<valuemin>-20</valuemin>
								<valuemax>20</valuemax>
								<value>3</value>
							</parameter>
							<parameter>
								<parameterid>High Frequency</parameterid>
								<name>High Frequency</name>
								<valuemin>5000</valuemin>
								<valuemax>20000</valuemax>
								<value>10354</value>
							</parameter>
							<parameter>
								<parameterid>High Gain(dB)</parameterid>
								<name>High Gain(dB)</name>
								<valuemin>-20</valuemin>
								<valuemax>20</valuemax>
								<value>0</value>
							</parameter>
						</effect>
					</filter>
					<filter>
						<effect>
							<name>Audio Levels</name>
							<effectid>audiolevels</effectid>
							<effectcategory>audiolevels</effectcategory>
							<effecttype>audiolevels</effecttype>
							<mediatype>audio</mediatype>
							<parameter>
								<name>Level</name>
								<parameterid>level</parameterid>
								<valuemin>0</valuemin>
								<valuemax>3.98109</valuemax>
								<value>1.77828</value>
							</parameter>
						</effect>
					</filter>
					<filter>
						<effect>
							<name>Audio Pan</name>
							<effectid>audiopan</effectid>
							<effectcategory>audiopan</effectcategory>
							<effecttype>audiopan</effecttype>
							<mediatype>audio</mediatype>
							<parameter>
								<name>Pan</name>
								<parameterid>pan</parameterid>
								<valuemin>-1</valuemin>
								<valuemax>1</valuemax>
								<value>0</value>
							</parameter>
						</effect>
					</filter>
					<sourcetrack>
						<mediatype>audio</mediatype>
						<trackindex>2</trackindex>
					</sourcetrack>
				</clipitem>
				<transitionitem id="37495800 ">
					<rate>
						<ntsc>FALSE</ntsc>
						<timebase>25</timebase>
					</rate>
					<start>14485</start>
					<end>14487</end>
					<alignment>center</alignment>
					<effect>
						<name>Cross Fade (+3dB) Copy</name>
						<effecttype>transition</effecttype>
						<mediatype>audio</mediatype>
					</effect>
				</transitionitem>
				<clipitem id="msub200012-0409d1k1013 ">
					<name>msub200012-0409d1k1013</name>
					<duration>14518</duration>
					<rate>
						<ntsc>FALSE</ntsc>
						<timebase>25</timebase>
					</rate>
					<in>2305</in>
					<out>2412</out>
					<start>-1</start>
					<end>-1</end>
					<subframeoffset>0</subframeoffset>
					<enabled>TRUE</enabled>
					<masterclipid>msub200012-0409d1k1013 1</masterclipid>
					<syncoffset>0</syncoffset>
					<logginginfo>
						<description>msub200012-0409d1k1013</description>
						<scene/>
						<shottake/>
						<lognote/>
						<good>FALSE</good>
					</logginginfo>
					<labels>
						<label>Good Take</label>
						<label2/>
					</labels>
					<comments>
						<mastercomment1>RÅSTOFF. BR_FINFREDAG_MSUA_OPRO</mastercomment1>
						<mastercomment2/>
						<mastercomment3/>
						<mastercomment4/>
					</comments>
					<file id="msub200012-0409d1k1013 2">
						<name>msub200012-0409d1k1013.mxf</name>
						<pathurl>file://localhost/Volumes/omfs/clip.dir/MXF/1080i/msub200012-0409d1k1013.mxf</pathurl>
						<rate>
							<timebase>25</timebase>
						</rate>
						<duration>14280</duration>
						<timecode>
							<rate>
								<timebase>25</timebase>
							</rate>
							<string>10:28:38:23</string>
							<frame>942973</frame>
							<displayformat>NDF</displayformat>
							<source>source</source>
						</timecode>
						<media>
							<video>
								<duration>14280</duration>
								<samplecharacteristics>
									<width>1920</width>
									<height>1080</height>
								</samplecharacteristics>
							</video>
							<audio>
								<rate>
									<timebase>48000</timebase>
								</rate>
								<trackcount>1</trackcount>
								<samplecharacteristics>
									<depth>24</depth>
								</samplecharacteristics>
							</audio>
						</media>
					</file>
					<filter>
						<enabled>TRUE</enabled>
						<start>-1</start>
						<end>-1</end>
						<effect>
							<name>3 Band Equalizer - Kristine</name>
							<effecttype>filter</effecttype>
							<mediatype>audio</mediatype>
							<parameter>
								<parameterid>Low Frequency</parameterid>
								<name>Low Frequency</name>
								<valuemin>80</valuemin>
								<valuemax>2000</valuemax>
								<value>80</value>
							</parameter>
							<parameter>
								<parameterid>Low Gain(dB)</parameterid>
								<name>Low Gain(dB)</name>
								<valuemin>-20</valuemin>
								<valuemax>20</valuemax>
								<value>-4</value>
							</parameter>
							<parameter>
								<parameterid>Mid Frequency</parameterid>
								<name>Mid Frequency</name>
								<valuemin>400</valuemin>
								<valuemax>8000</valuemax>
								<value>3602</value>
							</parameter>
							<parameter>
								<parameterid>Mid Gain(dB)</parameterid>
								<name>Mid Gain(dB)</name>
								<valuemin>-20</valuemin>
								<valuemax>20</valuemax>
								<value>3</value>
							</parameter>
							<parameter>
								<parameterid>High Frequency</parameterid>
								<name>High Frequency</name>
								<valuemin>5000</valuemin>
								<valuemax>20000</valuemax>
								<value>10354</value>
							</parameter>
							<parameter>
								<parameterid>High Gain(dB)</parameterid>
								<name>High Gain(dB)</name>
								<valuemin>-20</valuemin>
								<valuemax>20</valuemax>
								<value>0</value>
							</parameter>
						</effect>
					</filter>
					<filter>
						<effect>
							<name>Audio Levels</name>
							<effectid>audiolevels</effectid>
							<effectcategory>audiolevels</effectcategory>
							<effecttype>audiolevels</effecttype>
							<mediatype>audio</mediatype>
							<parameter>
								<name>Level</name>
								<parameterid>level</parameterid>
								<valuemin>0</valuemin>
								<valuemax>3.98109</valuemax>
								<value>1.41254</value>
							</parameter>
						</effect>
					</filter>
					<filter>
						<effect>
							<name>Audio Pan</name>
							<effectid>audiopan</effectid>
							<effectcategory>audiopan</effectcategory>
							<effecttype>audiopan</effecttype>
							<mediatype>audio</mediatype>
							<parameter>
								<name>Pan</name>
								<parameterid>pan</parameterid>
								<valuemin>-1</valuemin>
								<valuemax>1</valuemax>
								<value>0</value>
							</parameter>
						</effect>
					</filter>
					<sourcetrack>
						<mediatype>audio</mediatype>
						<trackindex>2</trackindex>
					</sourcetrack>
				</clipitem>
				<transitionitem id="37472544 ">
					<rate>
						<ntsc>FALSE</ntsc>
						<timebase>25</timebase>
					</rate>
					<start>14590</start>
					<end>14592</end>
					<alignment>center</alignment>
					<effect>
						<name>Cross Fade (+3dB) Copy</name>
						<effecttype>transition</effecttype>
						<mediatype>audio</mediatype>
					</effect>
				</transitionitem>
				<clipitem id="msub200012-0409d1k1011 4">
					<name>msub200012-0409d1k1011</name>
					<duration>24527</duration>
					<rate>
						<ntsc>FALSE</ntsc>
						<timebase>25</timebase>
					</rate>
					<in>3690</in>
					<out>3792</out>
					<start>-1</start>
					<end>-1</end>
					<subframeoffset>0</subframeoffset>
					<enabled>TRUE</enabled>
					<masterclipid>msub200012-0409d1k1011 1</masterclipid>
					<syncoffset>0</syncoffset>
					<logginginfo>
						<description>msub200012-0409d1k1011</description>
						<scene/>
						<shottake/>
						<lognote/>
						<good>FALSE</good>
					</logginginfo>
					<labels>
						<label>B Roll</label>
						<label2/>
					</labels>
					<comments>
						<mastercomment1>RÅSTOFF. BR_FINFREDAG_MSUA_OPRO</mastercomment1>
						<mastercomment2/>
						<mastercomment3/>
						<mastercomment4/>
					</comments>
					<file id="msub200012-0409d1k1011 2"/>
					<filter>
						<start>-1</start>
						<end>-1</end>
						<effect>
							<name>3 Band Equalizer - Kristine</name>
							<effecttype>filter</effecttype>
							<mediatype>audio</mediatype>
							<parameter>
								<parameterid>Low Frequency</parameterid>
								<name>Low Frequency</name>
								<valuemin>80</valuemin>
								<valuemax>2000</valuemax>
								<value>80</value>
							</parameter>
							<parameter>
								<parameterid>Low Gain(dB)</parameterid>
								<name>Low Gain(dB)</name>
								<valuemin>-20</valuemin>
								<valuemax>20</valuemax>
								<value>-4</value>
							</parameter>
							<parameter>
								<parameterid>Mid Frequency</parameterid>
								<name>Mid Frequency</name>
								<valuemin>400</valuemin>
								<valuemax>8000</valuemax>
								<value>3602</value>
							</parameter>
							<parameter>
								<parameterid>Mid Gain(dB)</parameterid>
								<name>Mid Gain(dB)</name>
								<valuemin>-20</valuemin>
								<valuemax>20</valuemax>
								<value>3</value>
							</parameter>
							<parameter>
								<parameterid>High Frequency</parameterid>
								<name>High Frequency</name>
								<valuemin>5000</valuemin>
								<valuemax>20000</valuemax>
								<value>10354</value>
							</parameter>
							<parameter>
								<parameterid>High Gain(dB)</parameterid>
								<name>High Gain(dB)</name>
								<valuemin>-20</valuemin>
								<valuemax>20</valuemax>
								<value>0</value>
							</parameter>
						</effect>
					</filter>
					<filter>
						<effect>
							<name>Audio Levels</name>
							<effectid>audiolevels</effectid>
							<effectcategory>audiolevels</effectcategory>
							<effecttype>audiolevels</effecttype>
							<mediatype>audio</mediatype>
							<parameter>
								<name>Level</name>
								<parameterid>level</parameterid>
								<valuemin>0</valuemin>
								<valuemax>3.98109</valuemax>
								<value>1.99526</value>
							</parameter>
						</effect>
					</filter>
					<filter>
						<effect>
							<name>Audio Pan</name>
							<effectid>audiopan</effectid>
							<effectcategory>audiopan</effectcategory>
							<effecttype>audiopan</effecttype>
							<mediatype>audio</mediatype>
							<parameter>
								<name>Pan</name>
								<parameterid>pan</parameterid>
								<valuemin>-1</valuemin>
								<valuemax>1</valuemax>
								<value>0</value>
							</parameter>
						</effect>
					</filter>
					<sourcetrack>
						<mediatype>audio</mediatype>
						<trackindex>2</trackindex>
					</sourcetrack>
					<link>
						<linkclipref>msub200012-0409d1k1011 4</linkclipref>
						<mediatype>audio</mediatype>
						<trackindex>2</trackindex>
						<clipindex>97</clipindex>
					</link>
				</clipitem>
				<transitionitem id="37276936 ">
					<rate>
						<ntsc>FALSE</ntsc>
						<timebase>25</timebase>
					</rate>
					<start>14690</start>
					<end>14692</end>
					<alignment>center</alignment>
					<effect>
						<name>Cross Fade (+3dB) Copy</name>
						<effecttype>transition</effecttype>
						<mediatype>audio</mediatype>
					</effect>
				</transitionitem>
				<clipitem id="msub200012-0409d1k1011 5">
					<name>msub200012-0409d1k1011</name>
					<duration>24527</duration>
					<rate>
						<ntsc>FALSE</ntsc>
						<timebase>25</timebase>
					</rate>
					<in>4376</in>
					<out>4727</out>
					<start>-1</start>
					<end>-1</end>
					<subframeoffset>0</subframeoffset>
					<enabled>TRUE</enabled>
					<masterclipid>msub200012-0409d1k1011 1</masterclipid>
					<syncoffset>0</syncoffset>
					<logginginfo>
						<description>msub200012-0409d1k1011</description>
						<scene/>
						<shottake/>
						<lognote/>
						<good>FALSE</good>
					</logginginfo>
					<labels>
						<label>B Roll</label>
						<label2/>
					</labels>
					<comments>
						<mastercomment1>RÅSTOFF. BR_FINFREDAG_MSUA_OPRO</mastercomment1>
						<mastercomment2/>
						<mastercomment3/>
						<mastercomment4/>
					</comments>
					<file id="msub200012-0409d1k1011 2"/>
					<filter>
						<start>-1</start>
						<end>-1</end>
						<effect>
							<name>3 Band Equalizer - Kristine</name>
							<effecttype>filter</effecttype>
							<mediatype>audio</mediatype>
							<parameter>
								<parameterid>Low Frequency</parameterid>
								<name>Low Frequency</name>
								<valuemin>80</valuemin>
								<valuemax>2000</valuemax>
								<value>80</value>
							</parameter>
							<parameter>
								<parameterid>Low Gain(dB)</parameterid>
								<name>Low Gain(dB)</name>
								<valuemin>-20</valuemin>
								<valuemax>20</valuemax>
								<value>-4</value>
							</parameter>
							<parameter>
								<parameterid>Mid Frequency</parameterid>
								<name>Mid Frequency</name>
								<valuemin>400</valuemin>
								<valuemax>8000</valuemax>
								<value>3602</value>
							</parameter>
							<parameter>
								<parameterid>Mid Gain(dB)</parameterid>
								<name>Mid Gain(dB)</name>
								<valuemin>-20</valuemin>
								<valuemax>20</valuemax>
								<value>3</value>
							</parameter>
							<parameter>
								<parameterid>High Frequency</parameterid>
								<name>High Frequency</name>
								<valuemin>5000</valuemin>
								<valuemax>20000</valuemax>
								<value>10354</value>
							</parameter>
							<parameter>
								<parameterid>High Gain(dB)</parameterid>
								<name>High Gain(dB)</name>
								<valuemin>-20</valuemin>
								<valuemax>20</valuemax>
								<value>0</value>
							</parameter>
						</effect>
					</filter>
					<filter>
						<effect>
							<name>Audio Levels</name>
							<effectid>audiolevels</effectid>
							<effectcategory>audiolevels</effectcategory>
							<effecttype>audiolevels</effecttype>
							<mediatype>audio</mediatype>
							<parameter>
								<name>Level</name>
								<parameterid>level</parameterid>
								<valuemin>0</valuemin>
								<valuemax>3.98109</valuemax>
								<keyframe>
									<when>4415.14</when>
									<value>1.58489</value>
								</keyframe>
								<keyframe>
									<when>4436.86</when>
									<value>1.77828</value>
								</keyframe>
								<keyframe>
									<when>4897.43</when>
									<value>1.77828</value>
								</keyframe>
								<keyframe>
									<when>4910</when>
									<value>1.41254</value>
								</keyframe>
								<interpolation>
									<name>FCPCurve</name>
								</interpolation>
								<value>1.58489</value>
							</parameter>
						</effect>
					</filter>
					<filter>
						<effect>
							<name>Audio Pan</name>
							<effectid>audiopan</effectid>
							<effectcategory>audiopan</effectcategory>
							<effecttype>audiopan</effecttype>
							<mediatype>audio</mediatype>
							<parameter>
								<name>Pan</name>
								<parameterid>pan</parameterid>
								<valuemin>-1</valuemin>
								<valuemax>1</valuemax>
								<value>0</value>
							</parameter>
						</effect>
					</filter>
					<sourcetrack>
						<mediatype>audio</mediatype>
						<trackindex>2</trackindex>
					</sourcetrack>
				</clipitem>
				<transitionitem id="6">
					<rate>
						<ntsc>FALSE</ntsc>
						<timebase>25</timebase>
					</rate>
					<start>15035</start>
					<end>15041</end>
					<alignment>center</alignment>
					<effect>
						<name>Cross Fade (+3dB) Copy</name>
						<effecttype>transition</effecttype>
						<mediatype>audio</mediatype>
					</effect>
				</transitionitem>
				<clipitem id="msub200012-0409d1k1013 3">
					<name>msub200012-0409d1k1013</name>
					<duration>14518</duration>
					<rate>
						<ntsc>FALSE</ntsc>
						<timebase>25</timebase>
					</rate>
					<in>4524</in>
					<out>4611</out>
					<start>-1</start>
					<end>-1</end>
					<subframeoffset>0</subframeoffset>
					<masterclipid>msub200012-0409d1k1013 1</masterclipid>
					<syncoffset>0</syncoffset>
					<logginginfo>
						<description>msub200012-0409d1k1013</description>
						<scene/>
						<shottake/>
						<lognote/>
						<good>FALSE</good>
					</logginginfo>
					<labels>
						<label>Good Take</label>
						<label2/>
					</labels>
					<comments>
						<mastercomment1>RÅSTOFF. BR_FINFREDAG_MSUA_OPRO</mastercomment1>
						<mastercomment2/>
						<mastercomment3/>
						<mastercomment4/>
					</comments>
					<file id="msub200012-0409d1k1013 2"/>
					<filter>
						<start>-1</start>
						<end>-1</end>
						<effect>
							<name>3 Band Equalizer - Kristine</name>
							<effecttype>filter</effecttype>
							<mediatype>audio</mediatype>
							<parameter>
								<parameterid>Low Frequency</parameterid>
								<name>Low Frequency</name>
								<valuemin>80</valuemin>
								<valuemax>2000</valuemax>
								<value>80</value>
							</parameter>
							<parameter>
								<parameterid>Low Gain(dB)</parameterid>
								<name>Low Gain(dB)</name>
								<valuemin>-20</valuemin>
								<valuemax>20</valuemax>
								<value>-4</value>
							</parameter>
							<parameter>
								<parameterid>Mid Frequency</parameterid>
								<name>Mid Frequency</name>
								<valuemin>400</valuemin>
								<valuemax>8000</valuemax>
								<value>3602</value>
							</parameter>
							<parameter>
								<parameterid>Mid Gain(dB)</parameterid>
								<name>Mid Gain(dB)</name>
								<valuemin>-20</valuemin>
								<valuemax>20</valuemax>
								<value>3</value>
							</parameter>
							<parameter>
								<parameterid>High Frequency</parameterid>
								<name>High Frequency</name>
								<valuemin>5000</valuemin>
								<valuemax>20000</valuemax>
								<value>10354</value>
							</parameter>
							<parameter>
								<parameterid>High Gain(dB)</parameterid>
								<name>High Gain(dB)</name>
								<valuemin>-20</valuemin>
								<valuemax>20</valuemax>
								<value>0</value>
							</parameter>
						</effect>
					</filter>
					<filter>
						<effect>
							<name>Audio Levels</name>
							<effectid>audiolevels</effectid>
							<effectcategory>audiolevels</effectcategory>
							<effecttype>audiolevels</effecttype>
							<mediatype>audio</mediatype>
							<parameter>
								<name>Level</name>
								<parameterid>level</parameterid>
								<valuemin>0</valuemin>
								<valuemax>3.98109</valuemax>
								<value>1.77828</value>
							</parameter>
						</effect>
					</filter>
					<filter>
						<effect>
							<name>Audio Pan</name>
							<effectid>audiopan</effectid>
							<effectcategory>audiopan</effectcategory>
							<effecttype>audiopan</effecttype>
							<mediatype>audio</mediatype>
							<parameter>
								<name>Pan</name>
								<parameterid>pan</parameterid>
								<valuemin>-1</valuemin>
								<valuemax>1</valuemax>
								<value>0</value>
							</parameter>
						</effect>
					</filter>
					<sourcetrack>
						<mediatype>audio</mediatype>
						<trackindex>2</trackindex>
					</sourcetrack>
					<link>
						<linkclipref>msub200012-0409d1k1013 3</linkclipref>
						<mediatype>audio</mediatype>
						<trackindex>2</trackindex>
						<clipindex>101</clipindex>
					</link>
				</clipitem>
				<transitionitem id="37269728 ">
					<rate>
						<ntsc>FALSE</ntsc>
						<timebase>25</timebase>
					</rate>
					<start>15120</start>
					<end>15122</end>
					<alignment>center</alignment>
					<effect>
						<name>Cross Fade (+3dB) Copy</name>
						<effecttype>transition</effecttype>
						<mediatype>audio</mediatype>
					</effect>
				</transitionitem>
				<clipitem id="msub200012-0409d1k1011 6">
					<name>msub200012-0409d1k1011</name>
					<duration>24527</duration>
					<rate>
						<ntsc>FALSE</ntsc>
						<timebase>25</timebase>
					</rate>
					<in>5812</in>
					<out>5981</out>
					<start>-1</start>
					<end>-1</end>
					<subframeoffset>0</subframeoffset>
					<enabled>TRUE</enabled>
					<masterclipid>msub200012-0409d1k1011 1</masterclipid>
					<syncoffset>0</syncoffset>
					<logginginfo>
						<description>msub200012-0409d1k1011</description>
						<scene/>
						<shottake/>
						<lognote/>
						<good>FALSE</good>
					</logginginfo>
					<labels>
						<label>B Roll</label>
						<label2/>
					</labels>
					<comments>
						<mastercomment1>RÅSTOFF. BR_FINFREDAG_MSUA_OPRO</mastercomment1>
						<mastercomment2/>
						<mastercomment3/>
						<mastercomment4/>
					</comments>
					<file id="msub200012-0409d1k1011 2"/>
					<filter>
						<enabled>TRUE</enabled>
						<start>-1</start>
						<end>-1</end>
						<effect>
							<name>3 Band Equalizer - Kristine</name>
							<effecttype>filter</effecttype>
							<mediatype>audio</mediatype>
							<parameter>
								<parameterid>Low Frequency</parameterid>
								<name>Low Frequency</name>
								<valuemin>80</valuemin>
								<valuemax>2000</valuemax>
								<value>80</value>
							</parameter>
							<parameter>
								<parameterid>Low Gain(dB)</parameterid>
								<name>Low Gain(dB)</name>
								<valuemin>-20</valuemin>
								<valuemax>20</valuemax>
								<value>-4</value>
							</parameter>
							<parameter>
								<parameterid>Mid Frequency</parameterid>
								<name>Mid Frequency</name>
								<valuemin>400</valuemin>
								<valuemax>8000</valuemax>
								<value>3602</value>
							</parameter>
							<parameter>
								<parameterid>Mid Gain(dB)</parameterid>
								<name>Mid Gain(dB)</name>
								<valuemin>-20</valuemin>
								<valuemax>20</valuemax>
								<value>3</value>
							</parameter>
							<parameter>
								<parameterid>High Frequency</parameterid>
								<name>High Frequency</name>
								<valuemin>5000</valuemin>
								<valuemax>20000</valuemax>
								<value>10354</value>
							</parameter>
							<parameter>
								<parameterid>High Gain(dB)</parameterid>
								<name>High Gain(dB)</name>
								<valuemin>-20</valuemin>
								<valuemax>20</valuemax>
								<value>0</value>
							</parameter>
						</effect>
					</filter>
					<filter>
						<effect>
							<name>Audio Levels</name>
							<effectid>audiolevels</effectid>
							<effectcategory>audiolevels</effectcategory>
							<effecttype>audiolevels</effecttype>
							<mediatype>audio</mediatype>
							<parameter>
								<name>Level</name>
								<parameterid>level</parameterid>
								<valuemin>0</valuemin>
								<valuemax>3.98109</valuemax>
								<value>1.77828</value>
							</parameter>
						</effect>
					</filter>
					<filter>
						<effect>
							<name>Audio Pan</name>
							<effectid>audiopan</effectid>
							<effectcategory>audiopan</effectcategory>
							<effecttype>audiopan</effecttype>
							<mediatype>audio</mediatype>
							<parameter>
								<name>Pan</name>
								<parameterid>pan</parameterid>
								<valuemin>-1</valuemin>
								<valuemax>1</valuemax>
								<value>0</value>
							</parameter>
						</effect>
					</filter>
					<sourcetrack>
						<mediatype>audio</mediatype>
						<trackindex>2</trackindex>
					</sourcetrack>
					<link>
						<linkclipref>msub200012-0409d1k1011 6</linkclipref>
						<mediatype>audio</mediatype>
						<trackindex>2</trackindex>
						<clipindex>103</clipindex>
					</link>
				</clipitem>
				<transitionitem id="623592584 ">
					<rate>
						<ntsc>FALSE</ntsc>
						<timebase>25</timebase>
					</rate>
					<start>15287</start>
					<end>15289</end>
					<alignment>center</alignment>
					<effect>
						<name>Cross Fade (+3dB) Copy</name>
						<effecttype>transition</effecttype>
						<mediatype>audio</mediatype>
					</effect>
				</transitionitem>
				<clipitem id="msub200012-0409d1k1011 7">
					<name>msub200012-0409d1k1011</name>
					<duration>24527</duration>
					<rate>
						<ntsc>FALSE</ntsc>
						<timebase>25</timebase>
					</rate>
					<in>6021</in>
					<out>6829</out>
					<start>-1</start>
					<end>-1</end>
					<subframeoffset>0</subframeoffset>
					<enabled>TRUE</enabled>
					<masterclipid>msub200012-0409d1k1011 1</masterclipid>
					<syncoffset>0</syncoffset>
					<logginginfo>
						<description>msub200012-0409d1k1011</description>
						<scene/>
						<shottake/>
						<lognote/>
						<good>FALSE</good>
					</logginginfo>
					<labels>
						<label>B Roll</label>
						<label2/>
					</labels>
					<comments>
						<mastercomment1>RÅSTOFF. BR_FINFREDAG_MSUA_OPRO</mastercomment1>
						<mastercomment2/>
						<mastercomment3/>
						<mastercomment4/>
					</comments>
					<file id="msub200012-0409d1k1011 2"/>
					<filter>
						<start>-1</start>
						<end>-1</end>
						<effect>
							<name>3 Band Equalizer - Kristine</name>
							<effecttype>filter</effecttype>
							<mediatype>audio</mediatype>
							<parameter>
								<parameterid>Low Frequency</parameterid>
								<name>Low Frequency</name>
								<valuemin>80</valuemin>
								<valuemax>2000</valuemax>
								<value>80</value>
							</parameter>
							<parameter>
								<parameterid>Low Gain(dB)</parameterid>
								<name>Low Gain(dB)</name>
								<valuemin>-20</valuemin>
								<valuemax>20</valuemax>
								<value>-4</value>
							</parameter>
							<parameter>
								<parameterid>Mid Frequency</parameterid>
								<name>Mid Frequency</name>
								<valuemin>400</valuemin>
								<valuemax>8000</valuemax>
								<value>3602</value>
							</parameter>
							<parameter>
								<parameterid>Mid Gain(dB)</parameterid>
								<name>Mid Gain(dB)</name>
								<valuemin>-20</valuemin>
								<valuemax>20</valuemax>
								<value>3</value>
							</parameter>
							<parameter>
								<parameterid>High Frequency</parameterid>
								<name>High Frequency</name>
								<valuemin>5000</valuemin>
								<valuemax>20000</valuemax>
								<value>10354</value>
							</parameter>
							<parameter>
								<parameterid>High Gain(dB)</parameterid>
								<name>High Gain(dB)</name>
								<valuemin>-20</valuemin>
								<valuemax>20</valuemax>
								<value>0</value>
							</parameter>
						</effect>
					</filter>
					<filter>
						<effect>
							<name>Audio Levels</name>
							<effectid>audiolevels</effectid>
							<effectcategory>audiolevels</effectcategory>
							<effecttype>audiolevels</effecttype>
							<mediatype>audio</mediatype>
							<parameter>
								<name>Level</name>
								<parameterid>level</parameterid>
								<valuemin>0</valuemin>
								<valuemax>3.98109</valuemax>
								<keyframe>
									<when>6548.43</when>
									<value>1.77828</value>
								</keyframe>
								<keyframe>
									<when>6563.29</when>
									<value>1.58489</value>
								</keyframe>
								<interpolation>
									<name>FCPCurve</name>
								</interpolation>
								<value>1.77828</value>
							</parameter>
						</effect>
					</filter>
					<filter>
						<effect>
							<name>Audio Pan</name>
							<effectid>audiopan</effectid>
							<effectcategory>audiopan</effectcategory>
							<effecttype>audiopan</effecttype>
							<mediatype>audio</mediatype>
							<parameter>
								<name>Pan</name>
								<parameterid>pan</parameterid>
								<valuemin>-1</valuemin>
								<valuemax>1</valuemax>
								<value>0</value>
							</parameter>
						</effect>
					</filter>
					<sourcetrack>
						<mediatype>audio</mediatype>
						<trackindex>2</trackindex>
					</sourcetrack>
					<link>
						<linkclipref>msub200012-0409d1k1011 7</linkclipref>
						<mediatype>audio</mediatype>
						<trackindex>2</trackindex>
						<clipindex>105</clipindex>
					</link>
				</clipitem>
				<transitionitem id="7">
					<rate>
						<ntsc>FALSE</ntsc>
						<timebase>25</timebase>
					</rate>
					<start>16093</start>
					<end>16095</end>
					<alignment>end-black</alignment>
					<effect>
						<name>Cross Fade (+3dB) Copy</name>
						<effecttype>transition</effecttype>
						<mediatype>audio</mediatype>
					</effect>
				</transitionitem>
				<transitionitem id="623576672 ">
					<rate>
						<ntsc>FALSE</ntsc>
						<timebase>25</timebase>
					</rate>
					<start>17110</start>
					<end>17112</end>
					<alignment>center</alignment>
					<effect>
						<name>Cross Fade (+3dB) Copy</name>
						<effecttype>transition</effecttype>
						<mediatype>audio</mediatype>
					</effect>
				</transitionitem>
				<clipitem id="msub200012-0409d1k1011 8">
					<name>msub200012-0409d1k1011</name>
					<duration>24527</duration>
					<rate>
						<ntsc>FALSE</ntsc>
						<timebase>25</timebase>
					</rate>
					<in>9004</in>
					<out>10288</out>
					<start>-1</start>
					<end>-1</end>
					<subframeoffset>0</subframeoffset>
					<enabled>TRUE</enabled>
					<masterclipid>msub200012-0409d1k1011 1</masterclipid>
					<syncoffset>0</syncoffset>
					<logginginfo>
						<description>msub200012-0409d1k1011</description>
						<scene/>
						<shottake/>
						<lognote/>
						<good>FALSE</good>
					</logginginfo>
					<labels>
						<label>B Roll</label>
						<label2/>
					</labels>
					<comments>
						<mastercomment1>RÅSTOFF. BR_FINFREDAG_MSUA_OPRO</mastercomment1>
						<mastercomment2/>
						<mastercomment3/>
						<mastercomment4/>
					</comments>
					<file id="msub200012-0409d1k1011 2"/>
					<filter>
						<start>-1</start>
						<end>-1</end>
						<effect>
							<name>3 Band Equalizer - Kristine</name>
							<effecttype>filter</effecttype>
							<mediatype>audio</mediatype>
							<parameter>
								<parameterid>Low Frequency</parameterid>
								<name>Low Frequency</name>
								<valuemin>80</valuemin>
								<valuemax>2000</valuemax>
								<value>80</value>
							</parameter>
							<parameter>
								<parameterid>Low Gain(dB)</parameterid>
								<name>Low Gain(dB)</name>
								<valuemin>-20</valuemin>
								<valuemax>20</valuemax>
								<value>-4</value>
							</parameter>
							<parameter>
								<parameterid>Mid Frequency</parameterid>
								<name>Mid Frequency</name>
								<valuemin>400</valuemin>
								<valuemax>8000</valuemax>
								<value>3602</value>
							</parameter>
							<parameter>
								<parameterid>Mid Gain(dB)</parameterid>
								<name>Mid Gain(dB)</name>
								<valuemin>-20</valuemin>
								<valuemax>20</valuemax>
								<value>3</value>
							</parameter>
							<parameter>
								<parameterid>High Frequency</parameterid>
								<name>High Frequency</name>
								<valuemin>5000</valuemin>
								<valuemax>20000</valuemax>
								<value>10354</value>
							</parameter>
							<parameter>
								<parameterid>High Gain(dB)</parameterid>
								<name>High Gain(dB)</name>
								<valuemin>-20</valuemin>
								<valuemax>20</valuemax>
								<value>0</value>
							</parameter>
						</effect>
					</filter>
					<filter>
						<effect>
							<name>Audio Levels</name>
							<effectid>audiolevels</effectid>
							<effectcategory>audiolevels</effectcategory>
							<effecttype>audiolevels</effecttype>
							<mediatype>audio</mediatype>
							<parameter>
								<name>Level</name>
								<parameterid>level</parameterid>
								<valuemin>0</valuemin>
								<valuemax>3.98109</valuemax>
								<value>1.58489</value>
							</parameter>
						</effect>
					</filter>
					<filter>
						<effect>
							<name>Audio Pan</name>
							<effectid>audiopan</effectid>
							<effectcategory>audiopan</effectcategory>
							<effecttype>audiopan</effecttype>
							<mediatype>audio</mediatype>
							<parameter>
								<name>Pan</name>
								<parameterid>pan</parameterid>
								<valuemin>-1</valuemin>
								<valuemax>1</valuemax>
								<value>0</value>
							</parameter>
						</effect>
					</filter>
					<sourcetrack>
						<mediatype>audio</mediatype>
						<trackindex>2</trackindex>
					</sourcetrack>
				</clipitem>
				<transitionitem id="37697256 ">
					<rate>
						<ntsc>FALSE</ntsc>
						<timebase>25</timebase>
					</rate>
					<start>18392</start>
					<end>18394</end>
					<alignment>center</alignment>
					<effect>
						<name>Cross Fade (+3dB) Copy</name>
						<effecttype>transition</effecttype>
						<mediatype>audio</mediatype>
					</effect>
				</transitionitem>
				<clipitem id="msub200012-0409d1k1013 4">
					<name>msub200012-0409d1k1013</name>
					<duration>14518</duration>
					<rate>
						<ntsc>FALSE</ntsc>
						<timebase>25</timebase>
					</rate>
					<in>7553</in>
					<out>7627</out>
					<start>-1</start>
					<end>-1</end>
					<subframeoffset>0</subframeoffset>
					<masterclipid>msub200012-0409d1k1013 1</masterclipid>
					<syncoffset>0</syncoffset>
					<logginginfo>
						<description>msub200012-0409d1k1013</description>
						<scene/>
						<shottake/>
						<lognote/>
						<good>FALSE</good>
					</logginginfo>
					<labels>
						<label>Good Take</label>
						<label2/>
					</labels>
					<comments>
						<mastercomment1>RÅSTOFF. BR_FINFREDAG_MSUA_OPRO</mastercomment1>
						<mastercomment2/>
						<mastercomment3/>
						<mastercomment4/>
					</comments>
					<file id="msub200012-0409d1k1013 2"/>
					<filter>
						<start>-1</start>
						<end>-1</end>
						<effect>
							<name>3 Band Equalizer - Kristine</name>
							<effecttype>filter</effecttype>
							<mediatype>audio</mediatype>
							<parameter>
								<parameterid>Low Frequency</parameterid>
								<name>Low Frequency</name>
								<valuemin>80</valuemin>
								<valuemax>2000</valuemax>
								<value>80</value>
							</parameter>
							<parameter>
								<parameterid>Low Gain(dB)</parameterid>
								<name>Low Gain(dB)</name>
								<valuemin>-20</valuemin>
								<valuemax>20</valuemax>
								<value>-4</value>
							</parameter>
							<parameter>
								<parameterid>Mid Frequency</parameterid>
								<name>Mid Frequency</name>
								<valuemin>400</valuemin>
								<valuemax>8000</valuemax>
								<value>3602</value>
							</parameter>
							<parameter>
								<parameterid>Mid Gain(dB)</parameterid>
								<name>Mid Gain(dB)</name>
								<valuemin>-20</valuemin>
								<valuemax>20</valuemax>
								<value>3</value>
							</parameter>
							<parameter>
								<parameterid>High Frequency</parameterid>
								<name>High Frequency</name>
								<valuemin>5000</valuemin>
								<valuemax>20000</valuemax>
								<value>10354</value>
							</parameter>
							<parameter>
								<parameterid>High Gain(dB)</parameterid>
								<name>High Gain(dB)</name>
								<valuemin>-20</valuemin>
								<valuemax>20</valuemax>
								<value>0</value>
							</parameter>
						</effect>
					</filter>
					<filter>
						<effect>
							<name>Audio Levels</name>
							<effectid>audiolevels</effectid>
							<effectcategory>audiolevels</effectcategory>
							<effecttype>audiolevels</effecttype>
							<mediatype>audio</mediatype>
							<parameter>
								<name>Level</name>
								<parameterid>level</parameterid>
								<valuemin>0</valuemin>
								<valuemax>3.98109</valuemax>
								<value>1.77828</value>
							</parameter>
						</effect>
					</filter>
					<filter>
						<effect>
							<name>Audio Pan</name>
							<effectid>audiopan</effectid>
							<effectcategory>audiopan</effectcategory>
							<effecttype>audiopan</effecttype>
							<mediatype>audio</mediatype>
							<parameter>
								<name>Pan</name>
								<parameterid>pan</parameterid>
								<valuemin>-1</valuemin>
								<valuemax>1</valuemax>
								<value>0</value>
							</parameter>
						</effect>
					</filter>
					<sourcetrack>
						<mediatype>audio</mediatype>
						<trackindex>2</trackindex>
					</sourcetrack>
					<link>
						<linkclipref>msub200012-0409d1k1013 4</linkclipref>
						<mediatype>audio</mediatype>
						<trackindex>2</trackindex>
						<clipindex>110</clipindex>
					</link>
				</clipitem>
				<transitionitem id="37677128 ">
					<rate>
						<ntsc>FALSE</ntsc>
						<timebase>25</timebase>
					</rate>
					<start>18464</start>
					<end>18466</end>
					<alignment>center</alignment>
					<effect>
						<name>Cross Fade (+3dB) Copy</name>
						<effecttype>transition</effecttype>
						<mediatype>audio</mediatype>
					</effect>
				</transitionitem>
				<clipitem id="msub200012-0409d1k1011 9">
					<name>msub200012-0409d1k1011</name>
					<duration>24527</duration>
					<rate>
						<ntsc>FALSE</ntsc>
						<timebase>25</timebase>
					</rate>
					<in>10387</in>
					<out>10572</out>
					<start>-1</start>
					<end>-1</end>
					<subframeoffset>0</subframeoffset>
					<enabled>TRUE</enabled>
					<masterclipid>msub200012-0409d1k1011 1</masterclipid>
					<syncoffset>0</syncoffset>
					<logginginfo>
						<description>msub200012-0409d1k1011</description>
						<scene/>
						<shottake/>
						<lognote/>
						<good>FALSE</good>
					</logginginfo>
					<labels>
						<label>B Roll</label>
						<label2/>
					</labels>
					<comments>
						<mastercomment1>RÅSTOFF. BR_FINFREDAG_MSUA_OPRO</mastercomment1>
						<mastercomment2/>
						<mastercomment3/>
						<mastercomment4/>
					</comments>
					<file id="msub200012-0409d1k1011 2"/>
					<filter>
						<start>-1</start>
						<end>-1</end>
						<effect>
							<name>3 Band Equalizer - Kristine</name>
							<effecttype>filter</effecttype>
							<mediatype>audio</mediatype>
							<parameter>
								<parameterid>Low Frequency</parameterid>
								<name>Low Frequency</name>
								<valuemin>80</valuemin>
								<valuemax>2000</valuemax>
								<value>80</value>
							</parameter>
							<parameter>
								<parameterid>Low Gain(dB)</parameterid>
								<name>Low Gain(dB)</name>
								<valuemin>-20</valuemin>
								<valuemax>20</valuemax>
								<value>-4</value>
							</parameter>
							<parameter>
								<parameterid>Mid Frequency</parameterid>
								<name>Mid Frequency</name>
								<valuemin>400</valuemin>
								<valuemax>8000</valuemax>
								<value>3602</value>
							</parameter>
							<parameter>
								<parameterid>Mid Gain(dB)</parameterid>
								<name>Mid Gain(dB)</name>
								<valuemin>-20</valuemin>
								<valuemax>20</valuemax>
								<value>3</value>
							</parameter>
							<parameter>
								<parameterid>High Frequency</parameterid>
								<name>High Frequency</name>
								<valuemin>5000</valuemin>
								<valuemax>20000</valuemax>
								<value>10354</value>
							</parameter>
							<parameter>
								<parameterid>High Gain(dB)</parameterid>
								<name>High Gain(dB)</name>
								<valuemin>-20</valuemin>
								<valuemax>20</valuemax>
								<value>0</value>
							</parameter>
						</effect>
					</filter>
					<filter>
						<effect>
							<name>Audio Levels</name>
							<effectid>audiolevels</effectid>
							<effectcategory>audiolevels</effectcategory>
							<effecttype>audiolevels</effecttype>
							<mediatype>audio</mediatype>
							<parameter>
								<name>Level</name>
								<parameterid>level</parameterid>
								<valuemin>0</valuemin>
								<valuemax>3.98109</valuemax>
								<value>1.58489</value>
							</parameter>
						</effect>
					</filter>
					<filter>
						<effect>
							<name>Audio Pan</name>
							<effectid>audiopan</effectid>
							<effectcategory>audiopan</effectcategory>
							<effecttype>audiopan</effecttype>
							<mediatype>audio</mediatype>
							<parameter>
								<name>Pan</name>
								<parameterid>pan</parameterid>
								<valuemin>-1</valuemin>
								<valuemax>1</valuemax>
								<value>0</value>
							</parameter>
						</effect>
					</filter>
					<sourcetrack>
						<mediatype>audio</mediatype>
						<trackindex>2</trackindex>
					</sourcetrack>
				</clipitem>
				<transitionitem id="37672300 ">
					<rate>
						<ntsc>FALSE</ntsc>
						<timebase>25</timebase>
					</rate>
					<start>18647</start>
					<end>18649</end>
					<alignment>center</alignment>
					<effect>
						<name>Cross Fade (+3dB) Copy</name>
						<effecttype>transition</effecttype>
						<mediatype>audio</mediatype>
					</effect>
				</transitionitem>
				<clipitem id="msub200012-0409d1k1011 10">
					<name>msub200012-0409d1k1011</name>
					<duration>24527</duration>
					<rate>
						<ntsc>FALSE</ntsc>
						<timebase>25</timebase>
					</rate>
					<in>10781</in>
					<out>11331</out>
					<start>-1</start>
					<end>-1</end>
					<subframeoffset>0</subframeoffset>
					<enabled>TRUE</enabled>
					<masterclipid>msub200012-0409d1k1011 1</masterclipid>
					<syncoffset>0</syncoffset>
					<logginginfo>
						<description>msub200012-0409d1k1011</description>
						<scene/>
						<shottake/>
						<lognote/>
						<good>FALSE</good>
					</logginginfo>
					<labels>
						<label>B Roll</label>
						<label2/>
					</labels>
					<comments>
						<mastercomment1>RÅSTOFF. BR_FINFREDAG_MSUA_OPRO</mastercomment1>
						<mastercomment2/>
						<mastercomment3/>
						<mastercomment4/>
					</comments>
					<file id="msub200012-0409d1k1011 2"/>
					<filter>
						<start>-1</start>
						<end>-1</end>
						<effect>
							<name>3 Band Equalizer - Kristine</name>
							<effecttype>filter</effecttype>
							<mediatype>audio</mediatype>
							<parameter>
								<parameterid>Low Frequency</parameterid>
								<name>Low Frequency</name>
								<valuemin>80</valuemin>
								<valuemax>2000</valuemax>
								<value>80</value>
							</parameter>
							<parameter>
								<parameterid>Low Gain(dB)</parameterid>
								<name>Low Gain(dB)</name>
								<valuemin>-20</valuemin>
								<valuemax>20</valuemax>
								<value>-4</value>
							</parameter>
							<parameter>
								<parameterid>Mid Frequency</parameterid>
								<name>Mid Frequency</name>
								<valuemin>400</valuemin>
								<valuemax>8000</valuemax>
								<value>3602</value>
							</parameter>
							<parameter>
								<parameterid>Mid Gain(dB)</parameterid>
								<name>Mid Gain(dB)</name>
								<valuemin>-20</valuemin>
								<valuemax>20</valuemax>
								<value>3</value>
							</parameter>
							<parameter>
								<parameterid>High Frequency</parameterid>
								<name>High Frequency</name>
								<valuemin>5000</valuemin>
								<valuemax>20000</valuemax>
								<value>10354</value>
							</parameter>
							<parameter>
								<parameterid>High Gain(dB)</parameterid>
								<name>High Gain(dB)</name>
								<valuemin>-20</valuemin>
								<valuemax>20</valuemax>
								<value>0</value>
							</parameter>
						</effect>
					</filter>
					<filter>
						<effect>
							<name>Audio Levels</name>
							<effectid>audiolevels</effectid>
							<effectcategory>audiolevels</effectcategory>
							<effecttype>audiolevels</effecttype>
							<mediatype>audio</mediatype>
							<parameter>
								<name>Level</name>
								<parameterid>level</parameterid>
								<valuemin>0</valuemin>
								<valuemax>3.98109</valuemax>
								<keyframe>
									<when>11072.3</when>
									<value>1.77828</value>
								</keyframe>
								<keyframe>
									<when>11083.7</when>
									<value>1.58489</value>
								</keyframe>
								<interpolation>
									<name>FCPCurve</name>
								</interpolation>
								<value>1.77828</value>
							</parameter>
						</effect>
					</filter>
					<filter>
						<effect>
							<name>Audio Pan</name>
							<effectid>audiopan</effectid>
							<effectcategory>audiopan</effectcategory>
							<effecttype>audiopan</effecttype>
							<mediatype>audio</mediatype>
							<parameter>
								<name>Pan</name>
								<parameterid>pan</parameterid>
								<valuemin>-1</valuemin>
								<valuemax>1</valuemax>
								<value>0</value>
							</parameter>
						</effect>
					</filter>
					<sourcetrack>
						<mediatype>audio</mediatype>
						<trackindex>2</trackindex>
					</sourcetrack>
				</clipitem>
				<transitionitem id="37669920 ">
					<rate>
						<ntsc>FALSE</ntsc>
						<timebase>25</timebase>
					</rate>
					<start>19195</start>
					<end>19197</end>
					<alignment>center</alignment>
					<effect>
						<name>Cross Fade (+3dB) Copy</name>
						<effecttype>transition</effecttype>
						<mediatype>audio</mediatype>
					</effect>
				</transitionitem>
				<clipitem id="msub200012-0409d1k1011 11">
					<name>msub200012-0409d1k1011</name>
					<duration>24527</duration>
					<rate>
						<ntsc>FALSE</ntsc>
						<timebase>25</timebase>
					</rate>
					<in>13921</in>
					<out>14303</out>
					<start>-1</start>
					<end>-1</end>
					<subframeoffset>0</subframeoffset>
					<enabled>TRUE</enabled>
					<masterclipid>msub200012-0409d1k1011 1</masterclipid>
					<syncoffset>0</syncoffset>
					<logginginfo>
						<description>msub200012-0409d1k1011</description>
						<scene/>
						<shottake/>
						<lognote/>
						<good>FALSE</good>
					</logginginfo>
					<labels>
						<label>B Roll</label>
						<label2/>
					</labels>
					<comments>
						<mastercomment1>RÅSTOFF. BR_FINFREDAG_MSUA_OPRO</mastercomment1>
						<mastercomment2/>
						<mastercomment3/>
						<mastercomment4/>
					</comments>
					<file id="msub200012-0409d1k1011 2"/>
					<filter>
						<enabled>TRUE</enabled>
						<start>-1</start>
						<end>-1</end>
						<effect>
							<name>3 Band Equalizer - Kristine</name>
							<effecttype>filter</effecttype>
							<mediatype>audio</mediatype>
							<parameter>
								<parameterid>Low Frequency</parameterid>
								<name>Low Frequency</name>
								<valuemin>80</valuemin>
								<valuemax>2000</valuemax>
								<value>80</value>
							</parameter>
							<parameter>
								<parameterid>Low Gain(dB)</parameterid>
								<name>Low Gain(dB)</name>
								<valuemin>-20</valuemin>
								<valuemax>20</valuemax>
								<value>-4</value>
							</parameter>
							<parameter>
								<parameterid>Mid Frequency</parameterid>
								<name>Mid Frequency</name>
								<valuemin>400</valuemin>
								<valuemax>8000</valuemax>
								<value>3602</value>
							</parameter>
							<parameter>
								<parameterid>Mid Gain(dB)</parameterid>
								<name>Mid Gain(dB)</name>
								<valuemin>-20</valuemin>
								<valuemax>20</valuemax>
								<value>3</value>
							</parameter>
							<parameter>
								<parameterid>High Frequency</parameterid>
								<name>High Frequency</name>
								<valuemin>5000</valuemin>
								<valuemax>20000</valuemax>
								<value>10354</value>
							</parameter>
							<parameter>
								<parameterid>High Gain(dB)</parameterid>
								<name>High Gain(dB)</name>
								<valuemin>-20</valuemin>
								<valuemax>20</valuemax>
								<value>0</value>
							</parameter>
						</effect>
					</filter>
					<filter>
						<effect>
							<name>Audio Levels</name>
							<effectid>audiolevels</effectid>
							<effectcategory>audiolevels</effectcategory>
							<effecttype>audiolevels</effecttype>
							<mediatype>audio</mediatype>
							<parameter>
								<name>Level</name>
								<parameterid>level</parameterid>
								<valuemin>0</valuemin>
								<valuemax>3.98109</valuemax>
								<value>1.58489</value>
							</parameter>
						</effect>
					</filter>
					<filter>
						<effect>
							<name>Audio Pan</name>
							<effectid>audiopan</effectid>
							<effectcategory>audiopan</effectcategory>
							<effecttype>audiopan</effecttype>
							<mediatype>audio</mediatype>
							<parameter>
								<name>Pan</name>
								<parameterid>pan</parameterid>
								<valuemin>-1</valuemin>
								<valuemax>1</valuemax>
								<value>0</value>
							</parameter>
						</effect>
					</filter>
					<sourcetrack>
						<mediatype>audio</mediatype>
						<trackindex>2</trackindex>
					</sourcetrack>
				</clipitem>
				<transitionitem id="37674204 ">
					<rate>
						<ntsc>FALSE</ntsc>
						<timebase>25</timebase>
					</rate>
					<start>19575</start>
					<end>19577</end>
					<alignment>end-black</alignment>
					<effect>
						<name>Cross Fade (+3dB) Copy</name>
						<effecttype>transition</effecttype>
						<mediatype>audio</mediatype>
					</effect>
				</transitionitem>
				<transitionitem id="37664616 ">
					<rate>
						<ntsc>FALSE</ntsc>
						<timebase>25</timebase>
					</rate>
					<start>20472</start>
					<end>20474</end>
					<alignment>start-black</alignment>
					<effect>
						<name>Cross Fade ( 0dB)</name>
						<effecttype>transition</effecttype>
						<mediatype>audio</mediatype>
					</effect>
				</transitionitem>
				<clipitem id="msub200012-0409d1k1011 12">
					<name>msub200012-0409d1k1011</name>
					<duration>24527</duration>
					<rate>
						<ntsc>FALSE</ntsc>
						<timebase>25</timebase>
					</rate>
					<in>15762</in>
					<out>16006</out>
					<start>-1</start>
					<end>-1</end>
					<subframeoffset>0</subframeoffset>
					<enabled>TRUE</enabled>
					<masterclipid>msub200012-0409d1k1011 1</masterclipid>
					<syncoffset>0</syncoffset>
					<logginginfo>
						<description>msub200012-0409d1k1011</description>
						<scene/>
						<shottake/>
						<lognote/>
						<good>FALSE</good>
					</logginginfo>
					<labels>
						<label>B Roll</label>
						<label2/>
					</labels>
					<comments>
						<mastercomment1>RÅSTOFF. BR_FINFREDAG_MSUA_OPRO</mastercomment1>
						<mastercomment2/>
						<mastercomment3/>
						<mastercomment4/>
					</comments>
					<file id="msub200012-0409d1k1011 2"/>
					<filter>
						<enabled>TRUE</enabled>
						<start>-1</start>
						<end>-1</end>
						<effect>
							<name>3 Band Equalizer - Kristine</name>
							<effecttype>filter</effecttype>
							<mediatype>audio</mediatype>
							<parameter>
								<parameterid>Low Frequency</parameterid>
								<name>Low Frequency</name>
								<valuemin>80</valuemin>
								<valuemax>2000</valuemax>
								<value>80</value>
							</parameter>
							<parameter>
								<parameterid>Low Gain(dB)</parameterid>
								<name>Low Gain(dB)</name>
								<valuemin>-20</valuemin>
								<valuemax>20</valuemax>
								<value>-4</value>
							</parameter>
							<parameter>
								<parameterid>Mid Frequency</parameterid>
								<name>Mid Frequency</name>
								<valuemin>400</valuemin>
								<valuemax>8000</valuemax>
								<value>3602</value>
							</parameter>
							<parameter>
								<parameterid>Mid Gain(dB)</parameterid>
								<name>Mid Gain(dB)</name>
								<valuemin>-20</valuemin>
								<valuemax>20</valuemax>
								<value>3</value>
							</parameter>
							<parameter>
								<parameterid>High Frequency</parameterid>
								<name>High Frequency</name>
								<valuemin>5000</valuemin>
								<valuemax>20000</valuemax>
								<value>10354</value>
							</parameter>
							<parameter>
								<parameterid>High Gain(dB)</parameterid>
								<name>High Gain(dB)</name>
								<valuemin>-20</valuemin>
								<valuemax>20</valuemax>
								<value>0</value>
							</parameter>
						</effect>
					</filter>
					<filter>
						<effect>
							<name>Audio Levels</name>
							<effectid>audiolevels</effectid>
							<effectcategory>audiolevels</effectcategory>
							<effecttype>audiolevels</effecttype>
							<mediatype>audio</mediatype>
							<parameter>
								<name>Level</name>
								<parameterid>level</parameterid>
								<valuemin>0</valuemin>
								<valuemax>3.98109</valuemax>
								<value>1.58489</value>
							</parameter>
						</effect>
					</filter>
					<filter>
						<effect>
							<name>Audio Pan</name>
							<effectid>audiopan</effectid>
							<effectcategory>audiopan</effectcategory>
							<effecttype>audiopan</effecttype>
							<mediatype>audio</mediatype>
							<parameter>
								<name>Pan</name>
								<parameterid>pan</parameterid>
								<valuemin>-1</valuemin>
								<valuemax>1</valuemax>
								<value>0</value>
							</parameter>
						</effect>
					</filter>
					<sourcetrack>
						<mediatype>audio</mediatype>
						<trackindex>2</trackindex>
					</sourcetrack>
				</clipitem>
				<transitionitem id="623028580 ">
					<rate>
						<ntsc>FALSE</ntsc>
						<timebase>25</timebase>
					</rate>
					<start>20714</start>
					<end>20716</end>
					<alignment>center</alignment>
					<effect>
						<name>Cross Fade (+3dB) Copy</name>
						<effecttype>transition</effecttype>
						<mediatype>audio</mediatype>
					</effect>
				</transitionitem>
				<clipitem id="msub200012-0409d1k1011 13">
					<name>msub200012-0409d1k1011</name>
					<duration>24527</duration>
					<rate>
						<ntsc>FALSE</ntsc>
						<timebase>25</timebase>
					</rate>
					<in>16292</in>
					<out>16503</out>
					<start>-1</start>
					<end>-1</end>
					<subframeoffset>0</subframeoffset>
					<enabled>TRUE</enabled>
					<masterclipid>msub200012-0409d1k1011 1</masterclipid>
					<syncoffset>0</syncoffset>
					<logginginfo>
						<description>msub200012-0409d1k1011</description>
						<scene/>
						<shottake/>
						<lognote/>
						<good>FALSE</good>
					</logginginfo>
					<labels>
						<label>B Roll</label>
						<label2/>
					</labels>
					<comments>
						<mastercomment1>RÅSTOFF. BR_FINFREDAG_MSUA_OPRO</mastercomment1>
						<mastercomment2/>
						<mastercomment3/>
						<mastercomment4/>
					</comments>
					<file id="msub200012-0409d1k1011 2"/>
					<filter>
						<enabled>TRUE</enabled>
						<start>-1</start>
						<end>-1</end>
						<effect>
							<name>3 Band Equalizer - Kristine</name>
							<effecttype>filter</effecttype>
							<mediatype>audio</mediatype>
							<parameter>
								<parameterid>Low Frequency</parameterid>
								<name>Low Frequency</name>
								<valuemin>80</valuemin>
								<valuemax>2000</valuemax>
								<value>80</value>
							</parameter>
							<parameter>
								<parameterid>Low Gain(dB)</parameterid>
								<name>Low Gain(dB)</name>
								<valuemin>-20</valuemin>
								<valuemax>20</valuemax>
								<value>-4</value>
							</parameter>
							<parameter>
								<parameterid>Mid Frequency</parameterid>
								<name>Mid Frequency</name>
								<valuemin>400</valuemin>
								<valuemax>8000</valuemax>
								<value>3602</value>
							</parameter>
							<parameter>
								<parameterid>Mid Gain(dB)</parameterid>
								<name>Mid Gain(dB)</name>
								<valuemin>-20</valuemin>
								<valuemax>20</valuemax>
								<value>3</value>
							</parameter>
							<parameter>
								<parameterid>High Frequency</parameterid>
								<name>High Frequency</name>
								<valuemin>5000</valuemin>
								<valuemax>20000</valuemax>
								<value>10354</value>
							</parameter>
							<parameter>
								<parameterid>High Gain(dB)</parameterid>
								<name>High Gain(dB)</name>
								<valuemin>-20</valuemin>
								<valuemax>20</valuemax>
								<value>0</value>
							</parameter>
						</effect>
					</filter>
					<filter>
						<effect>
							<name>Audio Levels</name>
							<effectid>audiolevels</effectid>
							<effectcategory>audiolevels</effectcategory>
							<effecttype>audiolevels</effecttype>
							<mediatype>audio</mediatype>
							<parameter>
								<name>Level</name>
								<parameterid>level</parameterid>
								<valuemin>0</valuemin>
								<valuemax>3.98109</valuemax>
								<value>1.58489</value>
							</parameter>
						</effect>
					</filter>
					<filter>
						<effect>
							<name>Audio Pan</name>
							<effectid>audiopan</effectid>
							<effectcategory>audiopan</effectcategory>
							<effecttype>audiopan</effecttype>
							<mediatype>audio</mediatype>
							<parameter>
								<name>Pan</name>
								<parameterid>pan</parameterid>
								<valuemin>-1</valuemin>
								<valuemax>1</valuemax>
								<value>0</value>
							</parameter>
						</effect>
					</filter>
					<sourcetrack>
						<mediatype>audio</mediatype>
						<trackindex>2</trackindex>
					</sourcetrack>
				</clipitem>
				<transitionitem id="623024908 ">
					<rate>
						<ntsc>FALSE</ntsc>
						<timebase>25</timebase>
					</rate>
					<start>20923</start>
					<end>20925</end>
					<alignment>center</alignment>
					<effect>
						<name>Cross Fade (+3dB) Copy</name>
						<effecttype>transition</effecttype>
						<mediatype>audio</mediatype>
					</effect>
				</transitionitem>
				<clipitem id="msub200012-0409d1k1013 5">
					<name>msub200012-0409d1k1013</name>
					<duration>14518</duration>
					<rate>
						<ntsc>FALSE</ntsc>
						<timebase>25</timebase>
					</rate>
					<in>10491</in>
					<out>10544</out>
					<start>-1</start>
					<end>-1</end>
					<subframeoffset>0</subframeoffset>
					<enabled>TRUE</enabled>
					<masterclipid>msub200012-0409d1k1013 1</masterclipid>
					<syncoffset>0</syncoffset>
					<logginginfo>
						<description>msub200012-0409d1k1013</description>
						<scene/>
						<shottake/>
						<lognote/>
						<good>FALSE</good>
					</logginginfo>
					<labels>
						<label>Good Take</label>
						<label2/>
					</labels>
					<comments>
						<mastercomment1>RÅSTOFF. BR_FINFREDAG_MSUA_OPRO</mastercomment1>
						<mastercomment2/>
						<mastercomment3/>
						<mastercomment4/>
					</comments>
					<file id="msub200012-0409d1k1013 2"/>
					<filter>
						<enabled>TRUE</enabled>
						<start>-1</start>
						<end>-1</end>
						<effect>
							<name>3 Band Equalizer - Kristine</name>
							<effecttype>filter</effecttype>
							<mediatype>audio</mediatype>
							<parameter>
								<parameterid>Low Frequency</parameterid>
								<name>Low Frequency</name>
								<valuemin>80</valuemin>
								<valuemax>2000</valuemax>
								<value>80</value>
							</parameter>
							<parameter>
								<parameterid>Low Gain(dB)</parameterid>
								<name>Low Gain(dB)</name>
								<valuemin>-20</valuemin>
								<valuemax>20</valuemax>
								<value>-4</value>
							</parameter>
							<parameter>
								<parameterid>Mid Frequency</parameterid>
								<name>Mid Frequency</name>
								<valuemin>400</valuemin>
								<valuemax>8000</valuemax>
								<value>3602</value>
							</parameter>
							<parameter>
								<parameterid>Mid Gain(dB)</parameterid>
								<name>Mid Gain(dB)</name>
								<valuemin>-20</valuemin>
								<valuemax>20</valuemax>
								<value>3</value>
							</parameter>
							<parameter>
								<parameterid>High Frequency</parameterid>
								<name>High Frequency</name>
								<valuemin>5000</valuemin>
								<valuemax>20000</valuemax>
								<value>10354</value>
							</parameter>
							<parameter>
								<parameterid>High Gain(dB)</parameterid>
								<name>High Gain(dB)</name>
								<valuemin>-20</valuemin>
								<valuemax>20</valuemax>
								<value>0</value>
							</parameter>
						</effect>
					</filter>
					<filter>
						<effect>
							<name>Audio Levels</name>
							<effectid>audiolevels</effectid>
							<effectcategory>audiolevels</effectcategory>
							<effecttype>audiolevels</effecttype>
							<mediatype>audio</mediatype>
							<parameter>
								<name>Level</name>
								<parameterid>level</parameterid>
								<valuemin>0</valuemin>
								<valuemax>3.98109</valuemax>
								<value>1.58489</value>
							</parameter>
						</effect>
					</filter>
					<filter>
						<effect>
							<name>Audio Pan</name>
							<effectid>audiopan</effectid>
							<effectcategory>audiopan</effectcategory>
							<effecttype>audiopan</effecttype>
							<mediatype>audio</mediatype>
							<parameter>
								<name>Pan</name>
								<parameterid>pan</parameterid>
								<valuemin>-1</valuemin>
								<valuemax>1</valuemax>
								<value>0</value>
							</parameter>
						</effect>
					</filter>
					<sourcetrack>
						<mediatype>audio</mediatype>
						<trackindex>2</trackindex>
					</sourcetrack>
					<link>
						<linkclipref>msub200012-0409d1k1013 5</linkclipref>
						<mediatype>audio</mediatype>
						<trackindex>2</trackindex>
						<clipindex>123</clipindex>
					</link>
				</clipitem>
				<transitionitem id="38820984 ">
					<rate>
						<ntsc>FALSE</ntsc>
						<timebase>25</timebase>
					</rate>
					<start>20974</start>
					<end>20976</end>
					<alignment>center</alignment>
					<effect>
						<name>Cross Fade (+3dB) Copy</name>
						<effecttype>transition</effecttype>
						<mediatype>audio</mediatype>
					</effect>
				</transitionitem>
				<clipitem id="msub200012-0409d1k1011 14">
					<name>msub200012-0409d1k1011</name>
					<duration>24527</duration>
					<rate>
						<ntsc>FALSE</ntsc>
						<timebase>25</timebase>
					</rate>
					<in>16912</in>
					<out>17383</out>
					<start>-1</start>
					<end>-1</end>
					<subframeoffset>0</subframeoffset>
					<enabled>TRUE</enabled>
					<masterclipid>msub200012-0409d1k1011 1</masterclipid>
					<syncoffset>0</syncoffset>
					<logginginfo>
						<description>msub200012-0409d1k1011</description>
						<scene/>
						<shottake/>
						<lognote/>
						<good>FALSE</good>
					</logginginfo>
					<labels>
						<label>B Roll</label>
						<label2/>
					</labels>
					<comments>
						<mastercomment1>RÅSTOFF. BR_FINFREDAG_MSUA_OPRO</mastercomment1>
						<mastercomment2/>
						<mastercomment3/>
						<mastercomment4/>
					</comments>
					<file id="msub200012-0409d1k1011 2"/>
					<filter>
						<enabled>TRUE</enabled>
						<start>-1</start>
						<end>-1</end>
						<effect>
							<name>3 Band Equalizer - Kristine</name>
							<effecttype>filter</effecttype>
							<mediatype>audio</mediatype>
							<parameter>
								<parameterid>Low Frequency</parameterid>
								<name>Low Frequency</name>
								<valuemin>80</valuemin>
								<valuemax>2000</valuemax>
								<value>80</value>
							</parameter>
							<parameter>
								<parameterid>Low Gain(dB)</parameterid>
								<name>Low Gain(dB)</name>
								<valuemin>-20</valuemin>
								<valuemax>20</valuemax>
								<value>-4</value>
							</parameter>
							<parameter>
								<parameterid>Mid Frequency</parameterid>
								<name>Mid Frequency</name>
								<valuemin>400</valuemin>
								<valuemax>8000</valuemax>
								<value>3602</value>
							</parameter>
							<parameter>
								<parameterid>Mid Gain(dB)</parameterid>
								<name>Mid Gain(dB)</name>
								<valuemin>-20</valuemin>
								<valuemax>20</valuemax>
								<value>3</value>
							</parameter>
							<parameter>
								<parameterid>High Frequency</parameterid>
								<name>High Frequency</name>
								<valuemin>5000</valuemin>
								<valuemax>20000</valuemax>
								<value>10354</value>
							</parameter>
							<parameter>
								<parameterid>High Gain(dB)</parameterid>
								<name>High Gain(dB)</name>
								<valuemin>-20</valuemin>
								<valuemax>20</valuemax>
								<value>0</value>
							</parameter>
						</effect>
					</filter>
					<filter>
						<effect>
							<name>Audio Levels</name>
							<effectid>audiolevels</effectid>
							<effectcategory>audiolevels</effectcategory>
							<effecttype>audiolevels</effecttype>
							<mediatype>audio</mediatype>
							<parameter>
								<name>Level</name>
								<parameterid>level</parameterid>
								<valuemin>0</valuemin>
								<valuemax>3.98109</valuemax>
								<keyframe>
									<when>16996.3</when>
									<value>1.77828</value>
								</keyframe>
								<keyframe>
									<when>17005.4</when>
									<value>1.58489</value>
								</keyframe>
								<interpolation>
									<name>FCPCurve</name>
								</interpolation>
								<value>1.58489</value>
							</parameter>
						</effect>
					</filter>
					<filter>
						<effect>
							<name>Audio Pan</name>
							<effectid>audiopan</effectid>
							<effectcategory>audiopan</effectcategory>
							<effecttype>audiopan</effecttype>
							<mediatype>audio</mediatype>
							<parameter>
								<name>Pan</name>
								<parameterid>pan</parameterid>
								<valuemin>-1</valuemin>
								<valuemax>1</valuemax>
								<value>0</value>
							</parameter>
						</effect>
					</filter>
					<sourcetrack>
						<mediatype>audio</mediatype>
						<trackindex>2</trackindex>
					</sourcetrack>
				</clipitem>
				<transitionitem id="38802624 ">
					<rate>
						<ntsc>FALSE</ntsc>
						<timebase>25</timebase>
					</rate>
					<start>21441</start>
					<end>21445</end>
					<alignment>end-black</alignment>
					<effect>
						<name>Cross Fade (+3dB) Copy</name>
						<effecttype>transition</effecttype>
						<mediatype>audio</mediatype>
					</effect>
				</transitionitem>
				<transitionitem id="38802216 ">
					<rate>
						<ntsc>FALSE</ntsc>
						<timebase>25</timebase>
					</rate>
					<start>21740</start>
					<end>21742</end>
					<alignment>start-black</alignment>
					<effect>
						<name>Cross Fade (+3dB) Copy</name>
						<effecttype>transition</effecttype>
						<mediatype>audio</mediatype>
					</effect>
				</transitionitem>
				<clipitem id="msub200012-0409d1k1011 15">
					<name>msub200012-0409d1k1011</name>
					<duration>24527</duration>
					<rate>
						<ntsc>FALSE</ntsc>
						<timebase>25</timebase>
					</rate>
					<in>19499</in>
					<out>19954</out>
					<start>-1</start>
					<end>-1</end>
					<subframeoffset>0</subframeoffset>
					<enabled>TRUE</enabled>
					<masterclipid>msub200012-0409d1k1011 1</masterclipid>
					<syncoffset>0</syncoffset>
					<logginginfo>
						<description>msub200012-0409d1k1011</description>
						<scene/>
						<shottake/>
						<lognote/>
						<good>FALSE</good>
					</logginginfo>
					<labels>
						<label>B Roll</label>
						<label2/>
					</labels>
					<comments>
						<mastercomment1>RÅSTOFF. BR_FINFREDAG_MSUA_OPRO</mastercomment1>
						<mastercomment2/>
						<mastercomment3/>
						<mastercomment4/>
					</comments>
					<file id="msub200012-0409d1k1011 2"/>
					<filter>
						<start>-1</start>
						<end>-1</end>
						<effect>
							<name>3 Band Equalizer - Kristine</name>
							<effecttype>filter</effecttype>
							<mediatype>audio</mediatype>
							<parameter>
								<parameterid>Low Frequency</parameterid>
								<name>Low Frequency</name>
								<valuemin>80</valuemin>
								<valuemax>2000</valuemax>
								<value>80</value>
							</parameter>
							<parameter>
								<parameterid>Low Gain(dB)</parameterid>
								<name>Low Gain(dB)</name>
								<valuemin>-20</valuemin>
								<valuemax>20</valuemax>
								<value>-4</value>
							</parameter>
							<parameter>
								<parameterid>Mid Frequency</parameterid>
								<name>Mid Frequency</name>
								<valuemin>400</valuemin>
								<valuemax>8000</valuemax>
								<value>3602</value>
							</parameter>
							<parameter>
								<parameterid>Mid Gain(dB)</parameterid>
								<name>Mid Gain(dB)</name>
								<valuemin>-20</valuemin>
								<valuemax>20</valuemax>
								<value>3</value>
							</parameter>
							<parameter>
								<parameterid>High Frequency</parameterid>
								<name>High Frequency</name>
								<valuemin>5000</valuemin>
								<valuemax>20000</valuemax>
								<value>10354</value>
							</parameter>
							<parameter>
								<parameterid>High Gain(dB)</parameterid>
								<name>High Gain(dB)</name>
								<valuemin>-20</valuemin>
								<valuemax>20</valuemax>
								<value>0</value>
							</parameter>
						</effect>
					</filter>
					<filter>
						<effect>
							<name>Audio Levels</name>
							<effectid>audiolevels</effectid>
							<effectcategory>audiolevels</effectcategory>
							<effecttype>audiolevels</effecttype>
							<mediatype>audio</mediatype>
							<parameter>
								<name>Level</name>
								<parameterid>level</parameterid>
								<valuemin>0</valuemin>
								<valuemax>3.98109</valuemax>
								<value>1.58489</value>
							</parameter>
						</effect>
					</filter>
					<filter>
						<effect>
							<name>Audio Pan</name>
							<effectid>audiopan</effectid>
							<effectcategory>audiopan</effectcategory>
							<effecttype>audiopan</effecttype>
							<mediatype>audio</mediatype>
							<parameter>
								<name>Pan</name>
								<parameterid>pan</parameterid>
								<valuemin>-1</valuemin>
								<valuemax>1</valuemax>
								<value>0</value>
							</parameter>
						</effect>
					</filter>
					<sourcetrack>
						<mediatype>audio</mediatype>
						<trackindex>2</trackindex>
					</sourcetrack>
				</clipitem>
				<transitionitem id="38799836 ">
					<rate>
						<ntsc>FALSE</ntsc>
						<timebase>25</timebase>
					</rate>
					<start>22193</start>
					<end>22195</end>
					<alignment>center</alignment>
					<effect>
						<name>Cross Fade (+3dB) Copy</name>
						<effecttype>transition</effecttype>
						<mediatype>audio</mediatype>
					</effect>
				</transitionitem>
				<clipitem id="msub200012-0409d1k1013 6">
					<name>msub200012-0409d1k1013</name>
					<duration>14518</duration>
					<rate>
						<ntsc>FALSE</ntsc>
						<timebase>25</timebase>
					</rate>
					<in>11897</in>
					<out>11924</out>
					<start>-1</start>
					<end>-1</end>
					<subframeoffset>0</subframeoffset>
					<masterclipid>msub200012-0409d1k1013 1</masterclipid>
					<syncoffset>0</syncoffset>
					<logginginfo>
						<description>msub200012-0409d1k1013</description>
						<scene/>
						<shottake/>
						<lognote/>
						<good>FALSE</good>
					</logginginfo>
					<labels>
						<label>Good Take</label>
						<label2/>
					</labels>
					<comments>
						<mastercomment1>RÅSTOFF. BR_FINFREDAG_MSUA_OPRO</mastercomment1>
						<mastercomment2/>
						<mastercomment3/>
						<mastercomment4/>
					</comments>
					<file id="msub200012-0409d1k1013 2"/>
					<filter>
						<start>-1</start>
						<end>-1</end>
						<effect>
							<name>3 Band Equalizer - Kristine</name>
							<effecttype>filter</effecttype>
							<mediatype>audio</mediatype>
							<parameter>
								<parameterid>Low Frequency</parameterid>
								<name>Low Frequency</name>
								<valuemin>80</valuemin>
								<valuemax>2000</valuemax>
								<value>80</value>
							</parameter>
							<parameter>
								<parameterid>Low Gain(dB)</parameterid>
								<name>Low Gain(dB)</name>
								<valuemin>-20</valuemin>
								<valuemax>20</valuemax>
								<value>-4</value>
							</parameter>
							<parameter>
								<parameterid>Mid Frequency</parameterid>
								<name>Mid Frequency</name>
								<valuemin>400</valuemin>
								<valuemax>8000</valuemax>
								<value>3602</value>
							</parameter>
							<parameter>
								<parameterid>Mid Gain(dB)</parameterid>
								<name>Mid Gain(dB)</name>
								<valuemin>-20</valuemin>
								<valuemax>20</valuemax>
								<value>3</value>
							</parameter>
							<parameter>
								<parameterid>High Frequency</parameterid>
								<name>High Frequency</name>
								<valuemin>5000</valuemin>
								<valuemax>20000</valuemax>
								<value>10354</value>
							</parameter>
							<parameter>
								<parameterid>High Gain(dB)</parameterid>
								<name>High Gain(dB)</name>
								<valuemin>-20</valuemin>
								<valuemax>20</valuemax>
								<value>0</value>
							</parameter>
						</effect>
					</filter>
					<filter>
						<effect>
							<name>Audio Levels</name>
							<effectid>audiolevels</effectid>
							<effectcategory>audiolevels</effectcategory>
							<effecttype>audiolevels</effecttype>
							<mediatype>audio</mediatype>
							<parameter>
								<name>Level</name>
								<parameterid>level</parameterid>
								<valuemin>0</valuemin>
								<valuemax>3.98109</valuemax>
								<value>1.58489</value>
							</parameter>
						</effect>
					</filter>
					<filter>
						<effect>
							<name>Audio Pan</name>
							<effectid>audiopan</effectid>
							<effectcategory>audiopan</effectcategory>
							<effecttype>audiopan</effecttype>
							<mediatype>audio</mediatype>
							<parameter>
								<name>Pan</name>
								<parameterid>pan</parameterid>
								<valuemin>-1</valuemin>
								<valuemax>1</valuemax>
								<value>0</value>
							</parameter>
						</effect>
					</filter>
					<sourcetrack>
						<mediatype>audio</mediatype>
						<trackindex>2</trackindex>
					</sourcetrack>
					<link>
						<linkclipref>msub200012-0409d1k1013 6</linkclipref>
						<mediatype>audio</mediatype>
						<trackindex>2</trackindex>
						<clipindex>130</clipindex>
					</link>
				</clipitem>
				<transitionitem id="624543208 ">
					<rate>
						<ntsc>FALSE</ntsc>
						<timebase>25</timebase>
					</rate>
					<start>22218</start>
					<end>22220</end>
					<alignment>end-black</alignment>
					<effect>
						<name>Cross Fade (+3dB) Copy</name>
						<effecttype>transition</effecttype>
						<mediatype>audio</mediatype>
					</effect>
				</transitionitem>
				<transitionitem id="624517572 ">
					<rate>
						<ntsc>FALSE</ntsc>
						<timebase>25</timebase>
					</rate>
					<start>22740</start>
					<end>22742</end>
					<alignment>end</alignment>
					<effect>
						<name>Cross Fade (+3dB) Copy</name>
						<effecttype>transition</effecttype>
						<mediatype>audio</mediatype>
					</effect>
				</transitionitem>
				<clipitem id="msub200012-0409d1k1013 7">
					<name>msub200012-0409d1k1013</name>
					<duration>14518</duration>
					<rate>
						<ntsc>FALSE</ntsc>
						<timebase>25</timebase>
					</rate>
					<in>13284</in>
					<out>13483</out>
					<start>-1</start>
					<end>-1</end>
					<subframeoffset>0</subframeoffset>
					<enabled>TRUE</enabled>
					<masterclipid>msub200012-0409d1k1013 1</masterclipid>
					<syncoffset>0</syncoffset>
					<logginginfo>
						<description>msub200012-0409d1k1013</description>
						<scene/>
						<shottake/>
						<lognote/>
						<good>FALSE</good>
					</logginginfo>
					<labels>
						<label>Good Take</label>
						<label2/>
					</labels>
					<comments>
						<mastercomment1>RÅSTOFF. BR_FINFREDAG_MSUA_OPRO</mastercomment1>
						<mastercomment2/>
						<mastercomment3/>
						<mastercomment4/>
					</comments>
					<file id="msub200012-0409d1k1013 2"/>
					<filter>
						<start>-1</start>
						<end>-1</end>
						<effect>
							<name>3 Band Equalizer - Kristine</name>
							<effecttype>filter</effecttype>
							<mediatype>audio</mediatype>
							<parameter>
								<parameterid>Low Frequency</parameterid>
								<name>Low Frequency</name>
								<valuemin>80</valuemin>
								<valuemax>2000</valuemax>
								<value>80</value>
							</parameter>
							<parameter>
								<parameterid>Low Gain(dB)</parameterid>
								<name>Low Gain(dB)</name>
								<valuemin>-20</valuemin>
								<valuemax>20</valuemax>
								<value>-4</value>
							</parameter>
							<parameter>
								<parameterid>Mid Frequency</parameterid>
								<name>Mid Frequency</name>
								<valuemin>400</valuemin>
								<valuemax>8000</valuemax>
								<value>3602</value>
							</parameter>
							<parameter>
								<parameterid>Mid Gain(dB)</parameterid>
								<name>Mid Gain(dB)</name>
								<valuemin>-20</valuemin>
								<valuemax>20</valuemax>
								<value>3</value>
							</parameter>
							<parameter>
								<parameterid>High Frequency</parameterid>
								<name>High Frequency</name>
								<valuemin>5000</valuemin>
								<valuemax>20000</valuemax>
								<value>10354</value>
							</parameter>
							<parameter>
								<parameterid>High Gain(dB)</parameterid>
								<name>High Gain(dB)</name>
								<valuemin>-20</valuemin>
								<valuemax>20</valuemax>
								<value>0</value>
							</parameter>
						</effect>
					</filter>
					<filter>
						<effect>
							<name>Audio Levels</name>
							<effectid>audiolevels</effectid>
							<effectcategory>audiolevels</effectcategory>
							<effecttype>audiolevels</effecttype>
							<mediatype>audio</mediatype>
							<parameter>
								<name>Level</name>
								<parameterid>level</parameterid>
								<valuemin>0</valuemin>
								<valuemax>3.98109</valuemax>
								<value>1.58489</value>
							</parameter>
						</effect>
					</filter>
					<filter>
						<effect>
							<name>Audio Pan</name>
							<effectid>audiopan</effectid>
							<effectcategory>audiopan</effectcategory>
							<effecttype>audiopan</effecttype>
							<mediatype>audio</mediatype>
							<parameter>
								<name>Pan</name>
								<parameterid>pan</parameterid>
								<valuemin>-1</valuemin>
								<valuemax>1</valuemax>
								<value>0</value>
							</parameter>
						</effect>
					</filter>
					<sourcetrack>
						<mediatype>audio</mediatype>
						<trackindex>2</trackindex>
					</sourcetrack>
					<link>
						<linkclipref>msub200012-0409d1k1013 7</linkclipref>
						<mediatype>audio</mediatype>
						<trackindex>2</trackindex>
						<clipindex>133</clipindex>
					</link>
				</clipitem>
				<transitionitem id="624536068 ">
					<rate>
						<ntsc>FALSE</ntsc>
						<timebase>25</timebase>
					</rate>
					<start>22937</start>
					<end>22939</end>
					<alignment>center</alignment>
					<effect>
						<name>Cross Fade (+3dB) Copy</name>
						<effecttype>transition</effecttype>
						<mediatype>audio</mediatype>
					</effect>
				</transitionitem>
				<transitionitem id="624535660 ">
					<rate>
						<ntsc>FALSE</ntsc>
						<timebase>25</timebase>
					</rate>
					<start>24637</start>
					<end>24643</end>
					<alignment>start-black</alignment>
					<effect>
						<name>Cross Fade (+3dB) Copy</name>
						<effecttype>transition</effecttype>
						<mediatype>audio</mediatype>
					</effect>
				</transitionitem>
				<clipitem id="msub200012-0409d3k1004 6">
					<name>msub200012-0409d3k1004</name>
					<duration>6856</duration>
					<rate>
						<ntsc>FALSE</ntsc>
						<timebase>25</timebase>
					</rate>
					<in>2890</in>
					<out>2938</out>
					<start>-1</start>
					<end>-1</end>
					<subframeoffset>0</subframeoffset>
					<masterclipid>msub200012-0409d3k1004 1</masterclipid>
					<syncoffset>0</syncoffset>
					<logginginfo>
						<description>msub200012-0409d3k1004</description>
						<scene/>
						<shottake/>
						<lognote/>
						<good>FALSE</good>
					</logginginfo>
					<labels>
						<label>Good Take</label>
						<label2/>
					</labels>
					<comments>
						<mastercomment1>RÅSTOFF. BR_FINFREDAG_MSUA_OPRO</mastercomment1>
						<mastercomment2/>
						<mastercomment3/>
						<mastercomment4/>
					</comments>
					<file id="msub200012-0409d3k1004 2"/>
					<filter>
						<effect>
							<name>Audio Levels</name>
							<effectid>audiolevels</effectid>
							<effectcategory>audiolevels</effectcategory>
							<effecttype>audiolevels</effecttype>
							<mediatype>audio</mediatype>
							<parameter>
								<name>Level</name>
								<parameterid>level</parameterid>
								<valuemin>0</valuemin>
								<valuemax>3.98109</valuemax>
								<keyframe>
									<when>205.589</when>
									<value>3.16228</value>
								</keyframe>
								<keyframe>
									<when>208.893</when>
									<value>1.77828</value>
								</keyframe>
								<interpolation>
									<name>FCPCurve</name>
								</interpolation>
								<value>2.51189</value>
							</parameter>
						</effect>
					</filter>
					<filter>
						<effect>
							<name>Audio Pan</name>
							<effectid>audiopan</effectid>
							<effectcategory>audiopan</effectcategory>
							<effecttype>audiopan</effecttype>
							<mediatype>audio</mediatype>
							<parameter>
								<name>Pan</name>
								<parameterid>pan</parameterid>
								<valuemin>-1</valuemin>
								<valuemax>1</valuemax>
								<value>0</value>
							</parameter>
						</effect>
					</filter>
					<sourcetrack>
						<mediatype>audio</mediatype>
						<trackindex>2</trackindex>
					</sourcetrack>
				</clipitem>
				<transitionitem id="624534028 ">
					<rate>
						<ntsc>FALSE</ntsc>
						<timebase>25</timebase>
					</rate>
					<start>24683</start>
					<end>24685</end>
					<alignment>center</alignment>
					<effect>
						<name>Cross Fade (+3dB) Copy</name>
						<effecttype>transition</effecttype>
						<mediatype>audio</mediatype>
					</effect>
				</transitionitem>
				<clipitem id="msub200012-0409d3k1004 7">
					<name>msub200012-0409d3k1004</name>
					<duration>6856</duration>
					<rate>
						<ntsc>FALSE</ntsc>
						<timebase>25</timebase>
					</rate>
					<in>3002</in>
					<out>3145</out>
					<start>-1</start>
					<end>-1</end>
					<subframeoffset>0</subframeoffset>
					<masterclipid>msub200012-0409d3k1004 1</masterclipid>
					<syncoffset>0</syncoffset>
					<logginginfo>
						<description>msub200012-0409d3k1004</description>
						<scene/>
						<shottake/>
						<lognote/>
						<good>FALSE</good>
					</logginginfo>
					<labels>
						<label>Good Take</label>
						<label2/>
					</labels>
					<comments>
						<mastercomment1>RÅSTOFF. BR_FINFREDAG_MSUA_OPRO</mastercomment1>
						<mastercomment2/>
						<mastercomment3/>
						<mastercomment4/>
					</comments>
					<file id="msub200012-0409d3k1004 2"/>
					<filter>
						<start>-1</start>
						<end>-1</end>
						<effect>
							<name>3 Band Equalizer - Kristine</name>
							<effecttype>filter</effecttype>
							<mediatype>audio</mediatype>
							<parameter>
								<parameterid>Low Frequency</parameterid>
								<name>Low Frequency</name>
								<valuemin>80</valuemin>
								<valuemax>2000</valuemax>
								<value>80</value>
							</parameter>
							<parameter>
								<parameterid>Low Gain(dB)</parameterid>
								<name>Low Gain(dB)</name>
								<valuemin>-20</valuemin>
								<valuemax>20</valuemax>
								<value>-4</value>
							</parameter>
							<parameter>
								<parameterid>Mid Frequency</parameterid>
								<name>Mid Frequency</name>
								<valuemin>400</valuemin>
								<valuemax>8000</valuemax>
								<value>3602</value>
							</parameter>
							<parameter>
								<parameterid>Mid Gain(dB)</parameterid>
								<name>Mid Gain(dB)</name>
								<valuemin>-20</valuemin>
								<valuemax>20</valuemax>
								<value>3</value>
							</parameter>
							<parameter>
								<parameterid>High Frequency</parameterid>
								<name>High Frequency</name>
								<valuemin>5000</valuemin>
								<valuemax>20000</valuemax>
								<value>10354</value>
							</parameter>
							<parameter>
								<parameterid>High Gain(dB)</parameterid>
								<name>High Gain(dB)</name>
								<valuemin>-20</valuemin>
								<valuemax>20</valuemax>
								<value>0</value>
							</parameter>
						</effect>
					</filter>
					<filter>
						<effect>
							<name>Audio Levels</name>
							<effectid>audiolevels</effectid>
							<effectcategory>audiolevels</effectcategory>
							<effecttype>audiolevels</effecttype>
							<mediatype>audio</mediatype>
							<parameter>
								<name>Level</name>
								<parameterid>level</parameterid>
								<valuemin>0</valuemin>
								<valuemax>3.98109</valuemax>
								<keyframe>
									<when>205.589</when>
									<value>3.16228</value>
								</keyframe>
								<keyframe>
									<when>208.893</when>
									<value>1.99526</value>
								</keyframe>
								<keyframe>
									<when>3102.14</when>
									<value>1.99526</value>
								</keyframe>
								<keyframe>
									<when>3105.86</when>
									<value>1.58489</value>
								</keyframe>
								<keyframe>
									<when>4364.39</when>
									<value>1.99526</value>
								</keyframe>
								<keyframe>
									<when>4392.14</when>
									<value>3.98107</value>
								</keyframe>
								<keyframe>
									<when>5048.89</when>
									<value>3.98107</value>
								</keyframe>
								<keyframe>
									<when>5066.07</when>
									<value>3.16228</value>
								</keyframe>
								<interpolation>
									<name>FCPCurve</name>
								</interpolation>
								<value>2.51189</value>
							</parameter>
						</effect>
					</filter>
					<filter>
						<effect>
							<name>Audio Pan</name>
							<effectid>audiopan</effectid>
							<effectcategory>audiopan</effectcategory>
							<effecttype>audiopan</effecttype>
							<mediatype>audio</mediatype>
							<parameter>
								<name>Pan</name>
								<parameterid>pan</parameterid>
								<valuemin>-1</valuemin>
								<valuemax>1</valuemax>
								<value>0</value>
							</parameter>
						</effect>
					</filter>
					<sourcetrack>
						<mediatype>audio</mediatype>
						<trackindex>2</trackindex>
					</sourcetrack>
				</clipitem>
				<transitionitem id="624532192 ">
					<rate>
						<ntsc>FALSE</ntsc>
						<timebase>25</timebase>
					</rate>
					<start>24820</start>
					<end>24826</end>
					<alignment>center</alignment>
					<effect>
						<name>Cross Fade (+3dB) Copy</name>
						<effecttype>transition</effecttype>
						<mediatype>audio</mediatype>
					</effect>
				</transitionitem>
				<clipitem id="msub200012-0409d3k1004 8">
					<name>msub200012-0409d3k1004</name>
					<duration>6856</duration>
					<rate>
						<ntsc>FALSE</ntsc>
						<timebase>25</timebase>
					</rate>
					<in>3152</in>
					<out>3181</out>
					<start>-1</start>
					<end>-1</end>
					<subframeoffset>0</subframeoffset>
					<masterclipid>msub200012-0409d3k1004 1</masterclipid>
					<syncoffset>0</syncoffset>
					<logginginfo>
						<description>msub200012-0409d3k1004</description>
						<scene/>
						<shottake/>
						<lognote/>
						<good>FALSE</good>
					</logginginfo>
					<labels>
						<label>Good Take</label>
						<label2/>
					</labels>
					<comments>
						<mastercomment1>RÅSTOFF. BR_FINFREDAG_MSUA_OPRO</mastercomment1>
						<mastercomment2/>
						<mastercomment3/>
						<mastercomment4/>
					</comments>
					<file id="msub200012-0409d3k1004 2"/>
					<filter>
						<start>-1</start>
						<end>-1</end>
						<effect>
							<name>3 Band Equalizer - Kristine</name>
							<effecttype>filter</effecttype>
							<mediatype>audio</mediatype>
							<parameter>
								<parameterid>Low Frequency</parameterid>
								<name>Low Frequency</name>
								<valuemin>80</valuemin>
								<valuemax>2000</valuemax>
								<value>80</value>
							</parameter>
							<parameter>
								<parameterid>Low Gain(dB)</parameterid>
								<name>Low Gain(dB)</name>
								<valuemin>-20</valuemin>
								<valuemax>20</valuemax>
								<value>-4</value>
							</parameter>
							<parameter>
								<parameterid>Mid Frequency</parameterid>
								<name>Mid Frequency</name>
								<valuemin>400</valuemin>
								<valuemax>8000</valuemax>
								<value>3602</value>
							</parameter>
							<parameter>
								<parameterid>Mid Gain(dB)</parameterid>
								<name>Mid Gain(dB)</name>
								<valuemin>-20</valuemin>
								<valuemax>20</valuemax>
								<value>3</value>
							</parameter>
							<parameter>
								<parameterid>High Frequency</parameterid>
								<name>High Frequency</name>
								<valuemin>5000</valuemin>
								<valuemax>20000</valuemax>
								<value>10354</value>
							</parameter>
							<parameter>
								<parameterid>High Gain(dB)</parameterid>
								<name>High Gain(dB)</name>
								<valuemin>-20</valuemin>
								<valuemax>20</valuemax>
								<value>0</value>
							</parameter>
						</effect>
					</filter>
					<filter>
						<effect>
							<name>Audio Levels</name>
							<effectid>audiolevels</effectid>
							<effectcategory>audiolevels</effectcategory>
							<effecttype>audiolevels</effecttype>
							<mediatype>audio</mediatype>
							<parameter>
								<name>Level</name>
								<parameterid>level</parameterid>
								<valuemin>0</valuemin>
								<valuemax>3.98109</valuemax>
								<keyframe>
									<when>205.589</when>
									<value>3.16228</value>
								</keyframe>
								<keyframe>
									<when>208.893</when>
									<value>1.77828</value>
								</keyframe>
								<keyframe>
									<when>4364.39</when>
									<value>1.77828</value>
								</keyframe>
								<keyframe>
									<when>4392.14</when>
									<value>3.98107</value>
								</keyframe>
								<keyframe>
									<when>5048.89</when>
									<value>3.98107</value>
								</keyframe>
								<keyframe>
									<when>5066.07</when>
									<value>3.16228</value>
								</keyframe>
								<interpolation>
									<name>FCPCurve</name>
								</interpolation>
								<value>2.51189</value>
							</parameter>
						</effect>
					</filter>
					<filter>
						<effect>
							<name>Audio Pan</name>
							<effectid>audiopan</effectid>
							<effectcategory>audiopan</effectcategory>
							<effecttype>audiopan</effecttype>
							<mediatype>audio</mediatype>
							<parameter>
								<name>Pan</name>
								<parameterid>pan</parameterid>
								<valuemin>-1</valuemin>
								<valuemax>1</valuemax>
								<value>0</value>
							</parameter>
						</effect>
					</filter>
					<sourcetrack>
						<mediatype>audio</mediatype>
						<trackindex>2</trackindex>
					</sourcetrack>
				</clipitem>
				<transitionitem id="624519544 ">
					<rate>
						<ntsc>FALSE</ntsc>
						<timebase>25</timebase>
					</rate>
					<start>24843</start>
					<end>24849</end>
					<alignment>center</alignment>
					<effect>
						<name>Cross Fade (+3dB) Copy</name>
						<effecttype>transition</effecttype>
						<mediatype>audio</mediatype>
					</effect>
				</transitionitem>
				<clipitem id="msub200012-0409d3k1004 9">
					<name>msub200012-0409d3k1004</name>
					<duration>6856</duration>
					<rate>
						<ntsc>FALSE</ntsc>
						<timebase>25</timebase>
					</rate>
					<in>3196</in>
					<out>3266</out>
					<start>-1</start>
					<end>-1</end>
					<subframeoffset>0</subframeoffset>
					<masterclipid>msub200012-0409d3k1004 1</masterclipid>
					<syncoffset>0</syncoffset>
					<logginginfo>
						<description>msub200012-0409d3k1004</description>
						<scene/>
						<shottake/>
						<lognote/>
						<good>FALSE</good>
					</logginginfo>
					<labels>
						<label>Good Take</label>
						<label2/>
					</labels>
					<comments>
						<mastercomment1>RÅSTOFF. BR_FINFREDAG_MSUA_OPRO</mastercomment1>
						<mastercomment2/>
						<mastercomment3/>
						<mastercomment4/>
					</comments>
					<file id="msub200012-0409d3k1004 2"/>
					<filter>
						<start>-1</start>
						<end>-1</end>
						<effect>
							<name>3 Band Equalizer - Kristine</name>
							<effecttype>filter</effecttype>
							<mediatype>audio</mediatype>
							<parameter>
								<parameterid>Low Frequency</parameterid>
								<name>Low Frequency</name>
								<valuemin>80</valuemin>
								<valuemax>2000</valuemax>
								<value>80</value>
							</parameter>
							<parameter>
								<parameterid>Low Gain(dB)</parameterid>
								<name>Low Gain(dB)</name>
								<valuemin>-20</valuemin>
								<valuemax>20</valuemax>
								<value>-4</value>
							</parameter>
							<parameter>
								<parameterid>Mid Frequency</parameterid>
								<name>Mid Frequency</name>
								<valuemin>400</valuemin>
								<valuemax>8000</valuemax>
								<value>3602</value>
							</parameter>
							<parameter>
								<parameterid>Mid Gain(dB)</parameterid>
								<name>Mid Gain(dB)</name>
								<valuemin>-20</valuemin>
								<valuemax>20</valuemax>
								<value>3</value>
							</parameter>
							<parameter>
								<parameterid>High Frequency</parameterid>
								<name>High Frequency</name>
								<valuemin>5000</valuemin>
								<valuemax>20000</valuemax>
								<value>10354</value>
							</parameter>
							<parameter>
								<parameterid>High Gain(dB)</parameterid>
								<name>High Gain(dB)</name>
								<valuemin>-20</valuemin>
								<valuemax>20</valuemax>
								<value>0</value>
							</parameter>
						</effect>
					</filter>
					<filter>
						<effect>
							<name>Audio Levels</name>
							<effectid>audiolevels</effectid>
							<effectcategory>audiolevels</effectcategory>
							<effecttype>audiolevels</effecttype>
							<mediatype>audio</mediatype>
							<parameter>
								<name>Level</name>
								<parameterid>level</parameterid>
								<valuemin>0</valuemin>
								<valuemax>3.98109</valuemax>
								<keyframe>
									<when>205.589</when>
									<value>3.16228</value>
								</keyframe>
								<keyframe>
									<when>208.893</when>
									<value>1.25893</value>
								</keyframe>
								<keyframe>
									<when>4364.39</when>
									<value>1.25893</value>
								</keyframe>
								<keyframe>
									<when>4392.14</when>
									<value>3.98107</value>
								</keyframe>
								<keyframe>
									<when>5048.89</when>
									<value>3.98107</value>
								</keyframe>
								<keyframe>
									<when>5066.07</when>
									<value>3.16228</value>
								</keyframe>
								<interpolation>
									<name>FCPCurve</name>
								</interpolation>
								<value>2.51189</value>
							</parameter>
						</effect>
					</filter>
					<filter>
						<effect>
							<name>Audio Pan</name>
							<effectid>audiopan</effectid>
							<effectcategory>audiopan</effectcategory>
							<effecttype>audiopan</effecttype>
							<mediatype>audio</mediatype>
							<parameter>
								<name>Pan</name>
								<parameterid>pan</parameterid>
								<valuemin>-1</valuemin>
								<valuemax>1</valuemax>
								<value>0</value>
							</parameter>
						</effect>
					</filter>
					<sourcetrack>
						<mediatype>audio</mediatype>
						<trackindex>2</trackindex>
					</sourcetrack>
				</clipitem>
				<transitionitem id="622724552 ">
					<rate>
						<ntsc>FALSE</ntsc>
						<timebase>25</timebase>
					</rate>
					<start>24907</start>
					<end>24913</end>
					<alignment>center</alignment>
					<effect>
						<name>Cross Fade (+3dB) Copy</name>
						<effecttype>transition</effecttype>
						<mediatype>audio</mediatype>
					</effect>
				</transitionitem>
				<clipitem id="msub200012-0409d3k1004 10">
					<name>msub200012-0409d3k1004</name>
					<duration>6856</duration>
					<rate>
						<ntsc>FALSE</ntsc>
						<timebase>25</timebase>
					</rate>
					<in>3279</in>
					<out>3307</out>
					<start>-1</start>
					<end>-1</end>
					<subframeoffset>0</subframeoffset>
					<masterclipid>msub200012-0409d3k1004 1</masterclipid>
					<syncoffset>0</syncoffset>
					<logginginfo>
						<description>msub200012-0409d3k1004</description>
						<scene/>
						<shottake/>
						<lognote/>
						<good>FALSE</good>
					</logginginfo>
					<labels>
						<label>Good Take</label>
						<label2/>
					</labels>
					<comments>
						<mastercomment1>RÅSTOFF. BR_FINFREDAG_MSUA_OPRO</mastercomment1>
						<mastercomment2/>
						<mastercomment3/>
						<mastercomment4/>
					</comments>
					<file id="msub200012-0409d3k1004 2"/>
					<filter>
						<start>-1</start>
						<end>-1</end>
						<effect>
							<name>3 Band Equalizer - Kristine</name>
							<effecttype>filter</effecttype>
							<mediatype>audio</mediatype>
							<parameter>
								<parameterid>Low Frequency</parameterid>
								<name>Low Frequency</name>
								<valuemin>80</valuemin>
								<valuemax>2000</valuemax>
								<value>80</value>
							</parameter>
							<parameter>
								<parameterid>Low Gain(dB)</parameterid>
								<name>Low Gain(dB)</name>
								<valuemin>-20</valuemin>
								<valuemax>20</valuemax>
								<value>-4</value>
							</parameter>
							<parameter>
								<parameterid>Mid Frequency</parameterid>
								<name>Mid Frequency</name>
								<valuemin>400</valuemin>
								<valuemax>8000</valuemax>
								<value>3602</value>
							</parameter>
							<parameter>
								<parameterid>Mid Gain(dB)</parameterid>
								<name>Mid Gain(dB)</name>
								<valuemin>-20</valuemin>
								<valuemax>20</valuemax>
								<value>3</value>
							</parameter>
							<parameter>
								<parameterid>High Frequency</parameterid>
								<name>High Frequency</name>
								<valuemin>5000</valuemin>
								<valuemax>20000</valuemax>
								<value>10354</value>
							</parameter>
							<parameter>
								<parameterid>High Gain(dB)</parameterid>
								<name>High Gain(dB)</name>
								<valuemin>-20</valuemin>
								<valuemax>20</valuemax>
								<value>0</value>
							</parameter>
						</effect>
					</filter>
					<filter>
						<effect>
							<name>Audio Levels</name>
							<effectid>audiolevels</effectid>
							<effectcategory>audiolevels</effectcategory>
							<effecttype>audiolevels</effecttype>
							<mediatype>audio</mediatype>
							<parameter>
								<name>Level</name>
								<parameterid>level</parameterid>
								<valuemin>0</valuemin>
								<valuemax>3.98109</valuemax>
								<keyframe>
									<when>205.589</when>
									<value>3.16228</value>
								</keyframe>
								<keyframe>
									<when>208.893</when>
									<value>1.99526</value>
								</keyframe>
								<keyframe>
									<when>4364.39</when>
									<value>1.99526</value>
								</keyframe>
								<keyframe>
									<when>4392.14</when>
									<value>3.98107</value>
								</keyframe>
								<keyframe>
									<when>5048.89</when>
									<value>3.98107</value>
								</keyframe>
								<keyframe>
									<when>5066.07</when>
									<value>3.16228</value>
								</keyframe>
								<interpolation>
									<name>FCPCurve</name>
								</interpolation>
								<value>2.51189</value>
							</parameter>
						</effect>
					</filter>
					<filter>
						<effect>
							<name>Audio Pan</name>
							<effectid>audiopan</effectid>
							<effectcategory>audiopan</effectcategory>
							<effecttype>audiopan</effecttype>
							<mediatype>audio</mediatype>
							<parameter>
								<name>Pan</name>
								<parameterid>pan</parameterid>
								<valuemin>-1</valuemin>
								<valuemax>1</valuemax>
								<value>0</value>
							</parameter>
						</effect>
					</filter>
					<sourcetrack>
						<mediatype>audio</mediatype>
						<trackindex>2</trackindex>
					</sourcetrack>
				</clipitem>
				<transitionitem id="622726456 ">
					<rate>
						<ntsc>FALSE</ntsc>
						<timebase>25</timebase>
					</rate>
					<start>24929</start>
					<end>24935</end>
					<alignment>center</alignment>
					<effect>
						<name>Cross Fade (+3dB) Copy</name>
						<effecttype>transition</effecttype>
						<mediatype>audio</mediatype>
					</effect>
				</transitionitem>
				<clipitem id="msub200012-0409d3k1004 11">
					<name>msub200012-0409d3k1004</name>
					<duration>6856</duration>
					<rate>
						<ntsc>FALSE</ntsc>
						<timebase>25</timebase>
					</rate>
					<in>3311</in>
					<out>3335</out>
					<start>-1</start>
					<end>-1</end>
					<subframeoffset>0</subframeoffset>
					<masterclipid>msub200012-0409d3k1004 1</masterclipid>
					<syncoffset>0</syncoffset>
					<logginginfo>
						<description>msub200012-0409d3k1004</description>
						<scene/>
						<shottake/>
						<lognote/>
						<good>FALSE</good>
					</logginginfo>
					<labels>
						<label>Good Take</label>
						<label2/>
					</labels>
					<comments>
						<mastercomment1>RÅSTOFF. BR_FINFREDAG_MSUA_OPRO</mastercomment1>
						<mastercomment2/>
						<mastercomment3/>
						<mastercomment4/>
					</comments>
					<file id="msub200012-0409d3k1004 2"/>
					<filter>
						<start>-1</start>
						<end>-1</end>
						<effect>
							<name>3 Band Equalizer - Kristine</name>
							<effecttype>filter</effecttype>
							<mediatype>audio</mediatype>
							<parameter>
								<parameterid>Low Frequency</parameterid>
								<name>Low Frequency</name>
								<valuemin>80</valuemin>
								<valuemax>2000</valuemax>
								<value>80</value>
							</parameter>
							<parameter>
								<parameterid>Low Gain(dB)</parameterid>
								<name>Low Gain(dB)</name>
								<valuemin>-20</valuemin>
								<valuemax>20</valuemax>
								<value>-4</value>
							</parameter>
							<parameter>
								<parameterid>Mid Frequency</parameterid>
								<name>Mid Frequency</name>
								<valuemin>400</valuemin>
								<valuemax>8000</valuemax>
								<value>3602</value>
							</parameter>
							<parameter>
								<parameterid>Mid Gain(dB)</parameterid>
								<name>Mid Gain(dB)</name>
								<valuemin>-20</valuemin>
								<valuemax>20</valuemax>
								<value>3</value>
							</parameter>
							<parameter>
								<parameterid>High Frequency</parameterid>
								<name>High Frequency</name>
								<valuemin>5000</valuemin>
								<valuemax>20000</valuemax>
								<value>10354</value>
							</parameter>
							<parameter>
								<parameterid>High Gain(dB)</parameterid>
								<name>High Gain(dB)</name>
								<valuemin>-20</valuemin>
								<valuemax>20</valuemax>
								<value>0</value>
							</parameter>
						</effect>
					</filter>
					<filter>
						<effect>
							<name>Audio Levels</name>
							<effectid>audiolevels</effectid>
							<effectcategory>audiolevels</effectcategory>
							<effecttype>audiolevels</effecttype>
							<mediatype>audio</mediatype>
							<parameter>
								<name>Level</name>
								<parameterid>level</parameterid>
								<valuemin>0</valuemin>
								<valuemax>3.98109</valuemax>
								<keyframe>
									<when>205.589</when>
									<value>3.16228</value>
								</keyframe>
								<keyframe>
									<when>208.893</when>
									<value>1.77828</value>
								</keyframe>
								<keyframe>
									<when>4364.39</when>
									<value>1.77828</value>
								</keyframe>
								<keyframe>
									<when>4392.14</when>
									<value>3.98107</value>
								</keyframe>
								<keyframe>
									<when>5048.89</when>
									<value>3.98107</value>
								</keyframe>
								<keyframe>
									<when>5066.07</when>
									<value>3.16228</value>
								</keyframe>
								<interpolation>
									<name>FCPCurve</name>
								</interpolation>
								<value>2.51189</value>
							</parameter>
						</effect>
					</filter>
					<filter>
						<effect>
							<name>Audio Pan</name>
							<effectid>audiopan</effectid>
							<effectcategory>audiopan</effectcategory>
							<effecttype>audiopan</effecttype>
							<mediatype>audio</mediatype>
							<parameter>
								<name>Pan</name>
								<parameterid>pan</parameterid>
								<valuemin>-1</valuemin>
								<valuemax>1</valuemax>
								<value>0</value>
							</parameter>
						</effect>
					</filter>
					<sourcetrack>
						<mediatype>audio</mediatype>
						<trackindex>2</trackindex>
					</sourcetrack>
				</clipitem>
				<transitionitem id="622730196 ">
					<rate>
						<ntsc>FALSE</ntsc>
						<timebase>25</timebase>
					</rate>
					<start>24947</start>
					<end>24953</end>
					<alignment>center</alignment>
					<effect>
						<name>Cross Fade (+3dB) Copy</name>
						<effecttype>transition</effecttype>
						<mediatype>audio</mediatype>
					</effect>
				</transitionitem>
				<clipitem id="msub200012-0409d3k1004 12">
					<name>msub200012-0409d3k1004</name>
					<duration>6856</duration>
					<rate>
						<ntsc>FALSE</ntsc>
						<timebase>25</timebase>
					</rate>
					<in>3340</in>
					<out>3398</out>
					<start>-1</start>
					<end>-1</end>
					<subframeoffset>0</subframeoffset>
					<masterclipid>msub200012-0409d3k1004 1</masterclipid>
					<syncoffset>0</syncoffset>
					<logginginfo>
						<description>msub200012-0409d3k1004</description>
						<scene/>
						<shottake/>
						<lognote/>
						<good>FALSE</good>
					</logginginfo>
					<labels>
						<label>Good Take</label>
						<label2/>
					</labels>
					<comments>
						<mastercomment1>RÅSTOFF. BR_FINFREDAG_MSUA_OPRO</mastercomment1>
						<mastercomment2/>
						<mastercomment3/>
						<mastercomment4/>
					</comments>
					<file id="msub200012-0409d3k1004 2"/>
					<filter>
						<start>-1</start>
						<end>-1</end>
						<effect>
							<name>3 Band Equalizer - Kristine</name>
							<effecttype>filter</effecttype>
							<mediatype>audio</mediatype>
							<parameter>
								<parameterid>Low Frequency</parameterid>
								<name>Low Frequency</name>
								<valuemin>80</valuemin>
								<valuemax>2000</valuemax>
								<value>80</value>
							</parameter>
							<parameter>
								<parameterid>Low Gain(dB)</parameterid>
								<name>Low Gain(dB)</name>
								<valuemin>-20</valuemin>
								<valuemax>20</valuemax>
								<value>-4</value>
							</parameter>
							<parameter>
								<parameterid>Mid Frequency</parameterid>
								<name>Mid Frequency</name>
								<valuemin>400</valuemin>
								<valuemax>8000</valuemax>
								<value>3602</value>
							</parameter>
							<parameter>
								<parameterid>Mid Gain(dB)</parameterid>
								<name>Mid Gain(dB)</name>
								<valuemin>-20</valuemin>
								<valuemax>20</valuemax>
								<value>3</value>
							</parameter>
							<parameter>
								<parameterid>High Frequency</parameterid>
								<name>High Frequency</name>
								<valuemin>5000</valuemin>
								<valuemax>20000</valuemax>
								<value>10354</value>
							</parameter>
							<parameter>
								<parameterid>High Gain(dB)</parameterid>
								<name>High Gain(dB)</name>
								<valuemin>-20</valuemin>
								<valuemax>20</valuemax>
								<value>0</value>
							</parameter>
						</effect>
					</filter>
					<filter>
						<effect>
							<name>Audio Levels</name>
							<effectid>audiolevels</effectid>
							<effectcategory>audiolevels</effectcategory>
							<effecttype>audiolevels</effecttype>
							<mediatype>audio</mediatype>
							<parameter>
								<name>Level</name>
								<parameterid>level</parameterid>
								<valuemin>0</valuemin>
								<valuemax>3.98109</valuemax>
								<keyframe>
									<when>205.589</when>
									<value>3.16228</value>
								</keyframe>
								<keyframe>
									<when>208.893</when>
									<value>1.77828</value>
								</keyframe>
								<keyframe>
									<when>4364.39</when>
									<value>1.77828</value>
								</keyframe>
								<keyframe>
									<when>4392.14</when>
									<value>3.98107</value>
								</keyframe>
								<keyframe>
									<when>5048.89</when>
									<value>3.98107</value>
								</keyframe>
								<keyframe>
									<when>5066.07</when>
									<value>3.16228</value>
								</keyframe>
								<interpolation>
									<name>FCPCurve</name>
								</interpolation>
								<value>2.51189</value>
							</parameter>
						</effect>
					</filter>
					<filter>
						<effect>
							<name>Audio Pan</name>
							<effectid>audiopan</effectid>
							<effectcategory>audiopan</effectcategory>
							<effecttype>audiopan</effecttype>
							<mediatype>audio</mediatype>
							<parameter>
								<name>Pan</name>
								<parameterid>pan</parameterid>
								<valuemin>-1</valuemin>
								<valuemax>1</valuemax>
								<value>0</value>
							</parameter>
						</effect>
					</filter>
					<sourcetrack>
						<mediatype>audio</mediatype>
						<trackindex>2</trackindex>
					</sourcetrack>
				</clipitem>
				<transitionitem id="624902280 ">
					<rate>
						<ntsc>FALSE</ntsc>
						<timebase>25</timebase>
					</rate>
					<start>24999</start>
					<end>25005</end>
					<alignment>center</alignment>
					<effect>
						<name>Cross Fade (+3dB) Copy</name>
						<effecttype>transition</effecttype>
						<mediatype>audio</mediatype>
					</effect>
				</transitionitem>
				<clipitem id="msub200012-0409d3k1004 13">
					<name>msub200012-0409d3k1004</name>
					<duration>6856</duration>
					<rate>
						<ntsc>FALSE</ntsc>
						<timebase>25</timebase>
					</rate>
					<in>3399</in>
					<out>3430</out>
					<start>-1</start>
					<end>-1</end>
					<subframeoffset>0</subframeoffset>
					<masterclipid>msub200012-0409d3k1004 1</masterclipid>
					<syncoffset>0</syncoffset>
					<logginginfo>
						<description>msub200012-0409d3k1004</description>
						<scene/>
						<shottake/>
						<lognote/>
						<good>FALSE</good>
					</logginginfo>
					<labels>
						<label>Good Take</label>
						<label2/>
					</labels>
					<comments>
						<mastercomment1>RÅSTOFF. BR_FINFREDAG_MSUA_OPRO</mastercomment1>
						<mastercomment2/>
						<mastercomment3/>
						<mastercomment4/>
					</comments>
					<file id="msub200012-0409d3k1004 2"/>
					<filter>
						<start>-1</start>
						<end>-1</end>
						<effect>
							<name>3 Band Equalizer - Kristine</name>
							<effecttype>filter</effecttype>
							<mediatype>audio</mediatype>
							<parameter>
								<parameterid>Low Frequency</parameterid>
								<name>Low Frequency</name>
								<valuemin>80</valuemin>
								<valuemax>2000</valuemax>
								<value>80</value>
							</parameter>
							<parameter>
								<parameterid>Low Gain(dB)</parameterid>
								<name>Low Gain(dB)</name>
								<valuemin>-20</valuemin>
								<valuemax>20</valuemax>
								<value>-4</value>
							</parameter>
							<parameter>
								<parameterid>Mid Frequency</parameterid>
								<name>Mid Frequency</name>
								<valuemin>400</valuemin>
								<valuemax>8000</valuemax>
								<value>3602</value>
							</parameter>
							<parameter>
								<parameterid>Mid Gain(dB)</parameterid>
								<name>Mid Gain(dB)</name>
								<valuemin>-20</valuemin>
								<valuemax>20</valuemax>
								<value>3</value>
							</parameter>
							<parameter>
								<parameterid>High Frequency</parameterid>
								<name>High Frequency</name>
								<valuemin>5000</valuemin>
								<valuemax>20000</valuemax>
								<value>10354</value>
							</parameter>
							<parameter>
								<parameterid>High Gain(dB)</parameterid>
								<name>High Gain(dB)</name>
								<valuemin>-20</valuemin>
								<valuemax>20</valuemax>
								<value>0</value>
							</parameter>
						</effect>
					</filter>
					<filter>
						<effect>
							<name>Audio Levels</name>
							<effectid>audiolevels</effectid>
							<effectcategory>audiolevels</effectcategory>
							<effecttype>audiolevels</effecttype>
							<mediatype>audio</mediatype>
							<parameter>
								<name>Level</name>
								<parameterid>level</parameterid>
								<valuemin>0</valuemin>
								<valuemax>3.98109</valuemax>
								<keyframe>
									<when>205.589</when>
									<value>3.16228</value>
								</keyframe>
								<keyframe>
									<when>208.893</when>
									<value>1.41254</value>
								</keyframe>
								<keyframe>
									<when>4364.39</when>
									<value>1.41254</value>
								</keyframe>
								<keyframe>
									<when>4392.14</when>
									<value>3.98107</value>
								</keyframe>
								<keyframe>
									<when>5048.89</when>
									<value>3.98107</value>
								</keyframe>
								<keyframe>
									<when>5066.07</when>
									<value>3.16228</value>
								</keyframe>
								<interpolation>
									<name>FCPCurve</name>
								</interpolation>
								<value>2.51189</value>
							</parameter>
						</effect>
					</filter>
					<filter>
						<effect>
							<name>Audio Pan</name>
							<effectid>audiopan</effectid>
							<effectcategory>audiopan</effectcategory>
							<effecttype>audiopan</effecttype>
							<mediatype>audio</mediatype>
							<parameter>
								<name>Pan</name>
								<parameterid>pan</parameterid>
								<valuemin>-1</valuemin>
								<valuemax>1</valuemax>
								<value>0</value>
							</parameter>
						</effect>
					</filter>
					<sourcetrack>
						<mediatype>audio</mediatype>
						<trackindex>2</trackindex>
					</sourcetrack>
				</clipitem>
				<transitionitem id="624877528 ">
					<rate>
						<ntsc>FALSE</ntsc>
						<timebase>25</timebase>
					</rate>
					<start>25024</start>
					<end>25030</end>
					<alignment>center</alignment>
					<effect>
						<name>Cross Fade (+3dB) Copy</name>
						<effecttype>transition</effecttype>
						<mediatype>audio</mediatype>
					</effect>
				</transitionitem>
				<clipitem id="msub200012-0409d3k1004 14">
					<name>msub200012-0409d3k1004</name>
					<duration>6856</duration>
					<rate>
						<ntsc>FALSE</ntsc>
						<timebase>25</timebase>
					</rate>
					<in>3431</in>
					<out>3660</out>
					<start>-1</start>
					<end>-1</end>
					<subframeoffset>0</subframeoffset>
					<enabled>TRUE</enabled>
					<masterclipid>msub200012-0409d3k1004 1</masterclipid>
					<syncoffset>0</syncoffset>
					<logginginfo>
						<description>msub200012-0409d3k1004</description>
						<scene/>
						<shottake/>
						<lognote/>
						<good>FALSE</good>
					</logginginfo>
					<labels>
						<label>Good Take</label>
						<label2/>
					</labels>
					<comments>
						<mastercomment1>RÅSTOFF. BR_FINFREDAG_MSUA_OPRO</mastercomment1>
						<mastercomment2/>
						<mastercomment3/>
						<mastercomment4/>
					</comments>
					<file id="msub200012-0409d3k1004 2"/>
					<filter>
						<start>-1</start>
						<end>-1</end>
						<effect>
							<name>3 Band Equalizer - Kristine</name>
							<effecttype>filter</effecttype>
							<mediatype>audio</mediatype>
							<parameter>
								<parameterid>Low Frequency</parameterid>
								<name>Low Frequency</name>
								<valuemin>80</valuemin>
								<valuemax>2000</valuemax>
								<value>80</value>
							</parameter>
							<parameter>
								<parameterid>Low Gain(dB)</parameterid>
								<name>Low Gain(dB)</name>
								<valuemin>-20</valuemin>
								<valuemax>20</valuemax>
								<value>-4</value>
							</parameter>
							<parameter>
								<parameterid>Mid Frequency</parameterid>
								<name>Mid Frequency</name>
								<valuemin>400</valuemin>
								<valuemax>8000</valuemax>
								<value>3602</value>
							</parameter>
							<parameter>
								<parameterid>Mid Gain(dB)</parameterid>
								<name>Mid Gain(dB)</name>
								<valuemin>-20</valuemin>
								<valuemax>20</valuemax>
								<value>3</value>
							</parameter>
							<parameter>
								<parameterid>High Frequency</parameterid>
								<name>High Frequency</name>
								<valuemin>5000</valuemin>
								<valuemax>20000</valuemax>
								<value>10354</value>
							</parameter>
							<parameter>
								<parameterid>High Gain(dB)</parameterid>
								<name>High Gain(dB)</name>
								<valuemin>-20</valuemin>
								<valuemax>20</valuemax>
								<value>0</value>
							</parameter>
						</effect>
					</filter>
					<filter>
						<effect>
							<name>Audio Levels</name>
							<effectid>audiolevels</effectid>
							<effectcategory>audiolevels</effectcategory>
							<effecttype>audiolevels</effecttype>
							<mediatype>audio</mediatype>
							<parameter>
								<name>Level</name>
								<parameterid>level</parameterid>
								<valuemin>0</valuemin>
								<valuemax>3.98109</valuemax>
								<keyframe>
									<when>205.589</when>
									<value>3.16228</value>
								</keyframe>
								<keyframe>
									<when>208.893</when>
									<value>2.51189</value>
								</keyframe>
								<keyframe>
									<when>3453.43</when>
									<value>1.77828</value>
								</keyframe>
								<keyframe>
									<when>3466</when>
									<value>2.51189</value>
								</keyframe>
								<keyframe>
									<when>3597.57</when>
									<value>2.51189</value>
								</keyframe>
								<keyframe>
									<when>3601.14</when>
									<value>1.99526</value>
								</keyframe>
								<keyframe>
									<when>3628.43</when>
									<value>1.99526</value>
								</keyframe>
								<keyframe>
									<when>3633</when>
									<value>3.16228</value>
								</keyframe>
								<keyframe>
									<when>4364.39</when>
									<value>2.51189</value>
								</keyframe>
								<keyframe>
									<when>4392.14</when>
									<value>3.98107</value>
								</keyframe>
								<keyframe>
									<when>5048.89</when>
									<value>3.98107</value>
								</keyframe>
								<keyframe>
									<when>5066.07</when>
									<value>3.16228</value>
								</keyframe>
								<interpolation>
									<name>FCPCurve</name>
								</interpolation>
								<value>2.01592</value>
							</parameter>
						</effect>
					</filter>
					<filter>
						<effect>
							<name>Audio Pan</name>
							<effectid>audiopan</effectid>
							<effectcategory>audiopan</effectcategory>
							<effecttype>audiopan</effecttype>
							<mediatype>audio</mediatype>
							<parameter>
								<name>Pan</name>
								<parameterid>pan</parameterid>
								<valuemin>-1</valuemin>
								<valuemax>1</valuemax>
								<value>0</value>
							</parameter>
						</effect>
					</filter>
					<sourcetrack>
						<mediatype>audio</mediatype>
						<trackindex>2</trackindex>
					</sourcetrack>
				</clipitem>
				<transitionitem id="624873652 ">
					<rate>
						<ntsc>FALSE</ntsc>
						<timebase>25</timebase>
					</rate>
					<start>25241</start>
					<end>25253</end>
					<alignment>center</alignment>
					<effect>
						<name>Cross Fade (+3dB) Copy</name>
						<effecttype>transition</effecttype>
						<mediatype>audio</mediatype>
					</effect>
				</transitionitem>
				<clipitem id="msub200012-0409d3k1004 15">
					<name>msub200012-0409d3k1004</name>
					<duration>6856</duration>
					<rate>
						<ntsc>FALSE</ntsc>
						<timebase>25</timebase>
					</rate>
					<in>3668</in>
					<out>4217</out>
					<start>-1</start>
					<end>25790</end>
					<subframeoffset>0</subframeoffset>
					<masterclipid>msub200012-0409d3k1004 1</masterclipid>
					<syncoffset>0</syncoffset>
					<logginginfo>
						<description>msub200012-0409d3k1004</description>
						<scene/>
						<shottake/>
						<lognote/>
						<good>FALSE</good>
					</logginginfo>
					<labels>
						<label>Good Take</label>
						<label2/>
					</labels>
					<comments>
						<mastercomment1>RÅSTOFF. BR_FINFREDAG_MSUA_OPRO</mastercomment1>
						<mastercomment2/>
						<mastercomment3/>
						<mastercomment4/>
					</comments>
					<file id="msub200012-0409d3k1004 2"/>
					<filter>
						<start>-1</start>
						<end>-1</end>
						<effect>
							<name>3 Band Equalizer - Kristine</name>
							<effecttype>filter</effecttype>
							<mediatype>audio</mediatype>
							<parameter>
								<parameterid>Low Frequency</parameterid>
								<name>Low Frequency</name>
								<valuemin>80</valuemin>
								<valuemax>2000</valuemax>
								<value>80</value>
							</parameter>
							<parameter>
								<parameterid>Low Gain(dB)</parameterid>
								<name>Low Gain(dB)</name>
								<valuemin>-20</valuemin>
								<valuemax>20</valuemax>
								<value>-4</value>
							</parameter>
							<parameter>
								<parameterid>Mid Frequency</parameterid>
								<name>Mid Frequency</name>
								<valuemin>400</valuemin>
								<valuemax>8000</valuemax>
								<value>3602</value>
							</parameter>
							<parameter>
								<parameterid>Mid Gain(dB)</parameterid>
								<name>Mid Gain(dB)</name>
								<valuemin>-20</valuemin>
								<valuemax>20</valuemax>
								<value>3</value>
							</parameter>
							<parameter>
								<parameterid>High Frequency</parameterid>
								<name>High Frequency</name>
								<valuemin>5000</valuemin>
								<valuemax>20000</valuemax>
								<value>10354</value>
							</parameter>
							<parameter>
								<parameterid>High Gain(dB)</parameterid>
								<name>High Gain(dB)</name>
								<valuemin>-20</valuemin>
								<valuemax>20</valuemax>
								<value>0</value>
							</parameter>
						</effect>
					</filter>
					<filter>
						<effect>
							<name>Audio Levels</name>
							<effectid>audiolevels</effectid>
							<effectcategory>audiolevels</effectcategory>
							<effecttype>audiolevels</effecttype>
							<mediatype>audio</mediatype>
							<parameter>
								<name>Level</name>
								<parameterid>level</parameterid>
								<valuemin>0</valuemin>
								<valuemax>3.98109</valuemax>
								<keyframe>
									<when>205.589</when>
									<value>3.16228</value>
								</keyframe>
								<keyframe>
									<when>208.893</when>
									<value>2.51189</value>
								</keyframe>
								<keyframe>
									<when>3806.86</when>
									<value>2.81838</value>
								</keyframe>
								<keyframe>
									<when>3827.71</when>
									<value>3.98107</value>
								</keyframe>
								<keyframe>
									<when>3956.29</when>
									<value>3.54813</value>
								</keyframe>
								<keyframe>
									<when>3965.14</when>
									<value>3.16228</value>
								</keyframe>
								<keyframe>
									<when>4030.29</when>
									<value>2.81838</value>
								</keyframe>
								<keyframe>
									<when>4042</when>
									<value>3.98107</value>
								</keyframe>
								<keyframe>
									<when>4158</when>
									<value>3.16228</value>
								</keyframe>
								<keyframe>
									<when>4166.29</when>
									<value>2.81838</value>
								</keyframe>
								<keyframe>
									<when>4364.39</when>
									<value>2.51189</value>
								</keyframe>
								<keyframe>
									<when>4392.14</when>
									<value>3.98107</value>
								</keyframe>
								<keyframe>
									<when>5048.89</when>
									<value>3.98107</value>
								</keyframe>
								<keyframe>
									<when>5066.07</when>
									<value>3.16228</value>
								</keyframe>
								<interpolation>
									<name>FCPCurve</name>
								</interpolation>
								<value>2.51189</value>
							</parameter>
						</effect>
					</filter>
					<filter>
						<effect>
							<name>Audio Pan</name>
							<effectid>audiopan</effectid>
							<effectcategory>audiopan</effectcategory>
							<effecttype>audiopan</effecttype>
							<mediatype>audio</mediatype>
							<parameter>
								<name>Pan</name>
								<parameterid>pan</parameterid>
								<valuemin>-1</valuemin>
								<valuemax>1</valuemax>
								<value>0</value>
							</parameter>
						</effect>
					</filter>
					<sourcetrack>
						<mediatype>audio</mediatype>
						<trackindex>2</trackindex>
					</sourcetrack>
				</clipitem>
				<clipitem id="msub200012-0409d3k1004 3">
					<name>msub200012-0409d3k1004</name>
					<duration>6856</duration>
					<rate>
						<ntsc>FALSE</ntsc>
						<timebase>25</timebase>
					</rate>
					<in>4217</in>
					<out>4314</out>
					<start>25790</start>
					<end>25887</end>
					<subframeoffset>0</subframeoffset>
					<masterclipid>msub200012-0409d3k1004 1</masterclipid>
					<syncoffset>0</syncoffset>
					<logginginfo>
						<description>msub200012-0409d3k1004</description>
						<scene/>
						<shottake/>
						<lognote/>
						<good>FALSE</good>
					</logginginfo>
					<labels>
						<label>Good Take</label>
						<label2/>
					</labels>
					<comments>
						<mastercomment1>RÅSTOFF. BR_FINFREDAG_MSUA_OPRO</mastercomment1>
						<mastercomment2/>
						<mastercomment3/>
						<mastercomment4/>
					</comments>
					<file id="msub200012-0409d3k1004 2"/>
					<filter>
						<start>-1</start>
						<end>-1</end>
						<effect>
							<name>3 Band Equalizer - Kristine</name>
							<effecttype>filter</effecttype>
							<mediatype>audio</mediatype>
							<parameter>
								<parameterid>Low Frequency</parameterid>
								<name>Low Frequency</name>
								<valuemin>80</valuemin>
								<valuemax>2000</valuemax>
								<value>80</value>
							</parameter>
							<parameter>
								<parameterid>Low Gain(dB)</parameterid>
								<name>Low Gain(dB)</name>
								<valuemin>-20</valuemin>
								<valuemax>20</valuemax>
								<value>-4</value>
							</parameter>
							<parameter>
								<parameterid>Mid Frequency</parameterid>
								<name>Mid Frequency</name>
								<valuemin>400</valuemin>
								<valuemax>8000</valuemax>
								<value>3602</value>
							</parameter>
							<parameter>
								<parameterid>Mid Gain(dB)</parameterid>
								<name>Mid Gain(dB)</name>
								<valuemin>-20</valuemin>
								<valuemax>20</valuemax>
								<value>3</value>
							</parameter>
							<parameter>
								<parameterid>High Frequency</parameterid>
								<name>High Frequency</name>
								<valuemin>5000</valuemin>
								<valuemax>20000</valuemax>
								<value>10354</value>
							</parameter>
							<parameter>
								<parameterid>High Gain(dB)</parameterid>
								<name>High Gain(dB)</name>
								<valuemin>-20</valuemin>
								<valuemax>20</valuemax>
								<value>0</value>
							</parameter>
						</effect>
					</filter>
					<filter>
						<effect>
							<name>Audio Levels</name>
							<effectid>audiolevels</effectid>
							<effectcategory>audiolevels</effectcategory>
							<effecttype>audiolevels</effecttype>
							<mediatype>audio</mediatype>
							<parameter>
								<name>Level</name>
								<parameterid>level</parameterid>
								<valuemin>0</valuemin>
								<valuemax>3.98109</valuemax>
								<keyframe>
									<when>205.589</when>
									<value>3.16228</value>
								</keyframe>
								<keyframe>
									<when>208.893</when>
									<value>2.51189</value>
								</keyframe>
								<keyframe>
									<when>4292</when>
									<value>2.23872</value>
								</keyframe>
								<keyframe>
									<when>4302.29</when>
									<value>1.25893</value>
								</keyframe>
								<keyframe>
									<when>4324.57</when>
									<value>1.25893</value>
								</keyframe>
								<keyframe>
									<when>4333.14</when>
									<value>1.99526</value>
								</keyframe>
								<keyframe>
									<when>4369.71</when>
									<value>1.99526</value>
								</keyframe>
								<keyframe>
									<when>4392.14</when>
									<value>2.51189</value>
								</keyframe>
								<keyframe>
									<when>4422.29</when>
									<value>2.51189</value>
								</keyframe>
								<keyframe>
									<when>4428</when>
									<value>3.98107</value>
								</keyframe>
								<keyframe>
									<when>4456.57</when>
									<value>3.98107</value>
								</keyframe>
								<keyframe>
									<when>5048.89</when>
									<value>3.98107</value>
								</keyframe>
								<keyframe>
									<when>5066.07</when>
									<value>3.16228</value>
								</keyframe>
								<interpolation>
									<name>FCPCurve</name>
								</interpolation>
								<value>2.51189</value>
							</parameter>
						</effect>
					</filter>
					<filter>
						<effect>
							<name>Audio Pan</name>
							<effectid>audiopan</effectid>
							<effectcategory>audiopan</effectcategory>
							<effecttype>audiopan</effecttype>
							<mediatype>audio</mediatype>
							<parameter>
								<name>Pan</name>
								<parameterid>pan</parameterid>
								<valuemin>-1</valuemin>
								<valuemax>1</valuemax>
								<value>0</value>
							</parameter>
						</effect>
					</filter>
					<sourcetrack>
						<mediatype>audio</mediatype>
						<trackindex>2</trackindex>
					</sourcetrack>
					<link>
						<linkclipref>msub200012-0409d3k1004 </linkclipref>
						<mediatype>audio</mediatype>
						<trackindex>1</trackindex>
						<clipindex>97</clipindex>
					</link>
					<link>
						<linkclipref>msub200012-0409d3k1004 3</linkclipref>
						<mediatype>audio</mediatype>
						<trackindex>2</trackindex>
						<clipindex>155</clipindex>
					</link>
				</clipitem>
				<clipitem id="msub200012-0409d3k1004 5">
					<name>msub200012-0409d3k1004</name>
					<duration>6856</duration>
					<rate>
						<ntsc>FALSE</ntsc>
						<timebase>25</timebase>
					</rate>
					<in>4314</in>
					<out>4589</out>
					<start>25887</start>
					<end>-1</end>
					<subframeoffset>0</subframeoffset>
					<masterclipid>msub200012-0409d3k1004 1</masterclipid>
					<syncoffset>0</syncoffset>
					<logginginfo>
						<description>msub200012-0409d3k1004</description>
						<scene/>
						<shottake/>
						<lognote/>
						<good>FALSE</good>
					</logginginfo>
					<labels>
						<label>Good Take</label>
						<label2/>
					</labels>
					<comments>
						<mastercomment1>RÅSTOFF. BR_FINFREDAG_MSUA_OPRO</mastercomment1>
						<mastercomment2/>
						<mastercomment3/>
						<mastercomment4/>
					</comments>
					<file id="msub200012-0409d3k1004 2"/>
					<filter>
						<start>-1</start>
						<end>-1</end>
						<effect>
							<name>3 Band Equalizer - Kristine</name>
							<effecttype>filter</effecttype>
							<mediatype>audio</mediatype>
							<parameter>
								<parameterid>Low Frequency</parameterid>
								<name>Low Frequency</name>
								<valuemin>80</valuemin>
								<valuemax>2000</valuemax>
								<value>80</value>
							</parameter>
							<parameter>
								<parameterid>Low Gain(dB)</parameterid>
								<name>Low Gain(dB)</name>
								<valuemin>-20</valuemin>
								<valuemax>20</valuemax>
								<value>-4</value>
							</parameter>
							<parameter>
								<parameterid>Mid Frequency</parameterid>
								<name>Mid Frequency</name>
								<valuemin>400</valuemin>
								<valuemax>8000</valuemax>
								<value>3602</value>
							</parameter>
							<parameter>
								<parameterid>Mid Gain(dB)</parameterid>
								<name>Mid Gain(dB)</name>
								<valuemin>-20</valuemin>
								<valuemax>20</valuemax>
								<value>3</value>
							</parameter>
							<parameter>
								<parameterid>High Frequency</parameterid>
								<name>High Frequency</name>
								<valuemin>5000</valuemin>
								<valuemax>20000</valuemax>
								<value>10354</value>
							</parameter>
							<parameter>
								<parameterid>High Gain(dB)</parameterid>
								<name>High Gain(dB)</name>
								<valuemin>-20</valuemin>
								<valuemax>20</valuemax>
								<value>0</value>
							</parameter>
						</effect>
					</filter>
					<filter>
						<effect>
							<name>Audio Levels</name>
							<effectid>audiolevels</effectid>
							<effectcategory>audiolevels</effectcategory>
							<effecttype>audiolevels</effecttype>
							<mediatype>audio</mediatype>
							<parameter>
								<name>Level</name>
								<parameterid>level</parameterid>
								<valuemin>0</valuemin>
								<valuemax>3.98109</valuemax>
								<keyframe>
									<when>205.589</when>
									<value>3.16228</value>
								</keyframe>
								<keyframe>
									<when>208.893</when>
									<value>2.51189</value>
								</keyframe>
								<keyframe>
									<when>4292</when>
									<value>2.23872</value>
								</keyframe>
								<keyframe>
									<when>4302.29</when>
									<value>1.25893</value>
								</keyframe>
								<keyframe>
									<when>4324.57</when>
									<value>1.25893</value>
								</keyframe>
								<keyframe>
									<when>4333.14</when>
									<value>1.99526</value>
								</keyframe>
								<keyframe>
									<when>4369.71</when>
									<value>1.99526</value>
								</keyframe>
								<keyframe>
									<when>4392.14</when>
									<value>2.51189</value>
								</keyframe>
								<keyframe>
									<when>4422.29</when>
									<value>2.51189</value>
								</keyframe>
								<keyframe>
									<when>4428</when>
									<value>3.98107</value>
								</keyframe>
								<keyframe>
									<when>4456.57</when>
									<value>3.98107</value>
								</keyframe>
								<keyframe>
									<when>5048.89</when>
									<value>3.98107</value>
								</keyframe>
								<keyframe>
									<when>5066.07</when>
									<value>3.16228</value>
								</keyframe>
								<interpolation>
									<name>FCPCurve</name>
								</interpolation>
								<value>2.51189</value>
							</parameter>
						</effect>
					</filter>
					<filter>
						<effect>
							<name>Audio Pan</name>
							<effectid>audiopan</effectid>
							<effectcategory>audiopan</effectcategory>
							<effecttype>audiopan</effecttype>
							<mediatype>audio</mediatype>
							<parameter>
								<name>Pan</name>
								<parameterid>pan</parameterid>
								<valuemin>-1</valuemin>
								<valuemax>1</valuemax>
								<value>0</value>
							</parameter>
						</effect>
					</filter>
					<sourcetrack>
						<mediatype>audio</mediatype>
						<trackindex>2</trackindex>
					</sourcetrack>
					<link>
						<linkclipref>msub200012-0409d3k1004 4</linkclipref>
						<mediatype>audio</mediatype>
						<trackindex>1</trackindex>
						<clipindex>98</clipindex>
					</link>
					<link>
						<linkclipref>msub200012-0409d3k1004 5</linkclipref>
						<mediatype>audio</mediatype>
						<trackindex>2</trackindex>
						<clipindex>156</clipindex>
					</link>
				</clipitem>
				<transitionitem id="625206920 ">
					<rate>
						<ntsc>FALSE</ntsc>
						<timebase>25</timebase>
					</rate>
					<start>26156</start>
					<end>26162</end>
					<alignment>center</alignment>
					<effect>
						<name>Cross Fade (+3dB) Copy</name>
						<effecttype>transition</effecttype>
						<mediatype>audio</mediatype>
					</effect>
				</transitionitem>
				<clipitem id="msub200012-0409d3k1004 16">
					<name>msub200012-0409d3k1004</name>
					<duration>6856</duration>
					<rate>
						<ntsc>FALSE</ntsc>
						<timebase>25</timebase>
					</rate>
					<in>4583</in>
					<out>4993</out>
					<start>-1</start>
					<end>26566</end>
					<subframeoffset>0</subframeoffset>
					<enabled>TRUE</enabled>
					<masterclipid>msub200012-0409d3k1004 1</masterclipid>
					<syncoffset>0</syncoffset>
					<logginginfo>
						<description>msub200012-0409d3k1004</description>
						<scene/>
						<shottake/>
						<lognote/>
						<good>FALSE</good>
					</logginginfo>
					<labels>
						<label>Good Take</label>
						<label2/>
					</labels>
					<comments>
						<mastercomment1>RÅSTOFF. BR_FINFREDAG_MSUA_OPRO</mastercomment1>
						<mastercomment2/>
						<mastercomment3/>
						<mastercomment4/>
					</comments>
					<file id="msub200012-0409d3k1004 2"/>
					<filter>
						<enabled>TRUE</enabled>
						<start>-1</start>
						<end>-1</end>
						<effect>
							<name>3 Band Equalizer - Kristine</name>
							<effecttype>filter</effecttype>
							<mediatype>audio</mediatype>
							<parameter>
								<parameterid>Low Frequency</parameterid>
								<name>Low Frequency</name>
								<valuemin>80</valuemin>
								<valuemax>2000</valuemax>
								<value>80</value>
							</parameter>
							<parameter>
								<parameterid>Low Gain(dB)</parameterid>
								<name>Low Gain(dB)</name>
								<valuemin>-20</valuemin>
								<valuemax>20</valuemax>
								<value>-4</value>
							</parameter>
							<parameter>
								<parameterid>Mid Frequency</parameterid>
								<name>Mid Frequency</name>
								<valuemin>400</valuemin>
								<valuemax>8000</valuemax>
								<value>3602</value>
							</parameter>
							<parameter>
								<parameterid>Mid Gain(dB)</parameterid>
								<name>Mid Gain(dB)</name>
								<valuemin>-20</valuemin>
								<valuemax>20</valuemax>
								<value>3</value>
							</parameter>
							<parameter>
								<parameterid>High Frequency</parameterid>
								<name>High Frequency</name>
								<valuemin>5000</valuemin>
								<valuemax>20000</valuemax>
								<value>10354</value>
							</parameter>
							<parameter>
								<parameterid>High Gain(dB)</parameterid>
								<name>High Gain(dB)</name>
								<valuemin>-20</valuemin>
								<valuemax>20</valuemax>
								<value>0</value>
							</parameter>
						</effect>
					</filter>
					<filter>
						<enabled>TRUE</enabled>
						<start>-1</start>
						<end>-1</end>
						<effect>
							<name>Gain</name>
							<effecttype>filter</effecttype>
							<mediatype>audio</mediatype>
							<parameter>
								<parameterid>Gain(dB)</parameterid>
								<name>Gain(dB)</name>
								<valuemin>-96</valuemin>
								<valuemax>96</valuemax>
								<value>3</value>
							</parameter>
						</effect>
					</filter>
					<filter>
						<effect>
							<name>Audio Levels</name>
							<effectid>audiolevels</effectid>
							<effectcategory>audiolevels</effectcategory>
							<effecttype>audiolevels</effecttype>
							<mediatype>audio</mediatype>
							<parameter>
								<name>Level</name>
								<parameterid>level</parameterid>
								<valuemin>0</valuemin>
								<valuemax>3.98109</valuemax>
								<keyframe>
									<when>205.589</when>
									<value>3.16228</value>
								</keyframe>
								<keyframe>
									<when>208.893</when>
									<value>2.51189</value>
								</keyframe>
								<keyframe>
									<when>4292</when>
									<value>2.23872</value>
								</keyframe>
								<keyframe>
									<when>4302.29</when>
									<value>1.99526</value>
								</keyframe>
								<keyframe>
									<when>4364.39</when>
									<value>1.99526</value>
								</keyframe>
								<keyframe>
									<when>4392.14</when>
									<value>2.51189</value>
								</keyframe>
								<keyframe>
									<when>4422.29</when>
									<value>2.51189</value>
								</keyframe>
								<keyframe>
									<when>4428</when>
									<value>3.98107</value>
								</keyframe>
								<keyframe>
									<when>4456.57</when>
									<value>3.98107</value>
								</keyframe>
								<keyframe>
									<when>4993.71</when>
									<value>3.98107</value>
								</keyframe>
								<keyframe>
									<when>5005.14</when>
									<value>3.16228</value>
								</keyframe>
								<keyframe>
									<when>5048.89</when>
									<value>3.16228</value>
								</keyframe>
								<keyframe>
									<when>5066.07</when>
									<value>3.16228</value>
								</keyframe>
								<interpolation>
									<name>FCPCurve</name>
								</interpolation>
								<value>3.98107</value>
							</parameter>
						</effect>
					</filter>
					<filter>
						<effect>
							<name>Audio Pan</name>
							<effectid>audiopan</effectid>
							<effectcategory>audiopan</effectcategory>
							<effecttype>audiopan</effecttype>
							<mediatype>audio</mediatype>
							<parameter>
								<name>Pan</name>
								<parameterid>pan</parameterid>
								<valuemin>-1</valuemin>
								<valuemax>1</valuemax>
								<value>0</value>
							</parameter>
						</effect>
					</filter>
					<sourcetrack>
						<mediatype>audio</mediatype>
						<trackindex>2</trackindex>
					</sourcetrack>
				</clipitem>
				<clipitem id="msub200012-0409d3k1004 17">
					<name>msub200012-0409d3k1004</name>
					<duration>6856</duration>
					<rate>
						<ntsc>FALSE</ntsc>
						<timebase>25</timebase>
					</rate>
					<in>4993</in>
					<out>5123</out>
					<start>26566</start>
					<end>26696</end>
					<subframeoffset>0</subframeoffset>
					<masterclipid>msub200012-0409d3k1004 1</masterclipid>
					<syncoffset>0</syncoffset>
					<logginginfo>
						<description>msub200012-0409d3k1004</description>
						<scene/>
						<shottake/>
						<lognote/>
						<good>FALSE</good>
					</logginginfo>
					<labels>
						<label>Good Take</label>
						<label2/>
					</labels>
					<comments>
						<mastercomment1>RÅSTOFF. BR_FINFREDAG_MSUA_OPRO</mastercomment1>
						<mastercomment2/>
						<mastercomment3/>
						<mastercomment4/>
					</comments>
					<file id="msub200012-0409d3k1004 2"/>
					<filter>
						<start>-1</start>
						<end>-1</end>
						<effect>
							<name>3 Band Equalizer - Kristine</name>
							<effecttype>filter</effecttype>
							<mediatype>audio</mediatype>
							<parameter>
								<parameterid>Low Frequency</parameterid>
								<name>Low Frequency</name>
								<valuemin>80</valuemin>
								<valuemax>2000</valuemax>
								<value>80</value>
							</parameter>
							<parameter>
								<parameterid>Low Gain(dB)</parameterid>
								<name>Low Gain(dB)</name>
								<valuemin>-20</valuemin>
								<valuemax>20</valuemax>
								<value>-4</value>
							</parameter>
							<parameter>
								<parameterid>Mid Frequency</parameterid>
								<name>Mid Frequency</name>
								<valuemin>400</valuemin>
								<valuemax>8000</valuemax>
								<value>3602</value>
							</parameter>
							<parameter>
								<parameterid>Mid Gain(dB)</parameterid>
								<name>Mid Gain(dB)</name>
								<valuemin>-20</valuemin>
								<valuemax>20</valuemax>
								<value>3</value>
							</parameter>
							<parameter>
								<parameterid>High Frequency</parameterid>
								<name>High Frequency</name>
								<valuemin>5000</valuemin>
								<valuemax>20000</valuemax>
								<value>10354</value>
							</parameter>
							<parameter>
								<parameterid>High Gain(dB)</parameterid>
								<name>High Gain(dB)</name>
								<valuemin>-20</valuemin>
								<valuemax>20</valuemax>
								<value>0</value>
							</parameter>
						</effect>
					</filter>
					<filter>
						<effect>
							<name>Audio Levels</name>
							<effectid>audiolevels</effectid>
							<effectcategory>audiolevels</effectcategory>
							<effecttype>audiolevels</effecttype>
							<mediatype>audio</mediatype>
							<parameter>
								<name>Level</name>
								<parameterid>level</parameterid>
								<valuemin>0</valuemin>
								<valuemax>3.98109</valuemax>
								<keyframe>
									<when>205.589</when>
									<value>3.16228</value>
								</keyframe>
								<keyframe>
									<when>208.893</when>
									<value>2.51189</value>
								</keyframe>
								<keyframe>
									<when>4292</when>
									<value>2.23872</value>
								</keyframe>
								<keyframe>
									<when>4302.29</when>
									<value>1.99526</value>
								</keyframe>
								<keyframe>
									<when>4364.39</when>
									<value>1.99526</value>
								</keyframe>
								<keyframe>
									<when>4392.14</when>
									<value>2.51189</value>
								</keyframe>
								<keyframe>
									<when>4422.29</when>
									<value>2.51189</value>
								</keyframe>
								<keyframe>
									<when>4428</when>
									<value>3.98107</value>
								</keyframe>
								<keyframe>
									<when>4456.57</when>
									<value>3.98107</value>
								</keyframe>
								<keyframe>
									<when>4993.71</when>
									<value>3.98107</value>
								</keyframe>
								<keyframe>
									<when>5005.14</when>
									<value>3.16228</value>
								</keyframe>
								<keyframe>
									<when>5012</when>
									<value>3.16228</value>
								</keyframe>
								<keyframe>
									<when>5018.29</when>
									<value>3.54813</value>
								</keyframe>
								<keyframe>
									<when>5029.14</when>
									<value>3.54813</value>
								</keyframe>
								<keyframe>
									<when>5034.29</when>
									<value>3.16228</value>
								</keyframe>
								<keyframe>
									<when>5048.89</when>
									<value>3.16228</value>
								</keyframe>
								<keyframe>
									<when>5066.07</when>
									<value>2.51189</value>
								</keyframe>
								<keyframe>
									<when>5121.43</when>
									<value>2.51189</value>
								</keyframe>
								<keyframe>
									<when>5126</when>
									<value>3.98107</value>
								</keyframe>
								<keyframe>
									<when>5456</when>
									<value>3.98107</value>
								</keyframe>
								<keyframe>
									<when>5465.71</when>
									<value>2.23872</value>
								</keyframe>
								<interpolation>
									<name>FCPCurve</name>
								</interpolation>
								<value>2.51189</value>
							</parameter>
						</effect>
					</filter>
					<filter>
						<effect>
							<name>Audio Pan</name>
							<effectid>audiopan</effectid>
							<effectcategory>audiopan</effectcategory>
							<effecttype>audiopan</effecttype>
							<mediatype>audio</mediatype>
							<parameter>
								<name>Pan</name>
								<parameterid>pan</parameterid>
								<valuemin>-1</valuemin>
								<valuemax>1</valuemax>
								<value>0</value>
							</parameter>
						</effect>
					</filter>
					<sourcetrack>
						<mediatype>audio</mediatype>
						<trackindex>2</trackindex>
					</sourcetrack>
				</clipitem>
				<clipitem id="msub200012-0409d3k1004 18">
					<name>msub200012-0409d3k1004</name>
					<duration>6856</duration>
					<rate>
						<ntsc>FALSE</ntsc>
						<timebase>25</timebase>
					</rate>
					<in>5123</in>
					<out>5461</out>
					<start>26696</start>
					<end>27034</end>
					<subframeoffset>0</subframeoffset>
					<masterclipid>msub200012-0409d3k1004 1</masterclipid>
					<syncoffset>0</syncoffset>
					<logginginfo>
						<description>msub200012-0409d3k1004</description>
						<scene/>
						<shottake/>
						<lognote/>
						<good>FALSE</good>
					</logginginfo>
					<labels>
						<label>Good Take</label>
						<label2/>
					</labels>
					<comments>
						<mastercomment1>RÅSTOFF. BR_FINFREDAG_MSUA_OPRO</mastercomment1>
						<mastercomment2/>
						<mastercomment3/>
						<mastercomment4/>
					</comments>
					<file id="msub200012-0409d3k1004 2"/>
					<filter>
						<start>-1</start>
						<end>-1</end>
						<effect>
							<name>3 Band Equalizer - Kristine</name>
							<effecttype>filter</effecttype>
							<mediatype>audio</mediatype>
							<parameter>
								<parameterid>Low Frequency</parameterid>
								<name>Low Frequency</name>
								<valuemin>80</valuemin>
								<valuemax>2000</valuemax>
								<value>80</value>
							</parameter>
							<parameter>
								<parameterid>Low Gain(dB)</parameterid>
								<name>Low Gain(dB)</name>
								<valuemin>-20</valuemin>
								<valuemax>20</valuemax>
								<value>-4</value>
							</parameter>
							<parameter>
								<parameterid>Mid Frequency</parameterid>
								<name>Mid Frequency</name>
								<valuemin>400</valuemin>
								<valuemax>8000</valuemax>
								<value>3602</value>
							</parameter>
							<parameter>
								<parameterid>Mid Gain(dB)</parameterid>
								<name>Mid Gain(dB)</name>
								<valuemin>-20</valuemin>
								<valuemax>20</valuemax>
								<value>3</value>
							</parameter>
							<parameter>
								<parameterid>High Frequency</parameterid>
								<name>High Frequency</name>
								<valuemin>5000</valuemin>
								<valuemax>20000</valuemax>
								<value>10354</value>
							</parameter>
							<parameter>
								<parameterid>High Gain(dB)</parameterid>
								<name>High Gain(dB)</name>
								<valuemin>-20</valuemin>
								<valuemax>20</valuemax>
								<value>0</value>
							</parameter>
						</effect>
					</filter>
					<filter>
						<start>-1</start>
						<end>-1</end>
						<effect>
							<name>Gain</name>
							<effecttype>filter</effecttype>
							<mediatype>audio</mediatype>
							<parameter>
								<parameterid>Gain(dB)</parameterid>
								<name>Gain(dB)</name>
								<valuemin>-96</valuemin>
								<valuemax>96</valuemax>
								<value>3</value>
							</parameter>
						</effect>
					</filter>
					<filter>
						<effect>
							<name>Audio Levels</name>
							<effectid>audiolevels</effectid>
							<effectcategory>audiolevels</effectcategory>
							<effecttype>audiolevels</effecttype>
							<mediatype>audio</mediatype>
							<parameter>
								<name>Level</name>
								<parameterid>level</parameterid>
								<valuemin>0</valuemin>
								<valuemax>3.98109</valuemax>
								<keyframe>
									<when>205.589</when>
									<value>3.16228</value>
								</keyframe>
								<keyframe>
									<when>208.893</when>
									<value>2.51189</value>
								</keyframe>
								<keyframe>
									<when>4292</when>
									<value>2.23872</value>
								</keyframe>
								<keyframe>
									<when>4302.29</when>
									<value>1.99526</value>
								</keyframe>
								<keyframe>
									<when>4364.39</when>
									<value>1.99526</value>
								</keyframe>
								<keyframe>
									<when>4392.14</when>
									<value>2.51189</value>
								</keyframe>
								<keyframe>
									<when>4422.29</when>
									<value>2.51189</value>
								</keyframe>
								<keyframe>
									<when>4428</when>
									<value>3.98107</value>
								</keyframe>
								<keyframe>
									<when>4456.57</when>
									<value>3.98107</value>
								</keyframe>
								<keyframe>
									<when>4993.71</when>
									<value>3.98107</value>
								</keyframe>
								<keyframe>
									<when>5005.14</when>
									<value>3.16228</value>
								</keyframe>
								<keyframe>
									<when>5012</when>
									<value>3.16228</value>
								</keyframe>
								<keyframe>
									<when>5018.29</when>
									<value>3.54813</value>
								</keyframe>
								<keyframe>
									<when>5029.14</when>
									<value>3.54813</value>
								</keyframe>
								<keyframe>
									<when>5034.29</when>
									<value>3.16228</value>
								</keyframe>
								<keyframe>
									<when>5048.89</when>
									<value>3.16228</value>
								</keyframe>
								<keyframe>
									<when>5066.07</when>
									<value>2.51189</value>
								</keyframe>
								<keyframe>
									<when>5121.43</when>
									<value>2.51189</value>
								</keyframe>
								<keyframe>
									<when>5126</when>
									<value>3.98107</value>
								</keyframe>
								<keyframe>
									<when>5456</when>
									<value>3.98107</value>
								</keyframe>
								<keyframe>
									<when>5465.71</when>
									<value>2.23872</value>
								</keyframe>
								<interpolation>
									<name>FCPCurve</name>
								</interpolation>
								<value>2.51189</value>
							</parameter>
						</effect>
					</filter>
					<filter>
						<effect>
							<name>Audio Pan</name>
							<effectid>audiopan</effectid>
							<effectcategory>audiopan</effectcategory>
							<effecttype>audiopan</effecttype>
							<mediatype>audio</mediatype>
							<parameter>
								<name>Pan</name>
								<parameterid>pan</parameterid>
								<valuemin>-1</valuemin>
								<valuemax>1</valuemax>
								<value>0</value>
							</parameter>
						</effect>
					</filter>
					<sourcetrack>
						<mediatype>audio</mediatype>
						<trackindex>2</trackindex>
					</sourcetrack>
				</clipitem>
				<clipitem id="msub200012-0409d3k1004 19">
					<name>msub200012-0409d3k1004</name>
					<duration>6856</duration>
					<rate>
						<ntsc>FALSE</ntsc>
						<timebase>25</timebase>
					</rate>
					<in>5461</in>
					<out>5868</out>
					<start>27034</start>
					<end>-1</end>
					<subframeoffset>0</subframeoffset>
					<masterclipid>msub200012-0409d3k1004 1</masterclipid>
					<syncoffset>0</syncoffset>
					<logginginfo>
						<description>msub200012-0409d3k1004</description>
						<scene/>
						<shottake/>
						<lognote/>
						<good>FALSE</good>
					</logginginfo>
					<labels>
						<label>Good Take</label>
						<label2/>
					</labels>
					<comments>
						<mastercomment1>RÅSTOFF. BR_FINFREDAG_MSUA_OPRO</mastercomment1>
						<mastercomment2/>
						<mastercomment3/>
						<mastercomment4/>
					</comments>
					<file id="msub200012-0409d3k1004 2"/>
					<filter>
						<start>-1</start>
						<end>-1</end>
						<effect>
							<name>3 Band Equalizer - Kristine</name>
							<effecttype>filter</effecttype>
							<mediatype>audio</mediatype>
							<parameter>
								<parameterid>Low Frequency</parameterid>
								<name>Low Frequency</name>
								<valuemin>80</valuemin>
								<valuemax>2000</valuemax>
								<value>80</value>
							</parameter>
							<parameter>
								<parameterid>Low Gain(dB)</parameterid>
								<name>Low Gain(dB)</name>
								<valuemin>-20</valuemin>
								<valuemax>20</valuemax>
								<value>-4</value>
							</parameter>
							<parameter>
								<parameterid>Mid Frequency</parameterid>
								<name>Mid Frequency</name>
								<valuemin>400</valuemin>
								<valuemax>8000</valuemax>
								<value>3602</value>
							</parameter>
							<parameter>
								<parameterid>Mid Gain(dB)</parameterid>
								<name>Mid Gain(dB)</name>
								<valuemin>-20</valuemin>
								<valuemax>20</valuemax>
								<value>3</value>
							</parameter>
							<parameter>
								<parameterid>High Frequency</parameterid>
								<name>High Frequency</name>
								<valuemin>5000</valuemin>
								<valuemax>20000</valuemax>
								<value>10354</value>
							</parameter>
							<parameter>
								<parameterid>High Gain(dB)</parameterid>
								<name>High Gain(dB)</name>
								<valuemin>-20</valuemin>
								<valuemax>20</valuemax>
								<value>0</value>
							</parameter>
						</effect>
					</filter>
					<filter>
						<effect>
							<name>Audio Levels</name>
							<effectid>audiolevels</effectid>
							<effectcategory>audiolevels</effectcategory>
							<effecttype>audiolevels</effecttype>
							<mediatype>audio</mediatype>
							<parameter>
								<name>Level</name>
								<parameterid>level</parameterid>
								<valuemin>0</valuemin>
								<valuemax>3.98109</valuemax>
								<keyframe>
									<when>205.589</when>
									<value>3.16228</value>
								</keyframe>
								<keyframe>
									<when>208.893</when>
									<value>2.51189</value>
								</keyframe>
								<keyframe>
									<when>4292</when>
									<value>2.23872</value>
								</keyframe>
								<keyframe>
									<when>4302.29</when>
									<value>1.99526</value>
								</keyframe>
								<keyframe>
									<when>4364.39</when>
									<value>1.99526</value>
								</keyframe>
								<keyframe>
									<when>4392.14</when>
									<value>2.51189</value>
								</keyframe>
								<keyframe>
									<when>4422.29</when>
									<value>2.51189</value>
								</keyframe>
								<keyframe>
									<when>4428</when>
									<value>3.98107</value>
								</keyframe>
								<keyframe>
									<when>4456.57</when>
									<value>3.98107</value>
								</keyframe>
								<keyframe>
									<when>4993.71</when>
									<value>3.98107</value>
								</keyframe>
								<keyframe>
									<when>5005.14</when>
									<value>3.16228</value>
								</keyframe>
								<keyframe>
									<when>5012</when>
									<value>3.16228</value>
								</keyframe>
								<keyframe>
									<when>5018.29</when>
									<value>3.54813</value>
								</keyframe>
								<keyframe>
									<when>5029.14</when>
									<value>3.54813</value>
								</keyframe>
								<keyframe>
									<when>5034.29</when>
									<value>3.16228</value>
								</keyframe>
								<keyframe>
									<when>5048.89</when>
									<value>3.16228</value>
								</keyframe>
								<keyframe>
									<when>5066.07</when>
									<value>2.51189</value>
								</keyframe>
								<keyframe>
									<when>5121.43</when>
									<value>2.51189</value>
								</keyframe>
								<keyframe>
									<when>5126</when>
									<value>3.98107</value>
								</keyframe>
								<keyframe>
									<when>5456</when>
									<value>3.98107</value>
								</keyframe>
								<keyframe>
									<when>5465.71</when>
									<value>1.99526</value>
								</keyframe>
								<keyframe>
									<when>5624.57</when>
									<value>1.99526</value>
								</keyframe>
								<keyframe>
									<when>5634.29</when>
									<value>3.98107</value>
								</keyframe>
								<keyframe>
									<when>5713.71</when>
									<value>3.98107</value>
								</keyframe>
								<keyframe>
									<when>5720</when>
									<value>2.7169</value>
								</keyframe>
								<keyframe>
									<when>5740</when>
									<value>2.42879</value>
								</keyframe>
								<keyframe>
									<when>5745.71</when>
									<value>2.81838</value>
								</keyframe>
								<keyframe>
									<when>5790.86</when>
									<value>2.81838</value>
								</keyframe>
								<keyframe>
									<when>5796.57</when>
									<value>2.23872</value>
								</keyframe>
								<keyframe>
									<when>5824</when>
									<value>2.23872</value>
								</keyframe>
								<keyframe>
									<when>5832.57</when>
									<value>1.58489</value>
								</keyframe>
								<interpolation>
									<name>FCPCurve</name>
								</interpolation>
								<value>2.51189</value>
							</parameter>
						</effect>
					</filter>
					<filter>
						<effect>
							<name>Audio Pan</name>
							<effectid>audiopan</effectid>
							<effectcategory>audiopan</effectcategory>
							<effecttype>audiopan</effecttype>
							<mediatype>audio</mediatype>
							<parameter>
								<name>Pan</name>
								<parameterid>pan</parameterid>
								<valuemin>-1</valuemin>
								<valuemax>1</valuemax>
								<value>0</value>
							</parameter>
						</effect>
					</filter>
					<sourcetrack>
						<mediatype>audio</mediatype>
						<trackindex>2</trackindex>
					</sourcetrack>
				</clipitem>
				<transitionitem id="625222288 ">
					<rate>
						<ntsc>FALSE</ntsc>
						<timebase>25</timebase>
					</rate>
					<start>27435</start>
					<end>27441</end>
					<alignment>center</alignment>
					<effect>
						<name>Cross Fade (+3dB) Copy</name>
						<effecttype>transition</effecttype>
						<mediatype>audio</mediatype>
					</effect>
				</transitionitem>
				<clipitem id="msub200012-0409d3k1006 ">
					<name>msub200012-0409d3k1006</name>
					<duration>2744</duration>
					<rate>
						<ntsc>FALSE</ntsc>
						<timebase>25</timebase>
					</rate>
					<in>480</in>
					<out>561</out>
					<start>-1</start>
					<end>-1</end>
					<subframeoffset>0</subframeoffset>
					<enabled>TRUE</enabled>
					<masterclipid>msub200012-0409d3k1006 1</masterclipid>
					<syncoffset>0</syncoffset>
					<logginginfo>
						<description>msub200012-0409d3k1006</description>
						<scene/>
						<shottake/>
						<lognote/>
						<good>FALSE</good>
					</logginginfo>
					<labels>
						<label>Best Take</label>
						<label2/>
					</labels>
					<comments>
						<mastercomment1>RÅSTOFF. BR_FINFREDAG_MSUA_OPRO</mastercomment1>
						<mastercomment2/>
						<mastercomment3/>
						<mastercomment4/>
					</comments>
					<file id="msub200012-0409d3k1006 2">
						<name>msub200012-0409d3k1006.mxf</name>
						<pathurl>file://localhost/Volumes/omfs/clip.dir/MXF/1080i/msub200012-0409d3k1006.mxf</pathurl>
						<rate>
							<timebase>25</timebase>
						</rate>
						<duration>2535</duration>
						<timecode>
							<rate>
								<timebase>25</timebase>
							</rate>
							<string>11:14:53:18</string>
							<frame>1012343</frame>
							<displayformat>NDF</displayformat>
							<source>source</source>
						</timecode>
						<media>
							<video>
								<duration>2535</duration>
								<samplecharacteristics>
									<width>1920</width>
									<height>1080</height>
								</samplecharacteristics>
							</video>
							<audio>
								<rate>
									<timebase>48000</timebase>
								</rate>
								<trackcount>1</trackcount>
								<samplecharacteristics>
									<depth>24</depth>
								</samplecharacteristics>
							</audio>
						</media>
					</file>
					<filter>
						<enabled>TRUE</enabled>
						<start>-1</start>
						<end>-1</end>
						<effect>
							<name>3 Band Equalizer - Kristine</name>
							<effecttype>filter</effecttype>
							<mediatype>audio</mediatype>
							<parameter>
								<parameterid>Low Frequency</parameterid>
								<name>Low Frequency</name>
								<valuemin>80</valuemin>
								<valuemax>2000</valuemax>
								<value>80</value>
							</parameter>
							<parameter>
								<parameterid>Low Gain(dB)</parameterid>
								<name>Low Gain(dB)</name>
								<valuemin>-20</valuemin>
								<valuemax>20</valuemax>
								<value>-4</value>
							</parameter>
							<parameter>
								<parameterid>Mid Frequency</parameterid>
								<name>Mid Frequency</name>
								<valuemin>400</valuemin>
								<valuemax>8000</valuemax>
								<value>3602</value>
							</parameter>
							<parameter>
								<parameterid>Mid Gain(dB)</parameterid>
								<name>Mid Gain(dB)</name>
								<valuemin>-20</valuemin>
								<valuemax>20</valuemax>
								<value>3</value>
							</parameter>
							<parameter>
								<parameterid>High Frequency</parameterid>
								<name>High Frequency</name>
								<valuemin>5000</valuemin>
								<valuemax>20000</valuemax>
								<value>10354</value>
							</parameter>
							<parameter>
								<parameterid>High Gain(dB)</parameterid>
								<name>High Gain(dB)</name>
								<valuemin>-20</valuemin>
								<valuemax>20</valuemax>
								<value>0</value>
							</parameter>
						</effect>
					</filter>
					<filter>
						<effect>
							<name>Audio Levels</name>
							<effectid>audiolevels</effectid>
							<effectcategory>audiolevels</effectcategory>
							<effecttype>audiolevels</effecttype>
							<mediatype>audio</mediatype>
							<parameter>
								<name>Level</name>
								<parameterid>level</parameterid>
								<valuemin>0</valuemin>
								<valuemax>3.98109</valuemax>
								<keyframe>
									<when>726</when>
									<value>1.99526</value>
								</keyframe>
								<keyframe>
									<when>738.571</when>
									<value>1.58489</value>
								</keyframe>
								<keyframe>
									<when>752.857</when>
									<value>1.58489</value>
								</keyframe>
								<keyframe>
									<when>767.714</when>
									<value>1.99526</value>
								</keyframe>
								<keyframe>
									<when>856.286</when>
									<value>1.99526</value>
								</keyframe>
								<keyframe>
									<when>870</when>
									<value>2.51189</value>
								</keyframe>
								<keyframe>
									<when>1014</when>
									<value>2.51189</value>
								</keyframe>
								<keyframe>
									<when>1027.14</when>
									<value>1.99526</value>
								</keyframe>
								<keyframe>
									<when>1074.57</when>
									<value>1.99526</value>
								</keyframe>
								<keyframe>
									<when>1082.57</when>
									<value>1.77828</value>
								</keyframe>
								<keyframe>
									<when>1107.71</when>
									<value>1.77828</value>
								</keyframe>
								<keyframe>
									<when>1115.71</when>
									<value>2.23872</value>
								</keyframe>
								<keyframe>
									<when>1395.71</when>
									<value>2.23872</value>
								</keyframe>
								<keyframe>
									<when>1402.57</when>
									<value>1.99526</value>
								</keyframe>
								<keyframe>
									<when>1440.29</when>
									<value>1.99526</value>
								</keyframe>
								<keyframe>
									<when>1445.43</when>
									<value>2.51189</value>
								</keyframe>
								<keyframe>
									<when>1808.57</when>
									<value>2.23872</value>
								</keyframe>
								<keyframe>
									<when>1815.71</when>
									<value>1.41254</value>
								</keyframe>
								<keyframe>
									<when>1877.43</when>
									<value>1.41254</value>
								</keyframe>
								<keyframe>
									<when>1881.43</when>
									<value>1.99526</value>
								</keyframe>
								<keyframe>
									<when>1975.71</when>
									<value>1.99526</value>
								</keyframe>
								<keyframe>
									<when>1980.86</when>
									<value>1.41254</value>
								</keyframe>
								<interpolation>
									<name>FCPCurve</name>
								</interpolation>
								<value>1.77828</value>
							</parameter>
						</effect>
					</filter>
					<filter>
						<effect>
							<name>Audio Pan</name>
							<effectid>audiopan</effectid>
							<effectcategory>audiopan</effectcategory>
							<effecttype>audiopan</effecttype>
							<mediatype>audio</mediatype>
							<parameter>
								<name>Pan</name>
								<parameterid>pan</parameterid>
								<valuemin>-1</valuemin>
								<valuemax>1</valuemax>
								<value>0</value>
							</parameter>
						</effect>
					</filter>
					<sourcetrack>
						<mediatype>audio</mediatype>
						<trackindex>2</trackindex>
					</sourcetrack>
				</clipitem>
				<transitionitem id="625013500 ">
					<rate>
						<ntsc>FALSE</ntsc>
						<timebase>25</timebase>
					</rate>
					<start>27514</start>
					<end>27516</end>
					<alignment>center</alignment>
					<effect>
						<name>Cross Fade (+3dB) Copy</name>
						<effecttype>transition</effecttype>
						<mediatype>audio</mediatype>
					</effect>
				</transitionitem>
				<clipitem id="msub200012-0409d3k1006 3">
					<name>msub200012-0409d3k1006</name>
					<duration>2744</duration>
					<rate>
						<ntsc>FALSE</ntsc>
						<timebase>25</timebase>
					</rate>
					<in>696</in>
					<out>2169</out>
					<start>-1</start>
					<end>-1</end>
					<subframeoffset>0</subframeoffset>
					<enabled>TRUE</enabled>
					<masterclipid>msub200012-0409d3k1006 1</masterclipid>
					<syncoffset>0</syncoffset>
					<logginginfo>
						<description>msub200012-0409d3k1006</description>
						<scene/>
						<shottake/>
						<lognote/>
						<good>FALSE</good>
					</logginginfo>
					<labels>
						<label>Best Take</label>
						<label2/>
					</labels>
					<comments>
						<mastercomment1>RÅSTOFF. BR_FINFREDAG_MSUA_OPRO</mastercomment1>
						<mastercomment2/>
						<mastercomment3/>
						<mastercomment4/>
					</comments>
					<file id="msub200012-0409d3k1006 2"/>
					<filter>
						<enabled>TRUE</enabled>
						<start>-1</start>
						<end>-1</end>
						<effect>
							<name>3 Band Equalizer - Kristine</name>
							<effecttype>filter</effecttype>
							<mediatype>audio</mediatype>
							<parameter>
								<parameterid>Low Frequency</parameterid>
								<name>Low Frequency</name>
								<valuemin>80</valuemin>
								<valuemax>2000</valuemax>
								<value>80</value>
							</parameter>
							<parameter>
								<parameterid>Low Gain(dB)</parameterid>
								<name>Low Gain(dB)</name>
								<valuemin>-20</valuemin>
								<valuemax>20</valuemax>
								<value>-4</value>
							</parameter>
							<parameter>
								<parameterid>Mid Frequency</parameterid>
								<name>Mid Frequency</name>
								<valuemin>400</valuemin>
								<valuemax>8000</valuemax>
								<value>3602</value>
							</parameter>
							<parameter>
								<parameterid>Mid Gain(dB)</parameterid>
								<name>Mid Gain(dB)</name>
								<valuemin>-20</valuemin>
								<valuemax>20</valuemax>
								<value>3</value>
							</parameter>
							<parameter>
								<parameterid>High Frequency</parameterid>
								<name>High Frequency</name>
								<valuemin>5000</valuemin>
								<valuemax>20000</valuemax>
								<value>10354</value>
							</parameter>
							<parameter>
								<parameterid>High Gain(dB)</parameterid>
								<name>High Gain(dB)</name>
								<valuemin>-20</valuemin>
								<valuemax>20</valuemax>
								<value>0</value>
							</parameter>
						</effect>
					</filter>
					<filter>
						<effect>
							<name>Audio Levels</name>
							<effectid>audiolevels</effectid>
							<effectcategory>audiolevels</effectcategory>
							<effecttype>audiolevels</effecttype>
							<mediatype>audio</mediatype>
							<parameter>
								<name>Level</name>
								<parameterid>level</parameterid>
								<valuemin>0</valuemin>
								<valuemax>3.98109</valuemax>
								<keyframe>
									<when>726</when>
									<value>1.99526</value>
								</keyframe>
								<keyframe>
									<when>738.571</when>
									<value>1.58489</value>
								</keyframe>
								<keyframe>
									<when>752.857</when>
									<value>1.58489</value>
								</keyframe>
								<keyframe>
									<when>767.714</when>
									<value>1.99526</value>
								</keyframe>
								<keyframe>
									<when>856.286</when>
									<value>1.99526</value>
								</keyframe>
								<keyframe>
									<when>870</when>
									<value>2.51189</value>
								</keyframe>
								<keyframe>
									<when>1014</when>
									<value>2.51189</value>
								</keyframe>
								<keyframe>
									<when>1027.14</when>
									<value>1.99526</value>
								</keyframe>
								<keyframe>
									<when>1074.57</when>
									<value>1.99526</value>
								</keyframe>
								<keyframe>
									<when>1082.57</when>
									<value>1.77828</value>
								</keyframe>
								<keyframe>
									<when>1107.71</when>
									<value>1.77828</value>
								</keyframe>
								<keyframe>
									<when>1115.71</when>
									<value>2.23872</value>
								</keyframe>
								<keyframe>
									<when>1395.71</when>
									<value>2.23872</value>
								</keyframe>
								<keyframe>
									<when>1402.57</when>
									<value>1.99526</value>
								</keyframe>
								<keyframe>
									<when>1440.29</when>
									<value>1.99526</value>
								</keyframe>
								<keyframe>
									<when>1445.43</when>
									<value>2.51189</value>
								</keyframe>
								<keyframe>
									<when>1808.57</when>
									<value>2.23872</value>
								</keyframe>
								<keyframe>
									<when>1815.71</when>
									<value>1.41254</value>
								</keyframe>
								<keyframe>
									<when>1877.43</when>
									<value>1.41254</value>
								</keyframe>
								<keyframe>
									<when>1881.43</when>
									<value>1.99526</value>
								</keyframe>
								<keyframe>
									<when>1975.71</when>
									<value>1.99526</value>
								</keyframe>
								<keyframe>
									<when>1980.86</when>
									<value>1.41254</value>
								</keyframe>
								<interpolation>
									<name>FCPCurve</name>
								</interpolation>
								<value>1.77828</value>
							</parameter>
						</effect>
					</filter>
					<filter>
						<effect>
							<name>Audio Pan</name>
							<effectid>audiopan</effectid>
							<effectcategory>audiopan</effectcategory>
							<effecttype>audiopan</effecttype>
							<mediatype>audio</mediatype>
							<parameter>
								<name>Pan</name>
								<parameterid>pan</parameterid>
								<valuemin>-1</valuemin>
								<valuemax>1</valuemax>
								<value>0</value>
							</parameter>
						</effect>
					</filter>
					<sourcetrack>
						<mediatype>audio</mediatype>
						<trackindex>2</trackindex>
					</sourcetrack>
				</clipitem>
				<transitionitem id="625009012 ">
					<rate>
						<ntsc>FALSE</ntsc>
						<timebase>25</timebase>
					</rate>
					<start>28981</start>
					<end>28987</end>
					<alignment>end</alignment>
					<effect>
						<name>Cross Fade (+3dB) Copy</name>
						<effecttype>transition</effecttype>
						<mediatype>audio</mediatype>
					</effect>
				</transitionitem>
				<clipitem id="msub200012-0409d3k1006 4">
					<name>msub200012-0409d3k1006</name>
					<duration>2744</duration>
					<rate>
						<ntsc>FALSE</ntsc>
						<timebase>25</timebase>
					</rate>
					<in>2475</in>
					<out>2618</out>
					<start>-1</start>
					<end>-1</end>
					<subframeoffset>0</subframeoffset>
					<enabled>TRUE</enabled>
					<masterclipid>msub200012-0409d3k1006 1</masterclipid>
					<syncoffset>0</syncoffset>
					<logginginfo>
						<description>msub200012-0409d3k1006</description>
						<scene/>
						<shottake/>
						<lognote/>
						<good>FALSE</good>
					</logginginfo>
					<labels>
						<label>Best Take</label>
						<label2/>
					</labels>
					<comments>
						<mastercomment1>RÅSTOFF. BR_FINFREDAG_MSUA_OPRO</mastercomment1>
						<mastercomment2/>
						<mastercomment3/>
						<mastercomment4/>
					</comments>
					<file id="msub200012-0409d3k1006 2"/>
					<filter>
						<enabled>TRUE</enabled>
						<start>-1</start>
						<end>-1</end>
						<effect>
							<name>3 Band Equalizer - Kristine</name>
							<effecttype>filter</effecttype>
							<mediatype>audio</mediatype>
							<parameter>
								<parameterid>Low Frequency</parameterid>
								<name>Low Frequency</name>
								<valuemin>80</valuemin>
								<valuemax>2000</valuemax>
								<value>80</value>
							</parameter>
							<parameter>
								<parameterid>Low Gain(dB)</parameterid>
								<name>Low Gain(dB)</name>
								<valuemin>-20</valuemin>
								<valuemax>20</valuemax>
								<value>-4</value>
							</parameter>
							<parameter>
								<parameterid>Mid Frequency</parameterid>
								<name>Mid Frequency</name>
								<valuemin>400</valuemin>
								<valuemax>8000</valuemax>
								<value>3602</value>
							</parameter>
							<parameter>
								<parameterid>Mid Gain(dB)</parameterid>
								<name>Mid Gain(dB)</name>
								<valuemin>-20</valuemin>
								<valuemax>20</valuemax>
								<value>3</value>
							</parameter>
							<parameter>
								<parameterid>High Frequency</parameterid>
								<name>High Frequency</name>
								<valuemin>5000</valuemin>
								<valuemax>20000</valuemax>
								<value>10354</value>
							</parameter>
							<parameter>
								<parameterid>High Gain(dB)</parameterid>
								<name>High Gain(dB)</name>
								<valuemin>-20</valuemin>
								<valuemax>20</valuemax>
								<value>0</value>
							</parameter>
						</effect>
					</filter>
					<filter>
						<effect>
							<name>Audio Levels</name>
							<effectid>audiolevels</effectid>
							<effectcategory>audiolevels</effectcategory>
							<effecttype>audiolevels</effecttype>
							<mediatype>audio</mediatype>
							<parameter>
								<name>Level</name>
								<parameterid>level</parameterid>
								<valuemin>0</valuemin>
								<valuemax>3.98109</valuemax>
								<keyframe>
									<when>2535.43</when>
									<value>2.23872</value>
								</keyframe>
								<keyframe>
									<when>2550.57</when>
									<value>2.23872</value>
								</keyframe>
								<keyframe>
									<when>2553.71</when>
									<value>3.98107</value>
								</keyframe>
								<interpolation>
									<name>FCPCurve</name>
								</interpolation>
								<value>2.23872</value>
							</parameter>
						</effect>
					</filter>
					<filter>
						<effect>
							<name>Audio Pan</name>
							<effectid>audiopan</effectid>
							<effectcategory>audiopan</effectcategory>
							<effecttype>audiopan</effecttype>
							<mediatype>audio</mediatype>
							<parameter>
								<name>Pan</name>
								<parameterid>pan</parameterid>
								<valuemin>-1</valuemin>
								<valuemax>1</valuemax>
								<value>0</value>
							</parameter>
						</effect>
					</filter>
					<sourcetrack>
						<mediatype>audio</mediatype>
						<trackindex>2</trackindex>
					</sourcetrack>
				</clipitem>
				<transitionitem id="625006700 ">
					<rate>
						<ntsc>FALSE</ntsc>
						<timebase>25</timebase>
					</rate>
					<start>29118</start>
					<end>29124</end>
					<alignment>center</alignment>
					<effect>
						<name>Cross Fade (+3dB) Copy</name>
						<effecttype>transition</effecttype>
						<mediatype>audio</mediatype>
					</effect>
				</transitionitem>
				<transitionitem id="625006428 ">
					<rate>
						<ntsc>FALSE</ntsc>
						<timebase>25</timebase>
					</rate>
					<start>36690</start>
					<end>36696</end>
					<alignment>center</alignment>
					<effect>
						<name>Cross Fade (+3dB) Copy</name>
						<effecttype>transition</effecttype>
						<mediatype>audio</mediatype>
					</effect>
				</transitionitem>
				<clipitem id="msub200012-0509d1-001 25">
					<name>msub200012-0509d1-001</name>
					<duration>9348</duration>
					<rate>
						<ntsc>FALSE</ntsc>
						<timebase>25</timebase>
					</rate>
					<in>459</in>
					<out>474</out>
					<start>-1</start>
					<end>36705</end>
					<subframeoffset>0</subframeoffset>
					<enabled>TRUE</enabled>
					<masterclipid>msub200012-0509d1-001 1</masterclipid>
					<logginginfo>
						<description>msub200012-0509d1-001</description>
						<scene/>
						<shottake/>
						<lognote/>
						<good>FALSE</good>
					</logginginfo>
					<labels>
						<label2/>
					</labels>
					<comments>
						<mastercomment1>BARN OG UNGDOM. BR_FINFREDAG_MSUA_OPRO</mastercomment1>
						<mastercomment2/>
						<mastercomment3/>
						<mastercomment4/>
					</comments>
					<file id="msub200012-0509d1-001 2"/>
					<filter>
						<enabled>TRUE</enabled>
						<start>-1</start>
						<end>-1</end>
						<effect>
							<name>3 Band Equalizer - Mann - 2</name>
							<effecttype>filter</effecttype>
							<mediatype>audio</mediatype>
							<parameter>
								<parameterid>Low Frequency</parameterid>
								<name>Low Frequency</name>
								<valuemin>80</valuemin>
								<valuemax>2000</valuemax>
								<value>131</value>
							</parameter>
							<parameter>
								<parameterid>Low Gain(dB)</parameterid>
								<name>Low Gain(dB)</name>
								<valuemin>-20</valuemin>
								<valuemax>20</valuemax>
								<value>-7</value>
							</parameter>
							<parameter>
								<parameterid>Mid Frequency</parameterid>
								<name>Mid Frequency</name>
								<valuemin>400</valuemin>
								<valuemax>8000</valuemax>
								<value>3602</value>
							</parameter>
							<parameter>
								<parameterid>Mid Gain(dB)</parameterid>
								<name>Mid Gain(dB)</name>
								<valuemin>-20</valuemin>
								<valuemax>20</valuemax>
								<value>3</value>
							</parameter>
							<parameter>
								<parameterid>High Frequency</parameterid>
								<name>High Frequency</name>
								<valuemin>5000</valuemin>
								<valuemax>20000</valuemax>
								<value>10354</value>
							</parameter>
							<parameter>
								<parameterid>High Gain(dB)</parameterid>
								<name>High Gain(dB)</name>
								<valuemin>-20</valuemin>
								<valuemax>20</valuemax>
								<value>0</value>
							</parameter>
						</effect>
					</filter>
					<filter>
						<effect>
							<name>Audio Levels</name>
							<effectid>audiolevels</effectid>
							<effectcategory>audiolevels</effectcategory>
							<effecttype>audiolevels</effecttype>
							<mediatype>audio</mediatype>
							<parameter>
								<name>Level</name>
								<parameterid>level</parameterid>
								<valuemin>0</valuemin>
								<valuemax>3.98109</valuemax>
								<keyframe>
									<when>458.536</when>
									<value>0.891251</value>
								</keyframe>
								<keyframe>
									<when>461.429</when>
									<value>0.794328</value>
								</keyframe>
								<keyframe>
									<when>507.714</when>
									<value>0.794328</value>
								</keyframe>
								<keyframe>
									<when>510.429</when>
									<value>0.891251</value>
								</keyframe>
								<interpolation>
									<name>FCPCurve</name>
								</interpolation>
								<value>0.891251</value>
							</parameter>
						</effect>
					</filter>
					<filter>
						<effect>
							<name>Audio Pan</name>
							<effectid>audiopan</effectid>
							<effectcategory>audiopan</effectcategory>
							<effecttype>audiopan</effecttype>
							<mediatype>audio</mediatype>
							<parameter>
								<name>Pan</name>
								<parameterid>pan</parameterid>
								<valuemin>-1</valuemin>
								<valuemax>1</valuemax>
								<value>0</value>
							</parameter>
						</effect>
					</filter>
					<sourcetrack>
						<mediatype>audio</mediatype>
						<trackindex>1</trackindex>
					</sourcetrack>
				</clipitem>
				<transitionitem id="624999152 ">
					<rate>
						<ntsc>FALSE</ntsc>
						<timebase>25</timebase>
					</rate>
					<start>39448</start>
					<end>39454</end>
					<alignment>start-black</alignment>
					<effect>
						<name>Cross Fade (+3dB) Copy</name>
						<effecttype>transition</effecttype>
						<mediatype>audio</mediatype>
					</effect>
				</transitionitem>
				<clipitem id="msub200012-0409d2k1006 3">
					<name>msub200012-0409d2k1006</name>
					<duration>1289</duration>
					<rate>
						<ntsc>FALSE</ntsc>
						<timebase>25</timebase>
					</rate>
					<in>339</in>
					<out>1016</out>
					<start>-1</start>
					<end>-1</end>
					<subframeoffset>0</subframeoffset>
					<enabled>TRUE</enabled>
					<masterclipid>msub200012-0409d2k1006 1</masterclipid>
					<syncoffset>0</syncoffset>
					<logginginfo>
						<description>msub200012-0409d2k1006</description>
						<scene/>
						<shottake/>
						<lognote/>
						<good>FALSE</good>
					</logginginfo>
					<labels>
						<label>Good Take</label>
						<label2/>
					</labels>
					<comments>
						<mastercomment1>RÅSTOFF. BR_FINFREDAG_MSUA_OPRO</mastercomment1>
						<mastercomment2/>
						<mastercomment3/>
						<mastercomment4/>
					</comments>
					<file id="msub200012-0409d2k1006 2"/>
					<filter>
						<effect>
							<name>Audio Levels</name>
							<effectid>audiolevels</effectid>
							<effectcategory>audiolevels</effectcategory>
							<effecttype>audiolevels</effecttype>
							<mediatype>audio</mediatype>
							<parameter>
								<name>Level</name>
								<parameterid>level</parameterid>
								<valuemin>0</valuemin>
								<valuemax>3.98109</valuemax>
								<keyframe>
									<when>489.5</when>
									<value>1.99526</value>
								</keyframe>
								<keyframe>
									<when>495</when>
									<value>1.58489</value>
								</keyframe>
								<keyframe>
									<when>988.625</when>
									<value>1.58489</value>
								</keyframe>
								<keyframe>
									<when>1005.12</when>
									<value>0.891251</value>
								</keyframe>
								<keyframe>
									<when>1047.75</when>
									<value>0.891251</value>
								</keyframe>
								<keyframe>
									<when>1058.75</when>
									<value>1.77828</value>
								</keyframe>
								<interpolation>
									<name>FCPCurve</name>
								</interpolation>
								<value>1.77828</value>
							</parameter>
						</effect>
					</filter>
					<filter>
						<effect>
							<name>Audio Pan</name>
							<effectid>audiopan</effectid>
							<effectcategory>audiopan</effectcategory>
							<effecttype>audiopan</effecttype>
							<mediatype>audio</mediatype>
							<parameter>
								<name>Pan</name>
								<parameterid>pan</parameterid>
								<valuemin>-1</valuemin>
								<valuemax>1</valuemax>
								<value>0</value>
							</parameter>
						</effect>
					</filter>
					<sourcetrack>
						<mediatype>audio</mediatype>
						<trackindex>2</trackindex>
					</sourcetrack>
					<link>
						<linkclipref>msub200012-0409d2k1006 </linkclipref>
						<mediatype>audio</mediatype>
						<trackindex>1</trackindex>
						<clipindex>143</clipindex>
					</link>
					<link>
						<linkclipref>msub200012-0409d2k1006 3</linkclipref>
						<mediatype>audio</mediatype>
						<trackindex>2</trackindex>
						<clipindex>172</clipindex>
					</link>
					<link>
						<linkclipref>msub200012-0409d2k1006 4</linkclipref>
						<mediatype>audio</mediatype>
						<trackindex>3</trackindex>
						<clipindex>73</clipindex>
					</link>
				</clipitem>
				<transitionitem id="8">
					<rate>
						<ntsc>FALSE</ntsc>
						<timebase>25</timebase>
					</rate>
					<start>40109</start>
					<end>40125</end>
					<alignment>center</alignment>
					<effect>
						<name>Cross Fade (+3dB) Copy</name>
						<effecttype>transition</effecttype>
						<mediatype>audio</mediatype>
					</effect>
				</transitionitem>
				<clipitem id="Swish Lo 5 ">
					<name>Swish Lo 5</name>
					<duration>7</duration>
					<rate>
						<ntsc>FALSE</ntsc>
						<timebase>25</timebase>
					</rate>
					<in>0</in>
					<out>7</out>
					<start>40152</start>
					<end>40159</end>
					<masterclipid>Swish Lo 5 1</masterclipid>
					<logginginfo>
						<scene/>
						<shottake/>
						<lognote/>
						<good>FALSE</good>
					</logginginfo>
					<labels>
						<label2/>
					</labels>
					<comments>
						<mastercomment1/>
						<mastercomment2/>
						<mastercomment3/>
						<mastercomment4/>
					</comments>
					<file id="Swish Lo 5 2">
						<name>Swish Lo 5</name>
						<pathurl>file://localhost/Volumes/SuperSAN1/Prosjekter/MSUB20000012%20FIN%20FREDAG/SFX/Svisj/Swish%20Lo%205</pathurl>
						<rate>
							<timebase>25</timebase>
						</rate>
						<duration>15</duration>
						<media>
							<audio>
								<rate>
									<timebase>44100</timebase>
								</rate>
								<trackcount>1</trackcount>
								<samplecharacteristics>
									<depth>16</depth>
								</samplecharacteristics>
							</audio>
						</media>
					</file>
					<filter>
						<effect>
							<name>Audio Levels</name>
							<effectid>audiolevels</effectid>
							<effectcategory>audiolevels</effectcategory>
							<effecttype>audiolevels</effecttype>
							<mediatype>audio</mediatype>
							<parameter>
								<name>Level</name>
								<parameterid>level</parameterid>
								<valuemin>0</valuemin>
								<valuemax>3.98109</valuemax>
								<value>0.281838</value>
							</parameter>
						</effect>
					</filter>
					<filter>
						<effect>
							<name>Audio Pan</name>
							<effectid>audiopan</effectid>
							<effectcategory>audiopan</effectcategory>
							<effecttype>audiopan</effecttype>
							<mediatype>audio</mediatype>
							<parameter>
								<name>Pan</name>
								<parameterid>pan</parameterid>
								<valuemin>-1</valuemin>
								<valuemax>1</valuemax>
								<value>0</value>
							</parameter>
						</effect>
					</filter>
					<sourcetrack>
						<mediatype>audio</mediatype>
						<trackindex>1</trackindex>
					</sourcetrack>
					<filter>
						<effect>
							<name>Time Remap</name>
							<effectid>timeremap</effectid>
							<effectcategory>motion</effectcategory>
							<effecttype>motion</effecttype>
							<mediatype>audio</mediatype>
							<parameter>
								<parameterid>variablespeed</parameterid>
								<name>variablespeed</name>
								<valuemin>0</valuemin>
								<valuemax>1</valuemax>
								<value>0</value>
							</parameter>
							<parameter>
								<parameterid>mappedduration</parameterid>
								<name>mappedduration</name>
								<value>
									<timecode>
										<rate>
											<timebase>0</timebase>
										</rate>
										<string>0</string>
										<frame>0</frame>
										<displayformat>NDF</displayformat>
									</timecode>
								</value>
							</parameter>
							<parameter>
								<parameterid>speed</parameterid>
								<name>speed</name>
								<valuemin>-10000</valuemin>
								<valuemax>10000</valuemax>
								<value>233</value>
							</parameter>
							<parameter>
								<parameterid>reverse</parameterid>
								<name>reverse</name>
								<value>TRUE</value>
							</parameter>
							<parameter>
								<parameterid>frameblending</parameterid>
								<name>frameblending</name>
								<value>TRUE</value>
							</parameter>
							<parameter>
								<parameterid>graphdict</parameterid>
								<name>graphdict</name>
								<valuemin>0</valuemin>
								<valuemax>14</valuemax>
								<keyframe>
									<when>0</when>
									<value>16</value>
									<speedkfin>TRUE</speedkfin>
								</keyframe>
								<keyframe>
									<when>7</when>
									<value>1</value>
									<speedkfout>TRUE</speedkfout>
									<speedvirtualkf>TRUE</speedvirtualkf>
								</keyframe>
								<interpolation>
									<name>FCPCurve</name>
								</interpolation>
								<value>14</value>
							</parameter>
						</effect>
					</filter>
				</clipitem>
				<clipitem id="Zipper Jacket 2.aif">
					<name>Zipper Jacket 2.aif</name>
					<duration>14</duration>
					<rate>
						<ntsc>FALSE</ntsc>
						<timebase>25</timebase>
					</rate>
					<in>8</in>
					<out>14</out>
					<start>40207</start>
					<end>40213</end>
					<masterclipid>Zipper Jacket 2.aif1</masterclipid>
					<logginginfo>
						<scene/>
						<shottake/>
						<lognote/>
						<good>FALSE</good>
					</logginginfo>
					<labels>
						<label2/>
					</labels>
					<comments>
						<mastercomment1/>
						<mastercomment2/>
						<mastercomment3/>
						<mastercomment4/>
					</comments>
					<file id="Zipper Jacket 2 ">
						<name>Zipper Jacket 2.aif</name>
						<pathurl>file://localhost/Volumes/SuperSAN1/Prosjekter/MSUB20000012%20FIN%20FREDAG/SFX/Zipper%20Jacket%202.aif</pathurl>
						<rate>
							<timebase>25</timebase>
						</rate>
						<duration>37</duration>
						<media>
							<audio>
								<rate>
									<timebase>48000</timebase>
								</rate>
								<trackcount>2</trackcount>
								<samplecharacteristics>
									<depth>32</depth>
								</samplecharacteristics>
							</audio>
						</media>
					</file>
					<filter>
						<effect>
							<name>Audio Levels</name>
							<effectid>audiolevels</effectid>
							<effectcategory>audiolevels</effectcategory>
							<effecttype>audiolevels</effecttype>
							<mediatype>audio</mediatype>
							<parameter>
								<name>Level</name>
								<parameterid>level</parameterid>
								<valuemin>0</valuemin>
								<valuemax>3.98109</valuemax>
								<value>0.158489</value>
							</parameter>
						</effect>
					</filter>
					<filter>
						<effect>
							<name>Audio Pan</name>
							<effectid>audiopan</effectid>
							<effectcategory>audiopan</effectcategory>
							<effecttype>audiopan</effecttype>
							<mediatype>audio</mediatype>
							<parameter>
								<name>Pan</name>
								<parameterid>pan</parameterid>
								<valuemin>-1</valuemin>
								<valuemax>1</valuemax>
								<value>-1</value>
							</parameter>
						</effect>
					</filter>
					<sourcetrack>
						<mediatype>audio</mediatype>
						<trackindex>1</trackindex>
					</sourcetrack>
					<link>
						<linkclipref>Zipper Jacket 2.aif</linkclipref>
						<mediatype>audio</mediatype>
						<trackindex>2</trackindex>
						<clipindex>175</clipindex>
						<groupindex>1</groupindex>
					</link>
					<link>
						<linkclipref>Zipper Jacket 2.aif2</linkclipref>
						<mediatype>audio</mediatype>
						<trackindex>3</trackindex>
						<clipindex>76</clipindex>
						<groupindex>1</groupindex>
					</link>
					<filter>
						<effect>
							<name>Time Remap</name>
							<effectid>timeremap</effectid>
							<effectcategory>motion</effectcategory>
							<effecttype>motion</effecttype>
							<mediatype>audio</mediatype>
							<parameter>
								<parameterid>variablespeed</parameterid>
								<name>variablespeed</name>
								<valuemin>0</valuemin>
								<valuemax>1</valuemax>
								<value>0</value>
							</parameter>
							<parameter>
								<parameterid>mappedduration</parameterid>
								<name>mappedduration</name>
								<value>
									<timecode>
										<rate>
											<timebase>0</timebase>
										</rate>
										<string>0</string>
										<frame>0</frame>
										<displayformat>NDF</displayformat>
									</timecode>
								</value>
							</parameter>
							<parameter>
								<parameterid>speed</parameterid>
								<name>speed</name>
								<valuemin>-10000</valuemin>
								<valuemax>10000</valuemax>
								<value>276</value>
							</parameter>
							<parameter>
								<parameterid>reverse</parameterid>
								<name>reverse</name>
								<value>TRUE</value>
							</parameter>
							<parameter>
								<parameterid>frameblending</parameterid>
								<name>frameblending</name>
								<value>TRUE</value>
							</parameter>
							<parameter>
								<parameterid>graphdict</parameterid>
								<name>graphdict</name>
								<valuemin>0</valuemin>
								<valuemax>36</valuemax>
								<keyframe>
									<when>0</when>
									<value>40.1538</value>
									<speedkfstart>TRUE</speedkfstart>
									<speedvirtualkf>TRUE</speedvirtualkf>
								</keyframe>
								<keyframe>
									<when>8</when>
									<value>17</value>
									<speedkfin>TRUE</speedkfin>
									<speedvirtualkf>TRUE</speedvirtualkf>
								</keyframe>
								<keyframe>
									<when>14</when>
									<value>3.1538</value>
									<speedkfout>TRUE</speedkfout>
									<speedvirtualkf>TRUE</speedvirtualkf>
								</keyframe>
								<interpolation>
									<name>FCPCurve</name>
								</interpolation>
								<value>16</value>
							</parameter>
						</effect>
					</filter>
				</clipitem>
				<transitionitem id="624994188 ">
					<rate>
						<ntsc>FALSE</ntsc>
						<timebase>25</timebase>
					</rate>
					<start>40377</start>
					<end>40402</end>
					<alignment>start-black</alignment>
					<effect>
						<name>Cross Fade (+3dB)</name>
						<effecttype>transition</effecttype>
						<mediatype>audio</mediatype>
					</effect>
				</transitionitem>
				<clipitem id="msub200012-1708k1d2035 ">
					<name>msub200012-1708k1d2035</name>
					<duration>414</duration>
					<rate>
						<ntsc>FALSE</ntsc>
						<timebase>25</timebase>
					</rate>
					<in>102</in>
					<out>237</out>
					<start>-1</start>
					<end>40512</end>
					<subframeoffset>0</subframeoffset>
					<enabled>TRUE</enabled>
					<masterclipid>msub200012-1708k1d2035 1</masterclipid>
					<logginginfo>
						<description>msub200012-1708k1d2035</description>
						<scene/>
						<shottake/>
						<lognote/>
						<good>FALSE</good>
					</logginginfo>
					<labels>
						<label2/>
					</labels>
					<comments>
						<mastercomment1>RÅSTOFF. BR_FINFREDAG_MSUA_OPRO</mastercomment1>
						<mastercomment2/>
						<mastercomment3/>
						<mastercomment4/>
					</comments>
					<file id="msub200012-1708k1d2035 2">
						<name>msub200012-1708k1d2035.mxf</name>
						<pathurl>file://localhost/Volumes/omfs/clip.dir/MXF/1080i/msub200012-1708k1d2035.mxf</pathurl>
						<rate>
							<timebase>25</timebase>
						</rate>
						<duration>414</duration>
						<timecode>
							<rate>
								<timebase>25</timebase>
							</rate>
							<string>01:53:26:23</string>
							<frame>170173</frame>
							<displayformat>NDF</displayformat>
							<source>source</source>
						</timecode>
						<media>
							<video>
								<duration>414</duration>
								<samplecharacteristics>
									<width>1920</width>
									<height>1080</height>
								</samplecharacteristics>
							</video>
							<audio>
								<rate>
									<timebase>48000</timebase>
								</rate>
								<trackcount>1</trackcount>
								<samplecharacteristics>
									<depth>24</depth>
								</samplecharacteristics>
							</audio>
						</media>
					</file>
					<filter>
						<effect>
							<name>Audio Levels</name>
							<effectid>audiolevels</effectid>
							<effectcategory>audiolevels</effectcategory>
							<effecttype>audiolevels</effecttype>
							<mediatype>audio</mediatype>
							<parameter>
								<name>Level</name>
								<parameterid>level</parameterid>
								<valuemin>0</valuemin>
								<valuemax>3.98109</valuemax>
								<value>1</value>
							</parameter>
						</effect>
					</filter>
					<filter>
						<effect>
							<name>Audio Pan</name>
							<effectid>audiopan</effectid>
							<effectcategory>audiopan</effectcategory>
							<effecttype>audiopan</effecttype>
							<mediatype>audio</mediatype>
							<parameter>
								<name>Pan</name>
								<parameterid>pan</parameterid>
								<valuemin>-1</valuemin>
								<valuemax>1</valuemax>
								<value>0</value>
							</parameter>
						</effect>
					</filter>
					<sourcetrack>
						<mediatype>audio</mediatype>
						<trackindex>2</trackindex>
					</sourcetrack>
				</clipitem>
				<clipitem id="msub200012-1708k1d2037 ">
					<name>msub200012-1708k1d2037</name>
					<duration>346</duration>
					<rate>
						<ntsc>FALSE</ntsc>
						<timebase>25</timebase>
					</rate>
					<in>256</in>
					<out>292</out>
					<start>40512</start>
					<end>-1</end>
					<subframeoffset>0</subframeoffset>
					<masterclipid>msub200012-1708k1d2037 1</masterclipid>
					<logginginfo>
						<description>msub200012-1708k1d2037</description>
						<scene/>
						<shottake/>
						<lognote/>
						<good>FALSE</good>
					</logginginfo>
					<labels>
						<label2/>
					</labels>
					<comments>
						<mastercomment1>RÅSTOFF. BR_FINFREDAG_MSUA_OPRO</mastercomment1>
						<mastercomment2/>
						<mastercomment3/>
						<mastercomment4/>
					</comments>
					<file id="msub200012-1708k1d2037 2">
						<name>msub200012-1708k1d2037.mxf</name>
						<pathurl>file://localhost/Volumes/omfs/clip.dir/MXF/1080i/msub200012-1708k1d2037.mxf</pathurl>
						<rate>
							<timebase>25</timebase>
						</rate>
						<duration>346</duration>
						<timecode>
							<rate>
								<timebase>25</timebase>
							</rate>
							<string>01:53:52:03</string>
							<frame>170803</frame>
							<displayformat>NDF</displayformat>
							<source>source</source>
						</timecode>
						<media>
							<video>
								<duration>346</duration>
								<samplecharacteristics>
									<width>1920</width>
									<height>1080</height>
								</samplecharacteristics>
							</video>
							<audio>
								<rate>
									<timebase>48000</timebase>
								</rate>
								<trackcount>1</trackcount>
								<samplecharacteristics>
									<depth>24</depth>
								</samplecharacteristics>
							</audio>
						</media>
					</file>
					<filter>
						<effect>
							<name>Audio Levels</name>
							<effectid>audiolevels</effectid>
							<effectcategory>audiolevels</effectcategory>
							<effecttype>audiolevels</effecttype>
							<mediatype>audio</mediatype>
							<parameter>
								<name>Level</name>
								<parameterid>level</parameterid>
								<valuemin>0</valuemin>
								<valuemax>3.98109</valuemax>
								<value>1</value>
							</parameter>
						</effect>
					</filter>
					<filter>
						<effect>
							<name>Audio Pan</name>
							<effectid>audiopan</effectid>
							<effectcategory>audiopan</effectcategory>
							<effecttype>audiopan</effecttype>
							<mediatype>audio</mediatype>
							<parameter>
								<name>Pan</name>
								<parameterid>pan</parameterid>
								<valuemin>-1</valuemin>
								<valuemax>1</valuemax>
								<value>0</value>
							</parameter>
						</effect>
					</filter>
					<sourcetrack>
						<mediatype>audio</mediatype>
						<trackindex>2</trackindex>
					</sourcetrack>
				</clipitem>
				<transitionitem id="625017104 ">
					<rate>
						<ntsc>FALSE</ntsc>
						<timebase>25</timebase>
					</rate>
					<start>40523</start>
					<end>40548</end>
					<alignment>center</alignment>
					<effect>
						<name>Cross Fade (+3dB)</name>
						<effecttype>transition</effecttype>
						<mediatype>audio</mediatype>
					</effect>
				</transitionitem>
				<clipitem id="msub200012-1708k1d2035 3">
					<name>msub200012-1708k1d2035</name>
					<duration>414</duration>
					<rate>
						<ntsc>FALSE</ntsc>
						<timebase>25</timebase>
					</rate>
					<in>235</in>
					<out>320</out>
					<start>-1</start>
					<end>-1</end>
					<subframeoffset>0</subframeoffset>
					<enabled>TRUE</enabled>
					<masterclipid>msub200012-1708k1d2035 1</masterclipid>
					<logginginfo>
						<description>msub200012-1708k1d2035</description>
						<scene/>
						<shottake/>
						<lognote/>
						<good>FALSE</good>
					</logginginfo>
					<labels>
						<label2/>
					</labels>
					<comments>
						<mastercomment1>RÅSTOFF. BR_FINFREDAG_MSUA_OPRO</mastercomment1>
						<mastercomment2/>
						<mastercomment3/>
						<mastercomment4/>
					</comments>
					<file id="msub200012-1708k1d2035 2"/>
					<filter>
						<effect>
							<name>Audio Levels</name>
							<effectid>audiolevels</effectid>
							<effectcategory>audiolevels</effectcategory>
							<effecttype>audiolevels</effecttype>
							<mediatype>audio</mediatype>
							<parameter>
								<name>Level</name>
								<parameterid>level</parameterid>
								<valuemin>0</valuemin>
								<valuemax>3.98109</valuemax>
								<value>1</value>
							</parameter>
						</effect>
					</filter>
					<filter>
						<effect>
							<name>Audio Pan</name>
							<effectid>audiopan</effectid>
							<effectcategory>audiopan</effectcategory>
							<effecttype>audiopan</effecttype>
							<mediatype>audio</mediatype>
							<parameter>
								<name>Pan</name>
								<parameterid>pan</parameterid>
								<valuemin>-1</valuemin>
								<valuemax>1</valuemax>
								<value>0</value>
							</parameter>
						</effect>
					</filter>
					<sourcetrack>
						<mediatype>audio</mediatype>
						<trackindex>2</trackindex>
					</sourcetrack>
				</clipitem>
				<transitionitem id="625015404 ">
					<rate>
						<ntsc>FALSE</ntsc>
						<timebase>25</timebase>
					</rate>
					<start>40583</start>
					<end>40608</end>
					<alignment>center</alignment>
					<effect>
						<name>Cross Fade (+3dB)</name>
						<effecttype>transition</effecttype>
						<mediatype>audio</mediatype>
					</effect>
				</transitionitem>
				<clipitem id="msub200012-1708k1d2038 ">
					<name>msub200012-1708k1d2038</name>
					<duration>259</duration>
					<rate>
						<ntsc>FALSE</ntsc>
						<timebase>25</timebase>
					</rate>
					<in>125</in>
					<out>209</out>
					<start>-1</start>
					<end>-1</end>
					<subframeoffset>0</subframeoffset>
					<enabled>TRUE</enabled>
					<masterclipid>msub200012-1708k1d2038 1</masterclipid>
					<logginginfo>
						<description>msub200012-1708k1d2038</description>
						<scene/>
						<shottake/>
						<lognote/>
						<good>FALSE</good>
					</logginginfo>
					<labels>
						<label2/>
					</labels>
					<comments>
						<mastercomment1>RÅSTOFF. BR_FINFREDAG_MSUA_OPRO</mastercomment1>
						<mastercomment2/>
						<mastercomment3/>
						<mastercomment4/>
					</comments>
					<file id="msub200012-1708k1d2038 2">
						<name>msub200012-1708k1d2038.mxf</name>
						<pathurl>file://localhost/Volumes/omfs/clip.dir/MXF/1080i/msub200012-1708k1d2038.mxf</pathurl>
						<rate>
							<timebase>25</timebase>
						</rate>
						<duration>1030</duration>
						<timecode>
							<rate>
								<timebase>25</timebase>
							</rate>
							<string>01:54:05:24</string>
							<frame>171149</frame>
							<displayformat>NDF</displayformat>
							<source>source</source>
						</timecode>
						<media>
							<video>
								<duration>1030</duration>
								<samplecharacteristics>
									<width>1920</width>
									<height>1080</height>
								</samplecharacteristics>
							</video>
							<audio>
								<rate>
									<timebase>48000</timebase>
								</rate>
								<trackcount>1</trackcount>
								<samplecharacteristics>
									<depth>24</depth>
								</samplecharacteristics>
							</audio>
						</media>
					</file>
					<filter>
						<effect>
							<name>Audio Levels</name>
							<effectid>audiolevels</effectid>
							<effectcategory>audiolevels</effectcategory>
							<effecttype>audiolevels</effecttype>
							<mediatype>audio</mediatype>
							<parameter>
								<name>Level</name>
								<parameterid>level</parameterid>
								<valuemin>0</valuemin>
								<valuemax>3.98109</valuemax>
								<value>1</value>
							</parameter>
						</effect>
					</filter>
					<filter>
						<effect>
							<name>Audio Pan</name>
							<effectid>audiopan</effectid>
							<effectcategory>audiopan</effectcategory>
							<effecttype>audiopan</effecttype>
							<mediatype>audio</mediatype>
							<parameter>
								<name>Pan</name>
								<parameterid>pan</parameterid>
								<valuemin>-1</valuemin>
								<valuemax>1</valuemax>
								<value>0</value>
							</parameter>
						</effect>
					</filter>
					<sourcetrack>
						<mediatype>audio</mediatype>
						<trackindex>2</trackindex>
					</sourcetrack>
					<filter>
						<effect>
							<name>Time Remap</name>
							<effectid>timeremap</effectid>
							<effectcategory>motion</effectcategory>
							<effecttype>motion</effecttype>
							<mediatype>audio</mediatype>
							<parameter>
								<parameterid>variablespeed</parameterid>
								<name>variablespeed</name>
								<valuemin>0</valuemin>
								<valuemax>1</valuemax>
								<value>0</value>
							</parameter>
							<parameter>
								<parameterid>mappedduration</parameterid>
								<name>mappedduration</name>
								<value>
									<timecode>
										<rate>
											<timebase>0</timebase>
										</rate>
										<string>0</string>
										<frame>0</frame>
										<displayformat>NDF</displayformat>
									</timecode>
								</value>
							</parameter>
							<parameter>
								<parameterid>speed</parameterid>
								<name>speed</name>
								<valuemin>-10000</valuemin>
								<valuemax>10000</valuemax>
								<value>398</value>
							</parameter>
							<parameter>
								<parameterid>reverse</parameterid>
								<name>reverse</name>
								<value>FALSE</value>
							</parameter>
							<parameter>
								<parameterid>frameblending</parameterid>
								<name>frameblending</name>
								<value>TRUE</value>
							</parameter>
							<parameter>
								<parameterid>graphdict</parameterid>
								<name>graphdict</name>
								<valuemin>0</valuemin>
								<valuemax>1029</valuemax>
								<keyframe>
									<when>0</when>
									<value>1.593</value>
									<speedkfstart>TRUE</speedkfstart>
									<speedvirtualkf>TRUE</speedvirtualkf>
								</keyframe>
								<keyframe>
									<when>125</when>
									<value>500.139</value>
									<speedkfin>TRUE</speedkfin>
									<speedvirtualkf>TRUE</speedvirtualkf>
								</keyframe>
								<keyframe>
									<when>209</when>
									<value>835.163</value>
									<speedkfout>TRUE</speedkfout>
									<speedvirtualkf>TRUE</speedvirtualkf>
								</keyframe>
								<keyframe>
									<when>259</when>
									<value>1031.59</value>
									<speedkfend>TRUE</speedkfend>
									<speedvirtualkf>TRUE</speedvirtualkf>
								</keyframe>
								<interpolation>
									<name>FCPCurve</name>
								</interpolation>
								<value>500.139</value>
							</parameter>
						</effect>
					</filter>
				</clipitem>
				<transitionitem id="625003980 ">
					<rate>
						<ntsc>FALSE</ntsc>
						<timebase>25</timebase>
					</rate>
					<start>40642</start>
					<end>40667</end>
					<alignment>center</alignment>
					<effect>
						<name>Cross Fade (+3dB)</name>
						<effecttype>transition</effecttype>
						<mediatype>audio</mediatype>
					</effect>
				</transitionitem>
				<clipitem id="msub200012-1708k1d2038 3">
					<name>msub200012-1708k1d2038</name>
					<duration>1030</duration>
					<rate>
						<ntsc>FALSE</ntsc>
						<timebase>25</timebase>
					</rate>
					<in>768</in>
					<out>839</out>
					<start>-1</start>
					<end>-1</end>
					<subframeoffset>0</subframeoffset>
					<masterclipid>msub200012-1708k1d2038 1</masterclipid>
					<logginginfo>
						<description>msub200012-1708k1d2038</description>
						<scene/>
						<shottake/>
						<lognote/>
						<good>FALSE</good>
					</logginginfo>
					<labels>
						<label2/>
					</labels>
					<comments>
						<mastercomment1>RÅSTOFF. BR_FINFREDAG_MSUA_OPRO</mastercomment1>
						<mastercomment2/>
						<mastercomment3/>
						<mastercomment4/>
					</comments>
					<file id="msub200012-1708k1d2038 2"/>
					<filter>
						<effect>
							<name>Audio Levels</name>
							<effectid>audiolevels</effectid>
							<effectcategory>audiolevels</effectcategory>
							<effecttype>audiolevels</effecttype>
							<mediatype>audio</mediatype>
							<parameter>
								<name>Level</name>
								<parameterid>level</parameterid>
								<valuemin>0</valuemin>
								<valuemax>3.98109</valuemax>
								<value>1</value>
							</parameter>
						</effect>
					</filter>
					<filter>
						<effect>
							<name>Audio Pan</name>
							<effectid>audiopan</effectid>
							<effectcategory>audiopan</effectcategory>
							<effecttype>audiopan</effecttype>
							<mediatype>audio</mediatype>
							<parameter>
								<name>Pan</name>
								<parameterid>pan</parameterid>
								<valuemin>-1</valuemin>
								<valuemax>1</valuemax>
								<value>0</value>
							</parameter>
						</effect>
					</filter>
					<sourcetrack>
						<mediatype>audio</mediatype>
						<trackindex>2</trackindex>
					</sourcetrack>
				</clipitem>
				<transitionitem id="625003504 ">
					<rate>
						<ntsc>FALSE</ntsc>
						<timebase>25</timebase>
					</rate>
					<start>40688</start>
					<end>40713</end>
					<alignment>center</alignment>
					<effect>
						<name>Cross Fade (+3dB)</name>
						<effecttype>transition</effecttype>
						<mediatype>audio</mediatype>
					</effect>
				</transitionitem>
				<clipitem id="msub200012-1708k1d2039 ">
					<name>msub200012-1708k1d2039</name>
					<duration>560</duration>
					<rate>
						<ntsc>FALSE</ntsc>
						<timebase>25</timebase>
					</rate>
					<in>162</in>
					<out>264</out>
					<start>-1</start>
					<end>-1</end>
					<subframeoffset>0</subframeoffset>
					<masterclipid>msub200012-1708k1d2039 1</masterclipid>
					<logginginfo>
						<description>msub200012-1708k1d2039</description>
						<scene/>
						<shottake/>
						<lognote/>
						<good>FALSE</good>
					</logginginfo>
					<labels>
						<label2/>
					</labels>
					<comments>
						<mastercomment1>RÅSTOFF. BR_FINFREDAG_MSUA_OPRO</mastercomment1>
						<mastercomment2/>
						<mastercomment3/>
						<mastercomment4/>
					</comments>
					<file id="msub200012-1708k1d2039 2">
						<name>msub200012-1708k1d2039.mxf</name>
						<pathurl>file://localhost/Volumes/omfs/clip.dir/MXF/1080i/msub200012-1708k1d2039.mxf</pathurl>
						<rate>
							<timebase>25</timebase>
						</rate>
						<duration>560</duration>
						<timecode>
							<rate>
								<timebase>25</timebase>
							</rate>
							<string>01:54:47:04</string>
							<frame>172179</frame>
							<displayformat>NDF</displayformat>
							<source>source</source>
						</timecode>
						<media>
							<video>
								<duration>560</duration>
								<samplecharacteristics>
									<width>1920</width>
									<height>1080</height>
								</samplecharacteristics>
							</video>
							<audio>
								<rate>
									<timebase>48000</timebase>
								</rate>
								<trackcount>1</trackcount>
								<samplecharacteristics>
									<depth>24</depth>
								</samplecharacteristics>
							</audio>
						</media>
					</file>
					<filter>
						<effect>
							<name>Audio Levels</name>
							<effectid>audiolevels</effectid>
							<effectcategory>audiolevels</effectcategory>
							<effecttype>audiolevels</effecttype>
							<mediatype>audio</mediatype>
							<parameter>
								<name>Level</name>
								<parameterid>level</parameterid>
								<valuemin>0</valuemin>
								<valuemax>3.98109</valuemax>
								<value>1</value>
							</parameter>
						</effect>
					</filter>
					<filter>
						<effect>
							<name>Audio Pan</name>
							<effectid>audiopan</effectid>
							<effectcategory>audiopan</effectcategory>
							<effecttype>audiopan</effecttype>
							<mediatype>audio</mediatype>
							<parameter>
								<name>Pan</name>
								<parameterid>pan</parameterid>
								<valuemin>-1</valuemin>
								<valuemax>1</valuemax>
								<value>0</value>
							</parameter>
						</effect>
					</filter>
					<sourcetrack>
						<mediatype>audio</mediatype>
						<trackindex>2</trackindex>
					</sourcetrack>
				</clipitem>
				<transitionitem id="624990040 ">
					<rate>
						<ntsc>FALSE</ntsc>
						<timebase>25</timebase>
					</rate>
					<start>40765</start>
					<end>40790</end>
					<alignment>center</alignment>
					<effect>
						<name>Cross Fade (+3dB)</name>
						<effecttype>transition</effecttype>
						<mediatype>audio</mediatype>
					</effect>
				</transitionitem>
				<clipitem id="msub200012-1708k1d2041 ">
					<name>msub200012-1708k1d2041</name>
					<duration>239</duration>
					<rate>
						<ntsc>FALSE</ntsc>
						<timebase>25</timebase>
					</rate>
					<in>74</in>
					<out>150</out>
					<start>-1</start>
					<end>40841</end>
					<subframeoffset>0</subframeoffset>
					<enabled>TRUE</enabled>
					<masterclipid>msub200012-1708k1d2041 1</masterclipid>
					<logginginfo>
						<description>msub200012-1708k1d2041</description>
						<scene/>
						<shottake/>
						<lognote/>
						<good>FALSE</good>
					</logginginfo>
					<labels>
						<label2/>
					</labels>
					<comments>
						<mastercomment1>RÅSTOFF. BR_FINFREDAG_MSUA_OPRO</mastercomment1>
						<mastercomment2/>
						<mastercomment3/>
						<mastercomment4/>
					</comments>
					<file id="msub200012-1708k1d2041 2">
						<name>msub200012-1708k1d2041.mxf</name>
						<pathurl>file://localhost/Volumes/omfs/clip.dir/MXF/1080i/msub200012-1708k1d2041.mxf</pathurl>
						<rate>
							<timebase>25</timebase>
						</rate>
						<duration>239</duration>
						<timecode>
							<rate>
								<timebase>25</timebase>
							</rate>
							<string>01:55:20:04</string>
							<frame>173004</frame>
							<displayformat>NDF</displayformat>
							<source>source</source>
						</timecode>
						<media>
							<video>
								<duration>239</duration>
								<samplecharacteristics>
									<width>1920</width>
									<height>1080</height>
								</samplecharacteristics>
							</video>
							<audio>
								<rate>
									<timebase>48000</timebase>
								</rate>
								<trackcount>1</trackcount>
								<samplecharacteristics>
									<depth>24</depth>
								</samplecharacteristics>
							</audio>
						</media>
					</file>
					<filter>
						<effect>
							<name>Audio Levels</name>
							<effectid>audiolevels</effectid>
							<effectcategory>audiolevels</effectcategory>
							<effecttype>audiolevels</effecttype>
							<mediatype>audio</mediatype>
							<parameter>
								<name>Level</name>
								<parameterid>level</parameterid>
								<valuemin>0</valuemin>
								<valuemax>3.98109</valuemax>
								<keyframe>
									<when>130.857</when>
									<value>3.16228</value>
								</keyframe>
								<keyframe>
									<when>153.25</when>
									<value>0.199526</value>
								</keyframe>
								<interpolation>
									<name>FCPCurve</name>
								</interpolation>
								<value>3.98107</value>
							</parameter>
						</effect>
					</filter>
					<filter>
						<effect>
							<name>Audio Pan</name>
							<effectid>audiopan</effectid>
							<effectcategory>audiopan</effectcategory>
							<effecttype>audiopan</effecttype>
							<mediatype>audio</mediatype>
							<parameter>
								<name>Pan</name>
								<parameterid>pan</parameterid>
								<valuemin>-1</valuemin>
								<valuemax>1</valuemax>
								<value>0</value>
							</parameter>
						</effect>
					</filter>
					<sourcetrack>
						<mediatype>audio</mediatype>
						<trackindex>2</trackindex>
					</sourcetrack>
				</clipitem>
				<transitionitem id="9">
					<rate>
						<ntsc>FALSE</ntsc>
						<timebase>25</timebase>
					</rate>
					<start>41052</start>
					<end>41054</end>
					<alignment>start-black</alignment>
					<effect>
						<name>Cross Fade (+3dB) Copy</name>
						<effecttype>transition</effecttype>
						<mediatype>audio</mediatype>
					</effect>
				</transitionitem>
				<clipitem id="msub200012-1708k1d2006 4">
					<name>msub200012-1708k1d2006</name>
					<duration>2506</duration>
					<rate>
						<ntsc>FALSE</ntsc>
						<timebase>25</timebase>
					</rate>
					<in>369</in>
					<out>646</out>
					<start>-1</start>
					<end>-1</end>
					<subframeoffset>0</subframeoffset>
					<enabled>FALSE</enabled>
					<masterclipid>msub200012-1708k1d2006 1</masterclipid>
					<logginginfo>
						<description>msub200012-1708k1d2006</description>
						<scene/>
						<shottake/>
						<lognote/>
						<good>FALSE</good>
					</logginginfo>
					<labels>
						<label2/>
					</labels>
					<comments>
						<mastercomment1>RÅSTOFF. BR_FINFREDAG_MSUA_OPRO</mastercomment1>
						<mastercomment2/>
						<mastercomment3/>
						<mastercomment4/>
					</comments>
					<file id="msub200012-1708k1d2006 2"/>
					<filter>
						<enabled>TRUE</enabled>
						<start>-1</start>
						<end>-1</end>
						<effect>
							<name>3 Band Equalizer - Kristine</name>
							<effecttype>filter</effecttype>
							<mediatype>audio</mediatype>
							<parameter>
								<parameterid>Low Frequency</parameterid>
								<name>Low Frequency</name>
								<valuemin>80</valuemin>
								<valuemax>2000</valuemax>
								<value>80</value>
							</parameter>
							<parameter>
								<parameterid>Low Gain(dB)</parameterid>
								<name>Low Gain(dB)</name>
								<valuemin>-20</valuemin>
								<valuemax>20</valuemax>
								<value>-4</value>
							</parameter>
							<parameter>
								<parameterid>Mid Frequency</parameterid>
								<name>Mid Frequency</name>
								<valuemin>400</valuemin>
								<valuemax>8000</valuemax>
								<value>3602</value>
							</parameter>
							<parameter>
								<parameterid>Mid Gain(dB)</parameterid>
								<name>Mid Gain(dB)</name>
								<valuemin>-20</valuemin>
								<valuemax>20</valuemax>
								<value>3</value>
							</parameter>
							<parameter>
								<parameterid>High Frequency</parameterid>
								<name>High Frequency</name>
								<valuemin>5000</valuemin>
								<valuemax>20000</valuemax>
								<value>10354</value>
							</parameter>
							<parameter>
								<parameterid>High Gain(dB)</parameterid>
								<name>High Gain(dB)</name>
								<valuemin>-20</valuemin>
								<valuemax>20</valuemax>
								<value>0</value>
							</parameter>
						</effect>
					</filter>
					<filter>
						<effect>
							<name>Audio Levels</name>
							<effectid>audiolevels</effectid>
							<effectcategory>audiolevels</effectcategory>
							<effecttype>audiolevels</effecttype>
							<mediatype>audio</mediatype>
							<parameter>
								<name>Level</name>
								<parameterid>level</parameterid>
								<valuemin>0</valuemin>
								<valuemax>3.98109</valuemax>
								<keyframe>
									<when>423.429</when>
									<value>3.16228</value>
								</keyframe>
								<keyframe>
									<when>438.286</when>
									<value>1.58489</value>
								</keyframe>
								<keyframe>
									<when>465.857</when>
									<value>1.58489</value>
								</keyframe>
								<keyframe>
									<when>493.286</when>
									<value>1.77828</value>
								</keyframe>
								<keyframe>
									<when>510.429</when>
									<value>1.41254</value>
								</keyframe>
								<keyframe>
									<when>576.429</when>
									<value>0.794328</value>
								</keyframe>
								<keyframe>
									<when>615.571</when>
									<value>0.501187</value>
								</keyframe>
								<keyframe>
									<when>633.857</when>
									<value>0.446684</value>
								</keyframe>
								<keyframe>
									<when>676.571</when>
									<value>1</value>
								</keyframe>
								<keyframe>
									<when>684</when>
									<value>0.707946</value>
								</keyframe>
								<keyframe>
									<when>725</when>
									<value>0.707946</value>
								</keyframe>
								<keyframe>
									<when>745.571</when>
									<value>3.98107</value>
								</keyframe>
								<keyframe>
									<when>848.429</when>
									<value>3.98107</value>
								</keyframe>
								<keyframe>
									<when>872.714</when>
									<value>1.30237</value>
								</keyframe>
								<keyframe>
									<when>908.714</when>
									<value>1.58489</value>
								</keyframe>
								<keyframe>
									<when>940.714</when>
									<value>1.99526</value>
								</keyframe>
								<keyframe>
									<when>1008.57</when>
									<value>1.25893</value>
								</keyframe>
								<keyframe>
									<when>1081.57</when>
									<value>1.13399</value>
								</keyframe>
								<keyframe>
									<when>1097.57</when>
									<value>0.707946</value>
								</keyframe>
								<interpolation>
									<name>FCPCurve</name>
								</interpolation>
								<value>1.22922</value>
							</parameter>
						</effect>
					</filter>
					<filter>
						<effect>
							<name>Audio Pan</name>
							<effectid>audiopan</effectid>
							<effectcategory>audiopan</effectcategory>
							<effecttype>audiopan</effecttype>
							<mediatype>audio</mediatype>
							<parameter>
								<name>Pan</name>
								<parameterid>pan</parameterid>
								<valuemin>-1</valuemin>
								<valuemax>1</valuemax>
								<value>0</value>
							</parameter>
						</effect>
					</filter>
					<sourcetrack>
						<mediatype>audio</mediatype>
						<trackindex>1</trackindex>
					</sourcetrack>
				</clipitem>
				<transitionitem id="10">
					<rate>
						<ntsc>FALSE</ntsc>
						<timebase>25</timebase>
					</rate>
					<start>41327</start>
					<end>41329</end>
					<alignment>end-black</alignment>
					<effect>
						<name>Cross Fade (+3dB) Copy</name>
						<effecttype>transition</effecttype>
						<mediatype>audio</mediatype>
					</effect>
				</transitionitem>
				<transitionitem id="11">
					<rate>
						<ntsc>FALSE</ntsc>
						<timebase>25</timebase>
					</rate>
					<start>41533</start>
					<end>41535</end>
					<alignment>start-black</alignment>
					<effect>
						<name>Cross Fade (+3dB) Copy</name>
						<effecttype>transition</effecttype>
						<mediatype>audio</mediatype>
					</effect>
				</transitionitem>
				<clipitem id="msub200012-1708k1d2007 ">
					<name>msub200012-1708k1d2007</name>
					<duration>405</duration>
					<rate>
						<ntsc>FALSE</ntsc>
						<timebase>25</timebase>
					</rate>
					<in>107</in>
					<out>164</out>
					<start>-1</start>
					<end>-1</end>
					<subframeoffset>0</subframeoffset>
					<enabled>TRUE</enabled>
					<masterclipid>msub200012-1708k1d2007 1</masterclipid>
					<logginginfo>
						<description>msub200012-1708k1d2007</description>
						<scene/>
						<shottake/>
						<lognote/>
						<good>FALSE</good>
					</logginginfo>
					<labels>
						<label2/>
					</labels>
					<comments>
						<mastercomment1>RÅSTOFF. BR_FINFREDAG_MSUA_OPRO</mastercomment1>
						<mastercomment2/>
						<mastercomment3/>
						<mastercomment4/>
					</comments>
					<file id="msub200012-1708k1d2007 2">
						<name>msub200012-1708k1d2007.mxf</name>
						<pathurl>file://localhost/Volumes/omfs/clip.dir/MXF/1080i/msub200012-1708k1d2007.mxf</pathurl>
						<rate>
							<timebase>25</timebase>
						</rate>
						<duration>405</duration>
						<timecode>
							<rate>
								<timebase>25</timebase>
							</rate>
							<string>01:39:24:19</string>
							<frame>149119</frame>
							<displayformat>NDF</displayformat>
							<source>source</source>
						</timecode>
						<media>
							<video>
								<duration>405</duration>
								<samplecharacteristics>
									<width>1920</width>
									<height>1080</height>
								</samplecharacteristics>
							</video>
							<audio>
								<rate>
									<timebase>48000</timebase>
								</rate>
								<trackcount>1</trackcount>
								<samplecharacteristics>
									<depth>24</depth>
								</samplecharacteristics>
							</audio>
						</media>
					</file>
					<filter>
						<enabled>TRUE</enabled>
						<start>-1</start>
						<end>-1</end>
						<effect>
							<name>3 Band Equalizer - Kristine</name>
							<effecttype>filter</effecttype>
							<mediatype>audio</mediatype>
							<parameter>
								<parameterid>Low Frequency</parameterid>
								<name>Low Frequency</name>
								<valuemin>80</valuemin>
								<valuemax>2000</valuemax>
								<value>80</value>
							</parameter>
							<parameter>
								<parameterid>Low Gain(dB)</parameterid>
								<name>Low Gain(dB)</name>
								<valuemin>-20</valuemin>
								<valuemax>20</valuemax>
								<value>-4</value>
							</parameter>
							<parameter>
								<parameterid>Mid Frequency</parameterid>
								<name>Mid Frequency</name>
								<valuemin>400</valuemin>
								<valuemax>8000</valuemax>
								<value>3602</value>
							</parameter>
							<parameter>
								<parameterid>Mid Gain(dB)</parameterid>
								<name>Mid Gain(dB)</name>
								<valuemin>-20</valuemin>
								<valuemax>20</valuemax>
								<value>3</value>
							</parameter>
							<parameter>
								<parameterid>High Frequency</parameterid>
								<name>High Frequency</name>
								<valuemin>5000</valuemin>
								<valuemax>20000</valuemax>
								<value>10354</value>
							</parameter>
							<parameter>
								<parameterid>High Gain(dB)</parameterid>
								<name>High Gain(dB)</name>
								<valuemin>-20</valuemin>
								<valuemax>20</valuemax>
								<value>0</value>
							</parameter>
						</effect>
					</filter>
					<filter>
						<effect>
							<name>Audio Levels</name>
							<effectid>audiolevels</effectid>
							<effectcategory>audiolevels</effectcategory>
							<effecttype>audiolevels</effecttype>
							<mediatype>audio</mediatype>
							<parameter>
								<name>Level</name>
								<parameterid>level</parameterid>
								<valuemin>0</valuemin>
								<valuemax>3.98109</valuemax>
								<value>0.354813</value>
							</parameter>
						</effect>
					</filter>
					<filter>
						<effect>
							<name>Audio Pan</name>
							<effectid>audiopan</effectid>
							<effectcategory>audiopan</effectcategory>
							<effecttype>audiopan</effecttype>
							<mediatype>audio</mediatype>
							<parameter>
								<name>Pan</name>
								<parameterid>pan</parameterid>
								<valuemin>-1</valuemin>
								<valuemax>1</valuemax>
								<value>0</value>
							</parameter>
						</effect>
					</filter>
					<sourcetrack>
						<mediatype>audio</mediatype>
						<trackindex>2</trackindex>
					</sourcetrack>
				</clipitem>
				<transitionitem id="625333760 ">
					<rate>
						<ntsc>FALSE</ntsc>
						<timebase>25</timebase>
					</rate>
					<start>41584</start>
					<end>41590</end>
					<alignment>center</alignment>
					<effect>
						<name>Cross Fade (+3dB) Copy</name>
						<effecttype>transition</effecttype>
						<mediatype>audio</mediatype>
					</effect>
				</transitionitem>
				<clipitem id="msub200012-1708k1d2004 ">
					<name>msub200012-1708k1d2004</name>
					<duration>3379</duration>
					<rate>
						<ntsc>FALSE</ntsc>
						<timebase>25</timebase>
					</rate>
					<in>1734</in>
					<out>1793</out>
					<start>-1</start>
					<end>-1</end>
					<subframeoffset>0</subframeoffset>
					<masterclipid>msub200012-1708k1d2004 1</masterclipid>
					<logginginfo>
						<description>msub200012-1708k1d2004</description>
						<scene/>
						<shottake/>
						<lognote/>
						<good>FALSE</good>
					</logginginfo>
					<labels>
						<label2/>
					</labels>
					<comments>
						<mastercomment1>RÅSTOFF. BR_FINFREDAG_MSUA_OPRO</mastercomment1>
						<mastercomment2/>
						<mastercomment3/>
						<mastercomment4/>
					</comments>
					<file id="msub200012-1708k1d2004 2">
						<name>msub200012-1708k1d2004.mxf</name>
						<pathurl>file://localhost/Volumes/omfs/clip.dir/MXF/1080i/msub200012-1708k1d2004.mxf</pathurl>
						<rate>
							<timebase>25</timebase>
						</rate>
						<duration>3379</duration>
						<timecode>
							<rate>
								<timebase>25</timebase>
							</rate>
							<string>01:35:10:24</string>
							<frame>142774</frame>
							<displayformat>NDF</displayformat>
							<source>source</source>
						</timecode>
						<media>
							<video>
								<duration>3379</duration>
								<samplecharacteristics>
									<width>1920</width>
									<height>1080</height>
								</samplecharacteristics>
							</video>
							<audio>
								<rate>
									<timebase>48000</timebase>
								</rate>
								<trackcount>1</trackcount>
								<samplecharacteristics>
									<depth>24</depth>
								</samplecharacteristics>
							</audio>
						</media>
					</file>
					<filter>
						<start>-1</start>
						<end>-1</end>
						<effect>
							<name>3 Band Equalizer - Kristine</name>
							<effecttype>filter</effecttype>
							<mediatype>audio</mediatype>
							<parameter>
								<parameterid>Low Frequency</parameterid>
								<name>Low Frequency</name>
								<valuemin>80</valuemin>
								<valuemax>2000</valuemax>
								<value>80</value>
							</parameter>
							<parameter>
								<parameterid>Low Gain(dB)</parameterid>
								<name>Low Gain(dB)</name>
								<valuemin>-20</valuemin>
								<valuemax>20</valuemax>
								<value>-4</value>
							</parameter>
							<parameter>
								<parameterid>Mid Frequency</parameterid>
								<name>Mid Frequency</name>
								<valuemin>400</valuemin>
								<valuemax>8000</valuemax>
								<value>3602</value>
							</parameter>
							<parameter>
								<parameterid>Mid Gain(dB)</parameterid>
								<name>Mid Gain(dB)</name>
								<valuemin>-20</valuemin>
								<valuemax>20</valuemax>
								<value>3</value>
							</parameter>
							<parameter>
								<parameterid>High Frequency</parameterid>
								<name>High Frequency</name>
								<valuemin>5000</valuemin>
								<valuemax>20000</valuemax>
								<value>10354</value>
							</parameter>
							<parameter>
								<parameterid>High Gain(dB)</parameterid>
								<name>High Gain(dB)</name>
								<valuemin>-20</valuemin>
								<valuemax>20</valuemax>
								<value>0</value>
							</parameter>
						</effect>
					</filter>
					<filter>
						<effect>
							<name>Audio Levels</name>
							<effectid>audiolevels</effectid>
							<effectcategory>audiolevels</effectcategory>
							<effecttype>audiolevels</effecttype>
							<mediatype>audio</mediatype>
							<parameter>
								<name>Level</name>
								<parameterid>level</parameterid>
								<valuemin>0</valuemin>
								<valuemax>3.98109</valuemax>
								<value>0.354813</value>
							</parameter>
						</effect>
					</filter>
					<filter>
						<effect>
							<name>Audio Pan</name>
							<effectid>audiopan</effectid>
							<effectcategory>audiopan</effectcategory>
							<effecttype>audiopan</effecttype>
							<mediatype>audio</mediatype>
							<parameter>
								<name>Pan</name>
								<parameterid>pan</parameterid>
								<valuemin>-1</valuemin>
								<valuemax>1</valuemax>
								<value>0</value>
							</parameter>
						</effect>
					</filter>
					<sourcetrack>
						<mediatype>audio</mediatype>
						<trackindex>2</trackindex>
					</sourcetrack>
				</clipitem>
				<transitionitem id="625351984 ">
					<rate>
						<ntsc>FALSE</ntsc>
						<timebase>25</timebase>
					</rate>
					<start>41629</start>
					<end>41643</end>
					<alignment>center</alignment>
					<effect>
						<name>Cross Fade (+3dB)</name>
						<effecttype>transition</effecttype>
						<mediatype>audio</mediatype>
					</effect>
				</transitionitem>
				<transitionitem id="625350420 ">
					<rate>
						<ntsc>FALSE</ntsc>
						<timebase>25</timebase>
					</rate>
					<start>42133</start>
					<end>42135</end>
					<alignment>start-black</alignment>
					<effect>
						<name>Cross Fade (+3dB) Copy</name>
						<effecttype>transition</effecttype>
						<mediatype>audio</mediatype>
					</effect>
				</transitionitem>
				<clipitem id="msub200012-0409d2k1007 ">
					<name>msub200012-0409d2k1007</name>
					<duration>1586</duration>
					<rate>
						<ntsc>FALSE</ntsc>
						<timebase>25</timebase>
					</rate>
					<in>196</in>
					<out>681</out>
					<start>-1</start>
					<end>-1</end>
					<subframeoffset>0</subframeoffset>
					<masterclipid>msub200012-0409d2k1007 1</masterclipid>
					<logginginfo>
						<description>msub200012-0409d2k1007</description>
						<scene/>
						<shottake/>
						<lognote/>
						<good>FALSE</good>
					</logginginfo>
					<labels>
						<label2/>
					</labels>
					<comments>
						<mastercomment1>RÅSTOFF. BR_FINFREDAG_MSUA_OPRO</mastercomment1>
						<mastercomment2/>
						<mastercomment3/>
						<mastercomment4/>
					</comments>
					<file id="msub200012-0409d2k1007 2">
						<name>msub200012-0409d2k1007.mxf</name>
						<pathurl>file://localhost/Volumes/omfs/clip.dir/MXF/1080i/msub200012-0409d2k1007.mxf</pathurl>
						<rate>
							<timebase>25</timebase>
						</rate>
						<duration>1586</duration>
						<timecode>
							<rate>
								<timebase>25</timebase>
							</rate>
							<string>11:04:31:10</string>
							<frame>996785</frame>
							<displayformat>NDF</displayformat>
							<source>source</source>
						</timecode>
						<media>
							<video>
								<duration>1586</duration>
								<samplecharacteristics>
									<width>1920</width>
									<height>1080</height>
								</samplecharacteristics>
							</video>
							<audio>
								<rate>
									<timebase>48000</timebase>
								</rate>
								<trackcount>1</trackcount>
								<samplecharacteristics>
									<depth>24</depth>
								</samplecharacteristics>
							</audio>
						</media>
					</file>
					<filter>
						<start>-1</start>
						<end>-1</end>
						<effect>
							<name>3 Band Equalizer - Kristine</name>
							<effecttype>filter</effecttype>
							<mediatype>audio</mediatype>
							<parameter>
								<parameterid>Low Frequency</parameterid>
								<name>Low Frequency</name>
								<valuemin>80</valuemin>
								<valuemax>2000</valuemax>
								<value>80</value>
							</parameter>
							<parameter>
								<parameterid>Low Gain(dB)</parameterid>
								<name>Low Gain(dB)</name>
								<valuemin>-20</valuemin>
								<valuemax>20</valuemax>
								<value>-4</value>
							</parameter>
							<parameter>
								<parameterid>Mid Frequency</parameterid>
								<name>Mid Frequency</name>
								<valuemin>400</valuemin>
								<valuemax>8000</valuemax>
								<value>3602</value>
							</parameter>
							<parameter>
								<parameterid>Mid Gain(dB)</parameterid>
								<name>Mid Gain(dB)</name>
								<valuemin>-20</valuemin>
								<valuemax>20</valuemax>
								<value>3</value>
							</parameter>
							<parameter>
								<parameterid>High Frequency</parameterid>
								<name>High Frequency</name>
								<valuemin>5000</valuemin>
								<valuemax>20000</valuemax>
								<value>10354</value>
							</parameter>
							<parameter>
								<parameterid>High Gain(dB)</parameterid>
								<name>High Gain(dB)</name>
								<valuemin>-20</valuemin>
								<valuemax>20</valuemax>
								<value>0</value>
							</parameter>
						</effect>
					</filter>
					<filter>
						<effect>
							<name>Audio Levels</name>
							<effectid>audiolevels</effectid>
							<effectcategory>audiolevels</effectcategory>
							<effecttype>audiolevels</effecttype>
							<mediatype>audio</mediatype>
							<parameter>
								<name>Level</name>
								<parameterid>level</parameterid>
								<valuemin>0</valuemin>
								<valuemax>3.98109</valuemax>
								<value>1.77828</value>
							</parameter>
						</effect>
					</filter>
					<filter>
						<effect>
							<name>Audio Pan</name>
							<effectid>audiopan</effectid>
							<effectcategory>audiopan</effectcategory>
							<effecttype>audiopan</effecttype>
							<mediatype>audio</mediatype>
							<parameter>
								<name>Pan</name>
								<parameterid>pan</parameterid>
								<valuemin>-1</valuemin>
								<valuemax>1</valuemax>
								<value>0</value>
							</parameter>
						</effect>
					</filter>
					<sourcetrack>
						<mediatype>audio</mediatype>
						<trackindex>2</trackindex>
					</sourcetrack>
				</clipitem>
				<transitionitem id="12">
					<rate>
						<ntsc>FALSE</ntsc>
						<timebase>25</timebase>
					</rate>
					<start>42616</start>
					<end>42618</end>
					<alignment>end-black</alignment>
					<effect>
						<name>Cross Fade (+3dB) Copy</name>
						<effecttype>transition</effecttype>
						<mediatype>audio</mediatype>
					</effect>
				</transitionitem>
				<transitionitem id="13">
					<rate>
						<ntsc>FALSE</ntsc>
						<timebase>25</timebase>
					</rate>
					<start>42662</start>
					<end>42664</end>
					<alignment>start-black</alignment>
					<effect>
						<name>Cross Fade (+3dB) Copy</name>
						<effecttype>transition</effecttype>
						<mediatype>audio</mediatype>
					</effect>
				</transitionitem>
				<clipitem id="msub200012-0409d2k1009 ">
					<name>msub200012-0409d2k1009</name>
					<duration>918</duration>
					<rate>
						<ntsc>FALSE</ntsc>
						<timebase>25</timebase>
					</rate>
					<in>125</in>
					<out>618</out>
					<start>-1</start>
					<end>-1</end>
					<subframeoffset>0</subframeoffset>
					<masterclipid>msub200012-0409d2k1009 1</masterclipid>
					<logginginfo>
						<description>msub200012-0409d2k1009</description>
						<scene/>
						<shottake/>
						<lognote/>
						<good>FALSE</good>
					</logginginfo>
					<labels>
						<label2/>
					</labels>
					<comments>
						<mastercomment1>RÅSTOFF. BR_FINFREDAG_MSUA_OPRO</mastercomment1>
						<mastercomment2/>
						<mastercomment3/>
						<mastercomment4/>
					</comments>
					<file id="msub200012-0409d2k1009 2">
						<name>msub200012-0409d2k1009.mxf</name>
						<pathurl>file://localhost/Volumes/omfs/clip.dir/MXF/1080i/msub200012-0409d2k1009.mxf</pathurl>
						<rate>
							<timebase>25</timebase>
						</rate>
						<duration>918</duration>
						<timecode>
							<rate>
								<timebase>25</timebase>
							</rate>
							<string>11:06:20:10</string>
							<frame>999510</frame>
							<displayformat>NDF</displayformat>
							<source>source</source>
						</timecode>
						<media>
							<video>
								<duration>918</duration>
								<samplecharacteristics>
									<width>1920</width>
									<height>1080</height>
								</samplecharacteristics>
							</video>
							<audio>
								<rate>
									<timebase>48000</timebase>
								</rate>
								<trackcount>1</trackcount>
								<samplecharacteristics>
									<depth>24</depth>
								</samplecharacteristics>
							</audio>
						</media>
					</file>
					<filter>
						<start>-1</start>
						<end>-1</end>
						<effect>
							<name>3 Band Equalizer - Kristine</name>
							<effecttype>filter</effecttype>
							<mediatype>audio</mediatype>
							<parameter>
								<parameterid>Low Frequency</parameterid>
								<name>Low Frequency</name>
								<valuemin>80</valuemin>
								<valuemax>2000</valuemax>
								<value>80</value>
							</parameter>
							<parameter>
								<parameterid>Low Gain(dB)</parameterid>
								<name>Low Gain(dB)</name>
								<valuemin>-20</valuemin>
								<valuemax>20</valuemax>
								<value>-4</value>
							</parameter>
							<parameter>
								<parameterid>Mid Frequency</parameterid>
								<name>Mid Frequency</name>
								<valuemin>400</valuemin>
								<valuemax>8000</valuemax>
								<value>3602</value>
							</parameter>
							<parameter>
								<parameterid>Mid Gain(dB)</parameterid>
								<name>Mid Gain(dB)</name>
								<valuemin>-20</valuemin>
								<valuemax>20</valuemax>
								<value>3</value>
							</parameter>
							<parameter>
								<parameterid>High Frequency</parameterid>
								<name>High Frequency</name>
								<valuemin>5000</valuemin>
								<valuemax>20000</valuemax>
								<value>10354</value>
							</parameter>
							<parameter>
								<parameterid>High Gain(dB)</parameterid>
								<name>High Gain(dB)</name>
								<valuemin>-20</valuemin>
								<valuemax>20</valuemax>
								<value>0</value>
							</parameter>
						</effect>
					</filter>
					<filter>
						<effect>
							<name>Audio Levels</name>
							<effectid>audiolevels</effectid>
							<effectcategory>audiolevels</effectcategory>
							<effecttype>audiolevels</effecttype>
							<mediatype>audio</mediatype>
							<parameter>
								<name>Level</name>
								<parameterid>level</parameterid>
								<valuemin>0</valuemin>
								<valuemax>3.98109</valuemax>
								<keyframe>
									<when>157.857</when>
									<value>1.99526</value>
								</keyframe>
								<keyframe>
									<when>167</when>
									<value>2.51189</value>
								</keyframe>
								<keyframe>
									<when>243.464</when>
									<value>2.51189</value>
								</keyframe>
								<keyframe>
									<when>253.643</when>
									<value>1.58489</value>
								</keyframe>
								<keyframe>
									<when>530.429</when>
									<value>1.58489</value>
								</keyframe>
								<keyframe>
									<when>616.143</when>
									<value>0.281838</value>
								</keyframe>
								<interpolation>
									<name>FCPCurve</name>
								</interpolation>
								<value>1.41254</value>
							</parameter>
						</effect>
					</filter>
					<filter>
						<effect>
							<name>Audio Pan</name>
							<effectid>audiopan</effectid>
							<effectcategory>audiopan</effectcategory>
							<effecttype>audiopan</effecttype>
							<mediatype>audio</mediatype>
							<parameter>
								<name>Pan</name>
								<parameterid>pan</parameterid>
								<valuemin>-1</valuemin>
								<valuemax>1</valuemax>
								<value>0</value>
							</parameter>
						</effect>
					</filter>
					<sourcetrack>
						<mediatype>audio</mediatype>
						<trackindex>2</trackindex>
					</sourcetrack>
				</clipitem>
				<transitionitem id="625343212 ">
					<rate>
						<ntsc>FALSE</ntsc>
						<timebase>25</timebase>
					</rate>
					<start>43105</start>
					<end>43155</end>
					<alignment>end-black</alignment>
					<effect>
						<name>Cross Fade (+3dB) Copy</name>
						<effecttype>transition</effecttype>
						<mediatype>audio</mediatype>
					</effect>
				</transitionitem>
				<enabled>TRUE</enabled>
				<locked>FALSE</locked>
				<outputchannelindex>2</outputchannelindex>
			</track>
			<track>
				<clipitem id="Fin Fredag Vignett - NY.wav">
					<name>Fin Fredag Vignett - NY.wav</name>
					<duration>1590</duration>
					<rate>
						<ntsc>FALSE</ntsc>
						<timebase>25</timebase>
					</rate>
					<in>1454</in>
					<out>1590</out>
					<start>969</start>
					<end>-1</end>
					<subframeoffset>0</subframeoffset>
					<masterclipid>Fin Fredag Vignett - NY.wav1</masterclipid>
					<logginginfo>
						<scene/>
						<shottake/>
						<lognote/>
						<good>FALSE</good>
					</logginginfo>
					<labels>
						<label2/>
					</labels>
					<comments>
						<mastercomment1/>
						<mastercomment2/>
						<mastercomment3/>
						<mastercomment4/>
					</comments>
					<file id="Fin Fredag Vignett - NY">
						<name>Fin Fredag Vignett - NY.wav</name>
						<pathurl>file://localhost/Netdata3/MSUA/Felles/Barn/Fin%20fredag/Grafikk%20og%20musikk/Vignettmusikk/Endelig%20versjon/Fin%20Fredag%20Vignett%20-%20NY.wav</pathurl>
						<rate>
							<timebase>25</timebase>
						</rate>
						<duration>1590</duration>
						<timecode>
							<rate>
								<timebase>25</timebase>
							</rate>
							<string>00:00:01:05</string>
							<frame>30</frame>
							<displayformat>NDF</displayformat>
							<source>source</source>
						</timecode>
						<media>
							<audio>
								<rate>
									<timebase>48000</timebase>
								</rate>
								<trackcount>2</trackcount>
								<samplecharacteristics>
									<depth>24</depth>
								</samplecharacteristics>
							</audio>
						</media>
					</file>
					<filter>
						<effect>
							<name>Audio Levels</name>
							<effectid>audiolevels</effectid>
							<effectcategory>audiolevels</effectcategory>
							<effecttype>audiolevels</effecttype>
							<mediatype>audio</mediatype>
							<parameter>
								<name>Level</name>
								<parameterid>level</parameterid>
								<valuemin>0</valuemin>
								<valuemax>3.98109</valuemax>
								<value>0.315057</value>
							</parameter>
						</effect>
					</filter>
					<filter>
						<effect>
							<name>Audio Pan</name>
							<effectid>audiopan</effectid>
							<effectcategory>audiopan</effectcategory>
							<effecttype>audiopan</effecttype>
							<mediatype>audio</mediatype>
							<parameter>
								<name>Pan</name>
								<parameterid>pan</parameterid>
								<valuemin>-1</valuemin>
								<valuemax>1</valuemax>
								<value>-1</value>
							</parameter>
						</effect>
					</filter>
					<sourcetrack>
						<mediatype>audio</mediatype>
						<trackindex>1</trackindex>
					</sourcetrack>
					<link>
						<linkclipref>Fin Fredag Vignett - NY.wav</linkclipref>
						<mediatype>audio</mediatype>
						<trackindex>3</trackindex>
						<clipindex>1</clipindex>
						<groupindex>1</groupindex>
					</link>
					<link>
						<linkclipref>Fin Fredag Vignett - NY.wav2</linkclipref>
						<mediatype>audio</mediatype>
						<trackindex>4</trackindex>
						<clipindex>1</clipindex>
						<groupindex>1</groupindex>
					</link>
				</clipitem>
				<transitionitem id="625330156 ">
					<rate>
						<ntsc>FALSE</ntsc>
						<timebase>25</timebase>
					</rate>
					<start>1099</start>
					<end>1105</end>
					<alignment>end-black</alignment>
					<effect>
						<name>Cross Fade (+3dB) Copy</name>
						<effecttype>transition</effecttype>
						<mediatype>audio</mediatype>
					</effect>
				</transitionitem>
				<transitionitem id="625346136 ">
					<rate>
						<ntsc>FALSE</ntsc>
						<timebase>25</timebase>
					</rate>
					<start>1937</start>
					<end>1943</end>
					<alignment>start-black</alignment>
					<effect>
						<name>Cross Fade (+3dB) Copy</name>
						<effecttype>transition</effecttype>
						<mediatype>audio</mediatype>
					</effect>
				</transitionitem>
				<clipitem id="msub200012-0409d1k1007 ">
					<name>msub200012-0409d1k1007</name>
					<duration>2577</duration>
					<rate>
						<ntsc>FALSE</ntsc>
						<timebase>25</timebase>
					</rate>
					<in>375</in>
					<out>432</out>
					<start>-1</start>
					<end>1994</end>
					<subframeoffset>0</subframeoffset>
					<enabled>TRUE</enabled>
					<masterclipid>msub200012-0409d1k1007 1</masterclipid>
					<logginginfo>
						<description>msub200012-0409d1k1007</description>
						<scene/>
						<shottake/>
						<lognote/>
						<good>FALSE</good>
					</logginginfo>
					<labels>
						<label>Alternate Shots</label>
						<label2/>
					</labels>
					<comments>
						<mastercomment1>RÅSTOFF. BR_FINFREDAG_MSUA_OPRO</mastercomment1>
						<mastercomment2/>
						<mastercomment3/>
						<mastercomment4/>
					</comments>
					<file id="msub200012-0409d1k1007 2">
						<name>msub200012-0409d1k1007.mxf</name>
						<pathurl>file://localhost/Volumes/omfs/clip.dir/MXF/1080i/msub200012-0409d1k1007.mxf</pathurl>
						<rate>
							<timebase>25</timebase>
						</rate>
						<duration>2577</duration>
						<timecode>
							<rate>
								<timebase>25</timebase>
							</rate>
							<string>10:04:33:08</string>
							<frame>906833</frame>
							<displayformat>NDF</displayformat>
							<source>source</source>
						</timecode>
						<media>
							<video>
								<duration>2577</duration>
								<samplecharacteristics>
									<width>1920</width>
									<height>1080</height>
								</samplecharacteristics>
							</video>
							<audio>
								<rate>
									<timebase>48000</timebase>
								</rate>
								<trackcount>1</trackcount>
								<samplecharacteristics>
									<depth>24</depth>
								</samplecharacteristics>
							</audio>
						</media>
					</file>
					<filter>
						<enabled>TRUE</enabled>
						<start>-1</start>
						<end>-1</end>
						<effect>
							<name>3 Band Equalizer - Kristine</name>
							<effecttype>filter</effecttype>
							<mediatype>audio</mediatype>
							<parameter>
								<parameterid>Low Frequency</parameterid>
								<name>Low Frequency</name>
								<valuemin>80</valuemin>
								<valuemax>2000</valuemax>
								<value>80</value>
							</parameter>
							<parameter>
								<parameterid>Low Gain(dB)</parameterid>
								<name>Low Gain(dB)</name>
								<valuemin>-20</valuemin>
								<valuemax>20</valuemax>
								<value>-4</value>
							</parameter>
							<parameter>
								<parameterid>Mid Frequency</parameterid>
								<name>Mid Frequency</name>
								<valuemin>400</valuemin>
								<valuemax>8000</valuemax>
								<value>3602</value>
							</parameter>
							<parameter>
								<parameterid>Mid Gain(dB)</parameterid>
								<name>Mid Gain(dB)</name>
								<valuemin>-20</valuemin>
								<valuemax>20</valuemax>
								<value>3</value>
							</parameter>
							<parameter>
								<parameterid>High Frequency</parameterid>
								<name>High Frequency</name>
								<valuemin>5000</valuemin>
								<valuemax>20000</valuemax>
								<value>10354</value>
							</parameter>
							<parameter>
								<parameterid>High Gain(dB)</parameterid>
								<name>High Gain(dB)</name>
								<valuemin>-20</valuemin>
								<valuemax>20</valuemax>
								<value>0</value>
							</parameter>
						</effect>
					</filter>
					<filter>
						<effect>
							<name>Audio Levels</name>
							<effectid>audiolevels</effectid>
							<effectcategory>audiolevels</effectcategory>
							<effecttype>audiolevels</effecttype>
							<mediatype>audio</mediatype>
							<parameter>
								<name>Level</name>
								<parameterid>level</parameterid>
								<valuemin>0</valuemin>
								<valuemax>3.98109</valuemax>
								<keyframe>
									<when>421.812</when>
									<value>1.99526</value>
								</keyframe>
								<keyframe>
									<when>422.875</when>
									<value>1.77828</value>
								</keyframe>
								<interpolation>
									<name>FCPCurve</name>
								</interpolation>
								<value>1.77828</value>
							</parameter>
						</effect>
					</filter>
					<filter>
						<effect>
							<name>Audio Pan</name>
							<effectid>audiopan</effectid>
							<effectcategory>audiopan</effectcategory>
							<effecttype>audiopan</effecttype>
							<mediatype>audio</mediatype>
							<parameter>
								<name>Pan</name>
								<parameterid>pan</parameterid>
								<valuemin>-1</valuemin>
								<valuemax>1</valuemax>
								<value>0</value>
							</parameter>
						</effect>
					</filter>
					<sourcetrack>
						<mediatype>audio</mediatype>
						<trackindex>2</trackindex>
					</sourcetrack>
				</clipitem>
				<clipitem id="msub200012-0409d1k1007 3">
					<name>msub200012-0409d1k1007</name>
					<duration>2577</duration>
					<rate>
						<ntsc>FALSE</ntsc>
						<timebase>25</timebase>
					</rate>
					<in>432</in>
					<out>800</out>
					<start>1994</start>
					<end>-1</end>
					<subframeoffset>0</subframeoffset>
					<enabled>TRUE</enabled>
					<masterclipid>msub200012-0409d1k1007 1</masterclipid>
					<logginginfo>
						<description>msub200012-0409d1k1007</description>
						<scene/>
						<shottake/>
						<lognote/>
						<good>FALSE</good>
					</logginginfo>
					<labels>
						<label>Alternate Shots</label>
						<label2/>
					</labels>
					<comments>
						<mastercomment1>RÅSTOFF. BR_FINFREDAG_MSUA_OPRO</mastercomment1>
						<mastercomment2/>
						<mastercomment3/>
						<mastercomment4/>
					</comments>
					<file id="msub200012-0409d1k1007 2"/>
					<filter>
						<enabled>TRUE</enabled>
						<start>-1</start>
						<end>-1</end>
						<effect>
							<name>3 Band Equalizer - Kristine</name>
							<effecttype>filter</effecttype>
							<mediatype>audio</mediatype>
							<parameter>
								<parameterid>Low Frequency</parameterid>
								<name>Low Frequency</name>
								<valuemin>80</valuemin>
								<valuemax>2000</valuemax>
								<value>100</value>
							</parameter>
							<parameter>
								<parameterid>Low Gain(dB)</parameterid>
								<name>Low Gain(dB)</name>
								<valuemin>-20</valuemin>
								<valuemax>20</valuemax>
								<value>-4</value>
							</parameter>
							<parameter>
								<parameterid>Mid Frequency</parameterid>
								<name>Mid Frequency</name>
								<valuemin>400</valuemin>
								<valuemax>8000</valuemax>
								<value>3602</value>
							</parameter>
							<parameter>
								<parameterid>Mid Gain(dB)</parameterid>
								<name>Mid Gain(dB)</name>
								<valuemin>-20</valuemin>
								<valuemax>20</valuemax>
								<value>3</value>
							</parameter>
							<parameter>
								<parameterid>High Frequency</parameterid>
								<name>High Frequency</name>
								<valuemin>5000</valuemin>
								<valuemax>20000</valuemax>
								<value>10354</value>
							</parameter>
							<parameter>
								<parameterid>High Gain(dB)</parameterid>
								<name>High Gain(dB)</name>
								<valuemin>-20</valuemin>
								<valuemax>20</valuemax>
								<value>0</value>
							</parameter>
						</effect>
					</filter>
					<filter>
						<effect>
							<name>Audio Levels</name>
							<effectid>audiolevels</effectid>
							<effectcategory>audiolevels</effectcategory>
							<effecttype>audiolevels</effecttype>
							<mediatype>audio</mediatype>
							<parameter>
								<name>Level</name>
								<parameterid>level</parameterid>
								<valuemin>0</valuemin>
								<valuemax>3.98109</valuemax>
								<keyframe>
									<when>421.812</when>
									<value>1.99526</value>
								</keyframe>
								<keyframe>
									<when>422.875</when>
									<value>1.41927</value>
								</keyframe>
								<interpolation>
									<name>FCPCurve</name>
								</interpolation>
								<value>1.77828</value>
							</parameter>
						</effect>
					</filter>
					<filter>
						<effect>
							<name>Audio Pan</name>
							<effectid>audiopan</effectid>
							<effectcategory>audiopan</effectcategory>
							<effecttype>audiopan</effecttype>
							<mediatype>audio</mediatype>
							<parameter>
								<name>Pan</name>
								<parameterid>pan</parameterid>
								<valuemin>-1</valuemin>
								<valuemax>1</valuemax>
								<value>0</value>
							</parameter>
						</effect>
					</filter>
					<sourcetrack>
						<mediatype>audio</mediatype>
						<trackindex>2</trackindex>
					</sourcetrack>
				</clipitem>
				<transitionitem id="625326892 ">
					<rate>
						<ntsc>FALSE</ntsc>
						<timebase>25</timebase>
					</rate>
					<start>2358</start>
					<end>2362</end>
					<alignment>center</alignment>
					<effect>
						<name>Cross Fade (+3dB) Copy</name>
						<effecttype>transition</effecttype>
						<mediatype>audio</mediatype>
					</effect>
				</transitionitem>
				<clipitem id="msub200012-0409d1k1007 4">
					<name>msub200012-0409d1k1007</name>
					<duration>2577</duration>
					<rate>
						<ntsc>FALSE</ntsc>
						<timebase>25</timebase>
					</rate>
					<in>1758</in>
					<out>1769</out>
					<start>-1</start>
					<end>-1</end>
					<subframeoffset>0</subframeoffset>
					<masterclipid>msub200012-0409d1k1007 1</masterclipid>
					<logginginfo>
						<description>msub200012-0409d1k1007</description>
						<scene/>
						<shottake/>
						<lognote/>
						<good>FALSE</good>
					</logginginfo>
					<labels>
						<label>Alternate Shots</label>
						<label2/>
					</labels>
					<comments>
						<mastercomment1>RÅSTOFF. BR_FINFREDAG_MSUA_OPRO</mastercomment1>
						<mastercomment2/>
						<mastercomment3/>
						<mastercomment4/>
					</comments>
					<file id="msub200012-0409d1k1007 2"/>
					<filter>
						<start>-1</start>
						<end>-1</end>
						<effect>
							<name>3 Band Equalizer - Kristine</name>
							<effecttype>filter</effecttype>
							<mediatype>audio</mediatype>
							<parameter>
								<parameterid>Low Frequency</parameterid>
								<name>Low Frequency</name>
								<valuemin>80</valuemin>
								<valuemax>2000</valuemax>
								<value>100</value>
							</parameter>
							<parameter>
								<parameterid>Low Gain(dB)</parameterid>
								<name>Low Gain(dB)</name>
								<valuemin>-20</valuemin>
								<valuemax>20</valuemax>
								<value>-4</value>
							</parameter>
							<parameter>
								<parameterid>Mid Frequency</parameterid>
								<name>Mid Frequency</name>
								<valuemin>400</valuemin>
								<valuemax>8000</valuemax>
								<value>3602</value>
							</parameter>
							<parameter>
								<parameterid>Mid Gain(dB)</parameterid>
								<name>Mid Gain(dB)</name>
								<valuemin>-20</valuemin>
								<valuemax>20</valuemax>
								<value>3</value>
							</parameter>
							<parameter>
								<parameterid>High Frequency</parameterid>
								<name>High Frequency</name>
								<valuemin>5000</valuemin>
								<valuemax>20000</valuemax>
								<value>10354</value>
							</parameter>
							<parameter>
								<parameterid>High Gain(dB)</parameterid>
								<name>High Gain(dB)</name>
								<valuemin>-20</valuemin>
								<valuemax>20</valuemax>
								<value>0</value>
							</parameter>
						</effect>
					</filter>
					<filter>
						<effect>
							<name>Audio Levels</name>
							<effectid>audiolevels</effectid>
							<effectcategory>audiolevels</effectcategory>
							<effecttype>audiolevels</effecttype>
							<mediatype>audio</mediatype>
							<parameter>
								<name>Level</name>
								<parameterid>level</parameterid>
								<valuemin>0</valuemin>
								<valuemax>3.98109</valuemax>
								<value>1.25893</value>
							</parameter>
						</effect>
					</filter>
					<filter>
						<effect>
							<name>Audio Pan</name>
							<effectid>audiopan</effectid>
							<effectcategory>audiopan</effectcategory>
							<effecttype>audiopan</effecttype>
							<mediatype>audio</mediatype>
							<parameter>
								<name>Pan</name>
								<parameterid>pan</parameterid>
								<valuemin>-1</valuemin>
								<valuemax>1</valuemax>
								<value>0</value>
							</parameter>
						</effect>
					</filter>
					<sourcetrack>
						<mediatype>audio</mediatype>
						<trackindex>2</trackindex>
					</sourcetrack>
				</clipitem>
				<transitionitem id="625341308 ">
					<rate>
						<ntsc>FALSE</ntsc>
						<timebase>25</timebase>
					</rate>
					<start>2365</start>
					<end>2369</end>
					<alignment>end-black</alignment>
					<effect>
						<name>Cross Fade (+3dB) Copy</name>
						<effecttype>transition</effecttype>
						<mediatype>audio</mediatype>
					</effect>
				</transitionitem>
				<transitionitem id="625104464 ">
					<rate>
						<ntsc>FALSE</ntsc>
						<timebase>25</timebase>
					</rate>
					<start>5008</start>
					<end>5014</end>
					<alignment>center</alignment>
					<effect>
						<name>Cross Fade (+3dB) Copy</name>
						<effecttype>transition</effecttype>
						<mediatype>audio</mediatype>
					</effect>
				</transitionitem>
				<clipitem id="msub200012-0409d2k1002 20">
					<name>msub200012-0409d2k1002</name>
					<duration>10180</duration>
					<rate>
						<ntsc>FALSE</ntsc>
						<timebase>25</timebase>
					</rate>
					<in>2414</in>
					<out>2606</out>
					<start>-1</start>
					<end>5200</end>
					<subframeoffset>0</subframeoffset>
					<enabled>TRUE</enabled>
					<masterclipid>msub200012-0409d2k1002 1</masterclipid>
					<syncoffset>0</syncoffset>
					<logginginfo>
						<description>msub200012-0409d2k1002</description>
						<scene/>
						<shottake/>
						<lognote/>
						<good>FALSE</good>
					</logginginfo>
					<labels>
						<label>Best Take</label>
						<label2/>
					</labels>
					<comments>
						<mastercomment1>RÅSTOFF. BR_FINFREDAG_MSUA_OPRO</mastercomment1>
						<mastercomment2/>
						<mastercomment3/>
						<mastercomment4/>
					</comments>
					<file id="msub200012-0409d2k1002 2"/>
					<filter>
						<enabled>TRUE</enabled>
						<start>-1</start>
						<end>-1</end>
						<effect>
							<name>3 Band Equalizer - Kristine</name>
							<effecttype>filter</effecttype>
							<mediatype>audio</mediatype>
							<parameter>
								<parameterid>Low Frequency</parameterid>
								<name>Low Frequency</name>
								<valuemin>80</valuemin>
								<valuemax>2000</valuemax>
								<value>80</value>
							</parameter>
							<parameter>
								<parameterid>Low Gain(dB)</parameterid>
								<name>Low Gain(dB)</name>
								<valuemin>-20</valuemin>
								<valuemax>20</valuemax>
								<value>-4</value>
							</parameter>
							<parameter>
								<parameterid>Mid Frequency</parameterid>
								<name>Mid Frequency</name>
								<valuemin>400</valuemin>
								<valuemax>8000</valuemax>
								<value>3602</value>
							</parameter>
							<parameter>
								<parameterid>Mid Gain(dB)</parameterid>
								<name>Mid Gain(dB)</name>
								<valuemin>-20</valuemin>
								<valuemax>20</valuemax>
								<value>3</value>
							</parameter>
							<parameter>
								<parameterid>High Frequency</parameterid>
								<name>High Frequency</name>
								<valuemin>5000</valuemin>
								<valuemax>20000</valuemax>
								<value>10354</value>
							</parameter>
							<parameter>
								<parameterid>High Gain(dB)</parameterid>
								<name>High Gain(dB)</name>
								<valuemin>-20</valuemin>
								<valuemax>20</valuemax>
								<value>0</value>
							</parameter>
						</effect>
					</filter>
					<filter>
						<effect>
							<name>Audio Levels</name>
							<effectid>audiolevels</effectid>
							<effectcategory>audiolevels</effectcategory>
							<effecttype>audiolevels</effecttype>
							<mediatype>audio</mediatype>
							<parameter>
								<name>Level</name>
								<parameterid>level</parameterid>
								<valuemin>0</valuemin>
								<valuemax>3.98109</valuemax>
								<keyframe>
									<when>2439.75</when>
									<value>1.77828</value>
								</keyframe>
								<keyframe>
									<when>2441.57</when>
									<value>0.0354813</value>
								</keyframe>
								<keyframe>
									<when>2506.71</when>
									<value>0.0354813</value>
								</keyframe>
								<keyframe>
									<when>2513</when>
									<value>1</value>
								</keyframe>
								<keyframe>
									<when>2531.57</when>
									<value>1</value>
								</keyframe>
								<keyframe>
									<when>2537.29</when>
									<value>0</value>
								</keyframe>
								<interpolation>
									<name>FCPCurve</name>
								</interpolation>
								<value>0.199526</value>
							</parameter>
						</effect>
					</filter>
					<filter>
						<effect>
							<name>Audio Pan</name>
							<effectid>audiopan</effectid>
							<effectcategory>audiopan</effectcategory>
							<effecttype>audiopan</effecttype>
							<mediatype>audio</mediatype>
							<parameter>
								<name>Pan</name>
								<parameterid>pan</parameterid>
								<valuemin>-1</valuemin>
								<valuemax>1</valuemax>
								<value>0</value>
							</parameter>
						</effect>
					</filter>
					<sourcetrack>
						<mediatype>audio</mediatype>
						<trackindex>1</trackindex>
					</sourcetrack>
					<link>
						<linkclipref>msub200012-0409d2k1002 19</linkclipref>
						<mediatype>audio</mediatype>
						<trackindex>2</trackindex>
						<clipindex>30</clipindex>
					</link>
					<link>
						<linkclipref>msub200012-0409d2k1002 20</linkclipref>
						<mediatype>audio</mediatype>
						<trackindex>3</trackindex>
						<clipindex>10</clipindex>
					</link>
				</clipitem>
				<transitionitem id="625101676 ">
					<rate>
						<ntsc>FALSE</ntsc>
						<timebase>25</timebase>
					</rate>
					<start>7585</start>
					<end>7597</end>
					<alignment>center</alignment>
					<effect>
						<name>Cross Fade (+3dB) Copy</name>
						<effecttype>transition</effecttype>
						<mediatype>audio</mediatype>
					</effect>
				</transitionitem>
				<clipitem id="KMTE60004512AA4">
					<name>KMTE60004512AA</name>
					<duration>88320</duration>
					<rate>
						<ntsc>FALSE</ntsc>
						<timebase>25</timebase>
					</rate>
					<in>43321</in>
					<out>43388</out>
					<start>-1</start>
					<end>-1</end>
					<subframeoffset>0</subframeoffset>
					<masterclipid>KMTE60004512AA1</masterclipid>
					<logginginfo>
						<description>Justin Bieber live i Oslo</description>
						<scene/>
						<shottake/>
						<lognote/>
						<good>FALSE</good>
					</logginginfo>
					<labels>
						<label2/>
					</labels>
					<comments>
						<mastercomment1>PROGRAM. BR_MEGAFON_MSUA_OPRO. BR_FINFREDAG_MSUA_OPRO</mastercomment1>
						<mastercomment2>. </mastercomment2>
						<mastercomment3>Sendt: 2012-06-20. Universal Music, Norway; Norge.</mastercomment3>
						<mastercomment4/>
						<clipcommentb>1:F-mix venstre 2:F-mix høyre 3:I-lyd venstre 4:I-lyd høyre</clipcommentb>
					</comments>
					<file id="KMTE60004512AA2"/>
					<marker>
						<name>Justin Bieber møter fans</name>
						<comment/>
						<in>1275</in>
						<out>2025</out>
					</marker>
					<marker>
						<name>Arrangørene er bekymret for sikkerheten</name>
						<comment/>
						<in>7566</in>
						<out>8316</out>
					</marker>
					<marker>
						<name>Folk trenger seg inn på operataket</name>
						<comment/>
						<in>9128</in>
						<out>9878</out>
					</marker>
					<marker>
						<name>Politiet vurderer å avlyse konserten</name>
						<comment/>
						<in>10891</in>
						<out>11641</out>
					</marker>
					<marker>
						<name>Justin Bieber ankommer scenen</name>
						<comment/>
						<in>13795</in>
						<out>14545</out>
					</marker>
					<marker>
						<name>Justin Bieber møter Fredrik Skavlan på Nationalteatret</name>
						<comment/>
						<in>27699</in>
						<out>28449</out>
					</marker>
					<marker>
						<name>Justin snakker om kjæresten og om å være i et forhold</name>
						<comment/>
						<in>29221</in>
						<out>29971</out>
					</marker>
					<marker>
						<name>Justin skakker om at han ikke er en barnestjerne lenger</name>
						<comment/>
						<in>30447</in>
						<out>31197</out>
					</marker>
					<marker>
						<name>Justin om å vokse opp i rampelyset</name>
						<comment/>
						<in>32492</in>
						<out>33242</out>
					</marker>
					<marker>
						<name>Justin om barndommen</name>
						<comment/>
						<in>35024</in>
						<out>35774</out>
					</marker>
					<filter>
						<effect>
							<name>Audio Levels</name>
							<effectid>audiolevels</effectid>
							<effectcategory>audiolevels</effectcategory>
							<effecttype>audiolevels</effecttype>
							<mediatype>audio</mediatype>
							<parameter>
								<name>Level</name>
								<parameterid>level</parameterid>
								<valuemin>0</valuemin>
								<valuemax>3.98109</valuemax>
								<value>0.794328</value>
							</parameter>
						</effect>
					</filter>
					<filter>
						<effect>
							<name>Audio Pan</name>
							<effectid>audiopan</effectid>
							<effectcategory>audiopan</effectcategory>
							<effecttype>audiopan</effecttype>
							<mediatype>audio</mediatype>
							<parameter>
								<name>Pan</name>
								<parameterid>pan</parameterid>
								<valuemin>-1</valuemin>
								<valuemax>1</valuemax>
								<value>-1</value>
							</parameter>
						</effect>
					</filter>
					<sourcetrack>
						<mediatype>audio</mediatype>
						<trackindex>1</trackindex>
					</sourcetrack>
				</clipitem>
				<transitionitem id="625096712 ">
					<rate>
						<ntsc>FALSE</ntsc>
						<timebase>25</timebase>
					</rate>
					<start>7642</start>
					<end>7652</end>
					<alignment>end-black</alignment>
					<effect>
						<name>Cross Fade ( 0dB)</name>
						<effecttype>transition</effecttype>
						<mediatype>audio</mediatype>
					</effect>
				</transitionitem>
				<clipitem id="NONRO198538CD0003 Oslo Knows">
					<name>NONRO198538CD0003 Oslo Knows</name>
					<duration>7727</duration>
					<rate>
						<ntsc>FALSE</ntsc>
						<timebase>25</timebase>
					</rate>
					<in>124</in>
					<out>842</out>
					<start>8347</start>
					<end>9065</end>
					<masterclipid>NONRO198538CD0003 Oslo Knows1</masterclipid>
					<logginginfo>
						<scene/>
						<shottake/>
						<lognote/>
						<good>FALSE</good>
					</logginginfo>
					<labels>
						<label2/>
					</labels>
					<comments>
						<mastercomment1/>
						<mastercomment2/>
						<mastercomment3/>
						<mastercomment4/>
					</comments>
					<file id="NONRO198538CD0003 Oslo Knows2">
						<name>NONRO198538CD0003 Oslo Knows.aif</name>
						<pathurl>file://localhost/Volumes/SuperSAN1/Prosjekter/MSUB20000012%20FIN%20FREDAG/MUSIKK/musikk%20Bieber%20ep%201/NONRO198538CD0003%20Oslo%20Knows.aif</pathurl>
						<rate>
							<timebase>25</timebase>
						</rate>
						<duration>7727</duration>
						<media>
							<audio>
								<rate>
									<timebase>48000</timebase>
								</rate>
								<trackcount>2</trackcount>
								<samplecharacteristics>
									<depth>16</depth>
								</samplecharacteristics>
							</audio>
						</media>
					</file>
					<filter>
						<effect>
							<name>Audio Levels</name>
							<effectid>audiolevels</effectid>
							<effectcategory>audiolevels</effectcategory>
							<effecttype>audiolevels</effecttype>
							<mediatype>audio</mediatype>
							<parameter>
								<name>Level</name>
								<parameterid>level</parameterid>
								<valuemin>0</valuemin>
								<valuemax>3.98109</valuemax>
								<keyframe>
									<when>270.679</when>
									<value>0.158489</value>
								</keyframe>
								<keyframe>
									<when>351.286</when>
									<value>0.0630957</value>
								</keyframe>
								<keyframe>
									<when>778.286</when>
									<value>0</value>
								</keyframe>
								<interpolation>
									<name>FCPCurve</name>
								</interpolation>
								<value>1</value>
							</parameter>
						</effect>
					</filter>
					<filter>
						<effect>
							<name>Audio Pan</name>
							<effectid>audiopan</effectid>
							<effectcategory>audiopan</effectcategory>
							<effecttype>audiopan</effecttype>
							<mediatype>audio</mediatype>
							<parameter>
								<name>Pan</name>
								<parameterid>pan</parameterid>
								<valuemin>-1</valuemin>
								<valuemax>1</valuemax>
								<value>-1</value>
							</parameter>
						</effect>
					</filter>
					<sourcetrack>
						<mediatype>audio</mediatype>
						<trackindex>1</trackindex>
					</sourcetrack>
					<link>
						<linkclipref>NONRO198538CD0003 Oslo Knows</linkclipref>
						<mediatype>audio</mediatype>
						<trackindex>3</trackindex>
						<clipindex>14</clipindex>
						<groupindex>1</groupindex>
					</link>
					<link>
						<linkclipref>NONRO198538CD0003 Oslo Knows3</linkclipref>
						<mediatype>audio</mediatype>
						<trackindex>4</trackindex>
						<clipindex>14</clipindex>
						<groupindex>1</groupindex>
					</link>
				</clipitem>
				<transitionitem id="625098684 ">
					<rate>
						<ntsc>FALSE</ntsc>
						<timebase>25</timebase>
					</rate>
					<start>10104</start>
					<end>10116</end>
					<alignment>start-black</alignment>
					<effect>
						<name>Cross Fade (+3dB) Copy</name>
						<effecttype>transition</effecttype>
						<mediatype>audio</mediatype>
					</effect>
				</transitionitem>
				<clipitem id="msub200012-2108kid1-026 4">
					<name>msub200012-2108kid1-026</name>
					<duration>2145</duration>
					<rate>
						<ntsc>FALSE</ntsc>
						<timebase>25</timebase>
					</rate>
					<in>1159</in>
					<out>1285</out>
					<start>-1</start>
					<end>-1</end>
					<subframeoffset>0</subframeoffset>
					<enabled>TRUE</enabled>
					<masterclipid>msub200012-2108kid1-026 1</masterclipid>
					<logginginfo>
						<description>msub200012-2108kid1-026</description>
						<scene/>
						<shottake/>
						<lognote/>
						<good>FALSE</good>
					</logginginfo>
					<labels>
						<label2/>
					</labels>
					<comments>
						<mastercomment1>RÅSTOFF. BR_FINFREDAG_MSUA_OPRO</mastercomment1>
						<mastercomment2/>
						<mastercomment3/>
						<mastercomment4/>
					</comments>
					<file id="msub200012-2108kid1-026 2"/>
					<filter>
						<enabled>TRUE</enabled>
						<start>-1</start>
						<end>-1</end>
						<effect>
							<name>3 Band Equalizer - Kristine</name>
							<effecttype>filter</effecttype>
							<mediatype>audio</mediatype>
							<parameter>
								<parameterid>Low Frequency</parameterid>
								<name>Low Frequency</name>
								<valuemin>80</valuemin>
								<valuemax>2000</valuemax>
								<value>80</value>
							</parameter>
							<parameter>
								<parameterid>Low Gain(dB)</parameterid>
								<name>Low Gain(dB)</name>
								<valuemin>-20</valuemin>
								<valuemax>20</valuemax>
								<value>-4</value>
							</parameter>
							<parameter>
								<parameterid>Mid Frequency</parameterid>
								<name>Mid Frequency</name>
								<valuemin>400</valuemin>
								<valuemax>8000</valuemax>
								<value>3602</value>
							</parameter>
							<parameter>
								<parameterid>Mid Gain(dB)</parameterid>
								<name>Mid Gain(dB)</name>
								<valuemin>-20</valuemin>
								<valuemax>20</valuemax>
								<value>3</value>
							</parameter>
							<parameter>
								<parameterid>High Frequency</parameterid>
								<name>High Frequency</name>
								<valuemin>5000</valuemin>
								<valuemax>20000</valuemax>
								<value>10354</value>
							</parameter>
							<parameter>
								<parameterid>High Gain(dB)</parameterid>
								<name>High Gain(dB)</name>
								<valuemin>-20</valuemin>
								<valuemax>20</valuemax>
								<value>0</value>
							</parameter>
						</effect>
					</filter>
					<filter>
						<effect>
							<name>Audio Levels</name>
							<effectid>audiolevels</effectid>
							<effectcategory>audiolevels</effectcategory>
							<effecttype>audiolevels</effecttype>
							<mediatype>audio</mediatype>
							<parameter>
								<name>Level</name>
								<parameterid>level</parameterid>
								<valuemin>0</valuemin>
								<valuemax>3.98109</valuemax>
								<keyframe>
									<when>1215.29</when>
									<value>1</value>
								</keyframe>
								<keyframe>
									<when>1230.71</when>
									<value>0.354813</value>
								</keyframe>
								<keyframe>
									<when>1268.43</when>
									<value>0.354813</value>
								</keyframe>
								<keyframe>
									<when>1273.57</when>
									<value>1</value>
								</keyframe>
								<interpolation>
									<name>FCPCurve</name>
								</interpolation>
								<value>1</value>
							</parameter>
						</effect>
					</filter>
					<filter>
						<effect>
							<name>Audio Pan</name>
							<effectid>audiopan</effectid>
							<effectcategory>audiopan</effectcategory>
							<effecttype>audiopan</effecttype>
							<mediatype>audio</mediatype>
							<parameter>
								<name>Pan</name>
								<parameterid>pan</parameterid>
								<valuemin>-1</valuemin>
								<valuemax>1</valuemax>
								<value>0</value>
							</parameter>
						</effect>
					</filter>
					<sourcetrack>
						<mediatype>audio</mediatype>
						<trackindex>3</trackindex>
					</sourcetrack>
				</clipitem>
				<transitionitem id="625091000 ">
					<rate>
						<ntsc>FALSE</ntsc>
						<timebase>25</timebase>
					</rate>
					<start>10226</start>
					<end>10230</end>
					<alignment>center</alignment>
					<effect>
						<name>Cross Fade (+3dB) Copy</name>
						<effecttype>transition</effecttype>
						<mediatype>audio</mediatype>
					</effect>
				</transitionitem>
				<clipitem id="msub200012-2108kid1-026 5">
					<name>msub200012-2108kid1-026</name>
					<duration>2145</duration>
					<rate>
						<ntsc>FALSE</ntsc>
						<timebase>25</timebase>
					</rate>
					<in>1297</in>
					<out>1362</out>
					<start>-1</start>
					<end>-1</end>
					<subframeoffset>0</subframeoffset>
					<enabled>TRUE</enabled>
					<masterclipid>msub200012-2108kid1-026 1</masterclipid>
					<logginginfo>
						<description>msub200012-2108kid1-026</description>
						<scene/>
						<shottake/>
						<lognote/>
						<good>FALSE</good>
					</logginginfo>
					<labels>
						<label2/>
					</labels>
					<comments>
						<mastercomment1>RÅSTOFF. BR_FINFREDAG_MSUA_OPRO</mastercomment1>
						<mastercomment2/>
						<mastercomment3/>
						<mastercomment4/>
					</comments>
					<file id="msub200012-2108kid1-026 2"/>
					<filter>
						<enabled>TRUE</enabled>
						<start>-1</start>
						<end>-1</end>
						<effect>
							<name>3 Band Equalizer - Kristine</name>
							<effecttype>filter</effecttype>
							<mediatype>audio</mediatype>
							<parameter>
								<parameterid>Low Frequency</parameterid>
								<name>Low Frequency</name>
								<valuemin>80</valuemin>
								<valuemax>2000</valuemax>
								<value>80</value>
							</parameter>
							<parameter>
								<parameterid>Low Gain(dB)</parameterid>
								<name>Low Gain(dB)</name>
								<valuemin>-20</valuemin>
								<valuemax>20</valuemax>
								<value>-4</value>
							</parameter>
							<parameter>
								<parameterid>Mid Frequency</parameterid>
								<name>Mid Frequency</name>
								<valuemin>400</valuemin>
								<valuemax>8000</valuemax>
								<value>3602</value>
							</parameter>
							<parameter>
								<parameterid>Mid Gain(dB)</parameterid>
								<name>Mid Gain(dB)</name>
								<valuemin>-20</valuemin>
								<valuemax>20</valuemax>
								<value>3</value>
							</parameter>
							<parameter>
								<parameterid>High Frequency</parameterid>
								<name>High Frequency</name>
								<valuemin>5000</valuemin>
								<valuemax>20000</valuemax>
								<value>10354</value>
							</parameter>
							<parameter>
								<parameterid>High Gain(dB)</parameterid>
								<name>High Gain(dB)</name>
								<valuemin>-20</valuemin>
								<valuemax>20</valuemax>
								<value>0</value>
							</parameter>
						</effect>
					</filter>
					<filter>
						<effect>
							<name>Audio Levels</name>
							<effectid>audiolevels</effectid>
							<effectcategory>audiolevels</effectcategory>
							<effecttype>audiolevels</effecttype>
							<mediatype>audio</mediatype>
							<parameter>
								<name>Level</name>
								<parameterid>level</parameterid>
								<valuemin>0</valuemin>
								<valuemax>3.98109</valuemax>
								<keyframe>
									<when>1180.54</when>
									<value>1</value>
								</keyframe>
								<keyframe>
									<when>1182.06</when>
									<value>0.630957</value>
								</keyframe>
								<keyframe>
									<when>1189.02</when>
									<value>0.630957</value>
								</keyframe>
								<keyframe>
									<when>1191.22</when>
									<value>0.199526</value>
								</keyframe>
								<interpolation>
									<name>FCPCurve</name>
								</interpolation>
								<value>0.199526</value>
							</parameter>
						</effect>
					</filter>
					<filter>
						<effect>
							<name>Audio Pan</name>
							<effectid>audiopan</effectid>
							<effectcategory>audiopan</effectcategory>
							<effecttype>audiopan</effecttype>
							<mediatype>audio</mediatype>
							<parameter>
								<name>Pan</name>
								<parameterid>pan</parameterid>
								<valuemin>-1</valuemin>
								<valuemax>1</valuemax>
								<value>0</value>
							</parameter>
						</effect>
					</filter>
					<sourcetrack>
						<mediatype>audio</mediatype>
						<trackindex>1</trackindex>
					</sourcetrack>
				</clipitem>
				<transitionitem id="625088416 ">
					<rate>
						<ntsc>FALSE</ntsc>
						<timebase>25</timebase>
					</rate>
					<start>10279</start>
					<end>10291</end>
					<alignment>end-black</alignment>
					<effect>
						<name>Cross Fade (+3dB) Copy</name>
						<effecttype>transition</effecttype>
						<mediatype>audio</mediatype>
					</effect>
				</transitionitem>
				<clipitem id="msub200012-2108kid1-017 4">
					<name>msub200012-2108kid1-017</name>
					<duration>2619</duration>
					<rate>
						<ntsc>FALSE</ntsc>
						<timebase>25</timebase>
					</rate>
					<in>135</in>
					<out>268</out>
					<start>10630</start>
					<end>-1</end>
					<subframeoffset>0</subframeoffset>
					<enabled>TRUE</enabled>
					<masterclipid>msub200012-2108kid1-017 1</masterclipid>
					<logginginfo>
						<description>msub200012-2108kid1-017</description>
						<scene/>
						<shottake/>
						<lognote/>
						<good>FALSE</good>
					</logginginfo>
					<labels>
						<label2/>
					</labels>
					<comments>
						<mastercomment1>RÅSTOFF. BR_FINFREDAG_MSUA_OPRO</mastercomment1>
						<mastercomment2/>
						<mastercomment3/>
						<mastercomment4/>
					</comments>
					<file id="msub200012-2108kid1-017 2"/>
					<filter>
						<enabled>TRUE</enabled>
						<start>-1</start>
						<end>-1</end>
						<effect>
							<name>3 Band Equalizer - Mann</name>
							<effecttype>filter</effecttype>
							<mediatype>audio</mediatype>
							<parameter>
								<parameterid>Low Frequency</parameterid>
								<name>Low Frequency</name>
								<valuemin>80</valuemin>
								<valuemax>2000</valuemax>
								<value>100</value>
							</parameter>
							<parameter>
								<parameterid>Low Gain(dB)</parameterid>
								<name>Low Gain(dB)</name>
								<valuemin>-20</valuemin>
								<valuemax>20</valuemax>
								<value>-4</value>
							</parameter>
							<parameter>
								<parameterid>Mid Frequency</parameterid>
								<name>Mid Frequency</name>
								<valuemin>400</valuemin>
								<valuemax>8000</valuemax>
								<value>3602</value>
							</parameter>
							<parameter>
								<parameterid>Mid Gain(dB)</parameterid>
								<name>Mid Gain(dB)</name>
								<valuemin>-20</valuemin>
								<valuemax>20</valuemax>
								<value>3</value>
							</parameter>
							<parameter>
								<parameterid>High Frequency</parameterid>
								<name>High Frequency</name>
								<valuemin>5000</valuemin>
								<valuemax>20000</valuemax>
								<value>10354</value>
							</parameter>
							<parameter>
								<parameterid>High Gain(dB)</parameterid>
								<name>High Gain(dB)</name>
								<valuemin>-20</valuemin>
								<valuemax>20</valuemax>
								<value>0</value>
							</parameter>
						</effect>
					</filter>
					<filter>
						<effect>
							<name>Audio Levels</name>
							<effectid>audiolevels</effectid>
							<effectcategory>audiolevels</effectcategory>
							<effecttype>audiolevels</effecttype>
							<mediatype>audio</mediatype>
							<parameter>
								<name>Level</name>
								<parameterid>level</parameterid>
								<valuemin>0</valuemin>
								<valuemax>3.98109</valuemax>
								<keyframe>
									<when>133.357</when>
									<value>1.12202</value>
								</keyframe>
								<keyframe>
									<when>138.107</when>
									<value>0.891251</value>
								</keyframe>
								<keyframe>
									<when>158.295</when>
									<value>0.891251</value>
								</keyframe>
								<keyframe>
									<when>161.518</when>
									<value>0.158489</value>
								</keyframe>
								<keyframe>
									<when>213.429</when>
									<value>0.158489</value>
								</keyframe>
								<keyframe>
									<when>216.991</when>
									<value>1.41254</value>
								</keyframe>
								<keyframe>
									<when>245.241</when>
									<value>1.41254</value>
								</keyframe>
								<keyframe>
									<when>253.036</when>
									<value>0.354813</value>
								</keyframe>
								<interpolation>
									<name>FCPCurve</name>
								</interpolation>
								<value>1</value>
							</parameter>
						</effect>
					</filter>
					<filter>
						<effect>
							<name>Audio Pan</name>
							<effectid>audiopan</effectid>
							<effectcategory>audiopan</effectcategory>
							<effecttype>audiopan</effecttype>
							<mediatype>audio</mediatype>
							<parameter>
								<name>Pan</name>
								<parameterid>pan</parameterid>
								<valuemin>-1</valuemin>
								<valuemax>1</valuemax>
								<value>0</value>
							</parameter>
						</effect>
					</filter>
					<sourcetrack>
						<mediatype>audio</mediatype>
						<trackindex>2</trackindex>
					</sourcetrack>
				</clipitem>
				<transitionitem id="625085152 ">
					<rate>
						<ntsc>FALSE</ntsc>
						<timebase>25</timebase>
					</rate>
					<start>10757</start>
					<end>10763</end>
					<alignment>end-black</alignment>
					<effect>
						<name>Cross Fade (+3dB) Copy</name>
						<effecttype>transition</effecttype>
						<mediatype>audio</mediatype>
					</effect>
				</transitionitem>
				<transitionitem id="625084064 ">
					<rate>
						<ntsc>FALSE</ntsc>
						<timebase>25</timebase>
					</rate>
					<start>11694</start>
					<end>11700</end>
					<alignment>center</alignment>
					<effect>
						<name>Cross Fade (+3dB) Copy</name>
						<effecttype>transition</effecttype>
						<mediatype>audio</mediatype>
					</effect>
				</transitionitem>
				<clipitem id="NONRO148033CD0001 Girls Keep Secrets in the Strangest Ways">
					<name>NONRO148033CD0001 Girls Keep Secrets in the Strangest Ways</name>
					<duration>4682</duration>
					<rate>
						<ntsc>FALSE</ntsc>
						<timebase>25</timebase>
					</rate>
					<in>49</in>
					<out>368</out>
					<start>-1</start>
					<end>-1</end>
					<enabled>TRUE</enabled>
					<masterclipid>NONRO148033CD0001 Girls Keep Secrets in the Strangest Ways1</masterclipid>
					<logginginfo>
						<scene/>
						<shottake/>
						<lognote/>
						<good>FALSE</good>
					</logginginfo>
					<labels>
						<label2/>
					</labels>
					<comments>
						<mastercomment1/>
						<mastercomment2/>
						<mastercomment3/>
						<mastercomment4/>
					</comments>
					<file id="NONRO148033CD0001 Girls Keep Secrets in the Strangest Ways2">
						<name>NONRO148033CD0001 Girls Keep Secrets in the Strangest Ways.wav</name>
						<pathurl>file://localhost/Volumes/SuperSAN1/Prosjekter/MSUB20000012%20FIN%20FREDAG/MUSIKK/musikk%20Bieber%20ep%201/NONRO148033CD0001%20Girls%20Keep%20Secrets%20in%20the%20Strangest%20Ways.wav</pathurl>
						<rate>
							<timebase>25</timebase>
						</rate>
						<duration>4682</duration>
						<timecode>
							<rate>
								<timebase>25</timebase>
							</rate>
							<string>00:00:00:00</string>
							<frame>0</frame>
							<displayformat>NDF</displayformat>
							<source>source</source>
						</timecode>
						<media>
							<audio>
								<rate>
									<timebase>48000</timebase>
								</rate>
								<trackcount>2</trackcount>
								<samplecharacteristics>
									<depth>16</depth>
								</samplecharacteristics>
							</audio>
						</media>
					</file>
					<filter>
						<effect>
							<name>Audio Levels</name>
							<effectid>audiolevels</effectid>
							<effectcategory>audiolevels</effectcategory>
							<effecttype>audiolevels</effecttype>
							<mediatype>audio</mediatype>
							<parameter>
								<name>Level</name>
								<parameterid>level</parameterid>
								<valuemin>0</valuemin>
								<valuemax>3.98109</valuemax>
								<value>0.281838</value>
							</parameter>
						</effect>
					</filter>
					<filter>
						<effect>
							<name>Audio Pan</name>
							<effectid>audiopan</effectid>
							<effectcategory>audiopan</effectcategory>
							<effecttype>audiopan</effecttype>
							<mediatype>audio</mediatype>
							<parameter>
								<name>Pan</name>
								<parameterid>pan</parameterid>
								<valuemin>-1</valuemin>
								<valuemax>1</valuemax>
								<value>-1</value>
							</parameter>
						</effect>
					</filter>
					<sourcetrack>
						<mediatype>audio</mediatype>
						<trackindex>1</trackindex>
					</sourcetrack>
					<link>
						<linkclipref>NONRO148033CD0001 Girls Keep Secrets in the Strangest Ways</linkclipref>
						<mediatype>audio</mediatype>
						<trackindex>3</trackindex>
						<clipindex>23</clipindex>
						<groupindex>1</groupindex>
					</link>
					<link>
						<linkclipref>NONRO148033CD0001 Girls Keep Secrets in the Strangest Ways3</linkclipref>
						<mediatype>audio</mediatype>
						<trackindex>4</trackindex>
						<clipindex>24</clipindex>
						<groupindex>1</groupindex>
					</link>
				</clipitem>
				<transitionitem id="625110244 ">
					<rate>
						<ntsc>FALSE</ntsc>
						<timebase>25</timebase>
					</rate>
					<start>11913</start>
					<end>12013</end>
					<alignment>end-black</alignment>
					<effect>
						<name>Cross Fade ( 0dB)</name>
						<effecttype>transition</effecttype>
						<mediatype>audio</mediatype>
					</effect>
				</transitionitem>
				<transitionitem id="625109292 ">
					<rate>
						<ntsc>FALSE</ntsc>
						<timebase>25</timebase>
					</rate>
					<start>12139</start>
					<end>12151</end>
					<alignment>center</alignment>
					<effect>
						<name>Cross Fade (+3dB) Copy</name>
						<effecttype>transition</effecttype>
						<mediatype>audio</mediatype>
					</effect>
				</transitionitem>
				<clipitem id="msub200012-2108kid1-021 15">
					<name>msub200012-2108kid1-021</name>
					<duration>4310</duration>
					<rate>
						<ntsc>FALSE</ntsc>
						<timebase>25</timebase>
					</rate>
					<in>3121</in>
					<out>3183</out>
					<start>-1</start>
					<end>-1</end>
					<subframeoffset>0</subframeoffset>
					<enabled>TRUE</enabled>
					<masterclipid>msub200012-2108kid1-021 1</masterclipid>
					<logginginfo>
						<description>msub200012-2108kid1-021</description>
						<scene/>
						<shottake/>
						<lognote/>
						<good>FALSE</good>
					</logginginfo>
					<labels>
						<label2/>
					</labels>
					<comments>
						<mastercomment1>RÅSTOFF. BR_FINFREDAG_MSUA_OPRO</mastercomment1>
						<mastercomment2/>
						<mastercomment3/>
						<mastercomment4/>
					</comments>
					<file id="msub200012-2108kid1-021 2"/>
					<filter>
						<effect>
							<name>Audio Levels</name>
							<effectid>audiolevels</effectid>
							<effectcategory>audiolevels</effectcategory>
							<effecttype>audiolevels</effecttype>
							<mediatype>audio</mediatype>
							<parameter>
								<name>Level</name>
								<parameterid>level</parameterid>
								<valuemin>0</valuemin>
								<valuemax>3.98109</valuemax>
								<value>1.41254</value>
							</parameter>
						</effect>
					</filter>
					<filter>
						<effect>
							<name>Audio Pan</name>
							<effectid>audiopan</effectid>
							<effectcategory>audiopan</effectcategory>
							<effecttype>audiopan</effecttype>
							<mediatype>audio</mediatype>
							<parameter>
								<name>Pan</name>
								<parameterid>pan</parameterid>
								<valuemin>-1</valuemin>
								<valuemax>1</valuemax>
								<value>0</value>
							</parameter>
						</effect>
					</filter>
					<sourcetrack>
						<mediatype>audio</mediatype>
						<trackindex>1</trackindex>
					</sourcetrack>
				</clipitem>
				<transitionitem id="625107592 ">
					<rate>
						<ntsc>FALSE</ntsc>
						<timebase>25</timebase>
					</rate>
					<start>12189</start>
					<end>12201</end>
					<alignment>end-black</alignment>
					<effect>
						<name>Cross Fade (+3dB) Copy</name>
						<effecttype>transition</effecttype>
						<mediatype>audio</mediatype>
					</effect>
				</transitionitem>
				<transitionitem id="625106980 ">
					<rate>
						<ntsc>FALSE</ntsc>
						<timebase>25</timebase>
					</rate>
					<start>12377</start>
					<end>12389</end>
					<alignment>center</alignment>
					<effect>
						<name>Cross Fade (+3dB) Copy</name>
						<effecttype>transition</effecttype>
						<mediatype>audio</mediatype>
					</effect>
				</transitionitem>
				<clipitem id="msub200012-2108kid1-023 7">
					<name>msub200012-2108kid1-023</name>
					<duration>3689</duration>
					<rate>
						<ntsc>FALSE</ntsc>
						<timebase>25</timebase>
					</rate>
					<in>1913</in>
					<out>2123</out>
					<start>-1</start>
					<end>-1</end>
					<subframeoffset>0</subframeoffset>
					<masterclipid>msub200012-2108kid1-023 1</masterclipid>
					<logginginfo>
						<description>msub200012-2108kid1-023</description>
						<scene/>
						<shottake/>
						<lognote/>
						<good>FALSE</good>
					</logginginfo>
					<labels>
						<label2/>
					</labels>
					<comments>
						<mastercomment1>RÅSTOFF. BR_FINFREDAG_MSUA_OPRO</mastercomment1>
						<mastercomment2/>
						<mastercomment3/>
						<mastercomment4/>
					</comments>
					<file id="msub200012-2108kid1-023 2"/>
					<filter>
						<start>-1</start>
						<end>-1</end>
						<effect>
							<name>3 Band Equalizer - Kristine</name>
							<effecttype>filter</effecttype>
							<mediatype>audio</mediatype>
							<parameter>
								<parameterid>Low Frequency</parameterid>
								<name>Low Frequency</name>
								<valuemin>80</valuemin>
								<valuemax>2000</valuemax>
								<value>80</value>
							</parameter>
							<parameter>
								<parameterid>Low Gain(dB)</parameterid>
								<name>Low Gain(dB)</name>
								<valuemin>-20</valuemin>
								<valuemax>20</valuemax>
								<value>-4</value>
							</parameter>
							<parameter>
								<parameterid>Mid Frequency</parameterid>
								<name>Mid Frequency</name>
								<valuemin>400</valuemin>
								<valuemax>8000</valuemax>
								<value>3602</value>
							</parameter>
							<parameter>
								<parameterid>Mid Gain(dB)</parameterid>
								<name>Mid Gain(dB)</name>
								<valuemin>-20</valuemin>
								<valuemax>20</valuemax>
								<value>3</value>
							</parameter>
							<parameter>
								<parameterid>High Frequency</parameterid>
								<name>High Frequency</name>
								<valuemin>5000</valuemin>
								<valuemax>20000</valuemax>
								<value>10354</value>
							</parameter>
							<parameter>
								<parameterid>High Gain(dB)</parameterid>
								<name>High Gain(dB)</name>
								<valuemin>-20</valuemin>
								<valuemax>20</valuemax>
								<value>0</value>
							</parameter>
						</effect>
					</filter>
					<filter>
						<effect>
							<name>Audio Levels</name>
							<effectid>audiolevels</effectid>
							<effectcategory>audiolevels</effectcategory>
							<effecttype>audiolevels</effecttype>
							<mediatype>audio</mediatype>
							<parameter>
								<name>Level</name>
								<parameterid>level</parameterid>
								<valuemin>0</valuemin>
								<valuemax>3.98109</valuemax>
								<keyframe>
									<when>1938.57</when>
									<value>1</value>
								</keyframe>
								<keyframe>
									<when>1964</when>
									<value>3.98107</value>
								</keyframe>
								<keyframe>
									<when>2087</when>
									<value>3.98107</value>
								</keyframe>
								<keyframe>
									<when>2092.43</when>
									<value>2.51189</value>
								</keyframe>
								<keyframe>
									<when>2097.29</when>
									<value>2.51189</value>
								</keyframe>
								<keyframe>
									<when>2099.57</when>
									<value>3.98107</value>
								</keyframe>
								<interpolation>
									<name>FCPCurve</name>
								</interpolation>
								<value>1</value>
							</parameter>
						</effect>
					</filter>
					<filter>
						<effect>
							<name>Audio Pan</name>
							<effectid>audiopan</effectid>
							<effectcategory>audiopan</effectcategory>
							<effecttype>audiopan</effecttype>
							<mediatype>audio</mediatype>
							<parameter>
								<name>Pan</name>
								<parameterid>pan</parameterid>
								<valuemin>-1</valuemin>
								<valuemax>1</valuemax>
								<value>0</value>
							</parameter>
						</effect>
					</filter>
					<sourcetrack>
						<mediatype>audio</mediatype>
						<trackindex>3</trackindex>
					</sourcetrack>
				</clipitem>
				<transitionitem id="625107320 ">
					<rate>
						<ntsc>FALSE</ntsc>
						<timebase>25</timebase>
					</rate>
					<start>12575</start>
					<end>12587</end>
					<alignment>end-black</alignment>
					<effect>
						<name>Cross Fade (+3dB) Copy</name>
						<effecttype>transition</effecttype>
						<mediatype>audio</mediatype>
					</effect>
				</transitionitem>
				<transitionitem id="625108476 ">
					<rate>
						<ntsc>FALSE</ntsc>
						<timebase>25</timebase>
					</rate>
					<start>13566</start>
					<end>13578</end>
					<alignment>center</alignment>
					<effect>
						<name>Cross Fade (+3dB) Copy</name>
						<effecttype>transition</effecttype>
						<mediatype>audio</mediatype>
					</effect>
				</transitionitem>
				<clipitem id="NONRO148033CD0001 Girls Keep Secrets in the Strangest Ways4">
					<name>NONRO148033CD0001 Girls Keep Secrets in the Strangest Ways</name>
					<duration>4682</duration>
					<rate>
						<ntsc>FALSE</ntsc>
						<timebase>25</timebase>
					</rate>
					<in>46</in>
					<out>368</out>
					<start>-1</start>
					<end>-1</end>
					<enabled>TRUE</enabled>
					<masterclipid>NONRO148033CD0001 Girls Keep Secrets in the Strangest Ways1</masterclipid>
					<logginginfo>
						<scene/>
						<shottake/>
						<lognote/>
						<good>FALSE</good>
					</logginginfo>
					<labels>
						<label2/>
					</labels>
					<comments>
						<mastercomment1/>
						<mastercomment2/>
						<mastercomment3/>
						<mastercomment4/>
					</comments>
					<file id="NONRO148033CD0001 Girls Keep Secrets in the Strangest Ways2"/>
					<filter>
						<effect>
							<name>Audio Levels</name>
							<effectid>audiolevels</effectid>
							<effectcategory>audiolevels</effectcategory>
							<effecttype>audiolevels</effecttype>
							<mediatype>audio</mediatype>
							<parameter>
								<name>Level</name>
								<parameterid>level</parameterid>
								<valuemin>0</valuemin>
								<valuemax>3.98109</valuemax>
								<keyframe>
									<when>143.232</when>
									<value>0.251189</value>
								</keyframe>
								<keyframe>
									<when>198.143</when>
									<value>0.251189</value>
								</keyframe>
								<interpolation>
									<name>FCPCurve</name>
								</interpolation>
								<value>0.251189</value>
							</parameter>
						</effect>
					</filter>
					<filter>
						<effect>
							<name>Audio Pan</name>
							<effectid>audiopan</effectid>
							<effectcategory>audiopan</effectcategory>
							<effecttype>audiopan</effecttype>
							<mediatype>audio</mediatype>
							<parameter>
								<name>Pan</name>
								<parameterid>pan</parameterid>
								<valuemin>-1</valuemin>
								<valuemax>1</valuemax>
								<value>-1</value>
							</parameter>
						</effect>
					</filter>
					<sourcetrack>
						<mediatype>audio</mediatype>
						<trackindex>1</trackindex>
					</sourcetrack>
					<link>
						<linkclipref>NONRO148033CD0001 Girls Keep Secrets in the Strangest Ways4</linkclipref>
						<mediatype>audio</mediatype>
						<trackindex>3</trackindex>
						<clipindex>32</clipindex>
						<groupindex>1</groupindex>
					</link>
					<link>
						<linkclipref>NONRO148033CD0001 Girls Keep Secrets in the Strangest Ways5</linkclipref>
						<mediatype>audio</mediatype>
						<trackindex>4</trackindex>
						<clipindex>30</clipindex>
						<groupindex>1</groupindex>
					</link>
				</clipitem>
				<transitionitem id="625094332 ">
					<rate>
						<ntsc>FALSE</ntsc>
						<timebase>25</timebase>
					</rate>
					<start>13788</start>
					<end>13888</end>
					<alignment>end-black</alignment>
					<effect>
						<name>Cross Fade ( 0dB)</name>
						<effecttype>transition</effecttype>
						<mediatype>audio</mediatype>
					</effect>
				</transitionitem>
				<transitionitem id="625095012 ">
					<rate>
						<ntsc>FALSE</ntsc>
						<timebase>25</timebase>
					</rate>
					<start>21441</start>
					<end>21443</end>
					<alignment>start-black</alignment>
					<effect>
						<name>Cross Fade (+3dB) Copy</name>
						<effecttype>transition</effecttype>
						<mediatype>audio</mediatype>
					</effect>
				</transitionitem>
				<clipitem id="msub200012-0409d1k1011 16">
					<name>msub200012-0409d1k1011</name>
					<duration>24527</duration>
					<rate>
						<ntsc>FALSE</ntsc>
						<timebase>25</timebase>
					</rate>
					<in>12472</in>
					<out>12501</out>
					<start>-1</start>
					<end>-1</end>
					<subframeoffset>0</subframeoffset>
					<enabled>TRUE</enabled>
					<masterclipid>msub200012-0409d1k1011 1</masterclipid>
					<logginginfo>
						<description>msub200012-0409d1k1011</description>
						<scene/>
						<shottake/>
						<lognote/>
						<good>FALSE</good>
					</logginginfo>
					<labels>
						<label>B Roll</label>
						<label2/>
					</labels>
					<comments>
						<mastercomment1>RÅSTOFF. BR_FINFREDAG_MSUA_OPRO</mastercomment1>
						<mastercomment2/>
						<mastercomment3/>
						<mastercomment4/>
					</comments>
					<file id="msub200012-0409d1k1011 2"/>
					<filter>
						<enabled>TRUE</enabled>
						<start>-1</start>
						<end>-1</end>
						<effect>
							<name>3 Band Equalizer - Kristine</name>
							<effecttype>filter</effecttype>
							<mediatype>audio</mediatype>
							<parameter>
								<parameterid>Low Frequency</parameterid>
								<name>Low Frequency</name>
								<valuemin>80</valuemin>
								<valuemax>2000</valuemax>
								<value>80</value>
							</parameter>
							<parameter>
								<parameterid>Low Gain(dB)</parameterid>
								<name>Low Gain(dB)</name>
								<valuemin>-20</valuemin>
								<valuemax>20</valuemax>
								<value>-4</value>
							</parameter>
							<parameter>
								<parameterid>Mid Frequency</parameterid>
								<name>Mid Frequency</name>
								<valuemin>400</valuemin>
								<valuemax>8000</valuemax>
								<value>3602</value>
							</parameter>
							<parameter>
								<parameterid>Mid Gain(dB)</parameterid>
								<name>Mid Gain(dB)</name>
								<valuemin>-20</valuemin>
								<valuemax>20</valuemax>
								<value>3</value>
							</parameter>
							<parameter>
								<parameterid>High Frequency</parameterid>
								<name>High Frequency</name>
								<valuemin>5000</valuemin>
								<valuemax>20000</valuemax>
								<value>10354</value>
							</parameter>
							<parameter>
								<parameterid>High Gain(dB)</parameterid>
								<name>High Gain(dB)</name>
								<valuemin>-20</valuemin>
								<valuemax>20</valuemax>
								<value>0</value>
							</parameter>
						</effect>
					</filter>
					<filter>
						<effect>
							<name>Audio Levels</name>
							<effectid>audiolevels</effectid>
							<effectcategory>audiolevels</effectcategory>
							<effecttype>audiolevels</effecttype>
							<mediatype>audio</mediatype>
							<parameter>
								<name>Level</name>
								<parameterid>level</parameterid>
								<valuemin>0</valuemin>
								<valuemax>3.98109</valuemax>
								<value>1.58489</value>
							</parameter>
						</effect>
					</filter>
					<filter>
						<effect>
							<name>Audio Pan</name>
							<effectid>audiopan</effectid>
							<effectcategory>audiopan</effectcategory>
							<effecttype>audiopan</effecttype>
							<mediatype>audio</mediatype>
							<parameter>
								<name>Pan</name>
								<parameterid>pan</parameterid>
								<valuemin>-1</valuemin>
								<valuemax>1</valuemax>
								<value>0</value>
							</parameter>
						</effect>
					</filter>
					<sourcetrack>
						<mediatype>audio</mediatype>
						<trackindex>2</trackindex>
					</sourcetrack>
				</clipitem>
				<transitionitem id="625092700 ">
					<rate>
						<ntsc>FALSE</ntsc>
						<timebase>25</timebase>
					</rate>
					<start>21468</start>
					<end>21470</end>
					<alignment>end-black</alignment>
					<effect>
						<name>Cross Fade (+3dB) Copy</name>
						<effecttype>transition</effecttype>
						<mediatype>audio</mediatype>
					</effect>
				</transitionitem>
				<clipitem id="Hinderloype motion NY">
					<name>Hinderloype motion NY</name>
					<duration>1663</duration>
					<rate>
						<ntsc>FALSE</ntsc>
						<timebase>25</timebase>
					</rate>
					<in>0</in>
					<out>1663</out>
					<start>23048</start>
					<end>24711</end>
					<labels>
						<label>Best Take</label>
					</labels>
					<filter>
						<effect>
							<name>Audio Levels</name>
							<effectid>audiolevels</effectid>
							<effectcategory>audiolevels</effectcategory>
							<effecttype>audiolevels</effecttype>
							<mediatype>audio</mediatype>
							<parameter>
								<name>Level</name>
								<parameterid>level</parameterid>
								<valuemin>0</valuemin>
								<valuemax>3.98109</valuemax>
								<value>1</value>
							</parameter>
						</effect>
					</filter>
					<filter>
						<effect>
							<name>Audio Pan</name>
							<effectid>audiopan</effectid>
							<effectcategory>audiopan</effectcategory>
							<effecttype>audiopan</effecttype>
							<mediatype>audio</mediatype>
							<parameter>
								<name>Pan</name>
								<parameterid>pan</parameterid>
								<valuemin>-1</valuemin>
								<valuemax>1</valuemax>
								<value>-1</value>
							</parameter>
						</effect>
					</filter>
					<sequence id="Hinderloype motion NY1">
						<name>Hinderloype motion NY</name>
						<duration>1663</duration>
						<rate>
							<ntsc>FALSE</ntsc>
							<timebase>25</timebase>
						</rate>
						<timecode>
							<rate>
								<ntsc>FALSE</ntsc>
								<timebase>25</timebase>
							</rate>
							<string>00:00:00:00</string>
							<frame>0</frame>
							<source>source</source>
							<displayformat>NDF</displayformat>
						</timecode>
						<in>-1</in>
						<out>-1</out>
						<media>
							<video>
								<format>
									<samplecharacteristics>
										<width>1920</width>
										<height>1080</height>
										<anamorphic>FALSE</anamorphic>
										<pixelaspectratio>Square</pixelaspectratio>
										<fielddominance>upper</fielddominance>
										<rate>
											<ntsc>FALSE</ntsc>
											<timebase>25</timebase>
										</rate>
										<colordepth>24</colordepth>
										<codec>
											<name>Apple XDCAM 422 1080i50 (50 Mb/s CBR)</name>
											<appspecificdata>
												<appname>Final Cut Pro</appname>
												<appmanufacturer>Apple Inc.</appmanufacturer>
												<appversion>7.0</appversion>
												<data>
													<qtcodec>
														<codecname>Apple XDCAM 422 1080i50 (50 Mb/s CBR)</codecname>
														<codectypename>XDCAM 422 1080i50 (50 Mb/s CBR)</codectypename>
														<codectypecode>xd5c</codectypecode>
														<codecvendorcode>appl</codecvendorcode>
														<spatialquality>1023</spatialquality>
														<temporalquality>0</temporalquality>
														<keyframerate>0</keyframerate>
														<datarate>0</datarate>
													</qtcodec>
												</data>
											</appspecificdata>
										</codec>
									</samplecharacteristics>
									<appspecificdata>
										<appname>Final Cut Pro</appname>
										<appmanufacturer>Apple Inc.</appmanufacturer>
										<appversion>7.0</appversion>
										<data>
											<fcpimageprocessing>
												<useyuv>TRUE</useyuv>
												<usesuperwhite>FALSE</usesuperwhite>
												<rendermode>YUV8BPP</rendermode>
											</fcpimageprocessing>
										</data>
									</appspecificdata>
								</format>
								<track>
									<clipitem id="msub200012-labyrintvig2 4">
										<name>msub200012-labyrintvig2</name>
										<duration>1610</duration>
										<rate>
											<ntsc>FALSE</ntsc>
											<timebase>25</timebase>
										</rate>
										<in>0</in>
										<out>33</out>
										<start>0</start>
										<end>33</end>
										<pixelaspectratio>Square</pixelaspectratio>
										<enabled>FALSE</enabled>
										<anamorphic>FALSE</anamorphic>
										<alphatype>none</alphatype>
										<masterclipid>msub200012-labyrintvig2 1</masterclipid>
										<logginginfo>
											<description>msub200012-labyrintvig2</description>
											<scene/>
											<shottake/>
											<lognote/>
											<good>FALSE</good>
										</logginginfo>
										<labels>
											<label2/>
										</labels>
										<comments>
											<mastercomment1>BARN OG UNGDOM. BR_FINFREDAG_MSUA_OPRO</mastercomment1>
											<mastercomment2/>
											<mastercomment3/>
											<mastercomment4/>
										</comments>
										<file id="msub200012-labyrintvig2 2"/>
										<filter>
											<enabled>TRUE</enabled>
											<start>-1</start>
											<end>-1</end>
											<effect>
												<name>Luma Key</name>
												<effectid>Luma Key</effectid>
												<effectcategory>Key</effectcategory>
												<effecttype>filter</effecttype>
												<mediatype>video</mediatype>
												<parameter>
													<parameterid>view</parameterid>
													<name>View</name>
													<valuemin>1</valuemin>
													<valuemax>4</valuemax>
													<valuelist>
														<valueentry>
															<name>Source</name>
															<value>1</value>
														</valueentry>
														<valueentry>
															<name>Matte</name>
															<value>2</value>
														</valueentry>
														<valueentry>
															<name>Final</name>
															<value>3</value>
														</valueentry>
														<valueentry>
															<name>Source, Matte, Final</name>
															<value>4</value>
														</valueentry>
													</valuelist>
													<value>3</value>
												</parameter>
												<parameter>
													<parameterid>keymode</parameterid>
													<name>Key Mode</name>
													<valuemin>1</valuemin>
													<valuemax>4</valuemax>
													<valuelist>
														<valueentry>
															<name>Key Out Brighter</name>
															<value>1</value>
														</valueentry>
														<valueentry>
															<name>Key Out Darker</name>
															<value>2</value>
														</valueentry>
														<valueentry>
															<name>Key Out Similar</name>
															<value>3</value>
														</valueentry>
														<valueentry>
															<name>Key Out Dissimilar</name>
															<value>4</value>
														</valueentry>
													</valuelist>
													<value>2</value>
												</parameter>
												<parameter>
													<parameterid>matteto</parameterid>
													<name>Matte</name>
													<valuemin>1</valuemin>
													<valuemax>2</valuemax>
													<valuelist>
														<valueentry>
															<name>Copy to Alpha</name>
															<value>1</value>
														</valueentry>
														<valueentry>
															<name>Copy to RGB</name>
															<value>2</value>
														</valueentry>
													</valuelist>
													<value>1</value>
												</parameter>
												<parameter>
													<parameterid>threshold</parameterid>
													<name>Threshold</name>
													<valuemin>-100</valuemin>
													<valuemax>100</valuemax>
													<value>-39</value>
												</parameter>
												<parameter>
													<parameterid>tolerance</parameterid>
													<name>Tolerance</name>
													<valuemin>0</valuemin>
													<valuemax>100</valuemax>
													<value>47</value>
												</parameter>
											</effect>
										</filter>
										<sourcetrack>
											<mediatype>video</mediatype>
										</sourcetrack>
										<fielddominance>upper</fielddominance>
									</clipitem>
									<clipitem id="msub200012-labyrintvig2 5">
										<name>msub200012-labyrintvig2</name>
										<duration>1610</duration>
										<rate>
											<ntsc>FALSE</ntsc>
											<timebase>25</timebase>
										</rate>
										<in>33</in>
										<out>1610</out>
										<start>33</start>
										<end>1610</end>
										<pixelaspectratio>Square</pixelaspectratio>
										<anamorphic>FALSE</anamorphic>
										<alphatype>none</alphatype>
										<masterclipid>msub200012-labyrintvig2 1</masterclipid>
										<logginginfo>
											<description>msub200012-labyrintvig2</description>
											<scene/>
											<shottake/>
											<lognote/>
											<good>FALSE</good>
										</logginginfo>
										<labels>
											<label2/>
										</labels>
										<comments>
											<mastercomment1>BARN OG UNGDOM. BR_FINFREDAG_MSUA_OPRO</mastercomment1>
											<mastercomment2/>
											<mastercomment3/>
											<mastercomment4/>
										</comments>
										<file id="msub200012-labyrintvig2 2"/>
										<sourcetrack>
											<mediatype>video</mediatype>
										</sourcetrack>
										<fielddominance>upper</fielddominance>
									</clipitem>
									<enabled>TRUE</enabled>
									<locked>FALSE</locked>
								</track>
								<track>
									<enabled>TRUE</enabled>
									<locked>FALSE</locked>
								</track>
								<track>
									<enabled>TRUE</enabled>
									<locked>FALSE</locked>
								</track>
							</video>
							<audio>
								<format>
									<samplecharacteristics>
										<depth>24</depth>
										<samplerate>48000</samplerate>
									</samplecharacteristics>
								</format>
								<outputs>
									<group>
										<index>1</index>
										<numchannels>2</numchannels>
										<downmix>0</downmix>
										<channel>
											<index>1</index>
										</channel>
										<channel>
											<index>2</index>
										</channel>
									</group>
								</outputs>
								<in>-1</in>
								<out>-1</out>
								<track>
									<clipitem id="Boing - hoink - plystring.aifXX">
										<name>Boing - hoink - plystring.aif</name>
										<duration>256</duration>
										<rate>
											<ntsc>FALSE</ntsc>
											<timebase>25</timebase>
										</rate>
										<in>36</in>
										<out>46</out>
										<start>412</start>
										<end>422</end>
										<subframeoffset>0</subframeoffset>
										<masterclipid>Boing - hoink - plystring.aif1</masterclipid>
										<logginginfo>
											<scene/>
											<shottake/>
											<lognote/>
											<good>FALSE</good>
										</logginginfo>
										<labels>
											<label2/>
										</labels>
										<comments>
											<mastercomment1/>
											<mastercomment2/>
											<mastercomment3/>
											<mastercomment4/>
										</comments>
										<file id="Boing - hoink - plystring">
											<name>Boing - hoink - plystring.aif</name>
											<pathurl>file://localhost/Volumes/SuperSAN1/Prosjekter/MSUB20000012%20FIN%20FREDAG/FCP-prosjekter/program%201/Musikk/Hinderloype%20SFX/Boing%20-%20hoink%20-%20plystring.aif</pathurl>
											<rate>
												<timebase>25</timebase>
											</rate>
											<duration>256</duration>
											<media>
												<audio>
													<rate>
														<timebase>48000</timebase>
													</rate>
													<trackcount>2</trackcount>
													<samplecharacteristics>
														<depth>16</depth>
													</samplecharacteristics>
												</audio>
											</media>
										</file>
										<filter>
											<effect>
												<name>Audio Levels</name>
												<effectid>audiolevels</effectid>
												<effectcategory>audiolevels</effectcategory>
												<effecttype>audiolevels</effecttype>
												<mediatype>audio</mediatype>
												<parameter>
													<name>Level</name>
													<parameterid>level</parameterid>
													<valuemin>0</valuemin>
													<valuemax>3.98109</valuemax>
													<value>0.446684</value>
												</parameter>
											</effect>
										</filter>
										<filter>
											<effect>
												<name>Audio Pan</name>
												<effectid>audiopan</effectid>
												<effectcategory>audiopan</effectcategory>
												<effecttype>audiopan</effecttype>
												<mediatype>audio</mediatype>
												<parameter>
													<name>Pan</name>
													<parameterid>pan</parameterid>
													<valuemin>-1</valuemin>
													<valuemax>1</valuemax>
													<value>-1</value>
												</parameter>
											</effect>
										</filter>
										<sourcetrack>
											<mediatype>audio</mediatype>
											<trackindex>1</trackindex>
										</sourcetrack>
										<link>
											<linkclipref>Boing - hoink - plystring.aif</linkclipref>
											<mediatype>audio</mediatype>
											<trackindex>1</trackindex>
											<clipindex>1</clipindex>
											<groupindex>1</groupindex>
										</link>
										<link>
											<linkclipref>Boing - hoink - plystring.aif2</linkclipref>
											<mediatype>audio</mediatype>
											<trackindex>2</trackindex>
											<clipindex>1</clipindex>
											<groupindex>1</groupindex>
										</link>
									</clipitem>
									<clipitem id="Fløyte - rask.aif">
										<name>Fløyte - rask.aif</name>
										<duration>218</duration>
										<rate>
											<ntsc>FALSE</ntsc>
											<timebase>25</timebase>
										</rate>
										<in>8</in>
										<out>23</out>
										<start>472</start>
										<end>487</end>
										<subframeoffset>0</subframeoffset>
										<masterclipid>Fløyte - rask.aif1</masterclipid>
										<logginginfo>
											<scene/>
											<shottake/>
											<lognote/>
											<good>FALSE</good>
										</logginginfo>
										<labels>
											<label2/>
										</labels>
										<comments>
											<mastercomment1/>
											<mastercomment2/>
											<mastercomment3/>
											<mastercomment4/>
										</comments>
										<file id="Fløyte - rask">
											<name>Fløyte - rask.aif</name>
											<pathurl>file://localhost/Volumes/SuperSAN1/Prosjekter/MSUB20000012%20FIN%20FREDAG/FCP-prosjekter/program%201/Musikk/Hinderloype%20SFX/Fl%C3%B8yte%20-%20rask.aif</pathurl>
											<rate>
												<timebase>25</timebase>
											</rate>
											<duration>218</duration>
											<media>
												<audio>
													<rate>
														<timebase>48000</timebase>
													</rate>
													<trackcount>2</trackcount>
													<samplecharacteristics>
														<depth>16</depth>
													</samplecharacteristics>
												</audio>
											</media>
										</file>
										<filter>
											<effect>
												<name>Audio Levels</name>
												<effectid>audiolevels</effectid>
												<effectcategory>audiolevels</effectcategory>
												<effecttype>audiolevels</effecttype>
												<mediatype>audio</mediatype>
												<parameter>
													<name>Level</name>
													<parameterid>level</parameterid>
													<valuemin>0</valuemin>
													<valuemax>3.98109</valuemax>
													<value>0.398107</value>
												</parameter>
											</effect>
										</filter>
										<filter>
											<effect>
												<name>Audio Pan</name>
												<effectid>audiopan</effectid>
												<effectcategory>audiopan</effectcategory>
												<effecttype>audiopan</effecttype>
												<mediatype>audio</mediatype>
												<parameter>
													<name>Pan</name>
													<parameterid>pan</parameterid>
													<valuemin>-1</valuemin>
													<valuemax>1</valuemax>
													<value>-1</value>
												</parameter>
											</effect>
										</filter>
										<sourcetrack>
											<mediatype>audio</mediatype>
											<trackindex>1</trackindex>
										</sourcetrack>
										<link>
											<linkclipref>Fløyte - rask.aif</linkclipref>
											<mediatype>audio</mediatype>
											<trackindex>1</trackindex>
											<clipindex>2</clipindex>
											<groupindex>1</groupindex>
										</link>
										<link>
											<linkclipref>Fløyte - rask.aif2</linkclipref>
											<mediatype>audio</mediatype>
											<trackindex>2</trackindex>
											<clipindex>2</clipindex>
											<groupindex>1</groupindex>
										</link>
									</clipitem>
									<clipitem id="Fløyte - rask.aif3">
										<name>Fløyte - rask.aif</name>
										<duration>218</duration>
										<rate>
											<ntsc>FALSE</ntsc>
											<timebase>25</timebase>
										</rate>
										<in>7</in>
										<out>23</out>
										<start>990</start>
										<end>1006</end>
										<subframeoffset>0</subframeoffset>
										<masterclipid>Fløyte - rask.aif1</masterclipid>
										<logginginfo>
											<scene/>
											<shottake/>
											<lognote/>
											<good>FALSE</good>
										</logginginfo>
										<labels>
											<label2/>
										</labels>
										<comments>
											<mastercomment1/>
											<mastercomment2/>
											<mastercomment3/>
											<mastercomment4/>
										</comments>
										<file id="Fløyte - rask"/>
										<filter>
											<effect>
												<name>Audio Levels</name>
												<effectid>audiolevels</effectid>
												<effectcategory>audiolevels</effectcategory>
												<effecttype>audiolevels</effecttype>
												<mediatype>audio</mediatype>
												<parameter>
													<name>Level</name>
													<parameterid>level</parameterid>
													<valuemin>0</valuemin>
													<valuemax>3.98109</valuemax>
													<value>0.251189</value>
												</parameter>
											</effect>
										</filter>
										<filter>
											<effect>
												<name>Audio Pan</name>
												<effectid>audiopan</effectid>
												<effectcategory>audiopan</effectcategory>
												<effecttype>audiopan</effecttype>
												<mediatype>audio</mediatype>
												<parameter>
													<name>Pan</name>
													<parameterid>pan</parameterid>
													<valuemin>-1</valuemin>
													<valuemax>1</valuemax>
													<value>-1</value>
												</parameter>
											</effect>
										</filter>
										<sourcetrack>
											<mediatype>audio</mediatype>
											<trackindex>1</trackindex>
										</sourcetrack>
										<link>
											<linkclipref>Fløyte - rask.aif3</linkclipref>
											<mediatype>audio</mediatype>
											<trackindex>1</trackindex>
											<clipindex>3</clipindex>
											<groupindex>1</groupindex>
										</link>
										<link>
											<linkclipref>Fløyte - rask.aif4</linkclipref>
											<mediatype>audio</mediatype>
											<trackindex>2</trackindex>
											<clipindex>3</clipindex>
											<groupindex>1</groupindex>
										</link>
									</clipitem>
									<clipitem id="Boing - hoink - plystring.aif3">
										<name>Boing - hoink - plystring.aif</name>
										<duration>256</duration>
										<rate>
											<ntsc>FALSE</ntsc>
											<timebase>25</timebase>
										</rate>
										<in>39</in>
										<out>41</out>
										<start>1009</start>
										<end>1011</end>
										<subframeoffset>0</subframeoffset>
										<masterclipid>Boing - hoink - plystring.aif1</masterclipid>
										<logginginfo>
											<scene/>
											<shottake/>
											<lognote/>
											<good>FALSE</good>
										</logginginfo>
										<labels>
											<label2/>
										</labels>
										<comments>
											<mastercomment1/>
											<mastercomment2/>
											<mastercomment3/>
											<mastercomment4/>
										</comments>
										<file id="Boing - hoink - plystring"/>
										<filter>
											<effect>
												<name>Audio Levels</name>
												<effectid>audiolevels</effectid>
												<effectcategory>audiolevels</effectcategory>
												<effecttype>audiolevels</effecttype>
												<mediatype>audio</mediatype>
												<parameter>
													<name>Level</name>
													<parameterid>level</parameterid>
													<valuemin>0</valuemin>
													<valuemax>3.98109</valuemax>
													<value>0.251189</value>
												</parameter>
											</effect>
										</filter>
										<filter>
											<effect>
												<name>Audio Pan</name>
												<effectid>audiopan</effectid>
												<effectcategory>audiopan</effectcategory>
												<effecttype>audiopan</effecttype>
												<mediatype>audio</mediatype>
												<parameter>
													<name>Pan</name>
													<parameterid>pan</parameterid>
													<valuemin>-1</valuemin>
													<valuemax>1</valuemax>
													<value>-1</value>
												</parameter>
											</effect>
										</filter>
										<sourcetrack>
											<mediatype>audio</mediatype>
											<trackindex>1</trackindex>
										</sourcetrack>
										<link>
											<linkclipref>Boing - hoink - plystring.aif3</linkclipref>
											<mediatype>audio</mediatype>
											<trackindex>1</trackindex>
											<clipindex>4</clipindex>
											<groupindex>1</groupindex>
										</link>
										<link>
											<linkclipref>Boing - hoink - plystring.aif4</linkclipref>
											<mediatype>audio</mediatype>
											<trackindex>2</trackindex>
											<clipindex>4</clipindex>
											<groupindex>1</groupindex>
										</link>
									</clipitem>
									<enabled>TRUE</enabled>
									<locked>FALSE</locked>
									<outputchannelindex>1</outputchannelindex>
								</track>
								<track>
									<clipitem id="Boing - hoink - plystring.aif2">
										<name>Boing - hoink - plystring.aif</name>
										<duration>256</duration>
										<rate>
											<ntsc>FALSE</ntsc>
											<timebase>25</timebase>
										</rate>
										<in>36</in>
										<out>46</out>
										<start>412</start>
										<end>422</end>
										<subframeoffset>0</subframeoffset>
										<masterclipid>Boing - hoink - plystring.aif1</masterclipid>
										<logginginfo>
											<scene/>
											<shottake/>
											<lognote/>
											<good>FALSE</good>
										</logginginfo>
										<labels>
											<label2/>
										</labels>
										<comments>
											<mastercomment1/>
											<mastercomment2/>
											<mastercomment3/>
											<mastercomment4/>
										</comments>
										<file id="Boing - hoink - plystring"/>
										<filter>
											<effect>
												<name>Audio Levels</name>
												<effectid>audiolevels</effectid>
												<effectcategory>audiolevels</effectcategory>
												<effecttype>audiolevels</effecttype>
												<mediatype>audio</mediatype>
												<parameter>
													<name>Level</name>
													<parameterid>level</parameterid>
													<valuemin>0</valuemin>
													<valuemax>3.98109</valuemax>
													<value>0.446684</value>
												</parameter>
											</effect>
										</filter>
										<filter>
											<effect>
												<name>Audio Pan</name>
												<effectid>audiopan</effectid>
												<effectcategory>audiopan</effectcategory>
												<effecttype>audiopan</effecttype>
												<mediatype>audio</mediatype>
												<parameter>
													<name>Pan</name>
													<parameterid>pan</parameterid>
													<valuemin>-1</valuemin>
													<valuemax>1</valuemax>
													<value>1</value>
												</parameter>
											</effect>
										</filter>
										<sourcetrack>
											<mediatype>audio</mediatype>
											<trackindex>2</trackindex>
										</sourcetrack>
										<link>
											<linkclipref>Boing - hoink - plystring.aif</linkclipref>
											<mediatype>audio</mediatype>
											<trackindex>1</trackindex>
											<clipindex>1</clipindex>
											<groupindex>1</groupindex>
										</link>
										<link>
											<linkclipref>Boing - hoink - plystring.aif2</linkclipref>
											<mediatype>audio</mediatype>
											<trackindex>2</trackindex>
											<clipindex>1</clipindex>
											<groupindex>1</groupindex>
										</link>
									</clipitem>
									<clipitem id="Fløyte - rask.aif2">
										<name>Fløyte - rask.aif</name>
										<duration>218</duration>
										<rate>
											<ntsc>FALSE</ntsc>
											<timebase>25</timebase>
										</rate>
										<in>8</in>
										<out>23</out>
										<start>472</start>
										<end>487</end>
										<subframeoffset>0</subframeoffset>
										<masterclipid>Fløyte - rask.aif1</masterclipid>
										<logginginfo>
											<scene/>
											<shottake/>
											<lognote/>
											<good>FALSE</good>
										</logginginfo>
										<labels>
											<label2/>
										</labels>
										<comments>
											<mastercomment1/>
											<mastercomment2/>
											<mastercomment3/>
											<mastercomment4/>
										</comments>
										<file id="Fløyte - rask"/>
										<filter>
											<effect>
												<name>Audio Levels</name>
												<effectid>audiolevels</effectid>
												<effectcategory>audiolevels</effectcategory>
												<effecttype>audiolevels</effecttype>
												<mediatype>audio</mediatype>
												<parameter>
													<name>Level</name>
													<parameterid>level</parameterid>
													<valuemin>0</valuemin>
													<valuemax>3.98109</valuemax>
													<value>0.398107</value>
												</parameter>
											</effect>
										</filter>
										<filter>
											<effect>
												<name>Audio Pan</name>
												<effectid>audiopan</effectid>
												<effectcategory>audiopan</effectcategory>
												<effecttype>audiopan</effecttype>
												<mediatype>audio</mediatype>
												<parameter>
													<name>Pan</name>
													<parameterid>pan</parameterid>
													<valuemin>-1</valuemin>
													<valuemax>1</valuemax>
													<value>1</value>
												</parameter>
											</effect>
										</filter>
										<sourcetrack>
											<mediatype>audio</mediatype>
											<trackindex>2</trackindex>
										</sourcetrack>
										<link>
											<linkclipref>Fløyte - rask.aif</linkclipref>
											<mediatype>audio</mediatype>
											<trackindex>1</trackindex>
											<clipindex>2</clipindex>
											<groupindex>1</groupindex>
										</link>
										<link>
											<linkclipref>Fløyte - rask.aif2</linkclipref>
											<mediatype>audio</mediatype>
											<trackindex>2</trackindex>
											<clipindex>2</clipindex>
											<groupindex>1</groupindex>
										</link>
									</clipitem>
									<clipitem id="Fløyte - rask.aif4">
										<name>Fløyte - rask.aif</name>
										<duration>218</duration>
										<rate>
											<ntsc>FALSE</ntsc>
											<timebase>25</timebase>
										</rate>
										<in>7</in>
										<out>23</out>
										<start>990</start>
										<end>1006</end>
										<subframeoffset>0</subframeoffset>
										<masterclipid>Fløyte - rask.aif1</masterclipid>
										<logginginfo>
											<scene/>
											<shottake/>
											<lognote/>
											<good>FALSE</good>
										</logginginfo>
										<labels>
											<label2/>
										</labels>
										<comments>
											<mastercomment1/>
											<mastercomment2/>
											<mastercomment3/>
											<mastercomment4/>
										</comments>
										<file id="Fløyte - rask"/>
										<filter>
											<effect>
												<name>Audio Levels</name>
												<effectid>audiolevels</effectid>
												<effectcategory>audiolevels</effectcategory>
												<effecttype>audiolevels</effecttype>
												<mediatype>audio</mediatype>
												<parameter>
													<name>Level</name>
													<parameterid>level</parameterid>
													<valuemin>0</valuemin>
													<valuemax>3.98109</valuemax>
													<value>0.251189</value>
												</parameter>
											</effect>
										</filter>
										<filter>
											<effect>
												<name>Audio Pan</name>
												<effectid>audiopan</effectid>
												<effectcategory>audiopan</effectcategory>
												<effecttype>audiopan</effecttype>
												<mediatype>audio</mediatype>
												<parameter>
													<name>Pan</name>
													<parameterid>pan</parameterid>
													<valuemin>-1</valuemin>
													<valuemax>1</valuemax>
													<value>1</value>
												</parameter>
											</effect>
										</filter>
										<sourcetrack>
											<mediatype>audio</mediatype>
											<trackindex>2</trackindex>
										</sourcetrack>
										<link>
											<linkclipref>Fløyte - rask.aif3</linkclipref>
											<mediatype>audio</mediatype>
											<trackindex>1</trackindex>
											<clipindex>3</clipindex>
											<groupindex>1</groupindex>
										</link>
										<link>
											<linkclipref>Fløyte - rask.aif4</linkclipref>
											<mediatype>audio</mediatype>
											<trackindex>2</trackindex>
											<clipindex>3</clipindex>
											<groupindex>1</groupindex>
										</link>
									</clipitem>
									<clipitem id="Boing - hoink - plystring.aif4">
										<name>Boing - hoink - plystring.aif</name>
										<duration>256</duration>
										<rate>
											<ntsc>FALSE</ntsc>
											<timebase>25</timebase>
										</rate>
										<in>39</in>
										<out>41</out>
										<start>1009</start>
										<end>1011</end>
										<subframeoffset>0</subframeoffset>
										<masterclipid>Boing - hoink - plystring.aif1</masterclipid>
										<logginginfo>
											<scene/>
											<shottake/>
											<lognote/>
											<good>FALSE</good>
										</logginginfo>
										<labels>
											<label2/>
										</labels>
										<comments>
											<mastercomment1/>
											<mastercomment2/>
											<mastercomment3/>
											<mastercomment4/>
										</comments>
										<file id="Boing - hoink - plystring"/>
										<filter>
											<effect>
												<name>Audio Levels</name>
												<effectid>audiolevels</effectid>
												<effectcategory>audiolevels</effectcategory>
												<effecttype>audiolevels</effecttype>
												<mediatype>audio</mediatype>
												<parameter>
													<name>Level</name>
													<parameterid>level</parameterid>
													<valuemin>0</valuemin>
													<valuemax>3.98109</valuemax>
													<value>0.251189</value>
												</parameter>
											</effect>
										</filter>
										<filter>
											<effect>
												<name>Audio Pan</name>
												<effectid>audiopan</effectid>
												<effectcategory>audiopan</effectcategory>
												<effecttype>audiopan</effecttype>
												<mediatype>audio</mediatype>
												<parameter>
													<name>Pan</name>
													<parameterid>pan</parameterid>
													<valuemin>-1</valuemin>
													<valuemax>1</valuemax>
													<value>1</value>
												</parameter>
											</effect>
										</filter>
										<sourcetrack>
											<mediatype>audio</mediatype>
											<trackindex>2</trackindex>
										</sourcetrack>
										<link>
											<linkclipref>Boing - hoink - plystring.aif3</linkclipref>
											<mediatype>audio</mediatype>
											<trackindex>1</trackindex>
											<clipindex>4</clipindex>
											<groupindex>1</groupindex>
										</link>
										<link>
											<linkclipref>Boing - hoink - plystring.aif4</linkclipref>
											<mediatype>audio</mediatype>
											<trackindex>2</trackindex>
											<clipindex>4</clipindex>
											<groupindex>1</groupindex>
										</link>
									</clipitem>
									<enabled>TRUE</enabled>
									<locked>FALSE</locked>
									<outputchannelindex>2</outputchannelindex>
								</track>
								<track>
									<clipitem id="Tacoløypeskisse.WAV">
										<name>Tacoløypeskisse.WAV</name>
										<duration>1476</duration>
										<rate>
											<ntsc>FALSE</ntsc>
											<timebase>25</timebase>
										</rate>
										<in>0</in>
										<out>69</out>
										<start>95</start>
										<end>164</end>
										<logginginfo>
											<scene/>
											<shottake/>
											<lognote/>
											<good>FALSE</good>
										</logginginfo>
										<labels>
											<label2/>
										</labels>
										<comments>
											<mastercomment1/>
											<mastercomment2/>
											<mastercomment3/>
											<mastercomment4/>
										</comments>
										<file id="Tacoløypeskisse">
											<name>Tacoløypeskisse.WAV</name>
											<pathurl>file://localhost/Volumes/SuperSAN1/Prosjekter/MSUB20000012%20FIN%20FREDAG/MUSIKK/Hibderloype-grafikk/Tacol%C3%B8ypeskisse.WAV</pathurl>
											<rate>
												<timebase>25</timebase>
											</rate>
											<duration>1476</duration>
											<timecode>
												<rate>
													<timebase>25</timebase>
												</rate>
												<string>00:00:00:00</string>
												<frame>0</frame>
												<displayformat>NDF</displayformat>
												<source>source</source>
											</timecode>
											<media>
												<audio>
													<rate>
														<timebase>48000</timebase>
													</rate>
													<trackcount>2</trackcount>
													<samplecharacteristics>
														<depth>16</depth>
													</samplecharacteristics>
												</audio>
											</media>
										</file>
										<filter>
											<effect>
												<name>Audio Levels</name>
												<effectid>audiolevels</effectid>
												<effectcategory>audiolevels</effectcategory>
												<effecttype>audiolevels</effecttype>
												<mediatype>audio</mediatype>
												<parameter>
													<name>Level</name>
													<parameterid>level</parameterid>
													<valuemin>0</valuemin>
													<valuemax>3.98109</valuemax>
													<value>1</value>
												</parameter>
											</effect>
										</filter>
										<filter>
											<effect>
												<name>Audio Pan</name>
												<effectid>audiopan</effectid>
												<effectcategory>audiopan</effectcategory>
												<effecttype>audiopan</effecttype>
												<mediatype>audio</mediatype>
												<parameter>
													<name>Pan</name>
													<parameterid>pan</parameterid>
													<valuemin>-1</valuemin>
													<valuemax>1</valuemax>
													<value>-1</value>
												</parameter>
											</effect>
										</filter>
										<sourcetrack>
											<mediatype>audio</mediatype>
											<trackindex>1</trackindex>
										</sourcetrack>
										<link>
											<linkclipref>Tacoløypeskisse.WAV</linkclipref>
											<mediatype>audio</mediatype>
											<trackindex>3</trackindex>
											<clipindex>1</clipindex>
											<groupindex>1</groupindex>
										</link>
										<link>
											<linkclipref>Tacoløypeskisse.WAV1</linkclipref>
											<mediatype>audio</mediatype>
											<trackindex>4</trackindex>
											<clipindex>1</clipindex>
											<groupindex>1</groupindex>
										</link>
									</clipitem>
									<clipitem id="Tacoløypeskisse.WAV2">
										<name>Tacoløypeskisse.WAV</name>
										<duration>1476</duration>
										<rate>
											<ntsc>FALSE</ntsc>
											<timebase>25</timebase>
										</rate>
										<in>88</in>
										<out>602</out>
										<start>164</start>
										<end>678</end>
										<logginginfo>
											<scene/>
											<shottake/>
											<lognote/>
											<good>FALSE</good>
										</logginginfo>
										<labels>
											<label2/>
										</labels>
										<comments>
											<mastercomment1/>
											<mastercomment2/>
											<mastercomment3/>
											<mastercomment4/>
										</comments>
										<file id="Tacoløypeskisse"/>
										<filter>
											<effect>
												<name>Audio Levels</name>
												<effectid>audiolevels</effectid>
												<effectcategory>audiolevels</effectcategory>
												<effecttype>audiolevels</effecttype>
												<mediatype>audio</mediatype>
												<parameter>
													<name>Level</name>
													<parameterid>level</parameterid>
													<valuemin>0</valuemin>
													<valuemax>3.98109</valuemax>
													<value>1</value>
												</parameter>
											</effect>
										</filter>
										<filter>
											<effect>
												<name>Audio Pan</name>
												<effectid>audiopan</effectid>
												<effectcategory>audiopan</effectcategory>
												<effecttype>audiopan</effecttype>
												<mediatype>audio</mediatype>
												<parameter>
													<name>Pan</name>
													<parameterid>pan</parameterid>
													<valuemin>-1</valuemin>
													<valuemax>1</valuemax>
													<value>-1</value>
												</parameter>
											</effect>
										</filter>
										<sourcetrack>
											<mediatype>audio</mediatype>
											<trackindex>1</trackindex>
										</sourcetrack>
										<link>
											<linkclipref>Tacoløypeskisse.WAV2</linkclipref>
											<mediatype>audio</mediatype>
											<trackindex>3</trackindex>
											<clipindex>2</clipindex>
											<groupindex>1</groupindex>
										</link>
										<link>
											<linkclipref>Tacoløypeskisse.WAV3</linkclipref>
											<mediatype>audio</mediatype>
											<trackindex>4</trackindex>
											<clipindex>2</clipindex>
											<groupindex>1</groupindex>
										</link>
									</clipitem>
									<clipitem id="Tacoløypeskisse.WAV4">
										<name>Tacoløypeskisse.WAV</name>
										<duration>1476</duration>
										<rate>
											<ntsc>FALSE</ntsc>
											<timebase>25</timebase>
										</rate>
										<in>635</in>
										<out>738</out>
										<start>678</start>
										<end>781</end>
										<logginginfo>
											<scene/>
											<shottake/>
											<lognote/>
											<good>FALSE</good>
										</logginginfo>
										<labels>
											<label2/>
										</labels>
										<comments>
											<mastercomment1/>
											<mastercomment2/>
											<mastercomment3/>
											<mastercomment4/>
										</comments>
										<file id="Tacoløypeskisse"/>
										<filter>
											<effect>
												<name>Audio Levels</name>
												<effectid>audiolevels</effectid>
												<effectcategory>audiolevels</effectcategory>
												<effecttype>audiolevels</effecttype>
												<mediatype>audio</mediatype>
												<parameter>
													<name>Level</name>
													<parameterid>level</parameterid>
													<valuemin>0</valuemin>
													<valuemax>3.98109</valuemax>
													<value>1</value>
												</parameter>
											</effect>
										</filter>
										<filter>
											<effect>
												<name>Audio Pan</name>
												<effectid>audiopan</effectid>
												<effectcategory>audiopan</effectcategory>
												<effecttype>audiopan</effecttype>
												<mediatype>audio</mediatype>
												<parameter>
													<name>Pan</name>
													<parameterid>pan</parameterid>
													<valuemin>-1</valuemin>
													<valuemax>1</valuemax>
													<value>-1</value>
												</parameter>
											</effect>
										</filter>
										<sourcetrack>
											<mediatype>audio</mediatype>
											<trackindex>1</trackindex>
										</sourcetrack>
										<link>
											<linkclipref>Tacoløypeskisse.WAV4</linkclipref>
											<mediatype>audio</mediatype>
											<trackindex>3</trackindex>
											<clipindex>3</clipindex>
											<groupindex>1</groupindex>
										</link>
										<link>
											<linkclipref>Tacoløypeskisse.WAV5</linkclipref>
											<mediatype>audio</mediatype>
											<trackindex>4</trackindex>
											<clipindex>3</clipindex>
											<groupindex>1</groupindex>
										</link>
									</clipitem>
									<clipitem id="Tacoløypeskisse.WAV6">
										<name>Tacoløypeskisse.WAV</name>
										<duration>1476</duration>
										<rate>
											<ntsc>FALSE</ntsc>
											<timebase>25</timebase>
										</rate>
										<in>769</in>
										<out>925</out>
										<start>789</start>
										<end>945</end>
										<logginginfo>
											<scene/>
											<shottake/>
											<lognote/>
											<good>FALSE</good>
										</logginginfo>
										<labels>
											<label2/>
										</labels>
										<comments>
											<mastercomment1/>
											<mastercomment2/>
											<mastercomment3/>
											<mastercomment4/>
										</comments>
										<file id="Tacoløypeskisse"/>
										<filter>
											<effect>
												<name>Audio Levels</name>
												<effectid>audiolevels</effectid>
												<effectcategory>audiolevels</effectcategory>
												<effecttype>audiolevels</effecttype>
												<mediatype>audio</mediatype>
												<parameter>
													<name>Level</name>
													<parameterid>level</parameterid>
													<valuemin>0</valuemin>
													<valuemax>3.98109</valuemax>
													<value>1</value>
												</parameter>
											</effect>
										</filter>
										<filter>
											<effect>
												<name>Audio Pan</name>
												<effectid>audiopan</effectid>
												<effectcategory>audiopan</effectcategory>
												<effecttype>audiopan</effecttype>
												<mediatype>audio</mediatype>
												<parameter>
													<name>Pan</name>
													<parameterid>pan</parameterid>
													<valuemin>-1</valuemin>
													<valuemax>1</valuemax>
													<value>-1</value>
												</parameter>
											</effect>
										</filter>
										<sourcetrack>
											<mediatype>audio</mediatype>
											<trackindex>1</trackindex>
										</sourcetrack>
										<link>
											<linkclipref>Tacoløypeskisse.WAV6</linkclipref>
											<mediatype>audio</mediatype>
											<trackindex>3</trackindex>
											<clipindex>4</clipindex>
											<groupindex>1</groupindex>
										</link>
										<link>
											<linkclipref>Tacoløypeskisse.WAV7</linkclipref>
											<mediatype>audio</mediatype>
											<trackindex>4</trackindex>
											<clipindex>4</clipindex>
											<groupindex>1</groupindex>
										</link>
									</clipitem>
									<clipitem id="Tacoløypeskisse.WAV8">
										<name>Tacoløypeskisse.WAV</name>
										<duration>1476</duration>
										<rate>
											<ntsc>FALSE</ntsc>
											<timebase>25</timebase>
										</rate>
										<in>925</in>
										<out>962</out>
										<start>973</start>
										<end>1010</end>
										<logginginfo>
											<scene/>
											<shottake/>
											<lognote/>
											<good>FALSE</good>
										</logginginfo>
										<labels>
											<label2/>
										</labels>
										<comments>
											<mastercomment1/>
											<mastercomment2/>
											<mastercomment3/>
											<mastercomment4/>
										</comments>
										<file id="Tacoløypeskisse"/>
										<filter>
											<effect>
												<name>Audio Levels</name>
												<effectid>audiolevels</effectid>
												<effectcategory>audiolevels</effectcategory>
												<effecttype>audiolevels</effecttype>
												<mediatype>audio</mediatype>
												<parameter>
													<name>Level</name>
													<parameterid>level</parameterid>
													<valuemin>0</valuemin>
													<valuemax>3.98109</valuemax>
													<value>1</value>
												</parameter>
											</effect>
										</filter>
										<filter>
											<effect>
												<name>Audio Pan</name>
												<effectid>audiopan</effectid>
												<effectcategory>audiopan</effectcategory>
												<effecttype>audiopan</effecttype>
												<mediatype>audio</mediatype>
												<parameter>
													<name>Pan</name>
													<parameterid>pan</parameterid>
													<valuemin>-1</valuemin>
													<valuemax>1</valuemax>
													<value>-1</value>
												</parameter>
											</effect>
										</filter>
										<sourcetrack>
											<mediatype>audio</mediatype>
											<trackindex>1</trackindex>
										</sourcetrack>
										<link>
											<linkclipref>Tacoløypeskisse.WAV8</linkclipref>
											<mediatype>audio</mediatype>
											<trackindex>3</trackindex>
											<clipindex>5</clipindex>
											<groupindex>1</groupindex>
										</link>
										<link>
											<linkclipref>Tacoløypeskisse.WAV9</linkclipref>
											<mediatype>audio</mediatype>
											<trackindex>4</trackindex>
											<clipindex>5</clipindex>
											<groupindex>1</groupindex>
										</link>
									</clipitem>
									<clipitem id="Tacoløypeskisse.WAV10">
										<name>Tacoløypeskisse.WAV</name>
										<duration>1476</duration>
										<rate>
											<ntsc>FALSE</ntsc>
											<timebase>25</timebase>
										</rate>
										<in>962</in>
										<out>995</out>
										<start>1020</start>
										<end>1053</end>
										<logginginfo>
											<scene/>
											<shottake/>
											<lognote/>
											<good>FALSE</good>
										</logginginfo>
										<labels>
											<label2/>
										</labels>
										<comments>
											<mastercomment1/>
											<mastercomment2/>
											<mastercomment3/>
											<mastercomment4/>
										</comments>
										<file id="Tacoløypeskisse"/>
										<filter>
											<effect>
												<name>Audio Levels</name>
												<effectid>audiolevels</effectid>
												<effectcategory>audiolevels</effectcategory>
												<effecttype>audiolevels</effecttype>
												<mediatype>audio</mediatype>
												<parameter>
													<name>Level</name>
													<parameterid>level</parameterid>
													<valuemin>0</valuemin>
													<valuemax>3.98109</valuemax>
													<value>1</value>
												</parameter>
											</effect>
										</filter>
										<filter>
											<effect>
												<name>Audio Pan</name>
												<effectid>audiopan</effectid>
												<effectcategory>audiopan</effectcategory>
												<effecttype>audiopan</effecttype>
												<mediatype>audio</mediatype>
												<parameter>
													<name>Pan</name>
													<parameterid>pan</parameterid>
													<valuemin>-1</valuemin>
													<valuemax>1</valuemax>
													<value>-1</value>
												</parameter>
											</effect>
										</filter>
										<sourcetrack>
											<mediatype>audio</mediatype>
											<trackindex>1</trackindex>
										</sourcetrack>
										<link>
											<linkclipref>Tacoløypeskisse.WAV10</linkclipref>
											<mediatype>audio</mediatype>
											<trackindex>3</trackindex>
											<clipindex>6</clipindex>
											<groupindex>1</groupindex>
										</link>
										<link>
											<linkclipref>Tacoløypeskisse.WAV11</linkclipref>
											<mediatype>audio</mediatype>
											<trackindex>4</trackindex>
											<clipindex>6</clipindex>
											<groupindex>1</groupindex>
										</link>
									</clipitem>
									<clipitem id="Tacoløypeskisse.WAV12">
										<name>Tacoløypeskisse.WAV</name>
										<duration>1476</duration>
										<rate>
											<ntsc>FALSE</ntsc>
											<timebase>25</timebase>
										</rate>
										<in>1001</in>
										<out>1062</out>
										<start>1080</start>
										<end>1141</end>
										<logginginfo>
											<scene/>
											<shottake/>
											<lognote/>
											<good>FALSE</good>
										</logginginfo>
										<labels>
											<label2/>
										</labels>
										<comments>
											<mastercomment1/>
											<mastercomment2/>
											<mastercomment3/>
											<mastercomment4/>
										</comments>
										<file id="Tacoløypeskisse"/>
										<filter>
											<effect>
												<name>Audio Levels</name>
												<effectid>audiolevels</effectid>
												<effectcategory>audiolevels</effectcategory>
												<effecttype>audiolevels</effecttype>
												<mediatype>audio</mediatype>
												<parameter>
													<name>Level</name>
													<parameterid>level</parameterid>
													<valuemin>0</valuemin>
													<valuemax>3.98109</valuemax>
													<value>1</value>
												</parameter>
											</effect>
										</filter>
										<filter>
											<effect>
												<name>Audio Pan</name>
												<effectid>audiopan</effectid>
												<effectcategory>audiopan</effectcategory>
												<effecttype>audiopan</effecttype>
												<mediatype>audio</mediatype>
												<parameter>
													<name>Pan</name>
													<parameterid>pan</parameterid>
													<valuemin>-1</valuemin>
													<valuemax>1</valuemax>
													<value>-1</value>
												</parameter>
											</effect>
										</filter>
										<sourcetrack>
											<mediatype>audio</mediatype>
											<trackindex>1</trackindex>
										</sourcetrack>
										<link>
											<linkclipref>Tacoløypeskisse.WAV12</linkclipref>
											<mediatype>audio</mediatype>
											<trackindex>3</trackindex>
											<clipindex>7</clipindex>
											<groupindex>1</groupindex>
										</link>
										<link>
											<linkclipref>Tacoløypeskisse.WAV13</linkclipref>
											<mediatype>audio</mediatype>
											<trackindex>4</trackindex>
											<clipindex>7</clipindex>
											<groupindex>1</groupindex>
										</link>
									</clipitem>
									<clipitem id="Tacoløypeskisse.WAV14">
										<name>Tacoløypeskisse.WAV</name>
										<duration>1476</duration>
										<rate>
											<ntsc>FALSE</ntsc>
											<timebase>25</timebase>
										</rate>
										<in>1066</in>
										<out>1476</out>
										<start>1141</start>
										<end>1551</end>
										<logginginfo>
											<scene/>
											<shottake/>
											<lognote/>
											<good>FALSE</good>
										</logginginfo>
										<labels>
											<label2/>
										</labels>
										<comments>
											<mastercomment1/>
											<mastercomment2/>
											<mastercomment3/>
											<mastercomment4/>
										</comments>
										<file id="Tacoløypeskisse"/>
										<filter>
											<effect>
												<name>Audio Levels</name>
												<effectid>audiolevels</effectid>
												<effectcategory>audiolevels</effectcategory>
												<effecttype>audiolevels</effecttype>
												<mediatype>audio</mediatype>
												<parameter>
													<name>Level</name>
													<parameterid>level</parameterid>
													<valuemin>0</valuemin>
													<valuemax>3.98109</valuemax>
													<value>1</value>
												</parameter>
											</effect>
										</filter>
										<filter>
											<effect>
												<name>Audio Pan</name>
												<effectid>audiopan</effectid>
												<effectcategory>audiopan</effectcategory>
												<effecttype>audiopan</effecttype>
												<mediatype>audio</mediatype>
												<parameter>
													<name>Pan</name>
													<parameterid>pan</parameterid>
													<valuemin>-1</valuemin>
													<valuemax>1</valuemax>
													<value>-1</value>
												</parameter>
											</effect>
										</filter>
										<sourcetrack>
											<mediatype>audio</mediatype>
											<trackindex>1</trackindex>
										</sourcetrack>
										<link>
											<linkclipref>Tacoløypeskisse.WAV14</linkclipref>
											<mediatype>audio</mediatype>
											<trackindex>3</trackindex>
											<clipindex>8</clipindex>
											<groupindex>1</groupindex>
										</link>
										<link>
											<linkclipref>Tacoløypeskisse.WAV15</linkclipref>
											<mediatype>audio</mediatype>
											<trackindex>4</trackindex>
											<clipindex>8</clipindex>
											<groupindex>1</groupindex>
										</link>
									</clipitem>
									<enabled>TRUE</enabled>
									<locked>FALSE</locked>
									<outputchannelindex>1</outputchannelindex>
								</track>
								<track>
									<clipitem id="Tacoløypeskisse.WAV1">
										<name>Tacoløypeskisse.WAV</name>
										<duration>1476</duration>
										<rate>
											<ntsc>FALSE</ntsc>
											<timebase>25</timebase>
										</rate>
										<in>0</in>
										<out>69</out>
										<start>95</start>
										<end>164</end>
										<logginginfo>
											<scene/>
											<shottake/>
											<lognote/>
											<good>FALSE</good>
										</logginginfo>
										<labels>
											<label2/>
										</labels>
										<comments>
											<mastercomment1/>
											<mastercomment2/>
											<mastercomment3/>
											<mastercomment4/>
										</comments>
										<file id="Tacoløypeskisse"/>
										<filter>
											<effect>
												<name>Audio Levels</name>
												<effectid>audiolevels</effectid>
												<effectcategory>audiolevels</effectcategory>
												<effecttype>audiolevels</effecttype>
												<mediatype>audio</mediatype>
												<parameter>
													<name>Level</name>
													<parameterid>level</parameterid>
													<valuemin>0</valuemin>
													<valuemax>3.98109</valuemax>
													<value>1</value>
												</parameter>
											</effect>
										</filter>
										<filter>
											<effect>
												<name>Audio Pan</name>
												<effectid>audiopan</effectid>
												<effectcategory>audiopan</effectcategory>
												<effecttype>audiopan</effecttype>
												<mediatype>audio</mediatype>
												<parameter>
													<name>Pan</name>
													<parameterid>pan</parameterid>
													<valuemin>-1</valuemin>
													<valuemax>1</valuemax>
													<value>1</value>
												</parameter>
											</effect>
										</filter>
										<sourcetrack>
											<mediatype>audio</mediatype>
											<trackindex>2</trackindex>
										</sourcetrack>
										<link>
											<linkclipref>Tacoløypeskisse.WAV</linkclipref>
											<mediatype>audio</mediatype>
											<trackindex>3</trackindex>
											<clipindex>1</clipindex>
											<groupindex>1</groupindex>
										</link>
										<link>
											<linkclipref>Tacoløypeskisse.WAV1</linkclipref>
											<mediatype>audio</mediatype>
											<trackindex>4</trackindex>
											<clipindex>1</clipindex>
											<groupindex>1</groupindex>
										</link>
									</clipitem>
									<clipitem id="Tacoløypeskisse.WAV3">
										<name>Tacoløypeskisse.WAV</name>
										<duration>1476</duration>
										<rate>
											<ntsc>FALSE</ntsc>
											<timebase>25</timebase>
										</rate>
										<in>88</in>
										<out>602</out>
										<start>164</start>
										<end>678</end>
										<logginginfo>
											<scene/>
											<shottake/>
											<lognote/>
											<good>FALSE</good>
										</logginginfo>
										<labels>
											<label2/>
										</labels>
										<comments>
											<mastercomment1/>
											<mastercomment2/>
											<mastercomment3/>
											<mastercomment4/>
										</comments>
										<file id="Tacoløypeskisse"/>
										<filter>
											<effect>
												<name>Audio Levels</name>
												<effectid>audiolevels</effectid>
												<effectcategory>audiolevels</effectcategory>
												<effecttype>audiolevels</effecttype>
												<mediatype>audio</mediatype>
												<parameter>
													<name>Level</name>
													<parameterid>level</parameterid>
													<valuemin>0</valuemin>
													<valuemax>3.98109</valuemax>
													<value>1</value>
												</parameter>
											</effect>
										</filter>
										<filter>
											<effect>
												<name>Audio Pan</name>
												<effectid>audiopan</effectid>
												<effectcategory>audiopan</effectcategory>
												<effecttype>audiopan</effecttype>
												<mediatype>audio</mediatype>
												<parameter>
													<name>Pan</name>
													<parameterid>pan</parameterid>
													<valuemin>-1</valuemin>
													<valuemax>1</valuemax>
													<value>1</value>
												</parameter>
											</effect>
										</filter>
										<sourcetrack>
											<mediatype>audio</mediatype>
											<trackindex>2</trackindex>
										</sourcetrack>
										<link>
											<linkclipref>Tacoløypeskisse.WAV2</linkclipref>
											<mediatype>audio</mediatype>
											<trackindex>3</trackindex>
											<clipindex>2</clipindex>
											<groupindex>1</groupindex>
										</link>
										<link>
											<linkclipref>Tacoløypeskisse.WAV3</linkclipref>
											<mediatype>audio</mediatype>
											<trackindex>4</trackindex>
											<clipindex>2</clipindex>
											<groupindex>1</groupindex>
										</link>
									</clipitem>
									<clipitem id="Tacoløypeskisse.WAV5">
										<name>Tacoløypeskisse.WAV</name>
										<duration>1476</duration>
										<rate>
											<ntsc>FALSE</ntsc>
											<timebase>25</timebase>
										</rate>
										<in>635</in>
										<out>738</out>
										<start>678</start>
										<end>781</end>
										<logginginfo>
											<scene/>
											<shottake/>
											<lognote/>
											<good>FALSE</good>
										</logginginfo>
										<labels>
											<label2/>
										</labels>
										<comments>
											<mastercomment1/>
											<mastercomment2/>
											<mastercomment3/>
											<mastercomment4/>
										</comments>
										<file id="Tacoløypeskisse"/>
										<filter>
											<effect>
												<name>Audio Levels</name>
												<effectid>audiolevels</effectid>
												<effectcategory>audiolevels</effectcategory>
												<effecttype>audiolevels</effecttype>
												<mediatype>audio</mediatype>
												<parameter>
													<name>Level</name>
													<parameterid>level</parameterid>
													<valuemin>0</valuemin>
													<valuemax>3.98109</valuemax>
													<value>1</value>
												</parameter>
											</effect>
										</filter>
										<filter>
											<effect>
												<name>Audio Pan</name>
												<effectid>audiopan</effectid>
												<effectcategory>audiopan</effectcategory>
												<effecttype>audiopan</effecttype>
												<mediatype>audio</mediatype>
												<parameter>
													<name>Pan</name>
													<parameterid>pan</parameterid>
													<valuemin>-1</valuemin>
													<valuemax>1</valuemax>
													<value>1</value>
												</parameter>
											</effect>
										</filter>
										<sourcetrack>
											<mediatype>audio</mediatype>
											<trackindex>2</trackindex>
										</sourcetrack>
										<link>
											<linkclipref>Tacoløypeskisse.WAV4</linkclipref>
											<mediatype>audio</mediatype>
											<trackindex>3</trackindex>
											<clipindex>3</clipindex>
											<groupindex>1</groupindex>
										</link>
										<link>
											<linkclipref>Tacoløypeskisse.WAV5</linkclipref>
											<mediatype>audio</mediatype>
											<trackindex>4</trackindex>
											<clipindex>3</clipindex>
											<groupindex>1</groupindex>
										</link>
									</clipitem>
									<clipitem id="Tacoløypeskisse.WAV7">
										<name>Tacoløypeskisse.WAV</name>
										<duration>1476</duration>
										<rate>
											<ntsc>FALSE</ntsc>
											<timebase>25</timebase>
										</rate>
										<in>769</in>
										<out>925</out>
										<start>789</start>
										<end>945</end>
										<logginginfo>
											<scene/>
											<shottake/>
											<lognote/>
											<good>FALSE</good>
										</logginginfo>
										<labels>
											<label2/>
										</labels>
										<comments>
											<mastercomment1/>
											<mastercomment2/>
											<mastercomment3/>
											<mastercomment4/>
										</comments>
										<file id="Tacoløypeskisse"/>
										<filter>
											<effect>
												<name>Audio Levels</name>
												<effectid>audiolevels</effectid>
												<effectcategory>audiolevels</effectcategory>
												<effecttype>audiolevels</effecttype>
												<mediatype>audio</mediatype>
												<parameter>
													<name>Level</name>
													<parameterid>level</parameterid>
													<valuemin>0</valuemin>
													<valuemax>3.98109</valuemax>
													<value>1</value>
												</parameter>
											</effect>
										</filter>
										<filter>
											<effect>
												<name>Audio Pan</name>
												<effectid>audiopan</effectid>
												<effectcategory>audiopan</effectcategory>
												<effecttype>audiopan</effecttype>
												<mediatype>audio</mediatype>
												<parameter>
													<name>Pan</name>
													<parameterid>pan</parameterid>
													<valuemin>-1</valuemin>
													<valuemax>1</valuemax>
													<value>1</value>
												</parameter>
											</effect>
										</filter>
										<sourcetrack>
											<mediatype>audio</mediatype>
											<trackindex>2</trackindex>
										</sourcetrack>
										<link>
											<linkclipref>Tacoløypeskisse.WAV6</linkclipref>
											<mediatype>audio</mediatype>
											<trackindex>3</trackindex>
											<clipindex>4</clipindex>
											<groupindex>1</groupindex>
										</link>
										<link>
											<linkclipref>Tacoløypeskisse.WAV7</linkclipref>
											<mediatype>audio</mediatype>
											<trackindex>4</trackindex>
											<clipindex>4</clipindex>
											<groupindex>1</groupindex>
										</link>
									</clipitem>
									<clipitem id="Tacoløypeskisse.WAV9">
										<name>Tacoløypeskisse.WAV</name>
										<duration>1476</duration>
										<rate>
											<ntsc>FALSE</ntsc>
											<timebase>25</timebase>
										</rate>
										<in>925</in>
										<out>962</out>
										<start>973</start>
										<end>1010</end>
										<logginginfo>
											<scene/>
											<shottake/>
											<lognote/>
											<good>FALSE</good>
										</logginginfo>
										<labels>
											<label2/>
										</labels>
										<comments>
											<mastercomment1/>
											<mastercomment2/>
											<mastercomment3/>
											<mastercomment4/>
										</comments>
										<file id="Tacoløypeskisse"/>
										<filter>
											<effect>
												<name>Audio Levels</name>
												<effectid>audiolevels</effectid>
												<effectcategory>audiolevels</effectcategory>
												<effecttype>audiolevels</effecttype>
												<mediatype>audio</mediatype>
												<parameter>
													<name>Level</name>
													<parameterid>level</parameterid>
													<valuemin>0</valuemin>
													<valuemax>3.98109</valuemax>
													<value>1</value>
												</parameter>
											</effect>
										</filter>
										<filter>
											<effect>
												<name>Audio Pan</name>
												<effectid>audiopan</effectid>
												<effectcategory>audiopan</effectcategory>
												<effecttype>audiopan</effecttype>
												<mediatype>audio</mediatype>
												<parameter>
													<name>Pan</name>
													<parameterid>pan</parameterid>
													<valuemin>-1</valuemin>
													<valuemax>1</valuemax>
													<value>1</value>
												</parameter>
											</effect>
										</filter>
										<sourcetrack>
											<mediatype>audio</mediatype>
											<trackindex>2</trackindex>
										</sourcetrack>
										<link>
											<linkclipref>Tacoløypeskisse.WAV8</linkclipref>
											<mediatype>audio</mediatype>
											<trackindex>3</trackindex>
											<clipindex>5</clipindex>
											<groupindex>1</groupindex>
										</link>
										<link>
											<linkclipref>Tacoløypeskisse.WAV9</linkclipref>
											<mediatype>audio</mediatype>
											<trackindex>4</trackindex>
											<clipindex>5</clipindex>
											<groupindex>1</groupindex>
										</link>
									</clipitem>
									<clipitem id="Tacoløypeskisse.WAV11">
										<name>Tacoløypeskisse.WAV</name>
										<duration>1476</duration>
										<rate>
											<ntsc>FALSE</ntsc>
											<timebase>25</timebase>
										</rate>
										<in>962</in>
										<out>995</out>
										<start>1020</start>
										<end>1053</end>
										<logginginfo>
											<scene/>
											<shottake/>
											<lognote/>
											<good>FALSE</good>
										</logginginfo>
										<labels>
											<label2/>
										</labels>
										<comments>
											<mastercomment1/>
											<mastercomment2/>
											<mastercomment3/>
											<mastercomment4/>
										</comments>
										<file id="Tacoløypeskisse"/>
										<filter>
											<effect>
												<name>Audio Levels</name>
												<effectid>audiolevels</effectid>
												<effectcategory>audiolevels</effectcategory>
												<effecttype>audiolevels</effecttype>
												<mediatype>audio</mediatype>
												<parameter>
													<name>Level</name>
													<parameterid>level</parameterid>
													<valuemin>0</valuemin>
													<valuemax>3.98109</valuemax>
													<value>1</value>
												</parameter>
											</effect>
										</filter>
										<filter>
											<effect>
												<name>Audio Pan</name>
												<effectid>audiopan</effectid>
												<effectcategory>audiopan</effectcategory>
												<effecttype>audiopan</effecttype>
												<mediatype>audio</mediatype>
												<parameter>
													<name>Pan</name>
													<parameterid>pan</parameterid>
													<valuemin>-1</valuemin>
													<valuemax>1</valuemax>
													<value>1</value>
												</parameter>
											</effect>
										</filter>
										<sourcetrack>
											<mediatype>audio</mediatype>
											<trackindex>2</trackindex>
										</sourcetrack>
										<link>
											<linkclipref>Tacoløypeskisse.WAV10</linkclipref>
											<mediatype>audio</mediatype>
											<trackindex>3</trackindex>
											<clipindex>6</clipindex>
											<groupindex>1</groupindex>
										</link>
										<link>
											<linkclipref>Tacoløypeskisse.WAV11</linkclipref>
											<mediatype>audio</mediatype>
											<trackindex>4</trackindex>
											<clipindex>6</clipindex>
											<groupindex>1</groupindex>
										</link>
									</clipitem>
									<clipitem id="Tacoløypeskisse.WAV13">
										<name>Tacoløypeskisse.WAV</name>
										<duration>1476</duration>
										<rate>
											<ntsc>FALSE</ntsc>
											<timebase>25</timebase>
										</rate>
										<in>1001</in>
										<out>1062</out>
										<start>1080</start>
										<end>1141</end>
										<logginginfo>
											<scene/>
											<shottake/>
											<lognote/>
											<good>FALSE</good>
										</logginginfo>
										<labels>
											<label2/>
										</labels>
										<comments>
											<mastercomment1/>
											<mastercomment2/>
											<mastercomment3/>
											<mastercomment4/>
										</comments>
										<file id="Tacoløypeskisse"/>
										<filter>
											<effect>
												<name>Audio Levels</name>
												<effectid>audiolevels</effectid>
												<effectcategory>audiolevels</effectcategory>
												<effecttype>audiolevels</effecttype>
												<mediatype>audio</mediatype>
												<parameter>
													<name>Level</name>
													<parameterid>level</parameterid>
													<valuemin>0</valuemin>
													<valuemax>3.98109</valuemax>
													<value>1</value>
												</parameter>
											</effect>
										</filter>
										<filter>
											<effect>
												<name>Audio Pan</name>
												<effectid>audiopan</effectid>
												<effectcategory>audiopan</effectcategory>
												<effecttype>audiopan</effecttype>
												<mediatype>audio</mediatype>
												<parameter>
													<name>Pan</name>
													<parameterid>pan</parameterid>
													<valuemin>-1</valuemin>
													<valuemax>1</valuemax>
													<value>1</value>
												</parameter>
											</effect>
										</filter>
										<sourcetrack>
											<mediatype>audio</mediatype>
											<trackindex>2</trackindex>
										</sourcetrack>
										<link>
											<linkclipref>Tacoløypeskisse.WAV12</linkclipref>
											<mediatype>audio</mediatype>
											<trackindex>3</trackindex>
											<clipindex>7</clipindex>
											<groupindex>1</groupindex>
										</link>
										<link>
											<linkclipref>Tacoløypeskisse.WAV13</linkclipref>
											<mediatype>audio</mediatype>
											<trackindex>4</trackindex>
											<clipindex>7</clipindex>
											<groupindex>1</groupindex>
										</link>
									</clipitem>
									<clipitem id="Tacoløypeskisse.WAV15">
										<name>Tacoløypeskisse.WAV</name>
										<duration>1476</duration>
										<rate>
											<ntsc>FALSE</ntsc>
											<timebase>25</timebase>
										</rate>
										<in>1066</in>
										<out>1476</out>
										<start>1141</start>
										<end>1551</end>
										<logginginfo>
											<scene/>
											<shottake/>
											<lognote/>
											<good>FALSE</good>
										</logginginfo>
										<labels>
											<label2/>
										</labels>
										<comments>
											<mastercomment1/>
											<mastercomment2/>
											<mastercomment3/>
											<mastercomment4/>
										</comments>
										<file id="Tacoløypeskisse"/>
										<filter>
											<effect>
												<name>Audio Levels</name>
												<effectid>audiolevels</effectid>
												<effectcategory>audiolevels</effectcategory>
												<effecttype>audiolevels</effecttype>
												<mediatype>audio</mediatype>
												<parameter>
													<name>Level</name>
													<parameterid>level</parameterid>
													<valuemin>0</valuemin>
													<valuemax>3.98109</valuemax>
													<value>1</value>
												</parameter>
											</effect>
										</filter>
										<filter>
											<effect>
												<name>Audio Pan</name>
												<effectid>audiopan</effectid>
												<effectcategory>audiopan</effectcategory>
												<effecttype>audiopan</effecttype>
												<mediatype>audio</mediatype>
												<parameter>
													<name>Pan</name>
													<parameterid>pan</parameterid>
													<valuemin>-1</valuemin>
													<valuemax>1</valuemax>
													<value>1</value>
												</parameter>
											</effect>
										</filter>
										<sourcetrack>
											<mediatype>audio</mediatype>
											<trackindex>2</trackindex>
										</sourcetrack>
										<link>
											<linkclipref>Tacoløypeskisse.WAV14</linkclipref>
											<mediatype>audio</mediatype>
											<trackindex>3</trackindex>
											<clipindex>8</clipindex>
											<groupindex>1</groupindex>
										</link>
										<link>
											<linkclipref>Tacoløypeskisse.WAV15</linkclipref>
											<mediatype>audio</mediatype>
											<trackindex>4</trackindex>
											<clipindex>8</clipindex>
											<groupindex>1</groupindex>
										</link>
									</clipitem>
									<enabled>TRUE</enabled>
									<locked>FALSE</locked>
									<outputchannelindex>2</outputchannelindex>
								</track>
								<track>
									<clipitem id="Boing - hoink - plystring.aif5">
										<name>Boing - hoink - plystring.aif</name>
										<duration>256</duration>
										<rate>
											<ntsc>FALSE</ntsc>
											<timebase>25</timebase>
										</rate>
										<in>36</in>
										<out>46</out>
										<start>486</start>
										<end>496</end>
										<subframeoffset>0</subframeoffset>
										<masterclipid>Boing - hoink - plystring.aif1</masterclipid>
										<logginginfo>
											<scene/>
											<shottake/>
											<lognote/>
											<good>FALSE</good>
										</logginginfo>
										<labels>
											<label2/>
										</labels>
										<comments>
											<mastercomment1/>
											<mastercomment2/>
											<mastercomment3/>
											<mastercomment4/>
										</comments>
										<file id="Boing - hoink - plystring"/>
										<filter>
											<effect>
												<name>Audio Levels</name>
												<effectid>audiolevels</effectid>
												<effectcategory>audiolevels</effectcategory>
												<effecttype>audiolevels</effecttype>
												<mediatype>audio</mediatype>
												<parameter>
													<name>Level</name>
													<parameterid>level</parameterid>
													<valuemin>0</valuemin>
													<valuemax>3.98109</valuemax>
													<value>0.281838</value>
												</parameter>
											</effect>
										</filter>
										<filter>
											<effect>
												<name>Audio Pan</name>
												<effectid>audiopan</effectid>
												<effectcategory>audiopan</effectcategory>
												<effecttype>audiopan</effecttype>
												<mediatype>audio</mediatype>
												<parameter>
													<name>Pan</name>
													<parameterid>pan</parameterid>
													<valuemin>-1</valuemin>
													<valuemax>1</valuemax>
													<value>-1</value>
												</parameter>
											</effect>
										</filter>
										<sourcetrack>
											<mediatype>audio</mediatype>
											<trackindex>1</trackindex>
										</sourcetrack>
										<link>
											<linkclipref>Boing - hoink - plystring.aif5</linkclipref>
											<mediatype>audio</mediatype>
											<trackindex>5</trackindex>
											<clipindex>1</clipindex>
											<groupindex>1</groupindex>
										</link>
										<link>
											<linkclipref>Boing - hoink - plystring.aif6</linkclipref>
											<mediatype>audio</mediatype>
											<trackindex>6</trackindex>
											<clipindex>1</clipindex>
											<groupindex>1</groupindex>
										</link>
									</clipitem>
									<clipitem id="Boing - hoink - plystring.aif7">
										<name>Boing - hoink - plystring.aif</name>
										<duration>256</duration>
										<rate>
											<ntsc>FALSE</ntsc>
											<timebase>25</timebase>
										</rate>
										<in>36</in>
										<out>46</out>
										<start>711</start>
										<end>721</end>
										<subframeoffset>0</subframeoffset>
										<masterclipid>Boing - hoink - plystring.aif1</masterclipid>
										<logginginfo>
											<scene/>
											<shottake/>
											<lognote/>
											<good>FALSE</good>
										</logginginfo>
										<labels>
											<label2/>
										</labels>
										<comments>
											<mastercomment1/>
											<mastercomment2/>
											<mastercomment3/>
											<mastercomment4/>
										</comments>
										<file id="Boing - hoink - plystring"/>
										<filter>
											<effect>
												<name>Audio Levels</name>
												<effectid>audiolevels</effectid>
												<effectcategory>audiolevels</effectcategory>
												<effecttype>audiolevels</effecttype>
												<mediatype>audio</mediatype>
												<parameter>
													<name>Level</name>
													<parameterid>level</parameterid>
													<valuemin>0</valuemin>
													<valuemax>3.98109</valuemax>
													<value>0.158489</value>
												</parameter>
											</effect>
										</filter>
										<filter>
											<effect>
												<name>Audio Pan</name>
												<effectid>audiopan</effectid>
												<effectcategory>audiopan</effectcategory>
												<effecttype>audiopan</effecttype>
												<mediatype>audio</mediatype>
												<parameter>
													<name>Pan</name>
													<parameterid>pan</parameterid>
													<valuemin>-1</valuemin>
													<valuemax>1</valuemax>
													<value>-1</value>
												</parameter>
											</effect>
										</filter>
										<sourcetrack>
											<mediatype>audio</mediatype>
											<trackindex>1</trackindex>
										</sourcetrack>
										<link>
											<linkclipref>Boing - hoink - plystring.aif7</linkclipref>
											<mediatype>audio</mediatype>
											<trackindex>5</trackindex>
											<clipindex>2</clipindex>
											<groupindex>1</groupindex>
										</link>
										<link>
											<linkclipref>Boing - hoink - plystring.aif8</linkclipref>
											<mediatype>audio</mediatype>
											<trackindex>6</trackindex>
											<clipindex>2</clipindex>
											<groupindex>1</groupindex>
										</link>
									</clipitem>
									<clipitem id="Boing - hoink - plystring.aif9">
										<name>Boing - hoink - plystring.aif</name>
										<duration>256</duration>
										<rate>
											<ntsc>FALSE</ntsc>
											<timebase>25</timebase>
										</rate>
										<in>36</in>
										<out>46</out>
										<start>845</start>
										<end>855</end>
										<subframeoffset>0</subframeoffset>
										<masterclipid>Boing - hoink - plystring.aif1</masterclipid>
										<logginginfo>
											<scene/>
											<shottake/>
											<lognote/>
											<good>FALSE</good>
										</logginginfo>
										<labels>
											<label2/>
										</labels>
										<comments>
											<mastercomment1/>
											<mastercomment2/>
											<mastercomment3/>
											<mastercomment4/>
										</comments>
										<file id="Boing - hoink - plystring"/>
										<filter>
											<effect>
												<name>Audio Levels</name>
												<effectid>audiolevels</effectid>
												<effectcategory>audiolevels</effectcategory>
												<effecttype>audiolevels</effecttype>
												<mediatype>audio</mediatype>
												<parameter>
													<name>Level</name>
													<parameterid>level</parameterid>
													<valuemin>0</valuemin>
													<valuemax>3.98109</valuemax>
													<value>0.251189</value>
												</parameter>
											</effect>
										</filter>
										<filter>
											<effect>
												<name>Audio Pan</name>
												<effectid>audiopan</effectid>
												<effectcategory>audiopan</effectcategory>
												<effecttype>audiopan</effecttype>
												<mediatype>audio</mediatype>
												<parameter>
													<name>Pan</name>
													<parameterid>pan</parameterid>
													<valuemin>-1</valuemin>
													<valuemax>1</valuemax>
													<value>-1</value>
												</parameter>
											</effect>
										</filter>
										<sourcetrack>
											<mediatype>audio</mediatype>
											<trackindex>1</trackindex>
										</sourcetrack>
										<link>
											<linkclipref>Boing - hoink - plystring.aif9</linkclipref>
											<mediatype>audio</mediatype>
											<trackindex>5</trackindex>
											<clipindex>3</clipindex>
											<groupindex>1</groupindex>
										</link>
										<link>
											<linkclipref>Boing - hoink - plystring.aif10</linkclipref>
											<mediatype>audio</mediatype>
											<trackindex>6</trackindex>
											<clipindex>3</clipindex>
											<groupindex>1</groupindex>
										</link>
									</clipitem>
									<clipitem id="Boing - hoink - plystring.aif11">
										<name>Boing - hoink - plystring.aif</name>
										<duration>256</duration>
										<rate>
											<ntsc>FALSE</ntsc>
											<timebase>25</timebase>
										</rate>
										<in>36</in>
										<out>46</out>
										<start>875</start>
										<end>885</end>
										<subframeoffset>0</subframeoffset>
										<masterclipid>Boing - hoink - plystring.aif1</masterclipid>
										<logginginfo>
											<scene/>
											<shottake/>
											<lognote/>
											<good>FALSE</good>
										</logginginfo>
										<labels>
											<label2/>
										</labels>
										<comments>
											<mastercomment1/>
											<mastercomment2/>
											<mastercomment3/>
											<mastercomment4/>
										</comments>
										<file id="Boing - hoink - plystring"/>
										<filter>
											<effect>
												<name>Audio Levels</name>
												<effectid>audiolevels</effectid>
												<effectcategory>audiolevels</effectcategory>
												<effecttype>audiolevels</effecttype>
												<mediatype>audio</mediatype>
												<parameter>
													<name>Level</name>
													<parameterid>level</parameterid>
													<valuemin>0</valuemin>
													<valuemax>3.98109</valuemax>
													<value>0.158489</value>
												</parameter>
											</effect>
										</filter>
										<filter>
											<effect>
												<name>Audio Pan</name>
												<effectid>audiopan</effectid>
												<effectcategory>audiopan</effectcategory>
												<effecttype>audiopan</effecttype>
												<mediatype>audio</mediatype>
												<parameter>
													<name>Pan</name>
													<parameterid>pan</parameterid>
													<valuemin>-1</valuemin>
													<valuemax>1</valuemax>
													<value>-1</value>
												</parameter>
											</effect>
										</filter>
										<sourcetrack>
											<mediatype>audio</mediatype>
											<trackindex>1</trackindex>
										</sourcetrack>
										<link>
											<linkclipref>Boing - hoink - plystring.aif11</linkclipref>
											<mediatype>audio</mediatype>
											<trackindex>5</trackindex>
											<clipindex>4</clipindex>
											<groupindex>1</groupindex>
										</link>
										<link>
											<linkclipref>Boing - hoink - plystring.aif12</linkclipref>
											<mediatype>audio</mediatype>
											<trackindex>6</trackindex>
											<clipindex>4</clipindex>
											<groupindex>1</groupindex>
										</link>
									</clipitem>
									<clipitem id="Boing - hoink - plystring.aif13">
										<name>Boing - hoink - plystring.aif</name>
										<duration>256</duration>
										<rate>
											<ntsc>FALSE</ntsc>
											<timebase>25</timebase>
										</rate>
										<in>36</in>
										<out>40</out>
										<start>1004</start>
										<end>1008</end>
										<subframeoffset>0</subframeoffset>
										<masterclipid>Boing - hoink - plystring.aif1</masterclipid>
										<logginginfo>
											<scene/>
											<shottake/>
											<lognote/>
											<good>FALSE</good>
										</logginginfo>
										<labels>
											<label2/>
										</labels>
										<comments>
											<mastercomment1/>
											<mastercomment2/>
											<mastercomment3/>
											<mastercomment4/>
										</comments>
										<file id="Boing - hoink - plystring"/>
										<filter>
											<effect>
												<name>Audio Levels</name>
												<effectid>audiolevels</effectid>
												<effectcategory>audiolevels</effectcategory>
												<effecttype>audiolevels</effecttype>
												<mediatype>audio</mediatype>
												<parameter>
													<name>Level</name>
													<parameterid>level</parameterid>
													<valuemin>0</valuemin>
													<valuemax>3.98109</valuemax>
													<value>0.251189</value>
												</parameter>
											</effect>
										</filter>
										<filter>
											<effect>
												<name>Audio Pan</name>
												<effectid>audiopan</effectid>
												<effectcategory>audiopan</effectcategory>
												<effecttype>audiopan</effecttype>
												<mediatype>audio</mediatype>
												<parameter>
													<name>Pan</name>
													<parameterid>pan</parameterid>
													<valuemin>-1</valuemin>
													<valuemax>1</valuemax>
													<value>-1</value>
												</parameter>
											</effect>
										</filter>
										<sourcetrack>
											<mediatype>audio</mediatype>
											<trackindex>1</trackindex>
										</sourcetrack>
										<link>
											<linkclipref>Boing - hoink - plystring.aif13</linkclipref>
											<mediatype>audio</mediatype>
											<trackindex>5</trackindex>
											<clipindex>5</clipindex>
											<groupindex>1</groupindex>
										</link>
										<link>
											<linkclipref>Boing - hoink - plystring.aif14</linkclipref>
											<mediatype>audio</mediatype>
											<trackindex>6</trackindex>
											<clipindex>5</clipindex>
											<groupindex>1</groupindex>
										</link>
									</clipitem>
									<clipitem id="Boing - hoink - plystring.aif15">
										<name>Boing - hoink - plystring.aif</name>
										<duration>256</duration>
										<rate>
											<ntsc>FALSE</ntsc>
											<timebase>25</timebase>
										</rate>
										<in>38</in>
										<out>42</out>
										<start>1012</start>
										<end>1016</end>
										<subframeoffset>0</subframeoffset>
										<masterclipid>Boing - hoink - plystring.aif1</masterclipid>
										<logginginfo>
											<scene/>
											<shottake/>
											<lognote/>
											<good>FALSE</good>
										</logginginfo>
										<labels>
											<label2/>
										</labels>
										<comments>
											<mastercomment1/>
											<mastercomment2/>
											<mastercomment3/>
											<mastercomment4/>
										</comments>
										<file id="Boing - hoink - plystring"/>
										<filter>
											<effect>
												<name>Audio Levels</name>
												<effectid>audiolevels</effectid>
												<effectcategory>audiolevels</effectcategory>
												<effecttype>audiolevels</effecttype>
												<mediatype>audio</mediatype>
												<parameter>
													<name>Level</name>
													<parameterid>level</parameterid>
													<valuemin>0</valuemin>
													<valuemax>3.98109</valuemax>
													<value>0.199526</value>
												</parameter>
											</effect>
										</filter>
										<filter>
											<effect>
												<name>Audio Pan</name>
												<effectid>audiopan</effectid>
												<effectcategory>audiopan</effectcategory>
												<effecttype>audiopan</effecttype>
												<mediatype>audio</mediatype>
												<parameter>
													<name>Pan</name>
													<parameterid>pan</parameterid>
													<valuemin>-1</valuemin>
													<valuemax>1</valuemax>
													<value>-1</value>
												</parameter>
											</effect>
										</filter>
										<sourcetrack>
											<mediatype>audio</mediatype>
											<trackindex>1</trackindex>
										</sourcetrack>
										<link>
											<linkclipref>Boing - hoink - plystring.aif15</linkclipref>
											<mediatype>audio</mediatype>
											<trackindex>5</trackindex>
											<clipindex>6</clipindex>
											<groupindex>1</groupindex>
										</link>
										<link>
											<linkclipref>Boing - hoink - plystring.aif16</linkclipref>
											<mediatype>audio</mediatype>
											<trackindex>6</trackindex>
											<clipindex>6</clipindex>
											<groupindex>1</groupindex>
										</link>
									</clipitem>
									<clipitem id="SCDV0027832.wav">
										<name>SCDV0027832.wav</name>
										<duration>1557</duration>
										<rate>
											<ntsc>FALSE</ntsc>
											<timebase>25</timebase>
										</rate>
										<in>1087</in>
										<out>1557</out>
										<start>1193</start>
										<end>1663</end>
										<subframeoffset>0</subframeoffset>
										<logginginfo>
											<scene/>
											<shottake/>
											<lognote/>
											<good>FALSE</good>
										</logginginfo>
										<labels>
											<label2/>
										</labels>
										<comments>
											<mastercomment1/>
											<mastercomment2/>
											<mastercomment3/>
											<mastercomment4/>
										</comments>
										<file id="SCDV0027832 ">
											<name>SCDV0027832.wav</name>
											<pathurl>file://localhost/Volumes/SuperSAN1/Prosjekter/MSUB20000012%20FIN%20FREDAG/MUSIKK/Hibderloype-grafikk/auxmp14767_841.zip%20Folder/SCDV0027832.wav</pathurl>
											<rate>
												<timebase>25</timebase>
											</rate>
											<duration>1557</duration>
											<timecode>
												<rate>
													<timebase>25</timebase>
												</rate>
												<string>01:46:42:10</string>
												<frame>160060</frame>
												<displayformat>NDF</displayformat>
												<source>source</source>
											</timecode>
											<media>
												<audio>
													<rate>
														<timebase>48000</timebase>
													</rate>
													<trackcount>2</trackcount>
													<samplecharacteristics>
														<depth>16</depth>
													</samplecharacteristics>
												</audio>
											</media>
										</file>
										<filter>
											<effect>
												<name>Audio Levels</name>
												<effectid>audiolevels</effectid>
												<effectcategory>audiolevels</effectcategory>
												<effecttype>audiolevels</effecttype>
												<mediatype>audio</mediatype>
												<parameter>
													<name>Level</name>
													<parameterid>level</parameterid>
													<valuemin>0</valuemin>
													<valuemax>3.98109</valuemax>
													<keyframe>
														<when>82</when>
														<value>0.316228</value>
													</keyframe>
													<keyframe>
														<when>115.429</when>
														<value>0.0891251</value>
													</keyframe>
													<keyframe>
														<when>1426.07</when>
														<value>0.0891251</value>
													</keyframe>
													<keyframe>
														<when>1461.93</when>
														<value>0.251189</value>
													</keyframe>
													<interpolation>
														<name>FCPCurve</name>
													</interpolation>
													<value>0.316228</value>
												</parameter>
											</effect>
										</filter>
										<filter>
											<effect>
												<name>Audio Pan</name>
												<effectid>audiopan</effectid>
												<effectcategory>audiopan</effectcategory>
												<effecttype>audiopan</effecttype>
												<mediatype>audio</mediatype>
												<parameter>
													<name>Pan</name>
													<parameterid>pan</parameterid>
													<valuemin>-1</valuemin>
													<valuemax>1</valuemax>
													<value>-1</value>
												</parameter>
											</effect>
										</filter>
										<sourcetrack>
											<mediatype>audio</mediatype>
											<trackindex>1</trackindex>
										</sourcetrack>
										<link>
											<linkclipref>SCDV0027832.wav</linkclipref>
											<mediatype>audio</mediatype>
											<trackindex>5</trackindex>
											<clipindex>7</clipindex>
											<groupindex>1</groupindex>
										</link>
										<link>
											<linkclipref>SCDV0027832.wav1</linkclipref>
											<mediatype>audio</mediatype>
											<trackindex>6</trackindex>
											<clipindex>7</clipindex>
											<groupindex>1</groupindex>
										</link>
									</clipitem>
									<enabled>TRUE</enabled>
									<locked>FALSE</locked>
									<outputchannelindex>1</outputchannelindex>
								</track>
								<track>
									<clipitem id="Boing - hoink - plystring.aif6">
										<name>Boing - hoink - plystring.aif</name>
										<duration>256</duration>
										<rate>
											<ntsc>FALSE</ntsc>
											<timebase>25</timebase>
										</rate>
										<in>36</in>
										<out>46</out>
										<start>486</start>
										<end>496</end>
										<subframeoffset>0</subframeoffset>
										<masterclipid>Boing - hoink - plystring.aif1</masterclipid>
										<logginginfo>
											<scene/>
											<shottake/>
											<lognote/>
											<good>FALSE</good>
										</logginginfo>
										<labels>
											<label2/>
										</labels>
										<comments>
											<mastercomment1/>
											<mastercomment2/>
											<mastercomment3/>
											<mastercomment4/>
										</comments>
										<file id="Boing - hoink - plystring"/>
										<filter>
											<effect>
												<name>Audio Levels</name>
												<effectid>audiolevels</effectid>
												<effectcategory>audiolevels</effectcategory>
												<effecttype>audiolevels</effecttype>
												<mediatype>audio</mediatype>
												<parameter>
													<name>Level</name>
													<parameterid>level</parameterid>
													<valuemin>0</valuemin>
													<valuemax>3.98109</valuemax>
													<value>0.281838</value>
												</parameter>
											</effect>
										</filter>
										<filter>
											<effect>
												<name>Audio Pan</name>
												<effectid>audiopan</effectid>
												<effectcategory>audiopan</effectcategory>
												<effecttype>audiopan</effecttype>
												<mediatype>audio</mediatype>
												<parameter>
													<name>Pan</name>
													<parameterid>pan</parameterid>
													<valuemin>-1</valuemin>
													<valuemax>1</valuemax>
													<value>1</value>
												</parameter>
											</effect>
										</filter>
										<sourcetrack>
											<mediatype>audio</mediatype>
											<trackindex>2</trackindex>
										</sourcetrack>
										<link>
											<linkclipref>Boing - hoink - plystring.aif5</linkclipref>
											<mediatype>audio</mediatype>
											<trackindex>5</trackindex>
											<clipindex>1</clipindex>
											<groupindex>1</groupindex>
										</link>
										<link>
											<linkclipref>Boing - hoink - plystring.aif6</linkclipref>
											<mediatype>audio</mediatype>
											<trackindex>6</trackindex>
											<clipindex>1</clipindex>
											<groupindex>1</groupindex>
										</link>
									</clipitem>
									<clipitem id="Boing - hoink - plystring.aif8">
										<name>Boing - hoink - plystring.aif</name>
										<duration>256</duration>
										<rate>
											<ntsc>FALSE</ntsc>
											<timebase>25</timebase>
										</rate>
										<in>36</in>
										<out>46</out>
										<start>711</start>
										<end>721</end>
										<subframeoffset>0</subframeoffset>
										<masterclipid>Boing - hoink - plystring.aif1</masterclipid>
										<logginginfo>
											<scene/>
											<shottake/>
											<lognote/>
											<good>FALSE</good>
										</logginginfo>
										<labels>
											<label2/>
										</labels>
										<comments>
											<mastercomment1/>
											<mastercomment2/>
											<mastercomment3/>
											<mastercomment4/>
										</comments>
										<file id="Boing - hoink - plystring"/>
										<filter>
											<effect>
												<name>Audio Levels</name>
												<effectid>audiolevels</effectid>
												<effectcategory>audiolevels</effectcategory>
												<effecttype>audiolevels</effecttype>
												<mediatype>audio</mediatype>
												<parameter>
													<name>Level</name>
													<parameterid>level</parameterid>
													<valuemin>0</valuemin>
													<valuemax>3.98109</valuemax>
													<value>0.158489</value>
												</parameter>
											</effect>
										</filter>
										<filter>
											<effect>
												<name>Audio Pan</name>
												<effectid>audiopan</effectid>
												<effectcategory>audiopan</effectcategory>
												<effecttype>audiopan</effecttype>
												<mediatype>audio</mediatype>
												<parameter>
													<name>Pan</name>
													<parameterid>pan</parameterid>
													<valuemin>-1</valuemin>
													<valuemax>1</valuemax>
													<value>1</value>
												</parameter>
											</effect>
										</filter>
										<sourcetrack>
											<mediatype>audio</mediatype>
											<trackindex>2</trackindex>
										</sourcetrack>
										<link>
											<linkclipref>Boing - hoink - plystring.aif7</linkclipref>
											<mediatype>audio</mediatype>
											<trackindex>5</trackindex>
											<clipindex>2</clipindex>
											<groupindex>1</groupindex>
										</link>
										<link>
											<linkclipref>Boing - hoink - plystring.aif8</linkclipref>
											<mediatype>audio</mediatype>
											<trackindex>6</trackindex>
											<clipindex>2</clipindex>
											<groupindex>1</groupindex>
										</link>
									</clipitem>
									<clipitem id="Boing - hoink - plystring.aif10">
										<name>Boing - hoink - plystring.aif</name>
										<duration>256</duration>
										<rate>
											<ntsc>FALSE</ntsc>
											<timebase>25</timebase>
										</rate>
										<in>36</in>
										<out>46</out>
										<start>845</start>
										<end>855</end>
										<subframeoffset>0</subframeoffset>
										<masterclipid>Boing - hoink - plystring.aif1</masterclipid>
										<logginginfo>
											<scene/>
											<shottake/>
											<lognote/>
											<good>FALSE</good>
										</logginginfo>
										<labels>
											<label2/>
										</labels>
										<comments>
											<mastercomment1/>
											<mastercomment2/>
											<mastercomment3/>
											<mastercomment4/>
										</comments>
										<file id="Boing - hoink - plystring"/>
										<filter>
											<effect>
												<name>Audio Levels</name>
												<effectid>audiolevels</effectid>
												<effectcategory>audiolevels</effectcategory>
												<effecttype>audiolevels</effecttype>
												<mediatype>audio</mediatype>
												<parameter>
													<name>Level</name>
													<parameterid>level</parameterid>
													<valuemin>0</valuemin>
													<valuemax>3.98109</valuemax>
													<value>0.251189</value>
												</parameter>
											</effect>
										</filter>
										<filter>
											<effect>
												<name>Audio Pan</name>
												<effectid>audiopan</effectid>
												<effectcategory>audiopan</effectcategory>
												<effecttype>audiopan</effecttype>
												<mediatype>audio</mediatype>
												<parameter>
													<name>Pan</name>
													<parameterid>pan</parameterid>
													<valuemin>-1</valuemin>
													<valuemax>1</valuemax>
													<value>1</value>
												</parameter>
											</effect>
										</filter>
										<sourcetrack>
											<mediatype>audio</mediatype>
											<trackindex>2</trackindex>
										</sourcetrack>
										<link>
											<linkclipref>Boing - hoink - plystring.aif9</linkclipref>
											<mediatype>audio</mediatype>
											<trackindex>5</trackindex>
											<clipindex>3</clipindex>
											<groupindex>1</groupindex>
										</link>
										<link>
											<linkclipref>Boing - hoink - plystring.aif10</linkclipref>
											<mediatype>audio</mediatype>
											<trackindex>6</trackindex>
											<clipindex>3</clipindex>
											<groupindex>1</groupindex>
										</link>
									</clipitem>
									<clipitem id="Boing - hoink - plystring.aif12">
										<name>Boing - hoink - plystring.aif</name>
										<duration>256</duration>
										<rate>
											<ntsc>FALSE</ntsc>
											<timebase>25</timebase>
										</rate>
										<in>36</in>
										<out>46</out>
										<start>875</start>
										<end>885</end>
										<subframeoffset>0</subframeoffset>
										<masterclipid>Boing - hoink - plystring.aif1</masterclipid>
										<logginginfo>
											<scene/>
											<shottake/>
											<lognote/>
											<good>FALSE</good>
										</logginginfo>
										<labels>
											<label2/>
										</labels>
										<comments>
											<mastercomment1/>
											<mastercomment2/>
											<mastercomment3/>
											<mastercomment4/>
										</comments>
										<file id="Boing - hoink - plystring"/>
										<filter>
											<effect>
												<name>Audio Levels</name>
												<effectid>audiolevels</effectid>
												<effectcategory>audiolevels</effectcategory>
												<effecttype>audiolevels</effecttype>
												<mediatype>audio</mediatype>
												<parameter>
													<name>Level</name>
													<parameterid>level</parameterid>
													<valuemin>0</valuemin>
													<valuemax>3.98109</valuemax>
													<value>0.158489</value>
												</parameter>
											</effect>
										</filter>
										<filter>
											<effect>
												<name>Audio Pan</name>
												<effectid>audiopan</effectid>
												<effectcategory>audiopan</effectcategory>
												<effecttype>audiopan</effecttype>
												<mediatype>audio</mediatype>
												<parameter>
													<name>Pan</name>
													<parameterid>pan</parameterid>
													<valuemin>-1</valuemin>
													<valuemax>1</valuemax>
													<value>1</value>
												</parameter>
											</effect>
										</filter>
										<sourcetrack>
											<mediatype>audio</mediatype>
											<trackindex>2</trackindex>
										</sourcetrack>
										<link>
											<linkclipref>Boing - hoink - plystring.aif11</linkclipref>
											<mediatype>audio</mediatype>
											<trackindex>5</trackindex>
											<clipindex>4</clipindex>
											<groupindex>1</groupindex>
										</link>
										<link>
											<linkclipref>Boing - hoink - plystring.aif12</linkclipref>
											<mediatype>audio</mediatype>
											<trackindex>6</trackindex>
											<clipindex>4</clipindex>
											<groupindex>1</groupindex>
										</link>
									</clipitem>
									<clipitem id="Boing - hoink - plystring.aif14">
										<name>Boing - hoink - plystring.aif</name>
										<duration>256</duration>
										<rate>
											<ntsc>FALSE</ntsc>
											<timebase>25</timebase>
										</rate>
										<in>36</in>
										<out>40</out>
										<start>1004</start>
										<end>1008</end>
										<subframeoffset>0</subframeoffset>
										<masterclipid>Boing - hoink - plystring.aif1</masterclipid>
										<logginginfo>
											<scene/>
											<shottake/>
											<lognote/>
											<good>FALSE</good>
										</logginginfo>
										<labels>
											<label2/>
										</labels>
										<comments>
											<mastercomment1/>
											<mastercomment2/>
											<mastercomment3/>
											<mastercomment4/>
										</comments>
										<file id="Boing - hoink - plystring"/>
										<filter>
											<effect>
												<name>Audio Levels</name>
												<effectid>audiolevels</effectid>
												<effectcategory>audiolevels</effectcategory>
												<effecttype>audiolevels</effecttype>
												<mediatype>audio</mediatype>
												<parameter>
													<name>Level</name>
													<parameterid>level</parameterid>
													<valuemin>0</valuemin>
													<valuemax>3.98109</valuemax>
													<value>0.251189</value>
												</parameter>
											</effect>
										</filter>
										<filter>
											<effect>
												<name>Audio Pan</name>
												<effectid>audiopan</effectid>
												<effectcategory>audiopan</effectcategory>
												<effecttype>audiopan</effecttype>
												<mediatype>audio</mediatype>
												<parameter>
													<name>Pan</name>
													<parameterid>pan</parameterid>
													<valuemin>-1</valuemin>
													<valuemax>1</valuemax>
													<value>1</value>
												</parameter>
											</effect>
										</filter>
										<sourcetrack>
											<mediatype>audio</mediatype>
											<trackindex>2</trackindex>
										</sourcetrack>
										<link>
											<linkclipref>Boing - hoink - plystring.aif13</linkclipref>
											<mediatype>audio</mediatype>
											<trackindex>5</trackindex>
											<clipindex>5</clipindex>
											<groupindex>1</groupindex>
										</link>
										<link>
											<linkclipref>Boing - hoink - plystring.aif14</linkclipref>
											<mediatype>audio</mediatype>
											<trackindex>6</trackindex>
											<clipindex>5</clipindex>
											<groupindex>1</groupindex>
										</link>
									</clipitem>
									<clipitem id="Boing - hoink - plystring.aif16">
										<name>Boing - hoink - plystring.aif</name>
										<duration>256</duration>
										<rate>
											<ntsc>FALSE</ntsc>
											<timebase>25</timebase>
										</rate>
										<in>38</in>
										<out>42</out>
										<start>1012</start>
										<end>1016</end>
										<subframeoffset>0</subframeoffset>
										<masterclipid>Boing - hoink - plystring.aif1</masterclipid>
										<logginginfo>
											<scene/>
											<shottake/>
											<lognote/>
											<good>FALSE</good>
										</logginginfo>
										<labels>
											<label2/>
										</labels>
										<comments>
											<mastercomment1/>
											<mastercomment2/>
											<mastercomment3/>
											<mastercomment4/>
										</comments>
										<file id="Boing - hoink - plystring"/>
										<filter>
											<effect>
												<name>Audio Levels</name>
												<effectid>audiolevels</effectid>
												<effectcategory>audiolevels</effectcategory>
												<effecttype>audiolevels</effecttype>
												<mediatype>audio</mediatype>
												<parameter>
													<name>Level</name>
													<parameterid>level</parameterid>
													<valuemin>0</valuemin>
													<valuemax>3.98109</valuemax>
													<value>0.199526</value>
												</parameter>
											</effect>
										</filter>
										<filter>
											<effect>
												<name>Audio Pan</name>
												<effectid>audiopan</effectid>
												<effectcategory>audiopan</effectcategory>
												<effecttype>audiopan</effecttype>
												<mediatype>audio</mediatype>
												<parameter>
													<name>Pan</name>
													<parameterid>pan</parameterid>
													<valuemin>-1</valuemin>
													<valuemax>1</valuemax>
													<value>1</value>
												</parameter>
											</effect>
										</filter>
										<sourcetrack>
											<mediatype>audio</mediatype>
											<trackindex>2</trackindex>
										</sourcetrack>
										<link>
											<linkclipref>Boing - hoink - plystring.aif15</linkclipref>
											<mediatype>audio</mediatype>
											<trackindex>5</trackindex>
											<clipindex>6</clipindex>
											<groupindex>1</groupindex>
										</link>
										<link>
											<linkclipref>Boing - hoink - plystring.aif16</linkclipref>
											<mediatype>audio</mediatype>
											<trackindex>6</trackindex>
											<clipindex>6</clipindex>
											<groupindex>1</groupindex>
										</link>
									</clipitem>
									<clipitem id="SCDV0027832.wav1">
										<name>SCDV0027832.wav</name>
										<duration>1557</duration>
										<rate>
											<ntsc>FALSE</ntsc>
											<timebase>25</timebase>
										</rate>
										<in>1087</in>
										<out>1557</out>
										<start>1193</start>
										<end>1663</end>
										<subframeoffset>0</subframeoffset>
										<logginginfo>
											<scene/>
											<shottake/>
											<lognote/>
											<good>FALSE</good>
										</logginginfo>
										<labels>
											<label2/>
										</labels>
										<comments>
											<mastercomment1/>
											<mastercomment2/>
											<mastercomment3/>
											<mastercomment4/>
										</comments>
										<file id="SCDV0027832 "/>
										<filter>
											<effect>
												<name>Audio Levels</name>
												<effectid>audiolevels</effectid>
												<effectcategory>audiolevels</effectcategory>
												<effecttype>audiolevels</effecttype>
												<mediatype>audio</mediatype>
												<parameter>
													<name>Level</name>
													<parameterid>level</parameterid>
													<valuemin>0</valuemin>
													<valuemax>3.98109</valuemax>
													<keyframe>
														<when>82</when>
														<value>0.316228</value>
													</keyframe>
													<keyframe>
														<when>115.429</when>
														<value>0.0891251</value>
													</keyframe>
													<keyframe>
														<when>1426.07</when>
														<value>0.0891251</value>
													</keyframe>
													<keyframe>
														<when>1461.93</when>
														<value>0.251189</value>
													</keyframe>
													<interpolation>
														<name>FCPCurve</name>
													</interpolation>
													<value>0.316228</value>
												</parameter>
											</effect>
										</filter>
										<filter>
											<effect>
												<name>Audio Pan</name>
												<effectid>audiopan</effectid>
												<effectcategory>audiopan</effectcategory>
												<effecttype>audiopan</effecttype>
												<mediatype>audio</mediatype>
												<parameter>
													<name>Pan</name>
													<parameterid>pan</parameterid>
													<valuemin>-1</valuemin>
													<valuemax>1</valuemax>
													<value>1</value>
												</parameter>
											</effect>
										</filter>
										<sourcetrack>
											<mediatype>audio</mediatype>
											<trackindex>2</trackindex>
										</sourcetrack>
										<link>
											<linkclipref>SCDV0027832.wav</linkclipref>
											<mediatype>audio</mediatype>
											<trackindex>5</trackindex>
											<clipindex>7</clipindex>
											<groupindex>1</groupindex>
										</link>
										<link>
											<linkclipref>SCDV0027832.wav1</linkclipref>
											<mediatype>audio</mediatype>
											<trackindex>6</trackindex>
											<clipindex>7</clipindex>
											<groupindex>1</groupindex>
										</link>
									</clipitem>
									<enabled>TRUE</enabled>
									<locked>FALSE</locked>
									<outputchannelindex>2</outputchannelindex>
								</track>
								<track>
									<transitionitem id="625527160 ">
										<rate>
											<ntsc>FALSE</ntsc>
											<timebase>25</timebase>
										</rate>
										<start>0</start>
										<end>2</end>
										<alignment>start</alignment>
										<effect>
											<name>Cross Fade (+3dB) Copy</name>
											<effecttype>transition</effecttype>
											<mediatype>audio</mediatype>
										</effect>
									</transitionitem>
									<clipitem id="SCDV0027832.wav2">
										<name>SCDV0027832.wav</name>
										<duration>1557</duration>
										<rate>
											<ntsc>FALSE</ntsc>
											<timebase>25</timebase>
										</rate>
										<in>0</in>
										<out>1194</out>
										<start>-1</start>
										<end>1194</end>
										<subframeoffset>0</subframeoffset>
										<logginginfo>
											<scene/>
											<shottake/>
											<lognote/>
											<good>FALSE</good>
										</logginginfo>
										<labels>
											<label2/>
										</labels>
										<comments>
											<mastercomment1/>
											<mastercomment2/>
											<mastercomment3/>
											<mastercomment4/>
										</comments>
										<file id="SCDV0027832 "/>
										<filter>
											<effect>
												<name>Audio Levels</name>
												<effectid>audiolevels</effectid>
												<effectcategory>audiolevels</effectcategory>
												<effecttype>audiolevels</effecttype>
												<mediatype>audio</mediatype>
												<parameter>
													<name>Level</name>
													<parameterid>level</parameterid>
													<valuemin>0</valuemin>
													<valuemax>3.98109</valuemax>
													<keyframe>
														<when>82</when>
														<value>0.199526</value>
													</keyframe>
													<keyframe>
														<when>115.429</when>
														<value>0.0891251</value>
													</keyframe>
													<interpolation>
														<name>FCPCurve</name>
													</interpolation>
													<value>0.316228</value>
												</parameter>
											</effect>
										</filter>
										<filter>
											<effect>
												<name>Audio Pan</name>
												<effectid>audiopan</effectid>
												<effectcategory>audiopan</effectcategory>
												<effecttype>audiopan</effecttype>
												<mediatype>audio</mediatype>
												<parameter>
													<name>Pan</name>
													<parameterid>pan</parameterid>
													<valuemin>-1</valuemin>
													<valuemax>1</valuemax>
													<value>-1</value>
												</parameter>
											</effect>
										</filter>
										<sourcetrack>
											<mediatype>audio</mediatype>
											<trackindex>1</trackindex>
										</sourcetrack>
										<link>
											<linkclipref>SCDV0027832.wav2</linkclipref>
											<mediatype>audio</mediatype>
											<trackindex>7</trackindex>
											<clipindex>2</clipindex>
											<groupindex>1</groupindex>
										</link>
										<link>
											<linkclipref>SCDV0027832.wav3</linkclipref>
											<mediatype>audio</mediatype>
											<trackindex>8</trackindex>
											<clipindex>2</clipindex>
											<groupindex>1</groupindex>
										</link>
									</clipitem>
									<enabled>TRUE</enabled>
									<locked>FALSE</locked>
									<outputchannelindex>1</outputchannelindex>
								</track>
								<track>
									<transitionitem id="625526548 ">
										<rate>
											<ntsc>FALSE</ntsc>
											<timebase>25</timebase>
										</rate>
										<start>0</start>
										<end>2</end>
										<alignment>start</alignment>
										<effect>
											<name>Cross Fade (+3dB) Copy</name>
											<effecttype>transition</effecttype>
											<mediatype>audio</mediatype>
										</effect>
									</transitionitem>
									<clipitem id="SCDV0027832.wav3">
										<name>SCDV0027832.wav</name>
										<duration>1557</duration>
										<rate>
											<ntsc>FALSE</ntsc>
											<timebase>25</timebase>
										</rate>
										<in>0</in>
										<out>1194</out>
										<start>-1</start>
										<end>1194</end>
										<subframeoffset>0</subframeoffset>
										<logginginfo>
											<scene/>
											<shottake/>
											<lognote/>
											<good>FALSE</good>
										</logginginfo>
										<labels>
											<label2/>
										</labels>
										<comments>
											<mastercomment1/>
											<mastercomment2/>
											<mastercomment3/>
											<mastercomment4/>
										</comments>
										<file id="SCDV0027832 "/>
										<filter>
											<effect>
												<name>Audio Levels</name>
												<effectid>audiolevels</effectid>
												<effectcategory>audiolevels</effectcategory>
												<effecttype>audiolevels</effecttype>
												<mediatype>audio</mediatype>
												<parameter>
													<name>Level</name>
													<parameterid>level</parameterid>
													<valuemin>0</valuemin>
													<valuemax>3.98109</valuemax>
													<keyframe>
														<when>82</when>
														<value>0.199526</value>
													</keyframe>
													<keyframe>
														<when>115.429</when>
														<value>0.0891251</value>
													</keyframe>
													<interpolation>
														<name>FCPCurve</name>
													</interpolation>
													<value>0.316228</value>
												</parameter>
											</effect>
										</filter>
										<filter>
											<effect>
												<name>Audio Pan</name>
												<effectid>audiopan</effectid>
												<effectcategory>audiopan</effectcategory>
												<effecttype>audiopan</effecttype>
												<mediatype>audio</mediatype>
												<parameter>
													<name>Pan</name>
													<parameterid>pan</parameterid>
													<valuemin>-1</valuemin>
													<valuemax>1</valuemax>
													<value>1</value>
												</parameter>
											</effect>
										</filter>
										<sourcetrack>
											<mediatype>audio</mediatype>
											<trackindex>2</trackindex>
										</sourcetrack>
										<link>
											<linkclipref>SCDV0027832.wav2</linkclipref>
											<mediatype>audio</mediatype>
											<trackindex>7</trackindex>
											<clipindex>2</clipindex>
											<groupindex>1</groupindex>
										</link>
										<link>
											<linkclipref>SCDV0027832.wav3</linkclipref>
											<mediatype>audio</mediatype>
											<trackindex>8</trackindex>
											<clipindex>2</clipindex>
											<groupindex>1</groupindex>
										</link>
									</clipitem>
									<enabled>TRUE</enabled>
									<locked>FALSE</locked>
									<outputchannelindex>2</outputchannelindex>
								</track>
							</audio>
						</media>
					</sequence>
					<sourcetrack>
						<mediatype>audio</mediatype>
						<trackindex>1</trackindex>
					</sourcetrack>
					<link>
						<linkclipref>Hinderloype motion NY</linkclipref>
						<mediatype>audio</mediatype>
						<trackindex>3</trackindex>
						<clipindex>37</clipindex>
						<groupindex>1</groupindex>
					</link>
					<link>
						<linkclipref>Hinderloype motion NY2</linkclipref>
						<mediatype>audio</mediatype>
						<trackindex>4</trackindex>
						<clipindex>48</clipindex>
						<groupindex>1</groupindex>
					</link>
					<ismasterclip>FALSE</ismasterclip>
				</clipitem>
				<clipitem id="Fløyte - rask.aif5">
					<name>Fløyte - rask.aif</name>
					<duration>218</duration>
					<rate>
						<ntsc>FALSE</ntsc>
						<timebase>25</timebase>
					</rate>
					<in>8</in>
					<out>23</out>
					<start>24768</start>
					<end>24783</end>
					<subframeoffset>0</subframeoffset>
					<masterclipid>Fløyte - rask.aif1</masterclipid>
					<logginginfo>
						<scene/>
						<shottake/>
						<lognote/>
						<good>FALSE</good>
					</logginginfo>
					<labels>
						<label2/>
					</labels>
					<comments>
						<mastercomment1/>
						<mastercomment2/>
						<mastercomment3/>
						<mastercomment4/>
					</comments>
					<file id="Fløyte - rask"/>
					<filter>
						<effect>
							<name>Audio Levels</name>
							<effectid>audiolevels</effectid>
							<effectcategory>audiolevels</effectcategory>
							<effecttype>audiolevels</effecttype>
							<mediatype>audio</mediatype>
							<parameter>
								<name>Level</name>
								<parameterid>level</parameterid>
								<valuemin>0</valuemin>
								<valuemax>3.98109</valuemax>
								<value>0.398107</value>
							</parameter>
						</effect>
					</filter>
					<filter>
						<effect>
							<name>Audio Pan</name>
							<effectid>audiopan</effectid>
							<effectcategory>audiopan</effectcategory>
							<effecttype>audiopan</effecttype>
							<mediatype>audio</mediatype>
							<parameter>
								<name>Pan</name>
								<parameterid>pan</parameterid>
								<valuemin>-1</valuemin>
								<valuemax>1</valuemax>
								<value>-1</value>
							</parameter>
						</effect>
					</filter>
					<sourcetrack>
						<mediatype>audio</mediatype>
						<trackindex>1</trackindex>
					</sourcetrack>
					<link>
						<linkclipref>Fløyte - rask.aif5</linkclipref>
						<mediatype>audio</mediatype>
						<trackindex>3</trackindex>
						<clipindex>38</clipindex>
						<groupindex>1</groupindex>
					</link>
					<link>
						<linkclipref>Fløyte - rask.aif6</linkclipref>
						<mediatype>audio</mediatype>
						<trackindex>4</trackindex>
						<clipindex>49</clipindex>
						<groupindex>1</groupindex>
					</link>
				</clipitem>
				<clipitem id="Boing - hoink - plystring.aif17">
					<name>Boing - hoink - plystring.aif</name>
					<duration>256</duration>
					<rate>
						<ntsc>FALSE</ntsc>
						<timebase>25</timebase>
					</rate>
					<in>36</in>
					<out>46</out>
					<start>24785</start>
					<end>24795</end>
					<subframeoffset>0</subframeoffset>
					<masterclipid>Boing - hoink - plystring.aif1</masterclipid>
					<logginginfo>
						<scene/>
						<shottake/>
						<lognote/>
						<good>FALSE</good>
					</logginginfo>
					<labels>
						<label2/>
					</labels>
					<comments>
						<mastercomment1/>
						<mastercomment2/>
						<mastercomment3/>
						<mastercomment4/>
					</comments>
					<file id="Boing - hoink - plystring"/>
					<filter>
						<effect>
							<name>Audio Levels</name>
							<effectid>audiolevels</effectid>
							<effectcategory>audiolevels</effectcategory>
							<effecttype>audiolevels</effecttype>
							<mediatype>audio</mediatype>
							<parameter>
								<name>Level</name>
								<parameterid>level</parameterid>
								<valuemin>0</valuemin>
								<valuemax>3.98109</valuemax>
								<value>0.446684</value>
							</parameter>
						</effect>
					</filter>
					<filter>
						<effect>
							<name>Audio Pan</name>
							<effectid>audiopan</effectid>
							<effectcategory>audiopan</effectcategory>
							<effecttype>audiopan</effecttype>
							<mediatype>audio</mediatype>
							<parameter>
								<name>Pan</name>
								<parameterid>pan</parameterid>
								<valuemin>-1</valuemin>
								<valuemax>1</valuemax>
								<value>-1</value>
							</parameter>
						</effect>
					</filter>
					<sourcetrack>
						<mediatype>audio</mediatype>
						<trackindex>1</trackindex>
					</sourcetrack>
					<link>
						<linkclipref>Boing - hoink - plystring.aif17</linkclipref>
						<mediatype>audio</mediatype>
						<trackindex>3</trackindex>
						<clipindex>39</clipindex>
						<groupindex>1</groupindex>
					</link>
					<link>
						<linkclipref>Boing - hoink - plystring.aif18</linkclipref>
						<mediatype>audio</mediatype>
						<trackindex>4</trackindex>
						<clipindex>50</clipindex>
						<groupindex>1</groupindex>
					</link>
				</clipitem>
				<clipitem id="Fløyte - rask.aif7">
					<name>Fløyte - rask.aif</name>
					<duration>218</duration>
					<rate>
						<ntsc>FALSE</ntsc>
						<timebase>25</timebase>
					</rate>
					<in>8</in>
					<out>23</out>
					<start>25824</start>
					<end>25839</end>
					<subframeoffset>0</subframeoffset>
					<masterclipid>Fløyte - rask.aif1</masterclipid>
					<logginginfo>
						<scene/>
						<shottake/>
						<lognote/>
						<good>FALSE</good>
					</logginginfo>
					<labels>
						<label2/>
					</labels>
					<comments>
						<mastercomment1/>
						<mastercomment2/>
						<mastercomment3/>
						<mastercomment4/>
					</comments>
					<file id="Fløyte - rask"/>
					<filter>
						<effect>
							<name>Audio Levels</name>
							<effectid>audiolevels</effectid>
							<effectcategory>audiolevels</effectcategory>
							<effecttype>audiolevels</effecttype>
							<mediatype>audio</mediatype>
							<parameter>
								<name>Level</name>
								<parameterid>level</parameterid>
								<valuemin>0</valuemin>
								<valuemax>3.98109</valuemax>
								<value>0.501187</value>
							</parameter>
						</effect>
					</filter>
					<filter>
						<effect>
							<name>Audio Pan</name>
							<effectid>audiopan</effectid>
							<effectcategory>audiopan</effectcategory>
							<effecttype>audiopan</effecttype>
							<mediatype>audio</mediatype>
							<parameter>
								<name>Pan</name>
								<parameterid>pan</parameterid>
								<valuemin>-1</valuemin>
								<valuemax>1</valuemax>
								<value>-1</value>
							</parameter>
						</effect>
					</filter>
					<sourcetrack>
						<mediatype>audio</mediatype>
						<trackindex>1</trackindex>
					</sourcetrack>
					<link>
						<linkclipref>Fløyte - rask.aif7</linkclipref>
						<mediatype>audio</mediatype>
						<trackindex>3</trackindex>
						<clipindex>40</clipindex>
						<groupindex>1</groupindex>
					</link>
					<link>
						<linkclipref>Fløyte - rask.aif8</linkclipref>
						<mediatype>audio</mediatype>
						<trackindex>4</trackindex>
						<clipindex>51</clipindex>
						<groupindex>1</groupindex>
					</link>
				</clipitem>
				<clipitem id="Boing - hoink - plystring.aif19">
					<name>Boing - hoink - plystring.aif</name>
					<duration>256</duration>
					<rate>
						<ntsc>FALSE</ntsc>
						<timebase>25</timebase>
					</rate>
					<in>36</in>
					<out>44</out>
					<start>25839</start>
					<end>25847</end>
					<subframeoffset>0</subframeoffset>
					<masterclipid>Boing - hoink - plystring.aif1</masterclipid>
					<logginginfo>
						<scene/>
						<shottake/>
						<lognote/>
						<good>FALSE</good>
					</logginginfo>
					<labels>
						<label2/>
					</labels>
					<comments>
						<mastercomment1/>
						<mastercomment2/>
						<mastercomment3/>
						<mastercomment4/>
					</comments>
					<file id="Boing - hoink - plystring"/>
					<filter>
						<effect>
							<name>Audio Levels</name>
							<effectid>audiolevels</effectid>
							<effectcategory>audiolevels</effectcategory>
							<effecttype>audiolevels</effecttype>
							<mediatype>audio</mediatype>
							<parameter>
								<name>Level</name>
								<parameterid>level</parameterid>
								<valuemin>0</valuemin>
								<valuemax>3.98109</valuemax>
								<value>0.630957</value>
							</parameter>
						</effect>
					</filter>
					<filter>
						<effect>
							<name>Audio Pan</name>
							<effectid>audiopan</effectid>
							<effectcategory>audiopan</effectcategory>
							<effecttype>audiopan</effecttype>
							<mediatype>audio</mediatype>
							<parameter>
								<name>Pan</name>
								<parameterid>pan</parameterid>
								<valuemin>-1</valuemin>
								<valuemax>1</valuemax>
								<value>-1</value>
							</parameter>
						</effect>
					</filter>
					<sourcetrack>
						<mediatype>audio</mediatype>
						<trackindex>1</trackindex>
					</sourcetrack>
					<link>
						<linkclipref>Boing - hoink - plystring.aif19</linkclipref>
						<mediatype>audio</mediatype>
						<trackindex>3</trackindex>
						<clipindex>41</clipindex>
						<groupindex>1</groupindex>
					</link>
					<link>
						<linkclipref>Boing - hoink - plystring.aif20</linkclipref>
						<mediatype>audio</mediatype>
						<trackindex>4</trackindex>
						<clipindex>52</clipindex>
						<groupindex>1</groupindex>
					</link>
				</clipitem>
				<clipitem id="Boing - hoink - plystring.aif21">
					<name>Boing - hoink - plystring.aif</name>
					<duration>256</duration>
					<rate>
						<ntsc>FALSE</ntsc>
						<timebase>25</timebase>
					</rate>
					<in>36</in>
					<out>46</out>
					<start>25852</start>
					<end>25862</end>
					<subframeoffset>0</subframeoffset>
					<masterclipid>Boing - hoink - plystring.aif1</masterclipid>
					<logginginfo>
						<scene/>
						<shottake/>
						<lognote/>
						<good>FALSE</good>
					</logginginfo>
					<labels>
						<label2/>
					</labels>
					<comments>
						<mastercomment1/>
						<mastercomment2/>
						<mastercomment3/>
						<mastercomment4/>
					</comments>
					<file id="Boing - hoink - plystring"/>
					<filter>
						<effect>
							<name>Audio Levels</name>
							<effectid>audiolevels</effectid>
							<effectcategory>audiolevels</effectcategory>
							<effecttype>audiolevels</effecttype>
							<mediatype>audio</mediatype>
							<parameter>
								<name>Level</name>
								<parameterid>level</parameterid>
								<valuemin>0</valuemin>
								<valuemax>3.98109</valuemax>
								<value>0.446684</value>
							</parameter>
						</effect>
					</filter>
					<filter>
						<effect>
							<name>Audio Pan</name>
							<effectid>audiopan</effectid>
							<effectcategory>audiopan</effectcategory>
							<effecttype>audiopan</effecttype>
							<mediatype>audio</mediatype>
							<parameter>
								<name>Pan</name>
								<parameterid>pan</parameterid>
								<valuemin>-1</valuemin>
								<valuemax>1</valuemax>
								<value>-1</value>
							</parameter>
						</effect>
					</filter>
					<sourcetrack>
						<mediatype>audio</mediatype>
						<trackindex>1</trackindex>
					</sourcetrack>
					<link>
						<linkclipref>Boing - hoink - plystring.aif21</linkclipref>
						<mediatype>audio</mediatype>
						<trackindex>3</trackindex>
						<clipindex>42</clipindex>
						<groupindex>1</groupindex>
					</link>
					<link>
						<linkclipref>Boing - hoink - plystring.aif22</linkclipref>
						<mediatype>audio</mediatype>
						<trackindex>4</trackindex>
						<clipindex>53</clipindex>
						<groupindex>1</groupindex>
					</link>
				</clipitem>
				<transitionitem id="625521108 ">
					<rate>
						<ntsc>FALSE</ntsc>
						<timebase>25</timebase>
					</rate>
					<start>34859</start>
					<end>34865</end>
					<alignment>center</alignment>
					<effect>
						<name>Cross Fade (+3dB) Copy</name>
						<effecttype>transition</effecttype>
						<mediatype>audio</mediatype>
					</effect>
				</transitionitem>
				<clipitem id="FIN_FREDAP01_1 ">
					<name>FIN_FREDAP01_1</name>
					<duration>17000</duration>
					<rate>
						<ntsc>FALSE</ntsc>
						<timebase>25</timebase>
					</rate>
					<in>7450</in>
					<out>7592</out>
					<start>-1</start>
					<end>-1</end>
					<enabled>TRUE</enabled>
					<masterclipid>FIN_FREDAP01_1 1</masterclipid>
					<logginginfo>
						<scene>FIN_FREDA</scene>
						<shottake>01</shottake>
						<lognote/>
						<good>FALSE</good>
					</logginginfo>
					<labels>
						<label2/>
					</labels>
					<comments>
						<mastercomment1/>
						<mastercomment2/>
						<mastercomment3/>
						<mastercomment4/>
					</comments>
					<file id="FIN_FREDAP01_1 2">
						<name>FIN_FREDAP01_1.WAV</name>
						<pathurl>file://localhost/Volumes/SuperSAN1/Prosjekter/MSUB20000012%20FIN%20FREDAG/FCP-prosjekter/program%201/Konsertlyd/FIN_FREDAP01_1.WAV</pathurl>
						<rate>
							<timebase>25</timebase>
						</rate>
						<duration>17000</duration>
						<timecode>
							<rate>
								<timebase>25</timebase>
							</rate>
							<string>00:55:26:00</string>
							<frame>83150</frame>
							<displayformat>NDF</displayformat>
							<source>source</source>
							<reel>
								<name>120904</name>
							</reel>
						</timecode>
						<media>
							<audio>
								<rate>
									<timebase>48000</timebase>
								</rate>
								<trackcount>1</trackcount>
								<samplecharacteristics>
									<depth>24</depth>
								</samplecharacteristics>
							</audio>
						</media>
					</file>
					<filter>
						<enabled>TRUE</enabled>
						<start>-1</start>
						<end>-1</end>
						<effect>
							<name>3 Band Equalizer - Mann</name>
							<effecttype>filter</effecttype>
							<mediatype>audio</mediatype>
							<parameter>
								<parameterid>Low Frequency</parameterid>
								<name>Low Frequency</name>
								<valuemin>80</valuemin>
								<valuemax>2000</valuemax>
								<value>100</value>
							</parameter>
							<parameter>
								<parameterid>Low Gain(dB)</parameterid>
								<name>Low Gain(dB)</name>
								<valuemin>-20</valuemin>
								<valuemax>20</valuemax>
								<value>-4</value>
							</parameter>
							<parameter>
								<parameterid>Mid Frequency</parameterid>
								<name>Mid Frequency</name>
								<valuemin>400</valuemin>
								<valuemax>8000</valuemax>
								<value>3602</value>
							</parameter>
							<parameter>
								<parameterid>Mid Gain(dB)</parameterid>
								<name>Mid Gain(dB)</name>
								<valuemin>-20</valuemin>
								<valuemax>20</valuemax>
								<value>3</value>
							</parameter>
							<parameter>
								<parameterid>High Frequency</parameterid>
								<name>High Frequency</name>
								<valuemin>5000</valuemin>
								<valuemax>20000</valuemax>
								<value>10354</value>
							</parameter>
							<parameter>
								<parameterid>High Gain(dB)</parameterid>
								<name>High Gain(dB)</name>
								<valuemin>-20</valuemin>
								<valuemax>20</valuemax>
								<value>0</value>
							</parameter>
						</effect>
					</filter>
					<filter>
						<effect>
							<name>Audio Levels</name>
							<effectid>audiolevels</effectid>
							<effectcategory>audiolevels</effectcategory>
							<effecttype>audiolevels</effecttype>
							<mediatype>audio</mediatype>
							<parameter>
								<name>Level</name>
								<parameterid>level</parameterid>
								<valuemin>0</valuemin>
								<valuemax>3.98109</valuemax>
								<keyframe>
									<when>1850.25</when>
									<value>0.0630957</value>
								</keyframe>
								<keyframe>
									<when>1858.5</when>
									<value>0.630957</value>
								</keyframe>
								<keyframe>
									<when>1941</when>
									<value>0.630957</value>
								</keyframe>
								<keyframe>
									<when>1948.5</when>
									<value>0.112202</value>
								</keyframe>
								<keyframe>
									<when>2076.75</when>
									<value>0.112202</value>
								</keyframe>
								<keyframe>
									<when>2088</when>
									<value>0.0177828</value>
								</keyframe>
								<keyframe>
									<when>2223</when>
									<value>0.0177828</value>
								</keyframe>
								<keyframe>
									<when>2239.5</when>
									<value>1.41254</value>
								</keyframe>
								<keyframe>
									<when>2254.5</when>
									<value>3.16228</value>
								</keyframe>
								<keyframe>
									<when>2682</when>
									<value>3.16228</value>
								</keyframe>
								<keyframe>
									<when>2710.5</when>
									<value>1.99526</value>
								</keyframe>
								<keyframe>
									<when>2873.08</when>
									<value>1.99526</value>
								</keyframe>
								<keyframe>
									<when>2883.18</when>
									<value>1.99526</value>
								</keyframe>
								<keyframe>
									<when>3031.52</when>
									<value>1.99526</value>
								</keyframe>
								<keyframe>
									<when>3051.02</when>
									<value>1.58489</value>
								</keyframe>
								<keyframe>
									<when>3079.57</when>
									<value>1.58489</value>
								</keyframe>
								<keyframe>
									<when>3091.41</when>
									<value>1.99526</value>
								</keyframe>
								<keyframe>
									<when>4411.5</when>
									<value>1.99526</value>
								</keyframe>
								<keyframe>
									<when>4437</when>
									<value>1.41254</value>
								</keyframe>
								<keyframe>
									<when>4470</when>
									<value>1.41254</value>
								</keyframe>
								<keyframe>
									<when>4480.5</when>
									<value>1.58489</value>
								</keyframe>
								<keyframe>
									<when>4585.5</when>
									<value>1.58489</value>
								</keyframe>
								<keyframe>
									<when>4603.5</when>
									<value>1.25893</value>
								</keyframe>
								<keyframe>
									<when>4771.5</when>
									<value>1.25893</value>
								</keyframe>
								<keyframe>
									<when>4788</when>
									<value>1.25893</value>
								</keyframe>
								<keyframe>
									<when>4936.5</when>
									<value>1.25893</value>
								</keyframe>
								<keyframe>
									<when>4965</when>
									<value>1.58489</value>
								</keyframe>
								<keyframe>
									<when>5341.5</when>
									<value>1.58489</value>
								</keyframe>
								<keyframe>
									<when>5395.5</when>
									<value>1.99526</value>
								</keyframe>
								<keyframe>
									<when>5494.5</when>
									<value>1.99526</value>
								</keyframe>
								<keyframe>
									<when>5581.5</when>
									<value>3.16228</value>
								</keyframe>
								<keyframe>
									<when>6055.5</when>
									<value>3.16228</value>
								</keyframe>
								<keyframe>
									<when>6148.5</when>
									<value>1.65645</value>
								</keyframe>
								<keyframe>
									<when>6256.5</when>
									<value>1.49751</value>
								</keyframe>
								<keyframe>
									<when>6270.75</when>
									<value>1</value>
								</keyframe>
								<keyframe>
									<when>6646.5</when>
									<value>1</value>
								</keyframe>
								<keyframe>
									<when>6663</when>
									<value>1.25893</value>
								</keyframe>
								<keyframe>
									<when>6979.5</when>
									<value>1.25893</value>
								</keyframe>
								<keyframe>
									<when>7003.5</when>
									<value>1.41254</value>
								</keyframe>
								<keyframe>
									<when>7102.5</when>
									<value>1.41254</value>
								</keyframe>
								<keyframe>
									<when>7132.5</when>
									<value>2.81838</value>
								</keyframe>
								<keyframe>
									<when>7425</when>
									<value>2.81838</value>
								</keyframe>
								<keyframe>
									<when>7469.25</when>
									<value>0.047472</value>
								</keyframe>
								<keyframe>
									<when>7506</when>
									<value>0.0177048</value>
								</keyframe>
								<keyframe>
									<when>7543.5</when>
									<value>0.0261066</value>
								</keyframe>
								<interpolation>
									<name>FCPCurve</name>
								</interpolation>
								<value>1.99526</value>
							</parameter>
						</effect>
					</filter>
					<filter>
						<effect>
							<name>Audio Pan</name>
							<effectid>audiopan</effectid>
							<effectcategory>audiopan</effectcategory>
							<effecttype>audiopan</effecttype>
							<mediatype>audio</mediatype>
							<parameter>
								<name>Pan</name>
								<parameterid>pan</parameterid>
								<valuemin>-1</valuemin>
								<valuemax>1</valuemax>
								<value>-0.117647</value>
							</parameter>
						</effect>
					</filter>
					<sourcetrack>
						<mediatype>audio</mediatype>
						<trackindex>1</trackindex>
					</sourcetrack>
				</clipitem>
				<transitionitem id="625520156 ">
					<rate>
						<ntsc>FALSE</ntsc>
						<timebase>25</timebase>
					</rate>
					<start>34951</start>
					<end>35001</end>
					<alignment>end-black</alignment>
					<effect>
						<name>Cross Fade ( 0dB)</name>
						<effecttype>transition</effecttype>
						<mediatype>audio</mediatype>
					</effect>
				</transitionitem>
				<transitionitem id="625520428 ">
					<rate>
						<ntsc>FALSE</ntsc>
						<timebase>25</timebase>
					</rate>
					<start>36206</start>
					<end>36212</end>
					<alignment>start-black</alignment>
					<effect>
						<name>Cross Fade (+3dB) Copy</name>
						<effecttype>transition</effecttype>
						<mediatype>audio</mediatype>
					</effect>
				</transitionitem>
				<clipitem id="SkypeScreenSnapz001 ">
					<name>SkypeScreenSnapz001</name>
					<duration>9740</duration>
					<rate>
						<ntsc>FALSE</ntsc>
						<timebase>25</timebase>
					</rate>
					<in>557</in>
					<out>692</out>
					<start>-1</start>
					<end>36341</end>
					<enabled>TRUE</enabled>
					<logginginfo>
						<scene/>
						<shottake/>
						<lognote/>
						<good>FALSE</good>
					</logginginfo>
					<labels>
						<label2/>
					</labels>
					<comments>
						<mastercomment1/>
						<mastercomment2/>
						<mastercomment3/>
						<mastercomment4/>
					</comments>
					<file id="SkypeScreenSnapz001 1">
						<name>SkypeScreenSnapz001.mov</name>
						<pathurl>file://localhost/Volumes/SuperSAN1/Prosjekter/MSUB20000012%20FIN%20FREDAG/tooji-hjelpen/Victoria/SkypeScreenSnapz001.mov</pathurl>
						<rate>
							<timebase>10</timebase>
						</rate>
						<duration>3896</duration>
						<media>
							<video>
								<duration>3896</duration>
								<samplecharacteristics>
									<width>1664</width>
									<height>936</height>
								</samplecharacteristics>
							</video>
							<audio>
								<rate>
									<timebase>48000</timebase>
								</rate>
								<trackcount>2</trackcount>
								<samplecharacteristics>
									<depth>24</depth>
								</samplecharacteristics>
							</audio>
						</media>
					</file>
					<filter>
						<effect>
							<name>Audio Levels</name>
							<effectid>audiolevels</effectid>
							<effectcategory>audiolevels</effectcategory>
							<effecttype>audiolevels</effecttype>
							<mediatype>audio</mediatype>
							<parameter>
								<name>Level</name>
								<parameterid>level</parameterid>
								<valuemin>0</valuemin>
								<valuemax>3.98109</valuemax>
								<value>0.501187</value>
							</parameter>
						</effect>
					</filter>
					<filter>
						<effect>
							<name>Audio Pan</name>
							<effectid>audiopan</effectid>
							<effectcategory>audiopan</effectcategory>
							<effecttype>audiopan</effecttype>
							<mediatype>audio</mediatype>
							<parameter>
								<name>Pan</name>
								<parameterid>pan</parameterid>
								<valuemin>-1</valuemin>
								<valuemax>1</valuemax>
								<value>0</value>
							</parameter>
						</effect>
					</filter>
					<sourcetrack>
						<mediatype>audio</mediatype>
						<trackindex>1</trackindex>
					</sourcetrack>
					<link>
						<linkclipref>SkypeScreenSnapz001 </linkclipref>
						<mediatype>audio</mediatype>
						<trackindex>3</trackindex>
						<clipindex>47</clipindex>
						<groupindex>1</groupindex>
					</link>
					<link>
						<linkclipref>SkypeScreenSnapz001 2</linkclipref>
						<mediatype>audio</mediatype>
						<trackindex>4</trackindex>
						<clipindex>59</clipindex>
						<groupindex>1</groupindex>
					</link>
				</clipitem>
				<clipitem id="SkypeScreenSnapz001 3">
					<name>SkypeScreenSnapz001</name>
					<duration>9740</duration>
					<rate>
						<ntsc>FALSE</ntsc>
						<timebase>25</timebase>
					</rate>
					<in>746</in>
					<out>1039</out>
					<start>36341</start>
					<end>36634</end>
					<enabled>TRUE</enabled>
					<logginginfo>
						<scene/>
						<shottake/>
						<lognote/>
						<good>FALSE</good>
					</logginginfo>
					<labels>
						<label2/>
					</labels>
					<comments>
						<mastercomment1/>
						<mastercomment2/>
						<mastercomment3/>
						<mastercomment4/>
					</comments>
					<file id="SkypeScreenSnapz001 1"/>
					<filter>
						<effect>
							<name>Audio Levels</name>
							<effectid>audiolevels</effectid>
							<effectcategory>audiolevels</effectcategory>
							<effecttype>audiolevels</effecttype>
							<mediatype>audio</mediatype>
							<parameter>
								<name>Level</name>
								<parameterid>level</parameterid>
								<valuemin>0</valuemin>
								<valuemax>3.98109</valuemax>
								<keyframe>
									<when>810.929</when>
									<value>0.501187</value>
								</keyframe>
								<keyframe>
									<when>815.107</when>
									<value>1</value>
								</keyframe>
								<keyframe>
									<when>839.054</when>
									<value>1</value>
								</keyframe>
								<keyframe>
									<when>840.661</when>
									<value>0.501187</value>
								</keyframe>
								<keyframe>
									<when>1004.57</when>
									<value>0.501187</value>
								</keyframe>
								<keyframe>
									<when>1008.05</when>
									<value>0</value>
								</keyframe>
								<keyframe>
									<when>1018.5</when>
									<value>0</value>
								</keyframe>
								<keyframe>
									<when>1022.56</when>
									<value>1</value>
								</keyframe>
								<interpolation>
									<name>FCPCurve</name>
								</interpolation>
								<value>1</value>
							</parameter>
						</effect>
					</filter>
					<filter>
						<effect>
							<name>Audio Pan</name>
							<effectid>audiopan</effectid>
							<effectcategory>audiopan</effectcategory>
							<effecttype>audiopan</effecttype>
							<mediatype>audio</mediatype>
							<parameter>
								<name>Pan</name>
								<parameterid>pan</parameterid>
								<valuemin>-1</valuemin>
								<valuemax>1</valuemax>
								<value>0</value>
							</parameter>
						</effect>
					</filter>
					<sourcetrack>
						<mediatype>audio</mediatype>
						<trackindex>1</trackindex>
					</sourcetrack>
					<link>
						<linkclipref>SkypeScreenSnapz001 3</linkclipref>
						<mediatype>audio</mediatype>
						<trackindex>3</trackindex>
						<clipindex>48</clipindex>
						<groupindex>1</groupindex>
					</link>
					<link>
						<linkclipref>SkypeScreenSnapz001 4</linkclipref>
						<mediatype>audio</mediatype>
						<trackindex>4</trackindex>
						<clipindex>60</clipindex>
						<groupindex>1</groupindex>
					</link>
				</clipitem>
				<clipitem id="SkypeScreenSnapz001 5">
					<name>SkypeScreenSnapz001</name>
					<duration>9740</duration>
					<rate>
						<ntsc>FALSE</ntsc>
						<timebase>25</timebase>
					</rate>
					<in>1211</in>
					<out>1269</out>
					<start>36638</start>
					<end>-1</end>
					<enabled>TRUE</enabled>
					<logginginfo>
						<scene/>
						<shottake/>
						<lognote/>
						<good>FALSE</good>
					</logginginfo>
					<labels>
						<label2/>
					</labels>
					<comments>
						<mastercomment1/>
						<mastercomment2/>
						<mastercomment3/>
						<mastercomment4/>
					</comments>
					<file id="SkypeScreenSnapz001 1"/>
					<filter>
						<effect>
							<name>Audio Levels</name>
							<effectid>audiolevels</effectid>
							<effectcategory>audiolevels</effectcategory>
							<effecttype>audiolevels</effecttype>
							<mediatype>audio</mediatype>
							<parameter>
								<name>Level</name>
								<parameterid>level</parameterid>
								<valuemin>0</valuemin>
								<valuemax>3.98109</valuemax>
								<value>0.446684</value>
							</parameter>
						</effect>
					</filter>
					<filter>
						<effect>
							<name>Audio Pan</name>
							<effectid>audiopan</effectid>
							<effectcategory>audiopan</effectcategory>
							<effecttype>audiopan</effecttype>
							<mediatype>audio</mediatype>
							<parameter>
								<name>Pan</name>
								<parameterid>pan</parameterid>
								<valuemin>-1</valuemin>
								<valuemax>1</valuemax>
								<value>0</value>
							</parameter>
						</effect>
					</filter>
					<sourcetrack>
						<mediatype>audio</mediatype>
						<trackindex>1</trackindex>
					</sourcetrack>
					<link>
						<linkclipref>SkypeScreenSnapz001 5</linkclipref>
						<mediatype>audio</mediatype>
						<trackindex>3</trackindex>
						<clipindex>49</clipindex>
						<groupindex>1</groupindex>
					</link>
					<link>
						<linkclipref>SkypeScreenSnapz001 6</linkclipref>
						<mediatype>audio</mediatype>
						<trackindex>4</trackindex>
						<clipindex>61</clipindex>
						<groupindex>1</groupindex>
					</link>
				</clipitem>
				<transitionitem id="625514648 ">
					<rate>
						<ntsc>FALSE</ntsc>
						<timebase>25</timebase>
					</rate>
					<start>36694</start>
					<end>36696</end>
					<alignment>center</alignment>
					<effect>
						<name>Cross Fade (+3dB) Copy</name>
						<effecttype>transition</effecttype>
						<mediatype>audio</mediatype>
					</effect>
				</transitionitem>
				<clipitem id="SkypeScreenSnapz001 7">
					<name>SkypeScreenSnapz001</name>
					<duration>9740</duration>
					<rate>
						<ntsc>FALSE</ntsc>
						<timebase>25</timebase>
					</rate>
					<in>1312</in>
					<out>1500</out>
					<start>-1</start>
					<end>36882</end>
					<enabled>TRUE</enabled>
					<logginginfo>
						<scene/>
						<shottake/>
						<lognote/>
						<good>FALSE</good>
					</logginginfo>
					<labels>
						<label2/>
					</labels>
					<comments>
						<mastercomment1/>
						<mastercomment2/>
						<mastercomment3/>
						<mastercomment4/>
					</comments>
					<file id="SkypeScreenSnapz001 1"/>
					<filter>
						<effect>
							<name>Audio Levels</name>
							<effectid>audiolevels</effectid>
							<effectcategory>audiolevels</effectcategory>
							<effecttype>audiolevels</effecttype>
							<mediatype>audio</mediatype>
							<parameter>
								<name>Level</name>
								<parameterid>level</parameterid>
								<valuemin>0</valuemin>
								<valuemax>3.98109</valuemax>
								<keyframe>
									<when>1361.77</when>
									<value>1</value>
								</keyframe>
								<keyframe>
									<when>1363.23</when>
									<value>0.124999</value>
								</keyframe>
								<keyframe>
									<when>1367.62</when>
									<value>0</value>
								</keyframe>
								<keyframe>
									<when>1387.39</when>
									<value>0</value>
								</keyframe>
								<keyframe>
									<when>1388.86</when>
									<value>0.0112202</value>
								</keyframe>
								<keyframe>
									<when>1397.64</when>
									<value>0.891251</value>
								</keyframe>
								<keyframe>
									<when>1475.54</when>
									<value>0.891251</value>
								</keyframe>
								<keyframe>
									<when>1481</when>
									<value>0</value>
								</keyframe>
								<keyframe>
									<when>1488.39</when>
									<value>0</value>
								</keyframe>
								<interpolation>
									<name>FCPCurve</name>
								</interpolation>
								<value>1</value>
							</parameter>
						</effect>
					</filter>
					<filter>
						<effect>
							<name>Audio Pan</name>
							<effectid>audiopan</effectid>
							<effectcategory>audiopan</effectcategory>
							<effecttype>audiopan</effecttype>
							<mediatype>audio</mediatype>
							<parameter>
								<name>Pan</name>
								<parameterid>pan</parameterid>
								<valuemin>-1</valuemin>
								<valuemax>1</valuemax>
								<value>0</value>
							</parameter>
						</effect>
					</filter>
					<sourcetrack>
						<mediatype>audio</mediatype>
						<trackindex>1</trackindex>
					</sourcetrack>
					<link>
						<linkclipref>SkypeScreenSnapz001 7</linkclipref>
						<mediatype>audio</mediatype>
						<trackindex>3</trackindex>
						<clipindex>51</clipindex>
						<groupindex>1</groupindex>
					</link>
					<link>
						<linkclipref>SkypeScreenSnapz001 8</linkclipref>
						<mediatype>audio</mediatype>
						<trackindex>4</trackindex>
						<clipindex>63</clipindex>
						<groupindex>1</groupindex>
					</link>
				</clipitem>
				<clipitem id="SkypeScreenSnapz001 9">
					<name>SkypeScreenSnapz001</name>
					<duration>9740</duration>
					<rate>
						<ntsc>FALSE</ntsc>
						<timebase>25</timebase>
					</rate>
					<in>1565</in>
					<out>1650</out>
					<start>36882</start>
					<end>36967</end>
					<enabled>TRUE</enabled>
					<logginginfo>
						<scene/>
						<shottake/>
						<lognote/>
						<good>FALSE</good>
					</logginginfo>
					<labels>
						<label2/>
					</labels>
					<comments>
						<mastercomment1/>
						<mastercomment2/>
						<mastercomment3/>
						<mastercomment4/>
					</comments>
					<file id="SkypeScreenSnapz001 1"/>
					<filter>
						<effect>
							<name>Audio Levels</name>
							<effectid>audiolevels</effectid>
							<effectcategory>audiolevels</effectcategory>
							<effecttype>audiolevels</effecttype>
							<mediatype>audio</mediatype>
							<parameter>
								<name>Level</name>
								<parameterid>level</parameterid>
								<valuemin>0</valuemin>
								<valuemax>3.98109</valuemax>
								<value>1</value>
							</parameter>
						</effect>
					</filter>
					<filter>
						<effect>
							<name>Audio Pan</name>
							<effectid>audiopan</effectid>
							<effectcategory>audiopan</effectcategory>
							<effecttype>audiopan</effecttype>
							<mediatype>audio</mediatype>
							<parameter>
								<name>Pan</name>
								<parameterid>pan</parameterid>
								<valuemin>-1</valuemin>
								<valuemax>1</valuemax>
								<value>0</value>
							</parameter>
						</effect>
					</filter>
					<sourcetrack>
						<mediatype>audio</mediatype>
						<trackindex>1</trackindex>
					</sourcetrack>
					<link>
						<linkclipref>SkypeScreenSnapz001 9</linkclipref>
						<mediatype>audio</mediatype>
						<trackindex>3</trackindex>
						<clipindex>52</clipindex>
						<groupindex>1</groupindex>
					</link>
					<link>
						<linkclipref>SkypeScreenSnapz001 10</linkclipref>
						<mediatype>audio</mediatype>
						<trackindex>4</trackindex>
						<clipindex>64</clipindex>
						<groupindex>1</groupindex>
					</link>
				</clipitem>
				<clipitem id="SkypeScreenSnapz001 11">
					<name>SkypeScreenSnapz001</name>
					<duration>9740</duration>
					<rate>
						<ntsc>FALSE</ntsc>
						<timebase>25</timebase>
					</rate>
					<in>1802</in>
					<out>2499</out>
					<start>36967</start>
					<end>-1</end>
					<enabled>TRUE</enabled>
					<logginginfo>
						<scene/>
						<shottake/>
						<lognote/>
						<good>FALSE</good>
					</logginginfo>
					<labels>
						<label2/>
					</labels>
					<comments>
						<mastercomment1/>
						<mastercomment2/>
						<mastercomment3/>
						<mastercomment4/>
					</comments>
					<file id="SkypeScreenSnapz001 1"/>
					<filter>
						<effect>
							<name>Audio Levels</name>
							<effectid>audiolevels</effectid>
							<effectcategory>audiolevels</effectcategory>
							<effecttype>audiolevels</effecttype>
							<mediatype>audio</mediatype>
							<parameter>
								<name>Level</name>
								<parameterid>level</parameterid>
								<valuemin>0</valuemin>
								<valuemax>3.98109</valuemax>
								<keyframe>
									<when>2472.64</when>
									<value>1</value>
								</keyframe>
								<keyframe>
									<when>2477.79</when>
									<value>0.794328</value>
								</keyframe>
								<interpolation>
									<name>FCPCurve</name>
								</interpolation>
								<value>1</value>
							</parameter>
						</effect>
					</filter>
					<filter>
						<effect>
							<name>Audio Pan</name>
							<effectid>audiopan</effectid>
							<effectcategory>audiopan</effectcategory>
							<effecttype>audiopan</effecttype>
							<mediatype>audio</mediatype>
							<parameter>
								<name>Pan</name>
								<parameterid>pan</parameterid>
								<valuemin>-1</valuemin>
								<valuemax>1</valuemax>
								<value>0</value>
							</parameter>
						</effect>
					</filter>
					<sourcetrack>
						<mediatype>audio</mediatype>
						<trackindex>1</trackindex>
					</sourcetrack>
					<link>
						<linkclipref>SkypeScreenSnapz001 11</linkclipref>
						<mediatype>audio</mediatype>
						<trackindex>3</trackindex>
						<clipindex>53</clipindex>
						<groupindex>1</groupindex>
					</link>
					<link>
						<linkclipref>SkypeScreenSnapz001 12</linkclipref>
						<mediatype>audio</mediatype>
						<trackindex>4</trackindex>
						<clipindex>65</clipindex>
						<groupindex>1</groupindex>
					</link>
				</clipitem>
				<transitionitem id="625516552 ">
					<rate>
						<ntsc>FALSE</ntsc>
						<timebase>25</timebase>
					</rate>
					<start>37659</start>
					<end>37664</end>
					<alignment>center</alignment>
					<effect>
						<name>Cross Fade (+3dB)</name>
						<effecttype>transition</effecttype>
						<mediatype>audio</mediatype>
					</effect>
				</transitionitem>
				<clipitem id="SkypeScreenSnapz001 13">
					<name>SkypeScreenSnapz001</name>
					<duration>9740</duration>
					<rate>
						<ntsc>FALSE</ntsc>
						<timebase>25</timebase>
					</rate>
					<in>2857</in>
					<out>3105</out>
					<start>-1</start>
					<end>-1</end>
					<enabled>TRUE</enabled>
					<logginginfo>
						<scene/>
						<shottake/>
						<lognote/>
						<good>FALSE</good>
					</logginginfo>
					<labels>
						<label2/>
					</labels>
					<comments>
						<mastercomment1/>
						<mastercomment2/>
						<mastercomment3/>
						<mastercomment4/>
					</comments>
					<file id="SkypeScreenSnapz001 1"/>
					<filter>
						<effect>
							<name>Audio Levels</name>
							<effectid>audiolevels</effectid>
							<effectcategory>audiolevels</effectcategory>
							<effecttype>audiolevels</effecttype>
							<mediatype>audio</mediatype>
							<parameter>
								<name>Level</name>
								<parameterid>level</parameterid>
								<valuemin>0</valuemin>
								<valuemax>3.98109</valuemax>
								<keyframe>
									<when>2939.46</when>
									<value>0.501187</value>
								</keyframe>
								<keyframe>
									<when>2943</when>
									<value>0.630957</value>
								</keyframe>
								<keyframe>
									<when>2965.18</when>
									<value>0.630957</value>
								</keyframe>
								<keyframe>
									<when>2970.32</when>
									<value>0.501187</value>
								</keyframe>
								<keyframe>
									<when>3078.32</when>
									<value>0.501187</value>
								</keyframe>
								<keyframe>
									<when>3081.54</when>
									<value>0.446684</value>
								</keyframe>
								<keyframe>
									<when>3091.18</when>
									<value>0.446684</value>
								</keyframe>
								<keyframe>
									<when>3095.04</when>
									<value>0.501187</value>
								</keyframe>
								<interpolation>
									<name>FCPCurve</name>
								</interpolation>
								<value>0.501187</value>
							</parameter>
						</effect>
					</filter>
					<filter>
						<effect>
							<name>Audio Pan</name>
							<effectid>audiopan</effectid>
							<effectcategory>audiopan</effectcategory>
							<effecttype>audiopan</effecttype>
							<mediatype>audio</mediatype>
							<parameter>
								<name>Pan</name>
								<parameterid>pan</parameterid>
								<valuemin>-1</valuemin>
								<valuemax>1</valuemax>
								<value>0</value>
							</parameter>
						</effect>
					</filter>
					<sourcetrack>
						<mediatype>audio</mediatype>
						<trackindex>1</trackindex>
					</sourcetrack>
					<link>
						<linkclipref>SkypeScreenSnapz001 13</linkclipref>
						<mediatype>audio</mediatype>
						<trackindex>3</trackindex>
						<clipindex>55</clipindex>
						<groupindex>1</groupindex>
					</link>
					<link>
						<linkclipref>SkypeScreenSnapz001 14</linkclipref>
						<mediatype>audio</mediatype>
						<trackindex>4</trackindex>
						<clipindex>67</clipindex>
						<groupindex>1</groupindex>
					</link>
				</clipitem>
				<transitionitem id="625511044 ">
					<rate>
						<ntsc>FALSE</ntsc>
						<timebase>25</timebase>
					</rate>
					<start>37901</start>
					<end>37907</end>
					<alignment>center</alignment>
					<effect>
						<name>Cross Fade (+3dB) Copy</name>
						<effecttype>transition</effecttype>
						<mediatype>audio</mediatype>
					</effect>
				</transitionitem>
				<clipitem id="SkypeScreenSnapz001 15">
					<name>SkypeScreenSnapz001</name>
					<duration>9740</duration>
					<rate>
						<ntsc>FALSE</ntsc>
						<timebase>25</timebase>
					</rate>
					<in>3172</in>
					<out>3307</out>
					<start>-1</start>
					<end>-1</end>
					<enabled>TRUE</enabled>
					<logginginfo>
						<scene/>
						<shottake/>
						<lognote/>
						<good>FALSE</good>
					</logginginfo>
					<labels>
						<label2/>
					</labels>
					<comments>
						<mastercomment1/>
						<mastercomment2/>
						<mastercomment3/>
						<mastercomment4/>
					</comments>
					<file id="SkypeScreenSnapz001 1"/>
					<filter>
						<effect>
							<name>Audio Levels</name>
							<effectid>audiolevels</effectid>
							<effectcategory>audiolevels</effectcategory>
							<effecttype>audiolevels</effecttype>
							<mediatype>audio</mediatype>
							<parameter>
								<name>Level</name>
								<parameterid>level</parameterid>
								<valuemin>0</valuemin>
								<valuemax>3.98109</valuemax>
								<keyframe>
									<when>3251.29</when>
									<value>0.281838</value>
								</keyframe>
								<keyframe>
									<when>3254.18</when>
									<value>0.00316228</value>
								</keyframe>
								<keyframe>
									<when>3266.23</when>
									<value>0.00316228</value>
								</keyframe>
								<keyframe>
									<when>3268.96</when>
									<value>0.398107</value>
								</keyframe>
								<interpolation>
									<name>FCPCurve</name>
								</interpolation>
								<value>0.501187</value>
							</parameter>
						</effect>
					</filter>
					<filter>
						<effect>
							<name>Audio Pan</name>
							<effectid>audiopan</effectid>
							<effectcategory>audiopan</effectcategory>
							<effecttype>audiopan</effecttype>
							<mediatype>audio</mediatype>
							<parameter>
								<name>Pan</name>
								<parameterid>pan</parameterid>
								<valuemin>-1</valuemin>
								<valuemax>1</valuemax>
								<value>0</value>
							</parameter>
						</effect>
					</filter>
					<sourcetrack>
						<mediatype>audio</mediatype>
						<trackindex>1</trackindex>
					</sourcetrack>
					<link>
						<linkclipref>SkypeScreenSnapz001 15</linkclipref>
						<mediatype>audio</mediatype>
						<trackindex>3</trackindex>
						<clipindex>57</clipindex>
						<groupindex>1</groupindex>
					</link>
					<link>
						<linkclipref>SkypeScreenSnapz001 16</linkclipref>
						<mediatype>audio</mediatype>
						<trackindex>4</trackindex>
						<clipindex>69</clipindex>
						<groupindex>1</groupindex>
					</link>
				</clipitem>
				<transitionitem id="625510704 ">
					<rate>
						<ntsc>FALSE</ntsc>
						<timebase>25</timebase>
					</rate>
					<start>38030</start>
					<end>38036</end>
					<alignment>center</alignment>
					<effect>
						<name>Cross Fade (+3dB) Copy</name>
						<effecttype>transition</effecttype>
						<mediatype>audio</mediatype>
					</effect>
				</transitionitem>
				<clipitem id="SkypeScreenSnapz001 17">
					<name>SkypeScreenSnapz001</name>
					<duration>9740</duration>
					<rate>
						<ntsc>FALSE</ntsc>
						<timebase>25</timebase>
					</rate>
					<in>3534</in>
					<out>3706</out>
					<start>-1</start>
					<end>-1</end>
					<enabled>TRUE</enabled>
					<logginginfo>
						<scene/>
						<shottake/>
						<lognote/>
						<good>FALSE</good>
					</logginginfo>
					<labels>
						<label2/>
					</labels>
					<comments>
						<mastercomment1/>
						<mastercomment2/>
						<mastercomment3/>
						<mastercomment4/>
					</comments>
					<file id="SkypeScreenSnapz001 1"/>
					<filter>
						<effect>
							<name>Audio Levels</name>
							<effectid>audiolevels</effectid>
							<effectcategory>audiolevels</effectcategory>
							<effecttype>audiolevels</effecttype>
							<mediatype>audio</mediatype>
							<parameter>
								<name>Level</name>
								<parameterid>level</parameterid>
								<valuemin>0</valuemin>
								<valuemax>3.98109</valuemax>
								<keyframe>
									<when>3618</when>
									<value>1</value>
								</keyframe>
								<keyframe>
									<when>3620.25</when>
									<value>1</value>
								</keyframe>
								<keyframe>
									<when>3629.25</when>
									<value>1</value>
								</keyframe>
								<keyframe>
									<when>3632.79</when>
									<value>1</value>
								</keyframe>
								<interpolation>
									<name>FCPCurve</name>
								</interpolation>
								<value>1</value>
							</parameter>
						</effect>
					</filter>
					<filter>
						<effect>
							<name>Audio Pan</name>
							<effectid>audiopan</effectid>
							<effectcategory>audiopan</effectcategory>
							<effecttype>audiopan</effecttype>
							<mediatype>audio</mediatype>
							<parameter>
								<name>Pan</name>
								<parameterid>pan</parameterid>
								<valuemin>-1</valuemin>
								<valuemax>1</valuemax>
								<value>0</value>
							</parameter>
						</effect>
					</filter>
					<sourcetrack>
						<mediatype>audio</mediatype>
						<trackindex>1</trackindex>
					</sourcetrack>
					<link>
						<linkclipref>SkypeScreenSnapz001 17</linkclipref>
						<mediatype>audio</mediatype>
						<trackindex>3</trackindex>
						<clipindex>59</clipindex>
						<groupindex>1</groupindex>
					</link>
					<link>
						<linkclipref>SkypeScreenSnapz001 18</linkclipref>
						<mediatype>audio</mediatype>
						<trackindex>4</trackindex>
						<clipindex>71</clipindex>
						<groupindex>1</groupindex>
					</link>
				</clipitem>
				<transitionitem id="625510024 ">
					<rate>
						<ntsc>FALSE</ntsc>
						<timebase>25</timebase>
					</rate>
					<start>38200</start>
					<end>38202</end>
					<alignment>center</alignment>
					<effect>
						<name>Cross Fade (+3dB) Copy</name>
						<effecttype>transition</effecttype>
						<mediatype>audio</mediatype>
					</effect>
				</transitionitem>
				<clipitem id="SkypeScreenSnapz001 19">
					<name>SkypeScreenSnapz001</name>
					<duration>9740</duration>
					<rate>
						<ntsc>FALSE</ntsc>
						<timebase>25</timebase>
					</rate>
					<in>3763</in>
					<out>4106</out>
					<start>-1</start>
					<end>-1</end>
					<enabled>TRUE</enabled>
					<logginginfo>
						<scene/>
						<shottake/>
						<lognote/>
						<good>FALSE</good>
					</logginginfo>
					<labels>
						<label2/>
					</labels>
					<comments>
						<mastercomment1/>
						<mastercomment2/>
						<mastercomment3/>
						<mastercomment4/>
					</comments>
					<file id="SkypeScreenSnapz001 1"/>
					<filter>
						<effect>
							<name>Audio Levels</name>
							<effectid>audiolevels</effectid>
							<effectcategory>audiolevels</effectcategory>
							<effecttype>audiolevels</effecttype>
							<mediatype>audio</mediatype>
							<parameter>
								<name>Level</name>
								<parameterid>level</parameterid>
								<valuemin>0</valuemin>
								<valuemax>3.98109</valuemax>
								<keyframe>
									<when>4070.43</when>
									<value>0.501187</value>
								</keyframe>
								<keyframe>
									<when>4077.5</when>
									<value>0.891251</value>
								</keyframe>
								<keyframe>
									<when>4091.64</when>
									<value>0.891251</value>
								</keyframe>
								<keyframe>
									<when>4094.54</when>
									<value>0.707946</value>
								</keyframe>
								<interpolation>
									<name>FCPCurve</name>
								</interpolation>
								<value>0.501187</value>
							</parameter>
						</effect>
					</filter>
					<filter>
						<effect>
							<name>Audio Pan</name>
							<effectid>audiopan</effectid>
							<effectcategory>audiopan</effectcategory>
							<effecttype>audiopan</effecttype>
							<mediatype>audio</mediatype>
							<parameter>
								<name>Pan</name>
								<parameterid>pan</parameterid>
								<valuemin>-1</valuemin>
								<valuemax>1</valuemax>
								<value>0</value>
							</parameter>
						</effect>
					</filter>
					<sourcetrack>
						<mediatype>audio</mediatype>
						<trackindex>1</trackindex>
					</sourcetrack>
					<link>
						<linkclipref>SkypeScreenSnapz001 19</linkclipref>
						<mediatype>audio</mediatype>
						<trackindex>3</trackindex>
						<clipindex>61</clipindex>
						<groupindex>1</groupindex>
					</link>
					<link>
						<linkclipref>SkypeScreenSnapz001 20</linkclipref>
						<mediatype>audio</mediatype>
						<trackindex>4</trackindex>
						<clipindex>73</clipindex>
						<groupindex>1</groupindex>
					</link>
				</clipitem>
				<transitionitem id="625508664 ">
					<rate>
						<ntsc>FALSE</ntsc>
						<timebase>25</timebase>
					</rate>
					<start>38537</start>
					<end>38543</end>
					<alignment>center</alignment>
					<effect>
						<name>Cross Fade (+3dB) Copy</name>
						<effecttype>transition</effecttype>
						<mediatype>audio</mediatype>
					</effect>
				</transitionitem>
				<clipitem id="SkypeScreenSnapz001 21">
					<name>SkypeScreenSnapz001</name>
					<duration>9740</duration>
					<rate>
						<ntsc>FALSE</ntsc>
						<timebase>25</timebase>
					</rate>
					<in>4277</in>
					<out>4437</out>
					<start>-1</start>
					<end>38697</end>
					<enabled>TRUE</enabled>
					<logginginfo>
						<scene/>
						<shottake/>
						<lognote/>
						<good>FALSE</good>
					</logginginfo>
					<labels>
						<label2/>
					</labels>
					<comments>
						<mastercomment1/>
						<mastercomment2/>
						<mastercomment3/>
						<mastercomment4/>
					</comments>
					<file id="SkypeScreenSnapz001 1"/>
					<filter>
						<effect>
							<name>Audio Levels</name>
							<effectid>audiolevels</effectid>
							<effectcategory>audiolevels</effectcategory>
							<effecttype>audiolevels</effecttype>
							<mediatype>audio</mediatype>
							<parameter>
								<name>Level</name>
								<parameterid>level</parameterid>
								<valuemin>0</valuemin>
								<valuemax>3.98109</valuemax>
								<keyframe>
									<when>4385.64</when>
									<value>0.0891251</value>
								</keyframe>
								<keyframe>
									<when>4391.11</when>
									<value>1</value>
								</keyframe>
								<keyframe>
									<when>4409.75</when>
									<value>1</value>
								</keyframe>
								<keyframe>
									<when>4413.29</when>
									<value>1</value>
								</keyframe>
								<interpolation>
									<name>FCPCurve</name>
								</interpolation>
								<value>1</value>
							</parameter>
						</effect>
					</filter>
					<filter>
						<effect>
							<name>Audio Pan</name>
							<effectid>audiopan</effectid>
							<effectcategory>audiopan</effectcategory>
							<effecttype>audiopan</effecttype>
							<mediatype>audio</mediatype>
							<parameter>
								<name>Pan</name>
								<parameterid>pan</parameterid>
								<valuemin>-1</valuemin>
								<valuemax>1</valuemax>
								<value>0</value>
							</parameter>
						</effect>
					</filter>
					<sourcetrack>
						<mediatype>audio</mediatype>
						<trackindex>1</trackindex>
					</sourcetrack>
					<link>
						<linkclipref>SkypeScreenSnapz001 21</linkclipref>
						<mediatype>audio</mediatype>
						<trackindex>3</trackindex>
						<clipindex>63</clipindex>
						<groupindex>1</groupindex>
					</link>
					<link>
						<linkclipref>SkypeScreenSnapz001 22</linkclipref>
						<mediatype>audio</mediatype>
						<trackindex>4</trackindex>
						<clipindex>75</clipindex>
						<groupindex>1</groupindex>
					</link>
				</clipitem>
				<clipitem id="SkypeScreenSnapz001 23">
					<name>SkypeScreenSnapz001</name>
					<duration>9740</duration>
					<rate>
						<ntsc>FALSE</ntsc>
						<timebase>25</timebase>
					</rate>
					<in>4760</in>
					<out>4854</out>
					<start>38697</start>
					<end>-1</end>
					<enabled>TRUE</enabled>
					<logginginfo>
						<scene/>
						<shottake/>
						<lognote/>
						<good>FALSE</good>
					</logginginfo>
					<labels>
						<label2/>
					</labels>
					<comments>
						<mastercomment1/>
						<mastercomment2/>
						<mastercomment3/>
						<mastercomment4/>
					</comments>
					<file id="SkypeScreenSnapz001 1"/>
					<filter>
						<effect>
							<name>Audio Levels</name>
							<effectid>audiolevels</effectid>
							<effectcategory>audiolevels</effectcategory>
							<effecttype>audiolevels</effecttype>
							<mediatype>audio</mediatype>
							<parameter>
								<name>Level</name>
								<parameterid>level</parameterid>
								<valuemin>0</valuemin>
								<valuemax>3.98109</valuemax>
								<keyframe>
									<when>4810.86</when>
									<value>1</value>
								</keyframe>
								<keyframe>
									<when>4815.52</when>
									<value>0</value>
								</keyframe>
								<interpolation>
									<name>FCPCurve</name>
								</interpolation>
								<value>1</value>
							</parameter>
						</effect>
					</filter>
					<filter>
						<effect>
							<name>Audio Pan</name>
							<effectid>audiopan</effectid>
							<effectcategory>audiopan</effectcategory>
							<effecttype>audiopan</effecttype>
							<mediatype>audio</mediatype>
							<parameter>
								<name>Pan</name>
								<parameterid>pan</parameterid>
								<valuemin>-1</valuemin>
								<valuemax>1</valuemax>
								<value>0</value>
							</parameter>
						</effect>
					</filter>
					<sourcetrack>
						<mediatype>audio</mediatype>
						<trackindex>1</trackindex>
					</sourcetrack>
					<link>
						<linkclipref>SkypeScreenSnapz001 23</linkclipref>
						<mediatype>audio</mediatype>
						<trackindex>3</trackindex>
						<clipindex>64</clipindex>
						<groupindex>1</groupindex>
					</link>
					<link>
						<linkclipref>SkypeScreenSnapz001 24</linkclipref>
						<mediatype>audio</mediatype>
						<trackindex>4</trackindex>
						<clipindex>76</clipindex>
						<groupindex>1</groupindex>
					</link>
				</clipitem>
				<transitionitem id="625506488 ">
					<rate>
						<ntsc>FALSE</ntsc>
						<timebase>25</timebase>
					</rate>
					<start>38785</start>
					<end>38791</end>
					<alignment>center</alignment>
					<effect>
						<name>Cross Fade (+3dB) Copy</name>
						<effecttype>transition</effecttype>
						<mediatype>audio</mediatype>
					</effect>
				</transitionitem>
				<clipitem id="SkypeScreenSnapz001 25">
					<name>SkypeScreenSnapz001</name>
					<duration>9740</duration>
					<rate>
						<ntsc>FALSE</ntsc>
						<timebase>25</timebase>
					</rate>
					<in>4887</in>
					<out>5162</out>
					<start>-1</start>
					<end>-1</end>
					<enabled>TRUE</enabled>
					<logginginfo>
						<scene/>
						<shottake/>
						<lognote/>
						<good>FALSE</good>
					</logginginfo>
					<labels>
						<label2/>
					</labels>
					<comments>
						<mastercomment1/>
						<mastercomment2/>
						<mastercomment3/>
						<mastercomment4/>
					</comments>
					<file id="SkypeScreenSnapz001 1"/>
					<filter>
						<effect>
							<name>Audio Levels</name>
							<effectid>audiolevels</effectid>
							<effectcategory>audiolevels</effectcategory>
							<effecttype>audiolevels</effecttype>
							<mediatype>audio</mediatype>
							<parameter>
								<name>Level</name>
								<parameterid>level</parameterid>
								<valuemin>0</valuemin>
								<valuemax>3.98109</valuemax>
								<value>1</value>
							</parameter>
						</effect>
					</filter>
					<filter>
						<effect>
							<name>Audio Pan</name>
							<effectid>audiopan</effectid>
							<effectcategory>audiopan</effectcategory>
							<effecttype>audiopan</effecttype>
							<mediatype>audio</mediatype>
							<parameter>
								<name>Pan</name>
								<parameterid>pan</parameterid>
								<valuemin>-1</valuemin>
								<valuemax>1</valuemax>
								<value>0</value>
							</parameter>
						</effect>
					</filter>
					<sourcetrack>
						<mediatype>audio</mediatype>
						<trackindex>1</trackindex>
					</sourcetrack>
					<link>
						<linkclipref>SkypeScreenSnapz001 25</linkclipref>
						<mediatype>audio</mediatype>
						<trackindex>3</trackindex>
						<clipindex>66</clipindex>
						<groupindex>1</groupindex>
					</link>
					<link>
						<linkclipref>SkypeScreenSnapz001 26</linkclipref>
						<mediatype>audio</mediatype>
						<trackindex>4</trackindex>
						<clipindex>78</clipindex>
						<groupindex>1</groupindex>
					</link>
				</clipitem>
				<transitionitem id="625506828 ">
					<rate>
						<ntsc>FALSE</ntsc>
						<timebase>25</timebase>
					</rate>
					<start>39054</start>
					<end>39060</end>
					<alignment>center</alignment>
					<effect>
						<name>Cross Fade (+3dB) Copy</name>
						<effecttype>transition</effecttype>
						<mediatype>audio</mediatype>
					</effect>
				</transitionitem>
				<clipitem id="SkypeScreenSnapz001 27">
					<name>SkypeScreenSnapz001</name>
					<duration>9740</duration>
					<rate>
						<ntsc>FALSE</ntsc>
						<timebase>25</timebase>
					</rate>
					<in>5187</in>
					<out>5351</out>
					<start>-1</start>
					<end>-1</end>
					<enabled>TRUE</enabled>
					<logginginfo>
						<scene/>
						<shottake/>
						<lognote/>
						<good>FALSE</good>
					</logginginfo>
					<labels>
						<label2/>
					</labels>
					<comments>
						<mastercomment1/>
						<mastercomment2/>
						<mastercomment3/>
						<mastercomment4/>
					</comments>
					<file id="SkypeScreenSnapz001 1"/>
					<filter>
						<effect>
							<name>Audio Levels</name>
							<effectid>audiolevels</effectid>
							<effectcategory>audiolevels</effectcategory>
							<effecttype>audiolevels</effecttype>
							<mediatype>audio</mediatype>
							<parameter>
								<name>Level</name>
								<parameterid>level</parameterid>
								<valuemin>0</valuemin>
								<valuemax>3.98109</valuemax>
								<keyframe>
									<when>5279.11</when>
									<value>1</value>
								</keyframe>
								<keyframe>
									<when>5282.96</when>
									<value>0.501187</value>
								</keyframe>
								<keyframe>
									<when>5292.61</when>
									<value>0.501187</value>
								</keyframe>
								<keyframe>
									<when>5296.14</when>
									<value>0.794328</value>
								</keyframe>
								<interpolation>
									<name>FCPCurve</name>
								</interpolation>
								<value>1</value>
							</parameter>
						</effect>
					</filter>
					<filter>
						<effect>
							<name>Audio Pan</name>
							<effectid>audiopan</effectid>
							<effectcategory>audiopan</effectcategory>
							<effecttype>audiopan</effecttype>
							<mediatype>audio</mediatype>
							<parameter>
								<name>Pan</name>
								<parameterid>pan</parameterid>
								<valuemin>-1</valuemin>
								<valuemax>1</valuemax>
								<value>0</value>
							</parameter>
						</effect>
					</filter>
					<sourcetrack>
						<mediatype>audio</mediatype>
						<trackindex>1</trackindex>
					</sourcetrack>
					<link>
						<linkclipref>SkypeScreenSnapz001 27</linkclipref>
						<mediatype>audio</mediatype>
						<trackindex>3</trackindex>
						<clipindex>68</clipindex>
						<groupindex>1</groupindex>
					</link>
					<link>
						<linkclipref>SkypeScreenSnapz001 28</linkclipref>
						<mediatype>audio</mediatype>
						<trackindex>4</trackindex>
						<clipindex>80</clipindex>
						<groupindex>1</groupindex>
					</link>
				</clipitem>
				<transitionitem id="625505672 ">
					<rate>
						<ntsc>FALSE</ntsc>
						<timebase>25</timebase>
					</rate>
					<start>39212</start>
					<end>39218</end>
					<alignment>center</alignment>
					<effect>
						<name>Cross Fade (+3dB) Copy</name>
						<effecttype>transition</effecttype>
						<mediatype>audio</mediatype>
					</effect>
				</transitionitem>
				<clipitem id="SkypeScreenSnapz001 29">
					<name>SkypeScreenSnapz001</name>
					<duration>9740</duration>
					<rate>
						<ntsc>FALSE</ntsc>
						<timebase>25</timebase>
					</rate>
					<in>9152</in>
					<out>9377</out>
					<start>-1</start>
					<end>-1</end>
					<enabled>TRUE</enabled>
					<logginginfo>
						<scene/>
						<shottake/>
						<lognote/>
						<good>FALSE</good>
					</logginginfo>
					<labels>
						<label2/>
					</labels>
					<comments>
						<mastercomment1/>
						<mastercomment2/>
						<mastercomment3/>
						<mastercomment4/>
					</comments>
					<file id="SkypeScreenSnapz001 1"/>
					<filter>
						<effect>
							<name>Audio Levels</name>
							<effectid>audiolevels</effectid>
							<effectcategory>audiolevels</effectcategory>
							<effecttype>audiolevels</effecttype>
							<mediatype>audio</mediatype>
							<parameter>
								<name>Level</name>
								<parameterid>level</parameterid>
								<valuemin>0</valuemin>
								<valuemax>3.98109</valuemax>
								<keyframe>
									<when>9193.3</when>
									<value>1</value>
								</keyframe>
								<keyframe>
									<when>9195.71</when>
									<value>1.25893</value>
								</keyframe>
								<keyframe>
									<when>9210.98</when>
									<value>1.25893</value>
								</keyframe>
								<keyframe>
									<when>9214.84</when>
									<value>1</value>
								</keyframe>
								<keyframe>
									<when>9259.68</when>
									<value>1</value>
								</keyframe>
								<keyframe>
									<when>9265.62</when>
									<value>0.707946</value>
								</keyframe>
								<keyframe>
									<when>9309.18</when>
									<value>0.707946</value>
								</keyframe>
								<keyframe>
									<when>9312.55</when>
									<value>0.501187</value>
								</keyframe>
								<interpolation>
									<name>FCPCurve</name>
								</interpolation>
								<value>1</value>
							</parameter>
						</effect>
					</filter>
					<filter>
						<effect>
							<name>Audio Pan</name>
							<effectid>audiopan</effectid>
							<effectcategory>audiopan</effectcategory>
							<effecttype>audiopan</effecttype>
							<mediatype>audio</mediatype>
							<parameter>
								<name>Pan</name>
								<parameterid>pan</parameterid>
								<valuemin>-1</valuemin>
								<valuemax>1</valuemax>
								<value>0</value>
							</parameter>
						</effect>
					</filter>
					<sourcetrack>
						<mediatype>audio</mediatype>
						<trackindex>1</trackindex>
					</sourcetrack>
					<link>
						<linkclipref>SkypeScreenSnapz001 29</linkclipref>
						<mediatype>audio</mediatype>
						<trackindex>3</trackindex>
						<clipindex>70</clipindex>
						<groupindex>1</groupindex>
					</link>
					<link>
						<linkclipref>SkypeScreenSnapz001 30</linkclipref>
						<mediatype>audio</mediatype>
						<trackindex>4</trackindex>
						<clipindex>82</clipindex>
						<groupindex>1</groupindex>
					</link>
				</clipitem>
				<transitionitem id="625745280 ">
					<rate>
						<ntsc>FALSE</ntsc>
						<timebase>25</timebase>
					</rate>
					<start>39431</start>
					<end>39437</end>
					<alignment>end-black</alignment>
					<effect>
						<name>Cross Fade (+3dB) Copy</name>
						<effecttype>transition</effecttype>
						<mediatype>audio</mediatype>
					</effect>
				</transitionitem>
				<transitionitem id="625741676 ">
					<rate>
						<ntsc>FALSE</ntsc>
						<timebase>25</timebase>
					</rate>
					<start>39832</start>
					<end>39838</end>
					<alignment>start-black</alignment>
					<effect>
						<name>Cross Fade (+3dB) Copy</name>
						<effecttype>transition</effecttype>
						<mediatype>audio</mediatype>
					</effect>
				</transitionitem>
				<clipitem id="msub200012-0409d2k1006 4">
					<name>msub200012-0409d2k1006</name>
					<duration>1289</duration>
					<rate>
						<ntsc>FALSE</ntsc>
						<timebase>25</timebase>
					</rate>
					<in>723</in>
					<out>1023</out>
					<start>-1</start>
					<end>-1</end>
					<subframeoffset>0</subframeoffset>
					<enabled>TRUE</enabled>
					<masterclipid>msub200012-0409d2k1006 1</masterclipid>
					<syncoffset>0</syncoffset>
					<logginginfo>
						<description>msub200012-0409d2k1006</description>
						<scene/>
						<shottake/>
						<lognote/>
						<good>FALSE</good>
					</logginginfo>
					<labels>
						<label>Good Take</label>
						<label2/>
					</labels>
					<comments>
						<mastercomment1>RÅSTOFF. BR_FINFREDAG_MSUA_OPRO</mastercomment1>
						<mastercomment2/>
						<mastercomment3/>
						<mastercomment4/>
					</comments>
					<file id="msub200012-0409d2k1006 2"/>
					<filter>
						<effect>
							<name>Audio Levels</name>
							<effectid>audiolevels</effectid>
							<effectcategory>audiolevels</effectcategory>
							<effecttype>audiolevels</effecttype>
							<mediatype>audio</mediatype>
							<parameter>
								<name>Level</name>
								<parameterid>level</parameterid>
								<valuemin>0</valuemin>
								<valuemax>3.98109</valuemax>
								<keyframe>
									<when>772.75</when>
									<value>0.446684</value>
								</keyframe>
								<keyframe>
									<when>781</when>
									<value>0.158489</value>
								</keyframe>
								<keyframe>
									<when>871.75</when>
									<value>0.158489</value>
								</keyframe>
								<keyframe>
									<when>882.75</when>
									<value>0.501187</value>
								</keyframe>
								<keyframe>
									<when>994.125</when>
									<value>0.501187</value>
								</keyframe>
								<keyframe>
									<when>1017.29</when>
									<value>0.398107</value>
								</keyframe>
								<interpolation>
									<name>FCPCurve</name>
								</interpolation>
								<value>0.446684</value>
							</parameter>
						</effect>
					</filter>
					<filter>
						<effect>
							<name>Audio Pan</name>
							<effectid>audiopan</effectid>
							<effectcategory>audiopan</effectcategory>
							<effecttype>audiopan</effecttype>
							<mediatype>audio</mediatype>
							<parameter>
								<name>Pan</name>
								<parameterid>pan</parameterid>
								<valuemin>-1</valuemin>
								<valuemax>1</valuemax>
								<value>0</value>
							</parameter>
						</effect>
					</filter>
					<sourcetrack>
						<mediatype>audio</mediatype>
						<trackindex>3</trackindex>
					</sourcetrack>
					<link>
						<linkclipref>msub200012-0409d2k1006 </linkclipref>
						<mediatype>audio</mediatype>
						<trackindex>1</trackindex>
						<clipindex>143</clipindex>
					</link>
					<link>
						<linkclipref>msub200012-0409d2k1006 3</linkclipref>
						<mediatype>audio</mediatype>
						<trackindex>2</trackindex>
						<clipindex>172</clipindex>
					</link>
					<link>
						<linkclipref>msub200012-0409d2k1006 4</linkclipref>
						<mediatype>audio</mediatype>
						<trackindex>3</trackindex>
						<clipindex>73</clipindex>
					</link>
				</clipitem>
				<transitionitem id="14">
					<rate>
						<ntsc>FALSE</ntsc>
						<timebase>25</timebase>
					</rate>
					<start>40116</start>
					<end>40132</end>
					<alignment>center</alignment>
					<effect>
						<name>Cross Fade (+3dB) Copy</name>
						<effecttype>transition</effecttype>
						<mediatype>audio</mediatype>
					</effect>
				</transitionitem>
				<clipitem id="Swish Lo 3 ">
					<name>Swish Lo 3</name>
					<duration>6</duration>
					<rate>
						<ntsc>FALSE</ntsc>
						<timebase>25</timebase>
					</rate>
					<in>0</in>
					<out>6</out>
					<start>40142</start>
					<end>40148</end>
					<enabled>TRUE</enabled>
					<masterclipid>Swish Lo 3 1</masterclipid>
					<logginginfo>
						<scene/>
						<shottake/>
						<lognote/>
						<good>FALSE</good>
					</logginginfo>
					<labels>
						<label2/>
					</labels>
					<comments>
						<mastercomment1/>
						<mastercomment2/>
						<mastercomment3/>
						<mastercomment4/>
					</comments>
					<file id="Swish Lo 3 2">
						<name>Swish Lo 3</name>
						<pathurl>file://localhost/Volumes/SuperSAN1/Prosjekter/MSUB20000012%20FIN%20FREDAG/SFX/Svisj/Swish%20Lo%203</pathurl>
						<rate>
							<timebase>25</timebase>
						</rate>
						<duration>12</duration>
						<media>
							<audio>
								<rate>
									<timebase>44100</timebase>
								</rate>
								<trackcount>1</trackcount>
								<samplecharacteristics>
									<depth>16</depth>
								</samplecharacteristics>
							</audio>
						</media>
					</file>
					<filter>
						<enabled>TRUE</enabled>
						<start>-1</start>
						<end>-1</end>
						<effect>
							<name>3 Band Equalizer</name>
							<effecttype>filter</effecttype>
							<mediatype>audio</mediatype>
							<parameter>
								<parameterid>Low Frequency</parameterid>
								<name>Low Frequency</name>
								<valuemin>80</valuemin>
								<valuemax>2000</valuemax>
								<value>236</value>
							</parameter>
							<parameter>
								<parameterid>Low Gain(dB)</parameterid>
								<name>Low Gain(dB)</name>
								<valuemin>-20</valuemin>
								<valuemax>20</valuemax>
								<value>-9</value>
							</parameter>
							<parameter>
								<parameterid>Mid Frequency</parameterid>
								<name>Mid Frequency</name>
								<valuemin>400</valuemin>
								<valuemax>8000</valuemax>
								<value>6049</value>
							</parameter>
							<parameter>
								<parameterid>Mid Gain(dB)</parameterid>
								<name>Mid Gain(dB)</name>
								<valuemin>-20</valuemin>
								<valuemax>20</valuemax>
								<value>5</value>
							</parameter>
							<parameter>
								<parameterid>High Frequency</parameterid>
								<name>High Frequency</name>
								<valuemin>5000</valuemin>
								<valuemax>20000</valuemax>
								<value>10000</value>
							</parameter>
							<parameter>
								<parameterid>High Gain(dB)</parameterid>
								<name>High Gain(dB)</name>
								<valuemin>-20</valuemin>
								<valuemax>20</valuemax>
								<value>0</value>
							</parameter>
						</effect>
					</filter>
					<filter>
						<effect>
							<name>Audio Levels</name>
							<effectid>audiolevels</effectid>
							<effectcategory>audiolevels</effectcategory>
							<effecttype>audiolevels</effecttype>
							<mediatype>audio</mediatype>
							<parameter>
								<name>Level</name>
								<parameterid>level</parameterid>
								<valuemin>0</valuemin>
								<valuemax>3.98109</valuemax>
								<value>0.501187</value>
							</parameter>
						</effect>
					</filter>
					<filter>
						<effect>
							<name>Audio Pan</name>
							<effectid>audiopan</effectid>
							<effectcategory>audiopan</effectcategory>
							<effecttype>audiopan</effecttype>
							<mediatype>audio</mediatype>
							<parameter>
								<name>Pan</name>
								<parameterid>pan</parameterid>
								<valuemin>-1</valuemin>
								<valuemax>1</valuemax>
								<value>0</value>
							</parameter>
						</effect>
					</filter>
					<sourcetrack>
						<mediatype>audio</mediatype>
						<trackindex>1</trackindex>
					</sourcetrack>
					<filter>
						<effect>
							<name>Time Remap</name>
							<effectid>timeremap</effectid>
							<effectcategory>motion</effectcategory>
							<effecttype>motion</effecttype>
							<mediatype>audio</mediatype>
							<parameter>
								<parameterid>variablespeed</parameterid>
								<name>variablespeed</name>
								<valuemin>0</valuemin>
								<valuemax>1</valuemax>
								<value>0</value>
							</parameter>
							<parameter>
								<parameterid>mappedduration</parameterid>
								<name>mappedduration</name>
								<value>
									<timecode>
										<rate>
											<timebase>0</timebase>
										</rate>
										<string>0</string>
										<frame>0</frame>
										<displayformat>NDF</displayformat>
									</timecode>
								</value>
							</parameter>
							<parameter>
								<parameterid>speed</parameterid>
								<name>speed</name>
								<valuemin>-10000</valuemin>
								<valuemax>10000</valuemax>
								<value>220</value>
							</parameter>
							<parameter>
								<parameterid>reverse</parameterid>
								<name>reverse</name>
								<value>FALSE</value>
							</parameter>
							<parameter>
								<parameterid>frameblending</parameterid>
								<name>frameblending</name>
								<value>TRUE</value>
							</parameter>
							<parameter>
								<parameterid>graphdict</parameterid>
								<name>graphdict</name>
								<valuemin>0</valuemin>
								<valuemax>11</valuemax>
								<keyframe>
									<when>0</when>
									<value>0</value>
									<speedkfin>TRUE</speedkfin>
								</keyframe>
								<keyframe>
									<when>6</when>
									<value>12</value>
									<speedkfout>TRUE</speedkfout>
									<speedvirtualkf>TRUE</speedvirtualkf>
								</keyframe>
								<interpolation>
									<name>FCPCurve</name>
								</interpolation>
								<value>0</value>
							</parameter>
						</effect>
					</filter>
				</clipitem>
				<clipitem id="Zipper Jacket 2.aif2">
					<name>Zipper Jacket 2.aif</name>
					<duration>14</duration>
					<rate>
						<ntsc>FALSE</ntsc>
						<timebase>25</timebase>
					</rate>
					<in>8</in>
					<out>14</out>
					<start>40207</start>
					<end>40213</end>
					<masterclipid>Zipper Jacket 2.aif1</masterclipid>
					<logginginfo>
						<scene/>
						<shottake/>
						<lognote/>
						<good>FALSE</good>
					</logginginfo>
					<labels>
						<label2/>
					</labels>
					<comments>
						<mastercomment1/>
						<mastercomment2/>
						<mastercomment3/>
						<mastercomment4/>
					</comments>
					<file id="Zipper Jacket 2 "/>
					<filter>
						<effect>
							<name>Audio Levels</name>
							<effectid>audiolevels</effectid>
							<effectcategory>audiolevels</effectcategory>
							<effecttype>audiolevels</effecttype>
							<mediatype>audio</mediatype>
							<parameter>
								<name>Level</name>
								<parameterid>level</parameterid>
								<valuemin>0</valuemin>
								<valuemax>3.98109</valuemax>
								<value>0.158489</value>
							</parameter>
						</effect>
					</filter>
					<filter>
						<effect>
							<name>Audio Pan</name>
							<effectid>audiopan</effectid>
							<effectcategory>audiopan</effectcategory>
							<effecttype>audiopan</effecttype>
							<mediatype>audio</mediatype>
							<parameter>
								<name>Pan</name>
								<parameterid>pan</parameterid>
								<valuemin>-1</valuemin>
								<valuemax>1</valuemax>
								<value>1</value>
							</parameter>
						</effect>
					</filter>
					<sourcetrack>
						<mediatype>audio</mediatype>
						<trackindex>2</trackindex>
					</sourcetrack>
					<link>
						<linkclipref>Zipper Jacket 2.aif</linkclipref>
						<mediatype>audio</mediatype>
						<trackindex>2</trackindex>
						<clipindex>175</clipindex>
						<groupindex>1</groupindex>
					</link>
					<link>
						<linkclipref>Zipper Jacket 2.aif2</linkclipref>
						<mediatype>audio</mediatype>
						<trackindex>3</trackindex>
						<clipindex>76</clipindex>
						<groupindex>1</groupindex>
					</link>
					<filter>
						<effect>
							<name>Time Remap</name>
							<effectid>timeremap</effectid>
							<effectcategory>motion</effectcategory>
							<effecttype>motion</effecttype>
							<mediatype>audio</mediatype>
							<parameter>
								<parameterid>variablespeed</parameterid>
								<name>variablespeed</name>
								<valuemin>0</valuemin>
								<valuemax>1</valuemax>
								<value>0</value>
							</parameter>
							<parameter>
								<parameterid>mappedduration</parameterid>
								<name>mappedduration</name>
								<value>
									<timecode>
										<rate>
											<timebase>0</timebase>
										</rate>
										<string>0</string>
										<frame>0</frame>
										<displayformat>NDF</displayformat>
									</timecode>
								</value>
							</parameter>
							<parameter>
								<parameterid>speed</parameterid>
								<name>speed</name>
								<valuemin>-10000</valuemin>
								<valuemax>10000</valuemax>
								<value>276</value>
							</parameter>
							<parameter>
								<parameterid>reverse</parameterid>
								<name>reverse</name>
								<value>TRUE</value>
							</parameter>
							<parameter>
								<parameterid>frameblending</parameterid>
								<name>frameblending</name>
								<value>TRUE</value>
							</parameter>
							<parameter>
								<parameterid>graphdict</parameterid>
								<name>graphdict</name>
								<valuemin>0</valuemin>
								<valuemax>36</valuemax>
								<keyframe>
									<when>0</when>
									<value>40.1538</value>
									<speedkfstart>TRUE</speedkfstart>
									<speedvirtualkf>TRUE</speedvirtualkf>
								</keyframe>
								<keyframe>
									<when>8</when>
									<value>17</value>
									<speedkfin>TRUE</speedkfin>
									<speedvirtualkf>TRUE</speedvirtualkf>
								</keyframe>
								<keyframe>
									<when>14</when>
									<value>3.1538</value>
									<speedkfout>TRUE</speedkfout>
									<speedvirtualkf>TRUE</speedvirtualkf>
								</keyframe>
								<interpolation>
									<name>FCPCurve</name>
								</interpolation>
								<value>16</value>
							</parameter>
						</effect>
					</filter>
				</clipitem>
				<clipitem id="Swish Lo 5 3">
					<name>Swish Lo 5</name>
					<duration>7</duration>
					<rate>
						<ntsc>FALSE</ntsc>
						<timebase>25</timebase>
					</rate>
					<in>0</in>
					<out>7</out>
					<start>40343</start>
					<end>40350</end>
					<enabled>TRUE</enabled>
					<masterclipid>Swish Lo 5 1</masterclipid>
					<logginginfo>
						<scene/>
						<shottake/>
						<lognote/>
						<good>FALSE</good>
					</logginginfo>
					<labels>
						<label2/>
					</labels>
					<comments>
						<mastercomment1/>
						<mastercomment2/>
						<mastercomment3/>
						<mastercomment4/>
					</comments>
					<file id="Swish Lo 5 2"/>
					<filter>
						<effect>
							<name>Audio Levels</name>
							<effectid>audiolevels</effectid>
							<effectcategory>audiolevels</effectcategory>
							<effecttype>audiolevels</effecttype>
							<mediatype>audio</mediatype>
							<parameter>
								<name>Level</name>
								<parameterid>level</parameterid>
								<valuemin>0</valuemin>
								<valuemax>3.98109</valuemax>
								<value>0.281838</value>
							</parameter>
						</effect>
					</filter>
					<filter>
						<effect>
							<name>Audio Pan</name>
							<effectid>audiopan</effectid>
							<effectcategory>audiopan</effectcategory>
							<effecttype>audiopan</effecttype>
							<mediatype>audio</mediatype>
							<parameter>
								<name>Pan</name>
								<parameterid>pan</parameterid>
								<valuemin>-1</valuemin>
								<valuemax>1</valuemax>
								<value>0</value>
							</parameter>
						</effect>
					</filter>
					<sourcetrack>
						<mediatype>audio</mediatype>
						<trackindex>1</trackindex>
					</sourcetrack>
					<filter>
						<effect>
							<name>Time Remap</name>
							<effectid>timeremap</effectid>
							<effectcategory>motion</effectcategory>
							<effecttype>motion</effecttype>
							<mediatype>audio</mediatype>
							<parameter>
								<parameterid>variablespeed</parameterid>
								<name>variablespeed</name>
								<valuemin>0</valuemin>
								<valuemax>1</valuemax>
								<value>0</value>
							</parameter>
							<parameter>
								<parameterid>mappedduration</parameterid>
								<name>mappedduration</name>
								<value>
									<timecode>
										<rate>
											<timebase>0</timebase>
										</rate>
										<string>0</string>
										<frame>0</frame>
										<displayformat>NDF</displayformat>
									</timecode>
								</value>
							</parameter>
							<parameter>
								<parameterid>speed</parameterid>
								<name>speed</name>
								<valuemin>-10000</valuemin>
								<valuemax>10000</valuemax>
								<value>233</value>
							</parameter>
							<parameter>
								<parameterid>reverse</parameterid>
								<name>reverse</name>
								<value>TRUE</value>
							</parameter>
							<parameter>
								<parameterid>frameblending</parameterid>
								<name>frameblending</name>
								<value>TRUE</value>
							</parameter>
							<parameter>
								<parameterid>graphdict</parameterid>
								<name>graphdict</name>
								<valuemin>0</valuemin>
								<valuemax>14</valuemax>
								<keyframe>
									<when>0</when>
									<value>16</value>
									<speedkfin>TRUE</speedkfin>
								</keyframe>
								<keyframe>
									<when>7</when>
									<value>1</value>
									<speedkfout>TRUE</speedkfout>
									<speedvirtualkf>TRUE</speedvirtualkf>
								</keyframe>
								<interpolation>
									<name>FCPCurve</name>
								</interpolation>
								<value>14</value>
							</parameter>
						</effect>
					</filter>
				</clipitem>
				<transitionitem id="625738208 ">
					<rate>
						<ntsc>FALSE</ntsc>
						<timebase>25</timebase>
					</rate>
					<start>41389</start>
					<end>41393</end>
					<alignment>start-black</alignment>
					<effect>
						<name>Cross Fade (+3dB) Copy</name>
						<effecttype>transition</effecttype>
						<mediatype>audio</mediatype>
					</effect>
				</transitionitem>
				<clipitem id="AUXMP_ISCD020302.mp3 ">
					<name>AUXMP_ISCD020302.mp3</name>
					<duration>3908</duration>
					<rate>
						<ntsc>FALSE</ntsc>
						<timebase>25</timebase>
					</rate>
					<in>1988</in>
					<out>2799</out>
					<start>-1</start>
					<end>-1</end>
					<subframeoffset>0</subframeoffset>
					<masterclipid>AUXMP_ISCD020302.mp3 1</masterclipid>
					<logginginfo>
						<scene/>
						<shottake/>
						<lognote/>
						<good>FALSE</good>
					</logginginfo>
					<labels>
						<label2/>
					</labels>
					<comments>
						<mastercomment1/>
						<mastercomment2/>
						<mastercomment3/>
						<mastercomment4/>
					</comments>
					<file id="AUXMP_ISCD020302 ">
						<name>AUXMP_ISCD020302.mp3</name>
						<pathurl>file://localhost/Volumes/SuperSAN1/Prosjekter/MSUB20000012%20FIN%20FREDAG/FCP-prosjekter/Tante-Taco/Musikk/AUXMP_ISCD020302.mp3</pathurl>
						<rate>
							<timebase>25</timebase>
						</rate>
						<duration>3908</duration>
						<media>
							<audio>
								<rate>
									<timebase>44100</timebase>
								</rate>
								<trackcount>2</trackcount>
								<samplecharacteristics>
									<depth>32</depth>
								</samplecharacteristics>
							</audio>
						</media>
					</file>
					<filter>
						<effect>
							<name>Audio Levels</name>
							<effectid>audiolevels</effectid>
							<effectcategory>audiolevels</effectcategory>
							<effecttype>audiolevels</effecttype>
							<mediatype>audio</mediatype>
							<parameter>
								<name>Level</name>
								<parameterid>level</parameterid>
								<valuemin>0</valuemin>
								<valuemax>3.98109</valuemax>
								<keyframe>
									<when>2119</when>
									<value>0.158489</value>
								</keyframe>
								<keyframe>
									<when>2166.5</when>
									<value>0.0891251</value>
								</keyframe>
								<keyframe>
									<when>2360</when>
									<value>0.0891251</value>
								</keyframe>
								<keyframe>
									<when>2422</when>
									<value>0.199526</value>
								</keyframe>
								<keyframe>
									<when>2708.18</when>
									<value>0.158489</value>
								</keyframe>
								<keyframe>
									<when>2766.68</when>
									<value>0.0891251</value>
								</keyframe>
								<keyframe>
									<when>2939.21</when>
									<value>0.158489</value>
								</keyframe>
								<keyframe>
									<when>2964.32</when>
									<value>0.0891251</value>
								</keyframe>
								<interpolation>
									<name>FCPCurve</name>
								</interpolation>
								<value>0.158489</value>
							</parameter>
						</effect>
					</filter>
					<filter>
						<effect>
							<name>Audio Pan</name>
							<effectid>audiopan</effectid>
							<effectcategory>audiopan</effectcategory>
							<effecttype>audiopan</effecttype>
							<mediatype>audio</mediatype>
							<parameter>
								<name>Pan</name>
								<parameterid>pan</parameterid>
								<valuemin>-1</valuemin>
								<valuemax>1</valuemax>
								<value>-1</value>
							</parameter>
						</effect>
					</filter>
					<sourcetrack>
						<mediatype>audio</mediatype>
						<trackindex>1</trackindex>
					</sourcetrack>
					<link>
						<linkclipref>AUXMP_ISCD020302.mp3 </linkclipref>
						<mediatype>audio</mediatype>
						<trackindex>3</trackindex>
						<clipindex>79</clipindex>
						<groupindex>1</groupindex>
					</link>
					<link>
						<linkclipref>AUXMP_ISCD020302.mp3 2</linkclipref>
						<mediatype>audio</mediatype>
						<trackindex>4</trackindex>
						<clipindex>85</clipindex>
						<groupindex>1</groupindex>
					</link>
				</clipitem>
				<transitionitem id="15">
					<rate>
						<ntsc>FALSE</ntsc>
						<timebase>25</timebase>
					</rate>
					<start>42100</start>
					<end>42200</end>
					<alignment>end-black</alignment>
					<effect>
						<name>Cross Fade (+3dB) Copy</name>
						<effecttype>transition</effecttype>
						<mediatype>audio</mediatype>
					</effect>
				</transitionitem>
				<enabled>TRUE</enabled>
				<locked>FALSE</locked>
				<outputchannelindex>1</outputchannelindex>
			</track>
			<track>
				<clipitem id="Fin Fredag Vignett - NY.wav2">
					<name>Fin Fredag Vignett - NY.wav</name>
					<duration>1590</duration>
					<rate>
						<ntsc>FALSE</ntsc>
						<timebase>25</timebase>
					</rate>
					<in>1454</in>
					<out>1590</out>
					<start>969</start>
					<end>-1</end>
					<subframeoffset>0</subframeoffset>
					<masterclipid>Fin Fredag Vignett - NY.wav1</masterclipid>
					<logginginfo>
						<scene/>
						<shottake/>
						<lognote/>
						<good>FALSE</good>
					</logginginfo>
					<labels>
						<label2/>
					</labels>
					<comments>
						<mastercomment1/>
						<mastercomment2/>
						<mastercomment3/>
						<mastercomment4/>
					</comments>
					<file id="Fin Fredag Vignett - NY"/>
					<filter>
						<effect>
							<name>Audio Levels</name>
							<effectid>audiolevels</effectid>
							<effectcategory>audiolevels</effectcategory>
							<effecttype>audiolevels</effecttype>
							<mediatype>audio</mediatype>
							<parameter>
								<name>Level</name>
								<parameterid>level</parameterid>
								<valuemin>0</valuemin>
								<valuemax>3.98109</valuemax>
								<value>0.315057</value>
							</parameter>
						</effect>
					</filter>
					<filter>
						<effect>
							<name>Audio Pan</name>
							<effectid>audiopan</effectid>
							<effectcategory>audiopan</effectcategory>
							<effecttype>audiopan</effecttype>
							<mediatype>audio</mediatype>
							<parameter>
								<name>Pan</name>
								<parameterid>pan</parameterid>
								<valuemin>-1</valuemin>
								<valuemax>1</valuemax>
								<value>1</value>
							</parameter>
						</effect>
					</filter>
					<sourcetrack>
						<mediatype>audio</mediatype>
						<trackindex>2</trackindex>
					</sourcetrack>
					<link>
						<linkclipref>Fin Fredag Vignett - NY.wav</linkclipref>
						<mediatype>audio</mediatype>
						<trackindex>3</trackindex>
						<clipindex>1</clipindex>
						<groupindex>1</groupindex>
					</link>
					<link>
						<linkclipref>Fin Fredag Vignett - NY.wav2</linkclipref>
						<mediatype>audio</mediatype>
						<trackindex>4</trackindex>
						<clipindex>1</clipindex>
						<groupindex>1</groupindex>
					</link>
				</clipitem>
				<transitionitem id="625730728 ">
					<rate>
						<ntsc>FALSE</ntsc>
						<timebase>25</timebase>
					</rate>
					<start>1099</start>
					<end>1105</end>
					<alignment>end-black</alignment>
					<effect>
						<name>Cross Fade (+3dB) Copy</name>
						<effecttype>transition</effecttype>
						<mediatype>audio</mediatype>
					</effect>
				</transitionitem>
				<transitionitem id="625730388 ">
					<rate>
						<ntsc>FALSE</ntsc>
						<timebase>25</timebase>
					</rate>
					<start>1821</start>
					<end>1827</end>
					<alignment>start-black</alignment>
					<effect>
						<name>Cross Fade (+3dB) Copy</name>
						<effecttype>transition</effecttype>
						<mediatype>audio</mediatype>
					</effect>
				</transitionitem>
				<clipitem id="Stråling.wav">
					<name>Stråling.wav</name>
					<duration>618</duration>
					<rate>
						<ntsc>FALSE</ntsc>
						<timebase>25</timebase>
					</rate>
					<in>30</in>
					<out>45</out>
					<start>-1</start>
					<end>-1</end>
					<subframeoffset>0</subframeoffset>
					<enabled>TRUE</enabled>
					<masterclipid>Stråling.wav1</masterclipid>
					<logginginfo>
						<scene/>
						<shottake/>
						<lognote/>
						<good>FALSE</good>
					</logginginfo>
					<labels>
						<label2/>
					</labels>
					<comments>
						<mastercomment1/>
						<mastercomment2/>
						<mastercomment3/>
						<mastercomment4/>
					</comments>
					<file id="Stråling">
						<name>Stråling.wav</name>
						<pathurl>file://localhost/Volumes/SuperSAN1/Prosjekter/MSUB20000012%20FIN%20FREDAG/Profil-grafikk/Lyd/Stra%CC%8Aling.wav</pathurl>
						<rate>
							<timebase>25</timebase>
						</rate>
						<duration>618</duration>
						<timecode>
							<rate>
								<timebase>25</timebase>
							</rate>
							<string>00:09:20:12</string>
							<frame>14012</frame>
							<displayformat>NDF</displayformat>
							<source>source</source>
						</timecode>
						<media>
							<audio>
								<rate>
									<timebase>48000</timebase>
								</rate>
								<trackcount>2</trackcount>
								<samplecharacteristics>
									<depth>24</depth>
								</samplecharacteristics>
							</audio>
						</media>
					</file>
					<filter>
						<effect>
							<name>Audio Levels</name>
							<effectid>audiolevels</effectid>
							<effectcategory>audiolevels</effectcategory>
							<effecttype>audiolevels</effecttype>
							<mediatype>audio</mediatype>
							<parameter>
								<name>Level</name>
								<parameterid>level</parameterid>
								<valuemin>0</valuemin>
								<valuemax>3.98109</valuemax>
								<value>0.141254</value>
							</parameter>
						</effect>
					</filter>
					<filter>
						<effect>
							<name>Audio Pan</name>
							<effectid>audiopan</effectid>
							<effectcategory>audiopan</effectcategory>
							<effecttype>audiopan</effecttype>
							<mediatype>audio</mediatype>
							<parameter>
								<name>Pan</name>
								<parameterid>pan</parameterid>
								<valuemin>-1</valuemin>
								<valuemax>1</valuemax>
								<value>-1</value>
							</parameter>
						</effect>
					</filter>
					<sourcetrack>
						<mediatype>audio</mediatype>
						<trackindex>1</trackindex>
					</sourcetrack>
					<link>
						<linkclipref>Stråling.wav</linkclipref>
						<mediatype>audio</mediatype>
						<trackindex>4</trackindex>
						<clipindex>4</clipindex>
						<groupindex>1</groupindex>
					</link>
					<link>
						<linkclipref>Stråling.wav2</linkclipref>
						<mediatype>audio</mediatype>
						<trackindex>5</trackindex>
						<clipindex>3</clipindex>
						<groupindex>1</groupindex>
					</link>
				</clipitem>
				<transitionitem id="625729708 ">
					<rate>
						<ntsc>FALSE</ntsc>
						<timebase>25</timebase>
					</rate>
					<start>1834</start>
					<end>1836</end>
					<alignment>end-black</alignment>
					<effect>
						<name>Cross Fade (+3dB) Copy</name>
						<effecttype>transition</effecttype>
						<mediatype>audio</mediatype>
					</effect>
				</transitionitem>
				<clipitem id="msub200012-0409d2k1002 26">
					<name>msub200012-0409d2k1002</name>
					<duration>10180</duration>
					<rate>
						<ntsc>FALSE</ntsc>
						<timebase>25</timebase>
					</rate>
					<in>2422</in>
					<out>2606</out>
					<start>5016</start>
					<end>-1</end>
					<subframeoffset>0</subframeoffset>
					<enabled>TRUE</enabled>
					<masterclipid>msub200012-0409d2k1002 1</masterclipid>
					<syncoffset>0</syncoffset>
					<logginginfo>
						<description>msub200012-0409d2k1002</description>
						<scene/>
						<shottake/>
						<lognote/>
						<good>FALSE</good>
					</logginginfo>
					<labels>
						<label>Best Take</label>
						<label2/>
					</labels>
					<comments>
						<mastercomment1>RÅSTOFF. BR_FINFREDAG_MSUA_OPRO</mastercomment1>
						<mastercomment2/>
						<mastercomment3/>
						<mastercomment4/>
					</comments>
					<file id="msub200012-0409d2k1002 2"/>
					<filter>
						<enabled>TRUE</enabled>
						<start>-1</start>
						<end>-1</end>
						<effect>
							<name>3 Band Equalizer - Kristine</name>
							<effecttype>filter</effecttype>
							<mediatype>audio</mediatype>
							<parameter>
								<parameterid>Low Frequency</parameterid>
								<name>Low Frequency</name>
								<valuemin>80</valuemin>
								<valuemax>2000</valuemax>
								<value>80</value>
							</parameter>
							<parameter>
								<parameterid>Low Gain(dB)</parameterid>
								<name>Low Gain(dB)</name>
								<valuemin>-20</valuemin>
								<valuemax>20</valuemax>
								<value>-4</value>
							</parameter>
							<parameter>
								<parameterid>Mid Frequency</parameterid>
								<name>Mid Frequency</name>
								<valuemin>400</valuemin>
								<valuemax>8000</valuemax>
								<value>3602</value>
							</parameter>
							<parameter>
								<parameterid>Mid Gain(dB)</parameterid>
								<name>Mid Gain(dB)</name>
								<valuemin>-20</valuemin>
								<valuemax>20</valuemax>
								<value>3</value>
							</parameter>
							<parameter>
								<parameterid>High Frequency</parameterid>
								<name>High Frequency</name>
								<valuemin>5000</valuemin>
								<valuemax>20000</valuemax>
								<value>10354</value>
							</parameter>
							<parameter>
								<parameterid>High Gain(dB)</parameterid>
								<name>High Gain(dB)</name>
								<valuemin>-20</valuemin>
								<valuemax>20</valuemax>
								<value>0</value>
							</parameter>
						</effect>
					</filter>
					<filter>
						<effect>
							<name>Audio Levels</name>
							<effectid>audiolevels</effectid>
							<effectcategory>audiolevels</effectcategory>
							<effecttype>audiolevels</effecttype>
							<mediatype>audio</mediatype>
							<parameter>
								<name>Level</name>
								<parameterid>level</parameterid>
								<valuemin>0</valuemin>
								<valuemax>3.98109</valuemax>
								<keyframe>
									<when>2442.7</when>
									<value>0</value>
								</keyframe>
								<keyframe>
									<when>2448.43</when>
									<value>1.77828</value>
								</keyframe>
								<keyframe>
									<when>2507.25</when>
									<value>1.77828</value>
								</keyframe>
								<keyframe>
									<when>2512.39</when>
									<value>0.354813</value>
								</keyframe>
								<keyframe>
									<when>2532.64</when>
									<value>0.354813</value>
								</keyframe>
								<keyframe>
									<when>2534.71</when>
									<value>2.23872</value>
								</keyframe>
								<interpolation>
									<name>FCPCurve</name>
								</interpolation>
								<value>1.77828</value>
							</parameter>
						</effect>
					</filter>
					<filter>
						<effect>
							<name>Audio Pan</name>
							<effectid>audiopan</effectid>
							<effectcategory>audiopan</effectcategory>
							<effecttype>audiopan</effecttype>
							<mediatype>audio</mediatype>
							<parameter>
								<name>Pan</name>
								<parameterid>pan</parameterid>
								<valuemin>-1</valuemin>
								<valuemax>1</valuemax>
								<value>0</value>
							</parameter>
						</effect>
					</filter>
					<sourcetrack>
						<mediatype>audio</mediatype>
						<trackindex>2</trackindex>
					</sourcetrack>
				</clipitem>
				<transitionitem id="625751536 ">
					<rate>
						<ntsc>FALSE</ntsc>
						<timebase>25</timebase>
					</rate>
					<start>5194</start>
					<end>5200</end>
					<alignment>end-black</alignment>
					<effect>
						<name>Cross Fade (+3dB) Copy</name>
						<effecttype>transition</effecttype>
						<mediatype>audio</mediatype>
					</effect>
				</transitionitem>
				<transitionitem id="625750992 ">
					<rate>
						<ntsc>FALSE</ntsc>
						<timebase>25</timebase>
					</rate>
					<start>6829</start>
					<end>6839</end>
					<alignment>start-black</alignment>
					<effect>
						<name>Cross Fade ( 0dB)</name>
						<effecttype>transition</effecttype>
						<mediatype>audio</mediatype>
					</effect>
				</transitionitem>
				<clipitem id="msub200012-0409d2k1002 27">
					<name>msub200012-0409d2k1002</name>
					<duration>10180</duration>
					<rate>
						<ntsc>FALSE</ntsc>
						<timebase>25</timebase>
					</rate>
					<in>8944</in>
					<out>9039</out>
					<start>-1</start>
					<end>-1</end>
					<subframeoffset>0</subframeoffset>
					<masterclipid>msub200012-0409d2k1002 1</masterclipid>
					<syncoffset>0</syncoffset>
					<logginginfo>
						<description>msub200012-0409d2k1002</description>
						<scene/>
						<shottake/>
						<lognote/>
						<good>FALSE</good>
					</logginginfo>
					<labels>
						<label>Best Take</label>
						<label2/>
					</labels>
					<comments>
						<mastercomment1>RÅSTOFF. BR_FINFREDAG_MSUA_OPRO</mastercomment1>
						<mastercomment2/>
						<mastercomment3/>
						<mastercomment4/>
					</comments>
					<file id="msub200012-0409d2k1002 2"/>
					<filter>
						<start>-1</start>
						<end>-1</end>
						<effect>
							<name>3 Band Equalizer - Kristine</name>
							<effecttype>filter</effecttype>
							<mediatype>audio</mediatype>
							<parameter>
								<parameterid>Low Frequency</parameterid>
								<name>Low Frequency</name>
								<valuemin>80</valuemin>
								<valuemax>2000</valuemax>
								<value>80</value>
							</parameter>
							<parameter>
								<parameterid>Low Gain(dB)</parameterid>
								<name>Low Gain(dB)</name>
								<valuemin>-20</valuemin>
								<valuemax>20</valuemax>
								<value>-4</value>
							</parameter>
							<parameter>
								<parameterid>Mid Frequency</parameterid>
								<name>Mid Frequency</name>
								<valuemin>400</valuemin>
								<valuemax>8000</valuemax>
								<value>3602</value>
							</parameter>
							<parameter>
								<parameterid>Mid Gain(dB)</parameterid>
								<name>Mid Gain(dB)</name>
								<valuemin>-20</valuemin>
								<valuemax>20</valuemax>
								<value>3</value>
							</parameter>
							<parameter>
								<parameterid>High Frequency</parameterid>
								<name>High Frequency</name>
								<valuemin>5000</valuemin>
								<valuemax>20000</valuemax>
								<value>10354</value>
							</parameter>
							<parameter>
								<parameterid>High Gain(dB)</parameterid>
								<name>High Gain(dB)</name>
								<valuemin>-20</valuemin>
								<valuemax>20</valuemax>
								<value>0</value>
							</parameter>
						</effect>
					</filter>
					<filter>
						<effect>
							<name>Audio Levels</name>
							<effectid>audiolevels</effectid>
							<effectcategory>audiolevels</effectcategory>
							<effecttype>audiolevels</effecttype>
							<mediatype>audio</mediatype>
							<parameter>
								<name>Level</name>
								<parameterid>level</parameterid>
								<valuemin>0</valuemin>
								<valuemax>3.98109</valuemax>
								<keyframe>
									<when>8985.43</when>
									<value>1.55299</value>
								</keyframe>
								<keyframe>
									<when>8994</when>
									<value>1.73637</value>
								</keyframe>
								<interpolation>
									<name>FCPCurve</name>
								</interpolation>
								<value>1.41254</value>
							</parameter>
						</effect>
					</filter>
					<filter>
						<effect>
							<name>Audio Pan</name>
							<effectid>audiopan</effectid>
							<effectcategory>audiopan</effectcategory>
							<effecttype>audiopan</effecttype>
							<mediatype>audio</mediatype>
							<parameter>
								<name>Pan</name>
								<parameterid>pan</parameterid>
								<valuemin>-1</valuemin>
								<valuemax>1</valuemax>
								<value>0</value>
							</parameter>
						</effect>
					</filter>
					<sourcetrack>
						<mediatype>audio</mediatype>
						<trackindex>2</trackindex>
					</sourcetrack>
					<link>
						<linkclipref>msub200012-0409d2k1002 27</linkclipref>
						<mediatype>audio</mediatype>
						<trackindex>4</trackindex>
						<clipindex>9</clipindex>
					</link>
				</clipitem>
				<transitionitem id="625901048 ">
					<rate>
						<ntsc>FALSE</ntsc>
						<timebase>25</timebase>
					</rate>
					<start>6912</start>
					<end>6924</end>
					<alignment>center</alignment>
					<effect>
						<name>Cross Fade (+3dB) Copy</name>
						<effecttype>transition</effecttype>
						<mediatype>audio</mediatype>
					</effect>
				</transitionitem>
				<transitionitem id="625901320 ">
					<rate>
						<ntsc>FALSE</ntsc>
						<timebase>25</timebase>
					</rate>
					<start>7585</start>
					<end>7597</end>
					<alignment>center</alignment>
					<effect>
						<name>Cross Fade (+3dB) Copy</name>
						<effecttype>transition</effecttype>
						<mediatype>audio</mediatype>
					</effect>
				</transitionitem>
				<clipitem id="KMTE60004512AA5">
					<name>KMTE60004512AA</name>
					<duration>88320</duration>
					<rate>
						<ntsc>FALSE</ntsc>
						<timebase>25</timebase>
					</rate>
					<in>43321</in>
					<out>43388</out>
					<start>-1</start>
					<end>-1</end>
					<subframeoffset>0</subframeoffset>
					<masterclipid>KMTE60004512AA1</masterclipid>
					<logginginfo>
						<description>Justin Bieber live i Oslo</description>
						<scene/>
						<shottake/>
						<lognote/>
						<good>FALSE</good>
					</logginginfo>
					<labels>
						<label2/>
					</labels>
					<comments>
						<mastercomment1>PROGRAM. BR_MEGAFON_MSUA_OPRO. BR_FINFREDAG_MSUA_OPRO</mastercomment1>
						<mastercomment2>. </mastercomment2>
						<mastercomment3>Sendt: 2012-06-20. Universal Music, Norway; Norge.</mastercomment3>
						<mastercomment4/>
						<clipcommentb>1:F-mix venstre 2:F-mix høyre 3:I-lyd venstre 4:I-lyd høyre</clipcommentb>
					</comments>
					<file id="KMTE60004512AA2"/>
					<marker>
						<name>Justin Bieber møter fans</name>
						<comment/>
						<in>1275</in>
						<out>2025</out>
					</marker>
					<marker>
						<name>Arrangørene er bekymret for sikkerheten</name>
						<comment/>
						<in>7566</in>
						<out>8316</out>
					</marker>
					<marker>
						<name>Folk trenger seg inn på operataket</name>
						<comment/>
						<in>9128</in>
						<out>9878</out>
					</marker>
					<marker>
						<name>Politiet vurderer å avlyse konserten</name>
						<comment/>
						<in>10891</in>
						<out>11641</out>
					</marker>
					<marker>
						<name>Justin Bieber ankommer scenen</name>
						<comment/>
						<in>13795</in>
						<out>14545</out>
					</marker>
					<marker>
						<name>Justin Bieber møter Fredrik Skavlan på Nationalteatret</name>
						<comment/>
						<in>27699</in>
						<out>28449</out>
					</marker>
					<marker>
						<name>Justin snakker om kjæresten og om å være i et forhold</name>
						<comment/>
						<in>29221</in>
						<out>29971</out>
					</marker>
					<marker>
						<name>Justin skakker om at han ikke er en barnestjerne lenger</name>
						<comment/>
						<in>30447</in>
						<out>31197</out>
					</marker>
					<marker>
						<name>Justin om å vokse opp i rampelyset</name>
						<comment/>
						<in>32492</in>
						<out>33242</out>
					</marker>
					<marker>
						<name>Justin om barndommen</name>
						<comment/>
						<in>35024</in>
						<out>35774</out>
					</marker>
					<filter>
						<effect>
							<name>Audio Levels</name>
							<effectid>audiolevels</effectid>
							<effectcategory>audiolevels</effectcategory>
							<effecttype>audiolevels</effecttype>
							<mediatype>audio</mediatype>
							<parameter>
								<name>Level</name>
								<parameterid>level</parameterid>
								<valuemin>0</valuemin>
								<valuemax>3.98109</valuemax>
								<value>0.794328</value>
							</parameter>
						</effect>
					</filter>
					<filter>
						<effect>
							<name>Audio Pan</name>
							<effectid>audiopan</effectid>
							<effectcategory>audiopan</effectcategory>
							<effecttype>audiopan</effecttype>
							<mediatype>audio</mediatype>
							<parameter>
								<name>Pan</name>
								<parameterid>pan</parameterid>
								<valuemin>-1</valuemin>
								<valuemax>1</valuemax>
								<value>1</value>
							</parameter>
						</effect>
					</filter>
					<sourcetrack>
						<mediatype>audio</mediatype>
						<trackindex>2</trackindex>
					</sourcetrack>
				</clipitem>
				<transitionitem id="625903700 ">
					<rate>
						<ntsc>FALSE</ntsc>
						<timebase>25</timebase>
					</rate>
					<start>7642</start>
					<end>7652</end>
					<alignment>end-black</alignment>
					<effect>
						<name>Cross Fade ( 0dB)</name>
						<effecttype>transition</effecttype>
						<mediatype>audio</mediatype>
					</effect>
				</transitionitem>
				<clipitem id="NONRO198538CD0003 Oslo Knows3">
					<name>NONRO198538CD0003 Oslo Knows</name>
					<duration>7727</duration>
					<rate>
						<ntsc>FALSE</ntsc>
						<timebase>25</timebase>
					</rate>
					<in>124</in>
					<out>842</out>
					<start>8347</start>
					<end>9065</end>
					<masterclipid>NONRO198538CD0003 Oslo Knows1</masterclipid>
					<logginginfo>
						<scene/>
						<shottake/>
						<lognote/>
						<good>FALSE</good>
					</logginginfo>
					<labels>
						<label2/>
					</labels>
					<comments>
						<mastercomment1/>
						<mastercomment2/>
						<mastercomment3/>
						<mastercomment4/>
					</comments>
					<file id="NONRO198538CD0003 Oslo Knows2"/>
					<filter>
						<effect>
							<name>Audio Levels</name>
							<effectid>audiolevels</effectid>
							<effectcategory>audiolevels</effectcategory>
							<effecttype>audiolevels</effecttype>
							<mediatype>audio</mediatype>
							<parameter>
								<name>Level</name>
								<parameterid>level</parameterid>
								<valuemin>0</valuemin>
								<valuemax>3.98109</valuemax>
								<keyframe>
									<when>270.679</when>
									<value>0.158489</value>
								</keyframe>
								<keyframe>
									<when>351.286</when>
									<value>0.0630957</value>
								</keyframe>
								<keyframe>
									<when>778.286</when>
									<value>0</value>
								</keyframe>
								<interpolation>
									<name>FCPCurve</name>
								</interpolation>
								<value>1</value>
							</parameter>
						</effect>
					</filter>
					<filter>
						<effect>
							<name>Audio Pan</name>
							<effectid>audiopan</effectid>
							<effectcategory>audiopan</effectcategory>
							<effecttype>audiopan</effecttype>
							<mediatype>audio</mediatype>
							<parameter>
								<name>Pan</name>
								<parameterid>pan</parameterid>
								<valuemin>-1</valuemin>
								<valuemax>1</valuemax>
								<value>1</value>
							</parameter>
						</effect>
					</filter>
					<sourcetrack>
						<mediatype>audio</mediatype>
						<trackindex>2</trackindex>
					</sourcetrack>
					<link>
						<linkclipref>NONRO198538CD0003 Oslo Knows</linkclipref>
						<mediatype>audio</mediatype>
						<trackindex>3</trackindex>
						<clipindex>14</clipindex>
						<groupindex>1</groupindex>
					</link>
					<link>
						<linkclipref>NONRO198538CD0003 Oslo Knows3</linkclipref>
						<mediatype>audio</mediatype>
						<trackindex>4</trackindex>
						<clipindex>14</clipindex>
						<groupindex>1</groupindex>
					</link>
				</clipitem>
				<transitionitem id="625902748 ">
					<rate>
						<ntsc>FALSE</ntsc>
						<timebase>25</timebase>
					</rate>
					<start>10104</start>
					<end>10116</end>
					<alignment>start-black</alignment>
					<effect>
						<name>Cross Fade (+3dB) Copy</name>
						<effecttype>transition</effecttype>
						<mediatype>audio</mediatype>
					</effect>
				</transitionitem>
				<clipitem id="msub200012-2108kid1-026 6">
					<name>msub200012-2108kid1-026</name>
					<duration>2145</duration>
					<rate>
						<ntsc>FALSE</ntsc>
						<timebase>25</timebase>
					</rate>
					<in>1159</in>
					<out>1285</out>
					<start>-1</start>
					<end>-1</end>
					<subframeoffset>0</subframeoffset>
					<enabled>TRUE</enabled>
					<masterclipid>msub200012-2108kid1-026 1</masterclipid>
					<logginginfo>
						<description>msub200012-2108kid1-026</description>
						<scene/>
						<shottake/>
						<lognote/>
						<good>FALSE</good>
					</logginginfo>
					<labels>
						<label2/>
					</labels>
					<comments>
						<mastercomment1>RÅSTOFF. BR_FINFREDAG_MSUA_OPRO</mastercomment1>
						<mastercomment2/>
						<mastercomment3/>
						<mastercomment4/>
					</comments>
					<file id="msub200012-2108kid1-026 2"/>
					<filter>
						<enabled>TRUE</enabled>
						<start>-1</start>
						<end>-1</end>
						<effect>
							<name>3 Band Equalizer - Mann</name>
							<effecttype>filter</effecttype>
							<mediatype>audio</mediatype>
							<parameter>
								<parameterid>Low Frequency</parameterid>
								<name>Low Frequency</name>
								<valuemin>80</valuemin>
								<valuemax>2000</valuemax>
								<value>100</value>
							</parameter>
							<parameter>
								<parameterid>Low Gain(dB)</parameterid>
								<name>Low Gain(dB)</name>
								<valuemin>-20</valuemin>
								<valuemax>20</valuemax>
								<value>-4</value>
							</parameter>
							<parameter>
								<parameterid>Mid Frequency</parameterid>
								<name>Mid Frequency</name>
								<valuemin>400</valuemin>
								<valuemax>8000</valuemax>
								<value>3602</value>
							</parameter>
							<parameter>
								<parameterid>Mid Gain(dB)</parameterid>
								<name>Mid Gain(dB)</name>
								<valuemin>-20</valuemin>
								<valuemax>20</valuemax>
								<value>3</value>
							</parameter>
							<parameter>
								<parameterid>High Frequency</parameterid>
								<name>High Frequency</name>
								<valuemin>5000</valuemin>
								<valuemax>20000</valuemax>
								<value>10354</value>
							</parameter>
							<parameter>
								<parameterid>High Gain(dB)</parameterid>
								<name>High Gain(dB)</name>
								<valuemin>-20</valuemin>
								<valuemax>20</valuemax>
								<value>0</value>
							</parameter>
						</effect>
					</filter>
					<filter>
						<effect>
							<name>Audio Levels</name>
							<effectid>audiolevels</effectid>
							<effectcategory>audiolevels</effectcategory>
							<effecttype>audiolevels</effecttype>
							<mediatype>audio</mediatype>
							<parameter>
								<name>Level</name>
								<parameterid>level</parameterid>
								<valuemin>0</valuemin>
								<valuemax>3.98109</valuemax>
								<keyframe>
									<when>1218.71</when>
									<value>0.398107</value>
								</keyframe>
								<keyframe>
									<when>1230.14</when>
									<value>1</value>
								</keyframe>
								<keyframe>
									<when>1265</when>
									<value>1.41254</value>
								</keyframe>
								<interpolation>
									<name>FCPCurve</name>
								</interpolation>
								<value>0.398107</value>
							</parameter>
						</effect>
					</filter>
					<filter>
						<effect>
							<name>Audio Pan</name>
							<effectid>audiopan</effectid>
							<effectcategory>audiopan</effectcategory>
							<effecttype>audiopan</effecttype>
							<mediatype>audio</mediatype>
							<parameter>
								<name>Pan</name>
								<parameterid>pan</parameterid>
								<valuemin>-1</valuemin>
								<valuemax>1</valuemax>
								<value>0</value>
							</parameter>
						</effect>
					</filter>
					<sourcetrack>
						<mediatype>audio</mediatype>
						<trackindex>2</trackindex>
					</sourcetrack>
				</clipitem>
				<transitionitem id="625899620 ">
					<rate>
						<ntsc>FALSE</ntsc>
						<timebase>25</timebase>
					</rate>
					<start>10226</start>
					<end>10230</end>
					<alignment>center</alignment>
					<effect>
						<name>Cross Fade (+3dB) Copy</name>
						<effecttype>transition</effecttype>
						<mediatype>audio</mediatype>
					</effect>
				</transitionitem>
				<clipitem id="msub200012-2108kid1-026 7">
					<name>msub200012-2108kid1-026</name>
					<duration>2145</duration>
					<rate>
						<ntsc>FALSE</ntsc>
						<timebase>25</timebase>
					</rate>
					<in>1297</in>
					<out>1362</out>
					<start>-1</start>
					<end>-1</end>
					<subframeoffset>0</subframeoffset>
					<enabled>TRUE</enabled>
					<masterclipid>msub200012-2108kid1-026 1</masterclipid>
					<logginginfo>
						<description>msub200012-2108kid1-026</description>
						<scene/>
						<shottake/>
						<lognote/>
						<good>FALSE</good>
					</logginginfo>
					<labels>
						<label2/>
					</labels>
					<comments>
						<mastercomment1>RÅSTOFF. BR_FINFREDAG_MSUA_OPRO</mastercomment1>
						<mastercomment2/>
						<mastercomment3/>
						<mastercomment4/>
					</comments>
					<file id="msub200012-2108kid1-026 2"/>
					<filter>
						<enabled>TRUE</enabled>
						<start>-1</start>
						<end>-1</end>
						<effect>
							<name>3 Band Equalizer - Mann</name>
							<effecttype>filter</effecttype>
							<mediatype>audio</mediatype>
							<parameter>
								<parameterid>Low Frequency</parameterid>
								<name>Low Frequency</name>
								<valuemin>80</valuemin>
								<valuemax>2000</valuemax>
								<value>100</value>
							</parameter>
							<parameter>
								<parameterid>Low Gain(dB)</parameterid>
								<name>Low Gain(dB)</name>
								<valuemin>-20</valuemin>
								<valuemax>20</valuemax>
								<value>-4</value>
							</parameter>
							<parameter>
								<parameterid>Mid Frequency</parameterid>
								<name>Mid Frequency</name>
								<valuemin>400</valuemin>
								<valuemax>8000</valuemax>
								<value>3602</value>
							</parameter>
							<parameter>
								<parameterid>Mid Gain(dB)</parameterid>
								<name>Mid Gain(dB)</name>
								<valuemin>-20</valuemin>
								<valuemax>20</valuemax>
								<value>3</value>
							</parameter>
							<parameter>
								<parameterid>High Frequency</parameterid>
								<name>High Frequency</name>
								<valuemin>5000</valuemin>
								<valuemax>20000</valuemax>
								<value>10354</value>
							</parameter>
							<parameter>
								<parameterid>High Gain(dB)</parameterid>
								<name>High Gain(dB)</name>
								<valuemin>-20</valuemin>
								<valuemax>20</valuemax>
								<value>0</value>
							</parameter>
						</effect>
					</filter>
					<filter>
						<effect>
							<name>Audio Levels</name>
							<effectid>audiolevels</effectid>
							<effectcategory>audiolevels</effectcategory>
							<effecttype>audiolevels</effecttype>
							<mediatype>audio</mediatype>
							<parameter>
								<name>Level</name>
								<parameterid>level</parameterid>
								<valuemin>0</valuemin>
								<valuemax>3.98109</valuemax>
								<value>1.77828</value>
							</parameter>
						</effect>
					</filter>
					<filter>
						<effect>
							<name>Audio Pan</name>
							<effectid>audiopan</effectid>
							<effectcategory>audiopan</effectcategory>
							<effecttype>audiopan</effecttype>
							<mediatype>audio</mediatype>
							<parameter>
								<name>Pan</name>
								<parameterid>pan</parameterid>
								<valuemin>-1</valuemin>
								<valuemax>1</valuemax>
								<value>0</value>
							</parameter>
						</effect>
					</filter>
					<sourcetrack>
						<mediatype>audio</mediatype>
						<trackindex>2</trackindex>
					</sourcetrack>
				</clipitem>
				<transitionitem id="625925800 ">
					<rate>
						<ntsc>FALSE</ntsc>
						<timebase>25</timebase>
					</rate>
					<start>10279</start>
					<end>10291</end>
					<alignment>end-black</alignment>
					<effect>
						<name>Cross Fade (+3dB) Copy</name>
						<effecttype>transition</effecttype>
						<mediatype>audio</mediatype>
					</effect>
				</transitionitem>
				<transitionitem id="625924644 ">
					<rate>
						<ntsc>FALSE</ntsc>
						<timebase>25</timebase>
					</rate>
					<start>10548</start>
					<end>10560</end>
					<alignment>start-black</alignment>
					<effect>
						<name>Cross Fade (+3dB) Copy</name>
						<effecttype>transition</effecttype>
						<mediatype>audio</mediatype>
					</effect>
				</transitionitem>
				<clipitem id="msub200012-2108kid1-017 5">
					<name>msub200012-2108kid1-017</name>
					<duration>2619</duration>
					<rate>
						<ntsc>FALSE</ntsc>
						<timebase>25</timebase>
					</rate>
					<in>53</in>
					<out>269</out>
					<start>-1</start>
					<end>-1</end>
					<subframeoffset>0</subframeoffset>
					<enabled>TRUE</enabled>
					<masterclipid>msub200012-2108kid1-017 1</masterclipid>
					<logginginfo>
						<description>msub200012-2108kid1-017</description>
						<scene/>
						<shottake/>
						<lognote/>
						<good>FALSE</good>
					</logginginfo>
					<labels>
						<label2/>
					</labels>
					<comments>
						<mastercomment1>RÅSTOFF. BR_FINFREDAG_MSUA_OPRO</mastercomment1>
						<mastercomment2/>
						<mastercomment3/>
						<mastercomment4/>
					</comments>
					<file id="msub200012-2108kid1-017 2"/>
					<filter>
						<enabled>TRUE</enabled>
						<start>-1</start>
						<end>-1</end>
						<effect>
							<name>3 Band Equalizer - Kristine</name>
							<effecttype>filter</effecttype>
							<mediatype>audio</mediatype>
							<parameter>
								<parameterid>Low Frequency</parameterid>
								<name>Low Frequency</name>
								<valuemin>80</valuemin>
								<valuemax>2000</valuemax>
								<value>80</value>
							</parameter>
							<parameter>
								<parameterid>Low Gain(dB)</parameterid>
								<name>Low Gain(dB)</name>
								<valuemin>-20</valuemin>
								<valuemax>20</valuemax>
								<value>-4</value>
							</parameter>
							<parameter>
								<parameterid>Mid Frequency</parameterid>
								<name>Mid Frequency</name>
								<valuemin>400</valuemin>
								<valuemax>8000</valuemax>
								<value>3602</value>
							</parameter>
							<parameter>
								<parameterid>Mid Gain(dB)</parameterid>
								<name>Mid Gain(dB)</name>
								<valuemin>-20</valuemin>
								<valuemax>20</valuemax>
								<value>3</value>
							</parameter>
							<parameter>
								<parameterid>High Frequency</parameterid>
								<name>High Frequency</name>
								<valuemin>5000</valuemin>
								<valuemax>20000</valuemax>
								<value>10354</value>
							</parameter>
							<parameter>
								<parameterid>High Gain(dB)</parameterid>
								<name>High Gain(dB)</name>
								<valuemin>-20</valuemin>
								<valuemax>20</valuemax>
								<value>0</value>
							</parameter>
						</effect>
					</filter>
					<filter>
						<effect>
							<name>Audio Levels</name>
							<effectid>audiolevels</effectid>
							<effectcategory>audiolevels</effectcategory>
							<effecttype>audiolevels</effecttype>
							<mediatype>audio</mediatype>
							<parameter>
								<name>Level</name>
								<parameterid>level</parameterid>
								<valuemin>0</valuemin>
								<valuemax>3.98109</valuemax>
								<keyframe>
									<when>240.062</when>
									<value>1</value>
								</keyframe>
								<keyframe>
									<when>241.911</when>
									<value>0.112202</value>
								</keyframe>
								<keyframe>
									<when>249.223</when>
									<value>0.158489</value>
								</keyframe>
								<keyframe>
									<when>252.036</when>
									<value>0.707946</value>
								</keyframe>
								<interpolation>
									<name>FCPCurve</name>
								</interpolation>
								<value>1</value>
							</parameter>
						</effect>
					</filter>
					<filter>
						<effect>
							<name>Audio Pan</name>
							<effectid>audiopan</effectid>
							<effectcategory>audiopan</effectcategory>
							<effecttype>audiopan</effecttype>
							<mediatype>audio</mediatype>
							<parameter>
								<name>Pan</name>
								<parameterid>pan</parameterid>
								<valuemin>-1</valuemin>
								<valuemax>1</valuemax>
								<value>0</value>
							</parameter>
						</effect>
					</filter>
					<sourcetrack>
						<mediatype>audio</mediatype>
						<trackindex>3</trackindex>
					</sourcetrack>
				</clipitem>
				<transitionitem id="625924984 ">
					<rate>
						<ntsc>FALSE</ntsc>
						<timebase>25</timebase>
					</rate>
					<start>10758</start>
					<end>10764</end>
					<alignment>end-black</alignment>
					<effect>
						<name>Cross Fade (+3dB) Copy</name>
						<effecttype>transition</effecttype>
						<mediatype>audio</mediatype>
					</effect>
				</transitionitem>
				<transitionitem id="625922740 ">
					<rate>
						<ntsc>FALSE</ntsc>
						<timebase>25</timebase>
					</rate>
					<start>11694</start>
					<end>11700</end>
					<alignment>center</alignment>
					<effect>
						<name>Cross Fade (+3dB) Copy</name>
						<effecttype>transition</effecttype>
						<mediatype>audio</mediatype>
					</effect>
				</transitionitem>
				<clipitem id="NONRO148033CD0001 Girls Keep Secrets in the Strangest Ways3">
					<name>NONRO148033CD0001 Girls Keep Secrets in the Strangest Ways</name>
					<duration>4682</duration>
					<rate>
						<ntsc>FALSE</ntsc>
						<timebase>25</timebase>
					</rate>
					<in>49</in>
					<out>368</out>
					<start>-1</start>
					<end>-1</end>
					<enabled>TRUE</enabled>
					<masterclipid>NONRO148033CD0001 Girls Keep Secrets in the Strangest Ways1</masterclipid>
					<logginginfo>
						<scene/>
						<shottake/>
						<lognote/>
						<good>FALSE</good>
					</logginginfo>
					<labels>
						<label2/>
					</labels>
					<comments>
						<mastercomment1/>
						<mastercomment2/>
						<mastercomment3/>
						<mastercomment4/>
					</comments>
					<file id="NONRO148033CD0001 Girls Keep Secrets in the Strangest Ways2"/>
					<filter>
						<effect>
							<name>Audio Levels</name>
							<effectid>audiolevels</effectid>
							<effectcategory>audiolevels</effectcategory>
							<effecttype>audiolevels</effecttype>
							<mediatype>audio</mediatype>
							<parameter>
								<name>Level</name>
								<parameterid>level</parameterid>
								<valuemin>0</valuemin>
								<valuemax>3.98109</valuemax>
								<value>0.281838</value>
							</parameter>
						</effect>
					</filter>
					<filter>
						<effect>
							<name>Audio Pan</name>
							<effectid>audiopan</effectid>
							<effectcategory>audiopan</effectcategory>
							<effecttype>audiopan</effecttype>
							<mediatype>audio</mediatype>
							<parameter>
								<name>Pan</name>
								<parameterid>pan</parameterid>
								<valuemin>-1</valuemin>
								<valuemax>1</valuemax>
								<value>1</value>
							</parameter>
						</effect>
					</filter>
					<sourcetrack>
						<mediatype>audio</mediatype>
						<trackindex>2</trackindex>
					</sourcetrack>
					<link>
						<linkclipref>NONRO148033CD0001 Girls Keep Secrets in the Strangest Ways</linkclipref>
						<mediatype>audio</mediatype>
						<trackindex>3</trackindex>
						<clipindex>23</clipindex>
						<groupindex>1</groupindex>
					</link>
					<link>
						<linkclipref>NONRO148033CD0001 Girls Keep Secrets in the Strangest Ways3</linkclipref>
						<mediatype>audio</mediatype>
						<trackindex>4</trackindex>
						<clipindex>24</clipindex>
						<groupindex>1</groupindex>
					</link>
				</clipitem>
				<transitionitem id="625921720 ">
					<rate>
						<ntsc>FALSE</ntsc>
						<timebase>25</timebase>
					</rate>
					<start>11913</start>
					<end>12013</end>
					<alignment>end-black</alignment>
					<effect>
						<name>Cross Fade ( 0dB)</name>
						<effecttype>transition</effecttype>
						<mediatype>audio</mediatype>
					</effect>
				</transitionitem>
				<transitionitem id="625918184 ">
					<rate>
						<ntsc>FALSE</ntsc>
						<timebase>25</timebase>
					</rate>
					<start>12377</start>
					<end>12389</end>
					<alignment>center</alignment>
					<effect>
						<name>Cross Fade (+3dB) Copy</name>
						<effecttype>transition</effecttype>
						<mediatype>audio</mediatype>
					</effect>
				</transitionitem>
				<clipitem id="msub200012-2108kid1-023 8">
					<name>msub200012-2108kid1-023</name>
					<duration>3689</duration>
					<rate>
						<ntsc>FALSE</ntsc>
						<timebase>25</timebase>
					</rate>
					<in>1913</in>
					<out>2113</out>
					<start>-1</start>
					<end>-1</end>
					<subframeoffset>0</subframeoffset>
					<masterclipid>msub200012-2108kid1-023 1</masterclipid>
					<logginginfo>
						<description>msub200012-2108kid1-023</description>
						<scene/>
						<shottake/>
						<lognote/>
						<good>FALSE</good>
					</logginginfo>
					<labels>
						<label2/>
					</labels>
					<comments>
						<mastercomment1>RÅSTOFF. BR_FINFREDAG_MSUA_OPRO</mastercomment1>
						<mastercomment2/>
						<mastercomment3/>
						<mastercomment4/>
					</comments>
					<file id="msub200012-2108kid1-023 2"/>
					<filter>
						<start>-1</start>
						<end>-1</end>
						<effect>
							<name>3 Band Equalizer - Kristine</name>
							<effecttype>filter</effecttype>
							<mediatype>audio</mediatype>
							<parameter>
								<parameterid>Low Frequency</parameterid>
								<name>Low Frequency</name>
								<valuemin>80</valuemin>
								<valuemax>2000</valuemax>
								<value>80</value>
							</parameter>
							<parameter>
								<parameterid>Low Gain(dB)</parameterid>
								<name>Low Gain(dB)</name>
								<valuemin>-20</valuemin>
								<valuemax>20</valuemax>
								<value>-4</value>
							</parameter>
							<parameter>
								<parameterid>Mid Frequency</parameterid>
								<name>Mid Frequency</name>
								<valuemin>400</valuemin>
								<valuemax>8000</valuemax>
								<value>3602</value>
							</parameter>
							<parameter>
								<parameterid>Mid Gain(dB)</parameterid>
								<name>Mid Gain(dB)</name>
								<valuemin>-20</valuemin>
								<valuemax>20</valuemax>
								<value>3</value>
							</parameter>
							<parameter>
								<parameterid>High Frequency</parameterid>
								<name>High Frequency</name>
								<valuemin>5000</valuemin>
								<valuemax>20000</valuemax>
								<value>10354</value>
							</parameter>
							<parameter>
								<parameterid>High Gain(dB)</parameterid>
								<name>High Gain(dB)</name>
								<valuemin>-20</valuemin>
								<valuemax>20</valuemax>
								<value>0</value>
							</parameter>
						</effect>
					</filter>
					<filter>
						<effect>
							<name>Audio Levels</name>
							<effectid>audiolevels</effectid>
							<effectcategory>audiolevels</effectcategory>
							<effecttype>audiolevels</effecttype>
							<mediatype>audio</mediatype>
							<parameter>
								<name>Level</name>
								<parameterid>level</parameterid>
								<valuemin>0</valuemin>
								<valuemax>3.98109</valuemax>
								<keyframe>
									<when>1942</when>
									<value>0.141254</value>
								</keyframe>
								<keyframe>
									<when>1962.57</when>
									<value>0.707946</value>
								</keyframe>
								<interpolation>
									<name>FCPCurve</name>
								</interpolation>
								<value>0.630957</value>
							</parameter>
						</effect>
					</filter>
					<filter>
						<effect>
							<name>Audio Pan</name>
							<effectid>audiopan</effectid>
							<effectcategory>audiopan</effectcategory>
							<effecttype>audiopan</effecttype>
							<mediatype>audio</mediatype>
							<parameter>
								<name>Pan</name>
								<parameterid>pan</parameterid>
								<valuemin>-1</valuemin>
								<valuemax>1</valuemax>
								<value>0</value>
							</parameter>
						</effect>
					</filter>
					<sourcetrack>
						<mediatype>audio</mediatype>
						<trackindex>2</trackindex>
					</sourcetrack>
				</clipitem>
				<transitionitem id="625918456 ">
					<rate>
						<ntsc>FALSE</ntsc>
						<timebase>25</timebase>
					</rate>
					<start>12565</start>
					<end>12577</end>
					<alignment>end-black</alignment>
					<effect>
						<name>Cross Fade (+3dB) Copy</name>
						<effecttype>transition</effecttype>
						<mediatype>audio</mediatype>
					</effect>
				</transitionitem>
				<transitionitem id="625921040 ">
					<rate>
						<ntsc>FALSE</ntsc>
						<timebase>25</timebase>
					</rate>
					<start>13566</start>
					<end>13578</end>
					<alignment>center</alignment>
					<effect>
						<name>Cross Fade (+3dB) Copy</name>
						<effecttype>transition</effecttype>
						<mediatype>audio</mediatype>
					</effect>
				</transitionitem>
				<clipitem id="NONRO148033CD0001 Girls Keep Secrets in the Strangest Ways5">
					<name>NONRO148033CD0001 Girls Keep Secrets in the Strangest Ways</name>
					<duration>4682</duration>
					<rate>
						<ntsc>FALSE</ntsc>
						<timebase>25</timebase>
					</rate>
					<in>46</in>
					<out>368</out>
					<start>-1</start>
					<end>-1</end>
					<enabled>TRUE</enabled>
					<masterclipid>NONRO148033CD0001 Girls Keep Secrets in the Strangest Ways1</masterclipid>
					<logginginfo>
						<scene/>
						<shottake/>
						<lognote/>
						<good>FALSE</good>
					</logginginfo>
					<labels>
						<label2/>
					</labels>
					<comments>
						<mastercomment1/>
						<mastercomment2/>
						<mastercomment3/>
						<mastercomment4/>
					</comments>
					<file id="NONRO148033CD0001 Girls Keep Secrets in the Strangest Ways2"/>
					<filter>
						<effect>
							<name>Audio Levels</name>
							<effectid>audiolevels</effectid>
							<effectcategory>audiolevels</effectcategory>
							<effecttype>audiolevels</effecttype>
							<mediatype>audio</mediatype>
							<parameter>
								<name>Level</name>
								<parameterid>level</parameterid>
								<valuemin>0</valuemin>
								<valuemax>3.98109</valuemax>
								<keyframe>
									<when>143.232</when>
									<value>0.251189</value>
								</keyframe>
								<keyframe>
									<when>198.143</when>
									<value>0.251189</value>
								</keyframe>
								<interpolation>
									<name>FCPCurve</name>
								</interpolation>
								<value>0.251189</value>
							</parameter>
						</effect>
					</filter>
					<filter>
						<effect>
							<name>Audio Pan</name>
							<effectid>audiopan</effectid>
							<effectcategory>audiopan</effectcategory>
							<effecttype>audiopan</effecttype>
							<mediatype>audio</mediatype>
							<parameter>
								<name>Pan</name>
								<parameterid>pan</parameterid>
								<valuemin>-1</valuemin>
								<valuemax>1</valuemax>
								<value>1</value>
							</parameter>
						</effect>
					</filter>
					<sourcetrack>
						<mediatype>audio</mediatype>
						<trackindex>2</trackindex>
					</sourcetrack>
					<link>
						<linkclipref>NONRO148033CD0001 Girls Keep Secrets in the Strangest Ways4</linkclipref>
						<mediatype>audio</mediatype>
						<trackindex>3</trackindex>
						<clipindex>32</clipindex>
						<groupindex>1</groupindex>
					</link>
					<link>
						<linkclipref>NONRO148033CD0001 Girls Keep Secrets in the Strangest Ways5</linkclipref>
						<mediatype>audio</mediatype>
						<trackindex>4</trackindex>
						<clipindex>30</clipindex>
						<groupindex>1</groupindex>
					</link>
				</clipitem>
				<transitionitem id="625921312 ">
					<rate>
						<ntsc>FALSE</ntsc>
						<timebase>25</timebase>
					</rate>
					<start>13788</start>
					<end>13888</end>
					<alignment>end-black</alignment>
					<effect>
						<name>Cross Fade ( 0dB)</name>
						<effecttype>transition</effecttype>
						<mediatype>audio</mediatype>
					</effect>
				</transitionitem>
				<transitionitem id="625917776 ">
					<rate>
						<ntsc>FALSE</ntsc>
						<timebase>25</timebase>
					</rate>
					<start>19575</start>
					<end>19579</end>
					<alignment>center</alignment>
					<effect>
						<name>Cross Fade (+3dB) Copy</name>
						<effecttype>transition</effecttype>
						<mediatype>audio</mediatype>
					</effect>
				</transitionitem>
				<clipitem id="msub200012-0409d1k1011 17">
					<name>msub200012-0409d1k1011</name>
					<duration>24527</duration>
					<rate>
						<ntsc>FALSE</ntsc>
						<timebase>25</timebase>
					</rate>
					<in>14344</in>
					<out>15243</out>
					<start>-1</start>
					<end>-1</end>
					<subframeoffset>0</subframeoffset>
					<enabled>TRUE</enabled>
					<masterclipid>msub200012-0409d1k1011 1</masterclipid>
					<syncoffset>0</syncoffset>
					<logginginfo>
						<description>msub200012-0409d1k1011</description>
						<scene/>
						<shottake/>
						<lognote/>
						<good>FALSE</good>
					</logginginfo>
					<labels>
						<label>B Roll</label>
						<label2/>
					</labels>
					<comments>
						<mastercomment1>RÅSTOFF. BR_FINFREDAG_MSUA_OPRO</mastercomment1>
						<mastercomment2/>
						<mastercomment3/>
						<mastercomment4/>
					</comments>
					<file id="msub200012-0409d1k1011 2"/>
					<filter>
						<enabled>TRUE</enabled>
						<start>-1</start>
						<end>-1</end>
						<effect>
							<name>3 Band Equalizer - Kristine</name>
							<effecttype>filter</effecttype>
							<mediatype>audio</mediatype>
							<parameter>
								<parameterid>Low Frequency</parameterid>
								<name>Low Frequency</name>
								<valuemin>80</valuemin>
								<valuemax>2000</valuemax>
								<value>80</value>
							</parameter>
							<parameter>
								<parameterid>Low Gain(dB)</parameterid>
								<name>Low Gain(dB)</name>
								<valuemin>-20</valuemin>
								<valuemax>20</valuemax>
								<value>-4</value>
							</parameter>
							<parameter>
								<parameterid>Mid Frequency</parameterid>
								<name>Mid Frequency</name>
								<valuemin>400</valuemin>
								<valuemax>8000</valuemax>
								<value>3602</value>
							</parameter>
							<parameter>
								<parameterid>Mid Gain(dB)</parameterid>
								<name>Mid Gain(dB)</name>
								<valuemin>-20</valuemin>
								<valuemax>20</valuemax>
								<value>3</value>
							</parameter>
							<parameter>
								<parameterid>High Frequency</parameterid>
								<name>High Frequency</name>
								<valuemin>5000</valuemin>
								<valuemax>20000</valuemax>
								<value>10354</value>
							</parameter>
							<parameter>
								<parameterid>High Gain(dB)</parameterid>
								<name>High Gain(dB)</name>
								<valuemin>-20</valuemin>
								<valuemax>20</valuemax>
								<value>0</value>
							</parameter>
						</effect>
					</filter>
					<filter>
						<effect>
							<name>Audio Levels</name>
							<effectid>audiolevels</effectid>
							<effectcategory>audiolevels</effectcategory>
							<effecttype>audiolevels</effecttype>
							<mediatype>audio</mediatype>
							<parameter>
								<name>Level</name>
								<parameterid>level</parameterid>
								<valuemin>0</valuemin>
								<valuemax>3.98109</valuemax>
								<keyframe>
									<when>14605.6</when>
									<value>1.41254</value>
								</keyframe>
								<keyframe>
									<when>14610.1</when>
									<value>1.58489</value>
								</keyframe>
								<keyframe>
									<when>14905.9</when>
									<value>1.58489</value>
								</keyframe>
								<keyframe>
									<when>14915.3</when>
									<value>1.41254</value>
								</keyframe>
								<interpolation>
									<name>FCPCurve</name>
								</interpolation>
								<value>1.25893</value>
							</parameter>
						</effect>
					</filter>
					<filter>
						<effect>
							<name>Audio Pan</name>
							<effectid>audiopan</effectid>
							<effectcategory>audiopan</effectcategory>
							<effecttype>audiopan</effecttype>
							<mediatype>audio</mediatype>
							<parameter>
								<name>Pan</name>
								<parameterid>pan</parameterid>
								<valuemin>-1</valuemin>
								<valuemax>1</valuemax>
								<value>0</value>
							</parameter>
						</effect>
					</filter>
					<sourcetrack>
						<mediatype>audio</mediatype>
						<trackindex>2</trackindex>
					</sourcetrack>
				</clipitem>
				<transitionitem id="625906964 ">
					<rate>
						<ntsc>FALSE</ntsc>
						<timebase>25</timebase>
					</rate>
					<start>20472</start>
					<end>20474</end>
					<alignment>center</alignment>
					<effect>
						<name>Cross Fade (+3dB) Copy</name>
						<effecttype>transition</effecttype>
						<mediatype>audio</mediatype>
					</effect>
				</transitionitem>
				<transitionitem id="625905672 ">
					<rate>
						<ntsc>FALSE</ntsc>
						<timebase>25</timebase>
					</rate>
					<start>21468</start>
					<end>21474</end>
					<alignment>start-black</alignment>
					<effect>
						<name>Cross Fade (+3dB) Copy</name>
						<effecttype>transition</effecttype>
						<mediatype>audio</mediatype>
					</effect>
				</transitionitem>
				<clipitem id="msub200012-0409d1k1011 18">
					<name>msub200012-0409d1k1011</name>
					<duration>24527</duration>
					<rate>
						<ntsc>FALSE</ntsc>
						<timebase>25</timebase>
					</rate>
					<in>19093</in>
					<out>19365</out>
					<start>-1</start>
					<end>-1</end>
					<subframeoffset>0</subframeoffset>
					<enabled>TRUE</enabled>
					<masterclipid>msub200012-0409d1k1011 1</masterclipid>
					<syncoffset>0</syncoffset>
					<logginginfo>
						<description>msub200012-0409d1k1011</description>
						<scene/>
						<shottake/>
						<lognote/>
						<good>FALSE</good>
					</logginginfo>
					<labels>
						<label>B Roll</label>
						<label2/>
					</labels>
					<comments>
						<mastercomment1>RÅSTOFF. BR_FINFREDAG_MSUA_OPRO</mastercomment1>
						<mastercomment2/>
						<mastercomment3/>
						<mastercomment4/>
					</comments>
					<file id="msub200012-0409d1k1011 2"/>
					<filter>
						<start>-1</start>
						<end>-1</end>
						<effect>
							<name>3 Band Equalizer - Kristine</name>
							<effecttype>filter</effecttype>
							<mediatype>audio</mediatype>
							<parameter>
								<parameterid>Low Frequency</parameterid>
								<name>Low Frequency</name>
								<valuemin>80</valuemin>
								<valuemax>2000</valuemax>
								<value>80</value>
							</parameter>
							<parameter>
								<parameterid>Low Gain(dB)</parameterid>
								<name>Low Gain(dB)</name>
								<valuemin>-20</valuemin>
								<valuemax>20</valuemax>
								<value>-4</value>
							</parameter>
							<parameter>
								<parameterid>Mid Frequency</parameterid>
								<name>Mid Frequency</name>
								<valuemin>400</valuemin>
								<valuemax>8000</valuemax>
								<value>3602</value>
							</parameter>
							<parameter>
								<parameterid>Mid Gain(dB)</parameterid>
								<name>Mid Gain(dB)</name>
								<valuemin>-20</valuemin>
								<valuemax>20</valuemax>
								<value>3</value>
							</parameter>
							<parameter>
								<parameterid>High Frequency</parameterid>
								<name>High Frequency</name>
								<valuemin>5000</valuemin>
								<valuemax>20000</valuemax>
								<value>10354</value>
							</parameter>
							<parameter>
								<parameterid>High Gain(dB)</parameterid>
								<name>High Gain(dB)</name>
								<valuemin>-20</valuemin>
								<valuemax>20</valuemax>
								<value>0</value>
							</parameter>
						</effect>
					</filter>
					<filter>
						<effect>
							<name>Audio Levels</name>
							<effectid>audiolevels</effectid>
							<effectcategory>audiolevels</effectcategory>
							<effecttype>audiolevels</effecttype>
							<mediatype>audio</mediatype>
							<parameter>
								<name>Level</name>
								<parameterid>level</parameterid>
								<valuemin>0</valuemin>
								<valuemax>3.98109</valuemax>
								<value>1.58489</value>
							</parameter>
						</effect>
					</filter>
					<filter>
						<effect>
							<name>Audio Pan</name>
							<effectid>audiopan</effectid>
							<effectcategory>audiopan</effectcategory>
							<effecttype>audiopan</effecttype>
							<mediatype>audio</mediatype>
							<parameter>
								<name>Pan</name>
								<parameterid>pan</parameterid>
								<valuemin>-1</valuemin>
								<valuemax>1</valuemax>
								<value>0</value>
							</parameter>
						</effect>
					</filter>
					<sourcetrack>
						<mediatype>audio</mediatype>
						<trackindex>2</trackindex>
					</sourcetrack>
				</clipitem>
				<transitionitem id="626968332 ">
					<rate>
						<ntsc>FALSE</ntsc>
						<timebase>25</timebase>
					</rate>
					<start>21738</start>
					<end>21740</end>
					<alignment>end-black</alignment>
					<effect>
						<name>Cross Fade (+3dB) Copy</name>
						<effecttype>transition</effecttype>
						<mediatype>audio</mediatype>
					</effect>
				</transitionitem>
				<transitionitem id="626967856 ">
					<rate>
						<ntsc>FALSE</ntsc>
						<timebase>25</timebase>
					</rate>
					<start>22220</start>
					<end>22222</end>
					<alignment>start-black</alignment>
					<effect>
						<name>Cross Fade (+3dB) Copy</name>
						<effecttype>transition</effecttype>
						<mediatype>audio</mediatype>
					</effect>
				</transitionitem>
				<clipitem id="msub200012-0409d1k1011 19">
					<name>msub200012-0409d1k1011</name>
					<duration>24527</duration>
					<rate>
						<ntsc>FALSE</ntsc>
						<timebase>25</timebase>
					</rate>
					<in>20468</in>
					<out>20511</out>
					<start>-1</start>
					<end>-1</end>
					<subframeoffset>0</subframeoffset>
					<enabled>TRUE</enabled>
					<masterclipid>msub200012-0409d1k1011 1</masterclipid>
					<syncoffset>0</syncoffset>
					<logginginfo>
						<description>msub200012-0409d1k1011</description>
						<scene/>
						<shottake/>
						<lognote/>
						<good>FALSE</good>
					</logginginfo>
					<labels>
						<label>B Roll</label>
						<label2/>
					</labels>
					<comments>
						<mastercomment1>RÅSTOFF. BR_FINFREDAG_MSUA_OPRO</mastercomment1>
						<mastercomment2/>
						<mastercomment3/>
						<mastercomment4/>
					</comments>
					<file id="msub200012-0409d1k1011 2"/>
					<filter>
						<enabled>TRUE</enabled>
						<start>-1</start>
						<end>-1</end>
						<effect>
							<name>3 Band Equalizer - Kristine</name>
							<effecttype>filter</effecttype>
							<mediatype>audio</mediatype>
							<parameter>
								<parameterid>Low Frequency</parameterid>
								<name>Low Frequency</name>
								<valuemin>80</valuemin>
								<valuemax>2000</valuemax>
								<value>80</value>
							</parameter>
							<parameter>
								<parameterid>Low Gain(dB)</parameterid>
								<name>Low Gain(dB)</name>
								<valuemin>-20</valuemin>
								<valuemax>20</valuemax>
								<value>-4</value>
							</parameter>
							<parameter>
								<parameterid>Mid Frequency</parameterid>
								<name>Mid Frequency</name>
								<valuemin>400</valuemin>
								<valuemax>8000</valuemax>
								<value>3602</value>
							</parameter>
							<parameter>
								<parameterid>Mid Gain(dB)</parameterid>
								<name>Mid Gain(dB)</name>
								<valuemin>-20</valuemin>
								<valuemax>20</valuemax>
								<value>3</value>
							</parameter>
							<parameter>
								<parameterid>High Frequency</parameterid>
								<name>High Frequency</name>
								<valuemin>5000</valuemin>
								<valuemax>20000</valuemax>
								<value>10354</value>
							</parameter>
							<parameter>
								<parameterid>High Gain(dB)</parameterid>
								<name>High Gain(dB)</name>
								<valuemin>-20</valuemin>
								<valuemax>20</valuemax>
								<value>0</value>
							</parameter>
						</effect>
					</filter>
					<filter>
						<effect>
							<name>Audio Levels</name>
							<effectid>audiolevels</effectid>
							<effectcategory>audiolevels</effectcategory>
							<effecttype>audiolevels</effecttype>
							<mediatype>audio</mediatype>
							<parameter>
								<name>Level</name>
								<parameterid>level</parameterid>
								<valuemin>0</valuemin>
								<valuemax>3.98109</valuemax>
								<keyframe>
									<when>20478</when>
									<value>1.12202</value>
								</keyframe>
								<keyframe>
									<when>20480.1</when>
									<value>1.25893</value>
								</keyframe>
								<keyframe>
									<when>20492.3</when>
									<value>1.25893</value>
								</keyframe>
								<keyframe>
									<when>20495.9</when>
									<value>1</value>
								</keyframe>
								<interpolation>
									<name>FCPCurve</name>
								</interpolation>
								<value>1.12202</value>
							</parameter>
						</effect>
					</filter>
					<filter>
						<effect>
							<name>Audio Pan</name>
							<effectid>audiopan</effectid>
							<effectcategory>audiopan</effectcategory>
							<effecttype>audiopan</effecttype>
							<mediatype>audio</mediatype>
							<parameter>
								<name>Pan</name>
								<parameterid>pan</parameterid>
								<valuemin>-1</valuemin>
								<valuemax>1</valuemax>
								<value>0</value>
							</parameter>
						</effect>
					</filter>
					<sourcetrack>
						<mediatype>audio</mediatype>
						<trackindex>2</trackindex>
					</sourcetrack>
				</clipitem>
				<transitionitem id="626956364 ">
					<rate>
						<ntsc>FALSE</ntsc>
						<timebase>25</timebase>
					</rate>
					<start>22261</start>
					<end>22263</end>
					<alignment>center</alignment>
					<effect>
						<name>Cross Fade (+3dB) Copy</name>
						<effecttype>transition</effecttype>
						<mediatype>audio</mediatype>
					</effect>
				</transitionitem>
				<clipitem id="msub200012-0409d1k1011 20">
					<name>msub200012-0409d1k1011</name>
					<duration>24527</duration>
					<rate>
						<ntsc>FALSE</ntsc>
						<timebase>25</timebase>
					</rate>
					<in>20687</in>
					<out>20746</out>
					<start>-1</start>
					<end>-1</end>
					<subframeoffset>0</subframeoffset>
					<enabled>TRUE</enabled>
					<masterclipid>msub200012-0409d1k1011 1</masterclipid>
					<syncoffset>0</syncoffset>
					<logginginfo>
						<description>msub200012-0409d1k1011</description>
						<scene/>
						<shottake/>
						<lognote/>
						<good>FALSE</good>
					</logginginfo>
					<labels>
						<label>B Roll</label>
						<label2/>
					</labels>
					<comments>
						<mastercomment1>RÅSTOFF. BR_FINFREDAG_MSUA_OPRO</mastercomment1>
						<mastercomment2/>
						<mastercomment3/>
						<mastercomment4/>
					</comments>
					<file id="msub200012-0409d1k1011 2"/>
					<filter>
						<start>-1</start>
						<end>-1</end>
						<effect>
							<name>3 Band Equalizer - Kristine</name>
							<effecttype>filter</effecttype>
							<mediatype>audio</mediatype>
							<parameter>
								<parameterid>Low Frequency</parameterid>
								<name>Low Frequency</name>
								<valuemin>80</valuemin>
								<valuemax>2000</valuemax>
								<value>80</value>
							</parameter>
							<parameter>
								<parameterid>Low Gain(dB)</parameterid>
								<name>Low Gain(dB)</name>
								<valuemin>-20</valuemin>
								<valuemax>20</valuemax>
								<value>-4</value>
							</parameter>
							<parameter>
								<parameterid>Mid Frequency</parameterid>
								<name>Mid Frequency</name>
								<valuemin>400</valuemin>
								<valuemax>8000</valuemax>
								<value>3602</value>
							</parameter>
							<parameter>
								<parameterid>Mid Gain(dB)</parameterid>
								<name>Mid Gain(dB)</name>
								<valuemin>-20</valuemin>
								<valuemax>20</valuemax>
								<value>3</value>
							</parameter>
							<parameter>
								<parameterid>High Frequency</parameterid>
								<name>High Frequency</name>
								<valuemin>5000</valuemin>
								<valuemax>20000</valuemax>
								<value>10354</value>
							</parameter>
							<parameter>
								<parameterid>High Gain(dB)</parameterid>
								<name>High Gain(dB)</name>
								<valuemin>-20</valuemin>
								<valuemax>20</valuemax>
								<value>0</value>
							</parameter>
						</effect>
					</filter>
					<filter>
						<effect>
							<name>Audio Levels</name>
							<effectid>audiolevels</effectid>
							<effectcategory>audiolevels</effectcategory>
							<effecttype>audiolevels</effecttype>
							<mediatype>audio</mediatype>
							<parameter>
								<name>Level</name>
								<parameterid>level</parameterid>
								<valuemin>0</valuemin>
								<valuemax>3.98109</valuemax>
								<keyframe>
									<when>20699</when>
									<value>1.77828</value>
								</keyframe>
								<keyframe>
									<when>20700.7</when>
									<value>1.77828</value>
								</keyframe>
								<interpolation>
									<name>FCPCurve</name>
								</interpolation>
								<value>1.25893</value>
							</parameter>
						</effect>
					</filter>
					<filter>
						<effect>
							<name>Audio Pan</name>
							<effectid>audiopan</effectid>
							<effectcategory>audiopan</effectcategory>
							<effecttype>audiopan</effecttype>
							<mediatype>audio</mediatype>
							<parameter>
								<name>Pan</name>
								<parameterid>pan</parameterid>
								<valuemin>-1</valuemin>
								<valuemax>1</valuemax>
								<value>0</value>
							</parameter>
						</effect>
					</filter>
					<sourcetrack>
						<mediatype>audio</mediatype>
						<trackindex>2</trackindex>
					</sourcetrack>
				</clipitem>
				<transitionitem id="626945008 ">
					<rate>
						<ntsc>FALSE</ntsc>
						<timebase>25</timebase>
					</rate>
					<start>22318</start>
					<end>22320</end>
					<alignment>center</alignment>
					<effect>
						<name>Cross Fade (+3dB) Copy</name>
						<effecttype>transition</effecttype>
						<mediatype>audio</mediatype>
					</effect>
				</transitionitem>
				<clipitem id="msub200012-0409d1k1011 21">
					<name>msub200012-0409d1k1011</name>
					<duration>24527</duration>
					<rate>
						<ntsc>FALSE</ntsc>
						<timebase>25</timebase>
					</rate>
					<in>22236</in>
					<out>22639</out>
					<start>-1</start>
					<end>-1</end>
					<subframeoffset>0</subframeoffset>
					<enabled>TRUE</enabled>
					<masterclipid>msub200012-0409d1k1011 1</masterclipid>
					<syncoffset>0</syncoffset>
					<logginginfo>
						<description>msub200012-0409d1k1011</description>
						<scene/>
						<shottake/>
						<lognote/>
						<good>FALSE</good>
					</logginginfo>
					<labels>
						<label>B Roll</label>
						<label2/>
					</labels>
					<comments>
						<mastercomment1>RÅSTOFF. BR_FINFREDAG_MSUA_OPRO</mastercomment1>
						<mastercomment2/>
						<mastercomment3/>
						<mastercomment4/>
					</comments>
					<file id="msub200012-0409d1k1011 2"/>
					<filter>
						<start>-1</start>
						<end>-1</end>
						<effect>
							<name>3 Band Equalizer - Kristine</name>
							<effecttype>filter</effecttype>
							<mediatype>audio</mediatype>
							<parameter>
								<parameterid>Low Frequency</parameterid>
								<name>Low Frequency</name>
								<valuemin>80</valuemin>
								<valuemax>2000</valuemax>
								<value>80</value>
							</parameter>
							<parameter>
								<parameterid>Low Gain(dB)</parameterid>
								<name>Low Gain(dB)</name>
								<valuemin>-20</valuemin>
								<valuemax>20</valuemax>
								<value>-4</value>
							</parameter>
							<parameter>
								<parameterid>Mid Frequency</parameterid>
								<name>Mid Frequency</name>
								<valuemin>400</valuemin>
								<valuemax>8000</valuemax>
								<value>3602</value>
							</parameter>
							<parameter>
								<parameterid>Mid Gain(dB)</parameterid>
								<name>Mid Gain(dB)</name>
								<valuemin>-20</valuemin>
								<valuemax>20</valuemax>
								<value>3</value>
							</parameter>
							<parameter>
								<parameterid>High Frequency</parameterid>
								<name>High Frequency</name>
								<valuemin>5000</valuemin>
								<valuemax>20000</valuemax>
								<value>10354</value>
							</parameter>
							<parameter>
								<parameterid>High Gain(dB)</parameterid>
								<name>High Gain(dB)</name>
								<valuemin>-20</valuemin>
								<valuemax>20</valuemax>
								<value>0</value>
							</parameter>
						</effect>
					</filter>
					<filter>
						<effect>
							<name>Audio Levels</name>
							<effectid>audiolevels</effectid>
							<effectcategory>audiolevels</effectcategory>
							<effecttype>audiolevels</effecttype>
							<mediatype>audio</mediatype>
							<parameter>
								<name>Level</name>
								<parameterid>level</parameterid>
								<valuemin>0</valuemin>
								<valuemax>3.98109</valuemax>
								<keyframe>
									<when>22269.4</when>
									<value>1.41254</value>
								</keyframe>
								<keyframe>
									<when>22274.6</when>
									<value>1.58489</value>
								</keyframe>
								<keyframe>
									<when>22325.4</when>
									<value>1.58489</value>
								</keyframe>
								<keyframe>
									<when>22346</when>
									<value>1.41254</value>
								</keyframe>
								<interpolation>
									<name>FCPCurve</name>
								</interpolation>
								<value>1.25893</value>
							</parameter>
						</effect>
					</filter>
					<filter>
						<effect>
							<name>Audio Pan</name>
							<effectid>audiopan</effectid>
							<effectcategory>audiopan</effectcategory>
							<effecttype>audiopan</effecttype>
							<mediatype>audio</mediatype>
							<parameter>
								<name>Pan</name>
								<parameterid>pan</parameterid>
								<valuemin>-1</valuemin>
								<valuemax>1</valuemax>
								<value>0</value>
							</parameter>
						</effect>
					</filter>
					<sourcetrack>
						<mediatype>audio</mediatype>
						<trackindex>2</trackindex>
					</sourcetrack>
				</clipitem>
				<transitionitem id="626552820 ">
					<rate>
						<ntsc>FALSE</ntsc>
						<timebase>25</timebase>
					</rate>
					<start>22719</start>
					<end>22721</end>
					<alignment>center</alignment>
					<effect>
						<name>Cross Fade (+3dB) Copy</name>
						<effecttype>transition</effecttype>
						<mediatype>audio</mediatype>
					</effect>
				</transitionitem>
				<clipitem id="msub200012-0409d1k1011 22">
					<name>msub200012-0409d1k1011</name>
					<duration>24527</duration>
					<rate>
						<ntsc>FALSE</ntsc>
						<timebase>25</timebase>
					</rate>
					<in>23794</in>
					<out>23821</out>
					<start>-1</start>
					<end>-1</end>
					<subframeoffset>0</subframeoffset>
					<enabled>TRUE</enabled>
					<masterclipid>msub200012-0409d1k1011 1</masterclipid>
					<syncoffset>0</syncoffset>
					<logginginfo>
						<description>msub200012-0409d1k1011</description>
						<scene/>
						<shottake/>
						<lognote/>
						<good>FALSE</good>
					</logginginfo>
					<labels>
						<label>B Roll</label>
						<label2/>
					</labels>
					<comments>
						<mastercomment1>RÅSTOFF. BR_FINFREDAG_MSUA_OPRO</mastercomment1>
						<mastercomment2/>
						<mastercomment3/>
						<mastercomment4/>
					</comments>
					<file id="msub200012-0409d1k1011 2"/>
					<filter>
						<enabled>TRUE</enabled>
						<start>-1</start>
						<end>-1</end>
						<effect>
							<name>3 Band Equalizer - Kristine</name>
							<effecttype>filter</effecttype>
							<mediatype>audio</mediatype>
							<parameter>
								<parameterid>Low Frequency</parameterid>
								<name>Low Frequency</name>
								<valuemin>80</valuemin>
								<valuemax>2000</valuemax>
								<value>80</value>
							</parameter>
							<parameter>
								<parameterid>Low Gain(dB)</parameterid>
								<name>Low Gain(dB)</name>
								<valuemin>-20</valuemin>
								<valuemax>20</valuemax>
								<value>-4</value>
							</parameter>
							<parameter>
								<parameterid>Mid Frequency</parameterid>
								<name>Mid Frequency</name>
								<valuemin>400</valuemin>
								<valuemax>8000</valuemax>
								<value>3602</value>
							</parameter>
							<parameter>
								<parameterid>Mid Gain(dB)</parameterid>
								<name>Mid Gain(dB)</name>
								<valuemin>-20</valuemin>
								<valuemax>20</valuemax>
								<value>3</value>
							</parameter>
							<parameter>
								<parameterid>High Frequency</parameterid>
								<name>High Frequency</name>
								<valuemin>5000</valuemin>
								<valuemax>20000</valuemax>
								<value>10354</value>
							</parameter>
							<parameter>
								<parameterid>High Gain(dB)</parameterid>
								<name>High Gain(dB)</name>
								<valuemin>-20</valuemin>
								<valuemax>20</valuemax>
								<value>0</value>
							</parameter>
						</effect>
					</filter>
					<filter>
						<effect>
							<name>Audio Levels</name>
							<effectid>audiolevels</effectid>
							<effectcategory>audiolevels</effectcategory>
							<effecttype>audiolevels</effecttype>
							<mediatype>audio</mediatype>
							<parameter>
								<name>Level</name>
								<parameterid>level</parameterid>
								<valuemin>0</valuemin>
								<valuemax>3.98109</valuemax>
								<value>1.41254</value>
							</parameter>
						</effect>
					</filter>
					<filter>
						<effect>
							<name>Audio Pan</name>
							<effectid>audiopan</effectid>
							<effectcategory>audiopan</effectcategory>
							<effecttype>audiopan</effecttype>
							<mediatype>audio</mediatype>
							<parameter>
								<name>Pan</name>
								<parameterid>pan</parameterid>
								<valuemin>-1</valuemin>
								<valuemax>1</valuemax>
								<value>0</value>
							</parameter>
						</effect>
					</filter>
					<sourcetrack>
						<mediatype>audio</mediatype>
						<trackindex>2</trackindex>
					</sourcetrack>
				</clipitem>
				<transitionitem id="626549692 ">
					<rate>
						<ntsc>FALSE</ntsc>
						<timebase>25</timebase>
					</rate>
					<start>22744</start>
					<end>22746</end>
					<alignment>end-black</alignment>
					<effect>
						<name>Cross Fade (+3dB) Copy</name>
						<effecttype>transition</effecttype>
						<mediatype>audio</mediatype>
					</effect>
				</transitionitem>
				<clipitem id="msub200012-0409d1k1011 23">
					<name>msub200012-0409d1k1011</name>
					<duration>24527</duration>
					<rate>
						<ntsc>FALSE</ntsc>
						<timebase>25</timebase>
					</rate>
					<in>23866</in>
					<out>23877</out>
					<start>22798</start>
					<end>22809</end>
					<subframeoffset>0</subframeoffset>
					<enabled>TRUE</enabled>
					<masterclipid>msub200012-0409d1k1011 1</masterclipid>
					<syncoffset>0</syncoffset>
					<logginginfo>
						<description>msub200012-0409d1k1011</description>
						<scene/>
						<shottake/>
						<lognote/>
						<good>FALSE</good>
					</logginginfo>
					<labels>
						<label>B Roll</label>
						<label2/>
					</labels>
					<comments>
						<mastercomment1>RÅSTOFF. BR_FINFREDAG_MSUA_OPRO</mastercomment1>
						<mastercomment2/>
						<mastercomment3/>
						<mastercomment4/>
					</comments>
					<file id="msub200012-0409d1k1011 2"/>
					<filter>
						<effect>
							<name>Audio Levels</name>
							<effectid>audiolevels</effectid>
							<effectcategory>audiolevels</effectcategory>
							<effecttype>audiolevels</effecttype>
							<mediatype>audio</mediatype>
							<parameter>
								<name>Level</name>
								<parameterid>level</parameterid>
								<valuemin>0</valuemin>
								<valuemax>3.98109</valuemax>
								<value>1</value>
							</parameter>
						</effect>
					</filter>
					<filter>
						<effect>
							<name>Audio Pan</name>
							<effectid>audiopan</effectid>
							<effectcategory>audiopan</effectcategory>
							<effecttype>audiopan</effecttype>
							<mediatype>audio</mediatype>
							<parameter>
								<name>Pan</name>
								<parameterid>pan</parameterid>
								<valuemin>-1</valuemin>
								<valuemax>1</valuemax>
								<value>0</value>
							</parameter>
						</effect>
					</filter>
					<sourcetrack>
						<mediatype>audio</mediatype>
						<trackindex>2</trackindex>
					</sourcetrack>
				</clipitem>
				<clipitem id="Hinderloype motion NY2">
					<name>Hinderloype motion NY</name>
					<duration>1663</duration>
					<rate>
						<ntsc>FALSE</ntsc>
						<timebase>25</timebase>
					</rate>
					<in>0</in>
					<out>1663</out>
					<start>23048</start>
					<end>24711</end>
					<labels>
						<label>Best Take</label>
					</labels>
					<filter>
						<effect>
							<name>Audio Levels</name>
							<effectid>audiolevels</effectid>
							<effectcategory>audiolevels</effectcategory>
							<effecttype>audiolevels</effecttype>
							<mediatype>audio</mediatype>
							<parameter>
								<name>Level</name>
								<parameterid>level</parameterid>
								<valuemin>0</valuemin>
								<valuemax>3.98109</valuemax>
								<value>1</value>
							</parameter>
						</effect>
					</filter>
					<filter>
						<effect>
							<name>Audio Pan</name>
							<effectid>audiopan</effectid>
							<effectcategory>audiopan</effectcategory>
							<effecttype>audiopan</effecttype>
							<mediatype>audio</mediatype>
							<parameter>
								<name>Pan</name>
								<parameterid>pan</parameterid>
								<valuemin>-1</valuemin>
								<valuemax>1</valuemax>
								<value>1</value>
							</parameter>
						</effect>
					</filter>
					<sequence id="Hinderloype motion NY1"/>
					<sourcetrack>
						<mediatype>audio</mediatype>
						<trackindex>2</trackindex>
					</sourcetrack>
					<link>
						<linkclipref>Hinderloype motion NY</linkclipref>
						<mediatype>audio</mediatype>
						<trackindex>3</trackindex>
						<clipindex>37</clipindex>
						<groupindex>1</groupindex>
					</link>
					<link>
						<linkclipref>Hinderloype motion NY2</linkclipref>
						<mediatype>audio</mediatype>
						<trackindex>4</trackindex>
						<clipindex>48</clipindex>
						<groupindex>1</groupindex>
					</link>
					<ismasterclip>FALSE</ismasterclip>
				</clipitem>
				<clipitem id="Fløyte - rask.aif6">
					<name>Fløyte - rask.aif</name>
					<duration>218</duration>
					<rate>
						<ntsc>FALSE</ntsc>
						<timebase>25</timebase>
					</rate>
					<in>8</in>
					<out>23</out>
					<start>24768</start>
					<end>24783</end>
					<subframeoffset>0</subframeoffset>
					<masterclipid>Fløyte - rask.aif1</masterclipid>
					<logginginfo>
						<scene/>
						<shottake/>
						<lognote/>
						<good>FALSE</good>
					</logginginfo>
					<labels>
						<label2/>
					</labels>
					<comments>
						<mastercomment1/>
						<mastercomment2/>
						<mastercomment3/>
						<mastercomment4/>
					</comments>
					<file id="Fløyte - rask"/>
					<filter>
						<effect>
							<name>Audio Levels</name>
							<effectid>audiolevels</effectid>
							<effectcategory>audiolevels</effectcategory>
							<effecttype>audiolevels</effecttype>
							<mediatype>audio</mediatype>
							<parameter>
								<name>Level</name>
								<parameterid>level</parameterid>
								<valuemin>0</valuemin>
								<valuemax>3.98109</valuemax>
								<value>0.398107</value>
							</parameter>
						</effect>
					</filter>
					<filter>
						<effect>
							<name>Audio Pan</name>
							<effectid>audiopan</effectid>
							<effectcategory>audiopan</effectcategory>
							<effecttype>audiopan</effecttype>
							<mediatype>audio</mediatype>
							<parameter>
								<name>Pan</name>
								<parameterid>pan</parameterid>
								<valuemin>-1</valuemin>
								<valuemax>1</valuemax>
								<value>1</value>
							</parameter>
						</effect>
					</filter>
					<sourcetrack>
						<mediatype>audio</mediatype>
						<trackindex>2</trackindex>
					</sourcetrack>
					<link>
						<linkclipref>Fløyte - rask.aif5</linkclipref>
						<mediatype>audio</mediatype>
						<trackindex>3</trackindex>
						<clipindex>38</clipindex>
						<groupindex>1</groupindex>
					</link>
					<link>
						<linkclipref>Fløyte - rask.aif6</linkclipref>
						<mediatype>audio</mediatype>
						<trackindex>4</trackindex>
						<clipindex>49</clipindex>
						<groupindex>1</groupindex>
					</link>
				</clipitem>
				<clipitem id="Boing - hoink - plystring.aif18">
					<name>Boing - hoink - plystring.aif</name>
					<duration>256</duration>
					<rate>
						<ntsc>FALSE</ntsc>
						<timebase>25</timebase>
					</rate>
					<in>36</in>
					<out>46</out>
					<start>24785</start>
					<end>24795</end>
					<subframeoffset>0</subframeoffset>
					<masterclipid>Boing - hoink - plystring.aif1</masterclipid>
					<logginginfo>
						<scene/>
						<shottake/>
						<lognote/>
						<good>FALSE</good>
					</logginginfo>
					<labels>
						<label2/>
					</labels>
					<comments>
						<mastercomment1/>
						<mastercomment2/>
						<mastercomment3/>
						<mastercomment4/>
					</comments>
					<file id="Boing - hoink - plystring"/>
					<filter>
						<effect>
							<name>Audio Levels</name>
							<effectid>audiolevels</effectid>
							<effectcategory>audiolevels</effectcategory>
							<effecttype>audiolevels</effecttype>
							<mediatype>audio</mediatype>
							<parameter>
								<name>Level</name>
								<parameterid>level</parameterid>
								<valuemin>0</valuemin>
								<valuemax>3.98109</valuemax>
								<value>0.446684</value>
							</parameter>
						</effect>
					</filter>
					<filter>
						<effect>
							<name>Audio Pan</name>
							<effectid>audiopan</effectid>
							<effectcategory>audiopan</effectcategory>
							<effecttype>audiopan</effecttype>
							<mediatype>audio</mediatype>
							<parameter>
								<name>Pan</name>
								<parameterid>pan</parameterid>
								<valuemin>-1</valuemin>
								<valuemax>1</valuemax>
								<value>1</value>
							</parameter>
						</effect>
					</filter>
					<sourcetrack>
						<mediatype>audio</mediatype>
						<trackindex>2</trackindex>
					</sourcetrack>
					<link>
						<linkclipref>Boing - hoink - plystring.aif17</linkclipref>
						<mediatype>audio</mediatype>
						<trackindex>3</trackindex>
						<clipindex>39</clipindex>
						<groupindex>1</groupindex>
					</link>
					<link>
						<linkclipref>Boing - hoink - plystring.aif18</linkclipref>
						<mediatype>audio</mediatype>
						<trackindex>4</trackindex>
						<clipindex>50</clipindex>
						<groupindex>1</groupindex>
					</link>
				</clipitem>
				<clipitem id="Fløyte - rask.aif8">
					<name>Fløyte - rask.aif</name>
					<duration>218</duration>
					<rate>
						<ntsc>FALSE</ntsc>
						<timebase>25</timebase>
					</rate>
					<in>8</in>
					<out>23</out>
					<start>25824</start>
					<end>25839</end>
					<subframeoffset>0</subframeoffset>
					<masterclipid>Fløyte - rask.aif1</masterclipid>
					<logginginfo>
						<scene/>
						<shottake/>
						<lognote/>
						<good>FALSE</good>
					</logginginfo>
					<labels>
						<label2/>
					</labels>
					<comments>
						<mastercomment1/>
						<mastercomment2/>
						<mastercomment3/>
						<mastercomment4/>
					</comments>
					<file id="Fløyte - rask"/>
					<filter>
						<effect>
							<name>Audio Levels</name>
							<effectid>audiolevels</effectid>
							<effectcategory>audiolevels</effectcategory>
							<effecttype>audiolevels</effecttype>
							<mediatype>audio</mediatype>
							<parameter>
								<name>Level</name>
								<parameterid>level</parameterid>
								<valuemin>0</valuemin>
								<valuemax>3.98109</valuemax>
								<value>0.501187</value>
							</parameter>
						</effect>
					</filter>
					<filter>
						<effect>
							<name>Audio Pan</name>
							<effectid>audiopan</effectid>
							<effectcategory>audiopan</effectcategory>
							<effecttype>audiopan</effecttype>
							<mediatype>audio</mediatype>
							<parameter>
								<name>Pan</name>
								<parameterid>pan</parameterid>
								<valuemin>-1</valuemin>
								<valuemax>1</valuemax>
								<value>1</value>
							</parameter>
						</effect>
					</filter>
					<sourcetrack>
						<mediatype>audio</mediatype>
						<trackindex>2</trackindex>
					</sourcetrack>
					<link>
						<linkclipref>Fløyte - rask.aif7</linkclipref>
						<mediatype>audio</mediatype>
						<trackindex>3</trackindex>
						<clipindex>40</clipindex>
						<groupindex>1</groupindex>
					</link>
					<link>
						<linkclipref>Fløyte - rask.aif8</linkclipref>
						<mediatype>audio</mediatype>
						<trackindex>4</trackindex>
						<clipindex>51</clipindex>
						<groupindex>1</groupindex>
					</link>
				</clipitem>
				<clipitem id="Boing - hoink - plystring.aif20">
					<name>Boing - hoink - plystring.aif</name>
					<duration>256</duration>
					<rate>
						<ntsc>FALSE</ntsc>
						<timebase>25</timebase>
					</rate>
					<in>36</in>
					<out>44</out>
					<start>25839</start>
					<end>25847</end>
					<subframeoffset>0</subframeoffset>
					<masterclipid>Boing - hoink - plystring.aif1</masterclipid>
					<logginginfo>
						<scene/>
						<shottake/>
						<lognote/>
						<good>FALSE</good>
					</logginginfo>
					<labels>
						<label2/>
					</labels>
					<comments>
						<mastercomment1/>
						<mastercomment2/>
						<mastercomment3/>
						<mastercomment4/>
					</comments>
					<file id="Boing - hoink - plystring"/>
					<filter>
						<effect>
							<name>Audio Levels</name>
							<effectid>audiolevels</effectid>
							<effectcategory>audiolevels</effectcategory>
							<effecttype>audiolevels</effecttype>
							<mediatype>audio</mediatype>
							<parameter>
								<name>Level</name>
								<parameterid>level</parameterid>
								<valuemin>0</valuemin>
								<valuemax>3.98109</valuemax>
								<value>0.630957</value>
							</parameter>
						</effect>
					</filter>
					<filter>
						<effect>
							<name>Audio Pan</name>
							<effectid>audiopan</effectid>
							<effectcategory>audiopan</effectcategory>
							<effecttype>audiopan</effecttype>
							<mediatype>audio</mediatype>
							<parameter>
								<name>Pan</name>
								<parameterid>pan</parameterid>
								<valuemin>-1</valuemin>
								<valuemax>1</valuemax>
								<value>1</value>
							</parameter>
						</effect>
					</filter>
					<sourcetrack>
						<mediatype>audio</mediatype>
						<trackindex>2</trackindex>
					</sourcetrack>
					<link>
						<linkclipref>Boing - hoink - plystring.aif19</linkclipref>
						<mediatype>audio</mediatype>
						<trackindex>3</trackindex>
						<clipindex>41</clipindex>
						<groupindex>1</groupindex>
					</link>
					<link>
						<linkclipref>Boing - hoink - plystring.aif20</linkclipref>
						<mediatype>audio</mediatype>
						<trackindex>4</trackindex>
						<clipindex>52</clipindex>
						<groupindex>1</groupindex>
					</link>
				</clipitem>
				<clipitem id="Boing - hoink - plystring.aif22">
					<name>Boing - hoink - plystring.aif</name>
					<duration>256</duration>
					<rate>
						<ntsc>FALSE</ntsc>
						<timebase>25</timebase>
					</rate>
					<in>36</in>
					<out>46</out>
					<start>25852</start>
					<end>25862</end>
					<subframeoffset>0</subframeoffset>
					<masterclipid>Boing - hoink - plystring.aif1</masterclipid>
					<logginginfo>
						<scene/>
						<shottake/>
						<lognote/>
						<good>FALSE</good>
					</logginginfo>
					<labels>
						<label2/>
					</labels>
					<comments>
						<mastercomment1/>
						<mastercomment2/>
						<mastercomment3/>
						<mastercomment4/>
					</comments>
					<file id="Boing - hoink - plystring"/>
					<filter>
						<effect>
							<name>Audio Levels</name>
							<effectid>audiolevels</effectid>
							<effectcategory>audiolevels</effectcategory>
							<effecttype>audiolevels</effecttype>
							<mediatype>audio</mediatype>
							<parameter>
								<name>Level</name>
								<parameterid>level</parameterid>
								<valuemin>0</valuemin>
								<valuemax>3.98109</valuemax>
								<value>0.446684</value>
							</parameter>
						</effect>
					</filter>
					<filter>
						<effect>
							<name>Audio Pan</name>
							<effectid>audiopan</effectid>
							<effectcategory>audiopan</effectcategory>
							<effecttype>audiopan</effecttype>
							<mediatype>audio</mediatype>
							<parameter>
								<name>Pan</name>
								<parameterid>pan</parameterid>
								<valuemin>-1</valuemin>
								<valuemax>1</valuemax>
								<value>1</value>
							</parameter>
						</effect>
					</filter>
					<sourcetrack>
						<mediatype>audio</mediatype>
						<trackindex>2</trackindex>
					</sourcetrack>
					<link>
						<linkclipref>Boing - hoink - plystring.aif21</linkclipref>
						<mediatype>audio</mediatype>
						<trackindex>3</trackindex>
						<clipindex>42</clipindex>
						<groupindex>1</groupindex>
					</link>
					<link>
						<linkclipref>Boing - hoink - plystring.aif22</linkclipref>
						<mediatype>audio</mediatype>
						<trackindex>4</trackindex>
						<clipindex>53</clipindex>
						<groupindex>1</groupindex>
					</link>
				</clipitem>
				<clipitem id="gong.wav">
					<name>gong.wav</name>
					<duration>42</duration>
					<rate>
						<ntsc>FALSE</ntsc>
						<timebase>25</timebase>
					</rate>
					<in>0</in>
					<out>42</out>
					<start>27322</start>
					<end>27364</end>
					<masterclipid>gong.wav1</masterclipid>
					<logginginfo>
						<scene/>
						<shottake/>
						<lognote/>
						<good>FALSE</good>
					</logginginfo>
					<labels>
						<label2/>
					</labels>
					<comments>
						<mastercomment1/>
						<mastercomment2/>
						<mastercomment3/>
						<mastercomment4/>
					</comments>
					<file id="gong">
						<name>gong.wav</name>
						<pathurl>file://localhost/Volumes/SuperSAN1/Prosjekter/MSUB20000012%20FIN%20FREDAG/FCP-prosjekter/program%201/Musikk/Hinderloype%20SFX/gong.wav</pathurl>
						<rate>
							<timebase>25</timebase>
						</rate>
						<duration>42</duration>
						<media>
							<audio>
								<rate>
									<timebase>22050</timebase>
								</rate>
								<trackcount>1</trackcount>
								<samplecharacteristics>
									<depth>16</depth>
								</samplecharacteristics>
							</audio>
						</media>
					</file>
					<filter>
						<effect>
							<name>Audio Levels</name>
							<effectid>audiolevels</effectid>
							<effectcategory>audiolevels</effectcategory>
							<effecttype>audiolevels</effecttype>
							<mediatype>audio</mediatype>
							<parameter>
								<name>Level</name>
								<parameterid>level</parameterid>
								<valuemin>0</valuemin>
								<valuemax>3.98109</valuemax>
								<value>0.141254</value>
							</parameter>
						</effect>
					</filter>
					<filter>
						<effect>
							<name>Audio Pan</name>
							<effectid>audiopan</effectid>
							<effectcategory>audiopan</effectcategory>
							<effecttype>audiopan</effecttype>
							<mediatype>audio</mediatype>
							<parameter>
								<name>Pan</name>
								<parameterid>pan</parameterid>
								<valuemin>-1</valuemin>
								<valuemax>1</valuemax>
								<value>0</value>
							</parameter>
						</effect>
					</filter>
					<sourcetrack>
						<mediatype>audio</mediatype>
						<trackindex>1</trackindex>
					</sourcetrack>
				</clipitem>
				<transitionitem id="626536908 ">
					<rate>
						<ntsc>FALSE</ntsc>
						<timebase>25</timebase>
					</rate>
					<start>34859</start>
					<end>34865</end>
					<alignment>center</alignment>
					<effect>
						<name>Cross Fade (+3dB) Copy</name>
						<effecttype>transition</effecttype>
						<mediatype>audio</mediatype>
					</effect>
				</transitionitem>
				<clipitem id="FIN_FREDAP01_3 ">
					<name>FIN_FREDAP01_3</name>
					<duration>17000</duration>
					<rate>
						<ntsc>FALSE</ntsc>
						<timebase>25</timebase>
					</rate>
					<in>7450</in>
					<out>7592</out>
					<start>-1</start>
					<end>-1</end>
					<enabled>TRUE</enabled>
					<masterclipid>FIN_FREDAP01_3 1</masterclipid>
					<logginginfo>
						<scene>FIN_FREDA</scene>
						<shottake>01</shottake>
						<lognote/>
						<good>FALSE</good>
					</logginginfo>
					<labels>
						<label2/>
					</labels>
					<comments>
						<mastercomment1/>
						<mastercomment2/>
						<mastercomment3/>
						<mastercomment4/>
					</comments>
					<file id="FIN_FREDAP01_3 2">
						<name>FIN_FREDAP01_3.WAV</name>
						<pathurl>file://localhost/Volumes/SuperSAN1/Prosjekter/MSUB20000012%20FIN%20FREDAG/FCP-prosjekter/program%201/Konsertlyd/FIN_FREDAP01_3.WAV</pathurl>
						<rate>
							<timebase>25</timebase>
						</rate>
						<duration>17000</duration>
						<timecode>
							<rate>
								<timebase>25</timebase>
							</rate>
							<string>00:55:26:00</string>
							<frame>83150</frame>
							<displayformat>NDF</displayformat>
							<source>source</source>
							<reel>
								<name>120904</name>
							</reel>
						</timecode>
						<media>
							<audio>
								<rate>
									<timebase>48000</timebase>
								</rate>
								<trackcount>1</trackcount>
								<samplecharacteristics>
									<depth>24</depth>
								</samplecharacteristics>
							</audio>
						</media>
					</file>
					<filter>
						<effect>
							<name>Audio Levels</name>
							<effectid>audiolevels</effectid>
							<effectcategory>audiolevels</effectcategory>
							<effecttype>audiolevels</effecttype>
							<mediatype>audio</mediatype>
							<parameter>
								<name>Level</name>
								<parameterid>level</parameterid>
								<valuemin>0</valuemin>
								<valuemax>3.98109</valuemax>
								<keyframe>
									<when>2185.5</when>
									<value>0.0891251</value>
								</keyframe>
								<keyframe>
									<when>2191.5</when>
									<value>2.51189</value>
								</keyframe>
								<keyframe>
									<when>2222.25</when>
									<value>2.51189</value>
								</keyframe>
								<keyframe>
									<when>2243.25</when>
									<value>0.199526</value>
								</keyframe>
								<keyframe>
									<when>3141</when>
									<value>0.199526</value>
								</keyframe>
								<keyframe>
									<when>3228</when>
									<value>0.630957</value>
								</keyframe>
								<keyframe>
									<when>3405</when>
									<value>0.707946</value>
								</keyframe>
								<keyframe>
									<when>3513</when>
									<value>0.891251</value>
								</keyframe>
								<keyframe>
									<when>3666</when>
									<value>0.891251</value>
								</keyframe>
								<keyframe>
									<when>3720</when>
									<value>0.281838</value>
								</keyframe>
								<keyframe>
									<when>4764</when>
									<value>0.281838</value>
								</keyframe>
								<keyframe>
									<when>4785</when>
									<value>1</value>
								</keyframe>
								<keyframe>
									<when>4960.5</when>
									<value>1</value>
								</keyframe>
								<keyframe>
									<when>5082</when>
									<value>0.281838</value>
								</keyframe>
								<keyframe>
									<when>6058.5</when>
									<value>0.281838</value>
								</keyframe>
								<keyframe>
									<when>6150</when>
									<value>2.23872</value>
								</keyframe>
								<keyframe>
									<when>6640.5</when>
									<value>2.23872</value>
								</keyframe>
								<keyframe>
									<when>6726</when>
									<value>0.549776</value>
								</keyframe>
								<keyframe>
									<when>7428</when>
									<value>0.331922</value>
								</keyframe>
								<keyframe>
									<when>7449</when>
									<value>0.794328</value>
								</keyframe>
								<keyframe>
									<when>7522.88</when>
									<value>0.794328</value>
								</keyframe>
								<keyframe>
									<when>7530</when>
									<value>0.501187</value>
								</keyframe>
								<keyframe>
									<when>7582.5</when>
									<value>0.281838</value>
								</keyframe>
								<interpolation>
									<name>FCPCurve</name>
								</interpolation>
								<value>1</value>
							</parameter>
						</effect>
					</filter>
					<filter>
						<effect>
							<name>Audio Pan</name>
							<effectid>audiopan</effectid>
							<effectcategory>audiopan</effectcategory>
							<effecttype>audiopan</effecttype>
							<mediatype>audio</mediatype>
							<parameter>
								<name>Pan</name>
								<parameterid>pan</parameterid>
								<valuemin>-1</valuemin>
								<valuemax>1</valuemax>
								<value>0</value>
							</parameter>
						</effect>
					</filter>
					<sourcetrack>
						<mediatype>audio</mediatype>
						<trackindex>1</trackindex>
					</sourcetrack>
				</clipitem>
				<transitionitem id="626532080 ">
					<rate>
						<ntsc>FALSE</ntsc>
						<timebase>25</timebase>
					</rate>
					<start>34951</start>
					<end>35001</end>
					<alignment>end-black</alignment>
					<effect>
						<name>Cross Fade ( 0dB)</name>
						<effecttype>transition</effecttype>
						<mediatype>audio</mediatype>
					</effect>
				</transitionitem>
				<transitionitem id="626532760 ">
					<rate>
						<ntsc>FALSE</ntsc>
						<timebase>25</timebase>
					</rate>
					<start>36206</start>
					<end>36212</end>
					<alignment>start-black</alignment>
					<effect>
						<name>Cross Fade (+3dB) Copy</name>
						<effecttype>transition</effecttype>
						<mediatype>audio</mediatype>
					</effect>
				</transitionitem>
				<clipitem id="SkypeScreenSnapz001 2">
					<name>SkypeScreenSnapz001</name>
					<duration>9740</duration>
					<rate>
						<ntsc>FALSE</ntsc>
						<timebase>25</timebase>
					</rate>
					<in>557</in>
					<out>692</out>
					<start>-1</start>
					<end>36341</end>
					<enabled>TRUE</enabled>
					<logginginfo>
						<scene/>
						<shottake/>
						<lognote/>
						<good>FALSE</good>
					</logginginfo>
					<labels>
						<label2/>
					</labels>
					<comments>
						<mastercomment1/>
						<mastercomment2/>
						<mastercomment3/>
						<mastercomment4/>
					</comments>
					<file id="SkypeScreenSnapz001 1"/>
					<filter>
						<effect>
							<name>Audio Levels</name>
							<effectid>audiolevels</effectid>
							<effectcategory>audiolevels</effectcategory>
							<effecttype>audiolevels</effecttype>
							<mediatype>audio</mediatype>
							<parameter>
								<name>Level</name>
								<parameterid>level</parameterid>
								<valuemin>0</valuemin>
								<valuemax>3.98109</valuemax>
								<value>0.501187</value>
							</parameter>
						</effect>
					</filter>
					<filter>
						<effect>
							<name>Audio Pan</name>
							<effectid>audiopan</effectid>
							<effectcategory>audiopan</effectcategory>
							<effecttype>audiopan</effecttype>
							<mediatype>audio</mediatype>
							<parameter>
								<name>Pan</name>
								<parameterid>pan</parameterid>
								<valuemin>-1</valuemin>
								<valuemax>1</valuemax>
								<value>-0</value>
							</parameter>
						</effect>
					</filter>
					<sourcetrack>
						<mediatype>audio</mediatype>
						<trackindex>2</trackindex>
					</sourcetrack>
					<link>
						<linkclipref>SkypeScreenSnapz001 </linkclipref>
						<mediatype>audio</mediatype>
						<trackindex>3</trackindex>
						<clipindex>47</clipindex>
						<groupindex>1</groupindex>
					</link>
					<link>
						<linkclipref>SkypeScreenSnapz001 2</linkclipref>
						<mediatype>audio</mediatype>
						<trackindex>4</trackindex>
						<clipindex>59</clipindex>
						<groupindex>1</groupindex>
					</link>
				</clipitem>
				<clipitem id="SkypeScreenSnapz001 4">
					<name>SkypeScreenSnapz001</name>
					<duration>9740</duration>
					<rate>
						<ntsc>FALSE</ntsc>
						<timebase>25</timebase>
					</rate>
					<in>746</in>
					<out>1039</out>
					<start>36341</start>
					<end>36634</end>
					<enabled>TRUE</enabled>
					<logginginfo>
						<scene/>
						<shottake/>
						<lognote/>
						<good>FALSE</good>
					</logginginfo>
					<labels>
						<label2/>
					</labels>
					<comments>
						<mastercomment1/>
						<mastercomment2/>
						<mastercomment3/>
						<mastercomment4/>
					</comments>
					<file id="SkypeScreenSnapz001 1"/>
					<filter>
						<effect>
							<name>Audio Levels</name>
							<effectid>audiolevels</effectid>
							<effectcategory>audiolevels</effectcategory>
							<effecttype>audiolevels</effecttype>
							<mediatype>audio</mediatype>
							<parameter>
								<name>Level</name>
								<parameterid>level</parameterid>
								<valuemin>0</valuemin>
								<valuemax>3.98109</valuemax>
								<keyframe>
									<when>810.929</when>
									<value>0.501187</value>
								</keyframe>
								<keyframe>
									<when>815.107</when>
									<value>1</value>
								</keyframe>
								<keyframe>
									<when>839.054</when>
									<value>1</value>
								</keyframe>
								<keyframe>
									<when>840.661</when>
									<value>0.501187</value>
								</keyframe>
								<keyframe>
									<when>1004.57</when>
									<value>0.501187</value>
								</keyframe>
								<keyframe>
									<when>1008.05</when>
									<value>0</value>
								</keyframe>
								<keyframe>
									<when>1018.5</when>
									<value>0</value>
								</keyframe>
								<keyframe>
									<when>1022.56</when>
									<value>1</value>
								</keyframe>
								<interpolation>
									<name>FCPCurve</name>
								</interpolation>
								<value>1</value>
							</parameter>
						</effect>
					</filter>
					<filter>
						<effect>
							<name>Audio Pan</name>
							<effectid>audiopan</effectid>
							<effectcategory>audiopan</effectcategory>
							<effecttype>audiopan</effecttype>
							<mediatype>audio</mediatype>
							<parameter>
								<name>Pan</name>
								<parameterid>pan</parameterid>
								<valuemin>-1</valuemin>
								<valuemax>1</valuemax>
								<value>-0</value>
							</parameter>
						</effect>
					</filter>
					<sourcetrack>
						<mediatype>audio</mediatype>
						<trackindex>2</trackindex>
					</sourcetrack>
					<link>
						<linkclipref>SkypeScreenSnapz001 3</linkclipref>
						<mediatype>audio</mediatype>
						<trackindex>3</trackindex>
						<clipindex>48</clipindex>
						<groupindex>1</groupindex>
					</link>
					<link>
						<linkclipref>SkypeScreenSnapz001 4</linkclipref>
						<mediatype>audio</mediatype>
						<trackindex>4</trackindex>
						<clipindex>60</clipindex>
						<groupindex>1</groupindex>
					</link>
				</clipitem>
				<clipitem id="SkypeScreenSnapz001 6">
					<name>SkypeScreenSnapz001</name>
					<duration>9740</duration>
					<rate>
						<ntsc>FALSE</ntsc>
						<timebase>25</timebase>
					</rate>
					<in>1211</in>
					<out>1269</out>
					<start>36638</start>
					<end>-1</end>
					<enabled>TRUE</enabled>
					<logginginfo>
						<scene/>
						<shottake/>
						<lognote/>
						<good>FALSE</good>
					</logginginfo>
					<labels>
						<label2/>
					</labels>
					<comments>
						<mastercomment1/>
						<mastercomment2/>
						<mastercomment3/>
						<mastercomment4/>
					</comments>
					<file id="SkypeScreenSnapz001 1"/>
					<filter>
						<effect>
							<name>Audio Levels</name>
							<effectid>audiolevels</effectid>
							<effectcategory>audiolevels</effectcategory>
							<effecttype>audiolevels</effecttype>
							<mediatype>audio</mediatype>
							<parameter>
								<name>Level</name>
								<parameterid>level</parameterid>
								<valuemin>0</valuemin>
								<valuemax>3.98109</valuemax>
								<value>0.446684</value>
							</parameter>
						</effect>
					</filter>
					<filter>
						<effect>
							<name>Audio Pan</name>
							<effectid>audiopan</effectid>
							<effectcategory>audiopan</effectcategory>
							<effecttype>audiopan</effecttype>
							<mediatype>audio</mediatype>
							<parameter>
								<name>Pan</name>
								<parameterid>pan</parameterid>
								<valuemin>-1</valuemin>
								<valuemax>1</valuemax>
								<value>-0</value>
							</parameter>
						</effect>
					</filter>
					<sourcetrack>
						<mediatype>audio</mediatype>
						<trackindex>2</trackindex>
					</sourcetrack>
					<link>
						<linkclipref>SkypeScreenSnapz001 5</linkclipref>
						<mediatype>audio</mediatype>
						<trackindex>3</trackindex>
						<clipindex>49</clipindex>
						<groupindex>1</groupindex>
					</link>
					<link>
						<linkclipref>SkypeScreenSnapz001 6</linkclipref>
						<mediatype>audio</mediatype>
						<trackindex>4</trackindex>
						<clipindex>61</clipindex>
						<groupindex>1</groupindex>
					</link>
				</clipitem>
				<transitionitem id="626533236 ">
					<rate>
						<ntsc>FALSE</ntsc>
						<timebase>25</timebase>
					</rate>
					<start>36694</start>
					<end>36696</end>
					<alignment>center</alignment>
					<effect>
						<name>Cross Fade (+3dB) Copy</name>
						<effecttype>transition</effecttype>
						<mediatype>audio</mediatype>
					</effect>
				</transitionitem>
				<clipitem id="SkypeScreenSnapz001 8">
					<name>SkypeScreenSnapz001</name>
					<duration>9740</duration>
					<rate>
						<ntsc>FALSE</ntsc>
						<timebase>25</timebase>
					</rate>
					<in>1312</in>
					<out>1500</out>
					<start>-1</start>
					<end>36882</end>
					<enabled>TRUE</enabled>
					<logginginfo>
						<scene/>
						<shottake/>
						<lognote/>
						<good>FALSE</good>
					</logginginfo>
					<labels>
						<label2/>
					</labels>
					<comments>
						<mastercomment1/>
						<mastercomment2/>
						<mastercomment3/>
						<mastercomment4/>
					</comments>
					<file id="SkypeScreenSnapz001 1"/>
					<filter>
						<effect>
							<name>Audio Levels</name>
							<effectid>audiolevels</effectid>
							<effectcategory>audiolevels</effectcategory>
							<effecttype>audiolevels</effecttype>
							<mediatype>audio</mediatype>
							<parameter>
								<name>Level</name>
								<parameterid>level</parameterid>
								<valuemin>0</valuemin>
								<valuemax>3.98109</valuemax>
								<keyframe>
									<when>1361.77</when>
									<value>1</value>
								</keyframe>
								<keyframe>
									<when>1363.23</when>
									<value>0.124999</value>
								</keyframe>
								<keyframe>
									<when>1367.62</when>
									<value>0</value>
								</keyframe>
								<keyframe>
									<when>1387.39</when>
									<value>0</value>
								</keyframe>
								<keyframe>
									<when>1388.86</when>
									<value>0.0112202</value>
								</keyframe>
								<keyframe>
									<when>1397.64</when>
									<value>0.891251</value>
								</keyframe>
								<keyframe>
									<when>1475.54</when>
									<value>0.891251</value>
								</keyframe>
								<keyframe>
									<when>1481</when>
									<value>0</value>
								</keyframe>
								<keyframe>
									<when>1488.39</when>
									<value>0</value>
								</keyframe>
								<interpolation>
									<name>FCPCurve</name>
								</interpolation>
								<value>1</value>
							</parameter>
						</effect>
					</filter>
					<filter>
						<effect>
							<name>Audio Pan</name>
							<effectid>audiopan</effectid>
							<effectcategory>audiopan</effectcategory>
							<effecttype>audiopan</effecttype>
							<mediatype>audio</mediatype>
							<parameter>
								<name>Pan</name>
								<parameterid>pan</parameterid>
								<valuemin>-1</valuemin>
								<valuemax>1</valuemax>
								<value>-0</value>
							</parameter>
						</effect>
					</filter>
					<sourcetrack>
						<mediatype>audio</mediatype>
						<trackindex>2</trackindex>
					</sourcetrack>
					<link>
						<linkclipref>SkypeScreenSnapz001 7</linkclipref>
						<mediatype>audio</mediatype>
						<trackindex>3</trackindex>
						<clipindex>51</clipindex>
						<groupindex>1</groupindex>
					</link>
					<link>
						<linkclipref>SkypeScreenSnapz001 8</linkclipref>
						<mediatype>audio</mediatype>
						<trackindex>4</trackindex>
						<clipindex>63</clipindex>
						<groupindex>1</groupindex>
					</link>
				</clipitem>
				<clipitem id="SkypeScreenSnapz001 10">
					<name>SkypeScreenSnapz001</name>
					<duration>9740</duration>
					<rate>
						<ntsc>FALSE</ntsc>
						<timebase>25</timebase>
					</rate>
					<in>1565</in>
					<out>1650</out>
					<start>36882</start>
					<end>36967</end>
					<enabled>TRUE</enabled>
					<logginginfo>
						<scene/>
						<shottake/>
						<lognote/>
						<good>FALSE</good>
					</logginginfo>
					<labels>
						<label2/>
					</labels>
					<comments>
						<mastercomment1/>
						<mastercomment2/>
						<mastercomment3/>
						<mastercomment4/>
					</comments>
					<file id="SkypeScreenSnapz001 1"/>
					<filter>
						<effect>
							<name>Audio Levels</name>
							<effectid>audiolevels</effectid>
							<effectcategory>audiolevels</effectcategory>
							<effecttype>audiolevels</effecttype>
							<mediatype>audio</mediatype>
							<parameter>
								<name>Level</name>
								<parameterid>level</parameterid>
								<valuemin>0</valuemin>
								<valuemax>3.98109</valuemax>
								<value>1</value>
							</parameter>
						</effect>
					</filter>
					<filter>
						<effect>
							<name>Audio Pan</name>
							<effectid>audiopan</effectid>
							<effectcategory>audiopan</effectcategory>
							<effecttype>audiopan</effecttype>
							<mediatype>audio</mediatype>
							<parameter>
								<name>Pan</name>
								<parameterid>pan</parameterid>
								<valuemin>-1</valuemin>
								<valuemax>1</valuemax>
								<value>-0</value>
							</parameter>
						</effect>
					</filter>
					<sourcetrack>
						<mediatype>audio</mediatype>
						<trackindex>2</trackindex>
					</sourcetrack>
					<link>
						<linkclipref>SkypeScreenSnapz001 9</linkclipref>
						<mediatype>audio</mediatype>
						<trackindex>3</trackindex>
						<clipindex>52</clipindex>
						<groupindex>1</groupindex>
					</link>
					<link>
						<linkclipref>SkypeScreenSnapz001 10</linkclipref>
						<mediatype>audio</mediatype>
						<trackindex>4</trackindex>
						<clipindex>64</clipindex>
						<groupindex>1</groupindex>
					</link>
				</clipitem>
				<clipitem id="SkypeScreenSnapz001 12">
					<name>SkypeScreenSnapz001</name>
					<duration>9740</duration>
					<rate>
						<ntsc>FALSE</ntsc>
						<timebase>25</timebase>
					</rate>
					<in>1802</in>
					<out>2499</out>
					<start>36967</start>
					<end>-1</end>
					<enabled>TRUE</enabled>
					<logginginfo>
						<scene/>
						<shottake/>
						<lognote/>
						<good>FALSE</good>
					</logginginfo>
					<labels>
						<label2/>
					</labels>
					<comments>
						<mastercomment1/>
						<mastercomment2/>
						<mastercomment3/>
						<mastercomment4/>
					</comments>
					<file id="SkypeScreenSnapz001 1"/>
					<filter>
						<effect>
							<name>Audio Levels</name>
							<effectid>audiolevels</effectid>
							<effectcategory>audiolevels</effectcategory>
							<effecttype>audiolevels</effecttype>
							<mediatype>audio</mediatype>
							<parameter>
								<name>Level</name>
								<parameterid>level</parameterid>
								<valuemin>0</valuemin>
								<valuemax>3.98109</valuemax>
								<keyframe>
									<when>2472.64</when>
									<value>1</value>
								</keyframe>
								<keyframe>
									<when>2477.79</when>
									<value>0.794328</value>
								</keyframe>
								<interpolation>
									<name>FCPCurve</name>
								</interpolation>
								<value>1</value>
							</parameter>
						</effect>
					</filter>
					<filter>
						<effect>
							<name>Audio Pan</name>
							<effectid>audiopan</effectid>
							<effectcategory>audiopan</effectcategory>
							<effecttype>audiopan</effecttype>
							<mediatype>audio</mediatype>
							<parameter>
								<name>Pan</name>
								<parameterid>pan</parameterid>
								<valuemin>-1</valuemin>
								<valuemax>1</valuemax>
								<value>-0</value>
							</parameter>
						</effect>
					</filter>
					<sourcetrack>
						<mediatype>audio</mediatype>
						<trackindex>2</trackindex>
					</sourcetrack>
					<link>
						<linkclipref>SkypeScreenSnapz001 11</linkclipref>
						<mediatype>audio</mediatype>
						<trackindex>3</trackindex>
						<clipindex>53</clipindex>
						<groupindex>1</groupindex>
					</link>
					<link>
						<linkclipref>SkypeScreenSnapz001 12</linkclipref>
						<mediatype>audio</mediatype>
						<trackindex>4</trackindex>
						<clipindex>65</clipindex>
						<groupindex>1</groupindex>
					</link>
				</clipitem>
				<transitionitem id="626532284 ">
					<rate>
						<ntsc>FALSE</ntsc>
						<timebase>25</timebase>
					</rate>
					<start>37659</start>
					<end>37664</end>
					<alignment>center</alignment>
					<effect>
						<name>Cross Fade (+3dB)</name>
						<effecttype>transition</effecttype>
						<mediatype>audio</mediatype>
					</effect>
				</transitionitem>
				<clipitem id="SkypeScreenSnapz001 14">
					<name>SkypeScreenSnapz001</name>
					<duration>9740</duration>
					<rate>
						<ntsc>FALSE</ntsc>
						<timebase>25</timebase>
					</rate>
					<in>2857</in>
					<out>3105</out>
					<start>-1</start>
					<end>-1</end>
					<enabled>TRUE</enabled>
					<logginginfo>
						<scene/>
						<shottake/>
						<lognote/>
						<good>FALSE</good>
					</logginginfo>
					<labels>
						<label2/>
					</labels>
					<comments>
						<mastercomment1/>
						<mastercomment2/>
						<mastercomment3/>
						<mastercomment4/>
					</comments>
					<file id="SkypeScreenSnapz001 1"/>
					<filter>
						<effect>
							<name>Audio Levels</name>
							<effectid>audiolevels</effectid>
							<effectcategory>audiolevels</effectcategory>
							<effecttype>audiolevels</effecttype>
							<mediatype>audio</mediatype>
							<parameter>
								<name>Level</name>
								<parameterid>level</parameterid>
								<valuemin>0</valuemin>
								<valuemax>3.98109</valuemax>
								<keyframe>
									<when>2939.46</when>
									<value>0.501187</value>
								</keyframe>
								<keyframe>
									<when>2943</when>
									<value>0.630957</value>
								</keyframe>
								<keyframe>
									<when>2965.18</when>
									<value>0.630957</value>
								</keyframe>
								<keyframe>
									<when>2970.32</when>
									<value>0.501187</value>
								</keyframe>
								<keyframe>
									<when>3078.32</when>
									<value>0.501187</value>
								</keyframe>
								<keyframe>
									<when>3081.54</when>
									<value>0.446684</value>
								</keyframe>
								<keyframe>
									<when>3091.18</when>
									<value>0.446684</value>
								</keyframe>
								<keyframe>
									<when>3095.04</when>
									<value>0.501187</value>
								</keyframe>
								<interpolation>
									<name>FCPCurve</name>
								</interpolation>
								<value>0.501187</value>
							</parameter>
						</effect>
					</filter>
					<filter>
						<effect>
							<name>Audio Pan</name>
							<effectid>audiopan</effectid>
							<effectcategory>audiopan</effectcategory>
							<effecttype>audiopan</effecttype>
							<mediatype>audio</mediatype>
							<parameter>
								<name>Pan</name>
								<parameterid>pan</parameterid>
								<valuemin>-1</valuemin>
								<valuemax>1</valuemax>
								<value>-0</value>
							</parameter>
						</effect>
					</filter>
					<sourcetrack>
						<mediatype>audio</mediatype>
						<trackindex>2</trackindex>
					</sourcetrack>
					<link>
						<linkclipref>SkypeScreenSnapz001 13</linkclipref>
						<mediatype>audio</mediatype>
						<trackindex>3</trackindex>
						<clipindex>55</clipindex>
						<groupindex>1</groupindex>
					</link>
					<link>
						<linkclipref>SkypeScreenSnapz001 14</linkclipref>
						<mediatype>audio</mediatype>
						<trackindex>4</trackindex>
						<clipindex>67</clipindex>
						<groupindex>1</groupindex>
					</link>
				</clipitem>
				<transitionitem id="626532556 ">
					<rate>
						<ntsc>FALSE</ntsc>
						<timebase>25</timebase>
					</rate>
					<start>37901</start>
					<end>37907</end>
					<alignment>center</alignment>
					<effect>
						<name>Cross Fade (+3dB) Copy</name>
						<effecttype>transition</effecttype>
						<mediatype>audio</mediatype>
					</effect>
				</transitionitem>
				<clipitem id="SkypeScreenSnapz001 16">
					<name>SkypeScreenSnapz001</name>
					<duration>9740</duration>
					<rate>
						<ntsc>FALSE</ntsc>
						<timebase>25</timebase>
					</rate>
					<in>3172</in>
					<out>3307</out>
					<start>-1</start>
					<end>-1</end>
					<enabled>TRUE</enabled>
					<logginginfo>
						<scene/>
						<shottake/>
						<lognote/>
						<good>FALSE</good>
					</logginginfo>
					<labels>
						<label2/>
					</labels>
					<comments>
						<mastercomment1/>
						<mastercomment2/>
						<mastercomment3/>
						<mastercomment4/>
					</comments>
					<file id="SkypeScreenSnapz001 1"/>
					<filter>
						<effect>
							<name>Audio Levels</name>
							<effectid>audiolevels</effectid>
							<effectcategory>audiolevels</effectcategory>
							<effecttype>audiolevels</effecttype>
							<mediatype>audio</mediatype>
							<parameter>
								<name>Level</name>
								<parameterid>level</parameterid>
								<valuemin>0</valuemin>
								<valuemax>3.98109</valuemax>
								<keyframe>
									<when>3251.29</when>
									<value>0.281838</value>
								</keyframe>
								<keyframe>
									<when>3254.18</when>
									<value>0.00316228</value>
								</keyframe>
								<keyframe>
									<when>3266.23</when>
									<value>0.00316228</value>
								</keyframe>
								<keyframe>
									<when>3268.96</when>
									<value>0.398107</value>
								</keyframe>
								<interpolation>
									<name>FCPCurve</name>
								</interpolation>
								<value>0.501187</value>
							</parameter>
						</effect>
					</filter>
					<filter>
						<effect>
							<name>Audio Pan</name>
							<effectid>audiopan</effectid>
							<effectcategory>audiopan</effectcategory>
							<effecttype>audiopan</effecttype>
							<mediatype>audio</mediatype>
							<parameter>
								<name>Pan</name>
								<parameterid>pan</parameterid>
								<valuemin>-1</valuemin>
								<valuemax>1</valuemax>
								<value>-0</value>
							</parameter>
						</effect>
					</filter>
					<sourcetrack>
						<mediatype>audio</mediatype>
						<trackindex>2</trackindex>
					</sourcetrack>
					<link>
						<linkclipref>SkypeScreenSnapz001 15</linkclipref>
						<mediatype>audio</mediatype>
						<trackindex>3</trackindex>
						<clipindex>57</clipindex>
						<groupindex>1</groupindex>
					</link>
					<link>
						<linkclipref>SkypeScreenSnapz001 16</linkclipref>
						<mediatype>audio</mediatype>
						<trackindex>4</trackindex>
						<clipindex>69</clipindex>
						<groupindex>1</groupindex>
					</link>
				</clipitem>
				<transitionitem id="626535276 ">
					<rate>
						<ntsc>FALSE</ntsc>
						<timebase>25</timebase>
					</rate>
					<start>38030</start>
					<end>38036</end>
					<alignment>center</alignment>
					<effect>
						<name>Cross Fade (+3dB) Copy</name>
						<effecttype>transition</effecttype>
						<mediatype>audio</mediatype>
					</effect>
				</transitionitem>
				<clipitem id="SkypeScreenSnapz001 18">
					<name>SkypeScreenSnapz001</name>
					<duration>9740</duration>
					<rate>
						<ntsc>FALSE</ntsc>
						<timebase>25</timebase>
					</rate>
					<in>3534</in>
					<out>3706</out>
					<start>-1</start>
					<end>-1</end>
					<enabled>TRUE</enabled>
					<logginginfo>
						<scene/>
						<shottake/>
						<lognote/>
						<good>FALSE</good>
					</logginginfo>
					<labels>
						<label2/>
					</labels>
					<comments>
						<mastercomment1/>
						<mastercomment2/>
						<mastercomment3/>
						<mastercomment4/>
					</comments>
					<file id="SkypeScreenSnapz001 1"/>
					<filter>
						<effect>
							<name>Audio Levels</name>
							<effectid>audiolevels</effectid>
							<effectcategory>audiolevels</effectcategory>
							<effecttype>audiolevels</effecttype>
							<mediatype>audio</mediatype>
							<parameter>
								<name>Level</name>
								<parameterid>level</parameterid>
								<valuemin>0</valuemin>
								<valuemax>3.98109</valuemax>
								<keyframe>
									<when>3618</when>
									<value>1</value>
								</keyframe>
								<keyframe>
									<when>3620.25</when>
									<value>1</value>
								</keyframe>
								<keyframe>
									<when>3629.25</when>
									<value>1</value>
								</keyframe>
								<keyframe>
									<when>3632.79</when>
									<value>1</value>
								</keyframe>
								<interpolation>
									<name>FCPCurve</name>
								</interpolation>
								<value>1</value>
							</parameter>
						</effect>
					</filter>
					<filter>
						<effect>
							<name>Audio Pan</name>
							<effectid>audiopan</effectid>
							<effectcategory>audiopan</effectcategory>
							<effecttype>audiopan</effecttype>
							<mediatype>audio</mediatype>
							<parameter>
								<name>Pan</name>
								<parameterid>pan</parameterid>
								<valuemin>-1</valuemin>
								<valuemax>1</valuemax>
								<value>-0</value>
							</parameter>
						</effect>
					</filter>
					<sourcetrack>
						<mediatype>audio</mediatype>
						<trackindex>2</trackindex>
					</sourcetrack>
					<link>
						<linkclipref>SkypeScreenSnapz001 17</linkclipref>
						<mediatype>audio</mediatype>
						<trackindex>3</trackindex>
						<clipindex>59</clipindex>
						<groupindex>1</groupindex>
					</link>
					<link>
						<linkclipref>SkypeScreenSnapz001 18</linkclipref>
						<mediatype>audio</mediatype>
						<trackindex>4</trackindex>
						<clipindex>71</clipindex>
						<groupindex>1</groupindex>
					</link>
				</clipitem>
				<transitionitem id="626527524 ">
					<rate>
						<ntsc>FALSE</ntsc>
						<timebase>25</timebase>
					</rate>
					<start>38200</start>
					<end>38202</end>
					<alignment>center</alignment>
					<effect>
						<name>Cross Fade (+3dB) Copy</name>
						<effecttype>transition</effecttype>
						<mediatype>audio</mediatype>
					</effect>
				</transitionitem>
				<clipitem id="SkypeScreenSnapz001 20">
					<name>SkypeScreenSnapz001</name>
					<duration>9740</duration>
					<rate>
						<ntsc>FALSE</ntsc>
						<timebase>25</timebase>
					</rate>
					<in>3763</in>
					<out>4106</out>
					<start>-1</start>
					<end>-1</end>
					<enabled>TRUE</enabled>
					<logginginfo>
						<scene/>
						<shottake/>
						<lognote/>
						<good>FALSE</good>
					</logginginfo>
					<labels>
						<label2/>
					</labels>
					<comments>
						<mastercomment1/>
						<mastercomment2/>
						<mastercomment3/>
						<mastercomment4/>
					</comments>
					<file id="SkypeScreenSnapz001 1"/>
					<filter>
						<effect>
							<name>Audio Levels</name>
							<effectid>audiolevels</effectid>
							<effectcategory>audiolevels</effectcategory>
							<effecttype>audiolevels</effecttype>
							<mediatype>audio</mediatype>
							<parameter>
								<name>Level</name>
								<parameterid>level</parameterid>
								<valuemin>0</valuemin>
								<valuemax>3.98109</valuemax>
								<keyframe>
									<when>4070.43</when>
									<value>0.501187</value>
								</keyframe>
								<keyframe>
									<when>4077.5</when>
									<value>0.891251</value>
								</keyframe>
								<keyframe>
									<when>4091.64</when>
									<value>0.891251</value>
								</keyframe>
								<keyframe>
									<when>4094.54</when>
									<value>0.707946</value>
								</keyframe>
								<interpolation>
									<name>FCPCurve</name>
								</interpolation>
								<value>0.501187</value>
							</parameter>
						</effect>
					</filter>
					<filter>
						<effect>
							<name>Audio Pan</name>
							<effectid>audiopan</effectid>
							<effectcategory>audiopan</effectcategory>
							<effecttype>audiopan</effecttype>
							<mediatype>audio</mediatype>
							<parameter>
								<name>Pan</name>
								<parameterid>pan</parameterid>
								<valuemin>-1</valuemin>
								<valuemax>1</valuemax>
								<value>-0</value>
							</parameter>
						</effect>
					</filter>
					<sourcetrack>
						<mediatype>audio</mediatype>
						<trackindex>2</trackindex>
					</sourcetrack>
					<link>
						<linkclipref>SkypeScreenSnapz001 19</linkclipref>
						<mediatype>audio</mediatype>
						<trackindex>3</trackindex>
						<clipindex>61</clipindex>
						<groupindex>1</groupindex>
					</link>
					<link>
						<linkclipref>SkypeScreenSnapz001 20</linkclipref>
						<mediatype>audio</mediatype>
						<trackindex>4</trackindex>
						<clipindex>73</clipindex>
						<groupindex>1</groupindex>
					</link>
				</clipitem>
				<transitionitem id="626527660 ">
					<rate>
						<ntsc>FALSE</ntsc>
						<timebase>25</timebase>
					</rate>
					<start>38537</start>
					<end>38543</end>
					<alignment>center</alignment>
					<effect>
						<name>Cross Fade (+3dB) Copy</name>
						<effecttype>transition</effecttype>
						<mediatype>audio</mediatype>
					</effect>
				</transitionitem>
				<clipitem id="SkypeScreenSnapz001 22">
					<name>SkypeScreenSnapz001</name>
					<duration>9740</duration>
					<rate>
						<ntsc>FALSE</ntsc>
						<timebase>25</timebase>
					</rate>
					<in>4277</in>
					<out>4437</out>
					<start>-1</start>
					<end>38697</end>
					<enabled>TRUE</enabled>
					<logginginfo>
						<scene/>
						<shottake/>
						<lognote/>
						<good>FALSE</good>
					</logginginfo>
					<labels>
						<label2/>
					</labels>
					<comments>
						<mastercomment1/>
						<mastercomment2/>
						<mastercomment3/>
						<mastercomment4/>
					</comments>
					<file id="SkypeScreenSnapz001 1"/>
					<filter>
						<effect>
							<name>Audio Levels</name>
							<effectid>audiolevels</effectid>
							<effectcategory>audiolevels</effectcategory>
							<effecttype>audiolevels</effecttype>
							<mediatype>audio</mediatype>
							<parameter>
								<name>Level</name>
								<parameterid>level</parameterid>
								<valuemin>0</valuemin>
								<valuemax>3.98109</valuemax>
								<keyframe>
									<when>4385.64</when>
									<value>0.0891251</value>
								</keyframe>
								<keyframe>
									<when>4391.11</when>
									<value>1</value>
								</keyframe>
								<keyframe>
									<when>4409.75</when>
									<value>1</value>
								</keyframe>
								<keyframe>
									<when>4413.29</when>
									<value>1</value>
								</keyframe>
								<interpolation>
									<name>FCPCurve</name>
								</interpolation>
								<value>1</value>
							</parameter>
						</effect>
					</filter>
					<filter>
						<effect>
							<name>Audio Pan</name>
							<effectid>audiopan</effectid>
							<effectcategory>audiopan</effectcategory>
							<effecttype>audiopan</effecttype>
							<mediatype>audio</mediatype>
							<parameter>
								<name>Pan</name>
								<parameterid>pan</parameterid>
								<valuemin>-1</valuemin>
								<valuemax>1</valuemax>
								<value>-0</value>
							</parameter>
						</effect>
					</filter>
					<sourcetrack>
						<mediatype>audio</mediatype>
						<trackindex>2</trackindex>
					</sourcetrack>
					<link>
						<linkclipref>SkypeScreenSnapz001 21</linkclipref>
						<mediatype>audio</mediatype>
						<trackindex>3</trackindex>
						<clipindex>63</clipindex>
						<groupindex>1</groupindex>
					</link>
					<link>
						<linkclipref>SkypeScreenSnapz001 22</linkclipref>
						<mediatype>audio</mediatype>
						<trackindex>4</trackindex>
						<clipindex>75</clipindex>
						<groupindex>1</groupindex>
					</link>
				</clipitem>
				<clipitem id="SkypeScreenSnapz001 24">
					<name>SkypeScreenSnapz001</name>
					<duration>9740</duration>
					<rate>
						<ntsc>FALSE</ntsc>
						<timebase>25</timebase>
					</rate>
					<in>4760</in>
					<out>4854</out>
					<start>38697</start>
					<end>-1</end>
					<enabled>TRUE</enabled>
					<logginginfo>
						<scene/>
						<shottake/>
						<lognote/>
						<good>FALSE</good>
					</logginginfo>
					<labels>
						<label2/>
					</labels>
					<comments>
						<mastercomment1/>
						<mastercomment2/>
						<mastercomment3/>
						<mastercomment4/>
					</comments>
					<file id="SkypeScreenSnapz001 1"/>
					<filter>
						<effect>
							<name>Audio Levels</name>
							<effectid>audiolevels</effectid>
							<effectcategory>audiolevels</effectcategory>
							<effecttype>audiolevels</effecttype>
							<mediatype>audio</mediatype>
							<parameter>
								<name>Level</name>
								<parameterid>level</parameterid>
								<valuemin>0</valuemin>
								<valuemax>3.98109</valuemax>
								<keyframe>
									<when>4810.86</when>
									<value>1</value>
								</keyframe>
								<keyframe>
									<when>4815.52</when>
									<value>0</value>
								</keyframe>
								<interpolation>
									<name>FCPCurve</name>
								</interpolation>
								<value>1</value>
							</parameter>
						</effect>
					</filter>
					<filter>
						<effect>
							<name>Audio Pan</name>
							<effectid>audiopan</effectid>
							<effectcategory>audiopan</effectcategory>
							<effecttype>audiopan</effecttype>
							<mediatype>audio</mediatype>
							<parameter>
								<name>Pan</name>
								<parameterid>pan</parameterid>
								<valuemin>-1</valuemin>
								<valuemax>1</valuemax>
								<value>-0</value>
							</parameter>
						</effect>
					</filter>
					<sourcetrack>
						<mediatype>audio</mediatype>
						<trackindex>2</trackindex>
					</sourcetrack>
					<link>
						<linkclipref>SkypeScreenSnapz001 23</linkclipref>
						<mediatype>audio</mediatype>
						<trackindex>3</trackindex>
						<clipindex>64</clipindex>
						<groupindex>1</groupindex>
					</link>
					<link>
						<linkclipref>SkypeScreenSnapz001 24</linkclipref>
						<mediatype>audio</mediatype>
						<trackindex>4</trackindex>
						<clipindex>76</clipindex>
						<groupindex>1</groupindex>
					</link>
				</clipitem>
				<transitionitem id="626529292 ">
					<rate>
						<ntsc>FALSE</ntsc>
						<timebase>25</timebase>
					</rate>
					<start>38785</start>
					<end>38791</end>
					<alignment>center</alignment>
					<effect>
						<name>Cross Fade (+3dB) Copy</name>
						<effecttype>transition</effecttype>
						<mediatype>audio</mediatype>
					</effect>
				</transitionitem>
				<clipitem id="SkypeScreenSnapz001 26">
					<name>SkypeScreenSnapz001</name>
					<duration>9740</duration>
					<rate>
						<ntsc>FALSE</ntsc>
						<timebase>25</timebase>
					</rate>
					<in>4887</in>
					<out>5162</out>
					<start>-1</start>
					<end>-1</end>
					<enabled>TRUE</enabled>
					<logginginfo>
						<scene/>
						<shottake/>
						<lognote/>
						<good>FALSE</good>
					</logginginfo>
					<labels>
						<label2/>
					</labels>
					<comments>
						<mastercomment1/>
						<mastercomment2/>
						<mastercomment3/>
						<mastercomment4/>
					</comments>
					<file id="SkypeScreenSnapz001 1"/>
					<filter>
						<effect>
							<name>Audio Levels</name>
							<effectid>audiolevels</effectid>
							<effectcategory>audiolevels</effectcategory>
							<effecttype>audiolevels</effecttype>
							<mediatype>audio</mediatype>
							<parameter>
								<name>Level</name>
								<parameterid>level</parameterid>
								<valuemin>0</valuemin>
								<valuemax>3.98109</valuemax>
								<value>1</value>
							</parameter>
						</effect>
					</filter>
					<filter>
						<effect>
							<name>Audio Pan</name>
							<effectid>audiopan</effectid>
							<effectcategory>audiopan</effectcategory>
							<effecttype>audiopan</effecttype>
							<mediatype>audio</mediatype>
							<parameter>
								<name>Pan</name>
								<parameterid>pan</parameterid>
								<valuemin>-1</valuemin>
								<valuemax>1</valuemax>
								<value>-0</value>
							</parameter>
						</effect>
					</filter>
					<sourcetrack>
						<mediatype>audio</mediatype>
						<trackindex>2</trackindex>
					</sourcetrack>
					<link>
						<linkclipref>SkypeScreenSnapz001 25</linkclipref>
						<mediatype>audio</mediatype>
						<trackindex>3</trackindex>
						<clipindex>66</clipindex>
						<groupindex>1</groupindex>
					</link>
					<link>
						<linkclipref>SkypeScreenSnapz001 26</linkclipref>
						<mediatype>audio</mediatype>
						<trackindex>4</trackindex>
						<clipindex>78</clipindex>
						<groupindex>1</groupindex>
					</link>
				</clipitem>
				<transitionitem id="626528612 ">
					<rate>
						<ntsc>FALSE</ntsc>
						<timebase>25</timebase>
					</rate>
					<start>39054</start>
					<end>39060</end>
					<alignment>center</alignment>
					<effect>
						<name>Cross Fade (+3dB) Copy</name>
						<effecttype>transition</effecttype>
						<mediatype>audio</mediatype>
					</effect>
				</transitionitem>
				<clipitem id="SkypeScreenSnapz001 28">
					<name>SkypeScreenSnapz001</name>
					<duration>9740</duration>
					<rate>
						<ntsc>FALSE</ntsc>
						<timebase>25</timebase>
					</rate>
					<in>5187</in>
					<out>5351</out>
					<start>-1</start>
					<end>-1</end>
					<enabled>TRUE</enabled>
					<logginginfo>
						<scene/>
						<shottake/>
						<lognote/>
						<good>FALSE</good>
					</logginginfo>
					<labels>
						<label2/>
					</labels>
					<comments>
						<mastercomment1/>
						<mastercomment2/>
						<mastercomment3/>
						<mastercomment4/>
					</comments>
					<file id="SkypeScreenSnapz001 1"/>
					<filter>
						<effect>
							<name>Audio Levels</name>
							<effectid>audiolevels</effectid>
							<effectcategory>audiolevels</effectcategory>
							<effecttype>audiolevels</effecttype>
							<mediatype>audio</mediatype>
							<parameter>
								<name>Level</name>
								<parameterid>level</parameterid>
								<valuemin>0</valuemin>
								<valuemax>3.98109</valuemax>
								<keyframe>
									<when>5279.11</when>
									<value>1</value>
								</keyframe>
								<keyframe>
									<when>5282.96</when>
									<value>0.501187</value>
								</keyframe>
								<keyframe>
									<when>5292.61</when>
									<value>0.501187</value>
								</keyframe>
								<keyframe>
									<when>5296.14</when>
									<value>0.794328</value>
								</keyframe>
								<interpolation>
									<name>FCPCurve</name>
								</interpolation>
								<value>1</value>
							</parameter>
						</effect>
					</filter>
					<filter>
						<effect>
							<name>Audio Pan</name>
							<effectid>audiopan</effectid>
							<effectcategory>audiopan</effectcategory>
							<effecttype>audiopan</effecttype>
							<mediatype>audio</mediatype>
							<parameter>
								<name>Pan</name>
								<parameterid>pan</parameterid>
								<valuemin>-1</valuemin>
								<valuemax>1</valuemax>
								<value>-0</value>
							</parameter>
						</effect>
					</filter>
					<sourcetrack>
						<mediatype>audio</mediatype>
						<trackindex>2</trackindex>
					</sourcetrack>
					<link>
						<linkclipref>SkypeScreenSnapz001 27</linkclipref>
						<mediatype>audio</mediatype>
						<trackindex>3</trackindex>
						<clipindex>68</clipindex>
						<groupindex>1</groupindex>
					</link>
					<link>
						<linkclipref>SkypeScreenSnapz001 28</linkclipref>
						<mediatype>audio</mediatype>
						<trackindex>4</trackindex>
						<clipindex>80</clipindex>
						<groupindex>1</groupindex>
					</link>
				</clipitem>
				<transitionitem id="626529904 ">
					<rate>
						<ntsc>FALSE</ntsc>
						<timebase>25</timebase>
					</rate>
					<start>39212</start>
					<end>39218</end>
					<alignment>center</alignment>
					<effect>
						<name>Cross Fade (+3dB) Copy</name>
						<effecttype>transition</effecttype>
						<mediatype>audio</mediatype>
					</effect>
				</transitionitem>
				<clipitem id="SkypeScreenSnapz001 30">
					<name>SkypeScreenSnapz001</name>
					<duration>9740</duration>
					<rate>
						<ntsc>FALSE</ntsc>
						<timebase>25</timebase>
					</rate>
					<in>9152</in>
					<out>9377</out>
					<start>-1</start>
					<end>-1</end>
					<enabled>TRUE</enabled>
					<logginginfo>
						<scene/>
						<shottake/>
						<lognote/>
						<good>FALSE</good>
					</logginginfo>
					<labels>
						<label2/>
					</labels>
					<comments>
						<mastercomment1/>
						<mastercomment2/>
						<mastercomment3/>
						<mastercomment4/>
					</comments>
					<file id="SkypeScreenSnapz001 1"/>
					<filter>
						<effect>
							<name>Audio Levels</name>
							<effectid>audiolevels</effectid>
							<effectcategory>audiolevels</effectcategory>
							<effecttype>audiolevels</effecttype>
							<mediatype>audio</mediatype>
							<parameter>
								<name>Level</name>
								<parameterid>level</parameterid>
								<valuemin>0</valuemin>
								<valuemax>3.98109</valuemax>
								<keyframe>
									<when>9193.3</when>
									<value>1</value>
								</keyframe>
								<keyframe>
									<when>9195.71</when>
									<value>1.25893</value>
								</keyframe>
								<keyframe>
									<when>9210.98</when>
									<value>1.25893</value>
								</keyframe>
								<keyframe>
									<when>9214.84</when>
									<value>1</value>
								</keyframe>
								<keyframe>
									<when>9259.68</when>
									<value>1</value>
								</keyframe>
								<keyframe>
									<when>9265.62</when>
									<value>0.707946</value>
								</keyframe>
								<keyframe>
									<when>9309.18</when>
									<value>0.707946</value>
								</keyframe>
								<keyframe>
									<when>9312.55</when>
									<value>0.501187</value>
								</keyframe>
								<interpolation>
									<name>FCPCurve</name>
								</interpolation>
								<value>1</value>
							</parameter>
						</effect>
					</filter>
					<filter>
						<effect>
							<name>Audio Pan</name>
							<effectid>audiopan</effectid>
							<effectcategory>audiopan</effectcategory>
							<effecttype>audiopan</effecttype>
							<mediatype>audio</mediatype>
							<parameter>
								<name>Pan</name>
								<parameterid>pan</parameterid>
								<valuemin>-1</valuemin>
								<valuemax>1</valuemax>
								<value>-0</value>
							</parameter>
						</effect>
					</filter>
					<sourcetrack>
						<mediatype>audio</mediatype>
						<trackindex>2</trackindex>
					</sourcetrack>
					<link>
						<linkclipref>SkypeScreenSnapz001 29</linkclipref>
						<mediatype>audio</mediatype>
						<trackindex>3</trackindex>
						<clipindex>70</clipindex>
						<groupindex>1</groupindex>
					</link>
					<link>
						<linkclipref>SkypeScreenSnapz001 30</linkclipref>
						<mediatype>audio</mediatype>
						<trackindex>4</trackindex>
						<clipindex>82</clipindex>
						<groupindex>1</groupindex>
					</link>
				</clipitem>
				<transitionitem id="626530788 ">
					<rate>
						<ntsc>FALSE</ntsc>
						<timebase>25</timebase>
					</rate>
					<start>39431</start>
					<end>39437</end>
					<alignment>end-black</alignment>
					<effect>
						<name>Cross Fade (+3dB) Copy</name>
						<effecttype>transition</effecttype>
						<mediatype>audio</mediatype>
					</effect>
				</transitionitem>
				<transitionitem id="626531536 ">
					<rate>
						<ntsc>FALSE</ntsc>
						<timebase>25</timebase>
					</rate>
					<start>41389</start>
					<end>41393</end>
					<alignment>start-black</alignment>
					<effect>
						<name>Cross Fade (+3dB) Copy</name>
						<effecttype>transition</effecttype>
						<mediatype>audio</mediatype>
					</effect>
				</transitionitem>
				<clipitem id="AUXMP_ISCD020302.mp3 2">
					<name>AUXMP_ISCD020302.mp3</name>
					<duration>3908</duration>
					<rate>
						<ntsc>FALSE</ntsc>
						<timebase>25</timebase>
					</rate>
					<in>1988</in>
					<out>2799</out>
					<start>-1</start>
					<end>-1</end>
					<subframeoffset>0</subframeoffset>
					<masterclipid>AUXMP_ISCD020302.mp3 1</masterclipid>
					<logginginfo>
						<scene/>
						<shottake/>
						<lognote/>
						<good>FALSE</good>
					</logginginfo>
					<labels>
						<label2/>
					</labels>
					<comments>
						<mastercomment1/>
						<mastercomment2/>
						<mastercomment3/>
						<mastercomment4/>
					</comments>
					<file id="AUXMP_ISCD020302 "/>
					<filter>
						<effect>
							<name>Audio Levels</name>
							<effectid>audiolevels</effectid>
							<effectcategory>audiolevels</effectcategory>
							<effecttype>audiolevels</effecttype>
							<mediatype>audio</mediatype>
							<parameter>
								<name>Level</name>
								<parameterid>level</parameterid>
								<valuemin>0</valuemin>
								<valuemax>3.98109</valuemax>
								<keyframe>
									<when>2119</when>
									<value>0.158489</value>
								</keyframe>
								<keyframe>
									<when>2166.5</when>
									<value>0.0891251</value>
								</keyframe>
								<keyframe>
									<when>2360</when>
									<value>0.0891251</value>
								</keyframe>
								<keyframe>
									<when>2422</when>
									<value>0.199526</value>
								</keyframe>
								<keyframe>
									<when>2708.18</when>
									<value>0.158489</value>
								</keyframe>
								<keyframe>
									<when>2766.68</when>
									<value>0.0891251</value>
								</keyframe>
								<keyframe>
									<when>2939.21</when>
									<value>0.158489</value>
								</keyframe>
								<keyframe>
									<when>2964.32</when>
									<value>0.0891251</value>
								</keyframe>
								<interpolation>
									<name>FCPCurve</name>
								</interpolation>
								<value>0.158489</value>
							</parameter>
						</effect>
					</filter>
					<filter>
						<effect>
							<name>Audio Pan</name>
							<effectid>audiopan</effectid>
							<effectcategory>audiopan</effectcategory>
							<effecttype>audiopan</effecttype>
							<mediatype>audio</mediatype>
							<parameter>
								<name>Pan</name>
								<parameterid>pan</parameterid>
								<valuemin>-1</valuemin>
								<valuemax>1</valuemax>
								<value>1</value>
							</parameter>
						</effect>
					</filter>
					<sourcetrack>
						<mediatype>audio</mediatype>
						<trackindex>2</trackindex>
					</sourcetrack>
					<link>
						<linkclipref>AUXMP_ISCD020302.mp3 </linkclipref>
						<mediatype>audio</mediatype>
						<trackindex>3</trackindex>
						<clipindex>79</clipindex>
						<groupindex>1</groupindex>
					</link>
					<link>
						<linkclipref>AUXMP_ISCD020302.mp3 2</linkclipref>
						<mediatype>audio</mediatype>
						<trackindex>4</trackindex>
						<clipindex>85</clipindex>
						<groupindex>1</groupindex>
					</link>
				</clipitem>
				<transitionitem id="16">
					<rate>
						<ntsc>FALSE</ntsc>
						<timebase>25</timebase>
					</rate>
					<start>42100</start>
					<end>42200</end>
					<alignment>end-black</alignment>
					<effect>
						<name>Cross Fade (+3dB) Copy</name>
						<effecttype>transition</effecttype>
						<mediatype>audio</mediatype>
					</effect>
				</transitionitem>
				<enabled>TRUE</enabled>
				<locked>FALSE</locked>
				<outputchannelindex>2</outputchannelindex>
			</track>
			<track>
				<clipitem id="Fin Fredag Vignett - NY.wav3">
					<name>Fin Fredag Vignett - NY.wav</name>
					<duration>1590</duration>
					<rate>
						<ntsc>FALSE</ntsc>
						<timebase>25</timebase>
					</rate>
					<in>622</in>
					<out>734</out>
					<start>857</start>
					<end>969</end>
					<enabled>TRUE</enabled>
					<masterclipid>Fin Fredag Vignett - NY.wav1</masterclipid>
					<logginginfo>
						<scene/>
						<shottake/>
						<lognote/>
						<good>FALSE</good>
					</logginginfo>
					<labels>
						<label2/>
					</labels>
					<comments>
						<mastercomment1/>
						<mastercomment2/>
						<mastercomment3/>
						<mastercomment4/>
					</comments>
					<file id="Fin Fredag Vignett - NY"/>
					<filter>
						<effect>
							<name>Audio Levels</name>
							<effectid>audiolevels</effectid>
							<effectcategory>audiolevels</effectcategory>
							<effecttype>audiolevels</effecttype>
							<mediatype>audio</mediatype>
							<parameter>
								<name>Level</name>
								<parameterid>level</parameterid>
								<valuemin>0</valuemin>
								<valuemax>3.98109</valuemax>
								<keyframe>
									<when>533.018</when>
									<value>0.281838</value>
								</keyframe>
								<keyframe>
									<when>569</when>
									<value>0.1656</value>
								</keyframe>
								<interpolation>
									<name>FCPCurve</name>
								</interpolation>
								<value>0.185233</value>
							</parameter>
						</effect>
					</filter>
					<filter>
						<effect>
							<name>Audio Pan</name>
							<effectid>audiopan</effectid>
							<effectcategory>audiopan</effectcategory>
							<effecttype>audiopan</effecttype>
							<mediatype>audio</mediatype>
							<parameter>
								<name>Pan</name>
								<parameterid>pan</parameterid>
								<valuemin>-1</valuemin>
								<valuemax>1</valuemax>
								<value>-1</value>
							</parameter>
						</effect>
					</filter>
					<sourcetrack>
						<mediatype>audio</mediatype>
						<trackindex>1</trackindex>
					</sourcetrack>
					<link>
						<linkclipref>Fin Fredag Vignett - NY.wav3</linkclipref>
						<mediatype>audio</mediatype>
						<trackindex>5</trackindex>
						<clipindex>1</clipindex>
						<groupindex>1</groupindex>
					</link>
					<link>
						<linkclipref>Fin Fredag Vignett - NY.wav4</linkclipref>
						<mediatype>audio</mediatype>
						<trackindex>6</trackindex>
						<clipindex>1</clipindex>
						<groupindex>1</groupindex>
					</link>
				</clipitem>
				<transitionitem id="627039684 ">
					<rate>
						<ntsc>FALSE</ntsc>
						<timebase>25</timebase>
					</rate>
					<start>1821</start>
					<end>1827</end>
					<alignment>start-black</alignment>
					<effect>
						<name>Cross Fade (+3dB) Copy</name>
						<effecttype>transition</effecttype>
						<mediatype>audio</mediatype>
					</effect>
				</transitionitem>
				<clipitem id="Stråling.wav2">
					<name>Stråling.wav</name>
					<duration>618</duration>
					<rate>
						<ntsc>FALSE</ntsc>
						<timebase>25</timebase>
					</rate>
					<in>30</in>
					<out>45</out>
					<start>-1</start>
					<end>-1</end>
					<subframeoffset>0</subframeoffset>
					<enabled>TRUE</enabled>
					<masterclipid>Stråling.wav1</masterclipid>
					<logginginfo>
						<scene/>
						<shottake/>
						<lognote/>
						<good>FALSE</good>
					</logginginfo>
					<labels>
						<label2/>
					</labels>
					<comments>
						<mastercomment1/>
						<mastercomment2/>
						<mastercomment3/>
						<mastercomment4/>
					</comments>
					<file id="Stråling"/>
					<filter>
						<effect>
							<name>Audio Levels</name>
							<effectid>audiolevels</effectid>
							<effectcategory>audiolevels</effectcategory>
							<effecttype>audiolevels</effecttype>
							<mediatype>audio</mediatype>
							<parameter>
								<name>Level</name>
								<parameterid>level</parameterid>
								<valuemin>0</valuemin>
								<valuemax>3.98109</valuemax>
								<value>0.141254</value>
							</parameter>
						</effect>
					</filter>
					<filter>
						<effect>
							<name>Audio Pan</name>
							<effectid>audiopan</effectid>
							<effectcategory>audiopan</effectcategory>
							<effecttype>audiopan</effecttype>
							<mediatype>audio</mediatype>
							<parameter>
								<name>Pan</name>
								<parameterid>pan</parameterid>
								<valuemin>-1</valuemin>
								<valuemax>1</valuemax>
								<value>1</value>
							</parameter>
						</effect>
					</filter>
					<sourcetrack>
						<mediatype>audio</mediatype>
						<trackindex>2</trackindex>
					</sourcetrack>
					<link>
						<linkclipref>Stråling.wav</linkclipref>
						<mediatype>audio</mediatype>
						<trackindex>4</trackindex>
						<clipindex>4</clipindex>
						<groupindex>1</groupindex>
					</link>
					<link>
						<linkclipref>Stråling.wav2</linkclipref>
						<mediatype>audio</mediatype>
						<trackindex>5</trackindex>
						<clipindex>3</clipindex>
						<groupindex>1</groupindex>
					</link>
				</clipitem>
				<transitionitem id="627043288 ">
					<rate>
						<ntsc>FALSE</ntsc>
						<timebase>25</timebase>
					</rate>
					<start>1834</start>
					<end>1836</end>
					<alignment>end-black</alignment>
					<effect>
						<name>Cross Fade (+3dB) Copy</name>
						<effecttype>transition</effecttype>
						<mediatype>audio</mediatype>
					</effect>
				</transitionitem>
				<transitionitem id="627042948 ">
					<rate>
						<ntsc>FALSE</ntsc>
						<timebase>25</timebase>
					</rate>
					<start>4011</start>
					<end>4021</end>
					<alignment>start-black</alignment>
					<effect>
						<name>Cross Fade (+3dB) Copy</name>
						<effecttype>transition</effecttype>
						<mediatype>audio</mediatype>
					</effect>
				</transitionitem>
				<clipitem id="Fin Fredag Vignett - NY.wav5">
					<name>Fin Fredag Vignett - NY.wav</name>
					<duration>1590</duration>
					<rate>
						<ntsc>FALSE</ntsc>
						<timebase>25</timebase>
					</rate>
					<in>70</in>
					<out>135</out>
					<start>-1</start>
					<end>-1</end>
					<subframeoffset>0</subframeoffset>
					<enabled>TRUE</enabled>
					<masterclipid>Fin Fredag Vignett - NY.wav1</masterclipid>
					<logginginfo>
						<scene/>
						<shottake/>
						<lognote/>
						<good>FALSE</good>
					</logginginfo>
					<labels>
						<label2/>
					</labels>
					<comments>
						<mastercomment1/>
						<mastercomment2/>
						<mastercomment3/>
						<mastercomment4/>
					</comments>
					<file id="Fin Fredag Vignett - NY"/>
					<filter>
						<effect>
							<name>Audio Levels</name>
							<effectid>audiolevels</effectid>
							<effectcategory>audiolevels</effectcategory>
							<effecttype>audiolevels</effecttype>
							<mediatype>audio</mediatype>
							<parameter>
								<name>Level</name>
								<parameterid>level</parameterid>
								<valuemin>0</valuemin>
								<valuemax>3.98109</valuemax>
								<value>0.354813</value>
							</parameter>
						</effect>
					</filter>
					<filter>
						<effect>
							<name>Audio Pan</name>
							<effectid>audiopan</effectid>
							<effectcategory>audiopan</effectcategory>
							<effecttype>audiopan</effecttype>
							<mediatype>audio</mediatype>
							<parameter>
								<name>Pan</name>
								<parameterid>pan</parameterid>
								<valuemin>-1</valuemin>
								<valuemax>1</valuemax>
								<value>-1</value>
							</parameter>
						</effect>
					</filter>
					<sourcetrack>
						<mediatype>audio</mediatype>
						<trackindex>1</trackindex>
					</sourcetrack>
					<link>
						<linkclipref>Fin Fredag Vignett - NY.wav5</linkclipref>
						<mediatype>audio</mediatype>
						<trackindex>5</trackindex>
						<clipindex>6</clipindex>
						<groupindex>1</groupindex>
					</link>
					<link>
						<linkclipref>Fin Fredag Vignett - NY.wav6</linkclipref>
						<mediatype>audio</mediatype>
						<trackindex>6</trackindex>
						<clipindex>3</clipindex>
						<groupindex>1</groupindex>
					</link>
				</clipitem>
				<transitionitem id="627042268 ">
					<rate>
						<ntsc>FALSE</ntsc>
						<timebase>25</timebase>
					</rate>
					<start>4051</start>
					<end>4076</end>
					<alignment>end-black</alignment>
					<effect>
						<name>Cross Fade (+3dB) Copy</name>
						<effecttype>transition</effecttype>
						<mediatype>audio</mediatype>
					</effect>
				</transitionitem>
				<transitionitem id="627041792 ">
					<rate>
						<ntsc>FALSE</ntsc>
						<timebase>25</timebase>
					</rate>
					<start>4667</start>
					<end>4671</end>
					<alignment>start-black</alignment>
					<effect>
						<name>Cross Fade (+3dB) Copy</name>
						<effecttype>transition</effecttype>
						<mediatype>audio</mediatype>
					</effect>
				</transitionitem>
				<clipitem id="01 ROCKING BIRD A --- Midtempo retro rock with rockin' blues harmonica. 140 bpm (C)">
					<name>01 ROCKING BIRD A --- Midtempo retro rock with rockin' blues harmonica. 140 bpm (C)</name>
					<duration>2689</duration>
					<rate>
						<ntsc>FALSE</ntsc>
						<timebase>25</timebase>
					</rate>
					<in>0</in>
					<out>2689</out>
					<start>-1</start>
					<end>7356</end>
					<masterclipid>01 ROCKING BIRD A --- Midtempo retro rock with rockin' blues harmonica. 140 bpm (C)1</masterclipid>
					<logginginfo>
						<scene/>
						<shottake/>
						<lognote/>
						<good>FALSE</good>
					</logginginfo>
					<labels>
						<label2/>
					</labels>
					<comments>
						<mastercomment1/>
						<mastercomment2/>
						<mastercomment3/>
						<mastercomment4/>
					</comments>
					<file id="01 ROCKING BIRD A --- Midtempo retro rock with rockin' blues harmonica. 140 bpm (C)2">
						<name>01 ROCKING BIRD A --- Midtempo retro rock with rockin' blues harmonica. 140 bpm (C).aif</name>
						<pathurl>file://localhost/Volumes/SuperSAN1/Prosjekter/MSUB20000012%20FIN%20FREDAG/FCP-prosjekter/program%201/Musikk/Mellomstikk/01%20ROCKING%20BIRD%20A%20---%20Midtempo%20retro%20rock%20with%20rockin'%20blues%20harmonica.%20140%20bpm%20(C).aif</pathurl>
						<rate>
							<timebase>25</timebase>
						</rate>
						<duration>2689</duration>
						<media>
							<audio>
								<rate>
									<timebase>44100</timebase>
								</rate>
								<trackcount>2</trackcount>
								<samplecharacteristics>
									<depth>16</depth>
								</samplecharacteristics>
							</audio>
						</media>
					</file>
					<filter>
						<effect>
							<name>Audio Levels</name>
							<effectid>audiolevels</effectid>
							<effectcategory>audiolevels</effectcategory>
							<effecttype>audiolevels</effecttype>
							<mediatype>audio</mediatype>
							<parameter>
								<name>Level</name>
								<parameterid>level</parameterid>
								<valuemin>0</valuemin>
								<valuemax>3.98109</valuemax>
								<keyframe>
									<when>14.375</when>
									<value>0.158489</value>
								</keyframe>
								<keyframe>
									<when>64.2857</when>
									<value>0.158489</value>
								</keyframe>
								<keyframe>
									<when>130</when>
									<value>0.0354813</value>
								</keyframe>
								<keyframe>
									<when>208.286</when>
									<value>0.0354813</value>
								</keyframe>
								<keyframe>
									<when>244</when>
									<value>0.141254</value>
								</keyframe>
								<keyframe>
									<when>315.571</when>
									<value>0.141254</value>
								</keyframe>
								<keyframe>
									<when>359.402</when>
									<value>0.0177828</value>
								</keyframe>
								<keyframe>
									<when>519.429</when>
									<value>0.0177828</value>
								</keyframe>
								<keyframe>
									<when>537.429</when>
									<value>0.0501187</value>
								</keyframe>
								<keyframe>
									<when>568.571</when>
									<value>0.0501187</value>
								</keyframe>
								<keyframe>
									<when>588.857</when>
									<value>0.0177828</value>
								</keyframe>
								<keyframe>
									<when>1404.04</when>
									<value>0.0177828</value>
								</keyframe>
								<keyframe>
									<when>1693.32</when>
									<value>0.0251189</value>
								</keyframe>
								<keyframe>
									<when>1792.29</when>
									<value>0.141254</value>
								</keyframe>
								<keyframe>
									<when>2132.07</when>
									<value>0.141254</value>
								</keyframe>
								<keyframe>
									<when>2171.71</when>
									<value>0.0177828</value>
								</keyframe>
								<interpolation>
									<name>FCPCurve</name>
								</interpolation>
								<value>1</value>
							</parameter>
						</effect>
					</filter>
					<filter>
						<effect>
							<name>Audio Pan</name>
							<effectid>audiopan</effectid>
							<effectcategory>audiopan</effectcategory>
							<effecttype>audiopan</effecttype>
							<mediatype>audio</mediatype>
							<parameter>
								<name>Pan</name>
								<parameterid>pan</parameterid>
								<valuemin>-1</valuemin>
								<valuemax>1</valuemax>
								<value>-1</value>
							</parameter>
						</effect>
					</filter>
					<sourcetrack>
						<mediatype>audio</mediatype>
						<trackindex>1</trackindex>
					</sourcetrack>
					<link>
						<linkclipref>01 ROCKING BIRD A --- Midtempo retro rock with rockin' blues harmonica. 140 bpm (C)</linkclipref>
						<mediatype>audio</mediatype>
						<trackindex>5</trackindex>
						<clipindex>9</clipindex>
						<groupindex>1</groupindex>
					</link>
					<link>
						<linkclipref>01 ROCKING BIRD A --- Midtempo retro rock with rockin' blues harmonica. 140 bpm (C)3</linkclipref>
						<mediatype>audio</mediatype>
						<trackindex>6</trackindex>
						<clipindex>6</clipindex>
						<groupindex>1</groupindex>
					</link>
				</clipitem>
				<transitionitem id="627039004 ">
					<rate>
						<ntsc>FALSE</ntsc>
						<timebase>25</timebase>
					</rate>
					<start>7618</start>
					<end>7643</end>
					<alignment>start-black</alignment>
					<effect>
						<name>Cross Fade ( 0dB)</name>
						<effecttype>transition</effecttype>
						<mediatype>audio</mediatype>
					</effect>
				</transitionitem>
				<clipitem id="KMTE60004512AA6">
					<name>KMTE60004512AA</name>
					<duration>88320</duration>
					<rate>
						<ntsc>FALSE</ntsc>
						<timebase>25</timebase>
					</rate>
					<in>42801</in>
					<out>42924</out>
					<start>-1</start>
					<end>-1</end>
					<subframeoffset>0</subframeoffset>
					<masterclipid>KMTE60004512AA1</masterclipid>
					<logginginfo>
						<description>Justin Bieber live i Oslo</description>
						<scene/>
						<shottake/>
						<lognote/>
						<good>FALSE</good>
					</logginginfo>
					<labels>
						<label2/>
					</labels>
					<comments>
						<mastercomment1>PROGRAM. BR_MEGAFON_MSUA_OPRO. BR_FINFREDAG_MSUA_OPRO</mastercomment1>
						<mastercomment2>. </mastercomment2>
						<mastercomment3>Sendt: 2012-06-20. Universal Music, Norway; Norge.</mastercomment3>
						<mastercomment4/>
						<clipcommentb>1:F-mix venstre 2:F-mix høyre 3:I-lyd venstre 4:I-lyd høyre</clipcommentb>
					</comments>
					<file id="KMTE60004512AA2"/>
					<marker>
						<name>Justin Bieber møter fans</name>
						<comment/>
						<in>1275</in>
						<out>2025</out>
					</marker>
					<marker>
						<name>Arrangørene er bekymret for sikkerheten</name>
						<comment/>
						<in>7566</in>
						<out>8316</out>
					</marker>
					<marker>
						<name>Folk trenger seg inn på operataket</name>
						<comment/>
						<in>9128</in>
						<out>9878</out>
					</marker>
					<marker>
						<name>Politiet vurderer å avlyse konserten</name>
						<comment/>
						<in>10891</in>
						<out>11641</out>
					</marker>
					<marker>
						<name>Justin Bieber ankommer scenen</name>
						<comment/>
						<in>13795</in>
						<out>14545</out>
					</marker>
					<marker>
						<name>Justin Bieber møter Fredrik Skavlan på Nationalteatret</name>
						<comment/>
						<in>27699</in>
						<out>28449</out>
					</marker>
					<marker>
						<name>Justin snakker om kjæresten og om å være i et forhold</name>
						<comment/>
						<in>29221</in>
						<out>29971</out>
					</marker>
					<marker>
						<name>Justin skakker om at han ikke er en barnestjerne lenger</name>
						<comment/>
						<in>30447</in>
						<out>31197</out>
					</marker>
					<marker>
						<name>Justin om å vokse opp i rampelyset</name>
						<comment/>
						<in>32492</in>
						<out>33242</out>
					</marker>
					<marker>
						<name>Justin om barndommen</name>
						<comment/>
						<in>35024</in>
						<out>35774</out>
					</marker>
					<filter>
						<effect>
							<name>Audio Levels</name>
							<effectid>audiolevels</effectid>
							<effectcategory>audiolevels</effectcategory>
							<effecttype>audiolevels</effecttype>
							<mediatype>audio</mediatype>
							<parameter>
								<name>Level</name>
								<parameterid>level</parameterid>
								<valuemin>0</valuemin>
								<valuemax>3.98109</valuemax>
								<value>0.794328</value>
							</parameter>
						</effect>
					</filter>
					<filter>
						<effect>
							<name>Audio Pan</name>
							<effectid>audiopan</effectid>
							<effectcategory>audiopan</effectcategory>
							<effecttype>audiopan</effecttype>
							<mediatype>audio</mediatype>
							<parameter>
								<name>Pan</name>
								<parameterid>pan</parameterid>
								<valuemin>-1</valuemin>
								<valuemax>1</valuemax>
								<value>0</value>
							</parameter>
						</effect>
					</filter>
					<sourcetrack>
						<mediatype>audio</mediatype>
						<trackindex>1</trackindex>
					</sourcetrack>
					<link>
						<linkclipref>KMTE60004512AA6</linkclipref>
						<mediatype>audio</mediatype>
						<trackindex>5</trackindex>
						<clipindex>11</clipindex>
					</link>
					<link>
						<linkclipref>KMTE60004512AA7</linkclipref>
						<mediatype>audio</mediatype>
						<trackindex>6</trackindex>
						<clipindex>8</clipindex>
					</link>
				</clipitem>
				<transitionitem id="627036828 ">
					<rate>
						<ntsc>FALSE</ntsc>
						<timebase>25</timebase>
					</rate>
					<start>7691</start>
					<end>7741</end>
					<alignment>end-black</alignment>
					<effect>
						<name>Cross Fade ( 0dB)</name>
						<effecttype>transition</effecttype>
						<mediatype>audio</mediatype>
					</effect>
				</transitionitem>
				<clipitem id="NONRO185488CD0010 Loco">
					<name>NONRO185488CD0010 Loco</name>
					<duration>4813</duration>
					<rate>
						<ntsc>FALSE</ntsc>
						<timebase>25</timebase>
					</rate>
					<in>4</in>
					<out>1072</out>
					<start>9111</start>
					<end>-1</end>
					<enabled>TRUE</enabled>
					<masterclipid>NONRO185488CD0010 Loco1</masterclipid>
					<logginginfo>
						<scene/>
						<shottake/>
						<lognote/>
						<good>FALSE</good>
					</logginginfo>
					<labels>
						<label2/>
					</labels>
					<comments>
						<mastercomment1/>
						<mastercomment2/>
						<mastercomment3/>
						<mastercomment4/>
					</comments>
					<file id="NONRO185488CD0010 Loco2">
						<name>NONRO185488CD0010 Loco.aif</name>
						<pathurl>file://localhost/Volumes/SuperSAN1/Prosjekter/MSUB20000012%20FIN%20FREDAG/MUSIKK/musikk%20Bieber%20ep%201/NONRO185488CD0010%20Loco.aif</pathurl>
						<rate>
							<timebase>25</timebase>
						</rate>
						<duration>4813</duration>
						<media>
							<audio>
								<rate>
									<timebase>48000</timebase>
								</rate>
								<trackcount>2</trackcount>
								<samplecharacteristics>
									<depth>16</depth>
								</samplecharacteristics>
							</audio>
						</media>
					</file>
					<filter>
						<effect>
							<name>Audio Levels</name>
							<effectid>audiolevels</effectid>
							<effectcategory>audiolevels</effectcategory>
							<effecttype>audiolevels</effecttype>
							<mediatype>audio</mediatype>
							<parameter>
								<name>Level</name>
								<parameterid>level</parameterid>
								<valuemin>0</valuemin>
								<valuemax>3.98109</valuemax>
								<keyframe>
									<when>87.5</when>
									<value>0.141254</value>
								</keyframe>
								<keyframe>
									<when>122.5</when>
									<value>0.0630957</value>
								</keyframe>
								<keyframe>
									<when>190</when>
									<value>0.0251189</value>
								</keyframe>
								<keyframe>
									<when>315</when>
									<value>0.0251189</value>
								</keyframe>
								<keyframe>
									<when>366.25</when>
									<value>0.158489</value>
								</keyframe>
								<keyframe>
									<when>602</when>
									<value>0.158489</value>
								</keyframe>
								<keyframe>
									<when>712.286</when>
									<value>0.0586135</value>
								</keyframe>
								<keyframe>
									<when>1010</when>
									<value>0.0180766</value>
								</keyframe>
								<interpolation>
									<name>FCPCurve</name>
								</interpolation>
								<value>0.0180766</value>
							</parameter>
						</effect>
					</filter>
					<filter>
						<effect>
							<name>Audio Pan</name>
							<effectid>audiopan</effectid>
							<effectcategory>audiopan</effectcategory>
							<effecttype>audiopan</effecttype>
							<mediatype>audio</mediatype>
							<parameter>
								<name>Pan</name>
								<parameterid>pan</parameterid>
								<valuemin>-1</valuemin>
								<valuemax>1</valuemax>
								<value>-1</value>
							</parameter>
						</effect>
					</filter>
					<sourcetrack>
						<mediatype>audio</mediatype>
						<trackindex>1</trackindex>
					</sourcetrack>
					<link>
						<linkclipref>NONRO185488CD0010 Loco</linkclipref>
						<mediatype>audio</mediatype>
						<trackindex>5</trackindex>
						<clipindex>13</clipindex>
						<groupindex>1</groupindex>
					</link>
					<link>
						<linkclipref>NONRO185488CD0010 Loco3</linkclipref>
						<mediatype>audio</mediatype>
						<trackindex>6</trackindex>
						<clipindex>10</clipindex>
						<groupindex>1</groupindex>
					</link>
				</clipitem>
				<transitionitem id="627052672 ">
					<rate>
						<ntsc>FALSE</ntsc>
						<timebase>25</timebase>
					</rate>
					<start>10079</start>
					<end>10179</end>
					<alignment>end-black</alignment>
					<effect>
						<name>Cross Fade (+3dB) Copy</name>
						<effecttype>transition</effecttype>
						<mediatype>audio</mediatype>
					</effect>
				</transitionitem>
				<transitionitem id="627052128 ">
					<rate>
						<ntsc>FALSE</ntsc>
						<timebase>25</timebase>
					</rate>
					<start>13252</start>
					<end>13264</end>
					<alignment>start-black</alignment>
					<effect>
						<name>Cross Fade (+3dB) Copy</name>
						<effecttype>transition</effecttype>
						<mediatype>audio</mediatype>
					</effect>
				</transitionitem>
				<clipitem id="Spilledåse - wiegenlied - vuggesang (brahms)">
					<name>Spilledåse - wiegenlied - vuggesang (brahms)</name>
					<duration>2348</duration>
					<rate>
						<ntsc>FALSE</ntsc>
						<timebase>25</timebase>
					</rate>
					<in>0</in>
					<out>221</out>
					<start>-1</start>
					<end>-1</end>
					<masterclipid>Spilledåse - wiegenlied - vuggesang (brahms)1</masterclipid>
					<logginginfo>
						<scene/>
						<shottake/>
						<lognote/>
						<good>FALSE</good>
					</logginginfo>
					<labels>
						<label2/>
					</labels>
					<comments>
						<mastercomment1/>
						<mastercomment2/>
						<mastercomment3/>
						<mastercomment4/>
					</comments>
					<file id="Spilledåse - wiegenlied - vuggesang (brahms)2">
						<name>Spilledåse - wiegenlied - vuggesang (brahms).WAV</name>
						<pathurl>file://localhost/Volumes/SuperSAN1/Prosjekter/MSUB20000012%20FIN%20FREDAG/MUSIKK/musikk%20Bieber%20ep%201/Spilleda%CC%8Ase%20-%20wiegenlied%20-%20vuggesang%20(brahms).WAV</pathurl>
						<rate>
							<timebase>25</timebase>
						</rate>
						<duration>2348</duration>
						<timecode>
							<rate>
								<timebase>25</timebase>
							</rate>
							<string>00:00:00:00</string>
							<frame>0</frame>
							<displayformat>NDF</displayformat>
							<source>source</source>
						</timecode>
						<media>
							<audio>
								<rate>
									<timebase>48000</timebase>
								</rate>
								<trackcount>2</trackcount>
								<samplecharacteristics>
									<depth>16</depth>
								</samplecharacteristics>
							</audio>
						</media>
					</file>
					<filter>
						<effect>
							<name>Audio Levels</name>
							<effectid>audiolevels</effectid>
							<effectcategory>audiolevels</effectcategory>
							<effecttype>audiolevels</effecttype>
							<mediatype>audio</mediatype>
							<parameter>
								<name>Level</name>
								<parameterid>level</parameterid>
								<valuemin>0</valuemin>
								<valuemax>3.98109</valuemax>
								<value>0.630957</value>
							</parameter>
						</effect>
					</filter>
					<filter>
						<effect>
							<name>Audio Pan</name>
							<effectid>audiopan</effectid>
							<effectcategory>audiopan</effectcategory>
							<effecttype>audiopan</effecttype>
							<mediatype>audio</mediatype>
							<parameter>
								<name>Pan</name>
								<parameterid>pan</parameterid>
								<valuemin>-1</valuemin>
								<valuemax>1</valuemax>
								<value>-1</value>
							</parameter>
						</effect>
					</filter>
					<sourcetrack>
						<mediatype>audio</mediatype>
						<trackindex>1</trackindex>
					</sourcetrack>
					<link>
						<linkclipref>Spilledåse - wiegenlied - vuggesang (brahms)</linkclipref>
						<mediatype>audio</mediatype>
						<trackindex>5</trackindex>
						<clipindex>16</clipindex>
						<groupindex>1</groupindex>
					</link>
					<link>
						<linkclipref>Spilledåse - wiegenlied - vuggesang (brahms)3</linkclipref>
						<mediatype>audio</mediatype>
						<trackindex>6</trackindex>
						<clipindex>13</clipindex>
						<groupindex>1</groupindex>
					</link>
				</clipitem>
				<transitionitem id="627049748 ">
					<rate>
						<ntsc>FALSE</ntsc>
						<timebase>25</timebase>
					</rate>
					<start>13469</start>
					<end>13473</end>
					<alignment>end-black</alignment>
					<effect>
						<name>Cross Fade (+3dB) Copy</name>
						<effecttype>transition</effecttype>
						<mediatype>audio</mediatype>
					</effect>
				</transitionitem>
				<clipitem id="gong.wav2">
					<name>gong.wav</name>
					<duration>42</duration>
					<rate>
						<ntsc>FALSE</ntsc>
						<timebase>25</timebase>
					</rate>
					<in>0</in>
					<out>42</out>
					<start>24736</start>
					<end>24778</end>
					<masterclipid>gong.wav1</masterclipid>
					<logginginfo>
						<scene/>
						<shottake/>
						<lognote/>
						<good>FALSE</good>
					</logginginfo>
					<labels>
						<label2/>
					</labels>
					<comments>
						<mastercomment1/>
						<mastercomment2/>
						<mastercomment3/>
						<mastercomment4/>
					</comments>
					<file id="gong"/>
					<filter>
						<effect>
							<name>Audio Levels</name>
							<effectid>audiolevels</effectid>
							<effectcategory>audiolevels</effectcategory>
							<effecttype>audiolevels</effecttype>
							<mediatype>audio</mediatype>
							<parameter>
								<name>Level</name>
								<parameterid>level</parameterid>
								<valuemin>0</valuemin>
								<valuemax>3.98109</valuemax>
								<value>0.112202</value>
							</parameter>
						</effect>
					</filter>
					<filter>
						<effect>
							<name>Audio Pan</name>
							<effectid>audiopan</effectid>
							<effectcategory>audiopan</effectcategory>
							<effecttype>audiopan</effecttype>
							<mediatype>audio</mediatype>
							<parameter>
								<name>Pan</name>
								<parameterid>pan</parameterid>
								<valuemin>-1</valuemin>
								<valuemax>1</valuemax>
								<value>0</value>
							</parameter>
						</effect>
					</filter>
					<sourcetrack>
						<mediatype>audio</mediatype>
						<trackindex>1</trackindex>
					</sourcetrack>
				</clipitem>
				<transitionitem id="627050224 ">
					<rate>
						<ntsc>FALSE</ntsc>
						<timebase>25</timebase>
					</rate>
					<start>25253</start>
					<end>25265</end>
					<alignment>start-black</alignment>
					<effect>
						<name>Cross Fade (+3dB) Copy</name>
						<effecttype>transition</effecttype>
						<mediatype>audio</mediatype>
					</effect>
				</transitionitem>
				<clipitem id="SONI045308.wav">
					<name>SONI045308.wav</name>
					<duration>10789</duration>
					<rate>
						<ntsc>FALSE</ntsc>
						<timebase>25</timebase>
					</rate>
					<in>2854</in>
					<out>3380</out>
					<start>-1</start>
					<end>-1</end>
					<subframeoffset>0</subframeoffset>
					<masterclipid>SONI045308.wav1</masterclipid>
					<logginginfo>
						<scene/>
						<shottake/>
						<lognote/>
						<good>FALSE</good>
					</logginginfo>
					<labels>
						<label2/>
					</labels>
					<comments>
						<mastercomment1/>
						<mastercomment2/>
						<mastercomment3/>
						<mastercomment4/>
					</comments>
					<file id="SONI045308 ">
						<name>SONI045308.wav</name>
						<pathurl>file://localhost/Volumes/SuperSAN1/Prosjekter/MSUB20000012%20FIN%20FREDAG/FCP-prosjekter/program%201/Musikk/Hinderloype/Hinderl%C3%B8ype%20slala%CC%8Am/SONI045308.wav</pathurl>
						<rate>
							<timebase>25</timebase>
						</rate>
						<duration>10789</duration>
						<timecode>
							<rate>
								<timebase>25</timebase>
							</rate>
							<string>00:00:00:00</string>
							<frame>0</frame>
							<displayformat>NDF</displayformat>
							<source>source</source>
						</timecode>
						<media>
							<audio>
								<rate>
									<timebase>48000</timebase>
								</rate>
								<trackcount>2</trackcount>
								<samplecharacteristics>
									<depth>16</depth>
								</samplecharacteristics>
							</audio>
						</media>
					</file>
					<filter>
						<effect>
							<name>Audio Levels</name>
							<effectid>audiolevels</effectid>
							<effectcategory>audiolevels</effectcategory>
							<effecttype>audiolevels</effecttype>
							<mediatype>audio</mediatype>
							<parameter>
								<name>Level</name>
								<parameterid>level</parameterid>
								<valuemin>0</valuemin>
								<valuemax>3.98109</valuemax>
								<keyframe>
									<when>3167.71</when>
									<value>0.281838</value>
								</keyframe>
								<keyframe>
									<when>3185.14</when>
									<value>0.158489</value>
								</keyframe>
								<interpolation>
									<name>FCPCurve</name>
								</interpolation>
								<value>0.281838</value>
							</parameter>
						</effect>
					</filter>
					<filter>
						<effect>
							<name>Audio Pan</name>
							<effectid>audiopan</effectid>
							<effectcategory>audiopan</effectcategory>
							<effecttype>audiopan</effecttype>
							<mediatype>audio</mediatype>
							<parameter>
								<name>Pan</name>
								<parameterid>pan</parameterid>
								<valuemin>-1</valuemin>
								<valuemax>1</valuemax>
								<value>-1</value>
							</parameter>
						</effect>
					</filter>
					<sourcetrack>
						<mediatype>audio</mediatype>
						<trackindex>1</trackindex>
					</sourcetrack>
					<link>
						<linkclipref>SONI045308.wav</linkclipref>
						<mediatype>audio</mediatype>
						<trackindex>5</trackindex>
						<clipindex>20</clipindex>
						<groupindex>1</groupindex>
					</link>
					<link>
						<linkclipref>SONI045308.wav2</linkclipref>
						<mediatype>audio</mediatype>
						<trackindex>6</trackindex>
						<clipindex>16</clipindex>
						<groupindex>1</groupindex>
					</link>
				</clipitem>
				<transitionitem id="627050564 ">
					<rate>
						<ntsc>FALSE</ntsc>
						<timebase>25</timebase>
					</rate>
					<start>25754</start>
					<end>25779</end>
					<alignment>end-black</alignment>
					<effect>
						<name>Cross Fade (+3dB) Copy</name>
						<effecttype>transition</effecttype>
						<mediatype>audio</mediatype>
					</effect>
				</transitionitem>
				<clipitem id="Boing - hoink - plystring.aif23">
					<name>Boing - hoink - plystring.aif</name>
					<duration>256</duration>
					<rate>
						<ntsc>FALSE</ntsc>
						<timebase>25</timebase>
					</rate>
					<in>41</in>
					<out>46</out>
					<start>25849</start>
					<end>25854</end>
					<subframeoffset>0</subframeoffset>
					<masterclipid>Boing - hoink - plystring.aif1</masterclipid>
					<logginginfo>
						<scene/>
						<shottake/>
						<lognote/>
						<good>FALSE</good>
					</logginginfo>
					<labels>
						<label2/>
					</labels>
					<comments>
						<mastercomment1/>
						<mastercomment2/>
						<mastercomment3/>
						<mastercomment4/>
					</comments>
					<file id="Boing - hoink - plystring"/>
					<filter>
						<effect>
							<name>Audio Levels</name>
							<effectid>audiolevels</effectid>
							<effectcategory>audiolevels</effectcategory>
							<effecttype>audiolevels</effecttype>
							<mediatype>audio</mediatype>
							<parameter>
								<name>Level</name>
								<parameterid>level</parameterid>
								<valuemin>0</valuemin>
								<valuemax>3.98109</valuemax>
								<value>0.630957</value>
							</parameter>
						</effect>
					</filter>
					<filter>
						<effect>
							<name>Audio Pan</name>
							<effectid>audiopan</effectid>
							<effectcategory>audiopan</effectcategory>
							<effecttype>audiopan</effecttype>
							<mediatype>audio</mediatype>
							<parameter>
								<name>Pan</name>
								<parameterid>pan</parameterid>
								<valuemin>-1</valuemin>
								<valuemax>1</valuemax>
								<value>-1</value>
							</parameter>
						</effect>
					</filter>
					<sourcetrack>
						<mediatype>audio</mediatype>
						<trackindex>1</trackindex>
					</sourcetrack>
					<link>
						<linkclipref>Boing - hoink - plystring.aif23</linkclipref>
						<mediatype>audio</mediatype>
						<trackindex>5</trackindex>
						<clipindex>22</clipindex>
						<groupindex>1</groupindex>
					</link>
					<link>
						<linkclipref>Boing - hoink - plystring.aif24</linkclipref>
						<mediatype>audio</mediatype>
						<trackindex>6</trackindex>
						<clipindex>18</clipindex>
						<groupindex>1</groupindex>
					</link>
				</clipitem>
				<transitionitem id="627044240 ">
					<rate>
						<ntsc>FALSE</ntsc>
						<timebase>25</timebase>
					</rate>
					<start>27303</start>
					<end>27315</end>
					<alignment>center</alignment>
					<effect>
						<name>Cross Fade (+3dB) Copy</name>
						<effecttype>transition</effecttype>
						<mediatype>audio</mediatype>
					</effect>
				</transitionitem>
				<clipitem id="SCD074915.wav">
					<name>SCD074915.wav</name>
					<duration>215</duration>
					<rate>
						<ntsc>FALSE</ntsc>
						<timebase>25</timebase>
					</rate>
					<in>0</in>
					<out>189</out>
					<start>-1</start>
					<end>-1</end>
					<enabled>TRUE</enabled>
					<masterclipid>SCD074915.wav1</masterclipid>
					<logginginfo>
						<scene/>
						<shottake/>
						<lognote/>
						<good>FALSE</good>
					</logginginfo>
					<labels>
						<label2/>
					</labels>
					<comments>
						<mastercomment1/>
						<mastercomment2/>
						<mastercomment3/>
						<mastercomment4/>
					</comments>
					<file id="SCD074915 ">
						<name>SCD074915.wav</name>
						<pathurl>file://localhost/Volumes/SuperSAN1/Prosjekter/MSUB20000012%20FIN%20FREDAG/FCP-prosjekter/program%201/Musikk/Hinderloype/Hinderl%C3%B8ype%20hopp/SCD074915.wav</pathurl>
						<rate>
							<timebase>25</timebase>
						</rate>
						<duration>215</duration>
						<timecode>
							<rate>
								<timebase>25</timebase>
							</rate>
							<string>00:24:27:10</string>
							<frame>36685</frame>
							<displayformat>NDF</displayformat>
							<source>source</source>
						</timecode>
						<media>
							<audio>
								<rate>
									<timebase>48000</timebase>
								</rate>
								<trackcount>2</trackcount>
								<samplecharacteristics>
									<depth>16</depth>
								</samplecharacteristics>
							</audio>
						</media>
					</file>
					<filter>
						<effect>
							<name>Audio Levels</name>
							<effectid>audiolevels</effectid>
							<effectcategory>audiolevels</effectcategory>
							<effecttype>audiolevels</effecttype>
							<mediatype>audio</mediatype>
							<parameter>
								<name>Level</name>
								<parameterid>level</parameterid>
								<valuemin>0</valuemin>
								<valuemax>3.98109</valuemax>
								<keyframe>
									<when>16.8571</when>
									<value>0.0630957</value>
								</keyframe>
								<keyframe>
									<when>63.1429</when>
									<value>0.112202</value>
								</keyframe>
								<keyframe>
									<when>115.679</when>
									<value>0.141254</value>
								</keyframe>
								<keyframe>
									<when>142.571</when>
									<value>0.0630957</value>
								</keyframe>
								<interpolation>
									<name>FCPCurve</name>
								</interpolation>
								<value>0.446684</value>
							</parameter>
						</effect>
					</filter>
					<filter>
						<effect>
							<name>Audio Pan</name>
							<effectid>audiopan</effectid>
							<effectcategory>audiopan</effectcategory>
							<effecttype>audiopan</effecttype>
							<mediatype>audio</mediatype>
							<parameter>
								<name>Pan</name>
								<parameterid>pan</parameterid>
								<valuemin>-1</valuemin>
								<valuemax>1</valuemax>
								<value>-1</value>
							</parameter>
						</effect>
					</filter>
					<sourcetrack>
						<mediatype>audio</mediatype>
						<trackindex>1</trackindex>
					</sourcetrack>
					<link>
						<linkclipref>SCD074915.wav</linkclipref>
						<mediatype>audio</mediatype>
						<trackindex>5</trackindex>
						<clipindex>24</clipindex>
						<groupindex>1</groupindex>
					</link>
					<link>
						<linkclipref>SCD074915.wav2</linkclipref>
						<mediatype>audio</mediatype>
						<trackindex>6</trackindex>
						<clipindex>20</clipindex>
						<groupindex>1</groupindex>
					</link>
				</clipitem>
				<transitionitem id="627047096 ">
					<rate>
						<ntsc>FALSE</ntsc>
						<timebase>25</timebase>
					</rate>
					<start>27442</start>
					<end>27492</end>
					<alignment>end-black</alignment>
					<effect>
						<name>Cross Fade (+3dB) Copy</name>
						<effecttype>transition</effecttype>
						<mediatype>audio</mediatype>
					</effect>
				</transitionitem>
				<transitionitem id="627044920 ">
					<rate>
						<ntsc>FALSE</ntsc>
						<timebase>25</timebase>
					</rate>
					<start>34859</start>
					<end>34865</end>
					<alignment>center</alignment>
					<effect>
						<name>Cross Fade (+3dB) Copy</name>
						<effecttype>transition</effecttype>
						<mediatype>audio</mediatype>
					</effect>
				</transitionitem>
				<clipitem id="FIN_FREDAP01_2 ">
					<name>FIN_FREDAP01_2</name>
					<duration>17000</duration>
					<rate>
						<ntsc>FALSE</ntsc>
						<timebase>25</timebase>
					</rate>
					<in>7450</in>
					<out>7592</out>
					<start>-1</start>
					<end>-1</end>
					<enabled>TRUE</enabled>
					<masterclipid>FIN_FREDAP01_2 1</masterclipid>
					<logginginfo>
						<scene>FIN_FREDA</scene>
						<shottake>01</shottake>
						<lognote/>
						<good>FALSE</good>
					</logginginfo>
					<labels>
						<label2/>
					</labels>
					<comments>
						<mastercomment1/>
						<mastercomment2/>
						<mastercomment3/>
						<mastercomment4/>
					</comments>
					<file id="FIN_FREDAP01_2 2">
						<name>FIN_FREDAP01_2.WAV</name>
						<pathurl>file://localhost/Volumes/SuperSAN1/Prosjekter/MSUB20000012%20FIN%20FREDAG/FCP-prosjekter/program%201/Konsertlyd/FIN_FREDAP01_2.WAV</pathurl>
						<rate>
							<timebase>25</timebase>
						</rate>
						<duration>17000</duration>
						<timecode>
							<rate>
								<timebase>25</timebase>
							</rate>
							<string>00:55:26:00</string>
							<frame>83150</frame>
							<displayformat>NDF</displayformat>
							<source>source</source>
							<reel>
								<name>120904</name>
							</reel>
						</timecode>
						<media>
							<audio>
								<rate>
									<timebase>48000</timebase>
								</rate>
								<trackcount>1</trackcount>
								<samplecharacteristics>
									<depth>24</depth>
								</samplecharacteristics>
							</audio>
						</media>
					</file>
					<filter>
						<enabled>TRUE</enabled>
						<start>-1</start>
						<end>-1</end>
						<effect>
							<name>3 Band Equalizer - Mann</name>
							<effecttype>filter</effecttype>
							<mediatype>audio</mediatype>
							<parameter>
								<parameterid>Low Frequency</parameterid>
								<name>Low Frequency</name>
								<valuemin>80</valuemin>
								<valuemax>2000</valuemax>
								<value>204</value>
							</parameter>
							<parameter>
								<parameterid>Low Gain(dB)</parameterid>
								<name>Low Gain(dB)</name>
								<valuemin>-20</valuemin>
								<valuemax>20</valuemax>
								<value>-2</value>
							</parameter>
							<parameter>
								<parameterid>Mid Frequency</parameterid>
								<name>Mid Frequency</name>
								<valuemin>400</valuemin>
								<valuemax>8000</valuemax>
								<value>3602</value>
							</parameter>
							<parameter>
								<parameterid>Mid Gain(dB)</parameterid>
								<name>Mid Gain(dB)</name>
								<valuemin>-20</valuemin>
								<valuemax>20</valuemax>
								<value>-2</value>
							</parameter>
							<parameter>
								<parameterid>High Frequency</parameterid>
								<name>High Frequency</name>
								<valuemin>5000</valuemin>
								<valuemax>20000</valuemax>
								<value>10354</value>
							</parameter>
							<parameter>
								<parameterid>High Gain(dB)</parameterid>
								<name>High Gain(dB)</name>
								<valuemin>-20</valuemin>
								<valuemax>20</valuemax>
								<value>4</value>
							</parameter>
						</effect>
					</filter>
					<filter>
						<effect>
							<name>Audio Levels</name>
							<effectid>audiolevels</effectid>
							<effectcategory>audiolevels</effectcategory>
							<effecttype>audiolevels</effecttype>
							<mediatype>audio</mediatype>
							<parameter>
								<name>Level</name>
								<parameterid>level</parameterid>
								<valuemin>0</valuemin>
								<valuemax>3.98109</valuemax>
								<keyframe>
									<when>2011.5</when>
									<value>0.141254</value>
								</keyframe>
								<keyframe>
									<when>2025</when>
									<value>1</value>
								</keyframe>
								<keyframe>
									<when>2158.5</when>
									<value>1</value>
								</keyframe>
								<keyframe>
									<when>2175</when>
									<value>1</value>
								</keyframe>
								<keyframe>
									<when>2196</when>
									<value>1</value>
								</keyframe>
								<keyframe>
									<when>2235.75</when>
									<value>1.25893</value>
								</keyframe>
								<keyframe>
									<when>2706</when>
									<value>1.25893</value>
								</keyframe>
								<keyframe>
									<when>2728.5</when>
									<value>1.58489</value>
								</keyframe>
								<keyframe>
									<when>3765</when>
									<value>1.58489</value>
								</keyframe>
								<keyframe>
									<when>3837</when>
									<value>0.632669</value>
								</keyframe>
								<keyframe>
									<when>4761</when>
									<value>0.632669</value>
								</keyframe>
								<keyframe>
									<when>4782</when>
									<value>0.630957</value>
								</keyframe>
								<keyframe>
									<when>6087</when>
									<value>0.707946</value>
								</keyframe>
								<keyframe>
									<when>6144</when>
									<value>0.398107</value>
								</keyframe>
								<keyframe>
									<when>6637.5</when>
									<value>0.398107</value>
								</keyframe>
								<keyframe>
									<when>6718.5</when>
									<value>0.794328</value>
								</keyframe>
								<keyframe>
									<when>7432.5</when>
									<value>0.794328</value>
								</keyframe>
								<keyframe>
									<when>7459.5</when>
									<value>0</value>
								</keyframe>
								<interpolation>
									<name>FCPCurve</name>
								</interpolation>
								<value>1.58489</value>
							</parameter>
						</effect>
					</filter>
					<filter>
						<effect>
							<name>Audio Pan</name>
							<effectid>audiopan</effectid>
							<effectcategory>audiopan</effectcategory>
							<effecttype>audiopan</effecttype>
							<mediatype>audio</mediatype>
							<parameter>
								<name>Pan</name>
								<parameterid>pan</parameterid>
								<valuemin>-1</valuemin>
								<valuemax>1</valuemax>
								<value>0.117647</value>
							</parameter>
						</effect>
					</filter>
					<sourcetrack>
						<mediatype>audio</mediatype>
						<trackindex>1</trackindex>
					</sourcetrack>
				</clipitem>
				<transitionitem id="627032068 ">
					<rate>
						<ntsc>FALSE</ntsc>
						<timebase>25</timebase>
					</rate>
					<start>34951</start>
					<end>35001</end>
					<alignment>end-black</alignment>
					<effect>
						<name>Cross Fade ( 0dB)</name>
						<effecttype>transition</effecttype>
						<mediatype>audio</mediatype>
					</effect>
				</transitionitem>
				<transitionitem id="627034040 ">
					<rate>
						<ntsc>FALSE</ntsc>
						<timebase>25</timebase>
					</rate>
					<start>36354</start>
					<end>36360</end>
					<alignment>start-black</alignment>
					<effect>
						<name>Cross Fade (+3dB) Copy</name>
						<effecttype>transition</effecttype>
						<mediatype>audio</mediatype>
					</effect>
				</transitionitem>
				<clipitem id="Stråling.wav3">
					<name>Stråling.wav</name>
					<duration>618</duration>
					<rate>
						<ntsc>FALSE</ntsc>
						<timebase>25</timebase>
					</rate>
					<in>30</in>
					<out>45</out>
					<start>-1</start>
					<end>-1</end>
					<subframeoffset>0</subframeoffset>
					<enabled>TRUE</enabled>
					<masterclipid>Stråling.wav1</masterclipid>
					<logginginfo>
						<scene/>
						<shottake/>
						<lognote/>
						<good>FALSE</good>
					</logginginfo>
					<labels>
						<label2/>
					</labels>
					<comments>
						<mastercomment1/>
						<mastercomment2/>
						<mastercomment3/>
						<mastercomment4/>
					</comments>
					<file id="Stråling"/>
					<filter>
						<effect>
							<name>Audio Levels</name>
							<effectid>audiolevels</effectid>
							<effectcategory>audiolevels</effectcategory>
							<effecttype>audiolevels</effecttype>
							<mediatype>audio</mediatype>
							<parameter>
								<name>Level</name>
								<parameterid>level</parameterid>
								<valuemin>0</valuemin>
								<valuemax>3.98109</valuemax>
								<value>0.158489</value>
							</parameter>
						</effect>
					</filter>
					<filter>
						<effect>
							<name>Audio Pan</name>
							<effectid>audiopan</effectid>
							<effectcategory>audiopan</effectcategory>
							<effecttype>audiopan</effecttype>
							<mediatype>audio</mediatype>
							<parameter>
								<name>Pan</name>
								<parameterid>pan</parameterid>
								<valuemin>-1</valuemin>
								<valuemax>1</valuemax>
								<value>-1</value>
							</parameter>
						</effect>
					</filter>
					<sourcetrack>
						<mediatype>audio</mediatype>
						<trackindex>1</trackindex>
					</sourcetrack>
					<link>
						<linkclipref>Stråling.wav3</linkclipref>
						<mediatype>audio</mediatype>
						<trackindex>5</trackindex>
						<clipindex>30</clipindex>
						<groupindex>1</groupindex>
					</link>
					<link>
						<linkclipref>Stråling.wav4</linkclipref>
						<mediatype>audio</mediatype>
						<trackindex>6</trackindex>
						<clipindex>26</clipindex>
						<groupindex>1</groupindex>
					</link>
				</clipitem>
				<transitionitem id="627027716 ">
					<rate>
						<ntsc>FALSE</ntsc>
						<timebase>25</timebase>
					</rate>
					<start>36367</start>
					<end>36369</end>
					<alignment>end-black</alignment>
					<effect>
						<name>Cross Fade (+3dB) Copy</name>
						<effecttype>transition</effecttype>
						<mediatype>audio</mediatype>
					</effect>
				</transitionitem>
				<clipitem id="ToojiHjelpen-ut3">
					<name>ToojiHjelpen-ut</name>
					<duration>88</duration>
					<rate>
						<ntsc>FALSE</ntsc>
						<timebase>25</timebase>
					</rate>
					<in>0</in>
					<out>88</out>
					<start>39407</start>
					<end>39495</end>
					<subframeoffset>0</subframeoffset>
					<masterclipid>ToojiHjelpen-ut1</masterclipid>
					<logginginfo>
						<scene/>
						<shottake/>
						<lognote/>
						<good>FALSE</good>
					</logginginfo>
					<labels>
						<label2/>
					</labels>
					<comments>
						<mastercomment1/>
						<mastercomment2/>
						<mastercomment3/>
						<mastercomment4/>
					</comments>
					<file id="ToojiHjelpen-ut2"/>
					<filter>
						<effect>
							<name>Audio Levels</name>
							<effectid>audiolevels</effectid>
							<effectcategory>audiolevels</effectcategory>
							<effecttype>audiolevels</effecttype>
							<mediatype>audio</mediatype>
							<parameter>
								<name>Level</name>
								<parameterid>level</parameterid>
								<valuemin>0</valuemin>
								<valuemax>3.98109</valuemax>
								<keyframe>
									<when>57</when>
									<value>1</value>
								</keyframe>
								<keyframe>
									<when>73</when>
									<value>0.707946</value>
								</keyframe>
								<interpolation>
									<name>FCPCurve</name>
								</interpolation>
								<value>1</value>
							</parameter>
						</effect>
					</filter>
					<filter>
						<effect>
							<name>Audio Pan</name>
							<effectid>audiopan</effectid>
							<effectcategory>audiopan</effectcategory>
							<effecttype>audiopan</effecttype>
							<mediatype>audio</mediatype>
							<parameter>
								<name>Pan</name>
								<parameterid>pan</parameterid>
								<valuemin>-1</valuemin>
								<valuemax>1</valuemax>
								<value>-1</value>
							</parameter>
						</effect>
					</filter>
					<sourcetrack>
						<mediatype>audio</mediatype>
						<trackindex>1</trackindex>
					</sourcetrack>
					<link>
						<linkclipref>ToojiHjelpen-ut</linkclipref>
						<mediatype>video</mediatype>
						<trackindex>5</trackindex>
						<clipindex>19</clipindex>
					</link>
					<link>
						<linkclipref>ToojiHjelpen-ut3</linkclipref>
						<mediatype>audio</mediatype>
						<trackindex>5</trackindex>
						<clipindex>32</clipindex>
					</link>
					<link>
						<linkclipref>ToojiHjelpen-ut4</linkclipref>
						<mediatype>audio</mediatype>
						<trackindex>6</trackindex>
						<clipindex>28</clipindex>
					</link>
				</clipitem>
				<transitionitem id="627030912 ">
					<rate>
						<ntsc>FALSE</ntsc>
						<timebase>25</timebase>
					</rate>
					<start>40123</start>
					<end>40135</end>
					<alignment>start-black</alignment>
					<effect>
						<name>Cross Fade (+3dB) Copy</name>
						<effecttype>transition</effecttype>
						<mediatype>audio</mediatype>
					</effect>
				</transitionitem>
				<clipitem id="11 Residential, Day - Singing Birds, Traffic Pass And In B/G Ambience.aiff">
					<name>11 Residential, Day - Singing Birds, Traffic Pass And In B/G Ambience.aiff</name>
					<duration>6098</duration>
					<rate>
						<ntsc>FALSE</ntsc>
						<timebase>25</timebase>
					</rate>
					<in>3169</in>
					<out>3243</out>
					<start>-1</start>
					<end>-1</end>
					<subframeoffset>0</subframeoffset>
					<masterclipid>11 Residential, Day - Singing Birds, Traffic Pass And In B/G Ambience.aiff1</masterclipid>
					<logginginfo>
						<scene/>
						<shottake/>
						<lognote/>
						<good>FALSE</good>
					</logginginfo>
					<labels>
						<label2/>
					</labels>
					<comments>
						<mastercomment1/>
						<mastercomment2/>
						<mastercomment3/>
						<mastercomment4/>
					</comments>
					<file id="11 Residential, Day - Singing Birds, Traffic Pass And In B/G Ambience">
						<name>11 Residential, Day - Singing Birds, Traffic Pass And In B/G Ambience.aiff</name>
						<pathurl>file://localhost/Volumes/SuperSAN1/Prosjekter/MSUB20000012%20FIN%20FREDAG/SFX/11%20Residential,%20Day%20-%20Singing%20Birds,%20Traffic%20Pass%20And%20In%20B:G%20Ambience.aiff</pathurl>
						<rate>
							<timebase>25</timebase>
						</rate>
						<duration>6098</duration>
						<media>
							<audio>
								<rate>
									<timebase>44100</timebase>
								</rate>
								<trackcount>2</trackcount>
								<samplecharacteristics>
									<depth>16</depth>
								</samplecharacteristics>
							</audio>
						</media>
					</file>
					<filter>
						<effect>
							<name>Audio Levels</name>
							<effectid>audiolevels</effectid>
							<effectcategory>audiolevels</effectcategory>
							<effecttype>audiolevels</effecttype>
							<mediatype>audio</mediatype>
							<parameter>
								<name>Level</name>
								<parameterid>level</parameterid>
								<valuemin>0</valuemin>
								<valuemax>3.98109</valuemax>
								<value>0.0891251</value>
							</parameter>
						</effect>
					</filter>
					<filter>
						<effect>
							<name>Audio Pan</name>
							<effectid>audiopan</effectid>
							<effectcategory>audiopan</effectcategory>
							<effecttype>audiopan</effecttype>
							<mediatype>audio</mediatype>
							<parameter>
								<name>Pan</name>
								<parameterid>pan</parameterid>
								<valuemin>-1</valuemin>
								<valuemax>1</valuemax>
								<value>-1</value>
							</parameter>
						</effect>
					</filter>
					<sourcetrack>
						<mediatype>audio</mediatype>
						<trackindex>1</trackindex>
					</sourcetrack>
					<link>
						<linkclipref>11 Residential, Day - Singing Birds, Traffic Pass And In B/G Ambience.aiff</linkclipref>
						<mediatype>audio</mediatype>
						<trackindex>5</trackindex>
						<clipindex>34</clipindex>
						<groupindex>1</groupindex>
					</link>
					<link>
						<linkclipref>11 Residential, Day - Singing Birds, Traffic Pass And In B/G Ambience.aiff2</linkclipref>
						<mediatype>audio</mediatype>
						<trackindex>6</trackindex>
						<clipindex>30</clipindex>
						<groupindex>1</groupindex>
					</link>
				</clipitem>
				<transitionitem id="627028192 ">
					<rate>
						<ntsc>FALSE</ntsc>
						<timebase>25</timebase>
					</rate>
					<start>40172</start>
					<end>40197</end>
					<alignment>end-black</alignment>
					<effect>
						<name>Cross Fade (+3dB)</name>
						<effecttype>transition</effecttype>
						<mediatype>audio</mediatype>
					</effect>
				</transitionitem>
				<transitionitem id="627028804 ">
					<rate>
						<ntsc>FALSE</ntsc>
						<timebase>25</timebase>
					</rate>
					<start>40301</start>
					<end>40307</end>
					<alignment>start-black</alignment>
					<effect>
						<name>Cross Fade (+3dB) Copy</name>
						<effecttype>transition</effecttype>
						<mediatype>audio</mediatype>
					</effect>
				</transitionitem>
				<clipitem id="Stråling.wav5">
					<name>Stråling.wav</name>
					<duration>618</duration>
					<rate>
						<ntsc>FALSE</ntsc>
						<timebase>25</timebase>
					</rate>
					<in>30</in>
					<out>45</out>
					<start>-1</start>
					<end>-1</end>
					<subframeoffset>0</subframeoffset>
					<enabled>TRUE</enabled>
					<masterclipid>Stråling.wav1</masterclipid>
					<logginginfo>
						<scene/>
						<shottake/>
						<lognote/>
						<good>FALSE</good>
					</logginginfo>
					<labels>
						<label2/>
					</labels>
					<comments>
						<mastercomment1/>
						<mastercomment2/>
						<mastercomment3/>
						<mastercomment4/>
					</comments>
					<file id="Stråling"/>
					<filter>
						<effect>
							<name>Audio Levels</name>
							<effectid>audiolevels</effectid>
							<effectcategory>audiolevels</effectcategory>
							<effecttype>audiolevels</effecttype>
							<mediatype>audio</mediatype>
							<parameter>
								<name>Level</name>
								<parameterid>level</parameterid>
								<valuemin>0</valuemin>
								<valuemax>3.98109</valuemax>
								<value>0.354813</value>
							</parameter>
						</effect>
					</filter>
					<filter>
						<effect>
							<name>Audio Pan</name>
							<effectid>audiopan</effectid>
							<effectcategory>audiopan</effectcategory>
							<effecttype>audiopan</effecttype>
							<mediatype>audio</mediatype>
							<parameter>
								<name>Pan</name>
								<parameterid>pan</parameterid>
								<valuemin>-1</valuemin>
								<valuemax>1</valuemax>
								<value>-1</value>
							</parameter>
						</effect>
					</filter>
					<sourcetrack>
						<mediatype>audio</mediatype>
						<trackindex>1</trackindex>
					</sourcetrack>
					<link>
						<linkclipref>Stråling.wav5</linkclipref>
						<mediatype>audio</mediatype>
						<trackindex>5</trackindex>
						<clipindex>37</clipindex>
						<groupindex>1</groupindex>
					</link>
					<link>
						<linkclipref>Stråling.wav6</linkclipref>
						<mediatype>audio</mediatype>
						<trackindex>6</trackindex>
						<clipindex>33</clipindex>
						<groupindex>1</groupindex>
					</link>
				</clipitem>
				<transitionitem id="627031320 ">
					<rate>
						<ntsc>FALSE</ntsc>
						<timebase>25</timebase>
					</rate>
					<start>40314</start>
					<end>40316</end>
					<alignment>end-black</alignment>
					<effect>
						<name>Cross Fade (+3dB) Copy</name>
						<effecttype>transition</effecttype>
						<mediatype>audio</mediatype>
					</effect>
				</transitionitem>
				<clipitem id="13 Residential, Day - Traffic In F/G And B/G Ambience.aiff">
					<name>13 Residential, Day - Traffic In F/G And B/G Ambience.aiff</name>
					<duration>6117</duration>
					<rate>
						<ntsc>FALSE</ntsc>
						<timebase>25</timebase>
					</rate>
					<in>1431</in>
					<out>1852</out>
					<start>41052</start>
					<end>-1</end>
					<subframeoffset>0</subframeoffset>
					<enabled>TRUE</enabled>
					<masterclipid>13 Residential, Day - Traffic In F/G And B/G Ambience.aiff1</masterclipid>
					<logginginfo>
						<scene/>
						<shottake/>
						<lognote/>
						<good>FALSE</good>
					</logginginfo>
					<labels>
						<label2/>
					</labels>
					<comments>
						<mastercomment1/>
						<mastercomment2/>
						<mastercomment3/>
						<mastercomment4/>
					</comments>
					<file id="13 Residential, Day - Traffic In F/G And B/G Ambience">
						<name>13 Residential, Day - Traffic In F/G And B/G Ambience.aiff</name>
						<pathurl>file://localhost/Volumes/SuperSAN1/Prosjekter/MSUB20000012%20FIN%20FREDAG/SFX/13%20Residential,%20Day%20-%20Traffic%20In%20F:G%20And%20B:G%20Ambience.aiff</pathurl>
						<rate>
							<timebase>25</timebase>
						</rate>
						<duration>6117</duration>
						<media>
							<audio>
								<rate>
									<timebase>44100</timebase>
								</rate>
								<trackcount>2</trackcount>
								<samplecharacteristics>
									<depth>16</depth>
								</samplecharacteristics>
							</audio>
						</media>
					</file>
					<filter>
						<effect>
							<name>Audio Levels</name>
							<effectid>audiolevels</effectid>
							<effectcategory>audiolevels</effectcategory>
							<effecttype>audiolevels</effecttype>
							<mediatype>audio</mediatype>
							<parameter>
								<name>Level</name>
								<parameterid>level</parameterid>
								<valuemin>0</valuemin>
								<valuemax>3.98109</valuemax>
								<keyframe>
									<when>1432.14</when>
									<value>5.01187e-05</value>
								</keyframe>
								<keyframe>
									<when>1454.64</when>
									<value>0.112202</value>
								</keyframe>
								<keyframe>
									<when>1561.57</when>
									<value>0.112202</value>
								</keyframe>
								<keyframe>
									<when>1794.29</when>
									<value>0.141254</value>
								</keyframe>
								<interpolation>
									<name>FCPCurve</name>
								</interpolation>
								<value>0.199526</value>
							</parameter>
						</effect>
					</filter>
					<filter>
						<effect>
							<name>Audio Pan</name>
							<effectid>audiopan</effectid>
							<effectcategory>audiopan</effectcategory>
							<effecttype>audiopan</effecttype>
							<mediatype>audio</mediatype>
							<parameter>
								<name>Pan</name>
								<parameterid>pan</parameterid>
								<valuemin>-1</valuemin>
								<valuemax>1</valuemax>
								<value>-1</value>
							</parameter>
						</effect>
					</filter>
					<sourcetrack>
						<mediatype>audio</mediatype>
						<trackindex>1</trackindex>
					</sourcetrack>
					<link>
						<linkclipref>13 Residential, Day - Traffic In F/G And B/G Ambience.aiff</linkclipref>
						<mediatype>audio</mediatype>
						<trackindex>5</trackindex>
						<clipindex>39</clipindex>
						<groupindex>1</groupindex>
					</link>
					<link>
						<linkclipref>13 Residential, Day - Traffic In F/G And B/G Ambience.aiff2</linkclipref>
						<mediatype>audio</mediatype>
						<trackindex>6</trackindex>
						<clipindex>35</clipindex>
						<groupindex>1</groupindex>
					</link>
				</clipitem>
				<transitionitem id="627026764 ">
					<rate>
						<ntsc>FALSE</ntsc>
						<timebase>25</timebase>
					</rate>
					<start>41448</start>
					<end>41473</end>
					<alignment>end-black</alignment>
					<effect>
						<name>Cross Fade ( 0dB)</name>
						<effecttype>transition</effecttype>
						<mediatype>audio</mediatype>
					</effect>
				</transitionitem>
				<transitionitem id="627024180 ">
					<rate>
						<ntsc>FALSE</ntsc>
						<timebase>25</timebase>
					</rate>
					<start>42558</start>
					<end>42570</end>
					<alignment>start-black</alignment>
					<effect>
						<name>Cross Fade (+3dB) Copy</name>
						<effecttype>transition</effecttype>
						<mediatype>audio</mediatype>
					</effect>
				</transitionitem>
				<clipitem id="AUXMP_ISCD020302.mp3 3">
					<name>AUXMP_ISCD020302.mp3</name>
					<duration>3908</duration>
					<rate>
						<ntsc>FALSE</ntsc>
						<timebase>25</timebase>
					</rate>
					<in>1995</in>
					<out>2937</out>
					<start>-1</start>
					<end>-1</end>
					<subframeoffset>0</subframeoffset>
					<masterclipid>AUXMP_ISCD020302.mp3 1</masterclipid>
					<logginginfo>
						<scene/>
						<shottake/>
						<lognote/>
						<good>FALSE</good>
					</logginginfo>
					<labels>
						<label2/>
					</labels>
					<comments>
						<mastercomment1/>
						<mastercomment2/>
						<mastercomment3/>
						<mastercomment4/>
					</comments>
					<file id="AUXMP_ISCD020302 "/>
					<filter>
						<effect>
							<name>Audio Levels</name>
							<effectid>audiolevels</effectid>
							<effectcategory>audiolevels</effectcategory>
							<effecttype>audiolevels</effecttype>
							<mediatype>audio</mediatype>
							<parameter>
								<name>Level</name>
								<parameterid>level</parameterid>
								<valuemin>0</valuemin>
								<valuemax>3.98109</valuemax>
								<keyframe>
									<when>2022.64</when>
									<value>0.0501187</value>
								</keyframe>
								<keyframe>
									<when>2055</when>
									<value>0.158489</value>
								</keyframe>
								<keyframe>
									<when>2082.86</when>
									<value>0.158489</value>
								</keyframe>
								<keyframe>
									<when>2112.27</when>
									<value>0.0501187</value>
								</keyframe>
								<keyframe>
									<when>2494.14</when>
									<value>0.0501187</value>
								</keyframe>
								<keyframe>
									<when>2541</when>
									<value>0.199526</value>
								</keyframe>
								<interpolation>
									<name>FCPCurve</name>
								</interpolation>
								<value>0.158489</value>
							</parameter>
						</effect>
					</filter>
					<filter>
						<effect>
							<name>Audio Pan</name>
							<effectid>audiopan</effectid>
							<effectcategory>audiopan</effectcategory>
							<effecttype>audiopan</effecttype>
							<mediatype>audio</mediatype>
							<parameter>
								<name>Pan</name>
								<parameterid>pan</parameterid>
								<valuemin>-1</valuemin>
								<valuemax>1</valuemax>
								<value>-1</value>
							</parameter>
						</effect>
					</filter>
					<sourcetrack>
						<mediatype>audio</mediatype>
						<trackindex>1</trackindex>
					</sourcetrack>
					<link>
						<linkclipref>AUXMP_ISCD020302.mp3 3</linkclipref>
						<mediatype>audio</mediatype>
						<trackindex>5</trackindex>
						<clipindex>42</clipindex>
						<groupindex>1</groupindex>
					</link>
					<link>
						<linkclipref>AUXMP_ISCD020302.mp3 4</linkclipref>
						<mediatype>audio</mediatype>
						<trackindex>6</trackindex>
						<clipindex>38</clipindex>
						<groupindex>1</groupindex>
					</link>
				</clipitem>
				<transitionitem id="627027308 ">
					<rate>
						<ntsc>FALSE</ntsc>
						<timebase>25</timebase>
					</rate>
					<start>43375</start>
					<end>43500</end>
					<alignment>end-black</alignment>
					<effect>
						<name>Cross Fade (+3dB) Copy</name>
						<effecttype>transition</effecttype>
						<mediatype>audio</mediatype>
					</effect>
				</transitionitem>
				<enabled>TRUE</enabled>
				<locked>FALSE</locked>
				<outputchannelindex>1</outputchannelindex>
			</track>
			<track>
				<clipitem id="Fin Fredag Vignett - NY.wav4">
					<name>Fin Fredag Vignett - NY.wav</name>
					<duration>1590</duration>
					<rate>
						<ntsc>FALSE</ntsc>
						<timebase>25</timebase>
					</rate>
					<in>622</in>
					<out>734</out>
					<start>857</start>
					<end>969</end>
					<enabled>TRUE</enabled>
					<masterclipid>Fin Fredag Vignett - NY.wav1</masterclipid>
					<logginginfo>
						<scene/>
						<shottake/>
						<lognote/>
						<good>FALSE</good>
					</logginginfo>
					<labels>
						<label2/>
					</labels>
					<comments>
						<mastercomment1/>
						<mastercomment2/>
						<mastercomment3/>
						<mastercomment4/>
					</comments>
					<file id="Fin Fredag Vignett - NY"/>
					<filter>
						<effect>
							<name>Audio Levels</name>
							<effectid>audiolevels</effectid>
							<effectcategory>audiolevels</effectcategory>
							<effecttype>audiolevels</effecttype>
							<mediatype>audio</mediatype>
							<parameter>
								<name>Level</name>
								<parameterid>level</parameterid>
								<valuemin>0</valuemin>
								<valuemax>3.98109</valuemax>
								<keyframe>
									<when>533.018</when>
									<value>0.281838</value>
								</keyframe>
								<keyframe>
									<when>569</when>
									<value>0.1656</value>
								</keyframe>
								<interpolation>
									<name>FCPCurve</name>
								</interpolation>
								<value>0.185233</value>
							</parameter>
						</effect>
					</filter>
					<filter>
						<effect>
							<name>Audio Pan</name>
							<effectid>audiopan</effectid>
							<effectcategory>audiopan</effectcategory>
							<effecttype>audiopan</effecttype>
							<mediatype>audio</mediatype>
							<parameter>
								<name>Pan</name>
								<parameterid>pan</parameterid>
								<valuemin>-1</valuemin>
								<valuemax>1</valuemax>
								<value>1</value>
							</parameter>
						</effect>
					</filter>
					<sourcetrack>
						<mediatype>audio</mediatype>
						<trackindex>2</trackindex>
					</sourcetrack>
					<link>
						<linkclipref>Fin Fredag Vignett - NY.wav3</linkclipref>
						<mediatype>audio</mediatype>
						<trackindex>5</trackindex>
						<clipindex>1</clipindex>
						<groupindex>1</groupindex>
					</link>
					<link>
						<linkclipref>Fin Fredag Vignett - NY.wav4</linkclipref>
						<mediatype>audio</mediatype>
						<trackindex>6</trackindex>
						<clipindex>1</clipindex>
						<groupindex>1</groupindex>
					</link>
				</clipitem>
				<transitionitem id="627022752 ">
					<rate>
						<ntsc>FALSE</ntsc>
						<timebase>25</timebase>
					</rate>
					<start>4011</start>
					<end>4021</end>
					<alignment>start-black</alignment>
					<effect>
						<name>Cross Fade (+3dB) Copy</name>
						<effecttype>transition</effecttype>
						<mediatype>audio</mediatype>
					</effect>
				</transitionitem>
				<clipitem id="Fin Fredag Vignett - NY.wav6">
					<name>Fin Fredag Vignett - NY.wav</name>
					<duration>1590</duration>
					<rate>
						<ntsc>FALSE</ntsc>
						<timebase>25</timebase>
					</rate>
					<in>70</in>
					<out>135</out>
					<start>-1</start>
					<end>-1</end>
					<subframeoffset>0</subframeoffset>
					<enabled>TRUE</enabled>
					<masterclipid>Fin Fredag Vignett - NY.wav1</masterclipid>
					<logginginfo>
						<scene/>
						<shottake/>
						<lognote/>
						<good>FALSE</good>
					</logginginfo>
					<labels>
						<label2/>
					</labels>
					<comments>
						<mastercomment1/>
						<mastercomment2/>
						<mastercomment3/>
						<mastercomment4/>
					</comments>
					<file id="Fin Fredag Vignett - NY"/>
					<filter>
						<effect>
							<name>Audio Levels</name>
							<effectid>audiolevels</effectid>
							<effectcategory>audiolevels</effectcategory>
							<effecttype>audiolevels</effecttype>
							<mediatype>audio</mediatype>
							<parameter>
								<name>Level</name>
								<parameterid>level</parameterid>
								<valuemin>0</valuemin>
								<valuemax>3.98109</valuemax>
								<value>0.354813</value>
							</parameter>
						</effect>
					</filter>
					<filter>
						<effect>
							<name>Audio Pan</name>
							<effectid>audiopan</effectid>
							<effectcategory>audiopan</effectcategory>
							<effecttype>audiopan</effecttype>
							<mediatype>audio</mediatype>
							<parameter>
								<name>Pan</name>
								<parameterid>pan</parameterid>
								<valuemin>-1</valuemin>
								<valuemax>1</valuemax>
								<value>1</value>
							</parameter>
						</effect>
					</filter>
					<sourcetrack>
						<mediatype>audio</mediatype>
						<trackindex>2</trackindex>
					</sourcetrack>
					<link>
						<linkclipref>Fin Fredag Vignett - NY.wav5</linkclipref>
						<mediatype>audio</mediatype>
						<trackindex>5</trackindex>
						<clipindex>6</clipindex>
						<groupindex>1</groupindex>
					</link>
					<link>
						<linkclipref>Fin Fredag Vignett - NY.wav6</linkclipref>
						<mediatype>audio</mediatype>
						<trackindex>6</trackindex>
						<clipindex>3</clipindex>
						<groupindex>1</groupindex>
					</link>
				</clipitem>
				<transitionitem id="627021256 ">
					<rate>
						<ntsc>FALSE</ntsc>
						<timebase>25</timebase>
					</rate>
					<start>4051</start>
					<end>4076</end>
					<alignment>end-black</alignment>
					<effect>
						<name>Cross Fade (+3dB) Copy</name>
						<effecttype>transition</effecttype>
						<mediatype>audio</mediatype>
					</effect>
				</transitionitem>
				<transitionitem id="627021936 ">
					<rate>
						<ntsc>FALSE</ntsc>
						<timebase>25</timebase>
					</rate>
					<start>4667</start>
					<end>4671</end>
					<alignment>start-black</alignment>
					<effect>
						<name>Cross Fade (+3dB) Copy</name>
						<effecttype>transition</effecttype>
						<mediatype>audio</mediatype>
					</effect>
				</transitionitem>
				<clipitem id="01 ROCKING BIRD A --- Midtempo retro rock with rockin' blues harmonica. 140 bpm (C)3">
					<name>01 ROCKING BIRD A --- Midtempo retro rock with rockin' blues harmonica. 140 bpm (C)</name>
					<duration>2689</duration>
					<rate>
						<ntsc>FALSE</ntsc>
						<timebase>25</timebase>
					</rate>
					<in>0</in>
					<out>2689</out>
					<start>-1</start>
					<end>7356</end>
					<masterclipid>01 ROCKING BIRD A --- Midtempo retro rock with rockin' blues harmonica. 140 bpm (C)1</masterclipid>
					<logginginfo>
						<scene/>
						<shottake/>
						<lognote/>
						<good>FALSE</good>
					</logginginfo>
					<labels>
						<label2/>
					</labels>
					<comments>
						<mastercomment1/>
						<mastercomment2/>
						<mastercomment3/>
						<mastercomment4/>
					</comments>
					<file id="01 ROCKING BIRD A --- Midtempo retro rock with rockin' blues harmonica. 140 bpm (C)2"/>
					<filter>
						<effect>
							<name>Audio Levels</name>
							<effectid>audiolevels</effectid>
							<effectcategory>audiolevels</effectcategory>
							<effecttype>audiolevels</effecttype>
							<mediatype>audio</mediatype>
							<parameter>
								<name>Level</name>
								<parameterid>level</parameterid>
								<valuemin>0</valuemin>
								<valuemax>3.98109</valuemax>
								<keyframe>
									<when>14.375</when>
									<value>0.158489</value>
								</keyframe>
								<keyframe>
									<when>64.2857</when>
									<value>0.158489</value>
								</keyframe>
								<keyframe>
									<when>130</when>
									<value>0.0354813</value>
								</keyframe>
								<keyframe>
									<when>208.286</when>
									<value>0.0354813</value>
								</keyframe>
								<keyframe>
									<when>244</when>
									<value>0.141254</value>
								</keyframe>
								<keyframe>
									<when>315.571</when>
									<value>0.141254</value>
								</keyframe>
								<keyframe>
									<when>359.402</when>
									<value>0.0177828</value>
								</keyframe>
								<keyframe>
									<when>519.429</when>
									<value>0.0177828</value>
								</keyframe>
								<keyframe>
									<when>537.429</when>
									<value>0.0501187</value>
								</keyframe>
								<keyframe>
									<when>568.571</when>
									<value>0.0501187</value>
								</keyframe>
								<keyframe>
									<when>588.857</when>
									<value>0.0177828</value>
								</keyframe>
								<keyframe>
									<when>1404.04</when>
									<value>0.0177828</value>
								</keyframe>
								<keyframe>
									<when>1693.32</when>
									<value>0.0251189</value>
								</keyframe>
								<keyframe>
									<when>1792.29</when>
									<value>0.141254</value>
								</keyframe>
								<keyframe>
									<when>2132.07</when>
									<value>0.141254</value>
								</keyframe>
								<keyframe>
									<when>2171.71</when>
									<value>0.0177828</value>
								</keyframe>
								<interpolation>
									<name>FCPCurve</name>
								</interpolation>
								<value>1</value>
							</parameter>
						</effect>
					</filter>
					<filter>
						<effect>
							<name>Audio Pan</name>
							<effectid>audiopan</effectid>
							<effectcategory>audiopan</effectcategory>
							<effecttype>audiopan</effecttype>
							<mediatype>audio</mediatype>
							<parameter>
								<name>Pan</name>
								<parameterid>pan</parameterid>
								<valuemin>-1</valuemin>
								<valuemax>1</valuemax>
								<value>1</value>
							</parameter>
						</effect>
					</filter>
					<sourcetrack>
						<mediatype>audio</mediatype>
						<trackindex>2</trackindex>
					</sourcetrack>
					<link>
						<linkclipref>01 ROCKING BIRD A --- Midtempo retro rock with rockin' blues harmonica. 140 bpm (C)</linkclipref>
						<mediatype>audio</mediatype>
						<trackindex>5</trackindex>
						<clipindex>9</clipindex>
						<groupindex>1</groupindex>
					</link>
					<link>
						<linkclipref>01 ROCKING BIRD A --- Midtempo retro rock with rockin' blues harmonica. 140 bpm (C)3</linkclipref>
						<mediatype>audio</mediatype>
						<trackindex>6</trackindex>
						<clipindex>6</clipindex>
						<groupindex>1</groupindex>
					</link>
				</clipitem>
				<transitionitem id="627020780 ">
					<rate>
						<ntsc>FALSE</ntsc>
						<timebase>25</timebase>
					</rate>
					<start>7618</start>
					<end>7643</end>
					<alignment>start-black</alignment>
					<effect>
						<name>Cross Fade ( 0dB)</name>
						<effecttype>transition</effecttype>
						<mediatype>audio</mediatype>
					</effect>
				</transitionitem>
				<clipitem id="KMTE60004512AA7">
					<name>KMTE60004512AA</name>
					<duration>88320</duration>
					<rate>
						<ntsc>FALSE</ntsc>
						<timebase>25</timebase>
					</rate>
					<in>42801</in>
					<out>42924</out>
					<start>-1</start>
					<end>-1</end>
					<subframeoffset>0</subframeoffset>
					<masterclipid>KMTE60004512AA1</masterclipid>
					<logginginfo>
						<description>Justin Bieber live i Oslo</description>
						<scene/>
						<shottake/>
						<lognote/>
						<good>FALSE</good>
					</logginginfo>
					<labels>
						<label2/>
					</labels>
					<comments>
						<mastercomment1>PROGRAM. BR_MEGAFON_MSUA_OPRO. BR_FINFREDAG_MSUA_OPRO</mastercomment1>
						<mastercomment2>. </mastercomment2>
						<mastercomment3>Sendt: 2012-06-20. Universal Music, Norway; Norge.</mastercomment3>
						<mastercomment4/>
						<clipcommentb>1:F-mix venstre 2:F-mix høyre 3:I-lyd venstre 4:I-lyd høyre</clipcommentb>
					</comments>
					<file id="KMTE60004512AA2"/>
					<marker>
						<name>Justin Bieber møter fans</name>
						<comment/>
						<in>1275</in>
						<out>2025</out>
					</marker>
					<marker>
						<name>Arrangørene er bekymret for sikkerheten</name>
						<comment/>
						<in>7566</in>
						<out>8316</out>
					</marker>
					<marker>
						<name>Folk trenger seg inn på operataket</name>
						<comment/>
						<in>9128</in>
						<out>9878</out>
					</marker>
					<marker>
						<name>Politiet vurderer å avlyse konserten</name>
						<comment/>
						<in>10891</in>
						<out>11641</out>
					</marker>
					<marker>
						<name>Justin Bieber ankommer scenen</name>
						<comment/>
						<in>13795</in>
						<out>14545</out>
					</marker>
					<marker>
						<name>Justin Bieber møter Fredrik Skavlan på Nationalteatret</name>
						<comment/>
						<in>27699</in>
						<out>28449</out>
					</marker>
					<marker>
						<name>Justin snakker om kjæresten og om å være i et forhold</name>
						<comment/>
						<in>29221</in>
						<out>29971</out>
					</marker>
					<marker>
						<name>Justin skakker om at han ikke er en barnestjerne lenger</name>
						<comment/>
						<in>30447</in>
						<out>31197</out>
					</marker>
					<marker>
						<name>Justin om å vokse opp i rampelyset</name>
						<comment/>
						<in>32492</in>
						<out>33242</out>
					</marker>
					<marker>
						<name>Justin om barndommen</name>
						<comment/>
						<in>35024</in>
						<out>35774</out>
					</marker>
					<filter>
						<effect>
							<name>Audio Levels</name>
							<effectid>audiolevels</effectid>
							<effectcategory>audiolevels</effectcategory>
							<effecttype>audiolevels</effecttype>
							<mediatype>audio</mediatype>
							<parameter>
								<name>Level</name>
								<parameterid>level</parameterid>
								<valuemin>0</valuemin>
								<valuemax>3.98109</valuemax>
								<value>0.794328</value>
							</parameter>
						</effect>
					</filter>
					<filter>
						<effect>
							<name>Audio Pan</name>
							<effectid>audiopan</effectid>
							<effectcategory>audiopan</effectcategory>
							<effecttype>audiopan</effecttype>
							<mediatype>audio</mediatype>
							<parameter>
								<name>Pan</name>
								<parameterid>pan</parameterid>
								<valuemin>-1</valuemin>
								<valuemax>1</valuemax>
								<value>0</value>
							</parameter>
						</effect>
					</filter>
					<sourcetrack>
						<mediatype>audio</mediatype>
						<trackindex>2</trackindex>
					</sourcetrack>
					<link>
						<linkclipref>KMTE60004512AA6</linkclipref>
						<mediatype>audio</mediatype>
						<trackindex>5</trackindex>
						<clipindex>11</clipindex>
					</link>
					<link>
						<linkclipref>KMTE60004512AA7</linkclipref>
						<mediatype>audio</mediatype>
						<trackindex>6</trackindex>
						<clipindex>8</clipindex>
					</link>
				</clipitem>
				<transitionitem id="627023160 ">
					<rate>
						<ntsc>FALSE</ntsc>
						<timebase>25</timebase>
					</rate>
					<start>7691</start>
					<end>7741</end>
					<alignment>end-black</alignment>
					<effect>
						<name>Cross Fade ( 0dB)</name>
						<effecttype>transition</effecttype>
						<mediatype>audio</mediatype>
					</effect>
				</transitionitem>
				<clipitem id="NONRO185488CD0010 Loco3">
					<name>NONRO185488CD0010 Loco</name>
					<duration>4813</duration>
					<rate>
						<ntsc>FALSE</ntsc>
						<timebase>25</timebase>
					</rate>
					<in>4</in>
					<out>1072</out>
					<start>9111</start>
					<end>-1</end>
					<enabled>TRUE</enabled>
					<masterclipid>NONRO185488CD0010 Loco1</masterclipid>
					<logginginfo>
						<scene/>
						<shottake/>
						<lognote/>
						<good>FALSE</good>
					</logginginfo>
					<labels>
						<label2/>
					</labels>
					<comments>
						<mastercomment1/>
						<mastercomment2/>
						<mastercomment3/>
						<mastercomment4/>
					</comments>
					<file id="NONRO185488CD0010 Loco2"/>
					<filter>
						<effect>
							<name>Audio Levels</name>
							<effectid>audiolevels</effectid>
							<effectcategory>audiolevels</effectcategory>
							<effecttype>audiolevels</effecttype>
							<mediatype>audio</mediatype>
							<parameter>
								<name>Level</name>
								<parameterid>level</parameterid>
								<valuemin>0</valuemin>
								<valuemax>3.98109</valuemax>
								<keyframe>
									<when>87.5</when>
									<value>0.141254</value>
								</keyframe>
								<keyframe>
									<when>122.5</when>
									<value>0.0630957</value>
								</keyframe>
								<keyframe>
									<when>190</when>
									<value>0.0251189</value>
								</keyframe>
								<keyframe>
									<when>315</when>
									<value>0.0251189</value>
								</keyframe>
								<keyframe>
									<when>366.25</when>
									<value>0.158489</value>
								</keyframe>
								<keyframe>
									<when>602</when>
									<value>0.158489</value>
								</keyframe>
								<keyframe>
									<when>712.286</when>
									<value>0.0586135</value>
								</keyframe>
								<keyframe>
									<when>1010</when>
									<value>0.0180766</value>
								</keyframe>
								<interpolation>
									<name>FCPCurve</name>
								</interpolation>
								<value>0.0180766</value>
							</parameter>
						</effect>
					</filter>
					<filter>
						<effect>
							<name>Audio Pan</name>
							<effectid>audiopan</effectid>
							<effectcategory>audiopan</effectcategory>
							<effecttype>audiopan</effecttype>
							<mediatype>audio</mediatype>
							<parameter>
								<name>Pan</name>
								<parameterid>pan</parameterid>
								<valuemin>-1</valuemin>
								<valuemax>1</valuemax>
								<value>1</value>
							</parameter>
						</effect>
					</filter>
					<sourcetrack>
						<mediatype>audio</mediatype>
						<trackindex>2</trackindex>
					</sourcetrack>
					<link>
						<linkclipref>NONRO185488CD0010 Loco</linkclipref>
						<mediatype>audio</mediatype>
						<trackindex>5</trackindex>
						<clipindex>13</clipindex>
						<groupindex>1</groupindex>
					</link>
					<link>
						<linkclipref>NONRO185488CD0010 Loco3</linkclipref>
						<mediatype>audio</mediatype>
						<trackindex>6</trackindex>
						<clipindex>10</clipindex>
						<groupindex>1</groupindex>
					</link>
				</clipitem>
				<transitionitem id="627023432 ">
					<rate>
						<ntsc>FALSE</ntsc>
						<timebase>25</timebase>
					</rate>
					<start>10079</start>
					<end>10179</end>
					<alignment>end-black</alignment>
					<effect>
						<name>Cross Fade (+3dB) Copy</name>
						<effecttype>transition</effecttype>
						<mediatype>audio</mediatype>
					</effect>
				</transitionitem>
				<transitionitem id="627044104 ">
					<rate>
						<ntsc>FALSE</ntsc>
						<timebase>25</timebase>
					</rate>
					<start>13252</start>
					<end>13264</end>
					<alignment>start-black</alignment>
					<effect>
						<name>Cross Fade (+3dB) Copy</name>
						<effecttype>transition</effecttype>
						<mediatype>audio</mediatype>
					</effect>
				</transitionitem>
				<clipitem id="Spilledåse - wiegenlied - vuggesang (brahms)3">
					<name>Spilledåse - wiegenlied - vuggesang (brahms)</name>
					<duration>2348</duration>
					<rate>
						<ntsc>FALSE</ntsc>
						<timebase>25</timebase>
					</rate>
					<in>0</in>
					<out>221</out>
					<start>-1</start>
					<end>-1</end>
					<masterclipid>Spilledåse - wiegenlied - vuggesang (brahms)1</masterclipid>
					<logginginfo>
						<scene/>
						<shottake/>
						<lognote/>
						<good>FALSE</good>
					</logginginfo>
					<labels>
						<label2/>
					</labels>
					<comments>
						<mastercomment1/>
						<mastercomment2/>
						<mastercomment3/>
						<mastercomment4/>
					</comments>
					<file id="Spilledåse - wiegenlied - vuggesang (brahms)2"/>
					<filter>
						<effect>
							<name>Audio Levels</name>
							<effectid>audiolevels</effectid>
							<effectcategory>audiolevels</effectcategory>
							<effecttype>audiolevels</effecttype>
							<mediatype>audio</mediatype>
							<parameter>
								<name>Level</name>
								<parameterid>level</parameterid>
								<valuemin>0</valuemin>
								<valuemax>3.98109</valuemax>
								<value>0.630957</value>
							</parameter>
						</effect>
					</filter>
					<filter>
						<effect>
							<name>Audio Pan</name>
							<effectid>audiopan</effectid>
							<effectcategory>audiopan</effectcategory>
							<effecttype>audiopan</effecttype>
							<mediatype>audio</mediatype>
							<parameter>
								<name>Pan</name>
								<parameterid>pan</parameterid>
								<valuemin>-1</valuemin>
								<valuemax>1</valuemax>
								<value>1</value>
							</parameter>
						</effect>
					</filter>
					<sourcetrack>
						<mediatype>audio</mediatype>
						<trackindex>2</trackindex>
					</sourcetrack>
					<link>
						<linkclipref>Spilledåse - wiegenlied - vuggesang (brahms)</linkclipref>
						<mediatype>audio</mediatype>
						<trackindex>5</trackindex>
						<clipindex>16</clipindex>
						<groupindex>1</groupindex>
					</link>
					<link>
						<linkclipref>Spilledåse - wiegenlied - vuggesang (brahms)3</linkclipref>
						<mediatype>audio</mediatype>
						<trackindex>6</trackindex>
						<clipindex>13</clipindex>
						<groupindex>1</groupindex>
					</link>
				</clipitem>
				<transitionitem id="628341792 ">
					<rate>
						<ntsc>FALSE</ntsc>
						<timebase>25</timebase>
					</rate>
					<start>13469</start>
					<end>13473</end>
					<alignment>end-black</alignment>
					<effect>
						<name>Cross Fade (+3dB) Copy</name>
						<effecttype>transition</effecttype>
						<mediatype>audio</mediatype>
					</effect>
				</transitionitem>
				<transitionitem id="628341520 ">
					<rate>
						<ntsc>FALSE</ntsc>
						<timebase>25</timebase>
					</rate>
					<start>25253</start>
					<end>25265</end>
					<alignment>start-black</alignment>
					<effect>
						<name>Cross Fade (+3dB) Copy</name>
						<effecttype>transition</effecttype>
						<mediatype>audio</mediatype>
					</effect>
				</transitionitem>
				<clipitem id="SONI045308.wav2">
					<name>SONI045308.wav</name>
					<duration>10789</duration>
					<rate>
						<ntsc>FALSE</ntsc>
						<timebase>25</timebase>
					</rate>
					<in>2854</in>
					<out>3380</out>
					<start>-1</start>
					<end>-1</end>
					<subframeoffset>0</subframeoffset>
					<masterclipid>SONI045308.wav1</masterclipid>
					<logginginfo>
						<scene/>
						<shottake/>
						<lognote/>
						<good>FALSE</good>
					</logginginfo>
					<labels>
						<label2/>
					</labels>
					<comments>
						<mastercomment1/>
						<mastercomment2/>
						<mastercomment3/>
						<mastercomment4/>
					</comments>
					<file id="SONI045308 "/>
					<filter>
						<effect>
							<name>Audio Levels</name>
							<effectid>audiolevels</effectid>
							<effectcategory>audiolevels</effectcategory>
							<effecttype>audiolevels</effecttype>
							<mediatype>audio</mediatype>
							<parameter>
								<name>Level</name>
								<parameterid>level</parameterid>
								<valuemin>0</valuemin>
								<valuemax>3.98109</valuemax>
								<keyframe>
									<when>3167.71</when>
									<value>0.281838</value>
								</keyframe>
								<keyframe>
									<when>3185.14</when>
									<value>0.158489</value>
								</keyframe>
								<interpolation>
									<name>FCPCurve</name>
								</interpolation>
								<value>0.281838</value>
							</parameter>
						</effect>
					</filter>
					<filter>
						<effect>
							<name>Audio Pan</name>
							<effectid>audiopan</effectid>
							<effectcategory>audiopan</effectcategory>
							<effecttype>audiopan</effecttype>
							<mediatype>audio</mediatype>
							<parameter>
								<name>Pan</name>
								<parameterid>pan</parameterid>
								<valuemin>-1</valuemin>
								<valuemax>1</valuemax>
								<value>1</value>
							</parameter>
						</effect>
					</filter>
					<sourcetrack>
						<mediatype>audio</mediatype>
						<trackindex>2</trackindex>
					</sourcetrack>
					<link>
						<linkclipref>SONI045308.wav</linkclipref>
						<mediatype>audio</mediatype>
						<trackindex>5</trackindex>
						<clipindex>20</clipindex>
						<groupindex>1</groupindex>
					</link>
					<link>
						<linkclipref>SONI045308.wav2</linkclipref>
						<mediatype>audio</mediatype>
						<trackindex>6</trackindex>
						<clipindex>16</clipindex>
						<groupindex>1</groupindex>
					</link>
				</clipitem>
				<transitionitem id="628340568 ">
					<rate>
						<ntsc>FALSE</ntsc>
						<timebase>25</timebase>
					</rate>
					<start>25754</start>
					<end>25779</end>
					<alignment>end-black</alignment>
					<effect>
						<name>Cross Fade (+3dB) Copy</name>
						<effecttype>transition</effecttype>
						<mediatype>audio</mediatype>
					</effect>
				</transitionitem>
				<clipitem id="Boing - hoink - plystring.aif24">
					<name>Boing - hoink - plystring.aif</name>
					<duration>256</duration>
					<rate>
						<ntsc>FALSE</ntsc>
						<timebase>25</timebase>
					</rate>
					<in>41</in>
					<out>46</out>
					<start>25849</start>
					<end>25854</end>
					<subframeoffset>0</subframeoffset>
					<masterclipid>Boing - hoink - plystring.aif1</masterclipid>
					<logginginfo>
						<scene/>
						<shottake/>
						<lognote/>
						<good>FALSE</good>
					</logginginfo>
					<labels>
						<label2/>
					</labels>
					<comments>
						<mastercomment1/>
						<mastercomment2/>
						<mastercomment3/>
						<mastercomment4/>
					</comments>
					<file id="Boing - hoink - plystring"/>
					<filter>
						<effect>
							<name>Audio Levels</name>
							<effectid>audiolevels</effectid>
							<effectcategory>audiolevels</effectcategory>
							<effecttype>audiolevels</effecttype>
							<mediatype>audio</mediatype>
							<parameter>
								<name>Level</name>
								<parameterid>level</parameterid>
								<valuemin>0</valuemin>
								<valuemax>3.98109</valuemax>
								<value>0.630957</value>
							</parameter>
						</effect>
					</filter>
					<filter>
						<effect>
							<name>Audio Pan</name>
							<effectid>audiopan</effectid>
							<effectcategory>audiopan</effectcategory>
							<effecttype>audiopan</effecttype>
							<mediatype>audio</mediatype>
							<parameter>
								<name>Pan</name>
								<parameterid>pan</parameterid>
								<valuemin>-1</valuemin>
								<valuemax>1</valuemax>
								<value>1</value>
							</parameter>
						</effect>
					</filter>
					<sourcetrack>
						<mediatype>audio</mediatype>
						<trackindex>2</trackindex>
					</sourcetrack>
					<link>
						<linkclipref>Boing - hoink - plystring.aif23</linkclipref>
						<mediatype>audio</mediatype>
						<trackindex>5</trackindex>
						<clipindex>22</clipindex>
						<groupindex>1</groupindex>
					</link>
					<link>
						<linkclipref>Boing - hoink - plystring.aif24</linkclipref>
						<mediatype>audio</mediatype>
						<trackindex>6</trackindex>
						<clipindex>18</clipindex>
						<groupindex>1</groupindex>
					</link>
				</clipitem>
				<transitionitem id="628339684 ">
					<rate>
						<ntsc>FALSE</ntsc>
						<timebase>25</timebase>
					</rate>
					<start>27303</start>
					<end>27315</end>
					<alignment>center</alignment>
					<effect>
						<name>Cross Fade (+3dB) Copy</name>
						<effecttype>transition</effecttype>
						<mediatype>audio</mediatype>
					</effect>
				</transitionitem>
				<clipitem id="SCD074915.wav2">
					<name>SCD074915.wav</name>
					<duration>215</duration>
					<rate>
						<ntsc>FALSE</ntsc>
						<timebase>25</timebase>
					</rate>
					<in>0</in>
					<out>189</out>
					<start>-1</start>
					<end>-1</end>
					<enabled>TRUE</enabled>
					<masterclipid>SCD074915.wav1</masterclipid>
					<logginginfo>
						<scene/>
						<shottake/>
						<lognote/>
						<good>FALSE</good>
					</logginginfo>
					<labels>
						<label2/>
					</labels>
					<comments>
						<mastercomment1/>
						<mastercomment2/>
						<mastercomment3/>
						<mastercomment4/>
					</comments>
					<file id="SCD074915 "/>
					<filter>
						<effect>
							<name>Audio Levels</name>
							<effectid>audiolevels</effectid>
							<effectcategory>audiolevels</effectcategory>
							<effecttype>audiolevels</effecttype>
							<mediatype>audio</mediatype>
							<parameter>
								<name>Level</name>
								<parameterid>level</parameterid>
								<valuemin>0</valuemin>
								<valuemax>3.98109</valuemax>
								<keyframe>
									<when>16.8571</when>
									<value>0.0630957</value>
								</keyframe>
								<keyframe>
									<when>63.1429</when>
									<value>0.112202</value>
								</keyframe>
								<keyframe>
									<when>115.679</when>
									<value>0.141254</value>
								</keyframe>
								<keyframe>
									<when>142.571</when>
									<value>0.0630957</value>
								</keyframe>
								<interpolation>
									<name>FCPCurve</name>
								</interpolation>
								<value>0.446684</value>
							</parameter>
						</effect>
					</filter>
					<filter>
						<effect>
							<name>Audio Pan</name>
							<effectid>audiopan</effectid>
							<effectcategory>audiopan</effectcategory>
							<effecttype>audiopan</effecttype>
							<mediatype>audio</mediatype>
							<parameter>
								<name>Pan</name>
								<parameterid>pan</parameterid>
								<valuemin>-1</valuemin>
								<valuemax>1</valuemax>
								<value>1</value>
							</parameter>
						</effect>
					</filter>
					<sourcetrack>
						<mediatype>audio</mediatype>
						<trackindex>2</trackindex>
					</sourcetrack>
					<link>
						<linkclipref>SCD074915.wav</linkclipref>
						<mediatype>audio</mediatype>
						<trackindex>5</trackindex>
						<clipindex>24</clipindex>
						<groupindex>1</groupindex>
					</link>
					<link>
						<linkclipref>SCD074915.wav2</linkclipref>
						<mediatype>audio</mediatype>
						<trackindex>6</trackindex>
						<clipindex>20</clipindex>
						<groupindex>1</groupindex>
					</link>
				</clipitem>
				<transitionitem id="628339548 ">
					<rate>
						<ntsc>FALSE</ntsc>
						<timebase>25</timebase>
					</rate>
					<start>27442</start>
					<end>27492</end>
					<alignment>end-black</alignment>
					<effect>
						<name>Cross Fade (+3dB) Copy</name>
						<effecttype>transition</effecttype>
						<mediatype>audio</mediatype>
					</effect>
				</transitionitem>
				<transitionitem id="628338460 ">
					<rate>
						<ntsc>FALSE</ntsc>
						<timebase>25</timebase>
					</rate>
					<start>34927</start>
					<end>34929</end>
					<alignment>start-black</alignment>
					<effect>
						<name>Cross Fade (+3dB) Copy</name>
						<effecttype>transition</effecttype>
						<mediatype>audio</mediatype>
					</effect>
				</transitionitem>
				<clipitem id="FIN_FREDAP02_1 ">
					<name>FIN_FREDAP02_1</name>
					<duration>9375</duration>
					<rate>
						<ntsc>FALSE</ntsc>
						<timebase>25</timebase>
					</rate>
					<in>6857</in>
					<out>7010</out>
					<start>-1</start>
					<end>-1</end>
					<enabled>TRUE</enabled>
					<masterclipid>FIN_FREDAP02_1 1</masterclipid>
					<logginginfo>
						<scene>FIN_FREDA</scene>
						<shottake>02</shottake>
						<lognote/>
						<good>FALSE</good>
					</logginginfo>
					<labels>
						<label2/>
					</labels>
					<comments>
						<mastercomment1/>
						<mastercomment2/>
						<mastercomment3/>
						<mastercomment4/>
					</comments>
					<file id="FIN_FREDAP02_1 2">
						<name>FIN_FREDAP02_1.WAV</name>
						<pathurl>file://localhost/Volumes/SuperSAN1/Prosjekter/MSUB20000012%20FIN%20FREDAG/FCP-prosjekter/program%201/Konsertlyd/FIN_FREDAP02_1.WAV</pathurl>
						<rate>
							<timebase>25</timebase>
						</rate>
						<duration>9375</duration>
						<timecode>
							<rate>
								<timebase>25</timebase>
							</rate>
							<string>01:13:49:00</string>
							<frame>110725</frame>
							<displayformat>NDF</displayformat>
							<source>source</source>
							<reel>
								<name>120904</name>
							</reel>
						</timecode>
						<media>
							<audio>
								<rate>
									<timebase>48000</timebase>
								</rate>
								<trackcount>1</trackcount>
								<samplecharacteristics>
									<depth>24</depth>
								</samplecharacteristics>
							</audio>
						</media>
					</file>
					<filter>
						<effect>
							<name>Audio Levels</name>
							<effectid>audiolevels</effectid>
							<effectcategory>audiolevels</effectcategory>
							<effecttype>audiolevels</effecttype>
							<mediatype>audio</mediatype>
							<parameter>
								<name>Level</name>
								<parameterid>level</parameterid>
								<valuemin>0</valuemin>
								<valuemax>3.98109</valuemax>
								<value>1.41254</value>
							</parameter>
						</effect>
					</filter>
					<filter>
						<effect>
							<name>Audio Pan</name>
							<effectid>audiopan</effectid>
							<effectcategory>audiopan</effectcategory>
							<effecttype>audiopan</effecttype>
							<mediatype>audio</mediatype>
							<parameter>
								<name>Pan</name>
								<parameterid>pan</parameterid>
								<valuemin>-1</valuemin>
								<valuemax>1</valuemax>
								<value>0</value>
							</parameter>
						</effect>
					</filter>
					<sourcetrack>
						<mediatype>audio</mediatype>
						<trackindex>1</trackindex>
					</sourcetrack>
				</clipitem>
				<transitionitem id="628337100 ">
					<rate>
						<ntsc>FALSE</ntsc>
						<timebase>25</timebase>
					</rate>
					<start>35005</start>
					<end>35080</end>
					<alignment>end-black</alignment>
					<effect>
						<name>Cross Fade ( 0dB)</name>
						<effecttype>transition</effecttype>
						<mediatype>audio</mediatype>
					</effect>
				</transitionitem>
				<transitionitem id="628336692 ">
					<rate>
						<ntsc>FALSE</ntsc>
						<timebase>25</timebase>
					</rate>
					<start>36354</start>
					<end>36360</end>
					<alignment>start-black</alignment>
					<effect>
						<name>Cross Fade (+3dB) Copy</name>
						<effecttype>transition</effecttype>
						<mediatype>audio</mediatype>
					</effect>
				</transitionitem>
				<clipitem id="Stråling.wav4">
					<name>Stråling.wav</name>
					<duration>618</duration>
					<rate>
						<ntsc>FALSE</ntsc>
						<timebase>25</timebase>
					</rate>
					<in>30</in>
					<out>45</out>
					<start>-1</start>
					<end>-1</end>
					<subframeoffset>0</subframeoffset>
					<enabled>TRUE</enabled>
					<masterclipid>Stråling.wav1</masterclipid>
					<logginginfo>
						<scene/>
						<shottake/>
						<lognote/>
						<good>FALSE</good>
					</logginginfo>
					<labels>
						<label2/>
					</labels>
					<comments>
						<mastercomment1/>
						<mastercomment2/>
						<mastercomment3/>
						<mastercomment4/>
					</comments>
					<file id="Stråling"/>
					<filter>
						<effect>
							<name>Audio Levels</name>
							<effectid>audiolevels</effectid>
							<effectcategory>audiolevels</effectcategory>
							<effecttype>audiolevels</effecttype>
							<mediatype>audio</mediatype>
							<parameter>
								<name>Level</name>
								<parameterid>level</parameterid>
								<valuemin>0</valuemin>
								<valuemax>3.98109</valuemax>
								<value>0.158489</value>
							</parameter>
						</effect>
					</filter>
					<filter>
						<effect>
							<name>Audio Pan</name>
							<effectid>audiopan</effectid>
							<effectcategory>audiopan</effectcategory>
							<effecttype>audiopan</effecttype>
							<mediatype>audio</mediatype>
							<parameter>
								<name>Pan</name>
								<parameterid>pan</parameterid>
								<valuemin>-1</valuemin>
								<valuemax>1</valuemax>
								<value>1</value>
							</parameter>
						</effect>
					</filter>
					<sourcetrack>
						<mediatype>audio</mediatype>
						<trackindex>2</trackindex>
					</sourcetrack>
					<link>
						<linkclipref>Stråling.wav3</linkclipref>
						<mediatype>audio</mediatype>
						<trackindex>5</trackindex>
						<clipindex>30</clipindex>
						<groupindex>1</groupindex>
					</link>
					<link>
						<linkclipref>Stråling.wav4</linkclipref>
						<mediatype>audio</mediatype>
						<trackindex>6</trackindex>
						<clipindex>26</clipindex>
						<groupindex>1</groupindex>
					</link>
				</clipitem>
				<transitionitem id="628335808 ">
					<rate>
						<ntsc>FALSE</ntsc>
						<timebase>25</timebase>
					</rate>
					<start>36367</start>
					<end>36369</end>
					<alignment>end-black</alignment>
					<effect>
						<name>Cross Fade (+3dB) Copy</name>
						<effecttype>transition</effecttype>
						<mediatype>audio</mediatype>
					</effect>
				</transitionitem>
				<clipitem id="ToojiHjelpen-ut4">
					<name>ToojiHjelpen-ut</name>
					<duration>88</duration>
					<rate>
						<ntsc>FALSE</ntsc>
						<timebase>25</timebase>
					</rate>
					<in>0</in>
					<out>88</out>
					<start>39407</start>
					<end>39495</end>
					<subframeoffset>0</subframeoffset>
					<masterclipid>ToojiHjelpen-ut1</masterclipid>
					<logginginfo>
						<scene/>
						<shottake/>
						<lognote/>
						<good>FALSE</good>
					</logginginfo>
					<labels>
						<label2/>
					</labels>
					<comments>
						<mastercomment1/>
						<mastercomment2/>
						<mastercomment3/>
						<mastercomment4/>
					</comments>
					<file id="ToojiHjelpen-ut2"/>
					<filter>
						<effect>
							<name>Audio Levels</name>
							<effectid>audiolevels</effectid>
							<effectcategory>audiolevels</effectcategory>
							<effecttype>audiolevels</effecttype>
							<mediatype>audio</mediatype>
							<parameter>
								<name>Level</name>
								<parameterid>level</parameterid>
								<valuemin>0</valuemin>
								<valuemax>3.98109</valuemax>
								<keyframe>
									<when>59.2857</when>
									<value>1</value>
								</keyframe>
								<keyframe>
									<when>71.8571</when>
									<value>0.707946</value>
								</keyframe>
								<interpolation>
									<name>FCPCurve</name>
								</interpolation>
								<value>1</value>
							</parameter>
						</effect>
					</filter>
					<filter>
						<effect>
							<name>Audio Pan</name>
							<effectid>audiopan</effectid>
							<effectcategory>audiopan</effectcategory>
							<effecttype>audiopan</effecttype>
							<mediatype>audio</mediatype>
							<parameter>
								<name>Pan</name>
								<parameterid>pan</parameterid>
								<valuemin>-1</valuemin>
								<valuemax>1</valuemax>
								<value>1</value>
							</parameter>
						</effect>
					</filter>
					<sourcetrack>
						<mediatype>audio</mediatype>
						<trackindex>2</trackindex>
					</sourcetrack>
					<link>
						<linkclipref>ToojiHjelpen-ut</linkclipref>
						<mediatype>video</mediatype>
						<trackindex>5</trackindex>
						<clipindex>19</clipindex>
					</link>
					<link>
						<linkclipref>ToojiHjelpen-ut3</linkclipref>
						<mediatype>audio</mediatype>
						<trackindex>5</trackindex>
						<clipindex>32</clipindex>
					</link>
					<link>
						<linkclipref>ToojiHjelpen-ut4</linkclipref>
						<mediatype>audio</mediatype>
						<trackindex>6</trackindex>
						<clipindex>28</clipindex>
					</link>
				</clipitem>
				<transitionitem id="628334516 ">
					<rate>
						<ntsc>FALSE</ntsc>
						<timebase>25</timebase>
					</rate>
					<start>40123</start>
					<end>40135</end>
					<alignment>start-black</alignment>
					<effect>
						<name>Cross Fade (+3dB) Copy</name>
						<effecttype>transition</effecttype>
						<mediatype>audio</mediatype>
					</effect>
				</transitionitem>
				<clipitem id="11 Residential, Day - Singing Birds, Traffic Pass And In B/G Ambience.aiff2">
					<name>11 Residential, Day - Singing Birds, Traffic Pass And In B/G Ambience.aiff</name>
					<duration>6098</duration>
					<rate>
						<ntsc>FALSE</ntsc>
						<timebase>25</timebase>
					</rate>
					<in>3169</in>
					<out>3243</out>
					<start>-1</start>
					<end>-1</end>
					<subframeoffset>0</subframeoffset>
					<masterclipid>11 Residential, Day - Singing Birds, Traffic Pass And In B/G Ambience.aiff1</masterclipid>
					<logginginfo>
						<scene/>
						<shottake/>
						<lognote/>
						<good>FALSE</good>
					</logginginfo>
					<labels>
						<label2/>
					</labels>
					<comments>
						<mastercomment1/>
						<mastercomment2/>
						<mastercomment3/>
						<mastercomment4/>
					</comments>
					<file id="11 Residential, Day - Singing Birds, Traffic Pass And In B/G Ambience"/>
					<filter>
						<effect>
							<name>Audio Levels</name>
							<effectid>audiolevels</effectid>
							<effectcategory>audiolevels</effectcategory>
							<effecttype>audiolevels</effecttype>
							<mediatype>audio</mediatype>
							<parameter>
								<name>Level</name>
								<parameterid>level</parameterid>
								<valuemin>0</valuemin>
								<valuemax>3.98109</valuemax>
								<value>0.0891251</value>
							</parameter>
						</effect>
					</filter>
					<filter>
						<effect>
							<name>Audio Pan</name>
							<effectid>audiopan</effectid>
							<effectcategory>audiopan</effectcategory>
							<effecttype>audiopan</effecttype>
							<mediatype>audio</mediatype>
							<parameter>
								<name>Pan</name>
								<parameterid>pan</parameterid>
								<valuemin>-1</valuemin>
								<valuemax>1</valuemax>
								<value>1</value>
							</parameter>
						</effect>
					</filter>
					<sourcetrack>
						<mediatype>audio</mediatype>
						<trackindex>2</trackindex>
					</sourcetrack>
					<link>
						<linkclipref>11 Residential, Day - Singing Birds, Traffic Pass And In B/G Ambience.aiff</linkclipref>
						<mediatype>audio</mediatype>
						<trackindex>5</trackindex>
						<clipindex>34</clipindex>
						<groupindex>1</groupindex>
					</link>
					<link>
						<linkclipref>11 Residential, Day - Singing Birds, Traffic Pass And In B/G Ambience.aiff2</linkclipref>
						<mediatype>audio</mediatype>
						<trackindex>6</trackindex>
						<clipindex>30</clipindex>
						<groupindex>1</groupindex>
					</link>
				</clipitem>
				<transitionitem id="628333700 ">
					<rate>
						<ntsc>FALSE</ntsc>
						<timebase>25</timebase>
					</rate>
					<start>40172</start>
					<end>40197</end>
					<alignment>end-black</alignment>
					<effect>
						<name>Cross Fade (+3dB)</name>
						<effecttype>transition</effecttype>
						<mediatype>audio</mediatype>
					</effect>
				</transitionitem>
				<transitionitem id="628317856 ">
					<rate>
						<ntsc>FALSE</ntsc>
						<timebase>25</timebase>
					</rate>
					<start>40301</start>
					<end>40307</end>
					<alignment>start-black</alignment>
					<effect>
						<name>Cross Fade (+3dB) Copy</name>
						<effecttype>transition</effecttype>
						<mediatype>audio</mediatype>
					</effect>
				</transitionitem>
				<clipitem id="Stråling.wav6">
					<name>Stråling.wav</name>
					<duration>618</duration>
					<rate>
						<ntsc>FALSE</ntsc>
						<timebase>25</timebase>
					</rate>
					<in>30</in>
					<out>45</out>
					<start>-1</start>
					<end>-1</end>
					<subframeoffset>0</subframeoffset>
					<enabled>TRUE</enabled>
					<masterclipid>Stråling.wav1</masterclipid>
					<logginginfo>
						<scene/>
						<shottake/>
						<lognote/>
						<good>FALSE</good>
					</logginginfo>
					<labels>
						<label2/>
					</labels>
					<comments>
						<mastercomment1/>
						<mastercomment2/>
						<mastercomment3/>
						<mastercomment4/>
					</comments>
					<file id="Stråling"/>
					<filter>
						<effect>
							<name>Audio Levels</name>
							<effectid>audiolevels</effectid>
							<effectcategory>audiolevels</effectcategory>
							<effecttype>audiolevels</effecttype>
							<mediatype>audio</mediatype>
							<parameter>
								<name>Level</name>
								<parameterid>level</parameterid>
								<valuemin>0</valuemin>
								<valuemax>3.98109</valuemax>
								<value>0.354813</value>
							</parameter>
						</effect>
					</filter>
					<filter>
						<effect>
							<name>Audio Pan</name>
							<effectid>audiopan</effectid>
							<effectcategory>audiopan</effectcategory>
							<effecttype>audiopan</effecttype>
							<mediatype>audio</mediatype>
							<parameter>
								<name>Pan</name>
								<parameterid>pan</parameterid>
								<valuemin>-1</valuemin>
								<valuemax>1</valuemax>
								<value>1</value>
							</parameter>
						</effect>
					</filter>
					<sourcetrack>
						<mediatype>audio</mediatype>
						<trackindex>2</trackindex>
					</sourcetrack>
					<link>
						<linkclipref>Stråling.wav5</linkclipref>
						<mediatype>audio</mediatype>
						<trackindex>5</trackindex>
						<clipindex>37</clipindex>
						<groupindex>1</groupindex>
					</link>
					<link>
						<linkclipref>Stråling.wav6</linkclipref>
						<mediatype>audio</mediatype>
						<trackindex>6</trackindex>
						<clipindex>33</clipindex>
						<groupindex>1</groupindex>
					</link>
				</clipitem>
				<transitionitem id="628317380 ">
					<rate>
						<ntsc>FALSE</ntsc>
						<timebase>25</timebase>
					</rate>
					<start>40314</start>
					<end>40316</end>
					<alignment>end-black</alignment>
					<effect>
						<name>Cross Fade (+3dB) Copy</name>
						<effecttype>transition</effecttype>
						<mediatype>audio</mediatype>
					</effect>
				</transitionitem>
				<clipitem id="13 Residential, Day - Traffic In F/G And B/G Ambience.aiff2">
					<name>13 Residential, Day - Traffic In F/G And B/G Ambience.aiff</name>
					<duration>6117</duration>
					<rate>
						<ntsc>FALSE</ntsc>
						<timebase>25</timebase>
					</rate>
					<in>1431</in>
					<out>1852</out>
					<start>41052</start>
					<end>-1</end>
					<subframeoffset>0</subframeoffset>
					<enabled>TRUE</enabled>
					<masterclipid>13 Residential, Day - Traffic In F/G And B/G Ambience.aiff1</masterclipid>
					<logginginfo>
						<scene/>
						<shottake/>
						<lognote/>
						<good>FALSE</good>
					</logginginfo>
					<labels>
						<label2/>
					</labels>
					<comments>
						<mastercomment1/>
						<mastercomment2/>
						<mastercomment3/>
						<mastercomment4/>
					</comments>
					<file id="13 Residential, Day - Traffic In F/G And B/G Ambience"/>
					<filter>
						<effect>
							<name>Audio Levels</name>
							<effectid>audiolevels</effectid>
							<effectcategory>audiolevels</effectcategory>
							<effecttype>audiolevels</effecttype>
							<mediatype>audio</mediatype>
							<parameter>
								<name>Level</name>
								<parameterid>level</parameterid>
								<valuemin>0</valuemin>
								<valuemax>3.98109</valuemax>
								<keyframe>
									<when>1432.14</when>
									<value>5.01187e-05</value>
								</keyframe>
								<keyframe>
									<when>1454.64</when>
									<value>0.112202</value>
								</keyframe>
								<keyframe>
									<when>1561.57</when>
									<value>0.112202</value>
								</keyframe>
								<keyframe>
									<when>1794.29</when>
									<value>0.141254</value>
								</keyframe>
								<interpolation>
									<name>FCPCurve</name>
								</interpolation>
								<value>0.199526</value>
							</parameter>
						</effect>
					</filter>
					<filter>
						<effect>
							<name>Audio Pan</name>
							<effectid>audiopan</effectid>
							<effectcategory>audiopan</effectcategory>
							<effecttype>audiopan</effecttype>
							<mediatype>audio</mediatype>
							<parameter>
								<name>Pan</name>
								<parameterid>pan</parameterid>
								<valuemin>-1</valuemin>
								<valuemax>1</valuemax>
								<value>1</value>
							</parameter>
						</effect>
					</filter>
					<sourcetrack>
						<mediatype>audio</mediatype>
						<trackindex>2</trackindex>
					</sourcetrack>
					<link>
						<linkclipref>13 Residential, Day - Traffic In F/G And B/G Ambience.aiff</linkclipref>
						<mediatype>audio</mediatype>
						<trackindex>5</trackindex>
						<clipindex>39</clipindex>
						<groupindex>1</groupindex>
					</link>
					<link>
						<linkclipref>13 Residential, Day - Traffic In F/G And B/G Ambience.aiff2</linkclipref>
						<mediatype>audio</mediatype>
						<trackindex>6</trackindex>
						<clipindex>35</clipindex>
						<groupindex>1</groupindex>
					</link>
				</clipitem>
				<transitionitem id="628316564 ">
					<rate>
						<ntsc>FALSE</ntsc>
						<timebase>25</timebase>
					</rate>
					<start>41448</start>
					<end>41473</end>
					<alignment>end-black</alignment>
					<effect>
						<name>Cross Fade ( 0dB)</name>
						<effecttype>transition</effecttype>
						<mediatype>audio</mediatype>
					</effect>
				</transitionitem>
				<transitionitem id="628316292 ">
					<rate>
						<ntsc>FALSE</ntsc>
						<timebase>25</timebase>
					</rate>
					<start>42558</start>
					<end>42570</end>
					<alignment>start-black</alignment>
					<effect>
						<name>Cross Fade (+3dB) Copy</name>
						<effecttype>transition</effecttype>
						<mediatype>audio</mediatype>
					</effect>
				</transitionitem>
				<clipitem id="AUXMP_ISCD020302.mp3 4">
					<name>AUXMP_ISCD020302.mp3</name>
					<duration>3908</duration>
					<rate>
						<ntsc>FALSE</ntsc>
						<timebase>25</timebase>
					</rate>
					<in>1995</in>
					<out>2937</out>
					<start>-1</start>
					<end>-1</end>
					<subframeoffset>0</subframeoffset>
					<masterclipid>AUXMP_ISCD020302.mp3 1</masterclipid>
					<logginginfo>
						<scene/>
						<shottake/>
						<lognote/>
						<good>FALSE</good>
					</logginginfo>
					<labels>
						<label2/>
					</labels>
					<comments>
						<mastercomment1/>
						<mastercomment2/>
						<mastercomment3/>
						<mastercomment4/>
					</comments>
					<file id="AUXMP_ISCD020302 "/>
					<filter>
						<effect>
							<name>Audio Levels</name>
							<effectid>audiolevels</effectid>
							<effectcategory>audiolevels</effectcategory>
							<effecttype>audiolevels</effecttype>
							<mediatype>audio</mediatype>
							<parameter>
								<name>Level</name>
								<parameterid>level</parameterid>
								<valuemin>0</valuemin>
								<valuemax>3.98109</valuemax>
								<keyframe>
									<when>2022.64</when>
									<value>0.0501187</value>
								</keyframe>
								<keyframe>
									<when>2055</when>
									<value>0.158489</value>
								</keyframe>
								<keyframe>
									<when>2082.86</when>
									<value>0.158489</value>
								</keyframe>
								<keyframe>
									<when>2112.27</when>
									<value>0.0501187</value>
								</keyframe>
								<keyframe>
									<when>2494.14</when>
									<value>0.0501187</value>
								</keyframe>
								<keyframe>
									<when>2541</when>
									<value>0.199526</value>
								</keyframe>
								<interpolation>
									<name>FCPCurve</name>
								</interpolation>
								<value>0.158489</value>
							</parameter>
						</effect>
					</filter>
					<filter>
						<effect>
							<name>Audio Pan</name>
							<effectid>audiopan</effectid>
							<effectcategory>audiopan</effectcategory>
							<effecttype>audiopan</effecttype>
							<mediatype>audio</mediatype>
							<parameter>
								<name>Pan</name>
								<parameterid>pan</parameterid>
								<valuemin>-1</valuemin>
								<valuemax>1</valuemax>
								<value>1</value>
							</parameter>
						</effect>
					</filter>
					<sourcetrack>
						<mediatype>audio</mediatype>
						<trackindex>2</trackindex>
					</sourcetrack>
					<link>
						<linkclipref>AUXMP_ISCD020302.mp3 3</linkclipref>
						<mediatype>audio</mediatype>
						<trackindex>5</trackindex>
						<clipindex>42</clipindex>
						<groupindex>1</groupindex>
					</link>
					<link>
						<linkclipref>AUXMP_ISCD020302.mp3 4</linkclipref>
						<mediatype>audio</mediatype>
						<trackindex>6</trackindex>
						<clipindex>38</clipindex>
						<groupindex>1</groupindex>
					</link>
				</clipitem>
				<transitionitem id="628315476 ">
					<rate>
						<ntsc>FALSE</ntsc>
						<timebase>25</timebase>
					</rate>
					<start>43375</start>
					<end>43500</end>
					<alignment>end-black</alignment>
					<effect>
						<name>Cross Fade (+3dB) Copy</name>
						<effecttype>transition</effecttype>
						<mediatype>audio</mediatype>
					</effect>
				</transitionitem>
				<enabled>TRUE</enabled>
				<locked>FALSE</locked>
				<outputchannelindex>2</outputchannelindex>
			</track>
			<track>
				<clipitem id="FinFredag_2012 3">
					<name>FinFredag_2012</name>
					<duration>650</duration>
					<rate>
						<ntsc>FALSE</ntsc>
						<timebase>25</timebase>
					</rate>
					<in>0</in>
					<out>622</out>
					<start>235</start>
					<end>857</end>
					<enabled>TRUE</enabled>
					<masterclipid>FinFredag_2012 1</masterclipid>
					<logginginfo>
						<scene/>
						<shottake/>
						<lognote/>
						<good>FALSE</good>
					</logginginfo>
					<labels>
						<label2/>
					</labels>
					<comments>
						<mastercomment1/>
						<mastercomment2/>
						<mastercomment3/>
						<mastercomment4/>
					</comments>
					<file id="FinFredag_2012 2"/>
					<filter>
						<effect>
							<name>Audio Levels</name>
							<effectid>audiolevels</effectid>
							<effectcategory>audiolevels</effectcategory>
							<effecttype>audiolevels</effecttype>
							<mediatype>audio</mediatype>
							<parameter>
								<name>Level</name>
								<parameterid>level</parameterid>
								<valuemin>0</valuemin>
								<valuemax>3.98109</valuemax>
								<keyframe>
									<when>406.571</when>
									<value>0.331481</value>
								</keyframe>
								<keyframe>
									<when>420</when>
									<value>0.251189</value>
								</keyframe>
								<keyframe>
									<when>480.143</when>
									<value>0.251189</value>
								</keyframe>
								<keyframe>
									<when>489.143</when>
									<value>0.316228</value>
								</keyframe>
								<keyframe>
									<when>521.786</when>
									<value>0.316228</value>
								</keyframe>
								<keyframe>
									<when>529.357</when>
									<value>0.126041</value>
								</keyframe>
								<interpolation>
									<name>FCPCurve</name>
								</interpolation>
								<value>0.178038</value>
							</parameter>
						</effect>
					</filter>
					<filter>
						<effect>
							<name>Audio Pan</name>
							<effectid>audiopan</effectid>
							<effectcategory>audiopan</effectcategory>
							<effecttype>audiopan</effecttype>
							<mediatype>audio</mediatype>
							<parameter>
								<name>Pan</name>
								<parameterid>pan</parameterid>
								<valuemin>-1</valuemin>
								<valuemax>1</valuemax>
								<value>-1</value>
							</parameter>
						</effect>
					</filter>
					<sourcetrack>
						<mediatype>audio</mediatype>
						<trackindex>1</trackindex>
					</sourcetrack>
					<link>
						<linkclipref>FinFredag_2012 </linkclipref>
						<mediatype>video</mediatype>
						<trackindex>4</trackindex>
						<clipindex>1</clipindex>
					</link>
					<link>
						<linkclipref>FinFredag_2012 3</linkclipref>
						<mediatype>audio</mediatype>
						<trackindex>7</trackindex>
						<clipindex>1</clipindex>
					</link>
					<link>
						<linkclipref>FinFredag_2012 4</linkclipref>
						<mediatype>audio</mediatype>
						<trackindex>8</trackindex>
						<clipindex>1</clipindex>
					</link>
				</clipitem>
				<transitionitem id="628313300 ">
					<rate>
						<ntsc>FALSE</ntsc>
						<timebase>25</timebase>
					</rate>
					<start>1059</start>
					<end>1065</end>
					<alignment>start-black</alignment>
					<effect>
						<name>Cross Fade (+3dB) Copy</name>
						<effecttype>transition</effecttype>
						<mediatype>audio</mediatype>
					</effect>
				</transitionitem>
				<clipitem id="Stråling.wav7">
					<name>Stråling.wav</name>
					<duration>618</duration>
					<rate>
						<ntsc>FALSE</ntsc>
						<timebase>25</timebase>
					</rate>
					<in>30</in>
					<out>45</out>
					<start>-1</start>
					<end>-1</end>
					<subframeoffset>0</subframeoffset>
					<enabled>TRUE</enabled>
					<masterclipid>Stråling.wav1</masterclipid>
					<logginginfo>
						<scene/>
						<shottake/>
						<lognote/>
						<good>FALSE</good>
					</logginginfo>
					<labels>
						<label2/>
					</labels>
					<comments>
						<mastercomment1/>
						<mastercomment2/>
						<mastercomment3/>
						<mastercomment4/>
					</comments>
					<file id="Stråling"/>
					<filter>
						<effect>
							<name>Audio Levels</name>
							<effectid>audiolevels</effectid>
							<effectcategory>audiolevels</effectcategory>
							<effecttype>audiolevels</effecttype>
							<mediatype>audio</mediatype>
							<parameter>
								<name>Level</name>
								<parameterid>level</parameterid>
								<valuemin>0</valuemin>
								<valuemax>3.98109</valuemax>
								<value>0.141254</value>
							</parameter>
						</effect>
					</filter>
					<filter>
						<effect>
							<name>Audio Pan</name>
							<effectid>audiopan</effectid>
							<effectcategory>audiopan</effectcategory>
							<effecttype>audiopan</effecttype>
							<mediatype>audio</mediatype>
							<parameter>
								<name>Pan</name>
								<parameterid>pan</parameterid>
								<valuemin>-1</valuemin>
								<valuemax>1</valuemax>
								<value>-1</value>
							</parameter>
						</effect>
					</filter>
					<sourcetrack>
						<mediatype>audio</mediatype>
						<trackindex>1</trackindex>
					</sourcetrack>
					<link>
						<linkclipref>Stråling.wav7</linkclipref>
						<mediatype>audio</mediatype>
						<trackindex>7</trackindex>
						<clipindex>3</clipindex>
						<groupindex>1</groupindex>
					</link>
					<link>
						<linkclipref>Stråling.wav8</linkclipref>
						<mediatype>audio</mediatype>
						<trackindex>8</trackindex>
						<clipindex>3</clipindex>
						<groupindex>1</groupindex>
					</link>
				</clipitem>
				<transitionitem id="628312688 ">
					<rate>
						<ntsc>FALSE</ntsc>
						<timebase>25</timebase>
					</rate>
					<start>1072</start>
					<end>1074</end>
					<alignment>end-black</alignment>
					<effect>
						<name>Cross Fade (+3dB) Copy</name>
						<effecttype>transition</effecttype>
						<mediatype>audio</mediatype>
					</effect>
				</transitionitem>
				<transitionitem id="628311600 ">
					<rate>
						<ntsc>FALSE</ntsc>
						<timebase>25</timebase>
					</rate>
					<start>13877</start>
					<end>13883</end>
					<alignment>start-black</alignment>
					<effect>
						<name>Cross Fade (+3dB) Copy</name>
						<effecttype>transition</effecttype>
						<mediatype>audio</mediatype>
					</effect>
				</transitionitem>
				<clipitem id="Fin Fredag Vignett - NY.wav7">
					<name>Fin Fredag Vignett - NY.wav</name>
					<duration>1590</duration>
					<rate>
						<ntsc>FALSE</ntsc>
						<timebase>25</timebase>
					</rate>
					<in>1448</in>
					<out>1549</out>
					<start>-1</start>
					<end>-1</end>
					<subframeoffset>0</subframeoffset>
					<enabled>FALSE</enabled>
					<masterclipid>Fin Fredag Vignett - NY.wav1</masterclipid>
					<logginginfo>
						<scene/>
						<shottake/>
						<lognote/>
						<good>FALSE</good>
					</logginginfo>
					<labels>
						<label2/>
					</labels>
					<comments>
						<mastercomment1/>
						<mastercomment2/>
						<mastercomment3/>
						<mastercomment4/>
					</comments>
					<file id="Fin Fredag Vignett - NY"/>
					<filter>
						<effect>
							<name>Audio Levels</name>
							<effectid>audiolevels</effectid>
							<effectcategory>audiolevels</effectcategory>
							<effecttype>audiolevels</effecttype>
							<mediatype>audio</mediatype>
							<parameter>
								<name>Level</name>
								<parameterid>level</parameterid>
								<valuemin>0</valuemin>
								<valuemax>3.98109</valuemax>
								<value>0.281838</value>
							</parameter>
						</effect>
					</filter>
					<filter>
						<effect>
							<name>Audio Pan</name>
							<effectid>audiopan</effectid>
							<effectcategory>audiopan</effectcategory>
							<effecttype>audiopan</effecttype>
							<mediatype>audio</mediatype>
							<parameter>
								<name>Pan</name>
								<parameterid>pan</parameterid>
								<valuemin>-1</valuemin>
								<valuemax>1</valuemax>
								<value>-1</value>
							</parameter>
						</effect>
					</filter>
					<sourcetrack>
						<mediatype>audio</mediatype>
						<trackindex>1</trackindex>
					</sourcetrack>
					<link>
						<linkclipref>Fin Fredag Vignett - NY.wav7</linkclipref>
						<mediatype>audio</mediatype>
						<trackindex>7</trackindex>
						<clipindex>6</clipindex>
						<groupindex>1</groupindex>
					</link>
					<link>
						<linkclipref>Fin Fredag Vignett - NY.wav8</linkclipref>
						<mediatype>audio</mediatype>
						<trackindex>8</trackindex>
						<clipindex>6</clipindex>
						<groupindex>1</groupindex>
					</link>
				</clipitem>
				<transitionitem id="628310852 ">
					<rate>
						<ntsc>FALSE</ntsc>
						<timebase>25</timebase>
					</rate>
					<start>13976</start>
					<end>13978</end>
					<alignment>end-black</alignment>
					<effect>
						<name>Cross Fade (+3dB) Copy</name>
						<effecttype>transition</effecttype>
						<mediatype>audio</mediatype>
					</effect>
				</transitionitem>
				<transitionitem id="628310580 ">
					<rate>
						<ntsc>FALSE</ntsc>
						<timebase>25</timebase>
					</rate>
					<start>24637</start>
					<end>24662</end>
					<alignment>start-black</alignment>
					<effect>
						<name>Cross Fade (+3dB) Copy</name>
						<effecttype>transition</effecttype>
						<mediatype>audio</mediatype>
					</effect>
				</transitionitem>
				<clipitem id="SAS004803.wav">
					<name>SAS004803.wav</name>
					<duration>3750</duration>
					<rate>
						<ntsc>FALSE</ntsc>
						<timebase>25</timebase>
					</rate>
					<in>17</in>
					<out>602</out>
					<start>-1</start>
					<end>25222</end>
					<subframeoffset>0</subframeoffset>
					<masterclipid>SAS004803.wav1</masterclipid>
					<logginginfo>
						<scene/>
						<shottake/>
						<lognote/>
						<good>FALSE</good>
					</logginginfo>
					<labels>
						<label2/>
					</labels>
					<comments>
						<mastercomment1/>
						<mastercomment2/>
						<mastercomment3/>
						<mastercomment4/>
					</comments>
					<file id="SAS004803 ">
						<name>SAS004803.wav</name>
						<pathurl>file://localhost/Volumes/SuperSAN1/Prosjekter/MSUB20000012%20FIN%20FREDAG/FCP-prosjekter/program%201/Musikk/Hinderloype/SAS004803.wav</pathurl>
						<rate>
							<timebase>25</timebase>
						</rate>
						<duration>3750</duration>
						<media>
							<audio>
								<rate>
									<timebase>48000</timebase>
								</rate>
								<trackcount>2</trackcount>
								<samplecharacteristics>
									<depth>16</depth>
								</samplecharacteristics>
							</audio>
						</media>
					</file>
					<filter>
						<effect>
							<name>Audio Levels</name>
							<effectid>audiolevels</effectid>
							<effectcategory>audiolevels</effectcategory>
							<effecttype>audiolevels</effecttype>
							<mediatype>audio</mediatype>
							<parameter>
								<name>Level</name>
								<parameterid>level</parameterid>
								<valuemin>0</valuemin>
								<valuemax>3.98109</valuemax>
								<keyframe>
									<when>120.429</when>
									<value>0.199526</value>
								</keyframe>
								<keyframe>
									<when>130.143</when>
									<value>0.158489</value>
								</keyframe>
								<keyframe>
									<when>593.714</when>
									<value>0.158489</value>
								</keyframe>
								<keyframe>
									<when>600.571</when>
									<value>0.112202</value>
								</keyframe>
								<interpolation>
									<name>FCPCurve</name>
								</interpolation>
								<value>0.199526</value>
							</parameter>
						</effect>
					</filter>
					<filter>
						<effect>
							<name>Audio Pan</name>
							<effectid>audiopan</effectid>
							<effectcategory>audiopan</effectcategory>
							<effecttype>audiopan</effecttype>
							<mediatype>audio</mediatype>
							<parameter>
								<name>Pan</name>
								<parameterid>pan</parameterid>
								<valuemin>-1</valuemin>
								<valuemax>1</valuemax>
								<value>-1</value>
							</parameter>
						</effect>
					</filter>
					<sourcetrack>
						<mediatype>audio</mediatype>
						<trackindex>1</trackindex>
					</sourcetrack>
					<link>
						<linkclipref>SAS004803.wav</linkclipref>
						<mediatype>audio</mediatype>
						<trackindex>7</trackindex>
						<clipindex>9</clipindex>
						<groupindex>1</groupindex>
					</link>
					<link>
						<linkclipref>SAS004803.wav2</linkclipref>
						<mediatype>audio</mediatype>
						<trackindex>8</trackindex>
						<clipindex>9</clipindex>
						<groupindex>1</groupindex>
					</link>
				</clipitem>
				<clipitem id="SAS004803.wav3">
					<name>SAS004803.wav</name>
					<duration>3750</duration>
					<rate>
						<ntsc>FALSE</ntsc>
						<timebase>25</timebase>
					</rate>
					<in>948</in>
					<out>986</out>
					<start>25222</start>
					<end>-1</end>
					<subframeoffset>0</subframeoffset>
					<masterclipid>SAS004803.wav1</masterclipid>
					<logginginfo>
						<scene/>
						<shottake/>
						<lognote/>
						<good>FALSE</good>
					</logginginfo>
					<labels>
						<label2/>
					</labels>
					<comments>
						<mastercomment1/>
						<mastercomment2/>
						<mastercomment3/>
						<mastercomment4/>
					</comments>
					<file id="SAS004803 "/>
					<filter>
						<effect>
							<name>Audio Levels</name>
							<effectid>audiolevels</effectid>
							<effectcategory>audiolevels</effectcategory>
							<effecttype>audiolevels</effecttype>
							<mediatype>audio</mediatype>
							<parameter>
								<name>Level</name>
								<parameterid>level</parameterid>
								<valuemin>0</valuemin>
								<valuemax>3.98109</valuemax>
								<value>0.112202</value>
							</parameter>
						</effect>
					</filter>
					<filter>
						<effect>
							<name>Audio Pan</name>
							<effectid>audiopan</effectid>
							<effectcategory>audiopan</effectcategory>
							<effecttype>audiopan</effecttype>
							<mediatype>audio</mediatype>
							<parameter>
								<name>Pan</name>
								<parameterid>pan</parameterid>
								<valuemin>-1</valuemin>
								<valuemax>1</valuemax>
								<value>-1</value>
							</parameter>
						</effect>
					</filter>
					<sourcetrack>
						<mediatype>audio</mediatype>
						<trackindex>1</trackindex>
					</sourcetrack>
					<link>
						<linkclipref>SAS004803.wav3</linkclipref>
						<mediatype>audio</mediatype>
						<trackindex>7</trackindex>
						<clipindex>10</clipindex>
						<groupindex>1</groupindex>
					</link>
					<link>
						<linkclipref>SAS004803.wav4</linkclipref>
						<mediatype>audio</mediatype>
						<trackindex>8</trackindex>
						<clipindex>10</clipindex>
						<groupindex>1</groupindex>
					</link>
				</clipitem>
				<transitionitem id="628342812 ">
					<rate>
						<ntsc>FALSE</ntsc>
						<timebase>25</timebase>
					</rate>
					<start>25248</start>
					<end>25260</end>
					<alignment>end-black</alignment>
					<effect>
						<name>Cross Fade (+3dB) Copy</name>
						<effecttype>transition</effecttype>
						<mediatype>audio</mediatype>
					</effect>
				</transitionitem>
				<clipitem id="Boing - hoink - plystring.aif25">
					<name>Boing - hoink - plystring.aif</name>
					<duration>256</duration>
					<rate>
						<ntsc>FALSE</ntsc>
						<timebase>25</timebase>
					</rate>
					<in>39</in>
					<out>46</out>
					<start>25845</start>
					<end>25852</end>
					<subframeoffset>0</subframeoffset>
					<masterclipid>Boing - hoink - plystring.aif1</masterclipid>
					<logginginfo>
						<scene/>
						<shottake/>
						<lognote/>
						<good>FALSE</good>
					</logginginfo>
					<labels>
						<label2/>
					</labels>
					<comments>
						<mastercomment1/>
						<mastercomment2/>
						<mastercomment3/>
						<mastercomment4/>
					</comments>
					<file id="Boing - hoink - plystring"/>
					<filter>
						<effect>
							<name>Audio Levels</name>
							<effectid>audiolevels</effectid>
							<effectcategory>audiolevels</effectcategory>
							<effecttype>audiolevels</effecttype>
							<mediatype>audio</mediatype>
							<parameter>
								<name>Level</name>
								<parameterid>level</parameterid>
								<valuemin>0</valuemin>
								<valuemax>3.98109</valuemax>
								<value>0.707946</value>
							</parameter>
						</effect>
					</filter>
					<filter>
						<effect>
							<name>Audio Pan</name>
							<effectid>audiopan</effectid>
							<effectcategory>audiopan</effectcategory>
							<effecttype>audiopan</effecttype>
							<mediatype>audio</mediatype>
							<parameter>
								<name>Pan</name>
								<parameterid>pan</parameterid>
								<valuemin>-1</valuemin>
								<valuemax>1</valuemax>
								<value>-1</value>
							</parameter>
						</effect>
					</filter>
					<sourcetrack>
						<mediatype>audio</mediatype>
						<trackindex>1</trackindex>
					</sourcetrack>
					<link>
						<linkclipref>Boing - hoink - plystring.aif25</linkclipref>
						<mediatype>audio</mediatype>
						<trackindex>7</trackindex>
						<clipindex>12</clipindex>
						<groupindex>1</groupindex>
					</link>
					<link>
						<linkclipref>Boing - hoink - plystring.aif26</linkclipref>
						<mediatype>audio</mediatype>
						<trackindex>8</trackindex>
						<clipindex>12</clipindex>
						<groupindex>1</groupindex>
					</link>
				</clipitem>
				<clipitem id="Boing - hoink - plystring.aif27">
					<name>Boing - hoink - plystring.aif</name>
					<duration>256</duration>
					<rate>
						<ntsc>FALSE</ntsc>
						<timebase>25</timebase>
					</rate>
					<in>36</in>
					<out>43</out>
					<start>25854</start>
					<end>25861</end>
					<subframeoffset>0</subframeoffset>
					<masterclipid>Boing - hoink - plystring.aif1</masterclipid>
					<logginginfo>
						<scene/>
						<shottake/>
						<lognote/>
						<good>FALSE</good>
					</logginginfo>
					<labels>
						<label2/>
					</labels>
					<comments>
						<mastercomment1/>
						<mastercomment2/>
						<mastercomment3/>
						<mastercomment4/>
					</comments>
					<file id="Boing - hoink - plystring"/>
					<filter>
						<effect>
							<name>Audio Levels</name>
							<effectid>audiolevels</effectid>
							<effectcategory>audiolevels</effectcategory>
							<effecttype>audiolevels</effecttype>
							<mediatype>audio</mediatype>
							<parameter>
								<name>Level</name>
								<parameterid>level</parameterid>
								<valuemin>0</valuemin>
								<valuemax>3.98109</valuemax>
								<value>0.354813</value>
							</parameter>
						</effect>
					</filter>
					<filter>
						<effect>
							<name>Audio Pan</name>
							<effectid>audiopan</effectid>
							<effectcategory>audiopan</effectcategory>
							<effecttype>audiopan</effecttype>
							<mediatype>audio</mediatype>
							<parameter>
								<name>Pan</name>
								<parameterid>pan</parameterid>
								<valuemin>-1</valuemin>
								<valuemax>1</valuemax>
								<value>-1</value>
							</parameter>
						</effect>
					</filter>
					<sourcetrack>
						<mediatype>audio</mediatype>
						<trackindex>1</trackindex>
					</sourcetrack>
					<link>
						<linkclipref>Boing - hoink - plystring.aif27</linkclipref>
						<mediatype>audio</mediatype>
						<trackindex>7</trackindex>
						<clipindex>13</clipindex>
						<groupindex>1</groupindex>
					</link>
					<link>
						<linkclipref>Boing - hoink - plystring.aif28</linkclipref>
						<mediatype>audio</mediatype>
						<trackindex>8</trackindex>
						<clipindex>13</clipindex>
						<groupindex>1</groupindex>
					</link>
				</clipitem>
				<transitionitem id="628330368 ">
					<rate>
						<ntsc>FALSE</ntsc>
						<timebase>25</timebase>
					</rate>
					<start>25889</start>
					<end>25939</end>
					<alignment>start-black</alignment>
					<effect>
						<name>Cross Fade (+3dB) Copy</name>
						<effecttype>transition</effecttype>
						<mediatype>audio</mediatype>
					</effect>
				</transitionitem>
				<clipitem id="SCD087129.wav">
					<name>SCD087129.wav</name>
					<duration>4797</duration>
					<rate>
						<ntsc>FALSE</ntsc>
						<timebase>25</timebase>
					</rate>
					<in>1034</in>
					<out>2497</out>
					<start>-1</start>
					<end>-1</end>
					<subframeoffset>0</subframeoffset>
					<masterclipid>SCD087129.wav1</masterclipid>
					<logginginfo>
						<scene/>
						<shottake/>
						<lognote/>
						<good>FALSE</good>
					</logginginfo>
					<labels>
						<label2/>
					</labels>
					<comments>
						<mastercomment1/>
						<mastercomment2/>
						<mastercomment3/>
						<mastercomment4/>
					</comments>
					<file id="SCD087129 ">
						<name>SCD087129.wav</name>
						<pathurl>file://localhost/Volumes/SuperSAN1/Prosjekter/MSUB20000012%20FIN%20FREDAG/FCP-prosjekter/program%201/Musikk/Hinderloype/Hinderl%C3%B8ype%20glass%20og%20terning/SCD087129.wav</pathurl>
						<rate>
							<timebase>25</timebase>
						</rate>
						<duration>4797</duration>
						<timecode>
							<rate>
								<timebase>25</timebase>
							</rate>
							<string>00:59:22:09</string>
							<frame>89059</frame>
							<displayformat>NDF</displayformat>
							<source>source</source>
						</timecode>
						<media>
							<audio>
								<rate>
									<timebase>48000</timebase>
								</rate>
								<trackcount>2</trackcount>
								<samplecharacteristics>
									<depth>24</depth>
								</samplecharacteristics>
							</audio>
						</media>
					</file>
					<filter>
						<effect>
							<name>Audio Levels</name>
							<effectid>audiolevels</effectid>
							<effectcategory>audiolevels</effectcategory>
							<effecttype>audiolevels</effecttype>
							<mediatype>audio</mediatype>
							<parameter>
								<name>Level</name>
								<parameterid>level</parameterid>
								<valuemin>0</valuemin>
								<valuemax>3.98109</valuemax>
								<keyframe>
									<when>2347.71</when>
									<value>0.199526</value>
								</keyframe>
								<keyframe>
									<when>2366</when>
									<value>0.141254</value>
								</keyframe>
								<keyframe>
									<when>2406</when>
									<value>0.141254</value>
								</keyframe>
								<keyframe>
									<when>2443.14</when>
									<value>0.0630957</value>
								</keyframe>
								<interpolation>
									<name>FCPCurve</name>
								</interpolation>
								<value>0.199526</value>
							</parameter>
						</effect>
					</filter>
					<filter>
						<effect>
							<name>Audio Pan</name>
							<effectid>audiopan</effectid>
							<effectcategory>audiopan</effectcategory>
							<effecttype>audiopan</effecttype>
							<mediatype>audio</mediatype>
							<parameter>
								<name>Pan</name>
								<parameterid>pan</parameterid>
								<valuemin>-1</valuemin>
								<valuemax>1</valuemax>
								<value>-1</value>
							</parameter>
						</effect>
					</filter>
					<sourcetrack>
						<mediatype>audio</mediatype>
						<trackindex>1</trackindex>
					</sourcetrack>
					<link>
						<linkclipref>SCD087129.wav</linkclipref>
						<mediatype>audio</mediatype>
						<trackindex>7</trackindex>
						<clipindex>15</clipindex>
						<groupindex>1</groupindex>
					</link>
					<link>
						<linkclipref>SCD087129.wav2</linkclipref>
						<mediatype>audio</mediatype>
						<trackindex>8</trackindex>
						<clipindex>15</clipindex>
						<groupindex>1</groupindex>
					</link>
				</clipitem>
				<transitionitem id="628332340 ">
					<rate>
						<ntsc>FALSE</ntsc>
						<timebase>25</timebase>
					</rate>
					<start>27302</start>
					<end>27352</end>
					<alignment>end-black</alignment>
					<effect>
						<name>Cross Fade (+3dB) Copy</name>
						<effecttype>transition</effecttype>
						<mediatype>audio</mediatype>
					</effect>
				</transitionitem>
				<transitionitem id="628331184 ">
					<rate>
						<ntsc>FALSE</ntsc>
						<timebase>25</timebase>
					</rate>
					<start>34927</start>
					<end>34929</end>
					<alignment>start-black</alignment>
					<effect>
						<name>Cross Fade (+3dB) Copy</name>
						<effecttype>transition</effecttype>
						<mediatype>audio</mediatype>
					</effect>
				</transitionitem>
				<clipitem id="FIN_FREDAP02_2 ">
					<name>FIN_FREDAP02_2</name>
					<duration>9375</duration>
					<rate>
						<ntsc>FALSE</ntsc>
						<timebase>25</timebase>
					</rate>
					<in>6857</in>
					<out>7010</out>
					<start>-1</start>
					<end>-1</end>
					<enabled>TRUE</enabled>
					<masterclipid>FIN_FREDAP02_2 1</masterclipid>
					<logginginfo>
						<scene>FIN_FREDA</scene>
						<shottake>02</shottake>
						<lognote/>
						<good>FALSE</good>
					</logginginfo>
					<labels>
						<label2/>
					</labels>
					<comments>
						<mastercomment1/>
						<mastercomment2/>
						<mastercomment3/>
						<mastercomment4/>
					</comments>
					<file id="FIN_FREDAP02_2 2">
						<name>FIN_FREDAP02_2.WAV</name>
						<pathurl>file://localhost/Volumes/SuperSAN1/Prosjekter/MSUB20000012%20FIN%20FREDAG/FCP-prosjekter/program%201/Konsertlyd/FIN_FREDAP02_2.WAV</pathurl>
						<rate>
							<timebase>25</timebase>
						</rate>
						<duration>9375</duration>
						<timecode>
							<rate>
								<timebase>25</timebase>
							</rate>
							<string>01:13:49:00</string>
							<frame>110725</frame>
							<displayformat>NDF</displayformat>
							<source>source</source>
							<reel>
								<name>120904</name>
							</reel>
						</timecode>
						<media>
							<audio>
								<rate>
									<timebase>48000</timebase>
								</rate>
								<trackcount>1</trackcount>
								<samplecharacteristics>
									<depth>24</depth>
								</samplecharacteristics>
							</audio>
						</media>
					</file>
					<filter>
						<effect>
							<name>Audio Levels</name>
							<effectid>audiolevels</effectid>
							<effectcategory>audiolevels</effectcategory>
							<effecttype>audiolevels</effecttype>
							<mediatype>audio</mediatype>
							<parameter>
								<name>Level</name>
								<parameterid>level</parameterid>
								<valuemin>0</valuemin>
								<valuemax>3.98109</valuemax>
								<value>0.501187</value>
							</parameter>
						</effect>
					</filter>
					<filter>
						<effect>
							<name>Audio Pan</name>
							<effectid>audiopan</effectid>
							<effectcategory>audiopan</effectcategory>
							<effecttype>audiopan</effecttype>
							<mediatype>audio</mediatype>
							<parameter>
								<name>Pan</name>
								<parameterid>pan</parameterid>
								<valuemin>-1</valuemin>
								<valuemax>1</valuemax>
								<value>0</value>
							</parameter>
						</effect>
					</filter>
					<sourcetrack>
						<mediatype>audio</mediatype>
						<trackindex>1</trackindex>
					</sourcetrack>
				</clipitem>
				<transitionitem id="628325880 ">
					<rate>
						<ntsc>FALSE</ntsc>
						<timebase>25</timebase>
					</rate>
					<start>35005</start>
					<end>35080</end>
					<alignment>end-black</alignment>
					<effect>
						<name>Cross Fade ( 0dB)</name>
						<effecttype>transition</effecttype>
						<mediatype>audio</mediatype>
					</effect>
				</transitionitem>
				<transitionitem id="628326560 ">
					<rate>
						<ntsc>FALSE</ntsc>
						<timebase>25</timebase>
					</rate>
					<start>36125</start>
					<end>36127</end>
					<alignment>start-black</alignment>
					<effect>
						<name>Cross Fade (+3dB) Copy</name>
						<effecttype>transition</effecttype>
						<mediatype>audio</mediatype>
					</effect>
				</transitionitem>
				<clipitem id="Fin Fredag UL - NY.wav">
					<name>Fin Fredag UL - NY.wav</name>
					<duration>1089</duration>
					<rate>
						<ntsc>FALSE</ntsc>
						<timebase>25</timebase>
					</rate>
					<in>0</in>
					<out>259</out>
					<start>-1</start>
					<end>-1</end>
					<subframeoffset>0</subframeoffset>
					<masterclipid>Fin Fredag UL - NY.wav1</masterclipid>
					<logginginfo>
						<scene/>
						<shottake/>
						<lognote/>
						<good>FALSE</good>
					</logginginfo>
					<labels>
						<label2/>
					</labels>
					<comments>
						<mastercomment1/>
						<mastercomment2/>
						<mastercomment3/>
						<mastercomment4/>
					</comments>
					<file id="Fin Fredag UL - NY">
						<name>Fin Fredag UL - NY.wav</name>
						<pathurl>file://localhost/Netdata3/MSUA/Felles/Barn/Fin%20fredag/Grafikk%20og%20musikk/Vignettmusikk/Endelig%20versjon/Fin%20Fredag%20UL%20-%20NY.wav</pathurl>
						<rate>
							<timebase>25</timebase>
						</rate>
						<duration>1089</duration>
						<timecode>
							<rate>
								<timebase>25</timebase>
							</rate>
							<string>00:00:21:15</string>
							<frame>540</frame>
							<displayformat>NDF</displayformat>
							<source>source</source>
						</timecode>
						<media>
							<audio>
								<rate>
									<timebase>48000</timebase>
								</rate>
								<trackcount>2</trackcount>
								<samplecharacteristics>
									<depth>24</depth>
								</samplecharacteristics>
							</audio>
						</media>
					</file>
					<filter>
						<effect>
							<name>Audio Levels</name>
							<effectid>audiolevels</effectid>
							<effectcategory>audiolevels</effectcategory>
							<effecttype>audiolevels</effecttype>
							<mediatype>audio</mediatype>
							<parameter>
								<name>Level</name>
								<parameterid>level</parameterid>
								<valuemin>0</valuemin>
								<valuemax>3.98109</valuemax>
								<keyframe>
									<when>83.4643</when>
									<value>0.501187</value>
								</keyframe>
								<keyframe>
									<when>120.107</when>
									<value>0.112202</value>
								</keyframe>
								<keyframe>
									<when>168.286</when>
									<value>0.112202</value>
								</keyframe>
								<keyframe>
									<when>244.286</when>
									<value>0.0630957</value>
								</keyframe>
								<interpolation>
									<name>FCPCurve</name>
								</interpolation>
								<value>0.501187</value>
							</parameter>
						</effect>
					</filter>
					<filter>
						<effect>
							<name>Audio Pan</name>
							<effectid>audiopan</effectid>
							<effectcategory>audiopan</effectcategory>
							<effecttype>audiopan</effecttype>
							<mediatype>audio</mediatype>
							<parameter>
								<name>Pan</name>
								<parameterid>pan</parameterid>
								<valuemin>-1</valuemin>
								<valuemax>1</valuemax>
								<value>-1</value>
							</parameter>
						</effect>
					</filter>
					<sourcetrack>
						<mediatype>audio</mediatype>
						<trackindex>1</trackindex>
					</sourcetrack>
					<link>
						<linkclipref>Fin Fredag UL - NY.wav</linkclipref>
						<mediatype>audio</mediatype>
						<trackindex>7</trackindex>
						<clipindex>21</clipindex>
						<groupindex>1</groupindex>
					</link>
					<link>
						<linkclipref>Fin Fredag UL - NY.wav2</linkclipref>
						<mediatype>audio</mediatype>
						<trackindex>8</trackindex>
						<clipindex>18</clipindex>
						<groupindex>1</groupindex>
					</link>
				</clipitem>
				<transitionitem id="628328600 ">
					<rate>
						<ntsc>FALSE</ntsc>
						<timebase>25</timebase>
					</rate>
					<start>36334</start>
					<end>36384</end>
					<alignment>end-black</alignment>
					<effect>
						<name>Cross Fade (+3dB) Copy</name>
						<effecttype>transition</effecttype>
						<mediatype>audio</mediatype>
					</effect>
				</transitionitem>
				<clipitem id="AUXMP_ISCD020302.mp3 5">
					<name>AUXMP_ISCD020302.mp3</name>
					<duration>3908</duration>
					<rate>
						<ntsc>FALSE</ntsc>
						<timebase>25</timebase>
					</rate>
					<in>279</in>
					<out>1399</out>
					<start>40272</start>
					<end>-1</end>
					<masterclipid>AUXMP_ISCD020302.mp3 1</masterclipid>
					<logginginfo>
						<scene/>
						<shottake/>
						<lognote/>
						<good>FALSE</good>
					</logginginfo>
					<labels>
						<label2/>
					</labels>
					<comments>
						<mastercomment1/>
						<mastercomment2/>
						<mastercomment3/>
						<mastercomment4/>
					</comments>
					<file id="AUXMP_ISCD020302 "/>
					<filter>
						<effect>
							<name>Audio Levels</name>
							<effectid>audiolevels</effectid>
							<effectcategory>audiolevels</effectcategory>
							<effecttype>audiolevels</effecttype>
							<mediatype>audio</mediatype>
							<parameter>
								<name>Level</name>
								<parameterid>level</parameterid>
								<valuemin>0</valuemin>
								<valuemax>3.98109</valuemax>
								<keyframe>
									<when>901.857</when>
									<value>0.158489</value>
								</keyframe>
								<keyframe>
									<when>928.143</when>
									<value>0.0630957</value>
								</keyframe>
								<keyframe>
									<when>1027.71</when>
									<value>0.0630957</value>
								</keyframe>
								<keyframe>
									<when>1316.71</when>
									<value>0.0630957</value>
								</keyframe>
								<keyframe>
									<when>1547</when>
									<value>0.0251189</value>
								</keyframe>
								<interpolation>
									<name>FCPCurve</name>
								</interpolation>
								<value>0.320464</value>
							</parameter>
						</effect>
					</filter>
					<filter>
						<effect>
							<name>Audio Pan</name>
							<effectid>audiopan</effectid>
							<effectcategory>audiopan</effectcategory>
							<effecttype>audiopan</effecttype>
							<mediatype>audio</mediatype>
							<parameter>
								<name>Pan</name>
								<parameterid>pan</parameterid>
								<valuemin>-1</valuemin>
								<valuemax>1</valuemax>
								<value>-1</value>
							</parameter>
						</effect>
					</filter>
					<sourcetrack>
						<mediatype>audio</mediatype>
						<trackindex>1</trackindex>
					</sourcetrack>
					<link>
						<linkclipref>AUXMP_ISCD020302.mp3 5</linkclipref>
						<mediatype>audio</mediatype>
						<trackindex>7</trackindex>
						<clipindex>23</clipindex>
						<groupindex>1</groupindex>
					</link>
					<link>
						<linkclipref>AUXMP_ISCD020302.mp3 6</linkclipref>
						<mediatype>audio</mediatype>
						<trackindex>8</trackindex>
						<clipindex>20</clipindex>
						<groupindex>1</groupindex>
					</link>
				</clipitem>
				<transitionitem id="628328260 ">
					<rate>
						<ntsc>FALSE</ntsc>
						<timebase>25</timebase>
					</rate>
					<start>41386</start>
					<end>41392</end>
					<alignment>center</alignment>
					<effect>
						<name>Cross Fade (+3dB) Copy</name>
						<effecttype>transition</effecttype>
						<mediatype>audio</mediatype>
					</effect>
				</transitionitem>
				<enabled>TRUE</enabled>
				<locked>FALSE</locked>
				<outputchannelindex>1</outputchannelindex>
			</track>
			<track>
				<clipitem id="FinFredag_2012 4">
					<name>FinFredag_2012</name>
					<duration>650</duration>
					<rate>
						<ntsc>FALSE</ntsc>
						<timebase>25</timebase>
					</rate>
					<in>0</in>
					<out>622</out>
					<start>235</start>
					<end>857</end>
					<enabled>TRUE</enabled>
					<masterclipid>FinFredag_2012 1</masterclipid>
					<logginginfo>
						<scene/>
						<shottake/>
						<lognote/>
						<good>FALSE</good>
					</logginginfo>
					<labels>
						<label2/>
					</labels>
					<comments>
						<mastercomment1/>
						<mastercomment2/>
						<mastercomment3/>
						<mastercomment4/>
					</comments>
					<file id="FinFredag_2012 2"/>
					<filter>
						<effect>
							<name>Audio Levels</name>
							<effectid>audiolevels</effectid>
							<effectcategory>audiolevels</effectcategory>
							<effecttype>audiolevels</effecttype>
							<mediatype>audio</mediatype>
							<parameter>
								<name>Level</name>
								<parameterid>level</parameterid>
								<valuemin>0</valuemin>
								<valuemax>3.98109</valuemax>
								<keyframe>
									<when>407.204</when>
									<value>0.331481</value>
								</keyframe>
								<keyframe>
									<when>420.143</when>
									<value>0.251189</value>
								</keyframe>
								<keyframe>
									<when>480.286</when>
									<value>0.251189</value>
								</keyframe>
								<keyframe>
									<when>489.286</when>
									<value>0.316228</value>
								</keyframe>
								<keyframe>
									<when>521.929</when>
									<value>0.316228</value>
								</keyframe>
								<keyframe>
									<when>529.571</when>
									<value>0.126041</value>
								</keyframe>
								<interpolation>
									<name>FCPCurve</name>
								</interpolation>
								<value>0.178038</value>
							</parameter>
						</effect>
					</filter>
					<filter>
						<effect>
							<name>Audio Pan</name>
							<effectid>audiopan</effectid>
							<effectcategory>audiopan</effectcategory>
							<effecttype>audiopan</effecttype>
							<mediatype>audio</mediatype>
							<parameter>
								<name>Pan</name>
								<parameterid>pan</parameterid>
								<valuemin>-1</valuemin>
								<valuemax>1</valuemax>
								<value>1</value>
							</parameter>
						</effect>
					</filter>
					<sourcetrack>
						<mediatype>audio</mediatype>
						<trackindex>2</trackindex>
					</sourcetrack>
					<link>
						<linkclipref>FinFredag_2012 </linkclipref>
						<mediatype>video</mediatype>
						<trackindex>4</trackindex>
						<clipindex>1</clipindex>
					</link>
					<link>
						<linkclipref>FinFredag_2012 3</linkclipref>
						<mediatype>audio</mediatype>
						<trackindex>7</trackindex>
						<clipindex>1</clipindex>
					</link>
					<link>
						<linkclipref>FinFredag_2012 4</linkclipref>
						<mediatype>audio</mediatype>
						<trackindex>8</trackindex>
						<clipindex>1</clipindex>
					</link>
				</clipitem>
				<transitionitem id="628322820 ">
					<rate>
						<ntsc>FALSE</ntsc>
						<timebase>25</timebase>
					</rate>
					<start>1059</start>
					<end>1065</end>
					<alignment>start-black</alignment>
					<effect>
						<name>Cross Fade (+3dB) Copy</name>
						<effecttype>transition</effecttype>
						<mediatype>audio</mediatype>
					</effect>
				</transitionitem>
				<clipitem id="Stråling.wav8">
					<name>Stråling.wav</name>
					<duration>618</duration>
					<rate>
						<ntsc>FALSE</ntsc>
						<timebase>25</timebase>
					</rate>
					<in>30</in>
					<out>45</out>
					<start>-1</start>
					<end>-1</end>
					<subframeoffset>0</subframeoffset>
					<enabled>TRUE</enabled>
					<masterclipid>Stråling.wav1</masterclipid>
					<logginginfo>
						<scene/>
						<shottake/>
						<lognote/>
						<good>FALSE</good>
					</logginginfo>
					<labels>
						<label2/>
					</labels>
					<comments>
						<mastercomment1/>
						<mastercomment2/>
						<mastercomment3/>
						<mastercomment4/>
					</comments>
					<file id="Stråling"/>
					<filter>
						<effect>
							<name>Audio Levels</name>
							<effectid>audiolevels</effectid>
							<effectcategory>audiolevels</effectcategory>
							<effecttype>audiolevels</effecttype>
							<mediatype>audio</mediatype>
							<parameter>
								<name>Level</name>
								<parameterid>level</parameterid>
								<valuemin>0</valuemin>
								<valuemax>3.98109</valuemax>
								<value>0.141254</value>
							</parameter>
						</effect>
					</filter>
					<filter>
						<effect>
							<name>Audio Pan</name>
							<effectid>audiopan</effectid>
							<effectcategory>audiopan</effectcategory>
							<effecttype>audiopan</effecttype>
							<mediatype>audio</mediatype>
							<parameter>
								<name>Pan</name>
								<parameterid>pan</parameterid>
								<valuemin>-1</valuemin>
								<valuemax>1</valuemax>
								<value>1</value>
							</parameter>
						</effect>
					</filter>
					<sourcetrack>
						<mediatype>audio</mediatype>
						<trackindex>2</trackindex>
					</sourcetrack>
					<link>
						<linkclipref>Stråling.wav7</linkclipref>
						<mediatype>audio</mediatype>
						<trackindex>7</trackindex>
						<clipindex>3</clipindex>
						<groupindex>1</groupindex>
					</link>
					<link>
						<linkclipref>Stråling.wav8</linkclipref>
						<mediatype>audio</mediatype>
						<trackindex>8</trackindex>
						<clipindex>3</clipindex>
						<groupindex>1</groupindex>
					</link>
				</clipitem>
				<transitionitem id="628324656 ">
					<rate>
						<ntsc>FALSE</ntsc>
						<timebase>25</timebase>
					</rate>
					<start>1072</start>
					<end>1074</end>
					<alignment>end-black</alignment>
					<effect>
						<name>Cross Fade (+3dB) Copy</name>
						<effecttype>transition</effecttype>
						<mediatype>audio</mediatype>
					</effect>
				</transitionitem>
				<transitionitem id="628324180 ">
					<rate>
						<ntsc>FALSE</ntsc>
						<timebase>25</timebase>
					</rate>
					<start>13877</start>
					<end>13883</end>
					<alignment>start-black</alignment>
					<effect>
						<name>Cross Fade (+3dB) Copy</name>
						<effecttype>transition</effecttype>
						<mediatype>audio</mediatype>
					</effect>
				</transitionitem>
				<clipitem id="Fin Fredag Vignett - NY.wav8">
					<name>Fin Fredag Vignett - NY.wav</name>
					<duration>1590</duration>
					<rate>
						<ntsc>FALSE</ntsc>
						<timebase>25</timebase>
					</rate>
					<in>1448</in>
					<out>1549</out>
					<start>-1</start>
					<end>-1</end>
					<subframeoffset>0</subframeoffset>
					<enabled>FALSE</enabled>
					<masterclipid>Fin Fredag Vignett - NY.wav1</masterclipid>
					<logginginfo>
						<scene/>
						<shottake/>
						<lognote/>
						<good>FALSE</good>
					</logginginfo>
					<labels>
						<label2/>
					</labels>
					<comments>
						<mastercomment1/>
						<mastercomment2/>
						<mastercomment3/>
						<mastercomment4/>
					</comments>
					<file id="Fin Fredag Vignett - NY"/>
					<filter>
						<effect>
							<name>Audio Levels</name>
							<effectid>audiolevels</effectid>
							<effectcategory>audiolevels</effectcategory>
							<effecttype>audiolevels</effecttype>
							<mediatype>audio</mediatype>
							<parameter>
								<name>Level</name>
								<parameterid>level</parameterid>
								<valuemin>0</valuemin>
								<valuemax>3.98109</valuemax>
								<value>0.281838</value>
							</parameter>
						</effect>
					</filter>
					<filter>
						<effect>
							<name>Audio Pan</name>
							<effectid>audiopan</effectid>
							<effectcategory>audiopan</effectcategory>
							<effecttype>audiopan</effecttype>
							<mediatype>audio</mediatype>
							<parameter>
								<name>Pan</name>
								<parameterid>pan</parameterid>
								<valuemin>-1</valuemin>
								<valuemax>1</valuemax>
								<value>1</value>
							</parameter>
						</effect>
					</filter>
					<sourcetrack>
						<mediatype>audio</mediatype>
						<trackindex>2</trackindex>
					</sourcetrack>
					<link>
						<linkclipref>Fin Fredag Vignett - NY.wav7</linkclipref>
						<mediatype>audio</mediatype>
						<trackindex>7</trackindex>
						<clipindex>6</clipindex>
						<groupindex>1</groupindex>
					</link>
					<link>
						<linkclipref>Fin Fredag Vignett - NY.wav8</linkclipref>
						<mediatype>audio</mediatype>
						<trackindex>8</trackindex>
						<clipindex>6</clipindex>
						<groupindex>1</groupindex>
					</link>
				</clipitem>
				<transitionitem id="628322208 ">
					<rate>
						<ntsc>FALSE</ntsc>
						<timebase>25</timebase>
					</rate>
					<start>13976</start>
					<end>13978</end>
					<alignment>end-black</alignment>
					<effect>
						<name>Cross Fade (+3dB) Copy</name>
						<effecttype>transition</effecttype>
						<mediatype>audio</mediatype>
					</effect>
				</transitionitem>
				<transitionitem id="628324248 ">
					<rate>
						<ntsc>FALSE</ntsc>
						<timebase>25</timebase>
					</rate>
					<start>24637</start>
					<end>24662</end>
					<alignment>start-black</alignment>
					<effect>
						<name>Cross Fade (+3dB) Copy</name>
						<effecttype>transition</effecttype>
						<mediatype>audio</mediatype>
					</effect>
				</transitionitem>
				<clipitem id="SAS004803.wav2">
					<name>SAS004803.wav</name>
					<duration>3750</duration>
					<rate>
						<ntsc>FALSE</ntsc>
						<timebase>25</timebase>
					</rate>
					<in>17</in>
					<out>602</out>
					<start>-1</start>
					<end>25222</end>
					<subframeoffset>0</subframeoffset>
					<masterclipid>SAS004803.wav1</masterclipid>
					<logginginfo>
						<scene/>
						<shottake/>
						<lognote/>
						<good>FALSE</good>
					</logginginfo>
					<labels>
						<label2/>
					</labels>
					<comments>
						<mastercomment1/>
						<mastercomment2/>
						<mastercomment3/>
						<mastercomment4/>
					</comments>
					<file id="SAS004803 "/>
					<filter>
						<effect>
							<name>Audio Levels</name>
							<effectid>audiolevels</effectid>
							<effectcategory>audiolevels</effectcategory>
							<effecttype>audiolevels</effecttype>
							<mediatype>audio</mediatype>
							<parameter>
								<name>Level</name>
								<parameterid>level</parameterid>
								<valuemin>0</valuemin>
								<valuemax>3.98109</valuemax>
								<keyframe>
									<when>120.429</when>
									<value>0.199526</value>
								</keyframe>
								<keyframe>
									<when>130.143</when>
									<value>0.158489</value>
								</keyframe>
								<keyframe>
									<when>593.714</when>
									<value>0.158489</value>
								</keyframe>
								<keyframe>
									<when>600.571</when>
									<value>0.112202</value>
								</keyframe>
								<interpolation>
									<name>FCPCurve</name>
								</interpolation>
								<value>0.199526</value>
							</parameter>
						</effect>
					</filter>
					<filter>
						<effect>
							<name>Audio Pan</name>
							<effectid>audiopan</effectid>
							<effectcategory>audiopan</effectcategory>
							<effecttype>audiopan</effecttype>
							<mediatype>audio</mediatype>
							<parameter>
								<name>Pan</name>
								<parameterid>pan</parameterid>
								<valuemin>-1</valuemin>
								<valuemax>1</valuemax>
								<value>1</value>
							</parameter>
						</effect>
					</filter>
					<sourcetrack>
						<mediatype>audio</mediatype>
						<trackindex>2</trackindex>
					</sourcetrack>
					<link>
						<linkclipref>SAS004803.wav</linkclipref>
						<mediatype>audio</mediatype>
						<trackindex>7</trackindex>
						<clipindex>9</clipindex>
						<groupindex>1</groupindex>
					</link>
					<link>
						<linkclipref>SAS004803.wav2</linkclipref>
						<mediatype>audio</mediatype>
						<trackindex>8</trackindex>
						<clipindex>9</clipindex>
						<groupindex>1</groupindex>
					</link>
				</clipitem>
				<clipitem id="SAS004803.wav4">
					<name>SAS004803.wav</name>
					<duration>3750</duration>
					<rate>
						<ntsc>FALSE</ntsc>
						<timebase>25</timebase>
					</rate>
					<in>948</in>
					<out>986</out>
					<start>25222</start>
					<end>-1</end>
					<subframeoffset>0</subframeoffset>
					<masterclipid>SAS004803.wav1</masterclipid>
					<logginginfo>
						<scene/>
						<shottake/>
						<lognote/>
						<good>FALSE</good>
					</logginginfo>
					<labels>
						<label2/>
					</labels>
					<comments>
						<mastercomment1/>
						<mastercomment2/>
						<mastercomment3/>
						<mastercomment4/>
					</comments>
					<file id="SAS004803 "/>
					<filter>
						<effect>
							<name>Audio Levels</name>
							<effectid>audiolevels</effectid>
							<effectcategory>audiolevels</effectcategory>
							<effecttype>audiolevels</effecttype>
							<mediatype>audio</mediatype>
							<parameter>
								<name>Level</name>
								<parameterid>level</parameterid>
								<valuemin>0</valuemin>
								<valuemax>3.98109</valuemax>
								<value>0.112202</value>
							</parameter>
						</effect>
					</filter>
					<filter>
						<effect>
							<name>Audio Pan</name>
							<effectid>audiopan</effectid>
							<effectcategory>audiopan</effectcategory>
							<effecttype>audiopan</effecttype>
							<mediatype>audio</mediatype>
							<parameter>
								<name>Pan</name>
								<parameterid>pan</parameterid>
								<valuemin>-1</valuemin>
								<valuemax>1</valuemax>
								<value>1</value>
							</parameter>
						</effect>
					</filter>
					<sourcetrack>
						<mediatype>audio</mediatype>
						<trackindex>2</trackindex>
					</sourcetrack>
					<link>
						<linkclipref>SAS004803.wav3</linkclipref>
						<mediatype>audio</mediatype>
						<trackindex>7</trackindex>
						<clipindex>10</clipindex>
						<groupindex>1</groupindex>
					</link>
					<link>
						<linkclipref>SAS004803.wav4</linkclipref>
						<mediatype>audio</mediatype>
						<trackindex>8</trackindex>
						<clipindex>10</clipindex>
						<groupindex>1</groupindex>
					</link>
				</clipitem>
				<transitionitem id="628325336 ">
					<rate>
						<ntsc>FALSE</ntsc>
						<timebase>25</timebase>
					</rate>
					<start>25248</start>
					<end>25260</end>
					<alignment>end-black</alignment>
					<effect>
						<name>Cross Fade (+3dB) Copy</name>
						<effecttype>transition</effecttype>
						<mediatype>audio</mediatype>
					</effect>
				</transitionitem>
				<clipitem id="Boing - hoink - plystring.aif26">
					<name>Boing - hoink - plystring.aif</name>
					<duration>256</duration>
					<rate>
						<ntsc>FALSE</ntsc>
						<timebase>25</timebase>
					</rate>
					<in>39</in>
					<out>46</out>
					<start>25845</start>
					<end>25852</end>
					<subframeoffset>0</subframeoffset>
					<masterclipid>Boing - hoink - plystring.aif1</masterclipid>
					<logginginfo>
						<scene/>
						<shottake/>
						<lognote/>
						<good>FALSE</good>
					</logginginfo>
					<labels>
						<label2/>
					</labels>
					<comments>
						<mastercomment1/>
						<mastercomment2/>
						<mastercomment3/>
						<mastercomment4/>
					</comments>
					<file id="Boing - hoink - plystring"/>
					<filter>
						<effect>
							<name>Audio Levels</name>
							<effectid>audiolevels</effectid>
							<effectcategory>audiolevels</effectcategory>
							<effecttype>audiolevels</effecttype>
							<mediatype>audio</mediatype>
							<parameter>
								<name>Level</name>
								<parameterid>level</parameterid>
								<valuemin>0</valuemin>
								<valuemax>3.98109</valuemax>
								<value>0.707946</value>
							</parameter>
						</effect>
					</filter>
					<filter>
						<effect>
							<name>Audio Pan</name>
							<effectid>audiopan</effectid>
							<effectcategory>audiopan</effectcategory>
							<effecttype>audiopan</effecttype>
							<mediatype>audio</mediatype>
							<parameter>
								<name>Pan</name>
								<parameterid>pan</parameterid>
								<valuemin>-1</valuemin>
								<valuemax>1</valuemax>
								<value>1</value>
							</parameter>
						</effect>
					</filter>
					<sourcetrack>
						<mediatype>audio</mediatype>
						<trackindex>2</trackindex>
					</sourcetrack>
					<link>
						<linkclipref>Boing - hoink - plystring.aif25</linkclipref>
						<mediatype>audio</mediatype>
						<trackindex>7</trackindex>
						<clipindex>12</clipindex>
						<groupindex>1</groupindex>
					</link>
					<link>
						<linkclipref>Boing - hoink - plystring.aif26</linkclipref>
						<mediatype>audio</mediatype>
						<trackindex>8</trackindex>
						<clipindex>12</clipindex>
						<groupindex>1</groupindex>
					</link>
				</clipitem>
				<clipitem id="Boing - hoink - plystring.aif28">
					<name>Boing - hoink - plystring.aif</name>
					<duration>256</duration>
					<rate>
						<ntsc>FALSE</ntsc>
						<timebase>25</timebase>
					</rate>
					<in>36</in>
					<out>43</out>
					<start>25854</start>
					<end>25861</end>
					<subframeoffset>0</subframeoffset>
					<masterclipid>Boing - hoink - plystring.aif1</masterclipid>
					<logginginfo>
						<scene/>
						<shottake/>
						<lognote/>
						<good>FALSE</good>
					</logginginfo>
					<labels>
						<label2/>
					</labels>
					<comments>
						<mastercomment1/>
						<mastercomment2/>
						<mastercomment3/>
						<mastercomment4/>
					</comments>
					<file id="Boing - hoink - plystring"/>
					<filter>
						<effect>
							<name>Audio Levels</name>
							<effectid>audiolevels</effectid>
							<effectcategory>audiolevels</effectcategory>
							<effecttype>audiolevels</effecttype>
							<mediatype>audio</mediatype>
							<parameter>
								<name>Level</name>
								<parameterid>level</parameterid>
								<valuemin>0</valuemin>
								<valuemax>3.98109</valuemax>
								<value>0.354813</value>
							</parameter>
						</effect>
					</filter>
					<filter>
						<effect>
							<name>Audio Pan</name>
							<effectid>audiopan</effectid>
							<effectcategory>audiopan</effectcategory>
							<effecttype>audiopan</effecttype>
							<mediatype>audio</mediatype>
							<parameter>
								<name>Pan</name>
								<parameterid>pan</parameterid>
								<valuemin>-1</valuemin>
								<valuemax>1</valuemax>
								<value>1</value>
							</parameter>
						</effect>
					</filter>
					<sourcetrack>
						<mediatype>audio</mediatype>
						<trackindex>2</trackindex>
					</sourcetrack>
					<link>
						<linkclipref>Boing - hoink - plystring.aif27</linkclipref>
						<mediatype>audio</mediatype>
						<trackindex>7</trackindex>
						<clipindex>13</clipindex>
						<groupindex>1</groupindex>
					</link>
					<link>
						<linkclipref>Boing - hoink - plystring.aif28</linkclipref>
						<mediatype>audio</mediatype>
						<trackindex>8</trackindex>
						<clipindex>13</clipindex>
						<groupindex>1</groupindex>
					</link>
				</clipitem>
				<transitionitem id="628318944 ">
					<rate>
						<ntsc>FALSE</ntsc>
						<timebase>25</timebase>
					</rate>
					<start>25889</start>
					<end>25939</end>
					<alignment>start-black</alignment>
					<effect>
						<name>Cross Fade (+3dB) Copy</name>
						<effecttype>transition</effecttype>
						<mediatype>audio</mediatype>
					</effect>
				</transitionitem>
				<clipitem id="SCD087129.wav2">
					<name>SCD087129.wav</name>
					<duration>4797</duration>
					<rate>
						<ntsc>FALSE</ntsc>
						<timebase>25</timebase>
					</rate>
					<in>1034</in>
					<out>2497</out>
					<start>-1</start>
					<end>-1</end>
					<subframeoffset>0</subframeoffset>
					<masterclipid>SCD087129.wav1</masterclipid>
					<logginginfo>
						<scene/>
						<shottake/>
						<lognote/>
						<good>FALSE</good>
					</logginginfo>
					<labels>
						<label2/>
					</labels>
					<comments>
						<mastercomment1/>
						<mastercomment2/>
						<mastercomment3/>
						<mastercomment4/>
					</comments>
					<file id="SCD087129 "/>
					<filter>
						<effect>
							<name>Audio Levels</name>
							<effectid>audiolevels</effectid>
							<effectcategory>audiolevels</effectcategory>
							<effecttype>audiolevels</effecttype>
							<mediatype>audio</mediatype>
							<parameter>
								<name>Level</name>
								<parameterid>level</parameterid>
								<valuemin>0</valuemin>
								<valuemax>3.98109</valuemax>
								<keyframe>
									<when>2347.71</when>
									<value>0.199526</value>
								</keyframe>
								<keyframe>
									<when>2366</when>
									<value>0.141254</value>
								</keyframe>
								<keyframe>
									<when>2406</when>
									<value>0.141254</value>
								</keyframe>
								<keyframe>
									<when>2443.14</when>
									<value>0.0630957</value>
								</keyframe>
								<interpolation>
									<name>FCPCurve</name>
								</interpolation>
								<value>0.199526</value>
							</parameter>
						</effect>
					</filter>
					<filter>
						<effect>
							<name>Audio Pan</name>
							<effectid>audiopan</effectid>
							<effectcategory>audiopan</effectcategory>
							<effecttype>audiopan</effecttype>
							<mediatype>audio</mediatype>
							<parameter>
								<name>Pan</name>
								<parameterid>pan</parameterid>
								<valuemin>-1</valuemin>
								<valuemax>1</valuemax>
								<value>1</value>
							</parameter>
						</effect>
					</filter>
					<sourcetrack>
						<mediatype>audio</mediatype>
						<trackindex>2</trackindex>
					</sourcetrack>
					<link>
						<linkclipref>SCD087129.wav</linkclipref>
						<mediatype>audio</mediatype>
						<trackindex>7</trackindex>
						<clipindex>15</clipindex>
						<groupindex>1</groupindex>
					</link>
					<link>
						<linkclipref>SCD087129.wav2</linkclipref>
						<mediatype>audio</mediatype>
						<trackindex>8</trackindex>
						<clipindex>15</clipindex>
						<groupindex>1</groupindex>
					</link>
				</clipitem>
				<transitionitem id="628320100 ">
					<rate>
						<ntsc>FALSE</ntsc>
						<timebase>25</timebase>
					</rate>
					<start>27302</start>
					<end>27352</end>
					<alignment>end-black</alignment>
					<effect>
						<name>Cross Fade (+3dB) Copy</name>
						<effecttype>transition</effecttype>
						<mediatype>audio</mediatype>
					</effect>
				</transitionitem>
				<transitionitem id="628320304 ">
					<rate>
						<ntsc>FALSE</ntsc>
						<timebase>25</timebase>
					</rate>
					<start>36125</start>
					<end>36127</end>
					<alignment>start-black</alignment>
					<effect>
						<name>Cross Fade (+3dB) Copy</name>
						<effecttype>transition</effecttype>
						<mediatype>audio</mediatype>
					</effect>
				</transitionitem>
				<clipitem id="Fin Fredag UL - NY.wav2">
					<name>Fin Fredag UL - NY.wav</name>
					<duration>1089</duration>
					<rate>
						<ntsc>FALSE</ntsc>
						<timebase>25</timebase>
					</rate>
					<in>0</in>
					<out>259</out>
					<start>-1</start>
					<end>-1</end>
					<subframeoffset>0</subframeoffset>
					<masterclipid>Fin Fredag UL - NY.wav1</masterclipid>
					<logginginfo>
						<scene/>
						<shottake/>
						<lognote/>
						<good>FALSE</good>
					</logginginfo>
					<labels>
						<label2/>
					</labels>
					<comments>
						<mastercomment1/>
						<mastercomment2/>
						<mastercomment3/>
						<mastercomment4/>
					</comments>
					<file id="Fin Fredag UL - NY"/>
					<filter>
						<effect>
							<name>Audio Levels</name>
							<effectid>audiolevels</effectid>
							<effectcategory>audiolevels</effectcategory>
							<effecttype>audiolevels</effecttype>
							<mediatype>audio</mediatype>
							<parameter>
								<name>Level</name>
								<parameterid>level</parameterid>
								<valuemin>0</valuemin>
								<valuemax>3.98109</valuemax>
								<keyframe>
									<when>83.4643</when>
									<value>0.501187</value>
								</keyframe>
								<keyframe>
									<when>120.107</when>
									<value>0.112202</value>
								</keyframe>
								<keyframe>
									<when>168.286</when>
									<value>0.112202</value>
								</keyframe>
								<keyframe>
									<when>244.286</when>
									<value>0.0630957</value>
								</keyframe>
								<interpolation>
									<name>FCPCurve</name>
								</interpolation>
								<value>0.501187</value>
							</parameter>
						</effect>
					</filter>
					<filter>
						<effect>
							<name>Audio Pan</name>
							<effectid>audiopan</effectid>
							<effectcategory>audiopan</effectcategory>
							<effecttype>audiopan</effecttype>
							<mediatype>audio</mediatype>
							<parameter>
								<name>Pan</name>
								<parameterid>pan</parameterid>
								<valuemin>-1</valuemin>
								<valuemax>1</valuemax>
								<value>1</value>
							</parameter>
						</effect>
					</filter>
					<sourcetrack>
						<mediatype>audio</mediatype>
						<trackindex>2</trackindex>
					</sourcetrack>
					<link>
						<linkclipref>Fin Fredag UL - NY.wav</linkclipref>
						<mediatype>audio</mediatype>
						<trackindex>7</trackindex>
						<clipindex>21</clipindex>
						<groupindex>1</groupindex>
					</link>
					<link>
						<linkclipref>Fin Fredag UL - NY.wav2</linkclipref>
						<mediatype>audio</mediatype>
						<trackindex>8</trackindex>
						<clipindex>18</clipindex>
						<groupindex>1</groupindex>
					</link>
				</clipitem>
				<transitionitem id="628320916 ">
					<rate>
						<ntsc>FALSE</ntsc>
						<timebase>25</timebase>
					</rate>
					<start>36334</start>
					<end>36384</end>
					<alignment>end-black</alignment>
					<effect>
						<name>Cross Fade (+3dB) Copy</name>
						<effecttype>transition</effecttype>
						<mediatype>audio</mediatype>
					</effect>
				</transitionitem>
				<clipitem id="AUXMP_ISCD020302.mp3 6">
					<name>AUXMP_ISCD020302.mp3</name>
					<duration>3908</duration>
					<rate>
						<ntsc>FALSE</ntsc>
						<timebase>25</timebase>
					</rate>
					<in>279</in>
					<out>1399</out>
					<start>40272</start>
					<end>-1</end>
					<masterclipid>AUXMP_ISCD020302.mp3 1</masterclipid>
					<logginginfo>
						<scene/>
						<shottake/>
						<lognote/>
						<good>FALSE</good>
					</logginginfo>
					<labels>
						<label2/>
					</labels>
					<comments>
						<mastercomment1/>
						<mastercomment2/>
						<mastercomment3/>
						<mastercomment4/>
					</comments>
					<file id="AUXMP_ISCD020302 "/>
					<filter>
						<effect>
							<name>Audio Levels</name>
							<effectid>audiolevels</effectid>
							<effectcategory>audiolevels</effectcategory>
							<effecttype>audiolevels</effecttype>
							<mediatype>audio</mediatype>
							<parameter>
								<name>Level</name>
								<parameterid>level</parameterid>
								<valuemin>0</valuemin>
								<valuemax>3.98109</valuemax>
								<keyframe>
									<when>901.857</when>
									<value>0.158489</value>
								</keyframe>
								<keyframe>
									<when>928.143</when>
									<value>0.0630957</value>
								</keyframe>
								<keyframe>
									<when>1027.71</when>
									<value>0.0630957</value>
								</keyframe>
								<keyframe>
									<when>1316.71</when>
									<value>0.0630957</value>
								</keyframe>
								<keyframe>
									<when>1547</when>
									<value>0.0251189</value>
								</keyframe>
								<interpolation>
									<name>FCPCurve</name>
								</interpolation>
								<value>0.320464</value>
							</parameter>
						</effect>
					</filter>
					<filter>
						<effect>
							<name>Audio Pan</name>
							<effectid>audiopan</effectid>
							<effectcategory>audiopan</effectcategory>
							<effecttype>audiopan</effecttype>
							<mediatype>audio</mediatype>
							<parameter>
								<name>Pan</name>
								<parameterid>pan</parameterid>
								<valuemin>-1</valuemin>
								<valuemax>1</valuemax>
								<value>1</value>
							</parameter>
						</effect>
					</filter>
					<sourcetrack>
						<mediatype>audio</mediatype>
						<trackindex>2</trackindex>
					</sourcetrack>
					<link>
						<linkclipref>AUXMP_ISCD020302.mp3 5</linkclipref>
						<mediatype>audio</mediatype>
						<trackindex>7</trackindex>
						<clipindex>23</clipindex>
						<groupindex>1</groupindex>
					</link>
					<link>
						<linkclipref>AUXMP_ISCD020302.mp3 6</linkclipref>
						<mediatype>audio</mediatype>
						<trackindex>8</trackindex>
						<clipindex>20</clipindex>
						<groupindex>1</groupindex>
					</link>
				</clipitem>
				<transitionitem id="628318740 ">
					<rate>
						<ntsc>FALSE</ntsc>
						<timebase>25</timebase>
					</rate>
					<start>41386</start>
					<end>41392</end>
					<alignment>center</alignment>
					<effect>
						<name>Cross Fade (+3dB) Copy</name>
						<effecttype>transition</effecttype>
						<mediatype>audio</mediatype>
					</effect>
				</transitionitem>
				<enabled>TRUE</enabled>
				<locked>FALSE</locked>
				<outputchannelindex>2</outputchannelindex>
			</track>
			<track>
				<clipitem id="Voice åpning.WAV">
					<name>Voice åpning.WAV</name>
					<duration>532</duration>
					<rate>
						<ntsc>FALSE</ntsc>
						<timebase>25</timebase>
					</rate>
					<in>17</in>
					<out>115</out>
					<start>642</start>
					<end>740</end>
					<subframeoffset>0</subframeoffset>
					<enabled>TRUE</enabled>
					<masterclipid>Voice åpning.WAV1</masterclipid>
					<logginginfo>
						<scene/>
						<shottake/>
						<lognote/>
						<good>FALSE</good>
					</logginginfo>
					<labels>
						<label2/>
					</labels>
					<comments>
						<mastercomment1/>
						<mastercomment2/>
						<mastercomment3/>
						<mastercomment4/>
					</comments>
					<file id="Voice åpning">
						<name>Voice åpning.WAV</name>
						<pathurl>file://localhost/Volumes/SuperSAN1/Prosjekter/MSUB20000012%20FIN%20FREDAG/FCP-prosjekter/program%201/Musikk/Voice%20a%CC%8Apning.WAV</pathurl>
						<rate>
							<timebase>25</timebase>
						</rate>
						<duration>532</duration>
						<timecode>
							<rate>
								<timebase>25</timebase>
							</rate>
							<string>00:00:00:00</string>
							<frame>0</frame>
							<displayformat>NDF</displayformat>
							<source>source</source>
						</timecode>
						<media>
							<audio>
								<rate>
									<timebase>48000</timebase>
								</rate>
								<trackcount>2</trackcount>
								<samplecharacteristics>
									<depth>16</depth>
								</samplecharacteristics>
							</audio>
						</media>
					</file>
					<filter>
						<enabled>TRUE</enabled>
						<start>-1</start>
						<end>-1</end>
						<effect>
							<name>3 Band Equalizer - Kristine</name>
							<effecttype>filter</effecttype>
							<mediatype>audio</mediatype>
							<parameter>
								<parameterid>Low Frequency</parameterid>
								<name>Low Frequency</name>
								<valuemin>80</valuemin>
								<valuemax>2000</valuemax>
								<value>80</value>
							</parameter>
							<parameter>
								<parameterid>Low Gain(dB)</parameterid>
								<name>Low Gain(dB)</name>
								<valuemin>-20</valuemin>
								<valuemax>20</valuemax>
								<value>-4</value>
							</parameter>
							<parameter>
								<parameterid>Mid Frequency</parameterid>
								<name>Mid Frequency</name>
								<valuemin>400</valuemin>
								<valuemax>8000</valuemax>
								<value>3602</value>
							</parameter>
							<parameter>
								<parameterid>Mid Gain(dB)</parameterid>
								<name>Mid Gain(dB)</name>
								<valuemin>-20</valuemin>
								<valuemax>20</valuemax>
								<value>3</value>
							</parameter>
							<parameter>
								<parameterid>High Frequency</parameterid>
								<name>High Frequency</name>
								<valuemin>5000</valuemin>
								<valuemax>20000</valuemax>
								<value>10354</value>
							</parameter>
							<parameter>
								<parameterid>High Gain(dB)</parameterid>
								<name>High Gain(dB)</name>
								<valuemin>-20</valuemin>
								<valuemax>20</valuemax>
								<value>0</value>
							</parameter>
						</effect>
					</filter>
					<filter>
						<enabled>TRUE</enabled>
						<start>-1</start>
						<end>-1</end>
						<effect>
							<name>Reverberation</name>
							<effecttype>filter</effecttype>
							<mediatype>audio</mediatype>
							<parameter>
								<parameterid>Effect Mix</parameterid>
								<name>Effect Mix</name>
								<valuemin>0</valuemin>
								<valuemax>100</valuemax>
								<value>10</value>
							</parameter>
							<parameter>
								<parameterid>Effect Level (dB)</parameterid>
								<name>Effect Level (dB)</name>
								<valuemin>-20</valuemin>
								<valuemax>20</valuemax>
								<value>-8</value>
							</parameter>
							<parameter>
								<parameterid>Brightness</parameterid>
								<name>Brightness</name>
								<valuemin>-100</valuemin>
								<valuemax>100</valuemax>
								<value>15</value>
							</parameter>
							<parameter>
								<parameterid>Type</parameterid>
								<name>Type</name>
								<valuemin>1</valuemin>
								<valuemax>16</valuemax>
								<valuelist>
									<valueentry>
										<name>Room (Small)</name>
										<value>1</value>
									</valueentry>
									<valueentry>
										<name>Room (Medium)</name>
										<value>2</value>
									</valueentry>
									<valueentry>
										<name>Room (Large)</name>
										<value>3</value>
									</valueentry>
									<valueentry>
										<name>Ambient Room</name>
										<value>4</value>
									</valueentry>
									<valueentry>
										<name>Hall (Small)</name>
										<value>5</value>
									</valueentry>
									<valueentry>
										<name>Hall (Medium)</name>
										<value>6</value>
									</valueentry>
									<valueentry>
										<name>Hall (Large)</name>
										<value>7</value>
									</valueentry>
									<valueentry>
										<name>Tunnel</name>
										<value>8</value>
									</valueentry>
									<valueentry>
										<name>Thin Plate (Short)</name>
										<value>9</value>
									</valueentry>
									<valueentry>
										<name>Thin Plate (Medium)</name>
										<value>10</value>
									</valueentry>
									<valueentry>
										<name>Thin Plate (Long)</name>
										<value>11</value>
									</valueentry>
									<valueentry>
										<name>Delayed Plate (Short)</name>
										<value>12</value>
									</valueentry>
									<valueentry>
										<name>Delayed Plate (Medium)</name>
										<value>13</value>
									</valueentry>
									<valueentry>
										<name>Delayed Plate (Long)</name>
										<value>14</value>
									</valueentry>
									<valueentry>
										<name>Fat Plate (Medium)</name>
										<value>15</value>
									</valueentry>
									<valueentry>
										<name>Fat Plate (Long)</name>
										<value>16</value>
									</valueentry>
								</valuelist>
								<value>3</value>
							</parameter>
						</effect>
					</filter>
					<filter>
						<effect>
							<name>Audio Levels</name>
							<effectid>audiolevels</effectid>
							<effectcategory>audiolevels</effectcategory>
							<effecttype>audiolevels</effecttype>
							<mediatype>audio</mediatype>
							<parameter>
								<name>Level</name>
								<parameterid>level</parameterid>
								<valuemin>0</valuemin>
								<valuemax>3.98109</valuemax>
								<value>0.891251</value>
							</parameter>
						</effect>
					</filter>
					<filter>
						<effect>
							<name>Audio Pan</name>
							<effectid>audiopan</effectid>
							<effectcategory>audiopan</effectcategory>
							<effecttype>audiopan</effecttype>
							<mediatype>audio</mediatype>
							<parameter>
								<name>Pan</name>
								<parameterid>pan</parameterid>
								<valuemin>-1</valuemin>
								<valuemax>1</valuemax>
								<value>-1</value>
							</parameter>
						</effect>
					</filter>
					<sourcetrack>
						<mediatype>audio</mediatype>
						<trackindex>1</trackindex>
					</sourcetrack>
					<link>
						<linkclipref>Voice åpning.WAV</linkclipref>
						<mediatype>audio</mediatype>
						<trackindex>9</trackindex>
						<clipindex>1</clipindex>
						<groupindex>1</groupindex>
					</link>
					<link>
						<linkclipref>Voice åpning.WAV2</linkclipref>
						<mediatype>audio</mediatype>
						<trackindex>10</trackindex>
						<clipindex>1</clipindex>
						<groupindex>1</groupindex>
					</link>
				</clipitem>
				<clipitem id="Voice åpning.WAV3">
					<name>Voice åpning.WAV</name>
					<duration>532</duration>
					<rate>
						<ntsc>FALSE</ntsc>
						<timebase>25</timebase>
					</rate>
					<in>161</in>
					<out>310</out>
					<start>754</start>
					<end>903</end>
					<subframeoffset>0</subframeoffset>
					<masterclipid>Voice åpning.WAV1</masterclipid>
					<logginginfo>
						<scene/>
						<shottake/>
						<lognote/>
						<good>FALSE</good>
					</logginginfo>
					<labels>
						<label2/>
					</labels>
					<comments>
						<mastercomment1/>
						<mastercomment2/>
						<mastercomment3/>
						<mastercomment4/>
					</comments>
					<file id="Voice åpning"/>
					<filter>
						<start>-1</start>
						<end>-1</end>
						<effect>
							<name>3 Band Equalizer - Kristine</name>
							<effecttype>filter</effecttype>
							<mediatype>audio</mediatype>
							<parameter>
								<parameterid>Low Frequency</parameterid>
								<name>Low Frequency</name>
								<valuemin>80</valuemin>
								<valuemax>2000</valuemax>
								<value>80</value>
							</parameter>
							<parameter>
								<parameterid>Low Gain(dB)</parameterid>
								<name>Low Gain(dB)</name>
								<valuemin>-20</valuemin>
								<valuemax>20</valuemax>
								<value>-4</value>
							</parameter>
							<parameter>
								<parameterid>Mid Frequency</parameterid>
								<name>Mid Frequency</name>
								<valuemin>400</valuemin>
								<valuemax>8000</valuemax>
								<value>3602</value>
							</parameter>
							<parameter>
								<parameterid>Mid Gain(dB)</parameterid>
								<name>Mid Gain(dB)</name>
								<valuemin>-20</valuemin>
								<valuemax>20</valuemax>
								<value>3</value>
							</parameter>
							<parameter>
								<parameterid>High Frequency</parameterid>
								<name>High Frequency</name>
								<valuemin>5000</valuemin>
								<valuemax>20000</valuemax>
								<value>10354</value>
							</parameter>
							<parameter>
								<parameterid>High Gain(dB)</parameterid>
								<name>High Gain(dB)</name>
								<valuemin>-20</valuemin>
								<valuemax>20</valuemax>
								<value>0</value>
							</parameter>
						</effect>
					</filter>
					<filter>
						<effect>
							<name>Audio Levels</name>
							<effectid>audiolevels</effectid>
							<effectcategory>audiolevels</effectcategory>
							<effecttype>audiolevels</effecttype>
							<mediatype>audio</mediatype>
							<parameter>
								<name>Level</name>
								<parameterid>level</parameterid>
								<valuemin>0</valuemin>
								<valuemax>3.98109</valuemax>
								<value>0.794328</value>
							</parameter>
						</effect>
					</filter>
					<filter>
						<effect>
							<name>Audio Pan</name>
							<effectid>audiopan</effectid>
							<effectcategory>audiopan</effectcategory>
							<effecttype>audiopan</effecttype>
							<mediatype>audio</mediatype>
							<parameter>
								<name>Pan</name>
								<parameterid>pan</parameterid>
								<valuemin>-1</valuemin>
								<valuemax>1</valuemax>
								<value>-1</value>
							</parameter>
						</effect>
					</filter>
					<sourcetrack>
						<mediatype>audio</mediatype>
						<trackindex>1</trackindex>
					</sourcetrack>
					<link>
						<linkclipref>Voice åpning.WAV3</linkclipref>
						<mediatype>audio</mediatype>
						<trackindex>9</trackindex>
						<clipindex>2</clipindex>
						<groupindex>1</groupindex>
					</link>
					<link>
						<linkclipref>Voice åpning.WAV4</linkclipref>
						<mediatype>audio</mediatype>
						<trackindex>10</trackindex>
						<clipindex>2</clipindex>
						<groupindex>1</groupindex>
					</link>
				</clipitem>
				<clipitem id="Voice åpning.WAV5">
					<name>Voice åpning.WAV</name>
					<duration>532</duration>
					<rate>
						<ntsc>FALSE</ntsc>
						<timebase>25</timebase>
					</rate>
					<in>395</in>
					<out>509</out>
					<start>904</start>
					<end>1018</end>
					<subframeoffset>0</subframeoffset>
					<enabled>TRUE</enabled>
					<masterclipid>Voice åpning.WAV1</masterclipid>
					<logginginfo>
						<scene/>
						<shottake/>
						<lognote/>
						<good>FALSE</good>
					</logginginfo>
					<labels>
						<label2/>
					</labels>
					<comments>
						<mastercomment1/>
						<mastercomment2/>
						<mastercomment3/>
						<mastercomment4/>
					</comments>
					<file id="Voice åpning"/>
					<filter>
						<start>-1</start>
						<end>-1</end>
						<effect>
							<name>3 Band Equalizer - Kristine</name>
							<effecttype>filter</effecttype>
							<mediatype>audio</mediatype>
							<parameter>
								<parameterid>Low Frequency</parameterid>
								<name>Low Frequency</name>
								<valuemin>80</valuemin>
								<valuemax>2000</valuemax>
								<value>80</value>
							</parameter>
							<parameter>
								<parameterid>Low Gain(dB)</parameterid>
								<name>Low Gain(dB)</name>
								<valuemin>-20</valuemin>
								<valuemax>20</valuemax>
								<value>-4</value>
							</parameter>
							<parameter>
								<parameterid>Mid Frequency</parameterid>
								<name>Mid Frequency</name>
								<valuemin>400</valuemin>
								<valuemax>8000</valuemax>
								<value>3602</value>
							</parameter>
							<parameter>
								<parameterid>Mid Gain(dB)</parameterid>
								<name>Mid Gain(dB)</name>
								<valuemin>-20</valuemin>
								<valuemax>20</valuemax>
								<value>3</value>
							</parameter>
							<parameter>
								<parameterid>High Frequency</parameterid>
								<name>High Frequency</name>
								<valuemin>5000</valuemin>
								<valuemax>20000</valuemax>
								<value>10354</value>
							</parameter>
							<parameter>
								<parameterid>High Gain(dB)</parameterid>
								<name>High Gain(dB)</name>
								<valuemin>-20</valuemin>
								<valuemax>20</valuemax>
								<value>0</value>
							</parameter>
						</effect>
					</filter>
					<filter>
						<effect>
							<name>Audio Levels</name>
							<effectid>audiolevels</effectid>
							<effectcategory>audiolevels</effectcategory>
							<effecttype>audiolevels</effecttype>
							<mediatype>audio</mediatype>
							<parameter>
								<name>Level</name>
								<parameterid>level</parameterid>
								<valuemin>0</valuemin>
								<valuemax>3.98109</valuemax>
								<value>0.794328</value>
							</parameter>
						</effect>
					</filter>
					<filter>
						<effect>
							<name>Audio Pan</name>
							<effectid>audiopan</effectid>
							<effectcategory>audiopan</effectcategory>
							<effecttype>audiopan</effecttype>
							<mediatype>audio</mediatype>
							<parameter>
								<name>Pan</name>
								<parameterid>pan</parameterid>
								<valuemin>-1</valuemin>
								<valuemax>1</valuemax>
								<value>-1</value>
							</parameter>
						</effect>
					</filter>
					<sourcetrack>
						<mediatype>audio</mediatype>
						<trackindex>1</trackindex>
					</sourcetrack>
					<link>
						<linkclipref>Voice åpning.WAV5</linkclipref>
						<mediatype>audio</mediatype>
						<trackindex>9</trackindex>
						<clipindex>3</clipindex>
						<groupindex>1</groupindex>
					</link>
					<link>
						<linkclipref>Voice åpning.WAV6</linkclipref>
						<mediatype>audio</mediatype>
						<trackindex>10</trackindex>
						<clipindex>3</clipindex>
						<groupindex>1</groupindex>
					</link>
				</clipitem>
				<transitionitem id="628196600 ">
					<rate>
						<ntsc>FALSE</ntsc>
						<timebase>25</timebase>
					</rate>
					<start>9253</start>
					<end>9259</end>
					<alignment>start-black</alignment>
					<effect>
						<name>Cross Fade (+3dB) Copy</name>
						<effecttype>transition</effecttype>
						<mediatype>audio</mediatype>
					</effect>
				</transitionitem>
				<clipitem id="Stråling.wav9">
					<name>Stråling.wav</name>
					<duration>618</duration>
					<rate>
						<ntsc>FALSE</ntsc>
						<timebase>25</timebase>
					</rate>
					<in>30</in>
					<out>45</out>
					<start>-1</start>
					<end>-1</end>
					<subframeoffset>0</subframeoffset>
					<enabled>TRUE</enabled>
					<masterclipid>Stråling.wav1</masterclipid>
					<logginginfo>
						<scene/>
						<shottake/>
						<lognote/>
						<good>FALSE</good>
					</logginginfo>
					<labels>
						<label2/>
					</labels>
					<comments>
						<mastercomment1/>
						<mastercomment2/>
						<mastercomment3/>
						<mastercomment4/>
					</comments>
					<file id="Stråling"/>
					<filter>
						<effect>
							<name>Audio Levels</name>
							<effectid>audiolevels</effectid>
							<effectcategory>audiolevels</effectcategory>
							<effecttype>audiolevels</effecttype>
							<mediatype>audio</mediatype>
							<parameter>
								<name>Level</name>
								<parameterid>level</parameterid>
								<valuemin>0</valuemin>
								<valuemax>3.98109</valuemax>
								<value>0.251189</value>
							</parameter>
						</effect>
					</filter>
					<filter>
						<effect>
							<name>Audio Pan</name>
							<effectid>audiopan</effectid>
							<effectcategory>audiopan</effectcategory>
							<effecttype>audiopan</effecttype>
							<mediatype>audio</mediatype>
							<parameter>
								<name>Pan</name>
								<parameterid>pan</parameterid>
								<valuemin>-1</valuemin>
								<valuemax>1</valuemax>
								<value>-1</value>
							</parameter>
						</effect>
					</filter>
					<sourcetrack>
						<mediatype>audio</mediatype>
						<trackindex>1</trackindex>
					</sourcetrack>
					<link>
						<linkclipref>Stråling.wav9</linkclipref>
						<mediatype>audio</mediatype>
						<trackindex>9</trackindex>
						<clipindex>5</clipindex>
						<groupindex>1</groupindex>
					</link>
					<link>
						<linkclipref>Stråling.wav10</linkclipref>
						<mediatype>audio</mediatype>
						<trackindex>10</trackindex>
						<clipindex>5</clipindex>
						<groupindex>1</groupindex>
					</link>
				</clipitem>
				<transitionitem id="628195852 ">
					<rate>
						<ntsc>FALSE</ntsc>
						<timebase>25</timebase>
					</rate>
					<start>9266</start>
					<end>9268</end>
					<alignment>end-black</alignment>
					<effect>
						<name>Cross Fade (+3dB) Copy</name>
						<effecttype>transition</effecttype>
						<mediatype>audio</mediatype>
					</effect>
				</transitionitem>
				<clipitem id="Pop-corn wipe3">
					<name>Pop-corn wipe</name>
					<duration>105</duration>
					<rate>
						<ntsc>FALSE</ntsc>
						<timebase>25</timebase>
					</rate>
					<in>0</in>
					<out>105</out>
					<start>13879</start>
					<end>-1</end>
					<masterclipid>Pop-corn wipe1</masterclipid>
					<logginginfo>
						<scene/>
						<shottake/>
						<lognote/>
						<good>FALSE</good>
					</logginginfo>
					<labels>
						<label2/>
					</labels>
					<comments>
						<mastercomment1/>
						<mastercomment2/>
						<mastercomment3/>
						<mastercomment4/>
					</comments>
					<file id="Pop-corn wipe2"/>
					<filter>
						<effect>
							<name>Audio Levels</name>
							<effectid>audiolevels</effectid>
							<effectcategory>audiolevels</effectcategory>
							<effecttype>audiolevels</effecttype>
							<mediatype>audio</mediatype>
							<parameter>
								<name>Level</name>
								<parameterid>level</parameterid>
								<valuemin>0</valuemin>
								<valuemax>3.98109</valuemax>
								<keyframe>
									<when>73.125</when>
									<value>0.251189</value>
								</keyframe>
								<keyframe>
									<when>86.8125</when>
									<value>0.158489</value>
								</keyframe>
								<interpolation>
									<name>FCPCurve</name>
								</interpolation>
								<value>0.354813</value>
							</parameter>
						</effect>
					</filter>
					<filter>
						<effect>
							<name>Audio Pan</name>
							<effectid>audiopan</effectid>
							<effectcategory>audiopan</effectcategory>
							<effecttype>audiopan</effecttype>
							<mediatype>audio</mediatype>
							<parameter>
								<name>Pan</name>
								<parameterid>pan</parameterid>
								<valuemin>-1</valuemin>
								<valuemax>1</valuemax>
								<value>-1</value>
							</parameter>
						</effect>
					</filter>
					<sourcetrack>
						<mediatype>audio</mediatype>
						<trackindex>1</trackindex>
					</sourcetrack>
					<link>
						<linkclipref>Pop-corn wipe</linkclipref>
						<mediatype>video</mediatype>
						<trackindex>5</trackindex>
						<clipindex>8</clipindex>
					</link>
					<link>
						<linkclipref>Pop-corn wipe3</linkclipref>
						<mediatype>audio</mediatype>
						<trackindex>9</trackindex>
						<clipindex>7</clipindex>
					</link>
					<link>
						<linkclipref>Pop-corn wipe4</linkclipref>
						<mediatype>audio</mediatype>
						<trackindex>10</trackindex>
						<clipindex>7</clipindex>
					</link>
				</clipitem>
				<transitionitem id="17">
					<rate>
						<ntsc>FALSE</ntsc>
						<timebase>25</timebase>
					</rate>
					<start>13968</start>
					<end>13984</end>
					<alignment>end-black</alignment>
					<effect>
						<name>Cross Fade (+3dB) Copy</name>
						<effecttype>transition</effecttype>
						<mediatype>audio</mediatype>
					</effect>
				</transitionitem>
				<transitionitem id="18">
					<rate>
						<ntsc>FALSE</ntsc>
						<timebase>25</timebase>
					</rate>
					<start>22925</start>
					<end>22931</end>
					<alignment>start-black</alignment>
					<effect>
						<name>Cross Fade (+3dB) Copy</name>
						<effecttype>transition</effecttype>
						<mediatype>audio</mediatype>
					</effect>
				</transitionitem>
				<clipitem id="SCD086417.wav">
					<name>SCD086417.wav</name>
					<duration>3494</duration>
					<rate>
						<ntsc>FALSE</ntsc>
						<timebase>25</timebase>
					</rate>
					<in>669</in>
					<out>794</out>
					<start>-1</start>
					<end>23050</end>
					<subframeoffset>0</subframeoffset>
					<masterclipid>SCD086417.wav1</masterclipid>
					<logginginfo>
						<scene/>
						<shottake/>
						<lognote/>
						<good>FALSE</good>
					</logginginfo>
					<labels>
						<label2/>
					</labels>
					<comments>
						<mastercomment1/>
						<mastercomment2/>
						<mastercomment3/>
						<mastercomment4/>
					</comments>
					<file id="SCD086417 ">
						<name>SCD086417.wav</name>
						<pathurl>file://localhost/Volumes/SuperSAN1/Prosjekter/MSUB20000012%20FIN%20FREDAG/MUSIKK/Auxmp%20-%20SonoTON/auxmp14767_347/SCD086417.wav</pathurl>
						<rate>
							<timebase>25</timebase>
						</rate>
						<duration>3494</duration>
						<timecode>
							<rate>
								<timebase>25</timebase>
							</rate>
							<string>00:19:45:11</string>
							<frame>29636</frame>
							<displayformat>NDF</displayformat>
							<source>source</source>
						</timecode>
						<media>
							<audio>
								<rate>
									<timebase>48000</timebase>
								</rate>
								<trackcount>2</trackcount>
								<samplecharacteristics>
									<depth>24</depth>
								</samplecharacteristics>
							</audio>
						</media>
					</file>
					<filter>
						<effect>
							<name>Audio Levels</name>
							<effectid>audiolevels</effectid>
							<effectcategory>audiolevels</effectcategory>
							<effecttype>audiolevels</effecttype>
							<mediatype>audio</mediatype>
							<parameter>
								<name>Level</name>
								<parameterid>level</parameterid>
								<valuemin>0</valuemin>
								<valuemax>3.98109</valuemax>
								<value>0.251189</value>
							</parameter>
						</effect>
					</filter>
					<filter>
						<effect>
							<name>Audio Pan</name>
							<effectid>audiopan</effectid>
							<effectcategory>audiopan</effectcategory>
							<effecttype>audiopan</effecttype>
							<mediatype>audio</mediatype>
							<parameter>
								<name>Pan</name>
								<parameterid>pan</parameterid>
								<valuemin>-1</valuemin>
								<valuemax>1</valuemax>
								<value>-1</value>
							</parameter>
						</effect>
					</filter>
					<sourcetrack>
						<mediatype>audio</mediatype>
						<trackindex>1</trackindex>
					</sourcetrack>
					<link>
						<linkclipref>SCD086417.wav</linkclipref>
						<mediatype>audio</mediatype>
						<trackindex>9</trackindex>
						<clipindex>10</clipindex>
						<groupindex>1</groupindex>
					</link>
					<link>
						<linkclipref>SCD086417.wav2</linkclipref>
						<mediatype>audio</mediatype>
						<trackindex>10</trackindex>
						<clipindex>10</clipindex>
						<groupindex>1</groupindex>
					</link>
				</clipitem>
				<clipitem id="SCD086417.wav3">
					<name>SCD086417.wav</name>
					<duration>3494</duration>
					<rate>
						<ntsc>FALSE</ntsc>
						<timebase>25</timebase>
					</rate>
					<in>1021</in>
					<out>1068</out>
					<start>23050</start>
					<end>-1</end>
					<subframeoffset>0</subframeoffset>
					<masterclipid>SCD086417.wav1</masterclipid>
					<logginginfo>
						<scene/>
						<shottake/>
						<lognote/>
						<good>FALSE</good>
					</logginginfo>
					<labels>
						<label2/>
					</labels>
					<comments>
						<mastercomment1/>
						<mastercomment2/>
						<mastercomment3/>
						<mastercomment4/>
					</comments>
					<file id="SCD086417 "/>
					<filter>
						<effect>
							<name>Audio Levels</name>
							<effectid>audiolevels</effectid>
							<effectcategory>audiolevels</effectcategory>
							<effecttype>audiolevels</effecttype>
							<mediatype>audio</mediatype>
							<parameter>
								<name>Level</name>
								<parameterid>level</parameterid>
								<valuemin>0</valuemin>
								<valuemax>3.98109</valuemax>
								<value>0.251189</value>
							</parameter>
						</effect>
					</filter>
					<filter>
						<effect>
							<name>Audio Pan</name>
							<effectid>audiopan</effectid>
							<effectcategory>audiopan</effectcategory>
							<effecttype>audiopan</effecttype>
							<mediatype>audio</mediatype>
							<parameter>
								<name>Pan</name>
								<parameterid>pan</parameterid>
								<valuemin>-1</valuemin>
								<valuemax>1</valuemax>
								<value>-1</value>
							</parameter>
						</effect>
					</filter>
					<sourcetrack>
						<mediatype>audio</mediatype>
						<trackindex>1</trackindex>
					</sourcetrack>
					<link>
						<linkclipref>SCD086417.wav3</linkclipref>
						<mediatype>audio</mediatype>
						<trackindex>9</trackindex>
						<clipindex>11</clipindex>
						<groupindex>1</groupindex>
					</link>
					<link>
						<linkclipref>SCD086417.wav4</linkclipref>
						<mediatype>audio</mediatype>
						<trackindex>10</trackindex>
						<clipindex>11</clipindex>
						<groupindex>1</groupindex>
					</link>
				</clipitem>
				<transitionitem id="628216796 ">
					<rate>
						<ntsc>FALSE</ntsc>
						<timebase>25</timebase>
					</rate>
					<start>23072</start>
					<end>23097</end>
					<alignment>end-black</alignment>
					<effect>
						<name>Cross Fade (+3dB) Copy</name>
						<effecttype>transition</effecttype>
						<mediatype>audio</mediatype>
					</effect>
				</transitionitem>
				<transitionitem id="628216456 ">
					<rate>
						<ntsc>FALSE</ntsc>
						<timebase>25</timebase>
					</rate>
					<start>25765</start>
					<end>25777</end>
					<alignment>center</alignment>
					<effect>
						<name>Cross Fade (+3dB) Copy</name>
						<effecttype>transition</effecttype>
						<mediatype>audio</mediatype>
					</effect>
				</transitionitem>
				<clipitem id="SCD074915.wav3">
					<name>SCD074915.wav</name>
					<duration>215</duration>
					<rate>
						<ntsc>FALSE</ntsc>
						<timebase>25</timebase>
					</rate>
					<in>0</in>
					<out>152</out>
					<start>-1</start>
					<end>-1</end>
					<masterclipid>SCD074915.wav1</masterclipid>
					<logginginfo>
						<scene/>
						<shottake/>
						<lognote/>
						<good>FALSE</good>
					</logginginfo>
					<labels>
						<label2/>
					</labels>
					<comments>
						<mastercomment1/>
						<mastercomment2/>
						<mastercomment3/>
						<mastercomment4/>
					</comments>
					<file id="SCD074915 "/>
					<filter>
						<effect>
							<name>Audio Levels</name>
							<effectid>audiolevels</effectid>
							<effectcategory>audiolevels</effectcategory>
							<effecttype>audiolevels</effecttype>
							<mediatype>audio</mediatype>
							<parameter>
								<name>Level</name>
								<parameterid>level</parameterid>
								<valuemin>0</valuemin>
								<valuemax>3.98109</valuemax>
								<keyframe>
									<when>115.679</when>
									<value>0.141254</value>
								</keyframe>
								<keyframe>
									<when>133.036</when>
									<value>0.0630957</value>
								</keyframe>
								<interpolation>
									<name>FCPCurve</name>
								</interpolation>
								<value>0.446684</value>
							</parameter>
						</effect>
					</filter>
					<filter>
						<effect>
							<name>Audio Pan</name>
							<effectid>audiopan</effectid>
							<effectcategory>audiopan</effectcategory>
							<effecttype>audiopan</effecttype>
							<mediatype>audio</mediatype>
							<parameter>
								<name>Pan</name>
								<parameterid>pan</parameterid>
								<valuemin>-1</valuemin>
								<valuemax>1</valuemax>
								<value>-1</value>
							</parameter>
						</effect>
					</filter>
					<sourcetrack>
						<mediatype>audio</mediatype>
						<trackindex>1</trackindex>
					</sourcetrack>
					<link>
						<linkclipref>SCD074915.wav3</linkclipref>
						<mediatype>audio</mediatype>
						<trackindex>9</trackindex>
						<clipindex>14</clipindex>
						<groupindex>1</groupindex>
					</link>
					<link>
						<linkclipref>SCD074915.wav4</linkclipref>
						<mediatype>audio</mediatype>
						<trackindex>10</trackindex>
						<clipindex>14</clipindex>
						<groupindex>1</groupindex>
					</link>
				</clipitem>
				<transitionitem id="628217000 ">
					<rate>
						<ntsc>FALSE</ntsc>
						<timebase>25</timebase>
					</rate>
					<start>25905</start>
					<end>25917</end>
					<alignment>end-black</alignment>
					<effect>
						<name>Cross Fade (+3dB) Copy</name>
						<effecttype>transition</effecttype>
						<mediatype>audio</mediatype>
					</effect>
				</transitionitem>
				<transitionitem id="628217884 ">
					<rate>
						<ntsc>FALSE</ntsc>
						<timebase>25</timebase>
					</rate>
					<start>29262</start>
					<end>29268</end>
					<alignment>center</alignment>
					<effect>
						<name>Cross Fade (+3dB) Copy</name>
						<effecttype>transition</effecttype>
						<mediatype>audio</mediatype>
					</effect>
				</transitionitem>
				<clipitem id="Tooji-konsert-stereo.aif">
					<name>Tooji-konsert-stereo.aif</name>
					<duration>5988</duration>
					<rate>
						<ntsc>FALSE</ntsc>
						<timebase>25</timebase>
					</rate>
					<in>162</in>
					<out>544</out>
					<start>-1</start>
					<end>-1</end>
					<masterclipid>Tooji-konsert-stereo.aif1</masterclipid>
					<logginginfo>
						<scene/>
						<shottake/>
						<lognote/>
						<good>FALSE</good>
					</logginginfo>
					<labels>
						<label2/>
					</labels>
					<comments>
						<mastercomment1/>
						<mastercomment2/>
						<mastercomment3/>
						<mastercomment4/>
					</comments>
					<file id="Tooji-konsert-stereo">
						<name>Tooji-konsert-stereo.aif</name>
						<pathurl>file://localhost/Volumes/SuperSAN1/Prosjekter/MSUB20000012%20FIN%20FREDAG/FCP-prosjekter/program%201/Musikk/Tooji-konsert-stereo.aif</pathurl>
						<rate>
							<timebase>25</timebase>
						</rate>
						<duration>5988</duration>
						<media>
							<audio>
								<rate>
									<timebase>48000</timebase>
								</rate>
								<trackcount>2</trackcount>
								<samplecharacteristics>
									<depth>16</depth>
								</samplecharacteristics>
							</audio>
						</media>
					</file>
					<filter>
						<effect>
							<name>Audio Levels</name>
							<effectid>audiolevels</effectid>
							<effectcategory>audiolevels</effectcategory>
							<effecttype>audiolevels</effecttype>
							<mediatype>audio</mediatype>
							<parameter>
								<name>Level</name>
								<parameterid>level</parameterid>
								<valuemin>0</valuemin>
								<valuemax>3.98109</valuemax>
								<keyframe>
									<when>386.357</when>
									<value>1</value>
								</keyframe>
								<keyframe>
									<when>399.929</when>
									<value>1.25893</value>
								</keyframe>
								<keyframe>
									<when>473.214</when>
									<value>1.25893</value>
								</keyframe>
								<keyframe>
									<when>481.357</when>
									<value>1</value>
								</keyframe>
								<interpolation>
									<name>FCPCurve</name>
								</interpolation>
								<value>1</value>
							</parameter>
						</effect>
					</filter>
					<filter>
						<effect>
							<name>Audio Pan</name>
							<effectid>audiopan</effectid>
							<effectcategory>audiopan</effectcategory>
							<effecttype>audiopan</effecttype>
							<mediatype>audio</mediatype>
							<parameter>
								<name>Pan</name>
								<parameterid>pan</parameterid>
								<valuemin>-1</valuemin>
								<valuemax>1</valuemax>
								<value>-1</value>
							</parameter>
						</effect>
					</filter>
					<sourcetrack>
						<mediatype>audio</mediatype>
						<trackindex>1</trackindex>
					</sourcetrack>
					<link>
						<linkclipref>Tooji-konsert-stereo.aif</linkclipref>
						<mediatype>audio</mediatype>
						<trackindex>9</trackindex>
						<clipindex>17</clipindex>
						<groupindex>1</groupindex>
					</link>
					<link>
						<linkclipref>Tooji-konsert-stereo.aif2</linkclipref>
						<mediatype>audio</mediatype>
						<trackindex>10</trackindex>
						<clipindex>17</clipindex>
						<groupindex>1</groupindex>
					</link>
				</clipitem>
				<transitionitem id="628211968 ">
					<rate>
						<ntsc>FALSE</ntsc>
						<timebase>25</timebase>
					</rate>
					<start>29632</start>
					<end>29644</end>
					<alignment>center</alignment>
					<effect>
						<name>Cross Fade (+3dB) Copy</name>
						<effecttype>transition</effecttype>
						<mediatype>audio</mediatype>
					</effect>
				</transitionitem>
				<clipitem id="Tooji-konsert-stereo.aif3">
					<name>Tooji-konsert-stereo.aif</name>
					<duration>5988</duration>
					<rate>
						<ntsc>FALSE</ntsc>
						<timebase>25</timebase>
					</rate>
					<in>532</in>
					<out>5765</out>
					<start>-1</start>
					<end>-1</end>
					<enabled>TRUE</enabled>
					<masterclipid>Tooji-konsert-stereo.aif1</masterclipid>
					<logginginfo>
						<scene/>
						<shottake/>
						<lognote/>
						<good>FALSE</good>
					</logginginfo>
					<labels>
						<label2/>
					</labels>
					<comments>
						<mastercomment1/>
						<mastercomment2/>
						<mastercomment3/>
						<mastercomment4/>
					</comments>
					<file id="Tooji-konsert-stereo"/>
					<filter>
						<enabled>TRUE</enabled>
						<start>-1</start>
						<end>-1</end>
						<effect>
							<name>Compressor/Limiter</name>
							<effecttype>filter</effecttype>
							<mediatype>audio</mediatype>
							<parameter>
								<parameterid>Threshold(dB)</parameterid>
								<name>Threshold(dB)</name>
								<valuemin>-90</valuemin>
								<valuemax>0</valuemax>
								<value>-19</value>
							</parameter>
							<parameter>
								<parameterid>Ratio</parameterid>
								<name>Ratio</name>
								<valuemin>1</valuemin>
								<valuemax>100</valuemax>
								<value>7</value>
							</parameter>
							<parameter>
								<parameterid>Attack Time</parameterid>
								<name>Attack Time</name>
								<valuemin>1</valuemin>
								<valuemax>100</valuemax>
								<value>10</value>
							</parameter>
							<parameter>
								<parameterid>Release Time</parameterid>
								<name>Release Time</name>
								<valuemin>1</valuemin>
								<valuemax>4000</valuemax>
								<value>100</value>
							</parameter>
							<parameter>
								<parameterid>Preserve Volume</parameterid>
								<name>Preserve Volume</name>
								<value>FALSE</value>
							</parameter>
						</effect>
					</filter>
					<filter>
						<effect>
							<name>Audio Levels</name>
							<effectid>audiolevels</effectid>
							<effectcategory>audiolevels</effectcategory>
							<effecttype>audiolevels</effecttype>
							<mediatype>audio</mediatype>
							<parameter>
								<name>Level</name>
								<parameterid>level</parameterid>
								<valuemin>0</valuemin>
								<valuemax>3.98109</valuemax>
								<value>1.41254</value>
							</parameter>
						</effect>
					</filter>
					<filter>
						<effect>
							<name>Audio Pan</name>
							<effectid>audiopan</effectid>
							<effectcategory>audiopan</effectcategory>
							<effecttype>audiopan</effecttype>
							<mediatype>audio</mediatype>
							<parameter>
								<name>Pan</name>
								<parameterid>pan</parameterid>
								<valuemin>-1</valuemin>
								<valuemax>1</valuemax>
								<value>-1</value>
							</parameter>
						</effect>
					</filter>
					<sourcetrack>
						<mediatype>audio</mediatype>
						<trackindex>1</trackindex>
					</sourcetrack>
					<link>
						<linkclipref>Tooji-konsert-stereo.aif3</linkclipref>
						<mediatype>audio</mediatype>
						<trackindex>9</trackindex>
						<clipindex>19</clipindex>
						<groupindex>1</groupindex>
					</link>
					<link>
						<linkclipref>Tooji-konsert-stereo.aif4</linkclipref>
						<mediatype>audio</mediatype>
						<trackindex>10</trackindex>
						<clipindex>19</clipindex>
						<groupindex>1</groupindex>
					</link>
				</clipitem>
				<transitionitem id="628211764 ">
					<rate>
						<ntsc>FALSE</ntsc>
						<timebase>25</timebase>
					</rate>
					<start>34859</start>
					<end>34865</end>
					<alignment>center</alignment>
					<effect>
						<name>Cross Fade (+3dB) Copy</name>
						<effecttype>transition</effecttype>
						<mediatype>audio</mediatype>
					</effect>
				</transitionitem>
				<clipitem id="AUXMP_ISCD020302.mp3 7">
					<name>AUXMP_ISCD020302.mp3</name>
					<duration>3908</duration>
					<rate>
						<ntsc>FALSE</ntsc>
						<timebase>25</timebase>
					</rate>
					<in>0</in>
					<out>115</out>
					<start>40168</start>
					<end>40283</end>
					<masterclipid>AUXMP_ISCD020302.mp3 1</masterclipid>
					<logginginfo>
						<scene/>
						<shottake/>
						<lognote/>
						<good>FALSE</good>
					</logginginfo>
					<labels>
						<label2/>
					</labels>
					<comments>
						<mastercomment1/>
						<mastercomment2/>
						<mastercomment3/>
						<mastercomment4/>
					</comments>
					<file id="AUXMP_ISCD020302 "/>
					<filter>
						<effect>
							<name>Audio Levels</name>
							<effectid>audiolevels</effectid>
							<effectcategory>audiolevels</effectcategory>
							<effecttype>audiolevels</effecttype>
							<mediatype>audio</mediatype>
							<parameter>
								<name>Level</name>
								<parameterid>level</parameterid>
								<valuemin>0</valuemin>
								<valuemax>3.98109</valuemax>
								<value>0.141254</value>
							</parameter>
						</effect>
					</filter>
					<filter>
						<effect>
							<name>Audio Pan</name>
							<effectid>audiopan</effectid>
							<effectcategory>audiopan</effectcategory>
							<effecttype>audiopan</effecttype>
							<mediatype>audio</mediatype>
							<parameter>
								<name>Pan</name>
								<parameterid>pan</parameterid>
								<valuemin>-1</valuemin>
								<valuemax>1</valuemax>
								<value>-1</value>
							</parameter>
						</effect>
					</filter>
					<sourcetrack>
						<mediatype>audio</mediatype>
						<trackindex>1</trackindex>
					</sourcetrack>
					<link>
						<linkclipref>AUXMP_ISCD020302.mp3 7</linkclipref>
						<mediatype>audio</mediatype>
						<trackindex>9</trackindex>
						<clipindex>21</clipindex>
						<groupindex>1</groupindex>
					</link>
					<link>
						<linkclipref>AUXMP_ISCD020302.mp3 8</linkclipref>
						<mediatype>audio</mediatype>
						<trackindex>10</trackindex>
						<clipindex>21</clipindex>
						<groupindex>1</groupindex>
					</link>
				</clipitem>
				<clipitem id="Voice tante taco.WAV">
					<name>Voice tante taco.WAV</name>
					<duration>908</duration>
					<rate>
						<ntsc>FALSE</ntsc>
						<timebase>25</timebase>
					</rate>
					<in>22</in>
					<out>82</out>
					<start>40903</start>
					<end>40963</end>
					<subframeoffset>0</subframeoffset>
					<masterclipid>Voice tante taco.WAV1</masterclipid>
					<logginginfo>
						<scene/>
						<shottake/>
						<lognote/>
						<good>FALSE</good>
					</logginginfo>
					<labels>
						<label2/>
					</labels>
					<comments>
						<mastercomment1/>
						<mastercomment2/>
						<mastercomment3/>
						<mastercomment4/>
					</comments>
					<file id="Voice tante taco">
						<name>Voice tante taco.WAV</name>
						<pathurl>file://localhost/filutveksling/Fra_Digas/Voice%20tante%20taco.WAV</pathurl>
						<rate>
							<timebase>25</timebase>
						</rate>
						<duration>908</duration>
						<timecode>
							<rate>
								<timebase>25</timebase>
							</rate>
							<string>00:00:00:00</string>
							<frame>0</frame>
							<displayformat>NDF</displayformat>
							<source>source</source>
						</timecode>
						<media>
							<audio>
								<rate>
									<timebase>48000</timebase>
								</rate>
								<trackcount>2</trackcount>
								<samplecharacteristics>
									<depth>16</depth>
								</samplecharacteristics>
							</audio>
						</media>
					</file>
					<filter>
						<start>-1</start>
						<end>-1</end>
						<effect>
							<name>3 Band Equalizer - Kristine</name>
							<effecttype>filter</effecttype>
							<mediatype>audio</mediatype>
							<parameter>
								<parameterid>Low Frequency</parameterid>
								<name>Low Frequency</name>
								<valuemin>80</valuemin>
								<valuemax>2000</valuemax>
								<value>80</value>
							</parameter>
							<parameter>
								<parameterid>Low Gain(dB)</parameterid>
								<name>Low Gain(dB)</name>
								<valuemin>-20</valuemin>
								<valuemax>20</valuemax>
								<value>-4</value>
							</parameter>
							<parameter>
								<parameterid>Mid Frequency</parameterid>
								<name>Mid Frequency</name>
								<valuemin>400</valuemin>
								<valuemax>8000</valuemax>
								<value>3602</value>
							</parameter>
							<parameter>
								<parameterid>Mid Gain(dB)</parameterid>
								<name>Mid Gain(dB)</name>
								<valuemin>-20</valuemin>
								<valuemax>20</valuemax>
								<value>3</value>
							</parameter>
							<parameter>
								<parameterid>High Frequency</parameterid>
								<name>High Frequency</name>
								<valuemin>5000</valuemin>
								<valuemax>20000</valuemax>
								<value>10354</value>
							</parameter>
							<parameter>
								<parameterid>High Gain(dB)</parameterid>
								<name>High Gain(dB)</name>
								<valuemin>-20</valuemin>
								<valuemax>20</valuemax>
								<value>0</value>
							</parameter>
						</effect>
					</filter>
					<filter>
						<effect>
							<name>Audio Levels</name>
							<effectid>audiolevels</effectid>
							<effectcategory>audiolevels</effectcategory>
							<effecttype>audiolevels</effecttype>
							<mediatype>audio</mediatype>
							<parameter>
								<name>Level</name>
								<parameterid>level</parameterid>
								<valuemin>0</valuemin>
								<valuemax>3.98109</valuemax>
								<value>0.891251</value>
							</parameter>
						</effect>
					</filter>
					<filter>
						<effect>
							<name>Audio Pan</name>
							<effectid>audiopan</effectid>
							<effectcategory>audiopan</effectcategory>
							<effecttype>audiopan</effecttype>
							<mediatype>audio</mediatype>
							<parameter>
								<name>Pan</name>
								<parameterid>pan</parameterid>
								<valuemin>-1</valuemin>
								<valuemax>1</valuemax>
								<value>-1</value>
							</parameter>
						</effect>
					</filter>
					<sourcetrack>
						<mediatype>audio</mediatype>
						<trackindex>1</trackindex>
					</sourcetrack>
					<link>
						<linkclipref>Voice tante taco.WAV</linkclipref>
						<mediatype>audio</mediatype>
						<trackindex>9</trackindex>
						<clipindex>22</clipindex>
						<groupindex>1</groupindex>
					</link>
					<link>
						<linkclipref>Voice tante taco.WAV2</linkclipref>
						<mediatype>audio</mediatype>
						<trackindex>10</trackindex>
						<clipindex>22</clipindex>
						<groupindex>1</groupindex>
					</link>
				</clipitem>
				<clipitem id="Voice tante taco.WAV3">
					<name>Voice tante taco.WAV</name>
					<duration>908</duration>
					<rate>
						<ntsc>FALSE</ntsc>
						<timebase>25</timebase>
					</rate>
					<in>102</in>
					<out>134</out>
					<start>40965</start>
					<end>40997</end>
					<subframeoffset>0</subframeoffset>
					<masterclipid>Voice tante taco.WAV1</masterclipid>
					<logginginfo>
						<scene/>
						<shottake/>
						<lognote/>
						<good>FALSE</good>
					</logginginfo>
					<labels>
						<label2/>
					</labels>
					<comments>
						<mastercomment1/>
						<mastercomment2/>
						<mastercomment3/>
						<mastercomment4/>
					</comments>
					<file id="Voice tante taco"/>
					<filter>
						<start>-1</start>
						<end>-1</end>
						<effect>
							<name>3 Band Equalizer - Kristine</name>
							<effecttype>filter</effecttype>
							<mediatype>audio</mediatype>
							<parameter>
								<parameterid>Low Frequency</parameterid>
								<name>Low Frequency</name>
								<valuemin>80</valuemin>
								<valuemax>2000</valuemax>
								<value>80</value>
							</parameter>
							<parameter>
								<parameterid>Low Gain(dB)</parameterid>
								<name>Low Gain(dB)</name>
								<valuemin>-20</valuemin>
								<valuemax>20</valuemax>
								<value>-4</value>
							</parameter>
							<parameter>
								<parameterid>Mid Frequency</parameterid>
								<name>Mid Frequency</name>
								<valuemin>400</valuemin>
								<valuemax>8000</valuemax>
								<value>3602</value>
							</parameter>
							<parameter>
								<parameterid>Mid Gain(dB)</parameterid>
								<name>Mid Gain(dB)</name>
								<valuemin>-20</valuemin>
								<valuemax>20</valuemax>
								<value>3</value>
							</parameter>
							<parameter>
								<parameterid>High Frequency</parameterid>
								<name>High Frequency</name>
								<valuemin>5000</valuemin>
								<valuemax>20000</valuemax>
								<value>10354</value>
							</parameter>
							<parameter>
								<parameterid>High Gain(dB)</parameterid>
								<name>High Gain(dB)</name>
								<valuemin>-20</valuemin>
								<valuemax>20</valuemax>
								<value>0</value>
							</parameter>
						</effect>
					</filter>
					<filter>
						<effect>
							<name>Audio Levels</name>
							<effectid>audiolevels</effectid>
							<effectcategory>audiolevels</effectcategory>
							<effecttype>audiolevels</effecttype>
							<mediatype>audio</mediatype>
							<parameter>
								<name>Level</name>
								<parameterid>level</parameterid>
								<valuemin>0</valuemin>
								<valuemax>3.98109</valuemax>
								<value>0.891251</value>
							</parameter>
						</effect>
					</filter>
					<filter>
						<effect>
							<name>Audio Pan</name>
							<effectid>audiopan</effectid>
							<effectcategory>audiopan</effectcategory>
							<effecttype>audiopan</effecttype>
							<mediatype>audio</mediatype>
							<parameter>
								<name>Pan</name>
								<parameterid>pan</parameterid>
								<valuemin>-1</valuemin>
								<valuemax>1</valuemax>
								<value>-1</value>
							</parameter>
						</effect>
					</filter>
					<sourcetrack>
						<mediatype>audio</mediatype>
						<trackindex>1</trackindex>
					</sourcetrack>
					<link>
						<linkclipref>Voice tante taco.WAV3</linkclipref>
						<mediatype>audio</mediatype>
						<trackindex>9</trackindex>
						<clipindex>23</clipindex>
						<groupindex>1</groupindex>
					</link>
					<link>
						<linkclipref>Voice tante taco.WAV4</linkclipref>
						<mediatype>audio</mediatype>
						<trackindex>10</trackindex>
						<clipindex>23</clipindex>
						<groupindex>1</groupindex>
					</link>
				</clipitem>
				<clipitem id="Voice tante taco.WAV5">
					<name>Voice tante taco.WAV</name>
					<duration>908</duration>
					<rate>
						<ntsc>FALSE</ntsc>
						<timebase>25</timebase>
					</rate>
					<in>198</in>
					<out>388</out>
					<start>41023</start>
					<end>41213</end>
					<subframeoffset>0</subframeoffset>
					<masterclipid>Voice tante taco.WAV1</masterclipid>
					<logginginfo>
						<scene/>
						<shottake/>
						<lognote/>
						<good>FALSE</good>
					</logginginfo>
					<labels>
						<label2/>
					</labels>
					<comments>
						<mastercomment1/>
						<mastercomment2/>
						<mastercomment3/>
						<mastercomment4/>
					</comments>
					<file id="Voice tante taco"/>
					<filter>
						<start>-1</start>
						<end>-1</end>
						<effect>
							<name>3 Band Equalizer - Kristine</name>
							<effecttype>filter</effecttype>
							<mediatype>audio</mediatype>
							<parameter>
								<parameterid>Low Frequency</parameterid>
								<name>Low Frequency</name>
								<valuemin>80</valuemin>
								<valuemax>2000</valuemax>
								<value>80</value>
							</parameter>
							<parameter>
								<parameterid>Low Gain(dB)</parameterid>
								<name>Low Gain(dB)</name>
								<valuemin>-20</valuemin>
								<valuemax>20</valuemax>
								<value>-4</value>
							</parameter>
							<parameter>
								<parameterid>Mid Frequency</parameterid>
								<name>Mid Frequency</name>
								<valuemin>400</valuemin>
								<valuemax>8000</valuemax>
								<value>3602</value>
							</parameter>
							<parameter>
								<parameterid>Mid Gain(dB)</parameterid>
								<name>Mid Gain(dB)</name>
								<valuemin>-20</valuemin>
								<valuemax>20</valuemax>
								<value>3</value>
							</parameter>
							<parameter>
								<parameterid>High Frequency</parameterid>
								<name>High Frequency</name>
								<valuemin>5000</valuemin>
								<valuemax>20000</valuemax>
								<value>10354</value>
							</parameter>
							<parameter>
								<parameterid>High Gain(dB)</parameterid>
								<name>High Gain(dB)</name>
								<valuemin>-20</valuemin>
								<valuemax>20</valuemax>
								<value>0</value>
							</parameter>
						</effect>
					</filter>
					<filter>
						<effect>
							<name>Audio Levels</name>
							<effectid>audiolevels</effectid>
							<effectcategory>audiolevels</effectcategory>
							<effecttype>audiolevels</effecttype>
							<mediatype>audio</mediatype>
							<parameter>
								<name>Level</name>
								<parameterid>level</parameterid>
								<valuemin>0</valuemin>
								<valuemax>3.98109</valuemax>
								<value>1</value>
							</parameter>
						</effect>
					</filter>
					<filter>
						<effect>
							<name>Audio Pan</name>
							<effectid>audiopan</effectid>
							<effectcategory>audiopan</effectcategory>
							<effecttype>audiopan</effecttype>
							<mediatype>audio</mediatype>
							<parameter>
								<name>Pan</name>
								<parameterid>pan</parameterid>
								<valuemin>-1</valuemin>
								<valuemax>1</valuemax>
								<value>-1</value>
							</parameter>
						</effect>
					</filter>
					<sourcetrack>
						<mediatype>audio</mediatype>
						<trackindex>1</trackindex>
					</sourcetrack>
					<link>
						<linkclipref>Voice tante taco.WAV5</linkclipref>
						<mediatype>audio</mediatype>
						<trackindex>9</trackindex>
						<clipindex>24</clipindex>
						<groupindex>1</groupindex>
					</link>
					<link>
						<linkclipref>Voice tante taco.WAV6</linkclipref>
						<mediatype>audio</mediatype>
						<trackindex>10</trackindex>
						<clipindex>24</clipindex>
						<groupindex>1</groupindex>
					</link>
				</clipitem>
				<clipitem id="Voice tante taco.WAV7">
					<name>Voice tante taco.WAV</name>
					<duration>908</duration>
					<rate>
						<ntsc>FALSE</ntsc>
						<timebase>25</timebase>
					</rate>
					<in>443</in>
					<out>530</out>
					<start>41218</start>
					<end>41305</end>
					<subframeoffset>0</subframeoffset>
					<enabled>TRUE</enabled>
					<masterclipid>Voice tante taco.WAV1</masterclipid>
					<logginginfo>
						<scene/>
						<shottake/>
						<lognote/>
						<good>FALSE</good>
					</logginginfo>
					<labels>
						<label2/>
					</labels>
					<comments>
						<mastercomment1/>
						<mastercomment2/>
						<mastercomment3/>
						<mastercomment4/>
					</comments>
					<file id="Voice tante taco"/>
					<filter>
						<enabled>TRUE</enabled>
						<start>-1</start>
						<end>-1</end>
						<effect>
							<name>3 Band Equalizer - Kristine</name>
							<effecttype>filter</effecttype>
							<mediatype>audio</mediatype>
							<parameter>
								<parameterid>Low Frequency</parameterid>
								<name>Low Frequency</name>
								<valuemin>80</valuemin>
								<valuemax>2000</valuemax>
								<value>80</value>
							</parameter>
							<parameter>
								<parameterid>Low Gain(dB)</parameterid>
								<name>Low Gain(dB)</name>
								<valuemin>-20</valuemin>
								<valuemax>20</valuemax>
								<value>-4</value>
							</parameter>
							<parameter>
								<parameterid>Mid Frequency</parameterid>
								<name>Mid Frequency</name>
								<valuemin>400</valuemin>
								<valuemax>8000</valuemax>
								<value>3602</value>
							</parameter>
							<parameter>
								<parameterid>Mid Gain(dB)</parameterid>
								<name>Mid Gain(dB)</name>
								<valuemin>-20</valuemin>
								<valuemax>20</valuemax>
								<value>3</value>
							</parameter>
							<parameter>
								<parameterid>High Frequency</parameterid>
								<name>High Frequency</name>
								<valuemin>5000</valuemin>
								<valuemax>20000</valuemax>
								<value>10354</value>
							</parameter>
							<parameter>
								<parameterid>High Gain(dB)</parameterid>
								<name>High Gain(dB)</name>
								<valuemin>-20</valuemin>
								<valuemax>20</valuemax>
								<value>0</value>
							</parameter>
						</effect>
					</filter>
					<filter>
						<effect>
							<name>Audio Levels</name>
							<effectid>audiolevels</effectid>
							<effectcategory>audiolevels</effectcategory>
							<effecttype>audiolevels</effecttype>
							<mediatype>audio</mediatype>
							<parameter>
								<name>Level</name>
								<parameterid>level</parameterid>
								<valuemin>0</valuemin>
								<valuemax>3.98109</valuemax>
								<value>1</value>
							</parameter>
						</effect>
					</filter>
					<filter>
						<effect>
							<name>Audio Pan</name>
							<effectid>audiopan</effectid>
							<effectcategory>audiopan</effectcategory>
							<effecttype>audiopan</effecttype>
							<mediatype>audio</mediatype>
							<parameter>
								<name>Pan</name>
								<parameterid>pan</parameterid>
								<valuemin>-1</valuemin>
								<valuemax>1</valuemax>
								<value>-1</value>
							</parameter>
						</effect>
					</filter>
					<sourcetrack>
						<mediatype>audio</mediatype>
						<trackindex>1</trackindex>
					</sourcetrack>
					<link>
						<linkclipref>Voice tante taco.WAV7</linkclipref>
						<mediatype>audio</mediatype>
						<trackindex>9</trackindex>
						<clipindex>25</clipindex>
						<groupindex>1</groupindex>
					</link>
					<link>
						<linkclipref>Voice tante taco.WAV8</linkclipref>
						<mediatype>audio</mediatype>
						<trackindex>10</trackindex>
						<clipindex>25</clipindex>
						<groupindex>1</groupindex>
					</link>
				</clipitem>
				<clipitem id="Voice tante taco.WAV9">
					<name>Voice tante taco.WAV</name>
					<duration>908</duration>
					<rate>
						<ntsc>FALSE</ntsc>
						<timebase>25</timebase>
					</rate>
					<in>568</in>
					<out>737</out>
					<start>41535</start>
					<end>41704</end>
					<subframeoffset>0</subframeoffset>
					<enabled>TRUE</enabled>
					<masterclipid>Voice tante taco.WAV1</masterclipid>
					<logginginfo>
						<scene/>
						<shottake/>
						<lognote/>
						<good>FALSE</good>
					</logginginfo>
					<labels>
						<label2/>
					</labels>
					<comments>
						<mastercomment1/>
						<mastercomment2/>
						<mastercomment3/>
						<mastercomment4/>
					</comments>
					<file id="Voice tante taco"/>
					<filter>
						<enabled>TRUE</enabled>
						<start>-1</start>
						<end>-1</end>
						<effect>
							<name>3 Band Equalizer - Kristine</name>
							<effecttype>filter</effecttype>
							<mediatype>audio</mediatype>
							<parameter>
								<parameterid>Low Frequency</parameterid>
								<name>Low Frequency</name>
								<valuemin>80</valuemin>
								<valuemax>2000</valuemax>
								<value>80</value>
							</parameter>
							<parameter>
								<parameterid>Low Gain(dB)</parameterid>
								<name>Low Gain(dB)</name>
								<valuemin>-20</valuemin>
								<valuemax>20</valuemax>
								<value>-4</value>
							</parameter>
							<parameter>
								<parameterid>Mid Frequency</parameterid>
								<name>Mid Frequency</name>
								<valuemin>400</valuemin>
								<valuemax>8000</valuemax>
								<value>3602</value>
							</parameter>
							<parameter>
								<parameterid>Mid Gain(dB)</parameterid>
								<name>Mid Gain(dB)</name>
								<valuemin>-20</valuemin>
								<valuemax>20</valuemax>
								<value>3</value>
							</parameter>
							<parameter>
								<parameterid>High Frequency</parameterid>
								<name>High Frequency</name>
								<valuemin>5000</valuemin>
								<valuemax>20000</valuemax>
								<value>10354</value>
							</parameter>
							<parameter>
								<parameterid>High Gain(dB)</parameterid>
								<name>High Gain(dB)</name>
								<valuemin>-20</valuemin>
								<valuemax>20</valuemax>
								<value>0</value>
							</parameter>
						</effect>
					</filter>
					<filter>
						<effect>
							<name>Audio Levels</name>
							<effectid>audiolevels</effectid>
							<effectcategory>audiolevels</effectcategory>
							<effecttype>audiolevels</effecttype>
							<mediatype>audio</mediatype>
							<parameter>
								<name>Level</name>
								<parameterid>level</parameterid>
								<valuemin>0</valuemin>
								<valuemax>3.98109</valuemax>
								<value>0.891251</value>
							</parameter>
						</effect>
					</filter>
					<filter>
						<effect>
							<name>Audio Pan</name>
							<effectid>audiopan</effectid>
							<effectcategory>audiopan</effectcategory>
							<effecttype>audiopan</effecttype>
							<mediatype>audio</mediatype>
							<parameter>
								<name>Pan</name>
								<parameterid>pan</parameterid>
								<valuemin>-1</valuemin>
								<valuemax>1</valuemax>
								<value>-1</value>
							</parameter>
						</effect>
					</filter>
					<sourcetrack>
						<mediatype>audio</mediatype>
						<trackindex>1</trackindex>
					</sourcetrack>
					<link>
						<linkclipref>Voice tante taco.WAV9</linkclipref>
						<mediatype>audio</mediatype>
						<trackindex>9</trackindex>
						<clipindex>26</clipindex>
						<groupindex>1</groupindex>
					</link>
					<link>
						<linkclipref>Voice tante taco.WAV10</linkclipref>
						<mediatype>audio</mediatype>
						<trackindex>10</trackindex>
						<clipindex>26</clipindex>
						<groupindex>1</groupindex>
					</link>
				</clipitem>
				<clipitem id="Voice tante taco.WAV11">
					<name>Voice tante taco.WAV</name>
					<duration>908</duration>
					<rate>
						<ntsc>FALSE</ntsc>
						<timebase>25</timebase>
					</rate>
					<in>763</in>
					<out>878</out>
					<start>41704</start>
					<end>41819</end>
					<subframeoffset>0</subframeoffset>
					<masterclipid>Voice tante taco.WAV1</masterclipid>
					<logginginfo>
						<scene/>
						<shottake/>
						<lognote/>
						<good>FALSE</good>
					</logginginfo>
					<labels>
						<label2/>
					</labels>
					<comments>
						<mastercomment1/>
						<mastercomment2/>
						<mastercomment3/>
						<mastercomment4/>
					</comments>
					<file id="Voice tante taco"/>
					<filter>
						<start>-1</start>
						<end>-1</end>
						<effect>
							<name>3 Band Equalizer - Kristine</name>
							<effecttype>filter</effecttype>
							<mediatype>audio</mediatype>
							<parameter>
								<parameterid>Low Frequency</parameterid>
								<name>Low Frequency</name>
								<valuemin>80</valuemin>
								<valuemax>2000</valuemax>
								<value>80</value>
							</parameter>
							<parameter>
								<parameterid>Low Gain(dB)</parameterid>
								<name>Low Gain(dB)</name>
								<valuemin>-20</valuemin>
								<valuemax>20</valuemax>
								<value>-4</value>
							</parameter>
							<parameter>
								<parameterid>Mid Frequency</parameterid>
								<name>Mid Frequency</name>
								<valuemin>400</valuemin>
								<valuemax>8000</valuemax>
								<value>3602</value>
							</parameter>
							<parameter>
								<parameterid>Mid Gain(dB)</parameterid>
								<name>Mid Gain(dB)</name>
								<valuemin>-20</valuemin>
								<valuemax>20</valuemax>
								<value>3</value>
							</parameter>
							<parameter>
								<parameterid>High Frequency</parameterid>
								<name>High Frequency</name>
								<valuemin>5000</valuemin>
								<valuemax>20000</valuemax>
								<value>10354</value>
							</parameter>
							<parameter>
								<parameterid>High Gain(dB)</parameterid>
								<name>High Gain(dB)</name>
								<valuemin>-20</valuemin>
								<valuemax>20</valuemax>
								<value>0</value>
							</parameter>
						</effect>
					</filter>
					<filter>
						<effect>
							<name>Audio Levels</name>
							<effectid>audiolevels</effectid>
							<effectcategory>audiolevels</effectcategory>
							<effecttype>audiolevels</effecttype>
							<mediatype>audio</mediatype>
							<parameter>
								<name>Level</name>
								<parameterid>level</parameterid>
								<valuemin>0</valuemin>
								<valuemax>3.98109</valuemax>
								<value>0.891251</value>
							</parameter>
						</effect>
					</filter>
					<filter>
						<effect>
							<name>Audio Pan</name>
							<effectid>audiopan</effectid>
							<effectcategory>audiopan</effectcategory>
							<effecttype>audiopan</effecttype>
							<mediatype>audio</mediatype>
							<parameter>
								<name>Pan</name>
								<parameterid>pan</parameterid>
								<valuemin>-1</valuemin>
								<valuemax>1</valuemax>
								<value>-1</value>
							</parameter>
						</effect>
					</filter>
					<sourcetrack>
						<mediatype>audio</mediatype>
						<trackindex>1</trackindex>
					</sourcetrack>
					<link>
						<linkclipref>Voice tante taco.WAV11</linkclipref>
						<mediatype>audio</mediatype>
						<trackindex>9</trackindex>
						<clipindex>27</clipindex>
						<groupindex>1</groupindex>
					</link>
					<link>
						<linkclipref>Voice tante taco.WAV12</linkclipref>
						<mediatype>audio</mediatype>
						<trackindex>10</trackindex>
						<clipindex>27</clipindex>
						<groupindex>1</groupindex>
					</link>
				</clipitem>
				<enabled>TRUE</enabled>
				<locked>FALSE</locked>
				<outputchannelindex>1</outputchannelindex>
			</track>
			<track>
				<clipitem id="Voice åpning.WAV2">
					<name>Voice åpning.WAV</name>
					<duration>532</duration>
					<rate>
						<ntsc>FALSE</ntsc>
						<timebase>25</timebase>
					</rate>
					<in>17</in>
					<out>115</out>
					<start>642</start>
					<end>740</end>
					<subframeoffset>0</subframeoffset>
					<enabled>TRUE</enabled>
					<masterclipid>Voice åpning.WAV1</masterclipid>
					<logginginfo>
						<scene/>
						<shottake/>
						<lognote/>
						<good>FALSE</good>
					</logginginfo>
					<labels>
						<label2/>
					</labels>
					<comments>
						<mastercomment1/>
						<mastercomment2/>
						<mastercomment3/>
						<mastercomment4/>
					</comments>
					<file id="Voice åpning"/>
					<filter>
						<enabled>TRUE</enabled>
						<start>-1</start>
						<end>-1</end>
						<effect>
							<name>3 Band Equalizer - Kristine</name>
							<effecttype>filter</effecttype>
							<mediatype>audio</mediatype>
							<parameter>
								<parameterid>Low Frequency</parameterid>
								<name>Low Frequency</name>
								<valuemin>80</valuemin>
								<valuemax>2000</valuemax>
								<value>80</value>
							</parameter>
							<parameter>
								<parameterid>Low Gain(dB)</parameterid>
								<name>Low Gain(dB)</name>
								<valuemin>-20</valuemin>
								<valuemax>20</valuemax>
								<value>-4</value>
							</parameter>
							<parameter>
								<parameterid>Mid Frequency</parameterid>
								<name>Mid Frequency</name>
								<valuemin>400</valuemin>
								<valuemax>8000</valuemax>
								<value>3602</value>
							</parameter>
							<parameter>
								<parameterid>Mid Gain(dB)</parameterid>
								<name>Mid Gain(dB)</name>
								<valuemin>-20</valuemin>
								<valuemax>20</valuemax>
								<value>3</value>
							</parameter>
							<parameter>
								<parameterid>High Frequency</parameterid>
								<name>High Frequency</name>
								<valuemin>5000</valuemin>
								<valuemax>20000</valuemax>
								<value>10354</value>
							</parameter>
							<parameter>
								<parameterid>High Gain(dB)</parameterid>
								<name>High Gain(dB)</name>
								<valuemin>-20</valuemin>
								<valuemax>20</valuemax>
								<value>0</value>
							</parameter>
						</effect>
					</filter>
					<filter>
						<enabled>TRUE</enabled>
						<start>-1</start>
						<end>-1</end>
						<effect>
							<name>Reverberation</name>
							<effecttype>filter</effecttype>
							<mediatype>audio</mediatype>
							<parameter>
								<parameterid>Effect Mix</parameterid>
								<name>Effect Mix</name>
								<valuemin>0</valuemin>
								<valuemax>100</valuemax>
								<value>10</value>
							</parameter>
							<parameter>
								<parameterid>Effect Level (dB)</parameterid>
								<name>Effect Level (dB)</name>
								<valuemin>-20</valuemin>
								<valuemax>20</valuemax>
								<value>-8</value>
							</parameter>
							<parameter>
								<parameterid>Brightness</parameterid>
								<name>Brightness</name>
								<valuemin>-100</valuemin>
								<valuemax>100</valuemax>
								<value>15</value>
							</parameter>
							<parameter>
								<parameterid>Type</parameterid>
								<name>Type</name>
								<valuemin>1</valuemin>
								<valuemax>16</valuemax>
								<valuelist>
									<valueentry>
										<name>Room (Small)</name>
										<value>1</value>
									</valueentry>
									<valueentry>
										<name>Room (Medium)</name>
										<value>2</value>
									</valueentry>
									<valueentry>
										<name>Room (Large)</name>
										<value>3</value>
									</valueentry>
									<valueentry>
										<name>Ambient Room</name>
										<value>4</value>
									</valueentry>
									<valueentry>
										<name>Hall (Small)</name>
										<value>5</value>
									</valueentry>
									<valueentry>
										<name>Hall (Medium)</name>
										<value>6</value>
									</valueentry>
									<valueentry>
										<name>Hall (Large)</name>
										<value>7</value>
									</valueentry>
									<valueentry>
										<name>Tunnel</name>
										<value>8</value>
									</valueentry>
									<valueentry>
										<name>Thin Plate (Short)</name>
										<value>9</value>
									</valueentry>
									<valueentry>
										<name>Thin Plate (Medium)</name>
										<value>10</value>
									</valueentry>
									<valueentry>
										<name>Thin Plate (Long)</name>
										<value>11</value>
									</valueentry>
									<valueentry>
										<name>Delayed Plate (Short)</name>
										<value>12</value>
									</valueentry>
									<valueentry>
										<name>Delayed Plate (Medium)</name>
										<value>13</value>
									</valueentry>
									<valueentry>
										<name>Delayed Plate (Long)</name>
										<value>14</value>
									</valueentry>
									<valueentry>
										<name>Fat Plate (Medium)</name>
										<value>15</value>
									</valueentry>
									<valueentry>
										<name>Fat Plate (Long)</name>
										<value>16</value>
									</valueentry>
								</valuelist>
								<value>3</value>
							</parameter>
						</effect>
					</filter>
					<filter>
						<effect>
							<name>Audio Levels</name>
							<effectid>audiolevels</effectid>
							<effectcategory>audiolevels</effectcategory>
							<effecttype>audiolevels</effecttype>
							<mediatype>audio</mediatype>
							<parameter>
								<name>Level</name>
								<parameterid>level</parameterid>
								<valuemin>0</valuemin>
								<valuemax>3.98109</valuemax>
								<value>0.891251</value>
							</parameter>
						</effect>
					</filter>
					<filter>
						<effect>
							<name>Audio Pan</name>
							<effectid>audiopan</effectid>
							<effectcategory>audiopan</effectcategory>
							<effecttype>audiopan</effecttype>
							<mediatype>audio</mediatype>
							<parameter>
								<name>Pan</name>
								<parameterid>pan</parameterid>
								<valuemin>-1</valuemin>
								<valuemax>1</valuemax>
								<value>1</value>
							</parameter>
						</effect>
					</filter>
					<sourcetrack>
						<mediatype>audio</mediatype>
						<trackindex>2</trackindex>
					</sourcetrack>
					<link>
						<linkclipref>Voice åpning.WAV</linkclipref>
						<mediatype>audio</mediatype>
						<trackindex>9</trackindex>
						<clipindex>1</clipindex>
						<groupindex>1</groupindex>
					</link>
					<link>
						<linkclipref>Voice åpning.WAV2</linkclipref>
						<mediatype>audio</mediatype>
						<trackindex>10</trackindex>
						<clipindex>1</clipindex>
						<groupindex>1</groupindex>
					</link>
				</clipitem>
				<clipitem id="Voice åpning.WAV4">
					<name>Voice åpning.WAV</name>
					<duration>532</duration>
					<rate>
						<ntsc>FALSE</ntsc>
						<timebase>25</timebase>
					</rate>
					<in>161</in>
					<out>310</out>
					<start>754</start>
					<end>903</end>
					<subframeoffset>0</subframeoffset>
					<masterclipid>Voice åpning.WAV1</masterclipid>
					<logginginfo>
						<scene/>
						<shottake/>
						<lognote/>
						<good>FALSE</good>
					</logginginfo>
					<labels>
						<label2/>
					</labels>
					<comments>
						<mastercomment1/>
						<mastercomment2/>
						<mastercomment3/>
						<mastercomment4/>
					</comments>
					<file id="Voice åpning"/>
					<filter>
						<start>-1</start>
						<end>-1</end>
						<effect>
							<name>3 Band Equalizer - Kristine</name>
							<effecttype>filter</effecttype>
							<mediatype>audio</mediatype>
							<parameter>
								<parameterid>Low Frequency</parameterid>
								<name>Low Frequency</name>
								<valuemin>80</valuemin>
								<valuemax>2000</valuemax>
								<value>80</value>
							</parameter>
							<parameter>
								<parameterid>Low Gain(dB)</parameterid>
								<name>Low Gain(dB)</name>
								<valuemin>-20</valuemin>
								<valuemax>20</valuemax>
								<value>-4</value>
							</parameter>
							<parameter>
								<parameterid>Mid Frequency</parameterid>
								<name>Mid Frequency</name>
								<valuemin>400</valuemin>
								<valuemax>8000</valuemax>
								<value>3602</value>
							</parameter>
							<parameter>
								<parameterid>Mid Gain(dB)</parameterid>
								<name>Mid Gain(dB)</name>
								<valuemin>-20</valuemin>
								<valuemax>20</valuemax>
								<value>3</value>
							</parameter>
							<parameter>
								<parameterid>High Frequency</parameterid>
								<name>High Frequency</name>
								<valuemin>5000</valuemin>
								<valuemax>20000</valuemax>
								<value>10354</value>
							</parameter>
							<parameter>
								<parameterid>High Gain(dB)</parameterid>
								<name>High Gain(dB)</name>
								<valuemin>-20</valuemin>
								<valuemax>20</valuemax>
								<value>0</value>
							</parameter>
						</effect>
					</filter>
					<filter>
						<effect>
							<name>Audio Levels</name>
							<effectid>audiolevels</effectid>
							<effectcategory>audiolevels</effectcategory>
							<effecttype>audiolevels</effecttype>
							<mediatype>audio</mediatype>
							<parameter>
								<name>Level</name>
								<parameterid>level</parameterid>
								<valuemin>0</valuemin>
								<valuemax>3.98109</valuemax>
								<value>0.794328</value>
							</parameter>
						</effect>
					</filter>
					<filter>
						<effect>
							<name>Audio Pan</name>
							<effectid>audiopan</effectid>
							<effectcategory>audiopan</effectcategory>
							<effecttype>audiopan</effecttype>
							<mediatype>audio</mediatype>
							<parameter>
								<name>Pan</name>
								<parameterid>pan</parameterid>
								<valuemin>-1</valuemin>
								<valuemax>1</valuemax>
								<value>1</value>
							</parameter>
						</effect>
					</filter>
					<sourcetrack>
						<mediatype>audio</mediatype>
						<trackindex>2</trackindex>
					</sourcetrack>
					<link>
						<linkclipref>Voice åpning.WAV3</linkclipref>
						<mediatype>audio</mediatype>
						<trackindex>9</trackindex>
						<clipindex>2</clipindex>
						<groupindex>1</groupindex>
					</link>
					<link>
						<linkclipref>Voice åpning.WAV4</linkclipref>
						<mediatype>audio</mediatype>
						<trackindex>10</trackindex>
						<clipindex>2</clipindex>
						<groupindex>1</groupindex>
					</link>
				</clipitem>
				<clipitem id="Voice åpning.WAV6">
					<name>Voice åpning.WAV</name>
					<duration>532</duration>
					<rate>
						<ntsc>FALSE</ntsc>
						<timebase>25</timebase>
					</rate>
					<in>395</in>
					<out>509</out>
					<start>904</start>
					<end>1018</end>
					<subframeoffset>0</subframeoffset>
					<enabled>TRUE</enabled>
					<masterclipid>Voice åpning.WAV1</masterclipid>
					<logginginfo>
						<scene/>
						<shottake/>
						<lognote/>
						<good>FALSE</good>
					</logginginfo>
					<labels>
						<label2/>
					</labels>
					<comments>
						<mastercomment1/>
						<mastercomment2/>
						<mastercomment3/>
						<mastercomment4/>
					</comments>
					<file id="Voice åpning"/>
					<filter>
						<start>-1</start>
						<end>-1</end>
						<effect>
							<name>3 Band Equalizer - Kristine</name>
							<effecttype>filter</effecttype>
							<mediatype>audio</mediatype>
							<parameter>
								<parameterid>Low Frequency</parameterid>
								<name>Low Frequency</name>
								<valuemin>80</valuemin>
								<valuemax>2000</valuemax>
								<value>80</value>
							</parameter>
							<parameter>
								<parameterid>Low Gain(dB)</parameterid>
								<name>Low Gain(dB)</name>
								<valuemin>-20</valuemin>
								<valuemax>20</valuemax>
								<value>-4</value>
							</parameter>
							<parameter>
								<parameterid>Mid Frequency</parameterid>
								<name>Mid Frequency</name>
								<valuemin>400</valuemin>
								<valuemax>8000</valuemax>
								<value>3602</value>
							</parameter>
							<parameter>
								<parameterid>Mid Gain(dB)</parameterid>
								<name>Mid Gain(dB)</name>
								<valuemin>-20</valuemin>
								<valuemax>20</valuemax>
								<value>3</value>
							</parameter>
							<parameter>
								<parameterid>High Frequency</parameterid>
								<name>High Frequency</name>
								<valuemin>5000</valuemin>
								<valuemax>20000</valuemax>
								<value>10354</value>
							</parameter>
							<parameter>
								<parameterid>High Gain(dB)</parameterid>
								<name>High Gain(dB)</name>
								<valuemin>-20</valuemin>
								<valuemax>20</valuemax>
								<value>0</value>
							</parameter>
						</effect>
					</filter>
					<filter>
						<effect>
							<name>Audio Levels</name>
							<effectid>audiolevels</effectid>
							<effectcategory>audiolevels</effectcategory>
							<effecttype>audiolevels</effecttype>
							<mediatype>audio</mediatype>
							<parameter>
								<name>Level</name>
								<parameterid>level</parameterid>
								<valuemin>0</valuemin>
								<valuemax>3.98109</valuemax>
								<value>0.794328</value>
							</parameter>
						</effect>
					</filter>
					<filter>
						<effect>
							<name>Audio Pan</name>
							<effectid>audiopan</effectid>
							<effectcategory>audiopan</effectcategory>
							<effecttype>audiopan</effecttype>
							<mediatype>audio</mediatype>
							<parameter>
								<name>Pan</name>
								<parameterid>pan</parameterid>
								<valuemin>-1</valuemin>
								<valuemax>1</valuemax>
								<value>1</value>
							</parameter>
						</effect>
					</filter>
					<sourcetrack>
						<mediatype>audio</mediatype>
						<trackindex>2</trackindex>
					</sourcetrack>
					<link>
						<linkclipref>Voice åpning.WAV5</linkclipref>
						<mediatype>audio</mediatype>
						<trackindex>9</trackindex>
						<clipindex>3</clipindex>
						<groupindex>1</groupindex>
					</link>
					<link>
						<linkclipref>Voice åpning.WAV6</linkclipref>
						<mediatype>audio</mediatype>
						<trackindex>10</trackindex>
						<clipindex>3</clipindex>
						<groupindex>1</groupindex>
					</link>
				</clipitem>
				<transitionitem id="628188712 ">
					<rate>
						<ntsc>FALSE</ntsc>
						<timebase>25</timebase>
					</rate>
					<start>9253</start>
					<end>9259</end>
					<alignment>start-black</alignment>
					<effect>
						<name>Cross Fade (+3dB) Copy</name>
						<effecttype>transition</effecttype>
						<mediatype>audio</mediatype>
					</effect>
				</transitionitem>
				<clipitem id="Stråling.wav10">
					<name>Stråling.wav</name>
					<duration>618</duration>
					<rate>
						<ntsc>FALSE</ntsc>
						<timebase>25</timebase>
					</rate>
					<in>30</in>
					<out>45</out>
					<start>-1</start>
					<end>-1</end>
					<subframeoffset>0</subframeoffset>
					<enabled>TRUE</enabled>
					<masterclipid>Stråling.wav1</masterclipid>
					<logginginfo>
						<scene/>
						<shottake/>
						<lognote/>
						<good>FALSE</good>
					</logginginfo>
					<labels>
						<label2/>
					</labels>
					<comments>
						<mastercomment1/>
						<mastercomment2/>
						<mastercomment3/>
						<mastercomment4/>
					</comments>
					<file id="Stråling"/>
					<filter>
						<effect>
							<name>Audio Levels</name>
							<effectid>audiolevels</effectid>
							<effectcategory>audiolevels</effectcategory>
							<effecttype>audiolevels</effecttype>
							<mediatype>audio</mediatype>
							<parameter>
								<name>Level</name>
								<parameterid>level</parameterid>
								<valuemin>0</valuemin>
								<valuemax>3.98109</valuemax>
								<value>0.251189</value>
							</parameter>
						</effect>
					</filter>
					<filter>
						<effect>
							<name>Audio Pan</name>
							<effectid>audiopan</effectid>
							<effectcategory>audiopan</effectcategory>
							<effecttype>audiopan</effecttype>
							<mediatype>audio</mediatype>
							<parameter>
								<name>Pan</name>
								<parameterid>pan</parameterid>
								<valuemin>-1</valuemin>
								<valuemax>1</valuemax>
								<value>1</value>
							</parameter>
						</effect>
					</filter>
					<sourcetrack>
						<mediatype>audio</mediatype>
						<trackindex>2</trackindex>
					</sourcetrack>
					<link>
						<linkclipref>Stråling.wav9</linkclipref>
						<mediatype>audio</mediatype>
						<trackindex>9</trackindex>
						<clipindex>5</clipindex>
						<groupindex>1</groupindex>
					</link>
					<link>
						<linkclipref>Stråling.wav10</linkclipref>
						<mediatype>audio</mediatype>
						<trackindex>10</trackindex>
						<clipindex>5</clipindex>
						<groupindex>1</groupindex>
					</link>
				</clipitem>
				<transitionitem id="628188508 ">
					<rate>
						<ntsc>FALSE</ntsc>
						<timebase>25</timebase>
					</rate>
					<start>9266</start>
					<end>9268</end>
					<alignment>end-black</alignment>
					<effect>
						<name>Cross Fade (+3dB) Copy</name>
						<effecttype>transition</effecttype>
						<mediatype>audio</mediatype>
					</effect>
				</transitionitem>
				<clipitem id="Pop-corn wipe4">
					<name>Pop-corn wipe</name>
					<duration>105</duration>
					<rate>
						<ntsc>FALSE</ntsc>
						<timebase>25</timebase>
					</rate>
					<in>0</in>
					<out>105</out>
					<start>13879</start>
					<end>-1</end>
					<masterclipid>Pop-corn wipe1</masterclipid>
					<logginginfo>
						<scene/>
						<shottake/>
						<lognote/>
						<good>FALSE</good>
					</logginginfo>
					<labels>
						<label2/>
					</labels>
					<comments>
						<mastercomment1/>
						<mastercomment2/>
						<mastercomment3/>
						<mastercomment4/>
					</comments>
					<file id="Pop-corn wipe2"/>
					<filter>
						<effect>
							<name>Audio Levels</name>
							<effectid>audiolevels</effectid>
							<effectcategory>audiolevels</effectcategory>
							<effecttype>audiolevels</effecttype>
							<mediatype>audio</mediatype>
							<parameter>
								<name>Level</name>
								<parameterid>level</parameterid>
								<valuemin>0</valuemin>
								<valuemax>3.98109</valuemax>
								<keyframe>
									<when>71.1696</when>
									<value>0.251189</value>
								</keyframe>
								<keyframe>
									<when>85.5089</when>
									<value>0.158489</value>
								</keyframe>
								<interpolation>
									<name>FCPCurve</name>
								</interpolation>
								<value>0.251189</value>
							</parameter>
						</effect>
					</filter>
					<filter>
						<effect>
							<name>Audio Pan</name>
							<effectid>audiopan</effectid>
							<effectcategory>audiopan</effectcategory>
							<effecttype>audiopan</effecttype>
							<mediatype>audio</mediatype>
							<parameter>
								<name>Pan</name>
								<parameterid>pan</parameterid>
								<valuemin>-1</valuemin>
								<valuemax>1</valuemax>
								<value>1</value>
							</parameter>
						</effect>
					</filter>
					<sourcetrack>
						<mediatype>audio</mediatype>
						<trackindex>2</trackindex>
					</sourcetrack>
					<link>
						<linkclipref>Pop-corn wipe</linkclipref>
						<mediatype>video</mediatype>
						<trackindex>5</trackindex>
						<clipindex>8</clipindex>
					</link>
					<link>
						<linkclipref>Pop-corn wipe3</linkclipref>
						<mediatype>audio</mediatype>
						<trackindex>9</trackindex>
						<clipindex>7</clipindex>
					</link>
					<link>
						<linkclipref>Pop-corn wipe4</linkclipref>
						<mediatype>audio</mediatype>
						<trackindex>10</trackindex>
						<clipindex>7</clipindex>
					</link>
				</clipitem>
				<transitionitem id="19">
					<rate>
						<ntsc>FALSE</ntsc>
						<timebase>25</timebase>
					</rate>
					<start>13968</start>
					<end>13984</end>
					<alignment>end-black</alignment>
					<effect>
						<name>Cross Fade (+3dB) Copy</name>
						<effecttype>transition</effecttype>
						<mediatype>audio</mediatype>
					</effect>
				</transitionitem>
				<transitionitem id="20">
					<rate>
						<ntsc>FALSE</ntsc>
						<timebase>25</timebase>
					</rate>
					<start>22925</start>
					<end>22931</end>
					<alignment>start-black</alignment>
					<effect>
						<name>Cross Fade (+3dB) Copy</name>
						<effecttype>transition</effecttype>
						<mediatype>audio</mediatype>
					</effect>
				</transitionitem>
				<clipitem id="SCD086417.wav2">
					<name>SCD086417.wav</name>
					<duration>3494</duration>
					<rate>
						<ntsc>FALSE</ntsc>
						<timebase>25</timebase>
					</rate>
					<in>669</in>
					<out>794</out>
					<start>-1</start>
					<end>23050</end>
					<subframeoffset>0</subframeoffset>
					<masterclipid>SCD086417.wav1</masterclipid>
					<logginginfo>
						<scene/>
						<shottake/>
						<lognote/>
						<good>FALSE</good>
					</logginginfo>
					<labels>
						<label2/>
					</labels>
					<comments>
						<mastercomment1/>
						<mastercomment2/>
						<mastercomment3/>
						<mastercomment4/>
					</comments>
					<file id="SCD086417 "/>
					<filter>
						<effect>
							<name>Audio Levels</name>
							<effectid>audiolevels</effectid>
							<effectcategory>audiolevels</effectcategory>
							<effecttype>audiolevels</effecttype>
							<mediatype>audio</mediatype>
							<parameter>
								<name>Level</name>
								<parameterid>level</parameterid>
								<valuemin>0</valuemin>
								<valuemax>3.98109</valuemax>
								<value>0.251189</value>
							</parameter>
						</effect>
					</filter>
					<filter>
						<effect>
							<name>Audio Pan</name>
							<effectid>audiopan</effectid>
							<effectcategory>audiopan</effectcategory>
							<effecttype>audiopan</effecttype>
							<mediatype>audio</mediatype>
							<parameter>
								<name>Pan</name>
								<parameterid>pan</parameterid>
								<valuemin>-1</valuemin>
								<valuemax>1</valuemax>
								<value>1</value>
							</parameter>
						</effect>
					</filter>
					<sourcetrack>
						<mediatype>audio</mediatype>
						<trackindex>2</trackindex>
					</sourcetrack>
					<link>
						<linkclipref>SCD086417.wav</linkclipref>
						<mediatype>audio</mediatype>
						<trackindex>9</trackindex>
						<clipindex>10</clipindex>
						<groupindex>1</groupindex>
					</link>
					<link>
						<linkclipref>SCD086417.wav2</linkclipref>
						<mediatype>audio</mediatype>
						<trackindex>10</trackindex>
						<clipindex>10</clipindex>
						<groupindex>1</groupindex>
					</link>
				</clipitem>
				<clipitem id="SCD086417.wav4">
					<name>SCD086417.wav</name>
					<duration>3494</duration>
					<rate>
						<ntsc>FALSE</ntsc>
						<timebase>25</timebase>
					</rate>
					<in>1021</in>
					<out>1068</out>
					<start>23050</start>
					<end>-1</end>
					<subframeoffset>0</subframeoffset>
					<masterclipid>SCD086417.wav1</masterclipid>
					<logginginfo>
						<scene/>
						<shottake/>
						<lognote/>
						<good>FALSE</good>
					</logginginfo>
					<labels>
						<label2/>
					</labels>
					<comments>
						<mastercomment1/>
						<mastercomment2/>
						<mastercomment3/>
						<mastercomment4/>
					</comments>
					<file id="SCD086417 "/>
					<filter>
						<effect>
							<name>Audio Levels</name>
							<effectid>audiolevels</effectid>
							<effectcategory>audiolevels</effectcategory>
							<effecttype>audiolevels</effecttype>
							<mediatype>audio</mediatype>
							<parameter>
								<name>Level</name>
								<parameterid>level</parameterid>
								<valuemin>0</valuemin>
								<valuemax>3.98109</valuemax>
								<value>0.251189</value>
							</parameter>
						</effect>
					</filter>
					<filter>
						<effect>
							<name>Audio Pan</name>
							<effectid>audiopan</effectid>
							<effectcategory>audiopan</effectcategory>
							<effecttype>audiopan</effecttype>
							<mediatype>audio</mediatype>
							<parameter>
								<name>Pan</name>
								<parameterid>pan</parameterid>
								<valuemin>-1</valuemin>
								<valuemax>1</valuemax>
								<value>1</value>
							</parameter>
						</effect>
					</filter>
					<sourcetrack>
						<mediatype>audio</mediatype>
						<trackindex>2</trackindex>
					</sourcetrack>
					<link>
						<linkclipref>SCD086417.wav3</linkclipref>
						<mediatype>audio</mediatype>
						<trackindex>9</trackindex>
						<clipindex>11</clipindex>
						<groupindex>1</groupindex>
					</link>
					<link>
						<linkclipref>SCD086417.wav4</linkclipref>
						<mediatype>audio</mediatype>
						<trackindex>10</trackindex>
						<clipindex>11</clipindex>
						<groupindex>1</groupindex>
					</link>
				</clipitem>
				<transitionitem id="628190140 ">
					<rate>
						<ntsc>FALSE</ntsc>
						<timebase>25</timebase>
					</rate>
					<start>23072</start>
					<end>23097</end>
					<alignment>end-black</alignment>
					<effect>
						<name>Cross Fade (+3dB) Copy</name>
						<effecttype>transition</effecttype>
						<mediatype>audio</mediatype>
					</effect>
				</transitionitem>
				<transitionitem id="628185584 ">
					<rate>
						<ntsc>FALSE</ntsc>
						<timebase>25</timebase>
					</rate>
					<start>25765</start>
					<end>25777</end>
					<alignment>center</alignment>
					<effect>
						<name>Cross Fade (+3dB) Copy</name>
						<effecttype>transition</effecttype>
						<mediatype>audio</mediatype>
					</effect>
				</transitionitem>
				<clipitem id="SCD074915.wav4">
					<name>SCD074915.wav</name>
					<duration>215</duration>
					<rate>
						<ntsc>FALSE</ntsc>
						<timebase>25</timebase>
					</rate>
					<in>0</in>
					<out>152</out>
					<start>-1</start>
					<end>-1</end>
					<masterclipid>SCD074915.wav1</masterclipid>
					<logginginfo>
						<scene/>
						<shottake/>
						<lognote/>
						<good>FALSE</good>
					</logginginfo>
					<labels>
						<label2/>
					</labels>
					<comments>
						<mastercomment1/>
						<mastercomment2/>
						<mastercomment3/>
						<mastercomment4/>
					</comments>
					<file id="SCD074915 "/>
					<filter>
						<effect>
							<name>Audio Levels</name>
							<effectid>audiolevels</effectid>
							<effectcategory>audiolevels</effectcategory>
							<effecttype>audiolevels</effecttype>
							<mediatype>audio</mediatype>
							<parameter>
								<name>Level</name>
								<parameterid>level</parameterid>
								<valuemin>0</valuemin>
								<valuemax>3.98109</valuemax>
								<keyframe>
									<when>115.679</when>
									<value>0.141254</value>
								</keyframe>
								<keyframe>
									<when>133.036</when>
									<value>0.0630957</value>
								</keyframe>
								<interpolation>
									<name>FCPCurve</name>
								</interpolation>
								<value>0.446684</value>
							</parameter>
						</effect>
					</filter>
					<filter>
						<effect>
							<name>Audio Pan</name>
							<effectid>audiopan</effectid>
							<effectcategory>audiopan</effectcategory>
							<effecttype>audiopan</effecttype>
							<mediatype>audio</mediatype>
							<parameter>
								<name>Pan</name>
								<parameterid>pan</parameterid>
								<valuemin>-1</valuemin>
								<valuemax>1</valuemax>
								<value>1</value>
							</parameter>
						</effect>
					</filter>
					<sourcetrack>
						<mediatype>audio</mediatype>
						<trackindex>2</trackindex>
					</sourcetrack>
					<link>
						<linkclipref>SCD074915.wav3</linkclipref>
						<mediatype>audio</mediatype>
						<trackindex>9</trackindex>
						<clipindex>14</clipindex>
						<groupindex>1</groupindex>
					</link>
					<link>
						<linkclipref>SCD074915.wav4</linkclipref>
						<mediatype>audio</mediatype>
						<trackindex>10</trackindex>
						<clipindex>14</clipindex>
						<groupindex>1</groupindex>
					</link>
				</clipitem>
				<transitionitem id="628185312 ">
					<rate>
						<ntsc>FALSE</ntsc>
						<timebase>25</timebase>
					</rate>
					<start>25905</start>
					<end>25917</end>
					<alignment>end-black</alignment>
					<effect>
						<name>Cross Fade (+3dB) Copy</name>
						<effecttype>transition</effecttype>
						<mediatype>audio</mediatype>
					</effect>
				</transitionitem>
				<transitionitem id="628186400 ">
					<rate>
						<ntsc>FALSE</ntsc>
						<timebase>25</timebase>
					</rate>
					<start>29262</start>
					<end>29268</end>
					<alignment>center</alignment>
					<effect>
						<name>Cross Fade (+3dB) Copy</name>
						<effecttype>transition</effecttype>
						<mediatype>audio</mediatype>
					</effect>
				</transitionitem>
				<clipitem id="Tooji-konsert-stereo.aif2">
					<name>Tooji-konsert-stereo.aif</name>
					<duration>5988</duration>
					<rate>
						<ntsc>FALSE</ntsc>
						<timebase>25</timebase>
					</rate>
					<in>162</in>
					<out>544</out>
					<start>-1</start>
					<end>-1</end>
					<masterclipid>Tooji-konsert-stereo.aif1</masterclipid>
					<logginginfo>
						<scene/>
						<shottake/>
						<lognote/>
						<good>FALSE</good>
					</logginginfo>
					<labels>
						<label2/>
					</labels>
					<comments>
						<mastercomment1/>
						<mastercomment2/>
						<mastercomment3/>
						<mastercomment4/>
					</comments>
					<file id="Tooji-konsert-stereo"/>
					<filter>
						<effect>
							<name>Audio Levels</name>
							<effectid>audiolevels</effectid>
							<effectcategory>audiolevels</effectcategory>
							<effecttype>audiolevels</effecttype>
							<mediatype>audio</mediatype>
							<parameter>
								<name>Level</name>
								<parameterid>level</parameterid>
								<valuemin>0</valuemin>
								<valuemax>3.98109</valuemax>
								<keyframe>
									<when>386.357</when>
									<value>1</value>
								</keyframe>
								<keyframe>
									<when>399.929</when>
									<value>1.25893</value>
								</keyframe>
								<keyframe>
									<when>473.214</when>
									<value>1.25893</value>
								</keyframe>
								<keyframe>
									<when>481.357</when>
									<value>1</value>
								</keyframe>
								<interpolation>
									<name>FCPCurve</name>
								</interpolation>
								<value>1</value>
							</parameter>
						</effect>
					</filter>
					<filter>
						<effect>
							<name>Audio Pan</name>
							<effectid>audiopan</effectid>
							<effectcategory>audiopan</effectcategory>
							<effecttype>audiopan</effecttype>
							<mediatype>audio</mediatype>
							<parameter>
								<name>Pan</name>
								<parameterid>pan</parameterid>
								<valuemin>-1</valuemin>
								<valuemax>1</valuemax>
								<value>1</value>
							</parameter>
						</effect>
					</filter>
					<sourcetrack>
						<mediatype>audio</mediatype>
						<trackindex>2</trackindex>
					</sourcetrack>
					<link>
						<linkclipref>Tooji-konsert-stereo.aif</linkclipref>
						<mediatype>audio</mediatype>
						<trackindex>9</trackindex>
						<clipindex>17</clipindex>
						<groupindex>1</groupindex>
					</link>
					<link>
						<linkclipref>Tooji-konsert-stereo.aif2</linkclipref>
						<mediatype>audio</mediatype>
						<trackindex>10</trackindex>
						<clipindex>17</clipindex>
						<groupindex>1</groupindex>
					</link>
				</clipitem>
				<transitionitem id="628106340 ">
					<rate>
						<ntsc>FALSE</ntsc>
						<timebase>25</timebase>
					</rate>
					<start>29632</start>
					<end>29644</end>
					<alignment>center</alignment>
					<effect>
						<name>Cross Fade (+3dB) Copy</name>
						<effecttype>transition</effecttype>
						<mediatype>audio</mediatype>
					</effect>
				</transitionitem>
				<clipitem id="Tooji-konsert-stereo.aif4">
					<name>Tooji-konsert-stereo.aif</name>
					<duration>5988</duration>
					<rate>
						<ntsc>FALSE</ntsc>
						<timebase>25</timebase>
					</rate>
					<in>532</in>
					<out>5765</out>
					<start>-1</start>
					<end>-1</end>
					<enabled>TRUE</enabled>
					<masterclipid>Tooji-konsert-stereo.aif1</masterclipid>
					<logginginfo>
						<scene/>
						<shottake/>
						<lognote/>
						<good>FALSE</good>
					</logginginfo>
					<labels>
						<label2/>
					</labels>
					<comments>
						<mastercomment1/>
						<mastercomment2/>
						<mastercomment3/>
						<mastercomment4/>
					</comments>
					<file id="Tooji-konsert-stereo"/>
					<filter>
						<enabled>TRUE</enabled>
						<start>-1</start>
						<end>-1</end>
						<effect>
							<name>Compressor/Limiter</name>
							<effecttype>filter</effecttype>
							<mediatype>audio</mediatype>
							<parameter>
								<parameterid>Threshold(dB)</parameterid>
								<name>Threshold(dB)</name>
								<valuemin>-90</valuemin>
								<valuemax>0</valuemax>
								<value>-19</value>
							</parameter>
							<parameter>
								<parameterid>Ratio</parameterid>
								<name>Ratio</name>
								<valuemin>1</valuemin>
								<valuemax>100</valuemax>
								<value>7</value>
							</parameter>
							<parameter>
								<parameterid>Attack Time</parameterid>
								<name>Attack Time</name>
								<valuemin>1</valuemin>
								<valuemax>100</valuemax>
								<value>10</value>
							</parameter>
							<parameter>
								<parameterid>Release Time</parameterid>
								<name>Release Time</name>
								<valuemin>1</valuemin>
								<valuemax>4000</valuemax>
								<value>100</value>
							</parameter>
							<parameter>
								<parameterid>Preserve Volume</parameterid>
								<name>Preserve Volume</name>
								<value>FALSE</value>
							</parameter>
						</effect>
					</filter>
					<filter>
						<effect>
							<name>Audio Levels</name>
							<effectid>audiolevels</effectid>
							<effectcategory>audiolevels</effectcategory>
							<effecttype>audiolevels</effecttype>
							<mediatype>audio</mediatype>
							<parameter>
								<name>Level</name>
								<parameterid>level</parameterid>
								<valuemin>0</valuemin>
								<valuemax>3.98109</valuemax>
								<value>1.41254</value>
							</parameter>
						</effect>
					</filter>
					<filter>
						<effect>
							<name>Audio Pan</name>
							<effectid>audiopan</effectid>
							<effectcategory>audiopan</effectcategory>
							<effecttype>audiopan</effecttype>
							<mediatype>audio</mediatype>
							<parameter>
								<name>Pan</name>
								<parameterid>pan</parameterid>
								<valuemin>-1</valuemin>
								<valuemax>1</valuemax>
								<value>1</value>
							</parameter>
						</effect>
					</filter>
					<sourcetrack>
						<mediatype>audio</mediatype>
						<trackindex>2</trackindex>
					</sourcetrack>
					<link>
						<linkclipref>Tooji-konsert-stereo.aif3</linkclipref>
						<mediatype>audio</mediatype>
						<trackindex>9</trackindex>
						<clipindex>19</clipindex>
						<groupindex>1</groupindex>
					</link>
					<link>
						<linkclipref>Tooji-konsert-stereo.aif4</linkclipref>
						<mediatype>audio</mediatype>
						<trackindex>10</trackindex>
						<clipindex>19</clipindex>
						<groupindex>1</groupindex>
					</link>
				</clipitem>
				<transitionitem id="628107428 ">
					<rate>
						<ntsc>FALSE</ntsc>
						<timebase>25</timebase>
					</rate>
					<start>34859</start>
					<end>34865</end>
					<alignment>center</alignment>
					<effect>
						<name>Cross Fade (+3dB) Copy</name>
						<effecttype>transition</effecttype>
						<mediatype>audio</mediatype>
					</effect>
				</transitionitem>
				<clipitem id="AUXMP_ISCD020302.mp3 8">
					<name>AUXMP_ISCD020302.mp3</name>
					<duration>3908</duration>
					<rate>
						<ntsc>FALSE</ntsc>
						<timebase>25</timebase>
					</rate>
					<in>0</in>
					<out>115</out>
					<start>40168</start>
					<end>40283</end>
					<masterclipid>AUXMP_ISCD020302.mp3 1</masterclipid>
					<logginginfo>
						<scene/>
						<shottake/>
						<lognote/>
						<good>FALSE</good>
					</logginginfo>
					<labels>
						<label2/>
					</labels>
					<comments>
						<mastercomment1/>
						<mastercomment2/>
						<mastercomment3/>
						<mastercomment4/>
					</comments>
					<file id="AUXMP_ISCD020302 "/>
					<filter>
						<effect>
							<name>Audio Levels</name>
							<effectid>audiolevels</effectid>
							<effectcategory>audiolevels</effectcategory>
							<effecttype>audiolevels</effecttype>
							<mediatype>audio</mediatype>
							<parameter>
								<name>Level</name>
								<parameterid>level</parameterid>
								<valuemin>0</valuemin>
								<valuemax>3.98109</valuemax>
								<value>0.141254</value>
							</parameter>
						</effect>
					</filter>
					<filter>
						<effect>
							<name>Audio Pan</name>
							<effectid>audiopan</effectid>
							<effectcategory>audiopan</effectcategory>
							<effecttype>audiopan</effecttype>
							<mediatype>audio</mediatype>
							<parameter>
								<name>Pan</name>
								<parameterid>pan</parameterid>
								<valuemin>-1</valuemin>
								<valuemax>1</valuemax>
								<value>1</value>
							</parameter>
						</effect>
					</filter>
					<sourcetrack>
						<mediatype>audio</mediatype>
						<trackindex>2</trackindex>
					</sourcetrack>
					<link>
						<linkclipref>AUXMP_ISCD020302.mp3 7</linkclipref>
						<mediatype>audio</mediatype>
						<trackindex>9</trackindex>
						<clipindex>21</clipindex>
						<groupindex>1</groupindex>
					</link>
					<link>
						<linkclipref>AUXMP_ISCD020302.mp3 8</linkclipref>
						<mediatype>audio</mediatype>
						<trackindex>10</trackindex>
						<clipindex>21</clipindex>
						<groupindex>1</groupindex>
					</link>
				</clipitem>
				<clipitem id="Voice tante taco.WAV2">
					<name>Voice tante taco.WAV</name>
					<duration>908</duration>
					<rate>
						<ntsc>FALSE</ntsc>
						<timebase>25</timebase>
					</rate>
					<in>22</in>
					<out>82</out>
					<start>40903</start>
					<end>40963</end>
					<subframeoffset>0</subframeoffset>
					<masterclipid>Voice tante taco.WAV1</masterclipid>
					<logginginfo>
						<scene/>
						<shottake/>
						<lognote/>
						<good>FALSE</good>
					</logginginfo>
					<labels>
						<label2/>
					</labels>
					<comments>
						<mastercomment1/>
						<mastercomment2/>
						<mastercomment3/>
						<mastercomment4/>
					</comments>
					<file id="Voice tante taco"/>
					<filter>
						<start>-1</start>
						<end>-1</end>
						<effect>
							<name>3 Band Equalizer - Kristine</name>
							<effecttype>filter</effecttype>
							<mediatype>audio</mediatype>
							<parameter>
								<parameterid>Low Frequency</parameterid>
								<name>Low Frequency</name>
								<valuemin>80</valuemin>
								<valuemax>2000</valuemax>
								<value>80</value>
							</parameter>
							<parameter>
								<parameterid>Low Gain(dB)</parameterid>
								<name>Low Gain(dB)</name>
								<valuemin>-20</valuemin>
								<valuemax>20</valuemax>
								<value>-4</value>
							</parameter>
							<parameter>
								<parameterid>Mid Frequency</parameterid>
								<name>Mid Frequency</name>
								<valuemin>400</valuemin>
								<valuemax>8000</valuemax>
								<value>3602</value>
							</parameter>
							<parameter>
								<parameterid>Mid Gain(dB)</parameterid>
								<name>Mid Gain(dB)</name>
								<valuemin>-20</valuemin>
								<valuemax>20</valuemax>
								<value>3</value>
							</parameter>
							<parameter>
								<parameterid>High Frequency</parameterid>
								<name>High Frequency</name>
								<valuemin>5000</valuemin>
								<valuemax>20000</valuemax>
								<value>10354</value>
							</parameter>
							<parameter>
								<parameterid>High Gain(dB)</parameterid>
								<name>High Gain(dB)</name>
								<valuemin>-20</valuemin>
								<valuemax>20</valuemax>
								<value>0</value>
							</parameter>
						</effect>
					</filter>
					<filter>
						<effect>
							<name>Audio Levels</name>
							<effectid>audiolevels</effectid>
							<effectcategory>audiolevels</effectcategory>
							<effecttype>audiolevels</effecttype>
							<mediatype>audio</mediatype>
							<parameter>
								<name>Level</name>
								<parameterid>level</parameterid>
								<valuemin>0</valuemin>
								<valuemax>3.98109</valuemax>
								<value>0.891251</value>
							</parameter>
						</effect>
					</filter>
					<filter>
						<effect>
							<name>Audio Pan</name>
							<effectid>audiopan</effectid>
							<effectcategory>audiopan</effectcategory>
							<effecttype>audiopan</effecttype>
							<mediatype>audio</mediatype>
							<parameter>
								<name>Pan</name>
								<parameterid>pan</parameterid>
								<valuemin>-1</valuemin>
								<valuemax>1</valuemax>
								<value>1</value>
							</parameter>
						</effect>
					</filter>
					<sourcetrack>
						<mediatype>audio</mediatype>
						<trackindex>2</trackindex>
					</sourcetrack>
					<link>
						<linkclipref>Voice tante taco.WAV</linkclipref>
						<mediatype>audio</mediatype>
						<trackindex>9</trackindex>
						<clipindex>22</clipindex>
						<groupindex>1</groupindex>
					</link>
					<link>
						<linkclipref>Voice tante taco.WAV2</linkclipref>
						<mediatype>audio</mediatype>
						<trackindex>10</trackindex>
						<clipindex>22</clipindex>
						<groupindex>1</groupindex>
					</link>
				</clipitem>
				<clipitem id="Voice tante taco.WAV4">
					<name>Voice tante taco.WAV</name>
					<duration>908</duration>
					<rate>
						<ntsc>FALSE</ntsc>
						<timebase>25</timebase>
					</rate>
					<in>102</in>
					<out>134</out>
					<start>40965</start>
					<end>40997</end>
					<subframeoffset>0</subframeoffset>
					<masterclipid>Voice tante taco.WAV1</masterclipid>
					<logginginfo>
						<scene/>
						<shottake/>
						<lognote/>
						<good>FALSE</good>
					</logginginfo>
					<labels>
						<label2/>
					</labels>
					<comments>
						<mastercomment1/>
						<mastercomment2/>
						<mastercomment3/>
						<mastercomment4/>
					</comments>
					<file id="Voice tante taco"/>
					<filter>
						<start>-1</start>
						<end>-1</end>
						<effect>
							<name>3 Band Equalizer - Kristine</name>
							<effecttype>filter</effecttype>
							<mediatype>audio</mediatype>
							<parameter>
								<parameterid>Low Frequency</parameterid>
								<name>Low Frequency</name>
								<valuemin>80</valuemin>
								<valuemax>2000</valuemax>
								<value>80</value>
							</parameter>
							<parameter>
								<parameterid>Low Gain(dB)</parameterid>
								<name>Low Gain(dB)</name>
								<valuemin>-20</valuemin>
								<valuemax>20</valuemax>
								<value>-4</value>
							</parameter>
							<parameter>
								<parameterid>Mid Frequency</parameterid>
								<name>Mid Frequency</name>
								<valuemin>400</valuemin>
								<valuemax>8000</valuemax>
								<value>3602</value>
							</parameter>
							<parameter>
								<parameterid>Mid Gain(dB)</parameterid>
								<name>Mid Gain(dB)</name>
								<valuemin>-20</valuemin>
								<valuemax>20</valuemax>
								<value>3</value>
							</parameter>
							<parameter>
								<parameterid>High Frequency</parameterid>
								<name>High Frequency</name>
								<valuemin>5000</valuemin>
								<valuemax>20000</valuemax>
								<value>10354</value>
							</parameter>
							<parameter>
								<parameterid>High Gain(dB)</parameterid>
								<name>High Gain(dB)</name>
								<valuemin>-20</valuemin>
								<valuemax>20</valuemax>
								<value>0</value>
							</parameter>
						</effect>
					</filter>
					<filter>
						<effect>
							<name>Audio Levels</name>
							<effectid>audiolevels</effectid>
							<effectcategory>audiolevels</effectcategory>
							<effecttype>audiolevels</effecttype>
							<mediatype>audio</mediatype>
							<parameter>
								<name>Level</name>
								<parameterid>level</parameterid>
								<valuemin>0</valuemin>
								<valuemax>3.98109</valuemax>
								<value>0.891251</value>
							</parameter>
						</effect>
					</filter>
					<filter>
						<effect>
							<name>Audio Pan</name>
							<effectid>audiopan</effectid>
							<effectcategory>audiopan</effectcategory>
							<effecttype>audiopan</effecttype>
							<mediatype>audio</mediatype>
							<parameter>
								<name>Pan</name>
								<parameterid>pan</parameterid>
								<valuemin>-1</valuemin>
								<valuemax>1</valuemax>
								<value>1</value>
							</parameter>
						</effect>
					</filter>
					<sourcetrack>
						<mediatype>audio</mediatype>
						<trackindex>2</trackindex>
					</sourcetrack>
					<link>
						<linkclipref>Voice tante taco.WAV3</linkclipref>
						<mediatype>audio</mediatype>
						<trackindex>9</trackindex>
						<clipindex>23</clipindex>
						<groupindex>1</groupindex>
					</link>
					<link>
						<linkclipref>Voice tante taco.WAV4</linkclipref>
						<mediatype>audio</mediatype>
						<trackindex>10</trackindex>
						<clipindex>23</clipindex>
						<groupindex>1</groupindex>
					</link>
				</clipitem>
				<clipitem id="Voice tante taco.WAV6">
					<name>Voice tante taco.WAV</name>
					<duration>908</duration>
					<rate>
						<ntsc>FALSE</ntsc>
						<timebase>25</timebase>
					</rate>
					<in>198</in>
					<out>388</out>
					<start>41023</start>
					<end>41213</end>
					<subframeoffset>0</subframeoffset>
					<masterclipid>Voice tante taco.WAV1</masterclipid>
					<logginginfo>
						<scene/>
						<shottake/>
						<lognote/>
						<good>FALSE</good>
					</logginginfo>
					<labels>
						<label2/>
					</labels>
					<comments>
						<mastercomment1/>
						<mastercomment2/>
						<mastercomment3/>
						<mastercomment4/>
					</comments>
					<file id="Voice tante taco"/>
					<filter>
						<start>-1</start>
						<end>-1</end>
						<effect>
							<name>3 Band Equalizer - Kristine</name>
							<effecttype>filter</effecttype>
							<mediatype>audio</mediatype>
							<parameter>
								<parameterid>Low Frequency</parameterid>
								<name>Low Frequency</name>
								<valuemin>80</valuemin>
								<valuemax>2000</valuemax>
								<value>80</value>
							</parameter>
							<parameter>
								<parameterid>Low Gain(dB)</parameterid>
								<name>Low Gain(dB)</name>
								<valuemin>-20</valuemin>
								<valuemax>20</valuemax>
								<value>-4</value>
							</parameter>
							<parameter>
								<parameterid>Mid Frequency</parameterid>
								<name>Mid Frequency</name>
								<valuemin>400</valuemin>
								<valuemax>8000</valuemax>
								<value>3602</value>
							</parameter>
							<parameter>
								<parameterid>Mid Gain(dB)</parameterid>
								<name>Mid Gain(dB)</name>
								<valuemin>-20</valuemin>
								<valuemax>20</valuemax>
								<value>3</value>
							</parameter>
							<parameter>
								<parameterid>High Frequency</parameterid>
								<name>High Frequency</name>
								<valuemin>5000</valuemin>
								<valuemax>20000</valuemax>
								<value>10354</value>
							</parameter>
							<parameter>
								<parameterid>High Gain(dB)</parameterid>
								<name>High Gain(dB)</name>
								<valuemin>-20</valuemin>
								<valuemax>20</valuemax>
								<value>0</value>
							</parameter>
						</effect>
					</filter>
					<filter>
						<effect>
							<name>Audio Levels</name>
							<effectid>audiolevels</effectid>
							<effectcategory>audiolevels</effectcategory>
							<effecttype>audiolevels</effecttype>
							<mediatype>audio</mediatype>
							<parameter>
								<name>Level</name>
								<parameterid>level</parameterid>
								<valuemin>0</valuemin>
								<valuemax>3.98109</valuemax>
								<value>1</value>
							</parameter>
						</effect>
					</filter>
					<filter>
						<effect>
							<name>Audio Pan</name>
							<effectid>audiopan</effectid>
							<effectcategory>audiopan</effectcategory>
							<effecttype>audiopan</effecttype>
							<mediatype>audio</mediatype>
							<parameter>
								<name>Pan</name>
								<parameterid>pan</parameterid>
								<valuemin>-1</valuemin>
								<valuemax>1</valuemax>
								<value>1</value>
							</parameter>
						</effect>
					</filter>
					<sourcetrack>
						<mediatype>audio</mediatype>
						<trackindex>2</trackindex>
					</sourcetrack>
					<link>
						<linkclipref>Voice tante taco.WAV5</linkclipref>
						<mediatype>audio</mediatype>
						<trackindex>9</trackindex>
						<clipindex>24</clipindex>
						<groupindex>1</groupindex>
					</link>
					<link>
						<linkclipref>Voice tante taco.WAV6</linkclipref>
						<mediatype>audio</mediatype>
						<trackindex>10</trackindex>
						<clipindex>24</clipindex>
						<groupindex>1</groupindex>
					</link>
				</clipitem>
				<clipitem id="Voice tante taco.WAV8">
					<name>Voice tante taco.WAV</name>
					<duration>908</duration>
					<rate>
						<ntsc>FALSE</ntsc>
						<timebase>25</timebase>
					</rate>
					<in>443</in>
					<out>530</out>
					<start>41218</start>
					<end>41305</end>
					<subframeoffset>0</subframeoffset>
					<enabled>TRUE</enabled>
					<masterclipid>Voice tante taco.WAV1</masterclipid>
					<logginginfo>
						<scene/>
						<shottake/>
						<lognote/>
						<good>FALSE</good>
					</logginginfo>
					<labels>
						<label2/>
					</labels>
					<comments>
						<mastercomment1/>
						<mastercomment2/>
						<mastercomment3/>
						<mastercomment4/>
					</comments>
					<file id="Voice tante taco"/>
					<filter>
						<enabled>TRUE</enabled>
						<start>-1</start>
						<end>-1</end>
						<effect>
							<name>3 Band Equalizer - Kristine</name>
							<effecttype>filter</effecttype>
							<mediatype>audio</mediatype>
							<parameter>
								<parameterid>Low Frequency</parameterid>
								<name>Low Frequency</name>
								<valuemin>80</valuemin>
								<valuemax>2000</valuemax>
								<value>80</value>
							</parameter>
							<parameter>
								<parameterid>Low Gain(dB)</parameterid>
								<name>Low Gain(dB)</name>
								<valuemin>-20</valuemin>
								<valuemax>20</valuemax>
								<value>-4</value>
							</parameter>
							<parameter>
								<parameterid>Mid Frequency</parameterid>
								<name>Mid Frequency</name>
								<valuemin>400</valuemin>
								<valuemax>8000</valuemax>
								<value>3602</value>
							</parameter>
							<parameter>
								<parameterid>Mid Gain(dB)</parameterid>
								<name>Mid Gain(dB)</name>
								<valuemin>-20</valuemin>
								<valuemax>20</valuemax>
								<value>3</value>
							</parameter>
							<parameter>
								<parameterid>High Frequency</parameterid>
								<name>High Frequency</name>
								<valuemin>5000</valuemin>
								<valuemax>20000</valuemax>
								<value>10354</value>
							</parameter>
							<parameter>
								<parameterid>High Gain(dB)</parameterid>
								<name>High Gain(dB)</name>
								<valuemin>-20</valuemin>
								<valuemax>20</valuemax>
								<value>0</value>
							</parameter>
						</effect>
					</filter>
					<filter>
						<effect>
							<name>Audio Levels</name>
							<effectid>audiolevels</effectid>
							<effectcategory>audiolevels</effectcategory>
							<effecttype>audiolevels</effecttype>
							<mediatype>audio</mediatype>
							<parameter>
								<name>Level</name>
								<parameterid>level</parameterid>
								<valuemin>0</valuemin>
								<valuemax>3.98109</valuemax>
								<value>1</value>
							</parameter>
						</effect>
					</filter>
					<filter>
						<effect>
							<name>Audio Pan</name>
							<effectid>audiopan</effectid>
							<effectcategory>audiopan</effectcategory>
							<effecttype>audiopan</effecttype>
							<mediatype>audio</mediatype>
							<parameter>
								<name>Pan</name>
								<parameterid>pan</parameterid>
								<valuemin>-1</valuemin>
								<valuemax>1</valuemax>
								<value>1</value>
							</parameter>
						</effect>
					</filter>
					<sourcetrack>
						<mediatype>audio</mediatype>
						<trackindex>2</trackindex>
					</sourcetrack>
					<link>
						<linkclipref>Voice tante taco.WAV7</linkclipref>
						<mediatype>audio</mediatype>
						<trackindex>9</trackindex>
						<clipindex>25</clipindex>
						<groupindex>1</groupindex>
					</link>
					<link>
						<linkclipref>Voice tante taco.WAV8</linkclipref>
						<mediatype>audio</mediatype>
						<trackindex>10</trackindex>
						<clipindex>25</clipindex>
						<groupindex>1</groupindex>
					</link>
				</clipitem>
				<clipitem id="Voice tante taco.WAV10">
					<name>Voice tante taco.WAV</name>
					<duration>908</duration>
					<rate>
						<ntsc>FALSE</ntsc>
						<timebase>25</timebase>
					</rate>
					<in>568</in>
					<out>737</out>
					<start>41535</start>
					<end>41704</end>
					<subframeoffset>0</subframeoffset>
					<enabled>TRUE</enabled>
					<masterclipid>Voice tante taco.WAV1</masterclipid>
					<logginginfo>
						<scene/>
						<shottake/>
						<lognote/>
						<good>FALSE</good>
					</logginginfo>
					<labels>
						<label2/>
					</labels>
					<comments>
						<mastercomment1/>
						<mastercomment2/>
						<mastercomment3/>
						<mastercomment4/>
					</comments>
					<file id="Voice tante taco"/>
					<filter>
						<enabled>TRUE</enabled>
						<start>-1</start>
						<end>-1</end>
						<effect>
							<name>3 Band Equalizer - Kristine</name>
							<effecttype>filter</effecttype>
							<mediatype>audio</mediatype>
							<parameter>
								<parameterid>Low Frequency</parameterid>
								<name>Low Frequency</name>
								<valuemin>80</valuemin>
								<valuemax>2000</valuemax>
								<value>80</value>
							</parameter>
							<parameter>
								<parameterid>Low Gain(dB)</parameterid>
								<name>Low Gain(dB)</name>
								<valuemin>-20</valuemin>
								<valuemax>20</valuemax>
								<value>-4</value>
							</parameter>
							<parameter>
								<parameterid>Mid Frequency</parameterid>
								<name>Mid Frequency</name>
								<valuemin>400</valuemin>
								<valuemax>8000</valuemax>
								<value>3602</value>
							</parameter>
							<parameter>
								<parameterid>Mid Gain(dB)</parameterid>
								<name>Mid Gain(dB)</name>
								<valuemin>-20</valuemin>
								<valuemax>20</valuemax>
								<value>3</value>
							</parameter>
							<parameter>
								<parameterid>High Frequency</parameterid>
								<name>High Frequency</name>
								<valuemin>5000</valuemin>
								<valuemax>20000</valuemax>
								<value>10354</value>
							</parameter>
							<parameter>
								<parameterid>High Gain(dB)</parameterid>
								<name>High Gain(dB)</name>
								<valuemin>-20</valuemin>
								<valuemax>20</valuemax>
								<value>0</value>
							</parameter>
						</effect>
					</filter>
					<filter>
						<effect>
							<name>Audio Levels</name>
							<effectid>audiolevels</effectid>
							<effectcategory>audiolevels</effectcategory>
							<effecttype>audiolevels</effecttype>
							<mediatype>audio</mediatype>
							<parameter>
								<name>Level</name>
								<parameterid>level</parameterid>
								<valuemin>0</valuemin>
								<valuemax>3.98109</valuemax>
								<value>0.891251</value>
							</parameter>
						</effect>
					</filter>
					<filter>
						<effect>
							<name>Audio Pan</name>
							<effectid>audiopan</effectid>
							<effectcategory>audiopan</effectcategory>
							<effecttype>audiopan</effecttype>
							<mediatype>audio</mediatype>
							<parameter>
								<name>Pan</name>
								<parameterid>pan</parameterid>
								<valuemin>-1</valuemin>
								<valuemax>1</valuemax>
								<value>1</value>
							</parameter>
						</effect>
					</filter>
					<sourcetrack>
						<mediatype>audio</mediatype>
						<trackindex>2</trackindex>
					</sourcetrack>
					<link>
						<linkclipref>Voice tante taco.WAV9</linkclipref>
						<mediatype>audio</mediatype>
						<trackindex>9</trackindex>
						<clipindex>26</clipindex>
						<groupindex>1</groupindex>
					</link>
					<link>
						<linkclipref>Voice tante taco.WAV10</linkclipref>
						<mediatype>audio</mediatype>
						<trackindex>10</trackindex>
						<clipindex>26</clipindex>
						<groupindex>1</groupindex>
					</link>
				</clipitem>
				<clipitem id="Voice tante taco.WAV12">
					<name>Voice tante taco.WAV</name>
					<duration>908</duration>
					<rate>
						<ntsc>FALSE</ntsc>
						<timebase>25</timebase>
					</rate>
					<in>763</in>
					<out>878</out>
					<start>41704</start>
					<end>41819</end>
					<subframeoffset>0</subframeoffset>
					<masterclipid>Voice tante taco.WAV1</masterclipid>
					<logginginfo>
						<scene/>
						<shottake/>
						<lognote/>
						<good>FALSE</good>
					</logginginfo>
					<labels>
						<label2/>
					</labels>
					<comments>
						<mastercomment1/>
						<mastercomment2/>
						<mastercomment3/>
						<mastercomment4/>
					</comments>
					<file id="Voice tante taco"/>
					<filter>
						<start>-1</start>
						<end>-1</end>
						<effect>
							<name>3 Band Equalizer - Kristine</name>
							<effecttype>filter</effecttype>
							<mediatype>audio</mediatype>
							<parameter>
								<parameterid>Low Frequency</parameterid>
								<name>Low Frequency</name>
								<valuemin>80</valuemin>
								<valuemax>2000</valuemax>
								<value>80</value>
							</parameter>
							<parameter>
								<parameterid>Low Gain(dB)</parameterid>
								<name>Low Gain(dB)</name>
								<valuemin>-20</valuemin>
								<valuemax>20</valuemax>
								<value>-4</value>
							</parameter>
							<parameter>
								<parameterid>Mid Frequency</parameterid>
								<name>Mid Frequency</name>
								<valuemin>400</valuemin>
								<valuemax>8000</valuemax>
								<value>3602</value>
							</parameter>
							<parameter>
								<parameterid>Mid Gain(dB)</parameterid>
								<name>Mid Gain(dB)</name>
								<valuemin>-20</valuemin>
								<valuemax>20</valuemax>
								<value>3</value>
							</parameter>
							<parameter>
								<parameterid>High Frequency</parameterid>
								<name>High Frequency</name>
								<valuemin>5000</valuemin>
								<valuemax>20000</valuemax>
								<value>10354</value>
							</parameter>
							<parameter>
								<parameterid>High Gain(dB)</parameterid>
								<name>High Gain(dB)</name>
								<valuemin>-20</valuemin>
								<valuemax>20</valuemax>
								<value>0</value>
							</parameter>
						</effect>
					</filter>
					<filter>
						<effect>
							<name>Audio Levels</name>
							<effectid>audiolevels</effectid>
							<effectcategory>audiolevels</effectcategory>
							<effecttype>audiolevels</effecttype>
							<mediatype>audio</mediatype>
							<parameter>
								<name>Level</name>
								<parameterid>level</parameterid>
								<valuemin>0</valuemin>
								<valuemax>3.98109</valuemax>
								<value>0.891251</value>
							</parameter>
						</effect>
					</filter>
					<filter>
						<effect>
							<name>Audio Pan</name>
							<effectid>audiopan</effectid>
							<effectcategory>audiopan</effectcategory>
							<effecttype>audiopan</effecttype>
							<mediatype>audio</mediatype>
							<parameter>
								<name>Pan</name>
								<parameterid>pan</parameterid>
								<valuemin>-1</valuemin>
								<valuemax>1</valuemax>
								<value>1</value>
							</parameter>
						</effect>
					</filter>
					<sourcetrack>
						<mediatype>audio</mediatype>
						<trackindex>2</trackindex>
					</sourcetrack>
					<link>
						<linkclipref>Voice tante taco.WAV11</linkclipref>
						<mediatype>audio</mediatype>
						<trackindex>9</trackindex>
						<clipindex>27</clipindex>
						<groupindex>1</groupindex>
					</link>
					<link>
						<linkclipref>Voice tante taco.WAV12</linkclipref>
						<mediatype>audio</mediatype>
						<trackindex>10</trackindex>
						<clipindex>27</clipindex>
						<groupindex>1</groupindex>
					</link>
				</clipitem>
				<enabled>TRUE</enabled>
				<locked>FALSE</locked>
				<outputchannelindex>2</outputchannelindex>
			</track>
			<track>
				<clipitem id="Bumper-Finfredag-m_lyd3">
					<name>Bumper-Finfredag-m_lyd</name>
					<duration>104</duration>
					<rate>
						<ntsc>FALSE</ntsc>
						<timebase>25</timebase>
					</rate>
					<in>0</in>
					<out>104</out>
					<start>29070</start>
					<end>29174</end>
					<masterclipid>Bumper-Finfredag-m_lyd1</masterclipid>
					<logginginfo>
						<scene/>
						<shottake/>
						<lognote/>
						<good>FALSE</good>
					</logginginfo>
					<labels>
						<label2/>
					</labels>
					<comments>
						<mastercomment1/>
						<mastercomment2/>
						<mastercomment3/>
						<mastercomment4/>
					</comments>
					<file id="Bumper-Finfredag-m_lyd2"/>
					<filter>
						<effect>
							<name>Audio Levels</name>
							<effectid>audiolevels</effectid>
							<effectcategory>audiolevels</effectcategory>
							<effecttype>audiolevels</effecttype>
							<mediatype>audio</mediatype>
							<parameter>
								<name>Level</name>
								<parameterid>level</parameterid>
								<valuemin>0</valuemin>
								<valuemax>3.98109</valuemax>
								<value>1</value>
							</parameter>
						</effect>
					</filter>
					<filter>
						<effect>
							<name>Audio Pan</name>
							<effectid>audiopan</effectid>
							<effectcategory>audiopan</effectcategory>
							<effecttype>audiopan</effecttype>
							<mediatype>audio</mediatype>
							<parameter>
								<name>Pan</name>
								<parameterid>pan</parameterid>
								<valuemin>-1</valuemin>
								<valuemax>1</valuemax>
								<value>-1</value>
							</parameter>
						</effect>
					</filter>
					<sourcetrack>
						<mediatype>audio</mediatype>
						<trackindex>1</trackindex>
					</sourcetrack>
					<link>
						<linkclipref>Bumper-Finfredag-m_lyd</linkclipref>
						<mediatype>video</mediatype>
						<trackindex>4</trackindex>
						<clipindex>8</clipindex>
					</link>
					<link>
						<linkclipref>Bumper-Finfredag-m_lyd3</linkclipref>
						<mediatype>audio</mediatype>
						<trackindex>11</trackindex>
						<clipindex>1</clipindex>
					</link>
					<link>
						<linkclipref>Bumper-Finfredag-m_lyd4</linkclipref>
						<mediatype>audio</mediatype>
						<trackindex>12</trackindex>
						<clipindex>1</clipindex>
					</link>
				</clipitem>
				<enabled>TRUE</enabled>
				<locked>FALSE</locked>
				<outputchannelindex>1</outputchannelindex>
			</track>
			<track>
				<clipitem id="Bumper-Finfredag-m_lyd4">
					<name>Bumper-Finfredag-m_lyd</name>
					<duration>104</duration>
					<rate>
						<ntsc>FALSE</ntsc>
						<timebase>25</timebase>
					</rate>
					<in>0</in>
					<out>104</out>
					<start>29070</start>
					<end>29174</end>
					<masterclipid>Bumper-Finfredag-m_lyd1</masterclipid>
					<logginginfo>
						<scene/>
						<shottake/>
						<lognote/>
						<good>FALSE</good>
					</logginginfo>
					<labels>
						<label2/>
					</labels>
					<comments>
						<mastercomment1/>
						<mastercomment2/>
						<mastercomment3/>
						<mastercomment4/>
					</comments>
					<file id="Bumper-Finfredag-m_lyd2"/>
					<filter>
						<effect>
							<name>Audio Levels</name>
							<effectid>audiolevels</effectid>
							<effectcategory>audiolevels</effectcategory>
							<effecttype>audiolevels</effecttype>
							<mediatype>audio</mediatype>
							<parameter>
								<name>Level</name>
								<parameterid>level</parameterid>
								<valuemin>0</valuemin>
								<valuemax>3.98109</valuemax>
								<value>1</value>
							</parameter>
						</effect>
					</filter>
					<filter>
						<effect>
							<name>Audio Pan</name>
							<effectid>audiopan</effectid>
							<effectcategory>audiopan</effectcategory>
							<effecttype>audiopan</effecttype>
							<mediatype>audio</mediatype>
							<parameter>
								<name>Pan</name>
								<parameterid>pan</parameterid>
								<valuemin>-1</valuemin>
								<valuemax>1</valuemax>
								<value>1</value>
							</parameter>
						</effect>
					</filter>
					<sourcetrack>
						<mediatype>audio</mediatype>
						<trackindex>2</trackindex>
					</sourcetrack>
					<link>
						<linkclipref>Bumper-Finfredag-m_lyd</linkclipref>
						<mediatype>video</mediatype>
						<trackindex>4</trackindex>
						<clipindex>8</clipindex>
					</link>
					<link>
						<linkclipref>Bumper-Finfredag-m_lyd3</linkclipref>
						<mediatype>audio</mediatype>
						<trackindex>11</trackindex>
						<clipindex>1</clipindex>
					</link>
					<link>
						<linkclipref>Bumper-Finfredag-m_lyd4</linkclipref>
						<mediatype>audio</mediatype>
						<trackindex>12</trackindex>
						<clipindex>1</clipindex>
					</link>
				</clipitem>
				<enabled>TRUE</enabled>
				<locked>FALSE</locked>
				<outputchannelindex>2</outputchannelindex>
			</track>
		</audio>
	</media>
	<ismasterclip>FALSE</ismasterclip>
	<marker>
		<name>Marker 7</name>
		<in>39442</in>
		<out>-1</out>
	</marker>
	<labels>
		<label>Best Take</label>
	</labels>
</sequence>
<bin>
	<name>Multiclips</name>
	<children>
		<clip id="msub200012-0409d2k1006 5">
			<name>msub200012-0409d2k1006</name>
			<duration>1289</duration>
			<rate>
				<ntsc>FALSE</ntsc>
				<timebase>25</timebase>
			</rate>
			<in>347</in>
			<out>1117</out>
			<masterclipid>msub200012-0409d2k1006 1</masterclipid>
			<ismasterclip>FALSE</ismasterclip>
			<logginginfo>
				<description>msub200012-0409d2k1006</description>
				<scene/>
				<shottake/>
				<lognote/>
				<good>FALSE</good>
			</logginginfo>
			<labels>
				<label>Good Take</label>
				<label2/>
			</labels>
			<comments>
				<mastercomment1>RÅSTOFF. BR_FINFREDAG_MSUA_OPRO</mastercomment1>
				<mastercomment2/>
				<mastercomment3/>
				<mastercomment4/>
			</comments>
			<media>
				<video>
					<track>
						<clipitem id="msub200012-0409d2k1006 6">
							<name>msub200012-0409d2k1006</name>
							<duration>1289</duration>
							<rate>
								<ntsc>FALSE</ntsc>
								<timebase>25</timebase>
							</rate>
							<in>0</in>
							<out>1289</out>
							<start>0</start>
							<end>1289</end>
							<pixelaspectratio>Square</pixelaspectratio>
							<anamorphic>FALSE</anamorphic>
							<alphatype>none</alphatype>
							<masterclipid>msub200012-0409d2k1006 1</masterclipid>
							<syncoffset>0</syncoffset>
							<logginginfo>
								<description>msub200012-0409d2k1006</description>
								<scene/>
								<shottake/>
								<lognote/>
								<good>FALSE</good>
							</logginginfo>
							<labels>
								<label>Good Take</label>
								<label2/>
							</labels>
							<comments>
								<mastercomment1>RÅSTOFF. BR_FINFREDAG_MSUA_OPRO</mastercomment1>
								<mastercomment2/>
								<mastercomment3/>
								<mastercomment4/>
							</comments>
							<file id="msub200012-0409d2k1006 2"/>
							<sourcetrack>
								<mediatype>video</mediatype>
							</sourcetrack>
							<link>
								<linkclipref>msub200012-0409d2k1006 6</linkclipref>
								<mediatype>video</mediatype>
								<trackindex>1</trackindex>
								<clipindex>1</clipindex>
							</link>
							<link>
								<linkclipref>msub200012-0409d2k1006 7</linkclipref>
								<mediatype>audio</mediatype>
								<trackindex>1</trackindex>
								<clipindex>1</clipindex>
							</link>
							<link>
								<linkclipref>msub200012-0409d2k1006 8</linkclipref>
								<mediatype>audio</mediatype>
								<trackindex>2</trackindex>
								<clipindex>1</clipindex>
							</link>
							<link>
								<linkclipref>msub200012-0409d2k1006 9</linkclipref>
								<mediatype>audio</mediatype>
								<trackindex>3</trackindex>
								<clipindex>1</clipindex>
							</link>
							<link>
								<linkclipref>msub200012-0409d2k1006 10</linkclipref>
								<mediatype>audio</mediatype>
								<trackindex>4</trackindex>
								<clipindex>1</clipindex>
							</link>
							<link>
								<linkclipref>msub200012-0409d2k1006 11</linkclipref>
								<mediatype>audio</mediatype>
								<trackindex>5</trackindex>
								<clipindex>1</clipindex>
							</link>
							<link>
								<linkclipref>msub200012-0409d2k1006 12</linkclipref>
								<mediatype>audio</mediatype>
								<trackindex>6</trackindex>
								<clipindex>1</clipindex>
							</link>
							<link>
								<linkclipref>msub200012-0409d2k1006 13</linkclipref>
								<mediatype>audio</mediatype>
								<trackindex>7</trackindex>
								<clipindex>1</clipindex>
							</link>
							<link>
								<linkclipref>msub200012-0409d2k1006 14</linkclipref>
								<mediatype>audio</mediatype>
								<trackindex>8</trackindex>
								<clipindex>1</clipindex>
							</link>
							<fielddominance>upper</fielddominance>
						</clipitem>
						<enabled>TRUE</enabled>
						<locked>FALSE</locked>
					</track>
				</video>
				<audio>
					<in>347</in>
					<out>1117</out>
					<track>
						<clipitem id="msub200012-0409d2k1006 7">
							<name>msub200012-0409d2k1006</name>
							<duration>1289</duration>
							<rate>
								<ntsc>FALSE</ntsc>
								<timebase>25</timebase>
							</rate>
							<in>0</in>
							<out>1289</out>
							<start>0</start>
							<end>1289</end>
							<subframeoffset>0</subframeoffset>
							<masterclipid>msub200012-0409d2k1006 1</masterclipid>
							<syncoffset>0</syncoffset>
							<logginginfo>
								<description>msub200012-0409d2k1006</description>
								<scene/>
								<shottake/>
								<lognote/>
								<good>FALSE</good>
							</logginginfo>
							<labels>
								<label>Good Take</label>
								<label2/>
							</labels>
							<comments>
								<mastercomment1>RÅSTOFF. BR_FINFREDAG_MSUA_OPRO</mastercomment1>
								<mastercomment2/>
								<mastercomment3/>
								<mastercomment4/>
							</comments>
							<file id="msub200012-0409d2k1006 2"/>
							<filter>
								<effect>
									<name>Audio Levels</name>
									<effectid>audiolevels</effectid>
									<effectcategory>audiolevels</effectcategory>
									<effecttype>audiolevels</effecttype>
									<mediatype>audio</mediatype>
									<parameter>
										<name>Level</name>
										<parameterid>level</parameterid>
										<valuemin>0</valuemin>
										<valuemax>3.98109</valuemax>
										<value>1</value>
									</parameter>
								</effect>
							</filter>
							<filter>
								<effect>
									<name>Audio Pan</name>
									<effectid>audiopan</effectid>
									<effectcategory>audiopan</effectcategory>
									<effecttype>audiopan</effecttype>
									<mediatype>audio</mediatype>
									<parameter>
										<name>Pan</name>
										<parameterid>pan</parameterid>
										<valuemin>-1</valuemin>
										<valuemax>1</valuemax>
										<value>0</value>
									</parameter>
								</effect>
							</filter>
							<sourcetrack>
								<mediatype>audio</mediatype>
								<trackindex>1</trackindex>
							</sourcetrack>
							<link>
								<linkclipref>msub200012-0409d2k1006 6</linkclipref>
								<mediatype>video</mediatype>
								<trackindex>1</trackindex>
								<clipindex>1</clipindex>
							</link>
							<link>
								<linkclipref>msub200012-0409d2k1006 7</linkclipref>
								<mediatype>audio</mediatype>
								<trackindex>1</trackindex>
								<clipindex>1</clipindex>
							</link>
							<link>
								<linkclipref>msub200012-0409d2k1006 8</linkclipref>
								<mediatype>audio</mediatype>
								<trackindex>2</trackindex>
								<clipindex>1</clipindex>
							</link>
							<link>
								<linkclipref>msub200012-0409d2k1006 9</linkclipref>
								<mediatype>audio</mediatype>
								<trackindex>3</trackindex>
								<clipindex>1</clipindex>
							</link>
							<link>
								<linkclipref>msub200012-0409d2k1006 10</linkclipref>
								<mediatype>audio</mediatype>
								<trackindex>4</trackindex>
								<clipindex>1</clipindex>
							</link>
							<link>
								<linkclipref>msub200012-0409d2k1006 11</linkclipref>
								<mediatype>audio</mediatype>
								<trackindex>5</trackindex>
								<clipindex>1</clipindex>
							</link>
							<link>
								<linkclipref>msub200012-0409d2k1006 12</linkclipref>
								<mediatype>audio</mediatype>
								<trackindex>6</trackindex>
								<clipindex>1</clipindex>
							</link>
							<link>
								<linkclipref>msub200012-0409d2k1006 13</linkclipref>
								<mediatype>audio</mediatype>
								<trackindex>7</trackindex>
								<clipindex>1</clipindex>
							</link>
							<link>
								<linkclipref>msub200012-0409d2k1006 14</linkclipref>
								<mediatype>audio</mediatype>
								<trackindex>8</trackindex>
								<clipindex>1</clipindex>
							</link>
						</clipitem>
						<enabled>TRUE</enabled>
						<locked>FALSE</locked>
					</track>
					<track>
						<clipitem id="msub200012-0409d2k1006 8">
							<name>msub200012-0409d2k1006</name>
							<duration>1289</duration>
							<rate>
								<ntsc>FALSE</ntsc>
								<timebase>25</timebase>
							</rate>
							<in>0</in>
							<out>1289</out>
							<start>0</start>
							<end>1289</end>
							<subframeoffset>0</subframeoffset>
							<masterclipid>msub200012-0409d2k1006 1</masterclipid>
							<syncoffset>0</syncoffset>
							<logginginfo>
								<description>msub200012-0409d2k1006</description>
								<scene/>
								<shottake/>
								<lognote/>
								<good>FALSE</good>
							</logginginfo>
							<labels>
								<label>Good Take</label>
								<label2/>
							</labels>
							<comments>
								<mastercomment1>RÅSTOFF. BR_FINFREDAG_MSUA_OPRO</mastercomment1>
								<mastercomment2/>
								<mastercomment3/>
								<mastercomment4/>
							</comments>
							<file id="msub200012-0409d2k1006 2"/>
							<filter>
								<effect>
									<name>Audio Levels</name>
									<effectid>audiolevels</effectid>
									<effectcategory>audiolevels</effectcategory>
									<effecttype>audiolevels</effecttype>
									<mediatype>audio</mediatype>
									<parameter>
										<name>Level</name>
										<parameterid>level</parameterid>
										<valuemin>0</valuemin>
										<valuemax>3.98109</valuemax>
										<value>1</value>
									</parameter>
								</effect>
							</filter>
							<filter>
								<effect>
									<name>Audio Pan</name>
									<effectid>audiopan</effectid>
									<effectcategory>audiopan</effectcategory>
									<effecttype>audiopan</effecttype>
									<mediatype>audio</mediatype>
									<parameter>
										<name>Pan</name>
										<parameterid>pan</parameterid>
										<valuemin>-1</valuemin>
										<valuemax>1</valuemax>
										<value>0</value>
									</parameter>
								</effect>
							</filter>
							<sourcetrack>
								<mediatype>audio</mediatype>
								<trackindex>2</trackindex>
							</sourcetrack>
							<link>
								<linkclipref>msub200012-0409d2k1006 6</linkclipref>
								<mediatype>video</mediatype>
								<trackindex>1</trackindex>
								<clipindex>1</clipindex>
							</link>
							<link>
								<linkclipref>msub200012-0409d2k1006 7</linkclipref>
								<mediatype>audio</mediatype>
								<trackindex>1</trackindex>
								<clipindex>1</clipindex>
							</link>
							<link>
								<linkclipref>msub200012-0409d2k1006 8</linkclipref>
								<mediatype>audio</mediatype>
								<trackindex>2</trackindex>
								<clipindex>1</clipindex>
							</link>
							<link>
								<linkclipref>msub200012-0409d2k1006 9</linkclipref>
								<mediatype>audio</mediatype>
								<trackindex>3</trackindex>
								<clipindex>1</clipindex>
							</link>
							<link>
								<linkclipref>msub200012-0409d2k1006 10</linkclipref>
								<mediatype>audio</mediatype>
								<trackindex>4</trackindex>
								<clipindex>1</clipindex>
							</link>
							<link>
								<linkclipref>msub200012-0409d2k1006 11</linkclipref>
								<mediatype>audio</mediatype>
								<trackindex>5</trackindex>
								<clipindex>1</clipindex>
							</link>
							<link>
								<linkclipref>msub200012-0409d2k1006 12</linkclipref>
								<mediatype>audio</mediatype>
								<trackindex>6</trackindex>
								<clipindex>1</clipindex>
							</link>
							<link>
								<linkclipref>msub200012-0409d2k1006 13</linkclipref>
								<mediatype>audio</mediatype>
								<trackindex>7</trackindex>
								<clipindex>1</clipindex>
							</link>
							<link>
								<linkclipref>msub200012-0409d2k1006 14</linkclipref>
								<mediatype>audio</mediatype>
								<trackindex>8</trackindex>
								<clipindex>1</clipindex>
							</link>
						</clipitem>
						<enabled>TRUE</enabled>
						<locked>FALSE</locked>
					</track>
					<track>
						<clipitem id="msub200012-0409d2k1006 9">
							<name>msub200012-0409d2k1006</name>
							<duration>1289</duration>
							<rate>
								<ntsc>FALSE</ntsc>
								<timebase>25</timebase>
							</rate>
							<in>0</in>
							<out>1289</out>
							<start>0</start>
							<end>1289</end>
							<subframeoffset>0</subframeoffset>
							<masterclipid>msub200012-0409d2k1006 1</masterclipid>
							<syncoffset>0</syncoffset>
							<logginginfo>
								<description>msub200012-0409d2k1006</description>
								<scene/>
								<shottake/>
								<lognote/>
								<good>FALSE</good>
							</logginginfo>
							<labels>
								<label>Good Take</label>
								<label2/>
							</labels>
							<comments>
								<mastercomment1>RÅSTOFF. BR_FINFREDAG_MSUA_OPRO</mastercomment1>
								<mastercomment2/>
								<mastercomment3/>
								<mastercomment4/>
							</comments>
							<file id="msub200012-0409d2k1006 2"/>
							<filter>
								<effect>
									<name>Audio Levels</name>
									<effectid>audiolevels</effectid>
									<effectcategory>audiolevels</effectcategory>
									<effecttype>audiolevels</effecttype>
									<mediatype>audio</mediatype>
									<parameter>
										<name>Level</name>
										<parameterid>level</parameterid>
										<valuemin>0</valuemin>
										<valuemax>3.98109</valuemax>
										<value>1</value>
									</parameter>
								</effect>
							</filter>
							<filter>
								<effect>
									<name>Audio Pan</name>
									<effectid>audiopan</effectid>
									<effectcategory>audiopan</effectcategory>
									<effecttype>audiopan</effecttype>
									<mediatype>audio</mediatype>
									<parameter>
										<name>Pan</name>
										<parameterid>pan</parameterid>
										<valuemin>-1</valuemin>
										<valuemax>1</valuemax>
										<value>0</value>
									</parameter>
								</effect>
							</filter>
							<sourcetrack>
								<mediatype>audio</mediatype>
								<trackindex>3</trackindex>
							</sourcetrack>
							<link>
								<linkclipref>msub200012-0409d2k1006 6</linkclipref>
								<mediatype>video</mediatype>
								<trackindex>1</trackindex>
								<clipindex>1</clipindex>
							</link>
							<link>
								<linkclipref>msub200012-0409d2k1006 7</linkclipref>
								<mediatype>audio</mediatype>
								<trackindex>1</trackindex>
								<clipindex>1</clipindex>
							</link>
							<link>
								<linkclipref>msub200012-0409d2k1006 8</linkclipref>
								<mediatype>audio</mediatype>
								<trackindex>2</trackindex>
								<clipindex>1</clipindex>
							</link>
							<link>
								<linkclipref>msub200012-0409d2k1006 9</linkclipref>
								<mediatype>audio</mediatype>
								<trackindex>3</trackindex>
								<clipindex>1</clipindex>
							</link>
							<link>
								<linkclipref>msub200012-0409d2k1006 10</linkclipref>
								<mediatype>audio</mediatype>
								<trackindex>4</trackindex>
								<clipindex>1</clipindex>
							</link>
							<link>
								<linkclipref>msub200012-0409d2k1006 11</linkclipref>
								<mediatype>audio</mediatype>
								<trackindex>5</trackindex>
								<clipindex>1</clipindex>
							</link>
							<link>
								<linkclipref>msub200012-0409d2k1006 12</linkclipref>
								<mediatype>audio</mediatype>
								<trackindex>6</trackindex>
								<clipindex>1</clipindex>
							</link>
							<link>
								<linkclipref>msub200012-0409d2k1006 13</linkclipref>
								<mediatype>audio</mediatype>
								<trackindex>7</trackindex>
								<clipindex>1</clipindex>
							</link>
							<link>
								<linkclipref>msub200012-0409d2k1006 14</linkclipref>
								<mediatype>audio</mediatype>
								<trackindex>8</trackindex>
								<clipindex>1</clipindex>
							</link>
						</clipitem>
						<enabled>TRUE</enabled>
						<locked>FALSE</locked>
					</track>
					<track>
						<clipitem id="msub200012-0409d2k1006 10">
							<name>msub200012-0409d2k1006</name>
							<duration>1289</duration>
							<rate>
								<ntsc>FALSE</ntsc>
								<timebase>25</timebase>
							</rate>
							<in>0</in>
							<out>1289</out>
							<start>0</start>
							<end>1289</end>
							<subframeoffset>0</subframeoffset>
							<masterclipid>msub200012-0409d2k1006 1</masterclipid>
							<syncoffset>0</syncoffset>
							<logginginfo>
								<description>msub200012-0409d2k1006</description>
								<scene/>
								<shottake/>
								<lognote/>
								<good>FALSE</good>
							</logginginfo>
							<labels>
								<label>Good Take</label>
								<label2/>
							</labels>
							<comments>
								<mastercomment1>RÅSTOFF. BR_FINFREDAG_MSUA_OPRO</mastercomment1>
								<mastercomment2/>
								<mastercomment3/>
								<mastercomment4/>
							</comments>
							<file id="msub200012-0409d2k1006 2"/>
							<filter>
								<effect>
									<name>Audio Levels</name>
									<effectid>audiolevels</effectid>
									<effectcategory>audiolevels</effectcategory>
									<effecttype>audiolevels</effecttype>
									<mediatype>audio</mediatype>
									<parameter>
										<name>Level</name>
										<parameterid>level</parameterid>
										<valuemin>0</valuemin>
										<valuemax>3.98109</valuemax>
										<value>1</value>
									</parameter>
								</effect>
							</filter>
							<filter>
								<effect>
									<name>Audio Pan</name>
									<effectid>audiopan</effectid>
									<effectcategory>audiopan</effectcategory>
									<effecttype>audiopan</effecttype>
									<mediatype>audio</mediatype>
									<parameter>
										<name>Pan</name>
										<parameterid>pan</parameterid>
										<valuemin>-1</valuemin>
										<valuemax>1</valuemax>
										<value>0</value>
									</parameter>
								</effect>
							</filter>
							<sourcetrack>
								<mediatype>audio</mediatype>
								<trackindex>4</trackindex>
							</sourcetrack>
							<link>
								<linkclipref>msub200012-0409d2k1006 6</linkclipref>
								<mediatype>video</mediatype>
								<trackindex>1</trackindex>
								<clipindex>1</clipindex>
							</link>
							<link>
								<linkclipref>msub200012-0409d2k1006 7</linkclipref>
								<mediatype>audio</mediatype>
								<trackindex>1</trackindex>
								<clipindex>1</clipindex>
							</link>
							<link>
								<linkclipref>msub200012-0409d2k1006 8</linkclipref>
								<mediatype>audio</mediatype>
								<trackindex>2</trackindex>
								<clipindex>1</clipindex>
							</link>
							<link>
								<linkclipref>msub200012-0409d2k1006 9</linkclipref>
								<mediatype>audio</mediatype>
								<trackindex>3</trackindex>
								<clipindex>1</clipindex>
							</link>
							<link>
								<linkclipref>msub200012-0409d2k1006 10</linkclipref>
								<mediatype>audio</mediatype>
								<trackindex>4</trackindex>
								<clipindex>1</clipindex>
							</link>
							<link>
								<linkclipref>msub200012-0409d2k1006 11</linkclipref>
								<mediatype>audio</mediatype>
								<trackindex>5</trackindex>
								<clipindex>1</clipindex>
							</link>
							<link>
								<linkclipref>msub200012-0409d2k1006 12</linkclipref>
								<mediatype>audio</mediatype>
								<trackindex>6</trackindex>
								<clipindex>1</clipindex>
							</link>
							<link>
								<linkclipref>msub200012-0409d2k1006 13</linkclipref>
								<mediatype>audio</mediatype>
								<trackindex>7</trackindex>
								<clipindex>1</clipindex>
							</link>
							<link>
								<linkclipref>msub200012-0409d2k1006 14</linkclipref>
								<mediatype>audio</mediatype>
								<trackindex>8</trackindex>
								<clipindex>1</clipindex>
							</link>
						</clipitem>
						<enabled>TRUE</enabled>
						<locked>FALSE</locked>
					</track>
					<track>
						<clipitem id="msub200012-0409d2k1006 11">
							<name>msub200012-0409d2k1006</name>
							<duration>1289</duration>
							<rate>
								<ntsc>FALSE</ntsc>
								<timebase>25</timebase>
							</rate>
							<in>0</in>
							<out>1289</out>
							<start>0</start>
							<end>1289</end>
							<subframeoffset>0</subframeoffset>
							<masterclipid>msub200012-0409d2k1006 1</masterclipid>
							<syncoffset>0</syncoffset>
							<logginginfo>
								<description>msub200012-0409d2k1006</description>
								<scene/>
								<shottake/>
								<lognote/>
								<good>FALSE</good>
							</logginginfo>
							<labels>
								<label>Good Take</label>
								<label2/>
							</labels>
							<comments>
								<mastercomment1>RÅSTOFF. BR_FINFREDAG_MSUA_OPRO</mastercomment1>
								<mastercomment2/>
								<mastercomment3/>
								<mastercomment4/>
							</comments>
							<file id="msub200012-0409d2k1006 2"/>
							<filter>
								<effect>
									<name>Audio Levels</name>
									<effectid>audiolevels</effectid>
									<effectcategory>audiolevels</effectcategory>
									<effecttype>audiolevels</effecttype>
									<mediatype>audio</mediatype>
									<parameter>
										<name>Level</name>
										<parameterid>level</parameterid>
										<valuemin>0</valuemin>
										<valuemax>3.98109</valuemax>
										<value>1</value>
									</parameter>
								</effect>
							</filter>
							<filter>
								<effect>
									<name>Audio Pan</name>
									<effectid>audiopan</effectid>
									<effectcategory>audiopan</effectcategory>
									<effecttype>audiopan</effecttype>
									<mediatype>audio</mediatype>
									<parameter>
										<name>Pan</name>
										<parameterid>pan</parameterid>
										<valuemin>-1</valuemin>
										<valuemax>1</valuemax>
										<value>0</value>
									</parameter>
								</effect>
							</filter>
							<sourcetrack>
								<mediatype>audio</mediatype>
								<trackindex>5</trackindex>
							</sourcetrack>
							<link>
								<linkclipref>msub200012-0409d2k1006 6</linkclipref>
								<mediatype>video</mediatype>
								<trackindex>1</trackindex>
								<clipindex>1</clipindex>
							</link>
							<link>
								<linkclipref>msub200012-0409d2k1006 7</linkclipref>
								<mediatype>audio</mediatype>
								<trackindex>1</trackindex>
								<clipindex>1</clipindex>
							</link>
							<link>
								<linkclipref>msub200012-0409d2k1006 8</linkclipref>
								<mediatype>audio</mediatype>
								<trackindex>2</trackindex>
								<clipindex>1</clipindex>
							</link>
							<link>
								<linkclipref>msub200012-0409d2k1006 9</linkclipref>
								<mediatype>audio</mediatype>
								<trackindex>3</trackindex>
								<clipindex>1</clipindex>
							</link>
							<link>
								<linkclipref>msub200012-0409d2k1006 10</linkclipref>
								<mediatype>audio</mediatype>
								<trackindex>4</trackindex>
								<clipindex>1</clipindex>
							</link>
							<link>
								<linkclipref>msub200012-0409d2k1006 11</linkclipref>
								<mediatype>audio</mediatype>
								<trackindex>5</trackindex>
								<clipindex>1</clipindex>
							</link>
							<link>
								<linkclipref>msub200012-0409d2k1006 12</linkclipref>
								<mediatype>audio</mediatype>
								<trackindex>6</trackindex>
								<clipindex>1</clipindex>
							</link>
							<link>
								<linkclipref>msub200012-0409d2k1006 13</linkclipref>
								<mediatype>audio</mediatype>
								<trackindex>7</trackindex>
								<clipindex>1</clipindex>
							</link>
							<link>
								<linkclipref>msub200012-0409d2k1006 14</linkclipref>
								<mediatype>audio</mediatype>
								<trackindex>8</trackindex>
								<clipindex>1</clipindex>
							</link>
						</clipitem>
						<enabled>TRUE</enabled>
						<locked>FALSE</locked>
					</track>
					<track>
						<clipitem id="msub200012-0409d2k1006 12">
							<name>msub200012-0409d2k1006</name>
							<duration>1289</duration>
							<rate>
								<ntsc>FALSE</ntsc>
								<timebase>25</timebase>
							</rate>
							<in>0</in>
							<out>1289</out>
							<start>0</start>
							<end>1289</end>
							<subframeoffset>0</subframeoffset>
							<masterclipid>msub200012-0409d2k1006 1</masterclipid>
							<syncoffset>0</syncoffset>
							<logginginfo>
								<description>msub200012-0409d2k1006</description>
								<scene/>
								<shottake/>
								<lognote/>
								<good>FALSE</good>
							</logginginfo>
							<labels>
								<label>Good Take</label>
								<label2/>
							</labels>
							<comments>
								<mastercomment1>RÅSTOFF. BR_FINFREDAG_MSUA_OPRO</mastercomment1>
								<mastercomment2/>
								<mastercomment3/>
								<mastercomment4/>
							</comments>
							<file id="msub200012-0409d2k1006 2"/>
							<filter>
								<effect>
									<name>Audio Levels</name>
									<effectid>audiolevels</effectid>
									<effectcategory>audiolevels</effectcategory>
									<effecttype>audiolevels</effecttype>
									<mediatype>audio</mediatype>
									<parameter>
										<name>Level</name>
										<parameterid>level</parameterid>
										<valuemin>0</valuemin>
										<valuemax>3.98109</valuemax>
										<value>1</value>
									</parameter>
								</effect>
							</filter>
							<filter>
								<effect>
									<name>Audio Pan</name>
									<effectid>audiopan</effectid>
									<effectcategory>audiopan</effectcategory>
									<effecttype>audiopan</effecttype>
									<mediatype>audio</mediatype>
									<parameter>
										<name>Pan</name>
										<parameterid>pan</parameterid>
										<valuemin>-1</valuemin>
										<valuemax>1</valuemax>
										<value>0</value>
									</parameter>
								</effect>
							</filter>
							<sourcetrack>
								<mediatype>audio</mediatype>
								<trackindex>6</trackindex>
							</sourcetrack>
							<link>
								<linkclipref>msub200012-0409d2k1006 6</linkclipref>
								<mediatype>video</mediatype>
								<trackindex>1</trackindex>
								<clipindex>1</clipindex>
							</link>
							<link>
								<linkclipref>msub200012-0409d2k1006 7</linkclipref>
								<mediatype>audio</mediatype>
								<trackindex>1</trackindex>
								<clipindex>1</clipindex>
							</link>
							<link>
								<linkclipref>msub200012-0409d2k1006 8</linkclipref>
								<mediatype>audio</mediatype>
								<trackindex>2</trackindex>
								<clipindex>1</clipindex>
							</link>
							<link>
								<linkclipref>msub200012-0409d2k1006 9</linkclipref>
								<mediatype>audio</mediatype>
								<trackindex>3</trackindex>
								<clipindex>1</clipindex>
							</link>
							<link>
								<linkclipref>msub200012-0409d2k1006 10</linkclipref>
								<mediatype>audio</mediatype>
								<trackindex>4</trackindex>
								<clipindex>1</clipindex>
							</link>
							<link>
								<linkclipref>msub200012-0409d2k1006 11</linkclipref>
								<mediatype>audio</mediatype>
								<trackindex>5</trackindex>
								<clipindex>1</clipindex>
							</link>
							<link>
								<linkclipref>msub200012-0409d2k1006 12</linkclipref>
								<mediatype>audio</mediatype>
								<trackindex>6</trackindex>
								<clipindex>1</clipindex>
							</link>
							<link>
								<linkclipref>msub200012-0409d2k1006 13</linkclipref>
								<mediatype>audio</mediatype>
								<trackindex>7</trackindex>
								<clipindex>1</clipindex>
							</link>
							<link>
								<linkclipref>msub200012-0409d2k1006 14</linkclipref>
								<mediatype>audio</mediatype>
								<trackindex>8</trackindex>
								<clipindex>1</clipindex>
							</link>
						</clipitem>
						<enabled>TRUE</enabled>
						<locked>FALSE</locked>
					</track>
					<track>
						<clipitem id="msub200012-0409d2k1006 13">
							<name>msub200012-0409d2k1006</name>
							<duration>1289</duration>
							<rate>
								<ntsc>FALSE</ntsc>
								<timebase>25</timebase>
							</rate>
							<in>0</in>
							<out>1289</out>
							<start>0</start>
							<end>1289</end>
							<subframeoffset>0</subframeoffset>
							<masterclipid>msub200012-0409d2k1006 1</masterclipid>
							<syncoffset>0</syncoffset>
							<logginginfo>
								<description>msub200012-0409d2k1006</description>
								<scene/>
								<shottake/>
								<lognote/>
								<good>FALSE</good>
							</logginginfo>
							<labels>
								<label>Good Take</label>
								<label2/>
							</labels>
							<comments>
								<mastercomment1>RÅSTOFF. BR_FINFREDAG_MSUA_OPRO</mastercomment1>
								<mastercomment2/>
								<mastercomment3/>
								<mastercomment4/>
							</comments>
							<file id="msub200012-0409d2k1006 2"/>
							<filter>
								<effect>
									<name>Audio Levels</name>
									<effectid>audiolevels</effectid>
									<effectcategory>audiolevels</effectcategory>
									<effecttype>audiolevels</effecttype>
									<mediatype>audio</mediatype>
									<parameter>
										<name>Level</name>
										<parameterid>level</parameterid>
										<valuemin>0</valuemin>
										<valuemax>3.98109</valuemax>
										<value>1</value>
									</parameter>
								</effect>
							</filter>
							<filter>
								<effect>
									<name>Audio Pan</name>
									<effectid>audiopan</effectid>
									<effectcategory>audiopan</effectcategory>
									<effecttype>audiopan</effecttype>
									<mediatype>audio</mediatype>
									<parameter>
										<name>Pan</name>
										<parameterid>pan</parameterid>
										<valuemin>-1</valuemin>
										<valuemax>1</valuemax>
										<value>0</value>
									</parameter>
								</effect>
							</filter>
							<sourcetrack>
								<mediatype>audio</mediatype>
								<trackindex>7</trackindex>
							</sourcetrack>
							<link>
								<linkclipref>msub200012-0409d2k1006 6</linkclipref>
								<mediatype>video</mediatype>
								<trackindex>1</trackindex>
								<clipindex>1</clipindex>
							</link>
							<link>
								<linkclipref>msub200012-0409d2k1006 7</linkclipref>
								<mediatype>audio</mediatype>
								<trackindex>1</trackindex>
								<clipindex>1</clipindex>
							</link>
							<link>
								<linkclipref>msub200012-0409d2k1006 8</linkclipref>
								<mediatype>audio</mediatype>
								<trackindex>2</trackindex>
								<clipindex>1</clipindex>
							</link>
							<link>
								<linkclipref>msub200012-0409d2k1006 9</linkclipref>
								<mediatype>audio</mediatype>
								<trackindex>3</trackindex>
								<clipindex>1</clipindex>
							</link>
							<link>
								<linkclipref>msub200012-0409d2k1006 10</linkclipref>
								<mediatype>audio</mediatype>
								<trackindex>4</trackindex>
								<clipindex>1</clipindex>
							</link>
							<link>
								<linkclipref>msub200012-0409d2k1006 11</linkclipref>
								<mediatype>audio</mediatype>
								<trackindex>5</trackindex>
								<clipindex>1</clipindex>
							</link>
							<link>
								<linkclipref>msub200012-0409d2k1006 12</linkclipref>
								<mediatype>audio</mediatype>
								<trackindex>6</trackindex>
								<clipindex>1</clipindex>
							</link>
							<link>
								<linkclipref>msub200012-0409d2k1006 13</linkclipref>
								<mediatype>audio</mediatype>
								<trackindex>7</trackindex>
								<clipindex>1</clipindex>
							</link>
							<link>
								<linkclipref>msub200012-0409d2k1006 14</linkclipref>
								<mediatype>audio</mediatype>
								<trackindex>8</trackindex>
								<clipindex>1</clipindex>
							</link>
						</clipitem>
						<enabled>TRUE</enabled>
						<locked>FALSE</locked>
					</track>
					<track>
						<clipitem id="msub200012-0409d2k1006 14">
							<name>msub200012-0409d2k1006</name>
							<duration>1289</duration>
							<rate>
								<ntsc>FALSE</ntsc>
								<timebase>25</timebase>
							</rate>
							<in>0</in>
							<out>1289</out>
							<start>0</start>
							<end>1289</end>
							<subframeoffset>0</subframeoffset>
							<masterclipid>msub200012-0409d2k1006 1</masterclipid>
							<syncoffset>0</syncoffset>
							<logginginfo>
								<description>msub200012-0409d2k1006</description>
								<scene/>
								<shottake/>
								<lognote/>
								<good>FALSE</good>
							</logginginfo>
							<labels>
								<label>Good Take</label>
								<label2/>
							</labels>
							<comments>
								<mastercomment1>RÅSTOFF. BR_FINFREDAG_MSUA_OPRO</mastercomment1>
								<mastercomment2/>
								<mastercomment3/>
								<mastercomment4/>
							</comments>
							<file id="msub200012-0409d2k1006 2"/>
							<filter>
								<effect>
									<name>Audio Levels</name>
									<effectid>audiolevels</effectid>
									<effectcategory>audiolevels</effectcategory>
									<effecttype>audiolevels</effecttype>
									<mediatype>audio</mediatype>
									<parameter>
										<name>Level</name>
										<parameterid>level</parameterid>
										<valuemin>0</valuemin>
										<valuemax>3.98109</valuemax>
										<value>1</value>
									</parameter>
								</effect>
							</filter>
							<filter>
								<effect>
									<name>Audio Pan</name>
									<effectid>audiopan</effectid>
									<effectcategory>audiopan</effectcategory>
									<effecttype>audiopan</effecttype>
									<mediatype>audio</mediatype>
									<parameter>
										<name>Pan</name>
										<parameterid>pan</parameterid>
										<valuemin>-1</valuemin>
										<valuemax>1</valuemax>
										<value>0</value>
									</parameter>
								</effect>
							</filter>
							<sourcetrack>
								<mediatype>audio</mediatype>
								<trackindex>8</trackindex>
							</sourcetrack>
							<link>
								<linkclipref>msub200012-0409d2k1006 6</linkclipref>
								<mediatype>video</mediatype>
								<trackindex>1</trackindex>
								<clipindex>1</clipindex>
							</link>
							<link>
								<linkclipref>msub200012-0409d2k1006 7</linkclipref>
								<mediatype>audio</mediatype>
								<trackindex>1</trackindex>
								<clipindex>1</clipindex>
							</link>
							<link>
								<linkclipref>msub200012-0409d2k1006 8</linkclipref>
								<mediatype>audio</mediatype>
								<trackindex>2</trackindex>
								<clipindex>1</clipindex>
							</link>
							<link>
								<linkclipref>msub200012-0409d2k1006 9</linkclipref>
								<mediatype>audio</mediatype>
								<trackindex>3</trackindex>
								<clipindex>1</clipindex>
							</link>
							<link>
								<linkclipref>msub200012-0409d2k1006 10</linkclipref>
								<mediatype>audio</mediatype>
								<trackindex>4</trackindex>
								<clipindex>1</clipindex>
							</link>
							<link>
								<linkclipref>msub200012-0409d2k1006 11</linkclipref>
								<mediatype>audio</mediatype>
								<trackindex>5</trackindex>
								<clipindex>1</clipindex>
							</link>
							<link>
								<linkclipref>msub200012-0409d2k1006 12</linkclipref>
								<mediatype>audio</mediatype>
								<trackindex>6</trackindex>
								<clipindex>1</clipindex>
							</link>
							<link>
								<linkclipref>msub200012-0409d2k1006 13</linkclipref>
								<mediatype>audio</mediatype>
								<trackindex>7</trackindex>
								<clipindex>1</clipindex>
							</link>
							<link>
								<linkclipref>msub200012-0409d2k1006 14</linkclipref>
								<mediatype>audio</mediatype>
								<trackindex>8</trackindex>
								<clipindex>1</clipindex>
							</link>
						</clipitem>
						<enabled>TRUE</enabled>
						<locked>FALSE</locked>
					</track>
				</audio>
			</media>
		</clip>
		<clip id="msub200012-0409d3k1006 5">
			<name>msub200012-0409d3k1006</name>
			<duration>2744</duration>
			<rate>
				<ntsc>FALSE</ntsc>
				<timebase>25</timebase>
			</rate>
			<in>412</in>
			<out>-1</out>
			<masterclipid>msub200012-0409d3k1006 1</masterclipid>
			<ismasterclip>FALSE</ismasterclip>
			<logginginfo>
				<description>msub200012-0409d3k1006</description>
				<scene/>
				<shottake/>
				<lognote/>
				<good>FALSE</good>
			</logginginfo>
			<labels>
				<label>Best Take</label>
				<label2/>
			</labels>
			<comments>
				<mastercomment1>RÅSTOFF. BR_FINFREDAG_MSUA_OPRO</mastercomment1>
				<mastercomment2/>
				<mastercomment3/>
				<mastercomment4/>
			</comments>
			<media>
				<video>
					<track>
						<clipitem id="msub200012-0409d3k1006 6">
							<name>msub200012-0409d3k1006</name>
							<duration>2744</duration>
							<rate>
								<ntsc>FALSE</ntsc>
								<timebase>25</timebase>
							</rate>
							<in>0</in>
							<out>2744</out>
							<start>0</start>
							<end>2744</end>
							<pixelaspectratio>Square</pixelaspectratio>
							<anamorphic>FALSE</anamorphic>
							<alphatype>none</alphatype>
							<masterclipid>msub200012-0409d3k1006 1</masterclipid>
							<syncoffset>0</syncoffset>
							<logginginfo>
								<scene/>
								<shottake/>
								<lognote/>
								<good>FALSE</good>
							</logginginfo>
							<labels>
								<label>Best Take</label>
								<label2/>
							</labels>
							<comments>
								<mastercomment1>RÅSTOFF. BR_FINFREDAG_MSUA_OPRO</mastercomment1>
								<mastercomment2/>
								<mastercomment3/>
								<mastercomment4/>
							</comments>
							<file id="msub200012-0409d3k1006 2"/>
							<sourcetrack>
								<mediatype>video</mediatype>
							</sourcetrack>
							<link>
								<linkclipref>msub200012-0409d3k1006 6</linkclipref>
								<mediatype>video</mediatype>
								<trackindex>1</trackindex>
								<clipindex>1</clipindex>
							</link>
							<link>
								<linkclipref>msub200012-0409d3k1006 7</linkclipref>
								<mediatype>audio</mediatype>
								<trackindex>1</trackindex>
								<clipindex>1</clipindex>
							</link>
							<link>
								<linkclipref>msub200012-0409d3k1006 8</linkclipref>
								<mediatype>audio</mediatype>
								<trackindex>2</trackindex>
								<clipindex>1</clipindex>
							</link>
							<link>
								<linkclipref>msub200012-0409d3k1006 9</linkclipref>
								<mediatype>audio</mediatype>
								<trackindex>3</trackindex>
								<clipindex>1</clipindex>
							</link>
							<link>
								<linkclipref>msub200012-0409d3k1006 10</linkclipref>
								<mediatype>audio</mediatype>
								<trackindex>4</trackindex>
								<clipindex>1</clipindex>
							</link>
							<link>
								<linkclipref>msub200012-0409d3k1006 11</linkclipref>
								<mediatype>audio</mediatype>
								<trackindex>5</trackindex>
								<clipindex>1</clipindex>
							</link>
							<link>
								<linkclipref>msub200012-0409d3k1006 12</linkclipref>
								<mediatype>audio</mediatype>
								<trackindex>6</trackindex>
								<clipindex>1</clipindex>
							</link>
							<link>
								<linkclipref>msub200012-0409d3k1006 13</linkclipref>
								<mediatype>audio</mediatype>
								<trackindex>7</trackindex>
								<clipindex>1</clipindex>
							</link>
							<link>
								<linkclipref>msub200012-0409d3k1006 14</linkclipref>
								<mediatype>audio</mediatype>
								<trackindex>8</trackindex>
								<clipindex>1</clipindex>
							</link>
							<fielddominance>upper</fielddominance>
						</clipitem>
						<enabled>TRUE</enabled>
						<locked>FALSE</locked>
					</track>
				</video>
				<audio>
					<in>412</in>
					<out>-1</out>
					<track>
						<clipitem id="msub200012-0409d3k1006 7">
							<name>msub200012-0409d3k1006</name>
							<duration>2744</duration>
							<rate>
								<ntsc>FALSE</ntsc>
								<timebase>25</timebase>
							</rate>
							<in>0</in>
							<out>2744</out>
							<start>0</start>
							<end>2744</end>
							<subframeoffset>0</subframeoffset>
							<masterclipid>msub200012-0409d3k1006 1</masterclipid>
							<syncoffset>0</syncoffset>
							<logginginfo>
								<scene/>
								<shottake/>
								<lognote/>
								<good>FALSE</good>
							</logginginfo>
							<labels>
								<label>Best Take</label>
								<label2/>
							</labels>
							<comments>
								<mastercomment1>RÅSTOFF. BR_FINFREDAG_MSUA_OPRO</mastercomment1>
								<mastercomment2/>
								<mastercomment3/>
								<mastercomment4/>
							</comments>
							<file id="msub200012-0409d3k1006 2"/>
							<filter>
								<effect>
									<name>Audio Levels</name>
									<effectid>audiolevels</effectid>
									<effectcategory>audiolevels</effectcategory>
									<effecttype>audiolevels</effecttype>
									<mediatype>audio</mediatype>
									<parameter>
										<name>Level</name>
										<parameterid>level</parameterid>
										<valuemin>0</valuemin>
										<valuemax>3.98109</valuemax>
										<value>1</value>
									</parameter>
								</effect>
							</filter>
							<filter>
								<effect>
									<name>Audio Pan</name>
									<effectid>audiopan</effectid>
									<effectcategory>audiopan</effectcategory>
									<effecttype>audiopan</effecttype>
									<mediatype>audio</mediatype>
									<parameter>
										<name>Pan</name>
										<parameterid>pan</parameterid>
										<valuemin>-1</valuemin>
										<valuemax>1</valuemax>
										<value>0</value>
									</parameter>
								</effect>
							</filter>
							<sourcetrack>
								<mediatype>audio</mediatype>
								<trackindex>1</trackindex>
							</sourcetrack>
							<link>
								<linkclipref>msub200012-0409d3k1006 6</linkclipref>
								<mediatype>video</mediatype>
								<trackindex>1</trackindex>
								<clipindex>1</clipindex>
							</link>
							<link>
								<linkclipref>msub200012-0409d3k1006 7</linkclipref>
								<mediatype>audio</mediatype>
								<trackindex>1</trackindex>
								<clipindex>1</clipindex>
							</link>
							<link>
								<linkclipref>msub200012-0409d3k1006 8</linkclipref>
								<mediatype>audio</mediatype>
								<trackindex>2</trackindex>
								<clipindex>1</clipindex>
							</link>
							<link>
								<linkclipref>msub200012-0409d3k1006 9</linkclipref>
								<mediatype>audio</mediatype>
								<trackindex>3</trackindex>
								<clipindex>1</clipindex>
							</link>
							<link>
								<linkclipref>msub200012-0409d3k1006 10</linkclipref>
								<mediatype>audio</mediatype>
								<trackindex>4</trackindex>
								<clipindex>1</clipindex>
							</link>
							<link>
								<linkclipref>msub200012-0409d3k1006 11</linkclipref>
								<mediatype>audio</mediatype>
								<trackindex>5</trackindex>
								<clipindex>1</clipindex>
							</link>
							<link>
								<linkclipref>msub200012-0409d3k1006 12</linkclipref>
								<mediatype>audio</mediatype>
								<trackindex>6</trackindex>
								<clipindex>1</clipindex>
							</link>
							<link>
								<linkclipref>msub200012-0409d3k1006 13</linkclipref>
								<mediatype>audio</mediatype>
								<trackindex>7</trackindex>
								<clipindex>1</clipindex>
							</link>
							<link>
								<linkclipref>msub200012-0409d3k1006 14</linkclipref>
								<mediatype>audio</mediatype>
								<trackindex>8</trackindex>
								<clipindex>1</clipindex>
							</link>
						</clipitem>
						<enabled>TRUE</enabled>
						<locked>FALSE</locked>
					</track>
					<track>
						<clipitem id="msub200012-0409d3k1006 8">
							<name>msub200012-0409d3k1006</name>
							<duration>2744</duration>
							<rate>
								<ntsc>FALSE</ntsc>
								<timebase>25</timebase>
							</rate>
							<in>0</in>
							<out>2744</out>
							<start>0</start>
							<end>2744</end>
							<subframeoffset>0</subframeoffset>
							<masterclipid>msub200012-0409d3k1006 1</masterclipid>
							<syncoffset>0</syncoffset>
							<logginginfo>
								<scene/>
								<shottake/>
								<lognote/>
								<good>FALSE</good>
							</logginginfo>
							<labels>
								<label>Best Take</label>
								<label2/>
							</labels>
							<comments>
								<mastercomment1>RÅSTOFF. BR_FINFREDAG_MSUA_OPRO</mastercomment1>
								<mastercomment2/>
								<mastercomment3/>
								<mastercomment4/>
							</comments>
							<file id="msub200012-0409d3k1006 2"/>
							<filter>
								<effect>
									<name>Audio Levels</name>
									<effectid>audiolevels</effectid>
									<effectcategory>audiolevels</effectcategory>
									<effecttype>audiolevels</effecttype>
									<mediatype>audio</mediatype>
									<parameter>
										<name>Level</name>
										<parameterid>level</parameterid>
										<valuemin>0</valuemin>
										<valuemax>3.98109</valuemax>
										<value>1</value>
									</parameter>
								</effect>
							</filter>
							<filter>
								<effect>
									<name>Audio Pan</name>
									<effectid>audiopan</effectid>
									<effectcategory>audiopan</effectcategory>
									<effecttype>audiopan</effecttype>
									<mediatype>audio</mediatype>
									<parameter>
										<name>Pan</name>
										<parameterid>pan</parameterid>
										<valuemin>-1</valuemin>
										<valuemax>1</valuemax>
										<value>0</value>
									</parameter>
								</effect>
							</filter>
							<sourcetrack>
								<mediatype>audio</mediatype>
								<trackindex>2</trackindex>
							</sourcetrack>
							<link>
								<linkclipref>msub200012-0409d3k1006 6</linkclipref>
								<mediatype>video</mediatype>
								<trackindex>1</trackindex>
								<clipindex>1</clipindex>
							</link>
							<link>
								<linkclipref>msub200012-0409d3k1006 7</linkclipref>
								<mediatype>audio</mediatype>
								<trackindex>1</trackindex>
								<clipindex>1</clipindex>
							</link>
							<link>
								<linkclipref>msub200012-0409d3k1006 8</linkclipref>
								<mediatype>audio</mediatype>
								<trackindex>2</trackindex>
								<clipindex>1</clipindex>
							</link>
							<link>
								<linkclipref>msub200012-0409d3k1006 9</linkclipref>
								<mediatype>audio</mediatype>
								<trackindex>3</trackindex>
								<clipindex>1</clipindex>
							</link>
							<link>
								<linkclipref>msub200012-0409d3k1006 10</linkclipref>
								<mediatype>audio</mediatype>
								<trackindex>4</trackindex>
								<clipindex>1</clipindex>
							</link>
							<link>
								<linkclipref>msub200012-0409d3k1006 11</linkclipref>
								<mediatype>audio</mediatype>
								<trackindex>5</trackindex>
								<clipindex>1</clipindex>
							</link>
							<link>
								<linkclipref>msub200012-0409d3k1006 12</linkclipref>
								<mediatype>audio</mediatype>
								<trackindex>6</trackindex>
								<clipindex>1</clipindex>
							</link>
							<link>
								<linkclipref>msub200012-0409d3k1006 13</linkclipref>
								<mediatype>audio</mediatype>
								<trackindex>7</trackindex>
								<clipindex>1</clipindex>
							</link>
							<link>
								<linkclipref>msub200012-0409d3k1006 14</linkclipref>
								<mediatype>audio</mediatype>
								<trackindex>8</trackindex>
								<clipindex>1</clipindex>
							</link>
						</clipitem>
						<enabled>TRUE</enabled>
						<locked>FALSE</locked>
					</track>
					<track>
						<clipitem id="msub200012-0409d3k1006 9">
							<name>msub200012-0409d3k1006</name>
							<duration>2744</duration>
							<rate>
								<ntsc>FALSE</ntsc>
								<timebase>25</timebase>
							</rate>
							<in>0</in>
							<out>2744</out>
							<start>0</start>
							<end>2744</end>
							<subframeoffset>0</subframeoffset>
							<masterclipid>msub200012-0409d3k1006 1</masterclipid>
							<syncoffset>0</syncoffset>
							<logginginfo>
								<scene/>
								<shottake/>
								<lognote/>
								<good>FALSE</good>
							</logginginfo>
							<labels>
								<label>Best Take</label>
								<label2/>
							</labels>
							<comments>
								<mastercomment1>RÅSTOFF. BR_FINFREDAG_MSUA_OPRO</mastercomment1>
								<mastercomment2/>
								<mastercomment3/>
								<mastercomment4/>
							</comments>
							<file id="msub200012-0409d3k1006 2"/>
							<filter>
								<effect>
									<name>Audio Levels</name>
									<effectid>audiolevels</effectid>
									<effectcategory>audiolevels</effectcategory>
									<effecttype>audiolevels</effecttype>
									<mediatype>audio</mediatype>
									<parameter>
										<name>Level</name>
										<parameterid>level</parameterid>
										<valuemin>0</valuemin>
										<valuemax>3.98109</valuemax>
										<value>1</value>
									</parameter>
								</effect>
							</filter>
							<filter>
								<effect>
									<name>Audio Pan</name>
									<effectid>audiopan</effectid>
									<effectcategory>audiopan</effectcategory>
									<effecttype>audiopan</effecttype>
									<mediatype>audio</mediatype>
									<parameter>
										<name>Pan</name>
										<parameterid>pan</parameterid>
										<valuemin>-1</valuemin>
										<valuemax>1</valuemax>
										<value>0</value>
									</parameter>
								</effect>
							</filter>
							<sourcetrack>
								<mediatype>audio</mediatype>
								<trackindex>3</trackindex>
							</sourcetrack>
							<link>
								<linkclipref>msub200012-0409d3k1006 6</linkclipref>
								<mediatype>video</mediatype>
								<trackindex>1</trackindex>
								<clipindex>1</clipindex>
							</link>
							<link>
								<linkclipref>msub200012-0409d3k1006 7</linkclipref>
								<mediatype>audio</mediatype>
								<trackindex>1</trackindex>
								<clipindex>1</clipindex>
							</link>
							<link>
								<linkclipref>msub200012-0409d3k1006 8</linkclipref>
								<mediatype>audio</mediatype>
								<trackindex>2</trackindex>
								<clipindex>1</clipindex>
							</link>
							<link>
								<linkclipref>msub200012-0409d3k1006 9</linkclipref>
								<mediatype>audio</mediatype>
								<trackindex>3</trackindex>
								<clipindex>1</clipindex>
							</link>
							<link>
								<linkclipref>msub200012-0409d3k1006 10</linkclipref>
								<mediatype>audio</mediatype>
								<trackindex>4</trackindex>
								<clipindex>1</clipindex>
							</link>
							<link>
								<linkclipref>msub200012-0409d3k1006 11</linkclipref>
								<mediatype>audio</mediatype>
								<trackindex>5</trackindex>
								<clipindex>1</clipindex>
							</link>
							<link>
								<linkclipref>msub200012-0409d3k1006 12</linkclipref>
								<mediatype>audio</mediatype>
								<trackindex>6</trackindex>
								<clipindex>1</clipindex>
							</link>
							<link>
								<linkclipref>msub200012-0409d3k1006 13</linkclipref>
								<mediatype>audio</mediatype>
								<trackindex>7</trackindex>
								<clipindex>1</clipindex>
							</link>
							<link>
								<linkclipref>msub200012-0409d3k1006 14</linkclipref>
								<mediatype>audio</mediatype>
								<trackindex>8</trackindex>
								<clipindex>1</clipindex>
							</link>
						</clipitem>
						<enabled>TRUE</enabled>
						<locked>FALSE</locked>
					</track>
					<track>
						<clipitem id="msub200012-0409d3k1006 10">
							<name>msub200012-0409d3k1006</name>
							<duration>2744</duration>
							<rate>
								<ntsc>FALSE</ntsc>
								<timebase>25</timebase>
							</rate>
							<in>0</in>
							<out>2744</out>
							<start>0</start>
							<end>2744</end>
							<subframeoffset>0</subframeoffset>
							<masterclipid>msub200012-0409d3k1006 1</masterclipid>
							<syncoffset>0</syncoffset>
							<logginginfo>
								<scene/>
								<shottake/>
								<lognote/>
								<good>FALSE</good>
							</logginginfo>
							<labels>
								<label>Best Take</label>
								<label2/>
							</labels>
							<comments>
								<mastercomment1>RÅSTOFF. BR_FINFREDAG_MSUA_OPRO</mastercomment1>
								<mastercomment2/>
								<mastercomment3/>
								<mastercomment4/>
							</comments>
							<file id="msub200012-0409d3k1006 2"/>
							<filter>
								<effect>
									<name>Audio Levels</name>
									<effectid>audiolevels</effectid>
									<effectcategory>audiolevels</effectcategory>
									<effecttype>audiolevels</effecttype>
									<mediatype>audio</mediatype>
									<parameter>
										<name>Level</name>
										<parameterid>level</parameterid>
										<valuemin>0</valuemin>
										<valuemax>3.98109</valuemax>
										<value>1</value>
									</parameter>
								</effect>
							</filter>
							<filter>
								<effect>
									<name>Audio Pan</name>
									<effectid>audiopan</effectid>
									<effectcategory>audiopan</effectcategory>
									<effecttype>audiopan</effecttype>
									<mediatype>audio</mediatype>
									<parameter>
										<name>Pan</name>
										<parameterid>pan</parameterid>
										<valuemin>-1</valuemin>
										<valuemax>1</valuemax>
										<value>0</value>
									</parameter>
								</effect>
							</filter>
							<sourcetrack>
								<mediatype>audio</mediatype>
								<trackindex>4</trackindex>
							</sourcetrack>
							<link>
								<linkclipref>msub200012-0409d3k1006 6</linkclipref>
								<mediatype>video</mediatype>
								<trackindex>1</trackindex>
								<clipindex>1</clipindex>
							</link>
							<link>
								<linkclipref>msub200012-0409d3k1006 7</linkclipref>
								<mediatype>audio</mediatype>
								<trackindex>1</trackindex>
								<clipindex>1</clipindex>
							</link>
							<link>
								<linkclipref>msub200012-0409d3k1006 8</linkclipref>
								<mediatype>audio</mediatype>
								<trackindex>2</trackindex>
								<clipindex>1</clipindex>
							</link>
							<link>
								<linkclipref>msub200012-0409d3k1006 9</linkclipref>
								<mediatype>audio</mediatype>
								<trackindex>3</trackindex>
								<clipindex>1</clipindex>
							</link>
							<link>
								<linkclipref>msub200012-0409d3k1006 10</linkclipref>
								<mediatype>audio</mediatype>
								<trackindex>4</trackindex>
								<clipindex>1</clipindex>
							</link>
							<link>
								<linkclipref>msub200012-0409d3k1006 11</linkclipref>
								<mediatype>audio</mediatype>
								<trackindex>5</trackindex>
								<clipindex>1</clipindex>
							</link>
							<link>
								<linkclipref>msub200012-0409d3k1006 12</linkclipref>
								<mediatype>audio</mediatype>
								<trackindex>6</trackindex>
								<clipindex>1</clipindex>
							</link>
							<link>
								<linkclipref>msub200012-0409d3k1006 13</linkclipref>
								<mediatype>audio</mediatype>
								<trackindex>7</trackindex>
								<clipindex>1</clipindex>
							</link>
							<link>
								<linkclipref>msub200012-0409d3k1006 14</linkclipref>
								<mediatype>audio</mediatype>
								<trackindex>8</trackindex>
								<clipindex>1</clipindex>
							</link>
						</clipitem>
						<enabled>TRUE</enabled>
						<locked>FALSE</locked>
					</track>
					<track>
						<clipitem id="msub200012-0409d3k1006 11">
							<name>msub200012-0409d3k1006</name>
							<duration>2744</duration>
							<rate>
								<ntsc>FALSE</ntsc>
								<timebase>25</timebase>
							</rate>
							<in>0</in>
							<out>2744</out>
							<start>0</start>
							<end>2744</end>
							<subframeoffset>0</subframeoffset>
							<masterclipid>msub200012-0409d3k1006 1</masterclipid>
							<syncoffset>0</syncoffset>
							<logginginfo>
								<scene/>
								<shottake/>
								<lognote/>
								<good>FALSE</good>
							</logginginfo>
							<labels>
								<label>Best Take</label>
								<label2/>
							</labels>
							<comments>
								<mastercomment1>RÅSTOFF. BR_FINFREDAG_MSUA_OPRO</mastercomment1>
								<mastercomment2/>
								<mastercomment3/>
								<mastercomment4/>
							</comments>
							<file id="msub200012-0409d3k1006 2"/>
							<filter>
								<effect>
									<name>Audio Levels</name>
									<effectid>audiolevels</effectid>
									<effectcategory>audiolevels</effectcategory>
									<effecttype>audiolevels</effecttype>
									<mediatype>audio</mediatype>
									<parameter>
										<name>Level</name>
										<parameterid>level</parameterid>
										<valuemin>0</valuemin>
										<valuemax>3.98109</valuemax>
										<value>1</value>
									</parameter>
								</effect>
							</filter>
							<filter>
								<effect>
									<name>Audio Pan</name>
									<effectid>audiopan</effectid>
									<effectcategory>audiopan</effectcategory>
									<effecttype>audiopan</effecttype>
									<mediatype>audio</mediatype>
									<parameter>
										<name>Pan</name>
										<parameterid>pan</parameterid>
										<valuemin>-1</valuemin>
										<valuemax>1</valuemax>
										<value>0</value>
									</parameter>
								</effect>
							</filter>
							<sourcetrack>
								<mediatype>audio</mediatype>
								<trackindex>5</trackindex>
							</sourcetrack>
							<link>
								<linkclipref>msub200012-0409d3k1006 6</linkclipref>
								<mediatype>video</mediatype>
								<trackindex>1</trackindex>
								<clipindex>1</clipindex>
							</link>
							<link>
								<linkclipref>msub200012-0409d3k1006 7</linkclipref>
								<mediatype>audio</mediatype>
								<trackindex>1</trackindex>
								<clipindex>1</clipindex>
							</link>
							<link>
								<linkclipref>msub200012-0409d3k1006 8</linkclipref>
								<mediatype>audio</mediatype>
								<trackindex>2</trackindex>
								<clipindex>1</clipindex>
							</link>
							<link>
								<linkclipref>msub200012-0409d3k1006 9</linkclipref>
								<mediatype>audio</mediatype>
								<trackindex>3</trackindex>
								<clipindex>1</clipindex>
							</link>
							<link>
								<linkclipref>msub200012-0409d3k1006 10</linkclipref>
								<mediatype>audio</mediatype>
								<trackindex>4</trackindex>
								<clipindex>1</clipindex>
							</link>
							<link>
								<linkclipref>msub200012-0409d3k1006 11</linkclipref>
								<mediatype>audio</mediatype>
								<trackindex>5</trackindex>
								<clipindex>1</clipindex>
							</link>
							<link>
								<linkclipref>msub200012-0409d3k1006 12</linkclipref>
								<mediatype>audio</mediatype>
								<trackindex>6</trackindex>
								<clipindex>1</clipindex>
							</link>
							<link>
								<linkclipref>msub200012-0409d3k1006 13</linkclipref>
								<mediatype>audio</mediatype>
								<trackindex>7</trackindex>
								<clipindex>1</clipindex>
							</link>
							<link>
								<linkclipref>msub200012-0409d3k1006 14</linkclipref>
								<mediatype>audio</mediatype>
								<trackindex>8</trackindex>
								<clipindex>1</clipindex>
							</link>
						</clipitem>
						<enabled>TRUE</enabled>
						<locked>FALSE</locked>
					</track>
					<track>
						<clipitem id="msub200012-0409d3k1006 12">
							<name>msub200012-0409d3k1006</name>
							<duration>2744</duration>
							<rate>
								<ntsc>FALSE</ntsc>
								<timebase>25</timebase>
							</rate>
							<in>0</in>
							<out>2744</out>
							<start>0</start>
							<end>2744</end>
							<subframeoffset>0</subframeoffset>
							<masterclipid>msub200012-0409d3k1006 1</masterclipid>
							<syncoffset>0</syncoffset>
							<logginginfo>
								<scene/>
								<shottake/>
								<lognote/>
								<good>FALSE</good>
							</logginginfo>
							<labels>
								<label>Best Take</label>
								<label2/>
							</labels>
							<comments>
								<mastercomment1>RÅSTOFF. BR_FINFREDAG_MSUA_OPRO</mastercomment1>
								<mastercomment2/>
								<mastercomment3/>
								<mastercomment4/>
							</comments>
							<file id="msub200012-0409d3k1006 2"/>
							<filter>
								<effect>
									<name>Audio Levels</name>
									<effectid>audiolevels</effectid>
									<effectcategory>audiolevels</effectcategory>
									<effecttype>audiolevels</effecttype>
									<mediatype>audio</mediatype>
									<parameter>
										<name>Level</name>
										<parameterid>level</parameterid>
										<valuemin>0</valuemin>
										<valuemax>3.98109</valuemax>
										<value>1</value>
									</parameter>
								</effect>
							</filter>
							<filter>
								<effect>
									<name>Audio Pan</name>
									<effectid>audiopan</effectid>
									<effectcategory>audiopan</effectcategory>
									<effecttype>audiopan</effecttype>
									<mediatype>audio</mediatype>
									<parameter>
										<name>Pan</name>
										<parameterid>pan</parameterid>
										<valuemin>-1</valuemin>
										<valuemax>1</valuemax>
										<value>0</value>
									</parameter>
								</effect>
							</filter>
							<sourcetrack>
								<mediatype>audio</mediatype>
								<trackindex>6</trackindex>
							</sourcetrack>
							<link>
								<linkclipref>msub200012-0409d3k1006 6</linkclipref>
								<mediatype>video</mediatype>
								<trackindex>1</trackindex>
								<clipindex>1</clipindex>
							</link>
							<link>
								<linkclipref>msub200012-0409d3k1006 7</linkclipref>
								<mediatype>audio</mediatype>
								<trackindex>1</trackindex>
								<clipindex>1</clipindex>
							</link>
							<link>
								<linkclipref>msub200012-0409d3k1006 8</linkclipref>
								<mediatype>audio</mediatype>
								<trackindex>2</trackindex>
								<clipindex>1</clipindex>
							</link>
							<link>
								<linkclipref>msub200012-0409d3k1006 9</linkclipref>
								<mediatype>audio</mediatype>
								<trackindex>3</trackindex>
								<clipindex>1</clipindex>
							</link>
							<link>
								<linkclipref>msub200012-0409d3k1006 10</linkclipref>
								<mediatype>audio</mediatype>
								<trackindex>4</trackindex>
								<clipindex>1</clipindex>
							</link>
							<link>
								<linkclipref>msub200012-0409d3k1006 11</linkclipref>
								<mediatype>audio</mediatype>
								<trackindex>5</trackindex>
								<clipindex>1</clipindex>
							</link>
							<link>
								<linkclipref>msub200012-0409d3k1006 12</linkclipref>
								<mediatype>audio</mediatype>
								<trackindex>6</trackindex>
								<clipindex>1</clipindex>
							</link>
							<link>
								<linkclipref>msub200012-0409d3k1006 13</linkclipref>
								<mediatype>audio</mediatype>
								<trackindex>7</trackindex>
								<clipindex>1</clipindex>
							</link>
							<link>
								<linkclipref>msub200012-0409d3k1006 14</linkclipref>
								<mediatype>audio</mediatype>
								<trackindex>8</trackindex>
								<clipindex>1</clipindex>
							</link>
						</clipitem>
						<enabled>TRUE</enabled>
						<locked>FALSE</locked>
					</track>
					<track>
						<clipitem id="msub200012-0409d3k1006 13">
							<name>msub200012-0409d3k1006</name>
							<duration>2744</duration>
							<rate>
								<ntsc>FALSE</ntsc>
								<timebase>25</timebase>
							</rate>
							<in>0</in>
							<out>2744</out>
							<start>0</start>
							<end>2744</end>
							<subframeoffset>0</subframeoffset>
							<masterclipid>msub200012-0409d3k1006 1</masterclipid>
							<syncoffset>0</syncoffset>
							<logginginfo>
								<scene/>
								<shottake/>
								<lognote/>
								<good>FALSE</good>
							</logginginfo>
							<labels>
								<label>Best Take</label>
								<label2/>
							</labels>
							<comments>
								<mastercomment1>RÅSTOFF. BR_FINFREDAG_MSUA_OPRO</mastercomment1>
								<mastercomment2/>
								<mastercomment3/>
								<mastercomment4/>
							</comments>
							<file id="msub200012-0409d3k1006 2"/>
							<filter>
								<effect>
									<name>Audio Levels</name>
									<effectid>audiolevels</effectid>
									<effectcategory>audiolevels</effectcategory>
									<effecttype>audiolevels</effecttype>
									<mediatype>audio</mediatype>
									<parameter>
										<name>Level</name>
										<parameterid>level</parameterid>
										<valuemin>0</valuemin>
										<valuemax>3.98109</valuemax>
										<value>1</value>
									</parameter>
								</effect>
							</filter>
							<filter>
								<effect>
									<name>Audio Pan</name>
									<effectid>audiopan</effectid>
									<effectcategory>audiopan</effectcategory>
									<effecttype>audiopan</effecttype>
									<mediatype>audio</mediatype>
									<parameter>
										<name>Pan</name>
										<parameterid>pan</parameterid>
										<valuemin>-1</valuemin>
										<valuemax>1</valuemax>
										<value>0</value>
									</parameter>
								</effect>
							</filter>
							<sourcetrack>
								<mediatype>audio</mediatype>
								<trackindex>7</trackindex>
							</sourcetrack>
							<link>
								<linkclipref>msub200012-0409d3k1006 6</linkclipref>
								<mediatype>video</mediatype>
								<trackindex>1</trackindex>
								<clipindex>1</clipindex>
							</link>
							<link>
								<linkclipref>msub200012-0409d3k1006 7</linkclipref>
								<mediatype>audio</mediatype>
								<trackindex>1</trackindex>
								<clipindex>1</clipindex>
							</link>
							<link>
								<linkclipref>msub200012-0409d3k1006 8</linkclipref>
								<mediatype>audio</mediatype>
								<trackindex>2</trackindex>
								<clipindex>1</clipindex>
							</link>
							<link>
								<linkclipref>msub200012-0409d3k1006 9</linkclipref>
								<mediatype>audio</mediatype>
								<trackindex>3</trackindex>
								<clipindex>1</clipindex>
							</link>
							<link>
								<linkclipref>msub200012-0409d3k1006 10</linkclipref>
								<mediatype>audio</mediatype>
								<trackindex>4</trackindex>
								<clipindex>1</clipindex>
							</link>
							<link>
								<linkclipref>msub200012-0409d3k1006 11</linkclipref>
								<mediatype>audio</mediatype>
								<trackindex>5</trackindex>
								<clipindex>1</clipindex>
							</link>
							<link>
								<linkclipref>msub200012-0409d3k1006 12</linkclipref>
								<mediatype>audio</mediatype>
								<trackindex>6</trackindex>
								<clipindex>1</clipindex>
							</link>
							<link>
								<linkclipref>msub200012-0409d3k1006 13</linkclipref>
								<mediatype>audio</mediatype>
								<trackindex>7</trackindex>
								<clipindex>1</clipindex>
							</link>
							<link>
								<linkclipref>msub200012-0409d3k1006 14</linkclipref>
								<mediatype>audio</mediatype>
								<trackindex>8</trackindex>
								<clipindex>1</clipindex>
							</link>
						</clipitem>
						<enabled>TRUE</enabled>
						<locked>FALSE</locked>
					</track>
					<track>
						<clipitem id="msub200012-0409d3k1006 14">
							<name>msub200012-0409d3k1006</name>
							<duration>2744</duration>
							<rate>
								<ntsc>FALSE</ntsc>
								<timebase>25</timebase>
							</rate>
							<in>0</in>
							<out>2744</out>
							<start>0</start>
							<end>2744</end>
							<subframeoffset>0</subframeoffset>
							<masterclipid>msub200012-0409d3k1006 1</masterclipid>
							<syncoffset>0</syncoffset>
							<logginginfo>
								<scene/>
								<shottake/>
								<lognote/>
								<good>FALSE</good>
							</logginginfo>
							<labels>
								<label>Best Take</label>
								<label2/>
							</labels>
							<comments>
								<mastercomment1>RÅSTOFF. BR_FINFREDAG_MSUA_OPRO</mastercomment1>
								<mastercomment2/>
								<mastercomment3/>
								<mastercomment4/>
							</comments>
							<file id="msub200012-0409d3k1006 2"/>
							<filter>
								<effect>
									<name>Audio Levels</name>
									<effectid>audiolevels</effectid>
									<effectcategory>audiolevels</effectcategory>
									<effecttype>audiolevels</effecttype>
									<mediatype>audio</mediatype>
									<parameter>
										<name>Level</name>
										<parameterid>level</parameterid>
										<valuemin>0</valuemin>
										<valuemax>3.98109</valuemax>
										<value>1</value>
									</parameter>
								</effect>
							</filter>
							<filter>
								<effect>
									<name>Audio Pan</name>
									<effectid>audiopan</effectid>
									<effectcategory>audiopan</effectcategory>
									<effecttype>audiopan</effecttype>
									<mediatype>audio</mediatype>
									<parameter>
										<name>Pan</name>
										<parameterid>pan</parameterid>
										<valuemin>-1</valuemin>
										<valuemax>1</valuemax>
										<value>0</value>
									</parameter>
								</effect>
							</filter>
							<sourcetrack>
								<mediatype>audio</mediatype>
								<trackindex>8</trackindex>
							</sourcetrack>
							<link>
								<linkclipref>msub200012-0409d3k1006 6</linkclipref>
								<mediatype>video</mediatype>
								<trackindex>1</trackindex>
								<clipindex>1</clipindex>
							</link>
							<link>
								<linkclipref>msub200012-0409d3k1006 7</linkclipref>
								<mediatype>audio</mediatype>
								<trackindex>1</trackindex>
								<clipindex>1</clipindex>
							</link>
							<link>
								<linkclipref>msub200012-0409d3k1006 8</linkclipref>
								<mediatype>audio</mediatype>
								<trackindex>2</trackindex>
								<clipindex>1</clipindex>
							</link>
							<link>
								<linkclipref>msub200012-0409d3k1006 9</linkclipref>
								<mediatype>audio</mediatype>
								<trackindex>3</trackindex>
								<clipindex>1</clipindex>
							</link>
							<link>
								<linkclipref>msub200012-0409d3k1006 10</linkclipref>
								<mediatype>audio</mediatype>
								<trackindex>4</trackindex>
								<clipindex>1</clipindex>
							</link>
							<link>
								<linkclipref>msub200012-0409d3k1006 11</linkclipref>
								<mediatype>audio</mediatype>
								<trackindex>5</trackindex>
								<clipindex>1</clipindex>
							</link>
							<link>
								<linkclipref>msub200012-0409d3k1006 12</linkclipref>
								<mediatype>audio</mediatype>
								<trackindex>6</trackindex>
								<clipindex>1</clipindex>
							</link>
							<link>
								<linkclipref>msub200012-0409d3k1006 13</linkclipref>
								<mediatype>audio</mediatype>
								<trackindex>7</trackindex>
								<clipindex>1</clipindex>
							</link>
							<link>
								<linkclipref>msub200012-0409d3k1006 14</linkclipref>
								<mediatype>audio</mediatype>
								<trackindex>8</trackindex>
								<clipindex>1</clipindex>
							</link>
						</clipitem>
						<enabled>TRUE</enabled>
						<locked>FALSE</locked>
					</track>
				</audio>
			</media>
		</clip>
		<clip id="msub200012-0409d2k1002 28">
			<name>msub200012-0409d2k1002</name>
			<duration>10180</duration>
			<rate>
				<ntsc>FALSE</ntsc>
				<timebase>25</timebase>
			</rate>
			<in>444</in>
			<out>10045</out>
			<masterclipid>msub200012-0409d2k1002 1</masterclipid>
			<ismasterclip>FALSE</ismasterclip>
			<logginginfo>
				<description>msub200012-0409d2k1002</description>
				<scene/>
				<shottake/>
				<lognote/>
				<good>FALSE</good>
			</logginginfo>
			<labels>
				<label>Best Take</label>
				<label2/>
			</labels>
			<comments>
				<mastercomment1>RÅSTOFF. BR_FINFREDAG_MSUA_OPRO</mastercomment1>
				<mastercomment2/>
				<mastercomment3/>
				<mastercomment4/>
			</comments>
			<media>
				<video>
					<track>
						<clipitem id="msub200012-0409d2k1002 29">
							<name>msub200012-0409d2k1002</name>
							<duration>10180</duration>
							<rate>
								<ntsc>FALSE</ntsc>
								<timebase>25</timebase>
							</rate>
							<in>0</in>
							<out>10180</out>
							<start>0</start>
							<end>10180</end>
							<pixelaspectratio>Square</pixelaspectratio>
							<anamorphic>FALSE</anamorphic>
							<alphatype>none</alphatype>
							<masterclipid>msub200012-0409d2k1002 1</masterclipid>
							<syncoffset>0</syncoffset>
							<logginginfo>
								<description>msub200012-0409d2k1002</description>
								<scene/>
								<shottake/>
								<lognote/>
								<good>FALSE</good>
							</logginginfo>
							<labels>
								<label>Best Take</label>
								<label2/>
							</labels>
							<comments>
								<mastercomment1>RÅSTOFF. BR_FINFREDAG_MSUA_OPRO</mastercomment1>
								<mastercomment2/>
								<mastercomment3/>
								<mastercomment4/>
							</comments>
							<file id="msub200012-0409d2k1002 2"/>
							<sourcetrack>
								<mediatype>video</mediatype>
							</sourcetrack>
							<link>
								<linkclipref>msub200012-0409d2k1002 29</linkclipref>
								<mediatype>video</mediatype>
								<trackindex>1</trackindex>
								<clipindex>1</clipindex>
							</link>
							<link>
								<linkclipref>msub200012-0409d2k1002 30</linkclipref>
								<mediatype>audio</mediatype>
								<trackindex>1</trackindex>
								<clipindex>1</clipindex>
							</link>
							<link>
								<linkclipref>msub200012-0409d2k1002 31</linkclipref>
								<mediatype>audio</mediatype>
								<trackindex>2</trackindex>
								<clipindex>1</clipindex>
							</link>
							<link>
								<linkclipref>msub200012-0409d2k1002 32</linkclipref>
								<mediatype>audio</mediatype>
								<trackindex>3</trackindex>
								<clipindex>1</clipindex>
							</link>
							<link>
								<linkclipref>msub200012-0409d2k1002 33</linkclipref>
								<mediatype>audio</mediatype>
								<trackindex>4</trackindex>
								<clipindex>1</clipindex>
							</link>
							<link>
								<linkclipref>msub200012-0409d2k1002 34</linkclipref>
								<mediatype>audio</mediatype>
								<trackindex>5</trackindex>
								<clipindex>1</clipindex>
							</link>
							<link>
								<linkclipref>msub200012-0409d2k1002 35</linkclipref>
								<mediatype>audio</mediatype>
								<trackindex>6</trackindex>
								<clipindex>1</clipindex>
							</link>
							<link>
								<linkclipref>msub200012-0409d2k1002 36</linkclipref>
								<mediatype>audio</mediatype>
								<trackindex>7</trackindex>
								<clipindex>1</clipindex>
							</link>
							<link>
								<linkclipref>msub200012-0409d2k1002 37</linkclipref>
								<mediatype>audio</mediatype>
								<trackindex>8</trackindex>
								<clipindex>1</clipindex>
							</link>
							<fielddominance>upper</fielddominance>
						</clipitem>
						<enabled>TRUE</enabled>
						<locked>FALSE</locked>
					</track>
				</video>
				<audio>
					<in>444</in>
					<out>10045</out>
					<track>
						<clipitem id="msub200012-0409d2k1002 30">
							<name>msub200012-0409d2k1002</name>
							<duration>10180</duration>
							<rate>
								<ntsc>FALSE</ntsc>
								<timebase>25</timebase>
							</rate>
							<in>0</in>
							<out>10180</out>
							<start>0</start>
							<end>10180</end>
							<subframeoffset>0</subframeoffset>
							<masterclipid>msub200012-0409d2k1002 1</masterclipid>
							<syncoffset>0</syncoffset>
							<logginginfo>
								<description>msub200012-0409d2k1002</description>
								<scene/>
								<shottake/>
								<lognote/>
								<good>FALSE</good>
							</logginginfo>
							<labels>
								<label>Best Take</label>
								<label2/>
							</labels>
							<comments>
								<mastercomment1>RÅSTOFF. BR_FINFREDAG_MSUA_OPRO</mastercomment1>
								<mastercomment2/>
								<mastercomment3/>
								<mastercomment4/>
							</comments>
							<file id="msub200012-0409d2k1002 2"/>
							<filter>
								<effect>
									<name>Audio Levels</name>
									<effectid>audiolevels</effectid>
									<effectcategory>audiolevels</effectcategory>
									<effecttype>audiolevels</effecttype>
									<mediatype>audio</mediatype>
									<parameter>
										<name>Level</name>
										<parameterid>level</parameterid>
										<valuemin>0</valuemin>
										<valuemax>3.98109</valuemax>
										<value>1</value>
									</parameter>
								</effect>
							</filter>
							<filter>
								<effect>
									<name>Audio Pan</name>
									<effectid>audiopan</effectid>
									<effectcategory>audiopan</effectcategory>
									<effecttype>audiopan</effecttype>
									<mediatype>audio</mediatype>
									<parameter>
										<name>Pan</name>
										<parameterid>pan</parameterid>
										<valuemin>-1</valuemin>
										<valuemax>1</valuemax>
										<value>0</value>
									</parameter>
								</effect>
							</filter>
							<sourcetrack>
								<mediatype>audio</mediatype>
								<trackindex>1</trackindex>
							</sourcetrack>
							<link>
								<linkclipref>msub200012-0409d2k1002 29</linkclipref>
								<mediatype>video</mediatype>
								<trackindex>1</trackindex>
								<clipindex>1</clipindex>
							</link>
							<link>
								<linkclipref>msub200012-0409d2k1002 30</linkclipref>
								<mediatype>audio</mediatype>
								<trackindex>1</trackindex>
								<clipindex>1</clipindex>
							</link>
							<link>
								<linkclipref>msub200012-0409d2k1002 31</linkclipref>
								<mediatype>audio</mediatype>
								<trackindex>2</trackindex>
								<clipindex>1</clipindex>
							</link>
							<link>
								<linkclipref>msub200012-0409d2k1002 32</linkclipref>
								<mediatype>audio</mediatype>
								<trackindex>3</trackindex>
								<clipindex>1</clipindex>
							</link>
							<link>
								<linkclipref>msub200012-0409d2k1002 33</linkclipref>
								<mediatype>audio</mediatype>
								<trackindex>4</trackindex>
								<clipindex>1</clipindex>
							</link>
							<link>
								<linkclipref>msub200012-0409d2k1002 34</linkclipref>
								<mediatype>audio</mediatype>
								<trackindex>5</trackindex>
								<clipindex>1</clipindex>
							</link>
							<link>
								<linkclipref>msub200012-0409d2k1002 35</linkclipref>
								<mediatype>audio</mediatype>
								<trackindex>6</trackindex>
								<clipindex>1</clipindex>
							</link>
							<link>
								<linkclipref>msub200012-0409d2k1002 36</linkclipref>
								<mediatype>audio</mediatype>
								<trackindex>7</trackindex>
								<clipindex>1</clipindex>
							</link>
							<link>
								<linkclipref>msub200012-0409d2k1002 37</linkclipref>
								<mediatype>audio</mediatype>
								<trackindex>8</trackindex>
								<clipindex>1</clipindex>
							</link>
						</clipitem>
						<enabled>TRUE</enabled>
						<locked>FALSE</locked>
					</track>
					<track>
						<clipitem id="msub200012-0409d2k1002 31">
							<name>msub200012-0409d2k1002</name>
							<duration>10180</duration>
							<rate>
								<ntsc>FALSE</ntsc>
								<timebase>25</timebase>
							</rate>
							<in>0</in>
							<out>10180</out>
							<start>0</start>
							<end>10180</end>
							<subframeoffset>0</subframeoffset>
							<masterclipid>msub200012-0409d2k1002 1</masterclipid>
							<syncoffset>0</syncoffset>
							<logginginfo>
								<description>msub200012-0409d2k1002</description>
								<scene/>
								<shottake/>
								<lognote/>
								<good>FALSE</good>
							</logginginfo>
							<labels>
								<label>Best Take</label>
								<label2/>
							</labels>
							<comments>
								<mastercomment1>RÅSTOFF. BR_FINFREDAG_MSUA_OPRO</mastercomment1>
								<mastercomment2/>
								<mastercomment3/>
								<mastercomment4/>
							</comments>
							<file id="msub200012-0409d2k1002 2"/>
							<filter>
								<effect>
									<name>Audio Levels</name>
									<effectid>audiolevels</effectid>
									<effectcategory>audiolevels</effectcategory>
									<effecttype>audiolevels</effecttype>
									<mediatype>audio</mediatype>
									<parameter>
										<name>Level</name>
										<parameterid>level</parameterid>
										<valuemin>0</valuemin>
										<valuemax>3.98109</valuemax>
										<value>1</value>
									</parameter>
								</effect>
							</filter>
							<filter>
								<effect>
									<name>Audio Pan</name>
									<effectid>audiopan</effectid>
									<effectcategory>audiopan</effectcategory>
									<effecttype>audiopan</effecttype>
									<mediatype>audio</mediatype>
									<parameter>
										<name>Pan</name>
										<parameterid>pan</parameterid>
										<valuemin>-1</valuemin>
										<valuemax>1</valuemax>
										<value>0</value>
									</parameter>
								</effect>
							</filter>
							<sourcetrack>
								<mediatype>audio</mediatype>
								<trackindex>2</trackindex>
							</sourcetrack>
							<link>
								<linkclipref>msub200012-0409d2k1002 29</linkclipref>
								<mediatype>video</mediatype>
								<trackindex>1</trackindex>
								<clipindex>1</clipindex>
							</link>
							<link>
								<linkclipref>msub200012-0409d2k1002 30</linkclipref>
								<mediatype>audio</mediatype>
								<trackindex>1</trackindex>
								<clipindex>1</clipindex>
							</link>
							<link>
								<linkclipref>msub200012-0409d2k1002 31</linkclipref>
								<mediatype>audio</mediatype>
								<trackindex>2</trackindex>
								<clipindex>1</clipindex>
							</link>
							<link>
								<linkclipref>msub200012-0409d2k1002 32</linkclipref>
								<mediatype>audio</mediatype>
								<trackindex>3</trackindex>
								<clipindex>1</clipindex>
							</link>
							<link>
								<linkclipref>msub200012-0409d2k1002 33</linkclipref>
								<mediatype>audio</mediatype>
								<trackindex>4</trackindex>
								<clipindex>1</clipindex>
							</link>
							<link>
								<linkclipref>msub200012-0409d2k1002 34</linkclipref>
								<mediatype>audio</mediatype>
								<trackindex>5</trackindex>
								<clipindex>1</clipindex>
							</link>
							<link>
								<linkclipref>msub200012-0409d2k1002 35</linkclipref>
								<mediatype>audio</mediatype>
								<trackindex>6</trackindex>
								<clipindex>1</clipindex>
							</link>
							<link>
								<linkclipref>msub200012-0409d2k1002 36</linkclipref>
								<mediatype>audio</mediatype>
								<trackindex>7</trackindex>
								<clipindex>1</clipindex>
							</link>
							<link>
								<linkclipref>msub200012-0409d2k1002 37</linkclipref>
								<mediatype>audio</mediatype>
								<trackindex>8</trackindex>
								<clipindex>1</clipindex>
							</link>
						</clipitem>
						<enabled>TRUE</enabled>
						<locked>FALSE</locked>
					</track>
					<track>
						<clipitem id="msub200012-0409d2k1002 32">
							<name>msub200012-0409d2k1002</name>
							<duration>10180</duration>
							<rate>
								<ntsc>FALSE</ntsc>
								<timebase>25</timebase>
							</rate>
							<in>0</in>
							<out>10180</out>
							<start>0</start>
							<end>10180</end>
							<subframeoffset>0</subframeoffset>
							<masterclipid>msub200012-0409d2k1002 1</masterclipid>
							<syncoffset>0</syncoffset>
							<logginginfo>
								<description>msub200012-0409d2k1002</description>
								<scene/>
								<shottake/>
								<lognote/>
								<good>FALSE</good>
							</logginginfo>
							<labels>
								<label>Best Take</label>
								<label2/>
							</labels>
							<comments>
								<mastercomment1>RÅSTOFF. BR_FINFREDAG_MSUA_OPRO</mastercomment1>
								<mastercomment2/>
								<mastercomment3/>
								<mastercomment4/>
							</comments>
							<file id="msub200012-0409d2k1002 2"/>
							<filter>
								<effect>
									<name>Audio Levels</name>
									<effectid>audiolevels</effectid>
									<effectcategory>audiolevels</effectcategory>
									<effecttype>audiolevels</effecttype>
									<mediatype>audio</mediatype>
									<parameter>
										<name>Level</name>
										<parameterid>level</parameterid>
										<valuemin>0</valuemin>
										<valuemax>3.98109</valuemax>
										<value>1</value>
									</parameter>
								</effect>
							</filter>
							<filter>
								<effect>
									<name>Audio Pan</name>
									<effectid>audiopan</effectid>
									<effectcategory>audiopan</effectcategory>
									<effecttype>audiopan</effecttype>
									<mediatype>audio</mediatype>
									<parameter>
										<name>Pan</name>
										<parameterid>pan</parameterid>
										<valuemin>-1</valuemin>
										<valuemax>1</valuemax>
										<value>0</value>
									</parameter>
								</effect>
							</filter>
							<sourcetrack>
								<mediatype>audio</mediatype>
								<trackindex>3</trackindex>
							</sourcetrack>
							<link>
								<linkclipref>msub200012-0409d2k1002 29</linkclipref>
								<mediatype>video</mediatype>
								<trackindex>1</trackindex>
								<clipindex>1</clipindex>
							</link>
							<link>
								<linkclipref>msub200012-0409d2k1002 30</linkclipref>
								<mediatype>audio</mediatype>
								<trackindex>1</trackindex>
								<clipindex>1</clipindex>
							</link>
							<link>
								<linkclipref>msub200012-0409d2k1002 31</linkclipref>
								<mediatype>audio</mediatype>
								<trackindex>2</trackindex>
								<clipindex>1</clipindex>
							</link>
							<link>
								<linkclipref>msub200012-0409d2k1002 32</linkclipref>
								<mediatype>audio</mediatype>
								<trackindex>3</trackindex>
								<clipindex>1</clipindex>
							</link>
							<link>
								<linkclipref>msub200012-0409d2k1002 33</linkclipref>
								<mediatype>audio</mediatype>
								<trackindex>4</trackindex>
								<clipindex>1</clipindex>
							</link>
							<link>
								<linkclipref>msub200012-0409d2k1002 34</linkclipref>
								<mediatype>audio</mediatype>
								<trackindex>5</trackindex>
								<clipindex>1</clipindex>
							</link>
							<link>
								<linkclipref>msub200012-0409d2k1002 35</linkclipref>
								<mediatype>audio</mediatype>
								<trackindex>6</trackindex>
								<clipindex>1</clipindex>
							</link>
							<link>
								<linkclipref>msub200012-0409d2k1002 36</linkclipref>
								<mediatype>audio</mediatype>
								<trackindex>7</trackindex>
								<clipindex>1</clipindex>
							</link>
							<link>
								<linkclipref>msub200012-0409d2k1002 37</linkclipref>
								<mediatype>audio</mediatype>
								<trackindex>8</trackindex>
								<clipindex>1</clipindex>
							</link>
						</clipitem>
						<enabled>TRUE</enabled>
						<locked>FALSE</locked>
					</track>
					<track>
						<clipitem id="msub200012-0409d2k1002 33">
							<name>msub200012-0409d2k1002</name>
							<duration>10180</duration>
							<rate>
								<ntsc>FALSE</ntsc>
								<timebase>25</timebase>
							</rate>
							<in>0</in>
							<out>10180</out>
							<start>0</start>
							<end>10180</end>
							<subframeoffset>0</subframeoffset>
							<masterclipid>msub200012-0409d2k1002 1</masterclipid>
							<syncoffset>0</syncoffset>
							<logginginfo>
								<description>msub200012-0409d2k1002</description>
								<scene/>
								<shottake/>
								<lognote/>
								<good>FALSE</good>
							</logginginfo>
							<labels>
								<label>Best Take</label>
								<label2/>
							</labels>
							<comments>
								<mastercomment1>RÅSTOFF. BR_FINFREDAG_MSUA_OPRO</mastercomment1>
								<mastercomment2/>
								<mastercomment3/>
								<mastercomment4/>
							</comments>
							<file id="msub200012-0409d2k1002 2"/>
							<filter>
								<effect>
									<name>Audio Levels</name>
									<effectid>audiolevels</effectid>
									<effectcategory>audiolevels</effectcategory>
									<effecttype>audiolevels</effecttype>
									<mediatype>audio</mediatype>
									<parameter>
										<name>Level</name>
										<parameterid>level</parameterid>
										<valuemin>0</valuemin>
										<valuemax>3.98109</valuemax>
										<value>1</value>
									</parameter>
								</effect>
							</filter>
							<filter>
								<effect>
									<name>Audio Pan</name>
									<effectid>audiopan</effectid>
									<effectcategory>audiopan</effectcategory>
									<effecttype>audiopan</effecttype>
									<mediatype>audio</mediatype>
									<parameter>
										<name>Pan</name>
										<parameterid>pan</parameterid>
										<valuemin>-1</valuemin>
										<valuemax>1</valuemax>
										<value>0</value>
									</parameter>
								</effect>
							</filter>
							<sourcetrack>
								<mediatype>audio</mediatype>
								<trackindex>4</trackindex>
							</sourcetrack>
							<link>
								<linkclipref>msub200012-0409d2k1002 29</linkclipref>
								<mediatype>video</mediatype>
								<trackindex>1</trackindex>
								<clipindex>1</clipindex>
							</link>
							<link>
								<linkclipref>msub200012-0409d2k1002 30</linkclipref>
								<mediatype>audio</mediatype>
								<trackindex>1</trackindex>
								<clipindex>1</clipindex>
							</link>
							<link>
								<linkclipref>msub200012-0409d2k1002 31</linkclipref>
								<mediatype>audio</mediatype>
								<trackindex>2</trackindex>
								<clipindex>1</clipindex>
							</link>
							<link>
								<linkclipref>msub200012-0409d2k1002 32</linkclipref>
								<mediatype>audio</mediatype>
								<trackindex>3</trackindex>
								<clipindex>1</clipindex>
							</link>
							<link>
								<linkclipref>msub200012-0409d2k1002 33</linkclipref>
								<mediatype>audio</mediatype>
								<trackindex>4</trackindex>
								<clipindex>1</clipindex>
							</link>
							<link>
								<linkclipref>msub200012-0409d2k1002 34</linkclipref>
								<mediatype>audio</mediatype>
								<trackindex>5</trackindex>
								<clipindex>1</clipindex>
							</link>
							<link>
								<linkclipref>msub200012-0409d2k1002 35</linkclipref>
								<mediatype>audio</mediatype>
								<trackindex>6</trackindex>
								<clipindex>1</clipindex>
							</link>
							<link>
								<linkclipref>msub200012-0409d2k1002 36</linkclipref>
								<mediatype>audio</mediatype>
								<trackindex>7</trackindex>
								<clipindex>1</clipindex>
							</link>
							<link>
								<linkclipref>msub200012-0409d2k1002 37</linkclipref>
								<mediatype>audio</mediatype>
								<trackindex>8</trackindex>
								<clipindex>1</clipindex>
							</link>
						</clipitem>
						<enabled>TRUE</enabled>
						<locked>FALSE</locked>
					</track>
					<track>
						<clipitem id="msub200012-0409d2k1002 34">
							<name>msub200012-0409d2k1002</name>
							<duration>10180</duration>
							<rate>
								<ntsc>FALSE</ntsc>
								<timebase>25</timebase>
							</rate>
							<in>0</in>
							<out>10180</out>
							<start>0</start>
							<end>10180</end>
							<subframeoffset>0</subframeoffset>
							<masterclipid>msub200012-0409d2k1002 1</masterclipid>
							<syncoffset>0</syncoffset>
							<logginginfo>
								<description>msub200012-0409d2k1002</description>
								<scene/>
								<shottake/>
								<lognote/>
								<good>FALSE</good>
							</logginginfo>
							<labels>
								<label>Best Take</label>
								<label2/>
							</labels>
							<comments>
								<mastercomment1>RÅSTOFF. BR_FINFREDAG_MSUA_OPRO</mastercomment1>
								<mastercomment2/>
								<mastercomment3/>
								<mastercomment4/>
							</comments>
							<file id="msub200012-0409d2k1002 2"/>
							<filter>
								<effect>
									<name>Audio Levels</name>
									<effectid>audiolevels</effectid>
									<effectcategory>audiolevels</effectcategory>
									<effecttype>audiolevels</effecttype>
									<mediatype>audio</mediatype>
									<parameter>
										<name>Level</name>
										<parameterid>level</parameterid>
										<valuemin>0</valuemin>
										<valuemax>3.98109</valuemax>
										<value>1</value>
									</parameter>
								</effect>
							</filter>
							<filter>
								<effect>
									<name>Audio Pan</name>
									<effectid>audiopan</effectid>
									<effectcategory>audiopan</effectcategory>
									<effecttype>audiopan</effecttype>
									<mediatype>audio</mediatype>
									<parameter>
										<name>Pan</name>
										<parameterid>pan</parameterid>
										<valuemin>-1</valuemin>
										<valuemax>1</valuemax>
										<value>0</value>
									</parameter>
								</effect>
							</filter>
							<sourcetrack>
								<mediatype>audio</mediatype>
								<trackindex>5</trackindex>
							</sourcetrack>
							<link>
								<linkclipref>msub200012-0409d2k1002 29</linkclipref>
								<mediatype>video</mediatype>
								<trackindex>1</trackindex>
								<clipindex>1</clipindex>
							</link>
							<link>
								<linkclipref>msub200012-0409d2k1002 30</linkclipref>
								<mediatype>audio</mediatype>
								<trackindex>1</trackindex>
								<clipindex>1</clipindex>
							</link>
							<link>
								<linkclipref>msub200012-0409d2k1002 31</linkclipref>
								<mediatype>audio</mediatype>
								<trackindex>2</trackindex>
								<clipindex>1</clipindex>
							</link>
							<link>
								<linkclipref>msub200012-0409d2k1002 32</linkclipref>
								<mediatype>audio</mediatype>
								<trackindex>3</trackindex>
								<clipindex>1</clipindex>
							</link>
							<link>
								<linkclipref>msub200012-0409d2k1002 33</linkclipref>
								<mediatype>audio</mediatype>
								<trackindex>4</trackindex>
								<clipindex>1</clipindex>
							</link>
							<link>
								<linkclipref>msub200012-0409d2k1002 34</linkclipref>
								<mediatype>audio</mediatype>
								<trackindex>5</trackindex>
								<clipindex>1</clipindex>
							</link>
							<link>
								<linkclipref>msub200012-0409d2k1002 35</linkclipref>
								<mediatype>audio</mediatype>
								<trackindex>6</trackindex>
								<clipindex>1</clipindex>
							</link>
							<link>
								<linkclipref>msub200012-0409d2k1002 36</linkclipref>
								<mediatype>audio</mediatype>
								<trackindex>7</trackindex>
								<clipindex>1</clipindex>
							</link>
							<link>
								<linkclipref>msub200012-0409d2k1002 37</linkclipref>
								<mediatype>audio</mediatype>
								<trackindex>8</trackindex>
								<clipindex>1</clipindex>
							</link>
						</clipitem>
						<enabled>TRUE</enabled>
						<locked>FALSE</locked>
					</track>
					<track>
						<clipitem id="msub200012-0409d2k1002 35">
							<name>msub200012-0409d2k1002</name>
							<duration>10180</duration>
							<rate>
								<ntsc>FALSE</ntsc>
								<timebase>25</timebase>
							</rate>
							<in>0</in>
							<out>10180</out>
							<start>0</start>
							<end>10180</end>
							<subframeoffset>0</subframeoffset>
							<masterclipid>msub200012-0409d2k1002 1</masterclipid>
							<syncoffset>0</syncoffset>
							<logginginfo>
								<description>msub200012-0409d2k1002</description>
								<scene/>
								<shottake/>
								<lognote/>
								<good>FALSE</good>
							</logginginfo>
							<labels>
								<label>Best Take</label>
								<label2/>
							</labels>
							<comments>
								<mastercomment1>RÅSTOFF. BR_FINFREDAG_MSUA_OPRO</mastercomment1>
								<mastercomment2/>
								<mastercomment3/>
								<mastercomment4/>
							</comments>
							<file id="msub200012-0409d2k1002 2"/>
							<filter>
								<effect>
									<name>Audio Levels</name>
									<effectid>audiolevels</effectid>
									<effectcategory>audiolevels</effectcategory>
									<effecttype>audiolevels</effecttype>
									<mediatype>audio</mediatype>
									<parameter>
										<name>Level</name>
										<parameterid>level</parameterid>
										<valuemin>0</valuemin>
										<valuemax>3.98109</valuemax>
										<value>1</value>
									</parameter>
								</effect>
							</filter>
							<filter>
								<effect>
									<name>Audio Pan</name>
									<effectid>audiopan</effectid>
									<effectcategory>audiopan</effectcategory>
									<effecttype>audiopan</effecttype>
									<mediatype>audio</mediatype>
									<parameter>
										<name>Pan</name>
										<parameterid>pan</parameterid>
										<valuemin>-1</valuemin>
										<valuemax>1</valuemax>
										<value>0</value>
									</parameter>
								</effect>
							</filter>
							<sourcetrack>
								<mediatype>audio</mediatype>
								<trackindex>6</trackindex>
							</sourcetrack>
							<link>
								<linkclipref>msub200012-0409d2k1002 29</linkclipref>
								<mediatype>video</mediatype>
								<trackindex>1</trackindex>
								<clipindex>1</clipindex>
							</link>
							<link>
								<linkclipref>msub200012-0409d2k1002 30</linkclipref>
								<mediatype>audio</mediatype>
								<trackindex>1</trackindex>
								<clipindex>1</clipindex>
							</link>
							<link>
								<linkclipref>msub200012-0409d2k1002 31</linkclipref>
								<mediatype>audio</mediatype>
								<trackindex>2</trackindex>
								<clipindex>1</clipindex>
							</link>
							<link>
								<linkclipref>msub200012-0409d2k1002 32</linkclipref>
								<mediatype>audio</mediatype>
								<trackindex>3</trackindex>
								<clipindex>1</clipindex>
							</link>
							<link>
								<linkclipref>msub200012-0409d2k1002 33</linkclipref>
								<mediatype>audio</mediatype>
								<trackindex>4</trackindex>
								<clipindex>1</clipindex>
							</link>
							<link>
								<linkclipref>msub200012-0409d2k1002 34</linkclipref>
								<mediatype>audio</mediatype>
								<trackindex>5</trackindex>
								<clipindex>1</clipindex>
							</link>
							<link>
								<linkclipref>msub200012-0409d2k1002 35</linkclipref>
								<mediatype>audio</mediatype>
								<trackindex>6</trackindex>
								<clipindex>1</clipindex>
							</link>
							<link>
								<linkclipref>msub200012-0409d2k1002 36</linkclipref>
								<mediatype>audio</mediatype>
								<trackindex>7</trackindex>
								<clipindex>1</clipindex>
							</link>
							<link>
								<linkclipref>msub200012-0409d2k1002 37</linkclipref>
								<mediatype>audio</mediatype>
								<trackindex>8</trackindex>
								<clipindex>1</clipindex>
							</link>
						</clipitem>
						<enabled>TRUE</enabled>
						<locked>FALSE</locked>
					</track>
					<track>
						<clipitem id="msub200012-0409d2k1002 36">
							<name>msub200012-0409d2k1002</name>
							<duration>10180</duration>
							<rate>
								<ntsc>FALSE</ntsc>
								<timebase>25</timebase>
							</rate>
							<in>0</in>
							<out>10180</out>
							<start>0</start>
							<end>10180</end>
							<subframeoffset>0</subframeoffset>
							<masterclipid>msub200012-0409d2k1002 1</masterclipid>
							<syncoffset>0</syncoffset>
							<logginginfo>
								<description>msub200012-0409d2k1002</description>
								<scene/>
								<shottake/>
								<lognote/>
								<good>FALSE</good>
							</logginginfo>
							<labels>
								<label>Best Take</label>
								<label2/>
							</labels>
							<comments>
								<mastercomment1>RÅSTOFF. BR_FINFREDAG_MSUA_OPRO</mastercomment1>
								<mastercomment2/>
								<mastercomment3/>
								<mastercomment4/>
							</comments>
							<file id="msub200012-0409d2k1002 2"/>
							<filter>
								<effect>
									<name>Audio Levels</name>
									<effectid>audiolevels</effectid>
									<effectcategory>audiolevels</effectcategory>
									<effecttype>audiolevels</effecttype>
									<mediatype>audio</mediatype>
									<parameter>
										<name>Level</name>
										<parameterid>level</parameterid>
										<valuemin>0</valuemin>
										<valuemax>3.98109</valuemax>
										<value>1</value>
									</parameter>
								</effect>
							</filter>
							<filter>
								<effect>
									<name>Audio Pan</name>
									<effectid>audiopan</effectid>
									<effectcategory>audiopan</effectcategory>
									<effecttype>audiopan</effecttype>
									<mediatype>audio</mediatype>
									<parameter>
										<name>Pan</name>
										<parameterid>pan</parameterid>
										<valuemin>-1</valuemin>
										<valuemax>1</valuemax>
										<value>0</value>
									</parameter>
								</effect>
							</filter>
							<sourcetrack>
								<mediatype>audio</mediatype>
								<trackindex>7</trackindex>
							</sourcetrack>
							<link>
								<linkclipref>msub200012-0409d2k1002 29</linkclipref>
								<mediatype>video</mediatype>
								<trackindex>1</trackindex>
								<clipindex>1</clipindex>
							</link>
							<link>
								<linkclipref>msub200012-0409d2k1002 30</linkclipref>
								<mediatype>audio</mediatype>
								<trackindex>1</trackindex>
								<clipindex>1</clipindex>
							</link>
							<link>
								<linkclipref>msub200012-0409d2k1002 31</linkclipref>
								<mediatype>audio</mediatype>
								<trackindex>2</trackindex>
								<clipindex>1</clipindex>
							</link>
							<link>
								<linkclipref>msub200012-0409d2k1002 32</linkclipref>
								<mediatype>audio</mediatype>
								<trackindex>3</trackindex>
								<clipindex>1</clipindex>
							</link>
							<link>
								<linkclipref>msub200012-0409d2k1002 33</linkclipref>
								<mediatype>audio</mediatype>
								<trackindex>4</trackindex>
								<clipindex>1</clipindex>
							</link>
							<link>
								<linkclipref>msub200012-0409d2k1002 34</linkclipref>
								<mediatype>audio</mediatype>
								<trackindex>5</trackindex>
								<clipindex>1</clipindex>
							</link>
							<link>
								<linkclipref>msub200012-0409d2k1002 35</linkclipref>
								<mediatype>audio</mediatype>
								<trackindex>6</trackindex>
								<clipindex>1</clipindex>
							</link>
							<link>
								<linkclipref>msub200012-0409d2k1002 36</linkclipref>
								<mediatype>audio</mediatype>
								<trackindex>7</trackindex>
								<clipindex>1</clipindex>
							</link>
							<link>
								<linkclipref>msub200012-0409d2k1002 37</linkclipref>
								<mediatype>audio</mediatype>
								<trackindex>8</trackindex>
								<clipindex>1</clipindex>
							</link>
						</clipitem>
						<enabled>TRUE</enabled>
						<locked>FALSE</locked>
					</track>
					<track>
						<clipitem id="msub200012-0409d2k1002 37">
							<name>msub200012-0409d2k1002</name>
							<duration>10180</duration>
							<rate>
								<ntsc>FALSE</ntsc>
								<timebase>25</timebase>
							</rate>
							<in>0</in>
							<out>10180</out>
							<start>0</start>
							<end>10180</end>
							<subframeoffset>0</subframeoffset>
							<masterclipid>msub200012-0409d2k1002 1</masterclipid>
							<syncoffset>0</syncoffset>
							<logginginfo>
								<description>msub200012-0409d2k1002</description>
								<scene/>
								<shottake/>
								<lognote/>
								<good>FALSE</good>
							</logginginfo>
							<labels>
								<label>Best Take</label>
								<label2/>
							</labels>
							<comments>
								<mastercomment1>RÅSTOFF. BR_FINFREDAG_MSUA_OPRO</mastercomment1>
								<mastercomment2/>
								<mastercomment3/>
								<mastercomment4/>
							</comments>
							<file id="msub200012-0409d2k1002 2"/>
							<filter>
								<effect>
									<name>Audio Levels</name>
									<effectid>audiolevels</effectid>
									<effectcategory>audiolevels</effectcategory>
									<effecttype>audiolevels</effecttype>
									<mediatype>audio</mediatype>
									<parameter>
										<name>Level</name>
										<parameterid>level</parameterid>
										<valuemin>0</valuemin>
										<valuemax>3.98109</valuemax>
										<value>1</value>
									</parameter>
								</effect>
							</filter>
							<filter>
								<effect>
									<name>Audio Pan</name>
									<effectid>audiopan</effectid>
									<effectcategory>audiopan</effectcategory>
									<effecttype>audiopan</effecttype>
									<mediatype>audio</mediatype>
									<parameter>
										<name>Pan</name>
										<parameterid>pan</parameterid>
										<valuemin>-1</valuemin>
										<valuemax>1</valuemax>
										<value>0</value>
									</parameter>
								</effect>
							</filter>
							<sourcetrack>
								<mediatype>audio</mediatype>
								<trackindex>8</trackindex>
							</sourcetrack>
							<link>
								<linkclipref>msub200012-0409d2k1002 29</linkclipref>
								<mediatype>video</mediatype>
								<trackindex>1</trackindex>
								<clipindex>1</clipindex>
							</link>
							<link>
								<linkclipref>msub200012-0409d2k1002 30</linkclipref>
								<mediatype>audio</mediatype>
								<trackindex>1</trackindex>
								<clipindex>1</clipindex>
							</link>
							<link>
								<linkclipref>msub200012-0409d2k1002 31</linkclipref>
								<mediatype>audio</mediatype>
								<trackindex>2</trackindex>
								<clipindex>1</clipindex>
							</link>
							<link>
								<linkclipref>msub200012-0409d2k1002 32</linkclipref>
								<mediatype>audio</mediatype>
								<trackindex>3</trackindex>
								<clipindex>1</clipindex>
							</link>
							<link>
								<linkclipref>msub200012-0409d2k1002 33</linkclipref>
								<mediatype>audio</mediatype>
								<trackindex>4</trackindex>
								<clipindex>1</clipindex>
							</link>
							<link>
								<linkclipref>msub200012-0409d2k1002 34</linkclipref>
								<mediatype>audio</mediatype>
								<trackindex>5</trackindex>
								<clipindex>1</clipindex>
							</link>
							<link>
								<linkclipref>msub200012-0409d2k1002 35</linkclipref>
								<mediatype>audio</mediatype>
								<trackindex>6</trackindex>
								<clipindex>1</clipindex>
							</link>
							<link>
								<linkclipref>msub200012-0409d2k1002 36</linkclipref>
								<mediatype>audio</mediatype>
								<trackindex>7</trackindex>
								<clipindex>1</clipindex>
							</link>
							<link>
								<linkclipref>msub200012-0409d2k1002 37</linkclipref>
								<mediatype>audio</mediatype>
								<trackindex>8</trackindex>
								<clipindex>1</clipindex>
							</link>
						</clipitem>
						<enabled>TRUE</enabled>
						<locked>FALSE</locked>
					</track>
				</audio>
			</media>
		</clip>
		<clip id="msub200012-0409d3k2005 ">
			<name>msub200012-0409d3k2005</name>
			<duration>6856</duration>
			<rate>
				<ntsc>FALSE</ntsc>
				<timebase>25</timebase>
			</rate>
			<in>97</in>
			<out>-1</out>
			<masterclipid>msub200012-0409d3k2005 1</masterclipid>
			<ismasterclip>FALSE</ismasterclip>
			<logginginfo>
				<description>msub200012-0409d3k2005</description>
				<scene/>
				<shottake/>
				<lognote/>
				<good>FALSE</good>
			</logginginfo>
			<labels>
				<label>Good Take</label>
				<label2/>
			</labels>
			<comments>
				<mastercomment1>RÅSTOFF. BR_FINFREDAG_MSUA_OPRO</mastercomment1>
				<mastercomment2/>
				<mastercomment3/>
				<mastercomment4/>
			</comments>
			<media>
				<video>
					<track>
						<clipitem id="msub200012-0409d3k2005 2">
							<name>msub200012-0409d3k2005</name>
							<duration>6856</duration>
							<rate>
								<ntsc>FALSE</ntsc>
								<timebase>25</timebase>
							</rate>
							<in>0</in>
							<out>6856</out>
							<start>0</start>
							<end>6856</end>
							<pixelaspectratio>Square</pixelaspectratio>
							<anamorphic>FALSE</anamorphic>
							<alphatype>none</alphatype>
							<masterclipid>msub200012-0409d3k2005 1</masterclipid>
							<syncoffset>0</syncoffset>
							<logginginfo>
								<scene/>
								<shottake/>
								<lognote/>
								<good>FALSE</good>
							</logginginfo>
							<labels>
								<label>Good Take</label>
								<label2/>
							</labels>
							<comments>
								<mastercomment1>RÅSTOFF. BR_FINFREDAG_MSUA_OPRO</mastercomment1>
								<mastercomment2/>
								<mastercomment3/>
								<mastercomment4/>
							</comments>
							<file id="msub200012-0409d3k2005 3">
								<name>msub200012-0409d3k2005.mxf</name>
								<pathurl>file://localhost/Volumes/omfs/clip.dir/MXF/1080i/msub200012-0409d3k2005.mxf</pathurl>
								<rate>
									<timebase>25</timebase>
								</rate>
								<duration>6856</duration>
								<timecode>
									<rate>
										<timebase>25</timebase>
									</rate>
									<string>21:06:34:10</string>
									<frame>1899860</frame>
									<displayformat>NDF</displayformat>
									<source>source</source>
								</timecode>
								<media>
									<video>
										<duration>6856</duration>
										<samplecharacteristics>
											<width>1920</width>
											<height>1080</height>
										</samplecharacteristics>
									</video>
									<audio>
										<rate>
											<timebase>48000</timebase>
										</rate>
										<trackcount>1</trackcount>
										<samplecharacteristics>
											<depth>24</depth>
										</samplecharacteristics>
									</audio>
								</media>
							</file>
							<sourcetrack>
								<mediatype>video</mediatype>
							</sourcetrack>
							<link>
								<linkclipref>msub200012-0409d3k2005 2</linkclipref>
								<mediatype>video</mediatype>
								<trackindex>1</trackindex>
								<clipindex>1</clipindex>
							</link>
							<link>
								<linkclipref>msub200012-0409d3k2005 4</linkclipref>
								<mediatype>audio</mediatype>
								<trackindex>1</trackindex>
								<clipindex>1</clipindex>
							</link>
							<link>
								<linkclipref>msub200012-0409d3k2005 5</linkclipref>
								<mediatype>audio</mediatype>
								<trackindex>2</trackindex>
								<clipindex>1</clipindex>
							</link>
							<link>
								<linkclipref>msub200012-0409d3k2005 6</linkclipref>
								<mediatype>audio</mediatype>
								<trackindex>3</trackindex>
								<clipindex>1</clipindex>
							</link>
							<link>
								<linkclipref>msub200012-0409d3k2005 7</linkclipref>
								<mediatype>audio</mediatype>
								<trackindex>4</trackindex>
								<clipindex>1</clipindex>
							</link>
							<link>
								<linkclipref>msub200012-0409d3k2005 8</linkclipref>
								<mediatype>audio</mediatype>
								<trackindex>5</trackindex>
								<clipindex>1</clipindex>
							</link>
							<link>
								<linkclipref>msub200012-0409d3k2005 9</linkclipref>
								<mediatype>audio</mediatype>
								<trackindex>6</trackindex>
								<clipindex>1</clipindex>
							</link>
							<link>
								<linkclipref>msub200012-0409d3k2005 10</linkclipref>
								<mediatype>audio</mediatype>
								<trackindex>7</trackindex>
								<clipindex>1</clipindex>
							</link>
							<link>
								<linkclipref>msub200012-0409d3k2005 11</linkclipref>
								<mediatype>audio</mediatype>
								<trackindex>8</trackindex>
								<clipindex>1</clipindex>
							</link>
							<fielddominance>upper</fielddominance>
						</clipitem>
						<enabled>TRUE</enabled>
						<locked>FALSE</locked>
					</track>
				</video>
				<audio>
					<in>97</in>
					<out>-1</out>
					<track>
						<clipitem id="msub200012-0409d3k2005 4">
							<name>msub200012-0409d3k2005</name>
							<duration>6856</duration>
							<rate>
								<ntsc>FALSE</ntsc>
								<timebase>25</timebase>
							</rate>
							<in>0</in>
							<out>6856</out>
							<start>0</start>
							<end>6856</end>
							<subframeoffset>0</subframeoffset>
							<masterclipid>msub200012-0409d3k2005 1</masterclipid>
							<syncoffset>0</syncoffset>
							<logginginfo>
								<scene/>
								<shottake/>
								<lognote/>
								<good>FALSE</good>
							</logginginfo>
							<labels>
								<label>Good Take</label>
								<label2/>
							</labels>
							<comments>
								<mastercomment1>RÅSTOFF. BR_FINFREDAG_MSUA_OPRO</mastercomment1>
								<mastercomment2/>
								<mastercomment3/>
								<mastercomment4/>
							</comments>
							<file id="msub200012-0409d3k2005 3"/>
							<filter>
								<effect>
									<name>Audio Levels</name>
									<effectid>audiolevels</effectid>
									<effectcategory>audiolevels</effectcategory>
									<effecttype>audiolevels</effecttype>
									<mediatype>audio</mediatype>
									<parameter>
										<name>Level</name>
										<parameterid>level</parameterid>
										<valuemin>0</valuemin>
										<valuemax>3.98109</valuemax>
										<value>1</value>
									</parameter>
								</effect>
							</filter>
							<filter>
								<effect>
									<name>Audio Pan</name>
									<effectid>audiopan</effectid>
									<effectcategory>audiopan</effectcategory>
									<effecttype>audiopan</effecttype>
									<mediatype>audio</mediatype>
									<parameter>
										<name>Pan</name>
										<parameterid>pan</parameterid>
										<valuemin>-1</valuemin>
										<valuemax>1</valuemax>
										<value>0</value>
									</parameter>
								</effect>
							</filter>
							<sourcetrack>
								<mediatype>audio</mediatype>
								<trackindex>1</trackindex>
							</sourcetrack>
							<link>
								<linkclipref>msub200012-0409d3k2005 2</linkclipref>
								<mediatype>video</mediatype>
								<trackindex>1</trackindex>
								<clipindex>1</clipindex>
							</link>
							<link>
								<linkclipref>msub200012-0409d3k2005 4</linkclipref>
								<mediatype>audio</mediatype>
								<trackindex>1</trackindex>
								<clipindex>1</clipindex>
							</link>
							<link>
								<linkclipref>msub200012-0409d3k2005 5</linkclipref>
								<mediatype>audio</mediatype>
								<trackindex>2</trackindex>
								<clipindex>1</clipindex>
							</link>
							<link>
								<linkclipref>msub200012-0409d3k2005 6</linkclipref>
								<mediatype>audio</mediatype>
								<trackindex>3</trackindex>
								<clipindex>1</clipindex>
							</link>
							<link>
								<linkclipref>msub200012-0409d3k2005 7</linkclipref>
								<mediatype>audio</mediatype>
								<trackindex>4</trackindex>
								<clipindex>1</clipindex>
							</link>
							<link>
								<linkclipref>msub200012-0409d3k2005 8</linkclipref>
								<mediatype>audio</mediatype>
								<trackindex>5</trackindex>
								<clipindex>1</clipindex>
							</link>
							<link>
								<linkclipref>msub200012-0409d3k2005 9</linkclipref>
								<mediatype>audio</mediatype>
								<trackindex>6</trackindex>
								<clipindex>1</clipindex>
							</link>
							<link>
								<linkclipref>msub200012-0409d3k2005 10</linkclipref>
								<mediatype>audio</mediatype>
								<trackindex>7</trackindex>
								<clipindex>1</clipindex>
							</link>
							<link>
								<linkclipref>msub200012-0409d3k2005 11</linkclipref>
								<mediatype>audio</mediatype>
								<trackindex>8</trackindex>
								<clipindex>1</clipindex>
							</link>
						</clipitem>
						<enabled>TRUE</enabled>
						<locked>FALSE</locked>
					</track>
					<track>
						<clipitem id="msub200012-0409d3k2005 5">
							<name>msub200012-0409d3k2005</name>
							<duration>6856</duration>
							<rate>
								<ntsc>FALSE</ntsc>
								<timebase>25</timebase>
							</rate>
							<in>0</in>
							<out>6856</out>
							<start>0</start>
							<end>6856</end>
							<subframeoffset>0</subframeoffset>
							<masterclipid>msub200012-0409d3k2005 1</masterclipid>
							<syncoffset>0</syncoffset>
							<logginginfo>
								<scene/>
								<shottake/>
								<lognote/>
								<good>FALSE</good>
							</logginginfo>
							<labels>
								<label>Good Take</label>
								<label2/>
							</labels>
							<comments>
								<mastercomment1>RÅSTOFF. BR_FINFREDAG_MSUA_OPRO</mastercomment1>
								<mastercomment2/>
								<mastercomment3/>
								<mastercomment4/>
							</comments>
							<file id="msub200012-0409d3k2005 3"/>
							<filter>
								<effect>
									<name>Audio Levels</name>
									<effectid>audiolevels</effectid>
									<effectcategory>audiolevels</effectcategory>
									<effecttype>audiolevels</effecttype>
									<mediatype>audio</mediatype>
									<parameter>
										<name>Level</name>
										<parameterid>level</parameterid>
										<valuemin>0</valuemin>
										<valuemax>3.98109</valuemax>
										<value>1</value>
									</parameter>
								</effect>
							</filter>
							<filter>
								<effect>
									<name>Audio Pan</name>
									<effectid>audiopan</effectid>
									<effectcategory>audiopan</effectcategory>
									<effecttype>audiopan</effecttype>
									<mediatype>audio</mediatype>
									<parameter>
										<name>Pan</name>
										<parameterid>pan</parameterid>
										<valuemin>-1</valuemin>
										<valuemax>1</valuemax>
										<value>0</value>
									</parameter>
								</effect>
							</filter>
							<sourcetrack>
								<mediatype>audio</mediatype>
								<trackindex>2</trackindex>
							</sourcetrack>
							<link>
								<linkclipref>msub200012-0409d3k2005 2</linkclipref>
								<mediatype>video</mediatype>
								<trackindex>1</trackindex>
								<clipindex>1</clipindex>
							</link>
							<link>
								<linkclipref>msub200012-0409d3k2005 4</linkclipref>
								<mediatype>audio</mediatype>
								<trackindex>1</trackindex>
								<clipindex>1</clipindex>
							</link>
							<link>
								<linkclipref>msub200012-0409d3k2005 5</linkclipref>
								<mediatype>audio</mediatype>
								<trackindex>2</trackindex>
								<clipindex>1</clipindex>
							</link>
							<link>
								<linkclipref>msub200012-0409d3k2005 6</linkclipref>
								<mediatype>audio</mediatype>
								<trackindex>3</trackindex>
								<clipindex>1</clipindex>
							</link>
							<link>
								<linkclipref>msub200012-0409d3k2005 7</linkclipref>
								<mediatype>audio</mediatype>
								<trackindex>4</trackindex>
								<clipindex>1</clipindex>
							</link>
							<link>
								<linkclipref>msub200012-0409d3k2005 8</linkclipref>
								<mediatype>audio</mediatype>
								<trackindex>5</trackindex>
								<clipindex>1</clipindex>
							</link>
							<link>
								<linkclipref>msub200012-0409d3k2005 9</linkclipref>
								<mediatype>audio</mediatype>
								<trackindex>6</trackindex>
								<clipindex>1</clipindex>
							</link>
							<link>
								<linkclipref>msub200012-0409d3k2005 10</linkclipref>
								<mediatype>audio</mediatype>
								<trackindex>7</trackindex>
								<clipindex>1</clipindex>
							</link>
							<link>
								<linkclipref>msub200012-0409d3k2005 11</linkclipref>
								<mediatype>audio</mediatype>
								<trackindex>8</trackindex>
								<clipindex>1</clipindex>
							</link>
						</clipitem>
						<enabled>TRUE</enabled>
						<locked>FALSE</locked>
					</track>
					<track>
						<clipitem id="msub200012-0409d3k2005 6">
							<name>msub200012-0409d3k2005</name>
							<duration>6856</duration>
							<rate>
								<ntsc>FALSE</ntsc>
								<timebase>25</timebase>
							</rate>
							<in>0</in>
							<out>6856</out>
							<start>0</start>
							<end>6856</end>
							<subframeoffset>0</subframeoffset>
							<masterclipid>msub200012-0409d3k2005 1</masterclipid>
							<syncoffset>0</syncoffset>
							<logginginfo>
								<scene/>
								<shottake/>
								<lognote/>
								<good>FALSE</good>
							</logginginfo>
							<labels>
								<label>Good Take</label>
								<label2/>
							</labels>
							<comments>
								<mastercomment1>RÅSTOFF. BR_FINFREDAG_MSUA_OPRO</mastercomment1>
								<mastercomment2/>
								<mastercomment3/>
								<mastercomment4/>
							</comments>
							<file id="msub200012-0409d3k2005 3"/>
							<filter>
								<effect>
									<name>Audio Levels</name>
									<effectid>audiolevels</effectid>
									<effectcategory>audiolevels</effectcategory>
									<effecttype>audiolevels</effecttype>
									<mediatype>audio</mediatype>
									<parameter>
										<name>Level</name>
										<parameterid>level</parameterid>
										<valuemin>0</valuemin>
										<valuemax>3.98109</valuemax>
										<value>1</value>
									</parameter>
								</effect>
							</filter>
							<filter>
								<effect>
									<name>Audio Pan</name>
									<effectid>audiopan</effectid>
									<effectcategory>audiopan</effectcategory>
									<effecttype>audiopan</effecttype>
									<mediatype>audio</mediatype>
									<parameter>
										<name>Pan</name>
										<parameterid>pan</parameterid>
										<valuemin>-1</valuemin>
										<valuemax>1</valuemax>
										<value>0</value>
									</parameter>
								</effect>
							</filter>
							<sourcetrack>
								<mediatype>audio</mediatype>
								<trackindex>3</trackindex>
							</sourcetrack>
							<link>
								<linkclipref>msub200012-0409d3k2005 2</linkclipref>
								<mediatype>video</mediatype>
								<trackindex>1</trackindex>
								<clipindex>1</clipindex>
							</link>
							<link>
								<linkclipref>msub200012-0409d3k2005 4</linkclipref>
								<mediatype>audio</mediatype>
								<trackindex>1</trackindex>
								<clipindex>1</clipindex>
							</link>
							<link>
								<linkclipref>msub200012-0409d3k2005 5</linkclipref>
								<mediatype>audio</mediatype>
								<trackindex>2</trackindex>
								<clipindex>1</clipindex>
							</link>
							<link>
								<linkclipref>msub200012-0409d3k2005 6</linkclipref>
								<mediatype>audio</mediatype>
								<trackindex>3</trackindex>
								<clipindex>1</clipindex>
							</link>
							<link>
								<linkclipref>msub200012-0409d3k2005 7</linkclipref>
								<mediatype>audio</mediatype>
								<trackindex>4</trackindex>
								<clipindex>1</clipindex>
							</link>
							<link>
								<linkclipref>msub200012-0409d3k2005 8</linkclipref>
								<mediatype>audio</mediatype>
								<trackindex>5</trackindex>
								<clipindex>1</clipindex>
							</link>
							<link>
								<linkclipref>msub200012-0409d3k2005 9</linkclipref>
								<mediatype>audio</mediatype>
								<trackindex>6</trackindex>
								<clipindex>1</clipindex>
							</link>
							<link>
								<linkclipref>msub200012-0409d3k2005 10</linkclipref>
								<mediatype>audio</mediatype>
								<trackindex>7</trackindex>
								<clipindex>1</clipindex>
							</link>
							<link>
								<linkclipref>msub200012-0409d3k2005 11</linkclipref>
								<mediatype>audio</mediatype>
								<trackindex>8</trackindex>
								<clipindex>1</clipindex>
							</link>
						</clipitem>
						<enabled>TRUE</enabled>
						<locked>FALSE</locked>
					</track>
					<track>
						<clipitem id="msub200012-0409d3k2005 7">
							<name>msub200012-0409d3k2005</name>
							<duration>6856</duration>
							<rate>
								<ntsc>FALSE</ntsc>
								<timebase>25</timebase>
							</rate>
							<in>0</in>
							<out>6856</out>
							<start>0</start>
							<end>6856</end>
							<subframeoffset>0</subframeoffset>
							<masterclipid>msub200012-0409d3k2005 1</masterclipid>
							<syncoffset>0</syncoffset>
							<logginginfo>
								<scene/>
								<shottake/>
								<lognote/>
								<good>FALSE</good>
							</logginginfo>
							<labels>
								<label>Good Take</label>
								<label2/>
							</labels>
							<comments>
								<mastercomment1>RÅSTOFF. BR_FINFREDAG_MSUA_OPRO</mastercomment1>
								<mastercomment2/>
								<mastercomment3/>
								<mastercomment4/>
							</comments>
							<file id="msub200012-0409d3k2005 3"/>
							<filter>
								<effect>
									<name>Audio Levels</name>
									<effectid>audiolevels</effectid>
									<effectcategory>audiolevels</effectcategory>
									<effecttype>audiolevels</effecttype>
									<mediatype>audio</mediatype>
									<parameter>
										<name>Level</name>
										<parameterid>level</parameterid>
										<valuemin>0</valuemin>
										<valuemax>3.98109</valuemax>
										<value>1</value>
									</parameter>
								</effect>
							</filter>
							<filter>
								<effect>
									<name>Audio Pan</name>
									<effectid>audiopan</effectid>
									<effectcategory>audiopan</effectcategory>
									<effecttype>audiopan</effecttype>
									<mediatype>audio</mediatype>
									<parameter>
										<name>Pan</name>
										<parameterid>pan</parameterid>
										<valuemin>-1</valuemin>
										<valuemax>1</valuemax>
										<value>0</value>
									</parameter>
								</effect>
							</filter>
							<sourcetrack>
								<mediatype>audio</mediatype>
								<trackindex>4</trackindex>
							</sourcetrack>
							<link>
								<linkclipref>msub200012-0409d3k2005 2</linkclipref>
								<mediatype>video</mediatype>
								<trackindex>1</trackindex>
								<clipindex>1</clipindex>
							</link>
							<link>
								<linkclipref>msub200012-0409d3k2005 4</linkclipref>
								<mediatype>audio</mediatype>
								<trackindex>1</trackindex>
								<clipindex>1</clipindex>
							</link>
							<link>
								<linkclipref>msub200012-0409d3k2005 5</linkclipref>
								<mediatype>audio</mediatype>
								<trackindex>2</trackindex>
								<clipindex>1</clipindex>
							</link>
							<link>
								<linkclipref>msub200012-0409d3k2005 6</linkclipref>
								<mediatype>audio</mediatype>
								<trackindex>3</trackindex>
								<clipindex>1</clipindex>
							</link>
							<link>
								<linkclipref>msub200012-0409d3k2005 7</linkclipref>
								<mediatype>audio</mediatype>
								<trackindex>4</trackindex>
								<clipindex>1</clipindex>
							</link>
							<link>
								<linkclipref>msub200012-0409d3k2005 8</linkclipref>
								<mediatype>audio</mediatype>
								<trackindex>5</trackindex>
								<clipindex>1</clipindex>
							</link>
							<link>
								<linkclipref>msub200012-0409d3k2005 9</linkclipref>
								<mediatype>audio</mediatype>
								<trackindex>6</trackindex>
								<clipindex>1</clipindex>
							</link>
							<link>
								<linkclipref>msub200012-0409d3k2005 10</linkclipref>
								<mediatype>audio</mediatype>
								<trackindex>7</trackindex>
								<clipindex>1</clipindex>
							</link>
							<link>
								<linkclipref>msub200012-0409d3k2005 11</linkclipref>
								<mediatype>audio</mediatype>
								<trackindex>8</trackindex>
								<clipindex>1</clipindex>
							</link>
						</clipitem>
						<enabled>TRUE</enabled>
						<locked>FALSE</locked>
					</track>
					<track>
						<clipitem id="msub200012-0409d3k2005 8">
							<name>msub200012-0409d3k2005</name>
							<duration>6856</duration>
							<rate>
								<ntsc>FALSE</ntsc>
								<timebase>25</timebase>
							</rate>
							<in>0</in>
							<out>6856</out>
							<start>0</start>
							<end>6856</end>
							<subframeoffset>0</subframeoffset>
							<masterclipid>msub200012-0409d3k2005 1</masterclipid>
							<syncoffset>0</syncoffset>
							<logginginfo>
								<scene/>
								<shottake/>
								<lognote/>
								<good>FALSE</good>
							</logginginfo>
							<labels>
								<label>Good Take</label>
								<label2/>
							</labels>
							<comments>
								<mastercomment1>RÅSTOFF. BR_FINFREDAG_MSUA_OPRO</mastercomment1>
								<mastercomment2/>
								<mastercomment3/>
								<mastercomment4/>
							</comments>
							<file id="msub200012-0409d3k2005 3"/>
							<filter>
								<effect>
									<name>Audio Levels</name>
									<effectid>audiolevels</effectid>
									<effectcategory>audiolevels</effectcategory>
									<effecttype>audiolevels</effecttype>
									<mediatype>audio</mediatype>
									<parameter>
										<name>Level</name>
										<parameterid>level</parameterid>
										<valuemin>0</valuemin>
										<valuemax>3.98109</valuemax>
										<value>1</value>
									</parameter>
								</effect>
							</filter>
							<filter>
								<effect>
									<name>Audio Pan</name>
									<effectid>audiopan</effectid>
									<effectcategory>audiopan</effectcategory>
									<effecttype>audiopan</effecttype>
									<mediatype>audio</mediatype>
									<parameter>
										<name>Pan</name>
										<parameterid>pan</parameterid>
										<valuemin>-1</valuemin>
										<valuemax>1</valuemax>
										<value>0</value>
									</parameter>
								</effect>
							</filter>
							<sourcetrack>
								<mediatype>audio</mediatype>
								<trackindex>5</trackindex>
							</sourcetrack>
							<link>
								<linkclipref>msub200012-0409d3k2005 2</linkclipref>
								<mediatype>video</mediatype>
								<trackindex>1</trackindex>
								<clipindex>1</clipindex>
							</link>
							<link>
								<linkclipref>msub200012-0409d3k2005 4</linkclipref>
								<mediatype>audio</mediatype>
								<trackindex>1</trackindex>
								<clipindex>1</clipindex>
							</link>
							<link>
								<linkclipref>msub200012-0409d3k2005 5</linkclipref>
								<mediatype>audio</mediatype>
								<trackindex>2</trackindex>
								<clipindex>1</clipindex>
							</link>
							<link>
								<linkclipref>msub200012-0409d3k2005 6</linkclipref>
								<mediatype>audio</mediatype>
								<trackindex>3</trackindex>
								<clipindex>1</clipindex>
							</link>
							<link>
								<linkclipref>msub200012-0409d3k2005 7</linkclipref>
								<mediatype>audio</mediatype>
								<trackindex>4</trackindex>
								<clipindex>1</clipindex>
							</link>
							<link>
								<linkclipref>msub200012-0409d3k2005 8</linkclipref>
								<mediatype>audio</mediatype>
								<trackindex>5</trackindex>
								<clipindex>1</clipindex>
							</link>
							<link>
								<linkclipref>msub200012-0409d3k2005 9</linkclipref>
								<mediatype>audio</mediatype>
								<trackindex>6</trackindex>
								<clipindex>1</clipindex>
							</link>
							<link>
								<linkclipref>msub200012-0409d3k2005 10</linkclipref>
								<mediatype>audio</mediatype>
								<trackindex>7</trackindex>
								<clipindex>1</clipindex>
							</link>
							<link>
								<linkclipref>msub200012-0409d3k2005 11</linkclipref>
								<mediatype>audio</mediatype>
								<trackindex>8</trackindex>
								<clipindex>1</clipindex>
							</link>
						</clipitem>
						<enabled>TRUE</enabled>
						<locked>FALSE</locked>
					</track>
					<track>
						<clipitem id="msub200012-0409d3k2005 9">
							<name>msub200012-0409d3k2005</name>
							<duration>6856</duration>
							<rate>
								<ntsc>FALSE</ntsc>
								<timebase>25</timebase>
							</rate>
							<in>0</in>
							<out>6856</out>
							<start>0</start>
							<end>6856</end>
							<subframeoffset>0</subframeoffset>
							<masterclipid>msub200012-0409d3k2005 1</masterclipid>
							<syncoffset>0</syncoffset>
							<logginginfo>
								<scene/>
								<shottake/>
								<lognote/>
								<good>FALSE</good>
							</logginginfo>
							<labels>
								<label>Good Take</label>
								<label2/>
							</labels>
							<comments>
								<mastercomment1>RÅSTOFF. BR_FINFREDAG_MSUA_OPRO</mastercomment1>
								<mastercomment2/>
								<mastercomment3/>
								<mastercomment4/>
							</comments>
							<file id="msub200012-0409d3k2005 3"/>
							<filter>
								<effect>
									<name>Audio Levels</name>
									<effectid>audiolevels</effectid>
									<effectcategory>audiolevels</effectcategory>
									<effecttype>audiolevels</effecttype>
									<mediatype>audio</mediatype>
									<parameter>
										<name>Level</name>
										<parameterid>level</parameterid>
										<valuemin>0</valuemin>
										<valuemax>3.98109</valuemax>
										<value>1</value>
									</parameter>
								</effect>
							</filter>
							<filter>
								<effect>
									<name>Audio Pan</name>
									<effectid>audiopan</effectid>
									<effectcategory>audiopan</effectcategory>
									<effecttype>audiopan</effecttype>
									<mediatype>audio</mediatype>
									<parameter>
										<name>Pan</name>
										<parameterid>pan</parameterid>
										<valuemin>-1</valuemin>
										<valuemax>1</valuemax>
										<value>0</value>
									</parameter>
								</effect>
							</filter>
							<sourcetrack>
								<mediatype>audio</mediatype>
								<trackindex>6</trackindex>
							</sourcetrack>
							<link>
								<linkclipref>msub200012-0409d3k2005 2</linkclipref>
								<mediatype>video</mediatype>
								<trackindex>1</trackindex>
								<clipindex>1</clipindex>
							</link>
							<link>
								<linkclipref>msub200012-0409d3k2005 4</linkclipref>
								<mediatype>audio</mediatype>
								<trackindex>1</trackindex>
								<clipindex>1</clipindex>
							</link>
							<link>
								<linkclipref>msub200012-0409d3k2005 5</linkclipref>
								<mediatype>audio</mediatype>
								<trackindex>2</trackindex>
								<clipindex>1</clipindex>
							</link>
							<link>
								<linkclipref>msub200012-0409d3k2005 6</linkclipref>
								<mediatype>audio</mediatype>
								<trackindex>3</trackindex>
								<clipindex>1</clipindex>
							</link>
							<link>
								<linkclipref>msub200012-0409d3k2005 7</linkclipref>
								<mediatype>audio</mediatype>
								<trackindex>4</trackindex>
								<clipindex>1</clipindex>
							</link>
							<link>
								<linkclipref>msub200012-0409d3k2005 8</linkclipref>
								<mediatype>audio</mediatype>
								<trackindex>5</trackindex>
								<clipindex>1</clipindex>
							</link>
							<link>
								<linkclipref>msub200012-0409d3k2005 9</linkclipref>
								<mediatype>audio</mediatype>
								<trackindex>6</trackindex>
								<clipindex>1</clipindex>
							</link>
							<link>
								<linkclipref>msub200012-0409d3k2005 10</linkclipref>
								<mediatype>audio</mediatype>
								<trackindex>7</trackindex>
								<clipindex>1</clipindex>
							</link>
							<link>
								<linkclipref>msub200012-0409d3k2005 11</linkclipref>
								<mediatype>audio</mediatype>
								<trackindex>8</trackindex>
								<clipindex>1</clipindex>
							</link>
						</clipitem>
						<enabled>TRUE</enabled>
						<locked>FALSE</locked>
					</track>
					<track>
						<clipitem id="msub200012-0409d3k2005 10">
							<name>msub200012-0409d3k2005</name>
							<duration>6856</duration>
							<rate>
								<ntsc>FALSE</ntsc>
								<timebase>25</timebase>
							</rate>
							<in>0</in>
							<out>6856</out>
							<start>0</start>
							<end>6856</end>
							<subframeoffset>0</subframeoffset>
							<masterclipid>msub200012-0409d3k2005 1</masterclipid>
							<syncoffset>0</syncoffset>
							<logginginfo>
								<scene/>
								<shottake/>
								<lognote/>
								<good>FALSE</good>
							</logginginfo>
							<labels>
								<label>Good Take</label>
								<label2/>
							</labels>
							<comments>
								<mastercomment1>RÅSTOFF. BR_FINFREDAG_MSUA_OPRO</mastercomment1>
								<mastercomment2/>
								<mastercomment3/>
								<mastercomment4/>
							</comments>
							<file id="msub200012-0409d3k2005 3"/>
							<filter>
								<effect>
									<name>Audio Levels</name>
									<effectid>audiolevels</effectid>
									<effectcategory>audiolevels</effectcategory>
									<effecttype>audiolevels</effecttype>
									<mediatype>audio</mediatype>
									<parameter>
										<name>Level</name>
										<parameterid>level</parameterid>
										<valuemin>0</valuemin>
										<valuemax>3.98109</valuemax>
										<value>1</value>
									</parameter>
								</effect>
							</filter>
							<filter>
								<effect>
									<name>Audio Pan</name>
									<effectid>audiopan</effectid>
									<effectcategory>audiopan</effectcategory>
									<effecttype>audiopan</effecttype>
									<mediatype>audio</mediatype>
									<parameter>
										<name>Pan</name>
										<parameterid>pan</parameterid>
										<valuemin>-1</valuemin>
										<valuemax>1</valuemax>
										<value>0</value>
									</parameter>
								</effect>
							</filter>
							<sourcetrack>
								<mediatype>audio</mediatype>
								<trackindex>7</trackindex>
							</sourcetrack>
							<link>
								<linkclipref>msub200012-0409d3k2005 2</linkclipref>
								<mediatype>video</mediatype>
								<trackindex>1</trackindex>
								<clipindex>1</clipindex>
							</link>
							<link>
								<linkclipref>msub200012-0409d3k2005 4</linkclipref>
								<mediatype>audio</mediatype>
								<trackindex>1</trackindex>
								<clipindex>1</clipindex>
							</link>
							<link>
								<linkclipref>msub200012-0409d3k2005 5</linkclipref>
								<mediatype>audio</mediatype>
								<trackindex>2</trackindex>
								<clipindex>1</clipindex>
							</link>
							<link>
								<linkclipref>msub200012-0409d3k2005 6</linkclipref>
								<mediatype>audio</mediatype>
								<trackindex>3</trackindex>
								<clipindex>1</clipindex>
							</link>
							<link>
								<linkclipref>msub200012-0409d3k2005 7</linkclipref>
								<mediatype>audio</mediatype>
								<trackindex>4</trackindex>
								<clipindex>1</clipindex>
							</link>
							<link>
								<linkclipref>msub200012-0409d3k2005 8</linkclipref>
								<mediatype>audio</mediatype>
								<trackindex>5</trackindex>
								<clipindex>1</clipindex>
							</link>
							<link>
								<linkclipref>msub200012-0409d3k2005 9</linkclipref>
								<mediatype>audio</mediatype>
								<trackindex>6</trackindex>
								<clipindex>1</clipindex>
							</link>
							<link>
								<linkclipref>msub200012-0409d3k2005 10</linkclipref>
								<mediatype>audio</mediatype>
								<trackindex>7</trackindex>
								<clipindex>1</clipindex>
							</link>
							<link>
								<linkclipref>msub200012-0409d3k2005 11</linkclipref>
								<mediatype>audio</mediatype>
								<trackindex>8</trackindex>
								<clipindex>1</clipindex>
							</link>
						</clipitem>
						<enabled>TRUE</enabled>
						<locked>FALSE</locked>
					</track>
					<track>
						<clipitem id="msub200012-0409d3k2005 11">
							<name>msub200012-0409d3k2005</name>
							<duration>6856</duration>
							<rate>
								<ntsc>FALSE</ntsc>
								<timebase>25</timebase>
							</rate>
							<in>0</in>
							<out>6856</out>
							<start>0</start>
							<end>6856</end>
							<subframeoffset>0</subframeoffset>
							<masterclipid>msub200012-0409d3k2005 1</masterclipid>
							<syncoffset>0</syncoffset>
							<logginginfo>
								<scene/>
								<shottake/>
								<lognote/>
								<good>FALSE</good>
							</logginginfo>
							<labels>
								<label>Good Take</label>
								<label2/>
							</labels>
							<comments>
								<mastercomment1>RÅSTOFF. BR_FINFREDAG_MSUA_OPRO</mastercomment1>
								<mastercomment2/>
								<mastercomment3/>
								<mastercomment4/>
							</comments>
							<file id="msub200012-0409d3k2005 3"/>
							<filter>
								<effect>
									<name>Audio Levels</name>
									<effectid>audiolevels</effectid>
									<effectcategory>audiolevels</effectcategory>
									<effecttype>audiolevels</effecttype>
									<mediatype>audio</mediatype>
									<parameter>
										<name>Level</name>
										<parameterid>level</parameterid>
										<valuemin>0</valuemin>
										<valuemax>3.98109</valuemax>
										<value>1</value>
									</parameter>
								</effect>
							</filter>
							<filter>
								<effect>
									<name>Audio Pan</name>
									<effectid>audiopan</effectid>
									<effectcategory>audiopan</effectcategory>
									<effecttype>audiopan</effecttype>
									<mediatype>audio</mediatype>
									<parameter>
										<name>Pan</name>
										<parameterid>pan</parameterid>
										<valuemin>-1</valuemin>
										<valuemax>1</valuemax>
										<value>0</value>
									</parameter>
								</effect>
							</filter>
							<sourcetrack>
								<mediatype>audio</mediatype>
								<trackindex>8</trackindex>
							</sourcetrack>
							<link>
								<linkclipref>msub200012-0409d3k2005 2</linkclipref>
								<mediatype>video</mediatype>
								<trackindex>1</trackindex>
								<clipindex>1</clipindex>
							</link>
							<link>
								<linkclipref>msub200012-0409d3k2005 4</linkclipref>
								<mediatype>audio</mediatype>
								<trackindex>1</trackindex>
								<clipindex>1</clipindex>
							</link>
							<link>
								<linkclipref>msub200012-0409d3k2005 5</linkclipref>
								<mediatype>audio</mediatype>
								<trackindex>2</trackindex>
								<clipindex>1</clipindex>
							</link>
							<link>
								<linkclipref>msub200012-0409d3k2005 6</linkclipref>
								<mediatype>audio</mediatype>
								<trackindex>3</trackindex>
								<clipindex>1</clipindex>
							</link>
							<link>
								<linkclipref>msub200012-0409d3k2005 7</linkclipref>
								<mediatype>audio</mediatype>
								<trackindex>4</trackindex>
								<clipindex>1</clipindex>
							</link>
							<link>
								<linkclipref>msub200012-0409d3k2005 8</linkclipref>
								<mediatype>audio</mediatype>
								<trackindex>5</trackindex>
								<clipindex>1</clipindex>
							</link>
							<link>
								<linkclipref>msub200012-0409d3k2005 9</linkclipref>
								<mediatype>audio</mediatype>
								<trackindex>6</trackindex>
								<clipindex>1</clipindex>
							</link>
							<link>
								<linkclipref>msub200012-0409d3k2005 10</linkclipref>
								<mediatype>audio</mediatype>
								<trackindex>7</trackindex>
								<clipindex>1</clipindex>
							</link>
							<link>
								<linkclipref>msub200012-0409d3k2005 11</linkclipref>
								<mediatype>audio</mediatype>
								<trackindex>8</trackindex>
								<clipindex>1</clipindex>
							</link>
						</clipitem>
						<enabled>TRUE</enabled>
						<locked>FALSE</locked>
					</track>
				</audio>
			</media>
		</clip>
		<clip id="msub200012-0409d1k1011 24">
			<name>msub200012-0409d1k1011</name>
			<duration>24627</duration>
			<rate>
				<ntsc>FALSE</ntsc>
				<timebase>25</timebase>
			</rate>
			<in>189</in>
			<out>-1</out>
			<masterclipid>msub200012-0409d1k1011 1</masterclipid>
			<ismasterclip>FALSE</ismasterclip>
			<logginginfo>
				<description>msub200012-0409d1k1011</description>
				<scene/>
				<shottake/>
				<lognote/>
				<good>FALSE</good>
			</logginginfo>
			<labels>
				<label>B Roll</label>
				<label2/>
			</labels>
			<comments>
				<mastercomment1>RÅSTOFF. BR_FINFREDAG_MSUA_OPRO</mastercomment1>
				<mastercomment2/>
				<mastercomment3/>
				<mastercomment4/>
			</comments>
			<media>
				<video>
					<track>
						<clipitem id="msub200012-0409d1k1011 25">
							<name>msub200012-0409d1k1011</name>
							<duration>24627</duration>
							<rate>
								<ntsc>FALSE</ntsc>
								<timebase>25</timebase>
							</rate>
							<in>0</in>
							<out>24627</out>
							<start>0</start>
							<end>24627</end>
							<pixelaspectratio>Square</pixelaspectratio>
							<anamorphic>FALSE</anamorphic>
							<alphatype>none</alphatype>
							<masterclipid>msub200012-0409d1k1011 1</masterclipid>
							<syncoffset>0</syncoffset>
							<logginginfo>
								<scene/>
								<shottake/>
								<lognote/>
								<good>FALSE</good>
							</logginginfo>
							<labels>
								<label>B Roll</label>
								<label2/>
							</labels>
							<comments>
								<mastercomment1>RÅSTOFF. BR_FINFREDAG_MSUA_OPRO</mastercomment1>
								<mastercomment2/>
								<mastercomment3/>
								<mastercomment4/>
							</comments>
							<file id="msub200012-0409d1k1011 2"/>
							<sourcetrack>
								<mediatype>video</mediatype>
							</sourcetrack>
							<link>
								<linkclipref>msub200012-0409d1k1011 25</linkclipref>
								<mediatype>video</mediatype>
								<trackindex>1</trackindex>
								<clipindex>1</clipindex>
							</link>
							<link>
								<linkclipref>msub200012-0409d1k1011 26</linkclipref>
								<mediatype>audio</mediatype>
								<trackindex>1</trackindex>
								<clipindex>1</clipindex>
							</link>
							<link>
								<linkclipref>msub200012-0409d1k1011 27</linkclipref>
								<mediatype>audio</mediatype>
								<trackindex>2</trackindex>
								<clipindex>1</clipindex>
							</link>
							<link>
								<linkclipref>msub200012-0409d1k1011 28</linkclipref>
								<mediatype>audio</mediatype>
								<trackindex>3</trackindex>
								<clipindex>1</clipindex>
							</link>
							<link>
								<linkclipref>msub200012-0409d1k1011 29</linkclipref>
								<mediatype>audio</mediatype>
								<trackindex>4</trackindex>
								<clipindex>1</clipindex>
							</link>
							<link>
								<linkclipref>msub200012-0409d1k1011 30</linkclipref>
								<mediatype>audio</mediatype>
								<trackindex>5</trackindex>
								<clipindex>1</clipindex>
							</link>
							<link>
								<linkclipref>msub200012-0409d1k1011 31</linkclipref>
								<mediatype>audio</mediatype>
								<trackindex>6</trackindex>
								<clipindex>1</clipindex>
							</link>
							<link>
								<linkclipref>msub200012-0409d1k1011 32</linkclipref>
								<mediatype>audio</mediatype>
								<trackindex>7</trackindex>
								<clipindex>1</clipindex>
							</link>
							<link>
								<linkclipref>msub200012-0409d1k1011 33</linkclipref>
								<mediatype>audio</mediatype>
								<trackindex>8</trackindex>
								<clipindex>1</clipindex>
							</link>
							<fielddominance>upper</fielddominance>
						</clipitem>
						<enabled>TRUE</enabled>
						<locked>FALSE</locked>
					</track>
				</video>
				<audio>
					<in>189</in>
					<out>-1</out>
					<track>
						<clipitem id="msub200012-0409d1k1011 26">
							<name>msub200012-0409d1k1011</name>
							<duration>24627</duration>
							<rate>
								<ntsc>FALSE</ntsc>
								<timebase>25</timebase>
							</rate>
							<in>0</in>
							<out>24627</out>
							<start>0</start>
							<end>24627</end>
							<subframeoffset>0</subframeoffset>
							<masterclipid>msub200012-0409d1k1011 1</masterclipid>
							<syncoffset>0</syncoffset>
							<logginginfo>
								<scene/>
								<shottake/>
								<lognote/>
								<good>FALSE</good>
							</logginginfo>
							<labels>
								<label>B Roll</label>
								<label2/>
							</labels>
							<comments>
								<mastercomment1>RÅSTOFF. BR_FINFREDAG_MSUA_OPRO</mastercomment1>
								<mastercomment2/>
								<mastercomment3/>
								<mastercomment4/>
							</comments>
							<file id="msub200012-0409d1k1011 2"/>
							<filter>
								<effect>
									<name>Audio Levels</name>
									<effectid>audiolevels</effectid>
									<effectcategory>audiolevels</effectcategory>
									<effecttype>audiolevels</effecttype>
									<mediatype>audio</mediatype>
									<parameter>
										<name>Level</name>
										<parameterid>level</parameterid>
										<valuemin>0</valuemin>
										<valuemax>3.98109</valuemax>
										<value>1</value>
									</parameter>
								</effect>
							</filter>
							<filter>
								<effect>
									<name>Audio Pan</name>
									<effectid>audiopan</effectid>
									<effectcategory>audiopan</effectcategory>
									<effecttype>audiopan</effecttype>
									<mediatype>audio</mediatype>
									<parameter>
										<name>Pan</name>
										<parameterid>pan</parameterid>
										<valuemin>-1</valuemin>
										<valuemax>1</valuemax>
										<value>0</value>
									</parameter>
								</effect>
							</filter>
							<sourcetrack>
								<mediatype>audio</mediatype>
								<trackindex>1</trackindex>
							</sourcetrack>
							<link>
								<linkclipref>msub200012-0409d1k1011 25</linkclipref>
								<mediatype>video</mediatype>
								<trackindex>1</trackindex>
								<clipindex>1</clipindex>
							</link>
							<link>
								<linkclipref>msub200012-0409d1k1011 26</linkclipref>
								<mediatype>audio</mediatype>
								<trackindex>1</trackindex>
								<clipindex>1</clipindex>
							</link>
							<link>
								<linkclipref>msub200012-0409d1k1011 27</linkclipref>
								<mediatype>audio</mediatype>
								<trackindex>2</trackindex>
								<clipindex>1</clipindex>
							</link>
							<link>
								<linkclipref>msub200012-0409d1k1011 28</linkclipref>
								<mediatype>audio</mediatype>
								<trackindex>3</trackindex>
								<clipindex>1</clipindex>
							</link>
							<link>
								<linkclipref>msub200012-0409d1k1011 29</linkclipref>
								<mediatype>audio</mediatype>
								<trackindex>4</trackindex>
								<clipindex>1</clipindex>
							</link>
							<link>
								<linkclipref>msub200012-0409d1k1011 30</linkclipref>
								<mediatype>audio</mediatype>
								<trackindex>5</trackindex>
								<clipindex>1</clipindex>
							</link>
							<link>
								<linkclipref>msub200012-0409d1k1011 31</linkclipref>
								<mediatype>audio</mediatype>
								<trackindex>6</trackindex>
								<clipindex>1</clipindex>
							</link>
							<link>
								<linkclipref>msub200012-0409d1k1011 32</linkclipref>
								<mediatype>audio</mediatype>
								<trackindex>7</trackindex>
								<clipindex>1</clipindex>
							</link>
							<link>
								<linkclipref>msub200012-0409d1k1011 33</linkclipref>
								<mediatype>audio</mediatype>
								<trackindex>8</trackindex>
								<clipindex>1</clipindex>
							</link>
						</clipitem>
						<enabled>TRUE</enabled>
						<locked>FALSE</locked>
					</track>
					<track>
						<clipitem id="msub200012-0409d1k1011 27">
							<name>msub200012-0409d1k1011</name>
							<duration>24627</duration>
							<rate>
								<ntsc>FALSE</ntsc>
								<timebase>25</timebase>
							</rate>
							<in>0</in>
							<out>24627</out>
							<start>0</start>
							<end>24627</end>
							<subframeoffset>0</subframeoffset>
							<masterclipid>msub200012-0409d1k1011 1</masterclipid>
							<syncoffset>0</syncoffset>
							<logginginfo>
								<scene/>
								<shottake/>
								<lognote/>
								<good>FALSE</good>
							</logginginfo>
							<labels>
								<label>B Roll</label>
								<label2/>
							</labels>
							<comments>
								<mastercomment1>RÅSTOFF. BR_FINFREDAG_MSUA_OPRO</mastercomment1>
								<mastercomment2/>
								<mastercomment3/>
								<mastercomment4/>
							</comments>
							<file id="msub200012-0409d1k1011 2"/>
							<filter>
								<effect>
									<name>Audio Levels</name>
									<effectid>audiolevels</effectid>
									<effectcategory>audiolevels</effectcategory>
									<effecttype>audiolevels</effecttype>
									<mediatype>audio</mediatype>
									<parameter>
										<name>Level</name>
										<parameterid>level</parameterid>
										<valuemin>0</valuemin>
										<valuemax>3.98109</valuemax>
										<value>1</value>
									</parameter>
								</effect>
							</filter>
							<filter>
								<effect>
									<name>Audio Pan</name>
									<effectid>audiopan</effectid>
									<effectcategory>audiopan</effectcategory>
									<effecttype>audiopan</effecttype>
									<mediatype>audio</mediatype>
									<parameter>
										<name>Pan</name>
										<parameterid>pan</parameterid>
										<valuemin>-1</valuemin>
										<valuemax>1</valuemax>
										<value>0</value>
									</parameter>
								</effect>
							</filter>
							<sourcetrack>
								<mediatype>audio</mediatype>
								<trackindex>2</trackindex>
							</sourcetrack>
							<link>
								<linkclipref>msub200012-0409d1k1011 25</linkclipref>
								<mediatype>video</mediatype>
								<trackindex>1</trackindex>
								<clipindex>1</clipindex>
							</link>
							<link>
								<linkclipref>msub200012-0409d1k1011 26</linkclipref>
								<mediatype>audio</mediatype>
								<trackindex>1</trackindex>
								<clipindex>1</clipindex>
							</link>
							<link>
								<linkclipref>msub200012-0409d1k1011 27</linkclipref>
								<mediatype>audio</mediatype>
								<trackindex>2</trackindex>
								<clipindex>1</clipindex>
							</link>
							<link>
								<linkclipref>msub200012-0409d1k1011 28</linkclipref>
								<mediatype>audio</mediatype>
								<trackindex>3</trackindex>
								<clipindex>1</clipindex>
							</link>
							<link>
								<linkclipref>msub200012-0409d1k1011 29</linkclipref>
								<mediatype>audio</mediatype>
								<trackindex>4</trackindex>
								<clipindex>1</clipindex>
							</link>
							<link>
								<linkclipref>msub200012-0409d1k1011 30</linkclipref>
								<mediatype>audio</mediatype>
								<trackindex>5</trackindex>
								<clipindex>1</clipindex>
							</link>
							<link>
								<linkclipref>msub200012-0409d1k1011 31</linkclipref>
								<mediatype>audio</mediatype>
								<trackindex>6</trackindex>
								<clipindex>1</clipindex>
							</link>
							<link>
								<linkclipref>msub200012-0409d1k1011 32</linkclipref>
								<mediatype>audio</mediatype>
								<trackindex>7</trackindex>
								<clipindex>1</clipindex>
							</link>
							<link>
								<linkclipref>msub200012-0409d1k1011 33</linkclipref>
								<mediatype>audio</mediatype>
								<trackindex>8</trackindex>
								<clipindex>1</clipindex>
							</link>
						</clipitem>
						<enabled>TRUE</enabled>
						<locked>FALSE</locked>
					</track>
					<track>
						<clipitem id="msub200012-0409d1k1011 28">
							<name>msub200012-0409d1k1011</name>
							<duration>24627</duration>
							<rate>
								<ntsc>FALSE</ntsc>
								<timebase>25</timebase>
							</rate>
							<in>0</in>
							<out>24627</out>
							<start>0</start>
							<end>24627</end>
							<subframeoffset>0</subframeoffset>
							<masterclipid>msub200012-0409d1k1011 1</masterclipid>
							<syncoffset>0</syncoffset>
							<logginginfo>
								<scene/>
								<shottake/>
								<lognote/>
								<good>FALSE</good>
							</logginginfo>
							<labels>
								<label>B Roll</label>
								<label2/>
							</labels>
							<comments>
								<mastercomment1>RÅSTOFF. BR_FINFREDAG_MSUA_OPRO</mastercomment1>
								<mastercomment2/>
								<mastercomment3/>
								<mastercomment4/>
							</comments>
							<file id="msub200012-0409d1k1011 2"/>
							<filter>
								<effect>
									<name>Audio Levels</name>
									<effectid>audiolevels</effectid>
									<effectcategory>audiolevels</effectcategory>
									<effecttype>audiolevels</effecttype>
									<mediatype>audio</mediatype>
									<parameter>
										<name>Level</name>
										<parameterid>level</parameterid>
										<valuemin>0</valuemin>
										<valuemax>3.98109</valuemax>
										<value>1</value>
									</parameter>
								</effect>
							</filter>
							<filter>
								<effect>
									<name>Audio Pan</name>
									<effectid>audiopan</effectid>
									<effectcategory>audiopan</effectcategory>
									<effecttype>audiopan</effecttype>
									<mediatype>audio</mediatype>
									<parameter>
										<name>Pan</name>
										<parameterid>pan</parameterid>
										<valuemin>-1</valuemin>
										<valuemax>1</valuemax>
										<value>0</value>
									</parameter>
								</effect>
							</filter>
							<sourcetrack>
								<mediatype>audio</mediatype>
								<trackindex>3</trackindex>
							</sourcetrack>
							<link>
								<linkclipref>msub200012-0409d1k1011 25</linkclipref>
								<mediatype>video</mediatype>
								<trackindex>1</trackindex>
								<clipindex>1</clipindex>
							</link>
							<link>
								<linkclipref>msub200012-0409d1k1011 26</linkclipref>
								<mediatype>audio</mediatype>
								<trackindex>1</trackindex>
								<clipindex>1</clipindex>
							</link>
							<link>
								<linkclipref>msub200012-0409d1k1011 27</linkclipref>
								<mediatype>audio</mediatype>
								<trackindex>2</trackindex>
								<clipindex>1</clipindex>
							</link>
							<link>
								<linkclipref>msub200012-0409d1k1011 28</linkclipref>
								<mediatype>audio</mediatype>
								<trackindex>3</trackindex>
								<clipindex>1</clipindex>
							</link>
							<link>
								<linkclipref>msub200012-0409d1k1011 29</linkclipref>
								<mediatype>audio</mediatype>
								<trackindex>4</trackindex>
								<clipindex>1</clipindex>
							</link>
							<link>
								<linkclipref>msub200012-0409d1k1011 30</linkclipref>
								<mediatype>audio</mediatype>
								<trackindex>5</trackindex>
								<clipindex>1</clipindex>
							</link>
							<link>
								<linkclipref>msub200012-0409d1k1011 31</linkclipref>
								<mediatype>audio</mediatype>
								<trackindex>6</trackindex>
								<clipindex>1</clipindex>
							</link>
							<link>
								<linkclipref>msub200012-0409d1k1011 32</linkclipref>
								<mediatype>audio</mediatype>
								<trackindex>7</trackindex>
								<clipindex>1</clipindex>
							</link>
							<link>
								<linkclipref>msub200012-0409d1k1011 33</linkclipref>
								<mediatype>audio</mediatype>
								<trackindex>8</trackindex>
								<clipindex>1</clipindex>
							</link>
						</clipitem>
						<enabled>TRUE</enabled>
						<locked>FALSE</locked>
					</track>
					<track>
						<clipitem id="msub200012-0409d1k1011 29">
							<name>msub200012-0409d1k1011</name>
							<duration>24627</duration>
							<rate>
								<ntsc>FALSE</ntsc>
								<timebase>25</timebase>
							</rate>
							<in>0</in>
							<out>24627</out>
							<start>0</start>
							<end>24627</end>
							<subframeoffset>0</subframeoffset>
							<masterclipid>msub200012-0409d1k1011 1</masterclipid>
							<syncoffset>0</syncoffset>
							<logginginfo>
								<scene/>
								<shottake/>
								<lognote/>
								<good>FALSE</good>
							</logginginfo>
							<labels>
								<label>B Roll</label>
								<label2/>
							</labels>
							<comments>
								<mastercomment1>RÅSTOFF. BR_FINFREDAG_MSUA_OPRO</mastercomment1>
								<mastercomment2/>
								<mastercomment3/>
								<mastercomment4/>
							</comments>
							<file id="msub200012-0409d1k1011 2"/>
							<filter>
								<effect>
									<name>Audio Levels</name>
									<effectid>audiolevels</effectid>
									<effectcategory>audiolevels</effectcategory>
									<effecttype>audiolevels</effecttype>
									<mediatype>audio</mediatype>
									<parameter>
										<name>Level</name>
										<parameterid>level</parameterid>
										<valuemin>0</valuemin>
										<valuemax>3.98109</valuemax>
										<value>1</value>
									</parameter>
								</effect>
							</filter>
							<filter>
								<effect>
									<name>Audio Pan</name>
									<effectid>audiopan</effectid>
									<effectcategory>audiopan</effectcategory>
									<effecttype>audiopan</effecttype>
									<mediatype>audio</mediatype>
									<parameter>
										<name>Pan</name>
										<parameterid>pan</parameterid>
										<valuemin>-1</valuemin>
										<valuemax>1</valuemax>
										<value>0</value>
									</parameter>
								</effect>
							</filter>
							<sourcetrack>
								<mediatype>audio</mediatype>
								<trackindex>4</trackindex>
							</sourcetrack>
							<link>
								<linkclipref>msub200012-0409d1k1011 25</linkclipref>
								<mediatype>video</mediatype>
								<trackindex>1</trackindex>
								<clipindex>1</clipindex>
							</link>
							<link>
								<linkclipref>msub200012-0409d1k1011 26</linkclipref>
								<mediatype>audio</mediatype>
								<trackindex>1</trackindex>
								<clipindex>1</clipindex>
							</link>
							<link>
								<linkclipref>msub200012-0409d1k1011 27</linkclipref>
								<mediatype>audio</mediatype>
								<trackindex>2</trackindex>
								<clipindex>1</clipindex>
							</link>
							<link>
								<linkclipref>msub200012-0409d1k1011 28</linkclipref>
								<mediatype>audio</mediatype>
								<trackindex>3</trackindex>
								<clipindex>1</clipindex>
							</link>
							<link>
								<linkclipref>msub200012-0409d1k1011 29</linkclipref>
								<mediatype>audio</mediatype>
								<trackindex>4</trackindex>
								<clipindex>1</clipindex>
							</link>
							<link>
								<linkclipref>msub200012-0409d1k1011 30</linkclipref>
								<mediatype>audio</mediatype>
								<trackindex>5</trackindex>
								<clipindex>1</clipindex>
							</link>
							<link>
								<linkclipref>msub200012-0409d1k1011 31</linkclipref>
								<mediatype>audio</mediatype>
								<trackindex>6</trackindex>
								<clipindex>1</clipindex>
							</link>
							<link>
								<linkclipref>msub200012-0409d1k1011 32</linkclipref>
								<mediatype>audio</mediatype>
								<trackindex>7</trackindex>
								<clipindex>1</clipindex>
							</link>
							<link>
								<linkclipref>msub200012-0409d1k1011 33</linkclipref>
								<mediatype>audio</mediatype>
								<trackindex>8</trackindex>
								<clipindex>1</clipindex>
							</link>
						</clipitem>
						<enabled>TRUE</enabled>
						<locked>FALSE</locked>
					</track>
					<track>
						<clipitem id="msub200012-0409d1k1011 30">
							<name>msub200012-0409d1k1011</name>
							<duration>24627</duration>
							<rate>
								<ntsc>FALSE</ntsc>
								<timebase>25</timebase>
							</rate>
							<in>0</in>
							<out>24627</out>
							<start>0</start>
							<end>24627</end>
							<subframeoffset>0</subframeoffset>
							<masterclipid>msub200012-0409d1k1011 1</masterclipid>
							<syncoffset>0</syncoffset>
							<logginginfo>
								<scene/>
								<shottake/>
								<lognote/>
								<good>FALSE</good>
							</logginginfo>
							<labels>
								<label>B Roll</label>
								<label2/>
							</labels>
							<comments>
								<mastercomment1>RÅSTOFF. BR_FINFREDAG_MSUA_OPRO</mastercomment1>
								<mastercomment2/>
								<mastercomment3/>
								<mastercomment4/>
							</comments>
							<file id="msub200012-0409d1k1011 2"/>
							<filter>
								<effect>
									<name>Audio Levels</name>
									<effectid>audiolevels</effectid>
									<effectcategory>audiolevels</effectcategory>
									<effecttype>audiolevels</effecttype>
									<mediatype>audio</mediatype>
									<parameter>
										<name>Level</name>
										<parameterid>level</parameterid>
										<valuemin>0</valuemin>
										<valuemax>3.98109</valuemax>
										<value>1</value>
									</parameter>
								</effect>
							</filter>
							<filter>
								<effect>
									<name>Audio Pan</name>
									<effectid>audiopan</effectid>
									<effectcategory>audiopan</effectcategory>
									<effecttype>audiopan</effecttype>
									<mediatype>audio</mediatype>
									<parameter>
										<name>Pan</name>
										<parameterid>pan</parameterid>
										<valuemin>-1</valuemin>
										<valuemax>1</valuemax>
										<value>0</value>
									</parameter>
								</effect>
							</filter>
							<sourcetrack>
								<mediatype>audio</mediatype>
								<trackindex>5</trackindex>
							</sourcetrack>
							<link>
								<linkclipref>msub200012-0409d1k1011 25</linkclipref>
								<mediatype>video</mediatype>
								<trackindex>1</trackindex>
								<clipindex>1</clipindex>
							</link>
							<link>
								<linkclipref>msub200012-0409d1k1011 26</linkclipref>
								<mediatype>audio</mediatype>
								<trackindex>1</trackindex>
								<clipindex>1</clipindex>
							</link>
							<link>
								<linkclipref>msub200012-0409d1k1011 27</linkclipref>
								<mediatype>audio</mediatype>
								<trackindex>2</trackindex>
								<clipindex>1</clipindex>
							</link>
							<link>
								<linkclipref>msub200012-0409d1k1011 28</linkclipref>
								<mediatype>audio</mediatype>
								<trackindex>3</trackindex>
								<clipindex>1</clipindex>
							</link>
							<link>
								<linkclipref>msub200012-0409d1k1011 29</linkclipref>
								<mediatype>audio</mediatype>
								<trackindex>4</trackindex>
								<clipindex>1</clipindex>
							</link>
							<link>
								<linkclipref>msub200012-0409d1k1011 30</linkclipref>
								<mediatype>audio</mediatype>
								<trackindex>5</trackindex>
								<clipindex>1</clipindex>
							</link>
							<link>
								<linkclipref>msub200012-0409d1k1011 31</linkclipref>
								<mediatype>audio</mediatype>
								<trackindex>6</trackindex>
								<clipindex>1</clipindex>
							</link>
							<link>
								<linkclipref>msub200012-0409d1k1011 32</linkclipref>
								<mediatype>audio</mediatype>
								<trackindex>7</trackindex>
								<clipindex>1</clipindex>
							</link>
							<link>
								<linkclipref>msub200012-0409d1k1011 33</linkclipref>
								<mediatype>audio</mediatype>
								<trackindex>8</trackindex>
								<clipindex>1</clipindex>
							</link>
						</clipitem>
						<enabled>TRUE</enabled>
						<locked>FALSE</locked>
					</track>
					<track>
						<clipitem id="msub200012-0409d1k1011 31">
							<name>msub200012-0409d1k1011</name>
							<duration>24627</duration>
							<rate>
								<ntsc>FALSE</ntsc>
								<timebase>25</timebase>
							</rate>
							<in>0</in>
							<out>24627</out>
							<start>0</start>
							<end>24627</end>
							<subframeoffset>0</subframeoffset>
							<masterclipid>msub200012-0409d1k1011 1</masterclipid>
							<syncoffset>0</syncoffset>
							<logginginfo>
								<scene/>
								<shottake/>
								<lognote/>
								<good>FALSE</good>
							</logginginfo>
							<labels>
								<label>B Roll</label>
								<label2/>
							</labels>
							<comments>
								<mastercomment1>RÅSTOFF. BR_FINFREDAG_MSUA_OPRO</mastercomment1>
								<mastercomment2/>
								<mastercomment3/>
								<mastercomment4/>
							</comments>
							<file id="msub200012-0409d1k1011 2"/>
							<filter>
								<effect>
									<name>Audio Levels</name>
									<effectid>audiolevels</effectid>
									<effectcategory>audiolevels</effectcategory>
									<effecttype>audiolevels</effecttype>
									<mediatype>audio</mediatype>
									<parameter>
										<name>Level</name>
										<parameterid>level</parameterid>
										<valuemin>0</valuemin>
										<valuemax>3.98109</valuemax>
										<value>1</value>
									</parameter>
								</effect>
							</filter>
							<filter>
								<effect>
									<name>Audio Pan</name>
									<effectid>audiopan</effectid>
									<effectcategory>audiopan</effectcategory>
									<effecttype>audiopan</effecttype>
									<mediatype>audio</mediatype>
									<parameter>
										<name>Pan</name>
										<parameterid>pan</parameterid>
										<valuemin>-1</valuemin>
										<valuemax>1</valuemax>
										<value>0</value>
									</parameter>
								</effect>
							</filter>
							<sourcetrack>
								<mediatype>audio</mediatype>
								<trackindex>6</trackindex>
							</sourcetrack>
							<link>
								<linkclipref>msub200012-0409d1k1011 25</linkclipref>
								<mediatype>video</mediatype>
								<trackindex>1</trackindex>
								<clipindex>1</clipindex>
							</link>
							<link>
								<linkclipref>msub200012-0409d1k1011 26</linkclipref>
								<mediatype>audio</mediatype>
								<trackindex>1</trackindex>
								<clipindex>1</clipindex>
							</link>
							<link>
								<linkclipref>msub200012-0409d1k1011 27</linkclipref>
								<mediatype>audio</mediatype>
								<trackindex>2</trackindex>
								<clipindex>1</clipindex>
							</link>
							<link>
								<linkclipref>msub200012-0409d1k1011 28</linkclipref>
								<mediatype>audio</mediatype>
								<trackindex>3</trackindex>
								<clipindex>1</clipindex>
							</link>
							<link>
								<linkclipref>msub200012-0409d1k1011 29</linkclipref>
								<mediatype>audio</mediatype>
								<trackindex>4</trackindex>
								<clipindex>1</clipindex>
							</link>
							<link>
								<linkclipref>msub200012-0409d1k1011 30</linkclipref>
								<mediatype>audio</mediatype>
								<trackindex>5</trackindex>
								<clipindex>1</clipindex>
							</link>
							<link>
								<linkclipref>msub200012-0409d1k1011 31</linkclipref>
								<mediatype>audio</mediatype>
								<trackindex>6</trackindex>
								<clipindex>1</clipindex>
							</link>
							<link>
								<linkclipref>msub200012-0409d1k1011 32</linkclipref>
								<mediatype>audio</mediatype>
								<trackindex>7</trackindex>
								<clipindex>1</clipindex>
							</link>
							<link>
								<linkclipref>msub200012-0409d1k1011 33</linkclipref>
								<mediatype>audio</mediatype>
								<trackindex>8</trackindex>
								<clipindex>1</clipindex>
							</link>
						</clipitem>
						<enabled>TRUE</enabled>
						<locked>FALSE</locked>
					</track>
					<track>
						<clipitem id="msub200012-0409d1k1011 32">
							<name>msub200012-0409d1k1011</name>
							<duration>24627</duration>
							<rate>
								<ntsc>FALSE</ntsc>
								<timebase>25</timebase>
							</rate>
							<in>0</in>
							<out>24627</out>
							<start>0</start>
							<end>24627</end>
							<subframeoffset>0</subframeoffset>
							<masterclipid>msub200012-0409d1k1011 1</masterclipid>
							<syncoffset>0</syncoffset>
							<logginginfo>
								<scene/>
								<shottake/>
								<lognote/>
								<good>FALSE</good>
							</logginginfo>
							<labels>
								<label>B Roll</label>
								<label2/>
							</labels>
							<comments>
								<mastercomment1>RÅSTOFF. BR_FINFREDAG_MSUA_OPRO</mastercomment1>
								<mastercomment2/>
								<mastercomment3/>
								<mastercomment4/>
							</comments>
							<file id="msub200012-0409d1k1011 2"/>
							<filter>
								<effect>
									<name>Audio Levels</name>
									<effectid>audiolevels</effectid>
									<effectcategory>audiolevels</effectcategory>
									<effecttype>audiolevels</effecttype>
									<mediatype>audio</mediatype>
									<parameter>
										<name>Level</name>
										<parameterid>level</parameterid>
										<valuemin>0</valuemin>
										<valuemax>3.98109</valuemax>
										<value>1</value>
									</parameter>
								</effect>
							</filter>
							<filter>
								<effect>
									<name>Audio Pan</name>
									<effectid>audiopan</effectid>
									<effectcategory>audiopan</effectcategory>
									<effecttype>audiopan</effecttype>
									<mediatype>audio</mediatype>
									<parameter>
										<name>Pan</name>
										<parameterid>pan</parameterid>
										<valuemin>-1</valuemin>
										<valuemax>1</valuemax>
										<value>0</value>
									</parameter>
								</effect>
							</filter>
							<sourcetrack>
								<mediatype>audio</mediatype>
								<trackindex>7</trackindex>
							</sourcetrack>
							<link>
								<linkclipref>msub200012-0409d1k1011 25</linkclipref>
								<mediatype>video</mediatype>
								<trackindex>1</trackindex>
								<clipindex>1</clipindex>
							</link>
							<link>
								<linkclipref>msub200012-0409d1k1011 26</linkclipref>
								<mediatype>audio</mediatype>
								<trackindex>1</trackindex>
								<clipindex>1</clipindex>
							</link>
							<link>
								<linkclipref>msub200012-0409d1k1011 27</linkclipref>
								<mediatype>audio</mediatype>
								<trackindex>2</trackindex>
								<clipindex>1</clipindex>
							</link>
							<link>
								<linkclipref>msub200012-0409d1k1011 28</linkclipref>
								<mediatype>audio</mediatype>
								<trackindex>3</trackindex>
								<clipindex>1</clipindex>
							</link>
							<link>
								<linkclipref>msub200012-0409d1k1011 29</linkclipref>
								<mediatype>audio</mediatype>
								<trackindex>4</trackindex>
								<clipindex>1</clipindex>
							</link>
							<link>
								<linkclipref>msub200012-0409d1k1011 30</linkclipref>
								<mediatype>audio</mediatype>
								<trackindex>5</trackindex>
								<clipindex>1</clipindex>
							</link>
							<link>
								<linkclipref>msub200012-0409d1k1011 31</linkclipref>
								<mediatype>audio</mediatype>
								<trackindex>6</trackindex>
								<clipindex>1</clipindex>
							</link>
							<link>
								<linkclipref>msub200012-0409d1k1011 32</linkclipref>
								<mediatype>audio</mediatype>
								<trackindex>7</trackindex>
								<clipindex>1</clipindex>
							</link>
							<link>
								<linkclipref>msub200012-0409d1k1011 33</linkclipref>
								<mediatype>audio</mediatype>
								<trackindex>8</trackindex>
								<clipindex>1</clipindex>
							</link>
						</clipitem>
						<enabled>TRUE</enabled>
						<locked>FALSE</locked>
					</track>
					<track>
						<clipitem id="msub200012-0409d1k1011 33">
							<name>msub200012-0409d1k1011</name>
							<duration>24627</duration>
							<rate>
								<ntsc>FALSE</ntsc>
								<timebase>25</timebase>
							</rate>
							<in>0</in>
							<out>24627</out>
							<start>0</start>
							<end>24627</end>
							<subframeoffset>0</subframeoffset>
							<masterclipid>msub200012-0409d1k1011 1</masterclipid>
							<syncoffset>0</syncoffset>
							<logginginfo>
								<scene/>
								<shottake/>
								<lognote/>
								<good>FALSE</good>
							</logginginfo>
							<labels>
								<label>B Roll</label>
								<label2/>
							</labels>
							<comments>
								<mastercomment1>RÅSTOFF. BR_FINFREDAG_MSUA_OPRO</mastercomment1>
								<mastercomment2/>
								<mastercomment3/>
								<mastercomment4/>
							</comments>
							<file id="msub200012-0409d1k1011 2"/>
							<filter>
								<effect>
									<name>Audio Levels</name>
									<effectid>audiolevels</effectid>
									<effectcategory>audiolevels</effectcategory>
									<effecttype>audiolevels</effecttype>
									<mediatype>audio</mediatype>
									<parameter>
										<name>Level</name>
										<parameterid>level</parameterid>
										<valuemin>0</valuemin>
										<valuemax>3.98109</valuemax>
										<value>1</value>
									</parameter>
								</effect>
							</filter>
							<filter>
								<effect>
									<name>Audio Pan</name>
									<effectid>audiopan</effectid>
									<effectcategory>audiopan</effectcategory>
									<effecttype>audiopan</effecttype>
									<mediatype>audio</mediatype>
									<parameter>
										<name>Pan</name>
										<parameterid>pan</parameterid>
										<valuemin>-1</valuemin>
										<valuemax>1</valuemax>
										<value>0</value>
									</parameter>
								</effect>
							</filter>
							<sourcetrack>
								<mediatype>audio</mediatype>
								<trackindex>8</trackindex>
							</sourcetrack>
							<link>
								<linkclipref>msub200012-0409d1k1011 25</linkclipref>
								<mediatype>video</mediatype>
								<trackindex>1</trackindex>
								<clipindex>1</clipindex>
							</link>
							<link>
								<linkclipref>msub200012-0409d1k1011 26</linkclipref>
								<mediatype>audio</mediatype>
								<trackindex>1</trackindex>
								<clipindex>1</clipindex>
							</link>
							<link>
								<linkclipref>msub200012-0409d1k1011 27</linkclipref>
								<mediatype>audio</mediatype>
								<trackindex>2</trackindex>
								<clipindex>1</clipindex>
							</link>
							<link>
								<linkclipref>msub200012-0409d1k1011 28</linkclipref>
								<mediatype>audio</mediatype>
								<trackindex>3</trackindex>
								<clipindex>1</clipindex>
							</link>
							<link>
								<linkclipref>msub200012-0409d1k1011 29</linkclipref>
								<mediatype>audio</mediatype>
								<trackindex>4</trackindex>
								<clipindex>1</clipindex>
							</link>
							<link>
								<linkclipref>msub200012-0409d1k1011 30</linkclipref>
								<mediatype>audio</mediatype>
								<trackindex>5</trackindex>
								<clipindex>1</clipindex>
							</link>
							<link>
								<linkclipref>msub200012-0409d1k1011 31</linkclipref>
								<mediatype>audio</mediatype>
								<trackindex>6</trackindex>
								<clipindex>1</clipindex>
							</link>
							<link>
								<linkclipref>msub200012-0409d1k1011 32</linkclipref>
								<mediatype>audio</mediatype>
								<trackindex>7</trackindex>
								<clipindex>1</clipindex>
							</link>
							<link>
								<linkclipref>msub200012-0409d1k1011 33</linkclipref>
								<mediatype>audio</mediatype>
								<trackindex>8</trackindex>
								<clipindex>1</clipindex>
							</link>
						</clipitem>
						<enabled>TRUE</enabled>
						<locked>FALSE</locked>
					</track>
				</audio>
			</media>
		</clip>
		<clip id="msub200012-0409d1k1013 8">
			<name>msub200012-0409d1k1013</name>
			<duration>14518</duration>
			<rate>
				<ntsc>FALSE</ntsc>
				<timebase>25</timebase>
			</rate>
			<in>6695</in>
			<out>6809</out>
			<masterclipid>msub200012-0409d1k1013 1</masterclipid>
			<ismasterclip>FALSE</ismasterclip>
			<logginginfo>
				<description>msub200012-0409d1k1013</description>
				<scene/>
				<shottake/>
				<lognote/>
				<good>FALSE</good>
			</logginginfo>
			<labels>
				<label>Good Take</label>
				<label2/>
			</labels>
			<comments>
				<mastercomment1>RÅSTOFF. BR_FINFREDAG_MSUA_OPRO</mastercomment1>
				<mastercomment2/>
				<mastercomment3/>
				<mastercomment4/>
			</comments>
			<media>
				<video>
					<track>
						<clipitem id="msub200012-0409d1k1013 9">
							<name>msub200012-0409d1k1013</name>
							<duration>14518</duration>
							<rate>
								<ntsc>FALSE</ntsc>
								<timebase>25</timebase>
							</rate>
							<in>0</in>
							<out>14518</out>
							<start>0</start>
							<end>14518</end>
							<pixelaspectratio>Square</pixelaspectratio>
							<anamorphic>FALSE</anamorphic>
							<alphatype>none</alphatype>
							<masterclipid>msub200012-0409d1k1013 1</masterclipid>
							<syncoffset>0</syncoffset>
							<logginginfo>
								<description>msub200012-0409d1k1013</description>
								<scene/>
								<shottake/>
								<lognote/>
								<good>FALSE</good>
							</logginginfo>
							<labels>
								<label>Good Take</label>
								<label2/>
							</labels>
							<comments>
								<mastercomment1>RÅSTOFF. BR_FINFREDAG_MSUA_OPRO</mastercomment1>
								<mastercomment2/>
								<mastercomment3/>
								<mastercomment4/>
							</comments>
							<file id="msub200012-0409d1k1013 2"/>
							<sourcetrack>
								<mediatype>video</mediatype>
							</sourcetrack>
							<link>
								<linkclipref>msub200012-0409d1k1013 9</linkclipref>
								<mediatype>video</mediatype>
								<trackindex>1</trackindex>
								<clipindex>1</clipindex>
							</link>
							<link>
								<linkclipref>msub200012-0409d1k1013 10</linkclipref>
								<mediatype>audio</mediatype>
								<trackindex>1</trackindex>
								<clipindex>1</clipindex>
							</link>
							<link>
								<linkclipref>msub200012-0409d1k1013 11</linkclipref>
								<mediatype>audio</mediatype>
								<trackindex>2</trackindex>
								<clipindex>1</clipindex>
							</link>
							<link>
								<linkclipref>msub200012-0409d1k1013 12</linkclipref>
								<mediatype>audio</mediatype>
								<trackindex>3</trackindex>
								<clipindex>1</clipindex>
							</link>
							<link>
								<linkclipref>msub200012-0409d1k1013 13</linkclipref>
								<mediatype>audio</mediatype>
								<trackindex>4</trackindex>
								<clipindex>1</clipindex>
							</link>
							<link>
								<linkclipref>msub200012-0409d1k1013 14</linkclipref>
								<mediatype>audio</mediatype>
								<trackindex>5</trackindex>
								<clipindex>1</clipindex>
							</link>
							<link>
								<linkclipref>msub200012-0409d1k1013 15</linkclipref>
								<mediatype>audio</mediatype>
								<trackindex>6</trackindex>
								<clipindex>1</clipindex>
							</link>
							<link>
								<linkclipref>msub200012-0409d1k1013 16</linkclipref>
								<mediatype>audio</mediatype>
								<trackindex>7</trackindex>
								<clipindex>1</clipindex>
							</link>
							<link>
								<linkclipref>msub200012-0409d1k1013 17</linkclipref>
								<mediatype>audio</mediatype>
								<trackindex>8</trackindex>
								<clipindex>1</clipindex>
							</link>
							<fielddominance>upper</fielddominance>
						</clipitem>
						<enabled>TRUE</enabled>
						<locked>FALSE</locked>
					</track>
				</video>
				<audio>
					<in>6695</in>
					<out>6809</out>
					<track>
						<clipitem id="msub200012-0409d1k1013 10">
							<name>msub200012-0409d1k1013</name>
							<duration>14518</duration>
							<rate>
								<ntsc>FALSE</ntsc>
								<timebase>25</timebase>
							</rate>
							<in>0</in>
							<out>14518</out>
							<start>0</start>
							<end>14518</end>
							<subframeoffset>0</subframeoffset>
							<masterclipid>msub200012-0409d1k1013 1</masterclipid>
							<syncoffset>0</syncoffset>
							<logginginfo>
								<description>msub200012-0409d1k1013</description>
								<scene/>
								<shottake/>
								<lognote/>
								<good>FALSE</good>
							</logginginfo>
							<labels>
								<label>Good Take</label>
								<label2/>
							</labels>
							<comments>
								<mastercomment1>RÅSTOFF. BR_FINFREDAG_MSUA_OPRO</mastercomment1>
								<mastercomment2/>
								<mastercomment3/>
								<mastercomment4/>
							</comments>
							<file id="msub200012-0409d1k1013 2"/>
							<filter>
								<effect>
									<name>Audio Levels</name>
									<effectid>audiolevels</effectid>
									<effectcategory>audiolevels</effectcategory>
									<effecttype>audiolevels</effecttype>
									<mediatype>audio</mediatype>
									<parameter>
										<name>Level</name>
										<parameterid>level</parameterid>
										<valuemin>0</valuemin>
										<valuemax>3.98109</valuemax>
										<value>1</value>
									</parameter>
								</effect>
							</filter>
							<filter>
								<effect>
									<name>Audio Pan</name>
									<effectid>audiopan</effectid>
									<effectcategory>audiopan</effectcategory>
									<effecttype>audiopan</effecttype>
									<mediatype>audio</mediatype>
									<parameter>
										<name>Pan</name>
										<parameterid>pan</parameterid>
										<valuemin>-1</valuemin>
										<valuemax>1</valuemax>
										<value>0</value>
									</parameter>
								</effect>
							</filter>
							<sourcetrack>
								<mediatype>audio</mediatype>
								<trackindex>1</trackindex>
							</sourcetrack>
							<link>
								<linkclipref>msub200012-0409d1k1013 9</linkclipref>
								<mediatype>video</mediatype>
								<trackindex>1</trackindex>
								<clipindex>1</clipindex>
							</link>
							<link>
								<linkclipref>msub200012-0409d1k1013 10</linkclipref>
								<mediatype>audio</mediatype>
								<trackindex>1</trackindex>
								<clipindex>1</clipindex>
							</link>
							<link>
								<linkclipref>msub200012-0409d1k1013 11</linkclipref>
								<mediatype>audio</mediatype>
								<trackindex>2</trackindex>
								<clipindex>1</clipindex>
							</link>
							<link>
								<linkclipref>msub200012-0409d1k1013 12</linkclipref>
								<mediatype>audio</mediatype>
								<trackindex>3</trackindex>
								<clipindex>1</clipindex>
							</link>
							<link>
								<linkclipref>msub200012-0409d1k1013 13</linkclipref>
								<mediatype>audio</mediatype>
								<trackindex>4</trackindex>
								<clipindex>1</clipindex>
							</link>
							<link>
								<linkclipref>msub200012-0409d1k1013 14</linkclipref>
								<mediatype>audio</mediatype>
								<trackindex>5</trackindex>
								<clipindex>1</clipindex>
							</link>
							<link>
								<linkclipref>msub200012-0409d1k1013 15</linkclipref>
								<mediatype>audio</mediatype>
								<trackindex>6</trackindex>
								<clipindex>1</clipindex>
							</link>
							<link>
								<linkclipref>msub200012-0409d1k1013 16</linkclipref>
								<mediatype>audio</mediatype>
								<trackindex>7</trackindex>
								<clipindex>1</clipindex>
							</link>
							<link>
								<linkclipref>msub200012-0409d1k1013 17</linkclipref>
								<mediatype>audio</mediatype>
								<trackindex>8</trackindex>
								<clipindex>1</clipindex>
							</link>
						</clipitem>
						<enabled>TRUE</enabled>
						<locked>FALSE</locked>
					</track>
					<track>
						<clipitem id="msub200012-0409d1k1013 11">
							<name>msub200012-0409d1k1013</name>
							<duration>14518</duration>
							<rate>
								<ntsc>FALSE</ntsc>
								<timebase>25</timebase>
							</rate>
							<in>0</in>
							<out>14518</out>
							<start>0</start>
							<end>14518</end>
							<subframeoffset>0</subframeoffset>
							<masterclipid>msub200012-0409d1k1013 1</masterclipid>
							<syncoffset>0</syncoffset>
							<logginginfo>
								<description>msub200012-0409d1k1013</description>
								<scene/>
								<shottake/>
								<lognote/>
								<good>FALSE</good>
							</logginginfo>
							<labels>
								<label>Good Take</label>
								<label2/>
							</labels>
							<comments>
								<mastercomment1>RÅSTOFF. BR_FINFREDAG_MSUA_OPRO</mastercomment1>
								<mastercomment2/>
								<mastercomment3/>
								<mastercomment4/>
							</comments>
							<file id="msub200012-0409d1k1013 2"/>
							<filter>
								<effect>
									<name>Audio Levels</name>
									<effectid>audiolevels</effectid>
									<effectcategory>audiolevels</effectcategory>
									<effecttype>audiolevels</effecttype>
									<mediatype>audio</mediatype>
									<parameter>
										<name>Level</name>
										<parameterid>level</parameterid>
										<valuemin>0</valuemin>
										<valuemax>3.98109</valuemax>
										<value>1</value>
									</parameter>
								</effect>
							</filter>
							<filter>
								<effect>
									<name>Audio Pan</name>
									<effectid>audiopan</effectid>
									<effectcategory>audiopan</effectcategory>
									<effecttype>audiopan</effecttype>
									<mediatype>audio</mediatype>
									<parameter>
										<name>Pan</name>
										<parameterid>pan</parameterid>
										<valuemin>-1</valuemin>
										<valuemax>1</valuemax>
										<value>0</value>
									</parameter>
								</effect>
							</filter>
							<sourcetrack>
								<mediatype>audio</mediatype>
								<trackindex>2</trackindex>
							</sourcetrack>
							<link>
								<linkclipref>msub200012-0409d1k1013 9</linkclipref>
								<mediatype>video</mediatype>
								<trackindex>1</trackindex>
								<clipindex>1</clipindex>
							</link>
							<link>
								<linkclipref>msub200012-0409d1k1013 10</linkclipref>
								<mediatype>audio</mediatype>
								<trackindex>1</trackindex>
								<clipindex>1</clipindex>
							</link>
							<link>
								<linkclipref>msub200012-0409d1k1013 11</linkclipref>
								<mediatype>audio</mediatype>
								<trackindex>2</trackindex>
								<clipindex>1</clipindex>
							</link>
							<link>
								<linkclipref>msub200012-0409d1k1013 12</linkclipref>
								<mediatype>audio</mediatype>
								<trackindex>3</trackindex>
								<clipindex>1</clipindex>
							</link>
							<link>
								<linkclipref>msub200012-0409d1k1013 13</linkclipref>
								<mediatype>audio</mediatype>
								<trackindex>4</trackindex>
								<clipindex>1</clipindex>
							</link>
							<link>
								<linkclipref>msub200012-0409d1k1013 14</linkclipref>
								<mediatype>audio</mediatype>
								<trackindex>5</trackindex>
								<clipindex>1</clipindex>
							</link>
							<link>
								<linkclipref>msub200012-0409d1k1013 15</linkclipref>
								<mediatype>audio</mediatype>
								<trackindex>6</trackindex>
								<clipindex>1</clipindex>
							</link>
							<link>
								<linkclipref>msub200012-0409d1k1013 16</linkclipref>
								<mediatype>audio</mediatype>
								<trackindex>7</trackindex>
								<clipindex>1</clipindex>
							</link>
							<link>
								<linkclipref>msub200012-0409d1k1013 17</linkclipref>
								<mediatype>audio</mediatype>
								<trackindex>8</trackindex>
								<clipindex>1</clipindex>
							</link>
						</clipitem>
						<enabled>TRUE</enabled>
						<locked>FALSE</locked>
					</track>
					<track>
						<clipitem id="msub200012-0409d1k1013 12">
							<name>msub200012-0409d1k1013</name>
							<duration>14518</duration>
							<rate>
								<ntsc>FALSE</ntsc>
								<timebase>25</timebase>
							</rate>
							<in>0</in>
							<out>14518</out>
							<start>0</start>
							<end>14518</end>
							<subframeoffset>0</subframeoffset>
							<masterclipid>msub200012-0409d1k1013 1</masterclipid>
							<syncoffset>0</syncoffset>
							<logginginfo>
								<description>msub200012-0409d1k1013</description>
								<scene/>
								<shottake/>
								<lognote/>
								<good>FALSE</good>
							</logginginfo>
							<labels>
								<label>Good Take</label>
								<label2/>
							</labels>
							<comments>
								<mastercomment1>RÅSTOFF. BR_FINFREDAG_MSUA_OPRO</mastercomment1>
								<mastercomment2/>
								<mastercomment3/>
								<mastercomment4/>
							</comments>
							<file id="msub200012-0409d1k1013 2"/>
							<filter>
								<effect>
									<name>Audio Levels</name>
									<effectid>audiolevels</effectid>
									<effectcategory>audiolevels</effectcategory>
									<effecttype>audiolevels</effecttype>
									<mediatype>audio</mediatype>
									<parameter>
										<name>Level</name>
										<parameterid>level</parameterid>
										<valuemin>0</valuemin>
										<valuemax>3.98109</valuemax>
										<value>1</value>
									</parameter>
								</effect>
							</filter>
							<filter>
								<effect>
									<name>Audio Pan</name>
									<effectid>audiopan</effectid>
									<effectcategory>audiopan</effectcategory>
									<effecttype>audiopan</effecttype>
									<mediatype>audio</mediatype>
									<parameter>
										<name>Pan</name>
										<parameterid>pan</parameterid>
										<valuemin>-1</valuemin>
										<valuemax>1</valuemax>
										<value>0</value>
									</parameter>
								</effect>
							</filter>
							<sourcetrack>
								<mediatype>audio</mediatype>
								<trackindex>3</trackindex>
							</sourcetrack>
							<link>
								<linkclipref>msub200012-0409d1k1013 9</linkclipref>
								<mediatype>video</mediatype>
								<trackindex>1</trackindex>
								<clipindex>1</clipindex>
							</link>
							<link>
								<linkclipref>msub200012-0409d1k1013 10</linkclipref>
								<mediatype>audio</mediatype>
								<trackindex>1</trackindex>
								<clipindex>1</clipindex>
							</link>
							<link>
								<linkclipref>msub200012-0409d1k1013 11</linkclipref>
								<mediatype>audio</mediatype>
								<trackindex>2</trackindex>
								<clipindex>1</clipindex>
							</link>
							<link>
								<linkclipref>msub200012-0409d1k1013 12</linkclipref>
								<mediatype>audio</mediatype>
								<trackindex>3</trackindex>
								<clipindex>1</clipindex>
							</link>
							<link>
								<linkclipref>msub200012-0409d1k1013 13</linkclipref>
								<mediatype>audio</mediatype>
								<trackindex>4</trackindex>
								<clipindex>1</clipindex>
							</link>
							<link>
								<linkclipref>msub200012-0409d1k1013 14</linkclipref>
								<mediatype>audio</mediatype>
								<trackindex>5</trackindex>
								<clipindex>1</clipindex>
							</link>
							<link>
								<linkclipref>msub200012-0409d1k1013 15</linkclipref>
								<mediatype>audio</mediatype>
								<trackindex>6</trackindex>
								<clipindex>1</clipindex>
							</link>
							<link>
								<linkclipref>msub200012-0409d1k1013 16</linkclipref>
								<mediatype>audio</mediatype>
								<trackindex>7</trackindex>
								<clipindex>1</clipindex>
							</link>
							<link>
								<linkclipref>msub200012-0409d1k1013 17</linkclipref>
								<mediatype>audio</mediatype>
								<trackindex>8</trackindex>
								<clipindex>1</clipindex>
							</link>
						</clipitem>
						<enabled>TRUE</enabled>
						<locked>FALSE</locked>
					</track>
					<track>
						<clipitem id="msub200012-0409d1k1013 13">
							<name>msub200012-0409d1k1013</name>
							<duration>14518</duration>
							<rate>
								<ntsc>FALSE</ntsc>
								<timebase>25</timebase>
							</rate>
							<in>0</in>
							<out>14518</out>
							<start>0</start>
							<end>14518</end>
							<subframeoffset>0</subframeoffset>
							<masterclipid>msub200012-0409d1k1013 1</masterclipid>
							<syncoffset>0</syncoffset>
							<logginginfo>
								<description>msub200012-0409d1k1013</description>
								<scene/>
								<shottake/>
								<lognote/>
								<good>FALSE</good>
							</logginginfo>
							<labels>
								<label>Good Take</label>
								<label2/>
							</labels>
							<comments>
								<mastercomment1>RÅSTOFF. BR_FINFREDAG_MSUA_OPRO</mastercomment1>
								<mastercomment2/>
								<mastercomment3/>
								<mastercomment4/>
							</comments>
							<file id="msub200012-0409d1k1013 2"/>
							<filter>
								<effect>
									<name>Audio Levels</name>
									<effectid>audiolevels</effectid>
									<effectcategory>audiolevels</effectcategory>
									<effecttype>audiolevels</effecttype>
									<mediatype>audio</mediatype>
									<parameter>
										<name>Level</name>
										<parameterid>level</parameterid>
										<valuemin>0</valuemin>
										<valuemax>3.98109</valuemax>
										<value>1</value>
									</parameter>
								</effect>
							</filter>
							<filter>
								<effect>
									<name>Audio Pan</name>
									<effectid>audiopan</effectid>
									<effectcategory>audiopan</effectcategory>
									<effecttype>audiopan</effecttype>
									<mediatype>audio</mediatype>
									<parameter>
										<name>Pan</name>
										<parameterid>pan</parameterid>
										<valuemin>-1</valuemin>
										<valuemax>1</valuemax>
										<value>0</value>
									</parameter>
								</effect>
							</filter>
							<sourcetrack>
								<mediatype>audio</mediatype>
								<trackindex>4</trackindex>
							</sourcetrack>
							<link>
								<linkclipref>msub200012-0409d1k1013 9</linkclipref>
								<mediatype>video</mediatype>
								<trackindex>1</trackindex>
								<clipindex>1</clipindex>
							</link>
							<link>
								<linkclipref>msub200012-0409d1k1013 10</linkclipref>
								<mediatype>audio</mediatype>
								<trackindex>1</trackindex>
								<clipindex>1</clipindex>
							</link>
							<link>
								<linkclipref>msub200012-0409d1k1013 11</linkclipref>
								<mediatype>audio</mediatype>
								<trackindex>2</trackindex>
								<clipindex>1</clipindex>
							</link>
							<link>
								<linkclipref>msub200012-0409d1k1013 12</linkclipref>
								<mediatype>audio</mediatype>
								<trackindex>3</trackindex>
								<clipindex>1</clipindex>
							</link>
							<link>
								<linkclipref>msub200012-0409d1k1013 13</linkclipref>
								<mediatype>audio</mediatype>
								<trackindex>4</trackindex>
								<clipindex>1</clipindex>
							</link>
							<link>
								<linkclipref>msub200012-0409d1k1013 14</linkclipref>
								<mediatype>audio</mediatype>
								<trackindex>5</trackindex>
								<clipindex>1</clipindex>
							</link>
							<link>
								<linkclipref>msub200012-0409d1k1013 15</linkclipref>
								<mediatype>audio</mediatype>
								<trackindex>6</trackindex>
								<clipindex>1</clipindex>
							</link>
							<link>
								<linkclipref>msub200012-0409d1k1013 16</linkclipref>
								<mediatype>audio</mediatype>
								<trackindex>7</trackindex>
								<clipindex>1</clipindex>
							</link>
							<link>
								<linkclipref>msub200012-0409d1k1013 17</linkclipref>
								<mediatype>audio</mediatype>
								<trackindex>8</trackindex>
								<clipindex>1</clipindex>
							</link>
						</clipitem>
						<enabled>TRUE</enabled>
						<locked>FALSE</locked>
					</track>
					<track>
						<clipitem id="msub200012-0409d1k1013 14">
							<name>msub200012-0409d1k1013</name>
							<duration>14518</duration>
							<rate>
								<ntsc>FALSE</ntsc>
								<timebase>25</timebase>
							</rate>
							<in>0</in>
							<out>14518</out>
							<start>0</start>
							<end>14518</end>
							<subframeoffset>0</subframeoffset>
							<masterclipid>msub200012-0409d1k1013 1</masterclipid>
							<syncoffset>0</syncoffset>
							<logginginfo>
								<description>msub200012-0409d1k1013</description>
								<scene/>
								<shottake/>
								<lognote/>
								<good>FALSE</good>
							</logginginfo>
							<labels>
								<label>Good Take</label>
								<label2/>
							</labels>
							<comments>
								<mastercomment1>RÅSTOFF. BR_FINFREDAG_MSUA_OPRO</mastercomment1>
								<mastercomment2/>
								<mastercomment3/>
								<mastercomment4/>
							</comments>
							<file id="msub200012-0409d1k1013 2"/>
							<filter>
								<effect>
									<name>Audio Levels</name>
									<effectid>audiolevels</effectid>
									<effectcategory>audiolevels</effectcategory>
									<effecttype>audiolevels</effecttype>
									<mediatype>audio</mediatype>
									<parameter>
										<name>Level</name>
										<parameterid>level</parameterid>
										<valuemin>0</valuemin>
										<valuemax>3.98109</valuemax>
										<value>1</value>
									</parameter>
								</effect>
							</filter>
							<filter>
								<effect>
									<name>Audio Pan</name>
									<effectid>audiopan</effectid>
									<effectcategory>audiopan</effectcategory>
									<effecttype>audiopan</effecttype>
									<mediatype>audio</mediatype>
									<parameter>
										<name>Pan</name>
										<parameterid>pan</parameterid>
										<valuemin>-1</valuemin>
										<valuemax>1</valuemax>
										<value>0</value>
									</parameter>
								</effect>
							</filter>
							<sourcetrack>
								<mediatype>audio</mediatype>
								<trackindex>5</trackindex>
							</sourcetrack>
							<link>
								<linkclipref>msub200012-0409d1k1013 9</linkclipref>
								<mediatype>video</mediatype>
								<trackindex>1</trackindex>
								<clipindex>1</clipindex>
							</link>
							<link>
								<linkclipref>msub200012-0409d1k1013 10</linkclipref>
								<mediatype>audio</mediatype>
								<trackindex>1</trackindex>
								<clipindex>1</clipindex>
							</link>
							<link>
								<linkclipref>msub200012-0409d1k1013 11</linkclipref>
								<mediatype>audio</mediatype>
								<trackindex>2</trackindex>
								<clipindex>1</clipindex>
							</link>
							<link>
								<linkclipref>msub200012-0409d1k1013 12</linkclipref>
								<mediatype>audio</mediatype>
								<trackindex>3</trackindex>
								<clipindex>1</clipindex>
							</link>
							<link>
								<linkclipref>msub200012-0409d1k1013 13</linkclipref>
								<mediatype>audio</mediatype>
								<trackindex>4</trackindex>
								<clipindex>1</clipindex>
							</link>
							<link>
								<linkclipref>msub200012-0409d1k1013 14</linkclipref>
								<mediatype>audio</mediatype>
								<trackindex>5</trackindex>
								<clipindex>1</clipindex>
							</link>
							<link>
								<linkclipref>msub200012-0409d1k1013 15</linkclipref>
								<mediatype>audio</mediatype>
								<trackindex>6</trackindex>
								<clipindex>1</clipindex>
							</link>
							<link>
								<linkclipref>msub200012-0409d1k1013 16</linkclipref>
								<mediatype>audio</mediatype>
								<trackindex>7</trackindex>
								<clipindex>1</clipindex>
							</link>
							<link>
								<linkclipref>msub200012-0409d1k1013 17</linkclipref>
								<mediatype>audio</mediatype>
								<trackindex>8</trackindex>
								<clipindex>1</clipindex>
							</link>
						</clipitem>
						<enabled>TRUE</enabled>
						<locked>FALSE</locked>
					</track>
					<track>
						<clipitem id="msub200012-0409d1k1013 15">
							<name>msub200012-0409d1k1013</name>
							<duration>14518</duration>
							<rate>
								<ntsc>FALSE</ntsc>
								<timebase>25</timebase>
							</rate>
							<in>0</in>
							<out>14518</out>
							<start>0</start>
							<end>14518</end>
							<subframeoffset>0</subframeoffset>
							<masterclipid>msub200012-0409d1k1013 1</masterclipid>
							<syncoffset>0</syncoffset>
							<logginginfo>
								<description>msub200012-0409d1k1013</description>
								<scene/>
								<shottake/>
								<lognote/>
								<good>FALSE</good>
							</logginginfo>
							<labels>
								<label>Good Take</label>
								<label2/>
							</labels>
							<comments>
								<mastercomment1>RÅSTOFF. BR_FINFREDAG_MSUA_OPRO</mastercomment1>
								<mastercomment2/>
								<mastercomment3/>
								<mastercomment4/>
							</comments>
							<file id="msub200012-0409d1k1013 2"/>
							<filter>
								<effect>
									<name>Audio Levels</name>
									<effectid>audiolevels</effectid>
									<effectcategory>audiolevels</effectcategory>
									<effecttype>audiolevels</effecttype>
									<mediatype>audio</mediatype>
									<parameter>
										<name>Level</name>
										<parameterid>level</parameterid>
										<valuemin>0</valuemin>
										<valuemax>3.98109</valuemax>
										<value>1</value>
									</parameter>
								</effect>
							</filter>
							<filter>
								<effect>
									<name>Audio Pan</name>
									<effectid>audiopan</effectid>
									<effectcategory>audiopan</effectcategory>
									<effecttype>audiopan</effecttype>
									<mediatype>audio</mediatype>
									<parameter>
										<name>Pan</name>
										<parameterid>pan</parameterid>
										<valuemin>-1</valuemin>
										<valuemax>1</valuemax>
										<value>0</value>
									</parameter>
								</effect>
							</filter>
							<sourcetrack>
								<mediatype>audio</mediatype>
								<trackindex>6</trackindex>
							</sourcetrack>
							<link>
								<linkclipref>msub200012-0409d1k1013 9</linkclipref>
								<mediatype>video</mediatype>
								<trackindex>1</trackindex>
								<clipindex>1</clipindex>
							</link>
							<link>
								<linkclipref>msub200012-0409d1k1013 10</linkclipref>
								<mediatype>audio</mediatype>
								<trackindex>1</trackindex>
								<clipindex>1</clipindex>
							</link>
							<link>
								<linkclipref>msub200012-0409d1k1013 11</linkclipref>
								<mediatype>audio</mediatype>
								<trackindex>2</trackindex>
								<clipindex>1</clipindex>
							</link>
							<link>
								<linkclipref>msub200012-0409d1k1013 12</linkclipref>
								<mediatype>audio</mediatype>
								<trackindex>3</trackindex>
								<clipindex>1</clipindex>
							</link>
							<link>
								<linkclipref>msub200012-0409d1k1013 13</linkclipref>
								<mediatype>audio</mediatype>
								<trackindex>4</trackindex>
								<clipindex>1</clipindex>
							</link>
							<link>
								<linkclipref>msub200012-0409d1k1013 14</linkclipref>
								<mediatype>audio</mediatype>
								<trackindex>5</trackindex>
								<clipindex>1</clipindex>
							</link>
							<link>
								<linkclipref>msub200012-0409d1k1013 15</linkclipref>
								<mediatype>audio</mediatype>
								<trackindex>6</trackindex>
								<clipindex>1</clipindex>
							</link>
							<link>
								<linkclipref>msub200012-0409d1k1013 16</linkclipref>
								<mediatype>audio</mediatype>
								<trackindex>7</trackindex>
								<clipindex>1</clipindex>
							</link>
							<link>
								<linkclipref>msub200012-0409d1k1013 17</linkclipref>
								<mediatype>audio</mediatype>
								<trackindex>8</trackindex>
								<clipindex>1</clipindex>
							</link>
						</clipitem>
						<enabled>TRUE</enabled>
						<locked>FALSE</locked>
					</track>
					<track>
						<clipitem id="msub200012-0409d1k1013 16">
							<name>msub200012-0409d1k1013</name>
							<duration>14518</duration>
							<rate>
								<ntsc>FALSE</ntsc>
								<timebase>25</timebase>
							</rate>
							<in>0</in>
							<out>14518</out>
							<start>0</start>
							<end>14518</end>
							<subframeoffset>0</subframeoffset>
							<masterclipid>msub200012-0409d1k1013 1</masterclipid>
							<syncoffset>0</syncoffset>
							<logginginfo>
								<description>msub200012-0409d1k1013</description>
								<scene/>
								<shottake/>
								<lognote/>
								<good>FALSE</good>
							</logginginfo>
							<labels>
								<label>Good Take</label>
								<label2/>
							</labels>
							<comments>
								<mastercomment1>RÅSTOFF. BR_FINFREDAG_MSUA_OPRO</mastercomment1>
								<mastercomment2/>
								<mastercomment3/>
								<mastercomment4/>
							</comments>
							<file id="msub200012-0409d1k1013 2"/>
							<filter>
								<effect>
									<name>Audio Levels</name>
									<effectid>audiolevels</effectid>
									<effectcategory>audiolevels</effectcategory>
									<effecttype>audiolevels</effecttype>
									<mediatype>audio</mediatype>
									<parameter>
										<name>Level</name>
										<parameterid>level</parameterid>
										<valuemin>0</valuemin>
										<valuemax>3.98109</valuemax>
										<value>1</value>
									</parameter>
								</effect>
							</filter>
							<filter>
								<effect>
									<name>Audio Pan</name>
									<effectid>audiopan</effectid>
									<effectcategory>audiopan</effectcategory>
									<effecttype>audiopan</effecttype>
									<mediatype>audio</mediatype>
									<parameter>
										<name>Pan</name>
										<parameterid>pan</parameterid>
										<valuemin>-1</valuemin>
										<valuemax>1</valuemax>
										<value>0</value>
									</parameter>
								</effect>
							</filter>
							<sourcetrack>
								<mediatype>audio</mediatype>
								<trackindex>7</trackindex>
							</sourcetrack>
							<link>
								<linkclipref>msub200012-0409d1k1013 9</linkclipref>
								<mediatype>video</mediatype>
								<trackindex>1</trackindex>
								<clipindex>1</clipindex>
							</link>
							<link>
								<linkclipref>msub200012-0409d1k1013 10</linkclipref>
								<mediatype>audio</mediatype>
								<trackindex>1</trackindex>
								<clipindex>1</clipindex>
							</link>
							<link>
								<linkclipref>msub200012-0409d1k1013 11</linkclipref>
								<mediatype>audio</mediatype>
								<trackindex>2</trackindex>
								<clipindex>1</clipindex>
							</link>
							<link>
								<linkclipref>msub200012-0409d1k1013 12</linkclipref>
								<mediatype>audio</mediatype>
								<trackindex>3</trackindex>
								<clipindex>1</clipindex>
							</link>
							<link>
								<linkclipref>msub200012-0409d1k1013 13</linkclipref>
								<mediatype>audio</mediatype>
								<trackindex>4</trackindex>
								<clipindex>1</clipindex>
							</link>
							<link>
								<linkclipref>msub200012-0409d1k1013 14</linkclipref>
								<mediatype>audio</mediatype>
								<trackindex>5</trackindex>
								<clipindex>1</clipindex>
							</link>
							<link>
								<linkclipref>msub200012-0409d1k1013 15</linkclipref>
								<mediatype>audio</mediatype>
								<trackindex>6</trackindex>
								<clipindex>1</clipindex>
							</link>
							<link>
								<linkclipref>msub200012-0409d1k1013 16</linkclipref>
								<mediatype>audio</mediatype>
								<trackindex>7</trackindex>
								<clipindex>1</clipindex>
							</link>
							<link>
								<linkclipref>msub200012-0409d1k1013 17</linkclipref>
								<mediatype>audio</mediatype>
								<trackindex>8</trackindex>
								<clipindex>1</clipindex>
							</link>
						</clipitem>
						<enabled>TRUE</enabled>
						<locked>FALSE</locked>
					</track>
					<track>
						<clipitem id="msub200012-0409d1k1013 17">
							<name>msub200012-0409d1k1013</name>
							<duration>14518</duration>
							<rate>
								<ntsc>FALSE</ntsc>
								<timebase>25</timebase>
							</rate>
							<in>0</in>
							<out>14518</out>
							<start>0</start>
							<end>14518</end>
							<subframeoffset>0</subframeoffset>
							<masterclipid>msub200012-0409d1k1013 1</masterclipid>
							<syncoffset>0</syncoffset>
							<logginginfo>
								<description>msub200012-0409d1k1013</description>
								<scene/>
								<shottake/>
								<lognote/>
								<good>FALSE</good>
							</logginginfo>
							<labels>
								<label>Good Take</label>
								<label2/>
							</labels>
							<comments>
								<mastercomment1>RÅSTOFF. BR_FINFREDAG_MSUA_OPRO</mastercomment1>
								<mastercomment2/>
								<mastercomment3/>
								<mastercomment4/>
							</comments>
							<file id="msub200012-0409d1k1013 2"/>
							<filter>
								<effect>
									<name>Audio Levels</name>
									<effectid>audiolevels</effectid>
									<effectcategory>audiolevels</effectcategory>
									<effecttype>audiolevels</effecttype>
									<mediatype>audio</mediatype>
									<parameter>
										<name>Level</name>
										<parameterid>level</parameterid>
										<valuemin>0</valuemin>
										<valuemax>3.98109</valuemax>
										<value>1</value>
									</parameter>
								</effect>
							</filter>
							<filter>
								<effect>
									<name>Audio Pan</name>
									<effectid>audiopan</effectid>
									<effectcategory>audiopan</effectcategory>
									<effecttype>audiopan</effecttype>
									<mediatype>audio</mediatype>
									<parameter>
										<name>Pan</name>
										<parameterid>pan</parameterid>
										<valuemin>-1</valuemin>
										<valuemax>1</valuemax>
										<value>0</value>
									</parameter>
								</effect>
							</filter>
							<sourcetrack>
								<mediatype>audio</mediatype>
								<trackindex>8</trackindex>
							</sourcetrack>
							<link>
								<linkclipref>msub200012-0409d1k1013 9</linkclipref>
								<mediatype>video</mediatype>
								<trackindex>1</trackindex>
								<clipindex>1</clipindex>
							</link>
							<link>
								<linkclipref>msub200012-0409d1k1013 10</linkclipref>
								<mediatype>audio</mediatype>
								<trackindex>1</trackindex>
								<clipindex>1</clipindex>
							</link>
							<link>
								<linkclipref>msub200012-0409d1k1013 11</linkclipref>
								<mediatype>audio</mediatype>
								<trackindex>2</trackindex>
								<clipindex>1</clipindex>
							</link>
							<link>
								<linkclipref>msub200012-0409d1k1013 12</linkclipref>
								<mediatype>audio</mediatype>
								<trackindex>3</trackindex>
								<clipindex>1</clipindex>
							</link>
							<link>
								<linkclipref>msub200012-0409d1k1013 13</linkclipref>
								<mediatype>audio</mediatype>
								<trackindex>4</trackindex>
								<clipindex>1</clipindex>
							</link>
							<link>
								<linkclipref>msub200012-0409d1k1013 14</linkclipref>
								<mediatype>audio</mediatype>
								<trackindex>5</trackindex>
								<clipindex>1</clipindex>
							</link>
							<link>
								<linkclipref>msub200012-0409d1k1013 15</linkclipref>
								<mediatype>audio</mediatype>
								<trackindex>6</trackindex>
								<clipindex>1</clipindex>
							</link>
							<link>
								<linkclipref>msub200012-0409d1k1013 16</linkclipref>
								<mediatype>audio</mediatype>
								<trackindex>7</trackindex>
								<clipindex>1</clipindex>
							</link>
							<link>
								<linkclipref>msub200012-0409d1k1013 17</linkclipref>
								<mediatype>audio</mediatype>
								<trackindex>8</trackindex>
								<clipindex>1</clipindex>
							</link>
						</clipitem>
						<enabled>TRUE</enabled>
						<locked>FALSE</locked>
					</track>
				</audio>
			</media>
		</clip>
		<clip id="msub200012-0409d1k1011 34">
			<name>msub200012-0409d1k1011</name>
			<duration>24527</duration>
			<rate>
				<ntsc>FALSE</ntsc>
				<timebase>25</timebase>
			</rate>
			<in>8304</in>
			<out>8533</out>
			<masterclipid>msub200012-0409d1k1011 1</masterclipid>
			<ismasterclip>FALSE</ismasterclip>
			<logginginfo>
				<description>msub200012-0409d1k1011</description>
				<scene/>
				<shottake/>
				<lognote/>
				<good>FALSE</good>
			</logginginfo>
			<labels>
				<label>B Roll</label>
				<label2/>
			</labels>
			<comments>
				<mastercomment1>RÅSTOFF. BR_FINFREDAG_MSUA_OPRO</mastercomment1>
				<mastercomment2/>
				<mastercomment3/>
				<mastercomment4/>
			</comments>
			<media>
				<video>
					<track>
						<clipitem id="msub200012-0409d1k1011 35">
							<name>msub200012-0409d1k1011</name>
							<duration>24527</duration>
							<rate>
								<ntsc>FALSE</ntsc>
								<timebase>25</timebase>
							</rate>
							<in>0</in>
							<out>24527</out>
							<start>0</start>
							<end>24527</end>
							<pixelaspectratio>Square</pixelaspectratio>
							<anamorphic>FALSE</anamorphic>
							<alphatype>none</alphatype>
							<masterclipid>msub200012-0409d1k1011 1</masterclipid>
							<syncoffset>0</syncoffset>
							<logginginfo>
								<scene/>
								<shottake/>
								<lognote/>
								<good>FALSE</good>
							</logginginfo>
							<labels>
								<label>B Roll</label>
								<label2/>
							</labels>
							<comments>
								<mastercomment1>RÅSTOFF. BR_FINFREDAG_MSUA_OPRO</mastercomment1>
								<mastercomment2/>
								<mastercomment3/>
								<mastercomment4/>
							</comments>
							<file id="msub200012-0409d1k1011 2"/>
							<sourcetrack>
								<mediatype>video</mediatype>
							</sourcetrack>
							<link>
								<linkclipref>msub200012-0409d1k1011 35</linkclipref>
								<mediatype>video</mediatype>
								<trackindex>1</trackindex>
								<clipindex>1</clipindex>
							</link>
							<link>
								<linkclipref>msub200012-0409d1k1011 36</linkclipref>
								<mediatype>audio</mediatype>
								<trackindex>1</trackindex>
								<clipindex>1</clipindex>
							</link>
							<link>
								<linkclipref>msub200012-0409d1k1011 37</linkclipref>
								<mediatype>audio</mediatype>
								<trackindex>2</trackindex>
								<clipindex>1</clipindex>
							</link>
							<link>
								<linkclipref>msub200012-0409d1k1011 38</linkclipref>
								<mediatype>audio</mediatype>
								<trackindex>3</trackindex>
								<clipindex>1</clipindex>
							</link>
							<link>
								<linkclipref>msub200012-0409d1k1011 39</linkclipref>
								<mediatype>audio</mediatype>
								<trackindex>4</trackindex>
								<clipindex>1</clipindex>
							</link>
							<link>
								<linkclipref>msub200012-0409d1k1011 40</linkclipref>
								<mediatype>audio</mediatype>
								<trackindex>5</trackindex>
								<clipindex>1</clipindex>
							</link>
							<link>
								<linkclipref>msub200012-0409d1k1011 41</linkclipref>
								<mediatype>audio</mediatype>
								<trackindex>6</trackindex>
								<clipindex>1</clipindex>
							</link>
							<link>
								<linkclipref>msub200012-0409d1k1011 42</linkclipref>
								<mediatype>audio</mediatype>
								<trackindex>7</trackindex>
								<clipindex>1</clipindex>
							</link>
							<link>
								<linkclipref>msub200012-0409d1k1011 43</linkclipref>
								<mediatype>audio</mediatype>
								<trackindex>8</trackindex>
								<clipindex>1</clipindex>
							</link>
							<fielddominance>upper</fielddominance>
						</clipitem>
						<enabled>TRUE</enabled>
						<locked>FALSE</locked>
					</track>
				</video>
				<audio>
					<in>8304</in>
					<out>8533</out>
					<track>
						<clipitem id="msub200012-0409d1k1011 36">
							<name>msub200012-0409d1k1011</name>
							<duration>24527</duration>
							<rate>
								<ntsc>FALSE</ntsc>
								<timebase>25</timebase>
							</rate>
							<in>0</in>
							<out>24527</out>
							<start>0</start>
							<end>24527</end>
							<subframeoffset>0</subframeoffset>
							<masterclipid>msub200012-0409d1k1011 1</masterclipid>
							<syncoffset>0</syncoffset>
							<logginginfo>
								<scene/>
								<shottake/>
								<lognote/>
								<good>FALSE</good>
							</logginginfo>
							<labels>
								<label>B Roll</label>
								<label2/>
							</labels>
							<comments>
								<mastercomment1>RÅSTOFF. BR_FINFREDAG_MSUA_OPRO</mastercomment1>
								<mastercomment2/>
								<mastercomment3/>
								<mastercomment4/>
							</comments>
							<file id="msub200012-0409d1k1011 2"/>
							<filter>
								<effect>
									<name>Audio Levels</name>
									<effectid>audiolevels</effectid>
									<effectcategory>audiolevels</effectcategory>
									<effecttype>audiolevels</effecttype>
									<mediatype>audio</mediatype>
									<parameter>
										<name>Level</name>
										<parameterid>level</parameterid>
										<valuemin>0</valuemin>
										<valuemax>3.98109</valuemax>
										<value>1</value>
									</parameter>
								</effect>
							</filter>
							<filter>
								<effect>
									<name>Audio Pan</name>
									<effectid>audiopan</effectid>
									<effectcategory>audiopan</effectcategory>
									<effecttype>audiopan</effecttype>
									<mediatype>audio</mediatype>
									<parameter>
										<name>Pan</name>
										<parameterid>pan</parameterid>
										<valuemin>-1</valuemin>
										<valuemax>1</valuemax>
										<value>0</value>
									</parameter>
								</effect>
							</filter>
							<sourcetrack>
								<mediatype>audio</mediatype>
								<trackindex>1</trackindex>
							</sourcetrack>
							<link>
								<linkclipref>msub200012-0409d1k1011 35</linkclipref>
								<mediatype>video</mediatype>
								<trackindex>1</trackindex>
								<clipindex>1</clipindex>
							</link>
							<link>
								<linkclipref>msub200012-0409d1k1011 36</linkclipref>
								<mediatype>audio</mediatype>
								<trackindex>1</trackindex>
								<clipindex>1</clipindex>
							</link>
							<link>
								<linkclipref>msub200012-0409d1k1011 37</linkclipref>
								<mediatype>audio</mediatype>
								<trackindex>2</trackindex>
								<clipindex>1</clipindex>
							</link>
							<link>
								<linkclipref>msub200012-0409d1k1011 38</linkclipref>
								<mediatype>audio</mediatype>
								<trackindex>3</trackindex>
								<clipindex>1</clipindex>
							</link>
							<link>
								<linkclipref>msub200012-0409d1k1011 39</linkclipref>
								<mediatype>audio</mediatype>
								<trackindex>4</trackindex>
								<clipindex>1</clipindex>
							</link>
							<link>
								<linkclipref>msub200012-0409d1k1011 40</linkclipref>
								<mediatype>audio</mediatype>
								<trackindex>5</trackindex>
								<clipindex>1</clipindex>
							</link>
							<link>
								<linkclipref>msub200012-0409d1k1011 41</linkclipref>
								<mediatype>audio</mediatype>
								<trackindex>6</trackindex>
								<clipindex>1</clipindex>
							</link>
							<link>
								<linkclipref>msub200012-0409d1k1011 42</linkclipref>
								<mediatype>audio</mediatype>
								<trackindex>7</trackindex>
								<clipindex>1</clipindex>
							</link>
							<link>
								<linkclipref>msub200012-0409d1k1011 43</linkclipref>
								<mediatype>audio</mediatype>
								<trackindex>8</trackindex>
								<clipindex>1</clipindex>
							</link>
						</clipitem>
						<enabled>TRUE</enabled>
						<locked>FALSE</locked>
					</track>
					<track>
						<clipitem id="msub200012-0409d1k1011 37">
							<name>msub200012-0409d1k1011</name>
							<duration>24527</duration>
							<rate>
								<ntsc>FALSE</ntsc>
								<timebase>25</timebase>
							</rate>
							<in>0</in>
							<out>24527</out>
							<start>0</start>
							<end>24527</end>
							<subframeoffset>0</subframeoffset>
							<masterclipid>msub200012-0409d1k1011 1</masterclipid>
							<syncoffset>0</syncoffset>
							<logginginfo>
								<scene/>
								<shottake/>
								<lognote/>
								<good>FALSE</good>
							</logginginfo>
							<labels>
								<label>B Roll</label>
								<label2/>
							</labels>
							<comments>
								<mastercomment1>RÅSTOFF. BR_FINFREDAG_MSUA_OPRO</mastercomment1>
								<mastercomment2/>
								<mastercomment3/>
								<mastercomment4/>
							</comments>
							<file id="msub200012-0409d1k1011 2"/>
							<filter>
								<effect>
									<name>Audio Levels</name>
									<effectid>audiolevels</effectid>
									<effectcategory>audiolevels</effectcategory>
									<effecttype>audiolevels</effecttype>
									<mediatype>audio</mediatype>
									<parameter>
										<name>Level</name>
										<parameterid>level</parameterid>
										<valuemin>0</valuemin>
										<valuemax>3.98109</valuemax>
										<value>1</value>
									</parameter>
								</effect>
							</filter>
							<filter>
								<effect>
									<name>Audio Pan</name>
									<effectid>audiopan</effectid>
									<effectcategory>audiopan</effectcategory>
									<effecttype>audiopan</effecttype>
									<mediatype>audio</mediatype>
									<parameter>
										<name>Pan</name>
										<parameterid>pan</parameterid>
										<valuemin>-1</valuemin>
										<valuemax>1</valuemax>
										<value>0</value>
									</parameter>
								</effect>
							</filter>
							<sourcetrack>
								<mediatype>audio</mediatype>
								<trackindex>2</trackindex>
							</sourcetrack>
							<link>
								<linkclipref>msub200012-0409d1k1011 35</linkclipref>
								<mediatype>video</mediatype>
								<trackindex>1</trackindex>
								<clipindex>1</clipindex>
							</link>
							<link>
								<linkclipref>msub200012-0409d1k1011 36</linkclipref>
								<mediatype>audio</mediatype>
								<trackindex>1</trackindex>
								<clipindex>1</clipindex>
							</link>
							<link>
								<linkclipref>msub200012-0409d1k1011 37</linkclipref>
								<mediatype>audio</mediatype>
								<trackindex>2</trackindex>
								<clipindex>1</clipindex>
							</link>
							<link>
								<linkclipref>msub200012-0409d1k1011 38</linkclipref>
								<mediatype>audio</mediatype>
								<trackindex>3</trackindex>
								<clipindex>1</clipindex>
							</link>
							<link>
								<linkclipref>msub200012-0409d1k1011 39</linkclipref>
								<mediatype>audio</mediatype>
								<trackindex>4</trackindex>
								<clipindex>1</clipindex>
							</link>
							<link>
								<linkclipref>msub200012-0409d1k1011 40</linkclipref>
								<mediatype>audio</mediatype>
								<trackindex>5</trackindex>
								<clipindex>1</clipindex>
							</link>
							<link>
								<linkclipref>msub200012-0409d1k1011 41</linkclipref>
								<mediatype>audio</mediatype>
								<trackindex>6</trackindex>
								<clipindex>1</clipindex>
							</link>
							<link>
								<linkclipref>msub200012-0409d1k1011 42</linkclipref>
								<mediatype>audio</mediatype>
								<trackindex>7</trackindex>
								<clipindex>1</clipindex>
							</link>
							<link>
								<linkclipref>msub200012-0409d1k1011 43</linkclipref>
								<mediatype>audio</mediatype>
								<trackindex>8</trackindex>
								<clipindex>1</clipindex>
							</link>
						</clipitem>
						<enabled>TRUE</enabled>
						<locked>FALSE</locked>
					</track>
					<track>
						<clipitem id="msub200012-0409d1k1011 38">
							<name>msub200012-0409d1k1011</name>
							<duration>24527</duration>
							<rate>
								<ntsc>FALSE</ntsc>
								<timebase>25</timebase>
							</rate>
							<in>0</in>
							<out>24527</out>
							<start>0</start>
							<end>24527</end>
							<subframeoffset>0</subframeoffset>
							<masterclipid>msub200012-0409d1k1011 1</masterclipid>
							<syncoffset>0</syncoffset>
							<logginginfo>
								<scene/>
								<shottake/>
								<lognote/>
								<good>FALSE</good>
							</logginginfo>
							<labels>
								<label>B Roll</label>
								<label2/>
							</labels>
							<comments>
								<mastercomment1>RÅSTOFF. BR_FINFREDAG_MSUA_OPRO</mastercomment1>
								<mastercomment2/>
								<mastercomment3/>
								<mastercomment4/>
							</comments>
							<file id="msub200012-0409d1k1011 2"/>
							<filter>
								<effect>
									<name>Audio Levels</name>
									<effectid>audiolevels</effectid>
									<effectcategory>audiolevels</effectcategory>
									<effecttype>audiolevels</effecttype>
									<mediatype>audio</mediatype>
									<parameter>
										<name>Level</name>
										<parameterid>level</parameterid>
										<valuemin>0</valuemin>
										<valuemax>3.98109</valuemax>
										<value>1</value>
									</parameter>
								</effect>
							</filter>
							<filter>
								<effect>
									<name>Audio Pan</name>
									<effectid>audiopan</effectid>
									<effectcategory>audiopan</effectcategory>
									<effecttype>audiopan</effecttype>
									<mediatype>audio</mediatype>
									<parameter>
										<name>Pan</name>
										<parameterid>pan</parameterid>
										<valuemin>-1</valuemin>
										<valuemax>1</valuemax>
										<value>0</value>
									</parameter>
								</effect>
							</filter>
							<sourcetrack>
								<mediatype>audio</mediatype>
								<trackindex>3</trackindex>
							</sourcetrack>
							<link>
								<linkclipref>msub200012-0409d1k1011 35</linkclipref>
								<mediatype>video</mediatype>
								<trackindex>1</trackindex>
								<clipindex>1</clipindex>
							</link>
							<link>
								<linkclipref>msub200012-0409d1k1011 36</linkclipref>
								<mediatype>audio</mediatype>
								<trackindex>1</trackindex>
								<clipindex>1</clipindex>
							</link>
							<link>
								<linkclipref>msub200012-0409d1k1011 37</linkclipref>
								<mediatype>audio</mediatype>
								<trackindex>2</trackindex>
								<clipindex>1</clipindex>
							</link>
							<link>
								<linkclipref>msub200012-0409d1k1011 38</linkclipref>
								<mediatype>audio</mediatype>
								<trackindex>3</trackindex>
								<clipindex>1</clipindex>
							</link>
							<link>
								<linkclipref>msub200012-0409d1k1011 39</linkclipref>
								<mediatype>audio</mediatype>
								<trackindex>4</trackindex>
								<clipindex>1</clipindex>
							</link>
							<link>
								<linkclipref>msub200012-0409d1k1011 40</linkclipref>
								<mediatype>audio</mediatype>
								<trackindex>5</trackindex>
								<clipindex>1</clipindex>
							</link>
							<link>
								<linkclipref>msub200012-0409d1k1011 41</linkclipref>
								<mediatype>audio</mediatype>
								<trackindex>6</trackindex>
								<clipindex>1</clipindex>
							</link>
							<link>
								<linkclipref>msub200012-0409d1k1011 42</linkclipref>
								<mediatype>audio</mediatype>
								<trackindex>7</trackindex>
								<clipindex>1</clipindex>
							</link>
							<link>
								<linkclipref>msub200012-0409d1k1011 43</linkclipref>
								<mediatype>audio</mediatype>
								<trackindex>8</trackindex>
								<clipindex>1</clipindex>
							</link>
						</clipitem>
						<enabled>TRUE</enabled>
						<locked>FALSE</locked>
					</track>
					<track>
						<clipitem id="msub200012-0409d1k1011 39">
							<name>msub200012-0409d1k1011</name>
							<duration>24527</duration>
							<rate>
								<ntsc>FALSE</ntsc>
								<timebase>25</timebase>
							</rate>
							<in>0</in>
							<out>24527</out>
							<start>0</start>
							<end>24527</end>
							<subframeoffset>0</subframeoffset>
							<masterclipid>msub200012-0409d1k1011 1</masterclipid>
							<syncoffset>0</syncoffset>
							<logginginfo>
								<scene/>
								<shottake/>
								<lognote/>
								<good>FALSE</good>
							</logginginfo>
							<labels>
								<label>B Roll</label>
								<label2/>
							</labels>
							<comments>
								<mastercomment1>RÅSTOFF. BR_FINFREDAG_MSUA_OPRO</mastercomment1>
								<mastercomment2/>
								<mastercomment3/>
								<mastercomment4/>
							</comments>
							<file id="msub200012-0409d1k1011 2"/>
							<filter>
								<effect>
									<name>Audio Levels</name>
									<effectid>audiolevels</effectid>
									<effectcategory>audiolevels</effectcategory>
									<effecttype>audiolevels</effecttype>
									<mediatype>audio</mediatype>
									<parameter>
										<name>Level</name>
										<parameterid>level</parameterid>
										<valuemin>0</valuemin>
										<valuemax>3.98109</valuemax>
										<value>1</value>
									</parameter>
								</effect>
							</filter>
							<filter>
								<effect>
									<name>Audio Pan</name>
									<effectid>audiopan</effectid>
									<effectcategory>audiopan</effectcategory>
									<effecttype>audiopan</effecttype>
									<mediatype>audio</mediatype>
									<parameter>
										<name>Pan</name>
										<parameterid>pan</parameterid>
										<valuemin>-1</valuemin>
										<valuemax>1</valuemax>
										<value>0</value>
									</parameter>
								</effect>
							</filter>
							<sourcetrack>
								<mediatype>audio</mediatype>
								<trackindex>4</trackindex>
							</sourcetrack>
							<link>
								<linkclipref>msub200012-0409d1k1011 35</linkclipref>
								<mediatype>video</mediatype>
								<trackindex>1</trackindex>
								<clipindex>1</clipindex>
							</link>
							<link>
								<linkclipref>msub200012-0409d1k1011 36</linkclipref>
								<mediatype>audio</mediatype>
								<trackindex>1</trackindex>
								<clipindex>1</clipindex>
							</link>
							<link>
								<linkclipref>msub200012-0409d1k1011 37</linkclipref>
								<mediatype>audio</mediatype>
								<trackindex>2</trackindex>
								<clipindex>1</clipindex>
							</link>
							<link>
								<linkclipref>msub200012-0409d1k1011 38</linkclipref>
								<mediatype>audio</mediatype>
								<trackindex>3</trackindex>
								<clipindex>1</clipindex>
							</link>
							<link>
								<linkclipref>msub200012-0409d1k1011 39</linkclipref>
								<mediatype>audio</mediatype>
								<trackindex>4</trackindex>
								<clipindex>1</clipindex>
							</link>
							<link>
								<linkclipref>msub200012-0409d1k1011 40</linkclipref>
								<mediatype>audio</mediatype>
								<trackindex>5</trackindex>
								<clipindex>1</clipindex>
							</link>
							<link>
								<linkclipref>msub200012-0409d1k1011 41</linkclipref>
								<mediatype>audio</mediatype>
								<trackindex>6</trackindex>
								<clipindex>1</clipindex>
							</link>
							<link>
								<linkclipref>msub200012-0409d1k1011 42</linkclipref>
								<mediatype>audio</mediatype>
								<trackindex>7</trackindex>
								<clipindex>1</clipindex>
							</link>
							<link>
								<linkclipref>msub200012-0409d1k1011 43</linkclipref>
								<mediatype>audio</mediatype>
								<trackindex>8</trackindex>
								<clipindex>1</clipindex>
							</link>
						</clipitem>
						<enabled>TRUE</enabled>
						<locked>FALSE</locked>
					</track>
					<track>
						<clipitem id="msub200012-0409d1k1011 40">
							<name>msub200012-0409d1k1011</name>
							<duration>24527</duration>
							<rate>
								<ntsc>FALSE</ntsc>
								<timebase>25</timebase>
							</rate>
							<in>0</in>
							<out>24527</out>
							<start>0</start>
							<end>24527</end>
							<subframeoffset>0</subframeoffset>
							<masterclipid>msub200012-0409d1k1011 1</masterclipid>
							<syncoffset>0</syncoffset>
							<logginginfo>
								<scene/>
								<shottake/>
								<lognote/>
								<good>FALSE</good>
							</logginginfo>
							<labels>
								<label>B Roll</label>
								<label2/>
							</labels>
							<comments>
								<mastercomment1>RÅSTOFF. BR_FINFREDAG_MSUA_OPRO</mastercomment1>
								<mastercomment2/>
								<mastercomment3/>
								<mastercomment4/>
							</comments>
							<file id="msub200012-0409d1k1011 2"/>
							<filter>
								<effect>
									<name>Audio Levels</name>
									<effectid>audiolevels</effectid>
									<effectcategory>audiolevels</effectcategory>
									<effecttype>audiolevels</effecttype>
									<mediatype>audio</mediatype>
									<parameter>
										<name>Level</name>
										<parameterid>level</parameterid>
										<valuemin>0</valuemin>
										<valuemax>3.98109</valuemax>
										<value>1</value>
									</parameter>
								</effect>
							</filter>
							<filter>
								<effect>
									<name>Audio Pan</name>
									<effectid>audiopan</effectid>
									<effectcategory>audiopan</effectcategory>
									<effecttype>audiopan</effecttype>
									<mediatype>audio</mediatype>
									<parameter>
										<name>Pan</name>
										<parameterid>pan</parameterid>
										<valuemin>-1</valuemin>
										<valuemax>1</valuemax>
										<value>0</value>
									</parameter>
								</effect>
							</filter>
							<sourcetrack>
								<mediatype>audio</mediatype>
								<trackindex>5</trackindex>
							</sourcetrack>
							<link>
								<linkclipref>msub200012-0409d1k1011 35</linkclipref>
								<mediatype>video</mediatype>
								<trackindex>1</trackindex>
								<clipindex>1</clipindex>
							</link>
							<link>
								<linkclipref>msub200012-0409d1k1011 36</linkclipref>
								<mediatype>audio</mediatype>
								<trackindex>1</trackindex>
								<clipindex>1</clipindex>
							</link>
							<link>
								<linkclipref>msub200012-0409d1k1011 37</linkclipref>
								<mediatype>audio</mediatype>
								<trackindex>2</trackindex>
								<clipindex>1</clipindex>
							</link>
							<link>
								<linkclipref>msub200012-0409d1k1011 38</linkclipref>
								<mediatype>audio</mediatype>
								<trackindex>3</trackindex>
								<clipindex>1</clipindex>
							</link>
							<link>
								<linkclipref>msub200012-0409d1k1011 39</linkclipref>
								<mediatype>audio</mediatype>
								<trackindex>4</trackindex>
								<clipindex>1</clipindex>
							</link>
							<link>
								<linkclipref>msub200012-0409d1k1011 40</linkclipref>
								<mediatype>audio</mediatype>
								<trackindex>5</trackindex>
								<clipindex>1</clipindex>
							</link>
							<link>
								<linkclipref>msub200012-0409d1k1011 41</linkclipref>
								<mediatype>audio</mediatype>
								<trackindex>6</trackindex>
								<clipindex>1</clipindex>
							</link>
							<link>
								<linkclipref>msub200012-0409d1k1011 42</linkclipref>
								<mediatype>audio</mediatype>
								<trackindex>7</trackindex>
								<clipindex>1</clipindex>
							</link>
							<link>
								<linkclipref>msub200012-0409d1k1011 43</linkclipref>
								<mediatype>audio</mediatype>
								<trackindex>8</trackindex>
								<clipindex>1</clipindex>
							</link>
						</clipitem>
						<enabled>TRUE</enabled>
						<locked>FALSE</locked>
					</track>
					<track>
						<clipitem id="msub200012-0409d1k1011 41">
							<name>msub200012-0409d1k1011</name>
							<duration>24527</duration>
							<rate>
								<ntsc>FALSE</ntsc>
								<timebase>25</timebase>
							</rate>
							<in>0</in>
							<out>24527</out>
							<start>0</start>
							<end>24527</end>
							<subframeoffset>0</subframeoffset>
							<masterclipid>msub200012-0409d1k1011 1</masterclipid>
							<syncoffset>0</syncoffset>
							<logginginfo>
								<scene/>
								<shottake/>
								<lognote/>
								<good>FALSE</good>
							</logginginfo>
							<labels>
								<label>B Roll</label>
								<label2/>
							</labels>
							<comments>
								<mastercomment1>RÅSTOFF. BR_FINFREDAG_MSUA_OPRO</mastercomment1>
								<mastercomment2/>
								<mastercomment3/>
								<mastercomment4/>
							</comments>
							<file id="msub200012-0409d1k1011 2"/>
							<filter>
								<effect>
									<name>Audio Levels</name>
									<effectid>audiolevels</effectid>
									<effectcategory>audiolevels</effectcategory>
									<effecttype>audiolevels</effecttype>
									<mediatype>audio</mediatype>
									<parameter>
										<name>Level</name>
										<parameterid>level</parameterid>
										<valuemin>0</valuemin>
										<valuemax>3.98109</valuemax>
										<value>1</value>
									</parameter>
								</effect>
							</filter>
							<filter>
								<effect>
									<name>Audio Pan</name>
									<effectid>audiopan</effectid>
									<effectcategory>audiopan</effectcategory>
									<effecttype>audiopan</effecttype>
									<mediatype>audio</mediatype>
									<parameter>
										<name>Pan</name>
										<parameterid>pan</parameterid>
										<valuemin>-1</valuemin>
										<valuemax>1</valuemax>
										<value>0</value>
									</parameter>
								</effect>
							</filter>
							<sourcetrack>
								<mediatype>audio</mediatype>
								<trackindex>6</trackindex>
							</sourcetrack>
							<link>
								<linkclipref>msub200012-0409d1k1011 35</linkclipref>
								<mediatype>video</mediatype>
								<trackindex>1</trackindex>
								<clipindex>1</clipindex>
							</link>
							<link>
								<linkclipref>msub200012-0409d1k1011 36</linkclipref>
								<mediatype>audio</mediatype>
								<trackindex>1</trackindex>
								<clipindex>1</clipindex>
							</link>
							<link>
								<linkclipref>msub200012-0409d1k1011 37</linkclipref>
								<mediatype>audio</mediatype>
								<trackindex>2</trackindex>
								<clipindex>1</clipindex>
							</link>
							<link>
								<linkclipref>msub200012-0409d1k1011 38</linkclipref>
								<mediatype>audio</mediatype>
								<trackindex>3</trackindex>
								<clipindex>1</clipindex>
							</link>
							<link>
								<linkclipref>msub200012-0409d1k1011 39</linkclipref>
								<mediatype>audio</mediatype>
								<trackindex>4</trackindex>
								<clipindex>1</clipindex>
							</link>
							<link>
								<linkclipref>msub200012-0409d1k1011 40</linkclipref>
								<mediatype>audio</mediatype>
								<trackindex>5</trackindex>
								<clipindex>1</clipindex>
							</link>
							<link>
								<linkclipref>msub200012-0409d1k1011 41</linkclipref>
								<mediatype>audio</mediatype>
								<trackindex>6</trackindex>
								<clipindex>1</clipindex>
							</link>
							<link>
								<linkclipref>msub200012-0409d1k1011 42</linkclipref>
								<mediatype>audio</mediatype>
								<trackindex>7</trackindex>
								<clipindex>1</clipindex>
							</link>
							<link>
								<linkclipref>msub200012-0409d1k1011 43</linkclipref>
								<mediatype>audio</mediatype>
								<trackindex>8</trackindex>
								<clipindex>1</clipindex>
							</link>
						</clipitem>
						<enabled>TRUE</enabled>
						<locked>FALSE</locked>
					</track>
					<track>
						<clipitem id="msub200012-0409d1k1011 42">
							<name>msub200012-0409d1k1011</name>
							<duration>24527</duration>
							<rate>
								<ntsc>FALSE</ntsc>
								<timebase>25</timebase>
							</rate>
							<in>0</in>
							<out>24527</out>
							<start>0</start>
							<end>24527</end>
							<subframeoffset>0</subframeoffset>
							<masterclipid>msub200012-0409d1k1011 1</masterclipid>
							<syncoffset>0</syncoffset>
							<logginginfo>
								<scene/>
								<shottake/>
								<lognote/>
								<good>FALSE</good>
							</logginginfo>
							<labels>
								<label>B Roll</label>
								<label2/>
							</labels>
							<comments>
								<mastercomment1>RÅSTOFF. BR_FINFREDAG_MSUA_OPRO</mastercomment1>
								<mastercomment2/>
								<mastercomment3/>
								<mastercomment4/>
							</comments>
							<file id="msub200012-0409d1k1011 2"/>
							<filter>
								<effect>
									<name>Audio Levels</name>
									<effectid>audiolevels</effectid>
									<effectcategory>audiolevels</effectcategory>
									<effecttype>audiolevels</effecttype>
									<mediatype>audio</mediatype>
									<parameter>
										<name>Level</name>
										<parameterid>level</parameterid>
										<valuemin>0</valuemin>
										<valuemax>3.98109</valuemax>
										<value>1</value>
									</parameter>
								</effect>
							</filter>
							<filter>
								<effect>
									<name>Audio Pan</name>
									<effectid>audiopan</effectid>
									<effectcategory>audiopan</effectcategory>
									<effecttype>audiopan</effecttype>
									<mediatype>audio</mediatype>
									<parameter>
										<name>Pan</name>
										<parameterid>pan</parameterid>
										<valuemin>-1</valuemin>
										<valuemax>1</valuemax>
										<value>0</value>
									</parameter>
								</effect>
							</filter>
							<sourcetrack>
								<mediatype>audio</mediatype>
								<trackindex>7</trackindex>
							</sourcetrack>
							<link>
								<linkclipref>msub200012-0409d1k1011 35</linkclipref>
								<mediatype>video</mediatype>
								<trackindex>1</trackindex>
								<clipindex>1</clipindex>
							</link>
							<link>
								<linkclipref>msub200012-0409d1k1011 36</linkclipref>
								<mediatype>audio</mediatype>
								<trackindex>1</trackindex>
								<clipindex>1</clipindex>
							</link>
							<link>
								<linkclipref>msub200012-0409d1k1011 37</linkclipref>
								<mediatype>audio</mediatype>
								<trackindex>2</trackindex>
								<clipindex>1</clipindex>
							</link>
							<link>
								<linkclipref>msub200012-0409d1k1011 38</linkclipref>
								<mediatype>audio</mediatype>
								<trackindex>3</trackindex>
								<clipindex>1</clipindex>
							</link>
							<link>
								<linkclipref>msub200012-0409d1k1011 39</linkclipref>
								<mediatype>audio</mediatype>
								<trackindex>4</trackindex>
								<clipindex>1</clipindex>
							</link>
							<link>
								<linkclipref>msub200012-0409d1k1011 40</linkclipref>
								<mediatype>audio</mediatype>
								<trackindex>5</trackindex>
								<clipindex>1</clipindex>
							</link>
							<link>
								<linkclipref>msub200012-0409d1k1011 41</linkclipref>
								<mediatype>audio</mediatype>
								<trackindex>6</trackindex>
								<clipindex>1</clipindex>
							</link>
							<link>
								<linkclipref>msub200012-0409d1k1011 42</linkclipref>
								<mediatype>audio</mediatype>
								<trackindex>7</trackindex>
								<clipindex>1</clipindex>
							</link>
							<link>
								<linkclipref>msub200012-0409d1k1011 43</linkclipref>
								<mediatype>audio</mediatype>
								<trackindex>8</trackindex>
								<clipindex>1</clipindex>
							</link>
						</clipitem>
						<enabled>TRUE</enabled>
						<locked>FALSE</locked>
					</track>
					<track>
						<clipitem id="msub200012-0409d1k1011 43">
							<name>msub200012-0409d1k1011</name>
							<duration>24527</duration>
							<rate>
								<ntsc>FALSE</ntsc>
								<timebase>25</timebase>
							</rate>
							<in>0</in>
							<out>24527</out>
							<start>0</start>
							<end>24527</end>
							<subframeoffset>0</subframeoffset>
							<masterclipid>msub200012-0409d1k1011 1</masterclipid>
							<syncoffset>0</syncoffset>
							<logginginfo>
								<scene/>
								<shottake/>
								<lognote/>
								<good>FALSE</good>
							</logginginfo>
							<labels>
								<label>B Roll</label>
								<label2/>
							</labels>
							<comments>
								<mastercomment1>RÅSTOFF. BR_FINFREDAG_MSUA_OPRO</mastercomment1>
								<mastercomment2/>
								<mastercomment3/>
								<mastercomment4/>
							</comments>
							<file id="msub200012-0409d1k1011 2"/>
							<filter>
								<effect>
									<name>Audio Levels</name>
									<effectid>audiolevels</effectid>
									<effectcategory>audiolevels</effectcategory>
									<effecttype>audiolevels</effecttype>
									<mediatype>audio</mediatype>
									<parameter>
										<name>Level</name>
										<parameterid>level</parameterid>
										<valuemin>0</valuemin>
										<valuemax>3.98109</valuemax>
										<value>1</value>
									</parameter>
								</effect>
							</filter>
							<filter>
								<effect>
									<name>Audio Pan</name>
									<effectid>audiopan</effectid>
									<effectcategory>audiopan</effectcategory>
									<effecttype>audiopan</effecttype>
									<mediatype>audio</mediatype>
									<parameter>
										<name>Pan</name>
										<parameterid>pan</parameterid>
										<valuemin>-1</valuemin>
										<valuemax>1</valuemax>
										<value>0</value>
									</parameter>
								</effect>
							</filter>
							<sourcetrack>
								<mediatype>audio</mediatype>
								<trackindex>8</trackindex>
							</sourcetrack>
							<link>
								<linkclipref>msub200012-0409d1k1011 35</linkclipref>
								<mediatype>video</mediatype>
								<trackindex>1</trackindex>
								<clipindex>1</clipindex>
							</link>
							<link>
								<linkclipref>msub200012-0409d1k1011 36</linkclipref>
								<mediatype>audio</mediatype>
								<trackindex>1</trackindex>
								<clipindex>1</clipindex>
							</link>
							<link>
								<linkclipref>msub200012-0409d1k1011 37</linkclipref>
								<mediatype>audio</mediatype>
								<trackindex>2</trackindex>
								<clipindex>1</clipindex>
							</link>
							<link>
								<linkclipref>msub200012-0409d1k1011 38</linkclipref>
								<mediatype>audio</mediatype>
								<trackindex>3</trackindex>
								<clipindex>1</clipindex>
							</link>
							<link>
								<linkclipref>msub200012-0409d1k1011 39</linkclipref>
								<mediatype>audio</mediatype>
								<trackindex>4</trackindex>
								<clipindex>1</clipindex>
							</link>
							<link>
								<linkclipref>msub200012-0409d1k1011 40</linkclipref>
								<mediatype>audio</mediatype>
								<trackindex>5</trackindex>
								<clipindex>1</clipindex>
							</link>
							<link>
								<linkclipref>msub200012-0409d1k1011 41</linkclipref>
								<mediatype>audio</mediatype>
								<trackindex>6</trackindex>
								<clipindex>1</clipindex>
							</link>
							<link>
								<linkclipref>msub200012-0409d1k1011 42</linkclipref>
								<mediatype>audio</mediatype>
								<trackindex>7</trackindex>
								<clipindex>1</clipindex>
							</link>
							<link>
								<linkclipref>msub200012-0409d1k1011 43</linkclipref>
								<mediatype>audio</mediatype>
								<trackindex>8</trackindex>
								<clipindex>1</clipindex>
							</link>
						</clipitem>
						<enabled>TRUE</enabled>
						<locked>FALSE</locked>
					</track>
				</audio>
			</media>
		</clip>
		<clip id="msub200012-0409d1k1009 8">
			<name>msub200012-0409d1k1009</name>
			<duration>6330</duration>
			<rate>
				<ntsc>FALSE</ntsc>
				<timebase>25</timebase>
			</rate>
			<in>1818</in>
			<out>6200</out>
			<masterclipid>msub200012-0409d1k1009 1</masterclipid>
			<ismasterclip>FALSE</ismasterclip>
			<logginginfo>
				<description>msub200012-0409d1k1009</description>
				<scene/>
				<shottake/>
				<lognote/>
				<good>FALSE</good>
			</logginginfo>
			<labels>
				<label>Interviews</label>
				<label2/>
			</labels>
			<comments>
				<mastercomment1>RÅSTOFF. BR_FINFREDAG_MSUA_OPRO</mastercomment1>
				<mastercomment2/>
				<mastercomment3/>
				<mastercomment4/>
			</comments>
			<media>
				<video>
					<track>
						<clipitem id="msub200012-0409d1k1009 9">
							<name>msub200012-0409d1k1009</name>
							<duration>6330</duration>
							<rate>
								<ntsc>FALSE</ntsc>
								<timebase>25</timebase>
							</rate>
							<in>0</in>
							<out>6330</out>
							<start>0</start>
							<end>6330</end>
							<pixelaspectratio>Square</pixelaspectratio>
							<anamorphic>FALSE</anamorphic>
							<alphatype>none</alphatype>
							<masterclipid>msub200012-0409d1k1009 1</masterclipid>
							<syncoffset>0</syncoffset>
							<logginginfo>
								<scene/>
								<shottake/>
								<lognote/>
								<good>FALSE</good>
							</logginginfo>
							<labels>
								<label>Interviews</label>
								<label2/>
							</labels>
							<comments>
								<mastercomment1>RÅSTOFF. BR_FINFREDAG_MSUA_OPRO</mastercomment1>
								<mastercomment2/>
								<mastercomment3/>
								<mastercomment4/>
							</comments>
							<file id="msub200012-0409d1k1009 2"/>
							<sourcetrack>
								<mediatype>video</mediatype>
							</sourcetrack>
							<link>
								<linkclipref>msub200012-0409d1k1009 9</linkclipref>
								<mediatype>video</mediatype>
								<trackindex>1</trackindex>
								<clipindex>1</clipindex>
							</link>
							<link>
								<linkclipref>msub200012-0409d1k1009 10</linkclipref>
								<mediatype>audio</mediatype>
								<trackindex>1</trackindex>
								<clipindex>1</clipindex>
							</link>
							<link>
								<linkclipref>msub200012-0409d1k1009 11</linkclipref>
								<mediatype>audio</mediatype>
								<trackindex>2</trackindex>
								<clipindex>1</clipindex>
							</link>
							<link>
								<linkclipref>msub200012-0409d1k1009 12</linkclipref>
								<mediatype>audio</mediatype>
								<trackindex>3</trackindex>
								<clipindex>1</clipindex>
							</link>
							<link>
								<linkclipref>msub200012-0409d1k1009 13</linkclipref>
								<mediatype>audio</mediatype>
								<trackindex>4</trackindex>
								<clipindex>1</clipindex>
							</link>
							<link>
								<linkclipref>msub200012-0409d1k1009 14</linkclipref>
								<mediatype>audio</mediatype>
								<trackindex>5</trackindex>
								<clipindex>1</clipindex>
							</link>
							<link>
								<linkclipref>msub200012-0409d1k1009 15</linkclipref>
								<mediatype>audio</mediatype>
								<trackindex>6</trackindex>
								<clipindex>1</clipindex>
							</link>
							<link>
								<linkclipref>msub200012-0409d1k1009 16</linkclipref>
								<mediatype>audio</mediatype>
								<trackindex>7</trackindex>
								<clipindex>1</clipindex>
							</link>
							<link>
								<linkclipref>msub200012-0409d1k1009 17</linkclipref>
								<mediatype>audio</mediatype>
								<trackindex>8</trackindex>
								<clipindex>1</clipindex>
							</link>
							<fielddominance>upper</fielddominance>
						</clipitem>
						<enabled>TRUE</enabled>
						<locked>FALSE</locked>
					</track>
				</video>
				<audio>
					<in>1818</in>
					<out>6200</out>
					<track>
						<clipitem id="msub200012-0409d1k1009 10">
							<name>msub200012-0409d1k1009</name>
							<duration>6330</duration>
							<rate>
								<ntsc>FALSE</ntsc>
								<timebase>25</timebase>
							</rate>
							<in>0</in>
							<out>6330</out>
							<start>0</start>
							<end>6330</end>
							<subframeoffset>0</subframeoffset>
							<masterclipid>msub200012-0409d1k1009 1</masterclipid>
							<syncoffset>0</syncoffset>
							<logginginfo>
								<scene/>
								<shottake/>
								<lognote/>
								<good>FALSE</good>
							</logginginfo>
							<labels>
								<label>Interviews</label>
								<label2/>
							</labels>
							<comments>
								<mastercomment1>RÅSTOFF. BR_FINFREDAG_MSUA_OPRO</mastercomment1>
								<mastercomment2/>
								<mastercomment3/>
								<mastercomment4/>
							</comments>
							<file id="msub200012-0409d1k1009 2"/>
							<filter>
								<effect>
									<name>Audio Levels</name>
									<effectid>audiolevels</effectid>
									<effectcategory>audiolevels</effectcategory>
									<effecttype>audiolevels</effecttype>
									<mediatype>audio</mediatype>
									<parameter>
										<name>Level</name>
										<parameterid>level</parameterid>
										<valuemin>0</valuemin>
										<valuemax>3.98109</valuemax>
										<value>1</value>
									</parameter>
								</effect>
							</filter>
							<filter>
								<effect>
									<name>Audio Pan</name>
									<effectid>audiopan</effectid>
									<effectcategory>audiopan</effectcategory>
									<effecttype>audiopan</effecttype>
									<mediatype>audio</mediatype>
									<parameter>
										<name>Pan</name>
										<parameterid>pan</parameterid>
										<valuemin>-1</valuemin>
										<valuemax>1</valuemax>
										<value>0</value>
									</parameter>
								</effect>
							</filter>
							<sourcetrack>
								<mediatype>audio</mediatype>
								<trackindex>1</trackindex>
							</sourcetrack>
							<link>
								<linkclipref>msub200012-0409d1k1009 9</linkclipref>
								<mediatype>video</mediatype>
								<trackindex>1</trackindex>
								<clipindex>1</clipindex>
							</link>
							<link>
								<linkclipref>msub200012-0409d1k1009 10</linkclipref>
								<mediatype>audio</mediatype>
								<trackindex>1</trackindex>
								<clipindex>1</clipindex>
							</link>
							<link>
								<linkclipref>msub200012-0409d1k1009 11</linkclipref>
								<mediatype>audio</mediatype>
								<trackindex>2</trackindex>
								<clipindex>1</clipindex>
							</link>
							<link>
								<linkclipref>msub200012-0409d1k1009 12</linkclipref>
								<mediatype>audio</mediatype>
								<trackindex>3</trackindex>
								<clipindex>1</clipindex>
							</link>
							<link>
								<linkclipref>msub200012-0409d1k1009 13</linkclipref>
								<mediatype>audio</mediatype>
								<trackindex>4</trackindex>
								<clipindex>1</clipindex>
							</link>
							<link>
								<linkclipref>msub200012-0409d1k1009 14</linkclipref>
								<mediatype>audio</mediatype>
								<trackindex>5</trackindex>
								<clipindex>1</clipindex>
							</link>
							<link>
								<linkclipref>msub200012-0409d1k1009 15</linkclipref>
								<mediatype>audio</mediatype>
								<trackindex>6</trackindex>
								<clipindex>1</clipindex>
							</link>
							<link>
								<linkclipref>msub200012-0409d1k1009 16</linkclipref>
								<mediatype>audio</mediatype>
								<trackindex>7</trackindex>
								<clipindex>1</clipindex>
							</link>
							<link>
								<linkclipref>msub200012-0409d1k1009 17</linkclipref>
								<mediatype>audio</mediatype>
								<trackindex>8</trackindex>
								<clipindex>1</clipindex>
							</link>
						</clipitem>
						<enabled>TRUE</enabled>
						<locked>FALSE</locked>
					</track>
					<track>
						<clipitem id="msub200012-0409d1k1009 11">
							<name>msub200012-0409d1k1009</name>
							<duration>6330</duration>
							<rate>
								<ntsc>FALSE</ntsc>
								<timebase>25</timebase>
							</rate>
							<in>0</in>
							<out>6330</out>
							<start>0</start>
							<end>6330</end>
							<subframeoffset>0</subframeoffset>
							<masterclipid>msub200012-0409d1k1009 1</masterclipid>
							<syncoffset>0</syncoffset>
							<logginginfo>
								<scene/>
								<shottake/>
								<lognote/>
								<good>FALSE</good>
							</logginginfo>
							<labels>
								<label>Interviews</label>
								<label2/>
							</labels>
							<comments>
								<mastercomment1>RÅSTOFF. BR_FINFREDAG_MSUA_OPRO</mastercomment1>
								<mastercomment2/>
								<mastercomment3/>
								<mastercomment4/>
							</comments>
							<file id="msub200012-0409d1k1009 2"/>
							<filter>
								<effect>
									<name>Audio Levels</name>
									<effectid>audiolevels</effectid>
									<effectcategory>audiolevels</effectcategory>
									<effecttype>audiolevels</effecttype>
									<mediatype>audio</mediatype>
									<parameter>
										<name>Level</name>
										<parameterid>level</parameterid>
										<valuemin>0</valuemin>
										<valuemax>3.98109</valuemax>
										<value>1</value>
									</parameter>
								</effect>
							</filter>
							<filter>
								<effect>
									<name>Audio Pan</name>
									<effectid>audiopan</effectid>
									<effectcategory>audiopan</effectcategory>
									<effecttype>audiopan</effecttype>
									<mediatype>audio</mediatype>
									<parameter>
										<name>Pan</name>
										<parameterid>pan</parameterid>
										<valuemin>-1</valuemin>
										<valuemax>1</valuemax>
										<value>0</value>
									</parameter>
								</effect>
							</filter>
							<sourcetrack>
								<mediatype>audio</mediatype>
								<trackindex>2</trackindex>
							</sourcetrack>
							<link>
								<linkclipref>msub200012-0409d1k1009 9</linkclipref>
								<mediatype>video</mediatype>
								<trackindex>1</trackindex>
								<clipindex>1</clipindex>
							</link>
							<link>
								<linkclipref>msub200012-0409d1k1009 10</linkclipref>
								<mediatype>audio</mediatype>
								<trackindex>1</trackindex>
								<clipindex>1</clipindex>
							</link>
							<link>
								<linkclipref>msub200012-0409d1k1009 11</linkclipref>
								<mediatype>audio</mediatype>
								<trackindex>2</trackindex>
								<clipindex>1</clipindex>
							</link>
							<link>
								<linkclipref>msub200012-0409d1k1009 12</linkclipref>
								<mediatype>audio</mediatype>
								<trackindex>3</trackindex>
								<clipindex>1</clipindex>
							</link>
							<link>
								<linkclipref>msub200012-0409d1k1009 13</linkclipref>
								<mediatype>audio</mediatype>
								<trackindex>4</trackindex>
								<clipindex>1</clipindex>
							</link>
							<link>
								<linkclipref>msub200012-0409d1k1009 14</linkclipref>
								<mediatype>audio</mediatype>
								<trackindex>5</trackindex>
								<clipindex>1</clipindex>
							</link>
							<link>
								<linkclipref>msub200012-0409d1k1009 15</linkclipref>
								<mediatype>audio</mediatype>
								<trackindex>6</trackindex>
								<clipindex>1</clipindex>
							</link>
							<link>
								<linkclipref>msub200012-0409d1k1009 16</linkclipref>
								<mediatype>audio</mediatype>
								<trackindex>7</trackindex>
								<clipindex>1</clipindex>
							</link>
							<link>
								<linkclipref>msub200012-0409d1k1009 17</linkclipref>
								<mediatype>audio</mediatype>
								<trackindex>8</trackindex>
								<clipindex>1</clipindex>
							</link>
						</clipitem>
						<enabled>TRUE</enabled>
						<locked>FALSE</locked>
					</track>
					<track>
						<clipitem id="msub200012-0409d1k1009 12">
							<name>msub200012-0409d1k1009</name>
							<duration>6330</duration>
							<rate>
								<ntsc>FALSE</ntsc>
								<timebase>25</timebase>
							</rate>
							<in>0</in>
							<out>6330</out>
							<start>0</start>
							<end>6330</end>
							<subframeoffset>0</subframeoffset>
							<masterclipid>msub200012-0409d1k1009 1</masterclipid>
							<syncoffset>0</syncoffset>
							<logginginfo>
								<scene/>
								<shottake/>
								<lognote/>
								<good>FALSE</good>
							</logginginfo>
							<labels>
								<label>Interviews</label>
								<label2/>
							</labels>
							<comments>
								<mastercomment1>RÅSTOFF. BR_FINFREDAG_MSUA_OPRO</mastercomment1>
								<mastercomment2/>
								<mastercomment3/>
								<mastercomment4/>
							</comments>
							<file id="msub200012-0409d1k1009 2"/>
							<filter>
								<effect>
									<name>Audio Levels</name>
									<effectid>audiolevels</effectid>
									<effectcategory>audiolevels</effectcategory>
									<effecttype>audiolevels</effecttype>
									<mediatype>audio</mediatype>
									<parameter>
										<name>Level</name>
										<parameterid>level</parameterid>
										<valuemin>0</valuemin>
										<valuemax>3.98109</valuemax>
										<value>1</value>
									</parameter>
								</effect>
							</filter>
							<filter>
								<effect>
									<name>Audio Pan</name>
									<effectid>audiopan</effectid>
									<effectcategory>audiopan</effectcategory>
									<effecttype>audiopan</effecttype>
									<mediatype>audio</mediatype>
									<parameter>
										<name>Pan</name>
										<parameterid>pan</parameterid>
										<valuemin>-1</valuemin>
										<valuemax>1</valuemax>
										<value>0</value>
									</parameter>
								</effect>
							</filter>
							<sourcetrack>
								<mediatype>audio</mediatype>
								<trackindex>3</trackindex>
							</sourcetrack>
							<link>
								<linkclipref>msub200012-0409d1k1009 9</linkclipref>
								<mediatype>video</mediatype>
								<trackindex>1</trackindex>
								<clipindex>1</clipindex>
							</link>
							<link>
								<linkclipref>msub200012-0409d1k1009 10</linkclipref>
								<mediatype>audio</mediatype>
								<trackindex>1</trackindex>
								<clipindex>1</clipindex>
							</link>
							<link>
								<linkclipref>msub200012-0409d1k1009 11</linkclipref>
								<mediatype>audio</mediatype>
								<trackindex>2</trackindex>
								<clipindex>1</clipindex>
							</link>
							<link>
								<linkclipref>msub200012-0409d1k1009 12</linkclipref>
								<mediatype>audio</mediatype>
								<trackindex>3</trackindex>
								<clipindex>1</clipindex>
							</link>
							<link>
								<linkclipref>msub200012-0409d1k1009 13</linkclipref>
								<mediatype>audio</mediatype>
								<trackindex>4</trackindex>
								<clipindex>1</clipindex>
							</link>
							<link>
								<linkclipref>msub200012-0409d1k1009 14</linkclipref>
								<mediatype>audio</mediatype>
								<trackindex>5</trackindex>
								<clipindex>1</clipindex>
							</link>
							<link>
								<linkclipref>msub200012-0409d1k1009 15</linkclipref>
								<mediatype>audio</mediatype>
								<trackindex>6</trackindex>
								<clipindex>1</clipindex>
							</link>
							<link>
								<linkclipref>msub200012-0409d1k1009 16</linkclipref>
								<mediatype>audio</mediatype>
								<trackindex>7</trackindex>
								<clipindex>1</clipindex>
							</link>
							<link>
								<linkclipref>msub200012-0409d1k1009 17</linkclipref>
								<mediatype>audio</mediatype>
								<trackindex>8</trackindex>
								<clipindex>1</clipindex>
							</link>
						</clipitem>
						<enabled>TRUE</enabled>
						<locked>FALSE</locked>
					</track>
					<track>
						<clipitem id="msub200012-0409d1k1009 13">
							<name>msub200012-0409d1k1009</name>
							<duration>6330</duration>
							<rate>
								<ntsc>FALSE</ntsc>
								<timebase>25</timebase>
							</rate>
							<in>0</in>
							<out>6330</out>
							<start>0</start>
							<end>6330</end>
							<subframeoffset>0</subframeoffset>
							<masterclipid>msub200012-0409d1k1009 1</masterclipid>
							<syncoffset>0</syncoffset>
							<logginginfo>
								<scene/>
								<shottake/>
								<lognote/>
								<good>FALSE</good>
							</logginginfo>
							<labels>
								<label>Interviews</label>
								<label2/>
							</labels>
							<comments>
								<mastercomment1>RÅSTOFF. BR_FINFREDAG_MSUA_OPRO</mastercomment1>
								<mastercomment2/>
								<mastercomment3/>
								<mastercomment4/>
							</comments>
							<file id="msub200012-0409d1k1009 2"/>
							<filter>
								<effect>
									<name>Audio Levels</name>
									<effectid>audiolevels</effectid>
									<effectcategory>audiolevels</effectcategory>
									<effecttype>audiolevels</effecttype>
									<mediatype>audio</mediatype>
									<parameter>
										<name>Level</name>
										<parameterid>level</parameterid>
										<valuemin>0</valuemin>
										<valuemax>3.98109</valuemax>
										<value>1</value>
									</parameter>
								</effect>
							</filter>
							<filter>
								<effect>
									<name>Audio Pan</name>
									<effectid>audiopan</effectid>
									<effectcategory>audiopan</effectcategory>
									<effecttype>audiopan</effecttype>
									<mediatype>audio</mediatype>
									<parameter>
										<name>Pan</name>
										<parameterid>pan</parameterid>
										<valuemin>-1</valuemin>
										<valuemax>1</valuemax>
										<value>0</value>
									</parameter>
								</effect>
							</filter>
							<sourcetrack>
								<mediatype>audio</mediatype>
								<trackindex>4</trackindex>
							</sourcetrack>
							<link>
								<linkclipref>msub200012-0409d1k1009 9</linkclipref>
								<mediatype>video</mediatype>
								<trackindex>1</trackindex>
								<clipindex>1</clipindex>
							</link>
							<link>
								<linkclipref>msub200012-0409d1k1009 10</linkclipref>
								<mediatype>audio</mediatype>
								<trackindex>1</trackindex>
								<clipindex>1</clipindex>
							</link>
							<link>
								<linkclipref>msub200012-0409d1k1009 11</linkclipref>
								<mediatype>audio</mediatype>
								<trackindex>2</trackindex>
								<clipindex>1</clipindex>
							</link>
							<link>
								<linkclipref>msub200012-0409d1k1009 12</linkclipref>
								<mediatype>audio</mediatype>
								<trackindex>3</trackindex>
								<clipindex>1</clipindex>
							</link>
							<link>
								<linkclipref>msub200012-0409d1k1009 13</linkclipref>
								<mediatype>audio</mediatype>
								<trackindex>4</trackindex>
								<clipindex>1</clipindex>
							</link>
							<link>
								<linkclipref>msub200012-0409d1k1009 14</linkclipref>
								<mediatype>audio</mediatype>
								<trackindex>5</trackindex>
								<clipindex>1</clipindex>
							</link>
							<link>
								<linkclipref>msub200012-0409d1k1009 15</linkclipref>
								<mediatype>audio</mediatype>
								<trackindex>6</trackindex>
								<clipindex>1</clipindex>
							</link>
							<link>
								<linkclipref>msub200012-0409d1k1009 16</linkclipref>
								<mediatype>audio</mediatype>
								<trackindex>7</trackindex>
								<clipindex>1</clipindex>
							</link>
							<link>
								<linkclipref>msub200012-0409d1k1009 17</linkclipref>
								<mediatype>audio</mediatype>
								<trackindex>8</trackindex>
								<clipindex>1</clipindex>
							</link>
						</clipitem>
						<enabled>TRUE</enabled>
						<locked>FALSE</locked>
					</track>
					<track>
						<clipitem id="msub200012-0409d1k1009 14">
							<name>msub200012-0409d1k1009</name>
							<duration>6330</duration>
							<rate>
								<ntsc>FALSE</ntsc>
								<timebase>25</timebase>
							</rate>
							<in>0</in>
							<out>6330</out>
							<start>0</start>
							<end>6330</end>
							<subframeoffset>0</subframeoffset>
							<masterclipid>msub200012-0409d1k1009 1</masterclipid>
							<syncoffset>0</syncoffset>
							<logginginfo>
								<scene/>
								<shottake/>
								<lognote/>
								<good>FALSE</good>
							</logginginfo>
							<labels>
								<label>Interviews</label>
								<label2/>
							</labels>
							<comments>
								<mastercomment1>RÅSTOFF. BR_FINFREDAG_MSUA_OPRO</mastercomment1>
								<mastercomment2/>
								<mastercomment3/>
								<mastercomment4/>
							</comments>
							<file id="msub200012-0409d1k1009 2"/>
							<filter>
								<effect>
									<name>Audio Levels</name>
									<effectid>audiolevels</effectid>
									<effectcategory>audiolevels</effectcategory>
									<effecttype>audiolevels</effecttype>
									<mediatype>audio</mediatype>
									<parameter>
										<name>Level</name>
										<parameterid>level</parameterid>
										<valuemin>0</valuemin>
										<valuemax>3.98109</valuemax>
										<value>1</value>
									</parameter>
								</effect>
							</filter>
							<filter>
								<effect>
									<name>Audio Pan</name>
									<effectid>audiopan</effectid>
									<effectcategory>audiopan</effectcategory>
									<effecttype>audiopan</effecttype>
									<mediatype>audio</mediatype>
									<parameter>
										<name>Pan</name>
										<parameterid>pan</parameterid>
										<valuemin>-1</valuemin>
										<valuemax>1</valuemax>
										<value>0</value>
									</parameter>
								</effect>
							</filter>
							<sourcetrack>
								<mediatype>audio</mediatype>
								<trackindex>5</trackindex>
							</sourcetrack>
							<link>
								<linkclipref>msub200012-0409d1k1009 9</linkclipref>
								<mediatype>video</mediatype>
								<trackindex>1</trackindex>
								<clipindex>1</clipindex>
							</link>
							<link>
								<linkclipref>msub200012-0409d1k1009 10</linkclipref>
								<mediatype>audio</mediatype>
								<trackindex>1</trackindex>
								<clipindex>1</clipindex>
							</link>
							<link>
								<linkclipref>msub200012-0409d1k1009 11</linkclipref>
								<mediatype>audio</mediatype>
								<trackindex>2</trackindex>
								<clipindex>1</clipindex>
							</link>
							<link>
								<linkclipref>msub200012-0409d1k1009 12</linkclipref>
								<mediatype>audio</mediatype>
								<trackindex>3</trackindex>
								<clipindex>1</clipindex>
							</link>
							<link>
								<linkclipref>msub200012-0409d1k1009 13</linkclipref>
								<mediatype>audio</mediatype>
								<trackindex>4</trackindex>
								<clipindex>1</clipindex>
							</link>
							<link>
								<linkclipref>msub200012-0409d1k1009 14</linkclipref>
								<mediatype>audio</mediatype>
								<trackindex>5</trackindex>
								<clipindex>1</clipindex>
							</link>
							<link>
								<linkclipref>msub200012-0409d1k1009 15</linkclipref>
								<mediatype>audio</mediatype>
								<trackindex>6</trackindex>
								<clipindex>1</clipindex>
							</link>
							<link>
								<linkclipref>msub200012-0409d1k1009 16</linkclipref>
								<mediatype>audio</mediatype>
								<trackindex>7</trackindex>
								<clipindex>1</clipindex>
							</link>
							<link>
								<linkclipref>msub200012-0409d1k1009 17</linkclipref>
								<mediatype>audio</mediatype>
								<trackindex>8</trackindex>
								<clipindex>1</clipindex>
							</link>
						</clipitem>
						<enabled>TRUE</enabled>
						<locked>FALSE</locked>
					</track>
					<track>
						<clipitem id="msub200012-0409d1k1009 15">
							<name>msub200012-0409d1k1009</name>
							<duration>6330</duration>
							<rate>
								<ntsc>FALSE</ntsc>
								<timebase>25</timebase>
							</rate>
							<in>0</in>
							<out>6330</out>
							<start>0</start>
							<end>6330</end>
							<subframeoffset>0</subframeoffset>
							<masterclipid>msub200012-0409d1k1009 1</masterclipid>
							<syncoffset>0</syncoffset>
							<logginginfo>
								<scene/>
								<shottake/>
								<lognote/>
								<good>FALSE</good>
							</logginginfo>
							<labels>
								<label>Interviews</label>
								<label2/>
							</labels>
							<comments>
								<mastercomment1>RÅSTOFF. BR_FINFREDAG_MSUA_OPRO</mastercomment1>
								<mastercomment2/>
								<mastercomment3/>
								<mastercomment4/>
							</comments>
							<file id="msub200012-0409d1k1009 2"/>
							<filter>
								<effect>
									<name>Audio Levels</name>
									<effectid>audiolevels</effectid>
									<effectcategory>audiolevels</effectcategory>
									<effecttype>audiolevels</effecttype>
									<mediatype>audio</mediatype>
									<parameter>
										<name>Level</name>
										<parameterid>level</parameterid>
										<valuemin>0</valuemin>
										<valuemax>3.98109</valuemax>
										<value>1</value>
									</parameter>
								</effect>
							</filter>
							<filter>
								<effect>
									<name>Audio Pan</name>
									<effectid>audiopan</effectid>
									<effectcategory>audiopan</effectcategory>
									<effecttype>audiopan</effecttype>
									<mediatype>audio</mediatype>
									<parameter>
										<name>Pan</name>
										<parameterid>pan</parameterid>
										<valuemin>-1</valuemin>
										<valuemax>1</valuemax>
										<value>0</value>
									</parameter>
								</effect>
							</filter>
							<sourcetrack>
								<mediatype>audio</mediatype>
								<trackindex>6</trackindex>
							</sourcetrack>
							<link>
								<linkclipref>msub200012-0409d1k1009 9</linkclipref>
								<mediatype>video</mediatype>
								<trackindex>1</trackindex>
								<clipindex>1</clipindex>
							</link>
							<link>
								<linkclipref>msub200012-0409d1k1009 10</linkclipref>
								<mediatype>audio</mediatype>
								<trackindex>1</trackindex>
								<clipindex>1</clipindex>
							</link>
							<link>
								<linkclipref>msub200012-0409d1k1009 11</linkclipref>
								<mediatype>audio</mediatype>
								<trackindex>2</trackindex>
								<clipindex>1</clipindex>
							</link>
							<link>
								<linkclipref>msub200012-0409d1k1009 12</linkclipref>
								<mediatype>audio</mediatype>
								<trackindex>3</trackindex>
								<clipindex>1</clipindex>
							</link>
							<link>
								<linkclipref>msub200012-0409d1k1009 13</linkclipref>
								<mediatype>audio</mediatype>
								<trackindex>4</trackindex>
								<clipindex>1</clipindex>
							</link>
							<link>
								<linkclipref>msub200012-0409d1k1009 14</linkclipref>
								<mediatype>audio</mediatype>
								<trackindex>5</trackindex>
								<clipindex>1</clipindex>
							</link>
							<link>
								<linkclipref>msub200012-0409d1k1009 15</linkclipref>
								<mediatype>audio</mediatype>
								<trackindex>6</trackindex>
								<clipindex>1</clipindex>
							</link>
							<link>
								<linkclipref>msub200012-0409d1k1009 16</linkclipref>
								<mediatype>audio</mediatype>
								<trackindex>7</trackindex>
								<clipindex>1</clipindex>
							</link>
							<link>
								<linkclipref>msub200012-0409d1k1009 17</linkclipref>
								<mediatype>audio</mediatype>
								<trackindex>8</trackindex>
								<clipindex>1</clipindex>
							</link>
						</clipitem>
						<enabled>TRUE</enabled>
						<locked>FALSE</locked>
					</track>
					<track>
						<clipitem id="msub200012-0409d1k1009 16">
							<name>msub200012-0409d1k1009</name>
							<duration>6330</duration>
							<rate>
								<ntsc>FALSE</ntsc>
								<timebase>25</timebase>
							</rate>
							<in>0</in>
							<out>6330</out>
							<start>0</start>
							<end>6330</end>
							<subframeoffset>0</subframeoffset>
							<masterclipid>msub200012-0409d1k1009 1</masterclipid>
							<syncoffset>0</syncoffset>
							<logginginfo>
								<scene/>
								<shottake/>
								<lognote/>
								<good>FALSE</good>
							</logginginfo>
							<labels>
								<label>Interviews</label>
								<label2/>
							</labels>
							<comments>
								<mastercomment1>RÅSTOFF. BR_FINFREDAG_MSUA_OPRO</mastercomment1>
								<mastercomment2/>
								<mastercomment3/>
								<mastercomment4/>
							</comments>
							<file id="msub200012-0409d1k1009 2"/>
							<filter>
								<effect>
									<name>Audio Levels</name>
									<effectid>audiolevels</effectid>
									<effectcategory>audiolevels</effectcategory>
									<effecttype>audiolevels</effecttype>
									<mediatype>audio</mediatype>
									<parameter>
										<name>Level</name>
										<parameterid>level</parameterid>
										<valuemin>0</valuemin>
										<valuemax>3.98109</valuemax>
										<value>1</value>
									</parameter>
								</effect>
							</filter>
							<filter>
								<effect>
									<name>Audio Pan</name>
									<effectid>audiopan</effectid>
									<effectcategory>audiopan</effectcategory>
									<effecttype>audiopan</effecttype>
									<mediatype>audio</mediatype>
									<parameter>
										<name>Pan</name>
										<parameterid>pan</parameterid>
										<valuemin>-1</valuemin>
										<valuemax>1</valuemax>
										<value>0</value>
									</parameter>
								</effect>
							</filter>
							<sourcetrack>
								<mediatype>audio</mediatype>
								<trackindex>7</trackindex>
							</sourcetrack>
							<link>
								<linkclipref>msub200012-0409d1k1009 9</linkclipref>
								<mediatype>video</mediatype>
								<trackindex>1</trackindex>
								<clipindex>1</clipindex>
							</link>
							<link>
								<linkclipref>msub200012-0409d1k1009 10</linkclipref>
								<mediatype>audio</mediatype>
								<trackindex>1</trackindex>
								<clipindex>1</clipindex>
							</link>
							<link>
								<linkclipref>msub200012-0409d1k1009 11</linkclipref>
								<mediatype>audio</mediatype>
								<trackindex>2</trackindex>
								<clipindex>1</clipindex>
							</link>
							<link>
								<linkclipref>msub200012-0409d1k1009 12</linkclipref>
								<mediatype>audio</mediatype>
								<trackindex>3</trackindex>
								<clipindex>1</clipindex>
							</link>
							<link>
								<linkclipref>msub200012-0409d1k1009 13</linkclipref>
								<mediatype>audio</mediatype>
								<trackindex>4</trackindex>
								<clipindex>1</clipindex>
							</link>
							<link>
								<linkclipref>msub200012-0409d1k1009 14</linkclipref>
								<mediatype>audio</mediatype>
								<trackindex>5</trackindex>
								<clipindex>1</clipindex>
							</link>
							<link>
								<linkclipref>msub200012-0409d1k1009 15</linkclipref>
								<mediatype>audio</mediatype>
								<trackindex>6</trackindex>
								<clipindex>1</clipindex>
							</link>
							<link>
								<linkclipref>msub200012-0409d1k1009 16</linkclipref>
								<mediatype>audio</mediatype>
								<trackindex>7</trackindex>
								<clipindex>1</clipindex>
							</link>
							<link>
								<linkclipref>msub200012-0409d1k1009 17</linkclipref>
								<mediatype>audio</mediatype>
								<trackindex>8</trackindex>
								<clipindex>1</clipindex>
							</link>
						</clipitem>
						<enabled>TRUE</enabled>
						<locked>FALSE</locked>
					</track>
					<track>
						<clipitem id="msub200012-0409d1k1009 17">
							<name>msub200012-0409d1k1009</name>
							<duration>6330</duration>
							<rate>
								<ntsc>FALSE</ntsc>
								<timebase>25</timebase>
							</rate>
							<in>0</in>
							<out>6330</out>
							<start>0</start>
							<end>6330</end>
							<subframeoffset>0</subframeoffset>
							<masterclipid>msub200012-0409d1k1009 1</masterclipid>
							<syncoffset>0</syncoffset>
							<logginginfo>
								<scene/>
								<shottake/>
								<lognote/>
								<good>FALSE</good>
							</logginginfo>
							<labels>
								<label>Interviews</label>
								<label2/>
							</labels>
							<comments>
								<mastercomment1>RÅSTOFF. BR_FINFREDAG_MSUA_OPRO</mastercomment1>
								<mastercomment2/>
								<mastercomment3/>
								<mastercomment4/>
							</comments>
							<file id="msub200012-0409d1k1009 2"/>
							<filter>
								<effect>
									<name>Audio Levels</name>
									<effectid>audiolevels</effectid>
									<effectcategory>audiolevels</effectcategory>
									<effecttype>audiolevels</effecttype>
									<mediatype>audio</mediatype>
									<parameter>
										<name>Level</name>
										<parameterid>level</parameterid>
										<valuemin>0</valuemin>
										<valuemax>3.98109</valuemax>
										<value>1</value>
									</parameter>
								</effect>
							</filter>
							<filter>
								<effect>
									<name>Audio Pan</name>
									<effectid>audiopan</effectid>
									<effectcategory>audiopan</effectcategory>
									<effecttype>audiopan</effecttype>
									<mediatype>audio</mediatype>
									<parameter>
										<name>Pan</name>
										<parameterid>pan</parameterid>
										<valuemin>-1</valuemin>
										<valuemax>1</valuemax>
										<value>0</value>
									</parameter>
								</effect>
							</filter>
							<sourcetrack>
								<mediatype>audio</mediatype>
								<trackindex>8</trackindex>
							</sourcetrack>
							<link>
								<linkclipref>msub200012-0409d1k1009 9</linkclipref>
								<mediatype>video</mediatype>
								<trackindex>1</trackindex>
								<clipindex>1</clipindex>
							</link>
							<link>
								<linkclipref>msub200012-0409d1k1009 10</linkclipref>
								<mediatype>audio</mediatype>
								<trackindex>1</trackindex>
								<clipindex>1</clipindex>
							</link>
							<link>
								<linkclipref>msub200012-0409d1k1009 11</linkclipref>
								<mediatype>audio</mediatype>
								<trackindex>2</trackindex>
								<clipindex>1</clipindex>
							</link>
							<link>
								<linkclipref>msub200012-0409d1k1009 12</linkclipref>
								<mediatype>audio</mediatype>
								<trackindex>3</trackindex>
								<clipindex>1</clipindex>
							</link>
							<link>
								<linkclipref>msub200012-0409d1k1009 13</linkclipref>
								<mediatype>audio</mediatype>
								<trackindex>4</trackindex>
								<clipindex>1</clipindex>
							</link>
							<link>
								<linkclipref>msub200012-0409d1k1009 14</linkclipref>
								<mediatype>audio</mediatype>
								<trackindex>5</trackindex>
								<clipindex>1</clipindex>
							</link>
							<link>
								<linkclipref>msub200012-0409d1k1009 15</linkclipref>
								<mediatype>audio</mediatype>
								<trackindex>6</trackindex>
								<clipindex>1</clipindex>
							</link>
							<link>
								<linkclipref>msub200012-0409d1k1009 16</linkclipref>
								<mediatype>audio</mediatype>
								<trackindex>7</trackindex>
								<clipindex>1</clipindex>
							</link>
							<link>
								<linkclipref>msub200012-0409d1k1009 17</linkclipref>
								<mediatype>audio</mediatype>
								<trackindex>8</trackindex>
								<clipindex>1</clipindex>
							</link>
						</clipitem>
						<enabled>TRUE</enabled>
						<locked>FALSE</locked>
					</track>
				</audio>
			</media>
		</clip>
		<clip id="msub200012-0409d1k2004 ">
			<name>msub200012-0409d1k2004</name>
			<duration>4463</duration>
			<rate>
				<ntsc>FALSE</ntsc>
				<timebase>25</timebase>
			</rate>
			<in>317</in>
			<out>-1</out>
			<anamorphic>FALSE</anamorphic>
			<masterclipid>msub200012-0409d1k1006 1</masterclipid>
			<ismasterclip>FALSE</ismasterclip>
			<logginginfo>
				<description>msub200012-0409d1k1006</description>
				<scene/>
				<shottake/>
				<lognote/>
				<good>FALSE</good>
			</logginginfo>
			<labels>
				<label>Good Take</label>
				<label2/>
			</labels>
			<comments>
				<mastercomment1>RÅSTOFF. BR_FINFREDAG_MSUA_OPRO</mastercomment1>
				<mastercomment2/>
				<mastercomment3/>
				<mastercomment4/>
			</comments>
			<media>
				<video>
					<track>
						<clipitem id="msub200012-0409d1k2004 1">
							<name>msub200012-0409d1k2004</name>
							<duration>4463</duration>
							<rate>
								<ntsc>FALSE</ntsc>
								<timebase>25</timebase>
							</rate>
							<in>0</in>
							<out>4463</out>
							<start>0</start>
							<end>4463</end>
							<pixelaspectratio>Square</pixelaspectratio>
							<anamorphic>FALSE</anamorphic>
							<alphatype>none</alphatype>
							<masterclipid>msub200012-0409d1k2004 2</masterclipid>
							<syncoffset>0</syncoffset>
							<logginginfo>
								<description>msub200012-0409d1k2004</description>
								<scene/>
								<shottake/>
								<lognote/>
								<good>FALSE</good>
							</logginginfo>
							<labels>
								<label>Good Take</label>
								<label2/>
							</labels>
							<comments>
								<mastercomment1>RÅSTOFF. BR_FINFREDAG_MSUA_OPRO</mastercomment1>
								<mastercomment2/>
								<mastercomment3/>
								<mastercomment4/>
							</comments>
							<file id="msub200012-0409d1k2004 3">
								<name>msub200012-0409d1k2004.mxf</name>
								<pathurl>file://localhost/Volumes/omfs/clip.dir/MXF/1080i/msub200012-0409d1k2004.mxf</pathurl>
								<rate>
									<timebase>25</timebase>
								</rate>
								<duration>4463</duration>
								<timecode>
									<rate>
										<timebase>25</timebase>
									</rate>
									<string>20:00:33:10</string>
									<frame>1800835</frame>
									<displayformat>NDF</displayformat>
									<source>source</source>
								</timecode>
								<media>
									<video>
										<duration>4463</duration>
										<samplecharacteristics>
											<width>1920</width>
											<height>1080</height>
										</samplecharacteristics>
									</video>
									<audio>
										<rate>
											<timebase>48000</timebase>
										</rate>
										<trackcount>1</trackcount>
										<samplecharacteristics>
											<depth>24</depth>
										</samplecharacteristics>
									</audio>
								</media>
							</file>
							<sourcetrack>
								<mediatype>video</mediatype>
							</sourcetrack>
							<link>
								<linkclipref>msub200012-0409d1k2004 1</linkclipref>
								<mediatype>video</mediatype>
								<trackindex>1</trackindex>
								<clipindex>1</clipindex>
							</link>
							<link>
								<linkclipref>msub200012-0409d1k2004 4</linkclipref>
								<mediatype>audio</mediatype>
								<trackindex>1</trackindex>
								<clipindex>1</clipindex>
							</link>
							<link>
								<linkclipref>msub200012-0409d1k2004 5</linkclipref>
								<mediatype>audio</mediatype>
								<trackindex>2</trackindex>
								<clipindex>1</clipindex>
							</link>
							<link>
								<linkclipref>msub200012-0409d1k2004 6</linkclipref>
								<mediatype>audio</mediatype>
								<trackindex>3</trackindex>
								<clipindex>1</clipindex>
							</link>
							<link>
								<linkclipref>msub200012-0409d1k2004 7</linkclipref>
								<mediatype>audio</mediatype>
								<trackindex>4</trackindex>
								<clipindex>1</clipindex>
							</link>
							<link>
								<linkclipref>msub200012-0409d1k2004 8</linkclipref>
								<mediatype>audio</mediatype>
								<trackindex>5</trackindex>
								<clipindex>1</clipindex>
							</link>
							<link>
								<linkclipref>msub200012-0409d1k2004 9</linkclipref>
								<mediatype>audio</mediatype>
								<trackindex>6</trackindex>
								<clipindex>1</clipindex>
							</link>
							<link>
								<linkclipref>msub200012-0409d1k2004 10</linkclipref>
								<mediatype>audio</mediatype>
								<trackindex>7</trackindex>
								<clipindex>1</clipindex>
							</link>
							<link>
								<linkclipref>msub200012-0409d1k2004 11</linkclipref>
								<mediatype>audio</mediatype>
								<trackindex>8</trackindex>
								<clipindex>1</clipindex>
							</link>
							<fielddominance>upper</fielddominance>
						</clipitem>
						<enabled>TRUE</enabled>
						<locked>FALSE</locked>
					</track>
				</video>
				<audio>
					<in>317</in>
					<out>-1</out>
					<track>
						<clipitem id="msub200012-0409d1k2004 4">
							<name>msub200012-0409d1k2004</name>
							<duration>4463</duration>
							<rate>
								<ntsc>FALSE</ntsc>
								<timebase>25</timebase>
							</rate>
							<in>0</in>
							<out>4463</out>
							<start>0</start>
							<end>4463</end>
							<subframeoffset>0</subframeoffset>
							<anamorphic>FALSE</anamorphic>
							<masterclipid>msub200012-0409d1k2004 2</masterclipid>
							<syncoffset>0</syncoffset>
							<logginginfo>
								<description>msub200012-0409d1k2004</description>
								<scene/>
								<shottake/>
								<lognote/>
								<good>FALSE</good>
							</logginginfo>
							<labels>
								<label>Good Take</label>
								<label2/>
							</labels>
							<comments>
								<mastercomment1>RÅSTOFF. BR_FINFREDAG_MSUA_OPRO</mastercomment1>
								<mastercomment2/>
								<mastercomment3/>
								<mastercomment4/>
							</comments>
							<file id="msub200012-0409d1k2004 3"/>
							<filter>
								<effect>
									<name>Audio Levels</name>
									<effectid>audiolevels</effectid>
									<effectcategory>audiolevels</effectcategory>
									<effecttype>audiolevels</effecttype>
									<mediatype>audio</mediatype>
									<parameter>
										<name>Level</name>
										<parameterid>level</parameterid>
										<valuemin>0</valuemin>
										<valuemax>3.98109</valuemax>
										<value>1</value>
									</parameter>
								</effect>
							</filter>
							<filter>
								<effect>
									<name>Audio Pan</name>
									<effectid>audiopan</effectid>
									<effectcategory>audiopan</effectcategory>
									<effecttype>audiopan</effecttype>
									<mediatype>audio</mediatype>
									<parameter>
										<name>Pan</name>
										<parameterid>pan</parameterid>
										<valuemin>-1</valuemin>
										<valuemax>1</valuemax>
										<value>0</value>
									</parameter>
								</effect>
							</filter>
							<sourcetrack>
								<mediatype>audio</mediatype>
								<trackindex>1</trackindex>
							</sourcetrack>
							<link>
								<linkclipref>msub200012-0409d1k2004 1</linkclipref>
								<mediatype>video</mediatype>
								<trackindex>1</trackindex>
								<clipindex>1</clipindex>
							</link>
							<link>
								<linkclipref>msub200012-0409d1k2004 4</linkclipref>
								<mediatype>audio</mediatype>
								<trackindex>1</trackindex>
								<clipindex>1</clipindex>
							</link>
							<link>
								<linkclipref>msub200012-0409d1k2004 5</linkclipref>
								<mediatype>audio</mediatype>
								<trackindex>2</trackindex>
								<clipindex>1</clipindex>
							</link>
							<link>
								<linkclipref>msub200012-0409d1k2004 6</linkclipref>
								<mediatype>audio</mediatype>
								<trackindex>3</trackindex>
								<clipindex>1</clipindex>
							</link>
							<link>
								<linkclipref>msub200012-0409d1k2004 7</linkclipref>
								<mediatype>audio</mediatype>
								<trackindex>4</trackindex>
								<clipindex>1</clipindex>
							</link>
							<link>
								<linkclipref>msub200012-0409d1k2004 8</linkclipref>
								<mediatype>audio</mediatype>
								<trackindex>5</trackindex>
								<clipindex>1</clipindex>
							</link>
							<link>
								<linkclipref>msub200012-0409d1k2004 9</linkclipref>
								<mediatype>audio</mediatype>
								<trackindex>6</trackindex>
								<clipindex>1</clipindex>
							</link>
							<link>
								<linkclipref>msub200012-0409d1k2004 10</linkclipref>
								<mediatype>audio</mediatype>
								<trackindex>7</trackindex>
								<clipindex>1</clipindex>
							</link>
							<link>
								<linkclipref>msub200012-0409d1k2004 11</linkclipref>
								<mediatype>audio</mediatype>
								<trackindex>8</trackindex>
								<clipindex>1</clipindex>
							</link>
						</clipitem>
						<enabled>TRUE</enabled>
						<locked>FALSE</locked>
					</track>
					<track>
						<clipitem id="msub200012-0409d1k2004 5">
							<name>msub200012-0409d1k2004</name>
							<duration>4463</duration>
							<rate>
								<ntsc>FALSE</ntsc>
								<timebase>25</timebase>
							</rate>
							<in>0</in>
							<out>4463</out>
							<start>0</start>
							<end>4463</end>
							<subframeoffset>0</subframeoffset>
							<anamorphic>FALSE</anamorphic>
							<masterclipid>msub200012-0409d1k2004 2</masterclipid>
							<syncoffset>0</syncoffset>
							<logginginfo>
								<description>msub200012-0409d1k2004</description>
								<scene/>
								<shottake/>
								<lognote/>
								<good>FALSE</good>
							</logginginfo>
							<labels>
								<label>Good Take</label>
								<label2/>
							</labels>
							<comments>
								<mastercomment1>RÅSTOFF. BR_FINFREDAG_MSUA_OPRO</mastercomment1>
								<mastercomment2/>
								<mastercomment3/>
								<mastercomment4/>
							</comments>
							<file id="msub200012-0409d1k2004 3"/>
							<filter>
								<effect>
									<name>Audio Levels</name>
									<effectid>audiolevels</effectid>
									<effectcategory>audiolevels</effectcategory>
									<effecttype>audiolevels</effecttype>
									<mediatype>audio</mediatype>
									<parameter>
										<name>Level</name>
										<parameterid>level</parameterid>
										<valuemin>0</valuemin>
										<valuemax>3.98109</valuemax>
										<value>1</value>
									</parameter>
								</effect>
							</filter>
							<filter>
								<effect>
									<name>Audio Pan</name>
									<effectid>audiopan</effectid>
									<effectcategory>audiopan</effectcategory>
									<effecttype>audiopan</effecttype>
									<mediatype>audio</mediatype>
									<parameter>
										<name>Pan</name>
										<parameterid>pan</parameterid>
										<valuemin>-1</valuemin>
										<valuemax>1</valuemax>
										<value>0</value>
									</parameter>
								</effect>
							</filter>
							<sourcetrack>
								<mediatype>audio</mediatype>
								<trackindex>2</trackindex>
							</sourcetrack>
							<link>
								<linkclipref>msub200012-0409d1k2004 1</linkclipref>
								<mediatype>video</mediatype>
								<trackindex>1</trackindex>
								<clipindex>1</clipindex>
							</link>
							<link>
								<linkclipref>msub200012-0409d1k2004 4</linkclipref>
								<mediatype>audio</mediatype>
								<trackindex>1</trackindex>
								<clipindex>1</clipindex>
							</link>
							<link>
								<linkclipref>msub200012-0409d1k2004 5</linkclipref>
								<mediatype>audio</mediatype>
								<trackindex>2</trackindex>
								<clipindex>1</clipindex>
							</link>
							<link>
								<linkclipref>msub200012-0409d1k2004 6</linkclipref>
								<mediatype>audio</mediatype>
								<trackindex>3</trackindex>
								<clipindex>1</clipindex>
							</link>
							<link>
								<linkclipref>msub200012-0409d1k2004 7</linkclipref>
								<mediatype>audio</mediatype>
								<trackindex>4</trackindex>
								<clipindex>1</clipindex>
							</link>
							<link>
								<linkclipref>msub200012-0409d1k2004 8</linkclipref>
								<mediatype>audio</mediatype>
								<trackindex>5</trackindex>
								<clipindex>1</clipindex>
							</link>
							<link>
								<linkclipref>msub200012-0409d1k2004 9</linkclipref>
								<mediatype>audio</mediatype>
								<trackindex>6</trackindex>
								<clipindex>1</clipindex>
							</link>
							<link>
								<linkclipref>msub200012-0409d1k2004 10</linkclipref>
								<mediatype>audio</mediatype>
								<trackindex>7</trackindex>
								<clipindex>1</clipindex>
							</link>
							<link>
								<linkclipref>msub200012-0409d1k2004 11</linkclipref>
								<mediatype>audio</mediatype>
								<trackindex>8</trackindex>
								<clipindex>1</clipindex>
							</link>
						</clipitem>
						<enabled>TRUE</enabled>
						<locked>FALSE</locked>
					</track>
					<track>
						<clipitem id="msub200012-0409d1k2004 6">
							<name>msub200012-0409d1k2004</name>
							<duration>4463</duration>
							<rate>
								<ntsc>FALSE</ntsc>
								<timebase>25</timebase>
							</rate>
							<in>0</in>
							<out>4463</out>
							<start>0</start>
							<end>4463</end>
							<subframeoffset>0</subframeoffset>
							<anamorphic>FALSE</anamorphic>
							<masterclipid>msub200012-0409d1k2004 2</masterclipid>
							<syncoffset>0</syncoffset>
							<logginginfo>
								<description>msub200012-0409d1k2004</description>
								<scene/>
								<shottake/>
								<lognote/>
								<good>FALSE</good>
							</logginginfo>
							<labels>
								<label>Good Take</label>
								<label2/>
							</labels>
							<comments>
								<mastercomment1>RÅSTOFF. BR_FINFREDAG_MSUA_OPRO</mastercomment1>
								<mastercomment2/>
								<mastercomment3/>
								<mastercomment4/>
							</comments>
							<file id="msub200012-0409d1k2004 3"/>
							<filter>
								<effect>
									<name>Audio Levels</name>
									<effectid>audiolevels</effectid>
									<effectcategory>audiolevels</effectcategory>
									<effecttype>audiolevels</effecttype>
									<mediatype>audio</mediatype>
									<parameter>
										<name>Level</name>
										<parameterid>level</parameterid>
										<valuemin>0</valuemin>
										<valuemax>3.98109</valuemax>
										<value>1</value>
									</parameter>
								</effect>
							</filter>
							<filter>
								<effect>
									<name>Audio Pan</name>
									<effectid>audiopan</effectid>
									<effectcategory>audiopan</effectcategory>
									<effecttype>audiopan</effecttype>
									<mediatype>audio</mediatype>
									<parameter>
										<name>Pan</name>
										<parameterid>pan</parameterid>
										<valuemin>-1</valuemin>
										<valuemax>1</valuemax>
										<value>0</value>
									</parameter>
								</effect>
							</filter>
							<sourcetrack>
								<mediatype>audio</mediatype>
								<trackindex>3</trackindex>
							</sourcetrack>
							<link>
								<linkclipref>msub200012-0409d1k2004 1</linkclipref>
								<mediatype>video</mediatype>
								<trackindex>1</trackindex>
								<clipindex>1</clipindex>
							</link>
							<link>
								<linkclipref>msub200012-0409d1k2004 4</linkclipref>
								<mediatype>audio</mediatype>
								<trackindex>1</trackindex>
								<clipindex>1</clipindex>
							</link>
							<link>
								<linkclipref>msub200012-0409d1k2004 5</linkclipref>
								<mediatype>audio</mediatype>
								<trackindex>2</trackindex>
								<clipindex>1</clipindex>
							</link>
							<link>
								<linkclipref>msub200012-0409d1k2004 6</linkclipref>
								<mediatype>audio</mediatype>
								<trackindex>3</trackindex>
								<clipindex>1</clipindex>
							</link>
							<link>
								<linkclipref>msub200012-0409d1k2004 7</linkclipref>
								<mediatype>audio</mediatype>
								<trackindex>4</trackindex>
								<clipindex>1</clipindex>
							</link>
							<link>
								<linkclipref>msub200012-0409d1k2004 8</linkclipref>
								<mediatype>audio</mediatype>
								<trackindex>5</trackindex>
								<clipindex>1</clipindex>
							</link>
							<link>
								<linkclipref>msub200012-0409d1k2004 9</linkclipref>
								<mediatype>audio</mediatype>
								<trackindex>6</trackindex>
								<clipindex>1</clipindex>
							</link>
							<link>
								<linkclipref>msub200012-0409d1k2004 10</linkclipref>
								<mediatype>audio</mediatype>
								<trackindex>7</trackindex>
								<clipindex>1</clipindex>
							</link>
							<link>
								<linkclipref>msub200012-0409d1k2004 11</linkclipref>
								<mediatype>audio</mediatype>
								<trackindex>8</trackindex>
								<clipindex>1</clipindex>
							</link>
						</clipitem>
						<enabled>TRUE</enabled>
						<locked>FALSE</locked>
					</track>
					<track>
						<clipitem id="msub200012-0409d1k2004 7">
							<name>msub200012-0409d1k2004</name>
							<duration>4463</duration>
							<rate>
								<ntsc>FALSE</ntsc>
								<timebase>25</timebase>
							</rate>
							<in>0</in>
							<out>4463</out>
							<start>0</start>
							<end>4463</end>
							<subframeoffset>0</subframeoffset>
							<anamorphic>FALSE</anamorphic>
							<masterclipid>msub200012-0409d1k2004 2</masterclipid>
							<syncoffset>0</syncoffset>
							<logginginfo>
								<description>msub200012-0409d1k2004</description>
								<scene/>
								<shottake/>
								<lognote/>
								<good>FALSE</good>
							</logginginfo>
							<labels>
								<label>Good Take</label>
								<label2/>
							</labels>
							<comments>
								<mastercomment1>RÅSTOFF. BR_FINFREDAG_MSUA_OPRO</mastercomment1>
								<mastercomment2/>
								<mastercomment3/>
								<mastercomment4/>
							</comments>
							<file id="msub200012-0409d1k2004 3"/>
							<filter>
								<effect>
									<name>Audio Levels</name>
									<effectid>audiolevels</effectid>
									<effectcategory>audiolevels</effectcategory>
									<effecttype>audiolevels</effecttype>
									<mediatype>audio</mediatype>
									<parameter>
										<name>Level</name>
										<parameterid>level</parameterid>
										<valuemin>0</valuemin>
										<valuemax>3.98109</valuemax>
										<value>1</value>
									</parameter>
								</effect>
							</filter>
							<filter>
								<effect>
									<name>Audio Pan</name>
									<effectid>audiopan</effectid>
									<effectcategory>audiopan</effectcategory>
									<effecttype>audiopan</effecttype>
									<mediatype>audio</mediatype>
									<parameter>
										<name>Pan</name>
										<parameterid>pan</parameterid>
										<valuemin>-1</valuemin>
										<valuemax>1</valuemax>
										<value>0</value>
									</parameter>
								</effect>
							</filter>
							<sourcetrack>
								<mediatype>audio</mediatype>
								<trackindex>4</trackindex>
							</sourcetrack>
							<link>
								<linkclipref>msub200012-0409d1k2004 1</linkclipref>
								<mediatype>video</mediatype>
								<trackindex>1</trackindex>
								<clipindex>1</clipindex>
							</link>
							<link>
								<linkclipref>msub200012-0409d1k2004 4</linkclipref>
								<mediatype>audio</mediatype>
								<trackindex>1</trackindex>
								<clipindex>1</clipindex>
							</link>
							<link>
								<linkclipref>msub200012-0409d1k2004 5</linkclipref>
								<mediatype>audio</mediatype>
								<trackindex>2</trackindex>
								<clipindex>1</clipindex>
							</link>
							<link>
								<linkclipref>msub200012-0409d1k2004 6</linkclipref>
								<mediatype>audio</mediatype>
								<trackindex>3</trackindex>
								<clipindex>1</clipindex>
							</link>
							<link>
								<linkclipref>msub200012-0409d1k2004 7</linkclipref>
								<mediatype>audio</mediatype>
								<trackindex>4</trackindex>
								<clipindex>1</clipindex>
							</link>
							<link>
								<linkclipref>msub200012-0409d1k2004 8</linkclipref>
								<mediatype>audio</mediatype>
								<trackindex>5</trackindex>
								<clipindex>1</clipindex>
							</link>
							<link>
								<linkclipref>msub200012-0409d1k2004 9</linkclipref>
								<mediatype>audio</mediatype>
								<trackindex>6</trackindex>
								<clipindex>1</clipindex>
							</link>
							<link>
								<linkclipref>msub200012-0409d1k2004 10</linkclipref>
								<mediatype>audio</mediatype>
								<trackindex>7</trackindex>
								<clipindex>1</clipindex>
							</link>
							<link>
								<linkclipref>msub200012-0409d1k2004 11</linkclipref>
								<mediatype>audio</mediatype>
								<trackindex>8</trackindex>
								<clipindex>1</clipindex>
							</link>
						</clipitem>
						<enabled>TRUE</enabled>
						<locked>FALSE</locked>
					</track>
					<track>
						<clipitem id="msub200012-0409d1k2004 8">
							<name>msub200012-0409d1k2004</name>
							<duration>4463</duration>
							<rate>
								<ntsc>FALSE</ntsc>
								<timebase>25</timebase>
							</rate>
							<in>0</in>
							<out>4463</out>
							<start>0</start>
							<end>4463</end>
							<subframeoffset>0</subframeoffset>
							<anamorphic>FALSE</anamorphic>
							<masterclipid>msub200012-0409d1k2004 2</masterclipid>
							<syncoffset>0</syncoffset>
							<logginginfo>
								<description>msub200012-0409d1k2004</description>
								<scene/>
								<shottake/>
								<lognote/>
								<good>FALSE</good>
							</logginginfo>
							<labels>
								<label>Good Take</label>
								<label2/>
							</labels>
							<comments>
								<mastercomment1>RÅSTOFF. BR_FINFREDAG_MSUA_OPRO</mastercomment1>
								<mastercomment2/>
								<mastercomment3/>
								<mastercomment4/>
							</comments>
							<file id="msub200012-0409d1k2004 3"/>
							<filter>
								<effect>
									<name>Audio Levels</name>
									<effectid>audiolevels</effectid>
									<effectcategory>audiolevels</effectcategory>
									<effecttype>audiolevels</effecttype>
									<mediatype>audio</mediatype>
									<parameter>
										<name>Level</name>
										<parameterid>level</parameterid>
										<valuemin>0</valuemin>
										<valuemax>3.98109</valuemax>
										<value>1</value>
									</parameter>
								</effect>
							</filter>
							<filter>
								<effect>
									<name>Audio Pan</name>
									<effectid>audiopan</effectid>
									<effectcategory>audiopan</effectcategory>
									<effecttype>audiopan</effecttype>
									<mediatype>audio</mediatype>
									<parameter>
										<name>Pan</name>
										<parameterid>pan</parameterid>
										<valuemin>-1</valuemin>
										<valuemax>1</valuemax>
										<value>0</value>
									</parameter>
								</effect>
							</filter>
							<sourcetrack>
								<mediatype>audio</mediatype>
								<trackindex>5</trackindex>
							</sourcetrack>
							<link>
								<linkclipref>msub200012-0409d1k2004 1</linkclipref>
								<mediatype>video</mediatype>
								<trackindex>1</trackindex>
								<clipindex>1</clipindex>
							</link>
							<link>
								<linkclipref>msub200012-0409d1k2004 4</linkclipref>
								<mediatype>audio</mediatype>
								<trackindex>1</trackindex>
								<clipindex>1</clipindex>
							</link>
							<link>
								<linkclipref>msub200012-0409d1k2004 5</linkclipref>
								<mediatype>audio</mediatype>
								<trackindex>2</trackindex>
								<clipindex>1</clipindex>
							</link>
							<link>
								<linkclipref>msub200012-0409d1k2004 6</linkclipref>
								<mediatype>audio</mediatype>
								<trackindex>3</trackindex>
								<clipindex>1</clipindex>
							</link>
							<link>
								<linkclipref>msub200012-0409d1k2004 7</linkclipref>
								<mediatype>audio</mediatype>
								<trackindex>4</trackindex>
								<clipindex>1</clipindex>
							</link>
							<link>
								<linkclipref>msub200012-0409d1k2004 8</linkclipref>
								<mediatype>audio</mediatype>
								<trackindex>5</trackindex>
								<clipindex>1</clipindex>
							</link>
							<link>
								<linkclipref>msub200012-0409d1k2004 9</linkclipref>
								<mediatype>audio</mediatype>
								<trackindex>6</trackindex>
								<clipindex>1</clipindex>
							</link>
							<link>
								<linkclipref>msub200012-0409d1k2004 10</linkclipref>
								<mediatype>audio</mediatype>
								<trackindex>7</trackindex>
								<clipindex>1</clipindex>
							</link>
							<link>
								<linkclipref>msub200012-0409d1k2004 11</linkclipref>
								<mediatype>audio</mediatype>
								<trackindex>8</trackindex>
								<clipindex>1</clipindex>
							</link>
						</clipitem>
						<enabled>TRUE</enabled>
						<locked>FALSE</locked>
					</track>
					<track>
						<clipitem id="msub200012-0409d1k2004 9">
							<name>msub200012-0409d1k2004</name>
							<duration>4463</duration>
							<rate>
								<ntsc>FALSE</ntsc>
								<timebase>25</timebase>
							</rate>
							<in>0</in>
							<out>4463</out>
							<start>0</start>
							<end>4463</end>
							<subframeoffset>0</subframeoffset>
							<anamorphic>FALSE</anamorphic>
							<masterclipid>msub200012-0409d1k2004 2</masterclipid>
							<syncoffset>0</syncoffset>
							<logginginfo>
								<description>msub200012-0409d1k2004</description>
								<scene/>
								<shottake/>
								<lognote/>
								<good>FALSE</good>
							</logginginfo>
							<labels>
								<label>Good Take</label>
								<label2/>
							</labels>
							<comments>
								<mastercomment1>RÅSTOFF. BR_FINFREDAG_MSUA_OPRO</mastercomment1>
								<mastercomment2/>
								<mastercomment3/>
								<mastercomment4/>
							</comments>
							<file id="msub200012-0409d1k2004 3"/>
							<filter>
								<effect>
									<name>Audio Levels</name>
									<effectid>audiolevels</effectid>
									<effectcategory>audiolevels</effectcategory>
									<effecttype>audiolevels</effecttype>
									<mediatype>audio</mediatype>
									<parameter>
										<name>Level</name>
										<parameterid>level</parameterid>
										<valuemin>0</valuemin>
										<valuemax>3.98109</valuemax>
										<value>1</value>
									</parameter>
								</effect>
							</filter>
							<filter>
								<effect>
									<name>Audio Pan</name>
									<effectid>audiopan</effectid>
									<effectcategory>audiopan</effectcategory>
									<effecttype>audiopan</effecttype>
									<mediatype>audio</mediatype>
									<parameter>
										<name>Pan</name>
										<parameterid>pan</parameterid>
										<valuemin>-1</valuemin>
										<valuemax>1</valuemax>
										<value>0</value>
									</parameter>
								</effect>
							</filter>
							<sourcetrack>
								<mediatype>audio</mediatype>
								<trackindex>6</trackindex>
							</sourcetrack>
							<link>
								<linkclipref>msub200012-0409d1k2004 1</linkclipref>
								<mediatype>video</mediatype>
								<trackindex>1</trackindex>
								<clipindex>1</clipindex>
							</link>
							<link>
								<linkclipref>msub200012-0409d1k2004 4</linkclipref>
								<mediatype>audio</mediatype>
								<trackindex>1</trackindex>
								<clipindex>1</clipindex>
							</link>
							<link>
								<linkclipref>msub200012-0409d1k2004 5</linkclipref>
								<mediatype>audio</mediatype>
								<trackindex>2</trackindex>
								<clipindex>1</clipindex>
							</link>
							<link>
								<linkclipref>msub200012-0409d1k2004 6</linkclipref>
								<mediatype>audio</mediatype>
								<trackindex>3</trackindex>
								<clipindex>1</clipindex>
							</link>
							<link>
								<linkclipref>msub200012-0409d1k2004 7</linkclipref>
								<mediatype>audio</mediatype>
								<trackindex>4</trackindex>
								<clipindex>1</clipindex>
							</link>
							<link>
								<linkclipref>msub200012-0409d1k2004 8</linkclipref>
								<mediatype>audio</mediatype>
								<trackindex>5</trackindex>
								<clipindex>1</clipindex>
							</link>
							<link>
								<linkclipref>msub200012-0409d1k2004 9</linkclipref>
								<mediatype>audio</mediatype>
								<trackindex>6</trackindex>
								<clipindex>1</clipindex>
							</link>
							<link>
								<linkclipref>msub200012-0409d1k2004 10</linkclipref>
								<mediatype>audio</mediatype>
								<trackindex>7</trackindex>
								<clipindex>1</clipindex>
							</link>
							<link>
								<linkclipref>msub200012-0409d1k2004 11</linkclipref>
								<mediatype>audio</mediatype>
								<trackindex>8</trackindex>
								<clipindex>1</clipindex>
							</link>
						</clipitem>
						<enabled>TRUE</enabled>
						<locked>FALSE</locked>
					</track>
					<track>
						<clipitem id="msub200012-0409d1k2004 10">
							<name>msub200012-0409d1k2004</name>
							<duration>4463</duration>
							<rate>
								<ntsc>FALSE</ntsc>
								<timebase>25</timebase>
							</rate>
							<in>0</in>
							<out>4463</out>
							<start>0</start>
							<end>4463</end>
							<subframeoffset>0</subframeoffset>
							<anamorphic>FALSE</anamorphic>
							<masterclipid>msub200012-0409d1k2004 2</masterclipid>
							<syncoffset>0</syncoffset>
							<logginginfo>
								<description>msub200012-0409d1k2004</description>
								<scene/>
								<shottake/>
								<lognote/>
								<good>FALSE</good>
							</logginginfo>
							<labels>
								<label>Good Take</label>
								<label2/>
							</labels>
							<comments>
								<mastercomment1>RÅSTOFF. BR_FINFREDAG_MSUA_OPRO</mastercomment1>
								<mastercomment2/>
								<mastercomment3/>
								<mastercomment4/>
							</comments>
							<file id="msub200012-0409d1k2004 3"/>
							<filter>
								<effect>
									<name>Audio Levels</name>
									<effectid>audiolevels</effectid>
									<effectcategory>audiolevels</effectcategory>
									<effecttype>audiolevels</effecttype>
									<mediatype>audio</mediatype>
									<parameter>
										<name>Level</name>
										<parameterid>level</parameterid>
										<valuemin>0</valuemin>
										<valuemax>3.98109</valuemax>
										<value>1</value>
									</parameter>
								</effect>
							</filter>
							<filter>
								<effect>
									<name>Audio Pan</name>
									<effectid>audiopan</effectid>
									<effectcategory>audiopan</effectcategory>
									<effecttype>audiopan</effecttype>
									<mediatype>audio</mediatype>
									<parameter>
										<name>Pan</name>
										<parameterid>pan</parameterid>
										<valuemin>-1</valuemin>
										<valuemax>1</valuemax>
										<value>0</value>
									</parameter>
								</effect>
							</filter>
							<sourcetrack>
								<mediatype>audio</mediatype>
								<trackindex>7</trackindex>
							</sourcetrack>
							<link>
								<linkclipref>msub200012-0409d1k2004 1</linkclipref>
								<mediatype>video</mediatype>
								<trackindex>1</trackindex>
								<clipindex>1</clipindex>
							</link>
							<link>
								<linkclipref>msub200012-0409d1k2004 4</linkclipref>
								<mediatype>audio</mediatype>
								<trackindex>1</trackindex>
								<clipindex>1</clipindex>
							</link>
							<link>
								<linkclipref>msub200012-0409d1k2004 5</linkclipref>
								<mediatype>audio</mediatype>
								<trackindex>2</trackindex>
								<clipindex>1</clipindex>
							</link>
							<link>
								<linkclipref>msub200012-0409d1k2004 6</linkclipref>
								<mediatype>audio</mediatype>
								<trackindex>3</trackindex>
								<clipindex>1</clipindex>
							</link>
							<link>
								<linkclipref>msub200012-0409d1k2004 7</linkclipref>
								<mediatype>audio</mediatype>
								<trackindex>4</trackindex>
								<clipindex>1</clipindex>
							</link>
							<link>
								<linkclipref>msub200012-0409d1k2004 8</linkclipref>
								<mediatype>audio</mediatype>
								<trackindex>5</trackindex>
								<clipindex>1</clipindex>
							</link>
							<link>
								<linkclipref>msub200012-0409d1k2004 9</linkclipref>
								<mediatype>audio</mediatype>
								<trackindex>6</trackindex>
								<clipindex>1</clipindex>
							</link>
							<link>
								<linkclipref>msub200012-0409d1k2004 10</linkclipref>
								<mediatype>audio</mediatype>
								<trackindex>7</trackindex>
								<clipindex>1</clipindex>
							</link>
							<link>
								<linkclipref>msub200012-0409d1k2004 11</linkclipref>
								<mediatype>audio</mediatype>
								<trackindex>8</trackindex>
								<clipindex>1</clipindex>
							</link>
						</clipitem>
						<enabled>TRUE</enabled>
						<locked>FALSE</locked>
					</track>
					<track>
						<clipitem id="msub200012-0409d1k2004 11">
							<name>msub200012-0409d1k2004</name>
							<duration>4463</duration>
							<rate>
								<ntsc>FALSE</ntsc>
								<timebase>25</timebase>
							</rate>
							<in>0</in>
							<out>4463</out>
							<start>0</start>
							<end>4463</end>
							<subframeoffset>0</subframeoffset>
							<anamorphic>FALSE</anamorphic>
							<masterclipid>msub200012-0409d1k2004 2</masterclipid>
							<syncoffset>0</syncoffset>
							<logginginfo>
								<description>msub200012-0409d1k2004</description>
								<scene/>
								<shottake/>
								<lognote/>
								<good>FALSE</good>
							</logginginfo>
							<labels>
								<label>Good Take</label>
								<label2/>
							</labels>
							<comments>
								<mastercomment1>RÅSTOFF. BR_FINFREDAG_MSUA_OPRO</mastercomment1>
								<mastercomment2/>
								<mastercomment3/>
								<mastercomment4/>
							</comments>
							<file id="msub200012-0409d1k2004 3"/>
							<filter>
								<effect>
									<name>Audio Levels</name>
									<effectid>audiolevels</effectid>
									<effectcategory>audiolevels</effectcategory>
									<effecttype>audiolevels</effecttype>
									<mediatype>audio</mediatype>
									<parameter>
										<name>Level</name>
										<parameterid>level</parameterid>
										<valuemin>0</valuemin>
										<valuemax>3.98109</valuemax>
										<value>1</value>
									</parameter>
								</effect>
							</filter>
							<filter>
								<effect>
									<name>Audio Pan</name>
									<effectid>audiopan</effectid>
									<effectcategory>audiopan</effectcategory>
									<effecttype>audiopan</effecttype>
									<mediatype>audio</mediatype>
									<parameter>
										<name>Pan</name>
										<parameterid>pan</parameterid>
										<valuemin>-1</valuemin>
										<valuemax>1</valuemax>
										<value>0</value>
									</parameter>
								</effect>
							</filter>
							<sourcetrack>
								<mediatype>audio</mediatype>
								<trackindex>8</trackindex>
							</sourcetrack>
							<link>
								<linkclipref>msub200012-0409d1k2004 1</linkclipref>
								<mediatype>video</mediatype>
								<trackindex>1</trackindex>
								<clipindex>1</clipindex>
							</link>
							<link>
								<linkclipref>msub200012-0409d1k2004 4</linkclipref>
								<mediatype>audio</mediatype>
								<trackindex>1</trackindex>
								<clipindex>1</clipindex>
							</link>
							<link>
								<linkclipref>msub200012-0409d1k2004 5</linkclipref>
								<mediatype>audio</mediatype>
								<trackindex>2</trackindex>
								<clipindex>1</clipindex>
							</link>
							<link>
								<linkclipref>msub200012-0409d1k2004 6</linkclipref>
								<mediatype>audio</mediatype>
								<trackindex>3</trackindex>
								<clipindex>1</clipindex>
							</link>
							<link>
								<linkclipref>msub200012-0409d1k2004 7</linkclipref>
								<mediatype>audio</mediatype>
								<trackindex>4</trackindex>
								<clipindex>1</clipindex>
							</link>
							<link>
								<linkclipref>msub200012-0409d1k2004 8</linkclipref>
								<mediatype>audio</mediatype>
								<trackindex>5</trackindex>
								<clipindex>1</clipindex>
							</link>
							<link>
								<linkclipref>msub200012-0409d1k2004 9</linkclipref>
								<mediatype>audio</mediatype>
								<trackindex>6</trackindex>
								<clipindex>1</clipindex>
							</link>
							<link>
								<linkclipref>msub200012-0409d1k2004 10</linkclipref>
								<mediatype>audio</mediatype>
								<trackindex>7</trackindex>
								<clipindex>1</clipindex>
							</link>
							<link>
								<linkclipref>msub200012-0409d1k2004 11</linkclipref>
								<mediatype>audio</mediatype>
								<trackindex>8</trackindex>
								<clipindex>1</clipindex>
							</link>
						</clipitem>
						<enabled>TRUE</enabled>
						<locked>FALSE</locked>
					</track>
				</audio>
			</media>
		</clip>
	</children>
</bin>
</xmeml>


